<svg width="4273" height="1024" viewBox="0 0 4273 1024" fill="none" xmlns="http://www.w3.org/2000/svg">
<g clip-path="url(#clip0_892_10765)">
<path d="M150.188 149.906C350.477 -50.3834 675.21 -50.3834 875.5 149.906V149.906C1075.79 350.195 1075.79 674.928 875.5 875.218L512.844 1237.87L150.188 875.218C-50.1015 674.928 -50.1015 350.195 150.188 149.906V149.906Z" fill="#004D95"/>
<circle cx="512.046" cy="489.968" r="273.053" fill="#0079EB" stroke="white" stroke-width="33.7979"/>
<path d="M688.168 671.591L711.184 704.069L739.601 674.307L757.593 644.25C734.395 681.861 704.418 677.158 669.007 646.522L669 646.55L688.168 671.591Z" fill="#004D95"/>
<path d="M383.819 395.43C435.159 428.8 490.897 432.926 546.218 413.322C572.145 404.133 594.072 401.718 613.013 405.981C626.061 408.905 628.076 408.844 641.726 405.096C662.447 399.379 678.7 400.732 696.023 409.573C711.821 417.634 711.843 420.702 711.843 420.705C686.659 421.463 636.959 455.587 623.189 484.893C612.436 507.844 609.613 537.189 615.911 560.667C621.503 581.544 638.096 608.614 668.973 647.218C703.407 690.266 715.406 708.696 726.306 735.287C739.94 768.471 744.645 793.732 744.629 833.547C744.608 883.267 735.266 919.423 716.881 961.026C699.233 1001.01 583.972 1124.92 489.343 1213.6L149.403 873.657C141.786 866.04 134.461 858.242 127.423 850.278C130.77 850.313 134.94 850.207 139.035 849.948C160.107 848.664 178.155 838.368 199.68 815.418C215.093 798.959 236.234 771.925 236.14 768.763C236.118 768.048 226.997 777.534 215.859 789.854C184.208 824.878 153.414 843.751 126.562 844.559C125.132 844.602 123.842 844.711 122.707 844.869C113.633 834.31 105.06 823.469 96.9863 812.378C97.9811 812.328 98.9913 812.27 100.014 812.196C114.72 811.169 120.029 809.665 133.325 802.807C151.467 793.461 178.189 772.544 193.483 755.72L203.974 744.198L184.916 759.12C164.376 775.191 136.753 791.411 117.828 798.482C110.616 801.173 102.786 802.568 90.5 803.26C82.3527 791.537 74.7512 779.55 67.6943 767.334C78.6979 766.674 90.2715 764.75 99.4492 761.757C116.041 756.359 147.434 739.376 161.616 728.112C168.219 722.865 173.303 718.27 172.904 717.89C172.501 717.513 164.425 721.396 154.937 726.536C119.833 745.538 90.9325 754.601 62.8037 755.447C62.2339 755.464 61.6502 755.474 61.0537 755.479C54.1699 742.792 47.8618 729.876 42.127 716.77C62.0691 716.602 83.3389 712.337 106.292 703.941C121.448 698.392 149.235 684.748 140.487 687.156C137.52 687.961 126.366 691.135 115.687 694.188C87.6373 702.227 61.4336 705.55 36.8047 704.152C30.6886 689.085 25.3198 673.785 20.6953 658.31C43.2524 659.925 117.804 653.768 117.692 649.913C117.669 649.155 107.94 649.209 96.0664 650.043C69.0262 651.943 42.2683 650.454 17.1504 645.88C13.0636 630.829 9.67451 615.628 6.98242 600.329C22.5465 603.294 39.4061 605.409 57.874 606.739C67.4096 607.428 103.449 606.582 99.0254 605.783C97.2147 605.447 85.4638 603.872 72.9111 602.277C52.7488 599.732 27.5898 594.698 5.1123 588.954C2.85875 574.22 1.24694 559.406 0.279297 544.559C12.5469 548.441 25.8162 552.153 40.083 555.691C73.6244 564.023 83.3053 563.797 56.3262 555.311C34.6929 548.52 16.2039 542.143 -0.226562 535.61C-0.883265 521.855 -0.987158 508.078 -0.541992 494.316C12.3087 499.787 25.8204 504.863 39.5322 509.304C52.3124 513.427 63.6628 516.834 64.793 516.866C65.9209 516.897 49.095 508.734 27.4023 498.745C17.8621 494.352 8.62764 489.869 -0.174805 485.375C0.735335 467.07 2.62062 448.805 5.48242 430.663C23.7703 439.456 46.8082 450.265 77.6123 464.615C175.718 510.342 196.629 521.7 211.051 537.131C216.291 542.717 227.789 561.075 237.62 579.527C278.255 655.767 319.297 696.536 386.553 727.564C414.07 740.261 435.348 747.25 482.937 759.277C543.542 774.595 563.284 706.315 539.272 632.676C533.302 614.324 526.905 589.743 525.079 578.029C519.14 551.259 520.434 508.599 538.551 476.829C528.313 494.309 478.514 509.444 458.383 483.479C468.684 485.785 481.172 487.49 491.66 485.146C479.316 485.43 447.008 484.783 427.754 463.042C417.073 453.805 405.846 430.186 409.115 430.086C418.42 439.96 470.707 466.301 503.537 459.286C475.974 460.115 420.328 449.785 383.819 395.43ZM453.614 873.167C452.528 897.583 447.11 918.466 437.398 935.707C433.386 942.828 430.128 949.06 430.143 949.559C430.219 952.092 439.187 944.713 443.742 938.355C455.202 922.34 460.307 894.64 456.63 868.222L454.528 853.113L453.614 873.167ZM413.776 867.344C406.727 905.333 400.017 922.961 385.215 942.436C381.192 947.736 380.599 949.618 382.98 949.547C386.922 949.427 401.931 932.526 406.438 923.136C411.374 912.844 416.898 882.487 417.598 861.811L418.234 843.368L413.776 867.344ZM492.479 889.12C489.392 908.286 486.471 918.517 480.242 931.926C477.596 937.619 475.46 942.972 475.485 943.816C475.511 944.66 477.826 943.073 480.624 940.28C489.608 931.297 494.633 914.63 494.809 893.081L494.98 873.569L492.479 889.12ZM377.688 863.727C383.187 829.663 381.592 827.782 374.499 860.008C366.469 896.401 358.477 914.609 343.502 930.491C334.724 939.836 333.113 942.464 336.952 941.157C344.741 938.539 355.429 929.244 361.01 920.233C367.871 909.125 373.299 890.734 377.688 863.727ZM335.966 854.361C342.029 828.235 340.516 825.485 333.145 849.18C320.437 890.027 307.5 911.006 283.175 930.204C274.919 936.738 281.278 937.024 292.877 930.649C310.425 921.04 327.566 890.701 335.966 854.361ZM304.385 803.858C304.344 802.494 297.473 816.182 289.132 834.292C270.863 873.963 260.484 888.472 240.427 902.578C232.107 908.42 225.329 913.674 225.346 914.237C225.419 916.64 235.781 914.573 244.153 910.464C257.48 903.908 270.472 888.345 281.076 866.2C290.211 847.113 304.533 808.819 304.385 803.858ZM273.462 784.589C273.438 783.788 266.741 793.894 258.599 807.078C250.456 820.262 236.207 839.438 226.937 849.709C213.135 864.971 206.85 870.037 192.361 877.604C182.633 882.663 174.691 887.366 174.706 887.996C174.781 890.486 195.659 886.369 203.794 882.267C215.194 876.505 237.594 852.379 249.285 833.215C258.269 818.467 273.556 787.753 273.462 784.589ZM618.701 421.269C617.747 418.095 614.401 416.295 611.228 417.248C608.053 418.202 601.008 425.616 598.218 431.996C609.223 423.298 608.061 430.731 614.681 428.742C617.855 427.789 619.655 424.443 618.701 421.269Z" fill="white"/>
</g>
<path d="M2494.27 417.672C2512.82 417.672 2529.27 422.308 2543.6 431.584C2557.93 440.438 2568.9 452.665 2576.47 468.263L2649.21 627.628L2726.36 423.996H2759.88L2632.14 762.33C2620.32 795.214 2606.63 817.559 2591.03 829.365C2575.42 841.591 2555.83 847.705 2532.21 847.705H2506.91V825.571C2530.11 825.571 2548.87 821.143 2563.2 812.289C2577.54 803.437 2589.13 787.415 2597.99 764.227L2611.26 730.078L2497.42 480.91C2483.53 450.556 2463.91 433.692 2438.61 430.32V417.672H2494.27ZM1502.91 614.344L1632.56 303.836H1715.4V613.712C1715.4 653.342 1718.77 682.433 1725.52 700.983C1732.26 719.535 1744.28 730.495 1761.57 733.869V749.679C1716.03 749.679 1683.15 739.139 1662.91 718.059C1643.1 696.556 1633.19 661.774 1633.19 613.712V389.843L1494.69 721.221H1473.82L1304.34 377.194V721.221H1272.72V303.836H1349.87L1502.91 614.344ZM3768.88 417.672C3799.66 417.672 3826.42 424.628 3849.19 438.54C3872.39 452.032 3890.09 470.582 3902.32 494.192C3914.55 517.379 3920.66 543.519 3920.66 572.609C3920.66 601.699 3914.55 628.049 3902.32 651.659C3890.09 674.847 3872.39 693.398 3849.19 707.311C3826.42 720.803 3799.66 727.548 3768.88 727.548C3738.11 727.548 3711.12 720.803 3687.94 707.311C3665.17 693.398 3647.67 674.847 3635.44 651.659C3623.22 628.049 3617.1 601.699 3617.1 572.609C3617.1 543.519 3623.22 517.379 3635.44 494.192C3647.67 470.582 3665.17 452.032 3687.94 438.54C3711.12 424.628 3738.11 417.672 3768.88 417.672ZM1849.59 424.002C1864.77 424.002 1876.36 426.53 1884.37 431.59C1892.38 436.648 1898.08 445.08 1901.46 456.886C1904.81 468.268 1906.5 484.713 1906.5 506.213V721.23H1824.29V506.213C1824.29 484.713 1821.34 468.902 1815.44 458.782C1809.54 448.242 1797.73 442.972 1780.03 442.972H1773.7V424.002H1849.59ZM2355.38 424.002C2370.56 424.002 2382.15 426.53 2390.16 431.59C2398.18 436.648 2403.86 445.08 2407.24 456.886C2410.62 468.268 2412.3 484.713 2412.3 506.213V721.23H2330.08V506.213C2330.08 484.713 2327.14 468.902 2321.23 458.782C2315.32 448.242 2303.53 442.972 2285.82 442.972H2279.48V424.002H2355.38ZM3531.61 417.672C3549.75 417.672 3564.71 421.888 3576.51 430.32C3584.1 435.8 3589.58 441.912 3592.96 448.658C3596.33 454.982 3598 458.356 3598 458.776L3565.76 483.44C3562.8 479.646 3559.01 475.641 3554.38 471.425C3545.09 462.993 3534.35 458.776 3522.12 458.776C3497.66 458.776 3478.91 465.312 3465.84 478.382L3467.09 487.868C3467.94 495.456 3468.37 502.412 3468.37 508.736V721.224H3386.15V506.207C3386.15 484.707 3383.21 468.896 3377.3 458.776C3371.82 448.236 3360.23 442.966 3342.53 442.966H3336.19V423.996H3398.81C3413.14 423.996 3424.32 425.892 3432.32 429.687C3440.74 433.06 3447.29 438.962 3451.92 447.395C3474.69 427.578 3501.25 417.672 3531.61 417.672ZM4151.96 417.672C4192.02 417.672 4221.95 427.158 4241.76 446.128C4261.99 464.68 4272.12 493.981 4272.12 534.033V721.224H4189.9V533.4C4189.9 504.31 4184.43 483.018 4173.46 469.528C4162.92 456.036 4148.38 449.29 4129.83 449.29C4116.76 449.29 4105.17 451.188 4095.04 454.982C4085.35 458.356 4077.54 462.993 4071.66 468.896L4073.55 477.748C4075.24 482.808 4076.08 491.03 4076.08 502.412V721.224H3993.86V506.207C3993.86 484.707 3990.92 468.896 3985.01 458.776C3979.53 448.236 3967.92 442.966 3950.22 442.966H3943.9V423.996H4006.5C4020.85 423.996 4032.01 425.892 4040.03 429.687C4048.45 433.06 4055 438.962 4059.63 447.395C4081.13 427.579 4111.9 417.672 4151.96 417.672ZM2019.81 303.836C2035 303.836 2046.59 306.366 2054.6 311.424C2062.61 316.484 2068.29 324.917 2071.67 336.721C2075.04 348.105 2076.73 364.547 2076.73 386.049V721.221H1994.51V386.049C1994.51 364.547 1991.57 348.736 1985.66 338.618C1979.77 328.078 1967.95 322.808 1950.25 322.808H1943.93V303.836H2019.81ZM2182.86 303.836C2198.03 303.836 2209.62 306.366 2217.63 311.424C2225.64 316.484 2231.34 324.917 2234.72 336.721C2238.07 348.105 2239.76 364.547 2239.76 386.049V721.221H2157.56V386.049C2157.56 364.547 2154.6 348.736 2148.71 338.618C2142.8 328.078 2131 322.808 2113.28 322.808H2106.96V303.836H2182.86ZM3108.82 303.836C3161.95 303.836 3206.21 311.214 3241.64 325.97C3277.46 340.726 3295.39 370.239 3295.39 414.507C3295.39 433.899 3287.59 452.239 3271.98 469.525C3256.81 486.389 3235.3 498.405 3207.49 505.571C3278.74 512.739 3314.35 546.046 3314.35 605.49C3314.35 649.338 3296.85 679.693 3261.88 696.557C3226.88 712.999 3182.19 721.221 3127.8 721.221H2988.68V386.049C2988.68 364.547 2985.71 348.736 2979.81 338.618C2973.92 328.078 2962.1 322.808 2944.4 322.808H2938.08V303.836H3108.82ZM3768.88 446.128C3747.37 446.128 3730.94 457.722 3719.56 480.91C3708.17 504.098 3702.47 534.665 3702.47 572.609C3702.47 610.553 3708.17 641.12 3719.56 664.308C3730.94 687.496 3747.37 699.09 3768.88 699.09C3790.37 699.09 3806.82 687.496 3818.21 664.308C3829.59 641.12 3835.27 610.553 3835.27 572.609C3835.27 534.665 3829.59 504.098 3818.21 480.91C3806.82 457.722 3790.37 446.128 3768.88 446.128ZM3070.88 689.601C3075.51 691.287 3079.73 692.341 3083.54 692.763C3092.8 694.871 3103.34 695.925 3115.16 695.925H3118.31C3153.31 695.925 3179.86 688.334 3198 673.158C3216.55 657.98 3225.83 636.478 3225.83 608.652C3225.83 550.472 3189.99 521.382 3118.31 521.382H3070.88V689.601ZM3108.82 329.132C3097.44 329.132 3088.58 329.974 3082.26 331.662L3070.88 333.559V492.923H3118.31C3145.71 492.923 3167.22 486.599 3182.83 473.951C3198.84 460.881 3206.85 440.013 3206.85 411.345C3206.85 382.253 3197.36 361.384 3178.4 348.736C3159.83 335.666 3136.65 329.132 3108.82 329.132ZM1852.75 306.375C1867.93 306.375 1879.53 311.011 1887.54 320.287C1895.96 329.563 1900.18 340.946 1900.18 354.438C1900.18 365.398 1896.8 374.041 1890.07 380.365C1883.73 386.689 1875.52 389.852 1865.4 389.852C1850.22 389.851 1838.42 385.213 1829.99 375.938C1821.98 366.663 1817.97 355.279 1817.97 341.789C1817.97 330.827 1821.13 322.185 1827.46 315.861C1834.2 309.537 1842.63 306.375 1852.75 306.375ZM2358.54 306.375C2373.73 306.375 2385.32 311.011 2393.32 320.287C2401.76 329.563 2405.96 340.945 2405.96 354.438C2405.96 365.397 2402.61 374.041 2395.86 380.365C2389.54 386.689 2381.3 389.852 2371.19 389.852C2356.02 389.852 2344.21 385.214 2335.79 375.938C2327.76 366.663 2323.76 355.279 2323.76 341.789C2323.76 330.827 2326.91 322.185 2333.25 315.861C2339.99 309.537 2348.43 306.375 2358.54 306.375Z" fill="white"/>
<defs>
<clipPath id="clip0_892_10765">
<rect width="1024" height="1024" rx="512" fill="white"/>
</clipPath>
</defs>
</svg>
