<svg width="375" height="469" viewBox="0 0 375 469" fill="none" xmlns="http://www.w3.org/2000/svg">
<g opacity="0.07">
<mask id="mask0_13607_28290" style="mask-type:alpha" maskUnits="userSpaceOnUse" x="-158" y="-1" width="784" height="777">
<path d="M-117.11 0L-128.307 9.79749H-140.204V0M-157 46.1882L-147.203 57.3853V69.2823H-157M-110.112 0L-98.9149 9.79749H-87.0179V0M-157 39.19L-147.203 27.9928V16.0959H-157M-80.0197 0V9.79749H-60.4247V0M-157 76.2805H-147.203V95.8754H-157M-157 9.79749H-147.203V0M-157 132.266L-147.203 143.463V155.36H-157M-157 125.268L-147.203 114.071V102.174H-157M-157 162.358H-147.203V181.953H-157M-157 218.344L-147.203 229.541V241.438H-157M-117.11 258.234L-128.307 248.436H-140.204V258.234M-157 211.346L-147.203 200.149V188.252H-157M-110.112 258.234L-98.9149 248.436H-87.0179V258.234M-80.0197 258.234V248.436H-60.4247V258.234M-147.203 258.234V248.436H-157M-30.3324 0L-41.5296 9.79749H-53.4265V0M-23.3342 0L-12.1371 9.79749H-0.240137V0M6.75807 0V9.79749H26.3531V0M56.4453 0L45.2482 9.79749H33.3513V0M103.333 46.1882L93.5359 57.3853V69.2823H103.333M63.4436 0L74.6407 9.79749H86.5376V0M103.333 39.19L93.5359 27.9928V16.0959H103.333M93.5359 0V9.79749H103.333M103.333 76.2805H93.5359V95.8754H103.333M-30.3324 258.234L-41.5296 248.436H-53.4265V258.234M-23.3342 258.234L-12.1371 248.436H-0.240137V258.234M6.75807 258.234V248.436H26.3531V258.234M103.333 132.266L93.5359 143.463V155.36H103.333M103.333 125.268L93.5359 114.071V102.174H103.333M103.333 162.358H93.5359V181.953H103.333M103.333 218.344L93.5359 229.541V241.438H103.333M56.4453 258.234L45.2482 248.436H33.3513V258.234M103.333 211.346L93.5359 200.149V188.252H103.333M63.4436 258.234L74.6407 248.436H86.5376V258.234M103.333 248.436H93.5359V258.234M-140.204 16.0959H-124.808L-113.611 4.89875L-102.414 16.0959H-87.0179V31.4919L-75.8208 42.6891L-87.0179 53.8862V69.2823H-102.414L-113.611 80.4794L-124.808 69.2823H-140.204V53.8862L-151.401 42.6891L-140.204 31.4919V16.0959ZM-80.0197 76.2805H-60.4247V95.8754H-80.0197V76.2805ZM-80.0197 69.2823V57.3853L-70.2222 46.1882L-60.4247 57.3853V69.2823H-80.0197ZM-140.204 76.2805H-128.307L-117.11 86.078L-128.307 95.8754H-140.204V76.2805ZM-80.0197 27.9928V16.0959H-60.4247V27.9928L-70.2222 39.19L-80.0197 27.9928ZM-87.0179 76.2805H-98.9149L-110.112 86.078L-98.9149 95.8754H-87.0179V76.2805ZM-140.204 102.174H-124.808L-113.611 90.9767L-102.414 102.174H-87.0179V117.57L-75.8208 128.767L-87.0179 139.964V155.36H-102.414L-113.611 166.557L-124.808 155.36H-140.204V139.964L-151.401 128.767L-140.204 117.57V102.174ZM-80.0197 162.358H-60.4247V181.953H-80.0197V162.358ZM-80.0197 155.36V143.463L-70.2222 132.266L-60.4247 143.463V155.36H-80.0197ZM-140.204 162.358H-128.307L-117.11 172.156L-128.307 181.953H-140.204V162.358ZM-80.0197 114.071V102.174H-60.4247V114.071L-70.2222 125.268L-80.0197 114.071ZM-87.0179 162.358H-98.9149L-110.112 172.156L-98.9149 181.953H-87.0179V162.358ZM-140.204 188.252H-124.808L-113.611 177.055L-102.414 188.252H-87.0179V203.648L-75.8208 214.845L-87.0179 226.042V241.438H-102.414L-113.611 252.635L-124.808 241.438H-140.204V226.042L-151.401 214.845L-140.204 203.648V188.252ZM-80.0197 241.438V229.541L-70.2222 218.344L-60.4247 229.541V241.438H-80.0197ZM-80.0197 200.149V188.252H-60.4247V200.149L-70.2222 211.346L-80.0197 200.149ZM-53.4265 16.0959H-38.0305L-26.8333 4.89875L-15.6362 16.0959H-0.240137V31.4919L10.957 42.6891L-0.240137 53.8862V69.2823H-15.6362L-26.8333 80.4794L-38.0305 69.2823H-53.4265V53.8862L-64.6237 42.6891L-53.4265 31.4919V16.0959ZM6.75807 76.2805H26.3531V95.8754H6.75807V76.2805ZM6.75807 69.2823V57.3853L16.5556 46.1882L26.3531 57.3853V69.2823H6.75807ZM-53.4265 76.2805H-41.5296L-30.3324 86.078L-41.5296 95.8754H-53.4265V76.2805ZM6.75807 27.9928V16.0959H26.3531V27.9928L16.5556 39.19L6.75807 27.9928ZM-0.240137 76.2805H-12.1371L-23.3342 86.078L-12.1371 95.8754H-0.240137V76.2805ZM33.3513 16.0959H48.7473L59.9445 4.89875L71.1416 16.0959H86.5376V31.4919L97.7348 42.6891L86.5376 53.8862V69.2823H71.1416L59.9445 80.4794L48.7473 69.2823H33.3513V53.8862L22.1541 42.6891L33.3513 31.4919V16.0959ZM33.3513 76.2805H45.2482L56.4453 86.078L45.2482 95.8754H33.3513V76.2805ZM86.5376 76.2805H74.6407L63.4436 86.078L74.6407 95.8754H86.5376V76.2805ZM-53.4265 102.174H-38.0305L-26.8333 90.9767L-15.6362 102.174H-0.240137V117.57L10.957 128.767L-0.240137 139.964V155.36H-15.6362L-26.8333 166.557L-38.0305 155.36H-53.4265V139.964L-64.6237 128.767L-53.4265 117.57V102.174ZM6.75807 162.358H26.3531V181.953H6.75807V162.358ZM6.75807 155.36V143.463L16.5556 132.266L26.3531 143.463V155.36H6.75807ZM-53.4265 162.358H-41.5296L-30.3324 172.156L-41.5296 181.953H-53.4265V162.358ZM6.75807 114.071V102.174H26.3531V114.071L16.5556 125.268L6.75807 114.071ZM-0.240137 162.358H-12.1371L-23.3342 172.156L-12.1371 181.953H-0.240137V162.358ZM-53.4265 188.252H-38.0305L-26.8333 177.055L-15.6362 188.252H-0.240137V203.648L10.957 214.845L-0.240137 226.042V241.438H-15.6362L-26.8333 252.635L-38.0305 241.438H-53.4265V226.042L-64.6237 214.845L-53.4265 203.648V188.252ZM6.75807 241.438V229.541L16.5556 218.344L26.3531 229.541V241.438H6.75807ZM6.75807 200.149V188.252H26.3531V200.149L16.5556 211.346L6.75807 200.149ZM33.3513 102.174H48.7473L59.9445 90.9767L71.1416 102.174H86.5376V117.57L97.7348 128.767L86.5376 139.964V155.36H71.1416L59.9445 166.557L48.7473 155.36H33.3513V139.964L22.1541 128.767L33.3513 117.57V102.174ZM33.3513 162.358H45.2482L56.4453 172.156L45.2482 181.953H33.3513V162.358ZM86.5376 162.358H74.6407L63.4436 172.156L74.6407 181.953H86.5376V162.358ZM33.3513 188.252H48.7473L59.9445 177.055L71.1416 188.252H86.5376V203.648L97.7348 214.845L86.5376 226.042V241.438H71.1416L59.9445 252.635L48.7473 241.438H33.3513V226.042L22.1541 214.845L33.3513 203.648V188.252Z" stroke="black" stroke-width="2" stroke-linecap="round" stroke-linejoin="round"/>
<path d="M143.223 0L132.026 9.79749H120.129V0M103.333 46.1882L113.13 57.3853V69.2823H103.333M150.221 0L161.418 9.79749H173.315V0M103.333 39.19L113.13 27.9928V16.0959H103.333M180.313 0V9.79749H199.908V0M103.333 76.2805H113.13V95.8754H103.333M103.333 9.79749H113.13V0M103.333 132.266L113.13 143.463V155.36H103.333M103.333 125.268L113.13 114.071V102.174H103.333M103.333 162.358H113.13V181.953H103.333M103.333 218.344L113.13 229.541V241.438H103.333M143.223 258.234L132.026 248.436H120.129V258.234M103.333 211.346L113.13 200.149V188.252H103.333M150.221 258.234L161.418 248.436H173.315V258.234M180.313 258.234V248.436H199.908V258.234M113.13 258.234V248.436H103.333M230.001 0L218.803 9.79749H206.906V0M236.999 0L248.196 9.79749H260.093V0M267.091 0V9.79749H286.686V0M316.778 0L305.581 9.79749H293.684V0M363.666 46.1882L353.869 57.3853V69.2823H363.666M323.777 0L334.974 9.79749H346.871V0M363.666 39.19L353.869 27.9928V16.0959H363.666M353.869 0V9.79749H363.666M363.666 76.2805H353.869V95.8754H363.666M230.001 258.234L218.803 248.436H206.906V258.234M236.999 258.234L248.196 248.436H260.093V258.234M267.091 258.234V248.436H286.686V258.234M363.666 132.266L353.869 143.463V155.36H363.666M363.666 125.268L353.869 114.071V102.174H363.666M363.666 162.358H353.869V181.953H363.666M363.666 218.344L353.869 229.541V241.438H363.666M316.778 258.234L305.581 248.436H293.684V258.234M363.666 211.346L353.869 200.149V188.252H363.666M323.777 258.234L334.974 248.436H346.871V258.234M363.666 248.436H353.869V258.234M120.129 16.0959H135.525L146.722 4.89875L157.919 16.0959H173.315V31.4919L184.512 42.6891L173.315 53.8862V69.2823H157.919L146.722 80.4794L135.525 69.2823H120.129V53.8862L108.932 42.6891L120.129 31.4919V16.0959ZM180.313 76.2805H199.908V95.8754H180.313V76.2805ZM180.313 69.2823V57.3853L190.111 46.1882L199.908 57.3853V69.2823H180.313ZM120.129 76.2805H132.026L143.223 86.078L132.026 95.8754H120.129V76.2805ZM180.313 27.9928V16.0959H199.908V27.9928L190.111 39.19L180.313 27.9928ZM173.315 76.2805H161.418L150.221 86.078L161.418 95.8754H173.315V76.2805ZM120.129 102.174H135.525L146.722 90.9767L157.919 102.174H173.315V117.57L184.512 128.767L173.315 139.964V155.36H157.919L146.722 166.557L135.525 155.36H120.129V139.964L108.932 128.767L120.129 117.57V102.174ZM180.313 162.358H199.908V181.953H180.313V162.358ZM180.313 155.36V143.463L190.111 132.266L199.908 143.463V155.36H180.313ZM120.129 162.358H132.026L143.223 172.156L132.026 181.953H120.129V162.358ZM180.313 114.071V102.174H199.908V114.071L190.111 125.268L180.313 114.071ZM173.315 162.358H161.418L150.221 172.156L161.418 181.953H173.315V162.358ZM120.129 188.252H135.525L146.722 177.055L157.919 188.252H173.315V203.648L184.512 214.845L173.315 226.042V241.438H157.919L146.722 252.635L135.525 241.438H120.129V226.042L108.932 214.845L120.129 203.648V188.252ZM180.313 241.438V229.541L190.111 218.344L199.908 229.541V241.438H180.313ZM180.313 200.149V188.252H199.908V200.149L190.111 211.346L180.313 200.149ZM206.906 16.0959H222.303L233.5 4.89875L244.697 16.0959H260.093V31.4919L271.29 42.6891L260.093 53.8862V69.2823H244.697L233.5 80.4794L222.303 69.2823H206.906V53.8862L195.709 42.6891L206.906 31.4919V16.0959ZM267.091 76.2805H286.686V95.8754H267.091V76.2805ZM267.091 69.2823V57.3853L276.889 46.1882L286.686 57.3853V69.2823H267.091ZM206.906 76.2805H218.803L230.001 86.078L218.803 95.8754H206.906V76.2805ZM267.091 27.9928V16.0959H286.686V27.9928L276.889 39.19L267.091 27.9928ZM260.093 76.2805H248.196L236.999 86.078L248.196 95.8754H260.093V76.2805ZM293.684 16.0959H309.08L320.277 4.89875L331.475 16.0959H346.871V31.4919L358.068 42.6891L346.871 53.8862V69.2823H331.475L320.277 80.4794L309.08 69.2823H293.684V53.8862L282.487 42.6891L293.684 31.4919V16.0959ZM293.684 76.2805H305.581L316.778 86.078L305.581 95.8754H293.684V76.2805ZM346.871 76.2805H334.974L323.777 86.078L334.974 95.8754H346.871V76.2805ZM206.906 102.174H222.303L233.5 90.9767L244.697 102.174H260.093V117.57L271.29 128.767L260.093 139.964V155.36H244.697L233.5 166.557L222.303 155.36H206.906V139.964L195.709 128.767L206.906 117.57V102.174ZM267.091 162.358H286.686V181.953H267.091V162.358ZM267.091 155.36V143.463L276.889 132.266L286.686 143.463V155.36H267.091ZM206.906 162.358H218.803L230.001 172.156L218.803 181.953H206.906V162.358ZM267.091 114.071V102.174H286.686V114.071L276.889 125.268L267.091 114.071ZM260.093 162.358H248.196L236.999 172.156L248.196 181.953H260.093V162.358ZM206.906 188.252H222.303L233.5 177.055L244.697 188.252H260.093V203.648L271.29 214.845L260.093 226.042V241.438H244.697L233.5 252.635L222.303 241.438H206.906V226.042L195.709 214.845L206.906 203.648V188.252ZM267.091 241.438V229.541L276.889 218.344L286.686 229.541V241.438H267.091ZM267.091 200.149V188.252H286.686V200.149L276.889 211.346L267.091 200.149ZM293.684 102.174H309.08L320.277 90.9767L331.475 102.174H346.871V117.57L358.068 128.767L346.871 139.964V155.36H331.475L320.277 166.557L309.08 155.36H293.684V139.964L282.487 128.767L293.684 117.57V102.174ZM293.684 162.358H305.581L316.778 172.156L305.581 181.953H293.684V162.358ZM346.871 162.358H334.974L323.777 172.156L334.974 181.953H346.871V162.358ZM293.684 188.252H309.08L320.277 177.055L331.475 188.252H346.871V203.648L358.068 214.845L346.871 226.042V241.438H331.475L320.277 252.635L309.08 241.438H293.684V226.042L282.487 214.845L293.684 203.648V188.252Z" stroke="black" stroke-width="2" stroke-linecap="round" stroke-linejoin="round"/>
<path d="M403.557 0L392.36 9.79749H380.463V0M363.667 46.1882L373.464 57.3853V69.2823H363.667M410.555 0L421.752 9.79749H433.649V0M363.667 39.19L373.464 27.9928V16.0959H363.667M440.647 0V9.79749H460.242V0M363.667 76.2805H373.464V95.8754H363.667M363.667 9.79749H373.464V0M363.667 132.266L373.464 143.463V155.36H363.667M363.667 125.268L373.464 114.071V102.174H363.667M363.667 162.358H373.464V181.953H363.667M363.667 218.344L373.464 229.541V241.438H363.667M403.557 258.234L392.36 248.436H380.463V258.234M363.667 211.346L373.464 200.149V188.252H363.667M410.555 258.234L421.752 248.436H433.649V258.234M440.647 258.234V248.436H460.242V258.234M373.464 258.234V248.436H363.667M490.335 0L479.137 9.79749H467.24V0M497.333 0L508.53 9.79749H520.427V0M527.425 0V9.79749H547.02V0M577.112 0L565.915 9.79749H554.018V0M624 46.1882L614.203 57.3853V69.2823H624M584.111 0L595.308 9.79749H607.205V0M624 39.19L614.203 27.9928V16.0959H624M614.203 0V9.79749H624M624 76.2805H614.203V95.8754H624M490.335 258.234L479.137 248.436H467.24V258.234M497.333 258.234L508.53 248.436H520.427V258.234M527.425 258.234V248.436H547.02V258.234M624 132.266L614.203 143.463V155.36H624M624 125.268L614.203 114.071V102.174H624M624 162.358H614.203V181.953H624M624 218.344L614.203 229.541V241.438H624M577.112 258.234L565.915 248.436H554.018V258.234M624 211.346L614.203 200.149V188.252H624M584.111 258.234L595.308 248.436H607.205V258.234M624 248.436H614.203V258.234M380.463 16.0959H395.859L407.056 4.89875L418.253 16.0959H433.649V31.4919L444.846 42.6891L433.649 53.8862V69.2823H418.253L407.056 80.4794L395.859 69.2823H380.463V53.8862L369.266 42.6891L380.463 31.4919V16.0959ZM440.647 76.2805H460.242V95.8754H440.647V76.2805ZM440.647 69.2823V57.3853L450.445 46.1882L460.242 57.3853V69.2823H440.647ZM380.463 76.2805H392.36L403.557 86.078L392.36 95.8754H380.463V76.2805ZM440.647 27.9928V16.0959H460.242V27.9928L450.445 39.19L440.647 27.9928ZM433.649 76.2805H421.752L410.555 86.078L421.752 95.8754H433.649V76.2805ZM380.463 102.174H395.859L407.056 90.9767L418.253 102.174H433.649V117.57L444.846 128.767L433.649 139.964V155.36H418.253L407.056 166.557L395.859 155.36H380.463V139.964L369.266 128.767L380.463 117.57V102.174ZM440.647 162.358H460.242V181.953H440.647V162.358ZM440.647 155.36V143.463L450.445 132.266L460.242 143.463V155.36H440.647ZM380.463 162.358H392.36L403.557 172.156L392.36 181.953H380.463V162.358ZM440.647 114.071V102.174H460.242V114.071L450.445 125.268L440.647 114.071ZM433.649 162.358H421.752L410.555 172.156L421.752 181.953H433.649V162.358ZM380.463 188.252H395.859L407.056 177.055L418.253 188.252H433.649V203.648L444.846 214.845L433.649 226.042V241.438H418.253L407.056 252.635L395.859 241.438H380.463V226.042L369.266 214.845L380.463 203.648V188.252ZM440.647 241.438V229.541L450.445 218.344L460.242 229.541V241.438H440.647ZM440.647 200.149V188.252H460.242V200.149L450.445 211.346L440.647 200.149ZM467.24 16.0959H482.637L493.834 4.89875L505.031 16.0959H520.427V31.4919L531.624 42.6891L520.427 53.8862V69.2823H505.031L493.834 80.4794L482.637 69.2823H467.24V53.8862L456.043 42.6891L467.24 31.4919V16.0959ZM527.425 76.2805H547.02V95.8754H527.425V76.2805ZM527.425 69.2823V57.3853L537.223 46.1882L547.02 57.3853V69.2823H527.425ZM467.24 76.2805H479.137L490.335 86.078L479.137 95.8754H467.24V76.2805ZM527.425 27.9928V16.0959H547.02V27.9928L537.223 39.19L527.425 27.9928ZM520.427 76.2805H508.53L497.333 86.078L508.53 95.8754H520.427V76.2805ZM554.018 16.0959H569.414L580.611 4.89875L591.809 16.0959H607.205V31.4919L618.402 42.6891L607.205 53.8862V69.2823H591.809L580.611 80.4794L569.414 69.2823H554.018V53.8862L542.821 42.6891L554.018 31.4919V16.0959ZM554.018 76.2805H565.915L577.112 86.078L565.915 95.8754H554.018V76.2805ZM607.205 76.2805H595.308L584.111 86.078L595.308 95.8754H607.205V76.2805ZM467.24 102.174H482.637L493.834 90.9767L505.031 102.174H520.427V117.57L531.624 128.767L520.427 139.964V155.36H505.031L493.834 166.557L482.637 155.36H467.24V139.964L456.043 128.767L467.24 117.57V102.174ZM527.425 162.358H547.02V181.953H527.425V162.358ZM527.425 155.36V143.463L537.223 132.266L547.02 143.463V155.36H527.425ZM467.24 162.358H479.137L490.335 172.156L479.137 181.953H467.24V162.358ZM527.425 114.071V102.174H547.02V114.071L537.223 125.268L527.425 114.071ZM520.427 162.358H508.53L497.333 172.156L508.53 181.953H520.427V162.358ZM467.24 188.252H482.637L493.834 177.055L505.031 188.252H520.427V203.648L531.624 214.845L520.427 226.042V241.438H505.031L493.834 252.635L482.637 241.438H467.24V226.042L456.043 214.845L467.24 203.648V188.252ZM527.425 241.438V229.541L537.223 218.344L547.02 229.541V241.438H527.425ZM527.425 200.149V188.252H547.02V200.149L537.223 211.346L527.425 200.149ZM554.018 102.174H569.414L580.611 90.9767L591.809 102.174H607.205V117.57L618.402 128.767L607.205 139.964V155.36H591.809L580.611 166.557L569.414 155.36H554.018V139.964L542.821 128.767L554.018 117.57V102.174ZM554.018 162.358H565.915L577.112 172.156L565.915 181.953H554.018V162.358ZM607.205 162.358H595.308L584.111 172.156L595.308 181.953H607.205V162.358ZM554.018 188.252H569.414L580.611 177.055L591.809 188.252H607.205V203.648L618.402 214.845L607.205 226.042V241.438H591.809L580.611 252.635L569.414 241.438H554.018V226.042L542.821 214.845L554.018 203.648V188.252Z" stroke="black" stroke-width="2" stroke-linecap="round" stroke-linejoin="round"/>
<path d="M-117.11 258.234L-128.307 268.032H-140.204V258.234M-157 304.423L-147.203 315.62V327.517H-157M-110.112 258.234L-98.9149 268.032H-87.0179V258.234M-157 297.424L-147.203 286.227V274.33H-157M-80.0197 258.234V268.032H-60.4247V258.234M-157 334.515H-147.203V354.11H-157M-157 268.032H-147.203V258.234M-157 390.5L-147.203 401.698V413.595H-157M-157 383.502L-147.203 372.305V360.408H-157M-157 420.593H-147.203V440.188H-157M-157 476.578L-147.203 487.776V499.673H-157M-117.11 516.468L-128.307 506.671H-140.204V516.468M-157 469.58L-147.203 458.383V446.486H-157M-110.112 516.468L-98.9149 506.671H-87.0179V516.468M-80.0197 516.468V506.671H-60.4247V516.468M-147.203 516.468V506.671H-157M-30.3324 258.234L-41.5296 268.032H-53.4265V258.234M-23.3342 258.234L-12.1371 268.032H-0.240137V258.234M6.75807 258.234V268.032H26.3531V258.234M56.4453 258.234L45.2482 268.032H33.3513V258.234M103.333 304.423L93.5359 315.62V327.517H103.333M63.4436 258.234L74.6407 268.032H86.5376V258.234M103.333 297.424L93.5359 286.227V274.33H103.333M93.5359 258.234V268.032H103.333M103.333 334.515H93.5359V354.11H103.333M-30.3324 516.468L-41.5296 506.671H-53.4265V516.468M-23.3342 516.468L-12.1371 506.671H-0.240137V516.468M6.75807 516.468V506.671H26.3531V516.468M103.333 390.5L93.5359 401.698V413.595H103.333M103.333 383.502L93.5359 372.305V360.408H103.333M103.333 420.593H93.5359V440.188H103.333M103.333 476.578L93.5359 487.776V499.673H103.333M56.4453 516.468L45.2482 506.671H33.3513V516.468M103.333 469.58L93.5359 458.383V446.486H103.333M63.4436 516.468L74.6407 506.671H86.5376V516.468M103.333 506.671H93.5359V516.468M-140.204 274.33H-124.808L-113.611 263.133L-102.414 274.33H-87.0179V289.726L-75.8208 300.923L-87.0179 312.121V327.517H-102.414L-113.611 338.714L-124.808 327.517H-140.204V312.121L-151.401 300.923L-140.204 289.726V274.33ZM-80.0197 334.515H-60.4247V354.11H-80.0197V334.515ZM-80.0197 327.517V315.62L-70.2222 304.423L-60.4247 315.62V327.517H-80.0197ZM-140.204 334.515H-128.307L-117.11 344.312L-128.307 354.11H-140.204V334.515ZM-80.0197 286.227V274.33H-60.4247V286.227L-70.2222 297.424L-80.0197 286.227ZM-87.0179 334.515H-98.9149L-110.112 344.312L-98.9149 354.11H-87.0179V334.515ZM-140.204 360.408H-124.808L-113.611 349.211L-102.414 360.408H-87.0179V375.804L-75.8208 387.001L-87.0179 398.199V413.595H-102.414L-113.611 424.792L-124.808 413.595H-140.204V398.199L-151.401 387.001L-140.204 375.804V360.408ZM-80.0197 420.593H-60.4247V440.188H-80.0197V420.593ZM-80.0197 413.595V401.698L-70.2222 390.5L-60.4247 401.698V413.595H-80.0197ZM-140.204 420.593H-128.307L-117.11 430.39L-128.307 440.188H-140.204V420.593ZM-80.0197 372.305V360.408H-60.4247V372.305L-70.2222 383.502L-80.0197 372.305ZM-87.0179 420.593H-98.9149L-110.112 430.39L-98.9149 440.188H-87.0179V420.593ZM-140.204 446.486H-124.808L-113.611 435.289L-102.414 446.486H-87.0179V461.882L-75.8208 473.079L-87.0179 484.276V499.673H-102.414L-113.611 510.87L-124.808 499.673H-140.204V484.276L-151.401 473.079L-140.204 461.882V446.486ZM-80.0197 499.673V487.776L-70.2222 476.578L-60.4247 487.776V499.673H-80.0197ZM-80.0197 458.383V446.486H-60.4247V458.383L-70.2222 469.58L-80.0197 458.383ZM-53.4265 274.33H-38.0305L-26.8333 263.133L-15.6362 274.33H-0.240137V289.726L10.957 300.923L-0.240137 312.121V327.517H-15.6362L-26.8333 338.714L-38.0305 327.517H-53.4265V312.121L-64.6237 300.923L-53.4265 289.726V274.33ZM6.75807 334.515H26.3531V354.11H6.75807V334.515ZM6.75807 327.517V315.62L16.5556 304.423L26.3531 315.62V327.517H6.75807ZM-53.4265 334.515H-41.5296L-30.3324 344.312L-41.5296 354.11H-53.4265V334.515ZM6.75807 286.227V274.33H26.3531V286.227L16.5556 297.424L6.75807 286.227ZM-0.240137 334.515H-12.1371L-23.3342 344.312L-12.1371 354.11H-0.240137V334.515ZM33.3513 274.33H48.7473L59.9445 263.133L71.1416 274.33H86.5376V289.726L97.7348 300.923L86.5376 312.121V327.517H71.1416L59.9445 338.714L48.7473 327.517H33.3513V312.121L22.1541 300.923L33.3513 289.726V274.33ZM33.3513 334.515H45.2482L56.4453 344.312L45.2482 354.11H33.3513V334.515ZM86.5376 334.515H74.6407L63.4436 344.312L74.6407 354.11H86.5376V334.515ZM-53.4265 360.408H-38.0305L-26.8333 349.211L-15.6362 360.408H-0.240137V375.804L10.957 387.001L-0.240137 398.199V413.595H-15.6362L-26.8333 424.792L-38.0305 413.595H-53.4265V398.199L-64.6237 387.001L-53.4265 375.804V360.408ZM6.75807 420.593H26.3531V440.188H6.75807V420.593ZM6.75807 413.595V401.698L16.5556 390.5L26.3531 401.698V413.595H6.75807ZM-53.4265 420.593H-41.5296L-30.3324 430.39L-41.5296 440.188H-53.4265V420.593ZM6.75807 372.305V360.408H26.3531V372.305L16.5556 383.502L6.75807 372.305ZM-0.240137 420.593H-12.1371L-23.3342 430.39L-12.1371 440.188H-0.240137V420.593ZM-53.4265 446.486H-38.0305L-26.8333 435.289L-15.6362 446.486H-0.240137V461.882L10.957 473.079L-0.240137 484.276V499.673H-15.6362L-26.8333 510.87L-38.0305 499.673H-53.4265V484.276L-64.6237 473.079L-53.4265 461.882V446.486ZM6.75807 499.673V487.776L16.5556 476.578L26.3531 487.776V499.673H6.75807ZM6.75807 458.383V446.486H26.3531V458.383L16.5556 469.58L6.75807 458.383ZM33.3513 360.408H48.7473L59.9445 349.211L71.1416 360.408H86.5376V375.804L97.7348 387.001L86.5376 398.199V413.595H71.1416L59.9445 424.792L48.7473 413.595H33.3513V398.199L22.1541 387.001L33.3513 375.804V360.408ZM33.3513 420.593H45.2482L56.4453 430.39L45.2482 440.188H33.3513V420.593ZM86.5376 420.593H74.6407L63.4436 430.39L74.6407 440.188H86.5376V420.593ZM33.3513 446.486H48.7473L59.9445 435.289L71.1416 446.486H86.5376V461.882L97.7348 473.079L86.5376 484.276V499.673H71.1416L59.9445 510.87L48.7473 499.673H33.3513V484.276L22.1541 473.079L33.3513 461.882V446.486Z" stroke="black" stroke-width="2" stroke-linecap="round" stroke-linejoin="round"/>
<path d="M143.223 258.234L132.026 268.032H120.129V258.234M103.333 304.423L113.13 315.62V327.517H103.333M150.221 258.234L161.418 268.032H173.315V258.234M103.333 297.424L113.13 286.227V274.33H103.333M180.313 258.234V268.032H199.908V258.234M103.333 334.515H113.13V354.11H103.333M103.333 268.032H113.13V258.234M103.333 390.501L113.13 401.698V413.595H103.333M103.333 383.502L113.13 372.305V360.408H103.333M103.333 420.593H113.13V440.188H103.333M103.333 476.578L113.13 487.776V499.673H103.333M143.223 516.468L132.026 506.671H120.129V516.468M103.333 469.58L113.13 458.383V446.486H103.333M150.221 516.468L161.418 506.671H173.315V516.468M180.313 516.468V506.671H199.908V516.468M113.13 516.468V506.671H103.333M230.001 258.234L218.803 268.032H206.906V258.234M236.999 258.234L248.196 268.032H260.093V258.234M267.091 258.234V268.032H286.686V258.234M316.778 258.234L305.581 268.032H293.684V258.234M363.666 304.423L353.869 315.62V327.517H363.666M323.777 258.234L334.974 268.032H346.871V258.234M363.666 297.424L353.869 286.227V274.33H363.666M353.869 258.234V268.032H363.666M363.666 334.515H353.869V354.11H363.666M230.001 516.468L218.803 506.671H206.906V516.468M236.999 516.468L248.196 506.671H260.093V516.468M267.091 516.468V506.671H286.686V516.468M363.666 390.501L353.869 401.698V413.595H363.666M363.666 383.502L353.869 372.305V360.408H363.666M363.666 420.593H353.869V440.188H363.666M363.666 476.578L353.869 487.776V499.673H363.666M316.778 516.468L305.581 506.671H293.684V516.468M363.666 469.58L353.869 458.383V446.486H363.666M323.777 516.468L334.974 506.671H346.871V516.468M363.666 506.671H353.869V516.468M120.129 274.33H135.525L146.722 263.133L157.919 274.33H173.315V289.726L184.512 300.923L173.315 312.121V327.517H157.919L146.722 338.714L135.525 327.517H120.129V312.121L108.932 300.923L120.129 289.726V274.33ZM180.313 334.515H199.908V354.11H180.313V334.515ZM180.313 327.517V315.62L190.111 304.423L199.908 315.62V327.517H180.313ZM120.129 334.515H132.026L143.223 344.312L132.026 354.11H120.129V334.515ZM180.313 286.227V274.33H199.908V286.227L190.111 297.424L180.313 286.227ZM173.315 334.515H161.418L150.221 344.312L161.418 354.11H173.315V334.515ZM120.129 360.408H135.525L146.722 349.211L157.919 360.408H173.315V375.804L184.512 387.001L173.315 398.199V413.595H157.919L146.722 424.792L135.525 413.595H120.129V398.199L108.932 387.001L120.129 375.804V360.408ZM180.313 420.593H199.908V440.188H180.313V420.593ZM180.313 413.595V401.698L190.111 390.501L199.908 401.698V413.595H180.313ZM120.129 420.593H132.026L143.223 430.39L132.026 440.188H120.129V420.593ZM180.313 372.305V360.408H199.908V372.305L190.111 383.502L180.313 372.305ZM173.315 420.593H161.418L150.221 430.39L161.418 440.188H173.315V420.593ZM120.129 446.486H135.525L146.722 435.289L157.919 446.486H173.315V461.882L184.512 473.079L173.315 484.276V499.673H157.919L146.722 510.87L135.525 499.673H120.129V484.276L108.932 473.079L120.129 461.882V446.486ZM180.313 499.673V487.776L190.111 476.578L199.908 487.776V499.673H180.313ZM180.313 458.383V446.486H199.908V458.383L190.111 469.58L180.313 458.383ZM206.906 274.33H222.303L233.5 263.133L244.697 274.33H260.093V289.726L271.29 300.923L260.093 312.121V327.517H244.697L233.5 338.714L222.303 327.517H206.906V312.121L195.709 300.923L206.906 289.726V274.33ZM267.091 334.515H286.686V354.11H267.091V334.515ZM267.091 327.517V315.62L276.889 304.423L286.686 315.62V327.517H267.091ZM206.906 334.515H218.803L230.001 344.312L218.803 354.11H206.906V334.515ZM267.091 286.227V274.33H286.686V286.227L276.889 297.424L267.091 286.227ZM260.093 334.515H248.196L236.999 344.312L248.196 354.11H260.093V334.515ZM293.684 274.33H309.08L320.277 263.133L331.475 274.33H346.871V289.726L358.068 300.923L346.871 312.121V327.517H331.475L320.277 338.714L309.08 327.517H293.684V312.121L282.487 300.923L293.684 289.726V274.33ZM293.684 334.515H305.581L316.778 344.312L305.581 354.11H293.684V334.515ZM346.871 334.515H334.974L323.777 344.312L334.974 354.11H346.871V334.515ZM206.906 360.408H222.303L233.5 349.211L244.697 360.408H260.093V375.804L271.29 387.001L260.093 398.199V413.595H244.697L233.5 424.792L222.303 413.595H206.906V398.199L195.709 387.001L206.906 375.804V360.408ZM267.091 420.593H286.686V440.188H267.091V420.593ZM267.091 413.595V401.698L276.889 390.501L286.686 401.698V413.595H267.091ZM206.906 420.593H218.803L230.001 430.39L218.803 440.188H206.906V420.593ZM267.091 372.305V360.408H286.686V372.305L276.889 383.502L267.091 372.305ZM260.093 420.593H248.196L236.999 430.39L248.196 440.188H260.093V420.593ZM206.906 446.486H222.303L233.5 435.289L244.697 446.486H260.093V461.882L271.29 473.079L260.093 484.276V499.673H244.697L233.5 510.87L222.303 499.673H206.906V484.276L195.709 473.079L206.906 461.882V446.486ZM267.091 499.673V487.776L276.889 476.578L286.686 487.776V499.673H267.091ZM267.091 458.383V446.486H286.686V458.383L276.889 469.58L267.091 458.383ZM293.684 360.408H309.08L320.277 349.211L331.475 360.408H346.871V375.804L358.068 387.001L346.871 398.199V413.595H331.475L320.277 424.792L309.08 413.595H293.684V398.199L282.487 387.001L293.684 375.804V360.408ZM293.684 420.593H305.581L316.778 430.39L305.581 440.188H293.684V420.593ZM346.871 420.593H334.974L323.777 430.39L334.974 440.188H346.871V420.593ZM293.684 446.486H309.08L320.277 435.289L331.475 446.486H346.871V461.882L358.068 473.079L346.871 484.276V499.673H331.475L320.277 510.87L309.08 499.673H293.684V484.276L282.487 473.079L293.684 461.882V446.486Z" stroke="black" stroke-width="2" stroke-linecap="round" stroke-linejoin="round"/>
<path d="M403.557 258.234L392.36 268.032H380.463V258.234M363.667 304.423L373.464 315.62V327.517H363.667M410.555 258.234L421.752 268.032H433.649V258.234M363.667 297.424L373.464 286.227V274.33H363.667M440.647 258.234V268.032H460.242V258.234M363.667 334.515H373.464V354.11H363.667M363.667 268.032H373.464V258.234M363.667 390.5L373.464 401.698V413.595H363.667M363.667 383.502L373.464 372.305V360.408H363.667M363.667 420.593H373.464V440.188H363.667M363.667 476.578L373.464 487.776V499.673H363.667M403.557 516.468L392.36 506.671H380.463V516.468M363.667 469.58L373.464 458.383V446.486H363.667M410.555 516.468L421.752 506.671H433.649V516.468M440.647 516.468V506.671H460.242V516.468M373.464 516.468V506.671H363.667M490.335 258.234L479.137 268.032H467.24V258.234M497.333 258.234L508.53 268.032H520.427V258.234M527.425 258.234V268.032H547.02V258.234M577.112 258.234L565.915 268.032H554.018V258.234M624 304.423L614.203 315.62V327.517H624M584.111 258.234L595.308 268.032H607.205V258.234M624 297.424L614.203 286.227V274.33H624M614.203 258.234V268.032H624M624 334.515H614.203V354.11H624M490.335 516.468L479.137 506.671H467.24V516.468M497.333 516.468L508.53 506.671H520.427V516.468M527.425 516.468V506.671H547.02V516.468M624 390.5L614.203 401.698V413.595H624M624 383.502L614.203 372.305V360.408H624M624 420.593H614.203V440.188H624M624 476.578L614.203 487.776V499.673H624M577.112 516.468L565.915 506.671H554.018V516.468M624 469.58L614.203 458.383V446.486H624M584.111 516.468L595.308 506.671H607.205V516.468M624 506.671H614.203V516.468M380.463 274.33H395.859L407.056 263.133L418.253 274.33H433.649V289.726L444.846 300.923L433.649 312.121V327.517H418.253L407.056 338.714L395.859 327.517H380.463V312.121L369.266 300.923L380.463 289.726V274.33ZM440.647 334.515H460.242V354.11H440.647V334.515ZM440.647 327.517V315.62L450.445 304.423L460.242 315.62V327.517H440.647ZM380.463 334.515H392.36L403.557 344.312L392.36 354.11H380.463V334.515ZM440.647 286.227V274.33H460.242V286.227L450.445 297.424L440.647 286.227ZM433.649 334.515H421.752L410.555 344.312L421.752 354.11H433.649V334.515ZM380.463 360.408H395.859L407.056 349.211L418.253 360.408H433.649V375.804L444.846 387.001L433.649 398.199V413.595H418.253L407.056 424.792L395.859 413.595H380.463V398.199L369.266 387.001L380.463 375.804V360.408ZM440.647 420.593H460.242V440.188H440.647V420.593ZM440.647 413.595V401.698L450.445 390.5L460.242 401.698V413.595H440.647ZM380.463 420.593H392.36L403.557 430.39L392.36 440.188H380.463V420.593ZM440.647 372.305V360.408H460.242V372.305L450.445 383.502L440.647 372.305ZM433.649 420.593H421.752L410.555 430.39L421.752 440.188H433.649V420.593ZM380.463 446.486H395.859L407.056 435.289L418.253 446.486H433.649V461.882L444.846 473.079L433.649 484.276V499.673H418.253L407.056 510.87L395.859 499.673H380.463V484.276L369.266 473.079L380.463 461.882V446.486ZM440.647 499.673V487.776L450.445 476.578L460.242 487.776V499.673H440.647ZM440.647 458.383V446.486H460.242V458.383L450.445 469.58L440.647 458.383ZM467.24 274.33H482.637L493.834 263.133L505.031 274.33H520.427V289.726L531.624 300.923L520.427 312.121V327.517H505.031L493.834 338.714L482.637 327.517H467.24V312.121L456.043 300.923L467.24 289.726V274.33ZM527.425 334.515H547.02V354.11H527.425V334.515ZM527.425 327.517V315.62L537.223 304.423L547.02 315.62V327.517H527.425ZM467.24 334.515H479.137L490.335 344.312L479.137 354.11H467.24V334.515ZM527.425 286.227V274.33H547.02V286.227L537.223 297.424L527.425 286.227ZM520.427 334.515H508.53L497.333 344.312L508.53 354.11H520.427V334.515ZM554.018 274.33H569.414L580.611 263.133L591.809 274.33H607.205V289.726L618.402 300.923L607.205 312.121V327.517H591.809L580.611 338.714L569.414 327.517H554.018V312.121L542.821 300.923L554.018 289.726V274.33ZM554.018 334.515H565.915L577.112 344.312L565.915 354.11H554.018V334.515ZM607.205 334.515H595.308L584.111 344.312L595.308 354.11H607.205V334.515ZM467.24 360.408H482.637L493.834 349.211L505.031 360.408H520.427V375.804L531.624 387.001L520.427 398.199V413.595H505.031L493.834 424.792L482.637 413.595H467.24V398.199L456.043 387.001L467.24 375.804V360.408ZM527.425 420.593H547.02V440.188H527.425V420.593ZM527.425 413.595V401.698L537.223 390.5L547.02 401.698V413.595H527.425ZM467.24 420.593H479.137L490.335 430.39L479.137 440.188H467.24V420.593ZM527.425 372.305V360.408H547.02V372.305L537.223 383.502L527.425 372.305ZM520.427 420.593H508.53L497.333 430.39L508.53 440.188H520.427V420.593ZM467.24 446.486H482.637L493.834 435.289L505.031 446.486H520.427V461.882L531.624 473.079L520.427 484.276V499.673H505.031L493.834 510.87L482.637 499.673H467.24V484.276L456.043 473.079L467.24 461.882V446.486ZM527.425 499.673V487.776L537.223 476.578L547.02 487.776V499.673H527.425ZM527.425 458.383V446.486H547.02V458.383L537.223 469.58L527.425 458.383ZM554.018 360.408H569.414L580.611 349.211L591.809 360.408H607.205V375.804L618.402 387.001L607.205 398.199V413.595H591.809L580.611 424.792L569.414 413.595H554.018V398.199L542.821 387.001L554.018 375.804V360.408ZM554.018 420.593H565.915L577.112 430.39L565.915 440.188H554.018V420.593ZM607.205 420.593H595.308L584.111 430.39L595.308 440.188H607.205V420.593ZM554.018 446.486H569.414L580.611 435.289L591.809 446.486H607.205V461.882L618.402 473.079L607.205 484.276V499.673H591.809L580.611 510.87L569.414 499.673H554.018V484.276L542.821 473.079L554.018 461.882V446.486Z" stroke="black" stroke-width="2" stroke-linecap="round" stroke-linejoin="round"/>
</mask>
<g mask="url(#mask0_13607_28290)">
<rect x="-70.7646" y="82.9814" width="608.529" height="608.529" fill="url(#paint0_radial_13607_28290)"/>
</g>
</g>
<defs>
<radialGradient id="paint0_radial_13607_28290" cx="0" cy="0" r="1" gradientUnits="userSpaceOnUse" gradientTransform="translate(233.5 387.246) rotate(90) scale(304.265)">
<stop stop-color="white"/>
<stop offset="1" stop-color="white" stop-opacity="0"/>
</radialGradient>
</defs>
</svg>
