<?xml version="1.0" encoding="utf-8"?>
<!-- Generator: Adobe Illustrator 22.1.0, SVG Export Plug-In . SVG Version: 6.00 Build 0)  -->
<svg version="1.1" id="Слой_1" xmlns="http://www.w3.org/2000/svg" xmlns:xlink="http://www.w3.org/1999/xlink" x="0px" y="0px"
	 width="62.117px" height="23px" viewBox="0 0 62.117 23" style="enable-background:new 0 0 62.117 23;" xml:space="preserve">
<style type="text/css">
	.st0{fill:#1F97BB;}
	.st1{fill:#E3402B;}
	.st2{fill:#FFFFFF;}
</style>
<g>
	<g>
		<g>
			<polygon class="st0" points="10.301,10.08 9.587,6.201 7.512,10.08 			"/>
			<path class="st0" d="M8.971,4.975c0,0,0.409-0.739-0.467-0.739c-0.698,0-5.474,0-7.382,0l2.593,9.788h0.372L8.971,4.975z"/>
			<polygon class="st0" points="5.358,14.037 10.936,14.037 10.469,11.196 6.889,11.196 			"/>
			<path class="st0" d="M23.793,17.644c-1.18,0-1.842-0.597-1.842-0.597l-2.149-2.322H3.901l0.887,3.347h57.33v-0.428
				C62.117,17.644,24.974,17.644,23.793,17.644z"/>
			<polygon class="st1" points="9.453,3.542 9.453,3.542 6.175,0 0,0 0.938,3.542 9.107,3.542 			"/>
			<polygon class="st0" points="19.136,14.005 12.612,6.955 12.612,6.955 13.895,14.005 			"/>
		</g>
		<g>
			<path class="st0" d="M24.783,6.493v0.462h0.769c0,0,0.442-0.018,0.195,0.599l-2.773,7.171h0.924l0.973-2.462h2.792l0.935,2.462
				h1.917l-3.172-8.232H24.783z M25.162,11.485l1.1-2.861l1.1,2.861H25.162z"/>
			<path class="st0" d="M44.132,7.163v0.424h0.705c0,0,0.405-0.017,0.179,0.549l-2.544,6.579h0.848l0.893-2.258h2.561l0.858,2.258
				h1.759l-2.91-7.552H44.132z M44.48,11.743l1.009-2.624l1.009,2.624H44.48z"/>
			<path class="st0" d="M58.895,7.163h-2.348v0.424h0.705c0,0,0.405-0.017,0.179,0.549l-2.544,6.579h0.848l0.893-2.258h2.561
				l0.858,2.258h1.759L58.895,7.163z M56.896,11.743l1.009-2.624l1.009,2.624H56.896z"/>
			<path class="st0" d="M35.515,10.395h-2.296v-3.26h-2.705V7.57c1.109,0,1.012,0.603,1.012,0.603v6.552h1.7v-3.663h2.257v3.663
				h1.894V7.135h-1.862V10.395z"/>
			<path class="st0" d="M43.476,7.933V7.135H38.22V7.57c1.109,0,1.012,0.603,1.012,0.603v6.552h1.7l-0.006-6.792L43.476,7.933z"/>
			<path class="st0" d="M55.643,9.25c0-2.115-2.413-2.102-2.413-2.102h-4.164v0.454c0.937,0,0.882,0.48,0.882,0.48v6.655
				l1.725-0.023v-3.221h1.557C53.23,11.494,55.643,11.585,55.643,9.25z M52.766,10.843h-1.099V7.933h1.099
				c0.579,0,1.054,0.396,1.07,1.466C53.853,10.489,53.308,10.843,52.766,10.843z"/>
		</g>
	</g>
	<path class="st2" d="M3.958,1.18C4.164,0.76,4.213,0.417,4.053,0.276C3.772,0.027,2.952,0.495,2.221,1.32
		C1.49,2.146,1.125,3.017,1.406,3.266c0.186,0.165,0.61,0.014,1.088-0.347H2.66c0,0,0.877-1.023,0.954-1.128l-0.24,1.128h0.348
		L4.046,1.18H3.958z M1.652,2.987C1.424,2.785,1.721,2.076,2.316,1.404c0.595-0.672,1.262-1.052,1.491-0.85
		C3.922,0.657,3.903,0.889,3.779,1.18H3.62L2.73,2.231l0.243-1.057L2.591,1.18L2.245,2.899C1.982,3.045,1.765,3.087,1.652,2.987z"/>
	<g>
		<path class="st0" d="M6.26,22.042L5.96,22.953H5.573l0.984-2.896h0.451l0.988,2.896h-0.4l-0.309-0.911H6.26z M7.21,21.749
			l-0.284-0.834c-0.064-0.189-0.107-0.361-0.15-0.529H6.768c-0.043,0.172-0.09,0.348-0.146,0.524l-0.284,0.838H7.21z"/>
		<path class="st0" d="M10.656,20.095c0.163-0.034,0.421-0.06,0.683-0.06c0.374,0,0.615,0.064,0.795,0.211
			c0.15,0.112,0.241,0.284,0.241,0.511c0,0.279-0.185,0.524-0.49,0.636v0.009c0.275,0.069,0.597,0.297,0.597,0.726
			c0,0.249-0.099,0.438-0.245,0.58c-0.202,0.185-0.529,0.271-1.001,0.271c-0.258,0-0.455-0.017-0.58-0.034V20.095z M11.03,21.281
			h0.339c0.395,0,0.627-0.206,0.627-0.486c0-0.339-0.258-0.473-0.636-0.473c-0.172,0-0.271,0.013-0.331,0.026V21.281z M11.03,22.669
			c0.073,0.013,0.18,0.017,0.314,0.017c0.387,0,0.743-0.142,0.743-0.563c0-0.395-0.339-0.559-0.748-0.559H11.03V22.669z"/>
		<path class="st0" d="M15.571,20.056v1.22c0,0.46-0.009,0.838-0.034,1.225l0.009,0.004c0.146-0.301,0.327-0.615,0.537-0.958
			l0.937-1.491h0.374v2.896h-0.352v-1.233c0-0.468,0.004-0.812,0.034-1.177l-0.013-0.004c-0.142,0.318-0.339,0.653-0.537,0.976
			l-0.907,1.44h-0.4v-2.896H15.571z"/>
		<path class="st0" d="M20.749,22.042l-0.301,0.911h-0.387l0.984-2.896h0.451l0.988,2.896h-0.4l-0.309-0.911H20.749z M21.698,21.749
			l-0.284-0.834c-0.064-0.189-0.107-0.361-0.15-0.529h-0.009c-0.043,0.172-0.09,0.348-0.146,0.524l-0.284,0.838H21.698z"/>
		<path class="st0" d="M25.514,20.056v1.285h0.116l0.993-1.285h0.451l-1.096,1.328c0.477,0.064,0.662,0.357,0.812,0.748
			c0.107,0.296,0.189,0.563,0.318,0.821h-0.404c-0.103-0.198-0.185-0.455-0.262-0.683c-0.133-0.383-0.318-0.645-0.808-0.645h-0.12
			v1.328h-0.37v-2.896H25.514z"/>
		<path class="st0" d="M32.101,21.474c0,0.997-0.606,1.526-1.345,1.526c-0.765,0-1.302-0.593-1.302-1.47
			c0-0.92,0.572-1.521,1.345-1.521C31.589,20.009,32.101,20.615,32.101,21.474z M29.853,21.522c0,0.619,0.335,1.173,0.924,1.173
			c0.593,0,0.928-0.546,0.928-1.203c0-0.576-0.301-1.177-0.924-1.177C30.163,20.314,29.853,20.886,29.853,21.522z"/>
		<path class="st0" d="M37.248,21.681c-0.022-0.404-0.047-0.89-0.043-1.251h-0.013c-0.099,0.339-0.219,0.7-0.365,1.1l-0.511,1.405
			h-0.284l-0.468-1.379c-0.138-0.408-0.254-0.782-0.335-1.126H35.22c-0.009,0.361-0.03,0.847-0.056,1.281l-0.077,1.242H34.73
			l0.202-2.896h0.477l0.494,1.401c0.12,0.357,0.219,0.675,0.292,0.976h0.013c0.073-0.292,0.176-0.61,0.305-0.976l0.516-1.401h0.477
			l0.18,2.896h-0.365L37.248,21.681z"/>
		<path class="st0" d="M42.589,20.056v2.896h-0.374V20.37H40.87v2.583h-0.374v-2.896H42.589z"/>
		<path class="st0" d="M45.944,22.042l-0.301,0.911h-0.387l0.984-2.896h0.451l0.988,2.896h-0.4l-0.309-0.911H45.944z M46.894,21.749
			l-0.284-0.834c-0.064-0.189-0.107-0.361-0.15-0.529h-0.009c-0.043,0.172-0.09,0.348-0.146,0.524l-0.284,0.838H46.894z"/>
		<path class="st0" d="M50.713,20.056v1.212h1.401v-1.212h0.378v2.896h-0.378v-1.358h-1.401v1.358H50.34v-2.896H50.713z"/>
		<path class="st0" d="M55.728,20.056v1.22c0,0.46-0.009,0.838-0.034,1.225l0.009,0.004c0.146-0.301,0.327-0.615,0.537-0.958
			l0.937-1.491h0.374v2.896h-0.352v-1.233c0-0.468,0.004-0.812,0.034-1.177l-0.013-0.004c-0.142,0.318-0.339,0.653-0.537,0.976
			l-0.907,1.44h-0.4v-2.896H55.728z"/>
		<path class="st0" d="M60.174,22.953c0.043-0.077,0.082-0.168,0.116-0.262c0.125-0.331,0.202-0.735,0.438-0.971
			c0.069-0.069,0.155-0.12,0.241-0.146V21.56c-0.357-0.06-0.64-0.318-0.64-0.713c0-0.254,0.103-0.456,0.266-0.589
			c0.18-0.146,0.464-0.223,0.829-0.223c0.245,0,0.503,0.022,0.692,0.06v2.858h-0.374v-1.255h-0.275c-0.18,0-0.314,0.039-0.417,0.142
			c-0.198,0.202-0.279,0.627-0.382,0.902c-0.03,0.073-0.052,0.133-0.095,0.211H60.174z M61.743,20.357
			c-0.064-0.013-0.185-0.034-0.352-0.034c-0.37,0-0.683,0.142-0.683,0.541c0,0.348,0.309,0.55,0.718,0.55
			c0.125,0,0.245,0,0.318-0.004V20.357z"/>
	</g>
</g>
</svg>
