<?xml version="1.0" encoding="utf-8"?>
<!-- Generator: Adobe Illustrator 22.1.0, SVG Export Plug-In . SVG Version: 6.00 Build 0)  -->
<svg version="1.1" id="Capa_1" xmlns="http://www.w3.org/2000/svg" xmlns:xlink="http://www.w3.org/1999/xlink" x="0px" y="0px"
	 width="268.831px" height="87.24px" viewBox="0 0 268.831 87.24" enable-background="new 0 0 268.831 87.24" xml:space="preserve">
<g>
	<path fill-rule="evenodd" clip-rule="evenodd" fill="#DADADA" d="M64.363,74.173C57.681,82.159,47.644,87.24,36.42,87.24
		c-11.271,0-21.346-5.124-28.027-13.167c7.28,6.277,17.16,10.135,28.043,10.135C47.26,84.208,57.093,80.391,64.363,74.173z"/>
	<path fill-rule="evenodd" clip-rule="evenodd" fill="#B2B2B2" d="M69.81,58.771c-5.709,12.653-18.434,21.462-33.214,21.462
		c-15.624,0-28.95-9.845-34.12-23.667c6.039,12.386,19.106,20.966,34.253,20.966C50.96,77.533,63.355,69.959,69.81,58.771z"/>
	<path fill-rule="evenodd" clip-rule="evenodd" fill="#44556A" d="M108.664,32.474c-7.856-3.613-16.712-3.012-17.046,2.599
		c-0.365,10.54,19.595,1.059,19.253,17.501c-0.07,8.841-15.48,12.968-25.425,8.136c-0.02-1.788-0.039-3.576-0.059-5.363
		c6.779,3.261,19.024,4.577,19.103-3.3c0.118-9.115-18.926-1.847-18.397-16.797c-0.118-7.993,8.304-13.078,22.571-7.726
		C108.664,29.174,108.664,30.824,108.664,32.474L108.664,32.474z M109.839,35.781v4.892h5.14v10.903
		c-0.424,10.383,6.466,12.868,13.772,9.814c-0.028-1.729-0.04-2.545-0.067-4.273c-4.377,1.631-8.067,0.953-8.209-4.541l0.019-1.146
		V40.673h8.388v-4.892h-8.388v-7.264h-5.516v7.264H109.839L109.839,35.781z M132.505,41.988V37.4
		c7.654-3.058,18.868-3.18,19.124,6.949l0.002,0.214v16.974h-4.402v-3.122c-18.583,14.993-25.995-17.886-0.829-11.709v-1.611v-0.53
		v-1.149C143.565,37.789,136.827,39.645,132.505,41.988L132.505,41.988z M155.042,35.84h5.087v4.302h1.259
		c2.161-2.824,4.862-4.717,8.234-4.491c0,1.638,0,3.276,0,4.913c-3.847-0.633-6.494,1.262-8.938,3.582v17.448h-5.643V35.84
		L155.042,35.84z M180.902,47.646h9.184c6.067,0,11.031-4.964,11.031-11.031l0,0c0-6.067-4.964-11.031-11.031-11.031h-11.501v0.061
		h-3.738v36.01h6.054V47.646L180.902,47.646z M227.042,35.84h5.087v4.302h1.259c2.161-2.824,4.862-4.717,8.234-4.491
		c0,1.638,0,3.276,0,4.913c-3.848-0.633-6.494,1.262-8.938,3.582v17.448h-5.643V35.84L227.042,35.84z M212.612,35.192
		c6.378,0,11.55,6.175,11.55,13.791c0,0.498-0.023,0.99-0.066,1.474h-5.073h-4.261h-8.561c0.99,8.699,9.819,9.421,16.378,6.276
		c0.059,1.375,0.117,2.75,0.176,4.126c-10.384,2.656-21.693,2.639-21.693-11.876C201.063,41.367,206.235,35.192,212.612,35.192
		L212.612,35.192z M257.176,28.384h3.644l-2.992,5.835h-2.498L257.176,28.384L257.176,28.384z M251.11,36.145v5.018v10.707v0.669
		c0,3.23,2.64,5.868,5.868,5.868l0,0c3.228,0,5.868-2.638,5.868-5.868v-0.669V41.163v-5.018h5.986v15.139
		c0,6.39-5.228,11.618-11.618,11.618l0,0c-6.39,0-11.618-5.228-11.618-11.618V36.145H251.11L251.11,36.145z M206.425,46.183H218.8
		c-0.836-3.709-3.29-6.395-6.188-6.395C209.714,39.788,207.261,42.474,206.425,46.183L206.425,46.183z M180.902,30.864h8.297
		c3.18,0,5.78,2.603,5.78,5.78l0,0c0,3.177-2.6,5.78-5.78,5.78h-8.297V30.864L180.902,30.864z M146.106,54.817l0.05-4.167
		C128.885,46.951,137.388,64.939,146.106,54.817z"/>
	<circle fill-rule="evenodd" clip-rule="evenodd" fill="#FFCC00" cx="36.42" cy="36.42" r="36.42"/>
	<radialGradient id="SVGID_1_" cx="36.4202" cy="36.4202" r="45.5307" gradientUnits="userSpaceOnUse">
		<stop  offset="0" style="stop-color:#E30613"/>
		<stop  offset="0.59" style="stop-color:#E30613"/>
		<stop  offset="0.93" style="stop-color:#A32524"/>
		<stop  offset="1" style="stop-color:#9E2625"/>
	</radialGradient>
	<circle fill-rule="evenodd" clip-rule="evenodd" fill="url(#SVGID_1_)" cx="36.42" cy="36.42" r="32.195"/>
	<path fill-rule="evenodd" clip-rule="evenodd" fill="#FFFFFF" d="M43.029,34.496l27.187,1.918l-8.539,0.588l-18.641,1.315
		c-0.135,0.469-0.318,0.917-0.544,1.34l7.717,11.385l-10.7-8.478c-0.284,0.143-0.58,0.267-0.885,0.37l-2.359,28.197l-0.029,0.433
		l-0.003-0.039l-0.005,0.059l-0.044-0.644l-2.355-28.15c-0.244-0.099-0.481-0.212-0.71-0.337l-10.864,8.608l7.938-11.71
		c-0.15-0.316-0.276-0.647-0.376-0.987L2.623,36.445l0.552-0.038l-0.177-0.012l26.811-1.892c0.135-0.466,0.319-0.911,0.544-1.331
		L22.63,21.779l10.716,8.49c0.28-0.14,0.571-0.262,0.87-0.363L36.559,1.9l0.044-0.644l0.005,0.059l0.003-0.039l0.029,0.433
		l2.371,28.342c0.249,0.101,0.49,0.216,0.723,0.344l10.85-8.596L42.652,33.5C42.803,33.82,42.928,34.152,43.029,34.496z"/>
</g>
</svg>
