<?xml version="1.0" encoding="UTF-8" standalone="no"?>
<!-- Created with Inkscape (http://www.inkscape.org/) -->

<svg
   xmlns:dc="http://purl.org/dc/elements/1.1/"
   xmlns:cc="http://creativecommons.org/ns#"
   xmlns:rdf="http://www.w3.org/1999/02/22-rdf-syntax-ns#"
   xmlns:svg="http://www.w3.org/2000/svg"
   xmlns="http://www.w3.org/2000/svg"
   xmlns:sodipodi="http://sodipodi.sourceforge.net/DTD/sodipodi-0.dtd"
   xmlns:inkscape="http://www.inkscape.org/namespaces/inkscape"
   width="154.89732"
   height="61.634899"
   viewBox="0 0 40.983249 16.307567"
   version="1.1"
   id="svg7335"
   inkscape:version="0.92.0 r15299"
   sodipodi:docname="passaredo.svg">
  <defs
     id="defs7329">
    <linearGradient
       id="linearGradient46"
       spreadMethod="pad"
       gradientTransform="matrix(0,-7.4490014,-25.056401,0,134.50862,197.48757)"
       gradientUnits="userSpaceOnUse"
       y2="0"
       x2="1"
       y1="0"
       x1="0">
      <stop
         id="stop40"
         offset="0"
         style="stop-opacity:1;stop-color:#d29a08" />
      <stop
         id="stop42"
         offset="0.73"
         style="stop-opacity:1;stop-color:#fcd313" />
      <stop
         id="stop44"
         offset="1"
         style="stop-opacity:1;stop-color:#fcd313" />
    </linearGradient>
  </defs>
  <sodipodi:namedview
     id="base"
     pagecolor="#ffffff"
     bordercolor="#666666"
     borderopacity="1.0"
     inkscape:pageopacity="0.0"
     inkscape:pageshadow="2"
     inkscape:zoom="5.8285462"
     inkscape:cx="76.948862"
     inkscape:cy="30.317449"
     inkscape:document-units="mm"
     inkscape:current-layer="layer1"
     showgrid="false"
     fit-margin-top="0"
     fit-margin-left="0"
     fit-margin-right="0"
     fit-margin-bottom="0"
     units="px"
     inkscape:window-width="1280"
     inkscape:window-height="744"
     inkscape:window-x="-4"
     inkscape:window-y="-4"
     inkscape:window-maximized="1" />
  <metadata
     id="metadata7332">
    <rdf:RDF>
      <cc:Work
         rdf:about="">
        <dc:format>image/svg+xml</dc:format>
        <dc:type
           rdf:resource="http://purl.org/dc/dcmitype/StillImage" />
        <dc:title></dc:title>
      </cc:Work>
    </rdf:RDF>
  </metadata>
  <g
     inkscape:label="Layer 1"
     inkscape:groupmode="layer"
     id="layer1"
     transform="translate(-93.789423,-189.68417)">
    <g
       id="g7376"
       transform="translate(0.1322916,-0.13228516)">
      <path
         inkscape:connector-curvature="0"
         id="path28"
         style="fill:#fcd213;fill-opacity:1;fill-rule:evenodd;stroke:none;stroke-width:0.35277778"
         d="m 122.56762,191.87218 c -1.69301,1.38878 -2.93652,2.97889 -5.1351,3.82771 0.75618,0.1765 1.7333,0.17149 2.86191,-0.3617 2.97187,-1.63643 5.35947,-4.4759 8.99188,-5.29322 -2.5006,-0.38781 -5.01791,0.4317 -6.71869,1.82721" />
      <path
         d="m 112.44741,192.41967 c 0.32301,0.11712 0.64368,0.29683 0.95818,0.57411 2.54971,2.24871 4.05353,4.4982 7.81763,2.26921 1.29498,-0.76691 4.1595,-2.9234 5.80909,-3.86172 0.6036,-0.34329 1.2041,-0.62209 1.786,-0.83248 -0.006,0.005 -0.008,0.01 -0.007,0.012 0.003,0.005 0.0114,-0.002 0.0251,-0.0185 1.92278,-0.69091 3.86838,-0.53879 5.67168,0.42041 -6.54269,0.16528 -10.16099,6.0797 -16.45359,5.64328 -3.37341,-0.1808 -5.57209,-4.04001 -8.60249,-4.14309 1.42628,-0.3954 2.42418,-0.24631 2.99529,-0.0632 z"
         style="fill:url(#linearGradient46);fill-rule:evenodd;stroke:none;stroke-width:0.35277778"
         id="path48"
         inkscape:connector-curvature="0" />
      <path
         inkscape:connector-curvature="0"
         id="path50"
         style="fill:#fcd213;fill-opacity:1;fill-rule:evenodd;stroke:none;stroke-width:0.35277778"
         d="m 108.98652,192.75769 c 0.74271,-0.0452 1.60179,0.1615 2.54678,0.7553 0.89401,0.56159 2.50789,1.76629 3.2047,2.23287 1.0692,0.7161 2.08051,0.89722 2.08051,0.89722 -3.3631,0.63941 -5.6587,-3.34169 -9.133,-3.3981 0.40309,-0.2062 0.82621,-0.4585 1.30101,-0.48729" />
      <path
         inkscape:connector-curvature="0"
         id="path52"
         style="fill:#fcd213;fill-opacity:1;fill-rule:evenodd;stroke:none;stroke-width:0.35277778"
         d="m 118.7167,194.27068 c -0.4506,0.40679 -0.9779,0.74909 -1.56669,1.15331 2.95399,-0.91631 4.01109,-4.04802 7.46771,-5.11031 -2.64449,-0.0995 -4.42881,2.6288 -5.90102,3.957" />
      <path
         inkscape:connector-curvature="0"
         id="path54"
         style="fill:#7b7979;fill-opacity:1;fill-rule:evenodd;stroke:none;stroke-width:0.35277778"
         d="m 115.11,200.34379 z m 0,0 v 0.59679 h -1.4255 l -7.6e-4,0.41321 c 0.002,0.0828 -0.0216,0.38739 0.26949,0.3767 l 1.24019,-0.006 v 0.65239 c -0.24458,0.004 -1.004,0.0151 -1.44857,0.005 -0.51961,-0.0119 -0.79351,-0.41768 -0.79481,-0.83559 l 0.007,-2.4905 2.23657,0.004 v 0.60071 h -1.50387 v 0.68312 z m -14.48978,1.2779 c 9.8e-4,3.5e-4 0.002,7.2e-4 0.003,0.001 0.1511,0.0666 0.31358,0.11811 0.49138,0.15191 0.18941,0.0311 0.3392,0.0251 0.45251,-0.0199 0.1106,-0.0455 0.17731,-0.12128 0.2008,-0.2298 0.0237,-0.0983 -0.007,-0.1912 -0.0863,-0.27799 -0.082,-0.087 -0.22401,-0.18252 -0.42552,-0.28811 -0.18908,-0.0984 -0.34829,-0.20408 -0.47759,-0.31958 -0.13211,-0.11614 -0.22539,-0.24261 -0.28038,-0.37751 -0.12591,-0.3084 -0.0108,-0.7004 0.23639,-0.93341 0.13639,-0.13399 0.32198,-0.22479 0.55718,-0.27711 0.4185,-0.0949 0.895,-0.0286 1.27653,0.15042 l -0.12743,0.59348 c -0.14869,-0.0653 -0.30861,-0.11578 -0.4832,-0.14908 -0.1869,-0.0309 -0.33468,-0.0248 -0.44668,0.0196 -0.17459,0.0718 -0.26251,0.2752 -0.17011,0.42982 0.0382,0.0569 0.1011,0.1155 0.1912,0.179 0.0905,0.0611 0.2074,0.1294 0.35289,0.21019 0.2989,0.16069 0.50792,0.33521 0.62812,0.51911 0.1228,0.1845 0.15698,0.39059 0.1083,0.61729 -0.0393,0.1832 -0.1269,0.343 -0.26762,0.47561 -0.13829,0.13579 -0.32611,0.22748 -0.56448,0.2805 -0.23541,0.0535 -0.5213,0.0535 -0.85383,-0.004 -0.0732,-0.0124 -0.2903,-0.047 -0.45818,-0.0861 z m 2.75089,0 c 8.8e-4,3.5e-4 0.002,7.2e-4 0.003,0.001 0.15102,0.0666 0.31362,0.11811 0.49142,0.15191 0.18941,0.0311 0.33909,0.0251 0.45258,-0.0199 0.11042,-0.0455 0.1773,-0.12128 0.20069,-0.2298 0.0237,-0.0983 -0.007,-0.1912 -0.0861,-0.27799 -0.0821,-0.087 -0.2242,-0.18252 -0.42581,-0.28811 -0.1888,-0.0984 -0.34819,-0.20408 -0.47752,-0.31958 -0.13208,-0.11614 -0.22539,-0.24261 -0.28028,-0.37751 -0.12612,-0.3084 -0.0109,-0.7004 0.23629,-0.93341 0.13653,-0.13399 0.32212,-0.22479 0.55732,-0.27711 0.41861,-0.0949 0.89489,-0.0286 1.2767,0.15042 l -0.12753,0.59348 c -0.14859,-0.0653 -0.30868,-0.11578 -0.48337,-0.14908 -0.1869,-0.0309 -0.33472,-0.0248 -0.44673,0.0196 -0.17448,0.0718 -0.2625,0.2752 -0.17007,0.42982 0.0382,0.0569 0.10118,0.1155 0.19121,0.179 0.0905,0.0611 0.20746,0.1294 0.35277,0.21019 0.29891,0.16069 0.5079,0.33521 0.62819,0.51911 0.12302,0.1845 0.1572,0.39059 0.10841,0.61729 -0.0394,0.1832 -0.12689,0.343 -0.26758,0.47561 -0.13822,0.13579 -0.32611,0.22748 -0.56451,0.2805 -0.23559,0.0535 -0.52141,0.0535 -0.8538,-0.004 -0.0734,-0.0124 -0.29051,-0.047 -0.45829,-0.0861 z m -9.581687,0.7027 v -3.22732 c 0.12919,-0.0196 0.28579,-0.0368 0.47279,-0.0492 0.1843,-0.0123 0.40411,-0.0195 0.6597,-0.0195 0.25841,0 0.48119,0.0221 0.6682,0.0662 0.18679,0.0444 0.34081,0.11059 0.4646,0.19921 0.12101,0.0836 0.21439,0.19159 0.28579,0.3242 0.0715,0.13039 0.10721,0.27771 0.10992,0.44228 0,0.16231 -0.0301,0.31221 -0.0878,0.44482 -0.058,0.13261 -0.14302,0.24821 -0.25312,0.34149 -0.1428,0.12051 -0.31881,0.20891 -0.52218,0.2656 -0.20641,0.0564 -0.43163,0.0834 -0.68182,0.0834 -0.11288,0 -0.20609,-0.005 -0.28589,-0.0147 l -0.002,1.14353 z m 0.83019,-2.7014 z m 0,0 v 0.9779 c 0.0688,0.0148 0.162,0.0196 0.28039,0.0196 0.22543,-0.002 0.40132,-0.0492 0.52762,-0.14238 0.12657,-0.096 0.18979,-0.22602 0.19258,-0.398 0,-0.15491 -0.0579,-0.27281 -0.1705,-0.35902 -0.11278,-0.0833 -0.27478,-0.1275 -0.4838,-0.1275 -0.1705,0.002 -0.28579,0.0122 -0.34629,0.0294 z m 14.964697,2.73378 c 0,-1.23609 0,-2.6767 0,-3.22749 0.1374,-0.0197 0.29979,-0.0368 0.49219,-0.0491 0.19251,-0.0124 0.3986,-0.0197 0.6241,-0.0197 0.2751,0 0.50842,0.0197 0.70651,0.059 0.19801,0.0418 0.36011,0.10809 0.49209,0.20151 0.22249,0.1573 0.33799,0.3883 0.34099,0.69039 -0.003,0.14019 -0.036,0.26532 -0.0991,0.37602 -0.0632,0.10809 -0.14581,0.19897 -0.24458,0.27527 -0.099,0.0737 -0.20363,0.12771 -0.31091,0.16211 v 0.0147 c 0.1294,0.0467 0.23121,0.12548 0.31091,0.231 0.0769,0.10569 0.13998,0.236 0.18408,0.3908 0.0385,0.12531 0.0768,0.25309 0.11281,0.3809 0.0385,0.1253 0.074,0.23819 0.10439,0.33898 0.0242,0.0728 0.0455,0.13162 0.0651,0.17561 h -0.86141 c -0.1191,-0.21738 -0.17321,-0.50549 -0.2346,-0.73339 -0.0754,-0.31372 -0.21992,-0.53322 -0.5994,-0.53322 h -0.25291 v 1.26661 z m 0.83029,-2.71649 z m 0,0 v 0.90928 h 0.32992 c 0.2117,-0.002 0.37398,-0.0442 0.48937,-0.12788 0.11543,-0.0858 0.17322,-0.2014 0.176,-0.34632 -0.003,-0.1524 -0.0553,-0.26557 -0.16227,-0.34149 -0.11,-0.0762 -0.25841,-0.1156 -0.4536,-0.11811 -0.1016,0 -0.1814,0.002 -0.2418,0.007 -0.0633,0.007 -0.1071,0.0123 -0.13762,0.0171 z m 5.56042,-0.54321 c 0.1567,-0.022 0.32998,-0.0392 0.52249,-0.0516 0.1952,-0.0123 0.39572,-0.0171 0.6102,-0.0171 0.34911,0 0.64608,0.0295 0.88809,0.0859 0.24451,0.0589 0.4536,0.14749 0.62942,0.26769 0.1952,0.12791 0.3464,0.29509 0.45907,0.5014 0.10993,0.20648 0.16503,0.4548 0.16782,0.74701 -0.003,0.317 -0.0605,0.5848 -0.17321,0.80599 -0.11279,0.22359 -0.2612,0.40061 -0.4426,0.53569 -0.41208,0.3018 -1.00968,0.42771 -1.5331,0.42771 -0.002,0 -0.003,6.9e-4 -0.005,6.9e-4 h -1.12099 l -0.002,-3.3033 z m 0.8413,0.5358 z m 0,0 v 2.16722 c 0.0358,0.007 0.0824,0.0122 0.1349,0.0122 0.0492,0.002 0.10428,0.002 0.15649,0.002 0.25559,0.002 0.47558,-0.039 0.66249,-0.12269 0.18711,-0.0836 0.33291,-0.21138 0.43441,-0.3833 0.1046,-0.17191 0.15409,-0.39069 0.1567,-0.65391 0,-0.22838 -0.0467,-0.42238 -0.14019,-0.57718 -0.0933,-0.15718 -0.22822,-0.2752 -0.40122,-0.35379 -0.1761,-0.0811 -0.38237,-0.12041 -0.62427,-0.12041 -0.18422,0.002 -0.31062,0.0121 -0.37931,0.0295 z m 4.67977,-0.63401 z m 0,0 c 0.28843,0.002 0.54102,0.0471 0.76303,0.13402 0.21939,0.0891 0.4053,0.21078 0.5553,0.36438 0.14958,0.15632 0.26349,0.335 0.34128,0.53862 0.0777,0.20571 0.11652,0.42161 0.11652,0.6548 -0.003,0.36699 -0.0805,0.6822 -0.23301,0.94509 -0.15278,0.26042 -0.3665,0.46129 -0.6412,0.60289 -0.27471,0.14133 -0.5968,0.21082 -0.96302,0.21333 -0.27777,-0.002 -0.52458,-0.0446 -0.74379,-0.13152 -0.21629,-0.0868 -0.40249,-0.20828 -0.55228,-0.3623 -0.14982,-0.1537 -0.2667,-0.33479 -0.3442,-0.54088 -0.0805,-0.20581 -0.11931,-0.4264 -0.11931,-0.66721 0.003,-0.33722 0.0777,-0.6374 0.2275,-0.90039 0.14711,-0.2606 0.3579,-0.4687 0.6301,-0.62033 0.27171,-0.15109 0.5938,-0.22807 0.96308,-0.2305 z m -0.0223,0.60022 z m 0,0 c -0.19149,0.002 -0.35539,0.0522 -0.4886,0.15151 -0.13568,0.0965 -0.23869,0.23047 -0.30808,0.40178 -0.072,0.16842 -0.10813,0.3647 -0.10813,0.58279 0,0.22091 0.0388,0.41441 0.11102,0.58071 0.0723,0.1663 0.1748,0.2976 0.3108,0.3919 0.136,0.0942 0.3,0.14139 0.4886,0.14379 0.19141,-0.002 0.35239,-0.052 0.48838,-0.1512 0.13311,-0.0967 0.23301,-0.23079 0.30512,-0.40167 0.0697,-0.16902 0.10559,-0.3647 0.10559,-0.58332 0,-0.20331 -0.0359,-0.387 -0.10559,-0.5557 -0.0693,-0.16859 -0.17201,-0.3025 -0.30512,-0.40421 -0.13599,-0.10188 -0.29979,-0.15377 -0.49399,-0.15638 z m -13.6453,1.94839 z m 0,0 h -1.06109 l -0.26109,0.8038 -0.9289,-0.003 1.0172,-2.52871 c 0.094,-0.2303 0.26137,-0.85118 1.21098,-0.814 l 1.21052,3.354 h -0.9018 l -0.28582,-0.8121 z m -0.94009,-0.53531 z m 0,0 h 0.81929 l -0.40029,-1.1448 z m -8.014008,0.53531 z m 0,0 h -1.060884 l -0.26151,0.8038 -0.9288,-0.003 1.01742,-2.52871 c 0.0941,-0.2303 0.26126,-0.85118 1.21087,-0.814 l 1.210802,3.354 h -0.901982 l -0.28592,-0.8121 z m -0.94009,-0.53531 z m 0,0 h 0.81908 l -0.40029,-1.1448 z m 14.469988,4.24092 z m 0,0 v 0.13328 h -0.4827 l -10e-4,0.2806 c -0.003,0.0313 0.0243,0.15543 0.12549,0.15801 0.1893,0.005 0.40689,-0.002 0.40749,-0.002 v 0.15939 c -6.1e-4,0 -0.2219,0.007 -0.4112,0.002 -0.18401,-0.004 -0.28099,-0.1584 -0.28137,-0.31708 l 0.005,-0.9434 0.0241,3e-4 v -6.9e-4 h 0.64258 v 0.13501 h -0.50778 l -0.002,0.39451 h 0.4821 z m -1.89028,0 z m 0,0 v 0.13328 h -0.48292 l -0.001,0.2806 c -0.003,0.0313 0.0244,0.15543 0.12552,0.15801 0.18941,0.005 0.40679,-0.002 0.40739,-0.002 v 0.15939 c -6.1e-4,0 -0.2219,0.007 -0.4112,0.002 -0.1839,-0.004 -0.2807,-0.1584 -0.2813,-0.31708 l 0.005,-0.9434 0.0242,3e-4 v -6.9e-4 h 0.64241 v 0.13501 h -0.50779 l -0.002,0.39451 h 0.48232 z m -7.8013,-0.53199 -0.005,0.9331 c -0.005,0.0391 0.0243,0.15409 0.12552,0.15649 0.1893,0.004 0.40689,-0.002 0.40739,-0.002 v 0.15787 c -6.1e-4,0 -0.2219,0.007 -0.4112,0.002 -0.18401,-0.004 -0.28392,-0.15699 -0.2813,-0.3138 l 0.005,-0.9308 0.15931,-0.003 z m 0.7414,0.002 z m 0,0 h 0.16108 v 1.2483 h -0.16108 z m 0.5655,1.2483 z m 0,0 h -0.15173 v -1.2483 h 0.17583 l 0.4003,0.63152 c 0.0461,0.0731 0.0878,0.14252 0.12488,0.2093 0.0362,0.0676 0.0694,0.13261 0.099,0.19632 l 0.004,-0.002 c -0.007,-0.0824 -0.0123,-0.16401 -0.015,-0.24631 -0.003,-0.0816 -0.004,-0.1705 -0.004,-0.26681 v -0.52221 h 0.15201 v 1.2483 h -0.16313 l -0.39627,-0.63348 c -0.0435,-0.0695 -0.0863,-0.1397 -0.12612,-0.21022 -0.0397,-0.0695 -0.0759,-0.139 -0.10738,-0.20659 l -0.006,0.002 c 0.003,0.0517 0.006,0.10438 0.008,0.15737 0.002,0.0525 0.004,0.10841 0.005,0.16651 8.2e-4,0.0585 8.2e-4,0.1222 8.2e-4,0.19089 v 0.53351 z m 1.06698,-1.2483 z m 0,0 h 0.16111 v 0.52223 h 0.60389 v -0.52223 h 0.16312 v 1.2483 h -0.16312 v -0.58551 h -0.60389 v 0.5855 h -0.16111 z m 1.8524,0.85553 z m 0,0 h -0.4427 l -0.12989,0.39277 h -0.16651 l 0.42421,-1.2483 h 0.19459 l 0.42602,1.2483 h -0.1723 z m -0.4094,-0.1259 z m 0,0 h 0.37592 l -0.1222,-0.35931 c -0.0138,-0.0408 -0.026,-0.0797 -0.036,-0.1177 -0.0102,-0.0371 -0.0195,-0.0741 -0.0287,-0.1101 h -0.004 c -0.0185,0.074 -0.039,0.14991 -0.0632,0.226 z m 0.83552,0.45751 z m 0,0 0.0405,-0.13511 c 0.0371,0.023 0.0798,0.0416 0.12968,0.0573 0.0501,0.0158 0.10291,0.0232 0.15942,0.0242 0.0834,-0.001 0.14718,-0.0203 0.19258,-0.0594 0.0455,-0.0388 0.0675,-0.0897 0.0686,-0.15388 8.7e-4,-0.0572 -0.0177,-0.10541 -0.0546,-0.1433 -0.0372,-0.038 -0.0973,-0.0732 -0.18059,-0.10481 -0.10301,-0.0351 -0.18362,-0.0813 -0.2408,-0.138 -0.0586,-0.0563 -0.088,-0.12859 -0.089,-0.21559 9.8e-4,-0.0659 0.0177,-0.12319 0.0509,-0.17409 0.0336,-0.051 0.0797,-0.0908 0.14089,-0.12051 0.06,-0.0286 0.1305,-0.0436 0.21188,-0.0445 0.064,7.1e-4 0.11861,0.006 0.16503,0.0185 0.0464,0.0122 0.0834,0.026 0.11099,0.0425 l -0.0443,0.13158 c -0.0203,-0.0119 -0.051,-0.0248 -0.0919,-0.0379 -0.0397,-0.0129 -0.0889,-0.0205 -0.14527,-0.0213 -0.0565,6.8e-4 -0.10192,0.0102 -0.13702,0.0297 -0.0344,0.0186 -0.0594,0.0427 -0.0749,0.0712 -0.0159,0.0277 -0.0233,0.0574 -0.0233,0.0863 0,0.0388 0.008,0.0712 0.0259,0.0989 0.0176,0.0278 0.0444,0.0538 0.0814,0.0762 0.0363,0.022 0.0835,0.0433 0.1409,0.0658 0.0704,0.0267 0.12978,0.0573 0.17681,0.0906 0.0474,0.0332 0.0826,0.0722 0.10569,0.11751 0.0241,0.0446 0.0361,0.0974 0.0361,0.1584 0,0.0648 -0.0158,0.1252 -0.0482,0.17981 -0.0312,0.0538 -0.0796,0.0973 -0.1445,0.13049 -0.0647,0.0334 -0.14629,0.0499 -0.2444,0.0509 -0.0409,0 -0.0805,-0.004 -0.12129,-0.011 -0.0398,-0.008 -0.0778,-0.0176 -0.11211,-0.0296 -0.0344,-0.012 -0.0621,-0.0258 -0.0851,-0.0409 z m 2.06537,-0.33161 z m 0,0 h -0.4427 l -0.12978,0.39277 h -0.16669 l 0.42428,-1.2483 h 0.19442 l 0.42619,1.2483 h -0.17251 z m -0.40946,-0.1259 z m 0,0 h 0.37609 l -0.12231,-0.35931 c -0.0138,-0.0408 -0.026,-0.0797 -0.0361,-0.1177 -0.01,-0.0371 -0.0195,-0.0741 -0.0288,-0.1101 h -0.004 c -0.0183,0.074 -0.0389,0.14991 -0.063,0.226 z m 1.26499,-1.07079 z m 0,0 h 0.19628 l -0.23509,0.21649 h -0.13331 z m 0.49279,1.58946 z m 0,0 v -1.2319 c 0.0416,-0.008 0.0898,-0.0147 0.14351,-0.0193 0.0537,-0.005 0.1094,-0.007 0.16588,-0.007 0.0852,0 0.1573,0.009 0.21572,0.0243 0.0584,0.0166 0.10739,0.0424 0.14549,0.0776 0.0314,0.028 0.0556,0.0632 0.0731,0.10301 0.0166,0.0406 0.025,0.0862 0.025,0.1342 -9e-4,0.0547 -0.011,0.10379 -0.0315,0.1464 -0.0215,0.0416 -0.0491,0.0777 -0.0843,0.10647 -0.0353,0.0286 -0.0749,0.051 -0.11949,0.0658 v 0.005 c 0.0483,0.0166 0.0872,0.0472 0.1167,0.0899 0.0297,0.0426 0.0519,0.0972 0.0668,0.162 0.0203,0.087 0.0379,0.16009 0.0536,0.21861 0.0159,0.0583 0.0296,0.1 0.0427,0.12407 h -0.1669 c -0.01,-0.0185 -0.0221,-0.0537 -0.0359,-0.10459 -0.0139,-0.0511 -0.0296,-0.11579 -0.0473,-0.19368 -0.0177,-0.0852 -0.0454,-0.1464 -0.0843,-0.18433 -0.0379,-0.0369 -0.0934,-0.0564 -0.1658,-0.0583 h -0.15198 v 0.54087 z m 0.16101,-1.11868 z m 0,0 v 0.4554 h 0.16499 c 0.087,-0.001 0.15561,-0.022 0.20571,-0.0646 0.05,-0.0426 0.0749,-0.10012 0.0759,-0.17231 0,-0.0537 -0.0129,-0.0974 -0.0362,-0.13161 -0.0241,-0.0341 -0.0583,-0.0601 -0.101,-0.0758 -0.0427,-0.0166 -0.0926,-0.025 -0.15,-0.0259 -0.0786,0.001 -0.13218,0.006 -0.15938,0.0148 z m 2.39137,0.72591 z m 0,0 h -0.44259 l -0.12958,0.39277 h -0.16672 l 0.42411,-1.2483 h 0.19449 l 0.42612,1.2483 h -0.17241 z m -0.40918,-0.1259 z m 0,0 h 0.37599 l -0.12228,-0.35931 c -0.014,-0.0408 -0.0259,-0.0797 -0.0361,-0.1177 -0.0102,-0.0371 -0.0195,-0.0741 -0.0287,-0.1101 h -0.004 c -0.0186,0.074 -0.0389,0.14991 -0.063,0.226 z m 0.83541,0.45751 z m 0,0 0.0407,-0.13511 c 0.0369,0.023 0.0796,0.0416 0.12962,0.0573 0.05,0.0158 0.10279,0.0232 0.15942,0.0242 0.0833,-0.001 0.14707,-0.0203 0.19258,-0.0594 0.0454,-0.0388 0.0675,-0.0897 0.0685,-0.15388 8.7e-4,-0.0572 -0.0175,-0.10541 -0.0547,-0.1433 -0.037,-0.038 -0.0972,-0.0732 -0.18048,-0.10481 -0.10269,-0.0351 -0.18352,-0.0813 -0.24091,-0.138 -0.0583,-0.0563 -0.0877,-0.12859 -0.0889,-0.21559 10e-4,-0.0659 0.0177,-0.12319 0.051,-0.17409 0.0334,-0.051 0.0796,-0.0908 0.14069,-0.12051 0.0602,-0.0286 0.1306,-0.0436 0.21209,-0.0445 0.064,7.1e-4 0.11849,0.006 0.16503,0.0185 0.0464,0.0122 0.0833,0.026 0.11098,0.0425 l -0.0445,0.13158 c -0.0201,-0.0119 -0.051,-0.0248 -0.0916,-0.0379 -0.0397,-0.0129 -0.0889,-0.0205 -0.14542,-0.0213 -0.0564,6.8e-4 -0.10177,0.0102 -0.13709,0.0297 -0.0341,0.0186 -0.059,0.0427 -0.0751,0.0712 -0.0156,0.0277 -0.0229,0.0574 -0.0229,0.0863 0,0.0388 0.008,0.0712 0.0258,0.0989 0.0176,0.0278 0.0443,0.0538 0.0816,0.0762 0.036,0.022 0.0832,0.0433 0.14069,0.0658 0.0705,0.0267 0.1294,0.0573 0.17688,0.0906 0.0471,0.0332 0.0825,0.0722 0.10552,0.11751 0.0241,0.0446 0.0362,0.0974 0.0362,0.1584 0,0.0648 -0.0158,0.1252 -0.0482,0.17981 -0.0313,0.0538 -0.0798,0.0973 -0.14433,0.13049 -0.0649,0.0334 -0.14647,0.0499 -0.24458,0.0509 -0.0409,0 -0.0806,-0.004 -0.12149,-0.011 -0.0398,-0.008 -0.0778,-0.0176 -0.1119,-0.0296 -0.0345,-0.012 -0.0622,-0.0258 -0.0852,-0.0409" />
    </g>
  </g>
</svg>
