<?xml version="1.0" encoding="UTF-8" standalone="no"?>
<!-- Created with Inkscape (http://www.inkscape.org/) -->

<svg
   xmlns:dc="http://purl.org/dc/elements/1.1/"
   xmlns:cc="http://creativecommons.org/ns#"
   xmlns:rdf="http://www.w3.org/1999/02/22-rdf-syntax-ns#"
   xmlns:svg="http://www.w3.org/2000/svg"
   xmlns="http://www.w3.org/2000/svg"
   xmlns:sodipodi="http://sodipodi.sourceforge.net/DTD/sodipodi-0.dtd"
   xmlns:inkscape="http://www.inkscape.org/namespaces/inkscape"
   width="92.199997"
   height="42.82"
   viewBox="0 0 24.394582 11.329458"
   version="1.1"
   id="svg28339"
   inkscape:version="0.92.0 r15299"
   sodipodi:docname="air inuit.svg">
  <defs
     id="defs28333">
    <clipPath
       id="clipPath26538"
       clipPathUnits="userSpaceOnUse">
      <path
         inkscape:connector-curvature="0"
         id="path26536"
         d="m 35.64,725.099 h 68.4 v 31.365 h -68.4 z" />
    </clipPath>
  </defs>
  <sodipodi:namedview
     id="base"
     pagecolor="#ffffff"
     bordercolor="#666666"
     borderopacity="1.0"
     inkscape:pageopacity="0.0"
     inkscape:pageshadow="2"
     inkscape:zoom="8.7938598"
     inkscape:cx="45.599999"
     inkscape:cy="20.91"
     inkscape:document-units="mm"
     inkscape:current-layer="layer1"
     showgrid="false"
     fit-margin-top="0"
     fit-margin-left="0"
     fit-margin-right="0"
     fit-margin-bottom="0"
     units="px"
     inkscape:window-width="1280"
     inkscape:window-height="744"
     inkscape:window-x="-4"
     inkscape:window-y="-4"
     inkscape:window-maximized="1" />
  <metadata
     id="metadata28336">
    <rdf:RDF>
      <cc:Work
         rdf:about="">
        <dc:format>image/svg+xml</dc:format>
        <dc:type
           rdf:resource="http://purl.org/dc/dcmitype/StillImage" />
        <dc:title></dc:title>
      </cc:Work>
    </rdf:RDF>
  </metadata>
  <g
     inkscape:label="Layer 1"
     inkscape:groupmode="layer"
     id="layer1"
     transform="translate(-84.696905,-151.3518)">
    <g
       id="g26532"
       transform="matrix(0.35277777,0,0,-0.35277777,72.256197,418.34777)">
      <g
         id="g26534"
         clip-path="url(#clipPath26538)">
        <g
           id="g26540"
           transform="translate(40.4891,738.379)">
          <path
             d="m 0,0 c -0.093,0 -0.186,-0.074 -0.223,-0.168 l -4.415,-12.609 c -0.056,-0.131 -0.018,-0.261 0.112,-0.261 h 2.384 c 0.093,0 0.205,0.075 0.224,0.168 l 0.707,2.216 h 4.768 l 0.708,-2.216 c 0.037,-0.093 0.131,-0.168 0.224,-0.168 h 2.384 c 0.13,0 0.167,0.13 0.112,0.261 L 2.57,-0.168 C 2.533,-0.074 2.44,0 2.347,0 Z m 35.929,-3.185 c -1.248,0 -2.31,-0.521 -2.924,-1.62 l -0.149,1.21 c -0.019,0.094 -0.112,0.168 -0.205,0.168 h -1.658 c -0.093,0 -0.168,-0.074 -0.168,-0.168 v -9.275 c 0,-0.093 0.075,-0.168 0.168,-0.168 h 2.235 c 0.112,0 0.205,0.075 0.205,0.168 v 4.917 c 0,1.621 0.708,2.403 1.751,2.403 0.912,0 1.453,-0.615 1.453,-1.826 v -5.494 c 0,-0.093 0.074,-0.168 0.167,-0.168 h 2.273 c 0.093,0 0.167,0.075 0.167,0.168 v 6.24 c 0,2.086 -1.322,3.445 -3.315,3.445 m 8.996,-10.095 c 1.248,0 2.235,0.522 2.85,1.621 l 0.149,-1.211 c 0.018,-0.093 0.112,-0.168 0.205,-0.168 h 1.657 c 0.094,0 0.168,0.075 0.168,0.168 v 9.275 c 0,0.094 -0.074,0.168 -0.168,0.168 h -2.235 c -0.112,0 -0.205,-0.074 -0.205,-0.168 v -4.917 c 0,-1.62 -0.689,-2.421 -1.676,-2.421 -0.857,0 -1.36,0.633 -1.36,1.844 v 5.494 c 0,0.094 -0.074,0.168 -0.167,0.168 H 41.87 c -0.093,0 -0.167,-0.074 -0.167,-0.168 v -6.239 c 0,-2.105 1.285,-3.446 3.222,-3.446 m 13.448,2.98 c 0,-2.049 1.099,-2.961 3.054,-2.961 0.876,0 1.956,0.223 1.956,0.223 0.093,0.019 0.168,0.112 0.168,0.224 v 1.806 c 0,0.15 -0.112,0.168 -0.205,0.15 -0.242,-0.038 -0.708,-0.075 -1.285,-0.075 -0.745,0 -1.081,0.317 -1.081,1.062 v 4.321 h 2.254 c 0.093,0 0.168,0.074 0.168,0.186 v 1.769 c 0,0.094 -0.075,0.168 -0.168,0.168 H 60.98 v 2.831 c 0,0.13 -0.111,0.186 -0.242,0.149 L 58.54,-1.21 c -0.093,-0.038 -0.167,-0.112 -0.167,-0.224 v -1.993 h -1.49 c -0.093,0 -0.168,-0.074 -0.168,-0.168 v -1.769 c 0,-0.112 0.075,-0.186 0.168,-0.186 h 1.49 z M 27.845,0 h -2.347 c -0.111,0 -0.186,-0.093 -0.186,-0.186 v -12.665 c 0,-0.112 0.075,-0.187 0.186,-0.187 h 2.347 c 0.112,0 0.187,0.075 0.187,0.187 V -0.186 C 28.032,-0.093 27.957,0 27.845,0 m -8.4,-3.241 c -0.167,0.038 -0.466,0.056 -0.763,0.056 -1.081,0 -2.087,-0.596 -2.552,-1.713 l -0.168,1.303 c -0.018,0.094 -0.093,0.168 -0.204,0.168 h -1.677 c -0.093,0 -0.168,-0.074 -0.168,-0.168 v -9.256 c 0,-0.112 0.075,-0.187 0.168,-0.187 h 2.272 c 0.112,0 0.186,0.075 0.186,0.187 v 4.898 c 0,1.564 0.802,2.421 2.087,2.421 0.242,0 0.745,-0.037 1.024,-0.074 0.112,-0.019 0.168,0.018 0.168,0.112 v 1.844 c 0,0.335 -0.019,0.335 -0.373,0.409 M 10.971,-3.427 H 8.698 c -0.112,0 -0.186,-0.074 -0.186,-0.168 v -9.256 c 0,-0.112 0.074,-0.187 0.186,-0.187 h 2.273 c 0.111,0 0.186,0.075 0.186,0.187 v 9.256 c 0,0.094 -0.075,0.168 -0.186,0.168 m 44.161,0 h -2.291 c -0.093,0 -0.168,-0.074 -0.168,-0.168 v -9.256 c 0,-0.112 0.075,-0.187 0.168,-0.187 h 2.291 c 0.093,0 0.186,0.075 0.186,0.187 v 9.256 c 0,0.094 -0.093,0.168 -0.186,0.168 M 1.173,-3.222 2.775,-8.251 h -3.222 z m 54.015,3.707 h -2.422 c -0.093,0 -0.167,-0.075 -0.167,-0.187 v -2.235 c 0,-0.093 0.074,-0.186 0.167,-0.186 h 2.422 c 0.111,0 0.186,0.093 0.186,0.186 v 2.235 c 0,0.112 -0.075,0.187 -0.186,0.187 m -44.162,0 H 8.605 C 8.512,0.485 8.437,0.41 8.437,0.298 v -2.235 c 0,-0.093 0.075,-0.186 0.168,-0.186 h 2.421 c 0.112,0 0.187,0.093 0.187,0.186 v 2.235 c 0,0.112 -0.075,0.187 -0.187,0.187"
             style="fill:#231f20;fill-opacity:1;fill-rule:nonzero;stroke:none"
             id="path26542"
             inkscape:connector-curvature="0" />
        </g>
        <g
           id="g26544"
           transform="translate(40.3029,755.9803)">
          <path
             d="m 0,0 c -0.093,0 -0.186,-0.074 -0.223,-0.168 l -4.415,-12.609 c -0.056,-0.131 -0.018,-0.261 0.112,-0.261 H 6.873 c 0.13,0 0.167,0.13 0.112,0.261 L 2.57,-0.168 C 2.533,-0.074 2.44,0 2.347,0 Z m 25.685,0 c -0.094,0 -0.187,-0.074 -0.224,-0.168 l -4.414,-12.609 c -0.056,-0.131 -0.019,-0.261 0.112,-0.261 h 11.398 c 0.131,0 0.168,0.13 0.112,0.261 L 28.255,-0.168 C 28.218,-0.074 28.125,0 28.032,0 Z m -9.406,-3.185 c -2.701,0 -4.601,-1.974 -4.601,-4.843 0,-1.099 0.354,-2.235 0.913,-2.961 -1.62,0 -3.967,0.186 -4.712,0.242 -0.131,0 -0.187,-0.056 -0.187,-0.168 v -1.788 c 0,-0.111 0.056,-0.205 0.168,-0.205 1.993,-0.167 5.308,-0.353 7.599,-0.353 3.632,0 5.42,1.881 5.42,5.103 0,3.166 -1.825,4.973 -4.6,4.973 m 19.761,1.676 c 0.503,0 1.099,-0.056 1.099,-0.056 0.112,0 0.187,0.075 0.187,0.187 v 1.527 c 0,0.112 -0.075,0.205 -0.187,0.223 0,0 -0.614,0.112 -1.21,0.112 -2.943,0 -4.563,-1.769 -4.563,-4.433 0,-2.887 1.695,-4.451 4.563,-4.451 0.503,0 1.21,0.112 1.21,0.112 0.112,0.018 0.187,0.111 0.187,0.205 v 1.564 c 0,0.093 -0.075,0.186 -0.187,0.168 0,0 -0.596,-0.056 -1.099,-0.056 -1.489,0 -2.309,0.875 -2.309,2.458 0,1.584 0.857,2.44 2.309,2.44 m -19.761,-9.573 c -1.211,0 -1.975,0.987 -1.975,2.868 0,1.881 0.82,2.757 1.993,2.757 1.248,0 1.956,-0.95 1.956,-2.757 0,-1.918 -0.801,-2.868 -1.974,-2.868 m -15.106,7.86 2.366,-7.413 h -4.75 z m 25.685,0 2.365,-7.413 h -4.749 z"
             style="fill:#f1471d;fill-opacity:1;fill-rule:nonzero;stroke:none"
             id="path26546"
             inkscape:connector-curvature="0" />
        </g>
      </g>
    </g>
  </g>
</svg>
