<?xml version="1.0" encoding="utf-8"?>
<!-- Generator: Adobe Illustrator 21.0.0, SVG Export Plug-In . SVG Version: 6.00 Build 0)  -->
<svg version="1.1" id="Слой_1" xmlns="http://www.w3.org/2000/svg" xmlns:xlink="http://www.w3.org/1999/xlink" x="0px" y="0px"
	 viewBox="0 0 3747.2 925.1" style="enable-background:new 0 0 3747.2 925.1;" xml:space="preserve">
<style type="text/css">
	.st0{fill:#BB1F06;}
	.st1{fill:#BB1E05;}
	.st2{fill:#BB1F05;}
	.st3{fill:#BB2006;}
	.st4{fill:#BC2209;}
	.st5{fill:#BB1E04;}
	.st6{fill:#BC2108;}
</style>
<g>
	<path class="st0" d="M0,494.9c0.1-1.2,0.3-2.5,0.3-3.7c0-18.4,0-36.8,0-55.2c0-1.5-0.2-3-0.3-4.4c0.1-2.5,0.4-5,0.3-7.5
		c-0.5-8.3,0.9-16.4,2-24.5c0.9-6.8,1.4-13.7,3.9-20.3c0.5-7.9,3-15.5,4.6-23.2c3.2-14.9,7.7-29.5,12.6-43.9
		c4.6-13.5,10-26.7,15.9-39.7c2.8-6.1,5.4-12.2,8.6-18c5.8-10.6,11.4-21.3,17.7-31.7c5.6-9.1,11.4-17.9,17.4-26.7
		c4.9-7.2,10.3-13.9,15.6-20.9c10.1-13.4,22-25.1,33.7-37c7.2-7.3,14.5-14.5,21.9-21.5c8.5-8,17.6-15.4,27-22.3
		c10.6-7.7,21.3-15.3,32.3-22.4c17.4-11.3,35.7-21.2,54.5-29.8c10.7-4.9,21.7-9.2,32.8-13.4c9.9-3.7,20-6.7,30.1-9.8
		c10.6-3.3,21.4-5.4,32-8.5c4-1.2,8.3-1.5,12.4-2c2.7-0.3,5.2-1.3,8-1.7c3.7-0.5,7.4-0.8,11-1.6c3.4-0.7,7-0.6,10.3-1.4
		c3.9-1,7.8-1.2,11.8-1.3c5-0.2,9.7-1.7,14.8-1.5c5,0.2,10.1,0.5,15-0.3c7.5-1.2,14.9-0.9,22.3-0.8c4.7,0.1,9.3,1.2,14,1.1
		c4.7-0.1,9.5,0,14.2,0.3c3.4,0.2,6.8,1.4,10.3,1.3c3.2-0.1,6.5-0.1,9.5,1.3c0.6,0.3,1.5,0.1,2.2,0.1c3.2,0.2,6.4,0.2,9.5,1.3
		c2.7,0.9,5.8,0.5,8.8,1.4c3.2,0.9,6.8,1.1,10.2,1.7c10.4,1.9,20.6,4.5,30.9,7.1c12.2,3.1,24.1,6.8,35.9,11
		c9.2,3.3,18.5,6.6,27.5,10.7c8.3,3.7,16.7,7.3,24.8,11.4c14.6,7.3,28.7,15.4,42.5,24.1c13.8,8.8,26.9,18.6,40,28.3
		c3.2,2.4,6.2,5,9.2,7.6c5.4,4.7,10.8,9.6,16.2,14.4c3.7,3.3,7.6,6.5,11.1,10c8.7,8.9,17,18.2,25.3,27.5
		c9.1,10.2,17.4,21.1,25.4,32.1c6.9,9.4,13.2,19.1,19.3,29c9.6,15.6,18,31.8,25.7,48.4c6.1,13.2,11.5,26.6,16.4,40.3
		c2.4,6.7,4.4,13.6,6.5,20.4c2.6,8.4,4.8,17,7,25.6c1.5,5.9,2.4,12,4.1,18c1,3.3,1.1,6.8,1.6,10.2c0.6,4.7,2.1,9.2,2,14
		c-0.1,3.2,1.6,6.2,1.4,9.5c-0.2,2.9-0.2,6,1.2,8.8c0.3,0.6,0,1.5,0.1,2.2c0.6,7.2,0.1,14.3,1.2,21.6c1.1,7.1,0.3,14.5,0.3,21.7
		c0,7.2,0.1,14.5-0.1,21.7c-0.1,4.4-0.8,8.9-1,13.3c-0.2,4.2,0.2,8.6-0.5,12.7c-0.6,3.7-0.9,7.4-1.3,11c-0.4,3.7-1.1,7.3-1.7,11
		c-0.4,2.7-1,5.3-1.3,8c-0.3,2.7-1.4,5.2-1.6,8c-0.2,2.4-1.2,4.7-1.5,7.2c-0.3,2.7-1.1,5.3-1.6,8c-1.3,6.5-3,12.9-4.8,19.3
		c-3.4,12.3-6.8,24.6-11.4,36.6c-3.4,8.7-6.7,17.4-10.2,26.1c-3.8,9.4-8.1,18.5-12.8,27.5c-8.9,17.1-18.8,33.7-29.7,49.6
		c-7,10.2-14.4,20.2-22.2,29.8c-6.1,7.5-12.6,14.7-19,22.1c-7.5,8.7-15.7,16.7-24,24.7c-5.9,5.7-12.4,10.7-18.5,16.2
		c-9.4,8.5-19.5,16.1-29.8,23.5c-8,5.8-16.2,11.5-24.6,16.7c-13.2,8.2-26.6,16.1-40.7,22.7c-9.8,4.6-19.4,9.7-29.8,12.9
		c-9.1,5-19.4,6.9-28.8,11.2c-5.8,1.1-11.2,3.5-16.9,5c-8.5,2.3-17.1,4.4-25.7,6.7c-3.1,0.8-6.3,0.7-9.4,2c-2.4,1-5.3,0.9-7.9,1.6
		c-2.4,0.6-4.9,0.3-7.2,1.6c-5.3-0.4-10.2,1.9-15.5,1.8c-3.2-0.1-6.2,1.7-9.5,1.5c-3.2-0.2-6.5-0.3-9.5,1.2c-0.2,0.1-0.5,0-0.7,0
		c-8-0.1-15.9,1.2-23.8,1.4c-13.2,0.3-26.5,0.2-39.7,0c-3.7,0-7.3-0.8-11-1.1c-3.5-0.2-7.1,0.2-10.5-0.5c-4.2-0.9-8.3-1-12.5-1.3
		c-2.4-0.2-4.8-0.9-7.3-1.3c-2.4-0.4-5,0.1-7.3-1.1c-0.8-0.4-1.9-0.4-2.9-0.4c-5.2-0.2-10.2-1.4-15.2-2.7c-2.9-0.7-6-0.1-8.7-1.7
		c-9.3-1.3-18.3-4-27.2-6.5c-11.8-3.2-23.4-7.3-35-11.4c-6-2.2-12-4.5-17.9-6.8c-14.7-5.8-29-12.4-42.8-20
		c-14.5-8-28.8-16.4-42.3-25.9c-8.7-6.1-17.3-12.4-25.9-18.7c-3.8-2.8-7.4-5.9-10.8-9.1c-12.5-11.9-25.5-23.2-37.2-35.8
		c-8.8-9.5-17.5-19.1-25.9-28.9c-4-4.7-7.3-9.9-11-14.9c-5.6-7.6-10.8-15.4-16-23.2c-10.6-16.1-19.9-33-28.4-50.3
		c-6.9-14.2-12.9-28.7-18.3-43.5c-2.8-7.9-5.3-15.8-7.7-23.8c-3.4-11.3-6.3-22.7-8.9-34.2c-2-8.6-2.8-17.5-5.5-26
		c0.4-4.8-1.7-9.2-1.8-14c-0.1-4.4-1.6-8.7-1.5-13.3C0.5,503.9,0.1,499.4,0,494.9z M888.2,400.6c-0.5-3.7-0.7-7.2-1.5-10.5
		c-2.2-9.3-3.5-18.9-5.9-28.2c-2.2-8.6-4.5-17.1-7.1-25.6c-2.6-8.5-5.6-16.8-8.7-25.1c-3.3-8.7-6.6-17.5-10.8-25.9
		c-4-8.2-7.7-16.5-12.1-24.5c-4.9-9.1-10.2-18.1-15.7-26.9c-6.7-10.7-14-21-21.6-31.1c-7.6-10.2-15.6-20-24.2-29.3
		c-11.8-12.8-24.1-25.3-37.4-36.6c-11.2-9.5-22.6-18.6-34.5-27.2c-16.3-11.8-33.6-21.8-51.3-31.2c-5.9-3.1-12-5.8-18-8.5
		c-11.4-5.2-22.9-10.3-34.8-14.2c-8.9-2.9-17.6-6.2-26.7-8.5c-6.2-1.6-12.4-3.1-18.5-4.7c-8.8-2.3-17.8-3.7-26.7-5.7
		c-3.9-0.9-8-0.5-11.7-1.7c-5.3-1.7-10.8-0.8-16.1-2.3c-3.5-1-7.5-0.6-11.2-0.4c-4,0.2-7.8-1.2-11.8-1.3c-14.5,0-29-0.1-43.5-0.2
		c-3.5,0-6.9,0.6-10.3,1.2c-3.4,0.6-7.2-0.4-10.4,0.6c-5.3,1.7-10.8,0.5-16.1,2.4c-3,1-6.3,0.4-9.5,1.4c-3.2,1-6.9,0.4-10.2,1.7
		c-6.5,0-12.4,3.2-18.9,3.3c-11.5,3.4-23.3,6.1-34.7,9.9c-5.8,1.9-11.6,4.2-17.4,6.1c-9.6,3.3-18.9,7.2-28,11.4
		c-21.1,9.8-41.5,20.7-60.7,33.9c-7.3,5-14.8,10-21.8,15.4c-6.9,5.3-13.4,11.1-20.1,16.6c-10,8.2-19.3,17.3-28.6,26.3
		c-5.5,5.4-10.5,11.3-15.7,17c-0.2,0.2-0.4,0.4-0.5,0.5c-6.8,8.8-14.1,17.3-20.8,26.2c-13.7,18.2-25.8,37.5-36.5,57.6
		c-5.6,10.5-10.7,21.1-15.3,32.1c-2.4,5.9-4.9,11.8-7,17.8c-4.7,12.9-8.9,26-12.7,39.3c-0.6,2.2-0.3,4.6-1.1,6.6
		c-1,2.4-1.3,4.8-1,7.2c7.7,15.3,14.8,30.7,23.8,45.3c6.2,9.9,12.8,19.5,20.6,28.1c10.2,11.3,20.8,22.2,32.7,31.9
		c10.4,8.5,21.5,15.8,33.4,22c5.4,2.8,11.1,5.2,16.8,7.7c8.3,3.6,16.6,7.4,25.7,9.1c12.2,4.8,25.3,6,38.1,8.7c7.7,0,15.2,2.3,23,1.8
		c2.7-0.2,5.5,0,8.2,0.1c1.2,0,2.5,0.1,3.7,0.3c5.7,1.3,11.4,0.4,17.1,0.7c3.6-1.6,7.4-1.1,11-1c11,0.3,21.8-1.3,32.8-1.9
		c0.5,0,1.1,0.1,1.5-0.1c2.8-1.5,5.8-0.9,8.8-1.3c2.9-0.4,5.8-1.2,8.7-1.3c4.7-0.1,9.3-1.5,14-2.1c4.6-0.6,9.2-1.7,13.7-2.7
		c3.1-0.7,6.3-1.1,9.4-1.9c8.8-2.2,17.6-4.7,26.4-6.8c16.7-4,33.1-9.2,49.5-14.5c10.1-3.3,20.4-6,31.2-5.2c1.7,0.1,3.5-0.1,5.2,0.1
		c8.3,0.6,15.4,3.8,20.6,10.3c1.8,2.3,2.7,5.2,4.2,8.1c0,4.1-0.1,8.4,0,12.6c0.1,3.8-0.5,7.4-1.7,11c-2.8,8.1-5.7,16.3-9.1,24.2
		c-4,9.3-7.7,18.6-11.2,28.1c-2,5.4-2.1,11.1-3.4,16.6c-0.8,3.3,1,6.3,1.1,9.5c0.1,3.7,1.8,6.6,4.3,9.2c3.1,3.4,7.2,5.2,11.4,6.9
		c5.7,0,11.4-0.1,17.1,0c4.5,0.1,8.9-1,13.1-2.1c7.8-2.1,15.5-4.7,23-7.8c17.2-7.1,33.1-16.6,48.3-27.3
		c10.8-7.5,21.3-15.3,31.9-23.1c10.6-7.8,21-15.8,31.5-23.7c9.7-7.4,19.2-14.9,28.9-22.2c13.1-9.8,26.2-19.6,39.3-29.3
		c12.4-9.1,24.8-18.1,37.3-27c19.2-13.5,38.7-26.6,59.4-37.9c7.8-4.3,15.9-7.9,24.2-11c6.4-2.5,13.3-3.6,20-5.1
		C887.2,402,887.7,401.2,888.2,400.6z M394.4,644.9c-3.7,6.7-7.6,13.3-11.1,20.1c-9.3,18.3-18.2,36.7-28.1,54.7
		c-6.1,11-11.8,22.3-19.3,32.5c-6.2,8.4-12.4,16.8-19.6,24.4c-3.4,3.6-6.7,7.4-10,11.1c-1,1.1-2.1,2.2-3.2,3.2
		c-2.6,2.3-5.2,4.6-7.9,6.9c-4.9,4.2-9.6,8.8-14.7,12.7c-8.7,6.5-17.8,12.6-26.7,18.9c-3,2.1-6,4.3-9,6.4c1.6,3,4.3,3.9,6.6,5.1
		c14,7.2,28.2,14.2,42.7,20.4c5.9,2.5,11.9,4.7,17.8,7c10.3,4,20.8,7.4,31.5,10.3c8.8,2.4,17.5,4.9,26.5,6.5
		c3.1,0.5,6.3,1.1,9.4,1.8c4.8,1.1,9.6,2.4,14.5,2.5c1,0,2.2-0.2,2.9,0.3c3,1.8,6.5,0.4,9.5,1.6c3.1,1.3,6.4,0.7,9.6,1
		c1.5,0.1,3.2-0.3,4.5,0.2c3.9,1.6,7.9,1.1,11.8,1.2c4,0.2,8.1-0.5,12,0.4c4.2,1,8.4,0.8,12.6,0.9c4.5,0.1,9,0,13.5,0
		c1.5,0,3.2,0.4,4.5-0.2c3.1-1.4,6.4-1.1,9.6-1c9,0.4,17.8-2,26.8-1.8c3.6-1.4,7.4-0.7,11-1.6c7.2-1.7,14.5-2.4,21.8-3.9
		c6-1.2,11.9-3.3,18.1-3.6c8.1-3,16.6-4.5,24.8-7.1c11-3.5,21.9-7.3,32.6-11.5c7.3-2.9,14.5-6.1,21.8-9c3.6-1.5,7.4-2.9,10.6-5.8
		c-1.1-0.8-2-1.7-3.1-2.1c-5.8-2-11.9-3.1-17.8-4.6c-3.6-0.9-7.2-2.1-10.7-2.6c-10.8-1.5-21-5.4-31.8-6.5c-5-2.1-10.4-2.8-15.7-4.1
		c-5.2-1.3-10.4-3.3-15.9-3.4c-11.6-4-23.7-6.5-35.3-10.3c-14-4.6-27.8-9.8-41.2-16.1c-10.9-5.2-21.4-11.2-31.5-17.9
		c-11.1-7.4-20.5-16.7-29.3-26.5c-0.8-0.9-1.3-2.1-2.1-3c-5-6.2-8.5-13.3-11.9-20.5c-6.3-13.3-9.4-27.5-10.2-42.1
		c-0.5-10.2-0.2-20.5-0.2-30.7c0-3.2-0.2-6.4,1.2-9.6c0.5-1.2,0.1-2.9,0.1-4.3C395.3,644.9,394.8,644.9,394.4,644.9z M35.5,537.9
		c1.5,1.9,3.5,3.5,5.8,5.1c11.7,8.3,24.5,14.9,37.2,21.5c13.1,6.9,26.5,13,40.5,18c8.8,3.2,17.6,6.2,26.7,8.4
		c9.6,2.4,19,5.2,28.9,5.9c2.5,1.4,5.3,1.1,8,1.4c2.9,0.3,5.8,1.1,8.8,1.2c9.7,0.3,19.5,0.5,29.2,0.4c9.7-0.1,19.4,0.7,29-1.5
		c3.1-0.7,6.4,0,9.6-1.2c3.2-1.2,7-0.1,10.1-1.9c8.8-1.2,17.2-3.9,25.8-6.1c8.6-2.2,17-4.8,25.3-7.9c14.5-5.5,28.7-11.8,42.7-18.3
		c10.3-4.8,20.5-9.8,30.7-14.7c17.8-8.6,35.4-17.4,53.3-25.6c4-1.9,8-3.8,12.2-5.3c5.6-2,11.2-3.8,17.3-3.4c1.9,0.1,3.9-0.6,5.6-0.8
		c4.8,1.1,7.2,4.4,8.5,8.1c0,2.7,0,4.9,0,7.1c-4.1,9.1-7.7,18.3-12.2,27c-4.3,8.4-7.6,17.1-11.1,25.8c-2.5,6.1-3.7,12.8-4.7,19.3
		c-0.7,4.9-0.6,10,0.2,14.9c0.7,4.5,2.2,9,3.8,13.4c2.9,7.8,7.4,14.8,13.3,20.3c5.9,5.5,12.7,10,20.7,12.8
		c6.8,2.4,13.6,4.9,20.7,5.1c12.7,0.4,25.4,1.6,38-1c6.7,0.1,13.2-1.8,19.7-3.1c7.2-1.4,14.6-2.7,21.6-5
		c12.8-4.2,26.1-7.1,38.4-12.9c30.5-11.2,40.5-16.7,59-25.2c12.8-5.9,25.1-12.8,37.5-19.4c14.4-7.7,28.6-15.5,42.7-23.7
		c4.7-2.7,9.6-5.1,14.3-7.9c12.1-7.1,24.8-13.1,38-18c11.1-4.1,22.6-7,34.7-6.6c6,0.2,12,0,17.7,0c0.8-0.7,1.4-1.1,1.9-1.5
		c2.5-5.1,2-10.7,3.3-16c1.2-5,1.3-10.3,1.8-15.5c0.5-5.3,2.4-10.6,1.1-15.9c-3.4-1.2-6.7-2.2-10.3-2.2c-1.2,0-2.4-0.6-3.6-0.8
		c-1.2-0.2-2.6-0.6-3.7-0.2c-3.9,1.5-7.9,0.9-11.8,1.1c-6.5,0.3-12.6,2.1-18.7,4.2c-10.7,3.8-20.9,8.7-30.8,14.2
		c-14.3,7.9-28,16.7-41.8,25.4c-10.6,6.8-21.1,13.8-31.8,20.6c-13.6,8.5-27.3,16.8-41,25.3c-12.8,7.9-26,15.3-39.2,22.4
		c-12.8,6.8-25.9,13.3-39,19.6c-9.1,4.4-18.3,8.5-27.9,11.7c-8.4,2.8-16.6,6.2-25.6,7c-4.9,1.9-10.2,2.4-15.2,2.6
		c-10.7,0.5-21.5,0.3-32.2,0.2c-7.2-0.1-14.1-2-20.5-5.5c-12.8-7-20.4-16.6-20.5-33.4c0-2.2,0-4.5,0-6.7c-0.1-8.5,1.8-16.6,4.3-24.7
		c2-6.4,4.5-12.5,7.2-18.5c3.3-7.2,6.7-14.3,9.7-21.6c2.9-7,6.1-13.9,8-21.4c0.8-3.2,0.6-6.4,0.7-9.5c-0.9-1.6-1.8-3.1-2.6-4.5
		c-4.5-2.8-9.1-4-14.2-4.1c-3.1,0-5.8,1.1-8.8,1.4c-7.9,0.6-15.3,3.4-22.8,5.8c-7,2.3-13.8,5.3-20.7,7.6
		c-15.8,5.4-31.2,12.1-46.8,17.8c-12.7,4.7-25.3,9.3-38.1,13.8c-14.1,4.9-28.5,9.3-43,13.1c-4.7,1.3-9.5,2.6-14.4,3.3
		c-6.6,1-13,3.3-19.7,3.3c-3.7,1.9-8,0.6-11.7,1.6c-4.2,1.2-8.4,1.1-12.6,1.2c-13.2,0.1-26.5,0-39.7-0.1c-1.7,0-3.7,0.4-5.2-0.3
		c-2.7-1.2-5.4-1.3-8.1-1.1c-3.1,0.2-5.8-1.3-8.8-1.5c-4.4-0.4-8.9-0.7-13.2-1.9c-5.5-1.5-11-2.6-16.4-4.1
		c-5.4-1.5-10.9-2.8-16.3-4.6c-5.3-1.8-11-2.7-16-5.6c-10.3-2.8-19.7-7.6-29.3-12c-10.3-4.7-20.1-10.6-29.6-16.8
		c-11.7-7.5-22.9-15.7-33.4-24.8c-2-1.8-4.3-3.3-6.7-5.1c-0.4,2.7-0.7,5.2,0.4,7.6c0.3,0.7,0.5,1.4,0.5,2.2
		c-0.4,6.5,1.8,12.8,1.8,19.3c0,0.7-0.2,1.6,0.1,2.2c1.4,3.1,1,6.3,1.5,9.5C34,531.3,34.8,534.4,35.5,537.9z M452,564.7
		c-3.6,8.4-6.4,16-9.8,23.4c-4.8,10.6-7.2,21.9-9.5,33.2c0,10.2-1.1,20.4,1.2,30.5c2.8,12,7.5,22.9,15.7,32.2c2.8,3.2,6,5.9,9,8.8
		c7.9,7.7,21.7,14.3,34.5,17.9c7.3,2.1,14.6,4.5,22.3,4.7c3,1.7,6.3,1,9.5,1.3c3.4,0.4,6.8,1.1,10.3,1.2c8.2,0.2,16.5,0.2,24.7,0
		c4.2-0.1,8.4-1.2,12.5-1.1c6.8,0.1,13.3-2.1,20-1.9c0.5,0,0.9-0.3,1.4-0.3c4.4-0.8,8.7-1.6,13.1-2.4c3.9-0.7,7.9-0.8,11.7-1.8
		c8.5-2.4,17.3-3.6,26-5.5c6-1.3,12-2.8,18-3.8c7.7-1.3,15.3-3.5,22.9-5.4c6-1.5,12-2.8,17.9-4.2c4.3-1,8.5-2.5,12.9-3
		c6.1-0.8,12-2.6,18.1-3.8c6.5-1.3,13-2.6,19.5-4.2c3.6-0.9,7.4-0.7,10.8-2.4c4.5,0.1,8.7-2.1,13.2-1.9c1,0,2.1,0.1,2.9-0.3
		c3.1-1.7,6.5-0.5,9.5-1.4c3.2-1,6.3-1.2,9.5-1.2c6.2-0.1,12.5,0,18.7,0c5.5,0,10.7,1.6,16,2.8c2-1.1,3.2-2.8,4.3-4.8
		c7.2-12.4,13.2-25.3,18.6-38.6c0.9-2.3,1.3-4.6,0.3-7.3c-4.7-0.1-9.2-0.2-13.7-0.1c-4.5,0-9.1-0.4-13.5,0.5
		c-4.3,0.9-8.9,0.5-13,2.6c-12.3,2.5-24.3,6.1-36.2,10c-15.4,5.2-30.7,10.4-46,15.6c-18.6,6.3-37.2,12.6-55.8,18.9
		c-9.8,3.3-19.8,5.7-29.5,9.3c-11.9,2.1-23.2,6.5-35.3,7.9c-6.5,2.5-13.6,2.3-20.2,4.2c-3.6-0.5-6.8,1.3-10.2,1.5
		c-3.5,0.2-6.9,0.5-10.3,1.2c-4.1,0.8-8.5,0.3-12.7,0.6c-4.2,0.3-8.4,1-12.5,1.1c-6.2,0.2-12.4,0.1-18.6-1
		c-3.9-0.7-8.1,0.2-11.9-0.9c-3.8-1.1-8,0-11.6-2.2c-9.9-1.4-19.1-4.8-27.9-9.2c-13.4-6.6-23.4-16.5-29.5-30.1
		c-0.7-1.6-1.6-3.1-2-4.8c-2-7.4-3.8-14.9-3.4-22.6c0.2-4.2-0.1-8.5,0.3-12.7c0.4-4.4,1-8.8,2-13.1c2.8-11.8,7.2-23,12.4-33.9
		c5.3-11.1,10.8-22.2,17.3-33.2c0-1.7,0-3.7,0-5.7c0-0.7-0.3-1.4-0.4-2.2c-1.1-0.6-2.2-1.1-3.3-1.7c-0.9,0.4-1.8,0.7-2.7,1.1
		c-6,2.3-11.8,4.9-17.4,8.2c-15.2,8.9-29.3,19.4-43.5,29.8c-10.4,7.6-20.5,15.7-31.1,23c-15.7,10.7-31.9,20.7-48.9,29.3
		c-13.7,6.9-27.4,13.5-41.8,18.5c-6.3,2.2-12.5,4.4-18.9,6.3c-4,1.2-8.1,2-12.1,3.1c-4,1.1-8.4,0.9-12.4,2.2
		c-4.3,1.5-8.9,0.7-13,2.5c-7-0.2-13.8,1.8-20.8,1.7c-13.7-0.3-27.5-0.1-41.2-0.2c-1.5,0-3.1,0.3-4.5-0.2c-3.6-1.4-7.4-1.2-11.1-1.2
		c-3.8,0.1-7.3-1.1-11-1.5c-5.7-0.5-11.5-0.6-17-1.9c-7.2-1.7-14.7-1.9-21.8-4c-3.1-0.9-6.3-1.2-9.5-1.6c-3.4-0.5-6.7-2-10.2-1.7
		c-2.9-1.7-6.2-1.3-9.3-2.4c-2.4-0.8-5.3-1.2-7.9,0.3c0,3.8,1.7,6.9,3.2,9.9c6.4,12.5,11.9,25.5,20.6,36.9c3.9,1.1,7.6,2.7,11.4,3.1
		c3.5,0.4,6.8,1.4,10.2,1.7c3.7,0.3,7.4,0.6,11,1.3c3.6,0.7,7.5,0.2,11.2,0.5c3.7,0.2,7.4,1.1,11,1.1c12,0.2,24,0.1,36,0.1
		c6.2,0,12.3-1.9,18.5-1.5c0.2,0,0.5,0,0.7-0.1c4.6-2.1,9.9-0.6,14.5-2.6c6.7-0.2,13.1-2.3,19.7-3.5c7-1.2,13.8-3.6,20.6-5.7
		c14.8-4.7,29.3-10,42.9-17.6c11-6.2,21.8-12.6,32.4-19.4c16.9-10.9,33.2-22.6,48.4-35.8c3.6-3.1,7.2-6.1,10.9-9.1
		c4.4-3.6,8.9-7.1,13.2-10.9c6-5.2,11.7-10.8,17.9-15.9c7.3-5.9,14.4-12.2,23.4-15.5c2,0,3.9,0,5.8,0c0.8,1,1.4,1.7,2,2.4
		C452,559,452,562,452,564.7z M437,569.8c-1.2,0.2-2,0.2-2.5,0.5c-4.2,3.2-8.3,6.3-12.1,10c-14.5,14.1-28.3,28.9-42,43.8
		c-0.3,0.4-0.7,0.7-1,1.1c-6.4,7.3-12.7,14.7-19.3,21.8c-7,7.5-14.4,14.6-21.6,21.9c-8.8,8.9-18.5,16.6-28.9,23.5
		c-15.2,10.2-31,19.2-47.9,26.5c-14.9,6.4-30,12.3-45.7,16.6c-9.7,2.6-19.4,5.4-29.4,6.8c-3.2,1.8-6.9,0.8-10.2,1.8
		c-4.3,1.3-8.8,1.1-13.1,2.4c-7.7-0.3-15.2,2.2-22.9,1.8c-0.8,0.8-1.4,1.5-1.9,2.1c12.2,13,30.2,30.9,35.3,35.1
		c4.2,0.2,8.4-0.6,12.5-1c6.1-0.7,12.3-0.5,18.5-1.6c6.3-1.2,12.6-2.3,18.7-4.1c16.4-4.7,32-11.3,46.7-20
		c15.2-9.1,29.4-19.5,42.3-31.4c13.4-12.3,26-25.5,37.3-39.8c8-10.1,15.7-20.5,23.3-30.9c6.8-9.2,12.8-18.9,20.6-27.3
		c2.6-2.8,5.3-5.1,8.7-6.6c0.6-0.3,1.4,0,2.1,0c0.6,2.5,1.5,4.8,1.8,7.2c0.3,2.2,0.1,4.5,0.1,6.7c0,12.2,0.2,24.5-0.1,36.7
		c-0.2,7.6,0.5,14.8,4.4,21.5c4.5,14,12.9,25.6,23.1,35.9c5.6,5.7,11.7,10.8,18.4,15.2c11,7.2,22.7,12.9,35.1,17.3
		c11.4,4,22.8,7.7,34.9,9.2c7.7,2.8,16,2.5,24,4c4.8,0.9,9.8,0.5,14.8,1.4c4.6,0.8,9.5,0.3,14.2,0.5c4.9,0.3,9.9,1,14.8,1.1
		c7.2,0.2,14.5,0.2,21.7,0.2c7.2,0,14.5,0,21.7,0.1c7.5,0,15,0.3,22.5,0c7.3-0.3,14.3,1.3,21.5,1.3c6,0,12,0.2,18,0.3
		c1.2,0,2.7-0.3,3.7,0.2c3.4,1.5,6.9,1.2,10.3,1.1c7-0.3,13.8,2.1,20.8,1.8c5,1.9,10.3,1.2,15.9,1.6c3.6-3.1,7.4-6.2,11-9.6
		c4.7-4.5,9.2-9.1,13.8-13.8c2.8-2.8,5.6-5.7,8.2-8.7c0.7-0.8,0.8-2.2,1.1-3.2c-0.9-0.8-1.3-1.5-2-1.7c-3.5-1.3-6.9-3-10.5-3.4
		c-5.9-0.7-11.7-2.2-17.7-2c-9.2,0.4-18.5,0.2-27.7,0.3c-1.2,0-2.6-0.3-3.7,0.2c-3.8,1.6-7.9,0.9-11.8,1.2c-6.4,0.5-12.8,2-19.3,1.6
		c-0.2,0-0.5-0.1-0.7,0c-3.3,1.7-6.8,1-10.3,1.3c-1.2,0.1-2.5-0.1-3.7,0.2c-6.4,1.5-12.9,0.7-19.2,1.7c-6.2,1-12.4,0.9-18.6,1.2
		c-2,0.1-4.1-0.3-6,0.2c-4.7,1.4-9.4,1-14.1,1.1c-5,0.1-10,0.1-15,0.1s-10,0-15,0c-5,0-10-0.2-15-0.1c-5,0.1-9.9-0.8-14.8-1.2
		c-5.9-0.6-11.9,0-17.8-1.5c-3.5-0.9-7.3-0.4-11-1.4c-3.7-1-7.8-0.7-11.7-1.7c-5.7-1.5-11.7-2-17.3-3.6c-13-3.8-25.8-8.2-37.7-14.8
		c-11.1-6.1-20.4-14.3-28.3-24c-5.6-6.9-9.1-15.2-12-23.7c-2.1-6.1-3-12.5-3.6-18.8c-0.6-5.9-0.3-12-0.1-18
		c0.2-4.2,0.9-8.4,1.6-12.5c1.4-8.2,3.3-16.4,6.4-24.2c3.8-9.6,7.5-19.2,11.4-28.8C436.6,575.9,437.3,573.4,437,569.8z"/>
	<path class="st1" d="M1447.8,274.8c-7.8-7.9-16.5-15.2-22.8-24.4c-8.3-1.5-14.8,1.5-20.7,6.5c-4.4,3.8-7.6,8.6-10.2,13.6
		c-3.2,6.1-6.1,12.4-9.2,18.6c-0.8,1.5-1.5,3.2-2.5,4.5c-3.7,5.1-6.8,14.8-7.9,20.6c-1.3,7.4-3.4,14.4-7.4,20.7
		c-5,8-10.1,15.9-16.7,22.7c-1.7,1.8-3.6,3.4-5.4,5.1c-5-0.8-9-3.3-13-5.8c-12.5-7.9-20.4-19.4-24.9-33.2
		c-2.9-8.9-5.1-18.1-4.9-27.6c0.1-3.7,0-7.5-0.1-11.2c0-2,0-4,0-5.6c2.9-6.9,6.4-12.8,10.9-18.2c1.4-1.7,2.7-3.6,3.9-5.4
		c2.7-4,4-8.6,4.5-13.2c0.5-4.9,1.6-9.8,2-14.7c0.4-4.6,1.3-9.3,2.2-13.9c0.8-4.2,1.3-8.3-0.3-12.5c-0.6-1.6-0.7-3.3-1.1-5.4
		c-1.1,0.4-2,0.6-2.8,1c-7.5,3.7-15.1,7.3-22.5,11.2c-9,4.7-17.6,10-25.8,16.1c-5.5,4.2-11.5,7.6-17.7,10.8c-2.4,1.2-4.9,2.4-7.1,4
		c-4.2,2.9-7.1,7-8.9,13c0.3,5.3-1.4,11.6-1.6,18.1c-0.1,6.3,2,12.3,1.3,18c1.7,6,4.1,11.1,5.2,16.7c0.4,2.2,0.7,4.4,1.1,6.6
		c0.3,1.9,1,3.8,1.2,5.8c1.2,11.2,2.3,16.9,6.2,28c1.9,5.3,4.2,10.5,6.7,15.6c1.8,3.6,2.8,7.5,3.3,11.3c0.7,5.5,2.8,10.4,4.7,15.5
		c4.1,10.5,8.2,21.1,12.1,31.7c3.1,8.3,5,16.9,6.3,25.8c2.4,17.2,3,20.9,2.8,33.3c-0.1,3.2-0.5,6.4-1.5,9.5
		c-3.8,10.8-9.1,20.8-16.4,29.7c-3.2,3.9-7.2,6.8-12.7,8.5c-1.9,0-4.4,0-6.8,0c-0.6-0.2-1-0.4-1.5-0.6c-9.8-3.3-15.8-10.8-21.3-18.9
		c-2.4-3.6-3.5-7.7-4.2-11.7c-1.8-10.8-7.2-19.3-14.5-27c-5-5.2-9.7-10.7-13.7-16.7c-4.1-6.2-7.9-12.6-10.2-19.7
		c-1.1-3.5-2.1-7.2-2.1-10.8c-0.1-5.6-2.3-10.6-4-15.7c-0.3-0.9-0.7-1.8-1.2-2.7c-4.3-7.7-5.7-16.1-7.3-24.7
		c-1.8-9.9-2.5-20-5.5-29.7c-0.6-9-4.6-17.1-6.8-25.6c-0.2-0.7-0.7-1.4-0.7-2.1c-0.6-5.4-1.4-10.8-1.5-16.3
		c-0.3-13.5-0.2-27-0.3-40.5c0-3.7-0.5-7.7,0.5-11.2c1-3.6,0.4-7.5,2.4-10.8c0.3-5.4,1.9-10.7,1.9-16.2c0.1-7.6,2-15,3.9-22.5
		c2.9-11.5,7.5-22.3,11.1-33.6c1.2-3.7,3.3-7.1,5-10.7c1.8-3.7,4.6-6.4,8.3-8.2c3.8-1.8,7.7-3,11.9-3.8c4.2-0.8,8.5-0.7,12.4-1.7
		c4.2-1.1,8.5-0.4,12.5-1.3c6.6-1.4,13.4-0.6,20-1.6c7.7-1.2,15.4-0.8,23.1-1.1c3.7-0.2,7.5,0,11.1-0.7c3.5-0.7,7.2,0.1,10.3-1.1
		c3.5-1.3,7.5-0.3,10.8-2.5c13.7-2,26.8-6.2,39.8-10.8c4.2-1.5,8.2-3.2,12.1-5.3c5.8-3.2,12.3-4.9,18.7-6.6
		c9.3-2.4,18.7-4.3,27.7-7.6c3.5-1.3,6.9-2.7,10.3-3.9c6.3-2.1,12.7-3.9,19.5-3.8c3.9,0,7.9-0.7,11.8-1c3.7-0.2,7.5-0.2,11.2-0.3
		c1.2-0.1,2.4-0.4,3.6-0.6c2.2-0.3,4.4-0.9,6.6-0.9c10.5,0,21,0.1,31.5,0.2c3.5,0,6.7,1.6,10.3,1.4c3.4-0.2,7-0.1,10.2,1.3
		c7.2,0.3,14,2.6,20.8,4.6c6.6,1.9,13.1,4.2,19.5,6.7c9.6,3.8,19.1,8,28.2,12.8c9.7,5.1,18.9,10.8,27.4,17.7
		c4,3.3,7.5,7.3,11.1,11.2c2.2,2.3,4.1,4.9,6.3,7.3c6.7,7.4,13.6,14.6,20.2,22c3.6,4.1,6.8,8.4,9.3,13.3c6,11.6,11,23.7,15.9,35.8
		c3.3,8.2,6.3,16.5,7.9,25.3c0.9,4.6,2.1,9.1,2.7,13.8c0.5,4.4,1.5,8.7,2.3,13.1c0.1,0.5,0.3,1,0.3,1.4c-0.2,6.2,2.2,12.2,1.8,18.5
		c2.2,10.6,1.3,21.3,1.5,32c0.2,10.7,0,21.5-0.1,32.2c0,2.5,0.3,5.1-0.3,7.5c-1,3.4-0.8,6.9-1.6,10.3c-0.8,3.3-2.1,6.6-3.2,9.8
		c-3,8.6-6.5,17-9.9,25.4c-0.5,1.1-1.1,2.2-1.4,3.4c-2.2,8.2-7.6,13.6-14.3,18.3c-6.9,4.9-13.9,9.5-20.4,15c-3.3,2.9-7.3,5-11.2,7.1
		c-6.7,3.7-13,8.1-19,12.9c-14.8,11.7-29.9,22.9-45.4,33.6c-5.7,3.9-11.7,6.2-18.7,6.1c-6.7-0.1-13.5-0.1-20.2,0
		c-4.1,0-7.7-1.2-11.1-3.5c-3.1-2-6.3-3.8-9.7-5.8c-5.1,1.8-9.7,4.6-14.5,7.2c-5,2.7-9.9,5.6-14.8,8.5c-5.8,3.4-11.7,6.5-17.2,10.2
		c-9.6,6.5-20.2,9.9-31.5,12c-4.8,0.9-9.7,1.6-14.5,2.5c-7.7,1.5-15.3-0.3-22.6-3c-7.1-2.6-14.1-5.7-21-8.9c-4.2-2-8.3-4.5-12.2-7
		c-5-3.2-10.3-6-16-7.6c-6.9-1.9-11.9-5.6-15.5-11.7c-2.1-3.6-3.9-7.4-5.2-11.4c-1.1-3.6-1.1-7.4,0.1-11
		c3.9-12.2,7.8-24.4,15.8-34.8c3.2-4.1,6.3-8.3,9.9-12.1c9-9.3,18.3-18.5,27.5-27.6c2.6-2.6,5.5-5,8.6-7.2
		c8.4-5.9,15.6-13.1,23.2-19.9c9.7-8.6,18.9-17.8,27.9-27.1c4.3-4.4,8.4-9.2,10.5-15.2c1.4-3.9,2.5-8,3.3-12.1
		c1.1-5.8,2.1-11.7,1.8-17.7c-0.1-2.2,0.2-4.4,0.8-6.6c0.6-2.1,0.6-4.5,0.1-6.7C1447.4,291.6,1448.5,283.6,1447.8,274.8z
		 M1539.3,452.2c1.8-1.7,3.4-3.7,5.5-5c8.1-5.6,16.6-10.7,25.7-14.5c3.4-1.4,6.9-2.7,10.4-3.8c10.3-3.3,19.3-9,26.7-16.8
		c4.1-4.3,7.9-9,10.9-14.1c7.5-12.7,15.1-25.4,20.7-39.2c2.5-6.2,4.8-12.4,6.2-18.9c1.4-6.5,2.6-13.1,2.4-19.9
		c-0.1-2-0.2-4.1,0.4-5.9c1.2-3.9,1.2-8,0.5-11.8c-1.1-6.2-0.6-12.4-1.1-18.6c-0.3-3.4,0.1-6.9-1.1-10.3c-1.2-3.4,0.1-7.5-1.7-10.9
		c-0.8-7.9-3.2-15.3-6-22.8c-4-10.6-9.9-19.9-17.5-28.2c-6.5-7.2-14.1-13.2-21.8-19.3c-10.1-8-20.4-15.8-31-23.1
		c-11-7.6-22.3-14.6-34.2-20.6c-6.2-3.1-12.4-6-18.6-9.1c-4.2-2.1-8.6-3.7-13-5.1c-3.3-1-6.6-1.8-10-2.3c-6.3-0.8-12.4,0.7-18.4,1.9
		c-11.2,2.2-27.3,7.8-38.6,12.2c-8.7,3.4-17.3,7-25.9,10.7c-13.4,5.7-26.3,12.5-38.6,20.2c-0.8,0.5-1.5,1.3-2.4,2.1
		c0.6,8.4-0.6,16.7,1,25.2c1.1,6,0.5,12.3,1.8,18.5c0.6,3.1,1.3,6.2,2.5,9.4c1.5,0,3,0.3,4.4-0.1c2.9-0.6,5.7-1.4,8.5-2.4
		c10.8-3.7,20.6-9.4,30.3-15.3c13.2-8.2,26.9-15.6,41.7-20.6c3.5-1.2,6.9-2.5,10.3-3.7c2.4,1.8,4.7,3.3,6.8,5
		c3.6,3,7.5,5.9,10.6,9.3c3.5,3.8,6.6,8.1,9.4,12.5c3.4,5.4,6.2,11.2,9.3,16.8c2.7,5,5.5,9.9,8.3,14.9c4.3,7.5,8.6,15,12.8,22.2
		c0,2.9-0.1,5.4,0,7.9c0.2,2.7,0.9,5.4,1,8c0.2,7,0.3,14,0.2,21c-0.1,6.6-2.1,12.6-5.7,18.1c-2.2,3.4-4.8,6.4-7.6,9.2
		c-6,6-12.1,11.9-17.9,18.1c-7.1,7.6-14,15.5-20.9,23.4c-4.3,4.8-8.7,9.6-12.7,14.7c-7,8.7-13.9,17.5-20.5,26.4
		c-5.6,7.5-10.9,15.3-14.8,23.9c-0.2,0.4,0,1,0,1.8c0.4,0.5,1.1,1.3,1.5,1.8c4.3-0.1,7.8-0.2,11.6-1.1c4.8-1.2,9.4-2.9,14.1-4.3
		c9.9-3,19.9-6,30.5-5.1c2.2,0.2,4.3,0.7,6.5,1.3c4.7,1.3,9.1,4,13.5,3.4c6.1,2,10,5.9,14,9.7c2.7,2.6,5.1,5.5,8.6,6.7
		C1532.1,456.8,1535.5,453.9,1539.3,452.2z"/>
	<path class="st2" d="M2578.9,592.4c-2.4-1.8-4.9-3.5-7.2-5.3c-0.7-0.6-1.3-1.4-2.1-2.3c4-6.2,7.9-12.1,11.8-18.2
		c6.6-10.4,13.3-20.8,18.8-31.9c2.4-4.9,5.3-9.5,7.7-14.4c9.5-19.2,16.7-39.4,23.3-59.8c1.2-8.1,4.3-15.7,4.8-23.9
		c2.3-4.1,1.1-8.8,2.2-13.1c1.1-4,0.8-8.4,0.8-12.6c0-3.7,1.6-7.2,1.3-11c-0.3-3.7,0-7.5-0.1-11.2c0-1.7-0.3-3.4-0.6-5.1
		c-1.2-6.7-5.6-11-10.7-14.6c-4.5-3.1-9.2-5.7-14-8.3c-6.3-3.5-12.5-7.1-18.2-11.4c-4.2-3.2-8.1-6.7-10.2-11.7c0-2.2,0-4.4,0-6.2
		c2.1-3.8,5.2-5.8,8.6-7.4c9.6-4.5,19.5-8.1,29.8-10.7c3.1-0.8,6-2.1,8.7-3.1c2.2-3.9,3.3-7.5,3.9-11.5c0.7-4.9,1.4-9.7,2.4-14.6
		c0.6-2.6,0.8-5.6,0.2-8.2c-1.1-5.3-2.2-10.6-3.2-15.9c-0.7-3.6-1.7-7.2-2.4-10.8c-0.7-3.6-1.1-7.3-1.7-11c-0.4-2.2-1-4.3-1.3-6.5
		c-0.3-2.2-0.6-4.3-1.2-6.5c-1-3.5,0-7.5-1.7-10.9c-0.6-7.7-2.5-15.2-1.8-23c0.2-1.7,0.3-3.5,0.7-5.1c1.6-6.2,4.9-11.3,10.8-14.4
		c3.1-1.6,6-3.5,8.8-5.5c20.3-13.7,35.3-31.8,45-54.2c2.1-4.7,3.7-9.7,5-14.6c2.1-7.8,5.5-14.8,10.5-21.3c1.8-1.3,3.9-2.7,6.3-4.4
		c3.6,0,7.6-0.1,11.6,0c9.2,0.3,16.7,4.1,22.6,11.1c2.2,2.7,3.7,5.8,4.7,9.2c1.3,4.2,2.3,8.5,3.1,12.9c1.9,10.2,3.4,20.4,5.9,30.4
		c1,3.8,2.3,7.5,3.6,11.5c1.9,0.9,3.9,1.7,5.8,2.7c8.9,4.3,17.7,8.8,26.7,12.9c6.6,3,11.5,7.7,15.1,13.9c2.5,4.3,5,8.5,6.3,13.4
		c0.4,1.7,0.9,3.3,0.9,5.1c0,11.2,0,22.5-0.1,33.7c0,3.5-1.5,6.7-1.3,10.3c0.2,3.4,0.1,6.9-1.2,10.3c-0.3,0.9-0.2,2-0.2,3
		c0.3,6.7-2.1,13.3-1.8,20c-1.5,3.5-0.9,7.4-1.6,11c-0.7,3.7-1,7.3-1.5,11c-0.6,5.1-1.8,10.1-2.8,15.3c8.1,4.9,16.5,9.1,24.8,13.4
		c4.6,2.4,9.4,4.7,12.5,9.4c0,1.6,0,3.3,0,5.4c-2.4,3.4-5.6,6.4-9.4,8.8c-9.8,6.3-19.4,12.8-29.1,19.2c-1.6,1.1-3.2,2.3-5,3.6
		c0.6,5.8-1.4,11.3-1.2,17c0.2,5.5,0,11-0.1,16.5c-0.2,7.7-0.1,15.4-1,23.1c-0.9,7.9-0.4,16-0.4,24c-0.1,7.7,0.5,15.6-0.4,23.2
		c-1,9-0.7,17.9-0.9,26.8c0,1.2,0.1,2.4,0.2,3.9c1.1-0.3,1.9-0.3,2.4-0.7c8.3-7.2,15.3-15.5,20.9-25.1c6.6-11.4,11.2-23.6,15.2-36
		c4.3-13.1,7.6-26.4,10.9-39.8c1.9-7.6,2.9-15.5,5.6-22.9c0.2-5,2-9.6,3-14.4c0.9-4.6,2-9.2,2.7-13.7c0.6-4.1,1.7-8.2,2-12.4
		c0.2-3.2,1-6.3,1.4-9.5c0.4-3.2-0.3-6.5,1.3-9.6c0.4-0.8,0.1-2,0.1-3c0.1-6.2,0.1-12.5,0.3-18.7c0.2-5.3-1-10.3-2.8-15.2
		c-1.9-5.3-3.7-10.7-5.6-16c-0.5-1.4-0.7-2.8-1.1-4.4c3.2-3.7,6-7.4,11.2-9.1c10.6,0,21.6,0.1,32.6,0c5.7-0.1,11.4,0.2,17.1-0.9
		c4.6-0.9,9.5-0.2,14.2-0.4c4.7-0.2,9.4,0,14.1-1.1c3.8-0.9,8-0.2,12-0.5c4.9-0.3,9.9,0.6,14.8-1.1c1.6-0.5,3.6-0.5,5.2,0
		c4.4,1.4,9,0.4,13.2,1.6c4.1,1.1,8.2,1.5,12.2,2.7c3,0.9,6,2.1,8.8,3c0.9,1.6,1.7,2.8,2.3,3.9c0,4.3,0.1,8.3,0,12.3
		c-0.1,4.2-1.2,8.3-1.9,12.5c-0.8,5.3-1.8,10.7-2.8,16c-1.1,6-2.4,12-3.6,18.1c-1.1,5.3-2.5,10.6-3.4,15.8c-1,5.6-2.7,11-3.7,16.6
		c-0.8,4.1-1.6,8.2-2.5,12.3c-0.5,2.4-1.1,4.8-1.4,7.2c-0.3,2.2-0.8,4.3-1.3,6.5c-1,4.6-0.9,9.4-2,13.9c-2.1,8.9-1.2,17.8-1.3,26.8
		c0,3.5,0.6,6.9,1.3,10.3c0.7,3.4-0.3,7,1.4,10.3c0.2,0.4,0.1,1,0.2,1.5c0.1,7.7,2,15.2,3.4,22.7c1.7,9.4,3.8,18.8,7.2,27.8
		c2.9,7.7,6.3,15.1,12.7,20.7c2.9,2.5,5.9,4.4,9.9,4.5c1.9,0.1,3.8,0.8,5.8,1.1c3.5,0.6,6.8-1.1,10.3-1.2c3.4-0.2,5.9-2.3,8.6-4.1
		c3.5-2.3,7-4.5,11.2-5.7c2.5-0.7,4.9-0.7,7.3-1c1.7-0.2,3.2-1.7,5-1c4.4,1.6,9.3,1,13.7,2.8c8.3,3.4,13.9,9.6,17.2,17.7
		c2.1,5.2,3.5,10.7,3.3,16.6c-0.3,8.5-3.2,15.9-8.4,22.5c-1.6,2-3.8,3.3-6,4.4c-7.2,3.7-14.8,6.7-22.5,9.2
		c-7.5,2.4-15.2,4.2-22.9,5.6c-4.5,0.8-9.4,0.8-14.1-0.5c-3.6-1-7.3-0.9-10.9-1.9c-9.8-2.7-19.1-6.2-28-11.3
		c-11.4-6.5-21.3-14.7-29.8-24.5c-6.4-7.3-11.5-15.4-15.2-24.4c-2.4-5.8-3.3-11.8-5.4-17.6c-0.2-0.5-0.1-1-0.1-1.5
		c0.3-8-1.9-15.8-1.6-23.8c0.3-8-0.4-16.1,0.3-24c0.6-6.7,0.4-13.4,1.4-20c1.6-10.4,1.8-21.2,5.5-31.2c0-4.7,1.9-9.2,1.9-14
		c0-4.2,0.9-8.3,1.2-12.5c0.3-4-0.3-8.1,0.5-12c1.4-6.7,0.8-13.4,1.2-20.1c0.3-5.4,0.4-10.9,1-16.3c0.8-7.7,0.4-15.5,0.2-23.2
		c-0.1-2.7-1-5.3-1.5-8c-3.6-4.3-3.6-4.3-8.5-6.7c-9.2-0.9-17.9,0.4-27,3.4c-1.5,1.4-3.4,3-5.2,4.7c-2.6,2.5-4.1,5.5-4.3,9.2
		c-0.2,2.7-1,5.3-1.2,8c-0.3,2.7,0.2,5.6-0.4,8.2c-1.4,7.1-0.7,14.4-1.6,21.5c-0.7,5.7-0.8,11.4-1.4,17c-0.3,3.2-1.3,6.3-1.3,9.5
		c0,3,0.1,6-1.3,8.8c0.4,6-1.8,11.8-1.8,17.8c0,2.7-0.9,5.3-1.3,8c-0.4,2.4-0.2,4.9-1.1,7.3c-1.2,3.2,0,7-1.8,10.2
		c-0.4,6.9-2.1,13.7-3.3,20.4c-1.7,9.2-3.7,18.3-6.6,27.2c-2.8,8.5-7,16.3-12,23.7c-7.6,11.2-16.1,21.6-26,30.7
		c-5.3,4.9-11.4,8.8-17.5,12.6c-1.4,0.9-3.2,1.2-5.3,1.9c-3.7-1.7-7.4-4.1-10.8-7c-3.9-3.5-8-6.8-12-10.1c-0.3-0.3-0.9-0.3-1.7-0.5
		c-1.8,4.2-3.9,8.2-5.4,12.6c-4.8,13.6-11.7,26.2-20.2,37.8c-4.7,6.4-9.8,12.6-16.6,16.9c-2.5,1.6-5.1,3-7.6,4.5
		c-5.6,0-11.2,0.4-16.6-0.1c-8-0.8-15.4-3.4-20.7-10.1c-1.6-2-2.9-4.1-3.6-6.4c-1.4-5-2.6-10-3.4-15.1c-1.3-8.7-1.2-17.4-1.5-26
		c-0.1-1.5-0.6-2.9-0.8-4.3c-0.2-1.5-0.2-2.9-0.3-4.7c1.1-0.7,2-1.5,3.1-1.9c9.1-3,18.2-6.1,26.8-10.5c4.9-2.5,9.3-5.5,14-8.4
		c5.9-3.7,9-9.2,11.1-15.3c1.1-3.2,1.8-6.6,2.2-10.1c0.5-4.4,1.3-8.8,1.6-13.2c0.3-4.4,1.3-8.8,1.2-13.3c-0.1-4.5,0.1-9,0.1-13.5
		c0-4.5,0.1-9,0-13.5c0-6.5-0.3-13-0.1-19.5c0.2-6-1.9-11.8-1.7-17.8c-2.3-8.8-4.5-17.6-8.4-25.9c-0.4-0.9-0.8-1.8-1.3-2.6
		c-0.5-0.8-1.3-1.5-2-2.4c-1.5-0.7-3.1-1.4-4.7-2.1c-8.7,0.3-17.3-2.3-26-1.8c-5.8-1.8-11.9-0.9-17.8-1.5c-4.7-0.5-9.3-1.4-14-1.2
		c-1,0.1-1.9,0.1-2.8,0.1c-3.8,5.8-2.1,11.7-0.5,17.3c1,3.6,3.6,6.5,7.2,8.1c2.9,1.3,5.9,2.5,9.1,2.9c5.7,0.7,10.1,2.2,14.8,4.5
		c6.5,3.2,10.7,8.4,13.7,15c2.4,5.2,3.5,10.7,5.4,16.1c0.2,0.7,0.2,1.5,0.3,2.2c0.2,3,0.7,5.9,1.2,8.8c0.9,5.7-0.3,11.3-2.6,16.6
		c-0.7,1.6-1.7,3-2.6,4.6c-1.6,0.9-3.3,1.9-5,2.8c-5.1-1.6-10.1-3-14.7-5.3c-5.9-3-12.1-5.4-18.3-7.8c-0.9-0.3-1.9-0.4-3.2-0.7
		c-1.9,3-3.9,5.8-5.5,8.8c-5.1,9.8-9.5,20.1-13.5,30.4c-5.7,14.8-12.8,28.8-20.6,42.6c-5.3,9.5-11,18.8-17.2,27.7
		c-5.1,7.4-10.4,14.5-16.7,21c-5.8,6-12.4,10.8-19.4,15.1C2592.4,586.7,2586.7,590.6,2578.9,592.4z M2774.3,300.2
		c-0.2-10.2-0.3-20.7-0.5-31.2c0-1,0.1-2.1-0.3-2.9c-1.5-2.8-0.7-5.9-1.1-8.8c-0.4-2.9-1.1-5.8-1.3-8.7c-0.3-4.5-1.5-8.7-2.3-13.1
		c-1.3-7-3.8-13.7-6.3-20.4c-3.1-8.1-6.8-15.8-12-22.8c-4.7-6.3-10.6-9.3-18.2-9.5c-4-0.1-8-0.1-12-0.3c-2.4-0.1-5-1.3-7.2-0.8
		c-4.7,1.2-9.4,0.8-14.1,1c-2.8,0.1-5.3,0.7-8,1.5c-7.2,2.1-11.1,7.4-12.6,14.2c-0.8,3.8-2.2,7.6-1.8,11.7c0.4,4.2-1.1,8.3-1.2,12.5
		c-0.2,8.7,0,17.5-0.2,26.2c-0.1,8.7,2,17.3,1.6,26c1.4,3.8,1,7.9,1.7,11.7c0.4,1.9,0.9,3.8,1.2,5.8c0.3,1.9,1,3.8,1.3,5.7
		c0.9,6.4,2.9,12.4,6.8,17.6c1.7,1.2,3.3,2.3,5.1,3.6c4.1-0.5,8,1.7,12.3,1.5c5-0.2,10-0.1,15,0c5.1,0.1,9.8-1.3,13.9-4.3
		c8.7-6.4,18.6-9.7,29-12.4C2766.6,303.1,2770.7,303,2774.3,300.2z"/>
	<path class="st1" d="M2263.7,78.6c9.2-9.1,15.9-13.7,27.4-18.8c3,0,6.3-0.3,9.5,0.1c6.1,0.7,11.7,3,15.2,8.1
		c4.2,6.1,8.3,12.2,10.2,19.6c0.5,2,0.9,3.8,0.9,5.8c0.1,7.7,0.1,15.5,0.1,23.2c-0.1,21.2-0.4,42.5-0.3,63.7c0,6-1.4,11.8-1.3,17.8
		c0.1,5.7,0.4,11.6-0.4,17.2c-1,6.5-1.5,13.1-3.9,19.5c-2.7,7.1-4.2,14.7-5,22.3c-0.3,2.9-1,5.8-1.4,8.8c-0.3,2.7,0,5.4-1.2,8
		c-0.5,1-0.2,2.5-0.2,3.7c0,13.7,0,27.5,0.1,41.2c0,3.4,0.9,6.8,1.2,10.3c0.3,3.5-0.3,7.1,0.5,10.5c1,4.2,0.9,8.4,1.3,12.6
		c0.3,3.2,0.9,6.3,1.3,9.5c0.4,3.2-0.5,6.5,1.3,9.5c0.2,0.4,0.1,1,0.1,1.5c-0.4,7,1.9,13.8,1.9,20.8c0,2.9,0.9,5.8,1.3,8.8
		c0.3,2.7,0.5,5.3,1.2,8.1c1,3.8,0.5,7.8,1.6,11.7c0.8,2.5,0.4,5.3,1.4,8c0.9,2.2,0.1,5,1.6,7.2c0.1,0.2,0.1,0.5,0.1,0.7
		c-0.2,6.5,1.7,12.8,1.7,19.3c-0.2,14.2-0.2,28.5,0,42.7c0.1,7.5-1.1,14.9-1.9,22.3c-1,9-3.9,17.7-7.6,26.1
		c-4.2,9.5-9.7,18.3-15.3,27c-3.3,5.2-7.1,10.2-10.4,15.4c-2.4,3.9-5.5,7-9.3,10.2c-1,0.1-2.2,0.1-3.4,0.2
		c-4.6-1.8-7.8-5.2-10.6-9.1c-6.7-9.2-12.5-19-17.5-29.2c-3.3-6.6-6.3-13.4-6.7-21c-1.5-3.5-0.9-7.4-1.6-11
		c-1.3-6.2-0.6-12.4-1.6-18.5c-1.6-9.7-0.9-19.4-1.3-29.1c-0.1-3.7-0.6-7.4-1-11.1c-0.4-3.7-0.2-7.5-0.2-11.2c0-6.5-0.2-13,0-19.5
		c0.1-4.9-0.6-9.9,1.1-14.8c0.5-1.4,0.3-3,0.2-4.5c-0.5-7.3,2-14.3,1.8-21.5c1.5-3.8,0.8-7.9,1.6-11.7c0.9-3.9,1-7.8,1.4-11.8
		c0.2-2.7,1.5-5.2,1.3-8c-0.1-2.7-0.1-5.5,1.3-8c0.1-0.2,0.1-0.5,0-0.7c-0.4-6,1.8-11.8,1.9-17.8c0-2.7,0.9-5.3,1.2-8
		c0.3-2.4-0.2-5,1.1-7.3c0.3-0.6,0.2-1.4,0.3-2.2c0.6-5.9,1.2-11.8,1.7-17.8c0.3-3.2,1.7-6.2,1.5-9.5c-0.2-2.9-0.1-6,1.2-8.8
		c0.2-0.4,0.1-1,0.1-1.5c-0.3-6.5,2-12.7,1.9-19.3c-0.1-3.4,1.4-6.7,1.3-10.3c-0.1-3.2-0.3-6.5,1.2-9.5c0.2-0.4,0.1-1,0.1-1.5
		c-0.1-13,2-25.8,1.7-38.8c-0.4-16.7-0.2-33.5-0.3-50.2c-1.9-12.9-0.9-25.9-1.2-38.8c-0.2-13-0.2-26-0.3-39
		C2263.7,79.9,2263.7,79.4,2263.7,78.6z"/>
	<path class="st2" d="M3372.6,587.2c0-10.8-0.6-21.3,0.2-31.7c0.6-8.8,1.6-17.7,6.7-25.4c1.5-2.3,2.8-4.7,4.4-6.8
		c2.5-3.1,5.4-5.8,9.8-6.2c0.9-0.1,1.8-0.7,2.4-1c3.2,0.4,6.2,0.7,9.1,1.2c5.8,1.1,11.6,2.1,17.4,3.5c10.3,2.5,20.3,5.8,30.9,7.2
		c3.8,2.3,8.3,1.1,12.4,2.1c4,1,8.4,0.6,12.6,0.7c4.2,0.1,8.5,0.3,12.7-0.2c3.6-0.4,7.3-1.4,10.3-3.6c1.9-2.5,2.5-5.3,3.2-8.2
		c1-4.4,1-8.9,1.4-13.3c0.2-2.7,0.9-5.3,1.3-8c0.4-2.7-0.1-5.5,1.2-8.1c0.5-1,0.4-2.4,0.3-3.7c-0.1-2.8,0.8-5.3,1.4-8
		c0.5-2.4-0.2-5,1.1-7.3c0.2-0.4,0.4-0.9,0.4-1.4c-0.2-10.7,2.3-21.3,1.5-32c-0.3-4.2-1.1-8.3-1.8-13.7c-0.8-1.5-2.2-4.2-3.5-6.6
		c-4.2-2.8-8.6-4.1-13.4-4.5c-6.2-0.6-12.3-1.5-18.5-1.3c-6,0.2-12-0.3-18,0c-6.8,0.3-13.3-1.4-20-1.7c-2.2-1.1-4.4-2.2-6.4-3.2
		c-0.7-1.3-1.3-2.4-2.4-4.2c0-1,0.1-2.7,0-4.5c-0.4-10,3.6-18.3,10-25.6c6.2-7.1,13.8-11.9,23.8-14.8c2.2-0.2,5.5,0.1,8.5-1.4
		c8.7-0.6,17.3,0.1,25.4,3.8c6.1,2.8,12.2,5.3,18.2,8.1c2.7,1.2,5.4,2.4,8.1,3.5c6.4,2.6,12.8,3.6,19.5,1.3c1.4-0.5,3-0.3,4.4-0.4
		c2-0.2,3.9-0.4,5.8-0.9c4.2-1.2,8.3,0,12,2.4c6.8,4.4,12.5,9.8,15.6,18.3c0.1,1.1,0.2,2.8,0.2,4.5c0.1,3-0.6,5.8-1.5,8.7
		c-2.8,8.9-6.3,17.6-9.4,26.4c-3.7,10.2-7.8,20.2-11.5,30.3c-2.9,7.8-6,15.6-8.9,23.4c-4.6,12.2-9.2,24.4-13.9,36.5
		c-0.9,2.3-1.9,4.5-2.8,6.6c0.9,2.1,3,1.8,4.4,2.6c4.2,0,8.3,0.2,12.5-1c3.8-1,8,0.1,11.7-1.7c10.6-1.4,20.5-4.7,30.5-8.5
		c8.5-3.2,17.3-5.6,26.6-5.5c7.1,0.1,13.7,1.5,20.2,4c4.1,1.6,8.2,3.4,12,5.6c4.4,2.6,7.9,5.9,9.8,10.8c0.3,0.7,0.7,1.3,1.4,2.6
		c0,2.4-0.1,5.4,0,8.4c0.3,7.6-2.5,14.1-7,19.9c-2.7,3.5-6.2,6.5-9.8,9.1c-6.3,4.7-13.3,8.5-20.8,11.1c-2.8,0.9-5.6,2-8.5,2.3
		c-7.4,0.7-14.7,2.4-22.2,1.8c-5.5-0.4-10.8,1.6-16.3,1.3c-5.5-0.2-11.1-0.5-16.5,0.4c-6.4,1.1-12.9,0.8-19.3,1.3
		c-3.2,0.3-6.3,0.9-9.5,1.2c-3.2,0.4-6.5-0.4-9.5,1.3c-0.4,0.2-1,0.1-1.5,0.1c-5.8-0.5-11.3,1.7-17,1.9c-3.1,0.1-6.4,1-9.4,1.7
		c-6,1.5-12.1,2.6-18.3,2.6c-8.2,0-16.3,1.7-24.5,1.5c-10.5-0.2-21-0.2-31.5,0.1c-8.9,0.2-17.1-2.2-25.2-5.3
		c-6.4-2.4-12.7-5.4-19-8.2C3375,588.8,3373.9,587.9,3372.6,587.2z"/>
	<path class="st2" d="M1998.2,98.8c3-0.7,5.6,0.2,8,1.6c6.1,3.9,11.6,8.4,15.6,14.6c4.8,7.5,10.3,14.6,15.4,21.9
		c2.9,4.1,4.6,8.6,4.8,13.8c0.3,8.9-2.5,17-5.7,25.1c-2.3,5.7-4.9,11.3-7.8,18.1c0,0.5,0.3,2.4-0.4,3.9c-1.2,2.9-1.1,5.8-1.1,8.8
		c0,12.2,0.1,24.5,0.1,36.7c0,17,0.1,34-0.4,51c-0.2,9.1-1.2,18.2-4.3,26.9c-0.6,1.6-1,3.4-2,4.7c-4,5.2-6,11.3-8,17.4
		c-1.7,5.1-2.6,10.5-3.6,15.8c-0.8,4.1-1.2,8.3-1.8,12.5c-0.6,4.2-0.8,8.4-1.4,12.5c-0.8,5.3-2,10.6-3.4,15.8
		c-2.8,10.7-5.9,21.3-9.8,31.7c-4.2,11.3-8.2,22.7-12.4,33.9c-4.3,11.5-8.7,23-13.2,34.4c-5.1,13.1-9.8,26.3-16.1,38.9
		c-1,2-2.1,3.9-3,5.9c-1.9,4.1-5,6.7-9.5,8.3c-14.8-5-25.8-14.7-32.5-29.1c-2.1-4.5-3.3-9.3-3.3-14.3c0-3-0.1-6-0.1-9
		c0-7.9,2.5-15,6.3-21.8c2.4-4.3,5.2-8.4,7.8-12.6c3.5-5.7,5.9-11.9,8.4-18.1c7.4-19,14.1-38.3,20-57.8c2.9-9.6,6.2-19.2,8.3-29
		c1.5-7,3.4-13.9,3.6-21.2c0.1-2.4,0.9-4.8,1.2-7.3c0.3-2.4-0.1-5,1.3-7.3c0.1-0.2,0.1-0.5,0.1-0.7c-0.4-7,1.5-13.8,1.9-20.7
		c0.4-8.7,1.8-17.3,1.6-26c1.9-6.6,1.2-13.3,1.3-20c0.2-12.5,0.1-25,0-37.5c0-4.2,0.4-8.4-1.2-12.6c-0.6-1.5-0.2-3.5-0.2-5.2
		c0-10.2,0.2-20.5-0.2-30.7c-0.2-7.8,1.3-15.3,1.9-23c0.4-5.6,2.3-11.2,4.6-16.3c3.9-8.6,9.1-16.5,15.4-23.5
		C1989.7,103.2,1990.3,102.9,1998.2,98.8z"/>
	<path class="st2" d="M3486.8,152.1c-4.4-4.1-9.1-7.7-13-12.3c-4.8-5.6-10.8-10.3-15.6-14.8c-5.9-1.8-10.9-2.7-16.2-2.4
		c-11.3,0.7-21.2,4.5-29.1,12.7c-1.2,1.2-2.1,2.7-3.1,4.1c-6.1,8.8-10,18.6-13.5,28.7c-2.6,7.7-4.2,15.6-6.5,23.7
		c-14.9,6.9-30.4,12.4-45.5,19c-1.3,0.6-2.9,0.5-4.3,0.7c-4-1.5-6.7-4.5-9.7-7.1c-3-2.6-6-5.1-9-7.6c3.3-8.1,6.4-15.8,8-24.1
		c0.8-4.3,2-8.6,2.7-13c1-7,2.3-14.1,3.7-21.1c0.9-4.6,2.4-9.1,2.3-13.9c2.2-6,1.4-12.3,1.6-18.7c2.8-5.6,8-8.3,13.7-10.3
		c2.1-0.7,4.3-1.2,6.4-1.6c4.1-0.6,7.8,0.9,11.4,2.6c5.6,2.6,11.1,5.2,16.8,7.6c6.1,2.5,12.6,4.1,19.2,5.2c5.7,1,11.3,1,17,1
		c1.5,0,3.1,0.2,4.4-0.3c4.2-1.8,8.8-0.5,13.1-2.3c3.8-1.6,7.1-3.2,9.1-7c1.1-2.2,2.8-4.1,4-6.3c3-5.4,5.8-10.9,9-16.2
		c3.7-6.2,7.9-12,14.3-15.8c4.5-2.7,9.3-4.3,14.6-4.6c10.8-0.7,19.7,3.8,28.1,9.8c4.2,3,8.2,6.4,12.4,9.5c4.5,3.4,9.6,4.5,15.2,5.1
		c12.9,1.6,25.9,0.4,38.8,1.6c16.4,1.5,32.9,0.6,49.3,1.3c4.2,0.2,8.3,1.5,12.5,1.2c4-0.2,8.1-0.5,12,0.4c5.5,1.2,11.4,0.7,16.7,2.9
		c5,2,10.2,3.6,15.1,5.9c11.4,5.2,21.4,12.3,30.1,21.3c4,4.1,7.4,8.8,10.4,13.6c4.9,7.7,8.8,15.9,11.6,24.7c0.8,2.6,1.9,5.1,2.2,7.8
		c0.7,5.1-1,9.9-4.1,13.9c-4,5.1-8.6,9.7-14.2,13.2c-4.7,2.9-9.8,4.7-15.1,5.8c-5.3,1.1-10.7,1.9-16.2,1.8
		c-8.5-0.2-16.6-1.8-24.7-4.3c-6.4-1.9-12.7-4-18.5-7.1c-2.1-1.2-4.1-2.7-6.1-3.9c0-1.4,0-2.3,0-3.2c4.4-5.3,11.3-7.8,15.1-14
		c0-4.4,0-9.1,0-13.9c-1.8-5.3-5.6-9.2-9-13.5c-3.4-4.5-7.7-7.6-12.2-10.7c-6.5-4.7-14.1-7-21.7-8.8c-3.8-0.9-7.8-1.2-11.7-1.8
		c-14.9-2.4-29.9-0.6-45-1.4c-3.4,2.8-6.7,5.8-10.2,8.6c-8,6.6-15.5,14-24.1,19.8c-5.6,3.8-11.5,6.6-18.2,7.9
		c-2.4,0.4-4.9,1-7.2,1.7C3498.4,155,3492.9,154.5,3486.8,152.1z"/>
	<path class="st3" d="M3241.2,742.2c-2.3,0.7-2.1,1.7-2.2,2.7c-0.1,7.7-0.4,15.5-0.4,23.2c0,16,0.2,32,0.3,48c0,3.2,0.7,6.4,1,9.5
		c0.6,6.4,0.4,12.9,0.6,19.7c-3.4,0.8-6.6,0.4-9.8,0.4c-12.2-0.3-24.4,0.3-36.6-0.8c-0.4,0-0.8-0.5-1.5-1.1c-0.1-1-0.2-2.2-0.2-3.4
		c-0.1-15.5,0-31-0.2-46.5c-0.1-7.9,0.2-15.8-0.8-23.8c-1-8.1-0.3-16.5-0.3-24.7c0-8-0.1-16-0.1-24c-0.1-17-0.1-34-0.1-51
		c0-1.7,0-3.5,0-5.3c0.8-0.3,1.5-0.7,2.1-0.7c20,0,39.9,0,60.2,0c1,1,2.3,1.8,3,3.1c4.3,7.2,8.4,14.5,12.5,21.8
		c5.9,10.3,11.7,20.6,17.6,30.9c4.4,7.7,8.6,15.5,13.2,23.2c5.3,8.9,10.8,17.7,16.3,26.5c0.9,1.4,2.2,2.5,3.4,3.8
		c0.7-0.8,1.2-1.4,2-2.2c0.1-2.4,0.3-5.2,0.3-7.9c0-14,0.6-28-0.4-42c-1-13.9-0.7-27.9-1.3-41.8c-0.2-3.9-1.6-7.8-1.1-11.8
		c0.1-1,0-1.9,0-2.6c0.5-0.5,0.6-0.7,0.8-0.8c0.2-0.1,0.4-0.2,0.7-0.2c15,0,30,0,45,0c0.7,0,1.4,0.2,1.9,0.3
		c0.3,0.4,0.6,0.5,0.6,0.7c0.2,59.2,0.4,118.4,0.5,177.8c-0.6,0.6-1.3,1.2-2.3,2.1c-19.8,0-39.8,0-60,0c-1.1-2-2.3-4.1-3.4-6.3
		c-5.2-10.9-11.8-21.1-18.2-31.4c-8.1-13-16.1-26-24.6-38.8c-4.9-7.4-9.2-15.2-14.7-22.3C3243.8,745.1,3242.4,743.7,3241.2,742.2z"
		/>
	<path class="st0" d="M2199.4,667.1c21.1,0,41.6,0.1,62.4,0.3c1,1.2,2.5,2.3,3.3,3.7c7.6,13,15.1,26.1,22.8,39
		c8.8,14.9,17.7,29.7,26.5,44.6c2.5,4.3,5,8.6,8,12.5c1.5,2,3,3.9,4.7,5.8c0.4,0.5,1.3,0.5,2.2,0.7c0.3-0.8,0.8-1.4,0.8-2.1
		c0.1-8,0.2-16,0.2-24c0-10.5-0.3-21-0.2-31.5c0.1-5.5-1.6-10.8-1.3-16.3c0.2-5.5,0.4-11.1-0.4-16.5c-0.8-5.2-1.1-10.3-1.2-15.6
		c0.8-0.3,1.5-0.7,2.1-0.7c14.7,0,29.5-0.1,44.2,0c0.7,0,1.4,0.2,2.1,0.4c1.3,1.9,0.7,3.9,0.7,5.9c0.1,48,0.2,96,0.4,144
		c0,5.2-0.1,10.4,1,15.6c0.8,3.8,0.2,8,0.2,12.2c-0.4,0.2-1.1,0.6-1.7,0.6c-20.5,0-41,0-61.7,0c-1-2-2.1-3.9-3-5.9
		c-4-8.5-9.1-16.4-13.9-24.4c-9.6-15.8-19.5-31.5-29.4-47.2c-4.1-6.5-8.5-12.7-12.5-19.3c-1.6-2.6-3.7-4.6-5.6-6.7
		c-0.8,0.2-1.2,0.2-1.9,0.4c-0.7,5.3-2,10.5-1.8,16c0.3,8.7-0.5,17.6,0.3,26.2c1.2,13.2,0.5,26.4,1.5,39.5c0.4,5.9,1,11.8,1.1,17.8
		c0,1,0,1.9,0,2.5c-0.6,0.5-0.7,0.7-0.9,0.8c-0.2,0.1-0.5,0.1-0.7,0.1c-1,0-2,0.1-3,0.1c-13.5,0-27,0-40.2,0c-1.2-0.7-2-1.3-2.7-1.7
		c-0.2-0.7-0.5-1.1-0.5-1.6c0-9-0.3-18,0-27c0.3-9.2-1.4-18.3-1.1-27.5c0.3-9,0-18,0-27c0-9.2-0.1-18.5-0.1-27.7
		c-0.1-19.2-0.1-38.5-0.2-57.7C2199.4,673,2199.4,670.5,2199.4,667.1z"/>
	<path class="st3" d="M1759.7,667.4c0,59.7,0,118.6,0,177.4c-0.4,0.3-0.5,0.6-0.8,0.7c-0.2,0.1-0.5,0.1-0.7,0.1c-17,0-34,0.1-51,0.1
		c-0.7,0-1.4-0.2-2-0.3c-1.3-1.1-0.8-2.4-0.8-3.6c0-6.5-0.4-13.1,0.4-19.5c1.8-14.7,0.8-29.4,1.4-44c0.1-1.4,0.5-3-0.6-4.3
		c-0.5-0.2-0.9-0.5-1.3-0.5c-21.7,0-43.5,0-65.2,0c-0.4,0-0.9,0.3-1.3,0.5c-0.2,0.2-0.3,0.4-0.4,0.6c-0.1,0.2-0.2,0.5-0.2,0.7
		c0,23-0.1,46-0.1,69c0,0.2-0.1,0.4-0.2,0.7c-0.2,0.2-0.4,0.3-0.6,0.5c-0.2,0.1-0.4,0.3-0.7,0.3c-15.5,0-31,0-46.5,0.1
		c-1.7,0-3.5,0-4.7,0c-1.6-1.3-1.2-2.7-1.2-3.8c0-20.2,0-40.5,0.1-60.7c0-7.4,1.2-14.8,1-22.3c-0.2-7.2,0-14.5,0-21.7
		c0-7.5,0-15,0-22.5c0-7.2,0-14.5,0-21.7c0-7.5,0-15,0.1-22.5c0-0.7,0.1-1.5,0.2-2.1c0.3-0.2,0.4-0.4,0.6-0.5
		c0.2-0.1,0.4-0.3,0.6-0.3c17.7,0,35.4,0,52.9,0c1.4,1.2,1.1,2.5,1.1,3.7c-0.2,4.9,0.1,9.9-1,14.8c-0.7,3.3-0.2,7-0.3,10.5
		c-0.1,6.5-0.2,13-0.3,19.5c0,4.7-1.7,9.3-1.2,14c0.1,1-0.3,2,0.7,3.1c0.4,0.1,1.1,0.4,1.8,0.4c21.9,0,43.9,0,65.5,0
		c0.6-0.6,0.8-0.7,0.9-0.9c0.1-0.2,0.2-0.5,0.2-0.7c0-0.7,0.1-1.5,0.1-2.2c-0.1-20-0.1-40-0.2-60c0-0.2,0-0.5,0.1-0.7
		c0.1-0.2,0.1-0.5,0.2-0.7c0.2-0.2,0.4-0.4,0.6-0.5c0.2-0.1,0.4-0.2,0.7-0.2C1724.6,667.4,1741.8,667.4,1759.7,667.4z"/>
	<path class="st0" d="M2831,749.3c1.5-0.8,2.8-1.6,4.7-2.7c3.1,0,6.8,0.1,10.6,0c4-0.1,7.7-1.4,11.4-2.8c6.6-2.5,10.2-7.6,12.3-14
		c0.5-1.4,0.8-2.8,1.3-4.5c-0.5-2.4-1.1-5-1.7-7.8c-1-1.5-2.2-3.1-3.3-4.7c-4.5-2.6-9.3-4.2-14.4-5.3c-5.7-1.1-11.3-1.2-17-1.3
		c-5-0.1-10,0-14.7,0c-1.5,1.1-1.1,2.4-1.1,3.6c0,8-0.4,16,0.3,24c1.9,21.9,0.7,43.8,1.4,65.7c1.8,10.6,0.7,21.4,1.5,32
		c0.3,4.4,1.4,8.8,1.2,13.3c-0.4,0.3-0.7,0.9-1.1,0.9c-17.2,0-34.5,0-51.6,0c-1.9-1.5-1-3.3-1-5c-0.1-45.7-0.2-91.4-0.3-137.1
		c0-2.7-0.3-5.5,0-8.2c0.4-4.3-1.3-8.3-1.2-12.5c0.1-4-0.1-8-0.4-12c-0.1-1.9-0.7-3.7-1.2-6c1.3-0.2,2.3-0.4,3.2-0.4
		c13,0,26,0.1,39,0.2c4.2,0,8.3,1.3,12.5,1c4.2-0.3,8.5,0,12.7,0c4,0,8,0,12,0c4.2,0,8.5,0.1,12.7,0.1s8.5,0.3,12.7,0.1
		c5.3-0.3,10.3,1.4,15.9,1.8c3.1,1.7,6.8,3.3,10.1,5.5c12,7.7,19.1,19.1,23.1,32.5c0.6,6.4,2.8,12.7,1.6,19.2
		c-0.7,3.8-1,7.8-2.4,11.5c-1.7,4.5-3.6,8.7-7,12.1c-5.4,5.5-10.7,11.1-17,15.7c-2.4,1.7-4.4,4.1-6.2,5.8c-0.6,2.4-0.2,4,0.7,5.6
		c5,9.3,9.9,18.8,15,28.1c4.7,8.7,9.5,17.3,14.3,25.9c2.3,4.1,4.5,8.2,6.8,12.3c0.7,1.2,0.9,2.2,0.1,3.4c-0.5,0.2-0.9,0.4-1.4,0.4
		c-18,0-36,0-54.3,0c-1.8-0.7-2.2-2.9-2.9-4.7c-4.5-10.6-8.6-21.4-13.3-32c-4.5-10.1-8.8-20.3-12.9-30.6c-3.5-8.7-7-17.3-10-26.2
		C2831.2,751.2,2831.2,750.2,2831,749.3z"/>
	<path class="st2" d="M1858.1,801.8c8.4,4.2,16.6,3.7,24.9,3.3c1.9-0.9,4-1.7,5.9-2.7c7.5-4,11.7-10.4,13.3-18.6
		c0.5-2.6,1.5-5.3,1.4-8c-0.1-8.7,1.8-17.3,1.8-26c-0.1-24.7,0.1-49.5,0.1-74.2c0-2.5,0-5,0-7.8c1-0.2,1.9-0.7,2.8-0.7
		c16.5,0,33,0,49.5,0c0.4,0,0.9,0.3,1.4,0.5c0.9,1,0.5,2.3,0.5,3.5c-0.1,38-0.3,75.9-0.3,113.9c0,6.5-1.6,12.8-1.7,19.3
		c0,2.1-1,4.3-1.9,6.3c-4.5,8.9-11.1,15.7-19.8,20.6c-8.4,4.8-17.2,8.3-26.8,10c-3.8,2.1-8.2,1.3-12.3,2.4c-3.7,1-7.9,0.6-11.9,0.6
		c-8.5,0-17,0.1-25.5-0.3c-4.9-0.2-9.7-1.3-14.6-2.2c-4.6-0.9-9-2.2-13.6-3.4c-12.9-3.4-23.7-9.9-32.1-20.1c-2-2.5-3.5-5.4-5.1-8.1
		c-1.5-2.6-2.7-5.3-4-7.9c0-44.7,0-89.4,0-133.7c0.5-0.5,0.6-0.7,0.8-0.9c0.2-0.1,0.4-0.2,0.7-0.2c15.5-0.1,31-0.3,46.5-0.4
		c1.2,0,2.4,0.1,3.3,0.1c1.3,1.3,1,2.6,1,3.8c0.1,21.5,0.2,43,0.3,64.5c0,4.7-0.7,9.6,0.2,14.2c1,5,0.6,9.9,0.9,14.8
		c0.3,4.7,0,9.5,0.3,14.2c0.6,8.2,3.8,15.2,10.6,20.3C1855.8,799.9,1856.9,800.9,1858.1,801.8z"/>
	<path class="st0" d="M2184.7,843.6c-1.1,0.8-1.9,1.4-2.7,2c-16.3,0-32.6,0-48.5,0c-1.6-0.6-3-1.1-4.8-1.8c-2.7-7.9-5.6-16-8.4-24.1
		s-5.6-16.2-8.4-24.3c-6.2-1-39.8-1.3-64.6-0.5c-7,16-12.3,32.9-19.2,48.9c-2.2,1-4.2,1.7-6.5,1.7c-15.5,0-31,0-46.5,0.1
		c-1.7,0-3.5,0.2-4.9-1.9c0.8-2,1.7-4.2,2.7-6.3c6-13.2,12-26.5,18-39.7c7.1-15.7,14.1-31.4,21.2-47.1c5.2-11.4,10.7-22.7,15.7-34.3
		c6.5-14.9,13.2-29.7,20.1-44.4c0.6-1.3,1.3-2.7,1.9-4c5.9-1.1,41.5-1.3,61.2-0.4c2.4,1.1,3.8,2.9,4.8,5.4
		c3.7,9.1,7.8,18.1,11.3,27.2c2.8,7.1,5.8,14.1,8.6,21.2c5.2,13.3,10.4,26.6,16.1,39.6c5,11.5,9.5,23.2,14.4,34.8
		c6.1,14.5,12,29.1,17.9,43.7C2184.5,840.5,2184.5,841.8,2184.7,843.6z M2081.5,712.6c-3.6,2.1-4.5,6-6,9.3
		c-3.3,7.4-6.2,14.9-9.1,22.5c-1.5,3.9-2.6,7.9-4,12c2.4,0.8,4.5,1.9,6.6,1.9c9.4,0.1,18.8,1.1,28.3-1.7c-0.1-2.2,0.1-4.3-0.6-6.5
		c-1.9-5.8-3.5-11.7-5.5-17.5c-1.8-5.1-3-10.4-5.6-15.2C2084.6,715.4,2083.6,713.6,2081.5,712.6z"/>
	<path class="st0" d="M2667,843.9c-18.8,0-37.3,0-56,0c-3.5-8.1-5.3-16.8-8.2-25.1c-2.9-8.3-5.2-16.8-8.4-24.8
		c-6.5-0.9-30.1-1.1-64.4-0.5c-0.6,0.8-1.6,1.6-1.9,2.7c-2.8,9.2-6.9,17.9-10,26.9c-2.2,6.5-4.9,12.8-7.4,19.6
		c-2.2,0.1-4.4,0.2-6.6,0.2c-4.5,0.2-9-0.2-13.4,0.6c-4.2,0.7-8.4,0.3-12.6,0.5c-4.5,0.2-9-0.2-13.5,0.1c-4.1,0.2-7.6-1.7-12-1.4
		c0.6-1.9,0.8-3.1,1.3-4.2c3.7-8.1,7.4-16.1,11.1-24.2c7.2-15.9,14.4-31.9,21.5-47.8c4.3-9.7,8.7-19.3,13-29
		c6.7-14.8,13.4-29.6,20-44.5c3.1-7,6.1-14,9.2-20.9c0.7-1.6,1.6-3,2.2-4.2c0.6-0.4,0.8-0.6,1-0.7c0.2-0.1,0.5-0.1,0.7-0.1
		c21,0,42,0,62.8,0c3.8,4.5,5.1,9.9,7.1,14.9c2.9,7.3,6,14.5,8.9,21.8c7.2,18,14.2,36.2,21.8,54c5.5,12.9,10.5,26,16.1,38.9
		c3.6,8.4,7,16.8,10.4,25.2c2.2,5.5,4.4,11,6.7,16.4C2667.3,840,2667.8,841.5,2667,843.9z M2579.6,755.5c1.4-2.3,0-3.6-0.5-5.2
		c-3.3-11.3-6.6-22.5-10.5-33.6c-0.9-2.6-1.6-5.2-4-7.2c-1.3,1.8-2.6,3.5-3.7,5.3c-1,1.7-2,3.4-2.7,5.2c-3.9,9.5-7.7,19.1-11.5,28.6
		c-0.7,1.8-1.4,3.7-2,5.5c-0.1,0.3,0.3,0.8,0.4,1.3C2551.7,756,2571.2,756.1,2579.6,755.5z"/>
	<path class="st2" d="M2908.3,151.4c1-0.9,1.5-1.4,2.2-2.2c-3.8-4.9-7.4-9.6-11.1-14.2c-6.5-8.2-12.3-16.6-15.1-26.9
		c-0.4-1.7-1-3.3-1-5c-0.1-4-0.1-8,0-12c0.1-3.3,1.2-6.3,2.7-9.1c6.6-12.2,16.1-17,28.5-20.6c4.7,0,9.4-0.8,14.1,0.6
		c1.6,0.5,3.4,0.4,5.1,0.8c16.1,3.9,31.8,12.6,42.6,27c0,4,0,8.2,0,12.5c0,4.3-1.4,8.2-2.8,12.2c-2.5,7.2-6.1,14-8.3,21.3
		c-1.9,6.3-2.9,12.5-2.2,19.5c0.5,0.4,1.2,1.1,1.7,1.7c7.6,0,14.9,0.7,22.1-0.2c10.4-1.3,20.9-0.8,31.3-1.1c3.7-0.1,7.4-0.7,11-1.1
		c3.7-0.4,7.5-0.2,11.2-0.3c2.5,0,5,0,7.7,0c4.3,2,8.9,4,13.2,6.3c8.9,4.8,16.2,11.4,21.6,20.1c0,3.1,0,6.1,0,8.8
		c-3.1,9.9-9.2,17.1-17.7,23c-10.8-2.9-22.1-5.1-33.1-8.5c-6.9-0.4-13.5-3.2-20.4-3.4c-3.8-1.6-8-0.6-11.7-1.8
		c-4-1.2-8-0.4-11.8-1.3c-7.4-1.7-14.8-1.1-22.3-1.2c-4.7-0.1-9.7-0.6-14.2,0.5c-4.3,1.1-9,0-13.1,2.3c-16.6,2.3-32.7,7-48.9,10.8
		c-2.6,0.6-5.1,1.8-8.5,3c-0.8,0-2.6,0.1-4.3,0c-12.7-0.5-24.7-3.8-36.4-8.8c-7.2-3.1-11.5-8.5-14-15.5c-2.5-6.7-2.5-13.5-0.1-20.4
		c1.8-5.2,5.3-8.9,8.8-11.5c5.2-2.6,9.9-2.6,14.6-2.6c4.2,0,8.5,0.1,12.7-0.1c10.9-0.4,21.8-1.5,32.8-1.7
		C2899.5,152.4,2903.6,150.8,2908.3,151.4z"/>
	<path class="st0" d="M3454.9,703.6c0.4,6.5-0.1,12.4,1,18.3c0.8,4.3,0.2,8.9,0.2,12.9c1.1,1.9,2.5,1.6,3.7,1.6
		c14.5,0,29,0.2,43.5,0c7.2-0.1,14.3,0.8,21.5,1.6c1.3,0.9,0.9,2.2,0.9,3.4c0,11,0,22,0,33.3c-1.4,0.2-2.6,0.4-3.7,0.4
		c-19.5,0-39,0-58.5,0c-2.5,0-5,0-7.2,0c-1.5,1.1-1.2,2.4-1.2,3.6c0,8.7,0,17.5,0,26.2c0,1-0.3,2,0.4,2.8c1.4,1.1,2.9,0.7,4.4,0.7
		c22.7-0.1,45.5-0.2,68.2-0.4c2,0,3.9,0.1,5.9-0.8c1.2-0.5,2.9-0.1,4.2-0.1c0.3,0.4,0.5,0.5,0.6,0.7c0.1,0.2,0.2,0.5,0.2,0.7
		c0,11.7,0.1,23.5,0.1,35.2c0,0.4-0.3,0.9-0.5,1.3c-0.4,0.2-0.9,0.5-1.3,0.5c-44.7,0-89.4,0-133.7,0c-1.6-1.2-1.1-2.5-1.1-3.7
		c-0.1-4.2,0-8.5,0-12.7c0-12.7,0.7-25.5-0.2-38.2c-0.9-12.7-0.5-25.4-0.7-38c-0.2-12.5-0.1-25-0.1-37.5
		c-0.1-12.7-0.2-25.5-0.3-38.2c0-3,0.1-5.9-1.2-8.8c-0.4-1-0.1-2.3-0.1-3.5c9-0.9,78.8-1.1,138.1-0.5c1.3,0.8,1.2,2.1,1.2,3.3
		c0,10.5,0,21,0,31.5c0,0.7-0.2,1.4-0.3,1.9c-0.4,0.3-0.6,0.6-0.8,0.6c-10.7-0.1-21.5-0.2-32.2-0.3c-8.6-1.9-17.3-0.8-26-1.1
		c-6.7-0.2-13.3,1.8-20,1.6C3458.2,701.9,3456.8,702.9,3454.9,703.6z"/>
	<path class="st2" d="M1546.5,669.2c2.3,8.1,1.7,15.8,2.1,23.5c0.3,5.2,1.7,10.3,1,15.8c-0.4,0.2-1.1,0.7-1.7,0.7
		c-14.5-0.4-28.8,1.8-43.3,1.4c-5.8-0.2-11.4,0.5-17,1.7c-4.3,0.9-8.6,2.3-11.8,5.6c-3.1,3.2-6.5,6.3-9.4,9.7
		c-4.1,4.8-6.4,10.6-8,16.5c-1.7,6.2-2.3,14.4-1.4,20.7c1.1,7.4,3.2,14.5,7.9,20.5c4.7,5.9,10,11.2,16.6,14.9
		c5.4,3,11.3,4.8,17.6,5.1c6.4,0.3,12.7,1.8,19.3,1.5c6.2-0.3,12.5-0.1,18.7-0.1c2.7,0,5.5,0,8.2,0c1.3,1,2.6,1.8,3.7,2.8
		c0.9,0.8,1.5,2,2.4,3.1c0,10.4,0,20.9,0,31.4c0,0.4-0.3,0.9-0.5,1.4c-1,1-2.3,0.5-3.5,0.5c-9.7-0.1-19.5-0.4-29.2-0.3
		c-5,0.1-9.9-0.9-14.8-1.2c-5-0.3-10,0.2-15-0.5c-6.3-0.9-12.8-1.3-19-3c-5.9-1.6-11.8-3.5-17.4-6c-12.8-5.8-24.2-13.9-32.9-25.1
		c-6.4-8.2-10.9-17.5-13.5-27.8c-2-8-3.3-16-3-24.2c0.1-4.2,0-8.5,0.2-12.7c0.5-9.9,2.7-19.5,7.1-28.5c2.7-5.6,6.1-10.8,10.5-15.3
		c3.3-3.4,6.7-6.7,10-10.1c7.7-7.7,17.1-12.6,27.1-16.4c9.2-3.5,18.9-5.3,28.7-6.4c8.7-1,17.3-1.1,26-1.2c8.7-0.1,17.5,0.1,26.2,0
		C1541.3,667.2,1544,667.6,1546.5,669.2z"/>
	<path class="st0" d="M3689.4,669c0.5,0.6,0.7,0.8,0.7,1c0,12,0,24,0,36.4c-0.6,1.2-1.3,2.7-2.1,4.5c-3.2-0.8-6.3-1.5-9.4-2.3
		c-7.1-2.1-14.3-3.8-21.5-5c-6-1-12.3-1-18.4,1.1c-5.6,1.9-9.5,5-11.5,10.8c0.6,3.7,2.4,6.9,4.9,9.7c1.8,2,3.7,4,5.8,5.8
		c5.7,4.8,11.3,9.7,17.3,14.1c9.3,6.8,17.8,14.4,25.5,22.9c7.2,8,10.8,17.5,11.1,28.3c0.1,5.3-0.9,10.3-2.4,15.3
		c-2.3,7.7-7.2,13.5-13,18.6c-6,5.3-12.7,9.5-20.4,11.7c-3.3,0.9-6.7,1.6-10,2.4c-8.1,2-16.3,1.4-24.5,1.2
		c-3.4-0.1-6.8-0.8-10.3-1.2c-3.4-0.4-7,0.5-10.3-1.3c-0.2-0.1-0.5-0.1-0.7-0.1c-7.7-0.2-15.2-2-22.9-3.5c-3.2-2.6-3.2-2.6-5.3-7
		c0-5.7,0-11.7,0-17.7c0-6,0-11.9,0-18.2c1.3,0,2.3-0.3,3.2-0.1c1.9,0.6,3.6,1.5,5.5,2.1c6,2.1,11.9,4.8,18.3,5.4
		c2.5,1.6,5.3,1.2,8,1.4c2,0.2,4-0.1,5.9,0.8c0.8,0.4,2,0.5,2.9,0.3c6.9-1.6,14.5-0.7,21-8c-0.3,0.5,0.3-0.6,1-1.8
		c0-1.1,0-2.4,0-3.4c-2.4-4.6-5.6-8.4-9.2-11.9c-9.3-9.4-19.4-17.9-29.4-26.5c-7.3-6.4-14.3-13.1-20-21.2c-3.6-5.2-5.5-11-5.8-17.3
		c-0.3-5.2-0.1-10.5-0.1-15.4c1.6-5.3,3.5-10,6.5-14.4c5.4-7.9,12.6-13.1,21.4-16.5c7.7-3,15.5-4.7,23.8-4.6
		c11.5,0.2,23,0.1,34.5,0.3c3.7,0.1,7.3,0.8,11,1.2c3.4,0.4,6.9,0.1,10.3,1.2C3683.7,669.3,3686.8,668.9,3689.4,669z"/>
	<path class="st3" d="M1177.4,839.5c-0.5-0.6-0.8-0.8-0.8-1c0-13.2,0-26.5,0-39.5c1-1.5,2.2-1.6,3.4-1.1c6.6,2.6,13.4,4.9,20.3,6.5
		c8.3,1.9,16.7,3.1,25.1,2c5.8-0.8,11.9-1.8,15.6-8.6c0-1.7,0-4.1,0-6c-5.5-9.6-14.2-15.2-21.7-22.1c-3.4-3.2-7.5-5.8-11-8.8
		c-5.6-4.9-11.3-9.8-16.6-15.1c-6-6-10.7-13-12.8-21.4c-1.5-5.9-3.8-11.8-1.2-18.1c0.6-1.5,0.3-3.4,0.5-5.3
		c1.8-3.4,3.4-7.1,5.6-10.4c7-11,17.7-16.9,29.9-20.4c4.3-1.2,8.8-1.1,13.2-1.9c5.5-1,10.9-1,16.3-0.9c3.9,0.1,7.7,1.4,11.8,1.3
		c3.9-0.1,8-0.4,11.8,1.2c0.4,0.2,1,0.1,1.5,0.1c8.2-0.5,16.2,2.1,24.3,1.8c0.8,0.6,1.3,1.1,1.8,1.5c0.2,0.4,0.3,0.6,0.4,0.8
		c0.1,0.2,0.1,0.5,0.1,0.7c0,12,0,24,0,36.1c-0.5,0.7-1.1,1.5-1.6,2.2c-6.8-1.9-13.4-3.7-20.1-5.1c-8.2-1.7-16.7-3-25.1-1.7
		c-5.8,0.8-12,1.6-15.8,8.3c-0.1,0.9-0.2,2.6-0.3,3.9c0.9,3.7,2.8,6.2,5.1,8.5c6.4,6.6,13.3,12.7,20.7,18.2c9.7,7,19,14.5,27,23.4
		c8.7,9.7,13,21.1,11.4,34.1c-1,8.6-4.4,16.6-10.6,23.1c-6.2,6.6-13.3,11.8-22.1,14.4c-3.3,1-6.7,1.6-10.1,2.2
		c-3.1,0.6-6.3,1.1-9.5,1.5c-2.9,0.4-5.8,0.4-8.8,1.1c-3,0.7-6.4,1-9.5-0.5c-0.4-0.2-0.9-0.4-1.4-0.4c-6.5,0.3-12.8-1.8-19.2-1.8
		c-3.9,0-7.8-0.9-11.8-1.3c-3.7-0.3-7.4,0-11-1.3C1180.5,839.4,1178.7,839.9,1177.4,839.5z"/>
	<path class="st2" d="M2950.8,832.4c0.8-10.8-1.2-22.4-1.2-34.1c0-42.5-0.2-84.9-0.3-127.4c0-1.9,0.1-3.9,0.2-5.8
		c6.4-0.8,45.3-0.9,53.6-0.1c0.7,2.3,0.3,4.8,0.3,7.2c0.1,27.2,0.1,54.5,0.1,81.7c0,7.7-0.2,15.5,0.1,23.2c0.3,7.9,1,15.8,1.6,24.2
		c0.3,0.4,0.9,1.2,1.4,1.8c0.7,0.2,1.2,0.5,1.7,0.5c9.7,0.8,19.3,0.1,29,1.2c9.4,1,19,0.2,28.5,0.2c6.5,0,12.9,0,19.3,0
		c1.1,4.6,1.2,13.5,0.4,38.2c-1,1.6-2.6,1.2-4,1.2c-10.7,0-21.5,0-32.2,0c-26-0.1-52-0.1-77.9-0.2c-4.5,0-9,0.1-14.4-2.5
		C2954.9,840.4,2952.4,837.7,2950.8,832.4z"/>
	<path class="st0" d="M2148.9,407.6c-4.5,0-9,0-13.5,0c-4.6-1-7.7-4.3-10.4-7.8c-1.7-4.3-2.4-8.7-2.1-13.2
		c0.5-8.2-1.5-16.3-1.4-24.5c0.1-8,0.4-16.1-0.4-24c-0.8-7.7-0.8-15.4-1.3-23c-0.2-3.2-1-6.3-1.4-9.3c3.4-4.7,6.4-9.2,8.1-14.5
		c1-3,4.1-14.3,4-17.2c-0.1-3.3,1.4-6.3,1.6-9.5c0.2-3.2,0.3-6.3,1.1-9.6c0.9-3.5,0.3-7.5,0.5-11.2c0.3-5.4,1-10.8,1.3-16.3
		c0.3-5.5-0.3-11.1,0.5-16.5c0.9-5.9,0.6-11.9,1.4-17.8c0.7-5.3,1.3-10.8,2.9-16c0.9-2.8,2.1-5.6,3.6-8.1c3.5-5.7,7.4-11.1,13-15.2
		c4.8-3.5,9.8-5.7,15.8-3.1c3.1-0.1,5.7,1.2,8.4,2.7c3.1,1.7,5.4,4.1,7.2,7.2c3.1,5.2,4.5,11,5.5,16.7c1.9,11.2,2.8,31.7,1.4,42.4
		c-0.9,6.8-1.1,13.8-2.5,20.5c-1.4,6.5-2.9,13-4.1,19.5c-2.7,14-7.4,27.5-10.3,41.5c-1.3,6.3-3.3,12.4-3.8,18.8
		c-0.2,2.2-1,4.3-1.3,6.5c-0.3,2.2,0.1,4.5-1.2,6.5c-0.2,0.4-0.3,1-0.2,1.4c0.2,7-2,13.7-1.8,20.8c0.1,5.7-1.1,11.5-3.4,16.6
		C2160.6,384.1,2155.4,396.1,2148.9,407.6z"/>
	<path class="st0" d="M3107.1,666.1c1-0.7,1.5-1.3,2.2-1.4c1.2-0.2,2.5-0.2,3.7-0.2c14.7,0,29.5,0,44.2,0c1,0,1.9,0,2.8,0
		c1.8,1.9,1.1,4,1.1,5.9c0.1,31,0.2,61.9-0.1,92.9c0,6.2,1.3,12.3,1.1,18.5c-0.2,6.2,0,12.5,0,18.7c0,6,0,12,0,18
		c0,6.2,0,12.5,0,18.7c0,2.5,0,5,0,7.8c-0.9,0.2-1.8,0.7-2.7,0.7c-16.7,0-33.5,0-50.2,0c-0.5,0-0.9-0.2-1.3-0.3
		c-0.3-0.2-0.5-0.4-0.6-0.6c-0.1-0.2-0.2-0.4-0.2-0.7C3107.1,785,3107.1,725.8,3107.1,666.1z"/>
	<path class="st4" d="M1378.7,668c0,58.8,0,117.2,0,175.6c-0.6,0.5-1.1,1-1.8,1.6c-16.8,0-33.8,0-51.1,0c-0.4-0.3-1.2-0.9-2-1.6
		c0-58.5,0-116.9,0-175.5c0.7-0.3,1.3-0.7,2-0.7c17,0,34,0,50.9,0C1377.1,667.4,1377.6,667.7,1378.7,668z"/>
	<path class="st5" d="M2682.4,845.4c0-59.5,0-118.4,0-177.5c0.7-0.3,1.3-0.8,2-0.8c17,0,34,0,50.8,0c1.8,1.4,1.1,3.3,1.1,4.9
		c0,45,0,90,0,134.9c0,11.2,0,22.5,0,33.7c0,1.4,0,2.9-0.1,4c-0.6,0.5-0.7,0.7-0.9,0.8c-0.2,0.1-0.5,0.1-0.7,0.1
		c-16.5,0-33,0-49.5,0C2684.5,845.7,2683.8,845.6,2682.4,845.4z"/>
	<path class="st2" d="M3598.1,311.2c-10.4-8.4-16.3-19.2-18.9-32c-0.6-3.2-1.9-6.2,0-9.3c-0.1-6,2-11.6,2.9-17.4
		c0.9-5.4,2.4-10.6,3.6-15.8c1.9-8.4,4.7-16.5,7.2-24.7c0.5-1.6,1.3-3.2,1.9-4.6c1.9-1,3.4-0.5,5.1,0.1c11,4.3,22,8.5,32.9,12.9
		c6,2.4,11.8,5.1,16,10.3c5.8,7.1,10.6,14.9,13.9,23.5c1.3,3.6,2.4,7.5,2.2,11.6c-0.2,4.2,0,8.5,0,11.9c-0.5,1.2-0.6,1.7-0.8,2.1
		c-3,8.6-9,14.7-16,20c-3.9,3-7.7,6.1-12.1,8.6c-3.3,1.8-6.7,3.1-10.4,3.3c-5.2,0.3-10.4,0-15.5,1.1
		C3606.3,313.6,3602.2,313.4,3598.1,311.2z"/>
	<path class="st0" d="M3431,204.6c4.1-2.6,8.5-3.5,13.3-3.8c5.8-0.3,11.3,1.2,16.7,1.7c9.1,3.9,17.5,8.8,25.6,13.9
		c3.2,2,6,4.4,8.3,7.2c0.6,2,1.2,3.9,1.7,5.6c-0.4,3.1-0.9,6.1-1.1,9c-0.5,6.5-1.9,12.6-4.5,16.5c-4,5.1-8.5,4.5-12.1,5.7
		c-2.3,0.8-4.8,1.3-7,2.3c-13.5,6.3-26.1,14.1-38,23c-4,3-7.6,6.4-11.3,9.8c-2.7,2.4-5.5,4.2-9.7,4.2c-1.1-0.6-2.6-1.4-4-2.1
		c-0.9-8.7-0.6-16.3,0.8-26.1c0.2-1.2,0.2-2.5,0.1-3.7c-0.4-6.3,1.3-12.3,2-18.5c0.5-4.8,2.2-9.5,3.9-14.1
		C3419.8,224.3,3424.4,214,3431,204.6z"/>
	<path class="st0" d="M507.3,377.1c0,2.2,0,3.9,0,5.5c2.4,3.1,5.8,4.3,9,5.5c5.7,2.3,11.6,4.1,17.4,6.1c1.9,0.6,3.8,0.9,5.6,1.7
		c3.4,1.5,7.1,2.4,10.2,6.2c0.5,1-0.4,2.5-2,3.4c-3.4,2-7,3.7-10.5,5.5c-2.6-1.2-5-2.3-7.5-3.4c-2.2-1-4.5-1.9-6.6-2.8
		c-9.4-1.1-17.8,2-26,5.4c-6.9,2.8-14,4.6-21.2,6.2c-1.9,0.5-4,0.2-6,0.3c-2.2,0.2-4.5-0.3-6.6,0.9c-0.6,0.3-1.6,0.4-2.2,0.1
		c-4.3-1.7-8.9-0.7-13.3-1.2c-5.2-0.5-10.2-1.9-15.2-3c-7.7-1.7-15.2-4.1-22.2-7.6c-6.1-3.1-12.3-6.2-18.7-8.6
		c-1.3-0.5-2.5-1.5-3.9-2.4c0.8-0.7,1.3-1.2,2.1-1.9c4.9-0.8,9.8-2.4,14.3-5c4.7-2.7,9.4-5.4,14.7-6.9c6.9-1.6,14-2.6,21.1-2
		c0.9-2.7,0.6-4.5-0.4-6.3c-3-5.3-7.5-9.4-12.2-13c-4.8-3.8-10.2-6.8-16.3-8.4c-5.2-1.4-10.2-3.4-15.5-4.6c-5-1.1-10-2.7-14.9-4
		c-9.7-2.5-19.4-5.3-29.1-8.1c-13-3.7-25.8-8.1-38.4-12.9c-13-4.9-25.3-11.2-36-20.2c-2.5-2.1-4.7-4.5-7-6.8
		c-5.8-5.8-11-12.2-15.6-19c-9.2-13.5-18-27.2-27.1-40.8c-5.7-8.4-11.3-16.9-18.8-24c-7.2-6.8-14.8-13.1-24.1-17.2
		c-2.9-1.3-5.6-3-8.4-4.5c0.3-0.8,0.4-1.3,0.6-2c6.6-1.2,13.2-3.2,20.2-3.6c2.7-0.2,5.3-1,8-1.3c2.7-0.3,5.6,0.2,8.2-0.4
		c7.6-1.9,15.4-1,23-1.1c9.1-0.2,17.3,2.2,25.3,7.1c8.3,5.1,15.9,10.9,23,17.6c9.7,9,18.3,19.1,27,29c7.1,8,14.1,16.1,21.1,24.2
		c9.8,11.3,20.5,21.8,31.1,32.4c13.6,13.6,28.7,25.2,44.9,35.5c4.6,2.9,9.3,5.6,14.1,8.2c5.4,3,10.8,5.9,16.4,8.6
		c6.4,3.1,12.7,6.4,19.6,8.2c2-1,3.3-2.4,4.3-4.2c5.6-9.9,12.1-19.2,19.4-28.1c6.2-7.5,12.2-15.1,19.3-21.7
		c11.5-10.6,23.8-20.3,37.3-28.3c11.9-7.1,24.5-12.6,37.6-16.9c8.2-2.7,16.4-5.2,25.1-5.8c4.5-1.7,9.4-0.8,14-1.6
		c9.4-1.7,18.9-0.8,28.3-1.4c3.9-0.2,7.9-0.8,11.8-1.2c3.7-0.4,7.3-0.3,11.1-1.2c4-1,8.3-1,12.5-1.8c10.4-1.8,20.7-4.5,30.6-8.1
		c14.4-5.3,27.7-12.9,40.5-21.2c4.8-3.1,9.5-6.2,14.4-9.2c0.9-0.6,2.2-0.5,3.4-0.7c1.1,2.8,0.7,5.3,0.7,7.7c0,8.1-3.2,23.2-6.4,31
		c-2.6,6.3-6.4,11.7-10.8,16.8c-6.5,7.3-13.8,13.6-23.3,18c-2.2-1-4.8-2.3-7.5-3.5c-4.7-2.2-9.3-4.7-14.2-6.3
		c-5.6-1.9-11.3-3.8-17.3-3.7c-10.3-2.4-20.8-1.1-31.3-1.4c-4.8-0.1-9.2,1.3-13.6,3.1c-15.2,6-29.4,13.9-42.7,23.5
		c-3.8,2.8-7.6,5.6-11.1,8.7c-6.3,5.6-12.7,11.3-18.6,17.3c-9.5,9.6-18.9,19.2-27.8,29.3c-5.3,6-10.7,11.8-16.3,17.5
		C521.2,365,515,371.5,507.3,377.1z"/>
	<path class="st6" d="M2703.9,290.3c-2.9-10-1.6-19.9-1.7-29.8c1.5-4.8,0.9-9.8,1.5-14.7c0.4-3.6,1.5-7.2,3.7-10.5
		c1.2,0,2.4,0,3.9,0c1.3,1.2,2.8,2.4,4.2,3.9c5.4,6,12.2,10,19.5,13.1c6.3,2.7,12.7,5.1,19.4,7.9c0,1.1,0.2,2.3,0,3.5
		c-1.2,7.8-2,15.6-4.4,23.1c-1.4,4.5-3.3,8.7-6.4,12.4c-9.2,3.1-18.4,2.6-27.7,0.4c-2.4-0.6-4.6-1.8-6.4-3.5
		c-0.9-0.8-1.9-1.7-2.7-2.6C2705.6,292.4,2704.7,291.3,2703.9,290.3z"/>
</g>
</svg>
