<?xml version="1.0" encoding="utf-8"?>
<!-- Generator: Adobe Illustrator 22.1.0, SVG Export Plug-In . SVG Version: 6.00 Build 0)  -->
<svg version="1.1" id="Слой_1" xmlns="http://www.w3.org/2000/svg" xmlns:xlink="http://www.w3.org/1999/xlink" x="0px" y="0px"
	 width="40px" height="26.799px" viewBox="0 0 40 26.799" style="enable-background:new 0 0 40 26.799;" xml:space="preserve">
<style type="text/css">
	.st0{fill:#F38F1F;}
	.st1{fill:#197FB0;}
</style>
<g>
	<path class="st0" d="M7.111,8.154c-1.337,0.362-2.228,0.78-2.646,1.197c-0.362,0.362-0.613,0.835-0.808,1.448
		c-2.256,6.154-3.425,9.468-3.509,9.886c-0.278,0.78-0.167,1.281,0.334,1.476c0.446,0.223,0.975-0.028,1.615-0.78
		C3.24,20.101,4.856,17.734,7,14.28c1.949-3.23,2.98-5.096,3.119-5.57c0.084-0.418-0.223-0.696-0.919-0.78
		C8.504,7.847,7.807,7.903,7.111,8.154L7.111,8.154z"/>
	<path class="st0" d="M24.767,3.475c1.197-1.142,1.643-2.089,1.392-2.785c-0.251-0.641-1.17-0.835-2.701-0.585
		c-4.038,0.696-7.992,1.866-11.919,3.453c-0.306,0.139-2.506,1.142-6.544,3.035C4.521,6.817,4.326,7.012,4.41,7.179
		c0.084,0.195,0.752,0.056,1.949-0.418l5.597-2.144c3.342-1.003,5.013-0.863,5.013,0.418c0,0.278-0.975,1.532-2.896,3.787
		c-2.673,3.008-5.013,6.099-7.018,9.301c-1.142,1.754-1.922,3.342-2.395,4.818c-0.473,1.615-0.418,2.701,0.195,3.23
		c0.947,0.863,2.506,0.835,4.678-0.084l8.327-3.899c3.397-1.476,7.213-2.451,11.473-2.896l5.319-0.362
		c0.195-0.251-0.306-0.501-1.504-0.724l-4.929-0.39c-5.208-0.084-10.22,0.418-15.038,1.56c-0.529,0.084-0.919-0.028-1.17-0.334
		c-0.306-0.39-0.195-0.919,0.306-1.56C15.549,13.194,19.699,8.516,24.767,3.475L24.767,3.475z"/>
	<path class="st0" d="M10.759,2.946c0.613-0.418,0.947-0.835,0.975-1.225c0.028-0.418-0.251-0.724-0.78-0.891L8.894,0.885
		C8.086,1.025,7.39,1.331,6.805,1.749C6.22,2.167,5.886,2.612,5.83,3.03C5.802,3.42,6.053,3.698,6.61,3.865L8.643,3.81
		C9.423,3.642,10.119,3.364,10.759,2.946L10.759,2.946z"/>
	<path class="st1" d="M21.258,12.025c0,1.197,0.306,2.2,0.891,2.98c0.641,0.863,1.532,1.309,2.673,1.309
		c1.142,0,2.005-0.418,2.562-1.281c0.167,0.696,0.668,1.058,1.476,1.086h0.835c0.223,0,0.334-0.111,0.334-0.334v-0.835
		c-0.028-0.195-0.111-0.306-0.306-0.278h-0.139l-0.195-0.111c-0.111-0.167-0.167-0.334-0.139-0.473V7.987
		c-0.028-0.251-0.139-0.39-0.362-0.39h-1.197c-0.251,0-0.39,0.111-0.39,0.334l-0.056,0.446c-0.473-0.641-1.225-0.975-2.228-0.975
		c-1.03,0-1.894,0.39-2.59,1.17C21.648,9.407,21.258,10.549,21.258,12.025L21.258,12.025z M25.408,9.101
		c0.78,0,1.365,0.306,1.754,0.947v3.342c-0.362,0.78-1.003,1.17-1.866,1.17c-1.225,0-1.838-0.891-1.838-2.673
		C23.458,10.02,24.099,9.101,25.408,9.101L25.408,9.101z"/>
	<path class="st1" d="M33.428,8.042c0-0.306-0.139-0.446-0.446-0.446h-1.225c-0.306,0-0.473,0.139-0.473,0.446v7.63
		c0,0.306,0.167,0.446,0.473,0.446h1.225c0.306,0,0.446-0.139,0.446-0.446V8.042L33.428,8.042z"/>
	<path class="st1" d="M40,7.848V7.68l-0.195-0.223l-0.501-0.056c-0.808,0-1.504,0.362-2.089,1.114V7.931
		c0-0.223-0.139-0.334-0.446-0.334h-1.114c-0.306,0-0.446,0.139-0.446,0.446v7.63c0,0.306,0.139,0.446,0.39,0.446h1.281
		c0.306,0,0.446-0.139,0.446-0.446v-5.597C37.8,9.518,38.385,9.24,39.025,9.24l0.446,0.056h0.084l0.251-0.251L40,7.848L40,7.848z"/>
	<path class="st1" d="M33.511,5.731c0-0.696-0.39-1.058-1.17-1.058c-0.78,0-1.17,0.362-1.17,1.114c0,0.724,0.39,1.086,1.17,1.086
		C33.121,6.873,33.511,6.483,33.511,5.731L33.511,5.731z"/>
</g>
</svg>
