<?xml version="1.0" encoding="UTF-8" standalone="no"?>
<svg enable-background="new 0 0 252.177 96.173" height="190.8707" viewBox="0 0 494 190.87071" width="494" xmlns="http://www.w3.org/2000/svg">
   <path clip-rule="evenodd" d="m32.273903 144.56682c-1.762364.014-2.673663.83552-3.60828 2.19372-.979305 1.43205-1.787622 2.91655-.687846 4.39911 1.93724 2.61149 5.887499-.25454 5.887499-.25454 0 0 1.595258.68978 1.125036 1.10949-4.315555 3.87254-14.419512-.37113-18.035562 4.90042-.598465.87826-1.531138 2.09075-.800544 3.13222.485766.70923 1.194987.60042 2.009132.89771 2.003305.75779 4.509862.35557 5.380357 1.10949 1.216361 1.05702-15.167593 6.16924-18.95269-.75392-1.235792-2.24424 1.465073-6.18867 1.465073-6.18867l-1.362091-.37307c0 0-3.412028 5.24629-2.203439 8.4096 1.402895 3.70349 5.137473 4.22618 9.081902 4.53124 6.081804.45079 18.766155-4.4574 13.372197-8.08511-2.036335-1.38541-7.276792-.31283-5.634898-1.85368 1.68464-1.57972 6.707472.1671 10.756827-.9968 2.15292-.60818 3.88808-.4197 5.345382-2.12378 2.689207-3.11668-1.29797-10.07675-3.138055-10.05343m-2.611485 5.01895c-.336151-.4644.122416-1.88673.757796-2.19373.610124-.29729 2.485185.64316 2.27339 1.57582-.169047.72282-2.570678 1.26105-3.031186.61791" fill="#004990" fill-rule="evenodd"/>
   <path d="m32.273903 144.56682c-1.762364.014-2.673663.83552-3.60828 2.19372-.979305 1.43205-1.787622 2.91655-.687846 4.39911 1.93724 2.61149 5.887499-.25454 5.887499-.25454 0 0 1.595258.68978 1.125036 1.10949-4.315555 3.87254-14.419512-.37113-18.035562 4.90042-.598465.87826-1.531138 2.09075-.800544 3.13222.485766.70923 1.194987.60042 2.009132.89771 2.003305.75779 4.509862.35557 5.380357 1.10949 1.216361 1.05702-15.167593 6.16924-18.95269-.75392-1.235792-2.24424 1.465073-6.18867 1.465073-6.18867l-1.362091-.37307c0 0-3.412028 5.24629-2.203439 8.4096 1.402895 3.70349 5.137473 4.22618 9.081902 4.53124 6.081804.45079 18.766155-4.4574 13.372197-8.08511-2.036335-1.38541-7.276792-.31283-5.634898-1.85368 1.68464-1.57972 6.707472.1671 10.756827-.9968 2.15292-.60818 3.88808-.4197 5.345382-2.12378 2.689207-3.11668-1.29797-10.07675-3.138055-10.05343zm-2.611485 5.01895c-.336151-.4644.122416-1.88673.757796-2.19373.610124-.29729 2.485185.64316 2.27339 1.57582-.169047.72282-2.570678 1.26105-3.031186.61791z" fill="none" stroke="#004990" stroke-miterlimit="3.86400008" stroke-width=".45467806"/>
   <path clip-rule="evenodd" d="m29.953878 136.94222l-1.978043 2.64063c0 0 2.821335 2.12572 2.867969 1.81094.03497-.30506 2.269504-2.66783 2.269504-2.66783" fill="#004990" fill-rule="evenodd"/>
   <path d="m29.953878 136.94222l-1.978043 2.64063c0 0 2.821335 2.12572 2.867969 1.81094.03497-.30506 2.269504-2.66783 2.269504-2.66783z" fill="none" stroke="#004990" stroke-miterlimit="3.86400008" stroke-width=".45467806"/>
   <path clip-rule="evenodd" d="m75.050556 148.69584c-.579034-2.3142-4.548723-2.59982-7.859713-1.43399-3.378995 1.18334-9.010008 6.74246-9.385021 6.74246-.384727 0-2.329738.66842-3.583019.0291-.60235-.30118-.989021-.53823-1.344603-1.12504-.330322-.55572-.371126-1.60887-.371126-1.60887 0 0-.928787 1.13865-1.680753 1.67881-1.214419.86467-2.055768 1.27466-3.584963 1.29797-3.489751.0757-3.406199-3.42756-3.406199-3.42756l-1.09589-14.38066-2.306422 2.36472c0 0 1.006509 9.07413 1.426212 14.31847.180705 2.22871 2.269504 4.16789 4.758574 4.2456 1.908094.0582 4.327214-2.29476 4.327214-2.29476 0 0 .921014 1.14252 1.729331 1.57389 1.414554.76168 4.121249.21179 4.121249.21179 0 0-.400273.78112-.419703 1.33101-.02915.71116.586807 1.74681.586807 1.74681 0 0 .70922-.68007 1.047313-1.2047.431361-.65286.804431-1.84979.804431-1.84979 0 0 7.568252-.27204 11.605949-1.80901 3.289615-1.24937 5.137472-4.38354 4.630332-6.40627m-7.440009 4.3855c-2.506559.48382-6.524825.77917-6.524825.77917 0 0 3.178861-3.14389 6.056544-3.69767 1.814827-.34391 3.74818-.58097 4.791607.40999 1.296028 1.22802-2.220926 2.09852-4.323326 2.50851" fill="#004990" fill-rule="evenodd"/>
   <path d="m75.050556 148.6939c-.579034-2.3142-4.548723-2.59788-7.859713-1.43205-3.378995 1.18334-9.010008 6.74246-9.385021 6.74246-.384727 0-2.329738.66842-3.583019.0272-.60235-.29924-.989021-.5363-1.344603-1.1231-.330322-.5596-.371126-1.61081-.371126-1.61081 0 0-.928787 1.13864-1.680753 1.67881-1.214419.86467-2.055768 1.27661-3.584963 1.29992-3.489751.0757-3.406199-3.42757-3.406199-3.42757l-1.09589-14.38065-2.306422 2.36471c0 0 1.006509 9.07219 1.426212 14.31848.180705 2.22869 2.269504 4.16594 4.758574 4.2456 1.908094.0564 4.327214-2.29671 4.327214-2.29671 0 0 .921014 1.14447 1.729331 1.57584 1.414554.76168 4.121249.2079 4.121249.2079 0 .001-.400273.785-.419703 1.33295-.02915.7131.586807 1.74681.586807 1.74681 0 0 .70922-.68007 1.047313-1.20276.431361-.65287.804431-1.8498.804431-1.8498 0 0 7.568252-.27202 11.605949-1.81094 3.289615-1.24745 5.137472-4.38161 4.630332-6.40629zm-7.440009 4.38744c-2.506559.48383-6.524825.77723-6.524825.77723 0 0 3.178861-3.14194 6.056544-3.69571 1.814827-.34392 3.74818-.58098 4.791607.40805 1.296028 1.22801-2.220926 2.0985-4.323326 2.51043z" fill="none" stroke="#004990" stroke-miterlimit="3.86400008" stroke-width=".45467806"/>
   <path clip-rule="evenodd" d="m89.563334 154.95835l.29729.20985c0 0-2.05771 4.56427-.720878 6.92121 1.550567 2.72612 4.385504 2.53571 7.618771 2.53571 4.478773-.001 10.980283-1.5428 11.108523-2.36472.25648-1.6516-9.344218.27981-8.030702-3.56358 1.173612-3.44118 5.341492-4.53124 8.998352-4.45352 3.07393.068 5.71845-.23706 6.10512-.81998.68785-1.07451-1.9353-2.67949-1.9353-2.67949l2.26951-2.79801c.0836.12824 2.07519 4.17759.87826 6.40435-1.18332 2.20344-3.14583 2.64258-5.75731 2.8019-2.77859.17294-6.8804-.1535-6.90955.89382-.033 1.71378 5.34732 1.09978 6.23919 2.26172 2.21899 2.93016-3.54998 6.9834-10.022345 7.22239-4.626446.171-12.241331.85883-13.455748-5.54745-.56349-2.89518 3.316817-7.0242 3.316817-7.0242" fill="#004990" fill-rule="evenodd"/>
   <path d="m89.563334 154.95835l.29729.20985c0 0-2.05771 4.56427-.720878 6.92121 1.550567 2.72612 4.385504 2.53571 7.618771 2.53571 4.478773-.001 10.980283-1.5428 11.108523-2.36472.25648-1.6516-9.344218.27981-8.030702-3.56358 1.173612-3.44118 5.341492-4.53124 8.998352-4.45352 3.07393.068 5.71845-.23706 6.10512-.81998.68785-1.07451-1.9353-2.67949-1.9353-2.67949l2.26951-2.79801c.0836.12824 2.07519 4.17759.87826 6.40435-1.18332 2.20344-3.14583 2.64258-5.75731 2.8019-2.77859.17294-6.8804-.1535-6.90955.89382-.033 1.71378 5.34732 1.09978 6.23919 2.26172 2.21899 2.93016-3.54998 6.9834-10.022345 7.22239-4.626446.171-12.241331.85883-13.455748-5.54745-.56349-2.89518 3.316817-7.0242 3.316817-7.0242z" fill="none" stroke="#004990" stroke-miterlimit="3.86400008" stroke-width=".45467806"/>
   <path clip-rule="evenodd" d="m111.15277 146.39718l-.4197-.0661c0 0 .0874-.62955.28757-.96181.38473-.62178 1.5972-.99096 1.5972-.99096-.002 0-1.30963-1.18916-1.34655-2.19179-.0505-1.75264 2.19762-2.58816 3.82979-2.36471 1.97222.27786.93073 2.36471.93073 2.36471l-.33421.0641c0 0-2.33945-1.66132-2.66006-.64703-.26231.81996 1.30963 1.78567 1.30963 1.78567l3.73652.0252c0 0-.25065 1.50783-.87632 1.54474-.63733.037-2.52793-.26231-3.99884.28175-.86855.31089-2.05576 1.15612-2.05576 1.15612" fill="#004990" fill-rule="evenodd"/>
   <path d="m111.15277 146.39718l-.4197-.0661c0 0 .0874-.62955.28757-.96181.38473-.62178 1.5972-.99096 1.5972-.99096-.002 0-1.30963-1.18916-1.34655-2.19179-.0525-1.75264 2.19762-2.58816 3.82979-2.36471 1.97222.27786.92879 2.36471.92879 2.36471l-.33421.0641c0 0-2.33751-1.66132-2.65812-.64703-.26231.81996 1.30963 1.78567 1.30963 1.78567l3.73652.0252c0 0-.25065 1.50783-.87632 1.54474-.63733.037-2.52793-.26231-4.00078.28175-.86661.31089-2.05382 1.15612-2.05382 1.15612z" fill="none" stroke="#004990" stroke-miterlimit="3.86400008" stroke-width=".45467806"/>
   <path clip-rule="evenodd" d="m124.69401 136.80815c0 0-2.31031 1.22802-2.31419 2.43272-.0408 6.12843.88604 18.5699 1.22025 18.32701.33615-.24481 2.36665-1.60108 2.35499-2.97677-.035-6.21199-1.26105-17.78296-1.26105-17.78296" fill="#004990" fill-rule="evenodd"/>
   <path d="m124.69401 136.80815c0 0-2.31031 1.22802-2.31419 2.43272-.0408 6.12843.88604 18.5699 1.22025 18.32701.33615-.24481 2.36665-1.60108 2.35499-2.97677-.035-6.21199-1.26105-17.78296-1.26105-17.78296z" fill="none" stroke="#004990" stroke-miterlimit="3.86400008" stroke-width=".45467806"/>
   <path clip-rule="evenodd" d="m158.98334 148.65698c-1.99748-2.47741-6.90567-4.3447-6.90567-4.3447l-2.56096 3.21578 1.63607.71893c0 0-2.41329 1.06092-2.7786 2.47159-.2934 1.16973.72284 3.0098.72284 3.0098 0 0-1.36404.50715-2.26952.64316-1.30379.21763-3.36733-.0602-3.36733-.0602 0 0-.23123-.90548-.41971-1.71962-.33421-1.35819-.71893-2.73194-2.44049-2.83687-2.81356-.171-3.87642 3.63353-4.55261 5.37647-.75974 1.98775 5.39397 2.23064 5.39397 2.23064 0 0-4.04937 5.47946-7.91801 6.29942-2.36083.50521-5.71846-.41192-6.17313-.41192 0 0 4.32527 3.379 7.48275 3.11863 4.6692-.37697 8.12397-8.83514 8.12397-8.83514 0 0 3.07394.18847 4.91403-.38473 1.84397-.55766 4.29029-2.42494 4.29029-2.42494 0 0 8.77296 2.52792 9.38308-.40999.30118-1.40095-1.04342-3.75984-2.56097-5.65628m-17.6722 5.45226c-.171.71505-2.01691.43719-2.4813-.20986-.33421-.46633-.16711-1.00456.45857-1.30963.62178-.30506 2.24229.59264 2.02273 1.51949m12.15777-2.6387c-.1671.71311-2.74166.50326-3.20218-.14767-.32642-.47411 1.21443-1.86729 1.94308-1.93918 1.00844-.10682 1.47284 1.15612 1.2591 2.08685m5.29875 1.67881c-.20402.20208-3.33042-.014-3.19634-.75391.0836-.44884.33615-1.40678.58681-1.83036.30506-.52269 3.35567 1.85951 2.60953 2.58427" fill="#004990" fill-rule="evenodd"/>
   <path d="m158.98334 148.65698c-1.99748-2.47741-6.90567-4.3447-6.90567-4.3447l-2.56096 3.21578 1.63607.71893c0 0-2.41329 1.06092-2.7786 2.47159-.2934 1.16973.72284 3.0098.72284 3.0098 0 0-1.36404.50715-2.26952.64316-1.30379.21763-3.36733-.0602-3.36733-.0602 0 0-.23123-.90548-.41971-1.71962-.33421-1.35819-.71893-2.73194-2.44049-2.83687-2.81356-.171-3.87642 3.63353-4.55261 5.37647-.75974 1.98775 5.39397 2.23064 5.39397 2.23064 0 0-4.04937 5.47946-7.91801 6.29942-2.36083.50521-5.71846-.41192-6.17313-.41192 0 0 4.32527 3.379 7.48275 3.11863 4.6692-.37697 8.12397-8.83514 8.12397-8.83514 0 0 3.07394.18847 4.91403-.38473 1.84397-.55766 4.29029-2.42494 4.29029-2.42494 0 0 8.77296 2.52792 9.38308-.40999.30118-1.40095-1.04342-3.75984-2.56097-5.65628zm-17.6722 5.45225c-.171.71505-2.01691.43719-2.4813-.20985-.33421-.46634-.16711-1.00457.45857-1.30963.62178-.30506 2.24229.59263 2.02273 1.51948zm12.15777-2.63868c-.1671.7131-2.74166.50324-3.20218-.14768-.32642-.47411 1.21443-1.86729 1.94308-1.93918 1.00844-.10682 1.47284 1.15612 1.2591 2.08686zm5.29875 1.67881c-.20402.20207-3.33042-.014-3.19634-.75392.0836-.44885.33615-1.40677.58681-1.83037.30506-.52268 3.35567 1.85952 2.60953 2.58429z" fill="none" stroke="#004990" stroke-miterlimit="3.86400008" stroke-width=".45467806"/>
   <path clip-rule="evenodd" d="m196.58949 147.39009c-3.61215-2.05381-11.94987 4.08433-11.94987 4.08433 0 0-.28952-12.29767-.24871-12.51141.0427-.20597.63732-.93656.6315-1.6108-.014-1.29603-2.44049-2.29671-2.44049-2.29671-.1302.21179-1.74293 1.51171-1.59721 2.74555.10878.87438 1.21442 1.54669 1.21442 1.91781 0 .38279.58875 7.84223.71894 12.5736l-1.93336 1.88672c-1.945.30701-3.09142.34586-5.04614.13412-1.47091-.14961-3.70155-.75196-3.70155-.75196 0 0 3.70737 4.00271 7.27096 3.93471 6.27028-.0972 13.30031-1.43787 16.40922-3.59468 2.38609-1.64772 3.23132-5.05199.67229-6.51122m-12.66492 6.66861c-.33226-.46051 5.81755-3.31876 6.52872-3.48781 1.88671-.4333 5.09084.0757 4.87904 1.00845-.17099.7131-10.94336 3.13029-11.40776 2.47936" fill="#004990" fill-rule="evenodd"/>
   <path d="m196.58949 147.39009c-3.61215-2.05381-11.94987 4.08433-11.94987 4.08433 0 0-.28952-12.29767-.24871-12.51141.0427-.20597.63732-.93656.6315-1.6108-.014-1.29603-2.44049-2.29671-2.44049-2.29671-.1302.21179-1.74293 1.51171-1.59721 2.74555.10878.87438 1.21442 1.54669 1.21442 1.91781 0 .38279.58875 7.84223.71894 12.5736l-1.93336 1.88672c-1.945.30701-3.09142.34586-5.04614.13412-1.47091-.14961-3.70155-.75196-3.70155-.75196 0 0 3.70737 4.00271 7.27096 3.93471 6.27028-.0972 13.30031-1.43787 16.40922-3.59468 2.38609-1.64772 3.23132-5.05199.67229-6.51122zm-12.66492 6.66862c-.33226-.46051 5.81755-3.31877 6.52872-3.4878 1.88671-.43332 5.09084.0757 4.87904 1.00844-.17099.71311-10.94336 3.13029-11.40776 2.47936z" fill="none" stroke="#004990" stroke-miterlimit="3.86400008" stroke-width=".45467806"/>
   <path clip-rule="evenodd" d="m252.54404 150.33384c0 0-5.80006-3.05643-9.18101-2.88156-4.40882.24482-4.99563 4.21452-4.99563 4.21452 0 0 2.20734-1.12116 3.73848-1.32712 2.68531-.36142 6.73467 1.64577 6.73467 1.64577 0 0-3.88808 1.61664-6.52288 2.04606-1.68658.28174-3.15749.27981-4.37191.31866-1.48062.033-5.01312.60818-5.01312.60818 0 0 4.34665-2.07908 4.17178-4.45351-.14769-1.87701-1.15419-3.09337-3.11086-3.70154-3.37123-1.02595-10.69466 4.66725-10.69466 4.66725l-.41969-12.29575c0 0 .71698-.90352.75585-1.58748.0913-1.33489-2.35694-2.4949-2.35694-2.4949 0 0-1.53891 1.28631-1.54668 2.39774-.014.8569.87631 2.02468.87631 2.02468 0 0 1.0959 9.59487.75586 13.22258-.0855.92297-2.13543 1.61275-2.13543 1.61275 0 0-2.94958-.0738-3.32847 0-.38474.0661.42942-1.65356.0836-2.60371-.52852-1.45343-1.63025-2.46964-3.19441-2.33751-2.40746.21374-4.84406 4.42436-4.08432 6.21005.78499 1.84202 5.38423 1.80705 5.38423 1.80705 0 0-3.73846 5.20548-7.35645 6.13038-2.58622.6723-6.65112-.40999-6.82017-.40999 0 .001 4.20091 3.33431 7.27485 3.11474 4.67502-.31089 8.12591-8.83513 8.12591-8.83513 0 0 15.30943.23899 25.49499-.0641 4.43992-.1302 6.00992-2.8874 10.13505-3.6996 3.50141-.69369 9.12271-.58099 9.12271-.58099l1.13476-2.7747m-47.45168 3.92306c-.29146.31672-2.01886.21568-2.47548-.43525-.33226-.4605-.1671-.78112.45662-1.09395.61984-.29923 2.7067.76751 2.01886 1.5292m8.84096-.0893c-.33226-.46633 5.91858-3.65879 7.18546-3.993 1.56418-.39251 4.13291.59069 3.91723 1.51947-.17099.72865-10.64607 3.11863-11.10269 2.47353" fill="#004990" fill-rule="evenodd"/>
   <path d="m252.54404 150.33384c0 0-5.80006-3.05643-9.18101-2.88156-4.40882.24482-4.99563 4.21452-4.99563 4.21452 0 0 2.20734-1.12116 3.73848-1.32712 2.68531-.36142 6.73467 1.64577 6.73467 1.64577 0 0-3.88808 1.61664-6.52288 2.04606-1.68658.28174-3.15749.27981-4.37191.31866-1.48062.033-5.01312.60818-5.01312.60818 0 0 4.34665-2.07908 4.17178-4.45351-.14769-1.87701-1.15419-3.09337-3.11086-3.70154-3.37123-1.02595-10.69466 4.66725-10.69466 4.66725l-.41969-12.29575c0 0 .71698-.90352.75585-1.58748.0913-1.33489-2.35694-2.4949-2.35694-2.4949 0 0-1.53891 1.28631-1.54668 2.39774-.014.8569.87631 2.02468.87631 2.02468 0 0 1.0959 9.59487.75586 13.22258-.0855.92297-2.13543 1.61275-2.13543 1.61275 0 0-2.94958-.0738-3.32847 0-.38474.0661.42942-1.65356.0836-2.60371-.52852-1.45343-1.63025-2.46964-3.19441-2.33751-2.40746.21374-4.84406 4.42436-4.08432 6.21005.78499 1.84202 5.38423 1.80705 5.38423 1.80705 0 0-3.73846 5.20548-7.35645 6.13038-2.58622.6723-6.65112-.40999-6.82017-.40999 0 .001 4.20091 3.33431 7.27485 3.11474 4.67502-.31089 8.12591-8.83513 8.12591-8.83513 0 0 15.30943.23899 25.49499-.0641 4.43992-.1302 6.00992-2.8874 10.13505-3.6996 3.50141-.69369 9.12271-.58099 9.12271-.58099l1.13476-2.7747-8.65637.0272zm-38.79531 3.89586c-.29146.31672-2.01885.21568-2.47548-.43525-.33226-.4605-.1671-.78112.45663-1.09395.61983-.29923 2.70669.76751 2.01885 1.5292zm8.84096-.0893c-.33226-.46633 5.91859-3.65879 7.18546-3.993 1.56418-.39251 4.13291.59069 3.91723 1.51947-.17098.72865-10.64606 3.11863-11.10269 2.47353z" fill="none" stroke="#004990" stroke-miterlimit="3.86400008" stroke-width=".45467806"/>
   <path clip-rule="evenodd" d="m251.112 140.23184l-2.43855 2.77276 3.10891 1.71767 2.36083-2.70864" fill="#004990" fill-rule="evenodd"/>
   <path d="m251.112 140.23184l-2.43855 2.77276 3.10891 1.71767 2.36083-2.70864z" fill="none" stroke="#004990" stroke-miterlimit="3.86400008" stroke-width=".45467803"/>
   <path clip-rule="evenodd" d="m455.41398 11.474401l-12.42591 6.281941c-9.11299-2.27339-17.47791-3.417857-25.12388-3.417857-8.5495 0-15.4338.90547-20.66259 2.685321-5.01895 1.727387-7.53133 4.000778-7.53133 6.827942 0 2.543477 5.1297 6.476248 15.35412 11.776938 1.67104.891869 7.07083 3.408142 16.18965 7.541049 12.65909 5.510543 18.99544 10.883128 18.99544 16.11581 0 6.276112-6.1537 11.335863-18.42806 15.188967-12.28214 3.86865-28.19781 5.792287-47.73538 5.792287-20.48382 0-40.94822-4.570097-54.70709-9.180999l13.84437-5.42116c12.65327 3.72292 28.01711 5.516372 38.62432 5.516372 9.12659 0 16.64432-1.039543 22.60954-3.110854 5.96327-2.059652 8.93617-4.678908 8.93617-7.853883 0-3.377052-4.18537-7.193238-12.5697-11.471875-.16905-.06412-6.50929-2.990384-18.97601-8.780727-12.47061-5.78063-18.70204-11.052175-18.70204-15.802977 0-5.448364 5.77091-9.927137 17.2972-13.436318 11.54766-3.5072398 26.14981-5.2657168 43.83952-5.2657168 16.19936 0 28.14145 2.362772 41.17166 6.0157398" fill="#51c8e8" fill-rule="evenodd"/>
   <path d="m395.73263 86.684754c-54.88391 0-96.24795-18.202666-96.24795-42.341405 0-24.13874 41.36404-42.3433488 96.24795-42.3433488 54.88198 0 96.2674 18.2046088 96.2674 42.3433488 0 24.138739-41.38542 42.341405-96.2674 42.341405m0-73.964845c-50.3993 0-85.53192 16.667641-85.53192 31.62344 0 14.944139 35.13262 31.609839 85.53192 31.609839 50.39543 0 85.52223-16.6657 85.52223-31.609839-.001-14.955799-35.12874-31.62344-85.52223-31.62344" fill="#51c8e8"/>
   <path clip-rule="evenodd" d="m334.88933 155.7725h-5.12386l-.87828-4.39134h-8.51646l-4.03965 4.39134h-4.6109l15.39106-16.01477h3.6413m-2.22481 9.65316c-.53629-2.51433-.85885-4.64004-.98902-6.35384-1.38541 1.74488-3.23327 3.87449-5.50471 6.35384z" fill="#004990" fill-rule="evenodd"/>
   <path clip-rule="evenodd" d="m350.43584 139.75579l-5.1705 16.01671h-4.98592l5.14719-16.01671" fill="#004990" fill-rule="evenodd"/>
   <path clip-rule="evenodd" d="m372.2254 143.82457c0 2.08296-1.99942 3.66268-5.97883 4.76829l4.39911 6.77354-5.16661.6587-3.75207-6.83961h-3.10114l-2.09268 6.58895h-5.01507l5.17828-16.01477h6.17896c1.65937 0 2.82133.0214 3.48198.0932 1.28048.0972 2.33363.34198 3.20995.6995 1.78568.76557 2.65812 1.8537 2.65812 3.27213m-4.90626.25259c0-.95404-.51103-1.63605-1.54668-2.02856-.69172-.26037-1.78374-.3925-3.2624-.3925h-1.45536l-1.8226 5.73983h1.18332c2.1743 0 3.77345-.24094 4.84019-.72671 1.37958-.62955 2.06353-1.49617 2.06353-2.59206" fill="#004990" fill-rule="evenodd"/>
   <path clip-rule="evenodd" d="m412.71895 140.00838l-12.09949 15.76412h-4.51765c-.99873-4.2631-1.73709-8.24638-2.17623-11.96931-2.5085 3.38677-5.72233 7.372-9.64345 11.96931h-4.56037l-1.86535-16.00118 5.02866-.22733c.50519 4.71583.73836 8.9964.67813 12.86505 2.59983-3.54998 5.95551-7.77033 10.0923-12.65131h3.79286c.88023 4.54288 1.53698 8.76129 1.98 12.65131 2.32584-3.46254 5.39396-7.74895 9.21792-12.86505" fill="#004990" fill-rule="evenodd"/>
   <path clip-rule="evenodd" d="m429.09124 155.7725h-5.11027l-.87438-4.39134h-8.52619l-4.04741 4.39134h-4.59536l15.38911-16.01477h3.64519m-2.22675 9.65316c-.56154-2.51433-.89575-4.64004-.98707-6.35384-1.41457 1.74488-3.24882 3.87449-5.50861 6.35384z" fill="#004990" fill-rule="evenodd"/>
   <path clip-rule="evenodd" d="m451.72022 140.07833l-11.01138 9.01195-2.18012 6.68027h-4.97036l2.13348-6.68027-4.42631-9.10715 5.34733-.4372c.69367 1.75265 1.58942 4.3039 2.70087 7.64598 2.76692-2.78247 5.52219-5.32207 8.24832-7.64598" fill="#004990" fill-rule="evenodd"/>
   <path clip-rule="evenodd" d="m468.6152 140.69818l-2.13933 1.5117c-1.2863-.5052-2.47352-.75391-3.57523-.75391-1.22414 0-2.19179.18848-2.93988.59263-.69562.37502-1.05703.87826-1.05703 1.50783 0 .56154.72089 1.43398 2.18013 2.60371.22734.1943 1.00457.75779 2.29089 1.67491 1.81482 1.21249 2.69892 2.40165 2.69892 3.57138 0 1.37957-.87633 2.50654-2.60955 3.35956-1.7507.85689-4.00272 1.28242-6.78714 1.28242-2.91071 0-5.32788-.50714-7.30593-1.53114l2.02661-1.72155c1.81677.81996 3.45867 1.23385 4.96649 1.23385 1.29409 0 2.36666-.2254 3.20995-.68203.84912-.45662 1.2591-1.0337 1.2591-1.74098 0-.74615-.58097-1.59526-1.76819-2.54348-.035-.0155-.94045-.66065-2.70281-1.94501-1.78179-1.27466-2.65034-2.44826-2.65034-3.49364 0-1.21053.81804-2.19956 2.45021-2.97678 1.63023-.78306 3.71514-1.16973 6.22365-1.16973 2.29864 0 4.37773.40222 6.22948 1.22026" fill="#004990" fill-rule="evenodd"/>
   <path clip-rule="evenodd" d="m212.4255 44.013028l-9.16933 8.613622c-5.54164-2.873798-10.63831-4.309726-15.28029-4.309726-5.20937 0-9.40641 1.136695-12.56972 3.396484-3.05838 2.176237-4.58758 5.048092-4.58758 8.625282 0 3.227435 3.11085 8.186146 9.35004 14.891676 1.01429 1.132809 4.30195 4.305839 9.84359 9.532693 7.70232 6.975617 11.54377 13.75887 11.54377 20.386681 0 7.92189-3.73652 14.32235-11.20179 19.19751-7.48082 4.8771-17.15535 7.32148-29.045 7.32148-12.44729 0-22.86603-2.92432-31.24842-8.76323l8.66803-9.79501c7.69648 4.71 14.77315 7.06111 21.22219 7.06111 5.54357 0 10.13311-1.31352 13.75498-3.925 3.62383-2.61343 5.43865-5.92053 5.43865-9.92519 0-4.26115-2.54735-9.097452-7.64597-14.499182-.105-.08355-3.9658-3.785097-11.54766-11.110465-7.58574-7.31371-11.37666-13.972606-11.37666-19.982517 0-6.878462 3.50334-12.540564 10.52366-16.978533 7.02807-4.447685 15.91761-6.658895 26.66278-6.658895 9.84942 0 18.74284 2.298649 26.66473 6.92121" fill="#004990" fill-rule="evenodd"/>
   <path clip-rule="evenodd" d="m291.20332 64.776658l-15.97591 65.320132h-20.03109l2.71836-10.97445c-6.56952 4.78772-11.9421 8.10065-16.13524 9.93491-4.18537 1.73904-8.82348 2.61148-13.92792 2.61148-7.5838 0-13.58593-2.27339-17.99087-6.79685-4.30389-4.52929-6.4607-10.66356-6.4607-18.42612 0-11.570971 4.59148-21.680757 13.75498-30.296323 9.17128-8.621394 19.87371-12.93695 32.10338-12.93695 8.58835 0 15.28806 3.002041 20.03886 9.013895l1.85952-7.449724m-5.42116 18.812788c0-3.126396-1.32323-5.658215-3.90946-7.57408-2.61537-1.915865-5.95161-2.873799-10.02818-2.873799-7.46915 0-13.86184 3.307103-19.18585 9.93491-5.2016 6.524823-7.81502 14.411739-7.81502 23.635483 0 9.58516 4.02214 14.37288 12.06451 14.37288 7.92383 0 14.93636-4.52152 21.05315-13.58788 5.20742-7.661517 7.82085-15.633927 7.82085-23.907514" fill="#004990" fill-rule="evenodd"/>
   <path clip-rule="evenodd" d="m361.99903 36.427288l-5.43865 8.502867c-2.93209-.878266-5.54553-1.309627-7.79754-1.309627-4.07462 0-7.24765 1.130865-9.51327 3.39454-2.14513 2.263675-3.84532 6.190617-5.0986 11.761394l-1.36016 5.998253 25.04616-.303119-8.73215 9.066358h-18.35423l-13.73943 56.554946h-20.03886l13.74333-56.554946-19.72798.116578 9.53074-8.879823h12.24133l1.35821-5.998253c1.80123-7.760615 5.30847-13.762754 10.52754-18.033619 6.10707-4.877101 13.52182-7.309823 22.25397-7.309823 5.41533 0 10.47314.998737 15.09959 2.994269" fill="#004990" fill-rule="evenodd"/>
   <path clip-rule="evenodd" d="m385.58399 43.488399c0 3.050617-1.2902 5.664045-3.90556 7.838339-2.58817 2.086855-5.8195 3.138055-9.66094 3.138055-3.05646 0-5.54941-.748082-7.4847-2.226756-1.80512-1.558342-2.71642-3.571361-2.71642-6.011855 0-3.048674 1.29604-5.609639 3.91335-7.696494 2.61148-2.1024 5.81949-3.136112 9.68425-3.136112 2.9282 0 5.37648.777227 7.28651 2.347226 1.93335 1.476733 2.88351 3.400371 2.88351 5.747597m-6.43543 21.288259l-15.80298 65.318192h-20.03111l15.78162-65.318192z" fill="#2e3192" fill-rule="evenodd"/>
   <path clip-rule="evenodd" d="m268.23819 155.31782l5.4406-8.48732c2.92627.8666 5.54358 1.29797 7.7917 1.29797 4.08433 0 7.2457-1.12504 9.52298-3.38677 2.14515-2.27339 3.84145-6.18868 5.09861-11.7614l1.35626-6.00991 2.04022-8.74769 13.74722-56.57244h20.03109l-13.74138 56.57244-2.04022 8.74769-1.35821 6.00991c-1.8051 7.7509-5.31818 13.76081-10.5392 18.0278-6.0993 4.87515-13.50626 7.31954-22.24425 7.31954-5.43476.001-10.47896-1.00652-15.10542-3.00982" fill="#004990" fill-rule="evenodd"/>
   <path clip-rule="evenodd" d="m12.497352 173.51272h-8.924514l-.31672 1.46896h3.621879l-2.187895 10.17585h1.686584l2.187895-10.17585h3.619937" fill="#004990" fill-rule="evenodd"/>
   <path clip-rule="evenodd" d="m15.291482 185.15752h1.564172l.909356-4.28836c.213736-1.04147 1.167783-3.14582 3.10308-3.14582.959875 0 1.542796.66648 1.542796 1.54669 0 .18653-.02332.51685-.08355.80637l-1.043428 5.08112h1.564171l.934616-4.47877c.10493-.49354.205965-1.05703.205965-1.55639 0-1.809-1.185272-2.6659-2.844653-2.6659-1.064801 0-2.104343.41387-2.687264 1.26688h-.02332l1.043429-5.07335h-1.56417" fill="#004990" fill-rule="evenodd"/>
   <path clip-rule="evenodd" d="m31.279051 180.09389c.332265-1.25911 1.325173-2.36861 2.603712-2.36861 1.185271 0 1.80511.70923 1.80511 1.70991 0 .20984-.01749.40609-.04274.6587m.44302 3.48586c-.769455.31284-1.616633.51879-2.397747.51879-1.521422 0-2.621199-.51879-2.621199-2.3103 0-.17488.01749-.34393.04469-.52463h5.99048c.08355-.50131.151559-.99485.151559-1.55834 0-2.02078-1.150296-3.24881-3.204119-3.24881-3.003984 0-4.649763 2.71253-4.649763 5.0753 0 2.99815 1.853687 3.83173 3.915282 3.83173.851065 0 1.706015-.14768 2.52016-.3517l.250656-1.43204z" fill="#004990" fill-rule="evenodd"/>
   <path clip-rule="evenodd" d="m50.585382 185.15753h1.686583l2.502673-11.64481h-1.684641" fill="#004990" fill-rule="evenodd"/>
   <path clip-rule="evenodd" d="m58.880339 185.15752h1.573886l.901583-4.28836c.211795-1.04147 1.165842-3.14582 3.101138-3.14582.97542 0 1.556398.66648 1.556398 1.54669 0 .18653-.03692.51685-.08355.80637l-1.05703 5.08112h1.573886l.926844-4.47877c.101038-.49354.204022-1.05703.204022-1.55639 0-1.809-1.185271-2.6659-2.831051-2.6659-1.494219 0-2.411348.75002-2.91266 1.54668h-.02915l.260372-1.35432h-1.461188c-.06607.49744-.167104.95405-.231226 1.31158" fill="#004990" fill-rule="evenodd"/>
   <path clip-rule="evenodd" d="m73.204641 177.91571h1.869232l-.730594 3.55775c-.102984.47606-.303118 1.45536-.303118 1.99748 0 .91325.555717 1.89255 2.036335 1.89255.450791 0 1.187215-.0427 1.538911-.18459l.229281-1.29797c-.295346.13216-.765569.21568-1.103663.21568-.792772 0-1.12698-.31479-1.12698-.91519 0-.30117.167104-1.22608.248713-1.60303l.790829-3.66268h2.353056l.24677-1.26884h-2.345284l.536287-2.54347-1.684641.58486-.415817 1.95861h-1.898377" fill="#004990" fill-rule="evenodd"/>
   <path clip-rule="evenodd" d="m85.086505 180.09389c.328378-1.25911 1.309627-2.36861 2.597882-2.36861 1.183329 0 1.793452.70923 1.793452 1.70991.0039.20984-.0059.40609-.04469.6587m.454678 3.48586c-.767512.31284-1.620518.51879-2.409405.51879-1.51948 0-2.621199-.51879-2.621199-2.3103 0-.17488.01749-.34393.0583-.52463h5.992424c.08355-.50131.14573-.99485.14573-1.55834 0-2.02078-1.154183-3.24881-3.202177-3.24881-3.013699 0-4.661421 2.71253-4.661421 5.0753 0 2.99815 1.853687 3.83173 3.921112 3.83173.847178 0 1.70407-.14768 2.525988-.3517l.250656-1.43204z" fill="#004990" fill-rule="evenodd"/>
   <path clip-rule="evenodd" d="m95.977404 185.15752h1.575827l.876325-4.18343c.225396-1.04925 1.169727-3.15749 3.112794-3.15749.11075 0 .36141.0545.66842.171l.34586-1.38541c-.30312-.12054-.56932-.14573-.71699-.14573-1.48062 0-2.407462.75002-2.908772 1.54668h-.0272l.27203-1.35432h-1.476733c-.06412.49744-.167104.95405-.229282 1.31158" fill="#004990" fill-rule="evenodd"/>
   <path clip-rule="evenodd" d="m106.18046 185.15752h1.56805l.89964-4.28836c.22346-1.04147 1.16584-3.14582 3.10503-3.14582.97153 0 1.55639.66648 1.55639 1.54669-.002.18653-.0389.51685-.0835.80637l-1.05508 5.08112h1.57388l.93462-4.47877c.10298-.49354.19431-1.05703.19431-1.55639 0-1.809-1.18333-2.6659-2.83494-2.6659-1.48062 0-2.39969.75002-2.90489 1.54668h-.033l.27203-1.35432h-1.47284c-.0641.49744-.16711.95405-.23123 1.31158" fill="#004990" fill-rule="evenodd"/>
   <path clip-rule="evenodd" d="m121.63562 178.43645c.70728-.41582 1.69047-.71117 2.60566-.71117 1.16001 0 1.95472.4644 1.95472 1.68658 0 .19043-.0466.37697-.0836.54602-.37695-.0214-.79471-.0447-1.12698-.0447-2.85825 0-5.05197.68784-5.05197 3.09726 0 1.60497 1.28825 2.35499 2.72418 2.35499 1.14058 0 2.24619-.60429 2.76887-1.62052h.0389c-.10298.49743-.20596.99485-.28757 1.41261h1.45341c.21957-1.4981.56349-3.07976.89187-4.66336.0816-.40027.14573-.95404.14573-1.33101 0-2.03827-1.65938-2.70474-3.37122-2.70474-.61984 0-1.62052.17875-2.37249.42941m1.08423 7.20879c-.75002 0-1.39512-.40222-1.39512-1.14641 0-1.5564 1.77791-1.87507 2.95929-1.87507h1.2047c-.18847 1.43787-1.18332 3.02148-2.76887 3.02148" fill="#004990" fill-rule="evenodd"/>
   <path clip-rule="evenodd" d="m133.5 177.91571h1.87117l-.74419 3.55775c-.0972.47606-.29341 1.45536-.29341 1.99748 0 .91325.54406 1.89255 2.03828 1.89255.44302 0 1.18333-.0427 1.53114-.18459l.239-1.29797c-.30895.13216-.76946.21568-1.10172.21568-.81026 0-1.14447-.31479-1.14447-.91519 0-.30117.16711-1.22608.2526-1.60303l.78694-3.66268h2.35307l.25065-1.26884h-2.33557l.5324-2.54347-1.68659.58486-.42164 1.95861h-1.89644" fill="#004990" fill-rule="evenodd"/>
   <path clip-rule="evenodd" d="m143.38439 185.15557h1.56417l1.809-8.5087h-1.57584m2.45216-3.66462h-1.76819l-.36918 1.76625h1.77208z" fill="#004990" fill-rule="evenodd"/>
   <path clip-rule="evenodd" d="m151.82509 181.5745c0 2.52017 1.53501 3.78704 3.88029 3.78704 3.04674 0 4.7508-2.30642 4.7508-5.1841 0-2.34723-1.48061-3.72293-3.76761-3.72293-3.12055.001-4.86348 2.287-4.86348 5.11999m1.67686.11858c0-1.77015 1.02593-3.97163 3.12057-3.97163 1.42037 0 2.16652 1.18721 2.16652 2.45603 0 1.91393-1.33101 3.91723-3.0992 3.91723-1.49422.001-2.18789-1.04731-2.18789-2.40163" fill="#004990" fill-rule="evenodd"/>
   <path clip-rule="evenodd" d="m165.53537 185.15752h1.56416l.90936-4.28836c.21374-1.04147 1.1678-3.14582 3.10309-3.14582.96182 0 1.54863.66648 1.54863 1.54669 0 .18653-.0272.51685-.0816.80637l-1.05121 5.08112h1.56418l.93656-4.47877c.10304-.49354.20402-1.05703.20402-1.55639 0-1.809-1.18527-2.6659-2.83688-2.6659-1.49034 0-2.40552.75002-2.90489 1.54668h-.0389l.27009-1.35432h-1.46314c-.0757.49744-.16904.95405-.24094 1.31158" fill="#004990" fill-rule="evenodd"/>
   <path clip-rule="evenodd" d="m180.99832 178.43645c.69367-.41582 1.68853-.71117 2.60176-.71117 1.14835 0 1.95667.4644 1.95667 1.68658 0 .19043-.0602.37697-.0836.54602-.39249-.0214-.81025-.0447-1.14253-.0447-2.84854 0-5.03448.68784-5.03448 3.09726 0 1.60497 1.2863 2.35499 2.7203 2.35499 1.12697 0 2.23258-.60429 2.76886-1.62052h.0272c-.0893.49743-.19236.99485-.27591 1.41261h1.45148c.21373-1.4981.57125-3.07976.88215-4.66336.0836-.40027.14573-.95404.14573-1.33101 0-2.03827-1.64579-2.70474-3.36929-2.70474-.61012 0-1.61856.17875-2.37442.42941m1.092 7.20879c-.7578 0-1.40096-.40222-1.40096-1.14641 0-1.5564 1.78569-1.87507 2.96901-1.87507h1.20472c-.18072 1.43787-1.18139 3.02148-2.77277 3.02148" fill="#004990" fill-rule="evenodd"/>
   <path clip-rule="evenodd" d="m192.53237 185.15753h1.56223l2.66006-12.50754h-1.57194" fill="#004990" fill-rule="evenodd"/>
   <path clip-rule="evenodd" d="m217.21905 180.85362h-4.62256l3.52083-5.54163m-8.09481 9.84553h1.85368l1.87312-2.93597h5.72233l.62178 2.93597h1.72352l-2.57652-11.64481h-1.64966z" fill="#004990" fill-rule="evenodd"/>
   <path clip-rule="evenodd" d="m224.9855 185.15557h1.57777l1.79151-8.5087h-1.55835m2.45215-3.66462h-1.76818l-.37308 1.76625h1.77014z" fill="#004990" fill-rule="evenodd"/>
   <path clip-rule="evenodd" d="m233.23382 185.15752h1.57583l.87632-4.18343c.2254-1.04925 1.17556-3.15749 3.1128-3.15749.1127 0 .35946.0545.67036.171l.34392-1.38541c-.29923-.12054-.56737-.14573-.71894-.14573-1.47868 0-2.40163.75002-2.90489 1.54668h-.0272l.2662-1.35432h-1.4709c-.0641.49744-.16905.95405-.23511 1.31158" fill="#004990" fill-rule="evenodd"/>
   <path clip-rule="evenodd" d="m243.53792 185.15753h1.57389l2.64646-12.50754h-1.56417" fill="#004990" fill-rule="evenodd"/>
   <path clip-rule="evenodd" d="m251.88922 185.15557h1.56417l1.80705-8.5087h-1.57194m2.44826-3.66462h-1.76236l-.37113 1.76625h1.77986z" fill="#004990" fill-rule="evenodd"/>
   <path clip-rule="evenodd" d="m260.14143 185.15752h1.56611l.89382-4.28836c.22928-1.04147 1.17361-3.14582 3.11668-3.14582.95987 0 1.56029.66648 1.56029 1.54669 0 .18653-.0409.51685-.10304.80637l-1.05703 5.08112h1.57972l.92489-4.47877c.1127-.49354.20402-1.05703.20402-1.55639 0-1.809-1.18721-2.6659-2.83494-2.6659-1.47867 0-2.40551.75002-2.91071 1.54668h-.0252l.26619-1.35432h-1.45924c-.0738.49744-.16322.95405-.24288 1.31158" fill="#004990" fill-rule="evenodd"/>
   <path clip-rule="evenodd" d="m276.13095 180.09389c.33226-1.25911 1.31156-2.36861 2.61924-2.36861 1.18139 0 1.78958.70923 1.78958 1.70991 0 .20984-.0195.40609-.0545.6587m.45857 3.48586c-.7714.31284-1.6283.51879-2.40163.51879-1.51754 0-2.6348-.51879-2.6348-2.3103 0-.17488.0214-.34393.0602-.52463h5.99049c.0855-.50131.16127-.99485.16127-1.55834 0-2.02078-1.17167-3.24881-3.20412-3.24881-3.0273 0-4.67114 2.71253-4.67114 5.0753 0 2.99815 1.84981 3.83173 3.92889 3.83173.85106 0 1.70407-.14768 2.51821-.3517l.2526-1.43204z" fill="#004990" fill-rule="evenodd"/>
   <path clip-rule="evenodd" d="m295.58689 181.5745c0 2.52017 1.53503 3.78704 3.87447 3.78704 3.05256 0 4.76052-2.30642 4.76052-5.1841 0-2.34723-1.50782-3.72293-3.78315-3.72293-3.13029.001-4.85184 2.287-4.85184 5.11999m1.67104.11858c0-1.77015 1.03177-3.97163 3.10502-3.97163 1.42815 0 2.17817 1.18721 2.17817 2.45603 0 1.91393-1.34265 3.91723-3.10502 3.91723-1.47673.001-2.17817-1.04731-2.17817-2.40163" fill="#004990" fill-rule="evenodd"/>
   <path clip-rule="evenodd" d="m310.16961 185.15752h1.5739l1.57971-7.24376h2.27533l.26037-1.26494h-2.25978l.1671-.77333c.22539-1.024.59263-2.16458 1.95861-2.16458l.76362.16515.31284-1.24745c-.40804-.12054-.80831-.18652-1.20082-.18652-2.44632 0-3.07587 1.95472-3.39066 3.37316l-.20402.83357h-2.05187l-.24483 1.26494h2.03827" fill="#004990" fill-rule="evenodd"/>
   <path clip-rule="evenodd" d="m335.94636 180.85362h-4.63421l3.52278-5.54163m-8.09871 9.84553h1.84786l1.87312-2.93597h5.72233l.61401 2.93597h1.7235l-2.56484-11.64481h-1.66327z" fill="#004990" fill-rule="evenodd"/>
   <path clip-rule="evenodd" d="m344.4842 185.15752h1.57972l1.55252-7.24376h2.30253l.23316-1.26494h-2.23647l.1671-.77333c.20015-1.024.56933-2.16458 1.96056-2.16458l.75974.16515.32256-1.24745c-.41776-.12054-.83164-.18652-1.20471-.18652-2.4677 0-3.07782 1.95472-3.3887 3.37316l-.20597.83357h-2.07326l-.21956 1.26494h2.03632" fill="#004990" fill-rule="evenodd"/>
   <path clip-rule="evenodd" d="m361.5288 176.65077l-.2934 1.50781h-.037c-.48577-1.20081-1.63023-1.69824-2.8019-1.69824-2.44439-.0427-4.2767 2.16264-4.2767 5.30459 0 2.21314 1.66715 3.39453 3.16526 3.39453 1.37763 0 2.02274-.34003 2.54348-.96181h.0388l-.22538.91907c-.31478 1.31156-1.16973 2.48906-2.95736 2.48906-.91713 0-1.95083-.33614-2.72613-.75974l-.35557 1.41067c.92878.46052 2.31808.61401 2.85631.61401 2.6076 0 4.2048-1.40289 4.57593-3.09142l1.93918-9.12853m-7.18742 5.0306c0-1.64383.89382-3.95609 2.70281-3.95609 1.3757 0 2.11211 1.04344 2.11211 2.31226 0 2.79218-1.5389 3.85505-2.90294 3.85505-1.3174 0-1.91198-1.09784-1.91198-2.21122" fill="#004990" fill-rule="evenodd"/>
   <path clip-rule="evenodd" d="m367.70582 185.15752h1.57388l.90936-4.28836c.20207-1.04147 1.16778-3.14582 3.09337-3.14582.96958 0 1.55639.66648 1.55639 1.54669 0 .18653-.0427.51685-.0738.80637l-1.05508 5.08112h1.55445l.94433-4.47877c.0875-.49354.20597-1.05703.20597-1.55639 0-1.809-1.18722-2.6659-2.83883-2.6659-1.07646 0-2.11211.41387-2.69892 1.26688h-.0234l1.03372-5.07335h-1.55252" fill="#004990" fill-rule="evenodd"/>
   <path clip-rule="evenodd" d="m383.17847 178.43645c.69367-.41582 1.68465-.71117 2.58817-.71117 1.14447 0 1.96445.4644 1.96445 1.68658 0 .19043-.0525.37697-.0932.54602-.39056-.0214-.79278-.0447-1.12699-.0447-2.85825 0-5.04225.68784-5.04225 3.09726 0 1.60497 1.28048 2.35499 2.73 2.35499 1.12698 0 2.21704-.60429 2.75334-1.62052h.0388c-.0932.49743-.20403.99485-.27592 1.41261h1.44177c.22345-1.4981.58291-3.07976.89187-4.66336.0661-.40027.14767-.95404.14767-1.33101 0-2.03827-1.65161-2.70474-3.36928-2.70474-.61012 0-1.61664.17875-2.37832.42941m1.09783 7.20879c-.75973 0-1.40679-.40222-1.40679-1.14641 0-1.5564 1.77208-1.87507 2.96124-1.87507h1.20665c-.18847 1.43787-1.18722 3.02148-2.7611 3.02148" fill="#004990" fill-rule="evenodd"/>
   <path clip-rule="evenodd" d="m394.60761 185.15752h1.57776l.88993-4.28836c.21957-1.04147 1.16584-3.14582 3.10892-3.14582.96376 0 1.56221.66648 1.56221 1.54669 0 .18653-.0407.51685-.0932.80637l-1.06285 5.08112h1.57583l.94433-4.47877c.0952-.49354.18653-1.05703.18653-1.55639 0-1.809-1.18332-2.6659-2.83105-2.6659-1.48256 0-2.41329.75002-2.91266 1.54668h-.0155l.25648-1.35432h-1.4573c-.0738.49744-.16321.95405-.24482 1.31158" fill="#004990" fill-rule="evenodd"/>
   <path clip-rule="evenodd" d="m408.61713 185.15557h1.57388l1.79928-8.5087h-1.57972m2.46964-3.66462h-1.77984l-.37308 1.76625h1.77987z" fill="#004990" fill-rule="evenodd"/>
   <path clip-rule="evenodd" d="m422.76655 176.91696c-.69756-.28173-1.46119-.4605-2.22288-.4605-1.40872 0-3.20411.68785-3.20411 2.49685 0 2.15097 2.91072 2.37248 2.91072 3.82589 0 .96377-.94433 1.31741-1.79346 1.31741-.67619 0-1.34071-.22929-1.94695-.48382l-.29924 1.35431c.62957.2118 1.12893.39444 2.47936.39444 1.33489 0 3.23133-.66647 3.23133-2.7203 0-2.37053-2.91072-2.43855-2.91072-3.8939 0-.84912.90741-1.024 1.59137-1.024.56738 0 1.25523.2118 1.70601.42942" fill="#004990" fill-rule="evenodd"/>
   <path clip-rule="evenodd" d="m427.48238 177.91571h1.86728l-.7403 3.55775c-.0952.47606-.2934 1.45536-.2934 1.99748 0 .91325.55571 1.89255 2.04022 1.89255.43914 0 1.17944-.0427 1.53114-.18459l.24094-1.29797c-.31478.13216-.77723.21568-1.10949.21568-.79472 0-1.12699-.31479-1.12699-.91519 0-.30117.16905-1.22608.239-1.60303l.80055-3.66268h2.35305l.23317-1.26884h-2.32974l.53435-2.54347-1.68465.58486-.42941 1.95861h-1.88478" fill="#004990" fill-rule="evenodd"/>
   <path clip-rule="evenodd" d="m438.82019 178.43645c.70144-.41582 1.68658-.71117 2.58816-.71117 1.17555 0 1.97026.4644 1.97026 1.68658 0 .19043-.0622.37697-.0991.54602-.36335-.0214-.79471-.0447-1.12697-.0447-2.85243 0-5.03644.68784-5.03644 3.09726 0 1.60497 1.27076 2.35499 2.72419 2.35499 1.12504 0 2.23647-.60429 2.75527-1.62052h.037c-.0913.49743-.20402.99485-.27786 1.41261h1.44369c.22346-1.4981.5771-3.07976.88993-4.66336.0895-.40027.14574-.95404.14574-1.33101 0-2.03827-1.64384-2.70474-3.37123-2.70474-.6043 0-1.60303.17875-2.3686.42941m1.10173 7.20879c-.76558 0-1.41651-.40222-1.41651-1.14641 0-1.5564 1.78374-1.87507 2.96513-1.87507h1.20275c-.18459 1.43787-1.18916 3.02148-2.75137 3.02148" fill="#004990" fill-rule="evenodd"/>
   <path clip-rule="evenodd" d="m450.24737 185.15752h1.57777l.88604-4.28836c.23123-1.04147 1.17556-3.14582 3.11474-3.14582.96376 0 1.56223.66648 1.56223 1.54669 0 .18653-.0409.51685-.0991.80637l-1.03565 5.08112h1.55252l.95015-4.47877c.0913-.49354.1943-1.05703.1943-1.55639 0-1.809-1.17749-2.6659-2.84659-2.6659-1.48061 0-2.38803.75002-2.8874 1.54668h-.037l.26037-1.35432h-1.46507c-.072.49744-.16128.95405-.24289 1.31158" fill="#004990" fill-rule="evenodd"/>
   <path clip-rule="evenodd" d="m386.13194 42.411939c0 3.174973-1.35821 5.904985-4.08433 8.182261-2.72225 2.185952-6.09541 3.272128-10.11368 3.272128-3.19051 0-5.78645-.777228-7.80725-2.325854-1.87312-1.626348-2.83688-3.726804-2.83688-6.270281 0-3.190519 1.36016-5.873897 4.08628-8.054019 2.72223-2.180123 6.09346-3.270184 10.10784-3.270184 3.07977 0 5.62713.812203 7.63627 2.456038 2.00523 1.538911 3.01175 3.548043 3.01175 6.009911m-6.74051 22.230646l-16.48888 68.213365h-20.92879l16.48499-68.213365z" fill="#004990" fill-rule="evenodd"/>
</svg>
