<?xml version="1.0" encoding="utf-8"?>
<!-- Generator: Adobe Illustrator 22.1.0, SVG Export Plug-In . SVG Version: 6.00 Build 0)  -->
<svg version="1.1" id="Слой_1" xmlns="http://www.w3.org/2000/svg" xmlns:xlink="http://www.w3.org/1999/xlink" x="0px" y="0px"
	 width="592.827px" height="169.396px" viewBox="0 0 592.827 169.396" enable-background="new 0 0 592.827 169.396"
	 xml:space="preserve">
<g>
	<g>
		<path fill="#35323B" d="M415.201,164.041c-1.428,1.522-3.167,2.795-5.218,3.819s-4.938,1.536-8.659,1.536
			c-5.33,0-9.567-1.632-12.711-4.897c-3.144-3.265-4.716-7.479-4.716-12.643c0-4.794,1.509-8.877,4.526-12.249
			c3.017-3.371,7.471-5.057,13.361-5.057c2.457,0,4.625,0.271,6.505,0.811c1.879,0.541,3.667,1.529,5.366,2.966l-2.9,2.391
			c-1.265-1.024-2.66-1.796-4.188-2.315c-1.526-0.52-3.202-0.779-5.027-0.779c-4.029,0-7.169,1.352-9.418,4.055
			c-2.25,2.703-3.374,5.911-3.374,9.624c0,4.837,1.269,8.55,3.808,11.139c2.538,2.589,5.416,3.884,8.632,3.884
			c3.126,0,5.394-0.385,6.803-1.152c1.409-0.769,2.701-1.8,3.876-3.095L415.201,164.041z"/>
		<path fill="#35323B" d="M432.52,135.426h4.472l14.094,33.438h-5.096l-4.525-11.395h-14.338l-4.553,11.395h-4.58L432.52,135.426z
			 M428.075,154.887h12.439l-6.098-15.279L428.075,154.887z"/>
		<path fill="#35323B" d="M460.462,168.863h-4.607v-33.438h11.519c4.499,0,7.896,0.828,10.19,2.485s3.442,4.016,3.442,7.074
			c0,2.02-0.886,3.873-2.656,5.559c-1.771,1.686-3.821,2.777-6.152,3.275l11.871,15.044h-5.475l-10.95-14.34
			c-0.234,0.028-2.629,0.058-7.182,0.086V168.863z M460.462,151.856h4.418c3.632,0,6.437-0.647,8.415-1.942
			c1.979-1.294,2.968-2.958,2.968-4.993c0-2.333-0.827-4.019-2.479-5.057c-1.653-1.039-4.378-1.559-8.172-1.559h-5.149V151.856z"/>
		<path fill="#35323B" d="M519.573,167.412c-1.482,0.456-3.415,0.9-5.801,1.334c-2.385,0.434-5.158,0.65-8.32,0.65
			c-5.366,0-9.59-1.632-12.67-4.897c-3.081-3.265-4.621-7.479-4.621-12.643c0-4.794,1.509-8.877,4.526-12.249
			c3.017-3.371,7.272-5.057,12.765-5.057c3.036,0,5.397,0.271,7.088,0.811c1.688,0.541,3.482,1.529,5.38,2.966l-2.9,2.391
			c-1.409-1.067-2.805-1.85-4.188-2.348c-1.382-0.498-3.221-0.747-5.515-0.747c-3.705,0-6.682,1.352-8.931,4.055
			c-2.25,2.703-3.374,5.911-3.374,9.624c0,4.837,1.269,8.55,3.808,11.139c2.538,2.589,5.587,3.884,9.147,3.884
			c1.626,0,3.22-0.1,4.783-0.299c1.562-0.199,2.968-0.441,4.215-0.726v-12.526h4.607V167.412z"/>
		<path fill="#35323B" d="M543.693,169.396c-5.999,0-10.62-1.636-13.862-4.907c-3.244-3.272-4.865-7.604-4.865-12.996
			c0-4.865,1.829-8.905,5.488-12.12s8.18-4.822,13.564-4.822c5.872,0,10.416,1.607,13.633,4.822
			c3.216,3.215,4.824,7.462,4.824,12.739c0,4.908-1.78,9.016-5.339,12.323C553.576,167.743,549.096,169.396,543.693,169.396z
			 M543.938,166.324c3.523,0,6.681-1.28,9.473-3.841c2.791-2.562,4.187-6.338,4.187-11.331c0-3.187-1.093-6.238-3.279-9.154
			s-5.583-4.375-10.19-4.375c-4.444,0-7.937,1.306-10.475,3.916c-2.539,2.61-3.809,5.936-3.809,9.976
			c0,4.752,1.337,8.407,4.012,10.969C536.529,165.044,539.89,166.324,543.938,166.324z"/>
	</g>
	<path fill="#94364E" d="M505.6,5.525c0.6,8.6-1.2,16.5-1.7,24.4c-0.6,10.3-2.4,20.5-3.4,30.8c-1.2,11.9-2.3,23.9-3.2,35.8
		c-0.4,5.6-0.5,11.3,3.2,17c-8.4,0-15.9,0-24.2,0c1.1-13.7,3.9-27,4.6-40.3c-1.2-2-3-1.5-4.6-1.5c-8.7-0.1-17.4,0-26.1-0.2
		c-3.5-0.1-6.1,0.9-8.6,3.7c-10,11.2-20.4,22.1-30.4,33.4c-3.6,4.1-7.6,5.9-12.9,5.3c-2.8-0.3-5.6,0-8.5,0c-0.5-2.3,1.5-2.7,2.5-3.7
		c15-14,28.5-29.4,42.4-44.5c13.7-14.9,27.3-29.9,41-44.8c3.6-4,7.4-7.9,10.8-12.1c2.2-2.6,4.6-3.6,8-3.4
		C497.8,5.725,501.4,5.525,505.6,5.525z M486.9,26.525c-11.6,11.5-22.5,23.2-33.3,36.5c10.2,0,18.9,0,28.3,0
		C484.4,50.925,486,38.825,486.9,26.525z"/>
	<path fill="#35323B" d="M383.4,113.725c-6.1,1.1-12.2,0.5-17.5,0.6c-2.3-1.3-0.4-3.3-2.4-4.2c-0.3,0.1-1,0.2-1.6,0.5
		c-6,3-12.2,4.9-18.9,5.1c-10.3,0.3-18.5-4.8-22.4-14.1c-8.8-20.8,1.9-50.3,25.3-58.2c6.1-2.1,12.5-1.9,18.7,0.2
		c1.7,0.6,3.4,1.3,6,2.4c1.4-12.2,3.7-23.9-3.4-35.3c8-1.9,15.3-4.1,23.2-5.2c1.1,6.8-0.6,12.9-1.3,18.8
		c-1.6,12.8-2.5,25.7-3.9,38.5c-1.2,11.2-2.5,22.4-3.8,33.6C380.8,101.725,381.3,107.025,383.4,113.725z M364.3,104.525
		c0.3-1.2,0.6-1.8,0.7-2.5c1.7-15.4,3.4-30.8,5.2-46.2c0.4-3.1-0.9-4.5-4-5.4c-11.2-3.1-23.1,3.9-27.6,14.3
		c-3.2,7.5-4.4,15.3-3.6,23.4c0.8,8,6.3,14.3,14.3,16.4C354.1,105.825,359,105.925,364.3,104.525z"/>
	<path fill="#35323B" d="M306.2,105.825c-6.2,6.6-14.2,8.8-22.6,9.8c-3.7,0.4-7.6,0.5-11.2-0.2c-10.4-1.9-17.9-7.6-21.6-17.9
		c-7-19.5,2.6-43.2,21.1-52.1c6.8-3.3,14-4,21.3-3c5.5,0.8,10.2,3.4,13.4,8.2c5.1,7.4,7.5,15.4,4.8,24.9c-14.9,0-29.7,0-44.2,0
		c-4.2,16,3.8,28,19.3,29.8C292.9,106.125,299.5,105.725,306.2,105.825z M294.3,67.725c0.8-6.5,0.7-9.2-0.5-12.5
		c-1.8-5.1-6.2-7.7-11.5-7.1c-9.2,1-16,11.1-13.5,20.1C277.2,68.825,285.6,67.925,294.3,67.725z"/>
	<path fill="#35323B" d="M150.9,10.325c8.6-1.9,15.6-3.4,23.1-5.1c-2.5,36.7-8.1,72.2-9.7,108.3c-3.8,1-7.6,0.4-11.3,0.6
		c-3.5,0.2-6.9,0-11.5,0c9.7-14.5,8.4-30.5,10.5-45.7c1.4-10.2,2.2-20.5,3-30.8C155.7,28.625,156.8,19.425,150.9,10.325z"/>
	<path fill="#35323B" d="M210.2,6.125c-3,35.9-8,71.2-9.8,107.4c0,0.2-0.1,0.3-0.3,0.3c-6.7,0.5-13.5,0.2-20.1,0
		c-0.2,0-0.3-0.1-0.3-0.3c-0.2-0.7-0.4-1.2-0.2-1.5c4.7-8.1,6.2-17,6.9-26.3c1.3-15.2,3.2-30.3,4.8-45.5c0.6-6.1,1.5-12.1,0.6-18.3
		c-0.6-3.8-2-7.4-4-11.1c-0.1-0.2,0-0.4,0.2-0.5c7.3-2.1,14.2-3.6,21.9-4.8C210,5.725,210.2,5.925,210.2,6.125z"/>
	<path fill="#94364E" d="M546.2,47.525c6.8-2.6,13.2-3.5,19.4-5c2,2.6,0.1,5.5,1.5,8.1c6.2-3,11.7-7.9,19.2-7.9
		c2.2,0,4.2,0.3,6.1,1.7c1.5,4.6-1.5,9-0.7,14.5c-6.2-3.9-12.2-5.3-18.7-4.7c-6.5,0.6-7,0.8-7.8,7.4c-0.9,7-1.4,14-2,21
		c-0.9,10.2-1.8,20.5-2.7,31.1c-6.7,0-13.2,0-20.7,0c6.6-10.2,7.7-21.5,8.6-32.9C549.3,69.625,551.6,58.425,546.2,47.525z"/>
	<path fill="#35323B" d="M212.8,113.625c6.6-9.9,8.1-20.2,8.8-30.8c0.4-6.8,1.8-13.5,2.4-20.2c0.5-5.4,0.4-10.8-3.1-16
		c6.7-2.5,13.2-3.8,20.7-5c-1.4,24.4-6,47.9-6.3,72.1C228.1,113.625,221.1,113.625,212.8,113.625z"/>
	<path fill="#94364E" d="M529.2,113.825c-7.4,0-14.2,0-22,0c7.3-10.2,7.6-21.7,8.8-33c1.2-11.1,4.3-22.3-0.5-33.8
		c6.2-2.6,12.7-3,19.5-5.1C533.5,66.125,528.8,89.425,529.2,113.825z"/>
	<path fill="#35323B" d="M0,112.125c4.4-3.8,8-6.7,11.1-10.2c1.7-2,3.6-2.2,5.7-1.8c8.3,1.6,15,2,26.2,1.9
		c-6.8,11.2-4.9,7.9-7.4,12.2c-0.9,1.6-6.4,1.5-8.1,1.5C17.4,115.625,10.8,115.625,0,112.125z"/>
	<path fill="#35323B" d="M128.3,0.625c-2.3-0.5-4.7-0.7-7-0.6c-5.9,0.3-11.4,2.8-17.4,2.5c-0.6,0-1.4,0.5-1.8,1
		c-2.7,3.1-6.4,6.5-9.5,10.6c5,2.2,10.8,0.3,15.3-0.6c1.8-0.4,3.6-1,5.5-0.9c3.8,0.2,5.3,1.5,5,5.2c-1,12.6-2.3,25.2-3.5,38
		c0,0-2.5-0.6-9.6-0.4s-23.6,2.5-25.4,2.7c-6.8,1-13.6,1-20.4-0.3c-6.1-1.2-6.9-1.2-13.1,5.5c-0.6,0.7-1.2,1.4-2.8,3.4
		c9.3,1.1,21.5,3.3,33.1,1.3c18.9-3.2,33-4.8,37-1.5c-1.7,15.9-3.4,31.4-5.2,47.5c7.4,0.1,14.1,0.9,21.2-0.4
		c-2.5-6.1-3.9-12-3.2-18.2c1.4-12.8,2.8-25.6,4.2-38.4c1.7-15.1,3.5-30.3,5.1-45.4C136.6,4.025,135.3,2.325,128.3,0.625z"/>
	<path fill="#35323B" d="M53.2,86.725c-5.8,8.9-1.3,1.9-7.2,10.8c-7.8,0.6-12.5,0-17.7-0.4c-3.4-0.2-6.8-1.1-10.7-1.8
		c2.5-3.5,4.9-5.8,7.2-8.4c1.6-1.8,3.9-1.7,5.9-1.3C38,87.025,44.4,87.325,53.2,86.725z"/>
	<path fill="#35323B" d="M31.8,80.425c7.7-10,7.9-9.7,18.2-8.4c4.4,0.6,8.8,1.1,12.8,1.1c-5.9,8.5,0,0-5.9,8.5
		C50.5,82.725,37.7,82.525,31.8,80.425z"/>
	<path fill="#35323B" d="M90,31.425c-6,8.5,0,0-6,8.5c-1.5,1.8-7.4,1.5-15.4-0.1C75.2,30.225,74.8,29.125,90,31.425z"/>
	<path fill="#35323B" d="M234.7,33.825c-4.9,0-8-3.1-7.9-7.9c0.1-4.3,3.4-7.7,7.6-7.7c4.1,0,8.1,4,8.1,8.1
		C242.5,30.525,239,33.825,234.7,33.825z"/>
	<path fill="#35323B" d="M56.9,52.525c2.3-3.7,4.3-5.6,6.7-7.8c1.3-1.2,3-1,4.6-0.7c3.2,0.7,3.4,0.8,12.5,1.4c-6.1,9.3,0,0-6.1,9.3
		C67.6,54.825,60.8,53.825,56.9,52.525z"/>
	<path fill="#94364E" d="M528.5,19.325c4.2,0.1,7,3,7,7.2s-3,7.2-7,7.2c-4.5,0-7.4-3.1-7.3-7.6
		C521.3,21.825,524.1,19.325,528.5,19.325z"/>
	<path fill="#35323B" d="M81.5,25.925c6.7-9.2,7.9-7,15.8-5.9c-4.5,7.2-0.2,0.6-4.5,7.2C90.9,27.225,84.7,26.725,81.5,25.925z"/>
	
		<linearGradient id="SVGID_1_" gradientUnits="userSpaceOnUse" x1="79.434" y1="129.7907" x2="100.4932" y2="119.5726" gradientTransform="matrix(1 0 0 -1 0 174)">
		<stop  offset="0" style="stop-color:#94364E"/>
		<stop  offset="0.0813" style="stop-color:#963A52"/>
		<stop  offset="0.1628" style="stop-color:#9D465C"/>
		<stop  offset="0.2445" style="stop-color:#A75A6E"/>
		<stop  offset="0.3264" style="stop-color:#B67687"/>
		<stop  offset="0.4084" style="stop-color:#CA9BA7"/>
		<stop  offset="0.4906" style="stop-color:#E1C7CE"/>
		<stop  offset="0.5714" style="stop-color:#FDFBFC"/>
		<stop  offset="0.577" style="stop-color:#FFFFFF"/>
		<stop  offset="0.6096" style="stop-color:#F4EAEC"/>
		<stop  offset="0.7134" style="stop-color:#D2AAB4"/>
		<stop  offset="0.8081" style="stop-color:#B77888"/>
		<stop  offset="0.8904" style="stop-color:#A45469"/>
		<stop  offset="0.9571" style="stop-color:#983E55"/>
		<stop  offset="1" style="stop-color:#94364E"/>
	</linearGradient>
	<path fill="url(#SVGID_1_)" d="M98.2,51.425c0-0.1,0.1-0.1,0.1-0.2c0-0.1,0.1-0.1,0.1-0.2c0-0.1,0.1-0.1,0.1-0.2
		c0-0.1,0.1-0.1,0.1-0.2c0-0.1,0.1-0.1,0.1-0.2c0-0.1,0.1-0.1,0.1-0.2c0-0.1,0.1-0.1,0.1-0.2c0-0.1,0.1-0.1,0.1-0.2
		c0-0.1,0.1-0.1,0.1-0.2c0-0.1,0.1-0.1,0.1-0.2c0-0.1,0.1-0.1,0.1-0.2c0-0.1,0.1-0.1,0.1-0.2c0-0.1,0.1-0.1,0.1-0.2
		c0-0.1,0.1-0.1,0.1-0.2c0-0.1,0.1-0.1,0.1-0.2c0-0.1,0.1-0.1,0.1-0.2c0-0.1,0.1-0.1,0.1-0.2c0-0.1,0.1-0.1,0.1-0.2
		c0-0.1,0.1-0.1,0.1-0.2c0-0.1,0.1-0.1,0.1-0.2c0-0.1,0.1-0.1,0.1-0.2c0-0.1,0.1-0.1,0.1-0.2c0-0.1,0.1-0.1,0.1-0.2
		c0-0.1,0.1-0.1,0.1-0.2c0-0.1,0.1-0.1,0.1-0.2c0-0.1,0.1-0.1,0.1-0.2c0-0.1,0.1-0.1,0.1-0.2c0-0.1,0.1-0.1,0.1-0.2
		c0-0.1,0.1-0.1,0.1-0.2c0-0.1,0.1-0.1,0.1-0.2c0-0.1,0.1-0.1,0.1-0.2c0-0.1,0.1-0.1,0.1-0.2c0-0.1,0.1-0.1,0.1-0.2
		c0-0.3-0.2-0.5-0.4-0.5c-2.6-0.3-5.5,0.3-8.4,0.9c-2.4,0.5-5.8,1-7.7,0.9c0-0.125-5.6,8.4-5.6,8.5
		C84.5,54.125,91.6,52.425,98.2,51.425z"/>
	
		<linearGradient id="SVGID_2_" gradientUnits="userSpaceOnUse" x1="67.0001" y1="104.1939" x2="88.078" y2="93.9667" gradientTransform="matrix(1 0 0 -1 0 174)">
		<stop  offset="0" style="stop-color:#94364E"/>
		<stop  offset="0.0813" style="stop-color:#963A52"/>
		<stop  offset="0.1628" style="stop-color:#9D465C"/>
		<stop  offset="0.2445" style="stop-color:#A75A6E"/>
		<stop  offset="0.3264" style="stop-color:#B67687"/>
		<stop  offset="0.4084" style="stop-color:#CA9BA7"/>
		<stop  offset="0.4906" style="stop-color:#E1C7CE"/>
		<stop  offset="0.5714" style="stop-color:#FDFBFC"/>
		<stop  offset="0.577" style="stop-color:#FFFFFF"/>
		<stop  offset="0.6096" style="stop-color:#F4EAEC"/>
		<stop  offset="0.7134" style="stop-color:#D2AAB4"/>
		<stop  offset="0.8081" style="stop-color:#B77888"/>
		<stop  offset="0.8904" style="stop-color:#A45469"/>
		<stop  offset="0.9571" style="stop-color:#983E55"/>
		<stop  offset="1" style="stop-color:#94364E"/>
	</linearGradient>
	<path fill="url(#SVGID_2_)" d="M88.5,76.725L88.5,76.725c0.1-0.1,0.1-0.2,0.1-0.3c0-0.1,0.1-0.1,0.1-0.2s0.1-0.1,0.1-0.2
		s0.1-0.1,0.1-0.2s0.1-0.1,0.1-0.2s0.1-0.1,0.1-0.2s0.1-0.1,0.1-0.2s0.1-0.1,0.1-0.2s0.1-0.1,0.1-0.2s0.1-0.1,0.1-0.2
		s0.1-0.1,0.1-0.2s0.1-0.1,0.1-0.2s0.1-0.1,0.1-0.2s0.1-0.1,0.1-0.2s0.1-0.1,0.1-0.2s0.1-0.1,0.1-0.2s0.1-0.1,0.1-0.2
		s0.1-0.1,0.1-0.2s0.1-0.1,0.1-0.2s0.1-0.1,0.1-0.2s0.1-0.1,0.1-0.2s0.1-0.1,0.1-0.2s0.1-0.1,0.1-0.2s0.1-0.1,0.1-0.2
		s0.1-0.1,0.1-0.2s0.1-0.1,0.1-0.2s0.1-0.1,0.1-0.2s0.1-0.1,0.1-0.2s0.1-0.1,0.1-0.2s0.1-0.1,0.1-0.2s0.1-0.1,0.1-0.2
		s0.1-0.1,0.1-0.2s0.1-0.1,0.1-0.2s0.1-0.1,0.1-0.2s0.1-0.1,0.1-0.2s0.1-0.1,0.1-0.2c-8.4,1-18.706,3.5-25.006,4
		c0,0-4.094,6.9-4.094,7C69.6,79.925,80.1,77.125,88.5,76.725z"/>
	
		<linearGradient id="SVGID_3_" gradientUnits="userSpaceOnUse" x1="60.4261" y1="90.76" x2="81.5511" y2="80.51" gradientTransform="matrix(1 0 0 -1 0 174)">
		<stop  offset="0" style="stop-color:#94364E"/>
		<stop  offset="0.0813" style="stop-color:#963A52"/>
		<stop  offset="0.1628" style="stop-color:#9D465C"/>
		<stop  offset="0.2445" style="stop-color:#A75A6E"/>
		<stop  offset="0.3264" style="stop-color:#B67687"/>
		<stop  offset="0.4084" style="stop-color:#CA9BA7"/>
		<stop  offset="0.4906" style="stop-color:#E1C7CE"/>
		<stop  offset="0.5714" style="stop-color:#FDFBFC"/>
		<stop  offset="0.577" style="stop-color:#FFFFFF"/>
		<stop  offset="0.6096" style="stop-color:#F4EAEC"/>
		<stop  offset="0.7134" style="stop-color:#D2AAB4"/>
		<stop  offset="0.8081" style="stop-color:#B77888"/>
		<stop  offset="0.8904" style="stop-color:#A45469"/>
		<stop  offset="0.9571" style="stop-color:#983E55"/>
		<stop  offset="1" style="stop-color:#94364E"/>
	</linearGradient>
	<path fill="url(#SVGID_3_)" d="M58.1,86.925l-0.1,0.1c-0.1,0.1-0.1,0.1-0.1,0.2c-0.1,0.1-0.1,0.1-0.1,0.2c-0.1,0.1-0.1,0.1-0.1,0.2
		c-0.1,0.1-0.1,0.1-0.1,0.2c-0.1,0.1-0.1,0.1-0.1,0.2c-0.1,0.1-0.1,0.1-0.1,0.2c-0.1,0.1-0.1,0.1-0.1,0.2c-0.1,0.1-0.1,0.1-0.1,0.2
		c-0.1,0.1-0.1,0.1-0.1,0.2c-0.1,0.1-0.1,0.1-0.1,0.2c-0.1,0.1-0.1,0.1-0.1,0.2c-0.1,0.1-0.1,0.1-0.1,0.2c-0.1,0.1-0.1,0.1-0.1,0.2
		c-0.1,0.1-0.1,0.1-0.1,0.2c-0.1,0.1-0.1,0.1-0.1,0.2c-0.1,0.1-0.1,0.1-0.1,0.2c-0.1,0.1-0.1,0.1-0.1,0.2c-0.1,0.1-0.1,0.1-0.2,0.2
		s-0.1,0.1-0.1,0.2c-0.1,0.1-0.1,0.1-0.1,0.2c-0.1,0.1-0.1,0.1-0.2,0.2s-0.1,0.1-0.1,0.2c-0.1,0.1-0.1,0.1-0.1,0.2
		c-0.1,0.1-0.1,0.1-0.2,0.2s-0.1,0.1-0.1,0.2c-0.1,0.1-0.1,0.1-0.1,0.2c-0.1,0.1-0.1,0.1-0.2,0.2s-0.1,0.1-0.1,0.2
		c-0.1,0.1-0.1,0.1-0.1,0.2c-0.1,0.1-0.1,0.1-0.2,0.2s-0.1,0.1-0.1,0.2c-0.1,0.1-0.1,0.1-0.1,0.2c-0.1,0.1-0.1,0.1-0.2,0.2
		c-0.1,0.1-0.1,0.1-0.1,0.2c-0.1,0.1-0.1,0.1-0.1,0.2c-0.1,0.1-0.1,0.1-0.2,0.2l0,0c8.2-0.8,21.1-4.6,30.3-4.4v-0.1
		c0-0.1,0.1-0.1,0.1-0.2s0.1-0.1,0.1-0.2s0.1-0.1,0.1-0.2s0.1-0.1,0.1-0.2s0.1-0.1,0.1-0.2s0.1-0.1,0.1-0.2s0.1-0.1,0.1-0.2
		s0.1-0.1,0.1-0.2s0.1-0.1,0.1-0.2s0.1-0.1,0.1-0.2s0.1-0.1,0.1-0.2s0.1-0.1,0.1-0.2s0.1-0.1,0.1-0.2s0.1-0.1,0.1-0.2
		s0.1-0.1,0.1-0.2s0.1-0.1,0.1-0.2s0.1-0.1,0.1-0.2s0.1-0.1,0.1-0.2s0.1-0.1,0.1-0.2s0.1-0.1,0.1-0.2s0.1-0.1,0.1-0.2
		s0.1-0.1,0.1-0.2s0.1-0.1,0.1-0.2s0.1-0.1,0.1-0.2s0.1-0.1,0.1-0.2s0.1-0.1,0.1-0.2s0.1-0.1,0.1-0.2s0.1-0.1,0.1-0.2
		s0.1-0.1,0.1-0.2s0.1-0.1,0.1-0.2s0.1-0.1,0.1-0.2s0.1-0.1,0.1-0.2s0.1-0.1,0.1-0.2s0.1-0.1,0.1-0.2s0.1-0.1,0.1-0.2
		s0.1-0.1,0.1-0.2s0.1-0.1,0.1-0.2c0,0,0,0,0-0.1C77.5,82.825,66,85.925,58.1,86.925z"/>
	
		<linearGradient id="SVGID_4_" gradientUnits="userSpaceOnUse" x1="52.6008" y1="74.6322" x2="73.7259" y2="64.3822" gradientTransform="matrix(1 0 0 -1 0 174)">
		<stop  offset="0" style="stop-color:#94364E"/>
		<stop  offset="0.0813" style="stop-color:#963A52"/>
		<stop  offset="0.1628" style="stop-color:#9D465C"/>
		<stop  offset="0.2445" style="stop-color:#A75A6E"/>
		<stop  offset="0.3264" style="stop-color:#B67687"/>
		<stop  offset="0.4084" style="stop-color:#CA9BA7"/>
		<stop  offset="0.4906" style="stop-color:#E1C7CE"/>
		<stop  offset="0.5714" style="stop-color:#FDFBFC"/>
		<stop  offset="0.577" style="stop-color:#FFFFFF"/>
		<stop  offset="0.6096" style="stop-color:#F4EAEC"/>
		<stop  offset="0.7134" style="stop-color:#D2AAB4"/>
		<stop  offset="0.8081" style="stop-color:#B77888"/>
		<stop  offset="0.8904" style="stop-color:#A45469"/>
		<stop  offset="0.9571" style="stop-color:#983E55"/>
		<stop  offset="1" style="stop-color:#94364E"/>
	</linearGradient>
	<path fill="url(#SVGID_4_)" d="M49,100.925C49,101.025,49,101.025,49,100.925c-0.1,0.1-0.2,0.2-0.2,0.3c-0.1,0.1-0.1,0.1-0.1,0.2
		c-0.1,0.1-0.1,0.1-0.1,0.2c-0.1,0.1-0.1,0.1-0.1,0.2c-0.1,0.1-0.1,0.1-0.1,0.2c-0.1,0.1-0.1,0.1-0.1,0.2c-0.1,0.1-0.1,0.1-0.1,0.2
		c-0.1,0.1-0.1,0.1-0.1,0.2c-0.1,0.1-0.1,0.1-0.1,0.2c-0.1,0.1-0.1,0.1-0.1,0.2c-0.1,0.1-0.1,0.1-0.1,0.2c-0.1,0.1-0.1,0.1-0.1,0.2
		c-0.1,0.1-0.1,0.1-0.1,0.2c-0.1,0.1-0.1,0.1-0.1,0.2c-0.1,0.1-0.1,0.1-0.1,0.2c-0.1,0.1-0.1,0.1-0.1,0.2c-0.1,0.1-0.1,0.1-0.2,0.2
		c-0.1,0.1-0.1,0.1-0.1,0.2c-0.1,0.1-0.1,0.1-0.1,0.2c-0.1,0.1-0.1,0.1-0.1,0.2c-0.1,0.1-0.1,0.1-0.1,0.2c-0.1,0.1-0.1,0.1-0.1,0.2
		c-0.1,0.1-0.1,0.1-0.1,0.2c-0.1,0.1-0.1,0.1-0.2,0.2c-0.1,0.1-0.1,0.1-0.1,0.2c-0.1,0.1-0.1,0.1-0.1,0.2c-0.1,0.1-0.1,0.1-0.1,0.2
		c-0.1,0.1-0.1,0.1-0.2,0.2c-0.1,0.1-0.1,0.1-0.1,0.2c-0.1,0.1-0.1,0.1-0.2,0.2c-0.1,0.1-0.1,0.1-0.1,0.2c-0.1,0.1-0.1,0.1-0.1,0.2
		c-0.1,0.1-0.1,0.1-0.1,0.2c-0.1,0.1-0.1,0.1-0.1,0.2c-0.1,0.1-0.1,0.1-0.2,0.2c-0.1,0.1-0.1,0.1-0.1,0.2c-0.1,0.1-0.1,0.1-0.1,0.2
		c-0.1,0.1-0.1,0.1-0.1,0.2c-0.1,0.1-0.1,0.1-0.1,0.2c-0.1,0.1-0.1,0.1-0.1,0.2c-0.1,0.1-0.1,0.1-0.1,0.2c-0.1,0.1-0.1,0.1-0.1,0.2
		c-0.1,0.1-0.1,0.1-0.1,0.2c-0.1,0.1-0.1,0.1-0.1,0.2c-0.1,0.1-0.1,0.1-0.1,0.2c-0.1,0.1-0.1,0.1-0.1,0.2c-0.1,0.1-0.1,0.1-0.1,0.2
		c-0.1,0.1-0.1,0.1-0.1,0.2c-0.1,0.1-0.1,0.1-0.1,0.2c-0.1,0.1-0.1,0.1-0.2,0.2c-0.1,0.1-0.1,0.1-0.1,0.2c-0.1,0.1-0.1,0.1-0.1,0.2
		c-0.1,0.1-0.1,0.1-0.1,0.2c-0.1,0.1-0.1,0.2-0.2,0.3c-0.1,0.1-0.1,0.1-0.1,0.2c-0.1,0.1-0.2,0.2-0.2,0.4c0,0.3,0.2,0.5,0.5,0.5
		c0.2,0,0.4,0,0.6,0c3.6,0,8.6-1,13.9-2c6.6-1.3,14.1-2.8,19.8-2.5c0.3,0,0.5-0.2,0.5-0.4c0-0.1,0.1-0.1,0.1-0.2s0.1-0.1,0.1-0.2
		s0.1-0.1,0.1-0.2s0.1-0.1,0.1-0.2s0.1-0.1,0.1-0.2s0.1-0.1,0.1-0.2s0.1-0.1,0.1-0.2s0.1-0.1,0.1-0.2s0.1-0.1,0.1-0.2
		s0.1-0.1,0.1-0.2s0.1-0.1,0.1-0.2s0.1-0.1,0.1-0.2s0.1-0.1,0.1-0.2s0.1-0.1,0.1-0.2s0.1-0.1,0.1-0.2s0.1-0.1,0.1-0.2
		s0.1-0.1,0.1-0.2s0.1-0.1,0.1-0.2s0.1-0.1,0.1-0.2s0.1-0.1,0.1-0.2s0.1-0.1,0.1-0.2s0.1-0.1,0.1-0.2s0.1-0.1,0.1-0.2
		s0.1-0.1,0.1-0.2s0.1-0.1,0.1-0.2s0.1-0.1,0.1-0.2s0.1-0.1,0.1-0.2s0.1-0.1,0.1-0.2s0.1-0.1,0.1-0.2s0.1-0.1,0.1-0.2
		s0.1-0.1,0.1-0.2s0.1-0.1,0.1-0.2s0.1-0.1,0.1-0.2s0.1-0.1,0.1-0.2s0.1-0.1,0.1-0.2s0.1-0.1,0.1-0.2s0.1-0.1,0.1-0.2
		s0.1-0.1,0.1-0.2s0.1-0.1,0.1-0.2s0.1-0.1,0.1-0.2s0.1-0.1,0.1-0.2s0.1-0.1,0.1-0.2s0.1-0.1,0.1-0.2s0.1-0.1,0.1-0.2
		s0.1-0.1,0.1-0.2s0.1-0.1,0.1-0.2s0.1-0.1,0.1-0.2s0.1-0.1,0.1-0.2s0.1-0.1,0.1-0.2s0.1-0.1,0.1-0.2s0.1-0.1,0.1-0.2
		s0.1-0.1,0.1-0.2s0.1-0.1,0.1-0.2s0.1-0.1,0.1-0.2s0.1-0.1,0.1-0.2s0.1-0.1,0.1-0.2s0.1-0.1,0.1-0.2s0.1-0.1,0.1-0.2
		s0.1-0.1,0.1-0.2c0,0,0-0.1,0.1-0.2C70.8,96.425,56.6,100.825,49,100.925z"/>
</g>
</svg>
