<?xml version="1.0" encoding="utf-8"?>
<!-- Generator: Adobe Illustrator 12.0.0, SVG Export Plug-In  -->
<!DOCTYPE svg PUBLIC "-//W3C//DTD SVG 1.1//EN" "http://www.w3.org/Graphics/SVG/1.1/DTD/svg11.dtd" [
	<!ENTITY ns_flows "http://ns.adobe.com/Flows/1.0/">
	<!ENTITY ns_svg "http://www.w3.org/2000/svg">
	<!ENTITY ns_xlink "http://www.w3.org/1999/xlink">
]>
<svg  version="1.1" xmlns="&ns_svg;" xmlns:xlink="&ns_xlink;" xmlns:a="http://ns.adobe.com/AdobeSVGViewerExtensions/3.0/"
	 width="251" height="86" viewBox="-0.7333984 -0.4121094 251 86" enable-background="new -0.7333984 -0.4121094 251 86"
	 xml:space="preserve">
<defs>
</defs>
<path fill="#E60004" d="M5.6967773,26.6455078c0,0,3.5698242-18.112793,14.7021484-12.9008789
	c0.3481445,0.2402344,14.8393555,3.652832-13.4833984,56.059082c0,0,26.9047852-77.3208008,43.2446289-65.2553711
	c8.7944336,6.4824219-16.6464844,33.4101563-12.3139648,58.6879883c0,0,13.6699219-17.8212891,16.46875-21.956543
	c5.2285156-7.7226563,15.5029297-12.2333984,17.9946289,5.1313477c0,0-5.0375977-15.9345703-13.6240234-4.7084961
	c-6.8208008,8.9038086-5.6850586,19.9291992-3.5991211,19.3237305c2.0727539-0.6054688,8.3378906-12.7373047,8.3378906-12.7373047
	s1.3847656-0.3193359,3.9555664,1.8691406c0,0-3.9013672,5.9296875-0.8876953,10.0507813
	c0,0,11.5146484-14.4746094,15.2958984-32.1391602c0,0-32.6020508,0.7607422-19.8564453-8.875
	c0,0-5.5556641,7.0839844,20.1835938,4.9711914c0,0,2.8071289-17.3520508,2.0898438-24.1660156
	c0,0,3.9057617,0.3374023,3.9223633,7.0195313c0.0209961,6.6894531-1.2851563,16.7607422-1.2768555,16.8974609
	c0.0039063,0.1430664,37.2783203-3.2255859,45.2304688-2.8500977c0,0,0.8427734,0.5366211,2.8115234,0.909668
	c0,0-36.1469727,4.0385742-48.3740234,5.9956055c0,0-0.6630859,5.5893555-1.1772461,7.5585938
	c0,0-0.4892578,10.871582-1.4760742,16.4682617c0,0,4.8964844-2.8720703,8.84375-15.6738281
	c0.1328125-0.4213867-0.0083008-0.2763672-0.0083008-0.2763672l3.7817383,1.0307617c0,0-3.9472656,9.5717773-3.0600586,18.3237305
	c0,0,8.6118164-7.5742188,11.331543-22.7041016l3.9389648,1.5917969c0,0-4.4116211,8.1850586-4.7558594,17.6669922
	c0,0,13.4501953-8.9472656,16.4853516-22.6777344l3.5908203-1.4760742c0,0,10.6020508,6.4433594,6.8823242,14.3359375
	c-3.7275391,7.894043-15.4360352,19.8725586-8.7236328,20.8344727c6.7089844,0.9580078,10.5234375-5.1699219,12.9863281-7.0361328
	c0,0-5.3535156,12.0244141-14.7397461,9.4453125c-9.3994141-2.5703125,0.7753906-14.7939453,4.0258789-18.7617188
	c3.2509766-3.9804688,8.2880859-8.9868164-1.6210938-16.1435547c0,0-4.1259766,21.0068359-20.4492188,26.2558594
	c0,0-5.1455078,0.8173828-1.5712891-7.9023438c0,0-2.5957031,8.5576172-8.2177734,12.1728516l-2.5458984-1.3427734
	c0,0-2.1645508-3.1513672-0.480957-8.90625c0,0-1.1611328,4.4863281-7.6166992,8.2587891l-2.8237305-1.3261719
	c0,0,1.9404297-12.8789063,1.3847656-18.7080078c0,0-13.2924805,40.5830078-17.5507813,18.7988281
	c0,0-12.6831055,18.4091797-12.6337891-4.0302734c0,0-16.0249023,24.6201172-17.5463867,13.0859375
	c0,0-3.0683594-18.1943359,7.5087891-37.5253906c0,0,11.6220703-22.0581055,6.1738281-22.3129883
	c0,0-12.6049805,3.7773438-27.2949219,43.7094727c0,0-13.2636719,41.6904297-19.043457,32.7714844
	c-1.7084961-6.15625,16.074707-45.7944336,16.3486328-46.0810547c0,0,8.6118164-17.847168,1.2851563-21.5644531
	C17.7495117,15.8320313,10.5268555,13.3862305,5.6967773,26.6455078"/>
<path fill="#E60004" d="M138.9560547,48.0195313c0,0,21.0996094,0.7128906,13.6328125-15.5693359
	c-7.9443359-17.3061523-35.3300781,32.9746094-14.3251953,32.0126953c0,0,8.5244141-0.2070313,11.8164063-5.1787109
	c0,0-25.7978516,16.7636719-8.7685547-19.6445313c0,0,7.9482422-13.2924805,8.7480469,0.043457
	C150.4082031,45.4150391,141.5136719,47.9648438,138.9560547,48.0195313"/>
<path fill="#E60004" d="M206.2617188,18.7861328c0,0-0.1660156-25.4077148-20.6025391-16.5141602
	c-20.4287109,8.8955078-35.359375,55.4243164-16.9248047,57.2495117c0,0,8.4287109,0.6464844,15.0009766-12.4150391
	c0,0-6.9902344,31.7363281,16.9414063-2.2089844c0,0-5.5185547,25.1464844,11.3808594,6.6591797
	c0,0,7.2353516-9.4746094,10.046875-19.9604492c-0.1787109,0.6674805,9.4404297,5.7236328,4.2626953,13.2592773
	c-6.6552734,9.703125-20.984375,27.7177734,10.9414063,18.1484375c0,0-24.1396484,6.1572266-14.9306641-8.6455078
	c9.2001953-14.8139648,13.5292969-16.1801758,0.3896484-25.8408203l-2.5,1.3164063c0,0-5.2324219,16.5478516-11.8662109,21.3359375
	c-6.6220703,4.7851563-8.1142578,1.3144531-3.9140625-11.9804688l-3.1386719-1.7597656
	c0,0-12.0488281,19.3671875-15.0048828,19.0146484c-2.953125-0.3486328,3.2089844-25.1987305,9.7597656-39.815918
	l-3.2841797-2.0258789c0,0-9.8388672,30.2490234-18.3427734,38.6035156
	c-8.9394531,8.7822266-8.7861328-6.0244141-6.7460938-15.7099609c2.3183594-10.9750977,7.8652344-26.8525391,23.2939453-33.6611328
	C191.0244141,3.8349609,202.9990234-1.2167969,206.2617188,18.7861328"/>
<path fill="#E60004" d="M202.7539063,31.3579102c0,0,2.8730469,2.6118164,5.9707031,3.515625
	c0,0-2.5751953-2.6054688-1.2314453-5.0166016C207.4931641,29.8569336,201.1123047,27.1889648,202.7539063,31.3579102"/>
<path fill="#E60004" d="M250,60.2089844l-1.6328125,0.0380859l-0.0791016-3.0683594l-1.7792969,1.8701172l-0.4521484,0.0078125
	l-1.8369141-1.7626953l0.0625,3.0478516L242.9882813,60.375l-0.1318359-5.7763672l0.9121094-0.0283203l2.8398438,2.7109375
	l2.6494141-2.8271484l0.609375-0.0078125L250,60.2089844z M242.1308594,55.7646484l-1.8994141,0.0498047l0.1123047,4.6181641
	l-1.4765625,0.0292969l-0.1152344-4.6230469l-1.8623047,0.0410156l-0.0332031-1.1435547l5.2402344-0.125L242.1308594,55.7646484z"/>
</svg>
