<?xml version="1.0" encoding="UTF-8"?>
<svg width="150px" height="23px" viewBox="0 0 150 23" version="1.1" xmlns="http://www.w3.org/2000/svg" xmlns:xlink="http://www.w3.org/1999/xlink">
    <!-- Generator: Sketch 49.1 (51147) - http://www.bohemiancoding.com/sketch -->
    <title>Alrosa_s</title>
    <desc>Created with Sketch.</desc>
    <defs></defs>
    <g id="AVIA" stroke="none" stroke-width="1" fill="none" fill-rule="evenodd">
        <g id="Alrosa_s">
            <path d="M104.844605,11.8994771 C104.903158,11.8994771 104.903158,11.8649771 104.891645,11.8176629 L103.780132,8.66337714 C103.745263,8.57006286 103.721579,8.53523429 103.686711,8.53523429 C103.663026,8.53523429 103.628487,8.58189143 103.604474,8.66337714 L102.575526,11.8176629 C102.552171,11.8761486 102.575526,11.8994771 102.610724,11.8994771 L104.844605,11.8994771 Z M104.142961,7.19170571 C104.318289,7.63560571 106.154474,12.4603486 106.867632,14.23562 C107.288684,15.2755486 107.627829,15.4628343 107.873224,15.53282 C108.048553,15.5906486 108.223882,15.6028057 108.341645,15.6028057 C108.411711,15.6028057 108.458421,15.6143057 108.458421,15.6724629 C108.458421,15.7431057 108.353158,15.7664343 108.223882,15.7664343 C108.048553,15.7664343 107.195263,15.7664343 106.388355,15.7431057 C106.166316,15.7312771 106.037697,15.7312771 106.037697,15.6612914 C106.037697,15.6143057 106.084079,15.5794771 106.119276,15.5794771 C106.142303,15.5794771 106.213026,15.5209914 106.213026,15.4158486 C106.213026,15.38102 106.213026,15.3110343 106.189342,15.2640486 L105.101513,12.3900343 C105.078487,12.3433771 105.054803,12.3200486 104.99625,12.3200486 L102.482105,12.3200486 C102.423882,12.3200486 102.388355,12.3555343 102.365329,12.4136914 L101.663684,14.4813914 C101.558421,14.7731629 101.499868,15.0537629 101.499868,15.2640486 C101.499868,15.4973343 101.745263,15.6028057 101.943947,15.6028057 L102.060724,15.6028057 C102.142961,15.6028057 102.177829,15.6261343 102.177829,15.6724629 C102.177829,15.7431057 102.107763,15.7664343 102.002171,15.7664343 C101.722237,15.7664343 101.219276,15.7312771 101.090658,15.7312771 C100.961382,15.7312771 100.318289,15.7664343 99.7689474,15.7664343 C99.6166447,15.7664343 99.5469079,15.7431057 99.5469079,15.6724629 C99.5469079,15.6261343 99.5936184,15.6028057 99.6521711,15.6028057 C99.73375,15.6028057 99.8975658,15.5906486 99.9906579,15.5794771 C100.529145,15.5094914 100.763026,15.0655914 100.973553,14.4813914 L103.628487,7.22653429 C103.768618,6.84112 103.815329,6.77146286 103.885395,6.77146286 C103.955461,6.77146286 104.002171,6.82962 104.142961,7.19170571 Z" id="Fill-1" fill="#626366"></path>
            <path d="M111.113224,12.4019614 C111.113224,14.1190757 111.160263,14.8665757 111.370789,15.07719 C111.557961,15.2641471 111.861579,15.3459614 112.774079,15.3459614 C113.394145,15.3459614 113.908618,15.3341329 114.189539,14.9957043 C114.341513,14.8084186 114.458618,14.5163186 114.493158,14.2942043 C114.505,14.20089 114.528684,14.1427329 114.59875,14.1427329 C114.656974,14.1427329 114.668816,14.18939 114.668816,14.3175329 C114.668816,14.4463329 114.587237,15.1468471 114.493158,15.4862614 C114.411579,15.7547043 114.376382,15.8013614 113.756316,15.8013614 C112.072434,15.8013614 111.300724,15.7313757 110.622434,15.7313757 C110.517171,15.7313757 109.827039,15.7662043 109.476053,15.7662043 C109.347763,15.7662043 109.289211,15.7432043 109.289211,15.6725614 C109.289211,15.6380614 109.312237,15.6025757 109.382303,15.6025757 C109.487895,15.6025757 109.628355,15.5795757 109.733947,15.5562471 C109.967829,15.50959 110.026053,15.2523186 110.072434,14.91389 C110.130987,14.4230043 110.130987,13.5000471 110.130987,12.3786329 L110.130987,10.3224329 C110.130987,8.50017571 110.130987,8.17291857 110.107632,7.79900429 C110.084605,7.40209 109.990855,7.21513286 109.604671,7.13331857 C109.511579,7.10999 109.312237,7.09816143 109.206974,7.09816143 C109.160592,7.09816143 109.113882,7.07483286 109.113882,7.02850429 C109.113882,6.95819 109.172434,6.93453286 109.300724,6.93453286 C109.827039,6.93453286 110.563882,6.97001857 110.622434,6.97001857 C110.680987,6.97001857 111.534605,6.93453286 111.885592,6.93453286 C112.013882,6.93453286 112.072434,6.95819 112.072434,7.02850429 C112.072434,7.07483286 112.025395,7.09816143 111.979342,7.09816143 C111.897105,7.09816143 111.733289,7.10999 111.593158,7.13331857 C111.254013,7.19180429 111.160263,7.39026143 111.136908,7.79900429 C111.113224,8.17291857 111.113224,8.50017571 111.113224,10.3224329 L111.113224,12.4019614 Z" id="Fill-3" fill="#626366"></path>
            <path d="M117.990921,11.3386057 C117.990921,11.39742 118.013947,11.4437486 118.0725,11.4789057 C118.247829,11.5840486 118.785658,11.6661914 119.300132,11.6661914 C119.581053,11.6661914 119.908684,11.6310343 120.177763,11.4437486 C120.587303,11.1634771 120.890921,10.53262 120.890921,9.64514857 C120.890921,8.18464857 120.119539,7.30834857 118.867895,7.30834857 C118.517237,7.30834857 118.201118,7.34383429 118.084013,7.37866286 C118.025461,7.40232 117.990921,7.44864857 117.990921,7.51896286 L117.990921,11.3386057 Z M117.054737,10.3223343 C117.054737,8.50007714 117.054737,8.17282 117.031711,7.79923429 C117.008684,7.40232 116.914934,7.21503429 116.52875,7.13322 C116.435329,7.10989143 116.236316,7.09839143 116.131053,7.09839143 C116.084671,7.09839143 116.037961,7.07473429 116.037961,7.02840571 C116.037961,6.95809143 116.096184,6.93476286 116.224803,6.93476286 C116.750789,6.93476286 117.487961,6.96992 117.546184,6.96992 C117.674803,6.96992 118.563947,6.93476286 118.926447,6.93476286 C119.663289,6.93476286 120.446513,7.00507714 121.066579,7.44864857 C121.358684,7.65926286 121.873487,8.23130571 121.873487,9.03729143 C121.873487,9.90209143 121.510987,10.7665629 120.458684,11.7361771 C121.417237,12.9624057 122.212632,14.0023343 122.890921,14.7268343 C123.5225,15.3921914 124.025132,15.5209914 124.317895,15.5679771 C124.539605,15.6028057 124.703421,15.6028057 124.773487,15.6028057 C124.832039,15.6028057 124.87875,15.6379629 124.87875,15.6724629 C124.87875,15.7431057 124.809013,15.7664343 124.598158,15.7664343 L123.767895,15.7664343 C123.113289,15.7664343 122.821184,15.7079486 122.516579,15.54432 C122.013947,15.2755486 121.604079,14.7031771 120.937961,13.8268771 C120.446513,13.1848486 119.897171,12.4018629 119.663289,12.0982629 C119.61625,12.0516057 119.581053,12.0282771 119.510987,12.0282771 L118.0725,12.00462 C118.013947,12.00462 117.990921,12.0401057 117.990921,12.0982629 L117.990921,12.3785343 C117.990921,13.4999486 117.990921,14.4232343 118.049474,14.9137914 C118.084013,15.25222 118.154737,15.5094914 118.505395,15.5561486 C118.668882,15.5794771 118.926447,15.6028057 119.031711,15.6028057 C119.101776,15.6028057 119.124803,15.6379629 119.124803,15.6724629 C119.124803,15.7312771 119.066579,15.7664343 118.937961,15.7664343 C118.294868,15.7664343 117.558026,15.7312771 117.499474,15.7312771 C117.487961,15.7312771 116.750789,15.7664343 116.400132,15.7664343 C116.271513,15.7664343 116.213289,15.7431057 116.213289,15.6724629 C116.213289,15.6379629 116.236316,15.6028057 116.306382,15.6028057 C116.411645,15.6028057 116.552434,15.5794771 116.657697,15.5561486 C116.891579,15.5094914 116.950132,15.25222 116.996513,14.9137914 C117.054737,14.4232343 117.054737,13.4999486 117.054737,12.3785343 L117.054737,10.3223343 Z" id="Fill-5" fill="#626366"></path>
            <path d="M129.394211,15.4861957 C130.446513,15.4861957 132.622171,14.8783386 132.622171,11.4789386 C132.622171,8.67523857 130.914276,7.16841 129.066579,7.16841 C127.113289,7.16841 125.651776,8.45345286 125.651776,11.01171 C125.651776,13.7339243 127.288947,15.4861957 129.394211,15.4861957 M129.148158,6.77149571 C131.779737,6.77149571 133.744539,8.42979571 133.744539,11.15201 C133.744539,13.7684243 131.896513,15.9300957 129.078092,15.9300957 C125.873487,15.9300957 124.540263,13.4414957 124.540263,11.3386386 C124.540263,9.44639571 125.920197,6.77149571 129.148158,6.77149571" id="Fill-7" fill="#626366"></path>
            <path d="M139.838289,8.53516857 C139.768224,8.53516857 139.756711,8.47668286 139.744539,8.38336857 C139.733026,8.24306857 139.662961,7.92764 139.592895,7.79916857 C139.522829,7.67069714 139.206711,7.18014 138.130724,7.18014 C137.323487,7.18014 136.692237,7.68219714 136.692237,8.53516857 C136.692237,9.20085429 137.008026,9.60992571 138.118882,10.4977257 L138.809013,11.0467686 C139.685987,11.7476114 140.154408,12.5072686 140.154408,13.4998829 C140.154408,14.8204114 139.183684,15.9299971 137.394211,15.9299971 C136.844211,15.9299971 136.306711,15.8478543 135.826776,15.61424 C135.663618,15.5327543 135.651118,15.4860971 135.651118,15.1706686 C135.651118,14.5864686 135.698158,14.1189114 135.709671,13.9326114 C135.721842,13.8038114 135.745197,13.7453257 135.803421,13.7453257 C135.873487,13.7453257 135.885,13.7804829 135.885,13.8737971 C135.885,13.97894 135.885,14.1425686 135.920526,14.3061971 C136.095855,15.1706686 136.867566,15.4972686 137.651447,15.4972686 C138.774474,15.4972686 139.323816,14.6912829 139.323816,13.9437829 C139.323816,13.1381257 138.984342,12.6705686 137.979079,11.8415829 L137.452763,11.4088543 C136.212961,10.3925829 135.932039,9.66808286 135.932039,8.87392571 C135.932039,7.62404 136.867566,6.77139714 138.352763,6.77139714 C138.809013,6.77139714 139.148158,6.81772571 139.440592,6.88804 C139.662961,6.93469714 139.756711,6.94652571 139.849803,6.94652571 C139.943553,6.94652571 139.966908,6.96985429 139.966908,7.02834 C139.966908,7.08682571 139.920526,7.47224 139.920526,8.26672571 C139.920526,8.45335429 139.896842,8.53516857 139.838289,8.53516857" id="Fill-9" fill="#626366"></path>
            <path d="M146.14227,11.8994771 C146.200822,11.8994771 146.200822,11.8649771 146.189309,11.8176629 L145.077796,8.66337714 C145.042928,8.57006286 145.019243,8.53523429 144.984375,8.53523429 C144.960691,8.53523429 144.926151,8.58189143 144.902138,8.66337714 L143.873191,11.8176629 C143.849836,11.8761486 143.873191,11.8994771 143.908388,11.8994771 L146.14227,11.8994771 Z M145.440625,7.19170571 C145.615954,7.63560571 147.452138,12.4603486 148.165296,14.23562 C148.586349,15.2755486 148.925493,15.4628343 149.170888,15.53282 C149.346217,15.5906486 149.521546,15.6028057 149.639309,15.6028057 C149.709375,15.6028057 149.756086,15.6143057 149.756086,15.6724629 C149.756086,15.7431057 149.650822,15.7664343 149.521546,15.7664343 C149.346217,15.7664343 148.492928,15.7664343 147.68602,15.7431057 C147.46398,15.7312771 147.335362,15.7312771 147.335362,15.6612914 C147.335362,15.6143057 147.381743,15.5794771 147.416941,15.5794771 C147.439967,15.5794771 147.510691,15.5209914 147.510691,15.4158486 C147.510691,15.38102 147.510691,15.3110343 147.487007,15.2640486 L146.399178,12.3900343 C146.376151,12.3433771 146.352467,12.3200486 146.293914,12.3200486 L143.77977,12.3200486 C143.721546,12.3200486 143.68602,12.3555343 143.662993,12.4136914 L142.961349,14.4813914 C142.856086,14.7731629 142.797533,15.0537629 142.797533,15.2640486 C142.797533,15.4973343 143.042928,15.6028057 143.241612,15.6028057 L143.358388,15.6028057 C143.440625,15.6028057 143.475493,15.6261343 143.475493,15.6724629 C143.475493,15.7431057 143.405428,15.7664343 143.299836,15.7664343 C143.019901,15.7664343 142.516941,15.7312771 142.388322,15.7312771 C142.259046,15.7312771 141.615954,15.7664343 141.066612,15.7664343 C140.914309,15.7664343 140.844572,15.7431057 140.844572,15.6724629 C140.844572,15.6261343 140.891283,15.6028057 140.949836,15.6028057 C141.031414,15.6028057 141.19523,15.5906486 141.288322,15.5794771 C141.826809,15.5094914 142.060691,15.0655914 142.271217,14.4813914 L144.926151,7.22653429 C145.066283,6.84112 145.112993,6.77146286 145.183059,6.77146286 C145.253125,6.77146286 145.299836,6.82962 145.440625,7.19170571 Z" id="Fill-11" fill="#626366"></path>
            <path d="M5.29786184,11.8994771 C5.35641447,11.8994771 5.35641447,11.8649771 5.34490132,11.8176629 L4.23371711,8.66337714 C4.19851974,8.57006286 4.17516447,8.53523429 4.13996711,8.53523429 C4.11661184,8.53523429 4.08174342,8.58189143 4.05805921,8.66337714 L3.02911184,11.8176629 C3.00575658,11.8761486 3.02911184,11.8994771 3.06430921,11.8994771 L5.29786184,11.8994771 Z M4.59621711,7.19170571 C4.77154605,7.63560571 6.60773026,12.4603486 7.32121711,14.23562 C7.74226974,15.2755486 8.08141447,15.4628343 8.32713816,15.53282 C8.50246711,15.5906486 8.67779605,15.6028057 8.79490132,15.6028057 C8.86496711,15.6028057 8.91167763,15.6143057 8.91167763,15.6724629 C8.91167763,15.7431057 8.80641447,15.7664343 8.67779605,15.7664343 C8.50246711,15.7664343 7.64851974,15.7664343 6.84161184,15.7431057 C6.61957237,15.7312771 6.49095395,15.7312771 6.49095395,15.6612914 C6.49095395,15.6143057 6.53766447,15.5794771 6.57286184,15.5794771 C6.59588816,15.5794771 6.66628289,15.5209914 6.66628289,15.4158486 C6.66628289,15.38102 6.66628289,15.3110343 6.64292763,15.2640486 L5.55509868,12.3900343 C5.53174342,12.3433771 5.50871711,12.3200486 5.45016447,12.3200486 L2.93536184,12.3200486 C2.87713816,12.3200486 2.84194079,12.3555343 2.81858553,12.4136914 L2.11694079,14.4813914 C2.01167763,14.7731629 1.953125,15.0537629 1.953125,15.2640486 C1.953125,15.4973343 2.19884868,15.6028057 2.39786184,15.6028057 L2.51463816,15.6028057 C2.59621711,15.6028057 2.63174342,15.6261343 2.63174342,15.6724629 C2.63174342,15.7431057 2.56134868,15.7664343 2.45608553,15.7664343 C2.17549342,15.7664343 1.67253289,15.7312771 1.54391447,15.7312771 C1.41496711,15.7312771 0.771875,15.7664343 0.222203947,15.7664343 C0.0702302632,15.7664343 0.000164473684,15.7431057 0.000164473684,15.6724629 C0.000164473684,15.6261343 0.046875,15.6028057 0.105427632,15.6028057 C0.187335526,15.6028057 0.350822368,15.5906486 0.444572368,15.5794771 C0.982401316,15.5094914 1.21661184,15.0655914 1.42680921,14.4813914 L4.08174342,7.22653429 C4.221875,6.84112 4.26891447,6.77146286 4.33898026,6.77146286 C4.40904605,6.77146286 4.45575658,6.82962 4.59621711,7.19170571 Z" id="Fill-13" fill="#626366"></path>
            <path d="M10.3040132,14.4815229 C10.19875,14.7732943 10.1401974,15.0535657 10.1401974,15.26418 C10.1401974,15.4974657 10.3859211,15.6026086 10.5849342,15.6026086 L10.7017105,15.6026086 C10.7832895,15.6026086 10.8184868,15.6259371 10.8184868,15.6725943 C10.8184868,15.7432371 10.7484211,15.7662371 10.6431579,15.7662371 C10.3625658,15.7662371 9.85927632,15.7314086 9.73098684,15.7314086 C9.60203947,15.7314086 8.95894737,15.7662371 8.40927632,15.7662371 C8.25730263,15.7662371 8.18690789,15.7432371 8.18690789,15.6725943 C8.18690789,15.6259371 8.23394737,15.6026086 8.2925,15.6026086 C8.37440789,15.6026086 8.53789474,15.59078 8.63164474,15.5796086 C9.16947368,15.5096229 9.40368421,15.0653943 9.61388158,14.4815229 L12.2688158,7.22666571 C12.4089474,6.84125143 12.4559868,6.77126571 12.5260526,6.77126571 C12.5961184,6.77126571 12.6428289,6.82975143 12.7832895,7.19150857 C12.9586184,7.63573714 14.7948026,12.46048 15.5082895,14.2357514 C15.9293421,15.27568 16.2684868,15.4626371 16.5142105,15.5326229 C16.6895395,15.59078 16.8648684,15.6026086 16.9819737,15.6026086 C17.0520395,15.6026086 17.09875,15.6141086 17.09875,15.6725943 C17.09875,15.7432371 16.9934868,15.7662371 16.8648684,15.7662371 C16.6895395,15.7662371 15.8355921,15.7662371 15.0286842,15.7432371 C14.8066447,15.7314086 14.6780263,15.7314086 14.6780263,15.6614229 C14.6780263,15.6141086 14.7128947,15.59078 14.7599342,15.5796086 C14.83,15.55628 14.9000658,15.4508086 14.83,15.26418 L13.7421711,12.3901657 L13.5319737,11.8177943 L12.4207895,8.66350857 C12.3622368,8.48838 12.3036842,8.48838 12.2451316,8.66350857 L11.2158553,11.8177943 L10.3040132,14.4815229 Z" id="Fill-15" fill="#626366"></path>
            <path d="M18.7718421,10.3224 C18.7718421,8.50014286 18.7718421,8.17288571 18.7484868,7.79897143 C18.7248026,7.40205714 18.6313816,7.2151 18.2451974,7.13328571 C18.1517763,7.10995714 17.9530921,7.09812857 17.8475,7.09812857 C17.8011184,7.09812857 17.7540789,7.0748 17.7540789,7.02847143 C17.7540789,6.95815714 17.8126316,6.9345 17.9415789,6.9345 C18.4675658,6.9345 19.1692105,6.96998571 19.2629605,6.96998571 C19.5201974,6.96998571 20.1984868,6.9345 20.7366447,6.9345 C22.1984868,6.9345 22.7248026,7.42538571 22.9116447,7.60051429 C23.1688816,7.84595714 23.4965132,8.37167143 23.4965132,8.9907 C23.4965132,10.6496571 22.2800658,11.7710714 20.6195395,11.7710714 C20.5609868,11.7710714 20.4323684,11.7710714 20.3738158,11.7595714 C20.3152632,11.7595714 20.2451974,11.7362429 20.2451974,11.6777571 C20.2451974,11.5841143 20.3152632,11.5726143 20.5609868,11.5726143 C21.6955263,11.5726143 22.5843421,10.7429714 22.5843421,9.66821429 C22.5843421,9.2828 22.5491447,8.50014286 21.9294079,7.86928571 C21.3096711,7.23842857 20.5961842,7.28541429 20.3274342,7.28541429 C20.1284211,7.28541429 19.9297368,7.30841429 19.8241447,7.3554 C19.7540789,7.37872857 19.7307237,7.46054286 19.7307237,7.57751429 L19.7307237,12.3786 C19.7307237,13.5000143 19.7307237,14.4229714 19.7892763,14.9138571 C19.8241447,15.2522857 19.8945395,15.5095571 20.2451974,15.5562143 C20.4090132,15.5795429 20.66625,15.6025429 20.7715132,15.6025429 C20.8415789,15.6025429 20.8649342,15.6380286 20.8649342,15.6725286 C20.8649342,15.7313429 20.8067105,15.7661714 20.6780921,15.7661714 C20.0346711,15.7661714 19.2981579,15.7313429 19.2396053,15.7313429 C19.2044079,15.7313429 18.4675658,15.7661714 18.1169079,15.7661714 C17.9879605,15.7661714 17.9294079,15.7431714 17.9294079,15.6725286 C17.9294079,15.6380286 17.9530921,15.6025429 18.0234868,15.6025429 C18.1284211,15.6025429 18.2688816,15.5795429 18.3741447,15.5562143 C18.6080263,15.5095571 18.6665789,15.2522857 18.7132895,14.9138571 C18.7718421,14.4229714 18.7718421,13.5000143 18.7718421,12.3786 L18.7718421,10.3224 Z" id="Fill-17" fill="#626366"></path>
            <path d="M29.8005921,15.4861957 C30.8532237,15.4861957 33.0285526,14.8783386 33.0285526,11.4789386 C33.0285526,8.67523857 31.3209868,7.16841 29.4732895,7.16841 C27.52,7.16841 26.0581579,8.45345286 26.0581579,11.01171 C26.0581579,13.7339243 27.6956579,15.4861957 29.8005921,15.4861957 M29.5551974,6.77149571 C32.1864474,6.77149571 34.15125,8.42979571 34.15125,11.15201 C34.15125,13.7684243 32.3032237,15.9300957 29.4848026,15.9300957 C26.2805263,15.9300957 24.9473026,13.4414957 24.9473026,11.3386386 C24.9473026,9.44639571 26.3272368,6.77149571 29.5551974,6.77149571" id="Fill-19" fill="#626366"></path>
            <path d="M35.6487171,11.2102657 C35.6487171,9.34135143 36.8066118,6.77126571 40.5256908,6.77126571 C41.9174671,6.77126571 42.9700987,7.08669429 43.4141776,7.08669429 C43.5427961,7.08669429 43.5661513,7.14518 43.5661513,7.21516571 C43.5661513,7.34363714 43.4842434,7.90418 43.4842434,8.58202286 C43.4842434,9.14256571 43.4612171,9.31769429 43.3674671,9.31769429 C43.2858882,9.31769429 43.2740461,9.23588 43.2740461,9.07258 C43.2740461,7.70572286 41.905625,7.21516571 40.4437829,7.21516571 C37.4378618,7.21516571 36.7013487,9.04925143 36.7013487,11.1169514 C36.7013487,13.3479514 38.4207566,15.3923229 40.9230592,15.3923229 C41.8003618,15.3923229 42.4904934,15.2875086 42.9582566,14.8084514 C43.2039803,14.55118 43.3559539,14.0372943 43.3908224,13.8270086 C43.4141776,13.6985371 43.4378618,13.65188 43.5079276,13.65188 C43.5661513,13.65188 43.5898355,13.7340229 43.5898355,13.8270086 C43.5898355,13.9091514 43.449375,14.9250943 43.3322697,15.3223371 C43.2622039,15.5441229 43.2388487,15.5681086 43.0286513,15.6614229 C42.5605592,15.8477229 41.6717434,15.9298657 40.9230592,15.9298657 C37.3562829,15.9298657 35.6487171,13.9091514 35.6487171,11.2102657" id="Fill-21" fill="#626366"></path>
            <path d="M49.2974671,11.8994771 C49.3560197,11.8994771 49.3560197,11.8649771 49.3445066,11.8176629 L48.2333224,8.66337714 C48.198125,8.57006286 48.1747697,8.53523429 48.1395724,8.53523429 C48.1162171,8.53523429 48.0813487,8.58189143 48.0576645,8.66337714 L47.0287171,11.8176629 C47.0053618,11.8761486 47.0287171,11.8994771 47.0639145,11.8994771 L49.2974671,11.8994771 Z M48.5958224,7.19170571 C48.7711513,7.63560571 50.6073355,12.4603486 51.3208224,14.23562 C51.741875,15.2755486 52.0810197,15.4628343 52.3267434,15.53282 C52.5020724,15.5906486 52.6774013,15.6028057 52.7945066,15.6028057 C52.8645724,15.6028057 52.9112829,15.6143057 52.9112829,15.6724629 C52.9112829,15.7431057 52.8060197,15.7664343 52.6774013,15.7664343 C52.5020724,15.7664343 51.648125,15.7664343 50.8412171,15.7431057 C50.6191776,15.7312771 50.4905592,15.7312771 50.4905592,15.6612914 C50.4905592,15.6143057 50.5372697,15.5794771 50.5724671,15.5794771 C50.5954934,15.5794771 50.6658882,15.5209914 50.6658882,15.4158486 C50.6658882,15.38102 50.6658882,15.3110343 50.6425329,15.2640486 L49.5547039,12.3900343 C49.5313487,12.3433771 49.5083224,12.3200486 49.4497697,12.3200486 L46.9349671,12.3200486 C46.8767434,12.3200486 46.8415461,12.3555343 46.8181908,12.4136914 L46.1165461,14.4813914 C46.0112829,14.7731629 45.9527303,15.0537629 45.9527303,15.2640486 C45.9527303,15.4973343 46.1984539,15.6028057 46.3974671,15.6028057 L46.5142434,15.6028057 C46.5958224,15.6028057 46.6313487,15.6261343 46.6313487,15.6724629 C46.6313487,15.7431057 46.5609539,15.7664343 46.4556908,15.7664343 C46.1750987,15.7664343 45.6721382,15.7312771 45.5435197,15.7312771 C45.4145724,15.7312771 44.7714803,15.7664343 44.2218092,15.7664343 C44.0698355,15.7664343 43.9997697,15.7431057 43.9997697,15.6724629 C43.9997697,15.6261343 44.0464803,15.6028057 44.1050329,15.6028057 C44.1869408,15.6028057 44.3504276,15.5906486 44.4441776,15.5794771 C44.9820066,15.5094914 45.2162171,15.0655914 45.4264145,14.4813914 L48.0813487,7.22653429 C48.2214803,6.84112 48.2685197,6.77146286 48.3385855,6.77146286 C48.4086513,6.77146286 48.4553618,6.82962 48.5958224,7.19170571 Z" id="Fill-23" fill="#626366"></path>
            <polygon id="Fill-25" fill="#EC1B34" points="56.7103289 5.67653143 56.7103289 17.0244029 66.5511184 22.7011314 76.3925658 17.0244029 76.3925658 5.67653143 66.5511184 0.000131428571"></polygon>
            <polygon id="Fill-27" fill="#FFFFFF" points="56.7103289 5.67653143 66.5511184 22.7011314 76.3925658 5.67653143"></polygon>
            <polygon id="Fill-29" fill="#0071B5" points="76.4240461 5.67653143 76.4240461 17.0244029 86.268125 22.7011314 96.1089145 17.0244029 96.1089145 5.67653143 86.268125 0.000131428571"></polygon>
            <polygon id="Fill-31" fill="#FFFFFF" points="86.2680592 0 96.1088487 17.0242714 76.4239803 17.0242714"></polygon>
        </g>
    </g>
</svg>