<?xml version="1.0" encoding="utf-8"?>
<!-- Generator: Adobe Illustrator 22.1.0, SVG Export Plug-In . SVG Version: 6.00 Build 0)  -->
<svg version="1.1" id="Layer_1" xmlns="http://www.w3.org/2000/svg" xmlns:xlink="http://www.w3.org/1999/xlink" x="0px" y="0px"
	 width="727.667px" height="124.441px" viewBox="0 0 727.667 124.441" enable-background="new 0 0 727.667 124.441"
	 xml:space="preserve">
<g>
	<radialGradient id="SVGID_1_" cx="118.4212" cy="62.2205" r="94.5911" gradientUnits="userSpaceOnUse">
		<stop  offset="0" style="stop-color:#B91655"/>
		<stop  offset="0.3189" style="stop-color:#B71753"/>
		<stop  offset="0.5106" style="stop-color:#B1174F"/>
		<stop  offset="0.6687" style="stop-color:#A71748"/>
		<stop  offset="0.8085" style="stop-color:#99173E"/>
		<stop  offset="0.9351" style="stop-color:#871632"/>
		<stop  offset="1" style="stop-color:#7C152A"/>
	</radialGradient>
	<polygon fill="url(#SVGID_1_)" points="88.316,0 236.842,0 150.535,124.441 0,124.441 	"/>
	<g>
		<linearGradient id="SVGID_2_" gradientUnits="userSpaceOnUse" x1="116.8967" y1="116.9444" x2="116.8967" y2="13.7276">
			<stop  offset="0" style="stop-color:#F39200"/>
			<stop  offset="0.6121" style="stop-color:#FFFFFF"/>
			<stop  offset="0.7567" style="stop-color:#FFFEFE"/>
			<stop  offset="0.8087" style="stop-color:#FFFCF8"/>
			<stop  offset="0.8458" style="stop-color:#FFF7EE"/>
			<stop  offset="0.8759" style="stop-color:#FFF0DF"/>
			<stop  offset="0.9016" style="stop-color:#FEE7CC"/>
			<stop  offset="0.9244" style="stop-color:#FDDCB3"/>
			<stop  offset="0.945" style="stop-color:#FCCE95"/>
			<stop  offset="0.9639" style="stop-color:#FABE71"/>
			<stop  offset="0.9815" style="stop-color:#F8AB45"/>
			<stop  offset="0.9971" style="stop-color:#F49609"/>
			<stop  offset="1" style="stop-color:#F39200"/>
		</linearGradient>
		<path fill="url(#SVGID_2_)" d="M65.977,114.195l1.723,2.749c0,0,38.187-6.192,43.693-54.014
			c5.507-47.824,35.438-46.448,38.189-46.448c2.752,0,13.763,4.128,13.763,13.075c0,8.944-8.6,14.792-8.6,14.792
			s13.072-0.344,13.072-12.384c0-12.043-9.632-18.238-19.952-18.238c-10.326,0-33.72,8.947-41.632,31.998
			C98.318,68.779,108.641,101.808,65.977,114.195z"/>
		<linearGradient id="SVGID_3_" gradientUnits="userSpaceOnUse" x1="102.352" y1="109.0352" x2="102.352" y2="26.4585">
			<stop  offset="0" style="stop-color:#F39200"/>
			<stop  offset="0.6121" style="stop-color:#FFFFFF"/>
			<stop  offset="0.7567" style="stop-color:#FFFEFE"/>
			<stop  offset="0.8087" style="stop-color:#FFFCF8"/>
			<stop  offset="0.8458" style="stop-color:#FFF7EE"/>
			<stop  offset="0.8759" style="stop-color:#FFF0DF"/>
			<stop  offset="0.9016" style="stop-color:#FEE7CC"/>
			<stop  offset="0.9244" style="stop-color:#FDDCB3"/>
			<stop  offset="0.945" style="stop-color:#FCCE95"/>
			<stop  offset="0.9639" style="stop-color:#FABE71"/>
			<stop  offset="0.9815" style="stop-color:#F8AB45"/>
			<stop  offset="0.9971" style="stop-color:#F49609"/>
			<stop  offset="1" style="stop-color:#F39200"/>
		</linearGradient>
		<path fill="url(#SVGID_3_)" d="M63.225,109.035c0,0,24.43,0,27.867-22.021c3.443-22.019,1.379-48.513,24.086-56.081
			c22.709-7.571,31.31,10.664,27.526,19.608c-3.784,8.947-11.011,17.55-11.011,17.55s-0.344,2.752,3.443,0.688
			c3.784-2.064,12.613-9.406,13.531-18.808c0.917-9.405-3.211-23.512-24.885-23.512s-37.158,15.139-38.88,30.965
			c-1.717,15.827,4.816,32.342-1.717,40.253l-2.411-2.408c0,0-2.064,2.752-4.816,2.067c-2.752-0.691,2.408-1.376,0-4.819
			c0,0-3.44,0.688-4.816-2.408c0,0,3.44-1.72,1.032-6.195c0,0-1.379,2.755-3.096,2.067c-1.723-0.688,1.376,0-0.688-3.443
			l-1.035,2.755c0,0-4.128-0.173-5.674,1.032c-1.549,1.203-1.376,3.27-2.411,3.27c-1.029,0-3.269-0.347-3.269-0.347
			s-0.688,1.894,2.067,2.408c2.752,0.518,6.365,2.408,6.018,5.507C63.742,100.259,60.473,103.872,63.225,109.035z"/>
		<linearGradient id="SVGID_4_" gradientUnits="userSpaceOnUse" x1="127.6287" y1="123.3687" x2="127.6287" y2="4.7837">
			<stop  offset="0" style="stop-color:#F39200"/>
			<stop  offset="0.6121" style="stop-color:#FFFFFF"/>
			<stop  offset="0.7567" style="stop-color:#FFFEFE"/>
			<stop  offset="0.8087" style="stop-color:#FFFCF8"/>
			<stop  offset="0.8458" style="stop-color:#FFF7EE"/>
			<stop  offset="0.8759" style="stop-color:#FFF0DF"/>
			<stop  offset="0.9016" style="stop-color:#FEE7CC"/>
			<stop  offset="0.9244" style="stop-color:#FDDCB3"/>
			<stop  offset="0.945" style="stop-color:#FCCE95"/>
			<stop  offset="0.9639" style="stop-color:#FABE71"/>
			<stop  offset="0.9815" style="stop-color:#F8AB45"/>
			<stop  offset="0.9971" style="stop-color:#F49609"/>
			<stop  offset="1" style="stop-color:#F39200"/>
		</linearGradient>
		<path fill="url(#SVGID_4_)" d="M69.993,120.158l1.835,3.211c0,0,25.461-8.259,41.973-29.131
			c16.515-20.872,18.123-37.387,21.333-49.544c3.211-12.155,12.613-34.635,31.192-37.158c18.579-2.523,11.24,14.91,7.8,17.662
			c-3.44,2.752,9.861,1.146,11.008-7.797c1.147-8.947-5.274-12.616-19.267-12.616s-33.256,11.699-39.451,34.406
			c-6.195,22.707-4.131,23.398-8.717,35.093C113.113,85.981,103.251,110.522,69.993,120.158z"/>
	</g>
	<g>
		<g>
			<path fill="#7C152A" d="M186.504,101.253l0.874-4.107c4.195-0.175,8.899-3.889,14.114-11.143l0.743-1.049l32.598-44.659h9.045
				l2.578,47.805c0.175,3.467,0.917,5.827,2.229,7.079c1.311,1.253,3.612,1.908,6.904,1.966l-0.917,4.107h-31.025l0.874-4.107h1.092
				c3.291,0,5.528-0.502,6.707-1.508c1.18-1.005,1.77-2.92,1.77-5.746c0-0.728-0.008-1.289-0.022-1.683
				c-0.015-0.393-0.037-0.765-0.066-1.114l-0.437-9.089H213.16l-7.079,9.657c-0.787,1.107-1.355,2.083-1.704,2.928
				c-0.35,0.845-0.524,1.69-0.524,2.534c0,1.282,0.509,2.236,1.529,2.862c1.02,0.627,2.709,1.013,5.069,1.158l-0.787,4.107H186.504z
				 M233.305,72.456l-1.093-21.062l-15.119,21.062H233.305z"/>
			<path fill="#7C152A" d="M252.617,101.253l0.582-2.875c2.345-0.061,4.047-0.545,5.108-1.453c1.06-0.907,1.855-2.635,2.386-5.185
				l4.895-23.002c0.122-0.591,0.214-1.117,0.275-1.576c0.062-0.459,0.092-0.851,0.092-1.177c0-1.427-0.413-2.421-1.239-2.982
				c-0.826-0.561-2.33-0.872-4.512-0.933l0.551-2.722h22.115l-0.551,2.722c-2.427,0.061-4.135,0.449-5.124,1.163
				c-0.989,0.714-1.708,2.11-2.156,4.19l-5.261,24.868c-0.103,0.551-0.179,1.02-0.23,1.407c-0.051,0.388-0.076,0.734-0.076,1.04
				c0,1.346,0.346,2.259,1.04,2.737c0.693,0.479,2.223,0.78,4.588,0.902l-0.612,2.875H252.617z"/>
			<path fill="#7C152A" d="M275.3,101.253l0.612-2.875c2.366-0.061,4.078-0.545,5.139-1.453c1.06-0.907,1.855-2.635,2.386-5.185
				l4.894-23.002c0.123-0.591,0.214-1.117,0.275-1.576c0.061-0.459,0.092-0.851,0.092-1.177c0-1.407-0.418-2.396-1.254-2.967
				c-0.836-0.571-2.355-0.887-4.558-0.948l0.55-2.722h16.915c5.996,0,10.405,0.862,13.229,2.585c2.824,1.724,4.236,4.41,4.236,8.06
				c0,2.937-0.923,5.409-2.768,7.418c-1.846,2.009-4.512,3.441-7.999,4.298l3.946,9.85c1.02,2.529,2.064,4.297,3.135,5.307
				c1.07,1.01,2.411,1.514,4.022,1.514h0.429l-0.582,2.875c-0.652,0.123-1.325,0.214-2.018,0.275
				c-0.693,0.061-1.417,0.092-2.172,0.092c-3.364,0-6.103-0.989-8.213-2.967c-2.11-1.978-3.94-5.353-5.49-10.125l-1.621-4.986
				c-0.673,0.021-1.367,0.046-2.08,0.076c-0.714,0.031-1.468,0.066-2.264,0.107l-1.805,8.565c-0.122,0.632-0.204,1.122-0.245,1.468
				c-0.041,0.347-0.061,0.632-0.061,0.857c0,1.326,0.393,2.248,1.178,2.768c0.785,0.52,2.473,0.852,5.062,0.994l-0.612,2.875H275.3z
				 M294.846,80.514h1.254c3.956,0,7.02-0.974,9.192-2.921c2.172-1.947,3.258-4.685,3.258-8.213c0-2.406-0.704-4.16-2.11-5.261
				c-1.407-1.101-3.651-1.652-6.73-1.652h-1.04L294.846,80.514z"/>
			<path fill="#7C152A" d="M333.971,101.253l0.874-4.107c2.214-0.058,4.086-0.874,5.615-2.447c1.529-1.573,2.789-3.977,3.779-7.21
				l9.92-32.686c0.35-1.077,0.603-1.958,0.765-2.644c0.159-0.684,0.24-1.23,0.24-1.639c0-1.893-0.663-3.233-1.988-4.02
				c-1.326-0.787-3.62-1.18-6.883-1.18l0.831-3.933h22.634l5.462,42.605l26.394-42.605h21.849l-0.83,3.933
				c-3.351,0-5.768,0.626-7.254,1.879c-1.485,1.253-2.651,3.787-3.496,7.603l-6.772,31.943c-0.233,1.021-0.415,1.952-0.547,2.797
				c-0.131,0.845-0.196,1.559-0.196,2.141c0,1.981,0.575,3.358,1.727,4.129c1.15,0.772,3.343,1.217,6.576,1.333l-0.874,4.107
				h-29.627l0.918-4.107c3.029-0.291,5.199-1.027,6.511-2.207c1.311-1.18,2.33-3.459,3.059-6.838l8.04-37.318l-31.287,50.471h-3.671
				l-6.117-49.029l-9.046,29.54c-0.583,1.952-1.041,3.729-1.376,5.331c-0.335,1.603-0.503,2.826-0.503,3.671
				c0,1.894,0.554,3.299,1.661,4.217c1.106,0.917,3.219,1.639,6.336,2.163l-0.83,4.107H333.971z"/>
			<path fill="#7C152A" d="M411.068,101.253l0.612-2.875c2.936-0.122,6.229-2.722,9.88-7.8l0.52-0.734l22.819-31.261h6.332
				l1.805,33.463c0.122,2.427,0.642,4.079,1.56,4.955c0.918,0.878,2.528,1.336,4.833,1.377l-0.643,2.875h-21.718l0.612-2.875h0.765
				c2.304,0,3.869-0.352,4.695-1.055c0.825-0.704,1.238-2.044,1.238-4.023c0-0.509-0.005-0.902-0.015-1.177
				c-0.011-0.275-0.026-0.536-0.046-0.78l-0.307-6.362h-14.284l-4.955,6.76c-0.551,0.775-0.948,1.459-1.193,2.05
				c-0.244,0.591-0.367,1.183-0.367,1.774c0,0.897,0.356,1.565,1.071,2.003c0.713,0.439,1.896,0.709,3.548,0.811l-0.551,2.875
				H411.068z M443.829,81.095l-0.766-14.744L432.48,81.095H443.829z"/>
			<path fill="#7C152A" d="M456.478,101.253l0.611-2.875c2.305-0.081,4.013-0.703,5.124-1.866c1.111-1.162,2.014-3.385,2.707-6.668
				l5.261-24.746c-0.448-0.959-1.192-1.683-2.232-2.172c-1.04-0.489-2.417-0.775-4.13-0.856l0.612-2.722h11.776l21.993,30.435
				l3.426-16.089c0.265-1.224,0.469-2.401,0.611-3.533c0.143-1.132,0.215-2.105,0.215-2.921c0-1.611-0.434-2.819-1.301-3.625
				c-0.866-0.806-2.248-1.27-4.145-1.392l0.612-2.875h15.478l-0.612,2.875c-1.998,0-3.543,0.684-4.634,2.05
				c-1.091,1.366-2.014,3.854-2.768,7.463l-4.618,21.503c-0.348,1.57-0.653,3.069-0.918,4.497c-0.266,1.428-0.489,2.743-0.673,3.946
				h-2.876l-23.675-32.699l-3.763,17.925c-0.265,1.244-0.464,2.375-0.596,3.395c-0.134,1.02-0.199,1.896-0.199,2.631
				c0,1.795,0.407,3.085,1.224,3.869c0.815,0.785,2.304,1.311,4.466,1.575l-0.643,2.875H456.478z"/>
			<path fill="#7C152A" d="M505.712,101.253l0.611-2.998c2.365,0,4.078-0.444,5.139-1.331c1.061-0.887,1.855-2.615,2.386-5.185
				l4.894-23.002c0.102-0.49,0.179-0.968,0.23-1.438c0.051-0.469,0.076-0.907,0.076-1.315c0-1.427-0.418-2.421-1.254-2.982
				c-0.836-0.561-2.335-0.841-4.496-0.841l0.55-2.814h21.168c7.789,0,13.719,1.55,17.786,4.649c4.068,3.1,6.102,7.607,6.102,13.52
				c0,3.406-0.638,6.566-1.911,9.482c-1.275,2.916-3.106,5.414-5.491,7.494c-1.428,1.223-2.978,2.284-4.649,3.181
				c-1.672,0.897-3.446,1.611-5.322,2.141c-1.692,0.489-3.467,0.852-5.322,1.086c-1.855,0.234-4.19,0.352-7.005,0.352h-3.396
				H505.712z M529.082,62.161l-6.271,30.007c-0.122,0.653-0.204,1.147-0.245,1.483c-0.041,0.336-0.061,0.638-0.061,0.902
				c0,1.407,0.407,2.376,1.224,2.906c0.815,0.531,2.405,0.795,4.771,0.795c6.22,0,11.211-1.907,14.973-5.72
				c3.763-3.813,5.643-8.86,5.643-15.141c0-5.057-1.529-8.86-4.588-11.409c-3.059-2.549-7.627-3.824-13.704-3.824h-1.132H529.082z"
				/>
			<path fill="#7C152A" d="M551.703,101.253l0.612-2.875c2.936-0.122,6.229-2.722,9.88-7.8l0.519-0.734l22.819-31.261h6.332
				l1.805,33.463c0.122,2.427,0.642,4.079,1.56,4.955c0.918,0.878,2.528,1.336,4.833,1.377l-0.643,2.875h-21.718l0.612-2.875h0.765
				c2.304,0,3.869-0.352,4.695-1.055c0.825-0.704,1.238-2.044,1.238-4.023c0-0.509-0.005-0.902-0.015-1.177
				c-0.011-0.275-0.026-0.536-0.046-0.78l-0.307-6.362h-14.284l-4.955,6.76c-0.551,0.775-0.948,1.459-1.193,2.05
				c-0.244,0.591-0.367,1.183-0.367,1.774c0,0.897,0.357,1.565,1.071,2.003c0.713,0.439,1.896,0.709,3.548,0.811l-0.551,2.875
				H551.703z M584.463,81.095l-0.766-14.744l-10.583,14.744H584.463z"/>
			<path fill="#7C152A" d="M596.869,101.253l0.612-2.875c2.345-0.061,4.037-0.524,5.077-1.392c1.04-0.867,1.855-2.615,2.447-5.246
				l5.139-23.002c0.123-0.551,0.215-1.05,0.275-1.499c0.061-0.448,0.092-0.867,0.092-1.254c0-1.448-0.439-2.458-1.315-3.028
				c-0.877-0.571-2.457-0.856-4.741-0.856l0.673-2.753h22.116l-0.643,2.875c-2.325,0.062-3.997,0.515-5.017,1.361
				c-1.021,0.846-1.825,2.606-2.417,5.276l-5.077,22.543c-0.143,0.694-0.25,1.336-0.321,1.927c-0.071,0.592-0.107,1.101-0.107,1.529
				c0,1.183,0.47,2.024,1.407,2.523c0.938,0.5,2.549,0.75,4.833,0.75c3.385,0,6.316-0.53,8.794-1.59
				c2.478-1.06,4.746-2.743,6.807-5.047h3.456l-3.456,9.758H596.869z"/>
			<path fill="#7C152A" d="M633.775,101.253l0.612-2.875c2.937-0.122,6.229-2.722,9.88-7.8l0.52-0.734l22.819-31.261h6.332
				l1.805,33.463c0.122,2.427,0.642,4.079,1.56,4.955c0.918,0.878,2.528,1.336,4.833,1.377l-0.643,2.875h-21.718l0.612-2.875h0.765
				c2.304,0,3.869-0.352,4.695-1.055c0.825-0.704,1.238-2.044,1.238-4.023c0-0.509-0.005-0.902-0.015-1.177
				c-0.011-0.275-0.026-0.536-0.046-0.78l-0.307-6.362h-14.284l-4.955,6.76c-0.551,0.775-0.948,1.459-1.193,2.05
				c-0.244,0.591-0.367,1.183-0.367,1.774c0,0.897,0.356,1.565,1.071,2.003c0.713,0.439,1.896,0.709,3.548,0.811l-0.551,2.875
				H633.775z M666.536,81.095l-0.766-14.744l-10.583,14.744H666.536z"/>
			<path fill="#7C152A" d="M686.771,101.253l0.611-2.875c2.345-0.061,4.054-0.55,5.124-1.468c1.07-0.918,1.87-2.641,2.401-5.169
				l1.56-7.769l-8.32-18.231c-0.53-1.142-1.219-1.993-2.064-2.554c-0.847-0.561-1.953-0.923-3.318-1.086l0.551-2.753h17.802
				l-0.643,2.753c-1.061,0.041-1.856,0.245-2.386,0.612c-0.53,0.367-0.795,0.897-0.795,1.59c0,0.286,0.025,0.546,0.076,0.78
				c0.051,0.234,0.127,0.454,0.229,0.657l6.699,14.652l11.226-12.327c0.591-0.673,0.999-1.243,1.224-1.713
				c0.224-0.469,0.336-0.948,0.336-1.438c0-0.754-0.342-1.371-1.024-1.851c-0.684-0.479-1.678-0.8-2.982-0.963l0.551-2.753h14.04
				l-0.612,2.753c-1.692,0.449-4.241,2.539-7.646,6.27l-0.397,0.428l-13.398,14.713l-1.806,8.779
				c-0.122,0.571-0.203,1.045-0.244,1.422c-0.041,0.378-0.061,0.719-0.061,1.025c0,1.346,0.342,2.259,1.025,2.737
				c0.683,0.479,2.319,0.78,4.909,0.902l-0.612,2.875H686.771z"/>
		</g>
	</g>
</g>
</svg>
