<?xml version="1.0" encoding="utf-8"?>
<!-- Generator: Adobe Illustrator 19.0.0, SVG Export Plug-In . SVG Version: 6.00 Build 0)  -->
<svg version="1.1" id="Layer_1" xmlns="http://www.w3.org/2000/svg" xmlns:xlink="http://www.w3.org/1999/xlink" x="0px" y="0px"
	 width="187.7px" height="48px" viewBox="0 0 187.7 48" style="enable-background:new 0 0 187.7 48;" xml:space="preserve">
<style type="text/css">
	.st0{fill:#24205D;}
	.st1{fill:url(#SVGID_1_);}
	.st2{fill:url(#SVGID_2_);}
	.st3{fill:url(#SVGID_3_);}
	.st4{fill:url(#SVGID_4_);}
	.st5{fill:url(#SVGID_5_);}
	.st6{fill:url(#SVGID_6_);}
	.st7{fill:#EB7324;}
	.st8{fill:#DE4D26;}
	.st9{fill:#F19720;}
</style>
<g>
	<g>
		<path class="st0" d="M64.8,24.9c0,2.6-2.6,4.8-5.8,4.8c-2.9,0-4.8-1.8-5.4-2.4l-0.1-0.1c-0.2-0.1-0.2-0.2-0.2-0.2
			c0,0,0-0.1,0.1-0.1l1.3-1.5l0,0c0.1-0.1,0.2-0.2,0.3-0.2c0.1,0,0.1,0,0.2,0.1l0.1,0.1c0.8,0.7,2.1,1.8,3.7,1.8
			c2,0,3.2-0.9,3.2-2.3c0-1.5-1.3-2-2.7-2.6c-0.2-0.1-0.3-0.1-0.5-0.2c-3.3-1.4-5.3-2.7-5.3-5.4c0-2.3,1.7-4.8,5.4-4.8
			c2.4,0,4.3,1.3,5.1,2.1c0.1,0.1,0.3,0.3,0.1,0.5L63.3,16c-0.2,0.3-0.4,0.2-0.5,0.1L62.6,16c-0.7-0.6-1.9-1.5-3.4-1.5
			c-1.8,0-2.8,1.1-2.8,2.3c0,1.4,1.3,2.1,2.8,2.7C62.4,20.8,64.8,22.1,64.8,24.9z"/>
		<path class="st0" d="M84.9,14.4c0.2,0,0.4,0.2,0.4,0.4V29c0,0.2-0.1,0.4-0.3,0.4H83c-0.2,0-0.4-0.2-0.4-0.4v-9.1l-5.4,8.7
			c-0.1,0.2-0.2,0.3-0.4,0.3h-0.1c-0.2,0-0.3-0.1-0.4-0.3l-5.3-8.7V29c0,0.2-0.2,0.4-0.4,0.4h-1.9c-0.2,0-0.4-0.2-0.4-0.4V14.8
			c0-0.2,0.1-0.4,0.4-0.4h1.6c0.2,0,0.3,0.1,0.4,0.2l6,9.7l6-9.7c0.1-0.2,0.2-0.2,0.4-0.2L84.9,14.4L84.9,14.4z"/>
		<path class="st0" d="M102.2,29c0.1,0.2,0,0.4-0.2,0.4h-2.1c-0.2,0-0.3-0.1-0.4-0.2l-1-2.1h-7.1l-1,2.1c-0.1,0.1-0.2,0.2-0.4,0.2
			h-2.2c-0.2,0-0.3-0.2-0.2-0.4l6.9-14.5c0.1-0.1,0.2-0.2,0.3-0.2h0.2c0.1,0,0.2,0.1,0.3,0.2L102.2,29L102.2,29z M97.4,24.6L95,19.3
			l-2.4,5.2H97.4z"/>
		<path class="st0" d="M116.2,29c0.1,0.2,0,0.4-0.3,0.4h-1.7c-0.5,0-1-0.5-1.1-0.8l-2.5-4h-3.1V29c0,0.2-0.1,0.4-0.3,0.4h-1.9
			c-0.2,0-0.3-0.1-0.3-0.4V14.8c0-0.2,0.1-0.4,0.3-0.4h5.8c3,0,4.9,2.8,4.9,5.1c0,1.8-1.1,3.8-2.9,4.7L116.2,29L116.2,29z
			 M107.6,22.1h3.2c1.7,0,2.6-1.3,2.6-2.6c0-1.3-0.9-2.5-2.6-2.5h-3.2V22.1z"/>
		<path class="st0" d="M129.1,14.4c0.2,0,0.3,0.1,0.3,0.4v1.9c0,0.2-0.2,0.4-0.3,0.4H125v12c0,0.2-0.1,0.4-0.3,0.4h-1.4
			c-0.6,0-0.9-0.4-0.9-1V17h-4.1c-0.2,0-0.4-0.2-0.4-0.4v-1.9c0-0.2,0.2-0.4,0.4-0.4L129.1,14.4L129.1,14.4z"/>
		<path class="st0" d="M133.4,29V12.5c0-0.3,0.2-0.4,0.3-0.4h1.9c0.2,0,0.4,0.1,0.4,0.4v14.2l7.6,0c0.3,0,0.4,0.2,0.4,0.4V29
			c0,0.2-0.1,0.4-0.4,0.4l-9.9,0C133.6,29.4,133.4,29.2,133.4,29z"/>
		<path class="st0" d="M156.8,14.8l-5.4,8.5V29c0,0.2-0.1,0.4-0.3,0.4h-1.4c-0.6,0-0.9-0.4-0.9-1v-5.1l-5.4-8.5
			c-0.1-0.2,0-0.4,0.2-0.4h2.3c0.2,0,0.3,0.2,0.4,0.4l3.8,5.9l3.7-5.9c0.1-0.2,0.2-0.4,0.4-0.4h2.4C156.8,14.4,157,14.6,156.8,14.8z
			"/>
		<path class="st0" d="M172.2,14.8V29c0,0.2-0.1,0.4-0.3,0.4h-0.6c-0.5,0-1-0.4-1.7-1.1l-7.5-8.6V29c0,0.2-0.2,0.4-0.4,0.4l-1.9,0
			c-0.2,0-0.4-0.2-0.4-0.4V14.8c0-0.2,0.2-0.4,0.3-0.4h1.1c0.2,0,0.3,0.1,0.5,0.3l8.2,9.6v-9.5c0-0.2,0.1-0.4,0.3-0.4h1.9
			C172,14.4,172.2,14.6,172.2,14.8z"/>
		<path class="st0" d="M187.6,29c0.1,0.2,0,0.4-0.2,0.4h-2.6c-0.2,0-0.3-0.2-0.4-0.4l-3.2-4.8l-3.2,4.8c-0.1,0.2-0.2,0.4-0.4,0.4
			h-2.6c-0.2,0-0.3-0.2-0.2-0.4l4.8-7.1l-4.7-7.1c-0.1-0.2,0-0.4,0.2-0.4h2.6c0.2,0,0.3,0.1,0.4,0.4l3.2,4.8l3.2-4.8
			c0.1-0.2,0.2-0.4,0.4-0.4h2.6c0.2,0,0.3,0.2,0.2,0.4l-4.7,7.1L187.6,29L187.6,29z"/>
	</g>
	<g>
		<linearGradient id="SVGID_1_" gradientUnits="userSpaceOnUse" x1="22.1688" y1="21.7887" x2="22.1688" y2="0">
			<stop  offset="0" style="stop-color:#711828"/>
			<stop  offset="7.259965e-003" style="stop-color:#731928"/>
			<stop  offset="0.1016" style="stop-color:#8C1E29"/>
			<stop  offset="0.2055" style="stop-color:#A12029"/>
			<stop  offset="0.3235" style="stop-color:#B22128"/>
			<stop  offset="0.4621" style="stop-color:#BF2127"/>
			<stop  offset="0.6405" style="stop-color:#C62127"/>
			<stop  offset="1" style="stop-color:#C82026"/>
		</linearGradient>
		<polygon class="st1" points="22.2,21.8 22.2,21.8 28.3,18.2 22.2,0 16,18.2 22.2,21.8 		"/>
		<linearGradient id="SVGID_2_" gradientUnits="userSpaceOnUse" x1="22.1688" y1="24.9026" x2="38.9052" y2="24.9026">
			<stop  offset="0" style="stop-color:#C82026"/>
			<stop  offset="0.2592" style="stop-color:#A82028"/>
			<stop  offset="0.5731" style="stop-color:#891D29"/>
			<stop  offset="0.8313" style="stop-color:#771A28"/>
			<stop  offset="1" style="stop-color:#711828"/>
		</linearGradient>
		<polygon class="st2" points="28.3,18.2 28.3,18.2 22.2,21.8 22.2,21.8 22.2,29.1 38.9,31.7 		"/>
		<linearGradient id="SVGID_3_" gradientUnits="userSpaceOnUse" x1="22.1688" y1="24.9024" x2="5.4611" y2="24.9024">
			<stop  offset="3.490120e-003" style="stop-color:#711828"/>
			<stop  offset="0.2556" style="stop-color:#62213E"/>
			<stop  offset="0.499" style="stop-color:#4F2850"/>
			<stop  offset="0.712" style="stop-color:#3C2D5D"/>
			<stop  offset="0.8862" style="stop-color:#2B2F65"/>
			<stop  offset="1" style="stop-color:#253068"/>
		</linearGradient>
		<polygon class="st3" points="16,18.2 16,18.2 5.5,31.7 22.2,29.1 22.2,29.1 22.2,21.8 22.2,21.8 		"/>
		<linearGradient id="SVGID_4_" gradientUnits="userSpaceOnUse" x1="22.166" y1="17.5151" x2="44.332" y2="17.5151">
			<stop  offset="0" style="stop-color:#C82026"/>
			<stop  offset="1" style="stop-color:#EB7324"/>
		</linearGradient>
		<polygon class="st4" points="22.2,21.9 22.2,21.9 29.5,26.3 44.3,8.8 22.2,13.1 22.2,13.1 22.2,21.9 		"/>
		<linearGradient id="SVGID_5_" gradientUnits="userSpaceOnUse" x1="21.9992" y1="22.156" x2="0.9441" y2="7.4131">
			<stop  offset="0" style="stop-color:#CF2A27"/>
			<stop  offset="1" style="stop-color:#EB7324"/>
		</linearGradient>
		<polygon class="st5" points="22.2,21.9 22.2,21.9 22.2,13.1 0,8.8 14.8,26.3 22.2,21.9 		"/>
		<linearGradient id="SVGID_6_" gradientUnits="userSpaceOnUse" x1="22.1662" y1="48" x2="22.1662" y2="21.9174">
			<stop  offset="0" style="stop-color:#D93E26"/>
			<stop  offset="1" style="stop-color:#C12026"/>
		</linearGradient>
		<polygon class="st6" points="22.2,21.9 22.2,21.9 14.8,26.3 22.2,48 22.2,48 29.5,26.3 		"/>
		<polygon class="st7" points="29.6,17.6 22.2,21.9 22.2,21.9 22.2,30.6 22.2,30.6 25.9,24.1 29.6,17.6 		"/>
		<polygon class="st8" points="22.2,17.6 14.8,17.6 22.2,21.9 22.2,21.9 29.6,17.6 		"/>
		<polygon class="st9" points="14.8,17.6 14.8,17.6 18.5,24.1 22.2,30.6 22.2,21.9 22.2,21.9 		"/>
	</g>
</g>
</svg>
