<?xml version="1.0" encoding="utf-8"?>
<!-- Generator: Adobe Illustrator 22.1.0, SVG Export Plug-In . SVG Version: 6.00 Build 0)  -->
<svg version="1.1" id="Слой_1" xmlns="http://www.w3.org/2000/svg" xmlns:xlink="http://www.w3.org/1999/xlink" x="0px" y="0px"
	 width="573.6px" height="66.48px" viewBox="0 0 573.6 66.48" enable-background="new 0 0 573.6 66.48" xml:space="preserve">
<g>
	<path fill="#0277C0" d="M573.6,3.12c-0.223,0.152-0.446,0.305-0.732,0.5c-1.719,0.077-3.516,0.052-5.282,0.27
		c-1.39,0.172-2.776,0.085-4.156,0.21c-2.261,0.205-4.537,0.097-6.79,0.276c-2.228,0.177-4.46,0.024-6.673,0.226
		c-2.786,0.254-5.582,0.015-8.353,0.249c-2.909,0.247-5.822-0.002-8.716,0.234c-3.307,0.269-6.621,0.003-9.916,0.243
		c-3.508,0.256-7.021,0.002-10.517,0.238c-3.747,0.253-7.5-0.001-11.235,0.243c-3.948,0.258-7.9-0.005-11.837,0.237
		c-4.067,0.251-8.138,0.003-12.194,0.241c-4.227,0.248-8.457,0.003-12.674,0.24c-4.268,0.239-8.54-0.003-12.796,0.244
		c-4.308,0.25-8.618-0.007-12.914,0.236c-4.268,0.241-8.54,0.001-12.796,0.244c-4.187,0.239-8.378-0.011-12.554,0.239
		c-4.228,0.252-8.46-0.016-12.675,0.242c-4.028,0.247-8.059-0.011-12.074,0.235c-4.067,0.249-8.139-0.005-12.193,0.246
		c-3.749,0.232-7.5-0.01-11.236,0.234c-3.866,0.252-7.738-0.001-11.592,0.244c-3.627,0.231-7.258-0.001-10.872,0.237
		c-3.548,0.234-7.101,0.008-10.637,0.242c-3.349,0.221-6.701,0.01-10.037,0.239c-3.228,0.222-6.461,0.014-9.677,0.243
		c-2.709,0.193-5.421,0.023-8.116,0.238c-2.348,0.187-4.703,0.025-7.035,0.243c-2.11,0.197-4.225,0.017-6.315,0.239
		c-1.751,0.186-3.506,0.032-5.237,0.233c-1.707,0.198-3.424,0.045-5.112,0.246c-1.51,0.18-3.025,0.043-4.515,0.234
		c-1.467,0.189-2.943,0.06-4.392,0.244c-1.269,0.161-2.537,0.106-3.799,0.221c-2.406,0.218-4.813,0.382-7.227,0.484
		c-2.094,0.089-4.182,0.298-6.272,0.467c-1.852,0.149-3.702,0.313-5.552,0.477c-1.769,0.156-3.538,0.313-5.305,0.484
		c-1.531,0.148-3.062,0.309-4.591,0.476c-2.154,0.234-4.309,0.47-6.461,0.722c-1.956,0.229-3.911,0.463-5.862,0.726
		c-2.221,0.299-4.442,0.603-6.654,0.96c-2.128,0.344-4.242,0.774-6.367,1.139c-1.627,0.279-3.266,0.484-4.89,0.779
		c-1.658,0.302-3.305,0.661-4.953,1.018c-2.066,0.447-4.134,0.884-6.187,1.385c-1.746,0.426-3.482,0.899-5.202,1.419
		c-2.807,0.849-5.616,1.7-8.391,2.646c-3.94,1.343-7.758,2.99-11.391,5.029c-2.897,1.626-5.657,3.441-8.133,5.698
		c-2.192,1.998-4.01,4.256-5.381,6.86c-1.084,2.06-1.814,4.254-1.959,6.61c-0.031,0.508-0.18,1.01-0.195,1.517
		c-0.101,3.307,0.505,6.501,1.573,9.62c0.215,0.627,0.526,1.251,0.287,1.985c-0.424,0.598-1.088,0.389-1.631,0.304
		c-1.586-0.247-3.153-0.608-4.733-0.896c-2.661-0.485-5.27-1.175-7.867-1.925c-3.839-1.108-7.566-2.517-11.253-4.045
		c-3.886-1.61-7.639-3.502-11.379-5.416c-3.115-1.594-6.172-3.299-9.276-4.916c-4.289-2.234-8.566-4.496-12.908-6.624
		c-3.127-1.533-6.366-2.829-9.657-3.991c-2.509-0.886-5.054-1.643-7.635-2.271c-1.749-0.426-3.527-0.739-5.299-1.067
		c-1.814-0.336-3.632-0.65-5.454-0.934c-0.896-0.14-1.808-0.179-2.71-0.285c-1.054-0.124-2.104-0.273-3.156-0.41
		c-0.117-0.015-0.235-0.029-0.353-0.037c-1.465-0.092-2.938-0.111-4.391-0.293c-1.545-0.193-3.103-0.088-4.635-0.265
		c-2.626-0.304-5.26-0.026-7.875-0.238c-3.028-0.244-6.063-0.282-9.078-0.123c-4.228,0.224-8.459-0.024-12.674,0.232
		c-3.548,0.216-7.1,0.002-10.636,0.232c-5.187,0.337-10.372,0.043-15.475,0.208C0.455,29.094,0.228,28.947,0,28.8
		c0-0.32,0-0.64,0-0.96c0.373-0.191,0.65-0.507,1.154-0.52c0.614-0.015,1.221-0.251,1.835-0.364
		c1.041-0.193,2.086-0.368,3.131-0.544c1.123-0.189,2.251-0.353,3.372-0.558c1.542-0.283,3.078-0.6,4.618-0.893
		c1.426-0.271,2.857-0.516,4.281-0.795c1.844-0.362,3.681-0.757,5.525-1.118c1.424-0.279,2.859-0.5,4.279-0.794
		c2.49-0.514,4.969-1.085,7.46-1.594c2.534-0.518,5.082-0.97,7.616-1.491c2.108-0.434,4.199-0.95,6.307-1.384
		c2.534-0.522,5.083-0.974,7.616-1.497c2.492-0.515,4.966-1.112,7.46-1.618c2.612-0.53,5.241-0.977,7.857-1.492
		c2.689-0.53,5.369-1.104,8.055-1.647c1.997-0.403,3.996-0.795,5.997-1.176c1.772-0.338,3.545-0.669,5.322-0.975
		c2.012-0.347,4.032-0.649,6.044-1c2.125-0.37,4.24-0.796,6.365-1.159c2.477-0.423,4.958-0.825,7.443-1.197
		c1.907-0.285,3.826-0.49,5.735-0.766c1.943-0.28,3.876-0.626,5.82-0.901c1.91-0.27,3.826-0.499,5.741-0.727
		c2.112-0.252,4.225-0.491,6.34-0.721c1.609-0.175,3.219-0.333,4.83-0.484c1.769-0.167,3.539-0.339,5.311-0.469
		c1.702-0.124,3.408-0.198,5.113-0.291c0.16-0.009,0.329,0.032,0.478-0.009c1.546-0.426,3.15-0.107,4.719-0.395
		c1.237-0.227,2.523-0.074,3.793-0.235c1.649-0.209,3.327-0.186,4.991-0.277c1.624-0.089,3.248-0.053,4.878-0.194
		c2.371-0.205,4.765-0.071,7.149-0.256c1.829-0.142,3.675-0.068,5.513-0.091c0.96,0.003,1.92,0.005,2.88,0.008
		c1.122,0.006,2.244,0.013,3.366,0.019c1.495,0.002,2.989,0.006,4.484,0.002c0.211-0.001,0.492,0.119,0.561-0.236
		c5.68,0,11.36,0,17.04,0c0.072,0.353,0.353,0.236,0.565,0.237c1.734,0.003,3.468-0.002,5.202-0.004
		c1.362-0.006,2.723-0.012,4.085-0.017c1.2-0.002,2.4-0.005,3.6-0.007c3.141,0.157,6.285-0.024,9.431,0.222
		c3.091,0.242,6.205-0.01,9.311,0.248c2.733,0.227,5.485-0.011,8.233,0.23c2.651,0.233,5.327,0.016,7.994,0.25
		c2.454,0.215,4.925,0.01,7.395,0.23c2.61,0.232,5.245,0.023,7.872,0.247c2.572,0.219,5.163,0.021,7.751,0.234
		c2.772,0.228,5.566,0.033,8.353,0.243c2.974,0.224,5.966,0.045,8.955,0.235c3.695,0.234,7.405,0.034,11.112,0.245
		c4.375,0.249,8.763,0.038,13.149,0.229c6.295,0.275,12.604,0.088,18.909,0.232c9.233,0.211,18.473,0.089,27.71,0.099
		c7.078,0.008,14.156,0.004,21.234,0.001c7.038-0.003,14.076,0.038,21.113-0.032c7.063-0.07,14.125,0.118,21.189-0.173
		c4.631-0.191,9.276-0.022,13.914-0.076c4.625-0.054,9.248,0.003,13.876-0.155c7.857-0.269,15.724,0.017,23.588-0.254
		c7.618-0.262,15.244,0.014,22.869-0.232c8.417-0.271,16.844,0.037,25.267-0.247c5.193-0.175,10.396-0.015,15.594-0.076
		c5.184-0.06,10.368,0.146,15.553-0.167c2.59-0.157,5.197-0.005,7.796-0.043c0.657-0.01,1.109,0.235,1.5,0.701
		C573.6,2.64,573.6,2.88,573.6,3.12z"/>
	<path fill="#060606" d="M368.16,66.48c0.04-0.306,0.002-0.651,0.134-0.91c0.43-0.84,0.923-1.648,1.399-2.481
		c0.244,0.015,0.442,0.007,0.632,0.042c1.986,0.362,3.565-0.451,4.975-1.728c1.036-0.938,2.05-1.901,2.96-2.748
		c0.809-7.459,1.592-14.667,2.377-21.908c1.322,0,2.516-0.002,3.709,0.003c0.112,0,0.225,0.043,0.459,0.091
		c-0.625,5.479-1.559,10.904-2.159,16.409c4.5-5.451,8.879-10.987,13.278-16.459c1.301,0,2.57,0,3.994,0
		c-0.535,0.678-0.977,1.264-1.447,1.827c-1.731,2.076-3.478,4.139-5.204,6.219c-2.179,2.626-4.336,5.27-6.516,7.895
		c-1.751,2.11-3.514,4.21-5.287,6.302c-1.001,1.181-1.968,2.403-3.072,3.481c-0.988,0.964-2.123,1.785-3.234,2.615
		c-0.793,0.592-1.686,1.009-2.694,1.126c-0.083,0.01-0.15,0.147-0.225,0.224C370.88,66.48,369.52,66.48,368.16,66.48z"/>
	<path fill="#060606" d="M264.306,57.533c-1.364,0-2.638,0-4.044,0c0.245-0.376,0.402-0.691,0.626-0.948
		c1.334-1.53,2.696-3.036,4.026-4.569c1.848-2.131,3.669-4.285,5.517-6.416c1.251-1.443,2.54-2.854,3.791-4.297
		c1.926-2.221,3.828-4.462,5.753-6.684c1.224-1.413,2.471-2.805,3.707-4.208c0.445-0.506,0.887-1.014,1.35-1.544
		c1.568,0,3.157,0,4.834,0c0,0.724,0.044,1.43-0.01,2.13c-0.097,1.256-0.278,2.506-0.379,3.762
		c-0.124,1.543-0.181,3.092-0.307,4.635c-0.202,2.481-0.442,4.959-0.656,7.44c-0.095,1.104-0.17,2.211-0.245,3.317
		c-0.105,1.544-0.188,3.089-0.305,4.632c-0.068,0.901-0.184,1.798-0.283,2.738c-1.484,0-2.941,0-4.379,0
		c0.223-2.439,0.441-4.827,0.665-7.276c-4.515,0-8.938,0-13.477,0C268.471,52.622,266.394,55.071,264.306,57.533z M285.686,32.746
		c-1.59,1.482-11.578,13.224-11.997,14.069c3.544,0,7.08,0,10.671,0C284.797,42.18,285.23,37.583,285.686,32.746z"/>
	<path fill="#070707" d="M187.561,57.539c-5.317,0-10.587,0-15.963,0c0.379-0.878,0.705-1.7,1.082-2.498
		c1.801-3.807,3.618-7.607,5.426-11.411c1.268-2.668,2.536-5.335,3.791-8.008c0.887-1.89,1.752-3.79,2.631-5.684
		c0.164-0.354,0.349-0.697,0.528-1.053c5.199,0,10.342,0,15.605,0c-0.533,1.124-1.03,2.173-1.526,3.221c-3.83,0-7.582,0-11.463,0
		c-1.372,2.92-2.754,5.862-4.192,8.922c3.623,0,7.129,0,10.82,0c-0.302,0.656-0.543,1.172-0.779,1.691
		c-0.244,0.536-0.484,1.073-0.746,1.654c-3.575,0-7.168,0-10.886,0c-1.473,3.146-2.952,6.304-4.468,9.542
		c1.081,0.263,2.035,0.113,2.976,0.14c0.919,0.026,1.84,0.006,2.76,0.006c0.96,0,1.92,0,2.88,0c0.912,0,1.823,0,2.76,0
		c0.273,0.739-0.212,1.243-0.433,1.796C188.146,56.403,187.859,56.922,187.561,57.539z"/>
	<path fill="#080808" d="M250.476,48.194c-4.901,0-9.655,0-14.397,0c-0.682,0.421-0.657,1.175-0.799,1.795
		c-0.203,0.882-0.254,1.795,0.074,2.699c0.566,1.561,1.855,2.092,3.303,2.265c2.115,0.253,4.155-0.219,6.145-0.924
		c0.358-0.127,0.724-0.23,1.269-0.4c-0.118,0.414-0.165,0.663-0.26,0.892c-0.257,0.618-0.538,1.226-0.805,1.841
		c-0.186,0.428-0.502,0.624-0.959,0.774c-2.399,0.787-4.855,1.006-7.361,0.929c-1.085-0.033-2.084-0.311-3.055-0.77
		c-2.024-0.956-2.921-3.488-2.598-5.484c0.312-1.931,0.918-3.744,1.806-5.452c2.007-3.861,4.853-6.914,8.855-8.779
		c2.111-0.983,4.321-1.482,6.658-1.279c1.033,0.09,2.012,0.437,2.841,1.035c0.985,0.71,1.376,1.802,1.506,2.98
		c0.182,1.654-0.233,3.215-0.829,4.729C251.451,46.101,250.951,47.127,250.476,48.194z M248.027,45.393
		c0.129-0.328,0.246-0.538,0.294-0.764c0.188-0.882,0.462-1.764,0.504-2.655c0.073-1.532-0.621-2.229-2.112-2.684
		c-1.026-0.313-1.965-0.102-2.896,0.192c-2.196,0.693-3.843,2.165-5.242,3.931c-0.465,0.586-1.01,1.151-1.172,1.98
		C240.983,45.393,244.486,45.393,248.027,45.393z"/>
	<path fill="#060606" d="M369.77,44.665c0.229-0.734,0.468-1.395,0.639-2.073c0.451-1.788-0.418-3.033-2.256-3.24
		c-1.563-0.176-3.08,0.091-4.564,0.566c-0.921,0.295-1.829,0.626-2.968,1.019c0.502-1.155,0.917-2.109,1.385-3.186
		c0.958-0.312,1.972-0.757,3.032-0.96c1.589-0.303,3.198-0.566,4.831-0.526c0.873,0.021,1.714,0.2,2.56,0.425
		c1.88,0.5,2.594,2.337,2.349,3.986c-0.233,1.566-0.791,3.03-1.479,4.463c-1.828,3.806-3.593,7.642-5.387,11.465
		c-0.149,0.318-0.326,0.624-0.491,0.938c-1.122,0-2.19,0-3.359,0c0.103-1.018,0.945-1.744,1.022-2.914
		c-1.301,1.114-2.635,1.86-4.043,2.433c-1.937,0.788-3.942,1.003-6.034,0.581c-2.216-0.447-3.038-2.41-2.569-4.315
		c0.554-2.252,1.811-4.047,3.595-5.463c1.859-1.475,4.02-2.305,6.348-2.746c2.199-0.416,4.414-0.483,6.64-0.453
		C369.218,44.668,369.417,44.665,369.77,44.665z M368.444,47.309c-0.907,0-1.698-0.027-2.486,0.005
		c-1.775,0.072-3.539,0.248-5.201,0.93c-1.869,0.767-3.34,1.954-3.965,3.973c-0.474,1.53,0.218,2.6,1.799,2.749
		c0.997,0.094,1.966-0.051,2.917-0.375C365.046,53.386,367.019,50.705,368.444,47.309z"/>
	<path fill="#050505" d="M392.303,56.671c0.547-1.042,1.091-2.08,1.648-3.141c0.715,0.307,1.38,0.645,2.079,0.881
		c1.48,0.499,3.019,0.665,4.535,0.274c2.033-0.525,3.579-1.651,4.078-3.913c-0.131-0.958-0.897-1.494-1.618-2.045
		c-0.851-0.649-1.714-1.285-2.604-1.878c-0.671-0.447-0.987-1.115-1.286-1.803c-0.411-0.945-0.128-1.84,0.235-2.727
		c0.773-1.885,2.163-3.193,3.905-4.161c2.53-1.407,5.227-1.929,8.099-1.465c1.007,0.163,2.013,0.331,3.187,0.524
		c-0.595,1.187-1.117,2.227-1.628,3.247c-1.093-0.339-2.148-0.762-3.244-0.982c-1.633-0.329-3.217-0.124-4.697,0.748
		c-0.73,0.43-1.178,1.047-1.48,1.788c-0.287,0.702-0.04,1.454,0.666,2.005c0.528,0.412,1.115,0.749,1.673,1.123
		c0.562,0.375,1.149,0.718,1.676,1.137c1.615,1.284,2.227,2.746,1.265,5.068c-0.785,1.895-2.119,3.308-3.847,4.398
		c-2.721,1.717-5.71,2.239-8.856,2.042c-1.136-0.071-2.247-0.362-3.32-0.76C392.629,56.977,392.519,56.84,392.303,56.671z"/>
	<path fill="#060606" d="M228.03,39.798c-1.408,3.013-2.773,5.942-4.144,8.867c-0.301,0.641-0.658,1.258-0.922,1.914
		c-0.308,0.763-0.585,1.545-0.801,2.339c-0.327,1.201-0.133,1.483,1.1,1.854c0.148,0.045,0.286,0.126,0.422,0.187
		c0.785-0.159,1.545-0.313,2.395-0.485c0.026,0.661-0.382,1.083-0.568,1.571c-0.183,0.48-0.445,0.929-0.724,1.498
		c-1.801,0.402-3.663,0.509-5.558,0.099c-1.039-0.225-1.911-1.372-1.717-2.627c0.149-0.964,0.445-1.915,0.773-2.838
		c0.315-0.888,0.739-1.738,1.143-2.592c1.468-3.103,2.948-6.201,4.42-9.302c0.05-0.105,0.061-0.227,0.117-0.444
		c-1.299,0-2.561,0-3.923,0c0.241-1.164,0.917-2.01,1.24-3.08c1.457,0,2.881,0,4.344,0c0.66-1.418,1.312-2.765,1.914-4.134
		c0.309-0.703,0.701-1.12,1.54-1.26c1.062-0.177,2.08-0.613,3.382-1.021c-1.059,2.261-2.002,4.275-3,6.405c1.615,0,3.189,0,4.94,0
		c-0.535,1.121-0.99,2.074-1.456,3.05C231.321,39.798,229.729,39.798,228.03,39.798z"/>
	<path fill="#050505" d="M207.86,26.7c1.268,0,2.495,0,3.832,0c-0.45,1.023-0.85,1.988-1.295,2.932
		c-1.732,3.674-3.481,7.34-5.219,11.011c-1.299,2.743-2.59,5.49-3.885,8.236c-1.227,2.602-2.452,5.205-3.681,7.807
		c-0.134,0.284-0.286,0.56-0.432,0.846c-1.244,0-2.468,0-3.799,0c0.111-0.315,0.178-0.569,0.287-0.802
		c1.357-2.89,2.724-5.776,4.082-8.666c2.011-4.281,4.014-8.566,6.026-12.847c1.24-2.639,2.49-5.273,3.739-7.908
		C207.616,27.099,207.745,26.904,207.86,26.7z"/>
	<path fill="#060606" d="M305.655,57.538c-1.315,0-2.583,0-3.963,0c0.12-0.304,0.201-0.543,0.307-0.77
		c1.865-3.957,3.729-7.914,5.603-11.868c1.216-2.567,2.446-5.127,3.673-7.688c0.067-0.14,0.159-0.269,0.248-0.417
		c1.122,0,2.225,0,3.487,0c-0.532,1.14-1.018,2.182-1.505,3.223c0.039,0.04,0.079,0.08,0.118,0.12
		c0.619-0.511,1.212-1.058,1.863-1.524c0.705-0.504,1.446-0.967,2.206-1.385c0.727-0.4,1.527-0.664,2.357-0.72
		c0.825-0.056,1.657-0.012,2.648-0.012c-0.594,1.41-1.238,2.608-1.873,3.797c-2.807-0.663-5.036,0.351-6.979,2.144
		c-1.499,1.384-2.559,3.086-3.391,4.956c-0.977,2.197-2.065,4.344-3.099,6.515C306.782,55.116,306.221,56.33,305.655,57.538z"/>
	<path fill="#060606" d="M207.529,57.541c-1.316,0-2.51,0-3.673,0c-0.053-0.062-0.085-0.086-0.097-0.117
		c-0.013-0.036-0.023-0.086-0.008-0.118c3.131-6.719,6.263-13.438,9.401-20.154c0.065-0.139,0.188-0.25,0.275-0.362
		c1.26,0,2.487,0,3.871,0C214.016,43.759,210.78,50.634,207.529,57.541z"/>
	<path fill="#060606" d="M300.978,36.788c1.366,0,2.557,0,3.856,0c-0.111,0.314-0.177,0.566-0.286,0.797
		c-0.944,1.997-1.901,3.988-2.844,5.986c-2.089,4.425-4.171,8.852-6.257,13.278c-0.101,0.214-0.211,0.424-0.337,0.678
		c-1.213,0-2.438,0-3.768,0c0.062-0.242,0.084-0.461,0.172-0.648c1.4-3.004,2.806-6.005,4.215-9.005
		c1.575-3.353,3.153-6.705,4.733-10.056C300.626,37.464,300.81,37.12,300.978,36.788z"/>
	<path fill="#070707" d="M220.19,28.881c0.224,0.333,0.4,0.594,0.541,0.803c0.177,1.09-0.116,2.004-0.727,2.827
		c-0.419,0.564-1.014,0.922-1.67,1.055c-0.963,0.194-1.818-0.02-2.321-1.333C215.37,29.918,218.339,27.653,220.19,28.881z"/>
	<path fill="#070707" d="M303.671,32.404c-0.189-1.045,0.121-1.921,0.697-2.723c0.415-0.578,1.018-0.91,1.669-1.089
		c1.045-0.288,1.57,0.008,2.264,1.064c0.26,1.139-0.058,2.045-0.7,2.865c-0.436,0.557-1.027,0.915-1.69,1.049
		C304.926,33.769,304.096,33.491,303.671,32.404z"/>
	<path fill="#060606" d="M358.08,36.92c0,0.04,0.01,0.09-0.01,0.12c-0.08,0.14-0.16,0.27-0.25,0.4c-0.09,0.13-0.2,0.25-0.29,0.38
		c-5.26,6.57-10.52,13.15-15.75,19.71h-4.5c0.39-2.21,0.76-4.37,1.15-6.53c0.46-2.59,0.93-5.18,1.39-7.78
		c0.14-0.86,0.23-1.72,0.35-2.58c-0.06-0.05-0.11-0.1-0.16-0.14c-2.24,2.93-4.47,5.87-6.71,8.79c-1.99,2.59-3.99,5.15-5.99,7.73
		c-0.15,0.18-0.33,0.35-0.49,0.52h-4.32c0.18-2.36,0.66-4.63,1.01-6.91c0.34-2.3,0.66-4.61,1.01-6.91c0.35-2.3,0.73-4.58,1.1-6.92
		h4.1c0,0.26,0.05,0.57-0.01,0.85c-0.63,3.33-1.26,6.65-1.92,9.96c-0.37,1.85-0.77,3.69-1.16,5.54c-0.02,0.11,0.02,0.22,0.05,0.51
		c4.36-5.71,8.64-11.29,12.91-16.88h4.83c-0.99,5.6-1.91,11.15-2.99,16.74c0.15-0.09,0.38-0.15,0.49-0.3
		c2.48-3.25,4.95-6.51,7.42-9.77c1.68-2.21,3.36-4.42,5.07-6.67h3.64C358.07,36.85,358.08,36.89,358.08,36.92z"/>
</g>
</svg>
