<?xml version="1.0" encoding="UTF-8"?>
<svg width="67px" height="23px" viewBox="0 0 67 23" version="1.1" xmlns="http://www.w3.org/2000/svg" xmlns:xlink="http://www.w3.org/1999/xlink">
    <!-- Generator: Sketch 49.1 (51147) - http://www.bohemiancoding.com/sketch -->
    <title>Rusline_l Copy</title>
    <desc>Created with Sketch.</desc>
    <defs></defs>
    <g id="AVIA" stroke="none" stroke-width="1" fill="none" fill-rule="evenodd">
        <g id="Rusline_l-Copy">
            <path d="M18.0485031,9.88403333 C18.6072427,12.7173667 18.0295628,15.2913667 16.2156111,17.5385333 C14.496195,19.6685333 12.2324937,20.8285333 9.51821193,21.1042 C6.74013122,21.3863667 4.31759698,20.5608667 2.28633003,18.6583667 C0.953030716,17.4095333 0.180963191,15.8637 0.186113631,13.9915333 C0.191097927,12.2005333 1.45810609,10.2960333 3.0228429,9.7237 C3.89409793,9.40503333 4.76319309,9.44303333 5.61467707,9.80353333 C6.1883696,10.0465333 6.43758442,10.5222 6.26130647,11.0007 C5.70140383,10.3072 5.03483725,10.3033667 4.45449899,11.0087 C3.90805396,11.6727 3.83694466,12.4737 3.9166934,13.2790333 C4.10177695,15.1475333 5.25464472,16.2695333 6.88650339,16.9670333 C10.1146661,18.3462 14.6774572,17.4263667 16.7771752,13.8937 C17.5000643,12.6773667 17.8600967,11.3502 17.953303,9.9442 C17.9644346,9.89136667 17.9916821,9.86403333 18.0485031,9.88403333" id="Fill-1" fill="#DF0918"></path>
            <path d="M18.6276451,15.5338667 C18.7907977,14.9498667 18.9443141,14.4072 19.0287148,13.8472 C19.2478577,12.3902 19.1387016,10.9595333 18.7103844,9.5537 C18.6420996,9.3297 18.6284758,9.2502 18.9169004,9.2647 C19.7938043,9.3087 20.6059124,8.7077 20.8577855,7.86886667 C21.1084956,7.0337 20.7634161,6.13803333 20.0063015,5.66103333 C19.9232299,5.6087 19.8375,5.5602 19.7348235,5.49903333 C19.8690672,5.3897 19.9998219,5.2927 20.1184482,5.1827 C20.1722786,5.1327 20.2428894,5.05903333 20.1601501,4.9782 C20.0912007,4.9107 20.0313891,4.97736667 19.9762296,5.0137 C19.4877685,5.33486667 18.966245,5.56586667 18.3805901,5.6442 C18.0782095,5.6847 17.782973,5.66536667 17.4925546,5.5887 C16.6301052,5.36086667 16.2228882,4.33903333 16.6497101,3.47786667 C16.8580537,3.05753333 17.1805377,2.73186667 17.5374133,2.43903333 C17.8775085,2.15986667 18.2087981,1.87336667 18.4510349,1.49886667 C18.8128948,0.938866667 18.7476005,0.5942 18.2087981,0.2197 C18.8291768,-0.133633333 19.8772082,-0.0503 20.4206627,0.395866667 C21.0603141,0.9207 21.0436997,1.73436667 20.381619,2.23053333 C20.2882465,2.3007 20.1862346,2.35953333 20.0599658,2.44203333 C20.7566043,2.83886667 21.3749893,3.29953333 21.899005,3.8752 C24.6340546,6.87936667 24.340978,11.3777 21.2419086,14.0083667 C20.4578788,14.6737 19.4252987,15.2825333 18.6276451,15.5338667" id="Fill-3" fill="#DF0918"></path>
            <path d="M14.9060537,5.56015 C14.4244045,5.32498333 14.0043944,5.16065 13.5574692,5.06781667 C12.6347098,4.87631667 11.6978282,4.86265 10.7636049,4.84998333 C9.28891768,4.82998333 7.81373207,4.83365 6.33887874,4.84748333 C4.53672327,4.86465 3.03229645,4.16815 1.73787465,2.95698333 C1.0852641,2.34631667 0.531176476,1.65615 0.131435898,0.849816667 C0.00666234296,0.59815 0.00317333543,0.573983333 1.66143216e-05,0.34565 C0.0658093279,0.307483333 0.111664856,0.356816667 0.160843247,0.384816667 C1.64882189,1.22931667 3.26257095,1.58848333 4.95673332,1.66815 C6.52745129,1.74198333 8.10149212,1.73381667 9.66905336,1.88998333 C12.0625125,2.12831667 13.7495307,3.37948333 14.9060537,5.56015" id="Fill-5" fill="#DF0918"></path>
            <path d="M17.1105416,10.3077 C16.6769078,12.4505333 15.4733663,13.9975333 13.5063968,14.9278667 C12.3369147,15.4812 11.1104454,15.6608667 9.85024915,15.2700333 C8.38619513,14.8157 7.48204375,13.3065333 7.76332421,11.8293667 C7.85486913,11.3485333 8.08614048,10.9403667 8.47292189,10.6513667 C9.513643,9.87386667 10.6562099,9.7187 11.8492843,10.2295333 C12.622681,10.5605333 12.8552815,11.2810333 12.5013965,12.0452 C12.4743151,12.1035333 12.4917601,12.2532 12.3380777,12.1540333 C12.1617997,12.0400333 11.9650861,12.0605333 11.8690554,12.2388667 C11.7540843,12.4528667 11.8290149,12.6757 12.0210764,12.8263667 C12.285078,13.0337 12.5952674,13.1417 12.9275538,13.1755333 C14.1480419,13.2998667 15.1115064,12.7850333 15.930094,11.9355333 C16.4195519,11.4277 16.7666251,10.8225333 17.0515607,10.1803667 C17.165535,10.1790333 17.1231684,10.2502 17.1105416,10.3077" id="Fill-7" fill="#DF0918"></path>
            <path d="M24.5745754,22.4747833 C24.0113499,22.4747833 23.5132525,22.4666167 23.0158197,22.47945 C22.8523348,22.4836167 22.7682663,22.42895 22.6905113,22.2897833 C22.3695226,21.7156167 22.0304243,21.1517833 21.7112632,20.5766167 C21.627527,20.42595 21.5371451,20.35795 21.3620302,20.3712833 C21.0953703,20.3916167 20.7552751,20.29195 20.5794956,20.42295 C20.4063744,20.55195 20.3965719,20.90395 20.3193153,21.1592833 C20.2040119,21.54095 20.088044,21.92245 19.9823769,22.3067833 C19.9516404,22.4187833 19.9135936,22.4781167 19.7856633,22.4771167 C19.1488364,22.4721167 18.5120094,22.4747833 17.8379664,22.4747833 C18.0147428,21.8801167 18.1827136,21.3101167 18.3536749,20.7411167 C18.7610581,19.3857833 19.1742563,18.0321167 19.5736646,16.67445 C19.6441093,16.4351167 19.7532654,16.3497833 20.0097905,16.3587833 C21.1342478,16.3972833 22.2621941,16.30045 23.3844915,16.4176167 C24.0778072,16.4901167 24.7275933,16.69845 25.2614114,17.1791167 C26.0946197,17.9291167 26.0529177,19.08145 25.1648822,19.7682833 C24.708653,20.1211167 24.1798191,20.28595 23.6126062,20.31745 C23.3811687,20.3301167 23.3645543,20.3832833 23.4776979,20.57395 C23.8427145,21.1882833 24.1934428,21.8116167 24.5745754,22.4747833 Z M21.5210458,19.945 L22.0171495,19.945 C22.8814265,19.9446667 23.5720838,19.4375 23.8289412,18.6148333 C24.0580527,17.8811667 23.7460358,17.2651667 23.0204883,17.0336667 C22.5640929,16.8883333 22.0962336,16.918 21.6283743,16.9611667 C21.4956259,16.9733333 21.4821683,17.068 21.4552531,17.1673333 C21.2803043,17.8118333 21.1002051,18.455 20.9252562,19.0995 C20.8524855,19.3676667 20.6487939,19.7471667 20.7531319,19.8815 C20.9013316,20.072 21.2866177,19.915 21.5210458,19.945 Z" id="Combined-Shape" fill="#DF0918"></path>
            <path d="M3.96412729,5.34196667 C5.75830788,5.9518 7.54301831,5.75613333 9.30779155,5.80146667 C10.5119976,5.83246667 11.7188619,5.77146667 12.9207419,5.86013333 C14.2809564,5.9603 15.5404882,6.35046667 16.5654257,7.31096667 C17.005539,7.72346667 17.3511169,8.2078 17.6348895,8.79296667 C16.3633955,8.0938 15.0073346,8.1468 13.6600792,8.14513333 C12.0553019,8.1433 10.4501923,8.1223 8.84574727,8.15046667 C6.80783458,8.18613333 5.30922277,7.24696667 4.1548597,5.64113333 C4.10302302,5.56913333 4.05916121,5.49146667 3.96412729,5.34196667" id="Fill-11" fill="#DF0918"></path>
            <path d="M52.4420096,18.17335 C53.1577546,17.72485 53.8582144,17.40235 54.6566987,17.3536833 C55.0566054,17.3291833 55.4550168,17.3466833 55.841466,17.4576833 C56.4603494,17.6351833 56.7502693,18.08585 56.671019,18.7266833 C56.5748221,19.5046833 56.2747675,20.22935 56.0798815,20.9816833 C55.9647442,21.4250167 55.81372,21.8590167 55.6944292,22.3015167 C55.6590407,22.4330167 55.6086993,22.47885 55.4742894,22.47735 C54.8768384,22.47135 54.2795536,22.47485 53.6502031,22.47485 C53.9019101,21.61485 54.1458083,20.7766833 54.3926971,19.9395167 C54.4775963,19.65185 54.5533576,19.36285 54.5811035,19.06335 C54.62347,18.6056833 54.4257596,18.3381833 53.9816588,18.2500167 C53.3778943,18.1301833 52.7664873,18.4140167 52.4024675,18.9850167 C52.1248422,19.4205167 52.0032254,19.9170167 51.8575178,20.4035167 C51.6745941,21.0145167 51.4903413,21.62535 51.3212075,22.2401833 C51.2746874,22.4090167 51.2188633,22.4856833 51.0253064,22.4805167 C50.448291,22.46485 49.8707772,22.47485 49.2585394,22.47485 C49.4693752,21.7536833 49.6730668,21.05785 49.8764261,20.36185 C50.1392646,19.4626833 50.4044292,18.56435 50.6616189,17.6635167 C50.7079729,17.50085 50.7697781,17.42235 50.9603444,17.4291833 C51.4380062,17.44635 51.9173293,17.4475167 52.3949911,17.4296833 C52.638557,17.4206833 52.6594911,17.5005167 52.5785793,17.69835 C52.5229214,17.83435 52.4956739,17.98185 52.4420096,18.17335" id="Fill-13" fill="#DF0918"></path>
            <path d="M29.4467584,17.4347333 C29.1626535,18.3999 28.8915078,19.3164 28.6238511,20.2339 C28.5765003,20.3962333 28.534466,20.5610667 28.5050587,20.7275667 C28.4055389,21.2882333 28.7059258,21.6634 29.2716435,21.6940667 C30.0820901,21.7377333 30.6421589,21.3844 30.9093171,20.5835667 C31.1962465,19.7239 31.4338313,18.8479 31.6896918,17.9780667 C31.8493555,17.4357333 31.8466972,17.4349 32.406766,17.4349 L33.8357638,17.4349 C33.6345643,18.1272333 33.441672,18.7964 33.2457892,19.4645667 C32.9711545,20.4017333 32.6913693,21.3372333 32.4215527,22.2759 C32.383672,22.4077333 32.3459575,22.4810667 32.1884538,22.4787333 C31.6212408,22.4694 31.0536956,22.4749 30.4515926,22.4749 C30.5119026,22.2350667 30.5677267,22.0129 30.6333533,21.7509 C30.0834192,22.0880667 29.570369,22.3984 28.9707581,22.5057333 C28.3452289,22.6175667 27.7230226,22.6160667 27.1217503,22.3794 C26.4792744,22.1262333 26.2323856,21.6934 26.4119864,21.0309 C26.7250003,19.8770667 27.0748979,18.7335667 27.4065197,17.5847333 C27.4390838,17.4722333 27.4942433,17.4304 27.6158602,17.4317333 C28.2128128,17.4384 28.8097653,17.4347333 29.4467584,17.4347333" id="Fill-15" fill="#DF0918"></path>
            <path d="M60.8784963,19.96485 C60.5797708,19.96485 60.280713,19.9706833 59.9821536,19.9621833 C59.837609,19.9581833 59.7796251,20.0100167 59.7370924,20.1526833 C59.4388653,21.1530167 59.9191854,21.82485 60.9703735,21.87585 C61.6209903,21.90735 62.2335604,21.7640167 62.8256948,21.5080167 C62.9227224,21.4660167 63.0307155,21.36835 63.1174423,21.4870167 C63.2000155,21.6000167 63.0483267,21.6485167 63.0036342,21.7256833 C62.8180522,22.0475167 62.5218188,22.19835 62.1747457,22.3040167 C61.1720714,22.6091833 60.1629175,22.66885 59.143795,22.42285 C57.8315959,22.1065167 57.3160535,21.20935 57.6830638,19.9026833 C57.9316141,19.01785 58.4820465,18.3661833 59.2758788,17.93585 C60.4277497,17.3115167 61.6547174,17.2015167 62.9232209,17.4875167 C63.1581474,17.54035 63.3749643,17.6400167 63.5728408,17.7776833 C64.3060308,18.2881833 64.2332601,19.2210167 63.4289608,19.6010167 C62.8484564,19.8751833 62.2207673,19.91385 61.595072,19.9515167 C61.3571549,19.9656833 61.1174102,19.95385 60.8786624,19.95385 C60.8784963,19.95735 60.8784963,19.9611833 60.8784963,19.96485 Z M59.9797944,19.5311 C60.4484844,19.5311 60.9156791,19.5486 61.3808802,19.5256 C61.7558654,19.5067667 62.1032709,19.3762667 62.3581345,19.0791 C62.6905871,18.6917667 62.5501961,18.2731 62.057083,18.1591 C61.1087376,17.9399333 60.1793324,18.5489333 59.9797944,19.5311 Z" id="Combined-Shape" fill="#DF0918"></path>
            <path d="M39.701234,22.4747833 C40.1569649,20.9201167 40.6023948,19.4007833 41.0474925,17.8811167 C41.1847268,17.4127833 41.3267792,16.9457833 41.4557064,16.47495 C41.501728,16.30695 41.5738342,16.2347833 41.7617422,16.2397833 C42.2995478,16.2541167 42.8380179,16.25395 43.3756574,16.24045 C43.5949664,16.2351167 43.6185588,16.2927833 43.5582488,16.4946167 C43.0531734,18.1846167 42.5593958,19.87795 42.0617968,21.5701167 C41.9626093,21.9071167 41.9614463,21.9061167 42.2993816,21.9047833 C42.5883047,21.9037833 42.8780584,21.8912833 43.1659846,21.90945 C43.3640274,21.9221167 43.4497573,21.8491167 43.4881363,21.6607833 C43.5216973,21.4957833 43.6069287,21.3411167 43.6371668,21.17595 C43.6840192,20.9216167 43.8077959,20.9617833 43.9712808,21.0556167 C44.3519149,21.2742833 44.604951,21.9187833 44.4793468,22.3431167 C44.4472811,22.4507833 44.3886326,22.4767833 44.2849592,22.4766167 C42.7710622,22.47395 41.2569991,22.4747833 39.701234,22.4747833" id="Fill-19" fill="#DF0918"></path>
            <path d="M34.598494,21.14275 C34.9535421,22.2744167 36.5584856,22.17825 37.1285229,21.6064167 C37.3568037,21.3775833 37.3287255,21.1384167 37.0537585,20.9630833 C36.7734749,20.7844167 36.4519878,20.70825 36.1404692,20.60725 C35.7626595,20.48475 35.3806963,20.36975 35.0507359,20.1360833 C34.6495,19.85175 34.5217359,19.48125 34.6589702,19.01075 C34.8103266,18.4920833 35.1484281,18.11775 35.6066511,17.86575 C36.8091957,17.2044167 38.0504516,17.1795833 39.3141369,17.6845833 C39.5263018,17.7695833 39.5759786,17.8645833 39.4161489,18.0714167 C39.2227582,18.32125 39.0066058,18.5315833 38.7314727,18.6809167 C38.6206552,18.74125 38.5340945,18.7930833 38.4995367,18.5830833 C38.4570041,18.3239167 38.266604,18.1445833 38.0310129,18.03525 C37.5025113,17.7905833 36.9776649,17.8410833 36.4915298,18.13425 C36.0607205,18.3940833 36.0894633,18.7919167 36.5500122,18.9850833 C36.905891,19.13425 37.2835345,19.2320833 37.6532032,19.3475833 C37.890788,19.4219167 38.1252161,19.5030833 38.3412023,19.62875 C38.8848229,19.9444167 39.0418282,20.37625 38.8346476,20.9725833 C38.6759808,21.4290833 38.3697789,21.77075 37.9577437,21.9935833 C36.6789394,22.6854167 35.3501259,22.7640833 33.9840964,22.2705833 C33.7785773,22.1960833 33.7317249,22.1105833 33.8649717,21.9129167 C34.0628483,21.6199167 34.2907968,21.3644167 34.598494,21.14275" id="Fill-21" fill="#DF0918"></path>
            <path d="M46.4787142,22.47495 C46.219697,22.4751167 45.9596828,22.4602833 45.7021608,22.47945 C45.4808581,22.4961167 45.4878361,22.4067833 45.5370145,22.24095 C45.9899209,20.71295 46.4395044,19.18395 46.8841037,17.6536167 C46.9284639,17.5012833 46.979636,17.4241167 47.1612306,17.4296167 C47.6787667,17.4447833 48.1969674,17.4386167 48.7146696,17.4326167 C48.8731703,17.4307833 48.9477686,17.43595 48.8866279,17.6402833 C48.4244174,19.1867833 47.9731725,20.73645 47.5252503,22.2871167 C47.4808901,22.4402833 47.4094485,22.4866167 47.2552676,22.47845 C46.9969149,22.46495 46.7375654,22.4747833 46.4787142,22.47495" id="Fill-23" fill="#DF0918"></path>
            <path d="M17.7389284,17.2784833 C17.8329655,18.5439833 15.7177962,21.0673167 13.6702472,22.0373167 C11.1277576,23.2414833 8.59623339,23.1753167 6.11073087,21.87215 C10.9910217,22.8903167 14.8983779,21.4464833 17.7389284,17.2784833" id="Fill-25" fill="#DF0918"></path>
            <path d="M26.9241894,2.93896667 C26.912227,3.78396667 26.5950596,4.4473 25.9152016,4.92063333 C25.4043112,5.2763 24.8241391,5.43213333 24.2123998,5.49846667 C24.0354573,5.5178 23.9470691,5.4603 23.8684833,5.3018 C23.58388,4.72746667 23.2137129,4.2093 22.7566529,3.68963333 C24.2060863,3.72696667 25.5905578,3.5788 26.9241894,2.93896667" id="Fill-27" fill="#DF0918"></path>
            <path d="M26.6379744,5.09025 C26.653758,5.88175 26.5961063,6.58091667 26.2437166,7.22108333 C25.9453234,7.76341667 25.4847744,8.10025 24.8896494,8.26825 C24.7075564,8.31958333 24.6686789,8.27441667 24.6590426,8.10058333 C24.6218265,7.41891667 24.4701378,6.75991667 24.2277348,6.09725 C25.1117829,6.00741667 25.9378469,5.78758333 26.6379744,5.09025" id="Fill-29" fill="#DF0918"></path>
            <path d="M48.0285148,16.6486 C47.9589008,16.6486 47.8874592,16.6589333 47.820005,16.6467667 C47.5239378,16.5936 47.2519614,16.4837667 47.1514447,16.1714333 C47.0491005,15.8542667 47.206272,15.6076 47.4382079,15.4087667 C47.8510738,15.0547667 48.3325568,14.9352667 48.8587324,15.0514333 C49.1302104,15.1114333 49.3623125,15.2611 49.4309296,15.5592667 C49.4968885,15.8461 49.3493533,16.0616 49.1486523,16.2404333 C48.8306542,16.5236 48.4520138,16.6529333 48.0285148,16.6486" id="Fill-31" fill="#DF0918"></path>
            <path d="M20.7601764,2.27026667 C21.0565758,2.15426667 21.3486556,2.02826667 21.595046,1.82126667 C21.8254867,1.6276 21.9597304,1.39826667 21.8022266,1.07143333 C21.6212966,1.28426667 21.4416958,1.1786 21.2931638,1.04043333 C21.1155567,0.8751 21.1614122,0.674766667 21.2928315,0.501933333 C21.4971877,0.233266667 21.7849477,0.133766667 22.1097577,0.1731 C22.4900595,0.2191 22.7809763,0.4121 22.9308375,0.7781 C23.1021311,1.19593333 23.0002853,1.56076667 22.6457357,1.8386 C22.2322052,2.16243333 21.7615215,2.31976667 21.2385027,2.32476667 C21.0771776,2.32376667 20.9053855,2.41543333 20.7601764,2.27026667" id="Fill-33" fill="#DF0918"></path>
            <path d="M57.3680563,15.2156667 C57.5466602,14.5963333 57.7141326,14.0153333 57.8814388,13.4351667 C57.5717479,13.3301667 57.4017834,13.4265 57.2956178,13.7343333 C57.1598788,14.1285 56.9819394,14.5091667 56.7466807,14.8575 C56.5856879,15.0955 56.367708,15.2395 56.0716408,15.2178333 C55.9997008,15.2125 55.8541593,15.2658333 55.8692783,15.1281667 C55.8822375,15.0126667 55.8727673,14.8061667 56.0116631,14.8006667 C56.321354,14.7885 56.4095761,14.5618333 56.5130833,14.3563333 C56.7048126,13.9746667 56.8869055,13.5866667 57.0450739,13.19 C57.1173462,13.0086667 57.2120478,12.953 57.3961345,12.961 C57.7038317,12.9743333 58.0130242,12.9715 58.3210538,12.9613333 C58.4850371,12.9556667 58.5538204,12.9766667 58.4946734,13.1681667 C58.3037749,13.786 58.1301552,14.4091667 57.9462347,15.0291667 C57.8473795,15.3631667 57.58587,15.1415 57.3680563,15.2156667" id="Fill-35" fill="#1E1E1C"></path>
            <path d="M26.2440323,8.13355 C26.0446604,9.68971667 25.1946717,10.9318833 24.2358592,11.1157167 C24.3596359,10.6792167 24.520961,10.26505 24.5854245,9.82638333 C24.6188193,9.59971667 24.6751419,9.37355 24.6794616,9.14655 C24.683449,8.94455 24.7420976,8.85421667 24.9476167,8.80971667 C25.4294321,8.70571667 25.8519343,8.46605 26.2440323,8.13355" id="Fill-37" fill="#DF0918"></path>
            <path d="M35.6501972,14.6556 C35.7922497,14.4274333 35.9338037,14.2634333 36.0057437,14.0731 C36.1934855,13.5749333 36.5626557,13.5234333 37.0311796,13.6221 C36.8919516,14.0951 36.7522252,14.5702667 36.6121664,15.0454333 C36.5375681,15.2989333 36.3239079,15.1906 36.1891658,15.1699333 C36.0321605,15.1457667 36.1579309,15.0094333 36.1770373,14.9291 C36.2292063,14.7087667 36.2959959,14.4921 36.3122779,14.2521 C36.1497899,14.5099333 35.9720166,14.7596 35.8292996,15.0279333 C35.7199774,15.2336 35.5495144,15.1869333 35.3901831,15.1799333 C35.1828363,15.1706 35.2906633,14.9984333 35.2773718,14.9012667 C35.2466353,14.6792667 35.2399896,14.4537667 35.1839993,14.2237667 C35.104749,14.4871 35.0103797,14.7469333 34.950402,15.0146 C34.899396,15.2422667 34.7332528,15.2026 34.6029965,15.1752667 C34.4135932,15.1357667 34.5544827,14.9952667 34.5744199,14.9189333 C34.6749365,14.5341 34.8025345,14.1564333 34.9062079,13.7724333 C35.0005772,13.4236 35.2669048,13.6352667 35.4489978,13.6044333 C35.6493665,13.5706 35.5709469,13.7624333 35.5804171,13.8627667 C35.603511,14.1089333 35.5736052,14.3596 35.6501972,14.6556" id="Fill-39" fill="#1D1D1B"></path>
            <path d="M22.0971807,15.20265 C22.5959426,14.4448167 23.0486829,13.75415 23.504746,13.06565 C23.6630805,12.8263167 23.9074771,12.95565 24.1070151,12.95865 C24.2738229,12.96115 24.2030459,13.1499833 24.2115192,13.2549833 C24.2568763,13.82165 24.2882774,14.38915 24.3293148,14.95615 C24.3397818,15.1019833 24.3336345,15.22015 24.1387485,15.1839833 C24.0006835,15.15815 23.7621018,15.29165 23.8003148,14.97765 C23.831882,14.71865 23.7046163,14.6814833 23.4728465,14.6754833 C23.1606634,14.6674833 22.9244077,14.7038167 22.7825214,15.0338167 C22.6587447,15.32265 22.3821163,15.1319833 22.0971807,15.20265 Z M23.7537448,13.5600667 C23.7329769,13.5527333 23.712209,13.5455667 23.6914411,13.5382333 C23.5430752,13.7837333 23.3947093,14.0290667 23.234215,14.2945667 C23.8619041,14.3210667 23.7902963,14.3562333 23.7545755,13.8282333 C23.7485944,13.7392333 23.7537448,13.6494 23.7537448,13.5600667 Z" id="Combined-Shape" fill="#1D1E1C"></path>
            <path d="M50.4138994,15.1883167 C50.6194185,14.4834833 50.8204518,13.80665 51.0121811,13.12715 C51.050394,12.9913167 51.1258231,12.9599833 51.2507628,12.96365 C51.44947,12.96965 51.6488419,12.9648167 51.8478815,12.9644833 C52.108394,12.9638167 52.3665806,13.00615 52.4757367,13.2729833 C52.5976858,13.5708167 52.5347175,13.86365 52.3179006,14.10765 C52.0799835,14.3753167 51.7588287,14.4444833 51.4232194,14.4294833 C51.2205247,14.4204833 51.1005693,14.4683167 51.0831242,14.6839833 C51.0807982,14.7134833 51.0719927,14.7428167 51.0635193,14.7714833 C50.9304386,15.2264833 50.9302725,15.2264833 50.4138994,15.1883167 Z M51.4855563,14.0252333 C51.77747,14.0264 51.9853151,13.8537333 51.9766757,13.6169 C51.9691992,13.4085667 51.8274791,13.3580667 51.6520318,13.3549 C51.4883808,13.3517333 51.3217391,13.6380667 51.3104414,13.9174 C51.3037957,14.0857333 51.4260771,14.0009 51.4855563,14.0252333 Z" id="Combined-Shape" fill="#1D1D1B"></path>
            <path d="M53.3960372,14.5779667 C53.5121713,14.3818 53.6512332,14.1953 53.7394552,13.9873 C53.8801785,13.6558 54.0898513,13.4984667 54.4628428,13.6196333 C54.4930808,13.6951333 54.4108399,13.7431333 54.3716302,13.8023 C53.992159,14.3748 53.6133525,14.9478 53.225242,15.5143 C53.0270331,15.8034667 52.7540598,15.9674667 52.3895416,15.9341333 C52.3058054,15.9263 52.1723924,15.9388 52.2210724,15.8036333 C52.2552979,15.7084667 52.1888406,15.5328 52.4049929,15.5313 C52.7759907,15.5284667 52.9604097,15.3063 52.91904,14.9414667 C52.8750121,14.5553 52.8278274,14.1696333 52.7783167,13.7839667 C52.7650253,13.6798 52.7427621,13.5589667 52.9012627,13.6006333 C53.0353403,13.6358 53.2696022,13.4446333 53.2946898,13.7476333 C53.3172853,14.0221333 53.3211066,14.2981333 53.3332351,14.5734667 C53.3541691,14.5748 53.3751031,14.5764667 53.3960372,14.5779667" id="Fill-45" fill="#1E1E1C"></path>
            <path d="M29.9507871,13.5449333 C30.6090465,13.5544333 30.6087142,13.5544333 30.4324363,14.1756 C30.3619916,14.4244333 30.288224,14.6727667 30.2260864,14.9237667 C30.1661087,15.1664333 29.9094174,15.3257667 29.7479262,15.1604333 C29.5872657,14.9964333 29.53194,15.1307667 29.4395644,15.1732667 C29.0890022,15.3342667 28.7931012,15.1729333 28.7502362,14.7897667 C28.6719828,14.0931 29.2111175,13.5341 29.9507871,13.5449333 Z M29.2538329,14.5787833 C29.2488486,14.6726167 29.2644661,14.7586167 29.351359,14.8136167 C29.4598505,14.8821167 29.543919,14.8152833 29.618185,14.7517833 C29.8195506,14.5797833 29.8637447,14.32595 29.9449887,14.0922833 C30.00912,13.90745 29.9081049,13.8866167 29.7627296,13.9127833 C29.5030477,13.9597833 29.2676228,14.2676167 29.2538329,14.5787833 Z" id="Combined-Shape" fill="#1D1D1B"></path>
            <path d="M40.1170739,15.0836667 C39.9185327,15.2266667 39.7048726,15.2938333 39.4797485,15.1591667 C39.2531291,15.0235 39.2697435,14.7901667 39.2883515,14.5705 C39.3445079,13.906 39.911887,13.4611667 40.6188264,13.5555 C41.2104624,13.6345 41.1463311,13.5358333 40.985006,14.1076667 C40.8878122,14.4523333 40.7653647,14.7908333 40.7234966,15.1496667 C40.5091719,15.2403333 40.312126,15.1725 40.1170739,15.0836667 Z M40.3679169,13.9051167 C40.0479251,13.89845 39.6865636,14.41945 39.8106726,14.7132833 C39.8937442,14.9096167 40.0299816,14.8552833 40.1447866,14.7586167 C40.3717382,14.5677833 40.4185906,14.2832833 40.4920259,14.01645 C40.5192734,13.9177833 40.4468349,13.9007833 40.3679169,13.9051167 Z" id="Combined-Shape" fill="#1D1D1B"></path>
            <path d="M59.5673605,15.0366333 C59.4924299,15.0819667 59.4204899,15.1336333 59.3422364,15.1719667 C58.992505,15.3421333 58.6987638,15.1821333 58.6504161,14.7983 C58.5616956,14.0938 59.1623033,13.4953 59.9051296,13.5479667 C60.5075649,13.5908 60.5090602,13.5913 60.3376004,14.1698 C60.2473847,14.4743 60.1428806,14.7751333 60.1005141,15.0919667 C59.8682459,15.2431333 59.6966199,15.2254667 59.5673605,15.0366333 Z M59.15702,14.6093833 C59.1527003,14.7073833 59.1845997,14.7863833 59.2773077,14.83005 C59.3630376,14.87055 59.4364729,14.8258833 59.4964506,14.77705 C59.7373582,14.58105 59.7906902,14.28805 59.8606365,14.0108833 C59.8898777,13.8953833 59.7782295,13.9022167 59.6971516,13.9117167 C59.4095577,13.9457167 59.1468852,14.2852167 59.15702,14.6093833 Z" id="Combined-Shape" fill="#1D1E1C"></path>
            <path d="M43.2124715,13.6259833 C43.0785601,14.09415 42.9444825,14.5628167 42.8107372,15.0318167 C42.7338129,15.3014833 42.5091873,15.18815 42.3628151,15.1713167 C42.179393,15.15015 42.3284235,15.0059833 42.3310818,14.91565 C42.3320786,14.8863167 42.3501882,14.8563167 42.3475299,14.8278167 C42.3392228,14.73365 42.5339426,14.5774833 42.3108123,14.55815 C42.1616157,14.5453167 41.9157237,14.4114833 41.8525893,14.71815 C41.8326521,14.8153167 41.7962667,14.90915 41.7646995,15.0038167 C41.7160196,15.1504833 41.3780843,15.26315 41.253643,15.1754833 C41.1822014,15.1249833 41.2345365,15.0704833 41.2494894,15.0189833 C41.3717708,14.5979833 41.5003657,14.1788167 41.6166659,13.75615 C41.6980761,13.4604833 41.9359932,13.5948167 42.0841929,13.6104833 C42.2579787,13.62915 42.0868512,13.77515 42.0999765,13.8644833 C42.114431,13.9628167 41.9373223,14.12065 42.128387,14.1478167 C42.2762545,14.1688167 42.5442435,14.29865 42.5869423,13.99515 C42.6397758,13.62065 42.8376524,13.51865 43.2124715,13.6259833" id="Fill-53" fill="#1E1E1C"></path>
            <path d="M62.613912,15.2067167 C62.7416762,14.77505 62.8549858,14.3943833 62.9669664,14.0132167 C63.0977211,13.56805 63.0972226,13.56805 63.5645835,13.6137167 C63.597646,13.69755 63.5167343,13.77155 63.5311887,13.84005 C63.5547811,13.95005 63.3269987,14.10655 63.5456432,14.1512167 C63.7139463,14.1857167 63.9963897,14.2822167 64.0276247,13.9493833 C64.0660037,13.54055 64.3233596,13.5568833 64.6373703,13.6157167 C64.49781,14.1007167 64.3647292,14.5857167 64.2176925,15.06655 C64.1384422,15.32605 63.9085,15.2053833 63.7604664,15.18955 C63.6086115,15.17355 63.724081,15.0343833 63.7423568,14.9508833 C63.7701027,14.8248833 63.8073188,14.7012167 63.8407135,14.5753833 C63.3437792,14.49855 63.3258357,14.4942167 63.2093693,14.9662167 C63.1166614,15.34155 62.8501677,15.16405 62.613912,15.2067167" id="Fill-55" fill="#1E1E1C"></path>
            <path d="M25.4198124,15.22495 C24.9119126,15.2221167 24.7677003,15.0607833 24.8125589,14.5452833 C24.8722043,13.86045 25.462345,13.41495 26.1071469,13.5686167 C26.2553466,13.60395 26.4028818,13.64845 26.4359443,13.8267833 C26.4673454,13.9961167 26.4284678,14.1551167 26.2762807,14.24645 C26.1569898,14.31795 26.1327329,14.3387833 26.2473717,14.45795 C26.4076999,14.62495 26.3169857,14.81095 26.1840712,14.96395 C26.0262351,15.1456167 25.7773526,15.2267833 25.4198124,15.22495 Z M25.5294835,14.8868833 C25.6589091,14.8693833 25.8170774,14.8438833 25.8267137,14.67105 C25.837513,14.4763833 25.6675485,14.50405 25.543938,14.5057167 C25.4223211,14.5073833 25.2726261,14.4758833 25.2815978,14.6882167 C25.2885758,14.8522167 25.3827791,14.8868833 25.5294835,14.8868833 Z M25.4411452,14.2348667 C25.6152633,14.1765333 25.8425472,14.2757 25.9530324,14.0258667 C25.9782862,13.9683667 25.9473835,13.9040333 25.8766065,13.8897 C25.6430092,13.8425333 25.510593,13.9720333 25.4182174,14.1643667 C25.4150607,14.1707 25.4237001,14.1828667 25.4411452,14.2348667 Z" id="Combined-Shape" fill="#1D1D1B"></path>
            <path d="M45.8856826,14.47055 C45.6891352,14.3378833 45.6241732,14.1657167 45.6961132,13.9533833 C45.7783541,13.7108833 45.9860331,13.6212167 46.207502,13.6068833 C46.5515846,13.5847167 46.8979932,13.60105 47.2744738,13.60105 C47.1277693,14.1007167 46.9915319,14.57705 46.8469873,15.05055 C46.7720567,15.2957167 46.5580642,15.1857167 46.4186701,15.17255 C46.2284361,15.15455 46.3704885,15.00805 46.3804571,14.9213833 C46.3914226,14.8252167 46.4284725,14.7322167 46.4562184,14.6307167 C46.2423921,14.5618833 46.1164556,14.69055 46.0441833,14.83905 C45.8878425,15.1603833 45.6500916,15.25905 45.2604857,15.1482167 C45.4390897,14.89405 45.5773208,14.6248833 45.8856826,14.47055 Z M46.6420995,14.0241 C46.6668548,13.8787667 46.5686642,13.9012667 46.4955611,13.9031 C46.3405495,13.9076 46.1863686,13.9367667 46.1749047,14.1291 C46.1667637,14.2679333 46.2835624,14.2946 46.3982012,14.3081 C46.6329616,14.3356 46.5802942,14.1266 46.6420995,14.0241 Z" id="Combined-Shape" fill="#1D1D1B"></path>
            <path d="M61.5325191,13.5573 C61.4226984,13.9341333 61.3301566,14.2384667 61.2465866,14.5453 C61.2244895,14.6269667 61.1748127,14.7334667 61.2695144,14.7938 C61.3628868,14.8533 61.4614098,14.8064667 61.5453121,14.7439667 C61.6694211,14.6516333 61.7491698,14.5263 61.7983482,14.3823 C61.8400502,14.2601333 61.8744418,14.1353 61.910661,14.0113 C62.0375944,13.5774667 62.0374283,13.5773 62.5325351,13.6089667 C62.4002851,14.1073 62.2662075,14.6014667 62.1397725,15.0974667 C62.117177,15.1868 62.0660049,15.2186333 61.9925696,15.2019667 C61.8677961,15.1736333 61.6695872,15.2981333 61.6280514,15.1299667 C61.5780423,14.9274667 61.5230489,15.0636333 61.4605791,15.0918 C61.3705294,15.1324667 61.2847995,15.1913 61.1905963,15.2123 C60.8192662,15.2949667 60.6195621,15.1148 60.6954895,14.7424667 C60.7651035,14.4018 60.864291,14.0661333 60.9712873,13.7348 C61.0653243,13.4444667 61.3128777,13.6699667 61.5325191,13.5573" id="Fill-61" fill="#1D1E1C"></path>
            <path d="M44.2565487,13.5634833 C44.1558659,13.91065 44.06781,14.20365 43.986566,14.4984833 C43.9589862,14.5989833 43.8863816,14.72565 44.0089953,14.79615 C44.1287846,14.8653167 44.2374422,14.7758167 44.3271596,14.6949833 C44.5240393,14.51715 44.5640798,14.2639833 44.635023,14.0263167 C44.7737525,13.5629833 44.7740848,13.56315 45.2635427,13.6159833 C45.131625,14.0963167 44.9937262,14.57415 44.8709463,15.0558167 C44.8086426,15.30015 44.6278788,15.1503167 44.505099,15.18115 C44.3475952,15.2208167 44.3263289,15.1133167 44.4022563,14.9228167 C44.1699881,15.1083167 43.9962023,15.2358167 43.7621065,15.2259833 C43.5343242,15.2164833 43.3970899,15.1118167 43.4108797,14.87665 C43.4356351,14.4538167 43.5815088,14.0544833 43.7323669,13.66865 C43.8054699,13.4814833 44.0548508,13.65065 44.2565487,13.5634833" id="Fill-63" fill="#1D1D1B"></path>
            <path d="M33.3037399,15.2247833 C32.857147,15.2282833 32.6426561,15.0296167 32.6423238,14.6117833 C32.6416592,14.00745 33.070641,13.5541167 33.6511454,13.5451167 C34.0698263,13.5386167 34.3286774,13.77695 34.3260192,14.1671167 C34.3221979,14.7692833 33.8860719,15.22045 33.3037399,15.2247833 Z M33.7987637,14.2200667 C33.8027511,14.0765667 33.7706855,13.9577333 33.5980627,13.9467333 C33.3825749,13.9332333 33.141335,14.2584 33.141335,14.5637333 C33.141335,14.7232333 33.2038048,14.8424 33.3809135,14.8390667 C33.5894232,14.8349 33.8004251,14.5137333 33.7987637,14.2200667 Z" id="Combined-Shape" fill="#1D1D1B"></path>
            <path d="M28.5350807,13.6170333 C28.4059875,14.1072 28.2861982,14.5987 28.1439796,15.0833667 C28.0884878,15.2730333 27.9039027,15.1575333 27.7794614,15.1828667 C27.642061,15.2107 27.5985314,15.1343667 27.6440547,14.9715333 C27.4594696,15.0842 27.3260566,15.2007 27.1447943,15.2210333 C26.819652,15.2577 26.6237692,15.0878667 26.6882328,14.7735333 C26.7623326,14.4138667 26.8661721,14.0582 26.9844661,13.7103667 C27.0613904,13.4830333 27.2843546,13.5903667 27.4249118,13.6078667 C27.6040142,13.6302 27.4651184,13.7772 27.4470088,13.8575333 C27.3946737,14.0902 27.32074,14.3180333 27.253452,14.5472 C27.2281982,14.6328667 27.178023,14.7255333 27.2757152,14.7905333 C27.3750688,14.8565333 27.4656169,14.8010333 27.547027,14.7385333 C27.6684777,14.6455333 27.7575305,14.5270333 27.8063766,14.3815333 C27.8475801,14.2588667 27.8847962,14.1348667 27.9213477,14.0107 C28.052767,13.5642 28.0522686,13.5640333 28.5350807,13.6170333" id="Fill-67" fill="#1D1D1B"></path>
            <path d="M38.4019442,15.1824667 C38.2009109,15.2163 38.1213283,15.1738 38.2053968,14.9509667 C38.3000984,14.7008 38.3595777,14.4371333 38.4336776,14.1791333 C38.4536148,14.1103 38.4670724,14.0389667 38.4059317,13.9841333 C38.3344901,13.9198 38.2578981,13.9473 38.1854596,13.9864667 C38.018818,14.0768 37.9159753,14.2209667 37.858822,14.3973 C37.8034964,14.5674667 37.7342146,14.7378 37.7127822,14.9131333 C37.6717448,15.2448 37.4424671,15.1923 37.2281424,15.1823 C37.0875852,15.1758 37.1382589,15.0793 37.1581961,15.0089667 C37.2806437,14.5784667 37.4092385,14.1496333 37.5291939,13.7183 C37.5549461,13.6256333 37.5959835,13.5753 37.691682,13.5959667 C37.8074838,13.6211333 37.9914043,13.5121333 38.0294511,13.6629667 C38.079128,13.8608 38.1389395,13.7273 38.2004125,13.7001333 C38.2997661,13.6566333 38.3933048,13.5933 38.4966459,13.5664667 C38.8174684,13.4831333 39.0482413,13.6781333 38.981784,14.0006333 C38.9076842,14.3603 38.7862335,14.7099667 38.691698,15.0658 C38.6440149,15.2453 38.5024609,15.1633 38.4019442,15.1824667" id="Fill-69" fill="#1E1E1C"></path>
            <path d="M32.6693553,13.6463333 C32.4807828,13.8215 32.3011819,14.0076667 32.1011455,14.168 C31.9389897,14.298 31.9202155,14.4211667 32.0150833,14.601 C32.1062959,14.7736667 32.1662736,14.9628333 32.2417027,15.1486667 C31.7240004,15.239 31.7240004,15.239 31.4276009,14.4455 C31.3014982,14.6161667 31.2782382,14.8163333 31.2357055,14.999 C31.1639316,15.3056667 30.9319957,15.189 30.7798085,15.1721667 C30.5475403,15.1466667 30.7359467,14.9788333 30.752561,14.9018333 C30.8176892,14.6008333 30.9185381,14.3075 31.0060956,14.0111667 C31.1343581,13.5773333 31.1343581,13.5773333 31.6264743,13.609 C31.6045434,13.7043333 31.5874307,13.7981667 31.5610139,13.8895 C31.53792,13.969 31.5043591,14.0453333 31.4490334,14.1938333 C31.867382,13.9305 32.0782177,13.363 32.6693553,13.6463333" id="Fill-71" fill="#1D1D1C"></path>
            <path d="M55.098839,15.2246167 C54.7459508,15.2271167 54.5379395,15.0586167 54.4960714,14.73695 C54.4048588,14.0356167 55.1169486,13.4086167 55.802954,13.5806167 C55.9288905,13.61195 56.0149527,13.6412833 55.9430127,13.7942833 C55.8944989,13.8971167 55.9303858,14.0521167 55.704431,13.9791167 C55.378458,13.87395 55.0792341,14.1092833 55.0242407,14.4616167 C54.9797143,14.7466167 55.1136258,14.8786167 55.3968999,14.8291167 C55.4754857,14.8152833 55.5863032,14.7271167 55.6165413,14.85795 C55.6422935,14.9682833 55.6137168,15.0981167 55.4774794,15.15695 C55.3561948,15.2092833 55.2297599,15.2286167 55.098839,15.2246167" id="Fill-73" fill="#1E1E1C"></path>
            <path d="M23.2416084,3.02645 C22.4167073,3.24678333 21.3204943,3.07945 20.7355041,2.63661667 C21.3007233,2.66545 21.7951655,2.57895 22.2944259,2.45178333 C22.7189218,2.34378333 22.9445443,2.74378333 23.2416084,3.02645" id="Fill-75" fill="#DF0B19"></path>
            <path d="M16.5165463,6.45338333 C16.5261826,6.15155 16.5931383,5.88588333 16.678536,5.62305 C16.7112662,5.52205 16.7415042,5.45588333 16.8568076,5.55188333 C17.08459,5.74155 17.3643752,5.81021667 17.7172633,5.88621667 C17.2881154,6.08888333 16.911801,6.26655 16.5165463,6.45338333" id="Fill-77" fill="#DF0D1B"></path>
            <path d="M62.6324038,12.83155 C62.5669433,13.21505 61.9950784,13.4293833 61.6774126,13.3353833 C61.5312065,13.2923833 61.3989565,13.2228833 61.3361544,13.0713833 C61.2999352,12.98405 61.2286597,12.8603833 61.3522703,12.8182167 C61.4434829,12.7872167 61.5787235,12.7497167 61.6750866,12.8703833 C61.8807719,13.1282167 61.9714861,13.1312167 62.2077417,12.90605 C62.3316845,12.7877167 62.3316845,12.7877167 62.6324038,12.83155" id="Fill-79" fill="#21211F"></path>
            <path d="M50.3561314,14.7527667 C50.0183622,14.7644333 49.5867221,14.3961 49.5941986,14.2001 C49.6026719,13.9792667 50.0145409,13.6412667 50.3119373,13.6659333 C49.898573,14.0222667 49.8683349,14.3807667 50.3561314,14.7527667" id="Fill-81" fill="#242423"></path>
            <path d="M49.8242903,14.7488667 C49.4903425,14.7662 49.0611945,14.4083667 49.0592008,14.2068667 C49.057041,14.0008667 49.4815369,13.6432 49.7691308,13.6630333 C49.3793588,14.0223667 49.3255284,14.3802 49.8242903,14.7488667" id="Fill-83" fill="#242422"></path>
            <g id="Group-87" transform="translate(65.294284, 13.563667)" fill="#232321">
                <path d="M0.098306941,0.12595 C0.488078926,-0.0303833333 0.553040923,0.277783333 0.698748524,0.452283333 C0.775838976,0.544616667 0.85043728,0.63995 0.734635459,0.76145 C0.566332381,0.938116667 0.526956438,1.28878333 0.0994699435,1.17395 C0.47229532,0.824283333 0.543903046,0.46395 0.098306941,0.12595" id="Fill-85"></path>
            </g>
            <path d="M64.8367255,13.6852333 C65.2836508,13.5417333 65.3316661,13.8935667 65.5003015,14.0707333 C65.6184293,14.1949 65.5273829,14.2909 65.4539476,14.3824 C65.3108982,14.5599 65.2504221,14.8687333 64.8586564,14.7275667 C65.2210148,14.3900667 65.3248543,14.0397333 64.8367255,13.6852333" id="Fill-88" fill="#232321"></path>
            <path d="M18.3244836,4.27295 C18.3088661,4.48411667 18.1940611,4.62011667 17.9772443,4.64795 C17.7818598,4.67295 17.5711902,4.47895 17.5849801,4.28195 C17.6000992,4.06678333 17.7198884,3.93011667 17.945677,3.91861667 C18.1433875,3.90845 18.3161764,4.07145 18.3244836,4.27295" id="Fill-102" fill="#FDFBFB"></path>
        </g>
    </g>
</svg>