<?xml version="1.0" encoding="utf-8"?>
<!-- Generator: Adobe Illustrator 23.0.5, SVG Export Plug-In . SVG Version: 6.00 Build 0)  -->
<svg version="1.1" id="Слой_1" xmlns="http://www.w3.org/2000/svg" xmlns:xlink="http://www.w3.org/1999/xlink" x="0px" y="0px"
	 width="139px" height="31px" viewBox="0 0 139 31" enable-background="new 0 0 139 31" xml:space="preserve">
<path fill="#E42313" d="M103.86,7.813c-0.195,0-0.43,0.117-0.547,0.312c-0.156,0.234-0.312,0.508-0.507,0.742
	c-0.469,0.703-0.937,1.367-1.406,2.03c-0.117,0.156-0.117,0.351-0.039,0.508c0.391,0.508,0.781,1.054,1.21,1.601
	c0.157,0.195,0.313,0.429,0.469,0.625c0.117,0.156,0.351,0.195,0.586,0.117c3.436-1.445,6.364-3.085,6.325-4.295
	C109.912,8.282,107.062,7.852,103.86,7.813z"/>
<path fill="#E42313" d="M91.99,4.885c0.156,0.039,0.312,0.117,0.508,0.156c0.469,0.156,0.937,0.351,1.367,0.508
	c0.117,0.039,0.273,0,0.43-0.117c0.547-0.43,1.132-0.898,1.718-1.367c0.234-0.156,0.429-0.351,0.664-0.508
	c0.156-0.117,0.234-0.312,0.234-0.429c-0.429-1.991-1.054-3.397-1.952-3.085c-0.898,0.273-1.991,2.187-3.006,4.49
	C91.795,4.69,91.834,4.846,91.99,4.885z"/>
<path fill="#E42313" d="M83.909,16.911c0.156-0.234,0.312-0.43,0.469-0.664c0.43-0.625,0.859-1.21,1.288-1.796
	c0.117-0.156,0.156-0.312,0.078-0.43c-0.195-0.429-0.39-0.898-0.586-1.367c-0.078-0.156-0.117-0.351-0.195-0.508
	c-0.039-0.117-0.195-0.156-0.351-0.078c-2.265,1.132-4.139,2.304-4.373,3.241c-0.273,0.976,1.171,1.523,3.163,1.874
	C83.596,17.184,83.791,17.106,83.909,16.911z"/>
<path fill="#E42313" d="M94.216,22.963c-0.234-0.156-0.429-0.273-0.664-0.43c-0.586-0.39-1.132-0.781-1.64-1.132
	c-0.117-0.078-0.312-0.078-0.508,0.039c-0.625,0.508-1.289,1.015-1.952,1.484c-0.234,0.195-0.507,0.351-0.742,0.547
	c-0.195,0.117-0.312,0.351-0.273,0.586c0.195,3.28,0.742,6.13,1.913,6.091c1.21-0.039,2.694-3.045,4.022-6.638
	C94.411,23.275,94.372,23.041,94.216,22.963z"/>
<path fill="#0093BE" d="M100.777,14.959c-1.914,0.742-3.319,1.015-3.671,0.429c-0.312-0.507,0.234-1.679,1.288-3.084
	c0.156-0.234,1.757-2.382,2.382-3.28c2.616-3.826,5.075-7.965,3.982-8.551c-0.937-0.469-4.139,1.64-7.262,4.022
	c-0.156,0.117-0.234,0.312-0.234,0.429c0.195,1.328,0.117,2.46-0.508,2.967c-0.586,0.469-1.484,0.312-2.499-0.195
	c-0.156-0.078-1.523-0.703-2.03-0.937c-2.577-1.054-5.388-1.913-6.403-0.859c-0.859,0.898-0.312,2.967,0.547,5.115
	c0.039,0.117,0.195,0.156,0.351,0.078c1.406-0.625,2.499-0.937,2.733-0.469c0.195,0.39-0.312,1.328-1.21,2.538
	c-0.195,0.234-1.991,2.616-2.694,3.67c-2.499,3.553-4.998,7.458-4.412,8.473c0.547,0.976,3.67-0.937,6.911-3.319
	c0.156-0.117,0.273-0.351,0.273-0.547c-0.039-1.757,0.156-3.084,0.82-3.553c0.586-0.468,1.484-0.156,2.499,0.586
	c0.156,0.117,1.718,1.21,2.382,1.64c3.592,2.304,8.473,4.881,9.995,3.241c1.289-1.367-0.546-5.076-2.616-8.356
	C101.206,14.92,101.011,14.881,100.777,14.959z"/>
<path fill="#E42313" d="M126.311,23.275h10.503l0.468-3.631h-6.598c-0.079,0-0.118-0.039-0.157-0.078
	c-0.039-0.039-0.078-0.117-0.039-0.195l0.313-2.499c0-0.117,0.117-0.195,0.234-0.195h5.544l0.43-3.397h-5.466
	c-0.079,0-0.118-0.039-0.157-0.078c-0.039-0.039-0.078-0.117-0.039-0.195l0.274-2.265c0-0.117,0.117-0.195,0.234-0.195h6.677
	L139,6.915h-10.503L126.311,23.275z"/>
<path fill="#E42313" d="M110.458,18.004c-0.118,1.327,0.234,2.538,1.054,3.436c1.054,1.171,2.733,1.796,4.88,1.796h0.391
	c3.436,0,5.544-1.523,5.896-4.334c0.273-2.187-0.937-4.1-3.163-4.998c-0.391-0.156-0.898-0.39-1.445-0.625
	c-0.703-0.273-1.405-0.586-1.874-0.781c-0.703-0.273-1.132-0.703-1.132-1.21c0-0.234,0.117-0.508,0.312-0.703
	c0.273-0.273,0.859-0.586,2.031-0.547c1.015,0,2.381,0.195,2.498,1.562c0,0.078,0,0.195,0.039,0.273h3.202
	c0.117-1.367-0.234-2.538-1.015-3.436c-0.937-1.054-2.421-1.601-4.334-1.601h-0.195c-3.163,0-5.428,1.523-5.74,3.826
	c-0.273,1.991,0.664,3.631,2.538,4.451c0.43,0.195,0.898,0.39,1.367,0.625c0.859,0.39,1.718,0.781,2.498,1.093
	c0.586,0.234,0.938,0.664,0.977,1.249c0.039,0.547-0.235,1.132-0.664,1.445c-0.586,0.391-1.054,0.391-1.913,0.391
	c-0.703-0.039-0.898-0.039-1.094-0.078h-0.078c-1.132-0.195-1.483-1.21-1.522-1.835H110.458z"/>
<path fill="#E42313" d="M73.521,17.223c2.108-0.625,3.631-2.421,3.905-4.568c0.156-1.406-0.273-2.811-1.249-3.904
	c-1.054-1.171-2.538-1.874-4.139-1.874h-6.364l-2.108,16.36h3.631l0.703-5.583c0-0.117,0.117-0.195,0.234-0.195h1.21
	c0.078,0,0.156,0.039,0.195,0.117l2.499,5.662h3.787l-2.499-5.74c-0.039-0.078-0.039-0.117,0-0.195
	C73.404,17.301,73.443,17.223,73.521,17.223z M71.803,14.217H68.64c-0.078,0-0.117-0.039-0.156-0.078
	c-0.039-0.039-0.078-0.117-0.039-0.195l0.43-3.241c0-0.117,0.117-0.195,0.234-0.195h3.085c0.469,0,0.937,0.195,1.289,0.586
	c0.312,0.351,0.468,0.859,0.39,1.328C73.677,13.436,72.818,14.217,71.803,14.217z"/>
<path fill="#E42313" d="M20.81,23.275h3.631L26.55,6.876h-3.631L20.81,23.275z"/>
<path fill="#E42313" d="M59.114,8.829c-1.093-1.249-2.655-1.952-4.295-1.952h-5.896l-2.108,16.36h7.262
	c2.928,0,5.427-2.187,5.818-5.115l0.625-4.802C60.715,11.718,60.207,10.078,59.114,8.829z M56.849,13.436l-0.43,3.358
	c-0.195,1.601-1.562,2.811-3.202,2.811h-2.03c-0.078,0-0.117-0.039-0.156-0.078c-0.039-0.039-0.078-0.117-0.039-0.195l1.093-8.629
	c0-0.117,0.117-0.195,0.234-0.195h1.991c0.742,0,1.445,0.312,1.952,0.859C56.732,11.952,56.927,12.694,56.849,13.436z"/>
<path fill="#E42313" d="M38.498,23.275h3.748l2.108-16.36h-3.631l-1.21,9.41c0,0.117-0.078,0.195-0.195,0.195
	c-0.117,0.039-0.195-0.039-0.234-0.117l-4.178-9.527h-3.748l-2.109,16.36h3.631l1.21-9.41c0-0.117,0.078-0.195,0.195-0.195
	c0.117,0,0.195,0.039,0.234,0.117L38.498,23.275z"/>
<path fill="#E42313" d="M10.269,23.236h3.748l5.115-16.321h-3.631l-2.538,8.082c-0.039,0.117-0.156,0.156-0.234,0.156
	c-0.117,0-0.195-0.078-0.195-0.195l-1.171-8.043H7.809l-2.811,8.082c-0.039,0.117-0.156,0.156-0.234,0.156
	c-0.117,0-0.195-0.078-0.195-0.195L3.631,6.915H0l1.874,16.321h3.748l2.967-8.629c0.039-0.117,0.117-0.195,0.234-0.156
	c0.117,0,0.195,0.078,0.195,0.195L10.269,23.236z"/>
</svg>
