<?xml version="1.0" encoding="utf-8"?>
<!-- Generator: Adobe Illustrator 22.1.0, SVG Export Plug-In . SVG Version: 6.00 Build 0)  -->
<svg version="1.1" id="Layer_1" xmlns="http://www.w3.org/2000/svg" xmlns:xlink="http://www.w3.org/1999/xlink" x="0px" y="0px"
	 width="151.301px" height="23px" viewBox="0 0 151.301 23" style="enable-background:new 0 0 151.301 23;" xml:space="preserve">
<style type="text/css">
	.Arched_x0020_Green{fill:url(#SVGID_1_);stroke:#FFFFFF;stroke-width:0.25;stroke-miterlimit:1;}
	.st0{fill:url(#SVGID_2_);}
	.st1{fill:url(#SVGID_3_);}
	.st2{filter:url(#Adobe_OpacityMaskFilter);}
	.st3{mask:url(#SVGID_4_);}
	.st4{fill:url(#SVGID_5_);}
	.st5{fill:url(#SVGID_6_);}
	.st6{fill:#394C75;}
</style>
<linearGradient id="SVGID_1_" gradientUnits="userSpaceOnUse" x1="-317.9985" y1="395.2184" x2="-317.2914" y2="394.5113">
	<stop  offset="0" style="stop-color:#1EAB4B"/>
	<stop  offset="0.9831" style="stop-color:#19361A"/>
</linearGradient>
<g>
	<g>
		<linearGradient id="SVGID_2_" gradientUnits="userSpaceOnUse" x1="131.3191" y1="0.1671" x2="131.3191" y2="9.1407">
			<stop  offset="0" style="stop-color:#00D9FF"/>
			<stop  offset="1" style="stop-color:#0E518A"/>
		</linearGradient>
		<path class="st0" d="M125.286,0.028c2.531,0,4.171-0.389,6.021,1.752l6.046,7.47l-4.487,0c-1.013,0-2.171-0.29-3.112-1.882
			L125.286,0.028z"/>
		<linearGradient id="SVGID_3_" gradientUnits="userSpaceOnUse" x1="134.5006" y1="17.2103" x2="148.5747" y2="17.2103">
			<stop  offset="0" style="stop-color:#F12E1F"/>
			<stop  offset="1" style="stop-color:#9F1E1C"/>
		</linearGradient>
		<path class="st1" d="M139.022,11.421L148.575,23h-6.694c-2.316,0-3.64-1.375-4.508-2.859l-2.872-4.886l0.831-2.568L139.022,11.421
			z"/>
		<g>
			<defs>
				<filter id="Adobe_OpacityMaskFilter" filterUnits="userSpaceOnUse" x="134.24" y="11.216" width="6.376" height="5.283">
					<feFlood  style="flood-color:white;flood-opacity:1" result="back"/>
					<feBlend  in="SourceGraphic" in2="back" mode="normal"/>
				</filter>
			</defs>
			<mask maskUnits="userSpaceOnUse" x="134.24" y="11.216" width="6.376" height="5.283" id="SVGID_4_">
				<g class="st2">
					
						<image style="overflow:visible;" width="23" height="21" xlink:href="2E9AC09D6B386EF6.jpg"  transform="matrix(0.48 0 0 0.48 131.7615 8.8184)">
					</image>
				</g>
			</mask>
			<g class="st3">
				<linearGradient id="SVGID_5_" gradientUnits="userSpaceOnUse" x1="142.9153" y1="8.5248" x2="134.9556" y2="15.5802">
					<stop  offset="0" style="stop-color:#F12E1F"/>
					<stop  offset="1" style="stop-color:#9F1E1C"/>
				</linearGradient>
				<path class="st4" d="M135.214,16.498c0.434-1.881,3.7-3.437,5.401-3.184l-1.711-2.099l-2.823,0.615l-1.843,2.978L135.214,16.498
					z"/>
			</g>
		</g>
		<linearGradient id="SVGID_6_" gradientUnits="userSpaceOnUse" x1="135.0504" y1="13.0899" x2="142.5661" y2="12.9447">
			<stop  offset="0" style="stop-color:#E6EAEF"/>
			<stop  offset="1" style="stop-color:#95AAB1"/>
		</linearGradient>
		<path class="st5" d="M135.145,16.414l-2.206-3.727c-0.642-1.158-0.062-2.533,2.289-2.786c2.352-0.253,6.441-0.651,7.598,1.748
			C139.643,11.322,134.902,12.289,135.145,16.414z"/>
	</g>
	<g>
		<g>
			<g>
				<path class="st6" d="M21.412,18.503v-4.607c0-1.513-0.547-2.313-1.582-2.313c-0.683,0-1.295,0.461-1.561,1.176
					c-0.068,0.187-0.109,0.463-0.109,0.737v5.008h-1.947v-4.834c0-1.326-0.558-2.086-1.53-2.086c-0.856,0-1.404,0.671-1.613,1.245
					c-0.072,0.235-0.109,0.481-0.109,0.737v4.938h-1.947v-5.877c0-0.947-0.034-1.76-0.067-2.452h1.689l0.104,1.252h0.155l0.02-0.034
					c0.389-0.643,1.148-1.409,2.549-1.409c1.043,0,1.918,0.583,2.282,1.52l0.017,0.044h0.121l0.02-0.033
					c0.278-0.443,0.617-0.792,1.004-1.039c0.497-0.337,1.036-0.493,1.701-0.493c0.645,0,2.747,0.259,2.747,3.599v4.921H21.412z"/>
				<path class="st6" d="M29.026,18.677c-2.649,0-4.294-1.612-4.294-4.208c0-2.161,1.273-4.486,4.068-4.486
					c2.644,0,3.581,2.182,3.581,4.051c0,0.401-0.035,0.69-0.058,0.835h-5.682l0.003,0.072c0.057,1.665,1.42,2.258,2.678,2.258
					c1.046,0,1.749-0.179,2.296-0.361l0.284,1.328C31.328,18.404,30.376,18.677,29.026,18.677L29.026,18.677z M28.678,11.305
					c-1.437,0-1.954,1.34-2.034,2.132l-0.007,0.077h3.866l0.001-0.068c0.005-0.245-0.02-1.089-0.574-1.655
					C29.616,11.468,29.195,11.305,28.678,11.305L28.678,11.305z"/>
				<path class="st6" d="M33.894,18.503v-5.668c0-1.189-0.019-1.968-0.065-2.66h1.703l0.087,1.6h0.167l0.016-0.047
					c0.374-1.06,1.263-1.744,2.264-1.744c0.179,0,0.292,0.013,0.783,0.04v1.86c-0.525-0.027-0.701-0.04-0.921-0.04
					c-1.019,0-1.778,0.641-1.981,1.673c-0.035,0.193-0.054,0.419-0.054,0.657v4.329H33.894z"/>
				<path class="st6" d="M47.594,18.677c-2.609,0-4.295-1.672-4.295-4.26c0-2.652,1.866-4.434,4.642-4.434
					c0.683,0,1.454,0.138,1.988,0.354l-0.349,1.475c-0.438-0.202-0.952-0.3-1.569-0.3c-0.761,0-1.415,0.255-1.892,0.737
					c-0.505,0.511-0.778,1.249-0.769,2.08c0,1.674,1.069,2.799,2.66,2.799c0.589,0,1.111-0.097,1.634-0.304l0.27,1.445
					C49.472,18.463,48.62,18.677,47.594,18.677L47.594,18.677z"/>
				<path class="st6" d="M53.436,18.694c-1.701,0-2.591-1.233-2.591-2.451c0-2.018,1.734-3.13,4.882-3.13l0.143,0.001v-0.209
					c0-0.578-0.233-1.548-1.791-1.548c-0.777,0-1.624,0.224-2.237,0.589l-0.376-1.252c0.34-0.198,1.373-0.71,2.978-0.71
					c2.831,0,3.425,1.91,3.425,3.512v3.043c0,0.841,0.042,1.502,0.125,1.965h-1.787l-0.157-0.939h-0.145l-0.021,0.027
					C55.35,18.292,54.457,18.694,53.436,18.694L53.436,18.694z M55.737,14.364c-1.93,0-2.909,0.556-2.909,1.653
					c0,0.794,0.493,1.287,1.287,1.287c0.924,0,1.545-0.609,1.752-1.212c0.056-0.168,0.056-0.333,0.056-0.492v-1.234L55.737,14.364z"
					/>
				<path class="st6" d="M65.032,18.503v-4.712c0-1.424-0.599-2.208-1.687-2.208c-0.943,0-1.524,0.7-1.734,1.298
					c-0.067,0.168-0.108,0.432-0.108,0.701v4.921h-1.999v-5.877c0-0.947-0.034-1.76-0.066-2.452h1.724l0.104,1.269h0.156l0.02-0.035
					c0.399-0.689,1.305-1.426,2.652-1.426c1.421,0,2.939,0.936,2.939,3.564v4.955H65.032z"/>
				<path class="st6" d="M85.339,18.503v-5.668c0-1.189-0.019-1.968-0.065-2.66h1.703l0.087,1.6h0.167l0.016-0.047
					c0.374-1.06,1.263-1.744,2.265-1.744c0.179,0,0.291,0.013,0.783,0.04v1.86c-0.525-0.028-0.702-0.04-0.922-0.04
					c-1.02,0-1.778,0.641-1.981,1.673c-0.035,0.193-0.053,0.419-0.053,0.657v4.329H85.339z"/>
				<rect x="91.18" y="6.297" class="st6" width="1.999" height="12.206"/>
				<path class="st6" d="M104.933,18.503v-4.712c0-1.424-0.599-2.208-1.687-2.208c-0.944,0-1.524,0.7-1.735,1.298
					c-0.067,0.169-0.109,0.432-0.109,0.701v4.921h-2v-5.877c0-0.947-0.033-1.76-0.066-2.452h1.723l0.105,1.269h0.156l0.02-0.035
					c0.399-0.689,1.305-1.426,2.652-1.426c1.421,0,2.939,0.936,2.939,3.564v4.955H104.933z"/>
				<path class="st6" d="M112.756,18.677c-2.649,0-4.294-1.612-4.294-4.208c0-2.161,1.273-4.486,4.068-4.486
					c2.644,0,3.582,2.182,3.582,4.051c0,0.403-0.035,0.691-0.059,0.835h-5.682l0.003,0.072c0.057,1.665,1.421,2.258,2.678,2.258
					c1.045,0,1.748-0.179,2.296-0.361l0.285,1.328C115.058,18.404,114.106,18.677,112.756,18.677L112.756,18.677z M112.408,11.305
					c-1.437,0-1.954,1.34-2.034,2.132l-0.007,0.077h3.866l0.002-0.068c0.005-0.245-0.021-1.089-0.575-1.655
					C113.345,11.468,112.924,11.305,112.408,11.305L112.408,11.305z"/>
				<path class="st6" d="M119.606,18.677c-0.925,0-1.829-0.202-2.492-0.556l0.395-1.423c0.507,0.294,1.386,0.589,2.114,0.589
					c0.906,0,1.426-0.374,1.426-1.026c0-0.657-0.463-0.943-1.436-1.3c-1.495-0.504-2.285-1.335-2.285-2.404
					c0-1.515,1.287-2.573,3.129-2.573c0.808,0,1.617,0.175,2.178,0.469l-0.394,1.356c-0.396-0.218-1.059-0.452-1.749-0.452
					c-0.761,0-1.253,0.382-1.253,0.974c0,0.587,0.45,0.849,1.523,1.248c1.536,0.535,2.198,1.285,2.215,2.509
					C122.979,17.684,121.686,18.677,119.606,18.677L119.606,18.677z"/>
			</g>
			<path class="st6" d="M7.936,18.503h2.166L6.339,6.923H3.711L0,18.503h2.061l0.737-2.553h4.377L7.936,18.503z M3.218,14.496
				l1.088-3.767c0.122-0.444,0.244-0.937,0.362-1.413C4.734,9.048,4.799,8.785,4.862,8.54l0.013-0.052h0.143l0.115,0.453
				c0.143,0.568,0.306,1.212,0.488,1.787l1.122,3.769H3.218z"/>
			<path class="st6" d="M78.002,18.503h2.166l-3.762-11.58h-2.628l-3.711,11.58h2.061l0.737-2.553h4.378L78.002,18.503z
				 M73.284,14.496l1.088-3.767c0.122-0.444,0.244-0.937,0.362-1.413c0.067-0.269,0.131-0.532,0.195-0.777l0.013-0.052h0.143
				l0.115,0.453c0.143,0.568,0.306,1.212,0.488,1.787l1.122,3.769H73.284z"/>
		</g>
		<g>
			<path class="st6" d="M39.944,18.503v-8.328h1.999v8.328H39.944z"/>
			<rect x="40.051" y="6.994" class="st6" width="1.793" height="1.709"/>
		</g>
		<g>
			<path class="st6" d="M81.15,18.503v-8.328h1.999v8.328H81.15z"/>
			<rect x="81.257" y="6.994" class="st6" width="1.793" height="1.709"/>
		</g>
		<g>
			<path class="st6" d="M95.45,18.503v-8.328h1.999v8.328H95.45z"/>
			<rect x="95.557" y="6.994" class="st6" width="1.793" height="1.709"/>
		</g>
	</g>
	<g>
		<path class="st6" d="M149.494,21.956h-0.357v-0.129h0.868v0.129h-0.359V23h-0.153V21.956z"/>
		<path class="st6" d="M151.124,22.485c-0.009-0.164-0.019-0.362-0.019-0.507h-0.003c-0.042,0.136-0.089,0.284-0.148,0.446
			l-0.207,0.569h-0.115l-0.192-0.559c-0.056-0.167-0.101-0.317-0.134-0.456h-0.004c-0.004,0.146-0.012,0.341-0.023,0.519L150.249,23
			h-0.145l0.082-1.173h0.193l0.2,0.568c0.049,0.144,0.087,0.273,0.118,0.395h0.003c0.031-0.118,0.073-0.247,0.126-0.395l0.209-0.568
			h0.194L151.301,23h-0.15L151.124,22.485z"/>
	</g>
</g>
</svg>
