<?xml version="1.0" encoding="UTF-8"?>
<svg width="112px" height="23px" viewBox="0 0 112 23" version="1.1" xmlns="http://www.w3.org/2000/svg" xmlns:xlink="http://www.w3.org/1999/xlink">
    <!-- Generator: Sketch 49.1 (51147) - http://www.bohemiancoding.com/sketch -->
    <title>Mandarin_Airlines_s</title>
    <desc>Created with Sketch.</desc>
    <defs>
        <linearGradient x1="100%" y1="72.1006699%" x2="3.87475531%" y2="32.6723298%" id="linearGradient-1">
            <stop stop-color="#F5A00B" offset="0%"></stop>
            <stop stop-color="#FECE00" offset="100%"></stop>
        </linearGradient>
        <polygon id="path-2" points="0 8.93436942 0 0.00893932762 14.3119856 0.00893932762 14.3119856 8.93436942 2.58206054e-16 8.93436942"></polygon>
        <polygon id="path-4" points="0.00238215686 0.00607112104 14.3188433 0.00607112104 14.3188433 1.9543928 0.00238215686 1.9543928 0.00238215686 0.00607112104"></polygon>
        <polygon id="path-6" points="0 20.5357143 76.2146341 20.5357143 76.2146341 0 0 0"></polygon>
    </defs>
    <g id="AVIA" stroke="none" stroke-width="1" fill="none" fill-rule="evenodd">
        <g id="Mandarin_Airlines_s">
            <path d="M14.9856488,6.17149066 C15.0213648,5.69429213 15.0753813,5.23366338 15.1940294,4.78422892 C15.4306069,3.87815577 15.8478656,3.06518371 16.4442023,2.34353939 C17.0760892,1.58144042 17.8388982,0.986424675 18.7332927,0.56453263 C19.3383096,0.279299692 19.9714128,0.0935408409 20.6380759,0.0269846415 C21.2722849,-0.0370223613 21.9000252,0.0192816343 22.5223473,0.128121248 C23.237885,0.252089789 23.9228484,0.475199913 24.5739755,0.80177417 C25.2626433,1.14824325 25.8773909,1.59557184 26.3991993,2.16897483 C27.0258891,2.85775668 27.4262851,3.65942361 27.6028197,4.57613689 C27.6921652,5.04125445 27.752595,5.50875495 27.7763689,5.98196343 C27.8088229,6.57215787 27.797323,7.1616873 27.7851044,7.75188174 C27.7756501,8.16302283 27.7655877,8.57471809 27.7763689,8.98519416 C27.800198,9.81883689 27.9146995,10.6377386 28.2004834,11.4272691 C28.4208615,12.030265 28.7315249,12.5808915 29.0821063,13.1155023 C29.6951953,14.0512237 30.3067362,14.9894389 30.9598537,15.8986709 C31.0814321,16.065477 31.2027893,16.2333361 31.3302835,16.3958197 C31.3730764,16.4510153 31.3703673,16.4867595 31.3277955,16.5336979 C31.1984768,16.6805538 31.0398002,16.7860684 30.8717246,16.8765649 C30.4525307,17.1033326 30.0034813,17.2268023 29.5320956,17.2740733 C29.1237382,17.3133642 28.7217389,17.2939681 28.3252684,17.179088 C27.991771,17.0827173 27.7072035,16.9090394 27.4537079,16.6766192 C27.0096897,16.2651456 26.5656716,15.8542262 26.1442109,15.4182582 C25.2583308,14.5035399 24.4392939,13.5295805 23.7356431,12.4646813 C23.2011184,11.6503238 22.7524561,10.7904687 22.3941344,9.88295472 C22.1089034,9.16607629 21.8437973,8.44155027 21.5092494,7.74539792 C21.2974963,7.30100644 21.0468203,6.88188526 20.6448763,6.57797669 C20.3639579,6.36750171 20.0459964,6.26248589 19.6985111,6.22707423 C19.1993155,6.17476028 18.7131125,6.2573875 18.2362533,6.38268606 C18.0118944,6.44153925 17.8228094,6.57869711 17.6391425,6.71552247 C17.336717,6.94051678 17.0784113,7.2080716 16.9021531,7.54506431 C16.7121834,7.9098211 16.6354989,8.29624606 16.671989,8.70888341 C16.7227987,9.24925769 16.9541238,9.72501537 17.1864441,10.2013826 C17.5439365,10.9375463 18.0065315,11.6014458 18.5532748,12.2073233 C19.3775641,13.1169986 20.3388018,13.8533839 21.3655558,14.51152 C22.0966847,14.9804059 22.8565634,15.3986958 23.6344107,15.7820729 C24.0071627,15.9658367 24.3720084,16.1752587 24.7710774,16.2983406 C25.3933995,16.4878124 26.01351,16.6842114 26.616426,16.930763 C26.9110559,17.052404 27.2038613,17.1809168 27.4620011,17.3758195 C27.4728376,17.3848525 27.4825683,17.3899509 27.4922437,17.3975431 C27.6986892,17.5685609 27.6926628,17.7083788 27.4753808,17.8621619 C27.2818727,17.9999848 27.0614946,18.0823349 26.8475852,18.1808669 C26.262085,18.455626 25.6721617,18.7262287 25.0821831,18.994116 C23.8209526,19.5687936 22.5719959,20.173452 21.3036332,20.7354944 C21.1040987,20.8250488 20.9005835,20.9044618 20.6986163,20.9910791 C20.3896115,21.1253553 20.0762389,21.1037979 19.7608207,21.0300929 C19.1935655,20.8957613 18.680382,20.6355216 18.1880974,20.3326105 C17.7200842,20.0453272 17.3052028,19.6872759 16.8870042,19.3308871 C16.3664121,18.8832814 15.846594,18.4361191 15.3595064,17.9501092 C14.7629486,17.3566451 14.2185274,16.7185147 13.781199,15.9950416 C13.464288,15.4676904 13.2427489,14.9005496 13.0668224,14.3107985 C12.856175,13.6061118 12.6357969,12.902589 12.2835568,12.2506597 C12.0307247,11.7811087 11.7075109,11.3761744 11.2357381,11.1097279 C10.9418269,10.9440301 10.6227597,10.8543095 10.2890964,10.8305355 C9.84717919,10.7968971 9.40763934,10.822777 8.98087103,10.9561111 C8.15613947,11.2149654 7.6631361,11.7714107 7.52480545,12.6275528 C7.39952277,13.4101562 7.58893956,14.1360122 7.96346068,14.816149 C8.24078545,15.3207791 8.60889316,15.7632864 8.97440233,16.2051841 C9.31348382,16.613776 9.68297373,16.9949917 10.0696029,17.3578089 C10.8551906,18.0981288 11.7175733,18.7341534 12.6521069,19.274306 C13.4784971,19.7521695 14.3406586,20.1535572 15.2449496,20.4550274 C15.6099612,20.5770563 15.9881314,20.6554164 16.3578424,20.7559988 C16.8297811,20.8846224 17.2986236,21.0134677 17.7600022,21.1698 C17.8831839,21.212028 17.9146428,21.2528151 17.9201163,21.3892525 C17.9265297,21.6407918 17.8280617,21.8538713 17.6769596,22.044784 C17.3894065,22.4071579 16.9961427,22.6085998 16.5674393,22.7509115 C16.15582,22.8884573 15.7310973,22.9523534 15.2988002,22.9844401 C15.0829004,22.9985161 14.8668348,22.9996798 14.6515985,22.9999569 C14.0359663,23.0021736 13.4298436,22.9187151 12.830466,22.7854919 C11.7811545,22.5512983 10.7829844,22.171468 9.81157369,21.7166026 C8.30525129,21.0127473 6.86361588,20.1918505 5.47616275,19.2767998 C4.63020059,18.7187474 3.83825483,18.0906475 3.09988318,17.3934422 C2.41436688,16.7456138 1.79469863,16.041703 1.27128684,15.2525604 C0.759706693,14.4825922 0.361577582,13.6595341 0.147557615,12.7531285 C0.0671135296,12.4061052 0.0114384825,12.0543161 0.00231595738,11.6958215 C-0.037767865,10.1557742 0.44307214,8.79045771 1.39767528,7.59355446 C2.24363744,6.53319949 3.34779471,5.85455901 4.63987599,5.47301077 C5.16898245,5.31706644 5.71003112,5.22429785 6.26108692,5.18855368 C7.09300592,5.13291469 7.90983129,5.18279028 8.70288281,5.47012907 C9.30386371,5.68775288 9.84303258,6.00834207 10.3203894,6.43610835 C11.0075644,7.05212726 11.496974,7.80890616 11.8719375,8.64404515 C11.8890215,8.6810085 11.9064925,8.71769477 11.9235765,8.75449187 C11.9788645,8.88012293 11.9777587,8.87901458 12.101991,8.83157736 C12.1525795,8.8128463 12.201233,8.79045771 12.2523744,8.77743464 C12.3170614,8.76213946 12.3341454,8.73714625 12.3107033,8.6666 C12.0416717,7.85872633 11.6549319,7.11386216 11.0941454,6.46747455 C10.6834659,5.995319 10.2026259,5.60767486 9.65720951,5.30082917 C9.22402779,5.05699297 8.76369964,4.87827211 8.28689566,4.74310927 C8.26384056,4.73584961 8.23000428,4.74039383 8.22635527,4.71041306 C8.22209809,4.68082021 8.25521562,4.670568 8.27467701,4.65898578 C8.44031995,4.54964742 8.62940502,4.50631107 8.8220838,4.47810366 C9.02698125,4.44889873 9.23259743,4.44041988 9.43793718,4.47433528 C9.48830458,4.48353455 9.51318419,4.45211293 9.54055177,4.42202133 C9.68640159,4.26646492 9.83838839,4.11700441 10.0276393,4.01193317 C10.372139,3.8225722 10.7365977,3.8068891 11.1123352,3.88197956 C11.6318768,3.98560995 12.101991,4.21082593 12.5590571,4.46785145 C13.3900915,4.93851074 14.1494173,5.51202457 14.8949211,6.10576572 C14.9206853,6.12532803 14.9456755,6.14228573 14.9856488,6.17149066" id="Fill-1" fill="url(#linearGradient-1)"></path>
            <g id="Page-1" transform="translate(35.785366, 1.369048)">
                <g id="Group-3" transform="translate(0.000000, 2.501145)">
                    <mask id="mask-3" fill="white">
                        <use xlink:href="#path-2"></use>
                    </mask>
                    <g id="Clip-2"></g>
                    <path d="M8.48651806,6.14961411 L8.48651806,6.79099418 L14.3119856,6.79099418 C14.1929775,7.60542579 13.4926504,8.21797911 12.7150508,8.22067972 C11.4820911,8.22495822 10.2490712,8.22198451 9.0160814,8.22207554 L8.49587622,8.22207554 C8.46909564,8.49004296 8.44782163,8.70320921 8.42474219,8.93436942 L5.985814,8.93436942 C5.96306555,8.71061313 5.94158091,8.49941924 5.91401798,8.22859949 L-6.01810716e-06,8.22859949 L-6.01810716e-06,6.80473999 L5.8780297,6.80473999 C6.00994661,6.18384209 5.98975586,6.15349814 5.46211831,6.15289126 C3.80843274,6.15110097 2.15477725,6.15131337 0.501091674,6.15076718 C0.344981975,6.15070649 0.188872275,6.15076718 0.00456774333,6.15076718 L0.00456774333,4.75078837 L5.92081844,4.75078837 L5.92081844,1.45789328 L0.0156410605,1.45789328 L0.0156410605,0.00893932762 L14.3080738,0.00893932762 C14.2849041,0.855110713 13.6699739,1.44199305 12.7835368,1.44784943 C11.5361036,1.4560423 10.28855,1.44979144 9.04102646,1.44973075 L8.49379997,1.44973075 L8.49379997,4.72102095 L14.303801,4.72102095 C14.2714838,5.50817336 13.5932431,6.14712591 12.8123937,6.15100993 C11.5649303,6.1572001 10.3174068,6.15070649 9.06991337,6.14964446 C8.88416449,6.14946239 8.69841562,6.14961411 8.48651806,6.14961411" id="Fill-1" fill="#073D73" mask="url(#mask-3)"></path>
                </g>
                <path d="M45.6319542,5.21150182 L45.6319542,2.41471182 L43.7857329,2.41471182 C43.7857329,3.29038948 43.7761634,4.1307425 43.7984315,4.9702523 C43.8010442,5.06960097 43.9777615,5.16443242 44.0737607,5.26131167 C44.1254969,5.23128724 44.1772635,5.2012628 44.2289998,5.17123836 L44.2289998,3.13023906 L45.2543677,3.13023906 C45.2205857,3.84465206 45.1885658,4.52133123 45.1559079,5.21150182 L45.6319542,5.21150182 Z M45.6818069,6.79843042 C45.360787,6.68974617 45.2129605,6.73654454 45.2186718,7.05693572 C45.2290616,7.6372777 45.2218617,8.21795094 45.2209503,8.7984435 C45.2198566,9.46069769 44.9578337,9.78117921 44.2294251,9.96138607 C44.2223163,9.80015152 44.2101645,9.64891508 44.2097999,9.49761841 C44.207643,8.67036533 44.2158455,7.84299178 44.1978912,7.01613019 C44.1958862,6.92313574 44.0518875,6.83315277 43.9737211,6.74178452 C43.9104406,6.83315277 43.7957581,6.9224431 43.7919607,7.01619042 C43.758604,7.84211845 43.752437,8.66907039 43.7210246,9.49505866 C43.7117285,9.7389884 43.669015,9.98653191 43.6050054,10.2226318 C43.3172814,11.2845694 43.0891316,11.45264 41.9872681,11.4526099 L40.8668124,11.4526099 C41.6905822,9.93967331 41.4396478,8.37033175 41.4800829,6.79987593 C41.0798637,6.77599491 41.0576259,6.51673674 41.0778586,6.20890343 C41.0977268,5.90661124 41.0821725,5.60203033 41.0821725,5.2756162 C41.4267669,5.26980404 41.4961232,5.10113114 41.488984,4.80166974 C41.4657437,3.82980547 41.5282951,2.85390582 41.4629488,1.885836 C41.4179568,1.21930551 41.7805662,0.765806999 42.0845736,0.266202751 C42.1305985,0.190584531 42.277787,0.140202499 42.3791026,0.138606416 C43.0806861,0.127704864 43.7824823,0.132854492 44.5324907,0.132854492 C44.4546281,0.345796122 44.3884616,0.526785967 44.2946802,0.783303688 C44.7591823,0.783303688 45.1767482,0.778666011 45.5941621,0.784749197 C45.9303717,0.789688022 46.2681611,0.789959055 46.602153,0.82323589 C47.4069052,0.903491786 47.9383637,1.47115544 47.9481763,2.26925742 C47.9599331,3.22594384 47.9509408,4.18296153 47.9509408,5.15211547 C48.0925395,5.19906442 48.2133891,5.23911708 48.3568713,5.28666832 L48.3568713,6.69619074 C47.9561661,6.6802299 47.9411282,6.93852439 47.9446523,7.25545237 C47.9582926,8.48892376 47.9505155,9.72263607 47.9507282,10.956258 L47.9507282,11.4147255 L45.6818069,11.4147255 L45.6818069,6.79843042 Z" id="Fill-4" fill="#073D73"></path>
                <path d="M67.5873306,9.98091509 L67.5873306,7.94407704 L61.8947744,7.94407704 L61.8947744,6.31868132 L75.784285,6.31868132 C75.7743978,7.17776189 74.9812134,7.91988533 74.0514524,7.92483364 C72.9870499,7.93042339 71.9226172,7.92587217 70.8582147,7.92574999 L70.1395623,7.92574999 C70.1395623,8.56227906 70.122872,9.16148203 70.1588227,9.75744723 C70.1638117,9.83988842 70.4283174,9.96918577 70.5736322,9.9705603 C72.2648902,9.98638266 73.9563597,9.9817398 75.6477689,9.98256452 C75.7895763,9.98262561 75.9314442,9.98256452 76.0832296,9.98256452 C75.8514999,10.9203903 75.1242,11.5710923 74.2497711,11.5740857 C70.1962551,11.5880754 66.1427088,11.5833714 62.0891625,11.5838907 C62.0329535,11.5838907 61.9767445,11.5652888 61.8915391,11.5502606 L61.8915391,9.98091509 L67.5873306,9.98091509 Z" id="Fill-6" fill="#073D73"></path>
                <path d="M52.658085,11.4489311 L52.658085,4.51034042 C52.3813549,4.51034042 52.1384635,4.52768514 51.8990643,4.50604988 C51.5785307,4.47711157 51.4732817,4.59332124 51.4729205,4.92585313 C51.4715055,6.28936168 51.4656349,7.65378311 51.414305,9.01607449 C51.3832963,9.83842756 51.2858447,10.6678402 50.5866738,11.2464847 C50.4726039,11.3409069 50.3179217,11.4358769 50.1791051,11.44035 C49.5422226,11.4609203 48.9043164,11.4493875 48.2254668,11.4493875 C48.2607505,11.3261791 48.2732142,11.2288661 48.3146093,11.1463721 C48.7848878,10.209057 48.9418881,9.20540588 48.9419785,8.1674609 C48.9421591,6.68643421 48.94243,5.2053771 48.9426408,3.72435042 L48.9426408,3.16390273 C49.8718179,3.16390273 50.7399712,3.15139627 51.6075825,3.16779768 C52.3155442,3.18121703 53.0341031,3.16116409 53.727584,3.27862136 C54.6400225,3.43320244 55.1522982,4.10724287 55.1657554,5.04550132 C55.1849025,6.37964555 55.174215,7.71424622 55.1757203,9.04860346 C55.1765031,9.73728041 55.1759612,9.73728041 55.8351218,9.90284648 C55.9246857,10.7036251 55.5017632,11.2522054 54.6684421,11.395132 C54.4419281,11.4339903 54.2087607,11.4423584 53.9783029,11.4467098 C53.5602875,11.454591 53.1420314,11.4489311 52.658085,11.4489311" id="Fill-8" fill="#073D73"></path>
                <path d="M27.3157347,10.0938509 C28.8889274,10.0938509 30.4302594,10.100718 31.9711988,10.0806308 C32.0918466,10.0790275 32.3016438,9.89863609 32.3130291,9.78549441 C32.3545839,9.37331381 32.3294276,8.95435681 32.3294276,8.52571924 L27.3157347,8.52571924 L27.3157347,10.0938509 Z M24.9668629,11.4526099 L24.9668629,7.10878604 L25.4316664,7.10878604 C28.0078815,7.10878604 30.5840966,7.10796924 33.1602815,7.10917931 C34.2059762,7.10963309 34.6705984,7.56292587 34.6845809,8.61998381 C34.6968722,9.55137583 34.6871479,10.4831006 34.6871479,11.4526099 L24.9668629,11.4526099 Z" id="Fill-10" fill="#073D73"></path>
                <path d="M61.7601346,3.15418191 L61.7601346,0.584160811 L67.5611698,0.584160811 C67.5932217,0.404992419 67.6151536,0.282147884 67.6421001,0.131639194 L70.0743002,0.131639194 C70.1026364,0.245674642 70.1358967,0.379259023 70.1835366,0.570705835 C70.9520879,0.570705835 71.7347166,0.557854221 72.5166506,0.574597521 C73.1976255,0.589138549 73.8869382,0.579484754 74.5562524,0.684288761 C75.4582678,0.825535841 75.8604121,1.35438277 75.9062999,2.27236812 C75.9206492,2.55881431 75.9356934,2.84526049 75.9518251,3.15934066 L73.4720758,3.15934066 C73.4616838,2.93971683 73.4360362,2.71469292 73.4444042,2.49093606 C73.4535878,2.24545817 73.3549246,2.14566207 73.1125263,2.15830251 C72.9238097,2.16810714 72.7341566,2.1587852 72.5448962,2.1587852 C69.9828571,2.15866452 67.420818,2.15866452 64.858779,2.15866452 L64.2674648,2.15866452 L64.2674648,3.15418191 L61.7601346,3.15418191 Z" id="Fill-12" fill="#073D73"></path>
                <path d="M21.6786649,11.4526099 L21.6786649,4.9068417 L20.630513,4.9068417 C20.934869,4.195866 21.206311,3.56063466 21.4787237,2.9258263 C21.8398677,2.08432983 22.1966435,1.24083928 22.5697093,0.404569683 C22.6184888,0.295228317 22.7497808,0.150628212 22.8479161,0.146640077 C23.4418547,0.122590414 24.0372494,0.134675672 24.7040538,0.134675672 C24.4193856,0.802386145 24.144,1.40622603 23.9066551,2.02459844 C23.8053952,2.28848004 23.7350169,2.58230286 23.7332574,2.86304339 C23.7163606,5.54044153 23.71721,8.21799074 23.713054,10.8955399 C23.712781,11.0684196 23.7129933,11.2413294 23.7129933,11.4526099 L21.6786649,11.4526099 Z" id="Fill-14" fill="#073D73"></path>
                <g id="Group-18">
                    <mask id="mask-5" fill="white">
                        <use xlink:href="#path-4"></use>
                    </mask>
                    <g id="Clip-17"></g>
                    <path d="M12.5459759,0.0122453922 C12.4357936,0.217278349 12.3635449,0.351697684 12.2607804,0.542937997 L14.3188433,0.542937997 C14.2448156,1.22629277 13.5044171,1.95391368 12.8761307,1.95417893 C8.66143188,1.95591774 4.44670285,1.94669317 0.232003986,1.93959055 C0.162800821,1.93950214 0.0936278107,1.92184873 0.00238215686,1.90935283 L0.00238215686,0.574944004 L1.99865976,0.574944004 C1.87355129,0.362543182 1.79074873,0.221964311 1.66708765,0.0120685634 C2.36913038,0.0120685634 3.01544874,0.00284399602 3.66086248,0.0219709745 C3.75831983,0.0248591777 3.89778155,0.141300922 3.93851944,0.237348414 C4.06724637,0.541081295 4.28809342,0.588854534 4.59551227,0.586378931 C6.26676116,0.572881002 7.93819096,0.57506189 9.60950015,0.584728529 C9.89005189,0.586319988 10.1267599,0.549569076 10.2825952,0.300476284 C10.4376163,0.0527097087 10.6667556,-0.00296188187 10.9511972,0.00717630084 C11.4564256,0.0251833637 11.9627997,0.0122453922 12.5459759,0.0122453922" id="Fill-16" fill="#073D73" mask="url(#mask-5)"></path>
                </g>
                <path d="M0,15.9483155 C0.402280475,16.0287839 0.836318354,15.7648998 1.15701412,16.1181831 C1.48254253,16.0625023 1.80927159,15.9659949 2.1380718,15.9581272 C3.06311878,15.9360736 3.98906626,15.9436982 4.91450345,15.9525379 C5.74926095,15.9604663 6.04018039,16.2577954 6.04276181,17.088877 C6.04630375,18.2122148 6.0436623,19.335583 6.0436623,20.4879004 L4.87668272,20.4879004 L4.87668272,17.0149396 L3.61362049,17.0149396 L3.61362049,20.4228635 C3.53740872,20.4708286 3.5147463,20.4968312 3.49010279,20.4989272 C2.4064789,20.5909389 2.40638885,20.5906958 2.40626878,19.5052988 C2.40614872,18.6878564 2.40623877,17.8703836 2.40623877,17.0196784 L1.12333566,17.0196784 C1.12333566,17.6024897 1.12354577,18.1836302 1.12327562,18.7647707 C1.12309553,19.2330914 1.11267982,19.7016854 1.12561691,20.1696112 C1.13297094,20.4369887 1.03157537,20.5383261 0.769501735,20.5204644 C0.526008285,20.503909 0.280593783,20.5169104 0,20.5169104 L0,15.9483155 Z" id="Fill-19" fill="#073D73"></path>
                <path d="M28.5635859,0.605285217 C28.5921365,0.375140522 28.6116712,0.2178847 28.6379378,0.00618472604 C29.3868664,0.00618472604 30.1223613,-0.017784204 30.8536186,0.0286498436 C30.9827276,0.0368747773 31.093985,0.338895572 31.2797746,0.597520634 L34.6907961,0.597520634 C34.6920884,1.28672712 34.2623259,1.87588403 33.6529649,2.0277384 C33.4307807,2.08307257 33.1948922,2.10133315 32.9651947,2.10185488 C30.4027587,2.1073484 27.8403528,2.10642769 25.2778867,2.10559906 C25.1510317,2.10556837 25.0241766,2.09028473 24.8405208,2.07843837 C24.8405208,1.63938649 24.8217675,1.22721911 24.8564491,0.819747295 C24.8633313,0.73884832 25.0740651,0.616548466 25.1925053,0.614430852 C26.1332342,0.597582014 27.0743538,0.605193147 28.0153833,0.605285217 C28.1870178,0.605315907 28.3586823,0.605285217 28.5635859,0.605285217" id="Fill-21" fill="#073D73"></path>
                <path d="M18.3544118,19.4784024 C18.8284285,19.4784024 19.2586272,19.5200698 19.6775427,19.4690921 C20.3901272,19.3823995 20.7207035,18.9873377 20.7394477,18.2999326 C20.758253,17.6092612 20.4487142,17.1729898 19.7578094,17.0460035 C19.3069401,16.9631877 18.8373878,16.9818998 18.3544118,16.9538468 L18.3544118,19.4784024 Z M17.0825904,20.53419 L17.0825904,15.9420771 C17.5497882,16.0323717 18.0467688,15.7311149 18.4431485,16.1998349 C19.3155325,15.7094112 20.8157698,15.9047443 21.4557627,16.6138531 C22.1908218,17.4283667 22.2862856,18.7844648 21.6681865,19.6802374 C21.3097232,20.199752 20.7821649,20.4326926 20.1802108,20.5134327 C19.9337233,20.5464918 19.6804476,20.5327859 19.4302603,20.5334574 C18.6658465,20.5355026 17.9014021,20.53419 17.0825904,20.53419 Z" id="Fill-23" fill="#073D73"></path>
                <mask id="mask-7" fill="white">
                    <use xlink:href="#path-6"></use>
                </mask>
                <g id="Clip-26"></g>
                <path d="M52.6183506,17.6359459 L54.2627268,17.6359459 L54.2627268,16.8976721 L52.6183506,16.8976721 L52.6183506,17.6359459 Z M51.3791758,20.50414 L51.3791758,16.0303871 C51.9656242,15.863175 52.4734623,15.9239489 52.6401902,16.1749346 C53.4144163,15.776477 54.2363917,15.9728727 55.0388057,16.0049504 C55.2030125,16.0115 55.4787255,16.214232 55.4974061,16.3541796 C55.5730093,16.9202758 55.5955171,17.4983744 55.5700021,18.0690096 C55.5649599,18.1819364 55.2729051,18.3135066 55.092387,18.3777838 C54.9247175,18.4374915 54.7292854,18.4187567 54.485952,18.4397457 C54.9426691,19.1410677 55.3699226,19.7972129 55.8469302,20.5297291 C55.3742358,20.5297291 54.9722847,20.5495605 54.5746163,20.5170259 C54.4628974,20.5079175 54.3437063,20.3599886 54.2619066,20.2502604 C53.7385166,19.5480855 53.2246338,18.8387822 52.6102101,18.1514428 L52.6102101,20.50414 L51.3791758,20.50414 Z" id="Fill-25" fill="#073D73" mask="url(#mask-7)"></path>
                <path d="M29.4806051,17.6383455 L31.1303904,17.6383455 L31.1303904,16.9053118 L29.4806051,16.9053118 L29.4806051,17.6383455 Z M29.4652186,18.0384587 L29.4652186,20.494832 L28.2519765,20.494832 L28.2519765,15.9577731 C28.678884,16.0509118 29.143539,15.7524847 29.4858665,16.1079144 C29.7840533,16.0555961 30.0630604,15.9793088 30.345463,15.9634612 C30.7716976,15.9395834 31.2011746,15.9419864 31.6274704,15.9658338 C31.8084992,15.9759324 32.0086466,16.0326308 32.1588412,16.1306363 C32.5726564,16.4006838 32.7690718,17.8376417 32.39435,18.1469887 C32.1476148,18.3507257 31.766041,18.3929758 31.4056657,18.5214902 C31.8055626,19.1322452 32.2395058,19.7950143 32.7197309,20.5284739 C32.2586548,20.5284739 31.8791611,20.551135 31.5050511,20.5162764 C31.3732408,20.5040181 31.2238415,20.3743783 31.1351318,20.2584568 C30.6804184,19.6641578 30.2435998,19.0563837 29.7986751,18.4546627 C29.715961,18.3427868 29.6248653,18.2370856 29.4652186,18.0384587 Z" id="Fill-27" fill="#073D73" mask="url(#mask-7)"></path>
                <path d="M25.0982675,6.31831562 L25.0982675,5.00228938 L34.690799,5.00228938 C34.5772233,5.79514375 33.9797856,6.30815863 33.1235023,6.3121924 C30.9812305,6.32229135 28.8388986,6.31732894 26.6965967,6.3182866 C26.1785748,6.31851875 25.6604928,6.31831562 25.0982675,6.31831562" id="Fill-28" fill="#073D73" mask="url(#mask-7)"></path>
                <path d="M25.1037202,4.08080202 C25.1037202,3.68725608 25.0853158,3.35013995 25.1161317,3.01729481 C25.124254,2.92965163 25.2759304,2.84171593 25.3786907,2.78007902 C25.4314397,2.7484561 25.5216059,2.77452088 25.5948888,2.77452088 C28.4817291,2.77487192 31.3685389,2.77525221 34.2553792,2.7756325 L34.8222035,2.7756325 C34.7860945,3.32062327 34.3264414,3.86491195 33.7777781,4.00260769 C33.5544615,4.0586572 33.3151742,4.07594595 33.0830966,4.07647251 C30.6065674,4.08188439 28.1300382,4.08039247 25.653509,4.08080202 C25.4943188,4.08083127 25.3350981,4.08080202 25.1037202,4.08080202" id="Fill-29" fill="#073D73" mask="url(#mask-7)"></path>
                <path d="M45.8156919,16.9809796 C45.5385557,17.5786814 45.2964461,18.1008879 45.0386787,18.6567999 L46.5238886,18.6567999 C46.2914936,18.1069665 46.077502,17.6005034 45.8156919,16.9809796 M48.7510849,20.467442 C48.6803075,20.4965277 48.6671235,20.5061318 48.6533964,20.5070132 C47.3800059,20.5851527 47.3802171,20.5850007 46.8483606,19.4056748 C46.7844014,19.2638627 46.7163091,19.1239957 46.6180775,18.9151374 C46.3531297,19.5716794 45.8615192,19.6562622 45.3316538,19.5948994 C44.8046244,19.5338406 44.4549006,19.6764125 44.294339,20.2291636 C44.2580452,20.354047 44.038955,20.4852521 43.8901896,20.5044298 C43.5669847,20.5460678 43.2348195,20.5172859 42.8378806,20.5172859 C43.2179246,19.7667394 43.5666528,19.0823578 43.9114289,18.3959094 C44.2719231,17.6782478 44.6174232,16.9525625 44.9966829,16.2452039 C45.0688179,16.1105949 45.2625056,15.9696946 45.4089479,15.9594219 C46.5914379,15.8766323 46.5956918,15.8842 47.1088131,16.9678196 C47.6567801,18.1249893 48.1970237,19.2858366 48.7510849,20.467442" id="Fill-30" fill="#073D73" mask="url(#mask-7)"></path>
                <path d="M9.98693946,18.6728128 C9.73890656,18.1067371 9.5211429,17.6096655 9.2563775,17.005328 C8.96782483,17.6321636 8.73800171,18.1314698 8.48882317,18.6728128 L9.98693946,18.6728128 Z M12.2206224,20.5073269 C11.770895,20.5073269 11.3929215,20.5285868 11.0197717,20.495187 C10.8978506,20.484255 10.7424343,20.3552158 10.6818959,20.2387391 C10.4748651,19.8400551 10.3031384,19.4230103 10.0693658,18.9053734 C9.7357108,19.7665212 9.04600026,19.5971061 8.42478744,19.5936635 C8.16155963,19.5921837 7.96589493,19.6381765 7.90222099,19.9202932 C7.78458098,20.4413426 7.45351872,20.5988291 6.95193572,20.5140914 C6.76881285,20.4831075 6.57607257,20.5091086 6.307418,20.5091086 C6.48520455,20.1450022 6.63655075,19.8268583 6.79483113,19.5121872 C7.32415088,18.4599115 7.86667574,17.4141286 8.37965492,16.353971 C8.51891151,16.0662372 8.69087938,15.9954513 9.00210384,15.9517839 C9.81961448,15.8371494 10.2455545,16.1405262 10.5515331,16.9155169 C11.0246859,18.1141056 11.6323017,19.259484 12.2206224,20.5073269 Z" id="Fill-31" fill="#073D73" mask="url(#mask-7)"></path>
                <path d="M74.9612162,18.5753511 C74.3033336,18.5753511 73.6853036,18.5954777 73.0691244,18.5698757 C72.4095998,18.5424986 72.1610803,18.2744137 72.1603639,17.6173938 C72.1599758,17.2586036 72.1048388,16.8428931 72.2616524,16.5572689 C72.4126448,16.2822345 72.794126,15.9907437 73.0927972,15.9694738 C74.1042791,15.8973909 75.1239107,15.9419764 76.1386465,15.9419764 C76.1719317,16.5839841 75.930726,16.8688261 75.3394734,16.8792354 C74.7089055,16.8903367 74.0780092,16.8817324 73.4114097,16.8817324 L73.4114097,17.6548793 C74.0525453,17.6548793 74.6947854,17.6533149 75.3370554,17.6553306 C76.0079238,17.6574065 76.1984106,17.8501592 76.2084708,18.5387681 C76.2131278,18.8577261 76.2203221,19.1772859 76.2069782,19.4957325 C76.1852458,20.0161378 75.9370845,20.3631649 75.4430008,20.3819679 C74.3701726,20.4227928 73.294807,20.3945734 72.2232326,20.3945734 C72.2049929,20.3644886 72.180126,20.3417145 72.1776184,20.316684 C72.0913754,19.4541254 72.091674,19.4544563 72.9464617,19.455419 C73.4500683,19.4559906 73.9537046,19.4560809 74.457341,19.4549978 C75.0136068,19.4537945 75.0144128,19.4530724 74.9958149,18.9103443 C74.9929193,18.8255957 74.9787693,18.7412682 74.9612162,18.5753511" id="Fill-32" fill="#073D73" mask="url(#mask-7)"></path>
                <path d="M25.6346716,18.656939 C25.4025083,18.1088529 25.1851414,17.5957308 24.9231732,16.9773507 C24.6294596,17.6005777 24.3911716,18.1061094 24.1315684,18.656939 L25.6346716,18.656939 Z M27.8577628,20.4636114 C27.7764132,20.4986974 27.7632542,20.5088788 27.7495493,20.5096409 C26.4863411,20.5819773 26.4869778,20.5816724 25.9714099,19.4322767 C25.9077674,19.2903778 25.8329973,19.1535392 25.7210847,18.9298542 C25.3867721,19.703119 24.7569568,19.6269113 24.1615856,19.5926787 C23.7981351,19.5717978 23.5807378,19.6785496 23.4947795,20.0471818 C23.4097611,20.4116987 23.1856631,20.5760026 22.7945907,20.52473 C22.5393536,20.49129 22.2762332,20.51842 21.9445585,20.51842 C22.2681983,19.8615702 22.5616088,19.2612969 22.8592338,18.6631271 C23.2567644,17.8641345 23.666211,17.0709643 24.0516742,16.266119 C24.1688928,16.0213702 24.3147339,15.9297685 24.5870414,15.928854 C25.7379429,15.9249216 25.7329097,15.9184592 26.2156406,16.9571404 C26.6908825,17.9797569 27.1780706,18.9967646 27.6589823,20.0167596 C27.7258994,20.1586584 27.7867221,20.3034532 27.8577628,20.4636114 Z" id="Fill-33" fill="#073D73" mask="url(#mask-7)"></path>
                <path d="M12.4834315,15.9298639 C12.9023322,16.096957 13.3808716,15.7059727 13.6642894,16.1478553 C13.9236969,16.0859214 14.1718141,15.9918284 14.4249657,15.974312 C14.8251884,15.946616 15.229105,15.9610754 15.6308767,15.97474 C16.010336,15.9876098 16.2793655,16.1847527 16.2845787,16.5869866 C16.3014694,17.8942315 16.2908941,19.2017822 16.2908941,20.5357143 L15.1534991,20.5357143 L15.1534991,17.0299391 L13.6549951,17.0299391 L13.6549951,20.5206741 L12.4834315,20.5206741 L12.4834315,15.9298639 Z" id="Fill-34" fill="#073D73" mask="url(#mask-7)"></path>
                <path d="M67.6733389,20.5287094 L67.6733389,15.9521073 C68.1123214,16.0178795 68.5583094,15.7707299 68.9593304,16.1230722 C69.7191895,15.758974 70.5476368,16.0367806 71.3504272,15.9363818 C71.381952,16.5660115 71.0795771,16.9154835 70.505963,16.928125 C69.9768069,16.9397893 69.4472018,16.9305983 68.8964903,16.9305983 L68.8964903,17.6925663 L71.346176,17.6925663 C71.3798264,18.2683325 71.0347598,18.6582633 70.5087771,18.6704162 C69.9908179,18.6823248 69.4724097,18.6730116 68.9146627,18.6730116 L68.9146627,19.5233477 L71.3342007,19.5233477 C71.4078485,20.0748997 71.1469977,20.5055945 70.6973274,20.5193047 C69.7063161,20.5495648 68.7138678,20.5287094 67.6733389,20.5287094" id="Fill-35" fill="#073D73" mask="url(#mask-7)"></path>
                <path d="M62.8113709,15.9379167 C63.2502734,16.0717472 63.7253623,15.7279222 63.9931419,16.1352631 C64.3020424,16.0727884 64.5685061,15.9875595 64.8388576,15.971604 C65.2409157,15.9478697 65.6459943,15.9650809 66.0492786,15.9799952 C66.384018,15.9923982 66.6109458,16.1763616 66.6144149,16.5244128 C66.6276633,17.8501311 66.6197681,19.1760637 66.6197681,20.5357143 L65.5092037,20.5357143 L65.5092037,17.0386649 L63.9813589,17.0386649 L63.9813589,20.5353774 L62.8113709,20.5353774 L62.8113709,15.9379167 Z" id="Fill-36" fill="#073D73" mask="url(#mask-7)"></path>
                <path d="M75.9518251,3.89384758 C75.6946768,4.98988749 75.1266366,5.46992068 74.0110989,5.50562814 C73.0067948,5.53781642 72.0001041,5.53469164 70.9955583,5.50760009 C70.0298325,5.48160069 69.650273,5.05468878 69.6495782,4.08051536 C69.6493667,3.77325528 69.6662239,3.46496372 69.6464363,3.1590385 C69.6260747,2.84452772 69.758697,2.75575965 70.0554809,2.76507332 C70.6377501,2.7833366 71.2213183,2.78363998 71.8035573,2.76537669 C72.0914594,2.75630573 72.2096111,2.85620772 72.1748997,3.14220109 C72.1661086,3.2143441 72.1792197,3.28906582 72.1710932,3.36136053 C72.1266844,3.75541672 72.2832331,3.91038162 72.6917943,3.90076458 C73.6528375,3.87804165 74.6148173,3.89369589 75.5764345,3.89384758 C75.6913537,3.89387792 75.8062729,3.89384758 75.9518251,3.89384758" id="Fill-37" fill="#073D73" mask="url(#mask-7)"></path>
                <path d="M39.1026858,20.5357143 L37.9767782,20.5357143 L37.9767782,17.0383066 L36.4018466,17.0383066 L36.4018466,20.5353774 L35.2164172,20.5353774 L35.2164172,16.0343663 C35.805216,15.8524664 36.2770597,15.9171113 36.4179709,16.1332169 C36.7268515,16.0697969 36.9983851,15.9902387 37.2750784,15.9636887 C37.5683261,15.9355463 37.8664571,15.9568292 38.1624689,15.9582072 C38.8757782,15.9614838 39.1163838,16.1466604 39.1374222,16.859714 C39.1722508,18.0390008 39.1533008,19.2198494 39.1542529,20.400055 C39.1542837,20.4403853 39.1243999,20.4807156 39.1026858,20.5357143" id="Fill-38" fill="#073D73" mask="url(#mask-7)"></path>
                <path d="M48.4882759,0.8494632 L49.5891394,0.8494632 L50.7212669,0.8494632 C50.7454255,0.567361824 50.7674676,0.310030628 50.7938939,0.00154901266 C51.5595608,0.00154901266 52.300283,-0.00606781735 53.0403702,0.0124788541 C53.1211609,0.0144914311 53.24531,0.156269743 53.2668078,0.252594776 C53.3042098,0.420072148 53.277209,0.602628367 53.277209,0.827851218 L55.5669531,0.827851218 C55.6474112,1.34028429 55.443318,1.77472227 54.9915313,1.98449472 C54.7186511,2.11122515 54.4098808,2.22210266 54.1159262,2.22544664 C52.2933287,2.24637744 50.4703684,2.23501412 48.6475593,2.23281577 C48.6057731,2.23275384 48.5639869,2.21445487 48.4882759,2.19671323 L48.4882759,0.8494632 Z" id="Fill-39" fill="#073D73" mask="url(#mask-7)"></path>
                <path d="M14.060286,6.81185828 C13.4548919,6.81185828 12.9382241,6.82432303 12.4230504,6.80251715 C12.30447,6.79751935 12.1680785,6.69622466 12.0797109,6.60215892 C11.874526,6.38380266 11.6936669,6.14280756 11.4894981,5.894643 C11.4238425,5.95271267 11.3527779,5.98802451 11.324866,6.044458 C10.9855011,6.73061428 10.42323,6.92311882 9.69728311,6.81867076 C9.41601307,6.77821238 9.12392495,6.81206652 8.80410429,6.81206652 C8.83386895,6.72856161 8.8471973,6.64663339 8.88843749,6.58252471 C9.32247554,5.90802996 9.77020055,5.24204337 10.1930619,4.56073614 C10.3329797,4.33526992 10.5099838,4.3020405 10.7528527,4.25923196 C11.8572231,4.06467475 12.5992477,4.4792839 13.1068905,5.46066737 C13.3461433,5.92326135 13.7091765,6.32243087 14.060286,6.81185828" id="Fill-40" fill="#073D73" mask="url(#mask-7)"></path>
                <path d="M0.394213625,6.81564769 C0.941497051,5.96573199 1.43227146,5.19018089 1.94242732,4.42764055 C2.00883904,4.32828557 2.17458064,4.29522791 2.29507869,4.2330249 C2.3066167,4.22701993 2.32384801,4.23247899 2.33841438,4.23193308 C3.90449533,4.17203502 3.90449533,4.17203502 4.80721621,5.4400544 C5.1157748,5.87350413 5.42442424,6.30686287 5.78179983,6.80873288 C5.1394565,6.80873288 4.58984124,6.83011421 4.04413256,6.79335651 C3.91185423,6.78447037 3.78224084,6.59325147 3.66952565,6.46936103 C3.50360235,6.28696762 3.35394129,6.08971342 3.18571644,5.88463456 C3.12642135,5.92545623 3.06022162,5.94614002 3.03999224,5.98869039 C2.67628739,6.75389961 2.04033388,6.91554857 1.26934623,6.82086413 C1.00324511,6.78820073 0.729815381,6.81564769 0.394213625,6.81564769" id="Fill-41" fill="#073D73" mask="url(#mask-7)"></path>
                <path d="M62.2857527,5.39327195 C63.4478049,4.54262743 64.6090476,3.69096227 65.7738879,2.84419018 C65.8387045,2.79709058 65.9326616,2.76872275 66.0133076,2.76818241 C66.8334986,2.76271898 67.6537496,2.7648203 68.5931707,2.7648203 C67.887683,3.37852594 67.2151731,3.87647884 66.6502313,4.47604559 C65.8656864,5.30864878 64.965509,5.64356923 63.8378438,5.49443552 C63.3422156,5.42890434 62.8308179,5.48338858 62.3265554,5.48338858 C62.3129445,5.4533397 62.2993636,5.42332083 62.2857527,5.39327195" id="Fill-42" fill="#073D73" mask="url(#mask-7)"></path>
                <path d="M56.3725484,20.3995221 L56.3725484,15.9283425 L57.6319055,15.9283425 L57.6319055,19.3941888 L59.920471,19.3941888 C59.8881332,20.0077705 59.5829707,20.3649162 59.0428901,20.387419 C58.3321979,20.4170043 57.6193519,20.3978187 56.9074598,20.3994623 C56.7456171,20.3998209 56.5837745,20.3995221 56.3725484,20.3995221" id="Fill-43" fill="#073D73" mask="url(#mask-7)"></path>
                <polygon id="Fill-44" fill="#073D73" mask="url(#mask-7)" points="49.013894 20.4040751 50.3279394 20.4040751 50.3279394 15.9283425 49.013894 15.9283425"></polygon>
                <polygon id="Fill-45" fill="#073D73" mask="url(#mask-7)" points="33.245349 20.4040751 34.4279899 20.4040751 34.4279899 15.9283425 33.245349 15.9283425"></polygon>
                <polygon id="Fill-46" fill="#073D73" mask="url(#mask-7)" points="60.4460892 20.4040751 61.62873 20.4040751 61.62873 15.9283425 60.4460892 15.9283425"></polygon>
            </g>
        </g>
    </g>
</svg>