<?xml version="1.0" encoding="utf-8"?>
<!-- Generator: Adobe Illustrator 22.1.0, SVG Export Plug-In . SVG Version: 6.00 Build 0)  -->
<svg version="1.1" id="Слой_1" xmlns="http://www.w3.org/2000/svg" xmlns:xlink="http://www.w3.org/1999/xlink" x="0px" y="0px"
	 width="571.58px" height="221.89px" viewBox="0 0 571.58 221.89" enable-background="new 0 0 571.58 221.89" xml:space="preserve">
<g>
	<path fill-rule="evenodd" clip-rule="evenodd" fill="#0097DB" d="M115.393,1.121c2.368,1.332,0.531,9.522-0.657,22.193
		c-1.309,13.953-2.563,36.08-2.229,60.671c12.739,1.699,14.699,15.562-0.318,16.509c-2.861,14.977,2.761,48.197-3.483,51.609
		c-9.501,1.132-14.989-5.43-15.276-10.438c-0.725-12.638-0.137-33.315-0.03-40.109c-12.104,1.182-31.232,2.732-47.126,1.814
		c-4.15,7.954-29.418,50.417-38.86,45.868c-6.268-9.464,14.424-28.759,19.111-44.276c-3.122-1.337-6.059,1.477-8.6-3.504
		c-2.556-13.302,10.686-15.855,22.499-16.464c15.872-22.984,43.42-61.361,64.44-82.541C106.737,0.564,111.209-1.233,115.393,1.121z
		 M63.742,82.731c5.596,0.4,21.234,0.431,29.635,0c-0.635-11.788-0.14-26.135,0-36.168C83.16,58.645,72.914,69.573,63.742,82.731z"
		/>
	<path fill-rule="evenodd" clip-rule="evenodd" fill="#0097DB" d="M222.696,73.038c4.919,7.305-1.048,9.135-8.752,11.107
		c-5.521,1.413-12.108,3.525-15.415,4.891c-12.454,5.139-23.922,15.336-32.491,25.801c-8.729,10.66-18.817,29.82-28.53,27.591
		c-4.061-0.932-4.86-6.684-3.44-10.758c3.207-9.202,6.16-16.199,9.332-24.594c6.982-18.481,8.069-23.567,9.782-33.473
		c0.917-5.297,4.358-9.892,8.689-10.69c7.484-1.381,9.554,12.812,9.047,22.237c-0.01,0.161,5.923-1.005,15.379-5.217
		c8.095-3.606,14.657-7.079,21.755-8.368C214.354,70.419,220.891,70.359,222.696,73.038z"/>
	<path fill-rule="evenodd" clip-rule="evenodd" fill="#0097DB" d="M326.58,146.371c-1.325,0.863-3.858,0.561-5.24,0.156
		c-4.341-1.275-9.104-6.818-9.104-17.151c0-9.457,0.465-20.971,0.009-29.829c-0.9-0.227-1.901-0.139-2.982,0.208
		c-1.865,0.598-23.741,21.738-25.685,23.682c-7.17,7.17-24.674,22.443-31.895,22.443c-3.345,0-6.746-0.297-10.189-2.072
		c-9.998-5.155-12.419-17.033-12.02-28.618c0.234-6.835,3.895-15.528,6.606-21.649c6.174-13.942,14.082-21.819,20.701-18.95
		c4.776,2.071,6.127,8.864,2.499,15.909c-2.31,4.488-10.143,14.666-11.31,25.601c-0.791,7.397,3.949,8.507,5.229,8.525
		c5.175,0.074,18.782-11.484,29.698-22.538c10.285-10.418,28.801-29.593,35.139-28.982c10.614,1.021,12.541,6.746,11.918,14.108
		c-0.081,0.955-2.211,12.031-2.149,24.854c0.075,16.02,1.052,27.498,0.72,30.834C328.346,144.703,327.373,145.851,326.58,146.371z"
		/>
	<path fill-rule="evenodd" clip-rule="evenodd" fill="#0097DB" d="M477.492,125.441c3.241,5.534,26.235-14.762,33.76-16.243
		c3.503-0.69,9.112,4.545,13.473,8.929c4.656,4.677,11.661,9.802,18.348,13.341c3.478,1.841,6.966,2.793,9.068,2.908
		c3.592,0.196,5.821,3.275,6.458,6.247c1.047,4.88-0.854,6.387-1.276,6.683c-5.304,3.72-18.15-2.012-27.556-7.614
		c-10.578-6.304-12.252-11.703-21.273-11.893c-10.59-0.222-14.491,6.074-22.773,11.63c-6.518,4.373-13.412,8.307-21.179,8.307
		c-11.476,0-11.551-6.1-11.629-6.699c-0.182-1.375-1.325-10.712,10.565-27.591c9.419-13.371,24.371-25.169,28.026-27.815
		c18.473-13.377,29.232-13.093,33.838-10.93c12.365,5.809,10.918,26.083-1.564,28.129c-6.476,1.061-7.111-7.113-13.727-7.105
		c-6.91,0.007-16.549,7.735-21.022,11.466C483.291,111.978,474.944,121.089,477.492,125.441z"/>
	<path fill-rule="evenodd" clip-rule="evenodd" fill="#0097DB" d="M440.548,81.916c-8.601-9.462-21.983-4.094-24.944-2.911
		c-7.693,3.07-16.162,7.903-22.945,11.403c-9.627,4.967-15.32,6.668-15.065,5.202c4.353-25.16,19.422-43.543,33.076-63.909
		c4.877-7.271,14.804-16.03,12.424-21.024c-3.103-6.519-8.659-6.108-12.961-2.649c-17.431,14.014-30.705,42.244-43.42,68.586
		c-11.283,23.38-31.105,63.745-24.628,71.646c6.549,7.983,21.979,4.593,32.645,2.794c24.503-4.131,47.544-19.021,57.92-31.439
		C437.897,113.337,450.421,92.782,440.548,81.916z M404.455,123.849c-6.128,4.186-15.259,9.114-21.661,11.042
		c-9.019,2.717-13.975,1.321-13.78-1.169c0.404-5.201,3.393-10.612,9.642-17.093c8.502-8.814,21.837-17.771,26.263-19.979
		c2.932-1.464,6.696-1.452,12.069-1.451c5.672,0.001,10.362,1.374,10.882,4.347C429.03,106.151,413.64,117.572,404.455,123.849z"/>
	<polygon fill-rule="evenodd" clip-rule="evenodd" fill="#E52613" points="40.528,180.009 32.252,156.123 23.649,180.009 0,189.007 
		23.649,198.004 32.252,221.89 40.528,198.004 64.502,189.007 	"/>
	<g>
		<polygon fill-rule="evenodd" clip-rule="evenodd" fill="#FFD000" points="394.866,184.149 399.076,175.232 68.873,175.232 
			68.873,184.149 		"/>
		<polygon fill-rule="evenodd" clip-rule="evenodd" fill="#FFD000" points="68.873,189.671 68.873,198.801 387.949,198.801 
			392.258,189.671 		"/>
	</g>
	
		<text transform="matrix(0.8475 0 -0.0803 0.9968 406.6263 198.7636)" fill="#E52613" font-family="'Arial-Black'" font-size="32.88px" letter-spacing="1.18">AIRLINES</text>
</g>
</svg>
