<?xml version="1.0" encoding="utf-8"?>
<!-- Generator: Adobe Illustrator 22.1.0, SVG Export Plug-In . SVG Version: 6.00 Build 0)  -->
<svg version="1.1" id="Слой_1" xmlns="http://www.w3.org/2000/svg" xmlns:xlink="http://www.w3.org/1999/xlink" x="0px" y="0px"
	 width="1161.9px" height="311.6px" viewBox="0 0 1161.9 311.6" style="enable-background:new 0 0 1161.9 311.6;"
	 xml:space="preserve">
<style type="text/css">
	.st0{fill:#313F98;}
	.st1{fill:#1B96D3;}
	.st2{fill:#D7A429;}
</style>
<g>
	<path class="st0" d="M522.4,62.3l-3.9,11.9L364.6,198.8l115.3,0.4l-3.9,11.9l-134.2-0.4l4.3-13L498.3,74.2l-101.8-0.3l3.9-11.9
		L522.4,62.3z"/>
	<path class="st0" d="M523.3,132.6c6.1-11.2,14.2-19.2,24.3-24.2s23.5-7.4,40-7.4c21.8,0.1,34.2,4.7,37.5,13.8
		c0.5,1.6,0.8,3.4,1,5.3c0.2,1.9,0.1,4-0.3,6.5c-0.4,2.5-1,5.3-1.9,8.6s-2.1,7.2-3.7,11.9c-0.2,0.7-0.5,1.5-0.7,2.2s-0.6,1.5-1,2.2
		c-1.3,3.9-2.6,7.8-4,11.6c-1.4,3.9-2.8,8-4.2,12.3l-0.7,2c-1.4,4.3-2.5,8-3.4,11c-0.8,3-1.3,5.7-1.5,8.2s-0.2,4.9,0,7.2
		c0.2,2.3,0.6,4.9,1.2,7.7l-16.1-0.1c-0.2-1.6-0.2-3.1-0.3-4.3c0-1.2,0-2.4,0-3.5s0.1-2.4,0.3-3.7c0.2-1.3,0.5-3,1-4.9
		c-9.2,6.5-18.5,11.2-27.7,14.1s-19.1,4.3-29.7,4.2c-11.9,0-20.6-2.7-26-8s-6.6-12.6-3.6-21.8c2.3-7,6.6-13.1,12.9-18.3
		c6.3-5.2,13.8-8.8,22.4-10.9c3.7-0.9,7.9-1.7,12.4-2.3c4.5-0.7,9.6-1.3,15.2-2.1c9.8-1,17.7-2,23.7-3.1c6-1,11.2-2.2,15.8-3.5
		l1.2-3.6l1.5-4.5c2.8-8.5,2.3-14.7-1.7-18.6c-3.9-3.9-11.6-5.9-22.9-5.9c-11.4,0-20.8,1.8-28.1,5.5c-7.4,3.7-13.6,9.8-18.6,18.3
		L523.3,132.6z M603,153.7c-4.4,1.3-10.2,2.7-17.3,4c-7.2,1.3-15.4,2.6-24.8,3.9c-6.9,1-12.7,2.1-17.5,3.3
		c-4.8,1.2-8.7,2.6-11.9,4.2c-3.1,1.6-5.6,3.6-7.5,5.8c-1.9,2.2-3.3,4.9-4.3,8c-1.9,5.8-1,10.5,2.8,14.1s9.8,5.4,18.1,5.4
		c4.8,0,9.8-0.5,14.9-1.6c5.1-1.1,9.9-2.7,14.5-4.7c4.5-2,8.7-4.4,12.4-7.1c3.8-2.7,6.7-5.7,9-8.8c1.9-2.7,3.6-5.7,5.1-8.9
		c1.5-3.3,2.9-6.9,4.2-10.7L603,153.7z"/>
	<path class="st0" d="M686.6,103.8l-5.2,15.9c4.2-3.4,8.2-6.3,11.9-8.7s7.4-4.3,10.9-5.7c3.6-1.4,7.2-2.4,11-3
		c3.7-0.6,7.8-0.9,12.3-0.9c8.8,0,16,1.6,21.7,4.7c5.6,3.1,9.1,7.4,10.4,12.9c0.3,1.6,0.5,3.2,0.7,4.7c0.1,1.5,0.1,3.1-0.1,4.7
		c-0.2,1.6-0.6,3.5-1.1,5.6s-1.2,4.6-2.2,7.4l-23.2,70.4h-14.8l22-66.9c3.7-11.3,4.2-19.6,1.3-24.7c-2.9-5.2-9.4-7.8-19.6-7.8
		c-4.5,0-9.1,0.7-13.8,2.1c-4.7,1.4-9.1,3.3-13.3,5.8c-4.2,2.4-7.9,5.3-11.3,8.7c-3.4,3.3-6,7-8.1,11.1c-0.9,1.8-1.8,3.4-2.5,4.9
		c-0.8,1.5-1.5,3.1-2.1,4.9c-0.7,1.8-1.4,3.9-2.2,6.3c-0.8,2.4-1.7,5.3-2.9,8.7L651,211.6h-14.8l35.5-107.8L686.6,103.8z"/>
</g>
<g>
	<path class="st1" d="M882.8,186.4l-59-0.1L807,212.5h-53.1L869.5,54.3l56.7,0.1L937,212.6h-54.4L882.8,186.4z M883.4,152.2
		l0.3-56.9l-37.2,56.9L883.4,152.2z"/>
	<path class="st1" d="M990.1,98h46.7l-37.9,114.6h-46.7L990.1,98z M1004.6,54.4h46.7l-9.9,29.9h-46.7L1004.6,54.4z"/>
	<path class="st1" d="M1067.1,98.1h43.7l-6.2,18.8c6.9-8.1,13.1-13.7,18.6-16.8s11.5-4.6,18.1-4.6c6.9,0,13.7,2,20.6,6.1l-24.8,31.3
		c-4.8-2.2-8.8-3.2-12-3.2c-6.1,0-11.6,2.4-16.6,7.1c-7,6.7-13.6,19.2-19.7,37.6l-12.7,38.4h-46.9L1067.1,98.1z"/>
</g>
<g>
	<path class="st2" d="M724.7,288.3c-302.1,0-546.9-62.4-546.9-139.5S422.6,9.4,724.7,9.4c48.6,0,95.6,1.6,140.4,4.6
		C787.8,5,701.8,0,611.2,0C273.7-0.1,0,69.7,0,155.8s273.6,155.8,611.2,155.8c194.4,0,367.5-23.1,479.4-59.2
		C993.7,274.7,865.4,288.3,724.7,288.3z"/>
</g>
</svg>
