<?xml version="1.0" encoding="utf-8"?>
<!-- Generator: Adobe Illustrator 22.1.0, SVG Export Plug-In . SVG Version: 6.00 Build 0)  -->
<svg version="1.1" id="Layer_1" xmlns="http://www.w3.org/2000/svg" xmlns:xlink="http://www.w3.org/1999/xlink" x="0px" y="0px"
	 width="148.974px" height="23px" viewBox="0 0 148.974 23" style="enable-background:new 0 0 148.974 23;" xml:space="preserve">
<style type="text/css">
	.st0{fill:#2E5C99;}
	.st1{fill:url(#SVGID_1_);}
	.st2{fill:#CE210F;}
</style>
<g>
	<g>
		<g>
			<path class="st0" d="M0,22.812c0.327-0.167,0.473-0.564,0.473-0.904v-8.328c0-0.352-0.146-0.738-0.473-0.915h3.969
				c1.77,0,3.497,0.725,3.497,2.734c0,1.066-0.929,1.907-1.931,2.095c1.443-0.013,2.837,0.868,2.837,2.461
				c0,2.276-2.387,2.856-4.066,2.856L0,22.812L0,22.812z M3.213,13.54c-0.184,0-0.312,0-0.651,0.041v3.551h0.402
				c1.217,0,2.392-0.376,2.392-1.786C5.357,13.948,4.417,13.54,3.213,13.54z M3.466,18.046c-0.29,0-0.551,0-0.904,0.027v3.75
				c0.44,0.086,0.916,0.115,1.355,0.115c1.018,0,2.054-0.454,2.054-2.01C5.971,18.392,4.747,18.046,3.466,18.046z M12.298,13.54
				c-0.181,0-0.341,0.03-0.52,0.055v3.509c0.166,0.012,0.317,0.029,0.481,0.029c1.142,0,1.987-0.63,1.987-1.872
				C14.246,13.992,13.415,13.54,12.298,13.54z M17.415,22.872c-0.389,0-0.818,0.014-1.189-0.096
				c-0.691-0.204-1.644-1.76-2.023-2.371c-0.589-0.992-1.102-2.36-2.423-2.374v3.877c0,0.339,0.154,0.751,0.481,0.904H9.212
				c0.32-0.167,0.473-0.549,0.473-0.904v-8.328c0-0.352-0.153-0.738-0.473-0.915h3.669c1.596,0,3.593,0.613,3.593,2.531
				c0,1.609-1.331,2.434-2.816,2.434c2.112,0.012,3.353,4.967,5.684,4.981C18.718,22.796,18.066,22.872,17.415,22.872z
				 M19.496,22.812c0.252-0.115,0.515-0.448,0.515-0.904v-8.328c0-0.462-0.264-0.789-0.515-0.915h3.122
				c-0.268,0.125-0.512,0.452-0.512,0.915v8.328c0,0.455,0.244,0.788,0.512,0.904H19.496z M26.272,22.812
				c0.335-0.153,0.498-0.549,0.498-0.904V13.83h-2.242c-0.517,0-1.134,0.064-1.578,0.327l0.697-1.491h7.437
				c0.602,0,1.218-0.013,1.803-0.138c-0.283,0.763-1.126,1.329-1.612,1.329c-0.591-0.014-1.568-0.053-2.41-0.053v8.104
				c0,0.355,0.176,0.751,0.504,0.904L26.272,22.812L26.272,22.812z M33.259,22.812c0.249-0.115,0.511-0.448,0.511-0.904v-8.328
				c0-0.462-0.262-0.789-0.511-0.915h3.122c-0.265,0.125-0.52,0.452-0.52,0.915v8.328c0,0.455,0.254,0.788,0.52,0.904H33.259z
				 M42.461,20.517c0-1.932-4.552-2.369-4.552-5.454c0-1.91,1.816-2.535,3.414-2.535c0.713,0,1.744,0.099,2.396,0.399l0.114,1.897
				c-0.401-0.838-1.404-1.444-2.335-1.444c-0.736,0-1.508,0.364-1.508,1.206c0,2.004,4.629,2.494,4.629,5.415
				c0,2.121-1.853,2.999-3.723,2.999c-0.978,0-2.309-0.188-3.134-0.752c-0.05-0.339-0.073-0.694-0.073-1.042
				c0-0.414,0.036-0.83,0.098-1.238c0.515,1.173,1.58,2.091,2.911,2.091C41.708,22.059,42.461,21.619,42.461,20.517z M52.213,22.812
				c0.22-0.099,0.456-0.448,0.456-0.904v-3.775c-0.543-0.061-1.302-0.088-2.153-0.088c-0.864,0-1.629,0.027-2.186,0.088v3.775
				c0,0.455,0.23,0.788,0.453,0.904h-3.006c0.223-0.099,0.46-0.448,0.46-0.904v-8.328c0-0.462-0.238-0.803-0.46-0.915h3.006
				c-0.223,0.112-0.453,0.452-0.453,0.915v3.411c0.557,0.059,1.308,0.087,2.186,0.087c0.851,0,1.61-0.037,2.153-0.087v-3.411
				c0-0.462-0.235-0.803-0.456-0.915h3.002c-0.225,0.112-0.447,0.452-0.447,0.915v8.328c0,0.455,0.223,0.788,0.447,0.904H52.213z"/>
			<path class="st0" d="M66.358,22.812c0.097-0.099,0.185-0.173,0.185-0.353c0-0.06-0.023-0.162-0.097-0.351
				c0,0-0.833-2.268-0.931-2.532C64.89,19.5,64.237,19.5,63.598,19.5c-0.606,0-1.221,0.014-1.822,0.077
				c-0.085,0.227-0.978,2.482-0.978,2.482c-0.12,0.305-0.162,0.409-0.162,0.476c0,0.151,0.13,0.224,0.239,0.277h-2.042
				c0.301-0.153,0.562-0.468,0.691-0.781l3.356-8.663c0.015-0.036,0.021-0.076,0.021-0.125c0-0.239-0.159-0.465-0.372-0.578h2.633
				l3.414,9.357c0.139,0.376,0.437,0.65,0.687,0.789L66.358,22.812L66.358,22.812z M63.708,14.597l-1.539,3.95
				c0.459,0.051,0.934,0.062,1.399,0.062c0.532,0,1.058,0,1.575-0.062L63.708,14.597z M69.783,22.812
				c0.252-0.115,0.512-0.448,0.512-0.904v-8.328c0-0.462-0.26-0.789-0.512-0.915h3.121c-0.265,0.125-0.513,0.452-0.513,0.915v8.328
				c0,0.455,0.247,0.788,0.513,0.904H69.783z M77.648,13.54c-0.169,0-0.33,0.03-0.505,0.055v3.509
				c0.163,0.012,0.312,0.029,0.47,0.029c1.144,0,1.987-0.63,1.987-1.872C79.599,13.992,78.766,13.54,77.648,13.54z M83.019,22.872
				c-0.389,0-0.809,0.014-1.189-0.096c-0.692-0.204-1.643-1.76-2.023-2.371c-0.587-0.992-1.351-2.374-2.665-2.374v3.877
				c0,0.339,0.147,0.751,0.47,0.904h-3.045c0.327-0.167,0.48-0.549,0.48-0.904v-8.328c0-0.352-0.152-0.738-0.48-0.915h3.677
				c1.592,0,3.586,0.613,3.586,2.531c0,1.609-1.455,2.434-2.556,2.434c2.189,0.126,3.509,4.981,5.681,4.981
				C84.327,22.796,83.675,22.872,83.019,22.872z M95.678,13.657l-3.084,9.156c-0.254,0-0.504-0.088-0.645-0.187
				c-0.305-0.294-0.784-1.52-0.957-1.973l-1.394-3.521l-2.007,5.68h-0.955l-3.451-9.178c-0.148-0.391-0.401-0.765-0.778-0.968h2.999
				c-0.127,0.098-0.214,0.21-0.214,0.423c0,0.102,0.051,0.244,0.087,0.353l2.247,6.072l2.393-6.849l2.635,6.602l1.996-5.976
				c0.049-0.162,0.078-0.222,0.078-0.325c0-0.124-0.054-0.203-0.179-0.301h1.986C96.07,12.859,95.804,13.279,95.678,13.657z
				 M99.364,14.597l-1.538,3.95c0.464,0.051,0.939,0.062,1.402,0.062c0.526,0,1.059,0,1.573-0.062L99.364,14.597z M102.011,22.812
				c0.105-0.099,0.185-0.173,0.185-0.353c0-0.06-0.031-0.162-0.092-0.351c0,0-0.828-2.268-0.928-2.532
				c-0.631-0.077-1.283-0.077-1.921-0.077c-0.601,0-1.217,0.014-1.82,0.077c-0.087,0.227-0.974,2.482-0.974,2.482
				c-0.128,0.305-0.163,0.409-0.163,0.476c0,0.151,0.124,0.224,0.233,0.277h-2.043c0.302-0.153,0.562-0.468,0.689-0.781l3.368-8.663
				c0.01-0.036,0.019-0.076,0.019-0.125c0-0.239-0.159-0.465-0.378-0.578h2.635l3.413,9.357c0.141,0.376,0.443,0.65,0.691,0.789
				L102.011,22.812L102.011,22.812z M111.18,13.731l-2.403,4.214v3.963c0,0.322,0.132,0.751,0.453,0.904h-2.99
				c0.306-0.167,0.446-0.592,0.446-0.904v-3.976l-2.089-3.347c-0.187-0.313-1.059-1.771-2.121-1.771
				c0.289-0.11,1.167-0.277,1.757-0.277c0.983,0,1.47,0.09,2.072,1.033l1.933,3.064c0.162-0.301,1.693-2.962,1.693-2.962
				c0.185-0.324,0.311-0.553,0.311-0.667c0-0.146-0.063-0.241-0.211-0.339h2.154C111.762,12.869,111.41,13.333,111.18,13.731z
				 M116.806,20.517c0-1.932-4.553-2.369-4.553-5.454c0-1.91,1.812-2.535,3.409-2.535c0.715,0,1.741,0.099,2.395,0.399l0.114,1.897
				c-0.405-0.838-1.404-1.444-2.336-1.444c-0.738,0-1.504,0.364-1.504,1.206c0,2.004,4.629,2.494,4.629,5.415
				c0,2.121-1.84,2.999-3.724,2.999c-0.978,0-2.311-0.188-3.138-0.752c-0.054-0.339-0.08-0.694-0.08-1.042
				c0-0.414,0.039-0.83,0.102-1.238c0.514,1.173,1.583,2.091,2.914,2.091C116.052,22.059,116.806,21.619,116.806,20.517z"/>
		</g>
	</g>
	
		<linearGradient id="SVGID_1_" gradientUnits="userSpaceOnUse" x1="142.6402" y1="21.6684" x2="135.0264" y2="8.4811" gradientTransform="matrix(1 0 0 -1 0 25.1726)">
		<stop  offset="0" style="stop-color:#E6EBEF"/>
		<stop  offset="0.0764" style="stop-color:#BBCEE5"/>
		<stop  offset="0.1854" style="stop-color:#85A9D8"/>
		<stop  offset="0.2796" style="stop-color:#5D8FCF"/>
		<stop  offset="0.3543" style="stop-color:#457EC9"/>
		<stop  offset="0.4" style="stop-color:#3C78C7"/>
		<stop  offset="0.9" style="stop-color:#2E5C99"/>
	</linearGradient>
	<path class="st1" d="M144.813,5.564c-1.706,1.695-5.402,3.151-7.22,3.832c-2.484,0.933-3.587,1.263-4.977,1.716
		c-1.573,0.51-4.72,1.463-4.72,1.463c6.52,1.947,11.114,2.534,11.114,2.534s2.14-0.662,5.531-2.475
		c1.836-0.933,2.74-1.562,3.386-2.162c0.238-0.215,0.854-0.856,1.007-1.676c0.01-0.06,0.039-0.217,0.039-0.371
		c0,0,0-0.109-0.01-0.203c-0.004-0.109-0.023-0.181-0.023-0.181s-0.036-0.194-0.085-0.331c-0.05-0.136-0.26-0.557-0.6-0.831
		c-0.227-0.185-0.62-0.644-2.042-1.144c-0.483-0.168-1.266-0.323-1.266-0.323L144.813,5.564z"/>
	<path class="st2" d="M148.973,8.381c0,0-0.01-0.181-0.054-0.335c-0.035-0.137-0.096-0.268-0.188-0.406
		c-0.111-0.164-0.261-0.356-0.483-0.568c-0.167-0.158-0.351-0.297-0.572-0.446c-0.889-0.583-2.037-0.911-3.053-1.05
		c-1.574-0.209-3.38-0.172-3.551-0.178c-0.581-0.008-4.333,0.023-5.298,0.04c-4.284,0.088-9.528,0.1-10.902,0.1
		c-14.183,0.065-20.356-0.241-27.227-1.618C91.8,2.76,88.557,1.657,88.557,1.657c5.156-0.178,35.237-1.426,40.725-1.572
		c3.593-0.101,6.144-0.123,8.185-0.005c1.047,0.059,2.021,0.148,3.244,0.356c1.097,0.188,2.093,0.506,2.673,0.722
		c1.222,0.452,2.252,1.107,2.761,1.777c0,0,0.151,0.154,0.355,0.428c0.229,0.318,0.495,0.71,0.585,0.857
		c0.744,1.127,1.097,1.835,1.22,2.082c0.133,0.259,0.25,0.528,0.364,0.792c0.112,0.262,0.157,0.42,0.193,0.531
		c0.078,0.277,0.098,0.53,0.101,0.586L148.973,8.381z"/>
</g>
</svg>
