<?xml version="1.0" encoding="utf-8"?>
<!-- Generator: Adobe Illustrator 22.1.0, SVG Export Plug-In . SVG Version: 6.00 Build 0)  -->
<svg version="1.1" id="Layer_1" xmlns="http://www.w3.org/2000/svg" xmlns:xlink="http://www.w3.org/1999/xlink" x="0px" y="0px"
	 width="154.564px" height="63.097px" viewBox="0 0 154.564 63.097" style="enable-background:new 0 0 154.564 63.097;"
	 xml:space="preserve">
<style type="text/css">
	.st0{fill-rule:evenodd;clip-rule:evenodd;fill:#2D427E;}
	.st1{fill-rule:evenodd;clip-rule:evenodd;fill:#7EA9DA;}
	.st2{fill-rule:evenodd;clip-rule:evenodd;fill:#F2C80F;}
	.st3{fill-rule:evenodd;clip-rule:evenodd;fill:#BB1818;}
	.st4{fill-rule:evenodd;clip-rule:evenodd;fill:#53398A;}
</style>
<g>
	<path class="st0" d="M71.486,6.087c0-2.409,1.068-4.145,3.342-4.145h2.14c1.872,0,3.343,1.337,3.343,4.145v4.415
		c0,1.872,0.938,4.01,2.811,4.01c2.139,0,4.01-1.469,7.758-1.469c8.291,0,14.309,5.884,14.309,16.716
		c0,12.573-6.42,18.725-14.713,18.725c-4.945,0-5.215-1.738-8.426-1.738c-3.209,0-2.941,0.936-6.018,0.936
		c-3.478,0-4.545-1.07-4.545-5.35V6.087L71.486,6.087L71.486,6.087z M88.203,42.064c4.277,0,8.025-3.477,8.025-10.7
		c0-6.821-2.41-12.035-7.758-12.035c-4.146,0-8.025,3.344-8.025,11.1C80.445,38.184,83.656,42.064,88.203,42.064L88.203,42.064z"/>
	<path class="st0" d="M137.02,31.566h-13.91c-3.076,0-4.68,1.203-4.68,3.477c0,2.943,3.477,6.152,6.957,6.152
		c5.748,0,6.686-4.68,10.162-4.68c2.139,0,4.545,1.871,4.545,3.479c0,2.139-4.812,8.154-14.842,8.154
		c-9.766,0-17.121-6.016-17.121-17.384c0-13.643,8.291-18.858,16.986-18.858c14.578,0,16.449,13.107,16.449,15.782
		C141.566,30.764,140.23,31.566,137.02,31.566L137.02,31.566L137.02,31.566z M124.449,26.214c4.41,0,6.686-0.934,6.686-2.805
		c0-2.141-2.807-4.549-6.018-4.549c-2.674,0-6.154,1.875-6.154,4.283C118.963,25.146,120.838,26.214,124.449,26.214L124.449,26.214z
		"/>
	<path class="st0" d="M148.68,48.148c-5.484,0-6.02-3.074-6.02-6.016c0-4.549,1.338-6.287,5.885-6.287
		c5.484,0,6.02,2.807,6.02,6.018C154.564,46.814,152.557,48.148,148.68,48.148L148.68,48.148z"/>
	<path class="st1" d="M15.247,24.077v18.855c0,3.078-1.471,4.684-4.948,4.684c-3.61,0-5.217-1.205-5.217-4.684V24.745
		C5.082,18.327,0,19.529,0,16.186c0-2.274,1.874-2.811,3.879-4.547c0.802-0.669,0.802-1.874,1.872-5.618
		C6.286,4.015,8.426,0,14.312,0h2.539c2.675,0,4.682,1.606,4.682,3.481c0,1.468,0.267,3.074-2.007,4.278
		c-2.138,1.204-2.807,1.873-2.807,2.808c0,1.072,0.401,1.606,2.406,2.542c1.471,0.669,2.142,1.873,2.142,2.943
		c0,2.409-3.345,3.209-4.416,4.013C15.915,20.734,15.247,22.206,15.247,24.077L15.247,24.077z"/>
	<path class="st1" d="M35.173,5.15V43.4c0,2.811-1.603,4.281-4.948,4.281c-4.014,0-5.485-1.471-5.485-4.949V4.482
		c0-2.406,1.607-4.28,4.013-4.28h2.14C33.703,0.202,35.173,1.809,35.173,5.15L35.173,5.15z"/>
	<path class="st1" d="M41.246,13.109h2.407c2.273,0,3.611,1.473,4.278,4.281l2.675,12.303c0.67,3.343,1.605,4.013,2.675,4.013
		c1.338,0,2.141-2.139,2.54-4.147l2.811-12.971c0.535-2.276,2.141-3.478,4.68-3.478h2.275c1.607,0,2.942,1.069,2.942,2.409
		c0,0.935-0.134,1.603-0.268,2.141L57.696,49.754c-2.674,8.293-6.955,9.496-10.833,9.496h-3.345c-2.138,0-3.61-1.338-3.61-3.611
		c0-2.141,1.472-3.209,3.878-3.746c2.543-0.533,3.878-2.271,3.878-4.144c0-2.275-8.425-27.147-8.826-28.619
		C37.233,13.778,39.374,13.109,41.246,13.109L41.246,13.109z"/>
	<g>
		<path class="st2" d="M77.165,63.096c-5.484,0-6.02-3.074-6.02-6.016c0-4.549,1.338-6.287,5.885-6.287
			c5.484,0,6.02,2.807,6.02,6.018C83.05,61.762,81.042,63.096,77.165,63.096L77.165,63.096z"/>
		<path class="st2" d="M91.468,63.097c-5.484,0-6.02-3.074-6.02-6.016c0-4.549,1.338-6.287,5.885-6.287
			c5.484,0,6.02,2.807,6.02,6.017C97.353,61.763,95.345,63.097,91.468,63.097L91.468,63.097z"/>
		<path class="st3" d="M105.771,63.097c-5.484,0-6.02-3.074-6.02-6.016c0-4.549,1.338-6.287,5.885-6.287
			c5.484,0,6.02,2.807,6.02,6.017C111.655,61.763,109.647,63.097,105.771,63.097L105.771,63.097z"/>
		<path class="st3" d="M120.074,63.097c-5.484,0-6.02-3.074-6.02-6.016c0-4.549,1.338-6.287,5.885-6.287
			c5.484,0,6.02,2.807,6.02,6.017C125.959,61.763,123.951,63.097,120.074,63.097L120.074,63.097z"/>
		<path class="st4" d="M134.377,63.097c-5.484,0-6.02-3.074-6.02-6.016c0-4.549,1.338-6.287,5.885-6.287
			c5.484,0,6.02,2.807,6.02,6.017C140.262,61.763,138.254,63.097,134.377,63.097L134.377,63.097z"/>
		<path class="st4" d="M148.68,63.097c-5.484,0-6.02-3.074-6.02-6.016c0-4.549,1.338-6.287,5.885-6.287
			c5.484,0,6.02,2.807,6.02,6.017C154.564,61.763,152.557,63.097,148.68,63.097L148.68,63.097z"/>
	</g>
</g>
</svg>
