<?xml version="1.0" encoding="utf-8"?>
<!-- Generator: Adobe Illustrator 22.1.0, SVG Export Plug-In . SVG Version: 6.00 Build 0)  -->
<svg version="1.1" id="Слой_1" xmlns="http://www.w3.org/2000/svg" xmlns:xlink="http://www.w3.org/1999/xlink" x="0px" y="0px"
	 width="1764.161px" height="217.053px" viewBox="0 0 1764.161 217.053" enable-background="new 0 0 1764.161 217.053"
	 xml:space="preserve">
<g>
	<path fill="#29599B" d="M0,15.87c1.83,0.043,3.66,0.122,5.49,0.122c40.659,0.007,81.318,0.005,121.977,0.004
		c1.315,0,2.631,0,3.908,0c0.817,3.684,1.001,24.02,0.27,30.705c-31.035,0-62.114,0-93.419,0c0,16.794,0,33.222,0,50.204
		c13.203,0.179,26.455,0.051,39.704,0.073c13.152,0.022,26.305,0.005,39.729,0.005c0.409,0.799,1.192,1.623,1.2,2.456
		c0.09,8.664,0.078,17.329,0.011,25.994c-0.005,0.716-0.615,1.428-1.052,2.378c-26.511,0-52.943,0-79.703,0
		c0,28.412,0,56.504,0,85.149c-6.586,0.003-12.855,0.02-19.124,0.005C12.661,212.95,6.33,212.903,0,212.87
		C0,147.204,0,81.537,0,15.87z"/>
	<path fill="#07A5E1" d="M931.452,0c11.784,0,23.411,0,35.591,0c0.096,6.686,0.034,13.287,0.045,19.885
		c0.011,6.496,0.002,12.993,0.002,19.489c0,6.663,0,13.326,0,19.988c0,6.452,0,12.904,0,19.854c1.603-0.773,2.799-1.201,3.836-1.873
		c8.082-5.234,16.951-8.057,26.431-9.65c4.982-0.838,9.93-1.114,14.796-0.652c15.006,1.428,28.565,6.446,39.739,17.095
		c9.181,8.748,14.981,19.44,17.886,31.538c1.28,5.329,2.642,10.839,2.354,16.522c-0.122,2.411,0.827,4.877,0.698,7.287
		c-0.514,9.637-1.172,19.388-4.076,28.562c-3.362,10.626-8.433,20.681-16.402,28.742c-8.897,8.999-19.354,15.497-31.983,18.104
		c-5.307,1.096-10.622,2.136-16.04,1.885c-10.754-0.498-20.928-3.193-29.909-9.305c-2.716-1.848-4.838-4.558-7.289-6.812
		c-0.901-0.829-1.966-1.48-3.374-2.522c-1.347,5.316-2.524,9.96-3.714,14.652c-10.138,0-19.896,0-29.448,0
		c-0.315-0.3-0.475-0.395-0.545-0.535c-0.068-0.137-0.059-0.32-0.059-0.483c0.043-69.292,0.089-138.585,0.135-207.877
		c0-0.5-0.017-1,0.004-1.499c0.014-0.322,0.063-0.646,0.135-0.96c0.036-0.155,0.147-0.298,0.244-0.433
		c0.096-0.135,0.214-0.255,0.327-0.377C930.949,0.502,931.069,0.387,931.452,0z M967.164,174.622
		c1.659,1.341,3.484,2.733,5.216,4.232c8.155,7.052,17.495,10.571,28.38,10.067c10.241-0.474,18.174-4.943,24.256-13.043
		c7.766-10.343,8.903-22.62,9.71-34.817c0.339-5.13-0.739-10.451-1.811-15.55c-1.027-4.885-2.222-9.751-4.777-14.256
		c-5.44-9.59-13.634-14.992-24.338-16.266c-13.777-1.639-25.659,3.484-36.636,11.168
		C967.164,128.889,967.164,151.356,967.164,174.622z"/>
	<path fill="#29599B" d="M752.235,0.055c12.333,0,24.287,0,36.74,0c0,14.738,0.015,29.345-0.004,43.952
		c-0.019,14.571,0.389,29.15-1.417,44.731c2.005-1.946,3.199-3.031,4.31-4.196c8.932-9.362,19.95-14.534,32.606-16.743
		c6.918-1.207,13.689-0.993,20.608-0.041c6.887,0.947,13.391,2.712,19.516,6.006c11.379,6.12,18.414,15.513,21.377,28.024
		c1.29,5.446,1.867,11.019,1.892,16.572c0.135,30.821,0.092,61.643,0.105,92.465c0,0.489-0.056,0.978-0.085,1.456
		c-3.716,0.91-23.748,1.19-36.662,0.493c-0.071-1.384-0.208-2.816-0.209-4.247c-0.013-27.993-0.083-55.986,0.057-83.978
		c0.025-5.017-0.607-9.864-2.114-14.548c-1.689-5.248-5.297-9.018-10.439-11.161c-3.354-1.397-6.806-2.372-10.517-2.113
		c-4.43,0.309-8.855-0.3-13.306,0.978c-5.419,1.557-10.482,3.663-14.966,7.034c-4.088,3.073-8.269,6.106-10.87,11.132
		c0,31.987,0,64.278,0,96.833c-12.228,0-24.303,0-36.621,0C752.235,141.921,752.235,71.185,752.235,0.055z"/>
	<path fill="#09A6E1" d="M1487.059,151.821c-32.921,0-65.212,0-97.701,0c-1.236,3.25-0.174,6.221,0.588,9.172
		c2.312,8.954,7.197,15.983,15.33,20.679c6.628,3.826,13.772,5.538,21.321,6.409c4.446,0.513,8.888,1.148,13.288,0.651
		c6.482-0.732,12.99-1.097,19.452-2.352c7.203-1.398,14.257-3.127,21.191-5.458c0.26-0.087,0.62,0.123,1.16,0.247
		c0,8.718,0,17.484,0,26.489c-2.487,2.669-6.226,3.466-9.568,3.954c-6.144,0.898-12.081,2.693-18.279,3.419
		c-9.354,1.096-18.69,2.17-28.09,1.715c-9.468-0.458-18.804-1.726-28.022-4.368c-10.598-3.038-19.813-8.221-27.786-15.607
		c-3.218-2.981-6.149-6.479-8.427-10.219c-3.11-5.105-6.194-10.35-7.626-16.27c-1.067-4.411-2.026-8.859-2.779-13.333
		c-0.549-3.262-0.988-6.598-0.944-9.894c0.139-10.364,0.821-20.727,3.963-30.67c3.908-12.368,10.235-23.345,20.033-32.097
		c7.564-6.757,16.308-11.436,25.964-14.336c8.886-2.669,18.051-3.748,27.291-2.971c12.984,1.092,25.508,4.039,36.078,12.187
		c7.987,6.157,13.744,14.246,17.327,23.627c2.603,6.813,4.268,13.909,5.369,21.218
		C1487.565,133.141,1486.524,142.192,1487.059,151.821z M1448.542,124.661c1.194-2.859-0.113-5.331-0.543-7.851
		c-3.31-19.364-21.661-27.008-38.105-20.856c-9.371,3.505-15.182,10.56-17.965,20.161c-0.8,2.759-2.083,5.401-1.823,8.545
		C1409.78,124.661,1429.193,124.661,1448.542,124.661z"/>
	<path fill="#29599B" d="M399.792,151.929c-32.696,0-64.986,0-97.258,0c-1.635,3.343-0.153,6.472,0.736,9.223
		c4.237,13.11,12.807,21.569,26.605,25.009c7.946,1.981,15.849,3.169,23.884,2.541c8.296-0.649,16.649-1.246,24.75-3.556
		c5.287-1.508,10.67-2.676,16.277-4.063c0,9.119,0,18.201,0,27.372c-4.634,2.513-9.88,3.113-14.911,4.352
		c-4.899,1.206-9.904,1.978-14.865,2.929c-0.323,0.062-0.665,0.016-0.998,0.029c-8.769,0.342-17.556,1.221-26.301,0.905
		c-13.794-0.498-27.291-3.057-39.713-9.469c-10.645-5.494-19.153-13.342-24.911-23.993c-4.404-8.145-7.043-16.735-8.299-25.982
		c-1.017-7.484-0.99-14.923-0.562-22.311c0.608-10.475,3.274-20.656,7.965-30.094c2.241-4.51,5.28-8.656,8.216-12.782
		c5.267-7.401,12.499-12.673,20.32-16.921c5.249-2.85,10.989-4.862,16.908-6.239c7.626-1.775,15.341-2.447,23.096-1.871
		c12.196,0.905,23.866,3.662,34.116,10.869c8.862,6.231,14.924,14.539,19.271,24.384c2.732,6.187,3.993,12.728,5.538,19.192
		c0.907,3.796,1.015,7.816,1.177,11.748c0.185,4.491,0.122,8.999-0.025,13.493C400.75,148.412,400.16,150.114,399.792,151.929z
		 M361.941,124.67c0.3-4.501-0.356-8.514-1.749-12.681c-5.056-15.121-17.916-19.544-30.315-17.837
		c-10.91,1.502-18.889,7.898-23.122,18.355c-1.566,3.87-3.503,7.723-2.595,12.163C323.527,124.67,342.607,124.67,361.941,124.67z"/>
	<path fill="#29599B" d="M471.076,212.826c-12.445,0-24.407,0-36.357,0c-0.938-4.406-1.316-118.025-0.484-141.305
		c3.589-0.925,21.727-1.2,33.688-0.474c0,5.858,0,11.763,0,18.436c1.438-0.872,2.363-1.16,2.876-1.786
		c5.564-6.792,12.8-11.46,20.513-15.188c4.615-2.231,9.867-3.195,14.886-4.528c6.336-1.682,12.854-1.289,19.274-0.898
		c4.848,0.296,9.609,1.552,14.288,3.076c13.794,4.492,22.834,13.88,27.782,27.203c1.508,4.061,2.31,8.621,2.333,12.958
		c0.185,33.989,0.103,67.979,0.103,101.967c-3.606,0.904-24.427,1.188-36.589,0.476c-0.083-1.218-0.243-2.483-0.244-3.749
		c-0.015-28.331-0.012-56.661-0.012-84.992c0-4.942-0.338-9.773-1.961-14.566c-2.565-7.572-10.211-12.648-17.044-12.647
		c-1.833,0-3.672,0.045-5.497-0.088c-9.825-0.715-18.246,3.038-26.234,8.175c-1.241,0.798-2.486,1.637-3.563,2.637
		c-2.678,2.488-5.261,5.079-7.758,7.509C471.076,147.716,471.076,180.024,471.076,212.826z"/>
	<path fill="#09A6E1" d="M1282.939,70.931c12.483,0,24.443,0,36.714,0c0.093,1,0.256,1.937,0.256,2.875
		c0.013,27.999,0.189,56.001-0.108,83.997c-0.082,7.781-0.785,15.637-3.735,23.108c-3.592,9.098-8.951,16.687-16.953,22.445
		c-8.379,6.029-17.627,9.671-27.747,11.612c-8.665,1.662-17.374,2.303-26.095,1.741c-11.265-0.725-22.375-2.635-32.55-7.957
		c-12.727-6.657-21.802-16.399-26.063-30.448c-1.443-4.757-2.515-9.581-2.55-14.401c-0.223-30.497-0.133-60.997-0.14-91.495
		c0-0.322,0.094-0.645,0.146-0.967c3.691-0.807,24.131-1.06,36.589-0.429c0.071,1.396,0.208,2.834,0.209,4.271
		c0.013,26.666,0.024,53.332-0.002,79.998c-0.005,4.948,0.623,9.735,1.96,14.546c2.622,9.441,9.155,14.693,18.079,16.908
		c8.05,1.998,16.297,2.049,24.326-0.821c8.404-3.005,13.514-8.938,15.784-17.473c1.358-5.105,1.918-10.281,1.905-15.571
		c-0.059-25.499-0.026-50.999-0.026-76.498C1282.939,74.717,1282.939,73.063,1282.939,70.931z"/>
	<path fill="#29599B" d="M716.715,73.646c0,9.385,0,18.163,0,27.131c-1.128,0-2.141,0.217-3.017-0.038
		c-3.593-1.045-7.101-2.407-10.725-3.316c-2.993-0.751-6.09-1.317-9.165-1.462c-7.908-0.373-15.765-0.393-23.554,1.809
		c-11.948,3.377-20.152,10.977-25.126,21.968c-4.003,8.845-4.786,18.477-4.018,28.045c0.725,9.041,3.42,17.559,9.066,24.967
		c4.971,6.523,11.523,10.57,19.16,13.132c8.524,2.86,17.388,2.6,26.023,1.686c7.195-0.761,14.571-1.944,21.222-5.408
		c0.518-0.27,1.254-0.124,2.166-0.191c0,9.252,0,18.336,0,27.963c-2.492,0.907-5.139,2.149-7.922,2.834
		c-11.373,2.8-22.894,4.547-34.656,4.011c-11.509-0.524-22.857-2.461-33.345-7.145c-18.261-8.155-31.095-21.592-36.802-41.159
		c-1.794-6.15-3.112-12.393-3.039-18.859c0.047-4.165-0.152-8.338,0.037-12.494c0.405-8.869,1.671-17.751,5.45-25.738
		c4.926-10.411,10.954-20.158,20.566-27.348c7.032-5.26,14.34-9.687,22.664-12.409c12.174-3.98,24.686-5.641,37.435-4.571
		c7.303,0.613,14.526,2.114,21.63,3.974C712.777,71.556,714.625,72.707,716.715,73.646z"/>
	<path fill="#07A5E0" d="M1143.092,172.862c5.132,9.699,9.285,15.306,27.059,9.136c-0.411,11.23,0.465,22.285-1.462,33.843
		c-0.587,0.219-1.596,0.912-2.616,0.928c-7.161,0.106-14.373,0.609-21.473-0.045c-10.169-0.937-19.472-4.549-26.481-12.409
		c-5.555-6.228-8.608-13.674-10.23-21.882c-1.402-7.095-0.946-14.191-0.954-21.287c-0.061-51.812-0.033-103.624-0.033-155.437
		c0-1.8,0-3.601,0-5.601c12.121,0,23.874,0,35.604,0c0.146,0.136,0.297,0.232,0.381,0.369c0.08,0.131,0.123,0.304,0.126,0.46
		c0.033,1.664,0.076,3.329,0.076,4.993C1143.092,61.574,1143.091,117.218,1143.092,172.862z"/>
	<path fill="#2A5A9B" d="M249.952,68.227c0,9.895,0,19.53,0,29.569c-1.003,0.299-2.025,0.803-3.079,0.885
		c-5.426,0.424-10.915,0.374-16.28,1.171c-10.299,1.53-19.978,4.853-27.942,11.931c-1.828,1.624-3.316,3.63-4.835,5.321
		c0,32.013,0,63.633,0,95.222c-3.981,0.827-26.37,1.062-36.792,0.382c-0.261-0.898-0.649-1.923-0.836-2.984
		c-0.142-0.808-0.028-1.661-0.028-2.494c0-43.643-0.008-87.286,0.028-130.928c0.001-1.739-0.711-3.709,1.36-5.405
		c10.79,0.269,21.915-2.336,33.307-0.007c0,6.097,0,11.881,0,18.711c5.019-5.872,9.23-11.223,15.228-14.732
		c5.984-3.5,12.144-6.189,19.124-7.023C240.296,66.522,246.19,66.452,249.952,68.227z"/>
	<path fill="#08A7E2" d="M1663.007,134.912c0.403-3.58-0.952-6.742-2.369-9.884c-3.272-7.251-6.678-14.465-9.036-22.066
		c-1.969-6.345-3.803-12.696-4.78-19.376c-1.432-9.792-0.723-19.526-0.697-29.279c0.008-3.001,0.904-6.141,2.038-8.957
		c1.138-2.827,3.082-5.329,4.558-7.785c1.866-0.966,3.467-1.795,4.647-2.406c8.767-1.522,16.321,0.783,23.6,4.701
		c6.779,3.649,13.526,7.278,19.725,11.927c6.582,4.936,12.224,10.798,16.075,17.906c4.115,7.594,5.143,15.875,3.618,24.722
		c-1.891,10.974-7.606,19.55-14.225,28.012c-4.871,6.227-11.073,10.784-17.027,15.713c-0.256,0.212-0.491,0.486-0.786,0.611
		c-4.78,2.023-9.568,4.026-14.354,6.033c-1.383-1.308-2.737-2.65-4.157-3.917C1667.584,138.855,1665.286,136.894,1663.007,134.912z"
		/>
	<path fill="#295699" d="M1663.007,134.912c2.279,1.982,4.578,3.944,6.831,5.955c1.42,1.267,2.774,2.609,4.157,3.917
		c-4.82,2.96-9.53,6.124-14.49,8.827c-5.855,3.191-11.792,6.311-17.946,8.85c-5.232,2.158-10.557,4.365-16.416,4.546
		c-3.271,0.101-6.552,0.877-9.794,0.702c-3.384-0.183-6.795-0.898-10.07-1.823c-5.031-1.421-5.716-2.2-8.499-7.378
		c0.447-12.186,4.258-23.464,13.504-32.316c5.957-5.703,13.449-7.305,21.501-5.835c10.13,1.85,18.975,6.667,27.463,12.249
		C1660.477,133.411,1661.753,134.144,1663.007,134.912z"/>
	<path fill="#6DC4EA" d="M1672.394,151.482c4.957-1.454,9.176-2.459,13.222-3.937c5.272-1.925,10.448-4.13,15.591-6.384
		c7.787-3.413,15.798-6.463,23.174-10.625c6.335-3.574,13.045-6.247,19.483-9.534c6.232-3.182,12.858-5.594,19.448-8.403
		c1.809,3.947,0.301,7.46-0.611,10.718c-1.523,5.447-4.3,10.446-7.678,15.018c-4.803,6.501-10.009,12.691-16.107,18.008
		c-4.274,3.727-8.282,7.84-13.79,10.005c-3.508,1.379-6.965,2.555-10.761,2.517c-1.497-0.015-2.997-0.063-4.49,0.011
		c-7.283,0.363-14.197-1.474-20.818-4.109c-5.574-2.218-10.965-5.049-14.721-10.07
		C1673.689,153.832,1673.209,152.843,1672.394,151.482z"/>
	<path fill="#388EDB" d="M1639.186,198.05c-1.408-0.838-2.649-1.577-3.977-2.368c0.475-4.157,2.345-7.638,5.063-10.339
		c4.198-4.172,7.677-8.94,12.261-12.857c6.395-5.464,11.816-12.068,17.672-18.167c0.191-0.199,0.573-0.215,1.114-0.402
		c2.596,5.404,2.447,11.564,4.659,17.215C1668.673,186.561,1655.475,193.978,1639.186,198.05z"/>
</g>
</svg>
