<?xml version="1.0" encoding="UTF-8" standalone="no"?>
<!-- Created with Inkscape (http://www.inkscape.org/) -->
<!DOCTYPE svg PUBLIC "-//W3C//DTD SVG 1.1//EN" "http://www.w3.org/Graphics/SVG/1.1/DTD/svg11.dtd">
<svg
   xmlns:svg="http://www.w3.org/2000/svg"
   xmlns="http://www.w3.org/2000/svg"
   version="1.1"
   width="400"
   height="95"
   id="svg2816"
   xml:space="preserve"><defs
     id="defs2820" /><g
     transform="matrix(1.25,0,0,-1.25,0,95)"
     id="g2826"><g
       transform="matrix(1.4223199,0,0,1.4223199,-290.35151,-562.918)"
       id="g2935"><path
         d="m 212.447,433.759 13.421,0 c 1.316,0 2.308,-0.415 2.698,-2.282 0.434,-2.075 0.255,-3.52 -2.084,-3.685 l -4.213,-0.301 c 3.101,-19.573 21.234,-25.953 31.107,-4.872 1.634,3.49 2.169,4.125 3.959,3.681 2.426,-0.602 2.758,-1.848 1.602,-5.366 -8.536,-25.988 -37.225,-28.593 -42.855,6.112 l -3.423,-0.246 c -2.785,-0.2 -2.895,2.148 -2.895,3.453 0,2.581 0.959,3.506 2.683,3.506 l 0,0"
         id="path2832"
         style="fill:#ed192d;fill-opacity:1;fill-rule:evenodd;stroke:none" /><path
         d="m 261.25,446.329 c 2.748,0 4.976,-2.228 4.976,-4.976 0,-2.748 -2.228,-4.976 -4.976,-4.976 -2.748,0 -4.975,2.228 -4.975,4.976 0,2.748 2.227,4.976 4.975,4.976 l 0,0"
         id="path2834"
         style="fill:#ed192d;fill-opacity:1;fill-rule:evenodd;stroke:none" /><path
         d="m 303.687,405.601 0,7.542 c 0,3.059 -1.782,4.632 -4.394,4.632 -1.989,0 -3.237,-0.831 -3.83,-1.752 l 0,7.335 c 0,0.623 0,0.801 -0.238,1.009 -0.148,0.119 -0.445,0.178 -0.712,0.178 -0.357,0 -1.07,-0.118 -1.515,-0.207 -0.535,-0.12 -1.188,-0.298 -1.425,-0.535 -0.268,-0.267 -0.327,-0.594 -0.327,-1.188 l 0,-17.014 c 0,-0.475 0.089,-0.683 0.327,-0.861 0.237,-0.208 0.802,-0.326 1.782,-0.326 0.95,0 1.543,0.118 1.781,0.326 0.237,0.178 0.327,0.386 0.327,0.861 l 0,6.236 c 0,1.247 1.009,2.375 2.316,2.375 1.069,0 1.692,-0.475 1.692,-1.841 l 0,-6.77 c 0,-0.475 0.089,-0.683 0.327,-0.861 0.238,-0.208 0.801,-0.326 1.781,-0.326 0.951,0 1.544,0.118 1.782,0.326 0.237,0.178 0.326,0.386 0.326,0.861 l 0,0"
         id="path2836"
         style="fill:#ed192d;fill-opacity:1;fill-rule:evenodd;stroke:none" /><path
         d="m 319.719,411.005 c 0,4.009 -2.85,6.77 -6.829,6.77 -4.009,0 -6.86,-2.761 -6.86,-6.77 0,-4.038 2.851,-6.77 6.86,-6.77 3.979,0 6.829,2.732 6.829,6.77 l 0,0 z m -4.276,0 c 0,-2.049 -0.89,-3.355 -2.553,-3.355 -1.663,0 -2.584,1.336 -2.584,3.355 0,2.049 0.921,3.356 2.584,3.356 1.663,0 2.553,-1.336 2.553,-3.356 l 0,0"
         id="path2838"
         style="fill:#ed192d;fill-opacity:1;fill-rule:evenodd;stroke:none" /><path
         d="m 341.75,405.601 0,7.928 c 0,2.939 -1.93,4.246 -4.217,4.246 -1.722,0 -3.206,-0.89 -4.008,-1.87 -0.713,1.276 -1.989,1.87 -3.504,1.87 -1.841,0 -3.207,-0.95 -3.741,-1.93 l 0,0.623 c 0,0.624 0,0.802 -0.238,1.01 -0.148,0.119 -0.446,0.178 -0.713,0.178 -0.356,0 -1.039,-0.118 -1.484,-0.208 -0.535,-0.118 -1.129,-0.296 -1.366,-0.534 -0.267,-0.267 -0.326,-0.594 -0.326,-1.187 l 0,-10.126 c 0,-0.475 0.088,-0.683 0.326,-0.861 0.237,-0.208 0.801,-0.326 1.782,-0.326 0.95,0 1.544,0.118 1.781,0.326 0.238,0.178 0.327,0.386 0.327,0.861 l 0,6.562 c 0,1.099 1.039,2.049 2.019,2.049 0.98,0 1.455,-0.475 1.455,-1.604 l 0,-7.007 c 0,-0.475 0.089,-0.683 0.327,-0.861 0.237,-0.208 0.801,-0.326 1.781,-0.326 0.95,0 1.544,0.118 1.782,0.326 0.237,0.178 0.326,0.386 0.326,0.861 l 0,6.562 c 0,1.099 1.01,2.049 1.99,2.049 0.98,0 1.484,-0.475 1.484,-1.604 l 0,-7.007 c 0,-0.475 0.089,-0.683 0.327,-0.861 0.238,-0.208 0.802,-0.326 1.782,-0.326 0.95,0 1.544,0.118 1.781,0.326 0.238,0.178 0.327,0.386 0.327,0.861 l 0,0"
         id="path2840"
         style="fill:#ed192d;fill-opacity:1;fill-rule:evenodd;stroke:none" /><path
         d="m 355.587,408.63 c 0,2.702 -2.019,3.563 -4.335,3.978 l -1.484,0.267 c -1.07,0.179 -1.842,0.417 -1.842,0.98 0,0.535 0.386,0.891 1.455,0.891 1.04,0 1.663,-0.118 2.257,-0.237 0.831,-0.179 1.336,-0.416 1.9,-0.416 0.446,0 0.772,0.446 0.95,0.921 0.149,0.416 0.268,0.713 0.268,1.098 0,0.356 -0.149,0.683 -0.861,0.951 -0.891,0.356 -2.613,0.712 -4.336,0.712 -3.325,0 -5.76,-1.455 -5.76,-4.246 0,-2.464 2.019,-3.444 4.187,-3.86 l 1.395,-0.267 c 1.455,-0.267 1.96,-0.446 1.96,-1.099 0,-0.535 -0.505,-0.98 -1.722,-0.98 -1.039,0 -2.168,0.208 -2.88,0.445 -0.594,0.209 -1.337,0.624 -1.9,0.624 -0.387,0 -0.654,-0.356 -0.892,-0.712 -0.267,-0.416 -0.445,-0.862 -0.445,-1.218 0,-0.357 0.089,-0.623 0.742,-1.039 0.772,-0.475 2.822,-1.188 5.375,-1.188 3.504,0 5.968,1.455 5.968,4.395 l 0,0"
         id="path2842"
         style="fill:#ed192d;fill-opacity:1;fill-rule:evenodd;stroke:none" /><path
         d="m 370.637,411.005 c 0,4.009 -2.85,6.77 -6.829,6.77 -4.009,0 -6.86,-2.761 -6.86,-6.77 0,-4.038 2.851,-6.77 6.86,-6.77 3.979,0 6.829,2.732 6.829,6.77 l 0,0 z m -4.276,0 c 0,-2.049 -0.89,-3.355 -2.553,-3.355 -1.663,0 -2.584,1.336 -2.584,3.355 0,2.049 0.921,3.356 2.584,3.356 1.663,0 2.553,-1.336 2.553,-3.356 l 0,0"
         id="path2844"
         style="fill:#ed192d;fill-opacity:1;fill-rule:evenodd;stroke:none" /><path
         d="m 385.512,405.601 0,7.542 c 0,3.059 -1.782,4.632 -4.395,4.632 -2.108,0 -3.385,-0.95 -3.919,-1.93 l 0,0.623 c 0,0.624 0,0.802 -0.238,1.01 -0.148,0.119 -0.445,0.178 -0.712,0.178 -0.357,0 -1.039,-0.118 -1.485,-0.208 -0.534,-0.118 -1.129,-0.296 -1.366,-0.534 -0.267,-0.267 -0.326,-0.594 -0.326,-1.187 l 0,-10.126 c 0,-0.475 0.088,-0.683 0.326,-0.861 0.237,-0.208 0.802,-0.326 1.782,-0.326 0.95,0 1.544,0.118 1.781,0.326 0.238,0.178 0.327,0.386 0.327,0.861 l 0,6.236 c 0,1.247 1.009,2.375 2.316,2.375 1.069,0 1.692,-0.475 1.692,-1.841 l 0,-6.77 c 0,-0.475 0.09,-0.683 0.327,-0.861 0.238,-0.208 0.802,-0.326 1.782,-0.326 0.95,0 1.544,0.118 1.781,0.326 0.238,0.178 0.327,0.386 0.327,0.861 l 0,0"
         id="path2846"
         style="fill:#ed192d;fill-opacity:1;fill-rule:evenodd;stroke:none" /><path
         d="m 285.432,420.395 0,-14.79 c 0,-0.475 -0.089,-0.684 -0.327,-0.862 -0.267,-0.207 -0.891,-0.326 -1.87,-0.326 -1.01,0 -1.633,0.119 -1.901,0.326 -0.237,0.178 -0.327,0.387 -0.327,0.862 l 0,14.469 -0.345,-0.024 -2.465,-0.179 c -1.686,-0.122 -1.791,1.197 -1.791,2.259 0,1.835 0.625,2.3 1.657,2.3 l 10.155,0 c 0.85,0 1.423,-0.221 1.677,-1.442 0.32,-1.545 0.153,-2.263 -1.238,-2.361 l -2.955,-0.213 -0.27,-0.019 0,0"
         id="path2848"
         style="fill:#ed192d;fill-opacity:1;fill-rule:evenodd;stroke:none" /><path
         d="m 401.2557,421.61175 c -0.2965,-0.59336 -0.50176,-1.12811 -1.09879,-1.12811 -0.32587,0 -0.56404,0.0879 -0.77286,0.17946 -0.47613,0.14649 -0.7728,0.32599 -1.72511,0.32599 -0.9523,0 -1.57497,-0.50546 -1.57497,-1.90461 l 0,-1.60793 2.79464,0 c 0.47248,0 0.68494,-0.0256 0.83143,-0.11722 0.20886,-0.11722 0.26757,-0.29667 0.26757,-0.74352 0,-0.65197 -0.11742,-1.57497 -0.38457,-2.05112 -0.20886,-0.32599 -0.59704,-0.41754 -1.1904,-0.41754 l -2.3185,0 0,-8.55975 c 0,-0.47982 -0.0914,-0.68493 -0.32964,-0.8644 -0.23821,-0.20877 -0.83144,-0.32599 -1.78375,-0.32599 -0.98157,0 -1.54565,0.11722 -1.78374,0.32599 -0.23821,0.17946 -0.32964,0.38458 -0.32964,0.8644 l 0,8.55975 -1.24898,0 c -0.47248,0 -0.68125,0.0331 -0.82775,0.12086 -0.20885,0.12087 -0.27092,0.29668 -0.27092,0.74354 0,0.65195 0.12078,1.57496 0.38835,2.05111 0.20886,0.32599 0.59704,0.4139 1.19039,0.4139 l 0.76916,0 0,1.72879 c 0,2.94116 1.69949,5.35122 5.47575,5.35122 1.24898,0 2.5566,-0.23809 3.38803,-0.68493 0.71422,-0.38458 0.92299,-0.65196 0.92299,-1.0109 0,-0.50546 -0.20885,-0.89004 -0.38835,-1.24899"
         id="path3276"
         style="fill:#76b1e4;fill-opacity:1;fill-rule:nonzero;stroke:none" /><path
         d="m 406.90726,404.72302 c -0.23821,-0.20878 -0.83144,-0.326 -1.78739,-0.326 -0.97794,0 -1.54566,0.11722 -1.78006,0.326 -0.23821,0.17945 -0.32964,0.38457 -0.32964,0.86439 l 0,17.03525 c 0,0.59702 0.0587,0.923 0.32964,1.19038 0.23444,0.23809 0.89003,0.41754 1.42479,0.53842 0.44686,0.0879 1.16108,0.20512 1.51634,0.20512 0.26757,0 0.56408,-0.0586 0.71422,-0.17945 0.23821,-0.20878 0.23821,-0.38458 0.23821,-1.01091 l 0,-17.77878 c 0,-0.47982 -0.0881,-0.68493 -0.32586,-0.8644"
         id="path3278"
         style="fill:#76b1e4;fill-opacity:1;fill-rule:nonzero;stroke:none" /><path
         d="m 422.99388,415.22033 -7.4939,-15.78993 c -0.26714,-0.53475 -0.59703,-0.77649 -1.96319,-0.77649 -1.39552,0 -2.19764,0.20877 -2.19764,0.98527 0,0.35526 0.17572,0.80213 0.47248,1.39549 l 2.38079,4.96663 -4.69925,9.18973 c -0.29651,0.59335 -0.47618,1.15741 -0.47618,1.48339 0,0.65563 0.80212,0.92301 2.2306,0.92301 1.48703,0 1.90093,-0.32599 2.14266,-0.83144 l 2.99976,-6.36578 2.94482,6.42438 c 0.23822,0.53476 0.77285,0.77284 1.93393,0.77284 1.51634,0 2.23056,-0.17581 2.23056,-0.94865 0,-0.35895 -0.20886,-0.83509 -0.50544,-1.42845"
         id="path3280"
         style="fill:#76b1e4;fill-opacity:1;fill-rule:nonzero;stroke:none" /></g></g></svg>