<?xml version="1.0" encoding="utf-8"?>
<!-- Generator: Adobe Illustrator 22.1.0, SVG Export Plug-In . SVG Version: 6.00 Build 0)  -->
<svg version="1.1" id="Слой_1" xmlns="http://www.w3.org/2000/svg" xmlns:xlink="http://www.w3.org/1999/xlink" x="0px" y="0px"
	 width="358.9px" height="267.7px" viewBox="0 0 358.9 267.7" style="enable-background:new 0 0 358.9 267.7;" xml:space="preserve"
	>
<style type="text/css">
	.st0{fill:#004492;}
	.st1{fill:#7B898F;}
</style>
<g>
	<g>
		<path class="st0" d="M98.5,0c0.9,0.2,1.7,0.4,2.6,0.6c9.9,2.1,16.4,9.1,17.7,19.2c0.6,4.8,0.2,9.6-0.7,14.3
			c-1.6,7.9-3.5,15.6-6.4,23.1c-1.3,3.5-2.7,6.9-4.9,9.9c-1.8,2.6-4.3,4.4-7.5,4.8c-1.4,0.2-2.8,0.1-4.2-0.2
			c-1.3-0.2-1.8-0.9-1.7-2.3c0.1-1.1,0.2-2.4,0.6-3.4c1.3-2.9,2.7-5.9,4.1-8.7c4.4-8.4,7.2-17.3,8.5-26.7c0.6-4.1,0.1-8.2-2-12
			c-1.9-3.3-4.7-5.2-8.5-5.6c-5.4-0.6-10.5,0.9-15.2,3.3c-4.6,2.3-8.6,5.6-12.3,9.1C60.9,33.2,54.8,42,49.4,51.3
			C40,67.5,32.8,84.7,28.2,102.9c-1.5,5.8-2.3,11.7-2.8,17.6c-0.8,11,1.7,21.3,7.3,30.7c5.5,9.3,13.9,14.6,24.4,16.8
			c4.4,0.9,8.9,1.2,13.4,0.9c2.2-0.2,4.3-1,6.4-1.6c0.5-0.1,0.8-0.8,1.1-1.3c3.5-6.5,7-13,10.4-19.6c8.7-17.2,17.3-34.5,25.9-51.8
			c2.7-5.5,5.4-11,7.1-16.9c1-3.4,1.8-6.9,2.4-10.5c0.4-2.5,1.6-4.5,3.5-6.2c3.6-3.2,7.8-5.5,12.2-7.2c2.2-0.8,4.5-1.5,6.8-2
			c2.3-0.4,3.3,0.4,3.8,2.7c0.5,2.2,0.5,4.5,0.1,6.8c-1.5,11.1-3.9,22-6,33c-1.3,6.9-2.4,13.9-3.4,20.9c-0.9,6.3-1.7,12.6-2.4,19
			c-0.5,4.8-0.7,9.6-1.1,14.4c0,0.4,0,0.7,0.1,1.4c7.5-2.9,14.7-5.9,22.3-9.1c-3.8-2.6-7.4-5-11.3-7.5c1.8-1.3,3.4-2.6,5.1-3.7
			c1.2-0.8,2.5-0.8,3.8-0.5c2.8,0.6,5.7,1.3,8.5,1.9c0.9,0.2,1.8,0.4,2.7,0.4c2.2,0.2,4.3-0.1,6.1-1.4c4.6-3.2,9.2-6.5,13.8-9.8
			c0.1-0.1,0.1-0.2,0.2-0.4c-0.3-0.2-0.6-0.4-0.9-0.5c-1.6-0.6-3.2-1.1-4.8-1.7c-0.8-0.3-1.3-0.2-2,0.2c-1.1,0.7-2.3,1.3-3.5,1.8
			c-0.9,0.3-1.8,0.5-2.8,0.6c-3,0.1-5-2.4-4.3-5.3c0.1-0.5,0.3-0.9,0.4-1.5c-5-1.7-9.9-3.4-14.8-5.1c0.7-3.4,4-6.2,7.6-6.3
			c1.9,0,3.9,0.2,5.8,0.4c3.3,0.3,6.6,0.7,9.9,1.1c1.1,0.1,2-0.2,2.8-1c2.7-2.9,5.6-5.6,8.4-8.4c1.8-1.7,3.8-2.8,6.4-2.7
			c2.6,0.1,5.1,1.7,5.9,4.1c0.7,2.1-0.2,5.2-2.1,6.7c-1.1,0.9-2.2,1.8-3.2,3c1.8,0.2,3.5,0.4,5.3,0.6c0.4,0,0.9,0,1.3,0.1
			c2.1,0.5,3.9-0.2,5.6-1.5c4-2.9,7.9-5.8,11.9-8.7c3.1-2.3,6.2-4.5,9.4-6.8c3.7-2.6,7.7-4.5,12.3-5.2c1-0.1,2.1-0.3,3.2-0.2
			c2.4,0.2,4.7-0.3,7.1-0.7c0.7-0.1,1.5-0.2,2.2-0.2c2.1,0,3.2,1.6,2.3,3.5c-0.3,0.8-0.8,1.6-1.4,2.3c-1.6,1.7-3.1,3.4-4.8,5
			c-4,3.7-8.4,7.1-13.1,10c-5.3,3.3-10.5,6.7-15.7,10.1c-0.4,0.3-0.9,0.6-1.5,1.1c2,1.1,3.8,2,5.7,3c1-1,2-2,3-3
			c1.3-1.3,2.9-2.2,4.8-2.2c2.1,0,4.1,1.2,4.8,3c0.6,1.7-0.1,4-1.6,5.3c-0.5,0.5-1.1,0.9-1.9,1.6c1.9,0.9,3.5,1.7,5.1,2.5
			c1.9,1,2.7,2.2,2.3,4.2c-0.1,0.6-0.4,1.2-0.8,1.6c-0.9,0.9-1.9,1.7-2.8,2.5c-3.8-1-7.6-1.9-11.3-3c-1.4-0.4-2.3-0.2-3.4,0.8
			c-1.2,1.1-2.6,2-4,2.8c-0.9,0.5-2,0.8-3,0.9c-1.4,0.2-2.6-0.5-3.1-1.7c-0.7-1.5-0.6-2.7,0.5-3.8c0.5-0.6,1.1-1.1,1.7-1.8
			c-0.5-0.2-0.9-0.4-1.3-0.5c-2.7-0.7-5.5-1.5-8.2-2.2c-0.8-0.2-1.5-0.2-2.2,0.3c-8.3,5.8-17.1,10.6-26.1,15.1
			c-12.9,6.5-26.1,12.4-39.4,18c-1.8,0.7-1.7,0.7-1.4,2.7c1.4,8.4,3.6,16.6,6.8,24.5c1.4,3.5,3,6.9,5.6,9.7c0.6,0.6,1.2,1.2,1.8,1.7
			c1.8,1.5,3.8,1.9,6.1,1.2c3.8-1.1,7.1-3,10-5.6c3.1-2.7,5.9-5.6,8.4-8.8c1-1.3,2.1-2.6,3.3-3.8c0.8-0.8,1.7-1.4,2.7-1.9
			c1.4-0.8,2.8-0.7,4,0.2c1.2,1,1.1,2.5,0.7,3.8c-0.3,1-0.8,1.9-1.3,2.9c-3.7,7.3-8.8,13.6-14.8,19.2c-3.3,3.1-6.7,5.9-10.9,7.7
			c-4.9,2.1-9.9,2.8-15.1,1.3c-3.7-1.1-6.6-3.5-9.3-6.1c-3.2-3.2-5.8-7-7.9-11c-4.5-8.6-8.2-17.6-10.2-27.2
			c-0.1-0.4-0.2-0.8-0.4-1.3c-0.5,0.2-0.9,0.3-1.3,0.5c-11.3,5.6-23.1,10.1-35.2,13.7c-1.2,0.4-1.9,1-2.5,2.1
			c-5.2,9.3-10.2,18.6-15.6,27.7c-9.2,15.6-20.2,29.9-32.6,43.2c-2.8,3-5.9,5.8-9.1,8.6c-2.2,1.9-4.8,3.3-7.7,3.9
			c-2.8,0.5-5.6,0-8.3-0.7c-0.9-0.2-1.4-1-1.7-1.8c-0.7-1.9-0.6-3.8,0.1-5.7c0.6-1.6,2.1-2,3.6-2.2c0.8-0.1,1.7-0.1,2.5,0.1
			c2.5,0.6,4.7,0,6.5-1.6c2.3-2.1,4.6-4.4,6.7-6.7C34.5,236,44.4,223,53.2,209.1c4.7-7.3,9-14.8,13.5-22.2c0.2-0.4,0.4-0.8,0.8-1.5
			c-0.7,0.1-1.2,0.1-1.7,0.2c-9.8,1.6-19.5,1.8-29.2-1.1c-5.7-1.7-11.3-3.8-16.2-7.4C13,171.8,8,164.8,4.7,156.5
			C2.5,150.9,1.2,145,0.6,139c-0.6-4.9-0.8-9.9-0.5-14.9c0.4-7.7,1.7-15.4,3.6-22.9c6.1-24,16.9-45.6,32-65.2
			c7.4-9.7,16.4-18.5,27.2-25.3C70.1,6.2,77.7,2.8,86,1.2c1.7-0.3,3.4-0.5,5.2-0.8c0.3-0.1,0.7-0.2,1-0.3C94.3,0,96.4,0,98.5,0z
			 M117.7,110.1c-0.5,0.8-1.1,1.5-1.5,2.2c-1.8,3.4-3.6,6.8-5.3,10.3c-5,10.1-9.9,20.2-14.9,30.4c-2,4.1-4.1,8.1-6.1,12.1
			c-0.2,0.4-0.3,0.8-0.5,1.2c0.2,0.1,0.3,0.1,0.3,0.1c8.9-1.9,17.5-4.8,25.9-8.6c0.8-0.4,0.9-0.9,0.9-1.6
			c-0.2-8.1-0.4-16.3,0.2-24.4c0.2-2.7,0.6-5.3,0.8-8c0.4-3.9,0.7-7.8,1.1-11.6C118.6,111.5,118.7,110.8,117.7,110.1z"/>
	</g>
	<g>
		<path class="st1" d="M61.1,252.7c0-8.5,6.5-14.6,15.4-14.6c4.9,0,9,1.8,11.6,5l-4.2,3.9c-1.9-2.2-4.3-3.3-7.1-3.3
			c-5.3,0-9.1,3.7-9.1,9.1c0,5.3,3.8,9.1,9.1,9.1c2.8,0,5.2-1.1,7.1-3.4l4.2,3.9c-2.7,3.3-6.8,5.1-11.7,5.1
			C67.6,267.4,61.1,261.3,61.1,252.7z"/>
		<path class="st1" d="M90.8,252.7c0-8.4,6.5-14.6,15.5-14.6c8.9,0,15.5,6.2,15.5,14.6s-6.6,14.6-15.5,14.6
			C97.3,267.4,90.8,261.1,90.8,252.7z M115.1,252.7c0-5.4-3.8-9.1-8.9-9.1c-5.1,0-8.9,3.7-8.9,9.1s3.8,9.1,8.9,9.1
			C111.3,261.8,115.1,258.1,115.1,252.7z"/>
		<path class="st1" d="M153.1,266.9v-17l-8.3,14h-3l-8.3-13.6v16.6h-6.1v-28.3h5.4l10.6,17.6l10.4-17.6h5.4l0.1,28.3H153.1z"/>
		<path class="st1" d="M192.3,266.9v-17l-8.3,14h-3l-8.3-13.6v16.6h-6.1v-28.3h5.4l10.6,17.6l10.4-17.6h5.4l0.1,28.3H192.3z"/>
		<path class="st1" d="M205.6,254.4v-15.8h6.5v15.6c0,5.4,2.3,7.6,6.3,7.6s6.3-2.2,6.3-7.6v-15.6h6.5v15.8c0,8.3-4.8,12.9-12.8,12.9
			S205.6,262.8,205.6,254.4z"/>
		<path class="st1" d="M243.7,243.9h-9.1v-5.3h24.7v5.3h-9.1v23h-6.5V243.9z"/>
		<path class="st0" d="M294.2,260.8h-13.1l-2.5,6.1h-6.7l12.6-28.3h6.5l12.7,28.3h-6.9L294.2,260.8z M292.1,255.9l-4.5-10.8
			l-4.5,10.8H292.1z"/>
		<path class="st0" d="M307.2,238.6h6.5v28.3h-6.5V238.6z"/>
		<path class="st0" d="M339.1,266.9l-5.5-7.9h-0.3h-5.7v7.9h-6.5v-28.3h12.2c7.6,0,12.3,3.9,12.3,10.3c0,4.2-2.1,7.4-5.8,8.9
			l6.3,9.1H339.1z M332.9,243.9h-5.3v9.9h5.3c4,0,6-1.9,6-4.9C339,245.7,336.9,243.9,332.9,243.9z"/>
	</g>
	<g>
		<path class="st0" d="M358.9,263c0,2.6-2,4.7-4.6,4.7s-4.6-2-4.6-4.6s2-4.6,4.6-4.6C356.9,258.4,358.9,260.4,358.9,263z M358,263
			c0-2.1-1.6-3.8-3.7-3.8c-2.2,0-3.7,1.7-3.7,3.8c0,2.1,1.6,3.8,3.7,3.8S358,265.2,358,263z M355.7,263.9l1.1,1.7h-1.4l-1-1.5h-0.1
			h-0.9v1.5H352v-5.1h2.2c1.4,0,2.2,0.7,2.2,1.8C356.7,263.1,356.4,263.6,355.7,263.9z M354.4,263.1c0.6,0,1-0.3,1-0.8
			s-0.4-0.8-1-0.8h-0.8v1.6L354.4,263.1L354.4,263.1z"/>
	</g>
</g>
</svg>
