<?xml version="1.0" encoding="utf-8"?>
<!-- Generator: Adobe Illustrator 21.0.0, SVG Export Plug-In . SVG Version: 6.00 Build 0)  -->
<svg version="1.1" id="Layer_1" xmlns="http://www.w3.org/2000/svg" xmlns:xlink="http://www.w3.org/1999/xlink" x="0px" y="0px"
	 viewBox="0 0 200 30.5" style="enable-background:new 0 0 200 30.5;" xml:space="preserve">
<style type="text/css">
	.st0{fill:#8A2534;}
	.st1{fill:#FFFFFF;}
	.st2{fill:#232D4F;}
	.st3{fill:url(#SVGID_1_);}
	.st4{fill:#B15765;}
	.st5{fill:url(#SVGID_2_);}
	.st6{fill:url(#SVGID_3_);}
	.st7{fill:url(#SVGID_4_);}
	.st8{fill:url(#SVGID_5_);}
	.st9{fill:url(#SVGID_6_);}
	.st10{fill:url(#SVGID_7_);}
</style>
<g>
	<path class="st0" d="M4.7,23.7c0.4,1.7,0.3,4.6-0.8,6c-1.7,2-3.2-0.2-3.7-1.9c-0.4-1.8-0.4-5,0.9-6.4c0.5-0.6,1.2-0.9,1.9-0.5
		C4.1,21.6,4.3,22.6,4.7,23.7"/>
	<path class="st1" d="M3.2,26c0.1,0.2-0.1,0.5,0.2,0.6c0.2,0.2,0.7,0.1,0.7,0.5c-0.4,0-0.7-0.4-1.2-0.3c-0.2,0-0.5,0.2-0.7,0.3
		c0,0-0.1-0.1-0.1-0.1c0.2-0.2,0.6-0.2,0.8-0.4l0-0.6C3.1,25.7,3.2,25.8,3.2,26"/>
	<path class="st1" d="M3.6,27.3c0.2,0.2,0.1,0.5,0.1,0.8c0,0.6,0,1.2,0.2,1.8c0,0.1,0,0.2-0.1,0.2c-0.1,0-0.1-0.1-0.1-0.1
		c-0.1-0.8-0.1-1.6-0.2-2.4c-0.1-0.2-0.4-0.1-0.5-0.1c-0.1,0-0.1,0-0.2,0.1c0,0.8,0,1.7-0.1,2.5c0,0-0.1,0-0.1,0l0-0.1
		c0.1-0.8,0.1-1.8,0.1-2.6c0.1-0.1,0.3-0.2,0.5-0.2C3.2,27.2,3.4,27.2,3.6,27.3"/>
	<path class="st1" d="M1.8,28.7c0,0.2,0,0.3,0,0.5c0,0.2-0.1,0.4-0.1,0.6c0,0.1-0.1,0.2,0,0.3h0.1c0.2-0.1,0.1-0.3,0.2-0.5
		c0-0.2,0-0.3,0-0.5c0-0.4,0-0.7,0-1c0-0.1,0-0.1,0-0.2c0.1-0.3,0-0.7,0-1c-0.1-0.3-0.5-0.3-0.7-0.4c-0.1,0-0.1-0.1-0.1-0.2
		c0.1-0.1,0.2-0.2,0.4-0.2c0,0,0.1,0,0.1,0c0.1,0,0.1,0,0.2-0.1c0.1,0,0.1-0.1,0.1-0.1c-0.1-0.2-0.3,0-0.4,0C1.3,26,1,25.9,1,26.2
		c0,0.1,0,0.2,0.1,0.3c0.1,0,0.1,0.1,0.2,0.1c0.2,0.1,0.4,0.1,0.5,0.3c0,0.1,0,0.3,0,0.3c0,0.1,0,0.1,0,0.2c0,0.1,0,0.2,0,0.4
		c0,0.1-0.2,0-0.3,0.1c-0.1,0-0.2,0-0.2-0.1c0-0.1,0-0.2,0-0.3c0.2-0.1,0.3-0.1,0.5-0.1c0,0,0,0,0,0c0,0,0,0,0-0.1c0,0,0,0,0,0
		c-0.1-0.1-0.1,0-0.3,0c0,0-0.1,0-0.1,0c-0.2,0-0.1-0.3-0.1-0.4c0,0-0.1-0.1-0.1-0.1c-0.1,0.1,0,0.3,0,0.4c0,0.4,0,0.8,0,1.3
		c0,0.2,0,0.4,0,0.6c0,0.1,0,0.2,0,0.3c0,0.1-0.1,0.2,0,0.3c0,0,0.1-0.1,0.1-0.1c0-0.3,0.1-0.5,0.1-0.8c0-0.1,0-0.1,0.1-0.1
		c0.1,0,0.2,0.1,0.3,0.1c0.2,0,0.1-0.2,0-0.2c-0.2,0-0.1-0.1-0.3-0.1c0,0-0.1,0-0.1,0c0-0.1,0-0.2,0-0.3c0.1,0,0.2,0,0.4,0
		c0,0,0.2,0,0.2,0.1C1.8,28.3,1.8,28.5,1.8,28.7"/>
	<path class="st1" d="M4.1,23.8l-0.2,0c-0.1-0.1-0.1-0.1-0.2-0.1c-0.2-0.1-0.4-0.2-0.6-0.4c-0.2,0-0.2,0.2-0.4,0.3c0,0-0.1,0-0.1,0
		c0.1-0.1,0.2-0.2,0.3-0.3c0.1,0,0.1-0.1,0.2-0.1c0.1,0,0.2,0.1,0.2,0.2c0.1,0.1,0.2,0.1,0.3,0.2c0.1,0.1,0.2,0.1,0.3,0.2
		C4.1,23.6,4.2,23.6,4.1,23.8L4.1,23.8z"/>
	<path class="st1" d="M3.8,21.8c0,0.1-0.1,0.1-0.2,0.1c-0.1,0-0.1,0-0.2,0.1c0,0-0.1,0.1,0,0.1c0,0.1,0.1,0.1,0.2,0.1
		c0,0,0.1,0,0,0.1c0,0-0.1,0-0.1,0c-0.1,0-0.3,0-0.5,0c-0.1,0-0.1,0-0.2,0c0,0-0.1,0-0.1,0c-0.1,0-0.3,0-0.3,0.1c0,0.1,0,0.2,0,0.3
		c0,0,0,0.1,0,0.2c0,0.2,0,0.4,0.1,0.6c0,0,0,0.1,0,0.1c0.1,0.1,0.2,0,0.3,0c0.1,0,0.2,0,0.3,0c0.1,0,0.2,0,0.3,0c0,0,0.1,0,0.1,0
		c0,0-0.1,0-0.1,0.1c-0.1,0-0.2,0-0.3,0c-0.2,0-0.4,0-0.7,0c-0.1,0-0.2,0-0.3,0c0,0-0.1,0-0.2,0c-0.1,0-0.1,0-0.3,0c0,0-0.1,0-0.1,0
		c0,0,0,0,0.1,0c0.1,0,0.3,0,0.4,0c0.2,0,0.2,0,0.3-0.1c0,0,0-0.1,0-0.1c0-0.2,0-0.3,0-0.6c0-0.1,0-0.3,0-0.4c0-0.1,0-0.3,0.1-0.4
		l0.3-0.1c0.1,0,0.2,0,0.3,0c0.1,0,0.1,0,0.2-0.1c0-0.1,0-0.1-0.1-0.1c-0.1,0-0.1,0-0.2,0c-0.1,0-0.1,0-0.2-0.1
		c-0.1-0.2-0.2-0.4-0.1-0.5c0,0,0-0.1,0.1,0c0.1,0.1,0,0.1,0,0.2c0,0.2,0.1,0.3,0.2,0.3c0.1,0,0.1,0,0.2,0c0.1-0.1,0-0.2,0.1-0.3
		c0-0.1,0-0.2,0.1-0.3c0.1,0,0.1,0.1,0.1,0.1l0,0.1c0,0.1,0,0.3,0,0.4c0,0.1,0,0,0.1,0c0.1,0,0.2-0.1,0.2-0.2c0-0.1,0-0.3,0.1-0.3
		c0,0,0,0,0,0L3.8,21.8z"/>
	<path class="st1" d="M3.8,23.1c0,0-0.1,0-0.1,0c-0.1-0.1-0.4-0.2-0.5-0.3c-0.1-0.1-0.2,0-0.2,0.1c-0.1,0.1-0.1,0.1-0.2,0.1
		C2.7,23,2.7,23,2.6,23c0,0-0.1,0,0-0.1c0.1-0.1,0.1-0.1,0.2-0.1c0.1-0.1,0.2-0.2,0.3-0.2c0.1,0.1,0.3,0.1,0.5,0.2
		C3.6,22.9,3.8,22.9,3.8,23.1C3.9,23.1,3.8,23.1,3.8,23.1"/>
	<path class="st1" d="M3.3,24.9c0,0.1,0,0.4-0.1,0.5c-0.1,0.1-0.1,0.1-0.2,0.1c-0.2,0-0.1,0-0.3,0.1l-0.3,0c-0.2,0-0.3,0-0.6,0
		c-0.1,0-0.2,0-0.3-0.1c0,0-0.1,0-0.1-0.1c0-0.1,0.1,0,0.2,0c0.2,0,0.4,0,0.6,0c0.2,0,0.3,0,0.5,0c0.1,0,0.2,0,0.2,0
		c0.2-0.1,0.2-0.1,0.2-0.2c0-0.2,0-0.2-0.2-0.2c-0.2-0.1-0.3,0-0.5-0.1c-0.1-0.1,0-0.3-0.2-0.4c-0.2,0-0.3,0-0.4,0
		c-0.1,0-0.2,0-0.2,0c0,0-0.1,0-0.2,0c-0.1,0-0.1,0-0.1,0c0,0-0.1-0.1,0-0.1c0.1,0,0.1,0,0.2,0c0.2,0,0.3,0,0.5,0c0.1,0,0.1,0,0.2,0
		c0.2,0,0.3,0,0.5,0c0.1,0,0.2,0,0.3,0c0.1,0,0.2,0,0.2,0c0.1,0,0.2,0,0.3,0c0.1,0,0.2,0,0.3,0c0,0,0.1,0.1,0.1,0.1
		c0,0,0,0.1-0.1,0.1c-0.1,0-0.2,0-0.3,0c-0.1,0-0.2,0-0.3,0c-0.1,0-0.2,0-0.3,0c-0.1,0-0.1,0-0.2,0c0,0.1,0,0.2,0.1,0.2
		c0.1,0.1,0.2,0.1,0.3,0.1C3.1,24.7,3.2,24.8,3.3,24.9"/>
	<path class="st1" d="M2.4,21.4c0,0.2,0,0.4-0.1,0.6c-0.1,0-0.3,0-0.4,0.1c-0.1,0.1,0,0.2,0,0.3c0,0.1,0.2,0.2,0.3,0.3
		c0.1,0.1,0.1,0.1,0.1,0.2c0,0-0.1,0-0.1,0l0,0L2,22.9c0,0-0.1-0.1-0.2-0.1c-0.2,0-0.3,0.2-0.5,0.3c-0.1,0-0.1,0.1-0.2,0.1
		c0,0-0.1,0.1-0.1,0.1c-0.1,0.1-0.1,0.1-0.2,0.1l0,0c0,0,0.1-0.1,0.2-0.1c0.1-0.1,0.2-0.3,0.4-0.4c0.1-0.1,0.3-0.2,0.4-0.4
		c0-0.1,0-0.1-0.1-0.1c0-0.1,0-0.2-0.1-0.3c-0.1,0-0.3-0.1-0.3-0.1c-0.2-0.2-0.2-0.5-0.1-0.7l0,0c0.1,0,0.1,0.1,0.1,0.2
		c0,0.1,0,0.3,0.1,0.3c0,0,0.1,0.1,0.1,0.1c0,0,0.1,0,0.1-0.1c0.1-0.2,0-0.3,0-0.5c0,0,0-0.1,0.1-0.1l0.1,0c0,0.1,0,0.2,0,0.3
		c0,0.1,0,0.2,0.1,0.3c0,0,0.1,0.1,0.1,0c0.1,0,0.2-0.1,0.2-0.2c0-0.1,0-0.3,0-0.3l0-0.1C2.4,21.3,2.4,21.4,2.4,21.4"/>
	<path class="st1" d="M2.1,23.5c-0.1,0-0.1-0.1-0.1-0.1c-0.1-0.1-0.1-0.2-0.3-0.1c0,0-0.1,0.1-0.2,0.1c-0.2,0.2-0.3,0.3-0.5,0.5
		c0,0-0.1,0-0.1,0c0-0.1,0.1-0.1,0.2-0.2c0.1,0,0.1-0.1,0.2-0.1c0,0,0.1-0.1,0.1-0.1c0.1-0.1,0.2-0.1,0.3-0.2c0,0,0.1-0.1,0.1,0
		c0,0.1,0.2,0.2,0.2,0.2C2.1,23.4,2.2,23.5,2.1,23.5"/>
	<path class="st2" d="M50.9,17.1l-0.1,0.1c-0.9-0.6-2.4-1-3.8-1c-2.8,0-5.1,2-5.1,5c0,3.2,2.6,4.9,5.3,4.9c1.7,0,3.4-0.6,4.3-1.5
		l0.1,0.1l-0.5,2.6c-1,0.6-2.7,0.9-4,0.9c-4.4,0-8.1-2.7-8.1-7c0-4,3-7.1,8-7.1c1.7,0,3.3,0.4,4.4,0.9L50.9,17.1z M66.1,27.8
		C66,27.1,66,26.3,66,25.6v-8.9c0-0.7,0-1.5,0.1-2.3h-2.9c0.1,0.7,0.1,1.6,0.1,2.3v3.3h-7v-3.3c0-0.7,0-1.5,0.1-2.3h-2.9
		c0.1,0.7,0.1,1.6,0.1,2.3v8.9c0,0.7,0,1.5-0.1,2.3h2.9c-0.1-0.7-0.1-1.5-0.1-2.3V22h7v3.6c0,0.7,0,1.5-0.1,2.3H66.1z M72.3,27.8
		c-0.1-0.7-0.1-1.5-0.1-2.3v-8.9c0-0.7,0-1.5,0.1-2.3h-2.9c0.1,0.7,0.1,1.6,0.1,2.3v8.9c0,0.7,0,1.5-0.1,2.3H72.3z M88.1,14.4
		C88.1,15,88,16,88,16.7V28h-0.4l-9.4-9.7v7.2c0,0.7,0,1.5,0.1,2.3h-2.5c0.1-0.7,0.1-1.5,0.1-2.3V16l-1.4-1.4v-0.2h3.5l7.8,8.1v-5.8
		c0-0.7,0-1.5-0.1-2.3L88.1,14.4z M105.1,27.8c-0.6-0.9-1.1-1.8-1.5-2.6l-6.3-11.6h-0.6l-7.5,14.2h3c0.2-0.7,0.5-1.4,0.7-1.8
		l0.8-1.7h6.5l0.9,1.7c0.3,0.5,0.6,1.1,0.7,1.8L105.1,27.8z M96.8,17.8L96.8,17.8l2.4,4.7h-4.7L96.8,17.8z M125.6,27.8
		c-0.6-0.9-1.1-1.8-1.5-2.6l-6.3-11.6h-0.6l-7.5,14.2h3c0.2-0.7,0.5-1.4,0.7-1.8l0.8-1.7h6.5l0.9,1.7c0.3,0.5,0.6,1.1,0.7,1.8
		L125.6,27.8z M117.3,17.8L117.3,17.8l2.4,4.7H115L117.3,17.8z M129.5,27.8c-0.1-0.7-0.1-1.5-0.1-2.3v-8.9c0-0.7,0-1.5,0.1-2.3h-2.9
		c0.1,0.7,0.1,1.6,0.1,2.3v8.9c0,0.7,0,1.5-0.1,2.3H129.5z M132.9,27.8c0.1-0.7,0.1-1.5,0.1-2.3v-8.9c0-0.7,0-1.5-0.1-2.3h5.3
		c3,0,5,1.6,5,3.6s-1.6,3.3-3.5,3.7l3.4,3.8c0.6,0.7,1.3,1.4,2.1,2.1v0.2h-3.5l-6-7v4.7c0,0.7,0,1.5,0.1,2.3L132.9,27.8z
		 M135.7,20.5h1.6c1.8,0,2.9-0.7,2.9-2.3c0-1.4-1.1-2.1-2.9-2.1h-1.6L135.7,20.5L135.7,20.5z M154.4,27.8l0.6-2.4l-0.1-0.1
		c-0.7,0.4-1.6,0.6-2.7,0.6h-3.2v-9.4c0-0.7,0-1.5,0.1-2.3h-2.9c0.1,0.7,0.1,1.6,0.1,2.3v8.9c0,0.7,0,1.5-0.1,2.3L154.4,27.8
		L154.4,27.8z M159.5,27.8c-0.1-0.7-0.1-1.5-0.1-2.3v-8.9c0-0.7,0-1.5,0.1-2.3h-2.9c0.1,0.7,0.1,1.6,0.1,2.3v8.9
		c0,0.7,0,1.5-0.1,2.3H159.5z M175.2,14.4c-0.1,0.7-0.1,1.6-0.1,2.3V28h-0.4l-9.4-9.7v7.2c0,0.7,0,1.5,0.1,2.3h-2.5
		c0.1-0.7,0.1-1.5,0.1-2.3V16l-1.4-1.4v-0.2h3.5l7.8,8.1v-5.8c0-0.7,0-1.5-0.1-2.3L175.2,14.4z M187.5,27.8l0.6-2.4l-0.1-0.1
		c-0.7,0.4-1.6,0.6-2.7,0.6h-4.4v-4.3h3.5c0.9,0,1.6,0.1,2.4,0.3l0.5-2h-6.4v-3.7h3.8c1,0,1.9,0.1,2.7,0.3l0.5-2.2H178
		c0.1,0.7,0.1,1.6,0.1,2.3v8.9c0,0.7,0,1.5-0.1,2.3L187.5,27.8L187.5,27.8z M198.8,17.3c-0.9-0.8-2.5-1.3-3.9-1.3
		c-1.9,0-2.9,0.6-2.9,1.5c0,1,1.3,1.6,3.7,2.6c3.5,1.5,4.3,2.4,4.3,4.2c0,2.3-2.3,3.9-5.6,3.9c-1.9,0-3.9-0.7-5.1-1.5l0.5-2.5h0.2
		c0.9,1.2,2.8,1.9,4.4,1.9c1.8,0,3-0.7,3-1.7c0-1-1-1.4-3.7-2.5c-3.1-1.3-4.3-2.3-4.3-4.3c0-2,1.8-3.6,5.6-3.6
		c1.5,0,3.4,0.5,4.5,1.1l-0.5,2.2L198.8,17.3z"/>
	
		<radialGradient id="SVGID_1_" cx="-748.9717" cy="-120.6533" r="1.0239" gradientTransform="matrix(15.6279 0 0 -15.6279 11724.4404 -1870.74)" gradientUnits="userSpaceOnUse">
		<stop  offset="0" style="stop-color:#FFFFFF"/>
		<stop  offset="6.750000e-02" style="stop-color:#FFFFFF"/>
		<stop  offset="0.1978" style="stop-color:#F7EDEF"/>
		<stop  offset="0.3804" style="stop-color:#E9D2D8"/>
		<stop  offset="0.6619" style="stop-color:#CA949A"/>
		<stop  offset="0.8889" style="stop-color:#B76773"/>
		<stop  offset="1" style="stop-color:#B15766"/>
	</radialGradient>
	<path class="st3" d="M35.4,8.8c-0.6-0.3-1-0.9-1.6-1.2c-0.5-0.2-1.4-0.4-2-0.5C31,7,30.4,7,29.7,6.8c-0.6-0.2-1.3-0.2-2-0.1
		c-0.7,0.1-1.3,0.4-1.5-0.5c-0.1-0.6,0.1-1.4,0-2c-0.2-1-0.8-2.7-1.7-3.2c-0.6-0.3-1.2-0.1-1.9-0.4c-0.5-0.3-0.8-0.4-1.4-0.4
		c-0.1,0-0.2,0-0.4,0c-0.7,0.1-1.1,0.3-1.7,0.2c-0.6-0.1-1.2-0.1-1.9,0.1c-0.6,0.2-0.9,0.7-1.5,1c-0.6,0.3-1.3,0.1-1.8,0.4
		c-1.1,0.7-1,2.3-1.6,3.4c-0.6,1.1-0.3,2.9-1.4,3.8c0,0-0.1,0.1-0.2,0.1c-0.1,0-0.2,0-0.2,0c-0.5,0-2-0.9-2.6-0.9
		c-0.3,0-0.5,0.2-0.8,0.2c-0.2,0-0.3,0-0.4,0c-0.1,0-0.3,0-0.4,0c-0.5,0-1,0.2-1.4,0.4C4.5,9.1,4.2,9.3,3.8,9.7
		c-0.4,0.5-0.4,0.6-0.6,1.2c-0.5,1.2-1.1,1.7-0.9,3c0.2,1.2,1,2.4,1.7,3.4c0.8,1.2,2.3,1.3,3.4,2.3c0.4,0.4,0.8,0.8,1.2,1.2
		c0.3,0.3,1.3,1.3,1.4,1.7c0,0.3-0.5,1.6-0.7,1.9c-0.3,0.7-0.7,0.9-0.3,1.8c0.5,1,2,1.7,2.8,2.4c1.1,1,2.9,0.6,4.3,0.4
		c1.5-0.2,2.8-0.4,3.9-1.6c0.6-0.6,0.8-1.2,1.8-0.9c0.7,0.2,1,0.8,1.8,0.9c0.8,0.1,1.4,0.1,2.1,0.3c0.8,0.3,1,0.6,1.8,0.3
		c1-0.4,2.8-0.8,3.6-1.9c0.2-0.3,0.2-0.7,0.3-1c0.1-0.2,0.5-0.6,0.6-0.7c0.2-0.4,0.2-1.6,0.1-2.1c-0.1-0.3-0.5-0.5-0.6-0.7
		c-0.1-0.3,0-0.7-0.1-1c-0.3-0.8-1-1.6-0.5-1.9c0.1,0,1.2,0,1.8-0.4c1.1-0.7,1.5-2,2.4-2.9c0.5-0.5,1-0.7,1.3-1.5
		c0.2-0.6,0.4-1.3,0.6-2C37.2,10.3,36.7,9.5,35.4,8.8z"/>
	<path class="st4" d="M21.3,0c0.4,0,0.6,0.2,0.8,0.3c0.5,0.2,0.8,0.4,1.4,0.5c0.3,0,0.7,0,1,0.2c1.1,0.5,1.7,2.3,1.8,3.3
		c0.1,0.3,0,0.7,0,1c0,0.3-0.1,0.7,0,1c0.1,0.5,0.3,0.5,0.4,0.5h0c0.1,0,0.3,0,0.5-0.1c0.1,0,0.2-0.1,0.4-0.1c0.3,0,0.6-0.1,0.9-0.1
		c0.4,0,0.8,0,1.2,0.1c0.4,0.1,0.8,0.1,1.2,0.2c0.3,0,0.6,0.1,0.9,0.1c0.3,0.1,1.4,0.3,2,0.5c0.3,0.1,0.6,0.4,0.9,0.6
		c0.2,0.2,0.4,0.4,0.7,0.5c1.5,0.8,2,1.8,1.5,3.3c0,0.2-0.1,0.3-0.1,0.5c-0.1,0.5-0.3,1.1-0.5,1.6c-0.2,0.6-0.6,0.9-0.9,1.2
		c-0.1,0.1-0.2,0.2-0.4,0.3c-0.4,0.3-0.6,0.8-0.9,1.2c-0.4,0.6-0.8,1.3-1.5,1.7c-0.6,0.3-1,0.4-1.6,0.4c0,0-0.1,0-0.1,0
		c-0.3,0.1,0,0.7,0.2,1c0.1,0.2,0.2,0.4,0.3,0.6c0.1,0.2,0.1,0.4,0.1,0.6c0,0.2,0,0.3,0.1,0.5c0,0.1,0.1,0.1,0.2,0.2
		c0.1,0.1,0.3,0.3,0.4,0.5c0.2,0.6,0.1,1.8-0.1,2.3c0,0.1-0.2,0.2-0.3,0.4c-0.1,0.1-0.2,0.3-0.3,0.3c-0.1,0.1-0.1,0.2-0.1,0.4
		c0,0.2-0.1,0.5-0.2,0.7c-0.6,0.9-1.9,1.3-2.9,1.7c-0.3,0.1-0.5,0.2-0.7,0.3c-0.3,0.1-0.5,0.2-0.7,0.2c-0.3,0-0.5-0.1-0.8-0.2
		c-0.1-0.1-0.3-0.1-0.4-0.2c-0.4-0.2-0.8-0.2-1.3-0.2c-0.2,0-0.5,0-0.7-0.1c-0.5-0.1-0.8-0.3-1.1-0.5c0,0-0.1-0.1-0.1-0.1h0
		c-0.4,0-0.8-0.1-1-0.3c-0.5,0.7-1.2,1.2-2.3,1.7c-0.7,0.4-1.5,0.6-2.1,0.7c-0.2,0.1-0.3,0.1-0.5,0.1c-0.6,0.2-1.2,0.3-1.9,0.3
		c-0.2,0-0.5,0-0.7,0c-0.8,0-1.5-0.2-2-0.6c-0.6-0.3-1.1-0.6-1.5-1.1C9.7,27.5,9,27,8.7,26.3c-0.4-0.8-0.2-1.1,0.1-1.6
		c0.1-0.1,0.1-0.3,0.2-0.4c0,0,0-0.1,0.1-0.1c0.4-1,0.6-1.4,0.6-1.6c-0.5-0.1-0.9-0.6-1.3-1.3c-0.2-0.4-0.4-0.8-0.6-1
		c-0.1-0.1-0.2-0.2-0.3-0.4c-0.1-0.1-0.2-0.2-0.2-0.2c-0.4-0.4-1-0.7-1.5-1c-0.5-0.2-1-0.5-1.4-0.8C4,17.7,3.7,17.4,3.5,17
		c-0.6-1-1.2-2-1.4-3c-0.2-1,0.1-1.6,0.4-2.2c0.1-0.2,0.2-0.4,0.3-0.6C2.9,11,2.9,10.9,3,10.8c0.1-0.2,0.1-0.3,0.2-0.4
		c0.1-0.3,0.2-0.5,0.5-0.8C4,9.2,4.4,8.9,4.8,8.7c0.5-0.2,1-0.4,1.5-0.4c0,0,0.3,0,0.4,0c0.1,0,0.2,0,0.3,0c0,0,0,0,0.1,0
		c0.1,0,0.2-0.1,0.3-0.1c0.1-0.1,0.3-0.1,0.5-0.1h0c0.5,0,2.1,0.9,2.6,0.9c0,0,0.1,0,0.2,0c0.1,0,0.1-0.1,0.1-0.1
		c0.2-0.2,0.4-0.4,0.5-0.7c0,0,0-0.1,0-0.1l0,0c0-0.1,0-0.1,0.1-0.2l0,0c0-0.1,0-0.1,0.1-0.2c0.1-0.3,0.2-0.7,0.2-1
		c0-0.1,0-0.2,0.1-0.3l0-0.1l0-0.1c0,0,0-0.1,0-0.1c0,0,0-0.1,0-0.1l0,0c0,0,0,0,0-0.1l0,0c0,0,0-0.1,0-0.1l0,0c0,0,0-0.1,0-0.1l0,0
		c0,0,0-0.1,0-0.1v0c0,0,0-0.1,0-0.1l0,0c0,0,0-0.1,0-0.1l0,0c0,0,0-0.1,0-0.1l0,0c0,0,0-0.1,0-0.1v0c0,0,0,0,0-0.1l0,0
		c0,0,0-0.1,0-0.1c0.2-0.3,0.3-0.8,0.4-1.2c0.2-0.9,0.5-1.8,1.2-2.2c0.3-0.2,0.7-0.2,1-0.3c0.3,0,0.6-0.1,0.8-0.2
		c0.2-0.1,0.4-0.3,0.6-0.4c0.3-0.2,0.5-0.5,0.9-0.6c0,0,0.1,0,0.1,0l0,0c0,0,0.1,0,0.1,0l0,0c0,0,0.1,0,0.1,0l0,0c0,0,0.1,0,0.1,0
		l0,0c0,0,0.1,0,0.1,0l0,0c0,0,0.1,0,0.1,0c0,0,0,0,0,0c0,0,0,0,0.1,0c0,0,0,0,0.1,0c0,0,0,0,0.1,0h0.1h0.1h0h0.1h0
		c0.1,0,0.3,0,0.4,0h0c0.1,0,0.1,0,0.2,0l0,0c0.1,0,0.1,0,0.2,0c0.1,0,0.2,0,0.4,0c0.3,0,0.6-0.1,1-0.1C20.8,0.1,21.1,0,21.3,0"/>
	
		<radialGradient id="SVGID_2_" cx="-738.493" cy="-128.2472" r="1.0258" gradientTransform="matrix(12.0161 0 0 -12.0161 8891.9834 -1538.8367)" gradientUnits="userSpaceOnUse">
		<stop  offset="0" style="stop-color:#B15766"/>
		<stop  offset="0.2086" style="stop-color:#B15766"/>
		<stop  offset="0.298" style="stop-color:#B25C6A"/>
		<stop  offset="0.4185" style="stop-color:#B96B76"/>
		<stop  offset="0.5569" style="stop-color:#C3838B"/>
		<stop  offset="0.7085" style="stop-color:#D3A6AB"/>
		<stop  offset="0.8693" style="stop-color:#E9D2D7"/>
		<stop  offset="0.8712" style="stop-color:#E9D2D8"/>
		<stop  offset="1" style="stop-color:#E9D2D8"/>
	</radialGradient>
	<path class="st5" d="M12.7,10.7l0,0.2c0.8,2.7,5.6,2,6.9,1c0.7-0.5,2-1,2.5-1.6c0.5-0.6,2-1.1,2.3-1.7c0.6-1,1.3-2.3,1.3-3.2
		c-0.2-2.8-1.9-4.1-3.2-4.7c-0.6-0.3-0.8-0.5-1.4-0.5c0,0-0.1,0-0.1,0c-0.1,0-0.2,0-0.3,0c-0.7,0.1-1.1,0.2-1.7,0.2
		c-0.1,0-0.5,0-0.7,0c-0.4,0-0.8,0-1.2,0.2c-0.6,0.2-0.9,0.7-1.5,1c-0.6,0.3-1.3,0.1-1.8,0.4c-1.1,0.7-1,2.3-1.6,3.4
		c-0.4,0.9-0.4,2.1-0.8,3c0,0.3,0.1,0.7,0.2,1C11.9,9.8,12.9,9.7,12.7,10.7z"/>
	
		<radialGradient id="SVGID_3_" cx="-743.0643" cy="-126.3871" r="1.0244" gradientTransform="matrix(13.3773 0 0 -12.7366 9959.9004 -1605.202)" gradientUnits="userSpaceOnUse">
		<stop  offset="0" style="stop-color:#B15766"/>
		<stop  offset="9.560000e-02" style="stop-color:#B15B69"/>
		<stop  offset="0.2053" style="stop-color:#B76672"/>
		<stop  offset="0.3219" style="stop-color:#BF7B83"/>
		<stop  offset="0.4434" style="stop-color:#CC979D"/>
		<stop  offset="0.5675" style="stop-color:#DDBABF"/>
		<stop  offset="0.638" style="stop-color:#E9D2D8"/>
		<stop  offset="0.7246" style="stop-color:#ECD7DC"/>
		<stop  offset="0.837" style="stop-color:#F1E4E6"/>
		<stop  offset="0.9631" style="stop-color:#FDFAFA"/>
		<stop  offset="1" style="stop-color:#FFFFFF"/>
	</radialGradient>
	<path class="st6" d="M21.3,0.6c-0.7,0.1-1.1,0.3-1.8,0.2c-0.1,0-0.6,0-0.7,0c-0.4,0-0.8,0-1.3,0.2c-0.6,0.2-1,0.7-1.5,1
		c-0.6,0.3-1.3,0.1-1.9,0.5c-0.6,0.4-1.3,1.7-1.5,3.3c-0.1,0.5,0.3,1.1,0.2,1.7c-0.3,2.7,0.4,2.1,1,3.1c1.1,2,1,2.6,0.4,2.5
		c0.6,0.7,1.1,1.6,0.7,2.2c1.8,0.4,4.1-0.1,5-0.8c0.7-0.6,1.7-1.1,2.3-1.8C22.7,12,23.6,10,24,9.4c0.6-1,1.3-1.2,1.8-3.1
		c0.8-3.1-0.8-4.5-2.5-5.2c-0.5-0.2-1.2-0.5-1.6-0.5c0,0,0,0-0.1,0C21.5,0.5,21.4,0.6,21.3,0.6z"/>
	
		<radialGradient id="SVGID_4_" cx="-721.1591" cy="-140.9222" r="1.024" gradientTransform="matrix(8.6989 0 0 -8.6989 6287.647 -1206.3657)" gradientUnits="userSpaceOnUse">
		<stop  offset="0" style="stop-color:#FFFFFF"/>
		<stop  offset="0.1712" style="stop-color:#F7EDEF"/>
		<stop  offset="0.411" style="stop-color:#E9D2D8"/>
		<stop  offset="0.6787" style="stop-color:#CA949A"/>
		<stop  offset="0.8944" style="stop-color:#B76773"/>
		<stop  offset="1" style="stop-color:#B15766"/>
	</radialGradient>
	<path class="st7" d="M19.5,17.2c-0.2,0-0.4,0-0.6,0.1c-1.1,0.3-3.1,0-4.1,0.7c-0.9,0.6-1.7,1.4-2.1,2.4c-1,1.1-2.1,2.1-2.7,3
		c-0.7,1-0.8,2.5-0.4,3.4c1.2,2.4,4.3,3.2,6.7,2.5c2.3-0.5,5.1-1.2,5.4-4.2c0.2-1.5,0.6-3.1,0.1-4.4C21.4,19.4,21.3,17.2,19.5,17.2z
		"/>
	
		<radialGradient id="SVGID_5_" cx="-734.5101" cy="-131.2057" r="1.0247" gradientTransform="matrix(11.0578 0 0 -11.0578 8136.4614 -1433.8969)" gradientUnits="userSpaceOnUse">
		<stop  offset="0" style="stop-color:#FFFFFF"/>
		<stop  offset="6.750000e-02" style="stop-color:#FFFFFF"/>
		<stop  offset="0.2183" style="stop-color:#F7EDEF"/>
		<stop  offset="0.4294" style="stop-color:#E9D2D8"/>
		<stop  offset="0.6887" style="stop-color:#CA949A"/>
		<stop  offset="0.8977" style="stop-color:#B76773"/>
		<stop  offset="1" style="stop-color:#B15766"/>
	</radialGradient>
	<path class="st8" d="M2.3,13.5c0,1.1,0.9,2.3,1.3,3.2c0.7,1.4,1.3,1.4,2.6,2.1c1,0.6,1.7,1.2,2.3,2.3c1.5,2.9,3.2,0.2,4.5-0.9
		c1-0.8,1.6-2.6,1.3-3.8c-0.2-0.8-0.9-2.1-1.6-2.6l0.4,0.3c-0.6-0.6-0.1-1.2-0.4-1.9c-0.2-0.6-0.6-1.3-0.9-2c-0.5-1-1-0.7-1.5-0.5
		c-0.3,0.1-0.5,0.3-0.7,0.2C9,9.9,8.1,9.7,7.6,9.4C7.2,9.3,6.7,9.2,6.3,9.2C4.2,9.2,2.3,11.2,2.3,13.5z"/>
	
		<radialGradient id="SVGID_6_" cx="-759.2725" cy="-113.1329" r="1.0235" gradientTransform="matrix(22.1936 0 0 -22.1936 16892.3574 -2504.061)" gradientUnits="userSpaceOnUse">
		<stop  offset="0" style="stop-color:#B15766"/>
		<stop  offset="0.3067" style="stop-color:#B15766"/>
		<stop  offset="0.368" style="stop-color:#B35F6C"/>
		<stop  offset="0.4741" style="stop-color:#BE7981"/>
		<stop  offset="0.6125" style="stop-color:#D0A1A6"/>
		<stop  offset="0.7607" style="stop-color:#E9D2D8"/>
		<stop  offset="1" style="stop-color:#E9D2D8"/>
	</radialGradient>
	<path class="st9" d="M25.3,8c-0.5,0.4-0.8,1.4-1.3,1.7c-1.2,0.5-1.2,0.8-1.8,1.8c-0.5,0.8-1.2,2-1.7,2.9c0,0.4,0,0.7,0.1,1
		c0.1,0.6,0.8,1.5,0.7,2l0-0.2c0.5,2.9,6.4,3.8,5.3,2.3c-2.8-3.6,1.6-5.4,2.1-4.7c3.4,4.2,4.8,1.7,5.1,1.3c0.7-1,1.2-1.9,1.4-2.9
		c1.1-6-2.3-5.2-4.2-6c-0.1,0-0.2,0-0.3,0c-0.7,0-1.1,0.1-1.8,0c-0.1,0-0.2-0.1-0.3-0.1c-0.1,0-0.2,0-0.3-0.1
		c-0.2,0-0.4-0.1-0.7-0.1c-0.2,0-0.4,0-0.6,0C26.4,7.3,25.8,7.7,25.3,8z"/>
	
		<radialGradient id="SVGID_7_" cx="-736.7168" cy="-129.5785" r="1.0254" gradientTransform="matrix(11.5694 0 0 -11.5694 8543.6816 -1481.6984)" gradientUnits="userSpaceOnUse">
		<stop  offset="0" style="stop-color:#FFFFFF"/>
		<stop  offset="9.200000e-02" style="stop-color:#FFFFFF"/>
		<stop  offset="0.2096" style="stop-color:#F7EDEF"/>
		<stop  offset="0.3742" style="stop-color:#E9D2D8"/>
		<stop  offset="0.4169" style="stop-color:#DEBFC4"/>
		<stop  offset="0.5149" style="stop-color:#CD9AA0"/>
		<stop  offset="0.61" style="stop-color:#C07C84"/>
		<stop  offset="0.7001" style="stop-color:#B76773"/>
		<stop  offset="0.7833" style="stop-color:#B25B6A"/>
		<stop  offset="0.8528" style="stop-color:#B15766"/>
		<stop  offset="1" style="stop-color:#B15766"/>
	</radialGradient>
	<path class="st10" d="M24.8,8.6C24.6,9,24.4,9.2,24,9.5c-0.3,0.2-0.6,0.3-0.8,0.5c-0.2,0.3-0.4,0.5-0.6,0.8
		c-0.4,0.5-1.1,0.7-1.8,0.7c-0.2,0-0.3,0-0.5,0c-0.9,0.6-1.9,0.9-2.8,0.7c-0.5-0.1-1.2-1.1-1.8-1c-0.5,0.1,0.3,0.3-0.1,0.8
		c-0.5,0.5-1,0.1-1.4-0.3c-0.3-0.3-0.5-0.6-0.5-0.5c-0.1,0,0,0.3,0,0.5c0,0.3-0.3,0.5-0.3,0.8c0,0.3,0,0.5,0,0.6
		c0,0.2,0.1,0.4,0.1,0.7c0,0.5,0,0.3,0,0.9c0,1-0.5,1.4-0.7,2.4c-0.3,1.1,0.9,1.7-0.5,3.7c-0.5,0.7-2.5,1.6-2.4,2.4
		c0.6-0.1,0.9-0.7,1.3-1.2c1-1,3.6-2,5.2-2.1c1.6-0.1,0.1,1.7,0.5,2.1c0.4,0.3-0.4,1.3,0.1,1.1c0.5-0.3,1.2-2.6,1.5-3.2
		c0.2-0.4,2.8-6.4,2.8,2.7c0,0.9,0.5,1.3,0.3,2.1c-0.1,0.4-1.6,2.6,0.9,2.3c0.3-1.9-1.1-3.2-0.4-4.1c0.4-0.5,1.8-0.6,1.7-1.2
		c-0.1-1.4,0.6-1.4,1.2-1.3c0.4,0,0.7,0,0.9-0.3c0.2-0.5,0.4-0.7,0.4-0.7c0,0-0.1,0-0.1-0.2c-0.1-0.6,0.5-0.6,0.2-1.2
		c0.6,0.1,0.8-0.4,1.2-0.6c0.3-0.1,1-0.1,1.4,0c0.8,0.1,1.2,1.5,1.4,1.4c0.2-0.3-0.3-1-0.7-1.4c-0.3-0.3-0.8-1-1-1.3
		c-0.4-0.5-0.1-1.3-0.8-1.6c-0.2-0.1-0.3-0.1-0.5,0c-0.3,0.1-0.6,0.1-1.2-0.3c-3.2,2.3-0.5-1.2-0.7-2c-0.4-1.1-1.3-1.4-0.4-3.9
		c0,0,0,0,0,0c0,0,0,0,0,0C25.1,8.2,24.9,8.4,24.8,8.6z"/>
	<path class="st1" d="M15,19.6c-0.3-0.2,0-1.1,0.4-1.5c0.4-0.4,1-1.1,0.9-1.2c-0.2-0.1-0.9,0.1-1.1,0c-0.2-0.1,1.2-0.6,1.4-0.7
		c0.2-0.1-1-0.4-1.5-0.5c-0.4-0.1-1.3,0.1-1.2-0.1c0.1-0.2,0.6-0.4,0.7-0.5c0.1-0.1-0.7-0.5-0.7-0.7c-0.1-0.2,0.2-0.4,1-0.2
		c0.8,0.2,1.5,0.1,1.8,0.2c0.3,0.1,0.5,0.2,0.7,0.2c0.1,0.1,0.2-0.2,0.3-0.2c0.1,0,0.4,0.2,0.4,0c0-0.2-0.1-0.5-0.3-0.7
		c-0.2-0.2-0.6-0.6-0.6-0.7c0-0.1-0.2-0.5,0-0.6c0.2-0.1,0.4,0,0.5-0.1c0.1,0,0.3-0.3,0.6-0.2c0.3,0.1,0.4,0.2,0.5,0.3
		c0.1,0.1,0.3,0.1,0.4,0.1c0.1,0,0.4-0.3,0.6-0.2c0.3,0.2,0.7,0.5,1.1,0.4c0.4-0.1,0.6-0.3,0.8-0.5c0.1-0.2,0.5-1,0.6-1.2
		c0.1-0.1,0.5-0.4,0.5-0.3c-0.1,0.1-0.4,0.9-0.4,1.3c0,0.4-0.1,0.5,0.1,0.6c0.1,0.1,0.3,0.1,0.4,0c0.1-0.1,0.4-0.2,0.4-0.1
		c0,0.1-0.8,0.7-1.1,0.9c-0.3,0.2-0.5,0.7-0.4,0.9c0.1,0.2,0.6,0.1,0.9,0.1c0.2,0,0.8,0,0.7,0.2c-0.1,0.1-0.9,0.7-0.9,0.8
		c0,0.1,0.5,0.3,0.8,0.3c0.3,0,1,0.1,1.3,0.2c0.3,0.1,0.5,0.1,0.6,0.2c0.1,0.2,0.1,0.3,0,0.3c-0.1,0-0.7-0.1-0.9-0.2
		c-0.2-0.1-1.2-0.3-1.5-0.3c-0.2,0-0.9,0-1,0.2c-0.1,0.2,0.4,0.4,0.5,0.5c0.1,0.1,0.5,0.5,0.3,0.6c-0.3,0-0.5-0.1-0.6-0.2
		c-0.1,0-0.5-0.3-0.6-0.4c-0.1-0.1-0.5-0.5-0.7-0.5c-0.2,0-0.6,0.1-0.9,0.3c-0.2,0.2-0.5,0.5-0.7,0.6c-0.1,0.2-0.7,0.5-1,0.7
		c-0.2,0.2-1.6,1.3-1.8,1.4C15.9,19.5,15.3,19.8,15,19.6"/>
	<path class="st0" d="M18.9,11.6c-0.1-0.1-0.1-0.5,0-0.7c0.1-0.2,0.6-1.2,1.2-1c0.2,0.1,0.4,0.2,0.5,0.4c0.1,0.4,0.1,1.1-0.2,1.4
		C19.9,12.2,19.1,12,18.9,11.6"/>
	<path class="st0" d="M16.1,12.9c0.2,0,0.4-0.2,0.4-0.4c0.1-0.2,0.5-0.2,0.5-0.3c0-0.1-0.5-1.2-0.7-1.4c-0.3-0.1-0.4,0.1-0.7,0.1
		c-0.2,0-0.4-0.1-0.5,0.1c-0.2,0.4-0.6,0.8-0.3,1.2C15.1,12.6,15.6,13,16.1,12.9"/>
	<path class="st0" d="M22.7,13.8c-0.1,0.1-0.3,0.2-0.4,0c0.4-0.4,0.6-0.6,1.1-0.9c0.2-0.2,0-0.9,0.1-1.1c0.1-0.2,0.8-0.7,1.1-0.6
		c0.2,0.1,0.3,0.1,0.4,0.3c0.2,0.3,0.2,0.7,0.2,0.9c0,0.3-0.1,0.5-0.2,0.8c-0.1,0.3-0.6,0.2-0.8,0.2c-0.3,0-0.6-0.2-0.8,0
		C23.3,13.6,22.9,13.7,22.7,13.8"/>
	<path class="st0" d="M19.5,14.8c0.1-0.2,0-0.4,0-0.6c0-0.1,0.1-0.4-0.1-0.5C19.4,14.1,19.3,14.5,19.5,14.8
		C19.5,14.9,19.5,14.8,19.5,14.8"/>
	<path class="st0" d="M13,15.8c0.4-0.5,0.8-0.7,1.3-0.8c0-0.1-0.1-0.1-0.2-0.1c-0.3-0.1-0.6-0.3-0.8-0.5c-0.4-0.5-0.7-0.9-1.4-0.7
		c-0.7,0.2-0.8,1.4-0.6,2C11.6,16.3,12.5,16.4,13,15.8"/>
	<path class="st0" d="M27.4,14.9c0.8-0.3,1.4,0.1,1,0.7c-0.2,0.3-0.1,0.7-0.3,1c-0.2,0.3-0.6,0.4-0.9,0.3c-0.3-0.1-0.7-0.3-0.9-0.5
		C26,16.2,26,16,25.6,15.9c-0.6-0.2-1.3,0-1.9-0.2c0.7-0.3,1.5,0,2.2,0C26.2,15.6,26.4,15.1,27.4,14.9"/>
	<path class="st0" d="M23.7,15.6c-0.2-0.1-0.4-0.1-0.5,0C23.3,15.6,23.6,15.7,23.7,15.6"/>
	<path class="st0" d="M14.5,17.8c-0.7-0.8-2.1,0.7-2.2,0.8c-0.1,0.1-0.4,0.3-0.4,0.4c-0.1,0.3,0.7,0.8,0.9,0.9
		c0.3,0.2,0.6,0.6,1,0.3c0.4-0.3,0.5-0.6,0.6-1.1c0.1-0.4,0.3-0.9,0.6-1.2c0.3-0.3,0.7-0.5,1-0.9C15.2,17.1,14.9,17.6,14.5,17.8"/>
	<path class="st0" d="M24.7,14.3c-0.1-0.5-1.1,0-1.3,0c0.3,0.1,0.6,0,1,0.1C24.5,14.4,24.7,14.4,24.7,14.3"/>
	<path class="st0" d="M20.7,17.3c0.3,0.1,0.4,0.5,0.6,0.7c0.2,0.1,0.6,0.3,0.8,0.5c0.1,0.1,0.3,0.5,0.1,0.6
		c-0.3,0.1-0.4-0.4-0.6,0.1c-0.2,0.5-0.7,0.7-0.9,1.2c-0.1,0.4-0.3,0.8-0.1,1.2c0.1,0.1,0.2,0.2,0.3,0.2c0.3,0,0.3,0,0.6,0.2
		c0.3,0.2,0.5,0.3,0.9,0.1c0.3-0.1,0.6-0.4,0.6-0.7c0-0.4-0.2-0.8-0.2-1.1s0.2-0.6,0-1c-0.2-0.3-0.3-0.5-0.6-0.7
		C22,18.3,22,18,21.8,17.8c-0.2-0.3-0.7-0.8-0.9-0.9c-0.2-0.2-0.3-0.3-0.6-0.3c-0.3,0-0.6,0.3-0.8,0.5c-0.2,0.3-0.6,0.5-0.8,0.7
		c-0.3,0.3-0.2,0.7-0.4,1c-0.1,0.3-0.3,0.6-0.4,0.9c0.2-0.1,0.3-0.4,0.4-0.6c0.1-0.1,0.2-0.3,0.3-0.4c0.1-0.1,0.3-0.1,0.4-0.2
		c0.3-0.3,0.4-0.7,0.6-1.1C19.8,17.2,20.4,17.1,20.7,17.3"/>
	<path class="st0" d="M26.9,20.5c0-0.2-0.1-0.4,0-0.6c0.1-0.3,0-0.5-0.1-0.7c-0.1-0.3-0.6-0.9-1-0.7c-0.1,0.1-0.3,0.2-0.4,0.1
		c-0.2-0.1-0.3-0.3-0.5-0.4c-0.2-0.1-0.5-0.1-0.7-0.2C24,18,23.9,18,23.7,18c0.1,0.3,0.7,0.5,0.9,0.7c0.6,0.5,0.3,1,0.3,1.6
		c0,0.2-0.1,0.4,0.1,0.6c0.1,0.2,0.6,0.2,0.7,0.3c0.1,0,0.6,0.2,0.9,0.1C26.7,21.1,27,20.7,26.9,20.5"/>
	<path class="st0" d="M20.8,25.9c0.2,0,0.4,0.1,0.8,0.3c0.4,0.1,0.7,0.2,1,0.2c0.3,0,0.8,0.4,0.9,0.5c0.1,0.2,0.2,0.7,0,1
		c-0.2,0.3-0.5,0.7-0.3,1.4c0.2,0.7,0.4,0.9-0.1,0.9c-0.5,0-0.9-0.2-1.1-0.3c-0.3-0.1-0.7-0.1-1-0.5c-0.3-0.4-0.5-0.3-1-0.6
		c-0.5-0.3-0.8-1-0.6-1.2c0.3-0.3,1-1,1.1-1.1C20.6,26.4,20.7,25.9,20.8,25.9"/>
	<path class="st0" d="M30.8,21.9c0-0.2,0.4-0.4,0.4-0.5c0-0.1,0-0.7,0-1c-0.1-0.3-0.1-0.5,0.1-0.7c0.2-0.1,0.7-0.3,1-0.2
		c0.3,0.1,0.6,0.3,0.9,0.4c0.3,0.1,1,0.5,1.2,0.8c0.1,0.3,0.3,0.6,0.1,0.9c-0.2,0.3-0.2,0.5-0.4,0.6c-0.1,0.1-0.5,0.4-0.7,0.7
		c-0.2,0.3-0.4,0.8-0.6,1c-0.3,0.1-0.8,0.3-0.9,0.1c-0.1-0.2-0.2-0.6-0.2-0.7c0-0.2,0.4-0.4,0.3-0.7c-0.1-0.3-0.3-0.3-0.6-0.4
		C31,22.2,30.8,22.1,30.8,21.9"/>
	<path class="st0" d="M7.2,24.2C7.1,24,6.9,23.9,7,23.8c0.1-0.1,0.2-0.5,0.3-0.7c0-0.2,0-0.8,0-1c0-0.2,0.1-0.4,0.1-0.6
		c0-0.2,0-0.5,0.3-0.6c0.3-0.1,0.6-0.1,0.9,0c0.3,0,0.8,0.2,0.9,0.5c0.1,0.3,0.2,0.6,0.4,0.7c0.2,0.1,0.7,0.3,0.7,0.4
		c0,0.1-0.1,0.2-0.3,0.5c-0.2,0.3-0.2,1.1-0.2,1.3s0,0.8-0.2,0.9c-0.2,0.1-0.5,0-0.8-0.1c-0.3-0.1-0.7-0.3-0.9-0.5
		C8,24.4,8,24.3,7.9,24.2C7.8,24.2,7.3,24.3,7.2,24.2"/>
	<path class="st0" d="M18.2,21.2c0.1,0.1,0.2,0.5,0.2,0.6c0,0.2,0,0.6-0.2,0.7c-0.1,0.2-0.5,0.4-0.6,0.4c-0.1,0-0.5,0.2-0.7,0
		c-0.1-0.1-0.4-0.3-0.5-0.5c-0.1-0.2-0.2-0.9,0.2-1.3c0.2-0.2,0.5-0.2,0.7-0.4c0.2-0.2,0.4-0.3,0.6-0.5c0,0.2-0.1,0.4,0,0.6
		C17.9,21.1,18.1,21.1,18.2,21.2"/>
	<path class="st0" d="M22.8,16.7c-0.3,0-0.4-0.1-0.6-0.1c0.2,0.2,0.6,0.2,0.8,0.3c0.1,0,0.2,0.1,0.3,0.2c0.3,0.2,0.8,0.3,0.9,0.4
		c0.1,0.1,0.6,0.3,0.9,0.2c0.1,0,0.3-0.1,0.3-0.2c-0.2-0.4-0.8-0.3-1.2-0.5c-0.1-0.1-0.1-0.2-0.3-0.2c-0.2,0-0.4,0-0.5-0.1
		C23.2,16.6,23,16.7,22.8,16.7"/>
	<path class="st0" d="M19.8,12.6c0,0,0,0.1,0,0.3c0,0.2-0.1,0.6,0,0.9c0,0,0.1-0.1,0.1-0.4c0-0.3,0-0.3,0-0.4
		C19.9,12.9,19.8,12.6,19.8,12.6"/>
	<path class="st0" d="M18.6,16.1c0.1,0.1,0,0.4-0.1,0.5c-0.1,0.1-0.3,0.2-0.6,0.6c-0.3,0.4-0.7,0.8-0.8,0.9
		c-0.1,0.1-0.3,0.4-0.4,0.4c-0.1-0.1,0.2-0.5,0.2-0.6c0.1-0.1,0.4-0.6,0.5-0.7c0.1-0.1,0.7-0.6,0.7-0.7c0-0.1-0.2-0.1-0.3,0
		c-0.1,0-0.6,0.2-0.7,0.2c-0.1,0-0.3-0.1-0.1-0.2c0.2-0.2,0.2-0.2,0.3-0.2c0.1,0,0.4,0,0.4-0.1c0.1-0.1,0.1-0.3,0-0.3
		c-0.1,0-0.1,0-0.2,0s-1-0.2-1.2-0.2c-0.2,0-1.1-0.3-1.2-0.3c-0.2,0-0.2-0.1,0.1-0.1s0.7,0.1,0.9,0.1c0.2,0,0.4,0,0.6,0
		c0.2,0,0.7,0.1,0.8,0.1c0.2-0.1,0.4-0.1,0.4-0.2c0-0.1,0.1-0.2,0-0.3c-0.1-0.1-0.5-0.4-0.6-0.6c-0.1-0.2-0.2-0.4-0.3-0.5
		c-0.1-0.1-0.3-0.1-0.4-0.2c-0.1-0.1-0.1-0.4,0-0.4c0.1,0.1,0.5,0.3,0.6,0.3c0.1,0.1,0.2,0.3,0.3,0.4c0.1,0.1,0.4,0.4,0.5,0.5
		c0.1,0.1,0.4,0.2,0.4,0.4c0.4,0,0.5,0,0.7,0c0.3,0,0.6,0,0.7,0.1c0.1,0,0.4,0.2,0.4,0.1c0.1-0.1,0.3-0.6,0.4-0.8
		c0.1-0.1,0.6-0.7,0.7-0.9c0.1-0.1,0.6-0.6,0.7-0.5c0,0,0.2,0.1,0,0.3c-0.2,0.2-0.8,0.7-0.9,0.9c-0.1,0.1-0.4,0.7-0.5,0.8
		c-0.1,0.1-0.2,0.2-0.2,0.3c0,0.1,0.4,0.2,0.5,0.2c0.1,0.1,0.3,0.5,0.1,0.6c-0.1,0.1-0.3,0-0.5-0.1c-0.1-0.1-0.2-0.3-0.3-0.4
		c-0.1-0.1-0.3-0.1-0.6-0.2c-0.3-0.1-0.8-0.1-1-0.1c-0.2,0-0.5,0.2-0.5,0.3C18.3,15.5,18.3,15.8,18.6,16.1"/>
	<path class="st0" d="M19.1,14.5c-0.1,0-0.4-0.3-0.5-0.5c-0.1-0.2-0.3-0.6-0.4-0.7c-0.1-0.1-0.1-0.3-0.2-0.4
		c-0.1-0.1-0.4-0.4-0.3-0.5c0.1-0.1,0.4,0.3,0.5,0.4c0,0.1,0.4,0.5,0.4,0.6c0.1,0.1,0.3,0.5,0.4,0.6C19.1,14.2,19.2,14.5,19.1,14.5"
		/>
</g>
</svg>
