<?xml version="1.0" encoding="utf-8"?>
<!-- Generator: Adobe Illustrator 22.1.0, SVG Export Plug-In . SVG Version: 6.00 Build 0)  -->
<svg version="1.1" id="svg2" xmlns:svg="http://www.w3.org/2000/svg"
	 xmlns="http://www.w3.org/2000/svg" xmlns:xlink="http://www.w3.org/1999/xlink" x="0px" y="0px" width="105.1px" height="23px"
	 viewBox="0 0 105.1 23" style="enable-background:new 0 0 105.1 23;" xml:space="preserve">
<style type="text/css">
	.st0{fill:#00ADEF;}
	.st1{fill:#FFFFFF;stroke:#FFFFFF;stroke-width:0.5554;stroke-miterlimit:3.864;}
	.st2{fill:#FFFFFF;}
	.st3{fill:#ED1C24;}
</style>
<g id="layer1" transform="translate(-80.45782,-233.5702)">
	<g id="g2836" transform="translate(35.377956,35.394501)">
		<path id="path2411" class="st0" d="M140.5,198.2l-22.9,23h23.2l9.4-23H140.5"/>
		<path id="path2415" class="st1" d="M134.5,205.9c0-0.6,0.5-1,1-1c0.6,0,1,0.5,1,1c0,0.6-0.5,1-1,1
			C134.9,206.9,134.5,206.4,134.5,205.9z"/>
		<path id="path2419" class="st2" d="M136.5,205.3c0-0.6,0.5-1,1-1c0.6,0,1,0.5,1,1c0,0.6-0.5,1-1,1
			C137,206.3,136.5,205.9,136.5,205.3z"/>
		<path id="path2423" class="st1" d="M138.6,205.9c0-0.6,0.5-1,1-1c0.6,0,1,0.5,1,1c0,0.6-0.5,1-1,1
			C139.1,206.9,138.6,206.4,138.6,205.9z"/>
		<path id="path2427" class="st1" d="M137.5,216.8c-1.4,0-3.3-1.3-3.3-2.9c0-2.2,0-4,0-4s-0.3,1-1.2,1c-0.9,0-1.5-0.9-1.5-1.5
			c0-0.4,0.3-1.4,1.4-1.8c0.2-0.1,1-0.1,1.2-0.1c0.2,0,0.8-0.2,0.8-0.2s0-0.8,0-0.8c0,0,0.9,0,0.9,0v0.9l0.3,0c0,0,0.5-0.6,0.9-0.6
			c0,0,0-1,0-1h0.4l0.4,0c0,0,0,1,0,1c0.4,0,0.9,0.6,0.9,0.6l0.3,0v-0.9c0,0,0.9,0,0.9,0c0,0,0,0.8,0,0.8c0,0,0.6,0.3,0.8,0.2
			c0.2,0,1.1,0.1,1.2,0.1c1.1,0.4,1.4,1.3,1.4,1.8c0,0.7-0.6,1.5-1.5,1.5c-0.9,0-1.2-1-1.2-1s0,1.8,0,4
			C140.9,215.4,138.9,216.8,137.5,216.8z"/>
		<path id="path2431" class="st3" d="M140.4,207.6c0,0-0.1-0.2-0.6-0.2l0-0.9h-0.5l0,1c0,0-0.5,0-0.8,0.3c-0.5,0.4-0.9,1.1-0.9,1.6
			c0,0.7,0,3.1,0,3.1s0.4,0.3,0.6,0.6c0.3,0.3,0.4,0.7,0.4,0.7h0.3l0-3.8c0,0-0.1-0.4,0.1-0.8c0.1-0.2,0.1-0.5,0.4-0.9
			c0.2-0.2,0.4-0.5,0.9-0.6C140.4,207.6,140.4,207.6,140.4,207.6"/>
		<path id="path2435" class="st3" d="M136.7,207.1c0,0,0.2-0.2,0.6-0.3l0-0.9h0.5l0,0.9c0.3,0,0.7,0.3,0.8,0.6c0,0-0.2,0.1-0.3,0.2
			c-0.4,0.3-0.5,0.8-0.7,1.2c-0.2-0.4-0.4-0.9-0.8-1.2c-0.1-0.1-0.3-0.2-0.3-0.2C136.4,207.4,136.7,207.1,136.7,207.1"/>
		<path id="path2439" class="st3" d="M134.6,207.6c0,0,0.1-0.2,0.6-0.2v-0.9h0.5v1c0,0,0.4,0,0.8,0.3c0.4,0.3,0.9,1,0.9,1.6
			c0,0.7,0,3.1,0,3.1s-0.4,0.3-0.6,0.6c-0.3,0.3-0.4,0.7-0.4,0.7l-0.2-0.2v-3.6c0,0,0.1-0.3-0.1-0.8c-0.1-0.2-0.2-0.6-0.4-0.9
			c-0.2-0.2-0.3-0.5-0.9-0.6C134.7,207.6,134.6,207.6,134.6,207.6"/>
		<path id="path2443" class="st3" d="M136.8,205.3c0-0.4,0.4-0.8,0.8-0.8c0.4,0,0.8,0.4,0.8,0.8s-0.4,0.8-0.8,0.8
			C137.1,206.1,136.8,205.7,136.8,205.3"/>
		<path id="path2447" class="st3" d="M138.8,205.9c0-0.4,0.4-0.8,0.8-0.8c0.4,0,0.8,0.4,0.8,0.8c0,0.4-0.4,0.8-0.8,0.8
			C139.2,206.6,138.8,206.3,138.8,205.9"/>
		<path id="path2451" class="st3" d="M135.9,213.4c0,0-0.8-0.6-1.3-0.6c0,0,0-2.7,0-2.9c-0.1-0.6-0.4-0.8-0.4-0.8s-0.4-0.3-0.5-0.2
			c-0.1,0,0.2,0.2,0.2,0.6c0,0.2-0.2,1-1.1,1c-0.9,0.1-1.2-1-0.9-1.7c0.2-0.5,0.8-1.4,2.4-1.1c1,0.2,1.5,1.4,1.5,1.9
			c0,0.4,0,2.8,0,3C135.9,212.7,135.9,213.4,135.9,213.4"/>
		<path id="path2455" class="st3" d="M139.2,213.4c0,0,0.9-0.6,1.3-0.6c0,0,0-2.6,0-3c0-0.5,0.3-0.7,0.3-0.7s0.4-0.3,0.5-0.3
			c0.1,0-0.2,0.2-0.2,0.6c0,0.2,0.2,1,1.1,1c0.9,0.1,1.2-1,0.9-1.7c-0.3-0.5-0.8-1.4-2.4-1.1c-1,0.2-1.5,1.4-1.5,2.1
			c0,0.4,0,2.7,0,2.8C139.2,212.7,139.2,213.4,139.2,213.4"/>
		<path id="path2459" class="st3" d="M134.6,213.1c0,0,1,0.2,1.7,1c0,0,0.6-1.1,1.2-1.4c0.7,0.3,1.2,1.4,1.2,1.4
			c0.6-0.8,1.8-1,1.8-1c0,0.1,0-0.1,0,0c0,1.6-1.3,3.2-2.9,3.2c-1.6,0-2.9-1.3-2.9-2.9C134.6,213.2,134.6,213.2,134.6,213.1"/>
		<path id="path2463" class="st3" d="M134.7,205.9c0-0.4,0.4-0.8,0.8-0.8c0.4,0,0.8,0.4,0.8,0.8c0,0.4-0.4,0.8-0.8,0.8
			C135.1,206.6,134.7,206.3,134.7,205.9"/>
		<path id="path2467" d="M49.6,218.1c-0.3,0.4-0.8,0.6-1.3,0.6c-0.8,0-1.7-0.7-1.7-2.3c0-1.7,0.9-2.5,1.7-2.5c0.5,0,0.9,0.2,1.2,0.7
			h0.1c0-0.3,0.1-0.6,0.2-0.8c-0.3-0.2-1-0.4-1.5-0.4c-1.5,0-2.9,0.9-2.9,3.1c0,1.5,1,2.7,2.7,2.7c0.6,0,1.1-0.1,1.5-0.4
			C49.5,218.7,49.6,218.4,49.6,218.1L49.6,218.1"/>
		<path id="path2471" d="M53.8,216.9c0,0.9,0,1.5-0.1,2.2c0.2,0,0.4,0,0.6,0c0.2,0,0.4,0,0.6,0c0-0.7-0.1-1.3-0.1-2.2v-1.1
			c0-0.9,0-1.5,0.1-2.2c-0.2,0-0.4,0-0.6,0c-0.2,0-0.4,0-0.6,0c0,0.7,0.1,1.3,0.1,2.2c-0.3,0-0.6,0-1.1,0c-0.5,0-0.9,0-1.1,0
			c0-0.9,0-1.5,0.1-2.2c-0.2,0-0.4,0-0.6,0c-0.2,0-0.4,0-0.6,0c0,0.7,0.1,1.3,0.1,2.2v1.1c0,0.9,0,1.5-0.1,2.2c0.2,0,0.4,0,0.6,0
			c0.2,0,0.4,0,0.6,0c0-0.7-0.1-1.3-0.1-2.2v-0.5c0.4,0,0.7,0,1.1,0c0.4,0,0.7,0,1.1,0V216.9"/>
		<path id="path2475" d="M56.1,216.9c0,0.9,0,1.5-0.1,2.2c0.2,0,0.4,0,0.6,0c0.2,0,0.4,0,0.6,0c0-0.7-0.1-1.3-0.1-2.2v-1.1
			c0-0.9,0-1.5,0.1-2.2c-0.2,0-0.4,0-0.6,0c-0.2,0-0.4,0-0.6,0c0,0.7,0.1,1.3,0.1,2.2V216.9"/>
		<path id="path2479" d="M58.5,215.2c0,1.6-0.1,3.7-0.1,4c0.1,0,0.2,0,0.3,0c0.1,0,0.2,0,0.3,0c0-0.3,0-0.7,0-2c0-0.6,0-1.3,0-1.9
			c1.1,1.3,2.2,2.6,3.2,3.9c0.1,0,0.2,0,0.3,0c0.1,0,0.2,0,0.3,0c0-2.1,0-3.2,0.1-5.6c-0.1,0-0.2,0-0.3,0c-0.1,0-0.2,0-0.3,0
			c0.1,0.4,0.1,2.6,0.1,3.8c-1.1-1.3-2.1-2.6-3.1-3.8c-0.1,0-0.2,0-0.3,0c-0.1,0-0.2,0-0.3,0C58.5,214,58.5,214.5,58.5,215.2"/>
		<path id="path2483" d="M66,213.5c-0.1,0-0.2,0-0.3,0c-0.1,0-0.2,0-0.3,0c-0.6,1.8-1.7,4.7-2.1,5.6c0.1,0,0.2,0,0.4,0
			c0.1,0,0.2,0,0.3,0c0.1-0.6,0.3-1.1,0.5-1.7c0.3,0,0.5,0,0.8,0c0.3,0,0.6,0,0.9,0c0.2,0.5,0.3,1.1,0.5,1.7c0.2,0,0.4,0,0.6,0
			c0.2,0,0.4,0,0.6,0C67.5,217.8,66.6,215.4,66,213.5z M64.8,217c0.2-0.7,0.4-1.3,0.7-1.9c0.2,0.6,0.4,1.3,0.6,1.9H64.8"/>
		<path id="path2487" d="M73.6,214.7c0.1-0.4,0.1-0.5,0.2-0.8c-0.3-0.2-0.7-0.4-1.2-0.4c-0.9,0-1.6,0.6-1.6,1.7
			c0,1.8,2.2,1.5,2.2,2.7c0,0.5-0.3,0.8-0.8,0.8c-0.6,0-0.9-0.4-1-0.9h-0.1c-0.1,0.4-0.1,0.7-0.2,1c0.2,0.2,0.6,0.3,1.2,0.3
			c1.2,0,1.9-0.7,1.9-1.8c0-1.8-2.2-1.5-2.2-2.7c0-0.4,0.3-0.7,0.8-0.7c0.4,0,0.7,0.2,0.9,0.7H73.6"/>
		<path id="path2491" d="M74.5,216.4c0,2,1.2,2.9,2.8,2.9c1.6,0,2.8-1.3,2.8-2.9c0-1.9-1.2-2.9-2.8-2.9
			C75.6,213.5,74.5,214.8,74.5,216.4z M78.9,216.2c0,1.8-0.8,2.6-1.6,2.6c-0.8,0-1.5-0.6-1.5-2.3c0-1.4,0.6-2.5,1.6-2.5
			C78.2,213.9,78.9,214.8,78.9,216.2"/>
		<path id="path2495" d="M83.1,219.2c1.4,0,2.1-0.8,2.1-2.6c0-1.4,0.1-2.5,0.1-3c-0.1,0-0.2,0-0.4,0c-0.1,0-0.2,0-0.4,0
			c0,0.7,0.1,1.5,0.1,2.2c0,1.5-0.1,2.9-1.2,2.9c-0.9,0-1.5-0.3-1.5-2.3c0-0.9,0-1.8,0.1-2.8c-0.2,0-0.4,0-0.6,0c-0.2,0-0.4,0-0.6,0
			c0,0.3,0,0.8,0,1.7c0,0.6,0,1,0,1.9C80.9,218.6,81.9,219.2,83.1,219.2"/>
		<path id="path2499" d="M87.3,216.9c0,0.9,0,1.5-0.1,2.2c0.2,0,0.4,0,0.6,0c0.2,0,0.4,0,0.6,0c0-0.7-0.1-1.3-0.1-2.2v-2
			c0-0.3,0-0.6,0-0.7c0.3,0,0.9,0,1.3,0.1c0-0.1,0-0.2,0-0.4s0-0.2,0-0.4c-0.6,0-0.9,0-1.8,0s-1.2,0-1.9,0c0,0.1,0,0.2,0,0.4
			s0,0.2,0,0.4c0.4-0.1,1-0.1,1.3-0.1c0,0.1,0,0.4,0,0.7V216.9"/>
		<path id="path2503" d="M93.7,216.9c0,0.9,0,1.5-0.1,2.2c0.2,0,0.4,0,0.6,0c0.2,0,0.4,0,0.6,0c0-0.7-0.1-1.3-0.1-2.2v-1.1
			c0-0.9,0-1.5,0.1-2.2c-0.2,0-0.4,0-0.6,0c-0.2,0-0.4,0-0.6,0c0,0.7,0.1,1.3,0.1,2.2c-0.3,0-0.6,0-1.1,0s-0.9,0-1.1,0
			c0-0.9,0-1.5,0.1-2.2c-0.2,0-0.4,0-0.6,0c-0.2,0-0.4,0-0.6,0c0,0.7,0.1,1.3,0.1,2.2v1.1c0,0.9,0,1.5-0.1,2.2c0.2,0,0.4,0,0.6,0
			c0.2,0,0.4,0,0.6,0c0-0.7-0.1-1.3-0.1-2.2v-0.5c0.4,0,0.7,0,1.1,0c0.4,0,0.7,0,1.1,0V216.9"/>
		<path id="path2507" d="M96,216.9c0,0.9,0,1.5-0.1,2.2c0.2,0,0.4,0,1.5,0c0.7,0,1,0,1.3,0c0-0.1,0-0.2,0-0.3s0-0.3,0-0.4
			c-0.6,0.1-1.1,0.1-1.7,0.1c0-0.3,0-0.7,0-1c0-0.3,0-0.7,0-1c0.6,0,1.1,0,1.6,0.1c0-0.2,0-0.2,0-0.3c0-0.1,0-0.2,0-0.4
			c-0.6,0-1,0-1.6,0.1c0-0.6,0-1.2,0-1.8c0.2,0,1.1,0.1,1.6,0.1c0-0.1,0-0.2,0-0.4c0-0.1,0-0.2,0-0.3c-0.2,0-0.8,0-1.5,0
			c-0.4,0-0.9,0-1.3,0c0,0.7,0.1,1.3,0.1,2.2V216.9"/>
		<path id="path2511" d="M102,219.1c0.2,0,0.4,0,0.7,0c0.2,0,0.4,0,0.7,0c-0.5-0.9-1.1-1.8-1.5-2.7c0.7-0.2,1.1-0.7,1.1-1.5
			c0-0.5-0.2-0.8-0.5-1.1c-0.3-0.2-0.5-0.3-1.3-0.3c-0.5,0-0.8,0-1.1,0c-0.2,0-0.4,0-0.6,0c0,0.7,0.1,1.3,0.1,2.2v1.1
			c0,0.9,0,1.5-0.1,2.2c0.2,0,0.4,0,0.6,0c0.2,0,0.4,0,0.6,0c0-0.7-0.1-1.3-0.1-2.2v-0.3h0.1L102,219.1z M101.8,215.1
			c0,0.8-0.3,1.2-1,1.2c-0.1,0-0.1,0-0.2,0c0-0.7,0-1.5,0-2.2C101.5,214,101.8,214.1,101.8,215.1"/>
		<path id="path2515" d="M104,215.2c0,1.6-0.1,3.7-0.1,4c0.1,0,0.2,0,0.3,0c0.1,0,0.2,0,0.3,0c0-0.3,0-0.7,0-2c0-0.6,0-1.3,0-1.9
			c1.1,1.3,2.2,2.6,3.2,3.9c0.1,0,0.2,0,0.3,0c0.1,0,0.2,0,0.3,0c0-2.1,0-3.2,0.1-5.6c-0.1,0-0.2,0-0.3,0c-0.1,0-0.2,0-0.3,0
			c0.1,0.4,0.1,2.6,0.1,3.8c-1.1-1.3-2.1-2.6-3.1-3.8c-0.1,0-0.2,0-0.3,0c-0.1,0-0.2,0-0.3,0C104,214,104,214.5,104,215.2"/>
		<path id="path2519" d="M53.6,208h-1.3v-0.3h-2.4c0,1.7,0,2.8,0.1,3.3h-1.4c0-0.5,0.1-1.6,0.1-3.3h-2.3v0.3h-1.3
			c0.1-0.8,0.1-1.6,0.1-2.4c0-0.7,0-1.5-0.1-2.2c0.7,0.1,1.9,0.1,3.6,0.1c0-1,0-1.6-0.1-1.9l1.4,0.1c0,0.3,0,0.9-0.1,1.8
			c1.8,0,3.1,0,3.7-0.1c-0.1,0.8-0.1,1.6-0.1,2.3C53.5,206.6,53.5,207.3,53.6,208z M49.9,206.6h2.4v-1.9h-2.4V206.6z M46.4,206.6
			h2.3v-1.9h-2.3V206.6z"/>
		<path id="path2523" d="M64.6,210.8h-1.1v-0.2h-6.2v0.2h-1.1c0-0.1,0.1-2.1,0.1-5.9c0-1.2,0-2.1-0.1-2.9c0.6,0.1,2.4,0.1,5.5,0.1
			c1.3,0,2.3,0,3-0.1c0,0.1-0.1,2.1-0.1,6C64.5,209.2,64.5,210.1,64.6,210.8z M57.3,209.6h6.2V203h-6.2V209.6z M63.1,209
			c-0.5,0-1.4-0.1-2.8-0.1c-1.3,0-2.2,0-2.8,0.1v-1.1c0.6,0,1.3,0.1,2.3,0.1v-1.4c-0.8,0-1.5,0-1.9,0.1v-1c0.5,0,1.1,0.1,1.9,0.1
			v-1.2c-0.9,0-1.7,0-2.2,0.1v-1c0.6,0,1.4,0.1,2.7,0.1c1.2,0,2.1,0,2.7-0.1v1c-0.5,0-1.2-0.1-2.1-0.1v1.2c0.8,0,1.5,0,1.9-0.1v1
			c-0.2,0-0.4,0-0.8,0c0.3,0.3,0.6,0.6,0.9,0.9c-0.2,0.2-0.4,0.4-0.5,0.5c0.4,0,0.6,0,0.8,0V209z M61.9,207.9
			c-0.3-0.4-0.6-0.6-0.8-0.8l0.6-0.6l-0.9,0v1.5C61.3,208,61.7,208,61.9,207.9"/>
		<path id="path2527" d="M72,207.5l0,0.7c0.8,0,1.4,0,1.8-0.1v1c-0.4-0.1-1-0.1-1.7-0.1c0,0.7,0,1.3,0.1,1.7l-1.2,0
			c0-0.4,0-0.9,0.1-1.7c-0.8,0-1.4,0-1.9,0.1l0-1c0.4,0,1.1,0.1,1.9,0.1v-0.7c-0.8,0-1.4,0-1.9,0.1v-1c0.3,0,0.7,0,1.2,0.1l-0.6-0.7
			l0.5-0.4h-1.5v5.4h-1.2c0-0.7,0.1-1.8,0.1-3.3c0-1.5,0-2.5-0.1-3.2c0.5,0,1.7,0.1,3.5,0.1l0-0.8c-2.3,0-3.6,0-4,0.1v-1.2
			c0.1,0,1.4,0.1,4,0.1c0-0.4,0-0.8,0-1.1l1.4,0.1l-0.1,1c2,0,3.3,0,3.7-0.1v1.2c-0.6,0-1.9-0.1-3.8-0.1l-0.1,0.8
			c1.7,0,2.8,0,3.4-0.1c-0.1,0.5-0.1,1.9-0.1,4.4l0,1c0,0.2,0,0.4,0,0.5c0,0.1-0.1,0.2-0.2,0.3c-0.1,0.1-0.3,0.2-0.6,0.3
			c-0.3,0-0.7,0.1-1.2,0.1c-0.1-0.3-0.2-0.7-0.4-1.2c0.3,0.1,0.5,0.1,0.6,0.1c0.2,0,0.3,0,0.4-0.1c0.1-0.1,0.1-0.1,0.1-0.1v-4.1
			h-1.5l0.5,0.2l-0.5,0.9c0.3,0,0.7,0,1-0.1v1C73.3,207.5,72.8,207.5,72,207.5z M72.2,206.6l-0.4-0.2c0.1-0.3,0.3-0.6,0.4-0.9h-1.6
			l0.6,0.8l-0.5,0.4C71.2,206.7,71.7,206.7,72.2,206.6"/>
		<path id="path2531" d="M87,204.3c-0.4,0-1.7-0.1-4.1-0.1h-0.5c0,0.4,0,0.8,0,1.3c1.9,0,3.1,0,3.6-0.1c0,0.4,0,1-0.1,1.9
			c0,0.9,0,1.5-0.1,1.9c-0.1,0.4-0.2,0.7-0.4,1c-0.2,0.3-0.5,0.4-0.9,0.6c-0.4,0.1-0.8,0.2-1.4,0.3c-0.1-0.4-0.2-0.8-0.4-1.2
			c0.9,0,1.5-0.1,1.7-0.4c0.2-0.3,0.3-1.3,0.3-2.9h-2.5c-0.2,1.1-0.5,2-1,2.7c-0.5,0.6-1.3,1.3-2.6,1.9c-0.2-0.4-0.5-0.7-0.8-1.2
			c0.7-0.3,1.2-0.5,1.7-0.8c0.5-0.3,0.9-0.8,1.2-1.6c0.3-0.8,0.4-1.8,0.4-3.2c-1.6,0-2.6,0-3.1,0.1v-1.1c0.2,0,1.6,0.1,4.2,0.1
			c-0.4-0.5-0.6-1-0.8-1.2l1.1-0.5c0.4,0.6,0.7,1.1,0.8,1.4l-0.7,0.4c2.6,0,4,0,4.2-0.1V204.3"/>
		<path id="path2535" d="M98.2,203.9c-0.9-0.1-1.7-0.1-2.6-0.1c-0.9,0-1.7,0-2.6,0.1v-1.1c0.7,0.1,1.4,0.1,2.1,0.1l-0.5-1l1-0.5
			l0.7,1.2l-0.4,0.2c0.9,0,1.7,0,2.4-0.1V203.9z M98.3,209.3c-0.1,0.4-0.1,0.7-0.2,1c-0.1,0.3-0.2,0.5-0.4,0.5
			c-0.2,0.1-0.3,0.1-0.3,0.1h-1.1c-0.1,0-0.2-0.1-0.3-0.2c-0.1-0.1-0.2-0.2-0.2-0.4v-4.8h-1l0,1.6c0,0.8-0.1,1.5-0.3,2.1
			c-0.2,0.6-0.5,1.2-1.1,1.8c-0.3-0.3-0.6-0.5-0.9-0.8c-0.1,0.3-0.2,0.4-0.4,0.5c-0.2,0.1-0.6,0.1-1.1,0.1c-0.1-0.4-0.2-0.8-0.3-1.1
			c0.2,0,0.4,0,0.5,0c0.2,0,0.3,0,0.3-0.1c0.1-0.1,0.1-0.1,0.1-0.2v-0.9l-0.9,0.4c-0.2-0.6-0.3-1.1-0.4-1.4c0,0.7-0.1,1.3-0.2,1.7
			c-0.1,0.4-0.3,1-0.6,1.7c-0.3-0.3-0.6-0.5-0.9-0.8c0.5-0.9,0.8-1.8,0.8-2.6l0-0.9c-0.3,0-0.5,0-0.6,0v-1.1c0.2,0,0.4,0,0.6,0
			c0-1.7,0-2.7-0.1-3.2l1,0.1c0.1-0.4,0.2-0.8,0.2-1.1l1.1,0.2l-0.3,0.9c0.3,0,0.8,0,1.4-0.1c0,0.6-0.1,1.5-0.1,2.8
			c0,1.1,0,2.7,0,4.8c0.4-0.4,0.8-0.8,0.9-1.3c0.2-0.5,0.2-1.2,0.2-2.3c0-0.5,0-1.2-0.1-2c0.6,0,1.1,0.1,1.6,0.1
			c0.5,0,1.1,0,1.6-0.1c-0.1,1-0.1,2.1-0.1,3.5c0,1.1,0,1.7,0,1.8c0,0.1,0.1,0.1,0.2,0.1c0.2,0,0.3-0.3,0.3-1
			C97.6,209.1,97.9,209.2,98.3,209.3z M91.7,203.4h-1.3v0.8l0.8-0.3l0.4,1.3c-0.4,0.2-0.6,0.3-0.8,0.4l-0.4-1.2v1.3
			c0.3,0,0.7,0,1.3,0V203.4z M91.7,208.7v-2c-0.6,0-1,0-1.3,0l0,0.4l0.9-0.2L91.7,208.7"/>
		<path id="path2539" d="M109,205h-1.2v-1.1H101v1.1h-1.2c0.1-0.3,0.1-0.7,0.1-1.1c0-0.4,0-0.8-0.1-1.1c0.7,0,2.1,0.1,4.3,0.1
			l-0.6-1.1l1.1-0.4l0.6,1.2l-0.4,0.2c2.2,0,3.5,0,4.1-0.1c0,0.4-0.1,0.8-0.1,1.1C108.9,204.3,108.9,204.6,109,205z M109,210.8
			c-0.3-0.1-2.4-0.1-6.2-0.1c-1.2,0-2.2,0-2.9,0.1v-1.2c0.6,0,1.9,0.1,4,0.1v-1.9c-1.1,0-2,0-2.7,0.1v-1.1l-0.5,0.3
			c-0.2-0.3-0.4-0.7-0.6-1c1.3-0.6,2.2-1.2,2.9-1.9l0.8,0.8c-0.7,0.6-1.6,1.2-2.7,1.8c0.6,0.1,2.7,0.1,6.4,0.1v1.1
			c-0.6,0-1.5-0.1-2.6-0.1v1.9c2.1,0,3.5,0,4-0.1V210.8z M108.6,206c-0.3,0.5-0.4,0.8-0.5,1.1c-0.9-0.6-2-1.3-3.2-2.1l0.7-0.8
			L108.6,206"/>
	</g>
</g>
</svg>
