<?xml version="1.0" encoding="utf-8"?>
<!-- Generator: Adobe Illustrator 22.1.0, SVG Export Plug-In . SVG Version: 6.00 Build 0)  -->
<svg version="1.1" id="Слой_1" xmlns="http://www.w3.org/2000/svg" xmlns:xlink="http://www.w3.org/1999/xlink" x="0px" y="0px"
	 width="68.116px" height="16.106px" viewBox="0 0 68.116 16.106" enable-background="new 0 0 68.116 16.106" xml:space="preserve">
<g>
	<g>
		<path fill-rule="evenodd" clip-rule="evenodd" fill="#DB2F34" d="M8.289,1.318c-0.092,0.096-0.415,0.585-0.415,1.19
			c0,0.145,0.003,3.616,0,3.741c-0.005,0.264-0.166,0.64-0.299,0.773c-0.094,0.094-0.67,0.617-0.721,0.672l0.326,0.005
			c0.106-0.102,1.215-1.085,1.331-1.217c0.151-0.172,0.51-0.606,0.51-1.288c0-0.161,0.002-3.449,0.002-3.594
			c0-0.539,0.251-0.838,0.381-0.983c0.133-0.148,0.57-0.513,0.647-0.595L9.71,0.011C9.627,0.094,8.403,1.199,8.289,1.318
			L8.289,1.318z"/>
		<path fill-rule="evenodd" clip-rule="evenodd" fill="#DB2F34" d="M5.544,14.92l1.358,1.186h0.909c0.925,0,1.77-0.396,2.327-0.953
			c0.558-0.558,0.763-1.307,0.763-2.009c0-0.51,0-1.851,0-1.944c0-0.653-0.41-1.034-0.524-1.148
			c-0.062-0.062-0.458-0.435-0.458-0.435v1.492c0,0,0.436,0.45,0.522,0.541c0.403,0.428,0.398,1.207-0.877,2.45
			c-0.223,0.217-0.86,0.819-1.737,0.819C7.702,14.92,5.544,14.92,5.544,14.92L5.544,14.92z"/>
		<path fill-rule="evenodd" clip-rule="evenodd" fill="#DB2F34" d="M9.321,6.94C9.169,7.1,9.024,7.492,9.024,7.837
			c0,0.192,0,0.736,0,0.736s0.6,0,0.747,0c0.29,0,0.673-0.264,0.756-0.404c0.005-0.01,0-0.73,0-0.73s0.192,0.275,0.399,0.42
			c0.078-0.098,0.758-0.923,1.327-0.927c0.95-0.008,0.735,1.191,0.347,1.575c-0.126,0.124-0.687,0.638-0.861,0.804
			c-0.449,0.427-1.217,0.223-1.217-0.881c0,0-0.824,0.783-0.948,0.887c-0.124,0.104-0.55,0.554-0.55,0.554s0,1.753,0,1.94
			c0,0.93-0.306,1.243-0.56,1.522c-0.099,0.109-1.146,1.064-1.286,1.168l-0.343,0.008c0,0,0.613-0.557,0.736-0.685
			c0.14-0.145,0.303-0.44,0.303-0.931c0-0.124-0.016-3.049-0.016-3.049s-4.558,0-4.766,0c-1.658,0-2.012-1.84-2.022-2.332
			c-0.003-0.145,0-1.614,0-1.842c0-0.302-0.193-0.813-0.502-0.97h0.467C1.09,4.722,1.384,4.84,1.384,5.968
			c0,0-0.02,1.313-0.02,1.382c0,0.572,0.455,1.228,1.112,1.228c0.135,0,5.394-0.005,5.394-0.005c0.005-0.145,0.15-0.695,0.409-0.986
			c0.147-0.164,1.304-1.223,1.436-1.324l0.343-0.004C10.005,6.306,9.446,6.808,9.321,6.94L9.321,6.94z M11.092,8.045
			c0,0,0.312,0.414,0.461,0.534c0.581,0.466,0.857-0.034,0.467-0.57C11.866,7.797,11.268,7.858,11.092,8.045L11.092,8.045z"/>
		<path fill-rule="evenodd" clip-rule="evenodd" fill="#DB2F34" d="M5.308,11.52c0,0.26-0.832,0.952-0.881,1.001
			c-0.06-0.28-0.27-0.59-0.89-1.211l0.91-0.91C5.058,11.01,5.308,11.14,5.308,11.52L5.308,11.52z"/>
		<path fill-rule="evenodd" clip-rule="evenodd" fill="#DB2F34" d="M6.887,1.084c0.183,0.183,0.576,0.678,0.34,0.914
			C7.018,2.207,6.695,2.537,6.695,2.537C6.679,2.418,6.377,2.131,6.377,2.131s0.003,0.879,0,0.988c-0.01,0.397-0.16,0.51-0.16,0.51
			S6.95,4.357,6.95,5.292c0,0.453,0.002,0.87,0.002,0.96c0,0.192-0.048,0.34-0.182,0.487c-0.066,0.073-0.746,0.756-0.85,0.849
			C5.724,7.766,5.517,7.796,5.361,7.796c-0.109,0-2.456,0-2.529,0c-0.398,0-0.808-0.311-0.808-0.621
			c0-0.078,0.005-0.938,0.005-0.938c0.13,0.15,0.262,0.326,0.58,0.321c0.249-0.004,0.51-0.199,0.58-0.269
			c0.073-0.073,1.913-1.997,1.913-1.997s-0.862-0.799-1.43-1.179C3.396,2.927,3.028,3.162,2.973,3.406c-0.174,0.765,0,1.913,0,1.913
			S2.41,4.758,2.275,4.623C1.994,4.341,2.004,3.704,2.339,3.369c0.053-0.053,0.563-0.63,1.211-0.63c0.104,0,0.895,0,1.009,0
			c0.677,0,1.418,0.675,1.418,0.675s0.109-0.119,0.109-0.234c0-0.347-0.013-1.283-0.013-1.283c-0.51-0.51-0.579-1.035-0.335-1.279
			C6.195,0.161,6.36,0,6.36,0S6.355,0.553,6.887,1.084L6.887,1.084z M3.715,6.164C3.465,6.425,3.422,6.491,3.189,6.63
			c0.021,0,2.759,0,2.848,0c0.772,0,0.618-0.479,0.48-0.721c-0.284-0.495-1.18-1.416-1.18-1.416S3.767,6.109,3.715,6.164
			L3.715,6.164z"/>
		<path fill-rule="evenodd" clip-rule="evenodd" fill="#DB2F34" d="M0.467,8.756H0c0,0,0.502,0.276,0.502,0.987
			c0,0.188,0,2.117,0,2.273c0,1.479,1.22,2.846,2.702,2.846c0.249,0,1.072,0,1.238,0c0.743,0,1.004-0.18,1.454-0.579
			c0.165-0.147,0.379-0.387,0.457-0.474c0.259-0.29,0.535-0.524,0.535-1.286c0-0.186,0-0.64,0-0.744c0-0.643-0.372-0.91-0.552-1.09
			c-0.115-0.115-0.432-0.418-0.432-0.418v1.524c0,0,0.312,0.332,0.449,0.44c0.643,0.508,0.131,1.389-0.465,1.389
			c-0.119,0-2.553,0.001-2.719,0.005c-1.001,0.025-2.354-0.868-2.354-2.37c0-0.202,0-1.104,0-1.235
			C0.815,8.756,0.467,8.756,0.467,8.756L0.467,8.756z"/>
		<path fill-rule="evenodd" clip-rule="evenodd" fill="#DB2F34" d="M3.447,11.524c0,0.26-0.832,0.952-0.88,1
			c-0.06-0.281-0.27-0.59-0.89-1.211l0.91-0.91C3.197,11.014,3.447,11.143,3.447,11.524L3.447,11.524z"/>
	</g>
	<g>
		<path fill-rule="evenodd" clip-rule="evenodd" fill="#DB2F34" d="M20.874,12.988c-0.245,0-2.136-0.003-2.407-0.003
			c-0.759,0-0.701-0.63-0.768-1.169V8.363c0,0,0.527-0.013,1.124-0.013c0.667,0,1.497-0.099,2.305,0.359c0,0-0.581-1.401-2.31-1.401
			h-1.119c0,0,0-0.199,0-0.679V6.201c0,0,0-0.964-0.235-1.249c0,0,1.489,0.005,1.59,0.005c1.376,0.001,2.44-0.02,3.547,0.717
			c0,0-0.212-1.821-2.87-1.821c-1.534,0-4.976,0-5.193,0c0,0,0.901,0.772,0.876,2.343l0.025,6.293c0,1.58,0.632,1.623,0.632,1.623
			c0.061,0,0.381,0,1.773,0c0.233,0,0.515,0,0.822,0c0.751,0,1.73,0,2.523,0c1.16,0,1.564-0.829,1.564-1.279l0.017-0.604
			C22.77,12.23,22.402,12.988,20.874,12.988L20.874,12.988z"/>
		<path fill-rule="evenodd" clip-rule="evenodd" fill="#DB2F34" d="M34.497,12.457V8.055c0-1.708-1.396-2.162-2.435-2.162
			c-1.376,0-1.788,1.149-1.964,1.544C29.792,6.366,28.719,5.88,27.84,5.88c-1.662,0-2.084,1.583-2.084,1.583
			s-0.039-1.528-1.374-1.528l-1.308,0.003c0,0,0.758,0.312,0.758,1.632l-0.002,4.888c0,1.614,0.651,1.642,0.651,1.642h2.155
			c-0.056-0.028-0.827-0.61-0.827-1.656V8.108c0.027-0.193,0.352-0.848,1.282-0.848c0.527,0,1.106,0.549,1.093,1.167l-0.002,4.028
			c0,1.638,0.642,1.642,0.642,1.642h2.164c0,0-0.827-0.582-0.827-1.655l-0.006-4.337c0.081-0.242,0.366-0.831,1.183-0.831
			c0.651,0,1.196,0.549,1.183,1.167c0,0-0.004,3.677-0.002,4.018c0.01,1.648,0.642,1.633,0.642,1.633
			c1.127,0,2.164,0.004,2.164,0.004S34.497,13.527,34.497,12.457L34.497,12.457z"/>
		<path fill-rule="evenodd" clip-rule="evenodd" fill="#DB2F34" d="M38.279,12.454c0,1.085,0.83,1.643,0.83,1.643
			s-1.029-0.004-2.155-0.004c0,0-0.661,0.01-0.661-1.626V12.46l0.002-4.902c0-1.293-0.749-1.625-0.749-1.625h1.308
			c0.461,0,1.421,0,1.421,1.828l-0.003,4.685L38.279,12.454L38.279,12.454z"/>
		<path fill-rule="evenodd" clip-rule="evenodd" fill="#DB2F34" d="M44.919,6.55c0,0-0.208-0.588-1.103-0.588
			c-1.354,0-1.684,1.609-1.684,1.609c-0.11-1.271-0.45-1.647-1.406-1.647l-1.308,0.003c0,0,0.758,0.31,0.758,1.631l-0.002,4.894
			c0,1.615,0.651,1.642,0.651,1.642h2.155c-0.056-0.027-0.827-0.609-0.827-1.655l0.002-4.007c0.057-0.364,0.244-0.643,0.529-0.827
			c0.711-0.46,1.68-0.351,2.236,0.328C44.919,7.933,44.919,7.067,44.919,6.55L44.919,6.55z"/>
		<path fill-rule="evenodd" clip-rule="evenodd" fill="#DB2F34" d="M54.978,6.845c0.73,0,1.275,0.319,1.275,0.319l0.006-1.232
			h-1.813l0.001-1.868c0,0-0.476,0.824-1.451,1.625c-0.612,0.503-1.898,1.124-1.898,1.124l1.369,0.025l-0.002,5.68
			c0,1.575,0.658,1.575,0.658,1.575c1.183,0,2.153,0.004,2.153,0.004s-0.833-0.558-0.833-1.594l0.002-5.661
			C55.014,6.844,54.623,6.845,54.978,6.845L54.978,6.845z"/>
		<path fill-rule="evenodd" clip-rule="evenodd" fill="#DB2F34" d="M61.532,9.311c-1.209,1.265-2.158,1.067-2.918,1.994
			c0,0.001,0.122,1.257,1.082,1.7c0.329,0.152,1.66,0.632,2.523-0.856l-0.006,1.317c0,0-0.553,0.643-2.311,0.643
			c-2.118,0-3.568-1.665-3.568-3.924c0-2.221,1.183-4.282,3.415-4.294C61.937,5.88,63.121,7.648,61.532,9.311L61.532,9.311z
			 M60.208,8.793c0.358-0.661,0.64-2.341-0.583-2.249c-1.417,0.106-1.147,3.874-1.147,3.874C58.952,9.904,59.662,9.799,60.208,8.793
			L60.208,8.793z"/>
		<path fill-rule="evenodd" clip-rule="evenodd" fill="#DB2F34" d="M37.277,5.273c0.555,0,1.006-0.441,1.006-0.984
			c0-0.544-0.45-0.985-1.006-0.985c-0.555,0-1.006,0.441-1.006,0.985C36.271,4.832,36.721,5.273,37.277,5.273L37.277,5.273z"/>
		<path fill-rule="evenodd" clip-rule="evenodd" fill="#DB2F34" d="M47.165,13.171c-0.492,0-0.843-0.511-0.843-1.036
			c0-2.038,1.668-2.319,2.114-2.863l0.003,3.435C48.243,12.883,48.043,13.171,47.165,13.171L47.165,13.171z M48.437,8.486
			c-0.502,0.879-4.403,1.065-3.805,4.082c0.237,1.197,1.034,1.545,2.037,1.545c0.974,0,1.559-0.508,1.804-0.981
			c0.146,0.909,0.605,0.961,0.605,0.961c1.127,0,2.155,0.004,2.155,0.004s-0.839-0.558-0.839-1.634V7.876
			c0-1.097-1.217-1.951-2.51-1.951c-1.243,0-2.024,0.598-2.024,0.598c0,0.367,0,1.423,0,1.423s0.443-1.128,1.568-1.128
			c1.097,0,1.178,0.547,1.172,0.82C48.601,7.638,48.711,8.008,48.437,8.486L48.437,8.486z"/>
		<path fill-rule="evenodd" clip-rule="evenodd" fill="#DB2F34" d="M66.304,11.881c0.012,0.577-0.504,1.335-1.602,1.335
			c-1.124,0-1.573-1.15-1.573-1.15v1.458c0,0,0.811,0.578,2.054,0.578c1.475,0,2.965-1.121,2.932-2.681
			c-0.011-0.549-0.207-1.017-0.506-1.42C67.11,9.33,66.201,8.863,65.498,8.43c-0.401-0.247-0.614-0.689-0.62-0.844
			C64.867,7.313,65,6.761,66.098,6.761c1.071,0,1.527,1.128,1.527,1.128l-0.004-1.365c0,0-0.82-0.651-2.062-0.651
			c-1.293,0-2.467,0.854-2.445,1.951c0.02,0.963,0.426,1.587,1.214,2.175c0.312,0.232,0.683,0.458,1.113,0.697
			C66.068,11.043,66.296,11.469,66.304,11.881L66.304,11.881z"/>
	</g>
</g>
</svg>
