<?xml version="1.0" encoding="utf-8"?>
<!-- Generator: Adobe Illustrator 22.1.0, SVG Export Plug-In . SVG Version: 6.00 Build 0)  -->
<svg version="1.1"
	 id="svg2" xmlns:cc="http://creativecommons.org/ns#" xmlns:dc="http://purl.org/dc/elements/1.1/" xmlns:inkscape="http://www.inkscape.org/namespaces/inkscape" xmlns:rdf="http://www.w3.org/1999/02/22-rdf-syntax-ns#" xmlns:sodipodi="http://sodipodi.sourceforge.net/DTD/sodipodi-0.dtd" xmlns:svg="http://www.w3.org/2000/svg"
	 xmlns="http://www.w3.org/2000/svg" xmlns:xlink="http://www.w3.org/1999/xlink" x="0px" y="0px" width="99.726px" height="23px"
	 viewBox="0 0 99.726 23" style="enable-background:new 0 0 99.726 23;" xml:space="preserve">
<style type="text/css">
	.st0{fill:#1E2368;}
	.st1{fill:url(#polygon674_1_);}
	.st2{fill:url(#polygon697_1_);}
	.st3{fill:url(#polygon724_1_);}
	.st4{fill:url(#polygon759_1_);}
	.st5{fill:#1D2D6E;}
</style>
<g id="layer1" transform="translate(-108.642, -478.197)" inkscape:groupmode="layer" inkscape:label="Layer 1">
	<path id="path645" class="st0" d="M207.832,478.201c-0.701,0.041-6.299,0.398-6.299,0.398s-0.23-0.042-0.523,0.303
		c-0.302,0.346-17.241,19.511-17.241,19.511s-2.334,2.5-5.586,2.784h-0.021h23.172l7.009-22.545
		C208.345,478.651,208.534,478.148,207.832,478.201"/>
	
		<linearGradient id="polygon674_1_" gradientUnits="userSpaceOnUse" x1="-199.8019" y1="81.6882" x2="-199.6189" y2="81.6882" gradientTransform="matrix(111.219 40.48 -40.48 111.219 25712.6934 -512.6303)">
		<stop  offset="0" style="stop-color:#A0A2A4"/>
		<stop  offset="0.0056" style="stop-color:#A0A2A4"/>
		<stop  offset="0.1579" style="stop-color:#B3B4B6"/>
		<stop  offset="0.4647" style="stop-color:#E3E4E5"/>
		<stop  offset="0.6236" style="stop-color:#FFFFFF"/>
		<stop  offset="0.7387" style="stop-color:#FCFCFC"/>
		<stop  offset="0.8366" style="stop-color:#F1F1F2"/>
		<stop  offset="0.9279" style="stop-color:#E0E0E2"/>
		<stop  offset="1" style="stop-color:#CCCDCF"/>
	</linearGradient>
	<path id="polygon674" class="st1" d="M201.485,478.599c-0.083,0.006-0.263,0.051-0.485,0.304
		c-0.249,0.294-12.551,14.216-16.215,18.359c3.663-4.142,15.968-18.065,16.225-18.359
		C201.224,478.65,201.403,478.605,201.485,478.599L201.485,478.599z"/>
	
		<linearGradient id="polygon697_1_" gradientUnits="userSpaceOnUse" x1="-199.8026" y1="81.7023" x2="-199.6183" y2="81.7023" gradientTransform="matrix(111.219 40.48 -40.48 111.219 25712.6934 -512.6303)">
		<stop  offset="0" style="stop-color:#111247"/>
		<stop  offset="0.0056" style="stop-color:#111247"/>
		<stop  offset="0.6236" style="stop-color:#1E2368"/>
		<stop  offset="0.8128" style="stop-color:#1D2265"/>
		<stop  offset="0.9602" style="stop-color:#191D5B"/>
		<stop  offset="1" style="stop-color:#171B57"/>
	</linearGradient>
	<path id="polygon697" class="st2" d="M207.929,478.197c-0.03,0-0.062,0.001-0.098,0.004c-0.701,0.041-6.298,0.397-6.298,0.397
		h-0.025c-0.068,0-0.261,0.026-0.499,0.305c-0.26,0.296-12.805,14.492-16.329,18.478c-0.576,0.654-0.911,1.033-0.911,1.033
		s-2.334,2.5-5.586,2.782h23.151l7.009-22.543c0,0,0.026-0.064,0.023-0.144C208.365,478.375,208.296,478.197,207.929,478.197
		L207.929,478.197z"/>
	
		<linearGradient id="polygon724_1_" gradientUnits="userSpaceOnUse" x1="-140.2617" y1="115.0546" x2="-140.0779" y2="115.0546" gradientTransform="matrix(13.2809 4.9284 -5.0642 12.9239 2636.7498 -300.5325)">
		<stop  offset="0" style="stop-color:#622A15"/>
		<stop  offset="0.0686" style="stop-color:#622A15"/>
		<stop  offset="0.1639" style="stop-color:#693118"/>
		<stop  offset="0.2965" style="stop-color:#7C431E"/>
		<stop  offset="0.4558" style="stop-color:#8D5523"/>
		<stop  offset="0.659" style="stop-color:#A6712A"/>
		<stop  offset="0.8895" style="stop-color:#C69533"/>
		<stop  offset="1" style="stop-color:#C69533"/>
	</linearGradient>
	<path id="polygon724" class="st3" d="M194.28,494.874c-1.345,0.087-2.35,0.37-3.026,0.798c-0.153,0.094-0.27,0.204-0.322,0.343
		c-0.074,0.195,0.13,0.447,0.374,0.538c0.27,0.105,0.635,0.177,1.207,0.184c0.673,0.011,1.011-0.118,1.011-0.118
		s0.151-0.376,0.303-0.718C193.929,495.656,194.167,495.13,194.28,494.874L194.28,494.874L194.28,494.874z"/>
	
		<linearGradient id="polygon759_1_" gradientUnits="userSpaceOnUse" x1="-185.5116" y1="87.9632" x2="-185.3275" y2="87.9632" gradientTransform="matrix(40.0384 18.5415 -19.052 38.9625 9296.9971 502.5609)">
		<stop  offset="0" style="stop-color:#C28127"/>
		<stop  offset="0.0338" style="stop-color:#C5862C"/>
		<stop  offset="0.07" style="stop-color:#CB9339"/>
		<stop  offset="0.1234" style="stop-color:#D6AA5D"/>
		<stop  offset="0.2" style="stop-color:#E8CF96"/>
		<stop  offset="0.2281" style="stop-color:#E6CB8C"/>
		<stop  offset="0.275" style="stop-color:#E1C173"/>
		<stop  offset="0.3348" style="stop-color:#D9B049"/>
		<stop  offset="0.35" style="stop-color:#D7AB3D"/>
		<stop  offset="0.66" style="stop-color:#CD992C"/>
		<stop  offset="0.98" style="stop-color:#C27F27"/>
		<stop  offset="1" style="stop-color:#C27F27"/>
	</linearGradient>
	<path id="polygon759" class="st4" d="M203.786,487.759c-0.007,0.008-0.58,0.658-2.578,0.635c-1.343-0.015-2.078-0.432-3.715-0.453
		c-1.814-0.021-3.161,0.609-3.577,1.442c-0.209,0.419-1.235,2.772-1.235,2.772s0.575-0.587,1.528-0.884
		c1.308-0.408,2.524-0.332,3.779-0.136c0.921,0.146,1.422,0.323,2.258,0.299c0.755-0.022,1.139-0.191,1.44-0.36
		c0.38-0.217,0.778-0.576,1.237-1.318C203.263,489.215,203.699,488.035,203.786,487.759L203.786,487.759L203.786,487.759z
		 M201.93,491.583c0,0-0.278,0.217-1.196,0.368l0,0c-0.384,0.068-0.79,0.045-1.1,0.029c-0.854-0.048-1.382-0.231-2.764-0.35
		c-1.87-0.161-3.454,0.381-4.157,0.965c-0.209,0.178-0.394,0.368-0.491,0.556c-0.504,0.954-0.957,1.988-1.214,2.578
		c-0.108,0.234-0.095,0.373-0.095,0.373c0.069-0.136,0.207-0.334,0.353-0.427c1.048-0.666,2.863-0.992,5.565-0.741
		c1.849,0.169,2.802,0.08,3.745-1.022C201.35,493.012,201.93,491.583,201.93,491.583L201.93,491.583z"/>
	<path id="path763" class="st5" d="M144.489,488.579h-2.798l0.094,0.16c0.132,0.098,0.252,0.199,0.418,0.375
		c0.13,0.146,0.162,0.217,0.162,0.543v5.275h1.715v-4.218l0.027-0.027l3.768,4.245h1.511v-6.353h-2.392l0.071,0.16
		c0.123,0.098,0.248,0.199,0.416,0.375c0.125,0.146,0.187,0.217,0.187,0.543v2.46L144.489,488.579z M175.993,494.933l-1.358-2.285
		h-1.557v2.285h-1.928v-5.275c0-0.326-0.038-0.398-0.166-0.543c-0.166-0.177-0.29-0.277-0.413-0.375
		c-0.087-0.07-0.101-0.055-0.101-0.16h4.959c1.406,0,2.471,0.681,2.471,2.004c0,1.033-0.509,1.602-1.374,1.935l1.503,2.414
		L175.993,494.933L175.993,494.933z M167.378,494.933v-5.275c0-0.326-0.039-0.398-0.166-0.543c-0.164-0.177-0.285-0.277-0.408-0.375
		c-0.084-0.07-0.084-0.055-0.084-0.16h2.588v6.353L167.378,494.933L167.378,494.933z M164.416,494.933l-0.538-1.219h-3.189
		l-0.553,1.219h-1.808l2.445-5.438c0.029-0.078,0.061-0.146,0.061-0.261c0-0.126-0.144-0.268-0.433-0.482
		c-0.076-0.059-0.086-0.059-0.086-0.173h3.184l2.959,6.353h-2.041V494.933z M154.571,494.933h-3.353v-5.275
		c0-0.326-0.042-0.398-0.174-0.543c-0.162-0.177-0.293-0.277-0.418-0.375c-0.082-0.07-0.076-0.055-0.076-0.16h3.984
		c2.35,0,3.587,1.202,3.587,3.171C158.121,493.561,156.985,494.933,154.571,494.933 M127.797,494.933v-5.275
		c0-0.326-0.046-0.398-0.164-0.543c-0.168-0.177-0.291-0.277-0.415-0.375c-0.09-0.07-0.099-0.055-0.099-0.16h2.597v4.851h3.058
		v1.503L127.797,494.933L127.797,494.933z M120.301,494.933v-5.275c0-0.326-0.037-0.398-0.161-0.543
		c-0.166-0.177-0.289-0.277-0.414-0.375c-0.091-0.07-0.096-0.055-0.096-0.16h6.63v1.314h-4.045v1.163h2.982v1.306h-2.981v1.225
		h4.068v1.345L120.301,494.933L120.301,494.933z M116.458,495.154c-2.246,0-4.267-0.982-4.267-3.376
		c0-1.903,1.455-3.458,4.229-3.458c1.087,0,1.925,0.21,2.65,0.556l-0.457,1.501c-0.403-0.285-1.196-0.576-2.061-0.576
		c-1.726,0-2.409,0.951-2.409,1.899c0,1.311,1.019,1.965,2.384,1.965c0.921,0,1.661-0.259,2.112-0.521l0.485,1.354
		C118.562,494.835,117.585,495.154,116.458,495.154 M109.309,494.933v-6.561c0-0.322-0.041-0.387-0.156-0.529
		c-0.178-0.178-0.295-0.277-0.413-0.372l-0.098-0.168h2.632v7.63H109.309L109.309,494.933z M175.011,489.826h-1.933v1.603h2.034
		c0.606,0,0.97-0.285,0.97-0.79C176.081,490.2,175.854,489.826,175.011,489.826 M162.298,490.077l-1.066,2.415h2.112
		L162.298,490.077z M154.298,489.953h-1.155v3.572h1.155c1.396,0,1.856-0.614,1.856-1.776
		C156.153,490.504,155.583,489.953,154.298,489.953 M139.403,494.933l-0.544-1.219h-3.181l-0.554,1.219h-1.807l2.442-5.438
		c0.029-0.078,0.059-0.146,0.059-0.261c0-0.126-0.139-0.268-0.435-0.482c-0.077-0.059-0.08-0.059-0.08-0.173h3.185l2.954,6.353
		h-2.037L139.403,494.933L139.403,494.933z M137.275,490.077l-1.062,2.415h2.118L137.275,490.077z"/>
</g>
</svg>
