<?xml version="1.0" encoding="utf-8"?>
<!-- Generator: Adobe Illustrator 22.1.0, SVG Export Plug-In . SVG Version: 6.00 Build 0)  -->
<svg version="1.1" id="Слой_3" xmlns="http://www.w3.org/2000/svg" xmlns:xlink="http://www.w3.org/1999/xlink" x="0px" y="0px"
	 width="447.1px" height="135.9px" viewBox="0 0 447.1 135.9" style="enable-background:new 0 0 447.1 135.9;" xml:space="preserve"
	>
<style type="text/css">
	.st0{fill:#06489B;}
</style>
<path class="st0" d="M0,81.9c15.2-17.5,26.2,0.8,39.2-0.8c16.4-2-1.1-20.2,9.5-38.6c13.7-23.7,52.5-6.2,76.9-42.5
	c0,0,0,19.1-17.7,30.3c-17,10.8-42.1,6.6-49.7,14.5c-8.6,9.1-3.4,22.8-3.4,28.4c-0.1,6.2-1.7,16.3-15.2,16.2
	c-8.7,0-22.2-11.6-29.2-11.1C4.5,78.8,0,81.9,0,81.9z"/>
<path class="st0" d="M77.8,66.7c23.2,8.3,36.6-0.3,42.9-15C109.1,60.1,100.5,65.7,77.8,66.7z"/>
<path class="st0" d="M80.5,49.6c26.3,6.5,40-4.4,45.3-21.1C114,38.9,105.2,46,80.5,49.6z"/>
<path class="st0" d="M69.1,83.6c21.7,11.6,36.2,5.1,44.7-8.4C101.1,81.6,91.8,85.9,69.1,83.6z"/>
<path class="st0" d="M0,81.9c15.2,1.9,21.2,16.2,35.3,25c10.4,6.5,26.9,8.9,43.6,7.7c-20.5,7.2-41.4,4.2-52.8-5.6
	c-13-2.5-20,31.4,68.9,20.9c-50.1,14.4-85.3,0.6-83.4-17.5c0.6-6.1,5.7-8.7,7.8-9.1C14.1,95.9,9.4,87.8,0,81.9z"/>
<g>
	<path class="st0" d="M166.4,66.1c0.3-1.9,0.4-2.6,0.4-6.8c0-4.5,0.1-6.4,0.3-8.9c-2.8,3.4-4.8,5.2-9,8.3c-1-3.4-1.4-4.3-3.5-7.4
		c5.2-3.8,8.5-7,12.2-11.8c3.4-4.5,5.2-7.6,6.5-11.7l8.2,3.2c-1,1.6-2.3,3.7-2.5,4c0,0.1-0.1,0.1-0.1,0.2c-0.2,0.3-0.5,0.8-1,1.6
		c-1.3,2.2-2.5,4.2-3.4,5.4v16.5c0,3.8,0.1,5.2,0.4,7.2h-8.5V66.1z M213.8,73c4.4,0,5.9-0.1,8.7-0.4v8.8c-3.2-0.3-5.7-0.4-9.2-0.4
		h-20.4v7.6c0,3.4,0.1,5.9,0.5,9H184c0.4-3.1,0.5-5.5,0.5-9V81H165c-3.3,0-6,0.1-9.3,0.4v-8.8c2.7,0.4,4.3,0.4,9.1,0.4h19.7v-3.2
		c0-2.2-0.1-2.7-0.3-4c0-0.2-0.1-0.2-0.1-0.4h9c-0.3,2-0.3,2-0.3,4.4V73H213.8z M194.7,53.4c0,2.8,1,3.2,8.2,3.2
		c7,0,9.6-0.3,10.7-1.1c1.1-0.8,1.3-2.2,1.6-8.6c3,1.6,4.3,2,7.6,2.8c-1,9.4-2.2,12.1-6.1,13.6c-1.9,0.7-2.4,0.8-7.4,1
		c-3,0.1-4.8,0.2-6.4,0.2c-7.4,0-10.8-0.4-12.9-1.6c-2.4-1.3-3.1-3-3.1-7.5v-4.2c-1.3,0.1-1.3,0.1-5.8,1c-0.8-3.4-1-4-2.8-7.3
		c4.2-0.6,6.1-0.9,8.7-1.3v-5.2c0-4.4-0.1-7-0.4-9.1h8.6c-0.3,2.4-0.4,4.4-0.4,8.6v3.9c8.5-2.3,13.6-4.6,19.8-9.1l5.8,6.9
		c-8.8,4.8-15.4,7.3-25.6,10v3.8H194.7z"/>
	<path class="st0" d="M287.3,78c-1,0.7-1.6,1.2-2.6,2.1c-2.3,2.1-7,5.2-10.6,7.3c7.1,1.6,15,2.5,21.5,2.5c1,0,1.8,0,3.3,0
		c-1.6,2.5-2.7,4.8-3.6,8c-12.7-0.7-22.8-2.8-31.2-6.1c-9.7,3.5-18.6,5.2-32.1,6.2c-0.6-2.8-1.6-5.2-3.1-7.3
		c9.8-0.3,16.3-1.1,26.2-3.3c-3.8-2.2-4.6-2.8-8.7-6.2c-3.7,2.2-7,3.7-13,5.8c-1.3-2.7-2.2-4-4.3-6.2c6.1-1.6,9.5-3,13.8-5.5
		c2.8-1.6,5.2-3.3,6.7-4.7h-2.9c-2.6,0-5.3,0.1-7.6,0.3c0.3-1.9,0.4-3.7,0.4-7.9V47.9c0-3.1-0.1-5-0.4-7.6c1.9,0.1,3.7,0.2,7.9,0.2
		h9.2c0.9-1.3,1.6-2.5,2.2-3.4h-19.6c-3.2,0-5.7,0.1-8.2,0.4v-7.7c2.3,0.3,4.9,0.4,8.5,0.4h49.1c3.7,0,6.2-0.1,8.5-0.4v7.7
		c-2.6-0.3-5-0.4-8.2-0.4H267c-0.7,1.3-1.2,2.1-2.1,3.4h15.7c4.3,0,5.5,0,7.6-0.2c-0.2,2.5-0.3,4.3-0.3,7.7v14.7
		c0,4.6,0.1,6.7,0.3,8.3c-2.5-0.2-4.7-0.3-7.6-0.3h-21c-1.3,1.4-2,2.1-3.1,3.1H277c3.8,0,5-0.1,6.7-0.3L287.3,78z M247.1,49.1H280
		v-2.8h-32.9V49.1z M247.1,56.9H280v-2.8h-32.9V56.9z M247.1,64.9H280v-2.8h-32.9V64.9z M255.3,79.8c3,2,5.4,3.3,9.3,4.7
		c4.1-1.6,6.1-2.5,9.5-4.7H255.3z"/>
	<path class="st0" d="M328.9,35.9c2.6,0,4.3-0.1,6.1-0.4c-0.2,1.6-0.3,3.4-0.3,5.9v47.2c0,1.1-0.1,1.9-0.3,2.8
		c5.7-5.2,7.6-13.4,7.6-32.9c0-3.6-0.1-5.6-0.2-7.7c1.4,0.2,3.4,0.3,6.4,0.3h9.9c2.9,0,5.5-0.1,6.7-0.3c-0.2,1.5-0.3,3.7-0.3,6.9
		v29.1c0,0.9,0.4,1.2,1.5,1.2c0.7,0,1-0.1,1.3-0.6c0.4-0.7,0.6-4.4,0.6-9.4c0-1.1,0-3-0.1-5.4c2.9,1.9,3.5,2.2,6.5,3.2
		c-0.2,18.7-1,20.4-9.5,20.4c-6.1,0-8-1.3-8-5.6V58.2h-7.6c-0.1,15-0.4,19.5-1.8,25.5c-1.4,6.1-3,9.1-7.6,14.5
		c-1.5-2.3-3.1-4.1-5.5-6.1c-1,3-3.1,3.9-8.9,3.9c-1,0-1.9-0.1-3.8-0.3c-0.1-3.1-0.5-5-1.5-7.7c2,0.5,4.3,0.7,6.2,0.7
		c1.3,0,1.7-0.3,1.7-1.5V66.5h-12.5c-0.1,5.4-0.7,12.4-1.6,17.3c-1,5.6-2.3,9.4-4.8,14.1c-2.1-2.8-3.7-4.4-6.1-6.1
		c3.7-6.1,5.2-12.9,5.7-25.3c-2.3,0.1-2.6,0.1-4.8,0.3v-7.3c1.9,0.3,3.3,0.4,4.9,0.4c0.1-4.8,0.2-8.4,0.2-10.8
		c0-7.3-0.1-10.7-0.5-13.6c1.7,0.2,3.6,0.3,5.8,0.3h2.6c1.1-3.4,1.6-5.4,2.1-8.3l8.1,1c-0.8,2.5-1.7,4.9-2.7,7.3h4.5V35.9z
		 M327.9,59.9V42.5h-12.1c-0.1,12.1-0.1,12.1-0.1,17.4H327.9z M321.6,68.8c2.8,4.3,2.8,4.3,5.8,11.4l-5.8,3.1c-1.6-5-3-8-5.5-11.8
		L321.6,68.8z M321.8,44.7c2.8,4.1,4.3,7,5.4,10.3l-5.8,3.1c-1.5-4.6-3.1-7.9-5-10.6L321.8,44.7z M349.8,38.3
		c-1.3-3.1-2.3-5-4.2-7.7l7.4-3c2.8,4.7,4.1,7.5,5.2,10.7h7.9c3.1,0,4.8-0.1,6.9-0.4v8c-2.1-0.3-3.8-0.4-6.9-0.4h-22.8
		c-3.1,0-4.6,0.1-6.8,0.4v-8c2.2,0.3,3.7,0.4,6.8,0.4H349.8z"/>
	<path class="st0" d="M417.6,87.1h20.3c3.9,0,7.3-0.1,9.2-0.4V95c-2.5-0.3-5.5-0.4-9.2-0.4h-48.5c-3.8,0-6.7,0.1-9.3,0.4v-8.3
		c1.6,0.2,6,0.4,9.3,0.4h19.9V74.2h-14.5c-4,0-6.4,0.1-8.6,0.4v-8.4c2.3,0.3,4.3,0.4,7.9,0.4h38c3.5,0,6.6-0.1,8.8-0.4v8.4
		c-2.3-0.3-5-0.4-8.8-0.4h-14.6v12.9H417.6z M409.9,49.7c-4.2,4.7-6.5,6.7-11.2,9.7c-4.1,2.7-7,4.1-13.2,6.6
		c-1.3-3.1-2.5-4.9-5.1-6.7c6.1-2.2,8.9-3.4,12.4-5.3c4.2-2.3,6.2-4,10.3-8.2L409.9,49.7z M409.1,35.5c-0.6-1.6-1.1-2.8-2.8-6.3
		l7.8-2.2c1.5,3.1,2.2,4.6,3.6,8.5h20.1c3.4,0,5.6-0.1,8.2-0.4c-0.2,1.6-0.3,3.1-0.3,5.6v4.1c0,2.2,0.1,3.8,0.4,5.6h-8.2v-7.6h-48.5
		v10h-8.3c0.3-2,0.4-3.8,0.4-6.1v-5.9c0-2.5-0.1-3.9-0.3-5.6c2.6,0.3,4.7,0.4,8.2,0.4h19.7V35.5z M439.5,65.2
		c-8.5-7.2-12.6-10-21.6-14.7l4.9-5.2c9.9,4.8,15.1,7.9,22.8,13.7L439.5,65.2z"/>
</g>
<g>
	<polygon class="st0" points="248.6,135.5 243.2,135.3 248.9,114.2 259.4,114.2 265.1,135.3 253.7,135.3 253.7,132.2 258.3,132 
		255.4,119.2 252.8,119.2 	"/>
	<path class="st0" d="M371.4,126.1c1.6,3.1,4.7,9.1,4.7,9.1h-5.2l-5.2-10.4l4.2-0.2v-6.3h-7.1v17.1h-5.3v-21.2c0,0,2.8,0,4.2,0
		c3.1,0,6.1,0,9.2,0c3.6,0,4.4,0.8,4.4,4.3c0,1.1,0,2.3,0,3.4C375.3,125.2,375.1,125.5,371.4,126.1z"/>
	<path class="st0" d="M223.7,118.2v17.1h-5.1v-21.2c0,0,10-0.1,14.9,0c2.1,0,3.2,1.1,3.2,3.1c0.1,6,0,18,0,18h-5.2c0,0,0-11.2,0-17
		C228.8,118.2,223.7,118.2,223.7,118.2z"/>
	<path class="st0" d="M317.4,124.8c3.4,1.2,3.6,0.8,4.2,2.1c1,2.1,4,8.5,4,8.5h-6l-3-7.9h-2.1l-3,7.9h-6c0,0,2.4-6,3.7-8.8
		c0.5-1.1,1.1-0.8,4.4-1.8c-2.9-1.5-3.6-1.4-4-2.4c-1.6-3.3-3.8-8.1-3.8-8.1h5.8l3,8.1h2l3-8.2h5.7c0,0-2.5,5.8-3.7,8.3
		C321.1,123.4,320.3,123.4,317.4,124.8z"/>
	<polygon class="st0" points="179.3,114.2 184.4,114.2 184.4,122.6 192.1,122.6 192.1,114.2 197.1,114.2 197.1,135.3 192.1,135.3 
		192.1,126.9 184.5,126.9 184.5,135.3 179.3,135.3 	"/>
	<path class="st0" d="M406.3,135.4l1.4-4.1h10v-5.1c0,0-4.6,0-7,0c-2.9,0-3.8-0.9-3.8-3.8c0-1.8,0-3.7,0-5.5
		c0.1-1.6,0.9-2.8,2.5-2.9c4.4-0.1,13.6,0,13.6,0l-1.3,3.9h-9.4v5.2c0,0,4.6,0,6.9,0c2.9,0,3.8,0.9,3.9,3.8c0,1.7,0.1,3.3,0,5
		c-0.1,2.4-1,3.4-3.4,3.5C415.4,135.5,406.3,135.4,406.3,135.4z"/>
	<path class="st0" d="M337.9,128v7.3h-5.1v-21.2c0,0,2.9,0,4.3,0c3.2,0,6.3,0,9.5,0c2.5,0,3.5,1,3.6,3.5c0,2.3,0,4.6,0,6.8
		c0,2.5-1,3.5-3.5,3.5C343.8,128,337.9,128,337.9,128z M344.7,118.2H338v6.3h6.7V118.2z"/>
	<polygon class="st0" points="283.3,135.3 283.3,114.2 298.6,114.2 297.5,118 288.7,118 288.7,123.1 297,123.1 296.9,125.9 
		288.7,125.9 288.7,131.4 298.7,131.4 297.4,135.3 	"/>
	<path class="st0" d="M446.9,114.1l-1.3,3.9h-9.5v5.2c0,0,4.8,0,7.1,0c2.6,0,3.7,1,3.7,3.6c0.1,1.8,0.1,3.7,0,5.5
		c-0.1,1.7-0.9,3-2.7,3c-4.6,0.1-14.1,0-14.1,0l1.3-3.8h10.1v-5.2c0,0-4.6,0-6.9,0c-3,0-3.9-1-4-3.9c0-1.8-0.1-3.5,0-5.3
		c0.1-1.9,1.1-2.9,3-3C438,114,446.9,114.1,446.9,114.1z"/>
	<polygon class="st0" points="399.2,114.3 397.9,118 389.1,118 389.1,123.1 397.5,123.1 397.5,125.9 389.2,125.9 389.2,131.4 
		399.3,131.4 397.9,135.3 383.9,135.3 383.9,114.3 	"/>
	<path class="st0" d="M161.9,118v13.4h9.8l-1.4,3.9c0,0-7.2,0.1-10.7,0c-2.2-0.1-3.1-1.1-3.2-3.4c-0.1-4.8-0.1-9.7,0-14.5
		c0-2.3,1-3.3,3.1-3.4c3.9-0.1,12.1,0,12.1,0l-1.4,4H161.9z"/>
	<rect x="205.3" y="114.2" class="st0" width="5.1" height="21"/>
</g>
</svg>
