<?xml version="1.0" encoding="utf-8"?>
<!-- Generator: Adobe Illustrator 22.1.0, SVG Export Plug-In . SVG Version: 6.00 Build 0)  -->
<svg version="1.1" id="Слой_7" xmlns="http://www.w3.org/2000/svg" xmlns:xlink="http://www.w3.org/1999/xlink" x="0px" y="0px"
	 viewBox="0 0 744.6 499" style="enable-background:new 0 0 744.6 499;" xml:space="preserve">
<style type="text/css">
	.st0{fill:#7CA7CB;}
	.st1{fill:#001B46;}
	.st2{fill:#FF1622;}
	.st3{fill:#FFFFFF;}
</style>
<path class="st0" d="M427.5,158.4l-0.4-1.3c-4.9-17.4-12-33.9-20.8-49.2h0l-0.8-1.3c-9.5-16.2-21.1-31-34.3-44.1l-1.4-1.3
	C330.9,23.4,277.9,0,219.5,0C100.5,0,3.7,96.8,3.7,215.8c0,92.4,58.3,171.3,140.1,202.1l1.4,0.5c23.2,8.5,48.2,13.2,74.4,13.2
	s51.2-4.7,74.4-13.2l3.4-1.3c80.7-31.3,138.1-109.7,138.1-201.3C435.3,196,432.6,176.7,427.5,158.4z M80,321.2
	c-6.9-16.1-12.3-33.4-15.8-51.7h39.5c2.6,18.3,6.5,35.6,11.6,51.7H80z M115.7,322.5c4.8,15.1,10.6,29.1,17.2,41.6h-28.7
	c-9.1-12.5-17-26.5-23.6-41.6H115.7z M63.9,268.2c-3.2-16.8-4.9-34.3-4.9-52.4c0-0.6,0-1.2,0-1.9h40.9c0,0.6,0,1.2,0,1.9
	c0,18.1,1.3,35.6,3.6,52.4H63.9z M59.1,212.6c0.2-18.8,2.2-36.9,5.9-54.2h39.3c-2.7,17.3-4.1,35.5-4.3,54.2H59.1z M65.2,157.1
	c3.7-17.4,9.1-33.9,15.9-49.2h35c-4.9,15.3-8.8,31.8-11.6,49.2H65.2z M81.7,106.6c7.3-16.2,16.2-31,26.3-44.1h27.6
	c-7.4,13.1-13.8,27.9-19.1,44.1H81.7z M109,61.2c9.6-12.2,20.4-22.8,32-31.5h18.3c-8.4,8.8-16.1,19.4-23,31.5H109z M106.3,61.2H86.6
	c11.6-12.2,24.6-22.8,38.6-31.5h12.3C126.2,38.5,115.7,49.1,106.3,61.2z M105.2,62.5c-10,13.1-18.7,27.9-25.9,44.1H53.6
	c8.8-16.2,19.5-31,31.7-44.1H105.2z M78.7,107.9c-6.7,15.3-12,31.8-15.7,49.2H33.8c4.5-17.4,11-33.9,19.1-49.2H78.7z M62.7,158.4
	c-3.6,17.3-5.6,35.5-5.8,54.2H26.4c0.3-18.8,2.7-36.9,7.1-54.2H62.7z M56.9,214c0,0.6,0,1.2,0,1.9c0,18.1,1.7,35.6,4.9,52.4H32.2
	c-3.8-16.8-5.9-34.3-5.9-52.4c0-0.6,0-1.2,0-1.9H56.9z M61.9,269.5c3.5,18.3,8.9,35.6,15.7,51.7H51.6c-8.3-16.1-14.8-33.4-19.1-51.7
	H61.9z M78.2,322.5c6.5,15.1,14.4,29.1,23.3,41.6H80.7c-10.9-12.5-20.5-26.5-28.5-41.6H78.2z M102.5,365.4c9.5,13,20.1,24.5,31.8,34
	h-13.1c-14.4-9.4-27.6-20.9-39.3-34H102.5z M105.1,365.4h28.4c7,13,14.8,24.5,23.4,34h-19.2C125.8,390,114.8,378.6,105.1,365.4z
	 M158.2,400.8c5.9,6.4,12.2,11.9,18.7,16.3h-10.8c-9.3-4.4-18.2-9.9-26.6-16.3H158.2z M160.7,400.8h27.5c3,6.4,6.3,11.9,9.6,16.3
	h-17.8C173.3,412.7,166.8,407.2,160.7,400.8z M159.4,399.5c-8.7-9.5-16.8-20.9-23.8-34h40c3.6,13,7.6,24.5,12.1,34H159.4z
	 M134.8,364.1c-6.7-12.5-12.5-26.5-17.3-41.6h48.8c2.5,15.1,5.4,29.1,8.8,41.6H134.8z M117.1,321.2c-5-16.1-9-33.4-11.6-51.7h54.6
	c1.3,18.3,3.4,35.6,5.9,51.7H117.1z M105.3,268.2c-2.3-16.8-3.6-34.3-3.6-52.4c0-0.6,0-1.2,0-1.9h56.5c0,0.6,0,1.2,0,1.9
	c0,18.1,0.6,35.6,1.8,52.4H105.3z M101.8,212.6c0.2-18.8,1.6-36.9,4.3-54.2h54.4c-1.4,17.3-2.1,35.5-2.2,54.2H101.8z M106.3,157.1
	c2.7-17.4,6.7-33.9,11.6-49.2h48.6c-2.5,15.3-4.5,31.8-5.9,49.2H106.3z M118.4,106.6c5.3-16.2,11.8-31,19.3-44.1h38.9
	c-3.8,13.1-7.1,27.9-9.8,44.1H118.4z M138.4,61.2c7-12.2,14.9-22.8,23.4-31.5h27c-4.3,8.8-8.3,19.4-11.8,31.5H138.4z M163.1,28.4
	c8.1-8.1,16.8-14.4,25.9-18.9h13.1c-4.4,4.6-8.7,11-12.6,18.9H163.1z M191.9,8.2c6.1-2.7,12.4-4.5,18.8-5.3
	c-2.5,1.3-4.9,3.1-7.3,5.3H191.9z M195.3,4.8c-2.6,1-5.2,2.1-7.7,3.4h-5.2C186.6,6.8,190.9,5.6,195.3,4.8z M185,9.5
	c-8.6,4.7-16.7,11-24.4,18.9h-17.9c11.1-8.1,23-14.4,35.5-18.9H185z M176.8,7.7c-0.4,0.1-0.7,0.3-1.1,0.4h-0.5
	C175.7,8,176.3,7.9,176.8,7.7z M172.2,9.5c-11.6,4.7-22.6,11.1-33,18.9h-12c13.4-8.1,27.8-14.5,43-18.9H172.2z M150.1,14.2
	c-9.4,4-18.5,8.7-27.2,14.2h-5.1C128,22.8,138.8,18,150.1,14.2z M115.4,29.7h5.3c-13.6,8.8-26.2,19.4-37.5,31.5H72.8
	C85.6,49,99.9,38.4,115.4,29.7z M71.4,62.5H82c-12,13.1-22.5,27.9-31.1,44.1H36.3C46,90.4,57.9,75.6,71.4,62.5z M35.6,107.9h14.7
	c-8,15.3-14.4,31.8-18.9,49.2H14.4C19.4,139.7,26.6,123.2,35.6,107.9z M14.1,158.4H31c-4.3,17.3-6.8,35.5-7,54.2H6.2
	C6.5,193.9,9.2,175.7,14.1,158.4z M6.1,215.8c0-0.6,0-1.2,0-1.9H24c0,0.6,0,1.2,0,1.9c0,18.1,2,35.6,5.9,52.4H12.7
	C8.4,251.4,6.1,233.9,6.1,215.8z M30,269.5c4.3,18.3,10.7,35.6,18.9,51.7H34.1c-9.2-16-16.3-33.4-21.1-51.7H30z M34.9,322.5h14.7
	c7.8,15.1,17.2,29.1,28,41.6H66.3C54.2,351.6,43.6,337.6,34.9,322.5z M67.6,365.4h11.2c11.4,13,24.2,24.5,38.2,34h-5.8
	C95.1,390,80.5,378.6,67.6,365.4z M148.9,417.1c-12.4-4.4-24.3-9.9-35.6-16.3h5.5c9.6,6.4,19.7,11.8,30.3,16.3H148.9z M123.3,400.8
	h12.6c8,6.4,16.5,11.8,25.3,16.3h-5.8C144.2,412.8,133.5,407.3,123.3,400.8z M159,418.5h4.8c4.3,2.1,8.6,3.9,13.1,5.5
	C170.8,422.4,164.8,420.6,159,418.5z M169,418.5h9.7c5.3,3.5,10.9,6.3,16.5,8.4C186.3,425.1,177.5,422.2,169,418.5z M182.2,418.5
	h16.6c3.8,4.8,7.8,8.3,11.9,10.4C200.8,427.5,191.3,424,182.2,418.5z M218.8,429.1c-1.3,0-2.6-0.1-4-0.1c-5-1.4-9.9-5-14.5-10.6
	h18.5V429.1z M218.8,417.1h-19.6c-3.4-4.4-6.7-9.9-9.8-16.3h29.4V417.1z M218.8,399.5h-30c-4.4-9.5-8.5-20.9-12.1-34h42.1V399.5z
	 M218.8,364.1h-42.5c-3.4-12.5-6.3-26.5-8.8-41.6h51.2V364.1z M218.8,321.2h-51.5c-2.6-16.1-4.6-33.4-5.9-51.7h57.3V321.2z
	 M218.8,268.2h-57.4c-1.2-16.8-1.8-34.3-1.8-52.4c0-0.6,0-1.2,0-1.9h59.2V268.2z M218.8,212.6h-59.2c0.1-18.8,0.8-36.9,2.2-54.2
	h57.1V212.6z M218.8,157.1h-56.9c1.4-17.4,3.4-33.9,5.9-49.2h51V157.1z M218.8,106.6H168c2.7-16.2,6-31,9.8-44.1h41.1V106.6z
	 M218.8,61.2h-40.7c3.6-12.2,7.5-22.7,11.9-31.5h28.8V61.2z M218.8,28.4h-28.2c4.1-8,8.5-14.4,13.1-18.9h15.1V28.4z M218.8,8.2
	h-13.7c3.2-2.8,6.4-4.6,9.7-5.5c1.3,0,2.6-0.1,4-0.1V8.2z M432.7,212.6H415c-0.2-18.7-2.7-36.9-7-54.2h16.9
	C429.8,175.7,432.5,193.9,432.7,212.6z M277.2,29.7c8.5,8.7,16.4,19.3,23.4,31.5H262c-3.6-12.1-7.5-22.7-11.8-31.5H277.2z
	 M249.5,28.4c-4-7.9-8.2-14.2-12.6-18.9H250c9.1,4.4,17.8,10.8,25.9,18.9H249.5z M323.7,321.2c5-16.1,9-33.4,11.6-51.7h39.5
	c-3.6,18.3-9,35.6-15.8,51.7H323.7z M358.4,322.5c-6.6,15.1-14.5,29.1-23.6,41.6h-28.7c6.6-12.5,12.4-26.5,17.2-41.6H358.4z
	 M335.5,268.2c2.3-16.8,3.6-34.3,3.6-52.4c0-0.6,0-1.2,0-1.9h40.9c0,0.6,0,1.2,0,1.9c0,18.1-1.7,35.6-4.9,52.4H335.5z M357.9,107.9
	c6.8,15.3,12.1,31.8,15.9,49.2h-39.2c-2.7-17.4-6.6-33.9-11.6-49.2H357.9z M322.5,106.6c-5.3-16.2-11.7-31-19.1-44.1H331
	c10.2,13.1,19,27.9,26.3,44.1H322.5z M374,158.4c3.6,17.3,5.7,35.5,5.9,54.2H339c-0.2-18.7-1.6-36.9-4.3-54.2H374z M376.2,158.4
	h29.3c4.4,17.3,6.8,35.5,7.1,54.2h-30.5C381.9,193.9,379.8,175.7,376.2,158.4z M376,157.1c-3.7-17.4-9-33.9-15.7-49.2h25.8
	c8.1,15.3,14.6,31.8,19.1,49.2H376z M359.7,106.6c-7.2-16.2-15.9-31-25.9-44.1h19.9c12.2,13.1,22.9,27.9,31.7,44.1H359.7z
	 M332.7,61.2c-9.4-12.1-19.9-22.7-31.2-31.5h12.3c14,8.7,27,19.3,38.6,31.5H332.7z M329.9,61.2h-27.3c-6.9-12.1-14.6-22.7-23-31.5
	h18.3C309.6,38.4,320.3,49,329.9,61.2z M301.3,62.5c7.4,13.1,13.9,27.9,19.3,44.1h-48.4c-2.7-16.2-6-31-9.8-44.1H301.3z M321,107.9
	c4.9,15.3,8.9,31.8,11.6,49.2h-54.2c-1.4-17.4-3.4-33.9-5.9-49.2H321z M332.9,158.4c2.7,17.3,4.2,35.5,4.3,54.2h-56.5
	c-0.1-18.7-0.8-36.9-2.2-54.2H332.9z M280.7,214h56.5c0,0.6,0,1.2,0,1.9c0,18.1-1.3,35.6-3.6,52.4h-54.7c1.2-16.8,1.8-34.3,1.8-52.4
	C280.7,215.2,280.7,214.6,280.7,214z M333.4,269.5c-2.6,18.3-6.6,35.6-11.6,51.7h-49c2.6-16.1,4.6-33.4,5.9-51.7H333.4z
	 M321.4,322.5c-4.8,15.1-10.6,29.1-17.3,41.6h-40.3c3.4-12.5,6.4-26.5,8.8-41.6H321.4z M303.4,365.4c-7.1,13.1-15.1,24.6-23.8,34
	h-28.2c4.4-9.5,8.5-21,12.1-34H303.4z M278.3,400.8c-6.1,6.5-12.6,12-19.4,16.3h-17.8c3.4-4.5,6.6-10,9.6-16.3H278.3z M280.8,400.8
	h18.7c-8.4,6.5-17.3,12-26.6,16.3h-10.8C268.6,412.6,274.9,407.2,280.8,400.8z M282,399.5c8.6-9.5,16.5-21,23.4-34h28.4
	c-9.7,13.1-20.7,24.6-32.6,34H282z M336.5,365.4h20.6c-11.7,13.1-24.9,24.6-39.3,34h-13.1C316.3,389.9,327,378.5,336.5,365.4z
	 M337.4,364.1c9-12.5,16.8-26.5,23.3-41.6h25.9c-7.9,15.1-17.5,29.1-28.5,41.6H337.4z M361.3,321.2c6.8-16.1,12.2-33.4,15.7-51.7
	h29.5c-4.3,18.3-10.8,35.6-19.1,51.7H361.3z M377.3,268.2c3.2-16.8,4.9-34.3,4.9-52.4c0-0.6,0-1.2,0-1.9h30.5c0,0.6,0,1.2,0,1.9
	c0,18.1-2.1,35.6-5.9,52.4H377.3z M424.5,157.1h-16.9c-4.5-17.4-10.8-33.9-18.9-49.2h14.7C412.4,123.2,419.5,139.7,424.5,157.1z
	 M402.7,106.6h-14.6c-8.6-16.2-19.1-31-31.1-44.1h10.7C381.1,75.6,392.9,90.4,402.7,106.6z M366.2,61.2h-10.5
	c-11.3-12.1-23.8-22.7-37.5-31.5h5.3C339,38.4,353.4,49,366.2,61.2z M321.1,28.4h-5c-8.7-5.5-17.8-10.2-27.2-14.2
	C300.1,18,310.8,22.8,321.1,28.4z M268.6,9.5c15.2,4.4,29.6,10.8,43.1,18.9h-12c-10.4-7.8-21.4-14.2-33-18.9H268.6z M263.7,8.2h-0.5
	c-0.4-0.1-0.7-0.3-1.1-0.4C262.7,7.9,263.2,8,263.7,8.2z M260.7,9.5c12.5,4.4,24.4,10.8,35.5,18.9h-17.9
	c-7.7-7.8-15.8-14.2-24.4-18.9h4.8H260.7z M256.6,8.2h-5.2c-2.5-1.3-5.1-2.4-7.7-3.4C248.1,5.6,252.4,6.8,256.6,8.2z M247.1,8.2
	h-11.5c-2.4-2.3-4.8-4.1-7.3-5.3C234.7,3.7,241,5.5,247.1,8.2z M220.1,2.5c1.3,0,2.6,0.1,4,0.1c3.3,0.9,6.6,2.8,9.7,5.5h-13.7V2.5z
	 M220.1,9.5h15.1c4.6,4.5,9,10.8,13.1,18.9h-28.2V9.5z M220.1,29.7H249c4.3,8.7,8.3,19.3,11.9,31.5h-40.7V29.7z M220.1,62.5h41.1
	c3.8,13.1,7.1,27.9,9.8,44.1h-50.8V62.5z M220.1,107.9h51c2.5,15.3,4.5,31.8,5.9,49.2h-56.9V107.9z M220.1,158.4h57.1
	c1.4,17.3,2.1,35.5,2.2,54.2h-59.2V158.4z M220.1,214h59.2c0,0.6,0,1.2,0,1.9c0,18.1-0.6,35.6-1.8,52.4h-57.4V214z M220.1,269.5
	h57.3c-1.3,18.3-3.3,35.6-5.9,51.7h-51.5V269.5z M220.1,322.5h51.2c-2.4,15.1-5.4,29.1-8.8,41.6h-42.5V322.5z M220.1,365.4h42.1
	c-3.6,13.1-7.6,24.5-12.1,34h-30V365.4z M220.1,400.8h29.4c-3.1,6.4-6.4,11.9-9.8,16.3h-19.6V400.8z M220.1,429.1v-10.7h18.5
	c-4.6,5.6-9.5,9.2-14.5,10.6C222.8,429.1,221.5,429.1,220.1,429.1z M240.1,418.5h16.6c-9.1,5.5-18.6,9-28.5,10.4
	C232.4,426.7,236.3,423.2,240.1,418.5z M260.2,418.5h9.7c-8.5,3.7-17.2,6.6-26.3,8.4C249.3,424.8,254.9,422,260.2,418.5z
	 M262.1,423.9c4.4-1.6,8.8-3.4,13.1-5.5h4.8C274.1,420.6,268.2,422.4,262.1,423.9z M277.8,417.1c8.8-4.5,17.3-10,25.3-16.3h12.6
	c-10.2,6.5-20.9,12-32.2,16.3H277.8z M290,417.1h-0.2c10.6-4.5,20.7-10,30.3-16.3h5.4v-1.3H322c14-9.6,26.8-21,38.2-34h11.2
	C348.8,388.4,321,406.2,290,417.1z M372.6,364.1h-11.3c10.8-12.5,20.2-26.5,28-41.6h14.7C395.3,337.7,384.7,351.6,372.6,364.1z
	 M404.9,321.2h-14.8c8.2-16.1,14.6-33.4,18.9-51.7h17C421.2,287.8,414,305.1,404.9,321.2z M409.2,268.2c3.8-16.8,5.9-34.3,5.9-52.4
	c0-0.6,0-1.2,0-1.9h17.8c0,0.6,0,1.2,0,1.9c0,18.1-2.3,35.6-6.5,52.4H409.2z"/>
<g>
	<path class="st1" d="M421.6,232.9c-2.2-10.8-5.6-21.4-10.2-31.5c-4.6-10-10.2-19.5-16.5-28.5c11.7,18.5,20.5,39,24,60.4
		c3.5,21.4,1.5,43.6-5.7,63.9c-7.1,20.4-18.8,39-33.3,54.9c-14.5,16-31.4,29.7-50,40.7c-13.4,8-27.5,14.6-42.2,19.9
		c7.8-3.6,15.4-7.7,22.6-12.3c-23.4,11.8-48.7,19.4-74.4,22.1c-25.7,2.7-51.7,0.4-76.4-6.7c-24.6-7.1-47.8-18.9-67.9-34.7
		c-20.2-15.7-37.2-35.4-50.3-57.5c-12.9-22.2-21.4-46.9-24.8-72.4c-3.5-25.5-1.9-51.7,4.4-76.7c6.4-25,17.6-48.9,33.1-69.7
		C69.7,84,89.4,66.2,111.8,52.7c-23.1,12.4-43.7,29.5-60.2,50.2c-16.5,20.7-28.7,44.7-35.9,70.3c-1.1,3.7-2,7.5-2.8,11.3
		c0.3-2,0.6-4,1-6c1.9-10.6,4.4-21.1,8-31.2c13.8-40.8,40.4-77.2,75.3-103c17.3-13,36.8-23.2,57.4-30.3c10.3-3.5,20.9-6.2,31.7-8.1
		c10.8-1.9,21.7-2.9,32.6-3.3c-43.9-1.3-88.2,12.4-124.6,37.7c-9.1,6.3-17.7,13.4-25.7,21.1c-8,7.7-15.5,15.9-22.3,24.8
		c-6.8,8.8-12.8,18.2-18.2,28c-5.3,9.8-9.9,20-13.7,30.5C-1,186.7-2.1,233.6,9.8,276.7c12,43.2,37.8,82.6,72.9,110.6
		c35.1,28.1,79.1,44.7,123.9,46.9c22.4,1.4,45.1-1.5,66.5-7.5c21.5-6,42.1-15.3,61-27.1c18.9-11.8,36.3-26.1,50.8-43.1
		c14.5-16.9,26.3-36.4,33-57.7C424.7,277.5,426,254.6,421.6,232.9z"/>
	<path class="st1" d="M185.8,375.3l-4.7-3.4c-1.5-1.1-3-2.4-4.5-3.6c-5.9-4.9-11.5-10.3-16.6-16.2c-10.1-11.7-18.4-25-24.3-39.4
		c-3.8-9.3-6.7-18.9-8.5-28.8c0.6-4.3,1.3-8.6,2.1-12.8c1.5-7.1,3.4-14.2,5.5-21.2c-2.2,7-4.2,14-5.8,21.2
		c-0.8,3.8-1.5,7.6-2.1,11.4c-0.9-4.9-1.5-9.8-1.8-14.8c-2.3-31.1,6.5-62.8,24.2-88.6c-18.2,25.5-27.6,57.2-25.9,88.7
		c0.3,7.1,1.2,14.1,2.6,21.1c-0.2,1.3-0.3,2.6-0.4,4c-1.4,14.6-0.6,29.5,3.3,43.6c3.9,14.2,11.3,27.4,21.2,38.3
		c5,5.5,10.5,10.4,16.3,14.9c5.8,4.5,12.2,8.4,18.9,11.5c13.4,6.2,28,9.8,42.8,11.1c14.8,1.2,29.8,0.2,44.2-3.5
		c6.2-1.6,12.3-3.6,18.3-6.1c6.4-1.2,12.8-2.8,19-5.1c7.8-2.8,15.4-6.1,22.5-11.9l-5.4-6.1c1.2-1.1,2.4-2.2,3.5-3.3
		c5.3-5.3,10.1-11,14.5-17.1l-5.5-3.9c-4.1,5.9-8.5,11.4-13.4,16.6c-4.2,4.3-8.8,8.3-13.6,12c-2.2,1.1-4.5,2.2-6.7,3.1
		c-6.8,2.9-14.1,5-21.4,6.6c-14.8,3.1-30.1,3.9-45.2,1.9c-15.1-2-29.9-6.7-43.3-14.1C192.3,379.5,189,377.5,185.8,375.3z M267.7,405
		c-12.7,3.1-26,4.2-39.2,3.5c-14.4-0.9-28.7-4-41.9-9.8c-26.2-11.8-48.3-34.6-56.4-62.6c-4.1-14-5.1-28.7-3.9-43.3
		c0.1-0.7,0.1-1.4,0.2-2.1c1.7,7.9,4,15.6,6.9,23.1c5.7,14.7,13.9,28.4,24,40.6c10.2,12.1,22.4,22.5,35.8,31
		c13.5,8.4,28.7,14.3,44.5,17.3C247.7,404.5,257.7,405.3,267.7,405z"/>
</g>
<g>
	<g>
		<path class="st1" d="M345.1,425.4c27.8-241.7,29.7-355.3,134.4-402C408.8,23.3,262,143.7,38,299.6
			C50,304.5,345.1,425.4,345.1,425.4z"/>
	</g>
	<path class="st2" d="M80.3,320.3L80.3,320.3l-45.7-20.6c0,0,326.9-227.8,342.7-233.5c-2.9,2.6-5.8,5.3-8.7,7.9
		c-133.5,120.1-249,225.3-272.9,247c-2.1,1.9-3.5,3.2-4.1,3.8L80.3,320.3z"/>
	<path class="st2" d="M408.8,54.3c-35.9,24.2-93,119.6-221.1,304.5c-1,1.4-1.9,2.8-2.9,4.2c-0.7-0.3-1.7-0.7-3-1.2
		c-0.1,0-0.2-0.1-0.3-0.1c-30.5-12.4-60.6-24.7-85.8-35c0.8-0.7,1.7-1.5,2.5-2.2c0.6-0.5,1.1-1,1.7-1.5
		c93.4-82.5,158.7-142.5,205.3-184.7l0.5-0.5C363,85.7,391.6,60.8,408.8,54.3z"/>
	<path class="st2" d="M420.2,54.3C377.3,101,359.3,170,279.5,400.6c-6.3-3.2-81.5-33.3-89.7-37.7c0.2-0.3,0.4-0.5,0.6-0.8
		c47.4-63,88.4-125.5,123.4-177.8C358.3,118,393.3,68.1,420.2,54.3z"/>
	<path class="st2" d="M432.2,54.3C364,132.5,374.7,227.4,345.1,426c-8.7-3.2-45-17.9-59.3-24.7c15.7-39.3,39.1-120.8,65.9-195.6
		C376.6,136.3,404.5,72.8,432.2,54.3z"/>
	<path class="st3" d="M351.7,205.7L296,405.5l-10.2-4.2C301.3,361,324.3,280.6,351.7,205.7z"/>
	<polygon class="st3" points="259.2,145.8 52.7,305.9 38,299.6 	"/>
	<path class="st3" d="M311.6,132.5L110,329.3l-11.8-4.8c94.3-83.3,160.2-143.7,207-186.2l0.5-0.5L311.6,132.5z"/>
	<path class="st3" d="M334.4,154L202.9,367.2l-12.5-5.1c46.2-63.7,53.2-75,88.9-128.1L334.4,154z"/>
	<path class="st1" d="M31.4,300.4c2.8,1.2,21.6,8.8,48.8,19.9c0,0,0,0,0,0c3.6,1.5,7.4,3,11.3,4.6c1.4,0.6,2.7,1.1,4.1,1.7
		c25.2,10.3,55.3,22.6,85.8,35c0.1,0,0.2,0.1,0.3,0.1c81.3,33.2,165.2,67.4,165.2,67.4C374.7,187.4,374.7,70,479.5,23.3
		C408.8,23.3,255.5,144.6,31.4,300.4z M385.6,130.4c-17,53.7-24.6,123.9-35.1,221c-2.4,22.5-4.9,45.8-7.8,70.6l-155-63.2l-87.8-35.8
		l-4.2-1.7l-53.8-21.9c41.6-29,80.2-56.4,117.6-82.9c82.7-58.7,153.1-108.6,209.1-142.2c32.3-19.4,59.9-33.4,82.1-40.5
		C420.3,54.7,399.7,85.5,385.6,130.4z"/>
</g>
<g>
	<g>
		<path class="st1" d="M368,318.1c4-4.3,9-7.7,14.8-10c5.9-2.4,12.6-3.6,20-3.6c5.1,0,9.6,0.4,13.3,1.2c3.7,0.8,6.9,1.8,9.6,2.9
			c2.7,1.1,4.9,2.3,6.7,3.4c2.2,1.4,4.2,2.6,6,3.6c6,3.5,12.3,1.9,15.8-3.6l8.1-13l-3.6-3.3c-3.3-3-7-5.8-10.8-8.3
			c-3.9-2.5-8.2-4.6-12.7-6.3c-4.5-1.7-9.5-3-14.8-3.9c-5.2-0.9-10.9-1.3-17-1.3c-12,0-23,1.9-32.8,5.8c-9.9,3.9-18.4,9.4-25.4,16.4
			c-7,7.1-12.4,15.6-16.2,25.4c-3.7,9.7-5.6,20.6-5.6,32.3c0,11.6,1.9,22.4,5.7,32.1c3.8,9.8,9.2,18.3,16.1,25.4
			c6.9,7,15.1,12.6,24.6,16.5c9.4,3.9,19.9,5.8,31.1,5.8c6.2,0,12.1-0.3,17.4-1c5.4-0.7,10.6-1.7,15.3-3.1c4.8-1.4,9.4-3.2,13.6-5.3
			c4.2-2.1,8.3-4.6,12.2-7.4l2.4-1.8v-64.4h-56.2v17c0,2.7,1,5.1,3,7c1.3,1.2,3.6,2.7,7.1,2.7h16.6v22.5c-1.3,0.6-2.7,1.2-4,1.8
			c-2.3,0.9-4.8,1.8-7.4,2.4c-2.6,0.7-5.5,1.2-8.5,1.5c-3,0.3-6.4,0.5-10.1,0.5c-7,0-13.5-1.2-19.2-3.5c-5.7-2.3-10.6-5.7-14.7-10
			c-4.1-4.4-7.4-9.8-9.7-16.2c-2.4-6.5-3.5-14.1-3.5-22.5c0-8.1,1.1-15.4,3.4-21.7C360.8,327.8,364,322.4,368,318.1z"/>
		<g>
			<path class="st1" d="M401,432.1c-10.8,0-20.8-1.9-29.8-5.6c-9-3.7-16.9-9-23.4-15.7c-6.5-6.7-11.7-14.8-15.3-24.2
				c-3.6-9.3-5.5-19.7-5.5-30.8c0-11.3,1.8-21.7,5.4-31c3.6-9.4,8.7-17.5,15.4-24.2c6.6-6.7,14.8-12,24.1-15.6
				c9.4-3.7,20-5.5,31.5-5.5c5.8,0,11.3,0.4,16.4,1.3c5,0.9,9.8,2.1,14.1,3.8c4.3,1.6,8.4,3.6,12.1,6c3.7,2.3,7.1,5,10.3,7.9
				l1.4,1.3l-6.6,10.5c-2,3.1-4.6,3.8-6.4,3.8c-1.5,0-3.1-0.5-4.7-1.4c-1.7-0.9-3.6-2.1-5.8-3.5c-2-1.3-4.4-2.5-7.3-3.7
				c-2.9-1.2-6.3-2.2-10.2-3.1c-3.9-0.8-8.6-1.3-14-1.3c-7.8,0-15,1.3-21.3,3.8c-6.3,2.5-11.7,6.2-16.1,10.9
				c-4.4,4.7-7.8,10.5-10.2,17.2c-2.4,6.8-3.6,14.5-3.6,22.9c0,8.9,1.3,16.8,3.8,23.7c2.5,6.8,6,12.7,10.5,17.4
				c4.5,4.7,9.8,8.4,16,10.9c6.2,2.5,13.1,3.8,20.6,3.8c3.8,0,7.3-0.2,10.5-0.5c3.2-0.4,6.2-0.9,8.9-1.6c2.8-0.7,5.4-1.6,7.9-2.6
				c2.1-0.8,4.2-1.8,6.3-2.9v-28.3h-20.1c-1.9,0-3.5-0.6-4.7-1.8c-1.2-1.2-1.9-2.7-1.9-4.4v-13.4h49v59l-0.9,0.7
				c-3.7,2.7-7.7,5.1-11.7,7.1c-4,2-8.4,3.7-13,5c-4.6,1.3-9.5,2.4-14.8,3C412.7,431.7,407,432.1,401,432.1z"/>
			<path class="st3" d="M403.4,281.7c5.7,0,11,0.4,16,1.3c4.9,0.8,9.5,2.1,13.7,3.6c4.2,1.6,8.1,3.5,11.7,5.8
				c3.6,2.3,6.9,4.8,10,7.6l-5.6,8.9c-1.1,1.8-2.6,2.7-4.4,2.7c-1.1,0-2.3-0.4-3.5-1.1c-1.7-0.9-3.6-2.1-5.7-3.4
				c-2.1-1.3-4.6-2.6-7.6-3.9c-3-1.2-6.5-2.3-10.6-3.2c-4.1-0.9-8.9-1.3-14.5-1.3c-8.2,0-15.5,1.3-22.1,4
				c-6.6,2.7-12.2,6.5-16.9,11.4c-4.6,5-8.2,11-10.7,18c-2.5,7-3.7,14.9-3.7,23.7c0,9.2,1.3,17.3,3.9,24.5c2.6,7.2,6.2,13.3,11,18.2
				c4.7,5,10.3,8.8,16.8,11.4c6.5,2.6,13.6,3.9,21.4,3.9c3.9,0,7.5-0.2,10.8-0.6c3.3-0.4,6.3-0.9,9.2-1.7c2.9-0.7,5.6-1.6,8.2-2.7
				c2.6-1,5.1-2.2,7.7-3.6v-31.9h-22.4c-1.3,0-2.3-0.4-3.1-1.1c-0.8-0.7-1.2-1.7-1.2-2.7v-11.1H456v55.6c-3.6,2.6-7.4,4.9-11.4,6.9
				c-3.9,2-8.2,3.6-12.6,4.9c-4.5,1.3-9.3,2.3-14.4,2.9c-5.1,0.6-10.7,1-16.7,1c-10.5,0-20.1-1.8-28.9-5.4
				c-8.8-3.6-16.3-8.7-22.6-15.2c-6.3-6.5-11.3-14.3-14.8-23.4c-3.5-9.1-5.3-19.1-5.3-30c0-11,1.7-21.1,5.2-30.2
				c3.5-9.1,8.4-16.9,14.9-23.4c6.4-6.5,14.2-11.5,23.3-15.1C381.8,283.5,392.1,281.7,403.4,281.7 M403.4,277.1
				c-11.8,0-22.7,1.9-32.3,5.7c-9.7,3.8-18.1,9.2-24.9,16.2c-6.9,6.9-12.2,15.3-15.9,25c-3.7,9.6-5.5,20.3-5.5,31.9
				c0,11.4,1.9,22.1,5.6,31.7c3.7,9.6,9.1,18,15.8,24.9c6.7,6.9,14.9,12.4,24.2,16.2c9.3,3.8,19.6,5.8,30.6,5.8c6.2,0,12-0.3,17.2-1
				c5.3-0.7,10.4-1.7,15.1-3.1c4.7-1.4,9.2-3.1,13.4-5.2c4.1-2.1,8.2-4.5,12-7.3l1.9-1.4v-2.3v-55.6V354H456h-44.5H407v4.6v11.1
				c0,2.3,0.9,4.4,2.6,6c1.1,1.1,3.1,2.4,6.2,2.4h17.9v24.5c-1.6,0.8-3.2,1.5-4.8,2.2c-2.4,1-4.9,1.8-7.6,2.5
				c-2.7,0.7-5.6,1.2-8.6,1.6c-3.1,0.3-6.5,0.5-10.2,0.5c-7.2,0-13.8-1.2-19.7-3.6c-5.8-2.4-10.9-5.8-15.2-10.3
				c-4.3-4.5-7.6-10.1-10-16.7c-2.4-6.6-3.6-14.4-3.6-23c0-8.2,1.2-15.7,3.5-22.2c2.3-6.4,5.5-11.9,9.7-16.4
				c4.2-4.4,9.3-7.9,15.3-10.3c6-2.4,12.9-3.7,20.4-3.7c5.2,0,9.8,0.4,13.5,1.2c3.8,0.8,7.1,1.8,9.8,2.9c2.7,1.1,5.1,2.3,6.9,3.5
				c2.1,1.4,4.1,2.6,5.9,3.6c1.9,1.1,3.9,1.7,5.8,1.7c3.4,0,6.3-1.7,8.3-4.9l5.6-8.9l2-3.2l-2.8-2.6c-3.3-3-6.9-5.7-10.6-8.1
				c-3.8-2.4-8-4.5-12.5-6.2c-4.5-1.7-9.4-3-14.5-3.9C415,277.6,409.3,277.1,403.4,277.1L403.4,277.1z"/>
		</g>
		<polygon class="st1" points="480.3,434 511.7,434 511.7,371.7 571.1,371.7 571.1,344.1 511.7,344.1 511.7,305.1 581.2,305.1 
			581.2,277.5 480.3,277.5 		"/>
		<g>
			<polygon class="st1" points="483.9,430.5 483.9,281 577.7,281 577.7,301.6 508.2,301.6 508.2,347.7 567.6,347.7 567.6,368.2 
				508.2,368.2 508.2,430.5 			"/>
			<path class="st3" d="M575.4,283.3v16h-69.5v50.6h59.4v16h-59.4v62.3h-19.7V283.3H575.4 M580,278.8h-4.6h-89.2h-4.6v4.6v144.8v4.6
				h4.6h19.7h4.6v-4.6v-57.7h54.8h4.6v-4.6v-16v-4.6h-4.6h-54.8v-41.5h65h4.6v-4.6v-16V278.8L580,278.8z"/>
		</g>
		<path class="st1" d="M685,366.5c-2.3-4.8-5.5-8.9-9.3-12.3c-3.7-3.2-7.9-5.9-12.6-7.9c-4.3-1.9-8.8-3.7-13.2-5.2
			c-4.4-1.5-8.6-2.9-12.8-4.3c-3.7-1.2-7.1-2.7-10-4.4c-2.6-1.5-4.6-3.2-6.1-5.3c-1.2-1.6-1.8-3.8-1.8-6.6c0-2.4,0.4-4.6,1.3-6.6
			c0.8-1.9,2-3.6,3.6-5c1.7-1.5,3.9-2.7,6.5-3.6c2.7-1,6-1.4,9.7-1.4c4,0,7.3,0.5,9.9,1.4c2.9,1,5.4,2.1,7.3,3.3
			c2.1,1.3,3.9,2.4,5.2,3.4c2.6,2,5,2.9,7.5,2.9c2.4,0,4.4-0.6,6.1-1.9c1.3-1,2.4-2.3,3.4-3.9l-1.1-0.7l0,0l1.3,0.3l6.7-13.1l-3.1-3
			c-5.5-5.4-12.1-9.5-19.5-12.4c-7.3-2.8-15.5-4.2-24.2-4.2c-7.9,0-15.1,1.3-21.3,3.8c-6.3,2.5-11.6,5.9-15.9,10.1
			c-4.3,4.2-7.7,9.2-9.9,14.7c-2.3,5.5-3.4,11.2-3.4,17.1c0,7.2,1.2,13.5,3.5,18.5c2.3,5.1,5.4,9.4,9.2,12.8c3.7,3.3,7.9,6,12.6,8.1
			c4.3,1.9,8.8,3.6,13.3,5l12.7,4c3.7,1.2,7,2.6,9.9,4.3c2.5,1.5,4.5,3.3,6,5.4c1.3,1.8,1.9,4.3,1.9,7.4c0,3.2-0.5,6.1-1.6,8.6
			c-1,2.5-2.5,4.5-4.4,6.3c-1.9,1.8-4.4,3.2-7.2,4.2c-3,1.1-6.5,1.6-10.5,1.6c-4.8,0-8.9-0.6-12.1-1.9c-3.5-1.4-6.4-2.8-8.8-4.4
			c-2.5-1.7-4.7-3.3-6.3-4.6c-2.9-2.4-5.7-3.6-8.6-3.6c-2.1,0-4,0.6-5.8,1.7c-1.4,0.9-2.5,2-3.6,3.5l-8.1,13.4l3.1,3.2
			c6,6.3,13.3,11.4,21.7,15.1c8.4,3.7,17.8,5.6,28,5.6c8.4,0,16-1.3,22.7-3.9c6.8-2.6,12.6-6.3,17.2-11c4.7-4.7,8.3-10.2,10.8-16.5
			c2.4-6.2,3.6-12.9,3.6-20C688.6,377.4,687.4,371.4,685,366.5z M590.6,399.2L590.6,399.2L590.6,399.2L590.6,399.2L590.6,399.2z"/>
		<g>
			<path class="st1" d="M634.2,432.1c-9.6,0-18.6-1.8-26.5-5.3c-8-3.5-14.9-8.3-20.5-14.3l-1.2-1.3l6.6-10.8
				c0.8-1.1,1.7-1.9,2.7-2.6c1.1-0.7,2.4-1.1,3.8-1.1c2,0,4.1,0.9,6.3,2.8c1.7,1.5,4,3.1,6.6,4.9c2.6,1.7,5.8,3.3,9.5,4.8
				c3.6,1.4,8.1,2.1,13.4,2.1c4.4,0,8.3-0.6,11.7-1.8c3.3-1.2,6.2-2.8,8.5-4.9c2.3-2.1,4-4.6,5.2-7.5c1.2-2.9,1.8-6.3,1.8-9.9
				c0-3.9-0.9-7-2.6-9.4c-1.8-2.5-4.2-4.7-7.1-6.4c-3.1-1.8-6.7-3.3-10.6-4.6l-12.7-4c-4.4-1.4-8.7-3-13-4.9
				c-4.4-1.9-8.3-4.4-11.7-7.5c-3.5-3.1-6.3-7-8.4-11.6c-2.1-4.6-3.2-10.4-3.2-17.1c0-5.4,1.1-10.7,3.2-15.7c2.1-5,5.2-9.6,9.2-13.5
				c4-3.9,8.9-7.1,14.8-9.4c5.8-2.3,12.5-3.5,20-3.5c8.3,0,16.1,1.3,23,4c6.9,2.7,13.1,6.6,18.3,11.6l1.2,1.2l-5.5,10.8
				c-0.8,1.4-1.7,2.4-2.6,3.1c-1.1,0.8-2.4,1.2-4,1.2c-1.7,0-3.4-0.7-5.4-2.2c-1.4-1.1-3.3-2.3-5.5-3.6c-2.2-1.3-4.9-2.5-8-3.6
				c-3-1.1-6.7-1.6-11.1-1.6c-4.1,0-7.8,0.5-10.9,1.6c-3.1,1.1-5.6,2.5-7.7,4.3c-2,1.8-3.5,3.9-4.5,6.3c-1,2.4-1.5,5.1-1.5,8
				c0,3.5,0.8,6.4,2.5,8.7c1.8,2.4,4.2,4.5,7.2,6.2c3.1,1.8,6.7,3.4,10.7,4.7c4.2,1.4,8.4,2.8,12.8,4.3c4.4,1.5,8.7,3.2,12.9,5.1
				c4.3,1.9,8.3,4.4,11.7,7.4c3.5,3,6.3,6.8,8.4,11.1c2.1,4.4,3.2,9.8,3.2,16.2c0,6.6-1.1,12.9-3.4,18.7c-2.3,5.8-5.6,11-10,15.3
				c-4.3,4.3-9.7,7.7-16,10.2C649.3,430.8,642.1,432.1,634.2,432.1z"/>
			<path class="st3" d="M639.9,281.7c8.1,0,15.5,1.3,22.1,3.8c6.7,2.6,12.5,6.3,17.5,11.1l-4.8,9.3c-0.6,1-1.2,1.8-1.9,2.3
				c-0.7,0.5-1.6,0.8-2.6,0.8c-1.1,0-2.5-0.6-4-1.7c-1.5-1.1-3.4-2.4-5.8-3.8c-2.3-1.4-5.1-2.6-8.4-3.8c-3.3-1.1-7.2-1.7-11.9-1.7
				c-4.4,0-8.3,0.6-11.6,1.8c-3.4,1.2-6.2,2.8-8.4,4.8c-2.3,2-4,4.4-5.1,7.1c-1.1,2.7-1.7,5.7-1.7,8.8c0,4,1,7.4,3,10.1
				c2,2.7,4.6,4.9,7.9,6.8c3.3,1.9,7,3.5,11.1,4.9c4.1,1.4,8.4,2.8,12.7,4.3c4.3,1.5,8.6,3.2,12.7,5c4.1,1.9,7.8,4.2,11.1,7
				c3.3,2.8,5.9,6.3,7.9,10.4c2,4.1,3,9.2,3,15.2c0,6.3-1.1,12.3-3.2,17.8c-2.2,5.6-5.3,10.4-9.5,14.5c-4.1,4.1-9.2,7.3-15.3,9.7
				c-6,2.4-12.9,3.5-20.6,3.5c-9.4,0-17.9-1.7-25.6-5.1c-7.7-3.4-14.3-8-19.8-13.8l5.7-9.3c0.5-0.7,1.2-1.4,2-1.9
				c0.8-0.5,1.6-0.8,2.6-0.8c1.4,0,3,0.8,4.9,2.3c1.8,1.5,4.1,3.2,6.8,5c2.7,1.8,6,3.5,9.9,5c3.9,1.5,8.6,2.3,14.2,2.3
				c4.6,0,8.8-0.6,12.4-1.9c3.6-1.3,6.7-3.1,9.2-5.4c2.5-2.3,4.5-5.1,5.8-8.3c1.3-3.2,2-6.8,2-10.8c0-4.4-1-8-3-10.8
				c-2-2.8-4.6-5.1-7.8-7c-3.2-1.9-6.9-3.5-11.1-4.8c-4.1-1.3-8.4-2.7-12.7-4c-4.3-1.4-8.6-3-12.7-4.8c-4.1-1.8-7.8-4.2-11.1-7.1
				c-3.2-2.9-5.8-6.5-7.8-10.9c-2-4.3-3-9.7-3-16.1c0-5.1,1-10.1,3-14.9c2-4.8,4.9-9,8.6-12.7c3.8-3.7,8.4-6.7,14-8.9
				C626.3,282.8,632.7,281.7,639.9,281.7 M639.9,277.1c-7.8,0-14.8,1.2-20.9,3.7c-6.1,2.4-11.3,5.8-15.5,9.9
				c-4.2,4.1-7.4,8.9-9.7,14.2c-2.2,5.3-3.3,10.9-3.3,16.6c0,7,1.1,13.1,3.4,18c2.2,4.9,5.3,9.1,8.9,12.4c3.6,3.2,7.7,5.9,12.3,7.9
				c4.3,1.9,8.7,3.6,13.2,5l10.6,3.4l2.2,0.7c3.8,1.2,7.2,2.7,10.1,4.4c2.7,1.5,4.8,3.5,6.4,5.7c1.4,2,2.1,4.7,2.1,8.1
				c0,3.3-0.6,6.4-1.7,9.1c-1.1,2.6-2.6,4.8-4.7,6.7c-2.1,1.9-4.6,3.4-7.7,4.5c-3.1,1.1-6.8,1.7-10.9,1.7c-5,0-9.2-0.7-12.5-2
				c-3.6-1.4-6.6-2.9-9-4.5c-2.6-1.7-4.7-3.3-6.4-4.7c-2.7-2.2-5.2-3.3-7.8-3.3c-1.8,0-3.6,0.5-5.1,1.5c-1.2,0.8-2.3,1.8-3.2,3
				l-0.1,0.2l-0.1,0.2l-5.7,9.3l-1.8,3l2.4,2.5c5.9,6.2,13,11.2,21.2,14.8c8.3,3.6,17.5,5.5,27.5,5.5c8.2,0,15.7-1.3,22.2-3.9
				c6.6-2.6,12.2-6.2,16.8-10.7c4.6-4.5,8.1-10,10.5-16.1c2.4-6.1,3.5-12.6,3.5-19.5c0-6.7-1.2-12.4-3.4-17.2
				c-2.3-4.7-5.3-8.6-9-11.9c-3.6-3.1-7.7-5.7-12.2-7.7c-4.3-1.9-8.7-3.6-13.1-5.2c-4.4-1.5-8.6-2.9-12.8-4.3
				c-3.8-1.3-7.3-2.8-10.3-4.5c-2.7-1.6-4.9-3.4-6.5-5.6c-1.4-1.9-2.1-4.3-2.1-7.3c0-2.5,0.5-4.9,1.4-7.1c0.9-2.1,2.2-3.9,3.9-5.5
				c1.8-1.6,4.1-2.9,6.9-3.9c2.9-1,6.3-1.5,10.1-1.5c4.1,0,7.6,0.5,10.4,1.5c3,1,5.5,2.2,7.6,3.4c2.2,1.3,4,2.5,5.3,3.5
				c2.4,1.8,4.6,2.6,6.8,2.6c2.1,0,3.9-0.6,5.4-1.7c1.2-0.9,2.2-2,3.1-3.6l0.1-0.1l0.1-0.1l4.8-9.3l1.5-3l-2.4-2.4
				c-5.4-5.3-11.8-9.3-19-12.1C656.5,278.5,648.5,277.1,639.9,277.1L639.9,277.1z"/>
		</g>
	</g>
	<g>
		<g>
			<path class="st1" d="M19,479.6c-2.6,0-4.9-0.5-7.1-1.3c-2.2-0.9-4.1-2.2-5.6-3.8c-1.6-1.6-2.8-3.5-3.7-5.7
				c-0.9-2.2-1.3-4.6-1.3-7.2c0-2.6,0.4-5.1,1.3-7.3c0.9-2.2,2.1-4.1,3.7-5.7c1.6-1.6,3.6-2.9,5.8-3.7c2.2-0.9,4.8-1.3,7.5-1.3
				c2.8,0,5.3,0.4,7.4,1.3c2.1,0.9,3.9,2,5.4,3.3l0.8,0.7l-2.3,3.7c-0.6,0.9-1.4,1.4-2.4,1.4c-0.6,0-1.2-0.2-1.8-0.6
				c-0.4-0.3-0.9-0.5-1.4-0.8c-0.4-0.2-0.9-0.5-1.5-0.7c-0.6-0.2-1.2-0.4-1.9-0.5c-0.7-0.1-1.5-0.2-2.4-0.2c-1.4,0-2.8,0.2-3.9,0.7
				c-1.1,0.5-2.1,1.1-2.9,2c-0.8,0.9-1.4,2-1.9,3.2c-0.4,1.3-0.7,2.7-0.7,4.4c0,1.7,0.2,3.3,0.7,4.6c0.5,1.3,1.1,2.4,2,3.3
				c0.8,0.9,1.8,1.6,3,2c1.2,0.5,2.5,0.7,3.8,0.7c1.3,0,2.4-0.1,3.3-0.3c0.7-0.2,1.3-0.4,2-0.6v-3.9h-2.8c-0.9,0-1.5-0.4-1.8-0.7
				c-0.5-0.5-0.7-1-0.7-1.7v-4.7h13.5v15.2l-0.5,0.4c-0.9,0.6-1.8,1.2-2.8,1.7c-1,0.5-2,0.9-3.1,1.2c-1.1,0.3-2.2,0.5-3.5,0.7
				C21.8,479.5,20.4,479.6,19,479.6z"/>
			<path class="st3" d="M19.6,444.7c2.7,0,5,0.4,7,1.2s3.6,1.8,5,3.1l-1.8,2.8c-0.3,0.6-0.8,0.8-1.4,0.8c-0.4,0-0.7-0.1-1.1-0.4
				c-0.5-0.3-1-0.6-1.5-0.9c-0.5-0.3-1.1-0.5-1.7-0.7c-0.6-0.2-1.3-0.4-2.1-0.5c-0.8-0.1-1.6-0.2-2.6-0.2c-1.6,0-3.1,0.3-4.4,0.8
				c-1.3,0.5-2.4,1.3-3.4,2.3c-0.9,1-1.6,2.2-2.1,3.7c-0.5,1.4-0.7,3-0.7,4.8c0,1.9,0.3,3.6,0.8,5.1c0.5,1.5,1.3,2.7,2.2,3.7
				c1,1,2.1,1.8,3.4,2.3s2.8,0.8,4.3,0.8c1.4,0,2.6-0.1,3.6-0.4c1-0.2,2-0.6,2.9-1v-6h-4.1c-0.4,0-0.7-0.1-0.9-0.3
				c-0.2-0.2-0.3-0.5-0.3-0.8v-3.5h10.9v13.3c-0.8,0.6-1.7,1.1-2.6,1.6c-0.9,0.4-1.9,0.8-2.9,1.1c-1,0.3-2.1,0.5-3.3,0.6
				c-1.2,0.1-2.4,0.2-3.8,0.2c-2.4,0-4.6-0.4-6.6-1.2s-3.8-2-5.2-3.5c-1.5-1.5-2.6-3.3-3.4-5.3c-0.8-2.1-1.2-4.3-1.2-6.7
				c0-2.5,0.4-4.7,1.2-6.8c0.8-2.1,1.9-3.8,3.4-5.3s3.3-2.6,5.4-3.5S17,444.7,19.6,444.7 M19.6,442.2c-2.9,0-5.6,0.5-8,1.4
				c-2.4,0.9-4.5,2.3-6.2,4c-1.7,1.7-3.1,3.8-4,6.2c-0.9,2.3-1.4,4.9-1.4,7.7c0,2.8,0.5,5.3,1.4,7.7c0.9,2.4,2.3,4.4,4,6.2
				c1.7,1.7,3.7,3.1,6.1,4c2.3,1,4.9,1.4,7.6,1.4c1.4,0,2.8-0.1,4.1-0.2c1.3-0.2,2.5-0.4,3.7-0.7c1.2-0.3,2.3-0.8,3.3-1.3
				c1-0.5,2-1.1,3-1.8l1-0.8v-1.3v-13.3V459h-2.5H20.7h-2.5v2.5v3.5c0,1,0.4,1.9,1.1,2.6c0.5,0.5,1.3,1,2.7,1h1.6v1.7
				c-0.3,0.1-0.7,0.2-1,0.3c-0.8,0.2-1.8,0.3-3,0.3c-1.2,0-2.4-0.2-3.4-0.6c-1-0.4-1.8-1-2.5-1.7c-0.7-0.8-1.3-1.7-1.7-2.9
				c-0.4-1.2-0.6-2.6-0.6-4.2c0-1.5,0.2-2.8,0.6-3.9c0.4-1.1,0.9-2,1.6-2.8c0.7-0.7,1.5-1.3,2.5-1.7c1-0.4,2.1-0.6,3.4-0.6
				c0.9,0,1.6,0.1,2.2,0.2c0.6,0.1,1.2,0.3,1.7,0.4c0.5,0.2,0.9,0.3,1.3,0.6c0.5,0.3,1,0.6,1.4,0.8c0.7,0.5,1.6,0.7,2.4,0.7
				c1.5,0,2.7-0.7,3.5-2l1.8-2.7l1.1-1.8l-1.5-1.4c-1.6-1.5-3.5-2.7-5.8-3.6C25.3,442.7,22.6,442.2,19.6,442.2L19.6,442.2z"/>
		</g>
		<g>
			<polygon class="st1" points="44.3,479.2 44.3,443.8 52.9,443.8 52.9,471.7 66.1,471.7 66.1,479.2 			"/>
			<path class="st3" d="M51.7,445.1v27.8h13.2v5H45.6v-32.9H51.7 M54.2,442.6h-2.5h-6.1H43v2.5V478v2.5h2.5h19.3h2.5V478v-5v-2.5
				h-2.5H54.2v-25.3V442.6L54.2,442.6z"/>
		</g>
		<g>
			<path class="st1" d="M90.4,479.6c-2.6,0-5.1-0.5-7.3-1.4c-2.2-0.9-4.1-2.2-5.7-3.8c-1.6-1.6-2.8-3.5-3.7-5.7
				c-0.9-2.2-1.3-4.6-1.3-7.1c0-2.6,0.4-5,1.3-7.2c0.9-2.2,2.1-4.1,3.7-5.7c1.6-1.6,3.5-2.9,5.7-3.8c2.2-0.9,4.6-1.4,7.3-1.4
				c2.6,0,5.1,0.5,7.3,1.4c2.2,0.9,4.1,2.2,5.7,3.8c1.6,1.6,2.8,3.5,3.7,5.7c0.9,2.2,1.3,4.6,1.3,7.1c0,2.6-0.4,5-1.3,7.2
				c-0.9,2.2-2.1,4.1-3.7,5.7c-1.6,1.6-3.5,2.9-5.7,3.8C95.5,479.1,93,479.6,90.4,479.6z M90.4,451.2c-1.4,0-2.7,0.2-3.9,0.7
				c-1.1,0.5-2.1,1.1-2.8,2c-0.8,0.9-1.4,1.9-1.8,3.2c-0.4,1.3-0.7,2.8-0.7,4.4c0,1.7,0.2,3.2,0.7,4.4c0.4,1.3,1,2.3,1.8,3.2
				c0.8,0.8,1.7,1.5,2.8,2c1.1,0.5,2.4,0.7,3.9,0.7c1.4,0,2.7-0.2,3.8-0.7c1.1-0.5,2-1.1,2.8-2c0.8-0.9,1.4-1.9,1.8-3.2
				c0.4-1.3,0.7-2.8,0.7-4.4c0-1.7-0.2-3.2-0.7-4.5c-0.4-1.3-1-2.3-1.8-3.2c-0.8-0.9-1.7-1.5-2.8-2
				C93.1,451.4,91.8,451.2,90.4,451.2z"/>
			<path class="st3" d="M90.4,444.7c2.5,0,4.7,0.4,6.8,1.3s3.8,2,5.2,3.5c1.5,1.5,2.6,3.3,3.4,5.3c0.8,2.1,1.2,4.3,1.2,6.7
				s-0.4,4.6-1.2,6.7c-0.8,2.1-1.9,3.8-3.4,5.3c-1.5,1.5-3.2,2.7-5.2,3.5c-2,0.8-4.3,1.3-6.8,1.3c-2.5,0-4.8-0.4-6.8-1.3
				c-2.1-0.8-3.8-2-5.3-3.5c-1.5-1.5-2.6-3.3-3.4-5.3c-0.8-2.1-1.2-4.3-1.2-6.7s0.4-4.6,1.2-6.7c0.8-2.1,1.9-3.8,3.4-5.3
				c1.5-1.5,3.2-2.7,5.3-3.5C85.6,445.2,87.9,444.7,90.4,444.7 M90.4,473.1c1.6,0,3-0.3,4.3-0.8c1.3-0.5,2.4-1.3,3.3-2.3
				s1.6-2.2,2.1-3.6c0.5-1.4,0.7-3,0.7-4.8s-0.2-3.4-0.7-4.9c-0.5-1.4-1.2-2.6-2.1-3.6c-0.9-1-2-1.8-3.3-2.3
				c-1.3-0.5-2.7-0.8-4.3-0.8c-1.6,0-3.1,0.3-4.3,0.8c-1.3,0.5-2.4,1.3-3.3,2.3c-0.9,1-1.6,2.2-2.1,3.6c-0.5,1.4-0.7,3-0.7,4.9
				s0.2,3.4,0.7,4.8c0.5,1.4,1.2,2.6,2.1,3.6s2,1.8,3.3,2.3C87.3,472.8,88.8,473.1,90.4,473.1 M90.4,442.2c-2.8,0-5.4,0.5-7.8,1.5
				c-2.4,1-4.4,2.3-6.1,4.1c-1.7,1.7-3,3.8-3.9,6.2c-0.9,2.3-1.4,4.9-1.4,7.6c0,2.7,0.5,5.3,1.4,7.6c0.9,2.4,2.2,4.4,3.9,6.2
				c1.7,1.7,3.8,3.1,6.1,4.1c2.3,1,5,1.4,7.8,1.4c2.8,0,5.4-0.5,7.8-1.4c2.4-1,4.4-2.3,6.1-4.1c1.7-1.7,3-3.8,3.9-6.2
				c0.9-2.3,1.4-4.9,1.4-7.6c0-2.7-0.5-5.3-1.4-7.6c-0.9-2.4-2.2-4.4-3.9-6.2c-1.7-1.7-3.7-3.1-6.1-4.1
				C95.8,442.7,93.2,442.2,90.4,442.2L90.4,442.2z M90.4,470.6c-1.3,0-2.4-0.2-3.4-0.6c-0.9-0.4-1.7-0.9-2.4-1.6
				c-0.7-0.7-1.2-1.7-1.6-2.7c-0.4-1.2-0.6-2.5-0.6-4c0-1.5,0.2-2.9,0.6-4c0.4-1.1,0.9-2,1.6-2.8c0.7-0.7,1.4-1.3,2.4-1.6
				c1-0.4,2.1-0.6,3.4-0.6c1.3,0,2.4,0.2,3.4,0.6c0.9,0.4,1.7,0.9,2.3,1.6c0.7,0.7,1.2,1.7,1.5,2.8c0.4,1.2,0.6,2.5,0.6,4.1
				c0,1.5-0.2,2.9-0.6,4.1c-0.4,1.1-0.9,2-1.5,2.7c-0.6,0.7-1.4,1.3-2.4,1.6C92.8,470.4,91.6,470.6,90.4,470.6L90.4,470.6z"/>
		</g>
		<g>
			<path class="st1" d="M118.8,479.2v-35.4h12.6c2.2,0,4.2,0.2,5.8,0.7c1.7,0.5,3.1,1.1,4.2,2c1.1,0.9,2,2,2.5,3.3
				c0.5,1.2,0.8,2.6,0.8,4.1c0,0.9-0.1,1.8-0.4,2.6c-0.3,0.8-0.7,1.6-1.3,2.4c-0.6,0.7-1.3,1.4-2.1,1.9c0,0,0,0,0,0
				c3.8,1.8,4.7,5,4.7,7.5c0,1.6-0.3,3-0.9,4.4c-0.6,1.3-1.5,2.5-2.7,3.5c-1.1,1-2.5,1.7-4.2,2.2c-1.6,0.5-3.4,0.8-5.5,0.8H118.8z
				 M132.4,471.9c1,0,1.8-0.1,2.4-0.3c0.6-0.2,1-0.5,1.4-0.8c0.3-0.3,0.5-0.7,0.7-1.1c0.2-0.5,0.2-1,0.2-1.5c0-0.5-0.1-1-0.3-1.5
				c-0.1-0.4-0.4-0.7-0.7-0.9c-0.3-0.3-0.8-0.5-1.4-0.7c-0.6-0.2-1.5-0.3-2.4-0.3h-4.9v7.1H132.4z M131.1,458.1c1.8,0,3.1-0.3,4-0.9
				c0.7-0.5,1.1-1.4,1.1-2.6c0-1.3-0.3-2.2-1-2.7c-0.7-0.5-2-0.8-3.8-0.8h-4v7H131.1z"/>
			<path class="st3" d="M131.4,445.1c2.1,0,4,0.2,5.5,0.6c1.5,0.4,2.8,1,3.7,1.8c1,0.8,1.7,1.7,2.1,2.7c0.5,1.1,0.7,2.3,0.7,3.6
				c0,0.8-0.1,1.5-0.3,2.2c-0.2,0.7-0.6,1.4-1.1,2c-0.5,0.6-1.1,1.2-1.8,1.7c-0.7,0.5-1.6,0.9-2.6,1.3c4.5,1,6.8,3.5,6.8,7.3
				c0,1.4-0.3,2.7-0.8,3.9c-0.5,1.2-1.3,2.2-2.3,3.1c-1,0.9-2.3,1.5-3.7,2c-1.5,0.5-3.2,0.7-5.1,0.7h-12.4v-32.9H131.4 M126.2,459.3
				h4.9c2.1,0,3.6-0.4,4.7-1.1c1.1-0.8,1.6-2,1.6-3.6c0-1.7-0.5-2.9-1.5-3.7c-1-0.7-2.5-1.1-4.5-1.1h-5.2V459.3 M126.2,473.2h6.2
				c1.1,0,2.1-0.1,2.9-0.4c0.8-0.3,1.4-0.6,1.8-1.1c0.5-0.5,0.8-1,1-1.6c0.2-0.6,0.3-1.2,0.3-1.9c0-0.7-0.1-1.4-0.3-1.9
				c-0.2-0.6-0.6-1.1-1.1-1.5c-0.5-0.4-1.1-0.7-1.9-0.9c-0.8-0.2-1.7-0.3-2.7-0.3h-6.2V473.2 M131.4,442.6h-11.3h-2.5v2.5V478v2.5
				h2.5h12.4c2.2,0,4.1-0.3,5.9-0.9c1.8-0.6,3.3-1.4,4.6-2.5c1.3-1.1,2.3-2.4,3-3.9c0.7-1.5,1-3.2,1-4.9c0-2.1-0.6-5.4-3.8-7.7
				c0.3-0.3,0.7-0.7,0.9-1c0.7-0.8,1.2-1.8,1.5-2.8c0.3-0.9,0.5-2,0.5-3c0-1.7-0.3-3.2-0.9-4.6c-0.6-1.5-1.6-2.7-2.9-3.8
				c-1.2-1-2.8-1.7-4.6-2.2C135.9,442.8,133.8,442.6,131.4,442.6L131.4,442.6z M128.7,452.4h2.7c2,0,2.8,0.4,3,0.6
				c0.4,0.3,0.4,1.2,0.4,1.6c0,1.2-0.4,1.4-0.5,1.5c-0.6,0.4-1.8,0.7-3.3,0.7h-2.4V452.4L128.7,452.4z M128.7,466.1h3.7
				c0.8,0,1.5,0.1,2.1,0.2c0.4,0.1,0.7,0.3,0.9,0.4c0.2,0.1,0.3,0.3,0.3,0.4c0.1,0.3,0.2,0.6,0.2,1c0,0.4-0.1,0.8-0.2,1.1
				c-0.1,0.2-0.2,0.4-0.4,0.6c-0.2,0.2-0.5,0.4-0.9,0.5c-0.3,0.1-1,0.3-2,0.3h-3.7V466.1L128.7,466.1z"/>
		</g>
		<g>
			<path class="st1" d="M182.1,479.2c-0.8,0-1.5-0.2-2.1-0.7c-0.5-0.4-0.9-0.9-1.1-1.5l-2.2-5.9h-11.8l-2.2,5.9
				c-0.2,0.5-0.6,1.1-1.1,1.5c-0.6,0.5-1.3,0.7-2.1,0.7h-6.6l13.9-35.4h8l13.9,35.4H182.1z M174.3,464.3c0,0-3.4-9.3-3.4-9.3
				c0,0.1-3.4,9.3-3.4,9.3H174.3z"/>
			<path class="st3" d="M173.9,445.1l12.9,32.9h-4.7c-0.5,0-1-0.1-1.3-0.4c-0.3-0.3-0.6-0.6-0.7-1l-2.5-6.7H164l-2.5,6.7
				c-0.1,0.3-0.4,0.7-0.7,1c-0.4,0.3-0.8,0.4-1.3,0.4h-4.7l12.9-32.9H173.9 M165.6,465.6h10.5l-4-10.9c-0.2-0.5-0.4-1.1-0.6-1.7
				c-0.2-0.7-0.4-1.4-0.6-2.1c-0.2,0.8-0.4,1.5-0.6,2.2c-0.2,0.7-0.4,1.2-0.6,1.8L165.6,465.6 M175.7,442.6h-1.7h-6.2H166l-0.6,1.6
				L152.4,477l-1.4,3.4h3.7h4.7c1.1,0,2.1-0.3,2.9-1c0.7-0.6,1.2-1.3,1.5-2.1l1.8-5h10.1l1.8,5c0.3,0.9,0.9,1.6,1.6,2.1
				c0.8,0.6,1.8,0.9,2.9,0.9h4.7h3.7l-1.4-3.4l-12.9-32.9L175.7,442.6L175.7,442.6z M169.2,463l1.6-4.4l1.6,4.4H169.2L169.2,463z"/>
		</g>
		<g>
			<polygon class="st1" points="197.2,479.2 197.2,443.8 205.9,443.8 205.9,471.7 219,471.7 219,479.2 			"/>
			<path class="st3" d="M204.6,445.1v27.8h13.2v5h-19.3v-32.9H204.6 M207.1,442.6h-2.5h-6.1H196v2.5V478v2.5h2.5h19.3h2.5V478v-5
				v-2.5h-2.5h-10.6v-25.3V442.6L207.1,442.6z"/>
		</g>
		<g>
			<polygon class="st1" points="246.1,479.2 246.1,443.8 269.3,443.8 269.3,451.2 254.7,451.2 254.7,458.4 267,458.4 267,465.8 
				254.7,465.8 254.7,479.2 			"/>
			<path class="st3" d="M268,445.1v4.9h-14.6v9.7h12.3v4.9h-12.3V478h-6.2v-32.9H268 M270.6,442.6H268h-20.7h-2.5v2.5V478v2.5h2.5
				h6.2h2.5V478v-10.9h9.8h2.5v-2.5v-4.9v-2.5h-2.5H256v-4.7h12h2.5V450v-4.9V442.6L270.6,442.6z"/>
		</g>
		<g>
			<polygon class="st1" points="279.8,479.2 279.8,443.8 303.1,443.8 303.1,451.2 288.5,451.2 288.5,457.8 300,457.8 300,465 
				288.5,465 288.5,471.8 303.1,471.8 303.1,479.2 			"/>
			<path class="st3" d="M301.8,445.1v4.9h-14.6v9.1h11.5v4.7h-11.5v9.3h14.6v4.9h-20.7v-32.9H301.8 M304.3,442.6h-2.5h-20.7h-2.5
				v2.5V478v2.5h2.5h20.7h2.5V478v-4.9v-2.5h-2.5h-12v-4.2h8.9h2.5v-2.5v-4.7v-2.5h-2.5h-8.9v-4.1h12h2.5V450v-4.9V442.6
				L304.3,442.6z"/>
		</g>
		<g>
			<polygon class="st1" points="314.1,479.2 314.1,443.8 337.4,443.8 337.4,451.2 322.8,451.2 322.8,457.8 334.3,457.8 334.3,465 
				322.8,465 322.8,471.8 337.4,471.8 337.4,479.2 			"/>
			<path class="st3" d="M336.1,445.1v4.9h-14.6v9.1H333v4.7h-11.5v9.3h14.6v4.9h-20.7v-32.9H336.1 M338.6,442.6h-2.5h-20.7h-2.5v2.5
				V478v2.5h2.5h20.7h2.5V478v-4.9v-2.5h-2.5h-12v-4.2h8.9h2.5v-2.5v-4.7v-2.5H333h-8.9v-4.1h12h2.5V450v-4.9V442.6L338.6,442.6z"/>
		</g>
		<g>
			<path class="st1" d="M348.4,479.2v-35.4h13.8c2.6,0,5.1,0.4,7.3,1.3c2.2,0.9,4.1,2.1,5.7,3.7c1.6,1.6,2.8,3.5,3.7,5.6
				c0.9,2.2,1.3,4.5,1.3,7.1c0,2.6-0.4,4.9-1.3,7.1c-0.9,2.2-2.1,4.1-3.7,5.6c-1.6,1.6-3.5,2.8-5.7,3.7c-2.2,0.9-4.6,1.3-7.3,1.3
				H348.4z M362.2,471.8c1.4,0,2.7-0.2,3.8-0.7c1.1-0.5,2-1.1,2.8-2c0.8-0.9,1.4-1.9,1.8-3.2c0.4-1.3,0.7-2.8,0.7-4.4
				c0-1.7-0.2-3.2-0.7-4.4c-0.4-1.3-1-2.3-1.8-3.2c-0.8-0.9-1.7-1.5-2.8-2c-1.1-0.5-2.4-0.7-3.8-0.7h-5.1v20.6H362.2z"/>
			<path class="st3" d="M362.2,445.1c2.5,0,4.7,0.4,6.8,1.2c2,0.8,3.8,1.9,5.2,3.4c1.5,1.4,2.6,3.2,3.4,5.2c0.8,2,1.2,4.2,1.2,6.6
				s-0.4,4.6-1.2,6.6c-0.8,2-1.9,3.7-3.4,5.2c-1.5,1.5-3.2,2.6-5.2,3.4c-2,0.8-4.3,1.2-6.8,1.2h-12.5v-32.9H362.2 M355.8,473.1h6.4
				c1.6,0,3-0.3,4.3-0.8c1.3-0.5,2.4-1.3,3.3-2.3c0.9-1,1.6-2.2,2.1-3.6c0.5-1.4,0.7-3,0.7-4.8s-0.2-3.4-0.7-4.9
				c-0.5-1.4-1.2-2.6-2.1-3.6c-0.9-1-2-1.8-3.3-2.3c-1.3-0.5-2.7-0.8-4.3-0.8h-6.4V473.1 M362.2,442.6h-12.5h-2.5v2.5V478v2.5h2.5
				h12.5c2.8,0,5.4-0.5,7.7-1.4c2.4-0.9,4.4-2.3,6.1-4c1.7-1.7,3-3.7,3.9-6.1c0.9-2.3,1.4-4.8,1.4-7.6c0-2.7-0.5-5.3-1.4-7.6
				c-0.9-2.3-2.3-4.4-3.9-6c-1.7-1.7-3.7-3-6.1-3.9C367.6,443,365,442.6,362.2,442.6L362.2,442.6z M358.3,452.5h3.9
				c1.3,0,2.4,0.2,3.4,0.6c0.9,0.4,1.7,0.9,2.4,1.6c0.7,0.7,1.2,1.7,1.6,2.8c0.4,1.2,0.6,2.5,0.6,4c0,1.5-0.2,2.9-0.6,4
				c-0.4,1.1-0.9,2-1.6,2.8c-0.6,0.7-1.4,1.3-2.4,1.6c-1,0.4-2.1,0.6-3.4,0.6h-3.9V452.5L358.3,452.5z"/>
		</g>
		<g>
			<polygon class="st1" points="390.6,479.2 390.6,443.8 413.9,443.8 413.9,451.2 399.3,451.2 399.3,457.8 410.8,457.8 410.8,465 
				399.3,465 399.3,471.8 413.9,471.8 413.9,479.2 			"/>
			<path class="st3" d="M412.6,445.1v4.9h-14.6v9.1h11.5v4.7h-11.5v9.3h14.6v4.9h-20.7v-32.9H412.6 M415.2,442.6h-2.5h-20.7h-2.5
				v2.5V478v2.5h2.5h20.7h2.5V478v-4.9v-2.5h-2.5h-12v-4.2h8.9h2.5v-2.5v-4.7v-2.5h-2.5h-8.9v-4.1h12h2.5V450v-4.9V442.6
				L415.2,442.6z"/>
		</g>
		<g>
			<path class="st1" d="M446.5,479.2c-0.8,0-1.4-0.2-2-0.5c-0.5-0.3-1-0.7-1.4-1.3l-6.9-10.5c-0.2-0.3-0.3-0.4-0.4-0.4
				c0,0-0.2-0.1-0.8-0.1h-1.3v12.8h-8.6v-35.4h11.3c2.4,0,4.4,0.2,6.1,0.7c1.8,0.5,3.2,1.2,4.4,2.2c1.2,1,2.1,2.1,2.6,3.5
				c0.5,1.3,0.8,2.8,0.8,4.3c0,1.2-0.2,2.4-0.6,3.5c-0.4,1.1-0.9,2.1-1.6,3c-0.7,0.9-1.6,1.7-2.6,2.4c-0.4,0.3-0.9,0.5-1.4,0.8
				c0.2,0.2,0.4,0.5,0.6,0.8l9.6,14.1H446.5z M436.3,459.5c1,0,1.9-0.1,2.6-0.4c0.7-0.2,1.2-0.5,1.7-0.9c0.4-0.4,0.7-0.8,0.9-1.3
				c0.2-0.5,0.3-1.2,0.3-1.8c0-1.3-0.4-2.2-1.2-2.9c-0.9-0.7-2.3-1.1-4.2-1.1h-2.6v8.4H436.3z"/>
			<path class="st3" d="M436.4,445.1c2.2,0,4.2,0.2,5.8,0.7c1.6,0.5,2.9,1.1,3.9,1.9c1,0.8,1.8,1.8,2.3,3c0.5,1.2,0.7,2.4,0.7,3.8
				c0,1.1-0.2,2.1-0.5,3.1c-0.3,1-0.8,1.9-1.4,2.7c-0.6,0.8-1.4,1.5-2.3,2.1c-0.9,0.6-1.9,1.1-3.1,1.5c0.8,0.4,1.4,1.1,2,1.9
				L452,478h-5.5c-0.5,0-1-0.1-1.4-0.3c-0.4-0.2-0.7-0.5-0.9-0.9l-6.9-10.5c-0.3-0.4-0.5-0.7-0.9-0.8c-0.3-0.2-0.8-0.2-1.4-0.2h-2.6
				V478h-6.1v-32.9H436.4 M432.5,460.7h3.8c1.2,0,2.2-0.1,3-0.4c0.9-0.3,1.6-0.7,2.1-1.2c0.6-0.5,1-1.1,1.2-1.8
				c0.3-0.7,0.4-1.5,0.4-2.3c0-1.7-0.5-2.9-1.6-3.8c-1.1-0.9-2.8-1.3-5-1.3h-3.9V460.7 M436.4,442.6h-10h-2.5v2.5V478v2.5h2.5h6.1
				h2.5V478v-10.3h0.1c0.1,0,0.1,0,0.1,0l6.9,10.5c0.5,0.7,1.1,1.3,1.8,1.7c0.7,0.4,1.6,0.6,2.6,0.6h5.5h4.8l-2.7-3.9l-8-11.8
				c0.1,0,0.1-0.1,0.2-0.1c1.1-0.8,2.1-1.7,2.9-2.7c0.8-1,1.4-2.2,1.8-3.4c0.4-1.2,0.6-2.6,0.6-3.9c0-1.7-0.3-3.3-0.9-4.8
				c-0.6-1.6-1.6-2.9-3-4c-1.3-1-2.9-1.9-4.8-2.4C441.1,442.8,438.9,442.6,436.4,442.6L436.4,442.6z M435,452.4h1.4
				c1.6,0,2.8,0.3,3.4,0.8c0.3,0.3,0.7,0.7,0.7,1.9c0,0.5-0.1,1-0.2,1.4c-0.1,0.3-0.3,0.6-0.6,0.9c-0.3,0.3-0.7,0.5-1.2,0.7
				c-0.6,0.2-1.3,0.3-2.2,0.3H435V452.4L435,452.4z"/>
		</g>
		<g>
			<path class="st1" d="M489.6,479.6c-1.1,0-2.2-0.1-3.3-0.3c-1.1-0.2-2.1-0.5-3.1-0.9c-1-0.4-1.9-0.9-2.8-1.5
				c-0.9-0.6-1.7-1.2-2.4-2l-0.7-0.7l2.3-3.8c0.3-0.5,0.7-0.7,1-1c0.4-0.3,0.9-0.4,1.4-0.4c0.6,0,1.3,0.2,2,0.7
				c0.4,0.3,0.9,0.6,1.5,1c0.5,0.3,1.2,0.6,1.9,0.9c0.7,0.3,1.5,0.4,2.5,0.4c1.4,0,2.5-0.3,3.2-0.9c0.7-0.6,1-1.4,1-2.6
				c0-0.6-0.1-1-0.4-1.3c-0.3-0.4-0.8-0.8-1.3-1c-0.6-0.3-1.4-0.6-2.2-0.9c-0.9-0.3-1.9-0.5-2.8-0.9c-1-0.3-2-0.7-2.9-1.1
				c-1-0.5-2-1.1-2.8-1.9c-0.8-0.8-1.5-1.8-2-3c-0.5-1.2-0.7-2.6-0.7-4.3c0-1.4,0.3-2.7,0.8-4c0.5-1.3,1.3-2.4,2.4-3.4
				c1-1,2.3-1.8,3.8-2.4c1.5-0.6,3.2-0.9,5-0.9c2.1,0,4,0.3,5.8,1c1.8,0.7,3.3,1.6,4.6,2.8l0.7,0.7l-1.9,3.7c-0.3,0.5-0.6,0.9-1,1.2
				c-0.4,0.3-0.9,0.4-1.4,0.4c-0.5,0-1.1-0.2-1.7-0.5c-0.4-0.2-0.8-0.5-1.3-0.8c-0.4-0.2-1-0.5-1.6-0.7c-0.5-0.2-1.2-0.3-2-0.3
				c-0.7,0-1.3,0.1-1.8,0.2c-0.5,0.2-0.9,0.4-1.2,0.6c-0.3,0.2-0.5,0.5-0.6,0.8c-0.1,0.4-0.2,0.7-0.2,1.2c0,0.5,0.1,0.8,0.4,1.1
				c0.3,0.4,0.8,0.7,1.3,1c0.6,0.3,1.4,0.6,2.2,0.9c0.9,0.3,1.9,0.6,2.8,0.9c1,0.3,2,0.7,2.9,1.2c1,0.5,1.9,1.1,2.7,1.9
				c0.8,0.8,1.5,1.7,2,2.8c0.5,1.1,0.8,2.5,0.8,4c0,1.6-0.3,3.2-0.8,4.6c-0.6,1.5-1.4,2.7-2.5,3.8c-1.1,1.1-2.4,1.9-4,2.5
				C493.3,479.3,491.5,479.6,489.6,479.6z"/>
			<path class="st3" d="M490.8,444.7c1.9,0,3.7,0.3,5.4,0.9c1.6,0.6,3,1.5,4.2,2.5l-1.5,2.9c-0.2,0.3-0.4,0.6-0.6,0.7
				s-0.5,0.2-0.8,0.2c-0.3,0-0.6-0.1-1-0.4c-0.4-0.2-0.8-0.5-1.3-0.8c-0.5-0.3-1.1-0.5-1.8-0.8c-0.7-0.2-1.5-0.4-2.4-0.4
				c-0.8,0-1.6,0.1-2.2,0.3c-0.6,0.2-1.2,0.5-1.6,0.9c-0.4,0.4-0.8,0.8-1,1.3c-0.2,0.5-0.3,1.1-0.3,1.7c0,0.8,0.2,1.4,0.6,1.9
				c0.4,0.5,1,1,1.7,1.3c0.7,0.4,1.5,0.7,2.4,1c0.9,0.3,1.8,0.6,2.8,0.9c0.9,0.3,1.9,0.7,2.8,1.1c0.9,0.4,1.7,1,2.4,1.6
				c0.7,0.7,1.3,1.5,1.7,2.4c0.4,1,0.6,2.1,0.6,3.5c0,1.5-0.3,2.9-0.8,4.2c-0.5,1.3-1.2,2.4-2.2,3.4c-1,1-2.2,1.7-3.6,2.3
				c-1.4,0.6-3,0.8-4.8,0.8c-1,0-2.1-0.1-3.1-0.3c-1-0.2-2-0.5-2.9-0.9c-0.9-0.4-1.8-0.8-2.6-1.4c-0.8-0.5-1.5-1.1-2.2-1.8l1.8-2.9
				c0.2-0.2,0.4-0.4,0.6-0.5c0.2-0.1,0.5-0.2,0.8-0.2c0.4,0,0.8,0.2,1.2,0.5c0.4,0.3,1,0.7,1.6,1c0.6,0.4,1.3,0.7,2.1,1
				c0.8,0.3,1.8,0.5,2.9,0.5c1.7,0,3.1-0.4,4-1.2c1-0.8,1.4-2,1.4-3.6c0-0.9-0.2-1.6-0.6-2.1c-0.4-0.5-1-1-1.7-1.4
				c-0.7-0.4-1.5-0.7-2.4-0.9c-0.9-0.3-1.8-0.5-2.8-0.8c-0.9-0.3-1.9-0.7-2.8-1.1s-1.7-1-2.4-1.7c-0.7-0.7-1.3-1.5-1.7-2.6
				c-0.4-1-0.6-2.3-0.6-3.8c0-1.2,0.2-2.4,0.7-3.5c0.5-1.1,1.2-2.1,2.1-3c0.9-0.9,2-1.6,3.4-2.1C487.6,445,489.1,444.7,490.8,444.7
				 M490.8,442.2c-2,0-3.9,0.3-5.5,1c-1.6,0.6-3,1.5-4.2,2.6c-1.2,1.1-2.1,2.4-2.7,3.9c-0.6,1.4-0.9,2.9-0.9,4.5
				c0,1.8,0.3,3.4,0.8,4.8c0.6,1.3,1.3,2.5,2.3,3.4c0.9,0.9,1.9,1.6,3.1,2.1c1,0.5,2,0.9,3.1,1.2c1,0.3,1.9,0.6,2.9,0.9
				c0.7,0.2,1.4,0.5,1.9,0.8c0.4,0.2,0.7,0.4,0.9,0.7c0,0.1,0.1,0.2,0.1,0.5c0,1.2-0.4,1.5-0.6,1.6c-0.5,0.4-1.3,0.6-2.4,0.6
				c-0.8,0-1.5-0.1-2-0.3c-0.7-0.3-1.2-0.5-1.7-0.8c-0.6-0.4-1-0.7-1.5-1c-0.9-0.6-1.8-0.9-2.7-0.9c-0.7,0-1.5,0.2-2.1,0.6
				c-0.5,0.3-0.9,0.7-1.3,1.1l-0.1,0.1l-0.1,0.1l-1.8,2.9l-1,1.7l1.4,1.4c0.8,0.8,1.6,1.5,2.6,2.1c1,0.6,2,1.2,3,1.6
				c1.1,0.4,2.2,0.8,3.4,1c1.2,0.2,2.4,0.4,3.6,0.4c2.1,0,4.1-0.3,5.8-1c1.7-0.7,3.2-1.6,4.4-2.8c1.2-1.2,2.2-2.6,2.8-4.3
				c0.6-1.6,0.9-3.3,0.9-5.1c0-1.7-0.3-3.2-0.9-4.5c-0.6-1.3-1.3-2.3-2.3-3.2c-0.9-0.8-1.9-1.5-3.1-2.1c-1-0.5-2-0.9-3-1.2
				c-1-0.3-1.9-0.6-2.8-0.9c-0.8-0.2-1.5-0.5-2-0.8c-0.4-0.2-0.7-0.4-0.9-0.7c-0.1-0.1-0.1-0.2-0.1-0.3c0-0.3,0-0.5,0.1-0.7
				c0.1-0.1,0.1-0.2,0.3-0.3c0.2-0.2,0.4-0.3,0.8-0.4c0.4-0.1,0.9-0.2,1.4-0.2c0.7,0,1.2,0.1,1.6,0.2c0.5,0.2,1,0.4,1.4,0.6
				c0.5,0.3,0.9,0.5,1.2,0.7c0.8,0.5,1.6,0.7,2.4,0.7c0.8,0,1.5-0.2,2.1-0.6c0.6-0.4,1.1-1,1.5-1.7l1.5-2.8l0.9-1.7l-1.4-1.3
				c-1.4-1.3-3.1-2.4-5-3.1C495.2,442.6,493.1,442.2,490.8,442.2L490.8,442.2z"/>
		</g>
		<g>
			<polygon class="st1" points="512.7,479.2 512.7,443.8 535.9,443.8 535.9,451.2 521.3,451.2 521.3,457.8 532.8,457.8 532.8,465 
				521.3,465 521.3,471.8 535.9,471.8 535.9,479.2 			"/>
			<path class="st3" d="M534.6,445.1v4.9h-14.6v9.1h11.5v4.7h-11.5v9.3h14.6v4.9h-20.7v-32.9H534.6 M537.2,442.6h-2.5h-20.7h-2.5
				v2.5V478v2.5h2.5h20.7h2.5V478v-4.9v-2.5h-2.5h-12v-4.2h8.9h2.5v-2.5v-4.7v-2.5h-2.5h-8.9v-4.1h12h2.5V450v-4.9V442.6
				L537.2,442.6z"/>
		</g>
		<g>
			<path class="st1" d="M568.6,479.2c-0.8,0-1.4-0.2-2-0.5c-0.5-0.3-1-0.7-1.4-1.3l-6.9-10.5c-0.2-0.3-0.3-0.4-0.4-0.4
				c0,0-0.2-0.1-0.8-0.1h-1.3v12.8h-8.6v-35.4h11.3c2.4,0,4.4,0.2,6.1,0.7c1.8,0.5,3.2,1.2,4.4,2.2c1.2,1,2.1,2.1,2.6,3.5
				c0.5,1.3,0.8,2.8,0.8,4.3c0,1.2-0.2,2.4-0.6,3.5c-0.4,1.1-0.9,2.1-1.6,3c-0.7,0.9-1.6,1.7-2.6,2.4c-0.4,0.3-0.9,0.5-1.4,0.8
				c0.2,0.2,0.4,0.5,0.6,0.8l9.6,14.1H568.6z M558.3,459.5c1,0,1.9-0.1,2.6-0.4c0.7-0.2,1.2-0.5,1.7-0.9c0.4-0.4,0.7-0.8,0.9-1.3
				c0.2-0.5,0.3-1.2,0.3-1.8c0-1.3-0.4-2.2-1.2-2.9c-0.9-0.7-2.3-1.1-4.2-1.1h-2.6v8.4H558.3z"/>
			<path class="st3" d="M558.4,445.1c2.2,0,4.2,0.2,5.8,0.7c1.6,0.5,2.9,1.1,3.9,1.9c1,0.8,1.8,1.8,2.3,3c0.5,1.2,0.7,2.4,0.7,3.8
				c0,1.1-0.2,2.1-0.5,3.1c-0.3,1-0.8,1.9-1.4,2.7c-0.6,0.8-1.4,1.5-2.3,2.1c-0.9,0.6-1.9,1.1-3.1,1.5c0.8,0.4,1.4,1.1,2,1.9
				l8.2,12.1h-5.5c-0.5,0-1-0.1-1.4-0.3c-0.4-0.2-0.7-0.5-0.9-0.9l-6.9-10.5c-0.3-0.4-0.5-0.7-0.9-0.8c-0.3-0.2-0.8-0.2-1.4-0.2
				h-2.6V478h-6.1v-32.9H558.4 M554.5,460.7h3.8c1.2,0,2.2-0.1,3-0.4c0.9-0.3,1.6-0.7,2.1-1.2c0.6-0.5,1-1.1,1.2-1.8
				c0.3-0.7,0.4-1.5,0.4-2.3c0-1.7-0.5-2.9-1.6-3.8c-1.1-0.9-2.8-1.3-5-1.3h-3.9V460.7 M558.4,442.6h-10h-2.5v2.5V478v2.5h2.5h6.1
				h2.5V478v-10.3h0.1c0.1,0,0.1,0,0.1,0l6.9,10.5c0.5,0.7,1.1,1.3,1.8,1.7c0.7,0.4,1.6,0.6,2.6,0.6h5.5h4.8l-2.7-3.9l-8-11.8
				c0.1,0,0.1-0.1,0.2-0.1c1.1-0.8,2.1-1.7,2.9-2.7c0.8-1,1.4-2.2,1.8-3.4c0.4-1.2,0.6-2.6,0.6-3.9c0-1.7-0.3-3.3-0.9-4.8
				c-0.6-1.6-1.6-2.9-3-4c-1.3-1-2.9-1.9-4.8-2.4C563.1,442.8,560.9,442.6,558.4,442.6L558.4,442.6z M557,452.4h1.4
				c1.6,0,2.8,0.3,3.4,0.8c0.3,0.3,0.7,0.7,0.7,1.9c0,0.5-0.1,1-0.2,1.4c-0.1,0.3-0.3,0.6-0.6,0.9c-0.3,0.3-0.7,0.5-1.2,0.7
				c-0.6,0.2-1.3,0.3-2.2,0.3H557V452.4L557,452.4z"/>
		</g>
		<g>
			<path class="st1" d="M595.4,479.2l-14.3-35.4h6.8c0.8,0,1.5,0.2,2.1,0.6c0.5,0.4,0.9,0.9,1.1,1.5c0,0,7.9,20.4,7.9,20.5
				c0.1-0.2,7.9-20.5,7.9-20.5c0.2-0.6,0.6-1,1.1-1.5c0.6-0.5,1.3-0.7,2.1-0.7h6.8l-14.3,35.4H595.4z"/>
			<path class="st3" d="M615.1,445.1L601.8,478h-5.5L583,445.1h4.9c0.5,0,1,0.1,1.3,0.4c0.3,0.3,0.6,0.6,0.7,1l7.7,20
				c0.3,0.7,0.5,1.4,0.7,2.1c0.2,0.8,0.5,1.6,0.7,2.5c0.3-1.7,0.8-3.3,1.3-4.6l7.7-20c0.1-0.3,0.4-0.7,0.7-1
				c0.4-0.3,0.8-0.4,1.3-0.4H615.1 M618.8,442.6h-3.7h-4.9c-1.1,0-2.1,0.3-2.9,1c-0.7,0.6-1.2,1.2-1.5,2l-6.7,17.4l-6.7-17.4
				c-0.4-0.9-0.9-1.6-1.6-2.1c-0.8-0.6-1.7-0.9-2.8-0.9H583h-3.7l1.4,3.5l13.3,32.9l0.6,1.6h1.7h5.5h1.7l0.6-1.6l13.3-32.9
				L618.8,442.6L618.8,442.6z"/>
		</g>
		<g>
			<rect x="626.3" y="443.8" class="st1" width="8.7" height="35.4"/>
			<path class="st3" d="M633.7,445.1V478h-6.1v-32.9H633.7 M636.2,442.6h-2.5h-6.1H625v2.5V478v2.5h2.5h6.1h2.5V478v-32.9V442.6
				L636.2,442.6z"/>
		</g>
		<g>
			<path class="st1" d="M663.2,479.6c-2.6,0-5-0.5-7.1-1.3c-2.1-0.9-3.9-2.2-5.4-3.8c-1.5-1.6-2.6-3.5-3.4-5.8
				c-0.8-2.2-1.2-4.6-1.2-7.2c0-2.6,0.4-5.1,1.3-7.3c0.9-2.2,2.1-4.1,3.7-5.7c1.6-1.6,3.5-2.9,5.8-3.7c2.2-0.9,4.7-1.3,7.3-1.3
				c2.6,0,4.9,0.4,6.9,1.3c2,0.8,3.7,2,5.1,3.4l0.8,0.8l-2.7,3.7c-0.2,0.3-0.4,0.5-0.8,0.8c-0.4,0.3-0.9,0.4-1.5,0.4
				c-0.6,0-1.2-0.2-1.8-0.7c-0.3-0.2-0.7-0.5-1.2-0.8c-0.5-0.3-1.1-0.5-1.9-0.8c-0.7-0.2-1.7-0.4-2.9-0.4c-1.4,0-2.6,0.2-3.8,0.7
				c-1.1,0.5-2.1,1.1-2.9,2c-0.8,0.9-1.5,2-1.9,3.2c-0.5,1.3-0.7,2.8-0.7,4.4c0,1.7,0.2,3.2,0.7,4.5c0.5,1.3,1.1,2.4,1.9,3.2
				c0.8,0.8,1.7,1.5,2.7,2c1,0.5,2.2,0.7,3.4,0.7c0.8,0,1.5,0,2.1-0.1c0.6-0.1,1.1-0.2,1.6-0.4c0.5-0.2,0.9-0.4,1.4-0.6
				c0.4-0.3,0.9-0.6,1.3-1c0.2-0.2,0.5-0.4,0.8-0.5c0.3-0.2,0.7-0.3,1.1-0.3c0.7,0,1.3,0.3,1.8,0.8l3.2,3.4l-0.7,0.8
				c-1.4,1.8-3.3,3.2-5.4,4.2C668.7,479.1,666.1,479.6,663.2,479.6z"/>
			<path class="st3" d="M664.3,444.7c2.4,0,4.6,0.4,6.4,1.2c1.8,0.8,3.4,1.8,4.7,3.1l-2,2.8c-0.1,0.2-0.3,0.3-0.5,0.5
				c-0.2,0.1-0.5,0.2-0.8,0.2c-0.4,0-0.7-0.1-1.1-0.4c-0.4-0.3-0.8-0.6-1.4-0.9c-0.6-0.3-1.3-0.6-2.1-0.9c-0.9-0.3-1.9-0.4-3.3-0.4
				c-1.5,0-3,0.3-4.3,0.8c-1.3,0.5-2.4,1.3-3.3,2.3c-0.9,1-1.7,2.2-2.2,3.6c-0.5,1.4-0.8,3-0.8,4.8c0,1.8,0.3,3.5,0.8,4.9
				c0.5,1.4,1.2,2.7,2.1,3.6c0.9,1,1.9,1.7,3.2,2.3c1.2,0.5,2.5,0.8,3.9,0.8c0.8,0,1.6,0,2.3-0.1c0.7-0.1,1.3-0.2,1.9-0.4
				c0.6-0.2,1.1-0.5,1.6-0.8c0.5-0.3,1-0.7,1.5-1.1c0.2-0.1,0.3-0.2,0.5-0.3c0.2-0.1,0.3-0.1,0.5-0.1c0.3,0,0.6,0.1,0.9,0.4l2.4,2.6
				c-1.3,1.7-3,2.9-4.9,3.8c-1.9,0.9-4.3,1.3-7,1.3c-2.4,0-4.6-0.4-6.6-1.2c-1.9-0.8-3.6-2-5-3.5c-1.4-1.5-2.4-3.3-3.2-5.3
				c-0.7-2.1-1.1-4.3-1.1-6.7c0-2.5,0.4-4.7,1.2-6.8c0.8-2.1,2-3.8,3.5-5.3s3.3-2.6,5.3-3.5C659.5,445.2,661.8,444.7,664.3,444.7
				 M664.3,442.2c-2.8,0-5.4,0.5-7.8,1.4c-2.4,0.9-4.5,2.3-6.2,4c-1.7,1.7-3.1,3.8-4,6.2c-0.9,2.3-1.4,4.9-1.4,7.7
				c0,2.7,0.4,5.3,1.2,7.6c0.8,2.4,2.1,4.5,3.7,6.2c1.6,1.7,3.6,3.1,5.8,4.1c2.2,1,4.8,1.5,7.6,1.5c3.1,0,5.8-0.5,8-1.5
				c2.3-1,4.3-2.6,5.8-4.5l1.4-1.7l-1.5-1.6l-2.4-2.6c-0.7-0.8-1.7-1.2-2.7-1.2c-0.6,0-1.2,0.1-1.7,0.4c-0.4,0.2-0.7,0.4-1.1,0.7
				c-0.4,0.3-0.8,0.6-1.1,0.9c-0.3,0.2-0.7,0.4-1.1,0.5c-0.4,0.1-0.9,0.2-1.4,0.3c-0.6,0.1-1.2,0.1-1.9,0.1c-1.1,0-2-0.2-2.9-0.6
				c-0.9-0.4-1.6-0.9-2.3-1.6c-0.7-0.7-1.2-1.7-1.6-2.8c-0.4-1.2-0.6-2.5-0.6-4.1c0-1.5,0.2-2.8,0.6-4c0.4-1.1,1-2,1.7-2.8
				c0.7-0.7,1.5-1.3,2.5-1.7c1-0.4,2.1-0.6,3.3-0.6c1.3,0,2.1,0.2,2.5,0.3c0.7,0.2,1.2,0.4,1.6,0.7c0.5,0.3,0.8,0.5,1.1,0.7
				c0.8,0.6,1.7,0.9,2.6,0.9c0.9,0,1.6-0.2,2.3-0.7c0.4-0.3,0.8-0.7,1.1-1.1l2-2.8l1.3-1.8l-1.5-1.5c-1.5-1.5-3.4-2.7-5.5-3.6
				C669.5,442.7,667,442.2,664.3,442.2L664.3,442.2z"/>
		</g>
		<g>
			<polygon class="st1" points="686.8,479.2 686.8,443.8 710,443.8 710,451.2 695.5,451.2 695.5,457.8 706.9,457.8 706.9,465 
				695.5,465 695.5,471.8 710,471.8 710,479.2 			"/>
			<path class="st3" d="M708.8,445.1v4.9h-14.6v9.1h11.5v4.7h-11.5v9.3h14.6v4.9H688v-32.9H708.8 M711.3,442.6h-2.5H688h-2.5v2.5
				V478v2.5h2.5h20.7h2.5V478v-4.9v-2.5h-2.5h-12v-4.2h8.9h2.5v-2.5v-4.7v-2.5h-2.5h-8.9v-4.1h12h2.5V450v-4.9V442.6L711.3,442.6z"
				/>
		</g>
		<g>
			<path class="st1" d="M730.6,479.6c-1.1,0-2.2-0.1-3.3-0.3c-1.1-0.2-2.1-0.5-3.1-0.9c-1-0.4-1.9-0.9-2.8-1.5
				c-0.9-0.6-1.7-1.2-2.4-2l-0.7-0.7l2.3-3.8c0.3-0.5,0.7-0.7,1-1c0.4-0.3,0.9-0.4,1.4-0.4c0.6,0,1.3,0.2,2,0.7
				c0.4,0.3,0.9,0.6,1.5,1c0.5,0.3,1.2,0.6,1.9,0.9c0.7,0.3,1.5,0.4,2.5,0.4c1.4,0,2.5-0.3,3.2-0.9c0.7-0.6,1-1.4,1-2.6
				c0-0.6-0.1-1-0.4-1.3c-0.3-0.4-0.8-0.8-1.3-1c-0.6-0.3-1.4-0.6-2.2-0.9c-0.9-0.3-1.9-0.5-2.8-0.9c-1-0.3-2-0.7-2.9-1.1
				c-1-0.5-2-1.1-2.8-1.9c-0.8-0.8-1.5-1.8-2-3c-0.5-1.2-0.7-2.6-0.7-4.3c0-1.4,0.3-2.7,0.8-4c0.5-1.3,1.3-2.4,2.4-3.4
				c1-1,2.3-1.8,3.8-2.4c1.5-0.6,3.2-0.9,5-0.9c2.1,0,4,0.3,5.8,1c1.8,0.7,3.3,1.6,4.6,2.8l0.7,0.7l-1.9,3.7c-0.3,0.5-0.6,0.9-1,1.2
				c-0.4,0.3-0.9,0.4-1.4,0.4c-0.5,0-1.1-0.2-1.7-0.5c-0.4-0.2-0.8-0.5-1.3-0.8c-0.4-0.2-1-0.5-1.6-0.7c-0.5-0.2-1.2-0.3-2-0.3
				c-0.7,0-1.3,0.1-1.8,0.2c-0.5,0.2-0.9,0.4-1.2,0.6c-0.3,0.2-0.5,0.5-0.6,0.8c-0.1,0.4-0.2,0.7-0.2,1.2c0,0.5,0.1,0.8,0.4,1.1
				c0.3,0.4,0.8,0.7,1.3,1c0.6,0.3,1.4,0.6,2.2,0.9c0.9,0.3,1.9,0.6,2.8,0.9c1,0.3,2,0.7,2.9,1.2c1,0.5,1.9,1.1,2.7,1.9
				c0.8,0.8,1.5,1.7,2,2.8c0.5,1.1,0.8,2.5,0.8,4c0,1.6-0.3,3.2-0.8,4.6c-0.6,1.5-1.4,2.7-2.5,3.8c-1.1,1.1-2.4,1.9-4,2.5
				C734.4,479.3,732.6,479.6,730.6,479.6z"/>
			<path class="st3" d="M731.9,444.7c1.9,0,3.7,0.3,5.4,0.9c1.6,0.6,3,1.5,4.2,2.5l-1.5,2.9c-0.2,0.3-0.4,0.6-0.6,0.7
				c-0.2,0.1-0.5,0.2-0.8,0.2s-0.6-0.1-1-0.4c-0.4-0.2-0.8-0.5-1.3-0.8c-0.5-0.3-1.1-0.5-1.8-0.8c-0.7-0.2-1.5-0.4-2.4-0.4
				c-0.8,0-1.6,0.1-2.2,0.3c-0.6,0.2-1.2,0.5-1.6,0.9c-0.4,0.4-0.8,0.8-1,1.3c-0.2,0.5-0.3,1.1-0.3,1.7c0,0.8,0.2,1.4,0.6,1.9
				c0.4,0.5,1,1,1.7,1.3c0.7,0.4,1.5,0.7,2.4,1c0.9,0.3,1.8,0.6,2.8,0.9c0.9,0.3,1.9,0.7,2.8,1.1c0.9,0.4,1.7,1,2.4,1.6
				c0.7,0.7,1.3,1.5,1.7,2.4c0.4,1,0.6,2.1,0.6,3.5c0,1.5-0.3,2.9-0.8,4.2c-0.5,1.3-1.2,2.4-2.2,3.4c-1,1-2.2,1.7-3.6,2.3
				c-1.4,0.6-3,0.8-4.8,0.8c-1,0-2.1-0.1-3.1-0.3c-1-0.2-2-0.5-2.9-0.9c-0.9-0.4-1.8-0.8-2.6-1.4c-0.8-0.5-1.5-1.1-2.2-1.8l1.8-2.9
				c0.2-0.2,0.4-0.4,0.6-0.5c0.2-0.1,0.5-0.2,0.8-0.2c0.4,0,0.8,0.2,1.2,0.5c0.4,0.3,1,0.7,1.6,1c0.6,0.4,1.3,0.7,2.1,1
				c0.8,0.3,1.8,0.5,2.9,0.5c1.7,0,3.1-0.4,4-1.2c1-0.8,1.4-2,1.4-3.6c0-0.9-0.2-1.6-0.6-2.1c-0.4-0.5-1-1-1.7-1.4
				c-0.7-0.4-1.5-0.7-2.4-0.9c-0.9-0.3-1.8-0.5-2.8-0.8c-0.9-0.3-1.9-0.7-2.8-1.1c-0.9-0.4-1.7-1-2.4-1.7c-0.7-0.7-1.3-1.5-1.7-2.6
				c-0.4-1-0.6-2.3-0.6-3.8c0-1.2,0.2-2.4,0.7-3.5c0.5-1.1,1.2-2.1,2.1-3c0.9-0.9,2-1.6,3.4-2.1C728.7,445,730.2,444.7,731.9,444.7
				 M731.9,442.2c-2,0-3.9,0.3-5.5,1c-1.6,0.6-3,1.5-4.2,2.6c-1.2,1.1-2.1,2.4-2.7,3.9c-0.6,1.4-0.9,2.9-0.9,4.5
				c0,1.8,0.3,3.4,0.8,4.8c0.6,1.3,1.3,2.5,2.3,3.4c0.9,0.9,1.9,1.6,3.1,2.1c1,0.5,2,0.9,3.1,1.2c1,0.3,1.9,0.6,2.9,0.9
				c0.7,0.2,1.4,0.5,1.9,0.8c0.4,0.2,0.7,0.4,0.9,0.7c0,0.1,0.1,0.2,0.1,0.5c0,1.2-0.4,1.5-0.6,1.6c-0.5,0.4-1.3,0.6-2.4,0.6
				c-0.8,0-1.5-0.1-2-0.3c-0.7-0.3-1.2-0.5-1.7-0.8c-0.6-0.4-1-0.7-1.5-1c-0.9-0.6-1.8-0.9-2.7-0.9c-0.7,0-1.5,0.2-2.1,0.6
				c-0.5,0.3-0.9,0.7-1.3,1.1l-0.1,0.1l-0.1,0.1l-1.8,2.9l-1,1.7l1.4,1.4c0.8,0.8,1.6,1.5,2.6,2.1c1,0.6,2,1.2,3,1.6
				c1.1,0.4,2.2,0.8,3.4,1c1.2,0.2,2.4,0.4,3.6,0.4c2.1,0,4.1-0.3,5.8-1c1.7-0.7,3.2-1.6,4.4-2.8c1.2-1.2,2.2-2.6,2.8-4.3
				c0.6-1.6,0.9-3.3,0.9-5.1c0-1.7-0.3-3.2-0.9-4.5c-0.6-1.3-1.3-2.3-2.3-3.2c-0.9-0.8-1.9-1.5-3.1-2.1c-1-0.5-2-0.9-3-1.2
				c-1-0.3-1.9-0.6-2.8-0.9c-0.8-0.2-1.5-0.5-2-0.8c-0.4-0.2-0.7-0.4-0.9-0.7c-0.1-0.1-0.1-0.2-0.1-0.3c0-0.3,0-0.5,0.1-0.7
				c0.1-0.1,0.1-0.2,0.3-0.3c0.2-0.2,0.4-0.3,0.8-0.4c0.4-0.1,0.9-0.2,1.4-0.2c0.7,0,1.2,0.1,1.6,0.2c0.5,0.2,1,0.4,1.4,0.6
				c0.5,0.3,0.9,0.5,1.2,0.7c0.8,0.5,1.6,0.7,2.4,0.7c0.8,0,1.5-0.2,2.1-0.6c0.6-0.4,1.1-1,1.5-1.7l1.5-2.8l0.9-1.7l-1.4-1.3
				c-1.4-1.3-3.1-2.4-5-3.1C736.2,442.6,734.1,442.2,731.9,442.2L731.9,442.2z"/>
		</g>
	</g>
	<rect x="2.5" y="484.7" class="st2" width="742" height="4.2"/>
	<rect x="2.5" y="492.3" class="st1" width="742" height="6.7"/>
</g>
</svg>
