<?xml version="1.0" encoding="utf-8"?>
<!-- Generator: Adobe Illustrator 22.1.0, SVG Export Plug-In . SVG Version: 6.00 Build 0)  -->
<svg version="1.1" id="Слой_1" xmlns="http://www.w3.org/2000/svg" xmlns:xlink="http://www.w3.org/1999/xlink" x="0px" y="0px"
	 width="175.748px" height="110.747px" viewBox="0 0 175.748 110.747" style="enable-background:new 0 0 175.748 110.747;"
	 xml:space="preserve">
<style type="text/css">
	.st0{fill:#C2A354;}
	.st1{fill:#0F4B87;}
	.st2{fill-rule:evenodd;clip-rule:evenodd;fill:#0F4B87;}
</style>
<g>
	<path class="st0" d="M128.211,41.908c-1.941,0.653-5.082,1.288-7.061,1.62c-0.349-8.885-5.4-14.262-3.396-17.022
		c3.71-5.101,11.666-10.81,19.973-15.587c-1.638,2.075-1.943,4.073-2.739,4.606c-2.089,1.393-6.551,4.86-8.804,8.436
		c1.478-1.412,6.682-6.595,11.943-9.34c-1.417,2.512-0.786,3.484-1.912,4.445c-0.898,0.772-5.803,5.312-8.233,9.425
		c1.371-1.615,3.343-3.628,5.011-4.695c-0.617,1.392-0.935,2.25-1.011,3.736C131.717,32.66,130.642,37.921,128.211,41.908
		L128.211,41.908z M124.16,67.68c-1.313-1.687-4.182-2.112-5.644-0.465c-0.981,1.108-0.213,2.618,0.85,2.909
		c-1.243-1.174,0.333-3.002,1.922-1.539c0.883,0.811,1.361,2.133,2.918,1.439C123.286,69.845,122.837,68.404,124.16,67.68
		L124.16,67.68z M149.856,54.997c-1.497,0.815-3.741,2.879-8.726,0.894c2.25,2.19,4.085,3.354,6.322,3.32
		c2.494-0.127,7.052-2.192,8.472-2.698L149.856,54.997L149.856,54.997z M127.653,43.064c-2.485,0.752-4.885,1.132-7.845,1.615
		c-3.377,0.55-5.009,1.323-6.412,3.201c-1.454,1.941-1.54,2.885-1.388,3.766c0.135,0.784,0.704,1.222,0.819,2.063
		c0.096,0.704,1.026,2.089,2.759,2.074c-0.511-0.238-0.763-0.847-0.199-1.367c0.496-0.459,2.178-1.268,3.553-0.547
		c1.387,0.726,3.903,3.09,5.712,5.707c2.006,2.895-0.028,3.526-1.957,2.874c-2.866-0.977-5.103-2.657-6.344-2.67
		c-1.516-0.02-2.427,1.111-1.49,2.87c-0.179-1.896,2.237-1.868,2.105-0.38c-0.139,1.53-1.028,1.994,0.545,3.777
		c-0.29-1.336-0.046-2.644,1.983-2.64c2.032,0.005,4.697,1.022,6.544,5.051c3.408-0.136,6.835-1.892,9.782-2.815
		c-1.877-0.588-3.928-1.995-6.811-5.072c5.599,1.713,11.242,5.323,18.014,2.9c5.998-2.145,12.727-4.429,19.966-5.837
		c-2.339-0.137-6.627-0.485-8.397-0.573c-2.415,0.858-4.749,1.727-7.526,2.682c-2.56,0.884-5.97,1.898-9.278-1.591
		c-3.756-3.953-10.001-8.16-8.814-11.356c1.221,2.301,2.407,3.555,5.433,4.561c3.117,1.033,5.844,1.483,7.17,1.67
		c3.11,0.437,3.516-0.384,4.465-1.314c2.604-2.557,5.535-7.627,7.461-10.725c-3.374,0.214-10.78,0.164-13.69-1.288
		c3.907,0.173,8.293,0.324,10.717,0.204c2.183-0.109,2.951,0.148,3.631-1.267c0.602-1.255,1.068-2.643,1.068-2.643
		c-2.758,0.548-11.55,0.446-13.652-0.18c2.082-0.516,8.577-0.473,10.307-0.522c1.732-0.051,2.788-0.069,3.207-1.419
		c0.423-1.352,0.65-2.181,0.65-2.181c-1.727,0.595-8.266,0.783-13.234,0.344c2.745-0.4,8.196-0.706,10.214-0.873
		c2.13-0.175,2.708-0.272,2.984-1.53c0.313-1.438,0.483-2.113,0.483-2.113c-2.442,0.305-7.649,0.835-12.898,0.673
		c2.004-0.435,8.105-1.011,10.154-1.412c1.691-0.332,2.282-0.487,2.457-1.857c0.193-1.492,0.662-2.413,0.662-2.413
		c-3.627,0.517-11.471,1.816-12.525,2.158c2.012-1.601,6.928-2.143,9.179-2.611c2.101-0.437,2.55-0.213,3.116-1.813
		c0.513-1.453,0.938-2.14,0.938-2.14c-2.641,0.453-8.412,1.56-11.42,2.782c1.28-1.431,6.542-2.84,8.614-3.132
		c3.88-0.548,2.216-1.404,4.275-4.08c-2.364,0.204-6.266,0.913-10.937,3.243c1.563-2.032,5.691-3.209,8.576-3.787
		c1.689-0.337,2.557-0.172,3.366-1.532c0.812-1.363,1.903-2.541,2.385-3.033c-2.112,0.301-7.757,1.514-11.519,3.577
		c1.887-2.274,6.257-3.441,8.693-3.929c2.602-0.523,3.177-0.55,4.138-1.529c0.712-0.721,2.156-2.057,3.023-2.629
		c-3.712,0.402-7.756,1.012-11.888,2.916c2.254-2.291,9.227-3.722,11.367-3.806c3.038-0.123,2.081-1.174,5.807-3.16
		c-8.619-0.122-19.041,1.407-24.16,6.171c-1.943,1.805-9.364,9.084-13.56,14.118c-1.437,1.725-2.644,2.574-3.061,6.748
		c-0.549,5.51-2.086,13.236-9.287,19.397C125.883,46.153,126.935,44.46,127.653,43.064L127.653,43.064z M116.584,49.787
		c1.341,0.206,0.549,1.836-0.506,1.037c0,0-0.095,0.179-0.128,0.414c0.113,0.172,0.503,0.394,1.022,0.438
		c-0.708,0.718-1.34,0.195-2.048,0.778c-0.514,0.425-0.75,1.656-0.413,2.299c-0.549-0.354-0.988-1.394-0.736-1.896
		c-0.191-0.2-0.525-0.161-0.783-0.076l-0.092-0.427c0,0,2.184-0.185,1.852-1.802c-0.187-0.903,0.833-2.115,1.144-2.496
		c0.14-0.174,1.325-1.73,7.403-2.65C121.53,46.019,118.236,46.473,116.584,49.787L116.584,49.787z"/>
	<path class="st1" d="M63.491,72.181c0.244,0,0.247,0.13,0.247,0.179c0,0.058-0.016,0.171-0.249,0.171
		c-0.355,0-0.963-0.046-0.963,0.833v11.585h-1.442c-0.649,0-0.71-0.487-0.71-0.749V72.733c0-0.283,0.197-0.552,0.547-0.552H63.491
		L63.491,72.181z"/>
	<path class="st1" d="M84.737,72.181c0.245,0,0.247,0.13,0.247,0.179c0,0.058-0.015,0.171-0.248,0.171
		c-0.358,0-0.965-0.046-0.965,0.833v11.585h-1.443c-0.647,0-0.703-0.487-0.703-0.749V72.733c0-0.283,0.194-0.552,0.543-0.552H84.737
		L84.737,72.181z"/>
	<path class="st2" d="M4.199,82.839c0-0.666,0.539-1.207,1.205-1.207c0.666,0,1.207,0.541,1.207,1.207
		c0,0.664-0.541,1.206-1.207,1.206C4.738,84.045,4.199,83.503,4.199,82.839L4.199,82.839z"/>
	<path class="st2" d="M43.415,72.038c0-0.664,0.538-1.206,1.205-1.206c0.666,0,1.207,0.542,1.207,1.206
		c0,0.666-0.541,1.208-1.207,1.208C43.953,73.246,43.415,72.704,43.415,72.038L43.415,72.038z"/>
	<path class="st2" d="M71.66,74.454c0-0.668,0.541-1.206,1.208-1.206c0.667,0,1.205,0.538,1.205,1.206
		c0,0.665-0.538,1.207-1.205,1.207C72.201,75.661,71.66,75.119,71.66,74.454L71.66,74.454z"/>
	<path class="st2" d="M101.222,88c0-0.665,0.539-1.206,1.206-1.206c0.665,0,1.206,0.541,1.206,1.206
		c0,0.669-0.541,1.205-1.206,1.205C101.761,89.205,101.222,88.669,101.222,88L101.222,88z"/>
	<path class="st2" d="M104.452,88c0-0.665,0.54-1.206,1.207-1.206c0.667,0,1.206,0.541,1.206,1.206c0,0.669-0.539,1.205-1.206,1.205
		C104.992,89.205,104.452,88.669,104.452,88L104.452,88z"/>
	<path class="st2" d="M23.5,88c0-0.665,0.539-1.206,1.204-1.206c0.668,0,1.208,0.541,1.208,1.206c0,0.669-0.54,1.205-1.208,1.205
		C24.039,89.205,23.5,88.669,23.5,88L23.5,88z"/>
	<path class="st2" d="M26.732,88c0-0.665,0.538-1.206,1.205-1.206c0.666,0,1.206,0.541,1.206,1.206c0,0.669-0.54,1.205-1.206,1.205
		C27.27,89.205,26.732,88.669,26.732,88L26.732,88z"/>
	<path class="st1" d="M68.401,76.603c-0.35,0-0.543,0.27-0.543,0.554l-0.002,6.631c-0.002,2.785,0.802,5.803,5.367,5.803
		c4.689,0,5.51-2.618,5.51-5.435v-6.367c0-0.88,0.606-0.833,0.965-0.833c0.234,0,0.247-0.113,0.247-0.171
		c0-0.05-0.007-0.181-0.245-0.181h-2.569c-0.349,0-0.545,0.27-0.545,0.554v6.816c0,2.442-0.678,4.702-3.547,4.702
		c-3.201,0-3.708-2.365-3.708-4.193v-6.694c0-0.86,0.57-0.833,0.965-0.833c0.235,0,0.245-0.113,0.245-0.171
		c0-0.05-0.002-0.181-0.245-0.181H68.401L68.401,76.603z"/>
	<path class="st1" d="M8.434,84.948v-7.287c-0.39-0.101-0.89-0.157-1.204-0.157c-2.658,0-4.991,1.622-4.991,5.319
		c0,3.737,2.237,5.939,5.588,5.939c1.036,0,1.905-0.124,2.968-0.376c0.211-0.05,0.336,0.211,0.104,0.334
		c-0.941,0.478-2.402,0.872-3.796,0.872c-3.978,0-7.103-2.19-7.103-6.67c0-2.928,1.959-6.286,7.238-6.286
		c0.561,0,1.019,0.065,1.17,0.089c-0.115-1.663-0.726-3.575-2.95-3.575c-1.549,0-2.034,0.817-2.304,1.588
		c-0.065,0.187-0.088,0.307-0.219,0.307c-0.083,0-0.167-0.05-0.167-0.241v-2.666c0.325-0.031,0.96-0.062,1.289-0.062
		c5.006,0,6.522,2.716,6.522,5.893v4.859h14.667v-5.672c0-0.284,0.197-0.554,0.545-0.554h2.572c0.245,0,0.245,0.131,0.245,0.18
		c0,0.059-0.015,0.172-0.248,0.172c-0.357,0-0.965-0.047-0.965,0.831v5.043h5.717V72.733c0-0.283,0.194-0.552,0.544-0.552h2.569
		c0.245,0,0.245,0.13,0.245,0.179c0,0.058-0.014,0.171-0.249,0.171c-0.355,0-0.964-0.046-0.964,0.833v9.467h12.898v-2.417
		c0-3.088-1.632-4.791-3.805-4.791c-2.691,0-3.214,1.843-3.417,2.66c-0.026,0.108-0.099,0.158-0.188,0.158
		c-0.096,0-0.172-0.071-0.172-0.251v-2.927c1.475-0.373,2.788-0.507,3.866-0.507c4.184,0,5.861,2.329,5.861,6.154v1.921h5.03V72.733
		c0-0.283,0.196-0.552,0.545-0.552h2.57c0.244,0,0.247,0.13,0.247,0.179c0,0.058-0.015,0.171-0.249,0.171
		c-0.358,0-0.964-0.046-0.964,0.833v11.585H8.434L8.434,84.948z"/>
	<path class="st1" d="M112.946,78.177v4.652h9.115l0.003-1.805c0-1.763-0.67-2.847-3.415-2.847H112.946L112.946,78.177z
		 M106.082,76.603c0.245,0,0.247,0.131,0.247,0.18c0,0.059-0.014,0.172-0.249,0.172c-0.359,0-0.965-0.047-0.965,0.831v5.043h5.682
		V72.733c0-0.283,0.196-0.552,0.542-0.552h2.573c0.244,0,0.244,0.13,0.244,0.179c0,0.058-0.014,0.171-0.245,0.171
		c-0.359,0-0.965-0.046-0.965,0.833v3.241h6.197c4.284,0,5.069,2.261,5.069,4.008v4.337H88.764
		c-0.393,3.023-2.806,4.377-3.738,4.614c-0.337,0.086-0.417-0.071-0.224-0.185c1.685-0.971,1.866-3.312,1.866-4.429v-7.791
		c0-0.285,0.197-0.554,0.545-0.554h2.574c0.242,0,0.244,0.131,0.244,0.18c0,0.059-0.014,0.172-0.246,0.172
		c-0.357,0-0.966-0.047-0.966,0.831v5.043h14.15v-5.672c0-0.284,0.198-0.554,0.546-0.554H106.082L106.082,76.603z"/>
	<path class="st2" d="M61.141,104.041l2.054,0.031c1.047-0.006,1.221,0.721,1.226,1.041c0.004,0.175,0.05,0.27,0.148,0.27
		c0.081,0,0.142-0.08,0.158-0.247c0.026-0.291,0.033-0.829,0.099-1.522c0.038-0.37,0.096-0.67,0.109-0.808
		c0.015-0.188-0.096-0.276-0.207-0.072c-0.083,0.151-0.233,0.414-0.853,0.44l-2.735,0.037v-4.624l3.759,0.057
		c1.334,0.038,1.219,1.079,1.227,1.357c0.001,0.175,0.05,0.264,0.159,0.264c0.086,0,0.156-0.079,0.169-0.244
		c0.032-0.291,0.048-1.03,0.112-1.555c0.057-0.457,0.073-0.457,0.12-0.735c0.028-0.157-0.055-0.252-0.215-0.122
		c-0.152,0.119-0.555,0.102-0.881,0.109l-7.565,0.003c-0.243,0-0.245,0.127-0.245,0.177c0,0.058,0.015,0.173,0.248,0.173
		c0.357,0,0.966-0.049,0.966,0.829l-0.003,11.586h1.445c0.647,0,0.704-0.486,0.704-0.747V104.041L61.141,104.041z"/>
	<path class="st2" d="M45.11,109.6V98.271c0-0.284-0.194-0.554-0.543-0.554l-2.57,0.003c-0.244,0-0.244,0.127-0.244,0.177
		c0,0.058,0.015,0.173,0.246,0.173c0.356,0,0.966-0.049,0.966,0.829l-0.001,11.586h7.14c0.421,0,0.59-0.171,0.661-0.419
		c0.144-0.519,0.301-2.101,0.301-2.286c0.002-0.291-0.285-0.299-0.321,0.005c-0.058,0.483-0.281,1.668-1.681,1.744
		C47.605,109.607,46.058,109.609,45.11,109.6L45.11,109.6z"/>
	<path class="st2" d="M100.222,97.721c-0.244,0-0.244,0.127-0.244,0.177c0,0.058,0.011,0.173,0.245,0.173
		c0.358,0,0.966-0.049,0.966,0.829v11.586h1.442c0.649,0,0.706-0.486,0.706-0.747V98.274c0-0.284-0.195-0.553-0.545-0.553H100.222
		L100.222,97.721z"/>
	<path class="st1" d="M32.554,97.717c0.349,0,0.546,0.27,0.546,0.554v6.632c0.002,2.786-0.802,5.803-5.369,5.803
		c-4.689,0-5.509-2.619-5.509-5.437V98.9c0-0.878-0.607-0.829-0.965-0.829c-0.236,0-0.247-0.115-0.247-0.173
		c0-0.05,0.007-0.177,0.245-0.177l2.568-0.003c0.349,0,0.545,0.27,0.545,0.554v6.815c0,2.444,0.678,4.704,3.545,4.704
		c3.2,0,3.71-2.365,3.71-4.193V98.9c0-0.859-0.568-0.829-0.966-0.829c-0.233,0-0.248-0.115-0.248-0.173
		c0-0.05,0.004-0.177,0.247-0.177L32.554,97.717L32.554,97.717z"/>
	<path class="st1" d="M88.178,105.823l-2.068-5.12l-2.133,5.12H88.178L88.178,105.823z M89.523,109.155l-0.961-2.377h-4.98
		l-1.543,3.707l-1.779-0.003c-0.183,0-0.244-0.078-0.244-0.166c0-0.063,0.033-0.167,0.264-0.183c0.44-0.024,0.663-0.186,0.928-0.787
		l5.032-11.487c0.247-0.562,0.484-0.572,0.73,0l5.492,12.623l-3.543,0.003c-0.192,0-0.245-0.074-0.245-0.167
		c0-0.074,0.056-0.157,0.245-0.185C89.47,110.063,89.78,109.789,89.523,109.155L89.523,109.155z"/>
	<path class="st1" d="M115.916,98.473v5.728h1.08c1.505,0,2.824-0.981,2.824-2.938C119.82,98.775,117.917,98.473,115.916,98.473
		L115.916,98.473z M119.282,104.527c1.401,2.306,2.633,4.227,4.037,5.383c0.527,0.431,0.841,0.383,0.841,0.628
		c0,0.079-0.048,0.157-0.223,0.18c-0.128,0.018-0.304,0.028-0.528,0.028c-3.14,0-4.118-2.527-6.134-5.691h-1.36v4.876
		c0,0.285-0.193,0.551-0.543,0.551l-2.616,0.003c-0.246,0-0.246-0.131-0.246-0.177c0-0.06,0.014-0.175,0.246-0.175
		c0.359,0,1.012-0.042,1.012-0.829V98.9c0-0.878-0.607-0.829-0.965-0.829c-0.235,0-0.247-0.115-0.247-0.173
		c0-0.05,0-0.177,0.245-0.177h4.859c1.797-0.003,4.055,0.613,4.055,3.363C121.718,102.829,120.612,103.937,119.282,104.527
		L119.282,104.527z"/>
	<path class="st1" d="M9.096,104.473h2.487c0.348,0,0.545,0.271,0.545,0.554v4.48c0,0.272-0.109,0.375-0.315,0.457
		c-1.737,0.677-3.431,0.783-4.638,0.783c-3.544,0-7.152-1.859-7.152-6.564c0-5.484,4.524-6.75,7.198-6.75
		c1.788,0,3.459,0.434,4.314,0.561c0.198,0.028,0.238,0.075,0.238,0.202v2.706c0,0.374-0.323,0.401-0.368,0
		c-0.088-0.734-0.994-2.616-4.183-2.616c-1.799,0-4.961,1.066-4.961,5.714c0,4.289,2.986,5.822,5.543,5.822
		c0.889,0,2.259-0.248,2.26-0.927v-3.239c0-0.88-0.608-0.829-0.966-0.829c-0.233,0-0.245-0.117-0.245-0.173
		C8.851,104.604,8.851,104.473,9.096,104.473L9.096,104.473z"/>
</g>
</svg>
