<?xml version="1.0" encoding="utf-8"?>
<!-- Generator: Adobe Illustrator 22.1.0, SVG Export Plug-In . SVG Version: 6.00 Build 0)  -->
<svg version="1.1" id="Слой_1" xmlns="http://www.w3.org/2000/svg" xmlns:xlink="http://www.w3.org/1999/xlink" x="0px" y="0px"
	 width="1752.348px" height="631.876px" viewBox="0 0 1752.348 631.876" style="enable-background:new 0 0 1752.348 631.876;"
	 xml:space="preserve">
<style type="text/css">
	.st0{fill:#59237F;}
	.st1{fill:#5DBB5E;}
</style>
<g>
	<path class="st0" d="M435.256,46.263c0,49.383,0,98.34,0,148.074c-2.134-1.176-3.877-1.99-5.468-3.036
		c-10.547-6.939-21.443-13.258-32.569-19.238c-19.479-10.469-39.876-18.652-60.96-25.128c-13.412-4.12-27.076-7.269-41.006-9.243
		c-8.682-1.23-17.359-2.281-26.098-3.1c-13.636-1.277-27.257-1.125-40.847-0.458c-12.701,0.623-25.263,2.825-37.172,7.642
		c-6.951,2.812-13.452,6.273-18.887,11.736c-8.022,8.062-10.717,17.7-9.598,28.65c0.886,8.675,4.334,16.396,10.517,22.483
		c5.329,5.246,11.724,9.22,18.64,12.187c14.012,6.011,28.712,9.92,43.319,14.132c16.174,4.664,32.305,9.482,48.418,14.354
		c15.639,4.729,31.352,9.258,46.803,14.544c10.929,3.739,21.548,8.429,32.179,12.989c16.063,6.889,31.022,15.756,45.108,26.087
		c18.535,13.594,34.156,29.844,45.889,49.762c9.513,16.15,15.616,33.466,19.059,51.828c1.71,9.121,2.892,18.271,3.104,27.554
		c0.075,3.292,0.688,6.578,0.667,9.864c-0.114,17.235-1.688,34.326-5.943,51.072c-2.404,9.461-5.615,18.634-9.682,27.565
		c-5.325,11.696-11.981,22.474-19.822,32.615c-8.497,10.989-18.397,20.547-29.345,28.988c-11.185,8.624-23.209,15.946-35.923,22.172
		c-17.299,8.47-35.303,14.982-54.001,19.427c-12.82,3.048-25.777,5.593-38.764,7.838c-7.635,1.32-15.451,1.571-23.178,2.375
		c-18.704,1.946-37.467,2.117-56.232,1.673c-7.424-0.176-14.831-1.071-22.244-1.658c-4.119-0.326-8.239-0.652-12.351-1.046
		c-25.848-2.48-51.193-7.586-76.216-14.459c-16.765-4.605-33.128-10.368-49.053-17.273c-10.174-4.411-19.993-9.639-29.836-14.434
		c0-49.655,0-98.736,0-148.503c1.932,0.876,3.505,1.352,4.818,2.222c13.997,9.275,28.776,17.159,43.961,24.237
		c25.968,12.103,52.867,21.621,80.834,28.006c11.757,2.684,23.591,4.852,35.586,6.254c8.064,0.942,16.096,1.924,24.23,1.968
		c3.289,0.018,6.589,0.769,9.861,0.635c10.087-0.414,20.159-1.199,30.245-1.641c9.98-0.438,19.639-2.541,29.209-5.18
		c9.698-2.675,18.832-6.737,26.431-13.335c7.785-6.76,12.296-15.479,12.613-26.063c0.201-6.687-0.465-13.189-3.011-19.474
		c-4.169-10.29-12.084-16.804-21.519-21.858c-13.648-7.311-28.236-12.078-43.113-16.145c-16.233-4.438-32.403-9.107-48.589-13.714
		c-14.434-4.108-28.9-8.112-43.269-12.44c-21.909-6.599-43.146-14.92-63.29-25.856c-17.771-9.648-34.05-21.355-47.855-36.196
		c-15.01-16.137-25.801-34.816-32.343-55.903c-3.628-11.696-5.95-23.635-7.269-35.82c-1.583-14.619-1.671-29.311-0.495-43.85
		c1.938-23.964,8.659-46.766,20.557-67.828C27.16,92.043,34.07,82.572,41.869,73.658C55.141,58.49,70.837,46.387,88.039,36.183
		c15.297-9.074,31.646-15.91,48.606-21.249c12.45-3.919,25.063-7.14,37.973-9.24c10.594-1.723,21.154-3.56,31.903-4.026
		c5.956-0.258,11.904-0.685,17.859-0.978c5.793-0.285,11.592-0.755,17.382-0.682c9.793,0.123,19.598,0.362,29.368,1.011
		c10.553,0.701,21.114,1.599,31.595,2.989c28.709,3.809,56.85,10.22,84.079,20.156c15.104,5.512,29.836,11.992,44.1,19.469
		C432.361,44.396,433.726,45.333,435.256,46.263z"/>
	<path class="st0" d="M1447.623,247.484c3.124-5.51,5.87-10.23,8.5-15.013c9.833-17.886,19.607-35.804,29.443-53.688
		c6.874-12.499,13.818-24.959,20.721-37.442c8.746-15.818,17.488-31.638,26.222-47.462c8.896-16.117,17.762-32.25,26.678-48.357
		c6.501-11.744,13.06-23.455,19.696-35.365c57.697,0,115.45,0,173.465,0c-0.243,2.418-1.564,4.143-2.593,5.94
		c-5.763,10.066-11.578,20.102-17.394,30.138c-5.737,9.901-11.518,19.776-17.237,29.687c-4.308,7.467-8.509,14.995-12.826,22.456
		c-7.136,12.337-14.372,24.616-21.481,36.968c-6.945,12.067-13.741,24.221-20.683,36.29c-7.027,12.216-14.185,24.356-21.226,36.564
		c-5.631,9.763-11.142,19.594-16.76,29.365c-5.618,9.771-11.315,19.497-16.952,29.257c-5.555,9.617-11.072,19.256-16.617,28.879
		c-5.796,10.057-11.621,20.098-17.405,30.163c-4.378,7.618-8.674,15.282-13.074,22.887c-7.054,12.192-14.183,24.341-21.241,36.53
		c-3.073,5.306-5.978,10.71-9.095,15.989c-1.755,2.972-2.328,6.045-2.323,9.493c0.079,52.989,0.055,105.978,0.055,158.967
		c0,15.497,0,30.994,0,46.49c0,1.65,0,3.3,0,4.902c-3.798,0.844-159.382,1.006-165.18,0.165c0-1.725,0-3.519,0-5.314
		c0-68.819-0.022-137.639,0.069-206.458c0.004-3.174-0.843-5.822-2.368-8.447c-3.747-6.451-7.46-12.921-11.157-19.402
		c-6.65-11.657-13.315-23.306-19.902-34.998c-6.597-11.709-13.057-23.495-19.669-35.195c-6.361-11.254-12.865-22.428-19.258-33.664
		c-4.757-8.362-9.416-16.779-14.156-25.151c-6.697-11.827-13.46-23.616-20.134-35.456c-5.213-9.249-10.28-18.58-15.509-27.82
		c-6.367-11.251-12.862-22.43-19.254-33.668c-4.756-8.362-9.412-16.781-14.154-25.151c-6.7-11.825-13.47-23.61-20.148-35.447
		c-5.136-9.104-10.128-18.288-15.27-27.388c-6.361-11.255-12.84-22.443-19.213-33.691c-3.927-6.931-7.762-13.914-11.605-20.891
		c-0.458-0.831-0.71-1.774-1.178-2.975c59.613,0,118.891,0,178.526,0c1.433,2.441,3.078,5.097,4.584,7.829
		c7.927,14.383,15.807,28.793,23.727,43.18c9.041,16.424,18.103,32.837,27.163,49.251c6.973,12.633,13.957,25.259,20.938,37.887
		c8.661,15.668,17.331,31.332,25.984,47.005c8.738,15.825,17.452,31.662,26.205,47.479
		C1445.322,244.219,1446.318,245.517,1447.623,247.484z"/>
	<path class="st1" d="M920.199,317.859c-1.037,0.704-2.356,1.196-3.069,2.144c-10.423,13.859-20.722,27.812-31.136,41.678
		c-15.278,20.341-30.623,40.631-45.942,60.941c-14.324,18.992-28.65,37.982-42.978,56.971
		c-14.428,19.122-28.863,38.239-43.289,57.362c-14.226,18.857-28.438,37.725-42.669,56.579
		c-6.372,8.441-12.801,16.839-19.149,25.298c-1.627,2.168-3.509,3.006-6.333,3.001c-60.821-0.094-121.642-0.07-182.463-0.078
		c-1.135,0-2.269-0.107-4.242-0.206c6.501-10.24,14.139-18.862,20.802-28.174c6.73-9.405,13.843-18.538,20.834-27.755
		c6.99-9.216,14.067-18.365,21.052-27.585c6.984-9.22,13.903-18.489,20.847-27.739c6.94-9.243,13.875-18.49,20.814-27.734
		c6.943-9.25,13.851-18.526,20.843-27.739c6.993-9.216,14.106-18.341,21.102-27.555c6.993-9.211,13.904-18.484,20.854-27.727
		c6.948-9.24,13.904-18.473,20.85-27.715c6.95-9.247,13.884-18.506,20.84-27.748c6.943-9.225,13.904-18.437,21.143-28.033
		c-76.629-101.623-153.25-203.235-230.066-305.106c2.216-1.394,4.07-0.913,5.782-0.914c41.492-0.034,82.983-0.026,124.475-0.026
		c18.663,0,37.326,0.067,55.988-0.065c3.141-0.022,4.993,0.914,6.939,3.525c14.706,19.742,29.675,39.287,44.508,58.935
		c6.467,8.567,12.754,17.271,19.217,25.841c9.752,12.93,19.622,25.771,29.377,38.699c12.935,17.141,25.787,34.344,38.715,51.49
		c9.651,12.799,19.403,25.522,29.046,38.326c11.624,15.435,23.148,30.946,34.777,46.378c9.745,12.931,19.576,25.797,29.374,38.688
		c0.791,1.04,1.619,2.052,2.43,3.077C919.714,315.881,919.956,316.87,920.199,317.859z"/>
	<path class="st0" d="M920.199,317.859c-0.243-0.989-0.486-1.979-0.729-2.968c0.278-0.537,0.746-1.057,0.795-1.614
		c0.116-1.323,0.032-2.663,0.032-3.996c0-97.808,0-195.616,0-293.424c0-1.822,0-3.645,0-5.302c0.282-0.282,0.396-0.405,0.519-0.517
		c0.12-0.108,0.245-0.287,0.376-0.294c0.997-0.053,1.996-0.098,2.995-0.098c53.959-0.004,107.919-0.004,161.816-0.004
		c0.868,3.957,1.179,603.096,0.351,612.101c-55.173,0-110.374,0-166.057,0c0-2.059,0-4.013,0-5.967c0-97.475,0-194.95-0.004-292.424
		C920.293,321.522,920.232,319.691,920.199,317.859z"/>
</g>
</svg>
