<?xml version="1.0" encoding="utf-8"?>
<!-- Generator: Adobe Illustrator 15.0.2, SVG Export Plug-In . SVG Version: 6.00 Build 0)  -->
<!DOCTYPE svg PUBLIC "-//W3C//DTD SVG 1.1//EN" "http://www.w3.org/Graphics/SVG/1.1/DTD/svg11.dtd">
<svg version="1.1" id="レイヤー_1" xmlns="http://www.w3.org/2000/svg" xmlns:xlink="http://www.w3.org/1999/xlink" x="0px"
	 y="0px" width="6000px" height="1212px" viewBox="0 0 6000 1212" enable-background="new 0 0 6000 1212" xml:space="preserve">
<path fill="#180D88" d="M1605.453,338.393l-182.036,402.928h67.066l45.775-109.647h138.39l45.064,109.647h67.778L1605.453,338.393z
	 M1558.613,577.382l46.485-102.892l46.484,102.892H1558.613z"/>
<path fill="#180D88" d="M1985.85,491.864l-34.774,36.905c0,0-21.291-26.259-56.066-26.259s-36.904,26.259-36.904,26.259
	s-5.677,25.548,54.646,39.033c60.323,13.484,81.614,49.678,81.614,89.421s-33.355,85.163-94.39,85.163
	c-61.033,0-87.292-24.839-104.324-48.259l40.453-34.775c0,0,21.291,31.936,61.744,31.936c30.161,0,37.347-28.743,37.347-34.598
	c0-5.854,2.262-20.093-35.22-32.823c-44.218-15.019-99.356-24.84-99.356-92.97c0-68.13,66.711-81.615,94.39-81.615
	S1956.751,457.089,1985.85,491.864z"/>
<g>
	<g>
		<rect x="2030" y="454" fill="#180D88" width="62" height="289"/>
		<rect x="2030" y="454" fill="#180D88" width="62" height="289"/>
		<rect x="2030" y="343" fill="#180D88" width="62" height="60"/>
	</g>
</g>
<path fill="#180D88" d="M2362.842,531.033c-0.404-5.963-5.437-57.214-59.684-75.389l-0.963-1.216v0.907
	c-11.645-3.778-25.51-6.052-42.05-6.052c-54.291,0-102.729,17.387-102.729,17.387v54.292c0,0,115.504-48.258,144.778,5.679v130.05
	c0,25.55-37.791,33.534-58.55,33.534c-20.758,0-56.952-6.387-56.952-49.501s40.453-48.436,60.679-48.436
	c20.225,0,28.209,3.193,28.209,3.193V544.38c0,0-11.177-7.451-43.113-7.451c-45.774,0-104.324,34.598-104.324,106.188
	c0,71.59,53.227,98.736,109.114,98.736c51.095,0,69.703-20.897,72.521-24.484h0.933v24.484h52.161V531.074L2362.842,531.033z"/>
<path fill="#180D88" d="M2676.308,339.164L2494.27,742.093h67.067l45.774-109.647h138.393l45.064,109.647h67.774L2676.308,339.164z
	 M2629.467,578.153l46.484-102.892l46.486,102.892H2629.467z"/>
<g>
	<g>
		<rect x="3863" y="454" fill="#180D88" width="63" height="289"/>
		<rect x="3863" y="454" fill="#180D88" width="63" height="289"/>
		<rect x="3863" y="343" fill="#180D88" width="63" height="60"/>
	</g>
</g>
<g>
	<g>
		<rect x="3040" y="346" fill="#180D88" width="61" height="395"/>
		<rect x="3040" y="346" fill="#180D88" width="61" height="395"/>
	</g>
</g>
<path fill="#180D88" d="M2927.007,509.784h72.389v-55.356h-72.389v-83.035l-60.679,15.968v67.067h-25.55l-15.967,55.356h41.517
	v107.519c0,126.147,70.792,124.551,97.406,124.551c26.612,0,35.661,0,35.661,0v-54.824c-75.582,8.517-72.382-39.72-72.389-41.517
	c-0.023-5.854-0.533-28.21-0.533-28.21h0.533V509.784z"/>
<path fill="#180D88" d="M3373.016,531.033c-0.402-5.963-5.434-57.214-59.684-75.389l-0.962-1.216v0.907
	c-11.646-3.778-25.511-6.052-42.048-6.052c-54.293,0-102.729,17.387-102.729,17.387v54.292c0,0,115.503-48.258,144.776,5.679v130.05
	c0,25.55-37.791,33.534-58.55,33.534c-20.758,0-56.952-6.387-56.952-49.501s40.453-48.436,60.678-48.436
	c20.227,0,28.211,3.193,28.211,3.193V544.38c0,0-11.178-7.451-43.113-7.451c-45.775,0-104.325,34.598-104.325,106.188
	c0,71.59,53.226,98.736,109.115,98.736c51.096,0,69.702-20.898,72.521-24.484h0.932v24.484h52.164V531.074L3373.016,531.033z"/>
<path fill="#180D88" d="M3758.413,509.784h72.39v-55.356h-72.39v-83.035l-60.68,15.968v67.067h-25.547l-15.97,55.356h41.517v107.519
	c0,126.147,70.792,124.551,97.406,124.551s35.663,0,35.663,0v-54.824c-75.583,8.517-72.383-39.72-72.39-41.517
	c-0.024-5.854-0.531-28.21-0.531-28.21h0.531V509.784z"/>
<path fill="#180D88" d="M3549.23,449.283c-33.314,0-56.657,14.185-72.921,32.461v-27.316h-57.484v287.426h57.484V560.35
	c0,0,4.259-60.68,59.081-60.68c39.297,0,47.143,25.975,48.438,47.943v194.24h57.486V539.59
	C3641.314,539.59,3642.911,449.283,3549.23,449.283z"/>
<path fill="#180D88" d="M4216.871,695.707l-39.489-41.669l0,0c-16.264,18.423-39.139,31.878-64.476,31.878
	c-49.359,0-88.308-41.078-88.308-90.436c0-49.358,38.948-90.436,88.308-90.436c23.391,0,44.678,10.87,60.607,26.779l37.441-41.52
	c-26.292-25.188-61.958-40.666-101.242-40.666c-80.843,0-146.375,65.534-146.375,146.374c0,80.841,65.532,146.375,146.375,146.375
	C4152.031,742.386,4190.148,724.42,4216.871,695.707L4216.871,695.707z"/>
<path fill="#180D88" d="M4461.315,338.253l-182.038,402.929h67.067l45.775-109.647h138.389l45.066,109.647h67.776L4461.315,338.253z
	 M4414.475,577.243l46.484-102.892l46.486,102.892H4414.475z"/>
<g>
	<g>
		<rect x="4667" y="454" fill="#180D88" width="60" height="289"/>
		<rect x="4667" y="454" fill="#180D88" width="60" height="289"/>
		<rect x="4667" y="343" fill="#180D88" width="60" height="60"/>
	</g>
</g>
<g>
	<g>
		<rect x="5092" y="454" fill="#180D88" width="60" height="289"/>
		<rect x="5092" y="454" fill="#180D88" width="60" height="289"/>
		<rect x="5092" y="343" fill="#180D88" width="60" height="60"/>
	</g>
</g>
<g>
	<g>
		<rect x="4973" y="348" fill="#180D88" width="60" height="395"/>
		<rect x="4973" y="348" fill="#180D88" width="60" height="395"/>
	</g>
</g>
<path fill="#180D88" d="M5334.238,448.928c-33.314,0-56.659,14.186-72.921,32.461v-27.316h-57.484v287.426h57.484V559.995
	c0,0,4.259-60.679,59.081-60.679c39.295,0,47.143,25.975,48.438,47.943v194.24h57.484V539.236
	C5426.32,539.236,5427.919,448.928,5334.238,448.928z"/>
<g>
	<g>
		<rect x="4973" y="348" fill="#180D88" width="60" height="395"/>
		<rect x="4973" y="348" fill="#180D88" width="60" height="395"/>
	</g>
</g>
<path fill="#180D88" d="M4837.63,495.413V448.75l-60.679,7.453v285.296h60.679V638.417
	c-0.532-154.359,102.196-135.907,102.196-135.907v-57.484C4939.826,445.025,4874.711,435.444,4837.63,495.413z"/>
<path fill="#180D88" d="M5558.592,613.754h119.842h1.78h59.191c0.512-5.533,0.778-11.155,0.778-16.855
	c0-82.114-53.793-148.682-135.906-148.682c-82.115,0-138.037,66.567-138.037,148.682c0,82.115,55.922,148.681,138.037,148.681
	c50.27,0,89.918-24.951,113.117-63.14l-37.547-32.867c-0.179,0.302-0.355,0.6-0.541,0.908c-28.102,46.84-75.42,40.573-75.42,40.573
	l-0.674-0.006l0.004-0.002c-45.197-0.414-76.098-42.404-76.098-94.146c0-52.001,33.6-94.156,76.768-94.156
	c39.107,0,62.048,23.843,71.02,57.785H5562.05C5562.05,560.527,5555.131,592.463,5558.592,613.754z"/>
<path fill="#180D88" d="M5954.156,492.574l-34.773,36.905c0,0-21.293-26.26-56.068-26.26c-34.774,0-36.904,26.26-36.904,26.26
	s-5.676,25.547,54.648,39.032c60.323,13.484,81.613,49.678,81.613,89.421c0,39.744-33.354,85.163-94.388,85.163
	c-61.036,0-87.294-24.839-104.325-48.259l40.453-34.775c0,0,21.289,31.936,61.742,31.936c30.161,0,37.348-28.742,37.348-34.598
	c0-5.854,2.262-20.093-35.218-32.822c-44.22-15.019-99.357-24.839-99.357-92.97c0-68.13,66.709-81.615,94.388-81.615
	C5890.994,449.993,5925.059,457.798,5954.156,492.574z"/>
<g>
	<g>
		<path fill="#0389AD" d="M597.043,29.848c-137.864,0-264.359,48.65-363.271,129.711l-33.855,30.041
			c-0.009,0.008-0.017,0.017-0.025,0.024c0.02,0.069,20.791,72.913,70.688,156.902c26.823-50.262,118.442-105.461,118.442-105.461
			l79.026,118.537c-54.621,52.295-91.682,121.308-91.682,121.308c35.768,33.654,77.728,63.313,126.544,84.098
			c0,0,151.94-316.601,603.282-225.85C1010.634,155.375,818.501,29.848,597.043,29.848z M585.276,272.587l-68.421-86.724
			c169.961-37.915,261.042,21.353,261.042,21.353C669.385,224.213,585.276,272.587,585.276,272.587z"/>
		<path fill="#180D88" d="M597.043,58.609c-140.755,0-269.039,53.387-365.714,141.012c0.028,0.089,13.853,43.877,43.368,100.788
			c0.003-0.004,0.007-0.006,0.01-0.01c50.052-52.918,123.178-91.656,123.178-91.656l102.702,153.762
			c-34.837,20.902-93.417,112.934-93.506,113.074c25.914,22.435,54.902,41.955,87.114,56.305c0,0,139.676-270.896,557.487-228.709
			C954.188,155.811,786.969,58.609,597.043,58.609z M579.007,305.707L476.472,175.742c219.932-79.363,378.562,45.565,378.562,45.565
			C690.593,232.139,579.007,305.707,579.007,305.707z"/>
	</g>
	<g>
		<path fill="#0389AD" d="M1096.241,884.368c67.726-120.082,87.493-254.159,65.479-380.135l-9.535-44.247
			c-0.003-0.01-0.006-0.022-0.01-0.034c-0.069-0.017-73.72-17.709-171.388-15.509c30.602,48.055,33.672,154.974,33.672,154.974
			l-142.069,10.598c-18.718-73.265-60.622-139.448-60.622-139.448c-46.884,14.622-93.33,36.599-135.417,68.907
			c0,0,201.122,287.876-99.647,636.419C783.724,1182.944,987.447,1077.261,1096.241,884.368z M890.593,754.871l109.149-16.99
			c-50.471,166.664-146.839,216.882-146.839,216.882C891.406,851.895,890.593,754.871,890.593,754.871z"/>
		<path fill="#180D88" d="M1071.188,870.238c69.146-122.6,85.667-260.564,56.836-387.815c-0.09-0.02-45.022-9.487-109.092-11.74
			c0.002,0.004,0.003,0.01,0.005,0.015c21.504,69.593,19.323,152.316,19.323,152.316l-184.384,13.919
			c-1.092-40.613-52.475-136.849-52.553-136.994c-32.271,11.548-63.516,27.208-91.839,48.216c0,0,167.338,254.738-74.66,597.937
			C811.075,1133.565,977.885,1035.667,1071.188,870.238z M864.823,733.14l163.573-25.462
			c-38.917,230.55-225.66,307.346-225.66,307.346C874.084,866.476,864.823,733.14,864.823,733.14z"/>
	</g>
	<g>
		<path fill="#0389AD" d="M98.395,888.679c68.643,119.558,173.814,205.039,293.361,250.459l42.909,14.403
			c0.011,0.002,0.022,0.006,0.034,0.008c0.05-0.051,52.88-54.332,100.876-139.422c-56.945,1.763-150.433-50.21-150.433-50.21
			l63.456-127.549c72.545,21.329,150.848,19.109,150.848,19.109c11.378-47.774,16.207-98.931,9.929-151.615
			c0,0-350.22,25.864-496.237-410.74C1.334,467.496-11.868,696.62,98.395,888.679z M314.767,778.024l-41.144,102.514
			C156.12,752.021,162.169,643.522,162.169,643.522C230.938,729.165,314.767,778.024,314.767,778.024z"/>
		<path fill="#180D88" d="M123.339,874.357c70.08,122.067,180.252,206.74,304.376,246.952c0.063-0.067,31.155-33.86,65.815-87.792
			c-0.005-0.002-0.008-0.002-0.014-0.004c-70.813-17.058-140.818-61.188-140.818-61.188L434.913,806.7
			c35.473,19.806,144.451,24.786,144.618,24.793c6.554-33.642,9.05-68.502,5.457-103.582c0,0-304.473,13.745-475.917-369.602
			C29.813,516.233,28.776,709.645,123.339,874.357z M346.611,766.971l-61.661,153.629
			C106.624,769.383,135.985,569.612,135.985,569.612C227.251,706.827,346.611,766.971,346.611,766.971z"/>
	</g>
</g>
</svg>
