<?xml version="1.0" encoding="utf-8"?>
<!-- Generator: Adobe Illustrator 22.1.0, SVG Export Plug-In . SVG Version: 6.00 Build 0)  -->
<svg version="1.1" id="Vector_Layer" xmlns="http://www.w3.org/2000/svg" xmlns:xlink="http://www.w3.org/1999/xlink" x="0px"
	 y="0px" width="85.884px" height="23px" viewBox="0 0 85.884 23" style="enable-background:new 0 0 85.884 23;"
	 xml:space="preserve">
<style type="text/css">
	.st0{fill:#E62027;}
</style>
<g>
	<circle class="st0" cx="12.781" cy="3.843" r="2.476"/>
	<path class="st0" d="M20.05,5.131c0-2.092-1.921-3.773-4.827-4.377c2.302,0.595,3.972,2.226,4.017,3.886
		c0.057,2.087-2.999,4.16-6.459,4.128C9.44,8.737,6.312,6.988,6.286,4.635c-0.019-1.682,1.591-3.278,4.025-3.876
		C7.41,1.366,5.475,3.041,5.475,5.126c0,2.423,3.02,4.302,6.415,4.587l0,0c0.342,0.043,0.644,0.171,0.874,0.417
		c0.219-0.247,0.523-0.377,0.885-0.415l0,0C17.057,9.44,20.05,7.561,20.05,5.131z"/>
	<path class="st0" d="M22.096,6.236c0-2.728-2.515-5.197-7.553-5.875C17.734,0.754,21.162,2.808,21,5.709
		c-0.144,2.58-2.82,4.236-6.379,4.913c-0.611,0.116-1.154,0.19-1.853,0.754c-0.425-0.326-0.808-0.602-2.394-0.894
		c-2.467-0.454-5.881-2.073-5.881-4.971c0-2.346,3.149-4.67,6.488-5.15C6.547,0.754,3.415,3.419,3.415,6.139
		c0,1.692,0.935,2.975,2.634,4.082c1.93,1.257,4.827,1.832,5.358,2.075c0.629,0.287,1.026,0.505,1.354,1.001
		c0.252-0.437,0.846-0.869,1.46-1.026C18.545,11.166,22.096,9.405,22.096,6.236z"/>
	<path class="st0" d="M14.11,0c5.173,0.533,8.95,3.209,8.95,6.634c0,2.396-1.79,4.559-6.415,6.226
		c-1.774,0.553-3.356,1.375-3.889,2.577c-0.532-1.201-2.089-2.023-3.863-2.577c-4.625-1.667-6.415-3.829-6.415-6.226
		c0-3.426,3.777-6.101,8.95-6.634C5.369,0.404,0,3.618,0,7.989c0,3.28,2.493,5.472,6.077,6.913c3.828,1.539,5.636,2.938,6.679,6.536
		c1.043-3.598,2.877-4.997,6.705-6.536c3.583-1.44,6.077-3.632,6.077-6.913C25.537,3.618,20.168,0.404,14.11,0z"/>
	<path class="st0" d="M12.586,22.101c-2.069-3.079-6.222-5.115-8.026-3.118c-0.834,1.155,0.431,2.173,1.122,1.854
		c0.596-0.275,1.085-1.143,0.168-1.912c2.47,1.114,1.24,4.439-1.716,4.042c-2.181-0.273-3.368-2.261-2.711-4.314
		C2.979,14.434,10.565,15.541,12.586,22.101z"/>
	<path class="st0" d="M13.004,22.101c2.069-3.079,6.222-5.115,8.026-3.118c0.834,1.155-0.431,2.173-1.122,1.854
		c-0.596-0.275-1.085-1.143-0.168-1.912c-2.47,1.114-1.24,4.439,1.716,4.042c2.181-0.273,3.368-2.261,2.711-4.314
		C22.611,14.434,15.025,15.541,13.004,22.101z"/>
	<path class="st0" d="M29.165,19.58h2.09v-1.895h0.731v4.845h-0.731v-2.262h-2.09v2.262h-0.731v-4.845h0.731V19.58z"/>
	<path class="st0" d="M36.038,21.353h-2.074l-0.54,1.177h-0.788l2.397-5.149l2.313,5.149h-0.8L36.038,21.353z M35.74,20.666
		l-0.719-1.647l-0.753,1.647H35.74z"/>
	<path class="st0" d="M38.728,17.685v4.845h-0.731v-4.845H38.728z"/>
	<path class="st0" d="M39.809,22.53v-5.174l3.533,3.696v-3.367h0.731v5.14l-3.533-3.687v3.392H39.809z"/>
	<path class="st0" d="M48.163,21.353h-2.074l-0.54,1.177h-0.788l2.397-5.149l2.313,5.149h-0.8L48.163,21.353z M47.865,20.666
		l-0.719-1.647l-0.753,1.647H47.865z"/>
	<path class="st0" d="M50.122,22.53v-5.174l3.533,3.696v-3.367h0.731v5.14l-3.533-3.687v3.392H50.122z"/>
	<path class="st0" d="M61.209,21.353h-2.074l-0.54,1.177h-0.788l2.397-5.149l2.313,5.149h-0.8L61.209,21.353z M60.911,20.666
		l-0.719-1.647l-0.753,1.647H60.911z"/>
	<path class="st0" d="M63.899,17.685v4.845h-0.731v-4.845H63.899z"/>
	<path class="st0" d="M69.831,17.685v4.158h1.425v0.687H69.1v-4.845H69.831z"/>
	<path class="st0" d="M72.726,17.685v4.845h-0.731v-4.845H72.726z"/>
	<path class="st0" d="M73.857,22.53v-5.174l3.533,3.696v-3.367h0.731v5.14l-3.533-3.687v3.392H73.857z"/>
	<path class="st0" d="M82.001,18.372h-1.942v1.164h1.886v0.687h-1.886v1.619h1.942v0.687h-2.673v-4.845h2.673V18.372z"/>
	<path class="st0" d="M85.745,18.407l-0.593,0.351c-0.111-0.192-0.216-0.318-0.317-0.377c-0.105-0.067-0.24-0.1-0.405-0.1
		c-0.203,0-0.371,0.058-0.505,0.173c-0.134,0.113-0.201,0.255-0.201,0.427c0,0.236,0.176,0.427,0.527,0.571l0.483,0.198
		c0.393,0.159,0.681,0.353,0.863,0.582c0.182,0.229,0.273,0.51,0.273,0.843c0,0.446-0.149,0.814-0.446,1.105
		c-0.299,0.293-0.67,0.439-1.114,0.439c-0.42,0-0.768-0.124-1.042-0.373c-0.27-0.249-0.438-0.599-0.505-1.051l0.741-0.163
		c0.033,0.285,0.092,0.481,0.176,0.59c0.151,0.209,0.37,0.314,0.659,0.314c0.228,0,0.417-0.076,0.568-0.229
		c0.151-0.153,0.226-0.346,0.226-0.58c0-0.094-0.013-0.18-0.039-0.259c-0.026-0.078-0.067-0.151-0.122-0.217
		c-0.055-0.066-0.127-0.128-0.215-0.185c-0.088-0.058-0.192-0.112-0.314-0.165l-0.468-0.195c-0.663-0.28-0.995-0.69-0.995-1.23
		c0-0.364,0.139-0.668,0.417-0.913c0.278-0.247,0.624-0.37,1.039-0.37C84.995,17.591,85.431,17.863,85.745,18.407z"/>
	<path class="st0" d="M64.908,17.683v4.866h0.785v-4.201c0.905-0.053,1.463,0.067,1.463,0.752c0,0.579-0.446,0.785-1.35,0.756
		l1.762,2.693h0.924l-1.49-2.167c1.543-0.625,1.018-2.698-0.495-2.698H64.908z"/>
	<path class="st0" d="M55.722,4.632V3.473h-5.305V2.358h-1.159v1.115h-5.339v1.159h5.339v1.204h-3.672h-1.159v1.159v7.58h1.159
		v-7.58h2.742L47.5,7.4c0.101,0.379,0.235,0.741,0.399,1.089h-1.46v1.159h2.818v0.914h-2.818v1.159h2.818v2.546h1.159v-2.546h2.818
		v-1.159h-2.818V9.648h2.818V8.489h-1.251c0.165-0.347,0.298-0.71,0.399-1.089l-0.828-0.405h2.533v6
		c0,0.103,0.004,0.421-0.343,0.421h-1.279l0.312,1.159h1.466c0.612,0,1.003-0.532,1.003-1.042c0-0.231,0-4.422,0-6.538V5.836h-1.159
		h-3.672V4.632H55.722z M51.304,6.995c-0.192,0.527-0.415,1.026-0.674,1.494h-1.376c-0.259-0.468-0.482-0.967-0.674-1.494H51.304z"
		/>
	<g>
		<polygon class="st0" points="70.678,3.473 68.037,3.473 68.037,2.251 66.878,2.251 66.878,3.473 64.672,3.473 64.672,4.632 
			70.678,4.632 		"/>
		<path class="st0" d="M70.368,11.855l-0.232,1.336c-0.022,0.125-0.13,0.216-0.256,0.216h-0.312c-0.133,0-0.24-0.108-0.24-0.24
			V6.249v0h-3.739c0,4.01,0.029,5.717-1.133,7.569l0.997,0.889c0.988-1.393,1.531-3.759,1.388-7.299h1.328v6.3
			c0,0.474,0.384,0.858,0.858,0.858l1.265-0.004c0.453-0.001,0.84-0.328,0.917-0.774l0.301-1.735L70.368,11.855z"/>
	</g>
	<g>
		<polygon class="st0" points="80.529,13.296 80.529,10.769 84.738,10.769 84.738,9.61 75.179,9.61 75.179,10.769 79.37,10.769 
			79.37,13.296 73.95,13.296 73.95,14.456 85.884,14.456 85.884,13.296 		"/>
		<polygon class="st0" points="75.334,4.632 84.565,4.632 84.565,6.483 85.724,6.483 85.724,4.632 85.724,3.473 85.724,3.473 
			84.565,3.473 84.565,3.473 80.529,3.473 80.529,2.297 79.37,2.297 79.37,3.473 75.334,3.473 75.334,3.473 74.175,3.473 
			74.175,3.473 74.175,4.632 74.175,6.483 75.334,6.483 		"/>
		<path class="st0" d="M80.664,5.41v1.97c0,0.76,0.616,1.377,1.377,1.377h3.683V7.399h-3.182c-0.28,0-0.507-0.227-0.507-0.507V5.41
			H80.664z"/>
		<path class="st0" d="M79.59,5.857l-1.257-0.513c-1.02,1.676-2.394,2.362-4.341,2.593l0.602,1.325
			C76.902,8.819,78.649,7.771,79.59,5.857z"/>
	</g>
	<g>
		<path class="st0" d="M33.865,3.473c0.135-0.279,0.26-0.559,0.372-0.84l-1.185-0.429c-0.503,1.184-1.293,2.341-2.266,3.48
			l1.126,0.785c0.498-0.595,0.938-1.209,1.32-1.836h7.56V3.473H33.865z"/>
		<path class="st0" d="M40.243,6.034l0.042-0.621H32.9v0.001L32.874,5.41c-0.059,1.056-0.169,2.183-0.322,3.347h-0.946v1.159h0.78
			c-0.17,1.115-0.376,2.252-0.612,3.38h0.513h0.657h5.749c-0.15,0.728-1.134,0.622-1.965,0.437l0.241,1.194
			c2.321,0.244,2.848-0.625,2.89-1.518c0.002-0.03,0.004-0.068,0.006-0.113h0.718v-1.159h-0.658
			c0.033-0.632,0.074-1.421,0.116-2.221h0.751V8.757h-0.691C40.17,7.437,40.229,6.291,40.243,6.034z M33.524,9.916h2.208
			l-0.796,0.825c0.511,0.315,1.119,0.86,1.612,1.396h-3.389C33.293,11.389,33.415,10.648,33.524,9.916z M38.765,12.137h-2.046
			l0.652-0.783c-0.328-0.399-0.975-0.979-1.593-1.437h3.103L38.765,12.137z M38.94,8.757h-2.253h-3
			c0.098-0.74,0.181-1.47,0.249-2.185h2.018h3.1L38.94,8.757z"/>
		<path class="st0" d="M31.498,3.803c-0.655-0.569-1.44-1.047-2.34-1.445l-0.724,1.115c0.895,0.42,1.676,0.89,2.309,1.426
			L31.498,3.803z"/>
		<path class="st0" d="M30.98,7.431c-0.748-0.605-1.649-1.135-2.651-1.614l-0.681,1.244c0.96,0.438,1.819,0.998,2.562,1.696
			L30.98,7.431z"/>
		<path class="st0" d="M27.396,14.244l1.362,0.785c0.95-1.498,1.758-3.067,2.384-4.724l-1.318-0.533
			C29.227,11.281,28.395,12.77,27.396,14.244z"/>
		<path class="st0" d="M35.954,6.572l-0.815,0.845c0.542,0.334,1.04,0.775,1.548,1.341l0.733-0.881
			C37.087,7.471,36.58,7.033,35.954,6.572z"/>
	</g>
	<g>
		<path class="st0" d="M64.108,4.632V3.473H62.07V2.251h-1.159v1.222h-1.597v0.588c-0.009,1.342,0.027,2.557,0.043,3.681h-0.965
			v1.159h0.971c-0.012,1.904-0.164,3.553-0.835,5.149l0.964,0.752c0.644-1.354,0.973-3.289,1.058-5.901h2.394v4.227
			c0,0.154-0.125,0.278-0.278,0.278h-1.297l0.274,1.159h1.521c0.522,0,0.944-0.423,0.944-0.944v-0.215h-0.005V8.901h0.005V7.742
			h-0.005v-3.11H64.108z M62.944,7.742h-2.372c0.006-0.955-0.015-1.991-0.06-3.11h2.432V7.742z"/>
		<path class="st0" d="M62.592,7.149c-0.136-0.684-0.362-1.371-0.666-2.059l-1.095,0.274c0.316,0.701,0.52,1.428,0.622,2.178
			L62.592,7.149z"/>
		<path class="st0" d="M62.64,11.908c-0.136-0.684-0.419-1.549-0.723-2.237l-1.048,0.293c0.272,0.696,0.49,1.489,0.64,2.244
			L62.64,11.908z"/>
	</g>
</g>
</svg>
