<?xml version="1.0" encoding="utf-8"?>
<!-- Generator: Adobe Illustrator 22.1.0, SVG Export Plug-In . SVG Version: 6.00 Build 0)  -->
<svg version="1.1"
	 id="svg27053" xmlns:cc="http://creativecommons.org/ns#" xmlns:dc="http://purl.org/dc/elements/1.1/" xmlns:rdf="http://www.w3.org/1999/02/22-rdf-syntax-ns#" xmlns:svg="http://www.w3.org/2000/svg"
	 xmlns="http://www.w3.org/2000/svg" xmlns:xlink="http://www.w3.org/1999/xlink" x="0px" y="0px" width="113.955px" height="23px"
	 viewBox="0 0 113.955 23" style="enable-background:new 0 0 113.955 23;" xml:space="preserve">
<style type="text/css">
	.st0{fill:#E60012;}
</style>
<g>
	<path id="path25907" class="st0" d="M9.153,12.698c1.399,0.892,2.843,0.962,3.287,1.788c0.444-0.826,1.89-0.896,3.289-1.788
		c1.027-0.656,1.664-1.517,1.664-2.655c0-0.977-0.649-2.123-1.664-2.764c0.582,0.572,1.02,1.45,1.02,2.242
		c0,1.149-0.639,2.24-2.402,2.975c-0.861,0.359-1.59,0.486-1.907,0.858c-0.314-0.373-1.044-0.5-1.907-0.858
		C8.77,11.761,8.131,10.67,8.131,9.521c0-0.791,0.44-1.669,1.022-2.242C8.136,7.92,7.489,9.066,7.489,10.043
		C7.489,11.181,8.124,12.042,9.153,12.698 M10.754,11.803c0.664,0.385,1.387,0.512,1.693,0.835c0.307-0.322,1.029-0.449,1.693-0.835
		c0.807-0.466,1.298-1.209,1.432-2.08c0.308-2.011-1.002-3.423-1.944-5.546C12.833,2.388,12.447,0,12.447,0
		s-0.387,2.388-1.181,4.178c-0.944,2.123-2.253,3.534-1.944,5.546C9.456,10.595,9.947,11.337,10.754,11.803 M12.447,9.784
		c0.508,0,0.921,0.413,0.921,0.921c0,0.509-0.413,0.921-0.921,0.921c-0.509,0-0.921-0.412-0.921-0.921
		C11.526,10.197,11.937,9.784,12.447,9.784 M20.153,20.19c-0.278-0.73-0.408-1.266-0.671-1.907
		c-1.175-2.855-3.319-3.019-4.563-2.788c-1.748,0.327-2.476,1.542-2.476,1.542s-0.73-1.216-2.478-1.542
		c-1.244-0.232-3.388-0.067-4.563,2.788C5.138,18.924,5.01,19.46,4.731,20.19c-0.306,0.803-0.657,1.38-1.161,1.679
		c-0.35,0.209-0.84,0.375-1.583,0.473c1.489,0.731,4.038,1.022,5.981-0.025c1.776-0.956,2.441-2.482,2.867-3.741
		c0.187-0.551,0.436-0.85,0.568-0.967c0.14-0.13,0.299-0.232,0.482-0.292c0.172-0.066,0.363-0.101,0.558-0.101
		c0.194,0,0.385,0.035,0.557,0.101c0.183,0.06,0.343,0.162,0.483,0.292c0.131,0.117,0.38,0.416,0.567,0.967
		c0.427,1.259,1.092,2.785,2.868,3.741c1.943,1.047,4.49,0.757,5.978,0.025c-0.74-0.098-1.231-0.264-1.582-0.473
		C20.811,21.57,20.459,20.992,20.153,20.19 M9.969,16.443c-0.366-0.007-0.829,0.006-1.14,0.244c-0.223,0.17-0.251,0.399-0.181,0.572
		c0.087,0.212,0.335,0.297,0.547,0.215c0.187-0.073,0.283-0.265,0.218-0.442c-0.038-0.099-0.117-0.172-0.215-0.191
		c0.458,0.038,0.702,0.511,0.529,0.946c-0.102,0.253-0.338,0.458-0.659,0.532c-0.669,0.154-1.26-0.248-1.401-0.743
		c-0.126-0.433-0.021-0.932,0.514-1.298c1.087-0.744,3.198-0.208,4.038,0.952C11.69,16.799,10.867,16.461,9.969,16.443
		 M17.219,17.577c-0.142,0.494-0.734,0.896-1.401,0.743c-0.321-0.074-0.558-0.279-0.66-0.532c-0.173-0.436,0.071-0.909,0.53-0.946
		c-0.098,0.02-0.179,0.092-0.215,0.191c-0.067,0.177,0.029,0.37,0.218,0.442c0.211,0.082,0.459-0.003,0.546-0.215
		c0.071-0.173,0.042-0.402-0.181-0.572c-0.311-0.239-0.773-0.251-1.14-0.244c-0.898,0.018-1.721,0.356-2.247,0.787
		c0.839-1.16,2.949-1.696,4.037-0.952C17.239,16.644,17.343,17.144,17.219,17.577 M21.578,7.369
		c-2.151,0.191-2.994,1.477-3.413,3.293c-0.59,2.563-2.412,3.114-3.883,3.685c-1.509,0.585-1.843,1.385-1.843,1.385
		s-0.332-0.8-1.841-1.385c-1.471-0.571-3.293-1.122-3.883-3.685C6.297,8.846,5.454,7.56,3.301,7.369C1.714,7.228,0.461,7.906,0,8.18
		c0,0,0.537,0.015,1.022,0.36c0.356,0.254,0.724,0.643,0.969,1.628c0.468,1.884,0.895,2.567,1.401,3.15
		c0.755,0.867,2.257,1.756,5.275,1.602c2.338-0.119,3.385,0.836,3.773,1.312c0.388-0.476,1.435-1.431,3.773-1.312
		c3.018,0.154,4.521-0.736,5.275-1.602c0.508-0.583,0.935-1.266,1.403-3.15c0.243-0.984,0.613-1.374,0.969-1.628
		c0.483-0.345,1.02-0.36,1.02-0.36C24.419,7.906,23.166,7.228,21.578,7.369"/>
	<path id="path25911" d="M38.776,2.09c1.459-0.133,2.831,0.571,3.25,1.791c1.189,3.455-3.495,5.077-5.382,2.892
		C34.902,4.765,36.52,2.303,38.776,2.09 M38.291,6.821c2.906,1.322,3.548-4.316,0.535-3.994c-0.034,0.008-0.05,0.053-0.05,0.053
		C37.12,3.142,36.728,6.116,38.291,6.821"/>
	<path id="path25915" d="M53.961,2.461c-0.027,0.308-0.275,0.391-0.324,0.681c-1.635-0.744-3.607-0.082-3.674,1.63
		c-0.066,1.468,1.16,2.515,2.933,2.105c0.119-0.476,0.017-1.171,0.049-1.732h1.223v2.257c-2.658,1.251-6.696-0.602-5.327-3.628
		C49.541,2.238,52.081,1.543,53.961,2.461"/>
	<path id="path25919" d="M62.483,2.09c2.035-0.186,3.705,1.09,3.36,3.37c-0.346,2.214-3.832,3.297-5.54,1.262
		c-1.259-1.494-0.469-3.698,0.956-4.365C61.582,2.204,61.791,2.153,62.483,2.09 M61.897,6.774c2.913,1.582,3.776-4.396,0.586-3.893
		C60.913,3.132,60.418,5.971,61.897,6.774"/>
	<path id="path25923" d="M77.672,2.461c-0.024,0.308-0.275,0.391-0.315,0.681c-1.549-0.789-3.646-0.011-3.684,1.681
		c-0.024,1.334,1.068,2.48,2.931,2.055c0.12-0.476,0.024-1.171,0.057-1.732h1.221v2.31c-2.243,0.638-4.585,0.218-5.322-1.422
		C71.299,3.26,74.984,1.091,77.672,2.461"/>
	<path id="path25927" d="M113.746,2.461c-0.126,0.261-0.268,0.507-0.53,0.631c-0.321-0.322-1.642-0.537-1.704,0.208
		c-0.056,0.53,0.691,0.877,1.061,1.16c0.41,0.304,0.981,0.688,1.174,1.052c1.096,1.997-2.411,2.901-3.834,1.734
		c0.114-0.261,0.339-0.398,0.424-0.684c0.579,0.468,2.268,0.773,2.291-0.265c0.035-1.156-2.415-1.46-2.446-2.838
		C110.141,1.958,112.532,1.716,113.746,2.461"/>
	<path id="path25931" d="M31.47,2.145v2.104h2.559c0.124-0.596,0.017-1.421,0.053-2.104h1.22v5.521h-1.22v-2.63
		c-0.748-0.117-1.721-0.018-2.559-0.056c-0.124,0.791-0.014,1.808-0.053,2.686h-1.228V2.145H31.47z"/>
	<path id="path25935" d="M46.977,5.936V2.145h1.015v5.472c-0.84,0.315-1.235-0.369-1.653-0.843
		c-0.838-0.952-1.722-2.094-2.507-2.892v3.735c-0.239,0.107-0.683,0.022-1.009,0.049V2.145c0.871-0.197,1.234,0.406,1.65,0.891
		C45.307,4.01,46.154,5.113,46.977,5.936"/>
	<path id="path25939" d="M55.026,2.145h1.277V4.46c0.695-0.613,1.502-1.568,2.238-2.314h1.277c-0.738,0.847-1.534,1.64-2.346,2.42
		c0.854,1.073,1.822,2.024,2.725,3.051c-0.525,0.011-1.034,0.166-1.439,0.049c-0.477-0.137-0.893-0.976-1.228-1.368
		c-0.466-0.546-0.893-0.977-1.226-1.365v2.733h-1.277V2.145z"/>
	<path id="path25943" d="M70.688,5.936V2.145h1.018v5.472c-0.842,0.315-1.231-0.369-1.65-0.843
		c-0.836-0.949-1.732-2.091-2.508-2.892v3.735c-0.244,0.107-0.683,0.022-1.018,0.049V2.145c0.881-0.197,1.228,0.409,1.658,0.891
		C69.031,4.002,69.864,5.116,70.688,5.936"/>
	<path id="path25947" d="M84.066,2.145c0.719,1.869,1.503,3.668,2.291,5.472c-0.332,0.123-0.905,0.017-1.333,0.049
		c-0.205-0.497-0.402-1.004-0.578-1.528h-2.187c-0.274,0.473-0.451,1.032-0.698,1.528h-1.009c0.843-1.848,1.654-3.734,2.553-5.521
		H84.066z M82.524,5.459h1.647c-0.251-0.698-0.508-1.39-0.794-2.053C83.083,4.084,82.765,4.738,82.524,5.459"/>
	<path id="path25949" d="M87.852,7.666h-1.227V2.145h1.227V7.666z"/>
	<path id="path25961" d="M91.956,5.145c0.445,0.853,1.199,1.692,1.537,2.471h-1.379c-0.571-0.648-0.91-1.524-1.438-2.215H90.14
		c-0.119,0.632-0.013,1.495-0.05,2.215h-1.231v-5.47c1.963-0.022,4.158-0.235,4.218,1.421C93.098,4.308,92.674,4.851,91.956,5.145
		 M90.09,2.88v1.84C92.205,5.271,92.362,2.259,90.09,2.88"/>
	<path id="path25965" d="M94.991,2.145v4.732c0.71,0.123,1.65,0.018,2.45,0.053v0.736h-3.674V2.145L94.991,2.145z"/>
	<path id="path25967" d="M98.986,7.666H97.76V2.145h1.226V7.666z"/>
	<path id="path25979" d="M104.154,5.936V2.145h0.963v5.521c-0.857,0.197-1.188-0.417-1.6-0.892
		c-0.838-0.969-1.714-2.037-2.503-2.892c-0.131,1.154-0.017,2.539-0.056,3.784h-0.963V2.145c0.946-0.239,1.185,0.459,1.601,0.946
		C102.428,4.055,103.38,5.071,104.154,5.936"/>
	<path id="path25983" d="M109.486,2.145V2.88h-2.131v1.474c0.586,0.126,1.394,0.018,2.083,0.047v0.744h-2.083v1.732
		c0.641,0.123,1.505,0.018,2.24,0.053v0.736h-3.467V2.145L109.486,2.145z"/>
	<path id="path25987" d="M55.666,13.317c-0.925,0.223-2.03,0.278-3.042,0.419c-0.12,0.095-0.018,0.403-0.052,0.579
		c1.173,0.124,2.58,0.021,3.836,0.056v0.839h-2.612c0.49,0.603,1.583,1.062,2.719,1.205c-0.103,0.362-0.328,0.595-0.426,0.953
		c-0.279-0.077-0.544-0.159-0.801-0.26v3.779h-1.065c-0.01-0.148,0.032-0.343-0.056-0.419h-4.045
		c-0.169,0.013-0.092,0.264-0.109,0.419h-1.062c0.121-1.139,0.021-2.503,0.049-3.731c-0.314,0.022-0.482,0.19-0.797,0.212
		c-0.152-0.293-0.303-0.579-0.48-0.842c1.016-0.334,2.025-0.67,2.718-1.316H47.83v-0.839h3.625c0.127-0.112,0.015-0.438,0.052-0.635
		c-0.9,0.082-1.905,0.047-2.881,0.053c-0.039-0.322-0.177-0.557-0.208-0.896c2.056,0.18,5.031-0.127,6.665-0.47
		C55.451,12.347,55.552,13.141,55.666,13.317 M52.573,16.731c0.585-0.034,1.316,0.071,1.812-0.049
		c-0.733-0.297-1.284-0.764-1.76-1.318C52.505,15.726,52.602,16.289,52.573,16.731 M49.91,16.731h1.597
		c-0.036-0.417,0.075-0.98-0.052-1.309C51.064,15.979,50.442,16.315,49.91,16.731 M50.014,17.63v0.525h4.21v-0.583
		C52.775,17.548,51.479,17.669,50.014,17.63 M50.07,18.999c-0.126,0.106-0.02,0.433-0.056,0.63h4.21v-0.63H50.07z"/>
	<path id="path25991" d="M64.352,12.528h1.011v0.889c0.375,0.119,0.976,0.024,1.441,0.057v-0.946h1.012v0.889
		c0.392,0.119,1.006,0.024,1.492,0.057v0.79h-1.441c-0.113,0.17-0.025,0.533-0.052,0.789h1.653v0.846h-1.601
		c0.341,0.677,1.043,0.999,1.759,1.313c-0.117,0.35-0.36,0.582-0.48,0.942c-0.489-0.25-0.893-0.592-1.33-0.899v1.743h-2.88
		c-0.12,0.163-0.057,0.616,0.057,0.729c0.977-0.031,2.091,0.066,2.979-0.049c0.267-0.229,0.239-0.745,0.268-1.205
		c0.388,0.106,0.786,0.2,1.115,0.364c-0.17,0.79-0.096,1.658-1.115,1.788c-0.893,0.107-3.469,0.184-3.992-0.11
		c-0.916-0.491-0.186-1.784-0.433-2.782c-0.258,0.113-0.44,0.289-0.688,0.42c-0.297-0.2-0.449-0.54-0.642-0.846
		c0.761-0.3,1.413-0.712,1.816-1.364c-0.522,0.075-0.923-0.11-1.281,0c-0.392,0.12-0.438,0.617-0.745,0.786
		c-0.509-0.274-0.842-0.712-1.387-0.944c0.172-0.283,0.413-0.501,0.583-0.791c0.578,0.229,0.988,0.61,1.492,0.903v-0.846H64.3
		c0.124-0.147,0.014-0.509,0.052-0.738h-1.174c-0.045-0.063-0.074-0.141-0.052-0.268c-0.169-0.064-0.268,0.371-0.484,0.427
		c-0.509-0.296-0.836-0.783-1.438-0.999c0.204-0.307,0.405-0.621,0.743-0.791c0.6,0.452,1.124,0.97,2.353,0.791
		C64.424,13.262,64.314,12.822,64.352,12.528 M65.362,15.053h1.441v-0.738h-1.441V15.053z M65.096,16.626h1.974
		c-0.073-0.311-0.303-0.463-0.431-0.727C65.738,15.757,65.236,16.013,65.096,16.626 M64.883,18.155h1.859v-0.733h-1.859
		C64.883,17.422,64.883,18.155,64.883,18.155z"/>
	<path id="path25995" d="M91.045,12.634c0.336-0.124,0.91-0.021,1.332-0.057c0.095,0.246,0.274,0.402,0.322,0.685h3.41v2.003h-1.173
		v-1.058c-1.861-0.121-3.96-0.013-5.916-0.05v1.108h-1.114v-2.003h3.404C91.393,13.096,91.147,12.8,91.045,12.634"/>
	<path id="path25999" d="M77.193,12.634c0.013,0.314-0.078,0.521-0.161,0.736c0.295,0.077,0.935,0.088,1.227,0
		c-0.052,1.626,0.239,4.813,0.056,6.517c-0.107,0.877-0.692,0.925-1.762,0.844c-0.007-0.352-0.173-0.528-0.163-0.896
		c0.272,0.04,0.535,0.075,0.858,0.052c0.239-0.762,0.039-1.954,0.107-2.891h-1.393c-0.161,1.367-0.193,2.85-0.741,3.84
		c-0.299-0.177-0.609-0.348-0.856-0.586c0.375-0.882,0.618-1.908,0.582-3.198c-0.087-0.124-0.405-0.018-0.582-0.056v-0.79h0.582
		v-2.789c0.334-0.02,0.779,0.061,1.015-0.047c0.123-0.198,0.154-0.486,0.221-0.736H77.193z M75.912,16.206h1.445v-1.999h-1.445
		V16.206z"/>
	<path id="path26003" d="M79.591,12.634h1.115c0.12,0.345,0.308,0.609,0.375,0.998h1.709v0.896h-4.373v-0.896h1.492
		C79.851,13.256,79.694,12.97,79.591,12.634"/>
	<path id="path26007" d="M76.017,14.578c0.141,0.449,0.295,0.871,0.373,1.368c0.348,0.003,0.586-0.095,0.858-0.159
		c-0.113-0.468-0.282-0.884-0.433-1.313C76.495,14.454,76.339,14.597,76.017,14.578"/>
	<path id="path26011" d="M91.736,14.788c-0.648,1.251-1.879,1.926-3.512,2.208c-0.152-0.292-0.3-0.582-0.482-0.842
		c1.258-0.302,2.457-0.662,2.933-1.736C91.108,14.469,91.406,14.641,91.736,14.788"/>
	<path id="path26015" d="M76.815,14.473c0.152,0.43,0.321,0.846,0.434,1.313c-0.272,0.064-0.512,0.162-0.86,0.159
		c-0.078-0.497-0.232-0.918-0.373-1.368C76.338,14.597,76.496,14.454,76.815,14.473"/>
	<path id="path26019" d="M93.607,14.473c0.02,0.382-0.056,0.853,0.047,1.153c0.657,0.23,1.728,0.052,2.564,0.109
		c0.103,0.204,0.027,0.607,0.053,0.891c-2.055-0.035-4.377,0.544-3.787-2.098C92.763,14.412,93.245,14.498,93.607,14.473"/>
	<path id="path26023" d="M81.827,15.155c0.006,1.142-0.007,2.497,0,3.733c0.004,0.346-0.12,0.833,0.219,0.999
		c0.353-0.409,0.195-1.519,0.159-2.152c0.349,0.036,0.556,0.218,0.899,0.258c-0.131,0.812,0.204,1.64-0.047,2.257
		c-0.255,0.624-1.588,0.836-2.081,0.268c-0.72-0.831,0.103-3.257-0.209-4.416c-0.11-0.119-0.442-0.018-0.642-0.053
		c0.053,1.933-0.109,3.645-0.906,4.738c-0.314-0.183-0.579-0.409-0.853-0.632c0.783-1.122,0.793-3.005,0.748-4.944
		C79.909,15.09,80.938,15.192,81.827,15.155"/>
	<path id="path26027" d="M95.415,17.309v0.9h-2.768c-0.13,0.382-0.02,0.995-0.054,1.47c1.156,0.114,2.539,0.014,3.787,0.049v0.899
		h-8.744v-0.899h3.677c0.121-0.388,0.021-0.995,0.057-1.467h-2.718c-0.034-0.281,0.068-0.702-0.057-0.893
		C90.768,17.242,93.162,17.349,95.415,17.309"/>
	<path id="path26031" d="M77.249,18.939c-0.325,0.011-0.511,0.173-0.86,0.161c-0.081-0.522-0.251-0.969-0.371-1.468
		c0.172-0.117,0.47-0.098,0.643-0.209C77.055,17.733,77.102,18.378,77.249,18.939"/>
	<path id="path26035" d="M62.056,17.572c0.342,0.161,0.57,0.42,0.906,0.582c-0.313,1.002-0.634,1.995-1.332,2.633
		c-0.176-0.334-0.543-0.479-0.688-0.843C61.467,19.3,61.803,18.476,62.056,17.572"/>
</g>
</svg>
