<?xml version="1.0" encoding="UTF-8"?>
<svg width="96px" height="23px" viewBox="0 0 96 23" version="1.1" xmlns="http://www.w3.org/2000/svg" xmlns:xlink="http://www.w3.org/1999/xlink">
    <!-- Generator: Sketch 49.1 (51147) - http://www.bohemiancoding.com/sketch -->
    <title>Uzbekistan_s</title>
    <desc>Created with Sketch.</desc>
    <defs>
        <polygon id="path-1" points="0 20.9015786 0 0.0870714286 20.7908513 0.0870714286 20.7908513 20.9015786"></polygon>
    </defs>
    <g id="AVIA" stroke="none" stroke-width="1" fill="none" fill-rule="evenodd">
        <g id="Uzbekistan_s">
            <path d="M20.3159385,10.8286054 C20.3159385,16.3136946 15.8745026,20.7609089 10.3951179,20.7609089 C4.91614359,20.7609089 0.474707692,16.3136946 0.474707692,10.8286054 C0.474707692,5.34392679 4.91614359,0.8967125 10.3951179,0.8967125 C15.8745026,0.8967125 20.3159385,5.34392679 20.3159385,10.8286054" id="Fill-1" fill="#FFCE57"></path>
            <g id="Group-5" transform="translate(0.000000, 0.323684)">
                <mask id="mask-2" fill="white">
                    <use xlink:href="#path-1"></use>
                </mask>
                <g id="Clip-4"></g>
                <path d="M0.474953846,10.4944893 C0.474953846,7.84168571 1.50674872,5.34741786 3.38038974,3.471275 C5.25444103,1.59554286 7.74592821,0.562185714 10.3953641,0.562185714 C13.0452103,0.562185714 15.5362872,1.59554286 17.4103385,3.471275 C19.2839795,5.34741786 20.3157744,7.84168571 20.3157744,10.4944893 C20.3157744,15.9709536 15.8657231,20.4263821 10.3953641,20.4263821 C7.74592821,20.4263821 5.25444103,19.393025 3.38038974,17.5172929 C1.50674872,15.64115 0.474953846,13.1472929 0.474953846,10.4944893 M10.3953641,20.9015786 C13.1719795,20.9015786 15.7828513,19.8189357 17.7463385,17.8532571 C19.7098256,15.8875786 20.7908513,13.2742036 20.7908513,10.4944893 C20.7908513,7.71436429 19.7098256,5.10098929 17.7463385,3.13531071 C15.7828513,1.16963214 13.1719795,0.0869892857 10.3953641,0.0869892857 C4.66326154,0.0869892857 -0.000123076923,4.75598929 -0.000123076923,10.4944893 C-0.000123076923,13.2742036 1.08131282,15.8875786 3.0448,17.8532571 C5.00828718,19.8189357 7.61874872,20.9015786 10.3953641,20.9015786" id="Fill-3" fill="#F36640" mask="url(#mask-2)"></path>
            </g>
            <path d="M15.5529026,6.0809125 L10.5243897,6.0809125 C10.1325949,6.0809125 9.65300513,6.3597875 9.45854359,6.70026964 L7.25218462,10.5708411 L7.82449231,11.4863232 L8.44931282,10.3905375 C8.44931282,10.3905375 8.83372308,9.48860893 9.97874872,9.48860893 L13.6694154,9.48860893 C14.0612103,9.48860893 14.5408,9.20932321 14.7348513,8.86884107 L16.5957744,5.60571607 C16.5957744,5.60571607 15.9446974,6.0809125 15.5529026,6.0809125" id="Fill-6" fill="#3E8C3F"></path>
            <path d="M9.38822564,14.4364018 L14.8663795,14.4364018 C15.2581744,14.4364018 15.7377641,14.1530089 15.9314051,13.8117054 L18.3925333,9.48852679 C18.3925333,9.48852679 17.7410462,9.96372321 17.3496615,9.96372321 L10.8667897,9.96372321 C10.4749949,9.96372321 9.99540513,10.2425982 9.80053333,10.5826696 C9.80053333,10.5826696 7.9232,13.8449732 7.64750769,14.3283839 C7.37181538,14.8130268 6.8126359,14.9452768 6.59437949,14.9436339 C5.71807179,14.9382946 4.87335385,14.4031339 4.87335385,13.3632054 C4.87335385,11.7885268 7.28730256,12.2620804 7.28730256,12.2620804 L6.02084103,10.2409554 C6.02084103,10.2409554 3.29017436,10.3173482 3.29017436,13.2921518 C3.29017436,16.3035089 6.35889231,16.6201696 6.35889231,16.6201696 L16.9316103,16.6201696 L17.9030974,14.9165268 L9.11499487,14.9165268 C8.82043077,14.9165268 8.75068718,14.4364018 9.38822564,14.4364018" id="Fill-8" fill="#3E8C3F"></path>
            <path d="M30.6554667,9.25713036 C30.1713641,11.5669875 29.2823385,12.8176125 26.7838769,12.8176125 C25.2195692,12.8176125 23.6216205,12.1863446 23.6216205,10.4288982 C23.6216205,10.0231125 23.7114667,9.62882679 23.7906462,9.23454107 L24.7695179,4.58155893 L26.5364923,4.58155893 L25.5572103,9.23454107 C25.5010051,9.49370179 25.3885949,9.98943393 25.3885949,10.2485946 C25.3885949,10.6539696 25.6811077,11.3304161 26.8962872,11.3304161 C28.3371077,11.3304161 28.6070564,10.5640232 28.8659282,9.3474875 L29.8677744,4.58155893 L31.6343385,4.58155893 L30.6554667,9.25713036 Z" id="Fill-10" fill="#5479BC"></path>
            <polygon id="Fill-12" fill="#5479BC" points="31.3531897 11.1611196 36.7213949 6.06867321 32.6024205 6.06867321 32.9285744 4.58147679 39.2760615 4.58147679 38.9835487 6.00131607 33.5702154 11.1385304 38.1056 11.1385304 37.8130872 12.6257268 31.0491897 12.6257268"></polygon>
            <path d="M41.4928,7.83770179 L43.4960821,7.83770179 C44.1381333,7.83770179 44.6895179,7.47709464 44.6895179,6.77846964 C44.6895179,6.16979107 44.3293128,5.95621964 43.7553641,5.95621964 L41.8870564,5.95621964 L41.4928,7.83770179 Z M40.7728,11.2515589 L42.9894154,11.2515589 C43.7890051,11.2515589 44.374441,10.8116839 44.374441,9.95575536 C44.374441,9.11091607 43.6199795,9.04314821 42.9783385,9.04314821 L41.2454154,9.04314821 L40.7728,11.2515589 Z M40.4688,4.58155893 L43.8452103,4.58155893 C45.4546462,4.58155893 46.4560821,4.93066607 46.4560821,6.46304107 C46.4560821,7.37564821 45.8936205,8.22089821 44.9479795,8.33343393 L44.9479795,8.35602321 C45.7135179,8.55850536 46.1414154,9.2123625 46.1414154,9.98943393 C46.1414154,11.7357911 44.6780308,12.6258089 43.0685949,12.6258089 L38.7805949,12.6258089 L40.4688,4.58155893 Z" id="Fill-14" fill="#5479BC"></path>
            <polygon id="Fill-16" fill="#5479BC" points="48.5943795 4.58164107 54.7277128 4.58164107 54.4241231 6.06842679 50.0573538 6.06842679 49.6971487 7.79219464 53.7373538 7.79219464 53.444841 9.16685536 49.4050462 9.16685536 48.9882256 11.1386946 53.4226872 11.1386946 53.1072 12.6258911 46.9065846 12.6258911"></polygon>
            <polygon id="Fill-18" fill="#5479BC" points="56.089559 4.58164107 57.8565333 4.58164107 57.1586872 7.94990893 57.1812513 7.94990893 60.8276103 4.58164107 63.1685333 4.58164107 59.3084308 7.89364107 61.7732513 12.6258911 59.7810462 12.6258911 57.9463795 9.00914107 56.7197128 10.0798732 56.1908923 12.6258911 54.412841 12.6258911"></polygon>
            <polygon id="Fill-20" fill="#5479BC" points="64.2373744 4.58164107 66.0158359 4.58164107 64.3161436 12.6258911 62.5380923 12.6258911"></polygon>
            <path d="M67.6472615,9.9558375 C67.5906462,11.0939268 68.3676718,11.4426232 69.3805949,11.4426232 C70.0891077,11.4426232 70.9108513,11.1050161 70.9108513,10.3049446 C70.9108513,9.51637321 69.8757744,9.35865893 68.8739282,9.05431964 C67.8610051,8.73889107 66.8480821,8.2768375 66.8480821,6.8910875 C66.8480821,5.0999625 68.4800821,4.3898375 70.0329026,4.3898375 C71.6759795,4.3898375 73.0491077,5.12214107 73.0491077,6.98144464 L71.3723897,6.98144464 C71.4060308,6.07992679 70.7533128,5.76449821 69.9315692,5.76449821 C69.2566974,5.76449821 68.5252103,6.02365893 68.5252103,6.76705179 C68.5252103,7.56712321 69.8868513,7.77001607 70.4382359,7.90514107 C71.6985436,8.23206964 72.5879795,8.71630179 72.5879795,10.1583196 C72.5879795,12.0853911 70.8435692,12.8176946 69.3129026,12.8176946 C67.0954667,12.8176946 65.9701333,11.8935875 65.9701333,9.9558375 L67.6472615,9.9558375 Z" id="Fill-22" fill="#5479BC"></path>
            <polygon id="Fill-24" fill="#5479BC" points="76.3355487 6.06850893 73.8145231 6.06850893 74.1296 4.58172321 80.8372923 4.58172321 80.5222154 6.06850893 78.1136 6.06850893 76.7404718 12.6259732 74.9624205 12.6259732"></polygon>
            <path d="M82.1764923,9.51625 L84.3258256,9.51625 L83.9319795,6.316375 L83.9098256,6.316375 L82.1764923,9.51625 Z M83.3469538,4.58151786 L85.1590564,4.58151786 L86.4977231,12.6257679 L84.7422359,12.6257679 L84.4833641,10.8346429 L81.4786462,10.8346429 L80.4657231,12.6257679 L78.5974154,12.6257679 L83.3469538,4.58151786 Z" id="Fill-26" fill="#5479BC"></path>
            <polygon id="Fill-28" fill="#5479BC" points="88.8275282 4.58164107 90.6507077 4.58164107 92.8340923 10.3049446 92.8566564 10.3049446 94.0045538 4.58164107 95.6250667 4.58164107 93.9257846 12.6258911 92.1588103 12.6258911 89.9528615 6.98144464 89.9302974 6.98144464 88.7828103 12.6258911 87.1282462 12.6258911"></polygon>
            <path d="M69.0671179,19.3529393 C68.7692718,19.5270821 68.4139897,19.5348857 68.0751179,19.5599393 C67.6283487,19.6096357 67.2066051,19.7172429 67.2066051,20.2552786 C67.2066051,20.5781 67.5126564,20.7354036 67.8515282,20.7354036 C68.5797333,20.7354036 68.8193231,20.2306357 68.9514256,19.7669393 L69.0671179,19.3529393 Z M66.5862974,18.4259571 C66.7352205,17.349475 67.644759,17.010225 68.6125538,17.010225 C69.3731692,17.010225 70.4070154,17.1757429 70.3906051,18.1359929 C70.3906051,18.3179393 70.3491692,18.591475 70.2995282,18.8563857 L69.9188103,20.5781 C69.8777846,20.7271893 69.8613744,20.9921 69.8613744,21.1580286 C69.8613744,21.2323679 69.8777846,21.33135 69.9024,21.4061 L68.7282462,21.4061 L68.7282462,20.9838857 C68.4057846,21.3481893 67.9011692,21.5219214 67.4215795,21.5219214 C66.4874256,21.5219214 66.0328615,20.9921 66.0328615,20.3961536 C66.0328615,19.5767786 66.652759,19.0633857 67.6697846,18.9389393 C68.7778872,18.8066893 69.2985026,18.8646 69.2985026,18.3179393 C69.2985026,17.8961357 68.8525538,17.7967429 68.5547077,17.7967429 C68.1329641,17.7967429 67.7604513,17.9951179 67.6866051,18.4259571 L66.5862974,18.4259571 Z" id="Fill-30" fill="#5479BC"></path>
            <path d="M72.9621333,16.4638929 L71.7793641,16.4638929 L71.9947487,15.4954286 L73.1766974,15.4954286 L72.9621333,16.4638929 Z M71.6472615,17.1259643 L72.8296205,17.1259643 L71.9200821,21.4060179 L70.7373128,21.4060179 L71.6472615,17.1259643 Z" id="Fill-32" fill="#5479BC"></path>
            <path d="M73.7722667,17.1260875 L74.8889846,17.1260875 L74.7150359,17.8961768 L74.7318564,17.9126054 C74.9960615,17.3244625 75.5753436,17.0102661 76.2038564,17.0102661 C76.3277538,17.0102661 76.4434462,17.0184804 76.5673436,17.0349089 L76.3277538,18.1775161 C76.1620103,18.1442482 75.9970872,18.1031768 75.8317538,18.1031768 C74.9300103,18.1031768 74.6075487,18.7816768 74.4504205,19.5102839 L74.0537026,21.4061411 L72.8791385,21.4061411 L73.7722667,17.1260875 Z" id="Fill-34" fill="#5479BC"></path>
            <polygon id="Fill-36" fill="#5479BC" points="80.8587897 21.4061 79.6349949 21.4061 79.4860718 18.4013143 79.4692513 18.4013143 78.1465846 21.4061 76.9145846 21.4061 76.4427897 17.1260464 77.6419692 17.1260464 77.8077128 20.1394571 77.8241231 20.1394571 79.1389949 17.1260464 80.329559 17.1260464 80.4616615 20.1144036 80.4784821 20.1144036 81.8512 17.1260464 83.0914051 17.1260464"></polygon>
            <path d="M85.9112615,19.3529393 C85.6134154,19.5270821 85.2581333,19.5348857 84.9192615,19.5599393 C84.4724923,19.6096357 84.0507487,19.7172429 84.0507487,20.2552786 C84.0507487,20.5781 84.3568,20.7354036 84.6956718,20.7354036 C85.4238769,20.7354036 85.6634667,20.2306357 85.7955692,19.7669393 L85.9112615,19.3529393 Z M83.430441,18.4259571 C83.5793641,17.349475 84.4889026,17.010225 85.4566974,17.010225 C86.2173128,17.010225 87.251159,17.1757429 87.2347487,18.1359929 C87.2347487,18.3179393 87.1933128,18.591475 87.1436718,18.8563857 L86.7629538,20.5781 C86.7219282,20.7271893 86.7055179,20.9921 86.7055179,21.1580286 C86.7055179,21.2323679 86.7219282,21.33135 86.7465436,21.4061 L85.5723897,21.4061 L85.5723897,20.9838857 C85.2499282,21.3481893 84.7453128,21.5219214 84.2657231,21.5219214 C83.3315692,21.5219214 82.8770051,20.9921 82.8770051,20.3961536 C82.8770051,19.5767786 83.4969026,19.0633857 84.5139282,18.9389393 C85.6220308,18.8066893 86.1426462,18.8646 86.1426462,18.3179393 C86.1426462,17.8961357 85.6966974,17.7967429 85.3988513,17.7967429 C84.9771077,17.7967429 84.6045949,17.9951179 84.5307487,18.4259571 L83.430441,18.4259571 Z" id="Fill-38" fill="#5479BC"></path>
            <path d="M89.4505436,22.0105482 C89.0456205,22.7473696 88.6731077,22.9128875 87.7881846,22.9128875 C87.5814154,22.9128875 87.3668513,22.8796196 87.1600821,22.8714054 L87.3582359,21.8947268 C87.5153641,21.8947268 87.6811077,21.9444232 87.8378256,21.9444232 C88.3920821,21.9444232 88.4581333,21.5883339 88.6152615,21.3649054 L87.8542359,17.1259232 L89.0620308,17.1259232 L89.4341333,20.1890304 L89.4505436,20.1890304 L90.9307487,17.1259232 L92.1713641,17.1259232 L89.4505436,22.0105482 Z" id="Fill-40" fill="#5479BC"></path>
            <path d="M94.883241,18.3763018 C94.8750359,18.0119982 94.6686769,17.7967839 94.2219077,17.7967839 C93.8083692,17.7967839 93.5023179,17.9126054 93.5023179,18.2189982 C93.5023179,18.4091589 93.6430359,18.5249804 94.0397538,18.6494268 L94.6268308,18.8399982 C95.2553436,19.0469982 95.7517538,19.3447661 95.7517538,20.0647482 C95.7517538,21.1243911 94.7014974,21.5219625 93.7172923,21.5219625 C92.8820103,21.5219625 91.8982154,21.1909268 91.8982154,20.1891946 L91.8982154,20.0150518 L92.9899077,20.0150518 L92.9899077,20.1559268 C92.9899077,20.5448732 93.4280615,20.7354446 93.8329846,20.7354446 C94.1890872,20.7354446 94.5776,20.6114089 94.5776,20.2220518 C94.5776,19.9242839 94.4122667,19.8331054 94.1558564,19.7505518 L93.2541128,19.4609982 C92.6674462,19.2704268 92.3281641,19.0383732 92.3281641,18.3676768 C92.3281641,17.3581411 93.3948308,17.0102661 94.2219077,17.0102661 C95.1560615,17.0102661 95.9913436,17.2751768 95.9749333,18.3763018 L94.883241,18.3763018 Z" id="Fill-42" fill="#5479BC"></path>
        </g>
    </g>
</svg>