<?xml version="1.0" encoding="utf-8"?>
<!-- Generator: Adobe Illustrator 22.1.0, SVG Export Plug-In . SVG Version: 6.00 Build 0)  -->
<svg version="1.1" id="Слой_1" xmlns="http://www.w3.org/2000/svg" xmlns:xlink="http://www.w3.org/1999/xlink" x="0px" y="0px"
	 width="38.369px" height="23px" viewBox="0 0 38.369 23" style="enable-background:new 0 0 38.369 23;" xml:space="preserve">
<style type="text/css">
	.st0{fill:#142C4C;}
</style>
<path class="st0" d="M36.88,9.973c0,1.926-1.567,3.495-3.495,3.495s-3.497-1.569-3.497-3.495c0-1.086,0.497-2.057,1.274-2.697
	l0.001-0.001l0,0l0.001,0.001c0.001-0.001,0.002-0.002,0.003-0.003c0.001,0,0.001-0.001,0.002-0.001
	c0.007-0.007,0.019-0.019,0.026-0.023c0.319-0.267,0.584-0.603,0.769-0.98c0.101-0.204,0.176-0.422,0.228-0.65
	c0.035-0.162,0.054-0.328,0.061-0.5c0.002-0.042,0.009-0.087,0.009-0.131c0-1.632-1.327-2.96-2.96-2.96
	c-1.63,0-2.958,1.328-2.958,2.96c0,1.313,0.861,2.423,2.048,2.807c0.063-0.148,0.131-0.291,0.206-0.432
	c-1.025-0.305-1.775-1.255-1.775-2.376c0-1.367,1.112-2.479,2.479-2.479s2.479,1.112,2.479,2.479c0,0.094-0.007,0.185-0.016,0.274
	c-0.021,0.192-0.066,0.375-0.127,0.551c-0.15,0.42-0.41,0.788-0.746,1.07c-0.009,0.009-0.019,0.016-0.028,0.023
	c-0.005,0.005-0.009,0.007-0.014,0.012c-0.001,0.001-0.003,0.003-0.005,0.005c-0.002,0.002-0.004,0.003-0.006,0.005l0,0
	c0.001-0.001,0.002-0.002,0.003-0.002c-0.001,0.001-0.002,0.002-0.002,0.002c-0.872,0.729-1.428,1.822-1.428,3.047
	c0,2.188,1.783,3.971,3.973,3.971c2.188,0,3.971-1.783,3.971-3.971c0-1.771-1.163-3.272-2.765-3.786
	c-0.035,0.157-0.08,0.31-0.127,0.46C35.864,7.104,36.88,8.42,36.88,9.973z"/>
<path class="st0" d="M35.869,9.97c0,1.37-1.114,2.486-2.484,2.486c-1.37,0-2.484-1.116-2.484-2.486c0-0.769,0.352-1.454,0.901-1.909
	c0,0,0.001-0.001,0.002-0.002l0,0l0.001-0.001l0,0c0.01-0.007,0.033-0.033,0.042-0.037c0.31-0.263,0.577-0.572,0.795-0.917
	c0.122-0.19,0.223-0.389,0.31-0.598c0.068-0.159,0.124-0.324,0.169-0.493c0.049-0.181,0.089-0.364,0.113-0.551
	c0.019-0.155,0.031-0.312,0.031-0.471c0-0.002,0-0.002,0-0.005c0-2.188-1.78-3.966-3.966-3.966s-3.966,1.778-3.966,3.966
	c0,1.766,1.161,3.263,2.761,3.774c0.033-0.157,0.073-0.31,0.12-0.462C26.821,7.841,25.81,6.53,25.81,4.986
	c0-1.926,1.564-3.492,3.49-3.492s3.49,1.567,3.49,3.492c0,0.012-0.002,0.023-0.002,0.038c-0.002,0.164-0.019,0.324-0.042,0.481
	c-0.028,0.197-0.073,0.389-0.134,0.572c-0.063,0.192-0.145,0.375-0.239,0.551c-0.211,0.389-0.488,0.739-0.823,1.023
	c-0.002,0.002-0.002,0.005-0.005,0.005l-0.002,0.002c-0.012,0.009-0.026,0.021-0.038,0.03C30.843,8.232,30.42,9.053,30.42,9.97
	c0,1.637,1.33,2.967,2.965,2.967s2.965-1.33,2.965-2.967c0-1.323-0.872-2.446-2.073-2.826c-0.063,0.15-0.136,0.298-0.213,0.441
	C35.104,7.881,35.869,8.838,35.869,9.97z"/>
<path class="st0" d="M28.005,9.309c-1.869-0.554-3.239-2.277-3.239-4.323c0-2.491,2.024-4.517,4.515-4.517s4.517,2.026,4.517,4.517
	c0,0.007-0.002,0.014-0.002,0.021c0,0.157-0.009,0.314-0.026,0.467c-0.019,0.183-0.052,0.364-0.091,0.542
	c-0.038,0.159-0.084,0.314-0.138,0.467c-0.063,0.183-0.141,0.356-0.225,0.528c-0.089,0.176-0.19,0.345-0.3,0.509
	c-0.235,0.342-0.514,0.652-0.83,0.919c-0.012,0.012-0.026,0.023-0.038,0.033v0.002c-0.432,0.357-0.708,0.894-0.708,1.499
	c0,1.072,0.872,1.944,1.947,1.944c1.072,0,1.944-0.872,1.944-1.944c0-0.943-0.671-1.731-1.56-1.909
	c-0.103,0.15-0.216,0.296-0.333,0.434c0.79,0.028,1.424,0.678,1.424,1.475c0,0.814-0.661,1.475-1.475,1.475
	s-1.478-0.661-1.478-1.475c0-0.476,0.227-0.901,0.577-1.17c0.016-0.012,0.031-0.026,0.042-0.04c0.014-0.014,0.028-0.026,0.042-0.038
	c0.077-0.068,0.152-0.138,0.225-0.211c0.052-0.052,0.101-0.103,0.15-0.157c0.075-0.082,0.148-0.164,0.218-0.251
	c0.002-0.002,0.004-0.005,0.006-0.007c0.018-0.022,0.039-0.042,0.056-0.065c-0.001,0-0.002,0-0.004,0
	c-0.011,0.014-0.023,0.028-0.034,0.042c0.012-0.014,0.023-0.027,0.034-0.043c0.131-0.169,0.251-0.349,0.361-0.535c0,0,0,0,0-0.001
	c0.001,0,0.002,0,0.002,0c0.005-0.009,0.01-0.018,0.014-0.027c0.003-0.005,0.006-0.01,0.009-0.015
	c0.073-0.129,0.141-0.26,0.202-0.394c0.005-0.007,0.007-0.014,0.009-0.021c0.075-0.164,0.141-0.331,0.197-0.504
	c0.002-0.005,0.002-0.007,0.005-0.012c0.023-0.075,0.047-0.148,0.066-0.223c0.021-0.07,0.038-0.143,0.054-0.213
	c0.002-0.005,0.005-0.009,0.005-0.014c0.04-0.176,0.07-0.354,0.089-0.537c0.021-0.181,0.033-0.366,0.033-0.551
	C34.267,2.238,32.029,0,29.281,0s-4.984,2.238-4.984,4.986c0,2.296,1.562,4.226,3.68,4.801C27.979,9.626,27.988,9.466,28.005,9.309z
	"/>
<path class="st0" d="M34.717,5.172c-0.005,0.162-0.016,0.319-0.035,0.476C36.542,6.206,37.9,7.93,37.9,9.97
	c0,2.491-2.026,4.517-4.515,4.517c-2.491,0-4.517-2.026-4.517-4.517c0-1.396,0.638-2.646,1.635-3.474
	c0.004-0.002,0.007-0.005,0.011-0.009c0,0,0,0,0.001-0.001c0.3-0.246,0.525-0.584,0.636-0.966c0.049-0.171,0.077-0.349,0.077-0.535
	c0-1.074-0.872-1.947-1.947-1.947c-1.072,0-1.944,0.872-1.944,1.947c0,0.936,0.664,1.715,1.546,1.9
	c0.098-0.148,0.206-0.291,0.317-0.429c-0.776-0.042-1.393-0.685-1.393-1.471c0-0.816,0.661-1.478,1.475-1.478
	c0.816,0,1.478,0.661,1.478,1.478c0,0.446-0.202,0.844-0.514,1.114c-0.005,0.005-0.012,0.009-0.016,0.014c0,0,0,0-0.002,0.002l0,0
	c-0.002,0.002-0.005,0.004-0.007,0.006l0,0c0.002-0.002,0.004-0.004,0.006-0.005c-0.002,0.002-0.004,0.004-0.006,0.006l0,0
	c0,0-0.001,0-0.001,0.001h-0.002c-0.005,0.005-0.007,0.007-0.012,0.009c-0.281,0.235-0.532,0.502-0.758,0.79
	c-0.654,0.842-1.048,1.9-1.048,3.047c0,2.749,2.238,4.986,4.986,4.986s4.984-2.238,4.984-4.986
	C38.369,7.684,36.821,5.758,34.717,5.172z"/>
<path class="st0" d="M3.171,14.498L0,22.897h2.304l0.457-1.158l2.96-0.005l0.439,1.163h2.292l-3.183-8.385L3.171,14.498z
	 M3.332,20.185l0.893-2.415l0.911,2.415C5.136,20.185,3.332,20.185,3.332,20.185z"/>
<path class="st0" d="M12.665,20.435c0,0,0.005,0.894-1.021,0.894s-1.114-0.894-1.114-0.894v-4.002H8.844v4.618
	c0,0,0.088,1.847,1.862,1.847s1.832-0.645,1.832-0.645V23h1.744v-6.567h-1.617V20.435z"/>
<path class="st0" d="M16.98,17.664v-1.246h-1.583v6.494h1.554c0,0,0-2.477,0-3.474s1.803-1.085,1.803-1.085v-1.92
	C17.816,16.433,16.98,17.664,16.98,17.664z"/>
<path class="st0" d="M27.927,17.664v-1.246h-1.583v6.494h1.554c0,0,0-2.477,0-3.474s1.803-1.085,1.803-1.085v-1.92
	C28.763,16.433,27.927,17.664,27.927,17.664z"/>
<path class="st0" d="M22.365,16.418c-1.792,0-3.245,1.453-3.245,3.245s1.453,3.245,3.245,3.245s3.245-1.453,3.245-3.245
	C25.609,17.871,24.157,16.418,22.365,16.418z M22.365,21.265c-0.885,0-1.603-0.718-1.603-1.603s0.718-1.603,1.603-1.603
	s1.603,0.718,1.603,1.603C23.967,20.548,23.25,21.265,22.365,21.265z"/>
<path class="st0" d="M34.713,16.759c-0.438-0.221-0.926-0.341-1.45-0.341c-1.792,0-3.245,1.453-3.245,3.245
	c0,1.792,1.453,3.245,3.245,3.245c0.528,0,1.01-0.118,1.45-0.342v0.342h1.906v-6.489h-1.906V16.759z M33.262,21.265
	c-0.885,0-1.603-0.718-1.603-1.603s0.718-1.603,1.603-1.603c0.885,0,1.603,0.718,1.603,1.603
	C34.865,20.548,34.147,21.265,33.262,21.265z"/>
</svg>
