<?xml version="1.0" encoding="UTF-8" standalone="no"?>
<svg xmlns:dc="http://purl.org/dc/elements/1.1/" xmlns:cc="http://creativecommons.org/ns#" xmlns:rdf="http://www.w3.org/1999/02/22-rdf-syntax-ns#" xmlns:svg="http://www.w3.org/2000/svg" xmlns="http://www.w3.org/2000/svg" xmlns:sodipodi="http://sodipodi.sourceforge.net/DTD/sodipodi-0.dtd" xmlns:inkscape="http://www.inkscape.org/namespaces/inkscape" width="300" height="174" viewBox="0 0 520 300" version="1.0" id="svg2" sodipodi:version="0.32" inkscape:version="0.46" sodipodi:docname="AirAsia_Logo.svg" inkscape:output_extension="org.inkscape.output.svg.inkscape">
  <metadata id="metadata29">
    <rdf:RDF>
      <cc:Work rdf:about="">
        <dc:format>image/svg+xml</dc:format>
        <dc:type rdf:resource="http://purl.org/dc/dcmitype/StillImage"/>
      </cc:Work>
    </rdf:RDF>
  </metadata>
  <defs id="defs27">
    <inkscape:perspective sodipodi:type="inkscape:persp3d" inkscape:vp_x="0 : 187.5 : 1" inkscape:vp_y="0 : 1000 : 0" inkscape:vp_z="650 : 187.5 : 1" inkscape:persp3d-origin="325 : 125 : 1" id="perspective31"/>
  </defs>
  <sodipodi:namedview inkscape:window-height="669" inkscape:window-width="640" inkscape:pageshadow="2" inkscape:pageopacity="0.0" guidetolerance="10.0" gridtolerance="10.0" objecttolerance="10.0" borderopacity="1.0" bordercolor="#666666" pagecolor="#ffffff" id="base" showgrid="false" inkscape:zoom="0.83692308" inkscape:cx="325" inkscape:cy="187.5" inkscape:window-x="161" inkscape:window-y="95" inkscape:current-layer="svg2"/>
  <g id="#df1d25ff">
    <path d="M 0,0 L 520,0 L 520,300 L 0,300 L 0,0 M 135.54,50.67 C 128.13,57.24 122.12,65.2 116.09,73.01 C 97.93,97.43 81.86,123.35 66.6,149.66 C 65.94,150.92 64.37,151.08 63.18,151.54 C 49.85,155.46 36.78,160.32 24.16,166.11 C 17.59,169.06 16.9,178.04 20.42,183.55 C 22.72,186.58 27.27,187.33 30.46,185.26 C 37.68,181.31 45.11,177.77 52.73,174.66 C 46.99,185.8 41.44,197.04 36.49,208.56 C 32.03,218.89 27.45,229.21 24.22,240 C 21.71,248.05 28.59,257.22 36.99,257.03 C 41.26,256.66 43.26,252.21 44.32,248.62 C 48,233.42 54.53,219.15 60.62,204.82 C 66.7,191.31 72.99,177.88 80.03,164.85 C 89.51,162.01 99,159.21 108.52,156.53 C 105.64,168.91 102.72,181.35 101.64,194.04 C 101.26,200.12 101.47,206.8 105.02,212 C 108.21,216.66 115.88,216.72 119.37,212.42 C 121.96,208.79 121.49,204.08 122.05,199.88 C 123.85,183.73 125.6,167.55 129,151.65 C 137.07,149.59 145.21,147.8 153.38,146.18 C 148.36,156.41 143.61,166.79 139.54,177.43 C 137.18,184.37 134.89,191.63 135.52,199.06 C 135.79,202.68 137.45,206.54 140.81,208.29 C 145.45,209.66 150.58,208.45 154.2,205.28 C 160.93,199.78 166.5,192.87 170.95,185.43 C 170.41,189.4 169.13,193.54 170.31,197.54 C 170.74,200.34 173.08,202.9 176.03,202.95 C 180.01,203.03 183.61,200.93 186.82,198.81 C 188.48,197.84 188.37,195.73 188.54,194.08 C 189.53,180.67 195.64,168.21 203.41,157.45 C 207.28,152.06 211.64,146.44 218.11,144.14 C 224.05,141.54 231.16,141.61 236.31,137.32 C 238.65,135.46 240.98,132.4 239.56,129.28 C 236.87,123.51 228.56,119.85 223.05,123.97 C 218.44,127.18 214.68,131.44 211.21,135.81 C 211.93,132.41 214.06,127.93 210.64,125.31 C 206.18,122.09 200.22,124.32 196.02,126.89 C 192.88,128.63 193.71,132.74 192.24,135.55 C 185.76,151.14 176.5,165.58 165.43,178.3 C 162.73,180.94 160.44,185.01 156.2,185.07 C 156.37,182.5 156.79,179.94 157.8,177.56 C 162.93,164.92 169.72,153.03 175.87,140.89 C 178.48,135.68 173.43,129.68 167.92,130.43 C 156.13,131.5 144.41,133.35 132.73,135.25 C 136.61,120.06 139.57,104.53 145.86,90.09 C 148.78,81.73 153.25,73.79 154.55,64.96 C 155.3,60.08 150.83,57.05 148.98,53.08 C 147.69,50.73 146.99,47.48 144.1,46.57 C 140.71,46.16 138,48.72 135.54,50.67 M 339.37,51.41 C 328.66,61.55 320.13,73.68 311.57,85.62 C 296.96,106.43 283.79,128.21 270.86,150.09 C 259.57,153.91 248.1,157.46 237.2,162.4 C 232.64,164.55 226.85,165.89 224.55,170.89 C 223.96,175.53 223.17,181.62 227.37,184.88 C 229.54,186.79 232.9,186.82 235.27,185.25 C 242.39,181.13 249.79,177.51 257.38,174.38 C 246.7,195.61 236.41,217.16 228.88,239.74 C 225.88,248.27 234.06,258.46 242.99,256.77 C 248.88,254.34 248.96,246.91 250.77,241.69 C 259.68,215.02 271.85,189.56 284.68,164.59 C 294.09,161.38 303.69,158.76 313.28,156.13 C 310.79,166.59 308.44,177.1 306.92,187.75 C 306.26,193.14 305.87,198.62 306.6,204.02 C 307.24,208.02 308.85,212.29 312.49,214.5 C 316.8,216.87 323.48,215.21 325.16,210.27 C 326.31,206.94 326.28,203.38 326.6,199.91 C 328.48,183.7 330.37,167.48 333.63,151.48 C 339.23,149.44 345.28,149.09 350.87,147.02 C 355.29,145.63 356.63,139.9 355.21,135.97 C 349.77,132.83 343.19,134.7 337.32,135.25 C 340.38,123.93 342.67,112.38 346.24,101.2 C 349.81,90.92 354.49,81.06 357.89,70.72 C 358.9,67.22 360.08,63.22 358.15,59.82 C 356.61,57.34 354.47,55.24 353.33,52.51 C 352.19,50.38 351.58,47.58 349.07,46.63 C 345.19,46 342.1,49.11 339.37,51.41 M 433.39,86.74 C 427.69,88.96 422.94,94.69 423.3,101.02 C 423.29,104.45 425.87,107.58 429.12,108.49 C 438.53,110.66 448.79,100.99 446.38,91.44 C 444.85,86.02 438.04,84.55 433.39,86.74 M 179.4,95.6 C 173.36,98.02 168.53,104.51 169.71,111.2 C 170.67,115.69 175.58,118.34 179.95,117.46 C 188.04,116.28 195.48,107.31 192.26,99.11 C 190.18,94.31 183.7,93.56 179.4,95.6 M 471.22,111.96 C 463.61,115.63 457.32,121.49 451.56,127.58 C 439.85,140.69 430.16,155.44 419.22,169.18 C 416.74,171.93 414.11,175.45 410.11,175.73 C 410.29,173.6 410.44,171.42 411.36,169.45 C 417.47,156.01 425.58,143.6 432.22,130.43 C 433.14,127.72 433.41,124.08 431.02,122.02 C 426.21,117.54 417.96,119.43 414.02,124.1 C 410.36,135.84 403.35,146.08 398.3,157.2 C 394.04,166.36 389.35,175.76 388.73,186.02 C 388.36,190.51 389.58,195.96 394.03,198.05 C 398.55,199.79 403.65,198.15 407.36,195.31 C 415.42,189.31 421.72,181.31 427.4,173.1 C 427.19,177.74 427.32,182.81 430.4,186.59 C 434.08,191.53 441.38,191.81 446.55,189.28 C 453.29,186.28 457.72,180.15 463.02,175.3 C 463.99,178.25 464.46,181.83 467.23,183.73 C 470.31,185.94 474.37,185.62 477.8,184.49 C 484.94,182.21 490.51,176.89 495.4,171.43 C 500.81,164.95 506.05,158.09 508.91,150.06 C 509.62,148.49 509.39,146.63 507.89,145.64 C 505.63,144.97 503.05,145.72 501.83,147.8 C 498.54,152.77 495.52,158 491.14,162.13 C 489.36,163.72 487.48,165.96 484.8,165.45 C 482.38,164.11 483.28,160.98 483.9,158.86 C 487.31,150.09 492.01,141.89 496.74,133.79 C 497.87,131.69 498.9,129.31 498.31,126.88 C 496.15,123.37 491.66,122.88 488.64,120.46 C 487,118.01 486.6,114.76 484.2,112.82 C 480.74,109.43 475.25,110.01 471.22,111.96 M 378.34,127.63 C 367.64,131.27 359.84,140.85 356.17,151.29 C 353.38,159.11 353.6,168.47 358.69,175.33 C 360.6,178.36 363.92,181.02 363.79,184.9 C 363.11,188.43 358.61,189.99 355.46,188.91 C 350.08,187.62 346.32,183.4 342.55,179.68 C 339.62,177.82 337.83,181.6 336.83,183.74 C 335.1,187.75 332.09,192.35 334.25,196.76 C 336.55,202.26 342.35,205.29 347.94,206.41 C 356.15,207.78 364.62,205.07 371.43,200.52 C 379.83,194.98 383.95,184.44 383.07,174.61 C 382.32,168.58 377.7,164.24 374.39,159.49 C 371.33,155.47 371.07,149.79 373.05,145.24 C 374.54,141.69 378.47,139.91 382.15,139.82 C 386.16,140.44 387.42,144.74 389.77,147.42 C 391.63,147.96 394.03,148.07 395.44,146.5 C 397.92,143.9 399.91,140.64 400.41,137.03 C 400.77,133.19 397.73,129.98 394.47,128.47 C 389.41,126.31 383.6,126.17 378.34,127.63 z" id="path5" style="opacity:1;fill:#df1d25"/>
    <path d="M 91.42,143.65 C 103.69,122.1 116.51,100.82 131.07,80.74 C 124.24,99.69 117.77,118.87 113.27,138.53 C 106.19,140.88 98.69,141.89 91.42,143.65 z" id="path7" style="opacity:1;fill:#df1d25"/>
    <path d="M 296.17,143.46 C 308.4,121.89 321.3,100.66 335.79,80.52 C 328.65,99.66 322.7,119.21 317.5,138.96 C 310.35,140.27 303.26,141.87 296.17,143.46 z" id="path9" style="opacity:1;fill:#df1d25"/>
    <path d="M 471.98,128.95 C 473.68,127.55 475.58,125.77 477.97,126 C 479.99,127.47 478.55,130.27 478.04,132.2 C 473.7,142.89 468.04,153.08 461.25,162.41 C 457.53,167 453.8,172.46 447.74,173.99 C 445.29,169.97 448.08,165.6 449.6,161.79 C 455.28,149.81 462.03,137.92 471.98,128.95 z" id="path11" style="opacity:1;fill:#df1d25"/>
  </g>
  <g id="#ffffffff">
    <path d="M 135.54,50.67 C 138,48.72 140.71,46.16 144.1,46.57 C 146.99,47.48 147.69,50.73 148.98,53.08 C 150.83,57.05 155.3,60.08 154.55,64.96 C 153.25,73.79 148.78,81.73 145.86,90.09 C 139.57,104.53 136.61,120.06 132.73,135.25 C 144.41,133.35 156.13,131.5 167.92,130.43 C 173.43,129.68 178.48,135.68 175.87,140.89 C 169.72,153.03 162.93,164.92 157.8,177.56 C 156.79,179.94 156.37,182.5 156.2,185.07 C 160.44,185.01 162.73,180.94 165.43,178.3 C 176.5,165.58 185.76,151.14 192.24,135.55 C 193.71,132.74 192.88,128.63 196.02,126.89 C 200.22,124.32 206.18,122.09 210.64,125.31 C 214.06,127.93 211.93,132.41 211.21,135.81 C 214.68,131.44 218.44,127.18 223.05,123.97 C 228.56,119.85 236.87,123.51 239.56,129.28 C 240.98,132.4 238.65,135.46 236.31,137.32 C 231.16,141.61 224.05,141.54 218.11,144.14 C 211.64,146.44 207.28,152.06 203.41,157.45 C 195.64,168.21 189.53,180.67 188.54,194.08 C 188.37,195.73 188.48,197.84 186.82,198.81 C 183.61,200.93 180.01,203.03 176.03,202.95 C 173.08,202.9 170.74,200.34 170.31,197.54 C 169.13,193.54 170.41,189.4 170.95,185.43 C 166.5,192.87 160.93,199.78 154.2,205.28 C 150.58,208.45 145.45,209.66 140.81,208.29 C 137.45,206.54 135.79,202.68 135.52,199.06 C 134.89,191.63 137.18,184.37 139.54,177.43 C 143.61,166.79 148.36,156.41 153.38,146.18 C 145.21,147.8 137.07,149.59 129,151.65 C 125.6,167.55 123.85,183.73 122.05,199.88 C 121.49,204.08 121.96,208.79 119.37,212.42 C 115.88,216.72 108.21,216.66 105.02,212 C 101.47,206.8 101.26,200.12 101.64,194.04 C 102.72,181.35 105.64,168.91 108.52,156.53 C 99,159.21 89.51,162.01 80.03,164.85 C 72.99,177.88 66.7,191.31 60.62,204.82 C 54.53,219.15 48,233.42 44.32,248.62 C 43.26,252.21 41.26,256.66 36.99,257.03 C 28.59,257.22 21.71,248.05 24.22,240 C 27.45,229.21 32.03,218.89 36.49,208.56 C 41.44,197.04 46.99,185.8 52.73,174.66 C 45.11,177.77 37.68,181.31 30.46,185.26 C 27.27,187.33 22.72,186.58 20.42,183.55 C 16.9,178.04 17.59,169.06 24.16,166.11 C 36.78,160.32 49.85,155.46 63.18,151.54 C 64.37,151.08 65.94,150.92 66.6,149.66 C 81.86,123.35 97.93,97.43 116.09,73.01 C 122.12,65.2 128.13,57.24 135.54,50.67 M 91.42,143.65 C 98.69,141.89 106.19,140.88 113.27,138.53 C 117.77,118.87 124.24,99.69 131.07,80.74 C 116.51,100.82 103.69,122.1 91.42,143.65 z" id="path14" style="opacity:1;fill:#ffffff"/>
    <path d="M 339.37,51.41 C 342.1,49.11 345.19,46 349.07,46.63 C 351.58,47.58 352.19,50.38 353.33,52.51 C 354.47,55.24 356.61,57.34 358.15,59.82 C 360.08,63.22 358.9,67.22 357.89,70.72 C 354.49,81.06 349.81,90.92 346.24,101.2 C 342.67,112.38 340.38,123.93 337.32,135.25 C 343.19,134.7 349.77,132.83 355.21,135.97 C 356.63,139.9 355.29,145.63 350.87,147.02 C 345.28,149.09 339.23,149.44 333.63,151.48 C 330.37,167.48 328.48,183.7 326.6,199.91 C 326.28,203.38 326.31,206.94 325.16,210.27 C 323.48,215.21 316.8,216.87 312.49,214.5 C 308.85,212.29 307.24,208.02 306.6,204.02 C 305.87,198.62 306.26,193.14 306.92,187.75 C 308.44,177.1 310.79,166.59 313.28,156.13 C 303.69,158.76 294.09,161.38 284.68,164.59 C 271.85,189.56 259.68,215.02 250.77,241.69 C 248.96,246.91 248.88,254.34 242.99,256.77 C 234.06,258.46 225.88,248.27 228.88,239.74 C 236.41,217.16 246.7,195.61 257.38,174.38 C 249.79,177.51 242.39,181.13 235.27,185.25 C 232.9,186.82 229.54,186.79 227.37,184.88 C 223.17,181.62 223.96,175.53 224.55,170.89 C 226.85,165.89 232.64,164.55 237.2,162.4 C 248.1,157.46 259.57,153.91 270.86,150.09 C 283.79,128.21 296.96,106.43 311.57,85.62 C 320.13,73.68 328.66,61.55 339.37,51.41 M 296.17,143.46 C 303.26,141.87 310.35,140.27 317.5,138.96 C 322.7,119.21 328.65,99.66 335.79,80.52 C 321.3,100.66 308.4,121.89 296.17,143.46 z" id="path16" style="opacity:1;fill:#ffffff"/>
    <path d="M 433.39,86.74 C 438.04,84.55 444.85,86.02 446.38,91.44 C 448.79,100.99 438.53,110.66 429.12,108.49 C 425.87,107.58 423.29,104.45 423.3,101.02 C 422.94,94.69 427.69,88.96 433.39,86.74 z" id="path18" style="opacity:1;fill:#ffffff"/>
    <path d="M 179.4,95.6 C 183.7,93.56 190.18,94.31 192.26,99.11 C 195.48,107.31 188.04,116.28 179.95,117.46 C 175.58,118.34 170.67,115.69 169.71,111.2 C 168.53,104.51 173.36,98.02 179.4,95.6 z" id="path20" style="opacity:1;fill:#ffffff"/>
    <path d="M 471.22,111.96 C 475.25,110.01 480.74,109.43 484.2,112.82 C 486.6,114.76 487,118.01 488.64,120.46 C 491.66,122.88 496.15,123.37 498.31,126.88 C 498.9,129.31 497.87,131.69 496.74,133.79 C 492.01,141.89 487.31,150.09 483.9,158.86 C 483.28,160.98 482.38,164.11 484.8,165.45 C 487.48,165.96 489.36,163.72 491.14,162.13 C 495.52,158 498.54,152.77 501.83,147.8 C 503.05,145.72 505.63,144.97 507.89,145.64 C 509.39,146.63 509.62,148.49 508.91,150.06 C 506.05,158.09 500.81,164.95 495.4,171.43 C 490.51,176.89 484.94,182.21 477.8,184.49 C 474.37,185.62 470.31,185.94 467.23,183.73 C 464.46,181.83 463.99,178.25 463.02,175.3 C 457.72,180.15 453.29,186.28 446.55,189.28 C 441.38,191.81 434.08,191.53 430.4,186.59 C 427.32,182.81 427.19,177.74 427.4,173.1 C 421.72,181.31 415.42,189.31 407.36,195.31 C 403.65,198.15 398.55,199.79 394.03,198.05 C 389.58,195.96 388.36,190.51 388.73,186.02 C 389.35,175.76 394.04,166.36 398.3,157.2 C 403.35,146.08 410.36,135.84 414.02,124.1 C 417.96,119.43 426.21,117.54 431.02,122.02 C 433.41,124.08 433.14,127.72 432.22,130.43 C 425.58,143.6 417.47,156.01 411.36,169.45 C 410.44,171.42 410.29,173.6 410.11,175.73 C 414.11,175.45 416.74,171.93 419.22,169.18 C 430.16,155.44 439.85,140.69 451.56,127.58 C 457.32,121.49 463.61,115.63 471.22,111.96 M 471.98,128.95 C 462.03,137.92 455.28,149.81 449.6,161.79 C 448.08,165.6 445.29,169.97 447.74,173.99 C 453.8,172.46 457.53,167 461.25,162.41 C 468.04,153.08 473.7,142.89 478.04,132.2 C 478.55,130.27 479.99,127.47 477.97,126 C 475.58,125.77 473.68,127.55 471.98,128.95 z" id="path22" style="opacity:1;fill:#ffffff"/>
    <path d="M 378.34,127.63 C 383.6,126.17 389.41,126.31 394.47,128.47 C 397.73,129.98 400.77,133.19 400.41,137.03 C 399.91,140.64 397.92,143.9 395.44,146.5 C 394.03,148.07 391.63,147.96 389.77,147.42 C 387.42,144.74 386.16,140.44 382.15,139.82 C 378.47,139.91 374.54,141.69 373.05,145.24 C 371.07,149.79 371.33,155.47 374.39,159.49 C 377.7,164.24 382.32,168.58 383.07,174.61 C 383.95,184.44 379.83,194.98 371.43,200.52 C 364.62,205.07 356.15,207.78 347.94,206.41 C 342.35,205.29 336.55,202.26 334.25,196.76 C 332.09,192.35 335.1,187.75 336.83,183.74 C 337.83,181.6 339.62,177.82 342.55,179.68 C 346.32,183.4 350.08,187.62 355.46,188.91 C 358.61,189.99 363.11,188.43 363.79,184.9 C 363.92,181.02 360.6,178.36 358.69,175.33 C 353.6,168.47 353.38,159.11 356.17,151.29 C 359.84,140.85 367.64,131.27 378.34,127.63 z" id="path24" style="opacity:1;fill:#ffffff"/>
  </g>
</svg>