<?xml version="1.0" encoding="utf-8"?>
<!-- Generator: Adobe Illustrator 22.1.0, SVG Export Plug-In . SVG Version: 6.00 Build 0)  -->
<svg version="1.1" id="Слой_1" xmlns="http://www.w3.org/2000/svg" xmlns:xlink="http://www.w3.org/1999/xlink" x="0px" y="0px"
	 width="80.055px" height="23px" viewBox="0 0 80.055 23" style="enable-background:new 0 0 80.055 23;" xml:space="preserve">
<style type="text/css">
	.st0{fill:#00569F;}
	.st1{fill:#E21C2A;}
</style>
<g>
	<path class="st0" d="M3.921,0c0,0-0.413,8.985,8.461,9.965V11.9l1.947-1.935c9.428,0,13.632-9.389,13.632-9.389
		c-7.764,7.197-11.814,6.388-11.814,6.388S15.735,5.4,18.417,0c0,0-1.051,2.242-2.734,3.267l-0.034-2.511c0,0-1.9,5.907-3.542,6.294
		C12.106,7.05,6.979,7.687,3.921,0z"/>
	<path class="st1" d="M24.04,23c0,0,0.413-8.985-8.461-9.965V11.1l-1.947,1.935C4.204,13.035,0,22.424,0,22.424
		c7.764-7.197,11.814-6.388,11.814-6.388S12.227,17.6,9.544,23c0,0,1.051-2.242,2.734-3.267l0.034,2.511c0,0,1.9-5.907,3.542-6.294
		C15.855,15.95,20.982,15.313,24.04,23z"/>
	<path class="st1" d="M30.678,8.254l-1.823,6.483c0,0-0.688,2.046,1.135,2.046s4.494,0,4.494,0l2.393-8.529h-2.158l-1.819,6.483
		H31.59c0,0-0.582,0.07-0.281-1.002l1.537-5.48L30.678,8.254z"/>
	<path class="st1" d="M67.063,8.254l-1.823,6.483c0,0-0.688,2.046,1.135,2.046c1.823,0,4.494,0,4.494,0l2.393-8.529h-2.158
		l-1.819,6.483h-1.311c0,0-0.582,0.07-0.281-1.002l1.537-5.48L67.063,8.254z"/>
	<path class="st0" d="M37.952,8.256h2.227c0,0,0.524,1.839,1.453,1.726V8.254h2.616l-0.001,1.728c1.159,0,2.226-1.726,2.226-1.726
		c1.273,0,2.317,0,2.317,0s-2.154,4.018-5.412,4.018c-1.747,0-1.81,0-1.81,0C38.915,12.274,37.952,8.256,37.952,8.256z"/>
	<path class="st1" d="M46.253,16.782h-2.227c0,0-0.524-1.839-1.453-1.726v1.728h-2.616l0.001-1.728
		c-1.159,0-2.226,1.726-2.226,1.726c-1.273,0-2.317,0-2.317,0s2.154-4.018,5.412-4.018c1.747,0,1.81,0,1.81,0
		C45.29,12.764,46.253,16.782,46.253,16.782z"/>
	<polygon class="st1" points="46.927,16.784 55.234,16.784 55.234,8.254 52.672,8.254 52.672,14.737 50.211,14.737 51.95,11.59 
		49.807,11.59 	"/>
	<polygon class="st1" points="71.748,16.784 80.055,16.784 80.055,8.254 77.492,8.254 77.492,14.737 75.031,14.737 76.77,11.59 
		74.627,11.59 	"/>
	<path class="st1" d="M63.471,12.003c0,0,0.929-0.22,0.929-1.909c0-1.84-0.757-1.84-0.757-1.84h-5.081l-1.368,4.884h4.23
		c0.221,0,0.43,0.172,0.243,0.733c-0.216,0.649-0.373,0.866-0.622,0.866h-4.302l-0.574,2.046c0,0,5.53-0.017,6.132-0.017
		c1.049,0,1.668-1.651,1.668-2.7C63.97,12.14,63.471,12.003,63.471,12.003z M62.169,10.649c-0.151,0.516-0.273,0.675-0.58,0.675
		h-1.721l0.416-1.482h1.653C62.12,9.842,62.34,10.066,62.169,10.649z"/>
</g>
</svg>
