<?xml version="1.0" encoding="utf-8"?>
<!-- Generator: Adobe Illustrator 22.1.0, SVG Export Plug-In . SVG Version: 6.00 Build 0)  -->
<svg version="1.1" id="Слой_1" xmlns="http://www.w3.org/2000/svg" xmlns:xlink="http://www.w3.org/1999/xlink" x="0px" y="0px"
	 width="681.377px" height="240.1px" viewBox="0 0 681.377 240.1" enable-background="new 0 0 681.377 240.1" xml:space="preserve">
<g>
	<path fill="#418458" d="M149.477,171.9c-1.5,2.5-4,3.9-6.1,5.8c-9.2,8.5-16.4,18.7-23.7,28.8c-5.1,7.2-10.5,14.1-17.6,19.5
		c-9.7,7.4-20.3,12.5-32.6,13.4c-0.4,0-0.8,0.5-1.2,0.7c-4,0-8,0-12,0c-2.8-1.6-6-1.1-9.1-1.9c-21.8-6-43.1-23.1-46.6-51.4
		c-2.3-17.8,2.3-34.3,13.3-48.7c8.6-11.3,19.8-18.5,33.6-21.5c1.3-0.3,2.6-0.5,4.3-0.2c1.9,11.6,3.8,23.3,5.8,35.1
		c-3.7,1.4-7.2,2.5-10.2,4.6c-8.5,6-12.7,16.6-10.5,26.6c2.8,12.7,12.4,19.2,21,20.6c15.8,2.6,28.4-7.7,31.3-22.3
		c0.2-1.1-0.1-2.4,0.9-3.3c1.4,0.6,2,2.3,3.6,2.4c3.5-0.4,6.4-2.5,10.4-3.2c-1.8,3.8-3.4,7-5,10.3c2.2,2.6,4.4,5,7.1,7.1
		c12-3.1,21.1-10.1,28.7-19.4c0.5-0.6,0.9-1.4,1.2-2.2c4.2-10.2,7.3-20.9,10.8-31.4c0.4-1.2,0.9-2.6-0.2-3.9
		c-10.9,2.4-21.8,5-32.7,7.3c-4.4,0.9-8,2.9-11,6.2c-3.5,3.9-8.2,6.6-11,11.3c-0.1,0.1-0.3,0.1-0.4,0.2c-0.6-5.9-0.2-11.9-1-17.9
		c-0.9-7.3-2.8-14.3-4.8-21.3c-0.7-2.5-1.5-5.1-2.3-7.6c1.9,0.2,2.8,1.6,3.8,2.9c5.2,6.1,12.4,9.2,19.1,13.1
		c0.5,0.3,1.3,0.5,1.9,0.5c4.5,0,8.9,1.1,13.4,1c7.1-0.2,14.3,0,21.4-0.1c1.3,0,2.6,0.4,3.9-0.5c-0.1-0.4-0.1-1-0.4-1.3
		c-4.5-7.9-9.3-15.6-13.5-23.7c-3.2-6.2-7.2-11.4-13.2-15c0.3-0.3,0.5-0.6,0.8-0.9c3.6,1.4,6.5,4,9.9,5.7c4.6,2.2,9.2,4.5,13.7,6.7
		c2.3,8.9,5.2,17.6,8.1,26.8c4.4-4.6,8.4-8.5,12-12.8c1.8-2.1,4.2-3.8,4.9-6.8c5.2,0,10.2,1,15.3,1.9c-1.5,2.2-3.7,3.8-5.9,5.2
		c-4.8,3.2-9.6,6.4-14.3,9.8c-2.9,2.1-6.1,3.9-8.5,7.2c11.5,5.3,22.8,10.6,34.1,15.8c-5,1.3-10,2.8-14.8,4.7
		c-7.5-5.5-14.4-11.8-23.2-16.7c0,2.5,0.1,4.1,0,5.7C151.277,153.8,150.377,162.8,149.477,171.9z"/>
	<path fill="#211E1E" d="M332.177,1.1c1.2,0,2.6,0,2.7,1.6c0.3,4.8,1,9.8-1,14.6c-1.9-1-1.8-2.8-2.1-4.1c-1.9-7-12.7-12.2-21.2-6.6
		c-4.5,3-5.7,9.4-2.8,14.3c1.3,2.2,3,4,5,5.6c3.4,2.7,6.8,5.4,10.1,8.1c4.5,3.7,8.6,7.9,11.4,13.1c6.2,11.6,2.7,23.5-8.9,29.7
		c-10.1,5.4-20.4,5-30.5,0.5c-1.9-5.3-1.5-14.8,0.8-19.2c1.4,1.7,1.4,3.8,1.7,5.6c2.1,12.8,17.3,13.9,24.5,8.8
		c4.2-3,5.6-8.4,3.8-13.4c-1.5-4.1-4.3-7.1-7.3-9.9c-2.4-2.2-5.1-4.3-7.7-6.4c-5.2-4.3-9.7-9.1-12.6-15.3c-1-2.1-1.7-4.3-2.1-6.6
		c-1.4-7.1,1.6-13.7,7.9-17.4c3.2-1.9,6.6-3.2,10.3-3.3c1.2,0.2,2.5,0.9,3.3-0.7c2.3,0,4.7,0,7,0
		C326.777,1.9,329.577,0.8,332.177,1.1z"/>
	<path fill="#418458" d="M332.177,1.1c-2.6-0.3-5.4,0.9-7.8-1c2.7,0,5.3,0,8,0C332.277,0.4,332.277,0.7,332.177,1.1z"/>
	<path fill="#418458" d="M317.377,0c-0.8,1.6-2.1,0.9-3.3,0.7c0-0.3,0.1-0.5,0.3-0.7C315.377,0,316.377,0,317.377,0z"/>
	<path fill="#418458" d="M81.277,108.5c-4.7-8.9-9.4-17.9-12.7-27.4c-4.1-11.8-4-23.7-0.2-35.7c5-15.4,13.8-27.9,28.1-36.1
		c12.5-7.1,26-9.5,40.3-7.6c16.2,2.1,29.7,9.2,40.3,21.5c8.9,10.2,13.6,22.3,14.3,35.8c0.3,7,0.2,13.9-1.9,20.7
		c-0.5,1.8-1,3.5-2.4,5c-1.3-0.7-2.9-0.5-3.9-1.8c-0.4-5.4-0.9-10.8-1.3-16.2c-3.2-2-6.8-1.8-9.9-2.8c-3.2,2.4-3.7,6.8-7.5,8.8
		c-0.1-3.8-0.8-7.2-1.6-10.6c-2.6-0.5-5.1-1-7.5-1.5c-1.5-2.6-1.6-5.7-2.7-8.5c-4.8-11.8-18.9-18-31.6-14.4
		c-12.9,3.7-20.7,16-18.6,29.1c1.4,8.8,6.6,15.5,13.6,20.8c1.6,1.2,3.5,2,4.7,3.6c-0.3,0.3-0.5,0.6-0.8,0.9
		c-7.8-3.5-15.9-6.1-24.7-7.3c-1.7,2.9-3.4,5.6-5.2,8.5c1.9,3.4,4.6,6.1,7.4,9.6c-4.3-0.8-8-1.3-11.8-1.1
		C83.677,103.8,82.677,106.3,81.277,108.5z"/>
	<path fill="#418458" d="M223.777,122.1c9.1,2.9,15.7,9.2,21.3,16.5c17.2,22.8,17.3,55.9-1.4,78.5c-9,10.8-20.5,18-34.3,20.7
		c-22.3,4.4-42.1-0.7-58.8-16.5c-1.2-1.1-2.4-2.2-3.1-4.2c5.1-4.6,9.9-9.6,16-13.1c1.1,1.6,2.4,3,4.1,4.2c3.1-1.4,6-2.7,8.6-3.9
		c0.9-2.7-0.5-5.2,0.9-7.5c5.7,4,11.7,6.7,18.9,6.4c12.7-0.6,23.5-8.7,25.4-22.1c2-14.2-5.8-25.7-19.5-29.1
		c-0.7-0.2-1.2-0.4-1.7-0.9c0.9-1.3,2.4-1,3.6-1.1c8-0.2,14.6-4.5,21.8-7.1c-0.2-3.9,0.1-7.4-0.6-10.8c-2.9-1.2-5.7-2.5-8.7-3.7
		c1.2-1.5,2.6-1.9,4-2.4C222.077,125.3,223.477,124.1,223.777,122.1z"/>
	<path fill="#211E1E" d="M544.777,173.9c1.1,2.4,3.2,1.8,4.6,2.7c-2.8,1.6-17.2,2-21.5,0.7c-0.1-0.7,0.4-1.1,0.8-1
		c5,0.1,7.4-3.1,9.1-7.2c4.2-9.8,8.4-19.5,12.5-29.4c3.3-7.8,6.3-15.7,10.2-23.3c1.2-2.4,2.3-4.8,4.6-6.7c2.3,1.3,3.1,3.8,4.1,6
		c3.1,7,6.1,14,9.1,21c4.4,10.4,8.8,20.8,13.1,31.3c2.3,5.5,6.1,8.6,12.2,8.5c4.2,0,6.5-1.9,7-6.2c0.4-3.8,0.6-7.6,0.6-11.5
		c0.2-14.2-0.2-28.3,0.4-42.5c0.1-2-0.1-4,1.2-6.1c2.3,1,4,2.7,5.8,4.3c15,13.3,28.7,27.8,43,41.9c1.1,1.1,1.9,2.7,4,3.3
		c-0.3-7.8-0.6-15.4-0.8-23.1c-0.2-5.3-0.2-10.7-0.3-16c-0.1-5.6-0.4-6-5.9-7.5c-0.7-0.2-1.3-0.3-1.7-0.9c-0.1-0.1-0.1-0.3-0.1-0.7
		c7.4,0,14.8,0,22.2,0c-1.4,1.8-1.4,1.8-4.9,3.1c-1.7,2.1-1.4,4.7-1.5,7.1c-0.1,12.3-0.1,24.7-0.3,37c-0.1,5.2-0.5,10.3-0.9,15.5
		c-0.1,1.6-0.2,3.3-1.6,4.7c-5-2.5-8.9-6.4-12.8-10.2c-8.5-8.5-16.7-17.2-25.1-25.8c-4.1-4.2-8.1-8.4-12.9-11.8
		c-1.3,1-0.7,2.2-0.7,3.2c0.3,11.7,0.7,23.3,1.1,35c0.2,5.2,0.9,5.9,6.4,6.9c0.5,0.1,0.9,0.4,1.4,0.6c-3.3,1.8-27.3,2.2-47.4,0.9
		c1.7-2.4,0.8-4.6-0.2-6.8c-1.9-4.8-3.8-9.6-5.7-14.5c-7.6,0-15.2,0-23.1,0C548.477,162.2,545.077,167.8,544.777,173.9z
		 M571.277,150.8c-2.5-8.1-5.3-15.4-8.9-23.4c-3.7,8-7,15.3-8.8,23.4C559.577,150.8,565.177,150.8,571.277,150.8z"/>
	<path fill="#211E1E" d="M489.477,16.5c-1.8-1.8-4.8-0.5-5.8-3.3c8.5-1.2,16.9-0.8,25.4-0.1c-0.1,0.4-0.1,0.9-0.1,0.9
		c-4.7,0.6-5.5,3.8-5.7,7.9c-0.4,11-1.1,22-0.7,32.9c0.2,5.2,0.4,10.3,0.9,15.4c0.5,5.9,0.9,6.1,6.8,7.2c0.6,0.1,1.3,0.3,1.7,1.4
		c-2.4,0.2-4.8,0.6-7.2,0.6c-12.3,0.4-24.6,0.2-36.9-0.5c-3.8-0.2-6.6-2.1-9.2-4.4c-4.5-4.1-7.9-9-11.3-13.9c-2-2.8-4-5.7-6-8.5
		c-3.3,0-6.4,0-9.9,0c-0.7,6.7-0.8,13.3,0.2,19.9c0.4,2.8,1.8,5,5,5.4c0.8,0.1,1.5,0.6,3.3,1.4c-9.6,1.1-18.2,1-26.9,0.2
		c0.1-0.4,0.1-0.9,0.2-0.9c5.1-0.7,6.1-4.4,6.1-8.6c0-15.8,0-31.6-0.1-47.5c0-2.1-0.3-4.3-1.3-6.1c-2-1.5-5,0-6.5-2.6
		c3.8-1,7.6-1,11.4-0.9c6.7,0.1,13.3,0.3,20,0.5c5.2,0.1,10.3,1.1,14.5,4.5c5.8,4.7,7.1,10,4.2,16.8c-1.4,3.3-3.5,6-5.7,8.7
		c-1.6,1.9-3.7,3.3-4.9,5.6c1.6,3,3.8,5.5,6,8c4.2,4.9,8.4,9.9,12.8,14.6c3,3.2,6.6,5.6,11,6.4c5.8,1.1,8.4-0.6,9.7-6.3
		c1.1-4.8,1-9.6,0.7-14.4c-0.6-11.6-0.6-23.3-0.8-34.9C490.377,20,490.677,17.9,489.477,16.5z M431.477,46.1
		c7.8,2.5,13.6,1.1,17.2-4c3.8-5.3,3.5-13.8-0.6-19.1c-3.9-5-10.4-7-16.6-4.8C431.477,27.3,431.477,36.5,431.477,46.1z"/>
	<path fill="#FAD934" d="M81.277,108.5c1.5-2.2,2.4-4.7,4.6-6.5c3.8-0.2,7.5,0.2,11.8,1.1c-2.7-3.5-5.4-6.2-7.4-9.6
		c1.7-2.8,3.4-5.6,5.2-8.5c8.8,1.2,16.9,3.8,24.7,7.3c6,3.6,10,8.8,13.2,15c4.1,8.1,9,15.8,13.5,23.7c0.2,0.4,0.2,0.9,0.4,1.3
		c-1.3,0.9-2.7,0.5-3.9,0.5c-7.1,0-14.3-0.1-21.4,0.1c-4.5,0.1-8.9-1-13.4-1c-0.6,0-1.3-0.2-1.9-0.5c-6.7-3.9-14-7-19.1-13.1
		c-1.1-1.3-2-2.7-3.8-2.9C83.377,113,81.177,111.1,81.277,108.5z"/>
	<path fill="#FAD934" d="M91.677,162.3c0.2-0.1,0.4-0.1,0.4-0.2c2.8-4.6,7.4-7.4,11-11.3c3-3.3,6.6-5.3,11-6.2
		c11-2.3,21.9-4.8,32.7-7.3c1.2,1.4,0.6,2.8,0.2,3.9c-3.5,10.5-6.6,21.1-10.8,31.4c-0.3,0.8-0.7,1.5-1.2,2.2
		c-7.6,9.3-16.8,16.3-28.7,19.4c-2.7-2.1-4.9-4.5-7.1-7.1c1.6-3.3,3.2-6.5,5-10.3c-4,0.8-7,2.8-10.4,3.2c-1.6-0.2-2.3-1.8-3.6-2.4
		C89.977,172.5,91.277,167.4,91.677,162.3z"/>
	<path fill="#211E1E" d="M531.677,10.9c4.6,2.4,7.6,5.2,10.5,8.2c8,8.3,15.8,16.7,23.7,25c5.2,5.4,10.3,10.9,16.3,15.4
		c0.8,0.6,1.4,1.5,2.6,1.3c1.5-10.5-0.2-40.5-2.6-45.3c-1.7-1.3-4.5,0.3-5.9-2.3c7.4-1.1,14.6-0.9,21.9-0.1
		c-0.1,0.4-0.1,0.9-0.2,0.9c-5,1-5.8,4.6-5.8,9c0.1,12.2-0.2,24.3-0.1,36.5c0,5.3-0.4,10.6-0.7,16c-0.1,1.5-0.1,3-1.6,4.6
		c-3.3-1.6-6.2-3.9-9.1-6.3c-11.1-9.7-21.3-20.2-31.7-30.6c-3.4-3.4-7-6.6-10.4-9.9c-1.9,5.7,0,38.5,2.5,43.2c1,0.8,2.2,0.4,3.4,0.6
		c1,0.1,2,0.4,2.5,1.4c-6.2,1.4-17.8,1.4-23.6,0c1-2.4,3.6-1.1,5.5-2.4c1.8-1.5,1.6-3.9,1.6-6.2c0.2-12.7,0.2-25.3,0.5-38
		C531.077,25.3,531.377,18.5,531.677,10.9z"/>
	<path fill="#FAD934" d="M223.777,122.1c-0.3,2.1-1.7,3.2-3.5,3.8c-1.4,0.5-2.8,0.9-4,2.4c3,1.3,5.8,2.5,8.7,3.7
		c0.7,3.5,0.4,6.9,0.6,10.8c-7.2,2.7-13.8,6.9-21.8,7.1c-1.3,0-2.7-0.2-3.6,1.1c-3.3,0-6.6,0-9.9-0.1c-11.3-5.2-22.6-10.4-34.1-15.8
		c2.4-3.3,5.5-5.1,8.5-7.2c4.7-3.3,9.5-6.5,14.3-9.8c2.2-1.5,4.3-3,5.9-5.2c10.8,0.5,21.5,1.5,31.9,5
		C219.277,118.9,222.077,119.6,223.777,122.1z"/>
	<path fill="#232020" d="M662.277,74.4c0.7-8.4,0.6-16.3,0-24.2c-2.5-1.6-5.4-1.1-7.9-2.7c2.8-1.8,5.9-0.7,8.7-0.9
		c3.1-0.3,6.3-0.2,9.5-0.1c2.9,0.1,5.9-0.6,8.8,0.4c-0.2,1.8-1.4,1.4-2.2,1.7c-3.8,1.4-4,1.5-4,5.8c-0.1,7.2,0,14.3,0,21.5
		c-4.7,3-9.7,3.8-14.8,4.6c-12.7,1.9-25,0.3-36-6.6c-11.2-7-16.2-17.3-15-30.5c1.2-12.4,6.5-22.2,18.4-27.6c4.5-2,9.2-3.1,14-3.5
		c10-0.9,20-0.1,29.9,1.3c0.8,0.1,1.5,0.6,2.7,1c0,5.4,0.3,10.8-1,16.5c-2.2-1.1-2.4-3-2.9-4.6c-0.7-2.6-2.2-4.4-4.6-5.6
		c-9.5-5.1-19.4-6-29.4-2.3c-7,2.6-11.3,8.3-12.9,15.5c-3,13.2,0.4,24.8,10,34.3C641.577,76,651.277,77.4,662.277,74.4z"/>
	<path fill="#211E1E" d="M405.077,177.7c0.8-1,1-1.4,1.2-1.4c5.1,0.3,7.4-3,9.1-7c6.7-15.6,13.4-31.1,20-46.7c1.1-2.6,2-5.3,3.3-7.8
		c0.9-1.9,1.8-4,4.1-5.1c2,1.3,2.8,3.5,3.8,5.5c4.5,8.9,7.9,18.3,11.7,27.5c3.5,8.3,7.1,16.5,10.6,24.7c0.7,1.5,1.5,3,2.3,4.4
		c1.4,2.5,3.3,4.2,6.3,4.2c0.8,0,1.7,0.1,2.2,0.8c-3.6,2.5-6.9,2.7-22.3,0.8c0.9-2,1-3.8,0.1-5.9c-2.2-5-4-10.2-6.1-15.5
		c-7.6,0-15.2,0-23.1,0c-2,6-5.6,11.5-6.4,17.6c1.4,2.3,3.9,1.6,6,3.6C420.077,178.4,412.877,178.2,405.077,177.7z M448.477,150.8
		c-0.9-5.6-5.6-17.9-8.7-22.5c-3.7,7.3-6.5,14.5-8.6,22.5C437.177,150.8,442.577,150.8,448.477,150.8z"/>
	<path fill="#211E1E" d="M506.977,147.2c6-1.9,11.3-3.5,13.8-9.1c1.9-4.2,1.7-8.4,0.3-12.6c-2.4-7.5-9.3-11.2-17.3-9.5
		c-1.8,6.5-1.2,50.3,0.7,58.7c2.1,1.5,4.7,1.1,7.5,1.8c-3,2.3-6.2,1.3-9.1,1.6c-3.1,0.3-6.3,0.2-9.5,0.2c-3,0-6.1-0.2-9.6-0.4
		c1.4-2.6,3.8-1.3,5.1-2.6c2.3-7.4,2.9-38.4,1.2-59.7c-1.9-2.4-4.9-2.2-7.7-2.8c0.7-1.3,1.9-1.7,3-1.6c11.4,0.7,23-1,34.4,1
		c7.6,1.3,12.5,6.1,13.8,13.2c0.6,3.2,0,6.3-1.4,9.2c-3.4,7-8.9,11.4-16.3,13.6C513.177,149,510.477,149.1,506.977,147.2z"/>
	<path fill="#232020" d="M373.777,48.5c5.8-1.9,11.3-3.2,13.6-8.7c1.9-4.3,1.7-8.8,0.3-13.2c-2.3-7.4-8.6-10.6-17.1-8.8
		c-1,1.9-1,4-1.1,6.2c-0.4,15.2-0.4,30.3,0.8,45.4c0.1,0.7,0.1,1.3,0.2,2c0.6,4.5,1.2,5.1,5.8,6c0.8,0.1,1.7,0.2,2.2,1.6
		c-9,0.9-17.8,0.8-27,0.1c0.9-2.2,3.2-1.5,4.5-2.8c0.9-2.2,1.2-4.7,1.3-7.2c0.6-15.7,0.7-31.3,0-47c0-1,0-2-0.2-3
		c-0.6-2.9-1.6-3.8-4.6-4.3c-1-0.2-2,0-2.9-1.5c2.2-0.2,4.1-0.5,6.1-0.7c10.3-0.8,20.6-1,30.8,1.2c1,0.2,1.9,0.5,2.9,0.7
		c8.9,2.8,12.9,10,10.4,19c-2.4,8.8-11.6,16-20.7,16.1c-0.8,0-1.7,0-2.5-0.2C375.977,49.5,375.377,49.2,373.777,48.5z"/>
	<path fill="#211E1E" d="M374.477,100c10.3-0.8,20.2-0.8,30.7,0.1c-1.9,1.8-4.1,1.5-6,2.3c-1.4,1.5-1.6,3.5-1.8,5.5
		c-0.5,7-0.9,13.9-0.5,20.9c0.7,12.5,0.8,25,0.3,37.5c-0.1,3.3-0.5,6.6-1.1,9.9c-2.2,12.9-14.1,25.6-26.5,28.2
		c0.9-2.5,2.8-3.8,4.8-4.9c3.8-2.2,5.9-5.6,7.2-9.8c2.2-7.4,2.5-15.1,2.6-22.7c0.3-17.5,0.1-35,0.1-52.5c0-2.5-0.2-5-0.4-7.5
		c-0.4-3.6-1.3-4.4-5-5.1C377.377,101.7,375.677,102.1,374.477,100z"/>
	<path fill="#FAD934" d="M149.477,171.9c0.9-9,1.8-18.1,2.7-27.1c0.2-1.6,0-3.3,0-5.7c8.8,4.9,15.7,11.2,23.2,16.7
		c-2.2,2.4-5.2,3.5-7.9,4.9C161.177,163.9,155.577,168.2,149.477,171.9z"/>
	<path fill="#FAD934" d="M155.477,60.8c2.4,0.5,4.8,1,7.5,1.5c0.7,3.4,1.5,6.7,1.6,10.6c3.8-2,4.3-6.4,7.5-8.8
		c3.1,1,6.7,0.7,9.9,2.8c0.4,5.4,0.9,10.8,1.3,16.2c-3.2-0.2-5.9-2-8.8-3c-6.1-2.1-12-4.4-18-6.7c-0.9-0.3-2-0.5-2.7-2
		C155.177,68.3,153.677,64.3,155.477,60.8z"/>
	<path fill="#FAD934" d="M169.477,111.1c-0.7,2.9-3.1,4.7-4.9,6.8c-3.6,4.3-7.6,8.2-12,12.8c-3-9.2-5.8-17.9-8.1-26.8
		c2-0.2,3.9,0.7,5.7,1.3c4.9,1.7,9.8,3.3,15,4.1C166.577,109.5,168.477,109.6,169.477,111.1z"/>
	<path fill="#FAD934" d="M176.977,196.8c-1.4,2.3,0,4.8-0.9,7.5c-2.7,1.2-5.6,2.5-8.6,3.9c-1.7-1.2-2.9-2.6-4.1-4.2
		c3.6-3.3,7.1-6.6,10.7-9.9C175.677,194.7,176.477,195.6,176.977,196.8z"/>
</g>
<g>
	<path fill="#211E1E" d="M439.977,203.3c1,2.2,1.5,3,2.7,4.3h4.7c1.3-1.6,1.3-1.6,2.5-3c1.8,1.4,2.4,1.8,4.1,3.3
		c0.1,0.1,0.2,0.3,0.2,0.3c0,0.1-0.1,0.2-0.4,0.2h-10.3c1.3,1.2,2.7,2.2,4.5,3c2,1,3.6,1.4,6.8,2.1v0.5c-1.4,0.6-2.3,1.6-2.9,3.3
		c-0.1,0.3-0.2,0.4-0.4,0.4c-0.6,0-3.2-1.7-5.1-3.4l-0.2,0.1c0.1,5.9,0.1,5.9,0.3,11.5c0,0.8-0.5,1-2.7,1c-1.3,0-1.4-0.1-1.4-0.7
		v-1.3h-10.3v1.2c0,0.8-0.5,1-2.4,1c-1.3,0-1.5-0.1-1.5-0.8c0.1-5.3,0.2-6.9,0.2-8.8c0-1.1,0-1.1-0.1-3.7c-2.4,2.1-4.1,3.2-7.7,4.9
		l-0.3-0.4c4.2-3.3,6.5-5.8,9-9.9h-5.7c-1,0-1.7,0.1-2.5,0.3l-0.2-1.3c1,0.3,1.8,0.3,2.8,0.3h6.1c1-1.8,1.3-2.3,2.1-4.3h-5.7
		c-0.9,0-1.3,0-2.1,0.2l-0.2-1.2c0.9,0.2,1.5,0.3,2.4,0.3h5.9c0.6-1.7,0.8-2.2,1.2-3.8h-8.4c-0.8,0-1.5,0.1-2.3,0.3l-0.2-1.3
		c0.9,0.2,1.6,0.3,2.5,0.3h8.4c0.4-1.7,0.5-2.6,0.6-4.5c5.4,0.7,5.9,0.9,5.9,1.3c0,0.4-0.4,0.6-1.7,0.9c-0.3,1-0.3,1.4-0.5,2.2h7.8
		c1.2-1.4,1.5-1.8,2.7-3c1.8,1.4,2.3,1.8,4,3.2c0.1,0.1,0.2,0.2,0.2,0.3s-0.1,0.2-0.4,0.2h-14.6c-0.6,1.9-0.9,2.8-1.3,3.8h8.2
		c0.9-1,1.6-1.9,2.4-2.7c1.7,1.3,2.2,1.7,4,3c0.1,0.1,0.2,0.2,0.2,0.3s-0.1,0.2-0.4,0.2h-10.5V203.3z M432.977,208.4
		c-0.8,1.2-1.5,2.1-2.4,3c0.8,0.5,0.9,0.6,1.8,1.2h9.8c0.6-0.7,0.8-0.9,1.3-1.4c-0.8-1-1.3-1.7-1.9-2.8H432.977z M442.377,213.4
		h-10.3v4.7h10.3V213.4z M432.077,218.8v5.4h10.3v-5.4H432.077z M435.777,203.3c-0.7,1.6-1.3,2.8-2.3,4.3h7.5
		c-0.8-1.4-1-2.1-1.8-4.3H435.777z"/>
	<path fill="#211E1E" d="M475.177,204.3h0.5c0.8-1,1.1-1.3,1.9-2.4c1.2,1.1,1.6,1.4,2.7,2.6c0.1,0.2,0.2,0.3,0.2,0.4
		c0,0.1-0.1,0.2-0.4,0.2h-4.8v3.3c0.2,0.1,0.3,0.2,0.4,0.2c2.8,1.3,4.4,2.7,4.4,4.1c0,1.4-1,3-2,3c-0.5,0-0.7-0.3-0.9-1.6
		c-0.3-1.8-0.9-3.4-1.9-4.9v7.3c0,5.4,0,5.4,0,9.5c0,0.8-0.4,0.9-2.7,0.9c-1,0-1.2-0.1-1.2-0.8c0.3-7.1,0.3-7.7,0.3-10.5v-3.5
		c-1.7,3.2-2.8,4.6-5.5,7.3l-0.3-0.3c2.6-4.6,4.2-8.9,5.3-14h-2.8c-0.8,0-1.3,0-2,0.2l-0.2-1.3c0.8,0.3,1.4,0.3,2.2,0.3h3.3v-5.1
		c-1.8,0.3-2.7,0.4-5.2,0.5l-0.1-0.4c3.3-1.1,4.7-1.7,7-3c2.2-1.2,2.7-1.6,3.8-2.6c3.4,2.4,4.1,3,4.1,3.3c0,0.2-0.3,0.4-0.5,0.4
		c-0.4,0-0.9-0.1-1.4-0.2c-1.9,0.6-2.5,0.8-4,1.2v5.9H475.177z M489.977,199.1c0,5,0.2,7.6,0.7,10c1.7-2.6,2-3.1,2.7-4.6
		c0.9-1.8,1.3-2.6,1.7-4c2.1,1.2,4,2.2,4.4,2.6c0.2,0.1,0.3,0.3,0.3,0.4c0,0.4-0.4,0.5-1.7,0.6c-2.7,2.8-4.5,4.4-7.1,6.2
		c0.7,2.6,1.8,4.6,3.2,6.6c1.6,2,3.1,3.1,6,4.5v0.4c-1.3,0.7-1.7,1.2-2.8,3.8c-0.1,0.2-0.2,0.3-0.3,0.3c-0.7,0-2.9-2.4-4-4.4
		c-1.2-2.1-2.2-4.9-2.8-8.2c-0.3-1.7-0.5-3.2-0.9-6.4c-0.4,4.1-0.7,5.9-1.5,8.4c-1.2,3.4-3.1,6-5.8,8.2c-1.7,1.3-3.1,1.9-5.9,3.1
		l-0.2-0.4c3.6-2.6,5.4-4.6,7-7.7c2.2-4.2,3-9.4,3-18.4c0-2.9,0-3.6-0.2-5.9c5.2,0.5,5.7,0.6,5.7,1.1c0,0.3-0.4,0.5-1.5,0.9
		L489.977,199.1L489.977,199.1z M482.677,201.1c0.5,2,0.7,3.2,0.7,4.8c0,3.1-1.1,5.4-2.6,5.4c-1.1,0-2.2-1.2-2.2-2.5
		c0-0.6,0.1-0.9,0.8-1.4c1.9-1.6,2.7-3.4,2.8-6.2h0.5V201.1z"/>
	<path fill="#211E1E" d="M527.777,207.4v0.4c-0.9,0.4-1.3,0.6-1.8,0.8v6.9c0,0.3,0,1.2,0,2.7c0,1.3,0,1.5,0,3.8c0,1.4-0.3,2-1,2.7
		c-0.8,0.7-2.3,1.3-3.4,1.3c-0.3,0-0.4-0.1-0.5-0.6c-0.1-0.7-0.4-1.3-0.8-1.7c-0.5-0.5-1.2-0.8-3.1-1.2v-0.4c1,0,1,0,2.6,0
		c1.1,0,1.1,0,2.1,0c0.5,0,0.6-0.2,0.6-0.6v-11.9c-0.7,0.2-0.7,0.2-1.5,0.5v9.6c0,0.6-0.2,0.7-1.3,0.8c-0.4,0-0.6,0-0.7,0h-0.1
		c-0.4,0-0.5-0.2-0.5-0.6c0.1-2.4,0.1-3.1,0.1-4.6v-4.6l-1.5,0.4c-0.2,4.2-0.5,6.1-1.2,8.3c-0.9,2.9-2.2,4.9-4.6,7.2l-0.4-0.2
		c1.3-2.5,1.9-4.4,2.4-7.6c0.3-2.1,0.4-3.6,0.4-6.8l-0.8,0.2c-0.2,1-0.3,1.3-0.5,1.3c-0.4,0-0.6-0.7-1.6-4.4c1.5,0,1.7,0,3-0.1
		c0-3.2,0-3.2,0-4.7c0-4.3,0-5.7-0.2-7.5c1.7,0.8,2.3,1.1,3.9,2h0.4c0.4-2.2,0.5-3.2,0.5-5.1c4,0.7,5.1,1,5.1,1.4
		c0,0.3-0.3,0.4-1.6,0.7c-1.2,1.5-1.6,2-2.6,3h2.9c0.7-0.8,0.9-1,1.7-1.8c1,0.7,1.4,0.9,2.4,1.7c0.3,0.2,0.4,0.4,0.4,0.5
		c0,0.2,0,0.2-0.9,0.9v7.3L527.777,207.4z M522.577,199.8h-5.3v2.4c0,2.7,0,5.4-0.1,6.7c1.7-0.2,3.3-0.4,5.4-0.7L522.577,199.8
		L522.577,199.8z M518.277,201c2.3,1.5,3.5,2.9,3.5,4.1c0,1.1-1,2.4-1.8,2.4c-0.4,0-0.6-0.3-0.7-1c-0.2-2.6-0.5-3.7-1.3-5.1
		L518.277,201z M536.477,205.7c0.8-0.9,1-1.2,1.9-2.1c1.3,0.9,1.6,1.2,2.8,2.1c0.3,0.3,0.4,0.4,0.4,0.6c0,0.3-0.2,0.4-1.2,1.1v14.8
		c0,0.6,0,0.6,0.7,0.6s0.7,0,0.9-0.4c0.3-0.6,0.7-2.4,1.7-7.2h0.4v5.9c0,1,0,1.1,0.5,1.3c0.9,0.4,1.1,0.7,1.1,1.6
		c0,1-0.5,1.8-1.6,2.1c-0.5,0.1-2,0.2-4,0.2c-2.7,0-3.5-0.5-3.5-2.6l0.1-5.9v-11.3h-3.7c-0.1,8.6-0.7,12.3-2.5,15.3
		c-1.4,2.2-3.1,3.8-6.3,5.5l-0.2-0.3c2.4-2.1,3.6-4.2,4.4-7.6c0.6-2.7,0.9-6.6,0.9-12.1c0-1,0-2-0.1-3.6c1.9,0.8,2.4,1,4.2,2
		L536.477,205.7L536.477,205.7z M538.777,200.8c1-1.3,1.4-1.7,2.5-3c1.7,1.3,2.2,1.7,3.9,3.1c0.1,0.1,0.2,0.2,0.2,0.3
		c0,0.2-0.2,0.3-0.4,0.3h-15.6c-0.9,0-1.3,0-2.3,0.1l-0.3-1.2c1.3,0.2,1.9,0.3,2.7,0.3h3.1v-3.5c0-1.3,0-1.8-0.1-3
		c5.4,0.5,5.6,0.6,5.6,1s-0.4,0.6-1.4,0.9v4.6h2.1V200.8z"/>
	<path fill="#211E1E" d="M571.677,199.7c-0.1,1.7-0.1,2-0.4,3c-0.8,3.8-3.1,6.4-7,7.9c-1.7,0.7-3.5,1.1-6.4,1.6l-0.2-0.5
		c4.5-1.5,7.1-3.4,8.7-6.3c0.9-1.8,1.3-3.4,1.4-5.8h-5c0,0.1,0,0.3,0,0.3c0,1.5-0.4,3.2-0.9,4c-0.6,1.1-1.5,1.7-2.5,1.7
		c-1.1,0-2-1.1-2-2.4c0-0.9,0.3-1.3,1.3-1.9c1.3-0.7,1.9-1.2,2.4-2s0.7-1.5,0.9-2.9h0.4c0.3,1.1,0.3,1.5,0.4,2.4h8.6v-2.4
		c0-1.3,0-1.6-0.2-2.7c5.2,0.4,6,0.5,6,1.1c0,0.4-0.3,0.6-1.7,0.9v3.1h8.1c0.9-1,1.2-1.3,2.1-2.2c1.8,1.2,2.3,1.6,4,3
		c0.3,0.3,0.4,0.4,0.4,0.6c0,0.1-0.1,0.3-0.1,0.3c-0.1,0.1-0.5,0.2-0.9,0.2h-0.8c-0.3,0-0.5,0.1-0.8,0.1c-1.8,1.3-2.7,1.8-5,3.2
		l-0.3-0.1c0.9-1.7,1.1-2.3,1.7-4.4h-4.9v6.3c0,0.8,0.2,0.9,3.1,0.9c2.9,0,3.3-0.1,3.7-0.7c0.3-0.4,0.8-1.6,1.8-4h0.4l-0.1,3.2v0.5
		c0,0.4,0.1,0.4,0.7,0.7c0.8,0.3,1,0.7,1,1.3c0,0.8-0.5,1.4-1.3,1.6c-0.9,0.3-3.2,0.4-6.7,0.4c-3.7,0-4.8-0.1-5.6-0.6
		c-0.5-0.4-0.8-1-0.8-2.1v-7.6h-3.5V199.7z M575.477,224.4h7c1.3-1.5,1.7-1.9,3.1-3.3c1.8,1.4,2.4,1.9,4.2,3.5
		c0.1,0.1,0.2,0.3,0.2,0.4c0,0.1-0.1,0.3-0.4,0.3h-28.6c-0.9,0-1.6,0.1-3.1,0.3l-0.4-1.4c1.8,0.3,2.8,0.4,3.8,0.4h10.1V215h-7.8
		c-0.6,0-1,0.1-2.6,0.3l-0.3-1.4c1.4,0.2,2.4,0.3,3.2,0.3h16.6c1.1-1.4,1.5-1.8,2.7-3.1c1.9,1.4,2.4,1.9,4.3,3.3
		c0.1,0.1,0.2,0.2,0.2,0.3s-0.1,0.3-0.3,0.3h-11.6v9.4H575.477z"/>
	<path fill="#211E1E" d="M610.277,225.1c0,0.8-0.5,1-3,1c-1.3,0-1.5-0.1-1.5-0.9c0.2-6.4,0.3-10.3,0.3-18.5c0-7.4,0-9.1-0.2-12.2
		c2.2,0.9,2.8,1.3,4.8,2.4h13.7c1-1,1.3-1.4,2.3-2.4c1.4,1,1.9,1.4,3.2,2.4c0.4,0.3,0.5,0.5,0.5,0.7c0,0.3-0.3,0.6-1.4,1.2v5.8
		c0,10.8,0,13.1,0.3,20.2c0,0.4-0.1,0.6-0.3,0.8c-0.3,0.3-1.4,0.4-2.7,0.4c-1.2,0-1.5-0.1-1.5-0.7v-0.1V223h-14.4v2.1H610.277z
		 M624.777,197.7h-14.4V209h14.4V197.7z M610.277,209.8v12.4h14.4v-12.4H610.277z"/>
	<path fill="#211E1E" d="M663.277,202.3c0.8,1.9,1.1,2.5,1.8,3.6c2.2,3.2,5.1,6,8.7,8.1c1.7,1,2.6,1.4,4.8,2.2v0.4
		c-1.1,0.4-1.7,0.9-2.2,1.7c-0.3,0.4-0.6,1.2-0.8,1.6c-0.1,0.4-0.3,0.5-0.4,0.5c-0.2,0-0.5-0.2-1.4-0.9c-3.2-2.4-5.5-4.9-7.6-8.6
		c-1.5-2.6-2.3-4.5-3.3-7.9l0.1,14.9h1.8c0.8-1,1.5-2,2.3-2.9c1.7,1.3,2.2,1.7,3.7,3.1c0.1,0.1,0.2,0.3,0.2,0.3
		c0,0.1-0.2,0.2-0.4,0.2h-7.6c0.1,5.5,0.1,5.5,0.2,7.4c0,0.8-0.3,0.9-2.8,0.9c-1.3,0-1.5-0.1-1.5-0.8c0.1-2.7,0.1-3.3,0.2-7.5h-4.7
		c-1,0-1.5,0-2.2,0.2l-0.2-1.2c0.9,0.2,1.6,0.3,2.4,0.3h4.7l0.1-10.7c-2.3,3.7-4.1,5.9-7.2,8.5c-2.6,2.1-4.7,3.5-8,5.2l-0.3-0.4
		c4.2-3.6,6.7-6.4,9.5-10.5c1.7-2.6,3.3-5.4,4.3-7.9h-9.6c-0.9,0-1.7,0.1-2.5,0.3l-0.2-1.3c1,0.2,1.9,0.3,2.7,0.3h11.1v-4
		c0-1.8,0-2.3-0.2-3.7c1.2,0.1,2.1,0.2,2.7,0.3c2.4,0.3,2.9,0.4,2.9,0.8c0,0.4-0.4,0.6-1.5,0.9v5.7h7.7c1.2-1.4,1.5-1.9,2.7-3.2
		c1.8,1.4,2.4,1.9,4.2,3.5c0.1,0.1,0.2,0.2,0.2,0.3s-0.2,0.2-0.4,0.2h-14V202.3z"/>
</g>
</svg>
