<?xml version="1.0" encoding="UTF-8"?>
<svg width="31px" height="23px" viewBox="0 0 31 23" version="1.1" xmlns="http://www.w3.org/2000/svg" xmlns:xlink="http://www.w3.org/1999/xlink">
    <!-- Generator: Sketch 49.1 (51147) - http://www.bohemiancoding.com/sketch -->
    <title>ir_aero_eng_s</title>
    <desc>Created with Sketch.</desc>
    <defs>
        <polygon id="path-1" points="3.4055411 0.171829096 3.4055411 4.07599845 0.121887026 4.07599845 0.121887026 0.171829096"></polygon>
    </defs>
    <g id="AVIA" stroke="none" stroke-width="1" fill="none" fill-rule="evenodd">
        <g id="ir_aero_eng_s">
            <g id="Group-3" transform="translate(0.000000, 0.093531)" fill="#35519D">
                <path d="M2.12328767e-05,9.13727559 L27.6350349,0.116158651 C27.6350349,0.116158651 8.33753493,10.6176221 14.051939,22.2292929 L2.12328767e-05,9.13727559 Z" id="Fill-1"></path>
            </g>
            <polygon id="Fill-4" fill="#FFFFFF" points="10.6015329 7.68110873 9.62885479 12.9001742 10.5690466 12.9001742 11.509026 7.71319444"></polygon>
            <path d="M12.1251616,9.1220506 L11.4442233,12.9001951 L12.3196548,12.9001951 L12.7086411,10.819028 C12.7086411,10.819028 12.9354082,9.8583442 13.907874,9.95439161 L14.3295589,9.0899649 C14.3295589,9.0899649 13.5549836,8.89514383 12.7734014,9.69833508 L12.8706479,9.0899649 L12.1251616,9.1220506 Z" id="Fill-6" fill="#FFFFFF"></path>
            <path d="M25.4570938,9.1220506 L24.7763678,12.9001951 L25.651587,12.9001951 L26.0405733,10.819028 C26.0405733,10.819028 26.2673404,9.8583442 27.2398062,9.95439161 L27.6614911,9.0899649 C27.6614911,9.0899649 26.8869158,8.89514383 26.1055459,9.69833508 L26.2027925,9.0899649 L25.4570938,9.1220506 Z" id="Fill-8" fill="#35519D"></path>
            <path d="M18.1721788,10.8529802 L19.2053705,8.70135035 L19.5684527,10.8529802 L18.1721788,10.8529802 Z M19.9037199,7.68068931 L18.8422884,7.7083711 L16.3287404,12.8668302 L17.2782747,12.8668302 L17.864939,11.6804978 L19.6245075,11.7079699 L19.8200623,12.8668302 L20.6576993,12.8668302 L19.9037199,7.68068931 Z" id="Fill-10" fill="#35519D"></path>
            <path d="M23.7306699,10.6711192 L22.2872589,10.6711192 C22.2872589,10.6711192 22.4237863,9.76202416 23.0716014,9.75069979 C24.0196493,9.73434238 23.7306699,10.6711192 23.7306699,10.6711192 M23.1994233,9.0324413 C23.1994233,9.0324413 21.6073822,8.97728744 21.3838,11.1012355 C21.1606425,13.2253932 23.1433685,12.9217324 23.1433685,12.9217324 C23.1433685,12.9217324 24.1209301,12.6459631 24.2886699,11.9564349 L23.5903205,11.7632915 C23.5903205,11.7632915 23.3196014,12.2181536 22.8108616,12.2577889 C22.2545603,12.301199 22.173663,11.2943788 22.173663,11.2943788 L24.4001425,11.2943788 C24.4001425,11.2943788 24.9587795,9.3635742 23.1994233,9.0324413" id="Fill-12" fill="#35519D"></path>
            <g id="Group-16" transform="translate(27.390411, 8.901372)">
                <mask id="mask-2" fill="white">
                    <use xlink:href="#path-1"></use>
                </mask>
                <g id="Clip-15"></g>
                <path d="M2.69893219,2.34011762 C2.55030205,2.96799088 2.01098699,3.38028174 1.4943911,3.26095646 C0.977795205,3.14163118 0.679685616,2.53577752 0.828315753,1.90769455 C0.977158219,1.27982129 1.51668562,0.867740141 2.03306918,0.987065421 C2.54966507,1.1063907 2.84777466,1.71224436 2.69893219,2.34011762 M2.21800753,0.206522909 C1.3468226,0.00520082061 0.437418493,0.700600866 0.18644589,1.75942922 C-0.0645267123,2.81825758 0.438480137,3.83996718 1.30945274,4.04128926 C2.18063767,4.24261135 3.09025411,3.54763073 3.34101438,2.48859266 C3.59198699,1.42955459 3.08919247,0.407844997 2.21800753,0.206522909" id="Fill-14" fill="#35519D" mask="url(#mask-2)"></path>
            </g>
            <path d="M16.7673692,15.5145302 C16.7355199,15.5269031 16.7011226,15.5363401 16.6648144,15.5428411 C16.6282938,15.5493421 16.5673555,15.5562626 16.4815747,15.5636025 C16.3488692,15.5751365 16.2554445,15.5896066 16.200876,15.6072222 C16.1463075,15.6248379 16.1053281,15.6529391 16.077513,15.6915259 C16.0499103,15.7299029 16.0361089,15.7724741 16.0361089,15.8192396 C16.0361089,15.8815236 16.0579788,15.932693 16.1021432,15.9729574 C16.1460952,16.0130121 16.2089445,16.0331443 16.2902664,16.0331443 C16.3656432,16.0331443 16.4382596,16.0136412 16.5079034,15.9746351 C16.5775473,15.9358386 16.6325404,15.8815236 16.6730952,15.8118997 C16.7132253,15.7422758 16.7448623,15.6430827 16.7673692,15.5145302 M16.6830747,16.0134315 C16.6040884,16.0797 16.5280747,16.1283529 16.4550336,16.1589706 C16.3822048,16.189798 16.3040678,16.2051069 16.2210473,16.2051069 C16.0976842,16.2051069 15.9983144,16.1696658 15.9227253,16.0987837 C15.8471363,16.0279015 15.8093418,15.9373066 15.8093418,15.8265794 C15.8093418,15.7538099 15.8263281,15.6892191 15.860513,15.6330166 C15.8944856,15.5770239 15.9397116,15.5319362 15.9957664,15.4979631 C16.0520336,15.46399 16.1208281,15.4396636 16.20215,15.4247741 C16.2533212,15.4149177 16.3505678,15.4071584 16.4936774,15.4014962 C16.6365747,15.3958341 16.7391295,15.3809446 16.8013418,15.3572473 C16.8189651,15.296641 16.8276705,15.2463105 16.8276705,15.206046 C16.8276705,15.1544573 16.8083486,15.1139831 16.7699171,15.084414 C16.7170473,15.0435204 16.6397596,15.0229688 16.5382664,15.0229688 C16.4427185,15.0229688 16.3643692,15.0437301 16.3034308,15.0850431 C16.2424925,15.1263561 16.1983281,15.1852847 16.1707253,15.2614096 L15.9403486,15.2416968 C15.9872733,15.1123054 16.0618007,15.0131124 16.1637185,14.9443273 C16.2658486,14.8755423 16.3943075,14.8411498 16.5497322,14.8411498 C16.714924,14.8411498 16.8457185,14.8797365 16.9423281,14.9567003 C17.0162185,15.0139512 17.0531637,15.0886082 17.0531637,15.1802517 C17.0531637,15.2498755 17.0425473,15.3306141 17.0215267,15.4224673 L16.947424,15.7466797 C16.9238555,15.850067 16.9121774,15.9339512 16.9121774,15.9987518 C16.9121774,16.0396453 16.9213075,16.098574 16.9397801,16.1755377 L16.7096158,16.1755377 C16.696876,16.1329665 16.6879582,16.0788612 16.6830747,16.0134315" id="Fill-17" fill="#35519D"></path>
            <path d="M17.5389295,14.6261336 L17.5930733,14.3742713 L17.8196281,14.3742713 L17.7654842,14.6261336 L17.5389295,14.6261336 Z M17.2066349,16.1756845 L17.4860596,14.870656 L17.7138884,14.870656 L17.4344637,16.1756845 L17.2066349,16.1756845 Z" id="Fill-19" fill="#35519D"></path>
            <path d="M17.788161,16.1756216 L18.0673733,14.8705931 L18.2690856,14.8705931 L18.2121815,15.1373449 C18.280976,15.0364741 18.3484966,14.9620269 18.4143185,14.9135838 C18.4801404,14.8653504 18.5474486,14.8412336 18.6162432,14.8412336 C18.6616815,14.8412336 18.717524,14.8571716 18.7835582,14.8890476 L18.6905582,15.0956125 C18.6510651,15.067721 18.6079623,15.0536704 18.5610377,15.0536704 C18.4812021,15.0536704 18.3994555,15.0970805 18.3153733,15.1839006 C18.2317158,15.2709305 18.1656815,15.4269551 18.1179075,15.6521842 L18.0047363,16.1756216 L17.788161,16.1756216 Z" id="Fill-21" fill="#35519D"></path>
            <polygon id="Fill-23" fill="#35519D" points="18.6289829 16.1756216 19.0139349 14.3742083 19.241976 14.3742083 18.8568116 16.1756216"></polygon>
            <path d="M19.5427822,14.6261336 L19.596926,14.3742713 L19.8234808,14.3742713 L19.769337,14.6261336 L19.5427822,14.6261336 Z M19.2104877,16.1756845 L19.4899123,14.870656 L19.7177411,14.870656 L19.4383164,16.1756845 L19.2104877,16.1756845 Z" id="Fill-25" fill="#35519D"></path>
            <path d="M19.7920137,16.1756216 L20.071226,14.8705931 L20.2778219,14.8705931 L20.228774,15.0979193 C20.3183767,15.0087923 20.4024589,14.9435724 20.4803836,14.9026788 C20.5585205,14.8615756 20.6381438,14.8412336 20.7196781,14.8412336 C20.8279658,14.8412336 20.9126849,14.8697543 20.9744726,14.927215 C21.0360479,14.9844659 21.0670479,15.06122 21.0670479,15.1570577 C21.0670479,15.2052911 21.0560068,15.281416 21.0343493,15.3854324 L20.8644863,16.1756216 L20.6366575,16.1756216 L20.8139521,15.3487331 C20.8315753,15.268414 20.8402808,15.2090659 20.8402808,15.1704791 C20.8402808,15.1270691 20.8249932,15.0918377 20.7946301,15.064785 C20.7638425,15.0377324 20.7196781,15.0243109 20.6617123,15.0243109 C20.5451438,15.0243109 20.4413151,15.0652045 20.350226,15.1472013 C20.259137,15.2289884 20.1922534,15.3694944 20.1495753,15.5685097 L20.0198425,16.1756216 L19.7920137,16.1756216 Z" id="Fill-27" fill="#35519D"></path>
            <path d="M21.5453822,15.4088571 L22.2955397,15.4088571 C22.296389,15.3859986 22.2968137,15.3696412 22.2968137,15.3597848 C22.2968137,15.2482188 22.2681493,15.1628667 22.2112452,15.1035186 C22.1541288,15.0441705 22.080663,15.0143916 21.9910603,15.0143916 C21.8936014,15.0143916 21.8048479,15.0471065 21.7248,15.1127458 C21.6445397,15.1781755 21.5848753,15.2769492 21.5453822,15.4088571 M22.2074233,15.732021 L22.4288822,15.7540406 C22.3970329,15.8614124 22.3237795,15.9635414 22.2093342,16.0600082 C22.0946767,16.1566848 21.9581493,16.2051279 21.7995397,16.2051279 C21.7003822,16.2051279 21.6097178,16.1826889 21.5271219,16.1382302 C21.4443137,16.0935619 21.3814644,16.0285516 21.3381493,15.9434092 C21.2950466,15.8582667 21.273389,15.7611707 21.273389,15.6521213 C21.273389,15.5095181 21.3071493,15.3713189 21.3746699,15.2375236 C21.4424027,15.1035186 21.5298822,15.0039061 21.6373205,14.9388958 C21.7445466,14.8736759 21.8606904,14.8411707 21.9857521,14.8411707 C22.145211,14.8411707 22.2726082,14.8894041 22.3679438,14.9860807 C22.4630671,15.0827572 22.5108411,15.2146651 22.5108411,15.3818044 C22.5108411,15.4457661 22.5048959,15.5111958 22.4932178,15.5785129 L21.5088616,15.5785129 C21.5054644,15.6038879 21.5037658,15.6267463 21.5037658,15.6472979 C21.5037658,15.7693494 21.5324301,15.8624609 21.5899712,15.926842 C21.6473,15.9910134 21.7177932,16.0233089 21.8008137,16.0233089 C21.8787384,16.0233089 21.9558137,15.9983533 22.0311904,15.9482325 C22.1067795,15.8983214 22.1653822,15.826181 22.2074233,15.732021" id="Fill-29" fill="#35519D"></path>
            <path d="M22.6806404,15.7295674 L22.9084692,15.7161459 C22.9084692,15.7798979 22.9184486,15.8344226 22.9386199,15.8795104 C22.9590034,15.9245981 22.9959486,15.9612975 23.0500925,15.9900278 C23.1042363,16.0187581 23.1672979,16.0330185 23.2394897,16.0330185 C23.3401336,16.0330185 23.4157226,16.0135154 23.4660445,15.9740898 C23.5165788,15.9348739 23.5416336,15.8885279 23.5416336,15.8352615 C23.5416336,15.7966747 23.5263459,15.7601851 23.4964075,15.7257926 C23.4651952,15.6914 23.3896062,15.6490385 23.2690034,15.598708 C23.148613,15.5483775 23.07175,15.5129364 23.0382021,15.4923848 C22.9819349,15.4588311 22.9394692,15.4194055 22.9110171,15.3738983 C22.8823527,15.3283912 22.8681267,15.2761732 22.8681267,15.2172446 C22.8681267,15.1138573 22.9101678,15.0255692 22.9940377,14.9517511 C23.0779075,14.877933 23.1955377,14.8412336 23.3465034,14.8412336 C23.5144555,14.8412336 23.6420651,14.8789815 23.7297568,14.9548967 C23.8174486,15.0306022 23.862887,15.1304244 23.8662842,15.2539439 L23.6435514,15.2688334 C23.6403664,15.1901919 23.6117021,15.1279079 23.5579829,15.0819813 C23.5042637,15.0360547 23.42825,15.0131963 23.3301541,15.0131963 C23.2513801,15.0131963 23.1898048,15.0308119 23.1462774,15.0660433 C23.10275,15.1012747 23.0808801,15.139442 23.0808801,15.1803355 C23.0808801,15.2212291 23.0997774,15.2572993 23.1373596,15.2883364 C23.162839,15.3097269 23.2275993,15.3424418 23.3324897,15.3866907 C23.5072363,15.4605088 23.6170103,15.5185986 23.6624486,15.5611698 C23.7346404,15.629116 23.7707363,15.7119517 23.7707363,15.8094671 C23.7707363,15.8740579 23.7503527,15.9376002 23.7095856,15.9998842 C23.6688185,16.0621682 23.6068185,16.1118696 23.5233733,16.1491981 C23.4397158,16.1865266 23.3414075,16.2051908 23.2282363,16.2051908 C23.0738733,16.2051908 22.9424418,16.1678623 22.8343664,16.0932054 C22.7260788,16.0187581 22.6749075,15.8975455 22.6806404,15.7295674" id="Fill-31" fill="#35519D"></path>
        </g>
    </g>
</svg>