<?xml version="1.0" encoding="utf-8"?>
<!-- Generator: Adobe Illustrator 22.1.0, SVG Export Plug-In . SVG Version: 6.00 Build 0)  -->
<svg version="1.1" id="Слой_1" xmlns="http://www.w3.org/2000/svg" xmlns:xlink="http://www.w3.org/1999/xlink" x="0px" y="0px"
	 width="282.696px" height="104.158px" viewBox="0 0 282.696 104.158" enable-background="new 0 0 282.696 104.158"
	 xml:space="preserve">
<g>
	<path fill="#016CB6" d="M238.538,85.324c-0.15-5.319,4.222-9.555,9.442-9.465c5.509,0.096,9.428,4.017,9.445,9.512
		c0.017,5.212-4.027,9.314-9.429,9.419C242.973,94.888,238.285,90.575,238.538,85.324z"/>
	<path fill="#016CB6" d="M247.899,44.154c-4.966,0.276-9.513-4.303-9.411-9.499c0.097-4.958,4.031-9.449,9.48-9.4
		c5.56,0.049,9.479,4.17,9.46,9.595C257.411,40.035,253.218,44.321,247.899,44.154z"/>
	<path fill="#016CB6" d="M197.475,50.607c5.179-0.048,9.585,4.244,9.361,9.787c-0.206,5.108-4.049,9.1-9.475,9.122
		c-5.233,0.021-9.531-4.141-9.452-9.665C187.983,54.683,192.232,50.479,197.475,50.607z"/>
	<path fill="#A41580" d="M273.249,69.367c-5.271,0.308-9.49-4.205-9.475-9.309c0.017-5.302,4.163-9.468,9.495-9.46
		c5.198,0.008,9.393,4.172,9.416,9.425C282.709,65.203,278.415,69.674,273.249,69.367z"/>
	<path fill="#A41580" d="M197.41,25.395c5.076-0.226,9.435,3.995,9.418,9.358c-0.017,5.289-4.093,9.362-9.404,9.413
		c-5.216,0.049-9.549-4.171-9.511-9.46C187.949,29.75,191.964,25.15,197.41,25.395z"/>
	<path fill="#A41580" d="M213.326,9.403c-0.293-5.108,4.15-9.449,9.382-9.394c5.215,0.055,9.35,4.118,9.384,9.449
		c0.033,5.211-4.169,9.47-9.496,9.459C217.534,18.905,212.994,14.697,213.326,9.403z"/>
	<path fill="#A41580" d="M232.081,85.376c0.017,5.166-4.082,9.402-9.545,9.395c-4.678-0.006-9.469-3.958-9.269-9.84
		c0.159-4.682,4.01-9.081,9.395-9.073C228.009,75.866,232.144,80.132,232.081,85.376z"/>
	<path fill="#FED901" d="M213.327,34.81c-0.442-5.075,4.337-9.791,9.358-9.412c4.861-0.338,9.452,4.105,9.425,9.35
		c-0.026,5.154-4.262,9.356-9.394,9.455C217.976,44.296,212.933,39.973,213.327,34.81z"/>
	<path fill="#FED901" d="M257.295,60.056c0.36,4.932-4.3,9.815-9.579,9.307c-4.835,0.333-9.348-4.508-9.227-9.438
		c0.124-5.081,4.304-9.342,9.504-9.344C253.158,50.579,257.642,55.104,257.295,60.056z"/>
	<path fill="#02B5D6" d="M257.288,9.492c0.258,5.098-4.089,9.386-9.328,9.423c-5.419,0.038-9.5-4.591-9.455-9.572
		c0.044-4.903,4.249-9.359,9.4-9.343C253.203,0.016,257.573,4.336,257.288,9.492z"/>
	<path fill="#02B5D6" d="M273.242,25.403c5.048-0.291,9.483,4.125,9.453,9.438c-0.03,5.285-4.699,9.414-9.561,9.348
		c-4.987-0.068-9.429-4.259-9.358-9.494C263.848,29.495,268.002,25.161,273.242,25.403z"/>
	<path fill="#01B5D6" d="M213.335,59.955c-0.347-4.68,3.948-9.418,9.412-9.359c5.101,0.055,9.365,4.276,9.35,9.497
		c-0.015,5.168-4.511,9.699-9.631,9.265C217.75,69.716,212.865,65.039,213.335,59.955z"/>
	<path fill="#01B5D6" d="M172.1,25.403c5.016-0.285,9.426,4.369,9.412,9.392c-0.014,4.868-4.213,9.47-9.573,9.377
		c-4.982-0.086-9.376-4.198-9.273-9.789C162.751,29.738,167.027,25.1,172.1,25.403z"/>
	<g>
		<path fill="#162D69" d="M187.868,95.755c2.442,0,4.789,0,7.28,0c-1.261,2.84-2.474,5.572-3.715,8.369c-0.393,0-0.786,0-1.178,0
			c-6.477,0-12.955,0.019-19.432-0.008c-2.746-0.011-5.366-0.681-7.882-1.763c-2.602-1.118-4.791-2.806-6.58-4.98
			c-1.515-1.841-2.557-3.962-3.227-6.247c-0.733-2.5-0.925-5.08-0.704-7.656c0.319-3.726,1.641-7.122,3.998-10.031
			c1.425-1.759,3.126-3.245,5.149-4.364c1.948-1.079,3.985-1.893,6.15-2.312c1.354-0.262,2.762-0.269,4.149-0.331
			c3.129-0.139,6.116,0.536,8.952,1.804c1.509,0.674,2.882,1.609,4.194,2.638c2.2,1.726,3.762,3.926,4.939,6.417
			c0.931,1.97,1.536,4.036,1.587,6.24c0.011,0.466,0.205,0.936,0.174,1.394c-0.132,1.921-0.248,3.845-0.921,5.687
			c-0.6,1.642-1.332,3.191-2.552,4.475C188.099,95.242,188.026,95.47,187.868,95.755z M162.918,85.217
			c-0.282,5.157,4.289,9.391,9.045,9.382c4.688-0.009,9.157-3.83,9.233-9.165c0.081-5.683-4.756-9.329-8.949-9.45
			C167.266,75.84,162.683,80.253,162.918,85.217z"/>
		<path fill="#162D69" d="M35.479,95.773c2.473,0,4.82,0,7.305,0c-1.261,2.849-2.474,5.589-3.696,8.351c-0.462,0-0.858,0-1.253,0
			c-6.44,0-12.879,0.016-19.319-0.006c-2.791-0.01-5.445-0.699-8-1.797c-2.407-1.034-4.47-2.551-6.162-4.536
			c-1.968-2.308-3.284-4.958-3.871-7.95c-0.329-1.675-0.54-3.365-0.47-5.074c0.092-2.254,0.474-4.455,1.317-6.563
			c0.981-2.454,2.384-4.623,4.306-6.447c2.542-2.413,5.551-3.947,8.935-4.807c2.466-0.627,4.983-0.678,7.468-0.432
			c3.905,0.387,7.435,1.8,10.538,4.299c3.172,2.554,5.146,5.841,6.186,9.696c0.514,1.906,0.76,3.905,0.552,5.888
			c-0.273,2.591-0.821,5.122-2.359,7.317C36.504,94.357,36.039,94.993,35.479,95.773z M19.637,75.853
			c-2.558,0.116-4.834,1.051-6.666,2.962c-1.745,1.821-2.615,4.082-2.575,6.535c0.042,2.575,0.962,4.931,2.901,6.767
			c1.794,1.7,3.984,2.681,6.403,2.585c5.469-0.216,9.226-4.098,9.23-9.407C28.932,79.951,25.081,76.131,19.637,75.853z"/>
		<path fill="#162D69" d="M115.671,104.098c5.341-12.355,10.635-24.601,15.939-36.869c2.647,0,5.277,0,7.961,0
			c5.326,12.243,10.659,24.503,16.032,36.854c-3.823,0-7.494,0-11.277,0c-1.174-2.247-1.864-4.797-3.061-7.135
			c-3.854,0-7.687,0-11.599,0c-0.935,2.365-1.881,4.759-2.826,7.151C123.13,104.098,119.46,104.098,115.671,104.098z M135.516,82.25
			c-0.603,0.621-2.456,5.328-2.496,6.273c1.624,0,3.246,0,4.967,0C137.15,86.4,136.34,84.344,135.516,82.25z"/>
		<path fill="#162D69" d="M58.163,67.207c2.668,0,5.265,0,7.944,0c5.323,12.24,10.658,24.51,16.03,36.863c-3.801,0-7.506,0-11.337,0
			c-0.952-2.316-1.93-4.695-2.92-7.102c-3.894,0-7.759,0-11.679,0c-0.931,2.355-1.863,4.714-2.812,7.115c-3.683,0-7.384,0-11.163,0
			C47.547,91.772,52.838,79.529,58.163,67.207z M64.477,88.496c-0.807-2.524-2.181-5.729-2.707-6.224
			c-0.799,2.063-1.584,4.092-2.41,6.224C61.158,88.496,62.813,88.496,64.477,88.496z"/>
		<path fill="#162D69" d="M97.27,95.959c6.185,0,12.37,0,18.701,0c-0.383,1.526-1.113,2.806-1.671,4.148
			c-0.553,1.331-1.13,2.652-1.697,3.978c-9.39,0-18.694,0-28.058,0c0-2.862,0-5.725,0-8.689c5.455-6.5,10.984-13.087,16.625-19.808
			c-5.412,0-10.637,0-15.927,0c0-2.808,0-5.544,0-8.337c9.455,0,18.912,0,28.431,0c0,2.765,0,5.548,0,8.451
			c-5.465,6.606-11.012,13.311-16.559,20.016C97.167,95.799,97.219,95.879,97.27,95.959z"/>
		<path fill="#162D69" d="M209.735,100.897c0,1.022,0,2.05,0,3.119c-0.617,0.224-1.206,0.037-1.844,0.142c0-2.821,0-5.559,0-8.386
			c1.461,0.049,2.91-0.167,4.368,0.18c1.054,0.251,1.745,0.695,1.998,2.026c0.197,1.04-0.387,2.019-1.444,2.563
			c-0.069,0.035-0.131,0.083-0.304,0.195c0.61,1.066,1.225,2.14,1.89,3.302c-0.744,0.159-1.407,0.063-2.098,0.084
			c-0.445-0.868-0.888-1.736-1.336-2.602C210.718,101.044,210.448,100.602,209.735,100.897z M209.578,99.332
			c0.594,0,1.071,0.019,1.545-0.008c0.226-0.013,0.46-0.085,0.668-0.18c0.641-0.292,0.775-0.734,0.398-1.315
			c-0.104-0.16-0.279-0.274-0.432-0.42c-0.742,0.047-1.486-0.127-2.18,0.091C209.578,98.13,209.578,98.677,209.578,99.332z"/>
		<path fill="#162D69" d="M203.241,104.118c-0.752,0-1.349,0-2.02,0c-0.223-0.494-0.46-1.02-0.729-1.616c-1.038,0-2.144,0-3.336,0
			c-0.182,0.472-0.387,1.006-0.606,1.574c-0.646,0-1.263,0-2.012,0c1.209-2.804,2.379-5.516,3.57-8.276c0.445,0,0.914,0,1.51,0
			C200.792,98.493,202,101.267,203.241,104.118z M199.952,100.944c-0.397-0.943-0.732-1.739-1.162-2.758
			c-0.41,1.043-0.73,1.856-1.084,2.758C198.491,100.944,199.148,100.944,199.952,100.944z"/>
		<path fill="#162D69" d="M204.306,95.772c0.608,0,1.158,0,1.772,0c0,2.757,0,5.493,0,8.313c-0.274,0.014-0.579,0.034-0.884,0.043
			c-0.276,0.008-0.551,0.002-0.887,0.002C204.306,101.353,204.306,98.617,204.306,95.772z"/>
	</g>
	<path fill="#FDD801" d="M162.918,85.217c-0.234-4.964,4.349-9.377,9.329-9.233c4.194,0.121,9.03,3.767,8.949,9.45
		c-0.076,5.334-4.545,9.156-9.233,9.165C167.206,94.608,162.636,90.374,162.918,85.217z"/>
</g>
</svg>
