<?xml version="1.0" encoding="utf-8"?>
<!-- Generator: Adobe Illustrator 22.1.0, SVG Export Plug-In . SVG Version: 6.00 Build 0)  -->
<svg version="1.1" id="Слой_1" xmlns="http://www.w3.org/2000/svg" xmlns:xlink="http://www.w3.org/1999/xlink" x="0px" y="0px"
	 width="61.2px" height="23px" viewBox="0 0 61.2 23" style="enable-background:new 0 0 61.2 23;" xml:space="preserve">
<style type="text/css">
	.st0{fill:#233B7B;}
	.st1{fill:#0FA5DE;}
	.st2{fill:#66CAE4;}
	.st3{fill:#ACDCE3;}
</style>
<g>
	<rect y="7" class="st0" width="35.5" height="0.2"/>
	<rect y="19.8" class="st0" width="35.5" height="0.2"/>
	<path class="st0" d="M56.7,16.4c-1.2,3.6-4.6,6.2-8.6,6.2c-5,0-9.1-4.1-9.1-9.1c0-5,4.1-9.1,9.1-9.1c1.5,0,3,0.4,4.2,1l0.3-0.3
		c-1.3-0.7-2.9-1.2-4.6-1.2c-5.2,0-9.5,4.2-9.5,9.5c0,5.2,4.2,9.5,9.5,9.5c4.2,0,7.8-2.8,9-6.6L56.7,16.4z"/>
	<path class="st1" d="M42.1,16.5c5.5-0.5,10.9-1.3,16.2-2.7c-0.1,0.4-0.2,0.7-0.2,1.1C51.2,16.4,46.4,16.6,42.1,16.5"/>
	<path class="st1" d="M42.9,15.9c5.1-0.8,10.3-2.1,15.7-3.9c-0.1,0.4-0.2,0.7-0.2,1.1C52.5,15,47.4,15.9,42.9,15.9"/>
	<path class="st2" d="M43.8,15.3c5-1.2,10.1-3,15.3-5.1c-0.1,0.4-0.2,0.7-0.2,1.2C53.3,13.5,48.3,14.9,43.8,15.3"/>
	<path class="st3" d="M44.6,14.6c5-1.5,10-3.9,15-6.6c-0.1,0.5-0.2,0.9-0.3,1.4C53.4,12.3,48.3,14.2,44.6,14.6"/>
	<path class="st2" d="M45.7,13.9c5.7-2.7,10.3-5.6,14.5-8.5C60,6,59.9,6.5,59.8,7C55.1,10,50.4,12.5,45.7,13.9"/>
	<path class="st1" d="M46.5,13c5.6-3.5,10.4-7.1,14.3-10.8c-0.1,0.6-0.3,1.2-0.4,1.9C55.8,8.1,51,10.9,46.5,13"/>
	<path class="st1" d="M61.2,0c-0.5,0-1.1,0-1.6,0c-2,2.4-3.9,4.5-5.9,6.4c-2.2,2.1-4.3,3.9-6.5,5.7C52,8.9,56.7,5.3,61.2,0"/>
	<path class="st0" d="M2.1,15.5L1,17.6c-0.2,0.5-1.1,0.2-0.9-0.4l4.1-8c0.1-0.2,0.3-0.2,0.4-0.2C4.8,8.9,5,9,5,9.1l4.1,8
		c0.3,0.6-0.7,0.9-0.9,0.4l-1-2.1H2.1z M4.6,10.4l-2.2,4.2h4.2L4.6,10.4z"/>
	<path class="st0" d="M11.6,16.8h5.8c0.6,0,0.7,0.9,0,0.9h-6.7c-0.5,0-0.7-0.4-0.4-0.8l6-6.9h-5.5c-0.6,0-0.6-0.8,0-0.9h6.4
		c0.6,0,0.7,0.4,0.4,0.8L11.6,16.8z"/>
	<path class="st0" d="M20.5,15.5l-1.1,2.1c-0.2,0.5-1.1,0.2-0.9-0.4l4.1-8c0.1-0.2,0.3-0.2,0.4-0.2c0.2,0,0.3,0.1,0.4,0.2l4.1,8
		c0.3,0.6-0.7,0.9-0.9,0.4l-1.1-2.1L20.5,15.5L20.5,15.5z M23,10.4l-2.1,4.2h4.2L23,10.4z"/>
	<path class="st0" d="M29.5,17.7c-0.4,0-0.5-0.2-0.5-0.5V9.5c0-0.6,1-0.6,1,0v7.4h5c0.7,0,0.7,0.9,0,0.9H29.5z"/>
</g>
</svg>
