<?xml version="1.0" encoding="utf-8"?>
<!-- Generator: Adobe Illustrator 22.1.0, SVG Export Plug-In . SVG Version: 6.00 Build 0)  -->
<svg version="1.1"
	 id="svg6848" xmlns:cc="http://creativecommons.org/ns#" xmlns:dc="http://purl.org/dc/elements/1.1/" xmlns:rdf="http://www.w3.org/1999/02/22-rdf-syntax-ns#" xmlns:svg="http://www.w3.org/2000/svg"
	 xmlns="http://www.w3.org/2000/svg" xmlns:xlink="http://www.w3.org/1999/xlink" x="0px" y="0px" width="117.848px"
	 height="55.411px" viewBox="0 0 117.848 55.411" style="enable-background:new 0 0 117.848 55.411;" xml:space="preserve">
<g>
	<path id="path6890" style="fill:#FFFFFF;" d="M4.358,37.066l-3.776-4.893c0,0-2.322-3.24,2.324-7.774c0,0,1.772-2.16,6.077-1.832
		c0,0-0.254-3.976,4.646-7.104c0,0,6.524-3.263,10.455,6.344c0,0,0.834,2.77,0.343,6.74c0,0-0.112,1.481-1.325,1.571
		c0,0-1.378,0.179-1.46-1.654c0,0,0.901-4.601-2.457-7.461c0,0-2.874-2.77-5.109,0.536c0,0-1.921,2.949,2.079,7.596
		c0,0,1.214,1.608-0.164,3.037c0,0-0.977,1.251-2.785-0.089l-3.605-3.701c0,0-1.661-1.526-2.703-0.164c0,0-1.341,1.095-0.508,2.614
		L9.34,34.69c0,0,0.895,2.071-0.356,2.95c0,0-2.056,1.816-3.932-0.083L4.358,37.066z"/>
	<path id="path6894" style="fill:#FFFFFF;" d="M43.926,30.029L41.96,29.85c-3.752-0.536-0.82-5.987-0.82-5.987
		c0.611-1.98-1.146-3.305-1.146-3.305l-0.446-0.448c-4.2-5.242-9.465-1.429-9.465-1.429c-6.248,5.54-2.688,10.991-2.688,10.991
		c2.881,4.071,7.849,1.905,7.849,1.905c0.789-0.418,1.621,0.245,1.621,0.245c1.967,2.421,4.604,2.294,4.604,2.294
		c3.113,0.246,4.245-1.675,4.245-1.675C46.845,30.192,43.926,30.029,43.926,30.029 M35.735,24.667l-1.638,2.68
		c0,0-0.991,1.43-2.504,0.269c0,0-1.175-0.939,0.09-2.346l2.145-2.211C33.829,23.059,35.98,22.166,35.735,24.667"/>
	<path id="path6898" style="fill:#FFFFFF;" d="M47.615,14.927c0,0,7.602-2.502,11.876,3.037c0,0,1.415,1.251,0.789,5.184
		l-1.199,5.234c0,0-1.265,1.854-2.106-0.081l0.089-5.325c0,0-0.222-3.179-4.044-3.604c0,0-2.865-0.328-2.947,2.949v4.847
		c0,0-0.335,1.378-2.034,1.378c0,0-2.055-0.194-2.144-1.735l-0.626-6.434c0,0-2.285-4.667,1.34-5.54L47.615,14.927z"/>
	<path id="path6902" style="fill:#FFFFFF;" d="M78.156,24.49c0.089-1.699-1.377-1.84-1.377-1.84l-0.083-1.199l-0.081-0.625
		c-0.246-2.056-2.784-2.234-2.784-2.234c-10.941-0.619-11.305,6.165-11.305,6.165c-0.173,9.205,8.518,8.042,8.518,8.042
		c1.467,0.09,0.5,1.974,0.5,1.974c-3.217,6.889-11.968,6.516-11.968,6.516c-3.03,0.179-0.737,1.757-0.737,1.757
		c2.041,1.131,3.769,1.191,3.769,1.191c6.389,0,8.519-2.234,8.519-2.234C79.109,36.285,78.156,24.49,78.156,24.49 M70.383,28.712
		c0,0-3.039-0.365-3.129-2.785c0,0,0.269-1.705,3.299-1.705l0.491,0.089c0,0,2.704,0,2.621,2.324
		C73.665,26.635,73.956,29.448,70.383,28.712"/>
	<path id="path6906" style="fill:#FFFFFF;" d="M80.305,25.025c0,0-0.805-5.094,8.846-10.009c0,0,4.469-3.216,8.044-0.267
		c0,0,1.25,1.347,2.77,1.675c0,0,11.795,4.774,4.646,17.091c0,0-4.825,6.322-14.566,5.182C90.045,38.697,78.786,37.64,80.305,25.025
		"/>
	<path id="path6914" style="fill:#231F20;" d="M4.357,37.068l-3.776-4.894c0,0-2.324-3.24,2.324-7.775c0,0,1.772-2.16,6.077-1.831
		c0,0-0.252-3.977,4.648-7.106c0,0,6.524-3.261,10.456,6.346c0,0,0.834,2.77,0.342,6.739c0,0-0.111,1.483-1.325,1.573
		c0,0-1.378,0.179-1.46-1.653c0,0,0.901-4.604-2.457-7.464c0,0-2.876-2.771-5.11,0.536c0,0-1.921,2.95,2.079,7.598
		c0,0,1.214,1.608-0.164,3.037c0,0-0.976,1.251-2.785-0.089L9.6,28.384c0,0-1.661-1.528-2.703-0.165c0,0-1.341,1.096-0.508,2.615
		l2.95,3.858c0,0,0.894,2.071-0.358,2.95c0,0-2.055,1.816-3.933-0.083L4.357,37.068z"/>
	<path id="path6918" style="fill:#231F20;" d="M43.927,30.029l-1.966-0.179c-3.752-0.536-0.82-5.987-0.82-5.987
		c0.612-1.981-1.145-3.308-1.145-3.308l-0.447-0.446c-4.201-5.242-9.466-1.43-9.466-1.43c-6.249,5.541-2.688,10.994-2.688,10.994
		c2.881,4.072,7.849,1.905,7.849,1.905c0.79-0.416,1.622,0.246,1.622,0.246c1.967,2.42,4.604,2.294,4.604,2.294
		c3.112,0.245,4.245-1.676,4.245-1.676C46.846,30.193,43.927,30.029,43.927,30.029 M35.734,24.668l-1.639,2.68
		c0,0-0.991,1.43-2.502,0.269c0,0-1.177-0.939,0.09-2.346l2.145-2.212C33.828,23.058,35.981,22.164,35.734,24.668"/>
	<path id="path6922" style="fill:#231F20;" d="M47.614,14.926c0,0,7.605-2.502,11.879,3.039c0,0,1.415,1.251,0.79,5.182l-1.2,5.236
		c0,0-1.265,1.855-2.108-0.081l0.09-5.325c0,0-0.222-3.181-4.045-3.605c0,0-2.865-0.329-2.948,2.949v4.85
		c0,0-0.335,1.376-2.035,1.376c0,0-2.055-0.194-2.144-1.735l-0.626-6.435c0,0-2.285-4.669,1.341-5.541L47.614,14.926z"/>
	<path id="path6926" style="fill:#231F20;" d="M78.157,24.488c0.09-1.699-1.377-1.84-1.377-1.84l-0.081-1.199l-0.082-0.626
		c-0.246-2.055-2.784-2.234-2.784-2.234c-10.944-0.618-11.306,6.166-11.306,6.166c-0.173,9.206,8.518,8.044,8.518,8.044
		c1.469,0.09,0.5,1.974,0.5,1.974c-3.217,6.89-11.968,6.518-11.968,6.518c-3.031,0.179-0.737,1.757-0.737,1.757
		c2.041,1.132,3.768,1.191,3.768,1.191c6.391,0,8.521-2.234,8.521-2.234C79.111,36.286,78.157,24.488,78.157,24.488 M70.382,28.711
		c0,0-3.039-0.364-3.129-2.785c0,0,0.269-1.705,3.299-1.705l0.491,0.089c0,0,2.705,0,2.622,2.324
		C73.666,26.633,73.957,29.448,70.382,28.711"/>
	<path id="path6930" style="fill:#231F20;" d="M80.043,25.025c0,0-0.805-5.095,8.848-10.01c0,0,4.469-3.218,8.044-0.267
		c0,0,1.251,1.348,2.77,1.675c0,0,11.798,4.774,4.647,17.094c0,0-4.826,6.322-14.569,5.182
		C89.783,38.698,78.523,37.641,80.043,25.025"/>
	<path id="path6934" style="fill:#BDDE15;" d="M96.428,19.781l-3.604-0.164c-5.095-0.246-7.703,3.799-7.703,3.799l-0.164,0.446
		c-0.984,1.966-0.894,3.486-0.894,3.486c0.357,8.059,9.66,7.775,9.66,7.775c8.356,0.35,9.288-6.33,9.288-6.33
		C104.531,21.3,96.428,19.781,96.428,19.781 M99.794,27.259c0,0-0.99,4.059-6.642,5.541c0,0-1.535,1.072-4.618-1.876
		c0,0-3.985-4.38,1.749-8.849l0.41-0.267c0,0,2.309-1.289,3.56,1.169l0.716,0.081h0.715C95.684,23.058,100.456,21.629,99.794,27.259
		"/>
	<g id="g6936" transform="matrix(1.25,0,0,-1.25,964.88532,133.06429)">
		<path id="path6938" style="fill:#BDDE15;" d="M-715.083,97.574v0.655l0.417,0.43l0.5,0.429l0.572,0.357l0.476,0.143h0.883
			l0.857-0.072l0.489-0.286l0.328-0.357l0.399-0.501l0.357-0.601l0.143-0.471v-0.572l-0.429-0.5l-0.536-0.554l-0.607-0.131h-0.859
			h-0.631l-0.655,0.131l-0.501,0.268l-0.357,0.286l-0.429,0.429L-715.083,97.574z"/>
	</g>
	<g id="g6940" transform="matrix(1.25,0,0,-1.25,972.91382,129.54079)">
		<path id="path6942" style="fill:#BDDE15;" d="M-715.083,97.574v0.625l0.196,0.572l0.525,0.429l0.852,0.34l0.572,0.13l0.477-0.065
			l0.392-0.405l0.417-0.5l0.072-0.572l-0.357-0.751l-0.524-0.607l-0.549-0.429h-0.714l-0.704,0.285l-0.393,0.555L-715.083,97.574z"
			/>
	</g>
	<g id="g6944" transform="matrix(1.25,0,0,-1.25,992.30832,126.16704)">
		<path id="path6946" style="fill:#BDDE15;" d="M-715.083,97.574l0.411-0.143l0.661-0.066l0.572,0.138l0.572,0.285l0.422,0.358
			l0.329,0.5l0.262,0.62v0.882l-0.328,0.571l-0.613,0.215h-0.644h-0.644l-0.459-0.215l-0.47-0.357l-0.428-0.429l-0.287-0.536
			l-0.072-0.537v-0.571l0.43-0.286L-715.083,97.574z"/>
	</g>
	<g id="g6948" transform="matrix(1.25,0,0,-1.25,1002.2434,135.84967)">
		<path id="path6950" style="fill:#BDDE15;" d="M-715.083,97.574l-0.131-0.62l0.131-0.5l0.417-0.429l0.572-0.417l0.781-0.262h0.655
			l0.709,0.065l0.572,0.328l0.488,0.429l0.459,0.643l0.196,0.632l-0.131,0.59l-0.393,0.566l-0.476,0.357l-0.787,0.357l-0.572,0.144
			l-0.655-0.072l-0.632-0.357l-0.429-0.215l-0.571-0.643L-715.083,97.574z"/>
	</g>
	<g id="g6952" transform="matrix(1.25,0,0,-1.25,971.39432,168.29229)">
		<path id="path6954" style="fill:#BDDE15;" d="M-715.083,97.574l0.572-0.262l0.709-0.143h0.524l0.555,0.47l0.571,0.602l0.429,0.643
			l0.072,0.501v0.548l-0.644,0.667l-0.786,0.572l-0.459,0.072l-0.828-0.286l-0.429-0.215l-0.5-0.417l-0.274-0.327l-0.263-0.614
			V98.67v-0.637L-715.083,97.574z"/>
	</g>
	<g id="g6956" transform="matrix(1.25,0,0,-1.25,979.30419,170.58629)">
		<path id="path6958" style="fill:#BDDE15;" d="M-715.083,97.574l0.607-0.262h0.704h0.797l0.715,0.131l0.501,0.274l0.543,0.572
			l0.195,0.572v0.679l-0.457,0.393l-0.495,0.429l-0.573,0.142l-0.833,0.144l-0.459-0.286l-0.351-0.286l-0.501-0.274l-0.328-0.394
			l-0.13-0.333l-0.132-0.429l-0.065-0.5L-715.083,97.574z"/>
	</g>
	<g id="g6960" transform="matrix(1.25,0,0,-1.25,1006.2506,158.25279)">
		<path id="path6962" style="fill:#BDDE15;" d="M-715.083,97.574l0.787-0.071l0.661-0.072l0.554,0.072l0.5,0.214l0.643,0.358
			l0.465,0.428l0.393,0.477l0.286,0.393l0.072,0.703l-0.214,0.572l-0.537,0.495l-0.465,0.525l-0.572,0.339l-0.5,0.214l-0.429,0.072
			h-0.589l-0.554-0.072l-0.429-0.214l-0.429-0.275l-0.489-0.327l-0.262-0.685l-0.197-0.572l0.131-0.644l0.197-0.589l0.197-0.555
			l0.351-0.428L-715.083,97.574z"/>
	</g>
	<g id="g6964" transform="matrix(1.25,0,0,-1.25,990.11869,172.73154)">
		<path id="path6966" style="fill:#BDDE15;" d="M-715.083,97.574l0.065,1.191l0.757,0.882l0.857,0.572l0.68,0.572l0.965,0.334h0.716
			l0.613-0.131l0.673-0.346l0.643-0.643l0.715-0.715l0.459-0.525l0.262-0.619l0.28-0.715v-0.894l-0.411-0.822l-0.59-0.62l-1-0.738
			l-1.096-0.429l-0.978-0.071h-0.787l-0.726,0.142l-0.703,0.429l-0.715,0.667l-0.417,0.691l-0.131,0.686L-715.083,97.574z"/>
	</g>
</g>
</svg>
