<?xml version="1.0" encoding="UTF-8" standalone="no"?>
<!-- Created with Inkscape (http://www.inkscape.org/) -->

<svg
   xmlns:dc="http://purl.org/dc/elements/1.1/"
   xmlns:cc="http://creativecommons.org/ns#"
   xmlns:rdf="http://www.w3.org/1999/02/22-rdf-syntax-ns#"
   xmlns:svg="http://www.w3.org/2000/svg"
   xmlns="http://www.w3.org/2000/svg"
   xmlns:sodipodi="http://sodipodi.sourceforge.net/DTD/sodipodi-0.dtd"
   xmlns:inkscape="http://www.inkscape.org/namespaces/inkscape"
   width="190.44008mm"
   height="61.586029mm"
   viewBox="0 0 674.78768 218.21821"
   id="svg2"
   version="1.1"
   inkscape:version="0.91 r13725"
   sodipodi:docname="fda_logo_kansei.svg">
  <defs
     id="defs4" />
  <sodipodi:namedview
     id="base"
     pagecolor="#ffffff"
     bordercolor="#666666"
     borderopacity="1.0"
     inkscape:pageopacity="0.0"
     inkscape:pageshadow="2"
     inkscape:zoom="0.45254834"
     inkscape:cx="546.76657"
     inkscape:cy="286.28465"
     inkscape:document-units="px"
     inkscape:current-layer="layer1"
     showgrid="false"
     inkscape:window-width="1366"
     inkscape:window-height="706"
     inkscape:window-x="-8"
     inkscape:window-y="-8"
     inkscape:window-maximized="1"
     fit-margin-top="0"
     fit-margin-left="0"
     fit-margin-right="0"
     fit-margin-bottom="0" />
  <metadata
     id="metadata7">
    <rdf:RDF>
      <cc:Work
         rdf:about="">
        <dc:format>image/svg+xml</dc:format>
        <dc:type
           rdf:resource="http://purl.org/dc/dcmitype/StillImage" />
        <dc:title></dc:title>
      </cc:Work>
    </rdf:RDF>
  </metadata>
  <g
     inkscape:label="レイヤー 1"
     inkscape:groupmode="layer"
     id="layer1"
     transform="translate(-14461.467,-5501.8235)">
    <path
       inkscape:connector-curvature="0"
       style="fill:#d7001d;fill-opacity:1"
       d="m 14758.742,5719.9787 c -0.586,-0.1317 -0.749,-0.3424 -0.751,-0.9769 0,-0.5546 0.286,-0.8123 1.959,-1.7452 4.121,-2.2989 7.167,-6.8384 8.263,-12.3173 0.286,-1.4273 3.179,-19.2814 3.179,-19.6168 0,-0.044 0.105,-0.1843 0.232,-0.3117 0.194,-0.1935 0.674,-0.2315 2.936,-0.2315 3.043,0 3.268,0.068 3.107,0.9434 -0.05,0.2508 -0.714,4.4548 -1.485,9.3422 -0.771,4.8875 -1.566,9.5326 -1.766,10.3228 -1.467,5.7895 -3.646,9.2586 -7.43,11.8334 -2.671,1.8177 -6.59,3.1286 -8.244,2.7576 z"
       id="path4253-8" />
    <path
       inkscape:connector-curvature="0"
       style="fill:#fff000;fill-opacity:1"
       d="m 14461.467,5714.9143 c 0,-0.034 1.674,-1.2055 3.719,-2.6033 37.136,-25.3711 67.873,-51.4029 95.474,-80.8585 34.067,-36.3545 62.083,-76.6276 84.871,-122.0005 l 3.015,-6.0028 29.017,0 c 15.958,0 29.016,0.034 29.016,0.076 0,0.1151 -6.236,8.3988 -10.146,13.4756 -11.029,14.3255 -21.391,27.0761 -32.557,40.0665 -5.401,6.2843 -6.249,7.2313 -6.353,7.1088 -0.05,-0.061 -0.586,-9.1268 -1.184,-20.1448 -0.601,-11.0182 -1.11,-19.9337 -1.132,-19.8124 -0.02,0.1214 -0.601,10.6185 -1.284,23.3269 -0.682,12.7084 -1.274,23.1393 -1.314,23.1797 -0.04,0.041 -6.251,0.5797 -13.802,1.198 -8.229,0.6739 -13.557,1.1672 -13.301,1.2312 0.233,0.059 4.966,0.5075 10.515,0.9973 11.468,1.0123 11.637,1.0291 11.637,1.1739 0,0.059 -1.21,1.4254 -2.689,3.0373 -12.578,13.7124 -26.73,28.029 -39.669,40.1294 -36.508,34.1445 -72.756,60.7809 -109.438,80.4214 -3.985,2.1337 -15.019,7.6269 -18.928,9.4235 -4.164,1.9135 -8.497,3.8138 -12.323,5.4041 -2.917,1.2128 -3.144,1.2971 -3.144,1.1723 z"
       id="path4251-4" />
    <path
       inkscape:connector-curvature="0"
       style="fill:#d7001d;fill-opacity:1"
       d="m 14477.82,5714.8615 c 0,-0.058 0.913,-0.5333 2.025,-1.0555 3.486,-1.6363 13.643,-6.7318 17.564,-8.8119 52.906,-28.0639 102.407,-67.5425 151.944,-121.1803 3.13,-3.3904 3.39,-3.6359 3.426,-3.239 0.02,0.2364 0.569,9.5379 1.215,20.6703 0.646,11.1325 1.193,20.2599 1.217,20.2831 0.02,0.023 0.601,-10.233 1.287,-22.7914 0.684,-12.5584 1.279,-22.8853 1.322,-22.9486 0.04,-0.064 6.074,-0.6578 13.407,-1.3211 7.332,-0.663 13.523,-1.2541 13.76,-1.3133 0.262,-0.066 -4.166,-0.4975 -11.416,-1.1126 -6.515,-0.5526 -11.994,-1.049 -12.175,-1.1029 -0.3,-0.089 -0.108,-0.3512 2.119,-2.8965 14.053,-16.0606 28.841,-34.2353 42.402,-52.1088 1.896,-2.5006 3.109,-3.9798 3.134,-3.8248 0.04,0.2628 -14.167,89.0656 -14.365,89.7715 -0.09,0.3133 -1.087,1.0775 -4.605,3.5183 -19.767,13.7195 -38.988,26.3099 -57.108,37.41 l -4.096,2.5092 -0.1,-0.7809 c -0.06,-0.4295 -0.616,-7.2358 -1.252,-15.1252 -0.67,-8.3253 -1.199,-14.1663 -1.26,-13.9202 -0.06,0.2333 -0.644,7.6827 -1.304,16.5541 -0.66,8.8712 -1.21,16.1397 -1.222,16.1518 -0.01,0.011 -5.005,0.5745 -11.097,1.2494 -6.091,0.6751 -11.059,1.2423 -11.042,1.2608 0.04,0.039 14.443,1.6657 14.756,1.6657 0.12,0 0.217,0.058 0.217,0.1301 0,0.2066 -11.482,6.7732 -20.18,11.5411 -40.214,22.0432 -79.021,38.8023 -116.222,50.1932 -1.094,0.3349 -2.071,0.6361 -2.173,0.6694 -0.102,0.033 -0.184,0.014 -0.182,-0.045 z"
       id="path4249-6" />
    <path
       inkscape:connector-curvature="0"
       style="fill:#d7001d;fill-opacity:1"
       d="m 14497.874,5714.3192 c 0.06,-0.056 3.037,-1.0843 6.629,-2.2853 32.308,-10.8007 64.753,-25.3208 99.995,-44.7498 4.461,-2.459 14.262,-8.0167 17.824,-10.1066 1.358,-0.7972 1.402,-0.8115 1.497,-0.4929 0.138,0.466 2.267,26.737 2.173,26.8303 -0.166,0.1659 -14.241,4.4279 -23.556,7.1326 -37.707,10.9491 -72.807,19.051 -99.945,23.0704 -1.944,0.2878 -3.801,0.5639 -4.125,0.6133 -0.324,0.049 -0.545,0.044 -0.492,-0.011 z"
       id="path4247-4" />
    <path
       inkscape:connector-curvature="0"
       style="fill:#d7001d;fill-opacity:1"
       d="m 14530.519,5713.6385 c 0.06,-0.052 0.703,-0.1719 1.433,-0.2678 6.071,-0.7973 18.481,-3.1064 28.282,-5.262 32.317,-7.1088 76.443,-20.0449 119.976,-35.1718 1.741,-0.6049 3.187,-1.0782 3.213,-1.052 0.04,0.04 -6.307,39.8661 -6.367,39.9533 0,0.016 -31.703,0.4277 -70.426,0.9155 -38.724,0.4879 -71.715,0.9077 -73.312,0.9328 -1.599,0.025 -2.858,0.01 -2.799,-0.048 z"
       id="path4245-1" />
    <path
       inkscape:connector-curvature="0"
       style="fill:#d7001d;fill-opacity:1"
       d="m 14745.91,5712.5528 c -2.321,-0.3808 -4.443,-1.3736 -5.39,-2.5211 -0.871,-1.0548 -1.275,-2.1509 -1.349,-3.6595 -0.06,-1.1761 0.123,-2.5464 1.502,-11.2815 1.221,-7.728 1.623,-9.984 1.811,-10.1271 0.288,-0.2205 5.58,-0.2605 5.921,-0.045 0.182,0.1148 0,1.4967 -1.246,9.3148 -1.598,10.0439 -1.707,11.2114 -1.146,12.2731 0.601,1.1383 1.462,1.7105 2.996,1.9914 3.027,0.5545 5.825,-0.8264 6.766,-3.3396 0.186,-0.4987 0.867,-4.4141 1.786,-10.2613 0.864,-5.4948 1.574,-9.5938 1.697,-9.7861 0.201,-0.3179 0.294,-0.3316 2.256,-0.3316 1.127,0 2.152,0.04 2.28,0.089 0.134,0.052 0.234,0.261 0.234,0.4924 0,0.8505 -3.089,19.8695 -3.376,20.7878 -0.97,3.0982 -3.812,5.3678 -7.82,6.2442 -1.538,0.3362 -5.315,0.4234 -6.922,0.1597 z"
       id="path4243-1" />
    <path
       inkscape:connector-curvature="0"
       style="fill:#d7001d;fill-opacity:1"
       d="m 14817.334,5684.5108 c -2.949,-0.01 -7.127,0.2189 -7.528,0.4335 -0.141,0.075 -0.321,0.2586 -0.401,0.4077 -0.08,0.1492 -1.013,5.8649 -2.076,12.7014 -1.062,6.8368 -1.966,12.6019 -2.008,12.8115 -0.06,0.2658 0.03,0.5036 0.273,0.7862 0.335,0.3892 0.436,0.4129 2.628,0.6059 8.401,0.7401 14.676,-0.9509 19.1,-5.1478 2.187,-2.074 3.55,-4.355 4.35,-7.2792 0.252,-0.9219 0.311,-1.5792 0.322,-3.5609 0.01,-2.162 -0.03,-2.5522 -0.332,-3.5315 -0.856,-2.7264 -2.384,-4.6112 -5.043,-6.2202 -2.193,-1.3268 -4.439,-1.8775 -8.113,-1.9895 -0.356,-0.012 -0.751,-0.016 -1.172,-0.018 z m -1.471,3.7997 c 1.052,0.014 3.248,0.2017 3.98,0.376 2.915,0.6951 4.951,2.655 5.685,5.4767 0.314,1.2064 0.279,3.651 -0.08,5.2591 -0.401,1.8146 -1.126,3.2053 -2.379,4.5656 -1.697,1.8412 -3.337,2.8702 -5.676,3.5613 -1.597,0.4718 -5.2,0.705 -5.2,0.3366 0,-0.1149 0.695,-4.5345 1.546,-9.8211 0.85,-5.2869 1.547,-9.6536 1.547,-9.7039 0,-0.04 0.224,-0.055 0.574,-0.051 z"
       id="path4241-6" />
    <path
       inkscape:connector-curvature="0"
       style="fill:#d7001d;fill-opacity:1"
       d="m 14926.91,5712.1671 c -0.142,-0.082 -0.32,-0.2686 -0.399,-0.4148 -0.08,-0.1459 -1.108,-4.3317 -2.288,-9.3018 -1.181,-4.9699 -2.163,-9.0526 -2.182,-9.0726 -0.02,-0.02 -0.685,4.0858 -1.476,9.1241 -1.268,8.0666 -1.476,9.1909 -1.744,9.4179 -0.254,0.2148 -0.605,0.2579 -2.102,0.2579 -1.304,0 -1.874,-0.056 -2.078,-0.2053 -0.273,-0.1994 -0.224,-0.5686 1.762,-13.2204 1.123,-7.1583 2.102,-13.1796 2.176,-13.3804 0.08,-0.2009 0.214,-0.4155 0.311,-0.4767 0.1,-0.061 1.404,-0.1121 2.908,-0.1134 2.042,0 2.801,0.047 3.001,0.1933 0.2,0.1459 0.836,2.4531 2.508,9.0905 2.136,8.4799 2.252,8.8783 2.469,8.5323 0.125,-0.1996 2.166,-3.876 4.536,-8.1699 5.241,-9.4991 5.129,-9.3078 5.592,-9.4996 0.23,-0.096 1.45,-0.1402 3.171,-0.1154 l 2.798,0.039 0.04,0.5156 c 0.02,0.2837 -0.882,6.3448 -2.01,13.4693 -1.706,10.7671 -2.096,12.9864 -2.316,13.1468 -0.382,0.2793 -4.903,0.2735 -5.286,-0.01 -0.262,-0.1924 -0.22,-0.5339 1.152,-9.2291 0.785,-4.9663 1.401,-9.0544 1.37,-9.0848 -0.03,-0.031 -2.269,3.9625 -4.973,8.8732 -2.705,4.9107 -5.093,9.1219 -5.308,9.3583 -0.414,0.4548 -1.118,0.5719 -1.633,0.2716 z"
       id="path4237-9" />
    <path
       inkscape:connector-curvature="0"
       style="fill:#d7001d;fill-opacity:1"
       d="m 14715.749,5712.0803 c -0.101,-0.041 -0.184,-0.296 -0.184,-0.567 0,-0.4554 3.885,-25.3507 4.077,-26.1186 0.05,-0.1881 0.246,-0.4036 0.444,-0.4787 0.393,-0.1495 16.516,-0.1946 16.899,-0.047 0.287,0.1099 0.293,0.7436 0.02,2.2565 -0.128,0.7169 -0.288,1.1611 -0.463,1.2889 -0.209,0.1535 -1.422,0.1951 -5.688,0.1951 -3.995,0 -5.422,0.044 -5.422,0.1697 0,0.1992 -1.005,6.6716 -1.112,7.1587 l -0.08,0.3314 4.648,0 c 4.126,0 4.658,0.026 4.738,0.2358 0.132,0.3429 -0.24,2.726 -0.487,3.1153 l -0.209,0.3315 -4.636,0 c -2.551,0 -4.638,0.04 -4.638,0.089 0,0.049 -0.397,2.605 -0.883,5.6796 -0.486,3.0747 -0.884,5.6527 -0.884,5.729 0,0.076 -0.132,0.2715 -0.294,0.4335 -0.274,0.274 -0.483,0.2936 -2.984,0.2831 -1.478,-0.01 -2.77,-0.045 -2.872,-0.086 z"
       id="path4235-5" />
    <path
       inkscape:connector-curvature="0"
       style="fill:#d7001d;fill-opacity:1"
       d="m 14780.796,5712.0786 c -0.135,-0.036 -0.284,-0.1652 -0.331,-0.2877 -0.05,-0.1226 0.844,-6.1343 1.98,-13.3594 1.84,-11.708 2.099,-13.1645 2.373,-13.3943 0.266,-0.2242 0.646,-0.2579 2.913,-0.2579 1.9,0 2.678,0.052 2.868,0.1905 0.246,0.1796 0.144,0.9294 -1.814,13.321 -1.141,7.2218 -2.115,13.2364 -2.164,13.3655 -0.06,0.1293 -0.211,0.2995 -0.358,0.3783 -0.258,0.1382 -4.968,0.1761 -5.467,0.043 z"
       id="path4233-4" />
    <path
       inkscape:connector-curvature="0"
       style="fill:#d7001d;fill-opacity:1"
       d="m 14834.957,5711.9386 c -0.153,-0.1534 -0.211,-0.3782 -0.16,-0.6261 0.05,-0.2128 0.978,-6.1207 2.078,-13.1286 1.913,-12.1952 2.014,-12.7558 2.367,-13.0732 0.367,-0.3304 0.382,-0.3314 5.573,-0.3314 2.864,0 5.882,0.07 6.709,0.1543 4.302,0.4414 6.569,2.3041 6.874,5.6488 0.33,3.6042 -2.299,6.9101 -6.766,8.5077 -0.739,0.2644 -1.272,0.5345 -1.236,0.6263 0.03,0.088 1.53,2.6726 3.321,5.7416 2.167,3.7106 3.259,5.7197 3.259,5.9974 0,0.6816 -0.313,0.7443 -3.465,0.6942 -2.636,-0.042 -2.884,-0.069 -3.145,-0.3402 -0.155,-0.162 -1.564,-2.7432 -3.129,-5.736 -2.667,-5.1008 -2.849,-5.499 -2.904,-6.361 -0.06,-0.8257 -0.02,-0.9572 0.31,-1.2879 0.208,-0.2078 0.616,-0.4059 0.937,-0.4545 2.656,-0.4027 3.89,-0.8713 4.916,-1.8666 1.439,-1.3974 1.996,-4.1069 1.175,-5.7265 -0.34,-0.6702 -0.658,-0.9475 -1.551,-1.3492 -0.638,-0.2877 -1.041,-0.3372 -3.178,-0.3905 l -2.449,-0.061 -0.09,0.4954 c -0.05,0.2724 -0.855,5.3624 -1.79,11.3109 -0.935,5.9488 -1.74,10.9748 -1.789,11.169 -0.06,0.1944 -0.25,0.4147 -0.448,0.4898 -0.198,0.075 -1.443,0.1365 -2.77,0.1365 -2.027,0 -2.447,-0.038 -2.649,-0.2391 z"
       id="path4231-0" />
    <path
       inkscape:connector-curvature="0"
       style="fill:#d7001d;fill-opacity:1"
       d="m 14862.095,5712.0187 c -0.142,-0.083 -0.258,-0.2961 -0.257,-0.4743 0,-0.1784 0.925,-6.1512 2.054,-13.2729 1.517,-9.5705 2.113,-13.0103 2.287,-13.1838 0.208,-0.2083 1.191,-0.2393 8.752,-0.2749 7.493,-0.036 8.54,-0.014 8.704,0.1847 0.151,0.1818 0.15,0.4956 0,1.6331 -0.106,0.7746 -0.275,1.5201 -0.375,1.6566 -0.162,0.2232 -0.759,0.2558 -5.899,0.322 l -5.718,0.073 -0.6,3.7931 -0.599,3.7931 4.837,0 c 4.139,0 4.849,0.031 4.921,0.2183 0.111,0.2879 -0.361,3.0327 -0.561,3.2753 -0.123,0.1465 -1.236,0.1889 -4.972,0.1889 l -4.813,0 -0.664,4.1981 -0.663,4.1981 5.624,0 c 4.766,0 5.653,0.033 5.805,0.2162 0.139,0.1688 0.141,0.4519 0,1.289 -0.287,1.7752 -0.411,2.1346 -0.777,2.2321 -0.592,0.159 -16.807,0.096 -17.086,-0.067 z"
       id="path4229-5" />
    <path
       inkscape:connector-curvature="0"
       style="fill:#d7001d;fill-opacity:1"
       d="m 14883.422,5711.9816 c -0.239,-0.1772 -0.261,-0.2727 -0.129,-0.5611 0.434,-0.942 15.433,-26.1608 15.692,-26.3833 0.251,-0.2165 0.6,-0.2579 2.175,-0.2579 1.604,0 1.908,0.038 2.097,0.2579 0.233,0.271 7.2,25.9458 7.193,26.5093 0,0.1795 -0.132,0.3949 -0.288,0.4788 -0.168,0.089 -1.417,0.1523 -3.02,0.1523 -2.436,0 -2.764,-0.029 -2.999,-0.2648 -0.161,-0.1611 -0.541,-1.331 -0.966,-2.9829 -0.386,-1.4949 -0.768,-2.9333 -0.851,-3.1966 l -0.152,-0.4788 -3.459,0 c -2.104,0 -3.572,-0.059 -3.745,-0.1525 -0.432,-0.2312 -0.35,-0.6567 0.39,-2.0136 0.454,-0.8321 0.795,-1.2841 1.042,-1.3774 0.2,-0.076 1.393,-0.1393 2.649,-0.1393 2.104,0 2.277,-0.021 2.209,-0.2575 -0.04,-0.1417 -0.518,-2.2132 -1.062,-4.6033 -0.543,-2.3899 -1.029,-4.3898 -1.078,-4.444 -0.06,-0.055 -2.476,4.2347 -5.392,9.531 -2.917,5.2966 -5.416,9.7821 -5.552,9.9679 -0.237,0.3212 -0.355,0.3406 -2.357,0.3838 -1.664,0.036 -2.169,0 -2.397,-0.168 z"
       id="path4227-5" />
    <path
       inkscape:connector-curvature="0"
       style="fill:#d7001d;fill-opacity:1"
       d="m 14956.441,5712.0801 c -0.1,-0.041 -0.183,-0.2217 -0.183,-0.4021 0,-0.3591 15.339,-26.4163 15.726,-26.7146 0.248,-0.1903 3.614,-0.2712 4.067,-0.097 0.123,0.048 0.324,0.3956 0.446,0.7734 0.22,0.6785 6.843,25.1412 6.973,25.7471 0.05,0.2109 -0.05,0.3917 -0.275,0.5524 -0.285,0.1995 -0.791,0.2388 -3.078,0.2388 -1.96,0 -2.809,-0.053 -2.987,-0.184 -0.163,-0.1206 -0.542,-1.3141 -1.096,-3.4605 l -0.848,-3.2766 -3.508,0 c -3.59,0 -4.077,-0.07 -4.077,-0.5725 0,-0.4651 1.356,-2.7837 1.728,-2.9529 0.2,-0.091 1.319,-0.1583 2.639,-0.1583 l 2.292,0 -0.08,-0.3314 c -0.04,-0.1823 -0.525,-2.3038 -1.076,-4.7145 -0.55,-2.4106 -1.049,-4.3328 -1.109,-4.2716 -0.06,0.061 -2.502,4.4529 -5.426,9.7595 -2.924,5.3066 -5.454,9.7642 -5.623,9.9062 -0.261,0.219 -0.606,0.2559 -2.316,0.2461 -1.104,-0.01 -2.092,-0.045 -2.194,-0.086 z"
       id="path4225-3" />
    <path
       inkscape:connector-curvature="0"
       style="fill:#d7001d;fill-opacity:1"
       d="m 14988.333,5712.0187 c -0.142,-0.083 -0.259,-0.3293 -0.264,-0.5481 0,-0.2188 0.908,-6.1967 2.023,-13.2841 1.617,-10.269 2.081,-12.9395 2.289,-13.1469 0.231,-0.2298 0.577,-0.2603 2.968,-0.2603 2.279,0 2.737,0.037 2.898,0.2312 0.161,0.1926 -0.153,2.4257 -1.887,13.44 -1.894,12.0299 -2.108,13.2321 -2.4,13.4681 -0.277,0.2252 -0.65,0.2584 -2.845,0.2546 -1.439,0 -2.635,-0.069 -2.782,-0.1545 z"
       id="path4223-1" />
    <path
       inkscape:connector-curvature="0"
       style="fill:#d7001d;fill-opacity:1"
       d="m 15000.81,5711.9697 c -0.278,-0.203 -0.235,-0.5167 1.808,-13.4308 1.533,-9.6897 2.154,-13.2847 2.324,-13.4545 0.203,-0.2029 0.986,-0.2313 6.376,-0.2313 5.361,0 6.304,0.034 7.396,0.2658 2.493,0.5291 4.037,1.5727 4.891,3.3063 0.393,0.7988 0.481,1.169 0.532,2.2423 0.117,2.4495 -0.451,3.8809 -2.258,5.6903 -0.986,0.9867 -1.455,1.3245 -2.707,1.951 -0.832,0.4168 -1.873,0.8625 -2.313,0.9904 -0.44,0.1277 -0.774,0.2772 -0.743,0.332 0.03,0.055 1.557,2.672 3.39,5.8165 1.833,3.1444 3.332,5.829 3.331,5.9658 0,0.6594 -0.134,0.6887 -3.196,0.7299 -2.135,0.029 -3.008,-0.011 -3.264,-0.1474 -0.467,-0.2504 -6.158,-11.1045 -6.292,-12.0028 -0.185,-1.2341 0.264,-1.8879 1.397,-2.0303 4.083,-0.5144 6.093,-2.2216 6.309,-5.3605 0.09,-1.379 -0.09,-2.0464 -0.797,-2.8253 -0.812,-0.8978 -1.599,-1.0942 -4.387,-1.0942 l -2.353,0 -1.807,11.4895 c -1.623,10.3225 -1.839,11.5161 -2.12,11.7475 -0.271,0.2227 -0.647,0.2577 -2.773,0.2577 -1.886,0 -2.527,-0.048 -2.744,-0.2079 z"
       id="path4221-6" />
    <path
       inkscape:connector-curvature="0"
       style="fill:#d7001d;fill-opacity:1"
       d="m 15027.582,5712.0011 c -0.1,-0.097 -0.177,-0.3126 -0.177,-0.4787 0,-0.1662 0.927,-6.1679 2.058,-13.3373 1.67,-10.5757 2.106,-13.07 2.312,-13.2204 0.39,-0.2852 5.547,-0.2612 5.787,0.026 0.14,0.1674 -0.208,2.6422 -1.644,11.7473 l -1.821,11.5353 5.455,0.073 5.456,0.073 0.06,0.3681 c 0.103,0.707 -0.296,2.8205 -0.587,3.1115 -0.265,0.264 -0.651,0.2767 -8.496,0.2767 -6.197,0 -8.263,-0.043 -8.397,-0.1768 z"
       id="path4219-4" />
    <path
       inkscape:connector-curvature="0"
       style="fill:#d7001d;fill-opacity:1"
       d="m 15049.624,5712.0788 c -0.135,-0.036 -0.283,-0.1635 -0.33,-0.2837 -0.05,-0.1202 0.846,-6.1321 1.982,-13.3594 1.835,-11.6702 2.1,-13.1696 2.371,-13.3985 0.266,-0.2242 0.644,-0.2578 2.913,-0.2578 1.899,0 2.677,0.052 2.867,0.1904 0.245,0.1798 0.143,0.9294 -1.814,13.3212 -1.142,7.2217 -2.115,13.2362 -2.165,13.3655 -0.06,0.1291 -0.21,0.2993 -0.357,0.3781 -0.259,0.1382 -4.968,0.1761 -5.467,0.044 z"
       id="path4217-2" />
    <path
       inkscape:connector-curvature="0"
       style="fill:#d7001d;fill-opacity:1"
       d="m 15061.962,5711.985 c -0.25,-0.1827 -0.157,-0.875 1.818,-13.4414 1.85,-11.7695 2.117,-13.2775 2.388,-13.5064 0.262,-0.2213 0.628,-0.2578 2.582,-0.2578 1.252,0 2.395,0.064 2.539,0.1409 0.146,0.077 2.707,4.0513 5.694,8.8309 2.987,4.7794 5.446,8.6744 5.465,8.6554 0.02,-0.02 0.638,-3.8769 1.376,-8.5731 1.183,-7.5238 1.378,-8.5696 1.649,-8.8004 0.268,-0.2279 0.567,-0.2565 2.311,-0.2209 l 2.004,0.04 0.04,0.5893 c 0.02,0.324 -0.88,6.3824 -2.001,13.4631 -1.725,10.8924 -2.081,12.9048 -2.311,13.0731 -0.19,0.1394 -0.769,0.1993 -1.93,0.1993 -1.513,0 -1.69,-0.029 -2.024,-0.3315 -0.202,-0.1823 -2.982,-4.5258 -6.178,-9.6524 -5.423,-8.6983 -5.818,-9.2885 -5.898,-8.8381 -0.05,0.2654 -0.687,4.3272 -1.417,9.0263 -0.732,4.6989 -1.397,8.7845 -1.478,9.079 -0.185,0.6716 -0.332,0.712 -2.585,0.7145 -1.234,0 -1.857,-0.056 -2.039,-0.1906 z"
       id="path4215-5" />
    <path
       inkscape:connector-curvature="0"
       style="fill:#d7001d;fill-opacity:1"
       d="m 15092.255,5712.0803 c -0.101,-0.041 -0.183,-0.309 -0.183,-0.5958 0,-0.2868 0.894,-6.1713 1.989,-13.0768 1.093,-6.9054 1.987,-12.634 1.987,-12.7303 0,-0.096 0.164,-0.3376 0.362,-0.5365 l 0.362,-0.3615 8.375,0 c 6.67,0 8.428,0.04 8.638,0.1929 0.251,0.1837 0.252,0.2656 0.02,1.7307 -0.164,1.0396 -0.321,1.5978 -0.485,1.7222 -0.185,0.1398 -1.6,0.1842 -5.887,0.1842 -3.55,0 -5.642,0.053 -5.642,0.1428 0,0.1799 -1.004,6.5638 -1.118,7.1117 l -0.09,0.4052 4.857,0 c 4.133,0 4.869,0.032 4.94,0.216 0.09,0.2473 -0.281,2.6369 -0.494,3.1351 l -0.14,0.3314 -4.864,0 c -2.676,0 -4.864,0.034 -4.864,0.075 0,0.1276 -1.176,7.4871 -1.266,7.9145 l -0.08,0.4035 5.72,0.039 5.719,0.039 0.06,0.3682 c 0.03,0.2027 -0.03,0.9517 -0.133,1.6645 -0.145,1.0128 -0.252,1.3429 -0.49,1.5099 -0.259,0.181 -1.592,0.212 -8.705,0.2021 -4.621,-0.01 -8.483,-0.045 -8.585,-0.086 z"
       id="path4213-0" />
    <path
       inkscape:connector-curvature="0"
       style="fill:#d7001d;fill-opacity:1"
       d="m 15114.472,5711.9699 c -0.166,-0.2008 -0.168,-0.4678 0,-1.6 0.303,-2.2015 -0.261,-1.9963 5.634,-2.0521 4.91,-0.046 5.072,-0.057 5.919,-0.3963 2.301,-0.9221 3.237,-3.3309 1.819,-4.6838 -0.263,-0.2529 -2.048,-1.3023 -3.965,-2.3323 -3.642,-1.957 -4.442,-2.5419 -5.416,-3.9564 -1.865,-2.7115 -1.339,-6.7056 1.252,-9.5037 1.347,-1.4559 3.171,-2.2074 6.102,-2.5143 1.746,-0.1826 10.015,-0.1945 10.3,-0.016 0.178,0.1133 0.182,0.3477 0.02,1.6114 -0.103,0.8135 -0.274,1.5979 -0.381,1.7433 -0.177,0.2422 -0.598,0.2707 -5.029,0.3394 -4.23,0.066 -4.91,0.1082 -5.426,0.3393 -1.478,0.663 -2.419,2.4043 -1.995,3.6909 0.267,0.8096 1.049,1.3869 4.207,3.106 3.727,2.0285 4.722,2.6817 5.682,3.7298 2.355,2.5727 2.34,5.9513 -0.04,9.1377 -1.196,1.6015 -3.255,2.6968 -6.011,3.1989 -1.104,0.201 -2.566,0.2697 -6.929,0.326 -4.993,0.065 -5.548,0.049 -5.729,-0.1694 z"
       id="path4211-4" />
    <path
       inkscape:connector-curvature="0"
       style="fill:#d7001d;fill-opacity:1"
       d="m 14626.591,5683.1224 c 0,-0.3298 2.391,-29.791 2.425,-29.8294 0.02,-0.021 4.996,-0.603 11.062,-1.2947 6.065,-0.6915 11.045,-1.2735 11.065,-1.2932 0.02,-0.02 -3.292,-0.4218 -7.36,-0.8933 -4.066,-0.4716 -7.416,-0.8783 -7.444,-0.904 -0.06,-0.056 -0.379,0.1457 5.132,-3.2428 14.593,-8.9711 32.559,-20.6875 47.919,-31.2481 1.938,-1.3319 3.558,-2.3866 3.601,-2.3438 0.07,0.063 -8.18,51.8219 -8.261,51.8801 -0.197,0.1387 -19.28,6.7403 -26.834,9.2825 -10.068,3.3884 -30.748,10.0707 -31.168,10.0707 -0.08,0 -0.135,-0.083 -0.137,-0.184 z"
       id="path4209-9" />
    <path
       inkscape:connector-curvature="0"
       style="fill:#d7001d;fill-opacity:1"
       d="m 14913.11,5501.8243 c -5.37,-0.014 -11.406,0.1656 -18.425,0.5259 -10.315,0.5296 -24.074,1.5629 -25.38,1.906 -2.198,0.5774 -3.288,1.7043 -3.921,4.054 -0.165,0.6076 -3.518,21.985 -7.452,47.5054 -7.879,51.0942 -9.928,64.2547 -13.149,84.4046 -2.451,15.3315 -2.501,15.8234 -1.756,17.3381 0.737,1.5025 2.365,2.6609 4.402,3.1308 1.759,0.4059 16.612,1.6008 27.223,2.1899 l 0,0 c 0.446,0.025 3.694,0.056 7.217,0.072 10.762,0.044 16.1,-0.3743 26.147,-2.0504 8.556,-1.4273 14.527,-2.8762 21.579,-5.2353 11.118,-3.7192 21.917,-9.3055 30.934,-16.0017 10.142,-7.531 18.646,-16.9625 24.517,-27.1918 6.196,-10.7926 9.782,-22.1591 11.229,-35.5916 0.365,-3.3881 0.369,-12.4926 0,-15.6519 -1.89,-16.4835 -8.646,-29.5875 -20.485,-39.73 -11.01,-9.4334 -24.097,-15.3247 -39.933,-17.9775 -6.709,-1.1237 -13.805,-1.6752 -22.755,-1.6962 z m -5.166,21.9717 c 5.01,0 7.916,0.1565 11.34,0.5782 9.1,1.1205 16.574,3.6703 22.737,7.7567 4.462,2.9583 9.003,7.5324 11.58,11.6658 4.499,7.2133 6.728,14.7032 7.222,24.2562 0.434,8.4092 -1.124,19.4175 -3.904,27.5986 -2.614,7.6901 -6.016,13.1901 -12.263,19.8218 -5.037,5.3481 -9.744,9.2577 -15.068,12.5155 -8.984,5.4975 -18.544,8.6664 -30.291,10.0406 -1.542,0.1805 -3.988,0.2549 -10.118,0.3083 l -8.083,0.071 0.104,-0.788 c 0.06,-0.4334 4.193,-26.2088 9.189,-57.2787 l 9.084,-56.4907 6.187,-0.046 c 0.809,-0.01 1.568,-0.01 2.284,-0.01 z"
       id="path4207-7" />
    <path
       inkscape:connector-curvature="0"
       style="fill:#d7001d;fill-opacity:1"
       d="m 14725.77,5661.2099 c -2.227,-0.2414 -2.987,-1.0068 -2.987,-3.0085 0,-0.7456 3.793,-25.1273 11.638,-74.799 6.401,-40.5309 11.741,-74.2561 11.867,-74.9446 0.546,-2.9884 1.806,-4.2895 4.56,-4.7108 0.716,-0.1094 15.356,-0.1448 48.238,-0.1169 46.878,0.039 47.214,0.042 47.79,0.3349 1.426,0.7246 1.496,1.4232 0.677,6.7022 -1.532,9.8645 -1.756,11.0555 -2.261,12.0231 -0.528,1.0123 -1.687,1.692 -3.342,1.9606 -0.648,0.105 -10.819,0.1556 -31.524,0.1563 l -30.568,0 -3.503,22.2796 c -1.927,12.2539 -3.5,22.3293 -3.496,22.3901 0,0.061 11.458,0.1125 25.454,0.1149 15.451,0 25.875,0.06 26.541,0.1466 2.069,0.2688 2.733,0.9322 2.718,2.7173 -0.01,1.3527 -2.212,14.6485 -2.592,15.6671 -0.504,1.3478 -1.389,2.1164 -2.938,2.5551 -0.49,0.1382 -6.744,0.1997 -26.634,0.2614 l -25.995,0.081 -5.276,33.3354 c -3.525,22.268 -5.377,33.614 -5.584,34.1743 -0.426,1.1556 -1.396,2.0881 -2.559,2.4606 -0.836,0.2674 -1.554,0.2821 -15.019,0.3073 -7.778,0.016 -14.62,-0.025 -15.205,-0.088 z"
       id="path4203-2" />
    <path
       inkscape:connector-curvature="0"
       style="fill:#d7001d;fill-opacity:1"
       d="m 14980.732,5661.2068 c -1.121,-0.1631 -1.967,-0.5201 -2.464,-1.0396 -0.626,-0.6538 -0.598,-1.6709 0.07,-2.8693 0.76,-1.3459 87.881,-149.0584 88.656,-150.3134 1.29,-2.0905 2.302,-2.8917 4.084,-3.2355 0.623,-0.1202 3.726,-0.1561 10.674,-0.124 9.684,0.044 9.803,0.049 10.486,0.3638 0.784,0.3627 1.402,1.1223 1.862,2.2925 0.271,0.6882 39.889,147.2293 40.452,149.6266 0.621,2.6447 0.03,4.2966 -1.805,5.0379 l -0.837,0.3387 -14.584,0.043 c -8.576,0.025 -15.167,-0.016 -16.001,-0.098 -2.718,-0.2707 -3.457,-1.0248 -4.457,-4.5497 -0.27,-0.9512 -2.472,-9.3338 -4.894,-18.6282 l -4.403,-16.8992 -20.402,-0.04 c -19.289,-0.039 -20.444,-0.056 -21.192,-0.3094 -1.624,-0.5514 -2.412,-1.7943 -2.078,-3.2796 0.238,-1.0641 0.381,-1.344 4.066,-7.9911 2.208,-3.9842 3.697,-6.507 4.066,-6.893 0.673,-0.7028 1.764,-1.2745 2.883,-1.51 0.541,-0.1141 4.905,-0.1645 14.261,-0.1645 12.77,0 13.477,-0.014 13.407,-0.2576 -0.04,-0.1419 -2.965,-12.8523 -6.496,-28.2453 -3.53,-15.3933 -6.469,-28.107 -6.528,-28.2527 -0.08,-0.1949 -8.323,14.621 -31.262,56.1889 -17.134,31.0492 -31.523,57.0202 -31.974,57.7129 -1.445,2.2129 -2.426,2.8556 -4.723,3.0979 -1.612,0.1697 -19.706,0.1687 -20.875,0 z"
       id="path4199-5" />
  </g>
</svg>
