<?xml version="1.0" encoding="utf-8"?>
<!-- Generator: Adobe Illustrator 15.0.0, SVG Export Plug-In . SVG Version: 6.00 Build 0)  -->
<!DOCTYPE svg PUBLIC "-//W3C//DTD SVG 1.1//EN" "http://www.w3.org/Graphics/SVG/1.1/DTD/svg11.dtd">
<svg version="1.1" id="Ebene_1" xmlns="http://www.w3.org/2000/svg" xmlns:xlink="http://www.w3.org/1999/xlink" x="0px" y="0px"
	 width="370px" height="130px" viewBox="0 0 370 130" enable-background="new 0 0 370 130" xml:space="preserve">
<g>
	<path fill="#C0231E" d="M311.031,14.869h41.279l-25.271,99.48h-33.614l13.356-51.504l-31.464,51.504h-27.944l-5.014-51.477
		l-13.045,51.477h-34.511l21.738-85.024c2.11-8.317,9.573-14.427,18.527-14.456h34.618l4.139,43.549
		c0,0,16.648-29.634,18.906-33.204C296.055,20.015,301.474,14.869,311.031,14.869"/>
	<path fill="#C0231E" d="M30.288,14.898c-10.757,0-16.26,5.435-18.774,14.427L7.236,44.954h34.182L23.816,114.35h34.445
		l17.959-69.396h31.034l21.616-30.056"/>
	<path fill="#C0231E" d="M152.664,53.012c4.757-6.044,5.71-8.251,11.945-8.251l1.754,0.028l-17.587,69.561h34.302l25.468-99.655
		l-39.468-0.044c-18.526,0-29.044,4.026-36.94,14.676l-62.22,84.997h38.992"/>
	<path fill="#014E84" d="M280.119,45.66c-41.285,3.312-85.822,14.953-114.739,44.246C77.517,52.502,15.414,72.354,15.414,72.354
		s39.323-22.544,130.35-0.385c110.007-51.041,206.471-28.187,218.001-24.185C347.352,45.23,312.883,43.041,280.119,45.66"/>
</g>
</svg>
