<?xml version="1.0" encoding="utf-8"?>
<!-- Generator: Adobe Illustrator 22.1.0, SVG Export Plug-In . SVG Version: 6.00 Build 0)  -->
<svg version="1.1" id="Ebene_1" xmlns="http://www.w3.org/2000/svg" xmlns:xlink="http://www.w3.org/1999/xlink" x="0px" y="0px"
	 width="243.848px" height="35.816px" viewBox="0 0 243.848 35.816" style="enable-background:new 0 0 243.848 35.816;"
	 xml:space="preserve">
<g id="g8831">
	<path id="path30" style="fill:#2B438F;" d="M162.302,6.318c1.072,3.5,0.337,7.65-1.948,10.163
		c-3.67,4.122-8.435,5.505-13.305,6.266c0,0,4.813,8.895,6.437,12.79h-13.963c-2.812-5.025-5.348-10.164-7.944-15.301
		c-0.107-0.509-0.491-0.933-0.166-0.933c5.951-0.508,13.581,0.565,17.26-5.222c0.542-0.875,0.648-2.259,0.542-3.247
		c-0.974-3.274-4.221-3.416-6.925-3.528c-15.363,0.254-34.975,28.315-34.975,28.315l-3.899-0.084c0,0,4.365-7.144,6.852-10.417
		c11.143-15.81,26.074-26.593,44.139-24.956C157.56,0.785,160.891,2.676,162.302,6.318"/>
	<path id="path32" style="fill:#2B438F;" d="M197.787,1.208l-24.87,34.413h-16.121c-0.452-0.255,24.448-34.413,24.448-34.413
		H197.787"/>
	<path id="path34" style="fill:#2B438F;" d="M60.828,6.374c-0.542-1.637-1.948-3.021-3.247-4.009
		c-7.465-3.274-16.444-1.017-23.367,1.863C21.125,9.141-0.427,34.52,0.006,35.537c5.194,0.479,16.792,0.196,16.792,0.196
		s4.434-8.779,7.789-11.913c8.331-0.141,16.769-0.763,24.775-0.254l-8.179,11.971c0,0,2.553,0.084,3.633-0.057l12.658-16.063
		C59.961,15.916,62.451,11.259,60.828,6.374z M57.474,11.625c-1.082,3.021-2.487,6.408-5.084,7.792c-7.899,0-15.903,0.396-23.909,0
		c6.384-7.283,14.172-12.421,22.828-14.313c1.945,0,4.003,0,5.516,1.524C57.691,8.011,58.016,10.015,57.474,11.625"/>
	<path id="path36" style="fill:#2B438F;" d="M111.998,8.689c-3.568-6.663-9.952-8.667-16.444-8.667
		c-19.905-0.113-44.895,35.71-44.895,35.71l1.623-0.055h29.967c8.87-0.877,17.093-3.53,23.907-10.052
		C110.267,21.618,113.621,15.465,111.998,8.689z M92.525,25.373c-9.952,7.172-22.717,7.283-35.268,6.521
		c0,0,19.365-21.963,32.563-22.951c3.679-0.142,7.464,0.621,9.086,4.517C99.881,18.739,95.771,22.861,92.525,25.373"/>
	<path id="path158" style="fill:#2B438F;" d="M243.322,6.064c-0.537-1.637-1.947-3.021-3.247-4.037
		c-7.452-3.246-16.431-0.988-23.346,1.892c-13.1,4.883-34.639,30.291-34.215,31.307c5.193,0.48,16.796,0.198,16.796,0.198
		s4.434-8.78,7.793-11.914c8.327-0.141,16.768-0.763,24.757-0.254l-8.187,11.97c0,0,2.569,0.056,3.642-0.056l12.676-16.063
		C242.475,15.605,244.959,10.948,243.322,6.064z M239.991,11.315c-1.101,3.021-2.513,6.408-5.082,7.792
		c-7.904,0-15.922,0.366-23.911,0c6.38-7.284,14.173-12.421,22.811-14.313c1.948,0,4.009,0,5.533,1.524
		C240.189,7.673,240.528,9.706,239.991,11.315"/>
</g>
</svg>
