<svg xmlns="http://www.w3.org/2000/svg" width="199.75" height="40.003" viewBox="101.25 0 199.75 40.003"><g fill="#0F2D53"><path d="M192.431 29.061l1.666-7.951c.332-1.595.842-2.935 1.526-4.013.686-1.078 1.496-1.945 2.428-2.592a9.223 9.223 0 0 1 2.943-1.329 12.622 12.622 0 0 1 3.224-.407c.08 0 .181.003.3.003.121.002 1.135.004 1.213.004 0 0-.618.748-1.037 1.842-.317.835-.339 2.512-.339 2.512l-1.703-.011c-1.276-.007-2.191.272-2.868.838-.679.57-1.146 1.467-1.403 2.693l-1.757 8.407-4.193.004zm12.611-5.806l3.81.004c-.15 1.076.063 1.83.634 2.259.589.504 1.518.757 2.789.757 1.126 0 2.032-.193 2.722-.59a2.76 2.76 0 0 0 1.344-1.721c.313-1.148-1.064-2.08-4.137-2.803l-.093-.052-.406-.108c-1.742-.396-2.863-.812-3.364-1.242-.616-.398-.97-.97-1.051-1.723-.188-.648-.143-1.471.133-2.476.482-1.757 1.478-3.141 2.989-4.142 1.497-.97 3.428-1.449 5.787-1.446 2.215 0 3.782.506 4.709 1.51.927 1.114 1.183 2.567.764 4.361l-2.18-.002c-.835-.004-1.328-.38-1.485-1.135a1.852 1.852 0 0 0-.513-.915c-.526-.465-1.351-.7-2.477-.7-1.089 0-1.925.195-2.505.59a2.742 2.742 0 0 0-1.274 1.664c-.265.972.592 1.689 2.568 2.158.567.181.993.288 1.274.325.593.217 1.116.386 1.574.513.455.128.817.224 1.088.295.45.217.898.433 1.35.647.607.432 1.018.988 1.231 1.67.191.754.164 1.578-.08 2.476-.531 1.937-1.6 3.446-3.201 4.519-1.581 1.002-3.57 1.504-5.968 1.504-2.468-.004-4.179-.527-5.124-1.568-1.059-1.041-1.359-2.586-.908-4.629m16.916 5.782l4.543-16.574c.147-.54.462-.998.946-1.371.483-.38 1.003-.558 1.548-.558l11.649.002-.868 3.171h-9.806l-1.091 3.979 7.3-.003-.341 1.249c-.147.538-.462.997-.949 1.369-.483.379-1.002.558-1.545.558l-5.329-.004-1.305 4.741 9.808.002-.947 3.438h-13.613v.001zm17.116.024l4.547-16.594c.147-.54.462-.995.944-1.371.488-.377 1.012-.565 1.553-.565l7.126.011c2.033 0 3.423.432 4.167 1.293.769.899.92 2.206.447 3.929-.313 1.148-.83 2.1-1.544 2.853-.632.718-1.465 1.236-2.497 1.56.755.288 1.219.718 1.39 1.29.178.541.128 1.453-.155 2.748l-.496 2.205c-.06.217-.121.451-.192.701-.068.25-.113.485-.137.698-.068.646.048 1.062.325 1.243h-4.259a2.853 2.853 0 0 1-.017-1.141c.085-.573.156-.967.218-1.182l.489-1.99c.221-1.08.213-1.848-.018-2.313-.293-.398-.947-.598-1.963-.598l-4.085-.002-1.981 7.226h-3.862v-.001zm6.731-10.456l4.521.004c.979.002 1.76-.196 2.339-.588.579-.396.981-1.004 1.21-1.829.226-.826.154-1.435-.206-1.83-.318-.432-.915-.648-1.785-.648l-4.737-.005-1.342 4.896zm11.819 10.456l4.543-16.577c.146-.537.462-.995.946-1.375.485-.375 1.014-.574 1.557-.574h6.847c1.927.003 3.288.417 4.087 1.206.783.863.973 2.03.568 3.503-.258.931-.671 1.72-1.249 2.366a6.172 6.172 0 0 1-2.085 1.45c.835.396 1.407.954 1.719 1.673.284.679.275 1.577-.028 2.688-.489 1.793-1.455 3.19-2.893 4.197-1.464.969-3.286 1.441-5.464 1.441l-8.548.002zm6.817-11.351l4.41.002c.941 0 1.677-.162 2.201-.481.524-.325.881-.824 1.067-1.506.188-.682.107-1.186-.242-1.51-.284-.286-.952-.432-2.004-.432l-4.359-.003-1.073 3.93zm-2.199 8.015l4.573.007c1.019 0 1.853-.197 2.504-.592.606-.357 1.029-.969 1.264-1.831.235-.86.153-1.487-.245-1.884-.375-.358-1.124-.539-2.247-.539l-4.522-.004-1.327 4.843zm14.261 3.336l4.538-16.562c.148-.54.465-.995.95-1.371.482-.377 1.022-.593 1.567-.593h1.891l-5.078 18.527-3.868-.001zm-85.008-15.227c.087-.522-.017-.981-.31-1.364-.312-.416-.746-.625-1.307-.629l-2.147-.016-.903 4.286a95.373 95.373 0 0 0 4.667-2.277m-.707 3.3a55.024 55.024 0 0 1-4.557 1.801l-2.13 10.125h4.19l2.533-12.026-.036.1zm105.321 4.998h-4.813l4.762-7.845.508 8.361c1.124-.143 2.513.428 3.824.027l-1.14-12.141h-3.004c-.908 0-1.681.448-2.233 1.275L283.07 29.061h4.095l2.259-3.791 7.272-.004.19 3.794h4.103l-.687-7.333c-2.704.481-4.193.405-4.193.405m-120.346 0h-4.815l4.763-7.845.384 6.548c1.126-.139 2.385-.447 3.698-.849l-.889-9.454h-3.007c-.908 0-1.679.448-2.23 1.275L162.725 29.06h4.094l2.259-3.791 7.271-.004.196 3.794h4.099l-.688-7.333c-2.705.482-4.193.406-4.193.406m-50.144 5.685l2.594 2.999 1.666-1.926-3.294-3.814-1.664-1.925-1.543-1.805-1.533 2.038 1.736 2.017-.003.005z"/><path d="M158.887 13.273c-2.359-2.315-4.868-3.435-7.455-3.329-2.057.085-3.734.943-4.867 1.737-.046.03-.086.06-.128.092l-.042.032c-.144.103-.28.206-.404.306l-1.79-1.94c-.438-.515-1.107-1.343-1.279-1.819-.131-.369-.162-.746-.203-.963-.149-.767-.233-2.041-.233-2.041s0-.304-.144-.648l-.178-.444s1.491-.657 2.558-.604l.64.782.021-.775V2.537s-.069-.602-.64-1.057c-.425-.336-.62-.366-1.145-.444-.656-.094-.776.087-1.269-.373L141.878 0l-2.787.011L138 .418s-.601.144-1.008 1.167l-.831 2.629s-.227.87-.274 2.185c-.051 1.32-.027.046-.027.046s-.059 1.968-.293 2.556l-.45 1.551c-.648 1.544-1.307 2.306-1.321 2.322l-2.504 2.901h.002l-.698.81-.698-.81.01-.007-1.537-1.762-.219-.25h-.002l-.768-.881c-.014-.018-.711-.822-1.375-2.453l-.413-1.419c-.234-.588-.293-2.556-.293-2.556s.024 1.274-.027-.046c-.048-1.315-.274-2.185-.274-2.185l-.831-2.629C123.764.564 123.162.42 123.162.42l-1.094-.407L119.281 0l-.45.662c-.491.46-.614.279-1.271.373-.523.078-.72.108-1.144.444-.571.455-.641 1.057-.641 1.057v1.123l.022.775.64-.782c1.067-.053 2.559.604 2.559.604l-.18.444c-.144.345-.144.648-.144.648s-.082 1.274-.233 2.041c-.043.217-.07.593-.203.963-.229.641-1.365 1.922-1.62 2.206l-1.434 1.552c-1.099-.885-3.001-2.068-5.436-2.167-2.586-.107-5.098 1.014-7.456 3.329l-.727.714.545.86c.08.13 2.019 3.13 5.495 3.805 2.254.437 4.708-.247 7.036-1.915l-1.694-1.922c-1.732 1.242-3.301 1.656-4.839 1.368-1.452-.277-2.554-1.188-3.207-1.874 1.564-1.286 3.147-1.906 4.721-1.849 2.755.101 4.688 2.267 4.705 2.283l4.083 4.729 1.662-1.931-3.123-3.615 3.651-4.562 1.49-1.856c.349 1.837 2.019 5.006 2.734 6.112l-4.055 4.727-1.619 1.886h-.002l-.021.029-.017.02h.002l-1.731 2.02c-.904.939-4.052 4.062-7.742 6.05 0 0 1.157.796 2.679.767.913-.011 1.958-.32 2.969-1.275.413-.393 1.015-.93 1.604-1.508 0 0-.276.678.382 1.902.506.941 1.393 1.499 2.592 1.545 1.875.069 3.224-.916 4.163-2.043l-1.346-1.488s-1.22 1.733-2.702.674c-.544-.512-.502-1.377-.502-1.377s-.013-.289.271-.896c1.009-1.716 3.773-5.325 5.413-7.425l1.264-1.602 1.801 2.08.004-.005.709.821-.003.004.04.046-3.157 3.915 1.436 1.608 3.336-3.647.007.009.009-.009 4.077 4.533-.004.005 1.689 1.898v-.003l.602.642.417.465c.928 1.019 2.21 1.858 3.949 1.794 1.201-.046 2.084-.604 2.591-1.545.66-1.227.382-1.902.382-1.902.591.578 1.193 1.115 1.606 1.508 2.686 2.543 5.646.509 5.646.509-3.691-1.988-6.838-5.11-7.744-6.05l-.983-1.151-2.058 2.308c1 1.367.949 2.092.949 2.092s.042.865-.501 1.377c-1.476 1.074-2.782-.771-2.782-.771l-4.094-4.972-.021-.023-2.101-2.593.04-.046-.005-.003 1.559-1.805-.002-.002.941-1.085.413.522 2.675 3.618 1.881-2.236-3.061-3.57-.005.011-.301-.35c.714-1.107 2.385-4.276 2.732-6.112l1.489 1.856 3.65 4.562-.748.865h.002l-3.069 3.556-2.652 3.069-.797.922 1.666 1.924 1.324-1.531.137-.16 1.988-2.297 1.159-1.343 3.618-4.188c.016-.016 1.949-2.181 4.703-2.283 1.573-.057 3.155.563 4.72 1.849-.65.686-1.756 1.597-3.204 1.874-1.539.288-3.123-.137-4.857-1.382l-1.651 1.92c2.328 1.668 4.757 2.368 7.008 1.931 3.479-.675 5.417-3.675 5.497-3.805l.545-.86-.734-.716zm-25.921 19.105l-1.708 2.015.193.228-.005.002 1.037 1.201c.545.668 2.043 2.395 2.274 4.172 0 0 1.48-2.037.354-4.896.002 0-.165-.753-2.145-2.722"/><path d="M131.615 28.526l-2.69 3.112c-2.706 2.523-2.914 3.462-2.914 3.462-1.125 2.862.355 4.896.355 4.896.23-1.775 1.727-3.502 2.273-4.166l1.038-1.205-.005-.004 3.718-4.302.003.003 2.201-2.547-1.644-1.954-2.335 2.705z"/></g></svg>