<?xml version="1.0" encoding="utf-8"?>
<!-- Generator: Adobe Illustrator 22.1.0, SVG Export Plug-In . SVG Version: 6.00 Build 0)  -->
<svg version="1.1" id="Layer_1" xmlns="http://www.w3.org/2000/svg" xmlns:xlink="http://www.w3.org/1999/xlink" x="0px" y="0px"
	 width="586.438px" height="152.487px" viewBox="0 0 586.438 152.487" style="enable-background:new 0 0 586.438 152.487;"
	 xml:space="preserve">
<g>
	<path style="fill:#D35D31;" d="M49.347,78.35c-3.724,3.77-2.623,10.373-2.123,12.236c0.738,2.832,3.109,8.193,9.617,5.763
		c6.518-2.418,4.719-8.641,3.914-10.493C60.092,84.354,53.602,74.037,49.347,78.35"/>
	<path style="fill:#D35D31;" d="M60.968,60.184c-4.514,1.782-4.271,8.052-2.794,12.751c1.491,4.695,4.375,8.177,10.012,6.01
		c5.622-2.173,3.656-9.709,1.781-13.211C68.108,62.225,64.5,58.783,60.968,60.184"/>
	<path style="fill:#D35D31;" d="M76.812,48.161c-3.532,1.184-4.97,5.898-3.318,13.361c1.661,7.448,6.899,9.082,10.988,7.504
		c4.095-1.565,5.666-8.123,2.79-13.983C84.4,49.2,80.406,46.948,76.812,48.161"/>
	<path style="fill:#D35D31;" d="M94.699,45.471c-3.323,1.697-1.957,9.527-0.766,14.402c1.176,4.875,3.108,11.853,9.312,9.848
		c6.203-1.998,6.236-9.169,5.132-12.175C105.61,50.095,98.397,43.582,94.699,45.471"/>
	<path style="fill:#D35D31;" d="M118.784,61.773c-4.561-1.014-5.965,2.833-6.585,7.986c-0.623,5.149,1.538,8.168,5.418,8.765
		c3.879,0.605,5.875-2.672,6.622-6.891C124.992,67.4,122.635,62.628,118.784,61.773"/>
	<path style="fill:#D35D31;" d="M92.923,120.079c13.178-9.102,25.657-16.977,28.108-24.207c1.438-4.234-0.463-10.691-17.687-14.741
		c-4.932-1.159-9.459-5.64-13.392-5.577c-7.575,0.126-11.508,8.033-13.954,11.014c-5.142,6.285-15.697,12.704-13.707,22.337
		C63.886,116.671,80.902,128.379,92.923,120.079"/>
	<path style="fill:#D35D31;" d="M42.895,69.673c0-1.331,1.076-2.41,2.409-2.41c1.328,0,2.409,1.079,2.409,2.41
		s-1.081,2.411-2.409,2.411C43.971,72.085,42.895,71.004,42.895,69.673"/>
	<path style="fill:#D35D31;" d="M52.331,52.003c0-1.326,1.081-2.401,2.414-2.401c1.328,0,2.404,1.075,2.404,2.401
		c0,1.333-1.076,2.41-2.404,2.41C53.412,54.413,52.331,53.336,52.331,52.003"/>
	<path style="fill:#D35D31;" d="M68.585,41.772c0-1.336,1.076-2.411,2.404-2.411c1.343,0,2.414,1.076,2.414,2.411
		c0,1.321-1.071,2.409-2.414,2.409C69.661,44.181,68.585,43.093,68.585,41.772"/>
	<path style="fill:#D35D31;" d="M88.866,38.963c0-1.343,1.071-2.414,2.409-2.414c1.329,0,2.41,1.071,2.41,2.414
		c0,1.323-1.081,2.407-2.41,2.407C89.938,41.37,88.866,40.286,88.866,38.963"/>
	<path style="fill:#D35D31;" d="M115.166,54.617c0-1.329,1.076-2.415,2.409-2.415c1.328,0,2.413,1.086,2.413,2.415
		c0,1.323-1.085,2.406-2.413,2.406C116.242,57.024,115.166,55.94,115.166,54.617"/>
	<path style="fill:#7B002B;" d="M429.825,75.165c-0.176,1.912,0.034,3.033-1.809,3.033l-4.275-0.01c-1.024,0-2.823-0.18-1.947-1.985
		c1.028-2.121,4.422-9.393,6.518-13.909c1.095-2.363,2.685-2.787,2.633-1.599C430.888,61.987,430.312,69.593,429.825,75.165
		 M436.101,89.786l0.98-37.397c0.015-0.655-0.061-1.312-1.053-1.338c-0.823-0.024-3.151-0.097-6.379-0.438
		c-7.345-0.768-12.278-4.428-21.209-2.378c-5.423,1.247-9.836,5.484-10.408,10.442c-0.053,0.393-0.076,0.807-0.076,1.223
		c0.038,3.764,2.228,6.994,5.261,8.766c0.072,0.053,0.147,0.101,0.219,0.145c1.51,0.823,3.214,1.297,5.041,1.282
		c1.976-0.019,3.899-0.591,5.546-1.666c0.776-0.51,2.119-2.05,1.829-3.478c-0.163-0.81-0.776-1.369-1.685-1.531
		c-1.88-0.343-3.042,0.845-3.981,1.81c-1.306,1.335-3.09,2.726-5.666,1.472c-2.556-1.243-4.041-3.9-4.07-6.849
		c0-0.331,0.015-0.66,0.054-0.986c0.448-3.844,3.627-6.95,7.884-7.847c5.446-1.159,12.188,0.648,15.372,2.295
		c1.389,0.718,3.513,1.713,1.657,5.709c-12.707,27.302-21.781,47.734-41.472,44.379c-5.794-0.986-9.803-5.597-9.803-11.01
		c0-0.448,0.029-0.902,0.086-1.358c0.501-4.089,2.996-7.532,6.752-8.852c3.762-1.325,6.008,0.887,7.603,2.944
		c1.152,1.486,2.576,3.331,5.232,3.159c1.291-0.093,2.233-0.767,2.585-1.862c0.623-1.934-0.976-4.281-1.98-5.111
		c-2.119-1.764-4.685-2.87-7.428-3.206c-2.528-0.316-4.976,0.074-7.188,0.984c-0.11,0.045-0.224,0.087-0.324,0.157
		c-4.499,1.979-7.479,6.163-8.126,11.378c-0.067,0.581-0.1,1.145-0.1,1.715c0,6.951,5.233,13.494,12.55,14.739
		c14.64,2.489,23.904-6.461,32.256-20.873c2.69-4.638,4.018-5.77,4.98-5.77l7.017,0.005c1.485,0,1.504-0.065,1.405,5.057
		c-0.062,1.767-0.119,2.953-0.686,4.396c-1.563,4.011-3.433,1.997-4.624,5.043c-0.361,0.919,0.448,0.791,1.466,0.791
		c1.651,0,2.414-0.122,4.913-0.107c3.757,0,4.328,0.259,6.38,0.259c1.538,0,2.233,0.196,2.428-0.98
		C439.9,91.531,436.115,94.443,436.101,89.786"/>
	<path style="fill:#7B002B;" d="M180.999,70.799h-2.69c-3.252-0.267-3.761-0.526-3.123-3.747l1.523-7.617
		c0.738-3.742,1.361-6.235,5.227-6.235c5.066,0.004,7.965,4.089,6.751,10.131C187.717,68.188,185.326,70.799,180.999,70.799
		 M186.631,83.606c-1.271,6.368-4.418,10.275-9.997,10.269c-5.518-0.004-6.522-1.487-5.261-7.712l1.466-7.364
		c0.676-3.414,1.123-5.038,4.48-5.048C186.659,73.725,187.422,79.664,186.631,83.606 M196.495,61.679
		c0.324-1.58,1.762-11.291-12.169-11.302c-0.819,0-6.37-0.224-10.168-0.224c-7.399,0-13.126-1.483-21.277,2.698
		c-4.957,2.535-8.198,7.722-7.542,12.668c0.053,0.405,0.133,0.809,0.243,1.21c0.948,3.637,3.861,6.227,7.237,7.215
		c0.086,0.03,0.166,0.049,0.252,0.078c1.652,0.433,3.428,0.469,5.2,0.016c1.913-0.498,3.633-1.531,4.965-2.984
		c0.634-0.682,1.552-2.501,0.924-3.813c-0.353-0.744-1.086-1.135-2.014-1.071c-1.894,0.122-2.737,1.565-3.413,2.735
		c-0.934,1.609-2.324,3.389-5.123,2.808c-2.794-0.584-4.881-2.793-5.628-5.644c-0.09-0.322-0.153-0.644-0.195-0.967
		c-0.509-3.836,1.814-7.624,5.718-9.54c4.199-2.067,10.678-3.057,13.94-2.238c1.576,0.395,3.143,1.702,2.142,6.703l-5.798,29.014
		c-1.272,6.367-5.818,4.019-6.247,6.191c-0.177,0.913,0.356,1.048,1.666,1.048c1.2,0,2.729-0.266,4.104-0.262
		c2.838,0,5.047-0.022,13.531-0.022c9.279,0.004,15.501-4.327,17.229-12.996c1.18-5.913,0.448-9.899-6.084-11.934l0.023-0.126
		C192.359,69.421,195.677,65.817,196.495,61.679"/>
	<path style="fill:#7B002B;" d="M212.564,77.673c0.971,0,1.408-0.454,1.666-1.781c0.49-2.494-0.319-6.36-3.904-6.364
		c-3.418,0-5.446,3.871-6.046,6.882c-0.21,1.059,0.224,1.248,0.39,1.248L212.564,77.673z M204.879,79.964
		c-1.028,0-1.157-0.462-1.586,1.638c-1.119,5.642,1.324,10.77,6.279,10.77c3.347,0,5.985-3.867,6.851-4.142
		c0.552-0.171,1.047-0.05,0.9,0.67c-0.333,1.643-5.736,7.616-11.602,7.616c-5.628-0.015-10.378-4.144-8.589-13.142
		c1.518-7.551,6.856-15.757,14.188-15.753c7.631,0.01,9.212,7.489,8.531,10.901c-0.29,1.446-0.633,1.446-0.976,1.446L204.879,79.964
		z"/>
	<path style="fill:#7B002B;" d="M236.324,84.049c0.353-1.771,0.577-2.359,0.072-2.359c-2.219,0-7.17,2.225-8.051,6.624
		c-0.209,1.047-0.809,4.328,2.162,4.333c1.247,0,4.242-0.718,4.542-2.232L236.324,84.049z M241.452,88.586
		c-0.657,3.278-0.757,4.065,0.723,4.065c0.681,0,1.357-0.504,1.757-0.504c0.405,0,0.896,0.661,0.695,1.192
		c-0.481,1.254-4.255,3.189-6.308,3.189c-2.666,0-2.941-2.627-2.895-4.009c-2.838,2.232-6.551,4.009-9.679,4.009
		c-3.133,0-4.837-2.571-4.113-6.177c1.609-8.086,10.051-9.508,15.606-10.895c0.156-0.036,0.357-0.329,0.429-0.79
		c0.781-5.29,0.361-8.863-3.4-8.863c-2.152-0.004-3.699,1.401-3.713,3.918c-0.004,3.134-3.29,2.953-3.685,2.953
		c-0.463,0-2.057-0.846-1.81-2.094c1.147-5.72,7.937-6.943,11.926-6.943c5.855,0.004,8.046,3.023,6.722,9.651L241.452,88.586z"/>
	<path style="fill:#7B002B;" d="M256.792,88.986c-1.205,6.039,4.48,3.043,4.099,5.979c-0.053,0.391-0.452,1.107-1.081,1.107
		c-1.362,0-4.556-0.257-6.432-0.257c-2.676-0.005-4.376,0.257-5.799,0.257c-0.743,0-0.905-0.131-0.833-0.652
		c0.39-3.097,2.861-0.147,3.765-5.188l2.904-14.649c0.629-3.145-3.809-0.943-2.838-3.935c0.338-1.014,1.057-1.19,3.189-1.697
		c4.199-1.025,4.885-2.704,5.57-2.704c0.681,0,2.148,0.393,1.981,1.248l-1.427,4.996c3.18-3.415,5.079-5.126,6.474-5.354
		c1.829-0.298,4.422,1.33,4.319,3.715c-0.09,2.474-0.348,5.118-4.056,5.332c-2.709,0.167-0.9-2.363-4.033-2.442
		c-3.123-0.078-3.956,4.99-4.056,5.505L256.792,88.986z"/>
	<path style="fill:#7B002B;" d="M300.488,55.524c0.78-3.872-3.395-1.773-3.018-3.674c0.219-1.121,1.024-0.857,4.951-2.302
		c2.076-0.633,3.252-1.228,3.985-1.676c0.928-0.58,1.066-0.424,1.547-0.166c0.5,0.288-0.076,1.063-0.818,4.738l-5.69,28.491
		l9.55-7.944c1.081-0.846,0.923-1.178,0.971-1.436c0.238-1.184-2.551-0.857-2.294-2.169c0.237-1.191,0.709-0.982,1.504-0.982
		c1.586,0,3.072,0.265,4.676,0.265c1.533,0,3.175-0.259,4.713-0.259c0.915,0,1.272,0.191,1.181,0.654
		c-0.191,0.984-1.328,1.248-1.815,1.383c-4.57,1.24-10.697,6.224-10.845,7.015c-0.451,2.293,3.4,10.555,5.408,14.174
		c1.22,2.16,4.434,0.93,4.1,3.427c-0.144,1.127-1.057,1.054-2.251,1.054c-0.971,0-1.948-0.025-2.972-0.025
		c-0.79,0-1.871,0.016-3.233,0.016c-0.285,0-1.191,0.265-3.271-4.992l-3.551-8.991l-2.528,2.024l-1.176,5.913
		c-0.915,4.67,3.676,2.634,3.185,5.187c-0.128,0.66-0.405,0.855-1.371,0.855c-1.137,0-4.607-0.029-6.318-0.029
		c-1.305,0-3.928,0.024-5.114,0.024c-0.461,0-0.933,0.004-0.837-0.66c0.466-3.412,3.232,0.6,4.47-5.583L300.488,55.524z"/>
	<path style="fill:#7B002B;" d="M343.482,75.878c0.624-3.153-3.56-1.297-2.828-4.185c0.258-1.032,1.067-1.104,3.186-1.704
		c3.132-0.771,4.695-1.679,5.603-2.247c0.542-0.348,1.147-0.382,1.343-0.201c0.505,0.429,0.233,0.935,0.056,1.788l-0.619,2.902
		h0.114c2.1-2.894,5.28-4.525,8.646-4.525c6.132,0.01,7.475,5.846,6.203,12.219l-2.133,10.631c-0.629,3.213,2.928,2.251,2.619,4.603
		c-0.095,0.789-0.533,0.974-1.514,0.974c-1.819,0-3.585-0.252-4.771-0.265c-1.423,0-3.523,0.265-4.218,0.265
		c-1.076,0-1.899,0.335-1.7-0.852c0.352-2.111,3.061-1.995,3.438-4.14l2.233-11.159c0.847-4.266,0.29-8.01-3.971-8.01
		c-3.757,0-5.39,2.493-6.156,6.298l-2.432,11.789c-0.638,2.75,4.289,2.205,3.666,5.085c-0.12,0.585-0.586,0.98-1.967,0.98
		c-0.619,0-2.613-0.259-5.517-0.259c-2-0.006-4.027,0.254-5.737,0.254c-0.576,0-0.562-0.395-0.487-0.726
		c0.738-3.604,3.209-0.961,4.128-5.929L343.482,75.878z"/>
	<path style="fill:#7B002B;" d="M490.118,55.626c0.776-3.871-3.405-1.773-3.018-3.681c0.219-1.111,1.019-0.843,4.961-2.29
		c2.072-0.641,3.232-1.24,3.975-1.687c0.933-0.576,1.586,0.023,1.485,0.75c-0.11,0.733-0.015,0.147-0.514,2.502l-7.522,37.621
		c-1.171,5.983,3.204,3.901,2.934,6.516c-0.057,0.667-0.396,0.852-1.362,0.852c-1.147,0-4.494-0.025-6.194-0.025
		c-1.324,0-4.047,0.016-5.251,0.016c-0.448,0-0.948,0-0.823-0.66c0.662-3.514,3.476-0.247,4.703-6.42L490.118,55.626z"/>
	<path style="fill:#7B002B;" d="M468.36,88.986c-1.213,6.039,4.489,3.043,4.094,5.979c-0.052,0.391-0.443,1.107-1.065,1.107
		c-1.376,0-4.681,0.097-6.561,0.097c-2.671,0-4.266-0.097-5.693-0.097c-0.73,0-0.896-0.131-0.82-0.652
		c0.391-3.097,2.857-0.147,3.757-5.188l2.909-14.649c0.629-3.145-3.809-0.943-2.824-3.935c0.329-1.014,1.057-1.19,3.176-1.697
		c4.198-1.025,4.884-2.704,5.565-2.704c0.691,0,2.162,0.393,1.986,1.248l-1.423,4.996c3.186-3.415,5.075-5.126,6.475-5.354
		c1.828-0.298,4.409,1.33,4.318,3.715c-0.09,2.474-0.362,5.118-4.056,5.332c-2.71,0.167-0.9-2.363-4.038-2.442
		c-3.118-0.078-3.947,4.99-4.056,5.505L468.36,88.986z"/>
	<path style="fill:#7B002B;" d="M558.603,77.852c0.961,0,1.414-0.439,1.657-1.764c0.499-2.498-0.31-6.373-3.899-6.373
		c-3.408-0.009-5.443,3.866-6.046,6.889c-0.209,1.053,0.224,1.248,0.406,1.248H558.603z M550.918,80.149
		c-1.023,0-1.162-0.46-1.58,1.633c-1.133,5.648,1.319,10.779,6.274,10.779c3.353,0.004,5.991-3.866,6.852-4.146
		c0.557-0.165,1.032-0.054,0.899,0.674c-0.333,1.638-5.737,7.613-11.592,7.599c-5.637,0-10.392-4.132-8.598-13.133
		c1.52-7.545,6.852-15.746,14.192-15.746c7.633,0.004,9.213,7.493,8.532,10.903c-0.299,1.45-0.637,1.45-0.985,1.45L550.918,80.149z"
		/>
	<path style="fill:#7B002B;" d="M518.04,75.97c0.628-3.152-3.547-1.293-2.832-4.18c0.271-1.032,1.085-1.105,3.194-1.705
		c3.126-0.772,4.703-1.677,5.599-2.249c0.552-0.346,1.147-0.379,1.352-0.205c0.508,0.425,0.224,0.943,0.056,1.79l-0.629,2.902h0.119
		c2.109-2.883,5.279-4.526,8.636-4.526c6.146,0,7.489,5.852,6.222,12.222l-2.133,10.634c-0.643,3.215,2.914,2.252,2.609,4.597
		c-0.105,0.795-0.539,0.976-1.5,0.976c-1.819,0-3.593-0.254-4.789-0.254c-1.427,0-3.528,0.254-4.213,0.254
		c-1.081,0-1.894,0.335-1.695-0.846c0.342-2.112,3.057-1.99,3.438-4.135l2.222-11.165c0.863-4.264,0.301-8.009-3.965-8.009
		c-3.757-0.01-5.395,2.482-6.16,6.289l-2.429,11.787c-0.644,2.759,4.284,2.215,3.67,5.095c-0.134,0.586-0.6,0.986-1.967,0.986
		c-0.618,0-2.617-0.265-5.518-0.27c-1.999,0-4.041,0.259-5.746,0.259c-0.576,0-0.557-0.395-0.486-0.725
		c0.746-3.61,3.208-0.961,4.141-5.939L518.04,75.97z"/>
	<path style="fill:#7B002B;" d="M289.371,74.76c-0.11,0.532-0.305,0.653-0.877,0.653c-1.133,0-0.571-5.712-5.908-5.712
		c-1.88,0-3.789,0.985-4.261,3.339c-0.618,3.091,1.599,3.426,5.789,5.522c3.351,1.717,5.284,3.755,4.285,8.733
		c-1.405,7.03-7.212,9.252-11.582,9.252c-0.972,0-2.638-0.687-3.947-0.925c-0.395-0.079-0.809-0.093-1.119,0.097
		c-0.652,0.399-1.404,0.497-1.847,0.157c-0.348-0.269-0.49-0.399-0.305-1.318l1.609-7.531c0.238-0.916,0.676-1.109,1.252-1.109
		c0.957,0-0.181,8.857,5.961,8.857c2.39,0,4.46-1.827,5.017-4.587c0.524-2.627-2.365-4.135-6.912-6.699
		c-2.814-1.57-3.785-3.291-2.99-7.299c1.252-6.235,6.208-8.536,10.984-8.526c0.237,0,1.051,0.135,2.404,0.41
		c0.452,0.088,0.776,0.493,1.438,0.117c1.447-1.009,1.913,0.209,1.861,0.581L289.371,74.76z"/>
	<path style="fill:#7B002B;" d="M585.579,74.76c-0.1,0.532-0.297,0.653-0.868,0.653c-1.142,0-0.571-5.712-5.917-5.712
		c-1.876,0-3.785,0.985-4.257,3.339c-0.613,3.091,1.591,3.426,5.785,5.522c3.356,1.717,5.279,3.755,4.294,8.733
		c-1.403,7.03-7.207,9.252-11.587,9.252c-0.971,0-2.638-0.687-3.943-0.925c-0.404-0.079-0.819-0.093-1.133,0.097
		c-0.652,0.399-1.389,0.497-1.837,0.157c-0.347-0.269-0.491-0.399-0.301-1.318l1.605-7.531c0.242-0.916,0.68-1.109,1.247-1.109
		c0.976,0-0.176,8.857,5.966,8.857c2.385,0,4.465-1.827,5.018-4.587c0.522-2.627-2.358-4.135-6.914-6.699
		c-2.813-1.57-3.779-3.291-2.989-7.299c1.256-6.235,6.209-8.536,10.988-8.526c0.234,0,1.052,0.135,2.39,0.41
		c0.468,0.088,0.786,0.493,1.444,0.117c1.451-1.009,1.927,0.209,1.866,0.581L585.579,74.76z"/>
	<path style="fill:#7B002B;" d="M328.014,75.746c0.624-3.152-3.37-0.923-2.775-4.056c0.205-1.055,1.082-1.111,3.186-1.708
		c3.366-0.835,4.927-1.814,5.799-2.364c0.428-0.284,0.766-0.254,1.09,0.024c0.448,0.391,0.285,0.745,0.186,1.32l-4.247,21.047
		c-0.833,4.191,3.737,1.781,3.109,5.256c-0.195,1.052-1.819,0.851-2.509,0.851c-1.818,0-3.527-0.083-5.35-0.083
		c-1.362,0-2.838,0.083-4.267,0.083c-0.961,0-1.624,0.197-1.414-0.92c0.637-3.227,3.585-1.127,4.194-4.144L328.014,75.746z"/>
	<path style="fill:#7B002B;" d="M329.942,59.573c0-2.045,1.667-3.715,3.714-3.715c2.052,0,3.719,1.67,3.719,3.715
		c0,2.053-1.667,3.719-3.719,3.719C331.609,63.291,329.942,61.626,329.942,59.573"/>
	<path style="fill:#7B002B;" d="M448.955,75.746c0.629-3.152-3.362-0.923-2.766-4.056c0.195-1.055,1.076-1.111,3.18-1.708
		c3.357-0.835,4.927-1.814,5.794-2.364c0.433-0.284,0.776-0.254,1.095,0.024c0.447,0.391,0.29,0.745,0.186,1.32l-4.247,21.047
		c-0.843,4.191,3.742,1.781,3.104,5.256c-0.19,1.052-1.814,0.851-2.504,0.851c-1.819,0-3.522-0.083-5.35-0.083
		c-1.362,0-2.843,0.083-4.267,0.083c-0.961,0-1.628,0.197-1.414-0.92c0.634-3.227,3.585-1.127,4.185-4.144L448.955,75.746z"/>
	<path style="fill:#7B002B;" d="M450.888,59.573c0-2.045,1.662-3.715,3.714-3.715c2.051,0,3.707,1.67,3.707,3.715
		c0,2.053-1.657,3.719-3.707,3.719C452.55,63.291,450.888,61.626,450.888,59.573"/>
	<path style="fill:#7B002B;" d="M502.3,75.746c0.624-3.152-3.366-0.923-2.77-4.056c0.195-1.055,1.071-1.111,3.18-1.708
		c3.361-0.835,4.932-1.814,5.8-2.364c0.428-0.284,0.775-0.254,1.095,0.024c0.442,0.391,0.284,0.745,0.184,1.32l-4.241,21.047
		c-0.843,4.191,3.737,1.781,3.1,5.256c-0.19,1.052-1.818,0.851-2.504,0.851c-1.829,0-3.533-0.083-5.357-0.083
		c-1.362,0-2.832,0.083-4.266,0.083c-0.961,0-1.624,0.197-1.404-0.92c0.623-3.227,3.585-1.127,4.179-4.144L502.3,75.746z"/>
	<path style="fill:#7B002B;" d="M504.224,59.573c0-2.045,1.666-3.715,3.719-3.715c2.057,0,3.713,1.67,3.713,3.715
		c0,2.053-1.656,3.719-3.713,3.719C505.89,63.291,504.224,61.626,504.224,59.573"/>
	<path style="fill:#D35D31;" d="M184.665,125.218c0-1.587,1.024-2.474,2.385-2.474c1.376,0,2.385,0.887,2.385,2.474v15.955h5.656
		c1.618,0,2.323,1.21,2.285,2.29c-0.062,1.05-0.885,2.093-2.285,2.093h-7.941c-1.561,0-2.486-1.016-2.486-2.61L184.665,125.218
		L184.665,125.218z"/>
	<path style="fill:#D35D31;" d="M209.54,135.578c-0.257-2.006-1.529-3.495-3.651-3.495c-2.038,0-3.4,1.56-3.629,3.495H209.54z
		 M202.361,138.629c0.315,2.26,2.194,3.301,4.313,3.301c2.357,0,3.981-1.837,5.189-1.837c0.98,0,1.871,0.986,1.871,1.963
		c0,1.974-4.065,3.885-7.465,3.885c-5.151,0-8.584-3.749-8.584-8.808c0-4.636,3.375-8.865,8.203-8.865
		c4.951,0,8.221,4.511,8.221,8.327c0,1.366-0.595,2.033-1.995,2.033L202.361,138.629L202.361,138.629z"/>
	<path style="fill:#D35D31;" d="M217.533,132.656h-1.018c-1.238,0-2-0.765-2-1.999c0-1.147,0.852-2.004,2-2.004h1.018v-2.73
		c0-1.527,0.948-2.549,2.285-2.549c1.333,0,2.281,1.023,2.281,2.549v2.73h1.305c1.185,0,2.195,0.54,2.195,2.004
		c0,1.423-1.009,1.999-2.195,1.999h-1.305v10.554c0,1.521-0.947,2.535-2.281,2.535c-1.338,0-2.285-1.014-2.285-2.535V132.656z"/>
	<path style="fill:#D35D31;" d="M236.73,132.656h-1.019c-1.242,0-2.009-0.765-2.009-1.999c0-1.147,0.862-2.004,2.009-2.004h1.019
		v-2.73c0-1.527,0.947-2.549,2.28-2.549c1.343,0,2.295,1.023,2.295,2.549v2.73h1.295c1.176,0,2.194,0.54,2.194,2.004
		c0,1.423-1.018,1.999-2.194,1.999h-1.295v10.554c0,1.521-0.953,2.535-2.295,2.535c-1.333,0-2.28-1.014-2.28-2.535V132.656z"/>
	<path style="fill:#D35D31;" d="M246.09,123.635c0-1.534,0.952-2.544,2.286-2.544c1.338,0,2.294,1.011,2.294,2.544v6.219h0.062
		c0.956-1.166,2.737-1.585,4.16-1.585c3.59,0,6.266,2.292,6.266,6.163v8.779c0,1.516-0.947,2.53-2.289,2.53
		c-1.333,0-2.289-1.013-2.289-2.53v-7.975c0-2.136-1.333-3.154-2.985-3.154c-1.876,0-2.924,1.37-2.924,3.154v7.975
		c0,1.516-0.956,2.53-2.294,2.53c-1.333,0-2.286-1.013-2.286-2.53L246.09,123.635L246.09,123.635z"/>
	<path style="fill:#D35D31;" d="M275.416,135.578c-0.252-2.006-1.528-3.495-3.652-3.495c-2.038,0-3.404,1.56-3.623,3.495H275.416z
		 M268.232,138.629c0.315,2.26,2.195,3.301,4.323,3.301c2.353,0,3.975-1.837,5.181-1.837c0.986,0,1.88,0.986,1.88,1.963
		c0,1.974-4.075,3.885-7.474,3.885c-5.147,0-8.579-3.749-8.579-8.808c0-4.636,3.37-8.865,8.202-8.865
		c4.951,0,8.227,4.511,8.227,8.327c0,1.366-0.604,2.033-2.004,2.033L268.232,138.629L268.232,138.629z"/>
	<path style="fill:#D35D31;" d="M296.288,141.359h3.752c1.718,0,2.99-0.977,2.99-2.758c0-1.501-1.143-2.509-3.367-2.509h-3.375
		V141.359z M296.288,131.893h2.48c1.562,0,2.576-0.925,2.576-2.512c0-1.495-1.176-2.255-2.576-2.255h-2.48V131.893z
		 M291.527,125.316c0-1.523,1.047-2.384,2.505-2.384h6.104c3.303,0,5.974,2.224,5.974,5.592c0,2.224-0.919,3.722-2.947,4.676v0.059
		c2.695,0.379,4.829,2.642,4.829,5.406c0,4.475-2.985,6.894-7.375,6.894h-6.541c-1.472,0-2.548-0.925-2.548-2.419L291.527,125.316
		L291.527,125.316z"/>
	<path style="fill:#D35D31;" d="M321.354,135.578c-0.247-2.006-1.529-3.495-3.652-3.495c-2.037,0-3.4,1.56-3.623,3.495H321.354z
		 M314.175,138.629c0.314,2.26,2.185,3.301,4.323,3.301c2.347,0,3.966-1.837,5.169-1.837c0.991,0,1.876,0.986,1.876,1.963
		c0,1.974-4.061,3.885-7.46,3.885c-5.151,0-8.579-3.749-8.579-8.808c0-4.636,3.367-8.865,8.198-8.865
		c4.956,0,8.227,4.511,8.227,8.327c0,1.366-0.6,2.033-2,2.033L314.175,138.629L314.175,138.629z"/>
	<path style="fill:#D35D31;" d="M335.86,141.748c2.385,0,3.528-2.419,3.528-4.613c0-2.187-1.109-4.665-3.528-4.665
		c-2.508,0-3.618,2.478-3.618,4.665C332.242,139.329,333.384,141.748,335.86,141.748 M343.964,142.761c0,1.173,0,2.984-2.19,2.984
		c-1.338,0-1.881-0.726-2.195-1.935c-1.175,1.399-2.6,2.129-4.351,2.129c-4.29,0-7.569-3.651-7.569-8.805
		c0-5.015,3.375-8.861,7.569-8.861c1.681,0,3.332,0.664,4.351,2.096c0.124-1.111,1.081-1.906,2.195-1.906
		c2.19,0,2.19,1.809,2.19,2.986V142.761z"/>
	<path style="fill:#D35D31;" d="M347.396,130.748c0-1.527,1.2-2.285,2.353-2.285c1.204,0,2.223,0.442,2.223,1.906h0.061
		c0.862-1.273,1.781-1.906,3.209-1.906c1.114,0,2.228,0.795,2.228,2.442c0,1.497-1.371,1.595-2.733,2.232
		c-1.371,0.629-2.766,1.239-2.766,3.047v7.026c0,1.521-0.953,2.535-2.289,2.535c-1.334,0-2.286-1.014-2.286-2.535V130.748z"/>
	<path style="fill:#D35D31;" d="M368.938,132.656h-1.01c-1.252,0-2.008-0.765-2.008-1.999c0-1.147,0.852-2.004,2.008-2.004h1.01
		v-2.73c0-1.527,0.953-2.549,2.286-2.549c1.332,0,2.295,1.023,2.295,2.549v2.73h1.294c1.176,0,2.2,0.54,2.2,2.004
		c0,1.423-1.024,1.999-2.2,1.999h-1.294v10.554c0,1.521-0.962,2.535-2.295,2.535c-1.333,0-2.286-1.014-2.286-2.535V132.656z"/>
	<path style="fill:#D35D31;" d="M385.469,141.748c2.38,0,3.518-2.419,3.518-4.613c0-2.187-1.104-4.665-3.518-4.665
		c-2.513,0-3.623,2.478-3.623,4.665C381.845,139.329,382.984,141.748,385.469,141.748 M393.567,142.761c0,1.173,0,2.984-2.19,2.984
		c-1.338,0-1.88-0.726-2.19-1.935c-1.18,1.399-2.613,2.129-4.361,2.129c-4.29,0-7.565-3.651-7.565-8.805
		c0-5.015,3.371-8.861,7.565-8.861c1.69,0,3.338,0.664,4.361,2.096c0.12-1.111,1.076-1.906,2.19-1.906c2.19,0,2.19,1.809,2.19,2.986
		V142.761z"/>
	<path style="fill:#D35D31;" d="M397.037,123.635c0-1.534,0.956-2.544,2.289-2.544c1.333,0,2.289,1.011,2.289,2.544v10.676
		l5.023-4.86c0.719-0.703,1.458-0.986,2.052-0.986c1.147,0,1.947,1.05,1.947,2.068c0,0.663-0.224,1.199-0.895,1.807l-4.06,3.623
		l5.365,6.289c0.419,0.478,0.576,1.018,0.576,1.521c0,1.21-0.955,2.169-2.166,2.169c-0.824,0-1.457-0.512-2.19-1.397l-5.589-6.899
		h-0.062v5.566c0,1.516-0.956,2.53-2.289,2.53c-1.333,0-2.289-1.013-2.289-2.53L397.037,123.635L397.037,123.635z"/>
	<path style="fill:#D35D31;" d="M424.055,135.578c-0.247-2.006-1.518-3.495-3.651-3.495c-2.029,0-3.405,1.56-3.623,3.495H424.055z
		 M416.876,138.629c0.324,2.26,2.194,3.301,4.328,3.301c2.346,0,3.971-1.837,5.175-1.837c0.986,0,1.876,0.986,1.876,1.963
		c0,1.974-4.061,3.885-7.466,3.885c-5.151,0-8.589-3.749-8.589-8.808c0-4.636,3.37-8.865,8.203-8.865
		c4.955,0,8.231,4.511,8.231,8.327c0,1.366-0.599,2.033-2.003,2.033L416.876,138.629L416.876,138.629z"/>
	<path style="fill:#D35D31;" d="M438.905,131.605c-0.138-0.346-0.229-0.7-0.229-1.173c0-1.145,1.205-1.968,2.161-1.968
		c1.11,0,1.91,0.604,2.29,1.622l3.151,8.61l3.357-8.61c0.391-1.018,1.181-1.622,2.289-1.622c0.957,0,2.162,0.823,2.162,1.968
		c0,0.474-0.062,0.827-0.22,1.173l-7.652,19.073c-0.39,0.957-1.085,1.809-2.171,1.809c-1.561,0-2.385-0.986-2.385-1.973
		c0-0.442,0.132-0.922,0.285-1.33l2.008-4.954L438.905,131.605z"/>
	<path style="fill:#D35D31;" d="M459.405,137.135c0,2.194,1.137,4.608,3.623,4.608c2.48,0,3.623-2.414,3.623-4.608
		c0-2.187-1.114-4.664-3.623-4.664S459.405,134.947,459.405,137.135 M471.221,137.135c0,4.769-3.266,8.805-8.194,8.805
		c-4.922,0-8.198-4.036-8.198-8.805c0-4.634,3.37-8.861,8.198-8.861C467.855,128.274,471.221,132.5,471.221,137.135"/>
	<path style="fill:#D35D31;" d="M473.783,131.001c0-1.515,0.961-2.54,2.295-2.54c1.328,0,2.289,1.026,2.289,2.54v8.172
		c0,1.906,1.428,2.959,2.961,2.959c1.519,0,2.952-1.052,2.952-2.959v-8.172c0-1.515,0.948-2.54,2.281-2.54
		c1.343,0,2.295,1.026,2.295,2.54v8.265c0,4.07-2.699,6.68-7.527,6.68c-4.842,0-7.546-2.61-7.546-6.68L473.783,131.001
		L473.783,131.001z"/>
	<path style="fill:#D35D31;" d="M502.357,132.656h-1.014c-1.238,0-2.004-0.765-2.004-1.999c0-1.147,0.862-2.004,2.004-2.004h1.014
		v-2.73c0-1.527,0.957-2.549,2.289-2.549c1.333,0,2.289,1.023,2.289,2.549v2.73h1.3c1.175,0,2.2,0.54,2.2,2.004
		c0,1.423-1.025,1.999-2.2,1.999h-1.3v10.554c0,1.521-0.956,2.535-2.289,2.535c-1.332,0-2.289-1.014-2.289-2.535V132.656z"/>
	<path style="fill:#D35D31;" d="M511.722,123.635c0-1.534,0.954-2.544,2.287-2.544c1.338,0,2.293,1.011,2.293,2.544v6.219h0.058
		c0.961-1.166,2.732-1.585,4.166-1.585c3.594,0,6.26,2.292,6.26,6.163v8.779c0,1.516-0.948,2.53-2.285,2.53s-2.29-1.013-2.29-2.53
		v-7.975c0-2.136-1.333-3.154-2.985-3.154c-1.875,0-2.924,1.37-2.924,3.154v7.975c0,1.516-0.955,2.53-2.293,2.53
		c-1.333,0-2.287-1.013-2.287-2.53L511.722,123.635L511.722,123.635z"/>
	<path style="fill:#D35D31;" d="M541.055,135.578c-0.263-2.006-1.533-3.495-3.657-3.495c-2.032,0-3.408,1.56-3.632,3.495H541.055z
		 M533.875,138.629c0.313,2.26,2.184,3.301,4.312,3.301c2.353,0,3.981-1.837,5.19-1.837c0.976,0,1.866,0.986,1.866,1.963
		c0,1.974-4.065,3.885-7.464,3.885c-5.152,0-8.591-3.749-8.591-8.808c0-4.636,3.381-8.865,8.208-8.865
		c4.962,0,8.227,4.511,8.227,8.327c0,1.366-0.599,2.033-2.008,2.033L533.875,138.629L533.875,138.629z"/>
	<path style="fill:#D35D31;" d="M548.12,130.748c0-1.527,1.208-2.285,2.352-2.285c1.214,0,2.232,0.442,2.232,1.906h0.058
		c0.851-1.273,1.775-1.906,3.208-1.906c1.109,0,2.217,0.795,2.217,2.442c0,1.497-1.36,1.595-2.731,2.232
		c-1.357,0.629-2.753,1.239-2.753,3.047v7.026c0,1.521-0.961,2.535-2.299,2.535c-1.328,0-2.285-1.014-2.285-2.535L548.12,130.748
		L548.12,130.748z"/>
	<path style="fill:#D35D31;" d="M570.266,135.578c-0.252-2.006-1.523-3.495-3.656-3.495c-2.034,0-3.399,1.56-3.623,3.495H570.266z
		 M563.082,138.629c0.323,2.26,2.19,3.301,4.318,3.301c2.361,0,3.981-1.837,5.19-1.837c0.98,0,1.875,0.986,1.875,1.963
		c0,1.974-4.07,3.885-7.475,3.885c-5.146,0-8.578-3.749-8.578-8.808c0-4.636,3.366-8.865,8.197-8.865
		c4.96,0,8.232,4.511,8.232,8.327c0,1.366-0.603,2.033-2.004,2.033L563.082,138.629L563.082,138.629z"/>
	<path style="fill:#D35D31;" d="M578.136,124.713c0-1.339,0.991-2.168,2.29-2.168c1.271,0,2.29,0.863,2.29,2.168v12.236
		c0,1.297-1.02,2.156-2.29,2.156c-1.3,0-2.29-0.826-2.29-2.156V124.713z M577.945,143.465c0-1.371,1.12-2.488,2.481-2.488
		c1.366,0,2.481,1.117,2.481,2.488c0,1.363-1.114,2.474-2.481,2.474C579.066,145.939,577.945,144.828,577.945,143.465"/>
	<path style="fill:#7B002B;" d="M114.128,112.394c-4.152,2.997-8.993,6.128-14.183,9.676l-4.17,2.871
		c-6.279,4.33-14.207,4.93-22.314,1.677c-8.217-3.301-15.506-9.879-16.816-15.987c-0.814-3.783-0.61-6.074-0.342-8.98
		c-3.385,0.658-5.969-0.083-7.646-0.952c-3.195-1.657-5.594-4.973-6.722-9.311c-0.144-0.525-0.743-3.67-0.743-6.767
		c0-2.252,0.334-4.856,1.357-7.342c-3.461-1.65-5.874-5.181-5.874-9.288c0-5.674,4.622-10.299,10.307-10.299
		c0.276,0,0.552,0.022,0.833,0.048c-0.891-1.496-1.409-3.226-1.409-5.085c0-5.518,4.489-10.008,10.003-10.008
		c1.204,0,2.352,0.224,3.408,0.619c0.048-0.79,0.176-1.56,0.372-2.302C49.042,28.294,33.874,14.697,17.034,14.697H4.046
		l36.236,131.331l98.783,0.004C130.72,134.78,122.197,123.285,114.128,112.394"/>
	<path style="fill:#D35D31;" d="M63.238,35.759c2.219-2.212,5.295-3.606,8.736-3.606c0.095,0,0.186,0.023,0.277,0.023
		C60.892,18.253,43.61,0,24.105,0C24.105,0,8.655,0.01,0,0.01l2.461,8.942H17.03C35.463,8.951,51.446,22.636,63.238,35.759"/>
	<path style="fill:#D35D31;" d="M124.734,102.472c-1.461,2.188-3.538,4.29-6.066,6.399l27.552,37.16h10.807
		C146.577,131.944,135.357,116.798,124.734,102.472"/>
</g>
</svg>
