<?xml version="1.0" encoding="utf-8"?>
<!-- Generator: Adobe Illustrator 22.1.0, SVG Export Plug-In . SVG Version: 6.00 Build 0)  -->
<svg version="1.1" id="Слой_2_1_" xmlns="http://www.w3.org/2000/svg" xmlns:xlink="http://www.w3.org/1999/xlink" x="0px"
	 y="0px" width="955.5px" height="260.8px" viewBox="0 0 955.5 260.8" style="enable-background:new 0 0 955.5 260.8;"
	 xml:space="preserve">
<style type="text/css">
	.st0{fill:#4F7AAC;}
	.st1{fill:#222C6C;}
	.st2{fill:#FFFFFF;}
</style>
<g>
	<g>
		<g>
			<polygon class="st0" points="8.3,156 912.8,155.1 919.1,141.5 15.1,141.5 			"/>
		</g>
		<polygon class="st1" points="908.3,164.7 4.3,164.7 0,174 904,174 		"/>
	</g>
	<g>
		<path class="st1" d="M235.2,165.4c-0.1,0-0.3,0-0.4-0.1c-9.7-6.6-10.8-12.7-8.8-26.6c1.2-8.5,7.8-19,13.6-28.3
			c4.6-7.3,8.9-14.2,8.1-16.6c-0.1-0.3-0.3-0.5-0.7-0.7l0,0c-0.6,0-2.3,1.9-3.8,3.7c-4.8,5.5-12.9,14.7-25.9,14.7
			c-3.1,0-6.3-0.5-9.5-1.5c-3.4-1.1-7.8-4.2-9.7-9.8c-1.8-5.1-2.2-13.9,6.3-26.9c19.5-29.7,39.2-33.1,52.2-33.1c1.8,0,3.5,0.1,5,0.1
			c0.6,0,1.3,0.1,1.8,0.1c0.2,0,0.4,0.1,0.6,0.3c0.1,0.2,0.2,0.4,0.2,0.6C264,42.2,259.9,64,250,64.8c-2.2,0.2-4.5,0.3-6.9,0.4
			c-9.8,0.4-20.8,0.8-23.7,6.9c-1.7,3.6-1.9,6.7-0.5,9.2c1.6,2.9,5.5,4.8,10.5,5.3c0.4,0,0.7,0,1.1,0c8.3,0,25.9-7.2,31.1-15.8
			c3-5,5.3-9.5,7.2-13.5c4.9-10,8.2-16.6,17.2-16.6c2.6,0,5.7,0.6,9.4,1.8c0.4,0.1,0.6,0.5,0.5,0.9c-4.6,14.8-13.4,30.2-22,45
			c-15.3,26.6-28.6,49.6-12.3,60c0.2,0.1,0.3,0.3,0.3,0.5c0,0.2,0,0.4-0.2,0.6c-9,10.1-25.5,15.7-26.2,15.9
			C235.4,165.4,235.3,165.4,235.2,165.4z M45,144.8c-3.5,0-6.7-1.6-9.5-4.7c-7.8-8.4-11-26.3-10.3-35.5c3.1-39,24.4-65,34.6-77.5
			c3.2-3.9,5.6-6.9,5.8-8.2c0-0.2,0-0.4-0.2-0.6c-0.6-0.7-2.3-1-4.5-1c-10.3,0-30.1,7.2-41.9,23.1c-0.1,0.2-0.3,0.3-0.5,0.3
			c0,0,0,0-0.1,0c-0.2,0-0.4-0.1-0.5-0.2c-0.4-0.4-9.6-9.8-7.6-25.2c0-0.2,0.1-0.4,0.3-0.5C26.7,4,54.9,2.5,82.9,2.5
			c8.8,0,17.8,0.2,27.3,0.3c9.8,0.2,19.9,0.3,30,0.3c10.7,0,20.1-0.2,28.6-0.6l0,0c0.2,0,0.4,0.1,0.5,0.2c0.1,0.1,0.2,0.3,0.2,0.5
			c0,5-3.3,11.3-3.5,11.6c-0.1,0.2-0.4,0.4-0.7,0.4c0,0,0,0-0.1,0c0,0-3.7-0.3-9.5-0.3c-11.5,0-34,1-55,7.7c-25.2,8-41,21.7-47,40.7
			c-5.4,17-5.2,31.2,0.7,42.1c7,12.9,19.6,16.5,19.7,16.5c0.2,0.1,0.4,0.3,0.5,0.5s0,0.5-0.1,0.7C74.1,124.1,56.5,144.8,45,144.8z
			 M781.3,142.2c-0.2,0-0.3,0-0.4-0.1c-9.3-6.4-16.6-16.1-21.2-28C753.3,97.6,742,87.4,726,84c-4.6,7.7-13.7,22-24.7,34.3
			c-12.8,14.2-24.5,21.6-34.8,22.1l0,0c-0.1,0-0.2,0-0.2,0c-10.2-3.4-18.7-14-19.1-14.5c-0.2-0.2-0.2-0.5-0.1-0.7
			c0.1-0.2,0.3-0.4,0.5-0.5c29.5-7.9,51.2-28.3,62.1-40.5l-40.5-0.9c-0.3,0-0.5-0.2-0.7-0.4s-0.1-0.5,0.1-0.8l9.5-12.9
			c0.1-0.2,0.4-0.3,0.6-0.3l0,0c0.2,0,16.9,0.2,30.6,0.2c7.7,0,13.1-0.1,16-0.2c2.5-3.3,5-6.8,7.5-10.2
			c20.5-28.5,41.8-57.9,81.3-57.9c4.7,0,9.6,0.4,14.6,1.3c0.2,0,0.4,0.2,0.5,0.4s0.1,0.4,0,0.7L799,69.6h16.4c0.3,0,0.5,0.1,0.6,0.3
			c0.1,0.2,0.2,0.5,0.1,0.7L810.9,83c-0.1,0.3-0.4,0.4-0.7,0.5c-0.1,0-9.6,0.4-16.2,0.4c-0.2,1.6-0.6,3.2-0.9,4.7
			c-2.1,10.2-3.9,19,23,32.8c0.2,0.1,0.4,0.4,0.4,0.6c0,0.3-0.1,0.5-0.3,0.7c-1,0.7-25.6,16.2-34.6,19.5
			C781.5,142.2,781.4,142.2,781.3,142.2z M766.8,95.5l3.4-11h-14.4L766.8,95.5z M779.8,68.1c10.4-16.5,21.1-35,21.4-38.2
			c-19.2,0.4-47.5,24.7-59.1,38.2H779.8z M880.8,113c-7,0-10.7-2.9-10.7-5.8c0-2.8,4-8.8,9-16.3c5.5-8.2,11.7-17.5,12.9-23.3
			c1.4-6.9,0.5-11.6-0.1-14.6c-0.4-1.8-0.6-3.2-0.2-4.2c2-5.4,18-11.5,23.5-11.5c0.7,0,1.2,0.1,1.6,0.3c2.3,1,2,4.3,1.7,7.4
			c-0.2,1.9-0.4,4.3,0.3,4.9c0.2,0,0.3,0,0.5,0c4.7,0,9.6-3.3,13.9-6.2c3-2,5.8-3.9,8.3-4.5c0.1,0,0.1,0,0.2,0c0.1,0,0.1,0,0.2,0
			c5.1,1.3,9,9.5,11.5,14.8c0.5,1.1,0.9,2,1.3,2.8c0.1,0.3,0.1,0.6-0.1,0.8c-2.2,2.8-10.2,8.7-19.2,10.2h-0.1
			c-0.3,0-0.5-0.1-0.6-0.4c-0.4-0.7-0.8-1.5-1.2-2.4c-1.4-3.2-3.2-7.2-7.7-7.2c-0.3,0-0.6,0-0.9,0c-7.2,0.8-14.7,18.1-19,32.8
			c-3.7,12.5-13.3,21.1-20.5,22.1C883.7,112.9,882.2,113,880.8,113z M831.3,113c-0.2,0-0.4-0.1-0.6-0.3c-13.3-17-4.4-34.3,3.4-49.5
			c0.5-1,1.1-2.1,1.6-3.1c7-13.7,12.6-16.3,20.7-16.3c1.7,0,3.6,0.1,5.5,0.2c0.8,0.1,1.7,0.1,2.6,0.2c0.3,0,0.5,0.2,0.6,0.4
			c0.1,0.3,0.1,0.5-0.1,0.8c-11.4,15-16.9,28.6-16.2,40.3c0.6,10.6,6.2,16.5,8.6,18.5c0.2,0.2,0.3,0.4,0.3,0.6
			c0,0.2-0.1,0.4-0.3,0.6c-6.4,4.5-12.2,5.4-22.6,7.1l-3.3,0.5C831.4,113,831.3,113,831.3,113z M306.1,112.3
			c-6.4,0-10.9-1.9-13.3-5.7c-4.9-7.7-0.1-20.9,3.2-28.1c2-4.3,3.7-8.3,5.2-11.8c6.8-16,10.3-24.1,24.5-24.1c2.6,0,5.6,0.3,9.1,0.8
			c0.2,0,0.5,0.2,0.6,0.4c0.1,0.2,0.1,0.5,0,0.7c-14,22.8-19.7,36.4-17.3,41.5c0.6,1.3,1.8,2,3.5,2.3c0.6,0.1,1.2,0.1,1.8,0.1
			c10,0,21-10.8,26.6-21.5c1.3-2.4,2.4-4.6,3.4-6.5c5.6-11.2,8.2-16.3,20.6-16.3c1.9,0,4.1,0.1,6.7,0.4c0.2,0,0.5,0.2,0.6,0.4
			c0.1,0.2,0.1,0.5,0,0.7c-19.8,38.8-8.2,45.2-1.9,48.6c2.2,1.2,4.1,2.3,3.8,4.3c0,0.2-0.1,0.3-0.2,0.4
			c-5.9,5.5-19.8,13.3-29.2,13.3c-1.2,0-2.4-0.1-3.4-0.4c-4.9-1.3-5.7-6.8-6.3-11.2c-0.5-3.8-0.9-6.1-2.7-6.1c-0.2,0-0.5,0-0.7,0.1
			c-0.4,0.1-1.7,1.3-2.9,2.5c-4.9,4.5-15,13.8-28.2,15C308.2,112.2,307.1,112.3,306.1,112.3z M507.3,112c-3.5,0-5.7-1.4-6-3.7
			c-0.2-1.5,0.3-1.8,1.2-2.4c1.7-1.1,6.9-4.5,17.6-30c12.9-30.8,23.5-33.4,34.1-33.4c1.4,0,2.8,0,4.2,0.1c0.8,0,1.6,0.1,2.5,0.1
			c0.3,0,0.5,0.2,0.6,0.4s0.1,0.5,0,0.8c-8.4,12.3-16.5,26.7-15,28.4c0.3,0.4,0.7,0.5,1.2,0.5c2.7,0,7.8-4.5,13.7-9.8
			c10.3-9.2,23.2-20.6,35.9-20.6c0.6,0,1.3,0,1.9,0.1c1.3,0.1,2.4,0.9,3.2,2.2c1.8,3.1,1.7,8.7-0.4,13.6
			c-13.6,32.8-8.8,38.3-6.2,41.3c0.8,1,1.6,1.9,1.4,3.3c-0.7,4.2-12.8,7.9-21.9,7.9c-3.3,0-7.7-0.5-9.7-2.9
			c-3.9-4.4-0.3-16.2,2.3-24.8c0.9-2.9,1.9-6.2,1.7-6.8c0-0.1-0.5-0.5-2-0.5c-5.1,0-15,4.3-26.3,16.4C528.4,105.9,515,112,507.3,112
			z M411.6,111.9c-6.1,0-10.7-1.9-13.7-5.5c-4-4.8-5-12.6-3-23c5.1-26.5,33.1-43,56-43c2.9,0,5.8,0.3,8.5,0.8
			c0.4,0.1,0.6,0.4,0.6,0.8c0,0.7-0.9,18.2-13.2,22.4c-3.5,1.2-7,1.4-9.7,1.4c-1.4,0-2.9-0.1-4.3-0.1c-1.4-0.1-2.7-0.1-4.1-0.1
			c-6,0-10.8,1.1-14.9,6.4c-1.7,2.2-1.8,6-0.1,9.4c2.2,4.5,6.8,7.2,12.2,7.2c0.9,0,1.9-0.1,2.9-0.2c16.2-2.5,25.5-17.8,33-30.1
			c4.9-8.1,8.8-14.4,13.4-15.5c2.1-0.5,4.2-0.8,6-0.8c7,0,9.6,3.5,9.7,3.7c0.2,0.3,0.2,0.6,0,0.9c-10.8,15.8-14.4,28.6-10.8,38.1
			c3.7,9.7,14,12.4,14.1,12.4c0.3,0.1,0.5,0.3,0.6,0.6s-0.1,0.6-0.3,0.7c-0.8,0.6-18.5,13.5-30,13.5c-1,0-2-0.1-2.9-0.3
			c-4.4-1.1-6.2-6.9-7.6-11.6c-0.7-2.3-1.6-5.4-2.4-5.4c-0.1,0-0.3,0-0.6,0.3C438.8,105,422.9,111.9,411.6,111.9z M100.3,111.9
			c-6.1,0-10.7-1.9-13.7-5.5c-4-4.8-5-12.6-3-23c5.1-26.5,33.1-43,56-43c2.9,0,5.8,0.3,8.5,0.8c0.4,0.1,0.6,0.4,0.6,0.8
			c0,0.7-0.9,18.2-13.2,22.4c-3.5,1.2-7,1.4-9.7,1.4c-1.4,0-2.9-0.1-4.3-0.1c-1.4-0.1-2.7-0.1-4.1-0.1c-6,0-10.8,1.1-14.9,6.4
			c-1.7,2.2-1.8,6-0.1,9.4c2.2,4.5,6.8,7.2,12.2,7.2c0.9,0,1.9-0.1,2.9-0.2c16.2-2.5,25.5-17.8,33-30.1c4.9-8.1,8.8-14.4,13.4-15.5
			c2.1-0.5,4.2-0.8,6-0.8c7,0,9.6,3.5,9.7,3.7c0.2,0.3,0.2,0.6,0,0.9c-10.7,15.7-14.3,28.5-10.7,38c3.7,9.7,14,12.3,14.1,12.4
			c0.3,0.1,0.5,0.3,0.6,0.6s-0.1,0.6-0.3,0.7c-0.8,0.6-18.5,13.5-30,13.5c-1,0-2-0.1-2.9-0.3c-4.4-1.1-6.2-6.9-7.6-11.6
			c-0.7-2.3-1.6-5.4-2.4-5.4c-0.1,0-0.3,0-0.6,0.3C127.5,105,111.6,111.9,100.3,111.9z M864,32.1c-3.3,0-9-0.2-10.4-1.3
			c-0.2-0.2-0.3-0.5-0.3-0.8c3.9-13.2,9.2-15.8,17.1-15.8c1.9,0,3.9,0.1,6,0.3c0.8,0.1,1.7,0.1,2.6,0.2c0.2,0,0.4,0.1,0.6,0.3
			c0.1,0.2,0.2,0.4,0.1,0.6c-0.6,2-5.2,15.1-8,16C870.7,32,867,32.1,864,32.1L864,32.1z"/>
		<path class="st2" d="M814,1.5c4.6,0,9.4,0.4,14.5,1.3l-30.6,67.6h17.6l-5.2,12.4c0,0-10.1,0.4-16.8,0.4
			c-1.5,12.4-9.7,22.5,22.5,38.9c0,0-25.5,16.1-34.4,19.5c-9.7-6.7-16.7-16.8-21-27.7c-3-7.7-11.2-25.8-34.8-30.7
			c-10.7,18.2-35.9,55.4-59.1,56.5c-10.1-3.4-18.7-14.2-18.7-14.2c30.7-8.2,52.9-29.8,63.5-41.9l-42.1-0.9l9.5-12.9
			c0,0,16.7,0.2,30.6,0.2c7,0,13.2,0,16.3-0.2C748.3,39.1,769.8,1.5,814,1.5 M740.5,68.8h39.7c0,0,25.1-39.7,21.3-39.7l0,0
			C781.7,29.2,752.1,54.6,740.5,68.8 M771.2,83.8H754l13.1,13.1L771.2,83.8 M83,3.3c18,0,37.5,0.7,57.3,0.7c9.5,0,19.1-0.2,28.7-0.6
			c0,4.9-3.4,11.2-3.4,11.2s-3.6-0.3-9.6-0.3c-24.5,0-88.5,4.4-102.7,48.9c-15.7,49.4,21,59.5,21,59.5S56.3,144,45.1,144
			C31.2,144,25,117,26,104.7C30.1,53,65.7,25,66.4,19c0.2-1.6-1.9-2.5-5.4-2.5c-9.7,0-30.1,6.7-42.5,23.4c0,0-9.4-9.4-7.4-24.6
			C26.4,5.2,52.5,3.3,83,3.3 M168.9,3.3L168.9,3.3 M870.5,15c2.6,0,5.4,0.3,8.6,0.5c-1,3.6-5.5,14.8-7.5,15.5
			c-0.8,0.3-4.1,0.5-7.5,0.5c-4.3,0-8.9-0.3-9.9-1.1C857.9,17.3,863,15,870.5,15 M915.1,37.9c0.6,0,1,0.1,1.3,0.2
			c3.4,1.5-0.6,10.9,2.1,12.4c0.2,0,0.5,0,0.7,0c8.2,0,16.5-9.2,22.3-10.7c5.8,1.5,10.1,12.9,12.4,17.2c-2.2,2.7-9.9,8.4-18.7,9.9
			c-1.8-3-3.2-10-9.5-10c-0.3,0-0.6,0-1,0.1c-8.3,0.9-16.1,21.1-19.7,33.3s-13.1,20.6-19.9,21.6c-1.6,0.2-3,0.3-4.4,0.3
			c-6.7,0-10-2.7-10-5.1c0-5.6,19.7-28.4,21.9-39.5c2.2-11-1.3-16.3-0.4-18.7C894.2,44.1,909.7,37.9,915.1,37.9 M256.5,40.9
			c2.6,0,4.9,0.1,6.8,0.2c0,0-4.1,22.1-13.5,22.9c-11.2,0.9-27.4-0.3-31.2,7.7c-4.7,9.9,2.4,14.8,10.6,15.5c0.4,0,0.8,0.1,1.2,0.1
			c8.8,0,26.4-7.4,31.8-16.1C272.7,53.9,274,41.4,286,41.4c2.5,0,5.5,0.5,9.1,1.7C282.4,84.3,234.8,132.2,261,149
			c-9,10.1-25.8,15.7-25.8,15.7c-9.4-6.4-10.5-12.1-8.5-25.8c2.4-16.9,27.8-43.8,20.5-46.4c-0.1,0-0.2,0-0.3,0
			c-3.3,0-11.7,18.4-29.8,18.4c-2.8,0-5.9-0.5-9.3-1.5c-7.1-2.2-17.5-13.5-3-35.6C224.4,44,244.1,40.9,256.5,40.9 M451,41.1
			c2.9,0,5.7,0.3,8.3,0.8c0,0-0.7,17.6-12.7,21.7c-3.1,1.1-6.3,1.3-9.4,1.3c-2.8,0-5.6-0.2-8.4-0.2c-5.7,0-11,0.9-15.5,6.7
			c-4.1,5.3,0.4,17.8,12.7,17.8c1,0,2-0.1,3-0.2c26.9-4.1,35.2-43,46.4-45.7c2.2-0.5,4.2-0.7,5.9-0.7c6.7,0,9.1,3.4,9.1,3.4
			c-29.6,43.4,3.7,51.7,3.7,51.7s-18.2,13.4-29.5,13.4c-0.9,0-1.8-0.1-2.7-0.3c-6.8-1.7-6.9-16.9-10.2-16.9c-0.3,0-0.7,0.1-1,0.5
			c-11.4,9.4-27.2,16.8-39,16.8s-19.9-7.4-16-27.7C400.6,57.8,428.1,41.1,451,41.1 M139.7,41.1c2.9,0,5.7,0.3,8.3,0.8
			c0,0-0.7,17.6-12.7,21.7c-3.1,1.1-6.3,1.3-9.4,1.3c-2.8,0-5.6-0.2-8.4-0.2c-5.7,0-11,0.9-15.5,6.7c-4.1,5.3,0.4,17.8,12.7,17.8
			c1,0,2-0.1,3-0.2c26.9-4.1,35.2-43,46.4-45.7c2.2-0.5,4.2-0.7,5.9-0.7c6.7,0,9.1,3.4,9.1,3.4c-29.6,43.4,3.7,51.7,3.7,51.7
			s-18.2,13.4-29.5,13.4c-0.9,0-1.8-0.1-2.7-0.3c-6.8-1.7-6.9-16.9-10.2-16.9c-0.3,0-0.7,0.1-1,0.5c-11.4,9.4-27.2,16.8-39,16.8
			s-19.9-7.4-16-27.7C89.3,57.8,116.8,41.1,139.7,41.1 M597.2,43.1c0.6,0,1.2,0,1.8,0.1c4,0.4,5.1,7.9,2.2,14.8
			c-17.8,43.1-4.1,40.1-4.9,44.8c-0.6,3.6-12.2,7.2-21.1,7.2c-4.1,0-7.5-0.8-9.2-2.6c-5.2-6,4.9-28.8,4.1-31.3c-0.2-0.6-1.1-1-2.7-1
			c-4.7,0-14.8,3.7-26.9,16.6c-12.8,13.7-26.2,19.6-33.3,19.6c-3.1,0-5-1.1-5.2-3.1c-0.5-3.7,3.7,3.7,18.7-32
			c12.5-29.9,22.4-32.9,33.4-32.9c2.2,0,4.4,0.1,6.7,0.2c0,0-17.8,26.1-15,29.4c0.5,0.5,1,0.8,1.7,0.8
			C555.4,73.5,577.1,43.1,597.2,43.1 M325.5,43.4c2.6,0,5.6,0.3,9,0.8c-19.6,31.9-21.7,43.6-13.2,44.9c0.6,0.1,1.3,0.1,1.9,0.1
			c9.7,0,21.1-10.2,27.3-21.8c8.6-16.1,9.3-22.4,23.3-22.4c1.9,0,4.1,0.1,6.6,0.4c-26.6,52,2.7,46.8,1.9,53.2
			c-6,5.7-19.6,13.1-28.7,13.1c-1.1,0-2.2-0.1-3.2-0.4c-8.2-2.2-3.7-17.3-9.2-17.3c-0.3,0-0.6,0-0.9,0.1
			c-2.2,0.5-13.9,15.9-31.1,17.4c-1.2,0.1-2.2,0.2-3.3,0.2c-18.9,0-16.5-17.3-9.4-32.7C307.6,54.8,308.8,43.4,325.5,43.4
			 M856.4,44.5c2.4,0,5.1,0.2,8.1,0.4c-26.6,35-14.4,53.9-7.5,59.9c-6.9,4.9-12.9,5.4-25.6,7.5c-13.8-17.8-3.2-35.6,5.1-51.8
			C843.3,46.7,848.8,44.5,856.4,44.5 M814,0c-17.9,0-33.8,6.1-48.5,18.7c-12.9,11-23.4,25.5-33.5,39.6c-2.4,3.3-4.8,6.7-7.2,9.9
			c-2.9,0.1-8.2,0.1-15.6,0.1c-13.8,0-30.5-0.2-30.6-0.2l0,0c-0.5,0-0.9,0.2-1.2,0.6l-9.5,12.9c-0.3,0.4-0.4,1-0.1,1.5
			c0.2,0.5,0.8,0.8,1.3,0.8l38.9,0.8c-11.1,12.3-32.3,31.5-60.6,39.1c-0.5,0.1-0.9,0.5-1,1c-0.2,0.5-0.1,1,0.2,1.4
			c0.4,0.5,9,11.2,19.4,14.7c0.2,0.1,0.3,0.1,0.5,0.1c0,0,0,0,0.1,0c10.5-0.5,22.4-8,35.3-22.4c10.9-12.1,19.8-26.1,24.5-34
			c15.5,3.5,26.5,13.5,32.7,29.5c4.7,12.1,12.1,21.9,21.5,28.4c0.3,0.2,0.6,0.3,0.9,0.3c0.2,0,0.4,0,0.5-0.1
			c9-3.4,33.7-18.9,34.7-19.6c0.5-0.3,0.7-0.8,0.7-1.3s-0.3-1-0.8-1.3c-26.4-13.5-24.7-22.1-22.6-32c0.3-1.3,0.6-2.7,0.8-4.1
			c6.6,0,15.5-0.4,15.6-0.4c0.6,0,1.1-0.4,1.3-0.9l5.2-12.4c0.2-0.5,0.1-1-0.1-1.4c-0.3-0.4-0.7-0.7-1.2-0.7h-15.3L830,3.1
			c0.2-0.4,0.2-0.9,0-1.3c-0.2-0.4-0.6-0.7-1.1-0.8C823.6,0.4,818.7,0,814,0L814,0z M743.8,67.4c11.8-13.4,38.1-35.5,56.4-36.6
			c-1.6,4.7-11.3,21.5-20.8,36.6H743.8L743.8,67.4z M757.6,85.3h11.6l-2.8,8.8L757.6,85.3L757.6,85.3z M83,1.8
			c-28.1,0-56.4,1.5-72.7,12.4c-0.4,0.2-0.6,0.6-0.7,1C7.5,30.9,17,40.6,17.4,41c0.3,0.3,0.7,0.4,1.1,0.4h0.1c0.4,0,0.8-0.3,1.1-0.6
			C31.3,25.1,50.8,18,61,18c2.9,0,3.9,0.6,4,0.8c-0.1,1-2.8,4.3-5.7,7.8c-10.3,12.6-31.7,38.7-34.8,78c-0.7,9.3,2.6,27.4,10.5,36
			c3,3.2,6.4,4.9,10.1,4.9c11.8,0,29.6-21,30.3-21.9c0.3-0.4,0.4-0.9,0.3-1.4c-0.2-0.5-0.5-0.9-1-1c-0.1,0-12.5-3.6-19.3-16.2
			c-5.8-10.7-6-24.6-0.6-41.4c6-18.7,21.6-32.2,46.5-40.2c20.9-6.7,43.3-7.7,54.8-7.7c5.8,0,9.4,0.3,9.5,0.3h0.1
			c0.6,0,1.1-0.3,1.3-0.8c0.1-0.3,3.5-6.7,3.5-11.8V3.3c0-0.8-0.7-1.5-1.5-1.5l0,0c0,0,0,0-0.1,0c-8.5,0.4-17.9,0.6-28.6,0.6
			c-10.1,0-20.2-0.2-30-0.3C100.8,1.9,91.8,1.8,83,1.8L83,1.8z M870.5,13.5c-8.3,0-13.8,2.7-17.8,16.3c-0.2,0.6,0,1.2,0.5,1.6
			c0.4,0.4,1.8,1.4,10.9,1.4c2.3,0,6.6-0.1,8-0.5c3.5-1.1,8.4-16.4,8.5-16.5c0.1-0.4,0-0.9-0.2-1.3c-0.3-0.4-0.7-0.6-1.1-0.6
			c-0.9-0.1-1.7-0.1-2.6-0.2C874.4,13.6,872.4,13.5,870.5,13.5L870.5,13.5z M915.1,36.4c-5.9,0-22,6.3-24.2,12
			c-0.5,1.3-0.2,2.7,0.2,4.6c0.6,3,1.5,7.5,0.1,14.3c-1.2,5.7-7.3,14.9-12.8,23.1c-5.7,8.5-9.1,13.8-9.1,16.7
			c0,3.2,3.6,6.6,11.5,6.6c1.4,0,3-0.1,4.6-0.3c7.5-1.1,17.4-9.8,21.2-22.6c4.6-15.6,12-31.6,18.4-32.2c0.3,0,0.6,0,0.8,0
			c3.7,0,5.3,2.9,7,6.8c0.4,0.9,0.8,1.7,1.2,2.4c0.3,0.5,0.8,0.7,1.3,0.7c0.1,0,0.2,0,0.3,0c9.2-1.6,17.3-7.6,19.6-10.5
			c0.4-0.5,0.4-1.1,0.2-1.6c-0.4-0.7-0.8-1.6-1.3-2.7c-2.6-5.5-6.5-13.8-12-15.3c-0.1,0-0.2,0-0.4,0c-0.1,0-0.2,0-0.4,0
			c-2.6,0.6-5.5,2.6-8.5,4.6c-4.2,2.8-9,6-13.5,6c0,0,0,0-0.1,0c-0.2-0.7-0.1-2.9,0-4.1c0.3-3.3,0.6-6.9-2.2-8.2
			C916.6,36.6,915.9,36.4,915.1,36.4L915.1,36.4z M256.5,39.4c-5.6,0-14.2,0.6-23.8,5.4c-10.5,5.3-20.3,14.7-29.1,28
			c-8.7,13.3-8.3,22.3-6.4,27.6c2.1,5.8,6.6,9.1,10.2,10.3c3.3,1.1,6.6,1.6,9.7,1.6c13.4,0,21.6-9.4,26.5-15
			c1.2-1.3,2.6-2.9,3.2-3.3c0,0,0,0.1,0.1,0.1c0.7,2.1-4.1,9.8-8,16c-5.9,9.4-12.5,20-13.7,28.6c-2,14.2-0.9,20.4,9.2,27.3
			c0.3,0.2,0.5,0.3,0.8,0.3c0.2,0,0.3,0,0.5-0.1c0.7-0.2,17.3-5.9,26.5-16.1c0.3-0.3,0.4-0.8,0.4-1.2c-0.1-0.4-0.3-0.8-0.7-1.1
			c-15.7-10.1-2.6-32.8,12.6-59c8.6-14.9,17.5-30.4,22.1-45.2c0.2-0.8-0.2-1.6-1-1.9c-3.7-1.2-6.9-1.8-9.6-1.8
			c-9.5,0-13,7.1-17.9,17c-2,4-4.2,8.5-7.2,13.5c-5.1,8.4-22.3,15.4-30.5,15.4c-0.4,0-0.7,0-1,0c-4.8-0.4-8.4-2.2-9.9-4.9
			c-1.3-2.2-1.1-5.1,0.5-8.5c2.7-5.7,13.5-6.1,23-6.5c2.5-0.1,4.8-0.2,7-0.4c10.2-0.8,14.4-21.7,14.8-24.1c0.1-0.4,0-0.9-0.3-1.2
			c-0.3-0.3-0.7-0.5-1.1-0.6c-0.6,0-1.2,0-1.8-0.1C260,39.5,258.3,39.4,256.5,39.4L256.5,39.4z M451,39.6
			c-11.9,0-24.7,4.3-35.3,11.9c-11.5,8.2-19.2,19.5-21.5,31.7c-2.1,10.7-1,18.6,3.1,23.6c3.2,3.8,8,5.8,14.3,5.8
			c11.4,0,27.5-6.9,40-17.2l0,0c0.6,0.7,1.3,3.1,1.8,4.7c1.5,4.9,3.3,10.9,8.1,12.1c0.9,0.2,1.9,0.3,3,0.3
			c11.7,0,29.6-13.1,30.4-13.7c0.5-0.3,0.7-0.9,0.6-1.5c-0.1-0.6-0.5-1-1.1-1.2c-0.1,0-10-2.6-13.6-11.9
			c-3.5-9.2,0.1-21.8,10.7-37.4c0.4-0.5,0.3-1.2,0-1.7c-0.1-0.2-2.9-4-10.3-4c-1.9,0-4,0.3-6.2,0.8c-4.9,1.2-8.9,7.6-13.9,15.9
			c-7.4,12.2-16.6,27.4-32.4,29.8c-1,0.1-1.9,0.2-2.8,0.2c-7.4,0-10.5-4.7-11.5-6.8c-1.5-3.2-1.5-6.6,0-8.6c4-5.1,8.6-6.2,14.4-6.2
			c1.3,0,2.6,0.1,4,0.1c1.4,0.1,2.9,0.1,4.3,0.1c2.7,0,6.3-0.2,9.9-1.4c12.8-4.4,13.7-22.3,13.7-23.1c0-0.7-0.5-1.4-1.2-1.5
			C456.9,39.9,454,39.6,451,39.6L451,39.6z M139.7,39.6c-11.9,0-24.7,4.3-35.3,11.9C92.9,59.7,85.2,71,82.9,83.2
			c-2.1,10.7-1,18.6,3.1,23.6c3.2,3.8,8,5.8,14.3,5.8c11.4,0,27.5-6.9,40-17.2l0,0c0.6,0.7,1.3,3.1,1.8,4.7
			c1.5,4.9,3.3,10.9,8.1,12.1c0.9,0.2,1.9,0.3,3,0.3c11.7,0,29.6-13.1,30.4-13.7c0.5-0.3,0.7-0.9,0.6-1.5s-0.5-1-1.1-1.2
			c-0.1,0-10-2.6-13.6-11.9c-3.5-9.2,0.1-21.8,10.7-37.4c0.4-0.5,0.3-1.2,0-1.7c-0.1-0.2-2.9-4-10.3-4c-1.9,0-4,0.3-6.2,0.8
			c-4.9,1.2-8.9,7.6-13.9,15.9c-7.4,12.2-16.6,27.4-32.4,29.8c-1,0.1-1.9,0.2-2.8,0.2c-7.4,0-10.5-4.7-11.5-6.8
			c-1.5-3.2-1.5-6.6,0-8.6c4-5.1,8.6-6.2,14.4-6.2c1.3,0,2.6,0.1,4,0.1c1.4,0.1,2.9,0.1,4.3,0.1c2.7,0,6.3-0.2,9.9-1.4
			c12.8-4.4,13.7-22.3,13.7-23.1c0-0.7-0.5-1.4-1.2-1.5C145.6,39.9,142.6,39.6,139.7,39.6L139.7,39.6z M597.2,41.6
			c-13,0-26,11.5-36.4,20.8c-5.5,4.9-10.8,9.6-13.2,9.6c-0.3,0-0.4-0.1-0.5-0.2c-0.1-0.5-0.1-3.2,6.9-14.9c3.9-6.5,8-12.6,8.1-12.7
			c0.3-0.5,0.3-1,0.1-1.5c-0.3-0.5-0.7-0.8-1.3-0.8c-0.8,0-1.6,0-2.5-0.1c-1.4,0-2.9-0.1-4.3-0.1c-10.8,0-21.7,2.6-34.7,33.8
			c-10.6,25.2-15.6,28.6-17.3,29.7c-1,0.7-1.8,1.3-1.5,3.1c0.3,2.8,2.8,4.4,6.7,4.4c7.8,0,21.5-6.2,34.4-20
			c11.9-12.7,21.8-16.1,25.8-16.1c0.6,0,1,0.1,1.2,0.1c-0.1,1.1-0.9,3.8-1.7,6.2c-2.6,8.8-6.2,20.7-2.1,25.5
			c2.3,2.6,6.9,3.1,10.3,3.1c8.6,0,21.8-3.6,22.6-8.5c0.3-1.8-0.7-2.9-1.5-3.9c-2.3-2.7-7.1-8.2,6.3-40.6c2.2-5.3,2.3-11,0.3-14.3
			c-0.9-1.5-2.2-2.4-3.8-2.6C598.5,41.6,597.9,41.6,597.2,41.6L597.2,41.6z M325.5,41.9c-14.7,0-18.4,8.7-25.2,24.5
			c-1.5,3.5-3.2,7.4-5.1,11.7c-3.4,7.3-8.2,20.8-3.1,28.8c2.6,4,7.3,6.1,13.9,6.1c1.1,0,2.2-0.1,3.4-0.2
			c13.4-1.2,23.7-10.6,28.7-15.2c1.1-1,2.3-2.1,2.7-2.3c0.2,0,0.3-0.1,0.5-0.1c1.1,0,1.5,2.2,2,5.5c0.6,4.4,1.4,10.3,6.9,11.8
			c1.1,0.3,2.3,0.4,3.5,0.4c9.9,0,23.8-8,29.7-13.5c0.2-0.2,0.4-0.5,0.5-0.9c0.4-2.6-2-3.8-4.2-5.1c-3.3-1.8-7.3-4-8.5-10.3
			c-1.5-8,2.1-20.5,10.7-37.3c0.2-0.4,0.2-1,0-1.4s-0.7-0.7-1.2-0.8c-2.6-0.2-4.8-0.4-6.8-0.4c-12.9,0-15.5,5.2-21.3,16.7
			c-1,1.9-2.1,4.1-3.3,6.5c-6.4,12-17.5,21.1-26,21.1c-0.6,0-1.2,0-1.7-0.1c-2-0.3-2.7-1.2-3-1.9c-2.2-4.8,3.6-18.5,17.3-40.7
			c0.3-0.4,0.3-1,0.1-1.4c-0.2-0.5-0.6-0.8-1.1-0.9C331.2,42.1,328.2,41.9,325.5,41.9L325.5,41.9z M856.4,43
			c-8.3,0-14.2,2.7-21.3,16.7c-0.5,1-1,2.1-1.6,3.1c-7.9,15.4-16.9,32.9-3.3,50.4c0.3,0.4,0.7,0.6,1.2,0.6c0.1,0,0.2,0,0.2,0
			c1.2-0.2,2.3-0.4,3.3-0.5c10.5-1.7,16.3-2.6,22.9-7.2c0.4-0.3,0.6-0.7,0.6-1.1c0-0.5-0.2-0.9-0.5-1.2c-2.3-2-7.7-7.7-8.3-18
			c-0.7-11.5,4.7-24.9,16-39.8c0.3-0.4,0.4-1,0.2-1.5s-0.7-0.8-1.3-0.9c-0.9,0-1.7-0.1-2.6-0.2C860,43.1,858.1,43,856.4,43L856.4,43
			z"/>
	</g>
	<g>
		<path class="st1" d="M601.3,246.1l-8.9,13.7h-15.5l38.9-58h18.7l9.4,58h-15l-2.2-13.7H601.3z M626.1,236.4
			c-1.7-12-2.7-20.2-3.1-25.5h-0.1c-3.3,5.8-9.2,15.1-15.9,25.5H626.1z"/>
		<path class="st1" d="M651.8,259.8l16.1-61.4h14.2l-16.2,61.4H651.8z"/>
		<path class="st1" d="M726.5,249.2c-1.2,4.5-2.4,9.4-2.4,10.7h-13.9c0.1-1.2,0.5-3.5,0.8-4.9c-2.7,2.8-6.3,5.8-16.4,5.8
			c-10.7,0-15.2-6-15.2-11.2c0-12.1,13.2-15.3,25.2-16.4c4.5-0.3,8.7-0.3,12.1-0.4l0.5-2c0.8-3.1,0.8-7.3-6.9-7.3
			c-6.8,0-8,3-9.2,5.1h-14.5c2-7,8.1-13,24.9-13c13.2,0,22.9,4.4,19.9,15.8L726.5,249.2z M714.7,240.3c-3.5,0-6.6,0.2-9.4,0.5
			c-8,1-11.1,3.1-11.1,6.8c0,2.5,2,4.5,6.6,4.5c9.8,0,12.3-6.4,13.7-11L714.7,240.3z"/>
		<path class="st1" d="M750.8,246.3c0.4,3.8,3.5,5.8,9.4,5.8c5.6,0,7.8-2,7.8-4.9c0-2.8-2.9-4.2-9.6-5.9c-12.7-3.1-16.6-6.7-16.6-12
			c0-7.9,7.7-13.9,22.1-13.9c15.1,0,21.8,6.1,21.5,13.1H771c-0.2-2.3-1.7-4.7-7.8-4.7c-3.5,0-7.1,1-7.1,4c0,2.3,2.9,3.2,9.5,4.9
			c12.6,3.2,17.1,7.2,17.1,13.2c0,10-11.2,14.6-24.1,14.6c-14.4,0-22.8-5.2-22.2-14.3L750.8,246.3L750.8,246.3z"/>
		<path class="st1" d="M809.4,234c5.2-4.1,15.7-12.2,23.1-17.7h17.1c-7.6,5.8-15.5,11.5-23,17l12.6,26.5h-16l-7.7-19.4l-9.1,5.7
			l-3.6,13.7h-14.2l16.1-61.4h14.2L809.4,234z"/>
		<path class="st1" d="M892.5,249.2c-1.2,4.5-2.4,9.4-2.4,10.7h-13.9c0.1-1.2,0.5-3.5,0.8-4.9c-2.7,2.8-6.3,5.8-16.4,5.8
			c-10.7,0-15.2-6-15.2-11.2c0-12.1,13.2-15.3,25.2-16.4c4.5-0.3,8.7-0.3,12.1-0.4l0.5-2c0.8-3.1,0.8-7.3-6.9-7.3
			c-6.8,0-8,3-9.2,5.1h-14.5c2-7,8.1-13,24.9-13c13.2,0,22.9,4.4,19.9,15.8L892.5,249.2z M880.7,240.3c-3.5,0-6.6,0.2-9.4,0.5
			c-8,1-11.1,3.1-11.1,6.8c0,2.5,2,4.5,6.6,4.5c9.8,0,12.3-6.4,13.7-11L880.7,240.3z"/>
	</g>
	<g>
		<path class="st1" d="M45.6,201h-8v7.4h8.9v2.2H35v-20.5h11.1v2.2h-8.4v6.5h8L45.6,201L45.6,201z"/>
		<path class="st1" d="M52.3,207.4c1.2,0.7,2.9,1.3,4.7,1.3c2.7,0,4.3-1.4,4.3-3.5c0-1.9-1.1-3-3.9-4.1c-3.3-1.2-5.4-2.9-5.4-5.8
			c0-3.2,2.6-5.6,6.6-5.6c2.1,0,3.6,0.5,4.5,1l-0.7,2.2c-0.7-0.4-2-1-3.9-1c-2.8,0-3.9,1.7-3.9,3.1c0,1.9,1.2,2.9,4.1,4
			c3.5,1.3,5.2,3,5.2,6c0,3.2-2.3,5.9-7.2,5.9c-2,0-4.1-0.6-5.2-1.3L52.3,207.4z"/>
		<path class="st1" d="M74.3,192.3h-6.2V190h15.2v2.3H77v18.3h-2.7C74.3,210.6,74.3,192.3,74.3,192.3z"/>
		<path class="st1" d="M85.8,209c0-1.1,0.8-1.9,1.8-1.9s1.8,0.8,1.8,1.9s-0.7,1.9-1.8,1.9C86.5,210.9,85.8,210.1,85.8,209z"/>
		<path class="st1" d="M109.6,193.3L109.6,193.3l-3.5,1.9l-0.5-2l4.3-2.3h2.3v19.7h-2.6V193.3z"/>
		<path class="st1" d="M123.7,208.7c0.6,0.1,1.2,0,2.2-0.1c1.6-0.2,3-0.9,4.1-1.9c1.3-1.2,2.3-2.9,2.6-5.3h-0.1
			c-1.1,1.3-2.7,2.1-4.7,2.1c-3.6,0-5.8-2.7-5.8-6.1c0-3.7,2.7-7,6.8-7c4,0,6.5,3.3,6.5,8.3c0,4.4-1.5,7.4-3.4,9.3
			c-1.5,1.5-3.6,2.4-5.8,2.6c-1,0.2-1.8,0.2-2.5,0.2L123.7,208.7L123.7,208.7z M124.6,197.3c0,2.5,1.5,4.2,3.8,4.2
			c1.8,0,3.2-0.9,3.9-2.1c0.2-0.2,0.2-0.5,0.2-1c0-3.4-1.2-6-4-6C126.3,192.5,124.6,194.5,124.6,197.3z"/>
		<path class="st1" d="M153.3,190.8v1.8l-8.6,18h-2.8l8.6-17.5V193h-9.7v-2.2H153.3z"/>
		<path class="st1" d="M171.7,190.8v1.8l-8.6,18h-2.8l8.6-17.5V193h-9.7v-2.2H171.7z"/>
	</g>
</g>
</svg>
