<?xml version="1.0" encoding="utf-8"?>
<!-- Generator: Adobe Illustrator 23.0.5, SVG Export Plug-In . SVG Version: 6.00 Build 0)  -->
<svg version="1.1" id="Слой_1" xmlns="http://www.w3.org/2000/svg" xmlns:xlink="http://www.w3.org/1999/xlink" x="0px" y="0px"
	 width="566.929px" height="149.7px" viewBox="0 0 566.929 149.7" enable-background="new 0 0 566.929 149.7" xml:space="preserve">
<g>
	<path fill="#1C005E" d="M73.01,123.698c8.94-0.844,17.92-0.456,26.886-0.255c-19.689,2.037-40.29,2.949-58.25,12.224
		c-5.978,3.002-10.857,7.921-13.645,14.034c-7.158-2.011-14.208-4.343-21.298-6.581C25.991,129.622,49.969,125.307,73.01,123.698
		L73.01,123.698z M102.416,109.343c4.798-8.042,10.87-15.346,16.553-22.799c0.857,12.304-4.477,24.058-11.46,33.87
		C105.619,116.822,103.623,113.23,102.416,109.343L102.416,109.343z M103.328,94.063c3.351-4.383,6.178-9.181,9.958-13.228
		c-2.131,9.141-7.224,17.37-13.417,24.313C97.068,100.859,100.982,97.347,103.328,94.063L103.328,94.063z M93.785,91.557
		c4.329-5.778,8.176-11.929,12.88-17.398c-0.576,8.511-5.12,15.936-9.959,22.705C95.729,95.095,94.749,93.326,93.785,91.557
		L93.785,91.557z M113.38,74.669c0.335-1.93,2.131-3.15,3.19-4.691c0.455,4.021,0.978,8.015,1.46,12.023
		C116.288,79.722,113.89,77.604,113.38,74.669L113.38,74.669z M90.662,82.752c3.284-4.88,6.595-9.798,10.642-14.087
		c-0.871,7.211-4.637,13.671-9.717,18.724C91.157,85.861,90.849,84.32,90.662,82.752L90.662,82.752z M86.064,74.588
		c2.908-4.088,5.67-8.296,9.114-11.969c0.067,6.165-2.775,11.741-6.527,16.446C87.766,77.577,86.909,76.09,86.064,74.588
		L86.064,74.588z M104.815,64.107c0.804-0.751,2.399-2.252,3.203-3.002c0.147,3.86,0.536,7.707,0.871,11.553
		C107.054,70.179,103.689,67.579,104.815,64.107L104.815,64.107z M82.083,65.394c2.332-3.097,4.624-6.219,7.332-8.994
		c0.309,5.308-2.064,10.079-5.227,14.167C83.477,68.839,82.767,67.123,82.083,65.394L82.083,65.394z M109.627,59.255
		c-1.381-2.506,1.662-4.035,2.949-5.75c0.509,3.914,0.965,7.841,1.488,11.755C112.509,63.33,110.632,61.561,109.627,59.255
		L109.627,59.255z M96.05,56.012c0.871-1.488,2.024-2.775,3.123-4.088c0.577,3.847,1.085,7.707,1.528,11.566
		C98.757,61.293,96.639,59,96.05,56.012L96.05,56.012z M77.567,55.865c1.353-2.332,2.72-4.638,4.182-6.889
		c1.716,4.315,0.804,8.859-1.462,12.772C79.349,59.792,78.451,57.834,77.567,55.865L77.567,55.865z M102.122,51.71
		c-0.818-2.346,1.93-3.713,3.123-5.268c0.214,3.833,0.616,7.667,0.938,11.5C104.695,55.971,102.859,54.122,102.122,51.71
		L102.122,51.71z M86.761,48.788c-0.75-2.426,1.877-3.9,3.029-5.67c0.415,3.968,0.871,7.935,1.341,11.902
		C89.563,53.036,87.766,51.147,86.761,48.788L86.761,48.788z M93.141,42.636c0.657-1.622,2.171-2.655,3.27-3.941
		c0.375,3.874,0.791,7.747,1.22,11.621C95.862,47.997,92.913,45.865,93.141,42.636L93.141,42.636z M70.892,39.834
		c0.991-1.367,2.051-2.667,3.203-3.9c0.456,3.833,0.911,7.666,1.233,11.513C73.532,45.128,71.441,42.823,70.892,39.834
		L70.892,39.834z M77.728,37.207c1.058-1.421,2.224-2.762,3.525-3.981c0.227,3.847,0.603,7.693,0.871,11.54
		C80.26,42.528,77.969,40.29,77.728,37.207L77.728,37.207z M84.001,34.567c0.402-1.797,2.064-2.922,3.122-4.343
		c0.536,3.874,1.033,7.761,1.488,11.634C86.775,39.673,84.375,37.569,84.001,34.567L84.001,34.567z M39.582,46.468
		c1.447-6.46,5.147-12.036,7.666-18.081c3.619,0.014,7.237,0.014,10.87,0.068c2.52,6.072,5.884,11.768,7.989,18.013
		c-0.966,1.77-1.904,3.552-2.815,5.348c2.935,0.925,5.898,1.769,8.792,2.801c-1.3,2.601-2.694,5.148-4.034,7.721
		c2.708,1.113,5.388,2.265,8.055,3.458c-0.979,2.76-1.702,5.83-3.954,7.881c-6.018,1.033-12.224,0.282-18.269,1.274
		c9.758,1.421,19.555,2.641,29.273,4.275c1.621,3.874,3.27,7.733,4.892,11.607c-13.095,0.094-26.243-0.013-39.285,1.447
		c14.207,0.483,28.388,2.091,42.207,5.482c3.122,7.492,6.379,14.931,9.395,22.463c-25.198-0.509-50.959,0.764-75.085,8.686
		c-7.934,2.506-15.092,6.795-22.021,11.299c-4.209-0.938-3.378-6.085-2.721-9.262c1.823-6.366,4.611-12.398,6.796-18.657
		c1.3,2.788,2.332,6.032,5.602,7.01c0.51-5.241-5.723-8.471-4.383-13.698c2.52-6.581,6.045-12.72,8.685-19.247
		c1.206,2.707,2.48,5.428,4.45,7.693c0.67-2.131,2.694-4.463,0.952-6.594c-1.85-2.909-2.64-6.997,0.013-9.704
		c3.539-2.52,8.082-2.882,12.103-4.303c-1.863-2.547-4.021-4.852-6.072-7.238c2.788-1.42,5.657-2.693,8.538-3.913
		c-1.381-2.587-2.748-5.174-3.954-7.841c2.787-0.885,5.602-1.648,8.403-2.479C40.963,50.141,40.105,48.372,39.582,46.468
		L39.582,46.468z M77.848,25.011c0-2.172,2.278-3.351,3.432-4.92c0.268,3.888,0.603,7.774,0.817,11.674
		C80.462,29.688,78.424,27.704,77.848,25.011L77.848,25.011z M77.835,0c7.653,17.706,19.837,33.588,35.652,44.74
		c10.829,7.398,17.652,20.641,16.271,33.816c-0.442,6.192-2.828,11.969-5.214,17.626c2.011-8.042,4.558-16.473,2.44-24.769
		c-1.595-8.873-6.876-16.714-13.913-22.222C99.441,38.306,87.525,25.104,79.121,9.744c-3.337,9.168-6.568,18.362-10.092,27.449
		c-1.421-3.042-2.774-6.111-4.182-9.167C71.535,20.011,76.24,10.361,77.835,0L77.835,0z"/>
	<path fill="#F13500" d="M532.979,104.585c5.053-1.917,10.508-2.051,15.829-2.667c5.442-0.698,9.074,5.495,7.654,10.293
		c-0.898,4.008-4.598,6.246-7.64,8.511c5.442,3.552,11.621,5.724,18.108,6.287c-3.203,0.991-6.5,2.492-9.931,1.849
		c-5.388-0.978-10.173-3.82-15.011-6.232c2.827-1.957,6.299-2.976,8.739-5.483c2.614-3.418,1.045-8.484-1.984-11.098
		c-2.319-2.011-5.589-1.715-8.417-2.185c-0.724,9.945-0.402,19.917-0.657,29.876c-1.608,0.831-3.216,1.662-4.825,2.479
		c0.014-8.699,0.362-17.41,0.255-26.109C535.11,108.056,533.769,106.381,532.979,104.585L532.979,104.585z M520.688,106.3
		c2.533-2.131,5.173-4.128,8.095-5.683c0.348,8.725,0.174,17.478-0.175,26.217c-1.514,1.072-3.029,2.131-4.544,3.19
		c0.013-7.063,0.094-14.127,0.282-21.203C523.128,107.976,521.908,107.145,520.688,106.3L520.688,106.3z M492.448,123.818
		c4.276-1.18,8.565-2.332,12.867-3.378c-1.957-2.6-3.914-5.201-5.871-7.788C497.299,116.487,494.887,120.173,492.448,123.818
		L492.448,123.818z M494.15,112.653c0.737-4.061-0.791-9.047,3.445-11.567c6.46,9.758,12.277,20.976,23.321,26.258
		c-5.375,3.176-10.508-0.644-13.819-4.798c-7.559,0.67-15.011,2.573-21.565,6.487C489.003,123.966,493.172,118.926,494.15,112.653
		L494.15,112.653z"/>
	<path fill="#C49D02" d="M326.37,80.54c5.428-3.163,13.135-5.589,18.603-1.26c4.705,5.67-0.027,13.939-6.474,15.615
		c0.335-4.677,3.512-12.357-3.243-13.711c-4.45-0.939-4.745,4.289-5.133,7.345c1.407-1.742,2.667-3.645,4.45-5.039
		c1.407,0.173,2.801,0.429,4.182,0.737c-2.895,2.385-5.402,5.147-7.225,8.444c-1.407,2.935-5.053,1.193-7.559,1.461
		C323.85,89.721,321.209,82.979,326.37,80.54L326.37,80.54z"/>
	<path fill="#C49D02" d="M359.569,38.668c3.659,0.014,7.305,0.027,10.964,0.067c-0.871,2.159-1.742,4.316-2.6,6.474
		c-2.895-0.63-5.844-1.045-8.806-1.206c2.614,2.077,6.232,3.27,7.908,6.34c0.884,6.353,0.389,12.853,0.335,19.26
		c0.335,4.946-6.675,6.943-9.798,3.7c-4.852-4.518-5.79-12.425-1.957-17.893c0.858,0.59,2.587,1.796,3.444,2.399
		c-1.42,4.342-4.557,9.744,0.094,13.309c0.523-6.045,0.228-12.117,0.335-18.175c-1.461-1.005-2.921-1.997-4.369-2.989
		C356.594,46.188,358.028,42.408,359.569,38.668L359.569,38.668z"/>
	<path fill="#C49D02" d="M292.245,70.756c0.469-4.115,0.429-8.257,0.027-12.372C290.248,62.258,288.492,67.271,292.245,70.756
		L292.245,70.756z"/>
	<path fill="#C49D02" d="M292.795,38.682c3.86,0,7.72,0.013,11.594,0.053c-0.764,2.185-1.528,4.383-2.265,6.581
		c-3.243-0.831-6.554-1.3-9.892-1.3c2.48,1.769,5.401,3.016,7.479,5.307c1.005,2.426,1.073,5.12,1.582,7.68
		c2.413-0.388,4.812-0.857,7.224-1.287c0.456,5.134-3.927,10.83,0.737,14.972c0.563-5.911,0.281-11.835,0.403-17.746
		c-1.475-1.005-2.949-1.984-4.41-2.975c1.796-3.646,2.439-8.082,5.16-11.151c3.578-0.322,7.184-0.134,10.776-0.107
		c-0.63,2.171-1.26,4.342-1.876,6.514c-3.244-0.684-6.541-1.153-9.852-1.179c2.976,2.48,8.256,3.914,8.203,8.578
		c0.201,5.616,0.215,11.245-0.013,16.848c-0.027,4.798-7.332,6.969-10.267,3.284c-4.101-3.713-3.579-9.744-4.906-14.663
		c-2.989,4.007-1.34,9.154-2.265,13.698c-2.091,2.788-6.608,3.954-9.342,1.461c-4.932-4.531-5.911-12.291-2.212-17.893
		c1.528,0.737,3.042,1.474,4.584,2.212c-0.187-3.378-1.997-6.005-4.704-7.894C289.886,45.986,291.307,42.314,292.795,38.682
		L292.795,38.682z"/>
	<path fill="#C49D02" d="M340.068,42.904c-0.711,2.211,0.027,2.949,2.198,2.238C342.963,42.93,342.226,42.193,340.068,42.904
		L340.068,42.904z"/>
	<path fill="#C49D02" d="M323.3,32.342c1.997-2.506,5.348-1.153,7.988-0.938c0.228,5.455-1.032,10.816-1.367,16.244
		c0.965,0.215,2.895,0.658,3.86,0.885c-0.188-2.466-1.073-5.052-0.202-7.465c2.426-3.78,8.431-3.82,11.138-0.335
		c2.56,2.104,0.496,5.294-0.335,7.707c2.775,3.914,5.696,8.283,5.348,13.323c-0.416,5.415-3.538,11.339-9.208,12.653
		c-2.627,1.474-3.834-2.252-5.549-3.552c-1.247,1.407-2.493,2.828-3.739,4.222c-2.212-1.501-6.272-1.996-6.085-5.361
		c-0.215-4.798-0.322-9.623-1.823-14.22c0.161-3.525,3.833-4.839,6.849-3.847c5.013,4.061,2.238,11.339,2.962,16.901
		c1.434-1.367,2.855-2.747,4.276-4.128c1.327,1.703,2.641,3.417,4.008,5.093c4.812-5.562,1.046-13.564-3.887-17.585
		c-3.726-0.912-7.72-0.496-11.339-1.877c-1.662-0.777-3.793-2.265-3.445-4.356C323.34,41.269,323.541,36.805,323.3,32.342
		L323.3,32.342z"/>
	<path fill="#1C005E" d="M206.666,99.358c2.735-2.078,6.152-3.083,9.141-0.791c0.536,3.807,1.823,9.182-1.863,11.808
		c-1.849,1.649-4.503,1.354-6.768,1.81c0.965-2.426,2.171-4.799,2.667-7.385C209.186,102.775,207.712,101.181,206.666,99.358
		L206.666,99.358z"/>
	<path fill="#1C005E" d="M203.61,82.429c-0.697,1.568-1.917,5.214,0.349,5.818C204.99,87.214,205.969,80.647,203.61,82.429
		L203.61,82.429z"/>
	<path fill="#1C005E" d="M199.455,77.055c3.15,0.24,5.991,1.809,8.953,2.774c2.895-0.897,6.166-4.236,9.114-1.783
		c1.112,0.711,2.198,1.461,3.284,2.252c-0.228,3.887,0.63,8.524-2.413,11.593c-3.203,3.458-8.31,2.868-12.545,2.614
		c2.278-2.225,6.286-3.74,6.3-7.453c0.228-2.358,0-6.513-3.27-4.061c0.67,7.399-7.184,13.752-14.06,10.066
		C194.831,87.415,193.544,80.311,199.455,77.055L199.455,77.055z"/>
	<path fill="#1C005E" d="M204.267,59.229c2.748,0.214,5.509,0.442,8.243,0.79c-2.372,2.292-5.16,4.074-8.175,5.401
		C204.307,63.357,204.28,61.293,204.267,59.229L204.267,59.229z"/>
	<path fill="#1C005E" d="M195.448,39.124c3.914-1.086,8.082-0.322,12.103-0.43c-0.992,2.44-2.064,4.839-3.203,7.198
		c-2.842-1.1-5.804-1.89-8.873-1.85c2.828,1.997,7.131,3.163,7.908,7.037c0.643,6.286,0.107,12.612,0.362,18.911
		c3.244,1.033,7.197,0.698,8.752-2.854c2.882-6.139-1.876-12.465-7.211-15.267c1.515-4.262,2.815-8.632,4.946-12.64
		c3.927-1.367,8.323-0.335,12.425-0.522c-1.059,2.48-2.211,4.906-3.444,7.305c-2.989-1.26-6.152-2.279-9.436-1.729
		c3.216,1.944,7.211,3.364,8.886,7.05c5.174,8.284,0.308,21.043-9.302,23.254c-4.691,0.202-10.643,0.148-13.779-3.94
		c-0.603-6.045-0.013-12.144-0.348-18.215c-1.34-0.978-2.748-1.877-3.994-2.976C192.365,45.906,193.705,42.408,195.448,39.124
		L195.448,39.124z"/>
	<path fill="#1C005E" d="M158.334,50.704c2.614-4.249,5.616-8.229,8.552-12.25c7.345,1.554,14.636-0.215,22.035,0.201
		c-0.724,2.399-1.474,4.785-2.252,7.171c-7.077-2.332-14.677-1.06-22.008-1.555c1.796,1.635,3.659,3.485,6.179,3.901
		c3.9-0.497,7.559-3.15,11.62-2.144c5.401,2.318,6.125,9.141,5.482,14.26c-0.844,7.238-7.063,12.358-13.483,14.811
		c2.667-6.862,7.948-14.583,3.726-21.955c-1.381-3.243-4.557-1.515-7.037-0.858c-0.737,7.452-0.362,14.931-0.402,22.396
		c-2.748,0.014-5.469,0.014-8.203,0.028c0.281-6.836-1.032-13.913,1.139-20.534C161.846,53.103,160.077,51.911,158.334,50.704
		L158.334,50.704z"/>
	<path fill="#1C005E" d="M244.155,34.902c1.474-1.742,2.976-3.458,4.503-5.134c3.002,2.064,3.874,5.415,4.048,8.859
		c4.677-0.013,9.368-0.027,14.06,0.027c-0.094,9.852,0.08,19.703-0.04,29.567c0.147,4.516-4.852,6.165-8.337,7.331
		c-0.55-10.668,0-21.364-0.335-32.06c-1.903,1.005-3.753,2.104-5.575,3.257c-0.751-1.783-1.475-3.566-2.185-5.348
		c-1.26,1.407-2.506,2.815-3.753,4.235c-5.549-2.52-11.795-1.434-17.665-1.3c2.734,1.635,6.005,2.788,7.841,5.576
		c0.952,5.361,0.335,10.883,0.282,16.311c3.056-0.885,4.932,1.434,6.795,3.485c0.657-1.729,1.18-3.499,1.555-5.295
		c-1.166-3.913-4.383-7.479-3.539-11.795c0.791-3.578,4.745-4.624,7.439-6.42c0.536,4.463,2.56,8.538,3.378,12.934
		c0.67,6.634-3.445,14.315-10.388,15.601c-1.126-1.38-2.212-2.788-3.27-4.222c-1.032,1.542-2.078,3.083-3.124,4.611
		c-2.439-1.206-5.469-1.917-6.943-4.396c-0.657-5.575,0.12-11.192-0.335-16.781c-0.643-1.85-2.64-2.721-3.833-4.168
		c1.246-3.752,2.802-7.399,4.141-11.112c6.34,0.094,12.867-0.831,18.979,1.367C246.648,38.306,245.388,36.604,244.155,34.902
		L244.155,34.902z"/>
	<path fill="#F13500" d="M453.499,38.682c3.619,0.013,7.237,0.013,10.87,0.04c-0.818,2.212-1.608,4.436-2.386,6.661
		c-2.949-0.939-6.004-1.461-9.087-1.328c3.056,2.373,8.431,3.673,8.471,8.365c0.174,5.776,0.174,11.567,0,17.343
		c0.08,4.839-6.809,6.769-9.878,3.472c-4.946-4.624-6.447-13.939-0.429-18.39c4.128,5.241-4.302,11.943,2.064,16.245
		c0.482-6.098-0.134-12.211,0.241-18.309c-1.434-0.925-2.882-1.823-4.329-2.734C450.59,46.295,452.064,42.502,453.499,38.682
		L453.499,38.682z"/>
	<path fill="#F13500" d="M417.324,38.695c3.82,0,7.639,0,11.473,0.04c-0.71,2.212-1.434,4.41-2.104,6.635
		c-3.23-1.032-6.581-1.541-9.958-1.273c2.48,1.769,5.522,2.895,7.493,5.294c1.085,2.373,1.005,5.067,1.528,7.587
		c2.144-0.322,4.275-0.791,6.447-1.072c2.399,2.533-0.282,5.817-0.482,8.685c-1.032,2.359,0.831,4.275,1.997,6.125
		c0.577-5.965,0.281-11.956,0.415-17.947c-1.474-0.898-2.935-1.782-4.396-2.667c1.595-3.578,2.735-7.331,4.396-10.897
		c3.766-0.978,7.734-0.402,11.608-0.509c-0.724,2.199-1.421,4.397-2.078,6.608c-3.217-0.965-6.541-1.488-9.878-1.152
		c2.68,1.863,5.911,3.136,7.988,5.763c1.019,6.125,0.335,12.398,0.483,18.576c0.844,5.187-7.051,8.27-10.254,4.316
		c-4.275-3.645-3.887-9.677-4.852-14.703c-3.418,3.767-1.193,9.074-2.413,13.537c-2.158,3.217-7.466,4.196-10.026,0.938
		c-4.195-4.516-5.978-13.738,0.094-17.451c3.056,3.538-0.577,7.815-0.496,11.781c0.751,1.368,1.609,2.667,2.56,3.9
		c0.59-5.978,0.013-11.982,0.321-17.974c-1.461-0.965-2.921-1.916-4.369-2.881C414.362,46.214,415.863,42.461,417.324,38.695
		L417.324,38.695z"/>
	<path fill="#F13500" d="M400.275,59.604c-0.442,3.793-0.482,7.627-0.054,11.42C403.572,67.713,402.768,63.129,400.275,59.604
		L400.275,59.604z"/>
	<path fill="#F13500" d="M391.04,46.549c-0.831-3.096,2.225-5.334,3.472-7.881c3.941,0.027,7.868,0.041,11.822,0.081
		c-0.978,2.292-1.97,4.57-2.935,6.862c-1.85-0.684-3.699-1.381-5.549-2.037c2.547,4.275,2.105,9.261,2.011,14.02
		c1.421-0.764,2.855-1.514,4.302-2.265c3.887,5.536,2.734,13.403-2.359,17.759c-3.016,3.109-9.677,1.193-9.717-3.432
		C391.469,61.963,392.903,54.136,391.04,46.549L391.04,46.549z"/>
	<path fill="#F13500" d="M415.836,35.116c1.769-2.425,2.841-6.004,5.736-7.237c7.104-0.013,14.207-0.08,21.324-0.094
		c-0.804,2.051-1.635,4.088-2.479,6.112c-6.206-3.069-13.216-1.354-19.824-2.279c0.951,1.14,1.877,2.292,2.801,3.445
		C420.875,35.197,418.355,35.197,415.836,35.116L415.836,35.116z"/>
	<path fill="#F13500" d="M386.603,25.305c3.324-2.426,7.399-5.616,11.755-3.847c2.654,0.657,2.265,3.645,2.828,5.723
		c-2.989,0.053-5.991-0.053-8.967,0.081c1.956,2.05,4.584,4.275,7.586,2.787c3.002-2.212,4.477-5.937,7.546-8.055
		c2.707-0.616,5.268,0.858,7.774,1.649c-4.49,4.208-7.962,11.42-15.079,11.044C393.895,35.09,389.847,29.688,386.603,25.305
		L386.603,25.305z"/>
	<path fill="#1C005E" d="M247.76,118.143l3.76,0.95c-0.786,3.074-2.207,5.422-4.249,7.045c-2.049,1.616-4.547,2.421-7.507,2.421
		c-3.06,0-5.544-0.62-7.461-1.86c-1.916-1.247-3.377-3.047-4.375-5.402c-0.997-2.362-1.5-4.895-1.5-7.599
		c0-2.948,0.562-5.521,1.692-7.718c1.13-2.197,2.736-3.865,4.824-5.007c2.081-1.141,4.374-1.708,6.879-1.708
		c2.841,0,5.227,0.719,7.164,2.164c1.936,1.445,3.284,3.47,4.044,6.089l-3.694,0.871c-0.661-2.065-1.612-3.562-2.868-4.505
		c-1.249-0.943-2.822-1.412-4.725-1.412c-2.181,0-3.998,0.521-5.465,1.563c-1.467,1.049-2.498,2.447-3.086,4.209
		c-0.594,1.754-0.892,3.569-0.892,5.435c0,2.414,0.35,4.512,1.05,6.313c0.708,1.794,1.798,3.14,3.285,4.03
		c1.487,0.891,3.093,1.333,4.824,1.333c2.102,0,3.879-0.607,5.339-1.814C246.261,122.325,247.245,120.524,247.76,118.143
		L247.76,118.143z M264.81,125.872c-1.051,0.89-2.059,1.517-3.024,1.887c-0.97,0.365-2.01,0.547-3.12,0.547
		c-1.833,0-3.238-0.445-4.224-1.341c-0.982-0.895-1.475-2.043-1.475-3.431c0-0.82,0.183-1.566,0.558-2.241
		c0.369-0.676,0.857-1.217,1.458-1.624c0.605-0.408,1.281-0.719,2.037-0.928c0.552-0.145,1.388-0.29,2.509-0.423
		c2.284-0.274,3.967-0.595,5.045-0.976c0.011-0.386,0.016-0.633,0.016-0.734c0-1.153-0.268-1.968-0.804-2.434
		c-0.718-0.644-1.796-0.96-3.217-0.96c-1.329,0-2.311,0.231-2.948,0.697c-0.633,0.466-1.099,1.292-1.405,2.477l-2.761-0.381
		c0.252-1.18,0.665-2.139,1.239-2.863c0.574-0.729,1.41-1.291,2.498-1.683c1.088-0.391,2.348-0.59,3.785-0.59
		c1.426,0,2.579,0.172,3.468,0.504c0.89,0.338,1.544,0.756,1.968,1.265c0.418,0.51,0.708,1.147,0.879,1.925
		c0.091,0.483,0.139,1.351,0.139,2.606v3.769c0,2.633,0.059,4.294,0.182,4.986c0.118,0.697,0.359,1.367,0.713,2.005h-2.955
		C265.084,127.346,264.891,126.66,264.81,125.872L264.81,125.872z M264.574,119.556c-1.03,0.424-2.568,0.777-4.616,1.072
		c-1.163,0.166-1.989,0.354-2.466,0.563c-0.483,0.209-0.858,0.514-1.115,0.922c-0.263,0.402-0.397,0.847-0.397,1.34
		c0,0.756,0.289,1.384,0.857,1.887c0.568,0.499,1.405,0.751,2.504,0.751c1.089,0,2.059-0.236,2.906-0.713
		c0.847-0.477,1.474-1.131,1.871-1.957c0.306-0.638,0.456-1.581,0.456-2.825V119.556L264.574,119.556z M271.818,128.009V111.33
		h2.525v2.338c0.526-0.815,1.223-1.475,2.091-1.968c0.868-0.499,1.86-0.751,2.97-0.751c1.233,0,2.246,0.258,3.034,0.772
		c0.794,0.515,1.351,1.228,1.673,2.15c1.324-1.946,3.04-2.922,5.152-2.922c1.657,0,2.927,0.461,3.817,1.378
		c0.89,0.917,1.335,2.327,1.335,4.23v11.451h-2.809v-10.508c0-1.131-0.091-1.946-0.273-2.445c-0.188-0.493-0.52-0.895-0.998-1.2
		c-0.482-0.301-1.051-0.456-1.699-0.456c-1.175,0-2.145,0.391-2.922,1.174c-0.772,0.778-1.163,2.027-1.163,3.742v9.693h-2.825
		v-10.835c0-1.26-0.23-2.203-0.692-2.83c-0.461-0.627-1.212-0.944-2.262-0.944c-0.794,0-1.528,0.209-2.203,0.632
		c-0.676,0.418-1.169,1.03-1.469,1.833c-0.306,0.81-0.456,1.973-0.456,3.491v8.653H271.818L271.818,128.009z M301.141,128.009
		h-2.621v-23.026h2.825v8.213c1.196-1.496,2.718-2.246,4.568-2.246c1.029,0,2,0.209,2.917,0.622
		c0.917,0.413,1.667,0.998,2.262,1.742c0.59,0.751,1.056,1.652,1.389,2.713c0.338,1.056,0.504,2.188,0.504,3.389
		c0,2.863-0.708,5.072-2.123,6.632c-1.41,1.56-3.11,2.338-5.088,2.338c-1.968,0-3.512-0.82-4.632-2.466V128.009L301.141,128.009z
		 M301.108,119.543c0,2,0.273,3.442,0.815,4.332c0.89,1.458,2.096,2.188,3.613,2.188c1.239,0,2.305-0.536,3.206-1.614
		c0.9-1.072,1.351-2.67,1.351-4.798c0-2.177-0.435-3.785-1.298-4.82c-0.863-1.035-1.909-1.555-3.131-1.555
		c-1.238,0-2.305,0.536-3.206,1.608C301.559,115.957,301.108,117.512,301.108,119.543L301.108,119.543z M315.999,119.825
		c0-3.088,0.858-5.377,2.579-6.863c1.431-1.233,3.179-1.855,5.243-1.855c2.295,0,4.171,0.751,5.624,2.257
		c1.458,1.501,2.182,3.576,2.182,6.224c0,2.15-0.322,3.839-0.965,5.067c-0.643,1.233-1.582,2.188-2.809,2.868
		c-1.233,0.681-2.574,1.018-4.032,1.018c-2.332,0-4.219-0.746-5.661-2.246C316.717,124.8,315.999,122.644,315.999,119.825
		L315.999,119.825z M318.904,119.825c0,2.139,0.466,3.737,1.399,4.798c0.933,1.067,2.107,1.598,3.517,1.598
		c1.405,0,2.574-0.536,3.506-1.603c0.927-1.067,1.394-2.697,1.394-4.884c0-2.064-0.467-3.629-1.405-4.691
		c-0.938-1.062-2.102-1.592-3.496-1.592c-1.41,0-2.584,0.531-3.517,1.587C319.371,116.093,318.904,117.691,318.904,119.825
		L318.904,119.825z M346.708,128.01v-2.107c-1.056,1.657-2.611,2.483-4.664,2.483c-1.33,0-2.552-0.365-3.667-1.099
		c-1.115-0.729-1.978-1.753-2.595-3.072c-0.611-1.313-0.917-2.82-0.917-4.53c0-1.662,0.279-3.174,0.831-4.53
		c0.558-1.356,1.388-2.396,2.498-3.115c1.11-0.724,2.354-1.089,3.726-1.089c1.003,0,1.898,0.215,2.681,0.638
		c0.788,0.423,1.426,0.976,1.919,1.657v-8.262h2.809v23.026H346.708L346.708,128.01z M337.771,119.683
		c0,2.139,0.45,3.737,1.351,4.793s1.962,1.587,3.19,1.587c1.233,0,2.284-0.51,3.147-1.517c0.863-1.008,1.297-2.552,1.297-4.627
		c0-2.284-0.44-3.957-1.319-5.024c-0.879-1.072-1.962-1.603-3.254-1.603c-1.255,0-2.305,0.515-3.147,1.539
		C338.195,115.855,337.771,117.475,337.771,119.683L337.771,119.683z M353.241,108.237v-3.254h2.831v3.254H353.241L353.241,108.237z
		 M353.241,128.01V111.33h2.831v16.679H353.241L353.241,128.01z M370.552,125.872c-1.051,0.89-2.059,1.517-3.024,1.887
		c-0.97,0.365-2.011,0.547-3.12,0.547c-1.834,0-3.238-0.445-4.224-1.34c-0.981-0.896-1.475-2.043-1.475-3.431
		c0-0.82,0.183-1.566,0.558-2.241c0.37-0.675,0.857-1.217,1.458-1.624c0.606-0.408,1.281-0.719,2.037-0.928
		c0.552-0.145,1.388-0.289,2.509-0.423c2.284-0.274,3.967-0.595,5.045-0.976c0.01-0.386,0.016-0.632,0.016-0.734
		c0-1.153-0.268-1.968-0.804-2.434c-0.718-0.643-1.796-0.96-3.216-0.96c-1.33,0-2.311,0.23-2.949,0.697
		c-0.633,0.466-1.099,1.292-1.405,2.477l-2.761-0.381c0.252-1.18,0.665-2.14,1.238-2.863c0.574-0.729,1.41-1.292,2.498-1.684
		c1.088-0.391,2.348-0.589,3.785-0.589c1.426,0,2.579,0.172,3.469,0.504c0.89,0.338,1.544,0.755,1.968,1.265
		c0.418,0.51,0.708,1.147,0.879,1.925c0.092,0.482,0.139,1.351,0.139,2.606v3.769c0,2.632,0.059,4.294,0.183,4.986
		c0.118,0.697,0.359,1.368,0.713,2.006h-2.954C370.825,127.346,370.632,126.66,370.552,125.872L370.552,125.872z M370.316,119.556
		c-1.03,0.424-2.568,0.777-4.616,1.073c-1.164,0.166-1.989,0.354-2.466,0.563c-0.482,0.209-0.858,0.515-1.115,0.922
		c-0.263,0.402-0.397,0.847-0.397,1.34c0,0.756,0.289,1.383,0.857,1.887c0.569,0.499,1.405,0.751,2.504,0.751
		c1.089,0,2.059-0.236,2.906-0.713c0.847-0.477,1.474-1.131,1.871-1.956c0.306-0.639,0.456-1.582,0.456-2.826V119.556
		L370.316,119.556z"/>
	<path fill="#CC9933" d="M379.821,127.949l10.001-27.349h3.793l10.614,27.349h-3.927l-3.016-8.289h-10.978l-2.828,8.289H379.821
		L379.821,127.949z M387.321,116.719h8.885l-2.719-7.582c-0.819-2.305-1.438-4.208-1.869-5.71c-0.358,1.782-0.837,3.533-1.438,5.265
		L387.321,116.719L387.321,116.719z"/>
	<path fill="#CC9933" d="M405.548,128.197v-16.695h2.541v2.37c1.222-1.817,2.992-2.723,5.302-2.723c1.008,0,1.93,0.182,2.772,0.541
		c0.842,0.359,1.475,0.836,1.893,1.42c0.418,0.585,0.713,1.281,0.879,2.086c0.102,0.526,0.155,1.442,0.155,2.75v10.251h-2.831
		v-10.143c0-1.153-0.107-2.016-0.327-2.584c-0.22-0.568-0.611-1.024-1.169-1.367c-0.558-0.338-1.217-0.509-1.967-0.509
		c-1.201,0-2.236,0.381-3.11,1.147c-0.874,0.761-1.308,2.214-1.308,4.348v9.109H405.548L405.548,128.197z"/>
	<path fill="#CC9933" d="M423.911,129.828l2.734,0.386c0.112,0.847,0.434,1.464,0.96,1.855c0.702,0.52,1.662,0.783,2.879,0.783
		c1.309,0,2.322-0.262,3.034-0.783c0.713-0.52,1.196-1.255,1.448-2.193c0.145-0.574,0.215-1.78,0.204-3.619
		c-1.238,1.458-2.777,2.187-4.622,2.187c-2.294,0-4.074-0.826-5.329-2.482c-1.26-1.651-1.887-3.635-1.887-5.946
		c0-1.592,0.289-3.061,0.863-4.407c0.574-1.346,1.41-2.381,2.504-3.115c1.094-0.735,2.381-1.099,3.86-1.099
		c1.968,0,3.592,0.804,4.868,2.413v-2.059h2.605v14.416c0,2.6-0.262,4.439-0.793,5.522c-0.525,1.083-1.367,1.941-2.509,2.568
		c-1.147,0.627-2.557,0.944-4.23,0.944c-1.989,0-3.592-0.445-4.814-1.34C424.458,132.97,423.868,131.624,423.911,129.828
		L423.911,129.828z M426.227,119.813c0,2.182,0.434,3.774,1.303,4.777c0.874,1.003,1.962,1.506,3.271,1.506
		c1.303,0,2.391-0.499,3.276-1.496c0.879-0.997,1.319-2.563,1.319-4.697c0-2.037-0.456-3.576-1.361-4.611
		c-0.906-1.035-2-1.549-3.276-1.549c-1.26,0-2.327,0.509-3.211,1.528C426.667,116.291,426.227,117.803,426.227,119.813
		L426.227,119.813z"/>
	<polygon fill="#CC9933" points="442.084,128.197 442.084,105.165 444.915,105.165 444.915,118.284 451.606,111.502 
		455.262,111.502 448.893,117.704 455.905,128.197 452.421,128.197 446.877,119.667 444.915,121.575 444.915,128.197 
		442.084,128.197 	"/>
	<path fill="#CC9933" d="M456.848,119.849c0-3.083,0.858-5.367,2.579-6.852c1.432-1.233,3.184-1.85,5.249-1.85
		c2.289,0,4.166,0.75,5.624,2.252c1.453,1.496,2.182,3.571,2.182,6.214c0,2.144-0.322,3.828-0.965,5.056
		c-0.643,1.228-1.581,2.182-2.815,2.863c-1.228,0.681-2.573,1.019-4.026,1.019c-2.337,0-4.225-0.745-5.667-2.241
		C457.566,124.814,456.848,122.659,456.848,119.849L456.848,119.849z M459.743,119.855c0,2.134,0.466,3.732,1.399,4.787
		c0.938,1.062,2.112,1.592,3.533,1.592c1.405,0,2.574-0.531,3.512-1.598c0.933-1.067,1.399-2.691,1.399-4.873
		c0-2.059-0.472-3.619-1.41-4.675c-0.938-1.061-2.107-1.592-3.501-1.592c-1.421,0-2.595,0.526-3.533,1.582
		C460.209,116.134,459.743,117.726,459.743,119.855L459.743,119.855z"/>
	<path fill="#CC9933" d="M475.023,128.197v-16.695h2.541v2.557c0.649-1.185,1.249-1.968,1.801-2.343
		c0.552-0.381,1.158-0.568,1.818-0.568c0.954,0,1.925,0.3,2.911,0.895l-1.008,2.611c-0.686-0.386-1.372-0.579-2.059-0.579
		c-0.617,0-1.169,0.188-1.657,0.558c-0.488,0.37-0.836,0.885-1.045,1.544c-0.316,1.003-0.472,2.102-0.472,3.297v8.723H475.023
		L475.023,128.197z"/>
</g>
</svg>
