<?xml version="1.0" encoding="utf-8"?>
<!-- Generator: Adobe Illustrator 17.0.0, SVG Export Plug-In . SVG Version: 6.00 Build 0)  -->
<!DOCTYPE svg PUBLIC "-//W3C//DTD SVG 1.1//EN" "http://www.w3.org/Graphics/SVG/1.1/DTD/svg11.dtd">
<svg version="1.1" id="圖層_1" xmlns="http://www.w3.org/2000/svg" xmlns:xlink="http://www.w3.org/1999/xlink" x="0px" y="0px"
	 width="300px" height="149.761px" viewBox="0 0 300 149.761" enable-background="new 0 0 300 149.761" xml:space="preserve">
<g>
	<g>
		<path fill="#B70031" d="M122.568,2.77c0.015,0.143,0.064,0.288,0.082,0.428c0.033,0.244,0.055,0.49,0.088,0.725v0.012
			c0.007,0.11,0.022,0.217,0.043,0.321c0,0.009,0.006,0.018,0.006,0.033c0,0.003,0,0.009,0.006,0.015c0,0.003,0,0.009,0.003,0.019
			c0.009,0.047,0.016,0.091,0.031,0.14c0.03,0.094,0.018,0.165,0.042,0.267c0.074,0.281,0.061,0.585,0.138,0.861
			c0.113,0.408,0.171,0.864,0.288,1.27c0.031,0.116,0,0.236,0.031,0.361c0.036,0.129,0.07,0.257,0.099,0.382
			c0.031,0.151,0.01,0.313,0.046,0.471c0.037,0.138,0.086,0.29,0.125,0.426c0.043,0.165,0.046,0.339,0.092,0.521
			c0.052,0.18,0.113,0.38,0.143,0.566c0.04,0.209,0.061,0.45,0.101,0.67c0.036,0.181,0.137,0.404,0.177,0.607
			c0.015,0.064,0.009,0.132,0.021,0.199c0.03,0.148,0.073,0.294,0.101,0.428c0.015,0.065,0.009,0.123,0.027,0.196
			c0.07,0.261,0.154,0.595,0.238,0.858c0.018,0.076,0.027,0.151,0.045,0.227c0.055,0.189,0.113,0.325,0.129,0.426
			c0.021,0.089,0.03,0.195,0.056,0.287c0.04,0.143,0.083,0.267,0.11,0.395c0.022,0.095,0.034,0.186,0.061,0.287
			c0.034,0.122,0.083,0.227,0.128,0.343c0.083,0.238,0.098,0.496,0.18,0.722c0.046,0.143,0.11,0.273,0.162,0.42
			c0.04,0.137,0.046,0.295,0.091,0.447c0.073,0.226,0.165,0.493,0.249,0.725c0.092,0.273,0.156,0.572,0.247,0.833
			c0.04,0.098,0.034,0.203,0.067,0.319c0.08,0.258,0.171,0.545,0.252,0.809c0.043,0.138,0.049,0.275,0.101,0.405
			c0.089,0.218,0.214,0.404,0.296,0.633c0.07,0.189,0.088,0.383,0.162,0.563c0.091,0.235,0.206,0.484,0.297,0.734
			c0.064,0.174,0.086,0.35,0.156,0.514c0.064,0.138,0.148,0.287,0.209,0.426c0.046,0.125,0.083,0.249,0.131,0.374
			c0.034,0.095,0.135,0.255,0.202,0.385c0.079,0.169,0.091,0.355,0.157,0.54c0.101,0.284,0.238,0.573,0.359,0.832
			c0.049,0.108,0.055,0.2,0.097,0.313c0.065,0.186,0.193,0.328,0.269,0.502c0.079,0.165,0.1,0.343,0.171,0.502
			c0.108,0.235,0.189,0.353,0.189,0.69c-0.003,0.028-0.013,0.055-0.043,0.064c-0.067,0.025-0.14-0.082-0.177-0.116
			c-0.18-0.177-0.209-0.349-0.316-0.592c-0.177-0.368-0.395-0.716-0.563-1.078c-0.086-0.183-0.125-0.389-0.209-0.584
			c-0.055-0.119-0.129-0.238-0.186-0.353c-0.074-0.168-0.122-0.349-0.208-0.502c-0.122-0.221-0.224-0.487-0.322-0.734
			c-0.037-0.099-0.043-0.189-0.082-0.279c-0.046-0.095-0.119-0.186-0.165-0.278c-0.061-0.154-0.098-0.343-0.162-0.499
			c-0.137-0.304-0.291-0.615-0.407-0.931c-0.107-0.29-0.156-0.566-0.266-0.867c-0.042-0.116-0.1-0.249-0.134-0.371
			c-0.042-0.107-0.045-0.203-0.082-0.307c-0.092-0.264-0.22-0.545-0.331-0.806c-0.058-0.122-0.071-0.244-0.122-0.377
			c-0.058-0.162-0.128-0.342-0.189-0.505c-0.077-0.208-0.08-0.456-0.162-0.682c-0.171-0.472-0.395-0.974-0.539-1.485
			c-0.027-0.107-0.021-0.232-0.055-0.35c-0.079-0.249-0.163-0.532-0.242-0.797c-0.086-0.298-0.077-0.615-0.168-0.906
			c-0.119-0.377-0.252-0.768-0.368-1.142c-0.037-0.11-0.025-0.229-0.058-0.352c-0.082-0.29-0.177-0.625-0.272-0.892
			c-0.053-0.134-0.053-0.279-0.099-0.407c-0.061-0.147-0.214-0.095-0.203,0.073c0.012,0.157,0.067,0.358,0.079,0.438
			c0.021,0.107,0.021,0.218,0.043,0.334c0.047,0.2,0.114,0.365,0.169,0.551c0.061,0.189,0.061,0.368,0.116,0.563
			c0.028,0.098,0.07,0.211,0.098,0.301c0.058,0.195,0.058,0.405,0.125,0.584c0.049,0.138,0.091,0.31,0.137,0.46
			c0.027,0.097,0.021,0.177,0.046,0.279c0.058,0.174,0.113,0.353,0.171,0.53c0.027,0.107,0.018,0.195,0.042,0.284
			c0.037,0.146,0.067,0.288,0.11,0.422c0.034,0.125,0.033,0.298,0.076,0.435c0.079,0.246,0.168,0.503,0.252,0.734
			c0.092,0.258,0.101,0.527,0.195,0.788c0.171,0.462,0.321,0.998,0.493,1.461c0.043,0.122,0.025,0.244,0.064,0.371
			c0.058,0.203,0.098,0.401,0.165,0.601c0.037,0.092,0.101,0.192,0.14,0.278c0.052,0.11,0.064,0.235,0.122,0.35
			c0.04,0.094,0.098,0.186,0.134,0.291c0.055,0.147,0.034,0.325,0.089,0.463c0.049,0.116,0.11,0.238,0.152,0.352
			c0.049,0.131,0.046,0.269,0.101,0.388c0.046,0.105,0.122,0.209,0.168,0.304c0.047,0.105,0.058,0.206,0.1,0.313
			c0.04,0.114,0.101,0.227,0.15,0.328c0.049,0.119,0.052,0.258,0.108,0.374c0.046,0.107,0.119,0.209,0.159,0.325
			c0.04,0.119,0.046,0.246,0.088,0.371c0.071,0.183,0.186,0.342,0.257,0.515c0.064,0.125,0.067,0.27,0.128,0.401
			c0.064,0.153,0.154,0.295,0.224,0.45c0.098,0.195,0.162,0.405,0.247,0.597c0.15,0.334,0.2,0.708,0.356,1.038
			c0.113,0.241,0.264,0.474,0.374,0.714c0.061,0.134,0.079,0.275,0.142,0.402c0.07,0.146,0.189,0.267,0.257,0.417
			c0.053,0.146,0.094,0.294,0.157,0.435c0.085,0.186,0.206,0.358,0.295,0.535c0.046,0.104,0.064,0.208,0.119,0.313
			c0.091,0.197,0.241,0.368,0.334,0.563c0.046,0.132,0.092,0.266,0.14,0.396c0.101,0.212,0.26,0.392,0.368,0.609
			c0.071,0.157,0.119,0.325,0.217,0.471c0.146,0.223,0.238,0.374,0.377,0.606c0.094,0.151,0.212,0.365,0.29,0.527
			c0.07,0.157,0.194,0.291,0.267,0.447c0.073,0.157,0.165,0.319,0.252,0.468c0.092,0.165,0.186,0.287,0.29,0.441
			c0.172,0.254,0.276,0.527,0.441,0.78c0.107,0.183,0.247,0.362,0.371,0.533c0.337,0.462,0.815,1.286,1.022,1.566
			c0.174,0.223,0.313,0.493,0.469,0.725c0.125,0.183,0.276,0.365,0.405,0.535c0.108,0.135,0.194,0.293,0.303,0.438l0.08,0.11
			c4.308,5.469,8.726,9.095,12.471,11.466c1.969,1.237,3.033,1.596,3.033,1.596c0.249,0.101,0.077,0.281-0.048,0.365l-22.203,14.192
			c-0.07,0.048-0.241,0.175-0.177,0.316c0.055,0.108,0.282,0.048,0.343,0.027c17.821-6.256,30.747-11.398,38.649-15.147
			c8.018-3.803,10.707-5.978,10.415-7.059c-0.276-1.022-3.252-0.584-5.705-0.803c-2.224-0.203-5.081-0.601-8.516-1.798
			c-3.213-1.114-6.321-2.391-9.034-3.858c0,0-1.099-0.575-1.209-0.643c-0.229-0.134-0.408-0.236-0.63-0.371
			c-0.131-0.079-0.33-0.197-0.481-0.264c-0.189-0.082-0.319-0.18-0.481-0.285c-0.169-0.101-0.398-0.211-0.566-0.315
			c-0.249-0.151-0.404-0.273-0.638-0.441c-0.147-0.111-0.214-0.134-0.414-0.255c-0.113-0.073-0.331-0.189-0.432-0.258
			c-0.218-0.143-0.356-0.261-0.575-0.408c-0.134-0.097-0.232-0.157-0.393-0.252c-0.154-0.099-0.306-0.224-0.441-0.322
			c-0.076-0.058-0.194-0.122-0.261-0.195c-0.16-0.151-0.316-0.293-0.484-0.426c-0.154-0.113-0.298-0.255-0.45-0.365
			c-0.091-0.07-0.252-0.209-0.353-0.282c-0.241-0.174-0.395-0.307-0.641-0.484c-0.156-0.116-0.287-0.267-0.444-0.386
			c-0.177-0.129-0.336-0.278-0.515-0.408c-0.119-0.088-0.252-0.186-0.34-0.276c-0.119-0.138-0.229-0.238-0.35-0.376
			c-0.088-0.102-0.264-0.206-0.362-0.31c-0.154-0.192-0.365-0.392-0.566-0.546c-0.119-0.11-0.154-0.162-0.2-0.223
			c-0.037-0.046-0.079-0.101-0.177-0.206c-0.099-0.095-0.128-0.125-0.174-0.165c-0.044-0.04-0.091-0.088-0.224-0.215
			c-0.043-0.043-0.113-0.141-0.18-0.235c-0.064-0.083-0.119-0.165-0.159-0.205c-0.116-0.125-0.2-0.215-0.282-0.304
			c-0.061-0.059-0.125-0.125-0.202-0.212c-0.045-0.049-0.085-0.11-0.12-0.168c-0.04-0.055-0.08-0.111-0.119-0.157
			c-0.074-0.082-0.129-0.055-0.141-0.043c-0.044,0.028-0.061,0.116-0.009,0.211c0.058,0.12,0.15,0.252,0.208,0.331
			c0.009,0.018,0.021,0.03,0.027,0.043c0.024,0.036,0.049,0.073,0.067,0.111c0.031,0.055,0.067,0.116,0.107,0.168
			c0.091,0.125,0.186,0.226,0.285,0.322c0.025,0.031,0.058,0.067,0.092,0.098c0.067,0.067,0.113,0.137,0.165,0.215
			c0.053,0.074,0.111,0.159,0.184,0.232c0.025,0.031,0.052,0.073,0.083,0.104c0.024,0.046,0.061,0.088,0.097,0.125
			c0.058,0.052,0.113,0.105,0.162,0.166c0.095,0.092,0.183,0.186,0.276,0.263c0.065,0.058,0.138,0.134,0.205,0.2
			c0.189,0.218,0.386,0.432,0.545,0.638c0.094,0.119,0.264,0.208,0.371,0.287c0.119,0.085,0.209,0.241,0.303,0.359
			c0.065,0.082,0.226,0.224,0.301,0.307c0.183,0.238,0.307,0.362,0.545,0.54c0.143,0.104,0.258,0.202,0.368,0.344
			c0.07,0.085,0.272,0.287,0.353,0.38c0.194,0.255,0.288,0.484,0.255,0.496c-0.134,0.037-0.462-0.258-0.655-0.383
			c-0.16-0.104-0.186-0.151-0.34-0.261c-0.028-0.028-0.275-0.2-0.356-0.304c-0.064-0.058-0.247-0.252-0.301-0.322
			c-0.273-0.347-0.362-0.371-0.679-0.673c-0.23-0.226-0.511-0.423-0.734-0.624c-0.067-0.073-0.134-0.144-0.2-0.214
			c-0.073-0.073-0.163-0.143-0.229-0.215c-0.108-0.131-0.242-0.388-0.37-0.481c-0.129-0.098-0.226-0.195-0.356-0.29
			c-0.049-0.036-0.092-0.091-0.137-0.128c-0.065-0.052-0.138-0.102-0.189-0.16c-0.15-0.196-0.304-0.393-0.454-0.588
			c-0.073-0.097-0.177-0.174-0.241-0.27c-0.154-0.208-0.279-0.423-0.426-0.621c-0.215-0.275-0.517-0.472-0.72-0.754
			c-0.208-0.281-0.333-0.612-0.53-0.913c-0.088-0.131-0.221-0.223-0.31-0.344c-0.058-0.073-0.088-0.157-0.14-0.235
			c-0.098-0.16-0.226-0.316-0.334-0.471c-0.138-0.203-0.238-0.426-0.373-0.64c-0.027-0.03-0.073-0.175-0.157-0.285
			c-0.085-0.104-0.156-0.226-0.252-0.38c-0.098-0.15-0.143-0.252-0.208-0.356c-0.073-0.107-0.12-0.203-0.169-0.278
			c-0.043-0.073-0.141-0.209-0.177-0.264c-0.128-0.197-0.159-0.288-0.295-0.471c-0.085-0.113-0.174-0.199-0.244-0.18
			c-0.061,0.045-0.036,0.113-0.027,0.163c0.061,0.162,0.061,0.135,0.119,0.246c0.111,0.195,0.152,0.29,0.258,0.463
			c0.061,0.088,0.146,0.279,0.221,0.38c0.074,0.11,0.144,0.235,0.199,0.322c0.053,0.095,0.131,0.339,0.212,0.444
			c0.061,0.073,0.137,0.226,0.194,0.333c0.107,0.218,0.247,0.389,0.359,0.566c0.079,0.14,0.153,0.285,0.229,0.423
			c0.149,0.23,0.331,0.444,0.481,0.676c0.091,0.163,0.181,0.325,0.273,0.49c0.091,0.137,0.215,0.249,0.298,0.383
			c0.105,0.166,0.169,0.343,0.276,0.508c0.083,0.125,0.197,0.246,0.281,0.371c0.143,0.215,0.273,0.423,0.42,0.636
			c0.082,0.107,0.194,0.205,0.279,0.319c0.116,0.15,0.206,0.339,0.325,0.469c0.141,0.134,0.186,0.212,0.293,0.343
			c0.171,0.202,0.584,0.783,0.514,0.788c-0.247,0.031-0.708-0.499-0.909-0.693c-0.153-0.146-0.321-0.261-0.429-0.402
			c-0.153-0.212-0.266-0.447-0.426-0.65c-0.055-0.076-0.143-0.134-0.2-0.203c-0.107-0.141-0.205-0.287-0.333-0.402
			c-0.046-0.052-0.107-0.102-0.157-0.157c-0.191-0.244-0.347-0.506-0.533-0.756c-0.076-0.102-0.18-0.197-0.252-0.3
			c-0.064-0.08-0.095-0.174-0.148-0.257c-0.074-0.117-0.171-0.227-0.249-0.343c-0.055-0.085-0.092-0.168-0.144-0.255
			c-0.1-0.153-0.235-0.284-0.334-0.441c-0.08-0.125-0.104-0.29-0.186-0.417c-0.205-0.316-0.435-0.641-0.64-0.959
			c-0.05-0.082-0.073-0.175-0.125-0.255c-0.166-0.258-0.322-0.543-0.489-0.803c-0.061-0.094-0.083-0.203-0.147-0.297
			c-0.076-0.119-0.194-0.208-0.264-0.324c-0.058-0.088-0.082-0.183-0.131-0.288c-0.061-0.132-0.141-0.269-0.214-0.393
			c-0.045-0.082-0.067-0.16-0.113-0.238c-0.2-0.304-0.364-0.641-0.523-0.981c-0.088-0.177-0.212-0.344-0.299-0.521
			c-0.097-0.203-0.186-0.404-0.273-0.597c-0.049-0.131-0.095-0.267-0.144-0.398c-0.097-0.206-0.245-0.38-0.337-0.597
			c-0.067-0.143-0.104-0.282-0.157-0.404c-0.04-0.079-0.113-0.137-0.162-0.104c-0.052,0.034-0.067,0.098-0.031,0.214
			c0.067,0.218,0.186,0.468,0.241,0.592c0.116,0.246,0.174,0.502,0.284,0.757c0.064,0.135,0.151,0.272,0.215,0.405
			c0.116,0.238,0.214,0.478,0.324,0.702c0.061,0.135,0.108,0.263,0.178,0.388c0.043,0.061,0.098,0.134,0.128,0.212
			c0.068,0.159,0.095,0.328,0.171,0.478c0.073,0.163,0.191,0.291,0.266,0.45c0.38,0.803,0.76,1.572,1.219,2.285
			c0.128,0.2,0.189,0.441,0.322,0.641c0.129,0.205,0.31,0.365,0.443,0.566c0.108,0.165,0.134,0.399,0.233,0.579
			c0.147,0.27,0.341,0.496,0.503,0.748c0.045,0.07,0.056,0.151,0.105,0.223c0.061,0.097,0.14,0.192,0.2,0.288
			c0.083,0.131,0.129,0.284,0.214,0.405c0.097,0.131,0.238,0.241,0.334,0.38c0.122,0.162,0.202,0.35,0.324,0.523
			c0.091,0.11,0.224,0.195,0.313,0.307c0.142,0.183,0.615,0.812,0.754,0.995c0.215,0.269,0.598,0.667,0.772,1.02
			c0.052,0.113,0.247,0.374,0.199,0.423c-0.098,0.07-0.573-0.448-0.655-0.524c-0.197-0.195-0.368-0.456-0.545-0.676
			c-0.039-0.05-0.496-0.499-0.533-0.548c-0.048-0.056-0.097-0.122-0.131-0.181c-0.134-0.19-0.206-0.417-0.346-0.6
			c-0.055-0.076-0.14-0.128-0.2-0.203c-0.098-0.132-0.174-0.295-0.278-0.437c-0.165-0.221-0.371-0.422-0.53-0.644
			c-0.184-0.241-0.309-0.529-0.486-0.766c-0.089-0.119-0.205-0.229-0.29-0.356c-0.04-0.052-0.055-0.113-0.092-0.171
			c-0.061-0.099-0.151-0.209-0.2-0.319c-0.052-0.101-0.085-0.195-0.14-0.287c-0.189-0.297-0.38-0.604-0.563-0.9
			c-0.086-0.131-0.131-0.275-0.214-0.405c-0.143-0.215-0.319-0.413-0.462-0.633c-0.165-0.258-0.252-0.572-0.42-0.833
			c-0.11-0.171-0.238-0.327-0.349-0.503c-0.119-0.181-0.18-0.398-0.287-0.595c-0.092-0.171-0.223-0.331-0.304-0.502
			c-0.088-0.186-0.154-0.371-0.244-0.566c-0.049-0.104-0.122-0.202-0.171-0.313c-0.058-0.126-0.073-0.266-0.131-0.391
			c-0.163-0.359-0.41-0.699-0.578-1.059c-0.125-0.258-0.226-0.517-0.328-0.788c-0.052-0.146-0.077-0.288-0.138-0.426
			c-0.154-0.331-0.34-0.677-0.483-1.004c-0.062-0.177-0.129-0.346-0.187-0.523c-0.015-0.052-0.021-0.098-0.039-0.15
			c-0.067-0.154-0.159-0.304-0.223-0.459c-0.052-0.177-0.105-0.353-0.163-0.533c-0.232-0.578-0.441-1.232-0.661-1.837
			c-0.028-0.107-0.034-0.244-0.073-0.362c-0.116-0.307-0.229-0.615-0.341-0.928c-0.064-0.153-0.215-0.101-0.18,0.058
			c0.046,0.215,0.077,0.264,0.11,0.435c0.015,0.085,0.031,0.168,0.052,0.255c0.024,0.098,0.079,0.212,0.107,0.31
			c0.055,0.183,0.061,0.365,0.125,0.542c0.088,0.246,0.174,0.487,0.258,0.745c0.027,0.128,0.052,0.255,0.079,0.386
			c0.034,0.116,0.083,0.241,0.134,0.35c0.122,0.313,0.246,0.612,0.359,0.928c0.043,0.177,0.089,0.355,0.134,0.532
			c0.04,0.101,0.113,0.2,0.159,0.298c0.039,0.088,0.043,0.168,0.085,0.255c0.079,0.2,0.153,0.408,0.244,0.612
			c0.079,0.165,0.165,0.331,0.232,0.511c0.03,0.083,0.03,0.162,0.061,0.244c0.191,0.53,0.404,1.084,0.627,1.583
			c0.058,0.125,0.076,0.252,0.131,0.383c0.046,0.104,0.113,0.217,0.162,0.316c0.024,0.07,0.048,0.137,0.073,0.206
			c0.07,0.147,0.189,0.269,0.255,0.417c0.195,0.411,0.371,0.797,0.618,1.151c0.223,0.322,0.322,0.754,0.496,1.146
			c0.085,0.177,0.192,0.336,0.293,0.499c0.052,0.083,0.088,0.177,0.128,0.266c0.107,0.203,0.171,0.38,0.301,0.557
			c0.111,0.146,0.1,0.18,0.189,0.386c0.024,0.061,0.125,0.444,0.105,0.444c-0.033,0.022-0.224-0.091-0.291-0.163
			c-0.083-0.095-0.22-0.22-0.313-0.432c-0.046-0.104-0.141-0.287-0.192-0.388c-0.119-0.261-0.321-0.477-0.469-0.708
			c-0.091-0.134-0.14-0.287-0.209-0.438c-0.122-0.266-0.266-0.542-0.396-0.82c-0.058-0.117-0.14-0.23-0.203-0.331
			c-0.073-0.107-0.107-0.224-0.177-0.334c-0.149-0.232-0.319-0.499-0.438-0.754c-0.092-0.187-0.134-0.382-0.223-0.567
			c-0.027-0.061-0.079-0.114-0.111-0.172c-0.058-0.092-0.089-0.202-0.135-0.304c-0.07-0.144-0.175-0.281-0.242-0.429
			c-0.135-0.293-0.214-0.6-0.35-0.886c-0.064-0.137-0.168-0.249-0.235-0.386c-0.095-0.206-0.11-0.465-0.206-0.685
			c-0.249-0.569-0.548-1.157-0.762-1.761c-0.033-0.095-0.045-0.211-0.079-0.316c-0.091-0.26-0.215-0.5-0.313-0.756
			c-0.04-0.119-0.052-0.224-0.091-0.343c-0.067-0.174-0.15-0.359-0.217-0.533c-0.015-0.061-0.021-0.122-0.043-0.183
			c-0.073-0.166-0.119-0.359-0.197-0.532c-0.043-0.089-0.105-0.186-0.143-0.278c-0.061-0.174-0.043-0.392-0.101-0.554
			c-0.094-0.249-0.192-0.502-0.279-0.748c-0.055-0.143-0.064-0.276-0.113-0.417c-0.061-0.16-0.119-0.337-0.18-0.499
			c-0.061-0.166-0.055-0.346-0.11-0.523c-0.048-0.137-0.1-0.272-0.143-0.396c-0.088-0.233-0.119-0.483-0.206-0.696
			c-0.013-0.046-0.028-0.091-0.046-0.128c-0.021-0.058-0.061-0.119-0.119-0.098c-0.073,0.016-0.07,0.107-0.067,0.165
			c0.012,0.168,0.079,0.331,0.131,0.469c0.052,0.146,0.079,0.304,0.119,0.447c0.027,0.091,0.024,0.192,0.04,0.287
			c0.033,0.143,0.082,0.276,0.122,0.404c0.033,0.14,0.018,0.27,0.047,0.374c0.092,0.295,0.186,0.624,0.284,0.904
			c0.043,0.151,0.049,0.316,0.091,0.444l0.165,0.444c0.049,0.125,0.058,0.244,0.107,0.362c0.055,0.128,0.119,0.255,0.166,0.398
			c0.058,0.18,0.049,0.359,0.116,0.53c0.098,0.279,0.226,0.542,0.324,0.812c0.033,0.098,0.042,0.197,0.076,0.298
			c0.079,0.232,0.137,0.481,0.221,0.716c0.125,0.331,0.281,0.653,0.399,0.981c0.113,0.318,0.131,0.71,0.27,1.008
			c0.073,0.151,0.214,0.241,0.281,0.386c0.042,0.094,0.03,0.2,0.058,0.31c0.039,0.128,0.102,0.246,0.143,0.362
			c0.027,0.102,0.058,0.206,0.088,0.307c0.037,0.122,0.125,0.246,0.18,0.359c0.086,0.197,0.137,0.401,0.247,0.569
			c0.083,0.134,0.186,0.252,0.255,0.398c0.074,0.162,0.107,0.336,0.177,0.502c0.11,0.244,0.241,0.481,0.336,0.736
			c0.088,0.232,0.116,0.478,0.227,0.682c0.107,0.203,0.244,0.383,0.359,0.588c0.07,0.148,0.14,0.298,0.211,0.45
			c0.053,0.119,0.166,0.229,0.23,0.35c0.083,0.157,0.171,0.316,0.241,0.468c0.052,0.122,0.073,0.232,0.14,0.336
			c0.101,0.157,0.174,0.285,0.275,0.444c0.097,0.137,0.191,0.319,0.258,0.484c0.049,0.125,0.095,0.258,0.168,0.364
			c0.076,0.11,0.183,0.202,0.247,0.321c0.067,0.116,0.157,0.496,0.119,0.514c-0.08,0.03-0.31-0.195-0.374-0.273
			c-0.18-0.223-0.278-0.518-0.443-0.756c-0.175-0.252-0.291-0.398-0.428-0.69c-0.08-0.174-0.22-0.474-0.324-0.624
			c-0.088-0.143-0.212-0.267-0.288-0.426c-0.055-0.134-0.083-0.291-0.138-0.42c-0.091-0.186-0.273-0.31-0.361-0.499
			c-0.101-0.221-0.15-0.441-0.26-0.641c-0.047-0.101-0.119-0.209-0.166-0.313c-0.067-0.125-0.089-0.252-0.15-0.383
			c-0.125-0.261-0.304-0.487-0.432-0.748c-0.128-0.266-0.197-0.557-0.328-0.832c-0.067-0.143-0.186-0.27-0.255-0.416
			c-0.095-0.196-0.14-0.399-0.238-0.6c-0.052-0.116-0.137-0.235-0.191-0.353c-0.085-0.168-0.107-0.353-0.189-0.529
			c-0.18-0.399-0.362-0.82-0.542-1.215c-0.07-0.153-0.085-0.319-0.157-0.472c-0.065-0.14-0.132-0.273-0.202-0.407
			c-0.16-0.353-0.212-0.762-0.368-1.117c-0.082-0.183-0.186-0.35-0.249-0.548c-0.113-0.301-0.16-0.615-0.27-0.928
			c-0.171-0.475-0.31-0.965-0.478-1.439c-0.049-0.138-0.055-0.281-0.11-0.423c-0.047-0.141-0.102-0.278-0.151-0.417
			c-0.034-0.11-0.055-0.273-0.091-0.417c-0.125-0.401-0.254-0.797-0.379-1.204c-0.03-0.101-0.039-0.269-0.07-0.393
			c-0.021-0.07-0.055-0.151-0.079-0.215c-0.037-0.088-0.034-0.168-0.061-0.264c-0.098-0.295-0.177-0.634-0.27-0.931
			c-0.025-0.092-0.037-0.226-0.067-0.327c-0.129-0.422-0.19-0.928-0.362-1.32c-0.028-0.076-0.077-0.154-0.147-0.137
			c-0.076,0.018-0.061,0.105-0.055,0.177c0.022,0.189,0.095,0.358,0.125,0.511c0.013,0.067,0.013,0.168,0.022,0.255
			c0.006,0.073,0.012,0.159,0.039,0.235c0.077,0.246,0.168,0.545,0.241,0.788c0.025,0.12,0.006,0.3,0.037,0.432
			c0.107,0.401,0.183,0.87,0.328,1.228c0.131,0.327,0.153,0.713,0.249,1.063c0.028,0.154,0.04,0.31,0.061,0.462
			c0.019,0.148,0.104,0.249,0.147,0.371c0.033,0.098,0.033,0.177,0.067,0.27c0.079,0.252,0.131,0.499,0.23,0.756
			c0.061,0.175,0.156,0.34,0.214,0.511c0.03,0.079,0.021,0.151,0.04,0.232c0.045,0.18,0.073,0.355,0.125,0.526
			c0.122,0.344,0.245,0.722,0.367,1.068c0.068,0.192,0.092,0.379,0.159,0.564c0.278,0.742,0.551,1.491,0.824,2.227
			c0.043,0.166,0.086,0.331,0.134,0.494c0.061,0.165,0.159,0.307,0.229,0.454c0.089,0.195,0.119,0.395,0.191,0.6
			c0.086,0.239,0.197,0.425,0.287,0.671c0.046,0.119,0.085,0.252,0.143,0.365c0.037,0.086,0.113,0.165,0.153,0.255
			c0.073,0.147,0.088,0.333,0.157,0.478c0.07,0.15,0.197,0.272,0.278,0.405c0.085,0.128,0.091,0.294,0.157,0.438
			c0.098,0.23,0.235,0.435,0.33,0.673c0.042,0.102,0.061,0.192,0.111,0.288c0.046,0.113,0.129,0.214,0.18,0.327l0.009,0.018
			c0.007,0.015,0.013,0.036,0.019,0.061c0.012,0.046,0.027,0.104,0.042,0.146c0.025,0.064,0.092,0.183,0.122,0.22
			c0.019,0.027,0.068,0.085,0.116,0.14c0.016,0.018,0.037,0.043,0.052,0.067c0.101,0.153,0.11,0.374,0.191,0.548
			c0.079,0.162,0.223,0.293,0.304,0.468c0.058,0.132,0.095,0.457,0.018,0.466c-0.337,0-0.364-0.472-0.474-0.716
			c-0.089-0.189-0.226-0.349-0.327-0.535c-0.021-0.037-0.053-0.11-0.079-0.183c-0.018-0.064-0.046-0.137-0.073-0.189
			c-0.043-0.089-0.043-0.079-0.076-0.143c-0.025-0.061-0.119-0.183-0.15-0.238c0-0.003-0.003-0.006-0.003-0.013
			c-0.131-0.203-0.218-0.499-0.307-0.638c-0.05-0.079-0.119-0.157-0.172-0.235c-0.08-0.134-0.125-0.291-0.191-0.438
			c-0.065-0.134-0.168-0.264-0.229-0.407c-0.076-0.165-0.08-0.374-0.159-0.542c-0.039-0.092-0.119-0.183-0.157-0.267
			c-0.089-0.193-0.147-0.399-0.247-0.582c-0.04-0.097-0.119-0.18-0.165-0.27c-0.076-0.159-0.116-0.333-0.197-0.481
			c-0.177-0.316-0.368-0.67-0.517-1.004c-0.083-0.197-0.113-0.396-0.199-0.588c-0.073-0.166-0.174-0.331-0.249-0.49
			c-0.049-0.108-0.064-0.209-0.108-0.331c-0.068-0.189-0.153-0.38-0.22-0.566c-0.046-0.128-0.076-0.405-0.119-0.521
			c-0.043-0.14-0.119-0.288-0.18-0.428c-0.097-0.208-0.128-0.42-0.215-0.628c-0.07-0.154-0.147-0.328-0.208-0.491
			c-0.049-0.138-0.061-0.266-0.122-0.396c-0.039-0.097-0.1-0.209-0.137-0.304c-0.04-0.125-0.076-0.322-0.11-0.481
			c-0.061-0.18-0.14-0.349-0.192-0.523c-0.036-0.128-0.042-0.432-0.073-0.511c-0.18-0.548-0.35-1.123-0.523-1.665
			c-0.08-0.252-0.119-0.502-0.183-0.745c-0.025-0.098-0.031-0.226-0.058-0.322c-0.046-0.159-0.116-0.318-0.165-0.481
			c-0.027-0.104-0.043-0.217-0.061-0.327c-0.027-0.114-0.088-0.23-0.134-0.343c-0.101-0.325-0.159-0.673-0.258-0.989
			c-0.031-0.134-0.031-0.307-0.067-0.426c-0.122-0.398-0.156-0.852-0.269-1.273c-0.027-0.114-0.05-0.239-0.07-0.349
			c-0.206-0.774-0.299-1.641-0.523-2.389c-0.043-0.14,0.015-0.319-0.028-0.477c-0.045-0.171-0.091-0.324-0.14-0.481
			c-0.024-0.073-0.024-0.137-0.043-0.211c-0.036-0.125-0.097-0.221-0.16-0.209c-0.086,0.024-0.067,0.098-0.064,0.209
			c0.009,0.168,0.027,0.313,0.055,0.454c0.03,0.116,0.015,0.215,0.05,0.322c0.068,0.238,0.089,0.581,0.132,0.797
			c0.015,0.094,0.003,0.215,0.021,0.322c0.021,0.107,0.104,0.252,0.131,0.374c0.024,0.159,0.024,0.365,0.046,0.539
			c0.036,0.148,0.076,0.285,0.113,0.426c0.03,0.119,0.009,0.233,0.047,0.34c0.037,0.119,0.092,0.226,0.116,0.353
			c0.019,0.134,0,0.337,0.028,0.459c0.175,0.679,0.227,1.485,0.426,2.14c0.024,0.094,0.03,0.192,0.048,0.288
			c0.168,0.567,0.298,1.182,0.466,1.748c0.018,0.091,0.018,0.18,0.043,0.279c0.053,0.197,0.108,0.414,0.149,0.615
			c0.021,0.089,0.018,0.177,0.04,0.266c0.061,0.209,0.137,0.416,0.203,0.621c0.024,0.097,0.037,0.197,0.055,0.297
			c0.012,0.077,0.061,0.168,0.082,0.244c0.034,0.122,0.025,0.235,0.064,0.344c0.022,0.061,0.073,0.134,0.092,0.2
			c0.027,0.122,0.042,0.243,0.076,0.365c0.046,0.14,0.125,0.284,0.186,0.423c0.043,0.119,0.043,0.241,0.091,0.352
			c0.077,0.202,0.162,0.437,0.244,0.652c0.061,0.177,0.076,0.353,0.134,0.533c0.043,0.116,0.101,0.238,0.138,0.352
			c0.027,0.092,0.044,0.183,0.07,0.278c0.033,0.085,0.125,0.221,0.186,0.331c0.052,0.125,0.03,0.292,0.07,0.423
			c0.043,0.14,0.122,0.249,0.162,0.374c0.044,0.131,0.044,0.264,0.076,0.395c0.042,0.101,0.108,0.196,0.149,0.287
			c0.04,0.113,0.082,0.22,0.119,0.334c0.034,0.068,0.089,0.141,0.125,0.214c0.061,0.125,0.11,0.264,0.162,0.392
			c0.076,0.186,0.079,0.414,0.143,0.633c0.009,0.058,0.009,0.205-0.03,0.223c-0.08,0.018-0.177-0.122-0.241-0.203
			c-0.098-0.144-0.193-0.304-0.266-0.475c-0.03-0.064-0.045-0.125-0.061-0.192c-0.058-0.14-0.1-0.298-0.166-0.447
			c-0.04-0.086-0.098-0.183-0.128-0.278c-0.043-0.134-0.025-0.297-0.074-0.416c-0.048-0.095-0.125-0.174-0.178-0.278
			c-0.028-0.091-0.046-0.183-0.086-0.276c-0.046-0.107-0.113-0.208-0.174-0.313c-0.044-0.095-0.042-0.196-0.076-0.315
			c-0.037-0.14-0.082-0.276-0.14-0.404c-0.064-0.131-0.14-0.264-0.195-0.398c-0.028-0.071-0.04-0.15-0.061-0.223
			c-0.037-0.098-0.089-0.209-0.131-0.31c-0.022-0.073-0.04-0.15-0.068-0.226c-0.05-0.108-0.108-0.23-0.148-0.349
			c-0.037-0.098-0.046-0.202-0.076-0.301c-0.064-0.171-0.122-0.365-0.18-0.53c-0.037-0.134-0.049-0.264-0.088-0.398
			c-0.049-0.15-0.119-0.304-0.171-0.454c-0.043-0.125-0.058-0.258-0.095-0.389c-0.058-0.163-0.14-0.31-0.191-0.49
			c-0.036-0.134-0.04-0.267-0.07-0.401c-0.098-0.324-0.2-0.679-0.304-1.004c-0.11-0.368-0.122-0.777-0.229-1.151
			c-0.076-0.261-0.169-0.52-0.249-0.78c-0.033-0.131-0.033-0.258-0.067-0.392c-0.073-0.292-0.183-0.676-0.279-0.98
			c-0.049-0.16-0.034-0.328-0.079-0.499c-0.049-0.174-0.052-0.383-0.11-0.569c-0.037-0.113-0.077-0.195-0.11-0.339
			c-0.024-0.148-0.021-0.319-0.04-0.428c-0.021-0.107-0.212-0.75-0.233-0.872c-0.025-0.119-0.025-0.34-0.037-0.416
			c-0.012-0.055-0.107-0.333-0.119-0.405c-0.015-0.073-0.015-0.157-0.043-0.295c-0.03-0.146-0.111-0.465-0.128-0.56
			c-0.012-0.088-0.012-0.276-0.03-0.368c-0.022-0.094-0.083-0.304-0.125-0.459c-0.052-0.186-0.012-0.383-0.064-0.557
			c-0.037-0.125-0.08-0.252-0.128-0.377c-0.028-0.104-0.067-0.249-0.073-0.313c-0.007-0.095-0.013-0.301-0.016-0.377
			c-0.006-0.107-0.052-0.278-0.061-0.429c-0.009-0.208-0.058-0.429-0.091-0.56c-0.022-0.074-0.012-0.165-0.028-0.235
			c-0.05-0.203-0.103-0.389-0.206-0.377c-0.076,0.012-0.101,0.073-0.07,0.206c0.039,0.159,0.055,0.281,0.094,0.438
			c0.019,0.083,0.025,0.292,0.025,0.362c0.006,0.113,0.015,0.134,0.027,0.243c0.009,0.04,0.022,0.148,0.037,0.192
			c0.018,0.073,0.043,0.177,0.042,0.232c-0.006,0.067-0.006,0.146-0.006,0.247c0,0.052,0.006,0.073,0.022,0.163
			c0.024,0.092,0.033,0.11,0.039,0.183c0.003,0.068-0.003,0.132,0,0.186c0.003,0.071,0.013,0.144,0.031,0.208
			c0.04,0.128,0.131,0.319,0.094,0.52c-0.039,0.211,0.025,0.411,0.074,0.597c0.021,0.119-0.003,0.249,0.021,0.359
			c0.046,0.163,0.085,0.328,0.125,0.49c0.037,0.137,0.009,0.258,0.046,0.386c0.052,0.177,0.172,0.42,0.192,0.499
			c0.012,0.085,0.009,0.298,0.03,0.438c0.025,0.14,0.061,0.293,0.073,0.383c0.005,0.089-0.006,0.128,0.003,0.192
			c0.01,0.064,0.098,0.38,0.113,0.46c0.016,0.082,0.009,0.119,0.025,0.203c0.018,0.088,0.088,0.42,0.102,0.53
			c0.019,0.108,0.013,0.169,0.031,0.279c0.033,0.165,0.101,0.307,0.14,0.466c0.021,0.117,0.012,0.195,0.025,0.285
			c0.036,0.153,0.082,0.284,0.117,0.432c0.013,0.104,0.019,0.217,0.04,0.328c0.049,0.244,0.085,0.487,0.15,0.722
			c0.042,0.14,0.123,0.269,0.166,0.408c0.034,0.125,0.046,0.261,0.079,0.377c0.031,0.113,0.11,0.212,0.132,0.322
			c0.021,0.101,0.021,0.203,0.033,0.301c0.028,0.113,0.076,0.223,0.101,0.34c0.015,0.086,0.009,0.174,0.03,0.266
			c0.031,0.099,0.077,0.192,0.107,0.291c0.024,0.122,0.024,0.246,0.052,0.368c0.039,0.144,0.1,0.284,0.143,0.417
			c0.04,0.125,0.021,0.261,0.055,0.396c0.082,0.291,0.183,0.61,0.276,0.885c0.043,0.146,0.037,0.295,0.089,0.456
			c0.037,0.107,0.088,0.177,0.125,0.269c0.037,0.094,0.003,0.2,0.037,0.307c0.045,0.178,0.073,0.413,0.14,0.586
			c0.061,0.197,0.18,0.356,0.249,0.548c0.067,0.195,0.07,0.395,0.137,0.603c0.067,0.178,0.153,0.34,0.22,0.499
			c0.058,0.146,0.039,0.331,0.091,0.483c0.061,0.165,0.18,0.29,0.244,0.457c0.067,0.195,0.113,0.383,0.177,0.581
			c0.018,0.08,0.036,0.162,0.049,0.244c0.07,0.246,0.206,0.453,0.294,0.693c0.034,0.107,0.043,0.205,0.074,0.307
			c0.058,0.171,0.128,0.35,0.209,0.512c0.067,0.143,0.159,0.291,0.223,0.441c0.061,0.131,0.076,0.27,0.134,0.413
			c0.055,0.135,0.122,0.284,0.18,0.429c0.027,0.086,0.03,0.165,0.067,0.244c0.169,0.377,0.38,0.765,0.551,1.133
			c0.094,0.2,0.137,0.422,0.236,0.627c0.074,0.16,0.168,0.316,0.241,0.493c0.043,0.108,0.058,0.215,0.104,0.319
			c0.098,0.203,0.229,0.41,0.319,0.612c0.028,0.045,0.092,0.258,0.067,0.349c-0.003,0.01-0.006,0.022-0.018,0.028
			c-0.064,0.021-0.191-0.089-0.264-0.159c-0.241-0.241-0.278-0.685-0.448-0.992c-0.048-0.085-0.105-0.186-0.145-0.276
			c-0.03-0.067-0.043-0.128-0.073-0.195c-0.104-0.196-0.238-0.374-0.331-0.588c-0.064-0.148-0.074-0.325-0.138-0.471
			c-0.279-0.591-0.595-1.163-0.864-1.76c-0.122-0.27-0.143-0.584-0.252-0.873c-0.064-0.174-0.166-0.319-0.238-0.481
			c-0.061-0.128-0.076-0.267-0.131-0.395c-0.079-0.171-0.189-0.33-0.252-0.514c-0.045-0.119-0.058-0.241-0.102-0.362
			c-0.058-0.128-0.144-0.238-0.202-0.365c-0.082-0.18-0.099-0.368-0.157-0.582c-0.031-0.116-0.08-0.236-0.119-0.343
			c-0.031-0.098-0.04-0.203-0.076-0.298c-0.08-0.223-0.214-0.42-0.298-0.649c-0.058-0.154-0.049-0.352-0.11-0.499
			c-0.058-0.125-0.156-0.227-0.2-0.355c-0.061-0.135-0.006-0.298-0.052-0.457c-0.04-0.154-0.101-0.297-0.153-0.438
			c-0.033-0.091-0.039-0.18-0.064-0.27c-0.064-0.18-0.131-0.365-0.203-0.548c-0.03-0.098-0.03-0.186-0.073-0.27
			c-0.049-0.11-0.131-0.211-0.168-0.333c-0.048-0.177-0.058-0.362-0.105-0.54c-0.071-0.238-0.156-0.423-0.229-0.655
			c-0.012-0.073-0.012-0.143-0.031-0.22c-0.053-0.203-0.088-0.429-0.14-0.63c-0.027-0.099-0.021-0.18-0.046-0.279
			c-0.053-0.189-0.116-0.38-0.177-0.563c-0.033-0.116-0.039-0.238-0.064-0.35c-0.097-0.298-0.181-0.649-0.267-0.937
			c-0.027-0.086-0.015-0.159-0.04-0.258c-0.073-0.223-0.166-0.499-0.218-0.734c-0.024-0.137-0.027-0.266-0.058-0.393
			c-0.033-0.16-0.091-0.313-0.119-0.474c-0.012-0.07,0-0.128-0.003-0.192c-0.024-0.101-0.03-0.199-0.046-0.307
			c-0.108-0.408-0.267-0.916-0.355-1.33c-0.028-0.148-0.034-0.298-0.049-0.447c-0.018-0.098-0.022-0.223-0.058-0.334
			c-0.025-0.101-0.079-0.217-0.092-0.327c-0.024-0.177-0.027-0.349-0.05-0.523c-0.003-0.015-0.004-0.025-0.01-0.037
			c-0.033-0.212-0.143-0.644-0.166-0.815c-0.025-0.206-0.052-0.414-0.077-0.612c-0.003-0.137-0.027-0.27-0.048-0.41
			c-0.025-0.217-0.077-0.402-0.101-0.622c-0.021-0.148-0.009-0.279-0.03-0.404c-0.007-0.079-0.01-0.214-0.11-0.214
			c-0.095,0-0.083,0.119-0.086,0.208c-0.018,0.221,0.028,0.514,0.04,0.647C122.565,2.263,122.54,2.507,122.568,2.77 M142.419,31.289
			c0.163,0.131,0.297,0.31,0.374,0.618c0.006,0.033-0.028,0.05-0.046,0.053c-0.217,0.025-0.457-0.291-0.566-0.435
			c-0.028-0.045-0.15-0.294-0.116-0.331C142.11,31.154,142.356,31.24,142.419,31.289 M135.885,26.655
			c0.203,0.015,0.398,0.365,0.493,0.499c0.073,0.099,0.16,0.2,0.226,0.301c0.094,0.148,0.134,0.331,0.236,0.471
			c0.131,0.171,0.281,0.333,0.414,0.502c0.076,0.092,0.168,0.174,0.212,0.298c0.022,0.064,0.083,0.301,0.04,0.325
			c-0.148,0.055-0.511-0.358-0.612-0.505c-0.186-0.282-0.371-0.598-0.569-0.873c-0.186-0.244-0.389-0.417-0.432-0.846
			C135.885,26.78,135.857,26.652,135.885,26.655 M135.465,28.146c0.22,0,0.447,0.34,0.527,0.496
			c0.027,0.048,0.082,0.174,0.076,0.267c-0.006,0.058-0.022,0.085-0.061,0.085c-0.11-0.009-0.159-0.079-0.226-0.128
			c-0.189-0.14-0.34-0.355-0.349-0.673C135.432,28.155,135.447,28.146,135.465,28.146 M130.094,23.201
			c-0.047-0.079-0.097-0.177-0.128-0.264c-0.042-0.101-0.044-0.193-0.085-0.284c-0.14-0.316-0.292-0.658-0.438-0.965
			c-0.058-0.128-0.137-0.368-0.086-0.535c0.013-0.022,0.061-0.006,0.08,0.015c0.047,0.04,0.082,0.073,0.116,0.116
			c0.036,0.043,0.044,0.094,0.073,0.137c0.067,0.107,0.157,0.214,0.212,0.337c0.119,0.248,0.147,0.53,0.264,0.777
			c0.071,0.162,0.205,0.301,0.284,0.472c0.037,0.085,0.064,0.177,0.092,0.273c0.015,0.07,0.009,0.171,0.015,0.223
			c0.012,0.085-0.006,0.143-0.037,0.143C130.241,23.63,130.174,23.364,130.094,23.201 M129.209,26.739
			c0.012-0.024,0.021-0.034,0.034-0.031c0.183,0.028,0.361,0.469,0.447,0.631c0.097,0.172,0.255,0.31,0.343,0.493
			c0.074,0.157,0.095,0.362,0.189,0.52c0.061,0.122,0.177,0.217,0.249,0.334c0.104,0.147,0.165,0.342,0.244,0.509
			c0.083,0.186,0.211,0.334,0.284,0.514c0.03,0.079,0.046,0.209,0.021,0.293c-0.006,0.027-0.027,0.058-0.061,0.058
			c-0.235-0.009-0.307-0.362-0.413-0.521c-0.089-0.137-0.159-0.282-0.247-0.42c-0.064-0.094-0.141-0.192-0.193-0.297
			c-0.067-0.138-0.094-0.281-0.172-0.405c-0.043-0.067-0.11-0.122-0.156-0.186c-0.128-0.171-0.249-0.356-0.331-0.575
			c-0.021-0.079-0.043-0.156-0.058-0.235c-0.049-0.137-0.113-0.276-0.153-0.411C129.209,26.937,129.197,26.788,129.209,26.739"/>
		<path fill="#B70031" d="M13.772,106.712c-4.95,0-8.361-3.243-8.361-9.164c0-5.913,3.319-9.773,8.541-9.773
			c5.42,0,7.369,4.214,7.369,4.214l0.131,0.113v-4.976c0,0-3.252-1.593-7.868-1.593C5.237,85.532,0,90.677,0,97.58
			c0,5.562,4.324,11.693,13.242,11.693c3.363,0,7.291-1.341,7.291-1.341l1.804-6.159l-0.2,0.128
			C22.136,101.901,19.212,106.712,13.772,106.712"/>
		<path fill="#B70031" d="M101.658,108.724c0,0-1.924-0.38-0.707-2.943l1.801-3.709h8.618l1.749,3.709
			c1.226,2.563-0.704,2.943-0.704,2.943l-0.151,0.16h9.472l-0.157-0.16c0,0-1.748-0.013-3.16-2.943L108.3,84.741l-10.049,21.04
			c-1.504,2.882-3.16,2.943-3.16,2.943l-0.157,0.16h6.876L101.658,108.724z M107.253,92.658l3.234,7.458h-6.792L107.253,92.658z"/>
		<path fill="#B70031" d="M238.159,99.92c0,0,1.537,0.226,1.537,2.938v2.812c-1.029,0.441-2.215,0.736-3.564,0.736
			c-4.939,0-8.333-3.237-8.333-9.132c0-5.902,3.31-9.767,8.521-9.767c5.405,0,7.346,4.218,7.346,4.218l0.125,0.102v-4.968
			c0,0-3.231-1.577-7.856-1.577c-8.312,0-13.537,5.124-13.537,12.014c0,5.549,4.312,11.665,13.209,11.665
			c1.378,0,2.833-0.224,4.089-0.493c1.813-0.38,3.179-0.849,3.179-0.849l1.647-0.56v-0.769v-3.433c0-2.713,1.54-2.938,1.54-2.938
			l0.154-0.154h-8.202L238.159,99.92z"/>
		<path fill="#B70031" d="M261.061,85.022c-6.858,0-13.032,4.431-13.032,12.299c0,6.441,4.351,11.867,12.488,11.867
			c2.699,0,6.496-0.484,9.559-3.607c1.105-1.14,1.979-2.535,2.536-4.034c0.485-1.396,0.714-2.857,0.714-4.359
			C273.326,90.359,268.576,85.022,261.061,85.022 M266.826,103.957c-1.238,1.592-3.292,2.799-5.896,2.799
			c-5.556,0-8.259-5.273-8.259-9.956c0-5.653,3.323-9.27,7.905-9.27c5.4,0,8.1,4.621,8.1,9.885
			C268.677,99.731,268.25,102.104,266.826,103.957"/>
		<path fill="#B70031" d="M293.893,85.89l0.151,0.162c0,0,1.543,0.224,1.543,2.959v0.107c-0.006,0.073-0.006,0.147-0.006,0.229
			V101.8l-13.604-15.91h-6.317l0.141,0.156c0,0,1.541,0.227,1.541,2.936v16.786c0,2.714-1.541,2.925-1.541,2.925l-0.141,0.169h6.101
			l-0.162-0.169c0,0-1.532-0.223-1.532-2.925V90.393l16.07,18.66h2.154v-2.941v-0.162V89.011c0-2.735,1.546-2.959,1.546-2.959
			L300,85.89H293.893z"/>
		<path fill="#B70031" d="M150.099,108.721l-0.154,0.169h8.202l-0.012-0.006h1.372c3.056,0,7.084-0.102,10.379-3.127
			c1.88-1.754,3.541-4.716,3.541-8.645c0-4.104-1.859-7.941-5.623-9.791c-2.637-1.302-5.821-1.4-7.059-1.4h-2.604l0.006-0.003
			h-8.202l0.154,0.153c0,0,1.528,0.221,1.528,2.936v16.786C151.627,108.505,150.099,108.721,150.099,108.721 M156.453,89.007
			c0-0.235,0.018-0.444,0.046-0.647h2.263c2.368,0,7.221,0.105,9.204,4.846c0.548,1.299,0.745,2.702,0.745,4.101
			c0,3.77-1.662,7.61-6.435,8.778c-1.047,0.255-2.279,0.359-3.359,0.359h-2.419c-0.028-0.206-0.046-0.414-0.046-0.652V89.007z"/>
		<path fill="#B70031" d="M52.601,108.739l-0.159,0.151h8.222l-0.149-0.151c0,0-1.543-0.241-1.543-2.952l0.021-17.656h3.767
			c2.711,0,4.014,1.981,4.014,1.981l0.159,0.119l0.015-4.579c0,0-0.389,0.264-3.097,0.264H49.278c-2.714,0-3.094-0.264-3.094-0.264
			l-0.012,4.579l0.153-0.119c0,0,1.241-1.981,3.948-1.981h3.859v17.656C54.132,108.499,52.601,108.739,52.601,108.739"/>
		<path fill="#B70031" d="M86.068,108.739l-0.156,0.151h8.228l-0.163-0.151c0,0-1.534-0.241-1.534-2.952
			c0-2.707-0.015-14.112-0.015-16.816c0-2.717,1.537-2.913,1.537-2.913l0.154-0.151h-8.216l0.144,0.151c0,0,1.543,0.196,1.543,2.913
			c0,2.704,0.012,6.587,0.012,6.587H76.286v-6.587c0-2.717,1.546-2.9,1.546-2.9l0.146-0.156h-8.208l0.157,0.156
			c0,0,1.531,0.183,1.531,2.9v16.816c0,2.711-1.531,2.952-1.531,2.952l-0.157,0.151h8.208l-0.146-0.151c0,0-1.546-0.241-1.546-2.952
			v-7.978h11.316v7.978C87.602,108.499,86.068,108.739,86.068,108.739"/>
		<path fill="#B70031" d="M45.983,105.789L35.859,84.75L25.81,105.789c-1.503,2.878-3.167,2.944-3.167,2.944l-0.147,0.156h6.878
			l-0.162-0.156c0,0-1.92-0.386-0.702-2.944l1.801-3.712h8.619l1.752,3.712c1.212,2.558-0.705,2.944-0.705,2.944l-0.15,0.156H49.3
			l-0.162-0.156C49.138,108.734,47.389,108.719,45.983,105.789 M31.259,100.126l3.547-7.464l3.238,7.464H31.259z"/>
		<path fill="#B70031" d="M119.7,89.007c0.751,1.143,4.597,6.517,6.67,9.651v7.129c0,2.711-1.54,2.952-1.54,2.952l-0.15,0.151h8.216
			l-0.157-0.151c0,0-1.525-0.241-1.525-2.952c0-1.146-0.021-4-0.021-7.129c2.08-3.134,5.927-8.486,6.685-9.631
			c1.786-2.71,3.834-2.956,3.834-2.956l0.157-0.156h-7.219l0.163,0.156c0,0,2.027,0.569,0.499,2.956
			c-0.751,1.157-3.014,4.4-5.075,7.528c-2.074-3.129-4.302-6.395-5.05-7.549c-1.534-2.392,0.511-2.936,0.511-2.936l0.152-0.156
			h-9.475l0.15,0.156C116.524,86.072,117.902,86.293,119.7,89.007"/>
		<path fill="#B70031" d="M183.531,108.701c0,0-1.543-0.214-1.543-2.924v-5.048v-0.018v-1.436l3.532,0.006l4.138,7.599
			c0.754,1.443,1.693,2.003,2.909,2.003h4.025l-0.14-0.165c-1.079-0.413-1.329-0.913-2.587-3.259l-3.724-6.952
			c0.22-0.094,0.444-0.195,0.658-0.316c2.26-1.232,3.639-3.503,3.639-5.69c0-1.853-0.759-5.142-5.867-6.299
			c-1.145-0.258-2.413-0.291-4.083-0.291h-2.502v-0.007h-6.502l0.015,0.01h-0.015l0.159,0.157c0,0,1.528,0.217,1.528,2.931v16.774
			c0,2.71-1.528,2.924-1.528,2.924l-0.159,0.171h0.015l-0.015,0.012h8.201l-0.012-0.012h0.012L183.531,108.701z M183.081,88.105
			c1.32,0,2.686,0,3.512,0.249c2.15,0.6,3.249,1.905,3.249,4.327c0,1.491-0.766,3.301-2.735,4.205
			c-0.647,0.295-1.059,0.472-3.688,0.472l-1.43-0.004v-8.327V88.99v-0.885H183.081z"/>
		<path fill="#B70031" d="M214.53,108.733l-0.157,0.157h9.445l-0.15-0.157c0,0-1.749-0.022-3.155-2.931l-10.09-20.988
			l-10.026,20.988c-1.503,2.867-3.146,2.931-3.146,2.931l-0.157,0.157h6.861l-0.15-0.157c0,0-1.935-0.374-0.714-2.931l1.804-3.715
			h8.587l1.755,3.715C216.451,108.359,214.53,108.733,214.53,108.733 M205.838,100.146l3.544-7.445l3.219,7.445H205.838z"/>
		<path fill="#B70031" d="M125.973,142.267l-2.59,4.832c-0.906,1.604-1.354,2.303-2.224,2.303v0.226h2.181
			c0.524,0,2.003-0.067,2.961-1.789l2.587-4.838c0.901-1.604,1.345-2.306,2.23-2.306v-0.226h-2.19
			C128.409,140.469,126.928,140.539,125.973,142.267"/>
		<path fill="#B70031" d="M143.733,135.695l-0.183-0.18c-0.824-0.855-1.375-1.32-2.054-1.503h1.405c1.24,0,2.241,0.572,2.241,1.277
			h0.145v-2.921h-2.508v-2.447h0.122c1.24,0,2.241,0.57,2.241,1.29h0.145v-2.936h-2.508v-0.566c0-0.448,0.356-1.273,0.944-1.273
			v-0.157h-4.863v0.157c0.582,0,0.937,0.824,0.937,1.273v0.566h-3.524v-0.566c0-0.448,0.347-1.273,0.916-1.273v-0.157h-4.841v0.157
			c0.575,0,0.94,0.824,0.94,1.273v0.566h-2.598v2.936h0.146c0-0.72,1.005-1.29,2.244-1.29h0.209v2.447h-2.598v2.921h0.146
			c0-0.705,1.005-1.277,2.244-1.277h1.457c-0.679,0.183-1.229,0.647-2.06,1.503l-0.177,0.18c-0.656,0.667-1.146,1.761-2.376,1.761
			v0.141h1.094h1.817c0.897,0,1.022,0.012,2.552-1.589l0.189-0.177c0.569-0.609,1.439-1.528,2.437-1.719
			c0.999,0.192,1.858,1.111,2.45,1.719l0.177,0.177c1.54,1.601,1.653,1.589,2.549,1.589h1.82h1.097v-0.141
			C144.879,137.456,144.394,136.362,143.733,135.695 M136.275,129.922h3.523v2.447h-3.523V129.922z"/>
		<path fill="#B70031" d="M143.799,147.499h-8.34c-0.627,0-0.965-0.435-0.965-0.977c0-1.041,0.022-1.776,0.022-1.776l7.593-0.007
			c1.586,0,3.169-1.247,3.169-3.063v-3.679h-15.025v0.144c0.702,0,1.296,0.754,1.296,2.263l-0.034,6.391
			c0,1.366,0.879,2.434,2.723,2.434h10.793l0.833-2.955l-0.203,0.022C145.467,147.194,145.032,147.499,143.799,147.499
			 M134.531,139.637h7.752v1.813c-0.024,1.36-0.401,1.644-1.767,1.644h-5.985V139.637z"/>
		<path fill="#B70031" d="M163.007,133.108h-6.07c-1.244,0-2.251-0.575-2.251-1.275h-0.141v2.925h10.857v-2.925h-0.15
			C165.252,132.534,164.245,133.108,163.007,133.108"/>
		<path fill="#B70031" d="M162.418,126.438v-0.156h-4.852v0.156c0.49,0,0.827,0.487,0.915,1.32h-4.29v2.912h0.145
			c0-0.702,1.011-1.271,2.247-1.271h6.885c1.25,0,2.251,0.569,2.251,1.271h0.141v-2.912h-4.361
			C161.582,126.925,161.922,126.438,162.418,126.438"/>
		<path fill="#B70031" d="M156.511,131.89c0.295,0.83,0.977,0.843,1.844,0.843h1.068v-0.071c-0.282,0-0.653-0.236-0.833-0.772
			l-0.353-1.079c-0.275-0.837-0.965-0.837-1.844-0.837h-1.035v0.076c0.263,0,0.628,0.241,0.809,0.762L156.511,131.89z"/>
		<path fill="#B70031" d="M163.514,131.864l0.353-1.074c0.174-0.536,0.529-0.768,0.803-0.768v-0.076h-1.035
			c-0.876,0-1.564,0-1.844,0.843l-0.359,1.074c-0.169,0.533-0.532,0.774-0.812,0.774v0.067h1.062
			C162.546,132.705,163.238,132.705,163.514,131.864"/>
		<path fill="#B70031" d="M130.451,132.25c-0.922,0-1.393-0.693-2.34-2.315l-1.059-1.823c-1.016-1.719-2.57-1.798-3.132-1.798
			h-2.309l-0.003,0.232c0.937,0,1.406,0.702,2.352,2.315l1.053,1.82c1.01,1.737,2.581,1.798,3.129,1.798h2.309V132.25z"/>
		<path fill="#B70031" d="M127.031,134.648c-1.019-1.728-2.578-1.813-3.135-1.813h-2.303l-0.003,0.244
			c0.937,0,1.403,0.708,2.352,2.315l1.05,1.823c1.017,1.73,2.587,1.807,3.126,1.807h2.315v-0.226c-0.928,0-1.403-0.711-2.355-2.315
			L127.031,134.648z"/>
		<path fill="#B70031" d="M156.656,135.788h-2.717v0.156c0.713,0,1.357,0.766,1.357,2.278v0.457v4.147
			c0,3.967-0.31,6.685-1.813,6.685v0.143h1.813c2.174,0,2.59-2.091,2.665-4.968h4.242v1.615c0,0.785-0.037,1.618-1.342,1.618
			c-0.702,0-1.1-0.192-1.657-0.821h-0.147l1.43,2.555c0.478,0.073,0.731,0.107,1.397,0.107c0.661,0,3.008,0.015,3.008-3.46v-10.513
			h-7.366H156.656z M157.984,143.094v-0.131v-1.786h4.22v1.917H157.984z M158.674,137.58h3.529v1.993h-4.22v-1.993H158.674z"/>
		<path fill="#B70031" d="M176.437,147.499c-1.259,0-5.121,0.052-5.635,0.052c-0.612,0-0.959-0.444-0.959-0.98v-0.517h4.318
			c1.241,0,2.242,0.474,2.242,1.195h0.159v-2.833h-6.731c0-0.484-0.006-1.019-0.006-1.569h5.577c1.238,0,2.033,0.474,2.033,1.177
			h0.15V141.2h-7.775c0-0.548-0.009-1.091-0.009-1.598h5.586c1.235,0,2.036,0.466,2.036,1.188h0.157v-2.842h-7.791
			c0-0.883-0.004-1.464-0.004-1.464l4.19-0.009c1.583,0,3.271-1.142,3.271-2.961l-0.061-2.34l-6.383,0.006v-1.841h4.677
			c1.244,0,2.236,0.57,2.236,1.278h0.151v-2.933h-7.065v-0.043c0-0.45,0.353-1.278,0.922-1.278v-0.157h-4.838v0.157
			c0.575,0,0.928,0.829,0.928,1.278v3.541l-1.568,0.003v2.934h0.141c0-0.71,0.995-1.296,2.239-1.296h0.151h5.478v0.255
			c0,1.157-0.095,1.7-1.464,1.7l-5.905-0.009l-0.031,12.064c0,1.366,0.888,2.441,2.72,2.441l8.094-0.049l0.833-2.955l-0.209,0.022
			C178.095,147.194,177.669,147.499,176.437,147.499"/>
		<path fill="#B70031" d="M99.037,145.144v-0.165h-1.084h-1.798c-0.845,0-1.743-0.163-2.985,1.461l-1.357,1.737
			c-0.548,0.708-1.082,1.311-2.233,1.311v0.147h1.062h1.786c0.84,0,1.719,0.14,2.989-1.458l1.363-1.737
			C97.337,145.732,97.88,145.144,99.037,145.144"/>
		<path fill="#B70031" d="M103.5,138.856h-4.835v0.143c0.578,0,0.925,0.829,0.925,1.29v5.901c0,0.787-0.019,1.618-1.044,1.618
			c-0.696,0-1.102-0.197-1.658-0.823H96.74l1.427,2.551c0.468,0.067,0.737,0.102,1.393,0.102c0.655,0,3.01,0.013,3.01-3.449v-5.901
			c0-0.462,0.356-1.29,0.931-1.29V138.856z"/>
		<path fill="#B70031" d="M92.59,142.818l0.183,0.18c1.519,1.673,2.34,1.457,3.189,1.457h1.996h1.03v-0.14
			c-1.152,0-1.749-0.612-2.391-1.317l-0.186-0.18c-1.552-1.67-2.352-1.455-3.195-1.455h-2.005h-1.044v0.159
			C91.315,141.522,91.94,142.11,92.59,142.818"/>
		<path fill="#B70031" d="M110.318,148.177l-1.372-1.737c-1.224-1.624-2.14-1.461-2.973-1.461h-1.801h-1.069v0.165
			c1.13,0,1.69,0.589,2.238,1.296l1.363,1.737c1.274,1.598,2.147,1.461,2.979,1.461h1.801h1.059v-0.15
			C111.395,149.488,110.869,148.886,110.318,148.177"/>
		<path fill="#B70031" d="M108.488,137.879c-1.448-1.117-2.184-1.618-2.781-1.844h4.89c1.226,0,2.233,0.582,2.233,1.284h0.143
			v-2.918H102.57v-1.911h6.226c1.247,0,2.239,0.572,2.239,1.284h0.159v-2.928h-8.624v-1.662h7.583c1.235,0,2.227,0.564,2.227,1.275
			h0.151v-2.921h-9.962c0-0.457,0.356-1.281,0.931-1.281v-0.148h-4.835v0.148c0.576,0,0.922,0.824,0.922,1.281h-9.997v2.921h0.14
			c0-0.711,1.007-1.275,2.239-1.275h7.619v1.662h-8.654v2.928h0.15c0-0.713,0.995-1.284,2.23-1.284h6.273v1.911h-10.44v2.918h0.141
			c0-0.702,1.001-1.284,2.233-1.284h4.898c-0.603,0.226-1.33,0.728-2.787,1.844l-1.074,0.858c-2.49,1.835-2.548,1.847-3.43,1.847
			v0.169h3.375c1.172,0,1.667-0.018,4.229-2.016l1.071-0.858c2.186-1.705,2.358-1.825,3.259-1.829
			c0.898,0.004,1.062,0.125,3.25,1.829l1.074,0.858c2.561,1.999,3.054,2.016,4.226,2.016h3.384v-0.169
			c-0.898,0-0.946-0.012-3.436-1.847L108.488,137.879z"/>
		<path fill="#B70031" d="M103.135,144.454h1.019h2.006c0.836,0,1.664,0.217,3.198-1.455l0.183-0.181
			c0.638-0.707,1.268-1.296,2.416-1.296v-0.159h-1.047h-2.003c-0.842,0-1.639-0.215-3.191,1.455l-0.197,0.181
			c-0.646,0.704-1.229,1.316-2.383,1.316V144.454z"/>
		<path fill="#B70031" d="M56.38,126.406c0.71,0,1.284,1.525,1.284,2.756v17.632c0,1.24-0.575,2.244-1.278,2.244v0.146h20.408
			c2.129,0,3.868-1.734,3.868-3.869v-19.056H56.38V126.406z M60.646,127.894h17.032v17.2c-0.03,1.369-1.117,2.456-2.477,2.456
			H60.646V127.894z"/>
		<path fill="#B70031" d="M68.879,140.321v-5.724h-7.077v8.009h4.78C67.852,142.606,68.879,141.589,68.879,140.321 M66.513,140.321
			c0,0.359-0.301,0.641-0.647,0.641h-1.681v-4.725h2.328V140.321z"/>
		<path fill="#B70031" d="M76.762,145.953c-1.212-0.478-1.583-0.946-2.294-3.457l-0.6-2.27c0.759-1.581,1.667-3.449,1.81-3.718
			c0.385-0.812,0.619-1.485,1.313-1.764v-0.147h-3.543v0.101c0.603,0.223,0.673,0.803-0.036,2.251
			c-0.095,0.19-0.186,0.371-0.27,0.545l-1.313-4.925h2.499c1.691,0,2.172,0.578,2.236,0.973h0.154v-2.613h-1.466
			c0.593-1.317,0.818-1.662,1.311-1.709v-0.159h-3.63v0.101c0.527,0.197,0.624,0.685,0.159,1.767h-1.719
			c-0.275-1.082-0.076-1.552,0.478-1.758v-0.095h-4.619v0.15c1.016,0.2,1.284,0.873,1.519,1.703h-6.989v2.613h0.143
			c0.064-0.395,0.548-0.973,2.236-0.973h5.038l2.227,8.507c-1.225,2.431-1.947,3.28-3.702,3.28l-3.665-0.006
			c-1.292,0-2.184-0.337-2.57-0.913h-0.144l1.461,2.554h5.081c1.902,0,3.184-0.829,4.233-2.377c0.416,1.258,0.952,2.441,2.695,2.441
			h1.966V145.953z"/>
		<path fill="#B70031" d="M240.566,128.152h-7.697c0-1.09,0.355-1.758,0.918-1.758v-0.147h-4.826v0.147
			c0.579,0,0.932,0.668,0.932,1.758h-11.066v0.14c0.714,0,1.289,1.537,1.289,2.766v2.005h2.983v-3.271h15.898
			c0.784,0,1.825-0.12,1.497,1.261c-0.203,0.922-0.426,2.01-0.426,2.01h2.952c0,0,0.334-1.408,0.502-2.193
			C244.177,127.894,241.451,128.152,240.566,128.152"/>
		<path fill="#B70031" d="M225.477,136.09l2.61-2.982c1.108-1.275,1.564-1.838,2.636-1.838v-0.18h-2.714
			c-1.163,0-1.647,0.012-3.387,2.018l-2.601,2.982c-1.108,1.278-1.564,1.829-2.631,1.829v0.195h2.704
			C223.262,138.114,223.746,138.091,225.477,136.09"/>
		<path fill="#B70031" d="M240.874,147.58h-8.051v-6.873h6.861c1.221,0,2.221,0.584,2.221,1.284h0.157v-2.915h-21.454v2.915h0.141
			c0-0.701,0.995-1.284,2.236-1.284h6.855v6.873h-8.045c-1.238,0-2.244-0.575-2.244-1.284h-0.143v2.925h23.845v-2.925h-0.157
			C243.098,147.005,242.103,147.58,240.874,147.58"/>
		<path fill="#B70031" d="M240.645,136.09l-2.607-2.982c-1.734-2.006-2.221-2.018-3.39-2.018h-2.7v0.18
			c1.066,0,1.51,0.563,2.63,1.838l2.598,2.982c1.737,2.002,2.221,2.024,3.39,2.024h2.701v-0.195
			C242.214,137.919,241.749,137.368,240.645,136.09"/>
		<path fill="#B70031" d="M198.901,131.107h0.151c0-0.705,0.993-1.278,2.221-1.278h6.873c1.235,0,2.238,0.573,2.238,1.278h0.146
			v-2.927h-4.364c0-1.081,0.353-1.743,0.928-1.743v-0.156h-4.826v0.156c0.561,0,0.928,0.662,0.928,1.743h-4.296V131.107z"/>
		<path fill="#B70031" d="M209.646,147.902c-0.824,0-0.745-1.293-0.745-1.81v-10.96c0-1.032,0.194-3.883-2.933-3.883h-5.086v11.577
			c0,3.967-0.313,6.67-1.807,6.67v0.143h1.807c2.563,0,2.696-2.946,2.696-6.657v-9.944h1.096c1.381,0,1.509,1.097,1.537,2.462
			v10.429c0,1.177-0.123,3.828,2.3,3.828c0.714,0,1.277-0.261,1.572-0.347c0.441-1.053,0.968-2.251,0.968-2.251h-0.138
			C210.914,147.159,210.489,147.902,209.646,147.902"/>
		<path fill="#B70031" d="M191.413,130.78c0.273,0,0.641,0.465,0.818,1.561l0.359,2.206c0.281,1.719,0.624,1.725,1.509,1.725h1.05
			v-0.162c-0.276,0-0.636-0.471-0.821-1.564l-0.359-2.206c-0.267-1.706-0.627-1.722-1.503-1.722h-1.053V130.78z"/>
		<path fill="#B70031" d="M194.098,145.732h1.05v-0.154c-0.276,0-0.635-0.475-0.821-1.571l-0.359-2.202
			c-0.275-1.714-0.627-1.722-1.503-1.722h-1.053v0.143c0.273,0,0.641,0.481,0.818,1.58l0.359,2.202
			C192.872,145.721,193.213,145.732,194.098,145.732"/>
		<path fill="#B70031" d="M199.541,140.266v-2.915h-1.44v-9.782h-5.832l0.052-0.085c0.63-1.072,1.256-1.537,1.564-1.537v-0.153
			h-2.036c-0.967,0-1.372,0.006-2.352,1.69l-1.277,2.166c-0.634,1.076-1.255,1.535-1.568,1.535v0.144h1.875v6.021h-1.449v2.915
			h0.153c0-0.523,0.523-0.946,1.296-1.146v3.708c0,3.966-0.313,6.67-1.809,6.67v0.141h1.789c2.592,0,2.699-2.946,2.699-6.655v-3.999
			h4.205v7.299c0,0.791-0.049,1.623-1.336,1.623c-0.702,0-1.094-0.193-1.651-0.82h-0.144l1.412,2.551
			c0.472,0.07,0.742,0.105,1.4,0.105c0.661,0,3.008,0.013,3.008-3.46v-7.164c0.759,0.2,1.281,0.624,1.281,1.146H199.541z
			 M195.412,137.351h-4.205v-7.993h0.69h3.515V137.351z"/>
	</g>
</g>
</svg>
