<?xml version="1.0" encoding="UTF-8"?>
<svg width="76px" height="23px" viewBox="0 0 76 23" version="1.1" xmlns="http://www.w3.org/2000/svg" xmlns:xlink="http://www.w3.org/1999/xlink">
    <!-- Generator: Sketch 49.1 (51147) - http://www.bohemiancoding.com/sketch -->
    <title>Air_astana_s</title>
    <desc>Created with Sketch.</desc>
    <defs>
        <polygon id="path-1" points="5.71428571e-05 11.4285714 13.8048828 11.4285714 13.8048828 0.0170142857 5.71428571e-05 0.0170142857"></polygon>
    </defs>
    <g id="AVIA" stroke="none" stroke-width="1" fill="none" fill-rule="evenodd">
        <g id="Air_astana_s">
            <path d="M2.512,9.07622857 L16.8742857,8.57142857e-05 C16.7642857,0.903228571 17.2137143,2.09594286 15.0661429,3.70037143 C17.4447143,4.93422857 17.4447143,7.90322857 15.1985714,8.5038 C14.0385714,8.64894286 13.3485714,8.20994286 13.1268571,7.18208571 C13.3191429,5.9028 14.1698571,6.25594286 14.231,6.78422857 C14.4431429,7.98565714 15.5001429,7.76651429 15.7268571,6.69594286 C15.9795714,3.33422857 10.2574286,4.6858 12.0725714,8.19451429 C10.8531429,7.7398 9.92842857,8.0458 9.29514286,9.11737143 C9.63985714,10.0515143 10.3891429,10.5798 12.0268571,10.2180857 C10.0805714,13.5195143 15.25,15.0585143 15.6402857,11.9838 C15.5215714,10.5575143 14.5231429,10.4560857 14.231,11.5430857 C14.023,12.2322286 13.1567143,12.3199429 13.0847143,11.4108 C13.0881429,9.46108571 16.234,9.30194286 16.7428571,11.4543714 C17.089,12.6763714 16.4778571,13.7102286 15.0661429,14.5815143 C16.4841429,15.8610857 16.85,17.1379429 16.7428571,18.4149429 L2.512,9.07622857 Z" id="Fill-1" fill="#8A8259"></path>
            <g id="Group-5" transform="translate(0.000000, 11.526000)">
                <mask id="mask-2" fill="white">
                    <use xlink:href="#path-1"></use>
                </mask>
                <g id="Clip-4"></g>
                <path d="M11.2776286,4.94601429 C10.9957714,5.44358571 10.3083429,5.43587143 10.2447714,4.63844286 C10.2447714,4.51815714 10.2574857,4.40372857 10.2799143,4.29644286 L11.2776286,4.94601429 Z M5.71428571e-05,2.3783 L3.73462857,0.0170142857 L6.83405714,2.04344286 C6.7422,2.15587143 6.6562,2.2803 6.57291429,2.41972857 C6.89862857,3.29801429 7.59034286,3.80587143 9.08462857,3.51444286 L9.17148571,3.57287143 C7.5542,6.4713 11.6417714,7.92258571 12.5632,5.7873 L13.5520571,6.4343 C13.2677714,6.89844286 12.8000571,7.32201429 12.1653429,7.71315714 C13.5373429,8.94944286 13.8959143,10.1894429 13.7864857,11.4285857 L5.71428571e-05,2.3783 Z" id="Fill-3" fill="#878A8F" mask="url(#mask-2)"></path>
            </g>
            <path d="M73.9959571,9.18344286 C73.7871,9.25658571 73.4572429,9.33915714 73.0002429,9.43615714 C72.5472429,9.53415714 72.2491,9.62772857 72.1072429,9.71972857 C71.8942429,9.87344286 71.7878143,10.0658714 71.7878143,10.2978714 C71.7878143,10.5290143 71.8726714,10.7258714 72.0436714,10.8917286 C72.2148143,11.0628714 72.4312429,11.1451571 72.6976714,11.1451571 C72.9925286,11.1451571 73.2761,11.0471571 73.5422429,10.8531571 C73.7425286,10.7063 73.8722429,10.5265857 73.9358143,10.3101571 C73.9772429,10.1707286 73.9959571,9.90258571 73.9959571,9.51001429 L73.9959571,9.18344286 Z M71.8056714,7.85501429 L70.3166714,7.58444286 C70.4851,6.9863 70.7721,6.54272857 71.1793857,6.25587143 C71.5892429,5.9663 72.1941,5.82444286 73.0002429,5.82444286 C73.7329571,5.82444286 74.2763857,5.91115714 74.6355286,6.08487143 C74.9912429,6.25844286 75.2438143,6.47587143 75.3896714,6.74201429 C75.5348143,7.01115714 75.6071,7.49758571 75.6071,8.21001429 L75.5908143,10.1235857 C75.5908143,10.6683 75.6149571,11.0705857 75.6701,11.3307286 C75.7225286,11.5851571 75.8229571,11.8645857 75.9656714,12.1591571 L74.3413857,12.1591571 C74.2985286,12.0493 74.2468143,11.8913 74.1832429,11.6763 C74.1593857,11.5781571 74.1378143,11.5138714 74.1283857,11.4828714 C73.8482429,11.7563 73.5466714,11.9598714 73.2305286,12.0983 C72.9106714,12.2321571 72.5695286,12.2993 72.2071,12.2993 C71.5703857,12.2993 71.0658143,12.1264429 70.6998143,11.7794429 C70.3321,11.4340143 70.1479571,10.9973 70.1479571,10.4655857 C70.1479571,10.1193 70.2312429,9.80472857 70.3972429,9.53144286 C70.5658143,9.2573 70.8026714,9.04672857 71.1011,8.90344286 C71.4033857,8.75644286 71.8383857,8.62844286 72.4063857,8.51844286 C73.1703857,8.37472857 73.7012429,8.23987143 73.9959571,8.11801429 L73.9959571,7.95458571 C73.9959571,7.63758571 73.9203857,7.41258571 73.7632429,7.28001429 C73.6101,7.14515714 73.3165286,7.07801429 72.8851,7.07801429 C72.5911,7.07801429 72.3652429,7.13572857 72.2001,7.25087143 C72.0376714,7.36344286 71.9081,7.56615714 71.8056714,7.85501429 Z M68.9168143,12.1591571 L67.2782429,12.1591571 L67.2782429,8.99687143 C67.2782429,8.32772857 67.2428143,7.89715714 67.1722429,7.70115714 C67.1019571,7.50358571 66.9902429,7.35072857 66.8312429,7.23972857 C66.6722429,7.13244286 66.4856714,7.07801429 66.2632429,7.07801429 C65.9788143,7.07801429 65.7251,7.15458571 65.4985286,7.31272857 C65.2708143,7.46844286 65.1179571,7.67272857 65.0346714,7.9323 C64.9485286,8.18672857 64.9098143,8.66201429 64.9098143,9.35601429 L64.9098143,12.1591571 L63.2685286,12.1591571 L63.2685286,5.96544286 L64.7896714,5.96544286 L64.7896714,6.87444286 C65.3316714,6.17344286 66.0141,5.82444286 66.8363857,5.82444286 C67.1946714,5.82444286 67.5273857,5.88972857 67.8281,6.01701429 C68.1261,6.15015714 68.3521,6.3143 68.5043857,6.51787143 C68.6579571,6.7223 68.7655286,6.95115714 68.8238143,7.2063 C68.8873857,7.46487143 68.9168143,7.8293 68.9168143,8.30701429 L68.9168143,12.1591571 Z M60.0539571,9.18344286 C59.8435286,9.25658571 59.5116714,9.33915714 59.0552429,9.43615714 C58.6035286,9.53415714 58.3052429,9.62772857 58.1643857,9.71972857 C57.9495286,9.87344286 57.8421,10.0658714 57.8421,10.2978714 C57.8421,10.5290143 57.9281,10.7258714 58.1006714,10.8917286 C58.2701,11.0628714 58.4872429,11.1451571 58.7529571,11.1451571 C59.0502429,11.1451571 59.3303857,11.0471571 59.6002429,10.8531571 C59.8002429,10.7063 59.9258143,10.5265857 59.9903857,10.3101571 C60.0349571,10.1707286 60.0539571,9.90258571 60.0539571,9.51001429 L60.0539571,9.18344286 Z M57.8611,7.85501429 L56.3702429,7.58444286 C56.5393857,6.9863 56.8271,6.54272857 57.2362429,6.25587143 C57.6452429,5.9663 58.2503857,5.82444286 59.0552429,5.82444286 C59.7883857,5.82444286 60.3322429,5.91115714 60.6915286,6.08487143 C61.0471,6.25844286 61.2998143,6.47587143 61.4466714,6.74201429 C61.5912429,7.01115714 61.6651,7.49758571 61.6651,8.21001429 L61.6471,10.1235857 C61.6471,10.6683 61.6726714,11.0705857 61.7251,11.3307286 C61.7785286,11.5851571 61.8783857,11.8645857 62.0199571,12.1591571 L60.3959571,12.1591571 C60.3555286,12.0493 60.3015286,11.8913 60.2429571,11.6763 C60.2135286,11.5781571 60.1949571,11.5138714 60.1829571,11.4828714 C59.9026714,11.7563 59.6019571,11.9598714 59.2846714,12.0983 C58.9652429,12.2321571 58.6249571,12.2993 58.2641,12.2993 C57.6248143,12.2993 57.1238143,12.1264429 56.7549571,11.7794429 C56.3881,11.4340143 56.2018143,10.9973 56.2018143,10.4655857 C56.2018143,10.1193 56.2866714,9.80472857 56.4542429,9.53144286 C56.6229571,9.2573 56.8572429,9.04672857 57.1571,8.90344286 C57.4605286,8.75644286 57.8926714,8.62844286 58.4606714,8.51844286 C59.2271,8.37472857 59.7599571,8.23987143 60.0539571,8.11801429 L60.0539571,7.95458571 C60.0539571,7.63758571 59.9749571,7.41258571 59.8185286,7.28001429 C59.6646714,7.14515714 59.3733857,7.07801429 58.9402429,7.07801429 C58.6472429,7.07801429 58.4195286,7.13572857 58.2562429,7.25087143 C58.0953857,7.36344286 57.9632429,7.56615714 57.8611,7.85501429 Z M55.4962429,5.96544286 L55.4962429,7.27058571 L54.3772429,7.27058571 L54.3772429,9.76944286 C54.3772429,10.2747286 54.3859571,10.5703 54.4116714,10.6528714 C54.4306714,10.7354429 54.4781,10.8033 54.5553857,10.8590143 C54.6299571,10.9150143 54.7253857,10.9407286 54.8336714,10.9407286 C54.9841,10.9407286 55.2056714,10.8873 55.4919571,10.7817286 L55.6319571,12.0533 C55.2512429,12.2185857 54.8191,12.2993 54.3361,12.2993 C54.0396714,12.2993 53.7751,12.2458714 53.5379571,12.1524429 C53.3008143,12.0533 53.1279571,11.9218714 53.0153857,11.7658714 C52.9036714,11.6075857 52.8306714,11.3961571 52.7869571,11.1254429 C52.7515286,10.9371571 52.7318143,10.5488714 52.7318143,9.97144286 L52.7318143,7.27058571 L51.9791,7.27058571 L51.9791,5.96544286 L52.7318143,5.96544286 L52.7318143,4.73144286 L54.3772429,3.77658571 L54.3772429,5.96544286 L55.4962429,5.96544286 Z M45.4338143,10.3934429 L47.0792429,10.1397286 C47.1481,10.4577286 47.2891,10.7034429 47.5062429,10.8685857 C47.7186714,11.0334429 48.0159571,11.1160143 48.4035286,11.1160143 C48.8272429,11.1160143 49.1451,11.0387286 49.3582429,10.8798714 C49.5042429,10.7733 49.5756714,10.6261571 49.5756714,10.4465857 C49.5756714,10.3221571 49.5368143,10.2155857 49.4595286,10.1330143 C49.3781,10.0564429 49.1932429,9.98615714 48.9112429,9.9183 C47.5898143,9.62772857 46.7502429,9.36058571 46.3961,9.12158571 C45.9065286,8.78458571 45.6608143,8.32144286 45.6608143,7.72258571 C45.6608143,7.18901429 45.8711,6.73615714 46.2983857,6.37372857 C46.7211,6.00572857 47.3783857,5.82444286 48.2678143,5.82444286 C49.1159571,5.82444286 49.7485286,5.96358571 50.1575286,6.23515714 C50.5715286,6.51358571 50.8552429,6.92258571 51.0081,7.46487143 L49.4648143,7.74915714 C49.3971,7.50787143 49.2729571,7.3213 49.0883857,7.19572857 C48.9036714,7.0653 48.6406714,7.00172857 48.2969571,7.00172857 C47.8655286,7.00172857 47.5555286,7.06115714 47.3688143,7.18201429 C47.2469571,7.26887143 47.1833857,7.38058571 47.1833857,7.51658571 C47.1833857,7.6333 47.2391,7.7313 47.3475286,7.81287143 C47.4961,7.92287143 48.0039571,8.07672857 48.8779571,8.2733 C49.7519571,8.47187143 50.3611,8.7133 50.7089571,9.00558571 C51.0493857,9.29515714 51.2221,9.70244286 51.2221,10.2198714 C51.2221,10.7920143 50.9858143,11.2808714 50.5072429,11.6898714 C50.0345286,12.0983 49.3341,12.2993 48.4035286,12.2993 C47.5589571,12.2993 46.8902429,12.1264429 46.4005286,11.7827286 C45.9065286,11.4435857 45.5832429,10.9793 45.4338143,10.3934429 Z M42.7829571,9.18344286 C42.5749571,9.25658571 42.2425286,9.33915714 41.7861,9.43615714 C41.3322429,9.53415714 41.0348143,9.62772857 40.8942429,9.71972857 C40.6802429,9.87344286 40.5735286,10.0658714 40.5735286,10.2978714 C40.5735286,10.5290143 40.6578143,10.7258714 40.8296714,10.8917286 C41.0022429,11.0628714 41.2191,11.1451571 41.4818143,11.1451571 C41.7809571,11.1451571 42.0592429,11.0471571 42.3292429,10.8531571 C42.5268143,10.7063 42.6592429,10.5265857 42.7192429,10.3101571 C42.7639571,10.1707286 42.7829571,9.90258571 42.7829571,9.51001429 L42.7829571,9.18344286 Z M40.5909571,7.85501429 L39.1023857,7.58444286 C39.2692429,6.9863 39.5571,6.54272857 39.9651,6.25587143 C40.3769571,5.9663 40.9809571,5.82444286 41.7861,5.82444286 C42.5208143,5.82444286 43.0595286,5.91115714 43.4215286,6.08487143 C43.7779571,6.25844286 44.0298143,6.47587143 44.1758143,6.74201429 C44.3218143,7.01115714 44.3932429,7.49758571 44.3932429,8.21001429 L44.3768143,10.1235857 C44.3768143,10.6683 44.4016714,11.0705857 44.4569571,11.3307286 C44.5066714,11.5851571 44.6079571,11.8645857 44.7523857,12.1591571 L43.1256714,12.1591571 C43.0852429,12.0493 43.0321,11.8913 42.9702429,11.6763 C42.9446714,11.5781571 42.9238143,11.5138714 42.9126714,11.4828714 C42.6315286,11.7563 42.3342429,11.9598714 42.0155286,12.0983 C41.6966714,12.2321571 41.3555286,12.2993 40.9921,12.2993 C40.3553857,12.2993 39.8526714,12.1264429 39.4848143,11.7794429 C39.1171,11.4340143 38.9339571,10.9973 38.9339571,10.4655857 C38.9339571,10.1193 39.0191,9.80472857 39.1841,9.53144286 C39.3518143,9.2573 39.5881,9.04672857 39.8878143,8.90344286 C40.1869571,8.75644286 40.6243857,8.62844286 41.1915286,8.51844286 C41.9579571,8.37472857 42.4898143,8.23987143 42.7829571,8.11801429 L42.7829571,7.95458571 C42.7829571,7.63758571 42.7046714,7.41258571 42.5509571,7.28001429 C42.3935286,7.14515714 42.1022429,7.07801429 41.6685286,7.07801429 C41.3761,7.07801429 41.1512429,7.13572857 40.9871,7.25087143 C40.8226714,7.36344286 40.6922429,7.56615714 40.5909571,7.85501429 Z M32.9679571,12.1591571 L31.3258143,12.1591571 L31.3258143,5.96544286 L32.8492429,5.96544286 L32.8492429,6.84715714 C33.1079571,6.4303 33.3433857,6.15187143 33.5513857,6.02301429 C33.7593857,5.88972857 33.9938143,5.82444286 34.2578143,5.82444286 C34.6341,5.82444286 34.9932429,5.92487143 35.3412429,6.13472857 L34.8326714,7.56272857 C34.5561,7.38301429 34.2999571,7.29487143 34.0609571,7.29487143 C33.8315286,7.29487143 33.6391,7.35572857 33.4792429,7.48387143 C33.3183857,7.61001429 33.1946714,7.83787143 33.1029571,8.16958571 C33.0126714,8.49958571 32.9679571,9.19201429 32.9679571,10.2447286 L32.9679571,12.1591571 Z M28.0742429,12.1591571 L29.7155286,12.1591571 L29.7155286,5.96544286 L28.0742429,5.96544286 L28.0742429,12.1591571 Z M28.0742429,5.12501429 L29.7155286,5.12501429 L29.7155286,3.60644286 L28.0742429,3.60644286 L28.0742429,5.12501429 Z M24.8466714,9.18344286 C24.6386714,9.25658571 24.3071,9.33915714 23.8499571,9.43615714 C23.3969571,9.53415714 23.0989571,9.62772857 22.9569571,9.71972857 C22.7466714,9.87344286 22.6399571,10.0658714 22.6399571,10.2978714 C22.6399571,10.5290143 22.7243857,10.7258714 22.8951,10.8917286 C23.0662429,11.0628714 23.2838143,11.1451571 23.5473857,11.1451571 C23.8439571,11.1451571 24.1251,11.0471571 24.3939571,10.8531571 C24.5932429,10.7063 24.7229571,10.5265857 24.7841,10.3101571 C24.8286714,10.1707286 24.8466714,9.90258571 24.8466714,9.51001429 L24.8466714,9.18344286 Z M22.6546714,7.85501429 L21.1663857,7.58444286 C21.3346714,6.9863 21.6218143,6.54272857 22.0291,6.25587143 C22.4399571,5.9663 23.0465286,5.82444286 23.8499571,5.82444286 C24.5821,5.82444286 25.1278143,5.91115714 25.4833857,6.08487143 C25.8426714,6.25844286 26.0952429,6.47587143 26.2403857,6.74201429 C26.3866714,7.01115714 26.4613857,7.49758571 26.4613857,8.21001429 L26.4406714,10.1235857 C26.4406714,10.6683 26.4682429,11.0705857 26.5232429,11.3307286 C26.5732429,11.5851571 26.6726714,11.8645857 26.8171,12.1591571 L25.1921,12.1591571 C25.1499571,12.0493 25.0958143,11.8913 25.0366714,11.6763 C25.0082429,11.5781571 24.9902429,11.5138714 24.9773857,11.4828714 C24.6972429,11.7563 24.3982429,11.9598714 24.0793857,12.0983 C23.7613857,12.2321571 23.4193857,12.2993 23.0585286,12.2993 C22.4209571,12.2993 21.9173857,12.1264429 21.5505286,11.7794429 C21.1811,11.4340143 21.0005286,10.9973 21.0005286,10.4655857 C21.0005286,10.1193 21.0838143,9.80472857 21.2489571,9.53144286 C21.4172429,9.2573 21.6552429,9.04672857 21.9535286,8.90344286 C22.2523857,8.75644286 22.6891,8.62844286 23.2588143,8.51844286 C24.0218143,8.37472857 24.5528143,8.23987143 24.8466714,8.11801429 L24.8466714,7.95458571 C24.8466714,7.63758571 24.7685286,7.41258571 24.6139571,7.28001429 C24.4601,7.14515714 24.1686714,7.07801429 23.7365286,7.07801429 C23.4419571,7.07801429 23.2141,7.13572857 23.0525286,7.25087143 C22.8883857,7.36344286 22.7569571,7.56615714 22.6546714,7.85501429 Z" id="Fill-6" fill="#3961A4"></path>
        </g>
    </g>
</svg>