<?xml version="1.0" encoding="utf-8"?>
<!-- Generator: Adobe Illustrator 22.1.0, SVG Export Plug-In . SVG Version: 6.00 Build 0)  -->
<svg version="1.1"
	 id="svg22014" inkscape:version="0.92.0 r15299" sodipodi:docname="atlas global.svg" xmlns:cc="http://creativecommons.org/ns#" xmlns:dc="http://purl.org/dc/elements/1.1/" xmlns:inkscape="http://www.inkscape.org/namespaces/inkscape" xmlns:rdf="http://www.w3.org/1999/02/22-rdf-syntax-ns#" xmlns:sodipodi="http://sodipodi.sourceforge.net/DTD/sodipodi-0.dtd" xmlns:svg="http://www.w3.org/2000/svg"
	 xmlns="http://www.w3.org/2000/svg" xmlns:xlink="http://www.w3.org/1999/xlink" x="0px" y="0px" width="179.1px" height="34.3px"
	 viewBox="0 0 179.1 34.3" style="enable-background:new 0 0 179.1 34.3;" xml:space="preserve">
<style type="text/css">
	.st0{fill:#B1121A;}
</style>
<sodipodi:namedview  bordercolor="#666666" borderopacity="1.0" fit-margin-bottom="0" fit-margin-left="0" fit-margin-right="0" fit-margin-top="0" id="base" inkscape:current-layer="layer1" inkscape:cx="136.62809" inkscape:cy="35.21813" inkscape:document-units="mm" inkscape:pageopacity="0.0" inkscape:pageshadow="2" inkscape:window-height="744" inkscape:window-maximized="1" inkscape:window-width="1280" inkscape:window-x="-4" inkscape:window-y="-4" inkscape:zoom="1.5833578" pagecolor="#ffffff" showgrid="false" units="px">
	</sodipodi:namedview>
<g id="g22028">
	<g id="g22034" transform="translate(42.5156,67.0313)">
		<path id="path22036" inkscape:connector-curvature="0" class="st0" d="M9.2-44.8H9C8.6-43.2,6.3-43,4.5-43c-3.6,0-5.8-0.6-5.8-3.5
			c0-2.7,2-3.6,5.8-3.6c1.5,0,3.8,0,4.3,1.3H9v-1.8c0-1.1-0.1-1.7-2.4-1.7c-1.3,0-2.1,0.2-2.1,1.2h-5.2c0-3.5,3.6-3.5,7.4-3.5
			c5.4,0,7.6,0.5,7.6,4.4v7.1H9L9.2-44.8z M3.9-46.6c0,1.2,1.5,1.2,2.3,1.2c2.2,0,2.9-0.2,2.9-1.4c0-1-1.2-1-2.9-1
			C4.9-47.8,3.9-47.7,3.9-46.6"/>
	</g>
	<g id="g22038" transform="translate(56.877,72.2725)">
		<path id="path22040" inkscape:connector-curvature="0" class="st0" d="M14-57H8v5.1c0,0.7,0.2,1,1.2,1c1.4,0,1.3-0.7,1.4-1.5
			l0-0.6h4.2v1c0,3.1-1.6,3.8-5.9,3.8c-3.3,0-6.1-0.3-6.1-3.2V-57H0.8v-2.7h1.9v-2.4H8v2.4h6"/>
	</g>
	<path id="path22042" inkscape:connector-curvature="0" class="st0" d="M72.6,23.9h5.2V7.6h-5.2V23.9z"/>
	<g id="g22044" transform="translate(70.8467,67.0313)">
		<path id="path22046" inkscape:connector-curvature="0" class="st0" d="M18.7-44.8h-0.2c-0.4,1.6-2.8,1.8-4.6,1.8
			c-3.6,0-5.8-0.6-5.8-3.5c0-2.7,2-3.6,5.8-3.6c1.5,0,3.8,0,4.3,1.3h0.2v-1.8c0-1.1-0.1-1.7-2.4-1.7c-1.3,0-2.1,0.2-2.1,1.2H8.8
			c0-3.5,3.6-3.5,7.4-3.5c5.3,0,7.6,0.5,7.6,4.4v7.1h-5.2L18.7-44.8z M13.3-46.6c0,1.2,1.5,1.2,2.3,1.2c2.2,0,2.9-0.2,2.9-1.4
			c0-1-1.2-1-2.9-1C14.4-47.8,13.3-47.7,13.3-46.6"/>
	</g>
	<g id="g22048" transform="translate(83.1563,71.8965)">
		<path id="path22050" inkscape:connector-curvature="0" class="st0" d="M22.8-56.1c-0.2-1-1.3-1-2.1-1c-2.7,0-2.7,0.2-2.7,0.9
			c0,0.6,0.1,1,2.7,1c5.4,0.1,7.8,0.3,7.8,3.5c0,3.4-3.6,3.9-7.8,3.9c-4.1,0-7.8,0.1-7.8-3.7h5.2c0,1.3,1.3,1.3,2.6,1.3
			c2.4,0,2.7-0.1,2.7-1c0-1.1-0.9-1.1-2.7-1.1c-6.6,0-7.8-1.1-7.8-3.4c0-3.7,3.4-3.7,7.8-3.7c2.9,0,7.1,0,7.1,2.8v0.5"/>
	</g>
	<g id="g22052" transform="translate(96.583,74.3296)">
		<path id="path22054" inkscape:connector-curvature="0" class="st0" d="M27.2-61.8h2.4V-49c0,1.4-0.7,2.4-2.1,3
			c-1.1,0.5-2.8,0.7-5,0.7c-2.2,0-3.7-0.2-4.7-0.6c-1.2-0.6-1.8-1.6-1.7-3.1h2.4c0,1,0.3,1.7,1,2c0.5,0.2,1.5,0.3,2.9,0.3
			c1.6,0,2.8-0.1,3.4-0.4c0.8-0.3,1.2-1,1.2-2.1v-2.6h-0.1c-0.5,1-2.2,1.5-5.1,1.5c-2.5,0-4.2-0.5-5.1-1.5c-0.8-0.8-1.2-2.3-1.2-4.4
			c0-2.1,0.4-3.5,1.1-4.4c0.9-1,2.6-1.5,5.2-1.5c2.7,0,4.4,0.5,5.1,1.6l0.1,0V-61.8z M18.3-56.1c0,1.7,0.2,2.8,0.5,3.2
			c0.5,0.8,1.8,1.2,3.9,1.2s3.4-0.4,4-1.3c0.4-0.5,0.6-1.6,0.6-3.2c0-1.7-0.2-2.9-0.7-3.4c-0.6-0.7-1.9-1-3.9-1s-3.3,0.4-3.9,1.1
			C18.4-59,18.3-57.8,18.3-56.1"/>
	</g>
	<path id="path22056" inkscape:connector-curvature="0" class="st0" d="M127.8,23.9h2.4V7.6h-2.4V23.9z"/>
	<g id="g22058" transform="translate(107.5693,65.6592)">
		<path id="path22060" inkscape:connector-curvature="0" class="st0" d="M30.9-41.6c-3,0-4.9-0.4-5.8-1.1c-0.9-0.7-1.3-2.3-1.3-4.7
			c0-2.4,0.4-4,1.3-4.7c0.9-0.7,2.8-1.1,5.8-1.1c3,0,4.9,0.4,5.8,1.1c0.9,0.7,1.3,2.3,1.3,4.7c0,2.4-0.4,4-1.3,4.7
			C35.8-42,33.9-41.6,30.9-41.6 M30.9-51.9c-2.1,0-3.4,0.2-3.9,0.7c-0.5,0.5-0.7,1.7-0.7,3.7c0,2,0.2,3.2,0.7,3.7
			c0.5,0.5,1.8,0.7,3.9,0.7c2.1,0,3.4-0.2,3.9-0.7c0.5-0.5,0.7-1.7,0.7-3.7c0-2-0.2-3.3-0.7-3.7C34.3-51.6,33-51.9,30.9-51.9"/>
	</g>
	<g id="g22062" transform="translate(115.5928,65.7559)">
		<path id="path22064" inkscape:connector-curvature="0" class="st0" d="M33.6-41.8h-2.4v-16.3h2.4v6.4h0.1c0.6-1.1,2.3-1.6,5.1-1.6
			c2.6,0,4.3,0.5,5.2,1.6c0.7,0.8,1.1,2.2,1.1,4.3c0,2.1-0.3,3.5-1,4.3c-0.9,1-2.6,1.5-5.2,1.5c-2.7,0-4.4-0.5-5.1-1.5l-0.1,0V-41.8
			z M38.1-43.1c2,0,3.3-0.3,3.8-1c0.4-0.5,0.6-1.6,0.6-3.4c0-1.9-0.3-3.1-0.8-3.6C41.2-51.7,40-52,38.1-52c-2,0-3.2,0.3-3.8,1
			c-0.4,0.5-0.7,1.7-0.7,3.5c0,1.8,0.3,3,0.9,3.6S36.3-43.1,38.1-43.1"/>
	</g>
	<g id="g22066" transform="translate(134.9893,71.6035)">
		<path id="path22068" inkscape:connector-curvature="0" class="st0" d="M40-55.5v7.8h-2.4v-1.2l-0.1,0c-0.4,0.6-1.1,1-2.2,1.2
			c-0.7,0.1-1.7,0.2-3,0.2c-2,0-3.5-0.2-4.4-0.6c-1.1-0.5-1.7-1.5-1.7-2.8c0-1.5,0.5-2.5,1.6-3c0.9-0.4,2.4-0.6,4.6-0.6
			c3.1,0,4.8,0.4,5,1.2h0.2v-2.1c0-1-0.4-1.6-1.1-1.9c-0.5-0.2-1.6-0.3-3.1-0.3c-1.3,0-2.3,0.1-2.8,0.2c-0.9,0.2-1.4,0.7-1.4,1.4
			v0.4h-2.5v-0.2c0-1.3,0.6-2.2,1.9-2.7c0.9-0.3,2.4-0.5,4.5-0.5c2.4,0,4,0.2,5,0.6C39.4-58.1,40-57,40-55.5 M28.7-51.2
			c0,1,0.3,1.7,1,2c0.5,0.2,1.5,0.3,3,0.3c1.6,0,2.7-0.1,3.3-0.3c1-0.3,1.5-0.9,1.5-1.8c0-1-0.4-1.6-1.3-1.9
			c-0.5-0.2-1.7-0.3-3.6-0.3c-1.6,0-2.6,0.1-3.1,0.3C29.1-52.6,28.7-52.1,28.7-51.2"/>
	</g>
	<path id="path22070" inkscape:connector-curvature="0" class="st0" d="M176.7,23.9h2.4V7.6h-2.4V23.9z"/>
	<g id="g22072" transform="translate(17.916,83.7139)">
		<path id="path22074" inkscape:connector-curvature="0" class="st0" d="M1-83.7c-10.5,0-18.9,7.7-18.9,17.1c0,4.1,1.6,7.8,4.2,10.7
			l-1.7,2.7l2.1-2.2l0,0l1.4-1.5c0,0,0,0,0,0L1-70.3l5.5,9.8l-14.4,3.2l21.4,0L1.1-79.7l-13.7,22c-2-2.5-3.3-5.6-3.3-8.9
			c0-8.4,7.6-15.1,16.9-15.1s16.9,6.8,16.9,15.1S10.4-51.5,1-51.5c-4.8,0-9.1-1.8-12.2-4.7l-1.5,1.4c3.4,3.3,8.3,5.3,13.7,5.3
			c10.5,0,18.9-7.7,18.9-17.1C20-76,11.5-83.7,1-83.7"/>
	</g>
</g>
</svg>
