<?xml version="1.0" encoding="utf-8"?>
<!-- Generator: Adobe Illustrator 22.1.0, SVG Export Plug-In . SVG Version: 6.00 Build 0)  -->
<svg version="1.1" id="Слой_1" xmlns="http://www.w3.org/2000/svg" xmlns:xlink="http://www.w3.org/1999/xlink" x="0px" y="0px"
	 width="80.391px" height="23px" viewBox="0 0 80.391 23" style="enable-background:new 0 0 80.391 23;" xml:space="preserve">
<style type="text/css">
	.st0{fill:#1E53C3;}
	.st1{fill:#FFFFFF;}
</style>
<g>
	<polygon class="st0" points="30.33,16.422 35.671,0 63.571,0 58.23,16.422 	"/>
	<path class="st1" d="M46.94,0.824c-6.582,0.139-11.858,2.968-12.043,7.12c-0.185,4.153,4.996,7.757,11.573,8.05
		c3.012,0.134,5.849-0.451,8.059-1.522c0.842,0.447,1.511,0.848,1.913,1.155c0.095,0.072,0.11-0.53,0.11-0.53
		s-0.517-0.457-1.226-1.049c2.166-1.259,3.566-3.03,3.656-5.043C59.167,4.853,54.631,0.662,46.94,0.824z M54.581,13.437
		c-0.952-0.768-2.03-1.583-2.707-1.916c0,0,0.286-0.672,0.882-0.75c0.208-0.027,0.331,0.088,0.728-0.419
		c0.397-0.508-4.437-1.104-7.505-1.192c0,0,0.717-0.949,1.42-2.612c0,0,0.25-0.029,0.309,0.147c0.059,0.177,0.456,0.368,0.75,0.294
		c0.294-0.074,0.633-0.353,0.677-0.589c0.044-0.235-0.412-0.147-0.412-0.147l-1.221-0.016l0.044-0.205c0,0,1.045-0.162,1.913-0.191
		c0.868-0.029,0.986-0.074,0.986-0.074s0.132-0.206-0.044-0.25c-0.177-0.044-0.515-0.25-0.515-0.25s0.383-0.265,0.868-0.28
		c0.486-0.015,0.839-0.456,0.721-0.795c-0.118-0.338-0.647,0.177-0.647,0.177s-0.221,0-0.162-0.177
		c0.059-0.177,0.471-0.574,0.338-1.074c-0.132-0.5-0.397,0.088-0.397,0.088s-0.015,0.412-0.191,0.338
		c-0.177-0.074-0.177-0.383-0.5-0.559c-0.324-0.177-0.486-0.197-0.692-0.069c-0.206,0.128,0,0.349,0.059,0.422
		c0.059,0.074,0.5,0.692,0.353,1.06c-0.147,0.368-0.824,1.192-2.34,1.192c-1.516,0-1.781-0.78-1.736-1.001
		c0.044-0.221,0.294-0.765,0.294-0.765S45.84,3.767,45.56,3.87c-0.28,0.103-0.224-0.082-0.265-0.125c0,0-0.405,0.169-0.397,0.831
		c0.008,0.739-0.177-0.515-0.177-0.515s-0.191,0-0.25,0.294c-0.059,0.294-0.251,1.303,1.867,1.609c0,0,0.265,0.132,0.017,0.142
		l-2.678-0.103c0,0-0.177,0.383-0.132,0.486c0.044,0.103,0.486,0.132,0.662,0.132c0,0,0.316,0.405,1.14,0.493
		c0,0-1.479,1.258-1.964,1.891c0,0-4.061-0.044-6.055,0.155l0.265,0.552c0,0,4.702-0.132,8.873,1.302
		c2.508,0.862,5.104,1.975,7.078,2.954c-1.977,0.897-4.45,1.422-7.032,1.306c-5.982-0.267-10.692-2.237-10.526-7.14
		c0.128-3.779,4.966-6.477,10.954-6.477c8.628,0,10.953,3.522,10.953,7.442C57.893,10.702,56.6,12.276,54.581,13.437z"/>
	<g>
		<polygon class="st0" points="7.618,18.04 5.273,18.04 2.707,19.638 3.227,18.04 1.578,18.04 0,22.887 1.649,22.887 2.164,21.306 
			2.736,20.961 3.941,22.887 5.988,22.887 4.13,20.113 		"/>
		<path class="st0" d="M12.92,19.503c-0.047-0.321-0.176-0.603-0.384-0.839c-0.204-0.232-0.485-0.416-0.835-0.546
			c-0.342-0.127-0.755-0.191-1.226-0.191c-0.506,0-0.976,0.063-1.399,0.187c-0.424,0.125-0.804,0.3-1.13,0.52
			c-0.327,0.221-0.609,0.486-0.835,0.788c-0.226,0.301-0.399,0.633-0.514,0.986v0c-0.116,0.356-0.159,0.695-0.129,1.006
			c0.031,0.322,0.147,0.607,0.345,0.845c0.196,0.235,0.476,0.419,0.834,0.549C7.995,22.936,8.429,23,8.938,23
			c0.467,0,0.915-0.063,1.333-0.188c0.416-0.124,0.797-0.298,1.134-0.518c0.337-0.221,0.63-0.485,0.87-0.787
			c0.242-0.303,0.423-0.636,0.538-0.989C12.93,20.157,12.966,19.816,12.92,19.503z M11.199,20.409
			c-0.067,0.206-0.164,0.398-0.289,0.57c-0.125,0.172-0.275,0.324-0.447,0.45c-0.172,0.126-0.367,0.227-0.579,0.298
			c-0.418,0.14-0.955,0.141-1.272,0.005c-0.151-0.065-0.263-0.151-0.344-0.263c-0.08-0.111-0.125-0.242-0.137-0.401
			c-0.013-0.163,0.013-0.348,0.079-0.55c0.067-0.206,0.165-0.398,0.291-0.57c0.127-0.173,0.278-0.325,0.45-0.45
			c0.171-0.126,0.366-0.226,0.579-0.298c0.212-0.071,0.441-0.107,0.681-0.107c0.235,0,0.434,0.034,0.592,0.102
			c0.152,0.066,0.264,0.151,0.343,0.263c0.079,0.11,0.124,0.245,0.135,0.399C11.292,20.022,11.265,20.207,11.199,20.409z"/>
		<polygon class="st0" points="18.282,18.04 16.338,21.113 16.395,18.04 14.218,18.04 12.64,22.887 14.189,22.887 15.091,20.118 
			15.011,22.887 16.534,22.887 18.254,20.177 17.372,22.887 18.921,22.887 20.499,18.04 		"/>
		<polygon class="st0" points="25.045,18.04 22.042,20.729 22.917,18.04 21.318,18.04 19.74,22.887 21.349,22.887 24.343,20.215 
			23.473,22.887 25.072,22.887 26.65,18.04 		"/>
		<path class="st0" d="M29.282,18.04l-3.94,4.847h1.805l0.726-0.926h2.013l0.089,0.926h1.757l-0.756-4.847H29.282z M28.74,20.831
			l0.889-1.161l0.119,1.161H28.74z"/>
		<path class="st0" d="M37.862,20.363c-0.028-0.024-0.059-0.047-0.092-0.069c0.01-0.005,0.02-0.01,0.029-0.015
			c0.128-0.067,0.24-0.143,0.334-0.226c0.096-0.084,0.178-0.18,0.244-0.286c0.064-0.102,0.118-0.219,0.16-0.347
			c0.03-0.093,0.048-0.192,0.054-0.295c0.006-0.108-0.008-0.217-0.043-0.325c-0.036-0.107-0.097-0.209-0.181-0.305
			c-0.085-0.094-0.198-0.177-0.336-0.245c-0.133-0.066-0.299-0.118-0.492-0.156c-0.188-0.037-0.416-0.055-0.677-0.055h-3.129
			l-1.578,4.847h3.048c0.355,0,0.692-0.031,1.002-0.092c0.314-0.061,0.598-0.153,0.845-0.272c0.251-0.121,0.467-0.275,0.644-0.456
			c0.181-0.185,0.313-0.403,0.392-0.646c0.035-0.107,0.059-0.219,0.071-0.333c0.014-0.13-0.001-0.258-0.045-0.379
			C38.066,20.582,37.982,20.466,37.862,20.363z M36.481,21.271c-0.026,0.079-0.065,0.146-0.121,0.203
			c-0.058,0.061-0.13,0.112-0.215,0.153c-0.089,0.043-0.191,0.076-0.303,0.097c-0.116,0.022-0.241,0.034-0.37,0.034h-1.351
			l0.278-0.854h1.433c0.118,0,0.232,0.006,0.341,0.019c0.094,0.011,0.174,0.033,0.236,0.065c0.045,0.023,0.074,0.053,0.09,0.092
			C36.507,21.097,36.52,21.151,36.481,21.271z M36.943,19.418c-0.021,0.064-0.054,0.118-0.101,0.163
			c-0.053,0.051-0.118,0.094-0.192,0.127c-0.078,0.035-0.165,0.061-0.259,0.077c-0.099,0.017-0.2,0.025-0.3,0.025h-1.334l0.21-0.644
			h1.482c0.102,0,0.196,0.007,0.283,0.019c0.073,0.011,0.132,0.03,0.175,0.055c0.035,0.02,0.046,0.041,0.051,0.055
			C36.96,19.305,36.968,19.339,36.943,19.418z"/>
		<polygon class="st0" points="43.512,18.04 40.508,20.729 41.383,18.04 39.784,18.04 38.206,22.887 39.815,22.887 42.809,20.215 
			41.939,22.887 43.538,22.887 45.117,18.04 		"/>
		<path class="st0" d="M47.749,18.04l-3.94,4.847h1.805l0.726-0.926h2.013l0.09,0.926H50.2l-0.756-4.847H47.749z M47.206,20.831
			l0.888-1.161l0.119,1.161H47.206z"/>
		<polygon class="st0" points="56.986,18.04 51.603,18.04 51.237,19.167 53.102,19.167 51.89,22.887 53.539,22.887 54.751,19.167 
			56.619,19.167 		"/>
		<path class="st0" d="M61.577,20.35c0.162-0.192,0.284-0.407,0.359-0.639c0.081-0.248,0.111-0.477,0.088-0.68
			c-0.025-0.215-0.11-0.401-0.254-0.553c-0.138-0.147-0.335-0.259-0.582-0.332c-0.234-0.07-0.525-0.105-0.866-0.105h-2.909
			l-1.578,4.847h1.649l0.526-1.614h1.27c0.33,0,0.643-0.038,0.929-0.113c0.287-0.075,0.549-0.182,0.777-0.317
			C61.217,20.706,61.416,20.54,61.577,20.35z M60.322,19.601c-0.062,0.191-0.169,0.324-0.327,0.406
			c-0.172,0.09-0.391,0.136-0.649,0.136h-0.968l0.318-0.977h1.083c0.13,0,0.243,0.011,0.336,0.033
			c0.078,0.019,0.137,0.046,0.177,0.081c0.031,0.027,0.05,0.061,0.058,0.106C60.361,19.44,60.351,19.514,60.322,19.601z"/>
		<path class="st0" d="M64.804,18.04l-3.94,4.847h1.805l0.726-0.926h2.013l0.09,0.926h1.757L66.5,18.04H64.804z M64.262,20.831
			l0.889-1.161l0.119,1.161H64.262z"/>
		<polygon class="st0" points="72.833,18.04 72.277,19.749 70.247,19.749 70.804,18.04 69.15,18.04 67.572,22.887 69.226,22.887 
			69.879,20.878 71.909,20.878 71.255,22.887 72.904,22.887 74.482,18.04 		"/>
		<path class="st0" d="M80.294,18.95c-0.057-0.135-0.144-0.267-0.259-0.392c-0.115-0.125-0.267-0.236-0.451-0.33
			c-0.18-0.092-0.4-0.167-0.656-0.221c-0.43-0.091-1.031-0.119-1.637-0.018c-0.25,0.041-0.499,0.105-0.741,0.191
			c-0.243,0.086-0.481,0.197-0.705,0.329c-0.227,0.133-0.44,0.293-0.635,0.476c-0.197,0.185-0.373,0.397-0.524,0.63
			c-0.153,0.237-0.279,0.504-0.373,0.793c-0.124,0.382-0.17,0.734-0.137,1.047c0.033,0.325,0.15,0.607,0.345,0.839
			c0.192,0.229,0.464,0.407,0.809,0.529C75.662,22.941,76.071,23,76.543,23c0.335,0,0.668-0.036,0.988-0.105
			c0.322-0.07,0.631-0.178,0.917-0.32c0.288-0.143,0.556-0.326,0.794-0.543c0.241-0.218,0.449-0.478,0.619-0.775l0.151-0.265h-1.665
			l-0.053,0.074c-0.049,0.068-0.112,0.148-0.19,0.239c-0.07,0.083-0.164,0.165-0.28,0.243c-0.115,0.078-0.26,0.145-0.434,0.202
			c-0.171,0.055-0.384,0.083-0.633,0.083c-0.207,0-0.383-0.03-0.521-0.09c-0.131-0.058-0.228-0.136-0.297-0.24
			c-0.069-0.105-0.107-0.238-0.112-0.395c-0.007-0.17,0.027-0.368,0.099-0.59c0.068-0.209,0.152-0.39,0.249-0.539
			c0.097-0.149,0.202-0.279,0.314-0.385c0.111-0.104,0.227-0.189,0.344-0.253c0.12-0.065,0.239-0.117,0.354-0.154
			c0.112-0.036,0.22-0.061,0.319-0.074c0.102-0.013,0.188-0.02,0.26-0.02c0.169,0,0.314,0.012,0.429,0.036
			c0.11,0.023,0.201,0.053,0.271,0.089c0.062,0.032,0.11,0.067,0.142,0.106c0.034,0.04,0.061,0.081,0.079,0.121
			c0.018,0.043,0.029,0.083,0.034,0.122c0.006,0.052,0.011,0.099,0.013,0.139l0.011,0.165h1.586l0.03-0.14
			c0.023-0.111,0.033-0.235,0.028-0.367C80.384,19.226,80.352,19.088,80.294,18.95z"/>
	</g>
</g>
</svg>
