<?xml version="1.0" encoding="utf-8"?>
<!-- Generator: Adobe Illustrator 22.1.0, SVG Export Plug-In . SVG Version: 6.00 Build 0)  -->
<svg version="1.1" id="Слой_1" xmlns="http://www.w3.org/2000/svg" xmlns:xlink="http://www.w3.org/1999/xlink" x="0px" y="0px"
	 width="53.758px" height="23.627px" viewBox="0 0 53.758 23.627" enable-background="new 0 0 53.758 23.627" xml:space="preserve">
<g>
	<path fill-rule="evenodd" clip-rule="evenodd" fill="#9B92BE" d="M46.759,0c-2.247,2.569-2.824,5.735-2.269,9.318l-2.017-0.566
		C41.051,4.298,42.568,1.428,46.759,0L46.759,0z"/>
	<path fill-rule="evenodd" clip-rule="evenodd" fill="#E30613" d="M7.07,17.158c-0.193-2.872-3.538-3.139-6.596-2.003l0.634,1.595
		c1.941-0.723,3.612-1.059,3.952,0.479v6.268l2.029-0.648L7.07,17.158L7.07,17.158z"/>
	<path fill-rule="evenodd" clip-rule="evenodd" fill="#312783" d="M4.638,17.833v1.414c-3.335-0.405-3.787,3.49,0,2.738v1.554
		C-1.072,24.455-2.003,17.868,4.638,17.833L4.638,17.833z"/>
	<path fill-rule="evenodd" clip-rule="evenodd" fill="#E30613" d="M8.339,23.378h2.282v-6.562c-0.76,0.507-1.524,0.507-2.282,0
		V23.378L8.339,23.378z"/>
	<path fill-rule="evenodd" clip-rule="evenodd" fill="#E30613" d="M9.48,14.467c0.605,0,1.096,0.491,1.096,1.1
		c0,0.607-0.491,1.102-1.096,1.102c-0.605,0-1.102-0.495-1.102-1.102C8.378,14.958,8.875,14.467,9.48,14.467L9.48,14.467z"/>
	<path fill-rule="evenodd" clip-rule="evenodd" fill="#E30613" d="M11.757,15.221c1.295-0.607,2.917-0.748,4.708-0.646l-0.44,1.899
		c-0.68-0.214-1.346-0.177-2.015,0v6.928h-2.212L11.757,15.221L11.757,15.221z"/>
	<path fill-rule="evenodd" clip-rule="evenodd" fill="#312783" d="M29.071,14.5c2.157,0,3.907,2.041,3.907,4.563
		c0,2.518-1.75,4.557-3.907,4.557c-2.163,0-3.913-2.039-3.913-4.557C25.159,16.541,26.909,14.5,29.071,14.5L29.071,14.5z
		 M29.071,16.234c0.972,0,1.754,1.265,1.754,2.832c0,1.552-0.782,2.821-1.754,2.821c-0.974,0-1.764-1.269-1.764-2.821
		C27.307,17.499,28.097,16.234,29.071,16.234L29.071,16.234z"/>
	<path fill-rule="evenodd" clip-rule="evenodd" fill="#312783" d="M24.858,16.725l0.758-1.622
		c-7.912-3.025-8.411,10.615-0.059,7.918l-0.717-1.634C20.615,23.272,20.59,14.722,24.858,16.725L24.858,16.725z"/>
	<path fill-rule="evenodd" clip-rule="evenodd" fill="#312783" d="M38.694,16.411c0.031-0.065,0.033-0.083,0.067-0.144
		c0.108-0.226,0.434-0.813,0.456-1.025c-1.298-0.868-4.82-1.118-5.626,1.041c-0.281,0.741-0.11,1.688,0.249,2.2
		c0.792,1.124,2.807,1.232,3.275,2.027c0.479,0.811-0.385,1.348-1.122,1.357c-1.153,0.02-1.689-0.487-2.078-0.499
		c-0.159,0.289-0.629,1.387-0.625,1.624c0.772,0.554,4.954,1.31,5.964-0.974c0.279-0.63,0.31-1.591-0.02-2.2
		c-0.719-1.32-2.394-1.298-3.229-2c-0.819-0.679-0.122-1.996,1.55-1.491c0.3,0.094,0.797,0.302,1.025,0.302L38.694,16.411
		L38.694,16.411z"/>
	<path fill-rule="evenodd" clip-rule="evenodd" fill="#312783" d="M41.134,14.345v0.868h-1.129v1.634h1.1l0.112,4.887
		c0.031,1.369,1.723,2.015,3.61,1.497v-1.695c-0.902,0.238-1.648,0.079-1.644-0.527l0.033-4.215h1.68v-1.626h-1.68v-1.809
		L41.134,14.345L41.134,14.345z"/>
	<path fill-rule="evenodd" clip-rule="evenodd" fill="#312783" d="M52.579,22.915v-6.126c-1.118-3.062-3.901-2.341-6.696-1.591
		l0.691,1.452c2.084-0.788,4.302-0.876,3.985,1.161c-6.386-0.127-6.248,4.946-2.736,5.636
		C49.081,23.691,50.715,23.696,52.579,22.915L52.579,22.915z M50.582,19.112v2.777C46.7,22.722,46.288,19.204,50.582,19.112
		L50.582,19.112z"/>
	<path fill-rule="evenodd" clip-rule="evenodd" fill="#312783" d="M41.896,6.286c4.164,4.508,8.16,5.946,11.862,1.911
		C51.142,15.103,42.505,13.318,41.896,6.286L41.896,6.286z"/>
	<path fill-rule="evenodd" clip-rule="evenodd" fill="#E30613" d="M40.36,5.718c0.479,0.122,1.059,0.721,1.782,2.037l-0.214-1.44
		C41.401,5.682,40.884,5.533,40.36,5.718L40.36,5.718z"/>
</g>
</svg>
