<?xml version="1.0" encoding="utf-8"?>
<!-- Generator: Adobe Illustrator 22.1.0, SVG Export Plug-In . SVG Version: 6.00 Build 0)  -->
<svg version="1.1" id="Слой_1" xmlns="http://www.w3.org/2000/svg" xmlns:xlink="http://www.w3.org/1999/xlink" x="0px" y="0px"
	 width="494.3px" height="263.5px" viewBox="0 0 494.3 263.5" style="enable-background:new 0 0 494.3 263.5;" xml:space="preserve"
	>
<style type="text/css">
	.st0{enable-background:new    ;}
	.st1{fill:url(#SVGID_1_);}
	.st2{fill:url(#SVGID_3_);}
	.st3{clip-path:url(#SVGID_5_);enable-background:new    ;}
	.st4{fill:#2D2D2C;}
	.st5{fill:url(#SVGID_6_);}
	.st6{fill:url(#SVGID_8_);}
	.st7{fill:url(#SVGID_9_);}
	.st8{clip-path:url(#SVGID_11_);enable-background:new    ;}
	.st9{fill:#2F2F2E;}
	.st10{fill:#4E4945;}
</style>
<g>
	<g id="Слой_1_1_">
		<g>
			<g>
				<g>
					<g class="st0">
						<g>
							
								<linearGradient id="SVGID_1_" gradientUnits="userSpaceOnUse" x1="102" y1="222.2054" x2="396.5" y2="222.2054" gradientTransform="matrix(1 0 0 -1 0 288.8819)">
								<stop  offset="4.340278e-04" style="stop-color:#2E2E2E"/>
								<stop  offset="0.5008" style="stop-color:#E0E0E0"/>
								<stop  offset="1" style="stop-color:#1C1C1C"/>
							</linearGradient>
							<path class="st1" d="M251.3,12.6c68.7,1.3,125.8,46.5,145.2,108.1c-23.3-57-79.2-97.9-145.4-99.2
								C184.9,20,127.4,58.7,102,114.9C123.7,54.1,182.6,11.3,251.3,12.6z"/>
						</g>
						<g class="st0">
							<g>
								<g>
									
										<linearGradient id="SVGID_3_" gradientUnits="userSpaceOnUse" x1="101.8" y1="216.8094" x2="396.3" y2="216.8094" gradientTransform="matrix(1 0 0 -1 0 288.8819)">
										<stop  offset="4.340278e-04" style="stop-color:#2E2E2E"/>
										<stop  offset="0.5008" style="stop-color:#E0E0E0"/>
										<stop  offset="1" style="stop-color:#1C1C1C"/>
									</linearGradient>
									<path id="SVGID_2_" class="st2" d="M396.3,120.7v1.9c-23.3-57-79.2-97.9-145.4-99.2c-66.1-1.5-123.6,37.2-149.1,93.4v-1.9
										c25.4-56.2,83-94.8,149.1-93.4C317.2,22.8,373.1,63.5,396.3,120.7z"/>
								</g>
								<g>
									<defs>
										<path id="SVGID_4_" d="M396.3,120.7v1.9c-23.3-57-79.2-97.9-145.4-99.2c-66.1-1.5-123.6,37.2-149.1,93.4v-1.9
											c25.4-56.2,83-94.8,149.1-93.4C317.2,22.8,373.1,63.5,396.3,120.7z"/>
									</defs>
									<clipPath id="SVGID_5_">
										<use xlink:href="#SVGID_4_"  style="overflow:visible;"/>
									</clipPath>
									<g class="st3">
										<path class="st4" d="M396.3,120.7v1.9c-23.3-57-79.2-97.9-145.4-99.2C196,22.3,146.9,48.8,117.3,90v-1.9
											c29.6-41.4,78.7-67.8,133.6-66.7C317.2,22.8,373.1,63.5,396.3,120.7"/>
										
											<linearGradient id="SVGID_6_" gradientUnits="userSpaceOnUse" x1="102.0168" y1="186.3409" x2="117.3631" y2="186.3409" gradientTransform="matrix(1 0 0 -1 0 288.8819)">
											<stop  offset="4.340278e-04" style="stop-color:#2E2E2E"/>
											<stop  offset="0.5008" style="stop-color:#E0E0E0"/>
											<stop  offset="1" style="stop-color:#1C1C1C"/>
										</linearGradient>
										<path class="st5" d="M117.4,88.2v1.9c-6,8.4-11.1,17.3-15.3,26.7v-1.9C106.2,105.5,111.4,96.5,117.4,88.2"/>
									</g>
								</g>
							</g>
						</g>
					</g>
				</g>
			</g>
			<g>
				<g>
					<g class="st0">
						<g>
							
								<linearGradient id="SVGID_8_" gradientUnits="userSpaceOnUse" x1="9.1" y1="165.3552" x2="487.1" y2="165.3552" gradientTransform="matrix(1 0 0 -1 0 288.8819)">
								<stop  offset="4.340278e-04" style="stop-color:#2E2E2E"/>
								<stop  offset="0.5008" style="stop-color:#E0E0E0"/>
								<stop  offset="1" style="stop-color:#1C1C1C"/>
							</linearGradient>
							<path class="st6" d="M252.4,98.2c141.7,2.7,230.2,48.5,234.7,50.7c-81.4-25.4-159.9-34.7-229.2-36.2
								c-131.2-2.5-228.6,24.1-248.8,26.9C98.6,106.6,181.5,96.8,252.4,98.2z"/>
						</g>
						<g class="st0">
							<g>
								<g>
									
										<linearGradient id="SVGID_9_" gradientUnits="userSpaceOnUse" x1="9" y1="157.0799" x2="487.1" y2="157.0799" gradientTransform="matrix(1 0 0 -1 0 288.8819)">
										<stop  offset="4.340278e-04" style="stop-color:#2E2E2E"/>
										<stop  offset="0.5008" style="stop-color:#E0E0E0"/>
										<stop  offset="1" style="stop-color:#1C1C1C"/>
									</linearGradient>
									<path id="SVGID_7_" class="st7" d="M487.1,149v1.9c-81.4-25.4-159.9-34.7-229.2-36.2C126.7,112.1,29.2,138.8,9,141.5v-1.9
										c20.4-2.7,117.8-29.4,249.1-26.8C327.2,114.2,405.7,123.6,487.1,149z"/>
								</g>
								<g>
									<defs>
										<path id="SVGID_10_" d="M487.1,149v1.9c-81.4-25.4-159.9-34.7-229.2-36.2C126.7,112.1,29.2,138.8,9,141.5v-1.9
											c20.4-2.7,117.8-29.4,249.1-26.8C327.2,114.2,405.7,123.6,487.1,149z"/>
									</defs>
									<clipPath id="SVGID_11_">
										<use xlink:href="#SVGID_10_"  style="overflow:visible;"/>
									</clipPath>
									<g class="st8">
										<path class="st4" d="M487.1,149v1.9c-81.4-25.4-159.9-34.7-229.2-36.2C126.7,112.1,29.2,138.8,9,141.5v-1.9
											c20.4-2.7,117.8-29.4,249.1-26.8C327.2,114.2,405.7,123.6,487.1,149"/>
									</g>
								</g>
							</g>
						</g>
					</g>
				</g>
			</g>
		</g>
		<g>
			<path class="st9" d="M82,99.2c14.8-6.6,25.7-10.2,33.3-13.1l20.2-6.1c2.9-0.6,31-8.1,43-11.5c3.2-1,6.3-2.1,9.4-3.4
				c0.8-0.3,2.3-1.5,2.1-2.1c-0.2-1-1.1-2.1-2.1-2.6c-5-2.6-14.9-6.7-20.5-7.8c-9.1-1.7-30.2,1.5-30.2,1.5
				c-7.6,1.3-28.1,4.5-36.5,5.3c7.1-3.5,19.1-8.1,23.1-9.3c10.1-3.2,9.3-2.6,19.1-6.3c2.8-1.1,4.6-1.8,4.5-2.6
				c-0.1-1.4-10.2-5.3-14.5-7.5c-1.6-0.8-5.7-2.8-5.2-5c0.5-1.7,8.2-3,10.2-3.2c5.4-0.7,12-1.2,18.4,0.3c6,1.5,33.5,8.1,44.5,10.9
				c3.9,1,8,2.1,12.2,2.1c12.1,0,23.1-0.2,36.2-2.1c6.1-1,56.1-19.2,56.1-19.2c10.8-4.4,21.6-8.7,32.6-12.9c9.7-3.6,19.9-5.8,30-4
				c7.1,1.3,13.9,4.7,20.7,7.8c2.9,1.3,3.2,5.3,1.6,8.6c-2.3,4.5-6.3,7.1-10.2,9.5c-9,5.5-18.3,10.5-27.6,15.7l-19.2,9.7
				c-6.6,2.9-13.2,6-19.7,9.4c-2.3,1.1-2.1,3.1,0.2,4.4c1.5,0.8,3.2,1.3,4.8,1.8c2.9,0.8,6,1.3,8.9,2.3c12.9,3.7,25.7,7.6,38.4,11.5
				l25.8,7.9c3.9,1.3,19.7,5.7,29.5,11.2c-12.7-2.1-22.4-3-26.1-3.4l-21.4-2.7c-7.6-1-15.6-1.6-23.3-2.3c-7.4-0.5-14.9-0.8-22.1-1.3
				c-16-1.1-42.5-1.9-58.5-1.9c-23.1,0-46.4,0.5-69.5,0.8c-0.5,0-1.1,0-1.6,0.2c-13.4,0.8-26.8,1.5-40.2,2.3
				c-8.2,0.5-16.5,1.1-24.7,1.8C130.3,93.9,101,96.7,82,99.2z"/>
		</g>
	</g>
	<g>
		<path class="st10" d="M38.3,166.9c0-0.6-0.2-1-0.7-1.3c-0.4-0.3-1.2-0.4-2.3-0.4H10.2v9.6h15.2c1,0,1.8-0.1,2.4-0.4
			c0.6-0.3,0.9-1,0.9-2.2h1.4v12.1h-1.4c0-1.2-0.3-2-0.9-2.3s-1.4-0.5-2.4-0.5H10.2v10.7h25.9c0.8,0,1.4-0.2,1.9-0.5
			c0.5-0.4,0.7-0.9,0.7-1.5h1.4v10.6h-1.4c0-0.8-0.2-1.2-0.7-1.3s-1.1-0.2-1.9-0.2H0v-1.4c0.4,0,0.7-0.1,1-0.3s0.4-0.6,0.4-1v-35.2
			c0-0.5-0.1-0.8-0.4-1c-0.3-0.2-0.6-0.3-1-0.3v-1.4h35.3c1.1,0,1.8-0.2,2.3-0.5c0.4-0.3,0.7-0.8,0.7-1.4h1.4V167h-1.4V166.9z"/>
		<path class="st10" d="M88.7,206.6c0.2-0.2,0.3-0.4,0.4-0.7c0.1-0.3,0.2-0.5,0.2-0.9c0-0.3-0.2-0.7-0.7-1.3c-0.4-0.5-1-1.1-1.6-1.8
			c-0.6-0.7-1.3-1.3-1.9-1.9c-0.6-0.6-1.2-1.1-1.5-1.6c-1.4,0.4-2.8,0.7-4.2,0.8c-1.4,0.1-2.8,0.2-4.2,0.2c-2.8,0-5.7-0.4-8.7-1.2
			c-2.9-0.8-5.6-2-8.1-3.7c-2.4-1.7-4.4-3.9-6-6.5s-2.3-5.7-2.3-9.3s0.8-6.7,2.3-9.3c1.6-2.6,3.5-4.8,6-6.5c2.4-1.7,5.1-3,8.1-3.8
			c2.9-0.9,5.8-1.3,8.7-1.3c2.8,0,5.7,0.4,8.7,1.3c2.9,0.9,5.6,2.1,8.1,3.8c2.4,1.7,4.4,3.9,6,6.5s2.3,5.7,2.3,9.3
			c0,3.7-0.8,6.9-2.4,9.5s-3.8,4.8-6.4,6.5c0.3,0.3,0.7,0.6,1.1,1.1c0.4,0.5,0.8,0.9,1.3,1.4c0.4,0.5,0.9,0.9,1.3,1.2
			c0.4,0.3,0.7,0.5,1,0.5c0.6,0,1.1-0.2,1.6-0.6l1,0.9l-9,7.8L88.7,206.6z M75.2,165.2c-2,0-3.9,0.3-5.9,0.9c-2,0.6-3.7,1.5-5.3,2.7
			c-1.6,1.2-2.9,2.6-3.8,4.3c-1,1.7-1.5,3.6-1.5,5.8s0.5,4.1,1.5,5.8s2.3,3.1,3.8,4.3c1.6,1.2,3.3,2.1,5.3,2.7
			c2,0.6,3.9,0.9,5.9,0.9c1.2,0,2.3-0.1,3.2-0.3c-1.1-1.5-2.2-2.6-3.2-3.5c-1-0.8-1.8-1.4-2.5-1.8c-0.7-0.4-1.2-0.7-1.6-0.9
			c-0.4-0.2-0.6-0.3-0.6-0.5c0-0.4,0.6-0.8,1.7-1.1c1.1-0.3,2.3-0.5,3.6-0.5c1.1,0,2.1,0.1,3,0.4c0.9,0.3,1.8,0.7,2.6,1.1
			c0.8,0.5,1.6,1,2.4,1.6s1.6,1.2,2.4,1.9c1.6-1.2,2.9-2.6,3.9-4.3s1.5-3.7,1.5-5.9s-0.5-4.1-1.5-5.8s-2.3-3.1-3.8-4.3
			c-1.6-1.2-3.3-2.1-5.3-2.7C79.1,165.5,77.1,165.2,75.2,165.2z"/>
		<path class="st10" d="M123.2,159.9c-1.1,0-1.7,0.5-1.7,1.4v23.3c0,3.3,1,5.5,3.1,6.7s5.2,1.8,9.2,1.8s7.1-0.6,9.2-1.8
			c2.1-1.2,3.1-3.5,3.1-6.7v-23.3c0-0.9-0.8-1.4-2.3-1.4v-1.4h12.4v1.4c-1.2,0-1.9,0.5-1.9,1.4v22.9c0,3.1-0.4,5.6-1.3,7.6
			c-0.9,2-2.2,3.6-4,4.8s-3.9,2-6.6,2.4c-2.6,0.4-5.6,0.6-9,0.6s-6.4-0.2-9-0.6c-2.6-0.4-4.8-1.2-6.6-2.4s-3.1-2.8-4-4.8
			s-1.3-4.5-1.3-7.6v-22.9c0-0.9-0.7-1.4-2.2-1.4v-1.4H123v1.4H123.2z"/>
		<path class="st10" d="M163,197.9c0.7-0.1,1.2-0.4,1.6-1c0.4-0.6,0.8-1.2,1.1-1.9l14.3-30.2c0.4-0.7,0.7-1.3,1-1.9
			c0.3-0.6,0.4-1.1,0.4-1.5c0-0.5-0.2-0.9-0.5-1.1c-0.4-0.2-0.8-0.4-1.2-0.5v-1.4h13.1v1.4c-0.4,0.1-0.7,0.2-1.1,0.4
			c-0.4,0.2-0.5,0.6-0.5,1.1c0,0.4,0.1,0.8,0.3,1.2s0.5,1,0.8,1.6l16.1,31.6c0.3,0.6,0.6,1,1,1.2c0.4,0.3,0.9,0.5,1.5,0.8v1.4h-13.6
			v-1.4c0.2,0,0.5-0.1,0.8-0.2c0.3-0.2,0.5-0.4,0.5-0.7c0-0.5-0.2-1.2-0.6-2l-2.9-5.7h-18.9l-2.8,5.5c-0.5,1.1-0.8,1.9-0.8,2.3
			c0,0.6,0.5,0.9,1.5,0.9v1.4h-11v-1.3H163z M192.2,183.5l-6.5-14.4l-7.3,14.4H192.2z"/>
		<path class="st10" d="M257.1,166.9c0-0.6-0.2-1-0.7-1.3c-0.4-0.3-1.2-0.4-2.3-0.4H229v9.6h15.2c1,0,1.8-0.1,2.4-0.3
			s0.9-0.7,0.9-1.4h1.4v11.2h-1.4c0-1.2-0.3-2-0.9-2.3s-1.4-0.5-2.4-0.5H229v15c0,0.5,0.2,0.8,0.7,1c0.4,0.2,1,0.3,1.7,0.3v1.4
			h-13.2v-1.4c1.3,0,2-0.5,2-1.4v-35.2c0-0.9-0.7-1.4-2-1.4v-1.4h36c1.1,0,1.8-0.2,2.3-0.5c0.4-0.3,0.7-0.8,0.7-1.4h1.4v10.2h-1.5
			V166.9z"/>
		<path class="st10" d="M304.9,200.8c0-0.8-0.2-1.2-0.7-1.3s-1.1-0.2-1.9-0.2h-36.9v-1.4c1.6,0,2.3-0.5,2.3-1.4v-35.2
			c0-0.9-0.8-1.4-2.3-1.4v-1.4h13.3v1.4c-1.4,0-2.2,0.5-2.2,1.4v30.9h25.8c0.8,0,1.4-0.2,1.9-0.5c0.5-0.4,0.7-0.9,0.7-1.5h1.4v10.6
			L304.9,200.8L304.9,200.8z"/>
		<path class="st10" d="M314.2,197.9c1.3,0,2-0.5,2-1.4v-35.2c0-0.9-0.7-1.4-2-1.4v-1.4h12.9v1.4c-1.3,0-2,0.5-2,1.4v35.2
			c0,0.9,0.7,1.4,2,1.4v1.4h-12.9V197.9z"/>
		<path class="st10" d="M377.4,171.1l-1.6-0.5c0.1-0.3,0.2-0.6,0.2-0.9c0-0.8-0.5-1.5-1.4-2.1c-1-0.6-2.2-1.1-3.6-1.6
			c-1.5-0.4-3.1-0.8-4.8-1c-1.7-0.2-3.4-0.3-4.9-0.3c-1.9,0-3.8,0.3-5.7,0.8c-1.9,0.5-3.6,1.4-5,2.5c-1.5,1.1-2.7,2.6-3.6,4.4
			c-0.9,1.8-1.4,4-1.4,6.6c0,2.5,0.5,4.7,1.4,6.6c0.9,1.8,2.1,3.3,3.6,4.5c1.5,1.1,3.2,2,5,2.5c1.9,0.5,3.8,0.8,5.7,0.8
			c2.9,0,5.6-0.2,7.9-0.7c2.4-0.5,4.4-1,6-1.6v-6.7h-9.9c-0.7,0-1.3,0.2-1.6,0.5c-0.4,0.3-0.6,1-0.7,2h-1.4V177h1.4
			c0.1,0.9,0.3,1.4,0.7,1.7c0.4,0.2,0.9,0.3,1.6,0.3h19.4v1.4c-1,0.2-1.7,0.3-1.9,0.5c-0.3,0.2-0.4,0.6-0.4,1.3v8.8
			c0,0.5,0.2,0.9,0.5,1c0.3,0.2,0.7,0.3,1.1,0.5v1.2c-1.7,1.2-3.5,2.2-5.4,2.9c-1.9,0.8-3.8,1.4-5.7,1.8c-1.9,0.4-3.9,0.7-5.8,0.8
			s-3.8,0.2-5.7,0.2c-3.6,0-6.9-0.5-9.9-1.4s-5.5-2.2-7.6-4s-3.8-4-4.9-6.5s-1.7-5.5-1.7-8.7s0.6-6.2,1.7-8.7s2.8-4.7,4.9-6.6
			c2.1-1.8,4.7-3.2,7.6-4.1c3-1,6.3-1.4,9.9-1.4c2.3,0,4.4,0.2,6.5,0.5s3.9,0.7,5.5,1c1.6,0.4,2.9,0.8,4,1.1s1.7,0.5,2,0.5
			c0.5,0,0.8-0.1,1.1-0.3c0.3-0.2,0.5-0.4,0.8-0.5l0.9,0.5L377.4,171.1z"/>
		<path class="st10" d="M432.2,161.3c0-0.9-0.6-1.4-1.7-1.4v-1.4h11.9v1.4c-0.4,0-0.7,0.1-1,0.3s-0.4,0.6-0.4,1v35.2
			c0,0.5,0.1,0.8,0.4,1s0.6,0.3,1,0.3v1.4h-11.9v-1.4c1.1,0,1.7-0.5,1.7-1.4v-14.6h-25v14.6c0,0.5,0.1,0.8,0.4,1s0.6,0.3,1,0.3v1.4
			h-11.7v-1.4c1,0,1.5-0.5,1.5-1.4V161c0-0.9-0.5-1.4-1.5-1.4v-1.4h11.7v1.4c-0.4,0-0.7,0.1-1,0.3s-0.4,0.6-0.4,1v13.2h25V161.3z"/>
		<path class="st10" d="M478,196.5c0,0.9,0.6,1.4,1.7,1.4v1.4h-11.9v-1.4c0.4,0,0.7-0.1,1-0.3s0.4-0.6,0.4-1v-30.9h-12.8
			c-0.5,0-0.9,0.1-1.4,0.4c-0.4,0.3-0.7,0.8-0.7,1.5h-1.4v-10.9h1.4c0,0.7,0.2,1.2,0.7,1.5c0.4,0.3,0.9,0.4,1.4,0.4h34.4
			c0.5,0,0.9-0.1,1.4-0.4c0.4-0.3,0.7-0.7,0.7-1.5h1.4v10.9h-1.4c0-0.7-0.2-1.2-0.7-1.5c-0.4-0.3-0.9-0.4-1.4-0.4H478L478,196.5
			L478,196.5z"/>
	</g>
	<g>
		<path class="st10" d="M103.1,251l0.7,0.3c0,0.4,0.1,0.8,0.3,1.1c0.3,0.5,0.9,1.1,1.9,1.6c0.9,0.5,2,1,3.2,1.4s2.5,0.7,3.8,1
			c1.3,0.2,2.5,0.4,3.5,0.4c0.8,0,1.8-0.1,3-0.2s2.4-0.3,3.6-0.7c1.2-0.4,2.2-0.9,3.1-1.5c0.9-0.6,1.3-1.5,1.3-2.5s-0.4-1.8-1.2-2.3
			s-1.8-0.9-3.1-1.1s-2.8-0.4-4.4-0.4c-1.7-0.1-3.3-0.2-5.1-0.3c-1.7-0.1-3.4-0.4-5.1-0.7c-1.7-0.3-3.1-0.8-4.4-1.6
			c-1.3-0.7-2.3-1.8-3.1-3.1c-0.8-1.3-1.2-3-1.2-5.1c0-1.4,0.3-2.8,1-4.1c0.7-1.4,1.7-2.6,3-3.6c1.4-1,3.1-1.9,5.2-2.5
			c2.1-0.7,4.5-1,7.3-1c2.4,0,4.5,0.2,6.2,0.5c1.8,0.4,3.3,0.7,4.6,1.2s2.4,0.8,3.3,1.2c0.9,0.4,1.6,0.5,2.2,0.5
			c0.6,0,1.1-0.1,1.4-0.4l0.8,0.5l-4.7,8.5l-0.7-0.3c-0.1-0.6-0.3-1.2-0.5-1.6c-0.4-0.5-1-1.1-1.8-1.6s-1.8-1-3-1.4
			c-1.1-0.4-2.4-0.7-3.7-1c-1.3-0.2-2.6-0.4-3.9-0.4c-1,0-2,0.1-3.1,0.2c-1.1,0.2-2,0.4-2.9,0.7c-0.9,0.3-1.6,0.7-2.1,1.3
			c-0.6,0.5-0.8,1.2-0.8,1.9c0,1.1,0.4,1.9,1.2,2.4s1.8,1,3.1,1.2s2.8,0.5,4.4,0.5c1.7,0.1,3.3,0.2,5.1,0.3c1.7,0.1,3.4,0.4,5.1,0.7
			c1.7,0.3,3.1,0.9,4.4,1.6s2.3,1.8,3.1,3c0.8,1.3,1.2,2.9,1.2,5c0,2.4-0.6,4.3-1.9,5.8c-1.2,1.5-2.8,2.7-4.6,3.5
			c-1.9,0.9-3.9,1.4-6,1.7c-2.1,0.3-4.2,0.4-6,0.4c-2.6,0-4.7-0.1-6.5-0.4c-1.7-0.3-3.2-0.7-4.3-1.1c-1.2-0.4-2.1-0.8-2.7-1.2
			c-0.7-0.3-1.3-0.5-1.8-0.5c-0.3,0-0.6,0.2-0.9,0.5l-0.9-0.5L103.1,251z"/>
		<path class="st10" d="M179.3,233.8c0-0.5-0.2-0.9-0.6-1.1c-0.4-0.2-1.1-0.4-2-0.4h-22v8.4H168c0.9,0,1.6-0.1,2.1-0.4
			c0.5-0.2,0.7-0.9,0.7-1.9h1.2V249h-1.2c0-1-0.2-1.7-0.7-2s-1.2-0.4-2.1-0.4h-13.3v9.4h22.7c0.7,0,1.2-0.2,1.7-0.5
			c0.4-0.3,0.6-0.7,0.6-1.3h1.2v9.3h-1.2c0-0.7-0.2-1.1-0.6-1.2c-0.4-0.1-1-0.1-1.7-0.1h-31.6V261c0.3,0,0.6-0.1,0.8-0.3
			c0.2-0.2,0.4-0.5,0.4-0.9V229c0-0.4-0.1-0.7-0.4-0.9c-0.2-0.2-0.5-0.3-0.8-0.3v-1.2h30.9c1,0,1.6-0.1,2-0.4s0.6-0.7,0.6-1.2h1.2v9
			h-1.2V233.8z"/>
		<path class="st10" d="M213.8,226.5c2.2,0,4.1,0.2,5.9,0.6s3.3,1,4.5,1.8c1.3,0.8,2.2,1.9,2.9,3.3c0.7,1.3,1,3,1,4.9
			c0,3-0.9,5.3-2.6,6.9c-1.8,1.6-4.1,2.6-7.1,3.2l9,12.9c0.3,0.5,0.7,0.7,1.1,0.8c0.4,0.1,0.8,0.1,1.2,0.1v1.2H217V261
			c0.4,0,0.8-0.1,1.1-0.2c0.3-0.1,0.4-0.3,0.4-0.5s-0.1-0.5-0.3-0.8c-0.2-0.3-0.5-0.7-0.8-1.2l-7.5-10.6h-9.6v12.1
			c0,0.4,0.1,0.7,0.4,0.9c0.3,0.2,0.8,0.3,1.6,0.3v1.2h-11.7V261c1.3,0,2-0.4,2-1.2V229c0-0.8-0.7-1.2-2-1.2v-1.2L213.8,226.5
			L213.8,226.5z M212,242.4c1.6,0,3-0.1,4.1-0.4c1.1-0.2,1.9-0.6,2.6-1.1c0.6-0.5,1.1-1,1.4-1.6s0.4-1.3,0.4-2s-0.1-1.4-0.4-2
			s-0.7-1.1-1.4-1.6c-0.6-0.5-1.5-0.8-2.6-1.1c-1.1-0.2-2.4-0.4-4.1-0.4h-11.7v10H212V242.4z"/>
		<path class="st10" d="M277.8,227.7c-0.9,0-1.6,0.3-2,1s-0.7,1.2-0.9,1.6l-12,26.4c-0.4,0.9-0.7,1.6-1,2.2s-0.4,0.9-0.4,1.2
			c0,0.2,0.1,0.4,0.2,0.5s0.3,0.3,0.4,0.4v1.2h-10.4V261c0.4-0.2,0.6-0.5,0.6-0.9c0-0.2-0.2-0.7-0.5-1.4c-0.3-0.7-0.8-1.6-1.3-2.6
			l-12.2-26.5c-0.2-0.5-0.5-0.9-0.9-1.1s-1-0.5-1.8-0.7v-1.2h12.1v1.2c-0.3,0-0.6,0.1-0.9,0.2c-0.3,0.2-0.4,0.5-0.4,0.9
			c0,0.5,0.2,1.1,0.6,1.9s0.8,1.7,1.4,2.8l8.7,18.7l8.5-18.4c0.5-1.2,1.1-2.2,1.5-3.2c0.5-0.9,0.7-1.6,0.7-1.9
			c0-0.7-0.6-1.1-1.9-1.1v-1.2h11.9L277.8,227.7L277.8,227.7z"/>
		<path class="st10" d="M285,261c1.2,0,1.8-0.4,1.8-1.2V229c0-0.8-0.6-1.2-1.8-1.2v-1.2h11.3v1.2c-1.2,0-1.8,0.4-1.8,1.2v30.8
			c0,0.8,0.6,1.2,1.8,1.2v1.2H285V261z"/>
		<path class="st10" d="M345.5,257.3c-0.1,0-0.3,0-0.4,0s-0.2,0-0.4,0c-0.3,0-0.9,0.3-1.9,0.8s-2.3,1.2-3.9,1.8s-3.3,1.3-5.3,1.8
			s-4.1,0.7-6.2,0.7c-2.8,0-5.6-0.4-8.2-1.1s-4.9-1.8-7-3.4c-2-1.5-3.6-3.4-4.8-5.7c-1.2-2.3-1.8-4.9-1.8-7.9s0.6-5.6,1.8-7.9
			c1.2-2.3,2.8-4.2,4.8-5.7s4.3-2.7,7-3.5c2.6-0.8,5.4-1.2,8.2-1.2c2.3,0,4.4,0.2,6.3,0.5c1.9,0.4,3.5,0.7,4.9,1.2
			c1.4,0.4,2.5,0.8,3.3,1.2c0.8,0.4,1.3,0.5,1.5,0.5s0.4-0.1,0.6-0.3s0.3-0.4,0.4-0.5l1,0.8l-5.3,8.2l-0.7-0.5c0-0.1,0-0.3,0-0.4
			s-0.1-0.3-0.1-0.5c-0.1-0.5-0.5-1-1.4-1.5c-0.8-0.5-1.8-1-3-1.4s-2.5-0.7-3.8-1s-2.6-0.4-3.7-0.4c-1.9,0-3.7,0.3-5.5,0.8
			c-1.7,0.5-3.3,1.3-4.5,2.4c-1.3,1-2.3,2.3-3.1,3.8c-0.8,1.5-1.2,3.2-1.2,5.2c0,1.9,0.4,3.7,1.2,5.2c0.8,1.5,1.8,2.8,3.1,3.8
			c1.3,1,2.8,1.8,4.5,2.4c1.7,0.5,3.6,0.8,5.5,0.8c1.4,0,3-0.2,4.5-0.5c1.6-0.3,3-0.8,4.3-1.3s2.4-1.1,3.3-1.8
			c0.9-0.7,1.3-1.3,1.3-1.9c0-0.3-0.1-0.6-0.3-0.8l1-0.5l4.5,7.2L345.5,257.3z"/>
		<path class="st10" d="M390.3,233.8c0-0.5-0.2-0.9-0.6-1.1s-1.1-0.4-2-0.4h-22v8.4H379c0.9,0,1.6-0.1,2.1-0.4
			c0.5-0.2,0.7-0.9,0.7-1.9h1.2V249h-1.2c0-1-0.2-1.7-0.7-2s-1.2-0.4-2.1-0.4h-13.3v9.4h22.7c0.7,0,1.2-0.2,1.7-0.5
			c0.4-0.3,0.6-0.7,0.6-1.3h1.2v9.3h-1.2c0-0.7-0.2-1.1-0.6-1.2s-1-0.1-1.7-0.1h-31.6V261c0.3,0,0.6-0.1,0.8-0.3
			c0.2-0.2,0.4-0.5,0.4-0.9V229c0-0.4-0.1-0.7-0.4-0.9c-0.2-0.2-0.5-0.3-0.8-0.3v-1.2h30.9c0.9,0,1.6-0.1,2-0.4s0.6-0.7,0.6-1.2h1.2
			v9h-1.2V233.8z"/>
	</g>
</g>
</svg>
