<?xml version="1.0" encoding="utf-8"?>
<!-- Generator: Adobe Illustrator 22.1.0, SVG Export Plug-In . SVG Version: 6.00 Build 0)  -->
<svg version="1.1"
	 id="svg17301" inkscape:version="0.92.0 r15299" sodipodi:docname="loganair.svg" xmlns:cc="http://creativecommons.org/ns#" xmlns:dc="http://purl.org/dc/elements/1.1/" xmlns:inkscape="http://www.inkscape.org/namespaces/inkscape" xmlns:rdf="http://www.w3.org/1999/02/22-rdf-syntax-ns#" xmlns:sodipodi="http://sodipodi.sourceforge.net/DTD/sodipodi-0.dtd" xmlns:svg="http://www.w3.org/2000/svg"
	 xmlns="http://www.w3.org/2000/svg" xmlns:xlink="http://www.w3.org/1999/xlink" x="0px" y="0px" width="100px" height="19.803px"
	 viewBox="0 0 100 19.803" style="enable-background:new 0 0 100 19.803;" xml:space="preserve">
<style type="text/css">
	.st0{fill-rule:evenodd;clip-rule:evenodd;fill:#571E18;}
	.st1{fill-rule:evenodd;clip-rule:evenodd;fill:#976D1B;}
	.st2{fill-rule:evenodd;clip-rule:evenodd;fill:#13100C;}
	.st3{fill:#925E2D;}
</style>
<sodipodi:namedview  bordercolor="#666666" borderopacity="1.0" fit-margin-bottom="0" fit-margin-left="0" fit-margin-right="0" fit-margin-top="0" id="base" inkscape:current-layer="layer1" inkscape:cx="124.60619" inkscape:cy="28.467014" inkscape:document-units="mm" inkscape:pageopacity="0.0" inkscape:pageshadow="2" inkscape:window-height="744" inkscape:window-maximized="1" inkscape:window-width="1280" inkscape:window-x="-4" inkscape:window-y="-4" inkscape:zoom="3.2441741" pagecolor="#ffffff" showgrid="false" units="px">
	</sodipodi:namedview>
<g>
	<g>
		<path class="st0" d="M44.673,8.111c0.283-0.329,0.949-0.297,1.232,0c-0.019,0.045-0.204,0.156-0.259,0.181
			C45.27,8.464,44.716,8.33,44.673,8.111L44.673,8.111z M46.14,7.909l0-1.486c-0.046,0.011-0.731,0.662-0.78,0.707
			c-0.257,0.236-0.522,0.478-0.774,0.714c-0.259,0.243-0.516,0.477-0.774,0.714l-0.68,0.627c-0.043,0.04-0.082,0.068-0.095,0.105
			c0.377-0.012,0.772-0.001,1.151-0.001l1.73-0.002c0.329,0,0.245,0.037,0.493-0.091c0.244-0.127,0.508-0.268,0.761-0.395
			c0.127-0.064,3.015-1.576,3.05-1.57c0.041,0.022,0.089,0.065,0.128,0.097l0.389,0.305c0.178,0.134,0.333,0.264,0.513,0.402
			c0.169,0.129,0.351,0.282,0.513,0.402c0.056,0.041,0.496,0.382,0.509,0.409l-1.915,0.001l-0.001-0.824
			c-0.043-0.007-0.596,0.293-0.68,0.337c-0.277,0.145-2.028,1.048-2.041,1.066c0.021,0.035,0.123,0.076,0.157,0.095
			c0.056,0.031,0.106,0.06,0.169,0.092c0.125,0.066,0.216,0.118,0.332,0.181l0.995,0.543c0.117,0.064,0.21,0.113,0.334,0.181
			c0.088,0.049,0.632,0.354,0.682,0.361c0-0.25-0.008-0.577,0-0.823l3.466-0.004c0.061,0,0.073,0.015,0.106,0.043
			c0.288,0.242,0.676,0.524,0.972,0.768l0.529,0.416c0.269,0.216,0.639,0.487,0.89,0.7l0.264,0.208
			c0.045,0.033,0.039,0.043,0.116,0.043h1.871c0.09,0,0.067,0.004,0.067-0.239c0-0.237,0.014-0.781-0.001-0.951
			c-0.068-0.021-1.157-0.008-1.383-0.008c-0.272,0-0.201,0.023-0.361-0.109c-0.177-0.145-0.334-0.28-0.508-0.427l-0.377-0.316
			c-0.025-0.021-0.113-0.086-0.119-0.117c0.457-0.014,0.937,0,1.396,0l1.309,0c0.047-0.01,0.032-0.008,0.032-0.064
			c0-0.246,0.011-0.957-0.004-1.151c-0.213-0.016-0.486-0.002-0.703-0.002c-1.181,0-2.394-0.013-3.57-0.003
			c-0.134,0.001-0.082,0-0.236-0.117l-0.602-0.475c-0.257-0.206-0.524-0.408-0.792-0.625l-1.597-1.259
			c-0.198-0.152-0.63-0.513-0.796-0.629l-0.513,0.268c-1.012,0.547-2.078,1.089-3.092,1.634C46.59,7.683,46.186,7.907,46.14,7.909
			L46.14,7.909z"/>
		<path class="st1" d="M53.708,1.658c0.082,0.033,0.251,0.079,0.396,0.137c0.659,0.262,1.197,0.532,1.774,0.922
			c0.223,0.151,0.427,0.298,0.62,0.456c0.765,0.625,1.452,1.37,2.003,2.31c0.537,0.916,0.942,1.989,1.078,3.223
			c0.147,1.333-0.058,2.668-0.474,3.752c-0.198,0.515-0.439,0.998-0.714,1.438c-0.562,0.897-1.214,1.597-2.05,2.254
			c-0.415,0.326-0.863,0.595-1.32,0.841c-0.671,0.362-1.621,0.698-2.389,0.84c-0.718,0.133-1.232,0.187-1.977,0.179
			c-0.92-0.009-1.937-0.183-2.772-0.47c-1.666-0.574-3.056-1.53-4.121-2.869c-0.792-0.995-1.279-2.023-1.583-3.274
			c-0.074-0.305-0.11-0.593-0.154-0.921c-0.083-0.628-0.05-1.427,0.036-2.037c0.196-1.38,0.768-2.705,1.604-3.787
			c0.156-0.203,0.323-0.394,0.491-0.585c0.312-0.355,0.728-0.727,1.124-1.028c0.573-0.437,1.359-0.91,2.059-1.179
			c0.966-0.372,1.554-0.516,2.6-0.632c0.634-0.07,1.398-0.052,2.029,0.031c0.309,0.041,0.615,0.092,0.914,0.162
			C53.145,1.482,53.459,1.56,53.708,1.658L53.708,1.658z M50.408,0.753c-0.171,0.019-0.365,0.004-0.535,0.031
			c-0.083,0.013-0.174,0.014-0.262,0.025c-0.994,0.123-1.969,0.41-2.867,0.819c-1.988,0.905-3.629,2.548-4.517,4.553
			c-0.531,1.198-0.756,2.459-0.714,3.821c0.007,0.236,0.078,0.788,0.115,1.012c0.153,0.93,0.441,1.72,0.861,2.548
			c0.959,1.893,2.848,3.521,4.822,4.25c0.453,0.167,1.262,0.43,1.766,0.495c0.165,0.021,0.32,0.057,0.493,0.074
			c0.171,0.016,0.344,0.042,0.523,0.052c0.365,0.021,0.741,0.026,1.117,0.017c1.22-0.029,2.559-0.372,3.659-0.878
			c1.034-0.476,1.944-1.144,2.669-1.865c0.614-0.611,1.022-1.175,1.467-1.932c0.561-0.956,1-2.363,1.061-3.48
			c0.004-0.079,0.019-0.173,0.028-0.244c0.014-0.107,0.008-0.743,0.003-0.852l-0.024-0.254c-0.093-0.935-0.231-1.636-0.593-2.523
			c-0.111-0.272-0.235-0.539-0.36-0.778c-0.525-1.009-1.17-1.781-1.998-2.538c-0.753-0.689-1.864-1.354-2.821-1.714
			c-0.588-0.222-0.752-0.261-1.292-0.398c-0.143-0.036-0.329-0.075-0.474-0.098c-0.542-0.086-0.999-0.144-1.558-0.147
			C50.793,0.744,50.583,0.733,50.408,0.753L50.408,0.753z"/>
		<path class="st0" d="M43.427,11.56l1.342,0.748c0.21,0.114,0.466,0.262,0.67,0.374c0.112,0.062,0.233,0.127,0.337,0.187
			c0.056,0.032,0.116,0.064,0.168,0.094c0.035,0.02,0.135,0.087,0.171,0.082l0-0.825l8.242,0.017c0.089,0,0.06-0.013,0.06-0.263
			l0.006-0.969c-0.517-0.013-1.131,0.001-1.655,0.003l-5.421,0.015c-0.166,0-1.14,0.01-1.214-0.005l0-0.877
			c-0.06,0.007-2.156,1.118-2.372,1.232l-0.297,0.155C43.421,11.549,43.436,11.53,43.427,11.56L43.427,11.56z"/>
		<path class="st2" d="M42.888,9.22c0.063-0.01,0.161-0.133,0.212-0.186l0.597-0.59c0.287-0.287,1.136-1.081,1.439-1.316
			c0.403-0.313,0.681-0.56,1.132-0.86c0.164-0.109,0.307-0.205,0.477-0.307c0.483-0.289,1.044-0.594,1.571-0.803
			c0.851-0.338,1.215-0.458,2.059-0.705c0.053-0.016,0.105-0.026,0.159-0.043c0.058-0.019,0.128-0.011,0.127-0.07
			c-0.085-0.056-1.117,0.25-1.263,0.291c-0.516,0.144-1.239,0.423-1.738,0.637c-0.183,0.078-0.368,0.165-0.542,0.252
			c-0.343,0.171-0.694,0.366-1.013,0.575C45.446,6.527,44.369,7.467,43.866,8c-0.192,0.203-0.49,0.546-0.645,0.753
			C43.165,8.828,42.901,9.156,42.888,9.22L42.888,9.22z"/>
		<path class="st0" d="M44.784,8.121c0.036,0.141,0.501,0.223,0.778,0.116c0.057-0.022,0.177-0.077,0.206-0.126
			C45.648,7.957,45.024,7.866,44.784,8.121L44.784,8.121z"/>
	</g>
	<g>
		<path class="st3" d="M68.081,3.297c-0.109,0.349-0.199,0.705-0.332,1.044c-0.33,0.84-0.723,1.658-1.009,2.513
			c-0.199,0.593-0.271,1.234,0.472,1.785c0.233-0.447,0.439-0.843,0.645-1.238c0.148,0.939-0.176,1.691-0.822,2.335
			c0.096,1.149-0.347,2.376,0.563,3.374c0.891,0.196,1.242-0.375,1.539-0.981c0.367-0.748,0.642-1.545,1.056-2.264
			c0.4-0.695,0.976-1.229,1.914-1.194c0.121,0.376,0.191,0.676,0.312,0.954c0.486,1.116,1.347,1.754,2.554,1.88
			c1.554,0.161,3.054-0.079,4.487-0.713c0.349-0.155,0.704-0.296,1.063-0.446c0.149,0.37,0.287,0.714,0.409,1.015
			c1.153,0.302,1.295,0.257,1.981-0.655c-0.113-0.707-0.239-1.492-0.385-2.4c0.108-0.236,0.263-0.574,0.417-0.913
			c0.074-0.004,0.148-0.008,0.222-0.012c0.132,0.617,0.371,1.234,0.374,1.852c0.007,1.515,0.62,2.463,2.561,2.425
			c1.161-0.023,2.321-0.37,3.47-0.626c0.564-0.126,1.1-0.375,1.689-0.582c0.047,0.329,0.086,0.597,0.12,0.833
			c0.494,0.515,1.165,0.376,2.175-0.517c-0.063-1.288-0.124-2.706-0.203-4.123c-0.047-0.835-0.176-1.668-0.168-2.501
			c0.005-0.516,0.197-1.03,0.306-1.545c0.107,0.012,0.215,0.024,0.322,0.036c0.136,1.983,0.27,3.967,0.408,5.95
			c0.043,0.625,0.04,1.26,0.158,1.871c0.262,1.349,0.998,1.603,2.289,0.687c-0.234-2.535-0.477-5.159-0.729-7.879
			c0.097-0.189,0.235-0.459,0.488-0.951c0.39,0.986,0.701,1.772,1.056,2.67c-0.244,0.034-0.374,0.052-0.627,0.087
			c0.066,0.63,0.159,1.269,0.193,1.91c0.061,1.147,0.169,2.301,0.092,3.441c-0.042,0.619-0.292,1.324-0.682,1.799
			c-0.725,0.884-1.853,0.668-2.373-0.339c-0.093-0.179-0.166-0.368-0.262-0.583c-1.126,1.486-1.464,1.627-2.696,1.099
			c-0.104-0.258-0.228-0.566-0.312-0.773c-1.22,0.349-2.404,0.741-3.616,1.013c-0.598,0.134-1.252,0.109-1.87,0.048
			c-0.921-0.09-1.648-0.539-2.033-1.519c-0.694,0.899-1.238,1.992-2.671,1.229c-0.124-0.255-0.273-0.562-0.464-0.955
			c-0.495,0.186-1.006,0.366-1.508,0.568c-1.048,0.423-2.135,0.603-3.264,0.591c-1.632-0.018-2.784-0.743-3.44-2.244
			c-0.081-0.186-0.175-0.366-0.301-0.626c-0.675,0.24-1.188,0.597-1.469,1.232c-0.309,0.699-0.6,1.407-0.886,2.116
			c-0.224,0.555-0.581,0.939-1.181,1.029c-1.26-0.585-1.548-1.462-1.468-4.473c-0.722-0.963-0.728-2.049-0.223-3.123
			c0.511-1.086,1.113-2.13,1.675-3.192C68.095,3.317,68.081,3.297,68.081,3.297z"/>
		<path class="st3" d="M72.55,5.424c0.071-0.772,0.552-0.912,1.041-0.997c4.045-0.701,8.086-1.42,12.139-2.074
			c2.061-0.333,4.142-0.546,6.214-0.808c0.4-0.051,0.804-0.076,1.23-0.115c-0.071,0.666-0.508,0.681-0.923,0.737
			c-3.207,0.433-6.426,0.797-9.618,1.324c-3.189,0.527-6.35,1.218-9.524,1.836C72.946,5.359,72.783,5.384,72.55,5.424z"/>
		<path class="st3" d="M98.853,12.818c0-1.553,0.049-3.109-0.014-4.659c-0.064-1.563-0.24-3.121-0.475-4.689
			c0.129-0.35,0.258-0.7,0.477-1.291c0.417,1.035,0.75,1.863,1.159,2.88c-0.351-0.117-0.493-0.164-0.74-0.247
			c0.112,1.376,0.245,2.713,0.323,4.052c0.078,1.344,0.189,2.701-0.384,3.975C99.084,12.832,98.969,12.825,98.853,12.818z"/>
		<path class="st3" d="M89.211,5.817c0.125-0.277,0.251-0.554,0.379-0.838c0.709,0,1.377,0,2.11,0
			c-0.47,1.23-1.216,1.966-2.497,2.044c0.009-0.112,0.018-0.225,0.028-0.337c0.353-0.182,0.707-0.365,1.06-0.547
			c-0.008-0.071-0.015-0.143-0.023-0.214c-0.316,0-0.631,0-0.947,0C89.287,5.887,89.25,5.851,89.211,5.817z"/>
		<path class="st3" d="M90.488,14.58c0.369,0.295,0.687,0.548,1.052,0.84c-0.216,0.303-0.411,0.575-0.658,0.92
			c-0.323-0.238-0.616-0.454-1.09-0.803c-0.1,0.206-0.217,0.445-0.373,0.764c-0.417-0.313-0.731-0.548-1.1-0.824
			c0.215-0.334,0.394-0.611,0.602-0.934c0.322,0.216,0.598,0.4,0.89,0.596C90.043,14.947,90.271,14.759,90.488,14.58z"/>
		<path class="st3" d="M70.776,7.272c-0.181,0.213-0.354,0.415-0.58,0.681c-0.319-0.221-0.646-0.447-1.031-0.713
			c0.178-0.328,0.334-0.614,0.521-0.956c0.37,0.223,0.684,0.412,1.026,0.619c0.194-0.207,0.379-0.405,0.611-0.653
			c0.33,0.229,0.656,0.454,1.062,0.735c-0.213,0.329-0.392,0.605-0.605,0.934C71.431,7.694,71.126,7.498,70.776,7.272z"/>
		<path class="st3" d="M88.718,8.893c-0.209-0.025-0.418-0.05-0.706-0.085c-0.221,0.599-0.446,1.208-0.722,1.953
			c-0.255-0.461-0.445-0.806-0.636-1.151c-0.946-0.192-0.986-0.258-0.633-1.314c0.448,0.459,0.841,0.86,1.262,1.291
			c0.432-0.345,0.254-1.302,1.108-1.254c0.153,0.008,0.294,0.242,0.441,0.372C88.794,8.767,88.756,8.83,88.718,8.893z"/>
		<path class="st3" d="M68.056,18.818c0.274-0.116,0.548-0.233,0.819-0.347c-0.087-0.325-0.168-0.627-0.305-1.141
			c0.502,0.226,0.773,0.348,1.044,0.469c0.026-0.042,0.051-0.084,0.077-0.126c-0.107-0.088-0.214-0.175-0.385-0.315
			c0.27-0.206,0.525-0.4,0.837-0.638c0.022,0.221,0.037,0.375,0.055,0.553c0.327,0.042,0.659,0.084,0.99,0.126
			c0.011,0.046,0.022,0.091,0.033,0.137c-0.159,0.068-0.314,0.144-0.477,0.203c-0.634,0.228-1.306,0.348-1.773,0.939
			c-0.168,0.213-0.551,0.255-0.837,0.376C68.108,18.973,68.082,18.896,68.056,18.818z"/>
		<path class="st3" d="M79.951,7.278c-0.127,0.193-0.253,0.386-0.401,0.612c-0.268-0.127-0.48-0.228-0.719-0.341
			c-0.201,0.16-0.435,0.345-0.631,0.501c-0.657-0.058-0.83-0.964-0.356-2.075c0.043,0.597,0.076,1.039,0.111,1.524
			c1.138-0.165,0.349-1.122,0.846-1.685c0.077,0.334,0.149,0.565,0.181,0.801c0.049,0.367,0.113,0.699,0.601,0.654
			C79.705,7.273,79.828,7.276,79.951,7.278z"/>
		<path class="st3" d="M75.559,2.466c-0.098,0.322-0.197,0.644-0.344,1.125c-0.254-0.449-0.441-0.78-0.627-1.109
			c-0.963-0.265-0.963-0.265-0.709-1.405c0.411,0.436,0.742,0.786,1.072,1.136C75.154,2.297,75.357,2.381,75.559,2.466z"/>
		<path class="st3" d="M82.692,15.368c0.254-0.318,0.441-0.553,0.7-0.879c0.368,0.294,0.7,0.56,1.087,0.869
			c-0.221,0.304-0.414,0.57-0.656,0.904C83.451,15.967,83.119,15.705,82.692,15.368z"/>
		<path class="st3" d="M95.881,14.426c-1.058,0.399-2.115,0.798-3.218,1.215c0.199-0.622,1.056-1.007,3.108-1.455
			C95.807,14.266,95.844,14.346,95.881,14.426z"/>
		<path class="st3" d="M73.761,17.749l-0.013,0.017c0-0.002,0-0.002,0-0.004C73.753,17.758,73.757,17.754,73.761,17.749z"/>
		<path class="st3" d="M67.73,17.834c0.115-0.185,0.194-0.31,0.403-0.645c-0.024,0.473-0.036,0.713-0.053,1.04
			c-0.541-0.153-0.984-0.279-1.567-0.444c0.175-0.248,0.334-0.474,0.538-0.762C67.306,17.328,67.507,17.568,67.73,17.834z"/>
		<path class="st3" d="M79.511,17.546c-0.496,0.18-0.994,0.362-1.491,0.542c-0.686,0.04-1.372,0.077-2.058,0.117
			c-0.029-0.079-0.061-0.157-0.09-0.236c0.169-0.167,0.339-0.335,0.508-0.502c0.09-0.052,0.182-0.107,0.272-0.159
			c0.138-0.111,0.276-0.22,0.494-0.393c0.144,0.19,0.257,0.341,0.372,0.494c0.063,0.044,0.125,0.09,0.188,0.136
			c0.209-0.249,0.416-0.5,0.625-0.749c0.08-0.31,0.161-0.621,0.241-0.933c-0.232-0.201-0.462-0.402-0.726-0.63
			c-0.201,0.245-0.368,0.45-0.581,0.713c-0.324-0.222-0.625-0.429-1.008-0.69c0.174-0.326,0.324-0.613,0.504-0.954
			c0.358,0.207,0.646,0.376,1.125,0.653c0.105-0.238,0.23-0.529,0.343-0.789c0.473,0.322,0.757,0.517,1.088,0.74
			c-0.038,0.241-0.077,0.498-0.117,0.755c0.052,0.075,0.102,0.153,0.215,0.318c-0.222,0.042-0.374,0.071-0.609,0.115
			c-0.077,0.387-0.159,0.807-0.243,1.228c0.301,0.017,0.602,0.033,0.901,0.05C79.482,17.431,79.496,17.488,79.511,17.546z"/>
		<path class="st3" d="M73.761,17.749l-0.013,0.017c0-0.002,0-0.002,0-0.004C73.753,17.758,73.757,17.754,73.761,17.749z"/>
		<path class="st3" d="M73.512,17.536c-0.188-0.634-0.376-1.265-0.565-1.897c-0.102,0.025-0.205,0.05-0.307,0.073
			c0.161,0.68,0.322,1.357,0.483,2.037c-0.274,0.09-0.548,0.178-0.822,0.268c-0.142-0.278-0.33-0.544-0.412-0.841
			c-0.105-0.368-0.119-0.761-0.174-1.144c-0.102,0.017-0.207,0.033-0.31,0.048c0.092,0.68,0.186,1.357,0.274,2.008
			c0.257,0.036,0.427,0.061,0.594,0.084c1.163,0.45,2.106,0.077,2.286-0.924C74.106,16.959,73.792,17.178,73.512,17.536z
			 M73.749,17.762c0.004-0.004,0.008-0.008,0.013-0.013l-0.013,0.017C73.749,17.764,73.749,17.764,73.749,17.762z"/>
		<path class="st3" d="M85.637,6.046c0.028,0.131,0.057,0.263,0.107,0.494c0.268-0.172,0.473-0.303,0.679-0.434
			c0.044,0.03,0.087,0.059,0.131,0.089c-0.231,0.324-0.462,0.649-0.722,1.014c-0.44-0.4-0.593-0.746-0.396-1.195
			C85.502,6.032,85.569,6.043,85.637,6.046z"/>
		<path class="st3" d="M79.903,18.09c-0.063-0.646-0.127-1.292-0.19-1.939c0.093-0.013,0.186-0.026,0.278-0.04
			c0.094,0.654,0.188,1.308,0.282,1.962C80.15,18.079,80.027,18.085,79.903,18.09z"/>
		<path class="st3" d="M72.194,14.595l-0.006,0.232c-0.063,0.105-0.126,0.207-0.188,0.31c-0.155,0.182-0.307,0.362-0.594,0.699
			c-0.136-0.471-0.215-0.738-0.293-1.006c-0.157-0.743,0.182-1.291,0.803-1.977c-0.201,0.805-0.345,1.391-0.492,1.974
			c0.134,0.056,0.268,0.113,0.404,0.169c0-0.063,0.017-0.119,0.048-0.174C71.983,14.748,72.09,14.673,72.194,14.595z"/>
		<path class="st3" d="M75.596,1.619c0.173-0.201,0.347-0.402,0.59-0.684c0.222,0.245,0.379,0.417,0.486,0.536
			C76.278,1.7,75.977,1.875,75.675,2.05C75.649,1.907,75.623,1.763,75.596,1.619z"/>
		<path class="st3" d="M74.817,8.973c0.181-0.48,0.362-0.961,0.544-1.441c0.096,0.04,0.191,0.08,0.287,0.12
			c-0.177,0.44-0.355,0.88-0.532,1.32C75.015,8.972,74.916,8.973,74.817,8.973z"/>
		<path class="st3" d="M74.817,8.973c0.099,0,0.199-0.001,0.298-0.001c0.099,0.203,0.199,0.407,0.298,0.61c0.129,0,0.257,0,0.386,0
			c-0.179,0.23-0.358,0.459-0.56,0.718C74.704,9.913,74.765,9.441,74.817,8.973z"/>
		<path class="st3" d="M75.828,18.222c-0.105,0.125-0.209,0.251-0.314,0.376c-0.226,0.397-0.538,0.521-1.052,0.261
			c0.347-0.144,0.634-0.264,0.922-0.383c0.002-0.092,0.004-0.184,0.004-0.276c-0.071-0.205-0.142-0.408-0.211-0.611
			c0.105-0.046,0.211-0.092,0.318-0.136C75.606,17.71,75.717,17.967,75.828,18.222z"/>
		<path class="st3" d="M79.951,7.278c-0.123-0.003-0.246-0.006-0.369-0.008c-0.055-0.275-0.111-0.55-0.166-0.824
			c0.085-0.082,0.17-0.165,0.255-0.247C79.764,6.559,79.857,6.918,79.951,7.278z"/>
		<path class="st3" d="M85.637,6.046c-0.068-0.003-0.136-0.014-0.202-0.032c0.07-0.341,0.139-0.682,0.209-1.023
			c0.091,0.02,0.183,0.039,0.274,0.059C85.825,5.382,85.731,5.714,85.637,6.046z"/>
		<path class="st3" d="M75.596,1.619c0.026,0.144,0.052,0.288,0.078,0.432c-0.039,0.138-0.077,0.277-0.116,0.415
			c-0.202-0.084-0.404-0.168-0.607-0.253C75.167,2.015,75.382,1.817,75.596,1.619z"/>
		<path class="st3" d="M67.299,16.416c-0.206,0.08-0.412,0.16-0.618,0.24c-0.036-0.077-0.073-0.155-0.109-0.232
			c0.203-0.114,0.406-0.228,0.61-0.341C67.221,16.194,67.26,16.305,67.299,16.416z"/>
		<path class="st3" d="M67.623,19.568c0.188-0.101,0.377-0.201,0.565-0.302c0.041,0.075,0.083,0.15,0.124,0.224
			c-0.186,0.104-0.372,0.209-0.558,0.313C67.71,19.725,67.666,19.646,67.623,19.568z"/>
		<path class="st3" d="M75.799,9.582c-0.129,0-0.257,0-0.386,0c0.141-0.189,0.282-0.377,0.423-0.566
			c0.052,0.031,0.105,0.062,0.157,0.093C75.928,9.267,75.864,9.425,75.799,9.582z"/>
		<path class="st3" d="M71.159,16.055c-0.297-0.094-0.414-0.132-0.533-0.169c-0.092,0.197-0.184,0.395-0.274,0.594
			c-0.065-0.038-0.13-0.073-0.195-0.109c0.125-0.199,0.251-0.399,0.376-0.598c0.023-0.115,0.048-0.232,0.125-0.596
			C70.875,15.555,70.977,15.735,71.159,16.055z"/>
		<path class="st3" d="M77.725,16.372c-0.03,0.078-0.06,0.155-0.089,0.233c-0.037-0.005-0.075-0.009-0.112-0.014
			c0.007-0.1,0.015-0.201,0.022-0.301C77.606,16.317,77.665,16.344,77.725,16.372z"/>
		<path class="st3" d="M70.804,18.731c-0.277,0.152-0.36,0.235-0.416,0.219c-0.064-0.018-0.103-0.123-0.154-0.19
			c0.068-0.049,0.133-0.13,0.206-0.139C70.521,18.612,70.611,18.669,70.804,18.731z"/>
		<path class="st3" d="M76.296,17.249c-0.094,0.019-0.186,0.036-0.278,0.052c-0.05-0.341-0.102-0.682-0.155-1.025
			c-0.021-0.186-0.042-0.372-0.061-0.558c0.067-0.008,0.134-0.015,0.199-0.023c0.015,0.199,0.027,0.395,0.04,0.594
			C76.125,16.609,76.21,16.929,76.296,17.249z"/>
		<path class="st3" d="M79.671,6.199c-0.085,0.082-0.17,0.165-0.255,0.247c0-0.155,0-0.311,0-0.633
			C79.557,6.027,79.614,6.113,79.671,6.199z"/>
		<path class="st3" d="M81.711,1.56c-0.14,0.243-0.278,0.483-0.416,0.726c-0.119,0.111-0.238,0.224-0.4,0.372
			c-0.835-0.799-0.328-1.529-0.008-2.257C80.971,0.268,81.052,0.134,81.134,0c0.044,0.015,0.09,0.029,0.134,0.044
			c-0.017,0.111-0.033,0.22-0.05,0.328c-0.297,0.51-0.535,1.031-0.297,1.671c0.138-0.067,0.23-0.111,0.32-0.153
			c0.09-0.149,0.18-0.295,0.27-0.443L81.711,1.56z"/>
		<path class="st3" d="M89.231,6.686c-0.009,0.112-0.018,0.225-0.028,0.337c-0.069-0.032-0.138-0.065-0.207-0.097
			C89.075,6.846,89.153,6.766,89.231,6.686z"/>
		<path class="st3" d="M68.095,3.317c0.034-0.024,0.069-0.048,0.056-0.039c0.013-0.004-0.029,0.008-0.07,0.02
			C68.081,3.297,68.095,3.317,68.095,3.317z"/>
		<path class="st3" d="M89.322,5.924c-0.077,0.022-0.155,0.045-0.33,0.095c0.129-0.119,0.174-0.161,0.22-0.203
			C89.25,5.851,89.287,5.887,89.322,5.924z"/>
		<path class="st3" d="M73.761,17.749l-0.013,0.017c0-0.002,0-0.002,0-0.004C73.753,17.758,73.757,17.754,73.761,17.749z"/>
	</g>
	<g>
		<g>
			<path class="st3" d="M5.787,12.297c0,0.172-0.011,0.455-0.033,0.851H5.634c-0.044,0-0.15-0.007-0.318-0.02
				c-0.168-0.013-0.358-0.02-0.57-0.02l-4.56-0.03C0.062,13.079,0,13.049,0,12.99c0-0.046,0.099-0.076,0.296-0.089
				c0.278-0.013,0.445-0.041,0.5-0.084c0.055-0.043,0.082-0.166,0.082-0.371V6.884c0-0.244-0.028-0.386-0.082-0.426
				c-0.055-0.04-0.251-0.059-0.588-0.059C0.069,6.399,0,6.363,0,6.29c0-0.059,0.044-0.089,0.132-0.089h0.099
				c0.242,0.02,0.721,0.03,1.439,0.03c0.066,0,0.194-0.005,0.384-0.015c0.19-0.01,0.348-0.015,0.472-0.015h0.121
				c0.132,0,0.198,0.033,0.198,0.099c0,0.04-0.02,0.064-0.06,0.074c-0.04,0.01-0.167,0.018-0.379,0.025
				C2.193,6.406,2.066,6.437,2.026,6.493c-0.04,0.056-0.06,0.229-0.06,0.519v5.839c0.198,0.007,0.472,0.01,0.824,0.01
				c0.857,0,1.461-0.04,1.812-0.119c0.352-0.079,0.589-0.228,0.714-0.445c0.124-0.218,0.198-0.511,0.22-0.881
				c0.007-0.086,0.049-0.128,0.126-0.128c0.091,0,0.133,0.049,0.126,0.148v0.248c0,0.013,0,0.043,0,0.089c0,0.046,0,0.092,0,0.138
				V12.297z"/>
			<path class="st3" d="M9.06,12.995c0,0.056-0.044,0.084-0.132,0.084h-0.11c-0.044-0.02-0.542-0.03-1.494-0.03
				c-0.183,0-0.366,0.007-0.549,0.02c-0.095,0.007-0.242,0.01-0.439,0.01c-0.095,0-0.143-0.03-0.143-0.089
				c0-0.053,0.095-0.083,0.286-0.089c0.293-0.007,0.465-0.038,0.516-0.094c0.051-0.056,0.077-0.247,0.077-0.571V7.014
				c0-0.324-0.019-0.506-0.056-0.546C6.972,6.402,6.768,6.363,6.405,6.349C6.264,6.344,6.194,6.32,6.194,6.28
				c0-0.052,0.044-0.078,0.133-0.078H7.82c0.111,0,0.325,0.003,0.642,0.01l0.421-0.01c0.118,0,0.177,0.028,0.177,0.084
				c0,0.05-0.163,0.081-0.489,0.094C8.385,6.386,8.272,6.416,8.231,6.468C8.191,6.521,8.17,6.66,8.17,6.884v5.285
				c0,0.376,0.018,0.581,0.055,0.614c0.08,0.073,0.318,0.115,0.714,0.128C9.02,12.911,9.06,12.939,9.06,12.995z"/>
			<path class="st3" d="M15.111,11.278c0,0.673-0.34,1.171-1.021,1.494c-0.329,0.158-0.802,0.257-1.417,0.297
				c-0.169,0.007-0.666,0.01-1.494,0.01H9.84c-0.124,0-0.187-0.028-0.187-0.084c0-0.056,0.114-0.084,0.34-0.084
				c0.264,0,0.419-0.025,0.467-0.074c0.048-0.049,0.071-0.2,0.071-0.45V7.032c0-0.29-0.015-0.458-0.044-0.505
				c-0.051-0.079-0.238-0.122-0.56-0.128c-0.198,0-0.297-0.035-0.297-0.104c0-0.063,0.092-0.094,0.275-0.094
				c0.007,0,0.051,0,0.132,0c0.08,0.02,0.154,0.03,0.22,0.03h2.141c0.791,0.007,1.38,0.125,1.768,0.356
				c0.454,0.271,0.681,0.663,0.681,1.178c0,0.449-0.187,0.816-0.56,1.103c-0.373,0.287-0.897,0.467-1.57,0.539v0.059
				c0.666,0.04,1.186,0.165,1.56,0.376C14.833,10.159,15.111,10.638,15.111,11.278z M13.639,7.864c0-0.633-0.161-1.055-0.483-1.267
				c-0.169-0.112-0.487-0.168-0.956-0.168c-0.125,0-0.318,0.01-0.582,0.03v2.87h0.099l0.604-0.02
				c0.417-0.013,0.741-0.147,0.972-0.401C13.524,8.654,13.639,8.306,13.639,7.864z M13.958,11.169c0-0.831-0.373-1.346-1.12-1.544
				c-0.22-0.059-0.626-0.089-1.219-0.089v2.949c0,0.191,0.022,0.3,0.066,0.327c0.073,0.046,0.278,0.069,0.615,0.069
				c0.505,0,0.908-0.145,1.208-0.435C13.808,12.155,13.958,11.73,13.958,11.169z"/>
			<path class="st3" d="M22.414,6.275c0,0.05-0.062,0.075-0.187,0.075c-0.403,0.007-0.652,0.07-0.747,0.19
				c-0.088,0.073-0.403,0.64-0.944,1.7c-0.242,0.469-0.469,0.881-0.681,1.237c-0.146,0.245-0.231,0.412-0.252,0.501
				c-0.022,0.089-0.033,0.283-0.033,0.58v1.876c0,0.218,0.031,0.347,0.093,0.387c0.062,0.04,0.28,0.069,0.653,0.089
				c0.198,0.013,0.296,0.044,0.296,0.094s-0.051,0.075-0.154,0.075h-0.132l-1.537-0.03c-0.432,0-0.787,0.007-1.065,0.02
				c-0.044,0.007-0.095,0.01-0.154,0.01c-0.103,0-0.154-0.031-0.154-0.094s0.084-0.097,0.252-0.104
				c0.403-0.013,0.641-0.046,0.714-0.099c0.073-0.052,0.11-0.21,0.11-0.473v-2.08c-0.073-0.145-0.286-0.531-0.637-1.158
				l-1.098-1.959c-0.11-0.191-0.242-0.406-0.395-0.643c-0.081-0.066-0.255-0.099-0.522-0.099c-0.267,0-0.401-0.036-0.401-0.109
				c0-0.053,0.059-0.079,0.176-0.079c0.154,0,0.461,0.007,0.922,0.02c0.264,0.007,0.454,0.01,0.571,0.01l1.274-0.015
				c0.051-0.01,0.11-0.015,0.176-0.015c0.132,0,0.198,0.033,0.198,0.099c0,0.06-0.125,0.089-0.373,0.089
				c-0.454,0-0.681,0.073-0.681,0.219c0,0.113,0.23,0.568,0.691,1.364l0.998,1.702c0.182-0.295,0.39-0.659,0.623-1.091l0.648-1.178
				c0.245-0.425,0.367-0.704,0.367-0.836c0-0.086-0.062-0.136-0.187-0.15c-0.256-0.033-0.428-0.046-0.516-0.04
				c-0.161,0.007-0.242-0.026-0.242-0.1c0-0.053,0.07-0.079,0.209-0.079h0.637h0.363C22.041,6.161,22.414,6.193,22.414,6.275z"/>
			<path class="st3" d="M29.388,13.014c0,0.056-0.055,0.084-0.165,0.084c-0.073,0-0.139-0.003-0.198-0.01l-1.395-0.039l-1.395,0.039
				c-0.051,0.007-0.106,0.01-0.165,0.01c-0.146,0-0.22-0.035-0.22-0.104c0-0.076,0.099-0.114,0.296-0.114
				c0.644-0.007,0.967-0.065,0.967-0.175c0-0.006-0.008-0.032-0.022-0.077l-0.09-0.262l-0.056-0.138
				c-0.066-0.205-0.227-0.657-0.483-1.357h-2.348c-0.439,1.056-0.658,1.662-0.658,1.821c0,0.093,0.044,0.148,0.132,0.168
				c0.022,0.007,0.205,0.02,0.549,0.04c0.212,0.007,0.319,0.04,0.319,0.099c0,0.066-0.095,0.099-0.286,0.099
				c-0.337,0-0.729-0.013-1.175-0.04c-0.11-0.007-0.223-0.01-0.34-0.01c-0.117,0-0.231,0.011-0.34,0.033
				c-0.058,0.011-0.106,0.017-0.143,0.017c-0.102,0-0.154-0.03-0.154-0.089c0-0.059,0.115-0.093,0.346-0.099
				c0.231-0.006,0.397-0.038,0.5-0.094c0.102-0.056,0.183-0.164,0.241-0.323c0.942-2.436,1.708-4.392,2.3-5.869
				c0.017-0.078,0.051-0.165,0.102-0.263l0.047-0.181c0.022-0.073,0.051-0.109,0.088-0.109c0.022,0,0.04,0.02,0.055,0.059
				c0.095,0.257,0.311,0.795,0.648,1.613c0.264,0.64,0.919,2.246,1.966,4.819c0.059,0.149,0.134,0.244,0.225,0.285
				c0.091,0.041,0.28,0.064,0.566,0.071C29.292,12.927,29.388,12.958,29.388,13.014z M26.413,10.644
				c-0.119-0.297-0.317-0.788-0.593-1.475l-0.528-1.372c-0.309,0.73-0.68,1.679-1.113,2.847H26.413z"/>
			<path class="st3" d="M35.955,6.3c0,0.066-0.092,0.096-0.275,0.089h-0.242h-0.198c-0.117,0-0.187,0.018-0.209,0.055
				C35.01,6.48,34.999,6.59,34.999,6.774v5.692c0,0.349-0.004,0.554-0.011,0.613c-0.007,0.059-0.029,0.089-0.066,0.089
				c-0.044,0-0.095-0.037-0.153-0.109l-1.403-1.852c-0.814-1.08-1.803-2.429-2.968-4.046v5.542c0.007,0.086,0.063,0.141,0.166,0.164
				c0.104,0.023,0.351,0.038,0.744,0.045c0.096,0,0.144,0.027,0.144,0.079c0,0.066-0.095,0.099-0.286,0.099
				c-0.066,0-0.275-0.01-0.626-0.03c-0.117-0.007-0.231-0.01-0.34-0.01c0.007,0-0.057,0.007-0.192,0.02
				c-0.135,0.013-0.342,0.02-0.621,0.02h-0.11c-0.169,0-0.253-0.03-0.253-0.089c0-0.059,0.073-0.089,0.22-0.089
				c0.432-0.007,0.683-0.031,0.752-0.074c0.07-0.043,0.104-0.183,0.104-0.421V7.529c0-0.548-0.125-0.892-0.373-1.031
				c-0.117-0.066-0.326-0.099-0.626-0.099c-0.191,0-0.286-0.035-0.286-0.104c0-0.063,0.055-0.094,0.165-0.094
				c0.146,0,0.333,0.007,0.56,0.02c0.227,0.013,0.348,0.02,0.362,0.02c0.022,0,0.124-0.003,0.308-0.01
				c0.242,0,0.476-0.01,0.703-0.03l3.789,5.096V6.894c0-0.204-0.004-0.328-0.011-0.371c-0.007-0.043-0.037-0.076-0.088-0.099
				c-0.051-0.023-0.227-0.035-0.527-0.035c-0.263,0-0.395-0.03-0.395-0.089c0-0.066,0.088-0.099,0.263-0.099h0.384
				c0.095,0,0.198,0,0.307,0c0.117,0,0.187,0,0.209,0c0.007,0,0.073,0,0.198,0c0.117,0,0.227,0,0.329,0h0.34
				C35.874,6.201,35.955,6.234,35.955,6.3z"/>
		</g>
		<g>
			<path class="st3" d="M23.364,18.516v-0.083c0.157,0,0.188-0.009,0.241-0.039c0.035-0.018,0.061-0.066,0.061-0.105
				c0-0.066-0.031-0.184-0.083-0.306l-0.18-0.411h-1.146l-0.201,0.499c-0.022,0.057-0.039,0.131-0.039,0.184
				c0,0.136,0.096,0.179,0.306,0.179v0.083h-0.871v-0.083c0.254-0.026,0.293-0.118,0.551-0.731l0.901-2.135h0.088l1.076,2.463
				c0.122,0.285,0.184,0.376,0.411,0.403v0.083H23.364z M22.835,16.188l-0.503,1.203h1.011L22.835,16.188z"/>
			<path class="st3" d="M24.616,18.516v-0.066c0.302-0.018,0.346-0.057,0.346-0.39v-0.993c0-0.205-0.035-0.276-0.144-0.276
				c-0.039,0-0.105,0-0.184,0.022v-0.07l0.678-0.241l0.018,0.018v1.536c0,0.324,0.035,0.372,0.324,0.394v0.066H24.616z
				 M25.106,15.974c-0.123,0-0.219-0.096-0.219-0.223c0-0.122,0.101-0.223,0.223-0.223c0.127,0,0.223,0.101,0.223,0.223
				C25.333,15.878,25.237,15.974,25.106,15.974z"/>
			<path class="st3" d="M26.462,16.915c0.219-0.315,0.341-0.411,0.525-0.411c0.149,0,0.241,0.087,0.241,0.232
				c0,0.123-0.066,0.197-0.171,0.197c-0.057,0-0.105-0.022-0.175-0.087c-0.048-0.044-0.087-0.066-0.114-0.066
				c-0.123,0-0.306,0.219-0.306,0.359v0.985c0,0.249,0.074,0.315,0.372,0.328v0.066h-1.05v-0.066
				c0.28-0.052,0.311-0.083,0.311-0.302v-1.094c0-0.192-0.039-0.262-0.149-0.262c-0.052,0-0.092,0.004-0.153,0.017v-0.07
				c0.258-0.083,0.416-0.144,0.647-0.236l0.022,0.009V16.915z"/>
			<path class="st3" d="M27.28,18.516v-0.066c0.276-0.022,0.337-0.096,0.337-0.337v-2.052c0-0.21-0.044-0.28-0.184-0.28
				c-0.035,0-0.092,0-0.162,0.009v-0.07c0.302-0.074,0.464-0.118,0.691-0.192l0.022,0.018v2.59c0,0.241,0.048,0.298,0.328,0.315
				v0.066H27.28z"/>
			<path class="st3" d="M28.475,18.516v-0.066c0.302-0.018,0.346-0.057,0.346-0.39v-0.993c0-0.205-0.035-0.276-0.144-0.276
				c-0.039,0-0.105,0-0.184,0.022v-0.07l0.678-0.241l0.018,0.018v1.536c0,0.324,0.035,0.372,0.324,0.394v0.066H28.475z
				 M28.965,15.974c-0.123,0-0.219-0.096-0.219-0.223c0-0.122,0.101-0.223,0.223-0.223c0.127,0,0.223,0.101,0.223,0.223
				C29.192,15.878,29.096,15.974,28.965,15.974z"/>
			<path class="st3" d="M30.833,18.516l0.004-0.066c0.219-0.018,0.271-0.105,0.271-0.394v-0.871c0-0.311-0.105-0.442-0.319-0.442
				c-0.144,0-0.249,0.052-0.451,0.249v1.208c0,0.171,0.061,0.232,0.285,0.249v0.066H29.7v-0.066
				c0.223-0.018,0.271-0.088,0.271-0.346v-1.063c0-0.214-0.031-0.285-0.153-0.285c-0.048,0-0.096,0.004-0.127,0.018V16.7
				c0.241-0.07,0.385-0.118,0.599-0.197l0.035,0.013v0.341h0.004c0.228-0.258,0.429-0.354,0.63-0.354
				c0.333,0,0.516,0.241,0.516,0.674v0.967c0,0.236,0.052,0.285,0.267,0.306v0.066H30.833z"/>
			<path class="st3" d="M33.664,17.829c-0.171,0.477-0.477,0.731-0.914,0.731c-0.516,0-0.831-0.389-0.831-0.993
				c0-0.617,0.354-1.063,0.906-1.063c0.271,0,0.468,0.105,0.608,0.302c0.087,0.123,0.131,0.262,0.149,0.499h-1.348
				c0.022,0.333,0.044,0.503,0.201,0.713c0.123,0.162,0.285,0.241,0.486,0.241c0.293,0,0.459-0.136,0.674-0.459L33.664,17.829z
				 M33.134,17.164c-0.048-0.355-0.14-0.503-0.429-0.503c-0.245,0-0.416,0.175-0.464,0.503H33.134z"/>
			<path class="st3" d="M34.889,17.475c0.28,0.171,0.385,0.289,0.385,0.538c0,0.293-0.28,0.547-0.613,0.547
				c-0.092,0-0.219-0.004-0.319-0.039c-0.105-0.035-0.153-0.039-0.201-0.039c-0.053,0-0.079,0.009-0.105,0.052h-0.057v-0.687h0.07
				c0.092,0.424,0.254,0.617,0.556,0.617c0.223,0,0.363-0.144,0.363-0.324c0-0.136-0.087-0.249-0.232-0.328l-0.236-0.131
				c-0.363-0.201-0.525-0.411-0.525-0.634c0-0.346,0.245-0.538,0.604-0.538c0.105,0,0.201,0.004,0.293,0.048
				c0.048,0.022,0.092,0.035,0.123,0.035c0.017,0,0.035-0.004,0.07-0.044h0.048l0.022,0.595h-0.066
				c-0.101-0.394-0.232-0.538-0.495-0.538c-0.188,0-0.328,0.092-0.328,0.297c0,0.096,0.066,0.223,0.188,0.298L34.889,17.475z"/>
		</g>
	</g>
</g>
</svg>
