<?xml version="1.0" encoding="utf-8"?>
<!-- Generator: Adobe Illustrator 22.1.0, SVG Export Plug-In . SVG Version: 6.00 Build 0)  -->
<svg version="1.1" id="svg3079" xmlns:svg="http://www.w3.org/2000/svg"
	 xmlns="http://www.w3.org/2000/svg" xmlns:xlink="http://www.w3.org/1999/xlink" x="0px" y="0px" width="99.247px" height="23px"
	 viewBox="0 0 99.247 23" style="enable-background:new 0 0 99.247 23;" xml:space="preserve">
<style type="text/css">
	.st0{fill:#CC0000;}
	.st1{fill:#FFFFFF;}
</style>
<g>
	<path id="path3059" class="st0" d="M72.579,18.834h-3.822V4.116h3.822V18.834z M63.531,4.116l-2.46,9.864l-2.879-9.864h-3.695
		l-2.877,9.864l-2.466-9.864h-3.735l4.064,14.718h3.945L56.342,8.74l2.914,10.095H63.2l4.076-14.718H63.531z M45.1,14.673
		c0-2.821-1.496-3.767-4.771-4.835c-1.543-0.503-2.983-0.89-2.983-2.089c0-1.053,1.07-1.402,1.87-1.402
		c0.679,0,1.953,0.144,2.056,1.705h3.614c-0.063-2.98-2.487-4.278-5.605-4.278c-1.934,0-3.531,0.548-4.538,1.538
		c-0.702,0.692-1.13,1.707-1.13,2.763c0,2.74,1.831,3.838,3.899,4.467c2.324,0.71,3.861,1.133,3.861,2.412
		c0,0.855-0.677,1.706-2.014,1.706c-1.699,0-2.317-1.015-2.357-2.011h-3.656c0,3.392,2.859,4.631,6.014,4.631
		C43.387,19.281,45.1,16.988,45.1,14.673 M86.098,14.673c0-3.246-2.362-4.103-5.216-4.956c-1.376-0.406-2.612-0.768-2.612-1.968
		c0-1.053,1.07-1.402,1.87-1.402c0.68,0,1.95,0.144,2.052,1.705h3.617c-0.062-2.98-2.483-4.278-5.609-4.278
		c-1.93,0-3.534,0.548-4.535,1.538c-0.698,0.692-1.129,1.707-1.129,2.763c0,2.74,1.826,3.838,3.902,4.467
		c2.322,0.71,3.861,1.133,3.861,2.412c0,0.855-0.676,1.706-2.012,1.706c-1.706,0-2.324-1.015-2.361-2.011h-3.658
		c0,3.392,2.856,4.631,6.018,4.631C84.309,19.281,86.098,16.988,86.098,14.673 M99.247,14.673c0-3.246-2.372-4.103-5.224-4.956
		c-1.38-0.406-2.607-0.768-2.607-1.968c0-1.053,1.064-1.402,1.865-1.402c0.676,0,1.951,0.144,2.055,1.705h3.624
		c-0.063-2.98-2.496-4.278-5.612-4.278c-1.932,0-3.535,0.548-4.543,1.538c-0.697,0.692-1.126,1.707-1.126,2.763
		c0,2.74,1.827,3.838,3.897,4.467c2.324,0.71,3.862,1.133,3.862,2.412c0,0.855-0.676,1.706-2.012,1.706
		c-1.703,0-2.319-1.015-2.36-2.011h-3.659c0,3.392,2.855,4.631,6.019,4.631C97.459,19.281,99.247,16.988,99.247,14.673"/>
	<polygon id="polygon3061" class="st0" points="18.447,0 30.837,0 25.17,23 0,23 	"/>
	<polygon id="polygon3063" class="st1" points="21.319,13.621 26.27,13.621 26.27,9.378 21.319,9.378 21.319,4.425 17.073,4.425 
		17.073,9.378 12.121,9.378 12.121,13.621 17.071,13.621 17.071,18.575 21.315,18.575 21.315,13.621 	"/>
</g>
</svg>
