<?xml version="1.0" encoding="utf-8"?>
<!-- Generator: Adobe Illustrator 22.1.0, SVG Export Plug-In . SVG Version: 6.00 Build 0)  -->
<svg version="1.1" id="Слой_1" xmlns="http://www.w3.org/2000/svg" xmlns:xlink="http://www.w3.org/1999/xlink" x="0px" y="0px"
	 width="40px" height="28.95px" viewBox="0 0 40 28.95" style="enable-background:new 0 0 40 28.95;" xml:space="preserve">
<style type="text/css">
	.st0{fill-rule:evenodd;clip-rule:evenodd;}
</style>
<g>
	<path class="st0" d="M24.273,0.707L24.273,0.707c2.553,0.37,5.066,1.077,7.396,2.194c2.164,1.039,4.188,2.441,5.75,4.278
		c1.572,1.836,2.622,4.199,2.58,6.644c0.02,2.502-1.094,4.904-2.734,6.753c-1.521,1.729-3.451,3.06-5.513,4.064
		c-2.875,1.391-6.026,2.165-9.201,2.442c0.072-0.161,0.159-0.313,0.24-0.469c2.673-0.257,5.322-0.874,7.795-1.931
		c2.176-0.932,4.231-2.21,5.886-3.915c1.683-1.722,2.918-3.977,3.067-6.412c0.186-2.475-0.811-4.919-2.392-6.79
		c-1.475-1.767-3.389-3.124-5.442-4.141c-2.359-1.168-4.921-1.894-7.521-2.271C24.214,1.003,24.246,0.856,24.273,0.707L24.273,0.707
		z M29.902,5.68L29.902,5.68C29.952,6.237,30.5,6.587,31,6.705c0.363,0.112,0.801-0.069,0.959-0.415
		c-0.167-0.074-0.326-0.167-0.494-0.239c-0.273,0.449-0.992,0.098-0.952-0.371c0.026-0.298,0.175-0.604,0.421-0.782
		c0.358-0.243,0.949,0.105,0.811,0.55c0.176,0.072,0.337,0.181,0.521,0.23c0.066-0.241,0.067-0.516-0.086-0.725
		c-0.258-0.366-0.697-0.592-1.14-0.624C30.349,4.314,29.887,5.052,29.902,5.68L29.902,5.68z M33.489,5.641L33.489,5.641
		c-0.42,0.589-0.829,1.185-1.242,1.779c0.154,0.122,0.32,0.227,0.481,0.338c0.403-0.607,0.834-1.197,1.229-1.808
		C33.799,5.851,33.648,5.741,33.489,5.641L33.489,5.641z M34.337,7.28L34.337,7.28c-0.151,0.172-0.133,0.432-0.008,0.613
		c0.174,0.267,0.415,0.483,0.662,0.681c-0.216,0.206-0.426,0.418-0.646,0.621c0.117,0.151,0.269,0.271,0.394,0.414
		c0.53-0.497,1.034-1.023,1.559-1.525c-0.116-0.144-0.253-0.27-0.373-0.411c-0.224,0.188-0.421,0.406-0.637,0.604
		c-0.193-0.157-0.441-0.331-0.476-0.594c0.077-0.263,0.364-0.386,0.521-0.599c-0.135-0.136-0.268-0.273-0.407-0.405
		C34.73,6.879,34.525,7.071,34.337,7.28L34.337,7.28z M37.231,12.888c-0.427,0.117-0.742,0.565-0.679,1.008
		c0.05,0.484,0.521,0.889,1.011,0.829c0.492-0.043,0.896-0.518,0.847-1.012C38.377,13.154,37.768,12.725,37.231,12.888
		L37.231,12.888z M34.589,18.312L34.589,18.312c0.159,0.154,0.317,0.311,0.488,0.453c-0.169,0.173-0.318,0.365-0.492,0.533
		c-0.151-0.153-0.3-0.306-0.455-0.455c-0.111,0.107-0.22,0.216-0.326,0.327c0.434,0.402,0.855,0.817,1.291,1.217
		c0.098-0.116,0.206-0.224,0.308-0.338c-0.183-0.173-0.36-0.355-0.558-0.512c0.159-0.177,0.325-0.348,0.491-0.519
		c0.179,0.17,0.355,0.342,0.533,0.512c0.112-0.109,0.224-0.22,0.317-0.346c-0.389-0.361-0.773-0.728-1.158-1.093
		C34.862,17.881,34.726,18.226,34.589,18.312L34.589,18.312z M32.707,20.017L32.707,20.017c-0.42,0.452-0.083,1.174,0.395,1.43
		c0.291,0.173,0.647,0.06,0.905-0.125c0.388-0.261,0.598-0.728,0.358-1.118c-0.119,0.095-0.235,0.198-0.375,0.263
		c0.149,0.278-0.083,0.625-0.391,0.621c-0.342,0.001-0.558-0.328-0.624-0.629c-0.074-0.338,0.421-0.669,0.674-0.392
		c0.124-0.093,0.241-0.194,0.36-0.292C33.635,19.362,32.993,19.634,32.707,20.017L32.707,20.017z M31.581,20.763L31.581,20.763
		c0.291,0.515,0.604,1.019,0.924,1.517c0.125-0.084,0.251-0.167,0.379-0.247c-0.303-0.504-0.616-1.002-0.915-1.508
		C31.829,20.587,31.711,20.685,31.581,20.763L31.581,20.763z M30.18,21.599L30.18,21.599c-0.198,0.276,0.03,0.72,0.368,0.72
		c0.295,0.002,0.569-0.157,0.866-0.143c0.12,0.012,0.177,0.172,0.095,0.26c-0.172,0.173-0.507,0.319-0.685,0.074
		c-0.13,0.076-0.262,0.148-0.394,0.222c0.109,0.259,0.426,0.351,0.683,0.292c0.314-0.077,0.62-0.243,0.806-0.515
		c0.164-0.249,0.057-0.643-0.238-0.737c-0.335-0.106-0.652,0.136-0.984,0.133c-0.104,0.005-0.193-0.123-0.117-0.208
		c0.129-0.164,0.393-0.308,0.578-0.142c0.129-0.061,0.253-0.13,0.378-0.198c-0.09-0.164-0.276-0.262-0.462-0.249
		C30.725,21.122,30.382,21.313,30.18,21.599L30.18,21.599z M14.988,2.415c0.096,0.723,0.19,1.447,0.295,2.169
		c0.187-0.025,0.376-0.04,0.562-0.071c-0.024-0.249-0.071-0.496-0.08-0.746c0.37-0.063,0.78-0.044,1.097-0.277
		c0.3-0.212,0.314-0.662,0.135-0.956c-0.141-0.218-0.419-0.279-0.662-0.271C15.883,2.287,15.437,2.366,14.988,2.415L14.988,2.415z
		 M15.621,2.784L15.621,2.784c0.213-0.032,0.425-0.089,0.642-0.083c0.255,0.01,0.32,0.41,0.101,0.52
		c-0.205,0.11-0.448,0.084-0.672,0.12C15.662,3.156,15.646,2.969,15.621,2.784L15.621,2.784z M12.805,2.83L12.805,2.83
		c-0.434,0.09-0.87,0.374-0.978,0.827c-0.107,0.499,0.086,1.091,0.536,1.363c0.485,0.273,1.094,0.089,1.522-0.209
		c0.52-0.389,0.447-1.191,0.073-1.654C13.686,2.818,13.209,2.739,12.805,2.83L12.805,2.83z M12.84,3.28L12.84,3.28
		c0.202-0.065,0.451-0.034,0.589,0.141c0.178,0.228,0.25,0.536,0.216,0.821c-0.072,0.486-0.848,0.634-1.083,0.194
		C12.308,4.071,12.301,3.377,12.84,3.28L12.84,3.28z M8.876,4.264L8.876,4.264c0.049,0.132,0.099,0.265,0.162,0.391
		c0.219-0.096,0.442-0.181,0.664-0.27c0.232,0.536,0.424,1.091,0.668,1.62c0.166-0.079,0.346-0.125,0.507-0.213
		c-0.218-0.546-0.439-1.091-0.647-1.641c0.225-0.085,0.449-0.175,0.67-0.269c-0.052-0.127-0.106-0.253-0.153-0.381
		C10.114,3.731,9.497,4.005,8.876,4.264L8.876,4.264z M7.491,5.018L7.491,5.018c-0.542,0.11-1.082,0.505-1.174,1.079
		C6.273,6.638,6.606,7.212,7.13,7.389c0.359,0.112,0.748-0.009,1.047-0.216c0.316-0.19,0.582-0.511,0.601-0.892
		C8.807,5.609,8.207,4.878,7.491,5.018L7.491,5.018z M7.375,5.505L7.375,5.505c0.429-0.091,0.734,0.358,0.827,0.72
		c0.122,0.405-0.326,0.779-0.708,0.708C7.142,6.823,6.921,6.445,6.87,6.096C6.844,5.799,7.117,5.582,7.375,5.505L7.375,5.505z
		 M4.333,7.338L4.333,7.338c0.231,0.48,0.467,0.956,0.711,1.43c-0.49-0.21-0.994-0.385-1.491-0.578
		C3.365,8.387,3.185,8.593,3.009,8.801c0.542,0.48,1.077,0.97,1.626,1.442c0.126-0.136,0.253-0.27,0.375-0.409
		C4.636,9.486,4.255,9.145,3.887,8.789C4.394,8.983,4.9,9.18,5.411,9.364c0.092-0.093,0.193-0.178,0.273-0.283
		C5.443,8.596,5.197,8.112,4.97,7.619c0.382,0.322,0.743,0.668,1.116,1c0.123-0.145,0.297-0.268,0.374-0.44
		C5.928,7.696,5.388,7.218,4.846,6.746C4.665,6.934,4.499,7.136,4.333,7.338L4.333,7.338z M2.325,12.898L2.325,12.898
		c-0.39,0.12-0.669,0.521-0.644,0.928c0.012,0.391,0.289,0.762,0.669,0.867c0.357,0.111,0.771-0.033,0.987-0.336
		c0.255-0.333,0.252-0.838-0.019-1.16C3.09,12.906,2.677,12.782,2.325,12.898L2.325,12.898z M2.31,16.759L2.31,16.759
		c0.075,0.134,0.148,0.269,0.224,0.402c0.367-0.201,0.729-0.411,1.104-0.596c-0.283,0.35-0.589,0.682-0.878,1.028
		c0.051,0.1,0.103,0.199,0.162,0.295c0.442-0.063,0.885-0.124,1.328-0.18c-0.356,0.224-0.743,0.396-1.108,0.606
		c0.074,0.136,0.149,0.273,0.227,0.407c0.517-0.277,1.028-0.566,1.55-0.834c-0.102-0.189-0.212-0.374-0.312-0.564
		c-0.427,0.045-0.853,0.1-1.279,0.156c0.279-0.331,0.562-0.659,0.848-0.984c-0.095-0.195-0.204-0.385-0.317-0.571
		C3.343,16.201,2.823,16.475,2.31,16.759L2.31,16.759z M4.815,18.251L4.815,18.251c-0.531,0.112-0.957,0.732-0.725,1.26
		c0.145,0.3,0.391,0.568,0.703,0.694c0.605,0.19,1.3-0.423,1.197-1.045C5.865,18.654,5.368,18.164,4.815,18.251L4.815,18.251z
		 M4.927,18.705L4.927,18.705c0.302-0.135,0.662,0.159,0.657,0.47c-0.032,0.261-0.248,0.459-0.469,0.578
		c-0.34,0.182-0.791-0.218-0.654-0.576C4.546,18.968,4.724,18.8,4.927,18.705L4.927,18.705z M6.285,19.283L6.285,19.283
		c-0.065,0.09-0.132,0.18-0.197,0.271c0.153,0.126,0.314,0.242,0.468,0.367c-0.271,0.386-0.585,0.74-0.873,1.114
		c0.108,0.114,0.236,0.206,0.361,0.3c0.301-0.366,0.587-0.745,0.873-1.123c0.163,0.112,0.314,0.242,0.476,0.357
		c0.064-0.092,0.131-0.182,0.191-0.276C7.144,19.965,6.724,19.611,6.285,19.283L6.285,19.283z M7.638,20.581L7.638,20.581
		c-0.569,0.171-0.913,0.98-0.504,1.461c0.279,0.306,0.705,0.552,1.131,0.444c0.543-0.166,0.875-0.887,0.569-1.387
		C8.563,20.739,8.097,20.467,7.638,20.581L7.638,20.581z M7.867,20.969c0.3-0.095,0.674,0.182,0.618,0.507
		c-0.046,0.277-0.229,0.569-0.517,0.636c-0.284,0.019-0.619-0.236-0.547-0.546C7.479,21.322,7.627,21.07,7.867,20.969L7.867,20.969z
		 M9.366,21.334L9.366,21.334c-0.235,0.536-0.477,1.07-0.715,1.604c0.139,0.059,0.28,0.114,0.417,0.178
		c0.108-0.186,0.185-0.388,0.275-0.583c0.185,0.092,0.463,0.123,0.53,0.35c-0.009,0.187-0.144,0.349-0.131,0.542
		c0.146,0.05,0.286,0.115,0.424,0.184c0.005-0.296,0.323-0.627,0.028-0.882c0.334,0.069,0.607-0.295,0.517-0.602
		c-0.063-0.186-0.235-0.309-0.408-0.384C9.99,21.606,9.682,21.462,9.366,21.334L9.366,21.334z M9.633,21.839
		c0.181,0.061,0.368,0.123,0.525,0.236c0.163,0.109,0.029,0.395-0.155,0.373c-0.195-0.022-0.365-0.134-0.538-0.219
		C9.521,22.1,9.582,21.971,9.633,21.839L9.633,21.839z M17.708,26.996c-0.146,0.078-0.193,0.261-0.23,0.411
		c-0.03,0.164-0.113,0.331-0.065,0.5c0.028,0.123,0.207,0.144,0.284,0.055c0.17-0.181,0.174-0.447,0.22-0.678
		C17.941,27.156,17.882,26.926,17.708,26.996L17.708,26.996z M17.669,26.657L17.669,26.657c0.201-0.024,0.452,0,0.57,0.19
		c0.181,0.273,0.129,0.622,0.053,0.921c-0.094,0.357-0.419,0.611-0.831,0.59c-0.314-0.026-0.571-0.238-0.53-0.548
		C16.975,27.355,17.171,26.774,17.669,26.657L17.669,26.657z M16.31,26.879c-0.193,0.012-0.377,0.273-0.228,0.436
		c0.195,0.139,0.474-0.088,0.421-0.308C16.488,26.918,16.393,26.871,16.31,26.879L16.31,26.879z M15.555,27.28L15.555,27.28
		c0.011-0.579,0.742-0.944,1.216-0.62c0.281,0.206,0.176,0.621-0.023,0.848c-0.234,0.258-0.531,0.451-0.803,0.667
		c-0.187-0.027-0.375-0.041-0.562-0.07c0.215-0.159,0.437-0.308,0.644-0.477C15.815,27.641,15.548,27.53,15.555,27.28L15.555,27.28z
		 M14.726,26.347L14.726,26.347c0.216,0.033,0.432,0.061,0.647,0.098c-0.215,0.529-0.48,1.035-0.759,1.532
		c-0.156,0.021-0.324-0.052-0.485-0.063c0.215-0.397,0.471-0.774,0.662-1.185c-0.077-0.011-0.153-0.021-0.23-0.031
		C14.6,26.574,14.668,26.463,14.726,26.347L14.726,26.347z M18.631,26.744c0.43,0.006,0.859,0.02,1.289,0.018
		c-0.251,0.559-0.535,1.104-0.867,1.62c-0.192-0.011-0.383-0.009-0.575-0.02c0.275-0.401,0.555-0.801,0.785-1.231
		c-0.221-0.009-0.442-0.016-0.663-0.018C18.59,26.989,18.614,26.867,18.631,26.744L18.631,26.744z M12.038,1.498L12.038,1.498
		c2.788-0.812,5.703-1.155,8.604-1.103c-0.128,0.133-0.225,0.29-0.326,0.443c-2.88-0.021-5.772,0.349-8.528,1.199
		c-2.371,0.731-4.653,1.812-6.624,3.33c-1.681,1.297-3.143,2.944-3.986,4.91c-0.587,1.36-0.84,2.866-0.693,4.342
		c0.134,1.415,0.631,2.784,1.37,3.993C3,20.486,4.671,21.99,6.516,23.156c1.619,1.022,3.386,1.798,5.21,2.372
		c-0.002,0.156-0.013,0.313-0.025,0.469c-2.406-0.748-4.726-1.835-6.738-3.364c-1.656-1.262-3.108-2.846-4.012-4.736
		c-0.655-1.356-0.997-2.867-0.948-4.375c0.034-1.444,0.432-2.87,1.1-4.148c0.968-1.862,2.462-3.408,4.148-4.638
		C7.292,3.254,9.624,2.203,12.038,1.498L12.038,1.498z M9.452,3.361L9.452,3.361c3.364-1.424,7.029-2.113,10.679-2.089
		c-0.536,1.143-1.08,2.282-1.616,3.425c-0.023,0.057-0.099,0.051-0.149,0.061c-3.255,0.177-6.517,0.955-9.384,2.539
		c-1.6,0.917-3.104,2.118-4.027,3.742c-0.579,0.991-0.857,2.165-0.758,3.311c0.139,1.588,0.984,3.048,2.123,4.134
		c1.497,1.51,3.428,2.505,5.407,3.231c0.009,1.118,0.014,2.236,0.021,3.354c-1.791-0.564-3.521-1.336-5.109-2.342
		c-1.814-1.163-3.436-2.684-4.523-4.559c-0.749-1.292-1.18-2.774-1.193-4.27c-0.023-1.317,0.278-2.635,0.847-3.822
		c0.696-1.448,1.73-2.719,2.937-3.772C6.106,5.06,7.752,4.127,9.452,3.361L9.452,3.361z M24.007,1.569L24.007,1.569
		c2.982,0.403,5.919,1.3,8.54,2.79c1.797,0.995,3.415,2.337,4.652,3.982c0.777,1.038,1.37,2.222,1.673,3.486
		c0.305,1.259,0.31,2.588,0.018,3.85c-0.28,1.239-0.854,2.399-1.597,3.424c-1.532,2.144-3.733,3.726-6.102,4.828
		c-2.56,1.208-5.337,1.928-8.147,2.224c0.596-1.167,1.174-2.347,1.78-3.508c2.489-0.487,4.955-1.304,7.083-2.711
		c1.163-0.753,2.206-1.716,2.96-2.885c0.759-1.176,1.124-2.627,0.893-4.018c-0.286-1.787-1.436-3.321-2.816-4.438
		c-0.593-0.475-1.232-0.889-1.879-1.285c-2.038-1.135-4.296-1.834-6.587-2.234C24.278,3.913,24.137,2.741,24.007,1.569L24.007,1.569
		z M20.872,0.791c0.284-0.556,0.959-0.729,1.533-0.782c0.514-0.029,1.03,0.012,1.537,0.104c0.028,0.276,0.067,0.551,0.094,0.827
		c-0.451-0.153-0.927-0.261-1.406-0.234c-0.48,0.024-1.019,0.231-1.204,0.714c-1.257,2.479-2.403,5.012-3.573,7.533
		c0.588,0.006,1.175-0.007,1.763,0.007c0.587,0.026,1.224,0.288,1.491,0.844c0.259,0.527,0.106,1.153-0.192,1.629
		c-1.149,2.269-2.29,4.543-3.437,6.814c-0.052,0.087-0.026,0.192-0.026,0.287c0.046,1.207,0.091,2.415,0.138,3.622
		c0.006,0.056-0.006,0.113-0.033,0.163c-0.559,1.167-1.098,2.344-1.666,3.506c-0.29-0.056-0.584-0.096-0.872-0.158
		c0.584-1.196,1.17-2.39,1.745-3.59c-0.01-0.742-0.047-1.484-0.077-2.226c-0.018,0.023-0.036,0.046-0.051,0.071
		c-1.471,2.935-2.937,5.872-4.414,8.804c-0.004-0.022-0.012-0.066-0.015-0.087c-0.044-5.793-0.094-11.587-0.138-17.38
		c-0.01-0.57-0.032-1.2,0.32-1.685c0.359-0.491,1.001-0.638,1.573-0.693c0.992-0.006,1.984,0,2.977-0.003
		c0.057,0.011,0.069-0.057,0.091-0.094c0.972-2.134,1.95-4.265,2.984-6.369C20.288,1.869,20.562,1.32,20.872,0.791L20.872,0.791z
		 M22.457,2.669L22.457,2.669c0.267-0.044,0.534-0.087,0.803-0.12c0.319,2.124,0.643,4.248,0.961,6.372
		c1.406,0.012,2.812,0.01,4.217,0.021c0.53,0.04,1.137,0.231,1.381,0.748c0.234,0.537,0.067,1.148-0.161,1.658
		c-2.91,5.774-5.82,11.55-8.727,17.326c-0.048,0.093-0.087,0.192-0.151,0.277c-0.006-2.713,0.019-5.426,0.009-8.139
		c-0.305,0.556-0.565,1.138-0.85,1.705c-0.049,0.115-0.14,0.221-0.127,0.353c0.008,1.088,0.012,2.176,0.027,3.264
		c-0.299,0.005-0.598-0.014-0.897-0.021c0.012-1.119,0.037-2.236,0.048-3.355c0.003-0.074-0.005-0.153,0.032-0.221
		c1.901-3.867,3.794-7.738,5.697-11.603c0.207-0.287,0.265-0.73-0.018-0.988c-0.318-0.302-0.783-0.211-1.178-0.206
		C23.163,7.382,22.813,5.025,22.457,2.669L22.457,2.669z M24.477,5.579L24.477,5.579c1.874,0.309,3.707,0.875,5.422,1.693
		c1.139,0.579,2.246,1.255,3.165,2.151c0.752,0.726,1.393,1.59,1.759,2.576c0.317,0.841,0.409,1.768,0.251,2.654
		c-0.282,1.63-1.349,3.009-2.602,4.037c-2.115,1.667-4.689,2.671-7.317,3.179c0.064-0.127,0.131-0.253,0.201-0.377
		c0.841-0.197,1.694-0.392,2.49-0.728c-0.263-0.195-0.527-0.388-0.808-0.557c-0.433,0.286-0.862,0.585-1.336,0.798
		c0.069-0.137,0.095-0.322,0.253-0.388c0.303-0.162,0.585-0.358,0.875-0.541c-0.195-0.134-0.412-0.233-0.62-0.345
		c0.028-0.064,0.054-0.129,0.08-0.194c0.273,0.071,0.492,0.265,0.748,0.378c1.094-0.811,2.026-1.86,2.629-3.086
		c-0.541-0.218-1.087-0.423-1.638-0.616c0.029-0.065,0.057-0.13,0.085-0.196c0.554,0.183,1.101,0.386,1.641,0.607
		c0.398-0.846,0.606-1.776,0.633-2.709c-0.38-0.003-0.76,0.003-1.14-0.003c0.038-0.083,0.084-0.162,0.13-0.241
		c0.337-0.002,0.674,0.002,1.011-0.002c-0.004-0.53-0.059-1.062-0.183-1.578c-0.047-0.136,0.064-0.257,0.094-0.385
		c0.031,0.019,0.049,0.048,0.056,0.084c0.176,0.61,0.256,1.245,0.273,1.879c1.387,0.006,2.774,0,4.162,0.003
		c-0.012-1.549-0.876-2.959-1.976-3.994c-0.638,0.572-1.456,0.887-2.267,1.124c0.005-0.08,0.009-0.16,0.018-0.24
		c0.746-0.206,1.484-0.517,2.069-1.037c-0.186-0.235-0.44-0.402-0.674-0.586c-1.112-0.841-2.357-1.493-3.668-1.966
		c-0.251,0.22-0.535,0.395-0.806,0.588c0.363,0.3,0.739,0.601,1.033,0.971c-0.091,0.008-0.182,0.01-0.272,0.015
		c-0.309-0.3-0.627-0.596-0.973-0.851c-0.737,0.464-1.535,0.834-2.372,1.079c-0.022-0.074-0.043-0.148-0.062-0.222
		c0.782-0.252,1.56-0.55,2.242-1.015c-0.766-0.577-1.619-1.036-2.516-1.377C24.551,5.963,24.489,5.775,24.477,5.579L24.477,5.579z
		 M9.285,7.712L9.285,7.712c2.725-1.53,5.844-2.231,8.94-2.458c-0.052,0.114-0.104,0.228-0.16,0.34
		c-0.349,0.043-0.701,0.067-1.048,0.12c-1.439,0.351-2.824,0.969-4.002,1.872c0.651,0.359,1.346,0.626,2.037,0.893
		c-0.265-0.021-0.554,0.062-0.796-0.079c-0.497-0.17-0.958-0.428-1.426-0.664c-1.075,0.844-1.97,1.94-2.517,3.197
		c0.425,0.202,0.886,0.316,1.329,0.469c-0.002,0.077-0.009,0.155-0.008,0.233c-0.476-0.139-0.943-0.303-1.41-0.47
		c-0.32,0.793-0.499,1.647-0.494,2.503c0.643,0.002,1.286-0.003,1.928,0.003c0.001,0.08,0.002,0.16,0.002,0.241
		c-0.64,0-1.281,0.005-1.921-0.002c-0.006,0.9,0.224,1.794,0.573,2.621c0.445-0.16,0.885-0.34,1.347-0.447
		c0.004,0.083,0,0.166-0.004,0.248c-0.426,0.101-0.839,0.25-1.25,0.4c0.322,0.664,0.734,1.285,1.215,1.844
		c0.115,0.105,0.048,0.272,0.066,0.408c-0.603-0.639-1.11-1.368-1.489-2.161c-0.938,0.365-1.834,0.84-2.689,1.366
		c1.207,1.085,2.677,1.837,4.178,2.429c-0.001,0.117,0,0.234,0,0.352c-2.106-0.793-4.175-1.94-5.574-3.748
		c-0.833-1.077-1.333-2.444-1.221-3.814c0.081-1.142,0.574-2.224,1.277-3.117C7.008,9.221,8.108,8.381,9.285,7.712L9.285,7.712z
		 M11.958,6.861L11.958,6.861c0.281,0.202,0.552,0.417,0.841,0.607c0.814-0.65,1.753-1.113,2.701-1.531
		C14.295,6.14,13.108,6.446,11.958,6.861L11.958,6.861z M7.393,9.48c0.864,0.523,1.753,1.024,2.706,1.364
		c0.535-1.276,1.451-2.361,2.508-3.241c-0.313-0.203-0.619-0.416-0.906-0.656C10.152,7.57,8.639,8.351,7.393,9.48L7.393,9.48z
		 M5.211,13.669L5.211,13.669c1.432,0.001,2.864,0.003,4.296-0.001c0.002-0.886,0.179-1.766,0.493-2.593
		c-0.962-0.407-1.884-0.898-2.786-1.422C6.114,10.703,5.252,12.114,5.211,13.669L5.211,13.669z M5.215,13.913L5.215,13.913
		c0.03,1.606,0.96,3.049,2.111,4.108c0.893-0.534,1.816-1.027,2.788-1.402c-0.385-0.848-0.582-1.775-0.61-2.705
		C8.075,13.913,6.645,13.915,5.215,13.913L5.215,13.913z M29.875,16.915L29.875,16.915c-0.597,1.246-1.546,2.296-2.635,3.134
		c0.309,0.19,0.585,0.429,0.886,0.628c1.558-0.574,3.062-1.35,4.326-2.438C31.64,17.711,30.76,17.303,29.875,16.915L29.875,16.915z
		 M30.605,14.05L30.605,14.05c-0.037,0.918-0.264,1.82-0.622,2.665c0.908,0.416,1.815,0.842,2.663,1.372
		c1.167-1.079,2.132-2.532,2.149-4.172c-1.376-0.001-2.753,0-4.13,0C30.585,13.902,30.614,14.004,30.605,14.05L30.605,14.05z
		 M24.766,5.98L24.766,5.98c0.887,0.396,1.757,0.841,2.541,1.422c0.256-0.168,0.517-0.337,0.737-0.549
		C26.97,6.495,25.881,6.172,24.766,5.98L24.766,5.98z M25.464,9.727L25.464,9.727c0.188,0.134,0.294,0.36,0.283,0.59
		c-0.014,0.45-0.243,0.851-0.435,1.247c-1.23,2.515-2.47,5.025-3.696,7.542c-0.01,0.68-0.007,1.363,0,2.044
		c1.618-3.178,3.228-6.36,4.838-9.542c0.288-0.005,0.576-0.002,0.864-0.001c-1.896,3.77-3.805,7.535-5.699,11.306
		c-0.017,0.847-0.009,1.698-0.004,2.546c2.329-4.582,4.633-9.177,6.954-13.763c0.203-0.427,0.471-0.856,0.483-1.341
		c0.009-0.366-0.368-0.578-0.689-0.604C27.398,9.738,26.431,9.741,25.464,9.727L25.464,9.727z M22.495,1.175L22.495,1.175
		c0.293-0.087,0.631,0.1,0.706,0.396c0.107,0.326-0.151,0.707-0.494,0.727c-0.272,0.036-0.546-0.156-0.612-0.421
		C22.004,1.584,22.2,1.25,22.495,1.175L22.495,1.175z M16.987,25.98c0.344-0.724,0.712-1.442,1.08-2.156
		c0.009,0.752,0.015,1.504,0.022,2.256C17.719,26.081,17.353,26.032,16.987,25.98L16.987,25.98z M13.117,9.963
		c-0.212,0.224-0.232,0.552-0.242,0.844c-0.018,2.175-0.051,4.35-0.069,6.525c1.014-1.902,2.02-3.809,3.024-5.717
		c0.321-0.01,0.643-0.002,0.965-0.004c-0.084,0.217-0.213,0.413-0.316,0.621c-1.172,2.197-2.342,4.394-3.514,6.591
		c-0.043,0.09-0.115,0.174-0.112,0.279c0.005,0.78-0.015,1.56,0.002,2.34c1.698-3.264,3.365-6.546,5.059-9.812
		c0.297-0.028,0.598-0.007,0.896-0.019c-1.953,3.818-3.912,7.634-5.866,11.451c-0.031,0.057-0.021,0.123-0.022,0.186
		c0.015,0.818,0,1.637,0.002,2.456c2.455-4.922,4.888-9.855,7.339-14.78c0.129-0.27,0.214-0.611,0.052-0.885
		c-0.16-0.258-0.491-0.329-0.774-0.325c-1.86,0.006-3.72,0.002-5.579,0.005C13.669,9.728,13.337,9.745,13.117,9.963L13.117,9.963z"
		/>
</g>
</svg>
