<?xml version="1.0" encoding="UTF-8" standalone="no"?>
<svg
   xmlns:dc="http://purl.org/dc/elements/1.1/"
   xmlns:cc="http://creativecommons.org/ns#"
   xmlns:rdf="http://www.w3.org/1999/02/22-rdf-syntax-ns#"
   xmlns:svg="http://www.w3.org/2000/svg"
   xmlns="http://www.w3.org/2000/svg"
   xmlns:sodipodi="http://sodipodi.sourceforge.net/DTD/sodipodi-0.dtd"
   xmlns:inkscape="http://www.inkscape.org/namespaces/inkscape"
   width="300"
   height="53"
   viewBox="0 0 1066 185"
   version="1.0"
   id="svg2"
   sodipodi:version="0.32"
   inkscape:version="0.46"
   sodipodi:docname="Air_Madagascar_Logo.svg"
   inkscape:output_extension="org.inkscape.output.svg.inkscape">
  <metadata
     id="metadata40">
    <rdf:RDF>
      <cc:Work
         rdf:about="">
        <dc:format>image/svg+xml</dc:format>
        <dc:type
           rdf:resource="http://purl.org/dc/dcmitype/StillImage" />
      </cc:Work>
    </rdf:RDF>
  </metadata>
  <defs
     id="defs38">
    <inkscape:perspective
       sodipodi:type="inkscape:persp3d"
       inkscape:vp_x="0 : 115.625 : 1"
       inkscape:vp_y="0 : 1000 : 0"
       inkscape:vp_z="1332.5 : 115.625 : 1"
       inkscape:persp3d-origin="666.25 : 77.083333 : 1"
       id="perspective42" />
  </defs>
  <sodipodi:namedview
     inkscape:window-height="669"
     inkscape:window-width="640"
     inkscape:pageshadow="2"
     inkscape:pageopacity="0.0"
     guidetolerance="10.0"
     gridtolerance="10.0"
     objecttolerance="10.0"
     borderopacity="1.0"
     bordercolor="#666666"
     pagecolor="#ffffff"
     id="base"
     showgrid="false"
     inkscape:zoom="0.40825516"
     inkscape:cx="666.25"
     inkscape:cy="115.625"
     inkscape:window-x="23"
     inkscape:window-y="51"
     inkscape:current-layer="svg2" />
  <g
     id="#ffffffff" />
  <g
     id="#7e1d2eff">
    <path
       d="M 118.77,1 C 126.43,-0.25 137.05,1.09 139.76,9.7 C 141.26,6.71 143.29,3.75 146.52,2.47 C 151.05,0.19 156.2,0.64 161.08,1.02 C 156.32,5.08 154.35,11.25 152.92,17.13 C 150.39,27.92 149.75,39.02 148.1,49.96 C 147.62,52.34 147.27,54.84 146,56.95 C 144.91,58.41 143.05,58.94 141.53,59.82 C 141.62,71.87 141.53,83.93 141.58,95.99 C 143.12,97.35 144.63,98.73 146.16,100.12 C 150.08,82 154.08,63.88 159.09,46.02 C 161.67,35.73 164.86,25.58 168.86,15.75 C 170.54,11.45 174.29,7.74 179.05,7.28 C 187.52,6.15 195.39,10.64 202.28,15.02 C 199.21,15.74 196,16.47 193.55,18.57 C 190.04,21.53 187.79,25.65 185.79,29.71 C 181.83,38.13 178.01,46.61 174.07,55.04 C 172.47,57.97 171.02,61.46 167.8,62.94 C 164.62,62.9 161.62,61.58 158.52,60.97 C 155.21,74.95 151.76,88.93 149.1,103.05 C 149.23,105.2 150.33,108.38 152.68,108.85 C 167.85,81.96 182.72,54.49 203.12,31.1 C 206.35,27.1 211.72,24.73 216.84,26.05 C 225.46,27.91 231.47,35.05 236.53,41.76 C 230.03,41.18 223.39,43.13 218.46,47.44 C 210.43,54.39 203.47,62.49 195.44,69.43 C 193.29,71.07 190.93,73.1 188.08,73 C 185.4,72.28 183.21,70.47 180.71,69.33 C 179.44,68.36 178.82,70.45 178.2,71.16 C 169.73,84.85 162.14,99.03 154.25,113.05 C 155.4,115.47 156.62,117.86 157.93,120.21 C 174.24,101.81 191.13,83.72 210.67,68.68 C 216.75,63.96 223.18,59.66 229.97,56.04 C 236.86,52.24 246.15,53.75 251.5,59.51 C 255.93,64.51 258.64,70.78 261.05,76.95 C 255.26,74.38 248.65,73.4 242.51,75.3 C 232.18,78.34 223.02,84.29 212.97,88.06 C 210.63,88.82 207.95,89.54 205.61,88.43 C 203.18,86.82 201.3,84.54 199.17,82.58 C 187.21,93.13 176.29,104.76 165.63,116.6 C 163.75,118.77 161.6,120.75 160.08,123.21 C 160.19,126.35 162.18,129.08 163.36,131.92 C 186.46,114.4 210.57,96.8 238.88,88.84 C 246.92,86.8 256.05,84.97 263.68,89.3 C 268.58,91.92 271.26,97.12 272.56,102.32 C 273.79,106.53 274.71,110.83 275.21,115.19 C 265.4,106.93 251.79,107.64 239.89,109.47 C 233.3,110.07 226.27,112.65 219.84,110.05 C 217.7,107.65 216.47,104.6 214.84,101.86 C 196.96,110.96 180.59,122.75 164.9,135.2 C 166.01,138.43 167.27,141.61 168.7,144.72 C 192.74,132.05 218.33,120.14 245.95,118.96 C 255.67,118.91 266.68,119.82 273.93,127.09 C 280.65,134.34 279.45,145.01 278.4,154.03 C 276.16,150.83 273.75,147.58 270.25,145.66 C 260.43,140.05 248.89,139.19 237.88,138.08 C 234.44,137.49 230.61,137.41 227.71,135.24 C 225.6,132.39 225.6,128.6 224.44,125.34 C 205.23,130.07 187.25,138.58 169.95,148 C 170.38,150.57 171.58,153.18 171.04,155.81 C 169.24,158.96 166.43,161.36 164,164.01 C 157.67,170.18 151.08,176.49 142.83,180 C 137.6,181.86 132.77,178.03 128.63,175.34 C 121.71,170.03 115.31,163.98 109.68,157.32 C 107.32,154.62 109.4,151.02 109.87,148.01 C 92.42,138.75 74.44,129.74 55.03,125.5 C 54.02,129.63 54.2,135.96 48.8,136.84 C 37.86,139.28 26.3,138.61 15.72,142.79 C 9.83,144.62 4.77,148.51 1.51,153.74 C -0.38,147.46 0.06,140.74 1.63,134.44 C 3.68,127.2 10.42,122.35 17.47,120.62 C 29.81,117.57 42.75,119.11 54.99,121.92 C 74.83,126.41 93.2,135.45 111.17,144.71 C 112.45,141.55 113.72,138.37 114.93,135.18 C 99.12,122.87 82.88,110.85 64.89,101.89 C 63.27,104.58 62.14,107.63 60.01,109.98 C 56.14,111.88 51.67,111.1 47.56,110.61 C 37.8,109.26 27.83,107.22 17.98,108.99 C 12.99,109.82 8.43,112.23 4.46,115.31 C 5.33,109.32 6.63,103.38 8.75,97.7 C 11.05,91.83 16.82,87.77 22.99,86.94 C 30.45,85.88 37.88,88.02 44.99,90.06 C 71.51,98.6 94.49,115.02 116.24,131.99 C 117.52,129.33 119,126.76 119.9,123.94 C 119.8,122.72 118.76,121.88 118.07,120.95 C 106.2,107.65 93.96,94.64 80.77,82.62 C 77.37,85.29 74.43,90.37 69.36,88.76 C 57.5,85.36 47.29,77.52 35.16,74.84 C 29.64,73.52 23.9,74.73 18.79,76.96 C 20.78,71.3 23.38,65.81 26.94,60.96 C 31.76,54.55 41.12,52.1 48.44,55.41 C 53.38,57.63 57.83,60.74 62.33,63.7 C 84.75,79.59 103.65,99.76 121.86,120.18 C 123.15,117.85 124.37,115.48 125.45,113.05 C 117.11,98.21 109.26,83.06 99.94,68.79 C 96.19,70.42 92.15,74.86 87.93,71.97 C 81.86,68.26 77.4,62.55 72.19,57.79 C 66.25,52.31 61.02,45.34 53,42.8 C 49.83,41.6 46.41,41.73 43.08,41.8 C 48.9,34.52 55.83,25.92 66,25.73 C 72.26,25.42 76.42,30.65 80.01,34.99 C 98.73,57.79 113.02,83.74 127.33,109.42 C 128.6,107.66 130.26,106.01 130.79,103.85 C 128.18,89.48 124.57,75.3 121.32,61.05 C 118.27,61.59 115.32,62.75 112.22,62.93 C 109.22,62.18 107.95,58.95 106.49,56.56 C 101.5,46.44 97.17,36 92.01,25.96 C 89.18,20.42 84.19,15.79 77.8,15.07 C 83.89,10.54 91.31,7 99.04,7.09 C 104.22,7.03 108.78,10.64 110.74,15.29 C 114.74,25.07 117.96,35.16 120.51,45.41 C 125.53,63.48 129.75,81.77 133.59,100.12 C 135.13,98.77 136.85,97.56 138.07,95.89 C 138.4,83.88 138,71.86 138.27,59.85 C 136.43,58.78 134.06,58.03 133.2,55.88 C 132.35,53.88 131.97,51.73 131.59,49.6 C 130.04,38.77 129.33,27.79 126.86,17.11 C 125.48,11.22 123.34,5.19 118.77,1 z"
       id="path6"
       style="opacity:1;fill:#7e1d2e" />
  </g>
  <g
     id="#29812fff">
    <path
       d="M 691.71,79.38 C 696.1,79.2 700.51,79.24 704.92,79.28 C 700.44,102.18 694.75,124.84 690.8,147.84 C 686.72,148.15 682.62,148.12 678.55,147.86 C 678.87,145.27 679.28,142.69 679.77,140.12 C 676.23,144.41 671.51,148.17 665.81,148.78 C 661.41,149.17 656.5,148.9 652.96,145.94 C 648.38,142.54 647.14,136.38 647.36,130.98 C 647.75,121.73 650.82,112.19 657.56,105.6 C 663.09,100.3 671.47,97.6 678.88,100.17 C 682.12,101.25 684.27,104.05 685.95,106.87 C 687.77,97.69 689.91,88.57 691.71,79.38 M 672.47,108.59 C 668.78,109.94 666.14,113.16 664.53,116.64 C 662.2,121.64 661.02,127.24 661.45,132.75 C 661.67,135.66 663.32,138.89 666.32,139.72 C 669.03,140.18 672.14,140.2 674.43,138.44 C 678.87,135.12 681.14,129.72 682.42,124.49 C 683.34,120.11 684,115.2 681.83,111.08 C 679.97,107.9 675.66,107.58 672.47,108.59 z"
       id="path9"
       style="opacity:1;fill:#29812f" />
    <path
       d="M 427,91.2 C 427.48,87.63 428.21,84.11 428.98,80.59 C 433.37,80.59 437.75,80.54 442.14,80.65 C 441.71,84.09 441.04,87.48 440.35,90.87 C 435.92,91.49 431.45,91.23 427,91.2 z"
       id="path11"
       style="opacity:1;fill:#29812f" />
    <path
       d="M 380.52,84.45 C 386.7,84.34 392.88,84.34 399.06,84.38 C 402.74,105.53 406.34,126.69 409.66,147.9 C 404.87,148.13 400.07,148.19 395.29,147.79 C 394.73,142.59 394.01,137.41 393.37,132.22 C 384.41,132.05 375.44,131.97 366.48,132.23 C 363.65,137.47 360.6,142.59 357.72,147.8 C 352.96,148.25 348.18,148.18 343.43,147.83 C 355.5,126.54 368.27,105.64 380.52,84.45 M 382,104.07 C 378.71,110.23 374.61,115.97 371.88,122.42 C 378.56,122.48 385.25,122.41 391.93,122.45 C 391.34,113 389.76,103.61 388.05,94.31 C 385.57,97.26 383.87,100.73 382,104.07 z"
       id="path13"
       style="opacity:1;fill:#29812f" />
    <path
       d="M 514.66,84.46 C 521.67,84.25 528.69,84.4 535.7,84.38 C 537.7,100.32 539.43,116.3 541.68,132.21 C 550.94,116.48 559.21,100.19 568.29,84.36 C 575.21,84.38 582.14,84.33 589.06,84.41 C 585.09,105.65 580.03,126.69 575.78,147.89 C 571.5,148.13 567.2,148.11 562.92,147.83 C 566.27,130.1 570.74,112.58 573.92,94.81 C 563.74,112.19 554.41,130.06 544.46,147.56 C 540.42,148.61 536.16,147.95 532.05,147.86 C 529.47,130.22 527.67,112.47 525.09,94.83 C 520.58,112.33 517.41,130.18 513.54,147.84 C 509.41,148.13 505.26,148.13 501.13,147.82 C 505.65,126.7 510.13,105.58 514.66,84.46 z"
       id="path15"
       style="opacity:1;fill:#29812f" />
    <path
       d="M 468.77,100.77 C 471.87,98.91 475.62,99.09 479.09,99.29 C 478.51,103.15 477.45,106.91 476.55,110.7 C 472.69,111.02 468.43,110.76 465.12,113.09 C 460.96,116.35 458.46,121.31 457.29,126.38 C 455.63,133.5 454.2,140.68 452.72,147.84 C 448.31,148.2 443.87,148.14 439.46,147.87 C 442.47,131.94 446.43,116.2 449.28,100.23 C 453.39,100.17 457.5,100.18 461.61,100.29 C 461.06,103.19 460.53,106.09 460.03,109 C 462.44,105.78 465.08,102.57 468.77,100.77 z"
       id="path17"
       style="opacity:1;fill:#29812f" />
    <path
       d="M 606.8,104.79 C 617.69,98.11 631.28,97.98 643.36,101.05 C 640.74,116.7 635.56,131.94 634.64,147.86 C 630.19,148.11 625.75,148.14 621.31,147.97 C 621.64,144.31 622.27,140.69 622.83,137.06 C 619.91,141.35 616.63,145.9 611.51,147.68 C 605.99,149.68 599.04,149.64 594.45,145.54 C 591.16,142.71 590.07,138.17 589.89,134.02 C 589.59,122.09 596.61,110.74 606.8,104.79 M 604.17,129.05 C 603.94,132.68 603.4,137.69 607.4,139.56 C 611.26,140.85 615.52,139.1 618.09,136.11 C 625.06,128.59 626.49,118.05 628.75,108.47 C 616.31,105.59 605.51,117.51 604.17,129.05 z"
       id="path19"
       style="opacity:1;fill:#29812f" />
    <path
       d="M 719.63,105.68 C 730.73,98.14 745.14,97.65 757.74,101.23 C 754.68,116.74 749.94,132 748.81,147.83 C 744.33,148.16 739.83,148.15 735.36,147.79 C 735.91,144.23 736.46,140.67 737,137.1 C 734,141.88 730.05,146.59 724.38,148.11 C 719.52,149.37 713.81,149.44 709.59,146.37 C 705.76,143.54 704.14,138.61 704.2,134.01 C 703.76,122.65 710.17,111.73 719.63,105.68 M 718.77,136.34 C 719.45,139.08 722.4,140.22 724.99,139.93 C 729.69,139.89 732.9,135.83 735.25,132.25 C 739.57,124.93 741.57,116.42 742.65,108.07 C 727.61,105.84 715.54,122.43 718.77,136.34 z"
       id="path21"
       style="opacity:1;fill:#29812f" />
    <path
       d="M 778.6,104.57 C 789.33,98.14 802.56,98.2 814.4,101.09 C 812.55,110.61 810.18,120.02 808.19,129.51 C 806.11,138.59 804.67,148 800.36,156.37 C 797.16,162.84 790.68,167.37 783.62,168.62 C 774.54,170.22 765.05,169.88 756.24,167.05 C 756.89,163.99 757.79,160.99 758.63,157.97 C 766.61,160.67 776.14,162.58 783.74,157.83 C 789.96,153.75 791.05,145.87 792.86,139.25 C 789.6,143.3 785.33,147.07 779.94,147.6 C 775,148.16 769.26,148.24 765.36,144.66 C 760.92,140.94 760.32,134.53 761.19,129.16 C 762.53,118.72 769.44,109.55 778.6,104.57 M 775.12,130.07 C 775.07,133.2 774.52,137.42 777.63,139.34 C 781.89,141.1 786.9,139.16 789.69,135.67 C 796.22,128.14 797.42,117.8 799.8,108.5 C 787.03,105.67 775.84,118.06 775.12,130.07 z"
       id="path23"
       style="opacity:1;fill:#29812f" />
    <path
       d="M 827.99,110 C 834.85,103.28 844.37,99.48 853.93,99.15 C 859.82,98.92 865.69,99.75 871.43,101 C 868.62,116.62 863.62,131.88 862.62,147.79 C 858.13,148.07 853.63,148.19 849.15,147.86 C 849.61,144.24 850.21,140.64 850.95,137.07 C 847.75,142.01 843.52,146.86 837.58,148.34 C 832.7,149.33 827.03,149.3 822.97,146.02 C 819.37,143.2 818.04,138.43 817.91,134.04 C 817.83,125.12 821.42,116.09 827.99,110 M 832.05,133.02 C 831.74,136.1 833.64,139.8 837.07,139.88 C 841.9,140.71 845.78,136.96 848.33,133.33 C 853.33,125.87 855.02,116.81 856.56,108.13 C 842.73,105.96 831.19,119.95 832.05,133.02 z"
       id="path25"
       style="opacity:1;fill:#29812f" />
    <path
       d="M 895.38,99.56 C 902.2,98.56 909.21,99.21 915.77,101.28 C 914.9,104.03 913.97,106.75 913,109.47 C 907.17,107.39 900.44,105.79 894.52,108.41 C 891.55,109.48 889.96,114.07 893.02,115.97 C 898.25,119.87 905.17,121.34 909.56,126.43 C 911.73,128.91 911.81,132.44 911.39,135.54 C 910.38,141.17 905.57,145.47 900.24,147.05 C 891.35,149.89 881.57,149.45 872.72,146.71 C 873.32,143.73 874.12,140.8 875.09,137.93 C 881.53,140.8 889.35,142.42 895.9,138.96 C 898.67,137.46 899.87,132.97 896.98,130.99 C 891.78,127.08 884.83,125.69 880.52,120.56 C 877.25,115.98 878.33,109.15 882.4,105.41 C 885.83,101.92 890.68,100.41 895.38,99.56 z"
       id="path27"
       style="opacity:1;fill:#29812f" />
    <path
       d="M 928.37,107.37 C 937.35,98.74 951.32,97.36 962.79,101.14 C 962.31,104.06 961.7,106.96 961.19,109.88 C 956.07,108.31 950.43,107.21 945.26,109.11 C 938.05,111.95 933.44,119.46 932.94,127.03 C 932.29,131.97 934.8,137.66 939.73,139.37 C 944.81,141.29 950.24,139.43 955.25,138.15 C 954.74,141 954.57,143.93 953.66,146.69 C 952.12,148.11 949.73,148 947.78,148.42 C 940.44,149.11 932.17,149.8 925.91,145.13 C 921.21,142.12 918.97,136.46 918.87,131.06 C 918.77,122.36 921.81,113.31 928.37,107.37 z"
       id="path29"
       style="opacity:1;fill:#29812f" />
    <path
       d="M 978.9,105.01 C 989.88,98.07 1003.68,97.93 1015.93,101.09 C 1013.27,116.72 1008.03,131.95 1007.21,147.86 C 1002.74,148.19 998.27,148.11 993.81,147.77 C 994.27,144.47 994.68,141.16 994.96,137.83 C 991.87,142.4 987.89,146.79 982.36,148.25 C 977.1,149.49 970.78,149.25 966.68,145.3 C 962.89,141.67 962.13,136.03 962.57,131.04 C 963.23,120.33 969.85,110.56 978.9,105.01 M 992.03,108.92 C 983.23,112.02 977.54,120.98 976.56,130 C 976.24,133.34 976.39,137.48 979.57,139.48 C 983.67,140.87 988.22,139.18 990.9,135.89 C 997.45,128.24 999.46,117.93 1000.99,108.26 C 997.99,108.09 994.88,107.8 992.03,108.92 z"
       id="path31"
       style="opacity:1;fill:#29812f" />
    <path
       d="M 1049.94,100.01 C 1052.76,98.88 1055.84,99.23 1058.81,99.39 C 1057.97,103.34 1056.89,107.23 1055.83,111.13 C 1052.18,111.16 1048.1,110.63 1044.99,112.97 C 1040.42,116.09 1037.95,121.34 1036.72,126.59 C 1035.07,133.67 1033.84,140.84 1032.07,147.89 C 1027.7,148.13 1023.32,148.19 1018.96,147.9 C 1021.88,131.98 1026.03,116.3 1028.66,100.32 C 1032.75,100.13 1036.85,100.18 1040.95,100.25 C 1040.59,102.86 1040.23,105.48 1039.99,108.11 C 1042.87,104.97 1045.65,101.26 1049.94,100.01 z"
       id="path33"
       style="opacity:1;fill:#29812f" />
    <path
       d="M 425.12,100.15 C 429.47,100.13 433.81,100.13 438.16,100.19 C 435.23,116.15 431.5,131.96 428.24,147.85 C 423.83,148.13 419.42,148.13 415.02,147.84 C 418.31,131.92 421.59,116.01 425.12,100.15 z"
       id="path35"
       style="opacity:1;fill:#29812f" />
  </g>
</svg>
