<?xml version="1.0" encoding="utf-8"?>
<!-- Generator: Adobe Illustrator 23.0.5, SVG Export Plug-In . SVG Version: 6.00 Build 0)  -->
<svg version="1.1" id="Layer_1" xmlns="http://www.w3.org/2000/svg" xmlns:xlink="http://www.w3.org/1999/xlink" x="0px" y="0px"
	 width="286.024px" height="89.059px" viewBox="0 0 286.024 89.059" enable-background="new 0 0 286.024 89.059"
	 xml:space="preserve">
<g>
	<g>
		<path fill="#121E40" d="M264.291,88.516c-1.226-0.83-2.517-1.559-3.86-2.18c-2.967-1.44-6.082-2.553-9.29-3.32
			c-8.94-2.23-31.2-3.37-36.07-3.71s-34.75-2.53-54.2-3.64c-27.42-1.57-56.49-3.34-82.2-4.26c-42.61-1.59-77.87-1.79-78.16-2.84
			s52.42-0.56,103.27-0.22c11.12,0.07,22.19,0.06,32.6,0c8.7,0,16.8,0,24.24-0.67c4.68-0.39,9.23-1.13,13.42-1.87
			c53.53-9.49,68.49-45.29,75.64-61.51c0.67-1.52,3.38-2.58,7.19-3.09c4.27-0.57,9.88-0.5,14.86-0.62c7.44-0.17,12.17,0,13.71,0
			s-21.69,61-24.62,71c-1.57,5.33-0.77,9.66,0.62,11.86c1.81,2.86,3.37,5.44,2.85,5"/>
		<path fill="none" stroke="#B38808" stroke-width="1.02" d="M264.291,88.516c-1.226-0.83-2.517-1.559-3.86-2.18
			c-2.967-1.44-6.082-2.553-9.29-3.32c-8.94-2.23-31.2-3.37-36.07-3.71s-34.75-2.53-54.2-3.64c-27.42-1.57-56.49-3.34-82.2-4.26
			c-42.61-1.59-77.87-1.79-78.16-2.84s52.42-0.56,103.27-0.22c11.12,0.07,22.19,0.06,32.6,0c8.7,0,16.8,0,24.24-0.67
			c4.68-0.39,9.23-1.13,13.42-1.87c53.53-9.49,68.49-45.29,75.64-61.51c0.67-1.52,3.38-2.58,7.19-3.09
			c4.27-0.57,9.88-0.5,14.86-0.62c7.44-0.17,12.17,0,13.71,0s-21.69,61-24.62,71c-1.57,5.33-0.77,9.66,0.62,11.86
			C263.251,86.296,264.811,88.876,264.291,88.516z"/>
	</g>
	<g>
		<g>
			<defs>
				<path id="SVGID_1_" d="M142.561,68.086v0.77c48.46,0,94.49-7,121.79-32.17l-0.51-0.57c-27,24.89-72.89,32-121.28,32"/>
			</defs>
			<clipPath id="SVGID_2_">
				<use xlink:href="#SVGID_1_"  overflow="visible"/>
			</clipPath>
			<g clip-path="url(#SVGID_2_)">
				
					<linearGradient id="SVGID_3_" gradientUnits="userSpaceOnUse" x1="-399.9539" y1="8.8055" x2="-398.8338" y2="8.8055" gradientTransform="matrix(108.49 0 0 109.06 43533.3477 -907.8499)">
					<stop  offset="0" style="stop-color:#B38808"/>
					<stop  offset="0.88" style="stop-color:#B38808"/>
					<stop  offset="0.89" style="stop-color:#A9810C"/>
					<stop  offset="0.91" style="stop-color:#8D6E16"/>
					<stop  offset="0.93" style="stop-color:#5F5026"/>
					<stop  offset="0.96" style="stop-color:#21273C"/>
					<stop  offset="0.97" style="stop-color:#141E41"/>
					<stop  offset="1" style="stop-color:#141E41"/>
				</linearGradient>
				<rect x="142.561" y="36.116" fill="url(#SVGID_3_)" width="121.79" height="32.73"/>
			</g>
		</g>
		<g>
			<defs>
				<path id="SVGID_4_" d="M146.401,68.116h-3.84v0.77h3.84c50.37,0,85-11.06,105.44-32.21l-0.55-0.53
					c-20.26,20.93-54.62,32-104.89,32"/>
			</defs>
			<clipPath id="SVGID_5_">
				<use xlink:href="#SVGID_4_"  overflow="visible"/>
			</clipPath>
			<g clip-path="url(#SVGID_5_)">
				
					<linearGradient id="SVGID_6_" gradientUnits="userSpaceOnUse" x1="-400.5617" y1="4.9962" x2="-399.4417" y2="4.9962" gradientTransform="matrix(0 -29.16 29.01 0 52.2627 -11612.3779)">
					<stop  offset="0" style="stop-color:#B38808"/>
					<stop  offset="0.61" style="stop-color:#B38808"/>
					<stop  offset="0.73" style="stop-color:#B18709"/>
					<stop  offset="0.78" style="stop-color:#AA820B"/>
					<stop  offset="0.81" style="stop-color:#9F7A0F"/>
					<stop  offset="0.84" style="stop-color:#8E6F15"/>
					<stop  offset="0.86" style="stop-color:#78601D"/>
					<stop  offset="0.88" style="stop-color:#5C4E27"/>
					<stop  offset="0.89" style="stop-color:#3D3932"/>
					<stop  offset="0.91" style="stop-color:#18213F"/>
					<stop  offset="0.91" style="stop-color:#141E41"/>
					<stop  offset="1" style="stop-color:#141E41"/>
				</linearGradient>
				<rect x="142.561" y="36.136" fill="url(#SVGID_6_)" width="109.28" height="32.74"/>
			</g>
		</g>
		<g>
			<defs>
				<path id="SVGID_7_" d="M142.561,68.086v0.77h0.08c53,0,78.09-11.79,98.94-32.76l-0.57-0.58
					c-20.74,20.83-45.54,32.52-98.48,32.53"/>
			</defs>
			<clipPath id="SVGID_8_">
				<use xlink:href="#SVGID_7_"  overflow="visible"/>
			</clipPath>
			<g clip-path="url(#SVGID_8_)">
				
					<linearGradient id="SVGID_9_" gradientUnits="userSpaceOnUse" x1="-400.5372" y1="4.9833" x2="-399.4172" y2="4.9833" gradientTransform="matrix(0 -29.66 29.5 0 45.0638 -11810.8828)">
					<stop  offset="0" style="stop-color:#B38808"/>
					<stop  offset="0.75" style="stop-color:#B38808"/>
					<stop  offset="0.77" style="stop-color:#A9810C"/>
					<stop  offset="0.8" style="stop-color:#8D6E16"/>
					<stop  offset="0.85" style="stop-color:#5F5026"/>
					<stop  offset="0.9" style="stop-color:#21273C"/>
					<stop  offset="0.91" style="stop-color:#141E41"/>
					<stop  offset="1" style="stop-color:#141E41"/>
				</linearGradient>
				<rect x="142.561" y="35.556" fill="url(#SVGID_9_)" width="99.02" height="33.3"/>
			</g>
		</g>
	</g>
	<g>
		<path fill-rule="evenodd" clip-rule="evenodd" fill="#B38808" d="M265.071,35.666c-0.19-0.33-0.35-0.66-0.54-1
			c-0.89-1.44-1.74-2.93-2.58-4.41c-0.28-0.51-0.59-1-0.86-1.52s-0.67-1.18-1-1.75c-0.124-0.287-0.304-0.545-0.53-0.76
			c-0.236-0.144-0.517-0.198-0.79-0.15c-0.58,0.15-0.73,0.64-1,1.1c-0.45,0.74-0.87,1.53-1.33,2.29c-0.63,1-1.22,2.13-1.85,3.17
			c-0.4,0.66-0.71,1.4-1.16,2c-0.607,0.847-1.438,1.508-2.4,1.91c-1.29,0.527-2.709,0.649-4.07,0.35c-0.692-0.171-1.363-0.42-2-0.74
			c-2.753-1.635-4.046-4.929-3.14-8c0.206-0.689,0.52-1.34,0.93-1.93c0.683-0.911,1.566-1.653,2.58-2.17
			c0.514-0.234,1.05-0.418,1.6-0.55c0.481-0.097,0.97-0.144,1.46-0.14c0.333-0.021,0.667-0.021,1,0
			c0.406,0.063,0.805,0.167,1.19,0.31c0.276,0.091,0.541,0.212,0.79,0.36v-0.86c-0.441-0.175-0.892-0.326-1.35-0.45
			c-0.785-0.164-1.59-0.215-2.39-0.15c-0.229,0.012-0.457,0.046-0.68,0.1c-0.431,0.087-0.855,0.204-1.27,0.35
			c-1.602,0.602-2.952,1.731-3.83,3.2c-0.371,0.652-0.66,1.347-0.86,2.07c-0.328,1.406-0.269,2.875,0.17,4.25
			c0.157,0.455,0.351,0.896,0.58,1.32c0.467,0.873,1.111,1.639,1.89,2.25c1.084,0.828,2.354,1.378,3.7,1.6
			c0.426,0.073,0.858,0.1,1.29,0.08c0.873-0.022,1.736-0.194,2.55-0.51c0.583-0.245,1.134-0.561,1.64-0.94
			c0.185-0.14,0.358-0.294,0.52-0.46c0.377-0.372,0.712-0.785,1-1.23c0.11-0.16,0.25-0.45,0.35-0.62c0.72-1.18,1.44-2.42,2.12-3.63
			c0.52-0.92,1-1.87,1.55-2.76l0.45-0.76c0.08-0.14,0.35-0.11,0.46,0c0.24,0.29,3.07,5.47,4.73,8.19c0.36,0.58,0.65,1.19,1,1.76
			c0.08,0.12,0.26,0.47,0.36,0.67h0.88c-0.15-0.24-0.3-0.58-0.36-0.68c-0.23-0.41-0.49-0.83-0.73-1.24 M269.671,36.526
			c-0.22-0.37-0.43-0.76-0.64-1.14c-0.32-0.57-0.63-1.12-1-1.69c-1.26-2.08-2.42-4.27-3.66-6.37s-1.84-4.11-4.31-4.7
			c-0.547-0.106-1.106-0.132-1.66-0.08c-0.343,0.044-0.679,0.132-1,0.26c-0.54,0.226-1.035,0.548-1.46,0.95
			c-0.755,0.902-1.402,1.889-1.93,2.94c-0.68,1.1-1.35,2.27-2,3.41c-0.13,0.22-0.26,0.44-0.38,0.66
			c-0.325,0.641-0.689,1.263-1.09,1.86c-0.467,0.636-1.211,1.008-2,1c-0.335,0.021-0.671-0.003-1-0.07
			c-1.027-0.261-1.882-0.97-2.33-1.93c-0.747-1.741,0.059-3.758,1.799-4.505c0.111-0.048,0.225-0.09,0.341-0.125
			c0.978-0.284,2.032-0.103,2.86,0.49c0.171,0.135,0.328,0.285,0.47,0.45c0.44,0.57,0.49,0.91,0.64,0.91v-1.4
			c-0.192-0.184-0.395-0.354-0.61-0.51c-0.473-0.334-1.001-0.581-1.56-0.73c-0.754-0.138-1.53-0.073-2.25,0.19
			c-1.503,0.54-2.55,1.909-2.68,3.5c-0.028,0.53,0.016,1.062,0.13,1.58c0.208,0.659,0.58,1.254,1.08,1.73
			c0.335,0.341,0.737,0.61,1.18,0.79c0.567,0.282,1.197,0.413,1.83,0.38c0.985,0.025,1.932-0.376,2.6-1.1
			c0.27-0.363,0.505-0.752,0.7-1.16c1-1.61,1.88-3.33,2.86-4.94c0.45-0.74,0.81-1.55,1.31-2.23c0.279-0.369,0.617-0.69,1-0.95
			c1.206-0.723,2.699-0.772,3.95-0.13c1.2,0.66,1.7,2.08,2.4,3.24c1.39,2.29,2.66,4.69,4.05,7c0.5,0.83,0.93,1.68,1.42,2.49
			c0.11,0.17,0.45,0.81,0.57,1.05h0.88l-0.57-1 M267.111,35.756c-0.23-0.39-0.43-0.8-0.66-1.19c-0.56-0.91-1.1-1.84-1.63-2.77
			c-0.75-1.31-1.53-2.62-2.26-3.94c-0.31-0.56-0.63-1.11-0.92-1.63c-0.403-0.904-1.199-1.572-2.16-1.81
			c-0.266-0.015-0.534-0.015-0.8,0c-0.314,0.011-0.62,0.101-0.89,0.26c-0.287,0.137-0.55,0.32-0.78,0.54
			c-0.521,0.661-0.97,1.375-1.34,2.13c-0.95,1.55-1.81,3.2-2.75,4.76c-0.29,0.46-0.49,0.93-0.76,1.35
			c-0.337,0.549-0.796,1.014-1.34,1.36c-1.325,0.669-2.864,0.777-4.27,0.3c-1.446-0.542-2.576-1.7-3.08-3.16
			c-0.083-0.362-0.144-0.73-0.18-1.1c-0.036-0.289-0.036-0.581,0-0.87c0.008-0.42,0.072-0.837,0.19-1.24
			c0.222-0.652,0.561-1.259,1-1.79c0.262-0.325,0.568-0.611,0.91-0.85c0.873-0.628,1.925-0.957,3-0.94
			c0.441-0.005,0.881,0.046,1.31,0.15c0.425,0.14,0.837,0.317,1.23,0.53c0.15,0.09,0.3,0.23,0.45,0.34v-0.94
			c-0.286-0.176-0.588-0.326-0.9-0.45c-0.499-0.207-1.03-0.329-1.57-0.36c-0.373-0.025-0.747-0.025-1.12,0
			c-0.262,0.003-0.523,0.029-0.78,0.08c-0.339,0.1-0.673,0.217-1,0.35c-1.52,0.654-2.684,1.934-3.19,3.51
			c-0.07,0.33-0.15,0.66-0.22,1c-0.047,0.267-0.064,0.539-0.05,0.81c0.001,0.516,0.068,1.031,0.2,1.53
			c0.069,0.289,0.155,0.572,0.26,0.85c0.559,1.504,1.763,2.678,3.28,3.2c0.371,0.121,0.748,0.222,1.13,0.3
			c0.315,0.047,0.632,0.077,0.95,0.09c0.401,0.001,0.802-0.023,1.2-0.07c0.621-0.126,1.216-0.356,1.76-0.68
			c0.685-0.464,1.253-1.08,1.66-1.8c0.25-0.41,0.46-0.87,0.74-1.32c0.79-1.3,1.53-2.67,2.32-4c0.33-0.54,0.7-1.34,1.09-1.95
			c0.187-0.411,0.489-0.758,0.87-1c0.148-0.093,0.31-0.161,0.48-0.2c0.376-0.075,0.764-0.075,1.14,0
			c0.287,0.079,0.548,0.231,0.76,0.44c0.557,0.671,1.021,1.415,1.38,2.21c1.32,2.21,2.53,4.51,3.88,6.7
			c0.45,0.74,0.83,1.51,1.27,2.23c0.09,0.14,0.38,0.69,0.45,0.82h0.84c0-0.07-0.27-0.51-0.58-1.09c-0.14-0.26-0.31-0.51-0.46-0.77
			 M262.171,32.986c-0.332,0.046-0.668,0.046-1,0c-0.057-0.2-0.1-0.404-0.13-0.61c-0.18,0.19-0.61,0.63-0.9,0.91
			c-0.22,0-0.27-0.08-0.24-0.23c0.11-0.33,0.33-1.18,0.42-1.57c-0.33,0.12-0.46,0.21-0.72,0.1c-0.22-0.43-0.44-0.84-0.62-1.24
			c-0.29,0.54-0.36,0.7-0.64,1.22c-0.19,0.16-0.48,0-0.69-0.05c0.07,0.57,0.38,1.14,0.41,1.7c-0.035,0.058-0.102,0.09-0.17,0.08
			c-0.44-0.23-0.59-0.65-1-0.88c0,0.29,0,0.52-0.2,0.58c-0.283,0.03-0.567,0.03-0.85,0c0.11,0.39,0.3,0.46,0.3,0.86
			c-0.171,0.12-0.36,0.211-0.56,0.27l0,0c0.23,0.214,0.477,0.408,0.74,0.58l0.44,0.32c0.15,0.13,0.49,0.28,0.58,0.46
			s-0.13,0.39-0.16,0.58s0.05,0,0.08,0c0.144-0.044,0.291-0.078,0.44-0.1c0.41-0.08,1.07-0.2,1.1-0.09c0,0.35,0,1-0.08,1.62h0.4
			c0-0.54,0-1.09-0.06-1.63c0-0.06,0.18,0,0.3,0l1.31,0.22c0,0,0-0.05,0-0.08c-0.12-0.145-0.171-0.335-0.14-0.52
			c0.138-0.153,0.292-0.29,0.46-0.41c0.19-0.15,0.4-0.28,0.6-0.42c0,0,0.45-0.33,0.74-0.56c-0.15-0.1-0.46-0.1-0.54-0.26
			s0.22-0.72,0.32-0.87"/>
		<path fill="#141E41" d="M43.701,17.316l-3.32,14.49h-1.18l-0.13-3.63c-0.083-1.207-0.339-2.396-0.76-3.53
			c-0.381-1.018-0.986-1.937-1.77-2.69c-0.86-0.802-1.884-1.409-3-1.78c-1.286-0.446-2.639-0.666-4-0.65
			c-3.686-0.074-7.294,1.064-10.27,3.24c-3.945,3.004-6.989,7.034-8.8,11.65c-1.717,3.969-2.612,8.245-2.63,12.57
			c0,4.327,1.26,7.787,3.78,10.38c2.583,2.608,6.142,4.013,9.81,3.87c2.839,0.062,5.644-0.628,8.13-2
			c2.626-1.607,4.879-3.755,6.61-6.3h1.54c-1.976,3.409-4.714,6.315-8,8.49c-3.185,1.873-6.836,2.806-10.53,2.69
			c-3.36,0.066-6.681-0.726-9.65-2.3c-2.733-1.458-4.963-3.706-6.4-6.45c-1.464-2.751-2.22-5.824-2.2-8.94
			c0.165-10.356,5.702-19.882,14.62-25.15c4.138-2.541,8.884-3.923,13.74-4c2.501,0.071,4.967,0.596,7.28,1.55
			c0.817,0.351,1.684,0.574,2.57,0.66c0.478,0.011,0.95-0.103,1.37-0.33c0.751-0.531,1.424-1.163,2-1.88L43.701,17.316z"/>
		<path fill="#141E41" d="M69.081,33.226l-6.4,22.37l-0.72,3c-0.062,0.239-0.095,0.484-0.1,0.73c-0.005,0.337,0.112,0.663,0.33,0.92
			c0.162,0.196,0.406,0.306,0.66,0.3c0.434-0.045,0.842-0.231,1.16-0.53c1.323-1.165,2.474-2.512,3.42-4l1.11,0.8
			c-1.247,1.994-2.823,3.762-4.66,5.23c-1.247,1.056-2.8,1.684-4.43,1.79c-0.774,0.062-1.54-0.194-2.12-0.71
			c-0.502-0.564-0.755-1.307-0.7-2.06c0.059-1.441,0.301-2.87,0.72-4.25l0.66-2.44c-2.873,3.76-5.51,6.39-7.91,7.89
			c-1.512,1.004-3.276,1.562-5.09,1.61c-1.612-0.005-3.134-0.741-4.14-2c-1.237-1.557-1.857-3.515-1.74-5.5
			c0.108-3.888,1.18-7.689,3.12-11.06c1.92-3.677,4.657-6.865,8-9.32c2.016-1.661,4.512-2.631,7.12-2.77
			c1.192-0.06,2.368,0.293,3.33,1c1.014,0.93,1.713,2.154,2,3.5l1.18-3.76L69.081,33.226z M57.401,34.936
			c-1.679,0.121-3.261,0.829-4.47,2c-2.571,2.313-4.617,5.15-6,8.32c-1.597,3.1-2.488,6.515-2.61,10
			c-0.069,1.275,0.325,2.533,1.11,3.54c0.625,0.789,1.573,1.253,2.58,1.26c2.393,0,4.987-1.773,7.78-5.32
			c3.74-4.667,5.613-9.493,5.62-14.48c0.122-1.439-0.263-2.876-1.09-4.06c-0.75-0.863-1.859-1.329-3-1.26"/>
		<path fill="#141E41" d="M86.101,16.166l-11.23,39.27c-0.39,1.17-0.678,2.371-0.86,3.59c-0.006,0.306,0.105,0.603,0.31,0.83
			c0.198,0.22,0.484,0.341,0.78,0.33c0.496-0.035,0.967-0.232,1.34-0.56c1.401-1.205,2.609-2.618,3.58-4.19l1,1
			c-1.534,2.379-3.478,4.468-5.74,6.17c-1.079,0.766-2.358,1.201-3.68,1.25c-1.585,0.017-2.887-1.246-2.92-2.83
			c0.157-1.661,0.492-3.301,1-4.89l8.9-30.95c0.462-1.426,0.823-2.883,1.08-4.36c0.027-0.498-0.176-0.98-0.55-1.31
			c-0.569-0.388-1.254-0.568-1.94-0.51c-0.771,0.027-1.539,0.104-2.3,0.23v-1.19L86.101,16.166z"/>
		<path fill="#141E41" d="M94.321,33.226l-4.31,14.88c1.436-2.739,3.06-5.375,4.86-7.89c1.682-2.325,3.761-4.336,6.14-5.94
			c1.102-0.662,2.365-1.008,3.65-1c1.004-0.045,1.984,0.316,2.72,1c0.722,0.713,1.114,1.696,1.08,2.71
			c-0.06,1.434-0.312,2.853-0.75,4.22l-2.33,8.39c3.553-6.72,6.923-11.413,10.11-14.08c1.426-1.35,3.289-2.144,5.25-2.24
			c0.932-0.039,1.836,0.325,2.48,1c0.732,0.906,1.09,2.058,1,3.22c-0.016,1.37-0.214,2.732-0.59,4.05l-3.62,12.83
			c-0.482,1.526-0.876,3.079-1.18,4.65c-0.005,0.293,0.098,0.578,0.29,0.8c0.133,0.153,0.328,0.237,0.53,0.23
			c0.432-0.107,0.828-0.324,1.15-0.63c1.356-1.092,2.54-2.384,3.51-3.83l1.08,0.69c-0.867,1.286-1.837,2.5-2.9,3.63
			c-1.02,1.221-2.221,2.28-3.56,3.14c-0.826,0.501-1.765,0.783-2.73,0.82c-0.723,0.021-1.421-0.266-1.92-0.79
			c-0.507-0.517-0.785-1.216-0.77-1.94c0.218-2.165,0.668-4.301,1.34-6.37l3-10.6c0.68-2.44,1-3.79,1.09-4
			c0.059-0.407,0.089-0.818,0.09-1.23c0.029-0.455-0.098-0.907-0.36-1.28c-0.208-0.28-0.532-0.449-0.88-0.46
			c-1.118,0.088-2.163,0.591-2.93,1.41c-3.464,3.41-6.324,7.383-8.46,11.75c-2.027,4.091-3.654,8.367-4.86,12.77h-5l5.61-20
			c0.466-1.401,0.775-2.85,0.92-4.32c0.039-0.469-0.089-0.936-0.36-1.32c-0.209-0.274-0.535-0.434-0.88-0.43
			c-0.828,0.031-1.628,0.306-2.3,0.79c-1.973,1.555-3.685,3.415-5.07,5.51c-1.888,2.513-3.501,5.222-4.81,8.08
			c-0.553,1.207-1.857,5.09-3.91,11.65h-4.85l6.12-21.39l0.78-2.77c0.128-0.295,0.206-0.609,0.23-0.93
			c-0.014-0.508-0.252-0.984-0.65-1.3c-0.469-0.394-1.068-0.601-1.68-0.58c-0.795,0.079-1.583,0.213-2.36,0.4l-0.32-1.22
			L94.321,33.226z"/>
		<path fill="#141E41" d="M160.171,17.316l-3.38,37.2c-0.18,1.73-0.27,2.88-0.27,3.43c-0.042,0.702,0.132,1.4,0.5,2
			c0.407,0.633,0.996,1.128,1.69,1.42c1.158,0.374,2.375,0.53,3.59,0.46l-0.36,1.22h-17.53l0.36-1.22h0.76
			c1.226,0.052,2.439-0.269,3.48-0.92c0.704-0.515,1.22-1.245,1.47-2.08c0.381-1.581,0.612-3.195,0.69-4.82l0.53-5.67h-12.69
			l-4.58,6.18c-0.741,0.934-1.388,1.939-1.93,3c-0.251,0.532-0.388,1.112-0.4,1.7c0.001,0.705,0.316,1.372,0.86,1.82
			c0.82,0.585,1.814,0.874,2.82,0.82l-0.36,1.22h-13.17l0.37-1.22c1.569-0.048,3.076-0.622,4.28-1.63
			c2.068-1.983,3.922-4.179,5.53-6.55l26.58-36.36H160.171z M153.671,28.316l-12.9,17.66h11.24L153.671,28.316z"/>
		<path fill="#141E41" d="M174.531,33.226l-6.52,23.13c-0.292,0.918-0.509,1.857-0.65,2.81c-0.015,0.313,0.097,0.62,0.31,0.85
			c0.189,0.209,0.458,0.329,0.74,0.33c0.439-0.043,0.852-0.225,1.18-0.52c1.455-1.22,2.724-2.645,3.77-4.23l1.15,0.76
			c-1.414,2.204-3.188,4.155-5.25,5.77c-1.179,1.045-2.677,1.662-4.25,1.75c-0.809,0.029-1.598-0.258-2.2-0.8
			c-0.553-0.517-0.862-1.243-0.85-2c0.105-1.382,0.38-2.746,0.82-4.06l4.23-14.82c0.498-1.479,0.85-3.003,1.05-4.55
			c0.013-0.452-0.173-0.888-0.51-1.19c-0.391-0.326-0.892-0.49-1.4-0.46c-1.006,0.058-2.008,0.178-3,0.36v-1.28L174.531,33.226z
			 M174.111,20.126c1.8-0.011,3.269,1.439,3.28,3.24c0,0.02,0,0.04,0,0.06c0.014,1.806-1.438,3.281-3.244,3.296
			c-0.885,0.007-1.735-0.345-2.356-0.976c-1.284-1.288-1.284-3.372,0-4.66c0.602-0.645,1.448-1.008,2.33-1"/>
		<path fill="#141E41" d="M176.151,35.076l11.33-1.85l-4.73,16c3.827-6.58,7.307-11.18,10.44-13.8c1.77-1.49,3.22-2.24,4.33-2.24
			c0.634-0.034,1.254,0.198,1.71,0.64c0.444,0.518,0.667,1.189,0.62,1.87c-0.002,1.456-0.385,2.887-1.11,4.15
			c-0.391,0.905-1.284,1.491-2.27,1.49c-0.481,0.005-0.946-0.174-1.3-0.5c-0.396-0.408-0.633-0.943-0.67-1.51
			c0.004-0.302-0.098-0.596-0.29-0.83c-0.167-0.167-0.394-0.26-0.63-0.26c-0.349,0.009-0.691,0.098-1,0.26
			c-0.994,0.718-1.868,1.589-2.59,2.58c-2.199,2.662-4.198,5.483-5.98,8.44c-0.966,1.544-1.758,3.191-2.36,4.91
			c-0.92,2.513-1.447,4.02-1.58,4.52l-1.06,4.14h-5l6.07-20.49c0.542-1.646,0.877-3.352,1-5.08c0.011-0.394-0.173-0.767-0.49-1
			c-0.502-0.372-1.116-0.559-1.74-0.53c-0.849,0.043-1.694,0.144-2.53,0.3L176.151,35.076z"/>
	</g>
</g>
</svg>
