<?xml version="1.0" encoding="utf-8"?>
<!-- Generator: Adobe Illustrator 22.1.0, SVG Export Plug-In . SVG Version: 6.00 Build 0)  -->
<svg version="1.1"
	 id="svg9190" xmlns:cc="http://creativecommons.org/ns#" xmlns:dc="http://purl.org/dc/elements/1.1/" xmlns:rdf="http://www.w3.org/1999/02/22-rdf-syntax-ns#" xmlns:svg="http://www.w3.org/2000/svg"
	 xmlns="http://www.w3.org/2000/svg" xmlns:xlink="http://www.w3.org/1999/xlink" x="0px" y="0px" width="98.591px" height="23px"
	 viewBox="0 0 98.591 23" style="enable-background:new 0 0 98.591 23;" xml:space="preserve">
<style type="text/css">
	.st0{fill:#FFFFFF;}
	.st1{fill:#DB262B;}
	.st2{fill:#E3000F;}
	.st3{fill:#2F2483;}
</style>
<g>
	<path id="path7916" class="st0" d="M23.001,11.5C23.001,17.851,17.852,23,11.501,23C5.149,23,0.001,17.851,0.001,11.5
		S5.149,0.001,11.501,0.001C17.852,0.001,23.001,5.149,23.001,11.5"/>
	<path id="path7920" class="st1" d="M13.828,11.501h9.172c0-2.125-0.551-4.017-1.326-5.377C21.28,5.433,19.304,2.54,18.626,2.54
		h-1.129c-4.349,0-8.608,4.125-8.608,8.397l12.625-4.528c-0.11,0.168-3.554,2.065-4.064,2.363c-0.696,0.406-1.342,0.729-2.028,1.147
		C14.782,10.311,13.828,10.508,13.828,11.501"/>
	<path id="path7924" class="st2" d="M52.069,3.881c0,0.279,0.32,0.564,0.635,0.564h3.88V5.08h-3.246
		c-0.356,0-0.634,0.493-0.634,0.918v2.468c0,0.598,0.28,0.75,0.634,0.988h2.4c-0.546,0.745-3.81,1.651-3.81,2.47v0.141
		c0,0.196,0.298,0.494,0.494,0.494h0.071c0.563,0,1.842-0.65,2.281-0.892c0.824-0.455,1.192-0.95,1.81-1.366
		c0,1.01-0.327,2.822,0.705,2.822c0.863,0,0.565-2.02,0.565-2.892c0.636,0.426,1.098,0.996,1.904,1.412
		c0.45,0.231,1.729,1.058,2.257,1.058c0.279,0,0.565-0.321,0.565-0.635v-0.141c0-0.609-3.63-1.795-3.81-2.47h2.046
		c0.552,0,0.918-0.365,0.918-0.917v-2.47c0-0.434-0.359-0.988-0.706-0.988h-3.174V4.445h3.88c0.275,0,0.635-0.269,0.635-0.494V3.669
		c0-0.257-0.345-0.494-0.635-0.494h-3.88V2.893c0-0.171-0.324-0.494-0.494-0.494h-0.143c-0.444,0-0.634,0.314-0.634,0.777h-4.022
		C52.289,3.176,52.069,3.583,52.069,3.881 M53.974,6.068h2.54v0.635h-2.54C53.974,6.703,53.974,6.068,53.974,6.068z M57.925,6.068
		h2.611v0.635h-2.611C57.925,6.703,57.925,6.068,57.925,6.068z M53.974,7.761h2.54v0.635h-2.54V7.761z M27.868,9.173
		c0,0.601,0.456,1.058,1.059,1.058h3.316v2.398c0,0.349,0.286,0.635,0.634,0.635h0.071c0.833,0,0.634-1.354,0.634-1.976v-1.058
		h3.316c0.61,0,1.059-0.437,1.059-1.058V5.01c0-0.53-0.322-1.059-0.847-1.059h-3.529V3.104c0-0.477-0.192-0.988-0.634-0.988
		c-0.479,0-0.705,0.29-0.705,0.777v1.058h-3.529c-0.507,0-0.847,0.546-0.847,1.059V9.173z M33.5,5.223l2.836-0.001
		c0.163,0,0.211,0.05,0.211,0.211V8.89h-2.964L33.6,6.843C33.6,6.843,33.5,5.223,33.5,5.223z M29.209,5.433
		c0-0.162,0.05-0.211,0.213-0.211h2.822V8.89h-2.822c-0.163,0-0.213-0.05-0.213-0.211C29.209,8.679,29.209,5.433,29.209,5.433z
		 M63.852,4.516c0,1.095,1.325,0.763,2.373,0.744c0.295-0.005,0.094,0.785,0.095,1.232c0.001,0.594-0.007,0.941-0.086,1.465
		c-0.133,0.876-0.43,1.609-0.798,2.308c-0.152,0.29-1.232,1.85-1.232,1.872v0.281c0,0.207,0.351,0.494,0.564,0.494
		c1.361,0,2.892-3.47,2.892-5.079V7.62h4.163c0,1.623,0.229,3.951-1.341,3.951h-0.211l-1.553-0.205l-0.141-0.006
		c-0.319,0-0.634,0.326-0.634,0.564c0,0.779,1.262,0.988,2.046,0.988h0.211c2.029,0,2.964-1.111,2.964-3.104V7.197
		c0-0.542-0.444-0.918-0.917-0.918h-4.515V5.293h5.785c0.356,0,0.705-0.255,0.705-0.635V4.445c0-0.225-0.359-0.494-0.635-0.494
		h-3.88V3.457c0-0.392-0.219-0.847-0.564-0.847h-0.141c-0.275,0-0.635,0.269-0.635,0.494v0.847h-3.88
		c-0.275,0-0.634,0.269-0.634,0.494L63.852,4.516L63.852,4.516z M49.316,12.77c0.362,0,0.706-0.536,0.706-0.988V3.811
		c0-0.425-0.39-0.918-0.847-0.918h-8.114c-0.476,0-0.847,0.415-0.847,0.918v8.113c0,0.461,0.339,0.847,0.777,0.847
		C40.992,12.77,49.316,12.77,49.316,12.77z M41.415,4.445c0-0.19,0.034-0.194,0.071-0.353h7.055c0.162,0,0.211,0.05,0.211,0.213
		v7.055c0,0.162-0.05,0.211-0.211,0.211h-6.914c-0.163,0-0.213-0.05-0.213-0.211V4.445L41.415,4.445z M79.02,3.811
		c0.03-0.13,0.211-0.685,0.211-0.706c0-0.199-0.264-0.635-0.494-0.635h-0.353c-0.361,0-0.627,0.976-0.635,1.342h-0.917
		c-0.349,0-0.635,0.286-0.635,0.634v2.894c-0.368,0.008-0.634,0.192-0.634,0.564v0.07c0,0.485,0.316,0.483,0.634,0.635
		c0,0.696-0.083,1.35-0.139,1.978c-0.052,0.588-0.355,1.38-0.355,1.761v0.283c0,0.229,0.307,0.424,0.565,0.424h0.07
		c0.971,0,1.129-3.263,1.129-4.445h0.423v1.482c0,0.342,0.2,0.635,0.564,0.635c0.277,0,0.494-0.262,0.494-0.564V8.608h0.495v2.964
		c0,0.553-1.27-0.227-1.27,0.705v0.211c0,0.301,0.436,0.494,0.775,0.494h0.213c1.153,0,1.552-0.4,1.552-1.552V8.538h0.211
		c0.6,0,0.6-1.199,0-1.199h-0.211V4.305c0-0.232-0.264-0.494-0.564-0.494C80.149,3.811,79.02,3.811,79.02,3.811z M77.468,5.08h1.976
		v2.258h-0.565c0.037-0.158,0.07-0.163,0.07-0.354v-0.07c0-0.593-0.039-1.412-0.634-1.412c-0.822,0-0.534,1.36-0.283,1.836h-0.564
		V5.08L77.468,5.08z M89.674,4.869h1.481v0.424c0,1.696-2.68,1.248-2.68,2.327c0,0.214,0.287,0.565,0.494,0.565h0.493
		c1.72,0,3.175-1.258,3.175-3.035V4.869h1.27v2.398c0,0.477,0.414,0.847,0.917,0.847h2.046c0.597,0,1.341-0.554,1.341-1.129
		c0-0.345-0.289-0.564-0.634-0.564c-0.209,0-0.568,0.424-0.777,0.424h-1.552c-0.036-0.158-0.071-0.163-0.071-0.353V4.869h1.764
		C96.888,5.097,96.8,5.306,96.8,5.574c0,0.278,0.231,0.564,0.565,0.564h0.14c0.543,0,0.848-0.834,0.848-1.341V4.163
		c0-0.842-1.842-0.635-2.752-0.635c-0.279,0-1.514,0.074-1.639-0.054c-0.106-0.11,0.043-0.863-0.76-0.863
		c-0.301,0-0.635,0.385-0.635,0.706v0.211h-3.245c-0.518,0-0.989,0.425-0.989,0.917v1.341c0,0.349,0.287,0.635,0.636,0.635h0.07
		c0.319,0,0.635-0.327,0.635-0.564C89.674,5.857,89.674,4.869,89.674,4.869z M97.082,9.878c0.37,0,0.775-0.315,0.775-0.705
		c0-0.331-0.345-0.635-0.705-0.635h-7.76c-0.275,0-0.635,0.268-0.635,0.494v0.211c0,0.434,0.336,0.635,0.777,0.635h3.104V11.5h-3.88
		c-0.349,0-0.634,0.286-0.634,0.636v0.07c0,0.341,0.222,0.564,0.564,0.564h9.101c0.349,0,0.635-0.286,0.635-0.634
		c0-0.331-0.347-0.636-0.705-0.636h-3.74V9.878H97.082z M81.63,12.912c0.525,0,1.227-1.804,1.359-2.452
		c0.099-0.481,0.053-1.254,0.053-1.853c0-0.38-0.153-1.623,0.211-1.623H84.1v4.658c0,0.537,0.351,1.199,0.777,1.199h0.988
		c0.664,0,1.058-0.973,1.058-1.694c0-0.069-0.271-0.353-0.423-0.353h-0.141c-0.715,0-0.35,0.777-0.777,0.777H85.37V6.492
		c0-0.525-0.529-0.848-1.059-0.848h-1.339c-1.834,0-1.27,1.485-1.27,3.105v0.494c0,1.505-0.917,2.91-0.917,3.034
		c0,0.242,0.258,0.635,0.493,0.635C81.277,12.912,81.63,12.912,81.63,12.912z M45.084,4.939h-2.751
		c-0.339,0-0.777,0.193-0.777,0.494c0,0.342,0.223,0.565,0.565,0.565h3.174c0.023,1.028,0.706,2.497,0.706,3.175
		c0,0.065-1.059,1.321-1.059,1.622c0,0.258,0.196,0.565,0.424,0.565c0.705,0,0.802-1.005,1.27-1.129
		c0.078,0.337,0.527,1.199,0.917,1.199c0.612,0,1.058-1.461,1.058-2.116c0-0.157-0.306-0.494-0.423-0.494
		c-0.321,0-0.368,0.15-0.547,0.285l-0.088,0.562l-0.12-0.011l-0.233-0.483c0.248-0.286,1.058-1.906,1.058-2.4v-0.07
		c0-0.302-0.217-0.565-0.494-0.565c-0.636,0-0.667,1.244-1.049,1.692l-0.361-1.832h1.693c0.302,0,0.564-0.217,0.564-0.495
		c0-0.428-0.281-0.471-0.635-0.563c-0.361-0.093-0.213-0.635-0.635-0.635h-0.281c-0.164,0-0.353,0.187-0.353,0.353
		c0,0.158,0.056,0.155,0.141,0.281h-0.635c-0.007-0.318-0.127-0.705-0.424-0.705h-0.211C45.149,4.233,45.084,4.512,45.084,4.939
		 M41.767,6.844V8.82c0,0.395,0.244,0.494,0.635,0.494h2.258c0.299,0,0.564-0.264,0.564-0.494V6.914
		c0-0.275-0.269-0.635-0.494-0.635h-2.398C41.991,6.279,41.767,6.503,41.767,6.844 M42.685,7.267h1.552v1.058h-1.552V7.267z
		 M80.925,4.445c0,0.349,0.286,0.635,0.635,0.635h3.951c0.339,0,0.775-0.193,0.775-0.494V4.445c0-0.348-0.286-0.634-0.634-0.634
		H84.03V3.176c0-0.342-0.223-0.565-0.565-0.565h-0.14c-0.365,0-0.565,0.295-0.565,0.635v0.565h-1.058
		c-0.339,0-0.777,0.193-0.777,0.494C80.925,4.305,80.925,4.445,80.925,4.445z M42.261,11.006c0.92,0,2.894-0.25,2.894-1.058v-0.14
		c0-0.68-1.469-0.109-1.865-0.03c-0.882,0.178-1.542-0.089-1.734,0.734c0.13,0.248,0.252,0.494,0.635,0.494H42.261L42.261,11.006z
		 M57.925,7.761h2.611v0.635h-2.611V7.761z"/>
	<path id="path7928" class="st1" d="M0,11.501h3.386L2.115,9.243l2.327,0.572l4.159-7.491l9.813,0.004
		c-0.258-0.353-2.354-1.433-2.901-1.615C14.404,0.348,13.24,0,11.783,0h-0.636C5.133,0,0,5.36,0,11.501"/>
	<path id="path7932" class="st3" d="M23.001,11.501h-9.172c0.021,0.918,0.985,1.235,1.647,1.599
		c0.688,0.377,1.342,0.809,2.023,1.151c0.61,0.308,3.724,2.012,4.09,2.33L8.907,12.088c-0.018,4.183,4.199,8.373,8.379,8.373h1.341
		c0.655,0,2.71-2.917,3.082-3.621C22.476,15.382,23.001,13.702,23.001,11.501"/>
	<path id="path7936" class="st3" d="M3.386,11.501H0C0,17.691,5.125,23,11.218,23h0.211c1.578,0,2.836-0.273,3.967-0.688
		c0.807-0.297,2.554-1.053,2.947-1.639H8.607L3.386,11.501z"/>
	<path id="path7940" class="st3" d="M32.977,19.261c0,0.196-0.047,0.409-0.146,0.639c-0.097,0.231-0.249,0.455-0.458,0.676
		c-0.208,0.221-0.475,0.401-0.798,0.537c-0.324,0.139-0.702,0.208-1.133,0.208c-0.326,0-0.623-0.03-0.891-0.092
		c-0.267-0.062-0.511-0.159-0.728-0.29c-0.217-0.132-0.419-0.303-0.603-0.518c-0.163-0.193-0.302-0.411-0.418-0.651
		c-0.116-0.242-0.202-0.5-0.26-0.772c-0.058-0.273-0.087-0.564-0.087-0.87c0-0.499,0.072-0.946,0.219-1.339
		c0.145-0.395,0.353-0.732,0.623-1.013c0.271-0.279,0.587-0.493,0.949-0.64c0.364-0.145,0.751-0.219,1.163-0.219
		c0.501,0,0.947,0.099,1.339,0.3c0.39,0.2,0.691,0.448,0.9,0.742c0.208,0.295,0.313,0.572,0.313,0.834
		c0,0.143-0.052,0.271-0.153,0.379c-0.1,0.11-0.223,0.164-0.367,0.164c-0.161,0-0.281-0.037-0.361-0.114
		c-0.081-0.075-0.169-0.207-0.268-0.392c-0.164-0.307-0.356-0.536-0.576-0.688c-0.222-0.152-0.495-0.228-0.818-0.228
		c-0.517,0-0.926,0.197-1.232,0.587c-0.306,0.392-0.459,0.949-0.459,1.67c0,0.481,0.068,0.882,0.204,1.2
		c0.134,0.32,0.325,0.559,0.574,0.716c0.248,0.157,0.537,0.237,0.871,0.237c0.361,0,0.664-0.089,0.914-0.268
		c0.25-0.179,0.437-0.441,0.564-0.789c0.053-0.163,0.12-0.296,0.199-0.399c0.077-0.104,0.204-0.153,0.379-0.153
		c0.15,0,0.278,0.052,0.384,0.156C32.924,18.976,32.977,19.106,32.977,19.261"/>
	<path id="path7944" class="st3" d="M35.368,15.678v1.775h2.708v-1.775c0-0.252,0.058-0.443,0.171-0.569
		c0.115-0.128,0.264-0.191,0.45-0.191c0.187,0,0.339,0.062,0.456,0.187c0.117,0.126,0.176,0.318,0.176,0.572v4.879
		c0,0.256-0.059,0.447-0.178,0.575c-0.118,0.127-0.271,0.19-0.455,0.19c-0.19,0-0.341-0.063-0.453-0.192
		c-0.112-0.128-0.169-0.319-0.169-0.572v-2.082h-2.708v2.082c0,0.257-0.059,0.447-0.178,0.575c-0.118,0.127-0.271,0.19-0.455,0.19
		c-0.19,0-0.341-0.063-0.453-0.192c-0.112-0.128-0.169-0.319-0.169-0.572v-4.879c0-0.252,0.057-0.443,0.168-0.569
		c0.111-0.128,0.262-0.191,0.454-0.191c0.187,0,0.341,0.062,0.456,0.187C35.309,15.232,35.368,15.424,35.368,15.678"/>
	<path id="path7948" class="st3" d="M40.729,20.558v-4.879c0-0.252,0.058-0.443,0.173-0.57c0.116-0.127,0.266-0.19,0.449-0.19
		c0.187,0,0.339,0.062,0.456,0.187c0.117,0.126,0.176,0.318,0.176,0.572v4.879c0,0.256-0.059,0.447-0.176,0.574
		c-0.117,0.127-0.269,0.191-0.456,0.191c-0.181,0-0.33-0.064-0.446-0.192C40.788,21.002,40.729,20.811,40.729,20.558"/>
	<path id="path7952" class="st3" d="M45.021,15.671l2.41,3.65v-3.685c0-0.239,0.052-0.418,0.155-0.537
		c0.103-0.12,0.24-0.18,0.417-0.18c0.18,0,0.321,0.059,0.426,0.179c0.104,0.12,0.156,0.3,0.156,0.539v4.871
		c0,0.545-0.225,0.815-0.676,0.815c-0.112,0-0.213-0.016-0.304-0.048c-0.088-0.033-0.174-0.085-0.254-0.155
		c-0.077-0.07-0.151-0.153-0.219-0.246c-0.068-0.094-0.135-0.191-0.204-0.29l-2.351-3.607v3.628c0,0.237-0.054,0.415-0.164,0.537
		c-0.11,0.121-0.25,0.181-0.423,0.181c-0.178,0-0.32-0.06-0.426-0.182c-0.106-0.123-0.161-0.302-0.161-0.536v-4.776
		c0-0.203,0.024-0.362,0.069-0.477c0.053-0.127,0.14-0.231,0.264-0.312c0.124-0.08,0.258-0.12,0.402-0.12
		c0.112,0,0.208,0.018,0.289,0.054c0.081,0.036,0.151,0.087,0.211,0.149c0.062,0.062,0.122,0.141,0.185,0.24
		C44.887,15.461,44.953,15.563,45.021,15.671"/>
	<path id="path7956" class="st3" d="M51.323,18.796h1.851L52.24,16.24L51.323,18.796z M53.808,20.514l-0.295-0.777h-2.518
		l-0.296,0.795c-0.117,0.309-0.215,0.519-0.297,0.627c-0.081,0.109-0.214,0.163-0.401,0.163c-0.157,0-0.297-0.058-0.418-0.173
		c-0.121-0.116-0.181-0.246-0.181-0.394c0-0.085,0.014-0.171,0.041-0.261c0.029-0.092,0.075-0.216,0.14-0.377l1.584-4.022
		c0.045-0.115,0.099-0.254,0.163-0.415c0.064-0.163,0.13-0.297,0.202-0.403c0.072-0.106,0.168-0.193,0.284-0.26
		c0.117-0.066,0.261-0.099,0.434-0.099c0.174,0,0.32,0.033,0.436,0.099c0.117,0.066,0.213,0.152,0.285,0.255
		c0.07,0.104,0.13,0.217,0.181,0.337c0.05,0.12,0.111,0.279,0.187,0.478l1.618,3.996c0.127,0.304,0.19,0.525,0.19,0.664
		c0,0.143-0.06,0.274-0.18,0.392c-0.12,0.121-0.263,0.181-0.432,0.181c-0.098,0-0.184-0.017-0.254-0.053
		c-0.071-0.035-0.13-0.082-0.178-0.144c-0.048-0.06-0.099-0.153-0.155-0.279C53.895,20.721,53.846,20.611,53.808,20.514"/>
	<path id="path7960" class="st3" d="M62.31,15.991h-2.826v1.52h2.603c0.192,0,0.335,0.043,0.429,0.129
		c0.093,0.087,0.14,0.199,0.14,0.341c0,0.14-0.046,0.255-0.138,0.344c-0.094,0.088-0.238,0.133-0.431,0.133h-2.603v1.762h2.923
		c0.197,0,0.347,0.046,0.446,0.136c0.101,0.093,0.15,0.214,0.15,0.365c0,0.147-0.048,0.266-0.15,0.357
		c-0.099,0.092-0.249,0.138-0.446,0.138h-3.408c-0.273,0-0.471-0.06-0.591-0.182c-0.12-0.121-0.179-0.316-0.179-0.586v-4.657
		c0-0.18,0.028-0.327,0.081-0.441s0.138-0.198,0.251-0.25s0.26-0.077,0.437-0.077h3.311c0.2,0,0.349,0.045,0.446,0.133
		c0.097,0.089,0.146,0.204,0.146,0.349c0,0.146-0.05,0.263-0.146,0.353C62.66,15.947,62.511,15.991,62.31,15.991"/>
	<path id="path7964" class="st3" d="M65.479,18.796h1.851l-0.935-2.555L65.479,18.796z M67.963,20.514l-0.296-0.777H65.15
		l-0.296,0.795c-0.117,0.309-0.215,0.519-0.297,0.627c-0.081,0.109-0.215,0.163-0.401,0.163c-0.157,0-0.297-0.058-0.418-0.173
		c-0.121-0.116-0.182-0.246-0.182-0.394c0-0.085,0.014-0.171,0.042-0.261c0.029-0.092,0.075-0.216,0.14-0.377l1.584-4.022
		c0.045-0.115,0.099-0.254,0.163-0.415c0.063-0.163,0.129-0.297,0.202-0.403c0.072-0.106,0.168-0.193,0.284-0.26
		c0.117-0.066,0.261-0.099,0.432-0.099c0.175,0,0.321,0.033,0.437,0.099c0.117,0.066,0.211,0.152,0.284,0.255
		c0.071,0.104,0.132,0.217,0.182,0.337c0.048,0.12,0.111,0.279,0.187,0.478l1.617,3.996c0.128,0.304,0.191,0.525,0.191,0.664
		c0,0.143-0.06,0.274-0.18,0.392c-0.12,0.121-0.264,0.181-0.432,0.181c-0.098,0-0.184-0.017-0.254-0.053
		c-0.071-0.035-0.13-0.082-0.178-0.144c-0.048-0.06-0.1-0.153-0.155-0.279C68.05,20.721,68.001,20.611,67.963,20.514"/>
	<path id="path7968" class="st3" d="M74.927,19.357c0,0.374-0.097,0.713-0.29,1.011c-0.192,0.298-0.475,0.531-0.845,0.7
		c-0.373,0.169-0.813,0.254-1.324,0.254c-0.611,0-1.113-0.115-1.512-0.345c-0.281-0.167-0.511-0.388-0.687-0.667
		c-0.175-0.277-0.263-0.546-0.263-0.809c0-0.151,0.054-0.283,0.158-0.39c0.105-0.109,0.24-0.163,0.405-0.163
		c0.133,0,0.244,0.043,0.336,0.127c0.091,0.085,0.169,0.21,0.234,0.376c0.078,0.198,0.164,0.362,0.256,0.495
		c0.091,0.132,0.221,0.242,0.386,0.327c0.165,0.085,0.383,0.128,0.655,0.128c0.372,0,0.673-0.086,0.906-0.26
		c0.232-0.173,0.349-0.389,0.349-0.649c0-0.204-0.063-0.372-0.188-0.5c-0.124-0.128-0.287-0.227-0.485-0.293
		c-0.198-0.068-0.464-0.139-0.797-0.215c-0.444-0.105-0.818-0.227-1.117-0.366c-0.301-0.139-0.539-0.33-0.714-0.57
		c-0.176-0.242-0.264-0.54-0.264-0.897c0-0.341,0.092-0.644,0.278-0.908c0.186-0.263,0.456-0.467,0.808-0.61
		c0.351-0.143,0.766-0.214,1.241-0.214c0.38,0,0.709,0.047,0.987,0.141c0.278,0.095,0.507,0.22,0.691,0.377
		c0.184,0.156,0.316,0.32,0.402,0.492c0.083,0.171,0.127,0.338,0.127,0.502c0,0.149-0.053,0.284-0.159,0.403
		c-0.105,0.118-0.238,0.18-0.395,0.18c-0.144,0-0.252-0.036-0.327-0.109c-0.075-0.07-0.155-0.188-0.242-0.351
		c-0.115-0.233-0.249-0.417-0.407-0.548c-0.157-0.132-0.411-0.196-0.76-0.196c-0.325,0-0.586,0.07-0.783,0.214
		c-0.199,0.143-0.298,0.313-0.298,0.513c0,0.123,0.033,0.231,0.1,0.32c0.068,0.091,0.162,0.169,0.28,0.233
		c0.117,0.064,0.238,0.116,0.359,0.152c0.121,0.035,0.32,0.089,0.6,0.159c0.348,0.082,0.664,0.171,0.947,0.271
		c0.284,0.099,0.523,0.219,0.722,0.36c0.199,0.14,0.354,0.319,0.464,0.534C74.871,18.782,74.927,19.045,74.927,19.357"/>
	<path id="path7972" class="st3" d="M80.014,16.059h-1.368v4.499c0,0.258-0.058,0.452-0.173,0.577
		c-0.116,0.126-0.266,0.187-0.449,0.187c-0.185,0-0.336-0.063-0.453-0.191c-0.116-0.127-0.175-0.318-0.175-0.574v-4.499h-1.369
		c-0.214,0-0.372-0.047-0.477-0.141c-0.105-0.095-0.157-0.219-0.157-0.374c0-0.161,0.056-0.287,0.163-0.379
		c0.109-0.094,0.266-0.14,0.471-0.14h3.988c0.217,0,0.378,0.047,0.484,0.144c0.105,0.095,0.159,0.221,0.159,0.376
		c0,0.156-0.056,0.279-0.163,0.374C80.389,16.012,80.229,16.059,80.014,16.059"/>
	<path id="path7976" class="st3" d="M85.48,15.991h-2.826v1.52h2.603c0.192,0,0.335,0.043,0.429,0.129
		c0.093,0.087,0.14,0.199,0.14,0.341c0,0.14-0.046,0.255-0.138,0.344c-0.094,0.088-0.238,0.133-0.431,0.133h-2.603v1.762h2.923
		c0.197,0,0.347,0.046,0.446,0.136c0.101,0.093,0.15,0.214,0.15,0.365c0,0.147-0.048,0.266-0.15,0.357
		c-0.099,0.092-0.249,0.138-0.446,0.138h-3.409c-0.272,0-0.47-0.06-0.589-0.182c-0.12-0.121-0.179-0.316-0.179-0.586v-4.657
		c0-0.18,0.028-0.327,0.081-0.441s0.138-0.198,0.251-0.25c0.114-0.052,0.26-0.077,0.436-0.077h3.313c0.2,0,0.349,0.045,0.446,0.133
		c0.097,0.089,0.146,0.204,0.146,0.349c0,0.146-0.05,0.263-0.146,0.353C85.829,15.947,85.681,15.991,85.48,15.991"/>
	<path id="path7980" class="st3" d="M89.574,15.965h-1.157v1.703h1.122c0.302,0,0.556-0.025,0.762-0.078
		c0.205-0.052,0.361-0.14,0.47-0.266c0.107-0.126,0.163-0.297,0.163-0.518c0-0.171-0.043-0.322-0.132-0.454
		c-0.086-0.132-0.208-0.229-0.364-0.295C90.293,15.996,90.005,15.965,89.574,15.965 M88.855,18.568h-0.438v1.99
		c0,0.261-0.059,0.454-0.174,0.577c-0.116,0.124-0.267,0.186-0.453,0.186c-0.199,0-0.354-0.064-0.464-0.194
		c-0.11-0.129-0.164-0.318-0.164-0.569v-4.765c0-0.271,0.06-0.466,0.181-0.587c0.122-0.121,0.318-0.182,0.587-0.182h2.04
		c0.281,0,0.523,0.012,0.723,0.036c0.199,0.024,0.38,0.072,0.54,0.146c0.194,0.082,0.366,0.199,0.517,0.35
		c0.149,0.152,0.262,0.328,0.338,0.53c0.078,0.2,0.117,0.414,0.117,0.641c0,0.46-0.129,0.83-0.39,1.105
		c-0.262,0.277-0.657,0.472-1.186,0.587c0.222,0.118,0.436,0.295,0.639,0.525c0.202,0.231,0.383,0.476,0.542,0.737
		c0.158,0.261,0.283,0.496,0.372,0.704c0.088,0.211,0.133,0.355,0.133,0.434c0,0.082-0.027,0.163-0.078,0.244
		c-0.052,0.078-0.122,0.143-0.213,0.19c-0.092,0.047-0.196,0.069-0.313,0.069c-0.14,0-0.26-0.033-0.355-0.099
		s-0.178-0.15-0.246-0.251c-0.07-0.1-0.164-0.25-0.281-0.448l-0.504-0.836c-0.18-0.307-0.342-0.541-0.483-0.702
		c-0.143-0.159-0.286-0.269-0.434-0.328C89.262,18.598,89.077,18.568,88.855,18.568"/>
	<path id="path7984" class="st3" d="M95.027,15.671l2.411,3.65v-3.685c0-0.239,0.052-0.418,0.155-0.537
		c0.101-0.12,0.24-0.18,0.417-0.18c0.18,0,0.321,0.059,0.426,0.179c0.104,0.12,0.156,0.3,0.156,0.539v4.871
		c0,0.545-0.225,0.815-0.676,0.815c-0.112,0-0.213-0.016-0.304-0.048c-0.088-0.033-0.174-0.085-0.254-0.155
		c-0.077-0.07-0.151-0.153-0.219-0.246c-0.069-0.094-0.136-0.191-0.204-0.29l-2.351-3.607v3.628c0,0.237-0.054,0.415-0.164,0.537
		c-0.11,0.121-0.251,0.181-0.423,0.181c-0.178,0-0.32-0.06-0.426-0.182c-0.107-0.123-0.161-0.302-0.161-0.536v-4.776
		c0-0.203,0.024-0.362,0.068-0.477c0.054-0.127,0.141-0.231,0.266-0.312c0.124-0.08,0.258-0.12,0.402-0.12
		c0.112,0,0.208,0.018,0.289,0.054c0.081,0.036,0.151,0.087,0.211,0.149c0.062,0.062,0.122,0.141,0.185,0.24
		C94.893,15.461,94.959,15.563,95.027,15.671"/>
</g>
</svg>
