<?xml version="1.0" encoding="utf-8"?>
<!-- Generator: Adobe Illustrator 22.1.0, SVG Export Plug-In . SVG Version: 6.00 Build 0)  -->
<svg version="1.1" id="Слой_1" xmlns="http://www.w3.org/2000/svg" xmlns:xlink="http://www.w3.org/1999/xlink" x="0px" y="0px"
	 width="559px" height="240px" viewBox="0 0 559 240" style="enable-background:new 0 0 559 240;" xml:space="preserve">
<style type="text/css">
	.st0{fill:#234584;}
	.st1{fill:#0B7BAC;}
	.st2{fill:#040404;}
</style>
<g>
	<path class="st0" d="M35.1,240c3.3-15.6,6.7-31.2,10-46.9c9.4-44.9,18.8-89.9,28.1-134.9c1.2-5.9,3.5-10.6,9.5-12.9
		c3.1-1.2,5.7-3.4,8.7-4.9c2.1-1.1,4.4-1.9,7.4-3.1c-0.2,1.9-0.3,2.7-0.4,3.4c-12,57-24,114-36,171c-0.8,3.6-1.5,7.2-2.1,10.8
		c-0.6,3.7-2.7,6.3-5.9,8.2c-5.1,3-10.2,6.2-15.3,9.3C37.8,240,36.4,240,35.1,240z"/>
	<path class="st1" d="M77.1,0c-2.8,13.7-5.6,27.3-8.5,41C59.4,85.3,50.1,129.5,41,173.8c-0.9,4.5-2.9,8.1-6.7,10.6
		c-3.6,2.4-7.1,4.9-10.7,7.3c-1.3,0.9-2.8,1.5-5.4,2.9c0.6-3.3,0.8-5.3,1.3-7.3c6.6-31.4,13.3-62.7,19.9-94.1
		C44.1,71.1,49,49,53.1,26.8c1.8-9.6,5.5-17.2,14.2-22c2.4-1.3,4.6-3.1,6.9-4.7C75.1,0,76.1,0,77.1,0z"/>
	<path class="st2" d="M257.8,79c9,0,17.9,0,27,0c-3.1,31-6.1,61.7-9.2,93c-7.1,0.1-14.1,0.6-21.2-0.2c3.1-23.9,6.2-47.1,9.2-70.3
		c-0.2,0-0.4,0-0.5,0c-11.9,23.3-23.8,46.5-35.9,70.3c-4.6,0-9.9,0-15.1,0c-3.4-23.4-6.8-46.5-10.4-70.4
		c-5.4,23.8-10.7,46.9-16,70.4c-6.3,0-12.5,0-19.6,0c9.1-30.9,18.1-61.6,27.3-93.1c8.4,0.4,17.4-0.8,26,0.6
		c1.1,11.5,1.9,22.3,3.1,33c1.2,10.7,2.8,21.3,4.3,32.4C236,122.3,249.6,102.2,257.8,79z"/>
	<path class="st2" d="M418,78.8c8.7,0,17.4,0,26.3,0c3.7,31,10.3,61.5,14.4,93c-8.2,1.3-15.6-0.1-23.3,0.4
		c-0.7-8.8-1.4-17.3-2.1-26.2c-10.8,0-21.2,0-32.3,0c-3.6,8.3-7.4,16.9-11.2,25.8c-6.9,0-14,0-22,0c1-2.1,1.6-3.7,2.5-5.2
		c13-23.7,26.1-47.4,39.1-71.2C412.4,90.1,415,84.6,418,78.8z M426.5,93.4c-6.4,12.8-12.4,25-18.5,37.3c8,0,15.5,0,23.5,0
		C429.9,118.4,428.3,106.4,426.5,93.4z"/>
	<path class="st2" d="M111.2,78.9c19,0,38.4,0,58.1,0c-1,5.6-1.9,11-2.9,16.3c-13.3,0-26.3,0-39.8,0c-1.2,8-2.4,16.1-3.7,24.8
		c10.2,0,20.2,0,30.4,0c-1,5-1.9,9.5-2.9,14.4c-10,0-19.7,0-30,0c-2,12.4-4,24.5-6,36.8c-6.6,0-13,0-19.2,0
		C100.5,140.7,105.8,110.1,111.2,78.9z"/>
	<path class="st2" d="M314.2,78.9c6.4,0,13,0,19.7,0c-5.4,31.1-10.8,62-16.2,93c-6.7,0-13.3,0-19.9,0
		C303.3,140.9,308.7,110.2,314.2,78.9z"/>
	<path class="st1" d="M40.2,44.7c-1.5,7.4-2.8,13.7-4,20c-4.2,20.7-8.4,41.3-12.5,62c-1.2,6.1-3.6,11.4-8.7,15.2
		c-3.2,2.4-6.2,5.1-9.4,7.5c-1.4,1.1-3,1.8-5.6,3.3c1.4-6.8,2.5-12.4,3.7-18c4.9-23.4,9.8-46.8,14.6-70.2c0.9-4.5,2.7-8.1,6.3-10.9
		C29.2,50.1,33.8,46.8,40.2,44.7z"/>
	<path class="st2" d="M551.5,125.9c-1.5-0.7-2.2-1.1-3-1.4c-6.2-2.4-10.6-0.8-13.8,5.1c-3.9,7.3-5.1,15.4-6.5,23.4
		c-1.1,6.2-2.1,12.4-3.1,18.9c-5.6,0-11.1,0-17.4,0c3.8-21,7.5-41.8,11.3-62.8c5.1,0,10,0,15.1,0c0,2,0,3.9,0,6.8
		c7.2-8.6,15-11.3,24.9-4.7C556.6,115.8,554.1,120.7,551.5,125.9z"/>
	<path class="st2" d="M488.8,172c-5.9,0-11.5,0-17.8,0c3.1-22.5,7.7-44.4,11.2-66.7c6.1,0,11.9,0,18.4,0
		C496.6,127.6,492.8,149.5,488.8,172z"/>
	<path class="st2" d="M484.4,97.2c0.8-5.5,1.5-10.7,2.2-16.1c5.8,0,11.4,0,17.6,0c-0.9,5.4-1.7,10.6-2.6,16.1
		C495.8,97.2,490.2,97.2,484.4,97.2z"/>
</g>
</svg>
