<?xml version="1.0" encoding="utf-8"?>
<!-- Generator: Adobe Illustrator 22.1.0, SVG Export Plug-In . SVG Version: 6.00 Build 0)  -->
<svg version="1.1"
	 id="svg2" xmlns:cc="http://creativecommons.org/ns#" xmlns:dc="http://purl.org/dc/elements/1.1/" xmlns:rdf="http://www.w3.org/1999/02/22-rdf-syntax-ns#" xmlns:svg="http://www.w3.org/2000/svg"
	 xmlns="http://www.w3.org/2000/svg" xmlns:xlink="http://www.w3.org/1999/xlink" x="0px" y="0px" width="485.294px"
	 height="104.198px" viewBox="0 0 485.294 104.198" enable-background="new 0 0 485.294 104.198" xml:space="preserve">
<g>
	<polygon fill="#006531" points="241.208,68.207 299.254,10.276 306.534,14.297 304.095,20.739 309.214,24.479 324.202,11.021 
		331.015,13.944 340.268,6.123 347.847,10.333 356.465,3.863 364.303,7.948 374.078,0 382.66,6.328 370.139,19.824 301.156,68.247 
		241.208,68.207 	"/>
	<polygon fill="#ED171F" points="421.661,68.267 485.294,8.814 475.87,3.797 465.464,11.486 459.898,8.769 449.285,15.693 
		441.784,11.636 432.716,18.542 426.367,16.212 411.533,27.738 405.37,23.885 412.136,14.847 404.438,10.22 385.933,27.31 
		408.18,68.135 421.661,68.267 	"/>
	<path fill="#FFFF27" d="M301.275,68.191l106.719,0.016c0,0-1.094-46.63-52.274-50.837c0,0-49.802-0.446-54.473,50.143
		L301.275,68.191L301.275,68.191L301.275,68.191z"/>
	<g>
		<path d="M47.566,48.701l20.04,0.036c11.002,0.02,20.187-8.077,20.187-8.077c5.504-4.674,13.575-16.774,13.769-26.391
			c0.214-9.613-12.206-10.584-12.206-10.584L47.455,3.627L37.047,26.77l20.915,0.037l4.394-9.235l13.915,0.019
			c7.844,9.997-7.321,15.099-7.321,15.099l-35.463-0.056L17.188,68.247l21.292-0.075L47.566,48.701z"/>
		<path d="M101.316,49.965c-1.905,17.734,11.266,18.059,11.266,18.059l36.405-0.046l16.102-35.817l-20.725-0.041l-9.46,19.969
			c-17.731,0.912-13.976-6.834-13.976-6.834c12.096-28.63,20.849-28.427,20.849-28.427l30.713,0.048l6.647-14.104l-38.715-0.056
			c-12.124,0.538-19.996,8.451-19.996,8.451C100.972,31.945,101.316,49.965,101.316,49.965z"/>
		<polygon points="182.576,68.08 213.755,23.046 213.689,53.95 199.401,53.919 191.82,68.024 230.655,67.968 230.762,1.788 
			209.477,1.749 160.736,68.044 		"/>
		<rect x="11.589" y="77.462" width="409.869" height="1.155"/>
		<polygon points="101.948,87.079 81.754,87.104 80.851,90.549 87.265,90.539 81.393,103.975 87.331,103.975 93.641,90.529 
			100.896,90.513 		"/>
		<path d="M113.986,99.208c-5.805,2.249-7.658-0.243-7.658-0.243l4.87-11.896h-5.72l-4.833,11.223
			c-1.437,5.685,6.083,5.831,6.083,5.831l7.26-0.021c3.956-0.932,5.149-3.191,5.149-3.191l6.84-14.009l-5.684,0.021L113.986,99.208z
			"/>
		<path d="M136.775,93.488l-1.68,3.84l6.603-0.021l-1.181,2.903l-6.335,0.021c-2.776-0.391-2.376-2.771-2.376-2.771
			c0.775-6.465,6.851-6.743,6.851-6.743l11.746-0.016l1.572-3.819h-16.104c-10.027,1.99-9.618,11.51-9.618,11.51
			c-0.779,4.499,5.161,5.675,5.161,5.675l12.804-0.035l4.723-10.559L136.775,93.488z"/>
		<polygon points="163.575,86.232 166.794,86.232 173.972,82.133 168.666,82.133 		"/>
		<path d="M181.356,97.865l4.819-10.943l-5.367,0.035l-5.217,12.494c-1.444,4.194,3.758,4.615,3.758,4.615l10.031-0.021l1.657-4.393
			l-8.666,0.011C181.069,99.298,181.356,97.865,181.356,97.865z"/>
		<polygon points="201.137,86.881 193.16,104.045 198.976,104.045 207.091,86.875 		"/>
		<polygon points="357.062,86.998 352.369,96.917 348.853,87.079 342.837,87.16 334.738,104.031 340.528,104.01 345.471,93.452 
			348.954,104.198 354.621,104.198 362.684,86.998 		"/>
		<path d="M374.309,90.661l10.158-0.016l1.512-3.577l-12.797,0.036c-9.85,2.573-10.724,11.896-10.724,11.896
			c-0.501,3.577,3.342,4.99,3.342,4.99l12.296-0.015l1.618-3.78l-9.537,0.016c-3.848,0.021-1.532-3.253-1.532-3.253l12.898-0.02
			l1.305-3.648l-12.479,0.036C371.788,90.589,374.309,90.661,374.309,90.661z"/>
		<path d="M386.921,94.384c-0.089,2.934,4.448,3.055,4.448,3.055l8.251-0.021c0.93-0.101,1.205,1.12,1.205,1.12
			c-0.517,1.226-2.325,1.616-2.325,1.616l-13.925,0.04l-1.106,3.871l15.964-0.021c7.521-0.932,7.799-7.26,7.799-7.26
			c0-2.123-2.049-2.848-2.049-2.848l-10.146,0.021c-2.242-0.299-1.842-1.287-1.842-1.287c0-2.011,2.237-1.945,2.237-1.945
			l13.922-0.025l1.505-3.688l-16.547-0.091C386.903,87.347,386.921,94.384,386.921,94.384z"/>
		<polygon points="275.913,86.977 267.946,104.031 273.752,104.031 281.868,86.977 		"/>
		<polygon points="331.731,86.998 323.757,104.045 329.562,104.045 337.679,86.977 		"/>
		<path d="M311.521,97.865l4.826-10.943l-5.384,0.035l-5.208,12.509c-1.446,4.19,3.757,4.61,3.757,4.61l10.034-0.01l1.648-4.413
			l-8.663,0.021C311.23,99.298,311.521,97.865,311.521,97.865z"/>
		<path d="M23.177,86.921L7.841,87.012L0,104.031l5.683-0.021l2.723-5.548l9.926-0.021c6.632-1.504,7.456-5.416,7.456-5.416
			C27.832,88.299,23.177,86.921,23.177,86.921z M16.712,94.663h-6.254l1.46-3.349l6.857-0.021
			C18.776,91.293,20.999,93.051,16.712,94.663z"/>
		<path d="M50.358,88.715c-1.19-2.077-7.754-1.926-7.754-1.926h-0.926c-5.655-0.132-9.052,2.214-9.052,2.214
			c-5.52,3.779-5.897,9.996-5.897,9.996c-0.646,5.046,8.154,5.046,8.154,5.046c10.38-0.015,15.354-6.773,15.354-6.773
			C53.514,90.529,50.358,88.715,50.358,88.715z M37.112,100.155h-0.656c0,0-6.446-0.132-1.987-6.227c0,0,2.22-3.901,6.562-3.506
			c0,0,3.938-0.521,3.687,2.974C44.718,93.396,44.335,98.964,37.112,100.155z"/>
		<path d="M163.166,86.937l-17.102,17.073h5.679l3.692-4.089l9.108-0.01l0.4,4.063h5.806l-1.74-17.038H163.166z M160.13,95.985
			l3.562-3.906l0.414,3.906H160.13z"/>
		<path d="M219.192,86.937L202.09,104.01h5.679l3.692-4.089l9.108-0.01l0.4,4.063h5.806l-1.74-17.038H219.192z M216.156,95.985
			l3.562-3.906l0.414,3.906H216.156z"/>
		<path d="M256.895,86.937l-17.102,17.073h5.679l3.692-4.089l9.108-0.01l0.4,4.063h5.806l-1.74-17.038H256.895z M253.859,95.985
			l3.562-3.906l0.414,3.906H253.859z"/>
		<path d="M74.057,86.861l-15.329,0.03l-7.568,17.154h5.109l3.519-6.702h4.587l1.853,6.688l5.757-0.021l-1.586-6.551
			c6.683-0.674,6.919-6.424,6.919-6.424C77.445,86.861,74.057,86.861,74.057,86.861z M68.034,93.69l-6.282,0.005l1.312-3.126
			l6.143-0.02C69.207,90.549,73.145,91.592,68.034,93.69z"/>
		<path d="M301.179,86.861l-15.329,0.03l-7.568,17.154h5.109l3.519-6.702h4.587l1.853,6.688l5.757-0.021l-1.586-6.551
			c6.683-0.674,6.919-6.424,6.919-6.424C304.568,86.861,301.179,86.861,301.179,86.861z M295.157,93.69l-6.282,0.005l1.312-3.126
			l6.143-0.02C296.33,90.549,300.268,91.592,295.157,93.69z"/>
	</g>
</g>
</svg>
