<?xml version="1.0" encoding="utf-8"?>
<!-- Generator: Adobe Illustrator 22.1.0, SVG Export Plug-In . SVG Version: 6.00 Build 0)  -->
<svg version="1.1" id="Слой_1" xmlns="http://www.w3.org/2000/svg" xmlns:xlink="http://www.w3.org/1999/xlink" x="0px" y="0px"
	 viewBox="0 0 367.5 155.6" style="enable-background:new 0 0 367.5 155.6;" xml:space="preserve">
<style type="text/css">
	.st0{fill:#CFB16E;}
	.st1{fill:#F0E4AE;}
	.st2{fill:#1A355D;}
</style>
<g>
	<path class="st0" d="M58.2,93.7c3.8-2.1,7.5-4.3,11.3-6.4c4.5-2.6,9-5,13.2-8c2.2-1.6,4.4-3.2,6.5-4.8c2.9-2.2,5.7-4.5,8.3-7.1
		c1.4-1.4,3-2.6,4.3-4.1c2.2-2.3,4.3-4.7,6.4-7.1c1.7-2,3.2-4,4.8-6c1-1.3,1.8-2.7,2.7-4.1c0.1-0.2,0.2-0.4,0.4-0.6
		c0.4-0.5,0.9-0.4,1.1,0.2c0.1,0.3,0.2,0.6,0.2,1c0.1,1.2,0.2,2.4,0.2,3.7c0.1,2.2,0.3,4.4,0.1,6.6c-0.1,2.4-0.2,4.9-0.6,7.3
		c-0.2,1.1-0.3,2.2-0.5,3.3c-0.2,1.2-0.5,2.4-0.9,3.5c-0.3,1-0.7,2-1.1,2.9c-0.5,1.2-1,2.4-1.6,3.5c-2.1,3.6-4.6,6.9-7.7,9.7
		c-2.6,2.4-5.4,4.4-8.6,6c-2.2,1.1-4.4,2.2-6.6,3.2c-1.6,0.7-3.4,1.2-5.1,1.7c-1.8,0.6-3.5,1.3-5.3,1.9c-2.1,0.8-4.3,1.5-6.4,2.3
		c-1.2,0.5-2.4,1-3.6,1.6c-1.2,0.6-2.4,1.1-3.6,1.8c-1.9,1.1-3.6,2.3-5.1,3.8c-0.9,1-1.7,2.1-2.4,3.2c-0.5,0.9-0.6,2-0.4,3.1
		c0.2,1.3,0.5,2.6,0.8,3.8c0.5,1.8,0.6,3.6-0.2,5.4c-0.7,1.4-1.9,2.1-3.3,2.4c-2,0.4-4,0.2-6-0.3c-1.4-0.3-2.8-0.5-4.2-0.7
		c-1.2-0.1-2.4-0.1-3.6-0.2c-1.4-0.1-2.7,0.3-3.9,0.9c-1,0.5-1.8,1.3-2.4,2.3c-0.1,0.2-0.2,0.4-0.2,0.7c-0.2,2.2,0.2,4.2,1.4,6
		c1.4,2.2,3.2,3.9,5.2,5.3c3.5,2.6,7.4,4.7,11.5,6.3c2.1,0.8,4.1,1.5,6.3,2c1.1,0.3,2.3,0.4,3.4,0.6c2.7,0.4,5.3,0.4,8,0.4
		c0.2,0,0.4,0,0.5,0c0.1,0.1,0.3,0.4,0.2,0.4c-0.2,0.2-0.4,0.5-0.6,0.6c-1.6,0.7-3.2,1.5-4.8,2c-2,0.6-4,1-6.1,0.9
		c-1.8-0.1-3.6,0-5.5-0.1c-1.3-0.1-2.6-0.4-3.9-0.7c-1.3-0.3-2.7-0.6-4-0.9c-0.6-0.1-1.1-0.3-1.7-0.5c-2.2-0.9-4.4-1.7-6.5-2.7
		c-2.9-1.3-5.6-2.8-8.3-4.4c-2.6-1.6-5.2-3.1-7.7-4.7c-2.2-1.4-4.2-2.9-6.4-4.3c-2-1.2-4-2.5-6.2-3.4c-0.9-0.3-1.7-0.4-2.6-0.2
		c-0.9,0.3-1.3,0.8-1.3,1.7c0,0.7,0.1,1.4,0.1,2.3c-1.8-0.9-3.3-2.1-3.9-4.1c-0.6-2.1-0.1-4,0.8-5.8c1.4-2.7,3.6-4.6,6.1-6.2
		c1.6-1,3.3-1.9,5.1-2.5c2-0.6,4-1.4,6.2-1.4c1,0,2.1-0.2,3.1-0.1c1.6,0.2,3.3,0,4.9,0.5c1,0.3,2,0.3,3,0.5c0.6,0.1,1.3,0.2,1.9,0.4
		c2.6,0.8,5.1,1.6,7.7,2.4c1.2,0.4,2.3,0.6,3.5,0.9c1.1,0.3,2.3,0.7,3.4,1c1.8,0.5,3.6,0.7,5.5,0.6c0.2,0,0.5-0.1,0.5-0.2
		c0-0.2,0-0.6-0.2-0.7c-0.5-0.5-1-0.9-1.6-1.3c-2.7-1.6-5.4-3.1-8.2-4.6c-2.8-1.6-5.6-3.1-8.3-4.7c-1.6-1-2.9-2.2-3.9-3.8
		c-0.7-1.1-1.2-2.3-1.5-3.6c-0.1-0.2-0.1-0.4-0.2-0.6c-0.2-2.1,0-4.1,0.6-6.1c0.8-2.2,1.8-4.4,3.2-6.3c0.9-1.3,1.8-2.6,2.8-3.7
		c2.3-2.5,4.6-4.9,7.1-7.2c3-2.8,6.1-5.5,9.2-8.1c3.3-2.8,6.7-5.4,10.1-8.1c3.6-2.9,7.2-5.7,10.8-8.6c3.6-2.9,7.1-5.9,10.6-8.8
		c1.9-1.6,3.7-3.3,5.6-4.9c1.7-1.5,3.4-3,5.2-4.5c0.1-0.1,0.2-0.2,0.3-0.3c1.9-1.9,3.9-3.7,5.7-5.6c2-2.1,3.9-4.4,5.8-6.7
		c1.8-2.3,3.6-4.5,5.2-6.9c1.6-2.4,3.3-4.9,4.4-7.6c0.7-1.7,1.4-3.4,2.1-5.1c0.3-0.9,0.5-1.9,0.8-2.8c0.1-0.5,0.2-1.2,0.8-1.2
		c0.6,0,0.5,0.8,0.5,1.2c0.2,0.9,0.2,1.9,0.2,2.8c0,2.9,0.1,5.8-0.1,8.6c-0.1,1.6-0.2,3.3-0.6,4.9c-0.3,0.9-0.3,1.9-0.5,2.9
		c-0.2,1.2-0.4,2.5-0.7,3.7c-0.5,2.1-1.1,4.3-1.7,6.4c-0.3,1.2-0.8,2.4-1.2,3.6c-0.7,1.9-1.4,3.9-2.2,5.8c-1.2,2.9-2.5,5.8-4.3,8.5
		c-1.4,2.1-2.8,4.2-4.3,6.3c-1,1.4-2.1,2.7-3.3,4c-1.3,1.5-2.6,3-4.1,4.3c-2.2,2.2-4.4,4.3-6.8,6.3c-1.9,1.5-3.8,3.2-5.7,4.7
		c-2,1.5-4,3-6,4.4c-2.9,2-5.8,3.9-8.8,5.8c-2.5,1.6-5.2,3.1-7.7,4.7c-1.6,1-3.2,2-4.7,3c-0.1,0.1-0.2,0.2-0.3,0.4
		c-0.3,0.2-0.6,0.3-0.9,0.5c-0.1,0-0.1,0.2-0.1,0.3c0.1,0,0.3,0,0.3,0C57.8,94,58,93.8,58.2,93.7z M110,73.1c0,0.3,0,0.5-0.1,0.7
		c-0.6,1-1.2,2-1.9,2.9c-0.8,1.1-1.7,2.2-2.6,3.2c-1.4,1.6-2.8,3.2-4.4,4.5c-1.7,1.4-3.6,2.5-5.4,3.7c-1.8,1.2-3.8,1.9-5.9,2.5
		c-2.6,0.7-5.3,1.2-8.1,1.1c-1,0-1.9,0-2.9,0c-0.7,0-1.4-0.1-2-0.2c-0.7-0.1-1.5-0.3-2.2-0.6c-1.3-0.6-2.7-1.1-3.9-1.9
		c-0.7-0.5-1.4-0.6-2.1-0.2c-0.4,0.2-0.7,0.4-1.1,0.6c-2.5,1.4-4.9,2.7-7.4,4.1c-1.5,0.8-3,1.6-4.4,2.6c-1.4,0.9-2.7,2-4.1,3.1
		c-1.4,1-2.5,2.2-3.4,3.7c-0.8,1.3-1.2,2.6-0.9,4.1c0.5,2.6,1.8,4.7,3.6,6.6c1.3,1.4,2.6,2.8,3.7,4.4c0.8,1.1,1.5,2.4,1.4,3.9
		c-0.1,1-0.8,1.9-1.7,2.2c-1.3,0.4-2.6,0.2-3.9-0.1c-2.2-0.5-4.3-1-6.5-1.6c-1.6-0.4-3.3-0.9-4.9-1.3c-1.7-0.5-3.4-1.1-5-1.6
		c-1.2-0.4-2.5-0.6-3.7-0.9c-1.8-0.5-3.5-0.7-5.3-0.7c-1.3,0-2.6,0-4,0c-0.2,0-0.5,0-0.7,0c-1.6,0.5-3.2,0.5-4.8,1.1
		c-1.2,0.4-2.4,0.9-3.6,1.4c-1.5,0.7-3,1.7-4.3,2.8c-1.7,1.4-3.1,2.9-4.1,4.9c-0.4,0.7-0.6,1.5-0.7,2.3c-0.2,1.5,0.4,2.8,1.5,3.9
		c0.1,0.1,0.4,0.2,0.6,0.3c0.1-0.2,0.3-0.4,0.2-0.6c0-0.8,0.3-1.4,0.9-1.7c1-0.6,2.1-0.8,3.3-0.6c2.7,0.6,5,2.1,7.3,3.6
		c1,0.7,2,1.4,3,2.1c3.4,2.3,6.7,4.6,10.3,6.6c2.5,1.3,5,2.6,7.5,3.9c2.2,1.2,4.6,2.1,6.9,2.9c1.3,0.4,2.6,0.8,3.9,1.1
		c1,0.3,2.1,0.5,3.1,0.7c1,0.2,1.9,0.3,2.9,0.5c0.8,0.1,1.7,0.3,2.5,0.3c1.1,0.1,2.2,0,3.3,0c1.8,0.1,3.5-0.3,5.2-0.6
		c1.3-0.2,2.6-0.6,3.9-1c0.1,0,0.2-0.1,0.2-0.2c0,0-0.1-0.2-0.2-0.2c-0.1-0.1-0.2-0.1-0.4-0.1c-1.8,0-3.6,0.1-5.3,0.2
		c-0.2,0-0.4,0-0.6-0.1c-1.2-0.2-2.3-0.5-3.5-0.7c-2.7-0.5-5.3-1.4-7.9-2.4c-1.5-0.6-3-1.3-4.5-2c-2.9-1.3-5.5-3-7.8-5
		c-2.8-2.5-4.7-5.5-5.6-9.2c-0.3-1.4-0.1-2.6,0.5-3.9c0.6-1.4,1.7-2.3,3-3c2-0.9,4.1-1.3,6.2-0.8c1.7,0.3,3.4,0.7,5.1,1
		c0.9,0.2,1.8,0.2,2.6,0.5c1.1,0.3,2.2,0.4,3.3,0.3c1.4-0.2,2.6-0.8,3.2-2.2c1-2.1,0.7-4.3-0.4-6.3c-0.8-1.4-1.8-2.6-2.8-3.8
		c-1.2-1.6-2.5-3.2-3.6-4.8c-1.2-1.8-1.2-3.7,0.1-5.4c0.7-0.9,1.4-1.9,2.4-2.5c2-1.5,4.1-2.9,6.3-4.2c2.9-1.7,5.9-3.3,8.8-5
		c0.5-0.3,1-0.3,1.5,0c1.5,0.9,3.2,1.5,4.9,1.9c1.8,0.4,3.7,0.8,5.5,0.7c1.3-0.1,2.6-0.1,3.8-0.2c0.6,0,1.2-0.1,1.8-0.2
		c1.8-0.4,3.5-0.7,5.3-1.2c2.1-0.6,4.2-1.3,6-2.6c1.3-0.9,2.7-1.8,4-2.7c1.4-1.1,2.8-2.3,4.2-3.5c0.8-0.7,1.4-1.5,2.1-2.3
		c0.9-1,1.8-2,2.5-3.1c2.2-3.2,3.9-6.6,4.9-10.4c0.7-2.7,0.9-5.5,1.3-8.2c0.2-1.5,0.3-3,0.4-4.5c0.1-2.4,0.2-4.8,0.2-7.2
		c0-0.4-0.2-0.9-0.3-1.5c-0.2,0.3-0.4,0.4-0.4,0.5c-0.5,0.9-1,1.8-1.5,2.6c-1.1,1.7-2.1,3.5-3.4,5.1c-1.3,1.5-2.6,3.1-3.9,4.7
		c-0.4,0.5-0.8,1-1.2,1.4c-2.2,2.1-4.3,4.2-6.5,6.3c-1.1,1-2.1,2-2.9,3.2c-0.8,1.2-1,2.6-0.6,4c0.3,0.9,1.5,2.3,2.7,2.4
		c2.4,0.2,4.7-0.1,6.9-1.3C106.8,74.9,108.3,74,110,73.1z M120.4,2.2c0,0-0.1,0-0.1,0c-0.1,0.2-0.2,0.4-0.3,0.6
		c-0.2,1.8-0.3,3.6-0.4,5.4c-0.1,0.9-0.2,1.8-0.3,2.7c-0.1,1-0.3,2-0.5,3c-0.3,1.8-0.5,3.6-0.9,5.4c-0.3,1.6-0.7,3.3-1.2,4.9
		c-0.8,2.8-1.7,5.6-2.7,8.4c-1.4,4-3.2,7.9-5.3,11.6c-1.8,3.2-3.9,6.2-6.1,9.2c-1.9,2.4-4,4.7-6,6.9c-1.1,1.2-2.4,2.4-3.7,3.5
		c-1.8,1.7-3.7,3.4-5.6,5c-1.8,1.5-3.6,3-5.4,4.4c-2.5,1.9-5.1,3.7-7.7,5.4c-2.8,1.9-5.7,3.6-8.5,5.4c-2.2,1.4-4.5,2.8-6.7,4.3
		c-1.3,0.8-2.6,1.7-3.9,2.5c-1.6,1.1-3.3,2.1-4.9,3.3C49,94.9,48,96,47,97c-2,2-3.5,4.4-4.1,7.3c-0.3,1.5-0.4,3,0,4.6
		c0.5,1.9,1.9,3.2,3.2,4.5c0.2,0.2,0.4,0.3,0.6,0.5c0.1,0.1,0.1,0.3,0.2,0.4c-0.2,0-0.4,0.1-0.5,0c-1.2-0.7-2.3-1.3-3.5-2.1
		c-2.4-1.7-5-3.2-6.9-5.4c-1.2-1.4-1.7-3-1.5-4.7c0.3-2.3,1.3-4.5,2.5-6.5c0.9-1.5,1.9-3,3-4.5c1.2-1.6,2.5-3.2,3.9-4.7
		c2.9-3,5.8-5.9,8.9-8.6c1-0.8,1.9-1.6,2.9-2.4c1.5-1.2,3.1-2.5,4.6-3.7c1.3-1.1,2.6-2.2,3.9-3.3c1.3-1.1,2.6-2.1,3.9-3.1
		c1.2-1,2.5-2,3.7-3c1.1-0.9,2.3-1.8,3.4-2.7c1.4-1.2,2.8-2.3,4.1-3.5c1.3-1.1,2.7-2.2,4-3.4c0.9-0.8,1.8-1.8,2.7-2.7
		c2.1-1.9,3.7-4.2,4.9-6.7c0.1-0.2,0-0.4,0.1-0.5c-0.2,0.1-0.4,0.1-0.5,0.2c-0.9,0.7-1.7,1.4-2.6,2.2c-1,0.9-2.1,1.8-3.1,2.7
		c-1,0.9-2.1,1.8-3.1,2.7c-1.3,1-2.6,2.1-3.8,3.1c-1.1,0.9-2.2,1.8-3.3,2.7c-1.1,0.9-2.2,1.8-3.4,2.8c-1.1,0.9-2.1,1.9-3.2,2.8
		c-1.4,1.2-2.8,2.3-4.3,3.5c-1.3,1.1-2.6,2.2-3.9,3.3c-1.4,1.2-2.8,2.3-4.2,3.4c-0.9,0.8-1.9,1.6-2.8,2.3c-1.2,1-2.4,2-3.5,3
		c-1,0.9-2,1.8-3,2.8c-0.5,0.5-1,0.9-1.5,1.4c-1.2,1.1-2.4,2.1-3.5,3.3c-1,1-1.9,2-2.8,3.1c-0.8,1-1.7,1.9-2.3,2.9
		c-1,1.5-1.9,3.1-2.8,4.8c-1.2,2.3-1.9,4.7-1.8,7.4c0,1.7,0.5,3.1,1.4,4.4c0.9,1.4,2.2,2.7,3.7,3.6c2.1,1.3,4.3,2.5,6.5,3.7
		c2.2,1.3,4.5,2.4,6.7,3.8c1.5,0.9,3,1.7,4.2,3c0.1,0.1,0.3,0.1,0.5,0.2c0-0.2,0.2-0.4,0.1-0.6c-0.2-0.6-0.3-1.1-0.6-1.7
		c-1-1.9-2.6-3.3-4.1-4.6c-1.2-1-2.2-2.1-3.2-3.4c-1-1.4-1.4-2.9-1.8-4.5c-0.1-0.3-0.1-0.7,0-1c0.3-1.3,0.6-2.5,1.3-3.7
		c1.2-2.2,2.9-4,4.9-5.4c3.3-2.5,6.8-4.6,10.3-6.9c4-2.6,8.1-5.2,12-7.8c3-2,5.9-4,8.8-6c1-0.7,2-1.4,3-2.2c1.7-1.4,3.4-2.8,5-4.2
		c1.7-1.5,3.5-3,5.2-4.6c2.3-2.2,4.5-4.4,6.5-6.9c1.1-1.4,2.4-2.6,3.4-4.1c1.5-2.2,3.2-4.4,4.4-6.9c1.3-2.7,2.8-5.3,4-8
		c1.9-4.1,3-8.4,4.2-12.8c0.2-0.6,0.3-1.3,0.4-1.9c0.2-0.9,0.4-1.9,0.5-2.8c0.2-1.3,0.5-2.5,0.7-3.8c0.2-1.3,0.3-2.5,0.4-3.8
		c0.2-1.5,0.5-2.9,0.5-4.4c0.1-2.2,0-4.4,0-6.6C120.5,2.9,120.4,2.5,120.4,2.2z M107.1,31.1c0.1-1.1-0.3-2.1-1-3
		c-0.1-0.2-0.3-0.5-0.6-0.1c-0.6,0.7-1.3,1.5-2,2.2c-0.3,0.4-0.3,0.6,0,0.9c1,1,1.3,2.2,1,3.6c0,0.1,0,0.4,0.1,0.4
		c0.2,0,0.4,0,0.5-0.1C106.4,34,107,32.7,107.1,31.1z M99.9,37.8c-0.1,0.4-0.1,0.8-0.2,1.3c0,0.2,0,0.4,0,0.5c0.2,0,0.4-0.1,0.5-0.1
		c1.8-1.1,2.6-3.3,2.2-5.4c-0.1-0.5-0.3-1-0.5-1.4c-0.2-0.4-0.5-0.5-0.8-0.2c-0.7,0.7-1.3,1.4-2,2.2c-0.3,0.3-0.3,0.6,0,0.9
		C99.8,36.2,100,36.9,99.9,37.8z M56.7,106.8c0.3,0.6,0.6,1.5,1,2.4c0.1,0.3,0.4,0.3,0.6,0c0.5-0.9,1.3-1.5,2.1-2.2
		c0.3-0.2,0.4-0.4,0.1-0.7c-1-1-1.4-2.3-1-3.7c0-0.1-0.1-0.3-0.2-0.4c-0.1-0.1-0.3,0-0.4,0.1C57.5,103.3,56.9,104.7,56.7,106.8z
		 M109.5,23c-0.7,0.9-1.4,1.7-2,2.5c-0.3,0.3-0.3,0.6,0,0.8c0.9,0.7,1.3,1.7,1.3,2.8c0,0.3-0.1,0.9,0.3,0.9c0.3,0,0.7-0.4,0.9-0.6
		c0.9-1.3,1.2-2.8,0.8-4.4C110.6,24.2,110.1,23.5,109.5,23z M63.1,99.6c-0.3,0.2-0.4,0.2-0.5,0.3c-1.2,1.1-1.8,2.3-1.7,4
		c0.1,0.6,0.1,1.2,0.4,1.8c0.3,0.4,0.5,0.5,0.9,0.2c0.6-0.5,1.2-0.9,1.8-1.3c0.5-0.3,0.5-0.5,0.2-0.9c-0.7-0.9-1.2-1.9-1.1-3.1
		C63.1,100.3,63.1,100,63.1,99.6z"/>
	<path class="st1" d="M110,73.1c-1.7,0.9-3.2,1.8-4.8,2.7c-2.1,1.2-4.5,1.5-6.9,1.3c-1.1-0.1-2.4-1.5-2.7-2.4
		c-0.4-1.4-0.2-2.8,0.6-4c0.8-1.2,1.8-2.2,2.9-3.2c2.2-2,4.4-4.2,6.5-6.3c0.4-0.4,0.8-0.9,1.2-1.4c1.3-1.6,2.6-3.1,3.9-4.7
		c1.3-1.5,2.3-3.3,3.4-5.1c0.5-0.8,1-1.7,1.5-2.6c0.1-0.1,0.2-0.2,0.4-0.5c0.1,0.6,0.3,1.1,0.3,1.5c0,2.4-0.1,4.8-0.2,7.2
		c-0.1,1.5-0.2,3-0.4,4.5c-0.3,2.8-0.5,5.5-1.3,8.2c-1,3.8-2.7,7.2-4.9,10.4c-0.8,1.1-1.7,2.1-2.5,3.1c-0.7,0.8-1.3,1.6-2.1,2.3
		c-1.3,1.2-2.7,2.4-4.2,3.5c-1.3,1-2.7,1.8-4,2.7c-1.8,1.3-3.9,2-6,2.6c-1.7,0.5-3.5,0.8-5.3,1.2c-0.6,0.1-1.2,0.2-1.8,0.2
		c-1.3,0.1-2.6,0.1-3.8,0.2c-1.9,0.1-3.7-0.3-5.5-0.7c-1.7-0.4-3.4-1-4.9-1.9c-0.5-0.3-1-0.3-1.5,0c-2.9,1.7-5.9,3.3-8.8,5
		c-2.2,1.3-4.3,2.7-6.3,4.2c-0.9,0.7-1.7,1.6-2.4,2.5c-1.3,1.8-1.3,3.6-0.1,5.4c1.1,1.7,2.4,3.2,3.6,4.8c0.9,1.3,2,2.5,2.8,3.8
		c1.1,2,1.3,4.1,0.4,6.3c-0.6,1.3-1.8,2-3.2,2.2c-1.1,0.1-2.2,0-3.3-0.3c-0.8-0.2-1.7-0.3-2.6-0.5c-1.7-0.3-3.4-0.7-5.1-1
		c-2.2-0.4-4.2-0.1-6.2,0.8c-1.3,0.6-2.4,1.6-3,3c-0.6,1.3-0.8,2.5-0.5,3.9c0.8,3.7,2.8,6.7,5.6,9.2c2.4,2.1,5,3.7,7.8,5
		c1.5,0.7,3,1.4,4.5,2c2.6,1,5.1,1.9,7.9,2.4c1.2,0.2,2.3,0.5,3.5,0.7c0.2,0,0.4,0.1,0.6,0.1c1.8,0,3.6-0.1,5.3-0.2
		c0.1,0,0.3,0,0.4,0.1c0.1,0,0.2,0.2,0.2,0.2c0,0.1-0.1,0.2-0.2,0.2c-1.3,0.3-2.6,0.7-3.9,1c-1.7,0.3-3.4,0.7-5.2,0.6
		c-1.1,0-2.2,0-3.3,0c-0.8,0-1.7-0.2-2.5-0.3c-1-0.1-1.9-0.3-2.9-0.5c-1.1-0.2-2.1-0.5-3.1-0.7c-1.3-0.4-2.6-0.7-3.9-1.1
		c-2.4-0.8-4.7-1.7-6.9-2.9c-2.5-1.3-5-2.6-7.5-3.9c-3.6-1.9-6.9-4.3-10.3-6.6c-1-0.7-1.9-1.5-3-2.1c-2.3-1.5-4.6-3-7.3-3.6
		c-1.2-0.3-2.3,0-3.3,0.6c-0.6,0.4-1,1-0.9,1.7c0,0.2-0.2,0.4-0.2,0.6c-0.2-0.1-0.4-0.1-0.6-0.3c-1.1-1.1-1.7-2.3-1.5-3.9
		c0.1-0.8,0.3-1.6,0.7-2.3c1-1.9,2.5-3.5,4.1-4.9c1.3-1.1,2.8-2,4.3-2.8c1.2-0.6,2.4-1,3.6-1.4c1.6-0.5,3.2-0.6,4.8-1.1
		c0.2-0.1,0.5,0,0.7,0c1.3,0,2.6,0,4,0c1.8,0,3.6,0.3,5.3,0.7c1.2,0.3,2.5,0.5,3.7,0.9c1.7,0.5,3.4,1.1,5,1.6
		c1.6,0.5,3.3,0.9,4.9,1.3c2.2,0.5,4.3,1.1,6.5,1.6c1.3,0.3,2.6,0.4,3.9,0.1c0.9-0.3,1.7-1.2,1.7-2.2c0.1-1.5-0.6-2.8-1.4-3.9
		c-1.1-1.6-2.4-3-3.7-4.4c-1.7-1.9-3.1-4-3.6-6.6c-0.3-1.5,0.1-2.9,0.9-4.1c0.9-1.5,2.1-2.6,3.4-3.7c1.4-1,2.7-2.1,4.1-3.1
		c1.4-0.9,2.9-1.7,4.4-2.6c2.5-1.4,4.9-2.7,7.4-4.1c0.4-0.2,0.7-0.4,1.1-0.6c0.7-0.3,1.4-0.2,2.1,0.2c1.2,0.8,2.6,1.3,3.9,1.9
		c0.7,0.3,1.4,0.4,2.2,0.6c0.7,0.1,1.4,0.2,2,0.2c1,0,1.9,0,2.9,0c2.8,0.1,5.4-0.4,8.1-1.1c2.1-0.6,4.1-1.3,5.9-2.5
		c1.8-1.2,3.7-2.3,5.4-3.7c1.6-1.3,3-3,4.4-4.5c0.9-1,1.8-2.1,2.6-3.2c0.7-0.9,1.3-1.9,1.9-2.9C110,73.6,110,73.3,110,73.1z
		 M50.1,150.3c0-0.1,0-0.1,0-0.2c-1.2-0.5-2.4-0.9-3.5-1.5c-1.6-0.8-3.2-1.7-4.8-2.8c-1.6-1.1-3.2-2.2-4.6-3.5c-1-0.9-2-1.9-2.8-3
		c-1.1-1.5-1.8-3.2-2.5-5c-0.6-1.5-0.9-3.1-1.3-4.6c-0.4-1.3-0.9-2.7-1.4-3.9c-0.7-1.6-1.8-3-3.1-4.1c-0.6-0.5-1.3-1-2-1.3
		c-2-0.8-4.1-0.9-6.2-0.6c-0.7,0.1-1.5,0.2-2.2,0.5c-1.8,0.6-3.5,1.4-5.1,2.5c-2,1.4-3.8,2.9-4.8,5.2c-0.1,0.3-0.2,0.5-0.2,0.8
		c-0.1,0.4,0.1,0.5,0.5,0.5c1.2-0.1,2.4-0.1,3.6-0.2c0.2,0,0.4,0,0.6,0.1c1,0.4,2,0.7,3,1.1c1.3,0.6,2.6,1.4,3.9,2.2
		c1.6,1.1,3.2,2.3,4.8,3.4c3.2,2.2,6.4,4.3,9.7,6.2c2.2,1.3,4.4,2.6,6.6,3.8c1.9,1,3.9,1.8,5.9,2.6c1.7,0.7,3.4,1.2,5.1,1.8
		C49.7,150.3,49.9,150.3,50.1,150.3z M100.7,74.5c0.7-0.2,1.4-0.2,2-0.5c1.1-0.4,2.2-0.9,3.2-1.5c1.6-0.9,3.1-1.9,4.1-3.4
		c0.5-0.7,0.4-1-0.4-1.3c-1.1-0.4-2.3-0.4-3.3-0.2c-2.2,0.4-4.5,1.1-6.4,2.5c-0.6,0.4-1.1,1-1.5,1.5c-0.4,0.5-0.3,1.4,0.1,1.9
		C99.1,74.4,99.9,74.5,100.7,74.5z M105.6,64.8c0,0.1,0.1,0.2,0.1,0.2c0.3,0,0.6,0,0.8,0c0.5,0,1.1-0.2,1.6-0.1
		c1.1,0.1,2.1,0.4,3.2,0.6c0.9,0.2,1,0.2,1.3-0.7c0.2-0.8,0.5-1.6,0.6-2.5c0.1-0.9,0.2-1.8,0.2-2.6c0.1-1,0.1-2.1,0.2-3.1
		c0-0.1-0.1-0.4-0.2-0.4c-0.2,0-0.4,0.1-0.5,0.2c-0.7,0.8-1.3,1.6-2,2.3c-1.3,1.5-2.5,2.9-3.8,4.4C106.6,63.7,106.1,64.3,105.6,64.8
		z"/>
	<path class="st1" d="M120.4,2.2c0.1,0.3,0.2,0.7,0.2,1c0,2.2,0.1,4.4,0,6.6c-0.1,1.5-0.3,2.9-0.5,4.4c-0.2,1.3-0.3,2.5-0.4,3.8
		c-0.2,1.3-0.4,2.5-0.7,3.8c-0.2,0.9-0.3,1.9-0.5,2.8c-0.1,0.6-0.3,1.3-0.4,1.9c-1.2,4.3-2.3,8.7-4.2,12.8c-1.2,2.7-2.7,5.3-4,8
		c-1.2,2.4-2.9,4.6-4.4,6.9c-1,1.5-2.3,2.7-3.4,4.1c-2,2.5-4.3,4.7-6.5,6.9c-1.7,1.6-3.4,3.1-5.2,4.6c-1.6,1.4-3.3,2.8-5,4.2
		c-1,0.8-2,1.5-3,2.2c-2.9,2-5.8,4.1-8.8,6c-4,2.6-8,5.2-12,7.8c-3.5,2.3-7,4.4-10.3,6.9c-1.9,1.4-3.6,3.2-4.9,5.4
		c-0.7,1.2-0.9,2.4-1.3,3.7c-0.1,0.3-0.1,0.7,0,1c0.4,1.6,0.8,3.2,1.8,4.5c0.9,1.3,2,2.4,3.2,3.4c1.6,1.4,3.1,2.7,4.1,4.6
		c0.3,0.5,0.4,1.1,0.6,1.7c0.1,0.2-0.1,0.4-0.1,0.6c-0.2-0.1-0.4-0.1-0.5-0.2c-1.2-1.3-2.8-2.1-4.2-3c-2.2-1.3-4.4-2.5-6.7-3.8
		c-2.2-1.2-4.3-2.4-6.5-3.7c-1.5-0.9-2.7-2.1-3.7-3.6c-0.9-1.3-1.4-2.8-1.4-4.4c-0.1-2.7,0.6-5.1,1.8-7.4c0.8-1.6,1.8-3.2,2.8-4.8
		c0.7-1,1.5-2,2.3-2.9c0.9-1.1,1.8-2.1,2.8-3.1c1.1-1.1,2.4-2.2,3.5-3.3c0.5-0.5,1-0.9,1.5-1.4c1-0.9,2-1.9,3-2.8c1.2-1,2.4-2,3.5-3
		c0.9-0.8,1.9-1.6,2.8-2.3c1.4-1.2,2.8-2.3,4.2-3.4c1.3-1.1,2.6-2.2,3.9-3.3c1.4-1.2,2.9-2.3,4.3-3.5c1.1-0.9,2.1-1.9,3.2-2.8
		c1.1-0.9,2.2-1.8,3.4-2.8c1.1-0.9,2.2-1.8,3.3-2.7c1.3-1,2.6-2,3.8-3.1c1.1-0.9,2.1-1.8,3.1-2.7c1-0.9,2.1-1.8,3.1-2.7
		c0.8-0.7,1.7-1.5,2.6-2.2c0.1-0.1,0.3-0.1,0.5-0.2c0,0.2,0,0.4-0.1,0.5c-1.2,2.6-2.8,4.8-4.9,6.7c-0.9,0.9-1.8,1.8-2.7,2.7
		c-1.3,1.2-2.6,2.3-4,3.4c-1.4,1.2-2.8,2.3-4.1,3.5c-1.1,0.9-2.2,1.8-3.4,2.7c-1.2,1-2.5,2-3.7,3c-1.3,1-2.6,2.1-3.9,3.1
		c-1.3,1.1-2.6,2.2-3.9,3.3c-1.5,1.3-3.1,2.5-4.6,3.7c-1,0.8-1.9,1.6-2.9,2.4c-3.2,2.7-6.1,5.6-8.9,8.6c-1.4,1.5-2.7,3.1-3.9,4.7
		c-1.1,1.4-2.1,2.9-3,4.5c-1.2,2-2.1,4.2-2.5,6.5c-0.3,1.7,0.3,3.3,1.5,4.7c2,2.3,4.5,3.8,6.9,5.4c1.1,0.8,2.3,1.4,3.5,2.1
		c0.1,0.1,0.4,0,0.5,0c-0.1-0.1-0.1-0.3-0.2-0.4c-0.2-0.2-0.4-0.3-0.6-0.5c-1.3-1.3-2.7-2.6-3.2-4.5c-0.4-1.5-0.4-3,0-4.6
		c0.6-2.8,2.1-5.2,4.1-7.3c1-1,2-2.1,3.2-3c1.6-1.2,3.3-2.2,4.9-3.3c1.3-0.9,2.6-1.7,3.9-2.5c2.2-1.4,4.4-2.9,6.7-4.3
		c2.8-1.8,5.7-3.5,8.5-5.4c2.6-1.7,5.2-3.5,7.7-5.4c1.9-1.4,3.7-2.9,5.4-4.4c1.9-1.6,3.8-3.3,5.6-5c1.2-1.1,2.5-2.2,3.7-3.5
		c2.1-2.3,4.2-4.5,6-6.9c2.2-2.9,4.3-6,6.1-9.2c2.1-3.7,3.9-7.6,5.3-11.6c1-2.8,1.9-5.6,2.7-8.4c0.5-1.6,0.8-3.2,1.2-4.9
		c0.4-1.8,0.6-3.6,0.9-5.4c0.2-1,0.3-2,0.5-3c0.1-0.9,0.3-1.8,0.3-2.7c0.2-1.8,0.3-3.6,0.4-5.4c0-0.2,0.2-0.4,0.3-0.6
		C120.3,2.2,120.3,2.2,120.4,2.2z"/>
	<path class="st1" d="M107.1,31.1c0,1.6-0.7,2.9-1.9,3.9c-0.1,0.1-0.3,0.1-0.5,0.1c-0.1,0-0.1-0.3-0.1-0.4c0.3-1.4,0-2.6-1-3.6
		c-0.3-0.3-0.4-0.6,0-0.9c0.7-0.7,1.3-1.5,2-2.2c0.3-0.3,0.5,0,0.6,0.1C106.7,29,107.1,29.9,107.1,31.1z"/>
	<path class="st1" d="M99.9,37.8c0.1-0.9-0.1-1.6-0.7-2.3c-0.2-0.3-0.2-0.6,0-0.9c0.7-0.7,1.3-1.5,2-2.2c0.3-0.3,0.6-0.2,0.8,0.2
		c0.2,0.5,0.4,0.9,0.5,1.4c0.4,2.1-0.4,4.3-2.2,5.4c-0.2,0.1-0.4,0.1-0.5,0.1c0-0.2-0.1-0.4,0-0.5C99.8,38.6,99.9,38.2,99.9,37.8z"
		/>
	<path class="st1" d="M56.7,106.8c0.1-2,0.8-3.5,2.2-4.5c0.1-0.1,0.3-0.1,0.4-0.1c0.1,0.1,0.2,0.3,0.2,0.4c-0.4,1.4,0,2.7,1,3.7
		c0.3,0.3,0.2,0.5-0.1,0.7c-0.8,0.6-1.6,1.3-2.1,2.2c-0.2,0.3-0.5,0.3-0.6,0C57.3,108.3,57,107.4,56.7,106.8z"/>
	<path class="st1" d="M109.5,23c0.7,0.5,1.1,1.2,1.3,2c0.4,1.6,0.1,3-0.8,4.4c-0.2,0.3-0.6,0.7-0.9,0.6c-0.4-0.1-0.3-0.6-0.3-0.9
		c0-1.1-0.4-2.1-1.3-2.8c-0.3-0.3-0.3-0.5,0-0.8C108.1,24.6,108.7,23.8,109.5,23z"/>
	<path class="st1" d="M63.1,99.6c0,0.4,0.1,0.7,0,0.9c-0.1,1.2,0.3,2.2,1.1,3.1c0.4,0.4,0.3,0.6-0.2,0.9c-0.6,0.4-1.2,0.9-1.8,1.3
		c-0.4,0.3-0.6,0.3-0.9-0.2c-0.3-0.5-0.4-1.2-0.4-1.8c-0.1-1.6,0.5-2.9,1.7-4C62.7,99.8,62.8,99.8,63.1,99.6z"/>
	<path class="st0" d="M50.1,150.3c-0.2,0-0.5,0.1-0.7,0c-1.7-0.6-3.4-1.2-5.1-1.8c-2-0.8-4-1.6-5.9-2.6c-2.3-1.2-4.4-2.5-6.6-3.8
		c-3.3-1.9-6.6-4-9.7-6.2c-1.6-1.1-3.2-2.3-4.8-3.4c-1.2-0.8-2.5-1.5-3.9-2.2c-1-0.5-2-0.8-3-1.1c-0.2-0.1-0.4-0.1-0.6-0.1
		c-1.2,0.1-2.4,0.1-3.6,0.2c-0.4,0-0.6-0.1-0.5-0.5c0-0.3,0.1-0.6,0.2-0.8c1-2.3,2.8-3.8,4.8-5.2c1.6-1.1,3.3-1.9,5.1-2.5
		c0.7-0.2,1.5-0.4,2.2-0.5c2.1-0.3,4.2-0.2,6.2,0.6c0.7,0.3,1.4,0.8,2,1.3c1.3,1.1,2.5,2.5,3.1,4.1c0.5,1.3,1,2.6,1.4,3.9
		c0.4,1.5,0.8,3.1,1.3,4.6c0.7,1.8,1.4,3.4,2.5,5c0.8,1.1,1.8,2.1,2.8,3c1.4,1.3,3,2.4,4.6,3.5c1.5,1,3.1,1.9,4.8,2.8
		c1.1,0.6,2.3,1,3.5,1.5C50.2,150.2,50.1,150.2,50.1,150.3z M15.8,123.1c-1.3-0.1-2.6,0.1-3.9,0.8c-1,0.5-1.8,1.2-2.2,2.4
		c-0.1,0.4,0,0.7,0.4,1c1,0.8,3.4,0.6,4.6-0.2c1.3-0.8,2.1-2,2.9-3.3c0.3-0.5,0.2-0.7-0.4-0.7C16.8,123.1,16.3,123.1,15.8,123.1z"/>
	<path class="st0" d="M100.7,74.5c-0.8-0.1-1.6-0.1-2.1-0.9c-0.4-0.6-0.5-1.4-0.1-1.9c0.4-0.6,0.9-1.1,1.5-1.5
		c1.9-1.4,4.1-2,6.4-2.5c1.1-0.2,2.2-0.2,3.3,0.2c0.8,0.3,0.9,0.6,0.4,1.3c-1.1,1.5-2.6,2.5-4.1,3.4c-1,0.6-2.1,1-3.2,1.5
		C102.1,74.3,101.4,74.4,100.7,74.5z"/>
	<path class="st0" d="M105.6,64.8c0.5-0.6,1-1.1,1.5-1.7c1.3-1.5,2.5-2.9,3.8-4.4c0.7-0.8,1.3-1.6,2-2.3c0.1-0.1,0.3-0.2,0.5-0.2
		c0.1,0,0.2,0.3,0.2,0.4c0,1-0.1,2.1-0.2,3.1c-0.1,0.9-0.1,1.8-0.2,2.6c-0.1,0.8-0.4,1.7-0.6,2.5c-0.3,0.8-0.4,0.9-1.3,0.7
		c-1.1-0.2-2.1-0.5-3.2-0.6c-0.5-0.1-1,0.1-1.6,0.1c-0.3,0-0.6,0-0.8,0C105.7,65,105.7,64.9,105.6,64.8z"/>
	<path class="st1" d="M15.8,123.1c0.6,0,1,0,1.4,0c0.6,0,0.7,0.2,0.4,0.7c-0.8,1.3-1.6,2.5-2.9,3.3c-1.2,0.8-3.5,1-4.6,0.2
		c-0.4-0.3-0.5-0.6-0.4-1c0.3-1.2,1.2-1.9,2.2-2.4C13.2,123.3,14.5,123,15.8,123.1z"/>
</g>
<g>
	<path class="st2" d="M270.4,121.6c4.3,0,8.5,0,12.8,0c2.1,0,3.2,1.7,2.2,3.6c-0.4,0.8-1.2,1-2.1,1c-3.9,0-7.8,0-11.8,0
		c-4.7,0-9.3,0-14,0c-0.9,0-1.3,0.2-1.3,1.2c0.1,1.1,0,2.1,0,3.2c0,1.9,0.8,3,2.7,3.4c1.4,0.3,2.8,0.5,4.3,0.5
		c6.6,0.1,13.2,0.1,19.8,0c2.7,0,2.7,1.4,2.4,3.2c-0.2,1-0.9,1.4-2.2,1.4c-6.4,0-12.8,0.1-19.2,0c-2,0-4-0.3-6-0.6
		c-1.3-0.2-2.6-0.8-3.8-1.4c-2.5-1.3-3.6-3.4-3.6-6.1c0-4.8,0-9.6,0-14.5c0-3.2,1.7-5.3,4.4-6.7c2.4-1.2,5-1.6,7.6-1.6
		c6.9-0.1,13.8,0,20.7,0c0.8,0,1.7,0.1,1.9,0.9c0.2,1,0.2,2,0,3c-0.1,0.3-1.1,0.7-1.7,0.7c-6.3,0-12.6,0-18.9,0
		c-1.6,0-3.2,0.2-4.8,0.4c-0.8,0.1-1.6,0.4-2.3,0.8c-1,0.5-1.5,1.3-1.4,2.5c0,1.4,0,2.7,0,4.1c0,0.8,0.2,1,1,1
		C261.6,121.6,266,121.6,270.4,121.6z"/>
	<path class="st2" d="M308.6,121.6c4.3,0,8.5,0,12.8,0c1.8,0,2.5,0.6,2.5,2.2c0,1.6-0.8,2.4-2.6,2.4c-8.5,0-16.9,0-25.4,0
		c-1.4,0-1.4,0-1.4,1.4c0,1.1,0,2.3,0,3.4c0,1.3,0.6,2.2,1.7,2.7c1.6,0.8,3.4,0.9,5.1,0.9c6.7,0,13.3,0,20,0c2.1,0,3.1,1.7,2.1,3.7
		c-0.4,0.8-1.2,1-2,1c-6.6,0-13.1,0-19.7,0c-2.4,0-4.7-0.2-6.9-1c-1.2-0.5-2.5-1-3.5-1.8c-1.6-1.2-2.4-2.8-2.4-4.9
		c0-5.1,0-10.2,0-15.4c0-3,2-5.5,5.2-6.7c2.3-0.9,4.7-1.3,7.2-1.3c6.7,0,13.5,0,20.2,0c0.8,0,1.6,0.1,2,0.8c0.5,1,0.7,2.1,0,3.1
		c-0.3,0.4-1.1,0.7-1.6,0.7c-2.3,0.1-4.7,0-7,0c-4.5,0-9-0.1-13.5,0c-1.6,0-3.2,0.4-4.8,0.8c-1.5,0.4-2.2,1.5-2.2,3
		c0,1.3,0,2.5,0,3.8c0,0.9,0.3,1.2,1.2,1.2C299.9,121.6,304.3,121.6,308.6,121.6z"/>
	<path class="st2" d="M101.3,108.2c3.6,0,7.2,0,10.8,0c0.9,0,1.7,0.2,2,1.1c0.4,0.9,0.1,2.7-0.5,3.1c-0.5,0.3-1.2,0.4-1.8,0.4
		c-6.7,0-13.5,0-20.2,0.1c-1.7,0-3.4,0.4-5,0.8c-1.9,0.5-2.4,1.5-2.3,3.8c0,1.8,0.6,2.7,2.4,3.1c1.7,0.4,3.4,0.6,5.2,0.6
		c4.2,0.1,8.5,0,12.7,0.3c2.8,0.2,5.4,1.1,7.6,3.1c1.2,1.1,1.8,2.5,1.8,4.2c0,1.1,0,2.2,0,3.3c0,3.3-1.5,5.4-4.8,6.1
		c-2.5,0.5-5,0.9-7.5,1c-6.8,0.1-13.5,0-20.3,0.1c-2.7,0-2.8-1.7-2.2-3.7c0.1-0.4,1-0.8,1.6-0.9c0.9-0.2,1.8,0,2.7,0
		c5.9,0,11.8,0,17.7,0c1.9,0,3.8-0.1,5.6-0.9c1.1-0.5,1.7-1.3,1.7-2.6c0-0.2,0-0.5,0-0.7c0-2.6-0.8-3.7-3.5-4.1
		c-2.2-0.3-4.4-0.4-6.6-0.5c-4.3-0.3-8.7-0.3-13-0.8c-2.8-0.3-5.2-1.7-6.2-4.7c-1-3-0.1-7.7,1.9-9.5c1.6-1.4,3.6-2.1,5.7-2.2
		c4.9-0.3,9.8-0.4,14.7-0.6C101.3,108.1,101.3,108.1,101.3,108.2z"/>
	<path class="st2" d="M360.9,131.7c0-0.7,0-1,0-1.4c0-6.7,0-13.3,0-20c0-1.5,0.3-1.8,1.8-2c0.2,0,0.3-0.1,0.5-0.1
		c2.1-0.1,3.2-0.1,3.2,2.9c-0.1,8.4,0,16.7,0,25.1c0,2.3-1.5,3.6-3.6,3.2c-0.6-0.1-1.2-0.3-1.6-0.7c-2.2-1.8-4.4-3.6-6.6-5.4
		c-6.8-5.7-13.5-11.5-20.2-17.2c-0.1-0.1-0.3-0.2-0.6-0.3c0,0.5-0.1,0.8-0.1,1.2c0,6.6,0,13.1,0,19.7c0,2.1-0.4,2.5-2.5,2.6
		c-2.7,0.2-3.2-0.3-3.2-3c0-8.1,0-16.3,0-24.4c0-0.2,0-0.5,0-0.7c0.3-2.9,1.8-3.8,4.7-2.6c1.3,0.5,2.4,1.5,3.5,2.5
		c7.9,6.7,15.8,13.4,23.7,20.2C360.2,131.3,360.4,131.4,360.9,131.7z"/>
	<path class="st2" d="M204.2,136.9c-0.1,1.2-0.7,2-1.7,2.5c-1,0.5-2.2,0.5-3-0.4c-0.9-1-1.7-2.1-2.5-3.2c-1-1.4-1.9-2.8-2.9-4.2
		c-0.3-0.4-0.8-0.7-1.3-0.7c-7.4,0-14.8,0-22.2,0c-0.5,0-1.1,0.4-1.3,0.8c-1.5,2.1-2.9,4.2-4.3,6.3c-1.1,1.6-2.3,2.1-3.8,1.5
		c-1.5-0.5-2.2-2.5-1.2-3.8c5.9-8.5,11.9-16.9,17.8-25.4c0.2-0.2,0.4-0.5,0.5-0.7c1.7-2.6,5.1-2.7,6.9-0.1
		c6.1,8.7,12.2,17.3,18.3,26C203.8,135.9,204,136.5,204.2,136.9z M190.4,126.2c-2.9-4.3-5.6-8.3-8.6-12.7c-2.9,4.3-5.7,8.3-8.6,12.7
		C179,126.2,184.5,126.2,190.4,126.2z"/>
	<path class="st2" d="M246.5,123.7c0,4.5,0,8.9,0,13.4c0,1.6-0.5,2.1-2.1,2.1c-3.2,0.1-3.5-0.2-3.5-3.3c0-2.8,0-5.6,0-8.4
		c0-0.9-0.2-1.3-1.2-1.3c-8.4,0-16.7,0-25.1,0c-0.8,0-1.2,0.2-1.2,1.1c0,3.2,0,6.4,0,9.5c0,1.9-0.5,2.3-2.3,2.3
		c-3.1,0-3.3-0.2-3.3-3.3c0-8.3,0-16.6,0-24.9c0-0.4,0-0.9,0.1-1.3c0.1-0.9,0.6-1.3,1.5-1.4c0.2,0,0.4-0.1,0.6-0.1
		c2.8-0.2,3.6,0.1,3.5,3.1c-0.1,3,0,6,0,9c0,0.9,0.3,1.2,1.2,1.2c8.4,0,16.7,0,25.1,0c0.9,0,1.1-0.4,1.1-1.2c0-3.1,0-6.3,0-9.4
		c0-0.9-0.1-2,1-2.4c1.3-0.5,2.7-0.7,3.9,0.1c0.4,0.3,0.7,1.1,0.7,1.6C246.5,114.7,246.5,119.2,246.5,123.7z"/>
	<path class="st2" d="M118,123.6c0-4.4,0-8.8,0-13.3c0-1.5,0.4-2,1.9-2.1c0.1,0,0.2,0,0.3,0c2.3-0.1,3.5-0.2,3.4,3.1
		c-0.1,3,0,6.1,0,9.1c0,0.9,0.2,1.1,1.1,1.1c8.3,0,16.6,0,24.9,0c1.4,0,1.5,0,1.5-1.5c0-3.2,0-6.5,0-9.7c0-1.5,0.4-1.9,1.8-2.1
		c0.1,0,0.1,0,0.2,0c2.9-0.3,3.5,0.3,3.5,3.2c0,8.3,0,16.7,0,25c0,0.4,0,0.8-0.1,1.2c-0.2,0.9-0.6,1.5-1.7,1.6c-0.6,0-1.3,0-1.9,0
		c-1.6-0.1-1.9-0.5-2-2.1c0-2.9,0-5.8,0-8.6c0-2.4,0.3-2.2-2.1-2.2c-8,0-16.1,0-24.1,0c-1,0-1.3,0.3-1.3,1.3c0.1,3.1,0,6.3,0,9.4
		c0,1.7-0.5,2.2-2.2,2.3c-3.1,0.1-3.4-0.2-3.4-3.3C118,131.8,118,127.7,118,123.6z"/>
</g>
</svg>
