<?xml version="1.0" encoding="UTF-8"?>
<svg width="62px" height="23px" viewBox="0 0 62 23" version="1.1" xmlns="http://www.w3.org/2000/svg" xmlns:xlink="http://www.w3.org/1999/xlink">
    <!-- Generator: Sketch 49.1 (51147) - http://www.bohemiancoding.com/sketch -->
    <title>VIM_Airlines_s</title>
    <desc>Created with Sketch.</desc>
    <defs></defs>
    <g id="AVIA" stroke="none" stroke-width="1" fill="none" fill-rule="evenodd">
        <g id="VIM_Airlines_s" fill="#E5087D" fill-rule="nonzero">
            <g id="g12" transform="translate(30.994747, 11.449449) scale(-1, 1) rotate(-180.000000) translate(-30.994747, -11.449449) translate(0.102600, 0.011277)">
                <path d="M30.9292223,15.4455789 C33.9766795,18.4398883 39.1592555,20.8729637 40.1127751,19.9170231 C41.1290158,19.5216797 39.0559848,15.9445243 38.8690819,14.9046832 C39.7814187,15.3000266 41.7087297,18.106835 42.6216997,18.5021784 C43.0772333,18.6890442 44.0719342,18.5237888 44.3621078,18.0864952 C44.590192,17.733102 44.8189094,16.48542 45.0679017,16.1313916 C49.4414131,18.7939183 56.5519349,20.7274114 61.6508802,21.3509356 L59.3706731,19.2509134 C55.2252458,18.7309929 48.9852447,18.5441272 45.5234353,14.9669718 C44.7365453,14.6548936 44.196113,14.7381558 43.968662,15.3407048 C43.8026687,15.798972 43.4294978,17.2131815 43.2223201,17.5252612 C41.9171723,16.9850007 38.9102648,13.3449215 37.6044837,12.7836875 C36.8993231,12.4919476 36.7339615,12.7836875 36.6097828,13.1370806 C36.7548696,14.0103944 39.6356987,18.2530226 38.8488086,18.5021784 C34.4740292,16.6309723 31.4062988,12.4512695 30.1619723,11.1616372 C29.6240746,10.6010385 29.3750823,11.264604 29.3123597,11.264604 L30.2246965,13.6360261 C28.5039284,13.2616578 26.9903364,12.6374999 25.3943819,11.7438464 L25.3943819,12.9705532 C27.1981474,13.9894208 28.9810048,14.780106 30.9292223,15.4455789 Z M25.3943819,18.0661569 L25.3943819,17.6078896 C25.4982873,17.7534419 25.6224661,17.9199677 25.7263715,18.0864952 L25.3943819,18.0661569 Z M25.3943819,19.0430726 L26.4106226,19.105998 L27.509229,20.686098 L25.3943819,20.5405457 L25.3943819,19.0430726 Z M25.3943819,11.7438464 C23.5703431,10.7453187 21.6214908,9.39403468 19.1537475,7.7707123 C18.5328523,7.52092272 15.8585662,6.68955773 15.9409303,8.27029456 L20.8548756,15.382655 C15.3409432,13.2406842 11.2360625,9.3317461 5.39014041,1.69882977 C4.04254483,0.824243952 0.497737972,-0.714542608 0.0206615308,0.721277218 C1.34798385,7.56287144 3.628191,14.9879469 7.15208981,21.3305957 L13.1842815,22.765145 C8.06379334,16.0487632 6.03194364,8.72728972 4.83006809,4.00732802 C9.82637599,9.91331996 17.1231659,15.840287 22.3266514,17.504286 L22.5959169,17.8786543 L25.3943819,18.0661569 L25.3943819,17.6078896 C23.5291618,14.8423946 22.4090141,12.5332611 20.4607966,9.70420699 C22.2018379,10.9944745 23.797794,12.0559261 25.3943819,12.9705532 L25.3943819,11.7438464 Z M25.3943819,20.5405457 L24.4408638,20.4782571 L23.2801695,18.9184954 L25.3943819,19.0430726 L25.3943819,20.5405457 Z" id="path24"></path>
                <path d="M42.713122,1.33157944 L43.7604074,3.17354711 C44.8152964,3.57715383 45.605989,3.70490894 46.0152722,3.64262036 C46.4251902,3.58033179 46.5424,3.37693945 46.4980509,3.01210504 C46.4258234,2.41019133 46.0298446,1.82353367 45.7244654,1.33157944 L47.1746999,1.33157944 C47.4471332,1.67289603 47.7784896,2.1330707 47.8671894,2.88244254 C47.9558876,3.63244966 47.5364662,4.28076216 46.7394396,4.35258461 C45.9424129,4.42567917 45.1137068,4.31317702 44.2913378,4.11105679 L44.5168875,4.51466196 L43.1160711,4.51466196 L41.2787264,1.33157944 L42.713122,1.33157944 Z M41.6164184,4.50830605 L39.7980804,1.33157944 L38.3807918,1.33157944 L40.2010296,4.51466196 L41.6164184,4.50830914 L41.6164184,4.50830605 Z M51.1047157,3.01210504 L50.7182403,2.46231075 L52.3281325,2.46231075 C52.8311845,2.46231075 54.5861651,2.42926062 54.4708565,3.30320961 C54.2529089,4.95449677 49.1881761,5.14517728 48.4792144,3.12524093 C47.4813457,0.265679368 52.9731035,1.08814422 54.116059,1.41166519 C54.062205,1.59026915 54.0089858,1.76823629 53.9551333,1.94620497 C53.3272677,1.6398459 49.8185747,1.2203494 49.6867923,2.46231075 C49.5645149,3.61020397 50.879166,3.835842 51.7332145,3.835842 C53.0535679,3.835842 53.2144937,3.01210504 52.3281325,3.01210504 L51.1047157,3.01210504 Z M61.0251055,3.49706808 C59.2542859,3.88478347 58.6663367,3.90893656 57.8851491,3.8205875 C57.5455558,3.78181673 57.2053308,3.65914543 57.1920263,3.48054147 C57.1768191,3.26316673 57.3212742,3.15384409 57.8528363,3.12524093 C58.9001217,3.06867298 60.5930129,3.01210504 60.5594337,2.20362258 C60.5391604,1.71929483 59.9467754,0.992168683 57.2249723,1.04174543 C56.3392444,1.05700148 55.2114961,1.28327325 54.5671583,1.45996983 C54.6850015,1.62204872 54.8034794,1.78412608 54.9213226,1.94620497 C55.5498214,1.81590565 56.3392444,1.6398459 57.3377464,1.68751526 C59.3018044,1.80065269 59.368328,2.34853958 57.7077496,2.46231075 C56.4678589,2.54748185 55.6195128,2.72354315 55.903984,3.690925 C56.310101,5.07081216 59.3505878,4.64495974 60.8964924,4.15872614 L61.0251055,3.49706808 Z M25.0448415,1.33157944 L26.495076,1.33157944 C27.1717265,2.57799086 28.1778306,3.95978387 29.7636485,3.98075901 C30.7627837,3.99411384 30.3275234,3.52948293 29.7319706,3.20532668 C29.3778064,2.99685054 28.7169964,2.96443569 28.2982083,2.89896761 L28.1214435,2.5118875 C29.3296547,2.2697244 29.9575202,1.70340504 30.2793717,1.08814422 L31.9222099,1.08814422 C31.6808213,1.73582144 30.8115687,2.28434362 29.9410465,2.62438965 C30.4409307,2.67269429 31.1011075,2.88244254 31.4875844,3.15829261 C31.6972951,3.30320961 32.1268531,3.7659254 31.874693,4.0627506 C31.4470348,4.56487554 30.617697,4.66085108 29.7965945,4.56296815 C29.2168806,4.49940746 28.6042208,4.32080504 28.0409807,4.095167 L28.2658955,4.48288239 L26.8650792,4.48288239 L25.0448415,1.33157944 Z M34.3221615,2.39875161 C34.1941818,2.15595168 34.2416987,1.99450961 34.3867854,1.92967836 C36.2070232,2.39875161 37.3658176,2.47883737 37.9943165,2.28434362 L37.9620037,1.42946237 C36.625178,1.80065269 34.8955398,1.52289523 33.7424477,1.26738347 C33.2685406,1.16314617 32.2934812,1.3481045 32.8408823,2.31803058 L34.0807729,4.51466196 L35.4980615,4.51466196 L34.3221615,2.39875161 Z M13.6742171,1.33157944 C14.6226661,2.36760733 15.4158917,3.21358999 16.7508176,3.78817265 C17.7170069,4.19114254 18.9892102,4.45046754 20.0846473,4.49940746 C20.1815824,4.49940746 22.4681251,4.70852043 21.6305504,3.46465168 L20.2138951,1.33157944 L18.635046,1.33157944 L20.277251,3.59304362 C20.6802001,4.12631129 20.1169585,4.03033575 19.7944738,3.99855618 C18.5868943,3.86889368 17.4109944,3.3190994 16.379548,2.2697244 C16.4764831,2.28434671 17.4756183,2.64027944 18.9575308,2.64027944 L18.3771836,1.99450961 C17.7341139,1.96972124 16.0690996,1.93794167 15.6230694,1.33157944 L13.6742171,1.33157944 Z M23.8214246,4.51466196 L21.9853479,1.33157944 L23.4184754,1.33157944 L25.2342789,4.51466196 L23.8214246,4.51466196 Z" id="path28"></path>
            </g>
        </g>
    </g>
</svg>