<?xml version="1.0" encoding="utf-8"?>
<!-- Generator: Adobe Illustrator 22.1.0, SVG Export Plug-In . SVG Version: 6.00 Build 0)  -->
<svg version="1.1" id="Слой_1" xmlns="http://www.w3.org/2000/svg" xmlns:xlink="http://www.w3.org/1999/xlink" x="0px" y="0px"
	 viewBox="0 0 1265.2 359.6" style="enable-background:new 0 0 1265.2 359.6;" xml:space="preserve">
<style type="text/css">
	.st0{fill:#FDFDFD;}
	.st1{fill:#E50112;}
	.st2{fill:#0267B5;}
	.st3{fill:#040404;}
	.st4{fill:#030303;}
	.st5{fill:#0A0A0A;}
</style>
<g>
	<path class="st0" d="M356.2,185.4c-9.4,98.7-73.5,172.5-173,172.5c-60.2,0-129.5-49.1-117.6-39.3c29.2,24,62.7,37.9,100.3,40.6
		c86.3,6.1,159.3-46.5,184.6-123.2c24-72.9-4.4-149-55.8-194c-0.8,0.6-1.8,4.2-2.3,5.1c-4.6,9.2-7.3,17-12.6,25.7
		c-11.2,18.1-24,35-38.5,50.6c-5.5,5.9-11.2,11.3-17.3,16.6c-11.4,10-23.3,19.1-36.8,26.1c1.2,0.3,2.2,0.2,3.4-0.3
		c4.1-1.7,8.3-3.2,12.4-4.9c11.6-4.8,22.7-10.8,33.4-17.3c13.7-8.4,26.9-17.7,39.4-27.7c8.8-7.1,17.6-14.2,25.7-22.1
		c0.5-0.5,1-1.4,2.4-0.8c-29.1,46.1-67.4,82.4-114.8,109.2c0.9,0.3,1.5,0.3,2.2,0.2c7.2-2.2,14.5-4.2,21.6-6.8
		c25.2-9.4,48.1-22.6,69.1-39.3c2.2-1.7,3.9-4.1,6.8-4.8c0-0.6,0.2-1.2,0.9-1.5c0.7,0.9,0.3,1.4-0.5,1.8c-0.8,2.9-2.7,5.2-4.3,7.7
		c-9.5,14.4-21.4,26.5-34.9,37.1c-18.8,14.8-39.7,26-62,34.7c-1.6,0.6-3.4,0.7-4.6,2.2c1.8,0.5,3.4,0.2,5-0.1
		c9.6-2.2,19.3-4.1,28.8-6.8c15.4-4.4,30.6-9.1,44.4-17.5c0.7-0.4,1.6-0.4,2.4-0.6c0.2-0.6,0.5-1,1.2-0.8c0,0.6-0.3,0.9-0.9,1
		c-3.5,6-9,10.1-14.5,14.1c-11,8-23,14-35.6,19.1c-13.2,5.4-26.7,9.8-40.6,13.4c3,0.5,6.1,0.4,9,0c5.7-0.7,11.4-1.8,17.1-2.5
		c13.3-1.5,26.1-5.2,38.8-9.3c1.6-0.5,3-1.3,4.8-0.9c0.1-0.3,0.2-0.5,0.3-0.8c0.2,0.1,0.4,0.3,0.5,0.4c-0.3,0.1-0.5,0.3-0.8,0.4
		c-0.1,1-0.9,1.4-1.5,1.9c-16.3,13.3-35.2,19.8-55.8,22.2c-6,0.7-11.9,0.9-17.9,1.1c-1.1,0-2.3,0-2.6,1.5c8.2,1.3,16.4,1.5,24.8,0.6
		c10-1.1,19.8-3.2,29.5-5.8c3.1-0.8,5.9-3,9.4-2.4c-4.3,4.7-9.8,7.6-15.6,10c-16,6.8-32.9,9.5-50.2,10c-4.2,0.1-8.5,0-12.8,0
		c0.9,1,2,1.4,3,1.9c2.6,1.3,5.5,0.9,8.3,1.4c7.6,1.2,15.2,0.7,22.9,0.2c5.4-0.3,10.9-1.1,16.3-1.6c0.3,0,1-0.2,0.9,0.9
		c-4.1,2.6-8.9,3.8-13.6,5.1c-13.3,3.7-27,4.4-40.8,4.9c-1.7,0.1-3.5-0.5-5.6,0.6c13.1,4.2,26.2,3.2,39.5,2.3
		c-1.4,1.9-3.1,2.3-4.6,2.8c-6.9,2.5-14,3.9-21.2,4.4c-2.3,0.2-4.7,0-7,0.4c-3.3,0.6-6.5,0.5-9.9,0c-2.5-0.3-5-0.3-7.5-0.3
		c-2.3,0-4.6-0.5-8.1,0.3c14.7,5.4,28.8,3.6,42.8,2.5c-0.2,0.9-0.5,1.1-1,1.2c-1,0.2-1.9,0.7-2.8,0.9c-8.1,1.9-16.2,3.2-24.5,3.2
		c-8-0.1-16,0.4-23.9-1.1c-2.4-0.4-4.7-1.5-7.5-0.6c9.5,4.5,19.4,5.2,29.8,5.9c-3.3,1.9-6.7,2.4-9.9,2.6c-9.5,0.5-18.8,0.2-28.2-1.6
		c-17-3.4-31.9-10.8-44.8-22.1c-15.6-13.6-28.6-29.5-38-48.2c-0.4-0.8-0.7-1.5-2.2-2c-4.5-11.7-7.9-23.9-9.9-36.6
		c0,0.1,0.1,0.3,0.1,0.4c3.5,10.7,8.1,21,14.1,30.5c8,12.8,17.9,24,30.4,32.6c11.1,7.6,23.3,11.9,36.9,10.9c4.6-0.3,9.2-0.9,13.7-2
		c14.6-3.4,26.7-10.6,34.9-23.5c4.5-7.1,7.1-14.8,8.2-23.2c1.1-8.2,0.5-16.1-2.1-24c-4.4-13.2-18.7-19.8-32.8-14
		c-7.1,2.9-9.4,8.7-9.1,14.6c0.3,5.2,2.2,10,5.8,14c3.7,4.1,8,7.3,13,9.7c-0.8,1.3-2,1.4-3.1,1.4c-5.4,0.1-10.6-0.9-15.5-2.9
		c-13.2-5.2-28.4-19.5-23.5-40.4c2.9-12.4,9.1-22.3,19.5-29.6c9.7-6.8,20.7-11,31.8-14.8c16.4-5.6,32.8-11,49.4-16.1
		c13.2-4.1,25.8-9.1,37.5-16.5c16.8-10.6,31.9-23.3,46.4-36.8c12-11.1,23.2-22.9,34.1-35.1c0.7-0.7,1.5-1.3,1.5-2.8
		C293.3,40.5,364.2,101.4,356.2,185.4z"/>
	<path class="st1" d="M294.1,41.2C294.1,41.2,294.1,41.2,294.1,41.2c0,1.6-0.9,2.2-1.5,2.9c-10.9,12.2-22.2,24-34.1,35.1
		c-14.5,13.5-29.6,26.1-46.4,36.8c-11.7,7.4-24.3,12.5-37.5,16.5c-16.5,5.1-33,10.5-49.4,16.1c-11.1,3.8-22.1,8-31.8,14.8
		c-10.3,7.3-16.5,17.2-19.5,29.6c-5,20.9,10.2,35.3,23.5,40.4c5,1.9,10.2,2.9,15.5,2.9c1.2,0,2.3-0.1,3.1-1.3c0,0,0-0.1,0-0.1
		c-4.9-2.4-9.2-5.6-12.9-9.7c-3.6-4-5.5-8.7-5.8-14c-0.3-5.8,2.1-11.6,9.1-14.6c14.1-5.9,28.4,0.8,32.8,14c2.6,7.9,3.2,15.7,2.1,24
		c-1.1,8.4-3.7,16.1-8.2,23.2c-8.2,12.9-20.4,20.1-34.9,23.5c-4.5,1.1-9.1,1.6-13.7,2c-13.6,1-25.8-3.3-36.9-10.9
		c-12.5-8.6-22.4-19.8-30.4-32.6c-6-9.5-10.6-19.8-14.1-30.5c0-0.1-0.1-0.3-0.1-0.4c-1-3.4-1.3-6.9-1.6-10.3
		c-0.7-8.3-1.6-16.6-1.1-24.9c1.4-23.3,6.1-45.8,15.7-67.2c10.8-24,26.1-44.7,45.8-62c20-17.5,42.8-29.8,68.3-37.3
		c15.8-4.7,31.9-6.9,48-7.1c0.7,0,1.4,0,2.1,0c5.1,0,10.2,0.2,15.4,0.6c26.4,2.1,51.1,9.9,74.1,23.4c7.6,4.5,14.8,9.4,21.8,14.7
		C292.4,39.5,293.3,40.5,294.1,41.2z"/>
	<path class="st2" d="M294.8,41.9c-0.8,0.6-2.7,6.6-3.2,7.5c-4.4,9.3-6.4,14.6-11.7,23.3c-11.2,18.1-24,35-38.5,50.6
		c-5.5,5.9-11.2,11.3-17.3,16.6c-11.4,10-23.3,19.1-36.8,26.1c1.2,0.3,2.2,0.2,3.4-0.3c4.1-1.7,8.3-3.2,12.4-4.9
		c11.6-4.8,22.7-10.8,33.4-17.3c13.7-8.4,26.9-17.7,39.4-27.7c8.8-7.1,17.6-14.2,25.7-22.1c0.5-0.5,1-1.4,2.4-0.8
		c-29.1,46.1-67.4,82.4-114.8,109.2c0.9,0.3,1.5,0.3,2.2,0.2c7.2-2.2,14.5-4.2,21.6-6.8c25.2-9.4,48.1-22.6,69.1-39.3
		c2.2-1.7,3.9-4.1,6.8-4.8c0-0.6,0.2-1.2,0.9-1.5c0.7,0.9,0.3,1.4-0.5,1.8c-0.8,2.9-2.7,5.2-4.3,7.7c-9.5,14.4-21.4,26.5-34.9,37.1
		c-18.8,14.8-39.7,26-62,34.7c-1.6,0.6-3.4,0.7-4.6,2.2c1.8,0.5,3.4,0.2,5-0.1c9.6-2.2,19.3-4.1,28.8-6.8
		c15.4-4.4,30.6-9.1,44.4-17.5c0.7-0.4,1.6-0.4,2.4-0.6c0.2-0.6,0.5-1,1.2-0.8c0,0.6-0.3,0.9-0.9,1c-3.5,6-9,10.1-14.5,14.1
		c-11,8-23,14-35.6,19.1c-13.2,5.4-26.7,9.8-40.6,13.4c3,0.5,6.1,0.4,9,0c5.7-0.7,11.4-1.8,17.1-2.5c13.3-1.5,26.1-5.2,38.8-9.3
		c1.6-0.5,3-1.3,4.8-0.9c0.1-0.3,0.2-0.5,0.3-0.8c0.2,0.1,0.4,0.3,0.5,0.4c-0.3,0.1-0.5,0.3-0.8,0.4c-0.1,1-0.9,1.4-1.5,1.9
		c-16.3,13.3-35.2,19.8-55.8,22.2c-6,0.7-11.9,0.9-17.9,1.1c-1.1,0-2.3,0-2.6,1.5c8.2,1.3,16.4,1.5,24.8,0.6
		c10-1.1,19.8-3.2,29.5-5.8c3.1-0.8,5.9-3,9.4-2.4c-4.3,4.7-9.8,7.6-15.6,10c-16,6.8-32.9,9.5-50.2,10c-4.2,0.1-8.5,0-12.8,0
		c0.9,1,2,1.4,3,1.9c2.6,1.3,5.5,0.9,8.3,1.4c7.6,1.2,15.2,0.7,22.9,0.2c5.4-0.3,10.9-1.1,16.3-1.6c0.3,0,1-0.2,0.9,0.9
		c-4.1,2.6-8.9,3.8-13.6,5.1c-13.3,3.7-27,4.4-40.8,4.9c-1.7,0.1-3.5-0.5-5.6,0.6c13.1,4.2,26.2,3.2,39.5,2.3
		c-1.4,1.9-3.1,2.3-4.6,2.8c-6.9,2.5-14,3.9-21.2,4.4c-2.3,0.2-4.7,0-7,0.4c-3.3,0.6-6.5,0.5-9.9,0c-2.5-0.3-5-0.3-7.5-0.3
		c-2.3,0-4.6-0.5-8.1,0.3c14.7,5.4,28.8,3.6,42.8,2.5c-0.2,0.9-0.5,1.1-1,1.2c-1,0.2-1.9,0.7-2.8,0.9c-8.1,1.9-16.2,3.2-24.5,3.2
		c-8-0.1-16,0.4-23.9-1.1c-2.4-0.4-4.7-1.5-7.5-0.6c9.5,4.5,19.4,5.2,29.8,5.9c-3.3,1.9-6.7,2.4-9.9,2.6c-9.5,0.5-18.8,0.2-28.2-1.6
		c-17-3.4-31.9-10.8-44.8-22.1c-15.6-13.6-28.6-29.5-38-48.2c-0.4-0.8-0.7-1.5-2.2-2c-0.1,0-0.1,0-0.2-0.1
		c3.2,7.9,6.8,15.5,10.8,22.6c0.4,0.6,0.7,1.2,1.1,1.8c1.3,2.3,2.6,4.5,4,6.7c0.4,0.7,0.9,1.4,1.3,2.1c0.5,0.8,1,1.6,1.6,2.4
		c0.5,0.8,1.1,1.6,1.6,2.3c0.5,0.8,1.1,1.5,1.6,2.3c8.8,12.2,19.2,23.2,31.1,33.1c29.2,24,62.7,37.9,100.3,40.6
		c86.3,6.1,159.3-46.5,184.6-123.2C374.6,163,347,84.9,294.8,41.9z M229,261.3c0-0.3,0.2-0.7,0.3-0.6
		C230.1,261.3,229.3,261.1,229,261.3z M265.1,207.3c0.1-0.2,0.2-0.5,0.2-0.7C266,207.2,265.4,207.1,265.1,207.3z"/>
	<path class="st3" d="M467.9,219.4c3.1-0.3,6,0.1,9,0.6c11.7,1.8,23.6,2.7,35.3,1.2c19.7-2.5,35.3-11.9,45.7-29.2
		c5.5-9.3,9.5-19.2,12.4-29.7c0.9-3.3,0.9-6.6,0.7-9.9c-0.4-5.4-3.9-9.1-9.3-10.1c-2.2-0.4-4.5-1.3-6.7-0.5c-1.4,0.8-1.7,2.1-2,3.4
		c-3.1,13-7.9,25.3-15.5,36.4c-10.9,15.9-25.9,25.3-44.5,29.5c-3.2,0.7-6.7,0.8-10,0.2c-5-0.9-8.8-3.8-11.1-8.4
		c-4-7.8-3.6-15.6-0.2-23.5c3.8-9,10.2-15.9,17.6-22c11.9-9.8,25.2-17.2,39.4-23.2c2.6-4.7,1.7-9.7,1.1-14.6c-0.2-1.3-0.7-2.6-1-3.8
		c-0.9-3.4,0.1-5.6,3.2-7.4c8.5-4.8,18.1-1.1,21.3,8.2c1.3,3.6,1.8,7.4,1.9,11.5c3.9-0.3,7.6-0.4,11.3,0.1
		c12.2,1.6,19.2,9,22.6,20.2c1.9,6.4,2.4,12.9,1.1,19.7c-2.5,12.6-6.4,24.7-13.6,35.4c-9.7,14.5-23.2,23.3-40.2,27
		c-10.7,2.3-21.4,2-32.2,1.1c-7.5-0.6-14.9-1.5-22.1-3.4c-4.6-1.2-9.4-2.3-12.8-6.1C468.5,221.5,467.8,221,467.9,219.4z
		 M518.8,161.3c-3.3,1.7-6,3.9-8.7,6c-5.3,4-10.3,8.3-14.9,13.3c-2.4,2.6-4.5,5.3-5.6,8.7c-1.3,4.4,0.8,7.4,5.2,7.3
		c4.1-0.1,7.9-1.5,10.6-4.7c5.3-6.2,9.4-13.2,12.3-20.8C518.9,168.1,519.7,164.8,518.8,161.3z"/>
	<path class="st4" d="M882.8,168.1c-3.9,1.1-7.3,2.6-10.7,4.2c-1.1,12.5-1.5,24.9,1.3,37.2c0.9,4,1.7,8.1,2.2,12.2
		c0.3,1.9,0.6,4-0.3,5.8c-4.4,2.3-7.5,1.8-10.5-2c-4.2-5.3-6.8-11.4-6.9-18.3c-0.2-7,0.8-13.9,1.7-20.8c0.2-1.8,0.4-3.6,0.5-5.7
		c-1.8,0.2-3.3,0.5-4.9,0.6c-3.6,0.1-5.5-1.9-5.3-5.6c0.1-2.5,1.1-4.5,3.1-5.9c2-1.5,3.9-3,5.9-4.5c1.4-4.5,1.1-9,1.7-13.4
		c1.7-11.7,4.1-23.1,6.5-34.7c1.8-8.6,3.8-17.1,5.9-25.6c0.8-3.3,1.2-6.9,4.8-9.1c4.5,3.4,7.6,8.4,11.9,11.9
		c5.1,0.8,8.7-1.3,11.7-5.1c6.9-9,16.9-12.5,27.5-14.5c4.6-0.9,8.4,1.7,10.2,6.1c2.9,7.3,2.5,14.6-0.3,21.8
		c-1.7,4.5-4.6,8.4-7.4,12.4c-4,5.7-4.8,12.2-5.5,17.8c0.6,2,1.4,2.6,2.1,3.3c3.9,3.7,3.4,8.4,0.3,12c-1.6,1.9-3.1,4-4.9,5.6
		c-4.7,4.3-6.5,10-7.3,15.9c-0.7,4.9-1.4,9.9-1.3,14.9c0.1,5.5,1.2,10.9,2.1,16.3c1.1,6.9,1.5,13.8,2.9,20.7
		c0.4,1.7,1.6,3.3,0.8,5.6c-1.8,0-3.3-1.1-4.7-2c-12.7-8.1-23.3-18.1-29.8-32c-1.4-3.1-2.2-6.2-2.2-9.6
		C883.9,178.5,884.4,173.3,882.8,168.1z M917.7,98.2c-7,0-12.9,2.1-17.7,6.7c-1.8,1.7-1.9,4.2-1.7,6.5c0.1,1.3,0.4,2.6,0.7,3.9
		c1.7,6.5,5.8,10.9,12.4,13.4C913.3,118.4,919.3,109.5,917.7,98.2z M871.7,157.6c4.6-2,8.3-3.6,12.1-5.2c0-7.2,0.2-14.2-0.1-21.2
		c-0.1-2.3,0.1-5-2.6-7.2C877.2,135.1,873.2,145.5,871.7,157.6z"/>
	<path class="st3" d="M960.6,111.5c2.7,0.6,4.7-0.2,6.7-1.7c4.6-3.6,8.5-8,12.7-12c1.9-1.8,3.5-4,6.1-5.3c5.8,1.1,10.4,4.1,14.1,8.6
		c2,2.5,2.9,5.3,2,8.8c-2.3,8.8-5.7,17.3-9.1,25.7c-4.8,11.8-9.8,23.5-14.9,35.4c1.1,0.8,2.4,0.3,3.6,0.4c2.2,0.1,4.3,0,6.5,0.2
		c4.8,0.4,9,1.8,11.9,6.2c1.9,2.9,4.4,5.4,6.7,8c2.6,3,5.6,2.7,7.7-0.7c0.3-0.6,0.7-1.2,0.9-1.8c2.5-9.3,8-17.1,12.5-25.3
		c4.9-8.8,10-17.6,14.5-26.6c1.8-3.5,3.3-7.2,5.2-11.3c0.6,5.1,0.3,9.7-0.2,14.2c-0.7,5.3-0.9,10.6-1.3,15.9
		c-0.9,10.8-3.3,21.2-7.1,31.4c-3.1,8.1-6.3,16-10.4,23.6c-0.7,1.3-1.7,2.5-2.3,3.9c-3.6,8.6-18.7,9.2-23.3-1.2
		c-3.7-8.2-8.1-16-13-23.4c-1.3-1.9-2.6-3.9-4.1-5.6c-3.9-4.5-9-4-11.6,1.4c-3.3,6.7-7.6,12.8-11.8,19c-1.2,1.8-2.6,3.4-3.8,4.9
		c-6.2,1.2-9.1-0.9-9.6-6.8c-0.5-5.4,1-10.5,2.6-15.6c4-12.4,10-23.8,16.6-34.9c1.8-3,3.7-5.9,5.5-8.9c1.2-2,2.2-4.1,1.1-6.8
		c-3-1.1-5.6,1.2-8.5,1.2c-4.3-0.8-7-3.5-8.7-7.4c-2.9-6.3-3.6-13.1-3.2-19.9c0.6-8.2,3.4-15.8,6.9-23.2c1.1-2.2,1.9-4.6,3-6.8
		c0.8-1.6,0.8-3.2,0.7-4.9c-0.1-3-1-3.9-4-4.8c-2.9-1-5.9-0.2-8.8-0.8c-0.7-1.2,0.3-1.9,0.8-2.6c4-5.5,8.2-10.9,13-15.8
		c1.1-1.1,2.1-2.1,3.3-3.1c7.7-6.1,18.8-2.3,21.3,7.2c0.7,2.9-0.1,5.5-2,7.9c-4.7,6-9.4,12-14.1,18.1c-3.1,4.1-6.2,8.3-9.2,12.4
		c-3.5,4.8-5.2,10.3-6.2,16.1C958.8,106.9,958.7,109.3,960.6,111.5z"/>
	<path class="st3" d="M1200.8,37.5c4.2-1.1,7.1,0.7,9.2,4.2c0.5,0.9,1,1.7,1.5,2.6c2,2.9,4.6,4.5,8.4,4.4
		c12.8-0.2,25.7-0.2,38.5-0.2c2.3,0,4.7-0.5,6.8,1.5c-0.2,2.6-1.6,4.5-3.4,6.3c-3.7,3.6-7.4,7.2-11.2,10.7
		c-5,4.6-10.2,9.1-15.3,13.6c-3.5,3-7.3,4.4-11.9,2.9c-3-1-6.1-1.5-9.6-1.1c-2.5,1.7-5,4.2-9.3,2.6c-0.7-0.5-1.9-1.4-3.1-2.3
		c-7.2-0.7-11.6,3-11.2,10.3c0.5,8.5,0.6,16.9,0.8,25.4c0,1.7,0.1,3.4-0.2,5c-0.9,5-3.3,9-7.9,11.5c-6.4,3.5-13.2,3.9-20.2,2.3
		c-0.3-0.1-0.6-0.3-0.9-0.5c-0.2-0.2-0.4-0.5-0.8-0.9c8.3-6.8,13.2-16.4,19.6-24.8c5.6-7.3,4.9-15.6,1.8-23.6c-2-5.1-6.9-7.1-12-7.8
		c-5.3-0.8-10.6,0-15.7,1.9c-2.5,0.9-4.4,2.4-4.7,5.3c-0.9,9.1-3.5,17.9-5.3,26.8c-2.6,12.8-5.3,25.6-9.8,37.9
		c-0.5,1.4-1.1,2.8-1.6,4.2c-1.1,3.2-3.4,5.2-6.5,6.5c-4.8,2-9.8,2.1-14.6,0.2c-5.3-2.1-7.5-6.7-8.1-12.2c-0.4-3.9,0.2-7.6,1.4-11.3
		c1-3.3,3-5.9,6.2-7.5c7.1-3.5,12.2-9.1,17-15.1c1.8-2.3,2.6-5,3.3-7.7c1.8-7.1,2.5-14.4,3.9-21.5c0.3-1.3,0.6-2.6,0.9-3.9
		c0.5-2.2,1.9-3.4,4.1-3.8c1.6-0.2,3.3-0.7,4.9-0.6c3.9,0.3,7.1-1.2,9.9-3.8c10.5-9.7,22.6-16.8,35.9-21.9c3.7-1.4,5.9-4.1,6.4-8.2
		C1198.4,42.2,1198.7,39.5,1200.8,37.5z"/>
	<path class="st4" d="M423.9,167.3c-0.3-12.5,1.3-23.5,2.7-34.6c1.1-8.2,2.1-16.4,2.8-24.7c0.9-12.5,1.6-25,0.4-37.4
		c-0.9-9.3-1-18.6-0.9-27.9c0-2.2,0.4-4.3,1-6.4c2.5-8.3,10.1-10.7,16.9-9.8c3,0.4,5,2.6,6.5,5c2.6,4.3,4.5,8.9,4.7,14
		c0.3,8.8,0.2,17.6-0.7,26.4c-0.1,1-0.1,2-0.1,3c-0.4,10.6-0.7,21.3-1.4,31.9c-0.7,10.9-1.9,21.8-2.5,32.8
		c-0.7,12.9-1.8,25.8-0.7,38.8c1,10.7,1.6,21.5,3.1,32.2c0.4,2.8-0.2,5.6-1.2,8.3c-2.7,6.7-12.9,8.1-17.8,3.6
		c-3.2-2.9-4.9-6.7-6.5-10.5c-2.9-7.3-4.4-14.9-5-22.7C424.4,181.6,423.5,173.8,423.9,167.3z"/>
	<path class="st4" d="M654.3,135.2c7.2-0.3,11.6,3.3,14.9,8.8c3.8,6.3,4.7,13.4,5.6,20.5c0.1,1.1,0.2,2.3,0.2,3.1
		c0.9,1.8,2.3,2.3,3.7,2.7c1.4,0,2.6-0.8,2.9-1.8c1.4-5.6,3.3-11.2,1.9-17.1c-0.2-0.8-0.3-1.6-0.7-2.4c-2.4-5.1-1.8-10.3-0.6-15.6
		c1.4-6.5,2.6-13,0.8-19.7c-0.6-2.1-0.5-4.3,0-6.4c1.1-4.1,0.7-8.3,0.8-12.4c0-5.8,0.2-11.7,0.2-17.5c0-2.4,0.7-4.6,1.2-6.8
		c0.6-2.6,1.3-3.2,4.5-4.9c9.7,2.6,13.1,6.9,14.1,17.8c0.2,2.3,0.1,4.7,0.2,7c0.1,25,0.1,50,0.3,74.9c0.1,10.1,0.4,20.3,0.7,30.4
		c0.1,3.8,0,7.7-0.9,11.4c-0.4,1.6-0.8,3.2-1.5,4.7c-1.2,2.4-3,3.2-5.7,2.8c-6.6-0.9-9.9-4.4-10.6-11.7c-0.3-2.8-0.2-5.7-0.2-8.5
		c0-1.9,0-3.7-1.9-5c-2.6-0.4-4.6,0.8-6.6,2.5c-0.5,3.9-0.3,8-1.6,11.8c-2.5,7.3-6.7,11.7-15.6,12.3c-4.8,0.3-8.4-2-10-6.5
		c-0.7-2-1.3-4.1-1.3-6.3c-0.1-6.5-0.1-13,0.7-19.4c0.2-1.5,0.1-3,0-4.5c-1.2-14.3-0.6-28.5,3.7-42.4
		C653.4,136.5,653.9,135.9,654.3,135.2z"/>
	<path class="st3" d="M730,188.4c0.4-5,0.5-10,1.2-14.9c1.1-7.3,0.9-14.6,1.5-21.8c1-11.6,1.8-23.2,2.9-34.7
		c0.7-7.4,1.3-14.9,3.3-22.1c3.3-12.5,7.8-24.6,12.1-36.7c1.5-4.4,5.2-6.3,9.4-7.3c3.5-0.8,6.8,2,7.3,5.8c0.4,2.9-0.2,5.6-1.3,8.3
		c-1.7,4-3.1,8-3.8,12.3c-0.9,5.9-1.9,11.8-2.8,17.7c-1.6,10.3-3.2,20.6-4.7,31c-0.9,6.7-1.7,13.5-2.3,20.3
		c-0.8,8.4-1.9,16.8-2.5,25.3c-0.2,3.1,0,6,0.5,8.8c0.9,4.8,4.3,7.4,9.3,7.3c4.9-0.1,9.4-1.8,13.6-4.2c7.2-4.2,13.9-9.1,20.3-14.4
		c2.5-2,5.1-3.6,8.5-3.6c4.6,0,7.1,3,5.8,7.5c-0.7,2.4-1.8,4.6-3.3,6.6c-1,1.3-1.9,2.8-3.1,3.9c-1.5,1.4-2.4,3.1-3,5
		c-1,3.1-2.9,5.2-6.4,5.3c-6,0.1-11.1,2.9-16.3,5.6c-6.3,3.3-13,5.9-18.8,10.1c-1.8,1.3-3.8,1.3-5.7,1.5c-3.9,0.4-7.9,0.1-11.7-0.9
		c-5.5-1.4-7.8-6-9-11C730.4,195.4,729.8,191.9,730,188.4z"/>
	<path class="st4" d="M498.8,78.7c0.1,4.8-2.8,8.5-2.8,12.8c1.2,2,2.7,2.4,4.6,1.3c0.7-0.4,1.5-0.8,2-1.4
		c14-14.4,30.1-26.2,45.5-38.8c6.2-5.1,12.4-10,18.5-15.2c4.7-4,10.2-4.6,15.9-3.4c6.5,1.4,7.6,5.3,5.7,11.3c-0.8,2.7-2.8,4.9-5,6.8
		c-20.1,17.4-39.6,35.6-59.4,53.5c-3.2,2.9-6.5,5.7-9.8,8.5c-6.6,5.4-14.2,7.7-22.6,7.5c-10.1-0.2-16.6-9-14.1-18.8
		c0.6-2.4,1.5-4.8,3-6.8c3.7-4.9,7.5-9.8,11.3-14.6C493.8,78.7,494.3,78.7,498.8,78.7z"/>
	<path class="st3" d="M1181.9,217.2c-0.2-5.5,2.3-8.8,5.8-11.6c4.6-3.6,9-7.4,13.4-11.2c2.5-2.2,4.6-4.8,6.7-7.4
		c1.8-2.2,2.4-4.7,2-7.5c-0.5-3.6-2.2-5.4-5.9-5.5c-4.8-0.1-9.7,0.3-14.5,0.4c-3,0.1-6.1,0.3-8.3-2.3c-0.3-4.1-0.3-4.2,3.5-5.9
		c8-3.6,16.4-6.1,25-7.8c4.2-0.8,8.4-1.8,12.8-1.9c5.6-0.1,8.7,1.8,10.9,6.9c0.6,1.5,1,3.1,1.6,5c-3.5,4.5-7.6,8.2-12.6,11
		c-2.8,1.6-5.4,3.2-7.2,5.9c-0.9,1.3-1.5,2.6-1,4.2c1.1,1.3,2.7,1.7,4.4,2c5.6,1,11,2.5,16.1,5c2.2,1.1,4.4,2.3,6.2,4.1
		c3.5,3.4,4.2,7.2,2.5,11.8c-2.7,7.4-12.2,12.8-21.2,11.5c-3.1-0.4-6.3-0.9-9.2-2c-6.5-2.5-13.3-2.8-20-3.7
		C1189.4,217.9,1186,217,1181.9,217.2z"/>
	<path class="st5" d="M1093.3,327.1c-3.1,0-6,0-9.2,0c-7.1-13.5-14.4-27-21.8-40.9c-1.2,1.3-0.8,2.6-0.8,3.7c0,11,0,22,0,33
		c0,1.3,0.5,2.7-0.8,4c-1.7,0.8-3.7,0-6.1,0.4c-0.8-8.8-0.3-17.2-0.4-25.6c-0.1-8.5,0-17,0-25.7c2.9-1.1,6.1-0.2,9.6-0.7
		c7.5,14,14.9,28,22.4,42c0.2-0.1,0.4-0.1,0.6-0.2c0-13.8,0-27.5,0-41.5c2.2,0,4.2,0,6.2,0C1093.9,279.1,1094.1,318.7,1093.3,327.1z
		"/>
	<path class="st5" d="M579.2,327.1c0-17.3,0-34.3,0-51.7c8.2,0.5,16.3-0.8,24.3,0.9c7.1,1.5,12.1,7.7,9.3,16.7c-0.9,3-3.4,4.7-6,6.1
		c0.5,1.5,1.9,1.5,2.8,2.1c4.7,3,6.5,7.5,6,12.8c-0.5,5.2-3,9.5-8.3,11.4c-2.8,1-5.7,1.7-8.7,1.8C592.3,327.2,586,327.1,579.2,327.1
		z M586.1,321.1c0.8,0.1,1.1,0.2,1.4,0.2c2.7,0,5.3,0,8,0c2.2,0,4.3,0,6.4-0.7c4.3-1.5,6.1-4.1,6.1-9.1c-0.1-4.8-1.7-7-6.2-8.4
		c-5.2-1.5-10.4-0.5-15.7-0.8C586.1,308.9,586.1,314.9,586.1,321.1z M586.2,296.4c4.6,0,8.9,0.2,13.2-0.1c4.7-0.3,6.7-2.9,6.8-7.4
		c0.1-4.4-2.9-7.1-7-7.4c-4.2-0.4-8.5-0.1-13-0.1C586.2,286.5,586.2,291.2,586.2,296.4z"/>
	<path class="st5" d="M924.4,327.3c-2-3.9-3.7-7.7-5.6-11.3c-6-11.5-7.5-10.7-17.8-10.6c-0.6,0-1.3-0.2-2.2,0.9c0,3,0,6.5,0,9.9
		c0,3.5,0,7,0,10.6c-2.2,0.9-4.3,0.2-6.3,0.5c-0.9-4.6-1.2-35.5-0.5-51.1c0.9-1.2,2.1-0.7,3.2-0.7c6.3,0.2,12.6-0.4,18.9,0.8
		c11.7,2.2,13.1,15.7,8.6,22.4c-0.4,0.5-0.8,1.1-1.3,1.5c-1.3,1-2.8,1.8-4.3,2.8c3.7,2.8,6.2,6.7,8.2,10.9c2,4.2,4.1,8.3,6.4,12.7
		C929.1,327.7,927,327,924.4,327.3z M898.9,299.4c3.7,0,6.9,0.1,10.2,0c5.1-0.3,7.9-3.1,8.2-8.1c0.3-5.8-2.1-9.1-7.5-9.7
		c-3.6-0.4-7.2-0.4-10.9,0.1C898.9,287.5,898.9,293.1,898.9,299.4z"/>
	<path class="st5" d="M452.1,326.9c-2.4,0-4.3,0-6.3,0c-0.9-3.3-1.3-42.1-0.4-51.2c2,0,4.1,0,6.6,0c0,6.8,0,13.6,0,20.6
		c8.5,0,16.6,0,25.1,0c0-6.8,0-13.5,0-20.5c2.6,0,4.9,0,7.3,0c0,17,0,33.9,0,51.1c-2.1,0.7-4.4,0.2-7,0.3c0-8.1,0-16,0-24.2
		c-4.4-1-8.5-0.4-12.5-0.5c-4-0.1-8,0-12.4,0c-0.7,4.2-0.3,8.3-0.3,12.4C452,318.8,452.1,322.8,452.1,326.9z"/>
	<path class="st5" d="M547.8,296.5c0,2.2,0,3.9,0,5.9c-8,0-15.9,0-24,0c0,6.4,0,12.3,0,18.7c8.6,0,17,0,25.5,0
		c0.8,2.1,0.4,3.9,0.4,5.8c-11.2,0-22.1,0-33.2,0c0-17,0-33.9,0-50.8c3.6-0.8,24.6-1,32.3-0.3c0,1.7,0,3.4,0,5.6c-8.4,0-16.6,0-25,0
		c0,5.1,0,9.7,0,14.5c2.5,1.1,5.1,0.4,7.7,0.5c2.7,0.1,5.3,0,8,0C542.1,296.5,544.7,296.5,547.8,296.5z"/>
	<path class="st5" d="M1125.3,275.7c11.2,0,21.8,0,32.4,0c0.6,1.8,0.3,3.4,0.3,5.4c-4.1,0.6-8.2,0.2-12.3,0.3c-4.1,0.1-8.3,0-12.7,0
		c0,5,0,9.7,0,14.9c3.7,0.5,7.6,0.1,11.6,0.2c4,0.1,7.9,0,12.2,0c0,2,0,3.7,0,6c-7.9,0-15.8,0-23.8,0c0,6.4,0,12.3,0,18.6
		c8.6,0,17,0,25.2,0c1.3,2.1,0.5,3.8,0.7,5.8c-11.1,0-21.8,0-32.8,0c-0.2-0.5-0.8-1-0.8-1.6C1125.2,308.9,1125.3,292.4,1125.3,275.7
		z"/>
	<path class="st5" d="M646,326.8c-0.2-0.3-0.5-0.6-0.5-0.8c0-16.6,0-33.2,0-49.8c3.4-0.8,23.2-1.1,32-0.4c0.8,0.8,0.5,1.8,0.5,2.8
		c0.1,0.8,0,1.6,0,2.8c-8.5,0-16.8,0-25.2,0c0,5.2,0,9.9,0,15c7.9,0,15.7,0,23.2,0c1.6,1.9,0.4,3.8,1.2,6c-8.3,0-16.2,0-24.3,0
		c0,6.4,0,12.3,0,18.8c4.2,0.1,8.5,0,12.7,0.1c4.2,0,8.3,0,12.5,0c1.3,1.8,0.4,3.6,0.6,5.3C675.2,327.3,651.6,327.5,646,326.8z"/>
	<path class="st5" d="M800,275.6c2.9,0,5.3,0,8,0c6.4,16.9,12.9,33.8,19.4,50.9c-2.4,1.2-4.6,0.5-6.8,0.7c-2.4-4-2.9-8.8-5.1-13
		c-7.6,0-15.2,0-23,0c-2,4.2-2.8,8.8-5.1,13c-2.2-0.2-4.3,0.3-6.9-0.5C787.1,309.6,793.5,292.6,800,275.6z M813,308
		c-1.6-6.9-7.4-22-9.4-24.3c-2.9,8-5.8,16-8.9,24.3C801,308,806.8,308,813,308z"/>
	<path class="st5" d="M1218.8,277.3c0,2.2,0,4.2,0,6.3c-3.4-1-6.5-2-9.7-2.8c-3.6-0.9-7.3-0.6-10.8,0.7c-2.3,0.8-4,2.3-4.9,4.7
		c-1.4,3.8,0,7.6,3.8,9c3.1,1.1,6.4,1.6,9.6,2.4c3.2,0.8,6.4,1.6,9.3,3.4c5.6,3.6,6.5,9,5.8,14.8c-0.6,5.3-3.7,8.7-8.6,10.6
		c-6.6,2.5-13.3,2.2-20,0.6c-2.2-0.5-4.4-1.2-6.5-1.8c-1.1-1.1-0.7-2.3-0.7-3.4c0-1.1-0.4-2.3,0.6-3.5c3.8,1.2,7.5,3.1,11.7,3.8
		c3.6,0.6,6.9,0.4,10.3-0.5c3.6-1,6.1-4,6.3-7.5c0.1-3.6-1.2-6.7-5.2-8.2c-2.9-1.1-6-1.7-9.1-2.3c-2.5-0.5-4.8-1.2-7.1-2.3
		c-4.5-2.1-7.3-5.5-7.5-10.8c-0.2-5.6,1.6-10.1,6.5-13c4.6-2.7,9.7-3.2,14.9-2.7C1211.1,275,1214.9,275.6,1218.8,277.3z"/>
	<path class="st3" d="M767,131.2c1.1-1.8,2.6-2.5,4.3-2.8c4-0.8,8-2,12.1-2.7c5-0.8,9.9-0.6,14.5,2c4.1,2.3,6.1,6,6.8,10.4
		c0.3,2.4-0.9,4.5-2.4,6.3c-2.9,3.5-7.7,6.3-14.8,3.3c-1.7-0.7-3.4-1.6-4.7-2.8c-4-3.6-8.3-6.6-12.5-9.9
		C768.8,134.1,767.6,133,767,131.2z"/>
	<path class="st3" d="M1240.8,120.7c-0.6,3.7-3.4,4.5-5.7,5.4c-4.8,1.9-9.8,3.2-14.8,4.1c-3.2,0.6-6.5,1.2-9.8,1.8
		c-1.2-1.6-0.5-3.1,0.1-4.6c2.2-5.4,4.3-10.7,6.5-16.1c2.7-6.6,10.7-8.2,15.9-3.2c1.5,1.4,2.6,3,3.6,4.8
		C1238,115.4,1239.4,118,1240.8,120.7z"/>
	<path class="st5" d="M959.1,326.9c0-17.2,0-34.1,0-51.2c2.3,0,4.3,0,6.7,0c0,15.1,0,30,0,45.1c4.3,0.8,8.5,0.3,12.6,0.4
		c4,0.1,8,0,11.9,0c1.3,1.8,0.3,3.6,0.8,5.7C980.3,326.9,969.9,326.9,959.1,326.9z"/>
	<path class="st3" d="M926.6,57c-8.5,2.4-17.4,3.7-27.1,3.3c2.8-8.3,6.4-15.4,13.1-20.6c0.3-0.2,0.6-0.3,0.9-0.5
		c7.1-4.3,14.1-2.1,15.4,7.5C929.2,50.1,929.4,53.7,926.6,57z"/>
	<path class="st5" d="M708.5,275.6c2.3,0,4.2,0,6.4,0c0,17.2,0,34.2,0,51.4c-2.2,0-4.2,0-6.1,0C707.9,323.4,707.7,283.3,708.5,275.6
		z"/>
	<path class="st5" d="M859.7,327c-2.3,0-4.2,0-6.4,0c0-17.1,0-34,0-51.1c2-0.8,4.1-0.3,6.1-0.4C860.2,279.3,860.4,320.9,859.7,327z"
		/>
	<path class="st5" d="M1022.6,327c-2.3,0-4.2,0-6.4,0c0-17.1,0-34,0-51.1c2-0.8,4.1-0.1,6.1-0.5
		C1023.2,279.2,1023.4,320.5,1022.6,327z"/>
	<path class="st2" d="M12.7,244.4c-1.2-1.1-2-2.3-1.4-4C12.5,241.5,13.3,242.7,12.7,244.4z"/>
	<path class="st2" d="M10.5,237.7c0.3,0.4,0.4,0.9,0.1,1.4C9.9,238.6,10.1,238.1,10.5,237.7z"/>
	<polygon class="st2" points="122.2,303.8 122.6,303.7 122.6,304 	"/>
	<path class="st0" d="M288.7,151.2c0-0.6,0.2-1.2,0.9-1.5c0.7,0.9,0.3,1.4-0.5,1.8L288.7,151.2z"/>
	<path class="st0" d="M229,261.4c-0.1-0.4,0.2-0.9,0.3-0.8C230.2,261.4,229.1,261.1,229,261.4L229,261.4z"/>
	<path class="st0" d="M242.9,242.3c0.1-0.3,0.2-0.5,0.3-0.8c0.2,0.1,0.4,0.3,0.5,0.4C243.5,242.1,243.2,242.2,242.9,242.3
		C243,242.4,242.9,242.3,242.9,242.3z"/>
	<path class="st0" d="M263.7,208.1c0.2-0.6,0.6-1,1.3-0.7l-0.1-0.1c0,0.6-0.3,1-0.9,1.1L263.7,208.1z"/>
	<path class="st0" d="M265,207.4c0.1-0.3,0.2-0.6,0.3-0.8C266.1,207.3,265.1,207.1,265,207.4L265,207.4z"/>
	<path class="st0" d="M881,124.2c2.7,2.2,2.5,4.9,2.6,7.2c0.3,7,0.1,13.9,0.1,21.2c-3.7,1.6-7.5,3.2-12.1,5.2"/>
</g>
</svg>
