<?xml version="1.0" encoding="utf-8"?>
<!-- Generator: Adobe Illustrator 23.0.5, SVG Export Plug-In . SVG Version: 6.00 Build 0)  -->
<svg version="1.1" id="layer" xmlns="http://www.w3.org/2000/svg" xmlns:xlink="http://www.w3.org/1999/xlink" x="0px" y="0px"
	 width="600.051px" height="152.2px" viewBox="0 0 600.051 152.2" enable-background="new 0 0 600.051 152.2" xml:space="preserve">
<g>
	<g>
		<g>
			<polygon fill="#CC0000" points="77.351,124.1 83.351,124.1 82.751,117.1 			"/>
		</g>
		<g>
			<path fill="#CC0000" d="M152.451,83.1c0.5-4.9,0.5-11.9-0.5-16.7l0,0c-1.6,7.6-6.5,17.8-16.7,25.9l0,0c9.2-9.7,14.6-21.6,15.7-34
				c-1.6-7-4.3-13.5-7.6-19.4l0,0c1.6,12.4-1.1,29.1-13.5,42.6l0,0c10.3-15.1,13-33.5,8.6-49.6c-14.6-19.5-37.3-31.9-62.1-31.9
				c-25.4,0-47.5,12.4-61.5,31.3c-4.9,16.2-2.2,34.5,8.6,49.6l0,0c-11.9-13.5-15.1-29.7-13.5-42.6l0,0c-3.2,5.9-5.9,12.4-7.6,19.4
				c0.5,12.4,5.9,24.3,15.1,34l0,0c-10.3-8.1-15.1-18.3-16.7-25.9l0,0c-0.5,5.4-1.1,11.9-0.5,16.7c2.7,8.1,8.1,15.1,14,20l0,0
				c-6.5-3.8-10.3-8.1-12.4-11.3l0,0c7,34.5,37.8,61,75,61s68-26.4,75-61l0,0c-2.7,3.2-5.9,7.6-12.4,11.3l0,0
				C144.351,98.2,149.751,91.8,152.451,83.1 M47.751,133.3c-2.7,0-5.4-0.5-7-0.5l1.6-4.9c4.9,0.5,8.6,0,10.3-3.8l4.9-13h10.3
				l-5.4,14.6C59.551,132.8,52.551,133.3,47.751,133.3 M83.351,132.2v-4.3h-9.2l-3.2,4.3h-8.6l17.3-20.5c1.1-1.1,2.2-1.6,3.2-1.6
				h9.2l2.2,22.1C94.151,132.2,83.351,132.2,83.351,132.2z M120.551,132.2h-23.7l8.6-22.1h10.3l-6.5,17.3h13.5L120.551,132.2z
				 M110.851,86.4c-15.7,15.1-38.9,5.4-36.7-13c1.6-14.6,19.4-28.6,32.9-36.7l0,0c-1.6-1.6-5.4-5.4-7.6-8.1
				c-6.5-7.6-17.8-8.1-24.8,0.5l-38.3,2.7l0,0l41,2.2c7.6,0.5,9.7,7,2.7,12.4c-26.4,20-30.8,41-24.8,57.7l0,0
				c-2.2-3.2-4.3-7.6-5.4-11.9c-13-7.6-23.2-22.7-23.2-41c0-27,22.1-49.1,49.1-49.1s49.1,22.1,49.1,49.1
				C125.451,65.8,118.951,78.3,110.851,86.4"/>
		</g>
	</g>
	<path d="M301.951,94.5c-14.4,37.7-50.1,40.7-75.5,40.7c-12.3,0.1-24.6-1.1-36.6-3.6l9-23.5c24.2,2.8,44.9,0.7,53-20.4l25.7-66.9
		h52.7L301.951,94.5z"/>
	<path d="M589.351,20.8h-47.2c-6.3,0.4-12.2,3.3-16.3,8.2l-88.5,102.6h43.6l17.6-21.8h47.8l0.9,21.8h52.8L589.351,20.8z
		 M515.751,88.4l28.4-35.4l1.3,35.4H515.751z"/>
	<polygon points="486.551,20.8 352.251,20.8 344.051,42.1 384.751,42.1 350.451,131.5 403.251,131.5 437.651,42.1 478.351,42.1 	"/>
</g>
</svg>
