<?xml version="1.0" encoding="utf-8"?>
<!-- Generator: Adobe Illustrator 22.1.0, SVG Export Plug-In . SVG Version: 6.00 Build 0)  -->
<svg version="1.1" id="Слой_1" xmlns="http://www.w3.org/2000/svg" xmlns:xlink="http://www.w3.org/1999/xlink" x="0px" y="0px"
	 width="559.829px" height="142.178px" viewBox="0 0 559.829 142.178" enable-background="new 0 0 559.829 142.178"
	 xml:space="preserve">
<g>
	<path fill-rule="evenodd" clip-rule="evenodd" fill="#1B4281" d="M0,0h136.702C107.885,6.869,87.663,24.34,78.85,55.881
		c-6.471-13.326-25.612-11.733-27.415,4.03c7.237-0.219,8.285,2.532,7.461,11.005c-1.907,30.818,11.356,54.863,46.791,69.011H0V0
		L0,0z M190.15,50.373l21.495-49.716l21.002,49.552c1.36,3.209,3.363,6.385,5.907,9.209h-15.752
		c3.114-1.057,3.151-2.662,2.125-5.748l-2.617-7.87l-20.977-0.021l-4.097,7.55c-1.475,2.716-1.016,5.124,2.102,6.09h-14.604
		C187.032,56.648,188.758,53.592,190.15,50.373L190.15,50.373z M209.895,21.448c0.77-2.077,2.387-2.076,3.158,0l5.864,15.79
		c0.262,0.703-0.325,1.998-0.966,1.998H205.19c-0.646,0-1.487-1.096-1.224-1.805L209.895,21.448L209.895,21.448z M386.925,51.852
		l19.209-43.536l18.769,43.399c1.169,2.702,3.006,5.341,5.278,7.702h-14.076c2.783-0.884,2.816-2.226,1.899-4.808l-2.339-6.583
		l-18.746-0.017l-3.661,6.314c-1.317,2.272-0.908,4.286,1.879,5.094h-13.05C384.139,57.101,385.728,54.564,386.925,51.852
		L386.925,51.852z M404.57,27.659c0.689-1.737,2.133-1.737,2.822,0l5.241,13.207c0.234,0.588-0.291,1.671-0.864,1.671h-11.403
		c-0.577,0-1.329-0.917-1.094-1.51L404.57,27.659L404.57,27.659z M475.211,51.852L494.42,8.316l18.769,43.399
		c1.168,2.702,3.006,5.341,5.279,7.702h-14.076c2.783-0.884,2.816-2.226,1.899-4.808l-2.339-6.583l-18.746-0.017l-3.661,6.314
		c-1.318,2.272-0.908,4.286,1.879,5.094h-13.05C472.425,57.101,474.015,54.564,475.211,51.852L475.211,51.852z M492.856,27.659
		c0.689-1.737,2.133-1.737,2.822,0l5.241,13.207c0.234,0.588-0.291,1.671-0.864,1.671h-11.404c-0.577,0-1.329-0.917-1.094-1.51
		L492.856,27.659L492.856,27.659z M322.062,51.617l8.073-50.961l16.256,32.77c1.757,3.542,2.848,3.563,4.569,0.024l15.945-32.793
		l8,50.445c0.629,3.966,1.827,7.092,4.774,8.316h-14.451c2.308-1.511,2.662-3.963,2.278-6.857l-3.319-25.03
		c-0.306-2.306-1.906-1.86-2.84,0l-12.281,24.472c-0.313,0.624-0.741,0.625-1.053,0.001L335.734,27.53
		c-0.847-1.688-2.428-2.255-2.766,0l-3.766,25.157c-0.497,3.319-0.066,5.519,2.223,6.731h-14.008
		C319.654,57.506,321.534,54.956,322.062,51.617L322.062,51.617z M242.4,10.268h14.418c-2.675,2.125-3.542,4.559-3.542,7.248v34.412
		c0,3.496,0.733,5.806,3.542,7.489H242.4c2.483-1.755,3.541-4.711,3.541-7.379V17.516C245.942,14.827,245.343,11.924,242.4,10.268
		L242.4,10.268z M264.66,10.268h15.177c11.908,0,19.574,3.87,19.719,13.501c0.1,6.695-3.394,10.047-7.357,11.833
		c-1.864,0.84-1.602,2.335-0.382,4.334l10.295,16.87c0.72,1.181,1.541,2.138,2.79,2.612c-1.894,0.509-5.32,0.609-6.937,0.438
		c-2.883-0.304-3.877-1.691-4.92-3.462l-13.018-22.097c8.079,0.343,12.307-3.826,12.104-9.579c-0.18-5.097-4.769-8.099-7.231-8.101
		l-6.896-0.004c-1.352-0.001-2.422,0.886-2.423,2.031l-0.044,33.284c-0.005,3.496,0.733,5.806,3.542,7.489H264.66
		c2.483-1.755,3.541-4.711,3.541-7.379V17.516C268.201,14.827,267.603,11.924,264.66,10.268L264.66,10.268z M452.741,9.348
		c5.443,0,10.464,2.545,14.633,1.841l0.017,8.938c-13.085-9.722-30.7-3.462-30.421,14.633c0.219,14.162,11.496,26.52,30.406,15.33
		l-1.668,7.747c-3.466,2.251-8.267,2.829-12.507,2.796c-11.799-0.092-23.888-9.529-23.888-25.229
		C429.313,19.706,439.837,9.348,452.741,9.348L452.741,9.348z M537.887,60.522c-12.4-0.022-18.285-7.078-18.285-15.557V16.969
		c0-2.281-0.598-4.744-3.541-6.149h14.418c-2.675,1.803-3.541,3.868-3.541,6.149v27.183c0,5.786,4.075,10.433,11.051,10.534
		c7.222,0.024,10.963-6.188,10.963-10.39V16.969c0-2.281-0.866-4.346-3.542-6.149h14.419c-2.943,1.404-3.542,3.867-3.542,6.149
		v27.995C556.287,56.157,547.771,60.441,537.887,60.522L537.887,60.522z M191.314,81.191c0.254-0.359,0.709-0.233,1.053-0.143
		c2.267,0.774,4.68,1.082,6.858,2.146c1.524,0.522,2.647,1.678,3.88,2.651c0.89,0.702,1.18,1.873,1.307,2.957
		c-0.073,1.425-0.525,2.849-1.397,4.003c-0.616,0.81-1.07,1.748-1.832,2.415c-0.399,0.109-0.799,0.072-1.179,0.072
		c-1.18-2.524-2.43-5.048-4.009-7.374c-0.925-1.694-2.286-3.102-3.321-4.723C192.257,82.509,191.477,82.004,191.314,81.191
		L191.314,81.191L191.314,81.191z M289.57,81.174c3.301,0.578,6.495,1.568,9.761,2.254c6.294,0.09,12.607,0,18.921,0.035
		c0.237,1.282,0.073,2.579,0.073,3.877c0.127,5.843,0.017,11.684,0.072,17.525c-0.055,1.226,0.055,2.452-0.091,3.661
		c-0.181,0.937-1.361,0.83-2.086,1.026c-1.995,0.182-3.881,1.156-5.913,0.94c-0.02-1.047,0.053-2.075-0.057-3.102
		c-0.197-0.559-0.67-1.153-1.34-1.1c-2.778-0.036-5.553-0.054-8.329,0.017c-0.869-0.053-1.759,0.651-1.632,1.571
		c-0.019,9.753-0.019,19.525-0.055,29.298c0.092,1.189-1.379,1.388-2.267,1.568c-2.34,0.126-4.626,0.721-6.966,0.83
		c-0.036-6.311-0.055-12.622-0.091-18.932c-0.019-1.082-0.236-2.165-0.056-3.245c0.253-1.424-0.198-2.832-0.071-4.255
		c0.289-1.839-0.2-3.679,0.035-5.517c0.236-1.245-0.091-2.507-0.035-3.75c0.198-2.508,0.235-5.013,0-7.52
		c-0.073-1.585,0.035-3.172,0.127-4.76c-0.127-1.82-0.236-3.677-0.019-5.498C289.752,84.456,289.17,82.796,289.57,81.174
		L289.57,81.174L289.57,81.174z M299.929,84.961c-0.509,0.09-1.09,0.506-0.98,1.081c0.108,2.543-0.181,5.103,0.344,7.609
		c0.49,0.305,1.053,0.342,1.615,0.342c2.322,0.018,4.662-0.017,7.002,0.036c0.708-0.018,1.615,0.073,2.105-0.558
		c0.689-1.569-0.181-3.265,0.144-4.886c0.182-1.029-0.072-2.056-0.181-3.083c-0.399-0.434-0.962-0.757-1.56-0.777
		c-1.179-0.071-2.376-0.017-3.537,0.163C303.231,84.997,301.579,84.851,299.929,84.961L299.929,84.961L299.929,84.961z
		 M300.146,95.365c-0.708,0.126-1.107,0.792-1.125,1.478c-0.109,1.837,0,3.677-0.035,5.517c0,0.864-0.092,1.767,0.308,2.559
		c1.361,0.596,2.902,0.271,4.318,0.126c1.959-0.09,3.937,0.091,5.896-0.09c0.545-0.432,0.615-1.189,0.725-1.82
		c0.144-1.587-0.036-3.173,0.053-4.777c-0.036-0.83,0.164-1.767-0.38-2.488c-0.381-0.561-1.123-0.596-1.741-0.615
		c-2.195-0.017-4.372,0-6.568-0.017C301.108,95.255,300.618,95.219,300.146,95.365L300.146,95.365L300.146,95.365z M222.681,81.769
		c2.794-0.163,5.588,0.018,8.363-0.037c1.18,0,2.36-0.072,3.539,0.073c-0.654,0.721-1.67,1.027-2.305,1.784
		c-0.869,0.974-1.27,2.272-1.595,3.517c0.144,0.774,1.051,0.558,1.614,0.611c8.507,0.037,17.016,0.055,25.526,0
		c0.017,0.272,0.054,0.525,0.054,0.777c-0.636,0.469-1.506,0.612-2.014,1.261c-1.199,1.207-1.543,2.958-1.724,4.578
		c-0.036,7.736,0.037,15.453-0.054,23.169c-1.216,0.594-2.576,0.558-3.865,0.811c-1.198,0.344-2.412,0.722-3.682,0.704
		c-0.056-1.388-0.036-2.777-0.183-4.146c-0.035-3.119-0.035-6.238,0-9.359c-0.524-0.343-1.051-0.793-1.704-0.793
		c-2.775-0.055-5.551-0.019-8.326-0.019c-0.545-0.017-1.035,0.289-1.524,0.505c0.144,0.253,0.217,0.541,0.418,0.757
		c2.539,1.191,5.568,1.246,7.818,3.029c0.763,0.65,1.541,1.551,1.45,2.634c-0.016,1.243-0.27,2.559-1.051,3.568
		c-0.381,0.163-0.944,0.236-1.178-0.161c-1.053-1.297-1.888-2.776-3.139-3.912c-0.781-0.722-1.524-1.479-2.25-2.272
		c-0.417-0.398-0.872-0.956-1.524-0.83c-0.454-0.037-0.708,0.488-0.672,0.866c-0.055,1.353,0,2.705,0.199,4.038
		c0.072,0.45-0.055,0.992-0.472,1.261c-1.034,0.505-2.213,0.541-3.336,0.631c-0.98,0.146-1.925,0.434-2.904,0.452
		c-0.128-1.767,0.09-3.551-0.108-5.319c-0.127-0.883-1.306-0.92-1.814-0.362c-2.051,1.84-4.174,3.733-6.785,4.707
		c-1.07,0.469-2.286,0.668-3.194,1.405c-0.617,0.435-0.436,1.246-0.508,1.893c-1.305,0.342-2.666,0.452-3.992,0.777
		c-1.305,0.323-2.631,0.631-3.991,0.631c-0.017-5.896-0.054-11.775-0.017-17.671c-0.181-0.107-0.527-0.359-0.708-0.469
		c-0.89,0.559-0.998,1.605-1.271,2.508c-1.487,4.163-2.449,8.473-3.881,12.639c-0.381,1.442-0.727,2.884-1.199,4.308
		c-0.308,1.173-0.797,2.326-0.78,3.57c0,1.64-0.145,3.336,0.308,4.921c0.598,2.308,0.69,4.797-0.072,7.068
		c-0.544,1.172-1.415,2.164-2.285,3.103c-0.437,0.485-1.072,0.631-1.707,0.684c-1.197-3.066-2.504-6.095-3.537-9.231
		c-0.835-2.236-2.014-4.309-3.012-6.474c-0.471-1.045-1.161-1.928-1.815-2.847c-0.652-0.956-1.651-1.641-2.34-2.579
		c2.521,0.018,4.899,1.244,7.438,1.045c1.524,0.073,3.048-0.721,3.774-2.073c2.159-4.02,4.337-8.059,6.513-12.08
		c0.618-1.027,1.143-2.091,1.615-3.19c0.671-1.587,1.851-2.922,2.522-4.507c0.689-1.624,0.381-3.427,0.435-5.122
		c0.037-2.378-0.054-4.777,0.037-7.158c1.885,0.199,3.627,0.993,5.478,1.408c1.143,0.252,2.195,0.884,3.41,0.863
		c1.706,0.02,3.429,0,5.134-0.017C223.116,85.952,221.866,83.662,222.681,81.769L222.681,81.769L222.681,81.769z M216.06,89.468
		c-0.02,2.055-0.037,4.093-0.02,6.149c0.037,1.08-0.344,2.145-0.144,3.226c0.254,1.352,0,2.74,0.254,4.075
		c0.472,0.469,1.18,0.325,1.778,0.379c1.815-0.037,3.627,0.053,5.441-0.144c-0.144-0.667-0.362-1.317-0.852-1.822
		c-1.433-1.585-3.048-3.029-4.262-4.795c1.833-0.307,3.591,0.469,5.278,1.045c0.943,0.343,1.796,0.957,2.323,1.804
		c0.217,1.246-0.435,2.398-0.799,3.534c0.852,0.379,2.323,0.774,2.776-0.306c0.236-1.335,0-2.67,0.182-4.002
		c0.163-1.12,0.107-2.327-0.401-3.355c-2.992-0.847-6.167-0.378-9.252-0.558c0.019-0.216,0.019-0.433,0-0.668
		c0.708-0.109,1.397-0.235,2.086-0.306c1.96-0.181,3.83-0.847,5.788-1.03c1.505-0.143,2.957-0.631,4.445-0.864
		c1.432-0.236,2.848-0.577,4.225-1.047c0.708-0.27,1.797-0.342,1.76-1.315c-1.36-0.09-2.74-0.055-4.1-0.055
		C227.053,89.449,221.556,89.306,216.06,89.468L216.06,89.468L216.06,89.468z M240.642,89.648c0.381,1.315,1.722,1.911,2.631,2.813
		c0.308,0.232,0.271,0.631,0.289,0.973c-0.543,0.179-1.108,0.234-1.669,0.253c-1.487,0.016-2.938,0.252-4.408,0.431
		c-0.943,0.109-1.832,0.524-2.593,1.1c0.073,2.056-0.019,4.092,0.036,6.131c0.488-0.09,1.124,0.017,1.469-0.451
		c0.854-0.92,1.56-1.966,2.322-2.956c0.672-0.847,1.036-1.912,1.778-2.704c0.435,0.089,0.781,0.379,1.143,0.611
		c1.016,0.758,2.086,1.443,3.157,2.11c-1.306,1.03-2.813,1.786-4.246,2.65c-1.305,0.794-2.885,1.173-3.972,2.291
		c0.635,0.288,1.323,0.433,2.013,0.378c2.195-0.035,4.391,0.054,6.586-0.018c0.853,0.037,0.998-0.92,1.07-1.568
		c0.091-1.136,0.254-2.398-0.508-3.355c0.217-0.485,0.545-0.954,0.562-1.514c0.073-1.91-0.073-3.84,0-5.77
		c0.037-0.558-0.236-1.08-0.454-1.585C244.125,89.449,242.31,88.944,240.642,89.648L240.642,89.648L240.642,89.648z
		 M216.259,104.955c-0.381,0.993-0.109,2.039-0.199,3.049c-0.164,1.91,0.017,3.821-0.073,5.734c0.181,0.09,0.561,0.306,0.745,0.396
		c0.906-0.486,1.632-1.226,2.23-2.057c1.597-2,3.285-4.199,3.519-6.833c-0.562-0.253-1.143-0.522-1.758-0.522
		C219.235,104.702,217.728,104.649,216.259,104.955L216.259,104.955L216.259,104.955z M325.69,81.696
		c2.94,0.272,5.734,1.372,8.654,1.75c7.928,0.09,15.856-0.018,23.784,0.053c0,0.126,0,0.362,0,0.489
		c-1.216,0.827-2.613,1.837-2.904,3.371c-0.235,1.153-0.598,2.289-0.581,3.478c0.056,12.946-0.018,25.893,0.019,38.837
		c0.037,1.37-0.545,2.651-0.799,3.985c-0.164,1.1-0.906,1.984-1.541,2.848c-1.199,1.478-2.813,2.687-4.718,3.047
		c-2.812,0.812-5.86,1.1-8.69,0.325c-0.726-0.956-0.853-2.218-1.578-3.173c-1.722-2.182-4.081-3.823-6.675-4.833
		c0.979-0.631,2.139-0.143,3.192-0.126c1.27,0.037,2.504,0.398,3.773,0.325c1.851-0.054,3.683,0.395,5.551,0.233
		c1.287-0.306,1.942-1.657,1.886-2.883c0.035-6.761-0.055-13.54-0.018-20.302c-0.037-0.92,0.09-2.289-1.053-2.596
		c-1.758-0.414-3.572-0.181-5.351-0.252c-1.344,0.108-2.74-0.181-4.027,0.306c-0.962,0.233-0.871,1.658-1.869,1.821
		c-2.176,0.487-4.355,0.92-6.549,1.28c-0.889-0.379-0.797-1.479-0.67-2.253c0.416-1.857-0.127-3.714-0.056-5.554
		c0.02-1.586,0.037-3.173-0.036-4.759c-0.072-1.082,0.346-2.146,0.162-3.227c-0.162-0.83,0.073-1.677,0.057-2.524
		C325.635,88.133,325.635,84.924,325.69,81.696L325.69,81.696L325.69,81.696z M334.689,84.888c-0.364,0.109-0.655,0.396-0.726,0.757
		c-0.437,1.442-0.183,2.976-0.237,4.455c0.054,1.279-0.164,2.614,0.327,3.84c0.779,0.432,1.705,0.269,2.576,0.289
		c2.341-0.073,4.681,0.126,7.021-0.073c1.106-0.09,1.47-1.371,1.415-2.289c-0.072-1.93,0.019-3.86-0.055-5.77
		c-0.017-1.064-1.233-1.335-2.068-1.352c-2.357-0.02-4.733,0.017-7.093,0C335.468,84.745,335.05,84.725,334.689,84.888
		L334.689,84.888L334.689,84.888z M334.415,95.581c-0.417,0.289-0.689,0.757-0.671,1.262c-0.072,2.09,0.018,4.182-0.018,6.292
		c0.018,0.594-0.109,1.28,0.364,1.767c0.833,0.505,1.849,0.306,2.793,0.325c2.014-0.091,4.027,0.07,6.059-0.037
		c0.691-0.109,1.65-0.163,1.887-0.956c0.581-1.243-0.145-2.595,0.145-3.877c0.2-1.316,0.019-2.668-0.29-3.966
		c-0.035-0.452-0.508-0.542-0.853-0.649c-1.869-0.488-3.809-0.236-5.696-0.289C336.901,95.544,335.614,95.309,334.415,95.581
		L334.415,95.581L334.415,95.581z M396.497,82.616c-0.11-0.612,0.563-0.973,1.107-0.884c3.483,0.02,6.947,0,10.431,0
		c0.017,0.236,0.036,0.469,0.054,0.704c-2.758,1.082-3.847,4.398-3.283,7.103c0.309,0.883,1.361,0.776,2.103,0.848
		c6.386-0.056,12.772,0.071,19.158,0c2.014-0.073,4.082,0.18,6.077-0.272c0.473-0.937,0.254-2.019,0.291-3.01
		c-0.09-1.64,0.181-3.282,0-4.942c0.381-0.144,0.762-0.306,1.179-0.287c3.483,0,6.949,0.053,10.414,0.071
		c-0.163,0.721-0.889,0.974-1.433,1.352c-1.106,0.722-1.778,2.002-1.868,3.301c-0.127,1.189-0.799,2.668,0.325,3.604
		c1.47,0.146,2.957-0.09,4.428,0.182c0.996,0.18,2.012-0.162,3.012-0.126c2.758,0.27,5.552,0.181,8.309,0.181
		c0.417-0.019,0.798,0.162,1.179,0.305c-0.437,0.433-0.745,1.226-1.453,1.209c-12.844-0.037-25.688,0-38.532,0
		c-0.835,0-2.377-0.037-2.359,1.136c-0.018,4.85,0,9.699,0.017,14.549c-0.09,0.614,0.509,1.119,1.089,1.119
		c1.741,0.09,3.503-0.055,5.244,0.054c-0.218,0.631-0.491,1.299-1.071,1.678c-1.361,0.196-2.739-0.074-4.099,0.161
		c-0.581,0.108-1.27,0.54-1.18,1.207c-0.018,4.85-0.037,9.7-0.037,14.55c-0.017,1.606,0.127,3.228-0.217,4.796
		c-0.127,1.388-0.272,2.867-1.125,4.022c-0.98,1.784-2.829,2.812-4.626,3.604c-1.996,0.595-4.008,1.209-6.114,0.993
		c-0.762-1.407-1.16-3.048-2.34-4.219c-0.78-0.812-1.651-1.534-2.631-2.109c-0.018-0.126-0.073-0.362-0.09-0.488
		c2.448,0.431,4.97,0.361,7.437,0.252c1.18-0.757,1.761-2.218,1.724-3.587c-0.019-2.813-0.019-5.626-0.037-8.457
		c-0.49,0-0.979-0.017-1.47-0.017c-0.742,1.586-1.886,3.515-3.827,3.661c-0.672-3.192-1.922-6.238-3.375-9.178
		c-0.218-0.468-0.416-0.993-0.816-1.352c-0.381-0.055-0.743-0.09-1.124-0.109c-0.127,1.73,0.017,3.462-0.091,5.175
		c-0.237,1.153-0.454,2.309-0.491,3.498c-0.744,4.146-2.195,8.331-5.116,11.503c-0.853,0.866-1.705,1.804-2.794,2.398
		c-1.414,0.865-2.775,1.82-4.262,2.542c-0.254,0.146-0.562,0.181-0.852,0.199c0.29-0.831,0.943-1.442,1.36-2.199
		c2.139-3.678,3.319-7.843,3.901-12.027c0.435-1.532,0.181-3.154,0.525-4.687c0.147-3.192,0.037-6.381,0.037-9.556
		c-1.778-0.991-3.881-0.359-5.805-0.632c0-0.432-0.037-0.883,0.073-1.332c1.561-0.721,3.374-0.073,5.007-0.434
		c0.418-0.181,0.816-0.522,0.725-1.028c0.074-6.4,0-12.802,0.054-19.183c2.032,0.288,3.884,1.225,5.862,1.711
		c0.762,0.235,1.251-0.702,1.324-1.316C396.461,86.764,396.478,84.689,396.497,82.616L396.497,82.616L396.497,82.616z
		 M398.183,92.154c-0.816,0.091-1.414,1.171-0.507,1.64c2.74,1.46,5.698,2.67,8.001,4.816c0.381,0.379,1.307,0.72,1.578,0.107
		c0.472-1.333,0.183-2.741,0.253-4.11c-0.016-0.812,0.091-1.913-0.742-2.362c-0.889-0.47-1.924-0.235-2.867-0.272
		C401.994,92.046,400.052,91.811,398.183,92.154L398.183,92.154L398.183,92.154z M397.06,98.61c0.453,1.837-0.128,3.677-0.091,5.534
		c0.017,1.425-0.164,2.92,0.381,4.291c0.399,0.143,0.833,0.108,1.25,0.127c2.523-0.019,5.063,0.016,7.585,0
		c0.598,0.073,1.232-0.433,1.16-1.064c0.019-1.444,0-2.887-0.054-4.311c-0.381,0-0.762,0.036-1.124,0.073
		c-0.618,0.595-1.072,1.335-1.687,1.93c-0.672,0.648-1.507,1.1-2.323,1.551c-0.926-1.587-1.414-3.371-1.851-5.139
		c-0.435-1.388-1.034-2.705-1.595-4.039c-0.183-0.524-0.745-0.721-1.179-0.993C397.24,97.202,396.843,97.869,397.06,98.61
		L397.06,98.61L397.06,98.61z M397.658,110.905c-0.635,0.071-0.471,0.757-0.418,1.208c0.635,0.685,1.615,0.884,2.431,1.281
		c1.234,0.596,2.469,1.191,3.666,1.839c1.233,0.667,1.922,1.929,2.975,2.795c0.454,0.45,1.034-0.072,1.541-0.181
		c-0.181-1.568-0.416-3.136-0.289-4.723c-0.056-0.774,0.254-1.839-0.564-2.309c-0.889-0.449-1.905-0.253-2.848-0.287
		C401.994,110.618,399.781,110.329,397.658,110.905L397.658,110.905L397.658,110.905z M515.923,82.201
		c2.958-0.126,5.952,0.02,8.927-0.036c0.87-0.035,1.759-0.017,2.648,0.072c-0.763,0.757-1.849,1.155-2.394,2.129
		c-1.162,1.693-1.197,3.929-0.618,5.86c10.886,0.035,21.789,0,32.674,0.071c-0.526,1.082-1.831,1.533-2.323,2.65
		c-0.708,1.624-1.016,3.408-0.906,5.158c-0.073,0.666,0.218,1.515-0.344,2.019c-1.307,0.738-2.83,0.558-4.228,0.865
		c-1.216,0.198-2.467,0.721-3.665,0.252c-0.035-2.921,0.036-5.824-0.035-8.726c-0.564-0.379-1.198-0.648-1.905-0.595
		c-13.516,0-27.049,0.017-40.584,0c-2.685,0-5.389-0.053-8.073,0.017c-0.743-0.07-1.053,0.794-1.07,1.408
		c-0.054,2.938,0.073,5.876-0.11,8.833c-1.323,0.308-2.701,0.325-4.007,0.687c-1.361,0.378-2.794,0.485-4.191,0.359
		c-0.019-5.102,0.037-10.186-0.037-15.29c0.744,0,1.471,0.146,2.159,0.435c1.615,0.666,3.356,1.009,5.007,1.568
		c0.635,0.234,1.324,0.307,1.995,0.307c6.641-0.037,13.299,0.018,19.937-0.037c0.618,0.091,0.745-0.631,0.836-1.08
		C515.869,86.835,515.488,84.493,515.923,82.201L515.923,82.201L515.923,82.201z M424.998,95.435
		c1.723,0.47,3.429,1.066,5.188,1.444c3.609,1.296,7.493,0.721,11.248,0.864c2.613-0.017,5.207,0.054,7.82,0.019
		c0.943,0.018,1.959-0.235,2.847,0.27c-1.252,0.667-2.667,1.405-3.175,2.813c-0.707,1.495-0.58,3.173-0.615,4.777
		c0.017,4.67-0.036,9.341,0,14.028c0.162,3.624-0.127,7.284,0.144,10.908c0.163,1.478,1.922,1.063,2.902,0.721
		c0.399-1.244,0.944-2.451,1.178-3.733c0.237-1.423,0.708-2.794,0.672-4.236c0.254-0.036,0.491-0.053,0.745-0.09
		c0.253,1.279-0.02,2.65,0.488,3.876c0.345,0.92,0.745,1.838,1.29,2.668c0.689,0.957,1.722,1.659,2.25,2.724
		c0.127,0.793-0.254,1.515-0.581,2.199c-0.435,0.794-0.871,1.657-1.651,2.199c-1.541,1.01-3.355,1.749-5.244,1.694
		c-1.614,0.09-3.174-0.396-4.789-0.269c-1.414,0.126-2.557-0.812-3.61-1.589c-0.889-0.61-1.106-1.73-1.524-2.65
		c-0.253-0.612-0.561-1.207-0.524-1.893c-0.019-2.415,0.073-4.85-0.164-7.265c-0.017-7.932-0.037-15.884-0.017-23.817
		c-0.056-0.451,0.035-0.993-0.381-1.299c-0.401-0.452-1.053-0.27-1.56-0.325c-1.434,0.037-2.867-0.107-4.264,0.09
		c-0.544,0.037-0.652,0.614-0.652,1.046c-0.054,3.408,0.016,6.833-0.074,10.261c-0.344,1.73-0.163,3.515-0.199,5.264
		c-0.035,1.423-0.018,2.866-0.018,4.289c0.018,1.009-0.471,1.949-0.454,2.976c0.02,1.947-0.705,3.804-1.377,5.607
		c-1.434,3.607-4.409,6.401-7.729,8.311c-1.615,1.083-3.464,2.019-5.443,2.019c1.832-2.163,3.447-4.525,4.79-7.032
		c0.237-0.701,0.09-1.479,0.364-2.179c0.508-1.371,1.106-2.741,1.377-4.185c0.401-1.821,0.365-3.677,0.509-5.517
		c0.365-1.91,0.2-3.857,0.2-5.787C424.943,108.237,424.908,101.836,424.998,95.435L424.998,95.435L424.998,95.435z M505.565,95.743
		c2.594,0.414,5.117,1.206,7.711,1.676c1.016,0.235,2.032,0.414,3.029,0.74c-0.943,0.974-2.103,1.749-2.885,2.885
		c-0.509,0.866-0.798,1.839-1.324,2.706c-1.287,2-2.704,3.947-4.552,5.462c-1.488,1.352-3.339,2.2-5.081,3.192
		c-0.998,0.595-2.177,0.793-3.228,1.244c-2.068,0.828-4.281,1.064-6.44,1.514c-1.361,0.144-2.741-0.035-4.083,0.234
		c-0.617,0.144-1.178-0.162-1.742-0.342c0.835-0.704,1.961-0.794,2.921-1.262c1.397-0.522,2.449-1.641,3.757-2.308
		c1.414-0.738,2.339-2.056,3.483-3.1c3.011-2.76,5.08-6.347,6.965-9.898C504.639,97.6,504.712,96.409,505.565,95.743L505.565,95.743
		L505.565,95.743z M523.924,97.328c-0.017-0.827,1.069-0.757,1.651-0.81c3.593,0.036,7.183-0.054,10.759,0.072
		c-0.908,0.973-2.286,1.459-2.904,2.686c-1.27,2.615-0.87,5.553-0.852,8.349c0.054,0.901,0.78,1.694,1.687,1.821
		c2.812,0.416,5.659,0.143,8.473,0.234c1.36-0.018,3.083-0.108,3.773-1.496c0.508-1.316,0.688-2.741,1.197-4.056
		c0.144,0.035,0.435,0.126,0.562,0.161c0.236,1.334,0.745,2.67,1.777,3.57c0.726,0.524,1.615,0.72,2.377,1.19
		c0.582,0.451,0.074,1.227-0.09,1.786c-0.799,1.586-1.942,3.136-3.663,3.767c-1.38,0.668-2.941,0.668-4.429,0.632
		c-4.698-0.018-9.415,0.019-14.114,0c-1.668,0-3.409-0.632-4.536-1.874c-1.142-1.479-1.65-3.372-1.704-5.211
		C523.942,104.54,523.907,100.935,523.924,97.328L523.924,97.328L523.924,97.328z M185.164,96.949
		c1.107,0.02,2.177,0.416,3.285,0.524c1.342,0.127,2.504,0.864,3.773,1.226c1.869,0.505,3.428,1.678,5.025,2.741
		c0.89,0.864,1.233,2.217,1.18,3.424c0.054,2.634-1.832,4.706-3.302,6.707c-0.291-0.071-0.599-0.107-0.872-0.197
		c-0.635-0.777-0.889-1.767-1.325-2.651c-0.979-2.039-2.213-3.966-3.373-5.915c-0.655-1.009-1.344-2-2.196-2.847
		C186.544,99.042,185.581,98.158,185.164,96.949L185.164,96.949L185.164,96.949z M224.222,116.604
		c1.016-0.308,2.052,0.09,3.012,0.395c2.469,0.847,5.135,0.884,7.639,1.641c-0.888,0.631-1.94,1.189-2.322,2.308
		c0.362,0.216,0.689,0.595,1.143,0.577c2.557,0.126,5.134-0.126,7.691,0.197c1.343,0.127,2.685-0.359,4.027-0.089
		c1.38,0.27,2.794,0.073,4.191,0.126c2.049,0.109,4.101-0.09,6.133,0c1.451,0.073,2.885,0.053,4.336,0.053
		c-0.074,0.83-0.562,1.803-1.561,1.677c-6.966-0.017-13.933-0.017-20.917,0c-0.635,0.073-1.397-0.107-1.888,0.398
		c-0.091,0.36-0.017,0.649,0.254,0.865c0.962,0.937,2.068,1.714,3.265,2.326c1.253,0.631,2.377,1.478,3.737,1.857
		c3.248,1.066,6.441,2.398,9.853,2.867c1.25,0.272,2.52,0.47,3.79,0.667c1.034,0.109,2.106,0.055,3.102,0.398
		c-0.689,0.775-1.687,1.027-2.557,1.479c-1.76,1.279-3.266,3.209-3.121,5.481c-1.631-0.037-3.229-0.452-4.825-0.685
		c-2.576-0.596-4.916-1.84-7.276-2.993c-1.252-0.613-2.285-1.55-3.41-2.381c-0.888-0.704-1.833-1.37-2.522-2.289
		c-0.889-1.191-1.959-2.291-2.667-3.624c-0.489-0.794-0.889-1.714-1.704-2.255c-0.654-0.216-1.324,0.127-1.634,0.721
		c-1.559,2.561-3.646,4.78-6.024,6.582c-0.815,0.613-1.541,1.333-2.503,1.712c-1.922,0.83-3.754,1.912-5.806,2.488
		c-1.286,0.362-2.484,1.046-3.827,1.209c-1.596,0.234-3.102,0.956-4.735,0.973c-1.468,0-2.902,0.396-4.373,0.505
		c2.179-1.173,4.5-2.056,6.605-3.335c2.196-1.083,4.137-2.578,5.986-4.149c0.817-0.774,1.452-1.711,2.286-2.488
		c0.618-0.575,1.217-1.17,1.651-1.91c0.799-1.316,1.778-2.561,2.213-4.056c-1.778-0.614-3.682-0.289-5.532-0.362
		c-2.813-0.126-5.625,0.163-8.419-0.179c-1.433-0.073-2.865,0.053-4.318-0.073c0-0.396-0.035-0.811,0-1.226
		c0.254-0.361,0.708-0.486,1.143-0.451c5.207-0.018,10.414-0.018,15.621,0.019c0.833,0,1.668,0.072,2.484-0.109
		C223.697,120.137,223.333,118.118,224.222,116.604L224.222,116.604L224.222,116.604z M494.171,119.524
		c7.293-0.126,14.568,0.036,21.861-0.037c9.887,0.037,19.774-0.036,29.68,0.09c-0.146,0.488-0.308,0.974-0.492,1.443
		c-3.101,0.071-6.204,0.018-9.288,0.054c-3.029,0.053-6.06-0.109-9.071,0.036c-0.816-0.036-1.197,0.847-1.161,1.532
		c0.053,4.435-0.036,8.872-0.018,13.307c-0.073,0.631,0.325,1.315,0.997,1.405c1.143,0.415,2.303-0.107,3.446-0.036
		c0.762,0,1.507,0.272,2.269,0.109c1.215-0.252,2.43,0.163,3.647,0.143c0.816,0.036,1.596-0.107,2.394-0.196
		c2.522,0.305,5.043,0.125,7.566,0.179c3.156,0.053,6.313-0.073,9.452,0.073c-0.925,1.117-2.468,0.918-3.756,0.918
		c-3.41,0.035-6.802,0.071-10.194,0c-1.199,0.055-2.377-0.035-3.556,0.144c-1.27,0.234-2.523-0.252-3.774-0.126
		c-1.942,0.126-3.883-0.162-5.789,0.199c-3.537,0.054-7.075-0.019-10.595,0.017c-1.685-0.053-3.373,0.109-5.043-0.126
		c-1.251-0.199-2.539,0.073-3.791-0.217c-0.672-0.145-1.379-0.179-2.049-0.018c-1.072,0.217-2.159,0.126-3.23,0.126
		c-3.284,0.035-6.566-0.054-9.869,0.018c-0.471,0.107-0.454-0.558-0.436-0.867l0.109-0.161c2.794-0.036,5.569-0.019,8.362,0.018
		c1.036,0.017,2.052-0.362,3.103-0.163c2.722,0.379,5.48-0.054,8.218-0.09c0.564,0.017,1.071-0.558,0.998-1.119
		c0.017-2.649,0-5.318-0.073-7.986c0.073-1.93,0.073-3.876,0.036-5.823c0.09-0.866-0.871-1.336-1.615-1.299
		c-2.522,0-5.044-0.02-7.583-0.037c-3.339-0.053-6.676,0.109-9.997-0.036C494.154,120.985,494.154,120.081,494.171,119.524
		L494.171,119.524L494.171,119.524z M484.176,137.879c0.436-0.199,0.871-0.435,1.362-0.379c2.013,0.036,4.027,0.036,6.04,0
		c0.491,0.036,1.034-0.091,1.471,0.234c0.271,0.631-0.582,0.614-0.98,0.614c-1.507-0.073-2.976,0.359-4.5,0.216
		C486.407,138.454,485.029,138.943,484.176,137.879L484.176,137.879z"/>
	<path fill-rule="evenodd" clip-rule="evenodd" fill="#E30613" d="M136.702,8.883v133.295
		c-44.288-9.986-59.269-42.624-59.771-67.032c11.253-1.501,21.588,0.666,31.507,4.501C97.605,46.494,112.528,18.947,136.702,8.883
		L136.702,8.883z"/>
</g>
</svg>
