<?xml version="1.0" encoding="UTF-8"?>
<svg width="67px" height="23px" viewBox="0 0 67 23" version="1.1" xmlns="http://www.w3.org/2000/svg" xmlns:xlink="http://www.w3.org/1999/xlink">
    <!-- Generator: Sketch 49.1 (51147) - http://www.bohemiancoding.com/sketch -->
    <title>air_new_zealand_s</title>
    <desc>Created with Sketch.</desc>
    <defs></defs>
    <g id="AVIA" stroke="none" stroke-width="1" fill="none" fill-rule="evenodd">
        <g id="air_new_zealand_s" fill="#00333A">
            <path d="M41.6695607,21.946911 C41.6519681,21.9294769 41.6156319,21.9012384 41.553811,21.9012384 C41.4518724,21.9012384 41.4176736,22.0452135 41.4176736,22.0452135 C41.3225583,22.3476512 41.2378834,22.4336762 41.1108712,22.4796762 C40.9992319,22.5128256 40.6875791,22.5081601 40.4611767,22.5081601 L40.3820098,22.5096335 C39.6294724,22.5096335 39.4470515,22.4072384 39.4325006,21.9419181 C39.424773,21.7456406 39.4325006,21.2988185 39.4325006,21.0683274 L39.4325006,20.5341708 C39.4325006,20.4934911 39.439735,20.4662349 39.476811,20.4662349 C39.6004528,20.4662349 39.9788589,20.4699181 40.2453791,20.4761388 L40.2453791,20.4767936 C40.3512638,20.477694 40.5837497,20.4807224 40.624854,20.4848968 C40.8288135,20.5053594 40.8813448,20.5870463 40.9205583,20.69779 C40.921627,20.7003274 40.9818037,20.8621459 41.0810294,20.8654199 C41.2378834,20.8706584 41.2323755,20.7216904 41.2323755,20.7216904 C41.2323755,20.7216904 41.2484061,20.5173096 41.2603264,20.4339039 C41.271589,20.351153 41.3015951,20.1514377 41.3015951,20.1514377 L41.320092,20.0303808 C41.320092,19.9164448 41.2579423,19.8924626 41.2058221,19.8924626 C41.1477828,19.8924626 41.0917166,19.9362527 41.0370479,19.9771779 L41.011481,19.9964947 C40.9501534,20.0361922 40.8786319,20.0536263 40.7693767,20.0687687 L39.4879914,20.0687687 C39.4532172,20.0665587 39.4372687,20.0602562 39.4325006,20.0192491 C39.4325006,20.0172028 39.4325006,18.2070783 39.4325006,18.2070783 C39.4364466,18.180395 39.4472982,18.1687722 39.4903755,18.1657438 L40.7637043,18.1657438 C40.9998896,18.1767936 41.0760969,18.3532633 41.0960736,18.4094128 L41.1292037,18.5026406 C41.1446589,18.5431566 41.1767202,18.6218968 41.2985534,18.6218968 C41.3269153,18.6218968 41.3969571,18.6105196 41.4218663,18.5050142 C41.4218663,18.5068968 41.4429117,18.3462242 41.4429117,18.3462242 L41.4642037,18.1849786 C41.4682319,18.0567189 41.4907571,17.9647189 41.5044859,17.9237936 L41.5170638,17.8809039 C41.5193656,17.8734555 41.5386025,17.801427 41.5153374,17.7608292 C41.5022663,17.7365196 41.4763706,17.702306 41.4176736,17.7074626 C41.3719656,17.7113096 41.3118712,17.7333274 41.3061166,17.7339822 C41.2959227,17.7391388 41.264519,17.7518256 41.2190577,17.7572278 C41.1668552,17.7641851 40.9910933,17.7717972 40.9910933,17.7717972 C40.9636356,17.7735979 40.8742748,17.7746619 40.7452896,17.7762989 C40.7452896,17.7762989 39.3075436,17.7809644 39.1261914,17.7809644 C39.0732491,17.7809644 38.9212454,17.7783452 38.9212454,17.7783452 C38.9212454,17.7783452 38.4602196,17.7578826 38.4539718,17.7578826 C38.3600896,17.7578826 38.2837178,17.8182064 38.2837178,17.8925267 C38.2837178,17.9670107 38.3545816,18.0119466 38.4539718,18.027089 C38.6226638,18.058847 38.6275141,18.2398185 38.6431337,18.7265018 C38.6447779,18.9291637 38.6447779,19.2287367 38.6447779,19.7222954 L38.6447779,20.9124021 C38.6447779,21.2824484 38.6441202,21.6204093 38.6363104,21.8940356 C38.6363104,21.8940356 38.6365571,21.8940356 38.6363104,21.8940356 C38.6022761,22.3914413 38.619211,22.5757687 38.4632613,22.6075267 C38.3648577,22.6162028 38.2922675,22.6679324 38.2922675,22.7420071 C38.2922675,22.816573 38.3689681,22.8768968 38.4632613,22.8768968 C38.4669607,22.8768968 38.9676933,22.8579075 38.9676933,22.8579075 C38.9676933,22.8579075 39.0628908,22.854306 39.089362,22.854306 C39.4139215,22.854306 39.8072896,22.8764875 40.4454748,22.8875374 L40.4454748,22.8883559 C40.6824822,22.8931032 40.9353558,22.8993238 41.1897092,22.8993238 C41.4430761,22.8993238 41.5834061,22.8993238 41.6462957,22.6791459 C41.6469534,22.6739075 41.6785215,22.2644093 41.6785215,22.2644093 L41.7030196,22.0819644 C41.7075411,22.0279431 41.696854,21.9750676 41.6695607,21.946911" id="Fill-1"></path>
            <path d="M23.7646123,21.946911 C23.7471018,21.9294769 23.7107656,21.9012384 23.6489448,21.9012384 C23.5470061,21.9012384 23.5128074,22.0452135 23.5128074,22.0452135 C23.417692,22.3476512 23.332935,22.4336762 23.2060049,22.4796762 C23.0943656,22.5128256 22.7827129,22.5081601 22.5562282,22.5081601 L22.4771436,22.5096335 C21.7246061,22.5096335 21.5421031,22.4072384 21.5275521,21.9419181 C21.5199067,21.7456406 21.5275521,21.2988185 21.5275521,21.0683274 L21.5275521,20.5341708 C21.5275521,20.4934911 21.5349509,20.4662349 21.5719448,20.4662349 C21.6955043,20.4662349 22.0739926,20.4699181 22.3405129,20.4761388 L22.3405129,20.4767936 C22.4463975,20.477694 22.6788012,20.4807224 22.7199877,20.4848968 C22.9239472,20.5053594 22.9764785,20.5870463 23.015692,20.69779 C23.0167607,20.7003274 23.0769374,20.8621459 23.1761632,20.8654199 C23.332935,20.8706584 23.3275092,20.7216904 23.3275092,20.7216904 C23.3275092,20.7216904 23.3435399,20.5173096 23.3554601,20.4339039 C23.3667227,20.351153 23.3967288,20.1514377 23.3967288,20.1514377 L23.4151436,20.0303808 C23.4151436,19.9164448 23.3529939,19.8924626 23.3009558,19.8924626 C23.2429166,19.8924626 23.1868503,19.9362527 23.1321816,19.9771779 L23.1065325,19.9964947 C23.0452049,20.0361922 22.9737656,20.0536263 22.8645104,20.0687687 L21.5832074,20.0687687 C21.5482687,20.0665587 21.5324025,20.0602562 21.5275521,20.0192491 C21.5275521,20.0172028 21.5275521,18.2070783 21.5275521,18.2070783 C21.5315804,18.180395 21.5424319,18.1687722 21.585427,18.1657438 L22.858838,18.1657438 C23.0950233,18.1767936 23.1711485,18.3532633 23.1912074,18.4094128 L23.2243374,18.5026406 C23.2397926,18.5431566 23.271854,18.6218968 23.3936049,18.6218968 C23.4221313,18.6218968 23.4920908,18.6105196 23.5169178,18.5050142 C23.5169178,18.5068968 23.5380454,18.3462242 23.5380454,18.3462242 L23.5593374,18.1849786 C23.5632834,18.0567189 23.5858908,17.9647189 23.5995374,17.9237936 L23.6121153,17.8809039 C23.6144994,17.8734555 23.633654,17.801427 23.6105534,17.7608292 C23.5974,17.7365196 23.5715043,17.702306 23.5128074,17.7074626 C23.4670994,17.7113096 23.4069227,17.7333274 23.4011681,17.7339822 C23.3910564,17.7391388 23.3596528,17.7518256 23.3141914,17.7572278 C23.2619067,17.7641851 23.086227,17.7717972 23.086227,17.7717972 C23.0586871,17.7735979 22.9693264,17.7746619 22.8403411,17.7762989 C22.8403411,17.7762989 21.4025951,17.7809644 21.2213252,17.7809644 C21.1683828,17.7809644 21.0163791,17.7783452 21.0163791,17.7783452 C21.0163791,17.7783452 20.5553534,17.7578826 20.5491055,17.7578826 C20.4552233,17.7578826 20.3788515,17.8182064 20.3788515,17.8925267 C20.3788515,17.9670107 20.4497153,18.0119466 20.5491055,18.027089 C20.7177975,18.058847 20.7225656,18.2398185 20.7382675,18.7265018 C20.7399117,18.9291637 20.7399117,19.2287367 20.7399117,19.7222954 L20.7399117,20.9124021 C20.7399117,21.2824484 20.739254,21.6204093 20.7314442,21.8940356 C20.7314442,21.8940356 20.7316908,21.8940356 20.7314442,21.8940356 C20.6974098,22.3914413 20.7142626,22.5757687 20.5583129,22.6075267 C20.4600736,22.6162028 20.3874012,22.6679324 20.3874012,22.7420071 C20.3874012,22.816573 20.4641018,22.8768968 20.5583129,22.8768968 C20.5621767,22.8768968 21.062827,22.8579075 21.062827,22.8579075 C21.062827,22.8579075 21.1580245,22.854306 21.1844957,22.854306 C21.5090552,22.854306 21.9024233,22.8764875 22.5406086,22.8875374 L22.5406086,22.8883559 C22.7775337,22.8931032 23.0304074,22.8993238 23.2848429,22.8993238 C23.5381276,22.8993238 23.6784577,22.8993238 23.7414294,22.6791459 C23.7420871,22.6739075 23.7736552,22.2644093 23.7736552,22.2644093 L23.7981534,22.0819644 C23.8026748,22.0279431 23.7919877,21.9750676 23.7646123,21.946911" id="Fill-2"></path>
            <path d="M50.5896037,21.9724484 C50.5724221,21.9548505 50.5468552,21.9266121 50.476238,21.9253843 C50.3866307,21.9235836 50.3427313,22.0758256 50.3427313,22.0758256 C50.2506577,22.4054377 50.1880969,22.3832562 50.0632221,22.4317117 C49.9864393,22.4641246 49.7726969,22.5145445 49.5602699,22.5191281 C49.5602699,22.5191281 49.0441644,22.5359893 48.8254074,22.4998114 C48.7792061,22.4922811 48.6958466,22.4606868 48.6938736,22.4596228 C48.6316417,22.4314662 48.5873313,22.395452 48.5552699,22.3545267 C48.5094798,22.3022242 48.4794736,22.2112064 48.4595791,22.0795089 C48.4541534,22.0583096 48.4229141,21.4436121 48.4229141,20.9101922 L48.4229141,19.7205765 C48.4229141,19.1711139 48.4312994,18.3935338 48.4312994,18.3542456 C48.4312994,18.0646584 48.6364098,18.0184128 48.6378074,18.0184128 C48.7274969,18.0033523 48.7866049,17.9484306 48.7866049,17.8785302 C48.7866049,17.8270463 48.7570098,17.7582918 48.6244896,17.7515801 L48.6244896,17.751089 L47.4269571,17.7508434 C47.2537436,17.7508434 47.2162564,17.8158327 47.2162564,17.8785302 C47.2162564,17.9526868 47.2752,18.0033523 47.3648074,18.0184128 C47.3664515,18.0184128 47.5753436,18.0519715 47.5753436,18.3542456 C47.5753436,18.4245552 47.5870172,19.4598826 47.5870172,19.7205765 L47.5870172,20.9101922 C47.5870172,21.3895907 47.5865239,21.8140676 47.5696712,22.1143772 C47.5362945,22.4341673 47.5529828,22.5814164 47.3873325,22.6121103 L47.3873325,22.6123559 C47.3027399,22.6192313 47.2360687,22.6744804 47.2360687,22.7434804 C47.2360687,22.8160819 47.3108785,22.8750961 47.4025411,22.8750961 C47.5812626,22.8750961 47.7493791,22.8511957 48.0516601,22.8511957 C48.3540233,22.8511957 49.3361693,22.8831993 49.3361693,22.8831993 C49.4075264,22.8848363 49.5602699,22.8883559 49.5602699,22.8883559 C49.7364429,22.892121 49.9175485,22.895968 50.1007092,22.895968 C50.3495546,22.895968 50.4875006,22.895968 50.5489104,22.6661317 C50.5496503,22.6607295 50.5984,22.2738221 50.5984,22.2738221 L50.6155816,22.113968 C50.6210074,22.0573274 50.6168147,22.0019964 50.5896037,21.9724484" id="Fill-3"></path>
            <path d="M65.4395988,22.1465445 C65.0281448,22.44579 64.5364552,22.6016335 64.0727166,22.6016335 C63.4871448,22.6016335 63.1980172,22.4596228 63.1016687,22.3316085 C63.0422319,22.2575338 63.0275988,21.988 63.0203644,21.819306 C63.0126368,21.6912918 63.0050736,21.172032 63.0050736,20.457395 L63.0050736,19.6076228 C63.0050736,19.0752669 63.0050736,18.488726 63.0126368,18.2590534 C63.0126368,18.1850605 63.0346687,18.1515018 63.1016687,18.124 C63.1606123,18.097726 63.4344491,18.0771815 63.5832466,18.0771815 C64.161584,18.0771815 64.6830331,18.1578043 65.3653644,18.7513843 C65.6836761,19.0277936 66.0973497,19.5917438 66.0973497,20.4481459 C66.0973497,21.1423203 65.9270957,21.7922954 65.4395988,22.1465445 Z M66.2351313,18.5289964 C65.4274319,17.7600107 64.6285288,17.7600107 63.7017092,17.7600107 C63.2570429,17.7600107 62.7902626,17.7803915 62.5600785,17.7803915 C62.5193853,17.7803915 62.0780074,17.7628754 62.0780074,17.7628754 C62.0780074,17.7628754 61.9454049,17.7453594 61.8876123,17.7544448 C61.806719,17.7673772 61.7442405,17.8221352 61.7442405,17.8904804 C61.7442405,17.9670107 61.814611,18.0205409 61.9140012,18.0299537 L61.9156454,18.0301993 C62.099546,18.0644128 62.135389,18.2999786 62.1458294,18.452548 C62.1464049,18.4669537 62.1523239,18.9998007 62.1523239,19.7156655 L62.1523239,20.9020071 C62.1523239,21.3219822 62.1378552,22.0642028 62.1360466,22.0984164 C62.1242908,22.2202918 62.1368687,22.5046406 61.9146589,22.5850178 L61.9146589,22.5863274 C61.8231607,22.5866548 61.7490086,22.6475516 61.7490086,22.7226904 C61.7490086,22.7980747 61.8238184,22.8590534 61.9156454,22.8590534 C61.919427,22.8590534 62.5132196,22.8372811 62.5232491,22.8372811 C62.8939276,22.8372811 63.5610503,22.9181495 64.102065,22.9181495 C65.239092,22.9181495 65.8055914,22.4394875 66.1460172,22.122726 C66.5616638,21.7381103 66.9545387,21.091 66.9545387,20.241637 C66.9545387,19.4393381 66.6060564,18.8796441 66.2351313,18.5289964 Z" id="Fill-4"></path>
            <path d="M53.607481,20.5082242 L52.5188748,20.5082242 C52.4919104,20.5082242 52.4854982,20.4884164 52.4919104,20.4618968 L52.5476479,20.3274982 L52.5469902,20.3274982 L53.0656442,18.9967722 C53.1358503,19.1757794 53.3959583,19.836968 53.6180859,20.4064021 L53.6411043,20.4682811 C53.6475988,20.4884164 53.6411043,20.5082242 53.607481,20.5082242 Z M55.6529951,22.6172669 C55.4361288,22.5972954 55.2505018,22.2912562 55.0855914,21.9667189 L53.3303558,17.7972527 C53.3173669,17.7667224 53.2562859,17.7054164 53.1852577,17.7044342 C53.1121742,17.7032064 53.049038,17.7654947 53.0349804,17.7972527 L51.2740724,22.0425125 C51.1674479,22.2706299 51.0476699,22.5880463 50.9102172,22.6030249 C50.8197877,22.6118648 50.7531166,22.6632669 50.7531166,22.7371779 C50.7531166,22.8099431 50.8213497,22.8682206 50.9065178,22.8699395 L51.8358859,22.8708399 L51.8358859,22.870758 C51.8359681,22.870758 51.8362969,22.8708399 51.8362969,22.8708399 C51.9232736,22.8708399 51.9934798,22.8116619 51.9934798,22.7384057 C51.9934798,22.6653132 51.9216294,22.6190676 51.8383521,22.6049893 C51.8383521,22.6044164 51.8383521,22.6052349 51.8383521,22.6049893 C51.6399006,22.5463025 51.6718798,22.4828683 51.8973779,21.9032028 L51.9576368,21.7504698 L52.2478331,21.0498292 L52.2479975,21.0498292 L52.3228074,20.8687758 C52.3339055,20.8487224 52.3472233,20.8415196 52.3718037,20.8415196 L53.7381926,20.8415196 C53.7714871,20.8415196 53.7916282,20.8548612 53.804946,20.8882562 L53.8194969,20.9216512 C54.0149067,21.4229858 54.2752613,21.9052491 54.3860785,22.191153 L54.3855853,22.191153 C54.3865718,22.19279 54.3875583,22.1948363 54.388216,22.1963915 C54.524189,22.483605 54.6957583,22.8724769 55.1470012,22.8724769 C55.3115006,22.8724769 55.6419791,22.8734591 55.6419791,22.8734591 C55.731011,22.8728861 55.8033546,22.8159181 55.8033546,22.7455267 C55.8033546,22.6782456 55.7369301,22.6219324 55.6529951,22.6172669 Z" id="Fill-5"></path>
            <g id="Group-10" transform="translate(14.633129, 17.679715)">
                <path d="M30.1867472,2.8285089 L29.0979767,2.8285089 C29.0709301,2.8285089 29.0645178,2.80870107 29.0709301,2.78218149 L29.1268319,2.64778292 L29.126092,2.64778292 L29.6448282,1.31705694 C29.7149521,1.49606406 29.9751423,2.15725267 30.1971877,2.72668683 L30.2202061,2.78856584 C30.2267006,2.80870107 30.2202061,2.8285089 30.1867472,2.8285089 Z M32.2321791,4.9375516 C32.0153129,4.91758007 31.8295215,4.61154093 31.664611,4.28700356 L29.9095399,0.117537367 C29.8964687,0.0870071174 29.8353877,0.0257010676 29.7643595,0.0247188612 C29.6912761,0.0234911032 29.6282221,0.0857793594 29.6141644,0.117537367 L27.8532564,4.36279715 C27.7465497,4.59091459 27.6266896,4.90833096 27.4892368,4.92330961 C27.3988896,4.93214947 27.3321362,4.9835516 27.3321362,5.05746263 C27.3321362,5.13022776 27.4004515,5.18850534 27.4856196,5.1902242 L28.4149055,5.19112456 L28.4149055,5.1910427 C28.4149877,5.1910427 28.4153988,5.19112456 28.4153988,5.19112456 C28.5023755,5.19112456 28.5726638,5.13194662 28.5726638,5.05869039 C28.5726638,4.98559786 28.5006491,4.93935231 28.417454,4.92527402 C28.417454,4.92470107 28.417454,4.92551957 28.417454,4.92527402 C28.2189202,4.86658719 28.251146,4.80315302 28.476562,4.22348754 L28.5367387,4.07075445 L28.8270172,3.37011388 L28.8270994,3.37011388 L28.9020736,3.1890605 C28.9130896,3.16900712 28.9264074,3.16180427 28.9509877,3.16180427 L30.3173767,3.16180427 C30.3506712,3.16180427 30.3707301,3.17514591 30.3839656,3.20854093 L30.3985988,3.24193594 C30.5940086,3.74327046 30.8544454,4.22553381 30.9651804,4.51143772 L30.9647693,4.51143772 C30.9656736,4.51307473 30.9665779,4.515121 30.9674,4.51667616 C31.1032908,4.80388968 31.2748601,5.19276157 31.7260209,5.19276157 C31.8906025,5.19276157 32.221081,5.19374377 32.221081,5.19374377 C32.3101129,5.19317082 32.3824564,5.13620285 32.3824564,5.06581139 C32.3824564,4.99853025 32.3160319,4.94221708 32.2321791,4.9375516 Z" id="Fill-6"></path>
                <path d="M46.5711656,0.0503380783 L46.2177509,0.0479644128 L46.074708,0.0477188612 L45.6819153,0.047227758 C45.600611,0.0471459075 45.5341043,0.100103203 45.5337755,0.166156584 C45.5336933,0.232373665 45.5989669,0.278209964 45.6812577,0.287213523 L45.6809288,0.287213523 C45.8520049,0.307021352 45.8562798,0.536857651 45.874119,0.887014235 L45.8757632,1.00209609 C45.8747767,1.86119929 45.8709951,3.77601068 45.8709951,3.77601068 C45.2658577,3.18324911 44.538065,2.46787544 44.0696405,2.01172242 C43.5817325,1.5492669 43.2282356,1.15253737 42.8655313,0.792313167 C42.3904479,0.309558719 42.226935,0.160836299 42.2154258,0.149540925 C42.1443975,0.0711281139 41.8223043,0.0463274021 41.8028209,0.0463274021 C41.4886196,0.0463274021 41.5968883,0.0452633452 41.5968883,0.0452633452 C41.5040748,0.0459181495 41.4286074,0.105587189 41.4286074,0.178761566 C41.4286074,0.249153025 41.5189546,0.307512456 41.6070822,0.312423488 C41.6070822,0.312996441 41.6070822,0.312423488 41.6067534,0.312996441 C41.7058147,0.322081851 41.7215166,0.349010676 41.7312172,0.458362989 C41.7258736,1.32327758 41.7258736,3.97196085 41.7239006,4.34118861 C41.7039239,4.69551957 41.7132957,4.91782562 41.5316969,4.94720996 C41.4574626,4.9534306 41.3933399,5.00074021 41.3930933,5.067121 C41.3927644,5.13317438 41.4545853,5.18711388 41.5307104,5.18735943 L41.8843718,5.18965125 L42.0274147,5.1902242 L42.4202074,5.1903879 C42.5016761,5.19046975 42.5677718,5.13734875 42.5683472,5.07154093 C42.5683472,5.00516014 42.5031558,4.95776868 42.4216049,4.95040214 L42.4202074,4.95015658 C42.2469117,4.92576512 42.2458429,4.70051246 42.2277571,4.35076512 L42.242308,1.433121 C42.2656552,1.4571032 43.1293387,2.35786833 43.4797939,2.70516014 C43.6079571,2.8294911 43.762838,3.01651957 43.8932209,3.13896797 C44.2902061,3.51007829 45.853238,5.01801068 45.8951644,5.06057295 C46.0710086,5.23818861 46.3269239,5.26282562 46.3498601,4.96759075 L46.3653975,0.945455516 C46.3656442,0.926548043 46.3658908,0.909523132 46.3658908,0.896263345 C46.3855387,0.542096085 46.3871006,0.318153025 46.5704258,0.290241993 C46.6453178,0.286313167 46.7087828,0.236466192 46.7093583,0.17024911 C46.7093583,0.104359431 46.6475374,0.0505836299 46.5711656,0.0503380783" id="Fill-8"></path>
                <path d="M5.20511902,0.0503380783 L4.85162209,0.0479644128 L4.70866135,0.0477188612 L4.31586871,0.047227758 C4.23448221,0.0471459075 4.16805767,0.100103203 4.16772883,0.166156584 C4.16756442,0.232373665 4.23292025,0.278209964 4.31521104,0.287213523 L4.31488221,0.287213523 C4.48587607,0.307021352 4.49015092,0.536857651 4.50807239,0.887014235 L4.50963436,1.00209609 C4.50864785,1.86119929 4.50486626,3.77601068 4.50486626,3.77601068 C3.89972883,3.18324911 3.1719362,2.46787544 2.70351166,2.01172242 C2.2157681,1.5492669 1.86210675,1.15253737 1.49940245,0.792313167 C1.02431902,0.309558719 0.860888344,0.160836299 0.849379141,0.149540925 C0.778268712,0.0711281139 0.45617546,0.0463274021 0.436692025,0.0463274021 C0.122573006,0.0463274021 0.230841718,0.0452633452 0.230841718,0.0452633452 C0.137946012,0.0459181495 0.0624785276,0.105587189 0.0624785276,0.178761566 C0.0624785276,0.249153025 0.152907975,0.307512456 0.240953374,0.312423488 C0.240953374,0.312996441 0.240953374,0.312423488 0.240706748,0.312996441 C0.33968589,0.322081851 0.355469939,0.349010676 0.365170552,0.458362989 C0.359826994,1.32327758 0.359744785,3.97196085 0.357771779,4.34118861 C0.337877301,4.69551957 0.347166871,4.91782562 0.165568098,4.94720996 C0.0914159509,4.9534306 0.0272932515,5.00074021 0.0270466258,5.067121 C0.0267177914,5.13317438 0.0885386503,5.18711388 0.164581595,5.18735943 L0.518325153,5.18965125 L0.66128589,5.1902242 L1.05416074,5.1903879 C1.13554724,5.19046975 1.20172515,5.13734875 1.20230061,5.07154093 C1.20230061,5.00516014 1.1371092,4.95776868 1.05547607,4.95040214 L1.05416074,4.95015658 C0.880782822,4.92576512 0.879796319,4.70051246 0.861628221,4.35076512 L0.87626135,1.433121 C0.899608589,1.4571032 1.76320982,2.35786833 2.11374724,2.70516014 C2.24182822,2.8294911 2.39679141,3.01651957 2.52717423,3.13896797 C2.92415951,3.51007829 4.48719141,5.01801068 4.52911779,5.06057295 C4.70487975,5.23818861 4.9608773,5.26282562 4.9838135,4.96759075 L4.99926871,0.945455516 C4.99951534,0.926548043 4.99984417,0.909523132 4.99984417,0.896263345 C5.01949202,0.542096085 5.02105399,0.318153025 5.20429693,0.290241993 C5.27918896,0.286313167 5.3427362,0.236466192 5.34331166,0.17024911 C5.34331166,0.104359431 5.2814908,0.0505836299 5.20511902,0.0503380783" id="Fill-9"></path>
            </g>
            <path d="M31.939681,17.8673986 C31.939681,17.7950427 31.8689816,17.7361922 31.7815117,17.7336548 C31.7815117,17.7336548 30.8004344,17.7336548 30.7708393,17.7336548 C30.7350785,17.7336548 30.6945497,17.7492883 30.6945497,17.7492883 C30.6411141,17.7713879 30.6042025,17.816242 30.6042025,17.8683808 C30.6042025,17.9265765 30.6499926,17.9758505 30.7141153,17.9939395 C30.7141153,17.9939395 30.7176503,17.9954947 30.7203632,17.9961495 C30.8684209,18.0444413 31.0029963,17.9738861 30.7693595,18.6029075 L29.7825276,21.2784377 C29.7825276,21.2784377 28.2942233,17.8960463 28.2642172,17.8448897 C28.1927779,17.7030427 28.0069043,17.7027972 27.9407264,17.8648612 L26.4318699,21.3224733 L25.4817853,18.6594662 C25.4651791,18.6079822 25.4513681,18.5655836 25.4414209,18.5348897 C25.3101337,18.1162242 25.337427,18.0338826 25.4071399,17.9998327 C25.4107571,17.9978683 25.4321313,17.9939395 25.4321313,17.9939395 C25.4958429,17.9758505 25.541962,17.9265765 25.541962,17.8683808 C25.541962,17.7943879 25.4687963,17.7342278 25.378038,17.7342278 C25.3771337,17.7342278 24.1990025,17.7336548 24.1990025,17.7336548 C24.1115325,17.7361922 24.0409153,17.7950427 24.0409153,17.8673986 C24.0409153,17.9282954 24.0908982,17.9792064 24.1589669,17.9954947 L24.1587202,17.9966406 C24.4721816,18.0861032 24.5277546,18.3416406 24.5843963,18.4944555 C24.7141215,18.8038505 24.9148748,19.3938292 25.0164025,19.6996228 C25.4626307,20.9574199 26.0554368,22.6448505 26.0554368,22.6448505 C26.1139693,22.8187829 26.1397006,22.8919573 26.2232245,22.8919573 C26.3281227,22.8919573 26.3642123,22.8099431 26.4297325,22.6664591 L27.9628405,19.1829822 L29.470546,22.564637 C29.5668945,22.7776121 29.585227,22.8919573 29.7013055,22.8919573 C29.8084233,22.8919573 29.8394982,22.7919359 29.9134037,22.577242 C30.2696135,21.5727722 31.3379141,18.5637011 31.3379141,18.5637011 C31.4396061,18.3168399 31.526665,18.1002633 31.8221227,17.9966406 C31.8883006,17.9749502 31.939681,17.9282954 31.939681,17.8673986" id="Fill-11"></path>
            <path d="M37.7598847,21.9744947 C37.6980638,21.9555872 37.6484098,21.9970036 37.6187325,22.05921 L37.6180748,22.05921 C37.617746,22.0597011 37.5569117,22.1963915 37.4904871,22.2819253 C37.3538564,22.4566762 37.2552061,22.4599502 36.621789,22.490726 L34.6294638,22.4843416 C35.1974429,21.6966121 37.575162,18.1764662 37.6983926,17.9954947 C37.7549521,17.9111068 37.7219043,17.7208861 37.5434294,17.7208861 L35.5488025,17.7200676 C35.4289423,17.7200676 35.0503718,17.7203132 35.0503718,17.7203132 C34.8456724,17.7203132 34.6764871,17.7194128 34.5356638,17.7194128 C34.2607583,17.7071352 34.0837632,17.6848719 33.9338147,17.6702206 C33.7504074,17.6522135 33.7497497,17.7888221 33.7150577,18.0531174 C33.6819276,18.2751779 33.6685276,18.3619395 33.6685276,18.4179253 C33.6685276,18.4555765 33.6825853,18.5572349 33.8000613,18.5594448 C33.9061926,18.5611637 33.946146,18.487089 33.9752479,18.4182527 C33.9838798,18.3972171 34.0082957,18.3363203 34.0082957,18.3360747 C34.0369865,18.2605267 34.0693767,18.2092883 34.1071926,18.1736014 C34.2542638,18.1083665 34.4681706,18.1053381 34.7995534,18.0902776 L36.5977018,18.0902776 C36.046,18.8699858 33.488984,22.5500676 33.488984,22.5500676 C33.3807975,22.6876584 33.4815031,22.8859822 33.6367951,22.8859822 L34.3887571,22.8732135 C35.2572908,22.879516 36.1443215,22.8701032 36.9869595,22.8754235 L37.5002699,22.8785338 C37.6641939,22.8785338 37.7242061,22.8665836 37.7702429,22.7520747 C37.7702429,22.7520747 37.8735791,22.3583737 37.8478479,22.1223986 C37.8528626,22.0461139 37.8203902,21.9930747 37.7598847,21.9744947" id="Fill-12"></path>
            <path d="M3.24682822,20.217 L1.95771534,20.217 C1.92746258,20.217 1.91989939,20.1942456 1.92746258,20.1647794 L1.99010552,20.0131103 L1.98936564,20.0131103 L2.60782086,18.5121352 C2.68698773,18.714306 3.00850552,19.4598826 3.25874847,20.1018363 L3.28447975,20.1717367 C3.29187853,20.1942456 3.28447975,20.217 3.24682822,20.217 Z M5.52515706,22.5950036 C5.28066871,22.5724128 5.07111902,22.2270036 4.88532761,21.8617046 L2.90607362,17.1599644 C2.8915227,17.1254235 2.8226319,17.0565053 2.74256074,17.0552776 C2.66018773,17.0538861 2.58915951,17.1241139 2.57296442,17.1599644 L0.587791411,21.9467473 C0.466944785,22.2038399 0.332369325,22.5620996 0.176995092,22.5787972 C0.0754674847,22.5885374 0,22.6467331 0,22.7300569 C0,22.8119075 0.0772760736,22.8777972 0.17304908,22.879516 L1.22063313,22.8810712 L1.22063313,22.8806619 C1.22120859,22.8806619 1.22153742,22.8810712 1.22153742,22.8810712 C1.31961227,22.8810712 1.39910798,22.8139537 1.39910798,22.7312847 C1.39910798,22.6491886 1.31780368,22.5964769 1.22375706,22.5807616 C1.22375706,22.5804342 1.22375706,22.5811708 1.22375706,22.5807616 C0.999985276,22.5148719 1.00269816,22.4431708 1.25680491,21.7898399 L1.32479141,21.6175445 L1.65181718,20.8275231 L1.65239264,20.8275231 L1.73673865,20.6233879 C1.74931656,20.6007972 1.76436074,20.5926121 1.79231166,20.5926121 L3.3940638,20.5926121 C3.43187975,20.5926121 3.45440491,20.607427 3.46969571,20.645242 L3.48580859,20.6828114 C3.70612761,21.2482349 3.99961227,21.791968 4.12481595,22.1145409 L4.12424049,22.1145409 C4.12522699,22.1161779 4.12613129,22.1185516 4.12687117,22.1202705 C4.28019018,22.4443167 4.44559387,22.8823808 4.95446503,22.8823808 C5.14009202,22.8823808 5.51290798,22.8838541 5.51290798,22.8838541 C5.61320245,22.8831993 5.69475337,22.8186192 5.69475337,22.7396335 C5.69475337,22.6634306 5.61969693,22.5999964 5.52515706,22.5950036 Z" id="Fill-13"></path>
            <path d="M9.94082699,20.169363 C9.74155337,20.2347616 9.27288221,20.2201103 9.11471288,20.1946548 L9.11471288,18.1934093 C9.11800123,18.1652527 9.12745521,18.1586228 9.14274601,18.1551851 C9.21903558,18.1430712 9.37358773,18.124 9.55140491,18.124 C10.0717031,18.124 10.7362773,18.4703096 10.7362773,19.1125089 C10.7362773,19.8534199 10.2969546,20.057637 9.94082699,20.169363 Z M12.8607939,22.618331 C12.8274172,22.6157117 12.7618147,22.6072811 12.7009804,22.5970498 C12.6181141,22.5814164 12.5474147,22.5598078 12.4845252,22.534516 C12.4352822,22.5135623 12.3878479,22.4900712 12.3413178,22.465516 C12.2648638,22.4221352 12.1961374,22.3746619 12.1225607,22.3292349 C11.7624871,22.070669 11.4922675,21.7063523 11.2282957,21.3502206 L11.0338724,21.0918185 C10.762173,20.7396975 10.6144442,20.5747687 10.4932687,20.4811317 C10.672319,20.4155694 10.9401546,20.2804342 11.1598982,20.0406121 C11.3973988,19.7802456 11.5166834,19.4674128 11.5166834,19.1080071 C11.5166834,19.0647082 11.5156147,19.0192811 11.5115865,18.9742633 C11.4741816,18.5123808 11.1250417,18.1650071 10.9250282,18.032573 C10.5393877,17.7623843 10.0176098,17.7274342 9.60648466,17.7274342 L8.20597914,17.7394662 C8.11300123,17.7402847 8.03736933,17.7997082 8.03736933,17.8728826 C8.03736933,17.9435196 8.10667117,18.0020427 8.19471656,18.0075267 C8.29624417,18.0196406 8.31030184,18.0431317 8.32024908,18.1529751 C8.34260982,19.0153523 8.34096564,19.3174626 8.34096564,19.6966762 L8.34096564,20.8899751 C8.34096564,21.3250925 8.32394847,22.1016085 8.32213988,22.1469537 C8.30775337,22.5074235 8.27223926,22.5958221 8.16364172,22.6103096 C8.07288344,22.6198861 7.9969227,22.6723523 7.9969227,22.7474911 C7.9969227,22.8228754 8.07189693,22.8834448 8.16364172,22.8834448 L8.16668344,22.8834448 C8.16668344,22.8834448 9.35007607,22.8836904 9.35237791,22.8836904 C9.4441227,22.8836904 9.51868589,22.8218932 9.51868589,22.7465089 C9.51868589,22.6723523 9.44864417,22.6153025 9.35517301,22.6098185 L9.35517301,22.610637 C9.12408466,22.5851815 9.14208834,22.2220925 9.1235092,21.9134342 C9.12235828,21.8696441 9.11997423,21.7760071 9.11997423,21.7760071 C9.11528834,21.5564021 9.11471288,20.6049715 9.11471288,20.6049715 C9.11471288,20.6049715 9.16338037,20.5999786 9.20094969,20.5999786 L9.24854847,20.5984235 C9.41724049,20.5954769 9.72182331,20.6024342 9.96170798,20.9494804 C9.96170798,20.9505445 10.040546,21.0694733 10.040546,21.0694733 C10.2515755,21.3890996 10.787411,22.1395872 11.2282957,22.5463025 C11.4565067,22.7569039 11.858589,22.8859004 12.2214577,22.8944128 L12.172708,22.8944128 C12.2027963,22.8945765 12.2830319,22.895395 12.3157509,22.895395 L12.6648908,22.895395 C12.7191485,22.895395 12.8421325,22.8932669 12.8520798,22.8932669 C12.9441534,22.8932669 13.0184699,22.8317153 13.0184699,22.7562491 C13.0184699,22.682911 12.9485926,22.6219324 12.8607939,22.618331 Z" id="Fill-14"></path>
            <path d="M7.41759877,17.7340641 L6.18200368,17.7340641 C6.09330061,17.736847 6.02227239,17.7961886 6.02227239,17.8691174 L6.02227239,17.8691993 C6.02227239,17.9439288 6.09634233,18.0045801 6.18858037,18.0045801 L6.1889092,18.0045801 C6.36606871,18.035274 6.37494724,18.2118256 6.38020859,18.4013915 L6.38407239,18.5694306 C6.38727853,18.7701281 6.38777178,19.0851708 6.38777178,19.6990498 L6.38777178,20.8941495 C6.38777178,21.2245801 6.38579877,21.434363 6.38481227,21.5198149 L6.36911043,22.1765836 C6.35891656,22.3791637 6.3506135,22.5984413 6.19803436,22.6143203 L6.1974589,22.6143203 C6.1056319,22.6143203 6.03115092,22.6745623 6.03115092,22.7491281 C6.03115092,22.8226299 6.10217914,22.881726 6.19129325,22.8846726 L6.19112883,22.8846726 L7.40937791,22.8846726 C7.49832761,22.881726 7.56943804,22.8226299 7.56943804,22.7495374 C7.56943804,22.6745623 7.49487485,22.6143203 7.40304785,22.6143203 L7.40263681,22.6143203 C7.24997546,22.5987687 7.24126135,22.3794911 7.23114969,22.1766655 L7.23131411,22.1766655 L7.21561227,21.5200605 C7.21413252,21.3292669 7.21257055,21.1194021 7.21257055,20.8945587 L7.21257055,19.6997046 C7.21257055,19.0857438 7.21257055,18.7697189 7.2158589,18.5688577 L7.21996933,18.4008185 C7.22490184,18.2113345 7.23369816,18.0347011 7.41093988,18.004089 L7.4111865,18.004089 C7.50326012,18.004089 7.57749448,17.9435196 7.57749448,17.8686263 C7.57749448,17.7956975 7.50646626,17.736847 7.41759877,17.7340641" id="Fill-15"></path>
            <path d="M27.9149951,6.91391459 C27.9149951,6.91391459 29.4321546,4.9304306 32.3065779,1.99788968 C33.1142773,1.16776157 34.5368969,0.031594306 36.0736221,0.031594306 C37.7406479,0.031594306 38.7784491,1.24306406 38.7784491,2.36490747 C38.7784491,3.48069395 38.0587951,4.62971174 36.5131092,4.62971174 C35.7077117,4.62971174 35.0184748,4.05683986 35.0184748,3.26092527 C35.0184748,2.87017082 35.3234687,2.29337011 36.0467399,2.29337011 C36.7437865,2.29337011 36.9123963,3.05376157 36.8569055,3.32984342 C36.8569055,3.32984342 37.3831227,3.14232384 37.3831227,2.49316726 C37.3831227,1.83819929 36.8125129,1.3563452 36.0736221,1.3563452 C34.9485975,1.3563452 33.8428098,2.39691103 33.4200933,2.80992883 C31.7422982,4.46715658 30.9558908,5.57287544 30.9558908,5.57287544 L41.2936209,5.57287544 L40.7172564,6.91391459 L27.9149951,6.91391459" id="Fill-16"></path>
            <path d="M27.6961558,7.62208541 C27.6961558,7.62208541 28.3663202,9.64264769 29.2549951,11.5757936 C30.0116429,13.2206619 31.2614601,14.2161281 32.7888135,14.2161281 C34.2266417,14.2161281 35.2038552,13.0694021 35.2038552,11.9759609 C35.2038552,10.7384626 34.2966834,9.92372242 33.2279718,9.92372242 C32.0841215,9.92372242 31.8462098,10.8262064 31.8462098,11.0527687 C31.8462098,11.5757936 32.2614454,12.0581388 32.7888135,12.0581388 C33.6238061,12.0581388 33.6866135,11.3624911 33.6866135,11.3624911 C33.6866135,11.3624911 33.9422822,11.5307758 33.9422822,11.9759609 C33.9422822,12.4021566 33.5970883,12.9476085 32.7888135,12.9476085 C32.1468466,12.9476085 31.2000503,12.5923772 30.5472319,11.1523808 C29.7809656,9.46396797 29.7246528,8.96517082 29.7246528,8.96517082 L39.8375423,8.96517082 L40.4148933,7.62208541 L27.6961558,7.62208541" id="Fill-17"></path>
        </g>
    </g>
</svg>