<?xml version="1.0" encoding="utf-8"?>
<!-- Generator: Adobe Illustrator 21.0.0, SVG Export Plug-In . SVG Version: 6.00 Build 0)  -->
<svg version="1.1" id="Слой_1" xmlns="http://www.w3.org/2000/svg" xmlns:xlink="http://www.w3.org/1999/xlink" x="0px" y="0px"
	 viewBox="0 0 336 86" style="enable-background:new 0 0 336 86;" xml:space="preserve">
<style type="text/css">
	.st0{fill:#E61842;}
	.st1{opacity:0.73;fill:#BC1940;enable-background:new    ;}
</style>
<title>Laudamotion</title>
<desc>Created with Sketch.</desc>
<g id="Page-1">
	<g id="Laudamotion">
		<g id="Ebene_1-2" transform="translate(48.000000, 9.000000)">
			<path id="Shape" class="st0" d="M40.4,31.1v-4.8c-5.8,0.8-7.7,2.4-7.7,4.5c0,1.8,1.2,2.6,3.2,2.6S39,32.6,40.4,31.1 M25,31.5
				c0-5.8,4.6-8.9,15.5-10.1c-0.2-2.4-1.4-4-4.3-4c-2.3,0-4.6,1-7.3,2.5L26,14.6c3.5-2.3,7.6-3.5,11.7-3.6c7,0,10.9,4,10.9,12.4
				v15.7H42l-0.6-2.8h-0.2c-2.3,2-4.9,3.5-8,3.5c-4.4,0.1-8-3.3-8.2-7.6C25,31.9,25,31.7,25,31.5"/>
			<path id="Path" class="st0" d="M53.3,28.7V11.6h8.1v16c0,4,1.1,5.2,3.4,5.2c2,0,3.3-0.9,4.9-3V11.6h8.1v27.5h-6.6l-0.6-3.8h-0.2
				c-2.3,2.7-4.9,4.5-8.6,4.5C55.9,39.8,53.4,35.6,53.3,28.7"/>
			<path id="Shape_1_" class="st0" d="M99.9,30.7V19.4c-1.2-1.1-2.9-1.8-4.5-1.7c-2.6,0-4.9,2.4-4.9,7.7c0,5.4,1.9,7.8,5,7.8
				C97.2,33.1,98.9,32.2,99.9,30.7 M82,25.4c0-9,5.6-14.4,11.4-14.4c2.5,0,5,1,6.7,2.9l-0.3-4.2V0.3h8.2v38.8h-6.6l-0.6-2.7h-0.2
				c-1.9,2-4.5,3.2-7.3,3.4C86.4,39.8,82,34.4,82,25.4"/>
			<path id="Shape_2_" class="st0" d="M127.1,31.1v-4.8c-5.8,0.8-7.7,2.4-7.7,4.5c0,1.8,1.2,2.6,3.1,2.6S125.6,32.6,127.1,31.1
				 M111.6,31.5c0-5.8,4.6-8.9,15.5-10.1c-0.2-2.4-1.4-4-4.3-4c-2.3,0-4.6,1-7.3,2.5l-2.9-5.3c3.5-2.3,7.6-3.5,11.7-3.6
				c7,0,10.9,4,10.9,12.4v15.7h-6.6l-0.6-2.8h-0.2c-2.3,2-4.9,3.5-8,3.5c-4.4,0.2-8-3.2-8.2-7.6C111.6,31.9,111.6,31.7,111.6,31.5"
				/>
			<path id="Path_1_" class="st0" d="M141.6,12.5h2.1l0.3,4.1h0.1c2.4-2.7,5.4-4.8,8.4-4.8c4.3,0,6.4,2.1,7.3,5.4c3-3.3,6-5.4,9-5.4
				c5.3,0,7.9,3.3,7.9,10.2v17h-2.4V22.4c0-5.6-1.9-8.3-6-8.3c-2.5,0-5,1.7-8,5v20H158V22.4c0-5.6-1.9-8.3-6-8.3c-2.4,0-5,1.7-8,5
				v20h-2.4V12.5z"/>
			<path id="Shape_3_" class="st0" d="M204.1,25.9c0-7-4-11.8-9.4-11.8s-9.4,4.8-9.4,11.8s4,11.8,9.4,11.8S204.1,32.9,204.1,25.9
				 M182.8,25.9c0-8.9,5.5-14,11.9-14s11.9,5.1,11.9,14s-5.5,13.9-11.9,13.9S182.8,34.7,182.8,25.9"/>
			<path id="Path_2_" class="st0" d="M213.1,31.8V14.7H209v-1.9l4.2-0.2l0.3-7.7h2.1v7.7h7.7v2.1h-7.7V32c0,3.4,0.9,5.7,4.5,5.7
				c1.2-0.1,2.3-0.4,3.3-0.8l0.6,2c-1.4,0.5-2.9,0.9-4.3,1C214.6,39.8,213.1,36.6,213.1,31.8"/>
			<path id="Shape_4_" class="st0" d="M228.7,12.5h2.5v26.6h-2.5V12.5z M227.7,3.9c0.1-1.2,1.1-2.2,2.4-2.1c1.1,0.1,2,1,2.1,2.1
				c-0.1,1.2-1.1,2.2-2.4,2.1C228.7,5.9,227.8,5.1,227.7,3.9L227.7,3.9z"/>
			<path id="Shape_5_" class="st0" d="M258.5,25.9c0-7-4-11.8-9.4-11.8s-9.4,4.8-9.4,11.8s4,11.8,9.4,11.8S258.5,32.9,258.5,25.9
				 M237.2,25.9c0-8.9,5.5-14,11.9-14S261,17,261,25.9s-5.5,13.9-11.9,13.9C242.7,39.8,237.1,34.7,237.2,25.9"/>
			<path id="Path_3_" class="st0" d="M267.3,12.5h2.1l0.3,4.1h0.1c2.7-2.7,5.5-4.8,9.1-4.8c5.5,0,8,3.3,8,10.2v17h-2.5V22.4
				c0-5.6-1.8-8.3-6.1-8.3c-3.2,0-5.5,1.7-8.7,5v20h-2.4L267.3,12.5L267.3,12.5z"/>
			<polygon id="Path_4_" class="st0" points="-0.9,3 7.2,3 7.2,32.3 21.5,32.3 21.5,39.1 -0.9,39.1 			"/>
		</g>
		<g id="Path_5_">
			<g>
				<path id="path-1" class="st0" d="M38.9,0H20.5L1,55.4c-4.2,11.9,2,24.9,13.8,29.2c2.4,0.8,4.8,1.3,7.3,1.3l47.5-0.2V68.3
					l-47.3,0.2c-3,0-5.4-2.5-5.4-5.5c0-0.6,0.1-1.2,0.3-1.8L38.9,0z"/>
			</g>
		</g>
		<g id="Path_6_">
			<g>
				<path class="st1" d="M22.2,85.9c-2.3,0-4.9-0.4-7.5-1.3C2.5,80.1-3.4,67.5,1,55.3L20.5,0h18.4L17.3,61.2c-0.2,0.5-0.4,1.5-0.4,2
					c0,2.7,2.6,5.4,5.1,5.4l47.7-0.3l-0.1,17.5L22.2,85.9z M21.6,1.5L2.4,55.8C-1.7,67.2,3.8,79,15.2,83.2c2.4,0.8,4.8,1.2,7,1.2
					l45.9-0.2V69.7L22,70c-3.3,0-6.6-3.4-6.6-6.9c0-0.7,0.2-1.8,0.4-2.5l21-59.2L21.6,1.5z"/>
			</g>
		</g>
	</g>
</g>
</svg>
