<?xml version="1.0" encoding="utf-8"?>
<!-- Generator: Adobe Illustrator 22.1.0, SVG Export Plug-In . SVG Version: 6.00 Build 0)  -->
<svg version="1.1" id="Слой_1" xmlns="http://www.w3.org/2000/svg" xmlns:xlink="http://www.w3.org/1999/xlink" x="0px" y="0px"
	 width="567px" height="485.314px" viewBox="0 0 567 485.314" enable-background="new 0 0 567 485.314" xml:space="preserve">
<g>
	<path d="M242.2,346.814c2.3-0.2,4.7-0.3,7,0c0.1,2.8-0.3,5.7,0.2,8.5c0.1,1.6,2.1,1.4,3.2,1.5c8.4,0.1,16.8-0.1,25.1,0.1
		c0.1,2.2,0.1,4.3,0,6.5c-4.5,0.3-9,0.1-13.5,0.1c-13.5,0-27,0-40.6,0c-1.4,0.1-2.9,0-4.1,0.6c-1,1.6-0.7,3.7-0.8,5.5
		c0.2,9.2-0.1,18.4,0.1,27.6c0,1.6-0.5,3.1-1,4.6c-0.9,2.7-1,5.6-2.2,8.2c-1.9,4.1-3.6,8.6-7.3,11.5c-1.6-1.6-3.6-3.1-4.7-5.2
		c-0.2-0.5,0.2-1,0.4-1.4c1.1-1.7,2.6-3.2,3.8-4.8c2.3-3.4,4.2-7.2,4.3-11.4c0.8-1.7,1.8-3.3,1.7-5.3c0-12.3-0.1-24.5,0-36.8
		c9.3,0.1,18.6,0.1,27.9,0C242.3,353.314,242.2,350.114,242.2,346.814L242.2,346.814L242.2,346.814z M310.8,346.814
		c1.6,0.5,3.6,0.8,4.7,2.3c0.6,2.9-0.6,5.9,0.4,8.8c1,0.7,2.3,0.6,3.4,0.6c2.1,0,4.1,0,6.1,0.2c0.4,4.6-0.2,9.2-0.1,13.8
		c0.1,14-0.1,28,0.1,41.9c0,1.3-0.7,2.4-1.6,3.3c-1.9,1.7-4.5,2-6.8,2.9c-1.2,0.3-2.5,1-3.7,0.7c-1.6-1.7-2.3-4.1-2.7-6.3
		c2.2-0.2,4.4-0.1,6.5-0.6c1.7-0.4,1.6-2.5,1.7-3.9c0-6-0.1-12.1,0-18.1c-0.1-1.4,0.1-2.9-0.5-4.2c-1.9-0.9-4.1-0.4-6.2-0.5
		c-2.5,0.1-5.2-0.4-7.6,0.6c-1.3,1.3-0.8,3.4-1,5.1c-0.2,5.7,0.8,11.7-1.4,17.1c-0.9,4.1-1.9,8.5-5,11.6c-1.5-1-3.3-1.8-4.3-3.3
		c-0.7-1-0.1-2.2,0.3-3.2c0.9-2,1.9-4,2.6-6c1-2.7,0.7-5.7,1.6-8.4c1.5-4.2,1.5-8.8,0.7-13.2c-1.3,0-2.6,0-3.9,0c-1.2,0-2.4,0-3.5,0
		c-0.2-1.8-0.2-3.7,0-5.5c2.4,0.2,4.9,0.6,7.2-0.2c1.2-2.2,0.6-4.9,0.7-7.3c0.1-5.5-0.3-11,0.2-16.4c2.3-0.2,4.7-0.2,7-0.8
		c1.2-0.3,2.7-0.9,2.7-2.4C308.8,352.414,309.3,349.414,310.8,346.814L310.8,346.814L310.8,346.814z M303.6,364.614
		c-0.5,3.2,0,6.5-0.2,9.7c0.1,2.5-0.4,5.3,0.7,7.6c2,0.8,4.2,0.5,6.4,0.6c2.4-0.1,4.8,0.2,7.1-0.3c1.3-0.9,0.9-2.7,1-4.1
		c-0.2-4.7,0.2-9.4-0.2-14c-0.2-0.1-0.7-0.1-1-0.2h0.4c-3.1-0.8-6.2-0.2-9.3-0.4C307,363.714,304.8,363.214,303.6,364.614
		L303.6,364.614L303.6,364.614z M414.9,346.914c1.8,0,3.7,0,5.6,0c0,2.5-0.2,4.9,0.3,7.3c0.2,1.2,1.1,2.2,2.3,2.3
		c3.2,0.4,6.4,0,9.5,0.1c5.9,0.1,11.9-0.2,17.8,0.1c0.3,5.5,0.2,11.1,0.1,16.6c-1.7,0.1-3.3,0.1-5,0.1c-0.4-2.1-0.5-4.2-0.4-6.4
		c-0.1-1.4,0.1-3-0.9-4.2c-1.3-1.2-3.2-1-4.8-1.1c-14.3,0.2-28.7,0-43,0.1c-1.9,0-4.1,1-4.5,3c-0.3,2.8,0.1,5.6-0.2,8.4
		c-2.2,0.1-4.3,0.1-6.4,0.2h-0.4c0-2.3-0.2-4.6-0.1-6.9c0.2-3.3-0.2-6.7,0-10.1h0.5c8.1,0.2,16.1,0,24.2,0.1
		c1.6-0.1,3.9,0.1,4.5-1.7C415,352.514,414.6,349.614,414.9,346.914L414.9,346.914L414.9,346.914z M171.6,349.714
		c3.5-1.1,7.3-1.4,10.9-1.8c0.2,1.7,0.5,3.4,0.2,5.1c-0.2,1.1-0.8,2.3-2.1,2.3c-3.2,0.5-6.4,0.1-9.6,0.6c-2.1,0.2-4.1,1-6.1,1.6
		c-2,0-4.1-0.4-6,0.3c-0.8,1.3-0.7,2.8-0.4,4.2c0.2,1,0.8,2.2,1.9,2.3c3.6,0.4,7.3,0,11,0.1c6.4,0.1,12.8-0.2,19.1,0.2
		c0.1,1.6,0.3,3.2,0.5,4.9c-9.9,0.1-19.9,0-29.8,0c-0.9,0.1-2.2,0-2.5,1.1c-0.4,1.3-0.4,2.9,0.5,4c2.6,0.5,5.2,0.2,7.8,0.2
		c5.2,0.1,10.4-0.1,15.5,0.1c0.2,4.7,0.1,9.5,0.1,14.3c0,3.7,0.2,7.3-0.1,10.9c-5.3,0.2-10.6,0-16,0.1c-2.3,0-4.7-0.3-6.9,0.2
		c-1.7,1.2-1.7,4-0.5,5.6c1.8,1,4,0.6,6,0.7c7,0.1,14.1-0.5,21.1,0.1c0.1,1.1,0.1,2.3,0.1,3.3c-5.6,0.2-11.3,0-16.9,0.1
		c-3,0-6-0.3-9.1,0.1c-1.3,0.1-2,1.5-2.1,2.7c-0.1,1.3,0.3,2.5,0.6,3.7c6.3,0.3,12.5,0.1,18.8,0.2c4.9-0.1,9.8,0.1,14.7-0.2
		c0.3,1.6,0.3,3.3,0.3,4.9c-12.1,0.3-24.2,0-36.2,0.1c-13.2,0.1-26.3-0.1-39.5,0.1c-0.4-1.8-0.5-3.7,0.6-5.3
		c5.1,0.5,10.2,0.2,15.3,0.3c6,0,12.1,0.2,18.2-0.3c0.3-1.6,1-3.4,0-4.9c-0.8-1.2-2.4-1.4-3.7-1.4c-8-0.2-15.9,0.3-23.9-0.2
		c-0.2-0.8-0.4-1.6-0.6-2.4v-0.5c1.8-0.3,3.7-0.5,5.6-0.4c5.6,0.2,11.3,0.1,16.9,0.1c1.7-0.1,3.7,0,5.2-1c1.8-1.4,1.1-4.7-1.1-5.3
		c-2.4-0.6-5-0.3-7.4-0.4c-4.8,0-9.7,0.1-14.5,0c-0.5-8.4,0-16.8-0.2-25.3c7-0.1,14,0,21,0c0.9-0.1,2.2,0.1,2.8-0.7
		c0.4-1.3,0.2-2.6,0.2-4c-0.5-0.1-1-0.2-1.6-0.3c-3.2-0.5-6.5-0.3-9.8-0.3c-7.1-0.1-14.2,0.2-21.3-0.2c0-1.7,0.2-3.4,0.5-5.1
		c8.2,0.1,16.4,0,24.7,0.1c2.3-0.1,4.9,0.3,6.8-1c1.3-1.4,0.6-3.5,0.7-5.3c-0.3,0-0.9,0-1.1,0c-7.7-0.1-15.5,0.3-23.2-0.4
		c0.2-1.6,0.3-3.2,0.5-4.9c5.9-0.4,11.8,0.2,17.8-0.1c3.6-0.1,7.3,0.3,10.7-0.8c2.3-0.7,4.7-0.6,7.1-0.8
		C166.1,350.714,168.9,350.514,171.6,349.714L171.6,349.714L171.6,349.714z M133.4,380.514c-0.5,1.2-0.3,2.6-0.3,3.8
		c4.7,0.7,9.6,0.2,14.3,0.4c1.3-0.1,3,0.3,3.9-0.7c0.5-1.4,0.5-4.1-1.6-4.1c-4-0.2-8,0-12-0.1
		C136.3,379.814,134.7,379.614,133.4,380.514L133.4,380.514L133.4,380.514z M159,380.414c-0.4,1.3-0.2,2.8-0.2,4.1
		c5.6,0.2,11.3,0.3,16.9,0c-0.1-1.5,0.6-3.4-0.6-4.5c-4-0.5-8.1,0-12.2-0.2C161.6,379.914,159.9,379.414,159,380.414L159,380.414
		L159,380.414z M135.1,389.814c-3,0-3.3,4.5-1.1,5.8c1.9,1.1,4.2,0.8,6.3,0.9c3-0.1,6,0.2,9-0.1c3-0.3,3.3-4.5,1.6-6.3
		c-2-0.6-4.2-0.3-6.3-0.4C141.4,389.714,138.2,389.514,135.1,389.814L135.1,389.814L135.1,389.814z M160.2,389.814
		c-1.3,0-1.5,1.6-1.6,2.6c-0.2,1.5,0.3,3.3,2,3.8c2.5,0.4,5.1,0,7.6,0.1c2.2,0,4.4,0.3,6.6-0.3c1.5-1.3,1.4-3.5,0.8-5.3
		c-0.5-1.5-2.3-1.1-3.5-1.2C168.1,389.814,164.1,389.514,160.2,389.814L160.2,389.814L160.2,389.814z M336.8,374.114
		c6.9-0.2,13.7,0,20.6-0.1c0.4,5,0.1,10,0.2,15c0.1,7.9-0.1,15.8,0.1,23.7c-0.2,2.3,3.2,2.4,4.4,1.3c1-2.2,1.4-4.7,3-6.7
		c1.5,0.8,3.4,1.3,4.4,2.7c-1.1,3.9-2.1,7.8-3.8,11.4c-1.5,0.9-3.3,0.5-4.9,0.6c-2.4-0.1-5,0.4-7.4-0.6c-2.1-1.5-2.8-4.2-3-6.7
		c-0.1-11.4,0.2-22.9-0.1-34.4l-0.5-0.1c-2.3-0.5-5.1-1.1-7.1,0.5c-0.7,1.7-0.5,3.6-0.5,5.4c0.1,3.2-0.4,6.3-0.4,9.5
		c0,2.5,0.1,5.1-0.2,7.5c-1.1,1.4-1.7,3.1-1.9,4.8c-0.6,4.9-3.8,9-5.9,13.4c-0.1,0.2-0.4,0.5-0.6,0.6c-2.6-0.2-5-1.4-6.8-3.1
		c2.7-2.9,5.2-6,6.7-9.7c1.6-2.9,1.5-6.3,2.4-9.4c0.5-1.6,0.9-3.2,1-4.8C336.9,388.114,336.1,381.114,336.8,374.114L336.8,374.114z
		 M344.8,346.914c2.1-0.1,4.2-0.4,6.3,0c0.1,0.1,0.3,0.4,0.4,0.6c0.6,3.5-0.2,7.1,0.4,10.7c0.2,1.5,1.8,2.2,3.2,2.2
		c4.2,0,8.4-0.1,12.6,0c0.1,1.7,0.1,3.4,0.1,5.1c-12.9,0.2-25.9,0.1-38.7,0c0-1.6,0-3.2,0.1-4.8c3.9-0.3,7.7,0,11.6-0.1
		c2.1,0,4.1-1.6,4-3.7C344.7,353.414,344.1,350.114,344.8,346.914L344.8,346.914z M308,366.714c1.7,0,3.9-0.6,5.1,1
		c0.5,1.1,0.5,2.3,0.6,3.4c0.1,2.2,1.1,4.2,1.6,6.3c-1.4,0.3-2.8,0.7-4.3,0.6C308.3,374.914,308.1,370.614,308,366.714L308,366.714z
		 M246.2,368.514c1.6-0.1,3.2-0.1,4.8-0.1c0.3,3.4-0.2,7,0.6,10.3c0.3,1.5,2.1,1.9,3.4,1.9c6.9,0.3,13.9-0.4,20.8,0.3
		c-0.1,1.5,0.2,3.2-0.5,4.7c-1.2,0.5-2.5,0.4-3.8,0.5c-4.7,0-9.3-0.1-14-0.1c-1.8,0-3.9,0.3-5,1.9c-0.8,0.8-0.3,1.8-0.1,2.7
		c1.6,4.6,3.8,9,7,12.7c5,5.6,11.8,9.5,18.9,11.9c-0.3,1.3-0.6,2.5-0.9,3.8l-0.2,0.3c-1.2,1.1-2.6,2.8-4.4,2
		c-7.3-2.9-13.5-8.1-18.4-14.1c-1.4-1.6-2.3-3.5-3.8-5.1c-2.4-0.2-3.3,2.5-4.5,4.1c-3.3,6-9.3,9.9-15.3,12.9
		c-1.9,0.9-3.7,1.9-5.8,2.3c-0.7,0.2-1.1-0.5-1.5-0.9c-1.4-1.8-2.3-3.9-3.3-5.9c3.7-0.4,7.1-2.1,10.2-3.9
		c6.5-3.8,11.3-9.9,13.6-16.9c0.5-1.7,0.5-3.5,0.3-5.3c-0.1-0.9-0.5-1.9-1.5-2.2c-1.4-0.4-2.7-0.4-4.1-0.4c-4.8,0.1-9.6,0.2-14.4,0
		c-0.1-1.7-0.1-3.5,0-5.3c5.9-0.3,11.9,0.1,17.8-0.1c2,0.1,3.4-1.7,3.6-3.5C246,374.214,245.7,371.314,246.2,368.514L246.2,368.514
		L246.2,368.514z M427.9,371.014c0.8-0.6,1.8-0.1,2.6,0.2c3.3,1.8,7,3.1,10.2,5.1c2.9,1.6,5.8,3.2,8.7,4.8c1.1,0.6,2.3,1.3,3.1,2.4
		c0,2.4-1.9,4.2-3.1,6.1c-2.3-1-4.3-2.6-6.4-4c-3.1-2-6.3-3.9-9.6-5.7c-2.7-1.6-5.7-2.7-8.2-4.6
		C426,373.714,426.6,372.214,427.9,371.014L427.9,371.014z M407.4,369.314c1.7,1.4,4.1,3,4.2,5.4c-1.7,1.8-3.8,3.1-5.8,4.5
		c-5.2,3.4-10.5,6.9-16,9.9c-1.1,0.7-2.7,1.1-3.8,0.1c-1.1-1.2-1.8-2.8-2.7-4.2c0.9-0.9,1.8-1.8,3-2.3c4-1.7,7.7-4.1,11.4-6.4
		C401.1,374.214,404.7,372.314,407.4,369.314L407.4,369.314z M308.2,392.814c2-0.6,3.9,0,5.4,1.2v0.6c-0.2,2.6,0.1,5.2,0,7.9
		c0,1.7-1.8,2.4-2.9,3.3c-0.8-1.7-1.7-3.4-2-5.3C308.3,397.914,308.3,395.314,308.2,392.814L308.2,392.814z M392.9,392.414
		c17,0.3,34.1,0,51.1,0.1c0.4,2,0.4,4-0.2,5.9c-5.2-0.3-10.4-0.1-15.6-0.2c-1.9,0-4-0.2-5.5,1.1c-0.7,1.4-0.6,2.9-0.6,4.4
		c0.1,3.5-0.1,7.1,0.1,10.7c4.1,0.8,8.2-0.1,12.3,0.3c2.6,0.2,5.1,0.1,7.7,0c3.4-0.2,6.9,0,10.3,0c0,2.4,0,4.7,0,7
		c-23.2,0-46.5,0-69.7,0c-0.2-2.3-0.2-4.6,0-6.9c9.9-0.1,19.8-0.4,29.7-0.1c1.1-2.9,0.4-6,0.6-9c0-2,0.2-4.2-0.4-6.2
		c-0.4-1.4-2.1-1.3-3.3-1.4c-5.5-0.1-11,0.2-16.5,0c0-1.8-0.1-3.5-0.1-5.3v-0.4H392.9z M30,479.114c-2.1,1-5.4,1.7-8.7,1.7
		c-9.9,0-15.7-6.3-15.7-16.3c0-10.6,6.4-16.7,16-16.7c3.4,0,6.3,0.7,8.2,1.7l1.3-4.3c-1.4-0.7-4.7-1.8-9.7-1.8
		c-12.7,0-21.4,8.5-21.4,21.3c0,13.3,8.6,20.6,20.2,20.6c5,0,8.9-1,10.8-1.9L30,479.114L30,479.114z M39.7,444.114v40.5H45v-19h19.9
		v19h5.4v-40.5h-5.4v16.9H45v-16.9H39.7L39.7,444.114z M96.1,485.314c11.1,0,20.2-7.5,20.2-21.3c0-12-7.7-20.5-19.7-20.5
		c-11.6,0-20.2,8.4-20.2,21.3C76.4,477.014,84.4,485.314,96.1,485.314L96.1,485.314L96.1,485.314z M96.2,481.014
		c-8.9,0-13.9-7.9-13.9-16.4c0-8.8,4.7-16.9,14-16.9c9.4,0,13.9,8.4,13.9,16.5C110.2,473.414,105.2,481.014,96.2,481.014
		L96.2,481.014L96.2,481.014z M125,484.614v-17.3c0-6.7-0.1-11.6-0.4-16.7l0.2-0.1c2.2,4.4,5.2,9,8.3,13.5l14.2,20.6h5.8v-40.5h-5.4
		v17c0,6.2,0.1,11.2,0.7,16.6l-0.2,0.1c-2.1-4.2-4.7-8.4-8-13.2l-14.3-20.5h-6.4v40.5H125L125,484.614z M192.2,463.314h-13.1v4.2h8
		v12.1c-1.2,0.6-3.5,1.1-6.8,1.1c-9.3,0-15.3-6.1-15.3-16.3c0-10.2,6.3-16.3,16-16.3c4,0,6.7,0.7,8.8,1.7l1.3-4.3
		c-1.7-0.8-5.4-1.9-10-1.9c-13.3,0-21.5,8.8-21.5,20.9c0,6.3,2.1,11.7,5.5,15.1c3.9,3.8,8.9,5.4,14.9,5.4c5.4,0,10-1.3,12.3-2.2
		v-19.5H192.2z M243.5,444.114v40.5h5.5v-40.5H243.5L243.5,444.114z M261.3,484.614v-17.3c0-6.7-0.1-11.6-0.4-16.7l0.2-0.1
		c2,4.4,4.7,9,7.6,13.5l12.9,20.6h5.3v-40.5h-5v17c0,6.2,0.1,11.2,0.6,16.6l-0.2,0.1c-1.9-4.2-4.3-8.4-7.3-13.2l-13-20.5h-5.8v40.5
		H261.3L261.3,484.614z M325.9,463.314h-13.5v4.2h8.3v12.1c-1.2,0.6-3.6,1.1-7,1.1c-9.6,0-15.8-6.1-15.8-16.3
		c0-10.2,6.5-16.3,16.5-16.3c4.1,0,6.9,0.7,9.1,1.7l1.3-4.3c-1.8-0.8-5.5-1.9-10.3-1.9c-13.7,0-22.2,8.8-22.2,20.9
		c0,6.3,2.2,11.7,5.7,15.1c4,3.8,9.1,5.4,15.3,5.4c5.5,0,10.3-1.3,12.6-2.2V463.314L325.9,463.314z M373.6,471.914l4.3,12.7h5.5
		l-13.6-40.5h-6.2l-13.6,40.5h5.3l4.1-12.7H373.6L373.6,471.914z M360.5,467.814l3.9-11.7c0.8-2.5,1.4-5,1.9-7.3h0.2
		c0.6,2.3,1.2,4.7,2,7.4l4,11.7h-12V467.814z M389.1,444.114v40.5h5.2v-40.5H389.1L389.1,444.114z M403.3,484.614h5.1v-17.5h4.8
		c4.7,0.2,6.8,2.3,8,7.9c1.1,5,1.9,8.5,2.6,9.7h5.3c-0.8-1.6-1.7-5.5-3-11.1c-1-4.2-2.8-7.1-5.8-8.2v-0.2c4.1-1.4,7.5-5,7.5-10.3
		c0-3.2-1.2-5.9-3.1-7.7c-2.5-2.3-6.1-3.4-11.6-3.4c-3.5,0-7.3,0.4-9.9,0.9v39.9H403.3z M408.4,448.414c0.9-0.2,2.6-0.5,5.1-0.5
		c5.4,0,9.2,2.3,9.2,7.5c0,4.6-3.5,7.7-9,7.7h-5.3L408.4,448.414L408.4,448.414z M435,484.614h22.2v-4.4h-17v-36.1H435V484.614
		L435,484.614z M462.8,444.114v40.5h5.2v-40.5H462.8L462.8,444.114z M481.9,484.614v-17.3c0-6.7-0.1-11.6-0.4-16.7l0.2-0.1
		c1.9,4.4,4.6,9,7.4,13.5l12.6,20.6h5.2v-40.5H502v17c0,6.2,0.1,11.2,0.6,16.6l-0.2,0.1c-1.8-4.2-4.2-8.4-7.1-13.2l-12.7-20.5H477
		v40.5H481.9L481.9,484.614z M536.4,461.314H521v-12.8h16.4v-4.4h-21.5v40.5h22.4v-4.4H521v-14.6h15.4V461.314L536.4,461.314z
		 M542.9,482.614c2.1,1.4,6.3,2.7,10.2,2.7c9.4,0,13.9-5.5,13.9-11.7c0-5.9-3.4-9.2-10.1-11.9c-5.5-2.2-7.9-4-7.9-7.8
		c0-2.8,2.1-6.1,7.5-6.1c3.6,0,6.3,1.1,7.5,1.9l1.4-4.3c-1.7-1-4.7-2-8.7-2c-7.7,0-12.9,4.7-12.9,11c0,5.6,4,9.1,10.5,11.5
		c5.4,2,7.5,4.3,7.5,8c0,4.1-3.1,6.9-8.3,6.9c-3.5,0-6.8-1.1-9.2-2.6L542.9,482.614L542.9,482.614z M220.2,474.514
		c3.3-0.3,6.3-0.4,8.4,1.2c2.4-3,3.7-7.1,3.7-11.6c0-8.1-4.8-16.5-14.6-16.5c-10.1,0-15,8.2-15,16.9c0,8.6,5.4,16.3,14.8,16.3h0.1
		c3.2,0,6-0.9,8.2-2.4C224.1,477.014,221.8,476.014,220.2,474.514L220.2,474.514z M231.7,479.814c1.7,1.6,4.1,2.7,5.9,4.2
		c-3.7,0.3-7,0.2-9.3-1.7c-3.4,2-7.4,3-11.7,3c-11.1-0.4-20.4-7.5-20.4-20.5s9-21.3,21.5-21.3c12.6,0,20.8,8.5,20.8,20.5
		C238.5,470.614,235.9,476.114,231.7,479.814L231.7,479.814z"/>
	<path fill="#7FC1E7" d="M58.6,219.314c17.9,23.3,53.5,42.2,85.1,42c123-0.7,126.4-164.8,226.3-165.6c21.8-0.2,41.8,23.7,42,49
		c0.4,69.4-123.2,156.5-210,155.1C93.6,298.114,71.4,255.514,58.6,219.314L58.6,219.314z"/>
	<path fill="#D24A43" d="M484.4,80.514c-17.9-23.3-53.5-42.2-85.1-42c-123,0.7-126.4,164.8-226.3,165.6c-21.8,0.2-41.8-23.7-42-49
		c-0.5-69.3,123.1-156.4,209.9-155.1C449.4,1.714,471.5,44.314,484.4,80.514L484.4,80.514z"/>
</g>
</svg>
