<?xml version="1.0" encoding="UTF-8"?>
<svg width="56px" height="11px" viewBox="0 0 56 11" version="1.1" xmlns="http://www.w3.org/2000/svg" xmlns:xlink="http://www.w3.org/1999/xlink">
    <!-- Generator: Sketch 51 (57462) - http://www.bohemiancoding.com/sketch -->
    <title>Austrian_Airlines</title>
    <desc>Created with Sketch.</desc>
    <defs>
        <linearGradient x1="49.9924562%" y1="49.9857955%" x2="26.2175619%" y2="49.9857955%" id="linearGradient-1">
            <stop stop-color="#940004" offset="0%"></stop>
            <stop stop-color="#E42805" offset="100%"></stop>
        </linearGradient>
        <linearGradient x1="49.9989699%" y1="119.261084%" x2="49.9989699%" y2="7.39318387%" id="linearGradient-2">
            <stop stop-color="#940004" offset="0%"></stop>
            <stop stop-color="#E42805" offset="100%"></stop>
        </linearGradient>
    </defs>
    <g id="Page-1" stroke="none" stroke-width="1" fill="none" fill-rule="evenodd">
        <g id="Austrian_Airlines">
            <path d="M30.144,9.725 C29.945,9.901 29.673,10 29.36,10 C28.851,10 28.595,9.853 28.461,9.538 C28.173,9.875 27.82,10 27.318,10 C26.542,10 26.018,9.595 26.018,8.9 C26.018,8.149 26.686,7.788 27.591,7.509 L27.658,7.488 C28.113,7.348 28.466,7.191 28.466,6.804 L28.466,6.611 C28.466,6.032 28.201,5.728 27.712,5.728 C27.333,5.728 27.175,5.906 27.129,6.292 C27.105,6.494 27.02,6.735 26.726,6.735 C26.483,6.735 26.326,6.589 26.326,6.364 C26.326,5.857 26.912,5.499 27.782,5.499 C28.851,5.499 29.267,5.926 29.267,6.799 L29.267,8.938 C29.267,9.502 29.361,9.702 29.626,9.702 C29.762,9.702 29.892,9.658 30.024,9.561 L30.144,9.725 Z M28.477,8.511 L28.477,7.371 C28.308,7.467 28.149,7.551 27.994,7.632 C27.347,7.968 26.868,8.251 26.868,8.927 C26.868,9.38 27.174,9.723 27.585,9.723 C28.158,9.723 28.477,9.282 28.477,8.511 Z M2.065,6.954 L4.16,6.954 L3.12,4.322 L2.065,6.954 Z M4.266,7.221 L1.958,7.221 L1.776,7.676 C1.554,8.232 1.417,8.722 1.416,8.989 C1.415,9.413 1.716,9.6 2.298,9.679 L2.298,9.853 L0,9.853 L0,9.671 C0.681,9.632 0.991,8.771 1.735,6.956 L3.357,3 L3.571,3 L5.616,8.022 C6.042,9.068 6.267,9.652 6.908,9.671 L6.908,9.853 L4.121,9.853 L4.121,9.672 C4.664,9.642 4.947,9.492 4.947,9.156 C4.948,8.978 4.855,8.71 4.703,8.327 L4.266,7.221 Z M11.092,5.648 L9.597,5.648 L9.597,5.836 L9.672,5.836 C10.298,5.836 10.318,6.044 10.318,7.143 L10.318,8.396 C10.318,8.788 10.302,9.064 10.097,9.307 C9.888,9.555 9.578,9.712 9.267,9.712 C8.694,9.712 8.404,9.316 8.404,8.554 L8.404,5.648 L6.874,5.648 L6.874,5.836 L6.948,5.836 C7.574,5.836 7.594,6.044 7.594,7.143 L7.594,8.518 C7.594,9.471 8,10 8.993,10 C9.553,10 9.927,9.832 10.317,9.48 C10.317,9.571 10.317,9.954 10.317,9.954 L10.551,9.92 C10.964,9.861 11.355,9.805 11.736,9.762 L11.759,9.759 L11.759,9.605 L11.735,9.604 C11.25,9.566 11.117,9.385 11.117,8.76 L11.117,5.648 L11.092,5.648 Z M12.714,6.658 C12.714,7.429 13.348,7.686 14.022,8.061 C14.476,8.317 14.8,8.589 14.8,9.017 C14.8,9.439 14.51,9.742 14.075,9.742 C13.433,9.742 13.052,9.41 12.797,8.459 L12.792,8.44 L12.659,8.44 L12.659,9.931 L12.786,9.931 L12.794,9.921 C12.892,9.783 12.974,9.724 13.069,9.724 C13.114,9.724 13.181,9.755 13.268,9.794 C13.448,9.877 13.741,10 14.134,10 C14.963,10 15.541,9.454 15.541,8.701 C15.541,8.336 15.399,8.054 15.158,7.812 C14.94,7.593 14.602,7.4 14.223,7.198 C13.689,6.906 13.336,6.722 13.336,6.303 C13.336,5.952 13.623,5.737 13.993,5.737 C14.515,5.737 14.901,6.116 15.054,6.832 L15.059,6.852 L15.194,6.852 L15.194,5.57 L15.062,5.57 L15.056,5.585 C15.01,5.694 14.959,5.737 14.872,5.737 C14.829,5.737 14.763,5.708 14.679,5.671 C14.515,5.599 14.26,5.5 13.954,5.5 C13.246,5.5 12.714,5.986 12.714,6.658 Z M19.031,9.652 C18.808,9.884 18.496,10 18.099,10 C17.311,10 16.939,9.643 16.939,8.947 C16.939,8.295 16.977,5.897 16.977,5.897 L16.436,5.897 L16.436,5.66 L16.457,5.656 C17.027,5.561 17.339,5.238 17.571,4.521 L17.577,4.503 L17.779,4.503 L17.77,5.648 L18.858,5.648 L18.858,5.897 L17.77,5.897 L17.75,8.658 L17.75,8.776 C17.75,9.364 17.916,9.694 18.395,9.694 C18.596,9.694 18.753,9.635 18.896,9.497 L19.031,9.652 Z M20.779,5.523 C20.369,5.663 19.935,5.766 19.452,5.838 L19.43,5.841 L19.43,5.995 L19.453,5.997 C19.977,6.035 20.12,6.218 20.12,6.849 L20.12,8.347 C20.12,9.462 20.12,9.663 19.475,9.663 L19.41,9.663 L19.41,9.853 L21.76,9.853 L21.76,9.663 L21.675,9.663 C21.295,9.663 21.129,9.604 21.039,9.435 C20.938,9.246 20.931,8.893 20.931,8.376 L20.931,7.528 C20.931,6.54 21.306,5.897 21.655,5.897 C21.824,5.897 21.906,6 21.992,6.132 C22.084,6.271 22.188,6.43 22.414,6.43 C22.647,6.43 22.804,6.281 22.804,6.059 C22.804,5.715 22.504,5.501 22.059,5.501 C21.589,5.501 21.186,5.747 20.91,6.305 C20.908,5.992 20.895,5.79 20.871,5.566 L20.87,5.548 L20.788,5.52 L20.779,5.523 Z M23.682,3.903 C23.682,4.18 23.883,4.382 24.161,4.382 C24.443,4.382 24.64,4.185 24.64,3.903 C24.64,3.647 24.416,3.424 24.161,3.424 C23.906,3.424 23.682,3.647 23.682,3.903 Z M24.549,5.519 C24.108,5.643 23.647,5.743 23.101,5.835 L23.08,5.839 L23.08,5.992 L23.104,5.993 C23.628,6.031 23.771,6.215 23.771,6.846 L23.771,8.347 C23.771,9.462 23.771,9.663 23.126,9.663 L23.06,9.663 L23.06,9.853 L25.301,9.853 L25.301,9.663 L25.236,9.663 C24.599,9.663 24.581,9.476 24.581,8.347 L24.581,5.511 L24.549,5.519 Z M31.896,5.523 C31.486,5.663 31.052,5.766 30.569,5.838 L30.547,5.841 L30.547,5.995 L30.571,5.997 C31.094,6.035 31.238,6.218 31.238,6.849 L31.238,8.347 C31.238,9.462 31.238,9.663 30.592,9.663 L30.528,9.663 L30.528,9.853 L32.768,9.853 L32.768,9.663 L32.704,9.663 C32.067,9.663 32.048,9.476 32.048,8.347 L32.048,7.036 C32.048,6.719 32.064,6.438 32.26,6.203 C32.468,5.955 32.778,5.808 33.089,5.808 C33.662,5.808 33.952,6.195 33.952,6.957 L33.952,8.348 C33.952,9.477 33.934,9.664 33.307,9.664 L33.243,9.664 L33.243,9.854 L35.483,9.854 L35.483,9.664 L35.419,9.664 C34.784,9.664 34.764,9.456 34.764,8.348 L34.764,6.948 C34.764,6.036 34.382,5.5 33.404,5.5 C32.852,5.5 32.455,5.648 32.045,6.026 C32.037,5.943 31.989,5.548 31.989,5.548 L31.905,5.52 L31.896,5.523 Z" id="Shape" fill="#E40E1F"></path>
            <g id="Group" transform="translate(36.000000, 0.000000)">
                <g id="Group-2">
                    <path d="M2.195,2.844 L6.874,1.821 L8.823,2.333 C8.823,2.333 7.382,1.94 4.637,3.229 L2.195,2.844 Z" id="Shape" fill="url(#linearGradient-1)"></path>
                    <path d="M19.885,0.154 C19.885,0.154 11.046,2.554 3.099,9.674 L0.47,10.101 C0.47,10.101 6.556,5.62 7.473,3.856 C8.265,2.333 7.796,1.92 6.425,1.904 C6.424,1.904 13.753,0.5 19.885,0.154 Z" id="Shape" fill="url(#linearGradient-2)"></path>
                </g>
            </g>
        </g>
    </g>
</svg>