<?xml version="1.0" encoding="utf-8"?>
<!-- Generator: Adobe Illustrator 22.1.0, SVG Export Plug-In . SVG Version: 6.00 Build 0)  -->
<svg version="1.1"
	 id="svg2" inkscape:version="0.48.1 " sodipodi:docname="AJAX.svg" xmlns:cc="http://creativecommons.org/ns#" xmlns:dc="http://purl.org/dc/elements/1.1/" xmlns:inkscape="http://www.inkscape.org/namespaces/inkscape" xmlns:rdf="http://www.w3.org/1999/02/22-rdf-syntax-ns#" xmlns:sodipodi="http://sodipodi.sourceforge.net/DTD/sodipodi-0.dtd" xmlns:svg="http://www.w3.org/2000/svg"
	 xmlns="http://www.w3.org/2000/svg" xmlns:xlink="http://www.w3.org/1999/xlink" x="0px" y="0px" width="34.036px" height="23px"
	 viewBox="0 0 34.036 23" style="enable-background:new 0 0 34.036 23;" xml:space="preserve">
<style type="text/css">
	.st0{fill:#FFBF00;}
	.st1{fill:#FFFFFF;}
	.st2{fill:#F20000;}
	.st3{fill:none;stroke:#F20000;stroke-width:2.7818;stroke-miterlimit:3.8637;}
</style>
<sodipodi:namedview  bordercolor="#666666" borderopacity="1" fit-margin-bottom="0" fit-margin-left="0" fit-margin-right="0" fit-margin-top="0" gridtolerance="10" guidetolerance="10" id="namedview48" inkscape:current-layer="svg2" inkscape:cx="332.59634" inkscape:cy="128.00579" inkscape:pageopacity="0" inkscape:pageshadow="2" inkscape:window-height="1004" inkscape:window-maximized="1" inkscape:window-width="1280" inkscape:window-x="-8" inkscape:window-y="-8" inkscape:zoom="1.4977536" objecttolerance="10" pagecolor="#ffffff" showgrid="false">
	</sodipodi:namedview>
<g>
	<polygon id="polygon8" class="st0" points="14.139,13.097 28.896,13.097 34.036,0.031 34.036,0.031 25.695,0.031 	"/>
	<path id="path10" inkscape:connector-curvature="0" class="st1" d="M28.372,8.452c0.023-0.098,0.041-0.227,0.051-0.306
		c0.01-0.079-0.149-0.516-0.185-0.623c-0.036-0.108-0.094-0.422-0.072-0.499c0.031-0.108,0.062-0.176,0.103-0.261
		c0.041-0.085,0.072-0.136,0.154-0.238c0.082-0.102,0.267-0.408,0.329-0.68c0.02-0.087,0.262-0.442,0.277-0.453
		c0.019-0.014,0.01,0.238,0,0.295c-0.01,0.057,0.283-0.057,0.308-0.079c0.026-0.023-0.118,0.374-0.144,0.408
		c-0.025,0.034,0.134-0.006,0.175-0.023c0.041-0.017,0.149,0.04,0.134,0.068c-0.015,0.028-0.442,0.487-0.524,0.533
		c-0.082,0.045-0.149,0.164-0.185,0.227c-0.036,0.062-0.057,0.414,0,0.329c0.057-0.085,0.329-0.283,0.36-0.295
		c0.031-0.011,0.154,0.091,0.154,0.091s-0.586,0.674-0.596,0.748c-0.01,0.074,0.171-0.037,0.171-0.037s-0.073,0.734-0.099,0.887
		c-0.026,0.153-0.108,0.3-0.154,0.363c-0.046,0.062-0.206,0.119-0.308,0.136l-0.28,0.046c0.028,0.155,0.054,0.351,0.043,0.408
		c-0.015,0.085-0.077,0.323-0.236,0.51c-0.159,0.187-0.241,0.289-0.288,0.374c-0.046,0.085-0.077,0.385-0.031,0.465
		c0.046,0.079,0.226,0.459,0.226,0.544s-0.036,0.159-0.072,0.227c-0.036,0.068-0.149,0.357-0.175,0.465
		c-0.026,0.108-0.051,0.431-0.051,0.431c0,0.051-0.128,0.351-0.134,0.374c-0.005,0.023-0.19,0.153-0.298,0.136
		c-0.108-0.017-0.247,0.011-0.267-0.023c-0.02-0.034-0.051-0.113-0.041-0.159c0.01-0.045,0.2-0.238,0.247-0.283
		c0.046-0.045,0.216-0.425,0.257-0.578c0.041-0.153,0.082-0.493,0.062-0.544c-0.02-0.051-0.37-0.374-0.421-0.465
		c-0.051-0.091-0.153-0.355-0.209-0.519c-0.057-0.164-0.253,0.026-0.304,0.088c-0.052,0.062-0.165,0.306-0.134,0.397
		c0.031,0.091,0.154,0.238,0.154,0.261c0,0.023-0.098,0.176-0.144,0.181c-0.046,0.006-0.2,0.028-0.278,0.045
		c-0.077,0.017-0.617,0.227-0.648,0.227h-0.164c-0.046,0-0.098,0.266-0.113,0.306c-0.015,0.04-0.108,0.124-0.144,0.136
		c-0.134,0.045-0.339-0.045-0.401-0.091c-0.038-0.028-0.123-0.142-0.072-0.204c0.051-0.062,0.226-0.306,0.308-0.408
		c0.044-0.055,0.37-0.023,0.596-0.102c0.088-0.031,0.483-0.17,0.514-0.249c0.031-0.079,0.063-0.094,0.042-0.145
		c-0.021-0.051-0.082-0.13-0.144-0.198c-0.062-0.068-0.402-0.359-0.238-0.575c0.106,0.001,0.504,0.045,0.329,0
		c-0.175-0.045-0.339-0.011-0.514-0.011c-0.175,0-0.257-0.011-0.39-0.045c-0.134-0.034-0.504-0.329-0.627-0.465
		c-0.123-0.136-0.648-0.521-0.73-0.556c-0.082-0.034-0.144-0.057-0.185-0.091c-0.041-0.034-0.035-0.1-0.096-0.224
		c-0.062-0.125-0.397-0.66-0.459-0.705c-0.062-0.045-0.277,0.374-0.329,0.487c-0.051,0.113-0.021,0.238,0,0.295
		c0.021,0.057,0.041,0.102,0.041,0.159c0,0.057-0.02,0.17-0.072,0.238c-0.051,0.068,0.021,0.079,0.062,0.147
		c0.041,0.068-0.041,0.272-0.092,0.363c-0.051,0.091-0.113,0.147-0.154,0.136c-0.041-0.011-0.103-0.136-0.154-0.227
		c-0.051-0.091-0.041-0.17-0.01-0.249c0.031-0.079,0.041-0.113,0.041-0.181c0-0.068-0.093-0.125-0.103-0.215
		c-0.01-0.091,0.02-0.159,0.082-0.261c0.062-0.102,0.236-0.567,0.257-0.657c0.021-0.091,0.036-0.283,0.072-0.351
		c0.072-0.136,0.236-0.136,0.308-0.091c0.072,0.045,0.541,0.286,0.433,0.212c-0.002-0.009-0.015-0.064-0.032-0.235
		c-0.02,0.021-0.256-0.339-0.298-0.385c-0.062-0.068-0.103-0.125-0.185-0.057c-0.082,0.068-0.524,0.453-0.462,0.544
		c0.062,0.091-0.062,0.215-0.062,0.215s-0.023,0.118,0.051,0.159c0.226,0.125-0.009,0.399-0.021,0.431c0,0-0.199-0.001-0.236-0.011
		c-0.014-0.004-0.206-0.261-0.195-0.329c0.01-0.068,0.041-0.159,0.051-0.215c0.01-0.057-0.02-0.136-0.041-0.17
		c-0.01-0.017-0.006-0.062,0.041-0.125c0.092-0.125,0.226-0.329,0.339-0.453c0.113-0.125,0.38-0.567,0.432-0.589
		c0.051-0.023,0.082-0.079,0.144-0.045c0.062,0.034,0.302,0.181,0.302,0.181c-0.053-0.114-0.132-0.284-0.151-0.326
		c-0.031-0.068-0.068-0.206-0.027-0.218c0.041-0.011,0.103-0.011,0.185,0.091c0.082,0.102-0.209-0.36-0.261-0.44
		c-0.051-0.079-0.068-0.218-0.068-0.218s0.154,0.057,0.206,0.125c0.051,0.068-0.086-0.19-0.127-0.258
		c-0.041-0.068-0.119-0.195-0.078-0.229c0.041-0.034,0.14-0.066,0.068-0.168c-0.072-0.102-0.171-0.399-0.202-0.478
		c-0.031-0.079,0.267,0.034,0.267,0.034c-0.082-0.102-0.516-0.811-0.473-0.907c0.051-0.113,0.397,0.184,0.325,0.082
		c-0.072-0.102-0.689-0.926-0.582-1.034c0.087-0.087,0.204,0.026,0.207,0.022c0.001-0.001-0.008-0.013-0.032-0.045
		c-0.103-0.136-0.504-0.601-0.421-0.703c0.082-0.102,0.082-0.102,0.216,0c0.134,0.102,0.104,0.017-0.035-0.1
		c-0.315-0.263-0.367-0.476-0.366-0.478c0.001-0.002,0.386,0.037,0.679,0.32c-0.252-0.284-0.959-1.104-0.906-1.171
		c0.082-0.102,0.802,0.397,1.089,0.669c0.288,0.272,0.822,1.009,1.058,1.406c0.212,0.356,0.625,1.515,0.617,1.519
		c0.059,0.012,0.102,0.035,0.165,0.057c0.118,0.04,0.329,0.187,0.442,0.295c0.113,0.108,0.211,0.272,0.298,0.431
		c0.087,0.159,0.165,0.454,0.206,0.646c0.041,0.193,0.031,0.504,0.02,0.646c-0.01,0.142-0.056,0.363-0.082,0.431
		c-0.032,0.083-0.074,0.155-0.082,0.17c-0.005-0.07-0.025,0.13,0.021,0.306c0.03,0.114,0.08,0.263,0.118,0.332
		c0.072-0.065,0.227-0.2,0.303-0.298c0.123-0.159,0.195-0.516,0.185-0.85c-0.01-0.306-0.072-0.884-0.123-1.168
		c-0.051-0.283-0.082-0.703-0.051-0.986c0.031-0.283,0.195-0.827,0.329-1.077c0.134-0.249,0.545-0.771,0.791-1.009
		c0.247-0.238,0.339-0.329,0.647-0.589c0.308-0.261,1.028-0.669,1.274-0.805c0.247-0.136,0.73-0.34,0.935-0.397
		c0.206-0.057,1.065-0.306,1.192-0.306c0.185,0,0,0.204-0.093,0.272c-0.092,0.068-0.411,0.351-0.545,0.453
		c-0.103,0.079,0.031,0.136,0.134,0.113c0.103-0.023,0.185,0.091,0.133,0.193c-0.051,0.102-0.771,0.771-0.658,0.748
		c0.113-0.023,0.288-0.034,0.319,0.079c0.03,0.109-0.884,0.76-0.781,0.725c0.103-0.034,0.144,0.125,0.123,0.181
		c-0.021,0.057-0.247,0.283-0.401,0.363c-0.154,0.079-0.38,0.204-0.247,0.204c0.134,0-0.092,0.272-0.185,0.363
		c-0.093,0.091-0.349,0.343-0.329,0.397c0.051,0.136-0.082,0.306-0.247,0.442c-0.164,0.136-0.249,0.161-0.164,0.227
		c0.103,0.079-0.02,0.227-0.113,0.329c-0.093,0.102-0.304,0.238-0.165,0.238c0.185,0,0.093,0.238,0.01,0.317
		c-0.082,0.079-0.277,0.136-0.216,0.249c0.072,0.132-0.031,0.215-0.113,0.272c-0.082,0.057-0.252,0.003-0.113,0.091
		c0.072,0.045-0.226,0.351-0.226,0.397c0,0.113-0.144,0.181-0.144,0.283c0,0.255-0.401,0.272-0.38,0.329
		c0.047,0.13-0.072,0.215-0.165,0.261c-0.092,0.045-0.257,0.068-0.165,0.159c0.096,0.094-0.286,0.269-0.236,0.261
		c0.013,0.018,0.421,0.153,0.545,0.147c0.123-0.006,0.853,0.011,0.905,0.023c0.051,0.011,0.442,0.266,0.524,0.374
		c0.082,0.108,0.164,0.249,0.195,0.351C28.006,8.918,28.29,8.804,28.372,8.452C28.372,8.452,28.372,8.452,28.372,8.452z"/>
	<path id="path12" inkscape:connector-curvature="0" class="st2" d="M25.543,10.367c0.01,0.023,0.02,0.046,0.03,0.068
		c0.031,0.074,0.108,0.147,0.17,0.215c0.062,0.068,0.123,0.147,0.144,0.198c0.021,0.051,0.005,0.119-0.026,0.198
		c-0.031,0.079-0.134,0.125-0.226,0.164c-0.092,0.04-0.216,0.068-0.303,0.102c-0.087,0.034-0.206,0.04-0.288,0.062
		c-0.082,0.023-0.098,0.011-0.18,0.011c-0.082,0-0.062-0.017-0.123,0.011c-0.062,0.028-0.046,0.051-0.067,0.108
		c-0.021,0.057-0.067,0.096-0.113,0.159c-0.046,0.062-0.051,0.051-0.103,0.113c-0.051,0.062-0.015,0.034-0.015,0.085
		c0,0.051,0.02,0.039,0.087,0.085c0.067,0.045,0.149,0.062,0.226,0.074c0.077,0.011,0.108-0.006,0.144-0.017
		c0.036-0.011,0.067-0.074,0.082-0.113c0.015-0.04,0.005-0.068,0.015-0.142c0.01-0.074,0.026-0.102,0.041-0.147
		c0.015-0.045,0.031-0.04,0.077-0.04c0.046,0,0.144,0.011,0.175,0.011c0.031,0,0.026-0.017,0.056-0.034
		c0.031-0.017,0.175-0.085,0.273-0.119c0.098-0.034,0.267-0.062,0.344-0.079c0.077-0.017,0.221-0.028,0.267-0.034
		c0.046-0.006,0.051-0.023,0.067-0.045c0.015-0.023,0.026-0.045,0.026-0.068c0-0.023-0.046-0.068-0.103-0.13
		c-0.057-0.062-0.036-0.074-0.067-0.164c-0.031-0.091,0-0.142,0.005-0.204c0.005-0.062,0.082-0.164,0.134-0.227
		c0.046-0.056,0.154-0.084,0.22-0.102h0.146c0.005,0.013,0.01,0.026,0.014,0.04c0.057,0.164,0.19,0.419,0.242,0.51
		c0.052,0.091,0.154,0.181,0.262,0.266c0.108,0.085,0.144,0.176,0.164,0.227c0.02,0.051,0.015,0.136,0.015,0.221
		c0,0.085-0.036,0.142-0.077,0.295c-0.041,0.153-0.128,0.323-0.17,0.436c-0.041,0.113-0.092,0.164-0.139,0.21
		c-0.046,0.045-0.098,0.074-0.154,0.13c-0.056,0.057-0.041,0.062-0.051,0.108c-0.01,0.045,0.021,0.074,0.041,0.108
		c0.02,0.034,0.031,0,0.139,0.017c0.108,0.017,0.231-0.011,0.272-0.028c0.041-0.017,0.057-0.034,0.062-0.057
		c0.005-0.023,0.005-0.057,0-0.113c-0.005-0.057,0.026-0.074,0.041-0.119c0.015-0.045,0.046-0.062,0.072-0.096
		c0.026-0.034,0.02-0.057,0.02-0.108s-0.005-0.136-0.005-0.193c0-0.057,0.046-0.13,0.072-0.238c0.026-0.108,0.046-0.176,0.062-0.249
		c0.016-0.074,0.082-0.164,0.118-0.232c0.036-0.068,0.036-0.119,0.036-0.204s-0.01-0.13-0.046-0.17
		c-0.036-0.04-0.041-0.079-0.103-0.13c-0.062-0.051-0.051-0.102-0.098-0.181c-0.046-0.079-0.02-0.164-0.015-0.266
		c0.004-0.077,0.028-0.125,0.06-0.181l0.14,0c-0.051,0.091-0.066,0.174-0.077,0.232c-0.016,0.085,0,0.153,0.026,0.232
		c0.026,0.079,0.128,0.181,0.175,0.244c0.046,0.062,0.057,0.119,0.057,0.17c0,0.051,0.005,0.187-0.005,0.244
		c-0.01,0.057-0.02,0.136-0.02,0.136s-0.082,0.051-0.134,0.108c-0.051,0.057-0.026,0.079-0.041,0.142
		c-0.015,0.062-0.026,0.164-0.057,0.221c-0.031,0.057-0.041,0.13-0.057,0.181c-0.015,0.051,0.015,0.147,0.015,0.204
		c0,0.057-0.021,0.085-0.067,0.142c-0.046,0.057-0.067,0.091-0.072,0.125c-0.005,0.034,0,0.051,0.021,0.079
		c0.021,0.028,0.021,0.023-0.01,0.057c-0.031,0.034-0.067,0.085-0.129,0.136c-0.062,0.051-0.113,0.034-0.231,0.057
		c-0.118,0.023-0.098,0-0.2-0.006c-0.103-0.006-0.077-0.017-0.128-0.028c-0.051-0.011-0.036-0.051-0.051-0.113
		c-0.016-0.062,0.01-0.125,0.025-0.176c0.015-0.051,0.098-0.125,0.154-0.187c0.057-0.062,0.098-0.108,0.133-0.136
		c0.036-0.028,0.026-0.045,0.051-0.108c0.026-0.062,0.092-0.176,0.123-0.255c0.031-0.079,0.077-0.351,0.087-0.476
		c0.01-0.125-0.062-0.244-0.098-0.295c-0.036-0.051-0.169-0.13-0.231-0.176c-0.062-0.045-0.046-0.085-0.118-0.198
		c-0.072-0.113-0.098-0.244-0.123-0.312c-0.009-0.023-0.022-0.054-0.037-0.089c-0.011,0.001-0.023,0.002-0.035,0.003
		c-0.046,0.006-0.051,0.017-0.165,0.057c-0.113,0.04-0.108,0.102-0.133,0.153c-0.026,0.051-0.02,0.113-0.02,0.176
		c0,0.062,0.118,0.187,0.149,0.232c0.031,0.045,0.015,0.068-0.015,0.13c-0.031,0.062-0.057,0.068-0.103,0.113
		c-0.046,0.045-0.057,0.034-0.195,0.062c-0.139,0.028-0.288,0.04-0.416,0.074c-0.128,0.034-0.262,0.091-0.313,0.13
		c-0.051,0.04-0.051,0.04-0.077,0.051c-0.026,0.011-0.072-0.006-0.133,0c-0.062,0.006-0.046,0.034-0.057,0.074
		c-0.01,0.04-0.01,0.091-0.02,0.159c-0.01,0.068-0.041,0.102-0.087,0.142c-0.046,0.04-0.128,0.068-0.19,0.085
		c-0.062,0.017-0.144-0.017-0.185-0.023c-0.041-0.006-0.108-0.057-0.185-0.13c-0.077-0.074-0.051-0.079-0.092-0.153
		c-0.041-0.074,0.016-0.125,0.051-0.164c0.036-0.04,0.113-0.142,0.149-0.176c0.036-0.034,0.067-0.102,0.108-0.17
		c0.041-0.068,0.164-0.062,0.231-0.057c0.067,0.006,0.128-0.011,0.216-0.023c0.087-0.011,0.118-0.023,0.159-0.034
		c0.041-0.011,0.087-0.034,0.247-0.085c0.159-0.051,0.236-0.096,0.278-0.142c0.041-0.045-0.016-0.13-0.051-0.198
		c-0.036-0.068-0.128-0.13-0.185-0.198c-0.057-0.068-0.072-0.113-0.113-0.193c-0.009-0.017-0.017-0.034-0.024-0.051L25.543,10.367
		L25.543,10.367L25.543,10.367z"/>
	<path id="path14" inkscape:connector-curvature="0" class="st2" d="M21.854,7.635c-0.004,0.006-0.008,0.011-0.012,0.017
		c-0.047,0.063-0.059,0.077-0.058,0.079c0.002,0.003,0.017-0.005,0.027,0.011c0.021,0.034,0.062,0.125,0.051,0.181
		c-0.01,0.057-0.062,0.091-0.072,0.159c-0.01,0.068,0.031,0.102,0.082,0.215c0.034,0.076,0.041,0.096,0.054,0.104
		c0.006,0.004,0.014,0.005,0.028,0.009c0.038,0.01,0.196-0.008,0.222-0.011l0.02-0.046c0.012-0.032,0.029-0.076,0.046-0.113
		c0.031-0.068,0.01-0.091-0.062-0.136c-0.072-0.045-0.072-0.113-0.082-0.17c-0.01-0.057,0.051-0.125,0.051-0.125
		s0.082,0.011,0.02-0.079c-0.028-0.042-0.026-0.074-0.016-0.096l0.136,0c-0.009,0.013-0.018,0.026-0.027,0.039
		c-0.041,0.057,0.01,0.079,0,0.136c-0.01,0.057-0.062,0.079-0.072,0.125c-0.01,0.045,0.051,0.057,0.103,0.113
		c0.009,0.01,0.018,0.019,0.025,0.026l0.016-0.037c0.031-0.068,0.031-0.136,0.031-0.204s-0.051-0.125,0.01-0.181
		c0.006-0.006,0.013-0.011,0.02-0.017h0.183c-0.009,0.005-0.018,0.01-0.028,0.017c-0.072,0.045-0.103,0.068-0.103,0.147
		c0,0.079,0,0.125-0.021,0.215c-0.02,0.091-0.051,0.272-0.103,0.363c-0.051,0.091-0.072,0.227-0.134,0.329
		c-0.062,0.102-0.103,0.17-0.093,0.261c0.01,0.091,0.093,0.147,0.093,0.215c0,0.068,0,0.068-0.031,0.147
		c-0.031,0.079-0.051,0.159,0,0.249c0.051,0.091,0.062,0.159,0.103,0.17c0.041,0.011,0.051,0.023,0.103-0.068
		c0.051-0.091,0.092-0.136,0.103-0.204c0.01-0.068-0.01-0.091-0.051-0.159c-0.041-0.068-0.072-0.125-0.021-0.193
		c0.051-0.068,0.093-0.091,0.093-0.147c0-0.057-0.051-0.125-0.072-0.181c-0.021-0.057-0.051-0.136,0-0.249
		c0.051-0.113,0.113-0.306,0.144-0.408c0.031-0.102,0.031-0.17,0.103-0.215c0.072-0.045,0.092-0.057,0.154-0.011
		s0.164,0.193,0.226,0.306c0.062,0.113,0.185,0.34,0.247,0.465c0.062,0.125,0.072,0.193,0.113,0.227
		c0.041,0.034,0.062-0.011,0.144,0.023c0.082,0.034,0.288,0.159,0.38,0.238c0.093,0.079,0.257,0.193,0.38,0.329
		c0.123,0.136,0.185,0.227,0.308,0.317c0.123,0.091,0.175,0.125,0.308,0.159c0.134,0.034,0.216,0.045,0.391,0.045
		c0.175,0,0.329-0.023,0.503,0.023c0.175,0.045,0.226,0.045,0.329,0.102c0.103,0.057,0.195,0.147,0.195,0.147
		s-0.247-0.113-0.473-0.125c-0.132-0.007-0.25-0.009-0.356-0.011c-0.005,0.021-0.011,0.051-0.014,0.073
		c-0.004,0.028,0.018,0.081,0.042,0.136h-0.138c-0.026-0.06-0.044-0.114-0.068-0.159c-0.01-0.019-0.022-0.037-0.031-0.051
		c-0.154,0-0.339,0-0.473-0.045c-0.134-0.045-0.442-0.329-0.555-0.442c-0.113-0.113-0.36-0.374-0.483-0.442
		c-0.123-0.068-0.308-0.159-0.36-0.17c-0.051-0.011-0.082-0.023-0.082-0.023s-0.164-0.363-0.236-0.51
		c-0.072-0.147-0.134-0.272-0.195-0.329c-0.062-0.057-0.123-0.113-0.165-0.102c-0.041,0.011-0.072,0.125-0.103,0.193
		c-0.031,0.068-0.093,0.204-0.113,0.261c-0.021,0.057-0.062,0.079-0.021,0.17c0.041,0.091,0.082,0.181,0.072,0.238
		c-0.01,0.057-0.072,0.17-0.072,0.17s-0.01,0.079,0.01,0.125c0.02,0.045,0.113,0.125,0.082,0.181
		c-0.031,0.057-0.113,0.295-0.175,0.374c-0.062,0.079-0.103,0.113-0.144,0.125c-0.041,0.011-0.031,0-0.092-0.079
		c-0.062-0.079-0.154-0.215-0.164-0.295c-0.01-0.079-0.041-0.113,0-0.17c0.041-0.057,0.082-0.159,0.082-0.159l-0.062-0.091
		c-0.031-0.045-0.103-0.102-0.072-0.204c0.031-0.102,0.072-0.261,0.103-0.329l0.021-0.047c-0.04-0.004-0.131-0.012-0.185-0.021
		c-0.072-0.011-0.082-0.057-0.123-0.113c-0.041-0.057-0.041-0.181-0.082-0.238c-0.041-0.057-0.02-0.136,0-0.181
		c0.021-0.045,0.062-0.102,0.062-0.102s-0.051-0.079-0.072-0.147c-0.013-0.043,0.006-0.089,0.023-0.119L21.854,7.635L21.854,7.635
		L21.854,7.635z M22.989,7.635c0.043,0.028,0.086,0.057,0.126,0.083c0-0.021,0-0.047,0.001-0.077
		c-0.001-0.002-0.002-0.004-0.004-0.006l0.115,0c-0.008,0.07-0.017,0.133-0.014,0.147c0.108,0.074,0.498,0.436,0.57,0.504
		c0.072,0.068,0.082,0.102-0.021,0.057c-0.103-0.045-0.165-0.079-0.308-0.193c-0.144-0.113-0.247-0.193-0.39-0.295
		c-0.144-0.102-0.257-0.17-0.329-0.215c-0.003-0.002-0.006-0.004-0.008-0.005L22.989,7.635L22.989,7.635L22.989,7.635z M25.26,7.635
		c-0.035,0.022-0.069,0.04-0.099,0.051c-0.154,0.057-0.452,0.091-0.452,0.091s0.152-0.065,0.305-0.141L25.26,7.635L25.26,7.635
		L25.26,7.635z M26.291,7.635c-0.045,0.024-0.086,0.041-0.123,0.051c-0.082,0.023,0.02,0.102-0.051,0.17
		c-0.072,0.068-0.072,0.125-0.165,0.147l-0.009,0.002c0.019,0.013,0.043,0.028,0.066,0.037c0.051,0.023,0.108,0.011,0.226,0.006
		c0.118-0.006,0.421-0.006,0.576-0.006c0.154,0,0.175-0.011,0.36,0.017c0.185,0.028,0.283,0.102,0.452,0.21
		c0.17,0.108,0.267,0.261,0.344,0.363c0.035,0.046,0.069,0.123,0.097,0.199l0.016-0.007c0.067-0.028,0.154-0.142,0.2-0.312
		c0.046-0.17,0.082-0.385,0.067-0.471c-0.012-0.065-0.081-0.261-0.129-0.408l0.135,0c0.026,0.062,0.052,0.126,0.071,0.192
		c0.036,0.125,0.067,0.249,0.056,0.329c-0.01,0.079-0.02,0.221-0.062,0.312c-0.041,0.091-0.128,0.227-0.17,0.278
		c-0.041,0.051-0.098,0.113-0.123,0.136l-0.034,0.031l0.012,0.037c0.008,0.003,0.017,0.007,0.027,0.012
		c0.036,0.017,0.067,0.057,0.17,0.04c0.103-0.017,0.221-0.062,0.267-0.125c0.046-0.062,0.144-0.193,0.17-0.346
		c0.026-0.153,0.036-0.329,0.051-0.425c0.015-0.096,0.021-0.193,0.041-0.266c0.016-0.056,0.049-0.158,0.064-0.204l0.126,0
		c-0.028,0.108-0.088,0.465-0.093,0.561c-0.005,0.102-0.046,0.385-0.133,0.539c-0.088,0.153-0.118,0.232-0.185,0.278
		c-0.067,0.045-0.108,0.108-0.185,0.102c-0.077-0.006-0.18-0.011-0.226-0.028c-0.023-0.008-0.044-0.013-0.058-0.015
		c0.018,0.086,0.022,0.311,0.012,0.434c-0.01,0.13-0.082,0.266-0.149,0.397c-0.067,0.13-0.149,0.204-0.278,0.34
		c-0.04,0.042-0.07,0.084-0.093,0.125l-0.14,0c0.01-0.018,0.021-0.036,0.032-0.057c0.046-0.085,0.128-0.176,0.288-0.363
		c0.159-0.187,0.2-0.414,0.216-0.499c0.015-0.085-0.062-0.425-0.093-0.527c-0.031-0.102-0.118-0.244-0.2-0.351
		c-0.082-0.108-0.242-0.249-0.293-0.283c-0.051-0.034-0.118-0.074-0.169-0.085c-0.051-0.011-0.206-0.023-0.344-0.017
		c-0.139,0.006-0.426,0-0.55,0.006c-0.123,0.006-0.272-0.006-0.355-0.023c-0.082-0.017-0.077-0.045-0.134-0.079
		c-0.033-0.02-0.056-0.046-0.069-0.064c-0.05,0.008-0.103,0.022-0.168,0.058c-0.123,0.068-0.36,0.249-0.401,0.34l-0.041,0.091
		c0,0-0.031-0.102,0.031-0.215c0.062-0.113,0.103-0.181,0.257-0.261c0.154-0.079,0.391-0.136,0.442-0.181
		c0.051-0.045,0.144-0.147-0.021-0.091c-0.164,0.057-0.308,0.102-0.39,0.102c0,0,0.021-0.034,0.185-0.113
		c0.074-0.036,0.165-0.078,0.251-0.119L26.291,7.635L26.291,7.635L26.291,7.635z M28.872,7.635c-0.01,0.009-0.022,0.022-0.036,0.039
		c-0.046,0.057-0.087,0.125-0.103,0.153c-0.015,0.028-0.01,0.051-0.031,0.051c-0.02,0-0.031,0.017-0.036-0.023
		c-0.005-0.04-0.021-0.108-0.01-0.181c0.002-0.013,0.004-0.026,0.006-0.04L28.872,7.635L28.872,7.635L28.872,7.635z M26.512,10.367
		c0.008-0.002,0.015-0.004,0.022-0.006l0.008-0.002l-0.013-0.026c-0.031-0.062-0.056-0.125-0.092-0.193
		c-0.036-0.068-0.128-0.176-0.2-0.238c-0.072-0.062-0.108-0.119-0.2-0.193c-0.092-0.074-0.098-0.113-0.149-0.176
		C25.834,9.471,25.86,9.46,25.86,9.46s0.005,0.017,0.082,0.074c0.077,0.057,0.118,0.074,0.221,0.147
		c0.103,0.074,0.231,0.21,0.303,0.306c0.066,0.089,0.137,0.23,0.192,0.38H26.512L26.512,10.367z"/>
	<path id="path16" inkscape:connector-curvature="0" class="st2" d="M21.731,7.635c0.01-0.018,0.018-0.029,0.018-0.029
		s0.278-0.351,0.36-0.453c0.082-0.102,0.298-0.408,0.37-0.51c0.072-0.102,0.072-0.113,0.154-0.159
		c0.082-0.045,0.113,0.011,0.206,0.045c0.027,0.01,0.055,0.028,0.083,0.05c-0.043-0.063-0.106-0.159-0.134-0.276
		c-0.041-0.17-0.051-0.125-0.01-0.17c0.041-0.045,0.082-0.034,0.082-0.034s-0.134-0.181-0.175-0.295
		c-0.041-0.113-0.051-0.238-0.051-0.238s0.031-0.045,0.072-0.034c0.022,0.006,0.032,0.012,0.037,0.017
		c-0.02-0.031-0.111-0.174-0.13-0.255c-0.021-0.091-0.041-0.113,0.01-0.125c0.051-0.011,0.113-0.023,0.113-0.023
		s-0.175-0.329-0.206-0.431c-0.031-0.102-0.041-0.125-0.021-0.17c0.021-0.045,0-0.057,0.072-0.034
		c0.072,0.023,0.154,0.068,0.154,0.068s-0.175-0.261-0.247-0.408c-0.072-0.147-0.134-0.215-0.164-0.329
		c-0.031-0.113-0.051-0.159-0.051-0.159s0.02-0.045,0.082-0.045c0.062,0,0.144,0.011,0.144,0.011s-0.308-0.453-0.391-0.624
		c-0.082-0.17-0.144-0.261-0.113-0.317c0.031-0.057,0.113-0.034,0.113-0.034l0.041,0.011c0,0-0.288-0.408-0.339-0.499
		c-0.051-0.091-0.062-0.113-0.041-0.17c0.021-0.057,0.062-0.057,0.103-0.068c0.041-0.011,0.082,0,0.082,0s-0.247-0.204-0.288-0.295
		c-0.041-0.091-0.051-0.113-0.051-0.159c0-0.045-0.021-0.068,0.051-0.068s0.164,0.011,0.236,0.045
		c0.072,0.034,0.175,0.079,0.175,0.079s-0.267-0.329-0.37-0.453c-0.103-0.125-0.195-0.227-0.257-0.306
		c-0.062-0.079-0.113-0.136-0.072-0.193c0.041-0.057,0.01-0.091,0.175-0.045c0.164,0.045,0.565,0.272,0.73,0.408
		c0.164,0.136,0.576,0.567,0.668,0.68c0.092,0.113,0.411,0.544,0.504,0.703c0.093,0.159,0.421,0.759,0.504,0.986
		c0.082,0.227,0.206,0.533,0.236,0.657c0.017,0.07,0.028,0.129,0.034,0.168c0.036,0.006,0.073,0.016,0.11,0.031
		c0.185,0.074,0.504,0.289,0.581,0.425c0.056,0.099,0.231,0.295,0.288,0.453c0.057,0.159,0.2,0.669,0.2,0.85
		c0,0.181,0.005,0.55-0.056,0.742c-0.062,0.193-0.108,0.261-0.123,0.312c-0.007,0.024-0.014,0.043-0.02,0.058
		c0.003,0.03,0.007,0.053,0.01,0.067c0.015,0.074,0.036,0.159,0.067,0.227c0.017,0.038,0.042,0.076,0.061,0.102
		c0.141-0.133,0.352-0.387,0.371-0.668c0.021-0.317,0-1.054-0.113-1.644c-0.113-0.589-0.072-0.635-0.051-0.873
		c0.02-0.238,0.133-0.809,0.277-1.066c0.236-0.419,0.709-1.009,1.038-1.304c0.329-0.295,0.904-0.714,1.202-0.884
		c0.298-0.17,0.935-0.51,1.295-0.635c0.36-0.125,0.925-0.295,1.202-0.329c0.278-0.034,0.473-0.057,0.35,0.125
		c-0.123,0.181-0.35,0.397-0.452,0.476c-0.103,0.079-0.267,0.238-0.267,0.238s0.144-0.068,0.247-0.023
		c0.103,0.045,0.144,0.113,0.031,0.283c-0.113,0.17-0.298,0.385-0.411,0.487c-0.113,0.102-0.185,0.181-0.185,0.181
		s0.165-0.011,0.216,0.034c0.051,0.045,0.103,0.125-0.051,0.295c-0.154,0.17-0.411,0.363-0.504,0.431s-0.113,0.091-0.113,0.091
		s0.123,0.113,0.041,0.215c-0.082,0.102-0.195,0.249-0.36,0.351c-0.164,0.102-0.267,0.17-0.267,0.17s0.062,0.125-0.082,0.283
		c-0.144,0.159-0.442,0.442-0.442,0.442s0.144,0.147,0.041,0.272s-0.401,0.408-0.401,0.408s0.062,0.125-0.051,0.261l-0.226,0.272
		c0,0,0.134,0.068,0.113,0.136c-0.02,0.068-0.113,0.238-0.205,0.329c-0.093,0.091-0.144,0.147-0.144,0.147s0.093,0.079-0.01,0.204
		c-0.103,0.125-0.206,0.204-0.206,0.204s0.02,0.125-0.093,0.215c-0.113,0.091-0.144,0.113-0.144,0.113s0.041,0.079-0.072,0.17
		c-0.113,0.091-0.092,0.079-0.092,0.079s0.062,0.079,0.01,0.136c-0.052,0.057-0.175,0.181-0.309,0.238c0,0,0.072,0.136-0.051,0.227
		c-0.068,0.05-0.13,0.09-0.186,0.119l-0.324,0c0.105-0.049,0.202-0.094,0.253-0.119c0.093-0.045,0.308-0.215,0.072-0.159
		c-0.236,0.057-0.37,0.113-0.421,0.136c-0.051,0.023-0.041-0.045,0.01-0.079c0.051-0.034,0.103-0.045,0.267-0.113
		c0.165-0.068,0.432-0.17,0.514-0.215c0.082-0.045,0.154-0.17-0.062-0.079c-0.216,0.091-0.288,0.136-0.339,0.159
		c-0.052,0.023-0.165,0-0.062-0.045c0.103-0.045,0.39-0.193,0.473-0.238c0.082-0.045,0.308-0.227,0.134-0.159
		c-0.175,0.068-0.298,0.113-0.36,0.136c-0.062,0.023-0.175,0.023-0.041-0.034c0.134-0.057,0.452-0.227,0.555-0.295
		c0.103-0.068,0.247-0.227,0.093-0.181c-0.154,0.045-0.277,0.113-0.421,0.193c-0.144,0.079-0.123,0.102-0.165,0.091
		c-0.041-0.011-0.051-0.023,0.041-0.091c0.093-0.068,0.164-0.136,0.339-0.204c0.175-0.068,0.288-0.102,0.37-0.159
		c0.082-0.057,0.226-0.215,0.041-0.159c-0.185,0.057-0.463,0.204-0.565,0.261c-0.103,0.057-0.123,0.057-0.123,0.057
		s0.062-0.091,0.195-0.17c0.134-0.079,0.185-0.147,0.421-0.272c0.236-0.125,0.308-0.193,0.391-0.272
		c0.082-0.079,0.113-0.238-0.02-0.193c-0.134,0.045-0.339,0.181-0.442,0.25c-0.103,0.068-0.257,0.193-0.308,0.249
		c-0.052,0.057-0.113,0.125-0.113,0.079c0-0.045,0.021-0.079,0.092-0.147c0.072-0.068,0.411-0.329,0.534-0.431
		c0.123-0.102,0.298-0.215,0.391-0.317c0.093-0.102,0.195-0.249,0.093-0.238c-0.103,0.011-0.195,0.079-0.308,0.147
		c-0.113,0.068-0.36,0.261-0.411,0.329c-0.051,0.068-0.154,0.193-0.165,0.147c-0.01-0.045,0.051-0.136,0.216-0.272
		c0.165-0.136,0.319-0.295,0.473-0.397c0.154-0.102,0.236-0.17,0.401-0.306c0.164-0.136,0.226-0.17,0.236-0.227
		c0.01-0.057,0.01-0.079-0.051-0.068c-0.062,0.011-0.133,0.023-0.288,0.113c-0.154,0.091-0.432,0.283-0.514,0.34
		c-0.082,0.057-0.257,0.181-0.319,0.204c-0.062,0.023-0.092,0.023-0.072-0.023c0.02-0.045,0.123-0.068,0.236-0.159
		c0.113-0.091,0.596-0.453,0.822-0.589c0.226-0.136,0.421-0.306,0.514-0.397c0.092-0.091,0.247-0.295,0.113-0.295
		c-0.133,0-0.123,0.011-0.226,0.057c-0.103,0.045-0.658,0.374-0.781,0.453c-0.123,0.079-0.288,0.204-0.329,0.215
		c-0.041,0.011-0.092-0.023,0.01-0.079c0.103-0.057,0.771-0.499,0.946-0.589c0.175-0.091,0.576-0.295,0.73-0.374
		c0.154-0.079,0.329-0.215,0.349-0.272c0.021-0.057-0.01-0.147-0.113-0.113c-0.103,0.034-0.74,0.295-1.017,0.476
		c-0.277,0.181-0.391,0.193-0.504,0.261c-0.113,0.068-0.175,0.147-0.216,0.102c-0.041-0.045-0.072-0.011,0.082-0.102
		c0.154-0.091,0.946-0.542,1.11-0.623c0.298-0.147,0.514-0.272,0.74-0.397c0.226-0.125,0.524-0.408,0.545-0.465
		c0.02-0.057,0.01-0.136-0.103-0.113c-0.113,0.023-0.236,0.068-0.411,0.159c-0.175,0.091-0.883,0.492-0.997,0.578
		c-0.165,0.125-0.648,0.408-0.689,0.442c-0.041,0.034-0.11,0.023-0.021-0.057c0.154-0.136,0.719-0.453,0.833-0.521
		c0.113-0.068,0.771-0.499,0.925-0.612c0.154-0.113,0.75-0.635,0.802-0.737c0.051-0.102,0.092-0.204-0.01-0.181
		c-0.103,0.023-0.483,0.136-0.576,0.204c-0.092,0.068-0.822,0.533-0.976,0.646c-0.154,0.113-0.432,0.295-0.545,0.385l-0.226,0.181
		c0,0,0.126-0.151,0.257-0.272c0.185-0.17,1.244-0.929,1.511-1.111c0.267-0.181,0.76-0.589,0.853-0.657
		c0.092-0.068,0.288-0.238,0.164-0.204c-0.123,0.034-0.966,0.238-1.172,0.295c-0.206,0.057-0.678,0.249-0.925,0.385
		c-0.247,0.136-0.956,0.544-1.264,0.805c-0.308,0.261-0.401,0.351-0.647,0.589c-0.247,0.238-0.637,0.703-0.771,0.952
		c-0.134,0.249-0.278,0.782-0.308,1.065c-0.031,0.283-0.041,0.703,0.01,0.986c0.051,0.283,0.135,0.862,0.144,1.168
		c0.01,0.334-0.062,0.737-0.185,0.895c-0.099,0.128-0.279,0.3-0.425,0.391l-0.246,0c0.094-0.046,0.188-0.097,0.249-0.141
		c-0.038-0.065-0.102-0.183-0.133-0.302c-0.046-0.176-0.093-0.215-0.093-0.442c0-0.227-0.015-0.714-0.01-0.89
		c0.005-0.176-0.026-0.397-0.082-0.578c-0.057-0.181-0.205-0.419-0.293-0.51c-0.087-0.091-0.267-0.244-0.38-0.306
		c-0.113-0.062-0.17-0.085-0.17-0.085s-0.031-0.023,0.02-0.023c0.051,0,0.139,0.006,0.216,0.051
		c0.077,0.045,0.236,0.136,0.298,0.198c0.062,0.062,0.252,0.283,0.288,0.368c0.036,0.085,0.103,0.187,0.144,0.363
		c0.041,0.176,0.077,0.459,0.077,0.657c0,0.198,0.021,0.448,0.026,0.561c0.002,0.037,0.006,0.099,0.01,0.169
		c0.008-0.015,0.017-0.033,0.026-0.056c0.026-0.068,0.087-0.306,0.098-0.448c0.01-0.142,0.005-0.408-0.036-0.601
		c-0.041-0.193-0.113-0.442-0.201-0.601c-0.087-0.159-0.175-0.312-0.288-0.419c-0.113-0.108-0.267-0.238-0.385-0.278
		c-0.118-0.04-0.247-0.079-0.313-0.079c-0.044,0-0.081,0.003-0.102,0.004c0.003,0.042-0.002,0.112-0.006,0.149
		c-0.005,0.04-0.021,0.068-0.021,0.068s-0.036,0.006-0.036-0.017s0.016-0.113-0.005-0.164c-0.021-0.051-0.072-0.119-0.092-0.142
		c-0.021-0.023-0.062-0.057-0.062-0.057v0.079c0,0.045-0.01,0.068,0.01,0.102c0.02,0.034,0.02,0.068,0.02,0.096
		c0,0.028-0.015,0.079-0.015,0.079s-0.062-0.055-0.094-0.126c-0.011,0.004-0.024,0.01-0.034,0.018
		c-0.031,0.023-0.046,0.028-0.067,0.079c-0.021,0.051-0.031,0.091-0.036,0.119c-0.005,0.028-0.021,0.04-0.072,0.062
		c-0.051,0.023-0.072,0.023-0.103,0.068c-0.031,0.045-0.062,0.085-0.077,0.153c-0.015,0.068-0.036,0.119-0.015,0.198
		c0.02,0.079,0.046,0.108,0.046,0.204c0,0.096,0.005,0.198-0.005,0.283c-0.01,0.085-0.026,0.204-0.046,0.249
		c-0.02,0.045-0.077,0.113-0.098,0.142c-0.02,0.028-0.02,0.04,0,0.068c0.021,0.028,0.046,0.062,0.082,0.091
		c0.036,0.028,0.067,0.062,0.087,0.074c0.021,0.011,0.01,0.051,0.01,0.051s-0.077,0-0.139-0.057
		c-0.062-0.057-0.092-0.091-0.113-0.136c-0.02-0.045-0.041-0.079-0.01-0.108c0.031-0.028,0.072-0.068,0.087-0.108
		c0.015-0.04,0.041-0.181,0.046-0.306c0.005-0.125,0.031-0.136,0.01-0.204c-0.021-0.068-0.082-0.136-0.077-0.232
		c0.005-0.096,0.026-0.198,0.062-0.295c0.036-0.096,0.036-0.136,0.098-0.176c0.062-0.04,0.113-0.068,0.144-0.091
		c0.031-0.023,0.036-0.062,0.036-0.062s-0.082-0.034-0.113-0.096c-0.031-0.062-0.077-0.091-0.082-0.164
		c-0.005-0.074-0.015-0.102-0.015-0.102s0.01-0.028,0.072-0.006c0.062,0.023,0.087,0.028,0.144,0.085
		c0.056,0.057,0.082,0.113,0.103,0.13c0.02,0.017,0.046,0.017,0.046,0.017l0.013-0.002c-0.001-0.007-0.002-0.013-0.002-0.02
		c-0.005-0.102-0.015-0.181,0.01-0.232c0.026-0.051,0.031-0.079,0.051-0.102c0.021-0.023,0.051-0.045,0.062-0.017
		c0.01,0.028-0.005,0.04,0.031,0.096c0.036,0.057,0.046,0.051,0.087,0.102c0.018,0.022,0.033,0.045,0.046,0.067
		c0.022-0.004,0.114-0.02,0.224-0.009c-0.072-0.185-0.433-1.096-0.645-1.452c-0.236-0.397-0.719-1.1-1.007-1.372
		c-0.288-0.272-0.586-0.533-0.771-0.601c-0.185-0.068-0.226-0.102-0.226-0.034c0,0.068-0.01,0.011,0.093,0.125
		c0.103,0.113,0.421,0.487,0.606,0.703c0.185,0.215,0.863,1.156,0.884,1.224c0.021,0.068-0.01,0.091-0.051,0.011
		c-0.041-0.079-0.39-0.567-0.504-0.68c-0.113-0.113-0.349-0.329-0.514-0.431c-0.165-0.102-0.226-0.125-0.288-0.125
		c-0.03,0-0.043-0.005-0.044-0.003c-0.001,0.002,0.012,0.013,0.033,0.049c0.041,0.068,0.195,0.227,0.319,0.363
		c0.123,0.136,0.206,0.227,0.36,0.419c0.154,0.193,0.524,0.635,0.627,0.794c0.103,0.159,0.165,0.238,0.123,0.215
		c-0.041-0.023-0.175-0.249-0.247-0.329c-0.072-0.079-0.329-0.397-0.432-0.51c-0.103-0.113-0.206-0.227-0.339-0.329
		c-0.134-0.102-0.164-0.113-0.206-0.102c-0.041,0.011-0.031,0.023,0,0.079c0.031,0.057,0.257,0.397,0.36,0.533
		c0.103,0.136,0.38,0.487,0.473,0.635c0.092,0.147,0.349,0.476,0.349,0.476s-0.021,0.079-0.062,0.011
		c-0.041-0.068-0.278-0.374-0.411-0.544c-0.134-0.17-0.267-0.317-0.36-0.397C22.201,2.8,22.17,2.778,22.15,2.823
		c-0.021,0.045-0.041,0.034,0.031,0.125c0.072,0.091,0.452,0.737,0.524,0.839c0.072,0.102,0.411,0.657,0.411,0.657
		s0,0.034-0.062-0.045c-0.062-0.079-0.257-0.317-0.329-0.408c-0.072-0.091-0.154-0.159-0.236-0.204
		c-0.082-0.045-0.093-0.011-0.041,0.079c0.051,0.091,0.391,0.737,0.473,0.839c0.082,0.102,0.185,0.261,0.185,0.261
		s-0.01,0.068-0.062,0c-0.051-0.068-0.051-0.057-0.164-0.17c-0.113-0.113-0.154-0.159-0.216-0.17
		c-0.062-0.011-0.072-0.023-0.041,0.057c0.031,0.079,0.092,0.272,0.164,0.374c0.072,0.102,0.247,0.442,0.247,0.442
		s0.01,0.068-0.082-0.057c-0.092-0.125-0.164-0.204-0.206-0.17c-0.041,0.034,0.01,0.113,0.051,0.181
		c0.041,0.068,0.195,0.408,0.195,0.408s-0.031,0-0.082-0.068c-0.051-0.068-0.154-0.136-0.154-0.136s-0.02,0.068,0.031,0.147
		c0.051,0.079,0.206,0.363,0.236,0.431c0.031,0.068,0.103,0.204,0.103,0.204s-0.01,0.034-0.092-0.068
		c-0.082-0.102-0.123-0.147-0.164-0.136c-0.041,0.011-0.01,0.068,0.021,0.136c0.028,0.061,0.121,0.258,0.14,0.299
		c0.036,0.029,0.075,0.056,0.117,0.075c0.087,0.04,0.204,0.074,0.266,0.091c0.032-0.064,0.051-0.112,0.104-0.193
		c0.082-0.125,0.118-0.17,0.159-0.238c0.041-0.068,0.139-0.232,0.17-0.334c0.031-0.102,0.077-0.238,0.093-0.312
		c0.015-0.074,0.026-0.102,0.026-0.102S24,5.714,23.99,5.799c-0.01,0.085-0.021,0.198-0.082,0.351
		c-0.062,0.153-0.062,0.176-0.134,0.283c-0.072,0.108-0.149,0.232-0.221,0.351c-0.072,0.119-0.128,0.255-0.18,0.351
		c-0.051,0.096-0.128,0.272-0.134,0.374c-0.002,0.038-0.007,0.083-0.012,0.125h-0.115c-0.031-0.052-0.069-0.114-0.1-0.153
		c-0.062-0.079-0.134-0.193-0.216-0.261c-0.082-0.068-0.082-0.034-0.123,0c-0.041,0.034-0.123,0.125-0.236,0.238
		c-0.086,0.087-0.119,0.134-0.148,0.176h-0.136c0.012-0.027,0.036-0.04,0.036-0.04s0.123-0.159,0.205-0.249
		c0.082-0.091,0.195-0.215,0.278-0.283c0.082-0.068,0.154,0,0.216,0.068c0.042,0.047,0.168,0.233,0.242,0.345
		c0.006-0.038,0.014-0.075,0.025-0.107c0.051-0.147,0.092-0.261,0.185-0.408l0.01-0.016c-0.013-0.008-0.033-0.019-0.061-0.029
		c-0.062-0.023-0.206-0.102-0.308-0.147c-0.103-0.045-0.206-0.147-0.267-0.181c-0.062-0.034-0.062,0-0.113,0.023
		c-0.051,0.023-0.072,0.113-0.113,0.181c-0.041,0.068-0.195,0.283-0.308,0.408c-0.108,0.119-0.235,0.311-0.327,0.437L21.731,7.635
		L21.731,7.635L21.731,7.635z M22.396,7.635c0.06-0.047,0.14-0.077,0.186-0.108c0.051-0.034,0.113-0.057,0.226,0
		c0.05,0.025,0.115,0.065,0.181,0.108l-0.262,0c-0.057-0.033-0.095-0.029-0.148,0L22.396,7.635L22.396,7.635L22.396,7.635z
		 M28.218,7.635c-0.015-0.044-0.027-0.083-0.035-0.114c-0.036-0.13-0.108-0.227-0.098-0.38c0.01-0.153,0.005-0.238,0.072-0.351
		c0.067-0.113,0.118-0.198,0.236-0.357c0.118-0.159,0.164-0.238,0.205-0.317c0.041-0.079,0.041-0.091,0.046-0.181
		c0.005-0.091-0.005-0.119,0.041-0.215c0.046-0.096,0.031-0.102,0.128-0.232c0.098-0.13,0.18-0.238,0.257-0.278
		c0.077-0.04,0.175-0.074,0.144,0.017c-0.031,0.091-0.077,0.181-0.087,0.249c-0.01,0.068-0.026,0.136-0.021,0.164
		c0.005,0.028,0.005,0.034,0.005,0.034s0-0.034,0.072-0.085c0.072-0.051,0.154-0.085,0.206-0.102
		c0.051-0.017,0.103-0.011,0.128-0.011c0.026,0,0.067,0.011,0.026,0.04c-0.041,0.028-0.072,0.051-0.118,0.108
		c-0.046,0.057-0.123,0.153-0.139,0.215c-0.015,0.062-0.015,0.091-0.015,0.091s0.02-0.006,0.077-0.011
		c0.057-0.006,0.134-0.006,0.185,0.006c0.051,0.011,0.072,0.023,0.093,0.045c0.02,0.023,0.015,0.034-0.021,0.057
		c-0.036,0.023-0.103,0.074-0.128,0.108c-0.026,0.034-0.056,0.091-0.082,0.136c-0.026,0.045-0.046,0.113-0.077,0.142
		c-0.031,0.028-0.051,0.062-0.092,0.125c-0.041,0.062-0.123,0.102-0.175,0.136C29,6.705,28.954,6.717,28.912,6.779
		c-0.041,0.062-0.077,0.113-0.087,0.159c-0.01,0.045-0.015,0.085-0.015,0.085S28.825,7,28.866,6.949
		c0.041-0.051,0.031-0.062,0.103-0.108c0.072-0.045,0.077-0.057,0.144-0.062c0.067-0.006,0.067,0.006,0.128-0.023
		c0.062-0.028,0.067-0.045,0.098-0.074c0.031-0.028,0.072-0.074,0.067-0.017c-0.005,0.057-0.01,0.17-0.036,0.249
		c-0.026,0.079-0.067,0.181-0.103,0.221c-0.036,0.04-0.133,0.113-0.195,0.153c-0.062,0.04-0.139,0.091-0.185,0.136
		C28.84,7.471,28.82,7.516,28.82,7.516s0.041-0.028,0.103-0.062c0.062-0.034,0.113-0.068,0.159-0.085
		c0.046-0.017,0.108-0.051,0.062,0.017c-0.046,0.068-0.092,0.153-0.118,0.232c-0.002,0.005-0.003,0.011-0.005,0.017h-0.126
		c0.005-0.014,0.008-0.023,0.008-0.023s-0.01,0.003-0.031,0.023l-0.21,0c0.011-0.066,0.031-0.14,0.061-0.187
		c0.036-0.057,0.072-0.119,0.134-0.193c0.056-0.067,0.103-0.074,0.185-0.119c0.082-0.045,0.093-0.062,0.128-0.102
		c0.036-0.04,0.057-0.102,0.057-0.102s-0.015-0.023-0.046-0.011c-0.031,0.011-0.077,0.011-0.123,0.04
		c-0.046,0.028-0.113,0.045-0.17,0.13s-0.118,0.147-0.134,0.181c-0.015,0.034-0.031,0.074-0.031,0.074l-0.02,0.011
		c0,0-0.005-0.034-0.005-0.079c0-0.045-0.015-0.125-0.005-0.187c0.01-0.062,0.026-0.238,0.062-0.3
		c0.036-0.062,0.113-0.227,0.195-0.272c0.082-0.045,0.175-0.108,0.236-0.164c0.062-0.057,0.093-0.102,0.139-0.164
		c0.046-0.062,0.067-0.085,0.082-0.113c0.015-0.028,0.01-0.068-0.031-0.051c-0.041,0.017-0.082,0.028-0.113,0.068
		c-0.031,0.04-0.087,0.102-0.087,0.102l-0.031,0.023c0,0-0.01,0.011-0.005-0.057c0.005-0.068,0-0.181,0.015-0.238
		s0.041-0.13,0.067-0.164c0.026-0.034,0.046-0.074,0.046-0.074s0.005-0.034-0.02-0.011c-0.026,0.023-0.077,0.057-0.108,0.108
		c-0.031,0.051-0.103,0.153-0.113,0.176c-0.01,0.023-0.036,0.028-0.036,0.028s-0.02,0.006-0.02-0.028c0-0.034-0.021-0.023-0.01-0.13
		c0.01-0.108,0.01-0.17,0.02-0.227c0.01-0.057,0.029-0.127,0.01-0.113c-0.015,0.011-0.01-0.006-0.057,0.068
		c-0.046,0.074-0.103,0.125-0.128,0.21c-0.026,0.085-0.041,0.096-0.056,0.181c-0.015,0.085,0,0.113-0.041,0.21
		c-0.041,0.096-0.067,0.142-0.113,0.198c-0.046,0.057-0.046,0.085-0.128,0.187c-0.082,0.102-0.098,0.119-0.139,0.204
		c-0.041,0.085-0.072,0.113-0.103,0.221c-0.022,0.076-0.015,0.102,0,0.227c0.015,0.125,0.031,0.176,0.067,0.283
		c0.017,0.051,0.039,0.104,0.062,0.159L28.218,7.635L28.218,7.635L28.218,7.635z M23.38,4.14c0,0,0.004,0.036,0.012,0.058
		c0.01,0.005,0.019,0.011,0.024,0.017l0.09,0.098l0.028,0.035l0.025-0.037l-0.033-0.042l-0.089-0.098
		C23.423,4.155,23.38,4.14,23.38,4.14L23.38,4.14z M23.527,5.043c0.009-0.03,0.023-0.054,0.046-0.064
		c0.024-0.01,0.033-0.016,0.061-0.016c0.028,0,0.052,0.01,0.071,0.021c0.019,0.01,0.033,0.036,0.009,0.036
		c-0.011,0-0.027-0.001-0.044-0.001l0.015,0.008c0.009,0.005,0.018,0.014,0.021,0.022c0.025-0.011,0.038,0.003,0.051,0.003
		c0.014,0-0.005,0.026-0.023,0.036l-0.008,0.004c0.004,0.001,0.007,0.002,0.011,0.002c0.014,0-0.005,0.026-0.024,0.036
		c-0.019,0.01-0.042,0.031-0.071,0.047c-0.028,0.016-0.028,0.021-0.071,0.016c-0.042-0.005-0.047-0.031-0.047-0.031
		s0.014-0.014,0.031-0.026c-0.009-0.008-0.011-0.017-0.011-0.017s0.032-0.031,0.056-0.042c0.016-0.007,0.042-0.009,0.066-0.015
		c-0.025-0.001-0.056,0-0.073,0.011c-0.024,0.016-0.065,0.036-0.065,0.036l-0.033,0.026c0,0,0-0.016,0.009-0.047
		C23.511,5.072,23.518,5.055,23.527,5.043C23.527,5.043,23.527,5.043,23.527,5.043z M23.526,6.088l-0.019-0.003
		c-0.013,0.024-0.001,0.046-0.001,0.046s-0.033-0.005-0.052-0.01c-0.019-0.005-0.019-0.026-0.024-0.057
		c-0.005-0.031,0-0.036,0.019-0.062c0-0.016,0.006-0.024,0.02-0.043c0.019-0.026,0.066-0.021,0.094-0.026
		c0.028-0.005,0.065,0.052,0.065,0.052S23.62,5.995,23.587,6c0.013,0.013,0.022,0.028,0.022,0.028s-0.009,0.01-0.042,0.016
		c-0.026,0.004-0.034,0.008-0.046,0.022C23.521,6.078,23.526,6.088,23.526,6.088L23.526,6.088L23.526,6.088z M23.434,6.173h0.072
		c0.062,0,0.092,0.006,0.134-0.023c0.024-0.017,0.047-0.032,0.063-0.054c0.002-0.005,0.003-0.01,0.004-0.016
		c0.01-0.062,0.015-0.221,0.036-0.3c0.018-0.071,0.008-0.119,0.038-0.153c0.005-0.022,0.013-0.04,0.033-0.055
		c0.017-0.012,0.027-0.024,0.036-0.034c-0.005,0.004-0.012,0.006-0.025,0.009c-0.036,0.006-0.057,0-0.057,0s0.009-0.054,0.033-0.089
		c0.009-0.026,0.023-0.055,0.044-0.067c0.041-0.023,0.072-0.023,0.123-0.034c0.051-0.011,0.077-0.011,0.103-0.045
		c0.026-0.034,0.067-0.085,0.098-0.13c0.031-0.045,0.041-0.062,0.072-0.068c0.031-0.006,0.082,0.006,0.082,0.006
		s0.02,0.028-0.01,0.04l-0.01,0.004c0,0,0.021,0.028-0.01,0.04c-0.031,0.011-0.057,0.006-0.087,0.057
		c-0.031,0.051-0.061,0.142-0.098,0.176c-0.036,0.034-0.02,0.057-0.082,0.062c-0.059,0.005-0.09-0.01-0.129,0.009
		c0.046-0.007,0.108-0.007,0.108-0.007S24.02,5.521,24,5.544l-0.01,0.011c0.001,0.008,0,0.02-0.01,0.031
		c-0.02,0.023-0.026,0.034-0.072,0.068c-0.028,0.021-0.054,0.041-0.071,0.064c-0.006,0.052-0.011,0.154-0.011,0.193
		c0,0.04-0.005,0.108-0.005,0.159c0,0.042,0.007,0.061-0.02,0.093c-0.002,0.02-0.011,0.037-0.041,0.064
		c-0.051,0.045-0.062,0.068-0.144,0.062c-0.082-0.006-0.128-0.011-0.164-0.023c-0.036-0.011-0.036-0.051-0.036-0.051h0.041
		C23.434,6.2,23.434,6.173,23.434,6.173L23.434,6.173L23.434,6.173z"/>
	<path id="path18" inkscape:connector-curvature="0" class="st2" d="M3.329,15.87l-0.625,1.554c0,0,0.355,0.045,0.612-0.103
		c0.15-0.087,0.397-0.295,0.487-0.545c0.069-0.19,0.158-0.46,0.025-0.667c-0.103-0.16-0.157-0.206-0.346-0.242
		C3.389,15.85,3.329,15.87,3.329,15.87L3.329,15.87L3.329,15.87z M4.797,15.398c0,0,0.498,0.16,0.567,0.76
		c0.069,0.6-0.241,1.207-0.709,1.451c-0.468,0.244-0.774,0.302-1.128,0.309L2.5,17.938l-0.546,1.317c0,0,0.227,0.205-0.007,0.301
		l-1.699,0.033c0,0-0.071-0.038-0.026-0.13c0.046-0.092,1.444-3.464,1.444-3.464s0.152-0.108,0.008-0.235
		c0,0-0.167-0.088-0.179-0.101c-0.061-0.065,0.056-0.197,0.056-0.197L4.797,15.398C4.797,15.398,4.797,15.398,4.797,15.398z"/>
	<path id="path20" inkscape:connector-curvature="0" class="st2" d="M14.224,17.213l0.729-0.014l-0.201-0.816L14.224,17.213
		L14.224,17.213z M13.926,17.687c0,0-0.86,1.397-0.917,1.489c-0.057,0.092-0.022,0.092-0.022,0.092
		c0.131,0.115-0.045,0.131-0.045,0.131l-0.682,0.013c-0.094-0.024-0.037-0.13,0.032-0.183c0.07-0.053,0.15-0.211,0.15-0.211
		l2.294-3.716c0,0,1.293-0.038,1.364-0.026c0.071,0.012,0.073,0.129,0.038,0.195c-0.034,0.066-0.01,0.104-0.01,0.104
		s0.782,3.331,0.818,3.409c0.037,0.077,0.002,0.091,0.108,0.128c0.106,0.037,0.072,0.116,0.072,0.116
		c0.057-0.079,0.203,0.217,0.251,0.282c0.048,0.064,0.249,0.099,0.39,0.136c0.142,0.036,0.435,0.018,0.715-0.157
		c0.28-0.175,0.24-0.421,0.131-0.666c-0.11-0.245-0.671-0.794-0.828-1.065c-0.157-0.27-0.415-0.982-0.108-1.625
		c0.307-0.644,0.553-0.714,1.091-0.932c0.538-0.219,0.904-0.096,1.152-0.048c0.248,0.047,0.45,0.161,0.591,0.21
		c0.142,0.049,0.13,0.05,0.261,0.125s0.039,0.22,0.039,0.22s-0.078,0.262-0.123,0.38c-0.045,0.118-0.033,0.157-0.115,0.145
		c-0.083-0.011-0.046,0.053-0.203-0.205c-0.157-0.257-0.419-0.461-0.96-0.45c-0.541,0.01-0.606,0.376-0.589,0.662
		c0.016,0.286,0.449,0.851,0.677,1.159c0.228,0.308,0.47,0.707,0.522,1.006c0.052,0.298-0.049,0.639-0.268,0.93
		c-0.219,0.291-0.756,0.522-0.967,0.592c-0.21,0.069-0.798,0.119-0.951,0.11c-0.153-0.01-0.425-0.096-0.508-0.12
		c-0.083-0.024-0.353,0.007-0.459-0.004c-0.106-0.011-0.05-0.207-0.05-0.207l0.182-0.368l-1.67,0.032
		c-0.083-0.024-0.037-0.129,0.032-0.235c0.069-0.105,0.031-0.261,0.031-0.261l-0.313-1.205L13.926,17.687L13.926,17.687
		L13.926,17.687z"/>
	<path id="path22" inkscape:connector-curvature="0" class="st2" d="M5.805,15.447c0,0-0.154,0.162-0.081,0.214
		c0.073,0.052,0.229,0.062,0.16,0.223c-0.069,0.161-1.551,3.63-1.551,3.63s-0.034,0.107,0.098,0.104
		c0.132-0.003,3.659-0.071,3.659-0.071s0.237-0.204,0.257-0.417c0.021-0.213,0.066-0.4-0.185-0.289c0,0-0.061,0.11-0.105,0.161
		c-0.012,0.013-1.896,0.037-1.896,0.037l0.683-1.581l1.02-0.02c0,0,0.072,0.012,0.085,0.091c0.013,0.079,0.039,0.185,0.123,0.184
		c0.084-0.002,0.167-0.096,0.211-0.31c0.045-0.213,0.099-0.547-0.114-0.41c0,0-0.022,0.133-0.13,0.135
		c-0.108,0.002-1.068,0.02-1.068,0.02l0.555-1.353l1.188-0.023c0,0,0.036-0.027,0.109,0.051c0,0,0.122,0.104,0.18-0.004
		c0.058-0.107,0.128-0.242,0.128-0.242s0.105-0.188-0.111-0.197c-0.216-0.009-2.928,0.057-2.928,0.057L5.805,15.447L5.805,15.447
		L5.805,15.447z"/>
	<path id="path24" inkscape:connector-curvature="0" class="st2" d="M11.32,17.269l1.517-0.029c0,0,0.155,0.114,0.004,0.273
		c0,0-0.163,0.12-0.208,0.212c-0.046,0.092-0.225,0.655-0.247,0.734c-0.022,0.079-0.12,0.601-0.27,0.786
		c-0.15,0.185-0.126,0.185-0.126,0.185l-0.894,0.017c0,0,0.044-0.209-0.178-0.101c-0.222,0.108-0.607,0.272-0.831,0.276
		c-0.223,0.004-0.719-0.129-0.898-0.243c-0.178-0.114-0.465-0.382-0.575-0.666c-0.11-0.284-0.154-0.843,0.118-1.448
		c0.273-0.604,0.709-1.277,1.315-1.614c0.606-0.337,1.063-0.463,1.581-0.447c0.518,0.016,0.706,0.025,0.931,0.099
		c0.225,0.074,0.296,0.111,0.414,0.122c0.118,0.011,0.258-0.057,0.191,0.166c-0.067,0.223-0.264,0.435-0.322,0.436
		c-0.059,0.001-0.047,0.027-0.118-0.05c-0.072-0.077-0.276-0.346-0.465-0.382c-0.189-0.035-0.624-0.04-0.916,0.096
		c-0.292,0.136-0.71,0.482-0.963,0.865c-0.253,0.383-0.503,0.895-0.569,1.235c-0.065,0.34-0.152,0.784,0.016,1.002
		c0.168,0.218,0.45,0.213,0.568,0.184c0.117-0.028,0.536-0.284,0.697-0.534c0.161-0.251,0.308-0.618,0.342-0.697
		c0.034-0.079,0.021-0.143-0.027-0.195c-0.048-0.051-0.119-0.102-0.12-0.154C11.286,17.348,11.32,17.269,11.32,17.269L11.32,17.269z
		"/>
	<path id="path26" inkscape:connector-curvature="0" class="st2" d="M21.464,15.348l1.504-0.029c0,0,0.235,0.045,0.004,0.259
		c0,0-0.056-0.024-0.162,0.299c-0.106,0.323-0.975,2.449-0.975,2.449s-0.192,0.571,0.078,0.702c0.269,0.13,0.558,0.026,0.699-0.186
		c0.142-0.212,1.515-3.532,1.515-3.532l1.593-0.031c0,0,0.223,0.02,0.082,0.233c0,0-0.85,1.916-0.937,2.078
		c-0.087,0.162-0.506,1.145-1.047,1.451c-0.541,0.306-0.985,0.504-1.518,0.56c-0.578,0.061-1.226-0.001-1.69-0.461
		c-0.464-0.46-0.189-1.366-0.06-1.701c0.128-0.336,0.675-1.728,0.675-1.728s0.044-0.05,0.009-0.111
		c-0.034-0.061-0.059-0.221,0.052-0.248C21.397,15.324,21.464,15.348,21.464,15.348L21.464,15.348z"/>
	<path id="path28" inkscape:connector-curvature="0" class="st2" d="M25.078,19.358c0,0,0.045-0.118,0.138-0.185
		c0.093-0.067,0.046-0.053,0.166,0.114c0.12,0.167,0.25,0.203,0.333,0.241c0.083,0.037,0.53,0.055,0.717-0.014
		c0.187-0.069,0.36-0.267,0.37-0.411c0.01-0.143,0.019-0.326-0.352-0.722c-0.371-0.396-0.78-1-0.8-1.521
		c-0.02-0.521,0.227-1.241,0.775-1.538c0.548-0.297,1.122-0.464,1.914-0.18c0.792,0.284,0.486,0.225,0.545,0.25
		c0.059,0.025,0.118,0.063,0.062,0.207c-0.057,0.144-0.099,0.432-0.157,0.498c-0.058,0.066-0.14,0.055-0.212-0.035
		c-0.072-0.09-0.265-0.412-0.49-0.472c-0.224-0.061-0.509-0.225-0.964,0.019c-0.455,0.243-0.042,1.055,0.137,1.208
		c0.179,0.153,0.757,1.001,0.807,1.221c0.05,0.22,0.201,0.829-0.275,1.242c-0.476,0.413-0.801,0.654-1.789,0.673
		c0,0-0.282-0.007-0.412-0.044c-0.13-0.037-0.119-0.089-0.248-0.086c-0.129,0.003-0.294,0.019-0.341,0.007
		c-0.047-0.012-0.106-0.037-0.084-0.116C24.942,19.634,25.078,19.358,25.078,19.358L25.078,19.358L25.078,19.358z"/>
	<path id="path30" inkscape:connector-curvature="0" d="M16.656,21.251h0.507l0.598,1.719h-0.454l-0.116-0.367H16.61l-0.122,0.367
		h-0.42L16.656,21.251L16.656,21.251z M16.91,21.606h-0.004l-0.2,0.673h0.389L16.91,21.606L16.91,21.606L16.91,21.606z"/>
	<path id="path32" inkscape:connector-curvature="0" d="M18.657,21.251h0.739c0.147,0,0.265,0.035,0.354,0.106
		c0.098,0.077,0.147,0.186,0.147,0.328c0,0.238-0.099,0.383-0.298,0.433v0.005c0.059,0.018,0.104,0.06,0.133,0.126
		c0.007,0.015,0.036,0.099,0.087,0.254l0.151,0.468h-0.432l-0.089-0.31c-0.043-0.149-0.084-0.248-0.122-0.296
		c-0.037-0.049-0.093-0.074-0.169-0.074H19.07v0.68h-0.414V21.251L18.657,21.251z M19.07,21.966h0.109
		c0.093,0,0.161-0.009,0.203-0.027c0.067-0.03,0.1-0.087,0.1-0.172c0-0.127-0.101-0.19-0.303-0.19H19.07V21.966L19.07,21.966z"/>
	<polygon id="polygon34" points="20.152,22.971 20.152,21.251 20.152,21.251 20.565,21.251 20.565,22.631 21.206,22.631 
		21.206,22.971 	"/>
	<polygon id="polygon36" points="21.823,22.971 21.409,22.971 21.409,21.251 21.409,21.251 21.823,21.251 	"/>
	<polygon id="polygon38" points="22.139,21.251 22.139,21.251 22.666,21.251 23.191,22.419 23.195,22.419 23.189,21.251 
		23.567,21.251 23.567,22.971 23.053,22.971 22.51,21.796 22.506,21.796 22.519,22.971 22.139,22.971 	"/>
	<polygon id="polygon40" points="23.852,21.251 23.852,21.251 24.947,21.251 24.947,21.576 24.266,21.576 24.266,21.931 
		24.909,21.931 24.909,22.256 24.266,22.256 24.266,22.645 24.971,22.645 24.971,22.971 23.852,22.971 	"/>
	<path id="path42" inkscape:connector-curvature="0" d="M25.227,22.547c0.126,0.076,0.269,0.113,0.427,0.113
		c0.171,0,0.256-0.056,0.256-0.167c0-0.084-0.064-0.149-0.191-0.197c-0.202-0.076-0.319-0.125-0.351-0.148
		c-0.128-0.087-0.191-0.22-0.191-0.399c0-0.189,0.074-0.328,0.222-0.419c0.117-0.072,0.268-0.108,0.454-0.108
		c0.154,0,0.288,0.021,0.401,0.064l-0.027,0.355c-0.104-0.053-0.219-0.079-0.345-0.079c-0.186,0-0.278,0.053-0.278,0.16
		c0,0.071,0.064,0.127,0.191,0.17c0.188,0.064,0.305,0.112,0.352,0.143c0.128,0.087,0.191,0.22,0.191,0.399
		c0,0.378-0.228,0.566-0.683,0.566c-0.171,0-0.325-0.025-0.463-0.074L25.227,22.547L25.227,22.547z"/>
	<polygon id="polygon44" points="18.358,22.971 17.945,22.971 17.945,21.251 17.945,21.251 18.358,21.251 	"/>
	<line id="line46" class="st3" x1="0" y1="21.492" x2="15.522" y2="21.492"/>
</g>
</svg>
