<?xml version="1.0" encoding="utf-8"?>
<!-- Generator: Adobe Illustrator 23.0.5, SVG Export Plug-In . SVG Version: 6.00 Build 0)  -->
<svg version="1.1" id="Слой_1" xmlns="http://www.w3.org/2000/svg" xmlns:xlink="http://www.w3.org/1999/xlink" x="0px" y="0px"
	 width="66.169px" height="19.692px" viewBox="0 0 66.169 19.692" enable-background="new 0 0 66.169 19.692" xml:space="preserve">
<g>
	<path fill-rule="evenodd" clip-rule="evenodd" fill="#B09503" d="M7.198,1.303c0,0.314,0.063,0.537,0.286,0.707l0.059,0.041
		c0.14,0.09,0.166,0.117,0.22,0.277l0.026,0.074C7.8,2.431,7.817,2.456,7.843,2.495C8.657,2.306,8.796,0.658,9.696,2.28
		c0.148,0.268,0.408,0.762,0.336,1.063C9.891,3.928,8.588,4.464,8.588,4.877c0,0.24,0.135,0.299,0.327,0.368
		c1.005,0.36,1.578,0.456,2.538,1.037c0.482,0.293,0.61,0.492,0.61,1.077c0,0.831-1.043,1.154-1.706,1.321
		c-1.399,0.352-6.379,0.564-7.49-0.513C2.58,7.89,2.55,7.857,2.631,7.508l5.263,0.001C8.31,7.512,8.522,7.476,8.75,7.273l0.819-0.77
		c0.132-0.128,0.193-0.131,0.21-0.336c-0.252-0.205-0.232,0.104-1.191,0.1c-0.43-0.001-0.861,0-1.291,0l0.116-0.181
		c0.056-0.069,0.084-0.094,0.143-0.154C8.458,5.027,8.244,5.349,8.24,3.487C8.239,2.728,8.389,2.746,8.389,2.395
		c-0.423,0-0.24,0.163-0.766,0.573c-0.546,0.426-0.376,0.96-0.376,2.008c0.002,1.11-0.294,0.926-0.049,1.291H2.284
		c-0.48,0-1.291,0.109-1.291-0.545c0-0.458,0.395-0.449,0.844-0.448C2.622,5.278,3.435,5.45,4.009,4.865
		c0.122-0.124,1.008-0.882,0.409-0.882c-0.19,0-0.162,0.242-0.591,0.252c-0.759,0.018-1.609-0.073-2.19,0.343L0.758,5.386
		C0.374,5.774,0,5.895,0,6.515c0,0.693,1.054,0.952,1.74,0.941c0.221-0.005,0.383-0.051,0.373,0.128
		c0,0.009-0.126,0.335-0.147,0.401c-0.081,0.272-0.08,0.568-0.08,0.862c0,1.082,2.066,1.61,2.978,1.638
		c0.292,0.009,0.377,0.05,0.646,0.05c-0.851,1.774,0.77,2.631,2.234,2.631c1.637,0,2.352-0.168,3.766-0.751
		c0.165-0.069,0.389-0.159,0.553-0.241c0.353-0.175,0.696-0.301,1.034-0.506c0.636-0.385,1.18-0.806,1.641-1.386
		c0.93-1.177,1.486-2.326,0.42-3.633c-0.84-1.032-1.386-0.687-0.435-1.892c0.522-0.662,0.706-1.208,0.084-1.977
		c-0.719-0.887-0.74-0.869-1.514-0.149c-0.124,0.117-0.195,0.146-0.324,0.271c-0.124,0.121-0.242,0.173-0.26,0.386
		c0.532,0.37,0.29-0.405,0.979,0.509c1.238,1.644-0.78,1.81-0.78,2.618c0,0.198,0.06,0.225,0.185,0.31
		c0.75,0.519,1.998,0.668,1.998,1.824c0,0.857-0.826,1.445-1.405,1.771c-0.834,0.47-2.009,0.846-3.062,0.959L8.339,11.43
		c-0.423-0.007-0.979-0.066-1.396-0.194c-0.387-0.119-0.787-0.324-0.887-0.752c0.739,0,1.754-0.153,2.373-0.307
		c1.272-0.318,2.441-0.736,3.38-1.634l0.073-0.075c0.435-0.469,0.875-1.156,0.875-2.005c0-1.266-1.626-1.691-2.55-2.116
		c-0.178-0.082-0.219-0.126-0.184-0.241c0.119-0.403,0.897-0.501,0.897-1.316c0-0.594-0.068-1.072-0.367-1.568
		c-0.151-0.249-0.499-0.715-0.823-0.715c-0.311,0-0.397,0.264-0.558,0.436c-0.674,0.722-1.13,0.336-1.13-0.039
		c0-0.428,0.274-0.484,0.198-0.844c-0.396,0-0.457,0.148-0.708,0.433C7.39,0.658,7.198,1.017,7.198,1.303L7.198,1.303z"/>
	<path fill-rule="evenodd" clip-rule="evenodd" fill="#01351D" d="M59.021,7.706c0.383,0,0.638-0.078,0.99-0.047
		c0.324,0.029,0.601,0.047,0.996,0.047c-0.081-0.304-0.492-0.218-0.544-0.944c-0.092-1.289-0.051-3.092-0.051-4.416l0.906,1.03
		c0.144,0.145,0.187,0.234,0.322,0.373c0.137,0.141,0.177,0.209,0.299,0.346l2.777,3.18c0.145,0.172,0.456,0.63,0.71,0.63
		c0.081,0,0.248-0.073,0.248-0.149c-0.033-1.544-0.178-5.804,0.119-6.831c0.173-0.602,0.349-0.31,0.378-0.664
		c-1.676,0.101-1.1-0.032-1.886-0.05c0.005,0.233-0.013,0.129,0.104,0.243c0.198,0.195,0.304,0.279,0.34,0.802
		c0.075,1.069,0.102,3.364,0.102,4.465c-0.247-0.166-0.443-0.501-0.658-0.733l-3.92-4.618c-0.162-0.147-0.307-0.108-0.586-0.108
		c-0.283-0.001-0.375-0.051-0.693-0.051c0.037,0.446,0.513-0.004,0.596,1.539c0.035,0.662-0.049,5.158-0.103,5.307
		c-0.045,0.128-0.105,0.245-0.206,0.341C59.076,7.568,59.042,7.451,59.021,7.706L59.021,7.706z M34.797,0.608
		c0,0.645-0.878,1.425-1.192,1.837c-0.104,0.136-0.183,0.208-0.311,0.335c-0.259,0.255-0.388,0.543-0.632,0.608l0.051-1.686
		c0.012-0.535,0.083-1.182,0.495-1.292V0.261c-0.442,0-0.691,0.05-1.141,0.05c-0.452,0-0.699-0.05-1.142-0.05
		c0.197,0.738,0.596-0.571,0.596,3.375v3.028c0,0.8-0.465,0.739-0.546,1.042c0.626,0,1.023-0.07,1.595-0.007
		c1.33,0.148,0.504-0.16,0.31-0.459c-0.202-0.309-0.159-1.684-0.216-2.317c-0.05-0.549,0.012-0.418,0.196-0.692
		c0.239,0.161,0.67,0.752,0.877,1.009l1.443,1.834c0.09,0.098,0.172,0.14,0.273,0.224c0.66,0.546,1.699,0.666,2.409,0.298
		c0.126-0.064,0.146-0.065,0.161-0.237c-0.259-0.022-0.137-0.07-0.411-0.016c-0.722,0.146-1.046-0.359-1.587-0.965
		c-0.095-0.107-0.149-0.186-0.248-0.299c-0.087-0.099-0.162-0.2-0.244-0.302c-0.267-0.335-1.716-2.081-1.879-2.389
		c0.104-0.155,0.232-0.249,0.369-0.426C34.284,2.624,35.81,1.115,36.08,0.9c0.596-0.476,0.818-0.417,1-0.688
		c-0.315,0-0.414,0.05-0.745,0.05h-0.944c-0.185,0-0.397-0.061-0.489-0.04C34.661,0.276,34.797,0.41,34.797,0.608L34.797,0.608z
		 M55.05,2.346c0.077,0.332,0.237,0.668,0.353,0.987c0.081,0.224,0.324,0.794,0.342,0.998c-0.126,0-0.275-0.008-0.398,0h-0.694
		c-0.138-0.008-0.306,0-0.448,0c0.147-0.305,0.273-0.656,0.404-0.985C54.684,3.161,54.913,2.503,55.05,2.346L55.05,2.346z
		 M51.327,7.756c0.272,0,0.714-0.066,0.957-0.085c0.237-0.02,0.714,0.085,0.979,0.085c-0.02-0.247-0.199-0.244-0.199-0.497
		l0.731-1.949c0.246-0.623-0.006-0.483,1.95-0.483c0.289,0,0.32,0.208,0.39,0.404c0.13,0.365,0.602,1.555,0.602,1.78
		c0,0.345-0.289,0.377-0.298,0.744c0.367,0,0.784-0.099,1.391-0.099c0.424,0,0.657,0.099,1.043,0.099
		c-0.03-0.362-0.289-0.114-0.644-0.697c-0.209-0.342-1.993-4.904-2.335-5.756c-0.124-0.31-0.256-0.7-0.397-0.993
		c-0.282,0-0.563,0-0.844,0.001c-0.344,0.001-0.482-0.051-0.843-0.051c0.108,0.205,0.018,0.066,0.156,0.192
		c0.774,0.704,0.603,0.923,0.311,1.617L53.44,4.111c-0.177,0.446-1.069,2.704-1.31,3.009C51.742,7.608,51.514,7.402,51.327,7.756
		L51.327,7.756z M26.904,2.346l0.546,1.489c0.066,0.167,0.118,0.343,0.2,0.496c-0.535,0-1.055,0-1.589,0
		c0.146-0.305,0.273-0.656,0.404-0.985L26.761,2.6c0.025-0.062,0.02-0.064,0.061-0.138C26.879,2.36,26.857,2.4,26.904,2.346
		L26.904,2.346z M23.181,7.756c0.272,0,0.714-0.066,0.957-0.085c0.236-0.02,0.714,0.085,0.979,0.085
		c-0.052-0.62-0.548,0.27,0.284-1.801c0.556-1.386,0.02-1.128,2.198-1.128c0.339,0,0.439,0.496,0.602,0.987
		c0.082,0.249,0.39,0.943,0.39,1.197c0,0.31-0.268,0.39-0.297,0.744c0.365,0,0.782-0.099,1.389-0.099
		c0.424,0,0.657,0.099,1.043,0.099c-0.031-0.362-0.289-0.114-0.644-0.697c-0.203-0.332-1.69-4.144-1.952-4.799l-0.78-1.95
		c-0.281,0-0.564,0-0.845,0.001c-0.344,0.001-0.483-0.051-0.843-0.051c0.152,0.287,0.437,0.361,0.631,0.76
		c0.09,0.183,0.126,0.341,0.062,0.524l-1.06,2.567c-0.179,0.449-1.069,2.704-1.31,3.009c-0.211,0.265-0.374,0.307-0.607,0.435
		C23.191,7.657,23.279,7.572,23.181,7.756L23.181,7.756z M20.997,4.033c0-0.726-0.029-2.625,0.099-3.177
		c0.345-0.007,1.069-0.202,1.628,0.357c0.719,0.719,0.61,2.478-0.56,2.849C21.642,4.228,21.449,4.043,20.997,4.033L20.997,4.033z
		 M19.855,4.381c0,0.459,0.042,2.332-0.09,2.69c-0.072,0.198-0.342,0.437-0.555,0.487v0.199c0.252,0,0.271-0.05,0.546-0.05h1.291
		c0.275,0,0.294,0.05,0.545,0.05c-0.036-0.439-0.558-0.018-0.547-1.389L20.997,4.43c0.65,0.152,1.753,0.112,2.324-0.257
		C25.322,2.88,24.42,0.31,22.138,0.31H19.21c0.02,0.249,0.068,0.18,0.234,0.312c0.122,0.097,0.185,0.189,0.242,0.354
		C19.84,1.417,19.855,3.825,19.855,4.381L19.855,4.381z M41.846,2.048c0,0.766,0.264,1.213,0.892,1.689
		c0.223,0.168,0.416,0.31,0.666,0.475c0.232,0.154,0.457,0.308,0.664,0.478c0.409,0.337,0.849,0.734,0.821,1.409
		c-0.016,0.364-0.143,0.611-0.324,0.804c-0.65,0.691-1.86,0.312-2.274-0.535c-0.067-0.137-0.213-0.366-0.247-0.497
		c-0.487,0-0.446,0.14-0.446,0.447c0,0.677-0.005,1.068,0.476,1.211c1.091,0.325,2.264,0.493,3.183-0.281
		c0.389-0.328,0.758-0.877,0.758-1.574c0-1.942-3.127-2.534-3.127-3.921c0-0.953,1.104-1.323,1.967-0.627
		c0.312,0.252,0.312,0.775,0.763,0.775c0.35,0,0.099-0.822,0.099-1.539c-0.543-0.127-0.456,0.05-0.695,0.05
		c-0.238,0-0.636-0.149-1.191-0.149C42.793,0.261,41.846,1.039,41.846,2.048L41.846,2.048z M50.433,0.36
		c-0.427,0-2.607,0.042-2.848-0.031c-0.305-0.092-0.017-0.118-0.627-0.118c-0.013,0.167-0.189,0.507-0.272,0.671
		c-0.115,0.227-0.3,0.352-0.323,0.62c1.002,0.234,0.052-0.645,2.83-0.645v5.808c0,0.249-0.045,0.475-0.161,0.633
		c-0.195,0.261-0.363,0.192-0.385,0.459l1.439-0.05c0.359,0,0.498,0.05,0.844,0.05c-0.031-0.385-0.314-0.132-0.467-0.724
		c-0.062-0.239-0.079-0.82-0.078-1.112c0.003-1.434-0.116-3.128,0.003-4.614c0.015-0.192,0.047-0.204,0.047-0.45h1.241
		c0.541,0,0.315,0.695,0.596,0.695c0.429,0,0.366-0.323,0.677-0.96c0.081-0.166,0.15-0.229,0.166-0.43
		c-0.339,0-0.346-0.012-0.614,0.081l-1.32,0.119C50.938,0.369,50.677,0.36,50.433,0.36L50.433,0.36z M38.967,4.133
		c0,0.582,0.084,2.704-0.129,3.097c-0.166,0.304-0.392,0.221-0.417,0.526c0.251,0,0.27-0.05,0.546-0.05h1.192
		c0.275,0,0.294,0.05,0.546,0.05c-0.018-0.221-0.072-0.187-0.206-0.29c-0.11-0.085-0.168-0.179-0.228-0.319
		c-0.196-0.451-0.227-5.325-0.06-6.091c0.032-0.147,0.082-0.312,0.166-0.429c0.173-0.243,0.255-0.078,0.279-0.366
		c-0.283,0-0.344,0.05-0.645,0.05h-0.992c-0.303,0-0.363-0.05-0.646-0.05c0.036,0.429,0.556,0.029,0.547,1.687
		C38.913,2.7,38.967,3.343,38.967,4.133L38.967,4.133z"/>
	<path fill-rule="evenodd" clip-rule="evenodd" fill="#B09503" d="M10.672,0.956c0,0.392,0.509-0.1,1.142-0.1
		c0.252,0,0.271,0.05,0.546,0.05c-0.115,0.432-0.942,0.66-0.942,1.39l0.003,1.888c-0.057,0.212-0.178,0.383-0.103,0.545
		c0.159,0.159,1.142-0.538,1.142-1.489V1.457c0.056-0.152,0.14-0.233,0.259-0.34c0.163-0.148,0.822-0.666,0.854-0.831
		c0.039-0.195-0.087-0.224-0.316-0.227c-1.153-0.015-1.364-0.243-2.024,0.316C11.096,0.491,10.672,0.829,10.672,0.956L10.672,0.956z
		"/>
	<path fill-rule="evenodd" clip-rule="evenodd" fill="#01351D" d="M50.582,9.791c0.135,0.155,0.187,0.382,0.277,0.617
		c0.061,0.156,0.208,0.536,0.22,0.674h-0.993C50.106,10.831,50.495,10.165,50.582,9.791L50.582,9.791z M48.646,12.968
		c0.216-0.005,0.175-0.038,0.397-0.05c0.14-0.007,0.304,0,0.447,0c-0.193-0.405,0.359-1.073,0.397-1.539l0.993-0.049
		c0.407,0,0.395,0.117,0.59,0.7c0.317,0.954,0.148,0.405,0.006,0.937l1.142-0.05c-0.398-0.346-0.347-0.349-0.559-0.879l-1.277-3.192
		h-0.744c0.163,0.245,0.467,0.359,0.354,0.695c-0.025,0.072-0.084,0.195-0.12,0.283c-0.157,0.393-0.313,0.727-0.468,1.12
		c-0.086,0.217-0.148,0.344-0.235,0.561c-0.315,0.79-0.315,1.041-0.864,1.419L48.646,12.968L48.646,12.968z M29.982,10.785
		c0.139,0.19,0.348,0.055,0.348,0.397v1.191c0,0.382-0.153,0.378-0.298,0.595c0.276,0,0.294-0.05,0.546-0.05
		c0.251,0,0.27,0.05,0.546,0.05c-0.126-0.471-0.298,0.482-0.298-1.737c0-0.224,0.993-0.874,0.993,0.447
		c0,0.327-0.027,0.463-0.048,0.746c-0.034,0.447-0.171,0.251-0.249,0.544c0.252,0,0.226-0.05,0.446-0.05
		c0.283,0,0.343,0.05,0.645,0.05c-0.173-0.258-0.24-0.13-0.308-0.536c-0.037-0.216-0.04-0.517-0.039-0.804
		c0.001-0.963-0.021-1.142-0.894-1.142c-0.188,0-0.426,0.168-0.546,0.249v-0.249L29.982,10.785L29.982,10.785z M40.903,10.883
		c0.151,0.003,0.181,0.023,0.298,0.05c0.044,0.528,0.196,1.51-0.141,1.895c-0.123,0.14-0.03-0.075-0.107,0.14
		c0.275,0,0.294-0.05,0.545-0.05s0.27,0.05,0.547,0.05c-0.169-0.465-0.298,0.423-0.298-1.786c0-0.054-0.067-0.075,0.186-0.212
		c0.271-0.148,0.758-0.198,0.758,0.41v0.994c0,0.382-0.153,0.378-0.298,0.595c0.276,0,0.294-0.05,0.546-0.05
		c0.252,0,0.271,0.05,0.546,0.05c-0.058-0.161-0.232-0.153-0.287-0.507c-0.102-0.638,0.203-1.975-0.557-1.975
		c-0.664,0-0.47-0.035-0.893,0.249c-0.004-0.196,0.014-0.117-0.05-0.249c-0.192,0.045-0.236,0.115-0.42,0.176
		C41.038,10.741,40.96,10.67,40.903,10.883L40.903,10.883z M21.097,10.883c0.151,0.003,0.181,0.023,0.298,0.05
		c0.044,0.528,0.196,1.51-0.141,1.895c-0.123,0.14-0.029-0.075-0.107,0.14c0.276,0,0.294-0.05,0.546-0.05
		c0.251,0,0.27,0.05,0.546,0.05c-0.044-0.122-0.076-0.083-0.178-0.218c-0.203-0.269-0.119-1.056-0.119-1.568
		c0-0.191-0.021-0.029,0.071-0.129c0.001-0.001,0.114-0.083,0.114-0.083c0.271-0.148,0.758-0.198,0.758,0.41
		c0,0.743,0.108,1.14-0.189,1.449c-0.126,0.131-0.039-0.052-0.109,0.139c0.276,0,0.294-0.05,0.546-0.05
		c0.251,0,0.271,0.05,0.546,0.05c-0.041-0.113-0.016-0.037-0.083-0.115c-0.068-0.08-0.016,0.007-0.095-0.103
		c-0.053-0.074-0.098-0.217-0.11-0.288c-0.158-0.999,0.424-1.975-0.954-1.975c-0.233,0-0.355,0.154-0.496,0.249
		c-0.004-0.196,0.014-0.117-0.05-0.249c-0.192,0.045-0.236,0.115-0.42,0.176C21.233,10.741,21.154,10.67,21.097,10.883
		L21.097,10.883z M58.823,10.735v0.148c0.443,0.01,0.297,0.245,0.297,1.589c0,0.297-0.2,0.319-0.248,0.496
		c0.252,0,0.226-0.05,0.447-0.05c0.283,0,0.344,0.05,0.646,0.05c-0.222-0.331-0.348-0.129-0.348-1.29
		c0-0.35-0.106-0.794,0.595-0.794c0.529,0,0.397,0.818,0.397,1.44c0,0.454-0.216,0.417-0.298,0.644c0.264,0,0.286-0.05,0.497-0.05
		c0.249,0,0.305,0.05,0.596,0.05c-0.048-0.131-0.088-0.094-0.184-0.212c-0.255-0.31-0.102-1.541-0.183-1.852
		c-0.128-0.494-0.595-0.418-0.874-0.418c-0.199,0-0.393,0.168-0.545,0.249v-0.249C59.368,10.507,59.317,10.693,58.823,10.735
		L58.823,10.735z M38.669,11.578c0-0.988,1.327-1.214,1.55,0.192c0.149,0.937-0.913,1.323-1.337,0.538
		C38.796,12.15,38.669,11.794,38.669,11.578L38.669,11.578z M38.172,11.628c0,0.738,0.326,1.39,1.042,1.39
		c0.49,0,0.666,0.022,1.094-0.296c0.689-0.511,0.567-2.236-0.895-2.236C38.764,10.486,38.172,11.001,38.172,11.628L38.172,11.628z
		 M33.358,12.273c0-0.272,0.491-0.438,0.695-0.546c0,0.291,0.107,0.894-0.348,0.894C33.494,12.622,33.358,12.466,33.358,12.273
		L33.358,12.273z M32.911,11.132c0.088,0.131,0.177,0.247,0.397,0.247c0.257,0.042,0.181-0.788,0.613-0.609
		c0.167,0.07,0.125,0.114,0.127,0.285l0.005,0.423c-1.833,0.427-1.308,1.489-0.546,1.489c0.354,0,0.33-0.136,0.596-0.199
		c0.112,0.422,0.913,0.161,0.943-0.198c-0.269,0-0.264,0.038-0.446,0c-0.079-0.338-0.05-0.826-0.048-1.242
		c0.004-0.879-0.203-0.843-0.746-0.843c-0.217,0-0.409,0.093-0.564,0.181C33.019,10.793,32.971,10.873,32.911,11.132L32.911,11.132z
		 M44.278,12.273c0-0.256,0.459-0.491,0.695-0.546c0,0.291,0.107,0.894-0.348,0.894C44.394,12.622,44.278,12.505,44.278,12.273
		L44.278,12.273z M43.832,11.132c0,0.188,0.211,0.247,0.397,0.247c0.27,0-0.004-0.335,0.242-0.557
		c0.191-0.171,0.379-0.172,0.476,0.087c0.047,0.126,0.022,0.27,0.027,0.569c-0.146,0.012-1.241,0.317-1.241,0.844
		c0,0.466,0.316,0.644,0.745,0.644c0.158,0,0.379-0.135,0.497-0.199c0.19,0.285,0.504,0.244,0.784,0.09
		c0.151-0.085,0.154-0.067,0.159-0.287c-0.556,0-0.439,0.023-0.446-0.498c-0.004-0.255-0.053-0.34-0.052-0.643
		c0.005-0.868,0.032-0.944-0.644-0.944C44.347,10.486,43.832,10.733,43.832,11.132L43.832,11.132z M62.694,10.785
		c0.351,0,0.538,0.148,0.546,0.496h-1.141C62.166,10.989,62.342,10.785,62.694,10.785L62.694,10.785z M61.553,11.727
		c0,0.575,0.371,1.24,0.992,1.24c0.452,0,0.622,0.046,0.974-0.217c0.219-0.164,0.268-0.221,0.268-0.577
		c-0.271,0.071-0.393,0.496-0.893,0.496c-0.612,0-0.845-0.572-0.845-1.141c1.78,0,1.829,0.138,1.746-0.297
		c-0.037-0.19-0.073-0.248-0.175-0.38C63.083,10.161,61.553,10.423,61.553,11.727L61.553,11.727z M26.756,10.785
		c0.313,0,0.489,0.177,0.495,0.496H26.11C26.179,10.987,26.401,10.785,26.756,10.785L26.756,10.785z M25.614,11.529
		c0,0.48-0.053,0.759,0.283,1.107c0.449,0.463,1.268,0.441,1.667,0.098c0.222-0.19,0.235-0.178,0.235-0.559
		c-0.348,0.092-0.361,0.496-0.894,0.496c-0.577,0-0.843-0.554-0.843-1.141h1.637c0.295,0,0.182-1.043-0.992-1.043
		C26.154,10.486,25.614,10.98,25.614,11.529L25.614,11.529z M20.104,9.642v2.83c0,0.265-0.18,0.321-0.297,0.496
		c0.276,0,0.294-0.05,0.546-0.05c0.251,0,0.27,0.05,0.547,0.05c-0.078-0.29-0.074-0.008-0.214-0.282
		c-0.153-0.298-0.084-2.668-0.084-3.193c0-0.294,0.129-0.468,0.248-0.645h-1.043C19.976,9.102,20.104,9.198,20.104,9.642
		L20.104,9.642z M56.143,9.245v0.1c0.298,0.069,0.347,0.291,0.347,0.646v2.482c0,0.265-0.18,0.321-0.298,0.496
		c0.276,0,0.294-0.05,0.545-0.05s0.271,0.05,0.547,0.05c-0.078-0.29-0.073-0.008-0.214-0.282c-0.154-0.299-0.084-2.713-0.084-3.243
		c0-0.249,0.045-0.222,0.05-0.446C56.69,8.997,56.72,9.11,56.143,9.245L56.143,9.245z M46.015,9.245v0.1
		c0.311,0.072,0.342,0.224,0.348,0.596c0.005,0.321,0.05,0.558,0.05,0.943c0,0.419,0.06,1.532-0.083,1.805
		c-0.112,0.213-0.143,0.078-0.216,0.28c0.264,0,0.287-0.05,0.497-0.05c0.249,0,0.305,0.05,0.595,0.05
		c-0.14-0.389-0.347,0.119-0.347-1.637V10.14c0-0.451,0.049-0.699,0.049-1.142C46.737,9.001,46.446,9.145,46.015,9.245L46.015,9.245
		z M64.034,11.231c0,0.314,0.218,0.509,0.462,0.63c0.38,0.189,0.631,0.178,0.631,0.562c0,0.252-0.356,0.302-0.548,0.253
		c-0.421-0.108-0.3-0.238-0.545-0.402c-0.077,0.138-0.049,0.211-0.049,0.447c0,0.425,1.588,0.428,1.588-0.396
		c0-1.024-1.092-0.697-1.092-1.291c0-0.227,0.313-0.316,0.503-0.26c0.29,0.086,0.339,0.257,0.539,0.31
		c0-0.608-0.023-0.596-0.695-0.596C64.382,10.486,64.034,10.779,64.034,11.231L64.034,11.231z M54.157,10.735
		c0.084,0.208,0.348,0.09,0.348,0.596c0,2.112-0.091,1.047-0.249,1.637c0.465,0-0.001-0.094,1.041,0.01
		c-0.063-0.249-0.126-0.069-0.227-0.378C54.971,12.291,55,11.731,55,11.38c0-0.121,0.169-0.311,0.282-0.368
		c0.274-0.139,0.242-0.002,0.512,0.021c0.278-0.58,0.132-0.546-0.148-0.546c-0.285,0-0.471,0.23-0.646,0.348v-0.348
		C54.823,10.486,54.301,10.665,54.157,10.735L54.157,10.735z M35.145,10.834h0.397c0,0.32-0.072,1.617,0.033,1.852
		c0.199,0.445,1.064,0.377,1.109-0.165c-0.3,0.007-0.261,0.096-0.453,0.076c-0.401-0.041-0.242-1.452-0.242-1.763h0.397v-0.298
		h-0.397V9.891c-0.287,0.077-0.065,0.094-0.433,0.46C35.19,10.714,35.167,10.563,35.145,10.834L35.145,10.834z M27.997,10.735
		c0.076,0.188-0.016,0.019,0.128,0.12c0.367,0.256,0.268,0.676,0.268,1.369c0,0.248-0.035,0.427-0.165,0.58
		c-0.15,0.175-0.051-0.06-0.133,0.165c0.263,0,0.286-0.05,0.496-0.05c0.248,0,0.306,0.05,0.596,0.05
		c-0.048-0.131-0.088-0.094-0.185-0.212c-0.161-0.195-0.103-0.446-0.114-0.681c-0.019-0.401-0.197-0.661,0.158-0.985
		c0.242-0.22,0.298-0.125,0.587-0.057c0.077-0.145,0.182-0.302,0.199-0.497c-0.531-0.124-0.564,0.011-0.993,0.298v-0.348
		L27.997,10.735L27.997,10.735z M23.877,10.834h0.397v1.687c0,0.595,1.09,0.622,1.141,0c-0.268,0.006-0.568,0.243-0.627-0.107
		c-0.081-0.479-0.068-1.088-0.068-1.58h0.397v-0.298H24.72V9.891c-0.274,0.074-0.083,0.231-0.669,0.672
		C23.906,10.672,23.894,10.618,23.877,10.834L23.877,10.834z M36.832,10.785c0.325,0.443,0.348-0.466,0.348,1.687
		c0,0.316-0.18,0.241-0.248,0.496c0.253,0,0.227-0.05,0.447-0.05c0.283,0,0.343,0.05,0.646,0.05
		c-0.193-0.287-0.349-0.153-0.349-1.092c0-0.49-0.009-0.872,0.1-1.341C37.567,10.536,36.996,10.705,36.832,10.785L36.832,10.785z
		 M57.482,10.785c0.084,0.208,0.347,0.09,0.347,0.595c0,1.935-0.13,1.123-0.298,1.588c0.276,0,0.295-0.05,0.546-0.05
		c0.251,0,0.271,0.05,0.545,0.05c-0.077-0.216-0.213-0.112-0.281-0.414c-0.059-0.268-0.026-0.993-0.016-1.321
		c0.009-0.29,0.049-0.467,0.049-0.697C58.128,10.536,57.7,10.68,57.482,10.785L57.482,10.785z M52.816,10.883
		c0.496,0.042,0.348,0.666,0.348,1.539c0,0.268-0.19,0.384-0.298,0.546c0.275,0,0.294-0.05,0.545-0.05
		c0.252,0,0.271,0.05,0.547,0.05c-0.163-0.449-0.298,0.381-0.298-1.688c0-0.33,0.05-0.43,0.05-0.745
		c-0.477,0-0.176,0.038-0.556,0.139C52.922,10.735,52.87,10.684,52.816,10.883L52.816,10.883z M37.285,9.658
		c0.191,0,0.346,0.154,0.346,0.345c0,0.192-0.155,0.346-0.346,0.346s-0.346-0.155-0.346-0.346
		C36.938,9.812,37.094,9.658,37.285,9.658L37.285,9.658z M53.198,9.658c0.19,0,0.346,0.154,0.346,0.345
		c0,0.192-0.155,0.346-0.346,0.346s-0.346-0.155-0.346-0.346S53.007,9.658,53.198,9.658L53.198,9.658z M57.882,9.658
		c0.191,0,0.346,0.154,0.346,0.345c0,0.192-0.155,0.346-0.346,0.346c-0.192,0-0.346-0.155-0.346-0.346
		C57.535,9.812,57.69,9.658,57.882,9.658L57.882,9.658z"/>
	<path fill-rule="evenodd" clip-rule="evenodd" fill="#B09503" d="M15.24,5.274c0,0.351,0.546,0.695,0.595,0.695
		c0.238,0,0.436-0.523,0.688-0.519c0.306,0.006,0.438,0.519,0.702,0.519c0.135,0,0.596-0.52,0.596-0.595
		c0-0.219-0.114-0.292-0.234-0.41c-0.154-0.152-0.203-0.285-0.411-0.285c-0.262,0-0.373,0.546-0.646,0.546
		c-0.13,0-0.503-0.388-0.545-0.546c-0.345,0-0.289,0.005-0.441,0.204C15.461,4.991,15.24,5.126,15.24,5.274L15.24,5.274z"/>
	<path fill-rule="evenodd" clip-rule="evenodd" fill="#B09503" d="M15.885,6.466c0,0.247,0.431,0.695,0.645,0.695
		c0.166,0,0.509-0.466,0.596-0.596c-0.04-0.169-0.47-0.695-0.596-0.695C16.259,5.87,15.885,6.465,15.885,6.466L15.885,6.466z"/>
	<path d="M28.414,16.84l0.047-0.221h0.854l-0.166,0.793c-0.107,0.067-0.23,0.122-0.367,0.166c-0.138,0.042-0.273,0.063-0.406,0.063
		c-0.284,0-0.496-0.085-0.636-0.257c-0.118-0.145-0.177-0.331-0.177-0.557c0-0.235,0.052-0.448,0.155-0.64
		c0.104-0.192,0.234-0.334,0.392-0.425c0.158-0.092,0.333-0.138,0.525-0.138c0.139,0,0.263,0.025,0.373,0.075
		c0.111,0.05,0.194,0.117,0.253,0.202c0.058,0.084,0.101,0.192,0.126,0.327l-0.253,0.031c-0.027-0.136-0.085-0.24-0.171-0.312
		c-0.087-0.072-0.198-0.108-0.334-0.108c-0.141,0-0.274,0.039-0.396,0.116c-0.124,0.077-0.222,0.193-0.295,0.347
		c-0.073,0.155-0.11,0.331-0.11,0.528s0.049,0.345,0.145,0.446c0.097,0.1,0.231,0.151,0.402,0.151c0.17,0,0.353-0.057,0.549-0.168
		l0.087-0.418L28.414,16.84L28.414,16.84z M29.511,17.61l0.294-1.416h0.215l-0.061,0.29c0.073-0.109,0.145-0.189,0.215-0.242
		c0.069-0.053,0.141-0.078,0.214-0.078c0.047,0,0.106,0.017,0.176,0.052l-0.098,0.223c-0.041-0.031-0.087-0.047-0.137-0.047
		c-0.084,0-0.172,0.048-0.261,0.142c-0.089,0.094-0.159,0.263-0.211,0.507L29.74,17.61H29.511L29.511,17.61z M31.459,17.129
		l0.234,0.022c-0.034,0.116-0.112,0.226-0.233,0.331c-0.121,0.104-0.266,0.157-0.434,0.157c-0.105,0-0.201-0.024-0.288-0.071
		c-0.088-0.049-0.155-0.119-0.201-0.212c-0.046-0.092-0.069-0.196-0.069-0.314c0-0.155,0.036-0.303,0.107-0.448
		c0.072-0.145,0.164-0.253,0.278-0.324c0.114-0.07,0.238-0.105,0.37-0.105c0.169,0,0.304,0.052,0.405,0.157
		c0.101,0.104,0.151,0.246,0.151,0.427c0,0.069-0.006,0.139-0.018,0.212h-1.045c-0.004,0.027-0.006,0.052-0.006,0.074
		c0,0.132,0.03,0.234,0.092,0.304c0.061,0.069,0.135,0.104,0.223,0.104c0.083,0,0.165-0.026,0.245-0.08
		C31.351,17.309,31.414,17.23,31.459,17.129L31.459,17.129z M30.755,16.775h0.797c0-0.025,0.001-0.042,0.001-0.054
		c0-0.12-0.031-0.212-0.091-0.276c-0.061-0.063-0.139-0.096-0.234-0.096c-0.104,0-0.198,0.036-0.283,0.106
		C30.861,16.526,30.797,16.632,30.755,16.775L30.755,16.775z M32.887,17.433c-0.084,0.072-0.164,0.124-0.241,0.157
		c-0.077,0.033-0.16,0.049-0.249,0.049c-0.13,0-0.234-0.038-0.315-0.114c-0.081-0.077-0.12-0.175-0.12-0.295
		c0-0.079,0.018-0.148,0.054-0.209c0.035-0.06,0.083-0.109,0.143-0.146s0.132-0.063,0.219-0.079c0.055-0.011,0.158-0.019,0.31-0.026
		c0.152-0.006,0.261-0.022,0.327-0.047c0.018-0.065,0.028-0.12,0.028-0.164c0-0.056-0.021-0.099-0.062-0.131
		c-0.056-0.044-0.138-0.066-0.246-0.066c-0.102,0-0.185,0.022-0.25,0.067c-0.065,0.046-0.111,0.109-0.14,0.192l-0.243-0.022
		c0.049-0.14,0.127-0.247,0.235-0.322s0.245-0.112,0.408-0.112c0.175,0,0.312,0.042,0.415,0.125
		c0.078,0.062,0.116,0.143,0.116,0.242c0,0.075-0.01,0.162-0.032,0.262l-0.078,0.352c-0.024,0.112-0.036,0.202-0.036,0.272
		c0,0.044,0.01,0.108,0.03,0.192h-0.244C32.902,17.563,32.892,17.504,32.887,17.433L32.887,17.433z M32.977,16.893
		c-0.033,0.012-0.07,0.023-0.109,0.03c-0.039,0.008-0.104,0.015-0.194,0.023c-0.14,0.012-0.239,0.029-0.297,0.047
		c-0.058,0.019-0.102,0.049-0.13,0.091c-0.029,0.042-0.044,0.088-0.044,0.138c0,0.068,0.024,0.123,0.07,0.166
		c0.047,0.044,0.113,0.066,0.199,0.066c0.08,0,0.157-0.021,0.23-0.063c0.074-0.042,0.132-0.101,0.175-0.177
		C32.92,17.139,32.953,17.031,32.977,16.893L32.977,16.893z M34.012,17.414l-0.04,0.196c-0.057,0.016-0.113,0.023-0.168,0.023
		c-0.096,0-0.171-0.024-0.228-0.071c-0.042-0.036-0.063-0.084-0.063-0.145c0-0.031,0.01-0.102,0.034-0.214l0.173-0.823h-0.192
		l0.039-0.186h0.191l0.073-0.347l0.276-0.166l-0.109,0.512h0.237l-0.041,0.186H33.96l-0.164,0.784
		c-0.021,0.098-0.031,0.158-0.031,0.178c0,0.028,0.008,0.05,0.024,0.065c0.017,0.015,0.043,0.022,0.081,0.022
		C33.923,17.429,33.971,17.424,34.012,17.414L34.012,17.414z M34.991,17.61l0.409-1.953h0.815c0.141,0,0.247,0.016,0.318,0.048
		c0.071,0.033,0.129,0.087,0.175,0.166c0.046,0.079,0.069,0.166,0.069,0.264c0,0.081-0.016,0.163-0.05,0.246
		c-0.033,0.084-0.074,0.153-0.124,0.206c-0.05,0.055-0.101,0.096-0.153,0.123c-0.052,0.027-0.105,0.048-0.165,0.062
		c-0.126,0.029-0.252,0.044-0.38,0.044h-0.489l-0.167,0.794L34.991,17.61L34.991,17.61z M35.462,16.595h0.433
		c0.168,0,0.291-0.018,0.369-0.054c0.078-0.036,0.141-0.091,0.189-0.164c0.047-0.073,0.071-0.151,0.071-0.233
		c0-0.064-0.012-0.117-0.037-0.156c-0.025-0.041-0.06-0.07-0.105-0.089c-0.045-0.018-0.133-0.028-0.263-0.028h-0.504L35.462,16.595
		L35.462,16.595z M37.824,17.129l0.235,0.022c-0.034,0.116-0.112,0.226-0.233,0.331c-0.121,0.104-0.266,0.157-0.434,0.157
		c-0.106,0-0.202-0.024-0.289-0.071c-0.088-0.049-0.155-0.119-0.2-0.212c-0.047-0.092-0.069-0.196-0.069-0.314
		c0-0.155,0.036-0.303,0.108-0.448c0.072-0.145,0.164-0.253,0.277-0.324c0.114-0.07,0.237-0.105,0.37-0.105
		c0.169,0,0.304,0.052,0.405,0.157c0.1,0.104,0.151,0.246,0.151,0.427c0,0.069-0.006,0.139-0.018,0.212h-1.045
		c-0.004,0.027-0.005,0.052-0.005,0.074c0,0.132,0.031,0.234,0.092,0.304c0.06,0.069,0.135,0.104,0.224,0.104
		c0.082,0,0.164-0.026,0.244-0.08C37.717,17.309,37.78,17.23,37.824,17.129L37.824,17.129z M37.121,16.775h0.797
		c0.001-0.025,0.002-0.042,0.002-0.054c0-0.12-0.03-0.212-0.091-0.276c-0.06-0.063-0.139-0.096-0.234-0.096
		c-0.104,0-0.198,0.036-0.283,0.106C37.226,16.526,37.163,16.632,37.121,16.775L37.121,16.775z M38.342,17.071
		c0-0.275,0.081-0.503,0.244-0.683c0.134-0.149,0.31-0.224,0.527-0.224c0.17,0,0.308,0.053,0.412,0.16s0.157,0.25,0.157,0.431
		c0,0.162-0.033,0.313-0.099,0.451c-0.066,0.141-0.159,0.248-0.28,0.321c-0.122,0.074-0.248,0.112-0.383,0.112
		c-0.11,0-0.209-0.024-0.3-0.07c-0.09-0.047-0.159-0.114-0.206-0.199C38.366,17.283,38.342,17.184,38.342,17.071L38.342,17.071z
		 M38.582,17.048c0,0.133,0.032,0.234,0.096,0.303s0.146,0.103,0.245,0.103c0.051,0,0.103-0.01,0.153-0.031
		c0.051-0.021,0.098-0.052,0.142-0.095s0.082-0.091,0.112-0.147c0.031-0.055,0.056-0.113,0.075-0.175
		c0.027-0.088,0.041-0.172,0.041-0.253c0-0.128-0.032-0.226-0.096-0.297c-0.065-0.07-0.146-0.106-0.245-0.106
		c-0.076,0-0.145,0.018-0.207,0.054c-0.063,0.036-0.119,0.088-0.169,0.158c-0.05,0.069-0.087,0.149-0.111,0.241
		C38.594,16.894,38.582,16.976,38.582,17.048L38.582,17.048z M39.703,18.151l0.409-1.957h0.223l-0.041,0.199
		c0.082-0.086,0.156-0.146,0.222-0.179c0.065-0.033,0.134-0.05,0.207-0.05c0.135,0,0.247,0.049,0.336,0.147
		c0.089,0.099,0.133,0.238,0.133,0.422c0,0.146-0.025,0.28-0.074,0.402c-0.048,0.121-0.108,0.218-0.179,0.291
		c-0.072,0.074-0.143,0.128-0.216,0.164c-0.072,0.034-0.147,0.051-0.224,0.051c-0.17,0-0.302-0.086-0.395-0.258l-0.16,0.77h-0.241
		V18.151z M40.178,17.031c0,0.106,0.008,0.178,0.023,0.219c0.022,0.058,0.059,0.104,0.109,0.139c0.051,0.034,0.11,0.052,0.177,0.052
		c0.138,0,0.251-0.078,0.337-0.233c0.085-0.156,0.128-0.315,0.128-0.477c0-0.12-0.029-0.212-0.086-0.277
		c-0.058-0.065-0.129-0.098-0.215-0.098c-0.061,0-0.118,0.016-0.172,0.048c-0.052,0.033-0.101,0.081-0.146,0.146
		c-0.044,0.064-0.082,0.143-0.111,0.237C40.193,16.882,40.178,16.963,40.178,17.031L40.178,17.031z M41.317,17.61l0.407-1.953h0.239
		l-0.407,1.953H41.317L41.317,17.61z M42.98,17.129l0.234,0.022c-0.034,0.116-0.112,0.226-0.233,0.331
		c-0.121,0.104-0.266,0.157-0.434,0.157c-0.105,0-0.201-0.024-0.288-0.071c-0.088-0.049-0.155-0.119-0.201-0.212
		c-0.045-0.092-0.069-0.196-0.069-0.314c0-0.155,0.036-0.303,0.107-0.448c0.072-0.145,0.164-0.253,0.278-0.324
		c0.114-0.07,0.237-0.105,0.37-0.105c0.169,0,0.304,0.052,0.404,0.157c0.101,0.104,0.152,0.246,0.152,0.427
		c0,0.069-0.006,0.139-0.019,0.212h-1.045c-0.003,0.027-0.005,0.052-0.005,0.074c0,0.132,0.03,0.234,0.092,0.304
		c0.061,0.069,0.135,0.104,0.224,0.104c0.082,0,0.164-0.026,0.244-0.08C42.872,17.309,42.935,17.23,42.98,17.129L42.98,17.129z
		 M42.275,16.775h0.797c0.001-0.025,0.001-0.042,0.001-0.054c0-0.12-0.031-0.212-0.091-0.276c-0.061-0.063-0.139-0.096-0.234-0.096
		c-0.104,0-0.198,0.036-0.284,0.106C42.381,16.526,42.318,16.632,42.275,16.775L42.275,16.775z M44.774,17.414l-0.04,0.196
		c-0.058,0.016-0.113,0.023-0.167,0.023c-0.096,0-0.172-0.024-0.229-0.071c-0.042-0.036-0.064-0.084-0.064-0.145
		c0-0.031,0.011-0.102,0.035-0.214l0.172-0.823h-0.19l0.037-0.186h0.191l0.073-0.347l0.276-0.166l-0.109,0.512h0.238l-0.041,0.186
		H44.72l-0.163,0.784c-0.02,0.098-0.031,0.158-0.031,0.178c0,0.028,0.009,0.05,0.025,0.065c0.016,0.015,0.043,0.022,0.08,0.022
		C44.684,17.429,44.732,17.424,44.774,17.414L44.774,17.414z M45.012,17.071c0-0.275,0.081-0.503,0.243-0.683
		c0.134-0.149,0.309-0.224,0.527-0.224c0.17,0,0.307,0.053,0.412,0.16c0.104,0.107,0.156,0.25,0.156,0.431
		c0,0.162-0.033,0.313-0.099,0.451c-0.065,0.141-0.159,0.248-0.279,0.321c-0.121,0.074-0.248,0.112-0.382,0.112
		c-0.11,0-0.21-0.024-0.3-0.07c-0.091-0.047-0.159-0.114-0.206-0.199C45.035,17.283,45.012,17.184,45.012,17.071L45.012,17.071z
		 M45.252,17.048c0,0.133,0.031,0.234,0.097,0.303c0.063,0.069,0.146,0.103,0.245,0.103c0.052,0,0.103-0.01,0.154-0.031
		s0.098-0.052,0.142-0.095s0.081-0.091,0.112-0.147c0.031-0.055,0.056-0.113,0.075-0.175c0.028-0.088,0.041-0.172,0.041-0.253
		c0-0.128-0.032-0.226-0.096-0.297c-0.065-0.07-0.147-0.106-0.245-0.106c-0.076,0-0.145,0.018-0.207,0.054
		c-0.063,0.036-0.119,0.088-0.17,0.158c-0.05,0.069-0.087,0.149-0.111,0.241C45.264,16.894,45.252,16.976,45.252,17.048
		L45.252,17.048z M47.274,17.61l0.409-1.953h1.27l-0.046,0.222h-1.012l-0.13,0.624h1.028l-0.047,0.222h-1.028l-0.185,0.886
		L47.274,17.61L47.274,17.61z M48.893,17.61l0.408-1.953h0.238l-0.407,1.953H48.893L48.893,17.61z M49.422,18.153l0.014-0.228
		c0.05,0.014,0.099,0.022,0.146,0.022c0.049,0,0.089-0.012,0.119-0.033c0.04-0.029,0.082-0.083,0.128-0.164l0.078-0.138
		l-0.236-1.418h0.237l0.107,0.712c0.02,0.141,0.039,0.281,0.054,0.421l0.632-1.133h0.249l-0.9,1.601
		c-0.087,0.156-0.164,0.26-0.232,0.311c-0.067,0.05-0.145,0.077-0.233,0.077C49.531,18.182,49.476,18.172,49.422,18.153
		L49.422,18.153z M52.004,17.61l-0.12-1.953h0.265l0.045,0.965c0.002,0.046,0.006,0.171,0.011,0.376
		c0.003,0.057,0.004,0.096,0.005,0.12c-0.002,0.015-0.001,0.06,0.001,0.134c0.108-0.223,0.185-0.381,0.233-0.472l0.593-1.123h0.269
		l0.064,1.141c0.006,0.131,0.012,0.288,0.017,0.473c0.016-0.045,0.044-0.114,0.085-0.204c0.065-0.145,0.113-0.248,0.145-0.31
		l0.553-1.1h0.266l-0.992,1.953h-0.279L53.1,16.427c-0.007-0.101-0.012-0.226-0.018-0.375c-0.053,0.124-0.099,0.22-0.136,0.288
		l-0.673,1.269L52.004,17.61L52.004,17.61z M54.532,15.93l0.057-0.273h0.24l-0.057,0.273H54.532L54.532,15.93z M54.18,17.61
		l0.297-1.416h0.239L54.42,17.61H54.18L54.18,17.61z M55.352,17.414l-0.04,0.196c-0.057,0.016-0.114,0.023-0.167,0.023
		c-0.096,0-0.172-0.024-0.229-0.071c-0.042-0.036-0.063-0.084-0.063-0.145c0-0.031,0.012-0.102,0.034-0.214l0.172-0.823h-0.191
		l0.039-0.186h0.19l0.073-0.347l0.276-0.166l-0.109,0.512h0.237l-0.041,0.186h-0.235l-0.163,0.784
		c-0.021,0.098-0.032,0.158-0.032,0.178c0,0.028,0.009,0.05,0.025,0.065c0.016,0.015,0.044,0.022,0.081,0.022
		C55.263,17.429,55.31,17.424,55.352,17.414L55.352,17.414z M55.549,17.61l0.409-1.953h0.239l-0.157,0.75
		c0.088-0.087,0.171-0.148,0.246-0.186c0.076-0.038,0.154-0.056,0.235-0.056c0.115,0,0.204,0.031,0.269,0.092
		c0.063,0.062,0.095,0.143,0.095,0.244c0,0.05-0.015,0.141-0.045,0.274l-0.185,0.835h-0.24l0.189-0.855
		c0.027-0.124,0.041-0.202,0.041-0.234c0-0.046-0.016-0.084-0.047-0.113c-0.031-0.03-0.077-0.044-0.136-0.044
		c-0.086,0-0.167,0.023-0.245,0.069s-0.138,0.108-0.181,0.187c-0.044,0.079-0.084,0.207-0.121,0.384l-0.127,0.607L55.549,17.61
		L55.549,17.61z"/>
	<path fill-rule="evenodd" clip-rule="evenodd" fill="#01351D" d="M45.508,19.692c1.42-0.614,3.626-1.284,5.177-1.044
		c0.666,0.103,0.645,0.406-0.017,0.335C48.814,18.785,47.261,19.094,45.508,19.692L45.508,19.692z"/>
</g>
</svg>
