<?xml version="1.0" encoding="utf-8"?>
<!-- Generator: Adobe Illustrator 22.1.0, SVG Export Plug-In . SVG Version: 6.00 Build 0)  -->
<svg version="1.1" id="Слой_1" xmlns="http://www.w3.org/2000/svg" xmlns:xlink="http://www.w3.org/1999/xlink" x="0px" y="0px"
	 width="841.918px" height="240.3px" viewBox="0 0 841.918 240.3" enable-background="new 0 0 841.918 240.3" xml:space="preserve">
<g id="Слой_2_1_">
	<g>
		<path fill="#5D0974" d="M442.418,82.1v8.7h-40.5v19.1h32.7v80.4h-9.6v-5.6h-84.4v5.6h-9.6v-80.4h31.9V90.8h-39.9v-8.7
			L442.418,82.1L442.418,82.1z M424.918,176.2v-19.8h-19.4c-8.8,0-13.1-4.1-13.1-12.2v-25.8h-20.1v2.5c-0.3,19.7-7.6,34-22.1,43.1
			l-7.5-6.1c13.1-7.7,19.8-20.1,20.1-37v-2.5h-22.2v57.8H424.918L424.918,176.2z M372.318,109.9h20.1V90.8h-20.1V109.9z
			 M401.918,142.3c0,3.9,2,5.9,6.2,5.9h16.9v-29.8h-23v23.9L401.918,142.3L401.918,142.3z"/>
		<path fill="#5D0974" d="M483.818,123.1h14.1c3.9-6.9,7.2-14.2,9.9-21.9l9,2.9c-2.8,7.1-5.9,13.5-9.4,19.1h16.2v8.7h-67.1v-8.7
			h18.1c-2.4-6.5-5.2-12.5-8.6-17.9l8.8-3C478.018,107.9,481.118,114.9,483.818,123.1z M485.918,88.9c-1.6-4.1-3.2-7.9-5-11.2
			l9.9-1.6c1.5,3.7,2.9,8.1,4.4,12.8h27.4v8.7h-63.7v-8.7C458.918,88.9,485.918,88.9,485.918,88.9z M517.418,190.2h-9.5v-7h-34.3v7
			h-9.5v-47h53.3V190.2z M507.918,174.7v-23.1h-34.3v23.1H507.918z M573.718,82v6.7c-4.2,13.1-8.6,25.3-13.4,36.5
			c10,11.7,15.1,21.4,15.3,28.9c0,7.7-1.7,13.1-5.2,16.1c-3.8,3-11.1,4.6-22.1,4.6l-3.1-9.5c3.8,0.2,6.8,0.5,9.4,0.5
			c4.8-0.2,7.9-1.1,9.2-2.6c1.3-1.6,2-4.6,2.1-9.1c-0.1-7.4-5.5-16.9-15.9-28.9c4.4-9.8,8.8-21.6,13.1-35h-24v100.6h-9.4V82H573.718
			z"/>
		<path fill="#5D0974" d="M598.618,131.1V89.6h14.7c1.7-4.5,3.1-9,4-13.6l10.1,1.2c-1.1,4.5-2.4,8.6-4.2,12.3h18.4v90.1
			c0,7-3.6,10.5-10.7,10.5h-11.3l-2.4-8.3c3.9,0.2,7.5,0.5,10.9,0.5c2.9,0,4.6-1.9,4.6-5.6v-37.4h-25.3
			c-0.5,21.4-4.2,38.8-10.9,52.1l-7.5-6.4c5.9-12.2,9.1-27.4,9.5-45.7h-9v-8.2H598.618z M632.618,98h-25.2v33.1h25.2V98z
			 M628.218,169.3l-7.8,2c-2.4-8-5.6-15.6-9.4-22.8l7.5-2.2C622.118,152.9,625.318,160.5,628.218,169.3z M628.118,123.1l-7.2,1.7
			c-2.5-6.4-5.8-12.5-9.6-18.4l7-2.1C621.918,109.8,625.118,116,628.118,123.1z M653.518,166.8c1.7-5.9,2.7-14.3,2.7-25.3v-26h37.4
			v63.6c0,1.6,0.8,2.5,2.5,2.5h3.2c0.9,0,1.7-0.2,2.5-0.5c0.5-0.2,1.1-0.7,1.3-1.2c0.7-1.1,1.1-6.9,1.1-17.3l8.7,2.5
			c0,7.1-0.3,12.6-0.8,16.3c-0.5,3.1-1.6,5.4-3.3,6.6c-1.7,1-4.6,1.5-8.3,1.5h-4.7c-7.6,0-11.4-3.2-11.4-9.5v-56.4h-19.2v17.8
			c0,11.1-1.1,20.3-3.2,27.8c-2.1,7.5-6,14.8-11.8,22.1l-7.4-6.1C647.918,179.5,651.418,173.2,653.518,166.8z M672.618,92.9
			c-1.9-5.5-4-10.6-6.4-15.2l10-1.5c2.1,4.9,4.2,10.5,6.3,16.7h25.6v8.8h-60.8v-8.8C647.318,92.9,672.618,92.9,672.618,92.9z"/>
		<path fill="#5D0974" d="M830.618,140.3v8.5h-41.1v29.5h52.4v8.6h-114.4v-8.6h52.1v-29.5h-40.9v-8.5H830.618z M790.218,89.1h51.4
			v25h-9.8V97.4h-94.2V114h-9.8V89.1h52.5c-1.7-4.2-3.6-8.1-5.6-11.6l10.5-1.5C786.918,79.9,788.618,84.3,790.218,89.1z
			 M775.118,112.7c-10.5,8.7-23.5,16.1-39,21.9l-4.2-8.2c15-5.1,27.3-11.8,37.1-20.2L775.118,112.7z M835.518,127.3l-5.5,7.6
			c-12.3-9.5-25.1-16.9-38.1-22.4l5.1-7.1C811.118,111.3,824.018,118.7,835.518,127.3z"/>
	</g>
	<g>
		<g>
			
				<linearGradient id="SVGID_1_" gradientUnits="userSpaceOnUse" x1="-138.5587" y1="820.6214" x2="-67.3252" y2="595.588" gradientTransform="matrix(0.8616 -0.5076 0.5076 0.8616 -207.2375 -542.5037)">
				<stop  offset="0" style="stop-color:#6B1986"/>
				<stop  offset="1" style="stop-color:#4E0363"/>
			</linearGradient>
			<path fill="url(#SVGID_1_)" d="M90.218,239.5c-0.3,0-0.5-0.2-0.7-0.4L5.118,95.7c-6.5-11-5.6-30,2-42.2l29.9-48.4
				c0.1-0.2,0.4-0.4,0.7-0.4l0,0c0.3,0,0.5,0.2,0.7,0.4l84.5,143.4c6.5,11,5.6,30-2,42.2l-29.9,48.4
				C90.818,239.3,90.518,239.5,90.218,239.5C90.318,239.5,90.218,239.5,90.218,239.5z"/>
			<path fill="#4E0363" d="M37.718,5.5l84.5,143.4c6.4,10.8,5.5,29.3-2,41.4l-29.9,48.3L5.818,95.3c-6.4-10.8-5.5-29.3,2-41.4
				L37.718,5.5 M37.818,3.9C37.818,3.9,37.718,3.9,37.818,3.9c-0.6,0-1.1,0.3-1.4,0.8l-30,48.4c-7.7,12.5-8.6,31.8-2,43l84.5,143.4
				c0.3,0.5,0.8,0.8,1.3,0.8l0,0c0.6,0,1.1-0.3,1.4-0.8l29.9-48.4c7.7-12.5,8.6-31.8,2-43L39.118,4.7
				C38.818,4.2,38.318,3.9,37.818,3.9L37.818,3.9z"/>
		</g>
		<g>
			
				<linearGradient id="SVGID_2_" gradientUnits="userSpaceOnUse" x1="-49.3579" y1="876.0413" x2="23.0899" y2="646.1509" gradientTransform="matrix(0.8616 -0.5076 0.5076 0.8616 -207.2375 -542.5037)">
				<stop  offset="0" style="stop-color:#6B1986"/>
				<stop  offset="0.7177" style="stop-color:#4E0363"/>
			</linearGradient>
			<path fill="url(#SVGID_2_)" d="M194.118,237.5c-0.3,0-0.5-0.2-0.7-0.4l-84.5-143.4c-6.5-11-5.6-30,2-42.2l29.9-48.4
				c0.1-0.2,0.4-0.4,0.7-0.4l0,0c0.3,0,0.5,0.2,0.7,0.4l84.5,143.4c6.5,11,5.6,29.9-2,42.2l-29.9,48.4
				C194.718,237.4,194.418,237.5,194.118,237.5L194.118,237.5z"/>
			<path fill="#4E0363" d="M141.618,3.6l84.5,143.4c6.4,10.8,5.5,29.3-2,41.4l-29.9,48.4l-84.5-143.4c-6.4-10.8-5.5-29.3,2-41.4
				L141.618,3.6 M141.618,2L141.618,2c-0.6,0-1.1,0.3-1.4,0.8l-29.9,48.4c-7.7,12.5-8.6,31.8-2,43l84.5,143.4
				c0.3,0.5,0.8,0.8,1.3,0.8l0,0c0.6,0,1.1-0.3,1.4-0.8l29.9-48.4c7.7-12.5,8.6-31.8,2-43l-84.4-143.4
				C142.718,2.3,142.218,2,141.618,2L141.618,2z"/>
		</g>
		<g>
			
				<linearGradient id="SVGID_3_" gradientUnits="userSpaceOnUse" x1="40.8029" y1="824.3943" x2="113.9695" y2="697.9788" gradientTransform="matrix(0.8616 -0.5076 0.5076 0.8616 -207.2375 -542.5037)">
				<stop  offset="0" style="stop-color:#6B1986"/>
				<stop  offset="1" style="stop-color:#4E0363"/>
			</linearGradient>
			<path fill="url(#SVGID_3_)" d="M246.118,147.6c-0.3,0-0.5-0.2-0.7-0.4l-32.6-55.4c-6.5-11-5.6-29.9,2-42.2l29.9-48.4
				c0.1-0.2,0.4-0.4,0.7-0.4l0,0c0.3,0,0.5,0.2,0.7,0.4l32.7,55.4c6.5,11,5.6,30-2,42.2l-29.9,48.4
				C246.718,147.5,246.418,147.6,246.118,147.6L246.118,147.6z"/>
			<path fill="#4E0363" d="M245.418,1.7l32.6,55.4c6.4,10.8,5.5,29.3-2,41.4l-29.9,48.4l-32.6-55.4c-6.4-10.8-5.5-29.3,2-41.4
				L245.418,1.7 M245.518,0L245.518,0c-0.6,0-1.1,0.3-1.4,0.8l-29.9,48.4c-7.7,12.5-8.6,31.8-2,43l32.6,55.4
				c0.3,0.5,0.8,0.8,1.3,0.8l0,0c0.6,0,1.1-0.3,1.4-0.8l29.9-48.4c7.7-12.5,8.6-31.8,2-43l-32.6-55.4
				C246.518,0.4,246.018,0.1,245.518,0L245.518,0z"/>
		</g>
		<g>
			
				<linearGradient id="SVGID_4_" gradientUnits="userSpaceOnUse" x1="-36.7016" y1="663.126" x2="69.7415" y2="663.126" gradientTransform="matrix(0.8616 -0.5076 0.5076 0.8616 -207.2375 -542.5037)">
				<stop  offset="0" style="stop-color:#6B1986"/>
				<stop  offset="0.1105" style="stop-color:#DB070E"/>
				<stop  offset="1" style="stop-color:#B1131F"/>
			</linearGradient>
			<path fill="url(#SVGID_4_)" d="M106.418,62.2c1.8-6.6,4.9-11.5,14.4-26.7c4.9-7.8,11.7-18.5,20.8-33.6c0.1-0.2,0.3-0.3,0.4-0.3
				l52.3,0.1C181.018,8.9,123.118,42.3,106.418,62.2z"/>
			<path fill="#B1131F" d="M142.218,2.4L142.218,2.4L142.218,2.4 M142.118,2.5h49.2c-16.2,8.7-64.8,37.6-83.1,56.5
				c1.9-5.1,5.3-10.5,13.2-23C126.318,28.2,133.018,17.5,142.118,2.5 M142.018,0.9c-0.5,0-0.9,0.2-1.2,0.6
				c-30,49.4-33.6,51.2-36.1,64.2c14.1-21.6,92.6-64.6,92.6-64.6L142.018,0.9L142.018,0.9L142.018,0.9z"/>
		</g>
	</g>
</g>
</svg>
