<?xml version="1.0" encoding="utf-8"?>
<!-- Generator: Adobe Illustrator 22.1.0, SVG Export Plug-In . SVG Version: 6.00 Build 0)  -->
<svg version="1.1" id="Слой_1" xmlns="http://www.w3.org/2000/svg" xmlns:xlink="http://www.w3.org/1999/xlink" x="0px" y="0px"
	 width="216px" height="40px" viewBox="0 0 216 40" enable-background="new 0 0 216 40" xml:space="preserve">
<g>
	<path fill="#111111" d="M94.404,10.667c-2.325,0-3.799,1.233-4.69,2.505l0.27-1.93h-5.737L79.94,40h6.36l1.59-10.518
		c0.736,1.11,2.093,2.056,4.188,2.056c4.186,0,6.745-4.067,7.598-10.066C100.531,15.925,99.29,10.667,94.404,10.667z M93.473,21.061
		c-0.464,3.247-1.358,4.684-2.908,4.684c-0.891,0-1.589-0.575-1.9-1.437l0.969-6.45c0.583-0.823,1.357-1.399,2.288-1.399
		C93.512,16.459,93.9,18.226,93.473,21.061z"/>
	<path fill="#111111" d="M123.902,1.333l-14.649,29.334h2.624l3.937-7.837h12.236l1.355,7.837h2.498l-5.25-29.334H123.902z
		 M116.916,20.525l6.436-12.865c0.549-1.147,1.071-2.307,1.566-3.478c0.168,1.174,0.254,2.264,0.466,3.395l2.286,12.948H116.916z"/>
	<path fill="#111111" d="M210.107,12.698c2.033,0,3.75,0.439,5.33,1.395l0.406-2.111c-1.581-0.837-3.614-1.315-5.871-1.315
		c-3.885,0-7.137,1.593-7.678,4.66c-1.176,6.535,10.704,5.58,9.846,10.279c-0.408,2.113-2.665,2.988-5.646,2.988
		c-2.44,0-4.561-0.518-6.232-1.593l-0.407,2.151c1.58,0.997,3.884,1.515,6.683,1.515c3.93,0,7.454-1.275,8.085-4.74
		c1.22-6.655-10.704-5.5-9.845-10.24C205.184,13.695,207.396,12.698,210.107,12.698z"/>
	<polygon fill="#111111" points="94.403,10.667 94.404,10.667 94.404,10.667 	"/>
	<path fill="#111111" d="M47.148,21.342l-1.468-11.17H34.003l-4.13,6.87h-1.43l2.462-15.709h-6.512l-2.956,18.858
		c-0.41-8.227-11.829-7.699-11.307-11.429c0.26-1.432,1.782-2.022,3.825-2.022c2.565,0,5.218,0.8,7.607,2.274l1.088-6.865
		C20.085,0.758,17.216,0,14.086,0C8.477,0,3.479,2.4,2.564,8.004c-1.607,10.11,11.609,9.603,10.957,13.604
		c-0.219,1.518-2.261,2.15-4.435,2.15c-2.739,0-5.65-0.885-7.869-2.274L0,28.686c2.783,1.347,5.695,1.98,9.348,1.98
		c5.341,0,9.743-1.721,11.417-6.186l-0.78,4.978h6.512l1.073-6.75H29l2.302,6.75h6.83l-3.335-9.242l4.645-7.21l3.656,16.372
		c-0.793,1.607-1.31,2.289-2.025,2.813c-0.833,0.522-1.787,0.762-3.136,0.482l-0.874,5.624c2.819,0.724,5.242,0.361,7.187-0.883
		c1.786-1.165,3.217-2.975,4.328-5.464l10.046-21.778h-7.386L47.148,21.342z"/>
	<path fill="#111111" d="M83.938,1.334l0.001-0.001H77.01l-2.884,18.774c-0.4,2.588-1.881,3.821-4.285,3.821
		c-2.121,0-3.203-0.986-2.803-3.492l2.964-19.103h-6.889l-3.003,19.39c-1,6.368,2.924,9.944,9.13,9.944
		c6.729,0,10.613-2.876,11.614-9.573L83.938,1.334z"/>
	<path fill="#111111" d="M144.385,14.796l0.595-3.713h-2.064l-3.018,19.584h2.263l1.866-11.873c1.589-4.283,4.368-6.038,7.465-5.794
		l0.397-2.324C148.792,10.553,146.052,11.656,144.385,14.796z"/>
	<path fill="#111111" d="M166.527,6.21c0.154-1.368-0.718-2.21-1.846-2.21c-0.975,0-1.898,0.632-2.103,1.842
		C162.372,7.262,163.244,8,164.373,8C165.349,8,166.323,7.472,166.527,6.21z"/>
	<path fill="#111111" d="M176.97,10.667c-2.918,0-5.226,1.303-6.663,3.177l0.479-2.73h-2.263l-3.31,19.553h2.481l2.308-13.645
		c1.176-2.16,3.529-4.237,6.315-4.237c2.482,0,4.181,1.425,3.615,4.644l-2.221,13.238h2.48l2.221-13.198
		C183.109,13.355,180.715,10.667,176.97,10.667z"/>
	<polygon fill="#111111" points="158.55,30.667 160.812,30.667 163.88,10.667 161.62,10.667 	"/>
	<polygon fill="#111111" points="156.382,0 151.889,30.667 154.058,30.667 158.55,0 	"/>
	<path fill="#111111" d="M141.212,6.21c0.154-1.368-0.718-2.21-1.845-2.21c-0.975,0-1.899,0.632-2.104,1.842
		C137.056,7.262,137.929,8,139.059,8C140.033,8,141.008,7.472,141.212,6.21z"/>
	<path fill="#111111" d="M193.682,10.667c-4.85,0-8.624,3.786-9.618,9.84c-0.997,6.174,1.782,10.16,7.795,10.16
		c1.576,0,3.275-0.279,4.893-0.997l0.373-2.191c-1.66,0.757-3.276,1.076-5.059,1.076c-3.938,0-6.136-2.112-5.764-6.774h12.937
		C200.979,15.448,198.989,10.667,193.682,10.667z M197.333,19.789L197.333,19.789l-10.7,0.001c0.582-2.51,2.49-6.971,6.967-6.971
		C196.96,12.819,198.161,15.567,197.333,19.789z"/>
	<polygon fill="#111111" points="133.236,30.667 135.496,30.667 138.566,10.667 136.305,10.667 	"/>
</g>
</svg>
