<?xml version="1.0" encoding="utf-8"?>
<!-- Generator: Adobe Illustrator 12.0.0, SVG Export Plug-In  -->
<!DOCTYPE svg PUBLIC "-//W3C//DTD SVG 1.1//EN" "http://www.w3.org/Graphics/SVG/1.1/DTD/svg11.dtd" [
	<!ENTITY ns_flows "http://ns.adobe.com/Flows/1.0/">
	<!ENTITY ns_svg "http://www.w3.org/2000/svg">
	<!ENTITY ns_xlink "http://www.w3.org/1999/xlink">
]>
<svg  version="1.1" xmlns="&ns_svg;" xmlns:xlink="&ns_xlink;" xmlns:a="http://ns.adobe.com/AdobeSVGViewerExtensions/3.0/"
	 width="267" height="124" viewBox="-0.2495117 -0.5 267 124" enable-background="new -0.2495117 -0.5 267 124"
	 xml:space="preserve">
<defs>
</defs>
<path fill="#CA0000" d="M101.6708984,27.1494141v9.0517578h-0.6801758
	c-0.2202148-1.7373047-0.6152344-3.1201172-1.1850586-4.1494141c-0.5693359-1.0292969-1.3808594-1.8461914-2.434082-2.4511719
	c-1.0537109-0.6044922-2.144043-0.9072266-3.2705078-0.9072266c-1.2744141,0-2.3276367,0.4086914-3.1601563,1.2255859
	c-0.8330078,0.8173828-1.2495117,1.746582-1.2495117,2.7890625c0,0.7978516,0.2631836,1.5244141,0.7900391,2.1806641
	c0.7592773,0.9648438,2.565918,2.2519531,5.4204102,3.8598633c2.3266602,1.3125,3.9160156,2.3193359,4.7675781,3.0205078
	c0.8510742,0.7011719,1.5063477,1.527832,1.9658203,2.4799805s0.6889648,1.9492188,0.6889648,2.9912109
	c0,1.9819336-0.7319336,3.6899414-2.1953125,5.1240234c-1.4638672,1.4350586-3.347168,2.1523438-5.6499023,2.1523438
	c-0.7226563,0-1.402832-0.0581055-2.0395508-0.1738281c-0.3798828-0.0644531-1.1665039-0.2993164-2.3608398-0.7045898
	s-1.9506836-0.6079102-2.269043-0.6079102c-0.3066406,0-0.5483398,0.0966797-0.7255859,0.2895508
	c-0.1777344,0.1928711-0.3095703,0.5917969-0.3950195,1.1967773h-0.6801758v-8.9746094h0.6801758
	c0.3183594,1.8789063,0.746582,3.2841797,1.2861328,4.2167969c0.5385742,0.9331055,1.3623047,1.7080078,2.4711914,2.3256836
	c1.1083984,0.6176758,2.3237305,0.9267578,3.6469727,0.9267578c1.5307617,0,2.7402344-0.4248047,3.628418-1.2739258
	s1.3320313-1.8530273,1.3320313-3.0107422c0-0.6435547-0.168457-1.2929688-0.5053711-1.9492188
	s-0.8603516-1.2670898-1.5708008-1.8334961c-0.4775391-0.3862305-1.7817383-1.206543-3.9135742-2.4609375
	c-2.1308594-1.2543945-3.6469727-2.2548828-4.546875-3.0009766c-0.9003906-0.7460938-1.5834961-1.5698242-2.0488281-2.4702148
	c-0.4658203-0.9003906-0.6982422-1.8916016-0.6982422-2.972168c0-1.878418,0.6860352-3.496582,2.0576172-4.8540039
	c1.3720703-1.3574219,3.1171875-2.0361328,5.2363281-2.0361328c1.3232422,0,2.7255859,0.3413086,4.2080078,1.0229492
	c0.6855469,0.3217773,1.1694336,0.4824219,1.4511719,0.4824219c0.3183594,0,0.5786133-0.0996094,0.7807617-0.2993164
	c0.2021484-0.1992188,0.3642578-0.6010742,0.4868164-1.2060547H101.6708984z"/>
<path fill="#CA0000" d="M125.7949219,27.7480469l0.2753906,6.137207h-0.6982422
	c-0.1347656-1.0810547-0.3183594-1.8530273-0.5512695-2.3164063c-0.3793945-0.7456055-0.8847656-1.2958984-1.515625-1.6499023
	c-0.6308594-0.3535156-1.4604492-0.5307617-2.4897461-0.5307617h-3.5087891v19.9946289
	c0,1.6083984,0.1650391,2.6118164,0.4956055,3.0107422c0.4658203,0.5400391,1.1821289,0.8105469,2.1499023,0.8105469h0.8632813
	v0.7138672h-10.5644531v-0.7138672h0.8818359c1.0537109,0,1.8007813-0.3344727,2.2416992-1.0039063
	c0.2695313-0.4116211,0.4042969-1.3505859,0.4042969-2.8173828V29.3881836h-2.9951172
	c-1.1635742,0-1.9902344,0.090332-2.4799805,0.2700195c-0.637207,0.2446289-1.1821289,0.7143555-1.6352539,1.4091797
	c-0.4536133,0.6948242-0.7231445,1.6337891-0.8085938,2.8178711h-0.6982422l0.2939453-6.137207H125.7949219z"/>
<path fill="#CA0000" d="M139.9018555,45.1557617h-9.6459961l-1.6899414,4.1303711
	c-0.4169922,1.0166016-0.625,1.7753906-0.625,2.2773438c0,0.3989258,0.1806641,0.7495117,0.5419922,1.0517578
	c0.3613281,0.3027344,1.1420898,0.4990234,2.3427734,0.5888672v0.7138672h-7.8457031v-0.7138672
	c1.0410156-0.1928711,1.7148438-0.4443359,2.0214844-0.7529297c0.6245117-0.6176758,1.3164063-1.8720703,2.0761719-3.7631836
	l8.7636719-21.5385742h0.6430664l8.6723633,21.7700195c0.6982422,1.75,1.3320313,2.8852539,1.9013672,3.40625
	s1.3623047,0.8139648,2.3798828,0.878418v0.7138672h-9.8300781v-0.7138672
	c0.9921875-0.0512695,1.6625977-0.2250977,2.0117188-0.5214844c0.3491211-0.2958984,0.5239258-0.65625,0.5239258-1.0805664
	c0-0.565918-0.2451172-1.4599609-0.7348633-2.6826172L139.9018555,45.1557617z M139.387207,43.7280273l-4.2255859-10.5761719
	l-4.3359375,10.5761719H139.387207z"/>
<path fill="#CA0000" d="M173.965332,53.9179688h-6.6513672l-8.4326172-12.2358398
	c-0.625,0.0258789-1.1337891,0.0385742-1.5253906,0.0385742c-0.1591797,0-0.3310547-0.0029297-0.5146484-0.0097656
	c-0.1835938-0.0063477-0.3730469-0.0161133-0.5693359-0.0288086v7.6040039c0,1.6469727,0.1708984,2.6699219,0.5146484,3.0688477
	c0.4658203,0.565918,1.1630859,0.8491211,2.0947266,0.8491211h0.9736328v0.7138672h-10.6748047v-0.7138672h0.9365234
	c1.0537109,0,1.8066406-0.3603516,2.2607422-1.0810547c0.2568359-0.3984375,0.3857422-1.3442383,0.3857422-2.8369141v-16.90625
	c0-1.6469727-0.171875-2.6699219-0.5146484-3.0688477c-0.4775391-0.565918-1.1884766-0.8491211-2.1318359-0.8491211h-0.9365234
	v-0.7138672h9.0761719c2.6455078,0,4.5957031,0.2021484,5.8515625,0.6074219
	c1.2558594,0.4057617,2.3212891,1.1518555,3.1972656,2.2387695c0.875,1.0878906,1.3134766,2.3837891,1.3134766,3.8891602
	c0,1.6083984-0.4990234,3.0043945-1.4970703,4.1879883c-0.9990234,1.184082-2.5449219,2.0200195-4.6396484,2.5087891
	l5.1445313,7.5078125c1.1757813,1.7241211,2.1865234,2.8691406,3.0322266,3.4350586
	c0.8447266,0.5664063,1.9472656,0.9267578,3.3066406,1.0810547V53.9179688z M156.2719727,40.4663086
	c0.2324219,0,0.4345703,0.003418,0.6064453,0.0097656c0.1708984,0.0063477,0.3125,0.0092773,0.4228516,0.0092773
	c2.3759766,0,4.1669922-0.5400391,5.3740234-1.6210938c1.2060547-1.0805664,1.8095703-2.4570313,1.8095703-4.1298828
	c0-1.6337891-0.4863281-2.9624023-1.4609375-3.9853516c-0.9736328-1.0229492-2.2626953-1.5341797-3.8671875-1.5341797
	c-0.7109375,0-1.671875,0.1220703-2.8847656,0.3662109V40.4663086z"/>
<path fill="#CA0000" d="M193.8881836,46.6806641l0.6064453,0.1352539l-2.1308594,7.1020508h-19.2919922v-0.7138672h0.9365234
	c1.0537109,0,1.8066406-0.3603516,2.2597656-1.0810547c0.2578125-0.4116211,0.3867188-1.3637695,0.3867188-2.8564453V32.3798828
	c0-1.6337891-0.171875-2.6572266-0.5146484-3.0688477c-0.4775391-0.565918-1.1884766-0.8491211-2.1318359-0.8491211h-0.9365234
	v-0.7138672h11.28125v0.7138672c-1.3232422-0.0126953-2.2509766,0.1157227-2.7841797,0.3857422
	c-0.5322266,0.2705078-0.8974609,0.6113281-1.0927734,1.0229492c-0.1962891,0.4121094-0.2939453,1.3964844-0.2939453,2.953125
	v16.4428711c0,1.0683594,0.0976563,1.8017578,0.2939453,2.2001953c0.1464844,0.2705078,0.3730469,0.4702148,0.6796875,0.5986328
	s1.2617188,0.1928711,2.8662109,0.1928711h1.8193359c1.9101563,0,3.2519531-0.1479492,4.0234375-0.4438477
	s1.4755859-0.8203125,2.1132813-1.5732422C192.6147461,49.4887695,193.2514648,48.3017578,193.8881836,46.6806641z"/>
<path fill="#CA0000" d="M205.6040039,53.2041016v0.7138672h-10.6748047v-0.7138672h0.8818359
	c1.0283203,0,1.7753906-0.3154297,2.2412109-0.9458008c0.2939453-0.4116211,0.4414063-1.4023438,0.4414063-2.972168v-16.90625
	c0-1.3251953-0.0800781-2.2001953-0.2392578-2.625c-0.1220703-0.3212891-0.3740234-0.5981445-0.7529297-0.8300781
	c-0.5390625-0.3085938-1.1025391-0.4628906-1.6904297-0.4628906h-0.8818359v-0.7138672h10.6748047v0.7138672h-0.9003906
	c-1.0166016,0-1.7578125,0.3154297-2.2236328,0.9458008c-0.3056641,0.4116211-0.4589844,1.4023438-0.4589844,2.972168v16.90625
	c0,1.3251953,0.0800781,2.2001953,0.2392578,2.6245117c0.1220703,0.3217773,0.3789063,0.5986328,0.7714844,0.8300781
	c0.5263672,0.309082,1.0839844,0.4633789,1.671875,0.4633789H205.6040039z"/>
<path fill="#CA0000" d="M204.7084961,27.7480469h6.7617188l15.2314453,19.6274414V32.2832031
	c0-1.6083984-0.171875-2.6118164-0.5146484-3.0107422c-0.453125-0.5405273-1.1699219-0.8105469-2.1494141-0.8105469h-0.8632813
	v-0.7138672h8.671875v0.7138672h-0.8818359c-1.0537109,0-1.8007813,0.3349609-2.2421875,1.003418
	c-0.2695313,0.4121094-0.4033203,1.3510742-0.4033203,2.8178711v22.0595703h-0.6621094L211.230957,33.2675781v16.1152344
	c0,1.6083984,0.1660156,2.6118164,0.4960938,3.0107422c0.4658203,0.5400391,1.1826172,0.8105469,2.1503906,0.8105469h0.8818359
	v0.7138672h-8.6728516v-0.7138672h0.8642578c1.0654297,0,1.8183594-0.3344727,2.2597656-1.0039063
	c0.2695313-0.4116211,0.4042969-1.3505859,0.4042969-2.8173828v-18.199707
	c-0.7236328-0.8876953-1.2714844-1.4731445-1.6445313-1.7563477c-0.3740234-0.2827148-0.921875-0.5463867-1.6445313-0.7910156
	c-0.3554688-0.1157227-0.8945313-0.1738281-1.6171875-0.1738281V27.7480469z"/>
<path fill="#CA0000" d="M242.300293,39.4047852l9.1865234,9.5917969c1.5058594,1.5825195,2.7929688,2.6606445,3.8583984,3.2329102
	s2.1308594,0.8974609,3.1962891,0.9746094v0.7138672H246.690918v-0.7138672c0.7109375,0,1.2216797-0.1254883,1.5341797-0.3764648
	s0.46875-0.5307617,0.46875-0.8393555c0-0.309082-0.0585938-0.5854492-0.1748047-0.8300781
	c-0.1162109-0.2441406-0.4990234-0.7011719-1.1484375-1.3701172l-8.5986328-8.9360352v8.434082
	c0,1.3251953,0.0800781,2.2001953,0.2392578,2.6245117c0.1220703,0.3217773,0.3798828,0.5986328,0.7714844,0.8300781
	c0.5263672,0.309082,1.0839844,0.4633789,1.671875,0.4633789h0.8457031v0.7138672h-10.6201172v-0.7138672h0.8818359
	c1.0292969,0,1.7763672-0.3154297,2.2421875-0.9458008c0.2929688-0.4116211,0.4404297-1.4023438,0.4404297-2.972168v-16.90625
	c0-1.3251953-0.0800781-2.206543-0.2392578-2.644043c-0.1220703-0.309082-0.3730469-0.5791016-0.7529297-0.8110352
	c-0.5390625-0.3085938-1.1025391-0.4628906-1.6904297-0.4628906h-0.8818359v-0.7138672h10.6201172v0.7138672h-0.8457031
	c-0.5751953,0-1.1328125,0.1479492-1.671875,0.4438477c-0.3798828,0.2060547-0.6425781,0.5146484-0.7900391,0.9262695
	c-0.1464844,0.4121094-0.2207031,1.2612305-0.2207031,2.5478516v8.0092773
	c0.2451172-0.2441406,1.0839844-1.0615234,2.5175781-2.4511719c3.6376953-3.4995117,5.8359375-5.8349609,6.5957031-7.0058594
	c0.3310547-0.5146484,0.4960938-0.9648438,0.4960938-1.3510742c0-0.2958984-0.1289063-0.5561523-0.3857422-0.78125
	s-0.6923828-0.3378906-1.3046875-0.3378906h-0.5693359v-0.7138672h9.1494141v0.7138672
	c-0.5390625,0.0126953-1.0283203,0.0898438-1.4697266,0.2314453c-0.4404297,0.1416016-0.9794922,0.4150391-1.6162109,0.8203125
	c-0.6376953,0.4052734-1.421875,1.0585938-2.3525391,1.9589844c-0.2695313,0.2573242-1.5126953,1.5761719-3.7294922,3.956543
	L242.300293,39.4047852z"/>
<path fill="#161470" d="M41.2910156,116.1181641V89.2304688c0,0,18.9350586-8.7392578,18.9350586-23.8637695
	c0-15.125-19.769043-33.0732422-19.769043-33.0732422S74.019043,42.28125,74.019043,66.9863281
	C74.019043,91.6894531,41.2910156,116.1181641,41.2910156,116.1181641z"/>
<path fill="#161470" d="M41.2700195,5.9501953v26.8876953c0,0-18.934082,8.7382813-18.934082,23.8632813
	s19.5654297,33.0732422,19.5654297,33.0732422S8.5415039,79.7861328,8.5415039,55.0830078
	C8.5415039,30.3779297,41.2700195,5.9501953,41.2700195,5.9501953z"/>
<path fill="#161470" d="M133.5141602,79.9404297h-5.6132813l-0.9760742,2.3642578
	c-0.2407227,0.5878906-0.3608398,1.0273438-0.3608398,1.3183594c0,0.2294922,0.1040039,0.4335938,0.3129883,0.609375
	c0.2084961,0.1748047,0.6591797,0.2880859,1.3515625,0.3398438v0.4042969h-4.5341797v-0.4042969
	c0.6000977-0.1113281,0.9892578-0.2578125,1.1655273-0.4375c0.3608398-0.3603516,0.7597656-1.0888672,1.1982422-2.1894531
	l5.1235352-12.4086914h0.3823242l4.965332,12.5561523c0.4018555,1.0117188,0.7675781,1.6699219,1.0961914,1.9716797
	s0.7856445,0.4707031,1.3725586,0.5078125v0.4042969h-5.6708984v-0.4042969
	c0.5732422-0.0292969,0.9594727-0.1298828,1.1606445-0.3007813c0.2011719-0.171875,0.3017578-0.3798828,0.3017578-0.625
	c0-0.328125-0.1411133-0.84375-0.4238281-1.5517578L133.5141602,79.9404297z M133.1860352,79.109375l-2.4169922-6.1015625
	l-2.5244141,6.1015625H133.1860352z M151.0307617,69.8691406v0.4038086
	c-0.5087891,0.097168-0.8935547,0.2680664-1.1552734,0.5136719c-0.3740234,0.3647461-0.7060547,0.9223633-0.9960938,1.6748047
	l-4.9863281,12.847168h-0.4003906l-5.3740234-13.0004883c-0.2753906-0.6743164-0.4692383-1.0869141-0.5820313-1.2373047
	c-0.1777344-0.2319336-0.3950195-0.4140625-0.652832-0.5444336c-0.2578125-0.1313477-0.605957-0.2158203-1.0429688-0.253418
	v-0.4038086h5.8642578v0.4038086c-0.6650391,0.0673828-1.0957031,0.1860352-1.293457,0.3564453
	s-0.296875,0.3896484-0.296875,0.6567383c0,0.371582,0.1621094,0.9501953,0.487793,1.7368164L144.2612305,81.875
	l3.3916016-8.7407227c0.3310547-0.8603516,0.4970703-1.4580078,0.4970703-1.7924805
	c0-0.215332-0.1025391-0.4208984-0.3066406-0.6186523c-0.2060547-0.1953125-0.5517578-0.3349609-1.0380859-0.4165039
	c-0.0361328-0.0073242-0.0957031-0.019043-0.1806641-0.0336914v-0.4038086H151.0307617z M157.2758789,84.5722656v0.4042969
	h-6.1455078v-0.4042969h0.5058594c0.5917969,0,1.0214844-0.1826172,1.2890625-0.5498047
	c0.1689453-0.2412109,0.2529297-0.8164063,0.2529297-1.7304688v-9.7387695c0-0.7709961-0.0449219-1.2802734-0.1367188-1.5273438
	c-0.0703125-0.1870117-0.2148438-0.3486328-0.4326172-0.4838867c-0.3105469-0.1796875-0.6337891-0.269043-0.9726563-0.269043
	h-0.5058594v-0.4038086h6.1455078v0.4038086h-0.5146484c-0.5820313,0-1.0048828,0.1835938-1.2714844,0.5498047
	c-0.1748047,0.2402344-0.2626953,0.8168945-0.2626953,1.7304688v9.7387695c0,0.7714844,0.0458984,1.28125,0.1376953,1.5283203
	c0.0693359,0.1875,0.2158203,0.3476563,0.4404297,0.4824219c0.3007813,0.1796875,0.6201172,0.2695313,0.9560547,0.2695313
	H157.2758789z M167.0209961,79.9404297h-5.6142578l-0.9755859,2.3642578
	c-0.2402344,0.5878906-0.3613281,1.0273438-0.3613281,1.3183594c0,0.2294922,0.1044922,0.4335938,0.3125,0.609375
	c0.2099609,0.1748047,0.6601563,0.2880859,1.3525391,0.3398438v0.4042969h-4.5351563v-0.4042969
	c0.6005859-0.1113281,0.9892578-0.2578125,1.1669922-0.4375c0.359375-0.3603516,0.7587891-1.0888672,1.1982422-2.1894531
	l5.1230469-12.4086914h0.3818359l4.9648438,12.5561523c0.4023438,1.0117188,0.7685547,1.6699219,1.0976563,1.9716797
	c0.3271484,0.3017578,0.7851563,0.4707031,1.3720703,0.5078125v0.4042969h-5.6708984v-0.4042969
	c0.5722656-0.0292969,0.9599609-0.1298828,1.1611328-0.3007813c0.2011719-0.171875,0.3017578-0.3798828,0.3017578-0.625
	c0-0.328125-0.1416016-0.84375-0.4238281-1.5517578L167.0209961,79.9404297z M166.6928711,79.109375l-2.4179688-6.1015625
	l-2.5244141,6.1015625H166.6928711z M182.1362305,69.8691406l0.1591797,3.5444336h-0.4023438
	c-0.078125-0.6235352-0.1845703-1.0693359-0.3193359-1.3359375c-0.2177734-0.4306641-0.5097656-0.7480469-0.8740234-0.9521484
	c-0.3632813-0.2045898-0.8417969-0.3066406-1.4355469-0.3066406h-2.0234375v11.5444336
	c0,0.9306641,0.0966797,1.5107422,0.2900391,1.7412109c0.2705078,0.3115234,0.6894531,0.4677734,1.2539063,0.4677734h0.5048828
	v0.4042969h-6.1455078v-0.4042969h0.5117188c0.6113281,0,1.0449219-0.1933594,1.3017578-0.5791016
	c0.15625-0.2392578,0.234375-0.78125,0.234375-1.6298828V70.8188477h-1.7285156c-0.671875,0-1.1503906,0.0522461-1.4326172,0.15625
	c-0.3681641,0.1411133-0.6826172,0.4125977-0.9433594,0.8129883c-0.2626953,0.4008789-0.4179688,0.9428711-0.4677734,1.6254883
	h-0.4023438l0.1601563-3.5444336H182.1362305z M188.7573242,84.5722656v0.4042969h-6.1455078v-0.4042969h0.5058594
	c0.5917969,0,1.0205078-0.1826172,1.2880859-0.5498047c0.1699219-0.2412109,0.2539063-0.8164063,0.2539063-1.7304688v-9.7387695
	c0-0.7709961-0.0458984-1.2802734-0.1376953-1.5273438c-0.0703125-0.1870117-0.2148438-0.3486328-0.4316406-0.4838867
	c-0.3105469-0.1796875-0.6337891-0.269043-0.9726563-0.269043h-0.5058594v-0.4038086h6.1455078v0.4038086h-0.515625
	c-0.5810547,0-1.0048828,0.1835938-1.2705078,0.5498047c-0.1767578,0.2402344-0.2626953,0.8168945-0.2626953,1.7304688v9.7387695
	c0,0.7714844,0.0449219,1.28125,0.1367188,1.5283203c0.0693359,0.1875,0.2158203,0.3476563,0.4404297,0.4824219
	c0.3007813,0.1796875,0.6201172,0.2695313,0.9560547,0.2695313H188.7573242z M196.480957,69.5366211
	c1.8613281,0,3.4746094,0.7426758,4.8398438,2.230957c1.3632813,1.4853516,2.046875,3.3408203,2.046875,5.565918
	c0,2.2915039-0.6884766,4.1938477-2.0634766,5.706543c-1.375,1.5117188-3.0400391,2.2685547-4.9921875,2.2685547
	c-1.9746094,0-3.6337891-0.7373047-4.9765625-2.2128906c-1.34375-1.4755859-2.0146484-3.3852539-2.0146484-5.7290039
	c0-2.394043,0.7744141-4.3481445,2.3261719-5.8608398C192.9936523,70.1933594,194.6049805,69.5366211,196.480957,69.5366211z
	 M196.2797852,70.3198242c-1.2832031,0-2.3134766,0.5024414-3.0888672,1.5058594
	c-0.9667969,1.2490234-1.4492188,3.0766602-1.4492188,5.4853516c0,2.4682617,0.5,4.3666992,1.5009766,5.6977539
	c0.7705078,1.0107422,1.7851563,1.515625,3.0478516,1.515625c1.3466797,0,2.4589844-0.5537109,3.3378906-1.6611328
	c0.8779297-1.1064453,1.3183594-2.8535156,1.3183594-5.2397461c0-2.5864258-0.484375-4.5161133-1.4501953-5.7861328
	C198.7202148,70.8261719,197.6489258,70.3198242,196.2797852,70.3198242z M203.1723633,69.8691406h3.9082031l8.765625,11.3110352
	v-8.6987305c0-0.9291992-0.0996094-1.5097656-0.2988281-1.7402344c-0.2636719-0.3115234-0.6787109-0.4682617-1.2470703-0.4682617
	h-0.5019531v-0.4038086h5.0273438v0.4038086h-0.5117188c-0.6123047,0-1.0449219,0.1933594-1.3007813,0.5800781
	c-0.1582031,0.2382813-0.2363281,0.78125-0.2363281,1.628418v12.7402344h-0.3808594l-9.4619141-12.1821289v9.3237305
	c0,0.9306641,0.0966797,1.5107422,0.2880859,1.7412109c0.2705078,0.3115234,0.6865234,0.4677734,1.2480469,0.4677734h0.5126953
	v0.4042969h-5.0283203v-0.4042969h0.5019531c0.6191406,0,1.0556641-0.1933594,1.3115234-0.5791016
	c0.15625-0.2392578,0.234375-0.78125,0.234375-1.6298828V71.840332c-0.4160156-0.5107422-0.7324219-0.8476563-0.9472656-1.0117188
	c-0.2158203-0.1625977-0.5322266-0.3139648-0.9492188-0.4555664c-0.2050781-0.0664063-0.515625-0.1000977-0.9335938-0.1000977
	V69.8691406z M258.1157227,66.28125H86.0673828v23.4208984h172.0483398V66.28125z"/>
<path fill="#3C439C" d="M41.9013672,89.7744141c0,0-19.5654297-17.9482422-19.5654297-33.0732422
	C19.7397461,75.8417969,33.3500977,84.4394531,41.9013672,89.7744141z"/>
<path fill="#3C439C" d="M8.5415039,55.0830078c0-24.7050781,32.7285156-49.1328125,32.7285156-49.1328125s0,0,0,6.1074219
	C37.3193359,15.4633789,14.7592773,30.3613281,8.5415039,55.0830078z"/>
<path fill="#3C439C" d="M73.8540039,67.0263672c0-15.1254883-33.3969727-34.7329102-33.3969727-34.7329102
	S74.019043,42.28125,74.019043,66.9863281"/>
<path fill="#3C439C" d="M41.2910156,98.4892578v-9.2587891c0,0,18.9350586-8.7392578,18.9350586-23.8637695
	C60.2260742,65.3666992,61.5820313,80.1630859,41.2910156,98.4892578z"/>
<rect opacity="0" fill="#161470" width="266.4995117" height="123"/>
</svg>
