<?xml version="1.0" encoding="utf-8"?>
<!-- Generator: Adobe Illustrator 16.0.4, SVG Export Plug-In . SVG Version: 6.00 Build 0)  -->
<!DOCTYPE svg PUBLIC "-//W3C//DTD SVG 1.1//EN" "http://www.w3.org/Graphics/SVG/1.1/DTD/svg11.dtd">
<svg version="1.1" id="Layer_1" xmlns="http://www.w3.org/2000/svg" xmlns:xlink="http://www.w3.org/1999/xlink" x="0px" y="0px"
	 width="250px" height="45px" viewBox="0 0 250 45" enable-background="new 0 0 250 45" xml:space="preserve">
<g>
	<path fill="#9C1A2E" d="M53.691,32.209l1.193-3.328h15.009c0.875,0,1.7-0.155,2.451-0.463c0.817-0.354,1.339-0.832,1.548-1.417
		c0.188-0.525,0.048-0.873-0.469-1.162c-0.495-0.279-1.182-0.421-2.042-0.421h-9.124c-1.758,0-3.123-0.394-4.056-1.168
		c-1.045-0.885-1.316-2.056-0.803-3.486c0.484-1.349,1.521-2.451,3.084-3.273c1.439-0.749,3.045-1.128,4.776-1.128h15.085
		l-1.194,3.328H64.312c-0.583,0-1.133,0.129-1.635,0.384c-0.477,0.242-0.777,0.549-0.917,0.941
		c-0.157,0.436-0.009,0.621,0.156,0.744c0.294,0.219,0.728,0.33,1.291,0.33h9.124c1.95,0,3.449,0.455,4.455,1.354
		c1.094,0.986,1.363,2.282,0.799,3.853c-0.542,1.511-1.671,2.739-3.358,3.648c-1.585,0.839-3.361,1.264-5.281,1.264H53.691z"/>
	<path fill="#9C1A2E" d="M92.095,32.209l-7.45-6.365c-0.43-0.38-0.667-0.754-0.711-1.12l-2.685,7.485h-4.11l5.684-15.846h4.11
		l-2.672,7.448c0.267-0.305,0.701-0.618,1.311-0.947l12.001-6.501h5.115l0.159,0.612l-13.918,7.517l9.202,7.717H92.095z"/>
	<polygon fill="#9C1A2E" points="108.08,32.208 110.004,26.845 103.529,16.363 108.68,16.363 113.183,23.653 122.474,16.363 
		127.976,16.363 114.009,27.06 112.161,32.208 	"/>
	<polygon fill="#9C1A2E" points="131.182,32.209 135.672,19.691 128.021,19.691 129.216,16.363 148.57,16.363 147.377,19.691 
		139.754,19.691 135.264,32.209 	"/>
	<path fill="#9C1A2E" d="M191.374,32.186l-1.738-4.238h-9.86l3.761-3.306h4.744l-1.422-3.449l-12.487,10.995h-5.375l16.1-14.293
		c0.409-0.372,0.924-0.717,1.527-1.026c0.748-0.37,1.36-0.549,1.873-0.549c0.569,0,1.1,0.19,1.573,0.563
		c0.4,0.32,0.688,0.706,0.854,1.146l5.519,14.182L191.374,32.186z"/>
	<path fill="#9C1A2E" d="M215.546,32.365c-0.724,0-1.406-0.345-2.029-1.023L205,22.004l-3.661,10.204h-4.082l5.133-14.306
		c0.148-0.417,0.423-0.78,0.813-1.078c0.398-0.305,0.871-0.461,1.401-0.461c0.722,0,1.363,0.3,1.905,0.89l8.525,9.316l3.661-10.207
		h4.109l-5.132,14.307C217.271,31.794,216.555,32.365,215.546,32.365"/>
	<path fill="#9C1A2E" d="M219.346,32.209l1.193-3.328h15.009c0.876,0,1.701-0.155,2.452-0.463c0.816-0.354,1.337-0.832,1.547-1.417
		c0.188-0.525,0.049-0.873-0.468-1.162c-0.495-0.279-1.183-0.421-2.042-0.421h-9.124c-1.758,0-3.122-0.394-4.057-1.168
		c-1.045-0.885-1.314-2.056-0.802-3.486c0.483-1.349,1.521-2.451,3.084-3.273c1.438-0.749,3.046-1.128,4.775-1.128H246l-1.194,3.328
		h-14.839c-0.582,0-1.133,0.129-1.636,0.384c-0.477,0.242-0.776,0.549-0.917,0.941c-0.156,0.436-0.009,0.621,0.156,0.744
		c0.293,0.219,0.729,0.33,1.29,0.33h9.124c1.951,0,3.45,0.455,4.456,1.354c1.094,0.986,1.362,2.282,0.8,3.853
		c-0.543,1.511-1.673,2.739-3.358,3.648c-1.585,0.839-3.361,1.264-5.281,1.264H219.346z"/>
	<path fill="#9C1A2E" d="M13.539,5.839c26.466,0,20.911,25.398,42.411,31.37c-4.004,2.512-8.587,3.813-13.302,3.813
		c-10,0-15.456-7.234-26.335-5.935c9.328-6.244,15.825,3.514,25.985,2.552c-15.325-9.376-18.718-30.2-35.964-30.2
		C5.541,7.439,4.76,7.49,4,7.57C6.962,6.449,10.185,5.839,13.539,5.839"/>
	<path fill="#9C1A2E" d="M162.491,32.209l-3.885-4.262h-7.619l1.186-3.306h9.314c1.193,0,2.282-0.207,3.237-0.615
		c1.046-0.459,1.729-1.116,2.028-1.952c0.232-0.651,0.222-1.143-0.037-1.503c-0.418-0.584-1.497-0.88-3.206-0.88h-10.806
		l-4.49,12.518h-4.11l5.684-15.846h14.131c2.555,0,4.5,0.446,5.781,1.327c1.549,1.056,1.968,2.616,1.243,4.636
		c-0.479,1.335-1.435,2.497-2.84,3.452c-1.138,0.78-2.494,1.36-4.032,1.724l4.351,4.707H162.491z"/>
	<path fill="#9C1A2E" d="M67.481,6.739C56.601,8.751,48.353,18.287,48.353,29.745c0,0.2,0.01,0.41,0.01,0.619
		c-2.993-2.781-4.865-6.754-4.865-11.157c0-8.415,6.816-15.229,15.225-15.229C61.985,3.978,64.999,4.999,67.481,6.739"/>
</g>
</svg>
