<?xml version="1.0" encoding="utf-8"?>
<!-- Generator: Adobe Illustrator 22.1.0, SVG Export Plug-In . SVG Version: 6.00 Build 0)  -->
<svg version="1.1" id="Слой_1" xmlns="http://www.w3.org/2000/svg" xmlns:xlink="http://www.w3.org/1999/xlink" x="0px" y="0px"
	 width="569.747px" height="73.327px" viewBox="0 0 569.747 73.327" enable-background="new 0 0 569.747 73.327"
	 xml:space="preserve">
<g>
	<path fill-rule="evenodd" clip-rule="evenodd" fill="#F02137" d="M116.511,10.517c11.302,0,20.464,9.162,20.464,20.464
		c0,11.302-9.162,20.464-20.464,20.464s-20.464-9.162-20.464-20.464C96.046,19.679,105.208,10.517,116.511,10.517L116.511,10.517z"
		/>
	<polygon fill-rule="evenodd" clip-rule="evenodd" fill="#F8909B" points="96.052,30.537 108.566,30.599 108.504,34.412 
		96.176,34.412 96.052,30.537 	"/>
	
		<path fill-rule="evenodd" clip-rule="evenodd" fill="#F02137" stroke="#FFFFFF" stroke-width="0.5669" stroke-miterlimit="22.9256" d="
		M150.903,0.569c-25.271,4.073-41.62,13.454-42.635,30.413H44.884C55.211,10.707,80.552,0.158,102.299,0.285L150.903,0.569
		L150.903,0.569z"/>
	
		<path fill-rule="evenodd" clip-rule="evenodd" fill="#F02137" stroke="#FFFFFF" stroke-width="0.5669" stroke-miterlimit="22.9256" d="
		M2.818,33.824h105.811c0.717,12.64,29.401,28.082,87.183,39.224L2.818,33.824L2.818,33.824z"/>
	<path fill="#F02137" d="M237.962,22.539c9.568,0,16.667,8.939,14.711,18.345h-21.779c-0.005,3.394,3.907,5.789,6.89,5.789h14.59
		v6.344h-14.413h-1.141v-0.043c-7.771-0.59-13.895-7.168-13.895-15.196C222.926,29.362,229.658,22.539,237.962,22.539
		L237.962,22.539z M245.551,34.745c0.245-9.454-15.2-9.21-14.717,0H245.551L245.551,34.745z M522.308,22.539
		c9.568,0,16.667,8.939,14.711,18.345H515.24c-0.005,3.394,3.907,5.789,6.89,5.789h14.591v6.344h-14.413h-1.141v-0.043
		c-7.771-0.59-13.895-7.168-13.895-15.196C507.272,29.362,514.004,22.539,522.308,22.539L522.308,22.539z M529.897,34.745
		c0.245-9.454-15.2-9.21-14.718,0H529.897L529.897,34.745z M472.824,10.295c3.379,0,6.118,1.904,6.118,4.251
		c0,2.348-2.739,4.251-6.118,4.251s-6.118-1.903-6.118-4.251C466.706,12.199,469.445,10.295,472.824,10.295L472.824,10.295z
		 M423.364,10.295c3.379,0,6.118,1.904,6.118,4.251c0,2.348-2.739,4.251-6.118,4.251c-3.379,0-6.118-1.903-6.118-4.251
		C417.246,12.199,419.985,10.295,423.364,10.295L423.364,10.295z M540.914,46.84h16.804c1.489,0,2.578-0.228,3.256-0.694
		c0.678-0.465,1.021-1.207,1.021-2.233c0-1.017-0.343-1.768-1.031-2.233c-0.697-0.475-1.776-0.713-3.246-0.713h-6.884
		c-4.077,0-6.836-0.617-8.277-1.862c-1.432-1.245-2.148-3.459-2.148-6.632c0-3.231,0.869-5.606,2.597-7.126
		c1.738-1.521,4.42-2.281,8.058-2.281h17.119v6.262h-14.073c-2.291,0-3.781,0.2-4.478,0.599c-0.688,0.399-1.032,1.112-1.032,2.128
		c0,0.932,0.306,1.616,0.907,2.053c0.611,0.437,1.566,0.656,2.864,0.656h7.218c3.304,0,5.824,0.769,7.552,2.299
		c1.738,1.53,2.607,3.744,2.607,6.632c0,2.784-0.774,5.046-2.311,6.794c-1.537,1.739-3.523,2.613-5.948,2.613h-20.575V46.84
		L540.914,46.84z M479.98,23.066h14.026c4.232,0,7.259,0.846,9.07,2.547c1.813,1.701,2.723,4.513,2.723,8.447v19.042h-7.455V35.029
		c0-2.242-0.33-3.696-0.982-4.371c-0.652-0.665-1.964-0.997-3.937-0.997h-5.991v23.441h-7.455V23.066L479.98,23.066z
		 M476.867,53.016h-7.748V22.981h7.748V53.016L476.867,53.016z M465.292,53.016h-7.695V12.092h7.695V53.016L465.292,53.016z
		 M430.762,22.981h13.876c3.244,0,5.518,0.56,6.824,1.682c1.306,1.121,1.959,3.088,1.959,5.882v5.017h-7.883v-3.868
		c0-1.169-0.217-1.957-0.653-2.356c-0.435-0.399-1.424-0.598-2.967-0.598h-2.898v24.277h-8.258V22.981L430.762,22.981z
		 M426.988,53.016h-7.748V22.981h7.748V53.016L426.988,53.016z M389.346,12.369h9.007l17.234,40.647h-9.456l-3.706-9.673h-17.562
		l-3.603,9.673h-9.016L389.346,12.369L389.346,12.369z M393.521,20.447l-5.911,15.647h12.037L393.521,20.447L393.521,20.447z
		 M318.004,23.066h30.392c4.4,0,7.577,0.865,9.521,2.585c1.944,1.729,2.921,4.532,2.921,8.409v19.042h-7.975V35.086
		c0-2.205-0.332-3.658-0.996-4.371c-0.673-0.703-2.039-1.055-4.115-1.055h-4.438v23.441h-8.089V29.661h-9.245v23.441h-7.975V23.066
		L318.004,23.066z M286.419,12.177h8.194v10.889h7.324c4.597,0,7.927,0.865,9.984,2.604c2.056,1.729,3.084,4.532,3.084,8.39v19.042
		h-8.313v-18.12c0-2.062-0.395-3.468-1.176-4.209c-0.781-0.741-2.224-1.112-4.33-1.112h-6.573v23.441h-8.194V12.177L286.419,12.177z
		 M255.9,46.755h16.428c1.456,0,2.52-0.228,3.183-0.694c0.663-0.465,0.999-1.207,0.999-2.233c0-1.017-0.336-1.768-1.008-2.233
		c-0.681-0.475-1.736-0.713-3.173-0.713h-6.73c-3.985,0-6.683-0.618-8.092-1.862c-1.401-1.245-2.1-3.459-2.1-6.632
		c0-3.231,0.849-5.606,2.539-7.126c1.699-1.52,4.322-2.28,7.878-2.28h16.736v6.262H268.8c-2.24,0-3.696,0.2-4.378,0.599
		c-0.672,0.399-1.008,1.111-1.008,2.128c0,0.931,0.299,1.615,0.887,2.053c0.597,0.437,1.53,0.656,2.8,0.656h7.056
		c3.229,0,5.694,0.769,7.383,2.299c1.699,1.53,2.548,3.744,2.548,6.632c0,2.784-0.756,5.046-2.259,6.794
		c-1.503,1.739-3.444,2.613-5.815,2.613H255.9V46.755L255.9,46.755z M209.969,32.16c0-4.747-0.988-8.259-2.966-10.535
		c-1.988-2.266-5.026-3.4-9.127-3.4c-4.1,0-7.139,1.134-9.105,3.4c-1.967,2.276-2.955,5.788-2.955,10.535
		c0,4.738,0.988,8.249,2.955,10.525c1.966,2.276,5.005,3.419,9.105,3.419C206.947,46.105,209.969,40.52,209.969,32.16L209.969,32.16
		z M197.877,53.016c-7.617,0-13.247-1.709-16.9-5.119c-3.642-3.41-5.463-8.658-5.463-15.728c0-7.079,1.821-12.319,5.473-15.709
		c3.643-3.391,9.272-5.091,16.89-5.091c7.597,0,13.216,1.7,16.858,5.091c3.653,3.391,5.474,8.63,5.474,15.709
		c0,2.954-0.323,5.602-0.978,7.943c-0.62,2.252-1.539,4.202-2.748,5.853h6.651v7.051H197.877L197.877,53.016z"/>
</g>
</svg>
