<?xml version="1.0" encoding="utf-8"?>
<!-- Generator: Adobe Illustrator 23.0.5, SVG Export Plug-In . SVG Version: 6.00 Build 0)  -->
<svg version="1.1" id="Layer_1" xmlns="http://www.w3.org/2000/svg" xmlns:xlink="http://www.w3.org/1999/xlink" x="0px" y="0px"
	 viewBox="0 0 191.6 46.8" style="enable-background:new 0 0 191.6 46.8;" xml:space="preserve">
<style type="text/css">
	.st0{fill:#64B053;}
	.st1{fill:#004F8B;}
	.st2{fill:#008244;}
	.st3{fill:#4BBEED;}
</style>
<g id="XMLID_32_">
	<g>
		<path id="XMLID_66_" class="st0" d="M176.6,0h0.8c0.1,9.9,0.3,19.7,0.5,29.6c-3.6,0.1-7.1,0.4-10.6,1c-0.1-7.9-0.3-15.8-0.4-23.8
			c1.7-1.5,3.3-3.2,5-4.6c1.2-1.2,3-1.3,4.5-2L176.6,0z"/>
		<path id="XMLID_65_" class="st0" d="M181.7,0h3.1c0.3,1,0.4,2.1,0,3.1c-2,7.6-3.7,15.4-6,22.9c0-8.6,0.5-17.2,0.7-25.9
			C180.3,0.1,181,0,181.7,0z"/>
		<path id="XMLID_64_" class="st0" d="M152.8,22.1c4.1-4.7,8.2-9.5,12.7-13.8c-0.1,7.6-0.1,15.1-0.2,22.7c-1.6,0.3-3.2,0.6-4.8,1
			c0.1-5.8,0.2-11.7,0.1-17.5c-0.8,5.9-0.7,11.9-1.3,17.8c-3.6,0.9-7.1,2.1-10.5,3.6c0.4-3.2,0.3-6.5,0.8-9.7
			C150.4,24.6,151.7,23.4,152.8,22.1z"/>
		<path id="XMLID_63_" class="st0" d="M133.7,45.6c4.3-5.1,8.4-10.3,12.5-15.4c0.3,2.2,0.5,4.4,0.7,6.6
			C142,38.9,137.7,42,133.7,45.6z"/>
	</g>
	<g>
		<g>
			<path class="st1" d="M0.2,16.2c-0.1-1.3,1.5-1.4,2.4-1.4c3.1,0,6.2-0.1,9.3,0.1c2.5,0.1,5,1.9,5.4,4.5c0.4,1.6-0.6,3-1.4,4.2
				c0.7,1.2,1.7,2.5,1.4,4.1c-0.3,2.6-2.7,4.6-5.3,4.7c-2.6,0.1-5.2,0-7.9,0c-1.4,0-2.9,0.2-4.2-0.7v-0.2c0,0.1,0.1,0.2,0.1,0.3
				C0.2,26.5,0,21.3,0.2,16.2z M4.2,17.9c0,1.3-0.1,2.7-0.1,4c2.5,0,4.9,0.1,7.4-0.1c1.2,0,2.2-1.5,1.7-2.6c-0.2-1-1.3-1.4-2.2-1.3
				C8.7,17.9,6.4,18,4.2,17.9z M4.2,25.2c0,1.3,0,2.7,0,4.1c2.6-0.1,5.2,0.2,7.8-0.2c1.8-0.5,1.7-3.5-0.2-3.8
				C9.3,25,6.7,25.2,4.2,25.2z"/>
		</g>
		<g>
			<path class="st1" d="M26.6,16.8c1.1-3,6.5-2.9,7.4,0.2c2.2,5.1,4.5,10.3,6.8,15.4c-1.4-0.1-2.9,0.2-4.2-0.4
				c-1.2-1.2-1.5-3-2.3-4.5c-2.7,0-5.5,0-8.2,0.1c-0.7,1.6-1.4,3.2-2.1,4.8c-1.2-0.2-2.9,0.4-3.7-0.8c0.1-1.1,0.7-2,1.1-3
				C23.2,24.7,24.9,20.7,26.6,16.8z M30.2,18.3c-0.9,2-1.8,4.1-2.7,6.1c1.8,0,3.6,0,5.5,0C32.1,22.3,31.2,20.3,30.2,18.3z"/>
		</g>
		<path id="XMLID_57_" class="st1" d="M43.7,16.2c0-1.1,1.2-1.4,2.1-1.4c7.5-0.1,14.9,0,22.4,0c0.2,5.9,0,11.8,0.1,17.7
			c-1.3-0.2-3.6,0.5-4-1.3c-0.1-4.1,0-8.2-0.1-12.3c-5.5,0-11,0-16.5,0c0,4.5,0,9,0,13.6c-1.4,0-4,0.5-4-1.6
			C43.7,25.9,43.6,21,43.7,16.2z"/>
		<g>
			<path class="st1" d="M74.7,14.9c3.4-0.2,6.9-0.1,10.3-0.1c2.6,0,5.2,1.8,5.7,4.4c0.4,1.6-0.6,3-1.4,4.3c0.7,1.4,1.9,2.9,1.3,4.6
				c-0.5,2.6-3.2,4.2-5.7,4.2c-3.1,0-6.3,0-9.4,0c-1,0.1-2.1-0.5-2-1.6c0-4.7,0-9.4,0-14.1C73.4,15.9,73.8,14.9,74.7,14.9z M77.4,18
				c0,1.3,0,2.7,0,4c2.6-0.1,5.3,0.2,7.9-0.2c1.8-0.6,1.6-3.4-0.2-3.7C82.6,17.8,80,18,77.4,18z M77.5,25.1c0,1.4,0,2.7,0,4.1
				c2.6-0.1,5.3,0.2,7.9-0.2c1.8-0.5,1.7-3.4-0.2-3.7C82.6,25,80,25.2,77.5,25.1z"/>
		</g>
		<g>
			<path class="st1" d="M100.7,14.9c3.8-1.2,8.4-0.7,11.5,2c1.7,1.3,2,3.5,1.9,5.5c-0.1,2.4,0.5,5.2-1.3,7.1
				c-3,3.3-8.2,3.9-12.3,2.6c-2.8-0.9-5.7-3.4-5.2-6.6c0.2-2.6-0.7-5.6,1.1-7.8C97.5,16.4,99.1,15.4,100.7,14.9z M102.2,17.9
				c-1.3,0.5-2.8,1.4-2.9,2.9c0,2.1-0.2,4.2,0.1,6.2c1.5,2.5,4.9,2.9,7.5,2.2c1.4-0.5,3.2-1.5,3.1-3.2c-0.1-2.1,0.3-4.2-0.2-6.2
				C108.2,17.5,104.8,17.1,102.2,17.9z"/>
		</g>
		<g>
			<path class="st1" d="M123.6,14.9c3.2-1,6.7-0.8,9.7,0.7c1.7,1,3.5,2.5,3.6,4.6c0.1,2.4,0.2,4.8-0.1,7.2c-0.7,2.7-3.5,4.3-6,4.9
				c-3.9,0.9-8.6,0.2-11.4-2.9c-1.9-2.2-1.1-5.4-1.3-8.1C117.9,18.2,120.8,15.8,123.6,14.9z M125.6,17.8c-1.4,0.4-2.8,1.1-3.3,2.6
				c-0.1,2.2-0.2,4.5,0.1,6.7c2.2,3.5,8.3,3.5,10.5,0c0.2-2.4,0.4-4.8-0.1-7.1C131.2,17.6,128,17.2,125.6,17.8z"/>
		</g>
		<path id="XMLID_49_" class="st1" d="M167.3,30.6c3.5-0.6,7-0.9,10.6-1c-1.1,2.4-2.3,4.8-4.4,6.4c-4.6,3.5-10.2,5.2-15.7,6.6
			c-7.5,2.1-15.3,2.6-23,3.7c-0.4,0-1.1-0.1-1.5-0.2l0.4-0.5c4-3.5,8.3-6.6,13.2-8.9c0.6-0.3,1.2-0.6,1.9-0.8
			c3.4-1.5,6.9-2.7,10.5-3.6c0.3-0.1,0.9-0.2,1.3-0.3c1.6-0.4,3.2-0.7,4.8-1C165.8,30.8,166.8,30.7,167.3,30.6z"/>
		<path id="XMLID_48_" class="st1" d="M45.3,37.9c1.8-1.4,4.9-1,5.9,1.2c-1.8,0.1-3.7-1.8-5.3-0.1c1.1,1.6,3.7,0.2,4.9,1.8
			c0.9,0.9-0.1,2.2-1,2.6c-1.7,0.6-4,0.4-5.1-1.2c0.2-1,1.3-0.2,1.9-0.1c1.1,0.6,2.7,0.7,3.4-0.5c-1.3-1.1-3.4-0.1-4.7-1.4
			C44.4,39.7,44.6,38.5,45.3,37.9z"/>
		<g>
			<path class="st1" d="M3.3,37.6c0.7-0.6,2-0.4,2.3,0.5c0.8,1.8,1.5,3.6,2.4,5.3c-0.5,0-1,0.1-1.5,0.1c-0.3-0.6-0.6-1.2-0.9-1.8
				c-0.9,0-1.9,0-2.8,0c-0.3,0.6-0.6,1.2-0.9,1.8c-0.3,0-1-0.1-1.3-0.2C1.5,41.5,2.2,39.5,3.3,37.6z M3.3,40.7c0.6,0,1.3,0,1.9,0
				c-0.4-0.7-0.7-1.4-1-2.2C3.9,39.3,3.6,40,3.3,40.7z"/>
		</g>
		<path id="XMLID_45_" class="st1" d="M9,37.5c0.4-0.1,1.1-0.2,1.4-0.3c0,2.2,0,4.3-0.1,6.5c-0.4-0.3-1.6-0.2-1.4-1
			C8.9,41,9,39.3,9,37.5z"/>
		<g>
			<path class="st1" d="M12.3,37.4c1.8,0.1,4.3-0.7,5.7,0.9c0.9,1.1,0,2.3-0.8,3.1c0.4,0.8,0.8,1.5,1.2,2.3c-0.4,0-1.1-0.1-1.5-0.1
				c-0.4-0.7-0.9-1.5-1.3-2.2c-0.6,0-1.2,0-1.9,0c0,0.8,0,1.5,0.1,2.3c-0.3-0.1-1-0.2-1.4-0.3C12.2,41.4,12.3,39.4,12.3,37.4z
				 M13.7,38.4c0,0.5,0,1.4,0,1.9c1-0.2,3.5,0.5,3.2-1.3C16,38.1,14.7,38.6,13.7,38.4z"/>
		</g>
		<path id="XMLID_42_" class="st1" d="M19.9,37.5c0.4-0.1,1.1-0.2,1.5-0.2c0,1.7,0,3.3,0,5c0.9,0.2,1.8,0.3,2.7,0c0-1.6,0-3.2,0-4.8
			c0.4-0.1,1.1-0.2,1.4-0.2c0,1.6-0.2,3.3,0.1,4.9c0.8,0.6,1.7,0.2,2.6,0.1c0-1.6,0-3.2,0-4.8c0.4,0,1.1-0.1,1.4-0.1
			c-0.1,1.7-0.1,3.3,0,5c-0.9,1-2.2,1.7-3.6,1.2c-2-0.6-4.5,1.1-5.9-1.1C19.6,40.9,20,39.1,19.9,37.5z"/>
		<g>
			<path class="st1" d="M32.9,38c0.4-1,2.1-1.1,2.5,0c0.9,1.8,1.7,3.8,2.6,5.7c-1.3,0.2-1.9-0.8-2.4-1.8c-1,0-1.9,0-2.9,0
				c-0.2,0.6-0.4,1.2-0.6,1.7c-0.5-0.1-1-0.1-1.5-0.2C31.3,41.6,32,39.8,32.9,38z M33.1,40.7c0.7,0,1.3,0,2,0
				c-0.3-0.7-0.6-1.4-0.9-2.1C33.8,39.3,33.5,40,33.1,40.7z"/>
		</g>
		<path id="XMLID_36_" class="st1" d="M37.4,37.4c0.4,0,1.1-0.1,1.5-0.1c0.7,0.9,1.3,1.7,2,2.6c0.6-0.8,1.2-1.7,1.8-2.5
			c0.5,0,1.4-0.1,1.8-0.1c-1,1.3-2.1,2.5-2.9,3.9c-0.1,0.8-0.1,1.7-0.1,2.5c-2,0.1-0.9-2.1-1.9-3.2C38.9,39.5,38.1,38.5,37.4,37.4z"
			/>
	</g>
	<g>
		<path id="XMLID_35_" class="st2" d="M54.3,21.3c1.1,0,2.3,0,3.4,0c0,4.4,0,8.7,0,13c-1.1-0.2-3,0.4-3.3-1.1
			C54.2,29.3,54.3,25.3,54.3,21.3z"/>
	</g>
	<g>
		<path id="XMLID_33_" class="st3" d="M177.9,29.6c4.6,0,9.2,0.7,13.7,1.5v0.2c-4.6,3.3-9.5,6.4-14.7,8.7c-13.1,5.8-27.9,8-42.2,6.3
			c7.7-1,15.5-1.5,23-3.7c5.5-1.3,11.1-3,15.7-6.6C175.6,34.4,176.8,32,177.9,29.6z"/>
	</g>
</g>
</svg>
