<?xml version="1.0" encoding="UTF-8" standalone="no"?>
<!-- Generator: Adobe Illustrator 13.0.2, SVG Export Plug-In . SVG Version: 6.00 Build 14948)  -->
<svg xmlns:dc="http://purl.org/dc/elements/1.1/" xmlns:cc="http://creativecommons.org/ns#" xmlns:rdf="http://www.w3.org/1999/02/22-rdf-syntax-ns#" xmlns:svg="http://www.w3.org/2000/svg" xmlns="http://www.w3.org/2000/svg" xmlns:sodipodi="http://sodipodi.sourceforge.net/DTD/sodipodi-0.dtd" xmlns:inkscape="http://www.inkscape.org/namespaces/inkscape" version="1.0" id="Layer_1" x="0px" y="0px" width="236.7283" height="82.53936" viewBox="0 0 192.756 192.756" enable-background="new 0 0 192.756 192.756" xml:space="preserve" sodipodi:version="0.32" inkscape:version="0.46" sodipodi:docname="Air_Canada_Jazz.svg" inkscape:output_extension="org.inkscape.output.svg.inkscape"><metadata id="metadata38"><rdf:RDF><cc:Work rdf:about=""><dc:format>image/svg+xml</dc:format><dc:type rdf:resource="http://purl.org/dc/dcmitype/StillImage"/></cc:Work></rdf:RDF></metadata><defs id="defs36"><inkscape:perspective sodipodi:type="inkscape:persp3d" inkscape:vp_x="0 : 96.377998 : 1" inkscape:vp_y="0 : 1000 : 0" inkscape:vp_z="192.756 : 96.377998 : 1" inkscape:persp3d-origin="96.377998 : 64.251999 : 1" id="perspective40"/><inkscape:perspective id="perspective4366" inkscape:persp3d-origin="372.04724 : 350.78739 : 1" inkscape:vp_z="744.09448 : 526.18109 : 1" inkscape:vp_y="0 : 1000 : 0" inkscape:vp_x="0 : 526.18109 : 1" sodipodi:type="inkscape:persp3d"/>
	
	
	
	
	
	
	
	
	
	
	
	
	
	
	
<inkscape:perspective id="perspective5201" inkscape:persp3d-origin="372.04724 : 350.78739 : 1" inkscape:vp_z="744.09448 : 526.18109 : 1" inkscape:vp_y="0 : 1000 : 0" inkscape:vp_x="0 : 526.18109 : 1" sodipodi:type="inkscape:persp3d"/></defs><sodipodi:namedview inkscape:window-height="727" inkscape:window-width="1280" inkscape:pageshadow="2" inkscape:pageopacity="0.0" guidetolerance="10.0" gridtolerance="10.0" objecttolerance="10.0" borderopacity="1.0" bordercolor="#666666" pagecolor="#ffffff" id="base" showgrid="false" inkscape:zoom="6.7498625" inkscape:cx="79.375021" inkscape:cy="46.008396" inkscape:window-x="0" inkscape:window-y="25" inkscape:current-layer="Layer_1"/>
<g id="g5222" transform="matrix(3.14203, 0, 0, 3.14203, -206.759, -206.556)"><path clip-rule="evenodd" d="M 29.086,66.611 C 28.737,67.308 30.619,66.541 30.898,67.517 L 31.594,68.144 L 31.803,68.771 L 32.081,69.05 C 31.942,69.677 33.196,69.468 32.778,70.165 C 33.127,70.513 33.266,70.932 33.754,71.14 C 34.172,71.001 34.242,71.349 34.59,71.698 C 34.242,72.325 35.914,72.534 35.635,73.161 C 34.66,73.44 35.287,74.833 34.242,74.833 C 34.381,75.46 33.545,75.39 33.545,75.39 C 32.43,75.808 32.778,77.689 31.385,77.132 C 30.828,78.246 29.504,78.665 29.016,79.779 C 28.807,79.779 28.598,79.709 28.528,79.918 C 28.32,79.709 27.901,79.988 27.762,80.058 C 27.204,80.963 26.438,81.242 25.741,82.148 C 23.929,82.636 22.745,84.447 20.933,84.586 C 20.097,84.725 19.4,84.098 18.704,84.029 C 18.007,83.193 16.335,82.984 16.126,81.66 C 15.15,81.452 15.22,80.127 14.105,79.988 L 14.314,79.779 C 14.105,79.221 13.06,79.291 13.826,78.594 C 12.712,78.037 12.851,76.922 12.015,76.086 C 12.223,75.32 11.179,75.529 11.039,75.041 C 11.596,74.483 12.642,74.344 12.572,73.369 C 13.478,72.463 14.941,72.394 15.359,70.931 C 16.544,70.234 18.425,69.677 18.982,68.213 C 19.33,68.005 19.54,68.283 19.818,68.353 C 20.584,68.005 20.793,66.75 21.908,66.959 C 22.256,67.168 22.953,66.889 22.953,66.889 C 22.884,66.541 23.65,66.75 23.65,66.75 C 24.626,65.705 24.208,67.099 25.183,65.984 C 26.089,65.635 25.81,65.705 26.786,65.914 C 26.787,65.914 28.181,65.635 29.086,66.611 L 29.086,66.611 z" id="path7" style="fill:#eb000c;fill-opacity:1;fill-rule:evenodd"/><path clip-rule="evenodd" d="M 144.95,108.413 C 143.974,108.832 142.721,108.762 141.745,108.762 C 139.724,107.577 138.191,109.807 136.101,108.832 C 134.36,108.832 132.966,109.319 131.155,109.389 C 130.527,108.693 129.413,108.902 128.646,109.111 C 128.298,108.971 127.67,108.833 127.81,108.344 C 127.95,107.786 128.577,107.508 129.064,107.369 C 129.204,105.766 131.364,105.696 131.573,104.303 C 132.758,103.536 132.269,102.074 133.594,101.377 C 133.872,101.098 133.803,100.541 133.594,100.262 C 134.639,99.566 134.151,98.312 135.126,97.684 C 135.475,97.127 135.614,96.361 135.614,95.873 C 135.753,95.595 136.032,95.316 135.892,94.898 C 135.823,94.201 135.474,93.504 134.777,93.226 C 134.29,93.226 133.802,93.226 133.454,92.739 C 132.618,92.46 132.131,93.226 131.433,93.226 C 130.179,92.251 129.343,93.784 128.089,93.575 C 126.834,94.411 124.884,93.645 123.56,93.645 C 122.933,94.272 122.446,93.714 121.679,93.993 C 120.843,94.969 119.38,94.55 118.334,94.899 C 116.313,95.874 113.806,95.666 112.134,97.337 C 111.716,97.755 110.949,97.197 110.671,97.824 C 109.765,97.546 108.859,98.312 107.744,98.033 C 107.326,99.497 105.863,98.033 104.888,98.73 C 103.565,99.497 105.097,100.193 104.957,101.168 C 104.679,102.84 106.908,102.7 107.884,103.467 C 108.162,103.049 108.302,103.746 108.651,103.467 C 109.556,103.049 110.672,103.049 111.716,102.771 C 112.691,102.004 114.154,102.353 115.199,101.795 C 116.662,101.446 118.334,101.446 119.658,100.75 C 120.703,100.819 121.748,100.541 122.584,100.68 L 122.376,100.89 C 121.818,102.144 120.982,103.119 120.216,103.955 C 119.658,105.836 118.195,107.159 116.244,107.577 C 116.035,108.413 115.408,108.971 115.826,109.946 C 115.548,110.295 115.13,110.573 114.712,110.573 C 113.945,112.036 111.576,111.897 110.88,113.569 C 111.785,114.056 110.81,114.823 111.716,115.31 C 111.785,116.774 113.11,117.61 114.154,118.446 C 116.104,119.213 118.126,118.237 120.076,118.237 C 122.097,119.282 124.186,117.47 126.486,117.819 C 128.645,118.377 130.317,117.192 132.547,118.097 C 133.593,117.819 134.847,118.237 135.961,117.192 C 137.773,116.704 137.634,115.589 139.097,115.659 C 139.933,115.868 140.909,115.172 141.675,114.683 C 142.441,114.196 143.277,114.265 143.904,114.683 C 143.904,114.683 145.855,115.032 146.97,114.126 C 146.97,114.126 148.781,113.15 150.244,113.359 C 150.244,113.359 151.985,111.965 150.802,110.294 L 148.502,109.736 C 148.503,109.737 146.482,108.553 144.95,108.413 L 144.95,108.413 z" id="path9" style="fill:#eb000c;fill-opacity:1;fill-rule:evenodd"/><path clip-rule="evenodd" d="M 147.389,107.299 C 148.643,105.836 149.061,104.652 150.594,103.676 C 150.384,102.422 151.987,102.282 152.335,101.238 C 152.893,100.471 154.077,100.193 154.077,98.939 C 153.868,98.59 152.404,98.66 152.056,98.66 C 151.08,99.497 149.687,98.312 149.2,99.845 C 147.945,99.845 146.273,99.776 145.159,100.542 C 143.974,99.845 142.232,100.681 141.327,99.288 C 140.909,98.242 141.396,97.476 140.978,96.431 C 141.675,95.595 142.65,94.689 143.834,94.619 C 144.392,93.992 145.506,94.48 146.203,94.131 C 147.806,93.644 149.477,92.946 151.149,93.086 C 152.612,92.459 154.076,92.808 155.469,92.668 C 156.583,92.459 157.698,91.762 158.813,91.971 C 160.276,90.856 161.391,93.155 162.994,92.111 C 164.108,92.389 165.223,93.365 166.407,92.528 C 167.313,92.807 168.428,93.086 168.776,94.131 C 169.334,95.803 167.313,95.734 167.243,97.196 C 164.875,98.241 164.805,100.959 162.785,102.352 C 161.391,103.466 160.834,105.069 159.51,106.114 C 159.51,106.254 159.441,106.463 159.65,106.532 L 159.232,107.09 L 159.372,107.159 L 158.605,108.135 C 159.441,109.25 160.556,110.364 162.019,110.226 C 162.228,110.156 162.715,110.226 163.133,110.226 C 163.482,109.459 164.388,109.389 165.154,109.18 C 165.99,109.738 166.757,108.832 167.592,109.32 C 168.429,108.902 169.195,109.18 170.101,109.32 C 170.937,109.111 171.704,108.971 172.539,108.762 C 173.584,107.717 174.838,109.529 175.743,108.275 C 176.092,108.624 176.579,108.833 177.207,108.693 C 178.321,107.578 180.063,109.529 181.317,108.206 C 182.293,108.484 183.616,107.718 184.243,109.111 C 184.313,109.669 183.895,110.156 183.477,110.574 C 182.641,110.296 182.083,111.48 181.039,111.062 C 180.551,112.943 178.183,111.619 177.416,113.012 C 175.952,114.197 173.444,113.918 172.33,115.799 C 170.588,115.032 171.075,117.262 169.612,116.984 C 167.871,116.496 166.616,117.96 164.805,117.68 C 164.038,117.471 163.272,117.332 162.436,117.402 C 161.391,117.193 159.789,116.496 158.882,117.053 C 157.837,116.704 156.165,117.611 155.259,117.123 C 153.518,117.123 153.1,118.586 150.592,118.377 C 149.825,117.262 146.69,118.934 146.132,117.332 L 145.296,115.938 C 144.739,115.589 143.973,115.589 143.624,114.405 C 143.624,114.405 141.882,113.151 143.066,111.897 C 143.066,111.897 146.411,109.388 146.341,109.041 C 146.344,109.041 146.622,107.647 147.389,107.299 L 147.389,107.299 z" id="path11" style="fill:#eb000c;fill-opacity:1;fill-rule:evenodd"/><path clip-rule="evenodd" d="M 35.635,82.983 C 36.959,82.147 38.352,83.192 39.746,83.262 L 41.07,84.377 C 41.628,84.447 42.394,84.795 42.812,84.168 C 44.693,84.865 46.156,86.537 48.177,86.955 C 47.968,87.93 49.152,88.278 49.013,89.254 C 49.501,90.508 50.964,88.627 51.034,90.09 C 51.939,90.717 52.636,91.832 53.472,92.459 C 53.402,92.946 53.751,93.155 54.03,93.435 C 54.099,93.504 54.239,93.574 54.308,93.644 C 54.308,93.644 54.587,93.086 55.075,93.226 C 55.772,93.366 56.26,92.46 56.956,93.156 C 58.35,93.087 58.489,91.902 60.788,92.181 C 62.321,91.554 62.948,92.739 64.132,91.972 C 65.735,92.251 65.735,91.693 67.198,91.763 C 67.964,91.136 70.054,91.763 71.03,91.554 C 72.981,92.599 73.259,91.415 75.141,92.042 C 76.883,91.415 78.624,91.902 80.366,92.46 C 80.924,92.669 81.62,92.739 82.247,92.809 C 82.317,93.087 82.874,93.157 82.735,93.296 C 83.362,94.132 87.751,93.505 88.1,94.55 C 88.309,95.038 87.821,95.665 86.846,95.944 C 86.498,96.432 85.801,96.85 86.01,97.268 C 85.174,98.452 83.711,99.009 83.223,99.079 C 82.736,98.801 81.691,100.194 81.063,100.194 C 80.018,100.472 78.764,101.239 78.346,102.075 C 77.441,102.493 76.395,102.563 76.326,103.957 C 75.699,104.653 76.047,104.444 75.002,105.35 C 74.584,105.281 74.375,106.744 74.305,107.023 C 73.748,107.301 74.096,107.719 73.817,107.999 C 74.095,108.486 73.399,108.974 73.748,109.392 C 73.608,109.532 74.096,109.741 74.165,109.95 C 74.444,110.508 74.792,110.299 75.141,110.229 C 76.465,110.368 77.44,109.323 78.903,107.86 C 80.157,106.954 80.506,107.163 81.202,106.048 C 81.62,105.908 82.178,105.56 82.317,104.863 L 83.362,104.096 C 84.547,103.609 84.547,103.121 85.731,102.215 C 87.612,100.055 88.03,98.452 87.542,96.99 C 87.612,95.248 89.841,95.805 90.677,94.551 C 92.698,94.412 94.857,94.83 96.321,93.506 C 97.296,94.203 97.993,92.74 98.968,93.437 C 99.944,93.019 100.153,93.088 100.919,93.715 C 101.476,94.273 103.009,96.78 102.033,97.825 C 101.964,99.428 103.496,100.194 102.382,102.284 C 102.591,102.563 103.078,102.702 102.94,103.121 C 102.452,103.957 103.706,104.514 103.845,105.35 C 104.472,106.396 106.074,105.002 106.283,106.744 C 106.423,107.72 107.537,107.441 108.095,107.999 C 109,107.441 109.767,108.208 110.673,108.277 C 110.812,109.044 109.836,108.973 109.906,109.74 C 108.721,110.716 107.746,111.761 106.214,112.178 C 105.308,112.387 104.542,113.711 103.358,113.781 C 102.103,115.522 99.804,114.966 98.62,116.428 C 97.366,117.404 95.415,116.846 94.162,116.359 C 93.326,115.035 91.445,115.174 90.887,113.712 L 91.375,113.154 C 91.305,112.596 90.539,112.666 90.399,112.249 C 90.469,112.179 90.608,112.109 90.539,111.9 C 88.867,111.969 90.469,110.018 88.867,109.74 C 88.867,108.973 88.379,108.555 88.101,107.928 C 87.334,107.092 86.289,108.834 85.384,109.252 C 84.826,110.018 84.408,110.924 83.572,111.202 C 82.945,111.69 82.736,112.038 81.969,112.526 C 81.482,112.875 80.924,113.222 80.436,113.849 C 79.461,114.964 78.764,114.616 77.301,116.078 L 75.629,117.124 C 73.817,119.214 72.494,118.517 70.612,119.283 C 69.149,120.328 67.407,119.91 65.805,119.98 C 64.481,119.492 62.949,119.492 62.112,118.098 C 61.416,117.75 61.276,117.193 60.649,116.844 C 60.858,116.495 60.301,116.148 60.161,115.73 C 59.534,114.336 59.813,112.525 60.44,111.201 C 60.022,110.714 61.416,110.226 60.858,109.32 C 61.067,107.648 63.575,108.135 63.087,106.255 C 63.157,104.861 65.456,105.001 64.968,103.677 C 66.083,101.935 67.058,101.099 68.451,100.054 L 69.427,99.427 C 70.541,99.078 71.169,98.313 71.796,97.615 C 73.538,96.779 70.681,97.057 70.193,96.849 C 68.939,96.709 67.615,97.406 66.431,96.709 C 64.48,97.197 63.575,96.779 61.624,97.336 C 60.439,96.988 58.907,97.823 58.141,98.172 C 58.558,99.217 58.489,99.077 59.185,100.053 C 59.743,100.89 59.952,102.213 59.325,103.536 C 59.813,104.303 58.768,105.069 59.185,105.766 C 58.28,106.114 58.628,107.507 57.513,107.577 C 57.792,109.11 55.91,109.806 55.144,110.504 C 53.472,111.549 52.984,113.36 51.034,113.639 C 49.989,115.103 48.108,115.381 46.714,116.217 C 46.365,117.82 44.554,116.984 44.066,118.168 C 43.509,118.237 42.951,118.655 42.742,119.213 C 41,119.422 39.677,120.745 38.144,121.512 C 36.82,121.582 35.636,121.93 34.661,122.697 C 32.64,124.718 29.226,124.091 26.997,125.205 C 26.301,124.927 25.603,125.623 24.976,125.833 C 22.747,126.32 20.378,126.25 18.357,127.017 C 14.874,126.808 10.624,126.877 8.881,123.534 C 7.767,122.28 9.508,121.444 9.16,120.12 L 9.508,119.842 C 9.09,118.727 10.204,117.821 10.693,116.915 C 11.877,115.521 13.34,114.686 14.316,113.153 L 14.177,113.013 C 15.082,112.317 16.198,111.828 16.824,110.923 C 16.964,110.505 17.172,110.017 17.66,109.947 C 17.8,110.226 18.078,110.016 18.287,110.087 C 19.82,108.693 21.771,108.275 22.746,106.673 C 23.791,105.628 25.115,105.349 26.23,104.374 C 27.414,104.583 28.32,103.398 29.435,102.841 C 29.435,101.935 30.48,102.772 30.689,101.935 C 31.804,102.005 32.431,100.821 33.685,101.169 C 33.825,100.751 34.312,100.472 34.661,100.054 C 33.894,99.358 33.546,98.104 32.362,98.033 C 32.641,97.337 31.944,97.057 31.735,96.57 C 29.993,95.525 29.297,93.783 27.485,92.808 L 27.694,92.668 C 26.649,91.901 25.813,90.647 24.559,89.951 C 25.047,88.906 22.956,87.722 24.489,86.816 C 26.649,87.095 27.764,85.074 29.784,85.213 C 30.899,84.238 32.292,83.402 33.755,83.75 C 34.103,83.611 34.452,83.332 34.731,83.123 C 35.008,82.914 35.635,82.983 35.635,82.983 L 35.635,82.983 z M 25.672,119.909 C 26.648,119.352 27.971,119.84 28.528,118.864 C 30.549,118.795 30.549,118.097 32.36,117.679 C 32.917,117.539 34.172,117.679 35.286,116.912 C 35.843,116.494 36.54,116.285 37.167,116.146 C 37.655,116.076 37.655,115.728 38.073,115.518 C 38.979,115.101 39.049,114.543 39.397,114.264 C 40.442,113.219 40.582,113.289 40.651,112.244 C 40.651,110.92 41.069,111.059 40.233,109.457 C 39.815,109.178 39.536,108.342 39.745,107.994 C 38.7,107.088 38.769,106.53 38.073,105.485 C 37.377,103.186 35.844,105.276 34.729,105.345 C 34.171,106.391 33.266,105.206 32.987,106.53 C 32.848,106.321 32.639,106.321 32.5,106.321 C 32.151,107.018 31.315,106.391 31.106,107.157 C 29.852,107.506 28.946,108.481 27.762,108.83 C 26.647,109.735 25.184,110.224 24.418,111.407 C 23.303,112.244 23.024,113.636 21.561,114.054 C 21.422,114.333 20.934,114.403 21.074,114.821 C 20.098,114.89 19.959,115.866 19.68,116.633 C 19.75,117.4 18.774,118.584 20.028,119.002 L 19.889,119.141 C 20.586,119.211 20.586,120.465 21.352,119.978 C 21.77,119.978 21.909,120.465 22.745,120.187 C 22.746,120.188 23.652,121.024 25.672,119.909 L 25.672,119.909 z" id="path13" style="fill:#eb000c;fill-opacity:1;fill-rule:evenodd"/><path clip-rule="evenodd" d="M 139.516,84.029 C 139.516,83.75 139.655,83.68 139.934,83.82 C 140.421,84.099 140.979,84.447 140.979,84.447 C 140.979,84.238 141.119,84.098 141.467,84.168 C 141.745,84.238 142.094,84.308 142.094,84.308 C 142.094,84.308 141.884,83.959 141.815,83.75 C 141.676,83.471 141.815,83.332 141.955,83.262 C 141.955,83.262 141.746,83.123 141.606,83.053 C 141.328,82.844 141.397,82.635 141.676,82.565 C 142.024,82.356 142.512,82.147 142.512,82.147 C 142.372,82.078 142.163,81.868 142.372,81.59 C 142.581,81.311 142.859,80.893 142.859,80.893 C 142.859,80.893 142.372,80.893 142.023,80.893 C 141.745,80.893 141.675,80.684 141.675,80.475 C 141.675,80.475 141.187,80.823 140.839,81.102 C 140.49,81.311 140.211,81.102 140.281,80.754 C 140.35,80.196 140.42,79.639 140.42,79.639 C 140.211,79.709 139.933,79.709 139.793,79.43 C 139.584,79.012 139.375,78.455 139.375,78.455 C 139.375,78.455 139.097,79.012 138.888,79.43 C 138.748,79.709 138.47,79.709 138.261,79.639 C 138.261,79.639 138.33,80.197 138.4,80.754 C 138.47,81.102 138.191,81.311 137.913,81.102 C 137.495,80.823 137.007,80.475 137.007,80.475 C 137.077,80.684 136.938,80.893 136.659,80.893 C 136.31,80.893 135.823,80.893 135.823,80.893 C 135.823,80.893 136.101,81.311 136.31,81.59 C 136.519,81.868 136.31,82.078 136.17,82.147 C 136.17,82.147 136.658,82.356 137.006,82.565 C 137.285,82.635 137.355,82.844 137.076,83.053 C 136.936,83.123 136.727,83.262 136.727,83.262 C 136.867,83.332 137.005,83.471 136.867,83.75 C 136.797,83.959 136.589,84.308 136.589,84.308 C 136.589,84.308 136.937,84.238 137.216,84.168 C 137.564,84.098 137.703,84.238 137.703,84.447 C 137.703,84.447 138.261,84.098 138.748,83.82 C 139.026,83.681 139.166,83.751 139.166,84.029 C 139.166,84.238 139.166,84.725 139.166,84.725 C 139.166,85.143 139.097,85.631 138.957,85.91 C 136.936,85.632 135.334,84.098 135.334,82.009 C 135.334,79.849 137.146,78.107 139.306,78.107 C 141.535,78.107 143.347,79.849 143.347,82.009 C 143.347,84.03 141.814,85.632 139.793,85.841 C 139.793,85.911 139.793,86.259 139.793,86.399 C 142.162,86.19 143.974,84.309 143.974,82.01 C 143.974,79.571 141.883,77.551 139.306,77.551 C 136.797,77.551 134.707,79.571 134.707,82.01 C 134.707,84.1 136.31,85.911 138.47,86.33 C 138.818,86.399 139.027,86.469 139.237,86.678 C 139.446,86.261 139.515,85.355 139.515,84.867 C 139.516,84.865 139.516,84.238 139.516,84.029 L 139.516,84.029 z" id="path15" style="fill:#eb000c;fill-opacity:1;fill-rule:evenodd"/><path clip-rule="evenodd" d="M 63.017,83.889 C 62.877,84.307 62.668,84.934 62.668,84.934 L 60.926,84.934 C 61.204,84.655 61.414,84.167 61.762,83.262 C 62.11,82.495 62.529,81.52 62.807,80.754 C 63.016,80.196 63.156,79.848 63.016,79.5 L 65.594,79.5 C 65.524,79.988 65.663,80.127 65.873,80.824 C 66.221,81.73 66.639,82.845 66.848,83.402 C 67.127,84.168 67.406,84.656 67.684,84.935 L 65.663,84.935 C 65.663,84.935 65.315,84.099 65.246,83.89 L 63.017,83.89 L 63.017,83.889 z M 63.226,82.983 L 64.898,82.983 L 64.131,80.684 L 63.226,82.983 L 63.226,82.983 z" id="path17" style="fill:#eb000c;fill-opacity:1;fill-rule:evenodd"/><path clip-rule="evenodd" d="M 97.922,83.262 C 97.922,82.983 97.922,81.938 97.922,81.241 C 97.922,80.405 97.852,79.847 97.643,79.499 L 99.664,79.499 L 102.172,82.425 L 102.172,79.5 L 103.775,79.5 C 103.496,79.918 103.426,80.545 103.426,81.242 C 103.426,81.591 103.426,82.914 103.426,83.263 C 103.426,84.03 103.495,84.587 103.775,84.935 L 102.172,84.935 L 99.245,81.312 L 99.245,84.935 L 97.642,84.935 C 97.922,84.586 97.922,83.959 97.922,83.262 L 97.922,83.262 z" id="path19" style="fill:#eb000c;fill-opacity:1;fill-rule:evenodd"/><path clip-rule="evenodd" d="M 72.979,84.935 C 73.257,84.656 73.327,84.099 73.327,83.263 C 73.327,82.915 73.327,81.521 73.327,81.242 C 73.327,80.545 73.327,79.918 72.979,79.5 L 76.393,79.5 C 77.717,79.5 78.553,80.127 78.553,81.242 C 78.553,82.218 77.786,82.705 77.438,82.845 C 77.786,83.403 78.065,83.89 78.204,84.099 C 78.483,84.517 78.692,84.796 78.901,84.935 L 76.88,84.935 L 75.905,82.984 L 74.86,82.984 L 74.86,84.935 L 72.979,84.935 L 72.979,84.935 z M 75.906,82.078 C 76.603,82.078 76.951,81.729 76.951,81.242 C 76.951,80.755 76.603,80.406 75.906,80.406 L 74.86,80.406 L 74.86,82.078 L 75.906,82.078 L 75.906,82.078 z" id="path21" style="fill:#eb000c;fill-opacity:1;fill-rule:evenodd"/><path clip-rule="evenodd" d="M 112.762,83.262 C 112.762,82.356 112.762,81.868 112.762,81.241 C 112.762,80.544 112.692,79.917 112.413,79.499 L 115.131,79.499 C 117.152,79.499 118.266,80.684 118.266,82.216 C 118.266,83.679 117.221,84.933 115.131,84.933 L 112.413,84.933 C 112.691,84.586 112.762,83.959 112.762,83.262 L 112.762,83.262 z M 114.295,84.029 L 114.852,84.029 C 116.037,84.029 116.455,83.262 116.455,82.217 C 116.455,81.172 115.968,80.405 114.852,80.405 L 114.295,80.405 L 114.295,84.029 L 114.295,84.029 z" id="path23" style="fill:#eb000c;fill-opacity:1;fill-rule:evenodd"/><path clip-rule="evenodd" d="M 71.307,84.935 C 71.028,84.656 70.959,84.099 70.959,83.402 C 70.959,83.402 70.959,81.381 70.959,81.103 C 70.959,80.406 71.028,79.849 71.307,79.5 L 68.938,79.5 C 69.216,79.848 69.286,80.406 69.286,81.103 C 69.286,81.382 69.286,83.402 69.286,83.402 C 69.286,84.098 69.216,84.656 68.938,84.935 L 71.307,84.935 L 71.307,84.935 z" id="path25" style="fill:#eb000c;fill-opacity:1;fill-rule:evenodd"/><path clip-rule="evenodd" d="M 120.844,83.889 C 120.704,84.307 120.495,84.934 120.495,84.934 L 118.754,84.934 C 119.032,84.655 119.241,84.167 119.659,83.262 C 119.937,82.495 120.355,81.52 120.635,80.754 C 120.844,80.196 120.984,79.848 120.913,79.5 L 123.421,79.5 C 123.352,79.988 123.491,80.127 123.7,80.824 C 124.049,81.73 124.467,82.845 124.676,83.402 C 124.954,84.168 125.233,84.656 125.512,84.935 L 123.491,84.935 C 123.491,84.935 123.142,84.099 123.073,83.89 L 120.844,83.89 L 120.844,83.889 z M 121.053,82.983 L 122.794,82.983 L 121.958,80.684 L 121.053,82.983 L 121.053,82.983 z" id="path27" style="fill:#eb000c;fill-opacity:1;fill-rule:evenodd"/><path clip-rule="evenodd" d="M 91.791,83.889 C 91.721,84.307 91.443,84.934 91.443,84.934 L 89.7,84.934 C 89.979,84.655 90.258,84.167 90.606,83.262 C 90.884,82.495 91.302,81.52 91.581,80.754 C 91.86,80.197 92,79.848 91.86,79.5 L 94.368,79.5 C 94.298,79.988 94.437,80.127 94.646,80.824 C 94.995,81.73 95.482,82.845 95.622,83.402 C 95.901,84.168 96.179,84.656 96.458,84.935 L 94.437,84.935 C 94.437,84.935 94.159,84.099 94.019,83.89 L 91.791,83.89 L 91.791,83.889 z M 92.069,82.983 L 93.811,82.983 L 92.975,80.684 L 92.069,82.983 L 92.069,82.983 z" id="path29" style="fill:#eb000c;fill-opacity:1;fill-rule:evenodd"/><path clip-rule="evenodd" d="M 106.84,83.889 C 106.7,84.307 106.422,84.934 106.422,84.934 L 104.75,84.934 C 105.028,84.655 105.237,84.167 105.586,83.262 C 105.864,82.495 106.282,81.52 106.631,80.754 C 106.84,80.196 106.979,79.848 106.84,79.5 L 109.348,79.5 C 109.279,79.988 109.418,80.127 109.697,80.824 C 109.975,81.73 110.464,82.845 110.602,83.402 C 110.881,84.168 111.16,84.656 111.438,84.935 L 109.418,84.935 C 109.418,84.935 109.139,84.099 108.999,83.89 L 106.84,83.89 L 106.84,83.889 z M 107.049,82.983 L 108.79,82.983 L 107.954,80.684 L 107.049,82.983 L 107.049,82.983 z" id="path31" style="fill:#eb000c;fill-opacity:1;fill-rule:evenodd"/><path clip-rule="evenodd" d="M 88.586,80.824 C 88.307,80.615 87.68,80.266 86.983,80.266 C 85.938,80.336 85.032,81.033 85.032,82.217 C 85.032,83.401 85.938,84.029 86.983,84.029 C 87.749,84.029 88.446,83.611 88.655,83.402 L 88.655,84.935 C 88.515,84.865 88.306,84.865 87.888,84.935 C 87.539,85.004 87.121,85.144 86.634,85.144 C 84.544,85.144 83.22,83.959 83.22,82.218 C 83.22,80.406 84.614,79.222 86.634,79.222 C 87.192,79.222 87.679,79.362 87.958,79.431 C 88.166,79.431 88.375,79.501 88.585,79.362 L 88.585,80.824 L 88.586,80.824 z" id="path33" style="fill:#eb000c;fill-opacity:1;fill-rule:evenodd"/></g>
</svg>