<?xml version="1.0" encoding="utf-8"?>
<!-- Generator: Adobe Illustrator 22.1.0, SVG Export Plug-In . SVG Version: 6.00 Build 0)  -->
<svg version="1.1"
	 id="svg2" inkscape:output_extension="org.inkscape.output.svg.inkscape" inkscape:version="0.46" sodipodi:docname="qatar.svg" sodipodi:version="0.32" xmlns:cc="http://creativecommons.org/ns#" xmlns:dc="http://purl.org/dc/elements/1.1/" xmlns:inkscape="http://www.inkscape.org/namespaces/inkscape" xmlns:rdf="http://www.w3.org/1999/02/22-rdf-syntax-ns#" xmlns:sodipodi="http://sodipodi.sourceforge.net/DTD/sodipodi-0.dtd" xmlns:svg="http://www.w3.org/2000/svg"
	 xmlns="http://www.w3.org/2000/svg" xmlns:xlink="http://www.w3.org/1999/xlink" x="0px" y="0px" width="81.507px" height="23px"
	 viewBox="0 0 81.507 23" style="enable-background:new 0 0 81.507 23;" xml:space="preserve">
<style type="text/css">
	.st0{fill:#505967;}
	.st1{fill:#5C0632;}
	.st2{fill:#747F8A;}
</style>
<defs>
	
	
		<inkscape:perspective  id="perspective9" inkscape:persp3d-origin="372.04724 : 350.78739 : 1" inkscape:vp_x="0 : 526.18109 : 1" inkscape:vp_y="0 : 1000 : 0" inkscape:vp_z="744.09448 : 526.18109 : 1" sodipodi:type="inkscape:persp3d">
		</inkscape:perspective>
</defs>
<sodipodi:namedview  bordercolor="#666666" borderopacity="1.0" gridtolerance="10.0" guidetolerance="10.0" id="base" inkscape:current-layer="g11" inkscape:cx="150.88933" inkscape:cy="51.560047" inkscape:pageopacity="0.0" inkscape:pageshadow="2" inkscape:window-height="750" inkscape:window-width="1280" inkscape:window-x="-8" inkscape:window-y="-8" inkscape:zoom="2.483428" objecttolerance="10.0" pagecolor="#ffffff" showgrid="false">
	</sodipodi:namedview>
<g id="g11" transform="matrix(1.25,0,0,-1.25,-231.48302,652.21096)" inkscape:groupmode="layer" inkscape:label="bookingguide">
	<g id="g2901" transform="matrix(1.6346852,0,0,1.6346852,-480.32465,383.92554)">
		<g id="g103" transform="translate(434.6456,47.0897)">
			<path id="path105" class="st0" d="M-20.208,27.238c-0.085-0.006-0.168-0.011-0.253-0.011c-0.097,0-0.19,0.008-0.287,0.011
				l0.281,0.678L-20.208,27.238z M-19.896,26.47c0.05,0.003,0.127,0.016,0.204,0.016c0.077,0,0.174-0.014,0.215-0.016
				c-0.124,0.267-0.306,0.683-0.411,0.923c-0.099,0.231-0.264,0.617-0.397,0.994c-0.03-0.008-0.058-0.014-0.088-0.014
				c-0.033,0-0.061,0.006-0.091,0.014c-0.066-0.226-0.226-0.584-0.504-1.207l-0.32-0.71c0.038,0.006,0.077,0.016,0.124,0.016
				c0.044,0,0.097-0.011,0.132-0.016c0.044,0.157,0.132,0.386,0.22,0.598c0.11,0.006,0.221,0.011,0.331,0.011
				c0.119,0,0.234-0.005,0.353-0.011l0.115-0.292L-19.896,26.47z"/>
		</g>
		<g id="g107" transform="translate(438.1694,48.8478)">
			<path id="path109" class="st0" d="M-22.76,25.965c0-0.471,0-0.926-0.03-1.253c0.061,0.002,0.138,0.016,0.198,0.016
				c0.063,0,0.13-0.014,0.193-0.016c-0.022,0.223-0.028,0.521-0.028,0.931c0,0.279,0,0.755,0.03,0.959
				c-0.066-0.008-0.135-0.017-0.196-0.017c-0.041,0-0.143,0.011-0.196,0.017C-22.76,26.335-22.76,26.139-22.76,25.965"/>
		</g>
		<g id="g111" transform="translate(444.1109,47.6989)">
			<path id="path113" class="st0" d="M-27.063,26.797c0.251,0.047,0.48,0.204,0.48,0.51c0,0.116-0.044,0.229-0.127,0.309
				c-0.118,0.113-0.254,0.135-0.433,0.135c-0.063,0-0.383-0.014-0.454-0.014c-0.141,0-0.212,0.008-0.275,0.014
				c0.019-0.355,0.019-0.394,0.019-0.755c0-0.531-0.003-0.592-0.025-1.135c0.061,0.008,0.127,0.016,0.19,0.016
				c0.069,0,0.13-0.011,0.185-0.016c0,0.071-0.011,0.427-0.011,0.507v0.391h0.066c0.149-0.209,0.319-0.452,0.46-0.67
				c0.041-0.063,0.102-0.165,0.143-0.228c0.083,0.011,0.116,0.016,0.223,0.016c0.099,0,0.168-0.008,0.245-0.016
				c-0.173,0.217-0.248,0.314-0.465,0.62c-0.041,0.058-0.102,0.149-0.143,0.207L-27.063,26.797z M-27.515,27.602
				c0.041,0.003,0.143,0.014,0.196,0.014c0.091,0,0.182-0.014,0.256-0.069c0.097-0.071,0.116-0.171,0.116-0.287
				c0-0.179-0.102-0.38-0.377-0.38c-0.072,0-0.138,0.006-0.19,0.009V27.602z"/>
		</g>
		<g id="g115" transform="translate(449.3145,46.6396)">
			<path id="path117" class="st0" d="M-30.832,27.564c-0.129,0.383-0.308,0.92-0.394,1.245c-0.069-0.011-0.129-0.017-0.193-0.017
				c-0.066,0-0.16,0.011-0.215,0.017c0.113-0.298,0.209-0.562,0.284-0.771c0.127-0.358,0.209-0.606,0.309-0.909l0.069-0.21
				c0.039,0.008,0.082,0.016,0.113,0.016c0.03,0,0.058-0.005,0.105-0.016c0.044,0.143,0.097,0.319,0.135,0.432
				c0.107,0.314,0.121,0.358,0.262,0.749l0.082,0.229c0.03-0.088,0.083-0.229,0.113-0.317c0.03-0.085,0.171-0.507,0.204-0.601
				c0.044-0.124,0.055-0.159,0.157-0.493c0.025,0.003,0.077,0.016,0.119,0.016c0.039,0,0.069-0.008,0.11-0.016
				c0.105,0.328,0.116,0.361,0.27,0.802c0.152,0.43,0.245,0.675,0.41,1.088c-0.041-0.011-0.082-0.017-0.124-0.017
				c-0.052,0-0.096,0.008-0.127,0.017c-0.099-0.358-0.149-0.532-0.229-0.769c-0.13-0.386-0.146-0.43-0.226-0.639
				c-0.088,0.237-0.174,0.477-0.254,0.719c-0.044,0.132-0.212,0.683-0.215,0.689c-0.038-0.008-0.066-0.017-0.121-0.017
				c-0.049,0-0.085,0.011-0.121,0.017c-0.083-0.336-0.375-1.146-0.402-1.22l-0.069-0.179L-30.832,27.564z"/>
		</g>
		<g id="g119" transform="translate(459.3955,47.0897)">
			<path id="path121" class="st0" d="M-38.133,27.238c-0.085-0.006-0.168-0.011-0.254-0.011c-0.096,0-0.19,0.008-0.286,0.011
				l0.281,0.678L-38.133,27.238z M-37.822,26.47c0.05,0.003,0.127,0.016,0.204,0.016c0.077,0,0.174-0.014,0.215-0.016
				c-0.124,0.267-0.306,0.683-0.411,0.923c-0.099,0.231-0.264,0.617-0.397,0.994c-0.03-0.008-0.058-0.014-0.088-0.014
				c-0.033,0-0.061,0.006-0.091,0.014c-0.066-0.226-0.226-0.584-0.504-1.207l-0.32-0.71c0.039,0.006,0.077,0.016,0.124,0.016
				c0.044,0,0.096-0.011,0.132-0.016c0.044,0.157,0.132,0.386,0.22,0.598c0.11,0.006,0.22,0.011,0.33,0.011
				c0.119,0,0.234-0.005,0.353-0.011l0.116-0.292L-37.822,26.47z"/>
		</g>
		<g id="g123" transform="translate(464.7174,46.9798)">
			<path id="path125" class="st0" d="M-41.987,27.318c0,0.025,0.017,0.055,0.036,0.088c0.116,0.198,0.223,0.405,0.347,0.603
				c0.041,0.066,0.242,0.386,0.284,0.46c-0.031-0.011-0.061-0.017-0.116-0.017c-0.061,0-0.116,0.009-0.16,0.017
				c-0.198-0.435-0.242-0.529-0.476-0.931c-0.234,0.41-0.339,0.628-0.482,0.931c-0.08-0.014-0.16-0.017-0.226-0.017
				c-0.061,0-0.124,0.006-0.226,0.017c0.143-0.24,0.378-0.62,0.518-0.862l0.162-0.281c0-0.171-0.008-0.532-0.016-0.746
				c0.052,0.006,0.129,0.016,0.184,0.016c0.063,0,0.127-0.011,0.191-0.016c-0.011,0.256-0.02,0.405-0.02,0.636V27.318z"/>
		</g>
		<g id="g127" transform="translate(467.7119,45.8003)">
			<path id="path129" class="st0" d="M-44.156,28.172c-0.014-0.132-0.017-0.168-0.063-0.311c0.099-0.05,0.279-0.141,0.515-0.141
				c0.504,0,0.7,0.322,0.7,0.603c0,0.077-0.019,0.24-0.135,0.364c-0.08,0.088-0.163,0.118-0.375,0.201
				c-0.242,0.094-0.383,0.149-0.383,0.35c0,0.162,0.108,0.298,0.325,0.298c0.173,0,0.32-0.083,0.361-0.24h0.039
				c0.025,0.105,0.03,0.127,0.085,0.262c-0.135,0.06-0.256,0.113-0.457,0.113c-0.499,0-0.642-0.309-0.642-0.551
				c0-0.229,0.08-0.37,0.347-0.488c0.077-0.033,0.207-0.082,0.284-0.116c0.052-0.022,0.226-0.099,0.226-0.317
				c0-0.199-0.144-0.345-0.361-0.345c-0.163,0-0.301,0.041-0.427,0.317H-44.156z"/>
		</g>
		<g id="g131" transform="translate(412.2101,64.2639)">
			<path id="path133" class="st1" d="M-3.959,14.8c0,2.083,1.116,2.645,1.959,2.645c1.355,0,1.942-1.124,1.942-2.323
				c0-0.686-0.083-1.331-0.422-1.851c-0.339-0.52-0.901-0.835-1.513-0.835C-3.521,12.436-3.959,13.891-3.959,14.8 M0.157,10.543
				c0.248,0.174,0.636,0.389,0.917,0.513l-1.868,1.157c1.149,0.405,1.868,1.43,1.868,2.826c0,1.983-1.513,2.826-3.058,2.826
				c-1.669,0-3.107-0.926-3.107-3.025c0-0.446,0.099-1.289,0.793-1.992c0.719-0.727,1.57-0.835,2.29-0.835
				c0.091,0,0.181,0,0.273,0.008L0.157,10.543z"/>
		</g>
		<g id="g135" transform="translate(444.4453,62.9446)">
			<path id="path137" class="st1" d="M-27.305,15.756c-0.256-0.017-0.504-0.033-0.761-0.033c-0.289,0-0.57,0.025-0.859,0.033
				l0.843,2.033L-27.305,15.756z M-26.371,13.45c0.149,0.008,0.38,0.05,0.611,0.05c0.232,0,0.521-0.041,0.645-0.05
				c-0.372,0.802-0.917,2.05-1.232,2.769c-0.298,0.694-0.793,1.851-1.19,2.984c-0.091-0.025-0.174-0.042-0.264-0.042
				c-0.099,0-0.182,0.017-0.273,0.042c-0.199-0.678-0.678-1.752-1.513-3.62l-0.959-2.132c0.116,0.016,0.232,0.05,0.372,0.05
				c0.132,0,0.29-0.033,0.397-0.05c0.132,0.471,0.397,1.157,0.661,1.794c0.33,0.016,0.661,0.033,0.992,0.033
				c0.355,0,0.703-0.017,1.058-0.033l0.347-0.876L-26.371,13.45z"/>
		</g>
		<g id="g139" transform="translate(461.1321,69.7778)">
			<path id="path141" class="st1" d="M-39.39,10.807c0,0.314,0.008,0.628,0.016,0.926c0.57,0,1.157-0.009,1.645-0.058
				c-0.025,0.132-0.041,0.206-0.041,0.297c0,0.066,0.017,0.174,0.041,0.314c-0.793-0.041-1.521-0.049-2.207-0.049
				c-0.636,0-1.554,0.008-2.207,0.049c0.025-0.099,0.041-0.207,0.041-0.306c0-0.099-0.016-0.207-0.041-0.306
				c0.422,0.041,1.215,0.058,1.289,0.058h0.413c0.008-0.323,0.017-0.612,0.017-0.918l0.008-2.306c0-0.628-0.049-1.265-0.083-1.893
				c0.298,0.033,0.422,0.049,0.562,0.049c0.099,0,0.364-0.025,0.604-0.049c-0.025,0.231-0.058,0.504-0.058,1.132V10.807z"/>
		</g>
		<g id="g143" transform="translate(477.8145,62.9446)">
			<path id="path145" class="st1" d="M-51.473,15.756c-0.256-0.017-0.504-0.033-0.76-0.033c-0.29,0-0.57,0.025-0.86,0.033
				l0.843,2.033L-51.473,15.756z M-50.539,13.45c0.149,0.008,0.38,0.05,0.612,0.05c0.231,0,0.521-0.041,0.645-0.05
				c-0.372,0.802-0.917,2.05-1.232,2.769c-0.298,0.694-0.794,1.851-1.19,2.984c-0.091-0.025-0.174-0.042-0.264-0.042
				c-0.099,0-0.182,0.017-0.273,0.042c-0.198-0.678-0.678-1.752-1.513-3.62l-0.959-2.132c0.116,0.016,0.232,0.05,0.372,0.05
				c0.132,0,0.289-0.033,0.397-0.05c0.132,0.471,0.397,1.157,0.661,1.794c0.33,0.016,0.661,0.033,0.992,0.033
				c0.355,0,0.703-0.017,1.058-0.033l0.347-0.876L-50.539,13.45z"/>
		</g>
		<g id="g147" transform="translate(497.8285,64.7717)">
			<path id="path149" class="st1" d="M-65.968,14.432c0.752,0.141,1.438,0.612,1.438,1.529c0,0.347-0.132,0.686-0.381,0.925
				c-0.355,0.339-0.76,0.405-1.297,0.405c-0.19,0-1.149-0.041-1.364-0.041c-0.422,0-0.636,0.025-0.826,0.041
				c0.058-1.066,0.058-1.182,0.058-2.264c0-1.596-0.008-1.777-0.074-3.405c0.182,0.025,0.38,0.05,0.57,0.05
				c0.207,0,0.389-0.033,0.554-0.05c0,0.215-0.033,1.281-0.033,1.521v1.174h0.199c0.446-0.628,0.959-1.356,1.38-2.009
				c0.124-0.19,0.306-0.496,0.429-0.686c0.248,0.033,0.347,0.05,0.67,0.05c0.298,0,0.504-0.025,0.736-0.05
				c-0.521,0.653-0.743,0.942-1.397,1.859c-0.124,0.174-0.306,0.446-0.43,0.62L-65.968,14.432z M-67.323,16.846
				c0.124,0.008,0.43,0.041,0.587,0.041c0.273,0,0.545-0.041,0.769-0.206c0.289-0.215,0.347-0.512,0.347-0.86
				c0-0.537-0.306-1.141-1.132-1.141c-0.215,0-0.413,0.017-0.57,0.025V16.846z"/>
		</g>
		<g id="g151" transform="translate(542.6324,64.7148)">
			<path id="path153" class="st2" d="M-98.417,14.474c0-0.053-0.748-0.103-1.816-0.145c-0.189,0.107-0.332,0.215-0.437,0.307
				C-99.374,14.59-98.417,14.533-98.417,14.474"/>
		</g>
		<g id="g155" transform="translate(539.8502,71.2535)">
			<path id="path157" class="st2" d="M-96.402,9.738c0-0.044-0.627-0.086-1.524-0.122c0.129,0.075,0.261,0.151,0.4,0.226
				C-96.848,9.811-96.402,9.775-96.402,9.738"/>
		</g>
		<g id="g159" transform="translate(515.6267,57.1865)">
			<path id="path161" class="st2" d="M-78.858,19.926c-0.415-0.005-0.779-0.007-1.063-0.007c-0.409,0-0.741,0.126-0.741,0.282
				c0,0.156,0.331,0.282,0.741,0.282c0.362,0,0.853-0.004,1.416-0.011c-0.218-0.314-0.321-0.503-0.331-0.515
				C-78.842,19.948-78.85,19.937-78.858,19.926"/>
		</g>
		<g id="g163" transform="translate(516.4374,55.817)">
			<path id="path165" class="st2" d="M-79.445,20.918c0.137-0.165,0.268-0.304,0.444-0.456c0,0,0.066-0.095,0.267-0.014
				c0.205,0.083,0.378,0.197,0.574,0.459c0.571-0.01,1.176-0.022,1.772-0.036c0.049-0.071,0.149-0.219,0.271-0.402
				c-1.661-0.043-3.464-0.069-4.388-0.069c-0.385,0-0.697,0.119-0.697,0.266c0,0.147,0.312,0.266,0.697,0.266
				c0.281,0,0.644-0.002,1.058-0.007C-79.447,20.922-79.445,20.918-79.445,20.918"/>
		</g>
		<g id="g167" transform="translate(514.1071,50.7933)">
			<path id="path169" class="st2" d="M-77.757,24.556c-0.341,0-0.618,0.105-0.618,0.235c0,0.13,0.277,0.235,0.618,0.235
				c0.903,0,2.755-0.028,4.34-0.073c0.076-0.109,0.153-0.218,0.225-0.318C-74.824,24.587-76.812,24.556-77.757,24.556"/>
		</g>
		<g id="g171" transform="translate(533.2043,48.0615)">
			<path id="path173" class="st2" d="M-91.588,26.535c-1.332-0.058-3.621-0.098-4.573-0.098c-0.268,0-0.485,0.084-0.485,0.185
				c0,0.102,0.218,0.185,0.485,0.185c0.91,0,3.047-0.036,4.396-0.09C-91.704,26.652-91.645,26.59-91.588,26.535"/>
		</g>
		<g id="g175" transform="translate(520.606,46.2503)">
			<path id="path177" class="st2" d="M-82.464,27.846c0.786,0,3.177-0.059,3.177-0.131c0-0.073-2.392-0.132-3.177-0.132
				c-0.153,0-0.277,0.059-0.277,0.132C-82.741,27.787-82.617,27.846-82.464,27.846"/>
		</g>
		<g id="g179" transform="translate(520.6375,63.7869)">
			<path id="path181" class="st2" d="M-82.487,15.146c-0.989-0.017-1.875-0.026-2.445-0.026c-0.409,0-0.741,0.126-0.741,0.282
				c0,0.156,0.332,0.282,0.741,0.282c0.662,0,1.751-0.013,2.931-0.035C-82.177,15.475-82.339,15.307-82.487,15.146"/>
		</g>
		<g id="g183" transform="translate(538.2264,68.3606)">
			<path id="path185" class="st2" d="M-95.226,11.833c0.579-0.031,0.944-0.066,0.944-0.102c0-0.039-0.441-0.077-1.124-0.111
				C-95.26,11.73-95.228,11.826-95.226,11.833"/>
		</g>
		<g id="g187" transform="translate(512.5949,67.0302)">
			<path id="path189" class="st2" d="M-76.662,12.797c-0.385,0-0.697,0.119-0.697,0.265c0,0.146,0.312,0.266,0.697,0.266
				c0.789,0,2.221-0.019,3.658-0.051c-0.176-0.149-0.343-0.296-0.501-0.44C-74.766,12.811-75.964,12.797-76.662,12.797"/>
		</g>
		<g id="g191" transform="translate(528.1628,70.6191)">
			<path id="path193" class="st2" d="M-87.937,10.197c-1.469-0.037-3.06-0.06-3.876-0.06c-0.341,0-0.618,0.105-0.618,0.235
				s0.276,0.235,0.618,0.235c0.901,0,2.748-0.028,4.331-0.073c-0.079-0.057-0.158-0.115-0.239-0.175
				C-87.794,10.306-87.866,10.252-87.937,10.197"/>
		</g>
		<g id="g195" transform="translate(516.6219,73.8511)">
			<path id="path197" class="st2" d="M-79.579,7.857c-0.268,0-0.485,0.082-0.485,0.185c0,0.102,0.218,0.185,0.485,0.185
				c1.01,0,3.529-0.045,4.809-0.108c-0.082-0.053-0.163-0.109-0.246-0.165C-76.349,7.896-78.629,7.857-79.579,7.857"/>
		</g>
		<g id="g199" transform="translate(511.4938,60.4085)">
			<path id="path201" class="st2" d="M-75.865,17.592c-0.416,0-0.754,0.128-0.754,0.287c0,0.158,0.338,0.287,0.754,0.287
				c0.522,0,1.303-0.008,2.187-0.021c-0.166-0.195-0.31-0.376-0.434-0.538C-74.815,17.598-75.43,17.592-75.865,17.592"/>
		</g>
		<g id="g203" transform="translate(519.6024,77.1242)">
			<path id="path205" class="st2" d="M-81.737,5.486c0,0.073,0.124,0.131,0.277,0.131c0.785,0,3.177-0.059,3.177-0.131
				c0-0.072-2.392-0.131-3.177-0.131C-81.613,5.355-81.737,5.414-81.737,5.486"/>
		</g>
		<g id="g207" transform="translate(542.9166,62.2206)">
			<path id="path209" class="st1" d="M-98.622,16.28c0.006-0.143,0.005-0.285-0.002-0.424c-1.391-0.055-2.711-0.139-2.711-0.233
				c0-0.093,1.29-0.176,2.665-0.231c-0.024-0.159-0.055-0.315-0.093-0.467c-1.356-0.055-2.614-0.137-2.614-0.229
				c0-0.089,1.175-0.168,2.475-0.224c-0.06-0.166-0.127-0.327-0.203-0.482c-1.117-0.054-2.04-0.125-2.04-0.204
				c0-0.073,0.807-0.141,1.823-0.193c-0.057-0.093-0.117-0.184-0.179-0.27c-0.066-0.094-0.138-0.187-0.214-0.278
				c-0.636-0.048-1.072-0.103-1.072-0.162c0-0.05,0.312-0.098,0.794-0.14c-0.263-0.26-0.573-0.503-0.939-0.715
				c0,0-0.431,0.371-0.787,0.805c-0.317,0.387-0.99,1.406-1.148,1.634c-0.159,0.228-0.263,0.295-0.448,0.229
				c-0.248-0.088-0.537-0.132-0.626-0.132c-0.089,0-0.138,0.034,0.011,0.093c0.148,0.06,0.735,0.337,1.024,0.909
				c0.324,0.644,0.039,1.534,0.039,1.534c-0.109-0.476-0.357-0.653-0.357-0.653c0.08,0.442-0.007,0.842-0.225,1.123l-0.122-0.559
				c0,0-0.076,0.004-0.264-0.154c-0.188-0.159-0.24-0.39-0.24-0.39c0.148-0.06,0.326,0.089,0.326,0.089
				c-0.228-0.851-0.554-1.544-0.792-1.911c-0.238-0.366-0.434-0.505-0.672-0.601c-0.201-0.081-0.267,0.014-0.267,0.014
				c-0.176,0.152-0.307,0.291-0.444,0.456c0,0-0.011,0.019,0.026,0.019c0.098-0.001,0.272,0.166,0.31,0.235
				c0.044,0.08,0.039,0.141,0.017,0.145c-0.022,0.004-0.059-0.06-0.248-0.179c-0.188-0.119-0.274-0.036-0.337,0.03
				c-0.049,0.053-0.001,0.118,0.03,0.159c0.029,0.036,1.022,1.889,3.651,3.836c3.445,2.551,5.646,3.24,5.772,3.289
				c0.083,0.033,0.219,0.076,0.25,0.044c0.034-0.036,0.051-0.065,0.046-0.106c-0.004-0.041-0.026-0.063-0.186-0.133
				c-1.323-0.583-2.866-1.554-3.744-2.119c-1.079-0.526-2.109-1.276-2.146-1.294c-0.083-0.052-0.022-0.127,0.028-0.095
				c1.822,1.212,3.957,2.037,6.318,2.713c0.113,0.032,0.175,0.032,0.193,0.007c0.021-0.028,0.03-0.059,0.034-0.094
				c0.003-0.043-0.033-0.066-0.13-0.104c-2.536-0.942-4.404-1.817-5.606-2.626c0,0-0.124-0.075-0.126-0.162
				c-0.001-0.033,0.067-0.037,0.067-0.037c0.602-0.011,1.406-0.046,1.789-0.068c0,0-0.055-0.194-0.421-0.35
				c-0.283-0.121-0.545-0.101-0.804-0.104c-0.058,0.001-0.106-0.057-0.06-0.119C-101.178,17.371-100.627,16.483-98.622,16.28"/>
		</g>
		<g id="g211" transform="translate(476.2855,45.382)">
			<path id="path213" class="st1" d="M-50.365,28.475h-0.34c0,0-0.046,0.209,0.077,0.289c0.124,0.081,0.263,0.143,0.263,0.143
				V28.475z M-48.753,29.258c0,0-0.207-0.119-0.337-0.235c-0.13-0.115,0.027-0.159,0.027-0.159v-0.389h-0.986v1.36
				c0,0-0.359-0.33-0.393-0.374c-0.035-0.047,0.085-0.089,0.085-0.089l-0.02-0.129c0,0-0.143-0.074-0.317-0.192
				c-0.173-0.116-0.301-0.264-0.301-0.367c0-0.103-0.044-0.507-0.044-0.507h2.285V29.258z M-50.794,29.755
				c0.113,0,0.192,0.044,0.192,0.134c0,0.09-0.053,0.152-0.192,0.152c-0.124,0-0.157-0.054-0.157-0.152
				C-50.951,29.79-50.908,29.755-50.794,29.755 M-50.374,29.755c0.114,0,0.191,0.044,0.191,0.134c0,0.09-0.052,0.152-0.191,0.152
				c-0.124,0-0.157-0.054-0.157-0.152C-50.531,29.79-50.488,29.755-50.374,29.755 M-49.737,28.061c-0.123,0-0.157-0.053-0.157-0.152
				c0-0.098,0.044-0.134,0.157-0.134c0.113,0,0.192,0.045,0.192,0.134C-49.545,27.999-49.597,28.061-49.737,28.061 M-49.3,28.061
				c-0.123,0-0.157-0.053-0.157-0.152c0-0.098,0.045-0.134,0.157-0.134c0.114,0,0.192,0.045,0.192,0.134
				C-49.108,27.999-49.159,28.061-49.3,28.061 M-44.376,29.782c0.113,0,0.193,0.043,0.193,0.133c0,0.089-0.052,0.153-0.193,0.153
				c-0.123,0-0.156-0.054-0.156-0.153S-44.488,29.782-44.376,29.782 M-43.94,29.782c0.113,0,0.191,0.043,0.191,0.133
				c0,0.089-0.052,0.153-0.191,0.153c-0.124,0-0.156-0.054-0.156-0.153S-44.054,29.782-43.94,29.782 M-42.735,29.745
				c-0.061-0.053-0.044-0.117,0.034-0.108v-1.461h0.324v1.819C-42.376,29.994-42.674,29.798-42.735,29.745 M-44.036,28.926h-0.21
				c0,0.115,0.21,0.179,0.21,0.179V28.926z M-45.415,28.684c0-0.053-0.002-0.139-0.005-0.209h-1.829v0.322
				c0.048,0.124,0.128,0.138,0.253,0.138h1.337C-45.37,28.935-45.415,28.783-45.415,28.684 M-43.276,29.638v-1.163h-0.435v1.056
				c0,0-0.089-0.034-0.211-0.088c-0.121-0.055-0.559-0.233-0.559-0.473v-0.278h0.446v-0.217h-1.058
				c0.001,0.051,0.002,0.126,0.002,0.236c0,0.347-0.295,0.535-0.558,0.535h-1.224c-0.214,0-0.318-0.052-0.376-0.111v0.895
				c0,0-0.191-0.134-0.331-0.241c-0.14-0.107,0-0.178,0-0.178v-1.136h-0.401l-0.009,0.975c0,0-0.279-0.204-0.359-0.266
				c-0.078-0.062-0.035-0.117,0.053-0.117c0,0-0.016-0.72-0.016-0.89c0-0.171-0.141-0.366-0.438-0.277c0,0-0.094-0.018-0.016-0.089
				c0.078-0.071,0.172-0.125,0.278-0.125c0.105,0,0.49,0.073,0.49,0.492h5.046v1.818c0,0-0.297-0.196-0.358-0.249
				C-43.373,29.693-43.355,29.629-43.276,29.638"/>
		</g>
	</g>
</g>
</svg>
