<?xml version="1.0" encoding="utf-8"?>
<!-- Generator: Adobe Illustrator 22.1.0, SVG Export Plug-In . SVG Version: 6.00 Build 0)  -->
<svg version="1.1" id="Layer_1" xmlns="http://www.w3.org/2000/svg" xmlns:xlink="http://www.w3.org/1999/xlink" x="0px" y="0px"
	 width="568.807px" height="205.301px" viewBox="0 0 568.807 205.301" enable-background="new 0 0 568.807 205.301"
	 xml:space="preserve">
<g>
	<path fill="#FFFFFF" d="M413.688,192.059l4.111-2.412l12.041-10.332l8.35-4.814l7.08-3.828l5.098-4.531l15.576-12.178
		l12.607-11.045l6.514-9.912c0,0,9.482-10.908,9.629-11.328c0.147-0.43,7.793-11.474,7.793-11.474l9.199-16.709l7.646-14.301
		l3.115-9.771l5.381-12.324l5.381-16.284l3.682-7.08l3.828-7.505l5.801-9.345l9.912-12.036l-9.766,0.708l-7.08,2.124l-16.289,4.39
		l-14.16,5.947l-15.576,7.929l-16.006,8.779l-14.014,11.187l-15.01,16.548l-4.395,8.379l-9.346,26.621l-5.664,13.458l-6.377,19.96
		l-0.703,14.443l1.27,8.359l-0.273,5.098l0.889,5.85l0.85,2.93l-0.469,4.062c0,0-2.168,2.832-2.266,3.398
		c-0.098,0.566-3.682,8.496-3.682,8.496l-4.434,6.699l-2.461,3.115"/>
	<radialGradient id="SVGID_1_" cx="419.0673" cy="123.6205" r="61.1875" gradientUnits="userSpaceOnUse">
		<stop  offset="0.0562" style="stop-color:#FDC300"/>
		<stop  offset="0.1004" style="stop-color:#FECA33"/>
		<stop  offset="0.1911" style="stop-color:#FFDA7D"/>
		<stop  offset="0.2776" style="stop-color:#FFE7B0"/>
		<stop  offset="0.3574" style="stop-color:#FFF2D4"/>
		<stop  offset="0.4292" style="stop-color:#FFF9EC"/>
		<stop  offset="0.4904" style="stop-color:#FFFEFA"/>
		<stop  offset="0.5337" style="stop-color:#FFFFFF"/>
	</radialGradient>
	<path fill-rule="evenodd" clip-rule="evenodd" fill="url(#SVGID_1_)" d="M424.987,100.111c-1.26,7.378-0.908,13.687,0,19.087
		c0.352,1.797,0.713,3.428,1.074,5.049c0.361-0.898,3.066-11.347,6.846-14.774c-3.057,4.873-4.316,10.985-4.678,16.747
		c1.26,0.547,1.621,0.186,2.881,0c5.762-2.871,12.06-5.4,18.545-5.938c1.807-1.26,3.242-2.52,4.688-3.964
		c6.475-5.938,10.44-12.783,11.523-20.167c0.537-5.049-0.176-9.907-2.158-16.03c-1.084-4.321,0-4.683-9.365-5.405h-0.547
		c-10.078-0.718-25.205,6.123-28.633,23.955C425.163,99.208,424.987,99.75,424.987,100.111z M409.313,117.762
		c2.52,1.797,5.586,3.779,9.19,6.123c0-0.186,0-0.186,0-0.186c-2.881-1.445-3.604-10.624-3.965-13.681
		c0.898,3.965,3.428,11.161,7.383,13.144c-1.797-10.985-1.621-21.791,3.066-31.874c0.176-0.542,0.537-1.084,0.713-1.802
		c-0.176-0.542-0.361-1.26-0.713-1.982c-3.428-8.105-8.291-14.223-14.766-18.369c-0.361-0.181-0.547-0.361-0.908-0.361
		c-3.242-1.982-7.021-3.418-10.986-4.502c-3.057-0.537-5.215-1.802-6.836-0.899c-1.27,0.542-2.168,2.7-3.066,4.863
		c-5.586,13.325-1.084,28.271,8.467,38.535C399.772,110.019,402.829,113.076,409.313,117.762z M418.678,129.647
		c-1.797-0.908-9.365,0.898-8.643,0.713c1.436-0.537,8.467-3.594,5.762-4.316c-2.158-1.621-4.326-3.242-6.484-4.688
		c-5.762-4.316-11.162-8.456-16.201-14.223c-7.383,0.356-17.295,5.591-25.576,11.166c-7.93,5.4-13.867,11.523-7.744,17.109
		c11.709,10.986,22.51,11.523,31.514,9.902c5.039-0.898,12.246-4.326,18.008-7.92C413.815,134.51,417.604,131.629,418.678,129.647z
		 M423.366,135.233c-1.807,4.492-3.965,11.885-7.031,15.117c1.27-2.52,5.049-14.043,4.688-16.562
		c-3.779,3.066-7.92,5.762-11.709,7.92c-5.576,3.242-10.439,5.41-12.969,5.947c-1.797,4.502-3.779,11.162-4.141,17.471
		c-0.361,4.141,0.547,8.281,2.168,11.699c2.334,5.225,3.955,9.189,11.885,6.484c1.074-0.361,2.158-0.713,3.057-1.074
		c7.022-2.891,12.432-7.744,15.674-18.73c0.176-0.723,0.537-1.621,0.713-2.705c1.621-6.484,0.547-12.07-0.713-17.822
		C424.44,140.448,423.903,137.928,423.366,135.233z M480.456,144.051c-2.344-10.986-14.766-19.99-25.752-20.166c0,0-0.185,0-0.361,0
		c-6.846,0-13.867,0.723-24.316,7.197c2.705-0.723,6.846,0.186,9.365,1.445c-4.678-0.723-8.642-0.547-11.523,1.621
		c0,4.678,1.436,9.541,2.158,14.229c5.947,5.762,15.312,11.523,24.316,12.783c1.621,0.186,3.242,0.186,4.863,0.186
		c5.4-0.371,10.977-3.252,15.303-7.031c2.344-2.158,4.502-4.326,5.947-6.846C481.178,146.395,480.817,145.135,480.456,144.051z"/>
	<path fill-rule="evenodd" clip-rule="evenodd" fill="#2B4F9E" d="M20.171,140.829H8.106L0,180.809h31.157l1.982-9.727H13.867
		L20.171,140.829z M144.975,140.829l-21.792,39.98h12.788l3.061-6.66h12.608l0.541,6.66h11.705l-6.123-39.98H144.975z
		 M142.992,165.682l3.965-8.643l2.701-5.762l1.26,14.404H142.992z M65.918,153.251c-1.802-1.26-5.586-1.973-11.167-1.973h-2.7
		c-3.423,0.176-6.123,0.898-7.925,2.158c-2.344,1.436-3.784,3.604-4.502,6.299l10.083,1.084c0.542-1.26,1.084-2.158,1.982-2.52
		c0,0,0.181-0.186,0.361-0.186c0.718-0.176,1.621-0.352,2.519-0.352c1.26,0,2.163,0.176,2.881,0.537
		c0.722,0.537,1.079,1.084,1.079,1.797c0,0.547-0.176,1.084-0.356,1.982c-0.903,0.361-3.061,0.723-6.123,1.084
		c-3.604,0.361-6.304,0.723-8.286,1.26c-2.158,0.361-3.784,1.26-5.225,2.705c-1.26,1.26-1.978,3.232-1.978,5.762
		c0,2.334,0.718,4.316,2.339,5.938c1.44,1.807,3.965,2.705,7.563,2.705c1.982,0,3.784-0.537,5.586-1.26
		c1.26-0.723,2.7-1.621,3.779-2.881c0,1.074,0.181,2.158,0.361,3.418h10.624c-0.542-1.445-0.718-2.705-0.718-3.965
		c0-1.621,0.356-4.316,1.26-8.281c1.079-4.141,1.441-7.197,1.441-9.004C68.798,156.854,67.895,154.696,65.918,153.251z
		 M54.39,173.788c-0.718,0.537-1.621,1.084-2.339,1.26c-0.542,0.176-1.084,0.361-1.802,0.361c-0.903,0-1.621-0.361-2.339-0.908
		c-0.542-0.352-0.903-1.25-0.903-2.158c0-0.898,0.542-1.621,1.26-2.334c0.542-0.361,1.802-0.723,3.784-1.27
		c1.26-0.176,3.061-0.537,5.039-0.898C56.553,170.545,55.649,172.528,54.39,173.788z M168.027,180.809h10.805l5.942-28.994h-10.806
		L168.027,180.809z M90.766,151.278H89.15c-2.886,0.176-5.586,0.898-7.925,2.158c-2.524,1.621-4.683,3.779-5.942,6.484
		c-1.445,2.705-2.163,5.576-2.163,8.467c0,3.779,1.079,6.836,3.423,9.355c2.339,2.529,6.123,3.789,10.986,3.789
		c0.537,0,1.079-0.185,1.621-0.185c3.237-0.176,5.942-0.898,8.101-2.344c2.7-1.611,4.683-3.779,5.942-6.475
		c1.44-2.881,1.982-5.586,1.982-8.291c0-3.418-1.079-6.475-3.423-9.18C99.414,152.538,95.81,151.278,90.766,151.278z
		 M92.929,170.721c-0.898,1.807-2.163,2.881-3.779,3.066c-0.361,0.176-0.542,0.176-0.903,0.176c-1.26,0-2.52-0.537-3.242-1.621
		c-0.898-1.074-1.44-2.334-1.44-3.955c0-2.168,0.542-4.326,1.802-6.484c0.898-1.807,2.163-2.881,3.784-3.066
		c0.357-0.176,0.899-0.176,1.26-0.176c1.079,0,2.158,0.361,3.062,1.074c0.898,0.908,1.26,2.168,1.26,3.965
		C94.731,166.405,94.189,168.739,92.929,170.721z M230.336,140.829h-10.62l-7.568,36.201l-0.718,3.779h10.806l7.744-37.461
		L230.336,140.829z M237.723,140.829l-1.621,7.568h10.806l1.621-7.568H237.723z M176.312,140.829l-1.621,7.568h10.806l1.621-7.568
		H176.312z M273.201,151.278c-4.326,0-7.93,1.621-10.81,5.039l-0.176-0.176l1.084-4.326h-10.088l-6.123,28.994h10.801l2.705-12.607
		c0.537-2.881,1.436-5.039,2.705-6.66c1.074-1.445,2.52-2.158,4.141-2.158c1.436,0,2.158,0.713,2.158,2.334
		c0,0.361-0.361,2.344-1.084,5.586l-2.695,13.506h10.625l3.418-15.85c0.547-3.418,0.898-5.762,0.898-6.846
		c0-1.973-0.537-3.604-1.797-4.863C277.703,151.815,275.72,151.278,273.201,151.278z M338.21,162.626
		c-2.518-0.361-4.139-0.723-4.676-1.26c-0.723-0.361-0.898-0.908-0.898-1.631c0-0.713,0.352-1.26,0.898-1.797
		c0.723-0.361,1.797-0.723,3.055-0.723c2.158,0,3.418,0.898,3.779,2.705l10.088-1.084c-0.537-2.881-1.797-4.863-3.779-5.938
		c-1.982-1.084-4.863-1.621-8.643-1.621c-3.24,0-6.121,0.361-8.289,1.26c-2.334,1.074-3.955,2.334-5.039,3.955
		c-1.074,1.621-1.621,3.242-1.621,4.873c0,2.158,0.723,3.779,2.158,5.215c1.445,1.26,4.326,2.344,8.467,3.066
		c1.807,0.176,3.064,0.537,3.777,0.898c0.547,0.176,0.908,0.898,0.908,1.797c0,0.908-0.361,1.621-1.26,2.158
		c-1.084,0.547-1.98,0.908-3.24,0.908c-2.519,0-3.965-1.26-4.502-3.604l-10.635,0.898c0.361,3.242,1.621,5.4,3.603,6.66
		c2.168,1.445,5.41,2.168,9.912,2.168c5.398,0,9.539-1.084,12.244-3.242c2.695-2.158,3.955-4.688,3.955-7.568
		c0-2.158-0.713-3.955-1.973-5.225C345.055,164.237,342.35,163.338,338.21,162.626z M302.557,151.278h-1.084
		c-1.983,0-3.604,0.361-5.225,0.713c-1.797,0.547-3.594,1.621-5.576,3.066c-1.807,1.621-3.242,3.604-4.326,5.762
		c-1.084,2.344-1.621,4.678-1.621,7.383c0,3.604,1.084,6.846,3.418,9.365c2.344,2.52,6.309,3.965,11.895,3.965
		c0.537,0,0.898-0.185,1.436-0.185c3.242,0,5.762-0.713,7.93-1.797c2.52-1.26,4.678-3.242,6.113-6.123l-10.264-1.084
		c-1.074,1.445-2.334,2.158-3.779,2.529c-0.361,0-0.723,0.176-1.26,0.176c-3.057,0-4.678-1.982-5.039-5.947H316.6
		c0.547-2.695,0.723-4.678,0.723-5.762c0-3.418-1.084-6.299-3.418-8.643C311.561,152.352,307.782,151.278,302.557,151.278z
		 M306.698,163.885h-10.449c0.547-2.168,1.445-3.604,2.529-4.688c0.898-0.723,1.797-1.26,2.695-1.436
		c0.361,0,0.537-0.186,0.898-0.186c1.27,0,2.344,0.537,3.066,1.26c0.898,0.723,1.436,1.807,1.436,3.242
		C306.874,162.801,306.698,163.338,306.698,163.885z M229.979,178.29l-0.542,2.52h10.806l5.942-28.994h-10.806L229.979,178.29z
		 M212.87,151.991c-0.181,0-0.542-0.176-0.723-0.176c-1.079-0.361-1.977-0.537-2.881-0.537c-1.621,0-2.881,0.361-4.141,1.26
		c-1.44,0.898-2.881,2.52-4.502,5.039h-0.181l1.26-5.762H191.62l-5.942,28.994h10.806l2.158-10.801
		c0.723-3.428,1.802-5.947,3.062-7.383c1.26-1.445,2.881-2.344,5.044-2.344c0.723,0,1.44,0.176,2.158,0.361l3.242-6.846
		L212.87,151.991z M181.533,89.682c-0.182,0.542-0.357,1.084-0.357,1.44c0,1.621,0.176,2.705,0.898,3.604
		c0.904,1.084,2.339,1.44,4.321,1.44c1.084,0,1.983,0,2.525-0.356c0.898-0.361,1.44-0.903,1.621-1.621l0.176-1.084
		c0.181-0.718-0.176-1.621-1.079-2.339c-1.621-1.44-2.52-2.524-2.52-3.062c0.176-0.542,0.537-1.084,1.26-1.44
		c0.718-0.542,1.26-0.903,1.802-0.903c1.44,0,2.52,0.361,3.061,1.26c0.537,0.542,0.718,1.44,0.718,2.886l-2.881,8.101l-3.784,10.45
		c-0.357,1.26-1.436,2.695-3.237,3.779c-1.439,1.074-3.061,1.982-5.225,2.705l0.543,0.899h7.02c1.26,0,2.344-0.186,3.423-0.537
		c1.26-0.723,3.061-1.807,5.044-3.604c1.44,1.436,2.881,2.52,4.321,3.242c1.26,0.537,2.7,0.899,4.502,0.899
		c3.784,0,6.841-0.537,9.185-1.445c2.339-1.084,4.141-2.695,5.22-5.039l2.886-7.745c0.361-1.44,1.079-3.242,1.797-5.762
		c0.903-2.524,1.445-4.146,1.621-4.683l0.181-0.542c0.181-0.542,0.361-1.079,0.542-1.802c0.361-0.718,0.542-1.44,0.723-2.339
		l1.797-1.44l2.163-0.723h-16.211l2.163,0.723l0.542,1.44l-5.225,14.766l-2.881,7.93c-0.181,0.537-0.718,1.074-1.802,1.621
		c-0.361,0.352-0.898,0.537-1.441,0.713c-0.542,0.186-1.079,0.361-1.621,0.361c-1.978,0-3.599-0.537-4.863-1.436
		c-1.26-0.908-1.616-1.982-1.26-3.247l3.423-9.185l1.44-4.141l0.542-1.26l0.181-0.542c0-0.181,0-0.361,0.176-0.898
		c0.361-2.344-0.718-4.146-3.237-5.586c-1.265-0.537-2.344-0.898-3.784-1.259c-1.26-0.181-2.7-0.361-4.502-0.361
		c-1.802,0-3.784,0.542-5.762,1.621C183.515,86.444,182.074,87.885,181.533,89.682z M283.826,96.527c1.085,0,1.983,0,2.521-0.361
		c0.898-0.356,1.445-0.898,1.621-1.802l0.176-0.899c0-0.903-0.352-1.621-1.074-2.344c-1.807-1.616-2.52-2.52-2.52-3.062
		c0-0.537,0.537-1.079,1.074-1.44c0.723-0.537,1.445-0.898,1.982-0.898c1.445,0,2.52,0.361,3.066,1.079
		c0.352,0.723,0.713,1.621,0.713,3.062l-4.141,11.348l-3.966,11.885l-1.621,1.445l-2.871,0.899h16.026l-1.621-0.899l-0.723-1.445
		l2.881-7.925l2.881-7.745l0.723-1.978l0.186-0.723l0.352-0.718l0.186-0.361c0.361-1.084,0.537-1.982,0.537-2.524
		c0.537-2.339-0.537-4.321-3.242-5.581c-1.084-0.542-2.344-0.898-3.603-1.259c-1.26-0.361-2.881-0.361-4.502-0.361
		c-1.982,0-3.955,0.542-5.763,1.621c-2.158,1.26-3.418,2.7-4.141,4.502c-0.176,0.542-0.176,0.903-0.176,1.44
		c-0.185,1.621,0.176,2.705,0.898,3.604C280.583,95.985,282.019,96.527,283.826,96.527z M244.568,95.985l-1.625-0.898l-0.898-1.26
		l0.361-0.903l0.18-0.718l0.537-1.084c0.361-1.079,1.621-2.339,3.785-3.418c2.52-1.44,4.682-2.163,6.84-2.163
		c3.066,0,5.586,0.723,7.568,1.982c1.797,1.26,2.52,2.52,2.158,3.779l-1.797,4.863l-3.965,10.987v0.903
		c-0.361,0.898-1.084,1.436-2.158,1.797c-0.723,0.186-1.26-0.361-1.26-1.435v-2.705c-0.186-1.44-0.361-2.344-0.547-2.881
		c-0.361-0.723-0.723-1.44-1.26-1.982c-0.537-0.718-1.26-1.26-2.158-1.802c-1.084-0.356-1.982-0.718-2.705-0.718
		c-0.537,0-1.977-0.181-3.959-0.181c-1.621,0-3.242,0.181-5.044,0.718l-1.44,0.361l-2.52,0.903c-1.079,0.356-1.982,0.898-2.7,1.26
		c-1.265,0.898-2.163,1.26-2.344,1.621c-0.718,0.538-1.079,1.26-1.44,1.978l-1.079,3.242c-0.723,1.982,0,3.604,2.158,5.049
		c1.982,1.621,5.044,2.334,8.647,2.334c1.978,0,4.141-0.713,6.303-1.797c2.34-1.26,3.779-2.881,4.502-4.688l0.176-1.436
		c0-1.445-0.355-2.524-0.898-3.423c-0.899-0.903-2.338-1.441-4.32-1.441c-1.08,0-1.802,0.181-2.7,0.718
		c-0.723,0.542-1.26,1.084-1.621,1.982l-0.181,1.079c0,1.26,0.542,2.168,1.982,2.881c1.26,0.547,1.977,1.084,1.797,1.807
		c0,0.352-0.357,0.898-1.079,1.436c-0.898,0.547-1.44,0.723-1.982,0.723c-1.441,0-2.339-0.361-2.881-1.26
		c-0.361-0.186-0.361-0.547-0.537-1.084c0-0.537-0.181-1.074-0.181-1.797l2.158-5.947c0.181-0.357,0.723-0.718,1.621-1.26
		c1.441-0.898,2.524-1.44,3.242-1.621c0.723-0.176,1.439-0.356,2.162-0.356c0.719,0,1.441,0.181,2.158,0.718l0.361,0.181
		l0.898,1.079c0.361,0.361,0.543,0.542,0.898,0.903c0.186,0.538,0.186,0.899,0.361,1.08l0.547,3.965c0,0.723,0,1.26-0.186,1.982
		c0,0.537-0.361,1.26-0.537,2.158l0.176,0.713c0.186,0.732,0.361,1.27,0.723,1.445c0.361,0.361,0.898,0.723,1.807,0.898
		c0.898,0.186,1.435,0.186,1.797,0.186c0.361,0.176,1.084,0.176,1.982,0.176l1.797-0.176l1.621-0.361
		c1.621-0.361,3.066-1.084,4.326-1.797c0.361-0.371,0.898-0.723,1.435-1.445l1.445-3.242l5.762-15.67
		c0.723-2.52,0.176-4.502-1.982-5.942c-1.797-1.44-4.502-2.338-7.92-2.88c-1.445-0.361-2.705-0.542-4.326-0.542
		c-1.445-0.181-3.057-0.181-4.678-0.181c-5.947,0-10.99,1.265-15.311,3.603c-3.062,1.802-4.863,3.423-5.4,5.044l-0.542,1.621
		l-1.621,1.44l-2.52,0.898H244.568z M307.782,113.281c3.057,1.621,7.021,2.334,12.06,2.334c6.66,0,11.709-0.898,15.312-2.881
		c4.5-2.334,7.918-6.66,10.076-12.603l0.547-1.265l0.537-1.26c0.898-2.339,1.26-4.321,1.084-5.942
		c-0.186-2.52-1.26-4.502-3.428-5.942c-2.705-1.801-6.836-2.7-12.42-2.7c-5.049,0-9.004,0.718-12.246,1.977
		c-2.529,1.084-5.225,3.061-8.467,6.123l-0.898,2.344l-1.621,1.441l-2.705,0.903h16.387l-1.621-0.903l-0.898-1.441l0.186-0.361
		l0.537-1.079c0.898-1.44,2.158-2.881,3.604-3.965c1.982-1.616,4.326-2.339,7.021-2.339c3.779,0,6.121,0.898,7.02,2.7
		c0.547,1.26,0.361,2.7-0.361,4.683l-3.592,10.445l-3.066,5.767c-1.621,1.797-5.039,3.057-9.727,3.594h-1.26
		c-2.158,0-3.965-0.352-5.576-1.26c-1.621-0.713-2.529-1.611-2.705-2.871l0.361-1.27c0-0.356,0.361-0.898,0.898-1.797l1.26-1.982
		c0.537-0.181,1.26-0.361,2.158-0.718c0.723-0.181,1.26-0.361,1.621-0.361c0.723-0.181,1.445-0.181,2.168-0.181
		c0.713,0,1.621,0.181,2.334,0.181c0.361,0.181,0.723,0.543,1.27,0.899c0.352,0.542,0.537,0.903,0.352,1.265
		c0,0.176-0.176,0.356-0.352,0.356l-0.908,0.361h-0.898c-0.361,0-0.723,0-1.26-0.181c-1.084-0.181-1.807-0.361-2.158-0.361h-1.084
		c-0.176,0-0.723,0.181-1.445,0.542c-0.713,0.181-1.26,0.542-1.797,0.898c-0.537,0.361-0.723,0.903-0.898,1.265
		c-0.176,0.176-0.176,0.537,0,0.898l0.537,0.723c0.898,0.723,1.982,1.084,3.057,1.084c0.908,0,1.631,0,2.344-0.361l3.066-1.084
		c1.084-0.361,1.982-0.898,2.881-1.621c0.723-0.723,1.26-1.44,1.621-2.163c0.537-1.44,0.186-2.52-1.084-3.78
		c-1.26-1.079-3.603-1.982-6.846-2.344l-3.779,0.181c-2.52,0-5.039,0.723-7.197,2.524c-1.621,1.079-2.881,2.52-3.428,4.141
		C303.28,108.955,304.354,111.474,307.782,113.281z M126.967,101.21c0.361-1.44,1.079-3.242,1.802-5.762
		c0.898-2.524,1.44-4.146,1.621-4.683l0.181-0.542c0.176-0.542,0.357-1.079,0.537-1.802c0.361-0.718,0.542-1.44,0.723-2.339
		l1.802-1.44l2.158-0.723h-16.206l2.158,0.723l0.542,1.44l-5.224,14.766l-2.881,7.93c-0.181,0.537-0.718,1.074-1.621,1.621
		c-0.537,0.352-1.079,0.537-1.621,0.713c-0.537,0.186-1.079,0.361-1.621,0.361c-1.978,0-3.599-0.537-4.858-1.436
		c-1.265-0.908-1.621-1.982-1.084-3.247l3.242-9.185l1.44-4.141l0.542-1.26l0.181-0.542c0-0.181,0-0.361,0.181-0.898
		c0.356-2.344-0.723-4.146-3.242-5.586c-1.084-0.537-2.344-0.898-3.784-1.259c-1.26-0.181-2.7-0.361-4.502-0.361
		c-1.802,0-3.784,0.542-5.762,1.621c-2.163,1.265-3.604,2.705-4.141,4.502c-0.181,0.542-0.361,1.084-0.361,1.44
		c0,1.621,0.181,2.705,1.079,3.604c0.723,1.084,2.163,1.44,4.141,1.44c1.084,0,1.982,0,2.705-0.356
		c0.718-0.361,1.26-0.903,1.616-1.621l0.186-1.084c0-0.718-0.361-1.621-1.265-2.339c-1.621-1.44-2.519-2.524-2.339-3.062
		c0-0.542,0.356-1.084,1.079-1.44c0.723-0.542,1.26-0.903,1.982-0.903c1.26,0,2.339,0.361,2.881,1.26
		c0.542,0.542,0.718,1.44,0.718,2.886l-2.881,8.101l-3.779,10.45c-0.361,1.26-1.44,2.695-3.242,3.779
		c-1.441,1.074-3.062,1.982-5.225,2.705l0.542,0.899h7.202c1.079,0,2.163-0.186,3.242-0.537c1.26-0.723,3.062-1.807,5.044-3.604
		c1.441,1.436,2.881,2.52,4.321,3.242c1.26,0.537,2.7,0.899,4.502,0.899c3.784,0,6.846-0.537,9.184-1.445
		c2.344-1.084,4.146-2.695,5.225-5.039L126.967,101.21z M7.925,115.253c0.723,0.186,1.621,0.361,2.705,0.361
		c3.237,0,6.304-0.537,9.365-1.621c3.418-1.436,5.942-3.242,7.202-5.762l0.718-1.621l5.942-16.929
		c0.361-1.079,1.621-1.797,3.423-2.52c1.621-0.542,3.062-0.898,4.326-0.898c1.435,0,2.7,0.356,3.418,1.26
		c0.723,0.718,0.903,1.621,0.542,2.881l-3.062,8.286l-5.225,14.405l-1.621,1.445l-2.881,0.899h16.211l-1.441-0.899l-0.181-1.445
		l0.181-0.898v-0.898l7.383-19.996c0.898-2.339,0-4.321-2.705-5.762c-2.339-1.44-5.22-2.163-8.643-2.163
		c-3.603,0-7.383,0.903-11.167,2.524c-0.176-0.723-0.898-1.259-2.158-1.621c-1.26-0.361-2.7-0.542-4.502-0.542
		c-1.983,0-3.965,0-5.942,0.181l-2.524,0.361c3.061,1.44,4.863,2.519,5.405,3.422c0.718,1.079,0.899,3.062,0.361,5.581l-2.886,8.467
		l-2.7,7.74c-0.537,0.723-1.079,1.445-1.621,1.807c-0.361,0.537-0.898,0.898-1.26,1.26c-1.079,0.723-2.344,1.084-3.779,1.084
		c-0.542,0-1.084-0.186-1.445-0.732c-0.357-0.352-0.357-0.898,0-1.436c0.181-0.537,1.445-1.26,3.423-1.982
		c1.982-0.713,3.604-1.982,4.502-3.418l0.181-0.723c0.361-0.898,0.181-1.44-0.361-1.982c-0.537-0.357-1.44-0.538-2.519-0.538
		c-1.983,0-3.604,0.538-5.4,1.621c-1.084,0.718-2.344,1.978-3.423,3.418l-0.903,1.621c-0.537,1.621-0.181,3.242,1.084,4.326
		C6.665,114.54,7.207,114.902,7.925,115.253z M65.918,96.527c1.079,0,1.977,0,2.519-0.361c0.899-0.356,1.441-0.898,1.802-1.802
		l0.181-0.899c0-0.903-0.361-1.621-1.265-2.344c-1.616-1.616-2.52-2.52-2.52-3.062c0.181-0.537,0.542-1.079,1.26-1.44
		c0.723-0.537,1.26-0.898,1.983-0.898c1.26,0,2.339,0.361,2.881,1.079c0.542,0.723,0.723,1.621,0.723,3.062l-3.965,11.348
		l-4.321,11.885l-1.621,1.445l-2.7,0.899H77.08l-1.621-0.899l-0.898-1.445l3.062-7.925l2.7-7.745l0.723-1.978l0.356-0.723
		l0.181-0.718l0.181-0.361c0.361-1.084,0.542-1.982,0.723-2.524c0.361-2.339-0.723-4.321-3.242-5.581
		c-1.079-0.542-2.344-0.898-3.784-1.259c-1.26-0.361-2.7-0.361-4.502-0.361c-1.802,0-3.779,0.542-5.762,1.621
		c-2.158,1.26-3.604,2.7-4.141,4.502c-0.181,0.542-0.361,0.903-0.361,1.44c0,1.621,0.181,2.705,0.898,3.604
		C62.495,95.985,63.935,96.527,65.918,96.527z M134.169,91.303c0,1.621,0.361,2.705,1.084,3.423
		c0.898,1.084,2.339,1.621,4.141,1.621c1.079,0,1.977-0.181,2.7-0.537c0.898-0.361,1.26-0.903,1.621-1.621l0.181-0.903
		c0-1.079-0.903-2.163-2.524-3.604c-0.718-0.718-1.079-1.26-1.079-1.978c0-0.542,0.361-0.903,1.079-1.44
		c0.723-0.542,1.445-0.723,1.982-0.723c1.44,0,2.524,0.181,3.242,0.903c0.723,0.537,0.903,1.616,0.903,2.881l0.176,0.718
		c-0.176,0.723-0.176,1.26-0.356,1.802c-0.181,0.361-0.361,0.898-0.723,1.26c-1.621,1.621-3.604,3.423-6.123,5.225l-3.423,2.7
		c-1.26,1.44-2.339,2.881-2.881,4.683c-1.079,3.242-0.537,5.762,1.802,7.568c2.52,1.797,7.021,2.881,13.505,2.881
		c5.045,0,9.186-0.547,12.428-1.807c3.604-1.26,6.484-3.418,8.643-6.66l1.801-5.044l5.768-16.03l1.615-1.796l2.164-0.903h-16.207
		l2.158,0.903l0.543,1.44l-5.762,16.387l-1.982,5.406c-0.361,1.26-1.803,2.344-4.141,3.594c-2.344,1.26-4.322,1.807-5.947,1.807
		c-2.881,0-4.859-0.361-5.762-1.445c-1.26-1.074-1.26-3.232-0.181-6.479l1.265-1.982c0.356-0.718,0.898-1.08,1.079-1.441
		c0.361-0.181,0.542-0.537,0.718-0.718c0.723-0.723,1.26-1.079,1.26-1.26c0.541-0.361,1.084-1.084,1.982-1.802l2.162-2.344
		c0.182-0.537,0.537-1.079,0.723-1.44c0.176-0.356,0.176-0.718,0.357-0.898l0.18-1.084l0.361-1.26
		c0.361-2.519-0.541-4.321-2.699-5.762c-1.982-1.259-4.503-1.982-7.564-1.982c-0.903,0-1.982,0.181-2.886,0.542
		c-0.899,0.181-1.797,0.542-2.881,1.259c-2.158,1.26-3.604,2.7-4.141,4.321L134.169,91.303z M155.781,71.313l4.502,1.802
		l5.225-0.181l0.717-1.802c-1.621,0-3.061-0.356-4.141-1.26c-1.078-0.898-1.439-1.978-1.078-3.062
		c0.717-1.802,1.797-2.881,3.598-3.599c1.442-0.361,3.424-0.723,6.484-0.723c1.982,0,3.604,0.181,4.502,0.542
		c1.441,0.537,1.803,1.44,1.26,2.881c-0.355,1.44-1.26,2.52-2.699,3.423c-1.26,1.079-3.062,1.621-5.045,1.797l-0.717,1.982
		l4.502-0.361l3.783-0.537l1.621-0.723l1.978-0.718l0.902-0.542c0.176-0.181,0.719-0.723,1.26-1.44
		c0.357-0.361,0.543-0.723,0.719-1.079c0.18-0.181,0.361-0.542,0.541-1.084c0.361-1.44,0-2.7-1.078-3.96
		c-1.441-1.44-3.242-1.982-5.586-1.982h-11.162c-2.344,0-4.863,0.542-7.383,1.621c-2.344,1.084-3.785,2.519-4.326,4.141
		C153.441,68.613,153.978,70.234,155.781,71.313z"/>
	<path fill-rule="evenodd" clip-rule="evenodd" fill="#E31119" d="M1.445,131.825h354.772v-2.52H1.445V131.825z M481.383,143.895
		c-4.141-11.709-14.404-21.797-27.012-23.418c-1.26-0.176-2.705-0.361-3.965-0.176c1.445-1.084,2.705-2.158,3.965-3.242
		c7.022-6.122,11.348-13.51,12.07-21.435c0.537-4.502-0.547-9.004-1.982-14.223c-0.723-1.802-0.186-4.321-1.982-5.762
		c-1.621-1.084-5.586-1.44-7.93-1.626h-0.176c-8.643-0.898-18.555,0.361-28.096,14.951c-0.361-0.903-0.898-1.982-1.26-2.881
		c-3.242-7.206-7.93-12.788-13.867-16.748c-0.537-0.361-1.26-0.723-1.797-1.084c-3.428-2.158-7.207-3.599-11.348-4.502
		c-2.52-0.718-4.502-1.44-6.123-1.26c-1.807,0.361-2.881,2.339-3.965,4.683c-5.4,14.946-3.604,27.192,4.863,39.438
		c-6.309,0.542-17.285,5.4-25.391,11.171c-5.586,3.779-9.912,7.92-10.449,12.061v1.797c0.186,1.631,1.084,3.252,2.705,4.863
		c12.959,11.533,23.047,13.867,36.377,11.348c-2.158,4.502-3.603,10.088-4.326,15.85c-0.537,4.863,0.723,9.902,2.168,13.691
		c1.797,5.215,4.502,8.467,11.523,7.021c1.436-0.361,2.705-0.723,3.965-1.26c7.373-2.705,12.422-8.467,15.664-14.951
		c3.242-6.484,4.678-13.506,4.863-18.73c7.568,4.863,14.404,10.986,24.492,12.246c1.621,0.186,3.418,0.186,5.225,0.186
		c3.955-0.186,9.18-2.52,13.682-5.947c3.428-2.52,6.846-5.762,7.93-9.004C481.569,145.868,481.569,144.794,481.383,143.895z
		 M453.825,74.736h0.547c9.365,0.723,8.281,1.079,9.365,5.405c1.983,6.123,2.705,10.981,2.158,16.025
		c-1.084,7.383-5.039,14.234-11.523,20.17c-1.445,1.445-2.881,2.705-4.688,3.965c-6.475,0.537-12.783,3.057-18.545,5.938
		c-1.26,0.186-1.621,0.537-2.881,0c0.361-5.762,1.621-11.884,4.678-16.747c-3.779,3.418-6.484,13.866-6.846,14.765
		c-0.352-1.611-0.713-3.242-1.074-5.039c-0.898-5.399-1.26-11.708,0-19.086c0-0.361,0.176-0.903,0.176-1.44
		C428.62,80.859,443.747,74.013,453.825,74.736z M388.454,68.252c0.898-2.158,1.807-4.321,3.066-4.858
		c1.621-0.903,3.779,0.356,6.846,0.898c3.955,1.079,7.744,2.52,10.986,4.502c0.361,0,0.537,0.181,0.898,0.361
		c6.475,4.141,11.338,10.264,14.766,18.369c0.361,0.718,0.537,1.44,0.723,1.982c-0.186,0.718-0.547,1.26-0.723,1.797
		c-4.688,10.088-4.863,20.894-3.066,31.879c-3.955-1.982-6.484-9.188-7.383-13.144c0.361,3.057,1.084,12.235,3.965,13.681
		c0,0,0,0,0,0.186c-3.604-2.344-6.66-4.326-9.18-6.123c-6.484-4.687-9.551-7.743-12.432-10.99
		C387.379,96.527,382.878,81.581,388.454,68.252z M391.335,145.331c-9.004,1.621-19.805,1.084-31.514-9.902
		c-6.123-5.586-0.176-11.709,7.744-17.109c8.281-5.585,18.193-10.81,25.576-11.166c5.039,5.757,10.44,9.906,16.211,14.223
		c2.158,1.445,4.316,3.066,6.475,4.688c2.705,0.713-4.316,3.779-5.762,4.316c-0.713,0.186,6.846-1.621,8.652-0.713
		c-1.084,1.973-4.863,4.863-9.365,7.744C403.581,141.004,396.383,144.432,391.335,145.331z M425.739,160.819
		c-0.186,1.084-0.547,1.982-0.723,2.705c-3.242,10.977-8.642,15.84-15.664,18.73c-0.908,0.352-1.982,0.713-3.066,1.074
		c-7.92,2.705-9.541-1.26-11.885-6.484c-1.621-3.418-2.52-7.559-2.158-11.699c0.352-6.309,2.334-12.969,4.141-17.471
		c2.52-0.537,7.383-2.705,12.969-5.947c3.779-2.158,7.92-4.854,11.699-7.92c0.361,2.52-3.418,14.043-4.678,16.562
		c3.057-3.232,5.215-10.625,7.021-15.127c0.537,2.705,1.084,5.225,1.621,7.744C426.276,148.749,427.36,154.335,425.739,160.819z
		 M480.485,147.489c-1.445,2.52-3.604,4.688-5.938,6.846c-4.326,3.779-9.912,6.67-15.312,7.031c-1.621,0-3.242,0-4.863-0.186
		c-9.004-1.26-18.369-7.021-24.316-12.783c-0.723-4.688-2.158-9.551-2.158-14.229c2.881-2.168,6.846-2.344,11.523-1.621
		c-2.52-1.26-6.66-2.168-9.365-1.445c10.449-6.484,17.471-7.197,24.316-7.197c0.176,0,0.361,0,0.361,0
		c10.986,0.176,23.408,9.18,25.752,20.166C480.846,145.155,481.208,146.415,480.485,147.489z"/>
	<linearGradient id="SVGID_2_" gradientUnits="userSpaceOnUse" x1="387.4776" y1="192.3663" x2="479.3445" y2="82.8836">
		<stop  offset="0.1854" style="stop-color:#009C42"/>
		<stop  offset="0.3917" style="stop-color:#51A93A"/>
		<stop  offset="0.6385" style="stop-color:#7AB630"/>
		<stop  offset="0.85" style="stop-color:#90BF27"/>
		<stop  offset="1" style="stop-color:#97C223"/>
	</linearGradient>
	<path fill-rule="evenodd" clip-rule="evenodd" fill="url(#SVGID_2_)" d="M454.547,120.477c1.26-2.334,2.529-4.862,3.603-7.196
		c-1.074,1.26-2.52,2.52-3.965,3.778c-1.074,1.084-2.52,2.158-3.779,3.242c1.26-0.186,2.52,0,3.779,0.176
		C454.372,120.477,454.547,120.477,454.547,120.477z M566.745,0c-1.621,0.361-3.242,0.537-4.853,0.718
		c-4.15,0.723-8.652,1.44-16.035,3.604c-3.066,0.898-6.299,1.802-9.541,2.7c-12.246,3.242-25.4,6.846-40.342,14.409
		c-14.59,7.383-29.531,17.646-41.787,31.338c-0.898,1.079-1.797,2.158-2.695,3.237c-5.225,6.484-9.912,13.506-13.691,21.074
		c2.881-1.802,5.947-2.705,8.828-3.066c0-2.881,0.361-7.021,1.982-7.021c-0.723,2.344-0.898,4.683-0.723,6.846
		c2.158-0.181,4.326-0.181,6.299,0c0.185,0.176,0.185,0.176,0.361,0.176c2.344,0.186,6.309,0.542,7.93,1.626
		c1.797,1.44,1.26,3.96,1.982,5.762c1.435,5.219,2.519,9.721,1.982,14.223c0,0.723-0.186,1.265-0.186,1.802
		c1.26-2.881,2.158-6.123,2.158-9.541c-1.074-5.405-3.418-8.828-5.4-16.211c-1.982-7.563-1.074-16.387,2.705-25.21
		c-1.26,5.22-1.983,9.722-0.723,15.127c1.26,5.4,4.863,12.422,6.123,16.387c1.26,4.141,0.898,4.863,1.621,7.382
		c2.158-4.14,5.576-9.184,6.66-13.505c0.547-3.784-0.361-7.744-0.361-10.083c-0.176-2.163-1.074-5.767-1.621-10.806
		c-0.537-7.388-0.352-15.669,3.603-16.392c-0.898,1.982-1.621,1.982-2.158,5.942c-0.361,3.784,4.141,17.832,5.4,26.655
		c2.52-4.141,5.4-8.286,8.105-12.246c-0.898-9.546-3.242-23.594,5.947-30.073c-2.52,3.96-3.428,6.123-3.789,10.264
		c0,1.621-0.176,13.145,1.445,14.946c3.242-3.423,6.484-6.66,9.902-9.722c0.361-0.542,1.084-1.44,1.26-1.802
		c0.908-8.106,0.186-15.488,6.67-20.712c-1.084,1.621-2.705,3.242-3.066,5.405c-0.361,2.158-0.537,10.083,1.084,11.524
		c3.418-3.242,7.022-6.665,10.625-9.727c0.723-2.881,1.084-5.4,2.158-7.739c1.26-2.886,2.344-4.326,5.4-5.405
		c-3.418,2.7-5.215,5.581-2.881,10.087c5.039-3.784,9.365-6.665,13.33-9.365c0.361-2.344,1.436-4.326,3.779-5.225
		c-0.537,0.542-1.26,1.26-1.621,2.158c-0.176,0.542-0.176,1.265-0.176,1.982c2.344-1.44,4.678-2.519,7.383-3.599
		c-2.881,1.802-5.586,3.599-8.467,5.22c-2.705,1.983-5.225,4.146-8.105,6.304c1.807,0,5.586,0.181,7.021-0.181
		c1.621-0.181,2.52-0.898,3.789-1.26c-1.621,1.079-2.168,2.7-4.863,3.061c-2.529,0.361-5.762,0.361-8.643,0.542
		c-4.15,2.881-7.744,6.66-10.986,10.444c4.316,1.26,10.986,0.361,13.867-0.723c3.057-1.079,3.057-1.44,4.678-2.881
		c-3.057,6.484-16.387,6.484-21.611,6.484c-1.621,1.982-10.088,8.286-10.088,10.806c7.744,0.542,16.572,0.723,23.955-1.26
		c-8.105,4.321-18.369,4.502-27.559,5.039c-3.232,1.626-7.559,9.189-9.717,12.07c7.92,0,18.545,0.898,23.594,0.718
		c5.215-0.181,4.854-1.44,7.383-1.978c-3.066,3.779-11.709,3.96-15.674,4.141c-3.418,0-7.197-0.181-10.264,0.356
		c-3.057,0.542-5.586,1.445-8.467,1.982c-3.057,4.683-6.113,9.365-9.18,14.229c3.603-0.361,6.484-0.718,10.801-0.898
		c4.15,0,8.652,0.537,12.246,0.356c4.863,0,9.189-0.718,15.137-3.237c-5.947,4.683-12.432,6.479-20,6.841
		c-3.594,0.361-15.84-1.26-21.602,2.519c-1.807,3.784-3.789,7.568-5.772,11.348c3.604,0.181,7.022,0.542,10.625,0.898
		c7.031,1.265,13.33,2.524,19.629,1.084c1.807-0.542,3.604-1.084,5.41-2.163c0,1.802-7.744,4.683-9.551,4.863
		c-3.955,0.718-8.096,0.181-12.061,0.361c-5.947,0.181-11.709,0.357-17.646,0.718c-1.982,4.326-4.15,8.643-6.309,13.143
		c8.467,1.27,22.334,3.604,27.373,2.881c4.863-0.713,4.688-2.52,5.586-1.611c-1.807,1.25-3.779,1.973-5.947,2.695
		c-3.594,1.436-6.66,1.084-10.801,1.084c-5.947-0.186-11.709-0.723-17.471-1.084c-0.176,0.176-0.361,0.537-0.537,0.898
		c7.559,2.52,13.867,7.93,18.184,14.766c0.723-0.176,1.445-0.352,2.168-0.537c-0.361,0.537-1.084,0.908-1.807,1.26
		c0.898,1.445,1.621,2.881,2.344,4.326c1.26-1.621,2.695-3.242,4.141-4.863c5.225-6.309,10.088-12.969,14.766-19.453
		c6.309-8.817,11.348-16.923,16.025-26.113c4.512-9.179,8.467-18.906,12.607-30.434c5.049-14.404,9.727-27.012,15.674-37.095
		c5.938-10.087,13.144-17.832,23.232-23.056L566.745,0z M443.385,158.114c-1.436,0.186-2.705,0.361-3.965,0.547
		c-1.621,3.418-3.418,6.66-5.039,9.902c5.762,0.898,9.541,0.176,14.404-2.705c-0.537,0.361-0.898,1.084-1.26,1.807
		c-4.863,2.695-8.467,3.779-13.506,4.678c-0.898,0.186-1.797,0.361-2.881,0.547c-4.863,6.113-10.088,11.885-16.025,16.748
		c3.418-4.141,7.021-8.467,10.625-12.607l-3.789,3.242c2.881-3.965,9.551-10.811,9.551-16.211c-0.547-1.621-1.621-3.965-2.705-6.66
		c-1.26,5.938-3.965,12.422-8.281,17.646c-0.723,1.797-1.621,3.604-2.52,5.225c-4.502,8.096-10.811,14.229-16.934,16.748h-0.176
		v3.057c0,2.881,0,4.863,2.158,5.225h0.176l0.185-0.176c2.158-6.133,10.449-11.348,20.713-18.008
		c2.695-1.807,5.576-3.604,8.643-5.586c0.361-0.361,0.898-0.537,1.26-0.898c6.66-4.502,13.33-9.727,20.166-15.488
		c1.445-1.084,2.705-2.168,4.15-3.242c-1.445,0-2.705,0-4.15-0.186C450.231,161.18,446.628,159.735,443.385,158.114z
		 M434.557,161.717c0.186,0-0.176,0.547,0.186,0.547c1.074-2.344,2.344-4.688,3.779-7.031c-1.436-0.898-2.881-1.982-4.502-2.881
		c-1.26-1.074-2.705-1.982-4.141-2.881c0,0.723-0.186,1.621-0.186,2.52c1.445,2.881,3.242,5.586,4.326,8.467
		C434.206,160.819,434.381,161.18,434.557,161.717z"/>
</g>
</svg>
