<?xml version="1.0" encoding="utf-8"?>
<!-- Generator: Adobe Illustrator 12.0.0, SVG Export Plug-In  -->
<!DOCTYPE svg PUBLIC "-//W3C//DTD SVG 1.1//EN" "http://www.w3.org/Graphics/SVG/1.1/DTD/svg11.dtd" [
	<!ENTITY ns_flows "http://ns.adobe.com/Flows/1.0/">
	<!ENTITY ns_svg "http://www.w3.org/2000/svg">
	<!ENTITY ns_xlink "http://www.w3.org/1999/xlink">
]>
<svg  version="1.1" xmlns="&ns_svg;" xmlns:xlink="&ns_xlink;" xmlns:a="http://ns.adobe.com/AdobeSVGViewerExtensions/3.0/"
	 width="250" height="52" viewBox="0 -0.1445313 250 52" enable-background="new 0 -0.1445313 250 52" xml:space="preserve">
<defs>
</defs>
<path fill="#FF0000" d="M53.8500977,31.7988281l-1.0356445,3.7705078c-0.5024414,0.0410156-0.9536133,0.0566406-1.355957,0.0458984
	c-2.3793945-0.0615234-4.2368164-0.5966797-5.5620117-1.5986328c-1.3242188-1.0029297-1.7861328-2.2275391-1.387207-3.6767578
	c0.3867188-1.4101563,1.5170898-2.5830078,3.3911133-3.5214844c1.8740234-0.9394531,3.9619141-1.3818359,6.2602539-1.3217773
	c2.559082,0.0668945,4.4560547,0.5786133,5.6777344,1.5385742c1.2275391,0.9560547,1.6201172,2.2324219,1.1835938,3.8222656
	l-1.3081055,4.765625l-5.9423828-0.15625l1.2363281-4.5009766c0.1401367-0.5126953,0.0463867-0.9267578-0.2758789-1.2451172
	c-0.3222656-0.3154297-0.8286133-0.4833984-1.5170898-0.5009766c-0.6235352-0.0166016-1.2041016,0.109375-1.7358398,0.3779297
	c-0.5327148,0.2666016-0.8515625,0.5927734-0.956543,0.9765625c-0.1118164,0.4052734,0.0043945,0.7392578,0.34375,1.0136719
	C51.2080078,31.8564453,51.6972656,32,52.3325195,32.0175781C52.8530273,32.0302734,53.359375,31.9570313,53.8500977,31.7988281
	L53.8500977,31.7988281z M211.3779297,35.6621094l-0.5078125,2.0576172h-9.7441406l1.8056641-7.3251953
	c-0.2724609,0.0107422-0.6904297,0.0605469-0.8896484,0.1777344c-0.0322266,0.0830078-0.0585938,0.1972656-0.0761719,0.2675781
	l-1.6972656,6.8798828l-9.7021484-0.1689453h-16.4873047L176,30.8525391h-0.5791016l-0.0117188,0.046875l-2.0732422,7.046875
	h-11.3125l-12.1630859-0.4023438l-1.0957031,0.0859375c-0.5214844,0.0419922-1.0488281,0.0654297-1.5732422,0.0517578
	c-2.3701172-0.0625-4.828125-0.5585938-6.7548828-2.0175781c-1.9169922-1.4511719-2.78125-3.5195313-2.1337891-5.8720703
	c0.6240234-2.2763672,2.4179688-3.7998047,4.4580078-4.8222656c2.2568359-1.1318359,4.7236328-1.6049805,7.2402344-1.5390625
	c2.3583984,0.0610352,4.9931641,0.4804688,6.8955078,1.9750977c0.3378906,0.2626953,0.6357422,0.5463867,0.8925781,0.8481445
	l0.5263672-1.7402344c-0.1298828-0.3266602-0.2021484-0.6899414-0.2021484-1.0932617
	c0-2.6699219,3.1679688-3.6005859,5.3349609-3.6005859c2.1474609,0,5.4716797,0.9375,5.3330078,3.7543945l0.09375,0.2978516
	c0.3222656-0.1147461,0.6611328-0.2114258,1.0175781-0.2880859l8.2070313-0.0463867l0.6962891-2.425293l7.8017578,0.1738281
	c1.1015625-1.0556641,2.9814453-1.4663086,4.4208984-1.4663086c2.734375,0,6.2646484,1.7729492,5.3417969,4.9833984
	c2.21875-1.1762695,5.0029297-1.574707,7.4179688-1.574707c2.8740234,0,6.7412109,0.5234375,8.3652344,3.2226563
	c0.5625-0.5292969,1.2050781-0.9863281,1.9130859-1.3740234c1.703125-0.9321289,3.5214844-1.5791016,5.4287109-1.8413086
	c0.3378906-0.0522461,0.6699219-0.0898438,1.0117188-0.1171875c0.3320313-0.0244141,0.6640625-0.0385742,0.9970703-0.0385742
	c2.0966797,0,4.6396484,0.2475586,6.3662109,1.5571289c1.4716797,1.1171875,2.2246094,2.277832,2.5478516,3.7573242
	l0.0439453-0.1835938c0.578125-2.7807617,2.5068359-4.4487305,5.328125-4.7319336l0.0976563-0.0092773l10.2412109-0.0541992
	l-1.7207031,7.6704102h-1.6542969c-0.3271484,0-1.4248047-0.1054688-2.0078125-0.0771484
	c-0.4785156,3.2382813-2.3320313,6.6357422-5.9326172,6.9150391l-0.0800781,0.0068359h-10.5292969l0.3115234-1.1474609
	c-1.6503906,0.5908203-3.4296875,0.8916016-5.1181641,0.9960938l-0.0644531,0.0048828h-0.0644531
	c-0.1181641,0-0.2392578,0.0019531-0.3603516,0.0078125c-0.1865234,0.0097656-0.3730469,0.0136719-0.5595703,0.0136719
	c-2.1025391,0-4.1748047-0.4101563-6.0107422-1.4667969C211.9736328,36.1347656,211.65625,35.9091797,211.3779297,35.6621094
	L211.3779297,35.6621094z M77.2988281,25.4960938l-0.7631836,3.3994141c0.5561523-0.7988281,1.324707-1.4677734,2.3061523-2.0048828
	c1.5585938-0.8535156,3.140625-1.390625,4.7451172-1.6108398c0.284668-0.0444336,0.5712891-0.0776367,0.8603516-0.0996094
	c0.2885742-0.0219727,0.5683594-0.0332031,0.8388672-0.0332031c2.4135742,0,4.1186523,0.3789063,5.1176758,1.1362305
	c1.6103516,1.2236328,1.9208984,2.3398438,1.9291992,4.1982422l-8.6660156,0.0712891l0.2373047-1.1953125l2.2197266-0.2802734
	c-1.4316406-0.8027344-4.0737305-0.5869141-4.6542969,1.1230469c-0.2285156,0.671875-0.1005859,1.2089844,0.3500977,1.5996094
	c0.4501953,0.390625,1.0927734,0.5595703,1.9272461,0.5849609c1.9238281,0.0595703,2.0615234-0.6503906,2.5083008-1.3681641
	l5.8759766,0.1601563c-1.6098633,3.2519531-5.7348633,4.3320313-9.0791016,4.5400391
	c-0.1577148,0-0.3115234,0.0029297-0.4614258,0.0117188c-0.1479492,0.0068359-0.3012695,0.0097656-0.4594727,0.0097656
	c-1.9399414,0-3.6000977-0.3964844-4.9804688-1.1904297c-1.3808594-0.7949219-1.8447266-2.0742188-1.3925781-3.8398438
	c0.0048828-0.015625,0.0048828-0.0332031,0.0014648-0.0556641c-0.0048828-0.0214844-0.0019531-0.046875,0.0073242-0.0771484
	c0.0097656-0.0292969,0.012207-0.0546875,0.0073242-0.0771484c-0.0029297-0.0224609-0.0029297-0.0410156,0.0014648-0.0546875
	c0.1645508-0.5136719,0.3896484-0.9882813,0.6772461-1.4248047c-1.3144531-0.0136719-3.2851563-0.4755859-3.9179688,0.96875
	c-0.1728516,2.3652344-1.328125,5.6582031-4.1279297,5.8759766h-7.7460938l0.8701172-3.2050781h2.1767578
	c0.9477539,0.0136719,1.5786133-0.4482422,1.894043-1.3837891l0.6318359-2.6132813
	c0.3818359-1.8867188,1.5541992-2.9282227,3.5170898-3.125L77.2988281,25.4960938L77.2988281,25.4960938z M104.4667969,25.6044922
	h-7.8164063c-1.9614258,0.421875-3.0625,1.5693359-3.5097656,3.5107422l-2.0195313,6.7636719h6.9926758l1.6225586-5.5146484
	c0.2290039-0.9492188,0.7470703-1.4257813,1.4624023-1.5791016h2.5595703L104.4667969,25.6044922L104.4667969,25.6044922z
	 M129.7998047,31.7988281l-1.0341797,3.7705078c-0.5039063,0.0410156-0.9550781,0.0566406-1.3564453,0.0458984
	c-2.3793945-0.0615234-4.2373047-0.5966797-5.5620117-1.5986328c-1.324707-1.0029297-1.7861328-2.2275391-1.3881836-3.6767578
	c0.387207-1.4101563,1.5175781-2.5830078,3.3916016-3.5214844c1.8740234-0.9394531,3.9609375-1.3818359,6.2607422-1.3217773
	c2.5585938,0.0668945,4.4550781,0.5786133,5.6777344,1.5385742c1.2275391,0.9560547,1.6191406,2.2324219,1.1826172,3.8222656
	l-1.3076172,4.765625l-5.9433594-0.15625l1.2373047-4.5009766c0.140625-0.5126953,0.0458984-0.9267578-0.2753906-1.2451172
	c-0.3232422-0.3154297-0.8291016-0.4833984-1.5175781-0.5009766c-0.6240234-0.0166016-1.2041016,0.109375-1.7353516,0.3779297
	c-0.5327148,0.2666016-0.8515625,0.5927734-0.956543,0.9765625c-0.1118164,0.4052734,0.0043945,0.7392578,0.34375,1.0136719
	c0.3413086,0.2685547,0.8305664,0.4121094,1.4663086,0.4296875
	C128.8037109,32.0302734,129.3095703,31.9570313,129.7998047,31.7988281L129.7998047,31.7988281z M113.7089844,30.9316406
	l5.9301758,0.0175781c-0.6157227,1.3994141-1.8359375,2.53125-3.6567383,3.3955078
	c-1.8266602,0.8613281-3.8334961,1.2646484-6.0385742,1.2080078c-2.3227539-0.0615234-4.1303711-0.6083984-5.4160156-1.6445313
	c-1.284668-1.0361328-1.6972656-2.2734375-1.2358398-3.7177734c0.4379883-1.3691406,1.6201172-2.5224609,3.550293-3.4550781
	c1.9316406-0.9326172,4.0307617-1.3666992,6.2939453-1.3076172C115.1137695,25.4794922,116.7348633,25.90625,118,26.7138672
	c1.2724609,0.8056641,1.8964844,1.8076172,1.890625,3.0048828l-6.0546875-0.0214844
	c-0.3867188-0.4287109-0.9765625-0.6523438-1.7729492-0.6728516c-0.6767578-0.0175781-1.277832,0.1044922-1.7983398,0.3652344
	c-0.5205078,0.2626953-0.8476563,0.6015625-0.980957,1.0175781c-0.1352539,0.4228516-0.0146484,0.7802734,0.3544922,1.0791016
	s0.8974609,0.4560547,1.5849609,0.4746094C112.2255859,31.9863281,113.0561523,31.6425781,113.7089844,30.9316406
	L113.7089844,30.9316406z"/>
<path fill-rule="evenodd" clip-rule="evenodd" fill="#757776" d="M57.3476563,16.8266602h-0.2626953
	c-0.262207,0.2631836-2.4926758-0.3935547-3.1484375-0.6557617c-1.3120117-0.1313477-2.4931641-0.262207-3.9360352-0.262207
	h-2.7553711c-9.4458008,0-19.8105469,4.4604492-25.5834961,8.2651367c-3.5419922,2.4921875-6.4287109,4.5917969-9.3149414,7.609375
	c-1.5742188,1.4433594-2.6240234,2.8867188-4.0668945,4.4609375c-0.7871094,0.7871094-3.4111328,4.4599609-3.8046875,4.7226563
	l0.1313477,0.1308594c0,0,1.7055664-1.9677734,1.9677734-2.0986328c0.6557617-0.7871094,1.3120117-1.4433594,1.9682617-2.0996094
	c1.1801758-1.0488281,3.1484375-3.0175781,4.3291016-3.9355469c3.2802734-2.3613281,5.9038086-4.8535156,9.4462891-6.953125
	c3.9360352-2.2304688,6.2973633-3.6733398,10.8896484-5.5102539c2.8862305-1.0498047,10.1020508-2.4926758,14.0375977-2.4926758
	c4.0673828,0,7.609375,0.7871094,10.3647461,2.0991211c1.7055664,0.9179688,2.2304688,1.4428711,3.6733398,2.4926758
	c1.1811523,0.7871094,2.3618164,2.8862305,3.0180664,3.2792969c0-4.9848633-3.6738281-7.215332-7.0849609-8.7890625
	L57.3476563,16.8266602L57.3476563,16.8266602z"/>
<path fill-rule="evenodd" clip-rule="evenodd" fill="#757776" d="M23.1049805,42.9345703
	c2.7553711-5.3779297,6.1660156-9.7080078,10.4956055-13.5136719c1.9682617-1.8359375,4.3295898-3.8041992,6.6914063-5.2470703
	c0.7871094-0.65625,7.347168-4.4609375,7.347168-4.5917969c-1.7055664,0-4.3300781,0-5.5102539,0.5244141
	c-1.3125,0.7875977-2.6245117,1.1811523-3.9360352,1.9682617c-2.6240234,1.7055664-4.5922852,2.8862305-7.2158203,4.7231445
	c-3.2797852,2.4931641-9.5776367,8.9208984-10.6269531,13.2509766L23.1049805,42.9345703L23.1049805,42.9345703z
	 M49.4755859,13.809082l-0.262207-1.4428711h-4.0668945L49.4755859,13.809082L49.4755859,13.809082z M54.8544922,8.6928711
	c0.9189453,0,2.2304688,0,3.1494141-0.1313477c1.3115234-0.2626953,1.3115234-0.1313477,1.3115234,1.5742188L54.8544922,8.6928711
	L54.8544922,8.6928711z M57.0849609,16.8266602h0.2626953c1.3115234,0,3.9355469-1.1801758,5.9038086-1.1801758h1.5742188
	c1.9682617,0,3.0175781,0.6552734,4.4609375,0.9179688c0-1.5742188-0.65625-5.5102539-1.4433594-6.1665039
	C67.1875,9.8735352,63.2514648,8.5615234,62.0703125,8.5615234l-1.0493164-3.8046875
	c-0.5244141,0-2.0991211-0.3935547-3.0170898-0.5249023c-1.050293-0.262207-1.8374023-0.3935547-3.1494141-0.5249023
	c-1.9672852-0.3935547-4.3291016-0.5249023-6.690918-0.5249023h-1.8364258c-8.265625,0-17.4492188,2.6240234-23.222168,5.2480469
	c-3.5424805,1.7055664-6.0351563,3.1489258-9.1835938,5.1166992c-1.1811523,0.6557617-3.2797852,2.0996094-4.1982422,2.8862305
	c-0.5249023,0.5249023-1.3120117,1.0498047-1.9682617,1.5742188c-0.3935547,0.3935547-1.5742188,1.4433594-1.9677734,1.7055664
	l0.1308594,0.1318359l0.1313477-0.1318359c0.1313477,0,0.1313477-0.1308594,0.2626953-0.1308594
	c0.1308594-0.1313477,0.262207-0.1313477,0.3935547-0.2626953c0.2626953-0.262207,0.5244141-0.3935547,0.7866211-0.5244141
	c0.5249023-0.394043,1.1811523-0.65625,1.7060547-1.0493164c1.1811523-0.6557617,2.3618164-1.3125,3.5419922-1.9682617
	c2.6245117-1.3120117,4.8544922-2.2304688,7.6098633-3.4111328c4.1977539-1.7055664,12.3325195-3.9360352,18.1049805-3.9360352
	h3.1489258c1.7050781,0,3.2797852,0.1313477,4.7231445,0.2626953c1.3120117,0.1303711,3.4111328,0.7871094,4.3291016,0.7871094
	c0.7875977,3.2792969,0.1313477,2.4926758,3.2802734,3.5424805c1.4433594,0.5244141,1.1801758-0.1313477,2.3618164,1.0493164
	C56.8227539,14.7275391,57.0849609,15.7773438,57.0849609,16.8266602L57.0849609,16.8266602z"/>
<path fill="#030303" d="M149.3876953,47.9570313l-1.7929688-7.7177734h2.9394531l1.1699219,5.7138672l5.5068359-5.7138672h2.8740234
	l-7.8056641,7.7177734H149.3876953L149.3876953,47.9570313z M163.7314453,46.1787109l2.46875,0.2460938
	c-0.5410156,0.5410156-1.2207031,0.953125-2.0410156,1.234375c-0.8203125,0.2841797-1.765625,0.4238281-2.8330078,0.4238281
	c-1.6894531,0-2.8164063-0.3154297-3.3808594-0.9521484c-0.4423828-0.5078125-0.5136719-1.1513672-0.2128906-1.9257813
	c0.3613281-0.9277344,1.0634766-1.6542969,2.1113281-2.1787109c1.0439453-0.5253906,2.2119141-0.7861328,3.5-0.7861328
	c1.4443359,0,2.4775391,0.2734375,3.1005859,0.8242188c0.6201172,0.5498047,0.6933594,1.390625,0.2177734,2.5253906H160.21875
	c-0.1523438,0.4375-0.078125,0.7792969,0.2246094,1.0224609c0.2998047,0.2441406,0.75,0.3662109,1.3408203,0.3662109
	c0.4023438,0,0.7646484-0.0625,1.0869141-0.1884766C163.1962891,46.6630859,163.4853516,46.4589844,163.7314453,46.1787109
	L163.7314453,46.1787109z M164.4599609,44.6835938c0.1474609-0.4296875,0.0839844-0.7548828-0.1943359-0.9775391
	c-0.2792969-0.2226563-0.6835938-0.3339844-1.2080078-0.3339844c-0.5615234,0-1.0693359,0.1181641-1.5273438,0.3535156
	c-0.4560547,0.2333984-0.7607422,0.5537109-0.9121094,0.9580078H164.4599609L164.4599609,44.6835938z M176.6757813,47.9570313
	h-2.5703125l1.1103516-2.8535156c0.234375-0.6025391,0.3300781-0.9931641,0.2890625-1.1708984
	c-0.0410156-0.1767578-0.1679688-0.3154297-0.3759766-0.4140625c-0.2089844-0.0966797-0.4863281-0.1464844-0.8320313-0.1464844
	c-0.4482422,0-0.8740234,0.0693359-1.2822266,0.2089844c-0.4082031,0.1425781-0.7236328,0.328125-0.9453125,0.5595703
	c-0.2197266,0.2324219-0.453125,0.6601563-0.6962891,1.2851563l-0.9853516,2.53125h-2.5693359l2.1748047-5.5898438h2.3857422
	l-0.3193359,0.8212891c1.0947266-0.6328125,2.2861328-0.9482422,3.5732422-0.9482422
	c0.5654297,0,1.0644531,0.0585938,1.4863281,0.1757813c0.4228516,0.1191406,0.7216797,0.2685547,0.890625,0.4511719
	c0.1699219,0.1826172,0.2568359,0.3886719,0.2607422,0.6210938c0.0068359,0.2314453-0.0742188,0.5625-0.2421875,0.9941406
	L176.6757813,47.9570313L176.6757813,47.9570313z M185.6005859,46.1787109l2.4697266,0.2460938
	c-0.5410156,0.5410156-1.2207031,0.953125-2.0419922,1.234375c-0.8193359,0.2841797-1.7646484,0.4238281-2.8330078,0.4238281
	c-1.6884766,0-2.8154297-0.3154297-3.3808594-0.9521484c-0.4414063-0.5078125-0.5136719-1.1513672-0.2119141-1.9257813
	c0.3603516-0.9277344,1.0634766-1.6542969,2.1113281-2.1787109c1.0439453-0.5253906,2.2119141-0.7861328,3.4990234-0.7861328
	c1.4453125,0,2.4785156,0.2734375,3.1015625,0.8242188c0.6201172,0.5498047,0.6933594,1.390625,0.2177734,2.5253906h-6.4443359
	c-0.1513672,0.4375-0.078125,0.7792969,0.2255859,1.0224609c0.2998047,0.2441406,0.75,0.3662109,1.3398438,0.3662109
	c0.4033203,0,0.765625-0.0625,1.0878906-0.1884766C185.0664063,46.6630859,185.3544922,46.4589844,185.6005859,46.1787109
	L185.6005859,46.1787109z M186.3300781,44.6835938c0.1474609-0.4296875,0.0839844-0.7548828-0.1943359-0.9775391
	c-0.2792969-0.2226563-0.6835938-0.3339844-1.2080078-0.3339844c-0.5615234,0-1.0693359,0.1181641-1.5273438,0.3535156
	c-0.4560547,0.2333984-0.7607422,0.5537109-0.9121094,0.9580078H186.3300781L186.3300781,44.6835938z M188.6738281,47.9570313
	l0.4482422-1.1523438l4.5761719-2.4052734c0.75-0.3935547,1.3017578-0.671875,1.6503906-0.8378906
	c-0.3007813,0.0117188-0.6972656,0.0175781-1.1855469,0.0195313l-3.4365234,0.0117188l0.4765625-1.2255859h8.0341797
	l-0.4082031,1.0478516l-4.671875,2.4628906l-1.6259766,0.8173828c0.7216797-0.0253906,1.1708984-0.0380859,1.3417969-0.0380859
	h3.9785156l-0.5058594,1.2998047H188.6738281L188.6738281,47.9570313z M205.4746094,47.9570313l0.3251953-0.8359375
	c-0.4726563,0.2978516-1.0292969,0.5332031-1.671875,0.7060547c-0.6425781,0.1708984-1.2861328,0.2558594-1.9257813,0.2558594
	c-0.6542969,0-1.2050781-0.0830078-1.6611328-0.2441406c-0.453125-0.1669922-0.7382813-0.3974609-0.8564453-0.6972656
	c-0.1152344-0.296875-0.0693359-0.7109375,0.1347656-1.2373047l1.3759766-3.5371094h2.5693359l-0.9990234,2.5683594
	c-0.3046875,0.7871094-0.4443359,1.2695313-0.4179688,1.4462891c0.0253906,0.1757813,0.1425781,0.3173828,0.3515625,0.4208984
	s0.5087891,0.1542969,0.8925781,0.1542969c0.4414063,0,0.8603516-0.0683594,1.2617188-0.2070313
	c0.4003906-0.1396484,0.7050781-0.3095703,0.9121094-0.5146484c0.2089844-0.2080078,0.4707031-0.7099609,0.78125-1.5107422
	l0.9169922-2.3574219h2.5703125l-2.1748047,5.5898438H205.4746094L205.4746094,47.9570313z M216.8408203,46.1787109
	l2.46875,0.2460938c-0.5410156,0.5410156-1.2207031,0.953125-2.0410156,1.234375
	c-0.8203125,0.2841797-1.7636719,0.4238281-2.8330078,0.4238281c-1.6894531,0-2.8164063-0.3154297-3.3798828-0.9521484
	c-0.4433594-0.5078125-0.5146484-1.1513672-0.2138672-1.9257813c0.3613281-0.9277344,1.0654297-1.6542969,2.1132813-2.1787109
	c1.0439453-0.5253906,2.2119141-0.7861328,3.4980469-0.7861328c1.4453125,0,2.4785156,0.2734375,3.1005859,0.8242188
	c0.6210938,0.5498047,0.6953125,1.390625,0.2197266,2.5253906h-6.4443359c-0.1533203,0.4375-0.078125,0.7792969,0.2236328,1.0224609
	c0.3007813,0.2441406,0.75,0.3662109,1.3408203,0.3662109c0.4033203,0,0.7646484-0.0625,1.0888672-0.1884766
	C216.3066406,46.6630859,216.5957031,46.4589844,216.8408203,46.1787109L216.8408203,46.1787109z M217.5693359,44.6835938
	c0.1484375-0.4296875,0.0839844-0.7548828-0.1943359-0.9775391s-0.6826172-0.3339844-1.2070313-0.3339844
	c-0.5625,0-1.0703125,0.1181641-1.5283203,0.3535156c-0.4550781,0.2333984-0.7607422,0.5537109-0.9121094,0.9580078H217.5693359
	L217.5693359,44.6835938z M220.9462891,47.9570313l3.0019531-7.7177734h2.5712891l-3.0019531,7.7177734H220.9462891
	L220.9462891,47.9570313z M229.5849609,44.0722656l-2.2382813-0.2421875
	c0.4716797-0.5410156,1.078125-0.9394531,1.8193359-1.2011719c0.7431641-0.2578125,1.7431641-0.3886719,3.0068359-0.3886719
	c1.1484375,0,1.9707031,0.078125,2.4726563,0.234375c0.4970703,0.1572266,0.8164063,0.3554688,0.9521484,0.5957031
	c0.1337891,0.2412109,0.0791016,0.6816406-0.171875,1.3242188l-0.7001953,1.7265625
	c-0.1894531,0.4912109-0.2910156,0.8535156-0.2978516,1.0869141c-0.0087891,0.2333984,0.0498047,0.4833984,0.1708984,0.7490234
	h-2.5449219c-0.0273438-0.0976563-0.0546875-0.2431641-0.0771484-0.4355469
	c-0.0068359-0.0888672-0.0146484-0.1455078-0.0234375-0.1748047c-0.5361328,0.2460938-1.0751953,0.4296875-1.6230469,0.5537109
	c-0.5478516,0.1220703-1.1044922,0.1826172-1.6738281,0.1826172c-0.9990234,0-1.7285156-0.15625-2.1826172-0.4658203
	c-0.4560547-0.3134766-0.5898438-0.7089844-0.4042969-1.1865234c0.1230469-0.3144531,0.3642578-0.5966797,0.7226563-0.8447266
	c0.3574219-0.2480469,0.8007813-0.4375,1.3242188-0.5673828c0.5214844-0.1318359,1.25-0.2470703,2.1787109-0.3447266
	c1.2509766-0.1308594,2.1318359-0.2529297,2.6376953-0.3642578l0.0566406-0.1464844
	c0.1103516-0.2871094,0.0673828-0.4873047-0.1289063-0.609375c-0.1962891-0.1210938-0.6318359-0.1816406-1.3085938-0.1816406
	c-0.4599609,0-0.8359375,0.0517578-1.1328125,0.15625C230.1230469,43.6308594,229.8457031,43.8125,229.5849609,44.0722656
	L229.5849609,44.0722656z M232.5585938,45.2734375c-0.3535156,0.0615234-0.9042969,0.1376953-1.6542969,0.2265625
	c-0.7451172,0.0878906-1.2451172,0.1748047-1.5,0.2568359c-0.3867188,0.1376953-0.6230469,0.3115234-0.7041016,0.5214844
	c-0.0820313,0.2080078-0.0166016,0.3857422,0.1943359,0.5371094c0.2099609,0.1503906,0.5195313,0.2255859,0.9355469,0.2255859
	c0.4658203,0,0.9404297-0.0869141,1.4296875-0.2617188c0.3642578-0.1328125,0.6308594-0.296875,0.8027344-0.4902344
	c0.1171875-0.1259766,0.2431641-0.3671875,0.3798828-0.7207031L232.5585938,45.2734375L232.5585938,45.2734375z"/>
<path fill="#FFFFFF" d="M149.6367188,31.7988281l-1.0361328,3.7705078c-0.5019531,0.0410156-0.953125,0.0566406-1.3554688,0.0458984
	c-2.3798828-0.0615234-4.2373047-0.5966797-5.5615234-1.5986328c-1.3251953-1.0029297-1.7871094-2.2275391-1.3886719-3.6767578
	c0.3867188-1.4101563,1.5175781-2.5830078,3.3916016-3.5214844c1.8740234-0.9394531,3.9619141-1.3818359,6.2617188-1.3217773
	c2.5585938,0.0668945,4.4550781,0.5786133,5.6757813,1.5385742c1.2285156,0.9560547,1.6210938,2.2324219,1.1845703,3.8222656
	L155.5,35.6230469l-5.9423828-0.15625l1.2363281-4.5009766c0.140625-0.5126953,0.046875-0.9267578-0.2763672-1.2451172
	c-0.3212891-0.3154297-0.8271484-0.4833984-1.515625-0.5009766c-0.6240234-0.0166016-1.2041016,0.109375-1.7363281,0.3779297
	c-0.5332031,0.2666016-0.8525391,0.5927734-0.9570313,0.9765625c-0.1113281,0.4052734,0.0048828,0.7392578,0.34375,1.0136719
	c0.3427734,0.2685547,0.8320313,0.4121094,1.4658203,0.4296875
	C148.6386719,32.0302734,149.1464844,31.9570313,149.6367188,31.7988281L149.6367188,31.7988281z M209.2509766,35.6523438
	l1.4042969-5.6933594c0.7246094-2.9453125-1.7998047-4.6635742-6.8769531-4.6635742
	c-5.1132813,0-8.4853516,1.7182617-9.2119141,4.6635742l-1.4042969,5.6933594h5.4882813l1.3085938-5.3066406
	c0.1689453-0.6875,0.3710938-1.0537109,0.7441406-1.3544922c0.5537109-0.4296875,1.3955078-0.6660156,2.3300781-0.6660156
	c0.7832031,0,1.4433594,0.1933594,1.8134766,0.515625c0.3681641,0.3232422,0.4267578,0.6875,0.2363281,1.4619141
	l-1.3193359,5.3496094H209.2509766L209.2509766,35.6523438z M243.5341797,25.4960938l-0.7900391,3.5224609
	c-1.3144531,0-3.3310547-0.4960938-3.9736328,0.96875c-0.171875,2.3652344-1.3271484,5.6582031-4.1279297,5.8759766h-7.7460938
	l0.8710938-3.2050781h2.1757813c0.9482422,0.0136719,1.5791016-0.4482422,1.8945313-1.3837891l0.6318359-2.6132813
	c0.3818359-1.8867188,1.5546875-2.9282227,3.5166016-3.125L243.5341797,25.4960938L243.5341797,25.4960938z M191.0185547,21.887207
	c1.8046875,0,3.2685547,0.6865234,3.2685547,1.5332031c0,0.847168-1.4638672,1.5336914-3.2685547,1.5336914
	c-1.8056641,0-3.2695313-0.6865234-3.2695313-1.5336914C187.7490234,22.5737305,189.2128906,21.887207,191.0185547,21.887207
	L191.0185547,21.887207z M163.4482422,21.887207c1.8066406,0,3.2705078,0.6865234,3.2705078,1.5332031
	c0,0.847168-1.4638672,1.5336914-3.2705078,1.5336914c-1.8046875,0-3.2685547-0.6865234-3.2685547-1.5336914
	C160.1796875,22.5737305,161.6435547,21.887207,163.4482422,21.887207L163.4482422,21.887207z M180.3427734,23.2143555
	l-3.5205078,12.2700195h6.0820313l3.6113281-12.1323242L180.3427734,23.2143555L180.3427734,23.2143555z M187.8867188,25.6411133
	l-2.9716797,9.8432617h6.21875l2.8339844-9.8432617H187.8867188L187.8867188,25.6411133z M160.1337891,25.6411133
	l-2.9716797,9.8432617h6.21875l2.8339844-9.8432617H160.1337891L160.1337891,25.6411133z M228.5410156,30.4814453
	L219.875,30.5527344l0.2373047-1.1953125l2.2197266-0.2802734c-1.4316406-0.8027344-4.0742188-0.5869141-4.6552734,1.1230469
	c-0.2275391,0.671875-0.1005859,1.2089844,0.3505859,1.5996094c0.4501953,0.390625,1.0927734,0.5595703,1.9277344,0.5849609
	c1.9238281,0.0595703,2.0615234-0.6503906,2.5078125-1.3681641l5.8759766,0.1601563
	c-1.609375,3.2519531-5.7353516,4.3320313-9.0800781,4.5400391c-0.1572266,0-0.3105469,0.0029297-0.4599609,0.0117188
	c-0.1494141,0.0068359-0.3017578,0.0097656-0.4599609,0.0097656c-1.9394531,0-3.5996094-0.3964844-4.9814453-1.1904297
	c-1.3808594-0.7949219-1.84375-2.0742188-1.3925781-3.8398438c0.0048828-0.015625,0.0058594-0.0332031,0.0029297-0.0556641
	c-0.0048828-0.0214844-0.0029297-0.046875,0.0068359-0.0771484c0.0097656-0.0292969,0.0117188-0.0546875,0.0068359-0.0771484
	c-0.0029297-0.0224609-0.0029297-0.0410156,0.0009766-0.0546875c0.4863281-1.5166016,1.5087891-2.7001953,3.0664063-3.5527344
	c1.5595703-0.8535156,3.140625-1.390625,4.7451172-1.6108398c0.2841797-0.0444336,0.5722656-0.0776367,0.8603516-0.0996094
	c0.2890625-0.0219727,0.5683594-0.0332031,0.8398438-0.0332031c2.4121094,0,4.1181641,0.3789063,5.1171875,1.1362305
	C228.2216797,27.5068359,228.5322266,28.6230469,228.5410156,30.4814453L228.5410156,30.4814453z M178.1435547,25.6044922
	h-7.8164063c-1.9619141,0.421875-3.0625,1.5693359-3.5097656,3.5107422l-2.0195313,6.7636719h6.9921875l1.6230469-5.5146484
	c0.2285156-0.9492188,0.7470703-1.4257813,1.4628906-1.5791016h2.5585938L178.1435547,25.6044922L178.1435547,25.6044922z"/>
<rect opacity="0" fill="#030303" width="250" height="51.7099609"/>
</svg>
