<?xml version="1.0" encoding="utf-8"?>
<!-- Generator: Adobe Illustrator 22.1.0, SVG Export Plug-In . SVG Version: 6.00 Build 0)  -->
<svg version="1.1" id="Слой_1" xmlns="http://www.w3.org/2000/svg" xmlns:xlink="http://www.w3.org/1999/xlink" x="0px" y="0px"
	 width="929px" height="136.1px" viewBox="0 0 929 136.1" style="enable-background:new 0 0 929 136.1;" xml:space="preserve">
<style type="text/css">
	.st0{fill:#666666;}
	.st1{fill:#043576;}
	.st2{fill:#F21723;}
</style>
<g>
	<g>
		<path class="st0" d="M860.8,134.8c0.3-7.9,0.7-15.4,1.1-23.8c7.2-0.7,14.5-1.7,21.3,1.5c6.4,3,6.9,13.2,1.1,18.4
			c-2,1.8-4.8,3.4-7.4,3.7C871.7,135.2,866.5,134.8,860.8,134.8z M862.8,134.6c5.5-0.6,10.4-0.7,15.2-1.7c4.9-1.1,8.1-5.8,8.3-10.6
			c0.1-4.5-2.3-8.7-6.3-9.7c-5.3-1.2-10.7-1-16.1-0.2C863.5,119.8,863.2,126.6,862.8,134.6z"/>
		<path class="st0" d="M716.8,112.5c-0.4,7.5-0.8,14.9-1.2,22.2c-0.3,0-0.7,0-1-0.1c0-7.8,0-15.6,0-24.1c4.3,0,7.7-0.1,11.2,0
			c3.1,0.1,5.5,1.3,6,4.8c0.5,3.3-1,5.5-3.8,6.8c-1.5,0.7-3.1,1.1-5.4,1.8c2.9,3.6,5.6,6.9,8.3,10.3c-0.3,0.3-0.6,0.5-0.9,0.8
			c-4.1-3.6-7.6-7.7-11.3-12.5c5-0.8,10-0.3,11.4-6C728,111.7,726.4,111.1,716.8,112.5z"/>
		<path class="st0" d="M696.2,111.8c-0.6,6.2-0.9,12.4-1.9,18.5c-0.3,1.6-2.3,3.4-3.9,4.1c-5.1,2-10.5,2.5-15.4-0.3
			c-1.9-1-3.9-3.6-4-5.6c-0.3-5.7,0.3-11.5,0.5-17.3c0.4,0,0.8-0.1,1.2-0.1c0.3,0.9,0.8,1.8,0.7,2.7c-0.2,4.2-0.7,8.3-0.7,12.4
			c0,1.6,0.2,3.5,1.1,4.7c3.6,4.5,8.6,3.7,13.4,2.9c4-0.7,5.8-3.3,6.2-8s0.5-9.5,0.8-14.3C694.8,111.7,695.5,111.7,696.2,111.8z"/>
		<path class="st0" d="M759.3,110.7c3.6,1.5,11.3,17.5,11.4,24.5c-1.8-3.7-3.6-7.4-5.5-11.3c-3.9,0-7.6,0-12,0
			c-2.3,3.6-4.7,7.4-7.1,11.3c-0.4-0.2-0.8-0.5-1.2-0.7C749.1,126.1,754.3,118.4,759.3,110.7z M764.5,121.9
			c-1.4-3.1-2.6-5.9-4.2-9.5c-2.2,3.5-3.9,6.2-5.9,9.5C757.9,121.9,760.6,121.9,764.5,121.9z"/>
		<path class="st0" d="M927.2,135.1c-1.6-3.5-3.2-7.1-5-11.1c-3.9,0-7.8,0-12.3,0c-2.2,3.4-4.6,7.2-7.6,12
			c0.3-5.7,12.1-23.8,16.2-25.2c3.5,7.8,7,15.7,10.5,23.6C928.4,134.6,927.8,134.9,927.2,135.1z M921.4,121.9
			c-1.6-3.3-2.8-5.9-4.4-9.5c-2.2,3.5-3.9,6.2-6,9.5C914.8,121.9,917.6,121.9,921.4,121.9z"/>
		<path class="st0" d="M811.1,135.4c-3.5-1.7-11.6-18.4-11.2-24.7c3.2,7.3,6.4,14.5,10.1,22.9c5.2-8.2,10-15.6,14.7-23.1
			c0.5,0.3,0.9,0.6,1.4,0.9C821.1,119.5,816.1,127.5,811.1,135.4z"/>
		<path class="st0" d="M641.4,122.5c4.6-0.7,10.2,0.5,11.7-6c-1.8-4.8-3.4-5.3-13.5-4c-0.5,7.3-1,14.7-1.4,22.1
			c-0.5,0-1.1-0.1-1.6-0.1c0.3-7.7,0.7-15.4,1.1-23.8c4,0,7.8-0.1,11.6,0c2.7,0.1,4.9,1,5.6,4c0.7,3.2-0.4,6-3.2,7.1
			c-3,1.2-6.5,1.4-9.8,2.1C641.6,123.4,641.5,122.9,641.4,122.5z"/>
		<path class="st0" d="M842.1,111.7c0,7.6,0,15.2,0,22.8c-0.4,0-0.8,0-1.2,0c0-7.6,0-15.2,0-22.8
			C841.3,111.6,841.7,111.7,842.1,111.7z"/>
	</g>
	<g>
		<path class="st1" d="M345.6,55.7c7.3,6.1,14.2,16.9,17.8,28c-6.8,0-13.3,0.1-19.9-0.1c-1,0-2.3-1.8-2.9-3
			c-3.2-5.6-6.2-11.4-9.4-17c-1.9-3.4-4.3-6-9.4-4.9c0,8.1,0,16.2,0,24.8c-6.8,0-12.8,0-19.2,0c0-21,0-41.5,0-62
			c0.5-0.4,0.7-0.7,1-0.7c13.6,0.2,27.3,0,40.9,0.7c7.9,0.4,13,5.9,14.3,13.6c1.4,7.8-2.3,15.4-9,19C348.6,54.6,347.3,55,345.6,55.7
			z M321.8,33.6c0,4.5,0,8.3,0,13c4.6-0.4,8.9-0.6,13.1-1.2c3.4-0.5,5.1-3.3,4.4-6.2c-0.6-2.1-2.9-4.9-4.8-5.4
			C330.5,33,326.3,33.6,321.8,33.6z"/>
		<path class="st2" d="M765.5,83c-1.2,0.4-1.9,0.7-2.5,0.7c-6.3,0-12.6,0-19,0c-3.7-6.9-7.2-13.5-10.8-20c-1.9-3.5-4.5-6.2-9.7-4.9
			c0,8,0,15.9,0,24.4c-6.6,0-12.6,0-19,0c0-20.7,0-41.2,0-62.5c2.7,0,5.2,0,7.6,0c9.7,0.1,19.3,0.1,29,0.4
			c11.4,0.4,17.5,4.4,19.2,12.4c2.2,10.4-1.5,17.2-12.7,22.5C757.3,62.6,760.2,73.3,765.5,83z M723.7,46.8c5.1-0.6,9.5-0.9,13.9-1.7
			c2.9-0.5,3.9-3,3.8-5.7c0-2.8-1.4-5-4.2-5.3c-4.3-0.5-8.7-0.5-13.4-0.7C723.7,38.1,723.7,41.8,723.7,46.8z"/>
		<path class="st2" d="M441.2,50.9c-0.1-7.2,2-16,9.6-22.3c3-2.5,6.5-4.8,10.2-5.9c8.9-2.6,18-2.6,27,0.5
			c5.6,1.9,10.1,5.3,13.1,10.3c7.4,12.5,7.5,25.7,1,38.2c-7,13.3-20,15.8-33.7,14.1C450.1,83.5,441.2,72.5,441.2,50.9z M487,53.6
			c0.1,0,0.2,0,0.3-0.1c-0.5-3.1-0.6-6.3-1.4-9.3c-1.7-5.8-6.3-8.8-12.4-8.8c-5.4,0-10.3,3-11.4,8.6c-1.1,5.3-1.3,10.9-0.7,16.2
			c1,7.9,5.9,11.3,13.9,11c6.3-0.3,10.4-4.4,11.3-11.7C486.7,57.6,486.8,55.6,487,53.6z"/>
		<path class="st1" d="M269.5,83.5c-7.4,0-13.6,0-20.1,0c-1.1-3.3-2.2-6.4-3.4-9.8c-7.3,0-14.6,0-22.1,0c-1,3.1-2,6.2-3.2,9.7
			c-6.3,0-12.5,0-19.6,0c7.9-21.1,15.7-41.9,23.6-62.7c7.1,0,13.7,0,21.2,0C253.6,41.3,261.4,62.1,269.5,83.5z M235.4,38.5
			c-0.3,0-0.6,0-0.8,0c-2.1,6.9-4.1,13.7-6.3,20.8c4.9,0,9,0,13.6,0C239.6,52,237.5,45.2,235.4,38.5z"/>
		<path class="st2" d="M665.9,20.6c7.9,21.1,15.7,41.7,23.6,62.7c-7.2,0-13.6,0-19.9,0c-1.2-3.3-2.3-6.3-3.5-9.5
			c-7.2,0-14.2,0-21.8,0c-0.8,2.1-1.4,4.5-2.5,6.7c-0.7,1.3-2.1,3-3.3,3.1c-5.4,0.3-10.9,0.1-16.8,0.1c0.5-2.1,0.7-3.6,1.2-4.9
			c6.7-17.9,13.6-35.7,20.2-53.6c1.4-3.7,3.3-4.8,6.9-4.6C655.1,20.8,660.2,20.6,665.9,20.6z M655.8,39.1c-0.4,0-0.9,0-1.3,0.1
			c-2,6.6-4,13.2-6.1,20.3c4.8,0,8.8,0,13.7,0C659.8,52.3,657.8,45.7,655.8,39.1z"/>
		<path class="st2" d="M528.8,62c3.8,9,7,11.4,13.7,10.4c3.2-0.5,5.8-1.9,6.5-5.3c0.7-3.6-1.5-5.7-4.5-6.8c-3.4-1.3-7-2-10.5-3.2
			c-3.9-1.3-7.9-2.6-11.6-4.5c-5.8-2.9-8.9-7.6-9-14.4c0-6.9,3.1-12.2,9-14.9c11.1-5.1,22.6-5.1,33.9-0.3c5.7,2.4,8.6,7.8,9,15.3
			c-5.5,0.4-11.1,0.8-16.7,1.2c-2.2-4.1-4.3-8.1-9.5-8c-1.6,0-3.5,0-4.8,0.8c-1.2,0.7-2.6,2.5-2.6,3.8s1.3,2.9,2.5,3.7
			c1.3,0.9,3.1,1.1,4.7,1.6c5.6,1.6,11.3,2.9,16.7,4.9c7.4,2.8,12.3,8,12.4,16.4c0.1,8.3-3.3,15-11.1,18.6
			c-11.7,5.4-23.6,5-35.3-0.1c-6.3-2.7-10.5-10.9-9.7-18.1C517.4,62.7,523,62.3,528.8,62z"/>
		<path class="st2" d="M882.9,22.2c7.6,0,14.4,0,21.5,0c7.8,20.8,15.5,41.4,23.5,62.6c-7,0-13.3,0-20,0c-1.2-3.4-2.5-6.7-3.8-10.2
			c-7.2,0-14.2,0-21.6,0c-1.2,3.3-2.3,6.6-3.6,10.1c-6.1,0-12.4,0-19.5,0C867.4,63.6,875.1,43,882.9,22.2z M900.3,60.7
			c-2.2-7.2-4.2-13.6-6.2-20.1c-0.5,0-1,0-1.5,0c-2,6.5-4,13.1-6.2,20C891.2,60.7,895.2,60.7,900.3,60.7z"/>
		<path class="st2" d="M435.8,39.2c-5.7,1.3-11,2.4-15.3,3.4c-3-2.8-5.1-5.7-7.8-7.1c-6-3.2-13.2-0.5-15.8,5.8
			c-3.1,7.2-2.5,14.7-0.3,22c1.3,4.4,4.6,6.7,9.3,7.1c4.9,0.3,8.9-0.9,11.4-5.4c1-1.9,1.9-3.9,3.1-6.3c5.2,1.5,10.3,3,15.3,4.4
			c0.5,6.9-5,15.7-12.2,18.8c-11.3,4.9-22.9,4.7-33.8-0.9c-8.9-4.5-12.7-13-13.8-22.5c-0.6-5.1-0.3-10.4,0.6-15.4
			c2.4-13.5,12-21.8,25.8-22.8c9.5-0.7,18.7-0.3,26.3,6.7C432,29.9,434.2,33.9,435.8,39.2z"/>
		<path class="st2" d="M859.8,39.2c-5.7,1.3-11,2.4-15.3,3.4c-3-2.8-5.1-5.7-7.8-7.1c-6-3.2-13.2-0.5-15.8,5.8
			c-3.1,7.2-2.5,14.7-0.3,22c1.3,4.4,4.6,6.7,9.3,7.1c4.9,0.3,8.9-0.9,11.4-5.4c1-1.9,1.9-3.9,3.1-6.3c5.2,1.5,10.3,3,15.3,4.4
			c0.5,6.9-5,15.7-12.2,18.8c-11.3,4.9-22.9,4.7-33.8-0.9c-8.9-4.5-12.7-13-13.8-22.5c-0.6-5.1-0.3-10.4,0.6-15.4
			c2.4-13.5,12-21.8,25.8-22.8c9.5-0.7,18.7-0.3,26.3,6.7C856,29.9,858.2,33.9,859.8,39.2z"/>
		<path class="st2" d="M631.3,21.1c0,4.9,0,9.5,0,14.8c-6.4,0-12.6,0-19.6,0c0,16,0,31.4,0,47.3c-6.8,0-12.8,0-19.4,0
			c0-15.5,0-30.8,0-46.9c-6.7,0-12.9,0-19.5,0c0-5.4,0-10,0-15.1C592,21.1,611.3,21.1,631.3,21.1z"/>
		<path class="st1" d="M178.1,0c-11.3,4-21.6,9.4-30.8,17c-6.3,5.2-12.4,10.6-18.8,15.6C115.2,43,100.3,49.4,83.4,50.9
			c-1.3,0.1-2.7,0.2-4,0.2c-0.4,0-0.9-0.2-0.6-0.1c4.8-4.6,10.2-9,14.8-14.1c19.8-22,45.2-32,73.8-35.6C170.9,0.9,174.5,0.4,178.1,0
			z"/>
		<path class="st2" d="M0,19.6c5,1.2,9,2,12.9,3.2c8.4,2.6,16.8,5.4,25.2,8C52.4,35.3,63.3,44.3,73,55.5
			c5.9,6.9,12.4,13.4,19.1,19.6c2.9,2.7,6.8,4.4,10.2,6.7c-12.9-2.9-25-7.7-36.3-14.5c-9.5-5.7-18-12.6-24.5-21.7
			c-9-12.8-21.7-19.8-36.4-23.7c-1.3-0.3-2.6-0.7-3.9-1C1.1,20.8,1,20.7,0,19.6z"/>
		<path class="st2" d="M792.1,83.3c-6.3,0-12.3,0-18.8,0c-0.1-2.3-0.4-4-0.4-5.8c0-8.5-0.2-17,0.2-25.5c0.1-2.7,1.3-6,3.1-8
			c4.6-4.9,9.9-9.2,14.8-13.7c0.3,0.3,0.7,0.5,1,0.8C792.1,48.4,792.1,65.7,792.1,83.3z"/>
		<path class="st1" d="M294.5,29.9c0,18.5,0,35.8,0,53.5c-6.2,0-12.2,0-19,0c0-6.2,0-12.3,0-18.4c0-2.3,0.3-4.7-0.1-7
			c-1.6-9,2.7-15.1,9.3-20.3C287.7,35.4,290.6,33,294.5,29.9z"/>
		<path class="st2" d="M204,0.9c-10.8,3.3-18.4,11.1-26.8,17.9c-9.2,7.5-19.6,12.2-31.4,12.8C160.5,12.8,179.4,1.5,204,0.9z"/>
		<path class="st1" d="M79.5,56.4c7.2-3.2,14.2-4.3,21.4-4.1c12.2,0.4,24.2,0,36.1-6.1C121.6,64.6,94,69.8,79.5,56.4z"/>
		<path class="st1" d="M109.5,68.1c22.4,3.5,39.5,16.3,54.8,31.9c-0.2,0.3-0.3,0.7-0.5,1c-2.8-1.3-5.7-2.3-8.3-3.9
			c-6.8-4.1-14.3-6.3-21.6-9.2c-8.1-3.3-16.1-7.3-21.9-14.5c-1.1-1.4-2.1-2.9-3.1-4.3C109.2,68.7,109.4,68.4,109.5,68.1z"/>
		<path class="st1" d="M180.8,26.7c12.2-15.8,28-24.5,48-25.1c-8.6,2.5-15,8.3-21.6,13.9C199.6,22,191,26.4,180.8,26.7z"/>
		<path class="st2" d="M773.2,33.7c0-4.4,0-8.5,0-12.8c6.4,0,12.5,0,18.8,0c0,1.9,0,3.7,0,5.3C786,28.6,780,31,773.2,33.7z"/>
		<path class="st1" d="M294.5,20.8c0,2.3,0,3.9,0,5.5c-6.3,2.5-12.4,4.8-18.7,7.3c0-4.3,0-8.3,0-12.8
			C282.1,20.8,288.1,20.8,294.5,20.8z"/>
		<path class="st1" d="M68.3,39.6c-6.7-3.5-13-7.8-20-10.3c-7-2.4-14.6-2.9-22.1-4.3C43.5,20.3,56.8,27.5,68.3,39.6z"/>
	</g>
</g>
</svg>
