<?xml version="1.0" encoding="utf-8"?>
<!-- Generator: Adobe Illustrator 23.0.5, SVG Export Plug-In . SVG Version: 6.00 Build 0)  -->
<svg version="1.1" id="Слой_1" xmlns="http://www.w3.org/2000/svg" xmlns:xlink="http://www.w3.org/1999/xlink" x="0px" y="0px"
	 width="614.3px" height="119.2px" viewBox="0 0 614.3 119.2" enable-background="new 0 0 614.3 119.2" xml:space="preserve">
<path fill-rule="evenodd" clip-rule="evenodd" fill="#FFFFFF" stroke="#C0C1C4" stroke-width="4" stroke-miterlimit="10" d="
	M554.7,117.2H59.6C27.8,117.2,2,91.4,2,59.6l0,0C2,27.8,27.8,2,59.6,2h495.1c31.8,0,57.6,25.8,57.6,57.6l0,0
	C612.3,91.4,586.5,117.2,554.7,117.2z"/>
<g>
	<polygon fill-rule="evenodd" clip-rule="evenodd" fill="#312C86" points="133.4,21.5 156.5,21.5 150.2,52.9 154,53 179.2,21.6 
		205,21.5 172.3,58 190.5,96.9 162.2,96.9 152.9,65.4 145.8,65.3 139.2,96.9 116.3,96.8 	"/>
	<path fill="#312C86" d="M246.4,45.7l-1.1,5c-1.3-0.7-2.6-1.5-6.3-3.8c-2.9-1.8-6.4-3.6-10.3-3.6c-5.1-0.1-7.3,0.6-11.3,2.5
		s-7.4,4.4-10.2,7.4c-2.7,3-4.9,6.5-6.4,10.3s-2.7,7.5-2.7,11.4c-0.1,3-0.2,7.5,0.6,10.1c0.9,2.7,1.8,4.4,3.5,6.4
		c1.8,2.1,4,3.3,6.7,4.5c2.6,1.2,7.2,0.5,10.5,0.2c2.3-0.2,7.2-2,10.5-3.6c0.9-0.4,4-2.2,4.9-2.7l-1.4,7.1h23.4l11.7-51.2H246.4z
		 M224.4,80.9c-0.9-0.4-1.5-0.7-2.1-1.1c-0.7-0.5-0.8-0.5-1.2-1.2c-0.5-0.8-0.7-1.2-0.9-2.2c-0.3-1.2-0.3-2.4-0.2-3.6
		c0.2-2.2,0.3-3,1-5s1.3-3,2.5-4.6s1.4-1.9,2.9-3s2.4-1.5,4.6-1.5c1.5,0,3.6,0.5,5.2,1.2c1.1,0.5,4.5,2.8,5.5,4.1L238,77.9
		c-0.6,0.5-3.9,2.3-4.7,2.7c-1.1,0.5-2.1,0.9-3.4,1c-1.2,0.1-2,0.2-3.3,0C225.4,81.3,225.2,81.2,224.4,80.9z"/>
	<path fill-rule="evenodd" clip-rule="evenodd" fill="#312C86" d="M281.1,43.3h19.4l-2,7.9c3.7-3.3,7.1-5.6,10.3-7
		c3.2-1.4,6.8-2.1,10.9-2.1c4.3,0,7.5,0.8,9.7,2.3c2.1,1.5,3.6,3.8,4.4,6.8c4.2-3.5,7.8-5.9,10.8-7.2s6.5-1.9,10.5-1.9
		c5.8,0,9.9,1.7,12.3,5.2c2.4,3.4,2.6,8.8,0.7,16.1l-8.8,33.8h-20.8l8-30.7c0.6-2.4,0.6-4.3,0-5.4c-0.9-1.9-2.4-2.8-4.5-2.8
		c-2.4,0-4.7,0.9-6.6,2.6c-2,1.8-3.4,4.6-4.4,8.5l-7.2,27.8h-20.9l7.7-29.7c0.6-2.4,0.9-4,0.9-4.8c-0.1-1.3-0.6-2.4-1.4-3.3
		c-0.9-0.8-2-1.2-3.5-1.2c-2.4,0-4.6,0.9-6.6,2.7s-3.5,4.7-4.6,8.8l-7.2,27.5h-20.8L281.1,43.3L281.1,43.3z"/>
	<path fill-rule="evenodd" clip-rule="evenodd" fill="#312C86" d="M447.5,84.5H421L414.1,97h-23.8l47.8-75.3h25.4l8.8,75.3h-24.4
		L447.5,84.5L447.5,84.5z M446.8,68.3l-1.3-27.1l-15.3,27.1H446.8L446.8,68.3z"/>
	<path fill-rule="evenodd" clip-rule="evenodd" fill="#312C86" d="M516,45.8L505.9,97h-24.2L494,45.7L516,45.8z"/>
	<path fill-rule="evenodd" clip-rule="evenodd" fill="#312C86" d="M530.3,43.3h18.9l-2.2,8.8c2.8-3.8,5.3-6.4,7.6-7.9
		c2.3-1.4,4.9-2.2,7.7-2.2c3,0,6,1,9.1,2.8l-10,14.7c-2.1-1-3.9-1.5-5.3-1.5c-2.6,0-5,1.1-7,3.3c-2.9,3.2-5.4,9-7.6,17.7l-4.6,18.1
		h-20.3L530.3,43.3L530.3,43.3z"/>
	<path fill-rule="evenodd" clip-rule="evenodd" fill="#F3A548" d="M62,100.3c-22.6,0-41.1-18.5-41.1-41.1S39.4,18.1,62,18.1
		s41.1,18.5,41.1,41.1S84.6,100.3,62,100.3L62,100.3z"/>
	<path fill-rule="evenodd" clip-rule="evenodd" fill="#2F2A84" d="M46,52.7c-2.5-1.1-3.8-2.7-4.8-4.6c3.6-1.3,6.9-1.5,10.2-0.2
		C59.3,33,73.7,28.2,86.9,29.7c-16,3.3-26.3,13.7-26.5,20.4c0.2,3.7,10.6,8.9,15,8.8c-0.7,0.8-3.5,1-4.2,1.9
		c-3.5-0.4-6.3-0.5-9.7-1.3c-2.9-0.7-8.3-3.2-10.3-3C45,59.8,37.3,73.3,35.3,82.7C33.2,67.5,35.6,64,46,52.7L46,52.7z"/>
</g>
<circle fill-rule="evenodd" clip-rule="evenodd" fill="#312C86" cx="511" cy="21.7" r="12.5"/>
</svg>
