<?xml version="1.0" encoding="utf-8"?>
<!-- Generator: Adobe Illustrator 22.1.0, SVG Export Plug-In . SVG Version: 6.00 Build 0)  -->
<svg version="1.1" id="Слой_1" xmlns="http://www.w3.org/2000/svg" xmlns:xlink="http://www.w3.org/1999/xlink" x="0px" y="0px"
	 width="421.772px" height="88.938px" viewBox="0 0 421.772 88.938" enable-background="new 0 0 421.772 88.938"
	 xml:space="preserve">
<g>
	<polygon fill="#3DB99A" points="0,60 15.375,20.708 27.326,20.708 42.512,60 31.326,60 21.256,34.461 11.385,60 	"/>
	<rect x="48.25" y="20.833" fill="#3DB99A" width="10.125" height="39.167"/>
	<path fill="#3DB99A" d="M89.625,43.271c0,0,8.875-0.375,8.875-11.5S87.062,20.833,87.062,20.833H69.625v39.25L80.062,60V44.896
		L90.312,60h11.875L89.625,43.271z M84.188,38.021H80v-10.25h3.938c0,0,4.438-0.125,4.438,5.125S84.188,38.021,84.188,38.021z"/>
	<path fill="#3DB99A" d="M143.75,23.083L139.5,30c0,0-2.083-2.833-6.417-2.833C128.75,27.167,128,30,128,30s-1.469,5.42,5.667,6.083
		C140.833,36.75,145.25,43,145.25,48.5c0,4.271-4.569,12.155-11.542,12.458c-7.896,0.344-12.292-1.125-18.042-4.708l4.917-7.417
		c0,0,3.382,3.917,9.024,3.917c5.642,0,5.392-4.667,5.392-4.667s0.146-4.271-4.905-4.905C125.122,42.555,117.5,41,117.5,31.917
		s7.604-12.646,15.688-12.646S143.75,23.083,143.75,23.083z"/>
	<polygon fill="#3DB99A" points="153.875,20.833 176,20.833 176,29.083 164.167,29.083 164.167,36 176,36 176,44.333 
		164.167,44.333 164.167,51.083 176,51.083 176,60.083 153.667,60.083 	"/>
	<path fill="#3DB99A" d="M205.917,19.833c-11.201,0-20.281,9.08-20.281,20.281s9.08,20.281,20.281,20.281
		c11.201,0,20.281-9.08,20.281-20.281S217.118,19.833,205.917,19.833z M205.917,51.198c-6.121,0-11.083-4.962-11.083-11.083
		s4.962-11.083,11.083-11.083S217,33.993,217,40.115S212.038,51.198,205.917,51.198z"/>
	<path fill="#3DB99A" d="M271.27,20.713c0,0,0,15.37,0,26.75c0,11.37-10.25,12.62-10.25,12.62h-14.21c0,0-10.25-1.25-10.25-12.62
		c0-11.38,0-26.76,0-26.76h10.13v26.94c0,0,1.54,4.32,7.23,4.32c5.68,0,7.23-4.32,7.23-4.32v-26.93H271.27z"/>
	<polygon fill="#3DB99A" points="282.375,20.703 292.25,20.703 292.25,51.021 304.875,51.021 304.875,59.896 282.438,59.896 	"/>
	<g>
		<path fill="#B5BBAF" d="M390.345,26.083c-4.092,0-7.997,0.79-11.583,2.213l5.193,13.281c1.977-0.794,4.129-1.242,6.39-1.242
			c9.485,0,17.174,7.689,17.174,17.174c0,9.485-7.689,17.174-17.174,17.174c-9.485,0-17.174-7.689-17.174-17.174
			c0-0.609,0.034-1.21,0.096-1.803l-7.074-18.302c-4.541,5.449-7.275,12.457-7.275,20.104c0,17.357,14.07,31.427,31.427,31.427
			c17.357,0,31.427-14.07,31.427-31.427C421.772,40.154,407.702,26.083,390.345,26.083z"/>
		<path fill="#3DB99A" d="M373.266,55.708l1.619,4.188h16.232l-7.162-18.318C378.17,43.9,373.938,49.27,373.266,55.708z"/>
		<path fill="#3DB99A" d="M378.763,28.297L367.699,0h-15.964l-23.369,60h16.167l15.205-39.297l6.456,16.703
			C369.528,33.404,373.841,30.25,378.763,28.297z"/>
		<path fill="#018A7B" d="M383.955,41.578l-5.193-13.281c-4.922,1.953-9.234,5.107-12.57,9.109l7.074,18.302
			C373.938,49.27,378.17,43.9,383.955,41.578z"/>
	</g>
</g>
</svg>
