<?xml version="1.0" encoding="UTF-8" standalone="no"?>
<!-- Created with Inkscape (http://www.inkscape.org/) -->

<svg
   xmlns:dc="http://purl.org/dc/elements/1.1/"
   xmlns:cc="http://creativecommons.org/ns#"
   xmlns:rdf="http://www.w3.org/1999/02/22-rdf-syntax-ns#"
   xmlns:svg="http://www.w3.org/2000/svg"
   xmlns="http://www.w3.org/2000/svg"
   xmlns:sodipodi="http://sodipodi.sourceforge.net/DTD/sodipodi-0.dtd"
   xmlns:inkscape="http://www.inkscape.org/namespaces/inkscape"
   width="229.26125"
   height="39.48864"
   viewBox="0 0 60.658706 10.448036"
   version="1.1"
   id="svg694"
   inkscape:version="0.92.0 r15299"
   sodipodi:docname="uvt aero.svg">
  <defs
     id="defs688">
    <linearGradient
       id="linearGradient522"
       spreadMethod="pad"
       gradientTransform="matrix(-20.45784,-23.59771,23.23231,-20.14106,51.5693,572.4326)"
       gradientUnits="userSpaceOnUse"
       y2="0"
       x2="0.75"
       y1="0"
       x1="0.25">
      <stop
         id="stop518"
         offset="0"
         style="stop-opacity:1;stop-color:#be2323" />
      <stop
         id="stop520"
         offset="1"
         style="stop-opacity:1;stop-color:#dd2a1b" />
    </linearGradient>
  </defs>
  <sodipodi:namedview
     id="base"
     pagecolor="#ffffff"
     bordercolor="#666666"
     borderopacity="1.0"
     inkscape:pageopacity="0.0"
     inkscape:pageshadow="2"
     inkscape:zoom="0.35"
     inkscape:cx="-431.58365"
     inkscape:cy="224.95929"
     inkscape:document-units="mm"
     inkscape:current-layer="layer1"
     showgrid="false"
     fit-margin-top="0"
     fit-margin-left="0"
     fit-margin-right="0"
     fit-margin-bottom="0"
     units="px"
     inkscape:window-width="1280"
     inkscape:window-height="744"
     inkscape:window-x="-4"
     inkscape:window-y="-4"
     inkscape:window-maximized="1" />
  <metadata
     id="metadata691">
    <rdf:RDF>
      <cc:Work
         rdf:about="">
        <dc:format>image/svg+xml</dc:format>
        <dc:type
           rdf:resource="http://purl.org/dc/dcmitype/StillImage" />
        <dc:title></dc:title>
      </cc:Work>
    </rdf:RDF>
  </metadata>
  <g
     inkscape:label="Layer 1"
     inkscape:groupmode="layer"
     id="layer1"
     transform="translate(-90.755318,-197.90578)">
    <path
       d="m 111.5486,198.79971 -1.85762,5.35728 c -0.289,0.93049 -0.65497,1.0649 -1.34949,1.0655 -0.8104,7.1e-4 -1.01998,-0.29849 -0.70799,-1.21229 l 1.5179,-4.4444 c 0.1343,-0.49011 0.15039,-0.76609 -0.38601,-0.76609 h -1.8397 c -0.44178,1.60069 -1.19091,3.41729 -1.73859,5.0134 -0.46712,1.36119 0.21438,2.88219 1.77059,2.88978 0.56039,0.003 1.12201,-3.5e-4 1.6825,0 1.08342,7.1e-4 1.7484,0.0122 2.58502,-0.76899 0.55689,-0.51999 0.84486,-1.43891 1.12088,-2.23509 0.5661,-1.6322 1.12451,-3.2669 1.68948,-4.8991 -0.82899,0 -1.65798,0 -2.48697,0 z m 20.44308,6.8241 0.90611,-2.6138 -0.6537,-0.002 c -1.13248,0 -1.84792,0.22429 -2.14481,1.29402 -0.23139,0.83478 0.007,1.29798 0.8854,1.322 0.3357,0 0.6714,0 1.007,0 z m 6.9613,-1.80502 c 0.0996,-0.4602 -0.0488,-0.8067 -0.60128,-0.8067 -0.76609,0 -1.13481,0.30762 -1.42229,0.99462 0.59467,0 1.19189,0.002 1.78858,0.002 0.11451,0 0.21078,-0.0776 0.23499,-0.18962 z m -2.20018,1.10969 c 0.0381,0.40383 0.3132,0.66813 0.74539,0.68612 0.82229,0.0319 1.6668,0.002 2.49361,0.002 -0.35909,1.03519 -0.35909,1.03449 -1.1533,1.03671 -0.9616,0.003 -2.1196,0.007 -2.29701,-0.0281 -1.1889,-0.23357 -1.60659,-1.299 -1.3892,-2.4015 0.12989,-0.66079 0.46118,-1.24591 1.0015,-1.6553 0.5063,-0.38351 1.15722,-0.58378 1.87448,-0.58378 h 0.84942 c 1.04952,0 1.8125,0.48429 1.8125,1.6008 0,0.31619 -0.0986,0.72767 -0.24528,1.05748 -0.0789,0.17742 -0.24511,0.2853 -0.43932,0.2853 -1.0843,0 -2.16859,0 -3.25279,0 z m 10.5832,1.7283 c -1.56941,0.0186 -2.3308,-0.88569 -2.05059,-2.41209 0.29407,-1.60178 1.48678,-2.26511 2.94029,-2.26511 0.48539,-0.006 1.12639,-0.027 1.59678,0.0845 1.2167,0.28829 1.6583,1.26499 1.37802,2.44729 -0.3519,1.48551 -1.45852,2.14418 -2.88943,2.14418 -0.32487,0 -0.65027,-0.002 -0.97507,0.001 z m 0.2679,-1.03678 c 0.24638,0.018 0.52451,0.0224 0.77018,-0.004 0.61511,-0.0667 0.9246,-0.65892 1.09142,-1.1883 0.18599,-0.58991 0.1258,-1.29981 -0.63432,-1.39633 -0.1015,-0.0129 -0.24508,-0.0182 -0.37638,-0.0177 -0.9131,0.005 -1.30362,0.49171 -1.51631,1.3722 -0.13279,0.5496 0.007,1.18608 0.66541,1.2342 z m -6.78882,0.64911 0.95871,-2.76511 c 0.35591,-1.0765 0.76111,-1.52269 2.04148,-1.52269 h 1.75864 c -0.0433,0.24229 -0.25023,1.00009 -0.55513,1.0305 -0.30149,0.0106 -0.68298,-0.0262 -0.97198,0.0361 -0.2178,0.0469 -0.33499,0.1609 -0.42971,0.43811 l -1.0988,3.16608 h -1.45348 c -0.17092,0 -0.29983,-0.24469 -0.24973,-0.38298 z m -10.90458,0.38188 c -1.3645,-0.0324 -1.66842,-1.36959 -1.49979,-2.3568 0.28087,-1.64158 1.6057,-2.31288 3.22978,-2.31288 h 2.93091 c 0.26028,0 0.40369,0.15437 0.30787,0.43099 l -1.47037,4.23979 -1.41722,-1.02821 -0.35648,1.0281 c -0.57499,0 -1.14981,3.2e-4 -1.7247,-0.001 z m -7.87382,-6.1971 h 1.73221 l -1.6432,4.7384 c -0.10728,0.3097 -0.33648,0.88999 -0.2309,1.14931 0.17071,0.41868 0.55249,0.3604 0.92079,0.36129 h 1.27811 l 2.16701,-6.249 h 1.1963 c 0.55598,0 0.80508,0.0332 0.97589,-0.11159 0.25968,-0.21999 0.52219,-1.0759 0.58442,-1.54259 h -6.4752 z m -3.68769,5.00341 4.0065,-6.65759 c -0.86089,0 -1.72159,0 -2.58241,0 l -3.34627,5.64208 -0.31313,-4.95741 c 0,-0.41808 -0.112,-0.68478 -0.6224,-0.68467 h -1.2681 l -0.1507,1.87198 0.2256,4.82371 c 0.0152,0.9187 0.74259,1.30041 1.73362,1.30041 1.08331,0 1.68567,-0.38453 2.31729,-1.33851"
       style="fill:#26386e;fill-opacity:1;fill-rule:evenodd;stroke:none;stroke-width:0.35277778"
       id="path504"
       inkscape:connector-curvature="0" />
    <path
       d="m 92.952904,202.84558 c -0.0913,-1.1883 0.566385,-2.40069 1.468791,-3.33238 1.676505,-0.37151 3.398697,0.0582 4.599093,1.29318 l 0.03641,0.0379 c 0.449088,-0.6029 0.883709,-1.32761 1.007392,-2.00642 -0.831885,-0.49657 -1.819698,-0.7578 -2.869704,-0.69049 -1.082394,0.0693 -2.083401,0.48951 -2.877398,1.15672 -1.827706,0.59838 -3.219591,2.23368 -3.40928,4.27059 -0.01111,0.11997 -0.01803,0.23939 -0.0206,0.35799 h 1.06e-4 c 0.910872,1.0141 3.217474,0.8491 3.709388,0.69879 l 2.91e-4,-1.8e-4 c -0.876803,0.14831 -1.533005,-0.33422 -1.644483,-1.78573 z m 9.522496,0.73081 c 0.10597,-1.13908 -0.17702,-2.20948 -0.7312,-3.09439 0.27428,-0.38551 0.5407,-0.7608 0.79488,-1.11961 0.84462,-1.19189 0.94442,-1.09848 0.85481,-1.20678 -0.0953,-0.1149 -1.27,-0.3755 -2.277,0.6296 -0.15201,0.1517 -0.3035,0.30928 -0.45501,0.47138 l -0.002,0.002 -0.0194,0.0214 -3.2e-4,2.1e-4 -0.0192,0.0213 -0.002,0.003 -0.0172,0.0191 -0.005,0.005 -0.0152,0.0167 -0.007,0.007 -0.0132,0.0145 -0.009,0.01 -0.011,0.0122 -0.011,0.0121 -0.009,0.01 -0.0131,0.0145 -0.007,0.008 -0.0154,0.017 -0.005,0.005 -0.0176,0.0195 -0.002,0.003 -0.0198,0.022 -4.2e-4,3.6e-4 -0.0202,0.0225 -0.002,0.002 -0.0185,0.0206 -0.004,0.004 -0.0164,0.0183 -0.006,0.007 -0.0142,0.0159 -0.008,0.009 -0.0121,0.0134 -0.0107,0.012 -0.01,0.011 -0.0206,0.023 -0.0152,0.017 -0.006,0.006 -0.0175,0.0196 -0.003,0.004 -0.0198,0.0221 -9.8e-4,0.001 -0.0208,0.0233 -10e-4,0.001 -0.0196,0.0221 -0.004,0.004 -0.0175,0.0197 -0.006,0.006 -0.0152,0.0171 -0.008,0.009 -0.013,0.0147 -0.0104,0.0116 -0.0107,0.0121 -0.0361,0.0407 -0.006,0.007 -0.0173,0.0194 -0.004,0.004 -0.0196,0.0221 -0.002,0.002 -0.0213,0.0241 -7.1e-4,7e-4 -0.02081,0.0234 -0.0028,0.003 -0.01859,0.0209 -0.0052,0.006 -0.01619,0.0183 -0.0076,0.009 -0.0139,0.0157 -0.0099,0.0112 -0.01161,0.0131 -0.01231,0.0139 -0.0093,0.0106 -0.0145,0.0164 -0.007,0.008 -0.017,0.0191 -0.0047,0.005 -0.0193,0.0218 -0.0024,0.003 -0.02159,0.0244 v 7e-5 l -0.0218,0.0247 -0.0022,0.002 -0.01951,0.0221 -0.0046,0.005 -0.01707,0.0194 -0.007,0.008 -0.01478,0.0168 -0.0093,0.0106 -0.01249,0.0141 -0.01171,0.0134 -0.01009,0.0115 -0.01411,0.016 -0.0078,0.009 -0.0164,0.0187 -0.0054,0.006 -0.0188,0.0215 -0.0031,0.004 -0.0212,0.0242 -7.14e-4,7.1e-4 -0.02187,0.025 -0.0017,0.002 -0.02018,0.0231 -0.0041,0.005 -0.01792,0.0204 -0.0063,0.007 -0.01563,0.0178 -0.0087,0.01 -0.0133,0.0151 -0.01111,0.0127 -0.0108,0.0124 -0.01351,0.0154 -0.0085,0.01 -0.01577,0.0181 -0.0062,0.007 -0.0182,0.0208 -0.0038,0.004 -0.0659,0.0754 -0.0033,0.004 -0.01051,0.012 -0.01221,0.014 -0.0017,0.002 -0.0015,0.002 -0.0034,0.004 -0.0032,0.004 -0.0033,0.004 -0.110208,0.1264 1.06e-4,1e-4 -0.08682,0.0993 -0.02448,0.0282 c -0.07592,0.0871 -0.152188,0.17382 -0.2286,0.25993 l -0.0031,0.003 -0.0212,0.0239 c -0.35821,0.4047 -0.7227,0.8043 -1.097279,1.1824 l -0.0029,0.003 c -2.234988,2.312 -3.910401,2.49231 -4.774389,2.57211 -0.659094,0.0609 -1.35509,0.0204 -1.952483,-0.1905 0.14298,0.78292 0.470782,1.50671 0.939694,2.12051 0.18609,0.2438 0.401673,0.45 0.638281,0.61831 1.241107,0.0484 2.345301,-0.1711 2.345301,-0.1711 -0.247685,0.22638 -0.825182,0.4486 -1.409382,0.61289 0.696101,0.18901 1.461982,0.12671 2.161999,-0.2019 1.158486,-0.54391 1.735807,-1.39319 2.459002,-2.37762 0.643784,-0.8763 1.355301,-1.85906 2.068302,-2.85167 0.21689,0.6411 0.30589,1.33699 0.23918,2.0544 -0.0931,1.00009 -0.476107,1.90348 -1.058085,2.63468 -0.05292,0.0665 -0.05341,0.15769 -0.0011,0.22472 0.05218,0.0669 0.140582,0.0887 0.217981,0.0538 1.576104,-0.71349 2.735304,-2.2298 2.907314,-4.07571"
       style="fill:#e31f24;fill-opacity:1;fill-rule:evenodd;stroke:none;stroke-width:0.35277778"
       id="path506"
       inkscape:connector-curvature="0" />
    <g
       id="g508"
       transform="matrix(0.35277777,0,0,-0.35277777,80.52359,397.06819)">
      <g
         id="g510">
        <g
           id="g516">
          <path
             d="m 52.8301,555.9072 c -0.7571,-0.8436 -1.3107,-1.4735 -1.3546,-1.5222 -0.002,-0.002 -0.0032,-0.003 -0.0032,-0.003 -2.1866,-2.4537 -4.4614,-4.8178 -6.9267,-6.6354 -0.464,-0.3421 -0.9221,-0.6576 -1.3705,-0.9405 l 2.6832,-8.4297 c 1.2793,1.3915 2.6533,2.7573 3.9694,4.5491 1.8249,2.484 3.8421,5.2696 5.8629,8.0829 -0.6149,1.8171 -1.5993,3.4875 -2.8605,4.8989"
             style="fill:url(#linearGradient522);fill-rule:evenodd;stroke:none"
             id="path524"
             inkscape:connector-curvature="0" />
        </g>
      </g>
    </g>
  </g>
</svg>
