<?xml version="1.0" encoding="UTF-8" standalone="no"?>
<svg xmlns="http://www.w3.org/2000/svg" width="150" height="75">
	<!-- Created by AtomCrusher for Wikimedia Commons -->
	<path d="m144.45 8.1c0-0.37 0.18-0.43 0.52-0.24 0.62 0.36 1.28 0.73 1.28 0.73 0.02-0.2 0.2-0.38 0.57-0.29 0.35 0.09 0.74 0.17 0.74 0.17 0 0-0.21-0.49-0.31-0.7-0.17-0.39-0.01-0.58 0.16-0.64 0 0-0.24-0.17-0.4-0.28-0.34-0.24-0.26-0.48 0.07-0.62 0.45-0.2 1-0.45 1-0.45-0.18-0.11-0.38-0.41-0.15-0.75 0.23-0.35 0.57-0.83 0.57-0.83 0 0-0.61 0.01-1.01 0-0.37 0-0.46-0.3-0.45-0.52 0 0-0.6 0.44-1.02 0.73-0.36 0.25-0.68 0.01-0.63-0.42 0.09-0.67 0.16-1.41 0.16-1.41-0.22 0.16-0.6 0.15-0.77-0.22-0.25-0.55-0.54-1.2-0.54-1.2 0 0-0.29 0.65-0.54 1.2-0.17 0.37-0.55 0.38-0.77 0.22 0 0 0.08 0.74 0.16 1.41 0.06 0.43-0.27 0.67-0.63 0.42-0.43-0.3-1.02-0.73-1.02-0.73 0 0.22-0.09 0.52-0.45 0.52-0.4 0.01-1.01 0-1.01 0 0 0 0.34 0.48 0.57 0.83 0.23 0.35 0.02 0.65-0.15 0.75 0 0 0.56 0.26 1 0.45 0.33 0.15 0.41 0.38 0.07 0.62-0.16 0.11-0.4 0.28-0.4 0.28 0.17 0.06 0.33 0.25 0.16 0.64-0.1 0.21-0.3 0.7-0.3 0.7 0 0 0.39-0.09 0.74-0.17 0.38-0.09 0.55 0.09 0.57 0.29 0 0 0.65-0.37 1.28-0.73 0.34-0.2 0.52-0.13 0.52 0.24l0 0.9c0 0.52-0.09 1.09-0.28 1.4-2.4-0.27-4.39-2.25-4.39-4.87 0-2.69 2.18-4.88 4.87-4.88 2.69 0 4.87 2.18 4.87 4.88 0 2.52-1.9 4.57-4.32 4.84l0 0.66c2.85-0.27 5.08-2.63 5.08-5.5C149.87 2.48 147.36 0 144.25 0c-3.11 0-5.63 2.48-5.63 5.53 0 2.69 1.95 4.92 4.54 5.43 0.44 0.08 0.71 0.15 0.94 0.44 0.28-0.52 0.34-1.62 0.34-2.25l0-1.05" fill="#ed1c24"/>
	<path d="m89.72 2.25c-1.23 0-2.21 0.29-2.87 0.84-0.66 0.56-1 1.38-1 2.44 0 1.02 0.31 1.8 0.97 2.38 0.66 0.58 1.6 0.87 2.78 0.88 0.97 0 1.81-0.14 2.47-0.41l0-0.94C91.37 7.75 90.58 7.88 89.88 7.88 89.08 7.88 88.47 7.67 88.03 7.25 87.58 6.83 87.38 6.25 87.38 5.5 87.38 4.74 87.58 4.13 88 3.72 88.41 3.3 88.99 3.13 89.75 3.13c0.6 0 1.43 0.13 2.31 0.41l0-1.03C91.28 2.34 90.51 2.26 89.72 2.25zM65.38 2.44 62.75 8.59l1.03 0 0.69-1.66 2.75 0 0.72 1.66 1.59 0-2.56-6.16-1.59 0zm6.03 0 0 6.16 1.41 0 0-6.16-1.41 0zm4.44 0 0 6.16 1.31 0 0-2.53 1.31 0 1.97 2.53 1.63 0-2.22-2.87C80.33 5.48 80.46 5.38 80.72 5.06 80.98 4.76 81.08 4.34 81.06 3.97 81 3.11 80.3 2.45 78.75 2.44l-2.91 0zm20.53 0-2.59 6.16 1 0L95.5 6.94l2.75 0 0.69 1.66 1.63 0-2.59-6.16-1.59 0zm6.16 0 0 6.16 1.16 0 0-4.59 3.88 4.59 1.47 0 0-6.16-1.16 0 0 4.41-3.72-4.41-1.62 0zm11.09 0-2.59 6.16 1 0 0.69-1.66 2.78 0 0.69 1.66 1.59 0-2.56-6.16-1.59 0zm6.13 0 0 6.16 2.75 0c1.05 0 1.89-0.25 2.47-0.81 0.59-0.56 0.88-1.36 0.88-2.37 0.01-0.95-0.26-1.68-0.81-2.19-0.55-0.51-1.34-0.77-2.37-0.78l-2.91 0zm10.25 0-2.62 6.16 1 0 0.72-1.66 2.75 0 0.69 1.66 1.63 0-2.59-6.16-1.56 0zM77.16 3.25l0.78 0c1.05 0 1.78 0.11 1.78 0.91 0 0.81-0.35 1.09-1.97 1.09l-0.59 0 0-2zm44 0.03 0.84 0c0.54 0 0.94 0.05 1.22 0.16 0.29 0.1 0.52 0.3 0.72 0.56 0.29 0.39 0.44 0.88 0.44 1.47 0 0.75-0.2 1.31-0.56 1.69-0.36 0.37-0.9 0.56-1.62 0.56l-1.03 0 0-4.44zM65.88 3.69l1 2.44-2.06 0 1.06-2.44zm31 0 1.03 2.44-2.06 0 1.03-2.44zm17.25 0 1.03 2.44-2.09 0 1.06-2.44zm16.34 0 1.03 2.44-2.06 0 1.03-2.44z" fill="#ed1c24"/>
	<path d="m23.45 17.87c-3.83 1.61-8.73 3.88-11.04 7.66-1.71 2.8-1.52 3.19-1.52 11.21 0 2.22-0.19 3.11-1.46 4.46-1.17 1.25-1.87 1.67-2.66 1.8-2.69 0.44-6.64-18-6.64-20.41 0-0.63-0.05-0.73 0.24-1.16 0.42-0.6 1.29-1.41 1.82-1.41 2.36 0 5.15 3.12 5.15 3.12 0 0 1.92-1.82 6.7-5.42 3.3-2.48 6.29-4.44 7.9-4.44 1.87 0 3.77 1.76 3.77 2.61 0 1.05-0.97 1.31-2.23 2" fill="#a20b31"/>
	<path d="m31.62 42.94c-6.83 0-9.95-6.1-9.95-11.78 0-5.15 1.36-9.22 4.42-13.19 2.12-2.76 4.41-4.25 5.48-4.25 0.05 0 0.09 0 0.13 0.01 2.56 0.31 4.15 2.11 4.45 2.47 0.04 0.05 0.09 0.11 0.12 0.16 0.69-0.9 1.62-1.8 2.22-2.24 1.2-0.88 1.88-0.95 2.87-0.95 3.31 0 6.86 2.01 6.86 6.42 0 3.48-1.27 7.74-3.58 12.02-2.2 4.06-5.04 7.58-7.81 9.64-1.55 1.16-3.21 1.7-5.22 1.7m0.58-23.7c-0.6 0-1.31 0.32-2.16 0.97-2.03 1.55-4.38 6.14-4.38 9.76 0 2.79 1.35 4.39 2.48 5.23 1.42 1.06 3.08 1.45 4.16 1.45 0.07 0 0.14 0 0.2 0 3.98-0.2 7-3.58 8.45-5.58 2.22-3.07 3.38-6.38 3.38-8.06 0-3.64-2.15-4.21-2.85-4.4-0.52-0.14-0.91-0.2-1.24-0.2-0.47 0-0.86 0.11-1.5 0.32-0.13 0.04-0.3 0.1-0.49 0.18-0.62 0.23-1.39 0.52-1.95 0.52-0.26 0-0.47-0.07-0.62-0.2-0.12-0.1-0.25-0.26-0.31-0.5-0.94 0.59-1.45 0.84-1.9 0.84-0.18 0-0.35-0.04-0.5-0.13-0.23-0.13-0.47-0.2-0.75-0.2" fill="#a20b31"/>
	<path d="m49.63 19.64c0 9.63 1.7 18.48 4.96 21.9 0.92 0.96 1.96 1.49 3.12 1.49 5.29 0 11.36-8.08 13.45-13.2 0.76 3.06 2.33 6.42 3.79 9.05 1.46 2.63 3.52 5.86 4.83 5.38 1.47-0.53 2.47-2.47 2.76-3.49 0.39-1.3-0.19-1.51-2.92-5.89-2.72-4.39-4.35-11.4-4.61-13.6-0.18-1.6-0.77-2.74-2.34-1.3-0.97 0.9-1.94 1.74-2.17 2.8-0.43 1.98-1.67 5.13-3.54 7.98-1.69 2.59-5.89 5.54-7.68 5.54-3.93 0-3.55-17.09-3.55-19.69 0-2.6-0.54-3.48-2.19-3.48-0.76 0-2.42 1.38-3.23 2.23-0.82 0.86-0.69 1.58-0.69 4.27" fill="#a20b31"/>
	<path d="m100.51 75c-5.3 0-8.72-4.65-10.65-8.55-2.2-4.44-3.24-9.75-3.56-12.69-0.12-1.17-0.24-2.47 0.05-3.15 0.45-1.07 5.22-3.72 5.38-3.33 0.17 0.39 0.1 2.58 0.19 3.81 0.35 4.6 1.33 9.29 2.68 12.85 1.48 3.91 3.25 6.07 5.01 6.07 0.89 0 2.28-1.92 3.5-7.3 1.1-4.89 1.74-8.2 1.74-14.49 0-5.53-0.93-13.85-2.09-15.04l-0.13 0.09c-3.74 2.67-8.39 5.98-15.06 5.98-5.09 0-6.9-4.99-6.9-9.66 0-2.88 1.46-6.96 3.72-10.4 2.53-3.86 5.48-6.07 8.09-6.08 2.74 0 6.17 2.11 7.77 4.06 0.95 1.16 1.38 3.46 0.8 4.32-0.59 0.87-2.11 1.63-3.79 1.91-0.17 0.03-0.33 0.04-0.48 0.04-1.11 0-1.68-0.7-2.18-1.32-0.13-0.16-0.25-0.31-0.38-0.45-1.13-1.21-2.14-1.9-2.78-1.9-3.4 0-5.76 4.93-5.76 9.36 0 4.34 4.95 4.46 5 4.46 2.66 0 6.59-1.02 8.95-2.33 2.55-1.41 3.86-2.29 5.19-3.5 0.17-0.15 0.36-0.23 0.57-0.23 1.7 0 3.52 5.42 4.04 7.08 1.4 4.5 1.66 9.56 1.66 13.53 0 4.55-0.59 10.19-2.23 16.18-1.92 6.98-4.8 10.68-8.33 10.68" fill="#a20b31"/>
	<path d="m138.66 33.04c-0.58 0.55-2.32 2.09-4.89 3.35-2.58 1.27-4.35 1.83-8.71 1.42-5.75-0.54-8.64-4.1-8.92-8.37 8.21 0 15.25-3.52 15.25-10.89 0-2.82-2.37-5.52-8.43-5.52-4.87 0-12.75 5.55-12.75 15.84 0 10.29 7.48 13.98 12.35 14.14 7.78 0.25 13.65-3.81 15.26-6.49 0.36-0.6 1.73-4.34 0.83-3.49M121.9 17.48c2.31 0 3.97 1.12 3.97 2.46 0 4.32-4.16 6.59-9.82 6.67 0.21-5.37 3.13-9.13 5.85-9.13" fill="#a20b31"/>
</svg>