<?xml version="1.0" encoding="UTF-8" standalone="no"?>
<!-- Created with Inkscape (http://www.inkscape.org/) -->

<svg
   xmlns:dc="http://purl.org/dc/elements/1.1/"
   xmlns:cc="http://creativecommons.org/ns#"
   xmlns:rdf="http://www.w3.org/1999/02/22-rdf-syntax-ns#"
   xmlns:svg="http://www.w3.org/2000/svg"
   xmlns="http://www.w3.org/2000/svg"
   xmlns:sodipodi="http://sodipodi.sourceforge.net/DTD/sodipodi-0.dtd"
   xmlns:inkscape="http://www.inkscape.org/namespaces/inkscape"
   width="84.666664mm"
   height="24.801731mm"
   viewBox="0 0 299.99999 87.880149"
   id="svg2"
   version="1.1"
   inkscape:version="0.91 r13725"
   sodipodi:docname="sbaair.svg">
  <defs
     id="defs4" />
  <sodipodi:namedview
     id="base"
     pagecolor="#ffffff"
     bordercolor="#666666"
     borderopacity="1.0"
     inkscape:pageopacity="0.0"
     inkscape:pageshadow="2"
     inkscape:zoom="1.24"
     inkscape:cx="211.77181"
     inkscape:cy="151.00386"
     inkscape:document-units="px"
     inkscape:current-layer="layer1"
     showgrid="false"
     fit-margin-top="0"
     fit-margin-left="0"
     fit-margin-right="0"
     fit-margin-bottom="0"
     inkscape:window-width="1280"
     inkscape:window-height="744"
     inkscape:window-x="-4"
     inkscape:window-y="-4"
     inkscape:window-maximized="1" />
  <metadata
     id="metadata7">
    <rdf:RDF>
      <cc:Work
         rdf:about="">
        <dc:format>image/svg+xml</dc:format>
        <dc:type
           rdf:resource="http://purl.org/dc/dcmitype/StillImage" />
        <dc:title></dc:title>
      </cc:Work>
    </rdf:RDF>
  </metadata>
  <g
     inkscape:label="Layer 1"
     inkscape:groupmode="layer"
     id="layer1"
     transform="translate(-259.62437,-548.04354)">
    <path
       inkscape:connector-curvature="0"
       id="path3376"
       style="fill:#e31d1a;fill-opacity:1;fill-rule:evenodd;stroke:none"
       d="m 275.46855,556.16431 31.57689,-0.0106 c -9.81983,8.8096 -15.99788,21.59795 -15.99788,35.82984 0,1.66878 0.0847,3.31922 0.25074,4.94471 l -18.07916,0 c -5.63779,-14.38479 -11.74799,-30.23402 -12.91628,-33.13809 -2.13808,-5.31763 1.02649,-7.62584 6.00061,-7.62584 l 9.16508,0 0,0 z m 95.7933,-0.031 180.96425,-0.0549 c 6.08703,0 8.48909,4.02674 6.94143,7.97557 -0.85174,2.17451 -7.65683,18.31521 -13.84037,32.87424 l -158.29568,0 c 0.16645,-1.62548 0.25145,-3.27593 0.25145,-4.94471 0,-14.24225 -6.18797,-27.03972 -16.02108,-35.8502 l 0,0 z M 543.907,600.27054 c -4.46324,10.49396 -8.31201,19.46983 -8.90611,20.69007 -1.46,3.00023 -3.00057,5.90784 -12.07933,5.90784 l -150.61495,0 c 7.32569,-6.96171 12.46182,-16.20878 14.26447,-26.59791 l 157.33592,0 0,0 z m -237.88286,26.59791 -6.55983,0 c -10.54788,0 -14.22497,-1.71022 -16.27695,-5.39528 -0.84386,-1.51313 -4.49679,-10.62465 -8.65607,-21.20263 l 17.22706,0 c 1.80397,10.38913 6.93886,19.6362 14.26579,26.59791 l 0,0" />
    <path
       inkscape:connector-curvature="0"
       id="path3378"
       style="fill:#e31d1a;fill-opacity:1;fill-rule:nonzero;stroke:none"
       d="m 339.16453,548.04354 c 24.26784,0 43.94026,19.67153 43.94026,43.93999 0,24.26757 -19.67242,43.94016 -43.94025,43.94016 -24.26686,0 -43.93866,-19.67259 -43.93866,-43.94016 0,-24.26846 19.6718,-43.93999 43.93866,-43.93999 l 0,0" />
    <path
       inkscape:connector-curvature="0"
       id="path3380"
       style="fill:#ffffff;fill-opacity:1;fill-rule:evenodd;stroke:none"
       d="m 366.16733,595.94563 c 0,0 -1.86374,-4.03984 -5.56642,-6.11536 -3.70446,-2.07544 -8.75028,-2.23835 -8.75028,-2.23835 0,0 -12.01231,6.27483 -18.24641,12.32725 -6.23295,6.05249 -9.30516,12.64863 -9.30516,12.64863 0,0 -3.43264,-2.62057 -3.38767,-3.88393 0.045,-1.2638 5.9591,-8.71938 11.65117,-13.05432 5.69277,-4.33494 14.27589,-7.90314 14.27589,-7.90314 0,0 -10.4373,0.67759 -21.68269,7.00084 -11.24511,6.32423 -20.50538,16.93754 -20.50538,16.93754 0,0 4.24428,-8.71486 17.97539,-17.38891 13.73041,-8.67334 24.05862,-9.61025 31.55697,-8.85767 11.69684,1.17313 11.98459,10.52742 11.98459,10.52742 l 0,0 z m -14.46368,-14.11908 c 0.65607,-0.38807 -0.46925,-2.13326 -1.88322,-2.20143 -1.41307,-0.0681 -3.26088,0.75541 -3.26088,0.75541 0,0 4.48803,1.83266 5.1441,1.44602 l 0,0 z m 10.43783,-3.57785 c 0.71362,-0.26774 -0.0921,-2.18274 -1.4724,-2.49432 -1.38032,-0.31254 -3.34145,0.17805 -3.34145,0.17805 0,0 4.10023,2.58427 4.81385,2.31627 l 0,0 z m -1.41928,6.557 c 0,0 -0.79596,-1.77804 -2.9687,-3.15552 -2.17274,-1.37864 -4.27819,-2.03197 -4.27819,-2.03197 l -0.34884,-2.68794 c 0,0 -11.75776,-3.27071 -24.70655,0.3275 -12.94878,3.59653 -22.55488,11.49861 -22.55488,11.49861 0,0 8.81057,-10.4697 26.17771,-15.96362 17.36775,-5.49471 31.78716,-0.93585 32.39631,-0.14077 0.60737,0.79508 0.82075,3.01474 1.63619,3.20236 0.81633,0.18672 3.85763,0.46757 5.60893,2.92178 1.75218,2.45278 0.84289,6.12332 0.84289,6.12332 0,0 -2.9687,-1.79919 -6.40489,-1.56536 -3.43619,0.23383 -5.39998,1.47161 -5.39998,1.47161 l 0,0" />
    <path
       inkscape:connector-curvature="0"
       id="path3382"
       style="fill:#ffffff;fill-opacity:1;fill-rule:evenodd;stroke:none"
       d="m 497.63491,618.49812 0.0939,-1.49267 c 0.3329,0.19647 0.71716,0.35309 1.15366,0.46828 0.43561,0.11519 0.80304,0.17362 1.10142,0.17362 0.48696,0 0.91637,-0.10447 1.29001,-0.3144 0.37363,-0.20992 0.56045,-0.53743 0.56045,-0.9826 0,-0.36035 -0.15672,-0.64288 -0.46837,-0.84555 -0.31255,-0.20266 -0.83758,-0.47208 -1.57511,-0.8111 -0.73841,-0.33821 -1.29178,-0.68095 -1.66187,-1.02545 -0.37098,-0.34513 -0.55602,-0.80092 -0.55602,-1.36783 0,-0.90576 0.32405,-1.59716 0.9695,-2.07341 0.64721,-0.47722 1.48125,-0.71628 2.50387,-0.71628 0.63394,0 1.38563,0.11865 2.2542,0.35664 l -0.15495,1.45841 c -0.1939,-0.11342 -0.5029,-0.21887 -0.92523,-0.31714 -0.42144,-0.0975 -0.74903,-0.14698 -0.98189,-0.14698 -0.49847,0 -0.91283,0.0941 -1.2422,0.28324 -0.32936,0.18955 -0.49493,0.46314 -0.49493,0.81836 0,0.40188 0.1514,0.70034 0.4542,0.8961 0.30281,0.19364 0.82607,0.45128 1.56714,0.77188 0.74284,0.31856 1.30152,0.65961 1.67692,1.01997 0.37541,0.36212 0.56311,0.87015 0.56311,1.52277 0,0.61632 -0.15849,1.13516 -0.4728,1.55917 -0.31608,0.4233 -0.73753,0.74009 -1.26433,0.95002 -0.52681,0.20992 -1.09257,0.3144 -1.69375,0.3144 -1.13064,0 -2.02842,-0.16636 -2.69688,-0.49944 l 0,0 z m -12.15106,-5.11479 5.08921,0 c 0,-0.46483 -0.0974,-0.8899 -0.29218,-1.27584 -0.19478,-0.38532 -0.47634,-0.68972 -0.84466,-0.91204 -0.3692,-0.22205 -0.8057,-0.33379 -1.31126,-0.33379 -0.55513,0 -1.0235,0.1221 -1.40333,0.36558 -0.37984,0.24348 -0.66759,0.55717 -0.86414,0.93691 -0.19567,0.37974 -0.32051,0.78613 -0.37364,1.21918 l 0,0 z m 6.26589,3.35757 0,1.67045 -0.55957,0.19125 c -0.21692,0.0726 -0.44535,0.13661 -0.68794,0.19576 -0.24083,0.0567 -0.51353,0.10544 -0.81633,0.14352 -0.30369,0.037 -0.6481,0.0557 -1.03767,0.0557 -1.12976,0 -2.07624,-0.20028 -2.84032,-0.60038 -0.76409,-0.40188 -1.33074,-0.96667 -1.69906,-1.69818 -0.36921,-0.73221 -0.55337,-1.59989 -0.55337,-2.60295 0,-0.88538 0.19124,-1.67523 0.57462,-2.37283 0.38248,-0.69689 0.92434,-1.23955 1.6238,-1.62832 0.69945,-0.3894 1.5025,-0.58418 2.41002,-0.58418 1.04741,0 1.89384,0.21693 2.53929,0.64819 0.64368,0.4326 1.10585,1.03024 1.38297,1.79291 0.27802,0.76401 0.41702,1.65453 0.41702,2.67547 l -7.01935,0 c 0,0.5755 0.14875,1.0954 0.44712,1.5581 0.29749,0.46244 0.69503,0.82173 1.19085,1.07769 0.49582,0.25596 1.02971,0.38426 1.60078,0.38426 0.54009,0 1.11382,-0.10102 1.72296,-0.30369 0.60915,-0.20196 1.04299,-0.40293 1.30418,-0.60277 l 0,0 z m -22.85361,2.04329 0,-9.05936 1.75041,0 0,1.44051 c 0.30634,-0.50741 0.73398,-0.90928 1.32719,-1.20775 0.59321,-0.2974 1.23866,-0.44686 1.93546,-0.44686 1.2422,0 2.16654,0.33548 2.77303,1.00652 0.60472,0.67129 0.90841,1.63274 0.90841,2.8837 l 0,5.38324 -1.81239,0 0,-4.68812 c 0,-0.72248 -0.0655,-1.31489 -0.19478,-1.77804 -0.13104,-0.46199 -0.34885,-0.8134 -0.65519,-1.05343 -0.30546,-0.24003 -0.71628,-0.37452 -1.23069,-0.40294 -0.99517,0 -1.74155,0.33477 -2.2418,1.00403 -0.49847,0.66962 -0.74726,1.57714 -0.74726,2.72531 l 0,4.19319 -1.81239,0 0,0 z m -6.75905,-12.96747 0,1.88313 -2.04347,0 0,-1.88313 2.04347,0 0,0 z m -1.92571,12.96747 0,-9.05936 1.81327,0 0,9.05936 -1.81327,0 0,0 z m -9.33818,0 0,-13.32339 1.81239,0 0,13.32339 -1.81239,0 0,0 z m -10.86281,0 0,-9.05936 1.69374,0 0,1.40421 c 0.28244,-0.47518 0.64279,-0.86325 1.11913,-1.16516 0.47634,-0.30201 0.97127,-0.45315 1.48568,-0.45315 0.35858,0 0.75701,0.0415 1.19705,0.12494 l 0,1.49337 c -0.27979,-0.10721 -0.61446,-0.16122 -1.00403,-0.16122 -0.53301,0 -1.00315,0.14874 -1.40777,0.4465 -0.40551,0.2982 -0.71805,0.72664 -0.93939,1.28629 -0.22135,0.56062 -0.33202,1.21395 -0.33202,1.96308 l 0,4.1205 -1.81239,0 0,0 z m -7.73651,-12.96747 0,1.88313 -2.04348,0 0,-1.88313 2.04348,0 0,0 z m -1.92572,12.96747 0,-9.05936 1.81239,0 0,9.05936 -1.81239,0 0,0 z m -9.71269,-4.58294 -2.38878,-6.14724 -2.38435,6.14724 4.77313,0 0,0 z m -8.34389,4.58294 5.11665,-12.39994 1.80265,0 5.06264,12.39994 -1.86905,0 -1.21918,-3.12621 -5.87189,0 -1.22006,3.12621 -1.80176,0 0,0" />
    <path
       inkscape:connector-curvature="0"
       id="path3384"
       style="fill:#ffffff;fill-opacity:1;fill-rule:evenodd;stroke:none"
       d="m 437.13641,571.59307 0,-8.42977 -25.79575,0 c -8.87423,0 -14.35389,5.39112 -15.50666,8.97162 -1.15278,3.58051 -0.83847,9.26478 -0.83847,9.26478 l 29.13897,0 c 0,0 0.0629,1.6238 -1.50869,1.6238 l -27.63028,0 0,7.78972 25.48233,0 c 7.67984,0 12.12272,-3.029 13.99708,-4.89805 1.87613,-1.86825 2.65705,-3.58059 2.65705,-4.17026 l 0,-8.23321 -29.18679,0 c 0,0 0.7756,-1.82036 2.50476,-1.82036 1.72916,0 26.68645,-0.0983 26.68645,-0.0983 l 0,0 z m 14.58675,0.10359 19.80257,0 c 0.66138,0 1.19704,0.41082 1.19704,0.91814 0,0.50733 -0.53566,0.91815 -1.19704,0.91815 l -15.71208,0 0,7.8146 15.71208,0 c 0.66138,0 1.19704,0.41153 1.19704,0.91788 0,0.50662 -0.53566,0.91824 -1.19704,0.91824 l -19.80257,0 0,-11.48701 z m -9.45416,-8.54222 34.85237,0 c 4.47918,0 8.11103,3.03776 8.11103,6.78561 0,3.1626 -2.5871,5.82053 -6.08703,6.57311 3.49993,0.80995 6.08703,3.67161 6.08703,7.07858 0,4.03648 -3.63185,7.3079 -8.11103,7.3079 l -34.85237,0 0,-27.7452 z m 57.89368,13.31622 c 0.34354,-2.80667 2.88371,-4.98738 5.96663,-4.98738 l 15.27115,0 0,4.98738 -21.23778,0 0,0 z m -12.34849,0.97109 c 0,-7.90721 6.82811,-14.31653 15.25079,-14.31653 l 28.28989,0 0,27.93733 -9.81894,0 0,-6.66838 -21.51668,0 0,6.66838 -12.20506,0 0,-13.6208" />
    <path
       inkscape:connector-curvature="0"
       id="path3386"
       style="fill:none;stroke:#ffffff;stroke-width:6.07021284;stroke-linecap:round;stroke-linejoin:round;stroke-miterlimit:3.8636899;stroke-dasharray:none;stroke-opacity:1"
       d="m 437.13641,571.59307 0,-8.42977 -25.79575,0 c -8.87423,0 -14.35389,5.39112 -15.50666,8.97162 -1.15278,3.58051 -0.83847,9.26478 -0.83847,9.26478 l 29.13897,0 c 0,0 0.0629,1.6238 -1.50869,1.6238 l -27.63028,0 0,7.78972 25.48233,0 c 7.67984,0 12.12272,-3.029 13.99708,-4.89805 1.87613,-1.86825 2.65705,-3.58059 2.65705,-4.17026 l 0,-8.23321 -29.18679,0 c 0,0 0.7756,-1.82036 2.50476,-1.82036 1.72916,0 26.68645,-0.0983 26.68645,-0.0983 l 0,0 z m 14.58675,0.10359 19.80257,0 c 0.66138,0 1.19704,0.41082 1.19704,0.91814 0,0.50733 -0.53566,0.91815 -1.19704,0.91815 l -15.71208,0 0,7.8146 15.71208,0 c 0.66138,0 1.19704,0.41153 1.19704,0.91788 0,0.50662 -0.53566,0.91824 -1.19704,0.91824 l -19.80257,0 0,-11.48701 z m -9.45416,-8.54222 34.85237,0 c 4.47918,0 8.11103,3.03776 8.11103,6.78561 0,3.1626 -2.5871,5.82053 -6.08703,6.57311 3.49993,0.80995 6.08703,3.67161 6.08703,7.07858 0,4.03648 -3.63185,7.3079 -8.11103,7.3079 l -34.85237,0 0,-27.7452 z m 57.89368,13.31622 c 0.34354,-2.80667 2.88371,-4.98738 5.96663,-4.98738 l 15.27115,0 0,4.98738 -21.23778,0 0,0 z m -12.34849,0.97109 c 0,-7.90721 6.82811,-14.31653 15.25079,-14.31653 l 28.28989,0 0,27.93733 -9.81894,0 0,-6.66838 -21.51668,0 0,6.66838 -12.20506,0 0,-13.6208 z" />
    <path
       inkscape:connector-curvature="0"
       id="path3388"
       style="fill:#231f20;fill-opacity:1;fill-rule:evenodd;stroke:none"
       d="m 437.13641,571.59307 0,-8.42977 -25.79575,0 c -8.87423,0 -14.35389,5.39112 -15.50666,8.97162 -1.15278,3.58051 -0.83847,9.26478 -0.83847,9.26478 l 29.13897,0 c 0,0 0.0629,1.6238 -1.50869,1.6238 l -27.63028,0 0,7.78972 25.48233,0 c 7.67984,0 12.12272,-3.029 13.99708,-4.89805 1.87613,-1.86825 2.65705,-3.58059 2.65705,-4.17026 l 0,-8.23321 -29.18679,0 c 0,0 0.7756,-1.82036 2.50476,-1.82036 1.72916,0 26.68645,-0.0983 26.68645,-0.0983 l 0,0 z m 14.58675,0.10359 19.80257,0 c 0.66138,0 1.19704,0.41082 1.19704,0.91814 0,0.50733 -0.53566,0.91815 -1.19704,0.91815 l -15.71208,0 0,7.8146 15.71208,0 c 0.66138,0 1.19704,0.41153 1.19704,0.91788 0,0.50662 -0.53566,0.91824 -1.19704,0.91824 l -19.80257,0 0,-11.48701 z m -9.45416,-8.54222 34.85237,0 c 4.47918,0 8.11103,3.03776 8.11103,6.78561 0,3.1626 -2.5871,5.82053 -6.08703,6.57311 3.49993,0.80995 6.08703,3.67161 6.08703,7.07858 0,4.03648 -3.63185,7.3079 -8.11103,7.3079 l -34.85237,0 0,-27.7452 z m 57.89368,13.31622 c 0.34354,-2.80667 2.88371,-4.98738 5.96663,-4.98738 l 15.27115,0 0,4.98738 -21.23778,0 0,0 z m -12.34849,0.97109 c 0,-7.90721 6.82811,-14.31653 15.25079,-14.31653 l 28.28989,0 0,27.93733 -9.81894,0 0,-6.66838 -21.51668,0 0,6.66838 -12.20506,0 0,-13.6208" />
    <path
       inkscape:connector-curvature="0"
       id="path3390"
       style="fill:#ffffff;fill-opacity:1;fill-rule:nonzero;stroke:none"
       d="m 452.59615,572.75381 2.14441,0 0,9.50189 -2.14441,0 0,-9.50189" />
    <path
       inkscape:connector-curvature="0"
       id="path3392"
       style="fill:none;stroke:#ffffff;stroke-width:0.14396393;stroke-linecap:butt;stroke-linejoin:miter;stroke-miterlimit:3.8636899;stroke-dasharray:none;stroke-opacity:1"
       d="m 452.59615,572.75381 2.14441,0 0,9.50189 -2.14441,0 0,-9.50189 z" />
    <path
       inkscape:connector-curvature="0"
       id="path3394"
       style="fill:#ffffff;fill-opacity:1;fill-rule:nonzero;stroke:none"
       d="m 500.16268,576.47066 c 0.34354,-2.80667 2.88371,-4.98738 5.96663,-4.98738 l 15.27115,0 0,4.98738 -21.23778,0 0,0" />
  </g>
</svg>
