<?xml version="1.0" encoding="utf-8"?>
<!-- Generator: Adobe Illustrator 22.1.0, SVG Export Plug-In . SVG Version: 6.00 Build 0)  -->
<svg version="1.1" id="layer" xmlns="http://www.w3.org/2000/svg" xmlns:xlink="http://www.w3.org/1999/xlink" x="0px" y="0px"
	 width="600px" height="55.5px" viewBox="0 0 600 55.5" enable-background="new 0 0 600 55.5" xml:space="preserve">
<g>
	<g>
		<path fill="#008FC5" d="M565.7,55.3h-0.9c-3.4,0-9-1.8-9-10V29.8c0-0.6,0.4-1.2,1.1-1.2h0.5c0.7,0,1.1,0.6,1.1,1.2v15.5
			c0,5.9,3.1,7.4,6.2,7.4h0.9c3.1,0,6.2-1.4,6.2-7.4V29.8c0-0.6,0.4-1.2,1.2-1.2h0.5c0.7,0,1.1,0.6,1.1,1.2v15.5
			C574.7,53.5,569,55.3,565.7,55.3 M547.9,40.1c0-5.8-2.1-9.3-7.5-9.3s-7.5,3.5-7.5,9.3v3.4c0,5.8,2.1,9.3,7.5,9.3s7.5-3.5,7.5-9.3
			V40.1z M540.4,55.3c-6.8,0-10.2-4.4-10.2-11.8v-3.4c0-7.4,3.4-11.8,10.2-11.8s10.2,4.4,10.2,11.8v3.4
			C550.6,50.9,547.2,55.3,540.4,55.3 M530.6,20.3l-9.8,19.4V54c0,0.6-0.4,1.2-1.1,1.2h-0.5c-0.7,0-1.1-0.6-1.1-1.2V39.7l-9.8-19.4
			c-0.2-0.3-0.2-0.5-0.2-0.8c0-0.7,0.6-1,1.2-1h0.5c0.3,0,0.6,0.1,0.7,0.3c0.1,0.1,0.1,0.2,0.2,0.3l0.1,0.2l8.6,17.3l8.6-17.3
			l0.1-0.2c0-0.1,0.1-0.2,0.2-0.3c0.2-0.2,0.4-0.3,0.7-0.3h0.5c0.6,0,1.2,0.3,1.2,1C530.9,19.8,530.8,20,530.6,20.3 M490.1,31.4
			c-1.8-0.3-4.6-0.6-6.3-0.6c-5,0-7,3-7,9.3v3.2c0,6.1,1.9,9.5,7,9.5c2.2,0,4.6-0.3,6.3-0.6V31.4z M491.9,54.4
			c-2.1,0.4-5.4,0.9-8.1,0.9c-6.9,0-9.7-5-9.7-12v-3.2c0-7.7,3.3-11.8,9.7-11.8c1.8,0,4.4,0.3,6.3,0.6v-9.2c0-0.6,0.4-1.2,1.1-1.2
			h0.5c0.7,0,1.1,0.6,1.1,1.2v33.4C492.8,53.9,492.6,54.2,491.9,54.4 M467.7,55.3h-0.5c-0.7,0-1.2-0.6-1.2-1.2V37.5
			c0-5.8-2.6-6.5-5.7-6.5h-1.9c-3.1,0-5.7,0.7-5.7,6.5v16.6c0,0.6-0.4,1.2-1.1,1.2h-0.5c-0.7,0-1.2-0.6-1.2-1.2V37.5
			c0-8.3,5.1-9.2,8.4-9.2h2.1c3.4,0,8.4,0.8,8.4,9.2v16.6C468.9,54.7,468.4,55.3,467.7,55.3 M441.3,41.5h-3.4
			c-7.3,0-9.4,1.4-9.4,5.1v0.6c0,3.7,1.1,5.5,7.2,5.5c2.2,0,4.4-0.3,5.5-0.5V41.5H441.3z M443.1,54.3c-2.3,0.6-4.9,1-7.3,1
			c-7.4,0-10-2.6-10-8.1v-0.6c0-5.3,3.4-7.7,12.2-7.7h3.4v-1.4c0-4.9-1.3-6.6-5.7-6.6c-3.2,0-4.5,0.2-6.8,0.4
			c-0.6,0-1.5-0.1-1.5-1.1v-0.3c0-0.8,0.6-1.1,1.4-1.2c2-0.2,3.7-0.4,6.9-0.4c6.7,0,8.5,3.9,8.5,9.2V53
			C444.1,53.6,443.9,54.1,443.1,54.3 M410.5,54.9c-2,0.2-4.3,0.4-5.9,0.4c-7.1,0-9.8-5.6-9.8-12v-3.2c0-6.5,2.7-11.8,9.8-11.8
			c1.5,0,3.8,0.2,5.9,0.4c0.8,0.1,1.2,0.5,1.2,1.2v0.3c0,0.7-0.6,1-1.1,1h-0.2c-2.3-0.3-4.1-0.4-5.7-0.4c-5.2,0-7.1,3.5-7.1,9.3v3.2
			c0,5.8,1.9,9.4,7.1,9.4c1.6,0,3.4-0.1,5.7-0.4h0.2c0.6,0,1.1,0.3,1.1,1v0.3C411.7,54.4,411.4,54.7,410.5,54.9 M387.8,55.3h-0.3
			c-0.7,0-1.2-0.6-1.2-1.2V29.8c0-0.7,0.6-1.2,1.2-1.2h0.3c0.7,0,1.2,0.6,1.2,1.2v24.3C389,54.7,388.5,55.3,387.8,55.3 M387.8,24.6
			h-0.3c-0.7,0-1.2-0.5-1.2-1.2v-3.6c0-0.7,0.6-1.2,1.2-1.2h0.3c0.7,0,1.2,0.6,1.2,1.2v3.6C389,24.1,388.4,24.6,387.8,24.6
			 M380.3,55.1c-0.6,0.1-2.2,0.1-3.7,0.1c-4.4,0-6.9-1.5-6.9-6.5V23.4c0-0.7,0.5-1.2,1.2-1.2h0.4c0.7,0,1.2,0.6,1.2,1.2v5.1h7.7
			c0.6,0,1.2,0.4,1.2,1.1V30c0,0.7-0.6,1.1-1.2,1.1h-7.7v17.6c0,3.5,1,3.9,4.1,3.9h3.7c0.8,0,1.3,0.2,1.3,1v0.3
			C381.6,54.7,381.3,55,380.3,55.1 M362.8,55.3h-0.5c-0.7,0-1.1-0.6-1.1-1.2V37.5c0-5.8-2.6-6.5-5.7-6.5h-2.1
			c-3.1,0-5.7,0.7-5.7,6.5v16.6c0,0.6-0.4,1.2-1.1,1.2h-0.5c-0.7,0-1.1-0.6-1.1-1.2V37.5c0-8.3,5-9.2,8.4-9.2h2.1
			c3.4,0,8.4,0.8,8.4,9.2v16.6C363.9,54.7,363.5,55.3,362.8,55.3 M336.4,41.5H333c-7.3,0-9.4,1.4-9.4,5.1v0.6c0,3.7,1.1,5.5,7.2,5.5
			c2.2,0,4.4-0.3,5.5-0.5V41.5H336.4z M338.2,54.3c-2.3,0.6-4.9,1-7.3,1c-7.4,0-10-2.6-10-8.1v-0.6c0-5.3,3.4-7.7,12.2-7.7h3.4v-1.4
			c0-4.9-1.3-6.6-5.7-6.6c-3.2,0-4.5,0.2-6.8,0.4c-0.6,0-1.5-0.1-1.5-1.1v-0.3c0-0.8,0.6-1.1,1.4-1.2c2-0.2,3.7-0.4,6.9-0.4
			c6.7,0,8.5,3.9,8.5,9.2V53C339.2,53.6,338.9,54.1,338.2,54.3 M314.1,55.3h-0.5c-0.7,0-1.1-0.6-1.1-1.2V19.8c0-0.6,0.4-1.2,1.1-1.2
			h0.5c0.7,0,1.1,0.6,1.1,1.2v34.3C315.2,54.7,314.8,55.3,314.1,55.3 M306.6,55.1c-0.6,0.1-2.2,0.1-3.7,0.1c-4.4,0-6.9-1.5-6.9-6.5
			V23.4c0-0.7,0.5-1.2,1.2-1.2h0.4c0.7,0,1.2,0.6,1.2,1.2v5.1h7.7c0.6,0,1.2,0.4,1.2,1.1V30c0,0.7-0.6,1.1-1.2,1.1h-7.7v17.6
			c0,3.5,1,3.9,4.1,3.9h3.7c0.7,0,1.3,0.2,1.3,1v0.3C307.8,54.7,307.5,55,306.6,55.1 M264.8,53.8c0-0.1,0-0.2,0.1-0.2l9.8-32.4
			c0.5-1.8,1.8-2.6,3.5-2.6s3,0.8,3.5,2.6l9.8,32.4c0,0.1,0.1,0.2,0.1,0.3c0,0.9-0.4,1.5-1.2,1.5h-0.5c-0.6,0-1-0.4-1.1-1l-3.6-11.7
			h-13.9l-3.6,11.7c-0.1,0.5-0.6,1-1.1,1h-0.5c-0.8,0-1.2-0.6-1.2-1.3L264.8,53.8z M278.9,22c-0.2-0.6-0.4-0.7-0.7-0.7
			s-0.5,0.1-0.7,0.7l-5.4,17.8h12.3L278.9,22z M232.1,40h14.4c0-5.9-2-9.2-7.1-9.2S232.1,34.4,232.1,40 M248,42.6h-15.9v0.7
			c0,7.9,3.7,9.5,8.4,9.5c2.1,0,4.7-0.3,7-0.8c0.2,0,0.3-0.1,0.4-0.1c0.5,0,1,0.3,1,1v0.3c0,0.7-0.3,1.1-1.2,1.2
			c-2.3,0.5-5.1,0.8-7.3,0.8c-6.1,0-11.1-2.7-11.1-12V40c0-6.7,3.4-11.8,10-11.8c6.9,0,9.9,4.8,9.9,11.8v1.3
			C249.3,42.1,248.7,42.6,248,42.6 M223.1,55.3h-0.5c-0.7,0-1.1-0.7-1.1-1.2V37.9c0-4.6-1.8-7-6.8-7c-2,0-4.4,0.3-6.2,0.8v22.4
			c0,0.6-0.4,1.2-1.1,1.2h-0.5c-0.7,0-1.1-0.6-1.1-1.2V19.8c0-0.6,0.4-1.2,1.1-1.2h0.5c0.7,0,1.1,0.6,1.1,1.2v9.3
			c1.8-0.4,4.2-0.8,6.2-0.8c6.9,0,9.5,4,9.5,9.6v16.2C224.2,54.6,223.9,55.3,223.1,55.3 M200.5,21.2h-9.9v32.9
			c0,0.6-0.4,1.2-1.1,1.2H189c-0.7,0-1.1-0.6-1.1-1.2V21.2h-10c-0.6,0-1.2-0.3-1.2-1.1v-0.4c0-0.7,0.6-1.1,1.2-1.1h22.7
			c0.7,0,1.2,0.5,1.2,1.1v0.4C201.7,20.9,201.1,21.2,200.5,21.2 M599.4,31.8h-0.6c-0.4,0-0.6-0.3-0.6-0.6v-7.9c0-2.5-0.2-3-3.3-3.1
			v10.9c0,0.3-0.2,0.6-0.6,0.6h-0.6c-0.4,0-0.6-0.3-0.6-0.6V20.2c-1.3,0-2.4,0.1-3.3,0.2v10.7c0,0.3-0.2,0.6-0.6,0.6h-0.6
			c-0.4,0-0.6-0.3-0.6-0.6V19.4c0-0.4,0.3-0.6,0.5-0.6c1.3-0.2,3.5-0.3,5.5-0.3c4,0,6,0.5,6,4.8v7.9C600,31.5,599.8,31.8,599.4,31.8
			 M586.5,20.3h-3v10.6c0,0.4-0.3,0.9-0.9,0.9c-0.7,0-1-0.5-1-0.9V20.3h-3c-0.3,0-0.9-0.2-0.9-0.8c0-0.7,0.4-1,0.9-1h7.8
			c0.4,0,0.9,0.3,0.9,0.8C587.4,20.1,586.8,20.3,586.5,20.3"/>
	</g>
	<polygon fill="#008FC5" points="138.9,8.3 149.1,18.5 143,40 135.2,32.3 130.6,13.9 	"/>
	<polygon fill="#008FC5" points="156,34.7 167.6,34.7 158.3,43.2 143,40 	"/>
	<polygon fill="#003568" points="158.3,43.2 144.5,46.9 128.3,55.5 143,40 	"/>
	<polygon fill="#62CAE3" points="135.2,48.2 121.4,50.9 128.3,55.5 	"/>
	<polygon fill="#003568" points="156,34.7 167.6,34.7 161.7,32.4 	"/>
	<polygon fill="#003568" points="165.5,36.5 167.6,38.6 167.6,34.7 	"/>
	<polygon fill="#62CAE3" points="156,34.7 149.1,18.5 143,40 	"/>
	<polygon fill="#003568" points="130.6,13.9 132.9,2.4 123.7,0 	"/>
	<polygon fill="#62CAE3" points="138.9,8.3 132.9,2.4 130.6,13.9 	"/>
	<g>
		<path fill="#003568" d="M79.6,18.4c0.4,0,0.7,0.3,0.7,0.7v4.3c0,0.4-0.3,0.7-0.7,0.7h-8.3v21.8c0,2.7,0.7,3.7,3.9,3.7h4
			c0.6,0,1.2,0.5,1.2,1.1v3.4c0,0.7-0.6,1.1-1.2,1.1H75c-6.3,0-9.8-2.7-9.8-9.2V11c0-0.7,0.5-1.1,1.2-1.1h2.7c0.7,0,1.1,0.6,1.1,1
			l1,6l-3.6,0.5c-0.3,0-0.5,0.3-0.4,0.6c0,0.3,0.3,0.4,0.6,0.4H79.6z M54.1,29.1c-0.3-3.5-2.3-5-5.8-5.1H33.8
			c-0.4,0-0.7-0.3-0.7-0.7V19c0-0.4,0.3-0.7,0.7-0.7h14.5c8,0,12,4.5,12,11.4v16.2c0,6.4-3.5,9.2-9.8,9.2h-8.7
			c-6.9,0-11.2-3.6-11.2-9.6c0-7.4,6.7-12.4,23.5-15l3.8-0.5c0.3,0,0.5-0.3,0.4-0.6c0-0.3-0.3-0.4-0.6-0.4h-3.6V29.1z M42.1,49.6
			h8.2c3.1,0,3.8-1.1,3.8-3.8V36c-15.1,2.5-17.2,6.4-17.2,9.5C36.9,48.1,38.5,49.6,42.1,49.6 M105.9,29.1c-0.3-3.5-2.3-5-5.8-5.1
			H85.6c-0.4,0-0.7-0.3-0.7-0.7V19c0-0.4,0.3-0.7,0.7-0.7h14.5c8,0,12,4.5,12,11.4v16.2c0,6.4-3.5,9.2-9.8,9.2h-8.7
			c-6.9,0-11.2-3.6-11.2-9.6c0-7.4,6.7-12.4,23.5-15l3.8-0.5c0.3,0,0.5-0.3,0.4-0.6c0-0.3-0.3-0.4-0.6-0.4h-3.6V29.1z M93.9,49.6
			h8.2c3.1,0,3.8-1.1,3.8-3.8V36c-15.1,2.5-17.2,6.4-17.2,9.5C88.7,48.1,90.3,49.6,93.9,49.6 M0,28.1c0-5.3,5-9.6,11.1-9.6h14.4
			c0.4,0,0.7,0.3,0.7,0.7v4.3c0,0.4-0.3,0.7-0.7,0.7H10.8c-2.5,0-4.6,1.5-4.6,3.7c0,2.3,1,3.4,7.5,5.1c8.9,2.4,14.2,4.7,14.2,11.7
			c0,5.9-5.5,10.6-12.3,10.6H1.7C1.3,55.3,1,55,1,54.6v-4.3c0-0.4,0.3-0.7,0.7-0.7h14.2c3.1,0,5.7-2,5.7-4.7c0-3-2.5-4.4-8.9-6.2
			C5.5,36.8,0,34.7,0,28.1"/>
	</g>
</g>
</svg>
