<?xml version="1.0" encoding="UTF-8"?>
<svg width="80px" height="23px" viewBox="0 0 80 23" version="1.1" xmlns="http://www.w3.org/2000/svg" xmlns:xlink="http://www.w3.org/1999/xlink">
    <!-- Generator: Sketch 49.1 (51147) - http://www.bohemiancoding.com/sketch -->
    <title>Aeroflot_s</title>
    <desc>Created with Sketch.</desc>
    <defs>
        <linearGradient x1="64.6558043%" y1="67.4881989%" x2="39.4863795%" y2="35.2235019%" id="linearGradient-1">
            <stop stop-color="#9D362F" offset="0%"></stop>
            <stop stop-color="#D3A994" offset="49.2625957%"></stop>
            <stop stop-color="#992A2E" offset="100%"></stop>
        </linearGradient>
        <linearGradient x1="150.608936%" y1="82.1580056%" x2="64.2801579%" y2="0%" id="linearGradient-2">
            <stop stop-color="#FFFFFF" offset="0%"></stop>
            <stop stop-color="#DFDFDF" offset="49.9304252%"></stop>
            <stop stop-color="#FFFFFF" offset="100%"></stop>
        </linearGradient>
        <linearGradient x1="94.5117969%" y1="35.3514016%" x2="25.6104026%" y2="35.3514016%" id="linearGradient-3">
            <stop stop-color="#324C84" offset="0%"></stop>
            <stop stop-color="#6E7DA7" offset="49.2625957%"></stop>
            <stop stop-color="#345087" offset="100%"></stop>
        </linearGradient>
        <linearGradient x1="64.6558043%" y1="67.4881989%" x2="18.253143%" y2="50%" id="linearGradient-4">
            <stop stop-color="#B26757" offset="0%"></stop>
            <stop stop-color="#9A2D2F" offset="100%"></stop>
        </linearGradient>
        <linearGradient x1="64.6558043%" y1="67.4881989%" x2="39.4863795%" y2="35.2235019%" id="linearGradient-5">
            <stop stop-color="#8398B7" offset="0%"></stop>
            <stop stop-color="#324D85" offset="49.2625957%"></stop>
            <stop stop-color="#7381AA" offset="100%"></stop>
        </linearGradient>
        <linearGradient x1="64.6558043%" y1="67.4881989%" x2="39.4863795%" y2="35.2235019%" id="linearGradient-6">
            <stop stop-color="#B26757" offset="0%"></stop>
            <stop stop-color="#992A2F" offset="49.2625957%"></stop>
            <stop stop-color="#B06455" offset="100%"></stop>
        </linearGradient>
        <linearGradient x1="65.3824806%" y1="68.4197256%" x2="39.4863795%" y2="35.2235019%" id="linearGradient-7">
            <stop stop-color="#FFFFFF" offset="0%"></stop>
            <stop stop-color="#DFDFDF" offset="49.2625957%"></stop>
            <stop stop-color="#FFFFFF" offset="100%"></stop>
        </linearGradient>
    </defs>
    <g id="AVIA" stroke="none" stroke-width="1" fill="none" fill-rule="evenodd">
        <g id="Aeroflot_s">
            <path d="M4.79246735,15.3252286 C4.76305155,15.2586929 4.74105842,15.1910619 4.71796564,15.1223357 L1.18696907,15.3252286 L1.90064605,15.6688595 L4.79246735,15.3252286 Z M5.27384192,15.945681 C5.24360137,15.92405 5.21253608,15.8944786 5.18394502,15.870931 C5.12373883,15.8189071 5.07013058,15.7657881 5.03494158,15.7137643 L3.26889347,16.0456214 L4.02050859,16.2969786 L5.27384192,15.945681 Z M6.66958076,15.8041214 C6.75452921,15.7893357 6.88098969,15.7436095 6.97913402,15.6688595 L6.46696907,14.65905 L7.00057732,14.4052286 L6.55109278,14.0169667 L6.37074914,14.0985619 L5.59631615,14.4490381 L5.8236701,14.9577762 L6.19013058,14.7945857 L6.66958076,15.8041214 Z M7.54078351,13.69305 C7.73652234,13.9246929 7.88057732,14.21055 7.95590378,14.5393952 L7.63342955,14.5393952 C7.61006186,14.4424667 7.57982131,14.3447167 7.54078351,14.255181 C7.32552577,13.6867524 6.88098969,13.2828833 6.37074914,12.9463714 C6.30284536,12.9074905 6.24236426,12.863681 6.17501031,12.826169 C6.24236426,12.8488952 6.30284536,12.8708 6.37074914,12.8935262 C6.83535395,13.0802643 7.24882474,13.335181 7.54078351,13.69305 Z M7.54078351,16.7545143 L7.64057732,16.9344071 L7.54078351,16.9798595 L7.27906529,17.0997881 L6.97913402,16.5078119 C6.79109278,16.5735262 6.58243299,16.6110381 6.37074914,16.6189786 C6.14504467,16.6271929 5.91109278,16.595431 5.7084811,16.5294429 L5.45446048,17.0997881 C5.3708866,17.1060857 5.25844674,17.0997881 5.18394502,17.0461214 C5.14545704,17.0231214 5.10779381,16.986431 5.09294845,16.934681 L5.18394502,16.7838119 L5.40167698,16.3952762 C5.33322337,16.34955 5.27384192,16.3197048 5.21253608,16.2602881 L5.39370447,16.043431 C5.70298282,16.2309905 6.04002749,16.3344905 6.37102405,16.3344905 C6.70202062,16.342431 7.03109278,16.2372881 7.33899656,16.0207048 L7.54078351,16.0803952 L7.62518213,16.1113357 C7.59521649,16.1329667 7.57212371,16.15405 7.54078351,16.1778714 C7.48167698,16.2372881 7.4294433,16.2969786 7.33294845,16.34955 L7.54078351,16.7545143 Z M11.7563162,15.2266571 L12.6882749,14.637419 L7.64057732,14.637419 C7.64057732,14.847431 7.61006186,15.0275976 7.54078351,15.1828476 C7.34724399,15.6836452 6.85954639,15.92405 6.37074914,15.9166571 C5.89102405,15.9026929 5.40167698,15.6554429 5.18394502,15.1984548 C5.10779381,15.0322524 5.06353265,14.855919 5.06353265,14.637419 L-0.000109965636,14.637419 L0.923876289,15.2266571 L4.79246735,15.0273238 C4.86724399,15.3025024 5.00442612,15.5426333 5.18394502,15.7197881 C5.49267354,16.0431571 5.93418557,16.2214071 6.37074914,16.2214071 C6.79934021,16.2304429 7.23397938,16.07355 7.54078351,15.7288238 C7.70738144,15.5497524 7.83466667,15.3175619 7.91054296,15.0388238 L11.7563162,15.2266571 Z M11.5011959,15.3252286 L10.7864192,15.655169 L7.93253608,15.3252286 C7.95590378,15.2586929 7.97844674,15.1910619 7.99961512,15.1223357 L11.5011959,15.3252286 Z M9.43604124,16.0508238 L8.65308591,16.3120381 L7.54078351,15.9758 L7.44428866,15.945681 C7.48140206,15.9166571 7.51191753,15.8873595 7.54078351,15.847931 C7.58779381,15.8115143 7.62518213,15.7583952 7.66916838,15.7200619 L9.43604124,16.0508238 Z M9.81047423,16.0078357 L10.4339794,15.7200619 L7.86545704,15.4150381 C7.84291409,15.497181 7.77501031,15.5628952 7.72854983,15.6324429 L9.81047423,16.0078357 Z M2.87714089,16.0078357 L2.2547354,15.7364905 L4.83755326,15.4229786 C4.88346392,15.497181 4.928,15.5628952 4.98050859,15.6324429 L2.87714089,16.0078357 Z" id="Fill-1" fill="#00529B"></path>
            <path d="M26.977567,21.0920679 C28.1421031,21.2749726 30.3730309,21.5616512 33.1051271,21.6213417 C35.8317251,21.689794 39.0372234,21.5309845 42.0662268,21.080294 C45.0957801,20.6421988 47.934543,19.9070202 49.9507629,19.1135202 C51.9826529,18.3512345 53.1185979,17.4224726 53.1134468,17.4189131 C53.1240962,17.4241155 51.9405911,18.498544 49.7885636,19.4207345 C47.6585292,20.3785202 44.6517938,21.2966036 41.4847835,21.889675 C38.321622,22.4997226 35.0036838,22.7779131 32.3045773,22.7946155 C29.6062955,22.8258298 27.5098007,22.5832345 26.7752302,22.4685083 C24.2363986,22.0917464 22.392,21.4269369 21.2665017,20.7864964 C20.1302818,20.1411274 19.7517251,19.5581869 19.8699381,19.4448298 C19.9958488,19.3103893 20.561622,19.582556 21.7074639,19.9354964 C22.8544055,20.2936393 24.6003849,20.7402226 26.977567,21.0920679" id="Fill-4" fill="#F47920"></path>
            <path d="M75.0779931,2.27543929 L75.0796426,2.27543929 L75.0779931,2.27543929 Z M70.5639038,4.95274881 C70.4569622,5.08992738 69.6195739,6.18352262 69.6195739,6.18352262 C69.6195739,6.18352262 69.2753814,6.63120119 69.2253471,6.69636786 C66.3247285,7.02904643 63.2624605,8.53308214 59.9184055,11.2528321 C62.0313952,8.99226071 65.1634914,5.92586786 70.5639038,4.95274881 Z M75.5079588,2.22149881 C76.6645223,2.07993929 77.9483711,1.87512976 79.187134,0.977855952 C78.7398488,1.57914167 78.1905704,2.31815357 78.1905704,2.31815357 C77.1343505,3.76304643 76.406378,3.9604631 75.4925636,4.08203452 C75.4925636,4.08285595 73.8678213,4.19484405 73.8678213,4.19484405 L72.4605361,4.285475 C71.8658969,4.35228452 71.433732,4.4782369 71.0535258,4.66661786 C71.5830103,4.00345119 72.284866,3.20912976 72.8990241,2.81895119 C73.542323,2.40960595 74.2925636,2.34662976 74.7890584,2.30391548 L75.078543,2.27516548 C75.078543,2.27543929 75.5079588,2.22149881 75.5079588,2.22149881 Z M75.4790928,1.98958214 L75.0469278,2.04434405 L74.7692646,2.07062976 C74.2494021,2.11553452 73.4645223,2.18207024 72.7717388,2.62180833 C72.0844536,3.05826071 71.2973746,3.97032024 70.7469966,4.67209405 C64.7810859,5.66739167 61.5098832,9.18776071 59.3454845,11.5206179 L57.9887835,13.0974869 L58.2164124,13.0273917 C62.2821168,9.2907131 65.9082337,7.29245119 69.3031478,6.91870119 L69.353732,6.913225 L69.8056907,6.32562976 L70.7571684,5.08280833 C71.148646,4.73205833 71.6899519,4.60802262 72.4866529,4.51739167 L73.8774433,4.42867738 L75.5236289,4.31367738 C76.4638351,4.18827262 77.2715326,3.97251071 78.3797113,2.45587976 L79.8895395,0.426403571 L79.7122199,0.273617857 C78.3274777,1.640475 76.8143505,1.82584405 75.4790928,1.98958214 Z" id="Fill-7" fill="#000000"></path>
            <path d="M58.1396289,12.9462345 C62.4538557,9.80536548 64.7735808,8.55871071 69.8985292,8.51298452 L68.7947491,9.99621071 C68.5863643,10.4362226 68.2641649,10.4162345 67.924921,10.3959726 C64.260866,10.366675 61.7016907,10.6388417 57.2511065,13.8580202 L58.1396289,12.9462345 Z" id="Fill-10" fill="url(#linearGradient-1)"></path>
            <path d="M58.1369347,12.941169 C62.4786529,8.95121667 66.1036701,7.15393095 69.2907491,6.80318095 C69.572811,6.43134762 70.5462818,5.1857881 70.8409897,4.77096667 C63.5755601,5.95272857 60.3642887,10.8498119 58.1369347,12.941169" id="Fill-12" fill="url(#linearGradient-2)"></path>
            <path d="M58.3597801,12.7128119 C58.2740069,12.7949548 57.9743505,13.116681 57.8877526,13.1933476 C60.4362062,11.3221333 62.5698144,9.37425238 67.8841787,8.65413333 C68.148646,8.35540714 68.9219794,7.34285952 69.2859656,6.80290714 C64.4417045,7.45922857 61.2727698,10.1529667 58.3597801,12.7128119" id="Fill-14" fill="url(#linearGradient-3)"></path>
            <path d="M68.6980619,10.1672321 C68.7447973,10.0037679 68.8591615,9.88219643 68.3206048,9.56594643 C67.6869278,9.1941131 67.4678213,9.35045833 67.6080275,8.97232738 C67.7122199,8.685375 69.0733196,8.11420833 70.0668591,8.44935119 C70.067134,8.449625 69.1854845,9.46655357 68.6980619,10.1672321" id="Fill-16" fill="url(#linearGradient-4)"></path>
            <path d="M72.5146392,4.303875 C71.5213746,4.43639881 70.8940206,4.68310119 70.4962199,5.18280357 L69.1081787,7.03402976 C69.411134,6.76460119 70.3254983,6.63207738 71.3168385,6.6066131 L71.4551203,6.60935119 C71.4966323,6.6066131 71.5395189,6.60935119 71.5813058,6.6066131 C71.7209622,6.60305357 71.8696907,6.59648214 72.0244674,6.59264881 C73.4295533,6.5378869 75.3808935,6.34047024 76.5201375,5.01824405 L78.227079,2.66731548 L78.4310653,2.38748214 C76.9487285,4.33235119 73.5659107,4.16423214 72.5146392,4.303875" id="Fill-18" fill="url(#linearGradient-5)"></path>
            <path d="M73.3388316,6.36092381 C72.2729897,6.50960238 71.0534708,6.55368571 70.704055,6.57148333 C70.1063918,6.59749524 69.3127148,6.78779286 69.0933333,7.05256667 C68.4230928,7.8816619 67.7819931,8.65435238 67.6085223,8.97251905 C68.0178694,8.59603095 69.363299,8.63710238 70.9965636,8.56207857 C72.6284536,8.48815 74.2817869,7.78528095 75.5848797,6.30506667 L76.5753952,4.94176905 C75.9123024,5.78893571 74.7444674,6.16542381 73.3388316,6.36092381" id="Fill-20" fill="url(#linearGradient-6)"></path>
            <path d="M72.835079,2.72040714 C72.0196838,3.23845476 71.0374158,4.46758571 70.5549416,5.11459762 C71.0036014,4.63652619 71.5990653,4.50044286 72.4738419,4.40187143 C73.3475189,4.30138333 74.6101993,4.31863333 75.5080687,4.19788333 C76.3699244,4.08370476 77.1721237,3.91120476 78.2852509,2.38772857 L79.795079,0.357430952 C78.2297182,1.90171667 76.5203024,1.9657881 75.062433,2.15964524 C74.6286186,2.21796667 73.6490997,2.20235952 72.835079,2.72040714 Z" id="Fill-22" fill="url(#linearGradient-7)"></path>
            <polygon id="Fill-24" fill="#00529B" points="10.9366873 9.67256786 10.9366873 8.11952024 13.8741443 8.11952024 13.8741443 7.30411548 10.9366873 7.30411548 10.9366873 5.8904369 14.0330447 5.8904369 14.0330447 5.07421071 8.7593677 5.07421071 8.7593677 10.497556 14.2043162 10.497556 14.2043162 9.67256786"></polygon>
            <path d="M17.3893883,10.4974738 L17.3893883,5.89035476 L18.6685636,5.89035476 C19.0581168,5.89035476 19.4179794,5.91937857 19.7465017,6.13787857 C19.9851271,6.30709286 20.1355052,6.54804524 20.1355052,6.84704524 C20.1355052,7.09648571 20.046433,7.35331905 19.716811,7.56141429 C19.2871203,7.84015238 18.5388041,7.87848571 18.0692509,7.82208095 L17.7998351,7.79004524 L19.9680825,10.4974738 L22.4838213,10.4974738 L20.4260893,8.23799762 C20.7947491,8.19774762 21.3858144,8.05180714 21.7443024,7.82208095 C22.1731684,7.53239048 22.3930997,7.1047 22.3930997,6.70575952 C22.3930997,6.25890238 22.152,5.77289048 21.6051959,5.45308095 C20.9544742,5.08562857 20.0667766,5.07467619 19.2478076,5.07467619 L15.2027216,5.07467619 L15.2027216,10.4977476 L17.3893883,10.4977476 L17.3893883,10.4974738 Z" id="Fill-26" fill="#00529B"></path>
            <polygon id="Fill-28" fill="#00529B" points="34.9688522 7.39250119 34.9688522 5.89038214 38.1454845 5.89038214 38.1454845 5.07415595 32.7931821 5.07415595 32.7931821 10.4975012 34.9688522 10.4975012 34.9688522 8.20845357 37.9057595 8.20845357 37.9057595 7.39250119"></polygon>
            <polygon id="Fill-30" fill="#00529B" points="38.9347079 5.07421071 38.9347079 10.497556 44.329622 10.497556 44.329622 9.67256786 41.1224742 9.67256786 41.1224742 5.07421071"></polygon>
            <polygon id="Fill-32" fill="#00529B" points="60.19989 5.07421071 53.3190653 5.07421071 53.3190653 5.8901631 55.6660069 5.8901631 55.6660069 10.497556 57.8540481 10.497556 57.8540481 5.8901631 60.19989 5.8901631"></polygon>
            <path d="M48.6846186,9.98996786 C48.1444124,9.98996786 47.5049622,9.8703131 47.0345842,9.28271786 C46.6453058,8.80601548 46.5760275,8.257575 46.5760275,7.78990833 C46.5760275,7.30362262 46.6453058,6.7655869 47.0345842,6.2883369 C47.5049622,5.6900631 48.1444124,5.57177738 48.6846186,5.57177738 C49.2322474,5.57177738 49.8637251,5.6900631 50.3398763,6.2883369 C50.731354,6.7655869 50.801732,7.30362262 50.801732,7.78990833 C50.801732,8.257575 50.731354,8.80601548 50.3398763,9.28271786 C49.8637251,9.8705869 49.2322474,9.98996786 48.6846186,9.98996786 M48.6846186,4.91655119 C47.665512,4.91655119 46.2373333,5.14600357 45.2781581,5.83025357 C44.5174708,6.36746786 44.1592577,7.13550357 44.1592577,7.79018214 C44.1592577,8.43774167 44.5174708,9.20468214 45.2781581,9.74189643 C46.2373333,10.4168369 47.665512,10.6460155 48.6846186,10.6460155 C49.7020756,10.6460155 51.1412509,10.4168369 52.0990515,9.74189643 C52.8594639,9.20468214 53.2094296,8.43774167 53.2094296,7.79018214 C53.2094296,7.13550357 52.8594639,6.36746786 52.0990515,5.83025357 C51.1412509,5.14600357 49.7020756,4.92640833 48.6846186,4.91655119" id="Fill-34" fill="#00529B"></path>
            <path d="M27.5134296,9.98996786 C26.9740481,9.98996786 26.334323,9.8703131 25.8655945,9.28271786 C25.4763162,8.80601548 25.4056632,8.257575 25.4056632,7.78990833 C25.4056632,7.30362262 25.4763162,6.7655869 25.8655945,6.2883369 C26.334323,5.6900631 26.9740481,5.57177738 27.5134296,5.57177738 C28.0616082,5.57177738 28.6922612,5.6900631 29.1708866,6.2883369 C29.5609897,6.7655869 29.6308179,7.30362262 29.6308179,7.78990833 C29.6308179,8.257575 29.5609897,8.80601548 29.1708866,9.28271786 C28.6922612,9.8705869 28.0613333,9.98996786 27.5134296,9.98996786 M27.5134296,4.91655119 C26.4954227,4.91655119 25.0675189,5.14600357 24.1086186,5.83025357 C23.3482062,6.36746786 22.9883436,7.13550357 22.9883436,7.79018214 C22.9883436,8.43774167 23.3482062,9.20468214 24.1086186,9.74189643 C25.0675189,10.4168369 26.4956976,10.6460155 27.5134296,10.6460155 C28.5311615,10.6460155 29.9706117,10.4168369 30.9303368,9.74189643 C31.6882749,9.20468214 32.0390653,8.43774167 32.0390653,7.79018214 C32.0390653,7.13550357 31.6882749,6.36746786 30.9303368,5.83025357 C29.9706117,5.14600357 28.5311615,4.92640833 27.5134296,4.91655119" id="Fill-36" fill="#00529B"></path>
            <path d="M2.34669416,8.188 L3.37597251,6.29871429 L3.40621306,6.29871429 L4.52428866,8.188 L2.34669416,8.188 Z M1.08813746,10.4975833 L1.94779381,8.92317857 L4.97542268,8.92317857 L5.90325773,10.4975833 L8.34999313,10.4975833 L5.03480412,5.0742381 L3.00621306,5.0742381 L2.74914089e-05,10.4975833 L1.08813746,10.4975833 Z" id="Fill-38" fill="#00529B"></path>
            <path d="M22.913457,14.8431321 L22.4287835,16.6239893 C22.3691271,16.6951798 22.2756564,16.7545964 22.1912577,16.7995012 C22.0606735,16.8695964 21.931189,16.9073821 21.8118763,16.9073821 C21.6933883,16.9073821 21.5878213,16.8600131 21.5394364,16.7874536 C21.5042474,16.7280369 21.4693333,16.6346679 21.5160687,16.4687393 L21.9548316,14.8431321 L21.5042474,14.8431321 L21.0795052,16.410144 C21.0434914,16.5527988 20.98411,16.7995012 21.1135945,16.9884298 C21.185622,17.0946679 21.3403986,17.2132274 21.6576495,17.2132274 C21.7890584,17.2132274 21.9199175,17.1902274 22.0862405,17.1190369 C22.1918076,17.0577036 22.3091959,16.988156 22.4051409,16.9172393 L22.3350378,17.1653107 L22.7361375,17.1653107 L23.3662405,14.8431321 L22.913457,14.8431321 Z" id="Fill-40" fill="#00529B"></path>
            <path d="M25.7960137,15.1113286 C25.6885223,14.9705905 25.5576632,14.9002214 25.5340206,14.8879 C25.3833677,14.8076738 25.2156701,14.7934357 25.0716151,14.7934357 C24.9182131,14.7934357 24.7282474,14.8076738 24.5165636,14.935269 C24.3620619,15.0428762 24.1731959,15.2068881 24.1033677,15.4790548 C24.0398625,15.6786619 24.0657045,15.8314476 24.137457,15.9270071 C24.2196564,16.033519 24.3620619,16.091019 24.4821993,16.1263405 L24.7059794,16.1991738 C24.8230928,16.2227214 24.9426804,16.2227214 25.0125086,16.3149952 C25.0482474,16.3631857 25.0861856,16.4228762 25.0614433,16.5400667 C25.0248797,16.6457571 24.9556014,16.7161262 24.8953952,16.7634952 C24.8131959,16.8355071 24.6696907,16.896019 24.4692784,16.896019 C24.3395189,16.896019 24.2323024,16.8691857 24.1261856,16.8100429 C24.0321649,16.7404952 23.9598625,16.6810786 23.9238488,16.6235786 L23.6263918,16.896019 C23.8408247,17.1753048 24.1030928,17.2130905 24.3620619,17.2130905 C24.5385567,17.2130905 24.8953952,17.1900905 25.1920275,16.9652929 C25.3561512,16.8245548 25.4760137,16.6457571 25.5243986,16.4926976 C25.5477663,16.3730429 25.571134,16.1989 25.5125773,16.0904714 C25.4284536,15.9264595 25.2393127,15.8560905 25.1323711,15.8311738 L24.9660481,15.783531 C24.7549141,15.7358881 24.659244,15.7131619 24.611134,15.6537452 C24.5649485,15.6200667 24.52811,15.5488762 24.5649485,15.4070429 C24.5866667,15.3487214 24.6358763,15.2531619 24.7287973,15.1827929 C24.8472852,15.1110548 24.9561512,15.1001024 25.0383505,15.1001024 C25.1444674,15.1001024 25.2393127,15.125019 25.3226117,15.1827929 C25.3940893,15.2293405 25.4520962,15.2895786 25.4999313,15.3487214 L25.7960137,15.1113286 Z" id="Fill-42" fill="#00529B"></path>
            <path d="M28.2251271,15.1113286 C28.129457,14.9705905 28.0002474,14.9002214 27.9650584,14.8879 C27.8237526,14.8076738 27.6557801,14.7934357 27.5150241,14.7934357 C27.3517251,14.7934357 27.1716564,14.8076738 26.958323,14.935269 C26.8040962,15.0428762 26.6144055,15.2068881 26.5316564,15.4790548 C26.4865704,15.6786619 26.5082887,15.8314476 26.5794914,15.9270071 C26.6619656,16.033519 26.8178419,16.091019 26.9225842,16.1263405 L27.1353677,16.1991738 C27.2538557,16.2227214 27.3734433,16.2227214 27.4556426,16.3149952 C27.4913814,16.3631857 27.5265704,16.4228762 27.4913814,16.5400667 C27.4556426,16.6457571 27.3858144,16.7161262 27.3366048,16.7634952 C27.2535808,16.8355071 27.1125498,16.896019 26.910488,16.896019 C26.7804536,16.896019 26.6746117,16.8691857 26.5558488,16.8100429 C26.4599038,16.7404952 26.4010722,16.6810786 26.3537869,16.6235786 L26.0577045,16.896019 C26.2853333,17.1753048 26.5448522,17.2130905 26.8040962,17.2130905 C26.9827904,17.2130905 27.3366048,17.1900905 27.6340619,16.9652929 C27.7995601,16.8245548 27.918323,16.6457571 27.9537869,16.4926976 C27.9895258,16.3730429 28.0005223,16.1989 27.9419656,16.0904714 C27.8710378,15.9264595 27.6807973,15.8560905 27.5639588,15.8311738 L27.3965361,15.783531 C27.1944742,15.7358881 27.1026529,15.7131619 27.0526186,15.6537452 C27.0067079,15.6200667 26.9715189,15.5488762 27.0067079,15.4070429 C27.0300756,15.3487214 27.0658144,15.2531619 27.1724811,15.1827929 C27.2799725,15.1110548 27.3970859,15.1001024 27.4677388,15.1001024 C27.5878763,15.1001024 27.6810722,15.125019 27.764921,15.1827929 C27.8369485,15.2293405 27.8946804,15.2895786 27.9425155,15.3487214 L28.2251271,15.1113286 Z" id="Fill-44" fill="#00529B"></path>
            <path d="M29.3787491,14.0762464 C29.3405361,14.2399845 29.4378557,14.3694964 29.5929072,14.3694964 C29.7581306,14.3694964 29.9107079,14.2397107 29.9579931,14.0762464 C30.0041787,13.9209964 29.9107079,13.792306 29.7443849,13.792306 C29.5929072,13.792306 29.4265842,13.9207226 29.3787491,14.0762464 Z M29.0939381,14.8431869 L29.0098144,15.1482107 L29.2819794,15.1482107 L28.7398488,17.1653655 L29.1879588,17.1653655 L29.8153127,14.8431869 L29.0939381,14.8431869 Z" id="Fill-46" fill="#00529B"></path>
            <path d="M33.4936082,17.1654202 L33.9920275,15.3369202 C34.1484536,15.2065869 34.3846048,15.1003488 34.5968385,15.1003488 C34.7510653,15.1003488 34.8354639,15.1592179 34.8692784,15.2295869 C34.9410309,15.337194 34.905567,15.5124321 34.8805498,15.5841702 L34.4547079,17.1654202 L34.905567,17.1654202 L35.3314089,15.6203131 C35.3797938,15.4302893 35.4017869,15.2065869 35.295945,15.018206 C35.2005498,14.865694 35.0243299,14.7934083 34.774433,14.7934083 C34.6218557,14.7934083 34.3609622,14.8295512 34.0753265,15.018206 L34.1237113,14.8429679 L33.3995876,14.8429679 L33.3179381,15.1479917 L33.5901031,15.1479917 L33.0457732,17.1651464 L33.4936082,17.1651464 L33.4936082,17.1654202 Z" id="Fill-48" fill="#00529B"></path>
            <path d="M19.5205223,15.3115929 L19.4369485,15.3115929 L18.7741306,15.3115929 L19.0710378,14.2043071 L19.5205223,14.2043071 L19.7467766,14.2043071 C19.8182543,14.2043071 20.0412096,14.2043071 20.1605223,14.322319 C20.2306254,14.3932357 20.2905567,14.5112476 20.2413471,14.6996286 C20.1946117,14.8767833 20.0989416,15.0186167 19.9584605,15.1366286 C19.8047835,15.2532714 19.6379107,15.3014619 19.5205223,15.3115929 Z M18.6779107,13.8160452 L17.7668454,17.1655571 L18.2748866,17.1655571 L18.6685636,15.6927357 L19.009732,15.6927357 L19.4847835,17.1655571 L19.5205223,17.1655571 L20.0989416,17.1655571 L19.5548866,15.6669976 C19.8045086,15.6415333 20.1366048,15.5251643 20.3367423,15.371831 C20.5602474,15.20645 20.7287698,14.9707 20.7851271,14.7229024 C20.8571546,14.4852357 20.82389,14.2396286 20.6823093,14.0761643 C20.4915189,13.8387714 20.1121375,13.8160452 19.8394227,13.8160452 L19.5205223,13.8160452 L18.6779107,13.8160452 Z" id="Fill-50" fill="#00529B"></path>
            <path d="M31.3012784,16.8694321 C31.2300756,16.8962655 31.1591478,16.9072179 31.0873952,16.9072179 C30.9947491,16.9072179 30.8751615,16.8962655 30.8047835,16.7990631 C30.745677,16.715825 30.732756,16.6345036 30.7690447,16.5156702 C30.7924124,16.422575 30.8391478,16.3275631 30.9573608,16.2339202 C31.0285636,16.1862774 31.1236838,16.1263131 31.3012784,16.1046821 C31.3598351,16.0907179 31.4315876,16.0800393 31.5159863,16.0800393 L31.8475326,16.0800393 L31.7169485,16.5745393 C31.644921,16.6695512 31.574268,16.7278726 31.4901443,16.7870155 C31.4205911,16.825075 31.3598351,16.8598488 31.3012784,16.8694321 M31.3012784,15.808694 C30.8281512,15.8563369 30.4363986,16.044444 30.3069141,16.5296345 C30.294268,16.5863131 30.2824467,16.6347774 30.2824467,16.681325 L30.2824467,16.7637417 C30.294268,17.0238607 30.4715876,17.2136107 30.8625155,17.2136107 C31.0038213,17.2136107 31.1465017,17.1906107 31.3012784,17.1281821 C31.3144742,17.1281821 31.3254708,17.1191464 31.3477388,17.1070988 C31.5025155,17.0359083 31.6188041,16.9176226 31.6564674,16.8828488 L31.6798351,16.8828488 L31.5987354,17.165694 L32.0009347,17.165694 L32.4152302,15.6671345 C32.4754364,15.4305631 32.5326186,15.1948131 32.4020344,15.0184798 C32.2948179,14.8533726 32.0237526,14.7936821 31.8117938,14.7936821 C31.6086323,14.7936821 31.4313127,14.8185988 31.3010034,14.8533726 C30.8880825,14.9585155 30.7324811,15.2071345 30.7203849,15.4305631 L31.136055,15.4543845 C31.1695945,15.337194 31.2188041,15.2536821 31.3010034,15.1950869 C31.3966735,15.1255393 31.5385292,15.1006226 31.7163986,15.1006226 C31.8117938,15.1006226 31.9289072,15.111575 31.9759175,15.1950869 C32.0487698,15.2780512 32.0237526,15.3957893 32.0006598,15.5031226 L31.9170859,15.7969202 L31.5852646,15.7969202 C31.4898694,15.7966464 31.3854021,15.7966464 31.3012784,15.808694" id="Fill-52" fill="#00529B"></path>
            <path d="M42.53611,14.0762464 C42.4989966,14.2399845 42.5941168,14.3694964 42.7497182,14.3694964 C42.9017457,14.3694964 43.0683436,14.2397107 43.1148041,14.0762464 C43.1637388,13.9209964 43.0683436,13.792306 42.9017457,13.792306 C42.7491684,13.792306 42.5800962,13.9207226 42.53611,14.0762464 Z M42.1193402,14.8431869 L42.0379656,15.1482107 L42.3101306,15.1482107 L41.7633265,17.1653655 L42.2144605,17.1653655 L42.8415395,14.8431869 L42.1193402,14.8431869 Z" id="Fill-54" fill="#00529B"></path>
            <path d="M43.8376632,14.8431321 L43.2105842,17.1653107 L43.6608935,17.1653107 L44.0163574,15.8313107 C44.0754639,15.6787988 44.1334708,15.5254655 44.2178694,15.4074536 C44.3594502,15.1829298 44.5238488,15.148156 44.6206186,15.148156 C44.6797251,15.148156 44.7492784,15.1588345 44.7982131,15.2067512 C44.8314777,15.2431679 44.8454983,15.3116202 44.8454983,15.3956798 L45.2482474,15.2776679 C45.3293471,15.0427393 45.2482474,14.9113107 45.1069416,14.8428583 C45.0329897,14.8072631 44.9513402,14.793025 44.8685911,14.793025 C44.6076976,14.793025 44.3487285,14.9351321 44.1694845,15.182656 L44.2635052,14.8428583 L43.8376632,14.8428583 L43.8376632,14.8431321 Z" id="Fill-56" fill="#00529B"></path>
            <path d="M46.3274502,13.7684845 L45.5821581,16.5295798 C45.5241512,16.7404131 45.4163849,17.1653655 45.950543,17.1653655 L46.2103368,17.1653655 L46.2925361,16.859794 L46.1636014,16.859794 C45.9392715,16.859794 45.9972784,16.6694964 46.0074502,16.624044 L46.779134,13.7684845 L46.3274502,13.7684845 Z" id="Fill-58" fill="#00529B"></path>
            <path d="M47.9608247,14.0762464 C47.924811,14.2399845 48.0199313,14.3694964 48.1738832,14.3694964 C48.3410309,14.3694964 48.4949828,14.2397107 48.5411684,14.0762464 C48.5771821,13.9209964 48.4817869,13.792306 48.3297595,13.792306 C48.1626117,13.792306 48.0097595,13.9207226 47.9608247,14.0762464 Z M47.5451546,14.8431869 L47.4657045,15.1482107 L47.7389691,15.1482107 L47.1800687,17.1653655 L47.6419244,17.1653655 L48.2706529,14.8431869 L47.5451546,14.8431869 Z" id="Fill-60" fill="#00529B"></path>
            <path d="M49.2011546,17.1654202 L49.6861031,15.3369202 C49.8518763,15.2065869 50.0891271,15.1003488 50.300811,15.1003488 C50.4553127,15.1003488 50.5397113,15.1592179 50.5740756,15.2295869 C50.6568247,15.337194 50.598268,15.5124321 50.5864467,15.5841702 L50.1611546,17.1654202 L50.6095395,17.1654202 L51.0359313,15.6203131 C51.0837663,15.4302893 51.1074089,15.2065869 51.0004674,15.018206 C50.9075464,14.865694 50.7277526,14.7934083 50.4806048,14.7934083 C50.3142818,14.7934083 50.0770309,14.8295512 49.7814983,15.018206 L49.8287835,14.8429679 L49.1065842,14.8429679 L49.0230103,15.1479917 L49.2946254,15.1479917 L48.7511203,17.1654202 L49.2011546,17.1654202 Z" id="Fill-62" fill="#00529B"></path>
            <path d="M56.1545567,15.1113286 C56.0610859,14.9705905 55.9428729,14.9002214 55.9049347,14.8879 C55.7512577,14.8076738 55.5997801,14.7934357 55.4565498,14.7934357 C55.2880275,14.7934357 55.1123574,14.8076738 54.9006735,14.935269 C54.7343505,15.0428762 54.5443849,15.2068881 54.4740069,15.4790548 C54.4116014,15.6786619 54.4498144,15.8314476 54.5196426,15.9270071 C54.5913952,16.033519 54.745622,16.091019 54.8525636,16.1263405 L55.0774433,16.1991738 C55.1945567,16.2227214 55.3157938,16.2227214 55.3828729,16.3149952 C55.4329072,16.3631857 55.4565498,16.4228762 55.4329072,16.5400667 C55.398543,16.6457571 55.3276151,16.7161262 55.2668591,16.7634952 C55.1945567,16.8355071 55.0532509,16.896019 54.8407423,16.896019 C54.7074089,16.896019 54.6139381,16.8691857 54.4954502,16.8100429 C54.4014296,16.7404952 54.3316014,16.6810786 54.2950378,16.6235786 L53.9992302,16.896019 C54.2120137,17.1753048 54.4740069,17.2130905 54.7338007,17.2130905 C54.9232165,17.2130905 55.2668591,17.1900905 55.5629416,16.9652929 C55.7298144,16.8245548 55.8452784,16.6457571 55.8947629,16.4926976 C55.9302268,16.3730429 55.9428729,16.1989 55.8851409,16.0904714 C55.8120137,15.9264595 55.6091271,15.8560905 55.5049347,15.8311738 L55.3372371,15.783531 C55.1387491,15.7358881 55.0419794,15.7131619 54.9834227,15.6537452 C54.9463093,15.6200667 54.9006735,15.5488762 54.9355876,15.4070429 C54.9592302,15.3487214 54.9924948,15.2531619 55.1016357,15.1827929 C55.2187491,15.1110548 55.3372371,15.1001024 55.4098144,15.1001024 C55.5274777,15.1001024 55.6091271,15.125019 55.7034227,15.1827929 C55.7641787,15.2293405 55.8221856,15.2895786 55.8705704,15.3487214 L56.1545567,15.1113286 Z" id="Fill-64" fill="#00529B"></path>
            <path d="M39.3782268,15.9624381 L40.289567,14.535069 L40.3008385,14.535069 L40.4097045,15.9624381 L39.3782268,15.9624381 Z M38.1226942,17.1655571 L38.6318351,17.1655571 L39.1415258,16.3504262 L40.4314227,16.3504262 L40.491354,17.1655571 L41.0719725,17.1655571 L40.7527973,13.8160452 L40.3379519,13.8160452 L38.1226942,17.1655571 Z" id="Fill-66" fill="#00529B"></path>
            <path d="M52.2595739,15.7966464 L52.2832165,15.6925988 C52.3321512,15.5723964 52.3907079,15.3837417 52.5424605,15.2534083 C52.6425292,15.156206 52.7964811,15.1003488 52.9350378,15.1003488 C53.0543505,15.1003488 53.1706392,15.1364917 53.2313952,15.2068607 C53.3366873,15.3492417 53.2888522,15.5493964 53.2443162,15.7027298 L53.2184742,15.7969202 L52.2595739,15.7969202 L52.2595739,15.7966464 Z M52.1897457,16.1046821 L53.5964811,16.1046821 L53.6341443,15.951075 C53.7281649,15.6416702 53.8216357,15.3240512 53.6583368,15.0658488 C53.5153814,14.8432417 53.2313952,14.7934083 53.0290584,14.7934083 C52.7288522,14.7934083 52.4410172,14.9007417 52.2122887,15.1003488 C51.9030103,15.371694 51.7757251,15.7361345 51.7039725,16.044444 C51.6330447,16.2927893 51.5604674,16.6692774 51.7498832,16.9417179 C51.9272027,17.1752774 52.2494021,17.2130631 52.4726323,17.2130631 C52.6543505,17.2130631 52.8217732,17.1870512 52.9957938,17.1276345 C53.0887148,17.093956 53.2066529,17.0463131 53.3130447,16.9879917 L53.2443162,16.7155512 C53.1354502,16.763194 53.0538007,16.7987893 52.934488,16.8242536 C52.8239725,16.8442417 52.7197801,16.8688845 52.6021168,16.8688845 C52.425622,16.8688845 52.2708454,16.8094679 52.1891959,16.7054202 C52.0577869,16.5520869 52.118268,16.3141464 52.1542818,16.198325 L52.1897457,16.1046821 Z" id="Fill-68" fill="#00529B"></path>
        </g>
    </g>
</svg>