<?xml version="1.0" encoding="UTF-8"?>
<svg width="112px" height="23px" viewBox="0 0 112 23" version="1.1" xmlns="http://www.w3.org/2000/svg" xmlns:xlink="http://www.w3.org/1999/xlink">
    <!-- Generator: Sketch 49.1 (51147) - http://www.bohemiancoding.com/sketch -->
    <title>Saudi_Arabian_Airlines_s</title>
    <desc>Created with Sketch.</desc>
    <defs></defs>
    <g id="AVIA" stroke="none" stroke-width="1" fill="none" fill-rule="evenodd">
        <g id="Saudi_Arabian_Airlines_s">
            <path d="M20.6149041,16.468 C20.6149041,16.4664667 20.6164384,16.4649333 20.6164384,16.4618667 C20.6164384,16.4496 20.6064658,16.4327333 20.5880548,16.4327333 C20.5765479,16.4327333 20.5658082,16.4427 20.5627397,16.4557333 C18.7392877,19.6481333 15.2949041,21.8116667 11.3465205,21.8116667 C5.50027397,21.8116667 0.762520548,17.0767333 0.762520548,11.2355 C0.762520548,9.30196667 1.27956164,7.48726667 2.18936986,5.92556667 L2.18630137,5.92556667 C2.18783562,5.92173333 2.18936986,5.9202 2.18936986,5.9179 C2.18936986,5.90256667 2.1740274,5.888 2.1609863,5.888 C2.15178082,5.888 2.14717808,5.89106667 2.1410411,5.89643333 L2.13950685,5.89643333 C0.95660274,7.61376667 0.302246575,9.65923333 0.302246575,11.9009667 C0.302246575,17.7943333 5.08832877,22.5492 10.9844384,22.5492 C15.2573151,22.5492 18.9026849,20.102 20.6095342,16.4772 C20.6133699,16.4772 20.6133699,16.4718333 20.6149041,16.468" id="Fill-1" fill="#B99338"></path>
            <path d="M11.3664658,13.2564333 L11.6341918,13.0502 L11.9042192,11.2048333 L11.7285479,11.2048333 L11.9433425,9.3541 L11.7392877,9.3541 L11.9985753,7.48803333 L11.7500274,7.48803333 L11.965589,5.66643333 C12.6951233,6.60176667 13.153863,8.48623333 13.2942466,9.94213333 C13.9041096,8.8228 13.6954521,6.2859 13.0595068,5.23326667 C14.1833425,5.8466 15.4069041,7.52866667 16.109589,9.24983333 C16.4977534,7.62756667 15.2527123,5.3222 13.9294247,4.3309 C15.2212603,4.5701 16.9127671,5.5729 18.5313973,7.48803333 C17.9990137,4.9266 15.468274,3.37563333 13.962411,3.059 C15.6201644,2.89186667 17.2380274,3.42163333 18.7032329,4.13386667 C17.1152877,2.29693333 14.7088219,1.63453333 13.1239452,1.81316667 C13.3916712,1.53333333 13.6509589,1.3823 14.0529315,1.25733333 C13.3870685,0.948366667 12.3399452,1.1109 11.9310685,1.5686 C11.9310685,1.5686 11.8528219,0.713766667 11.3664658,0.3795 L11.3664658,13.2564333" id="Fill-2" fill="#B99338"></path>
            <path d="M11.3649315,13.2564333 L11.0933699,13.0502 L10.8241096,11.2048333 L11.0005479,11.2048333 L10.7865205,9.3541 L10.9890411,9.3541 L10.7297534,7.48803333 L10.9798356,7.48803333 L10.764274,5.66643333 C10.0401096,6.60176667 9.58213699,8.48623333 9.43945205,9.94213333 C8.8249863,8.8228 9.03671233,6.2859 9.6749589,5.23326667 C8.54652055,5.8466 7.32219178,7.52866667 6.6210411,9.24983333 C6.23441096,7.62756667 7.47484932,5.3222 8.80273973,4.3309 C7.50630137,4.5701 5.82093151,5.5729 4.19923288,7.48803333 C4.73468493,4.9266 7.26235616,3.37563333 8.76821918,3.059 C7.11046575,2.89186667 5.49413699,3.42163333 4.03046575,4.13386667 C5.61994521,2.29693333 8.02180822,1.63453333 9.61358904,1.81316667 C9.34049315,1.53333333 9.07967123,1.3823 8.67846575,1.25733333 C9.34586301,0.948366667 10.3906849,1.1109 10.7972603,1.5686 C10.7972603,1.5686 10.8778082,0.713766667 11.3664658,0.3795 L11.3649315,13.2564333" id="Fill-3" fill="#B99338"></path>
            <polyline id="Fill-4" fill="#B99338" points="11.6311233 13.0532667 11.3664658 13.2564333 11.0964384 13.0532667 10.2242192 13.4994667 10.2242192 13.5654 12.5102466 13.5654 12.5102466 13.4994667 11.6311233 13.0532667"></polyline>
            <path d="M8.10082192,17.4232667 C9.17863014,16.7202333 10.4650959,15.7642 11.8635616,14.9262333 C14.7241644,13.2096667 18.641863,11.2485333 20.6417534,13.3231333 C17.1973699,11.9515667 11.1992329,16.4841 8.6470137,17.9829333 C8.56569863,17.8993667 8.25271233,17.5789 8.10082192,17.4232667" id="Fill-5" fill="#B99338"></path>
            <path d="M10.2533699,18.653 C10.2572055,18.4958333 10.1329315,18.3662667 9.98410959,18.3655 C9.83221918,18.3578333 9.70641096,18.4820333 9.70180822,18.6376667 L9.70180822,18.6668 C9.46630137,18.4981333 9.22005479,18.1715333 8.60482192,17.5275333 C7.336,16.2027333 6.88493151,16.3959333 6.78136986,16.4396333 C6.67780822,16.4802667 6.60339726,16.5784 6.59956164,16.6934 C6.59572603,16.8536333 6.71846575,16.9809 6.86958904,16.9855 C7.02454795,16.9901 7.15035616,16.8666667 7.15342466,16.7087333 C7.15342466,16.6857333 7.15342466,16.6681 7.14882192,16.6504667 C7.44186301,16.8306333 7.71956164,17.0790333 8.40230137,17.7859 C9.52767123,18.9504667 9.76164384,18.9374333 9.98180822,18.9267 C10.1329315,18.9198 10.2487671,18.8063333 10.2533699,18.653" id="Fill-6" fill="#B99338"></path>
            <path d="M5.23561644,18.4107333 C5.28164384,18.3655 5.36679452,18.3885 5.46268493,18.4299 C5.97819178,18.6392 6.81128767,18.2428333 7.86915068,17.5735333 L8.39079452,18.1309 C6.41008219,19.2425667 5.63835616,19.0202333 5.28931507,18.6277 C5.20646575,18.5372333 5.19035616,18.4613333 5.23561644,18.4107333" id="Fill-7" fill="#B99338"></path>
            <path d="M14.628274,17.4232667 C13.5496986,16.7202333 12.2609315,15.7642 10.864,14.9262333 C8.00493151,13.2096667 4.08876712,11.2485333 2.08887671,13.3231333 C5.53172603,11.9485 11.5283288,16.4841 14.0828493,17.9829333 C14.161863,17.8993667 14.4763836,17.5789 14.628274,17.4232667" id="Fill-8" fill="#B99338"></path>
            <path d="M12.4780274,18.653 C12.4749589,18.4958333 12.5961644,18.3662667 12.7488219,18.3639667 C12.9007123,18.3578333 13.0265205,18.4820333 13.0326575,18.6376667 C13.0326575,18.6476333 13.0326575,18.6560667 13.0311233,18.6668 C13.2635616,18.4981333 13.5105753,18.1684667 14.1250411,17.5275333 C15.3884932,16.2012 15.841863,16.3959333 15.9461918,16.4396333 C16.0466849,16.4802667 16.1226301,16.5753333 16.1241644,16.6934 C16.1310685,16.8536333 16.0075616,16.9809 15.8579726,16.9855 C15.7037808,16.9901 15.5764384,16.8643667 15.5733699,16.7072 C15.5733699,16.6857333 15.5749041,16.6681 15.5795068,16.6474 C15.2841644,16.8306333 15.0133699,17.0790333 14.3252603,17.7859 C13.2044932,18.9504667 12.9720548,18.9359 12.7488219,18.9251667 C12.5992329,18.9198 12.4803288,18.8063333 12.4780274,18.653" id="Fill-9" fill="#B99338"></path>
            <path d="M17.4927123,18.4107333 C17.4474521,18.3639667 17.3623014,18.3885 17.2679452,18.4299 C16.7509041,18.6392 15.9132055,18.2428333 14.8607123,17.5735333 L14.3390685,18.1309 C16.3197808,19.2410333 17.0930411,19.0202333 17.4405479,18.6238667 C17.5226301,18.5372333 17.5395068,18.4613333 17.4927123,18.4107333" id="Fill-10" fill="#B99338"></path>
            <path d="M61.954411,18.2459 L61.1105753,18.2459 C60.809863,17.641 60.032,16.7631667 58.7386301,16.8482667 L58.0558904,18.2459 L57.5311781,18.2459 L59.6154521,14.1925333 L59.882411,14.1925333 L61.954411,18.2459 Z M58.9004932,16.5124667 C59.2825205,16.5124667 59.9959452,16.5638333 60.5007123,16.9663333 L59.590137,15.1048667 L58.9004932,16.5124667 Z" id="Fill-11" fill="#2F3163"></path>
            <path d="M52.9813699,18.2459 L52.0953425,18.2459 C51.252274,16.7148667 49.8944658,16.5515667 49.2263014,16.6083 L48.4591781,18.2459 L47.88,18.2459 L50.2764932,13.3607 L50.5718356,13.3607 L52.9813699,18.2459 Z M49.4150137,16.2096333 C49.6566575,16.1973667 50.512,16.1237667 51.3857534,16.7493667 L50.2603836,14.4179333 L49.4150137,16.2096333 Z" id="Fill-12" fill="#2F3163"></path>
            <path d="M85.7973699,18.2459 L84.9121096,18.2459 C84.0705753,16.7148667 82.7112329,16.5515667 82.0446027,16.6083 L81.2736438,18.2459 L80.6983014,18.2459 L83.0947945,13.3607 L83.3916712,13.3607 L85.7973699,18.2459 Z M82.2363836,16.2096333 C82.4749589,16.1973667 83.328,16.1237667 84.2040548,16.7493667 L83.0763836,14.4179333 L82.2363836,16.2096333 Z" id="Fill-13" fill="#2F3163"></path>
            <path d="M64.7996712,16.0448 C65.0420822,15.9957333 65.7616438,15.7956333 65.7585753,15.1646667 C65.7585753,14.8089333 65.6174247,14.1749 64.0187397,14.1749 C63.2124932,14.1749 62.402411,14.4110333 62.1968219,14.4616333 L62.2612603,14.7399333 C62.3801644,14.7069667 62.6041644,14.6640333 62.7990137,14.6272333 L62.7990137,18.2459 C63.6743014,18.2558667 64.2089863,18.2459 64.7183562,18.2106333 C65.5683288,18.1554333 66.0086575,17.7222667 66.0086575,17.0752 C66.0086575,16.5393 65.5706301,16.1306667 64.7996712,16.0448 Z M65.0313425,15.1976333 C65.0229041,15.6530333 64.5925479,15.9719667 63.784,15.9719667 L63.5438904,15.9719667 L63.5438904,14.5122333 C64.2481096,14.4087333 65.0436164,14.4846333 65.0313425,15.1976333 Z M64.2181918,17.9101 C64.0755068,17.9101 63.7878356,17.9154667 63.6620274,17.7974 C63.5484932,17.6908333 63.5438904,17.5513 63.5438904,17.4255667 L63.5438904,16.2702 L63.9036712,16.2702 C64.4828493,16.2702 65.2699178,16.3675667 65.2699178,17.1756333 C65.2699178,17.4953333 65.1172603,17.9101 64.2181918,17.9101 Z" id="Fill-14" fill="#2F3163"></path>
            <path d="M93.986411,14.2577 L93.2446027,14.2577 L93.2446027,18.2459 L96.0875616,18.2459 L96.0875616,17.6126333 C95.5444384,17.8280667 94.7972603,17.8664 94.353863,17.8664 L93.986411,17.8664 L93.986411,14.2577" id="Fill-15" fill="#2F3163"></path>
            <polyline id="Fill-16" fill="#2F3163" points="102.773808 14.2577 102.256767 14.2577 102.256767 17.0752 99.7712877 14.2577 99.0985205 14.2577 99.0985205 18.2459 99.6124932 18.2459 99.6124932 15.2022333 102.289753 18.2459 102.773808 18.2459 102.773808 14.2577"></polyline>
            <polyline id="Fill-17" fill="#2F3163" points="77.6313425 14.2577 77.1158356 14.2577 77.1158356 17.0752 74.6249863 14.2577 73.9514521 14.2577 73.9514521 18.2459 74.467726 18.2459 74.467726 15.2022333 77.1488219 18.2459 77.6313425 18.2459 77.6313425 14.2577"></polyline>
            <path d="M107.207014,14.2577 L104.346411,14.2577 L104.346411,18.2459 L107.320548,18.2459 L107.320548,17.6080333 C107.190904,17.6617 106.623233,17.8664 105.592219,17.8664 L105.078247,17.8664 L105.078247,16.3047 L106.964603,16.3047 L106.964603,15.9351667 L105.078247,15.9351667 L105.078247,14.6188 L105.436493,14.6188 C105.928219,14.6188 106.769753,14.6433333 107.207014,14.8894333 L107.207014,14.2577" id="Fill-18" fill="#2F3163"></path>
            <path d="M111.209863,14.4394 C110.999671,14.3267 110.470356,14.1641667 109.921096,14.1749 C108.956822,14.1971333 108.313205,14.5927333 108.304767,15.3034333 C108.303233,15.4437333 108.330849,15.6239 108.419836,15.7772333 C108.886247,16.5761 110.822466,16.4457667 110.822466,17.3006 C110.823233,17.5482333 110.588493,17.9507333 109.92263,17.9507333 C109.2,17.9507333 108.649205,17.6172333 108.386082,17.4087 L108.195836,17.9883 C108.419836,18.1040667 109.02126,18.3241 109.890411,18.3241 C110.278575,18.3241 110.718904,18.2213667 111.044164,17.9668333 C111.355616,17.7222667 111.498301,17.4202 111.498301,17.0453 C111.498301,15.6277333 109.02126,15.9842333 109.02126,15.0918333 C109.02126,14.9461667 109.105644,14.8396 109.13326,14.8028 C109.268274,14.6303 109.560548,14.5237333 109.934137,14.5237333 C110.278575,14.5237333 110.642192,14.6410333 111.005041,14.9277667 L111.209863,14.4394" id="Fill-19" fill="#2F3163"></path>
            <polygon id="Fill-20" fill="#2F3163" points="86.576 18.2459 87.3239452 18.2459 87.3239452 14.2577 86.576 14.2577"></polygon>
            <polygon id="Fill-21" fill="#2F3163" points="67.150137 18.2459 67.8950137 18.2459 67.8950137 14.2577 67.150137 14.2577"></polygon>
            <polygon id="Fill-22" fill="#2F3163" points="96.8293699 18.2459 97.5780822 18.2459 97.5780822 14.2577 96.8293699 14.2577"></polygon>
            <path d="M55.881863,16.2748 C56.4180822,16.1191667 56.7701918,15.7473333 56.7701918,15.2405667 C56.7701918,14.5728 56.1419178,14.1795 55.0526027,14.1749 C54.2532603,14.1726 53.4263014,14.3842 53.181589,14.4509 L53.2421918,14.7514333 C53.3963836,14.7100333 53.6012055,14.6640333 53.778411,14.6272333 L53.778411,18.2459 L54.5240548,18.2459 L54.5240548,14.5091667 C55.3916712,14.4148667 55.9869589,14.6057667 55.9869589,15.3624667 C55.9869589,15.5855667 55.8519452,16.1398667 54.9827945,16.2065667 C54.9827945,16.2065667 56.0467945,17.8855667 56.1718356,18.0749333 C56.2823014,18.2367 56.4993973,18.2459 56.7295342,18.2459 L57.2273973,18.2459 C56.8208219,17.6762667 55.881863,16.2748 55.881863,16.2748" id="Fill-23" fill="#2F3163"></path>
            <path d="M91.012274,16.2748 C91.5530959,16.1191667 91.9036712,15.7473333 91.9036712,15.2405667 C91.9044384,14.5728 91.273863,14.1795 90.1868493,14.1749 C89.3859726,14.1726 88.554411,14.3842 88.312,14.4509 L88.3726027,14.7514333 C88.5252603,14.7100333 88.7346849,14.6640333 88.9080548,14.6272333 L88.9088219,18.2459 L89.6575342,18.2459 L89.6575342,14.5091667 C90.5251507,14.4148667 91.1227397,14.6057667 91.1227397,15.3624667 C91.1227397,15.5855667 90.9831233,16.1398667 90.1139726,16.2065667 C90.1139726,16.2065667 91.1795068,17.8855667 91.3076164,18.0749333 C91.4180822,18.2367 91.6290411,18.2459 91.8614795,18.2459 L92.3593425,18.2459 C91.9558356,17.6762667 91.012274,16.2748 91.012274,16.2748" id="Fill-24" fill="#2F3163"></path>
            <path d="M73.1896986,18.2459 L72.3466301,18.2459 C72.0451507,17.641 71.2642192,16.7631667 69.9731507,16.8482667 L69.2911781,18.2459 L68.7649315,18.2459 L70.8492055,14.1925333 L71.1146301,14.1925333 L73.1896986,18.2459 Z M70.1365479,16.5124667 C70.5170411,16.5124667 71.2273973,16.5638333 71.7321644,16.9663333 L70.8238904,15.1048667 L70.1365479,16.5124667 Z" id="Fill-25" fill="#2F3163"></path>
            <path d="M35.7686575,18.3294667 C35.0828493,18.3294667 34.5673425,18.1868667 34.2497534,17.8855667 C33.9705205,17.6233667 33.8408767,17.3243667 33.8408767,16.7340333 L33.8408767,14.2577 L34.5834521,14.2577 L34.5834521,16.8383 C34.5834521,17.2178 34.6417534,17.434 34.8227945,17.6310333 C35.0199452,17.8411 35.3582466,17.9568667 35.7686575,17.9568667 C36.176,17.9568667 36.512,17.8411 36.7083836,17.6310333 C36.8894247,17.434 36.9461918,17.2178 36.9461918,16.8383 L36.9461918,14.2577 L37.694137,14.2577 L37.694137,16.7340333 C37.694137,17.3243667 37.5621918,17.6233667 37.283726,17.8855667 C36.9638356,18.1868667 36.4475616,18.3294667 35.7686575,18.3294667" id="Fill-26" fill="#2F3163"></path>
            <path d="M28.292274,13.7011 C28.0690411,13.5615667 27.4745205,13.3821667 26.8002192,13.3821667 C25.7446575,13.3821667 24.9614247,13.8728333 24.9614247,14.6609667 C24.9614247,16.2832333 27.8174247,15.8071333 27.881863,17.0169333 C27.9018082,17.4355333 27.6471233,17.9193 26.8002192,17.9193 C25.7768767,17.9193 25.0458082,17.2791333 25.0458082,17.2791333 L24.8210411,17.9568667 C25.4684932,18.2198333 26.0737534,18.3386667 26.5570411,18.3455667 C27.3065205,18.3555333 27.8266301,18.1516 28.0912877,17.9507333 C28.3766575,17.7291667 28.6351781,17.3719 28.6351781,16.8904333 C28.6351781,15.4728667 26.8124932,15.4613667 26.0438356,15.0006 C25.8367123,14.8802333 25.6986301,14.7399333 25.7093699,14.4378667 C25.7300822,13.9288 26.1811507,13.7601333 26.7733699,13.7601333 C27.502137,13.7601333 28.0874521,14.2078667 28.0874521,14.2078667 L28.292274,13.7011" id="Fill-27" fill="#2F3163"></path>
            <path d="M40.4787945,14.1749 C40.1136438,14.1848667 39.212274,14.2247333 38.5525479,14.4148667 L38.6139178,14.7069667 C38.7941918,14.6586667 38.9598904,14.6226333 39.1516712,14.5927333 L39.1516712,18.2459 C40.2064658,18.2650667 40.656,18.262 41.2090959,18.1991333 C42.1749041,18.0826 43.0893151,17.3565667 43.0893151,16.2395333 C43.0893151,14.6678667 41.682411,14.1503667 40.4787945,14.1749 Z M40.6222466,17.8993667 C40.4749589,17.8993667 40.1512329,17.8855667 40.0131507,17.7705667 C39.8996164,17.6732 39.8965479,17.5145 39.8965479,17.2760667 L39.8965479,14.5099333 C41.0410959,14.4079667 42.3076164,14.7445333 42.3076164,16.2510333 C42.3076164,17.4554667 41.5236164,17.8993667 40.6222466,17.8993667 Z" id="Fill-28" fill="#2F3163"></path>
            <polygon id="Fill-29" fill="#2F3163" points="44.1172603 18.2459 44.8652055 18.2459 44.8652055 14.2577 44.1172603 14.2577"></polygon>
            <path d="M33.3537534,18.2459 L32.5068493,18.2459 C32.206137,17.641 31.428274,16.7631667 30.1349041,16.8482667 L29.4536986,18.2459 L28.9259178,18.2459 L31.0101918,14.1925333 L31.2771507,14.1925333 L33.3537534,18.2459 Z M30.2967671,16.5124667 C30.6780274,16.5124667 31.3891507,16.5623 31.8954521,16.9663333 L30.9841096,15.1048667 L30.2967671,16.5124667 Z" id="Fill-30" fill="#2F3163"></path>
            <path d="M94.4881096,6.50056667 C95.380274,6.50056667 96.0630137,6.8655 96.0630137,8.01703333 C96.0630137,9.25213333 95.380274,9.57413333 94.4881096,9.57413333 L91.9596712,9.57413333 L91.9596712,8.9516 L92.7014795,8.9516 L92.7014795,4.6713 L93.4294795,4.6713 L93.4294795,6.50056667 L94.4881096,6.50056667 Z M94.5694247,8.9516 C95.125589,8.9516 95.6633425,8.75073333 95.6633425,8.03543333 C95.6633425,7.35003333 95.1547397,7.12386667 94.5694247,7.12386667 L93.4294795,7.12386667 L93.4294795,8.9516 L94.5694247,8.9516 Z" id="Fill-31" fill="#2F3163"></path>
            <polygon id="Fill-32" fill="#2F3163" points="49.9757808 9.5749 50.6991781 9.5749 50.6991781 4.6713 49.9757808 4.6713"></polygon>
            <path d="M31.2947945,6.4837 L31.2947945,7.10776667 L32.1716164,7.10776667 C32.8489863,7.10776667 33.5424658,7.1438 33.5424658,8.004 C33.5424658,8.76606667 33.0292603,8.93933333 32.1163836,8.93933333 L30.3589041,8.93933333 L30.3589041,9.56186667 L32.2475616,9.56186667 C33.3867397,9.56186667 33.9436712,9.1816 33.9436712,8.00553333 C33.9436712,6.8264 33.2831781,6.4837 32.3403836,6.4837 L31.2947945,6.4837" id="Fill-33" fill="#2F3163"></path>
            <polygon id="Fill-34" fill="#2F3163" points="69.5504658 9.5749 70.2815342 9.5749 70.2815342 4.6713 69.5504658 4.6713"></polygon>
            <path d="M66.6645479,8.9516 L64.9791781,8.9516 C64.0156712,8.9516 63.8016438,8.4364 63.8016438,7.9718 C63.8016438,7.35003333 64.294137,7.12386667 64.8456986,7.12386667 L66.0401096,7.12386667 L66.0401096,6.50056667 L64.9776438,6.50133333 C64.1176986,6.50133333 63.4073425,6.87853333 63.4073425,7.85986667 C63.4073425,8.51076667 63.6743014,8.7952 63.8944658,8.9516 L62.0526027,8.9516 L62.0526027,6.8655 L61.3246027,6.8655 L61.3246027,10.327 C61.3246027,10.5524 61.3652603,11.1849 60.9709589,11.2523667 L60.971726,11.5874 C61.2977534,11.5444667 61.7219726,11.3045 61.8761644,10.9871 C62.0157808,10.6942333 62.0518356,10.4949 62.0518356,9.84936667 C62.0526027,9.7658 62.0526027,9.57413333 62.0526027,9.57413333 L66.0431781,9.57413333 C66.1958356,10.1077333 66.7849863,10.2894333 67.2222466,10.2894333 C67.6625753,10.2894333 68.0714521,10.12 68.2931507,9.80336667 C68.4718904,9.5496 68.5048767,9.2299 68.5048767,8.94776667 L68.5048767,4.6713 L67.778411,4.6713 L67.778411,8.95466667 C67.778411,9.09803333 67.778411,9.23373333 67.7316164,9.3518 C67.6863562,9.47906667 67.5605479,9.68606667 67.2222466,9.68606667 C66.8847123,9.68606667 66.7619726,9.48826667 66.7213151,9.35946667 C66.6860274,9.24983333 66.6645479,9.03823333 66.6645479,8.9516" id="Fill-35" fill="#2F3163"></path>
            <polygon id="Fill-36" fill="#2F3163" points="110.752658 9.5749 111.477589 9.5749 111.477589 4.6713 110.752658 4.6713"></polygon>
            <polygon id="Fill-37" fill="#2F3163" points="88.5866301 9.5749 89.3192329 9.5749 89.3192329 4.6713 88.5866301 4.6713"></polygon>
            <path d="M86.7869589,4.6713 L86.7869589,8.9608 C86.7869589,9.1563 86.7639452,9.31806667 86.7010411,9.43536667 C86.625863,9.5772 86.4893151,9.69296667 86.227726,9.69296667 C85.9715068,9.69296667 85.8334247,9.5772 85.7590137,9.43536667 C85.6938082,9.31806667 85.673863,9.15246667 85.673863,8.9608 L85.673863,8.02623333 C85.673863,6.76736667 84.9949589,6.50056667 83.937863,6.50056667 L83.029589,6.50056667 L83.029589,7.12386667 L83.9232877,7.12386667 C84.7318356,7.12386667 85.269589,7.2841 85.269589,8.0109 C85.269589,8.8251 84.6681644,8.9516 83.875726,8.9516 L81.5444384,8.9516 L81.5444384,5.91176667 C80.2173151,6.00606667 78.717589,7.25803333 78.717589,9.57413333 L80.8540274,9.57413333 L80.8540274,10.327 C80.8540274,10.5025667 80.9092603,11.1711 80.4965479,11.2539 L80.4965479,11.5904667 C80.7681096,11.5559667 81.1838904,11.3896 81.3672329,11.0116333 C81.5283288,10.6819667 81.5444384,10.4404667 81.5444384,9.57413333 L85.0340822,9.57413333 C85.0647671,9.65616667 85.1023562,9.72976667 85.1537534,9.8095 C85.3754521,10.1468333 85.7728219,10.2986333 86.227726,10.2986333 C86.6895342,10.2986333 87.0823014,10.1468333 87.3016986,9.8095 C87.490411,9.52353333 87.5126575,9.23986667 87.5126575,8.8941 L87.5134247,4.6713 L86.7869589,4.6713 Z M80.8540274,8.9516 L79.3596712,8.9516 L79.3596712,8.82816667 C79.3596712,7.41136667 80.3469589,6.5872 80.8540274,6.4377 L80.8540274,8.9516 Z" id="Fill-38" fill="#2F3163"></path>
            <path d="M28.7886027,6.22916667 L28.7886027,8.9516 C28.7886027,9.15016667 28.7686575,9.31116667 28.7057534,9.43076667 C28.628274,9.57106667 28.4963288,9.68606667 28.2370411,9.68606667 C27.9808219,9.68606667 27.844274,9.57106667 27.7652603,9.43076667 C27.7008219,9.31116667 27.6808767,9.15016667 27.6808767,8.9516 L27.6808767,5.9064 C25.9448767,6.08733333 24.8210411,7.58846667 24.8210411,9.57413333 L27.0380274,9.57413333 C27.0694795,9.6508 27.1070685,9.72516667 27.1569315,9.8003 C27.3770959,10.1384 27.7736986,10.2894333 28.2324384,10.2894333 C28.6942466,10.2894333 29.0831781,10.1384 29.3041096,9.8003 C29.4928219,9.51586667 29.5150685,9.2322 29.5150685,8.88643333 L29.5150685,6.22916667 L28.7886027,6.22916667 Z M26.9498082,8.9516 L25.4638904,8.9516 L25.4638904,8.84656667 C25.4638904,7.45813333 26.4435068,6.58106667 26.9498082,6.43156667 L26.9498082,8.9516 Z" id="Fill-39" fill="#2F3163"></path>
            <path d="M59.5372055,6.22916667 L59.5372055,8.9516 C59.5372055,9.14786667 59.5195616,9.30886667 59.4551233,9.42693333 C59.3738082,9.568 59.2410959,9.6807 58.9818082,9.6807 C58.725589,9.6807 58.5875068,9.568 58.5092603,9.42693333 C58.4471233,9.3081 58.4225753,9.16243333 58.4225753,8.9516 L58.4225753,6.22916667 L57.6945753,6.22916667 L57.6945753,8.9516 C57.6945753,9.15016667 57.6761644,9.31116667 57.6147945,9.43076667 C57.5357808,9.57106667 57.3961644,9.68606667 57.1345753,9.68606667 C56.8798904,9.68606667 56.7448767,9.57106667 56.6635616,9.43076667 C56.6006575,9.31116667 56.5799452,9.15016667 56.5799452,8.9516 L56.5845479,5.9064 C54.8523836,6.08733333 53.7170411,7.58846667 53.7170411,9.57413333 L55.9539726,9.57413333 C55.9831233,9.6508 56.0199452,9.72516667 56.0675068,9.8003 C56.2907397,10.1384 56.6804384,10.2894333 57.1399452,10.2894333 C57.5089315,10.2894333 57.8326575,10.1936 58.0604932,9.982 C58.2875616,10.1897667 58.6174247,10.2879 58.9818082,10.2879 C59.4413151,10.2879 59.8294795,10.1368667 60.0527123,9.8003 C60.2414247,9.5128 60.2644384,9.2299 60.2644384,8.88183333 L60.2644384,6.22916667 L59.5372055,6.22916667 Z M55.8565479,8.9516 L54.3629589,8.9516 L54.3629589,8.84656667 C54.3629589,7.45813333 55.3487123,6.58106667 55.8565479,6.43156667 L55.8565479,8.9516 Z" id="Fill-40" fill="#2F3163"></path>
            <path d="M108.949918,4.6713 L108.949918,8.9608 C108.949918,9.1563 108.928438,9.31806667 108.865534,9.43536667 C108.788822,9.5772 108.652274,9.69296667 108.387616,9.69296667 C108.132932,9.69296667 107.993315,9.5772 107.916603,9.43536667 C107.853699,9.31806667 107.833753,9.15323333 107.833753,8.9608 L107.833753,8.02623333 C107.833753,6.76736667 107.160986,6.50056667 106.102356,6.50056667 L105.195616,6.50056667 L105.195616,7.12386667 L106.089315,7.12386667 C106.894795,7.12386667 107.437151,7.2841 107.437151,8.0109 C107.437151,8.8251 106.831123,8.9516 106.040219,8.9516 L103.49337,8.9516 C103.797151,8.7952 103.983562,8.4364 103.983562,7.8545 C103.983562,7.26416667 103.662137,6.50056667 102.321973,6.50056667 L101.493479,6.50056667 L101.493479,4.6713 L100.75474,4.6713 L100.75474,8.9516 L99.5411507,8.9516 L99.5411507,5.90946667 C98.1595616,6.0191 96.7112329,7.2887 96.7112329,9.57413333 L98.8499726,9.57413333 L98.8499726,10.327 C98.8499726,10.7456 98.8246575,11.1849 98.4947945,11.2523667 L98.4947945,11.5874 C98.7640548,11.5544333 99.1798356,11.3896 99.3616438,11.0078 C99.5227397,10.6804333 99.5403836,10.4404667 99.5403836,9.57413333 L107.20011,9.57413333 C107.226192,9.65616667 107.266849,9.72976667 107.319014,9.8095 C107.538411,10.1468333 107.929644,10.2986333 108.387616,10.2986333 C108.852493,10.2986333 109.24526,10.1468333 109.464658,9.8095 C109.650301,9.52353333 109.675616,9.23986667 109.675616,8.8941 L109.675616,4.6713 L108.949918,4.6713 Z M98.8499726,8.9516 L97.3586849,8.9516 L97.3586849,8.82816667 C97.3586849,7.45276667 98.3452055,6.58643333 98.8499726,6.4354 L98.8499726,8.9516 Z M102.458521,8.9516 L101.493479,8.9516 L101.493479,7.12003333 L102.473096,7.12003333 C103.285479,7.12003333 103.580822,7.52866667 103.580822,7.96413333 C103.580822,8.4962 103.291616,8.9516 102.458521,8.9516 Z" id="Fill-41" fill="#2F3163"></path>
            <path d="M77.0951233,6.2238 L77.0951233,8.94776667 C77.0951233,9.14326667 77.0774795,9.30656667 77.0138082,9.42233333 C76.9355616,9.5634 76.8020822,9.67533333 76.5427945,9.67533333 C76.2865753,9.67533333 76.1515616,9.5634 76.0725479,9.42233333 C76.0081096,9.30656667 75.9873973,9.14326667 75.9873973,8.94776667 L75.9873973,5.89796667 C74.2567671,6.07813333 73.1221918,7.58233333 73.1221918,9.568 L75.3537534,9.568 C75.3829041,9.6462 75.4189589,9.72056667 75.4688219,9.7957 C75.6920548,10.1322667 76.0817534,10.281 76.539726,10.281 C77,10.281 77.3904658,10.1322667 77.6129315,9.7957 C77.8062466,9.5082 77.8261918,9.223 77.8261918,8.878 L77.8261918,6.2238 L77.0951233,6.2238 Z M75.2632329,8.94776667 L73.7635068,8.94776667 L73.7635068,8.83966667 C73.7635068,7.45276667 74.753863,6.57646667 75.2632329,6.42466667 L75.2632329,8.94776667 Z" id="Fill-42" fill="#2F3163"></path>
            <polyline id="Fill-43" fill="#2F3163" points="29.2151233 11.1711 28.790137 10.6873333 28.3666849 11.1711 28.790137 11.6556333 29.2151233 11.1711"></polyline>
            <polyline id="Fill-44" fill="#2F3163" points="28.1066301 11.1711 27.6808767 10.6873333 27.2512877 11.1711 27.6808767 11.6556333 28.1066301 11.1711"></polyline>
            <polyline id="Fill-45" fill="#2F3163" points="27.6900822 5.07916667 27.259726 4.59386667 26.8332055 5.07916667 27.259726 5.56216667 27.6900822 5.07916667"></polyline>
            <polyline id="Fill-46" fill="#2F3163" points="26.5723836 5.07916667 26.1481644 4.59386667 25.7216438 5.07916667 26.1481644 5.56216667 26.5723836 5.07916667"></polyline>
            <polyline id="Fill-47" fill="#2F3163" points="56.5891507 5.07073333 56.1633973 4.58313333 55.7391781 5.07073333 56.1633973 5.5499 56.5891507 5.07073333"></polyline>
            <polyline id="Fill-48" fill="#2F3163" points="55.4791233 5.07073333 55.0510685 4.58313333 54.6276164 5.07073333 55.0510685 5.5499 55.4791233 5.07073333"></polyline>
            <polyline id="Fill-49" fill="#2F3163" points="58.1187945 11.178 57.6915068 10.6942333 57.2642192 11.178 57.6915068 11.6633 58.1187945 11.178"></polyline>
            <polyline id="Fill-50" fill="#2F3163" points="57.0095342 11.178 56.5814795 10.6942333 56.1572603 11.178 56.5814795 11.6633 57.0095342 11.178"></polyline>
            <polyline id="Fill-51" fill="#2F3163" points="59.9598904 11.178 59.5326027 10.6942333 59.1076164 11.178 59.5326027 11.6633 59.9598904 11.178"></polyline>
            <polyline id="Fill-52" fill="#2F3163" points="75.9950685 5.07073333 75.5677808 4.58313333 75.1450959 5.07073333 75.5677808 5.5499 75.9950685 5.07073333"></polyline>
            <polyline id="Fill-53" fill="#2F3163" points="106.778192 5.15276667 106.355507 4.66516667 105.931288 5.15276667 106.355507 5.6327 106.778192 5.15276667"></polyline>
            <polyline id="Fill-54" fill="#2F3163" points="74.8796712 5.07073333 74.4516164 4.58313333 74.0304658 5.07073333 74.4516164 5.5499 74.8796712 5.07073333"></polyline>
            <polyline id="Fill-55" fill="#2F3163" points="84.6750685 11.178 84.2508493 10.6942333 83.8235616 11.178 84.2508493 11.6633 84.6750685 11.178"></polyline>
            <polyline id="Fill-56" fill="#2F3163" points="77.5193425 11.1711 77.0951233 10.6873333 76.670137 11.1711 77.0951233 11.6556333 77.5193425 11.1711"></polyline>
            <polyline id="Fill-57" fill="#2F3163" points="76.4077808 11.1711 75.9812603 10.6873333 75.5570411 11.1711 75.9812603 11.6556333 76.4077808 11.1711"></polyline>
            <path d="M48.228274,4.6713 L48.228274,8.9608 C48.228274,9.1563 48.2106301,9.32113333 48.1484932,9.43536667 C48.0702466,9.5772 47.9352329,9.69296667 47.6774795,9.69296667 C47.4181918,9.69296667 47.2816438,9.5772 47.2026301,9.43536667 C47.1404932,9.32113333 47.1213151,9.1563 47.1213151,8.9608 L47.1213151,6.49673333 L46.3887123,6.49673333 L46.3887123,8.9516 L45.4704658,8.9516 L45.4704658,6.50056667 L44.7432329,6.50056667 L44.7432329,8.9516 L43.8249863,8.9516 L43.8249863,6.49673333 L43.0969863,6.49673333 L43.0969863,8.9516 L40.2847123,8.9516 C39.4730959,8.89103333 39.2836164,8.41493333 39.2836164,7.9764 C39.2836164,7.35693333 39.7845479,7.11696667 40.332274,7.11696667 L41.5266849,7.11696667 L41.5266849,6.49673333 L40.4657534,6.49673333 C39.604274,6.49673333 38.8839452,6.8862 38.8839452,7.86906667 C38.8839452,8.5077 39.1447671,8.7952 39.3726027,8.9516 L37.5276712,8.9516 L37.5276712,5.90946667 C35.9305205,6.12796667 34.6632329,7.4313 34.6632329,9.57413333 L36.8027397,9.57413333 L36.8027397,10.327 C36.8027397,10.6175667 36.8311233,11.1734 36.4460274,11.2523667 L36.4460274,11.5874 C36.7145205,11.5544333 37.1502466,11.3566333 37.3435616,11.0001333 C37.4962192,10.7226 37.5276712,10.4680667 37.5276712,9.88386667 L37.5276712,9.57413333 L46.48,9.57413333 C46.5083836,9.6508 46.5475068,9.72976667 46.5966027,9.8095 C46.8198356,10.1468333 47.2156712,10.2986333 47.6774795,10.2986333 C48.1339178,10.2986333 48.5251507,10.1468333 48.7483836,9.8095 C48.9347945,9.52353333 48.9555068,9.23986667 48.9555068,8.8941 L48.9555068,4.6713 L48.228274,4.6713 Z M36.8027397,8.9516 L35.3045479,8.9516 L35.3045479,8.83583333 C35.3045479,7.4382 36.2979726,6.58643333 36.8027397,6.4354 L36.8027397,8.9516 Z" id="Fill-58" fill="#2F3163"></path>
        </g>
    </g>
</svg>