<?xml version="1.0" encoding="utf-8"?>
<!-- Generator: Adobe Illustrator 22.1.0, SVG Export Plug-In . SVG Version: 6.00 Build 0)  -->
<svg version="1.1" id="Слой_1" xmlns="http://www.w3.org/2000/svg" xmlns:xlink="http://www.w3.org/1999/xlink" x="0px" y="0px"
	 width="283.464px" height="81.196px" viewBox="0 0 283.464 81.196" enable-background="new 0 0 283.464 81.196"
	 xml:space="preserve">
<g>
	<path fill="#F47C2E" d="M30.043,0h0.34c-0.025,5.703-0.058,11.411,0.108,17.113c0.991,0.022,1.985,0.022,2.976-0.019
		c-0.188-4.103-1.287-8.097-1.619-12.186c4.141-0.149,8.302,0.875,11.987,2.749c0.924,0.454,1.852,1.135,2.937,0.997
		c2.146-0.216,4.288-0.482,6.425-0.767c-2.383,2.829-5.163,5.296-7.662,8.022c-0.781,0.875-1.73,1.603-2.411,2.558
		c-0.515,1.351-0.216,2.849-0.1,4.249c1.185-1.11,2.157-2.414,3.098-3.729c1.055-1.509,2.333-2.849,3.364-4.377
		c0.404-0.515,0.722-1.135,1.273-1.514c0.487-0.127,0.783,0.368,1.096,0.648c2.109,2.359,3.828,5.074,4.972,8.031
		c0.399,1.033,0.656,2.115,1.046,3.153c0.246,0.795,1.024,1.196,1.636,1.672c1.401,1.052,2.802,2.104,4.152,3.219
		c-7.837,0.152-15.676-0.105-23.51,0.175c1.522,0.875,2.702,2.173,3.845,3.477c4.858-0.797,9.761-1.29,14.644-1.899
		c0.208,3.66-0.579,7.35-1.998,10.718c-0.363,0.886-0.936,1.686-1.18,2.619c-0.113,2.597,0.833,5.121,0.664,7.72
		c-2.873-2.738-5.683-5.55-8.443-8.402c-1.151-1.11-2.173-2.381-3.521-3.264c-0.526,0.85-1.057,1.697-1.592,2.544
		c2.779,2.436,5.78,4.606,8.678,6.896c-2.688,2.876-6.032,5.137-9.653,6.671c-1.143,0.526-2.657,0.426-3.419,1.586
		c-1.237,1.683-2.527,3.325-3.784,4.994c-0.094-5.274,0.077-10.55-0.091-15.82c-1.016-0.039-2.032,0.008-3.04,0.141
		c-0.03,0.927,0.033,1.855,0.208,2.765c0.49,2.633,0.631,5.318,1.154,7.948c-4.761,0.371-9.531-0.919-13.708-3.158
		c-0.36-0.166-0.736-0.349-1.143-0.335c-2.248,0.069-4.44,0.67-6.688,0.692c3.117-3.347,6.497-6.447,9.728-9.689
		c-0.448-0.211-0.903-0.418-1.351-0.626c-0.058-0.725-0.133-1.45-0.202-2.176c-2.145,2.522-3.892,5.357-6.043,7.879
		c-3.513-3.211-5.988-7.483-7.308-12.039c-0.213-0.659-0.349-1.42-0.958-1.841c-1.608-1.276-3.275-2.48-4.95-3.668v-0.18
		c7.101-0.077,14.206,0.125,21.304-0.122c-0.814-1.13-1.694-2.206-2.5-3.341c-1.177,0.05-2.345,0.199-3.502,0.412
		c-2.212,0.387-4.471,0.407-6.68,0.819c-1.19,0.224-2.397,0.321-3.599,0.434c-0.272-3.978,0.797-7.95,2.466-11.538
		c0.487-1.08,1.348-2.076,1.318-3.319c-0.047-2.156-0.57-4.282-0.448-6.444c3.997,3.845,7.759,7.931,11.624,11.909
		c0.72-0.759,1.442-1.514,2.195-2.24c-1.73-1.786-3.845-3.125-5.752-4.709c-1.126-0.936-2.328-1.783-3.427-2.754
		c0.922-1.276,2.248-2.156,3.496-3.078c2.688-1.935,5.802-3.195,8.986-4.053c0.615-0.127,0.944-0.709,1.307-1.162
		C27.836,2.882,29.059,1.531,30.043,0L30.043,0z M23.28,11.106c0.446,2.403,0.916,4.814,1.691,7.134
		c0.924-0.138,1.813-0.435,2.663-0.816C26.153,15.339,24.741,13.205,23.28,11.106L23.28,11.106z M36.34,17.393
		c0.911,0.277,1.833,0.628,2.804,0.498c0.454-1.985,1.085-3.945,1.259-5.982C38.873,13.598,37.697,15.566,36.34,17.393L36.34,17.393
		z M25.816,20.826c-1.985,0.911-3.765,2.472-4.584,4.537c-0.543,1.777-0.402,3.914,0.972,5.293
		c2.768,2.879,6.762,3.953,10.098,5.982c1.044,0.551,2.132,1.196,2.685,2.292c0.847,1.34,0.241,3.319-1.163,4.022
		c-1.071,0.745-2.458,0.9-3.707,0.579c-3.264-1.055-5.946-3.82-6.66-7.214c-0.587-0.172-1.199-0.191-1.799-0.075
		c-0.003,2.433-0.083,4.875,0.069,7.308c3.001,0.329,5.653,2.165,8.717,2.082c3.527,0.033,7.156-1.063,9.841-3.402
		c1.381-1.199,2.19-3.02,2.026-4.858c0.18-1.614-0.645-3.172-1.888-4.161c-2.962-2.422-6.583-3.781-9.918-5.583
		c-1.176-0.631-2.239-1.68-2.478-3.04c-0.033-1.163,0.753-2.381,1.888-2.729c1.816-0.775,4.003-0.637,5.702,0.376
		c1.694,1.182,2.685,3.062,3.35,4.969c0.584,0.39,1.309,0.241,1.96,0.166c-0.329-2.182-0.388-4.38-0.606-6.569
		c-1.215-0.191-2.433-0.371-3.615-0.711C33.115,19.178,29.248,19.422,25.816,20.826L25.816,20.826z M11.623,23.286
		c1.063,0.991,2.361,1.669,3.532,2.522c1.099,0.72,2.159,1.503,3.297,2.165c0.13-1.005,0.208-2.018,0.299-3.025
		C16.373,24.399,14.042,23.632,11.623,23.286L11.623,23.286z M47.274,24.308c-1.334,0.357-2.724,0.484-4.042,0.908
		c-0.111,1.113-0.113,2.231,0.003,3.341c1.741-0.764,3.233-1.968,4.916-2.843c1.141-0.725,2.461-1.207,3.402-2.209
		C50.09,23.544,48.692,24.001,47.274,24.308L47.274,24.308z M15.598,37.717c-1.323,0.905-2.766,1.636-3.997,2.669
		c1.65-0.2,3.266-0.628,4.9-0.93c0.869-0.285,1.852-0.285,2.649-0.739c0.135-1.052-0.011-2.115-0.011-3.172
		C17.879,36.134,16.774,36.986,15.598,37.717L15.598,37.717z M44.672,35.716c0.099,1.011,0.099,2.024,0.102,3.037
		c0.202,0.376,0.717,0.282,1.066,0.421c2.057,0.471,4.144,0.778,6.212,1.191c-1.179-1.085-2.674-1.722-3.986-2.619
		C46.931,37.075,45.91,36.192,44.672,35.716L44.672,35.716z M36.819,47.132c0.595,1.263,1.564,2.287,2.284,3.471
		c0.363,0.606,0.781,1.179,1.268,1.692c-0.307-2.015-0.689-4.056-1.412-5.966C38.192,46.24,37.494,46.816,36.819,47.132
		L36.819,47.132z M24.453,46.838c-0.304,1.819-0.786,3.61-0.886,5.459c1.102-1.545,2.148-3.15,3.001-4.842
		C25.868,47.231,25.162,47.029,24.453,46.838L24.453,46.838z M218.979,53.523c0.687,0.014,1.373,0.017,2.062,0.011
		c0.163,6.422,0.061,12.847,0.091,19.27c-0.033,2.583,0.075,5.166-0.083,7.745c-0.695,0.13-1.401,0.139-2.093,0.022
		c-0.066-7.48-0.008-14.96-0.033-22.439C218.921,56.596,218.891,55.06,218.979,53.523L218.979,53.523z M202.48,53.811
		c0.637-0.454,1.531-0.202,2.259-0.099c-0.011,1.01-0.014,2.021-0.005,3.034c-0.767,0.186-1.558,0.164-2.334,0.064
		C202.416,55.81,202.297,54.8,202.48,53.811L202.48,53.811z M227.305,53.654c0.734-0.086,1.475-0.094,2.212-0.022
		c0.089,1.091,0.155,2.198-0.055,3.28c-0.706-0.003-1.409,0-2.109,0.011C227.255,55.835,227.211,54.742,227.305,53.654
		L227.305,53.654z M213.294,60.876c0.728-0.133,1.473-0.1,2.209-0.138c0.044,0.703,0.055,1.409,0.041,2.115
		c-2.854-0.022-5.462,2.043-6.25,4.75c-0.592,2.145-0.224,4.396-0.316,6.585c-0.105,2.123-0.052,4.246-0.066,6.37
		c-0.714,0.094-1.431,0.094-2.14,0.005c-0.094-5.816,0.036-11.635-0.044-17.453c-0.003-0.634,0.027-1.268,0.061-1.899
		c0.687-0.094,1.384-0.105,2.076-0.041c0.041,1.207,0.113,2.411,0.133,3.618C209.897,63.019,211.345,61.449,213.294,60.876
		L213.294,60.876z M182.841,65.084c1.141-2.126,3.153-3.884,5.606-4.197c2.3-0.202,5.032-0.255,6.729,1.597
		c1.633,1.822,1.265,4.468,1.281,6.722c0.199,3.806-0.1,7.624,0.288,11.421c-0.698,0.011-1.392-0.005-2.087-0.047
		c-0.099-0.681-0.219-1.359-0.343-2.032c-1.548,0.728-2.931,1.828-4.596,2.284c-1.442,0.395-3.034,0.568-4.498,0
		c-1.173-0.455-2.229-1.373-2.771-2.564c-0.518-1.185-0.484-2.527-0.352-3.787c0.174-1.739,1.522-3.106,2.973-3.937
		c2.912-1.553,6.242-1.907,9.368-2.837c0.02-1.442,0.02-3.125-1.127-4.183c-1.198-1.03-2.953-1.027-4.435-0.808
		c-2.007,0.318-3.518,1.81-4.637,3.405C183.768,65.784,183.3,65.438,182.841,65.084L182.841,65.084z M188.919,71.06
		c-1.691,0.714-3.685,1.431-4.468,3.25c-0.471,1.368-0.291,3.125,0.941,4.047c0.886,0.986,2.334,0.861,3.524,0.709
		c1.957-0.543,3.85-1.536,5.246-3.031c0.266-2.065,0.172-4.18,0.053-6.259C192.402,69.936,190.63,70.454,188.919,71.06
		L188.919,71.06z M237.252,61.529c1.412-0.767,3.073-0.792,4.637-0.653c2.07,0.111,3.878,1.841,4.185,3.876
		c0.476,2.469,0.194,5.002,0.266,7.499c-0.216,2.765,0.149,5.536-0.111,8.299c-0.692,0.108-1.395,0.105-2.084-0.003
		c-0.017-4.429,0.008-8.861,0-13.29c-0.064-1.271-0.268-2.641-1.102-3.651c-1.118-1.033-2.81-1.229-4.23-0.808
		c-1.522,0.399-2.705,1.503-3.823,2.547c-0.421,0.468-1.035,0.928-0.961,1.631c-0.011,4.512,0.008,9.027-0.003,13.539
		c-0.758,0.155-1.531,0.144-2.281-0.014c0.011-6.42,0.033-12.839-0.011-19.259c0.761-0.1,1.531-0.1,2.295-0.011
		c-0.008,0.844-0.014,1.691,0.047,2.536C235.254,63.19,236.068,62.091,237.252,61.529L237.252,61.529z M252.203,62.365
		c1.852-1.586,4.462-1.816,6.774-1.37c1.99,0.476,3.59,1.968,4.476,3.779c0.869,1.899,1.254,4.003,1.08,6.088
		c-4.399,0.191-8.803,0.044-13.202,0.08c-0.011,0.941-0.055,1.893,0.1,2.829c0.23,1.581,1.129,3.001,2.27,4.091
		c1.376,1.296,3.446,1.581,5.234,1.174c1.869-0.543,3.031-2.212,4.075-3.737c0.631,0.26,1.257,0.548,1.86,0.875
		c-1.107,2.09-2.787,3.882-5.124,4.659c-1.499,0.498-3.214,0.41-4.739,0c-1.89-0.508-3.61-1.583-4.57-3.294
		c-1.298-2.342-1.741-5.105-1.575-7.756C249.15,67.06,249.983,64.148,252.203,62.365L252.203,62.365z M255.204,62.839
		c-2.533,0.872-4.119,3.682-3.889,6.301c3.679,0.036,7.363,0.05,11.042-0.006c-0.058-1.678-0.664-3.314-1.62-4.681
		C259.512,62.756,257.14,62.243,255.204,62.839L255.204,62.839z M269.571,61.748c1.63-1.038,3.665-1.013,5.522-0.867
		c2.057,0.319,4.188,1.492,5.005,3.499c-0.471,0.327-0.919,0.689-1.44,0.928c-0.481-0.053-0.753-0.504-1.077-0.8
		c-1.47-1.733-4.097-2.417-6.193-1.512c-1.489,0.628-2.369,2.583-1.594,4.05c1.06,1.456,2.912,1.918,4.565,2.35
		c1.916,0.559,4.003,1.085,5.398,2.619c1.462,1.6,1.514,4.136,0.548,6.001c-0.803,1.487-2.392,2.348-3.939,2.815
		c-1.37,0.414-2.802,0.291-4.188,0c-2.223-0.467-4.227-1.869-5.409-3.826c0.534-0.371,1.077-0.731,1.622-1.088
		c0.95,1.18,1.996,2.397,3.485,2.887c2.004,0.736,4.67,0.59,6.082-1.204c1.162-1.329,1.032-3.668-0.515-4.651
		c-2.497-1.6-5.675-1.6-8.197-3.15C266.421,68.062,266.842,63.376,269.571,61.748L269.571,61.748z M200.416,61.214
		c0.775-0.077,1.556-0.061,2.334,0.031c-0.056,6.419-0.033,12.839-0.014,19.256c-0.764,0.169-1.547,0.183-2.314,0.041
		c-0.196-4.88-0.047-9.772-0.099-14.658C200.314,64.325,200.305,62.769,200.416,61.214L200.416,61.214z M225.313,61.203
		c0.731-0.066,1.464-0.044,2.198,0.03c0.172,4.222,0.025,8.452,0.072,12.678c-0.039,2.201,0.089,4.407-0.075,6.608
		c-0.728,0.116-1.467,0.141-2.198,0.047C225.299,74.111,225.299,67.658,225.313,61.203L225.313,61.203z"/>
	<path fill="#0A3B82" d="M234.192,11.079c1.29-0.022,2.58-0.02,3.87,0c0.036,2.918-0.036,5.835,0.042,8.753
		c2.012-0.044,4.03-0.066,6.046,0.003c0.016,1.043,0.022,2.087-0.011,3.131c-2.018,0.05-4.039-0.005-6.057,0.028
		c-0.02,6.619-0.022,13.238,0.003,19.854c0.296,0.274,0.581,0.565,0.905,0.811c1.764,0.321,3.557-0.033,5.332,0.114
		c-0.028,0.974-0.03,1.952-0.014,2.926c-1.658,0.57-3.422,0.313-5.138,0.374c-1.6,0.091-3.413-0.368-4.363-1.755
		c-0.396-0.734-0.664-1.553-0.628-2.392c0.011-6.646,0.014-13.29-0.003-19.937c-1.467-0.014-2.934,0.02-4.399-0.025
		c-0.039-1.041-0.036-2.082-0.008-3.123c1.459-0.072,2.923-0.058,4.385-0.008C234.231,16.914,234.153,13.996,234.192,11.079
		L234.192,11.079z M68.363,22.96c1.129-2.013,3.349-3.142,5.55-3.56c1.462-0.113,2.937-0.152,4.396,0.02
		c2.782,0.684,5.531,2.087,7.17,4.515c-0.88,0.77-1.763,1.534-2.61,2.342c-1.326-1.73-3.098-3.311-5.329-3.646
		c-1.766-0.44-3.754-0.114-5.224,0.974c-1.096,1.119-1.6,3.031-0.684,4.407c1.179,1.434,3.062,1.877,4.731,2.483
		c2.882,0.836,5.96,1.581,8.266,3.624c2.81,2.663,2.738,7.671-0.028,10.342c-1.359,1.451-3.327,2.062-5.196,2.544
		c-1.276,0.116-2.566,0.064-3.845,0.042c-1.603-0.227-3.148-0.772-4.623-1.434c-1.68-0.855-3.103-2.14-4.341-3.549
		c0.861-0.903,1.968-1.506,2.926-2.295c1.16,1.467,2.539,2.84,4.344,3.468c1.39,0.684,2.976,0.584,4.479,0.526
		c1.315,0.014,2.563-0.637,3.507-1.514c0.795-1.002,1.517-2.364,1.052-3.662c-0.714-2.284-3.255-3.175-5.348-3.743
		c-3.245-1.093-7.076-1.661-9.227-4.631C67.095,28.009,67.214,25.177,68.363,22.96L68.363,22.96z M115.129,23.309
		c1.716-1.725,3.707-3.311,6.12-3.895c2.162-0.23,4.523-0.246,6.389,1.038c2.251,1.298,3.089,4.016,3.142,6.477
		c0.064,6.511-0.025,13.024,0.044,19.535c-1.254,0.077-2.508,0.055-3.759,0.036c-0.028-6.555-0.003-13.113-0.011-19.668
		c-0.066-1.456-0.506-3.147-1.921-3.851c-1.071-0.462-2.303-0.731-3.452-0.401c-2.059,0.376-3.864,1.547-5.478,2.826
		c-0.468,0.49-1.232,0.93-1.118,1.716c0.014,6.453-0.008,12.908,0.011,19.361c-1.271,0.041-2.541,0.041-3.812,0.016
		c-0.008-8.889-0.011-17.777,0.003-26.664c1.271-0.064,2.547-0.091,3.818,0.025C115.082,21.011,115.06,22.162,115.129,23.309
		L115.129,23.309z M140.701,25.277c1.296-3.02,4.136-5.351,7.397-5.882c1.464-0.119,2.934-0.1,4.399,0.017
		c2.314,0.54,4.487,1.882,5.774,3.911c0.714,0.986,1.107,2.154,1.702,3.209c-1.165,0.379-2.289,0.883-3.474,1.204
		c-0.742-1.735-1.608-3.643-3.407-4.507c-2.223-1.268-5.149-0.913-7.12,0.667c-2.065,1.802-2.613,4.628-3.061,7.2
		c-0.31,2.993,0.099,6.065,1.24,8.855c1.066,2.323,3.521,4.139,6.159,3.848c2.015,0.166,4.031-0.653,5.34-2.198
		c0.844-0.706,1.074-1.919,1.894-2.608c1.013,0.368,1.974,0.872,2.998,1.218c-1.581,2.621-3.502,5.404-6.577,6.353
		c-1.774,0.725-3.715,0.498-5.581,0.471c-2.093-0.426-4.172-1.331-5.631-2.934c-2.178-2.237-3.056-5.357-3.504-8.366
		c-0.019-1.766-0.047-3.535,0.017-5.298C139.636,28.693,139.871,26.88,140.701,25.277L140.701,25.277z M170.604,19.455
		c1.606-0.205,3.245-0.177,4.858-0.031c2.491,0.631,4.861,2.096,6.165,4.363c1.442,2.057,1.946,4.568,2.364,6.998
		c0.385,3.336-0.086,6.752-1.315,9.877c-1.221,2.669-3.338,5.127-6.253,5.938c-1.52,0.656-3.189,0.46-4.797,0.454
		c-3.297-0.415-6.284-2.558-7.715-5.564c-1.046-2.328-1.852-4.861-1.702-7.441c0.033-1.287-0.061-2.58,0.041-3.862
		c0.274-1.318,0.559-2.641,1.057-3.892C164.364,22.965,167.188,20.263,170.604,19.455L170.604,19.455z M172.013,22.558
		c-2.461,0.288-4.379,2.245-5.149,4.518c-0.775,1.669-0.742,3.53-0.999,5.315c-0.166,1.301,0.219,2.58,0.252,3.878
		c0.263,2.68,1.503,5.459,3.931,6.835c1.356,0.908,3.073,0.717,4.617,0.609c1.99-0.482,3.618-2.01,4.393-3.892
		c1.492-2.804,1.129-6.051,1.132-9.105c-0.268-2.765-1.307-5.727-3.715-7.33C175.138,22.65,173.53,22.212,172.013,22.558
		L172.013,22.558z M212.606,23.325c2.076-2.204,4.836-4.219,8.017-4.033c2.264-0.094,4.684,0.742,6.084,2.597
		c1.221,1.553,1.511,3.587,1.669,5.497c0.005,6.373,0.011,12.745-0.005,19.117c-1.29,0.019-2.577,0.016-3.864-0.003
		c-0.025-6.646-0.008-13.293-0.008-19.939c-0.064-1.323-0.507-2.815-1.755-3.488c-0.952-0.518-2.101-0.748-3.175-0.582
		c-2.68,0.44-5.027,2.032-6.948,3.887c-0.058,6.707,0.002,13.415-0.028,20.122c-1.268,0.019-2.536,0.031-3.804-0.019
		c0.011-8.872,0.019-17.744-0.003-26.616c1.265-0.13,2.541-0.069,3.812-0.039C212.606,20.992,212.6,22.157,212.606,23.325
		L212.606,23.325z M254.951,20.731c1.567-0.958,3.397-1.567,5.251-1.354c0.025,1.262,0.042,2.525-0.041,3.784
		c-1.384,0.066-2.865,0.124-4.014,0.997c-2.07,1.226-3.267,3.408-4.122,5.575c-0.241,0.783-0.736,1.511-0.67,2.364
		c0,4.8,0.014,9.603-0.006,14.406c-1.254,0.014-2.511,0.036-3.765-0.039c0.069-8.886-0.008-17.772,0.039-26.655
		c1.226-0.028,2.455-0.011,3.687-0.033c0.113,1.733-0.017,3.471,0.094,5.207C252.374,23.405,253.42,21.825,254.951,20.731
		L254.951,20.731z M25.816,20.826c3.432-1.404,7.299-1.647,10.89-0.736c1.182,0.34,2.4,0.52,3.615,0.711
		c0.219,2.19,0.277,4.388,0.606,6.569c-0.651,0.075-1.376,0.224-1.96-0.166c-0.664-1.907-1.655-3.787-3.35-4.969
		c-1.7-1.013-3.887-1.151-5.702-0.376c-1.135,0.349-1.921,1.567-1.888,2.729c0.238,1.359,1.301,2.408,2.478,3.04
		c3.336,1.802,6.956,3.161,9.918,5.583c1.243,0.988,2.068,2.547,1.888,4.161c0.164,1.838-0.645,3.66-2.026,4.858
		c-2.685,2.339-6.314,3.435-9.841,3.402c-3.065,0.083-5.716-1.752-8.717-2.082c-0.152-2.433-0.072-4.875-0.069-7.308
		c0.601-0.116,1.212-0.097,1.799,0.075c0.714,3.394,3.397,6.159,6.66,7.214c1.248,0.321,2.635,0.166,3.707-0.579
		c1.404-0.703,2.01-2.682,1.163-4.022c-0.554-1.096-1.642-1.741-2.685-2.292c-3.336-2.029-7.33-3.103-10.098-5.982
		c-1.373-1.378-1.515-3.516-0.972-5.293C22.051,23.297,23.83,21.736,25.816,20.826L25.816,20.826z M89.456,19.779
		c1.179,0.014,2.358,0.019,3.538-0.005c0.052,0.509,0.088,1.024,0.088,1.536c-0.016,5.913,0.003,11.826-0.011,17.739
		c0.058,1.484,0.415,3.122,1.639,4.094c1.166,0.902,2.741,0.637,4.111,0.57c2.447-0.615,4.623-2.093,6.306-3.953
		c0.053-0.329,0.078-0.661,0.069-0.994c-0.019-6.309-0.014-12.617-0.003-18.926c1.199-0.066,2.398-0.061,3.596-0.008
		c0.006,8.891,0.014,17.78-0.003,26.669c-1.198,0.022-2.397,0.016-3.596,0.003c-0.017-1.152,0.014-2.306-0.042-3.455
		c-0.991,0.689-1.736,1.678-2.768,2.317c-1.174,0.756-2.469,1.365-3.837,1.669c-1.514,0.044-3.114,0.224-4.529-0.443
		c-1.797-0.595-3.38-1.943-3.97-3.773c-0.304-1.052-0.717-2.11-0.648-3.225C89.451,32.989,89.335,26.381,89.456,19.779
		L89.456,19.779z M262.254,19.76c1.301,0.036,2.602,0.028,3.903,0.047c2.392,6.799,4.847,13.581,7.159,20.407
		c0.479-0.983,0.759-2.043,1.047-3.095c1.797-5.744,3.513-11.513,5.306-17.26c1.263-0.1,2.53-0.072,3.795-0.053v0.764
		c-1.182,3.042-2.032,6.201-3.081,9.29c-1.827,5.647-3.648,11.303-5.467,16.953c-0.573,1.545-0.889,3.191-1.733,4.623
		c-0.764,1.384-1.669,2.774-3.048,3.615c-2.223,1.561-5.127,1.655-7.696,1.077c-0.028-1.002-0.028-2.002-0.014-3.004
		c1.899,0.064,3.925,0.266,5.664-0.678c1.907-1.223,3.131-3.402,3.374-5.63C268.468,37.775,265.238,28.806,262.254,19.76
		L262.254,19.76z M186.637,19.862c1.268-0.127,2.544-0.064,3.815-0.036c0,6.777,0.006,13.556-0.003,20.333
		c-0.008,1.561,1.082,3.023,2.541,3.538c1.146,0.136,2.331,0.177,3.469-0.061c2.093-0.731,4.025-1.926,5.583-3.51
		c0.315-0.277,0.304-0.7,0.313-1.085c-0.005-6.4-0.019-12.803,0.006-19.203c1.287-0.066,2.58-0.055,3.87-0.005
		c0.006,8.891,0.014,17.78-0.006,26.672c-1.29,0.016-2.58,0.014-3.867-0.003c-0.011-1.138-0.011-2.278-0.014-3.416
		c-1.783,1.567-3.632,3.184-5.988,3.79c-2.754,0.612-6.079,0.091-7.97-2.179c-1.575-1.663-1.697-4.047-1.741-6.209
		C186.645,32.278,186.665,26.071,186.637,19.862L186.637,19.862z"/>
</g>
</svg>
