<?xml version="1.0" encoding="utf-8"?>
<!-- Generator: Adobe Illustrator 22.1.0, SVG Export Plug-In . SVG Version: 6.00 Build 0)  -->
<svg version="1.1" id="Слой_1" xmlns="http://www.w3.org/2000/svg" xmlns:xlink="http://www.w3.org/1999/xlink" x="0px" y="0px"
	 width="143.588px" height="23px" viewBox="0 0 143.588 23" style="enable-background:new 0 0 143.588 23;" xml:space="preserve">
<style type="text/css">
	.st0{fill:#1D1D1B;}
	.st1{fill:#D4D540;}
	.st2{fill:#8FBD51;}
	.st3{fill:#DA4749;}
	.st4{fill:#FFFFFF;}
	.st5{fill:#BE3B47;}
</style>
<g>
	<polygon class="st0" points="49.059,16.412 50.941,16.412 50.941,8.118 54.118,8.118 54.118,6.588 45.941,6.588 45.941,8.118 
		49.059,8.118 	"/>
	<path class="st0" d="M59.47,13.588l1,2.824h2.059l-3.588-9.824h-2.412l-3.471,9.824h1.941l0.941-2.824H59.47L59.47,13.588z
		 M56.294,12.176l0.882-2.529c0.177-0.529,0.294-1.118,0.471-1.706l0,0C57.824,8.47,58,9.117,58.235,9.706l0.882,2.471h-2.823
		V12.176z"/>
	<path class="st0" d="M63.529,16.412h1.882v-3.647c0.294,0.059,0.647,0.059,1,0.059c1.471,0,2.588-0.353,3.353-1.059
		c0.588-0.529,0.882-1.353,0.882-2.235c0-0.941-0.412-1.706-1-2.176c-0.647-0.529-1.647-0.882-3.059-0.882
		c-1.353,0-2.353,0.118-3.059,0.235L63.529,16.412L63.529,16.412z M65.412,8C65.589,7.941,66,7.941,66.589,7.941
		c1.353,0,2.235,0.471,2.235,1.647c0,1.118-0.941,1.824-2.353,1.824c-0.471,0-0.824-0.059-1.059-0.118L65.412,8L65.412,8z"/>
	<path class="st0" d="M73.823,16.412h1.294V12.53c0.353,0.059,0.765,0.059,1.235,0.059c1.353,0,2.471-0.353,3.235-1.059
		c0.529-0.471,0.823-1.235,0.823-2.118c0-0.882-0.353-1.588-0.941-2.059c-0.588-0.529-1.588-0.882-2.941-0.882
		c-1.176,0-2.059,0.118-2.706,0.235L73.823,16.412L73.823,16.412z M75.118,7.647c0.294-0.059,0.765-0.118,1.412-0.118
		c1.412,0,2.529,0.529,2.529,1.941c0,1.353-1,2.118-2.647,2.118c-0.529,0-0.941-0.059-1.294-0.176V7.647L75.118,7.647z"/>
	<path class="st0" d="M86.294,16.588c2.824,0,5.118-1.941,5.118-5.176c0-2.882-2-5-5-5c-2.941,0-5.118,2.118-5.118,5.176
		C81.294,14.471,83.353,16.588,86.294,16.588L86.294,16.588L86.294,16.588z M86.353,15.529c-2.294,0-3.647-1.824-3.647-3.941
		c0-2.235,1.235-4.118,3.647-4.118s3.647,2,3.647,4C90,13.765,88.588,15.529,86.353,15.529L86.353,15.529L86.353,15.529z"/>
	<path class="st0" d="M92.412,16.412h1.353v-4.235h1.471c1.177,0.059,1.765,0.588,2.059,1.941c0.294,1.235,0.529,2,0.706,2.294
		h1.353c-0.176-0.412-0.471-1.353-0.824-2.765c-0.235-0.941-0.706-1.647-1.471-1.941l0,0C98.118,11.353,99,10.471,99,9.177
		c0-0.765-0.294-1.412-0.765-1.824c-0.647-0.588-1.588-0.882-3.059-0.882c-1,0-2.059,0.118-2.765,0.235L92.412,16.412L92.412,16.412
		z M93.765,7.647C94,7.588,94.471,7.529,95.236,7.529c1.353,0,2.471,0.471,2.471,1.824c0,1.118-0.941,1.824-2.412,1.824h-1.529
		v-3.53H93.765z"/>
	<polygon class="st0" points="103.059,16.412 104.412,16.412 104.412,7.706 107.823,7.706 107.823,6.588 99.647,6.588 99.647,7.706 
		103.059,7.706 	"/>
	<path class="st0" d="M108.588,6.588v5.529c0,3.294,1.706,4.471,3.882,4.471c2.353,0,4.118-1.294,4.118-4.471V6.588h-1.294v5.588
		c0,2.294-1.118,3.353-2.765,3.353c-1.529,0-2.588-1.059-2.588-3.353V6.588H108.588L108.588,6.588z"/>
	<path class="st0" d="M126.882,11.235h-3.529v1.059h2.235v2.824c-0.353,0.176-1.059,0.353-2,0.353c-2.706,0-4.294-1.647-4.294-4
		c0-2.235,1.647-3.882,4.412-3.882c1.176,0,1.882,0.176,2.529,0.471l0.353-1.059c-0.471-0.235-1.529-0.529-2.823-0.529
		c-3.824,0-5.882,2.412-5.882,5.059c0,1.471,0.529,2.765,1.412,3.588c1.059,1,2.471,1.412,4.176,1.412
		c1.529,0,2.824-0.412,3.412-0.588L126.882,11.235L126.882,11.235z"/>
	<path class="st0" d="M134.176,13.294l1.177,3.118h1.471l-3.765-9.824h-1.588l-3.765,9.824h1.412l1.118-3.118H134.176
		L134.176,13.294z M130.529,12.235l1.176-2.941c0.176-0.588,0.353-1.118,0.471-1.647h0.059c0.118,0.529,0.294,1.059,0.529,1.647
		l1.118,2.941H130.529L130.529,12.235z"/>
	<polygon class="st0" points="137.588,16.412 143.588,16.412 143.588,15.294 138.941,15.294 138.941,6.588 137.588,6.588 	"/>
	<polygon class="st1" points="10.235,12.294 20.059,12.294 20.059,18.882 10.235,18.882 	"/>
	<polygon class="st1" points="4.941,23 11.47,0 21.353,0 27.882,23 21.353,23 16.412,6.588 11.47,23 	"/>
	<polygon class="st1" points="4.941,23 4.941,6.588 0,6.588 0,0 16.412,0 16.412,6.588 11.47,6.588 11.47,23 	"/>
	<polygon class="st2" points="4.941,23 11.47,23 11.47,6.588 16.412,6.588 16.412,0 11.47,0 	"/>
	<path class="st3" d="M21.353,0h11.471c4.529,0,8.177,3.706,8.177,8.235s-3.706,8.176-8.177,8.176h-4.941v6.588h-6.529V0H21.353z"/>
	<path class="st4" d="M27.882,6.588h4.941c0.882,0,1.588,0.706,1.588,1.647c0,0.882-0.706,1.647-1.588,1.647h-4.941V6.588
		L27.882,6.588z"/>
	<polygon class="st5" points="21.353,23 27.882,23 21.353,0 	"/>
</g>
</svg>
