<?xml version="1.0" encoding="utf-8"?>
<!-- Generator: Adobe Illustrator 22.1.0, SVG Export Plug-In . SVG Version: 6.00 Build 0)  -->
<svg version="1.1" id="Слой_1" xmlns="http://www.w3.org/2000/svg" xmlns:xlink="http://www.w3.org/1999/xlink" x="0px" y="0px"
	 width="966.5px" height="639px" viewBox="0 0 966.5 639" style="enable-background:new 0 0 966.5 639;" xml:space="preserve">
<style type="text/css">
	.st0{fill:#12BB00;}
	.st1{fill:#006BB6;}
	.st2{fill:#FF010A;}
	.st3{fill:#FFE200;}
</style>
<g id="Слой_1_1_">
</g>
<g id="Слой_2_1_">
	<g>
		<path d="M443,573.1c0,0-0.1,0.3-0.2,0.9c-0.1,0.6-0.2,1.5-0.3,2.7c-0.1,1.2-0.3,2.7-0.4,4.5s-0.3,4-0.4,6.5
			c-0.2,3.7-0.3,7.5-0.4,11.5s-0.1,8.1-0.1,12.4h-3v-4.4c-1.8-3.9-5-7.2-9.6-9.8c-4.1-2.4-8.6-3.6-13.4-3.6c-1.7,0-3.5,0.1-5.2,0.4
			c-1.8,0.3-3.6,0.7-5.5,1.2c0.3-0.8,0.6-1.7,0.9-2.5s0.6-1.6,0.9-2.5c0.8-2.1,1.6-4,2.3-5.6c0.7-1.6,1.3-3.1,1.8-4.3
			c1.7-3.8,3-6.3,3.9-7.3h-7.5l2.2-6.8h35.5L443,573.1z M417.3,573.1c-0.6,0.8-1.3,2-2,3.3c-0.7,1.4-1.5,3.1-2.3,5
			c-0.2,0.6-0.5,1.4-0.9,2.2c-0.3,0.9-0.7,1.8-1.1,3c1.3-0.1,2.6-0.2,3.8-0.2c5,0,9.4,1.3,13.1,3.9c2.9,2,5.3,4.7,7.2,8
			c0.5,0.9,1,1.9,1.5,3s1,2.3,1.4,3.5c0-7.7-0.2-14-0.6-18.9c-0.4-4.8-0.8-8.2-1.2-10.1c-0.4-1.9-0.7-2.9-0.8-2.9h-18.1V573.1z"/>
		<path d="M450.7,547.1c-0.6,0.4-1.4,0.8-2.3,1.1c-0.9,0.3-1.8,0.5-2.9,0.7s-2,0.3-2.9,0.4c-0.9,0.1-1.7,0.2-2.4,0.3
			c-1.4,0.2-2.8,0.8-4.2,1.6c-1.4,0.8-2.8,1.9-4.3,3.3c-0.5,0.4-1,1-1.6,1.7s-1.2,1.5-1.9,2.4c0.3,0.3,0.6,0.6,0.8,1
			c0.6,1,0.9,2.2,0.9,3.4h-1.7c-0.5-2-2.2-4.4-5.3-7.2c-1.5-1.3-3-2.5-4.5-3.6s-3.1-2-4.7-2.8c-0.7-0.3-1.5-0.6-2.3-0.8
			s-1.6-0.4-2.5-0.6c-0.8-0.1-1.7-0.2-2.5-0.3s-1.6-0.1-2.3-0.1c-0.3,0-0.6,0-0.8,0c-0.2,0-0.4,0-0.6,0.1c0.1-0.5,0.2-0.9,0.3-1.3
			c0.1-0.4,0.1-0.7,0.2-1c0.2-0.9,0.5-1.7,0.8-2.5s0.7-1.4,1-2.1c2.8,0.3,6.1,1.8,9.8,4.5c1.4,1,2.8,2.1,4.2,3.3
			c1.4,1.2,2.8,2.6,4.2,4c0.6,0.6,1.2,1.3,1.8,1.9c0.6,0.7,1.2,1.3,1.8,1.9c0.6-1.1,1.1-2.1,1.6-3s0.9-1.6,1.3-2.3
			c2.4-3.8,5-6.5,7.7-7.9c1.1,0,2.2,0,3.1,0s1.8-0.1,2.7-0.2c0.8-0.1,1.6-0.2,2.4-0.3s1.6-0.3,2.4-0.5c0.4-0.1,0.9-0.2,1.7-0.3
			s1.8-0.1,2.9-0.2c1.2-0.1,2.2-0.3,3-0.6s1.5-0.8,1.9-1.3c-0.5,1.7-1.5,3.3-3.2,4.8c-0.1,0.1-0.5,0.3-1.1,0.7
			C452.7,545.8,451.8,546.4,450.7,547.1z"/>
		<path d="M483,566.4l-1.8,6.8h-20.4c-0.7,1-1.3,2.1-2,3.4c-0.6,1.3-1.3,2.8-1.9,4.5c-0.2,0.6-0.4,1.3-0.7,2
			c-0.2,0.8-0.5,1.7-0.7,2.7c0.9-0.1,1.8-0.2,2.7-0.3s1.7-0.1,2.5-0.1c7.6,0,13.4,2.8,17.4,8.3c1.6,2.2,2.9,4.9,3.9,8.1
			c1,3.2,1.8,6.9,2.3,11.1c0.6,4.9,0.9,12,0.9,21.3h-2.3c0-4.1-0.1-7.7-0.3-10.9s-0.6-6-1.1-8.5c-0.6-3.4-1.5-6.3-2.7-8.9
			c-1.1-2.6-2.6-4.7-4.2-6.5c-3.9-4.2-9.3-6.2-16.3-6.2c-1.4,0-2.8,0.1-4.2,0.2c-1.4,0.1-2.9,0.4-4.4,0.7c0.9-3.3,1.7-6,2.3-8
			c0.9-2.9,1.8-5.5,2.7-7.6c0.9-2.2,1.7-3.9,2.4-5.3h-5.5l1.9-6.8H483z"/>
		<path d="M494.4,576.2l-6-9.8h12.1L494.4,576.2z"/>
		<path d="M547.5,561.9h9l-1.5,4.5c0,0-0.2,0.8-0.5,2.5s-0.6,4.2-0.8,7.5c-0.2,2.5-0.3,5-0.4,7.6c-0.1,2.6-0.1,5.3-0.1,8h-3
			l-0.1-3.3c-1-1.8-2.5-3.2-4.3-4.3c-2.9-1.8-6.7-2.7-11.3-2.7c-1.8,0-3.3,0.1-4.4,0.4c-0.9,0.2-1.8,0.5-2.6,1
			c-0.8,0.4-1.6,1-2.4,1.7l1.2-5c1.3-1,3.1-1.6,5.3-1.9c0.4,0,0.8-0.1,1.3-0.1s1,0,1.7-0.1c0.2-0.3,0.4-0.6,0.6-0.8
			c0.1-0.3,0.3-0.5,0.4-0.7c0.7-1.3,1-2.5,1-3.7c0-1.1-0.3-2.1-0.9-3.2c-0.6-1-1.6-2-3-2.9h-7.5c-2.2,0-4.2,0.6-5.8,1.8
			s-2.5,2.7-2.5,4.6c0,1.5,0.6,2.9,1.9,4.1c1,0.9,1.7,1.4,2.1,1.4l-3.9,3.3c-0.5-0.5-0.9-1-1.3-1.7c-0.4-0.6-0.7-1.3-0.9-2
			s-0.4-1.5-0.6-2.3c-0.1-0.8-0.2-1.7-0.2-2.5c0-3.3,1.2-6.1,3.5-8.2c2.1-1.9,4.5-2.9,7.3-2.9H540l-2.1,4.5c0.4,0.6,0.8,1.4,1,2.2
			c0.3,0.8,0.4,1.6,0.4,2.4c0,0.7-0.1,1.5-0.3,2.2c-0.2,0.8-0.5,1.6-0.8,2.4c-0.1,0.3-0.3,0.5-0.4,0.9c-0.2,0.3-0.4,0.7-0.6,1.1
			c3.6,0.2,6.6,1.6,9.1,4c0.8,0.8,1.5,1.6,2.1,2.6c0.7,1,1.2,2,1.7,3.2c0-2.3,0-4.3-0.1-6.1s-0.2-3.4-0.4-4.8
			c-0.2-1.4-0.4-2.8-0.6-4c-0.2-1.3-0.5-2.5-0.8-3.7c-0.3-1.5-0.6-2.3-0.7-2.3h-2.2L547.5,561.9z"/>
		<path d="M549.1,591.3l-1.6,4.9c-0.1,0.2-0.3,0.4-0.6,0.4h-18.6c-0.3,0-0.5,0.2-0.6,0.5c-0.1,0.4-0.1,0.8-0.2,1.3
			c-0.1,0.7-0.1,1.4-0.2,2.2c0,0.8-0.1,1.6-0.1,2.4c0,0.6-0.1,1.1-0.1,1.7c0,0.3,0.2,0.6,0.6,0.6h19.6c0.4,0,0.7,0.4,0.5,0.8
			l-1.4,4.2c-0.1,0.2-0.3,0.4-0.5,0.4h-18.5c-0.3,0-0.6,0.2-0.6,0.5s-0.1,0.7-0.1,1.2c0,0.8-0.1,1.8-0.1,3.1v2
			c0,0.4,0.3,0.6,0.7,0.6c0.7-0.1,1.4-0.2,2.1-0.3c0.9-0.1,1.9-0.1,2.9-0.1c5.1,0,9.8,1.2,14.1,3.6c3.8,2.1,6,4.4,6.7,6.8
			c0.1,0.2,0,0.4-0.1,0.5l0,0c-0.2,0.3-0.7,0.3-0.9,0c-1.1-1.5-3.3-2.7-6.6-3.6c-1.9-0.5-3.9-0.9-5.9-1.2s-4.1-0.4-6.3-0.4
			c-4,0-7.2,0.4-9.6,1.3c-0.4,0.1-0.7-0.1-0.8-0.5c0-0.6,0-1.3-0.1-2c0-1.1,0-2.5,0-4.3c0-4.9,0.1-8.9,0.4-12.1
			c0.1-1.6,0.2-3.2,0.4-4.7c0.1-1.3,0.3-2.5,0.5-3.7c0.1-0.4-0.2-0.7-0.6-0.7h-1.2c-0.4,0-0.7-0.4-0.6-0.7l1.5-4.9
			c0.1-0.2,0.3-0.4,0.6-0.4h24.9C549,590.6,549.3,590.9,549.1,591.3z"/>
		<path d="M554,546.3c-0.6,0.4-1.4,0.8-2.3,1.1c-0.9,0.3-1.8,0.5-2.9,0.7c-1.1,0.2-2,0.3-2.9,0.4c-0.9,0.1-1.7,0.2-2.4,0.3
			c-1.4,0.2-2.8,0.8-4.2,1.6s-2.8,1.9-4.3,3.3c-0.5,0.4-1,1-1.6,1.7s-1.2,1.5-1.9,2.4c0.3,0.3,0.6,0.6,0.8,1c0.6,1,0.9,2.2,0.9,3.4
			h-1.7c-0.5-2-2.2-4.4-5.3-7.2c-1.5-1.3-3-2.5-4.5-3.6s-3.1-2-4.7-2.8c-0.7-0.3-1.5-0.6-2.3-0.8s-1.6-0.4-2.5-0.6
			c-0.8-0.1-1.7-0.2-2.5-0.3s-1.6-0.1-2.3-0.1c-0.3,0-0.6,0-0.8,0s-0.4,0-0.6,0.1c0.1-0.5,0.2-0.9,0.3-1.3c0.1-0.4,0.1-0.7,0.2-1
			c0.2-0.9,0.5-1.7,0.8-2.5s0.7-1.4,1-2.1c2.8,0.3,6.1,1.8,9.8,4.5c1.4,1,2.8,2.1,4.2,3.3s2.8,2.6,4.2,4c0.6,0.6,1.2,1.3,1.8,1.9
			c0.6,0.7,1.2,1.3,1.8,1.9c0.6-1.1,1.1-2.1,1.6-3s0.9-1.6,1.3-2.3c2.4-3.8,5-6.5,7.7-7.9c1.1,0,2.2,0,3.1,0c0.9,0,1.8-0.1,2.7-0.2
			c0.8-0.1,1.6-0.2,2.4-0.3c0.8-0.1,1.6-0.3,2.4-0.5c0.4-0.1,0.9-0.2,1.7-0.3s1.8-0.1,2.9-0.2c1.2-0.1,2.2-0.3,3-0.6
			s1.5-0.8,1.9-1.3c-0.5,1.7-1.5,3.3-3.2,4.8c-0.1,0.1-0.5,0.3-1.1,0.7C556,544.9,555.1,545.5,554,546.3z"/>
		<path d="M608.2,606.9c-0.9-0.8-1.9-1.5-2.8-2.4c-0.9-0.8-2-1.6-3.1-2.4c-1.2-0.8-2.5-1.4-4.1-2s-3.5-1-5.7-1.3s-4.9-0.3-8-0.2
			s-6.7,0.6-10.9,1.3c0.1-4,0.2-7.7,0.5-11.2c0.1-1.5,0.2-3,0.3-4.5s0.3-3,0.5-4.4s0.4-2.7,0.6-3.8c0.2-1.2,0.5-2.1,0.8-2.8h-4.1
			l1.9-6.8h29l-1.8,6.7h-21.7c-0.3,0.8-0.6,1.6-0.9,2.6c-0.2,0.9-0.5,1.9-0.6,2.9c-0.2,1-0.3,2.1-0.4,3.1c-0.1,1-0.2,2.1-0.3,3
			c-0.2,2.3-0.3,4.6-0.3,7.1c4.1-0.3,7.7-0.2,10.7,0.1c3,0.4,5.6,0.9,7.7,1.7c2.1,0.8,3.9,1.7,5.4,2.8c1.4,1.1,2.6,2.2,3.6,3.4
			s1.8,2.3,2.5,3.4c0.7,1.1,1.3,2.1,2,2.9L608.2,606.9z"/>
		<path d="M643.5,566.4h9l-1.5,6.8c0,0-0.2,1.3-0.5,3.8s-0.6,6.3-0.8,11.3c-0.2,3.7-0.3,7.5-0.4,11.4c-0.1,3.9-0.1,7.8-0.1,12h-2.7
			l-0.1-6c-2.1-3.1-4.1-5.9-5.9-8.3c-1.9-2.4-3.7-4.5-5.3-6.2c-4-4.2-8.6-7.9-14-11.2c-0.5,0.5-1,1.2-1.6,2c-0.5,0.8-1.1,1.8-1.7,3
			c-0.2,0.4-0.4,0.8-0.6,1.3c-0.2,0.5-0.5,1.1-0.8,1.8c1.8,0.3,3.5,0.8,5,1.5c1.6,0.7,3,1.7,4.3,2.9c2.2,1.9,4.1,4.4,5.6,7.4
			l-0.7,0.7c-0.9-0.9-2-1.7-3.2-2.4s-2.5-1.4-3.9-1.9s-2.8-0.9-4.3-1.2s-2.9-0.4-4.4-0.4c-1.3,0-2.6,0.1-3.8,0.4
			c0.3-0.8,0.6-1.6,0.9-2.3c0.3-0.8,0.6-1.6,0.9-2.3c0.9-2,1.7-3.8,2.4-5.4c0.7-1.6,1.4-3,2-4.2c1-1.9,1.9-3.5,2.8-4.7
			c0.9-1.3,1.6-2.2,2.3-2.9h-9.5l1.9-6.8h21.5l-2.3,6.8h-7.9c4.6,4.9,8.8,10.3,12.6,16.2c1.4,2.2,2.8,4.5,4,6.8s2.4,4.7,3.6,7.1
			c0-3.1-0.1-6-0.2-8.5c-0.1-2.6-0.3-4.9-0.4-7.1c-0.2-2.2-0.4-4.2-0.6-6c-0.3-1.8-0.5-3.5-0.8-5.2c-0.4-2.2-0.6-3.3-0.7-3.3h-2.3
			L643.5,566.4z"/>
		<path d="M661.7,576.2l-6-9.8h12.1L661.7,576.2z"/>
		<path d="M701.7,566.4h9l-1.5,6.8c0,0-0.2,1.3-0.5,3.8s-0.6,6.3-0.8,11.2c-0.2,3.7-0.3,7.5-0.4,11.4c-0.1,3.9-0.1,7.9-0.1,12h-3
			v-4.1c-0.7-0.9-1.4-1.8-2.2-2.7c-0.7-0.9-1.5-1.8-2.2-2.7c-1.2-1.5-2.4-2.8-3.5-4.1s-2.3-2.5-3.3-3.7c-2.7-2.8-4.4-4.4-5.3-4.6
			c0.3,1.2,0.4,2.4,0.4,3.4c0,2.9-0.9,5.2-2.8,6.9c-1.7,1.5-3.7,2.3-6.1,2.3c-1.5,0-2.8-0.2-4.1-0.7c-1.2-0.5-2.3-1.2-3.2-2.1
			c-0.9-0.9-1.6-2.1-2.1-3.4c-0.5-1.3-0.7-2.9-0.7-4.6c0-3.7,1.1-6.5,3.4-8.5c1-0.9,2.1-1.5,3.2-1.9c1.2-0.4,2.4-0.6,3.8-0.6
			c0.6,0,1.1,0,1.7,0.1c0.5,0.1,1,0.2,1.6,0.4c-0.2-0.6-0.3-1.2-0.4-1.6c-0.1-0.5-0.2-0.9-0.3-1.2c-0.6-2.1-1.2-3.7-1.7-4.8H673
			l1.9-6.8h18.2l-1.9,6.8h-7.3c0.2,0.4,0.5,1.1,0.7,1.9c0.3,0.8,0.5,1.8,0.8,2.9c0.1,0.4,0.2,0.9,0.4,1.4c0.1,0.6,0.3,1.2,0.5,1.9
			c2,0.5,4.4,2.5,7.2,6.2c1.1,1.4,2.2,2.9,3.3,4.6c1.1,1.7,2.3,3.7,3.6,5.8c0.5,0.8,1.1,1.8,1.7,3c0.7,1.2,1.4,2.6,2.3,4.3
			c0-3.8,0-7.1-0.1-10.1c-0.1-2.9-0.2-5.5-0.4-7.7s-0.4-4.2-0.6-6.1c-0.2-1.9-0.5-3.6-0.8-5.2c-0.3-2-0.6-3-0.7-3h-2.3L701.7,566.4z
			 M673.6,589.6c-0.7,1.1-1,2.1-1,3.2c0,0.8,0.2,1.6,0.5,2.3s0.8,1.4,1.4,1.9c0.6,0.6,1.3,1,2.1,1.3s1.7,0.5,2.7,0.5
			c3.8,0,5.7-2.1,5.7-6.2c0-1.3-0.2-2.7-0.6-4.3c-0.4-0.2-0.7-0.3-0.9-0.4c-0.3-0.1-0.5-0.2-0.7-0.2c-1.4-0.4-2.7-0.6-3.8-0.6
			s-2.1,0.2-3,0.5C675,588.1,674.3,588.7,673.6,589.6z"/>
		<path d="M753.7,573.1c-0.4,1.7-0.8,4-1.1,6.8c-0.3,2.4-0.5,5.5-0.8,9.4c-0.2,3.9-0.3,8.6-0.3,14.2h-2.3v-4c-1-1-2-1.9-3.1-2.6
			c-1.1-0.7-2.2-1.3-3.4-1.8c-1.1-0.5-2.3-0.9-3.4-1.1c-1.1-0.3-2.2-0.5-3.2-0.6c-2.4-0.3-4.9-0.2-7.3,0.1c0.8-3.2,1.7-6,2.5-8.5
			s1.5-4.6,2.2-6.4c0.7-2.1,1.4-3.9,2.2-5.5H723c-0.4,0.8-0.8,2.7-1.1,5.7c-0.1,1.3-0.3,2.9-0.4,4.7c-0.1,1.9-0.2,4.1-0.3,6.8
			s-0.2,5.7-0.2,9.2c-0.1,3.5-0.1,7.5-0.1,12h-2.6c0-4.6,0-8.6-0.1-12.2c-0.1-3.5-0.1-6.6-0.2-9.3c-0.1-2.7-0.2-4.9-0.3-6.8
			c-0.1-1.9-0.2-3.4-0.3-4.7c-0.3-3-0.6-4.8-0.9-5.5l1.9-6.8h36.9L753.7,573.1z M749.2,597.4c0-4.4-0.1-8.1-0.3-11.1
			c-0.2-3.1-0.5-5.6-0.8-7.5c-0.3-2.3-0.7-4.1-1.1-5.6h-6.7c-0.7,0.7-1.3,1.6-2,2.8c-0.6,1-1.1,2.3-1.7,3.9
			c-0.6,1.6-1.1,3.6-1.4,5.9c1.9,0.6,3.7,1.5,5.5,2.6c0.8,0.5,1.5,1,2.3,1.6s1.6,1.3,2.3,2c0.7,0.8,1.4,1.6,2.1,2.5
			C748.1,595.4,748.7,596.4,749.2,597.4z"/>
		<path d="M773.4,596.9c0.8-2.5,2.2-4.2,4.3-5.2c0.7-0.4,1.5-0.7,2.3-0.8c0.8-0.2,1.6-0.3,2.5-0.3c0.3,0,0.6,0,0.8,0
			s0.4,0.1,0.6,0.1l1.4-4.5c0.5-1.7,0.7-3.3,0.7-4.5c0-1.6-0.2-3.1-0.7-4.5s-1.3-2.7-2.4-4.1h-14.6c-2.2,0.3-3.9,1.5-5.2,3.6
			c-0.6,1.1-1,2.2-1.4,3.4c-0.3,1.2-0.5,2.4-0.5,3.8c0,0.9,0.1,1.7,0.2,2.5c0.1,0.8,0.4,1.6,0.6,2.3c0.3,0.7,0.6,1.3,1,1.8
			s0.9,0.9,1.4,1.2l-1,6.2c-0.8-0.9-1.5-1.9-2.1-3.1c-0.6-1.2-1.2-2.4-1.7-3.8c-0.5-1.4-0.8-2.8-1.1-4.3s-0.4-3-0.4-4.5
			c0-3.7,0.8-6.8,2.3-9.5c0.8-1.5,1.9-2.8,3.2-3.9c1.3-1.1,2.9-1.9,4.6-2.6h21.9l-1.9,6.9c0.4,0.9,0.7,1.9,0.9,2.9s0.3,2,0.3,3
			c0,3.8-1.1,7.7-3.2,11.6c4.5,0,7.9,3.8,10.2,11.3c0.8,2.6,1.4,5.2,1.8,7.8c0.4,2.6,0.6,5.2,0.6,7.8h-1.2c-0.2-1-0.3-1.9-0.5-2.8
			c-0.1-0.9-0.3-1.9-0.5-2.8c-1.1-4.3-2.7-7.9-4.9-10.6c-3-3.8-6.8-5.7-11.5-5.7c-1.1,0-2.2,0.1-3.4,0.3
			C775.9,596.1,774.6,596.5,773.4,596.9z"/>
		<path d="M805.2,576.2l-6-9.8h12.1L805.2,576.2z"/>
		<path d="M827.8,596.9c0.8-2.5,2.2-4.2,4.3-5.2c0.7-0.4,1.5-0.7,2.3-0.8c0.8-0.2,1.6-0.3,2.5-0.3c0.3,0,0.6,0,0.8,0
			s0.4,0.1,0.6,0.1l1.4-4.5c0.5-1.7,0.7-3.3,0.7-4.5c0-1.6-0.2-3.1-0.7-4.5s-1.3-2.7-2.4-4.1l-14.6,0.1c-2.2,0.3-3.9,1.5-5.2,3.6
			c-0.6,1.1-1,2.2-1.4,3.4c-0.3,1.2-0.5,2.4-0.5,3.8c0,0.9,0.1,1.7,0.2,2.5c0.1,0.8,0.4,1.6,0.6,2.3c0.3,0.7,0.6,1.3,1,1.8
			s0.9,0.9,1.4,1.2l-1,6.2c-0.8-0.9-1.5-1.9-2.1-3.1c-0.6-1.2-1.2-2.4-1.7-3.8c-0.5-1.4-0.8-2.8-1.1-4.3s-0.4-3-0.4-4.5
			c0-3.7,0.8-6.8,2.3-9.5c0.8-1.5,1.9-2.8,3.2-3.9c1.3-1.1,2.9-1.9,4.6-2.6h21.9l-1.9,6.9c0.4,0.9,0.7,1.9,0.9,2.9s0.3,2,0.3,3
			c0,3.8-1.1,7.7-3.2,11.6c4.5,0,7.9,3.8,10.2,11.3c0.8,2.6,1.4,5.2,1.8,7.8c0.4,2.6,0.6,5.2,0.6,7.8H852c-0.2-1-0.3-1.9-0.5-2.8
			c-0.1-0.9-0.3-1.9-0.5-2.8c-1.1-4.3-2.7-7.9-4.9-10.6c-3-3.8-6.8-5.7-11.5-5.7c-1.1,0-2.2,0.1-3.4,0.3
			C830.3,596.1,829.1,596.5,827.8,596.9z"/>
		<path d="M889.1,566.4c-1.8,0-3.7,0-6,0c-2.2,0-4.5,0-6.9,0c-2.3,0-4.6,0-6.9,0c-2.2,0-4.2,0-6,0s-3.7,0-5.8,0
			c-0.1,0.4-0.2,0.8-0.3,1.1s-0.2,0.7-0.3,1.1c-0.1,0.4-0.2,0.8-0.3,1.2c-0.3,1-0.6,2.1-0.9,3.4l4.5,0.1c-1.2,2.6-2.2,5.1-3.1,7.5
			c-0.9,2.4-1.5,4.6-2.1,6.5c-0.6,2.2-1.2,4.3-1.6,6.3c1.7-0.7,3.3-1.2,4.8-1.4c1.5-0.3,2.9-0.4,4.2-0.4s2.5,0.1,3.6,0.4
			c1.1,0.2,2.1,0.5,3,0.8c2.1,0.8,3.9,2,5.5,3.4v7l2.3,0.1c0-5.5,0.1-10.1,0.3-13.9c0.2-3.8,0.5-7,0.8-9.4c0.3-2.8,0.7-5.1,1.2-6.9
			h6.8c0.5,4.2,1,9.3,1.4,15.3c0.4,5.1,0.7,11.4,1,19.1c0.2,4.5,0.3,5,0.4,6.7l-0.1,3.1c-0.6-1.4-1.5-2.7-2.7-3.9s-2.5-2.3-4.1-3.3
			c-1.5-1-3.2-1.8-5-2.6c-1.8-0.7-3.6-1.3-5.5-1.7s-3.7-0.7-5.5-0.8s-3.5,0-5,0.2c-0.4,0.4-0.7,0.9-0.8,1.7
			c-0.2,0.8-0.3,1.6-0.4,2.4c-0.1,0.9-0.2,1.9-0.2,3c1.4-0.3,2.9-0.5,4.6-0.6c1.7-0.1,3.5-0.1,5.3,0s3.7,0.3,5.5,0.6
			s3.6,0.8,5.3,1.4c1.7,0.6,3.3,1.3,4.7,2.2s2.7,1.9,3.7,3.1l0.2,0.5c0,0.5,0,1.1,0,1.7h2.5c0-10.2,0.1-6.2,0.3-13.9
			c0.2-7.6,0.5-14,0.8-19.1c0.3-6,0.7-11.1,1.1-15.3l0.7-3.4c0.1-0.4,0.2-0.8,0.3-1.2s0.2-0.8,0.2-1.1c0.1-0.3,0.2-0.7,0.2-1.1
			C892.8,566.4,890.8,566.4,889.1,566.4z M870.9,589.4c-0.6-0.5-1.4-1.1-2.2-1.6s-1.7-1-2.7-1.4s-2.1-0.8-3.3-1.1s-2.5-0.5-3.9-0.7
			c0.4-1.3,0.9-2.5,1.3-3.5c0.5-1,0.9-1.9,1.3-2.7c0.4-0.8,0.9-1.4,1.3-2c0.4-0.6,0.8-1,1.2-1.4c0.9-0.9,1.8-1.5,2.6-1.8h6.5
			c0,0.5,0.1,1.2,0.3,2.3c0.2,1,0.3,2.4,0.5,4.1c0.2,1.7,0.3,3.7,0.5,6c0.1,2.3,0.2,5,0.2,8.1C873.6,592,872.4,590.6,870.9,589.4z"
			/>
		<path d="M859.1,618.8h1.8l12.5,10.4c1,0.9,2,1.7,2.9,2.3s1.8,1.1,2.6,1.5s1.6,0.7,2.4,0.9c0.8,0.2,1.6,0.3,2.3,0.3h0.9
			c0.7,0,1.4-0.1,2-0.3s1.2-0.5,1.6-0.9c0.5-0.4,0.8-0.8,1.1-1.3s0.4-1,0.4-1.6c0-0.4-0.1-0.8-0.2-1.2c-0.1-0.4-0.3-0.7-0.6-1
			c-0.2-0.3-0.5-0.5-0.9-0.7c-0.3-0.2-0.7-0.3-1.1-0.3c-0.6,0-1.2,0.2-1.8,0.6c-0.6,0.4-1.3,1-1.9,1.9l-2.7-5.7
			c0.9-0.7,1.7-1.1,2.5-1.4c0.8-0.3,1.6-0.4,2.3-0.4c1,0,1.8,0.2,2.6,0.7s1.5,1.1,2,2c0.6,0.8,1,1.8,1.3,2.9
			c0.3,1.1,0.5,2.2,0.5,3.4c0,1.3-0.2,2.5-0.6,3.5c-0.4,1-0.9,1.9-1.6,2.5c-0.7,0.7-1.5,1.2-2.5,1.6c-1,0.4-2,0.5-3.2,0.5
			c-1,0-1.9-0.1-2.8-0.4c-0.9-0.3-1.9-0.7-2.8-1.3c-1-0.6-2-1.4-3.1-2.4s-2.3-2.2-3.6-3.7L859.1,618.8z"/>
		<path d="M935.1,566.4h9l-1.5,6.8c0,0-0.2,1.3-0.5,3.8s-0.6,6.3-0.8,11.2c-0.2,3.7-0.3,7.5-0.4,11.4c-0.1,3.9-0.1,7.9-0.1,12h-3
			l-0.1-5c-1-2.7-2.5-4.8-4.3-6.5c-2.9-2.7-6.7-4.1-11.3-4.1c-1.8,0-3.3,0.2-4.4,0.6c-0.9,0.3-1.8,0.8-2.6,1.5s-1.6,1.5-2.4,2.5
			l1.2-7.5c1.3-1.4,3.1-2.4,5.3-2.8c0.4-0.1,0.8-0.1,1.3-0.1s1-0.1,1.7-0.1c0.2-0.4,0.4-0.9,0.6-1.2c0.1-0.4,0.3-0.7,0.4-1
			c0.7-1.9,1-3.8,1-5.5c0-1.6-0.3-3.2-0.9-4.7c-0.6-1.6-1.6-3-3-4.4h-7.5c-2.2,0-4.2,0.9-5.8,2.7s-2.5,4.1-2.5,6.9
			c0,2.3,0.6,4.3,1.9,6.1c1,1.4,1.7,2.1,2.1,2l-3.9,5c-0.5-0.7-0.9-1.6-1.3-2.5c-0.4-0.9-0.7-2-0.9-3.1s-0.4-2.3-0.6-3.5
			c-0.1-1.2-0.2-2.5-0.2-3.8c0-5,1.2-9.1,3.5-12.2c2.1-2.9,4.5-4.3,7.3-4.3h15.2l-2.1,6.8c0.4,1,0.8,2,1,3.3
			c0.3,1.2,0.4,2.4,0.4,3.6c0,1.1-0.1,2.2-0.3,3.3s-0.5,2.3-0.8,3.6c-0.1,0.4-0.3,0.8-0.4,1.3c-0.2,0.5-0.4,1.1-0.6,1.7
			c3.6,0.3,6.6,2.3,9.1,6c0.8,1.1,1.5,2.4,2.1,3.9c0.7,1.4,1.2,3,1.7,4.8c0-3.4,0-6.4-0.1-9.1c-0.1-2.7-0.2-5.1-0.4-7.2
			c-0.2-2.1-0.4-4.1-0.6-6c-0.2-1.9-0.5-3.8-0.8-5.5c-0.3-2.3-0.6-3.4-0.7-3.4h-2.3L935.1,566.4z"/>
		<path d="M960.6,580.3c-0.1,0.9-0.1,1.7-0.2,2.6c-0.2,2.8-0.3,5.9-0.4,9.3c-0.1,3.4-0.2,7.3-0.3,11.5c-0.1,4.2-0.2,8.9-0.2,13.9
			c-0.1,5.1-0.1,10.6-0.1,16.6h-3.1c0-7,0-13.2-0.1-18.5s-0.1-9.9-0.2-13.7c-0.1-3.8-0.2-7.1-0.3-10.1c-0.1-2.9-0.2-5.5-0.3-7.7
			c-0.3-4.4-0.5-6.5-0.5-6.5l-4.5-11.3h15.1l-4.5,11.3C960.7,578.5,960.7,579.4,960.6,580.3z"/>
	</g>
	<g>
		<path d="M428.4,355.4c-6.2,0-13.2,0.3-18.4,0.7V335c5,0.6,11.5,0.8,18.7,0.8h93.2c7.5,0,13.7-0.3,18.7-0.8v21.1
			c-5.7-0.4-11.9-0.7-18.3-0.7h-23.7v11.5h20c7.1,0,11.3-0.1,16.6-0.7c-0.6,5.5-0.7,10.1-0.7,16.7v60.5c0,7.5,0.3,15.2,0.8,19.3h-22
			v-6.4h-76.2v6.4H415c0.7-5.4,1-11.3,1-19.4V383c0-5.7-0.3-10.6-0.8-16.6c4.5,0.4,8.6,0.6,16.7,0.6h18.4c0-1.7,0-2.3,0-5.2v-6.2
			h-21.9V355.4z M469.9,386.4c-0.8,11.3-2.3,19-4.8,26.3c-2.7,7.5-6.7,14-12.2,19.5c-5-5.8-9.3-9.5-15.7-13.9v18.1h76.2v-13.2
			c-9.2,0.6-10.8,0.7-14.4,0.7c-15.2,0-19.8-3.3-19.8-13.6v-24.1h-9.3V386.4z M437.2,386.4V417c8.2-7.9,11.3-15.6,12.5-30.6H437.2z
			 M470.6,363.5c0,2.3,0,2.3,0,3.4h8.5v-11.5h-8.5V363.5z M498.7,401.6c0,2.3,1,2.7,6.7,2.7c2,0,3.5,0,8.1-0.3v-17.6h-14.7
			L498.7,401.6L498.7,401.6z"/>
		<path d="M656.6,380.3c0.6,8.5,1.6,17,3.1,25.8c2.8-8.4,4.4-14.7,5.2-22.4l17,7.2c-0.8,2.3-1,2.8-2.3,6.9
			c-3.8,12.5-7.8,22.7-12.7,32.7c2.1,4.8,4.1,8.2,4.8,8.2c1,0,1.4-4.5,1.7-15.6c4.8,4.2,7.4,5.9,12.5,8.5
			c-1.3,21.7-5.4,31.9-13,31.9c-5.2,0-10.9-5.1-16.6-14.7c-4.5,6.7-6.9,9.6-12.7,15.9c-3.3-4.7-5-6.8-7.9-9.9c-1.8,0-2.8,0-4.8,0
			h-17.1v5.1h-15.4c0.4-4.4,0.6-7.6,0.6-14.7v-49.1c0-6.4,0-8.2-0.3-11c3.1,0.3,5.2,0.3,14.2,0.3h13c7.5,0,9.8-0.1,12.5-0.4v14.7
			c-1.8-0.1-3.4-0.3-6.2-0.4v6.2h1.1c4.4,0,5.4,0,7.1-0.1c-0.3,1.8-0.3,3.4-0.3,6.4v14.7c0,3.1,0.1,5.4,0.3,6.8
			c-2.1-0.1-3.1-0.1-7.1-0.1h-1.1v6.5c5.4,0,7.1,0,9.3-0.3c3-3.7,4.4-5.5,6.8-8.9c-4.5-13.5-7.2-28.6-9.1-49.9h-43.5v11.3
			c0,15.7-0.6,28.5-1.7,38.8c-1.4,13.9-3.4,22.2-8.2,34c-5.4-6.1-8.5-8.8-15.7-13.9c4.7-10.1,6.1-16.4,7.1-32.3h-4.5
			c-0.7,21-3.1,30.7-10.6,42.8c-4.7-6.1-7.4-9.1-13.2-13.9c5.7-7.9,7.4-14,7.6-28.9c-3.5,0.1-4.4,0.1-6.7,0.4v-17.1
			c2.5,0.4,4.8,0.6,11.2,0.6h16.7c0-2.7,0-2.7,0.1-5.5h-12.6c-4.5,0-7.8,0.1-11.2,0.4c0.3-3.3,0.4-6.2,0.4-11.5v-15.4
			c0-4-0.1-5.9-0.6-8.8h18.8c-0.4,2.7-0.6,4.4-0.6,8.6v10.3h5.7c0-0.6,0-1.7,0-3.4c0-6.7-0.1-10.6-0.4-13.9
			c3.5,0.3,7.9,0.6,15.2,0.6h45.7c0-1.3,0-1.3-0.4-4.5H629c0.3-1.4,0.3-2.3,0.4-4h-25.6c0.1,2.4,0.1,3.3,0.4,4.8h-21.7
			c0.4-1.8,0.4-2.8,0.6-4.8h-14.6c-7.8,0-12.3,0.1-16.6,0.7v-19.4c4.8,0.6,9.9,0.8,16.6,0.8h14.6c-0.1-2.3-0.1-3.7-0.6-5.9h21.8
			c-0.4,2.3-0.4,3.5-0.6,5.9h25.6c-0.1-2.5-0.1-3.7-0.6-5.9h21.7c-0.3,2-0.4,3.1-0.4,5.9h15.4c6.9,0,12-0.3,17.3-0.8V356
			c-3.8-0.4-6.2-0.6-10.9-0.7c1.3,2.1,2.1,3.8,4.4,8.2c1,0,1.4-0.1,2.8-0.3v17.7c-3.3-0.4-5.9-0.6-12.2-0.6L656.6,380.3L656.6,380.3
			z M619.2,405.4v-6.2h-5.4v6.2H619.2z M626.3,421.8v-5.4h-12.5v5.4H626.3z M613.8,433v6.5h5.4V433H613.8z M660.8,363.8
			c-1.1-2.3-1.6-3.1-3-5.8l8.5-2.7H650c0,1.6,0.1,2,0.3,3.4h5.9c-0.1,2.1-0.1,2.8-0.1,5.1H660.8z"/>
		<path d="M697.8,389.1c0.7,0,1,0,2,0c0.1-10.6,0.1-10.6,0.1-16.9c0-14.3-0.3-21.8-1-28.3c3.1,0.3,6.1,0.4,9.9,0.4h6.1
			c2.1-6.4,3.1-10.3,3.5-14.9l21.4,2c-2.5,7.5-3.7,10.3-4.7,12.9h7.5c4.8,0,7.6-0.1,11.2-0.6c-0.3,3-0.4,6.8-0.4,11.6v29.8l5.7-0.6
			v19.1l-5.7,0.9v41.6c7.4-10.3,9.6-24.4,9.6-60.8c0-5.1-0.1-8.8-0.4-12.5c1.3,0.1,1.3,0.1,3.4,0.1c0.8,0.1,2.3,0.1,4.1,0.3h27.6
			c5.4,0,10.6-0.1,12.6-0.4c-0.3,2.7-0.4,7.5-0.4,13.3v55c0,1,0.4,1.4,1.7,1.4c0.9,0,1.4-0.3,1.7-0.8c0.6-1,0.8-8.1,0.8-17.8v-10.5
			c4.5,3.4,7.4,5,12.7,6.8c-0.4,39.7-1.8,42.6-20.7,42.6c-12.5,0-15.9-2.7-15.9-12.9v-57.5h-7.9c-0.1,27.8-0.7,35.8-3.3,46.7
			c-2.5,10.9-5.7,17.3-13.6,27.2c-3.5-5.7-7.2-9.9-12.5-14.7c-0.7,4.7-2,6.8-5.4,8.9c-2.5,1.6-7.9,2.4-14.4,2.4
			c-1.6,0-3.1-0.1-6.7-0.4c-0.4-7.9-1.3-12.9-3.8-20c4,0.9,7.2,1.1,10.6,1.1c2,0,2.5-0.6,2.5-2.3v-35l-4.1,0.4v19.7
			c0,6.8,0,8.4,0.4,11.6h-12.3c0.4-3.1,0.6-4.7,0.6-11.6v-18.7l-3.4,0.3c-0.4,25.2-3.8,42.8-11.2,57.6c-5.5-7.4-9.8-11.8-15.7-16.3
			c5.8-10.3,8.1-20.3,8.9-39.9c-4.7,0.3-5.2,0.3-7.5,0.6l-1.4-21.2c1.3,0,1.3,0,3.4,0.1c0.4,0.1,0.7,0.1,1.3,0.1L697.8,389.1
			L697.8,389.1z M724.7,387c-2.1-6.8-4-11.2-6.9-16.9c0,0.6,0,6.5-0.1,18c5.4-0.3,11.5-0.7,18.4-1.3v-6.4L724.7,387z M736.1,362.1
			h-18.3v6.7l10.2-5.9c3.8,5.9,5.8,10.1,8.1,16.3V362.1z M777.4,342.9c0-5.9-0.1-8.8-0.6-12h22c-0.6,3.5-0.7,6.9-0.7,11.9v5h12.2
			c5.9,0,9.6-0.1,13.7-0.7v20.8c-4.1-0.6-7.8-0.7-13.7-0.7h-40.2c-6.1,0-9.3,0.1-13.6,0.7v-20.8c4.2,0.6,7.5,0.7,13.6,0.7h7.4v-4.9
			L777.4,342.9L777.4,342.9z"/>
		<path d="M888,339c0-3.4-0.1-5.7-0.6-8.2h23.7c-0.4,2.4-0.7,4.8-0.7,8.1v3h37.1c7.8,0,12.5-0.1,17-0.6c-0.4,3-0.6,6.1-0.6,11.2
			v11.2c0,4.4,0.3,7.6,0.7,11.3h-20.3c5.7,2.1,9.6,3.1,16.9,4.1c-1.4,18.8-5.1,21.4-31,21.4c-24.5,0-27.8-1.7-27.8-14v-25.2h-7.9
			c-1,13.9-5.8,24.2-14.3,31.2c-7.4,5.9-16,9.9-29.3,13.6c3.7,0.1,6.2,0.3,10.6,0.3h74.9c7.2,0,13.9-0.3,18.8-1v21.5
			c-4.4-0.6-10.6-0.8-18.7-0.8h-25.9v14.3h35.5c9.3,0,15-0.3,19.4-0.8v21.5c-4.4-0.6-11.3-0.8-19.4-0.8h-91.6
			c-8.2,0-15.2,0.3-19.5,0.8v-21.5c3.8,0.6,11.8,0.8,19.5,0.8h34.1v-14.3h-24.8c-8.2,0-14.3,0.3-18.6,0.8v-21
			c-3.5-8.6-5-11.6-9.5-17.8c13.3-2.1,20.1-4.2,26.8-8.5c6.9-4.4,9.9-9.5,10.9-18.3h-16v18h-22c0.6-3.8,0.7-7.4,0.7-11.6v-15.2
			c0-5-0.1-7.9-0.6-11.2c4.5,0.4,9.3,0.6,17,0.6h35.4L888,339L888,339z M942.8,361.2h-19.7v17c0,2.8,1.1,3.3,7.9,3.3
			c5.5,0,8.1-0.6,8.8-1.8c0.6-0.8,0.7-2.3,0.7-6.2l2.3,1V361.2z"/>
	</g>
	<g>
		<path d="M451.3,476.3v4h-16.4v43.3h-11.6v-43.3h-16.4v-4H451.3z"/>
		<path d="M460.1,476.3h11.6v47.3h-11.6V476.3z"/>
		<path d="M483.8,476.3h20.3c2.7,0,5.2,0.3,7.5,0.9s4.2,1.4,5.8,2.4c1.6,1.1,2.9,2.3,3.8,3.8c0.9,1.5,1.4,3.1,1.4,5
			c0,1.1-0.1,2.2-0.4,3.1c-0.2,1-0.7,1.8-1.2,2.7c-0.6,0.8-1.3,1.6-2.2,2.4s-2.1,1.5-3.4,2.3c1.4,0.4,2.7,1,3.8,1.8s2.2,1.6,3,2.6
			s1.5,2.1,2,3.3s0.7,2.5,0.7,3.8c0,1.8-0.4,3.6-1.3,5.2c-0.8,1.6-2.1,3-3.6,4.2c-1.6,1.2-3.4,2.1-5.6,2.8c-2.2,0.7-4.6,1-7.3,1
			h-23.3V476.3z M495.4,496.7h7.7c1.2,0,2.3-0.2,3.3-0.6c1-0.4,1.8-0.9,2.4-1.6c0.7-0.7,1.2-1.5,1.5-2.4c0.4-1,0.5-2,0.5-3.1
			c0-1.2-0.2-2.4-0.7-3.4c-0.4-1-1.1-1.9-2-2.6c-0.9-0.7-2.1-1.3-3.5-1.7s-3.1-0.6-5-0.6h-4.4v16L495.4,496.7L495.4,496.7z
			 M495.4,518.7h6.4c1.9,0,3.5-0.2,4.9-0.6c1.4-0.4,2.5-1,3.4-1.7s1.6-1.6,2-2.6s0.6-2.1,0.6-3.2c0-1.3-0.2-2.6-0.6-3.7
			s-1-2.1-1.9-2.9c-0.9-0.8-2.1-1.5-3.5-2s-3.2-0.7-5.3-0.7h-6L495.4,518.7L495.4,518.7z"/>
		<path d="M569.9,476.3v4h-23.7v15.6h19.7v4.1h-19.7v18.8h23.7v4.8h-35.3v-47.3L569.9,476.3L569.9,476.3z"/>
		<path d="M620.5,476.3v4h-16.4v43.3h-11.6v-43.3h-16.4v-4H620.5z"/>
		<path d="M666.4,475.2l22.2,48.3h-11.9l-5.9-12.9h-18.4l-6.2,12.9h-7.9l23.1-48.3L666.4,475.2L666.4,475.2z M654.6,506.2h14.3
			l-7-15.3L654.6,506.2z"/>
		<path d="M694.9,476.3h11.6v47.3h-11.6V476.3z"/>
		<path d="M718.7,476.3h17.7c3.1,0,5.8,0.3,8,1c2.3,0.6,4.2,1.5,5.7,2.7c1.5,1.1,2.7,2.5,3.5,4.1s1.2,3.3,1.2,5.1
			c0,1.3-0.3,2.6-0.8,3.8s-1.3,2.3-2.2,3.3c-1,1-2.1,1.9-3.4,2.7c-1.3,0.8-2.8,1.4-4.4,1.9l16.8,22.7h-12.6l-15.9-21.5h-2.1v21.4
			h-11.6L718.7,476.3L718.7,476.3z M730.2,498h2.5c1.4,0,2.7-0.2,3.9-0.6s2.3-1,3.1-1.7s1.6-1.7,2.1-2.7c0.5-1.1,0.8-2.3,0.8-3.7
			c0-1.2-0.2-2.4-0.6-3.4c-0.4-1-0.9-1.9-1.6-2.7c-0.7-0.8-1.5-1.3-2.4-1.8c-1-0.4-2-0.6-3.1-0.6h-4.7V498z"/>
		<path d="M766,476.3h11.6v42.4h24.1v4.8H766L766,476.3L766,476.3z"/>
		<path d="M809.7,476.3h11.6v47.3h-11.6V476.3z"/>
		<path d="M833.4,476.3h7.4l27,30.1v-30.1h7.3v48h-5l-29.3-33.2v32.5h-7.3v-47.3H833.4z"/>
		<path d="M922,476.3v4h-23.7v15.6H918v4.1h-19.7v18.8H922v4.8h-35.3v-47.3L922,476.3L922,476.3z"/>
		<path d="M947.8,524.3c-2.8,0-5.3-0.3-7.4-1c-2.1-0.7-3.9-1.6-5.4-2.8s-2.7-2.6-3.5-4.2c-0.9-1.6-1.5-3.4-1.8-5.3h8
			c0.3,1.2,0.7,2.3,1.3,3.3s1.2,1.9,2.1,2.7c0.8,0.8,1.8,1.4,2.9,1.8s2.4,0.6,3.9,0.6c1,0,2-0.1,2.9-0.3s1.8-0.5,2.6-1
			s1.4-1.1,1.8-1.9c0.5-0.8,0.7-1.7,0.7-2.8c0-1.4-0.4-2.7-1.1-3.8c-0.7-1.1-1.7-2.1-2.9-3s-2.5-1.7-4-2.5s-3.1-1.6-4.6-2.3
			c-1.6-0.8-3.1-1.6-4.6-2.4c-1.5-0.8-2.9-1.8-4-2.9c-1.2-1.1-2.1-2.3-2.9-3.6c-0.7-1.3-1.1-2.9-1.1-4.6c0-1.9,0.4-3.6,1.2-5.2
			c0.8-1.6,2-3,3.6-4.2s3.5-2.1,5.7-2.8s4.8-1,7.7-1c2.4,0,4.5,0.3,6.5,1c1.9,0.7,3.6,1.6,5.1,2.7c1.5,1.1,2.7,2.5,3.7,4
			s1.8,3.2,2.3,5h-7.3c-0.4-1.1-0.9-2.2-1.5-3.2s-1.2-1.9-2.1-2.7s-1.8-1.4-3-1.8c-1.2-0.5-2.5-0.7-4.1-0.7c-1.5,0-2.8,0.2-3.8,0.6
			s-1.9,0.9-2.5,1.5s-1.1,1.3-1.4,2.1c-0.3,0.8-0.4,1.5-0.4,2.2c0,1.3,0.4,2.4,1.1,3.4c0.7,1,1.7,2,2.9,2.9s2.6,1.7,4.2,2.5
			c1.6,0.8,3.2,1.6,4.8,2.4s3.2,1.7,4.8,2.6c1.6,0.9,3,1.9,4.2,3s2.2,2.3,2.9,3.6c0.7,1.3,1.1,2.8,1.1,4.4c0,1.9-0.4,3.7-1.2,5.4
			c-0.8,1.7-2,3.1-3.5,4.3c-1.6,1.2-3.5,2.2-5.8,2.9C953.5,523.9,950.9,524.3,947.8,524.3z"/>
	</g>
	<g>
		<path class="st0" d="M275.8,594.6c-9.6,0-20.5-0.1-32.1-0.6c-4.6-0.2-9.3-0.6-14-1c-60.1-6.3-98-18.9-108.6-23.7
			C86.3,553.8,26.6,525,37.4,447.4c13.3-95.3,189.5-140.8,243-155.1c0.3-0.1,0.5-0.1,0.8-0.2c6.5-1.7,12.1-3.1,16.6-4.2
			c-1.7,4.5-2.9,9-3.4,13.4c-1.8,15.1,2.3,25.6,8.6,32.9c-56.4,4.4-222.3,38.5-229.9,132.5C65,565.9,186,585.3,275.8,594.6z"/>
		<path class="st1" d="M300.2,594.4c-6.7,0.1-15,0.2-24.4,0.2l0,0C185.9,585.3,65,565.9,72.9,466.7c7.6-94,173.4-128.1,229.9-132.5
			c12.7,14.8,34.3,16.5,34.3,16.5s-226.6,14.6-228.2,129S300.2,594.4,300.2,594.4z"/>
		<path class="st2" d="M514.1,0c-3.7,95.8-80.1,149.3-109.6,172.8C249.3,251,18.9,313.9,18.9,454.3c0,101.3,129.1,130.1,193.9,137.9
			C119.3,584.2-1.4,551.3,0,422.9C2.1,217.1,389.7,145.8,514.1,0z"/>
		<path class="st3" d="M404.5,172.9c-2.9,2.3-5.3,4.3-7.2,6c-19.6,18.1-83.5,66.3-99.6,109.1c-4.6,1.1-10.2,2.6-16.6,4.3
			c-0.3,0.1-0.5,0.1-0.8,0.2C228.5,305.9,120.5,336.8,69.1,394c-0.1,0-0.1,0.1-0.2,0.2c-16.1,17-26.5,35.9-27.8,56.9
			c-0.1,2-0.2,4-0.3,5.9v0.1c-0.5,10.1,0.3,19.5,2.3,28.3c0,0.1,0,0.2,0.1,0.2c8.2,40.5,37.2,64.9,76.7,81h0.1
			c33.6,15.1,73.3,23.3,109.6,26.6c1.2,0.2,2.4,0.4,3.6,0.6c-6.6-0.3-13.4-0.8-20.4-1.4C148,584.6,18.9,555.8,18.9,454.5
			C18.9,313.9,249.3,251,404.5,172.9z"/>
	</g>
</g>
</svg>
