<?xml version="1.0" encoding="utf-8"?>
<!-- Generator: Adobe Illustrator 22.1.0, SVG Export Plug-In . SVG Version: 6.00 Build 0)  -->
<svg version="1.1" id="Слой_1" xmlns="http://www.w3.org/2000/svg" xmlns:xlink="http://www.w3.org/1999/xlink" x="0px" y="0px"
	 width="283.465px" height="129.365px" viewBox="0 0 283.465 129.365" enable-background="new 0 0 283.465 129.365"
	 xml:space="preserve">
<g>
	<path fill-rule="evenodd" clip-rule="evenodd" fill="#D03132" d="M12.565,3.988h15.806c3.01,0,5.472,2.462,5.472,5.472v18.644h3.04
		c2.675,0,4.864,2.189,4.864,4.864v14.996c0,2.675-2.189,4.864-4.864,4.864h-3.04v27.561h3.445c2.341,0,4.256,1.915,4.256,4.256
		v15.604c0,2.341-1.915,4.256-4.256,4.256h-5.877c-3.273,0-23.913,1.476-24.318-25.332V52.827H4.864C2.189,52.827,0,50.639,0,47.964
		V32.967c0-2.675,2.189-4.864,4.864-4.864h2.229V9.46C7.093,6.451,9.555,3.988,12.565,3.988L12.565,3.988z M79.439,42.695
		c-0.736-5.299,1.337-14.591,6.688-14.591h11.551c3.953,0,6.852,3.889,7.86,9.539l2.273,12.752l0.935-12.925
		c0.284-3.922,2.854-9.366,6.969-9.366h11.348c4.368,0,6.888,5.092,7.416,8.78l1.906,13.309l1.21-13.453
		c0.348-3.868,3.37-8.636,7.099-8.636h12.362c5.607,0,7.21,10.074,6.282,15.604c-3.037,18.104-6.824,36.207-12.565,54.311
		c-0.953,3.006-3.736,6.485-6.89,6.485h-10.538c-5.017,0-8.849-4.566-9.525-9.637l-2.229-16.708l-2.32,16.743
		c-0.63,4.547-3.849,9.602-8.218,9.602h-9.525c-3.987,0-7.959-3.751-9.322-7.498C85.84,79.505,82.021,61.276,79.439,42.695
		L79.439,42.695z M200.827,98.829c-3.174,4.017-9.883,7.078-16.617,7.093c-13.581,0.03-19.945-11.506-19.86-23.305
		c0.107-14.79,16.39-27.648,33.843-27.966c0.276-9.321-8.48-7.09-8.379-3.85c0.064,2.053-1.978,3.039-5.198,3.04l-12.229,0.004
		c-2.726,0.001-5.699-1.85-5.406-5.815c0.792-10.701,9.913-21.843,28.376-21.952c18.808-0.111,28.291,14.891,28.168,28.168
		l-0.405,43.773c-0.031,3.377-2.703,6.485-6.08,6.485h-9.727C204.439,104.503,201.262,102.706,200.827,98.829L200.827,98.829z
		 M197.969,71.795v7.864c-3.264,3.413-8.207,2.372-8.309-0.297C189.512,75.472,192.331,72.933,197.969,71.795L197.969,71.795z
		 M256.875,64.228l-6.677-30.565c-0.571-2.613-3.112-5.559-5.787-5.559h-13.057c-3.59,0-6.588,5.85-5.49,9.268
		c6.283,19.555,11.719,39.449,16.024,59.795c0.539,2.546-0.069,7.336-2.671,7.336h-6.232c-2.37,0-4.622,3.054-4.599,5.424
		l0.148,15.728c0.02,2.112,2.784,3.709,5.342,3.709h10.089c10.992,0,18.163-14.442,21.663-24.862
		c7.635-22.727,13.583-45.641,17.657-68.764c0.52-2.952,0.178-7.636-4.748-7.636h-13.502c-2.816,0-6.054,2.896-6.232,5.707
		L256.875,64.228L256.875,64.228z"/>
	<path fill-rule="evenodd" clip-rule="evenodd" fill="#79A757" d="M60.272,0c8.497,0,15.91,6.888,15.91,15.386
		c0,2.301,1.849,10.244-2.68,19.55c-3.008,6.18-8.797,14.435-19.524,19.09c-2.591,1.124-8.739-1.357-6.819-3.672
		c4.032-4.861,8.432-8.927,9.267-14.687c0.496-3.421-3.888-5.595-5.92-8.392c-3.573-2.938-5.62-7.284-5.62-11.889
		C44.886,6.888,51.775,0,60.272,0L60.272,0z"/>
</g>
</svg>
