<?xml version="1.0" encoding="UTF-8"?>
<svg width="121px" height="22px" viewBox="0 0 121 22" version="1.1" xmlns="http://www.w3.org/2000/svg" xmlns:xlink="http://www.w3.org/1999/xlink">
    <!-- Generator: Sketch 49.1 (51147) - http://www.bohemiancoding.com/sketch -->
    <title>United_Airlines</title>
    <desc>Created with Sketch.</desc>
    <defs>
        <path d="M0.985714286,0.657142857 L0.985714286,3.61428571 L1.86190476,3.3952381 C5.47509524,2.62966667 9.2,3.3952381 12.1582381,5.25714286 C15.2238095,7.22857143 17.4142857,10.4047619 18.1809524,13.689381 C18.8380952,16.3190476 18.6190476,19.2772857 17.7428571,21.684619 L22.1238095,21.684619 L22.1238095,0.657142857 L0.985714286,0.657142857 Z M2.84761905,3.5047619 L3.28571429,3.5047619 L3.3952381,3.5047619 C4.05238095,3.5047619 4.6,3.5047619 5.25714286,3.61428571 C5.03919048,3.61428571 4.70842857,3.72380952 4.49047619,3.8322381 C4.6,3.8322381 4.81904762,3.94285714 4.92857143,4.05238095 C5.14761905,3.94285714 5.6952381,3.8322381 5.91428571,3.8322381 C6.13442857,3.94285714 6.68095238,4.16190476 7.00952381,4.38095238 C6.57142857,4.38095238 6.02380952,4.49047619 5.58571429,4.6 C5.6952381,4.71061905 5.8047619,4.81904762 5.91428571,4.92747619 C6.35128571,4.81904762 7.00952381,4.81904762 7.55714286,4.71061905 C7.88571429,4.92747619 8.10585714,5.25714286 8.21428571,5.58571429 L6.24285714,5.58571429 C6.24285714,5.6952381 6.35128571,5.91428571 6.35128571,6.02380952 C7.00952381,6.02380952 7.9952381,6.02380952 8.43333333,6.13333333 C8.5417619,6.46190476 8.65238095,6.79047619 8.65238095,7.22857143 C7.88571429,7.11904762 7.11904762,7.00952381 6.46190476,6.9 L6.46190476,7.5582381 C7.22966667,7.66666667 7.9952381,7.77619048 8.76190476,7.9952381 C8.76190476,8.32380952 8.65238095,8.87142857 8.65238095,9.2 C8.10585714,8.98095238 7.11904762,8.76080952 6.35128571,8.54285714 C6.24285714,8.87142857 6.13442857,9.2 6.02380952,9.52857143 C6.79047619,9.74761905 7.55714286,10.0761905 8.32380952,10.5142857 C8.21428571,10.8428571 7.9952381,11.2809524 7.88571429,11.5 C7.11904762,11.0619048 6.35128571,10.7333333 5.6952381,10.4047619 C5.47509524,10.8428571 5.14761905,11.2809524 4.92857143,11.6095238 C5.6952381,12.047619 6.35128571,12.4868095 7.00952381,13.0333333 C6.79047619,13.3619048 6.46190476,13.689381 6.35128571,13.9095238 C5.6952381,13.3619048 4.37985714,12.2666667 4.37985714,12.2666667 C3.94395238,12.7047619 3.61319048,13.1428571 3.17728571,13.4714286 C3.72380952,14.0179524 4.49047619,14.784619 4.92857143,15.4439524 C4.84204762,15.529381 4.75552381,15.6148095 4.66352381,15.7013333 C6.58019048,14.0540952 8.14419048,11.9446667 8.76190476,9.74761905 C9.09047619,8.54285714 9.2,6.9 8.5417619,5.8047619 C8.21428571,5.03809524 7.55714286,4.27142857 6.79047619,3.94285714 C6.09609524,3.52666667 5.22538095,3.37333333 4.34590476,3.37333333 C3.83880952,3.37333333 3.32842857,3.42480952 2.84761905,3.5047619 Z M6.44547619,3.41166667 C6.41042857,3.40180952 6.37757143,3.3952381 6.35128571,3.3952381 C6.38304762,3.40071429 6.41480952,3.40619048 6.44547619,3.41166667 Z M6.79047619,3.61428571 L6.9,3.61428571 C7.66666667,3.72380952 8.32380952,3.94285714 8.87252381,4.27142857 L7.88571429,4.27142857 C7.9952381,4.38095238 8.21428571,4.49047619 8.32380952,4.71061905 L9.637,4.71061905 C10.0761905,5.03809524 10.5142857,5.47619048 10.7333333,5.91428571 C10.1857143,5.8047619 9.52857143,5.6952381 8.98095238,5.6952381 C9.09047619,5.91428571 9.09047619,6.02380952 9.2,6.24285714 C9.85714286,6.35238095 10.5142857,6.46190476 11.1714286,6.68095238 C11.3904762,7.11904762 11.5,7.5582381 11.6095238,8.1047619 C10.8428571,7.88571429 10.1857143,7.5582381 9.41904762,7.44761905 L9.41904762,8.21428571 C10.1857143,8.43333333 10.952381,8.65238095 11.7190476,9.09047619 C11.7190476,9.63919048 11.7190476,10.0761905 11.6095238,10.5142857 C10.8428571,10.1857143 10.0761905,9.74761905 9.30842857,9.52857143 C9.2,9.96666667 9.09047619,10.4047619 8.87252381,10.8428571 C9.637,11.2809524 10.4036667,11.6095238 11.063,12.047619 C10.952381,12.4868095 10.7333333,12.8142857 10.5142857,13.2534762 C9.85714286,12.8142857 9.09047619,12.2666667 8.32380952,11.9380952 C8.10585714,12.4868095 7.77619048,13.0333333 7.33809524,13.4714286 C7.9952381,14.0179524 8.65238095,14.5666667 9.30842857,15.1142857 C9.09047619,15.4439524 8.87252381,15.7714286 8.5417619,16.1 C8.10585714,15.6608095 7.33809524,14.8952381 6.68095238,14.3487143 C6.24285714,14.8952381 5.6952381,15.552381 5.14761905,15.9904762 C5.58571429,16.4285714 6.79047619,17.8512857 6.79047619,17.8512857 C6.57142857,18.0714286 6.24285714,18.4 5.91428571,18.6179524 C5.91428571,18.6179524 4.70842857,16.9761905 4.37985714,16.647619 C3.61319048,17.1952381 3.06666667,17.6333333 2.19047619,18.0714286 C2.51795238,18.6179524 3.3952381,20.2619048 3.3952381,20.2619048 C3.17728571,20.3725238 2.95714286,20.4809524 2.73809524,20.589381 C2.30109524,19.9333333 1.86190476,18.9465238 1.64285714,18.4 C1.42271429,18.5095238 1.0952381,18.6179524 1.0952381,18.6179524 L1.0952381,21.4666667 C3.72380952,20.589381 6.13442857,19.1666667 8.10585714,16.9761905 C9.9677619,15.0047619 11.3904762,12.8142857 11.8285714,10.1857143 C12.1582381,8.1047619 11.5,6.13333333 9.85714286,4.81904762 C8.89771429,3.85852381 7.62504762,3.62633333 6.44547619,3.41166667 C6.55938095,3.44671429 6.7072381,3.52995238 6.79047619,3.61428571 Z M1.0952381,3.94285714 L1.0952381,4.05238095 C1.42271429,3.94285714 1.86190476,3.94285714 2.19047619,3.94285714 C1.86190476,4.05238095 1.64285714,4.27142857 1.42271429,4.38095238 C1.53333333,4.38095238 1.64285714,4.38095238 1.75238095,4.49047619 C2.08095238,4.27142857 2.40952381,4.05238095 2.73809524,3.8322381 C3.06666667,3.8322381 3.61319048,3.94285714 3.83333333,4.05238095 C3.28571429,4.27142857 2.73809524,4.49047619 2.30109524,4.81904762 C2.40952381,4.81904762 2.40952381,4.92747619 2.51795238,4.92747619 C2.95714286,4.71061905 3.72380952,4.38095238 4.27142857,4.16190476 C4.49047619,4.27142857 4.81904762,4.49047619 5.03919048,4.6 C4.27142857,4.81904762 3.61319048,4.92747619 2.84761905,5.25714286 C2.95714286,5.47619048 2.95714286,5.58571429 3.06666667,5.58571429 C3.61319048,5.36666667 4.6,5.14761905 5.36666667,4.92747619 C5.47509524,5.03809524 5.6952381,5.36666667 5.8047619,5.58571429 C4.92857143,5.6952381 3.94395238,5.8047619 3.28571429,6.02380952 C3.28571429,6.13333333 3.3952381,6.24285714 3.3952381,6.35238095 C4.05238095,6.24285714 5.03919048,6.13333333 5.91428571,6.13333333 C6.02380952,6.35238095 6.02380952,6.68095238 6.02380952,6.9 C5.14761905,6.79047619 4.16190476,6.9 3.28571429,7.00952381 L3.28571429,7.44761905 C4.05238095,7.44761905 5.03919048,7.44761905 6.02380952,7.5582381 C6.02380952,7.77619048 5.91428571,8.21428571 5.8047619,8.43333333 C4.92857143,8.21428571 4.05238095,8.1047619 3.17728571,8.1047619 C3.17728571,8.32380952 3.06666667,8.54285714 2.95714286,8.65238095 C3.83333333,8.76080952 4.70842857,9.09047619 5.47509524,9.30952381 C5.36666667,9.52857143 5.25714286,9.85604762 5.03919048,10.0761905 C4.37985714,9.74761905 3.28571429,9.41904762 2.62857143,9.2 C2.51795238,9.41904762 2.30109524,9.74761905 2.08095238,9.96666667 C2.62857143,10.1857143 3.61319048,10.7333333 4.27142857,11.1714286 C4.16190476,11.3904762 3.94395238,11.6095238 3.72380952,11.8274762 C3.06666667,11.2809524 2.40952381,10.8428571 1.64285714,10.4047619 L0.876190476,11.1714286 L0.876190476,11.2809524 L2.51795238,13.0333333 C2.30109524,13.2534762 2.19047619,13.3619048 1.97142857,13.4714286 L0.876190476,12.047619 L0.876190476,14.4571429 C2.51795238,13.4714286 4.27142857,11.8274762 5.14761905,10.1857143 C5.91428571,8.87142857 6.46190476,7.00952381 5.8047619,5.36666667 C5.8047619,5.25714286 5.6952381,5.03809524 5.47509524,4.81904762 C4.75661905,4.02828571 3.75338095,3.75557143 2.71619048,3.75557143 C2.17295238,3.75557143 1.62095238,3.83004762 1.0952381,3.94285714 Z M10.4036667,4.81904762 L10.8428571,4.92747619 C11.2798571,5.14761905 11.8285714,5.58571429 12.1582381,5.91428571 C12.2666667,6.02380952 12.4857143,6.24285714 12.5952381,6.46190476 C12.1582381,6.35238095 11.8285714,6.24285714 11.3904762,6.13333333 C11.5,6.35238095 11.6095238,6.57142857 11.7190476,6.79047619 C12.1582381,6.9 12.5952381,7.11904762 13.1428571,7.22857143 C13.4703333,7.77619048 13.6904762,8.32380952 13.6904762,8.98095238 C13.1428571,8.76080952 12.7047619,8.43333333 12.1582381,8.21428571 L12.1582381,9.09047619 C12.7047619,9.30952381 13.3619048,9.74761905 13.8010952,9.96666667 C13.8010952,10.4047619 13.8010952,11.1714286 13.6904762,11.6095238 C13.252381,11.2809524 12.5952381,10.8428571 12.047619,10.5142857 C11.9380952,10.952381 11.7190476,11.6095238 11.6095238,12.047619 C12.1582381,12.4868095 12.7047619,12.8142857 13.252381,13.2534762 C13.0344286,13.689381 12.9238095,14.1285714 12.5952381,14.5666667 C12.047619,14.1285714 11.5,13.689381 10.952381,13.2534762 C10.6238095,13.9095238 10.2952381,14.4571429 9.74761905,15.1142857 C10.2952381,15.6608095 10.8428571,16.1 11.3904762,16.647619 C11.1714286,16.9761905 10.8428571,17.415381 10.5142857,17.7428571 C9.9677619,17.1952381 9.52857143,16.647619 8.98095238,16.1 C8.43333333,16.7560476 7.77619048,17.415381 7.22966667,17.9619048 C7.55714286,18.2904762 8.21428571,19.0571429 8.65238095,19.7131905 C8.32380952,19.9333333 7.9952381,20.2619048 7.66666667,20.4809524 L6.24285714,18.8380952 C5.36666667,19.4952381 4.49047619,20.0428571 3.61319048,20.4809524 L4.27142857,21.684619 L6.46190476,21.684619 C9.85714286,19.3857143 12.8142857,15.9904762 13.8010952,12.1571429 C14.347619,9.85604762 13.8010952,7.44761905 12.2666667,5.6952381 C11.3904762,4.81904762 10.5142857,4.49047619 9.74761905,4.27142857 C9.9677619,4.49047619 10.1857143,4.6 10.4036667,4.81904762 Z M0.985714286,5.03809524 L1.20585714,4.92747619 C1.42271429,4.92747619 1.64285714,5.03809524 1.75238095,5.14761905 C1.53333333,5.25714286 1.20585714,5.47619048 0.985714286,5.58571429 L0.985714286,5.8047619 C1.31428571,5.58571429 1.64285714,5.36666667 1.97142857,5.25714286 C2.08095238,5.36666667 2.19047619,5.47619048 2.30109524,5.58571429 C1.86190476,5.8047619 1.20585714,6.02380952 0.985714286,6.24285714 L0.985714286,6.46190476 C1.42271429,6.24285714 1.97142857,6.02380952 2.51795238,5.8047619 C2.62857143,5.91428571 2.62857143,6.02380952 2.62857143,6.24285714 C2.08095238,6.35238095 1.42271429,6.57142857 0.985714286,6.79047619 L0.985714286,7.00952381 C1.53333333,6.79047619 2.30109524,6.68095238 2.73809524,6.57142857 L2.73809524,7.00952381 C1.97142857,7.11904762 1.53333333,7.11904762 0.985714286,7.22857143 L0.985714286,7.5582381 C1.53333333,7.44761905 2.40952381,7.44761905 2.73809524,7.44761905 C2.73809524,7.66666667 2.62857143,7.77619048 2.62857143,7.9952381 C2.19047619,7.9952381 1.53333333,7.88571429 0.985714286,7.88571429 L0.985714286,8.21428571 C1.42271429,8.21428571 1.97142857,8.32380952 2.40952381,8.43333333 C2.30109524,8.54285714 2.30109524,8.76080952 2.19047619,8.98095238 C1.86190476,8.87142857 1.42271429,8.76080952 0.985714286,8.65238095 L0.985714286,9.41904762 C1.20585714,9.52857143 1.53333333,9.63919048 1.64285714,9.74761905 C1.53333333,9.85604762 1.42271429,10.0761905 1.31428571,10.0761905 C1.20585714,9.96666667 0.985714286,9.85604762 0.985714286,9.85604762 L0.985714286,10.7333333 C1.31428571,10.4047619 1.75238095,9.96666667 2.08095238,9.52857143 C2.84761905,8.43333333 3.3952381,7.11904762 2.84761905,5.8047619 C2.51795238,5.14761905 1.75238095,4.71061905 0.985714286,4.6 L0.985714286,5.03809524 Z M13.8010952,7.44761905 L14.0519048,7.54838095 C13.8755714,7.28442857 13.6817143,7.03142857 13.4703333,6.79047619 L13.3619048,6.68095238 C13.4703333,6.9 13.6904762,7.22857143 13.8010952,7.44761905 Z M15.065,9.75090476 C15.1186667,9.78595238 15.1712381,9.821 15.2238095,9.85604762 C15.1142857,9.09047619 14.7857143,8.32380952 14.347619,7.66666667 L14.0519048,7.54838095 C14.5053333,8.22195238 14.8459524,8.96561905 15.065,9.75090476 Z M16.4285714,10.7333333 L15.8809524,10.2952381 C15.9915714,10.7333333 15.9915714,11.0619048 15.9915714,11.5 C16.2084286,11.7190476 16.5380952,11.9380952 16.7571429,12.1571429 C16.7571429,12.8142857 16.7571429,13.5809524 16.647619,14.3487143 C16.4285714,14.0179524 16.2084286,13.8 15.7714286,13.3619048 C15.6619048,13.9095238 15.4428571,14.6761905 15.2238095,15.2238095 C15.552381,15.552381 15.8809524,15.9904762 16.1,16.3190476 C15.9915714,16.7560476 15.7714286,17.3047619 15.4428571,17.8512857 C15.1142857,17.415381 14.8963333,17.0857143 14.5655714,16.647619 C14.1285714,17.415381 13.6904762,18.0714286 13.1428571,18.8380952 C13.4703333,19.2772857 13.8010952,19.7131905 14.1285714,20.152381 C13.8010952,20.589381 13.5809524,20.9190476 13.1428571,21.3571429 C12.8142857,20.9190476 12.4857143,20.4809524 12.1582381,20.0428571 C11.7190476,20.589381 11.2798571,21.1380952 10.6238095,21.5761905 L13.252381,21.5761905 C14.8963333,19.6047619 16.1,17.5238095 16.647619,15.1142857 C17.1952381,12.7047619 16.7571429,10.0761905 15.2238095,8.21428571 C15.2238095,8.21428571 15.0047619,7.9952381 14.8963333,7.88571429 C15.552381,8.76080952 16.1,9.74761905 16.4285714,10.7333333 Z M14.347619,10.2952381 C14.6345714,10.4858095 15.0047619,10.7607143 15.3125238,11.0465714 C15.2654286,10.6062857 15.1832857,10.1725714 15.065,9.75090476 C14.789,9.57019048 14.513,9.40152381 14.237,9.30952381 C14.237,9.63919048 14.347619,9.96666667 14.347619,10.2952381 Z M15.2829524,12.995 C15.299381,13.0081429 15.3158095,13.0201905 15.3322381,13.0333333 C15.4428571,12.4868095 15.4428571,11.8274762 15.4428571,11.1714286 C15.4012381,11.1298095 15.3574286,11.0881905 15.3125238,11.0465714 C15.3804286,11.684 15.3716667,12.3389524 15.2829524,12.995 Z M17.3036667,12.7047619 C17.5238095,12.9227143 17.7428571,13.2534762 17.7428571,13.2534762 C17.7428571,14.0179524 17.7428571,14.6761905 17.5238095,15.4439524 L17.0868095,15.0047619 C16.9761905,15.6608095 16.7571429,16.3190476 16.5380952,16.9761905 L16.9761905,17.7428571 C16.8666667,18.1820476 16.647619,18.8380952 16.3190476,19.2772857 C16.2084286,19.0571429 15.9915714,18.7285714 15.8809524,18.5095238 C15.4428571,19.2772857 15.0047619,20.0428571 14.5655714,20.7 L15.2238095,21.684619 L15.3322381,21.684619 C16.7571429,19.4952381 17.7428571,17.0857143 17.852381,14.3487143 C17.963,13.2534762 17.5238095,12.2666667 17.0868095,11.2809524 C17.1952381,11.7190476 17.1952381,12.1571429 17.3036667,12.7047619 Z M13.5809524,13.8 C14.0146667,14.1252857 14.4494762,14.559 14.7769524,14.9938095 C14.9664286,14.462619 15.1175714,13.9182857 15.2238095,13.3619048 C15.2468095,13.2392381 15.2654286,13.1165714 15.2829524,12.995 C14.8700476,12.6719048 14.5491429,12.2579048 14.1285714,12.047619 C14.0190476,12.5952381 13.8010952,13.2534762 13.5809524,13.8 Z M1.20585714,15.0047619 L1.20585714,15.7714286 L2.07766667,17.5183333 C2.84542857,17.0868095 3.60004762,16.5731429 4.31195238,15.9948571 C4.26485714,16.0299048 4.21447619,16.0649524 4.16190476,16.1 C3.61319048,15.4439524 2.95714286,14.5666667 2.62857143,14.0179524 C2.08095238,14.4571429 1.75238095,14.6761905 1.20585714,15.0047619 Z M14.2348095,16.2752381 C14.4845238,15.8875238 14.5918571,15.4877619 14.7857143,15.0047619 C14.7824286,15.0014762 14.7802381,14.9970952 14.7769524,14.9938095 C14.6214286,15.4297143 14.439619,15.8568571 14.2348095,16.2752381 Z M18.0714286,16.3190476 L17.963,16.2095238 C17.852381,16.9761905 17.6333333,17.6333333 17.4142857,18.2904762 L17.6333333,18.8380952 C17.5238095,19.3857143 17.3036667,19.8238095 17.0868095,20.4809524 C16.9761905,20.2619048 16.9761905,20.152381 16.8666667,19.9333333 C16.5380952,20.589381 16.2084286,21.247619 15.7714286,21.7952381 L16.7571429,21.7952381 C17.3036667,20.8095238 17.7428571,19.7131905 17.963,18.6179524 C18.0714286,17.415381 18.3989048,16.3190476 18.1809524,15.2238095 C18.1809524,15.552381 18.0714286,15.9904762 18.0714286,16.3190476 Z M11.5,17.1952381 C11.9380952,17.6333333 12.3750952,18.0714286 12.7047619,18.6179524 C12.3750952,19.0571429 12.047619,19.3857143 11.7190476,19.7131905 C11.2798571,19.2772857 10.952381,18.7285714 10.5142857,18.2904762 C9.85714286,19.0571429 9.30842857,19.6047619 8.5417619,20.2619048 C8.98095238,20.8095238 9.637,21.684619 9.637,21.684619 L10.0761905,21.684619 C10.8428571,21.0285714 11.5,20.3725238 12.047619,19.6047619 C12.9051905,18.5642857 13.6598095,17.4537143 14.2348095,16.2752381 C14.2030476,16.3267143 14.1669048,16.3770952 14.1285714,16.4285714 C13.6904762,15.9904762 13.252381,15.552381 12.8142857,15.2238095 C12.5952381,15.7714286 12.047619,16.5380952 11.5,17.1952381 Z M4.31195238,15.9948571 C4.44447619,15.8962857 4.55838095,15.7988095 4.66352381,15.7013333 C4.54742857,15.801 4.4302381,15.8984762 4.31195238,15.9948571 Z M0.985714286,18.0714286 C1.1587619,17.9925714 1.33290476,17.9104286 1.50595238,17.8228095 C1.47966667,17.8326667 1.45228571,17.8414286 1.42271429,17.8512857 L0.985714286,17.1952381 L0.985714286,18.0714286 Z M1.50595238,17.8228095 C1.77319048,17.7242381 1.88161905,17.6234762 2.08095238,17.5238095 L2.07766667,17.5183333 C1.88819048,17.6245714 1.69761905,17.7264286 1.50595238,17.8228095 Z M17.4142857,21.1380952 C17.4142857,21.0285714 17.3036667,21.0285714 17.3036667,20.9190476 C17.1952381,21.247619 16.9761905,21.684619 16.9761905,21.684619 L17.5238095,21.684619 C17.852381,20.7 18.1809524,19.2772857 18.2904762,17.8512857 C18.0714286,18.9465238 17.7428571,20.2619048 17.4142857,21.1380952 Z M0.985714286,21.5761905 L0.985714286,21.684619 L3.28571429,21.684619 L2.84761905,20.9190476 C2.19047619,21.247619 1.64285714,21.4666667 0.985714286,21.5761905 Z M7.00952381,21.684619 L8.32380952,21.684619 C8.32380952,21.684619 8.10585714,21.247619 7.88571429,21.0285714 C7.66666667,21.247619 7.33809524,21.4666667 7.00952381,21.684619 Z" id="path-1"></path>
        <path d="M0.438095238,0.876190476 L0.438095238,11.9391905 L6.02380952,11.9391905 C10.6238095,11.9391905 12.8142857,9.85714286 12.8142857,6.35128571 C12.8142857,3.06666667 10.7333333,0.876190476 6.02380952,0.876190476 L0.438095238,0.876190476 Z M3.5047619,3.28461905 L5.91428571,3.28461905 C8.5417619,3.28461905 9.52857143,4.37985714 9.52857143,6.35128571 C9.52857143,8.32380952 8.43333333,9.41904762 5.91428571,9.41904762 L3.5047619,9.41904762 L3.5047619,3.28461905 Z" id="path-3"></path>
        <path d="M9.09047619,0.876190476 L9.09047619,7.01061905 C9.09047619,8.65238095 8.21428571,9.52857143 6.24285714,9.52857143 C4.27142857,9.52857143 3.28571429,8.76190476 3.3952381,7.11904762 L3.3952381,0.876190476 L0.219047619,0.876190476 L0.219047619,7.01061905 C0.219047619,10.4047619 2.3,12.047619 6.24285714,12.047619 C10.1868095,12.047619 12.2666667,10.4047619 12.2666667,7.01061905 L12.2666667,0.876190476 L9.09047619,0.876190476 Z" id="path-5"></path>
    </defs>
    <g id="AVIA" stroke="none" stroke-width="1" fill="none" fill-rule="evenodd">
        <g id="United_Airlines" transform="translate(0.000000, -1.000000)">
            <g id="Group-3" transform="translate(98.571429, 0.657143)">
                <mask id="mask-2" fill="white">
                    <use xlink:href="#path-1"></use>
                </mask>
                <g id="Clip-2"></g>
                <polygon id="Fill-1" fill="#005DAA" mask="url(#mask-2)" points="-0.328571429 23 23.3285714 23 23.3285714 -0.657142857 -0.328571429 -0.657142857"></polygon>
            </g>
            <g id="Group-6" transform="translate(78.857143, 6.133333)">
                <mask id="mask-4" fill="white">
                    <use xlink:href="#path-3"></use>
                </mask>
                <g id="Clip-5"></g>
                <polygon id="Fill-4" fill="#005DAA" mask="url(#mask-4)" points="-0.876190476 13.1428571 14.1285714 13.1428571 14.1285714 -0.438095238 -0.876190476 -0.438095238"></polygon>
            </g>
            <polygon id="Fill-7" fill="#005DAA" points="62.8667762 7.00941429 62.8667762 18.0724143 73.2715381 18.0724143 73.2715381 15.6617952 65.9334429 15.6617952 65.9334429 13.5797476 72.0667762 13.5797476 72.0667762 11.3914619 65.9334429 11.3914619 65.9334429 9.4189381 73.1620143 9.4189381 73.1620143 7.00941429"></polygon>
            <polygon id="Fill-8" fill="#005DAA" points="46.1096333 7.00941429 46.1096333 9.4189381 50.1620143 9.4189381 50.1620143 18.0724143 53.3382048 18.0724143 53.3382048 9.4189381 57.391681 9.4189381 57.391681 7.00941429"></polygon>
            <polygon id="Fill-9" fill="#005DAA" points="37.347619 7.00941429 37.347619 9.5284619 37.347619 18.0724143 40.5238095 18.0724143 40.5238095 7.00941429"></polygon>
            <polygon id="Fill-10" fill="#005DAA" points="27.4904762 7.00941429 27.4904762 13.5797476 21.0285714 7.00941429 18.2904762 7.00941429 18.2904762 18.0724143 21.247619 18.0724143 21.247619 11.0617952 28.037 18.0724143 30.3380952 18.0724143 30.3380952 7.00941429"></polygon>
            <g id="Group-13" transform="translate(0.000000, 6.133333)">
                <mask id="mask-6" fill="white">
                    <use xlink:href="#path-5"></use>
                </mask>
                <g id="Clip-12"></g>
                <polygon id="Fill-11" fill="#005DAA" mask="url(#mask-6)" points="-1.0952381 13.3619048 13.5809524 13.3619048 13.5809524 -0.438095238 -1.0952381 -0.438095238"></polygon>
            </g>
        </g>
    </g>
</svg>