<?xml version="1.0" encoding="utf-8"?>
<!-- Generator: Adobe Illustrator 23.0.5, SVG Export Plug-In . SVG Version: 6.00 Build 0)  -->
<svg version="1.1" id="_x31_" xmlns="http://www.w3.org/2000/svg" xmlns:xlink="http://www.w3.org/1999/xlink" x="0px" y="0px"
	 viewBox="0 0 947.8 347.6" style="enable-background:new 0 0 947.8 347.6;" xml:space="preserve">
<style type="text/css">
	.st0{fill-rule:evenodd;clip-rule:evenodd;fill:#003594;}
</style>
<path class="st0" d="M0,0c20.2,0,40.5,0.1,60.7,0c0.1,63.8,0,127.6,0,191.4c-0.4,18.5,1.7,37.2,6.8,55c4.7,13.7,12.3,27,24.1,35.8
	c8.4,6.1,18.4,10,28.6,11.8c6.4,0.5,12.7,1.2,19.1,1.5c5.7-0.4,11.4-1.1,17.1-1.5c17.6-2.5,34.5-12.2,43.9-27.6
	c6-9.1,10.5-19.4,12.3-30.2c2.6-11.1,3.8-22.5,4.4-33.8c0.1-56.7,0-113.4,0-170.1c0-10.8,0.1-21.6-0.2-32.4c20.3,0,40.5,0,60.7,0
	c0.3,4.4,0.2,8.9,0.2,13.3c0,59.7,0,119.3,0,179c0,7.9,0.3,15.9-1,23.8c-0.8,12.2-2.8,24.3-5.6,36.1c-4.7,21.1-13.6,41.7-28.3,57.8
	c-16.7,18.7-40.7,29.9-65.2,34c-9.1,2.1-18.4,2.7-27.6,3c-12.6,1.3-25.3-0.1-37.9-1C88.7,343.1,65,336,46.4,321
	c-17.7-13.8-29.5-33.8-36.4-54.9c-6-20.2-9.1-41.5-10-62.7C0,135.6,0,67.8,0,0L0,0z M707.2,0.1c19.5,0,38.9-0.1,58.4,0
	c0.1,18.6-0.3,37.2,0.2,55.8c-1.6,1-3.6,0.7-5.4,0.8c-17.7-0.1-35.5,0.2-53.2-0.1C707.2,37.7,707.2,18.9,707.2,0.1L707.2,0.1z
	 M334,22c18.6-0.1,37.2-0.2,55.8,0c-0.2,22.2-0.1,44.5-0.1,66.7c13.3,0.1,26.6-0.2,40,0.1c-0.1,13,0,26-0.1,39
	c-13.3-0.1-26.6-0.1-40,0c0.1,47.2,0,94.4,0,141.6c0.4,7.8,1.6,16.4,7.9,21.7c7.1,5.5,16.4,6,25,5.9c0.1,14.5,0.1,29,0,43.6
	c-19.4-0.2-39.7,1.4-58-6.5c-11.8-4.8-20.7-15.1-25.1-26.9c-3.1-9.3-4.3-19.1-5.4-28.8c-0.2-50,0-99.9-0.1-149.9
	c-11.5,0.2-23,0.1-34.5,0.1c-0.3-13.4-0.4-26.8,0.1-40.1c11.5,0.2,23,0,34.6,0.1C333.9,66.5,334.1,44.2,334,22L334,22z M535.3,80
	c8.3-0.7,16.7-1.1,25-1.8c4.7,0.3,9.3,0.8,14,0.8c19.7,1.1,39.8,6.5,55.5,18.9c13,10.3,21.9,25.2,26.8,40.9
	c4.2,14.8,7.3,30.1,7.2,45.6c0,52.1,0,104.2,0,156.3c-17.3-0.2-34.6-0.1-51.9-0.1c-0.4-10.6-0.1-21.3-0.1-31.9c-0.2,0-0.7,0-1,0
	c-2.6,6.3-7.7,11.1-12.5,15.8c-5.3,5.3-12,8.9-18.6,12.3c-7.7,4-16.2,5.9-24.6,8c-9.5,2.1-19.3,2.2-28.9,2.9
	c-11.8-0.9-23.9-1.2-35.2-5.3c-9.1-3.6-18.4-7.4-26-13.8c-5.6-4.7-10.4-10.3-14.7-16.2c-6.2-9-9.4-19.7-11.2-30.4
	c-2.4-12.5-0.6-25.5,3.3-37.6c3.6-10.5,10.4-19.7,18.4-27.4c13.1-10.7,29-17.6,45.5-21.4c11-2.8,22.4-3.5,33.7-5
	c23-2.6,45.9-5.4,68.9-7.8c0.4-8.6-0.2-17.2-2.6-25.5c-1.4-6.9-4.5-13.5-8.9-19.1c-7.1-10.4-20-15.2-32.1-16.1
	c-13.9-1-28.9,1.6-39.9,10.6c-10,8-15.3,20.3-18,32.6c-15.7-0.2-31.4,0-47.2-0.1c-3.1-0.1-6.3,0.3-9.4-0.4
	c2-13.4,5.3-26.8,11.8-38.8c10.2-18.1,27-32.2,46.5-39.2C517.6,83.2,526.5,81.7,535.3,80L535.3,80z M571.4,226.1
	c-14.2,2-28.8,3.1-42.4,7.9c-7.4,3.1-14.9,6.6-20.2,12.8c-7.5,7.7-10.2,19.3-8,29.7c1.4,10.3,8.8,19.4,18.3,23.4
	c9.7,4.6,20.8,4.9,31.3,3.3c10.8-0.5,21.1-4.9,30.1-10.7c6-3.5,10.7-8.7,14.9-14.1c8-9.6,11.9-21.9,13.5-34c0.3-7.9,0.4-15.8,0-23.6
	C596.5,222.9,583.9,224.2,571.4,226.1L571.4,226.1z M885.2,100.2c12.5-11.4,29.6-16.6,46.2-17.4c5.5-0.4,10.9,1.1,16.2,2.4
	c0.2,19.4,0.1,38.9,0.1,58.3c-15.5,0.4-31.3-1.1-46.5,3.1c-6.7,2.3-13.6,5-19.2,9.4c-6.8,6.1-12.5,13.9-14.9,22.8
	c-2.2,8-3.9,16.2-3.6,24.5c0,45.8,0,91.5,0,137.3c-18.8-0.2-37.6,0-56.4-0.1c0.1-57.1,0-114.1,0.1-171.2
	c-0.1-26.9,0.2-53.7-0.2-80.6c18.6-0.2,37.2-0.2,55.7,0c0,11.5,0,23,0,34.5c0,2.7-0.5,5.3-0.8,8c0.8-0.8,1.7-1.7,2.2-2.7
	C869.3,117.9,876,107.7,885.2,100.2L885.2,100.2z M707.1,88.9c15.1-0.5,30.2-0.1,45.3-0.2c4.4,0.1,8.8-0.3,13.2,0.2
	c-0.2,81.5,0,162.9-0.1,244.4c-0.2,2.5,0.7,5.2-0.8,7.4c-19-0.3-38-0.2-56.9,0c-0.2-0.6-0.5-1.7-0.6-2.3
	C707.1,255.3,707.3,172.1,707.1,88.9z"/>
</svg>
