<?xml version="1.0" encoding="utf-8"?>
<!-- Generator: Adobe Illustrator 22.1.0, SVG Export Plug-In . SVG Version: 6.00 Build 0)  -->
<svg version="1.1" id="Слой_1" xmlns="http://www.w3.org/2000/svg" xmlns:xlink="http://www.w3.org/1999/xlink" x="0px" y="0px"
	 width="566.929px" height="131.854px" viewBox="0 0 566.929 131.854" enable-background="new 0 0 566.929 131.854"
	 xml:space="preserve">
<g>
	<path fill-rule="evenodd" clip-rule="evenodd" fill="#312783" d="M32.086,48.345c-0.972-1.297-2.917-1.999-3.835-1.945
		c-1.513,0-2.971,0.594-3.835,1.998C26.954,48.398,29.493,48.345,32.086,48.345L32.086,48.345z M20.58,76.811
		c-1.837-1.35-5.023-5.456-4.537-8.156c0.324-3.187,3.241-6.698,5.348-8.319c-0.378-0.216-0.648-0.432-0.81-0.54
		c-0.864-0.702-3.889-3.187-3.889-3.187c-0.81-0.216-9.237-0.702-9.237-0.702c-0.81,0.054-1.89,0.54-2.863,0.864
		c0,0-1.026,1.188-1.836-0.162C1.891,55.259,0,52.504,0,51.477c0.162-1.405,2.431-4.483,3.511-5.996
		c0.324-0.432,0.378-0.54,0.972-0.648c2.485-0.324,11.992-0.108,12.748-0.702c0.81-0.702,2.863-2.863,3.997-2.863
		c1.188,0,6.428-0.324,7.238-0.324c0.648,0,1.729,0.108,1.782-0.324c0-0.108-0.864-0.378-1.242-0.54
		c-1.728-0.648-3.241-1.35-2.215-2.377c0.81-0.756,2.431-1.891,5.024-2.809c4.321-1.513,9.237-1.566,13.18-4.051
		c1.729-1.08,3.295-2.647,3.835-3.565c0.432-0.756,0.216,0.702-0.486,2.161c-0.756,1.512-2.539,2.809-4.483,3.781
		c-3.889,2.106-7.832,2.485-11.884,3.781c-1.674,0.54-2.431,1.188-2.107,1.62c1.675,1.189,3.457,2.161,3.511,2.809
		c-0.216,0.864-0.864,1.675-3.241,1.458c-2.323-0.162-6.05-0.108-7.184,0.27c-1.188,0.324-3.349,3.133-4.213,3.133
		c-0.702,0-9.885,0.378-12.37,0.54c-0.648,0.054-0.864,0.378-1.08,0.756c-0.702,0.972-1.405,1.945-2.107,2.917
		c-0.324,0.27-0.27,0.648-0.216,1.026c0.594,1.134,1.134,2.215,1.729,3.349c0,0,1.026-0.756,1.566-0.972
		c0.702-0.54,11.289,0.054,11.289,0.054c2.809,3.133,6.806,5.509,11.235,5.509c2.755-0.054,6.752-1.945,6.698-5.023
		c0-1.783-1.08-3.565-2.107-4.645c-3.835,0-8.21,0.162-12.046,0.108c1.08-2.161,2.323-5.51,7.292-5.456
		c6.752,0,9.939,6.05,9.939,9.939c0.108,4.375-6.05,7.94-9.561,8.103c-0.702,0-1.404-0.054-2.053-0.162
		C22.093,68.115,19.392,66.71,20.58,76.811L20.58,76.811z M49.965,80.484c-1.837-1.296-3.673-2.593-5.51-3.835
		c1.729-1.35,3.457-2.701,5.24-4.051c1.729,1.296,3.457,2.539,5.185,3.835C53.26,77.783,51.585,79.134,49.965,80.484L49.965,80.484z
		 M57.095,76.757c15.503-5.186,21.823-18.203,19.122-33.274c-2.215-12.262,0.648-21.012,8.048-27.332
		c3.511-3.079,7.076-5.726,11.83-7.724C81.781,20.85,82.375,28.521,83.617,44.131c0.648,8.156-1.242,16.583-6.806,22.903
		C73.246,71.085,67.304,75.029,57.095,76.757L57.095,76.757z M52.558,60.282c1.891-0.54,4.592-1.783,6.644-3.403
		c2.863-2.377,3.349-5.294,2.485-8.643c-1.566-5.942-3.511-11.991-1.89-18.095c1.026-3.673,3.079-8.589,6.32-12.37
		c3.511-3.943,9.237-6.644,13.936-8.859C88.64,4.861,98.958,1.08,99.768,0c-7.994,2.539-16.799,4.213-24.631,7.184
		c-9.291,3.511-17.771,8.859-20.742,18.744c-1.404,4.753-1.837,12.532,0.162,17.015c2.161,4.321,2.971,8.211,1.945,11.559
		C55.907,56.555,54.61,58.121,52.558,60.282L52.558,60.282z"/>
	<path fill-rule="evenodd" clip-rule="evenodd" fill="#009640" d="M47.966,131.854c-0.648,0-1.458-4.105-1.674-4.807
		c-0.648-1.891-1.567-4.051-3.187-5.456c-2.701-2.377-16.097-11.991-18.798-13.828c-2.701-1.891-15.989-12.802-15.989-18.852
		c0-5.185,5.672-10.587,10.911-10.587c2.215,0,11.019,0.216,11.938,0.162c2.431-0.216,4.969-3.349,8.643-8.427
		c3.565-4.916,7.022-8.967,10.533-8.751c2.971,0.162,7.454,5.186,9.399,5.024c2.269-0.162,6.59-6.536,6.59-9.939
		c0-1.675-0.864-6.32-1.674-11.019c-1.134-6.59-2.377-11.83,0.054-18.204c1.458-3.781,4.321-7.832,7.346-10.479
		c7.238-6.266,19.176-9.723,26.9-14.314c-6.644,6.806-19.662,10.155-24.956,19.608c-2.431,4.375-3.133,10.317-2.971,14.368
		c0.216,4.105,1.026,10.425,1.188,15.989c0.162,4.969-0.162,8.643-3.457,12.37c-2.863,3.187-5.888,5.456-7.238,6.32
		c-6.158,3.997-7.616-2.593-12.964-2.323c-3.619,0.162-11.667,11.343-13.18,12.64c-1.188,1.026-1.999,1.188-4.051,1.188
		c-1.998,0-10.641-0.054-12.478,1.297s-2.809,2.377-2.647,3.889c0.162,1.512,2.701,8.264,11.614,14.476
		c5.456,3.835,10.155,8.211,13.342,11.668c3.457,3.727,6.806,8.156,7.346,13.45C48.669,128.991,48.615,131.854,47.966,131.854
		L47.966,131.854z"/>
	<path fill="#000066" d="M113.394,90.228v-1.21c0.949-0.245,1.577-0.536,1.853-0.873c0.291-0.352,0.429-0.934,0.429-1.776V45.867
		c0-0.903-0.153-1.516-0.444-1.868c-0.306-0.337-0.919-0.612-1.837-0.827v-1.164h32.598c5.451,0,9.677,1.087,12.724,3.246
		c3.032,2.174,4.547,5.191,4.547,9.05c0,2.205-0.551,4.15-1.638,5.804c-1.087,1.654-2.741,3.063-4.961,4.196
		c2.756,1.378,4.793,3.017,6.11,4.931c1.316,1.914,1.975,4.211,1.975,6.86c0,4.456-1.73,7.932-5.175,10.413
		c-3.461,2.481-8.345,3.721-14.653,3.721H113.394L113.394,90.228z M142.042,68.928h-15.786v13.139h15.434
		c4.838,0,8.176-0.49,9.983-1.485c1.807-0.98,2.71-2.665,2.71-5.069c0-2.297-0.965-3.966-2.909-5.023
		C149.529,69.449,146.39,68.928,142.042,68.928L142.042,68.928z M143.251,49.817h-16.996v10.535h18.297
		c2.909,0,5.053-0.429,6.446-1.271c1.394-0.857,2.082-2.159,2.082-3.935c0-1.96-0.719-3.354-2.174-4.135
		C149.453,50.215,146.911,49.817,143.251,49.817L143.251,49.817z M183.713,71.21c0,4.349,1.056,7.396,3.17,9.188
		c2.098,1.776,5.62,2.664,10.52,2.664c4.854,0,8.361-0.949,10.52-2.833c2.174-1.884,3.262-4.977,3.262-9.28v-0.368V45.867
		c0-0.934-0.138-1.562-0.429-1.914c-0.291-0.337-0.873-0.597-1.776-0.781v-1.164h15.16v1.164c-0.888,0.215-1.501,0.49-1.807,0.827
		c-0.322,0.352-0.475,0.965-0.475,1.868v25.971c0,6.937-1.884,11.883-5.635,14.808c-3.752,2.925-10.061,4.395-18.912,4.395
		c-8.606,0-14.808-1.501-18.59-4.487c-3.782-2.986-5.681-7.886-5.681-14.716V45.867c0-0.934-0.138-1.562-0.429-1.914
		c-0.291-0.337-0.873-0.597-1.776-0.781v-1.164h15.084v1.164c-0.873,0.184-1.455,0.444-1.761,0.781
		c-0.291,0.352-0.444,0.98-0.444,1.914V71.21L183.713,71.21z M231.324,90.228v-1.21c0.947-0.184,1.579-0.444,1.894-0.812
		c0.3-0.352,0.458-0.965,0.458-1.837V45.867c0-0.842-0.142-1.439-0.442-1.792c-0.284-0.367-0.931-0.659-1.91-0.903v-1.164h31.252
		c6.471,0,11.491,1.225,15.073,3.675c3.583,2.45,5.366,5.88,5.366,10.275c0,3.614-1.105,6.6-3.315,8.943
		c-2.194,2.358-5.603,4.119-10.196,5.314l10.512,14.226c0.615,0.873,1.31,1.623,2.099,2.266c0.789,0.643,2.052,1.409,3.772,2.312
		v1.21H267.61v-1.21c0.679-0.092,1.199-0.276,1.547-0.536c0.363-0.276,0.537-0.597,0.537-0.995c0-0.077-0.126-0.383-0.363-0.888
		c-0.253-0.505-0.521-0.965-0.789-1.348L258.124,70.49h-13.542v15.88c0,0.903,0.142,1.516,0.442,1.837
		c0.284,0.337,0.931,0.597,1.91,0.812v1.21H231.324L231.324,90.228z M259.561,50.261h-14.979v13.23h15.357
		c4.53,0,7.766-0.536,9.691-1.592c1.926-1.056,2.888-2.802,2.888-5.222c0-2.328-0.947-3.982-2.825-4.961
		C267.815,50.751,264.438,50.261,259.561,50.261L259.561,50.261z M288.241,90.228v-1.21c1.678-0.444,3.049-1.822,4.111-4.119
		c0.077-0.215,0.169-0.414,0.262-0.582l18.001-37.471c0.215-0.413,0.339-0.704,0.385-0.873c0.046-0.168,0.077-0.321,0.077-0.475
		c0-0.536-0.231-0.996-0.662-1.378c-0.431-0.398-1.078-0.705-1.909-0.95v-1.164h16.414v1.164c-0.909,0.306-1.509,0.597-1.832,0.903
		c-0.308,0.291-0.462,0.674-0.462,1.118c0,0.215,0.031,0.444,0.108,0.72c0.077,0.26,0.185,0.582,0.339,0.934l18.585,37.517
		c0.816,1.608,1.54,2.741,2.187,3.384c0.647,0.643,1.417,1.056,2.325,1.271v1.21h-17.461v-1.21c0.847-0.276,1.432-0.567,1.786-0.873
		c0.338-0.322,0.523-0.72,0.523-1.24c0-0.199-0.031-0.429-0.092-0.674c-0.062-0.23-0.185-0.567-0.37-0.98l-3.511-7.396h-22.25
		l-3.341,7.396c-0.169,0.414-0.293,0.75-0.354,0.98c-0.062,0.245-0.092,0.475-0.092,0.674c0,0.52,0.169,0.919,0.524,1.24
		c0.339,0.306,0.939,0.597,1.786,0.873v1.21H288.241L288.241,90.228z M316.25,54.304l-8.253,16.997h16.107L316.25,54.304
		L316.25,54.304z M387.537,88.559c-2.102,0.842-4.173,1.47-6.213,1.868c-2.04,0.413-4.127,0.612-6.259,0.612
		c-8.008,0-14.62-2.373-19.867-7.136c-5.247-4.747-7.87-10.704-7.87-17.855c0-7.151,2.608-13.077,7.824-17.809
		c5.216-4.732,11.858-7.09,19.928-7.09c8.161,0,14.881,2.358,20.143,7.059c5.262,4.717,7.885,10.597,7.885,17.656
		c0,3.262-0.629,6.386-1.887,9.356c-1.258,2.986-3.084,5.712-5.477,8.193l4.848,5.329c0.291,0.352,0.598,0.628,0.92,0.827
		c0.307,0.199,0.598,0.291,0.829,0.291c0.184,0,0.429-0.061,0.736-0.184c0.322-0.107,0.675-0.261,1.058-0.444l0.813,0.812
		l-10.601,9.647l-0.813-0.812c0.215-0.352,0.384-0.704,0.522-1.026c0.123-0.321,0.199-0.597,0.199-0.812
		c0-0.199-0.077-0.444-0.199-0.689c-0.138-0.26-0.384-0.597-0.752-1.011L387.537,88.559L387.537,88.559z M381.57,81.133
		c-2.086-2.098-3.789-3.614-5.124-4.518c-1.319-0.919-2.639-1.516-3.912-1.822l0.092-0.95c1.043-0.658,1.994-1.148,2.838-1.454
		c0.844-0.322,1.641-0.475,2.347-0.475c1.519,0,3.022,0.291,4.48,0.873c1.458,0.582,3.636,1.868,6.535,3.844
		c1.319-1.486,2.301-3.139,2.961-4.946c0.66-1.822,0.982-3.783,0.982-5.911c0-4.9-1.611-8.851-4.833-11.837
		s-7.517-4.487-12.856-4.487c-5.247,0-9.481,1.501-12.687,4.502c-3.207,3.017-4.817,6.952-4.817,11.837
		c0,4.839,1.626,8.774,4.863,11.822c3.237,3.032,7.456,4.548,12.641,4.548c0.905,0,1.871-0.077,2.915-0.245
		C379.039,81.745,380.235,81.485,381.57,81.133L381.57,81.133z M427.374,90.228v-1.21c1.657-0.444,3.01-1.822,4.058-4.119
		c0.076-0.215,0.167-0.414,0.259-0.582l17.768-37.471c0.213-0.413,0.334-0.704,0.38-0.873c0.046-0.168,0.076-0.321,0.076-0.475
		c0-0.536-0.228-0.996-0.654-1.378c-0.425-0.398-1.064-0.705-1.885-0.95v-1.164h16.203v1.164c-0.897,0.306-1.49,0.597-1.809,0.903
		c-0.304,0.291-0.456,0.674-0.456,1.118c0,0.215,0.03,0.444,0.106,0.72c0.076,0.26,0.183,0.582,0.334,0.934l18.346,37.517
		c0.806,1.608,1.52,2.741,2.158,3.384c0.638,0.643,1.398,1.056,2.295,1.271v1.21h-17.236v-1.21c0.836-0.276,1.414-0.567,1.763-0.873
		c0.335-0.322,0.517-0.72,0.517-1.24c0-0.199-0.031-0.429-0.091-0.674c-0.061-0.23-0.182-0.567-0.365-0.98l-3.465-7.396h-21.963
		l-3.298,7.396c-0.167,0.414-0.289,0.75-0.35,0.98c-0.061,0.245-0.091,0.475-0.091,0.674c0,0.52,0.167,0.919,0.517,1.24
		c0.335,0.306,0.927,0.597,1.763,0.873v1.21H427.374L427.374,90.228z M455.022,54.304l-8.147,16.997h15.899L455.022,54.304
		L455.022,54.304z M501.408,86.37c0,0.934,0.124,1.547,0.386,1.868c0.262,0.306,0.785,0.582,1.598,0.827v1.164h-13.571v-1.21
		c0.841-0.215,1.378-0.49,1.626-0.827c0.234-0.352,0.358-0.949,0.358-1.822V45.867c0-0.934-0.124-1.562-0.385-1.914
		c-0.262-0.337-0.785-0.597-1.598-0.781v-1.164h13.571v1.164c-0.785,0.184-1.309,0.444-1.585,0.781
		c-0.262,0.352-0.399,0.98-0.399,1.914V86.37L501.408,86.37z M514.164,90.228v-1.21c0.916-0.184,1.526-0.444,1.832-0.812
		c0.29-0.352,0.443-0.965,0.443-1.837V45.867c0-0.842-0.137-1.439-0.427-1.792c-0.275-0.367-0.9-0.659-1.847-0.903v-1.164h30.221
		c6.258,0,11.112,1.225,14.576,3.675c3.465,2.45,5.189,5.88,5.189,10.275c0,3.614-1.068,6.6-3.205,8.943
		c-2.122,2.358-5.418,4.119-9.86,5.314l10.165,14.226c0.595,0.873,1.267,1.623,2.03,2.266c0.763,0.643,1.984,1.409,3.648,2.312v1.21
		h-17.675v-1.21c0.656-0.092,1.16-0.276,1.496-0.536c0.351-0.276,0.519-0.597,0.519-0.995c0-0.077-0.122-0.383-0.351-0.888
		c-0.244-0.505-0.504-0.965-0.763-1.348L540.081,70.49h-13.096v15.88c0,0.903,0.138,1.516,0.427,1.837
		c0.275,0.337,0.901,0.597,1.847,0.812v1.21H514.164L514.164,90.228z M541.47,50.261h-14.485v13.23h14.851
		c4.38,0,7.51-0.536,9.372-1.592c1.862-1.056,2.793-2.802,2.793-5.222c0-2.328-0.916-3.982-2.732-4.961
		C549.453,50.751,546.187,50.261,541.47,50.261L541.47,50.261z"/>
</g>
</svg>
