<?xml version="1.0" encoding="utf-8"?>
<!-- Generator: Adobe Illustrator 22.1.0, SVG Export Plug-In . SVG Version: 6.00 Build 0)  -->
<svg version="1.1" id="Слой_1" xmlns="http://www.w3.org/2000/svg" xmlns:xlink="http://www.w3.org/1999/xlink" x="0px" y="0px"
	 width="983.4px" height="246px" viewBox="0 0 983.4 246" style="enable-background:new 0 0 983.4 246;" xml:space="preserve">
<style type="text/css">
	.st0{fill:#F4B01D;}
	.st1{fill:#AAD8B1;}
	.st2{fill:#FD5F15;}
	.st3{fill:#032E62;}
	.st4{fill:#ADD8B0;}
</style>
<g>
	<g>
		<path class="st0" d="M593,108.7c-13.8-21.2-32-29.2-51.8-28.9c-49.5,0.8-98.5,49.7-98.3,93.6c0.1,20.4-0.5,49.8,43.7,63.4
			c-28.5-25.6-25.9-45.9-25.1-67.7c0.8-22.3,11.5-43.8,33.6-64.3c-16.5,21.6-25.4,42.4-26.6,62.2c-2,30.3,8,68.7,48.6,69.9
			c9.1,0.2,21.1-3.6,27.9-8.7c-55.6,2.4-65.1-41.9-64.2-74.7c0.9-32.4,30.3-67.1,60.3-68.4C558.1,84.4,567.9,87.2,593,108.7
			L593,108.7z M302.1,93.8L313.2,81l112.3,69.9l-2.4,5.2L302.1,93.8L302.1,93.8z M352.5,46.9l10.4-8.3l82.4,77.5l-3.5,4.9
			L352.5,46.9L352.5,46.9z M404.9,14.2l11.4-4.9l52.9,83.1l-4.1,4.2L404.9,14.2L404.9,14.2z M459.1,0h12.4l26.3,74.4l-5.6,2.1
			L459.1,0L459.1,0z M500.6,0.2l9.8,1.3l12.5,68.2l-4.1,0.3L500.6,0.2L500.6,0.2z M541.7,8.5l8.4,4l-10.8,57.2l-3.3-0.9L541.7,8.5
			L541.7,8.5z M579.1,27.6l-17.9,45.9l-3.1-0.9l14.5-49L579.1,27.6L579.1,27.6z M601.1,48.2l-24.7,33.2l-2.4-1.6l23.2-35.5
			L601.1,48.2L601.1,48.2z M615.5,69.6l-27.2,24.3l-1-2L612.4,65L615.5,69.6L615.5,69.6z M621.2,87.9L596,105.4l-0.4-2l24-19
			L621.2,87.9L621.2,87.9z"/>
		<path class="st1" d="M251.5,163c34,16.1,69.6,26.3,106,26.2c94.4-0.3,106-47.9,281.8-27.5c-77.8-10.5-186,56.7-281.8,57
			C317.6,218.8,271.4,193.7,251.5,163L251.5,163z"/>
		<path class="st2" d="M515.9,147.6c88.8-13,172.4-5.6,246.9,36.9c-27.7-35.6-62.8-60.4-103.3-66.4
			C611.1,110.8,563.1,130.4,515.9,147.6L515.9,147.6z"/>
	</g>
	<g>
		<path class="st3" d="M189.3,175.1c8.8-11.1,29.7-12.6,39.8-10.1c16,4,21.4,18.1,22.6,22.3c2.1,7.6,2,13.1,1.5,19.4
			c-0.6,7.8-3.1,14.8-8.1,21.3c3.7,2,4.2,3.5,11,5c-2.2,4.5-4.8,10.9-6,13c-9-1-11.6-6.4-16-9c-7.3,2.8-16,3-23.6,2
			c-13.6-1.9-24.1-10.6-27.4-23.7C179.6,201.3,181.2,185.3,189.3,175.1z M204.4,184.1c-6.2,6.6-7.3,26.3-0.8,34.5
			c1.2,1.5,2.6,3,4.3,4c3.6,2.3,6.7,3.7,12,3.1c-2.8-2.7-4.8-2.7-7.8-3.7c5-9,0,0,5-9c3,0,11,3,14,6c7.1-9.1,6.5-27.5-0.8-35.6
			C223.5,175.9,212.5,175.5,204.4,184.1z"/>
		<path class="st3" d="M880.8,165.2h16.1V238h-16c0,0-26-40.1-26.9-41.3c0,6.4-0.1,41.3-0.1,41.3l-16-0.2l-0.5-72.8h16.7
			c0,0,25.2,41.1,26.7,43.6V165.2z"/>
		<path class="st3" d="M645.4,238h-16.9l0.1-73c0,0,23.9-0.1,35.9,0.1c4.2,0.1,8.5,0.8,12.7,1.8c2.2,0.5,4.3,1.8,6.1,3.2
			c9.1,7.2,10.2,30.1-6.5,35.2c-1,0.3-2.1,0.7-3.3,1.2c10.6,8.9,15.3,20.9,22.9,31.7l-20.9-0.1c0,0-6.8-10.9-7.8-12.4
			c-4.4-6.5-3.5-5.6-8.6-11.6c-3.6-4.3-5.8-5.3-13.7-5.3C645.4,214.8,645.4,238,645.4,238z M645.6,194.7c0,0,12.4,0.3,16.5,0
			c3.2-0.2,9.6-1.9,9.6-7.8c0-6.4-4.6-8.4-8.1-8.6c-5.9-0.4-18.2-0.1-18.2-0.1L645.6,194.7z"/>
		<path class="st3" d="M932.8,238H916v-72.7h17v29l27.1-29.3c0,0,15.2,0,22.3,0c0,0.1,0.1,0.2,0.1,0.2s-18.2,19.2-27.6,29.1
			c9.3,14.3,28.5,43.7,28.5,43.7h-22.2l-18.6-31.4l-9.8,10.4V238z"/>
		<path class="st3" d="M444.1,163.8c5.5-0.2,10.9,0.9,15.8,3c2.4,1,4.6,2.7,6.4,4.5c3.7,3.7,5.3,9.8,4.6,15.4
			c-16.5,0.3,0,0-16.5,0.3c-1.2-6.7-5-9.6-12.2-9.6c-5.2,0-9.9,2.5-9.9,6c0,5.2,4.5,6.2,10.2,7.4c6.1,1.3,17.7,4.6,21.5,7.1
			c4.1,2.8,7.9,6.3,8.9,11.1c1,4.9,1.1,10.1-0.2,14.9c-0.6,2.4-2.1,4.4-3.5,6.5c-4.8,7.1-13,8.6-21.2,8.9c-2.3,0.1-8.2,0-8.8-0.1
			c-12.6-0.4-22.8-5.6-25.7-18.3c-0.5-2-0.5-5-0.9-7.3c16.4-0.2,12.4-0.2,16.4-0.2c4,10.9,8.6,12.4,19,12c5.1-0.2,7.9-3,7.9-7.5
			c0-4.4-3.7-6.3-6.9-7.4c-5.6-1.8-11.3-3.1-17-4.7c-10.6-4-18.4-11-17.1-23c0.6-5.7,3.3-10.8,8-14.2
			C429.3,164.3,436.8,164,444.1,163.8z"/>
		<polygon class="st3" points="361.5,224.8 401.1,224.8 401.1,238.1 344.1,238 344.1,165 399.9,165 399.9,178 361.5,178.5 
			361.5,193.2 396.8,193.2 396.8,206.4 361.6,206.4 		"/>
		<polygon class="st3" points="129.5,224.8 169.1,224.8 169.1,238.1 112.1,238 112.1,165 168,165 168,178 129.5,178.5 129.5,193.2 
			164.9,193.2 164.9,206.4 129.6,206.4 		"/>
		<path class="st3" d="M509.9,238.1l28.3-72.9h18l28.9,72.6l-18.9,0.3l-6.1-15.7H534l-5.6,15.7L509.9,238.1L509.9,238.1z M555,208.8
			c-2.8-7.5-5.5-14.7-8.2-21.8c-2.6,7.2-5.2,14.4-7.9,21.8H555z"/>
		<path class="st3" d="M267.4,165.3h17.1c0,0,0.4,39.4,0.5,49c0.1,4.7,3.3,11.4,12.3,11.6c8.7,0.2,12.7-6,12.6-11.9
			c0-1.7,0.3-48.7,0.3-48.7h17.1c0,0,0,40.5-0.3,49.8c-0.1,2.4,1,24.3-29.7,24.3c-22.3,0-28.4-12.5-29.4-22.7
			C267.5,213.3,267.4,165.3,267.4,165.3z"/>
		<polygon class="st3" points="51.6,165.2 69.8,165.2 43.6,238.6 25.9,238.6 0,165.3 18.3,165.3 35.4,212.7 		"/>
		<path class="st3" d="M738.9,175.5c0,0,12,5.7,17,9.1c-0.2,11.8,0.1,40.2,0.1,40.2s23.6,0,35.7,0c0,4.7,0,8.3,0,13.3
			c-4.6,0-39.5,0.2-52.7,0C738.9,217.3,738.9,175.5,738.9,175.5z"/>
		<polygon class="st3" points="595.2,165.3 611.8,165.3 611.8,238.1 595.5,238.1 		"/>
		<polygon class="st3" points="79,165.3 95.6,165.3 95.6,238.1 79.4,238.1 		"/>
		<polygon class="st3" points="804.2,165.3 820.8,165.3 820.8,238 804.1,237.8 		"/>
		<polygon class="st3" points="750.3,165 755.8,165.3 755.8,170.8 		"/>
		<path class="st4" d="M362.1,224.8c-0.2-0.3-0.4-0.6-0.6-0.9C361.7,224.2,361.9,224.5,362.1,224.8z"/>
		<path class="st4" d="M325.8,223c0.1-0.3,0.2-0.6,0.3-0.9C326,222.4,325.9,222.7,325.8,223z"/>
		<path class="st4" d="M322.7,230c0.2-0.3,0.3-0.5,0.5-0.8C323,229.5,322.9,229.8,322.7,230z"/>
		<path class="st4" d="M448.1,225.4c0.3-0.1,0.6-0.3,1-0.4C448.8,225.2,448.5,225.3,448.1,225.4z"/>
		<path class="st4" d="M285.2,215.7"/>
	</g>
</g>
</svg>
