<?xml version="1.0" encoding="utf-8"?>
<!-- Generator: Adobe Illustrator 22.1.0, SVG Export Plug-In . SVG Version: 6.00 Build 0)  -->
<svg version="1.1" id="Слой_1" xmlns="http://www.w3.org/2000/svg" xmlns:xlink="http://www.w3.org/1999/xlink" x="0px" y="0px"
	 width="554.6px" height="286.4px" viewBox="0 0 554.6 286.4" style="enable-background:new 0 0 554.6 286.4;" xml:space="preserve"
	>
<style type="text/css">
	.st0{fill:#39AC4A;}
	.st1{fill:#3AAD4A;}
	.st2{fill:#E02B28;}
	.st3{fill:#E02F2C;}
	.st4{fill:#B6B4B7;}
	.st5{fill:#FFFFFF;}
</style>
<g>
	<path class="st0" d="M507.9,72c0.4-5.8,0-11.5-2.4-16.9c-3.5-7.7-9.8-11.7-17.9-13.4c-5-1-10-1.2-15-1.1
		c-12.8,0.1-25.4,1.6-37.7,4.9c-1.4,0.4-2.7,0.9-4.1,1.3s-1.6,0.3-1.9-1.2c-0.5-3.2-1-6.3-1.5-9.5c-1.4-8.7-2.7-17.4-4.1-26
		c-0.3-1.9-0.3-1.9,1.5-2.5c8.3-2.3,16.8-4,25.3-5.2c10.5-1.5,21.1-2.5,31.8-2.4c11.2,0.2,22.4,1.1,33.1,4.6
		c7.8,2.6,15.1,6.2,21.2,11.8c8.5,7.8,13.4,17.5,15.9,28.7c1.7,7.7,2.5,15.5,2.5,23.3c0,33.3,0,66.6,0,99.8c0,3.4,0.5,2.7-2.9,3.4
		c-10.6,2.2-21.2,4.1-31.9,5.6c-5.2,0.7-10.5,1.2-15.7,1.5c-9.8,0.7-19.7,0.8-29.5,0.6c-10.7-0.3-21.2-1.5-31.4-4.7
		c-4.7-1.5-9.3-3.5-13.5-6.1c-10.3-6.2-17.2-15.2-20.3-26.8c-2.7-9.9-3-19.9-1.3-29.9c2.4-13.5,9.8-23.6,21.3-30.8
		c7.5-4.7,15.7-7.4,24.3-9.2c13.6-2.7,27.3-3,41.1-1.8c3.7,0.3,7.3,0.8,10.9,1.7C506.4,72,507.1,72.2,507.9,72z M508,122.4
		c0-5.6,0-11.2,0-16.8c0-1.2-0.4-1.8-1.6-1.9c-1.8-0.2-3.6-0.5-5.5-0.7c-8.2-1.2-16.4-1.2-24.6-0.2c-3.4,0.4-6.8,1.2-9.9,2.6
		c-7.7,3.4-11.5,9.1-11.1,17.6c0.4,9.3,4.1,14,12.4,16.8c4,1.4,8.2,2.1,12.5,2.2c8.6,0.3,17.3,0,25.9-0.9c2-0.2,2-0.2,2-2.4
		C508,133.3,508,127.9,508,122.4z"/>
	<path class="st0" d="M411.8,4.7c0.4,0.9,0,1.4-0.1,2C395.4,61.3,375.8,114.6,351,166c-1.4,2.9-2.9,5.7-4.3,8.6
		c-0.5,1.1-1.2,1.5-2.4,1.5c-12.3,0-24.6-0.1-36.9,0c-1.5,0-2.1-0.7-2.7-1.8c-4.9-9.8-9.6-19.7-14.1-29.6
		C270.5,100,254,53.9,239.9,6.9c-0.2-0.6-0.3-1.2-0.5-1.8c0.9-0.5,1.8-0.3,2.6-0.3c15.4,0,30.7,0,46.1,0c2.7,0,2.7,0,3.4,2.7
		c9.4,34.2,19.9,68.1,31.7,101.5c0.9,2.7,2,5.4,3,8.1c0.9-0.6,0.9-1.5,1.2-2.2c11.9-33.1,22.5-66.6,32-100.4
		c0.8-2.7,1.5-5.4,2.1-8.1c0.3-1.3,0.9-1.6,2.1-1.6c5.6,0.1,11.2,0,16.8,0c9.6,0,19.2,0,28.8,0C410.2,4.7,411.1,4.7,411.8,4.7z"/>
	<path class="st0" d="M4,4.9c0.9-0.3,1.7-0.2,2.5-0.2c15.4,0,30.9,0,46.3,0c0.2,0,0.3,0,0.5,0c2,0,2,0,2.5,2
		c1.5,5.4,2.9,10.8,4.4,16.2c8.8,29.6,17.7,59.2,28.3,88.3c0.7,1.9,1.4,3.7,2.2,5.7c1-0.4,0.9-1.3,1.2-1.9
		c6.8-19,13.3-38.2,19.3-57.5c5.2-16.9,10.5-33.9,14.9-51.1c0.3-1.1,0.6-1.8,2-1.8c15.9,0.1,31.8,0,47.7,0.1c0.2,0,0.3,0.1,0.6,0.1
		c0.2,0.8-0.2,1.6-0.4,2.4c-9.1,30.2-19.1,60.1-30.6,89.6c-10.2,26.1-21.2,51.9-33.8,77c-0.8,1.6-1.7,2.3-3.6,2.2
		c-11.8-0.1-23.7-0.1-35.5,0c-1.8,0-2.6-0.6-3.4-2.1c-13.9-27.7-26-56.1-37-85C21.8,62.4,12.9,35.4,4.6,8.1C4.4,7.2,3.9,6.2,4,4.9z"
		/>
	<path class="st1" d="M186.1,90.5c0-27.6,0-55.2,0-82.8c0-3.3-0.3-3,2.9-3c14.3,0,28.6,0,42.9,0c0.2,0,0.5,0,0.7,0
		c2.1,0,2.1,0,2.1,2.1c0,15.2,0,30.4,0,45.6c0,40.2,0,80.4,0,120.7c0,3.3,0.3,3-2.9,3c-14.2,0-28.5,0-42.7,0c-0.2,0-0.5,0-0.7,0
		c-2.3,0-2.3,0-2.3-2.4C186.1,146,186.1,118.2,186.1,90.5z"/>
	<path class="st2" d="M163.1,285.4c-16.5,0-29.9-13.4-30-29.8c0-16.7,13.3-30,30-30s30,13.3,30,30
		C193.1,272,179.6,285.3,163.1,285.4z M171,235.6c-4.1,0-7.3,3.1-7.3,7.2c0,4,3.1,7.1,7.1,7.2s7.4-3.3,7.3-7.3
		C178.1,238.8,175,235.6,171,235.6z"/>
	<path class="st0" d="M30,285.4C11.5,285.1,0.1,270,0,255.7c-0.1-16.1,13.1-30.2,29.9-30.3c15.2-0.1,30,12,30.1,30
		C60,272,46.5,285.3,30,285.4z M44.9,242.7c0-4.1-3.2-7.2-7.3-7.1c-3.9,0.1-7.1,3.3-7.1,7.2c0,3.9,3.5,7.3,7.4,7.2
		C41.9,249.9,45,246.7,44.9,242.7z"/>
	<path class="st2" d="M415,231.1c1.9-0.9,3.4-1.6,4.9-2.3c6.5-2.6,13.1-2.7,19.7-0.3c7.4,2.7,11.8,8.3,14.1,15.6
		c2,6.6,2.3,13.4,0.7,20.1c-2.8,12.2-11.7,19.6-24.1,20.3c-6.8,0.4-13.6-0.4-20.2-2.3c-2-0.6-2.1-0.6-2.1-2.8c0-25.2,0-50.4,0-75.6
		c0-2.2,0-2.3,2.1-2.6c1.5-0.2,3.4-1.4,4.5-0.4c1,0.9,0.3,2.9,0.3,4.4c0,7.7,0,15.4,0,23C415,229.1,415,229.9,415,231.1z M415,257.4
		c0,5.8,0,11.5,0,17.3c0,2.2,0,2.2,2.2,2.6c4.7,0.8,9.3,1.3,14.1,0.7c7.1-0.9,12.1-4.7,14.8-11.3c1.2-2.8,1.6-5.7,1.8-8.6
		c0.3-5.8-0.2-11.5-3.2-16.7c-2.3-4.1-5.9-6.7-10.5-7.6c-6.3-1.2-12,0.1-17.5,3.3c-1.2,0.7-1.7,1.6-1.7,3.1
		C415,245.8,415,251.6,415,257.4z"/>
	<path class="st3" d="M286.9,257.2c-5.8,0-11.7,0-17.5,0c-1.8,0-1.9,0-1.7,1.9c0.2,2.3,0.6,4.6,1.3,6.8c2.3,7.2,7.3,11.3,14.8,12
		c5.5,0.5,10.9,0.2,16-2c1.4-0.6,1.5-0.5,1.8,1c0.2,0.7,0.3,1.4,0.5,2.1c0.5,2.4,0.5,2.4-1.7,3.2c-7.1,2.6-14.4,3.1-21.7,1.3
		c-10.1-2.4-15.8-9.1-17.8-19.2c-1.1-5.5-1.2-11-0.1-16.4c0.9-4.5,2.6-8.6,5.3-12.2c4.9-6.5,11.6-9.3,19.7-8.9c3.7,0.1,7.3,1,10.5,3
		c4.9,3,7.7,7.6,9.1,13c1.1,4.1,1.3,8.4,1.1,12.6c-0.1,1.7-0.1,1.7-1.8,1.7C298.7,257.2,292.8,257.2,286.9,257.2z M283.4,251.1
		c4.8,0,9.6,0,14.4,0c1.2,0,1.5-0.4,1.4-1.5c-0.2-2.8-0.7-5.5-1.8-8.1c-1.6-3.6-4-6.4-7.8-7.6c-5.8-1.8-11.1-0.9-15.6,3.3
		c-3.5,3.2-5.3,7.3-6,12c-0.3,2-0.2,2,1.7,2C274.3,251.2,278.9,251.1,283.4,251.1z"/>
	<path class="st3" d="M347.9,255.9c0.1-6.6,1.2-12.8,4.9-18.2c5.3-7.9,12.7-11.3,22.1-10.9c9.7,0.5,19.3,6.7,22.5,19.9
		c2,8.2,1.6,16.4-2.2,24.1c-4.5,9.1-12,13.7-22.1,13.7s-17.5-4.9-22-13.9C348.7,265.9,348,260.9,347.9,255.9z M390.9,256
		c0-4.9-0.7-9.6-3-13.9c-3-5.5-7.6-8.7-14-8.9c-6.8-0.2-11.9,2.6-15.3,8.4c-0.8,1.3-1.4,2.7-1.8,4.2c-1.5,4.8-1.7,9.7-1.1,14.7
		c0.4,3.5,1.4,6.9,3.3,9.9c2.1,3.3,4.9,5.9,8.8,7c8.1,2.3,16.7-0.1,20.9-9.3C390.3,264.2,390.9,260.1,390.9,256z"/>
	<path class="st3" d="M244,251.5c0.2-3.8,0.3-7.4-0.9-11c-1.5-4.4-4.7-6.8-9.2-7.3c-4.8-0.5-9.6-0.3-14.2,1.3
		c-0.6,0.2-1.3,0.6-2.2,0.4c-0.2-1.5-0.5-3.1-0.8-4.6c-0.2-1,0.2-1.5,1.1-1.8c1.8-0.6,3.7-1,5.6-1.3c4.3-0.6,8.6-0.8,12.9-0.2
		c8.1,1.3,13.4,6.7,14.5,15c0.3,2,0.4,4,0.4,6c0,10.6,0,21.1,0,31.7c0,2.3,0,2.4-2.2,2.8c-5.9,1.1-11.8,1.9-17.8,2
		c-3.3,0-6.5-0.3-9.7-1.3c-6.8-2.2-10.8-7.5-11-14.7c0-1.6-0.1-3.2,0.2-4.8c1.1-5.6,4.4-9.3,9.6-11.3c5.3-2.1,10.8-2.6,16.5-2.1
		C239.1,250.5,241.4,251,244,251.5z M244.1,267.6c0-2.7-0.1-5.4,0-8.1c0-1.3-0.5-1.8-1.7-2.2c-4.7-1.4-9.5-1.2-14.3-0.7
		c-1.4,0.2-2.8,0.5-4.2,1.1c-4.8,2-6.8,5.4-6.4,10.9c0.3,4.7,3,7.8,7.9,9c5.8,1.4,11.6,0.7,17.4,0c1-0.1,1.1-0.7,1.1-1.5
		C244,273.2,244.1,270.4,244.1,267.6z"/>
	<path class="st3" d="M507.5,254.8c0,8.1,0,16.2,0,24.2c0,2.9-0.1,2.3-2.4,2.9c-7,1.8-14.1,2.8-21.4,2.3c-11-0.7-17.4-6.7-18.9-17.8
		c-0.4-2.5-0.5-5.1-0.5-7.6c0-9.3,0-18.6,0-27.8c0-0.5,0-1,0-1.4c-0.2-1.3,0.5-1.6,1.7-1.6c1.3,0.1,2.6,0.1,3.8,0
		c1.1,0,1.7,0.2,1.6,1.5c-0.1,0.6,0,1.1,0,1.7c0,9.8,0,19.7,0.1,29.5c0,2.4,0.3,4.8,1,7.1c1.7,6.4,5.5,9.6,12.1,10.1
		c4.6,0.3,9.3,0.1,13.8-0.8c2-0.4,2-0.4,2-2.5c0-13.8,0-27.7,0-41.5c0-0.9,0-1.8,0-2.6c0-2.5-0.2-2.4,2.3-2.3c1.2,0,2.4,0,3.6,0
		c0.8,0,1.2,0.3,1.2,1.1c0,0.6,0,1.1,0,1.7C507.5,238.8,507.5,246.8,507.5,254.8z"/>
	<path class="st3" d="M548.2,235.6c-5.4-2.5-10.9-3.2-16.6-2.4c-1.4,0.2-2.7,0.6-3.9,1.2c-5,2.6-5.8,9.1-1.6,12.8
		c1.3,1.2,2.9,2,4.5,2.7c3.7,1.6,7.5,3.2,11.2,4.8c1.6,0.7,3.2,1.5,4.6,2.5c5.3,3.7,7,8.9,5.9,15.1c-0.7,4.1-3.1,7.1-6.7,9.1
		c-3.1,1.7-6.4,2.5-9.9,2.8c-6.3,0.5-12.5,0.3-18.4-2.1c-1.9-0.8-2-0.8-1.4-2.7c0.4-1.4,0.3-3.2,1.4-3.9c1.1-0.7,2.4,0.7,3.7,1.1
		c5.2,1.6,10.5,2.1,15.9,1.1c1.1-0.2,2.2-0.5,3.2-0.9c2.9-1,4.8-2.9,5.2-6c0.4-3.3-0.4-6.2-3.3-8.2c-1.5-1.1-3.2-1.9-4.9-2.6
		c-3.3-1.4-6.6-2.8-9.9-4.3c-2.1-0.9-4-2-5.8-3.3c-7.3-5.4-6.3-16-0.9-20.9c2.8-2.5,6-4,9.6-4.5c6-0.9,12-0.5,17.7,1.5
		c2,0.7,2,0.7,1.5,2.7C549.1,232.7,548.9,234.1,548.2,235.6z"/>
	<path class="st3" d="M344.5,234.5c-4.1-1.2-8.4-1.3-12.7-1.2c-2.2,0.1-4.4,0.5-6.6,1.1c-1.2,0.3-1.8,0.9-1.6,2.2
		c0.1,0.5,0,1.1,0,1.7c0,14.3,0,28.6,0,42.9c0,2.1,0,2.1-2,2.2c-1.1,0-2.2,0-3.4,0c-1.2,0.1-1.9-0.2-1.7-1.6c0-0.3,0-0.6,0-1
		c0-15.9,0-31.8,0-47.7c0-2.5,0-2.5,2.4-3.3c8.2-2.9,16.5-3.6,25-1.8c0.5,0.1,0.9,0.2,1.4,0.4c0.7,0.2,0.8,0.6,0.6,1.3
		c-0.3,1.2-0.5,2.3-0.8,3.5C345,233.5,345,234,344.5,234.5z"/>
	<path class="st4" d="M96.7,224.6c16.5-0.3,31,14,30.7,31.1c-0.2,16.4-13.1,30.7-31,30.7c-17.5,0-30.9-13.6-30.9-31
		C65.6,237.6,80.1,224.3,96.7,224.6z M67.8,255.3c-0.6,15.4,12.7,28.8,28.5,29c16,0.2,29.2-13.2,29.2-28.7c0.1-16-12.9-29-28.8-29.1
		C80.5,226.4,67.3,240.1,67.8,255.3z"/>
	<path class="st5" d="M171,235.6c3.9,0,7.1,3.2,7.1,7.2s-3.4,7.3-7.3,7.3c-4-0.1-7.1-3.2-7.1-7.2C163.7,238.7,166.9,235.6,171,235.6
		z"/>
	<path class="st5" d="M44.9,242.7c0,4-3.1,7.2-7,7.3c-4,0.1-7.4-3.3-7.4-7.2c0-3.9,3.2-7.2,7.1-7.2
		C41.8,235.5,44.9,238.6,44.9,242.7z"/>
	<path class="st5" d="M67.8,255.3c-0.5-15.2,12.7-28.9,29-28.8c15.9,0.1,28.8,13.2,28.8,29.1c-0.1,15.4-13.3,28.8-29.2,28.7
		C80.5,284.1,67.2,270.7,67.8,255.3z M111.6,242.6c0-4.1-3.2-7.1-7.4-7c-4,0.1-7,3.1-7,7.2c0,4,3.2,7.2,7.3,7.2
		C108,250,111.8,247,111.6,242.6z"/>
	<path class="st4" d="M111.6,242.6c0.2,4.4-3.6,7.4-7.1,7.4c-4.1,0-7.3-3.2-7.3-7.2c0-4.1,3-7.2,7-7.2
		C108.4,235.6,111.5,238.5,111.6,242.6z"/>
</g>
</svg>
