<?xml version="1.0" encoding="utf-8"?>
<!-- Generator: Adobe Illustrator 21.0.0, SVG Export Plug-In . SVG Version: 6.00 Build 0)  -->
<svg version="1.1" id="Слой_1" xmlns="http://www.w3.org/2000/svg" xmlns:xlink="http://www.w3.org/1999/xlink" x="0px" y="0px"
	 viewBox="0 0 521.5 145.3" style="enable-background:new 0 0 521.5 145.3;" xml:space="preserve">
<style type="text/css">
	.st0{fill:#002C4A;}
	.st1{fill:#8ED15B;}
</style>
<title>VIA_air</title>
<g id="Слой_2">
	<g id="Layer_1">
		<path class="st0" d="M215.3,97.7c4.2,27.6,42.2,21.2,87.2-32.7c0,0-34.7,59.8-76.5,65.9c-9.3,1.4-29.4-2.4-32.9-25.2
			c-6.5-42.1,46.5-74.5,46.5-74.5S209.6,60.2,215.3,97.7z"/>
		<path class="st1" d="M336,30.7c-3.8-1.2-11.9,4-16.6,6.7C306.3,102,246,132,246,132c63.5-24.6,89.9-72.5,98.2-95.4
			C344.1,36.5,339.8,31.9,336,30.7z"/>
		<path class="st0" d="M373.8,60.1l2.7-8.5c0,0-21.3-33.9-30.4-47.9c-3.2-5-6.2-4.3-9.7-1.4c-18.8,15.1-75.7,54.4-75.7,54.4
			l-5.9,10.6c0,0,62.1-35.9,64.8-37.4s12.3-7.9,16.6-6.4s7,4.7,8.1,5.8S373.8,60.1,373.8,60.1z"/>
		<path class="st1" d="M0,66.6h28.7l3.4,43.9l27-43.9h29.4l-52.8,78.7h-25L0,66.6z"/>
		<path class="st1" d="M91.1,66.6h26.1l-21,78.2H70.1L91.1,66.6z"/>
		<path class="st1" d="M152.8,66h25.9l11.8,78.7h-27.8l-1.3-10.5H134l-6.8,10.5H98.7L152.8,66z M160,115.7l-2.1-19l-12.2,19H160z"/>
		<path class="st0" d="M360.4,66h25.9l11.8,78.7h-27.8l-1.3-10.5h-27.4l-6.8,10.5h-28.5L360.4,66z M367.5,115.7l-2.1-19l-12.2,19
			H367.5z"/>
		<path class="st0" d="M421.2,66.6h26.1l-21,78.2h-26.1L421.2,66.6z"/>
		<path class="st0" d="M456.1,66.6h30.5c14.4,0,23.6,3.1,28.8,8.4c4.4,4.4,6.1,10.2,6.1,16.3c0,12.2-6.4,22.7-21.8,27.5l10.8,26
			h-28.1l-8.7-22.3h-6.5l-6,22.3h-26.1L456.1,66.6z M481.7,103.8c8.7,0,13.3-4,13.3-8.9c0-1.5-0.6-3-1.7-4.1c-1.5-1.5-4-2.2-7.7-2.2
			h-9.3l-4.1,15.3h9.5L481.7,103.8z"/>
	</g>
</g>
</svg>
