<?xml version="1.0" encoding="utf-8"?>
<!-- Generator: Adobe Illustrator 22.1.0, SVG Export Plug-In . SVG Version: 6.00 Build 0)  -->
<svg version="1.1" id="Слой_1" xmlns="http://www.w3.org/2000/svg" xmlns:xlink="http://www.w3.org/1999/xlink" x="0px" y="0px"
	 width="353.1px" height="63.7px" viewBox="0 0 353.1 63.7" style="enable-background:new 0 0 353.1 63.7;" xml:space="preserve">
<style type="text/css">
	.st0{fill:#D25043;}
</style>
<path class="st0" d="M69.6,40.3c-5.7,0-7.6-3.6-7.4-8.5h22.5c1.1-3.3,1.7-8,1.7-10.1c0-8.5-4.7-13.4-13.2-13.4
	c-6.9,0-12.5,3.3-16.2,8.4c-3.3,4.5-5.2,10.9-5.2,16.5c0,9.2,5.7,14.7,15.3,14.7c5.7,0,10.6-1.3,13.7-2.8l-1.1-6.9
	C77.7,39.1,73.6,40.3,69.6,40.3z M64.1,20.6c1.9-3.7,4.5-5.9,7.7-5.9c3,0,4.7,2,4.7,5.9c0,1.2-0.3,3-0.6,4.2H62.7
	C63.2,22.7,63.4,22.2,64.1,20.6z M28.2,9.3L12.9,42.6l-2-33.3H0l4.7,49h10l24.8-49C39.5,9.3,28.2,9.3,28.2,9.3z M95,47.8
	c7.7,0,9.4-7.7,9.4-7.7c-0.6,0.3-2.1,0.5-3.1,0.5c-3.5-0.2-2.8-3.7-2.7-4.2l4.2-20h5.9l1.5-7.1h-5.9c0,0,0.6-2.8,1.9-9
	C98.6-1,94.6,3.4,94.6,3.4l-7,33.1C86.3,43.3,89,47.8,95,47.8z M174.6,40.5c-3.5-0.2-2.8-3.7-2.7-4.2l4.1-20h5.9l1.5-7.1h-5.9
	c0,0,0.6-2.8,1.9-9c-7.6-1.3-11.6,3.1-11.6,3.1L161,36.5c-1.4,6.7,1.3,11.2,7.3,11.2c7.7,0,9.4-7.7,9.4-7.7
	C177.1,40.3,175.6,40.6,174.6,40.5z M146.5,8.2c-6.9,0-12.5,3.3-16.2,8.4c-3.2,4.5-5.1,10.9-5.1,16.5c0,9.2,5.6,14.7,15.3,14.7
	c5.7,0,10.6-1.3,13.7-2.8l-1.1-6.9c-2.1,1-6.2,2.2-10.2,2.2c-5.7,0-7.6-3.6-7.4-8.5H158c1.1-3.3,1.7-8,1.7-10.1
	C159.6,13.2,154.9,8.2,146.5,8.2z M149.3,24.7H136c0.5-2,0.6-2.5,1.4-4.1c1.8-3.7,4.5-5.9,7.7-5.9c3,0,4.7,2,4.7,5.9
	C149.9,21.7,149.6,23.6,149.3,24.7z M244.2,11.4l-7.5,36h10.8l6.4-31.2c1.8-0.8,4.7-0.7,7.3,0.3l2.6-7.9
	C257.3,7.4,248.8,8.9,244.2,11.4z M206,9.3l-29.5,49h10.8l6.1-10.9h15l-0.1,10.9h10.9l-1.9-49C217.3,9.3,206,9.3,206,9.3z
	 M208.4,40.3h-11.1l11.3-20.1L208.4,40.3z M114.8,9.3c0,0-4.3,20.1-6.6,31.3c-1.3,6.6-3,9.3-4.9,11c-5.4,4.7-14.3,4.7-19.2-0.9
	c-0.8,6.6,4.6,13,14.3,13s17.2-7.3,19.7-18.5l7.5-35.9C125.6,9.3,114.8,9.3,114.8,9.3z M41.4,9.3l-8,38.1h10.9l8-38.1H41.4z
	 M228.7,9.3l-8,38.1h10.9l8-38.1H228.7z M258,40.4c-2.4,0-4.5,2.1-4.5,4.4c0,1.6,1.3,3,3.1,3c2.4,0,4.6-2.2,4.6-4.4
	C261.1,41.7,259.8,40.4,258,40.4z M276.7,41.7c-2.3,0-3.7-1.8-3.7-5.3c0-2.7,0.9-6.4,2.3-8.8c1.5-2.6,3.4-3.8,5.6-3.8
	c1.3,0,2.4,0.5,2.9,1l2.6-4.3c-0.9-0.9-3.6-2.1-6.8-2.1c-4.1,0-8.1,2-11,6c-2.4,3.4-3.9,8.4-3.9,12.5c0,6.7,3.9,10.9,9.5,10.9
	c3.3,0,5.7-0.9,7.1-2.1l-0.7-5C279.7,41.2,278.2,41.7,276.7,41.7z M298.8,18.3c-5.2,0-9.3,2.3-11.9,6.3c-2.3,3.4-3.8,8.5-3.8,12.7
	c0,6.2,3.5,10.5,10.2,10.5c5.4,0,9.4-2.4,12-6.3c2.3-3.4,3.8-8.5,3.8-12.7C309.1,22.6,305.6,18.3,298.8,18.3z M298.9,38.1
	c-1.1,2.5-2.6,4.1-4.8,4.1c-2.3,0-3-1.7-3-4.1c0-2.9,1.1-7.7,2.3-10.4c1.1-2.5,2.7-4.2,4.9-4.2c2.3,0,3.1,1.7,3.1,4.2
	C301.2,30.5,300.1,35.4,298.9,38.1z M344.2,18.3c-4.7,0-8.3,1.4-10.2,2.9c-1.3-1.6-4.4-2.9-8.2-2.9c-4.8,0-8.7,0.7-12,2.1l-5.6,27
	h8.3l4.8-23.4c1-0.4,2.2-0.6,3.5-0.6c2.5,0,3.8,1.1,3.8,2.8c0,0.3-0.1,0.6-0.1,1l-4.2,20.2h8.3l4.7-22.5c1-0.9,2.5-1.5,4-1.5
	c2.5,0,3.5,1.2,3.5,2.8c0,0.4-0.1,0.7-0.1,1.1l-4.2,20.1h8.3l4.1-19.9c0.2-0.7,0.2-1.4,0.2-2.1C352.8,21.3,350,18.3,344.2,18.3z"/>
</svg>
