<?xml version="1.0" encoding="utf-8"?>
<!-- Generator: Adobe Illustrator 22.1.0, SVG Export Plug-In . SVG Version: 6.00 Build 0)  -->
<svg version="1.1" id="Слой_1" xmlns="http://www.w3.org/2000/svg" xmlns:xlink="http://www.w3.org/1999/xlink" x="0px" y="0px"
	 width="94.571px" height="25px" viewBox="0 0 94.571 25" style="enable-background:new 0 0 94.571 25;" xml:space="preserve">
<style type="text/css">
	.st0{fill:#A2935C;}
</style>
<g>
	<polygon class="st0" points="4.286,12.825 4.887,10.524 9.565,10.524 10.09,8.722 2.51,8.722 0,18.529 2.935,18.529 3.811,14.626 
		8.164,14.626 8.689,12.825 	"/>
	<polygon class="st0" points="41.778,12.825 42.378,10.524 47.057,10.524 47.582,8.722 40.002,8.722 37.492,18.529 40.427,18.529 
		41.303,14.626 45.656,14.626 46.181,12.825 	"/>
	<polygon class="st0" points="14.093,8.697 11.191,8.697 8.689,18.529 16.419,18.529 16.845,16.703 12.016,16.703 	"/>
	<polygon class="st0" points="51.288,8.697 48.386,8.697 45.885,18.529 53.615,18.529 54.04,16.703 49.212,16.703 	"/>
	<polygon class="st0" points="22.223,10.524 26.951,10.524 27.402,8.722 19.897,8.722 17.345,18.529 25.1,18.554 25.575,16.678 
		20.722,16.678 21.197,14.651 25.675,14.651 26.176,12.8 21.648,12.8 	"/>
	<path class="st0" d="M33.653,14.267l4.856-5.519h-3.327l-2.893,3.327c-1.025-1.686-2.163-4.068-0.734-5.787
		c1.968-2.368,10.974-2.168,10.974-2.168h6.671c0,0-1.051-0.434-0.233-1.401c0,0-8.056-0.073-10.741,0
		c-2.624,0.072-8.539,0.467-9.873,3.569c-0.837,1.946,0.65,5.244,2.277,7.695l-3.953,4.546h3.227l2.242-2.548
		c0.417,0.472,0.792,0.827,1.077,1.013c1.634,1.067,6.821,6.404,11.508,8.005C44.73,25,37.207,19.84,33.653,14.267z"/>
	<path class="st0" d="M49.75,3.886c0-0.017,0,1.184,0,1.184S50.6,4.62,50.6,4.169h2.785v2.685c0.521,0,1.801-2.185,1.801-2.735
		h2.602c0,0,0.984-0.05,0.984-0.588c0-0.6-0.917-0.646-0.917-0.646H55.22c0,0-1.201-2.885-1.851-2.885v2.718h-2.752
		c0,0-0.421-0.934-0.871-0.934l0.004,1.109c0,0-0.542,0.033-0.542,0.45C49.208,3.686,49.75,3.903,49.75,3.886z"/>
	<polygon class="st0" points="57.338,8.747 54.803,18.529 57.672,18.529 60.107,8.747 	"/>
	<path class="st0" d="M71.406,12.859l-4.753-0.083l-0.5,1.851h2.026l-0.475,1.951c0,0-3.953,1.151-4.528-1.926
		c-0.575-3.077,2.927-3.953,3.402-3.978c0.475-0.025,1.751-0.425,4.278,0.225l0.851-1.751c0,0-0.625-0.425-3.352-0.425
		c-2.727,0-4.628,0.767-5.729,1.301s-2.31,2.418-2.518,3.836c-0.208,1.418,0.292,4.695,5.195,4.695s4.828-0.55,4.828-0.55
		L71.406,12.859z"/>
	<polygon class="st0" points="79.962,12.8 75.634,12.8 76.584,8.747 73.758,8.747 71.256,18.529 74.208,18.529 75.183,14.651 
		79.611,14.651 78.511,18.529 81.538,18.529 83.914,8.747 81.137,8.747 	"/>
	<polygon class="st0" points="85.065,8.722 84.59,10.549 87.917,10.549 85.866,18.529 88.843,18.529 90.844,10.524 94.146,10.524 
		94.571,8.722 	"/>
</g>
</svg>
