<?xml version="1.0" encoding="UTF-8" standalone="no"?>
<!-- Created with Inkscape (http://www.inkscape.org/) -->
<svg
   xmlns:dc="http://purl.org/dc/elements/1.1/"
   xmlns:cc="http://creativecommons.org/ns#"
   xmlns:rdf="http://www.w3.org/1999/02/22-rdf-syntax-ns#"
   xmlns:svg="http://www.w3.org/2000/svg"
   xmlns="http://www.w3.org/2000/svg"
   xmlns:sodipodi="http://sodipodi.sourceforge.net/DTD/sodipodi-0.dtd"
   xmlns:inkscape="http://www.inkscape.org/namespaces/inkscape"
   version="1.0"
   width="460"
   height="135"
   id="svg2413"
   sodipodi:version="0.32"
   inkscape:version="0.46"
   sodipodi:docname="Mahan Air_final_3.svg"
   inkscape:output_extension="org.inkscape.output.svg.inkscape">
  <metadata
     id="metadata71">
    <rdf:RDF>
      <cc:Work
         rdf:about="">
        <dc:format>image/svg+xml</dc:format>
        <dc:type
           rdf:resource="http://purl.org/dc/dcmitype/StillImage" />
      </cc:Work>
    </rdf:RDF>
  </metadata>
  <sodipodi:namedview
     inkscape:window-height="480"
     inkscape:window-width="640"
     inkscape:pageshadow="2"
     inkscape:pageopacity="0.0"
     guidetolerance="10.0"
     gridtolerance="10.0"
     objecttolerance="10.0"
     borderopacity="1.0"
     bordercolor="#666666"
     pagecolor="#ffffff"
     id="base"
     showgrid="false" />
  <defs
     id="defs3">
    <inkscape:perspective
       sodipodi:type="inkscape:persp3d"
       inkscape:vp_x="0 : 67.5 : 1"
       inkscape:vp_y="0 : 1000 : 0"
       inkscape:vp_z="460 : 67.5 : 1"
       inkscape:persp3d-origin="230 : 45 : 1"
       id="perspective73" />
    <clipPath
       id="clipPath2437">
      <path
         d="M 0,141.732 L 141.732,141.732 L 141.732,0 L 0,0 L 0,141.732 z"
         id="path2439" />
    </clipPath>
    <clipPath
       id="clipPath2457">
      <path
         d="M 0,141.732 L 141.732,141.732 L 141.732,0 L 0,0 L 0,141.732 z"
         id="path2459" />
    </clipPath>
  </defs>
  <g
     transform="matrix(2.55,0,0,-2.8875,114.76318,272.78268)"
     id="g2451"
     style="fill:#004846;fill-opacity:1">
    <g
       id="g2517"
       style="fill:#004846;fill-opacity:1">
      <g
         clip-path="url(#clipPath2457)"
         id="g2455"
         style="fill:#004846;fill-opacity:1">
        <g
           transform="translate(62.4658,80.3584)"
           id="g2520"
           style="fill:#004846;fill-opacity:1" />
        <g
           transform="translate(64.873,71.1689)"
           id="g2523"
           style="fill:#004846;fill-opacity:1" />
        <g
           transform="translate(68.6523,70.5786)"
           id="g2526"
           style="fill:#004846;fill-opacity:1" />
        <g
           transform="translate(70.8672,64.0586)"
           id="g2529"
           style="fill:#004846;fill-opacity:1" />
        <g
           transform="translate(120.2783,60.0742)"
           id="g2532"
           style="fill:#004846;fill-opacity:1">
          <path
             d="M 0,0 L -1.125,-2.418 L 3.312,-2.418 L 4.438,0 L 0,0 z"
             id="path2479"
             style="fill:#004846;fill-opacity:1;fill-rule:evenodd;stroke:none" />
        </g>
        <g
           transform="translate(118.6113,56.4785)"
           id="g2535"
           style="fill:#004846;fill-opacity:1">
          <path
             d="M 0,0 L -3.842,-8.252 L 0.595,-8.252 L 3.621,-1.744 L 4.436,0 L 0,0 z"
             id="path2483"
             style="fill:#004846;fill-opacity:1;fill-rule:evenodd;stroke:none" />
        </g>
        <g
           transform="translate(133.6152,56.6738)"
           id="g2538"
           style="fill:#004846;fill-opacity:1">
          <path
             d="M 0,0 C -0.077,0.012 -0.181,0.012 -0.309,0.012 C -1.112,0.012 -1.849,-0.117 -2.521,-0.363 C -3.207,-0.621 -3.881,-1.01 -4.54,-1.539 C -4.423,-1.293 -4.319,-1.049 -4.242,-0.828 C -4.164,-0.609 -4.113,-0.402 -4.1,-0.207 L -8.51,-0.207 C -8.537,-0.363 -8.588,-0.559 -8.666,-0.789 C -8.744,-1.023 -8.86,-1.293 -9.002,-1.592 L -11.383,-6.715 L -12.198,-8.461 L -7.774,-8.461 L -6.286,-5.266 C -5.846,-4.309 -5.316,-3.648 -4.696,-3.273 C -4.073,-2.898 -3.221,-2.705 -2.121,-2.705 C -1.966,-2.705 -1.798,-2.705 -1.616,-2.719 C -1.437,-2.729 -1.254,-2.744 -1.061,-2.756 L 0.207,-0.014 C 0.144,0 0.077,0 0,0"
             id="path2487"
             style="fill:#004846;fill-opacity:1;fill-rule:evenodd;stroke:none" />
        </g>
        <g
           transform="translate(104.8086,52.9473)"
           id="g2541"
           style="fill:#004846;fill-opacity:1">
          <path
             d="M 0,0 L 2.276,2.25 L 4.347,4.309 L 4.541,0 L 0,0 z M 8.459,7.115 L 3.35,7.115 L 2.276,6.117 L -9.301,-4.721 L -4.684,-4.721 L -2.574,-2.586 L 4.579,-2.586 L 4.631,-4.721 L 9.766,-4.721 L 8.459,7.115 z"
             id="path2491"
             style="fill:#004846;fill-opacity:1;fill-rule:evenodd;stroke:none" />
        </g>
        <g
           transform="translate(90.127,55.7148)"
           id="g2493"
           style="fill:#004846;fill-opacity:1">
          <path
             d="M 0,0 C -0.453,0.646 -1.398,0.959 -2.834,0.959 C -3.609,0.959 -4.385,0.842 -5.149,0.582 C -5.899,0.338 -6.674,-0.051 -7.477,-0.568 C -7.308,-0.232 -7.204,0.041 -7.128,0.246 C -7.051,0.467 -7.012,0.635 -7.012,0.764 L -11.435,0.764 C -11.474,0.596 -11.524,0.391 -11.603,0.156 C -11.681,-0.09 -11.784,-0.334 -11.914,-0.619 L -14.825,-6.881 L -15.109,-7.488 L -10.697,-7.488 L -8.798,-3.414 C -8.435,-2.639 -7.981,-2.057 -7.452,-1.668 C -6.921,-1.279 -6.287,-1.1 -5.575,-1.1 C -4.967,-1.1 -4.593,-1.24 -4.437,-1.525 C -4.295,-1.811 -4.359,-2.275 -4.657,-2.91 L -6.792,-7.488 L -2.367,-7.488 L -0.182,-2.779 C 0.388,-1.564 0.453,-0.633 0,0"
             id="path2495"
             style="fill:#004846;fill-opacity:1;fill-rule:evenodd;stroke:none" />
        </g>
        <g
           transform="translate(70.168,51.666)"
           id="g2497"
           style="fill:#004846;fill-opacity:1">
          <path
             d="M 0,0 C -0.284,-0.607 -0.686,-1.059 -1.203,-1.357 C -1.461,-1.514 -1.758,-1.629 -2.081,-1.707 C -2.38,-1.785 -2.716,-1.811 -3.092,-1.811 C -3.544,-1.811 -3.867,-1.732 -4.049,-1.59 C -4.229,-1.436 -4.255,-1.215 -4.139,-0.943 C -3.944,-0.543 -3.557,-0.271 -2.962,-0.102 C -2.729,-0.039 -2.432,0.014 -2.081,0.039 C -1.525,0.104 -0.8,0.131 0.065,0.131 L 0,0 z M 5.134,3.895 C 5.044,4.023 4.929,4.129 4.786,4.23 C 4.074,4.748 2.755,5.008 0.802,5.008 C -0.27,5.008 -1.24,4.941 -2.081,4.826 C -2.82,4.709 -3.467,4.555 -4.022,4.334 C -5.226,3.895 -6.054,3.209 -6.494,2.303 L -2.406,2.303 C -2.301,2.445 -2.211,2.563 -2.081,2.68 C -1.939,2.809 -1.771,2.898 -1.578,2.988 C -1.229,3.131 -0.775,3.209 -0.245,3.209 C 0.351,3.209 0.751,3.105 0.944,2.898 C 1.139,2.691 1.139,2.369 0.944,1.955 C 0.933,1.928 0.919,1.889 0.893,1.852 C 0.866,1.799 0.841,1.773 0.841,1.76 C -0.232,1.748 -1.203,1.709 -2.081,1.643 C -3.635,1.539 -4.902,1.332 -5.858,1.037 C -7.334,0.57 -8.317,-0.18 -8.808,-1.229 C -8.808,-1.24 -8.808,-1.24 -8.821,-1.254 C -9.08,-1.836 -9.08,-2.328 -8.821,-2.717 C -8.744,-2.82 -8.64,-2.91 -8.523,-3 C -7.993,-3.428 -7.036,-3.635 -5.678,-3.635 C -4.707,-3.635 -3.841,-3.518 -3.065,-3.285 C -2.716,-3.18 -2.393,-3.051 -2.081,-2.91 C -1.681,-2.717 -1.294,-2.482 -0.944,-2.225 C -1.048,-2.445 -1.111,-2.65 -1.177,-2.846 C -1.229,-3.051 -1.267,-3.246 -1.267,-3.439 L 2.832,-3.439 C 2.832,-3.311 2.858,-3.154 2.897,-3 C 2.948,-2.832 3.027,-2.625 3.156,-2.354 L 5.108,1.852 C 5.122,1.863 5.122,1.877 5.134,1.889 C 5.51,2.73 5.51,3.402 5.134,3.895"
             id="path2499"
             style="fill:#004846;fill-opacity:1;fill-rule:evenodd;stroke:none" />
        </g>
        <g
           transform="translate(61.3467,55.5859)"
           id="g2501"
           style="fill:#004846;fill-opacity:1">
          <path
             d="M 0,0 C -0.026,0.064 -0.064,0.129 -0.116,0.182 C -0.582,0.789 -1.539,1.088 -2.988,1.088 C -3.765,1.088 -4.54,0.959 -5.316,0.699 C -6.08,0.453 -6.843,0.064 -7.606,-0.439 L -5.316,4.477 L -9.754,4.477 L -14.979,-6.766 L -15.264,-7.373 L -14.979,-7.373 L -10.827,-7.359 L -8.926,-3.285 C -8.563,-2.51 -8.111,-1.928 -7.593,-1.539 C -7.063,-1.164 -6.441,-0.971 -5.73,-0.971 C -5.136,-0.971 -4.761,-1.111 -4.605,-1.385 C -4.437,-1.668 -4.489,-2.096 -4.747,-2.664 L -6.947,-7.359 L -2.497,-7.359 L -0.22,-2.471 C -0.128,-2.277 -0.052,-2.082 0,-1.9 C 0.284,-1.125 0.284,-0.49 0,0"
             id="path2503"
             style="fill:#004846;fill-opacity:1;fill-rule:evenodd;stroke:none" />
        </g>
        <g
           transform="translate(28.0771,60.0625)"
           id="g2505"
           style="fill:#004846;fill-opacity:1">
          <path
             d="M 0,0 L -6.856,-7.334 L -6.986,0 L -14.656,0 L -20.167,-11.85 L -15.729,-11.85 L -11.293,-2.303 L -10.957,-11.85 L -7.438,-11.85 L 1.629,-2.303 L -2.808,-11.85 L 1.616,-11.85 L 5.627,-3.221 L 7.127,0 L 0,0 z"
             id="path2507"
             style="fill:#004846;fill-opacity:1;fill-rule:evenodd;stroke:none" />
        </g>
        <g
           transform="translate(41.2441,51.666)"
           id="g2509"
           style="fill:#004846;fill-opacity:1">
          <path
             d="M 0,0 C -0.284,-0.607 -0.685,-1.059 -1.202,-1.357 C -1.473,-1.514 -1.758,-1.629 -2.096,-1.707 C -2.405,-1.785 -2.742,-1.811 -3.116,-1.811 C -3.569,-1.811 -3.893,-1.744 -4.074,-1.59 C -4.255,-1.436 -4.28,-1.215 -4.15,-0.957 C -3.971,-0.555 -3.583,-0.271 -2.987,-0.102 C -2.754,-0.051 -2.457,0 -2.096,0.039 C -1.525,0.104 -0.814,0.131 0.053,0.131 L 0,0 z M 5.123,3.895 C 5.033,4.012 4.916,4.129 4.786,4.23 C 4.076,4.748 2.743,5.008 0.789,5.008 C -0.284,5.008 -1.241,4.941 -2.096,4.813 C -2.832,4.709 -3.491,4.541 -4.049,4.334 C -5.251,3.895 -6.065,3.209 -6.52,2.289 L -2.418,2.289 C -2.328,2.434 -2.223,2.563 -2.096,2.68 C -1.939,2.795 -1.784,2.898 -1.59,2.988 C -1.228,3.131 -0.787,3.209 -0.244,3.209 C 0.337,3.209 0.737,3.105 0.933,2.898 C 1.127,2.691 1.138,2.369 0.933,1.941 C 0.933,1.928 0.906,1.889 0.88,1.852 C 0.854,1.799 0.843,1.773 0.828,1.76 C -0.244,1.748 -1.215,1.709 -2.096,1.643 C -3.66,1.527 -4.928,1.32 -5.871,1.021 C -6.531,0.828 -7.087,0.57 -7.54,0.248 C -8.123,-0.154 -8.563,-0.646 -8.834,-1.229 C -9.183,-1.99 -9.093,-2.586 -8.55,-3 C -8.303,-3.195 -7.967,-3.35 -7.54,-3.453 C -7.049,-3.57 -6.429,-3.635 -5.69,-3.635 C -4.733,-3.635 -3.866,-3.518 -3.091,-3.285 C -2.742,-3.18 -2.405,-3.051 -2.096,-2.91 C -1.692,-2.717 -1.306,-2.496 -0.942,-2.225 C -1.047,-2.445 -1.125,-2.65 -1.177,-2.846 C -1.241,-3.051 -1.268,-3.246 -1.281,-3.453 L 2.834,-3.453 C 2.82,-3.311 2.847,-3.154 2.886,-3 C 2.938,-2.832 3.027,-2.625 3.145,-2.365 L 5.097,1.838 C 5.11,1.863 5.11,1.877 5.123,1.889 C 5.499,2.73 5.499,3.402 5.123,3.895"
             id="path2511"
             style="fill:#004846;fill-opacity:1;fill-rule:evenodd;stroke:none" />
        </g>
      </g>
    </g>
  </g>
  <g
     transform="translate(-102.68902,-88.40061)"
     id="layer1">
    <g
       transform="matrix(3.543307,0,0,3.543307,-17.55629,-36.755027)"
       id="_92965608"
       style="fill:#004846;fill-opacity:1;fill-rule:evenodd">
      <path
         d="M 162.291,43.4974 C 162.385,43.3188 162.495,43.1581 162.6001,43.1847 C 162.9197,43.1847 163.0831,43.7073 163.0417,44.3021 C 162.9491,44.8742 162.6439,45.4219 162.2469,45.5794 C 161.9215,45.7086 161.6015,45.7086 161.3191,45.5763 C 160.292,44.7669 160.0492,46.8626 159.0679,48.0806 C 158.6768,48.9631 158.2563,49.8943 157.7307,50.635 C 157.483,50.9791 157.2086,51.244 156.9056,51.2866 C 156.2241,51.561 155.3775,51.8783 154.5012,52.0718 C 154.2575,52.1442 154.2324,51.7723 154.4238,51.6986 C 154.6247,51.6261 154.7389,51.5828 154.8893,51.4844 C 155.9032,50.8212 156.9794,50.0979 157.7896,49.1531 C 157.8825,49.0447 157.9354,48.9329 157.9391,48.7827 C 157.9434,48.6106 157.88,48.6246 157.8062,48.6396 C 157.619,48.6777 156.1589,48.6828 156.1915,47.7613 C 156.3727,46.8155 157.1046,44.9166 158.0094,44.9637 C 158.3275,44.9803 158.5877,45.187 158.8156,45.5262 C 159.2444,46.1648 158.9543,46.4175 159.2066,46.4175 C 159.4589,46.4175 159.9383,45.0206 160.2789,44.3022 C 160.5558,43.7182 161.0306,43.3019 161.564,43.6001 C 161.9687,43.8263 161.927,44.1884 162.291,43.4974 L 162.291,43.4974 z"
         id="_92966712"
         style="fill:#004846;fill-opacity:1" />
      <path
         d="M 160.86,52.6839 C 160.759,53.0475 160.6328,53.4111 160.633,53.7748 C 160.5642,54.3619 161.3951,53.9918 161.3859,55.0473 C 161.3773,56.0289 160.2468,56.2982 160.1089,55.1862 C 160.0031,54.3324 160.5289,53.026 160.86,52.6839 L 160.86,52.6839 z"
         id="_92966640"
         style="fill:#004846;fill-opacity:1" />
      <path
         d="M 153.679,42.5114 C 153.522,44.3933 153.2839,46.2829 152.9872,47.8677 C 152.6105,49.2795 152.1195,50.266 151.5743,51.074 C 151.3887,51.3548 151.0142,51.5021 151.322,50.635 C 151.8366,49.3911 151.9949,47.8185 152.2051,46.218 C 152.2209,45.5424 152.2255,45.0838 152.5075,44.46 L 153.3291,42.3027 C 153.5131,41.8793 153.7136,42.0977 153.679,42.5114 L 153.679,42.5114 z"
         id="_92966568"
         style="fill:#004846;fill-opacity:1" />
      <path
         d="M 151.146,42.5461 C 151.2806,42.329 151.4697,42.3867 151.4866,42.5993 C 151.3308,43.3132 150.9356,43.9429 150.3765,44.5151 C 150.3236,44.5784 150.2667,44.641 150.2077,44.6927 C 150.0048,44.8705 149.7772,44.8179 149.56,44.69 C 149.057,44.3936 148.8129,44.5473 147.9419,45.2867 C 147.4544,45.6592 147.3198,46.0473 147.4372,46.4908 C 147.6643,46.8056 147.8913,47.1205 148.1184,47.4354 C 148.3615,47.6837 148.2953,47.932 148.0175,48.1804 C 147.7652,48.4487 147.5129,48.717 147.2606,48.9853 C 147.0634,49.219 146.9571,49.168 146.5918,48.9388 C 146.2266,48.7095 145.7341,48.2468 145.2295,48.3533 C 144.8905,48.3639 142.5827,50.3921 139.3222,51.7983 C 133.6038,54.2645 126.4959,55.273 123.29,53.5945 C 121.7647,52.7959 121.0218,51.2339 121.2565,48.7192 L 121.7818,43.0907 C 121.8436,42.4281 121.9666,41.8909 122.1743,41.2632 C 122.4128,40.5424 122.7612,39.8878 122.8628,39.6991 C 122.9489,39.539 121.8066,48.0805 122.4844,49.0385 C 123.3804,51.9307 129.6869,52.043 135.2471,51.0068 C 139.0108,50.3054 142.585,48.4483 144.5475,47.3176 C 145.4758,46.7828 145.9559,46.5535 146.1,46.4309 C 146.7235,45.9002 147.508,44.3644 148.3877,43.6169 C 148.8858,43.1937 149.5511,43.0224 149.8211,43.1447 C 150.7311,43.5569 150.9778,42.946 151.146,42.5461 L 151.146,42.5461 z"
         id="_92966496"
         style="fill:#004846;fill-opacity:1" />
      <path
         d="M 117.198,40.9895 C 117.3507,40.6606 117.4313,40.3928 117.8414,41.0028 C 118.2301,41.4363 118.5633,42.3919 118.4924,43.5047 C 118.4231,44.5929 118.0394,45.7401 117.6014,46.7376 C 116.8372,48.4778 116.9704,48.7083 117.1845,48.814 C 118.0641,49.2486 118.3565,49.8055 118.3065,50.9079 C 118.2899,51.2734 118.2413,51.6695 118.1441,52.0718 C 117.0356,56.5646 114.7106,58.2905 112.3916,58.2982 C 107.094,57.3519 110.4794,49.6367 111.9674,46.9231 C 112.2619,46.3861 112.4782,46.8049 112.1645,47.4952 C 110.2086,51.5945 109.5266,54.6186 112.2402,55.411 C 114.1726,55.6895 115.6433,55.1052 117.034,53.6151 C 117.4388,52.8296 117.7087,52.1108 117.034,51.859 C 116.0345,51.443 115.3723,50.8199 115.8229,49.6239 C 116.2735,48.4278 117.404,46.0318 117.3746,45.3932 C 117.3746,44.7546 116.6303,43.504 116.6303,43.504 C 116.5274,43.2512 116.498,42.9762 116.6303,42.6525 C 116.8153,42.1026 117.013,41.5394 117.198,40.9895 L 117.198,40.9895 z"
         id="_92966424"
         style="fill:#004846;fill-opacity:1" />
      <path
         d="M 116.456,37.4382 C 116.456,37.4382 115.6993,37.3452 115.775,37.8105 C 115.8506,38.2759 116.3804,38.0943 116.6577,37.9969 C 116.935,37.8995 117.0127,38.0413 116.8532,38.3692 C 116.7294,38.5511 116.5978,38.652 116.3859,38.7586 C 116.2536,38.85 115.9219,39.0447 115.6566,39.3152 C 115.3886,39.5884 115.1767,39.8812 115.0491,40.0375 C 114.9557,40.152 114.9343,40.1563 114.7969,40.1506 C 114.4926,40.138 114.618,39.7121 114.8714,39.356 C 115.1022,39.0318 115.3893,38.8612 115.3967,38.828 C 115.4464,38.6049 115.0205,38.5598 115.1949,38.1033 C 115.3693,37.6467 115.6193,37.1047 116.0524,37.0127 C 116.4855,36.9207 116.6473,37.395 116.456,37.4382 L 116.456,37.4382 z"
         id="_92966352"
         style="fill:#004846;fill-opacity:1" />
      <path
         d="M 105.421,41.0011 C 105.2675,42.1538 104.8134,45.6579 104.7277,46.7213 C 104.6243,48.0055 104.8175,49.3014 105.4339,49.4344 C 106.0504,49.5674 105.9381,49.2039 106.1401,48.5034 C 106.3422,47.803 106.9472,48.2197 106.9977,49.4344 C 106.5479,53.2023 103.4367,52.999 103.7063,49.2748 L 104.2864,43.4496 C 104.4017,42.5993 104.8801,41.8185 105.1427,40.9252 C 105.1878,40.7719 105.5084,40.3448 105.421,41.0011 L 105.421,41.0011 z"
         id="_92966280"
         style="fill:#004846;fill-opacity:1" />
      <path
         d="M 101.204,38.359 C 100.9574,39.1772 100.2645,41.2681 100.69,42.3944 C 100.85,42.8177 101.2074,43.0343 101.8091,43.141 C 102.0877,43.1904 102.2109,42.9132 102.224,43.322 C 102.2306,43.5263 102.1625,43.777 102.1053,43.9284 C 101.5516,45.3939 99.6898,47.3876 100.0876,48.836 C 100.2587,49.4592 100.5921,49.4415 100.819,48.663 C 101.046,47.8845 101.811,49.2482 101.4748,50.2324 C 101.1385,51.2166 100.4894,52.3234 99.457,52.1209 C 98.4247,51.9184 98.3081,50.3106 98.8643,48.9955 C 99.2671,48.0433 100.056,46.7586 100.3833,46.2149 C 100.4708,46.0695 100.4775,45.9221 100.4407,45.91 C 97.7761,45.1737 100.3301,39.1152 100.9882,38.0452 C 101.2172,37.6727 101.4137,37.6628 101.204,38.359 L 101.204,38.359 z"
         id="_92966208"
         style="fill:#004846;fill-opacity:1" />
      <path
         d="M 96.304,45.7106 C 96.5394,45.0278 96.6739,45.1342 96.6319,45.8702 C 96.4428,47.9848 96.2018,49.7424 95.8248,51.7485 C 95.4478,53.7546 92.6365,58.4809 89.1411,58.2919 C 85.6457,58.1028 85.3783,54.218 86.6442,51.1899 C 87.2375,49.7706 87.6506,49.01 87.8757,48.5746 C 88.204,47.9397 88.6162,48.0602 88.3715,48.5003 C 87.1325,50.7302 85.5847,55.2893 89.4185,55.5256 C 92.19,55.6963 94.5347,53.7011 95.0682,51.7751 C 95.6017,49.8492 95.182,48.2835 95.3708,48.2109 C 95.1599,48.4334 96.1018,45.7643 96.304,45.7106 L 96.304,45.7106 z"
         id="_92966136"
         style="fill:#004846;fill-opacity:1" />
      <path
         d="M 142.451,55.2354 C 142.5362,55.013 142.7244,54.813 143.0594,55.0891 C 143.6781,55.7234 144.245,56.1644 143.8027,57.2037 C 143.4191,58.105 143.1407,58.4765 142.8352,58.4677 C 142.5391,58.4591 142.2175,58.0916 141.75,57.6027 C 141.4822,57.3656 141.5335,57.1151 141.6579,56.8048 L 142.451,55.2354 L 142.451,55.2354 z"
         id="_92966064"
         style="fill:#004846;fill-opacity:1" />
      <path
         d="M 147.858,53.956 C 147.962,53.7427 148.1428,53.546 148.4525,53.853 L 149.0688,54.5802 C 149.0688,54.5802 149.3992,54.8871 149.3236,55.4658 C 149.287,55.5698 149.3538,55.5649 149.4354,55.5444 L 150.3297,53.956 C 150.4337,53.7427 150.6145,53.546 150.9242,53.853 L 151.5405,54.5802 C 151.5405,54.5802 151.776,54.8369 151.8064,55.3206 C 151.8625,56.21 150.7851,57.6366 150.3002,56.9981 C 149.7988,56.5198 149.3298,55.686 149.1787,56.055 C 149.0935,56.2633 148.3582,57.6291 147.8285,56.9981 L 147.0937,56.2154 C 146.867,56.0345 146.8163,55.7789 146.9166,55.6281 L 147.858,53.956 L 147.858,53.956 z"
         id="_92965992"
         style="fill:#004846;fill-opacity:1" />
      <path
         d="M 145.009,55.0759 C 145.0942,54.8535 145.2824,54.6535 145.6174,54.9296 C 146.2361,55.5639 146.8031,56.0049 146.3607,57.0442 C 145.9772,57.9455 145.6987,58.317 145.3932,58.3082 C 145.0971,58.2996 144.7755,57.9321 144.308,57.4432 C 144.0403,57.2061 144.0915,56.9556 144.2159,56.6453 L 145.009,55.0759 L 145.009,55.0759 z"
         id="_92965920"
         style="fill:#004846;fill-opacity:1" />
      <path
         d="M 148.966,57.2555 C 149.0512,57.0331 149.2394,56.8331 149.5744,57.1092 C 150.1932,57.7435 150.7601,58.1845 150.3178,59.2238 C 149.9342,60.1251 149.6558,60.4966 149.3503,60.4878 C 149.0541,60.4792 148.7325,60.1117 148.265,59.6228 C 147.9973,59.3857 148.0485,59.1352 148.1729,58.8249 L 148.966,57.2555 L 148.966,57.2555 z"
         id="_92965848"
         style="fill:#004846;fill-opacity:1" />
      <path
         d="M 91.2895,48.049 C 91.3747,47.8266 91.5629,47.6267 91.8979,47.9027 C 92.5167,48.537 93.0836,48.9781 92.6413,50.0173 C 92.2577,50.9186 91.9793,51.2902 91.6738,51.2813 C 91.3776,51.2728 91.056,50.9053 90.5885,50.4163 C 90.3208,50.1792 90.372,49.9288 90.4964,49.6185 L 91.2895,48.049 L 91.2895,48.049 z"
         id="_92965776"
         style="fill:#004846;fill-opacity:1" />
    </g>
    <text
       x="189.7908"
       y="302.12045"
       id="text2403"
       xml:space="preserve"
       style="font-size:170.07873535px;font-style:normal;font-weight:normal;fill:#004846;fill-opacity:1;fill-rule:evenodd;stroke:none;stroke-width:1px;stroke-linecap:butt;stroke-linejoin:miter;stroke-opacity:1;font-family:Bitstream Vera Sans"><tspan
         x="189.7908"
         y="302.12045"
         id="tspan2405" /></text>
  </g>
  <g
     transform="matrix(8.625,0,0,-8.625,-456.88579,646.70349)"
     id="g2431"
     style="fill:#004846;fill-opacity:1">
    <g
       transform="translate(-5.3033913,-11.111868)"
       id="g2433"
       style="fill:#004846;fill-opacity:1">
      <g
         clip-path="url(#clipPath2437)"
         id="g2435"
         style="fill:#004846;fill-opacity:1">
        <g
           transform="translate(62.4658,80.3584)"
           id="g2441"
           style="fill:#004846;fill-opacity:1">
          <path
             d="M 0,0 L 0.454,1.928 C 0.589,2.335 0.925,2.598 1.435,2.582 L 2.997,2.543 C 3.563,2.527 3.897,1.881 3.763,1.243 L 3.65,0.495 C 3.54,-0.303 3.054,-0.876 2.24,-1.236 C -1.092,-2.384 -3.387,-3.906 -3.036,-6.473 C -2.686,-9.046 1.212,-9.349 3.404,-6.273 L 8.488,0.862 C 10.385,3.523 13.254,4.734 16.61,5.124 L 21.12,5.54 C 20.372,3.068 18.777,1.355 16.323,0.9 C 12.059,0.119 8.929,-0.742 7.214,-2.702 L 5.579,-4.592 L 3.116,-7.668 C 2.01,-9.046 0.405,-9.549 -1.394,-9.221 C -2.98,-8.863 -3.905,-7.819 -3.794,-5.613 C -3.683,-3.404 -2.111,-0.965 0,0"
             id="path2443"
             style="fill:#004846;fill-opacity:1;fill-rule:evenodd;stroke:none" />
        </g>
        <g
           transform="translate(64.873,71.1689)"
           id="g2445"
           style="fill:#004846;fill-opacity:1">
          <path
             d="M -0.2903738,4.1800202e-10 C 0.6036262,0.732 0.89762617,0.78 2.0216262,2.478 C 3.1446262,4.175 5.5276262,6.687 7.0016262,7.564 C 8.4776262,8.44 9.8786265,8.734 11.488626,9.053 L 13.855626,9.532 C 13.497626,7.205 11.712626,6.018 9.2316262,5.731 C 6.7626262,5.436 4.8506262,4.902 3.6316262,3.49 L 1.5346262,1.083 C 1.0326262,0.501 0.4116262,0.143 -0.2903738,4.1800202e-10"
             id="path2447"
             style="fill:#004846;fill-opacity:1;fill-rule:evenodd;stroke:none" />
        </g>
        <g
           transform="translate(68.6523,70.5786)"
           id="g2449"
           style="fill:#004846;fill-opacity:1">
          <path
             d="M -0.19358253,0.2903738 C -1.6135825,0.6573738 -1.6935825,2.4573738 0.14041747,3.6623738 C 1.9644175,4.8723738 4.4444175,4.8573738 5.3744175,2.9833738 C 4.2044175,3.4153738 3.4944175,3.6443738 2.8664175,2.4423738 C 2.2364175,1.2383738 1.2154175,-0.075626197 -0.19358253,0.2903738"
             id="path2451"
             style="fill:#004846;fill-opacity:1;fill-rule:evenodd;stroke:none" />
        </g>
        <g
           transform="translate(70.8672,64.0586)"
           id="g2453"
           style="fill:#004846;fill-opacity:1" />
        <g
           transform="translate(120.2783,60.0742)"
           id="g2457"
           style="fill:#004846;fill-opacity:1" />
        <g
           transform="translate(118.6113,56.4785)"
           id="g2461"
           style="fill:#004846;fill-opacity:1" />
        <g
           transform="translate(133.6152,56.6738)"
           id="g2465"
           style="fill:#004846;fill-opacity:1" />
        <g
           transform="translate(104.8086,52.9473)"
           id="g2469"
           style="fill:#004846;fill-opacity:1" />
        <g
           transform="translate(90.127,55.7148)"
           id="g2473"
           style="fill:#004846;fill-opacity:1" />
        <g
           transform="translate(70.168,51.666)"
           id="g2477"
           style="fill:#004846;fill-opacity:1" />
        <g
           transform="translate(61.3467,55.5859)"
           id="g2481"
           style="fill:#004846;fill-opacity:1" />
        <g
           transform="translate(28.0771,60.0625)"
           id="g2485"
           style="fill:#004846;fill-opacity:1" />
        <g
           transform="translate(41.2441,51.666)"
           id="g2489"
           style="fill:#004846;fill-opacity:1" />
      </g>
    </g>
  </g>
</svg>
