<?xml version="1.0" encoding="utf-8"?>
<!-- Generator: Adobe Illustrator 22.1.0, SVG Export Plug-In . SVG Version: 6.00 Build 0)  -->
<svg version="1.1" id="Слой_1" xmlns="http://www.w3.org/2000/svg" xmlns:xlink="http://www.w3.org/1999/xlink" x="0px" y="0px"
	 width="40px" height="39.997px" viewBox="0 0 40 39.997" style="enable-background:new 0 0 40 39.997;" xml:space="preserve">
<style type="text/css">
	.st0{filter:url(#Adobe_OpacityMaskFilter);}
	.st1{fill:#FFFFFF;}
	.st2{mask:url(#mask-2_1_);fill:#991782;}
</style>
<g>
	<g>
		<g>
			<defs>
				<filter id="Adobe_OpacityMaskFilter" filterUnits="userSpaceOnUse" x="0" y="0" width="40" height="39.997">
					<feColorMatrix  type="matrix" values="1 0 0 0 0  0 1 0 0 0  0 0 1 0 0  0 0 0 1 0"/>
				</filter>
			</defs>
			<mask maskUnits="userSpaceOnUse" x="0" y="0" width="40" height="39.997" id="mask-2_1_">
				<g class="st0">
					<polygon id="path-1_1_" class="st1" points="0.009,39.997 40,39.997 40,0 0.009,0 					"/>
				</g>
			</mask>
			<path class="st2" d="M40,19.999c0,11.044-8.955,19.999-20,19.999c-11.045,0-20-8.955-20-19.999C0,8.955,8.954,0,20,0
				C31.045,0,40,8.955,40,19.999"/>
		</g>
		<path class="st1" d="M32.542,26.94h0.322v0.95c0.264-0.595,0.821-1.028,1.486-1.002v0.355h-0.034
			c-0.776,0-1.452,0.584-1.452,1.676v1.374h-0.322V26.94L32.542,26.94z M31.108,26.064h0.401v-0.442h-0.401V26.064z M31.146,30.292
			h0.323V26.94h-0.323V30.292z M27.233,29.32v-0.017c0-0.694,0.598-1.09,1.466-1.09c0.466,0,0.789,0.061,1.111,0.144v-0.144
			c0-0.674-0.415-1.025-1.105-1.025c-0.408,0-0.743,0.111-1.051,0.269l-0.12-0.281c0.368-0.171,0.73-0.29,1.191-0.29
			c0.454,0,0.815,0.123,1.058,0.369c0.224,0.223,0.343,0.531,0.343,0.948v2.089H29.81v-0.557c-0.233,0.32-0.645,0.636-1.284,0.636
			C27.901,30.371,27.233,30.018,27.233,29.32L27.233,29.32z M29.815,29.039v-0.383c-0.283-0.072-0.656-0.149-1.137-0.149
			c-0.709,0-1.105,0.312-1.105,0.782v0.013c0,0.484,0.46,0.766,0.973,0.766C29.231,30.067,29.815,29.65,29.815,29.039L29.815,29.039
			z"/>
		<path class="st1" d="M9.288,20.633c0,0-0.225-0.02-0.282-0.032c-0.056-0.012-0.185-0.054-0.188-0.111
			c0-0.001-0.001-0.001-0.001-0.001v-0.001v0c0,0,0-0.001,0.001-0.001c0.003-0.057,0.132-0.099,0.188-0.111
			c0.056-0.012,0.282-0.032,0.282-0.032l4.777-0.212l1.065-3.5c0.001-0.005,0.002-0.013,0.005-0.02
			c0.012-0.043,0.018-0.088,0.018-0.135c0-0.271-0.218-0.491-0.489-0.491h-2.382c-0.221,0-0.406,0.145-0.468,0.345
			c-0.004,0.015-0.008,0.031-0.01,0.046l-0.829,3.16l-0.948-3.177l-0.033-0.108c-0.074-0.173-0.248-0.297-0.449-0.297H7.373
			c-0.218,0-0.404,0.144-0.465,0.344l-0.954,3.203L5.16,16.377c-0.004-0.015-0.01-0.031-0.014-0.046
			c-0.061-0.2-0.248-0.345-0.467-0.345H2.248c-0.271,0-0.49,0.22-0.49,0.491c0,0.052,0.006,0.1,0.023,0.143l2.337,7.8l0.009,0.033
			c0.066,0.191,0.25,0.329,0.465,0.329h2.3c0.22,0,0.404-0.144,0.466-0.344l1.091-3.398l1.051,3.373
			c0.001,0.007,0.003,0.013,0.004,0.018l0.012,0.03c0.002,0.006,0.004,0.013,0.006,0.021c0.074,0.176,0.25,0.301,0.452,0.301h2.317
			c0.206,0,0.387-0.132,0.456-0.315l0.022-0.069c0-0.001,0-0.006,0.001-0.008l1.088-3.583L9.288,20.633"/>
		<path class="st1" d="M18.527,19.933c0.131-0.544,0.519-0.969,1.012-1.107c0.021-0.238,0.149-1.674,0.186-1.766
			c0.041-0.101,0.134-0.103,0.147-0.103h0.013h0.013c0.013,0,0.107,0.002,0.147,0.103c0.037,0.093,0.165,1.528,0.186,1.766
			c0.492,0.139,0.88,0.564,1.012,1.107l3.55,0.157c-0.001-0.027-0.002-0.044-0.002-0.044c-0.144-2.34-2.129-4.268-4.884-4.268
			c-2.774,0-4.777,1.962-4.915,4.312L18.527,19.933"/>
		<path class="st1" d="M21.164,20.989c-0.222,0.539-0.711,0.913-1.279,0.913c-0.569,0-1.057-0.375-1.279-0.913l-3.597-0.137
			c0.238,2.254,2.189,4.074,4.867,4.074c2.682,0,4.637-1.833,4.894-4.074L21.164,20.989"/>
		<path class="st1" d="M37.553,15.986H35.17c-0.22,0-0.407,0.145-0.468,0.343c-0.004,0.017-0.009,0.033-0.01,0.048l-0.827,3.16
			l-0.95-3.175l-0.035-0.11c-0.074-0.176-0.245-0.297-0.448-0.297h-2.168c-0.22,0-0.406,0.144-0.469,0.344l-0.951,3.207l-0.796-3.13
			c-0.003-0.015-0.009-0.031-0.013-0.048c-0.061-0.198-0.249-0.343-0.467-0.343h-2.43c-0.271,0-0.49,0.22-0.49,0.491
			c0,0.051,0.008,0.1,0.022,0.147l1.053,3.508l4.761,0.211c0,0,0.225,0.02,0.281,0.032c0.056,0.012,0.185,0.054,0.188,0.111
			c0,0,0.001,0.001,0.001,0.001v0v0.001c0,0-0.001,0.001-0.001,0.001c-0.003,0.057-0.132,0.099-0.188,0.111
			c-0.056,0.012-0.281,0.032-0.281,0.032l-4.556,0.174l1.082,3.611l0.008,0.031c0.067,0.194,0.248,0.332,0.463,0.332h2.3
			c0.22,0,0.406-0.144,0.468-0.344l1.089-3.398l1.051,3.373c0.003,0.007,0.005,0.011,0.008,0.018l0.009,0.03
			c0.001,0.008,0.003,0.013,0.006,0.021c0.077,0.176,0.248,0.301,0.453,0.301h2.315c0.209,0,0.386-0.132,0.457-0.315l0.022-0.069
			c0-0.001,0-0.006,0.002-0.008l2.356-7.758c0.002-0.005,0.002-0.013,0.004-0.02c0.012-0.043,0.019-0.088,0.019-0.135
			C38.042,16.206,37.823,15.986,37.553,15.986"/>
	</g>
</g>
</svg>
