<?xml version="1.0" encoding="utf-8"?>
<!-- Generator: Adobe Illustrator 22.1.0, SVG Export Plug-In . SVG Version: 6.00 Build 0)  -->
<svg version="1.1" id="Layer_1" xmlns="http://www.w3.org/2000/svg" xmlns:xlink="http://www.w3.org/1999/xlink" x="0px" y="0px"
	 width="2089.573px" height="476.209px" viewBox="0 0 2089.573 476.209" enable-background="new 0 0 2089.573 476.209"
	 xml:space="preserve">
<g>
	
		<radialGradient id="SVGID_1_" cx="604.3481" cy="252.3677" r="370.1547" gradientTransform="matrix(0.0873 -0.9982 2.0863 0.0873 -125.5978 833.5728)" gradientUnits="userSpaceOnUse">
		<stop  offset="0" style="stop-color:#FFFFFF"/>
		<stop  offset="0.053" style="stop-color:#CCF1FC"/>
		<stop  offset="0.11" style="stop-color:#9EE3FA"/>
		<stop  offset="0.167" style="stop-color:#77D9F8"/>
		<stop  offset="0.2231" style="stop-color:#59D0F6"/>
		<stop  offset="0.2779" style="stop-color:#43CAF5"/>
		<stop  offset="0.331" style="stop-color:#36C6F4"/>
		<stop  offset="0.3804" style="stop-color:#32C5F4"/>
		<stop  offset="0.425" style="stop-color:#1EC0F1"/>
		<stop  offset="0.4937" style="stop-color:#00B4EB"/>
		<stop  offset="0.5775" style="stop-color:#00A3E2"/>
		<stop  offset="0.638" style="stop-color:#0097DC"/>
	</radialGradient>
	<path fill="url(#SVGID_1_)" d="M46.764,227.574c0,0-21.924-27.893,55.8-108.611L92.6,105.015c0,0-145.481,140.506-71.745,207.266
		c73.736,66.758,288.971,69.748,428.476,9.959c139.505-59.787,220.218-120.578,220.218-120.578l-6.971-15.939
		C662.578,185.723,251.04,392.982,46.764,227.574z"/>
	<path fill="#1673B3" d="M523.339,112.775c0,0-117.347-109.697-198.98-96.939c-81.633,12.758-82.485,123.295-69.728,143.705
		c12.757,20.412,50.168,78.232,166.666,85.035c0,0-194.724,64.621-329.079-15.309c0,0,13.601-260.217,291.663-226.201
		c0,0,77.382,13.605,147.959,97.785L523.339,112.775z"/>
	<path fill="#1772B4" d="M135.45,381.023c0,0,200.288,43.844,434.455-92.67c0,0-43.842,199.295-240.145,187.338
		C329.759,475.691,203.21,487.642,135.45,381.023z"/>
	<path fill="#087FC1" d="M1243.513,89.176h-69.754l-91.679,124.443h-1.991L986.426,91.172h-70.744l102.628,131.533
		c0,0,56.798,68.754,122.565,3.98L1243.513,89.176z"/>
	<path fill="#0C77BC" d="M899.731,120.949c0,0-56.798-68.756-122.564-3.982L674.533,254.478h69.751l30.892-38.863H897.74
		l33.878,36.865h70.75L899.731,120.949z M811.046,167.785l28.898-31.889l24.91,31.889H811.046z"/>
	<rect x="1270.418" y="89.064" fill="#087FC1" width="68.755" height="165.414"/>
	<path fill="#0D79B8" d="M1652.058,87.072h-214.236c-36.322,0-65.766,29.445-65.766,65.768v35.871
		c0,36.322,29.443,65.768,65.766,65.768h214.236c36.322,0,65.767-29.445,65.767-65.768V152.84
		C1717.825,116.517,1688.381,87.072,1652.058,87.072z M1648.077,211.629h-214.243v-78.723h214.243V211.629z"/>
	<path fill="#107BBA" d="M1747.718,121.953l-0.006,132.525h60.792V128.246l194.304,127.23c54.754,7.064,78.51-15.094,85.967-34.402
		l0.73-2.469v-17.621c0.141-3.018,0.023-4.934,0-5.207V89.064h-60.791v121.992l-0.994,0.578c0,0-99.646-64.773-176.372-114.596
		c-76.726-49.82-103.63,20.926-103.63,20.926V121.953z"/>
	<path fill="#07AEE3" d="M1067.496,310.195v-22.939h-88.549v-0.047c0,0-22.193,2.949-22.193,34.326c0,26.045,0,29.006,0,29.262
		c0,0,1.442,17.395,22.149,18.346v0.117h88.593V346.32h-88.593l0.006-6.592h88.587v-22.941h-88.572l0.006-6.592H1067.496z"/>
	<path fill="#07AEE3" d="M1546.789,310.195v-22.939h-88.549v-0.047c0,0-22.188,2.949-22.188,34.326c0,26.045,0,29.006,0,29.262
		c0,0,1.438,17.395,22.146,18.346v0.117h88.59V346.32h-88.59l0.006-6.592h88.584v-22.941h-88.572l0.012-6.592H1546.789z"/>
	<polygon fill="#07AEE3" points="1184.093,287.49 1160.177,287.49 1129.911,316.951 1099.643,287.49 1075.728,287.49 
		1117.953,328.594 1075.728,369.697 1099.643,369.697 1129.911,340.236 1160.177,369.697 1184.093,369.697 1141.868,328.594 	"/>
	<line fill="none" stroke="#B7234D" x1="1196.424" y1="313.646" x2="1196.424" y2="313.646"/>
	<path fill="#07AEE3" d="M1667.747,290.601l-0.251,18.188h-87.684c0,0-2.488-0.029-2.488,4.041c0,4.068,3.731,3.73,3.731,3.73
		h74.555c0,0,19.944,1.699,19.944,26.934c0,25.234-21.907,24.084-21.907,24.084h-88.53h-4.21v-18.387h89.792
		c0,0,3.72,0.818,3.661-4.746c-0.047-4.549-4.14-4.141-4.14-4.141h-73.572c0,0-21.573-0.197-21.573-27.744
		c0,0-0.952-22.391,22.385-22.391C1600.796,290.17,1667.747,290.601,1667.747,290.601z"/>
	<path fill="#07AEE3" d="M1795.292,290.601l-0.251,18.188h-87.685c0,0-2.487-0.029-2.487,4.041c0,4.068,3.73,3.73,3.73,3.73h74.554
		c0,0,19.944,1.699,19.944,26.934c0,25.234-21.906,24.084-21.906,24.084h-88.531h-4.209v-18.387h89.792c0,0,3.72,0.818,3.661-4.746
		c-0.047-4.549-4.141-4.141-4.141-4.141h-73.572c0,0-21.573-0.197-21.573-27.744c0,0-0.952-22.391,22.386-22.391
		C1728.339,290.17,1795.292,290.601,1795.292,290.601z"/>
	<path fill="#07AEE3" d="M1281.732,288.236h-63.997h-1.074h-19.862v80.713h20.937v-30.641h63.997
		c14.585,0,26.42-11.209,26.42-25.035C1308.152,299.447,1296.317,288.236,1281.732,288.236z M1287.057,317.23h-66.618v-7.916h66.618
		c2.213,0,4.011,1.775,4.011,3.959C1291.068,315.457,1289.27,317.23,1287.057,317.23z"/>
	<path fill="#07AEE3" d="M1419.483,331.517c5.161-4.57,8.437-11.027,8.437-18.244c0-13.826-11.835-25.037-26.42-25.037h-63.997
		h-1.074h-19.862v80.713h20.937v-30.641h63.997c1.857,0,3.667-0.188,5.418-0.537v31.178h21.002v-28.031
		C1426.845,337.953,1424.466,334.023,1419.483,331.517z M1340.207,317.23v-7.916h66.618c2.213,0,4.011,1.775,4.011,3.959
		c0,2.184-1.798,3.957-4.011,3.957H1340.207z"/>
</g>
</svg>
