<?xml version="1.0" encoding="utf-8"?>
<!-- Generator: Adobe Illustrator 22.1.0, SVG Export Plug-In . SVG Version: 6.00 Build 0)  -->
<svg version="1.1"
	 id="svg26389" xmlns:cc="http://creativecommons.org/ns#" xmlns:dc="http://purl.org/dc/elements/1.1/" xmlns:rdf="http://www.w3.org/1999/02/22-rdf-syntax-ns#"
	 xmlns="http://www.w3.org/2000/svg" xmlns:xlink="http://www.w3.org/1999/xlink" x="0px" y="0px" width="2664.712px"
	 height="619.397px" viewBox="0 0 2664.712 619.397" enable-background="new 0 0 2664.712 619.397" xml:space="preserve">
<g id="layer5" transform="translate(580 -582.36)">
	<g>
		<path id="path27116" fill="#2A0088" d="M1552.902,1046.308l80.21-310h88.682c0,0,22.491-2.167,34.058,7
			s14.847,23.333,14.847,23.333l48.185,150.02l62.878-180.35h85.815c0,0,21.344,0,32.405,8.667s14.386,21.667,14.386,21.667
			l70.344,279.67h-83.324l-62.85-238.38l-65.966,181.72h-88.328c0,0-10.643,1.042-20.818-5.833
			c-10.175-6.875-10.495-13.167-10.495-13.167l-53.773-162.71l-61.698,238.38L1552.902,1046.308z"/>
		<path id="path27065" fill="#2A0088" d="M726.662,736.268v61.834l148.82,10v238.17h85.953v-238.17l148.82-10v-61.834
			L726.662,736.268z"/>
		<path id="path27022" fill="#2A0088" d="M479.332,736.268l-155,310h95.279l27.076-57h172.82l26.457,57h94.748l-147.05-289.67
			c0,0-4.804-10.669-13.137-15.438c-8.333-4.768-17.102-4.896-17.102-4.896h-84.094L479.332,736.268z M531.957,803.211
			l56.961,123.06h-114.81L531.957,803.211L531.957,803.211z"/>
		<path id="path26992" fill="#2A0088" d="M-2.998,736.268v310h261.67l35.667-71.333H86.669v-238.67L-2.998,736.268z"/>
		<path id="path27070" fill="#2A0088" d="M1252.302,736.268l-155,310h95.279l27.076-57h172.82l26.457,57h94.748l-147.05-289.67
			c0,0-4.804-10.669-13.137-15.438c-8.333-4.768-17.102-4.896-17.102-4.896h-84.094L1252.302,736.268z M1304.927,803.211
			l56.961,123.06h-114.81l57.848-123.06H1304.927z"/>
	</g>
	<g>
		<path id="path27278" fill="#ED1651" d="M-535.678,835.888l68.786-19.648c0,0-0.737-4.594-3.203-6.849s-6.903-3.649-6.903-3.649
			l-95.605-34.728c0,0-3.035-1.021-5.253,0.208s-2.139,4.419-2.139,4.419V820.1c0,0-0.239,4.257,5.927,13.798
			c6.166,9.541,20.77,7.111,20.77,7.111L-535.678,835.888z"/>
		<path id="path27260" fill="#ED1651" d="M-261.848,728.618l63.986-35.848c0,0,0.963-6.194-1.503-8.449s-5.403-2.949-5.403-2.949
			l-276.34-98.614c0,0-3.035-1.021-5.253,0.208s-2.139,4.419-2.139,4.419v38.333c0,0-0.039,8.882,6.127,18.423
			c6.166,9.541,16.17,12.011,16.17,12.011L-261.848,728.618z"/>
		<path id="path27258" fill="#ED1651" d="M-261.848,840.198l63.986-33.148c0,0,1.363-8.394-1.103-10.649
			c-2.467-2.255-5.803-3.449-5.803-3.449l-367.84-133.61c0,0-3.035-1.021-5.253,0.208s-2.139,4.419-2.139,4.419v38.333
			c0,0-0.039,8.882,6.127,18.423c6.166,9.541,16.17,12.011,16.17,12.011L-261.848,840.198z"/>
	</g>
	<g>
		<path id="path27194" fill="#2A0088" d="M-204.768,681.368c0,0,3.735,0.566,6.903,3.649s3.203,6.849,3.203,6.849v50.754
			c0,0-0.152,6.934-2.997,13.17c-2.844,6.236-7.01,7.711-7.01,7.711l-8.667,3.148l-276.16,100.31c0,0-1.328,0.41-3.056,0.41
			s-3.056-0.41-3.056-0.41l-76.943-27.949c0,0-1.909-0.444-4.617-4.687c-3.05-4.76-2.83-14.21-2.83-14.21s0.478,4.845,3.217,7.146
			s10.037-0.223,10.037-0.223l353.41-128.37c0,0,14.033-5.725,14.033-11.541c0-4.016-5.467-5.741-5.467-5.741L-204.768,681.368z"/>
		<path id="path27140" fill="#2A0088" d="M-204.768,792.948c0,0,3.735,0.566,6.903,3.649s3.203,6.849,3.203,6.849v50.754
			c0,0-0.152,6.934-2.997,13.17c-2.844,6.236-7.01,7.711-7.01,7.711l-8.667,3.148l-276.16,100.31v-68l276.16-100.31
			c0,0,14.033-5.725,14.033-11.541C-199.302,794.673-204.768,792.948-204.768,792.948L-204.768,792.948z"/>
		<path id="path27142" fill="#2A0088" d="M-341.858,971.588c2.643,2.643,2.643,8.46,2.643,8.46v37.953c0,0-0.152,6.934-2.997,13.17
			s-7.01,7.711-7.01,7.711l-8.667,3.148l-131.61,47.807v-68l131.61-47.807C-357.888,974.03-344.501,968.946-341.858,971.588
			L-341.858,971.588z"/>
		<path id="path27168" fill="#2A0088" d="M-426.758,1113.508c2.643,2.643,2.643,8.459,2.643,8.459v37.953
			c0,0-0.152,6.934-2.997,13.17s-7.01,7.711-7.01,7.711l-8.667,3.148l-46.71,17.807v-68l46.71-17.807
			C-442.788,1115.95-429.401,1110.866-426.758,1113.508L-426.758,1113.508z"/>
	</g>
</g>
</svg>
