<?xml version="1.0" encoding="utf-8"?>
<!-- Generator: Adobe Illustrator 23.0.5, SVG Export Plug-In . SVG Version: 6.00 Build 0)  -->
<svg version="1.1" id="Слой_1" xmlns="http://www.w3.org/2000/svg" xmlns:xlink="http://www.w3.org/1999/xlink" x="0px" y="0px"
	 width="131.139px" height="31.773px" viewBox="0 0 131.139 31.773" enable-background="new 0 0 131.139 31.773"
	 xml:space="preserve">
<g id="Page-1">
	<g id="Desktop-HD" transform="translate(-165.000000, -12.000000)">
		<g>
			<g>
				<g id="Logo" transform="translate(165.000000, 12.000000)">
					<g id="Group" transform="translate(0.000000, 6.054054)">
						<path id="Fill-10" fill-rule="evenodd" clip-rule="evenodd" fill="#231F20" d="M87.815,11.482
							c-0.678-0.666-1.703-1.165-2.742-1.165c-0.72,0-1.62,0.415-1.62,1.228c0,2.166,7.373,0.485,7.373,5.493
							c0,3.473-3.466,4.482-6.468,4.482c-2.056,0-4.143-0.495-5.616-1.955l2.533-2.533c0.838,0.826,1.991,1.399,3.291,1.399
							c0.981,0,1.997-0.358,1.997-1.085c0-2.353-7.369-0.462-7.369-5.523c0-3.195,2.943-4.594,5.886-4.594
							c1.847,0,3.898,0.449,5.196,1.792L87.815,11.482z"/>
						<polygon id="Fill-5" fill-rule="evenodd" clip-rule="evenodd" fill="#231F20" points="34.382,21.181 38.713,21.181 38.713,0 
							34.382,0 						"/>
						<path id="Fill-7" fill-rule="evenodd" clip-rule="evenodd" fill="#231F20" d="M48.965,10.927
							c-2.167,0-3.462,1.402-3.462,3.448c0,2.045,1.295,3.445,3.462,3.445c2.164,0,3.465-1.4,3.465-3.445
							C52.43,12.329,51.129,10.927,48.965,10.927L48.965,10.927z M56.413,21.182H52.43v-1.791H52.37
							c-0.663,0.979-2.337,2.128-4.301,2.128c-4.156,0-6.898-2.912-6.898-7.031c0-3.786,2.422-7.26,6.408-7.26
							c1.79,0,3.465,0.476,4.442,1.792h0.06V7.564h4.331V21.182z"/>
						<path id="Fill-8" fill-rule="evenodd" clip-rule="evenodd" fill="#231F20" d="M59.82,7.564h4.334v2.186h0.054
							c0.924-1.653,2.136-2.521,4.041-2.521c0.492,0,1.042,0.027,1.444,0.139v3.841c-0.607-0.17-1.213-0.282-1.847-0.282
							c-3.289,0-3.692,1.849-3.692,4.568v5.686H59.82V7.564z"/>
						<path id="Combined-Shape" fill-rule="evenodd" clip-rule="evenodd" fill="#231F20" d="M76.369,7.564v13.618h-4.33V7.564
							H76.369z M76.369,0v4.254h-4.33V0H76.369z"/>
						<path id="Fill-3" fill-rule="evenodd" clip-rule="evenodd" fill="#231F20" d="M24.187,17.82c2.164,0,3.462-1.4,3.462-3.445
							c0-2.045-1.298-3.447-3.462-3.447c-2.165,0-3.465,1.402-3.465,3.447C20.722,16.42,22.022,17.82,24.187,17.82 M24.187,7.229
							c4.329,0,7.793,2.804,7.793,7.146s-3.464,7.145-7.793,7.145c-4.329,0-7.793-2.803-7.793-7.145S19.858,7.229,24.187,7.229"/>
						<polygon id="Fill-2" fill-rule="evenodd" clip-rule="evenodd" fill="#231F20" points="0,7.564 4.679,7.564 8.229,16.811 
							8.286,16.811 11.575,7.564 15.935,7.564 10.394,21.182 5.805,21.182 						"/>
					</g>
					<g id="Estrella" transform="translate(99.282984, 0.000000)">
						<polygon id="Fill-12" fill-rule="evenodd" clip-rule="evenodd" fill="#EEEFEF" points="13.701,4.539 18.24,4.539 18.24,0 
							13.701,0 						"/>
						<polygon id="Fill-13" fill-rule="evenodd" clip-rule="evenodd" fill="#B5D5F0" points="13.701,9.078 18.24,9.078 18.24,4.539 
							13.701,4.539 						"/>
						<polygon id="Fill-14" fill-rule="evenodd" clip-rule="evenodd" fill="#6CADDE" points="13.701,13.617 18.24,13.617 
							18.24,9.078 13.701,9.078 						"/>
						<polygon id="Fill-15" fill-rule="evenodd" clip-rule="evenodd" fill="#B5D5F0" points="9.162,13.617 13.701,13.617 
							13.701,9.078 9.162,9.078 						"/>
						<polygon id="Fill-16" fill-rule="evenodd" clip-rule="evenodd" fill="#D6A6CC" points="9.162,22.695 13.701,22.695 
							13.701,18.157 9.162,18.157 						"/>
						<polygon id="Fill-17" fill-rule="evenodd" clip-rule="evenodd" fill="#B5D5F0" points="18.24,13.617 22.778,13.617 
							22.778,9.078 18.24,9.078 						"/>
						<polygon id="Fill-18" fill-rule="evenodd" clip-rule="evenodd" fill="#DAE7A2" points="18.24,22.695 22.778,22.695 
							22.778,18.157 18.24,18.157 						"/>
						<polygon id="Fill-19" fill-rule="evenodd" clip-rule="evenodd" fill="#231F20" points="13.701,18.156 18.24,18.156 
							18.24,13.616 13.701,13.616 						"/>
						<polygon id="Fill-20" fill-rule="evenodd" clip-rule="evenodd" fill="#91268F" points="13.701,22.695 18.24,22.695 
							18.24,18.157 13.701,18.157 						"/>
						<polygon id="Fill-21" fill-rule="evenodd" clip-rule="evenodd" fill="#D6A6CC" points="13.701,27.234 18.24,27.234 
							18.24,22.695 13.701,22.695 						"/>
						<polygon id="Fill-22" fill-rule="evenodd" clip-rule="evenodd" fill="#EEEFEF" points="13.701,31.773 18.24,31.773 
							18.24,27.234 13.701,27.234 						"/>
						<polygon id="Fill-23" fill-rule="evenodd" clip-rule="evenodd" fill="#EEEFEF" points="0.084,18.156 4.623,18.156 
							4.623,13.616 0.084,13.616 						"/>
						<polygon id="Fill-24" fill-rule="evenodd" clip-rule="evenodd" fill="#D6A6CC" points="4.623,18.156 9.162,18.156 
							9.162,13.616 4.623,13.616 						"/>
						<polygon id="Fill-25" fill-rule="evenodd" clip-rule="evenodd" fill="#91268F" points="9.162,18.156 13.701,18.156 
							13.701,13.616 9.162,13.616 						"/>
						<polygon id="Fill-26" fill-rule="evenodd" clip-rule="evenodd" fill="#8DC63F" points="18.24,18.156 22.778,18.156 
							22.778,13.616 18.24,13.616 						"/>
						<polygon id="Fill-27" fill-rule="evenodd" clip-rule="evenodd" fill="#DAE7A2" points="22.778,18.156 27.317,18.156 
							27.317,13.616 22.778,13.616 						"/>
						<polygon id="Fill-28" fill-rule="evenodd" clip-rule="evenodd" fill="#EEEFEF" points="27.317,18.156 31.856,18.156 
							31.856,13.616 27.317,13.616 						"/>
					</g>
				</g>
			</g>
		</g>
	</g>
</g>
</svg>
