<?xml version="1.0" encoding="utf-8"?>
<!-- Generator: Adobe Illustrator 22.1.0, SVG Export Plug-In . SVG Version: 6.00 Build 0)  -->
<svg version="1.1" id="Layer_1" xmlns="http://www.w3.org/2000/svg" xmlns:xlink="http://www.w3.org/1999/xlink" x="0px" y="0px"
	 width="88.2px" height="23px" viewBox="0 0 88.2 23" style="enable-background:new 0 0 88.2 23;" xml:space="preserve">
<style type="text/css">
	.st0{fill-rule:evenodd;clip-rule:evenodd;fill:#34335B;}
	.st1{fill-rule:evenodd;clip-rule:evenodd;fill:#0970B0;}
	.st2{fill-rule:evenodd;clip-rule:evenodd;fill:#0A82C4;}
	.st3{fill-rule:evenodd;clip-rule:evenodd;fill:#66C1E8;}
</style>
<g>
	<g>
		<path class="st0" d="M65.8,10.7h-2.2c-0.8,0-1.4-0.2-1.4-1.3c0-1,1-1.4,2-1.5c1.4-0.1,3.4,0.2,4.1,0.6V6.7
			c-0.7-0.3-2.1-0.6-3.5-0.6c-1.9,0-3.8,0.7-4.2,1.7c-0.4,1-0.3,1.2-0.3,1.7s0.1,1.2,0.3,1.6c0.4,0.7,1.4,1.3,2.5,1.3h2.3
			c1.3,0,1.5,0.9,1.5,1.4c0,1.1-1.2,1.5-2.3,1.5c-1.2,0-2.9-0.1-3.8-0.6v1.9c1,0.2,1.8,0.4,3.5,0.4c2,0,3.4-0.4,4.2-1.7
			c0.3-0.5,0.5-2,0.2-2.8C68.3,11.4,67.2,10.7,65.8,10.7z M33.9,6.5c-0.4,0.3-0.7,0.9-0.7,1.4c0,0.5,0,5.9,0,5.9s-5.9-7.6-5.9-7.7
			c-0.5,0-1.2,0.2-1.5,0.4c-0.3,0.3-0.5,0.7-0.5,1.5c0,1,0,9,0,9h1.9V9.2l6,7.8c0,0,1.3,0,2,0V6.3C34.6,6.3,34.3,6.3,33.9,6.5z
			 M56.5,7.6v1.9C55.2,8.8,53,9,52,9.9c-0.9,0.7-1.1,2-1.1,3c0,0.9,0.2,1.6,0.4,2.2c0.7,1.6,2.3,1.8,3.8,1.8c0.9,0,2.1-0.1,3.4-0.4
			V6.2c-0.5,0-1,0.1-1.4,0.3C56.8,6.8,56.5,7.2,56.5,7.6z M56.5,15.1c-1.1,0.2-1.5,0.3-1.9,0.3c-1.8,0-1.8-1.9-1.8-2.3
			c0-1.6,0.6-2.2,1.9-2.2c0.8,0,1.3,0.1,1.8,0.4C56.5,12.4,56.5,14.1,56.5,15.1z M72.1,7.8c-0.4,0-0.8,0.1-1.1,0.3
			c-0.3,0.2-0.7,0.7-0.7,1.4v6c0,0.5,0.8,1.6,1.8,1.6c0.8,0,1.8,0,1.8,0v-1.6c0,0-1,0-1.3-0.2c-0.2-0.2-0.3-0.3-0.3-0.5
			c0-1.5-0.1-4-0.1-4h1.6V9.1h-1.8C72.1,9.1,72.1,8.2,72.1,7.8z M40.6,9c-0.9,0-2.3,0.4-2.8,0.9c-0.6,0.6-1,1.5-1,3
			c0,2,0.5,2.7,1.6,3.5c0.6,0.5,1.2,0.5,2.5,0.5c0.9,0,1.5-0.1,2.1-0.4c1-0.6,1.8-1.4,1.8-3.8c0-1.1-0.2-1.8-0.7-2.4
			C43.1,9.2,41.5,9,40.6,9z M42.3,14.6c-0.3,0.6-0.9,0.9-1.6,0.9c-0.7,0-1.2-0.2-1.5-0.5c-0.3-0.4-0.6-0.6-0.6-2.1
			c0-0.8,0.2-1.2,0.4-1.6c0.4-0.6,1-0.7,1.6-0.7c0.6,0,1,0.2,1.4,0.4c0.5,0.3,0.6,1.3,0.6,2.2C42.7,13.9,42.5,14.3,42.3,14.6z
			 M77.4,9.1c-1,0.1-1.2,0.2-1.7,0.3V11c1.3-0.3,3.7-0.8,4.7,0.4v0.9c-2.6-0.4-4.7-0.3-5.3,1.6c-0.1,0.3,0,0.9,0.1,1.5
			c0.3,1.3,2.3,1.9,4.1,1.5c0.3-0.1,0.8-0.3,1.1-0.4c0.4,0.2,0.9,0.6,0.9,0.6h1c0,0,0-3.6,0-5.5c0-0.5-0.3-1-0.4-1.2
			C81.1,9.2,79,9,77.4,9.1z M80.2,14.9c-0.4,0.3-2.1,0.8-2.8,0.4c-0.3-0.2-0.6-0.9-0.3-1.3c0.4-0.6,2.3-0.4,3.1-0.3V14.9z M86,10.1
			V9.1c-0.4,0-0.7,0-1.1,0.2s-0.8,1.1-0.8,1.7c0,1.5,0,6,0,6h2.1c0,0,0-3.6,0-5.3c0.3-0.5,1.4-1.1,2-1V9.1
			C87.2,9.1,86.4,9.5,86,10.1z M47.9,10.1V9.1c-0.4,0-0.7,0-1.1,0.2S46,10.4,46,11c0,1.5,0,6,0,6h2.1c0,0,0-3.6,0-5.3
			c0.3-0.5,1.4-1.1,2-1V9.1C49.2,9.1,48.3,9.5,47.9,10.1z"/>
	</g>
	<g>
		<path class="st0" d="M20.4,2.6c-2.9,2-3.9,6.3-7.2,5.9c0.6,0.4,1.3,0.9,2.7,0.6c2-0.4,3.1-1.6,3.5-2.2c0.8-1.1,0.4-0.7,1.8-2.7
			c1.1-1.6,1.9-2.2,2.8-2.3C22.5,1.4,21.1,2.1,20.4,2.6z M12.1,10.3c-0.6,0.3-1.4,0.6-1.9,2c-0.6,1.9-0.2,3.5,0.1,4.1
			c0.6,1.2,0.4,0.7,1.4,2.9c0.8,1.8,0.9,2.7,0.6,3.6c1.3-1.1,1.4-2.6,1.3-3.4C13.3,16.1,10.1,13.1,12.1,10.3z M11.1,8.4
			c0-0.7,0.1-1.5-0.8-2.6C9,4.3,7.4,3.9,6.6,3.8c-1.3-0.1-0.8,0-3.2-0.2C1.4,3.4,0.6,3,0,2.3c0.3,1.6,1.6,2.5,2.3,2.8
			C5.5,6.6,9.7,5.4,11.1,8.4z"/>
	</g>
	<g>
		<path class="st1" d="M12.7,8.1c1.8,0.4,2.8-0.7,3.2-1c1.3-1.4,1.3-2.9,2-5.1c0.2-0.7,0.5-1.3,1.3-1.9C14.6,0.5,16.1,7.4,12.7,8.1z
			 M12.7,10.1c-1.3,1.4-0.9,2.8-0.7,3.3c0.5,1.9,1.8,2.6,3.4,4.3c0.5,0.5,0.9,1.1,1,2.1C18.4,15.6,11.6,13.3,12.7,10.1z M8.5,6.8
			C6.6,6.4,5.3,7.1,3.1,7.6C2.4,7.8,1.7,7.9,0.8,7.5c2.6,3.8,7.9-1,10.2,1.6C10.4,7.3,9,7,8.5,6.8z"/>
	</g>
	<g>
		<path class="st2" d="M14.6,4.7c0.1-1.5-0.8-2.8,0.2-4.7C13.7,0.6,13,1.5,13,3.3c0,1.4,0.1,2.3,0,3c-0.1,0.9-0.4,1.3-0.9,1.6
			c0.4,0,1-0.3,1.2-0.4C13.9,7,14.5,5.6,14.6,4.7z M16.7,12.8c-1.2-0.7-2.1-1.1-2.6-1.5c-0.7-0.6-0.9-1-0.9-1.6
			c-0.2,0.3-0.3,1-0.2,1.3c0.1,0.8,1,2,1.7,2.5c1.2,0.9,2.9,0.7,4,2.5C18.7,14.7,18.3,13.7,16.7,12.8z M10.1,8.9
			c-0.7-0.3-2.2-0.1-3,0.2c-1.3,0.6-2,2.1-4.2,2.2c1.1,0.6,2.2,0.8,3.7-0.1c1.2-0.7,2-1.2,2.6-1.5c0.9-0.4,1.3-0.3,1.9,0
			C10.9,9.4,10.4,9,10.1,8.9z"/>
	</g>
	<g>
		<path class="st3" d="M11.3,1.2c-0.6,0.9-1.3,1.5,0.1,4.5c0,0,0.8,1.5,0,2.5c0.3-0.1,0.6-0.4,0.8-0.7c0.2-0.3,0.5-1,0.3-2.1
			C12.2,3.7,11,3.2,11.3,1.2z M15.4,10.2c0,0-1.7-0.1-2.2-1.3c-0.1,0.3,0.1,0.7,0.2,1c0.2,0.3,0.6,1,1.6,1.3
			c1.7,0.6,2.7-0.2,4.3,1.1C18.9,11.4,18.7,10.5,15.4,10.2z M8.7,10.6c-1.4,1.1-1.1,2.4-3.1,3.1c1.1,0.1,2,0.4,3.8-2.3
			c0,0,0.9-1.4,2.2-1.2c-0.3-0.2-0.7-0.3-1-0.3C10.3,9.8,9.5,9.9,8.7,10.6z"/>
	</g>
</g>
</svg>
