<?xml version="1.0" encoding="utf-8"?>
<!-- Generator: Adobe Illustrator 22.1.0, SVG Export Plug-In . SVG Version: 6.00 Build 0)  -->
<svg version="1.1" id="Слой_1" xmlns="http://www.w3.org/2000/svg" xmlns:xlink="http://www.w3.org/1999/xlink" x="0px" y="0px"
	 width="152.056px" height="23px" viewBox="0 0 152.056 23" style="enable-background:new 0 0 152.056 23;" xml:space="preserve">
<style type="text/css">
	.st0{fill:#EC900E;}
	.st1{fill:#662A80;}
</style>
<g>
	<path class="st0" d="M15.333,23V8.519c0,0,1.171-3.282,3.779-4.419c2.808-1.225,4.486-1.207,5.545-1.544
		C25.935,2.149,28.048,1.278,28.896,0c0,0,0.777,5.289-2.967,8.093c-3.133,2.347-3.744,2.254-5.439,3.106
		c-1.695,0.852-3.037,2.431-3.461,3.709v6.815L15.333,23z"/>
	<path class="st1" d="M13.63,23V8.519c0,0-1.171-3.282-3.779-4.419C7.043,2.875,5.365,2.893,4.305,2.556
		C3.027,2.149,0.915,1.278,0.067,0c0,0-0.777,5.289,2.967,8.093c3.133,2.347,3.744,2.254,5.439,3.106
		c1.695,0.852,3.037,2.431,3.461,3.709v6.815L13.63,23z"/>
	<path class="st0" d="M23.213,23L36.949,1.278h0.799L49.23,20.267c0,0,1.207,1.881,4.401,1.881V23h-3.265
		c0,0-2.804-0.071-5.821-3.088c-3.603-3.603-3.745-3.904-11.695-3.904c0,0,0.932-1.739,7.72-1.739l-4.543-7.454l-9.761,16.15
		L23.213,23z"/>
	<path class="st1" d="M81.742,23L95.478,1.278h0.799l11.482,18.989c0,0,1.207,1.881,4.401,1.881V23h-3.265
		c0,0-2.804-0.071-5.821-3.088c-3.603-3.603-3.745-3.904-11.695-3.904c0,0,0.932-1.739,7.72-1.739l-4.543-7.454l-9.761,16.15
		L81.742,23z"/>
	<path class="st0" d="M56.258,23V4.827c0,0-0.177-2.52-5.998-2.52V1.278h4.969c2.112,0,3.345,0.488,4.827,1.668l17.356,14.481V1.278
		h2.236V23h-1.491L58.352,5.892V23H56.258z"/>
	<path class="st1" d="M109.96,1.278h5.005c1.406,0,3.33,0.672,3.363,3.753c0.038,3.487,0,14.402,0,14.402
		c0,1.278,0.319,2.769,3.86,2.769V23h-6.362c-1.205,0-1.544-1.111-1.544-2.183c0-1.624,0-15.688,0-15.688s0.186-3.035-4.321-3.035
		V1.278z"/>
	<path class="st1" d="M121.46,1.278h16.292c0,0,7.56,0,7.56,5.644c0,5.927-7.596,5.466-7.56,5.466s9.974,8.98,9.974,8.98
		s0.728,0.834,4.33,0.834V23h-7.383c0,0-1.469-0.146-2.467-1.145c-0.998-0.998-10.701-9.718-10.701-9.718l-0.612-0.638h4.392
		c1.633,0,5.244-1.304,5.244-4.552s-4.046-3.594-5.404-3.594s-5.244,0-5.244,0v19.619h-4.259V4.206c0,0-0.08-2.13-1.943-2.13
		s-2.218,0-2.218,0V1.278z"/>
</g>
</svg>
