<?xml version="1.0" encoding="UTF-8"?>
<svg width="193px" height="23px" viewBox="0 0 193 23" version="1.1" xmlns="http://www.w3.org/2000/svg" xmlns:xlink="http://www.w3.org/1999/xlink">
    <!-- Generator: Sketch 49.1 (51147) - http://www.bohemiancoding.com/sketch -->
    <title>Avia_Traffic_s</title>
    <desc>Created with Sketch.</desc>
    <defs>
        <polygon id="path-1" points="67.702492 6.96776929 67.702492 0.00727426541 0.0232467655 0.00727426541 0.0232467655 6.96776929 67.702492 6.96776929"></polygon>
        <polygon id="path-3" points="5.06199764 6.03328895 3.16248589e-06 6.03328895 3.16248591e-06 0.0132552537 5.06199764 0.0132552537 5.06199764 6.03328895"></polygon>
    </defs>
    <g id="AVIA" stroke="none" stroke-width="1" fill="none" fill-rule="evenodd">
        <g id="Avia_Traffic_s">
            <g id="Group-3" transform="translate(125.285982, 0.181642)">
                <mask id="mask-2" fill="white">
                    <use xlink:href="#path-1"></use>
                </mask>
                <g id="Clip-2"></g>
                <path d="M67.702498,0.0190431425 C66.4645654,1.41579547 65.3622413,2.66134807 64.2578407,3.90503249 C63.4598385,4.80368628 62.6504905,5.6920498 61.8647972,6.60166764 C61.6260526,6.87806578 61.3681977,6.96639068 61.0136772,6.96626818 C40.8526859,6.95861172 20.6917247,6.9581217 0.530763543,6.96776884 C0.0656735693,6.96798322 -0.0584988929,6.8917249 0.0720838297,6.38606178 C0.57554508,4.43639068 1.03753526,2.47544927 1.49612468,0.514140346 C1.5804813,0.153306791 1.72427578,-0.0385334221 2.1070857,0.0166237017 C2.22159763,0.0331003995 2.34032288,0.0190431425 2.45715213,0.0190431425 L66.7246775,0.0190431425 L67.702498,0.0190431425 Z" id="Fill-1" fill="#271176" mask="url(#mask-2)"></path>
            </g>
            <path d="M185.573102,8.52220746 C184.023174,10.262306 182.587907,11.8791968 181.14599,13.4899012 C180.533494,14.1740823 180.020372,15.1143872 179.255595,15.4480557 C178.462709,15.7939132 177.419793,15.5565324 176.486242,15.5566242 C159.0079,15.5587068 141.529497,15.5583393 124.051125,15.5575736 C123.190826,15.557543 123.164282,15.6738905 123.399595,14.7251023 C123.838924,12.9537348 124.280901,11.1821835 124.665306,9.39807563 C124.806422,8.74311158 125.037221,8.50159627 125.749332,8.5025763 C143.6249,8.52756698 161.500528,8.52220746 179.376126,8.52220746 L185.573102,8.52220746 Z" id="Fill-4" fill="#0094E3"></path>
            <path d="M150.595814,16.5481202 C159.540957,16.5481202 168.486099,16.5472627 177.431271,16.5527141 C177.67778,16.5528672 178.029532,16.4173786 178.150755,16.6432441 C178.29479,16.9117101 177.932174,17.0621442 177.775379,17.2412747 C176.270502,18.9603945 174.742874,20.6589951 173.248922,22.3878233 C172.878632,22.8163399 172.493776,22.9830057 171.926452,22.9824851 C155.39081,22.966529 138.855106,22.9696222 122.319433,22.9694691 C121.386394,22.9694691 121.383475,22.9680603 121.607624,22.0438952 C121.992781,20.4561296 122.404332,18.8745503 122.757348,17.2794957 C122.881851,16.7169605 123.103923,16.5306941 123.690356,16.5327767 C130.369938,16.5569405 137.04964,16.5481202 143.729312,16.5481202 L150.595814,16.5481202 Z" id="Fill-6" fill="#2FC5F3"></path>
            <path d="M62.2925181,0.289153795 C63.4837732,0.289153795 64.6796028,0.355979361 65.8651097,0.271942077 C67.2902641,0.170938083 68.1199564,1.36675433 68.3047104,2.35569308 C68.7718769,4.85638415 67.2735312,7.25110985 64.8394379,7.81091944 C64.2603176,7.94408056 64.161756,8.08814447 64.4522943,8.62225899 C64.8466909,9.34720306 65.1420745,10.1271511 65.5113717,10.8672856 C65.711444,11.2683003 65.5910034,11.3516638 65.2009104,11.3460899 C64.1733427,11.3313895 63.1453235,11.3312364 62.1177858,11.346733 C61.79321,11.3516025 61.6097501,11.2503842 61.491687,10.9261791 C61.1191997,9.90349068 60.7141796,8.89311385 60.3288116,7.87523369 C60.2069263,7.55329494 60.6377981,5.92887017 60.9004683,5.7616225 C61.0065235,5.69409254 61.1643424,5.69488881 61.2990481,5.69268375 C61.7660943,5.68499667 62.2335016,5.69752264 62.7004574,5.68802863 C63.8819316,5.66401798 64.7243542,4.7873229 64.7180342,3.59953063 C64.714784,2.98591145 64.2994111,2.74537617 63.8103654,2.71741478 C62.8322741,2.66155326 61.8497286,2.68789148 60.8691092,2.67466112 C60.4966821,2.66963848 60.5041457,2.95801132 60.4414576,3.20788748 C59.8131317,5.7128968 59.1642809,8.21279161 58.5646357,10.7248449 C58.4453085,11.2246891 58.2458381,11.3738369 57.7638647,11.3515719 C56.947986,11.3138409 56.1291279,11.3323695 55.3117746,11.3451711 C54.9555989,11.350745 54.8065678,11.2938422 54.9269784,10.8623855 C55.869377,7.48582623 56.7939592,4.10409121 57.7074966,0.71935486 C57.8127994,0.329181758 58.0294843,0.279077896 58.3684456,0.283028628 C59.6763193,0.298188415 60.9844638,0.289184421 62.2925181,0.289153795" id="Fill-8" fill="#0097E3"></path>
            <path d="M74.6318119,3.61908522 C74.0014095,4.6129241 73.4673716,5.46634354 72.9205132,6.31115712 C72.7147829,6.62896138 72.8178587,6.71988948 73.1487846,6.71459121 C73.6609133,6.70644474 74.1732225,6.70889481 74.6854414,6.71275366 C74.9129304,6.71446871 75.0255163,6.64559121 74.9884391,6.38049401 C74.8678179,5.51773369 74.7638091,4.65258455 74.6318119,3.61908522 M66.7039148,11.338265 C66.7161937,11.0095579 66.895079,10.8424634 67.0173555,10.6519095 C68.9178322,7.68962583 70.829745,4.73493742 72.7220058,1.76723302 C73.4824191,0.574693742 74.5732167,0.154231691 75.9042035,0.284850866 C76.8542161,0.378075899 77.4942189,0.99083755 77.6467711,1.93392943 C78.1315132,4.9302996 78.599101,7.9295486 79.0797803,10.9266232 C79.1289557,11.2333103 79.1158643,11.4165446 78.7258918,11.4058868 C77.8857564,11.3828256 77.0443872,11.3866232 76.2040412,11.4048149 C75.869564,11.4120426 75.7871335,11.2683462 75.7324205,10.9541252 C75.4515729,9.34130759 75.440528,9.34329827 73.8397987,9.34329827 C73.7463834,9.34329827 73.650711,9.35683489 73.559884,9.34127696 C72.1314191,9.09691345 71.0185317,9.47226365 70.4413675,10.9483063 C70.3551149,11.1688735 70.194106,11.3427364 69.9114226,11.3409601 C68.8464165,11.334253 67.7813201,11.338265 66.7039148,11.338265" id="Fill-10" fill="#0096E3"></path>
            <path d="M80.2220736,11.3996912 C80.9541073,8.1202771 81.6425031,4.90000146 82.4053542,1.69810133 C82.6485528,0.677281092 83.5730147,0.479560719 84.4596771,0.406548735 C86.5574574,0.233849667 88.6608655,0.344041411 90.7616854,0.334271771 C91.3525729,0.331546072 92.1597842,0.0501865513 92.4686805,0.489820373 C92.6751932,0.783767111 92.1637568,1.55654874 92.0605606,2.13121185 C91.9470117,2.76375779 91.6549386,2.95887497 91.0243255,2.93997883 C89.4139657,2.89174314 87.8012887,2.92276711 86.1895446,2.92454341 C85.6051575,2.92518655 85.0719021,3.71998815 85.267731,4.28341158 C85.3585882,4.54477244 85.5739188,4.45598815 85.7396225,4.45736631 C86.860756,4.46679907 87.9823108,4.47806937 89.1030831,4.4551 C89.5537576,4.445851 89.6834374,4.55974847 89.5356704,5.02495486 C89.3785137,5.51947017 89.2708935,6.03618921 89.1998991,6.55149947 C89.1332685,7.03538762 88.8984363,7.14462996 88.4498987,7.13011332 C87.3998198,7.09617989 86.3457382,7.16083103 85.2977058,7.1027032 C84.7267713,7.07106671 84.5398505,7.29282836 84.4293412,7.81398815 C84.2081421,8.85710399 83.910381,9.8831 83.6736528,10.9231226 C83.5912824,11.2850893 83.4454716,11.4214968 83.0664235,11.4093996 C82.136063,11.3797232 81.2041677,11.3996912 80.2220736,11.3996912" id="Fill-12" fill="#0097E3"></path>
            <path d="M99.6768498,2.92399214 C98.7896758,2.92408402 97.9025319,2.92328775 97.0153879,2.92432903 C96.1200882,2.92537031 96.42438,3.69665126 96.3375556,4.13521318 C96.2314703,4.67128775 96.7445921,4.44401345 96.9790932,4.45019987 C98.0523153,4.47846751 99.1267712,4.47304674 100.200445,4.4571213 C100.574046,4.45157803 100.665414,4.53769787 100.5912,4.94606272 C100.196863,7.1166992 100.210376,7.10668455 98.1000461,7.12564194 C97.2911796,7.13293089 96.2663806,6.78416391 95.7341183,7.26805206 C95.2402574,7.71702676 95.2808557,8.75925446 95.0508989,9.52937164 C94.869636,10.1363756 94.9607641,10.9817405 94.4871572,11.2975541 C94.0576697,11.5839668 93.3155843,11.3950667 92.7112442,11.3977005 C91.2641505,11.4040401 91.2604187,11.3988949 91.5865294,9.93516391 C92.1482849,7.41383103 92.7189786,4.89455007 93.278477,2.37272716 C93.5902925,0.967368975 94.1430195,0.482010786 95.5838233,0.391756458 C97.799125,0.25308269 100.016925,0.348941545 102.23349,0.32744221 C103.649406,0.313691212 103.675859,0.333843009 103.217691,1.72471518 C102.732768,3.1966233 103.135531,2.88748615 101.637878,2.92141957 C100.984483,2.93621185 100.330546,2.92390027 99.6768498,2.92399214" id="Fill-14" fill="#0097E3"></path>
            <path d="M35.5961309,7.23759774 C36.7598189,7.23759774 37.8228086,7.23343262 38.8857381,7.24044594 C39.1599949,7.24222224 39.214768,7.11684008 39.1172298,6.89094394 C38.5632388,5.6077522 38.0047637,4.32655113 37.4056902,2.94774554 C36.7817281,4.42697324 36.2075433,5.78816897 35.5961309,7.23759774 M44.0622792,11.8267256 C43.2605151,11.8267256 42.4746714,11.8138627 41.68958,11.833157 C41.3816467,11.8407216 41.302316,11.6419293 41.1977656,11.4249759 C40.8796,10.7646523 40.539164,10.1150478 40.2359255,9.44783342 C40.0824705,9.11021425 39.9028629,8.95178682 39.5014542,8.96103582 C38.123519,8.99285606 36.7440791,8.99083475 35.3660236,8.96223023 C34.9695806,8.95396125 34.7828705,9.08782676 34.6523781,9.45377483 C34.4539007,10.0103381 34.1636333,10.5348973 33.9880885,11.0974939 C33.816125,11.6486364 33.5549595,11.919675 32.9483322,11.8390065 C32.4888399,11.777908 32.0152029,11.8273381 31.5478859,11.8268174 C30.7846436,11.8258987 30.7807613,11.8237242 31.1253204,11.0917056 C32.5645893,8.03396125 34.0038884,4.97621691 35.4485745,1.92113702 C36.0130386,0.727464581 36.7060991,0.301336751 37.8014712,0.435845406 C38.5140935,0.523374035 39.0149365,0.91550719 39.3183855,1.55515832 C40.8984997,4.88590133 42.4691339,8.22129947 44.039738,11.5566976 C44.0669439,11.6144273 44.0525284,11.6924313 44.0622792,11.8267256" id="Fill-16" fill="#2A1073"></path>
            <path d="M9.46723535,7.23727004 C8.81988933,5.73920746 8.21539877,4.34028069 7.57894719,2.86742317 C7.46211793,3.0978213 7.39085269,3.21952836 7.3365009,3.34858562 C6.85943307,4.48128202 6.40574915,5.62478935 5.90084333,6.7443779 C5.68725827,7.21800639 5.86695623,7.24841784 6.25674821,7.24253768 C7.28431597,7.22697976 8.31230505,7.23727004 9.46723535,7.23727004 M14.3262729,11.7608586 C13.4650409,11.7608586 12.6985182,11.7463113 11.9329887,11.7678107 C11.6141911,11.7767228 11.4847821,11.614804 11.3659063,11.3560463 C11.0500581,10.6686495 10.7021284,9.99647377 10.3908546,9.30702503 C10.2549149,9.00594248 10.0661884,8.89813955 9.74326778,8.90141651 C8.31868522,8.91581065 6.89374151,8.91991451 5.46933951,8.89918083 C5.10100535,8.89379068 4.93072716,9.03779334 4.81037678,9.37222743 C4.58628852,9.99488123 4.2990607,10.594535 4.08716097,11.2209558 C3.94077831,11.6537907 3.70131145,11.7998453 3.26014709,11.7705976 C2.67873948,11.7321316 2.09071095,11.7284871 1.50975476,11.770567 C0.962926446,11.8101968 1.00587218,11.5922634 1.18575071,11.2139119 C2.70726966,8.01378802 4.22427433,4.81148975 5.73706569,1.6070783 C6.10862004,0.820055659 6.71326108,0.422838615 7.56657809,0.413558988 C8.38802437,0.404616245 9.03428696,0.750810652 9.39699334,1.49927537 C11.0343183,4.87785593 12.6504864,8.26703302 14.3262729,11.7608586" id="Fill-18" fill="#2C1275"></path>
            <path d="M119.627988,0.531349001 C119.321108,1.2665221 119.039327,1.91260466 118.782827,2.56885499 C118.665817,2.86816125 118.43908,2.83781105 118.206866,2.83771917 C117.24936,2.83735166 116.291884,2.83676977 115.334407,2.83781105 C114.065838,2.83912796 112.988282,3.52670852 112.546546,4.71428642 C112.123499,5.85166858 111.885266,7.04016525 111.925262,8.26676045 C111.952769,9.10982836 112.112665,9.25649547 112.916836,9.25713862 C114.341389,9.2583024 115.766062,9.26657137 117.190464,9.25162597 C117.583295,9.2475221 117.722997,9.29235832 117.579473,9.75958602 C117.077938,11.3921879 117.097921,11.3985274 115.401429,11.3985274 C114.140353,11.3985274 112.87678,11.3469229 111.618683,11.4091546 C108.897814,11.5436939 108.304579,9.76133169 108.320379,7.99526245 C108.333801,6.4947498 108.671077,5.0200241 109.141103,3.60835699 C109.758745,1.75341158 111.211466,0.876930892 113.042363,0.579431558 C113.362906,0.527367643 113.694434,0.533982823 114.020936,0.533247803 C115.859959,0.529297071 117.699011,0.531349001 119.627988,0.531349001" id="Fill-20" fill="#0095E2"></path>
            <path d="M44.1958474,2.55301225 C44.382708,1.8280988 44.5677929,1.17160346 44.7161619,0.506624767 C44.7827624,0.208145406 44.9374814,0.142483622 45.2072239,0.142912383 C48.9184638,0.148547537 52.6297337,0.149527563 56.3410036,0.141656724 C56.6734042,0.14095233 56.7859599,0.191546205 56.6889333,0.576176032 C56.2055455,2.49203622 56.2166205,2.49494567 54.2834605,2.49494567 C53.7232699,2.49494567 53.159468,2.53524927 52.6039422,2.48336911 C52.072974,2.43372463 51.8790711,2.64645166 51.7794563,3.15551425 C51.2789443,5.7130775 50.7333198,8.26154487 50.2381347,10.8201188 C50.1476387,11.2876221 49.9838009,11.4551454 49.5147083,11.4321454 C48.7462294,11.3944756 47.9738983,11.4006314 47.2046972,11.4299097 C46.7383432,11.4476727 46.5593074,11.3983957 46.682577,10.8214663 C47.2221223,8.2964277 47.6916663,5.75598429 48.2121313,3.22656618 C48.316441,2.7196474 48.2796648,2.51105486 47.6835105,2.53803622 C46.5445908,2.58957949 45.401819,2.55301225 44.1958474,2.55301225" id="Fill-22" fill="#0097E3"></path>
            <path d="M13.1104301,0.529254194 C14.01846,0.529254194 14.8107442,0.551427297 15.6009517,0.519913316 C15.9971239,0.504141012 16.047172,0.780539148 16.1473587,1.0346723 C17.126052,3.51720226 18.1016755,6.00098788 19.0791048,8.48403848 C19.1535,8.67303049 19.2350878,8.85911305 19.3770766,9.19921292 C19.6490763,8.53187603 19.8699444,8.00103848 20.0824159,7.46670959 C20.9376289,5.3161024 21.7983192,3.16763901 22.6358965,1.00992663 C22.7765611,0.647561784 22.9492168,0.48953249 23.3454792,0.519607057 C23.8560429,0.558348735 24.3725655,0.549069108 24.8846941,0.523067776 C25.3440961,0.499730892 25.5197914,0.558379361 25.2852,1.09136072 C23.9164137,4.20113835 22.5852464,7.32803582 21.2258499,10.4421317 C20.7477588,11.5373115 20.1776971,11.8855272 19.1146472,11.8272462 C18.2993403,11.7825631 17.7776715,11.3227775 17.4614922,10.5981397 C16.2718321,7.87152184 15.0899065,5.14144328 13.9072887,2.41167097 C13.6554527,1.83033142 13.4130064,1.24482676 13.1104301,0.529254194" id="Fill-24" fill="#2A1074"></path>
            <g id="Group-28" transform="translate(102.383596, 0.028513)" fill="#0097E3">
                <path d="M4.42975177,0.011058988 C6.1006027,0.0109671105 6.09614862,0.00974207723 5.65805397,1.6271229 C4.85343086,4.59770613 4.04321006,7.56681931 3.26507065,10.544569 C3.14134962,11.0178912 2.96860363,11.2176941 2.46736942,11.1825969 C1.79359989,11.1354638 1.11387153,11.1574225 0.437393435,11.1759511 C0.0610238734,11.1862414 -0.0682647591,11.0692201 0.0353527366,10.677577 C0.937574318,7.26818682 1.83416811,3.85723475 2.72194404,0.443955126 C2.80915969,0.108694141 2.97098115,-0.0194443409 3.30967162,0.00502569907 C3.68131625,0.0318845539 4.05624124,0.0111508655 4.42975177,0.011058988" id="Fill-26"></path>
            </g>
            <path d="M29.5954982,6.15896511 C29.5954982,7.84556032 29.5791866,9.53243116 29.6059713,11.2185976 C29.613465,11.6906029 29.4757196,11.8468253 29.0158361,11.8126162 C28.5050015,11.7746096 27.9867335,11.7714245 27.476561,11.8135963 C27.0203792,11.851266 26.9422222,11.6627947 26.9440279,11.2454565 C26.9589551,7.82482663 26.9597375,4.40401305 26.9432755,0.983383222 C26.9411989,0.552630892 27.0415361,0.385628229 27.4852284,0.426299334 C28.1550254,0.487704128 29.0202902,0.153423169 29.4507106,0.546505726 C29.8943728,0.95165486 29.5733181,1.84589854 29.5880948,2.52462823 C29.614428,3.73554301 29.5954982,4.94743782 29.5954982,6.15896511" id="Fill-29" fill="#2A1074"></path>
            <path d="M14.6422175,19.3684194 C14.6422175,20.1637723 14.6422175,20.9590945 14.6422175,21.7544474 C14.6422175,21.9444501 14.6390575,22.134514 14.6427291,22.3244554 C14.6493501,22.6659028 14.5760082,22.9467723 14.1711085,22.9752543 C13.7859211,23.0023276 13.6109481,22.7841798 13.5963519,22.4220293 C13.5322493,20.8329774 13.5279156,19.2436804 13.5992712,17.6545979 C13.6190436,17.214474 13.9119895,17.0983715 14.2701516,17.1082636 C14.7338571,17.1210959 15.2866744,16.9386272 15.4610756,17.6511984 C15.6805593,18.547984 15.9237279,19.4387976 16.1593426,20.3314181 C16.1879028,20.4396804 16.2328649,20.5434714 16.3358203,20.8351518 C16.6334912,19.705273 16.9236081,18.7591185 17.1246736,17.7937923 C17.2970284,16.9663742 17.8816862,17.093502 18.4281534,17.1085699 C18.9951455,17.1242197 19.0847386,17.5304101 19.0834746,18.0010985 C19.079803,19.3786485 19.0868152,20.756229 19.0792613,22.1337483 C19.076944,22.5543635 19.0303869,23.0019294 18.4683906,22.9702623 C17.938867,22.9404634 17.9777198,22.4977976 17.977479,22.1141478 C17.9767868,21.0932969 17.9772383,20.0724461 17.8686551,19.0214594 C17.726245,19.5591877 17.5810962,20.0962117 17.442147,20.6348895 C17.3004291,21.1843475 17.1584704,21.7338975 17.0285498,22.2862956 C16.9335997,22.6899441 16.7717782,23.0020826 16.2940182,22.9824514 C15.8230898,22.9630652 15.6802584,22.630285 15.5852782,22.2378455 C15.4071753,21.5019374 15.2219699,20.7677443 15.037216,20.03349 C14.9817506,19.8130146 14.9180694,19.5946525 14.8581199,19.3753103 C14.7861625,19.3729827 14.7141749,19.3707164 14.6422175,19.3684194" id="Fill-31" fill="#080808"></path>
            <path d="M36.1307948,20.7544772 C36.1307948,19.7824746 36.1339849,18.8104413 36.1292599,17.8384692 C36.1273037,17.4324013 36.1710019,17.0114799 36.664953,17.0064573 C37.1550822,17.0014346 37.2193653,17.4105345 37.2179208,17.823922 C37.2128347,19.2484826 37.21768,20.673135 37.2147307,22.0977262 C37.2139783,22.4582535 37.2170781,22.8399739 36.7769069,22.959874 C36.3563878,23.0744146 36.0502602,22.8647196 35.8276466,22.5247728 C35.1337736,21.4650272 34.4485077,20.3994626 33.7050981,19.2515451 C33.4724327,19.8242482 33.5980497,20.3338927 33.5749367,20.8246716 C33.5503791,21.3458314 33.5669615,21.8688288 33.5539002,22.3906929 C33.5449619,22.7473308 33.3862704,22.983364 33.0024372,22.9762895 C32.6203496,22.9692455 32.4517868,22.7074253 32.4486569,22.3718887 C32.4343317,20.8287142 32.4388158,19.2852948 32.4465804,17.7420285 C32.4484463,17.3686383 32.6448169,17.1122083 33.0045439,17.0194426 C33.3876848,16.9206437 33.6201997,17.159372 33.8077826,17.4465811 C34.4651804,18.4532522 35.1157767,19.4645172 35.7695029,20.473669 C35.8409186,20.583922 35.9158554,20.6917555 35.9891671,20.8007222 C36.0363864,20.7853174 36.0835755,20.769882 36.1307948,20.7544772" id="Fill-33" fill="#080808"></path>
            <path d="M10.8291057,19.9153478 C10.8501723,19.6304969 10.7762888,19.3028312 10.6584664,18.994674 C10.4053062,18.332666 9.91541789,17.9647885 9.21278714,17.9687393 C8.53715171,17.9725675 8.06766785,18.3313491 7.82880288,18.9718578 C7.55132588,19.7160043 7.57476998,20.462172 7.90897628,21.1825222 C8.16015015,21.7238951 8.60661124,22.0077353 9.18979446,22.0192506 C9.79690331,22.0312253 10.2710218,21.7672613 10.5578283,21.2053079 C10.7549814,20.8189936 10.8343724,20.4032479 10.8291057,19.9153478 M6.45643535,19.9853585 C6.45956524,18.1474104 7.49959237,17.00718 9.19415826,16.9837513 C10.9416915,16.9596487 12.0474163,18.152678 12.0262896,20.0395356 C12.0056744,21.8799643 10.9637814,22.9839643 9.24893137,22.9824636 C7.48942022,22.9809324 6.45321517,21.8688165 6.45643535,19.9853585" id="Fill-35" fill="#060606"></path>
            <g id="Group-39" transform="translate(0.000000, 16.964598)">
                <mask id="mask-4" fill="white">
                    <use xlink:href="#path-3"></use>
                </mask>
                <g id="Clip-38"></g>
                <path d="M0.00601902386,3.08578535 C0.0171843131,0.790716112 1.81244846,-0.540313182 3.73200546,0.235010386 C4.29683066,0.46314221 4.73092266,0.828079627 4.96452097,1.41934194 C5.10425261,1.77303968 5.1006111,2.10214487 4.73537673,2.2695763 C4.41353953,2.41707031 4.15083923,2.25236458 3.99142539,1.93174274 C3.72228473,1.39043116 3.33977577,1.0036269 2.69935163,1.00126871 C1.83447809,0.99802237 1.24584765,1.72994913 1.18210619,2.87563089 C1.1123758,4.12850306 1.61138297,4.96795712 2.50057337,5.04550173 C3.20627382,5.10705965 3.71500172,4.80848842 3.97577592,4.11224075 C4.10596741,3.76466818 4.27588445,3.41173609 4.7325177,3.6175723 C5.14755949,3.80466551 5.09663855,4.16485593 4.97622797,4.53307031 C4.71491205,5.3322514 4.14439888,5.81246445 3.36950975,5.95352703 C2.37531748,6.1345257 1.40258303,6.05887989 0.680932169,5.18160293 C0.160858413,4.549302 -0.0384013722,3.81115819 0.00601902386,3.08578535" id="Fill-37" fill="#060606" mask="url(#mask-4)"></path>
            </g>
            <path d="M27.497441,20.6006314 C27.9751408,20.6006314 28.3637892,20.5965582 28.7522871,20.6021933 C28.9808595,20.6055009 29.1130373,20.5560708 29.0083966,20.280224 C28.7775068,19.6716274 28.556729,19.0590802 28.2961956,18.3513478 C28.0177555,19.135461 27.7772353,19.8127513 27.497441,20.6006314 M30.9503744,22.3440069 C30.9545877,22.6468352 30.8592163,22.8599603 30.6061765,22.9425582 C30.3444995,23.0279124 30.0957031,22.9895688 29.9232882,22.7360482 C29.8973462,22.6978884 29.8927416,22.6450895 29.8681238,22.6056128 C29.6598054,22.2714543 29.7057908,21.6559976 29.3517819,21.5831694 C28.7012759,21.4493957 28.0062291,21.5392213 27.329751,21.5375369 C27.1455689,21.5370469 27.1220947,21.684939 27.0750259,21.8205808 C26.9975912,22.0436594 26.896592,22.2584383 26.8226783,22.4825582 C26.6902899,22.8840628 26.435625,23.1072639 26.030334,22.9296035 C25.6751514,22.7739017 25.6184823,22.4564956 25.7655873,22.089935 C25.9852215,21.5426514 26.1836687,20.9866088 26.396712,20.4365076 C26.7634211,19.4896487 27.1380451,18.5459137 27.5019252,17.5978911 C27.6449071,17.2253585 27.9110081,17.0051587 28.2901164,16.9956953 C28.6700973,16.9862013 28.9541652,17.1924051 29.1012701,17.5620895 C29.6946556,19.0534144 30.28771,20.5449537 30.8770928,22.0379324 C30.9199483,22.1465316 30.9326183,22.267473 30.9503744,22.3440069" id="Fill-40" fill="#060606"></path>
            <path d="M22.0651666,18.9590378 C22.1875334,19.1654253 21.71504,19.8020445 22.5788903,19.751665 C23.5722098,19.6936903 24.0011556,19.4869659 24.0051883,18.8793188 C24.0093414,18.252898 23.6615021,18.0950525 22.6672496,18.0221324 C21.9286251,17.9679859 22.0332056,18.4006064 22.0651666,18.9590378 M20.8488122,20.0701124 C20.8488122,19.3585212 20.8465852,18.6469606 20.8495345,17.9353387 C20.8519421,17.3529885 21.1187353,17.0688115 21.7154012,17.0964972 C22.3435465,17.1256224 22.9754838,17.0827156 23.6022749,17.1248261 C24.6042919,17.1922029 25.1571994,17.7707862 25.2078194,18.7398794 C25.260215,19.7427529 24.8021974,20.3473068 23.8389429,20.5810125 C23.3994939,20.6876517 22.9567947,20.6639166 22.5173157,20.6454799 C22.1648417,20.6307182 22.0092499,20.7162562 22.0420536,21.1087262 C22.0754893,21.5090059 22.0571914,21.9148594 22.044401,22.317681 C22.0325736,22.6902442 21.88273,22.9637329 21.4699755,22.9779126 C21.048403,22.992368 20.8791481,22.7087116 20.8679527,22.3461936 C20.8445989,21.5881736 20.8608804,20.828898 20.8608804,20.070143 C20.8568476,20.0701124 20.852845,20.0701124 20.8488122,20.0701124" id="Fill-42" fill="#0A0A0A"></path>
            <path d="M40.9766086,19.3792763 C41.4209329,18.6574254 41.8013051,18.0360273 42.1852887,17.4169874 C42.3893036,17.0880965 42.6423132,16.8423855 43.0412541,17.1021844 C43.4122668,17.3437916 43.2901107,17.667721 43.1174851,17.9708249 C42.9657756,18.2371165 42.8199948,18.5123815 42.6310276,18.7503136 C41.8128616,19.7804134 41.3247188,20.9026971 41.5279211,22.2700486 C41.5867871,22.6662244 41.4000469,22.9788835 40.9452494,22.9769234 C40.5321337,22.9750859 40.3269452,22.7030366 40.395863,22.3229394 C40.6624155,20.8532364 39.9950262,19.7161605 39.1917272,18.6133549 C39.0261439,18.3860499 38.8769925,18.1399714 38.7607651,17.8835107 C38.6287077,17.5921977 38.5714668,17.2903189 38.9254456,17.0833802 C39.2682892,16.8829341 39.5240977,17.0382989 39.7030433,17.3138702 C40.1232314,17.9609021 40.5153708,18.6267996 40.9766086,19.3792763" id="Fill-44" fill="#060606"></path>
        </g>
    </g>
</svg>