<?xml version="1.0" encoding="utf-8"?>
<!-- Generator: Adobe Illustrator 21.0.0, SVG Export Plug-In . SVG Version: 6.00 Build 0)  -->
<svg version="1.1" id="Слой_1" xmlns="http://www.w3.org/2000/svg" xmlns:xlink="http://www.w3.org/1999/xlink" x="0px" y="0px"
	 viewBox="0 0 918.5 236.5" style="enable-background:new 0 0 918.5 236.5;" xml:space="preserve">
<style type="text/css">
	.st0{fill:#005AAF;}
	.st1{fill:url(#SVGID_1_);}
	.st2{fill:#0083D0;}
	.st3{fill:url(#SVGID_2_);}
	.st4{fill:#929498;}
	.st5{fill:#C0C2C4;}
</style>
<title>libyan_wings</title>
<g id="Слой_2">
	<g id="Слой_1-2">
		<path class="st0" d="M409.9,73.4l-0.1,44.3c0.5,0.1,1,0.2,1.6,0.3c16.3,0.4,18.5-0.8,19.6-16.6c0.5-6.9,0.1-13.9,0.1-21.3h11.4
			c-0.1,3-0.4,6.2-0.4,9.4c0,6.3-0.4,12.7,0.4,18.9c0.8,6.4,4.8,9.2,11,9.4c5.8,0.1,10.3-2.5,11.2-8.5c1-7.3,0.5-14.8,0.5-22.3
			c-0.2-2.3-0.5-4.6-0.9-6.8H477c-0.3,6.1-0.7,12.2-1,18.3c-0.1,2.5,0,5,0.3,7.5c0.8,7.9,4.5,11.7,11.5,11.9
			c7.2,0.2,11.6-3.5,12.2-11.6c0.6-8.4,0.1-16.9,0.1-25.9h11.6c-0.2,3.7-0.5,7.6-0.5,11.5c0,5.8-0.1,11.7,0.4,17.4
			c0.5,5.8,3.6,8,10.4,8.5c6.5,0.5,10.3-1.5,11.5-7c1.1-4.9,1.6-9.9,1.5-14.9c-0.1-10.6-0.7-21.3-1.1-32.3h11.6c0,7.2,0,14.5,0,21.7
			s-0.3,14.3,0,21.5c0.4,7.8,3.2,10.2,10.8,11c0.5,0,1,0.1,1.5,0.1c12.9,0.6,15.3-1.6,15.3-14.5c0-13.1,0-26.3,0-39.8h12.4
			c0,13.4,0,26.7,0,40c-0.1,16.5-6.8,23.5-23.4,23.4c-5.9,0-17.7,0-21.8-5.7c-3.8,5.8-12.7,5.8-17.5,5.8c-6.4,0-12,0-17.5-5.4
			c-3.5,5.3-12.6,5.3-16.1,5.3c-7,0.1-13.5,0-18.9-5.2c-4.6,4.9-10.7,5.2-16.8,5.4c-3,0.1-12.9-0.6-17.4-5.5
			c-4.2,5.6-11.8,5.7-30,5.6c-34.5,0-43.7,2.9-43.9-18.9c0-4.4-0.2-8.9,0-13.4c0.4-8.9,6.4-12.7,15.1-14.3c2.9-0.5,21-0.9,21-0.9
			v-6.3L409.9,73.4z M398.4,89c-7.4,0-14.8-0.7-21.9,0.2s-9.6,6.2-9.3,15.8c0.2,7.2,3.2,11.6,9.8,12.3c7,0.7,14.1,0.2,21.3,0.2
			L398.4,89z"/>
		<path class="st0" d="M839.8,117.1l-0.1,9.3c0,0-35.3,0.3-51,0.2c-2.3,0-22.4,1.4-24.3-7.6c-1.5,9.1-23.8,7.5-26.9,7.5
			c-25.5,0.1-51,0.1-76.5,0.1h-4c-21-0.2-23.6-4.4-24.3-23.5c0-16.7,6-20.4,13-21.7c5-1,21.8-1.3,21.8-1.3v-6.1l11.8,0.1v43.4h48.2
			c0-9.4,0.1-18.5-0.1-27.5c-0.1-3.4-2.5-5-5.7-5c-9.1-0.3-18.5-1.5-26.2,6.8V79.5c10.5-0.1,20.8-0.6,31.2-0.1
			c5.9,0.3,9.8,4.4,10.7,10.3c1,6.4,1.2,12.9,1.6,19.4c0.2,2.6,0,5.3,0,8.7c4.3-0.3,8.3-0.2,12.1-0.8c5.2-0.9,7.6-4.8,7.8-9.7
			c0.3-6.5,0-13-0.2-19.4c-0.1-2.5-0.5-4.9-0.7-7.7h12.1c0,5.9,0,11.5,0,17.1c0,3.7-0.2,7.3,0.1,11c0.5,6.1,3.1,9,9.2,9.1
			c13.6,0.3,27.3,0.1,41.5,0.1c0-8.9,0.3-17-0.1-25c-0.2-4.2-3.4-6.7-7.7-7.4c-8.6-1.6-16.5,0-23.8,5.8v-11c10.5,0,21-0.4,31.3,0.2
			c6.3,0.3,9.5,5.2,10.4,11.1c0.8,5.4,1,10.9,1.4,16.4c0.2,2,0.2,9.9,0.2,9.9L839.8,117.1z M667.6,89.1c-7.7,0-14.8-0.3-21.9,0.1
			c-4.6,0.3-8.3,3-8.3,13.8c0,10.4,2.9,13.5,7.1,13.8c7.7,0.4,15.5,0.1,23.1,0.1V89.1z"/>
		
			<linearGradient id="SVGID_1_" gradientUnits="userSpaceOnUse" x1="319.9012" y1="-0.3283" x2="16.6312" y2="215.3417" gradientTransform="matrix(1 0 0 -1 0 238)">
			<stop  offset="0" style="stop-color:#0060B4"/>
			<stop  offset="1" style="stop-color:#00A0DA"/>
		</linearGradient>
		<path class="st1" d="M343,233.2c-3.4-0.8-34.5-8.3-49.2-10.2c-21.8-2.9-44.2-4.6-65.8-6.3l-10.3-0.8c-37.2-3-68.2-18.2-92.2-45.4
			c-0.4-0.5-0.8-1.1-1.2-1.7c36.7,13.2,75.6,17.4,113.1,21.6c6.6,0.7,13.5,1.5,20.3,2.3l0.9,0.1l-0.4-0.8
			c-3.2-6.6-8.9-11.6-15.9-13.9c-8.6-3.1-17.5-5.5-26.5-7.2c-10.2-1.8-20.6-3.3-30.6-4.9c-12.8-1.9-26-3.9-38.9-6.4
			c-35.7-6.8-65.3-26.6-90.5-60.6c-1.7-2.4-3.3-4.8-4.7-7.4c-0.5-0.8-0.9-1.6-1.4-2.3c2.8,1.1,5.4,2.3,8,3.8
			c1.1,0.6,2.1,1.2,3.2,1.7c3.2,1.6,6.3,3.3,9.4,4.9c8.1,4.3,16.4,8.7,25.1,11.9c27.2,10.2,56.1,15.5,84.1,20.7l8.1,1.5
			c8.3,1.5,25.1,4.1,25.3,4.1l1,0.2l-0.5-0.9c-0.1-0.1-7.8-13.5-27.9-20.4c-21.9-6.8-41.5-12.3-60.1-16.9l-2.4-0.6
			c-21.2-5.2-43-10.7-62.5-21.6C33.3,62.4,16.3,41.7,3.7,8.5C3,6.3,1.9,3.5,1.2,1.7C7,6.4,27.5,23.1,38.6,27.7
			c2.7,1.1,5.5,2.3,8.2,3.5c9.8,4.2,19.9,8.5,30.3,11.4c31.8,8.9,56.3,15.1,79.4,20.1c37.2,8,65.9,26.5,87.8,56.7
			c8.9,12.2,17.3,24.1,25.1,35.5c21.7,31.8,42.6,54.9,66,72.8C337,228.8,340.6,231.4,343,233.2z"/>
		<path class="st2" d="M2.4,3.3c7.2,5.9,25.5,20.5,36.1,24.9c2.7,1.1,5.5,2.3,8.2,3.5c9.8,4.2,20,8.5,30.4,11.4
			c31.8,8.9,56.4,15.1,79.4,20.1c17.5,3.6,34.2,10.3,49.3,19.9c14.9,9.7,27.9,22.1,38.3,36.6c8.9,12.2,17.3,24.1,25,35.5
			c21.7,31.9,42.7,55,66.1,72.9c1.2,0.9,3.5,2.7,5.7,4.2c-8.3-2-33.9-7.9-46.8-9.6c-21.9-2.9-44.2-4.6-65.9-6.3l-10.3-0.8
			c-17.5-1.2-34.7-5.8-50.6-13.3c-15.8-7.8-29.8-18.6-41.3-31.9l-0.3-0.4c36.3,12.8,74.7,17,111.8,21.1c6.6,0.7,13.5,1.5,20.3,2.3
			l1.9,0.2l-0.9-1.7c-3.3-6.7-9.1-11.8-16.2-14.1c-8.7-3.1-17.6-5.5-26.6-7.2c-10.2-1.8-20.6-3.3-30.6-4.9
			c-12.8-1.9-26-3.9-38.9-6.4c-35.6-6.8-65.1-26.5-90.2-60.4c-1.7-2.4-3.2-4.8-4.6-7.3l-0.7-1.1c2.3,1,4.5,2.1,6.6,3.3
			c1,0.6,2.1,1.2,3.2,1.7c3.2,1.6,6.3,3.3,9.4,4.9c8.1,4.3,16.5,8.7,25.2,12c27.2,10.3,56.2,15.6,84.2,20.7l8.1,1.5
			c8.3,1.5,25.2,4.1,25.3,4.2l2,0.3l-1-1.8c-0.3-0.6-7.9-13.7-28.2-20.7c-21.9-6.8-41.5-12.3-60.1-17l-2.4-0.6
			c-21.1-5.2-43-10.6-62.4-21.5c-13.9-7.8-25.1-17-34.1-28S10.5,25,4.2,8.3C3.7,6.8,3,4.9,2.4,3.3 M0,0c0,0,2.1,5.2,3.2,8.6
			c12.6,33.2,29.3,53.9,57.2,69.5c20.2,11.3,42.7,16.7,65,22.2c20.2,5,40.2,10.8,60,16.9c20.2,7,27.6,20.2,27.6,20.2
			s-16.9-2.6-25.3-4.1c-31.1-5.7-62.4-10.9-92.2-22.1c-11.9-4.5-23-11.1-34.5-16.8c-4-2-7.8-4.5-12.6-6c2.2,3.7,4.2,7.5,6.8,11
			c23,31,52.1,53.4,90.8,60.8c23.1,4.4,46.4,7.2,69.5,11.2c9,1.7,17.8,4.1,26.4,7.1c6.8,2.3,12.4,7.2,15.6,13.6
			c-45.8-5.4-91.2-8.5-134.7-24.3c0.6,1,1.3,2,2,3c24.6,27.9,55.6,42.6,92.6,45.6c25.4,2,50.9,3.8,76.1,7.1
			c15.6,2.1,49.4,10.3,49.4,10.3l2.6,0.9c0,0-7.5-5.5-10.1-7.5c-26.4-20.2-47.3-45.4-65.9-72.6c-8.2-12-16.5-23.8-25-35.5
			c-22-30.3-51.4-48.9-88.1-56.8c-26.7-5.8-53.1-12.8-79.4-20.1c-13.2-3.7-25.8-9.6-38.4-14.8C25.8,21.9,0,0,0,0z"/>
		
			<linearGradient id="SVGID_2_" gradientUnits="userSpaceOnUse" x1="351.5596" y1="38.8714" x2="176.5297" y2="187.1314" gradientTransform="matrix(1 0 0 -1 0 238)">
			<stop  offset="0" style="stop-color:#79787D"/>
			<stop  offset="0.15" style="stop-color:#7D7D81"/>
			<stop  offset="0.32" style="stop-color:#8A8A8E"/>
			<stop  offset="0.5" style="stop-color:#A0A1A4"/>
			<stop  offset="0.68" style="stop-color:#BEC0C2"/>
			<stop  offset="0.69" style="stop-color:#C0C2C4"/>
		</linearGradient>
		<path class="st3" d="M350,228.3c-11-10.8-34.6-34.5-52-57.1c-8-10.4-14.3-19.7-23.7-33.8c-2.8-4.2-5.9-8.8-9.5-14.1
			c-16.5-24.3-49.9-44.7-64.1-52.6c14.9,5.7,49.4,19.1,62.9,27.3c50.2,31,56.3,51.3,68.5,91.9l0.3,1.1
			C337.8,209.3,345.1,221.5,350,228.3z"/>
		<path class="st4" d="M206.5,73.4c16.7,6.4,44.9,17.8,56.8,25c24.2,14.9,38.6,27.5,48.3,42c9.2,13.9,13.7,28.9,19.9,49.6l0.3,1.1
			c3.4,11.7,8.4,22.9,14.8,33.2c-12-11.9-32.6-33.1-48.3-53.5c-8-10.4-14.3-19.7-23.7-33.8c-2.8-4.2-5.9-8.8-9.5-14.1
			C250.5,101.4,222.6,82.9,206.5,73.4 M193.8,67.6c0,0,49.2,24.5,70.5,56c15.7,23.2,22.9,34.4,33.2,47.9
			c23.7,30.7,58.2,63.1,58.2,63.1s-13.9-13.2-23-43.8c-12.5-41.8-18.2-61.9-69-93.2C246.2,86.8,193.8,67.6,193.8,67.6L193.8,67.6z"
			/>
		<path class="st0" d="M685.2,209.1c-3.2,8.5-9.5,25.9-9.5,25.9l-7-0.2c0,0-14.5-42.1-21.3-62.3h9.9l16.6,52.7
			c3.1-8.7,8.2-23.2,8.2-23.2l-10.4-30h10.8c0,0,3,10.6,4.5,15.9c1.7-4.7,5.9-15.9,5.9-15.9h6l-8.4,26.4c0,0,5.4,16.8,8.6,26.3
			c1.1-2.8,1.8-4.5,2.4-6.3c5-14,16.2-46.4,16.2-46.4h6.6c0,0-11.1,29.2-16.3,43.3c-2.1,5.6-6.7,19.5-6.7,19.5h-7.3
			C693.8,234.8,687.9,217.7,685.2,209.1z"/>
		<path class="st0" d="M850,63.6h12.7l14,53.4c0,0,7.9,1.2,10-1.3c1.8-2.2,1.6-9,1.6-11.6c0.1-13.5,0-26.9,0-40.5h11
			c0,14.7,0.5,29-0.2,43.3c-0.5,11.2-2.1,18.8-11,19.5c-11.2,0.8-38.9,0.3-38.9,0.3v-9.5l14.5,0.1L850,63.6z"/>
		<path class="st0" d="M428.5,235.1v-64.5c0,0,24-1.9,32.9,1.2c8.5,3.1,12.7,18.8,0.7,26.1c-1.9,1-3.8,1.8-5.8,2.6
			c2.8,0.8,5.5,1.8,8.2,2.9c10.2,4.9,11.9,17.8,3.3,25.2c-5.1,4.4-11.4,6.3-18,6.5C442.8,235.3,435.8,235.1,428.5,235.1z
			 M437.5,231.2c0,0,12.4,0.1,18.1-1.7c5.5-1.7,8.2-8.3,7.8-14.3c-0.3-5.1-3.1-8.9-8.8-10.1c-5.5-1.2-17.1-1.4-17.1-1.4V231.2z
			 M437.6,198.6c6.8,0.6,13.2,0.7,18.9-3.3c7.1-5,7-15.2-1.2-18c-5.2-1.8-17.7-1.7-17.7-1.7V198.6z"/>
		<path class="st0" d="M797.9,220.5v-48.4l5.3-0.2v63.4h-2.6l-13.4-14.3c-5-5.3-10-10.8-15-16.1s-10.2-10.8-15.9-16.8V235H751v-64
			C753.2,172.7,797.9,220.5,797.9,220.5z"/>
		<path class="st0" d="M622.9,171.6h5.4v63.2h-3l-43.6-47.1l0,0v47l0,0l-5.3,0.2l0,0v-65.1l46.6,50.2l0,0L622.9,171.6L622.9,171.6z"
			/>
		<path class="st0" d="M869.6,176.8l-2.5,8.3c-1.8-1.6-3.2-2.7-4.5-3.8c-15.3-12.5-36.9-5.1-40.8,14.2c-1.1,5.7-1.1,11.6-0.1,17.3
			c3.1,16.6,23,25.5,37.8,17.2c1-0.6,1.8-1.1,1.8-1.1s0-15.5,0-22.2h8.1c0,8,0.1,25.5,0.1,25.5c-0.8,0.4-1.7,0.8-2.6,1.1
			c-11,3.2-22.2,4.5-33.5,1.7c-13.1-3.3-21.7-14.7-22.2-28.6c-0.5-15.9,7.6-28.7,21.4-33.1C845.2,169.3,857.3,171.1,869.6,176.8z"/>
		<path class="st0" d="M570.8,235.1l-9.5-0.3c0,0-5.7-14.5-8.3-20.4c-0.7-1.4-1.5-3.3-1.5-3.3l-22.5-0.1c0,0-0.7,2-1.5,3.6
			c-3,6.5-5.4,13.2-8.2,20.2h-6.1l29.3-64.6C552.1,192.4,570.8,235.1,570.8,235.1z M540.4,184.6l-9.1,20.6h18
			C546.2,198.3,543.6,192.1,540.4,184.6L540.4,184.6z"/>
		<path class="st0" d="M912.2,175.3c-0.8,2.6-1.5,4.6-2.3,7.3c-1.2-1.1-2.1-1.9-3-2.8c-3.2-3.5-8-5.2-12.7-4.4
			c-4.8,0.7-8.5,3.1-9.7,8.1s0.6,9.1,5.1,11.4c5,2.6,10.5,4.3,15.5,6.8c9.4,4.6,12.5,14.3,7.7,23.4c-2.7,4.2-5.5,7.4-12,9.3
			c-15.3,4.4-23.5-4.2-23.5-4.2l1.3-7.7c0,0,1.5,3.7,2.4,4.7c4.3,4.6,10.9,6.5,17,4.9c5-1.1,8.9-5.2,9.6-10.3c0.8-5.5-1.3-9.6-6-12
			s-10.1-4.2-15.1-6.5c-4.6-2.1-8-5.3-9.2-10.4c-2.1-9,2.7-17.4,12-20.2C897.1,170,904.6,171.3,912.2,175.3z"/>
		<path class="st0" d="M918.5,126.4H907V63.6h11.6L918.5,126.4z"/>
		<path class="st0" d="M523.9,171.7l-21.6,36.7c0,0,0,18.8,0,26.4h-8l0.2-24.5c0,0-16.6-28.5-22.8-38.5H482l17.6,31.6
			c5.3-9.6,17.1-31.8,17.1-31.8L523.9,171.7z"/>
		<rect x="593.2" y="63.6" class="st0" width="11" height="62.9"/>
		<path class="st0" d="M363.5,234.6v-62.9h8.4v57.8h24.2v5.1H363.5z"/>
		<path class="st0" d="M728.7,171.8h8.2v63h-8.2V171.8z"/>
		<path class="st0" d="M416.1,234.6h-8.2v-63.1h8.2V234.6z"/>
		<circle class="st0" cx="386.3" cy="59.1" r="6"/>
		<circle class="st0" cx="398.4" cy="59.1" r="6"/>
		<circle class="st0" cx="436.4" cy="138" r="6"/>
		<circle class="st0" cx="448.5" cy="138" r="6"/>
		<circle class="st0" cx="486.8" cy="138" r="6"/>
		<circle class="st0" cx="469" cy="137.9" r="6"/>
		<circle class="st0" cx="498.8" cy="138" r="6"/>
		<circle class="st0" cx="649.2" cy="64.1" r="6"/>
		<circle class="st0" cx="661.2" cy="64.1" r="6"/>
		<circle class="st0" cx="763.4" cy="66.3" r="6"/>
		<circle class="st0" cx="854.2" cy="51.2" r="6"/>
		<circle class="st0" cx="801.6" cy="138.5" r="6"/>
		<rect x="363.5" y="156.3" class="st5" width="555.1" height="3.4"/>
	</g>
</g>
</svg>
