<?xml version="1.0" encoding="utf-8"?>
<!-- Generator: Adobe Illustrator 22.1.0, SVG Export Plug-In . SVG Version: 6.00 Build 0)  -->
<svg version="1.1" id="svg9312" xmlns:svg="http://www.w3.org/2000/svg"
	 xmlns="http://www.w3.org/2000/svg" xmlns:xlink="http://www.w3.org/1999/xlink" x="0px" y="0px" width="274.838px" height="23px"
	 viewBox="0 0 274.838 23" style="enable-background:new 0 0 274.838 23;" xml:space="preserve">
<style type="text/css">
	.st0{fill:#0164C8;}
</style>
<g id="g9511" transform="translate(-99.46034,-166.71816)">
	<path id="path5078" class="st0" d="M111.515,178.881c-0.241-0.436-0.393-0.929-0.433-1.453c0.983-0.022,1.952-0.007,2.9,0.03
		L111.515,178.881L111.515,178.881z M113.108,173.934c0.637-0.316,2.518-1.032,7.186-1.64c0,0,6.193-0.778,11.244-3.039l0.844-2.536
		c-4.728,2.455-9.134,3.09-12.088,3.641c-2.761,0.502-5.621,0.775-7.927,1.808c-1.42,0.651-2.516,1.888-2.976,3.403
		c-1.08,0.063-2.135,0.171-3.133,0.338c-3.83,0.464-6.796,3.724-6.796,7.679c0,2.365,1.062,4.482,2.734,5.9l0.01,0.026l-0.004-0.021
		v0.001l-0.048-0.221c-0.303-1.591,0.473-2.637,0.473-2.637c0.892-1.404,2.343-2.059,4.571-2.059c5.217,0,10.793,2.335,16.184,4.593
		l1.296,0.549l0.63-1.82c-5.833-2.429-12.103-5.237-18.11-5.237c-2.021,0-4.169,0.473-5.669,2.241
		c-0.099-0.423-0.151-0.863-0.151-1.315c0-2.978,2.248-5.44,5.136-5.779c0.886-0.135,1.773-0.23,2.656-0.292
		c0.097,1.526,0.818,2.884,1.912,3.82l0.004-0.003l0.006,0.008l9.187-5.305c-2.526-0.289-5.688-0.561-8.795-0.534
		C111.84,174.82,112.411,174.268,113.108,173.934"/>
	<path id="path5082" class="st0" d="M144.316,171.61l1.986,10.3l5.732-10.3h3.706l-2.703,14.222h-2.701l2.312-12.196l-6.734,12.196
		h-1.391l-2.314-12.196l-2.312,12.196h-1.946l2.702-14.222H144.316L144.316,171.61z"/>
	<path id="path5086" class="st0" d="M159.725,180.639c0,1.94,0.881,3.771,3.153,3.771c3.746,0,4.933-5.15,4.933-7.973
		c0-2.177-1.064-3.382-3.029-3.382c-3.482,0-5.057,4.352-5.057,7.562V180.639L159.725,180.639z M156.675,179.992
		c0-3.748,2.559-8.576,8.127-8.576c3.378,0,6.039,1.789,6.039,5.603c0,3.21-1.843,9.028-7.963,9.028
		c-4.094,0-6.203-2.585-6.203-6.033L156.675,179.992L156.675,179.992z"/>
	<path id="path5090" class="st0" d="M176.084,171.61l6.469,10.193l1.944-10.193h1.966l-2.702,14.222h-1.781l-6.469-10.192
		l-1.945,10.192h-1.965l2.702-14.222H176.084L176.084,171.61z"/>
	<path id="path5094" class="st0" d="M200.26,171.61l-0.328,1.659h-4.482l-2.375,12.563h-2.846l2.375-12.563h-4.483l0.307-1.659
		L200.26,171.61L200.26,171.61z"/>
	<path id="path5098" class="st0" d="M211.027,171.61l-0.348,1.724h-5.956l-0.819,4.31h5.547l-0.327,1.681h-5.547l-0.88,4.74h6.407
		l-0.308,1.767h-9.294l2.702-14.222H211.027L211.027,171.61z"/>
	<path id="path5102" class="st0" d="M215.591,171.61l6.47,10.193l1.944-10.193h1.965l-2.702,14.222h-1.781l-6.469-10.192
		l-1.945,10.192h-1.965l2.703-14.222H215.591L215.591,171.61z"/>
	<path id="path5106" class="st0" d="M237.207,171.61l-0.348,1.724H230.9l-0.818,4.31h5.547l-0.327,1.681h-5.547l-0.881,4.74h6.407
		l-0.306,1.767h-9.295l2.702-14.222H237.207L237.207,171.61z"/>
	<path id="path5110" class="st0" d="M248.96,184.97c-1.62,0.714-2.825,1.08-4.588,1.08c-4.646,0-6.694-3.253-6.694-6.275
		c0-3.918,2.829-8.359,8.926-8.359c1.58,0,2.807,0.259,3.932,0.647l-0.509,1.638c-1.044-0.366-2.111-0.562-3.03-0.562
		c-3.909,0-6.266,3.298-6.266,6.788c0,1.941,1.044,3.686,3.213,4.159c0.861,0.174,1.66,0.174,2.557,0.045l0.741-3.838h-2.99
		l0.308-1.633h5.61L248.96,184.97"/>
	<path id="path5114" class="st0" d="M256.738,173.251l-0.942,4.891h0.861c1.392,0,2.312-0.022,3.088-0.478
		c0.821-0.518,1.375-1.593,1.375-2.522c0-1.915-1.741-1.892-3.503-1.892H256.738 M257.662,171.608c2.044,0,3.088,0.022,4.258,0.411
		c0.839,0.303,2.169,1.142,2.169,2.825c0,3.146-3.236,4.137-4.565,4.244l4.378,6.743h-3.231l-3.789-6.248h-1.352l-1.165,6.248
		h-2.847l2.704-14.223L257.662,171.608"/>
	<path id="path5118" class="st0" d="M268.427,180.641c0,1.937,0.879,3.771,3.155,3.771c3.744,0,4.931-5.15,4.931-7.975
		c0-2.178-1.067-3.383-3.03-3.383c-3.477,0-5.056,4.351-5.056,7.565V180.641 M265.378,179.994c0-3.749,2.557-8.578,8.127-8.578
		c3.378,0,6.038,1.79,6.038,5.605c0,3.209-1.843,9.028-7.962,9.028c-4.097,0-6.203-2.588-6.203-6.034V179.994"/>
	<path id="path5122" class="st0" d="M291.615,180.101h4.097l-1.169-5.172L291.615,180.101 M296.284,171.608l3.664,14.223h-2.928
		l-0.96-4.222h-5.28l-2.379,4.222h-2.209l8.39-14.223H296.284z"/>
	<path id="path5126" class="st0" d="M307.338,171.608l-2.682,14.223h-2.865l2.7-14.223H307.338L307.338,171.608z"/>
	<path id="path5130" class="st0" d="M312.408,173.251l-0.942,4.891h0.857c1.392,0,2.316-0.022,3.093-0.478
		c0.817-0.518,1.37-1.593,1.37-2.522c0-1.915-1.741-1.892-3.499-1.892H312.408 M313.327,171.608c2.048,0,3.093,0.022,4.258,0.411
		c0.839,0.303,2.169,1.142,2.169,2.825c0,3.146-3.236,4.137-4.565,4.244l4.383,6.743h-3.236l-3.784-6.248h-1.352l-1.165,6.248
		h-2.847l2.7-14.223L313.327,171.608"/>
	<path id="path5134" class="st0" d="M326.533,171.608l-2.379,12.456h6.101l-0.326,1.767h-8.948l2.704-14.223H326.533z"/>
	<path id="path5138" class="st0" d="M337.81,171.608l-2.682,14.223h-2.865l2.7-14.223H337.81L337.81,171.608z"/>
	<path id="path5142" class="st0" d="M342.117,171.608l6.467,10.193l1.946-10.193h1.964l-2.7,14.223h-1.781l-6.471-10.193
		l-1.946,10.193h-1.964l2.7-14.223H342.117z"/>
	<path id="path5146" class="st0" d="M363.963,171.608l-0.348,1.727h-5.958l-0.817,4.307h5.547l-0.326,1.682h-5.552l-0.879,4.74
		h6.409l-0.308,1.767h-9.292l2.7-14.223H363.963L363.963,171.608z"/>
	<path id="path5150" class="st0" d="M373.808,173.657c-0.634-0.214-1.696-0.558-2.928-0.558c-1.678,0-2.986,0.732-2.986,1.874
		c0,0.794,0.549,1.165,1.843,2.173l0.469,0.348c1.741,1.334,3.195,2.37,3.195,4.222c0,1.83-1.517,4.333-5.467,4.333
		c-1.741,0-3.133-0.388-4.4-0.995l0.611-1.571c1.026,0.433,2.254,0.884,3.686,0.884c2.169,0,2.945-1.209,2.945-2.089
		c0-0.821-0.589-1.317-2.231-2.521l-0.348-0.259c-1.718-1.25-2.945-2.223-2.945-3.967c0-2.347,2.249-4.115,5.547-4.115
		c1.187,0,2.374,0.192,3.499,0.625L373.808,173.657"/>
</g>
</svg>
