<?xml version="1.0" encoding="utf-8"?>
<!-- Generator: Adobe Illustrator 22.1.0, SVG Export Plug-In . SVG Version: 6.00 Build 0)  -->
<svg version="1.1" id="Слой_1" xmlns="http://www.w3.org/2000/svg" xmlns:xlink="http://www.w3.org/1999/xlink" x="0px" y="0px"
	 width="1803.8px" height="457.3px" viewBox="0 0 1803.8 457.3" style="enable-background:new 0 0 1803.8 457.3;"
	 xml:space="preserve">
<style type="text/css">
	.st0{fill:#004481;}
	.st1{fill:#E4322B;}
	.st2{fill:#0291D1;}
</style>
<g>
	<g>
		<path class="st0" d="M74.6,43.9c0.8,2.1,1.5,3.6,2,5.2c2.7,8.6,5.3,17.3,8,25.9c1.8,5.9,3.8,11.7,6.5,17.2c0.9,1.8,2,3.6,3.1,5.3
			c0.5,0.8,1.3,1.5,2.8,1c0-0.8,0.2-1.7,0.1-2.6c-0.6-6.4-1.4-12.7-2-19.1c-0.4-3.7-0.7-7.4-0.9-11.2c-0.9-13.9-1.3-27.7-1.1-41.6
			c0-0.2,0.1-0.5,0.2-1.1c5.2-3.6,10.6-7.3,16.7-10.8c0.2,1,0.4,1.7,0.5,2.3c0.1,0.7,0.1,1.4,0.1,2.2c0.3,15.1,0.5,30.2,1,45.3
			c0.2,7,0.8,14,1.3,20.9c0.1,1.3,0.2,2.7,1.8,3.6c0.4-0.5,0.9-0.8,1-1.3c0.5-2.1,1.1-4.2,1.4-6.4c0.9-6.7,1.6-13.4,2.4-20.1
			c1.2-9.9,2-19.9,4.3-29.7c1.9-8,5-15.6,8.7-23c1.2-2.5,3.1-4,5.8-4.4c3-0.5,5.9-1,8.9-1.4c0.8-0.1,1.7-0.1,2.5,0
			c1.2,0.2,2,0.9,1.9,2.2c-0.1,1.7-0.1,3.4-0.6,5c-5,15.8-7.8,32.1-11,48.3c-2.5,12.5-4.6,25.1-6.2,37.8c-0.8,6.4-1.3,12.7-1.4,19.1
			c-0.2,11.5,0.4,22.9,1,34.4c0.5,9.4,1.3,18.8,2.1,28.1c0.7,7.7,1.7,15.3,2.5,23c0.3,2.8,0.6,5.5,0.8,8.3
			c0.3,6.4,0.6,12.8,0.8,19.2c0.1,4.1-0.5,8.2-1.4,12.2c-1.4,6-5.7,12.2-10.8,15.5c-1.7-0.9-1.9-2.7-2.1-4.3c-0.4-3-0.5-6-0.8-9
			c-0.1-1.2-0.1-2.4-0.2-3.6c-0.1-0.9-0.5-1.6-1.6-1.7s-2,0.2-2.4,1.2c-0.5,1.2-0.8,2.5-0.9,3.8c-0.3,4.1-0.5,8.2-0.7,12.3
			c-0.1,1.3,0,2.6,0,4.1c-3.9,1.1-7.7,1.6-11.5,1.6c-1.8,0-2.9-1-3.5-2.6c-1.3-3.9-2.5-7.8-3.8-11.7c-0.8-2.5-1.7-5-2.6-7.5
			c-0.5-1.3-1.1-2.8-2.9-2.8c-1.2,0-2,1.4-2,3.8c0,2.6,0.3,5.3,0.6,7.9c0.3,3.5,0.7,6.9,1,10.4c0.2,2.9-0.9,5.2-3.1,6.9
			c-2.8,2.2-5.5,4.7-8.4,6.6c-4.2-2.7-8.2-5.2-12.3-7.8c-0.1,0-0.2,0.1-0.6,0.3c0.5,2.6,2,4.7,3.3,7c1.2,2.2,2.5,4.4,3.8,6.7
			c-1.3,2-3.1,3.7-4.9,5.3c-1.5,1.4-3.4,1.7-5.4,1.7c-1.8,0-3.6,0-5.8,0c0.4,0.8,0.5,1.5,0.9,1.9c0.9,0.8,1.9,1.4,2.8,2.3
			c1,1,2.1,2,2.8,3.2c1.1,2,0.4,3.5-1.8,4.2c-1.4,0.4-2.8,0.7-4.2,0.9c-3,0.4-6,0.7-9,1s-5.4-0.7-7-3.4c-1.3-2.2-3-4.1-4.4-6.2
			c-4.6-7-10.5-12.5-17.3-17.3c-2.7-2-5.4-4-8-6.2c-2.7-2.2-4.9-5-6.4-8.2c-1.8-3.7-3.5-7.4-4.5-11.4c-0.5-2,0.3-2.8,2.3-2.3
			c1.6,0.4,3.2,1.1,4.7,1.8c3.2,1.4,6.4,2.9,9.6,4.2c1.2,0.5,2.5,0.9,3.8,1.2c0.5,0.1,1.1-0.1,1.6-0.2c0.2-1.7-0.9-2.4-1.7-3.2
			c-2.6-2.6-5.2-5-7.8-7.5c-2.8-2.8-5.6-5.7-8.4-8.5c-4.4-4.2-6.5-9.5-7.3-15.4c-0.5-3.7-0.9-7.4-1.2-11.1c-0.2-1.5-0.2-3.1,0.6-4.6
			c1.3-0.2,2.1,0.7,2.9,1.3c4.3,3.5,8.5,7.1,12.9,10.6c2.6,2.1,5.4,4.1,8.1,6.1c0.9,0.6,1.8,1.3,3.1,0.5c-0.2-1.2-1-2.1-1.7-3
			c-3.4-4.1-6.8-8.2-10.1-12.3c-3.1-3.8-6.2-7.7-8.5-12.1c-2.1-3.9-3.1-8.1-3.2-12.5c-0.1-3.4,0.1-6.7,0.1-10.5c1,0.7,1.8,1,2.4,1.5
			c7.2,6.2,14.4,12.5,21.7,18.7c2,1.7,4,3.5,6.9,4.8c-0.3-1-0.4-1.5-0.6-2c-1.7-3-3.4-6.1-5.2-9.1c-4.8-7.7-9.3-15.5-13.3-23.6
			c-1-2.1-1.8-4.2-2.8-6.3c-0.7-1.6-0.7-3.3-0.2-5c1.1-3.3,2.8-6.3,5.2-9.2c3.1,3.9,6,7.8,9.1,11.5c4.4,5.3,9.2,10.2,14.7,14.4
			c1.3,1,2.8,1.8,4.8,3.1c-0.3-1.4-0.4-2.1-0.7-2.6c-2.4-4.9-4.7-9.8-7.2-14.6c-5-9.8-10.1-19.5-15.1-29c1.5-5.5,4.6-11.5,7.2-14.1
			c0.6,0.7,1.4,1.3,1.9,2c2.3,3.4,4.7,6.7,6.9,10.2c4,6.2,7.9,12.4,12.7,18.1c1.1,1.3,2.2,2.5,3.5,3.6c0.9,0.8,2,1.3,3.1,1.8
			c0.4,0.2,1.2,0,1.6-0.3c0.3-0.2,0.4-0.9,0.3-1.3c-0.5-1.5-1-3-1.7-4.4c-2.5-5.2-5-10.4-7.6-15.6c-3.4-7.1-6.6-14.2-9-21.7
			c-1-3.1-1.9-6.2-1.9-9.5c0-1.3,0-2.7,0.5-3.9c1.9-4.9,5.4-8.7,9.3-12.6c0.5,1.1,0.9,1.8,1.2,2.5c4.7,12.3,10.8,24,17.2,35.5
			c1,1.8,2.1,3.5,3.3,5.2c0.9,1.4,2,2.6,3.7,3.3c0.7-1.4,0.3-2.5,0-3.6c-1.9-6.4-3.7-12.7-5.6-19.1c-2.6-9-5.4-18-7.9-27.1
			c-1-3.6-1.5-7.3-2.2-11.1C65,51.7,68.6,46.7,74.6,43.9z"/>
		<path class="st1" d="M107.5,332.6c-11.6,0.6-24.7-9.1-27.2-23.2c-1.4-7.8-0.1-15.1,4-21.9c4.2-7.1,10.6-11.1,18.5-12.8
			c14.7-3.3,29.1,5.8,33.8,19.5c4.3,12.6-1,27.1-13,34C118.6,331.1,113.2,332.8,107.5,332.6z"/>
		<path class="st1" d="M188.9,316.8c-11.3-0.2-22.6-0.5-34-0.7c-1.4,0-2.9-0.1-4.3-0.3c-2.1-0.3-3.1-1.3-2.8-3.4
			c0.3-2.5,0.9-4.9,1.5-7.6c1.1,0,1.9-0.2,2.7-0.1c10.3,1.7,20.5,4.4,30.4,7.8c2.3,0.8,4.5,2.2,6.7,3.3
			C188.9,316.2,188.9,316.5,188.9,316.8z"/>
		<path class="st0" d="M57.1,321.4c-2.9-5.7-8.1-18.5-8.6-21.3c6,0.3,12,0.6,18.1,0.9c0.9,2.7,1.5,5.4,2,8.1
			c0.5,3.1-0.6,5.4-3.1,7.2c-1.5,1-3,2-4.6,2.9C59.8,320,58.6,320.6,57.1,321.4z"/>
		<path class="st1" d="M170.8,358.4c-11.5-8.3-23-16.5-34.5-24.8c-0.3-0.2-0.4-0.6-0.6-1c1.5-2.5,3.6-4.4,5.9-6.2
			c0.8-0.6,1.6-0.5,2.3,0.1c0.5,0.4,0.9,0.8,1.3,1.2c8.4,9.6,16.8,19.2,25.2,28.9c0.3,0.4,0.5,0.8,0.8,1.2
			C171,358,170.9,358.2,170.8,358.4z"/>
		<path class="st1" d="M158.5,250.5c-4.1,7.9-9,15.3-14.3,22.5c-0.8,1.1-1.5,2.5-3.1,3.1c-2.2-1.1-3.9-2.7-5-4.9
			c-0.6-1.2-0.6-2.3,0.3-3.3c0.5-0.5,1-1.1,1.5-1.6c6-5.1,12-10.1,18-15.1c0.6-0.5,1.4-0.8,2.1-1.3
			C158.1,250.1,158.3,250.3,158.5,250.5z"/>
		<path class="st0" d="M79.1,343.4c-1.5,0-2.5-0.8-3.4-1.5c-6.3-5.3-11.8-11.3-18.1-17.2c1-0.2,1.5-0.4,2-0.4c2.5,0,5.1,0.1,7.6,0.2
			c1.8,0.1,3.3,0.8,4.5,2c3.2,3.2,5.8,6.7,8.2,10.5C81.3,339.3,81.1,340.2,79.1,343.4z"/>
		<path class="st1" d="M187.1,275.3c-2.2,1.2-4.3,2.6-6.6,3.6c-8.8,3.8-17.7,7.5-26.6,11.2c-0.6,0.2-1.2,0.3-1.7,0.6
			c-2,1.1-3.3,0.3-4.2-1.9c-0.6-1.5-0.2-2.5,1.4-3.1c1.8-0.7,3.6-1.3,5.5-1.9c8.9-2.6,17.8-5.3,26.7-7.8c1.7-0.5,3.5-0.8,5.3-1.1
			C186.9,274.9,187,275.1,187.1,275.3z"/>
		<path class="st0" d="M86.6,348.9c1.2-1.3,1.9-2.2,2.8-3c1.8-1.7,2.4-1.6,4.8-0.6c1.9,0.8,3.9,1.2,5.8,1.7c1,0.3,2.1,0.3,3.1,0.7
			c1.3,0.4,1.8,1.4,1.6,2.9c-0.1,1.1-0.7,1.8-1.8,1.9c-0.5,0-1,0-1.4-0.1c-4.1-0.8-8.2-1.6-12.3-2.4
			C88.5,349.9,87.8,349.5,86.6,348.9z"/>
		<path class="st1" d="M110.5,372.8c-1.5-5.3-2.2-10.6-2.5-16c0-0.4,0-0.7,0.1-1.1c0.1-0.7,0.3-1.4,1.3-1.4c0.9,0,1.3,0.7,1.4,1.4
			c0.2,1.7,0.3,3.3,0.3,5C110.8,364.8,110.6,368.8,110.5,372.8z"/>
		<path class="st1" d="M75.3,363.3c0.4-3.8,2.8-10.8,4.2-12.8c0.1-0.2,0.3-0.4,0.5-0.6c0.5-0.6,1.1-1,1.9-0.7
			c0.8,0.4,0.8,1.1,0.7,1.8c-0.1,0.6-0.3,1.2-0.6,1.7c-1.7,3-3.4,6.1-5.2,9.1C76.5,362.3,76.1,362.6,75.3,363.3z"/>
	</g>
	<g>
		<path class="st1" d="M405,360.6h-40.3l-10.6-24.7h-56.6l-10.8,24.7h-40.3L304,238.8h43.4L405,360.6z M345.1,314.7L326,270.2
			l-19.3,44.5H345.1z"/>
		<path class="st1" d="M466.2,360.6h-39.3V238.8h39.3V360.6z"/>
		<path class="st1" d="M629.8,360.6h-42.2L577.3,339c-3.8-7.9-7.1-13.7-10.2-17.4c-3-3.7-5.9-6-8.8-7c-2.9-1-6.5-1.5-11.1-1.5h-4.4
			v47.5h-39.2V238.8h66.9c10.8,0,19.6,2.1,26.5,6.2s11.9,9.1,14.9,14.9c3,5.9,4.6,11.4,4.6,16.7c0,6.2-1.3,11.4-3.8,15.6
			s-5.2,7.3-8,9.3s-6,3.8-9.5,5.5c4.2,2.3,7.7,5,10.4,8.1s6.4,9.5,11.1,19L629.8,360.6z M576.3,277.2c0-5.6-2-9.5-5.9-11.8
			c-3.9-2.2-10.4-3.3-19.3-3.3h-8.3v29.4h8.5c9.6,0,16.2-1,19.7-2.9C574.6,286.6,576.3,282.8,576.3,277.2z"/>
		<path class="st2" d="M855.2,360.6h-35l-67.6-67.9v67.9h-38.9V238.8h34.9l67.4,67.5v-67.5h39.2L855.2,360.6L855.2,360.6z"/>
		<path class="st2" d="M1031.8,299.6c0,11.4-2.8,21.8-8.4,31.4s-14,17.1-25.1,22.8c-11.1,5.6-24.6,8.4-40.5,8.4
			c-16.1,0-29.8-2.9-40.9-8.8c-11.2-5.9-19.5-13.6-24.9-23.1s-8.1-19.8-8.1-30.7c0-11,2.7-21.2,8.1-30.7c5.4-9.5,13.7-17.2,24.9-23
			s24.8-8.7,41-8.7c12,0,22.8,1.7,32.2,5c9.4,3.3,17.2,7.9,23.3,13.6c6.1,5.7,10.7,12.4,13.8,20
			C1030.3,283.2,1031.8,291.2,1031.8,299.6z M991.8,299.6c0-4.6-0.7-8.7-2.2-12.5c-1.4-3.8-3.6-7.1-6.5-9.8c-2.9-2.8-6.5-5-10.7-6.5
			c-4.2-1.6-9.1-2.3-14.6-2.3c-10.5,0-18.8,2.9-24.8,8.6s-9,13.3-9,22.6s3,16.9,9.1,22.6c6,5.8,14.3,8.7,24.8,8.7
			c7.2,0,13.4-1.3,18.4-4c5.1-2.7,8.9-6.4,11.6-11.1C990.4,311.1,991.8,305.7,991.8,299.6z"/>
		<path class="st2" d="M1151.8,325.1c0,7.6-2.1,14.2-6.3,19.8c-4.2,5.6-10,9.8-17.4,12.8c-7.5,3-16,4.4-25.7,4.4
			c-2.7,0-6-0.2-9.9-0.5s-9.1-1.2-15.6-2.7s-13.2-3.6-20.3-6.5v-29.9c6.6,3.8,13.1,7,19.4,9.5c6.4,2.5,13.2,3.8,20.5,3.8
			c6.7,0,11.1-1,13-3.1c2-2.1,3-4,3-5.8c0-3.3-1.7-6-5.1-8.3s-8.3-4.6-14.8-7c-7.1-2.8-13.4-5.9-18.8-9.2
			c-5.4-3.3-9.8-7.5-13.2-12.4c-3.4-5-5.1-10.9-5.1-17.7c0-6.6,1.7-12.5,5.2-17.8c3.4-5.3,8.7-9.5,15.8-12.7
			c7.1-3.2,15.7-4.7,26-4.7c7.3,0,14,0.7,20.2,2s11.3,2.8,15.3,4.4s6.8,2.9,8.3,3.9V276c-5.3-3.6-11.3-6.8-17.8-9.6
			c-6.6-2.8-13.6-4.2-21-4.2c-4.9,0-8.4,0.9-10.6,2.6c-2.2,1.8-3.3,3.9-3.3,6.5c0,2.4,1.1,4.5,3.3,6.2c2.2,1.8,6.1,3.9,11.8,6.4
			c10,4.4,18.1,8.3,24.1,11.9c6,3.5,10.7,7.6,14.2,12.2C1150.1,312.6,1151.8,318.3,1151.8,325.1z"/>
		<path class="st2" d="M1308,268.4h-47.8v92.2H1221v-92.2h-47.8v-29.6H1308V268.4z"/>
		<path class="st2" d="M1461.5,360.6h-42.2L1409,339c-3.8-7.9-7.1-13.7-10.2-17.4c-3-3.7-5.9-6-8.8-7s-6.5-1.5-11-1.5h-4.4v47.5
			h-39.3V238.8h66.9c10.8,0,19.6,2.1,26.5,6.2s11.9,9.1,14.9,14.9c3,5.9,4.6,11.4,4.6,16.7c0,6.2-1.3,11.4-3.8,15.6s-5.2,7.3-8,9.3
			s-6,3.8-9.5,5.5c4.2,2.3,7.7,5,10.4,8.1c2.7,3.1,6.4,9.5,11.1,19L1461.5,360.6z M1408.1,277.2c0-5.6-2-9.5-5.9-11.8
			c-4-2.2-10.4-3.3-19.3-3.3h-8.3v29.4h8.5c9.6,0,16.2-1,19.7-2.9C1406.3,286.6,1408.1,282.8,1408.1,277.2z"/>
		<path class="st2" d="M1616.9,306c0,10.4-2.1,19.3-6.3,26.7c-4.2,7.4-9.7,13.2-16.6,17.4c-6.9,4.3-14.3,7.4-22.2,9.2
			c-7.9,1.9-15.8,2.8-23.7,2.8c-11,0-21.8-1.8-32.2-5.3c-10.4-3.5-19.2-9.5-26.2-17.9s-10.5-19.4-10.5-33v-67.2h39.2v57.7
			c0,8,1.2,14.7,3.7,19.9c2.5,5.2,5.9,9.1,10.3,11.5s9.6,3.6,15.7,3.6c5.8,0,10.9-1.2,15.3-3.6c4.5-2.4,7.9-6.2,10.4-11.4
			c2.5-5.2,3.7-11.8,3.7-19.9v-57.9h39.3L1616.9,306L1616.9,306z"/>
		<path class="st2" d="M1803.8,360.6h-39.3V290l-35.5,40.9h-3.1l-35.5-40.9v70.6h-38.2V238.8h35.6l40.1,45.7l40.2-45.7h35.6v121.8
			H1803.8z"/>
	</g>
	<g>
		<path class="st2" d="M709.2,410.3v39.4h22.5v7h-31.5v-46.4H709.2z"/>
		<path class="st2" d="M797.3,410.3v46.4h-9v-46.4H797.3z"/>
		<path class="st2" d="M865.9,410.3l27.6,32.4v-32.4h8.8v46.4h-7.7l-27.7-32.9v32.9h-8.8v-46.4H865.9z"/>
		<path class="st2" d="M992.7,410.3v7h-21v12.2h20.1v7h-20.1v13.2h21.5v7h-30.4v-46.4L992.7,410.3L992.7,410.3z"/>
		<path class="st2" d="M1075.4,410.3l20.5,46.4h-9.5l-4.8-11.3H1061l-4.5,11.3h-9.4l19.1-46.4H1075.4z M1063.7,438.6h15l-7.8-18.4
			L1063.7,438.6z"/>
		<path class="st2" d="M1165.1,409.7c4.5,0,8.9,1.1,13,3.4v8c-4.8-2.9-9.1-4.3-12.8-4.3c-2.3,0-4,0.4-5.3,1.3s-1.9,2-1.9,3.5
			c0,1.7,1.2,3.4,3.6,4.8c0.7,0.4,3.2,1.7,7.7,3.7c3.8,1.8,6.6,3.8,8.2,6c1.7,2.2,2.5,4.8,2.5,7.9c0,4-1.4,7.2-4.3,9.6
			s-6.6,3.7-11.1,3.7c-3,0-5.5-0.3-7.7-1c-2.1-0.7-4.5-1.8-7.2-3.4v-8.8c5,4.1,9.6,6.2,14,6.2c2.2,0,4-0.5,5.3-1.4
			c1.3-1,2-2.2,2-3.8c0-2.1-1.2-3.9-3.5-5.2c-1.9-1.1-4.5-2.3-7.5-3.8c-3.7-1.7-6.4-3.6-8.2-5.8c-1.8-2.2-2.7-4.8-2.7-7.7
			c0-3.9,1.4-7,4.3-9.3C1156.5,410.8,1160.3,409.7,1165.1,409.7z"/>
		<path class="st2" d="M1326.9,410.3l20.5,46.4h-9.5l-4.8-11.3h-20.6l-4.5,11.3h-9.4l19.1-46.4H1326.9z M1315.2,438.6h15l-7.8-18.4
			L1315.2,438.6z"/>
		<path class="st2" d="M1433.2,410.3v7h-21v12.2h20.1v7h-20.1v13.2h21.5v7h-30.4v-46.4L1433.2,410.3L1433.2,410.3z"/>
		<path class="st2" d="M1509,410.3c4.4,0,7.9,1.2,10.7,3.6c2.7,2.4,4.1,5.6,4.1,9.4c0,2.6-0.7,4.9-2,6.9s-3.4,3.5-6.1,4.6
			c1.5,0.8,2.8,1.9,4,3.3s2.6,3.7,4.3,6.9c2.8,5.6,4.9,9.5,6.3,11.6h-10c-0.7-1-1.6-2.6-2.8-4.9c-2.6-4.9-4.4-8.3-5.6-10
			s-2.3-2.9-3.5-3.7c-1.1-0.7-2.4-1.1-3.8-1.1h-3.3v19.6h-9v-46.4h16.7V410.3z M1507,430.1c2.3,0,4.2-0.6,5.5-1.8
			c1.3-1.2,2-2.8,2-4.8c0-2.1-0.7-3.7-2-4.8c-1.3-1.1-3.2-1.6-5.7-1.6h-5.6V430L1507,430.1L1507,430.1z"/>
		<path class="st2" d="M1616.4,410.3v7h-21v12.2h20.1v7h-20.1v13.2h21.5v7h-30.4v-46.4L1616.4,410.3L1616.4,410.3z"/>
		<path class="st2" d="M1699.1,410.3l20.5,46.4h-9.5l-4.8-11.3h-20.6l-4.5,11.3h-9.4l19.1-46.4H1699.1z M1687.4,438.6h15l-7.8-18.4
			L1687.4,438.6z"/>
		<path class="st2" d="M1788.8,409.7c4.5,0,8.9,1.1,13,3.4v8c-4.8-2.9-9.1-4.3-12.8-4.3c-2.3,0-4,0.4-5.3,1.3s-1.9,2-1.9,3.5
			c0,1.7,1.2,3.4,3.6,4.8c0.7,0.4,3.2,1.7,7.7,3.7c3.8,1.8,6.6,3.8,8.2,6c1.7,2.2,2.5,4.8,2.5,7.9c0,4-1.4,7.2-4.3,9.6
			s-6.6,3.7-11.1,3.7c-3,0-5.5-0.3-7.7-1c-2.1-0.7-4.5-1.8-7.2-3.4v-8.8c5,4.1,9.6,6.2,14,6.2c2.2,0,4-0.5,5.3-1.4
			c1.3-1,2-2.2,2-3.8c0-2.1-1.2-3.9-3.5-5.2c-1.9-1.1-4.5-2.3-7.5-3.8c-3.7-1.7-6.4-3.6-8.2-5.8c-1.8-2.2-2.7-4.8-2.7-7.7
			c0-3.9,1.4-7,4.3-9.3C1780.2,410.8,1784,409.7,1788.8,409.7z"/>
	</g>
</g>
</svg>
