<?xml version="1.0" encoding="utf-8"?>
<!-- Generator: Adobe Illustrator 22.1.0, SVG Export Plug-In . SVG Version: 6.00 Build 0)  -->
<svg version="1.1" id="Слой_1" xmlns="http://www.w3.org/2000/svg" xmlns:xlink="http://www.w3.org/1999/xlink" x="0px" y="0px"
	 viewBox="0 0 221 107.7" style="enable-background:new 0 0 221 107.7;" xml:space="preserve">
<style type="text/css">
	.st0{fill:#193056;}
	.st1{fill:#182F55;}
	.st2{fill:#1B3156;}
	.st3{fill:#E23D44;}
	.st4{fill:#ADB4BA;}
</style>
<g>
	<path class="st0" d="M153.1,52.3c1.1,0.6,2,1.1,2.7,2c1.6,1.9,1.9,4.2,1.6,6.5c-0.5,3.3-2.7,5-5.7,5.9c-1,0.3-2.1,0.5-3.2,0.5
		c-3.2,0-6.4,0-9.6,0c-0.2-0.4-0.1-0.8-0.1-1.1c0-7,0-14,0-21c0-0.6,0-1.3-0.2-1.9c-0.2-0.8-0.5-1.1-1.3-1.1
		c-0.6-0.1-1.2-0.1-1.8-0.1c-0.3-0.4-0.1-0.8-0.1-1.2s-0.1-0.8,0.1-1.2c0.1,0,0.2-0.1,0.3-0.1c4,0,7.9,0,11.9,0.1
		c1.7,0,3.4,0.3,5,1.1c2.2,1.2,3.4,2.9,3.5,5.4C156.2,49,155.1,50.9,153.1,52.3z M144,54.2c0,3,0,5.8,0,8.6c0,0.3,0,0.6,0.2,0.9
		c1.3,0.4,2.7,0.4,4,0.1c1.7-0.4,3.1-1.1,3.6-2.9c0.2-0.7,0.2-1.5,0.1-2.3c0-2-1.3-3.6-3.5-4.1C147,54.2,145.6,54.2,144,54.2z
		 M144.3,42.8c-0.4,1.2-0.4,7.2-0.1,8.2c0.8,0.1,1.7,0,2.5,0c2.6-0.1,4.4-1.6,4.1-4.7c-0.2-1.9-1-2.8-2.9-3.3
		C146.6,42.6,145.5,42.7,144.3,42.8z"/>
	<path class="st1" d="M47.1,53.6c2.7,4.6,5.3,9,8,13.5c-2,0-3.9,0-5.9,0c-2.6-4.3-5.2-8.7-7.8-13.1c-0.4,1.5-0.3,2.9-0.3,4.4
		c0,1.4,0,2.9,0,4.3c0,1.5,0,2.9,0,4.5c-1.7,0-3.3,0-5,0C35.9,66.8,36,66.4,36,66c0-6.9,0-13.8,0-20.6c0-0.7-0.1-1.4-0.2-2.1
		c-0.1-0.8-0.5-1.1-1.3-1.2C33.9,42,33.3,42,32.8,42c-0.4-0.4-0.2-0.8-0.2-1.2s0-0.8,0-1.1c0.3-0.3,0.6-0.2,0.9-0.2
		c3.5,0,7,0,10.4,0c1.6,0,3.3,0.2,4.8,0.7c1,0.3,1.9,0.8,2.7,1.5c1.2,1.1,1.9,2.4,2,4.1c0,1.5,0,3-0.8,4.3c-0.9,1.5-2.1,2.6-3.8,3.1
		C48.2,53.3,47.7,53.4,47.1,53.6z M41.4,42.8c-0.3,1-0.4,6.3-0.1,7.9c0.6,0,1.2,0,1.7,0c1,0,2-0.2,2.9-0.6c1.5-0.7,2.3-2.1,2.2-4
		c-0.1-1.4-1-2.5-2.5-3C44.2,42.6,42.8,42.7,41.4,42.8z"/>
	<path class="st2" d="M58.9,41.9c0-0.8,0-1.6,0-2.3c0.9-0.2,15.5-0.3,19.4-0.1c0.2,2.9,0.4,5.9,0.6,8.9c-0.8,0.2-1.5,0.1-2.3,0.1
		c-0.2-1.2-0.4-2.3-0.6-3.4c-0.4-1.5-1.2-2.3-2.7-2.3c-1.8-0.1-3.7,0-5.5,0c-0.3,0.4-0.4,0.8-0.4,1.2c0,2.4,0,4.7,0,7.2
		c1.5-0.1,3.1,0.2,4.6-0.2c0.7-0.2,1.1-0.6,1.2-1.3c0-0.6,0.1-1.1,0.1-1.7c0.8-0.2,1.6-0.1,2.3-0.1c0.2,0.9,0.3,7.8,0.1,9.7
		c-0.8,0-1.6,0-2.4,0c0-0.5,0-1-0.1-1.4c-0.1-1-0.5-1.5-1.6-1.7c-1.4-0.3-2.8-0.2-4.3-0.1c0,3.2-0.1,6.3,0.1,9.3
		c0.4,0.4,0.7,0.5,1.1,0.4c1.7,0,3.4,0.1,5.1-0.1c1.4-0.2,2.2-0.9,2.6-2.2c0.1-0.4,0.2-0.8,0.3-1.3c0.8,0,1.6,0,2.5,0
		c-0.1,2.2-0.2,4.4-0.3,6.7c-0.9,0.3-12.2,0.4-16.5,0.1c-0.3-0.4-0.1-0.8-0.1-1.3c0-7.1,0-14.2,0-21.4c0-0.4,0-0.8,0-1.2
		c-0.1-0.9-0.5-1.3-1.4-1.4C60.2,41.9,59.6,41.9,58.9,41.9z"/>
	<path class="st0" d="M106.6,41.9c-0.1-0.8-0.1-1.6,0-2.4c2.9,0,5.7,0,8.4,0c0.2,0.3,0.1,0.7,0.1,1c0,5.7,0,11.4,0,17.2
		c0,1.3,0.1,2.6,0.6,3.9c0.7,1.8,2.1,2.8,4,2.9c0.6,0,1.2,0,1.8,0c2.4-0.2,4-1.6,4.3-4c0.2-1.2,0.3-2.4,0.2-3.6c0-5.4,0-10.7,0-16.1
		c0-0.4,0-0.8,0-1.2c1.3,0,2.5,0,3.7,0c0.2,0.2,0.2,0.4,0.2,0.6c0,6.4,0,12.8,0,19.2c0,1.6-0.3,3.1-1,4.5c-0.9,1.8-2.5,2.9-4.4,3.4
		c-2,0.6-4.1,0.6-6.2,0.4c-1.5-0.1-3-0.4-4.4-1.2c-2.1-1.1-3.2-2.8-3.7-5c-0.2-1.1-0.3-2.3-0.3-3.5c0-4.4,0-8.8,0-13.2
		c0-0.6,0-1.1-0.2-1.7c-0.1-0.7-0.6-1-1.2-1.1C107.9,42,107.3,41.9,106.6,41.9z"/>
	<path class="st2" d="M91.4,54.7c0,4.2,0,8.2,0,12.4c-0.9,0.3-1.8,0.1-2.6,0.1c-0.8,0-1.7,0-2.6,0c0-0.5,0-0.8,0-1.2
		c0-7.1,0-14.2,0-21.4c0-0.5,0-1-0.1-1.5c-0.2-0.7-0.6-1-1.2-1.1c-0.6,0-1.3-0.1-1.9-0.1c-0.1-0.8-0.1-1.6,0-2.3
		c0.2-0.2,0.4-0.2,0.5-0.2c4,0,8.1,0,12.1,0.1c1.3,0,2.6,0.2,3.9,0.6c2.5,0.8,4,2.4,4.5,4.9c0.3,1.3,0.3,2.7,0,4
		c-0.5,2.4-2,3.9-4.1,4.8c-1.7,0.7-3.5,0.8-5.3,0.9C93.5,54.7,92.5,54.7,91.4,54.7z M91.5,42.8c-0.2,2.9-0.1,5.7-0.1,8.6
		c1,0,2,0,2.9,0c0.6,0,1.1-0.1,1.6-0.2c1.2-0.3,2.1-0.9,2.5-2.2c0.2-0.8,0.3-1.6,0.2-2.5c-0.2-2.2-1.2-3.4-3.2-3.7
		C94.2,42.6,93,42.7,91.5,42.8z"/>
	<path class="st1" d="M220.7,63c0,1,0,2.1,0,3.2c-0.1,0.3-0.5,0.4-0.8,0.5c-3.2,1-6.5,1.4-9.8,0.8c-4.2-0.8-6.9-3.4-8.5-7.3
		c-0.9-2.4-1.3-4.9-1.2-7.5c0-2.2,0.1-4.3,0.8-6.4c1.3-4.3,4.5-6.7,8.8-7c3.3-0.3,6.6,0.1,9.8,1c0.1,0,0.3,0.1,0.5,0.2
		c0.1,1.5,0.2,2.9,0.3,4.4c0,1.4,0.3,2.8,0.2,4.4c-0.7,0-1.5,0-2.3,0c-0.2-0.3-0.2-0.8-0.3-1.2c-0.4-2.1-1.2-3.9-3.1-5
		c-3.1-1.8-6.8-0.5-8.1,2.8c-0.6,1.4-0.7,2.8-0.8,4.2c-0.2,2.9-0.1,5.8,0.8,8.6c1.2,3.7,4.2,5.6,7.7,5.6c1.7,0,3.4-0.3,5-0.9
		C219.9,63.1,220.2,62.8,220.7,63z"/>
	<path class="st2" d="M165,67.1c0-0.4,0-0.8,0-1.2c0-7.1,0-14.2,0-21.4c0-0.5,0-1-0.1-1.4c-0.1-0.7-0.5-1-1.2-1.1s-1.3-0.1-2.1-0.1
		c0-0.8,0-1.6,0-2.4c2.8,0,5.6,0,8.5,0c0.2,0.4,0.1,0.8,0.1,1.3c0,7,0,14,0,21c0,0.7,0.1,1.4,0.2,2c0.3,0.3,0.6,0.2,0.9,0.2
		c1.5,0.1,3,0.1,4.4,0c1.3-0.1,2.1-0.7,2.4-2c0.3-1.2,0.6-2.3,0.8-3.5c1-0.3,1-0.3,2.1-0.1c-0.1,2.9-0.1,5.8-0.4,8.7
		C179.9,67.3,166.4,67.3,165,67.1z"/>
	<path class="st1" d="M192.7,39.5c0,9.3,0,18.4,0,27.7c-1.7,0-3.3,0-5.1,0c0-0.4,0-0.8,0-1.2c0-7,0-14,0-21c0-0.6,0-1.2-0.2-1.8
		c-0.2-0.8-0.5-1.1-1.3-1.1c-0.6-0.1-1.3-0.1-1.9-0.1c-0.1-0.8-0.1-1.5,0-2.3C185.2,39.4,189.9,39.3,192.7,39.5z"/>
</g>
<g>
	<path class="st3" d="M164.3,82.5c2.1-0.5,3.5-2,3.5-4.2c0-1.6-0.6-2.8-2-3.6c-0.3-0.2-0.6-0.3-1-0.4c-0.8-0.2-1.7-0.3-2.8-0.4
		c-1.5,0-3,0-4.5,0h-1.4c-0.1,0-0.2,0-0.3,0h-0.6v1.7h0.8c0.2,0,0.3,0,0.5,0c0.5,0,0.6,0.2,0.7,0.6c0,0.3,0.1,0.5,0.1,0.8v12.4
		c0,0.1,0,0.2,0,0.3v0.7h3.3v-7.7c0,0,0.1,0.1,0.1,0.2l3.4,5.8l1.1,1.7h3.8l-4.8-8.1C164.2,82.5,164.2,82.5,164.3,82.5z M160.6,76.8
		c0-0.1,0-0.3,0-0.4s0-0.2,0-0.2s0,0,0.1,0c1.1-0.1,1.9,0,2.6,0.3c0.7,0.3,1,0.8,1,1.6c0,0.6-0.1,1.1-0.4,1.4
		c-0.3,0.5-0.8,0.7-1.5,0.9c-0.6,0.1-1.3,0.2-1.9,0.2C160.6,79.4,160.6,78.1,160.6,76.8z"/>
	<path class="st3" d="M204,84.7l-6.1-10.6h-0.3c-0.6-0.1-4.2-0.1-4.6,0l-0.4,0.1v1.5h0.8c0.2,0,0.3,0,0.5,0c0.5,0,0.6,0.2,0.7,0.6
		c0,0.3,0.1,0.6,0.1,0.8c0,3.4,0,6.9,0,10.3v3.1h0.5c0.2,0,0.4,0,0.6,0c0.4,0,0.7,0,1,0h0.5V79.1l6.6,11.5h2.7V74H204V84.7z"/>
	<path class="st3" d="M219.4,86.3l-0.3,0.9c-0.2,0.7-0.6,1-1.3,1.1c-0.1,0-0.2,0-0.3,0c-0.7,0-1.4,0-2.1,0c-0.4,0-0.7,0-1.1,0
		c-0.1,0-0.1,0-0.1-0.1c0-0.2-0.1-0.4-0.1-0.7c0-1.6,0-3.1,0-4.7c0.3,0,0.7,0,1,0h0.2c0.4,0,0.8,0,1.2,0.1c0.5,0.1,0.7,0.3,0.8,0.8
		l0.1,1h1.6v-6h-1.6l-0.1,1.1c-0.1,0.5-0.2,0.7-0.7,0.7c-0.7,0-1.3,0-2,0h-0.4v-0.6c0-1.1,0-2.3,0-3.4c0-0.2,0-0.3,0.1-0.5
		c0-0.1,0-0.2,0-0.2h0.1h0.3c0.9,0,1.8,0,2.6,0c0.9,0,1.3,0.4,1.5,1.3c0,0.1,0,0.2,0.1,0.3l0.3,1.8h1.6l-0.3-5.6h-11.7v1.7h0.7
		c0.2,0,0.3,0,0.5,0c0.5,0,0.7,0.2,0.7,0.7c0,0.3,0.1,0.6,0.1,0.9v13.2h10l0.2-4.3h-1.6V86.3z"/>
	<path class="st3" d="M134.2,73.8v1.7l0.8,0.1c0.2,0,0.3,0,0.5,0c0.1,0,0.1,0,0.2,0c0,0,0,0.1-0.1,0.2l-5.7,14.9h2.8l1.8-5h4.9
		l1.9,5h3.6l-6.4-16.9H134.2z M136.6,79.7l0.3-0.8l1.6,4.5h-3.3C135.7,82.1,136.2,80.9,136.6,79.7z"/>
	<path class="st3" d="M181,85.1l-0.3,1.3c-0.1,0.4-0.2,0.8-0.3,1.2c-0.1,0.4-0.4,0.7-1,0.8c-0.1,0-0.2,0-0.3,0c-0.6,0-1.3,0-1.9,0
		h-0.5c-0.1,0-0.2,0-0.3,0c-0.2,0-0.3,0-0.3,0s0-0.1,0-0.2c0-0.2,0-0.5,0-0.7V74.2l-0.4-0.1c-0.5-0.1-4.1-0.1-4.5,0l-0.4,0.1v1.5
		h0.7c0.2,0,0.3,0,0.5,0c0.5,0,0.6,0.2,0.7,0.6c0,0.2,0,0.5,0,0.8v13.4h0.5c0.2,0,2.2,0,4.2,0c2.1,0,4.3,0,4.5-0.1l0.4-0.1v-0.4
		c0-0.7,0.1-1.3,0.1-2c0-0.8,0.1-1.6,0.1-2.5v-0.5L181,85.1z"/>
	<path class="st3" d="M147.1,74l-0.4,0.1v1.5h0.7c0.2,0,0.3,0,0.5,0c0.5,0,0.6,0.2,0.7,0.6c0.1,0.3,0.1,0.6,0.1,0.9v13.2l0.4,0.1
		c0.2,0,0.7,0.1,1.2,0.1s1.1,0,1.3-0.1l0.4-0.1V74h-0.5C151,73.9,147.6,73.9,147.1,74z"/>
	<path class="st3" d="M189.2,74h-5.1v1.7h0.8c0.2,0,0.3,0,0.5,0c0.5,0,0.6,0.2,0.7,0.7c0,0.3,0.1,0.6,0.1,0.9c0,3.4,0,6.8,0,10.2
		v3.1h3.2l0.1-0.5c0-0.1,0.1-15.2-0.1-15.8L189.2,74z"/>
</g>
<g>
	<polygon class="st4" points="89.1,11.6 90.9,18.4 97.9,18 92,21.9 94.5,28.4 89.1,24 83.6,28.4 86.1,21.9 80.2,18 87.2,18.4 	"/>
	<polygon class="st4" points="56.7,0 58.5,6.8 65.5,6.4 59.6,10.3 62.1,16.8 56.7,12.4 51.2,16.8 53.7,10.3 47.8,6.4 54.8,6.8 	"/>
	<polygon class="st4" points="23,11.6 24.8,18.3 31.8,18 25.9,21.8 28.4,28.4 23,24 17.5,28.4 20,21.8 14.1,18 21.1,18.3 	"/>
	<polygon class="st4" points="8.9,44.9 10.7,51.7 17.7,51.3 11.8,55.2 14.3,61.7 8.9,57.3 3.4,61.7 5.9,55.2 0,51.3 7,51.7 	"/>
	<polygon class="st4" points="23.3,77.3 25.1,84.1 32.1,83.7 26.2,87.6 28.7,94.1 23.3,89.7 17.8,94.1 20.3,87.6 14.4,83.7 
		21.4,84.1 	"/>
	<polygon class="st4" points="56.7,90.9 58.5,97.7 65.5,97.3 59.6,101.2 62.1,107.7 56.7,103.3 51.2,107.7 53.7,101.2 47.8,97.3 
		54.8,97.7 	"/>
	<polygon class="st4" points="89.2,77.3 91,84.1 98,83.7 92.1,87.6 94.6,94.1 89.2,89.7 83.7,94.1 86.2,87.6 80.3,83.7 87.3,84.1 	
		"/>
</g>
</svg>
