<?xml version="1.0" encoding="utf-8"?>
<!-- Generator: Adobe Illustrator 18.0.0, SVG Export Plug-In . SVG Version: 6.00 Build 0)  -->
<!DOCTYPE svg PUBLIC "-//W3C//DTD SVG 1.1//EN" "http://www.w3.org/Graphics/SVG/1.1/DTD/svg11.dtd">
<svg version="1.1" id="Layer_1" xmlns="http://www.w3.org/2000/svg" xmlns:xlink="http://www.w3.org/1999/xlink" x="0px" y="0px"
	 viewBox="0 0 394.3 78" enable-background="new 0 0 394.3 78" xml:space="preserve">
<path fill="#731472" d="M39.4,17.1l-16.8,30l16.8,29.8c0,0.1,0.1,0.1,0.2,0l16.8-29.8l-16.8-30C39.5,17.1,39.5,17.1,39.4,17.1"/>
<path fill="#731472" d="M10.8,5.4c0-3-2.4-5.4-5.4-5.4C2.4,0,0,2.4,0,5.4c0,3,2.4,5.4,5.4,5.4C8.4,10.8,10.8,8.4,10.8,5.4"/>
<path fill="#731472" d="M39.5,11c3,0,5.4-2.4,5.4-5.4c0-3-2.4-5.4-5.4-5.4c-3,0-5.4,2.4-5.4,5.4C34.1,8.6,36.5,11,39.5,11"/>
<path fill="#731472" d="M204.8,57.7c0-11.4-7.8-20.4-19.5-20.4c-11.7,0-19.5,9-19.5,20.4c0,11.4,7.8,20.3,19.5,20.3
	C197,78,204.8,69,204.8,57.7 M176,55.9c0-5.2,2.2-12.9,8.6-12.9c7.1,0,9.7,9.6,9.7,15.3c0,5.1-2.3,12.7-8.6,12.7
	C178.7,71,176,61.5,176,55.9"/>
<path fill="#731472" d="M73.6,0.1c-3,0-5.4,2.4-5.4,5.4c0,3,2.4,5.4,5.4,5.4c3,0,5.4-2.4,5.4-5.4C79,2.5,76.6,0.1,73.6,0.1"/>
<path fill="#731472" d="M74.6,14.6L56.4,47v29.4c0,0.1,0.1,0.2,0.2,0.2h17.9c0.1,0,0.2-0.1,0.2-0.2L74.6,14.6
	C74.7,14.5,74.7,14.5,74.6,14.6"/>
<path fill="#731472" d="M105.8,76.7h6.2c0.5,0,0.9-0.4,0.9-0.9V42.2L128.3,76c0.2,0.7,1,0.9,1.7,0.9c0.7,0,1.4-0.3,1.6-0.9
	l16.7-36.6v36.4c0,0.5,0.5,0.9,1,0.9h8.5c0.5,0,0.9-0.4,0.9-0.9V25.4c0-0.7-0.4-1.2-1.2-1.2h-9.3c-0.4,0-0.8,0.1-0.9,0.5l-15.9,34.9
	l-16.1-34.9c-0.2-0.4-0.5-0.5-0.9-0.5h-8.9c-0.5,0-0.9,0.4-0.9,0.9v50.7C104.8,76.3,105.3,76.7,105.8,76.7"/>
<path fill="#731472" d="M297.4,76.7h8c0.5,0,0.9-0.4,0.9-0.9V46.3c0-2.6,1.6-3.4,4.2-3.4c3.4,0,4.8,1.4,7.5,3.5
	c0.3,0.2,0.7,0.3,1,0.3c0.3,0,0.5-0.2,0.7-0.5l3.2-4.6c0.2-0.4,0.4-0.7,0.4-1c0-0.3-0.1-0.5-0.5-0.8c-2.6-2-7.2-2.6-12.3-2.6
	c-9.4,0-14.2,1.9-14.2,9.1v29.4C296.4,76.3,296.8,76.7,297.4,76.7"/>
<path fill="#731472" d="M228.4,37.3c-13.2,0-16.6,3.3-16.6,12.8v25.7c0,0.5,0.5,0.9,1,0.9h8c0.5,0,0.9-0.4,0.9-0.9V50.1
	c0-5.2,1.6-7.1,6.7-7.1c4.2,0,7.1,2,7.1,7.1v25.7c0,0.5,0.5,0.9,1,0.9h8c0.5,0,0.9-0.4,0.9-0.9V50.1
	C245.4,39.2,237.1,37.3,228.4,37.3"/>
<path fill="#731472" d="M342.9,78c4.5,0,9.9-2.1,12.8-6.1c0.4-0.5,0.9-1.2,0.9-1.8c0-0.3-0.1-0.5-0.3-0.7l-2.2-2.8
	c0-0.2-0.3-0.3-0.5-0.3c-0.2,0-0.3,0.1-0.5,0.3c-2,1.9-4.5,4.1-8.5,4.1c-6,0-10.8-6-10.8-14.1c0-6.9,2-13.7,9.2-13.7
	c3.7,0,5.6,2,7.6,3.5c0.3,0.2,0.7,0.3,0.9,0.3c0.4,0,0.5-0.2,0.8-0.5l3.2-4.6c0.3-0.4,0.4-0.7,0.4-1c0-0.3-0.2-0.5-0.5-0.8
	c-2.5-1.9-8-2.6-12.4-2.6c-11.7,0-19.5,8.9-19.5,20.4C323.4,69.1,331.2,78,342.9,78"/>
<path fill="#731472" d="M4.2,14.6v61.8c0,0.1,0.1,0.2,0.2,0.2h17.9c0.1,0,0.2-0.1,0.2-0.2V47L4.4,14.6C4.3,14.5,4.2,14.5,4.2,14.6"
	/>
<path fill="#731472" d="M288,75.8v-27c0-8.1-5.9-11.5-15.7-11.5c-10.8,0-20.3,6.3-20.3,20.4c0,14.9,8.1,20.3,15.9,20.3
	c4.7,0,8.1-2.4,10.1-4.3v2.1c0,0.5,0.5,0.9,1,0.9h8.1C287.5,76.7,288,76.3,288,75.8 M278,67.9c-2.1,1.8-4.9,3.5-7.3,3.5
	c-4.7,0-8.3-3.5-8.3-14.9c0-11.4,4.9-13.5,9.9-13.5c3.3,0,5.7,1.7,5.7,5.8V67.9z"/>
<path fill="#731472" d="M384.3,49.6v26.1c0,0.5,0.4,0.9,0.9,0.9h8.1c0.5,0,0.9-0.4,0.9-0.9V49.6c0-8.2-6.6-12.4-13.5-12.4
	c-3.6,0-6.6,0.5-10.2,3.4V21.1c0-0.6-0.4-1-0.9-1h-8.1c-0.5,0-0.9,0.4-0.9,1v54.7c0,0.5,0.4,0.9,0.9,0.9h8.1c0.5,0,0.9-0.4,0.9-0.9
	V46.3c2.9-2.5,5.1-3.3,8.2-3.3C381.9,43,384.3,45.4,384.3,49.6"/>
</svg>
