<?xml version="1.0" encoding="utf-8"?>
<!-- Generator: Adobe Illustrator 22.1.0, SVG Export Plug-In . SVG Version: 6.00 Build 0)  -->
<svg version="1.1" id="Calque_2" xmlns="http://www.w3.org/2000/svg" xmlns:xlink="http://www.w3.org/1999/xlink" x="0px" y="0px"
	 width="723.396px" height="118.866px" viewBox="0 0 723.396 118.866" enable-background="new 0 0 723.396 118.866"
	 xml:space="preserve">
<g>
	<path fill="#002C5A" d="M233.271,114.737c0,2.551-0.602,3.036-3.273,3.036h-8.74c-2.671,0-3.273-0.484-3.273-3.036V42.286
		c0-2.548,0.603-3.036,3.273-3.036h8.74c2.672,0,3.273,0.488,3.273,3.036V114.737z"/>
	<path fill="#002C5A" d="M305.728,46.655l-2.307,6.92c-0.492,1.694-2.064,2.06-3.643,1.332c-4.492-2.185-11.65-4.125-17.477-4.125
		c-6.066,0-10.801,1.089-13.835,4.487c-3.52,3.886-4.974,10.802-4.974,21.848v2.668c0,11.893,0.847,17.478,3.883,21.482
		c2.667,3.64,7.157,4.974,13.952,4.974c4.13,0,7.648-0.242,9.351-0.484c1.455-0.242,1.94-0.729,1.94-2.306v-17.6h-8.979
		c-2.556,0-3.279-0.604-3.279-2.789v-6.798c0-2.302,0.724-3.031,3.279-3.031h21.356c2.188,0,2.913,0.968,2.913,3.031v35.201
		c0,2.905-0.486,3.881-3.155,4.607c-6.797,1.819-15.414,2.792-22.693,2.792c-13.229,0-20.633-2.188-25.973-7.526
		c-6.066-5.943-8.25-15.899-8.25-30.583v-4.733c0-14.565,3.028-24.514,9.462-30.459c5.827-5.342,14.442-7.403,25.854-7.403
		c7.768,0,16.746,2.304,21.357,4.729C305.969,43.619,306.332,44.711,305.728,46.655z"/>
	<path fill="#002C5A" d="M337.523,102.965c0,1.575,0.728,2.308,2.308,2.308h20.386c2.79,0,3.278,0.604,3.278,2.915v6.673
		c0,2.183-0.488,2.913-3.278,2.913h-25.728c-4.611,0-7.646-0.971-9.587-2.913c-1.944-1.944-2.669-4.373-2.669-8.74V42.287
		c0-2.548,0.604-3.036,3.275-3.036h8.736c2.671,0,3.278,0.488,3.278,3.036v60.678H337.523z"/>
	<path fill="#002C5A" d="M388.25,83.547c0,6.559,0.244,12.139,0.849,18.329c0.245,2.79,1.334,3.396,3.887,3.396h26.333
		c2.791,0,3.16,0.604,3.16,2.914v6.674c0,2.183-0.369,2.913-3.16,2.913h-27.791c-6.188,0-10.315-0.73-12.986-2.913
		c-2.668-2.188-3.518-5.462-4.246-11.167c-0.729-6.432-1.093-15.29-1.093-22.692v-4.978c0-7.036,0.363-16.263,1.093-22.694
		c0.605-5.944,2.063-9.227,4.732-11.409c2.79-2.183,6.798-2.67,12.5-2.67h27.912c2.791,0,3.039,0.607,3.039,2.917v6.671
		c0,2.185-0.248,2.913-3.039,2.913h-26.454c-2.309,0-3.765,0.853-4.01,3.643c-0.359,4.246-0.726,9.71-0.726,15.654h27.188
		c2.791,0,3.032,0.605,3.032,2.917v6.672c0,2.188-0.241,2.911-3.032,2.911L388.25,83.547L388.25,83.547z"/>
	<path fill="#002C5A" d="M575.171,105.272c2.793,0,3.277,0.727,3.277,2.914v6.674c0,2.305-0.484,2.913-3.277,2.913h-44.778
		c-2.916,0-4.128-0.73-4.128-3.646v-3.881c0-1.457,0.853-2.667,2.062-4.609l33.014-53.885h-29.25c-2.787,0-3.274-0.729-3.274-2.913
		v-6.671c0-2.309,0.487-2.917,3.274-2.917h44.412c2.555,0,3.648,0.729,3.648,3.036v3.643c0,1.818-0.488,2.788-2.065,5.458
		l-33.493,53.886L575.171,105.272L575.171,105.272z"/>
	<path fill="#002C5A" d="M651.633,91.194c0,9.829-2.188,16.142-7.284,20.876c-4.609,4.487-12.015,6.796-22.692,6.796
		c-10.924,0-17.962-2.309-22.574-6.796c-5.1-4.734-7.406-11.529-7.406-20.876V42.286c0-2.548,0.61-3.036,3.277-3.036h8.741
		c2.669,0,3.271,0.488,3.271,3.036v48.178c0,5.341,0.975,9.472,3.281,11.773c2.427,2.67,6.19,4.004,11.408,4.004
		c5.704,0,8.979-1.333,11.528-4.004c2.061-2.303,3.151-6.434,3.151-11.773V42.286c0-2.548,0.609-3.036,3.277-3.036h8.742
		c2.668,0,3.276,0.488,3.276,3.036v48.908L651.633,91.194L651.633,91.194z"/>
	<path fill="#002C5A" d="M682.456,114.737c0,2.551-0.606,3.036-3.273,3.036h-8.739c-2.669,0-3.278-0.484-3.278-3.036V44.226
		c0-3.639,0.971-4.61,4.25-5.097c4.488-0.604,9.952-0.968,17.593-0.968c11.896,0,19.543,1.577,24.884,5.704
		c4.246,3.396,6.188,8.856,6.188,17.11v2.061c0,11.047-4.729,18.936-15.05,22.454l17.962,29.734
		c0.971,1.578,0.242,2.549-2.793,2.549h-8.857c-2.914,0-4.006-0.85-5.096-2.67L691.079,88.04c-0.49-0.97-1.097-1.214-2.431-1.214
		h-6.189L682.456,114.737L682.456,114.737z M683.914,50.782c-1.09,0.119-1.458,0.483-1.458,1.697v21.847h5.341
		c7.043,0,11.043-0.728,13.227-2.311c2.55-1.814,3.396-5.095,3.396-9.22v-1.454c0-4.246-0.602-6.556-2.425-8.254
		c-1.939-1.821-5.341-2.549-12.016-2.549C687.551,50.538,685.492,50.538,683.914,50.782z"/>
	<path fill="#002C5A" d="M208.394,114.617c-6.795-24.636-15.53-52.066-22.451-70.998c-1.333-3.762-3.276-4.369-8.253-4.369h-5.945
		c-4.977,0-6.672,0.607-8.008,4.369c-3.607,10.042-7.857,22.48-12.073,35.614h15.223c2.353-8.285,4.756-16.578,7.162-24.448h1.458
		c3.156,10.316,6.312,21.356,9.347,32.16v0.035h-35.643c-2.881,9.217-5.682,18.611-8.173,27.637
		c-0.849,3.155,1.097,3.155,4.496,3.155h6.428c3.155,0,4.492-0.484,5.22-3.155l4.002-14.928h27.188l4.008,14.928
		c0.725,2.67,2.06,3.155,5.216,3.155h6.437C207.424,117.772,209.243,117.772,208.394,114.617z"/>
	<path fill="#002C5A" d="M518.497,114.617c-6.795-24.636-15.531-52.066-22.451-70.998c-1.336-3.762-3.273-4.369-8.252-4.369h-5.943
		c-4.98,0-6.678,0.607-8.011,4.369c-3.604,10.042-7.86,22.48-12.07,35.614h15.219c2.354-8.285,4.756-16.578,7.162-24.448h1.462
		c3.156,10.316,6.31,21.356,9.345,32.16l0.012,0.035h-35.655c-2.884,9.217-5.683,18.611-8.166,27.637
		c-0.85,3.155,1.092,3.155,4.485,3.155h6.436c3.151,0,4.491-0.484,5.222-3.155l4-14.928h27.186l4.005,14.928
		c0.729,2.67,2.064,3.155,5.217,3.155h6.435C517.53,117.772,519.345,117.772,518.497,114.617z"/>
	<path fill="#A0D6F1" d="M116.652,111.671c-0.466-0.678-0.987-1.436-1.536-2.227c-0.021-0.045-0.034-0.102-0.061-0.139
		c-1.188-1.697-2.694-3.849-4.526-6.466c-5.564-7.978-13.167-18.802-21.869-31.233c-1.46-2.085-2.932-4.19-4.412-6.303
		c-1.104-1.58-2.208-3.156-3.313-4.731c-1.167-1.667-2.33-3.328-3.491-4.985c-1.032-1.479-2.063-2.95-3.089-4.414
		c-1.562-2.233-3.113-4.447-4.637-6.622C54.453,22.747,41.596,4.384,41.137,3.733C39.992,2.107,38.241,0,33.046,0
		C27.85,0,3.281,0,3.281,0s-3.728-0.004-3.236,3.92C0.253,5.576,2.548,23.577,5.26,44.807c0.348,2.736,0.706,5.525,1.064,8.342
		c0.185,1.456,0.372,2.92,0.56,4.391c0.38,2.969,0.759,5.952,1.139,8.913c0.196,1.542,0.393,3.073,0.588,4.6
		c0.375,2.95,0.749,5.86,1.11,8.701c1.874,14.671,3.506,27.463,4.325,33.871c0.266,2.06,0.441,3.468,0.519,4.054h3.314h5.276h5.816
		h6.284h6.464h71.697c0.188,0,0.363,0,0.512,0C118.121,117.677,119.306,115.541,116.652,111.671z"/>
	<path fill="#002C5A" d="M41.721,117.677c0,0,64.441,0,72.208,0c4.192,0,5.376-2.136,2.724-6.006
		c-5.151-7.509-15.428-22.117-27.992-40.064C72.728,81.83,51.231,106.652,41.721,117.677z"/>
	<path fill="#002C5A" d="M8.883,44.199c0.817-0.08,1.617-0.126,2.399-0.132c11.123-0.46,18.576,12.909,22.58,20.098
		c0,0,1.501,2.138,3.416,1.948c1.181-0.121,2.339-1.104,3.429-2.905l0.873-1.443c3.194-5.273,3.771-6.229,5.701-6.462l0.224-0.023
		c2.184-0.221,2.786,0.817,4.013,6.924l0.611,3.527c7.993-9.763,14.144-17.104,17.591-21.179
		C54.455,22.748,41.598,4.385,41.139,3.734c-1.145-1.626-2.896-3.733-8.091-3.733c-5.196,0-29.765,0-29.765,0
		s-3.728-0.004-3.236,3.92C0.255,5.577,2.55,23.578,5.262,44.808C6.297,44.565,7.531,44.334,8.883,44.199z"/>
	<path fill="#002C5A" d="M21.064,63.367c2.374,3.926,4.66,8.405,6.512,12.004c1.658,3.239,3.086,6.038,3.781,6.834
		c0.499,0.57,1.545,1.514,2.915,1.373c1.775-0.177,3.599-2.087,5.264-5.523c0.352-0.684,2.16-4.064,3.866-4.239
		c0.366-0.034,0.717,0.068,1.015,0.311c0.166,0.136,0.314,0.312,0.445,0.532c0.771-0.953,1.53-1.891,2.278-2.811
		c-0.196-1.123-0.477-2.294-0.868-3.031c-0.779-1.457-1.354-1.564-1.722-1.535c-0.471,0.052-1.294,0.479-2.544,2.228
		c-0.032,0.076-1.695,3.062-3.809,5.287c-1.392,1.469-2.679,2.267-3.818,2.383c-0.86,0.084-2.093-0.18-3.076-1.937l-4.845-9.81
		c-0.076-0.179-5.679-13.911-17.911-12.669c-0.728,0.073-1.471,0.199-2.223,0.383c0.185,1.456,0.372,2.92,0.56,4.391
		c0.478-0.089,0.979-0.164,1.504-0.216C12.27,56.928,17.618,57.647,21.064,63.367z"/>
	<path fill="#002C5A" d="M22.994,101.712c-1.37-5.185-2.367-8.401-3.041-9.829c-0.058-0.142-3.892-9.735-10.232-12.131
		c1.874,14.671,3.506,27.463,4.325,33.871c3.078-3.985,6.101-7.872,9.054-11.641L22.994,101.712z"/>
	<path fill="#002C5A" d="M17.634,77.226c2.845,3.989,5.594,10.171,7.585,14.681c0.831,1.86,1.566,3.505,2.146,4.646
		c0.932-1.181,1.857-2.352,2.775-3.506c-0.037-0.066-0.07-0.132-0.104-0.199c-2.391-4.85-5.829-12.197-5.858-12.273
		c-0.073-0.182-5.408-13.999-16.155-14.122c0.196,1.542,0.393,3.073,0.588,4.6C11.12,71.516,14.597,72.98,17.634,77.226z"/>
	<path fill="#002C5A" d="M29.297,117.288c-0.107,0.13-0.216,0.259-0.324,0.389h6.284c20.742-26.104,37.242-42.859,48.991-52.373
		c-1.104-1.58-2.208-3.156-3.313-4.731C60.621,79.288,35.761,109.351,29.297,117.288z"/>
	<path fill="#002C5A" d="M18.394,117.012c-0.013,0.026-0.204,0.291-0.515,0.665h5.276c0.147-0.186,0.306-0.378,0.476-0.583
		C37.955,99.988,62.18,71.468,77.443,55.586c-1.032-1.479-2.063-2.95-3.089-4.414c-17.999,19.04-38.216,43.965-51.81,60.733
		L18.394,117.012z"/>
</g>
</svg>
