<?xml version="1.0" encoding="UTF-8" standalone="no"?>
<!-- Created with Inkscape (http://www.inkscape.org/) -->

<svg
   xmlns:dc="http://purl.org/dc/elements/1.1/"
   xmlns:cc="http://creativecommons.org/ns#"
   xmlns:rdf="http://www.w3.org/1999/02/22-rdf-syntax-ns#"
   xmlns:svg="http://www.w3.org/2000/svg"
   xmlns="http://www.w3.org/2000/svg"
   xmlns:xlink="http://www.w3.org/1999/xlink"
   xmlns:sodipodi="http://sodipodi.sourceforge.net/DTD/sodipodi-0.dtd"
   xmlns:inkscape="http://www.inkscape.org/namespaces/inkscape"
   id="svg2985"
   version="1.1"
   inkscape:version="0.48.4 r9939"
   width="250"
   height="125"
   sodipodi:docname="Titan_Airways_logo.svg">
  <metadata
     id="metadata2991">
    <rdf:RDF>
      <cc:Work
         rdf:about="">
        <dc:format>image/svg+xml</dc:format>
        <dc:type
           rdf:resource="http://purl.org/dc/dcmitype/StillImage" />
        <dc:title />
      </cc:Work>
    </rdf:RDF>
  </metadata>
  <defs
     id="defs2989">
    <radialGradient
       r="33.62944"
       fy="94.829521"
       fx="25.75569"
       cy="94.829521"
       cx="25.75569"
       gradientTransform="matrix(0.6683418,0.97863555,-0.79725079,0.6234098,82.906991,13.638058)"
       gradientUnits="userSpaceOnUse"
       id="radialGradient3852-7"
       xlink:href="#linearGradient3823-0"
       inkscape:collect="always" />
    <radialGradient
       r="33.62944"
       fy="85.190704"
       fx="34.182041"
       cy="85.190704"
       cx="34.182041"
       gradientTransform="matrix(0.51819236,1.4258524,-1.1339468,0.4718465,108.4763,-2.7282508)"
       gradientUnits="userSpaceOnUse"
       id="radialGradient3850-1"
       xlink:href="#linearGradient3805-8"
       inkscape:collect="always" />
    <radialGradient
       r="33.62944"
       fy="85.190704"
       fx="34.182041"
       cy="85.190704"
       cx="34.182041"
       gradientTransform="matrix(0.5756115,1.5862723,-1.3612045,0.56553842,125.87384,-16.193411)"
       gradientUnits="userSpaceOnUse"
       id="radialGradient3848-5"
       xlink:href="#linearGradient3805-8"
       inkscape:collect="always" />
    <radialGradient
       r="33.62944"
       fy="85.190704"
       fx="34.182041"
       cy="85.190704"
       cx="34.182041"
       gradientTransform="matrix(0.5756115,1.5862723,-1.3612045,0.56553842,125.87384,-16.193411)"
       gradientUnits="userSpaceOnUse"
       id="radialGradient3846-5"
       xlink:href="#linearGradient3805-8"
       inkscape:collect="always" />
    <radialGradient
       r="33.62944"
       fy="85.190704"
       fx="34.182041"
       cy="85.190704"
       cx="34.182041"
       gradientTransform="matrix(0.5756115,1.5862723,-1.3612045,0.56553842,125.87384,-16.193411)"
       gradientUnits="userSpaceOnUse"
       id="radialGradient3844-4"
       xlink:href="#linearGradient3805-8"
       inkscape:collect="always" />
    <linearGradient
       id="linearGradient3805-8"
       inkscape:collect="always">
      <stop
         id="stop3807-8"
         offset="0"
         style="stop-color:#d66d02;stop-opacity:1;" />
      <stop
         id="stop3809-2"
         offset="1"
         style="stop-color:#d66d02;stop-opacity:0;" />
    </linearGradient>
    <linearGradient
       id="linearGradient3823-0"
       inkscape:collect="always">
      <stop
         id="stop3825-9"
         offset="0"
         style="stop-color:#f7b94a;stop-opacity:1;" />
      <stop
         id="stop3827-4"
         offset="1"
         style="stop-color:#f7b94a;stop-opacity:0;" />
    </linearGradient>
  </defs>
  <sodipodi:namedview
     pagecolor="#ffffff"
     bordercolor="#666666"
     borderopacity="1"
     objecttolerance="10"
     gridtolerance="10"
     guidetolerance="10"
     inkscape:pageopacity="0"
     inkscape:pageshadow="2"
     inkscape:window-width="1600"
     inkscape:window-height="838"
     id="namedview2987"
     showgrid="false"
     inkscape:zoom="1.4142136"
     inkscape:cx="164.25408"
     inkscape:cy="161.89461"
     inkscape:window-x="-8"
     inkscape:window-y="-8"
     inkscape:window-maximized="1"
     inkscape:current-layer="svg2985" />
  <flowRoot
     xml:space="preserve"
     id="flowRoot3812"
     style="font-size:40px;font-style:normal;font-weight:normal;line-height:125%;letter-spacing:0px;word-spacing:0px;fill:#000000;fill-opacity:1;stroke:none;font-family:Sans"><flowRegion
       id="flowRegion3814"><rect
         id="rect3816"
         width="56.568542"
         height="66.468033"
         x="-381.83765"
         y="-126.0229" /></flowRegion><flowPara
       id="flowPara3818" /></flowRoot>  <flowRoot
     xml:space="preserve"
     id="flowRoot3820"
     style="fill:black;stroke:none;stroke-opacity:1;stroke-width:1px;stroke-linejoin:miter;stroke-linecap:butt;fill-opacity:1;font-family:Sans;font-style:normal;font-weight:normal;font-size:40px;line-height:125%;letter-spacing:0px;word-spacing:0px"><flowRegion
       id="flowRegion3822"><rect
         id="rect3824"
         width="347.89651"
         height="154.85638"
         x="-419.3143"
         y="-183.29855" /></flowRegion><flowPara
       id="flowPara3826" /></flowRoot>  <flowRoot
     xml:space="preserve"
     id="flowRoot3836"
     style="font-size:40px;font-style:normal;font-weight:normal;line-height:125%;letter-spacing:0px;word-spacing:0px;fill:#000000;fill-opacity:1;stroke:none;font-family:District Pro Thin;-inkscape-font-specification:District Pro Thin"><flowRegion
       id="flowRegion3838"><rect
         id="rect3840"
         width="101.11626"
         height="84.145706"
         x="-409.41483"
         y="-191.07672"
         style="font-family:District Pro Thin;-inkscape-font-specification:District Pro Thin" /></flowRegion><flowPara
       id="flowPara3842">A</flowPara></flowRoot>  <g
     id="g3274"
     transform="translate(0.47195044,-0.98157898)">
    <flowRoot
       style="font-size:40px;font-style:normal;font-weight:normal;line-height:125%;letter-spacing:0px;word-spacing:0px;fill:#000000;fill-opacity:1;stroke:none;font-family:Sans"
       id="flowRoot3812-1"
       xml:space="preserve"><flowRegion
         id="flowRegion3814-5"><rect
           y="-126.0229"
           x="-381.83765"
           height="66.468033"
           width="56.568542"
           id="rect3816-2" /></flowRegion><flowPara
         id="flowPara3818-7" /></flowRoot>    <flowRoot
       style="font-size:40px;font-style:normal;font-weight:normal;line-height:125%;letter-spacing:0px;word-spacing:0px;fill:#000000;fill-opacity:1;stroke:none;font-family:Sans"
       id="flowRoot3820-6"
       xml:space="preserve"><flowRegion
         id="flowRegion3822-1"><rect
           y="-183.29855"
           x="-419.3143"
           height="154.85638"
           width="347.89651"
           id="rect3824-4" /></flowRegion><flowPara
         id="flowPara3826-2" /></flowRoot>    <g
       style="stroke:#000000;stroke-width:0.5;stroke-miterlimit:4;stroke-opacity:1;stroke-dasharray:none"
       id="g3168" />
    <g
       id="g3998">
      <g
         id="g3835"
         transform="translate(111.37769,0.41098312)">
        <path
           transform="matrix(1.2515723,0,0,1.1696429,-123.74826,-23.420505)"
           d="m 78.257191,87.563454 c 0,19.624326 -15.056414,35.532996 -33.629441,35.532996 -18.573027,0 -33.62944,-15.90867 -33.62944,-35.532996 0,-19.624331 15.056413,-35.532994 33.62944,-35.532994 18.573027,0 33.629441,15.908663 33.629441,35.532994 z"
           sodipodi:ry="35.532993"
           sodipodi:rx="33.62944"
           sodipodi:cy="87.563454"
           sodipodi:cx="44.62775"
           id="path2995"
           style="fill:#ef9827;fill-opacity:1;stroke:none"
           sodipodi:type="arc" />
        <path
           sodipodi:type="arc"
           style="fill:#000000;fill-opacity:1;stroke:none"
           id="path3773"
           sodipodi:cx="44.62775"
           sodipodi:cy="87.563454"
           sodipodi:rx="33.62944"
           sodipodi:ry="35.532993"
           d="m 78.257191,87.563454 c 0,19.624326 -15.056414,35.532996 -33.629441,35.532996 -18.573027,0 -33.62944,-15.90867 -33.62944,-35.532996 0,-19.624331 15.056413,-35.532994 33.62944,-35.532994 18.573027,0 33.629441,15.908663 33.629441,35.532994 z"
           transform="matrix(1.2515723,0,0,1.1696429,-123.74826,-23.420505)" />
        <path
           transform="matrix(1.2515723,0,0,1.1696429,-123.74826,-23.420505)"
           d="m 78.257191,87.563454 c 0,19.624326 -15.056414,35.532996 -33.629441,35.532996 -18.573027,0 -33.62944,-15.90867 -33.62944,-35.532996 0,-19.624331 15.056413,-35.532994 33.62944,-35.532994 18.573027,0 33.629441,15.908663 33.629441,35.532994 z"
           sodipodi:ry="35.532993"
           sodipodi:rx="33.62944"
           sodipodi:cy="87.563454"
           sodipodi:cx="44.62775"
           id="path3783"
           style="fill:url(#radialGradient3844-4);fill-opacity:1;stroke:none"
           sodipodi:type="arc" />
        <path
           sodipodi:type="arc"
           style="fill:url(#radialGradient3846-5);fill-opacity:1;stroke:none"
           id="path3813"
           sodipodi:cx="44.62775"
           sodipodi:cy="87.563454"
           sodipodi:rx="33.62944"
           sodipodi:ry="35.532993"
           d="m 78.257191,87.563454 c 0,19.624326 -15.056414,35.532996 -33.629441,35.532996 -18.573027,0 -33.62944,-15.90867 -33.62944,-35.532996 0,-19.624331 15.056413,-35.532994 33.62944,-35.532994 18.573027,0 33.629441,15.908663 33.629441,35.532994 z"
           transform="matrix(1.2515723,0,0,1.1696429,-123.74826,-23.420505)" />
        <path
           transform="matrix(1.2515723,0,0,1.1696429,-123.74826,-23.420505)"
           d="m 78.257191,87.563454 c 0,19.624326 -15.056414,35.532996 -33.629441,35.532996 -18.573027,0 -33.62944,-15.90867 -33.62944,-35.532996 0,-19.624331 15.056413,-35.532994 33.62944,-35.532994 18.573027,0 33.629441,15.908663 33.629441,35.532994 z"
           sodipodi:ry="35.532993"
           sodipodi:rx="33.62944"
           sodipodi:cy="87.563454"
           sodipodi:cx="44.62775"
           id="path3815"
           style="fill:url(#radialGradient3848-5);fill-opacity:1;stroke:none"
           sodipodi:type="arc" />
        <path
           sodipodi:type="arc"
           style="fill:url(#radialGradient3850-1);fill-opacity:1;stroke:none"
           id="path3817"
           sodipodi:cx="44.62775"
           sodipodi:cy="87.563454"
           sodipodi:rx="33.62944"
           sodipodi:ry="35.532993"
           d="m 78.257191,87.563454 c 0,19.624326 -15.056414,35.532996 -33.629441,35.532996 -18.573027,0 -33.62944,-15.90867 -33.62944,-35.532996 0,-19.624331 15.056413,-35.532994 33.62944,-35.532994 18.573027,0 33.629441,15.908663 33.629441,35.532994 z"
           transform="matrix(1.2515723,0,0,1.1696429,-123.74826,-23.420505)" />
        <path
           transform="matrix(1.2515723,0,0,1.1696429,-123.74826,-23.420505)"
           d="m 78.257191,87.563454 c 0,19.624326 -15.056414,35.532996 -33.629441,35.532996 -18.573027,0 -33.62944,-15.90867 -33.62944,-35.532996 0,-19.624331 15.056413,-35.532994 33.62944,-35.532994 18.573027,0 33.629441,15.908663 33.629441,35.532994 z"
           sodipodi:ry="35.532993"
           sodipodi:rx="33.62944"
           sodipodi:cy="87.563454"
           sodipodi:cx="44.62775"
           id="path3821"
           style="fill:url(#radialGradient3852-7);fill-opacity:1;stroke:none"
           sodipodi:type="arc" />
      </g>
      <path
         sodipodi:type="star"
         style="fill:#b3b3b3;fill-opacity:1;stroke:none"
         id="path3854"
         sodipodi:sides="5"
         sodipodi:cx="125.02988"
         sodipodi:cy="20.30991"
         sodipodi:r1="9.1278954"
         sodipodi:r2="3.6967981"
         sodipodi:arg1="0.96007036"
         sodipodi:arg2="1.5883889"
         inkscape:flatsided="false"
         inkscape:rounded="1.4467594e-015"
         inkscape:randomized="0"
         d="m 130.26438,27.787773 -5.29954,-3.781637 -5.42928,3.59287 1.9589,-6.208749 -5.09476,-4.053301 6.5102,-0.05558 2.28055,-6.097948 2.06463,6.174398 6.50422,0.284562 -5.2342,3.871569 z"
         inkscape:transform-center-x="-0.05449294"
         inkscape:transform-center-y="-0.9053595"
         transform="matrix(1.098323,0,0,1.098323,-5.7596997,1.2933277)" />
      <path
         transform="matrix(0.54982736,0,0,0.54982736,3.6408671,21.107547)"
         inkscape:transform-center-y="-0.45322855"
         inkscape:transform-center-x="-0.027279254"
         d="m 130.26438,27.787773 -5.29954,-3.781637 -5.42928,3.59287 1.9589,-6.208749 -5.09476,-4.053301 6.5102,-0.05558 2.28055,-6.097948 2.06463,6.174398 6.50422,0.284562 -5.2342,3.871569 z"
         inkscape:randomized="0"
         inkscape:rounded="1.4467594e-015"
         inkscape:flatsided="false"
         sodipodi:arg2="1.5883889"
         sodipodi:arg1="0.96007036"
         sodipodi:r2="3.6967981"
         sodipodi:r1="9.1278954"
         sodipodi:cy="20.30991"
         sodipodi:cx="125.02988"
         sodipodi:sides="5"
         id="path3856"
         style="fill:#b3b3b3;fill-opacity:1;stroke:none"
         sodipodi:type="star" />
      <path
         sodipodi:type="star"
         style="fill:#b3b3b3;fill-opacity:1;stroke:none"
         id="path3858"
         sodipodi:sides="5"
         sodipodi:cx="125.02988"
         sodipodi:cy="20.30991"
         sodipodi:r1="9.1278954"
         sodipodi:r2="3.6967981"
         sodipodi:arg1="0.96007036"
         sodipodi:arg2="1.5883889"
         inkscape:flatsided="false"
         inkscape:rounded="1.4467594e-015"
         inkscape:randomized="0"
         d="m 130.26438,27.787773 -5.29954,-3.781637 -5.42928,3.59287 1.9589,-6.208749 -5.09476,-4.053301 6.5102,-0.05558 2.28055,-6.097948 2.06463,6.174398 6.50422,0.284562 -5.2342,3.871569 z"
         inkscape:transform-center-x="-0.027288013"
         inkscape:transform-center-y="-0.45343839"
         transform="matrix(0.55008094,0,0,0.55008094,111.14084,13.026303)" />
      <path
         transform="matrix(1.3441306,0,0,1.3441306,61.458164,-11.475981)"
         inkscape:transform-center-y="-1.1079815"
         inkscape:transform-center-x="-0.066688919"
         d="m 130.26438,27.787773 -5.29954,-3.781637 -5.42928,3.59287 1.9589,-6.208749 -5.09476,-4.053301 6.5102,-0.05558 2.28055,-6.097948 2.06463,6.174398 6.50422,0.284562 -5.2342,3.871569 z"
         inkscape:randomized="0"
         inkscape:rounded="1.4467594e-015"
         inkscape:flatsided="false"
         sodipodi:arg2="1.5883889"
         sodipodi:arg1="0.96007036"
         sodipodi:r2="3.6967981"
         sodipodi:r1="9.1278954"
         sodipodi:cy="20.30991"
         sodipodi:cx="125.02988"
         sodipodi:sides="5"
         id="path3860"
         style="fill:#b3b3b3;fill-opacity:1;stroke:none"
         sodipodi:type="star" />
      <path
         inkscape:connector-curvature="0"
         style="fill:#000000;fill-opacity:1;fill-rule:evenodd;stroke:#000000;stroke-opacity:1"
         d="m 102.90588,87.041757 c 0,-13.022769 0,-26.053465 0,-39.076235 -4.358888,0 -8.728439,0 -13.08732,0 0,-1.743767 0,-3.487535 0,-5.231302 10.49757,0 20.98446,0 31.48201,0 0,1.743767 0,3.487535 0,5.231302 -4.38019,0 -8.76039,0 -13.14059,0 0,13.02277 0,26.053466 0,39.076235 -1.74781,0 -3.50629,0 -5.2541,0"
         id="path3899" />
      <path
         inkscape:connector-curvature="0"
         style="fill:#000000;fill-opacity:1;fill-rule:evenodd;stroke:#000000;stroke-width:1.01671338;stroke-opacity:1"
         d="m 129.71185,87.0334 c 0,-15.020579 0,-30.04922 0,-45.069799 1.74226,0 3.49513,0 5.23739,0 0,15.020579 0,30.04922 0,45.069799 -1.74226,0 -3.49513,0 -5.23739,0"
         id="path3901" />
      <path
         inkscape:connector-curvature="0"
         style="fill:#000000;fill-opacity:1;fill-rule:evenodd;stroke:#000000;stroke-opacity:1"
         d="m 155.6018,87.041757 c 0,-13.022769 0,-26.053465 0,-39.076235 -4.36954,0 -8.72842,0 -13.0873,0 0,-1.743767 0,-3.487535 0,-5.231302 10.49755,0 20.98444,0 31.48199,0 0,1.743767 0,3.487535 0,5.231302 -4.38019,0 -8.76039,0 -13.14058,0 0,13.02277 0,26.053466 0,39.076235 -1.75848,0 -3.50629,0 -5.25411,0"
         id="path3903" />
      <path
         inkscape:connector-curvature="0"
         style="fill:#000000;fill-opacity:1;fill-rule:evenodd;stroke:#000000;stroke-opacity:1"
         d="m 186.59375,43.59375 c -4.98767,14.507904 -10.26233,28.937371 -15.25,43.4375 l 5.5625,0 c 1.40468,-4.320785 2.90546,-8.617209 4.3125,-12.9375 l 0.0625,-0.21875 1.5,-4.6875 c 0.007,-0.02185 0.0239,-0.04065 0.0312,-0.0625 1.42163,-4.230923 2.923,-8.456498 4.34375,-12.6875 0.89522,-2.760078 1.6447,-5.490073 2.15625,-8.28125 0.60747,2.34801 1.56558,5.345812 2.8125,9 1.35034,4.002508 2.77426,7.989808 4.125,12 l 0,0.03125 1.625,4.6875 0.0312,0.0625 c 1.51717,4.370809 3.08792,8.722788 4.59375,13.09375 l 6,0 C 203.18195,72.523346 197.55739,58.101654 192.25,43.59375 l -5.65625,0 z"
         id="path3905" />
      <path
         inkscape:connector-curvature="0"
         style="fill:#000000;fill-opacity:1;fill-rule:evenodd;stroke:#000000;stroke-opacity:1"
         d="m 214.33968,87.041757 c 0,-14.48458 0,-28.976933 0,-43.461513 1.8011,0 3.59154,0 5.39265,0 6.8314,11.413506 14.02516,22.71039 20.85655,34.123897 0,-11.374633 0,-22.749265 0,-34.123897 1.68388,0 3.35709,0 5.04096,0 0,14.48458 0,28.976933 0,43.461513 -1.80111,0 -3.59155,0 -5.39265,0 -6.8314,-11.421282 -14.02515,-22.72594 -20.85656,-34.154996 0,11.390182 0,22.772589 0,34.154996 -1.68386,0 -3.35708,0 -5.04095,0"
         id="path3907" />
      <rect
         style="fill:#000000;fill-opacity:1;stroke:#000000;stroke-opacity:1"
         id="rect3939"
         width="21.38998"
         height="5.833631"
         x="178.80962"
         y="70.99472" />
      <g
         id="g3966"
         transform="translate(286.02467,214.60691)">
        <g
           style="fill:#ababab;fill-opacity:1;stroke:#ababab;stroke-width:0.5;stroke-miterlimit:4;stroke-opacity:1;stroke-dasharray:none"
           transform="translate(-277.89296,12.020816)"
           id="g3926">
          <path
             sodipodi:nodetypes="cccccccccccccc"
             inkscape:connector-curvature="0"
             id="flowRoot3836-9"
             d="m 145.17926,-133.94215 6.70312,28.13672 2.09375,0 6.59375,-25.625 6.5625,25.625 2.0625,0 6.65234,-28.12891 -1.66015,0 -6.11719,25.87891 -6.65234,-25.89453 -1.80078,0.004 -6.60938,25.89063 -6.14844,-25.87891 z"
             style="font-size:40px;font-style:normal;font-weight:normal;line-height:125%;letter-spacing:0px;word-spacing:0px;fill:#ababab;fill-opacity:1;stroke:#ababab;stroke-width:0.5;stroke-miterlimit:4;stroke-opacity:1;stroke-dasharray:none;font-family:District Pro Thin;-inkscape-font-specification:District Pro Thin" />
          <path
             sodipodi:nodetypes="cccccccccc"
             inkscape:connector-curvature="0"
             id="flowRoot3916"
             d="m 199.13356,-133.90224 8.40625,16.8125 0,11.3125 1.4375,0.008 0,-11.32031 8.375,-16.8125 -1.625,0 -7.46875,15.1875 -7.53125,-15.1875 z"
             style="font-size:40px;font-style:normal;font-weight:normal;line-height:125%;letter-spacing:0px;word-spacing:0px;fill:#ababab;fill-opacity:1;stroke:#ababab;stroke-width:0.5;stroke-miterlimit:4;stroke-opacity:1;stroke-dasharray:none;font-family:District Pro Thin;-inkscape-font-specification:District Pro Thin" />
        </g>
        <rect
           transform="matrix(0,-1,-1,0,0,0)"
           style="fill:#ababab;fill-opacity:1;stroke:#ababab;stroke-width:0.5;stroke-miterlimit:4;stroke-opacity:1;stroke-dasharray:none"
           id="rect3959"
           width="28.165403"
           height="1.6177428"
           x="93.745338"
           y="166.1152" />
        <g
           style="fill:#ababab;fill-opacity:1;stroke:#ababab;stroke-width:0.5;stroke-miterlimit:4;stroke-opacity:1;stroke-dasharray:none"
           id="g3065">
          <g
             style="fill:#ababab;fill-opacity:1;stroke:#ababab;stroke-width:0.5;stroke-miterlimit:4;stroke-opacity:1;stroke-dasharray:none"
             transform="translate(-65.728553,-40.817648)"
             id="g3078">
            <rect
               y="-61.718742"
               x="-31.425861"
               height="1.4375"
               width="15.226713"
               id="rect3189"
               style="fill:#ababab;fill-opacity:1;stroke:#ababab;stroke-width:0.5;stroke-miterlimit:4;stroke-opacity:1;stroke-dasharray:none" />
            <path
               sodipodi:nodetypes="ccccc"
               inkscape:connector-curvature="0"
               id="rect3961"
               d="m -22.701005,-81.122445 10.037644,28.137902 -1.729286,-0.01801 -9.943836,-28.106656 z"
               style="fill:#ababab;fill-opacity:1;stroke:#ababab;stroke-width:0.5;stroke-miterlimit:4;stroke-opacity:1;stroke-dasharray:none" />
            <path
               style="fill:#ababab;fill-opacity:1;stroke:#ababab;stroke-width:0.5;stroke-miterlimit:4;stroke-opacity:1;stroke-dasharray:none"
               d="m -24.548844,-81.091194 -10.03764,28.137901 1.72929,-0.01801 9.94383,-28.106656 z"
               id="path3964"
               inkscape:connector-curvature="0"
               sodipodi:nodetypes="ccccc" />
          </g>
          <path
             id="flowRoot3908"
             d="m -47.395642,-122.21373 c -2.40081,-0.002 -4.37294,0.55124 -5.96875,1.65625 -1.59582,1.10507 -2.43917,2.78948 -2.5,5.03125 -0.035,1.58725 0.52126,2.99059 1.65625,4.1875 1.13498,1.19694 3.05628,2.25602 5.78125,3.21875 3.13078,1.11562 5.31667,2.23593 6.5625,3.3125 1.2458,1.07659 1.86165,2.2048 1.8125,3.4375 -0.0175,1.894598 -0.65378,3.384048 -1.90625,4.468758 -1.2525,1.08472 -3.03504,1.63511 -5.3125,1.65625 -1.80999,-0.005 -3.33502,-0.45093 -4.625,-1.34375 -1.28317,-0.88809 -2.28758,-2.16625 -2.9375,-3.875008 l -1.4375,0.875008 c 0.93218,2.00496 2.16328,3.49719 3.6875,4.4375 1.54081,0.95055 3.29418,1.41682 5.25,1.40625 2.59912,-0.013 4.72209,-0.65601 6.40625,-1.9375 1.68413,-1.28149 2.56581,-3.13739 2.625,-5.531258 0.0641,-1.61487 -0.5542,-3.0626 -1.875,-4.375 -1.32083,-1.31238 -3.74298,-2.63485 -7.21875,-3.9375 -2.50248,-0.91069 -4.24252,-1.79629 -5.25,-2.6875 -1.00749,-0.89117 -1.50625,-2.05063 -1.46875,-3.46875 0.0525,-1.69535 0.71126,-2.94939 1.96875,-3.78125 1.25748,-0.8318 2.82376,-1.25241 4.65625,-1.25 1.71663,0.007 3.19209,0.35348 4.46875,1.0625 1.27663,0.70907 2.37333,1.72899 3.25,3.0625 l 1.3125,-1 c -1.00917,-1.5067 -2.26712,-2.65768 -3.78125,-3.4375 -1.51416,-0.77976 -3.24712,-1.18341 -5.15625,-1.1875 z"
             style="font-size:40px;font-style:normal;font-weight:normal;line-height:125%;letter-spacing:0px;word-spacing:0px;fill:#ababab;fill-opacity:1;stroke:#ababab;stroke-width:0.5;stroke-miterlimit:4;stroke-opacity:1;stroke-dasharray:none;font-family:District Pro Thin;-inkscape-font-specification:District Pro Thin"
             inkscape:connector-curvature="0" />
        </g>
        <g
           transform="translate(0,-0.375)"
           id="g3955"
           style="stroke:#000000;stroke-width:0.5;stroke-miterlimit:4;stroke-opacity:1;stroke-dasharray:none">
          <path
             sodipodi:nodetypes="ccccccccsccccccccsccc"
             id="flowRoot3887-1"
             d="m -156.90228,-121.5106 0,15.81251 1.46094,0 0.0234,-0.30469 7.35938,-0.008 0.30469,-0.0117 1.22656,0.0234 0.34375,-0.0117 c 2.23532,-0.0583 3.9912,-0.81292 5.28125,-2.28125 1.29001,-1.4683 1.94221,-3.29043 1.96875,-5.46875 -0.0258,-2.17828 -0.66849,-4.00041 -1.90625,-5.46875 -1.2378,-1.46829 -2.92156,-2.22289 -5.0625,-2.28125 z m 1.49219,1.5 9.41406,0 c 1.68389,0.0475 2.97893,0.66129 3.9375,1.84375 0.95854,1.18252 1.45079,2.65881 1.46875,4.40626 -0.018,1.7475 -0.51021,3.22378 -1.46875,4.40625 -0.95857,1.1825 -2.25361,1.79626 -3.9375,1.84375 l -9.39063,-0.0156 z"
             style="font-size:40px;font-style:normal;font-weight:normal;line-height:125%;letter-spacing:0px;word-spacing:0px;fill:#ababab;fill-opacity:1;stroke:#ababab;stroke-width:0.5;stroke-miterlimit:4;stroke-opacity:1;stroke-dasharray:none;font-family:District Pro Thin;-inkscape-font-specification:District Pro Thin"
             inkscape:connector-curvature="0" />
          <g
             style="fill:#ababab;fill-opacity:1;stroke:#ababab;stroke-width:0.5;stroke-miterlimit:4;stroke-opacity:1;stroke-dasharray:none"
             id="g3163"
             transform="translate(0.35355339,-38.360543)">
            <rect
               transform="matrix(0,-1,-1,0,0,0)"
               style="fill:#ababab;fill-opacity:1;stroke:#ababab;stroke-width:0.5;stroke-miterlimit:4;stroke-opacity:1;stroke-dasharray:none"
               id="rect3966"
               width="28.09375"
               height="1.5625"
               x="55.062492"
               y="155.71875" />
            <path
               sodipodi:nodetypes="ccccc"
               inkscape:connector-curvature="0"
               id="path3968"
               d="m -147.31698,-68.993761 8.14479,13.951744 -1.87625,0.02091 -7.35619,-12.646272 z"
               style="fill:#ababab;fill-opacity:1;stroke:#ababab;stroke-width:0.5;stroke-miterlimit:4;stroke-opacity:1;stroke-dasharray:none" />
          </g>
        </g>
        <g
           style="fill:#ababab;fill-opacity:1;stroke:#ababab;stroke-width:0.5;stroke-miterlimit:4;stroke-opacity:1;stroke-dasharray:none"
           transform="translate(-161.10355,-40.775676)"
           id="g3070">
          <rect
             y="-61.718742"
             x="-31.425861"
             height="1.4375"
             width="15.226713"
             id="rect3072"
             style="fill:#ababab;fill-opacity:1;stroke:#ababab;stroke-width:0.5;stroke-miterlimit:4;stroke-opacity:1;stroke-dasharray:none" />
          <path
             sodipodi:nodetypes="ccccc"
             inkscape:connector-curvature="0"
             id="path3074"
             d="m -22.701005,-81.122445 10.037644,28.137902 -1.729286,-0.01801 -9.943836,-28.106656 z"
             style="fill:#ababab;fill-opacity:1;stroke:#ababab;stroke-width:0.5;stroke-miterlimit:4;stroke-opacity:1;stroke-dasharray:none" />
          <path
             style="fill:#ababab;fill-opacity:1;stroke:#ababab;stroke-width:0.5;stroke-miterlimit:4;stroke-opacity:1;stroke-dasharray:none"
             d="m -24.548844,-81.091194 -10.03764,28.137901 1.72929,-0.01801 9.94383,-28.106656 z"
             id="path3076"
             inkscape:connector-curvature="0"
             sodipodi:nodetypes="ccccc" />
        </g>
      </g>
    </g>
  </g>
</svg>
