<?xml version="1.0" encoding="utf-8"?>
<!-- Generator: Adobe Illustrator 23.0.5, SVG Export Plug-In . SVG Version: 6.00 Build 0)  -->
<svg version="1.1" id="Слой_1" xmlns:xodm="http://www.corel.com/coreldraw/odm/2003"
	 xmlns="http://www.w3.org/2000/svg" xmlns:xlink="http://www.w3.org/1999/xlink" x="0px" y="0px" width="439px" height="91.8px"
	 viewBox="0 0 439 91.8" enable-background="new 0 0 439 91.8" xml:space="preserve">
<g id="Слой_x0020_1">
	<g id="_2024248528192">
		<path fill="#1B529E" d="M284.7,0.5c7.1,0.1,14.1,0,21.2,0c-4.9,11.9-9.6,23.8-14.4,35.7c3.2-1.2,6.5-2.3,9.7-3.4
			c-1.8,5.4-5.8,9.9-10.7,12.6c-7,4.1-15.2,5.9-23.3,5.9c-8.4,0-16.8,0-25.3,0c1.7-4.2,3.4-8.4,5.1-12.6c7.5-0.2,15-0.3,22.6-0.3
			C274.8,25.8,279.6,13.1,284.7,0.5L284.7,0.5z M341,0.1c11.7,0,23.4,0,35.1,0l0.1,0.7h-0.3c-1.8,4.2-3.7,8.5-5.5,12.7l-29.9-0.2
			c-3.2-0.5-4.5,4.2-6.1,6.6h25.2l-3.7,9.7l-25.6-0.4l-2.7,8.4c7.7,3.6,25.4,1.2,34.3,0.8c-1.4,5-2.5,12.5-8.8,13.4
			c-9,0.3-17.9,0-26.9,0.1c-6-0.1-12.8-0.3-17.4-4.6c-3.4-3.2-2.6-13-1.2-17.3c1.6-5,4.6-9.6,6.3-14.5C309,15,305,17.9,300.6,19
			C309.7,3.7,324.7,0.2,341,0.1L341,0.1z M393.5,0.7c3.1-0.6,6.3-0.8,9.5-0.7c12,0.2,24,0.1,36,0.1v0.7v0.5c-1.5,4-3.3,7.9-5,11.9
			c-5.6,0-11.1,0.1-16.7,0.1l-15.7,36.6c-1,1.7-3.1,1.3-4.7,1.4c-5.4,0-10.8-0.1-16.1,0c5-12.7,10.1-25.3,15.2-37.9
			c-5,0-10.1-0.4-15,0.1c-4.8,0.9-8.6,4-13.1,5.7C374.1,10.5,382.7,2.7,393.5,0.7L393.5,0.7z"/>
		<path fill="#36ABFF" d="M16.7,5.8C24.2,2,32.7,0.5,41,0.6c11.4,0,22.9,0,34.3,0c-1.5,4.3-2.3,9.7-6.2,12.6
			c-5.4,0.3-10.8,0-16.1,0.1C48,26,42.9,38.6,38,51.2c-6.8,0-13.7,0-20.5,0.1c5.1-12.6,10-25.4,15.1-38c-5.5,0-11.1,0.1-16.6,0.8
			c-4.2,0.4-8.3,3.5-11.2,5.1C6.3,13.1,11.3,8.6,16.7,5.8z M88.9,3.1c5.2-2,10.7-2.8,16.2-2.5c13.2,0,26.4,0,39.6,0
			c-1.7,4.2-3.3,8.5-5.1,12.7c-9.9-0.1-19.7,0-29.6,0c-4.1-0.3-5.5,4.4-7.3,7.1c8.5,0,17,0,25.5,0c-1.2,3.2-2.2,6.7-4.7,9.1
			c-8.4,0.6-16.9,0.1-25.3,0.3c-3.9,6.3-3.8,9.4,4.9,9.5c8.9,0.3,17.8,0.3,26.6-0.9c-1.5,4.1-2.5,8.4-4.1,12.5c-2.3,1.1-5,1-7.6,1
			c-10,0-20,0-30,0c-4.8,0.1-9.6-2.4-12.2-6.4c-2.2-3.3-1.6-10.1-0.5-13.9c1.6-5.9,5.4-10.9,7.2-16.8c-4.4,1.3-8.7,2.7-13.1,4.1
			C72.9,10.8,81,6.2,88.9,3.1z M149.2,16.7C152.8,6.5,164,1.6,174,0.6c14.5-0.2,29,0,43.5-0.1c-1.2,3.2-2.5,6.5-4.9,9.1
			c-5.3,6-12.8,9.3-19.3,13.7c-9,6-18.6,11.2-26.8,18.2c11.2,0.1,22.3,0,33.5,0c-1.3,3.3-1.9,7.4-5.1,9.4C175,51.2,155,51,135,51
			c2.7-10.7,13.3-15.8,22-21c10-6.6,20.4-12.7,29.7-20.2c-7.4,0.4-14.9,0-22.2,1C159,11.6,154.3,14.8,149.2,16.7z"/>
		<path fill-rule="evenodd" clip-rule="evenodd" fill="#2B2A29" d="M386.3,81.3h42.5v1.4h-42.5V81.3z M0,62.9h409.7v1.4H0V62.9z
			 M391.2,89.7h42.5V91h-42.5V89.7z M378,73.6h42.5V75H378V73.6z"/>
		<path fill="#E21E24" d="M250.2,73.2c0.8-2,3.4-1,5-1.4c1,6.5,2.1,13,3.2,19.5c-1,0-2.8,0-3.8,0c-0.2-1.4-0.4-2.8-0.6-4.2
			c-2.6,0-5.2,0-7.8,0c-0.7,1.4-1.4,2.8-2.2,4.2c-1,0-3.1,0-4.1,0.1C243.3,85.3,246.7,79.2,250.2,73.2z M248.1,83.8
			c1.8,0,3.6,0,5.5,0c-0.4-2.6-0.8-5.2-1.2-7.8C250.9,78.7,249.5,81.3,248.1,83.8L248.1,83.8z M265.6,72.2c1.3-0.1,2.6-0.2,4-0.3
			c-1.3,6.5-2.7,13-4.1,19.5c-1,0-3,0-3.9,0C262.9,85,264.2,78.6,265.6,72.2L265.6,72.2z M274.2,72.2c4.2-0.2,8.6-0.8,12.7,0.6
			c2.4,1.6,2.5,5.1,1.3,7.4c-1,1.8-3.1,2.3-4.8,3c1.6,2.6,2.9,5.3,4.1,8.1c-1.4,0-2.9,0-4.3,0c-1.5-3.2-2.3-9.1-7.1-8
			c-1.2,2.5-1.3,5.4-1.9,8c-1,0-3,0-4,0C271.5,85,272.9,78.6,274.2,72.2z M277.5,75.3c-0.4,1.8-0.7,3.6-1.1,5.3
			c2.2-0.1,4.4,0,6.5-0.5c1.7-0.7,2.7-2.9,1.5-4.5C282.1,75.2,279.8,75.3,277.5,75.3L277.5,75.3z M294.6,72.2c1.3-0.1,2.6-0.2,4-0.3
			c-1.1,5.4-2.3,10.9-3.4,16.3c3.2,0,6.5,0,9.8,0c-0.2,1.1-0.4,2.1-0.6,3.2c-4.6,0-9.2,0-13.8,0C291.9,85,293.3,78.6,294.6,72.2z
			 M311.8,72c1,0,2.9,0,3.9,0c-1.3,6.5-2.6,13-4.1,19.5c-1,0-2.9-0.1-3.9-0.1C309.1,84.9,310.3,78.4,311.8,72z M320.4,72.1
			c1.2,0,2.4,0,3.6,0c1.7,4.3,3.4,8.6,5.2,12.8c1-4.2,1.8-8.5,2.6-12.7c0.9-0.1,2.8-0.3,3.7-0.4c-1.3,6.5-2.6,13.1-4.1,19.6
			c-0.9,0-2.7-0.1-3.6-0.1c-1.7-4.3-3.4-8.6-5.1-12.8c-1.1,4.2-1.9,8.5-2.8,12.9c-0.9,0-2.8,0-3.7,0.1C317.7,85,319,78.5,320.4,72.1
			L320.4,72.1z M340.6,72.1c4.7,0,9.4,0.1,14.1-0.2c-0.1,0.8-0.4,2.5-0.5,3.3c-3.5,0-6.9,0-10.4,0c-0.3,1.4-0.6,2.9-0.9,4.4
			c3.3,0,6.6,0,9.9,0c-0.2,1.1-0.3,2.1-0.5,3.2c-3.4,0-6.7,0-10.1,0c-0.4,1.8-0.8,3.6-1.2,5.4c3.7,0,7.5,0,11.3,0
			c-0.3,1.1-0.6,2.2-0.9,3.2c-5-0.1-9.9,0-14.9,0C338,85,339.2,78.5,340.6,72.1L340.6,72.1z M359,79.9c-2.4-3.9,1.6-8.7,5.9-8.2
			c3.8-0.5,6.9,2.2,7.9,5.8c-0.9,0.1-2.7,0.2-3.6,0.2c-1.2-2.5-4.4-4-6.7-2c-1.5,2.7,2.5,3.6,4.2,4.6c2.7,0.9,5.5,3.5,4.3,6.7
			c-2.2,7.1-15,6.2-15.3-1.6c1.2-0.1,2.4-0.3,3.6-0.4c0.7,4.4,6.6,4.6,8.6,1.1C365.5,83.2,361.3,82.8,359,79.9z"/>
	</g>
</g>
</svg>
