<?xml version="1.0" encoding="utf-8"?>
<!-- Generator: Adobe Illustrator 22.1.0, SVG Export Plug-In . SVG Version: 6.00 Build 0)  -->
<svg version="1.1" id="Слой_2_1_" xmlns="http://www.w3.org/2000/svg" xmlns:xlink="http://www.w3.org/1999/xlink" x="0px"
	 y="0px" width="1318.1px" height="734.4px" viewBox="0 0 1318.1 734.4" style="enable-background:new 0 0 1318.1 734.4;"
	 xml:space="preserve">
<style type="text/css">
	.st0{fill:#7ACAF1;}
	.st1{fill:#0094DA;}
	.st2{fill:#004B99;}
	.st3{fill:#FFC200;}
</style>
<g>
	<path class="st0" d="M283.7,240c104.5-75.3,124.8-81.8,280.9-82.5C667.2,157.1,803.2,59.3,845.5,0C718.5,104.5,594.3,64.9,487,87.5
		S320.4,192,283.7,240z"/>
	<path class="st1" d="M289.3,335.9c115.9-81.6,138.3-88.6,310.2-87.4c112.9,0.8,263.8-105.3,311.2-170
		C769.6,192,633.3,147,514.9,170.5S330.3,283.5,289.3,335.9z"/>
	<path class="st2" d="M376,442.8c130.5-94.3,155.9-102.5,351.1-103.5c128.3-0.7,298.2-123.1,351-197.3
		C919.4,272.8,764,223.5,629.9,251.9S421.8,382.7,376,442.8z"/>
	<g>
		<path class="st3" d="M210.8,542.5v36.8H199v-91.4h29c10.4,0,18.3,2.4,23.4,7.3c5.2,4.9,7.8,11.6,7.8,20c0,8.5-2.7,15.2-8,20
			c-5.4,4.8-13.1,7.2-23.2,7.2L210.8,542.5L210.8,542.5z M242.5,528.1c3.2-3,4.7-7.3,4.7-12.8c0-5.7-1.6-10-4.7-13
			c-3.2-3-8.3-4.5-15.5-4.5h-16.2v34.8H227C234.2,532.6,239.3,531.1,242.5,528.1z"/>
		<path class="st3" d="M325.6,558.2h-40.2l-7.6,21.1h-12.7l33.8-89.6h13.3l33.7,89.6h-12.7L325.6,558.2z M322.2,549l-16.7-46.1
			L288.8,549H322.2z"/>
		<path class="st3" d="M448.4,489.5v89.8h-11.8v-71.6L408,579.3h-10.5l-28.8-71.4v71.4h-11.8v-89.8H371l31.9,75.4l31.3-75.4
			L448.4,489.5L448.4,489.5z"/>
		<path class="st3" d="M478.2,487.9v91.3h-11.8v-91.3H478.2z"/>
		<path class="st3" d="M517.9,537.7c13.4,0,28.5-5.4,28.2-22.2c-0.2-12.1-7.5-17.3-20.9-17.3H508v35.2v8.5v37.3h-11.8v-91.3h30.1
			c10.4,0,18.1,2.5,23.3,7.4c5.2,5,7.7,11.6,7.8,19.8c0.1,19.3-14.8,27.6-22.7,28.8l23.3,35.4h-13.3L517.9,537.7z"/>
		<path class="st3" d="M740.6,537.7c13.4,0,28.5-5.4,28.2-22.2c-0.2-12.1-7.5-17.3-20.9-17.3h-17.2v35.2v8.5v37.3h-11.8v-91.3H749
			c10.4,0,18.1,2.5,23.3,7.4c5.2,5,7.7,11.6,7.8,19.8c0.1,19.3-14.8,27.6-22.7,28.8l23.3,35.4h-13.3L740.6,537.7z"/>
		<path class="st3" d="M655.4,558.2h-40.2l-7.6,21.1h-12.7l33.8-89.6H642l33.7,89.6H663L655.4,558.2z M652,549l-16.7-46.1L618.6,549
			H652z"/>
		<path class="st3" d="M698.5,487.9v91.3h-11.8v-91.3H698.5z"/>
		<path class="st3" d="M903.5,487.9l-23.2,91.3h-14.4l-21.1-74.6l-21.1,74.6h-14.4L786,487.9h13.1l17.5,77.6l21.6-77.6h13.1
			l21.6,77.3l17.6-77.3H903.5z"/>
		<path class="st3" d="M969.9,558.2h-40.2l-7.6,21.1h-12.7l33.8-89.6h13.3l33.7,89.6h-12.7L969.9,558.2z M966.5,549l-16.7-46.1
			L933.1,549H966.5z"/>
		<path class="st3" d="M1066.2,487.9l-29.9,56.7v34.6h-11.9v-34.6l-30.1-56.7h13.7l22.4,44.2l22.3-44.2H1066.2z"/>
		<path class="st3" d="M1131.8,567.6c-2.1,3.7-5.2,6.7-9.5,9.1c-4.2,2.3-9.5,3.5-15.7,3.5c-6,0-11.4-1.1-16.1-3.3
			c-4.7-2.2-8.5-5.2-11.3-9.1c-2.8-3.8-4.4-8.2-4.9-13.1h12.6c0.3,2.6,1.1,5.1,2.7,7.6c1.5,2.5,3.7,4.5,6.5,6.1s6.2,2.4,10.2,2.4
			c5.2,0,9.2-1.4,11.9-4.1c2.8-2.8,4.1-6.3,4.1-10.6c0-3.7-1-6.7-2.9-9.1c-1.9-2.3-4.3-4.2-7.2-5.5c-2.8-1.3-6.7-2.8-11.7-4.3
			c-5.8-1.9-10.4-3.7-13.9-5.4c-3.5-1.7-6.5-4.2-8.9-7.6c-2.5-3.4-3.7-7.8-3.7-13.3c0-4.7,1.1-8.9,3.4-12.6c2.3-3.6,5.6-6.4,9.8-8.4
			c4.3-2,9.3-3,15.1-3c9,0,16.1,2.2,21.4,6.5c5.3,4.4,8.3,9.9,9.2,16.6h-12.7c-0.7-3.6-2.5-6.8-5.6-9.6c-3-2.8-7.1-4.1-12.3-4.1
			c-4.8,0-8.5,1.2-11.4,3.7s-4.3,5.9-4.3,10.4c0,3.5,0.9,6.4,2.8,8.6c1.9,2.2,4.2,3.9,6.9,5.2c2.8,1.3,6.6,2.7,11.4,4.2
			c5.9,1.9,10.6,3.7,14.2,5.4c3.6,1.7,6.6,4.3,9.1,7.8s3.8,8.1,3.8,13.9C1134.9,559.9,1133.9,563.9,1131.8,567.6z"/>
	</g>
	<g>
		<path class="st2" d="M49.6,642v7.4H9.2v34.8h35v7.1h-35v42H0V642H49.6z"/>
		<path class="st2" d="M72.2,726h33.2v7.3H63V642h9.2L72.2,726L72.2,726z"/>
		<path class="st2" d="M177.7,642l-29.4,55.7v35.6h-9.2v-35.6L109.6,642h10.5l23.6,46l23.6-46H177.7z"/>
		<path class="st2" d="M330.7,642l-23.6,91.3h-10.9l-22.8-78.2l-22.9,78.2h-10.8L216.1,642h10.1l19,80.1l23.1-80.1h10.2l23.1,80.2
			l19.2-80.2H330.7z"/>
		<path class="st2" d="M352.9,642v91.3h-9.2V642H352.9z"/>
		<path class="st2" d="M424.8,642v7.4h-26v83.9h-9.1v-83.9h-25.9V642H424.8z"/>
		<path class="st2" d="M503.4,642v91.3h-9.1V690h-49.5v43.3h-9.1V642h9.2v40.5h49.5V642H503.4z"/>
		<path class="st2" d="M621.7,649c7.2,5.3,12.2,12.6,15.2,22h-9.6c-2.4-6.6-6.4-11.8-12-15.7s-12.6-5.8-20.9-5.8
			c-6.3,0-12,1.6-17.2,4.7c-5.1,3.1-9.2,7.6-12.1,13.3c-2.9,5.8-4.4,12.5-4.4,20.2c0,7.7,1.5,14.4,4.4,20.1
			c2.9,5.7,7,10.2,12.1,13.3s10.9,4.7,17.2,4.7c8.3,0,15.2-1.9,20.9-5.8c5.6-3.9,9.6-9.1,12-15.7h9.6c-2.9,9.3-8,16.6-15.2,22
			c-7.2,5.3-16.2,8-27.2,8c-8.4,0-15.8-2-22.4-6c-6.6-4-11.7-9.5-15.3-16.5s-5.4-15-5.4-24c0-9.1,1.8-17.1,5.4-24.2
			c3.6-7.1,8.7-12.6,15.3-16.5s14-5.9,22.4-5.9C605.4,641.1,614.5,643.7,621.7,649z"/>
		<path class="st2" d="M716.4,646.9c6.7,4,12,9.5,15.9,16.6c3.8,7.1,5.8,15.1,5.8,24.1s-1.9,17-5.8,24.2
			c-3.8,7.1-9.1,12.7-15.9,16.6c-6.7,4-14.3,6-22.8,6s-16.1-2-22.8-6s-12-9.5-15.9-16.6c-3.8-7.1-5.8-15.2-5.8-24.2s1.9-17,5.8-24.1
			c3.8-7.1,9.1-12.6,15.9-16.6c6.7-4,14.3-6,22.8-6C702,640.9,709.6,642.9,716.4,646.9z M675.6,654c-5.3,3.1-9.5,7.6-12.6,13.3
			c-3.1,5.8-4.6,12.5-4.6,20.2c0,7.7,1.5,14.4,4.6,20.2c3.1,5.8,7.3,10.2,12.6,13.3s11.3,4.7,17.9,4.7c6.6,0,12.6-1.6,17.9-4.7
			c5.3-3.1,9.5-7.6,12.6-13.3c3.1-5.8,4.6-12.5,4.6-20.2c0-7.7-1.5-14.4-4.6-20.2c-3.1-5.8-7.3-10.2-12.6-13.3s-11.3-4.7-17.9-4.7
			C686.9,649.4,680.9,650.9,675.6,654z"/>
		<path class="st2" d="M821.7,733.3h-9.2l-50-76.3v76.3h-9.2v-91.2h9.2l50,76.4v-76.4h9.2V733.3z"/>
		<path class="st2" d="M889.7,642v7.4h-40.4v34.8h35v7.1h-35v42h-9.2V642H889.7z"/>
		<path class="st2" d="M912.2,642v91.3H903V642H912.2z"/>
		<path class="st2" d="M1000.7,712c-3.7,6.9-9.2,12.1-16.4,15.8c-7.2,3.7-15.9,5.5-26.1,5.5h-27.6V642h27.6c15.4,0,27.2,4,35.6,12.1
			c8.3,8.1,12.5,19.2,12.5,33.5C1006.3,697,1004.4,705.1,1000.7,712z M987,715.2c6.7-6.6,10.1-15.8,10.1-27.7
			c0-11.8-3.4-21.1-10.1-27.7c-6.7-6.6-16.5-9.9-29.4-9.9h-17.7V725h17.7C970.4,725.1,980.2,721.8,987,715.2z"/>
		<path class="st2" d="M1030.8,649.4v34.5h35.6v7.1h-35.6v34.8h39.5v7.5h-48.7V642h48.7v7.4H1030.8z"/>
		<path class="st2" d="M1153.2,733.3h-9.2l-50-76.3v76.3h-9.2v-91.2h9.2l50,76.4v-76.4h9.2V733.3z"/>
		<path class="st2" d="M1238.9,649c7.2,5.3,12.2,12.6,15.2,22h-9.6c-2.4-6.6-6.4-11.8-12-15.7s-12.6-5.8-20.9-5.8
			c-6.3,0-12,1.6-17.2,4.7c-5.1,3.1-9.2,7.6-12.1,13.3c-2.9,5.8-4.4,12.5-4.4,20.2c0,7.7,1.5,14.4,4.4,20.1
			c2.9,5.7,7,10.2,12.1,13.3s10.9,4.7,17.2,4.7c8.3,0,15.2-1.9,20.9-5.8c5.6-3.9,9.6-9.1,12-15.7h9.6c-2.9,9.3-8,16.6-15.2,22
			c-7.2,5.3-16.2,8-27.2,8c-8.4,0-15.8-2-22.4-6s-11.7-9.5-15.3-16.5c-3.6-7-5.4-15-5.4-24c0-9.1,1.8-17.1,5.4-24.2
			s8.7-12.6,15.3-16.5c6.6-3.9,14-5.9,22.4-5.9C1222.7,641.1,1231.8,643.7,1238.9,649z"/>
		<path class="st2" d="M1278.6,649.4v34.5h35.6v7.1h-35.6v34.8h39.5v7.5h-48.7V642h48.7v7.4H1278.6z"/>
	</g>
</g>
</svg>
