<?xml version="1.0" encoding="utf-8"?>
<!-- Generator: Adobe Illustrator 22.1.0, SVG Export Plug-In . SVG Version: 6.00 Build 0)  -->
<svg version="1.1" id="Слой_1" xmlns="http://www.w3.org/2000/svg" xmlns:xlink="http://www.w3.org/1999/xlink" x="0px" y="0px"
	 width="343.5px" height="126.9px" viewBox="0 0 343.5 126.9" style="enable-background:new 0 0 343.5 126.9;" xml:space="preserve"
	>
<style type="text/css">
	.st0{fill:#BF8A00;}
</style>
<g>
	<path class="st0" d="M0,49.6c0.2-1,0.3-1.9,0.5-2.9c0.8-5,3.1-9.4,6.3-13.3c4.2-5.1,9.6-8.7,15.7-11.6c-1.5,1.2-2.8,2.3-4.1,3.4
		c-4.2,3.7-7.6,7.8-9.9,12.9C7,41.5,6.2,45,6.3,48.7c0.1,5,1.7,9.5,4.5,13.7c3.3,4.9,7.6,8.6,12.7,11.5c5.5,3.2,11.5,5.2,17.7,6.3
		c4.7,0.8,9.4,1.3,14.2,1.1c14.4-0.5,28.1-4,40.5-11.5c5.5-3.3,10.4-7.4,14.3-12.4c0-0.1,0.1-0.1,0.3,0c-0.8,1.1-1.5,2.2-2.3,3.3
		c-5.9,7.3-13.1,12.7-21.5,16.7c-7.1,3.4-14.6,5.6-22.3,6.9c-6.2,1-12.5,1.3-18.7,1c-10.4-0.6-20.2-3.1-29.2-8.6
		C11.3,73.5,7,69.5,3.9,64.2c-2-3.5-3.3-7.1-3.6-11.2c0-0.3-0.2-0.6-0.3-0.9C0,51.2,0,50.4,0,49.6z"/>
	<path class="st0" d="M266.4,126.9c3.7-9,7.4-18.1,11.1-27.1c0.5-1.2,0.3-1.1,1.6-1.1c0.2,0,0.3,0,0.5,0c1.2,0,1.2,0,1.6,1
		c3.5,8.7,7.1,17.4,10.6,26c0.2,0.4,0.4,0.8,0.6,1.2c-1.2,0-2.4,0-3.6,0c-1-2.6-2.1-5.3-3.1-7.9c-0.2-0.6-0.6-0.8-1.3-0.8
		c-3.4,0-6.7,0-10.1,0c-0.7,0-1.1,0.2-1.3,0.9c-0.9,2.4-1.9,4.8-2.8,7.1c-0.1,0.2-0.1,0.5-0.1,0.7
		C268.8,126.9,267.6,126.9,266.4,126.9z M279.5,103c-0.1,0-0.2,0-0.3,0c-1.6,4.1-3.1,8.1-4.7,12.2c1,0.3,8.3,0.3,9.5,0
		C282.5,111.1,281,107,279.5,103z"/>
	<path class="st0" d="M306.5,126.9c0-1.1,0-2.2,0-3.4c0-5.1,0-10.1,0-15.2c0-0.4,0-0.9,0-1.4c0.7,0,1.4,0,2.2,0
		c0.2,0.9,0.5,1.9,0.8,3.1c0.4-0.4,0.6-0.6,0.9-0.9c1.8-2,4-2.8,6.8-2.8c0,1,0,1.9,0,2.8c-0.8,0.1-1.6,0.2-2.4,0.4
		c-1.7,0.3-3.3,1-4.5,2.3c-0.4,0.4-0.7,0.9-0.7,1.6c0,4.4,0,8.7,0,13.1c0,0.1,0,0.2,0.1,0.4C308.6,126.9,307.5,126.9,306.5,126.9z"
		/>
	<path class="st0" d="M296.6,126.9c0-2.9,0-5.7,0-8.6c0-3.3,0-6.6,0-9.9c0-0.4,0-0.9,0-1.4c1,0,1.9,0,3,0c0,0.4,0,0.9,0,1.3
		c0,5.7,0,11.5,0,17.2c0,0.5,0,1,0.1,1.4C298.7,126.9,297.7,126.9,296.6,126.9z"/>
	<path class="st0" d="M115.3,48c0.4-1.6,0.8-3,1.2-4.4c0.1-0.5,0.4-0.6,0.9-0.6c2.2-0.2,3-0.9,3.2-3.1c0-0.3,0.2-0.6,0.4-0.8
		c1-0.8,1.7-1.7,2.2-2.8c0.8-1.8,1.5-3.6,2.2-5.4c0.1-0.2,0.1-0.5,0.2-1c-0.6,0.3-0.9,0.5-1.3,0.8c-4,2.5-7.9,5.1-11.9,7.6
		c-0.6,0.4-1.3,0.6-2,0.6c-2.5,0-4.9-0.3-7.1-1.4c-0.1,0-0.2,0-0.6-0.1c1.2,1.3,2.5,2,4,2.8c-0.5,0.4-0.8,0.6-1.2,0.8
		c-3,1.9-6.3,3-9.7,3.6c-4.2,0.8-8.4,0.6-12.6,0.5c-0.2,0-0.3-0.1-0.5-0.1c0.1-1.1,0.3-2.2,0.3-3.3c0.1-1.1,0.1-2.1-0.1-3.2
		c-0.1,0-0.2,0-0.3,0c-0.1,0.6-0.2,1.1-0.3,1.7c-1.2,6.5-5.3,10.7-11,13.6c-2.4,1.2-5.1,1.7-7.7,2c-0.8,0.1-1.5,0.2-2.3,0.3
		c-1,0.1-1.9,0.6-2.6,1.4c-0.9,1-1.7,2-2.4,3.1c-1.4,2-2.8,4.1-4.3,6.1c-1.6,2.1-3.5,3.8-5.9,4.9c-0.9,0.4-1.7,0.7-2.9,0.8
		c0.8-1.6,1.6-3,2.3-4.4c2.6,0.4,3.3-0.1,3.6-2.4c1.7-0.8,2.9-2.3,3.9-3.9c1.3-2.1,2.5-4.2,3.7-6.3c0.3-0.5,0.5-1,0.9-1.4
		c0.2-0.3,0.6-0.6,0.9-0.7c2.9-0.7,5-2.5,6.7-4.7c0-0.1,0.1-0.1,0.1-0.2c1.7-2.3,1.6-2.3,1.2-5.1c-0.8-5.7,1.6-10.3,7.7-12
		c2-0.6,4.1-0.7,6.3-0.6c2.2,0.2,4.4,0.5,6.7,0.1s4.5-1,6.5-2.4c-0.2-0.2-0.3-0.3-0.4-0.4c-2.5-0.9-4.2-2.6-5.4-4.8
		c-1.4-2.5-2.4-5.1-3.7-7.6c-1-2-1.9-4-3.1-5.8c-1.9-2.9-4.7-4.2-8.2-3.9c-3.8,0.4-7.5,0.8-11.3,1.2c-3.5,0.4-7,0.8-10.5,1.3
		c-2.5,0.3-5.1,0.7-7.6,0.9c-3.8,0.3-7.6,0.5-11.4,0.2c-2.9-0.3-5.8-0.8-8.5-2c-1.7-0.8-3.3-1.7-4.8-3.2c0.8-0.1,1.5-0.2,2.1-0.3
		c3.3-0.2,6.6-0.3,9.9-0.5C34.9,3.3,38.9,3,43,2.8c3.8-0.2,7.6-0.5,11.4-0.7c4.5-0.3,8.9-0.6,13.4-0.9c2.5-0.1,4.9-0.2,7.4-0.3
		c2.8-0.1,5.1,1,6.7,3.2c1.2,1.6,2.3,3.3,3.3,5c1.4,2.5,2.7,5.2,4,7.8c0.9,1.6,1.8,3.2,3.1,4.5c1.9,1.8,4.2,2.1,6.4,0.6
		c1.3-0.8,2.2-1.9,2.9-3.3c0.9-1.7,1.6-3.5,2.5-5.2c1.4-2.8,2.9-5.6,4.4-8.4c0.5-1,1.3-1.9,1.9-2.9c-0.7-0.6-1.5-1.2-2.2-1.7
		c0-0.1,0.1-0.2,0.1-0.2c1,0.1,2,0.2,3,0.3c0.5,0,1,0,1.5-0.2c1.4-0.4,2.7-0.6,4.2-0.1c2.3,0.7,4.7,1,7.1,1c0.2,0,0.5,0,0.7,0
		c1.4,0.1,2.2,0.9,2.4,2.3c0.2,1-0.7,2.1-1.7,2c-1.8-0.1-3.3,0.6-4.7,1.4c-0.7,0.4-1.3,0.7-2,1.1c-1,0.5-2.1,0.8-3.2,0.7
		c-0.8-0.1-1.3,0.2-1.5,1c-0.5,1.6-1.2,3.2-1.5,4.9c-1,4.6-0.9,9.4-0.7,14.1c0,0.2,0.1,0.3,0.1,0.6c0.4-0.1,0.9-0.1,1.3-0.2
		c4.6-1,9.3-2,13.9-3.1c0.9-0.2,1.5,0.1,1.7,1c0.2,1.3,0.2,2.5-0.6,3.7c-1.6,2.6-2.9,5.3-4.5,7.9c-1.2,2-2.5,4-3.8,5.9
		C119,46,117.4,47.2,115.3,48z"/>
	<path class="st0" d="M248,52.1c2.8,0,5.4,0,8.1,0c-0.1,0.7-0.2,1.4-0.3,2.3c0.5-0.3,0.8-0.4,1.1-0.6c2.8-1.7,5.8-2.6,9.1-2.5
		c4.4,0.2,8.8,3,9.5,8.9c0.7,6.4-1.6,11.9-5.3,17c-2.3,3.3-5.3,5.9-9,7.5c-2.9,1.3-5.9,1.7-9,1.1c-1.2-0.2-2.4-0.8-3.4-1.5
		c-0.3-0.2-0.6-0.4-1-0.7c-2.6,8.9-5.2,17.6-7.8,26.3c-3.1,0-6,0-9.2,0C236.5,90.6,242.2,71.4,248,52.1z M266,63.8
		c0-0.1,0-0.2,0-0.4c0-3.4-2.1-5-5.4-4.4c-2,0.4-5.8,2.1-5.8,2.1l-5,15c0,0,1,2,4.3,2.4c2.2,0.2,4.1-0.4,5.8-1.8
		C264,73.4,265.4,68.8,266,63.8z"/>
	<path class="st0" d="M304.3,85.2H296c0,0,0.2-1.4,0.3-2.3c-1.8,1.3-7.4,3-9.4,2.9c-1.9-0.1-3.6-0.3-5.3-1c-2.1-0.9-3.3-2.6-3.6-4.7
		c-0.5-4.2,1.7-8.9,4.8-11.9c2.4-2.4,6.2-3.8,9.7-4.3c2.7-0.4,8.4,0.5,8.4,0.5s3.1-5.1-3.1-5.4c-2.2-0.1-4.4,0-6.5,0.6
		c-2,0.6-6.1,1.8-6.1,1.8l2.1-7.3c0,0,5.3-1.8,7.5-2.3c3.1-0.6,6.2-0.7,9.3,0.1c2.9,0.7,5.3,2.1,6.4,5c0.8,2.1,0.7,4.3,0,6.5
		C308.9,69.1,304.3,85.2,304.3,85.2z M295,71.1c-1.5,0-3,0.2-4.3,0.8c-1.7,0.7-2.7,1.9-3.1,3.7c-0.2,0.9,0,1.8,0.8,2.4
		c0.6,0.4,1.3,0.6,2.1,0.6c2-0.1,3.8-0.8,5.5-1.7c1.3-0.7,1.8-1.1,1.8-1.1l1-4.2C298.8,71.5,296.1,71.2,295,71.1z"/>
	<polygon class="st0" points="167.1,48.2 153,48.2 155.4,40.1 193.1,40.1 190.7,48.1 175.8,48.1 165.4,85.2 156,85.2 	"/>
	<path class="st0" d="M199.7,52.2c0,0-0.3,1.1-0.4,1.5c-1.8,6.2-3.7,12.4-5.5,18.6c-0.3,1.1-0.7,4.2,0.7,5.2
		c2.3,1.7,6.7,0.7,8.5-1.1c1.4-1.4,2.3-3.2,2.8-5.1c1.4-4.8,2.9-9.5,4.3-14.3c0.5-1.6,1.4-4.8,1.4-4.8h9.2c0,0-0.9,3.2-1.4,4.8
		c-1.7,5.7-3.5,11.4-5.3,17c-0.8,2.7-4.2,8.2-9.1,10.2c-2.6,1.2-5.3,1.8-8.2,1.9c-2,0-4.1,0.1-6.1-0.5c-3.4-1-5.9-2.9-6.6-6.5
		c-0.5-2.2-0.2-4.5,0.5-6.6c1.9-6.4,6.3-20.2,6.3-20.2L199.7,52.2z"/>
	<path class="st0" d="M228.9,85.2c-3.1,0-6.1,0-9.2,0c5.4-18,10.8-36,16.1-54c3.1,0,6.1,0,9.2,0C239.6,49.3,234.3,67.3,228.9,85.2z"
		/>
	<path class="st0" d="M330.4,55.2c3.9-3.1,13.1-3.5,13.1-3.5l-2.3,7.9c0,0-2.7-0.3-3.9-0.2c-2.8,0.2-6.8,0.7-8.7,5.3
		c-2.7,6.3-6.2,20.7-6.2,20.7h-9.1l9.8-33.2l7.6,0.1C330.7,52.1,330.5,54,330.4,55.2z"/>
	<path class="st0" d="M78.6,10.3c-1.8,0.5-3.6,1-5.3,1.4c-5.4,1.4-10.9,2.8-16.4,4.1c-3.7,0.9-7.4,1.5-11.3,1.3
		c-3.7-0.1-7.1-1.4-10.3-3.7c1.1-0.2,1.9-0.3,2.8-0.4c3.9-0.6,7.8-1.1,11.7-1.7c3.7-0.6,7.3-1.2,11-1.8c3.1-0.5,6.3-0.9,9.5-1.3
		C71.7,8,73.1,7.9,74.5,8c0.9,0,1.8,0.4,2.6,0.8C77.7,9,78.3,9.5,78.6,10.3z"/>
	<path class="st0" d="M65.8,35.8c-3-1.1-5.9-0.7-8.8,0.1c-3,0.7-6,1.5-9,2.1c-7.6,1.5-14-0.7-19.1-6.7c-0.3-0.4-0.7-0.8-0.9-1.3
		c0.3,0.2,0.7,0.4,1,0.5c4,2.1,8.2,2.7,12.5,2c3.4-0.6,6.7-1.4,10.1-2.1c2.9-0.6,5.8-0.8,8.6,0.3c2.2,0.9,4,2.3,5.5,4.1
		c0.2,0.2,0.2,0.5,0.3,0.8C66,35.6,65.9,35.7,65.8,35.8z"/>
	<path class="st0" d="M48.7,20.9c4.9-1.3,9.7-2.6,14.6-3.9c4.1-1.1,8.2-2.2,12.4-3.2c1.1-0.3,2.3-0.4,3.4-0.4c1.2,0,2.1,0.5,2.7,1.7
		c-0.3,0.1-0.5,0.3-0.7,0.3c-4.3,1.7-8.6,3.4-12.9,5c-2.8,1.1-5.8,1.9-8.8,2.3c-3.6,0.4-7.1,0-10.4-1.7C48.9,21.1,48.9,21,48.7,20.9
		z"/>
	<path class="st0" d="M61.9,25.9c1.2-0.5,2.2-0.9,3.2-1.3c4.1-1.6,8.2-3.3,12.3-4.9c1.3-0.5,2.7-1,4.2-1c1.2,0,1.4,0.2,2,1.3
		c0,0.1-0.1,0.2-0.1,0.2c-3.8,2-7.5,4.1-11.5,5.7c-1.9,0.7-3.9,1.2-6,1.1C64.7,26.9,63.4,26.6,61.9,25.9z"/>
	<path class="st0" d="M100.5,13c-0.9-0.2-1.8-0.4-2.7-0.6c-0.2-0.1-0.4-0.2-0.8-0.4c3-1.5,4.4-4.5,6.9-6.4c-0.6-0.3-1.1-0.6-1.6-0.9
		c1.7-0.8,3.4-1.6,5-2.4c0.4-0.2,0.9-0.6,1.2,0c0,0.1,0,0.2,0,0.2c-2.4,2.7-3.9,6-5.4,9.3c-0.9,1.9-1.8,3.8-2.7,5.6
		c-0.4,0.8-1.1,1.6-1.7,2.3c-1.1,1.1-2.6,1.2-3.9,0.6c0-0.1,0-0.2,0-0.2c1.4-0.9,2.4-2.2,3.2-3.6c0.7-1.1,1.5-2,2.3-3
		C100.3,13.2,100.4,13.1,100.5,13z"/>
	<path class="st0" d="M72.9,28.1c3-1.4,5.8-2.7,8.6-4c0.6-0.3,1.2-0.4,1.8-0.5c1.1-0.2,2.1,0.1,2.9,1.1c-2.3,1.3-4.3,3.1-6.8,3.8
		C77.3,29,75.3,28.7,72.9,28.1z"/>
	<path class="st0" d="M299.6,101.8c-1,0-2,0-3.1,0c0-1.1,0-2.1,0-3.2c1,0,2,0,3.1,0C299.6,99.7,299.6,100.7,299.6,101.8z"/>
	<path class="st0" d="M83.4,28.9c0.9-0.5,1.6-0.9,2.3-1.3c1.5-0.8,2.6-0.6,4,0.8C87.6,29,85.7,29.4,83.4,28.9z"/>
</g>
</svg>
