<?xml version="1.0" encoding="utf-8"?>
<!-- Generator: Adobe Illustrator 22.1.0, SVG Export Plug-In . SVG Version: 6.00 Build 0)  -->
<svg version="1.1" id="Слой_1" xmlns="http://www.w3.org/2000/svg" xmlns:xlink="http://www.w3.org/1999/xlink" x="0px" y="0px"
	 width="86.363px" height="23px" viewBox="0 0 86.363 23" style="enable-background:new 0 0 86.363 23;" xml:space="preserve">
<style type="text/css">
	.st0{fill:#174699;}
</style>
<g>
	<path class="st0" d="M50.521,20.163h0.694v2.766h-0.694v-0.292c-0.135,0.128-0.271,0.222-0.407,0.279
		c-0.141,0.058-0.291,0.086-0.443,0.085c-0.357,0-0.666-0.139-0.927-0.416c-0.261-0.277-0.391-0.622-0.391-1.033
		c0-0.427,0.126-0.777,0.378-1.05c0.252-0.273,0.559-0.409,0.919-0.409c0.166,0,0.321,0.031,0.467,0.094
		c0.145,0.063,0.28,0.157,0.403,0.282V20.163z M49.792,20.731c-0.215,0-0.393,0.077-0.535,0.228
		c-0.142,0.152-0.213,0.346-0.213,0.583c0,0.239,0.072,0.436,0.217,0.59c0.144,0.154,0.322,0.231,0.533,0.231
		c0.218,0,0.398-0.075,0.542-0.227c0.144-0.151,0.215-0.35,0.215-0.596c0-0.241-0.072-0.436-0.215-0.584
		C50.193,20.807,50.011,20.732,49.792,20.731 M51.917,22.928v-2.766h1.111c0.364,0,0.612,0.072,0.743,0.215
		c0.13,0.143,0.195,0.306,0.195,0.487c0,0.269-0.134,0.463-0.402,0.582c0.366,0.125,0.549,0.362,0.549,0.709
		c0,0.188-0.048,0.343-0.145,0.466c-0.097,0.123-0.219,0.205-0.367,0.246c-0.148,0.04-0.356,0.061-0.622,0.061H51.917L51.917,22.928
		z M52.611,21.251h0.268c0.114,0,0.202-0.029,0.264-0.085c0.062-0.057,0.093-0.12,0.093-0.19c0-0.104-0.029-0.184-0.089-0.241
		c-0.056-0.056-0.132-0.088-0.212-0.087l-0.089,0.003h-0.235L52.611,21.251L52.611,21.251z M52.611,22.394h0.349
		c0.136,0,0.231-0.032,0.287-0.095c0.055-0.063,0.083-0.126,0.083-0.186c0-0.091-0.033-0.178-0.093-0.247
		c-0.062-0.075-0.174-0.112-0.336-0.112h-0.291V22.394z M55.069,22.928H54.7v-2.766h0.676v1.625l1.416-1.625h0.333v2.766h-0.677
		v-1.591L55.069,22.928z M59.868,20.163h0.694v2.766h-0.694v-0.292c-0.135,0.128-0.271,0.222-0.408,0.279
		c-0.141,0.058-0.291,0.086-0.443,0.085c-0.357,0-0.666-0.139-0.927-0.416c-0.261-0.277-0.391-0.622-0.391-1.033
		c0-0.427,0.126-0.777,0.378-1.05c0.252-0.273,0.558-0.409,0.919-0.409c0.166,0,0.321,0.031,0.467,0.094
		c0.145,0.063,0.28,0.157,0.403,0.282V20.163z M59.138,20.731c-0.214,0-0.393,0.077-0.535,0.228
		c-0.142,0.152-0.213,0.346-0.213,0.583c0,0.239,0.072,0.436,0.217,0.59c0.144,0.154,0.322,0.231,0.534,0.231
		c0.217,0,0.398-0.075,0.542-0.227c0.144-0.151,0.215-0.35,0.215-0.596c0-0.241-0.072-0.436-0.215-0.584
		C59.54,20.807,59.358,20.732,59.138,20.731 M61.264,20.163h0.694v1.035l0.955-1.035h0.847l-1.231,1.348l1.247,1.418h-0.921
		l-0.824-0.977l-0.073,0.087v0.89h-0.694V20.163z M65.358,20.091c0.261,0,0.507,0.066,0.736,0.196
		c0.224,0.125,0.41,0.309,0.537,0.531c0.129,0.224,0.193,0.465,0.193,0.724c0.001,0.257-0.066,0.51-0.195,0.733
		c-0.125,0.222-0.308,0.406-0.53,0.532c-0.225,0.129-0.48,0.195-0.74,0.192c-0.397,0-0.735-0.141-1.015-0.423
		c-0.28-0.282-0.421-0.625-0.421-1.028c0-0.432,0.159-0.792,0.475-1.08C64.678,20.217,64.997,20.091,65.358,20.091 M65.37,20.745
		c-0.203-0.005-0.399,0.077-0.538,0.225c-0.144,0.151-0.215,0.342-0.215,0.576c0,0.241,0.071,0.436,0.213,0.584
		c0.142,0.149,0.321,0.225,0.538,0.225c0.217,0,0.398-0.076,0.542-0.227c0.144-0.151,0.217-0.345,0.217-0.582
		c0-0.237-0.071-0.43-0.213-0.578C65.772,20.819,65.59,20.745,65.37,20.745 M69.084,21.907l0.849-1.745h0.458l0.692,2.766h-0.678
		l-0.37-1.623l-0.823,1.623h-0.285l-0.806-1.624l-0.372,1.624h-0.676l0.692-2.766h0.458L69.084,21.907z M72.161,22.928h-0.694
		v-2.766h2.425v2.766h-0.694v-2.097h-1.037L72.161,22.928z M76.634,20.163h0.694v2.766h-0.694v-0.292
		c-0.135,0.128-0.271,0.222-0.408,0.279c-0.141,0.058-0.291,0.086-0.443,0.085c-0.357,0-0.666-0.139-0.927-0.416
		c-0.26-0.277-0.391-0.622-0.391-1.033c0-0.427,0.126-0.777,0.378-1.05c0.252-0.273,0.559-0.409,0.919-0.409
		c0.166,0,0.321,0.031,0.467,0.094c0.152,0.067,0.289,0.163,0.404,0.282L76.634,20.163L76.634,20.163z M75.905,20.731
		c-0.214,0-0.393,0.077-0.535,0.228c-0.142,0.152-0.213,0.346-0.213,0.583c0,0.239,0.072,0.436,0.217,0.59
		c0.144,0.154,0.322,0.231,0.534,0.231c0.217,0,0.398-0.075,0.542-0.227c0.144-0.151,0.215-0.35,0.215-0.596
		c0-0.241-0.072-0.436-0.215-0.584C76.306,20.807,76.125,20.732,75.905,20.731 M78.722,21.159h1.037v-0.997h0.694v2.766h-0.694
		v-1.147h-1.037v1.147h-0.694v-2.766h0.694V21.159z M81.52,22.928h-0.368v-2.766h0.676v1.625l1.416-1.625h0.333v2.766h-0.676v-1.591
		L81.52,22.928z M84.75,21.794c-0.15-0.049-0.28-0.147-0.369-0.278c-0.095-0.135-0.146-0.296-0.144-0.461
		c0-0.206,0.059-0.385,0.176-0.539c0.117-0.154,0.256-0.251,0.419-0.292c0.161-0.041,0.414-0.061,0.758-0.061h0.701v2.766h-0.694
		v-1.002h-0.135l-0.661,1.002H83.98L84.75,21.794L84.75,21.794z M85.597,21.406v-0.663h-0.242c-0.264,0-0.395,0.11-0.395,0.33
		c0,0.222,0.147,0.333,0.441,0.333H85.597L85.597,21.406z M0,0h8.098v2.749H5.429v11.903h-2.83V2.749H0V0z M9.366,3.815h2.779
		l2.815,6.8l3.106-6.8h2.787l-6.788,14.802h-2.808l2.229-4.773L9.366,3.815z M25.958,3.815V5.01c0.491-0.491,1.022-0.86,1.594-1.106
		c0.571-0.246,1.182-0.369,1.833-0.369c1.415,0,2.616,0.534,3.606,1.604c0.989,1.07,1.484,2.441,1.484,4.114
		c0,1.614-0.511,2.964-1.534,4.05c-1.022,1.085-2.235,1.628-3.636,1.628c-0.624,0-1.205-0.111-1.743-0.333
		c-0.538-0.222-1.073-0.586-1.604-1.091v5.11h-2.7V3.815H25.958z M28.817,6.047c-0.856,0-1.567,0.292-2.131,0.876
		c-0.565,0.585-0.847,1.348-0.847,2.291c0,0.962,0.282,1.741,0.847,2.336c0.564,0.595,1.275,0.892,2.131,0.892
		c0.83,0,1.529-0.302,2.097-0.907c0.569-0.604,0.852-1.375,0.852-2.31c0-0.93-0.279-1.692-0.837-2.287
		C30.371,6.344,29.667,6.047,28.817,6.047 M36.38,3.815h2.779l2.815,6.8l3.106-6.8h2.787L41.08,18.617h-2.808l2.229-4.773
		L36.38,3.815z M49.297,3.815h3.158l2.142,2.954l2.131-2.954h3.105l-3.679,5.1l4.161,5.738h-3.158l-2.578-3.556l-2.565,3.556h-3.105
		l4.113-5.702L49.297,3.815z M70.554,3.815h2.719v10.837h-2.719v-1.146c-0.53,0.505-1.063,0.869-1.597,1.091
		s-1.113,0.333-1.736,0.333c-1.4,0-2.61-0.543-3.631-1.628c-1.022-1.086-1.532-2.436-1.532-4.05c0-1.673,0.494-3.044,1.482-4.113
		c0.988-1.07,2.189-1.604,3.602-1.604c0.65,0,1.26,0.123,1.83,0.369c0.571,0.246,1.098,0.615,1.582,1.106L70.554,3.815L70.554,3.815
		z M67.695,6.047c-0.841,0-1.539,0.297-2.095,0.891c-0.556,0.595-0.834,1.357-0.834,2.287c0,0.936,0.283,1.707,0.849,2.31
		c0.566,0.605,1.263,0.907,2.09,0.907c0.854,0,1.562-0.297,2.124-0.892c0.563-0.595,0.844-1.373,0.844-2.336
		c0-0.943-0.281-1.707-0.844-2.291C69.267,6.339,68.556,6.047,67.695,6.047 M79.58,7.72h4.064V3.815h2.719v10.837h-2.719V10.16
		H79.58v4.493H76.86V3.815h2.719V7.72z"/>
</g>
</svg>
