<?xml version="1.0" encoding="utf-8"?>
<!-- Generator: Adobe Illustrator 23.0.5, SVG Export Plug-In . SVG Version: 6.00 Build 0)  -->
<svg version="1.1" id="Layer_1" xmlns="http://www.w3.org/2000/svg" xmlns:xlink="http://www.w3.org/1999/xlink" x="0px" y="0px"
	 viewBox="0 0 413.5 59.5" style="enable-background:new 0 0 413.5 59.5;" xml:space="preserve">
<style type="text/css">
	.st0{fill-rule:evenodd;clip-rule:evenodd;fill:#4D64AA;}
	.st1{fill-rule:evenodd;clip-rule:evenodd;fill:#AFAFAF;}
</style>
<g>
	<path class="st0" d="M96.3,0.7H0v5.9h90.8C91.4,5.4,92,4.7,93,3.7C94,2.5,95.1,1.5,96.3,0.7z M88.7,12.5H0v5.8h88l0-0.6
		C87.9,15.6,88.2,14.4,88.7,12.5z M0,29.9h93.6c-0.3-0.2-0.5-0.4-0.8-0.6c-2-1.7-2.5-2.6-3.7-5.1L0,24V29.9z"/>
	<path d="M348.8,51.3v-4.5h-2.7c-1.9,0-2.9,0.7-2.9,2.2c0,1.6,0.9,2.3,2.8,2.3H348.8z M351.1,59.2h-2.3v-6h-1.9
		c-0.9,0-1.8,0.7-2.5,2.3l-1.9,3.7h-2.7l2.4-4.4c0.6-1,1.2-1.7,2-2c-1.1-0.1-2-0.6-2.6-1.2c-0.6-0.7-0.9-1.5-0.9-2.5
		c0-1.3,0.5-2.3,1.4-3c0.9-0.7,2.2-1.1,3.9-1.1h5V59.2z M330.2,59.2h-2.1V47.7c-0.2,0.4-0.5,1-0.9,1.7l-6.7,9.8h-2.4V44.8h2.1v11.4
		c0.1-0.3,0.4-0.7,0.7-1.4l6.8-10h2.4V59.2z M307.1,59.2h-2.3v-6.5h-7.3v6.5h-2.3V44.8h2.3v5.9h7.3v-5.9h2.3V59.2z M282.1,51.9
		l-3.5,0.5c-1.1,0.1-1.9,0.4-2.4,0.8c-0.5,0.4-0.8,1.1-0.8,2c0,0.7,0.2,1.3,0.8,1.7c0.5,0.4,1.2,0.7,2,0.7c1.1,0,2.1-0.4,2.8-1.2
		c0.7-0.8,1.1-1.8,1.1-3.1V51.9z M284.4,59.2h-2.3v-2.3h-0.1c-1,1.7-2.5,2.6-4.4,2.6c-1.4,0-2.6-0.4-3.4-1.1c-0.8-0.8-1.2-1.8-1.2-3
		c0-2.7,1.6-4.3,4.8-4.7l4.3-0.6c0-2.4-1-3.7-3-3.7c-1.7,0-3.3,0.6-4.7,1.8v-2.4c1.4-0.9,3-1.3,4.9-1.3c3.4,0,5.1,1.8,5.1,5.4V59.2z
		 M263.1,59.2h-2.3V46.7h-7.3v12.4h-2.3V44.8h12V59.2z M240.1,59.2h-2.3V47.3c-0.2,0.6-0.5,1.5-1,2.6l-3.6,9.2h-2.1l-3.7-9.2
		c-0.2-0.5-0.5-1.4-1-2.6v11.9h-2V44.8h2.9l3.8,9.4c0.3,0.7,0.6,1.6,1,2.8l1-2.8l3.7-9.5h3.1V59.2z M207.4,46.4
		c-1.5,0-2.7,0.5-3.5,1.5c-0.9,1-1.3,2.4-1.3,4.2c0,1.7,0.4,3,1.3,4c0.9,1,2,1.5,3.5,1.5c1.5,0,2.6-0.5,3.4-1.5s1.2-2.3,1.2-4.1
		c0-1.8-0.4-3.2-1.2-4.2C210.1,46.8,208.9,46.4,207.4,46.4z M207.3,59.5c-2.1,0-3.8-0.7-5.1-2c-1.3-1.3-1.9-3.1-1.9-5.4
		c0-2.4,0.7-4.3,2-5.7c1.3-1.4,3.1-2,5.4-2c2.1,0,3.8,0.7,5,2c1.2,1.3,1.8,3.2,1.8,5.5c0,2.3-0.6,4.1-1.9,5.5
		C211.2,58.8,209.5,59.5,207.3,59.5z M193.1,59.2h-3.2l-6.4-6.9h-0.1v6.9h-2.3V44.8h2.3v6.6h0.1l6-6.6h3l-6.7,6.9L193.1,59.2z
		 M168.1,51.9l-3.5,0.5c-1.1,0.1-1.9,0.4-2.4,0.8c-0.5,0.4-0.8,1.1-0.8,2c0,0.7,0.3,1.3,0.8,1.7c0.5,0.4,1.2,0.7,2,0.7
		c1.1,0,2.1-0.4,2.8-1.2c0.7-0.8,1.1-1.8,1.1-3.1V51.9z M170.4,59.2h-2.3v-2.3h-0.1c-1,1.7-2.5,2.6-4.4,2.6c-1.4,0-2.6-0.4-3.4-1.1
		c-0.8-0.8-1.2-1.8-1.2-3c0-2.7,1.6-4.3,4.8-4.7l4.3-0.6c0-2.4-1-3.7-3-3.7c-1.7,0-3.3,0.6-4.7,1.8v-2.4c1.4-0.9,3-1.3,4.9-1.3
		c3.4,0,5.1,1.8,5.1,5.4V59.2z M149.1,59.2H147V47.7c-0.2,0.4-0.5,1-0.9,1.7l-6.7,9.8H137V44.8h2.1v11.4c0.1-0.3,0.4-0.7,0.7-1.4
		l6.8-10h2.4V59.2z M117.7,52.7v4.4h4c1.9,0,2.8-0.8,2.8-2.3c0-1.5-1-2.2-3.1-2.2H117.7z M117.7,46.7v4.1h3.5c1.9,0,2.8-0.7,2.8-2.2
		c0-1.3-0.8-1.9-2.5-1.9H117.7z M115.4,59.2V44.8h6.3c1.4,0,2.5,0.3,3.4,0.9c0.8,0.6,1.2,1.5,1.2,2.6c0,1.9-0.9,3-2.8,3.4
		c2.2,0.3,3.3,1.4,3.3,3.3c0,1.2-0.5,2.2-1.4,3c-0.9,0.8-2,1.2-3.4,1.2H115.4z M102.3,51.9l-3.5,0.5c-1.1,0.1-1.9,0.4-2.4,0.8
		c-0.5,0.4-0.8,1.1-0.8,2c0,0.7,0.3,1.3,0.8,1.7c0.5,0.4,1.2,0.7,2,0.7c1.1,0,2.1-0.4,2.8-1.2c0.7-0.8,1.1-1.8,1.1-3.1V51.9z
		 M104.6,59.2h-2.3v-2.3h-0.1c-1,1.7-2.5,2.6-4.4,2.6c-1.4,0-2.6-0.4-3.4-1.1c-0.8-0.8-1.2-1.8-1.2-3c0-2.7,1.6-4.3,4.8-4.7l4.3-0.6
		c0-2.4-1-3.7-3-3.7c-1.7,0-3.3,0.6-4.7,1.8v-2.4c1.4-0.9,3-1.3,4.9-1.3c3.4,0,5.1,1.8,5.1,5.4V59.2z"/>
	<path class="st1" d="M385.4,29.8c-1.7,6.6-4.4,5.6-7.9,5.9h-15.7l5.1-29.2h46.6c-2.1,5.4-1.8,5.8-12.3,5.8h-26.3l-1.1,5.9h24.4
		c-1.1,4.9,0.2,5.8-8,5.8h-17.4l-1,5.7H385.4z"/>
	<path class="st0" d="M381.3,24c-1.7,6.6-4.4,5.6-7.9,5.9h-15.7l5.1-29.2h46.6c-2.1,5.4-1.8,5.8-12.3,5.8h-26.3l-1.1,5.7H394
		c-1.1,4.9,0.2,6-8,6h-17.4l-1,5.7H381.3z M338.6,23.6h4.4c2.6,0,4-1.2,4-3.6c0-1.8-1.2-2.7-3.5-2.7h-3.8L338.6,23.6z M328.9,29.9
		L334,0.8h8.6l-1.8,10.3h4.4c3,0,5.3,0.3,6.7,0.9c1.5,0.6,2.6,1.5,3.3,2.7c0.7,1.2,1.1,2.7,1.1,4.4c0,2.9-0.9,5.5-2.8,7.6
		c-1.9,2.1-5.3,3.2-10.3,3.2H328.9z M245,21l-8.6-20.2h9.6l3.8,11.6l6.6-11.6h8.4l-11.9,20.5c-1.9,3.2-3.2,5.1-4.1,5.8
		c-0.9,0.7-2,1.4-3.4,2c-1.4,0.6-3.3,0.9-5.9,0.9h-4.5l1.1-6.4h2.9c1.4,0,2.5-0.2,3.4-0.5C243.4,22.8,244.3,22.1,245,21z
		 M216.7,23.6h4.8c1.2,0,2.1-0.3,2.7-0.9c0.5-0.6,0.8-1.3,0.8-2.1c0-1.7-1.4-2.5-4.1-2.5h-3.2L216.7,23.6z M207,29.9l5.1-29.2h22
		l-1,6h-13.3l-1,5.5h4.1c2.6,0,4.6,0.2,6.2,0.7c1.6,0.4,2.8,1.3,3.8,2.5c1,1.2,1.5,2.7,1.5,4.5c0,1.8-0.5,3.6-1.5,5.4
		c-1,1.8-2.5,3-4.6,3.7c-2.1,0.7-4.1,1-6.1,1H207z"/>
	<path class="st0" d="M288.1,5.4c-0.7-1.2-1.6-2.2-2.7-2.9c-1.2-0.7-2.3-1.2-3.4-1.4c-1.1-0.2-2.8-0.3-5.2-0.3h-10.1l-5.1,29.2h8.9
		l1.9-10.7h5.9c3.5,0,6.1-1,8-2.9c1.9-1.9,2.8-4.2,2.8-7C289.2,7.9,288.8,6.6,288.1,5.4z M275.6,13h-2.1l1-5.9h1.9
		c2.7,0,4,0.9,4,2.8C280.4,11.9,278.8,13,275.6,13z"/>
	<polygon class="st0" points="329.9,0.8 319,14.7 326.8,29.9 317.6,29.9 311.4,17.7 310.1,18.1 308,29.9 300.3,29.9 302.3,18.1 
		301.2,17.7 291.2,29.9 282.5,29.9 294.8,14.6 289.1,0.8 298,0.8 302.1,12.7 303.2,13 305.4,0.8 313.1,0.8 311,13.1 312.2,12.8 
		321.3,0.8 	"/>
	<polygon class="st0" points="195.7,18.2 187.8,18.2 185.7,29.9 176.9,29.9 182,0.8 190.8,0.8 189,11.5 196.9,11.5 198.8,0.8 
		207.6,0.8 202.5,29.9 193.7,29.9 	"/>
	<path class="st0" d="M118.8,3.6c-2.5-2.4-5.6-3.6-9.4-3.6c-4.8,0-8.7,1.7-11.6,5.1c-3,3.4-4.4,7.6-4.4,12.4c0,4.2,1.3,7.5,4,9.7
		c2.6,2.3,5.8,3.4,9.4,3.4c4.7,0,8.5-1.7,11.4-5.2c2.9-3.4,4.4-7.6,4.4-12.5C122.5,9.1,121.2,6,118.8,3.6z M112.3,16.3
		c-0.5,2.5-1.1,4.3-1.9,5.6c-0.8,1.3-2,1.9-3.6,1.9c-2.6,0-3.9-1.5-3.9-4.5c0-2.3,0.5-5,1.4-8.1c0.9-3,2.5-4.5,4.8-4.5
		c1.2,0,2.2,0.4,2.9,1.2c0.7,0.8,1.1,1.9,1.1,3.4C113,12.2,112.7,13.9,112.3,16.3z"/>
	<polygon class="st0" points="174.4,23.2 173.3,29.9 150.8,29.9 155.9,0.8 177.8,0.8 176.7,7.2 163.6,7.2 162.8,11.7 173.8,11.7 
		172.7,18.1 161.7,18.1 160.8,23.2 	"/>
	<path class="st0" d="M149.7,5.1c-0.7-1.1-1.5-1.9-2.6-2.6c-1.2-0.7-2.3-1.2-3.4-1.4c-1.1-0.2-2.8-0.3-5.2-0.3h-10.1l-5.1,29.2h8.9
		l1.9-10.7h5.9c3.5,0,6.1-1,8-2.9c1.6-1.7,2.5-3.7,2.7-6C151.1,8.5,150.7,6.6,149.7,5.1z M137.4,13h-2.1l1-5.9h1.9
		c2.7,0,4,0.9,4,2.8C142.2,11.9,140.6,13,137.4,13z"/>
</g>
</svg>
