<?xml version="1.0" encoding="utf-8"?>
<!-- Generator: Adobe Illustrator 23.0.5, SVG Export Plug-In . SVG Version: 6.00 Build 0)  -->
<svg version="1.1" id="Layer_1" xmlns="http://www.w3.org/2000/svg" xmlns:xlink="http://www.w3.org/1999/xlink" x="0px" y="0px"
	 viewBox="0 0 365.8 365.8" style="enable-background:new 0 0 365.8 365.8;" xml:space="preserve">
<style type="text/css">
	.st0{fill-rule:evenodd;clip-rule:evenodd;fill:#2D4E9E;}
	.st1{clip-path:url(#SVGID_2_);}
	.st2{fill:url(#SVGID_3_);}
	.st3{fill-rule:evenodd;clip-rule:evenodd;fill:#FFFFFF;}
	.st4{clip-path:url(#SVGID_5_);}
	.st5{clip-path:url(#SVGID_7_);}
	.st6{clip-path:url(#SVGID_9_);}
	.st7{clip-path:url(#SVGID_11_);}
	.st8{fill:url(#SVGID_12_);}
	.st9{clip-path:url(#SVGID_14_);}
	.st10{fill:url(#SVGID_15_);}
	.st11{clip-path:url(#SVGID_17_);}
	.st12{fill:url(#SVGID_18_);}
	.st13{clip-path:url(#SVGID_20_);}
	.st14{fill:url(#SVGID_21_);}
	.st15{fill-rule:evenodd;clip-rule:evenodd;fill:#1B2C69;}
	.st16{fill-rule:evenodd;clip-rule:evenodd;fill:#D0D1D3;}
	.st17{clip-path:url(#SVGID_23_);}
	.st18{fill:url(#SVGID_24_);}
	.st19{clip-path:url(#SVGID_26_);}
	.st20{fill:url(#SVGID_27_);}
	.st21{fill:#354F6D;}
	.st22{fill-rule:evenodd;clip-rule:evenodd;fill:#354F6D;}
	.st23{fill:#304196;}
</style>
<path class="st0" d="M182.9,0c5.5,0,10.9,0.2,16.2,0.7C293.5,9,365.9,88.1,365.8,182.9c0,101-81.9,182.9-182.9,182.9
	S0,283.9,0,182.9C-0.3,89.4,70.2,10.7,163.3,1C169.8,0.4,176.4,0,182.9,0"/>
<g>
	<defs>
		<path id="SVGID_1_" d="M9.1,182.9c0,96,77.8,173.9,173.8,173.9c96,0,173.9-77.8,173.9-173.8S279,9.1,182.9,9.1c0,0,0,0,0,0
			C86.9,9.1,9.1,86.9,9.1,182.9"/>
	</defs>
	<clipPath id="SVGID_2_">
		<use xlink:href="#SVGID_1_"  style="overflow:visible;"/>
	</clipPath>
	<g class="st1">
		
			<linearGradient id="SVGID_3_" gradientUnits="userSpaceOnUse" x1="182.905" y1="51.3413" x2="182.905" y2="160.9713" gradientTransform="matrix(1 0 0 -1 0 367.2912)">
			<stop  offset="0" style="stop-color:#67BDDB"/>
			<stop  offset="1" style="stop-color:#FFFFFF"/>
		</linearGradient>
		<rect x="9.1" y="9" class="st2" width="347.7" height="347.7"/>
	</g>
</g>
<path class="st3" d="M182.9,52.2c-72.2,0-130.7,58.5-130.7,130.7s58.5,130.7,130.7,130.7s130.7-58.5,130.7-130.7l0,0
	C313.6,110.7,255.1,52.2,182.9,52.2C182.9,52.2,182.9,52.2,182.9,52.2 M182.9,45.6c-75.8,0-137.3,61.4-137.3,137.2
	s61.4,137.3,137.2,137.3s137.3-61.4,137.3-137.2c0,0,0,0,0,0C320.1,107.1,258.7,45.7,182.9,45.6L182.9,45.6z"/>
<g>
	<defs>
		<path id="SVGID_4_" d="M313.6,182.8v0.1c0,72.2-58.6,130.7-130.8,130.7S52.2,255,52.2,182.8S110.8,52.1,183,52.2
			C255.1,52.2,313.6,110.7,313.6,182.8"/>
	</defs>
	<clipPath id="SVGID_5_">
		<use xlink:href="#SVGID_4_"  style="overflow:visible;"/>
	</clipPath>
	<g class="st4">
		<g>
			<defs>
				
					<rect id="SVGID_6_" x="45.1" y="46.1" transform="matrix(0.9988 -4.993762e-02 4.993762e-02 0.9988 -8.9364 9.3439)" width="274.8" height="274.8"/>
			</defs>
			<clipPath id="SVGID_7_">
				<use xlink:href="#SVGID_6_"  style="overflow:visible;"/>
			</clipPath>
			<g class="st5">
				<g>
					<defs>
						
							<rect id="SVGID_8_" x="31.4" y="31.4" transform="matrix(0.9987 -5.111586e-02 5.111586e-02 0.9987 -9.0968 9.573)" width="302.5" height="302.5"/>
					</defs>
					<clipPath id="SVGID_9_">
						<use xlink:href="#SVGID_8_"  style="overflow:visible;"/>
					</clipPath>
					<g class="st6">
						
							<image style="overflow:visible;enable-background:new    ;" width="1325" height="1325" xlink:href="1E3343477CC949C2.png"  transform="matrix(0.24 0 0 0.24 23.67 23.6398)">
						</image>
					</g>
				</g>
			</g>
		</g>
	</g>
</g>
<g>
	<defs>
		<path id="SVGID_10_" d="M313.6,182.9c0,72.2-58.5,130.7-130.7,130.7c-59.5,0-111.5-40.2-126.5-97.8c33.9-43.8,71.2-41,110.8-38.2
			c42.7,3,88,6,134.5-49.4C309.6,145.4,313.7,164,313.6,182.9"/>
	</defs>
	<clipPath id="SVGID_11_">
		<use xlink:href="#SVGID_10_"  style="overflow:visible;"/>
	</clipPath>
	<g class="st7">
		
			<linearGradient id="SVGID_12_" gradientUnits="userSpaceOnUse" x1="328.5885" y1="192.9459" x2="41.4215" y2="99.7568" gradientTransform="matrix(1 0 0 -1 0 367.2912)">
			<stop  offset="0" style="stop-color:#DBDCDD"/>
			<stop  offset="0.17" style="stop-color:#FFFFFF"/>
			<stop  offset="0.48" style="stop-color:#C2C4D2"/>
			<stop  offset="0.79" style="stop-color:#FFFFFF"/>
			<stop  offset="1" style="stop-color:#CFDCE5"/>
		</linearGradient>
		<rect x="56.4" y="128.2" class="st8" width="257.2" height="185.4"/>
	</g>
</g>
<g>
	<defs>
		<path id="SVGID_13_" d="M313.6,182.9c0,72.2-58.6,130.7-130.8,130.7c-50.7,0-96.9-29.4-118.4-75.3c36-44.1,73.7-39.7,113.7-35.2
			c41.8,4.6,86.1,9.2,133.7-41.4C313.1,168.7,313.6,175.8,313.6,182.9"/>
	</defs>
	<clipPath id="SVGID_14_">
		<use xlink:href="#SVGID_13_"  style="overflow:visible;"/>
	</clipPath>
	<g class="st9">
		
			<linearGradient id="SVGID_15_" gradientUnits="userSpaceOnUse" x1="324.3032" y1="167.4159" x2="53.8368" y2="91.8968" gradientTransform="matrix(1 0 0 -1 0 367.2912)">
			<stop  offset="0" style="stop-color:#CC2128"/>
			<stop  offset="0.14" style="stop-color:#D5652B"/>
			<stop  offset="0.27" style="stop-color:#CC2128"/>
			<stop  offset="0.35" style="stop-color:#96161B"/>
			<stop  offset="0.48" style="stop-color:#CC2128"/>
			<stop  offset="0.71" style="stop-color:#D5652B"/>
			<stop  offset="0.84" style="stop-color:#CC2128"/>
			<stop  offset="1" style="stop-color:#96161B"/>
		</linearGradient>
		<rect x="64.5" y="161.6" class="st10" width="249.1" height="152"/>
	</g>
</g>
<g>
	<defs>
		<path id="SVGID_16_" d="M312.4,201c-10,71.5-76.1,121.4-147.6,111.4c-37.2-5.2-70.3-26.1-91-57.5c35.7-34.7,71.1-28.9,108.5-23.1
			C222.3,238,264.8,244.2,312.4,201"/>
	</defs>
	<clipPath id="SVGID_17_">
		<use xlink:href="#SVGID_16_"  style="overflow:visible;"/>
	</clipPath>
	<g class="st11">
		
			<linearGradient id="SVGID_18_" gradientUnits="userSpaceOnUse" x1="338.6095" y1="146.0035" x2="68.0195" y2="79.0235" gradientTransform="matrix(1 0 0 -1 0 367.2912)">
			<stop  offset="0" style="stop-color:#2B8B4A"/>
			<stop  offset="0.12" style="stop-color:#64B053"/>
			<stop  offset="0.19" style="stop-color:#78B652"/>
			<stop  offset="0.33" style="stop-color:#1F713C"/>
			<stop  offset="0.56" style="stop-color:#1F713C"/>
			<stop  offset="0.73" style="stop-color:#1F713C"/>
			<stop  offset="0.89" style="stop-color:#64B053"/>
			<stop  offset="1" style="stop-color:#32A457"/>
		</linearGradient>
		<rect x="73.8" y="201" class="st12" width="238.6" height="112.6"/>
	</g>
</g>
<path class="st3" d="M222.8,79C208,79,196,91,196,105.8c0,14.8,12,26.8,26.8,26.8c14.8,0,26.8-12,26.8-26.8
	C249.6,91,237.6,79,222.8,79"/>
<path class="st3" d="M68,313.4L68,313.4 M63.2,308.9c1.6,1.5,3.2,3,4.9,4.5c42.8-63.5,128.9-80.3,192.4-37.5
	c14.8,10,27.5,22.7,37.5,37.5l0,0l0.1,0.1c1.6-1.5,3.2-3,4.8-4.5c-45.2-66.2-135.5-83.1-201.7-37.9C86.2,281.1,73.3,294,63.2,308.9
	L63.2,308.9z"/>
<g>
	<defs>
		<path id="SVGID_19_" d="M68,314.1c65.4,58.6,164.4,58.6,229.9,0c-24.9-37.3-67.1-61.9-114.9-61.9S92.9,276.8,68,314.1"/>
	</defs>
	<clipPath id="SVGID_20_">
		<use xlink:href="#SVGID_19_"  style="overflow:visible;"/>
	</clipPath>
	<g class="st13">
		
			<linearGradient id="SVGID_21_" gradientUnits="userSpaceOnUse" x1="182.905" y1="93.9613" x2="182.905" y2="4.8613" gradientTransform="matrix(1 0 0 -1 0 367.2912)">
			<stop  offset="0" style="stop-color:#2D4E9E"/>
			<stop  offset="1" style="stop-color:#1B67A8"/>
		</linearGradient>
		<rect x="68" y="252.2" class="st14" width="229.9" height="105.8"/>
	</g>
</g>
<path class="st15" d="M249.4,269.1c-7.6-4.1-15.5-7.6-23.7-10.2c-5.9-0.6-11.7-1.3-16-3c-12.1-4.7-36.4,10.7-46.1,3.2
	c-2.9-2.1-6.2-3.4-9.7-3.9c-11.2,2.4-22.1,6.2-32.3,11.2c8.1,2.1,11.4,6.2,19.8,7.4c10,1.4,21-1.5,28.4-1.5
	c14.6,0,15.7-8.6,23.9-8.6c8,0,14.1-0.3,6.6,4.9c-4.8,3.3,22.9,11.3,28,11.3c5.8,0,26.4-7.4,21.1-10.1
	C249.4,269.7,249.4,269.4,249.4,269.1"/>
<path class="st3" d="M222.7,267.1c1.3-0.6,2.6-1.3,3.9-2c11.1,7.1,20.7,16.1,28.6,26.6c-4.3,2.9-8.7,5.4-13.3,7.8
	C236.5,286.8,230,275.8,222.7,267.1 M186.3,276c10.5-0.4,20.9-2.5,30.7-6.4c7.5,8.4,14.2,19.5,19.7,32.5
	c-15.9,7.2-33,11.1-50.4,11.5L186.3,276z M148.9,269.6c9.8,3.9,20.2,6,30.7,6.4v37.6c-17.4-0.4-34.6-4.3-50.4-11.5
	C134.6,289,141.3,278,148.9,269.6L148.9,269.6z M139.1,265.2c1.3,0.7,2.6,1.4,3.9,2c-7.3,8.7-13.8,19.7-19.2,32.4
	c-4.6-2.3-9-4.9-13.3-7.8C118.4,281.3,128.1,272.3,139.1,265.2z M147.5,262.3l-1.8-0.9c1.8-0.9,3.6-1.8,5.5-2.6
	C150,259.9,148.8,261.1,147.5,262.3L147.5,262.3z M179.5,269.7c-8.8-0.3-17.5-2-25.9-5c7.9-7.2,16.6-11.6,25.9-12.4L179.5,269.7z
	 M212.1,264.7c-8.3,3-17,4.7-25.9,5v-17.4C195.5,253.2,204.2,257.6,212.1,264.7L212.1,264.7z M220.1,261.4l-1.8,0.9
	c-1.2-1.2-2.4-2.4-3.7-3.5C216.4,259.6,218.3,260.5,220.1,261.4L220.1,261.4z M278.4,281.4c-1.6-1.5-3.3-2.8-5-4.2
	c-3.8,3.7-7.8,7.1-12.1,10.2c-7.8-10.2-17.3-19.1-28-26.3c2-1.3,4-2.7,6-4.2c-2.3-1-4.6-1.9-6.9-2.7c-1.7,1.1-3.3,2.2-5.1,3.3
	c-12.5-7.2-26.6-11.3-41.1-11.9l0,0c-1,0-2.1,0-3.1,0h-0.4h-3.1l0,0c-14.4,0.6-28.5,4.7-41.1,11.9c-1.7-1-3.4-2.1-5.1-3.3
	c-2.4,0.8-4.6,1.8-6.9,2.7c1.9,1.5,3.9,2.9,6,4.2c-10.7,7.2-20.2,16-28,26.3c-4.2-3.2-8.3-6.6-12.1-10.2c-1.7,1.4-3.4,2.8-5,4.2
	c4.2,4,8.6,7.8,13.2,11.3c-7.1,10.2-12.8,21.2-17.2,32.8c2.2,1.5,4.4,3,6.6,4.4c4.2-11.6,9.8-22.6,16.7-32.8c4.7,3.2,9.6,6,14.7,8.6
	c-4.3,11.7-7.6,23.7-9.7,35.9c1.8,0.8,3.7,1.6,5.5,2.4c2.1-12.2,5.2-24.2,9.5-35.8c16.6,7.5,34.6,11.5,52.8,11.9v36.6
	c1.1,0,2.2,0,3.4,0s2.2,0,3.4,0v-36.6c18.2-0.4,36.2-4.5,52.8-11.9c4.2,11.6,7.4,23.6,9.5,35.8c1.9-0.8,3.7-1.5,5.5-2.4
	c-2.2-12.2-5.4-24.2-9.7-35.9c5.1-2.5,10-5.4,14.7-8.5c6.9,10.2,12.5,21.2,16.7,32.8c2.2-1.4,4.4-2.9,6.6-4.4
	c-4.3-11.6-10.1-22.6-17.1-32.7C269.8,289.3,274.2,285.5,278.4,281.4L278.4,281.4z"/>
<path class="st16" d="M147.5,262.3l-1.8-0.9c1.8-0.9,3.6-1.8,5.5-2.6C150,259.9,148.8,261.1,147.5,262.3 M220.1,261.5l-1.8,0.9
	c-1.2-1.2-2.4-2.4-3.7-3.5C216.4,259.6,218.3,260.5,220.1,261.5L220.1,261.5z M131.1,262.2c-2.3,1.6-4.6,3.3-6.9,5.1
	c2.5,0.9,4.9,2,7.2,3.3c2.5-2,5.1-3.8,7.8-5.4c1.3,0.7,2.6,1.4,3.9,2c-1.6,1.9-3.2,4-4.8,6.1c1,0.3,2,0.4,3,0.6
	c1.2,0.2,2.5,0.3,3.7,0.3c1.2-1.6,2.5-3.1,3.8-4.6c3.6,1.4,7.4,2.6,11.2,3.6c3.2-0.5,6.5-0.8,9.7-0.9c9.1,0,13-3.3,16.5-5.8v-8.1
	c-2.3,0.6-4.5,1.2-6.7,1.7v9.7c-8.8-0.3-17.5-2-25.9-5c2.7-2.4,5.6-4.6,8.6-6.5c-2.6-1.6-5.5-2.6-8.5-3
	C146.1,256.9,138.5,259.2,131.1,262.2L131.1,262.2z M248.4,273.2c-4.2-4-8.8-7.7-13.6-11c-3-1.2-6-2.3-9.1-3.3
	c-5.9-0.6-11.7-1.3-16-3c-3.1-1.2-7.1-1.1-11.4-0.4c5.1,2.3,9.8,5.4,13.8,9.2c-3.5,1.2-7,2.2-10.6,3c-0.4,0.3-0.8,0.6-1.3,0.9
	c-1.7,1.2,0.7,2.9,4.6,4.7c4.1-1,8.1-2.3,12.1-3.8c2.8,3.1,5.4,6.5,7.8,10c1.2,0.3,2.3,0.4,3.5,0.5c1.2,0,2.3-0.2,3.5-0.5
	c-2.7-4.4-5.7-8.5-9-12.5c1.3-0.6,2.6-1.3,3.9-2c5.3,3.3,10.3,7.2,14.9,11.4C243.9,275.7,246.2,274.6,248.4,273.2L248.4,273.2z"/>
<polygon class="st3" points="159.7,94.1 157.6,104.8 147,106.8 157.7,108.9 159.7,119.5 161.8,108.8 172.4,106.8 161.7,104.7 "/>
<polygon class="st3" points="205.7,140.5 204.6,146.2 199,147.2 204.7,148.3 205.7,154 206.8,148.3 212.4,147.2 206.8,146.1 "/>
<polygon class="st3" points="142.1,77.6 141,83.3 135.4,84.3 141.1,85.4 142.1,91 143.2,85.4 148.8,84.3 143.2,83.2 "/>
<g>
	<defs>
		<path id="SVGID_22_" d="M261.6,158.8c0.9,0.5,1.3,2.6,2.3,3s8.9,1.2,8.9,1.2s3.1,1.5,5,2.2c3.2,1.2,2.9,3.7,1.2,6.6
			c-1.1,1.9-5.9,5-5.9,5l1.4,0.8l0.1,2.6l-5.5,2.4c-2.8,0.5-5.5,1.1-8.2,1.9c-2.3,0.9-8.8,8-8.8,8c-0.9,0.5-6.6,0.8-9.2,2.8
			c-2.2,1.7-5,7.8-5,7.8s-5.7,3.4-6.4,3.9c-0.9,1.4-1.7,2.8-2.4,4.3c0,0,0.9,6.1,1.1,8.1s4.8,11.2,4.8,11.2l0.7,28.3
			c0.4,2.2,8.2,3.5,11.9,7.5c1.4,1.5-0.1,5.2-0.1,5.2c-8,1.3-3.7,0.4-6.5,3c-0.6,0.6-3.8,0.6-4.9,0.7c-5.5,0.5-2.6,3.8-10.9,0.1
			c-2.9-1.3-7.8-2.9-7.8-2.9s-4.7-2.8-4.2-4.6s-1.6-12.9-1.6-12.9l-4.9-5.9c0,0-0.5-3.9-0.8-8.1s-3.9-15.3-3.9-15.3
			c-4.6,2.3-5.9,4.4-8.6,8.6c0,0,2.7,6.1,2.9,7s0.7,10.5,0.1,13s-5,9.2-6.4,9.3s-10.7,2.5-13.4,1.9s-8.6-6.8-8.6-6.8s-0.3-3.1-0.2-4
			s-5.1-10.2-5.1-10.2l-2.7-10l-1.8-0.1l-2,3.5c0.5,1.7,1.2,3.4,1.9,5c1,1.8,0.1,15.1,0.2,15.3c1,1.4,2.3,2.4,3.8,3.1
			c6.1,2.8,5,5,3.6,8.6l-4.9-0.3l-1.1,2l-1.9-0.4l-2.7,2.1l-5.1,1l-7.5-2.7l-7-0.2l-1-7.4c-1.9,0.5-8.2,1.5-11,0.5
			c-1.8-0.7-7.1-3.5-7.1-3.5c-3.3-3.2-5.6-23.8-5.8-26.8l10.6-1.6l-4.6-16c0,0-1.3-10.6,0.1-19.7s15.1-20.8,15.1-20.8
			c4.7-3.7,14.7-9.9,22.1-10.5c4.8-0.4,9.5-0.4,14.3-0.1c2.8,0.3,12.7,4.4,15.4,4.3s21.8-2,22.5-2c3.6-0.3,13.8-6.1,19.9-6.6
			c2.6-0.2,10.2-2.4,10.2-2.4s6.1-0.2,7.2,0.1c0.4,0.1,2.8-0.1,5.9-0.4c2.6-0.2,5.5-0.4,8-0.4C258.8,158.1,260.2,158.3,261.6,158.8z
			"/>
	</defs>
	<clipPath id="SVGID_23_">
		<use xlink:href="#SVGID_22_"  style="overflow:visible;"/>
	</clipPath>
	<g class="st17">
		
			<linearGradient id="SVGID_24_" gradientUnits="userSpaceOnUse" x1="195.69" y1="75.4113" x2="195.69" y2="173.3813" gradientTransform="matrix(1 0 0 -1 0 367.2912)">
			<stop  offset="0" style="stop-color:#F5DAB4"/>
			<stop  offset="1" style="stop-color:#FFFFFF"/>
		</linearGradient>
		<rect x="110.5" y="158.2" class="st18" width="170.5" height="120.9"/>
	</g>
</g>
<g>
	<defs>
		<path id="SVGID_25_" d="M261.1,182.2c-3,0-5.2-3.4-5.4,1.4c-0.1,1.9-4.8-0.2-3.2,2.7c2.2,3.9-4.7,4.3-7.5,4.5
			c-1.2,0.1-2-1.8-3.9-1.6c-2.3,0.2-8.5,1-9.7,2.8c-1.4,2.1-7.4,3.7-7.2,3.9c2.1,1.8,7.2-3.4,7.7,1.8c0.5,6.5,1.4,6.4,5.4,2.2
			c4.4-4.7,6.5-7.2,14.2-7.9C252.6,191.9,261.4,182.3,261.1,182.2 M223.3,265.9c1.4-0.1,3.6,0.1,4.6-1c0.4-0.5,0.3-1.2,0.7-1.5
			c1.3-1.1,2.5-2.4,3.5-3.4s0.9,0,2.2,0.8c0.5,0.3,1.1,1.2,2,1.1c0.2,0,1.8,0,1.8,0.3c0.2,1.1,0.3,0.8-1.1,0.9c-1,0.1-3.6,0-4.2,0.5
			c-1.3,1-2.1,2.5-4,2.6c-1,0.1-2.1-0.1-3.3,0C224.9,266.2,222.7,265.9,223.3,265.9L223.3,265.9z M206.7,219.2
			c-1.7,1.7-2,4.4-4.1,5.4c-1.7,0.8-5.1,4.2-6.2,5.9c-0.9,1.4-4.5,2.5-3.5,4.7c2.2,5.1,1.9,9.2,2.4,14.5c0.3,3.9-4.6,7.8-4.5,9.4
			c-2.8,4.9-8.5,3.4-13.5,3.2c-1.9-0.1-4.3-2.7-4.5-4.5c-0.2-2.8,2.4,1.9,5.7,2c5.9,0.2,9.3-1.1,12.4-5.9c1.2-1.9-1-4.4-2.4-5.2
			c-3.3-1.9,3.2-1,2.8-5.5c-0.7-8.5-1.9-6.5,1.6-13.9c3.2-6.7,2.1-3.3,7.3-6.5C202.5,221.5,204.2,219.1,206.7,219.2L206.7,219.2z
			 M215,189.3c-0.9,4.1,3.4,5.9,4,9.3c0.4,2.1-6.8,7.9-8.8,8.7c-1.8,0.6-3.2,1.9-3.8,3.7c-0.4,0.9-1.4,2.4-1.3,0.1
			c0.2-3.3,6-3.9,7-6.3c0.5-1.2,1-3.6,1.9-4.4s4-0.9,1.6-2.2C214.8,197.7,214.8,190.9,215,189.3L215,189.3z M213.9,165.8
			c-2.5,2.9-2.3,5.7-2,9.3c0.1,1.7,0.8,3.5-0.1,4.4c-0.3,0.9-0.3,1.9,0.1,2.8c0.5,0.8,0.1,1.2,0,2.5c0,0.4-1.9-1.5-2-2.6
			c-0.3-3.5-0.1-7.3-0.4-11.1c-0.3-1.5,0-3,0.6-4.3C210.3,166.2,212.7,164.5,213.9,165.8L213.9,165.8z M173.4,191
			c0.6-4.3,4.2-7.8,6-11.3c0.5-0.9,0.2-5.4-0.7-5.4c-1.6,0.1-1.4,2.5-1.8,4.1c-0.5,1.9-3,4.2-2.8,5.9
			C174.1,186.3,173.1,188.2,173.4,191z M118.6,211.5c0.5,5.5,0.9,8.5,4.1,12.1c0.8,1,1.6,2,2.2,3.1c0.6,0.9,1.5,1.2,1,1.7
			c-2.1,2.2-1.2,5.7-4,1.3c-1.1-1.8-2.8-7.9-2.9-9.7C118.8,217.3,118.1,214.6,118.6,211.5L118.6,211.5z M144.2,231.3
			c-0.7-2.1-1.7-2.5-3-4c-1.4-1.3-2.4-3-2.8-4.9c-0.1-0.6-0.5-4.1,0-3.9c0.9,0.4,0.7,2.3,1.2,3.2s0.4,1.6,1.1,2.6
			C142.6,227,143.9,227.3,144.2,231.3L144.2,231.3z M173.9,205.1c-1.4,3-11,17.7-12.4,17.9c-5.3,0.4-2.6,4.3-7.8,4.7
			c-2.6,0.2-2,6-4.4,7.5c-3.1,1.9-5.7,1.7,0.6,5.4c3,1.7,1.3,4.5,5.1,4.2c5.7-0.5-1.8-6.8,2.1-9.7c1.4-1,4-4.8,3.9-6.2
			c-0.3-3.3,4.2-5.4,6.6-7.1c2.9-2,1.8-5,5-8.7C173.9,211.6,174.1,204.7,173.9,205.1z M161.8,261.2c-1.5,0.2-1.2,2.1-3.4,2.2
			c-1.5,0.1-1.6-2.1-2.9-0.9c-1.9,1.8-3.6,1.7-5.6,3.7c-1.2,1.2-4.4,0.1-6.2,1.5c-0.6,0.5,0.4-2.1,1.4-2.6c2.4-1.2,6.2-3.2,6.7-6
			c0.6-3.8,4-3.8,0.1-7.2c-2.9-2.5,2.9-0.9,2.6-3.6c-0.1-1-0.6-1.9-1.5-2.3c1.2-0.4,2.6,0.2,3,1.4c0.1,0.3,0.1,0.6,0.1,0.9
			c0.2,3-1.1,5.1,0.6,7.5C157.9,257.4,159.1,261.2,161.8,261.2L161.8,261.2z M134.8,262.7c-2.8-3.6-5.8-4.6-5-9
			c0.5-2.7-0.4-4.5-0.6-7.6l-0.4-4.4c-0.2-1.9-3.3-4.1-4.7-6.1c-0.7-0.8-1.5-1.5-2.4-2.1c0.1,0.1-1.2,0-3.6,0.7
			c-2.1,0.6-4.1,0.3-3.6,0.8c-3.8-0.4,16.2,21.1,3.4,22.3c-0.8-0.1-0.6,0.7,0.2,1.8c1.4,1.9,4.9,5.1,7.4,4.9
			C128.7,263.9,132.2,264.1,134.8,262.7L134.8,262.7z M231.5,166.8c-0.2,1.1-0.8,3.9,0.2,4.7c0.8,0.7,2.9,1.5,3,2.4
			c0.1,1.5,0.1,2.1,1.1,3c0.7,0.6,0.5,1,0.2,2.1c0,0.4,0,0.8,0.1,1.1c0.3,3.3,0.5-2,0.9-2.7c0.9-1.6,1.8-1.9,2.3-3.8
			c1-3.2-0.3-3.4-3.1-4.3c-1.4-0.5-2.2-0.3-3-1.2C232.7,167.6,232.1,167.2,231.5,166.8L231.5,166.8z"/>
	</defs>
	<clipPath id="SVGID_26_">
		<use xlink:href="#SVGID_25_"  style="overflow:visible;"/>
	</clipPath>
	<g class="st19">
		
			<linearGradient id="SVGID_27_" gradientUnits="userSpaceOnUse" x1="186.025" y1="191.1713" x2="186.025" y2="52.8313" gradientTransform="matrix(1 0 0 -1 0 367.2912)">
			<stop  offset="0" style="stop-color:#F5DAB4"/>
			<stop  offset="1" style="stop-color:#908EB0"/>
		</linearGradient>
		<rect x="110.7" y="164.5" class="st20" width="150.6" height="103.8"/>
	</g>
</g>
<path class="st21" d="M279.6,172.3c-0.8,1.4-3.7,3.6-5.1,4.6c1.2,0.6,0.9,3.9,0.7,4l-5.6,2.4c-12,0.9-14.6,8.6-16.9,9.9
	c-3.9,2.1-8.6-2-14.1,10.5l-6.5,4c-0.9,1.3-1.6,2.7-2.3,4.1c0.1,0.9,0.9,6.1,1.1,8l4.8,11.3l0.7,28.2c0.5,2.2,15.4,3,11.7,12.9
	l-5.3,1.2c-0.8,3.9-6,1.4-9.8,3.7s-9.4-2.5-15.4-4c-0.3-0.1-5.9-3.4-5.1-5.9c0.5-1.6-1.2-10.5-1.6-12.3l-4.9-6.2
	c-0.6-8.5-1.3-12.3-4.2-21.9c-3.9,2.1-5.2,4.1-7.6,8c3,6.9,3.2,6.2,3.2,14.8c0,5.2-0.1,6.5-3.4,11.2c-2.8,4-2.9,3.5-6.1,4.1
	c-13.3,2.8-11.2,2.1-20.1-5.8l-0.6-4.8l-5.1-10l-2.5-9.1l-0.8-0.1l-1.9,3.2c2.8,8.5,2.7,5.2,2.1,19.1c-0.2,4.8,11.6,2.2,7.5,12.6
	c-0.4,1.1-1.6,0.5-5.2,0.3c-1.3,2.5-0.6,2.1-3.1,1.6c-4.2,3.4-1.4,1.6-7.8,3.1l-7.7-2.7c-3-0.6-7.7,0.8-8-1.4l-0.9-6.1
	c-7.6,1.7-11.3,0.5-17.6-3.3c-4.2-2.6-7.1-28-6.3-28.2l10.2-1.5l-4.5-15.7c0,0-1.3-10.6,0.1-19.9s15.2-21,15.2-21
	s12.4-9.7,22.3-10.5c22.2-1.8,23.1,4.5,29.8,4.2l22.5-2c3.6-0.3,13.8-6.1,19.8-6.6c3.4-0.6,6.8-1.4,10.1-2.4l0,0l11.3-0.2
	c4.8-0.4,12.5-1.1,14.6,0c3.5,1.9-2.3,3.2,10.9,4l5.1,2.2C281.6,165.9,281.5,169.1,279.6,172.3z M272.5,176c1.4-1.1,7.4-4.4,7-8.6
	c-0.1-1.4-6.5-3.7-6.5-3.7c-4.7-1.3-8.7,0.9-10.9-3.5l-0.4-0.7c-1.9-1.3-16.9,0.6-18,0.4c-2.4-0.2-4.7-0.2-7.1,0
	c-3.4,1-6.8,1.8-10.3,2.3c-7.3,0.6-13.4,6-22.1,6.8c-5.3,0.5-18,1.7-20.3,1.8c-7,0.2-7.9-6-29.8-4.2c-7,0.6-17.3,6.5-22,10.4
	c-0.1,0.1-13.6,11.6-15,20.6c-1.4,8.7-0.3,18.6-0.2,19.5c0.5,2.5,5.2,16.4,4.4,16.5l-10.3,1.5c0.1,1,2.6,23.4,5.2,25.5
	c0.9,0.5,5.2,2.8,6.8,3.4c5.3,2,11.6-2.3,11.9,0.6l0.9,6.3l6.3,0.2l7.3,2.6l5-0.9c2.8-1.3,0.8-2.6,4.6-1.8l1.2-2l0,0l4.8,0.3
	c1.1-3,2.1-4.9-2.9-7.1c-1.8-0.8-3.3-2.1-4.5-3.7c-0.7-1.1,0.8-13.4-0.2-15.4l-2-5.7l2.3-3.6l0,0c1.3,0.1,2.5-0.1,2.8,1.1l2.7,9.9
	c0.6,1.2,5.2,9.6,5.1,10.6c-0.1,0.6,0.1,2.6,0.2,3.5c1.3,1.3,5.7,5.6,7.7,6.1c2.7,0.6,11-1.8,13.3-2c1.3-0.1,5.6-7,6.1-9.1
	l-0.1-12.6l-2.9-7.4c1.8-3,8.6-11.6,9.8-7.7c0.2,0.8,3.5,11.3,3.9,15.4c0.8,10-0.1,6.5,5.4,13.3l1.9,13.7c-0.7,2.4,8.5,5,11.1,6.2
	c8.4,3.8,4.7,0,11.6-0.2c6.2-0.2,4-2.1,5.3-2.7l5-0.9c1.7-4.4,0.4-5.3-6.6-8.4c-2.4-1.1-5.2-2.3-5.2-4l-0.7-28.1
	c-0.7-1.4-4.6-9.4-4.8-11.4l-1-8.3c0.7-1.5,1.5-3,2.4-4.4c0.6-0.6,5.7-3.6,6.4-3.9c0.3-0.7,2.9-6.2,5-7.8c2.7-2,8.7-2.4,9.2-2.8
	s6.6-7.1,8.8-8c2.7-0.8,5.4-1.4,8.2-1.9l5.4-2.3l0-1.7C273.5,177.6,271.8,176.5,272.5,176L272.5,176z"/>
<path class="st22" d="M279.1,166c-0.8,0.3-1.6,0.5-2.5,0.7c-0.4,0.1-0.8,0.2-1.2,0.4c0.2,1,0.5,2,1,3c0.4,0.5,1.1,1.4,1.5,1.4
	s2-1.9,1.9-2.7s-0.2-2.5-0.2-2.5L279.1,166z"/>
<path class="st22" d="M256.7,166.5c0,0,3.8,1.6,4.5,1.4s0.7-1.7,0.7-1.7l-0.6-1.3l-2.4,1.4L256.7,166.5"/>
<path class="st22" d="M273.1,175.8c0,0-3.5,1.3-3.9,1.3s-2.1,0.2-2.7,0.2l-1.4,0.1c0,0,0.4,1.1,1.2,1s3.9-0.7,4.5-0.9
	s1.3-0.5,1.9-0.3c0.4,0.2,0.7,0.6,0.9,1l0.5-0.4L273.1,175.8z"/>
<path class="st22" d="M239.4,167.1c-1.1,0.9-2.4,1.4-3.9,1.5c-2-0.1-2.5-0.2-2.6-0.5s-0.3-2.4-0.3-2.4s-1,3.2-0.8,3.9s3,3.1,3.8,3.1
	c0.7,0.1,1.4,0.5,1.8,1.1c1,1.5,2.7-2.3,2.6-3C240,169.8,239.4,167,239.4,167.1"/>
<path class="st22" d="M153.1,270.1c0.4,0,1,0.6,1.3,1.4s0.2,1.5-0.3,1.5s-1-0.6-1.3-1.4S152.7,270.1,153.1,270.1"/>
<path class="st22" d="M157.5,268.3c0.5,0,1.2,0.7,1.6,1.8s0.2,1.9-0.3,1.9s-1.2-0.7-1.5-1.8S157,268.4,157.5,268.3"/>
<path class="st22" d="M162.6,267.1c0.4,0,0.8,0.6,1.1,1.5s0.2,1.5-0.2,1.5s-0.8-0.6-1.1-1.4S162.3,267.1,162.6,267.1"/>
<path class="st22" d="M237.7,271.1c0.4,0,0.9,0.6,1,1.5s0,1.5-0.5,1.6s-0.9-0.6-1-1.5S237.3,271.1,237.7,271.1"/>
<path class="st22" d="M229.7,272.8c0.4,0,0.9,0.6,1,1.4s0,1.5-0.5,1.6s-0.9-0.6-1-1.5S229.3,272.8,229.7,272.8"/>
<path class="st22" d="M243.9,269.2c0.4,0,0.9,0.6,1,1.5s0,1.5-0.5,1.6s-0.9-0.6-1-1.4S243.5,269.2,243.9,269.2"/>
<path class="st3" d="M276.1,167.6l0.4,1.2c0,0.1,0,0.2,0.2,0.2c0.2,0,0.3,0.1,0.5,0.2c0.2,0,0.1,0,0.1-0.2c-0.1-0.5-0.2-0.9-0.3-1.4
	C276.8,167.3,276.3,167.6,276.1,167.6"/>
<path class="st23" d="M344.8,223.9l-24.3-3.8l1.1-7.1l13.4,2.1l-11.9-11.2l1.1-7.1l24.3,3.9l-1.1,7.1l-13.4-2.1l12,11.3L344.8,223.9
	z M349.4,189.7l-24.6,0.4l-0.1-7.1l13.5-0.2l-13.7-9l-0.1-7.2l24.6-0.4l0.1,7.2l-13.6,0.2l13.8,9L349.4,189.7z M341.8,131.5l1.7,7.4
	l-8.4,1.9l1.9,8.1l8.4-1.9l1.7,7.4l-24,5.5l-1.7-7.4l9.7-2.2l-1.9-8.1l-9.7,2.2l-1.7-7.4L341.8,131.5z M337.5,118.6L316,130.5
	l-3.5-6.2l11.8-6.5l-16.3-1.5l-3.5-6.3L326.1,98l3.5,6.3l-11.9,6.6l16.4,1.5L337.5,118.6z M301.4,104.2l-4.8-5.9L311,86.6l-3.8-4.6
	l-5.9,4.8c-1.7,1.5-3.6,2.8-5.6,3.9c-1.2,0.7-2.7,0.8-4,0.2c-1.8-0.9-3.3-2.3-4.5-3.9c-0.6-0.7-1.1-1.5-1.6-2.4l3.9-3.1l0.7,0.9
	c0.4,0.7,1.1,1.1,1.9,1.3c0.9-0.1,1.7-0.4,2.3-1.1l12.7-10.2l13.3,16.4L301.4,104.2z M282.3,69.3l3.5-8.6l-7.7,5.2L282.3,69.3z
	 M280.1,74.4l-6.7-5.5l-3.5,2.4l-6-4.9l22.7-13.3l6.5,5.2l-8.3,25l-6.2-5L280.1,74.4z M271.9,41.9l-11.2,21.9l-6.4-3.2l6.1-12
	l-14.4,7.8l-6.4-3.3l11.2-21.9l6.4,3.3l-6.2,12.1l14.4-7.9L271.9,41.9z M222,41.4l3.7,1.1c0.9,0.4,1.9,0.4,2.9,0.1
	c0.7-0.3,1.1-0.9,1.3-1.6c0.2-0.6,0.1-1.3-0.2-1.9c-0.6-0.7-1.5-1.3-2.5-1.5l-3.7-1.1L222,41.4z M224.8,32.1l3.2,1
	c0.8,0.3,1.7,0.4,2.6,0.1c0.6-0.3,1-0.9,1.2-1.5c0.2-0.6,0.2-1.3-0.2-1.8c-0.5-0.7-1.3-1.1-2.1-1.3l-3.2-1L224.8,32.1z M220.3,20.6
	l13.6,4.2c1.9,0.4,3.6,1.6,4.7,3.3c0.9,1.4,1.1,3.1,0.5,4.7c-0.4,1.3-1.2,2.5-2.4,3.2c-0.9,0.5-1.9,0.8-3,0.8
	c1.4,0.7,2.5,1.8,3.1,3.2c0.5,1.3,0.5,2.8,0.1,4.1c-0.4,1.1-1,2.2-1.9,3c-0.8,0.8-1.9,1.3-3,1.6c-1,0.2-2,0.1-3-0.1
	c-1.1-0.2-2.3-0.4-3.4-0.7l-12.6-3.8L220.3,20.6z M199.1,32.8l-2.1-9l-3.3,8.6L199.1,32.8z M200.4,38.2l-8.6-0.6l-1.5,4l-7.8-0.5
	l11-24l8.3,0.6l7.5,25.2l-7.9-0.5L200.4,38.2z M129.9,25.3l19.6-5.6l1.4,5l-12.3,3.5l1.1,3.8l11.4-3.2l1.4,4.8l-11.4,3.3l1.3,4.6
	l12.6-3.6l1.5,5.4l-19.9,5.7L129.9,25.3z M112.3,32.3l6.8-3.5l11.2,21.9l-6.8,3.5L112.3,32.3z M106,57.1l3.5-1.8
	c2.1-1.1,2.8-2.4,2-3.9c-0.7-1.3-2.1-1.5-4.2-0.4l-3.5,1.8L106,57.1z M101.6,48.4l3.6-1.9c3.3-1.7,6.1-2.4,8.3-2s3.9,1.8,5.2,4.2
	c1,1.8,1.1,3.9,0.2,5.8c-0.9,1.8-2.8,3.4-5.5,4.8l-11.6,5.9L90.5,43.4l6.8-3.5L101.6,48.4z M63,67.4l5.6-5.1l5.8,6.4l6.2-5.6
	l-5.8-6.4l5.7-5.1L96.9,70l-5.7,5.1l-6.6-7.4l-6.2,5.6l6.7,7.4l-5.6,5.1L63,67.4z M56.4,92.3l1.1-1.5c0.7-0.8,1.2-1.9,1.2-3
	c-0.1-0.7-0.4-1.4-1.1-1.9c-0.6-0.4-1.3-0.6-2.1-0.5c-1,0.3-1.8,1-2.4,1.9L52,89L56.4,92.3z M43.4,92.3l7.5-10.2
	c1.6-2.2,3.4-3.5,5.2-3.9c2.1-0.3,4.1,0.3,5.7,1.6c1.8,1.2,3.1,3.1,3.4,5.2c0.2,2-0.5,4.3-2.3,6.8l-2.4,3.4l7.4,5.4l-4.5,6.2
	L43.4,92.3z M43.2,112.9l-1.4,2.9c-0.3,0.6-0.7,1.1-1.1,1.7c-0.3,0.4-0.7,0.7-1.2,0.8c-0.5,0.1-1,0.1-1.5-0.2
	c-0.6-0.3-1.1-0.8-1.3-1.5c-0.1-1,0.1-2,0.6-2.8l1.4-3L43.2,112.9z M59.7,112.2l-22.3-10.4L32,113.3c-0.8,1.6-1.4,3.4-1.7,5.1
	c-0.2,1.3,0.1,2.6,0.8,3.7c0.7,1.2,1.8,2.2,3.1,2.7c2.2,1.1,4.8,0.9,6.8-0.5c0.8-0.6,1.4-1.2,2-2c-0.1,0.7-0.1,1.5,0,2.2
	c0.2,0.6,0.4,1.1,0.7,1.6c0.3,0.6,0.6,1.1,0.9,1.6l4.9,6.4l3.6-7.8l-5.1-6.9c-0.5-0.6-0.9-1.3-1.1-2c-0.1-0.7,0-1.3,0.3-1.9l0.3-0.6
	l9,4.2L59.7,112.2z M47.9,137.9l-1.7,7.4l-18.1-4.2l-1.3,5.8l7.4,1.7c2.2,0.4,4.4,1.1,6.6,2c1.3,0.6,2.2,1.7,2.6,3
	c0.4,2,0.3,4.1-0.3,6c-0.2,0.9-0.5,1.8-0.9,2.7l-4.9-1.1l0.2-1.1c0.3-0.8,0.2-1.6-0.2-2.3c-0.6-0.7-1.4-1.1-2.3-1.2L19.2,153
	l4.8-20.6L47.9,137.9z M28.9,183.2c2.5,0,4.3-0.4,5.4-1.3c2.1-2,2.3-5.3,0.3-7.4c0,0-0.1-0.1-0.1-0.1c-1.1-0.9-2.9-1.4-5.7-1.4
	c-2.3,0-4,0.4-5.1,1.3c-1.1,0.9-1.7,2.3-1.7,3.8c-0.1,1.4,0.5,2.8,1.6,3.7C24.7,182.7,26.5,183.2,28.9,183.2L28.9,183.2z
	 M28.8,190.9c-4-0.1-7.1-1.2-9.3-3.5c-2.2-2.3-3.2-5.4-3.2-9.4s1.2-7.2,3.5-9.4s5.3-3.2,9.3-3.2c2.4,0,4.8,0.5,7,1.6
	c1.8,1,3.3,2.5,4.2,4.3c1.1,2.1,1.5,4.5,1.4,6.9c0.1,2.4-0.4,4.7-1.4,6.9c-1,1.8-2.4,3.4-4.3,4.4C33.7,190.4,31.3,191,28.8,190.9
	L28.8,190.9z M41.5,196.8l1.2,7.5l-18.3,2.9l1.3,8.3l18.3-2.9l1.2,7.5l-24.3,3.8l-3.7-23.2L41.5,196.8z"/>
</svg>
