<?xml version="1.0" encoding="utf-8"?>
<!-- Generator: Adobe Illustrator 22.1.0, SVG Export Plug-In . SVG Version: 6.00 Build 0)  -->
<svg version="1.1" id="layer" xmlns="http://www.w3.org/2000/svg" xmlns:xlink="http://www.w3.org/1999/xlink" x="0px" y="0px"
	 width="600.2px" height="146.985px" viewBox="0 0 600.2 146.985" style="enable-background:new 0 0 600.2 146.985;"
	 xml:space="preserve">
<style type="text/css">
	.st0{fill:#E8380D;}
	.st1{fill:#00AFDD;}
</style>
<g>
	<polygon class="st0" points="264.4,44.279 250,44.279 240.7,90.779 223.1,44.579 223,44.279 207.2,44.279 193,111.779 
		207.5,111.779 216.9,65.879 234.8,111.779 250.1,111.779 264.3,44.779 	"/>
	<polygon class="st0" points="392.5,44.279 373.9,44.279 357.2,65.779 348,44.279 331,44.279 346.7,76.179 316.1,111.779 
		334.9,111.779 353.6,88.379 363.7,111.479 363.9,111.779 381,111.779 364.4,76.979 	"/>
	<polygon class="st0" points="445.5,44.279 399.4,44.279 388.1,57.479 404.6,57.479 393.4,111.179 393.3,111.779 408.9,111.779 
		420.3,57.479 442.7,57.479 	"/>
	<g>
		<path class="st0" d="M481.3,44.279h-15.7l-9.3,44.8c-0.4,1.5-0.8,2.9-1.1,4.3c-0.3,1.3-0.9,2.5-1.6,3.5s-1.5,1.7-2.6,2.3
			c-1.1,0.6-2.5,0.9-4.3,0.9s-3.3-0.5-4.7-1.5c-1.3-1-2-2.4-2-4.3c0-1.1,0.1-2.3,0.4-3.6l1-4.7h-14.2l-0.1,0.4
			c-0.3,1.8-0.6,3.5-0.8,5.1c-0.3,1.6-0.4,3.3-0.4,5.2c0,3,0.6,5.6,1.7,7.7c1.2,2.1,2.7,3.9,4.6,5.1c1.9,1.3,4.1,2.3,6.6,2.8
			c2.5,0.6,5,0.9,7.6,0.9c7.3,0,12.9-1.8,16.8-5.4c3.8-3.6,6.5-8.7,8-15.4l9.9-47.6L481.3,44.279z"/>
		<path class="st0" d="M535.6,44.279l1.4,0.9c4.4,2.7,7.6,6.8,9.5,12.1l0.1,0.3h15.1l-11.3,53.7l-0.1,0.6H566l11.4-54.3h20l2.8-13.2
			h-64.6V44.279z"/>
		<path class="st0" d="M320,100.579c1.8-2.6,3.5-5.7,4.9-9.4l0.2-0.6h-14.7l-0.1,0.3c-0.9,2.1-4.6,9-15.4,9.9
			c-6.9,0.5-12.3-1.1-15.7-4.8c-4.2-4.5-4.4-10.7-4.4-12.4h52.7l0.1-0.4c0.7-3.6,1-7.1,1-10.3c0-4.8-0.7-9-2.2-12.6
			s-3.6-6.6-6.3-9.1c-2.7-2.4-5.9-4.3-9.7-5.4c-3.7-1.2-7.9-1.8-12.5-1.8c-5.6,0-10.7,1.1-15.2,3.4c-4.5,2.2-8.3,5.3-11.4,9
			c-3.1,3.8-5.5,8.1-7.2,13c-1.7,4.8-2.5,10-2.5,15.2c0,4.8,0.7,9,2.1,12.5c1.4,3.6,3.4,6.6,6,9s5.7,4.3,9.3,5.4
			c3.6,1.2,7.6,1.8,12,1.8c4.7,0,8.9-0.5,12.5-1.4s6.8-2.4,9.5-4.3C315.7,105.779,318,103.379,320,100.579 M276.9,71.279
			c1.2-2.9,7.1-15.1,21.9-14.5c5.4,0.2,9.5,1.8,12.2,4.8c3.3,3.6,3.5,8.3,3.5,9.7H276.9z"/>
	</g>
	<g>
		<path class="st0" d="M535.9,51.279c-2.7-2.4-6-4.3-9.7-5.4c-3.7-1.2-7.9-1.8-12.5-1.8c-5.6,0-10.7,1.1-15.2,3.4
			c-4.5,2.2-8.3,5.3-11.4,9c-3.1,3.8-5.5,8.1-7.2,13s-2.5,10-2.5,15.2c0,4.7,0.7,8.9,2.1,12.5s3.4,6.6,5.9,9
			c2.6,2.4,5.7,4.3,9.3,5.4c3.6,1.2,7.6,1.8,12,1.8c4.7,0,8.9-0.5,12.5-1.4s6.8-2.4,9.5-4.3s5.1-4.3,7-7.1c1.8-2.6,3.5-5.7,4.9-9.4
			l0.3-0.6h-14.8l-0.1,0.3c-0.6,1.5-4.3,9-15.4,9.9c-7,0.5-12.3-1.1-15.7-4.7c-4.2-4.5-4.4-10.7-4.4-12.4h52.7l0.1-0.4
			c0.7-3.7,1-7.1,1-10.3c0-4.7-0.8-8.9-2.3-12.6C540.6,56.779,538.5,53.679,535.9,51.279 M492.7,71.279c1.2-2.9,7.2-15.1,21.9-14.5
			c5.4,0.2,9.5,1.8,12.2,4.8c3.3,3.6,3.5,8.3,3.5,9.7H492.7z"/>
		<path class="st1" d="M91.7,40.779c3.3,4.4,6.3,8.8,9.1,13.3c10.9-9.5,20.1-19.6,27.3-29.6c-18.1-20.1-46.6-29.5-74.5-21.8
			c-0.1,0-0.1,0-0.2,0.1C66.6,12.079,79.9,24.979,91.7,40.779"/>
	</g>
	<g>
		<path class="st1" d="M137.8,38.279c-6.5,12-15.4,24.2-26.2,35.8c9.3,20.3,13.1,39.7,10.8,54.4c20.2-18.1,29.6-46.6,21.9-74.5
			C142.7,48.379,140.5,43.079,137.8,38.279"/>
	</g>
	<g>
		<path class="st0" d="M80.8,69.379c-3.4-7.8-7.6-15.8-12.6-23.7c-9.1-14.7-19.5-27.1-30.1-36.7c-21.5,11.7-35.7,33.4-38.1,57.3
			c0.2,5.9,2.1,12,5.5,15.9C17.9,96.379,49.1,90.279,80.8,69.379"/>
		<path class="st0" d="M80.7,143.779c11.7-7.3,14.3-26.3,8.7-49.4c-27.2,21.2-55.6,30.7-73.9,24.7c12.6,16,31.5,26.2,51.9,27.9
			C72.3,147.079,77.1,146.079,80.7,143.779"/>
	</g>
	<g>
		<path class="st0" d="M138.7,23.779c-0.5-0.5-1.3-0.5-1.7,0c-0.9,1.1-1.6,2.1-2.3,3c-1.8-1.4-5.7-3.7-5.7-3.7l-1,1.3
			c1.5,1.7,3,3.6,4.4,5.4c-1.7,2.5-2.2,3.5-2.6,4.1c-1.1-0.6-3-1.4-3-1.4l-0.6,0.9c0,0,1.7,1.3,2.8,2.5c0.6,0.6,2.5,3.6,2.5,3.6
			l0.6-0.9c0,0-0.7-2.4-1.3-3.7c0.5-0.5,1.2-1.1,3-3.2c1.4,2,2.7,4.2,3.9,6.4l1-1.8c0,0-1.5-4.8-2.5-7.4c0.8-1,1.7-2.1,2.8-3.5
			C139.4,25.079,139.3,24.279,138.7,23.779"/>
	</g>
</g>
</svg>
