<?xml version="1.0" encoding="UTF-8"?>
<svg width="47px" height="23px" viewBox="0 0 47 23" version="1.1" xmlns="http://www.w3.org/2000/svg" xmlns:xlink="http://www.w3.org/1999/xlink">
    <!-- Generator: Sketch 49.1 (51147) - http://www.bohemiancoding.com/sketch -->
    <title>gazpromavia_s</title>
    <desc>Created with Sketch.</desc>
    <defs></defs>
    <g id="AVIA" stroke="none" stroke-width="1" fill="none" fill-rule="evenodd">
        <g id="gazpromavia_s">
            <path d="M15.0083081,6.96508333 L17.7140352,6.96508333 L17.7140352,7.77983333 L16.3611303,7.77983333 L16.3611303,14.72375 L15.0083081,14.72375 L15.0083081,6.96508333 Z M31.7583468,6.96508333 L34.2970088,6.96508333 C34.6703609,6.96508333 35.0821901,7.39325 35.0821901,7.76908333 L35.0821901,11.1134167 C35.0821901,11.4960833 34.644213,11.9169167 34.2642412,11.9138333 L33.111169,11.9041667 L33.111169,14.72375 L31.7583468,14.72375 L31.7583468,6.96508333 Z M33.111169,11.1134167 L33.7244859,11.1134167 L33.7244859,7.77983333 L33.111169,7.77983333 L33.111169,11.1134167 Z M23.9940792,12.1995 L22.688919,12.1995 C22.6853609,12.7641667 22.6818856,13.32875 22.6783275,13.8935 C22.6760106,14.2838333 23.1111743,14.72375 23.4988415,14.72375 C24.0595317,14.72375 24.6202218,14.72375 25.180912,14.72375 C25.5693239,14.72375 25.9878556,14.2684167 25.9878556,13.87725 L25.9878556,11.3605833 C25.9878556,11.0135 25.5445827,10.76375 25.2028398,10.683 C25.549713,10.6314167 25.9878556,10.3273333 25.9878556,9.97316667 L25.9878556,7.77908333 C25.9878556,7.39191667 25.5492993,6.96508333 25.1648592,6.96508333 C24.6095475,6.96508333 24.0541532,6.96508333 23.4988415,6.96508333 C23.1315299,6.96508333 22.718625,7.37691667 22.7163908,7.74683333 L22.7076197,9.1505 L24.0161725,9.1505 C24.0194824,8.68141667 24.0227923,8.21225 24.0261021,7.74316667 C24.2290792,7.74316667 24.4320563,7.74316667 24.6350335,7.74316667 L24.6350335,10.2635833 L23.4828715,10.2635833 L23.4828715,11.1025 L24.6350335,11.1025 C24.6350335,12.0328333 24.6350335,12.9631667 24.6350335,13.8935 C24.4320563,13.8935 24.2290792,13.8935 24.0261021,13.8935 L23.9940792,12.1995 Z M27.1537535,6.96508333 L30.6406074,6.96508333 L30.6406074,14.72375 L29.1825317,14.72375 L29.1825317,7.77983333 L28.6118292,7.77983333 L28.6118292,14.72375 L27.1537535,14.72375 L27.1537535,6.96508333 Z M18.5972711,6.96508333 L21.0211637,6.96508333 L21.8478838,14.72375 L20.4761954,14.72375 L20.3243556,12.7550833 L19.4096761,12.7550833 L19.2991268,14.72375 L17.977169,14.72375 L18.5972711,6.96508333 Z M20.262544,11.9541667 L19.9467835,7.85975 L19.6845599,7.8545 L19.4545246,11.9541667 L20.262544,11.9541667 Z M37.3015335,6.96508333 L38.9150898,6.96508333 C39.3876549,6.96508333 39.7743292,7.3545 39.7743292,7.83041667 L39.7743292,13.8584167 C39.7743292,14.3343333 39.3876549,14.72375 38.9150898,14.72375 L37.3015335,14.72375 C36.8289683,14.72375 36.442294,14.3343333 36.442294,13.8584167 L36.442294,7.83041667 C36.442294,7.3545 36.8289683,6.96508333 37.3015335,6.96508333 Z M37.8199401,13.8934167 L38.428706,13.8934167 L38.428706,7.77908333 L37.8199401,7.77908333 L37.8199401,13.8934167 Z M40.8895035,6.96508333 L42.8198134,6.96508333 L43.7023873,12.1995 L44.1611338,12.1995 L45.0281514,6.96508333 L46.9256937,6.96508333 L46.9256937,14.72375 L45.5679894,14.72375 L45.5843732,10.0096667 L45.3396919,10.0096667 L44.4720123,14.72375 L43.3759525,14.72375 L42.5028944,10.0096667 L42.2472077,10.0096667 L42.2472077,14.72375 L40.8895035,14.72375 L40.8895035,6.96508333 Z" id="Fill-1" fill="#0272BA"></path>
            <polygon id="Fill-2" fill="#0171BB" points="14.9022271 22.9871667 46.7817975 22.9871667 46.7817975 17.4501667 14.9022271 17.4501667"></polygon>
            <path d="M45.1545053,21.5154167 L44.2185599,21.5154167 L44.0898891,22.1648333 L43.2505088,22.1648333 L44.249507,18.2306667 L45.1451549,18.2306667 L46.1448979,22.1648333 L45.2850792,22.1648333 L45.1545053,21.5154167 Z M44.9823926,20.6645 L44.6883116,19.2501667 L44.3962165,20.6645 L44.9823926,20.6645 Z M36.7048486,18.2306667 L35.9535106,18.2306667 L34.9739577,20.4070833 L34.9739577,18.2306667 L34.216,18.2306667 L34.216,22.1648333 L34.9739577,22.1648333 L35.9486285,20.0049167 L35.9486285,22.1648333 L36.7048486,22.1648333 L36.7048486,18.2306667 Z M25.1412764,18.2306667 L26.7003028,18.2306667 C26.960044,18.2306667 27.1595458,18.325 27.2981461,18.5128333 C27.4374912,18.7005833 27.5071637,18.93325 27.5071637,19.2099167 C27.5071637,19.4425 27.4575158,19.6421667 27.3583856,19.8089167 C27.2919401,19.91975 27.1952923,20.0076667 27.0679454,20.07175 C27.2611585,20.1395833 27.4036479,20.2568333 27.4951655,20.4216667 C27.5861866,20.5875833 27.6319454,20.7954167 27.6319454,21.0455 C27.6319454,21.24975 27.5993433,21.433 27.5347183,21.596 C27.4695141,21.7590833 27.3809754,21.8873333 27.2681092,21.9825833 C27.1984366,22.0411667 27.0931004,22.08425 26.9519349,22.1108333 C26.7643486,22.1465 26.6400634,22.1648333 26.5785827,22.1648333 L25.1412764,22.1648333 L25.1412764,18.2306667 Z M25.9813187,19.7740833 L26.3433345,19.7740833 C26.4732465,19.7740833 26.5635229,19.7411667 26.6149085,19.6760833 C26.6658803,19.6101667 26.6908697,19.5158333 26.6908697,19.393 C26.6908697,19.2785833 26.6658803,19.1888333 26.6149085,19.1246667 C26.5635229,19.0596667 26.4750669,19.0275833 26.349044,19.0275833 L25.9813187,19.0275833 L25.9813187,19.7740833 Z M25.9813187,21.3194167 L26.4060563,21.3194167 C26.549787,21.3194167 26.6506549,21.28275 26.7091567,21.2085833 C26.7680722,21.1343333 26.7975299,21.0345833 26.7975299,20.9090833 C26.7975299,20.79275 26.7686514,20.69925 26.7103151,20.62875 C26.6518961,20.5581667 26.5502835,20.5225 26.4041532,20.5225 L25.9813187,20.5225 L25.9813187,21.3194167 Z M17.5820546,21.5154167 L16.6229401,21.5154167 L16.4909595,22.1648333 L15.6307271,22.1648333 L16.654632,18.2306667 L17.5725387,18.2306667 L18.5971884,22.1648333 L17.7159384,22.1648333 L17.5820546,21.5154167 Z M17.4058046,20.6645 L17.1044419,19.2501667 L16.8048996,20.6645 L17.4058046,20.6645 Z" id="Fill-3" fill="#FFFFFE"></path>
            <path d="M8.08830282,6.90666667 L8.08830282,12.8344167 C5.55270246,12.96275 3.34949472,14.7581667 3.36554754,17.45025 C3.37953169,19.7865 5.58290493,21.9393333 8.08838556,21.9775833 C10.0962289,22.0083333 11.7708521,21.0315 11.8796637,19.4148333 C12.0712218,16.5703333 9.39263556,16.032 8.08830282,17.45025 L8.08838556,14.94525 L13.8456373,14.94525 L13.8456373,20.49775 L13.5212711,20.5034167 C11.9948468,22.426 10.0486496,22.94675 7.87390669,22.986 C3.72789437,23.0609167 0.148778169,19.472 0.0187834507,15.2698333 C-0.161190141,9.45291667 5.20889085,6.67183333 8.08830282,6.90666667" id="Fill-4" fill="#0272BA"></path>
            <path d="M11.0827324,0.123583333 C11.6689085,0.789333333 12.1988169,1.852 12.5815194,3.02825 C12.9642218,4.2045 13.201125,5.497 13.201125,6.62158333 C13.201125,7.95583333 13.001375,9.446 12.6123011,10.816 C12.2586426,12.0615833 11.7475176,13.209 11.086456,14.0520833 L10.9913803,14.17325 L10.8939877,14.0535833 C10.2444278,13.2553333 9.74645951,12.1556667 9.40239965,10.9574167 C9.01961444,9.62483333 8.82648415,8.169 8.82648415,6.8715 C8.82648415,5.65141667 9.03872887,4.23033333 9.42788556,2.9585 C9.78038556,1.80666667 10.2793468,0.774916667 10.8994489,0.120833333 L10.9932835,0.022 L11.0827324,0.123583333 Z" id="Fill-5" fill="#FFFFFE"></path>
            <path d="M11.0827324,0.123583333 C11.6689085,0.789333333 12.1988169,1.852 12.5815194,3.02825 C12.9642218,4.2045 13.201125,5.497 13.201125,6.62158333 C13.201125,7.95583333 13.001375,9.446 12.6123011,10.816 C12.2586426,12.0615833 11.7475176,13.209 11.086456,14.0520833 L10.9913803,14.17325 L10.8939877,14.0535833 C10.2444278,13.2553333 9.74645951,12.1556667 9.40239965,10.9574167 C9.01961444,9.62483333 8.82648415,8.169 8.82648415,6.8715 C8.82648415,5.65141667 9.03872887,4.23033333 9.42788556,2.9585 C9.78038556,1.80666667 10.2793468,0.774916667 10.8994489,0.120833333 L10.9932835,0.022 L11.0827324,0.123583333 Z" id="Stroke-6" stroke="#0470B8" stroke-width="0.5"></path>
            <path d="M10.9231972,3.37241667 C11.825382,4.39875 12.5584331,6.66308333 12.5584331,8.40625 C12.5584331,10.38575 11.9945986,12.80475 10.9231972,14.17325 C9.86437324,12.8699167 9.32552817,10.5154167 9.32552817,8.60175 C9.32552817,6.79858333 9.92072359,4.43133333 10.9231972,3.37241667" id="Fill-7" fill="#0470B8"></path>
            <path d="M10.9438011,8.13716667 C11.4378803,8.71058333 11.8393662,9.97566667 11.8393662,10.9495833 C11.8393662,12.0555833 11.5161585,13.4086667 10.9294032,14.1731667 C10.3495158,13.4450833 10.0688398,12.128 10.0688398,11.0588333 C10.0688398,10.0514167 10.3947782,8.72883333 10.9438011,8.13716667" id="Fill-8" fill="#FFFFFE"></path>
        </g>
    </g>
</svg>