<?xml version="1.0" encoding="utf-8"?>
<!-- Generator: Adobe Illustrator 22.1.0, SVG Export Plug-In . SVG Version: 6.00 Build 0)  -->
<svg version="1.1" id="Слой_1" xmlns="http://www.w3.org/2000/svg" xmlns:xlink="http://www.w3.org/1999/xlink" x="0px" y="0px"
	 width="44.442px" height="23px" viewBox="0 0 44.442 23" style="enable-background:new 0 0 44.442 23;" xml:space="preserve">
<style type="text/css">
	.st0{fill:#028DD2;}
	.st1{fill:#313B8D;}
</style>
<g>
	<path class="st0" d="M0,9.308v6.08c0,0.306,0.248,0.555,0.555,0.555h0.633c0.306,0,0.555-0.248,0.555-0.555v-2.193h2.107
		c0.306,0,0.555-0.248,0.555-0.555v-0.572c0-0.306-0.248-0.555-0.555-0.555H1.743v-1.118h2.965c0.306,0,0.555-0.248,0.555-0.555
		V9.288c0-0.308-0.25-0.556-0.558-0.555L0.552,8.753C0.247,8.755,0,9.003,0,9.308z"/>
	<path class="st0" d="M6.245,8.739h0.529c0.306,0,0.555,0.248,0.555,0.555v4.994h2.953c0.306,0,0.555,0.248,0.555,0.555v0.546
		c0,0.306-0.248,0.555-0.555,0.555H6.245c-0.306,0-0.555-0.248-0.555-0.555V9.294C5.69,8.987,5.938,8.739,6.245,8.739z"/>
	<path class="st0" d="M9.831,8.733h0.958l1.625,2.125l1.67-2.12h0.963c0.46,0,0.72,0.527,0.44,0.892l-2.183,2.846v2.911
		c0,0.306-0.248,0.555-0.555,0.555h-0.587c-0.306,0-0.555-0.248-0.555-0.555v-2.911L9.393,9.628C9.11,9.264,9.369,8.733,9.831,8.733
		z"/>
	<path class="st1" d="M18.72,8.733c-1.992,0-3.606,1.615-3.606,3.606c0,1.992,1.615,3.606,3.606,3.606
		c1.992,0,3.606-1.615,3.606-3.606C22.327,10.348,20.712,8.733,18.72,8.733z M18.72,14.287c-1.073,0-1.942-0.869-1.942-1.942
		s0.869-1.942,1.942-1.942s1.942,0.869,1.942,1.942S19.793,14.287,18.72,14.287z"/>
	<path class="st1" d="M22.737,15.391V9.294c0-0.306,0.248-0.555,0.555-0.555h0.46c0.172,0,0.335,0.08,0.44,0.217l2.88,3.75V9.294
		c0-0.306,0.248-0.555,0.555-0.555h0.532c0.306,0,0.555,0.248,0.555,0.555v6.097c0,0.306-0.248,0.555-0.555,0.555H27.72
		c-0.173,0-0.337-0.081-0.442-0.219l-2.923-3.841v3.505c0,0.306-0.248,0.555-0.555,0.555h-0.509
		C22.986,15.946,22.737,15.697,22.737,15.391z"/>
	<path class="st1" d="M29.95,8.739h3.913c0.306,0,0.555,0.248,0.555,0.555v0.52c0,0.306-0.248,0.555-0.555,0.555H31.08v1.133h2.783
		c0.306,0,0.555,0.248,0.555,0.555V12.6c0,0.306-0.248,0.555-0.555,0.555h-2.792v1.133h2.792c0.306,0,0.555,0.248,0.555,0.555v0.549
		c0,0.306-0.248,0.555-0.555,0.555H29.95c-0.306,0-0.555-0.248-0.555-0.555V9.294C29.395,8.987,29.644,8.739,29.95,8.739z"/>
	<path class="st0" d="M16.819,16.16c0,0,3.526,6.832,12.091,6.832c0,0,3.872-1.485,5.745-4.462
		C34.655,18.53,25.165,24.298,16.819,16.16z"/>
	<path class="st1" d="M29.563,22.991c0,0,16.304,1.144,14.779-22.991L33.915,6.173L37.417,7.3
		C38.562,12.831,36.094,20.425,29.563,22.991z"/>
</g>
</svg>
