<?xml version="1.0" encoding="utf-8"?>
<!-- Generator: Adobe Illustrator 22.1.0, SVG Export Plug-In . SVG Version: 6.00 Build 0)  -->
<svg version="1.1" id="Layer_1" xmlns="http://www.w3.org/2000/svg" xmlns:xlink="http://www.w3.org/1999/xlink" x="0px" y="0px"
	 width="113.386px" height="24.631px" viewBox="0 0 113.386 24.631" style="enable-background:new 0 0 113.386 24.631;"
	 xml:space="preserve">
<style type="text/css">
	.st0{fill:#056FB6;}
	.st1{fill:#088B7B;}
	.st2{fill:#10A2DC;}
</style>
<g>
	<path class="st0" d="M34.855,19.353c0.255,0,0.486-0.029,0.695-0.086c0.208-0.058,0.392-0.131,0.556-0.218
		c0.162-0.087,0.301-0.179,0.416-0.277c0.116-0.099,0.202-0.183,0.26-0.252c0.127,0.138,0.257,0.34,0.391,0.607
		c0.133,0.266,0.2,0.492,0.2,0.677c0,0.117-0.024,0.229-0.07,0.339c-0.047,0.111-0.145,0.223-0.296,0.339
		c-0.22,0.162-0.532,0.313-0.937,0.451c-0.405,0.139-0.92,0.209-1.547,0.209c-0.416,0-0.867-0.058-1.354-0.174
		c-0.485-0.115-0.936-0.335-1.355-0.66c-0.415-0.323-0.762-0.772-1.041-1.345c-0.277-0.573-0.416-1.322-0.416-2.248
		c0-0.88,0.145-1.598,0.434-2.153c0.289-0.556,0.649-0.995,1.076-1.319c0.429-0.324,0.883-0.547,1.363-0.669
		c0.481-0.121,0.912-0.182,1.292-0.182c0.476,0,0.916,0.051,1.32,0.156c0.405,0.104,0.741,0.244,1.007,0.417
		c0.22,0.139,0.374,0.273,0.461,0.4c0.087,0.126,0.13,0.277,0.13,0.451c0,0.162-0.052,0.362-0.156,0.599
		c-0.104,0.237-0.237,0.454-0.399,0.651c-0.185-0.197-0.458-0.394-0.816-0.591c-0.359-0.197-0.759-0.295-1.198-0.295
		c-0.765,0-1.309,0.235-1.632,0.703c-0.325,0.47-0.487,1.068-0.487,1.797c0,0.37,0.035,0.718,0.105,1.041
		c0.069,0.323,0.187,0.607,0.355,0.851c0.168,0.243,0.385,0.435,0.652,0.572C34.132,19.284,34.461,19.353,34.855,19.353"/>
	<path class="st0" d="M42.467,19.371c0.29,0,0.546-0.033,0.767-0.096c0.221-0.064,0.418-0.141,0.591-0.234
		c0.175-0.092,0.326-0.193,0.454-0.304c0.128-0.109,0.243-0.211,0.349-0.304c0.138,0.174,0.283,0.396,0.435,0.669
		c0.15,0.271,0.227,0.494,0.227,0.669c0,0.254-0.146,0.486-0.435,0.694c-0.243,0.185-0.588,0.345-1.033,0.477
		c-0.446,0.133-0.97,0.2-1.572,0.2c-0.544,0-1.079-0.069-1.606-0.208c-0.526-0.139-0.995-0.382-1.405-0.729
		c-0.411-0.347-0.744-0.813-0.999-1.398c-0.255-0.585-0.382-1.322-0.382-2.214c0-0.728,0.112-1.357,0.338-1.884
		c0.227-0.527,0.527-0.963,0.903-1.311c0.376-0.347,0.802-0.601,1.276-0.763c0.475-0.162,0.96-0.243,1.459-0.243
		c0.648,0,1.198,0.101,1.65,0.303c0.451,0.203,0.818,0.475,1.101,0.816c0.284,0.342,0.489,0.732,0.617,1.172
		c0.127,0.44,0.191,0.902,0.191,1.388v0.244c0,0.093-0.003,0.191-0.008,0.295c-0.006,0.104-0.013,0.205-0.018,0.303
		c-0.006,0.098-0.015,0.177-0.027,0.235h-5.121c0.046,0.637,0.244,1.167,0.593,1.588C41.16,19.159,41.712,19.371,42.467,19.371
		 M43.257,15.846c0-0.555-0.107-1.007-0.323-1.354c-0.216-0.347-0.603-0.519-1.162-0.519c-0.477,0-0.858,0.164-1.143,0.492
		c-0.285,0.331-0.427,0.79-0.427,1.381H43.257z"/>
	<path class="st0" d="M48.794,13.155c0.175-0.173,0.43-0.344,0.766-0.511c0.336-0.167,0.769-0.251,1.302-0.251
		c0.452,0,0.882,0.066,1.293,0.199c0.41,0.134,0.776,0.362,1.094,0.686c0.318,0.324,0.573,0.75,0.763,1.276
		c0.191,0.526,0.287,1.183,0.287,1.97c0,0.903-0.104,1.648-0.312,2.239c-0.209,0.59-0.478,1.057-0.807,1.398
		c-0.329,0.341-0.701,0.581-1.111,0.719c-0.411,0.14-0.824,0.21-1.242,0.21c-0.37,0-0.692-0.044-0.963-0.131
		c-0.272-0.088-0.498-0.184-0.677-0.289c-0.179-0.106-0.318-0.208-0.416-0.307c-0.098-0.1-0.159-0.166-0.182-0.201
		c0,0.188-0.047,0.349-0.139,0.484c-0.092,0.134-0.254,0.201-0.486,0.201h-1.527V8.606c0-0.011,0.087-0.026,0.26-0.043
		c0.174-0.017,0.353-0.025,0.538-0.025c0.185,0,0.373,0.016,0.565,0.051c0.191,0.035,0.358,0.106,0.503,0.209
		c0.145,0.104,0.263,0.246,0.356,0.425c0.092,0.179,0.137,0.414,0.137,0.703V13.155z M51.834,16.55c0-0.357-0.029-0.689-0.087-0.995
		c-0.058-0.305-0.153-0.569-0.286-0.787c-0.133-0.219-0.312-0.392-0.538-0.519c-0.226-0.127-0.501-0.19-0.824-0.19
		c-0.486,0-0.824,0.092-1.016,0.277c-0.19,0.185-0.288,0.392-0.288,0.622v3.756c0.095,0.092,0.259,0.204,0.496,0.336
		c0.238,0.133,0.535,0.199,0.895,0.199c0.591,0,1.013-0.234,1.267-0.701C51.706,18.081,51.834,17.415,51.834,16.55"/>
	<path class="st0" d="M60.636,12.617c0.011,0,0.104-0.008,0.278-0.026c0.173-0.018,0.341-0.026,0.503-0.026
		c0.197,0,0.391,0.024,0.582,0.069c0.191,0.047,0.359,0.121,0.504,0.225c0.145,0.105,0.262,0.248,0.356,0.426
		c0.091,0.18,0.139,0.408,0.139,0.685v6.875h-1.58c-0.289,0-0.472-0.078-0.547-0.234c-0.075-0.156-0.113-0.385-0.113-0.685
		c-0.196,0.266-0.5,0.512-0.911,0.737c-0.411,0.226-0.958,0.339-1.641,0.339c-0.821,0-1.429-0.162-1.822-0.486
		c-0.394-0.323-0.648-0.753-0.764-1.284c-0.058-0.266-0.095-0.556-0.112-0.869c-0.017-0.312-0.027-0.618-0.027-0.92v-4.827
		c0.081,0,0.168-0.006,0.261-0.017c0.081-0.011,0.164-0.02,0.252-0.026c0.086-0.006,0.17-0.008,0.25-0.008
		c0.464,0,0.845,0.098,1.146,0.295c0.301,0.197,0.452,0.551,0.452,1.06v3.419c0,0.255,0.008,0.493,0.027,0.712
		c0.017,0.22,0.063,0.409,0.138,0.565c0.075,0.156,0.197,0.277,0.365,0.365c0.167,0.086,0.402,0.13,0.703,0.13
		c0.428,0,0.796-0.09,1.102-0.269c0.307-0.18,0.461-0.402,0.461-0.668V12.617z"/>
	<path class="st0" d="M69.402,13.399c0.185-0.22,0.473-0.444,0.866-0.669c0.392-0.225,0.889-0.339,1.488-0.339
		c0.428,0,0.834,0.073,1.221,0.218c0.386,0.145,0.729,0.379,1.03,0.703c0.299,0.324,0.539,0.752,0.718,1.284
		c0.179,0.533,0.268,1.187,0.268,1.962c0,0.904-0.103,1.648-0.312,2.231c-0.208,0.584-0.476,1.047-0.805,1.388
		c-0.328,0.342-0.695,0.582-1.098,0.72c-0.404,0.14-0.808,0.209-1.212,0.209c-0.335,0-0.625-0.037-0.874-0.113
		c-0.248-0.075-0.458-0.159-0.632-0.253c-0.173-0.092-0.305-0.184-0.398-0.277c-0.092-0.091-0.15-0.156-0.174-0.191v4.358h-2.359
		V12.635c0.057-0.012,0.127-0.023,0.209-0.035c0.07-0.011,0.152-0.02,0.245-0.026c0.094-0.005,0.203-0.008,0.333-0.008
		c0.384,0,0.711,0.064,0.979,0.191C69.163,12.884,69.333,13.098,69.402,13.399 M72.528,16.61c0-0.348-0.029-0.671-0.086-0.973
		c-0.058-0.3-0.153-0.561-0.285-0.781c-0.132-0.22-0.311-0.391-0.535-0.513c-0.224-0.121-0.498-0.182-0.82-0.182
		c-0.484,0-0.82,0.093-1.01,0.278c-0.19,0.185-0.285,0.388-0.285,0.607v3.681c0.092,0.092,0.256,0.203,0.492,0.33
		c0.236,0.128,0.51,0.191,0.82,0.191c0.588,0,1.02-0.231,1.295-0.694C72.389,18.091,72.528,17.444,72.528,16.61"/>
	<path class="st0" d="M82.926,18.832c0,0.914,0.133,1.58,0.4,1.998c-0.208,0.08-0.402,0.138-0.582,0.173
		c-0.18,0.034-0.367,0.051-0.565,0.051c-0.416,0-0.731-0.081-0.945-0.242c-0.215-0.162-0.351-0.394-0.408-0.694
		c-0.255,0.267-0.59,0.492-1.007,0.677c-0.417,0.185-0.927,0.278-1.528,0.278c-0.312,0-0.626-0.043-0.937-0.129
		c-0.312-0.087-0.596-0.228-0.85-0.425c-0.256-0.196-0.464-0.458-0.625-0.787c-0.162-0.329-0.243-0.731-0.243-1.203
		c0-0.588,0.14-1.066,0.425-1.437c0.283-0.369,0.639-0.66,1.067-0.874c0.429-0.213,0.891-0.36,1.389-0.441
		c0.498-0.081,0.954-0.132,1.372-0.156c0.137-0.011,0.274-0.017,0.408-0.017h0.373v-0.316c0-0.446-0.118-0.762-0.356-0.949
		c-0.237-0.186-0.622-0.28-1.154-0.28c-0.498,0-0.94,0.081-1.328,0.242c-0.388,0.162-0.767,0.347-1.137,0.556
		c-0.162-0.197-0.292-0.414-0.39-0.651c-0.098-0.238-0.147-0.414-0.147-0.529c0-0.162,0.09-0.318,0.269-0.469
		c0.178-0.149,0.425-0.287,0.736-0.407c0.314-0.122,0.672-0.22,1.078-0.296c0.405-0.074,0.833-0.112,1.284-0.112
		c0.626,0,1.156,0.063,1.589,0.191c0.434,0.127,0.787,0.323,1.059,0.589c0.272,0.267,0.466,0.6,0.582,0.999
		c0.115,0.399,0.173,0.866,0.173,1.398V18.832z M80.705,16.818h-0.244c-0.081,0-0.162,0.006-0.243,0.018
		c-0.29,0.024-0.576,0.058-0.859,0.104c-0.283,0.046-0.536,0.128-0.755,0.243c-0.22,0.115-0.399,0.266-0.538,0.451
		c-0.139,0.186-0.209,0.423-0.209,0.712c0,0.324,0.093,0.599,0.278,0.825c0.185,0.225,0.498,0.337,0.937,0.337
		c0.22,0,0.428-0.028,0.626-0.086c0.196-0.057,0.37-0.134,0.52-0.225c0.151-0.093,0.269-0.194,0.356-0.304
		c0.087-0.109,0.131-0.211,0.131-0.304V16.818z"/>
	<path class="st0" d="M88.603,19.353c0.255,0,0.487-0.029,0.695-0.086c0.208-0.058,0.393-0.131,0.556-0.218
		c0.161-0.087,0.3-0.179,0.416-0.277c0.116-0.099,0.203-0.183,0.261-0.252c0.127,0.138,0.257,0.34,0.391,0.607
		c0.133,0.266,0.2,0.492,0.2,0.677c0,0.117-0.024,0.229-0.069,0.339c-0.047,0.111-0.145,0.223-0.295,0.339
		c-0.22,0.162-0.532,0.313-0.937,0.451c-0.406,0.139-0.92,0.209-1.545,0.209c-0.417,0-0.869-0.058-1.354-0.174
		c-0.487-0.115-0.937-0.335-1.356-0.66c-0.415-0.323-0.762-0.772-1.04-1.345c-0.277-0.573-0.417-1.322-0.417-2.248
		c0-0.88,0.145-1.598,0.434-2.153c0.289-0.556,0.649-0.995,1.076-1.319c0.429-0.324,0.883-0.547,1.363-0.669
		c0.481-0.121,0.912-0.182,1.294-0.182c0.474,0,0.914,0.051,1.319,0.156c0.405,0.104,0.741,0.244,1.007,0.417
		c0.22,0.139,0.373,0.273,0.46,0.4c0.087,0.126,0.13,0.277,0.13,0.451c0,0.162-0.052,0.362-0.156,0.599
		c-0.104,0.237-0.237,0.454-0.398,0.651c-0.187-0.197-0.459-0.394-0.817-0.591c-0.36-0.197-0.76-0.295-1.198-0.295
		c-0.764,0-1.309,0.235-1.632,0.703c-0.325,0.47-0.486,1.068-0.486,1.797c0,0.37,0.035,0.718,0.104,1.041
		c0.069,0.323,0.188,0.607,0.355,0.851c0.168,0.243,0.385,0.435,0.652,0.572C87.88,19.284,88.209,19.353,88.603,19.353"/>
	<path class="st0" d="M94.331,9.856c0,0.37-0.123,0.672-0.372,0.903c-0.248,0.232-0.547,0.348-0.894,0.348
		c-0.359,0-0.66-0.116-0.903-0.348c-0.243-0.231-0.365-0.533-0.365-0.903c0-0.37,0.122-0.673,0.365-0.912
		c0.243-0.236,0.544-0.356,0.903-0.356c0.348,0,0.646,0.12,0.894,0.356C94.208,9.183,94.331,9.487,94.331,9.856 M94.315,20.951
		c-0.047,0.023-0.151,0.04-0.312,0.051c-0.162,0.013-0.336,0.018-0.522,0.018c-0.23,0-0.439-0.02-0.623-0.06
		c-0.186-0.041-0.345-0.116-0.479-0.226c-0.132-0.11-0.236-0.257-0.312-0.442c-0.075-0.185-0.113-0.423-0.113-0.712v-6.944
		c0-0.012,0.087-0.026,0.26-0.043c0.173-0.017,0.352-0.027,0.538-0.027c0.185,0,0.371,0.018,0.556,0.052
		c0.185,0.034,0.353,0.101,0.503,0.2c0.151,0.098,0.271,0.237,0.365,0.416c0.092,0.179,0.139,0.414,0.139,0.703V20.951z"/>
	<path class="st0" d="M105.139,9.856c0,0.37-0.125,0.672-0.374,0.903c-0.249,0.232-0.546,0.348-0.893,0.348
		c-0.36,0-0.66-0.116-0.903-0.348c-0.243-0.231-0.364-0.533-0.364-0.903c0-0.37,0.121-0.673,0.364-0.912
		c0.243-0.236,0.543-0.356,0.903-0.356c0.347,0,0.645,0.12,0.893,0.356C105.015,9.183,105.139,9.487,105.139,9.856 M105.122,20.951
		c-0.047,0.023-0.15,0.04-0.312,0.051c-0.163,0.013-0.336,0.018-0.522,0.018c-0.231,0-0.44-0.02-0.625-0.06
		c-0.186-0.041-0.345-0.116-0.477-0.226c-0.133-0.11-0.237-0.257-0.313-0.442c-0.074-0.185-0.112-0.423-0.112-0.712v-6.944
		c0-0.012,0.086-0.026,0.261-0.043c0.173-0.017,0.352-0.027,0.538-0.027c0.185,0,0.371,0.018,0.556,0.052
		c0.184,0.034,0.353,0.101,0.503,0.2c0.15,0.098,0.271,0.237,0.364,0.416c0.093,0.179,0.14,0.414,0.14,0.703V20.951z"/>
	<path class="st0" d="M110.799,19.353c0.255,0,0.486-0.029,0.695-0.086c0.208-0.058,0.392-0.131,0.556-0.218
		c0.162-0.087,0.301-0.179,0.416-0.277c0.116-0.099,0.203-0.183,0.261-0.252c0.127,0.138,0.257,0.34,0.39,0.607
		c0.133,0.266,0.2,0.492,0.2,0.677c0,0.117-0.023,0.229-0.069,0.339c-0.047,0.111-0.145,0.223-0.295,0.339
		c-0.22,0.162-0.532,0.313-0.937,0.451c-0.405,0.139-0.92,0.209-1.546,0.209c-0.416,0-0.867-0.058-1.355-0.174
		c-0.484-0.115-0.936-0.335-1.354-0.66c-0.415-0.323-0.762-0.772-1.04-1.345c-0.277-0.573-0.416-1.322-0.416-2.248
		c0-0.88,0.144-1.598,0.433-2.153c0.29-0.556,0.649-0.995,1.077-1.319c0.428-0.324,0.883-0.547,1.362-0.669
		c0.481-0.121,0.912-0.182,1.293-0.182c0.475,0,0.913,0.051,1.32,0.156c0.405,0.104,0.74,0.244,1.007,0.417
		c0.22,0.139,0.373,0.273,0.46,0.4c0.087,0.126,0.131,0.277,0.131,0.451c0,0.162-0.053,0.362-0.156,0.599
		c-0.105,0.237-0.238,0.454-0.4,0.651c-0.185-0.197-0.458-0.394-0.816-0.591c-0.359-0.197-0.759-0.295-1.199-0.295
		c-0.763,0-1.307,0.235-1.63,0.703c-0.324,0.47-0.486,1.068-0.486,1.797c0,0.37,0.035,0.718,0.104,1.041
		c0.068,0.323,0.187,0.607,0.355,0.851c0.168,0.243,0.385,0.435,0.652,0.572C110.076,19.284,110.404,19.353,110.799,19.353"/>
	<path class="st0" d="M98.203,11.766c0-0.556,0.13-0.949,0.391-1.18c0.26-0.232,0.61-0.348,1.051-0.348
		c0.37,0,0.703,0.064,0.998,0.191c0.23,0.1,0.421,0.227,0.591,0.367l0.627-0.886c0,0,0.312-0.556-0.3-0.984
		c-0.271-0.171-0.604-0.302-1.005-0.39c-0.422-0.092-0.842-0.139-1.259-0.139c-1.102,0-1.954,0.292-2.554,0.877
		c-0.601,0.584-0.901,1.438-0.901,2.561v9.009h2.361v-6.475h2.967v-1.788h-2.967V11.766z"/>
	<path class="st1" d="M33.921,9.003c0,0,1.293-1.587-0.038-2.503c-1.416-0.974-7.12-1.936-13.933,3.507
		c-6.813,5.442-8.138,9.177-9.116,11.93c0,0,3.364-4.981,6.912-7.551c0,0-0.978,0.612-2.141,4.466c0,0,1.532-2.91,10.518-8.708
		C26.122,10.143,33.476,6.059,33.921,9.003"/>
	<path class="st1" d="M30.77,5.056c0,0-0.63-0.728-2.393-0.788c0,0-0.577,0.782-1.601,0.81c-0.877,0.024-1.26-0.517-1.459-0.709
		c1.096,0.419,1.885-0.182,1.885-0.182s-3.386-0.567-8.471,0.258c0,0,1.43-0.778,4.511-1.373C25.933,2.552,31.566,2.477,30.77,5.056
		"/>
	<path class="st2" d="M18.3,8.739c0,0-7.592,6.081-13.455,3.976c0.519,3.894,4.694,3.073,4.694,3.073S13.854,15.41,18.3,8.739"/>
	<path class="st2" d="M17.93,4.638c0,0-8.367,1.514-13.24-4.638c0,0-1.889,4.141,2.558,5.665C7.247,5.665,12.426,7.523,17.93,4.638"
		/>
	<path class="st2" d="M0.057,4.96c-0.199,1.179-0.03,4.952,3.172,5.88c7.809,2.294,16.976-4.788,16.976-4.788
		C7.589,9.957,2.483,6.54,0.057,4.96"/>
</g>
</svg>
