<?xml version="1.0" encoding="utf-8"?>
<!-- Generator: Adobe Illustrator 22.1.0, SVG Export Plug-In . SVG Version: 6.00 Build 0)  -->
<svg version="1.1" id="Слой_1" xmlns="http://www.w3.org/2000/svg" xmlns:xlink="http://www.w3.org/1999/xlink" x="0px" y="0px"
	 width="40px" height="6.811px" viewBox="0 0 40 6.811" style="enable-background:new 0 0 40 6.811;" xml:space="preserve">
<style type="text/css">
	.st0{fill-rule:evenodd;clip-rule:evenodd;fill:#1F2E61;}
	.st1{fill-rule:evenodd;clip-rule:evenodd;fill:#FBC14F;}
</style>
<g>
	<g>
		<path class="st0" d="M28.678,6.811h8.466l2.797-6.483c0,0,0.081-0.141,0.052-0.215c-0.037-0.096-0.148-0.111-0.185-0.111h-2.228
			c0,0-0.274-0.037-0.503,0.155C36.848,0.343,28.678,6.811,28.678,6.811L28.678,6.811z"/>
		<path class="st1" d="M37.389,3.822c0.037-0.037,0.111-0.222,0.289-0.34c1.073-0.799,1.798-2.057,1.88-3.478h-0.17
			c0.007,0.022,0.007,0.037,0.015,0.059c-0.037,0.555-0.178,1.088-0.392,1.569c-0.074-0.259-0.437-0.503-1.006-0.703
			c0.052-0.296,0.089-0.607,0.096-0.925h-0.311c-0.007,0.289-0.03,0.57-0.067,0.836c-0.348-0.096-0.755-0.178-1.199-0.237
			c-0.081,0.059-0.163,0.126-0.252,0.2c0.533,0.052,1.014,0.133,1.414,0.237c-0.074,0.466-0.207,0.896-0.37,1.273
			c-0.37-0.118-0.844-0.215-1.384-0.274c0.059-0.333,0.104-0.696,0.133-1.073c-0.118,0.089-0.244,0.192-0.377,0.296
			c-0.015,0.266-0.037,0.518-0.067,0.755c-0.237-0.015-0.481-0.03-0.733-0.03c-0.037,0-0.081,0.007-0.118,0.007
			c-0.081,0.059-0.155,0.118-0.237,0.185c0.118-0.007,0.237-0.007,0.355-0.007c0.244,0,0.481,0.007,0.71,0.022
			c-0.044,0.385-0.104,0.74-0.17,1.043c-0.178-0.015-0.363-0.03-0.562-0.03c-0.2,0-0.392,0.015-0.577,0.03
			c-0.044-0.229-0.089-0.481-0.133-0.762c-0.081,0.067-0.155,0.126-0.237,0.192c0.044,0.215,0.104,0.414,0.163,0.592
			c-0.385,0.052-0.703,0.141-0.918,0.252c-0.044-0.052-0.089-0.096-0.133-0.148c-0.037,0.037-0.081,0.067-0.118,0.104
			c0.037,0.037,0.081,0.081,0.118,0.118c-0.096,0.074-0.148,0.148-0.148,0.229c0,0.007,0.007,0.022,0.007,0.037
			c-0.096-0.044-0.192-0.096-0.281-0.148c-0.044,0.037-0.089,0.067-0.133,0.104c0.059,0.067,0.089,0.133,0.118,0.148
			c0.052,0.037,0.104,0.015,0.141,0.03c0.037,0.007,0.067,0.022,0.111,0.067c0.037,0.037,0.074,0.074,0.118,0.133
			c0.059,0.074,0.148,0.126,0.266,0.185c0.081,0.052,0.126,0.052,0.17,0.052c0.022,0.007,0.052,0.007,0.089,0.022
			c0.044,0.007,0.059,0.03,0.089,0.059c0.037,0.037,0.081,0.081,0.178,0.133c0.059,0.03,0.104,0.037,0.141,0.052
			c0.03,0.007,0.052,0.015,0.074,0.03c0.037,0.022,0.059,0.059,0.081,0.096c0.015,0.03,0.037,0.067,0.074,0.089
			c0.059,0.037,0.133,0.052,0.155,0.052l0,0c0,0.111,0.052,0.178,0.148,0.178c0.007,0,0.007,0,0.007,0
			c0,0.096,0.037,0.111,0.089,0.126c-0.007,0.03,0.007,0.059,0.015,0.067c0.015,0.015,0.022,0.022,0.037,0.03l0,0
			c0,0.044-0.007,0.081,0.015,0.111c0.015,0.015,0.03,0.022,0.052,0.022h0.007l0,0c0.007,0.015,0.015,0.03,0.03,0.037
			c0.059,0.096,0.126,0.185,0.118,0.326c-0.007,0.133-0.044,0.215-0.074,0.296c-0.03,0.067-0.059,0.141-0.067,0.237
			c-0.007,0.067,0.015,0.148,0.037,0.2v0.007c-0.074-0.081-0.111-0.237-0.111-0.481c0-0.155,0.022-0.34,0.067-0.533
			c0,0,0-0.007,0.007-0.007c0.007-0.037-0.007-0.059-0.03-0.067c-0.015-0.007-0.044,0-0.074,0.037
			c-0.022,0.037-0.155,0.326-0.163,0.651c0,0.266,0.074,0.503,0.2,0.599h0.281c0.037-0.03,0.059-0.067,0.059-0.081l0,0
			c0.022-0.037,0.022-0.133,0.022-0.155c0-0.015,0.052-0.2,0.067-0.229c0.03-0.067,0.081-0.207,0.104-0.311
			c0.007,0.007,0.007,0.015,0.007,0.022c0.022,0.059,0.044,0.207,0.052,0.266c0.007,0.015,0.015,0.074,0.052,0.074
			c0.037,0,0.052-0.052,0.059-0.074c0.015-0.081,0-0.303-0.015-0.392c-0.007-0.03-0.015-0.052-0.022-0.074
			c-0.022-0.059-0.052-0.126-0.052-0.274c-0.007-0.089,0.015-0.185,0.03-0.259c0-0.03,0.007-0.052,0.007-0.067
			c0.007-0.044,0-0.074-0.015-0.104c0.015,0,0.03,0,0.037,0s0.015-0.007,0.022-0.007c0.007,0,0.007,0,0.015-0.007
			c0.007,0.007,0.015,0.037,0.007,0.059c0,0.007,0,0.007,0,0.015c0,0.03-0.007,0.059,0,0.111c0.007,0.022,0.022,0.044,0.03,0.067
			c0.015,0.022,0.03,0.037,0.03,0.059l0,0l0,0c0.022,0.141-0.037,0.747-0.052,0.836c-0.007,0.037-0.015,0.067-0.022,0.096
			c-0.007,0.044-0.007,0.074-0.022,0.104c-0.007,0.015-0.015,0.03-0.03,0.052c-0.052,0.067-0.111,0.155-0.118,0.229
			c0,0.015,0.007,0.037,0.015,0.044h0.503c0.007-0.007,0.007-0.015,0.015-0.03c0.007-0.015,0.015-0.067-0.037-0.111
			c-0.022-0.015-0.052-0.03-0.074-0.044c-0.044-0.022-0.089-0.044-0.089-0.067c0-0.022,0.015-0.052,0.03-0.074
			c0.022-0.03,0.037-0.059,0.037-0.089c0-0.007,0-0.022-0.007-0.044c-0.007-0.007-0.015-0.015-0.022-0.015
			c-0.007-0.015-0.007-0.015-0.007-0.03c0-0.007,0.007-0.03,0.015-0.052c0.044-0.126,0.163-0.451,0.192-0.873
			c0.007-0.111-0.022-0.229-0.067-0.318c0.007,0.007,0.022,0.015,0.03,0.015c0.022,0,0.03-0.015,0.037-0.022
			c0.074-0.067,0.096-0.155,0.118-0.237c0-0.022,0.007-0.037,0.007-0.059c0.007-0.007,0.03-0.007,0.052-0.015
			c0.037-0.015,0.096-0.03,0.155-0.074c0.059-0.037,0.118-0.104,0.17-0.163c0.037-0.037,0.074-0.081,0.089-0.089
			c0.015-0.007,0.037-0.007,0.059,0c0.022,0.007,0.059,0.015,0.096,0.015c0.155-0.03,0.385-0.229,0.555-0.385
			c0.059-0.052,0.096-0.111,0.133-0.133c0.074-0.052,0.148-0.037,0.178-0.044C37.329,3.844,37.374,3.844,37.389,3.822L37.389,3.822z
			 M37.973,1.113c0.585,0.185,0.932,0.414,0.932,0.659c0,0.03,0,0.059-0.015,0.096c-0.2,0.377-0.451,0.733-0.747,1.036
			c-0.015-0.185-0.237-0.363-0.614-0.511C37.729,2.008,37.87,1.579,37.973,1.113L37.973,1.113z M35.901,2.216
			c0.525,0.044,0.992,0.126,1.354,0.229c-0.2,0.414-0.437,0.77-0.71,1.058c-0.215-0.104-0.533-0.192-0.91-0.244
			C35.738,2.956,35.827,2.608,35.901,2.216L35.901,2.216z M35.028,5.05c-0.044,0.007,0.044,0.037,0.037,0.104
			c0,0.037-0.044,0.059-0.089,0.059c-0.037,0,0.015,0.03,0.03,0.052c0.022,0.037-0.03,0.067-0.081,0.074
			c-0.037,0-0.118,0.007-0.17,0c-0.052-0.007-0.044-0.044-0.015-0.052c0.03-0.007,0.081-0.015,0.118-0.03
			c0.067-0.022,0.022-0.044,0.007-0.044c-0.03,0-0.081-0.007-0.148-0.022c-0.044-0.015-0.059-0.044-0.044-0.074
			c0.007-0.007,0.03-0.015,0.044-0.015c0.037-0.007,0.141-0.007,0.185-0.022c0.044-0.007,0.067-0.052,0-0.052
			C34.85,5.02,34.754,5.02,34.665,5.013c-0.096-0.007-0.155-0.044-0.215-0.111c-0.059-0.067-0.074-0.215-0.126-0.296
			c-0.037-0.067-0.118-0.081-0.155-0.081c-0.03-0.007-0.059,0-0.074,0.007c-0.022,0.007-0.022,0.022-0.007,0.03
			c0.059,0.022,0.067,0.111,0.052,0.104c-0.104-0.096-0.281-0.163-0.34-0.178c-0.067-0.022-0.126-0.074-0.155-0.089
			c-0.022-0.015-0.133-0.089-0.178-0.089c-0.163,0.007-0.222-0.059-0.274-0.148c-0.022-0.037,0.037-0.022,0.052-0.015
			c0.052,0.03,0.17,0.096,0.296,0.141c0.141,0.037,0.185,0.022,0.281,0.059c0.074,0.03,0.133,0.111,0.207,0.111
			c0.096-0.007,0.104-0.052,0.229-0.074c0.03-0.007,0.118,0,0.141,0.007c0.059,0.015,0.059,0.022,0.089,0.022
			c0.044,0,0.089-0.03,0.111-0.03s0.037,0.015,0.037,0.03c0,0.015,0,0.081,0,0.111c0.007,0.089,0.037,0.126,0.096,0.163
			c0.074,0.044,0.118,0.059,0.207,0.074v0.067c-0.037,0-0.096-0.015-0.126-0.022c-0.015,0-0.022,0-0.022,0.007
			c-0.007,0.007-0.015,0.037,0.007,0.037c0.03,0.015,0.074,0.022,0.089,0.03c0.022,0.007,0.052,0.052,0.074,0.067
			c0.022,0.015,0.037,0.015,0.037-0.015c-0.007-0.03,0.015-0.044,0.044-0.052c0.067,0,0.133,0.007,0.133,0.089
			S35.102,5.05,35.028,5.05L35.028,5.05z M36.145,4.28c-0.081,0-0.163,0.03-0.222,0.074c-0.007,0-0.007,0.007-0.015,0.015
			c-0.03,0.022-0.03,0.007-0.037,0c0-0.007-0.022-0.022-0.037,0.007c-0.096,0.163-0.17,0.2-0.266,0.244
			c-0.022,0.007-0.03,0.007-0.022-0.007c0.007-0.022,0.015-0.074,0.022-0.126c0-0.052-0.03-0.104-0.03-0.111
			c-0.007-0.015-0.015-0.022-0.007-0.022c0.052-0.03,0.141-0.059,0.229-0.059c0.052,0,0.067,0.037,0.089,0.037
			c0.015,0.007,0.022-0.007,0.03-0.015c0.015-0.03,0.044-0.052,0.104-0.067c0.044-0.007,0.126,0,0.17,0.015
			C36.16,4.273,36.16,4.28,36.145,4.28L36.145,4.28z M36.73,3.903c-0.266,0.118-0.54,0.215-0.836,0.281
			c-0.022-0.03-0.067-0.059-0.141-0.059c-0.133,0-0.289,0.148-0.303,0.163c-0.044-0.044-0.104-0.096-0.185-0.059l-0.03,0.007
			l0.015,0.03c0.007,0.007,0.007,0.03,0.015,0.052c-0.03-0.081-0.081-0.155-0.163-0.178c-0.081-0.022-0.17-0.03-0.266-0.007
			c-0.044,0.007-0.104,0.052-0.141,0.089c-0.007-0.007-0.022-0.015-0.044-0.015c-0.059,0-0.111,0.052-0.141,0.081
			c0,0.007-0.007,0.007-0.007,0.007s-0.007-0.007-0.007-0.015c0,0-0.044-0.059-0.111-0.081c-0.059-0.015-0.118-0.015-0.163-0.015
			c-0.03,0-0.052,0.007-0.074,0.015c-0.037,0.015-0.074,0.015-0.126,0.015c-0.052,0-0.081,0-0.111-0.007
			c-0.318-0.074-0.622-0.17-0.91-0.303c-0.03-0.03-0.03-0.052-0.03-0.096c0-0.052,0.044-0.111,0.126-0.155
			c0.163,0.141,0.333,0.266,0.511,0.37c0.052,0.03,0.155,0.074,0.192,0.059c0.03-0.007-0.052-0.074-0.096-0.104
			c-0.163-0.111-0.318-0.244-0.466-0.392c0.2-0.081,0.518-0.148,0.888-0.192c0.081,0.215,0.163,0.392,0.252,0.54
			c0.03,0.052,0.096,0.141,0.141,0.148c0.022,0.007-0.015-0.089-0.03-0.133c-0.059-0.155-0.111-0.348-0.163-0.57
			c0.17-0.015,0.355-0.022,0.54-0.022c0.185,0,0.363,0.007,0.533,0.022c-0.052,0.222-0.111,0.414-0.17,0.57
			c-0.015,0.044-0.052,0.141-0.022,0.133c0.037-0.007,0.111-0.096,0.141-0.148c0.081-0.148,0.163-0.333,0.244-0.54
			c0.37,0.037,0.681,0.104,0.888,0.185c-0.148,0.155-0.311,0.289-0.474,0.4c-0.037,0.03-0.126,0.096-0.096,0.104
			c0.037,0.015,0.133-0.037,0.185-0.074c0.178-0.111,0.348-0.237,0.503-0.377c0.104,0.059,0.155,0.118,0.155,0.178
			C36.752,3.844,36.752,3.873,36.73,3.903L36.73,3.903z M36.833,3.859c0.007-0.015,0.007-0.03,0.007-0.037
			c0-0.089-0.067-0.17-0.178-0.252c0.311-0.296,0.585-0.651,0.807-1.051c0.348,0.126,0.548,0.274,0.548,0.422
			c0,0.104-0.015,0.111-0.222,0.289l0,0C37.507,3.481,37.181,3.688,36.833,3.859L36.833,3.859z"/>
	</g>
	<g>
		<polygon class="st1" points="22.923,4.349 24.119,4.349 23.009,6.777 21.83,6.777 22.923,4.349 		"/>
		<path class="st1" d="M26.304,5.702l0.52,1.075h-1.335l-0.312-1.006H25.16l-0.451,1.006h-1.196l1.11-2.428h1.838
			c0.694,0,1.006,0.156,0.763,0.78C27.049,5.598,26.72,5.667,26.304,5.702L26.304,5.702L26.304,5.702L26.304,5.702z M25.333,5.407
			h0.243c0.208,0,0.347-0.121,0.416-0.26c0.069-0.173-0.035-0.225-0.225-0.225h-0.208L25.333,5.407L25.333,5.407z"/>
		<path class="st1" d="M20.079,4.349h1.786l-0.243,2.428h-1.318l0.069-0.347h-0.728l-0.26,0.347H18.05L20.079,4.349L20.079,4.349z
			 M20.027,5.875h0.468l0.208-0.902h-0.017L20.027,5.875L20.027,5.875z"/>
		<polygon class="st0" points="4.855,4.263 8.132,4.263 7.855,4.869 6.814,4.869 5.93,6.777 4.664,6.777 5.549,4.869 4.56,4.869 
			4.855,4.263 		"/>
		<polygon class="st0" points="8.132,4.263 9.381,4.263 8.496,6.17 9.675,6.17 9.398,6.777 6.97,6.777 8.132,4.263 		"/>
		<path class="st0" d="M11.236,4.28h1.838l-0.225,2.48h-1.37l0.069-0.347h-0.746l-0.26,0.347H9.155L11.236,4.28L11.236,4.28z
			 M11.184,5.84h0.503l0.191-0.936H11.86L11.184,5.84L11.184,5.84z"/>
		<path class="st0" d="M15.692,5.008c0.017-0.069,0.017-0.139,0-0.173c-0.035-0.052-0.087-0.087-0.191-0.087
			c-0.191,0-0.295,0.069-0.364,0.208c-0.191,0.451,1.959-0.052,1.509,0.971c-0.26,0.59-0.85,0.884-2.098,0.884
			c-0.676,0-1.647-0.104-1.352-0.78h1.352c-0.035,0.069-0.035,0.139,0,0.173c0.017,0.035,0.087,0.069,0.191,0.069
			c0.208,0,0.347-0.104,0.381-0.191c0.191-0.416-1.855-0.069-1.422-1.04c0.243-0.555,0.78-0.815,1.959-0.815
			c1.006,0,1.613,0.139,1.318,0.78H15.692L15.692,5.008z"/>
		<path class="st0" d="M2.341,3.881h2.046L4.092,6.759H2.566l0.087-0.399H1.821L1.526,6.759H0L2.341,3.881L2.341,3.881z
			 M2.271,5.702h0.537l0.225-1.075l0,0L2.271,5.702L2.271,5.702z"/>
	</g>
</g>
</svg>
