<?xml version="1.0" encoding="utf-8"?>
<!-- Generator: Adobe Illustrator 22.1.0, SVG Export Plug-In . SVG Version: 6.00 Build 0)  -->
<svg version="1.1" id="Слой_1" xmlns="http://www.w3.org/2000/svg" xmlns:xlink="http://www.w3.org/1999/xlink" x="0px" y="0px"
	 width="40px" height="12.628px" viewBox="0 0 40 12.628" style="enable-background:new 0 0 40 12.628;" xml:space="preserve">
<style type="text/css">
	.st0{fill:#FF9A19;}
	.st1{fill:#00007D;}
</style>
<g>
	<path class="st0" d="M5.068,0h0.039C5.39,0.524,5.67,1.049,5.946,1.576c0.522,0.02,1.174-0.024,1.511,0.501
		c0.463,0.822,0.142,1.811,0.1,2.702c0.913-0.377,1.715-0.998,2.62-1.397C9.426,4.946,8.494,6.398,7.719,7.945
		c0.816,0.565,1.656,1.088,2.445,1.699C8.458,9.707,6.749,9.647,5.043,9.674c-0.009,0.985,0.027,1.97-0.029,2.953
		c-0.787-1.245-1.477-2.558-2.213-3.838c1.641-0.985,3.151-2.355,4.058-4.159c0.354-0.67,0.484-1.521,0.152-2.23
		C6.878,2.066,6.506,2.099,6.23,2.052C6.403,2.506,6.684,2.93,6.729,3.43C6.726,4.173,6.293,4.804,5.868,5.346
		C4.291,7.313,2.121,8.547,0,9.689C0.769,8.08,1.721,6.576,2.433,4.934C1.792,4.239,0.952,3.842,0.222,3.275
		c1.62-0.065,3.242-0.02,4.862-0.023C5.112,2.169,5.135,1.081,5.068,0L5.068,0z"/>
	<polygon class="st1" points="12.514,9.224 13.423,3.393 15.001,3.393 14.092,9.224 12.514,9.224 	"/>
	<polygon class="st1" points="32.199,9.224 33.108,3.392 34.685,3.392 33.777,9.224 32.199,9.224 	"/>
	<path class="st1" d="M15.245,7.315h1.425c-0.038,0.338,0.022,0.592,0.182,0.762c0.159,0.17,0.416,0.255,0.77,0.255
		c0.301,0,0.542-0.051,0.721-0.152c0.18-0.102,0.284-0.246,0.31-0.431c0.013-0.093,0.005-0.177-0.023-0.251
		c-0.03-0.073-0.077-0.129-0.142-0.166c-0.099-0.059-0.349-0.152-0.751-0.277c-0.401-0.126-0.738-0.249-1.009-0.367
		c-0.392-0.169-0.677-0.393-0.853-0.67c-0.176-0.277-0.238-0.601-0.185-0.971c0.081-0.566,0.354-1.016,0.817-1.349
		c0.464-0.334,1.051-0.501,1.762-0.501c0.697,0,1.225,0.176,1.584,0.527c0.359,0.351,0.495,0.825,0.409,1.424h-1.396
		c0.009-0.276-0.057-0.48-0.197-0.611c-0.141-0.132-0.36-0.198-0.659-0.198c-0.238,0-0.44,0.051-0.603,0.151
		c-0.163,0.1-0.257,0.228-0.28,0.384c-0.038,0.262,0.282,0.511,0.959,0.744c0.123,0.043,0.216,0.074,0.282,0.096l0.055,0.021
		c0.699,0.243,1.13,0.441,1.293,0.59c0.164,0.157,0.279,0.339,0.347,0.549c0.066,0.211,0.081,0.445,0.044,0.703
		c-0.085,0.589-0.373,1.049-0.862,1.377c-0.489,0.328-1.132,0.493-1.929,0.493c-0.753,0-1.301-0.176-1.644-0.528
		C15.328,8.566,15.186,8.032,15.245,7.315L15.245,7.315z"/>
	<path class="st1" d="M39.667,3.788c-0.28-0.264-0.753-0.396-1.419-0.396h-2.513l-0.773,5.832H36.3l0.289-2.181h0.898
		c0.233,0,0.401,0.053,0.502,0.158c0.103,0.105,0.149,0.272,0.141,0.499c-0.003,0.093-0.023,0.319-0.062,0.677
		c-0.038,0.359-0.035,0.642,0.006,0.847h1.409l0.027-0.201c-0.119-0.074-0.156-0.346-0.11-0.816c0.019-0.2,0.033-0.361,0.041-0.478
		c0.041-0.423,0.026-0.718-0.047-0.885c-0.073-0.168-0.218-0.3-0.435-0.399c0.305-0.158,0.539-0.354,0.704-0.588
		c0.166-0.232,0.27-0.514,0.313-0.841C40.05,4.461,39.948,4.052,39.667,3.788z M38.623,5.194c-0.032,0.242-0.119,0.419-0.261,0.53
		c-0.141,0.111-0.348,0.166-0.618,0.166h-1.002l0.176-1.33h1.037c0.254,0,0.436,0.053,0.546,0.157
		C38.611,4.821,38.652,4.979,38.623,5.194z"/>
	<path class="st1" d="M25.566,5.856c0.166-0.232,0.27-0.513,0.314-0.841c0.073-0.554-0.029-0.964-0.31-1.227
		c-0.28-0.264-0.753-0.396-1.419-0.396h-2.513l-0.773,5.832h1.338l0.289-2.181h0.898c0.233,0,0.401,0.053,0.502,0.158
		c0.103,0.105,0.149,0.272,0.141,0.499c-0.003,0.093-0.023,0.319-0.062,0.677c-0.038,0.359-0.035,0.642,0.006,0.847h1.409
		l0.027-0.201c-0.119-0.074-0.156-0.346-0.11-0.816c0.019-0.2,0.033-0.361,0.041-0.478c0.041-0.423,0.026-0.718-0.047-0.885
		c-0.073-0.168-0.218-0.3-0.435-0.399C25.167,6.286,25.401,6.09,25.566,5.856z M24.525,5.194c-0.032,0.242-0.119,0.419-0.261,0.53
		c-0.141,0.111-0.348,0.166-0.618,0.166h-1.002l0.176-1.33h1.037c0.254,0,0.436,0.053,0.546,0.157
		C24.513,4.821,24.554,4.979,24.525,5.194z"/>
	<path class="st1" d="M30.55,3.393h-1.719l-3.328,5.832h1.631l0.556-1.069h2.052l0.171,1.069h1.689L30.55,3.393z M28.296,6.947
		l1.044-2.011l0.3,2.011H28.296z"/>
</g>
</svg>
