<?xml version="1.0" encoding="utf-8"?>
<!-- Generator: Adobe Illustrator 22.1.0, SVG Export Plug-In . SVG Version: 6.00 Build 0)  -->
<svg version="1.1" id="Слой_1" xmlns="http://www.w3.org/2000/svg" xmlns:xlink="http://www.w3.org/1999/xlink" x="0px" y="0px"
	 width="663.52px" height="120.465px" viewBox="0 0 663.52 120.465" enable-background="new 0 0 663.52 120.465"
	 xml:space="preserve">
<g>
	<path fill="#F15923" d="M338.413,119.535c-6.005,0-12.011,0-18.016,0c-3.578-0.431-7.185,0.127-10.776-1.044
		c-5.406-1.762-10.416-4.022-14.052-8.517c-1.314-1.625-3.135-6.188-3.171-6.519c-1-9.388,1.473-18.079,4.904-26.703
		c4.252-10.686,8.067-20.609,12.074-31.392c4.798-12.916,9.982-26.635,14.81-39.539l36.55,0.019
		c-1.307,3.849-12.843,35.389-17.375,47.364c-3.449,9.112-6.897,17.289-10.499,26.341c-1.579,3.969-3.092,8.327-1.421,12.223
		c1.578,3.679,7.995,3.856,12.527,3.312c6.267-0.752,10.498-4.707,13.123-10.108c2.699-5.552,4.926-11.347,7.127-17.124
		c4.619-12.125,9.097-23.366,13.612-35.53c2.875-7.745,5.71-15.504,8.568-23.255c0.444-1.205,0.918-2.399,1.358-3.549
		c12.281,0,24.374,0,37.022,0c-1.011,3.104-1.806,5.857-2.798,8.537c-5.172,13.979-10.388,27.943-15.6,41.907
		c-4.133,11.071-8.22,21.222-12.441,32.26c-5.685,14.868-16.922,23.555-31.738,28.185
		C354.451,118.823,346.496,119.655,338.413,119.535z"/>
	<path fill="#F15924" d="M153.846,52.261c14.284,0,30.312,0,44.31,0l-7.806,22.951h-45.44l-7.753,19.851
		c1.388,0.113,46.474,0.029,46.474,0.029l-8.29,24.443c0,0-82.731,0-82.731,0L134.795,5.82h79.111l-7.983,23.54l-43.073,0.011
		C159.834,36.617,156.834,44.035,153.846,52.261z"/>
	<path fill="#F15923" d="M445.415,120.1c-0.999-0.011-1.998-0.023-2.998-0.034c-2.702,0.004-5.404,0.007-8.105,0.011
		c-3.14,0.103-6.262-0.114-9.25-1.108c-10.577-3.52-15.831-11.8-13.104-22.649c2.839-11.293,10.777-17.899,21.194-22.005
		c7.146-2.817,14.578-4.208,22.203-5.115c7.258-0.863,14.437-2.464,21.608-3.95c1.866-0.387,3.77-1.284,5.306-2.42
		c3.617-2.675,6.246-5.987,4.822-11.663c-0.594-0.606-1.634-1.669-2.674-2.732c-5.467-2.193-10.512-0.814-15.535,0.879
		c-5.151,1.735-8.059,6.008-11.494,10.037c-9.554,0-32.327,0-32.327,0c8.5-14.322,19.67-22.465,33.423-26.997
		c6.094-2.008,12.281-3.332,18.778-3.086c5.489,0.208,11.003-0.155,16.486,0.127c7.386,0.38,14.611,2.031,20.828,6.093
		c3.915,2.557,9.672,6.291,9.068,11.354c0.015,0.584-0.172,1.707-0.172,1.707c-3.695,15.854-9.998,30.79-15.577,45.969
		c-2.85,7.753-6.292,17.217-9.004,25.018c0,0-31.033,0.011-32.351,0c0.242-1.542,0.36-2.285,0.685-4.356
		C460.126,118.286,452.949,119.888,445.415,120.1z M480.085,82.509c-5.984-0.748-10.621,1.172-15.396,1.876
		c-3.204,0.472-6.405,1.139-9.506,2.061c-1.838,0.547-3.563,1.616-5.083,2.608c-2.788,1.819-3.316,8.574-1.443,10.551
		c1.836,1.937,3.905,2.831,7.556,2.311c0.958-0.137,1.911-0.41,2.879-0.539c6.583-0.877,12.279-3.419,15.97-9.176
		C476.876,89.373,478.185,86.223,480.085,82.509z"/>
	<path fill="#F15924" d="M0,119.535l9.229-24.443c5.129,0,10.396,0,15.928,0c4.953,0,9.053-0.828,13.25-3.224
		c5.738-3.276,10.157-7.924,12.661-13.983C60.55,54.932,80.239,5.82,80.239,5.82h37.669c-0.054,0.617-15.961,39.961-23.683,58.894
		c-3.797,9.308-7.461,18.707-11.919,27.7c-6.871,13.86-17.839,21.443-32.893,24.975c-5.428,1.274-10.954,2.146-16.551,2.146H0z"/>
	<path fill="#F15924" d="M189.11,119.535l9.229-24.443c5.129,0,10.396,0,15.928,0c4.953,0,9.053-0.828,13.25-3.224
		c5.738-3.276,10.157-7.924,12.661-13.983C249.66,54.932,269.349,5.82,269.349,5.82h37.669
		c-0.054,0.617-15.961,39.961-23.683,58.894c-3.797,9.308-7.461,18.707-11.919,27.7c-6.871,13.86-17.839,21.443-32.893,24.975
		c-5.428,1.274-10.954,2.146-16.551,2.146H189.11z"/>
	<path fill="#F15924" d="M569.377,120.404c-1.344,0.02-2.689,0.04-4.033,0.06c-0.82-0.073-1.641-0.145-2.421-0.214
		c-0.158-0.149-0.303-0.247-0.393-0.382c-0.081-0.122-0.146-0.285-0.142-0.428c0.013-0.495-0.058-1.032,0.108-1.476
		c11.028-29.503,22.076-58.998,33.182-88.652l33.301,0.047c-1.167,3.186-4.784,13.932-4.784,13.986
		c-0.009-0.009,0.207-0.009,0.207-0.009c3.481-2.642,6.802-5.54,10.484-7.864c4.806-3.032,14.593-6.044,24.614-6.044
		c1.925,0,4.02-0.07,4.02-0.07c-2.819,7.764-7.779,21.583-10.833,29.992c-0.332,0-12.064-0.001-14.562,0
		c-11.222,0.006-16.666,2.963-23.122,11.892c-4.165,5.76-16.024,39.077-19.702,48.949c-1.22,0.112-2.038,0.187-2.857,0.261
		c-2.337-0.009-4.673-0.019-7.01-0.028c-2.004-0.01-4.008-0.019-6.012-0.029C576.074,120.4,572.725,120.402,569.377,120.404z"/>
	<path fill="#F15924" d="M513.344,119.535c11.259-30.05,22.476-60.059,33.759-90.175h33.5c-3.672,9.771-19.116,51.16-23.169,62.093
		c-3.542,9.556-6.827,18.525-10.365,28.082H513.344z"/>
	<path fill="#FEFDFC" d="M624.402,43.338c-0.157,0.289-0.315,0.578-0.011,0.02c-0.539,0.309-0.26,0.149,0.019-0.011
		C624.41,43.346,624.401,43.338,624.402,43.338z"/>
	<polygon fill="#0AA8E1" points="556.954,0 599.396,0 547.83,26.904 	"/>
</g>
</svg>
