<?xml version="1.0" encoding="UTF-8" standalone="no"?>
<!-- Created with Inkscape (http://www.inkscape.org/) -->

<svg
   xmlns:dc="http://purl.org/dc/elements/1.1/"
   xmlns:cc="http://creativecommons.org/ns#"
   xmlns:rdf="http://www.w3.org/1999/02/22-rdf-syntax-ns#"
   xmlns:svg="http://www.w3.org/2000/svg"
   xmlns="http://www.w3.org/2000/svg"
   xmlns:sodipodi="http://sodipodi.sourceforge.net/DTD/sodipodi-0.dtd"
   xmlns:inkscape="http://www.inkscape.org/namespaces/inkscape"
   version="1.0"
   width="200"
   height="83"
   viewBox="0 0 200.00001 83.00001"
   id="Aero-Caribbean-Logo"
   xml:space="preserve"
   inkscape:version="0.48.4 r9939"
   sodipodi:docname="Aero_Caribbean_Logo_2010.svg"><title
     id="title3008">Aero Caribbean logo (no sun)</title><sodipodi:namedview
     pagecolor="#ffffff"
     bordercolor="#666666"
     borderopacity="1"
     objecttolerance="10"
     gridtolerance="10"
     guidetolerance="10"
     inkscape:pageopacity="0"
     inkscape:pageshadow="2"
     inkscape:window-width="1600"
     inkscape:window-height="844"
     id="namedview31"
     showgrid="false"
     inkscape:zoom="3.2393294"
     inkscape:cx="117.87427"
     inkscape:cy="49.345201"
     inkscape:window-x="-4"
     inkscape:window-y="-4"
     inkscape:window-maximized="1"
     inkscape:current-layer="Aero-Caribbean-Logo" /><metadata
     id="metadata299"><rdf:RDF><cc:Work
         rdf:about=""><dc:format>image/svg+xml</dc:format><dc:type
           rdf:resource="http://purl.org/dc/dcmitype/StillImage" /><dc:title>Aero Caribbean logo (no sun)</dc:title></cc:Work></rdf:RDF></metadata><defs
     id="defs297" /><linearGradient
     x1="334.88821"
     y1="-30.9526"
     x2="642.854"
     y2="-30.9526"
     id="SVGID_1_"
     gradientUnits="userSpaceOnUse"
     gradientTransform="matrix(-4.371139e-8,1,-1,-4.371139e-8,944.65825,-492.26985)">
	<stop
   id="stop237"
   style="stop-color:#fde507;stop-opacity:1"
   offset="0" />
	<stop
   id="stop239"
   style="stop-color:#fde507;stop-opacity:1"
   offset="0.50550002" />
	<stop
   id="stop241"
   style="stop-color:#fed50e;stop-opacity:1"
   offset="0.58899999" />
	<stop
   id="stop243"
   style="stop-color:#febf17;stop-opacity:1"
   offset="0.7324" />
	<stop
   id="stop245"
   style="stop-color:#ffb21d;stop-opacity:1"
   offset="0.8714" />
	<stop
   id="stop247"
   style="stop-color:#ffae1f;stop-opacity:1"
   offset="1" />
</linearGradient><g
     transform="matrix(0.29913567,0,0,0.3093854,1.4725769,-11.762636)"
     id="g253"
     style="stroke:#4378c4;stroke-width:1.50000012;stroke-miterlimit:4;stroke-opacity:1;stroke-dasharray:none">
	<path
   d="m 44.523,51.003 c -5.192,-4.729 -11.889,-7.062 -18.538,-7.071 -6.399,0 -12.93,2.204 -17.918,6.958 -5.005,4.73 -8.1,11.956 -8.06,20.614 C 0,91.025 0,131.807 0,131.807 h 11.914 c 0,0 0,-9.836 0,-22.154 h 29.298 c 0,12.23 0,22.154 0,22.154 h 11.914 c 0,0 0,-42.945 0,-60.302 0.041,-8.57 -3.393,-15.803 -8.603,-20.502 z M 11.914,97.742 V 71.505 c 0.041,-6.003 1.904,-9.59 4.382,-11.996 2.495,-2.39 5.977,-3.661 9.689,-3.67 7.814,0.267 15.113,4.934 15.227,15.666 V 97.742 H 11.914 z"
   id="path255"
   style="fill:#4378c4;stroke:#4378c4;stroke-width:1.50000012;stroke-miterlimit:4;stroke-opacity:1;stroke-dasharray:none"
   inkscape:connector-curvature="0" />
	<path
   d="m 231.686,91.628 0,0 c 2.394,3.302 3.527,7.065 3.527,10.846 l 0,0 c -0.008,5.738 -2.631,11.342 -7.617,14.971 l 0,0 c -3.293,2.386 -7.058,3.518 -10.839,3.526 l 0,0 c -5.745,-0.008 -11.358,-2.638 -14.976,-7.617 l 0,0 c -2.388,-3.3 -3.52,-7.065 -3.528,-10.838 l 0,0 c 0.008,-5.746 2.633,-11.351 7.619,-14.976 l 0,0 c 3.3,-2.396 7.073,-3.528 10.844,-3.536 l 0,0 c 5.737,0.015 11.345,2.63 14.97,7.624 l 0,0 z m 9.64,-7 0,0 c -5.941,-8.18 -15.239,-12.54 -24.609,-12.54 l 0,0 c -6.183,0 -12.467,1.907 -17.845,5.811 l 0,0 c -8.18,5.94 -12.539,15.237 -12.53,24.616 l 0,0 c -0.008,6.185 1.898,12.467 5.808,17.837 l 0,0 c 5.933,8.172 15.222,12.54 24.608,12.532 l 0,0 c 6.178,0 12.469,-1.89 17.845,-5.802 l 0,0 c 8.165,-5.939 12.532,-15.228 12.525,-24.608 l 0,0 c 0.006,-6.185 -1.891,-12.467 -5.802,-17.846 0,-0.001 0.002,0.003 0,0 z"
   id="path257"
   style="fill:#4378c4;stroke:#4378c4;stroke-width:1.50000012;stroke-miterlimit:4;stroke-opacity:1;stroke-dasharray:none"
   inkscape:connector-curvature="0" />
	<path
   d="m 118.903,109.983 c -1.27,2.877 -3.267,5.474 -6,7.464 -3.296,2.387 -7.065,3.515 -10.84,3.523 -3.791,-0.006 -7.515,-1.177 -10.658,-3.391 L 129.604,89.83 c -0.826,-1.796 -1.77,-3.551 -2.97,-5.203 -1.202,-1.654 -2.573,-3.109 -4.021,-4.447 -5.717,-5.276 -13.116,-8.097 -20.59,-8.089 -6.188,0 -12.47,1.9 -17.847,5.813 -8.176,5.935 -12.537,15.231 -12.53,24.61 -0.007,6.179 1.894,12.464 5.807,17.839 5.935,8.168 15.224,12.537 24.61,12.529 h 0.038 c 6.168,0 12.436,-1.9 17.8,-5.797 5.962,-4.339 9.873,-10.466 11.562,-17.103 h -12.56 z M 91.174,87.543 c 3.306,-2.395 7.074,-3.532 10.848,-3.54 3.788,0.011 7.511,1.18 10.656,3.397 l -28.29,20.551 c -0.55,-1.778 -0.829,-3.606 -0.829,-5.436 0.007,-5.749 2.631,-11.35 7.615,-14.972 z"
   id="path259"
   style="fill:#4378c4;stroke:#4378c4;stroke-width:1.50000012;stroke-miterlimit:4;stroke-opacity:1;stroke-dasharray:none"
   inkscape:connector-curvature="0" />
	<path
   d="m 145.243,100.924 c -0.001,0.016 -0.001,0.035 -0.001,0.055 h 0.003 c 0,0.061 0.003,0.137 0.006,0.224 v 30.354 h 11.911 v -31.123 c 0.252,-8.714 6.547,-15.921 14.839,-17.575 V 70.827 c -15.053,1.799 -26.723,14.57 -26.758,30.097 z"
   id="path261"
   style="fill:#4378c4;stroke:#4378c4;stroke-width:1.50000012;stroke-miterlimit:4;stroke-opacity:1;stroke-dasharray:none"
   inkscape:connector-curvature="0" />
</g><g
     transform="matrix(0.29913567,0,0,0.3093854,1.4725769,-11.762636)"
     id="g269"
     style="stroke:#4378c4;stroke-width:1.50000012;stroke-miterlimit:4;stroke-opacity:1;stroke-dasharray:none">
	<path
   d="m 494.188,224.778 c -1.271,2.878 -3.265,5.471 -6.002,7.461 -3.297,2.389 -7.065,3.518 -10.838,3.524 -3.788,-0.004 -7.516,-1.175 -10.66,-3.393 l 38.202,-27.748 c -0.828,-1.793 -1.771,-3.549 -2.97,-5.201 -1.201,-1.654 -2.575,-3.109 -4.025,-4.446 -5.715,-5.274 -13.114,-8.097 -20.59,-8.09 -6.185,0 -12.471,1.9 -17.845,5.813 -8.175,5.937 -12.537,15.23 -12.529,24.611 -0.008,6.176 1.893,12.462 5.805,17.837 5.937,8.166 15.225,12.537 24.612,12.528 h 0.039 c 6.169,0 12.435,-1.899 17.802,-5.797 5.96,-4.339 9.873,-10.466 11.559,-17.101 h -12.56 z m -27.73,-22.445 c 3.309,-2.393 7.074,-3.527 10.847,-3.536 3.792,0.009 7.515,1.18 10.655,3.397 l -28.287,20.552 c -0.551,-1.78 -0.829,-3.606 -0.829,-5.437 0.006,-5.751 2.632,-11.353 7.614,-14.976 z"
   id="path271"
   style="fill:#4378c4;stroke:#4378c4;stroke-width:1.50000012;stroke-miterlimit:4;stroke-opacity:1;stroke-dasharray:none"
   inkscape:connector-curvature="0" />
	<path
   d="m 91.87,235.759 c -10.204,-0.015 -18.458,-8.271 -18.475,-18.474 0.017,-10.214 8.271,-18.465 18.475,-18.479 6.691,0.007 12.494,3.598 15.738,8.925 h 13.099 c -4.008,-12.101 -15.393,-20.838 -28.837,-20.846 -16.787,0.008 -30.381,13.606 -30.391,30.4 0.01,16.783 13.604,30.383 30.391,30.39 13.185,-0.003 24.371,-8.41 28.585,-20.144 H 107.23 c -3.315,4.956 -8.952,8.22 -15.36,8.228 z"
   id="path273"
   style="fill:#4378c4;stroke:#4378c4;stroke-width:1.50000012;stroke-miterlimit:4;stroke-opacity:1;stroke-dasharray:none"
   inkscape:connector-curvature="0" />
	<path
   d="m 219.605,216.976 c -0.002,0.016 -0.002,0.04 -0.002,0.055 h 0.004 c 0,0.062 0.001,0.139 0.005,0.225 v 30.355 h 11.91 v -31.124 c 0.252,-8.708 6.547,-15.921 14.841,-17.573 v -12.035 c -15.053,1.797 -26.723,14.571 -26.758,30.097 z"
   id="path275"
   style="fill:#4378c4;stroke:#4378c4;stroke-width:1.50000012;stroke-miterlimit:4;stroke-opacity:1;stroke-dasharray:none"
   inkscape:connector-curvature="0" />
	<path
   d="m 257.269,186.878 c -0.001,28.749 -0.001,29.593 -0.001,29.608 h 0.004 c 0,0.063 0.001,-0.084 0.005,0 v 31.124 h 11.911 v -60.732 h -11.919 z"
   id="path277"
   style="fill:#4378c4;stroke:#4378c4;stroke-width:1.50000012;stroke-miterlimit:4;stroke-opacity:1;stroke-dasharray:none"
   inkscape:connector-curvature="0" />
	<rect
   width="11.92"
   height="11.92"
   x="257.26801"
   y="158.95799"
   id="rect279"
   style="fill:#4378c4;stroke:#4378c4;stroke-width:1.50000012;stroke-miterlimit:4;stroke-opacity:1;stroke-dasharray:none" />
	<path
   d="m 191.301,199.418 c -5.938,-8.187 -15.229,-12.549 -24.609,-12.54 -6.183,0 -12.465,1.907 -17.843,5.808 -8.177,5.941 -12.537,15.239 -12.529,24.615 -0.008,6.182 1.896,12.464 5.809,17.839 5.932,8.17 15.222,12.538 24.604,12.532 h 0.04 c 5.728,0 11.509,-1.723 16.604,-5.081 v -17.433 c -1.274,2.722 -3.189,5.18 -5.799,7.08 -3.294,2.381 -7.062,3.513 -10.844,3.521 -5.736,-0.008 -11.35,-2.636 -14.969,-7.615 -2.393,-3.304 -3.523,-7.069 -3.53,-10.843 0.007,-5.746 2.627,-11.354 7.622,-14.971 3.296,-2.4 7.07,-3.533 10.838,-3.541 5.735,0.008 11.348,2.637 14.977,7.624 2.39,3.304 3.521,7.065 3.523,10.839 0,0 0.004,0.011 0.006,0.007 v 30.352 h 11.91 v -30.316 c 0,-0.012 0.002,-0.023 0.002,-0.035 -0.002,-6.185 -1.896,-12.468 -5.812,-17.842 z"
   id="path281"
   style="fill:#4378c4;stroke:#4378c4;stroke-width:1.50000012;stroke-miterlimit:4;stroke-opacity:1;stroke-dasharray:none"
   inkscape:connector-curvature="0" />
	<path
   d="m 579.552,199.418 c -5.938,-8.187 -15.229,-12.549 -24.608,-12.54 -6.181,0 -12.463,1.907 -17.845,5.808 -8.174,5.941 -12.533,15.239 -12.524,24.615 -0.009,6.182 1.892,12.464 5.807,17.839 5.93,8.17 15.223,12.538 24.601,12.532 h 0.04 c 5.73,0 11.507,-1.723 16.604,-5.081 v -17.433 c -1.272,2.722 -3.188,5.18 -5.797,7.08 -3.294,2.381 -7.062,3.513 -10.848,3.521 -5.735,-0.008 -11.345,-2.636 -14.968,-7.615 -2.391,-3.304 -3.521,-7.069 -3.527,-10.843 0.007,-5.746 2.624,-11.354 7.618,-14.971 3.297,-2.4 7.07,-3.533 10.839,-3.541 5.735,0.008 11.347,2.637 14.976,7.624 2.393,3.304 3.521,7.065 3.525,10.839 0.003,0 0.003,0.011 0.003,0.007 v 30.352 l 11.913,0.021 v -30.338 c 0,-0.012 0,-0.023 0,-0.035 -10e-4,-6.184 -1.894,-12.467 -5.809,-17.841 z"
   id="path283"
   style="fill:#4378c4;stroke:#4378c4;stroke-width:1.50000012;stroke-miterlimit:4;stroke-opacity:1;stroke-dasharray:none"
   inkscape:connector-curvature="0" />
	<path
   d="m 292.401,235.131 c 5.937,8.187 15.228,12.547 24.612,12.541 6.18,0 12.462,-1.909 17.841,-5.81 8.174,-5.94 12.536,-15.239 12.527,-24.614 0.009,-6.182 -1.896,-12.463 -5.808,-17.838 -5.934,-8.171 -15.225,-12.541 -24.604,-12.532 h -0.039 c -5.728,0 -11.509,1.721 -16.604,5.078 v 17.435 c 1.275,-2.722 3.191,-5.18 5.797,-7.08 3.296,-2.381 7.065,-3.514 10.846,-3.521 5.735,0.008 11.349,2.637 14.967,7.616 2.393,3.304 3.525,7.068 3.534,10.843 -0.008,5.746 -2.629,11.353 -7.625,14.971 -3.295,2.4 -7.068,3.532 -10.833,3.54 -5.74,-0.008 -11.35,-2.636 -14.98,-7.624 -2.392,-3.303 -3.521,-7.064 -3.525,-10.837 0,0 0,-0.013 -0.004,-0.009 v -64.868 h -11.908 v 64.833 c 0,0.012 -0.004,0.023 -0.004,0.034 10e-4,6.187 1.898,12.467 5.81,17.842 z"
   id="path285"
   style="fill:#4378c4;stroke:#4378c4;stroke-width:1.50000012;stroke-miterlimit:4;stroke-opacity:1;stroke-dasharray:none"
   inkscape:connector-curvature="0" />
	<path
   d="m 370.657,235.131 c 5.937,8.187 15.227,12.547 24.61,12.541 6.182,0 12.463,-1.909 17.842,-5.81 8.175,-5.94 12.536,-15.239 12.528,-24.614 0.008,-6.182 -1.896,-12.463 -5.808,-17.838 -5.934,-8.171 -15.225,-12.541 -24.604,-12.532 h -0.038 c -5.728,0 -11.51,1.721 -16.604,5.078 v 17.435 c 1.275,-2.722 3.19,-5.18 5.796,-7.08 3.297,-2.381 7.066,-3.514 10.847,-3.521 5.735,0.008 11.35,2.637 14.967,7.616 2.394,3.304 3.525,7.068 3.534,10.843 -0.009,5.746 -2.63,11.353 -7.623,14.971 -3.297,2.4 -7.07,3.532 -10.836,3.54 -5.738,-0.008 -11.349,-2.636 -14.979,-7.624 -2.392,-3.303 -3.521,-7.064 -3.524,-10.837 0,0 0,-0.013 -0.004,-0.009 v -64.868 h -11.908 v 64.833 c 0,0.012 -0.004,0.023 -0.004,0.034 -10e-4,6.187 1.895,12.467 5.808,17.842 z"
   id="path287"
   style="fill:#4378c4;stroke:#4378c4;stroke-width:1.50000012;stroke-miterlimit:4;stroke-opacity:1;stroke-dasharray:none"
   inkscape:connector-curvature="0" />
	<path
   d="M 640.625,247.632 V 212.71 c -0.016,-7.686 -6.232,-13.897 -13.91,-13.913 l 0,0 c -7.673,0.016 -13.894,6.228 -13.9,13.913 l 0,0 v 34.922 H 600.899 V 212.71 c 0,-14.266 11.551,-25.817 25.816,-25.825 l 0,0 c 14.264,0.008 25.822,11.56 25.822,25.825 l 0,0 v 34.922 h 0.007 -11.919 l 0,0 z"
   id="path289"
   style="fill:#4378c4;stroke:#4378c4;stroke-width:1.50000012;stroke-miterlimit:4;stroke-opacity:1;stroke-dasharray:none"
   inkscape:connector-curvature="0" />
</g><path
     d="m 149.00749,7.6927567 c -3.01978,-0.671984 -3.94082,-0.221203 -5.86275,0.5661871 -1.91987,0.7889251 -14.63522,6.3878722 -16.7477,7.1761932 -2.11221,0.786458 -6.48528,-1.481033 -6.48528,-1.481033 l -3.29199,1.360672 c 0,0 3.66441,2.607817 6.51666,3.962613 C 90.95064,31.99282 61.810638,36.017928 11.521741,36.017928 v 0.835031 c 51.022378,0 81.361913,-3.904448 114.463359,-16.822832 h 10e-4 c 0.51153,-0.157478 1.99764,-0.758307 3.93123,-1.571062 3.18402,-1.303439 6.40631,-2.700932 9.67826,-4.181649 2.82234,-1.244658 5.14334,-2.292867 5.81131,-2.635353 1.91985,-0.98724 5.02667,-3.6318702 3.60009,-3.9493063 z"
     id="path293"
     style="fill:#4378c4"
     inkscape:connector-curvature="0" /><path
     d="m 187.18468,77.338196 c -6.76704,0 -12.77579,-8.748189 -19.53715,-8.748189 -6.76345,0 -12.77668,8.748189 -19.53566,8.748189 -6.76164,0 -12.76772,-8.748189 -19.53027,-8.748189 -6.76134,0 -12.771,8.748189 -19.53026,8.748189 -6.76137,0 -12.771,-8.748189 -19.529969,-8.748189 -6.761962,0 -12.768907,8.748189 -19.529971,8.748189 -6.761663,0 -12.769205,-8.748189 -19.529968,-8.748189 -6.761665,0 -12.769208,8.748189 -19.53057,8.748189 -4.02188,0 -7.776932,-3.090444 -11.582236,-5.598016 v 3.786249 c 3.805304,2.756935 7.560356,6.154609 11.582236,6.154609 6.761362,0 12.768905,-9.617247 19.53057,-9.617247 6.760763,0 12.768305,9.617247 19.529968,9.617247 6.761366,0 12.768009,-9.617247 19.529971,-9.617247 6.758969,0 12.768599,9.617247 19.529969,9.617247 6.75926,0 12.7692,-9.617247 19.53026,-9.617247 6.76255,0 12.76863,9.617247 19.53027,9.617247 6.75898,0 12.7719,-9.617247 19.53566,-9.617247 6.76166,0 12.77011,9.617247 19.53715,9.617247 4.02248,0 7.78111,-3.400143 11.58911,-6.157077 v -3.78595 c -3.808,2.507264 -7.56663,5.600185 -11.58911,5.600185 z"
     id="path291"
     style="fill:#4378c4;stroke:#0000f5;stroke-width:0.03042174;stroke-miterlimit:4;stroke-opacity:1;stroke-dasharray:none;marker-start:none"
     inkscape:connector-curvature="0" /></svg>