<?xml version="1.0" encoding="utf-8"?>
<!-- Generator: Adobe Illustrator 22.1.0, SVG Export Plug-In . SVG Version: 6.00 Build 0)  -->
<svg version="1.1" id="Слой_1" xmlns="http://www.w3.org/2000/svg" xmlns:xlink="http://www.w3.org/1999/xlink" x="0px" y="0px"
	 width="694.207px" height="388.161px" viewBox="0 0 694.207 388.161" enable-background="new 0 0 694.207 388.161"
	 xml:space="preserve">
<g>
	<path fill="#DA2227" d="M24.511,50.377c-0.596-0.209-1.101-0.397-1.613-0.563c-1.802-0.585-2.701-1.899-2.967-3.704
		c-0.395-2.677,0.684-4.038,3.375-3.923c1.974,0.085,3.603-0.39,5.003-1.899c-0.927-2.505-0.908-5.098-0.553-7.738
		c0.454-3.37,2.135-5.96,4.748-8.039c3.538-2.814,7.637-4.313,12.032-5.005C50.77,18.524,56.94,18.657,63,20.753
		c1.065,0.368,2.372,0.184,3.547,0.061c4.053-0.425,8.089-1.023,12.146-1.394c5.731-0.524,11.474-0.918,17.214-1.342
		c2.95-0.218,5.907-0.349,8.855-0.591c0.675-0.056,1.493-0.227,1.959-0.656c2.389-2.196,5.264-2.612,8.28-2.32
		c2.938,0.285,5.864,0.742,8.777,1.228c3.248,0.542,6.486,0.986,9.762,0.312c1.033-0.213,1.925-0.005,2.603,0.8
		c1.062,1.261,2.438,1.416,3.926,1.19c3.238-0.492,6.491-0.906,9.704-1.527c6.352-1.227,12.721-1.406,19.082-0.321
		c6.254,1.066,12.535,1.317,18.862,1.379c7.581,0.074,14.931,1.549,21.846,4.764c9.87,4.589,16.469,11.937,18.806,22.756
		c1.146,5.306,1.208,10.698,0.108,15.97c-1.7,8.146-0.714,16.06,1.286,23.955c0.765,3.018,1.563,6.032,2.467,9.011
		c1.538,5.066,1.153,10.13,0.059,15.175c-1.841,8.493-1.612,17-0.283,25.51c0.306,1.96,1.092,3.839,1.521,5.786
		c0.393,1.783,0.652,3.6,0.877,5.413c0.167,1.349-0.345,2.415-1.415,3.36c-2.026,1.789-1.975,2.081-0.089,3.952
		c1.289,1.279,1.239,2.58,0.007,3.943c-1.439,1.593-2.867,3.209-4.153,4.925c-2.587,3.452-5.04,7.004-7.613,10.468
		c-3.39,4.564-3.343,6.219,0.597,10.37c4.304,4.535,8.362,9.277,11.658,14.596c1.462,2.359,2.706,4.902,3.683,7.499
		c1.042,2.77,0.465,5.714-0.021,8.547c-0.578,3.372-0.514,6.679,0.394,9.973c0.91,3.303,0.972,6.523-0.053,9.898
		c-0.754,2.482-0.905,5.193-1.015,7.816c-0.175,4.153-0.083,8.317-0.121,12.476c-0.038,4.172-0.386,8.297-1.778,12.28
		c-0.517,1.48-0.502,2.975,0.271,4.416c1.81,3.375,1.844,6.889,0.721,10.464c-0.694,2.209-1.422,4.408-2.179,6.596
		c-1.062,3.068-1.335,6.178-1.138,9.435c0.686,11.332,1.398,22.672,0.703,34.033c-0.146,2.39-0.535,4.765-0.719,7.154
		c-0.196,2.548-0.37,5.103-0.392,7.657c-0.021,2.411-0.379,4.595-2.382,6.238c-1.282,1.052-1.415,2.637-1.643,4.134
		c-0.914,6.021-5.837,11.73-11.675,13.259c-2.63,0.689-4.894,1.824-6.806,3.778c-0.94,0.96-2.074,1.758-3.209,2.493
		c-2.391,1.548-4.814,1.497-7.177-0.122c-0.461-0.316-0.946-0.618-1.34-1.008c-3.271-3.239-7.418-4.173-11.792-4.638
		c-5.42-0.575-10.651,0.063-15.819,1.808c-3.09,1.043-6.282,1.832-9.478,2.496c-4.132,0.858-8.304,0.187-12.428-0.224
		c-5.328-0.531-10.364,0.017-14.986,2.92c-2.25,1.413-4.717,1.865-7.344,1.702c-6.624-0.411-13.249-0.807-19.875-1.18
		c-7.584-0.428-15.169-0.826-22.754-1.234c-9.659-0.52-19.33-0.887-28.974-1.611c-5.642-0.423-11.358-0.698-16.825-2.347
		c-2.262-0.682-4.5-1.681-6.501-2.931c-2.59-1.617-3.795-4.17-3.862-7.304c-0.076-3.582,0.785-6.964,1.77-10.349
		c0.826-2.835,1.651-5.674,2.349-8.543c0.78-3.203,0.479-6.351-0.886-9.375c-0.23-0.51-0.424-1.042-0.709-1.519
		c-3.668-6.159-4.685-13.014-5.26-19.984c-0.512-6.213-1.054-12.411-2.163-18.566c-0.471-2.612-0.986-5.145-1.975-7.605
		c-0.769-1.913-0.985-4.041-0.129-5.868c1.82-3.888,1.102-7.829,0.694-11.769c-0.726-7.012-1.225-14.049-0.748-21.073
		c0.329-4.843,1.168-9.679,2.136-14.446c1.734-8.542,2.043-17.116,1.377-25.773c-0.454-5.897-0.736-11.807-1.143-17.709
		c-0.176-2.551-0.466-5.094-0.712-7.641c-0.319-3.299-0.129-6.567,0.874-9.729c2.099-6.617,2.276-13.354,1.431-20.169
		c-0.669-5.392-1.277-10.793-2.073-16.167c-0.373-2.517-1.179-4.967-1.686-7.468c-0.363-1.792-0.68-3.611-0.789-5.431
		c-0.118-1.965,0.679-3.581,2.5-4.569c1.65-0.894,2.564-2.363,3.104-4.096c0.499-1.602,0.311-2.243-1.245-2.829
		c-1.754-0.661-2.97-1.786-3.896-3.36c-0.906-1.539-1.169-3.121-0.608-4.827c0.1-0.304,0.147-0.629,0.275-0.919
		c1.483-3.354,1.57-6.736,0.635-10.29c-0.786-2.984-0.801-5.983,1.048-8.786c0.497-0.753,0.585-2.028,0.368-2.947
		c-0.436-1.851-1.005-3.73-1.886-5.404c-2.444-4.64-2.591-9.279-0.631-14.093C20.38,57.068,21.691,53.369,24.511,50.377z
		 M165.814,71.729c0-2.804-0.205-5.447,0.041-8.047c0.562-5.93-0.589-11.612-2.148-17.247c-0.874-3.16-2.595-5.788-5.237-7.831
		c-3.627-2.805-7.776-4.235-12.258-4.14c-5.098,0.108-10.201,0.604-15.273,1.182c-3.723,0.424-4.927,1.987-5.05,5.723
		c-0.029,0.876-0.038,1.771,0.106,2.63c0.46,2.744,1.921,4.31,4.683,4.729c2.203,0.334,4.449,0.377,6.677,0.542
		c2.148,0.159,4.314,0.184,6.44,0.493c2.611,0.379,4.656,1.741,5.613,4.302c0.469,1.256,0.846,2.6,0.946,3.929
		c0.27,3.584,0.417,7.179,0.523,10.773c0.127,4.264,0.056,4.334-4.207,4.014c-2.784-0.209-5.551-0.635-8.335-0.831
		c-2.149-0.151-4.325-0.258-6.467-0.096c-3.786,0.286-6.168,2.659-6.564,6.377c-0.134,1.254,0.116,2.549-0.019,3.802
		c-0.228,2.114,0.961,3.3,2.577,4.16c0.897,0.477,1.931,0.87,2.931,0.95c4.773,0.383,9.552,0.765,14.336,0.919
		c5.194,0.167,10.395,0.078,15.594,0.106c2.858,0.015,3.447,0.59,3.624,3.517c0.024,0.399,0.04,0.799,0.047,1.199
		c0.072,4.14-0.693,8.258-0.161,12.423c0.228,1.782-0.681,2.602-2.491,2.876c-0.706,0.107-1.437,0.088-2.155,0.068
		c-4.873-0.132-9.749-0.221-14.618-0.443c-3.347-0.152-6.682-0.588-10.029-0.717c-1.812-0.07-3.695,0.005-5.446,0.426
		c-3.058,0.736-4.727,3.325-4.502,6.493c0.051,0.713,0.222,1.419,0.35,2.125c1.038,5.716,2.299,6.788,8.074,6.965
		c2.555,0.079,5.108,0.29,7.663,0.328c6.374,0.097,12.743,1.239,19.127,0.033c1.77-0.334,2.312,0.158,2.484,1.931
		c0.061,0.63-0.047,1.275-0.049,1.913c-0.006,1.508,0.017,3.017,0.005,4.525c-0.023,2.872,0.136,5.763-0.155,8.609
		c-0.243,2.385-1.345,3.289-3.659,3.324c-3.995,0.06-7.996-0.013-11.99-0.158c-3.59-0.13-7.172-0.503-10.763-0.624
		c-1.583-0.053-3.205,0.117-4.762,0.424c-3.222,0.634-5.656,2.383-6.352,5.739c-0.415,2.003-0.505,4.108-0.463,6.162
		c0.04,1.949,1.23,3.254,3.128,3.786c0.917,0.257,1.872,0.548,2.807,0.541c3.033-0.023,6.064-0.197,9.097-0.274
		c1.513-0.038,3.047-0.138,4.54,0.044c5.484,0.668,10.953,1.279,16.472,0.331c0.983-0.169,2.02-0.024,3.245-0.024
		c-0.102,1.242-0.176,2.256-0.271,3.269c-0.171,1.828-0.594,3.668-0.49,5.479c0.352,6.153,0.544,12.295,0.066,18.45
		c-0.245,3.16,1.565,5.772,4.691,6.263c2.817,0.442,5.73,0.569,8.58,0.425c2.947-0.149,4.678-2.311,4.787-5.299
		c0.02-0.559-0.007-1.119-0.008-1.679c-0.008-3.115,0.019-6.231-0.033-9.346c-0.035-2.154-0.185-4.307-0.27-6.461
		c-0.141-3.577-0.271-7.155-0.415-10.961c1.108-0.082,1.96-0.177,2.814-0.203c4.791-0.147,9.582-0.273,14.373-0.417
		c2.97-0.089,5.905,0.059,8.771,0.965c2.192,0.693,4.415,0.375,6.638,0.085c2.923-0.381,4.526-2.233,5.34-4.844
		c0.375-1.203,0.52-2.512,0.559-3.779c0.152-4.984-2.125-7.998-6.938-9.264c-4.487-1.181-9.035-1.266-13.53-0.226
		c-4.388,1.015-8.852,1.159-13.296,1.544c-2.482,0.215-3.257-0.686-3.29-3.224c-0.027-2.074-0.155-4.146-0.215-6.22
		c-0.083-2.878-0.182-5.756-0.2-8.635c-0.013-1.961,0.377-2.374,2.379-2.498c1.352-0.084,2.72-0.037,4.073,0.06
		c2.228,0.159,4.447,0.522,6.676,0.59c5.672,0.172,11.35,0.376,17.021,0.279c3.929-0.067,7.118-2.144,7.501-6.845
		c0.096-1.177,0.051-2.386-0.099-3.559c-0.566-4.424-2.961-6.435-7.386-6.461c-9.192-0.054-18.384-0.196-27.576-0.221
		c-1.47-0.004-2.189-0.614-2.643-1.885c-0.854-2.395-0.932-4.838-0.622-7.33c0.277-2.218,0.556-4.438,0.731-6.665
		c0.183-2.342,0.359-2.594,2.736-2.503c3.433,0.131,6.863,0.334,10.296,0.483c1.678,0.073,3.376-0.052,5.033,0.165
		c4.927,0.647,9.693-0.564,14.513-1.118c1.876-0.215,3.238-1.382,3.99-3.101c1.433-3.274,1.651-6.644,0.427-10.034
		c-0.724-2.005-2.087-3.492-4.235-3.844c-2.026-0.332-4.101-0.452-6.158-0.484c-2.474-0.038-4.96,0.28-7.426,0.153
		c-4.482-0.231-6.993-2.945-7.151-7.412c-0.109-3.094,0.54-6.027,1.827-8.833c0.968-2.11,2.582-3.382,4.836-3.922
		c2.772-0.664,5.546-0.411,8.344-0.234c1.974,0.125,4.011,0.192,5.941-0.155c3.019-0.544,4.687-2.584,4.426-5.605
		c-0.189-2.179-0.919-4.35-1.673-6.429c-0.816-2.251-2.645-3.696-4.943-4.145c-2.01-0.393-4.117-0.442-6.175-0.387
		c-1.906,0.051-3.813,0.375-5.701,0.693c-3.538,0.596-7.112,1.077-10.579,1.965c-4.809,1.233-8.013,4.386-9.83,9.041
		c-1.797,4.603-2.564,9.382-2.789,14.273c-0.182,3.967-0.297,7.938-0.447,12.064C173.07,71.729,169.581,71.729,165.814,71.729z
		 M146.89,232.406c1.271-0.116,2.126-0.237,2.983-0.265c5.992-0.199,11.985-0.373,17.978-0.572c1.117-0.037,2.231-0.205,3.347-0.216
		c4.476-0.044,8.953-0.072,13.429-0.056c1.514,0.005,3.033,0.277,4.541,0.219c3.46-0.134,6.637-0.949,8.777-4.049
		c1.823-2.64,1.507-5.108-1.285-6.702c-1.698-0.969-3.652-1.801-5.567-2.017c-4.026-0.453-8.107-0.675-12.157-0.595
		c-5.828,0.115-11.645,0.684-17.473,0.864c-3.337,0.103-6.727,0.102-10.02-0.369c-3.595-0.514-4.9-2.347-4.987-5.913
		c-0.059-2.398,0.026-4.799-0.024-7.197c-0.048-2.337-0.409-4.618-1.661-6.663c-1.542-2.517-4.224-3.748-7.168-3.295
		c-2.483,0.382-4.614,2.481-5.089,5.361c-0.283,1.713-0.236,3.491-0.232,5.239c0.014,5.35,0.102,10.7,0.116,16.05
		c0.007,2.715-0.134,5.43-0.119,8.145c0.033,6.073,0.245,12.148,0.154,18.218c-0.103,6.868-0.53,13.731-0.675,20.6
		c-0.07,3.35,0.226,6.707,0.276,10.062c0.08,5.278,0.062,10.557,0.141,15.835c0.097,6.483,1.317,12.661,4.652,18.366
		c2.329,3.984,5.676,6.377,10.042,7.559c5.484,1.485,11.072,1.274,16.67,1.202c4.066-0.052,8.136,0.134,12.203,0.221
		c0.237,0.005,0.476,0.061,0.707,0.12c1.392,0.359,2.185,1.164,2.154,2.211c-0.043,1.444-1.221,1.608-2.21,1.717
		c-2.854,0.317-5.719,0.596-8.587,0.72c-8.143,0.351-16.296,0.515-24.434,0.948c-7.153,0.38-10.541,3.476-11.917,10.498
		c-0.198,1.01-0.29,2.065-0.253,3.092c0.106,2.952,0.24,5.906,0.484,8.849c0.267,3.225,2.014,5.161,5.188,5.717
		c3.188,0.558,6.005-0.43,8.469-2.458c0.924-0.76,1.261-1.793,1.225-2.992c-0.045-1.518-0.06-3.04-0.006-4.557
		c0.147-4.13,1.426-5.406,5.514-5.592c1.989-0.09,2.798,0.716,2.694,2.703c-0.021,0.398-0.108,0.793-0.137,1.191
		c-0.16,2.141-0.463,4.285-0.429,6.424c0.05,3.126,1.637,4.817,4.73,4.874c2.54,0.047,5.13-0.116,7.622-0.59
		c2.731-0.52,4.584-2.308,4.887-5.211c0.188-1.805,0.103-3.641,0.095-5.463c-0.004-0.957-0.257-1.938-0.11-2.862
		c0.095-0.596,0.589-1.365,1.115-1.615c2.726-1.293,5.685,0.513,5.768,3.489c0.056,1.996-0.128,4-0.051,5.994
		c0.171,4.464,2.219,6.85,6.538,7.021c4.668,0.184,8.723-1.386,9.434-7.052c0.345-2.747,0.123-5.579,0.012-8.367
		c-0.12-3.026-0.869-6.098-0.532-9.057c0.732-6.425-0.754-12.207-3.982-17.637c-2.26-3.802-5.895-5.674-10.122-6.017
		c-3.634-0.294-7.319,0.022-10.982,0.094c-4.472,0.087-8.948,0.36-13.411,0.217c-1.654-0.053-3.32-0.963-4.896-1.67
		c-0.846-0.379-1.306-1.41-0.871-2.245c0.301-0.578,1.186-1.147,1.846-1.191c3.584-0.243,7.179-0.397,10.772-0.43
		c2.553-0.023,5.107,0.2,7.662,0.302c4.711,0.189,9.43,0.259,14.131,0.597c2.936,0.211,5.88,0.657,8.755,1.291
		c4.428,0.976,7.359,3.735,8.482,8.185c0.368,1.456,0.577,2.994,0.57,4.494c-0.01,2.468-0.34,4.934-0.381,7.403
		c-0.064,3.906-0.051,7.816,0.025,11.723c0.081,4.15,0.194,8.304,0.447,12.446c0.172,2.807,1.312,5.107,4.234,6.08
		c2.819,0.938,5.541,0.653,8.09-0.818c2.449-1.414,3.879-3.502,3.87-6.444c-0.007-2.318,0.095-4.637,0.06-6.954
		c-0.126-8.303-0.244-16.606-0.455-24.907c-0.144-5.666-2.214-10.771-5.09-15.541c-0.844-1.4-2.062-2.701-3.389-3.66
		c-4.546-3.284-9.655-5.29-15.251-5.887c-3.252-0.347-6.547-0.347-9.782-0.799c-7.074-0.987-14.144-1.195-21.277-0.819
		c-3.972,0.21-7.982-0.105-11.964-0.347c-2.027-0.123-3.241-1.059-3.202-1.983c0.043-1.021,1.469-2.057,3.356-2.236
		c1.588-0.151,3.194-0.15,4.791-0.142c8.228,0.041,16.456,0.092,24.684,0.167c8.072,0.074,16.144,0.257,24.216,0.242
		c4.234-0.008,8.435-0.504,12.542-1.684c3.347-0.961,4.983-3.283,5.536-6.529c0.383-2.249-0.501-3.78-2.629-4.483
		c-2.735-0.904-5.519-1.579-8.443-1.56c-7.038,0.045-14.076,0.069-21.114,0.041c-6.796-0.027-13.592-0.142-20.388-0.193
		c-3.031-0.022-6.063,0.048-9.094,0.024c-3.268-0.026-6.548,0.039-9.8-0.215c-3.609-0.283-4.651-1.808-4.652-5.655
		c-0.001-2.388,0.46-4.772,0.528-7.164c0.077-2.697-0.015-5.401-0.11-8.099c-0.057-1.592-0.38-3.18-0.378-4.769
		c0.003-2.953,0.166-5.906,0.239-8.86C146.916,235.289,146.89,234.019,146.89,232.406z M63.323,311.232
		c0.095,0.908,0.177,1.374,0.187,1.841c0.117,5.514,0.258,11.028,0.323,16.543c0.065,5.517,0.054,11.037,1.082,16.486
		c0.609,3.227,1.342,6.426,3.257,9.192c1.996,2.882,4.526,3.534,7.717,2.102c3.642-1.634,5.312-4.569,5.267-8.397
		c-0.081-6.874-0.404-13.744-0.54-20.618c-0.137-6.951-0.3-13.906-0.211-20.856c0.1-7.829,0.516-15.653,0.698-23.482
		c0.097-4.147-0.013-8.3-0.027-12.45c-0.011-3.199,0.001-6.398-0.031-9.597c-0.051-5.193-0.162-10.385-0.182-15.578
		c-0.009-2.393,0.209-4.788,0.193-7.181c-0.016-2.315-0.199-4.629-0.31-6.943c-0.161-3.35-0.136-6.721-0.525-10.044
		c-0.636-5.438-2.174-10.619-5.063-15.358c-2.677-4.392-6.269-7.282-11.615-7.211c-3.021,0.04-6.121,0.054-9.036,0.725
		c-5.155,1.187-8.336,4.85-10.177,9.667c-2.012,5.262-3.175,10.753-3.354,16.366c-0.325,10.225-0.433,20.457-0.566,30.687
		c-0.051,3.918,0.07,7.839,0.12,11.758c0.101,7.992,0.208,15.983,0.306,23.975c0.009,0.719,0.005,1.442-0.046,2.159
		c-0.227,3.187-0.675,6.372-0.678,9.559c-0.01,10.953,0.137,21.907,0.21,32.86c0.01,1.516-0.038,3.034-0.106,4.549
		c-0.083,1.834-0.282,3.665-0.312,5.5c-0.044,2.689,1.042,4.994,2.776,6.971c2.224,2.536,5.725,2.774,8.411,0.728
		c2.388-1.819,3.197-4.398,3.219-7.178c0.035-4.542-0.283-9.087-0.271-13.631c0.015-5.429,0.122-10.863,0.407-16.283
		c0.085-1.621,0.782-3.252,1.413-4.792c0.59-1.44,1.773-2.188,3.437-2.086C60.559,311.294,61.831,311.232,63.323,311.232z
		 M109.145,311.52c0,1.623-0.036,3.057,0.007,4.488c0.149,5.029,0.112,10.075,0.549,15.08c0.464,5.31,0.27,10.515-0.835,15.721
		c-0.294,1.386-0.353,2.868-0.239,4.284c0.19,2.369,1.511,4.097,3.811,4.722c2.068,0.562,4.222,0.849,6.354,1.131
		c3.846,0.51,7.882-1.784,7.58-7.284c-0.201-3.667-0.049-7.353-0.102-11.029c-0.018-1.273-0.11-2.553-0.285-3.813
		c-0.675-4.849-0.954-9.73-0.449-14.587c0.679-6.531,1.023-13.057,0.885-19.621c-0.255-12.147-0.445-24.295-0.666-36.443
		c-0.015-0.799-0.078-1.597-0.091-2.396c-0.074-4.552-0.164-9.104-0.193-13.657c-0.009-1.433,0.238-2.868,0.223-4.3
		c-0.049-4.793-0.084-9.589-0.281-14.377c-0.124-3.02-0.505-6.032-0.817-9.042c-0.131-1.269-0.493-2.521-0.554-3.79
		c-0.137-2.857-1.046-5.475-2.228-8.028c-2.86-6.177-3.912-7.036-10.513-8.451c-4.227-0.906-8.421-0.918-12.473,0.797
		c-3.233,1.368-6.107,3.206-7.464,6.675c-0.725,1.851-1.557,3.695-1.984,5.621c-0.931,4.202-1.979,8.425-2.345,12.694
		c-0.498,5.803-0.473,11.655-0.539,17.488c-0.048,4.236,0.118,8.473,0.194,12.71c0.052,2.953,0.396,5.934,0.114,8.855
		c-0.733,7.588-0.375,15.159-0.188,22.744c0.08,3.256-0.22,6.523-0.367,9.784c-0.169,3.745-0.465,7.488-0.512,11.234
		c-0.052,4.071,0.386,8.162,0.116,12.211c-0.258,3.867-0.025,7.641,0.488,11.451c0.586,4.359,0.977,8.716-0.193,13.088
		c-0.53,1.981-0.841,4.05-0.257,6.158c0.845,3.048,3.417,4.804,6.488,4.324c1.488-0.233,2.988-0.417,4.489-0.535
		c1.936-0.152,3.432-0.956,4.015-2.856c0.463-1.51,0.914-3.097,0.938-4.656c0.14-9.109,0.266-18.222-0.899-27.292
		c-0.244-1.897-0.485-3.808-0.52-5.716c-0.051-2.799,1.392-4.1,4.19-3.917C106.012,311.082,107.423,311.314,109.145,311.52z
		 M70.117,178.133c-0.147,0.007-0.295,0.014-0.442,0.021c0,2.798-0.007,5.596,0.003,8.394c0.006,1.579,0.405,3.077,1.614,4.124
		c3.315,2.87,7.1,3.949,11.349,2.449c1.867-0.659,3.179-1.954,4.012-3.864c1.298-2.976,1.522-5.984,1.025-9.142
		c-0.169-1.071-0.002-2.195,0.02-3.295c0.011-0.548,0.088-1.098,0.059-1.643c-0.1-1.913-0.3-3.823-0.34-5.737
		c-0.111-5.265,0.675-10.525,0.086-15.8c-0.104-0.929,0.149-1.902,0.264-2.851c0.412-3.397,1.179-6.731,0.955-10.224
		c-0.281-4.377-0.237-8.779-0.224-13.17c0.01-3.11,0.254-6.22,0.289-9.331c0.017-1.512-0.316-3.027-0.297-4.538
		c0.072-5.748,0.179-11.497,0.357-17.243c0.159-5.118,0.344-10.226-0.531-15.309c-0.417-2.423,0.449-3.416,2.907-3.461
		c0.718-0.013,1.437,0.061,2.155,0.094c2.784,0.13,5.576,0.456,8.349,0.339c3.189-0.134,6.335-0.711,9.227-2.268
		c4.522-2.434,5.385-6.542,3.696-11.055c-0.912-2.437-2.8-3.618-5.317-3.829c-1.112-0.093-2.239-0.069-3.356-0.025
		c-2.554,0.1-5.105,0.326-7.658,0.357c-6.636,0.079-13.273,0.141-19.909,0.096c-6.311-0.043-12.623-0.192-18.932-0.365
		c-3.53-0.097-7.035,0.01-10.469,0.88c-4.439,1.125-7.076,3.91-5.823,8.742c0.06,0.23,0.052,0.476,0.08,0.714
		c0.451,3.823,1.102,4.578,4.837,5.484c0.849,0.206,1.725,0.3,2.589,0.44c5.033,0.812,10.043,0.088,15.061-0.215
		c0.785-0.047,1.584-0.001,2.366,0.096c1.29,0.159,1.994,0.964,2.096,2.236c0.082,1.034,0.169,2.084,0.079,3.112
		c-0.442,5.052,0.042,10.043,0.696,15.049c0.371,2.84,0.617,5.752,0.429,8.599c-0.436,6.606-1.396,13.165-0.834,19.832
		c0.744,8.814-0.589,17.528-1.536,26.266c-0.402,3.707-0.226,7.5-0.047,11.241C69.236,168.272,69.732,173.2,70.117,178.133z
		 M174.528,237.107c-0.012-0.17-0.024-0.34-0.037-0.51c-3.498,0.274-7.023,0.362-10.488,0.865c-5.604,0.814-9.31,3.897-10.559,9.629
		c-0.923,4.238-0.761,8.449,0.526,12.537c0.506,1.609,1.601,3.129,2.743,4.407c0.734,0.821,2.009,1.488,3.102,1.593
		c3.252,0.314,6.533,0.395,9.804,0.416c2.711,0.018,5.424-0.263,8.136-0.257c3.434,0.007,6.866,0.193,10.3,0.262
		c5.356,0.107,10.713,0.226,16.069,0.253c4.468,0.023,8.936-0.071,13.404-0.126c1.574-0.019,2.656-0.869,2.906-2.35
		c0.301-1.788,0.529-3.651,0.357-5.44c-0.219-2.274-1.855-3.95-3.586-5.179c-0.873-0.62-2.529-0.637-3.655-0.314
		c-3.942,1.133-7.966,1.616-12.013,2.062c-4.04,0.445-8.019,1.391-12.137,1.162c-4.464-0.248-8.943-0.248-13.405-0.517
		c-1.73-0.104-3.447-0.592-5.143-1.015c-0.92-0.229-1.489-0.887-1.433-1.944c0.056-1.052,0.462-1.901,1.493-2.233
		c0.749-0.241,1.557-0.361,2.346-0.403c1.356-0.073,2.718-0.078,4.077-0.053c5.592,0.105,11.184,0.311,16.775,0.311
		c2.219,0,4.528-0.13,6.641-0.739c8.453-2.435,13.87-7.925,15.816-16.605c0.97-4.328,0.748-8.73,0.514-13.112
		c-0.208-3.889-1.262-7.559-3.33-10.879c-3.728-5.988-9.392-9.293-16.046-10.821c-7.852-1.803-15.821-1.894-23.811-0.716
		c-3.465,0.511-6.928,0.943-10.481,0.269c-2.313-0.439-4.697-0.84-7.126-0.193c-3.762,1.001-6.015,4.623-5.182,8.441
		c0.661,3.03,2.708,4.651,5.447,5.492c6.546,2.009,13.154,3.233,20.041,1.692c3.838-0.859,7.797-0.964,11.694-0.539
		c3.233,0.353,6.444,1.044,9.61,1.813c2.112,0.513,3.465,2.037,4.449,4.044c1.895,3.861,1.655,7.719,0.48,11.662
		c-0.696,2.336-2.194,3.903-4.553,4.49c-2.24,0.558-4.502,1.17-6.788,1.376C185.843,236.445,180.181,236.732,174.528,237.107z
		 M43.467,108.976c-0.256,7.694-0.433,13.925-0.68,20.154c-0.228,5.746-0.598,11.486-0.781,17.233
		c-0.145,4.543-0.584,9.088,0.186,13.641c0.259,1.533-0.025,3.176-0.183,4.756c-0.27,2.694-0.908,5.379-0.897,8.065
		c0.015,3.823,0.449,7.646,0.764,11.464c0.105,1.266,0.294,2.545,0.624,3.77c0.649,2.406,2.185,4.045,4.607,4.778
		c2.513,0.76,5.052,0.748,7.56,0.056c3.448-0.952,5.108-2.932,5.385-6.479c0.124-1.587,0.172-3.223-0.069-4.787
		c-0.865-5.603-0.305-11.18,0.293-16.73c0.611-5.669,0.445-11.304,0.218-16.975c-0.24-5.979-0.278-11.976-0.136-17.958
		c0.164-6.876,0.282-13.737-0.435-20.592c-0.389-3.721-0.94-7.413-0.444-11.211c0.615-4.707-2.224-7.667-7.012-7.574
		c-1.744,0.034-3.488,0.364-5.222,0.625c-1.659,0.25-2.87,1.264-3.261,2.824c-0.499,1.992-0.901,4.066-0.914,6.108
		C43.049,103.571,43.367,107.001,43.467,108.976z M105.256,193.25c1.014-0.145,2.281-0.304,3.539-0.512
		c3.155-0.522,4.732-1.917,5.057-5.165c0.389-3.887,0.505-7.808,0.566-11.718c0.05-3.194,0.081-6.42-0.306-9.579
		c-0.457-3.735-0.926-7.446-0.774-11.216c0.048-1.197,0.067-2.408-0.061-3.596c-0.824-7.664-0.266-15.327-0.107-22.995
		c0.104-5.032,0.016-10.07-0.109-15.102c-0.083-3.351-0.503-6.695-0.538-10.044c-0.019-1.812,0.433-3.633,0.71-5.444
		c0.47-3.084-0.661-5.35-3.489-6.641c-1.91-0.872-3.94-1.309-6.061-1.142c-3.943,0.311-5.958,2.367-6.008,6.32
		c-0.022,1.75,0.353,3.504,0.339,5.255c-0.07,8.871-0.181,17.743-0.331,26.613c-0.188,11.111-0.514,22.221-0.611,33.333
		c-0.048,5.507,0.325,11.016,0.427,16.526c0.041,2.23,0.047,4.489-0.249,6.691c-0.701,5.212,0.881,7.485,6.073,8.286
		C103.872,193.205,104.437,193.198,105.256,193.25z M68.29,33.23c-2.249,0.184-4.078,0.368-5.912,0.473
		c-1.915,0.11-3.843,0.06-5.751,0.235c-2.543,0.232-5.084,0.541-7.601,0.966c-1.078,0.182-2.176,0.599-3.121,1.155
		c-4.254,2.501-5.283,7.366-2.409,11.07c1.069,1.377,2.462,2.274,4.171,2.627c3.357,0.693,6.684,1.291,10.184,1.107
		c4.219-0.222,8.466,0.149,12.7,0.133c4.474-0.017,8.95-0.123,13.42-0.317c2.627-0.114,5.242-0.482,7.863-0.723
		c3.591-0.33,7.221-0.618,10.728,0.324c2.677,0.719,5.228,0.562,7.785-0.183c0.965-0.281,2.067-0.734,2.683-1.465
		c2.544-3.018,4.098-6.464,3.783-10.544c-0.106-1.369-0.699-2.517-1.872-3.176c-1.097-0.617-2.313-1.336-3.511-1.405
		c-4.538-0.263-9.104-0.551-13.634-0.33c-7.583,0.37-15.152,1.069-22.754,0.672C72.653,33.722,70.275,33.416,68.29,33.23z"/>
	<path fill="#EC1E26" d="M490.684,198.389c0.735-1.086,1.148-1.74,1.603-2.363c3.587-4.904,7.135-9.839,10.808-14.678
		c0.959-1.264,1.218-2.473,1.015-3.981c-1.064-7.919-2.071-15.846-3.099-23.77c-0.566-4.358-1.135-8.716-1.705-13.073
		c-0.049-0.377-0.113-0.753-0.172-1.15c-1.794,0.622-18.605,12.708-22.089,15.858c3.637,8.681,7.296,17.416,11.061,26.403
		c-4.798,0-9.295,0-13.981,0c-1.333-3.146-2.703-6.365-4.063-9.589c-1.211-2.87-2.608-5.681-3.565-8.634
		c-1.127-3.476-3.625-5.051-7.165-6.037c-2.523,8.088-5.033,16.134-7.577,24.291c-3.854,0-7.654,0-11.794,0
		c6.519-21.004,12.993-41.866,19.481-62.771c3.878,0,7.618,0,11.74,0c-3.168,10.921-6.758,21.578-10.003,32.651
		c3.665-0.734,6.679-2.055,9.379-4.086c5.111-3.845,10.225-7.685,15.298-11.579c1.191-0.914,2.373-1.396,3.926-1.376
		c6.397,0.083,12.796,0.031,19.194,0.04c0.704,0.001,1.408,0.069,2.282,0.115c1.32,9.872,2.627,19.65,3.989,29.835
		c0.628-0.758,1.037-1.204,1.393-1.688c6.48-8.831,12.983-17.645,19.397-26.523c0.955-1.322,1.957-1.843,3.563-1.777
		c2.874,0.119,5.757,0.027,8.636,0.039c0.603,0.003,1.205,0.074,2.124,0.134c-0.608,0.878-1.028,1.524-1.486,2.142
		c-14.765,19.907-29.548,39.801-44.271,59.739c-1.016,1.376-2.074,1.932-3.765,1.866
		C497.658,198.301,494.469,198.389,490.684,198.389z"/>
	<path fill="#EC1D25" d="M620.967,141.843c0.48-0.147,0.961-0.293,1.441-0.44c-4.227,3.54-7.148,7.986-9.923,12.546
		c-2.285,3.755-4.586,7.501-6.793,11.301c-0.45,0.775-0.695,1.774-0.713,2.676c-0.078,3.757-0.033,7.518-0.033,11.277
		c0,0.783,0,1.566,0,2.47c-4.158,0-8.107,0-12.184,0c-0.075-0.944-0.143-1.794-0.221-2.774c-2.016,0.557-3.875,1.196-5.786,1.57
		c-3.183,0.622-6.365,0.503-9.454-0.602c-5.253-1.878-8.487-5.51-9.501-11.039c-0.168-0.915-0.282-1.84-0.474-3.115
		c-0.666,0.824-1.171,1.399-1.621,2.013c-3.072,4.192-6.169,8.366-9.171,12.607c-0.78,1.103-1.621,1.529-2.967,1.501
		c-4.077-0.083-8.157-0.027-12.236-0.034c-0.537-0.001-1.074-0.051-1.918-0.094c0.509-0.789,0.842-1.382,1.247-1.922
		c14.87-19.83,29.754-39.649,44.6-59.498c0.794-1.062,1.598-1.535,2.953-1.513c4.957,0.082,9.917,0.032,14.876,0.032
		c0.539,0,1.079,0,1.815,0c0,9.368,0,18.524,0,28.089c1.361-0.657,2.39-1.207,3.461-1.658c1.231-0.518,2.498-0.949,3.749-1.417
		c-0.022,0.098-0.026,0.197-0.014,0.296c-5.219,3.51-9.51,7.991-13.484,12.817c-1.52,1.846-3.125,3.629-4.774,5.361
		c-0.999,1.049-2.191,1.823-3.768,1.818c-1.961-0.006-3.412-0.845-4.227-2.588c-0.813-1.739-0.568-3.432,0.717-4.897
		c0.36-0.411,0.851-0.707,1.276-1.052c0.16-0.143,0.326-0.291,0.525-0.468c-3.648-0.666-6.947,0.26-9.484,2.628
		c-2.721,2.541-3.657,6.705-2.319,10.139c1.23,3.156,4.642,5.43,8.344,5.304c3.197-0.108,5.873-1.395,8.381-3.158
		c3.713-2.61,6.549-6.069,9.133-9.747c4.106-5.845,8.639-11.296,14.355-15.665c0.999-0.764,2.006-1.518,3.01-2.276
		c0,0-0.026,0.018-0.026,0.018C620.161,142.181,620.564,142.012,620.967,141.843z M592.562,131.564
		c-5.113,6.328-9.861,12.818-14.757,19.576c2.936,0,5.464-0.332,7.857,0.094c2.347,0.418,4.557,1.607,6.9,2.485
		C592.562,146.315,592.562,138.939,592.562,131.564z"/>
	<path fill="#EC1E26" d="M532.919,282.509c-0.493,0.679-1.044,1.324-1.467,2.044c-1.67,2.845-4.201,4.438-7.414,4.632
		c-3.337,0.202-6.697,0.045-10.402,0.045c0.182-2.949,0.366-5.92,0.563-9.108c1.051,0,1.984-0.026,2.916,0.006
		c1.358,0.047,2.715,0.144,4.072,0.203c2.644,0.116,3.414-0.378,4.216-2.881c2.219-6.92,4.407-13.849,6.604-20.776
		c0.528-1.665,1.046-3.334,1.635-5.214c-1.35,0-2.491,0-3.917,0c-1.424,4.627-2.893,9.398-4.382,14.234c-2.251,0-4.383,0-6.832,0
		c1.439-4.802,2.843-9.485,4.287-14.304c-1.514,0-2.849,0-4.266,0c-4.596,13.803-10.075,27.135-19.142,39.029
		c-2.189-2.003-4.28-3.915-6.486-5.933c7.841-9.904,12.83-21.052,16.649-33.194c-1.169,0-2.089,0-3.009,0c-0.875,0-1.749,0-2.926,0
		c0.904-2.904,1.746-5.608,2.635-8.463c1.954,0,3.853,0,5.987,0c3.021-9.494,6.012-18.894,9.058-28.47c2.938,0,5.8-0.07,8.657,0.03
		c1.409,0.05,2.517-0.231,3.179-1.538c1.525-3.007,3.925-4.084,7.243-3.591c1.551,0.23,3.165,0.039,5.259,0.039
		c-1.271,1.77-2.303,3.207-3.54,4.929c4.094,0.322,8.03-0.045,12.138,0.239c-0.212,0.78-0.373,1.464-0.584,2.132
		c-6.472,20.483-12.95,40.964-19.422,61.447c-0.474,1.499-0.91,3.011-1.363,4.517C532.866,282.564,532.919,282.509,532.919,282.509z
		 M536.48,242.655c2.096-6.64,4.172-13.213,6.293-19.931c-5.258,0-10.167,0-15.194,0c-2.105,6.649-4.182,13.213-6.292,19.877
		c1.62,0,2.936,0,4.216,0c1.357-4.418,2.664-8.674,3.983-12.967c2.284,0,4.409,0,6.791,0c-1.316,4.409-2.58,8.641-3.888,13.021
		C533.86,242.655,535.106,242.655,536.48,242.655z"/>
	<path fill="#EC1F27" d="M353.539,223.132c-0.58-4.755-1.127-9.231-1.691-13.853c3.338,0,6.431,0,9.804,0
		c0.606,4.51,1.218,9.064,1.861,13.85c3.054,0,5.992-0.022,8.93,0.012c0.99,0.012,1.367-0.694,1.832-1.326
		c2.608-3.54,5.296-7.026,7.773-10.655c1.081-1.584,2.293-2.163,4.156-2.039c2.22,0.148,4.457,0.035,7.168,0.035
		c-1.236,1.738-2.261,3.199-3.306,4.645c-1.077,1.491-2.174,2.966-3.259,4.451c-1.073,1.468-2.141,2.939-3.512,4.82
		c3.147,0,5.868,0,8.907,0c-1.07,3.386-2.022,6.396-3.001,9.492c-6.202,0-12.269,0-18.49,0c-0.955,3.022-1.884,5.963-2.916,9.226
		c2.846,0.278,5.445,0.11,8.031,0.141c2.525,0.03,5.051,0.007,7.847,0.007c-0.991,3.144-1.87,5.932-2.803,8.893
		c-5.3,0-10.548,0-15.937,0c-1.282,4.005-2.516,7.863-3.84,11.999c6.485,0,12.747,0,19.282,0c-1.055,3.31-2.018,6.328-3.015,9.458
		c-6.441,0-12.739,0-19.226,0c-1.99,6.227-3.951,12.359-5.922,18.526c-3.292,0-6.45,0-9.87,0c1.95-6.172,3.838-12.151,5.821-18.426
		c-6.157,0-12.101,0-18.387,0c1.053-3.346,2.001-6.36,2.991-9.508c6.158,0,12.211,0,18.396,0c1.267-3.966,2.495-7.807,3.803-11.9
		c-5.366,0-10.448,0-15.929,0c1.002-3.18,1.914-6.076,2.856-9.066c5.381,0,10.564,0,15.919,0c0.986-3.104,1.94-6.11,2.964-9.334
		c-6.132,0-11.959,0-18.099,0c1.017-3.226,1.965-6.233,2.978-9.447C348.261,223.132,350.779,223.132,353.539,223.132z"/>
	<path fill="#EC1E26" d="M675.01,278.683c-1.036,3.311-1.984,6.339-2.957,9.451c-26.925,0-53.769,0-80.924,0
		c0.979-3.129,1.925-6.152,2.919-9.329c11.957,0,23.852,0,35.921,0c1.578-4.954,3.119-9.789,4.737-14.868
		c-9.181,0-18.101,0-27.433,0c1.045-3.329,2.003-6.378,2.933-9.341c21.618,0,43.007,0,64.666,0c-1,3.18-1.926,6.124-2.887,9.179
		c-8.921,0-17.786,0-26.825,0c-1.545,4.924-3.065,9.771-4.677,14.907C652.099,278.683,663.409,278.683,675.01,278.683z"/>
	<path fill="#EC1F26" d="M482.522,220.673c-4.849,0-9.478,0-14.349,0c-1.015,3.192-2.044,6.425-3.159,9.927c3.952,0,7.66,0,11.747,0
		c-0.745,2.445-1.4,4.593-2.126,6.976c-3.912,0-7.793,0-11.843,0c-1.203,3.804-2.346,7.417-3.579,11.314c8.777,0,17.217,0,25.863,0
		c-0.29,1.079-0.482,1.924-0.742,2.748c-2.696,8.527-5.4,17.051-8.11,25.573c-0.242,0.76-0.524,1.509-0.813,2.253
		c-2.535,6.522-7.393,9.823-14.297,10.156c-2.551,0.123-5.114,0.02-8.005,0.02c-0.069-2.723,0.138-5.385,0.12-8.34
		c1.577,0,2.996,0.004,4.415-0.001c1.359-0.005,2.719,0.003,4.077-0.034c3.089-0.083,5.074-1.612,6.001-4.571
		c1.313-4.19,2.669-8.367,3.999-12.552c0.699-2.197,1.382-4.398,2.173-6.917c-8.699,0-17.187,0-25.927,0
		c4.755-15.011,9.405-29.69,14.144-44.65c2.141,0,4.283-0.111,6.407,0.035c1.699,0.117,2.966-0.329,3.771-1.848
		c0.647-1.221,1.646-1.539,2.981-1.489c2.464,0.092,4.935,0.026,7.833,0.026c-0.738,1.146-1.298,2.016-2.043,3.174
		c4.247,0,8.261,0,12.67,0c-3.533,11.28-6.958,22.218-10.423,33.281c-2.805,0-5.552,0-8.577,0
		C477.344,237.341,479.914,229.068,482.522,220.673z"/>
	<path fill="#DB252C" d="M192.342,2.253c7.359,0.403,14.689,0.759,21.927,2.299c5.664,1.204,10.809,3.432,15.151,7.286
		c2.745,2.436,5.357,5.027,7.973,7.604c1.479,1.457,2.8,3.075,4.276,4.537c1.805,1.787,3.115,3.834,3.776,6.292
		c0.187,0.694,0.413,1.377,0.612,2.067c0.731,2.529,1.237,5.021,0.856,7.74c-0.432,3.073-0.333,6.219-0.517,9.33
		c-0.051,0.869-0.175,1.765-0.455,2.584c-0.829,2.434-0.751,4.805-0.062,7.278c1.909,6.849,2.177,13.886,1.955,20.933
		c-0.236,7.51-0.803,15.01-0.983,22.521c-0.161,6.709-0.257,13.452,0.956,20.088c0.542,2.965,1.376,5.924,2.484,8.725
		c1.204,3.041,1.493,5.994,0.655,9.121c-0.765,2.853-1.531,5.709-2.179,8.591c-0.996,4.429-0.505,8.923-0.358,13.387
		c0.298,9.028,0.738,18.051,1.06,27.078c0.059,1.669-0.045,3.366-0.295,5.016c-0.15,0.987-0.622,1.976-1.157,2.834
		c-0.287,0.46-1.056,0.939-1.528,0.869c-0.43-0.064-0.971-0.81-1.083-1.336c-0.397-1.871-0.849-3.773-0.884-5.67
		c-0.083-4.393-0.123-8.802,0.169-13.181c0.363-5.455,0.256-10.869-0.524-16.265c-0.829-5.737-0.982-11.444,0.062-17.181
		c0.962-5.288,0.621-10.509-1.33-15.573c-0.402-1.043-0.728-2.118-1.164-3.146c-2.856-6.736-3.001-13.657-1.442-20.696
		c0.363-1.637,0.675-3.292,1.152-4.896c1.741-5.848,1.664-11.806,1.405-17.823c-0.171-3.982-0.723-7.767-2.765-11.253
		c-0.398-0.679-0.667-1.463-0.846-2.234c-0.448-1.933-0.372-3.768,0.939-5.456c2.152-2.769,2.346-6.069,2.072-9.36
		c-0.091-1.089-0.772-2.289-1.529-3.125c-1.253-1.381-1.919-2.911-2.122-4.707c-0.233-2.062-0.502-4.121-0.67-6.189
		c-0.041-0.497,0.168-1.067,0.413-1.523c0.376-0.7,0.928-1.303,1.325-1.993c1.286-2.24,1.167-3.274-0.531-5.168
		c-0.267-0.297-0.55-0.581-0.843-0.853c-1.044-0.97-1.699-2.138-1.673-3.584c0.065-3.577-1.925-5.707-4.852-7.359
		c-5.383-3.038-11.095-5.264-16.944-7.178c-8.655-2.832-17.412-5.281-26.398-6.837c-1.096-0.19-2.229-0.16-3.333-0.321
		c-1.1-0.16-2.205-0.362-3.261-0.693c-0.361-0.113-0.841-0.7-0.806-1.021c0.05-0.462,0.437-1.137,0.828-1.262
		c0.809-0.26,1.714-0.277,2.58-0.287C187.071,2.233,189.707,2.253,192.342,2.253z"/>
	<path fill="#EC1F27" d="M415.995,210.735c6.806,0,13.429,0,20.402,0c-8.476,26.778-16.899,53.385-25.348,80.077
		c-2.499,0-4.867,0-7.602,0c3.18-10.75,6.617-21.323,9.884-32.176c-1.583,0-3.036,0-4.744,0
		c-3.714,11.161-8.348,22.069-15.108,32.282c-2.272-1.078-4.462-2.118-6.567-3.117c2.51-4.54,4.996-8.823,7.279-13.211
		c4.449-8.549,7.181-17.754,10.059-26.899c3.669-11.657,7.369-23.304,11.059-34.954
		C415.502,212.131,415.721,211.533,415.995,210.735z M415.372,237.241c-1.377,4.41-2.711,8.683-4.069,13.034
		c1.845,0,3.318,0,4.773,0c1.374-4.395,2.696-8.625,4.075-13.034C418.462,237.241,417.051,237.241,415.372,237.241z
		 M426.019,218.801c-1.787,0-3.273,0-4.786,0c-1.088,3.478-2.143,6.85-3.228,10.317c1.778,0,3.261,0,4.76,0
		C423.848,225.686,424.894,222.367,426.019,218.801z"/>
	<path fill="#EC1F27" d="M459.942,210.745c-8.515,26.891-16.943,53.506-25.358,80.079c-2.613,0-4.976,0-7.631,0
		c3.348-10.837,6.636-21.48,9.97-32.275c-1.715,0-3.21,0-4.799,0c-3.458,10.768-6.897,21.477-10.363,32.269c-2.47,0-4.825,0-7.51,0
		c8.436-26.82,16.809-53.438,25.187-80.073C446.295,210.745,452.917,210.745,459.942,210.745z M438.938,237.284
		c-1.365,4.328-2.717,8.614-4.108,13.021c1.794,0,3.277,0,4.776,0c1.368-4.356,2.697-8.587,4.09-13.021
		C442.071,237.284,440.676,237.284,438.938,237.284z M444.793,218.789c-1.076,3.418-2.14,6.797-3.257,10.345
		c1.705,0,3.176,0,4.767,0c1.077-3.418,2.142-6.797,3.259-10.345C447.854,218.789,446.382,218.789,444.793,218.789z"/>
	<path fill="#EC1E26" d="M375.428,169.965c3.673-11.821,7.318-23.549,10.997-35.391c3.868,0,7.647,0,11.716,0
		c-5.081,16.393-10.106,32.609-15.196,49.033c-0.522-0.333-1.038-0.525-1.357-0.89c-1.27-1.45-2.945-1.928-4.737-1.87
		c-2.711,0.087-5.424,0.282-8.123,0.564c-5.172,0.541-10.34,1.117-15.531,0.326c-1.252-0.191-2.518-0.479-3.698-0.931
		c-5.236-2.004-7.729-6.729-6.421-12.63c0.792-3.576,1.996-7.064,3.074-10.573c2.18-7.098,4.399-14.184,6.609-21.273
		c0.186-0.597,0.421-1.178,0.633-1.768c3.835,0,7.548,0,11.497,0c-1.058,3.452-2.049,6.712-3.058,9.968
		c-2.009,6.482-4.033,12.96-6.036,19.445c-0.306,0.99-0.59,1.995-0.784,3.011c-0.454,2.376,0.103,3.427,2.466,3.698
		c2.843,0.326,5.738,0.445,8.596,0.321C369.097,170.874,372.102,170.352,375.428,169.965z"/>
	<path fill="#EC1E26" d="M447.295,150.454c-3.805,0-7.46,0-11.113,0c-0.092-0.125-0.244-0.238-0.258-0.366
		c-0.375-3.34-0.792-4.445-5.067-4.691c-4.205-0.242-8.451,0.046-12.669,0.284c-2.826,0.159-4.973,1.736-6.376,4.139
		c-0.959,1.643-1.816,3.39-2.411,5.192c-0.999,3.027-1.872,6.108-2.58,9.216c-1.079,4.731,0.138,6.488,4.916,6.797
		c3.739,0.242,7.509,0.162,11.259,0.031c2.946-0.103,5.383-1.378,7.018-3.951c0.255-0.401,0.564-0.769,0.866-1.177
		c3.844,0,7.676,0,11.693,0c-2.29,6.023-6.166,10.469-11.803,13.336c-2.872,1.46-5.947,2.261-9.172,2.533
		c-5.998,0.504-11.995,0.448-17.919-0.548c-6.392-1.075-9.582-5.121-9.319-11.593c0.1-2.456,0.418-4.964,1.08-7.324
		c1.162-4.142,2.544-8.233,4.053-12.264c3.127-8.351,9.391-13.066,17.948-14.906c4.322-0.929,8.722-1.039,13.121-0.78
		c2.864,0.169,5.773,0.218,8.568,0.786c6.016,1.221,9.325,6.09,8.597,12.178C447.614,148.298,447.465,149.245,447.295,150.454z"/>
	<path fill="#EC1E26" d="M532.866,282.564c1.229-1.227,2.571-2.362,3.668-3.698c5.233-6.377,8.912-13.655,11.707-21.346
		c2.727-7.503,5.082-15.141,7.599-22.72c0.226-0.681,0.447-1.364,0.706-2.154c9.666,0,19.313,0,29.189,0
		c-1.665,5.308-3.277,10.477-4.908,15.641c-1.66,5.255-3.375,10.493-4.999,15.76c-1.589,5.155-3.405,10.249-4.838,15.702
		c2.934,0.753,5.581,0.085,8.438,0.523c-0.835,2.724-1.659,5.41-2.563,8.359c-0.962,0-1.898,0.017-2.833-0.003
		c-3.355-0.071-6.727,0.033-10.059-0.284c-3.549-0.338-4.768-2.185-3.762-5.654c1.735-5.981,3.679-11.902,5.553-17.842
		c2.235-7.084,4.49-14.161,6.733-21.243c0.214-0.675,0.41-1.357,0.663-2.195c-3.42,0-6.657,0-10.153,0
		c-0.258,0.779-0.57,1.664-0.845,2.56c-2.798,9.092-5.743,18.126-10.105,26.625c-3.115,6.071-6.746,11.795-11.276,16.92
		c-0.681,0.77-1.408,1.498-2.285,2.426c-1.906-2.261-3.703-4.372-5.461-6.516c-0.165-0.202-0.083-0.606-0.116-0.917
		C532.919,282.509,532.866,282.564,532.866,282.564z"/>
	<path fill="#DB252C" d="M170.719,381.772c2.275-0.098,4.427-0.16,6.575-0.287c8.217-0.488,16.449-0.821,24.641-1.579
		c3.535-0.327,7.041-1.368,10.463-2.408c4.724-1.436,9.413-3.029,14.005-4.837c3.358-1.322,6.315-3.415,8.836-6.06
		c2.869-3.01,4.581-6.588,4.778-10.722c0.7-14.691,1.362-29.385,1.893-44.083c0.251-6.95,0.083-13.913,0.27-20.866
		c0.174-6.426-0.606-12.76-1.369-19.111c-0.813-6.764-1.307-13.547,0.267-20.275c0.49-2.092,1.194-4.139,1.897-6.173
		c0.268-0.775,0.811-1.455,1.196-2.122c1.651,0.407,1.703,1.661,2.074,2.665c2.168,5.881,2.408,12.03,2.406,18.192
		c-0.001,3.835-0.229,7.669-0.308,11.504c-0.049,2.389-0.14,4.789,0.012,7.169c0.777,12.144,0.664,24.284,0.14,36.435
		c-0.154,3.583,0.241,7.186,0.308,10.782c0.14,7.54-0.342,15.018-2.409,22.324c-1.273,4.501-3.182,8.686-5.995,12.45
		c-1.195,1.6-2.2,3.347-3.443,4.905c-3.05,3.821-6.627,7.16-10.522,10.057c-3.289,2.446-7.082,4.018-11.361,3.878
		c-0.554-0.018-1.151-0.003-1.663,0.181c-6.17,2.208-12.621,1.76-18.977,1.875c-7.03,0.128-14.069-0.124-21.102-0.283
		C170.441,385.318,170.344,385.107,170.719,381.772z"/>
	<path fill="#EC1D25" d="M307.825,170.962c11.168,0,21.996,0,33.121,0c-1.187,3.815-2.267,7.289-3.351,10.773
		c-15.05,0-29.916,0-45.165,0c6.516-20.996,12.981-41.828,19.483-62.781c3.934,0,7.819,0,12.029,0
		C318.585,136.237,313.259,153.424,307.825,170.962z"/>
	<path fill="#EC1E25" d="M662.273,209.384c-0.499,1.814-0.878,3.188-1.329,4.826c11.073,0,21.97,0,33.263,0
		c-2.221,7.045-4.339,13.765-6.489,20.584c-3.251,0-6.426,0-9.878,0c0.786-3.818,2.383-7.373,3.32-11.238
		c-19.387,0-38.64,0-58.032,0c-1.204,3.694-2.413,7.401-3.659,11.223c-3.225,0-6.392,0-9.878,0
		c1.898-6.862,4.255-13.512,6.337-20.407c11.502,0,22.913,0,34.38,0c0.59-1.718,1.128-3.285,1.724-5.018
		C655.425,209.282,658.773,209.245,662.273,209.384z"/>
	<path fill="#DB242B" d="M5.622,198.478c-0.12,2.235-0.292,3.982-0.288,5.729c0.006,2.402,0.507,2.872,2.865,3.059
		c1.565,0.124,2.413,1.042,2.27,2.74c-0.1,1.182-0.442,2.349-0.731,3.509c-0.308,1.238-0.677,2.461-1.027,3.688
		c-0.649,2.273-0.376,4.481,0.782,6.488c1.782,3.089,2.432,6.374,2.23,9.896c-0.096,1.674-0.035,3.356-0.054,5.034
		c-0.035,3.148,0.412,6.221,1.58,9.15c1.319,3.306,1.596,6.607,0.566,10.069c-0.765,2.573-0.734,5.217,0.268,7.769
		c0.868,2.209,0.642,4.159-1.001,5.993c-0.661,0.738-1.302,1.773-1.371,2.715c-0.442,6.023-2.578,11.683-3.62,17.574
		c-0.992,5.609-1.55,11.23-1.266,16.928c0.076,1.515,0.083,3.037,0.047,4.554c-0.016,0.709-0.108,1.449-0.342,2.112
		c-0.516,1.459-1.759,1.702-2.705,0.466c-0.614-0.802-1.146-1.785-1.349-2.763c-0.712-3.432-1.424-6.878-1.85-10.353
		c-1.224-9.996-0.55-19.965,1.087-29.846c1.105-6.671,0.826-13.379,1.203-20.067c0.211-3.748,0.315-7.511,0.244-11.262
		c-0.051-2.702-0.434-5.4-0.734-8.093c-0.354-3.175-0.78-6.342-1.173-9.513c-0.303-2.452,0.029-4.733,1.437-6.868
		c1.634-2.479,1.457-5.335,1.302-8.134c-0.124-2.229-0.431-4.449-0.505-6.678C3.439,200.924,3.916,199.599,5.622,198.478z"/>
	<path fill="#EC1E25" d="M650.42,132.226c1.79,3.043,4,3.993,6.817,3.41c6.155-1.273,12.389-1.118,18.618-1.099
		c2.308,0.007,4.616,0.001,7.283,0.001c-1.142,3.706-2.204,7.154-3.309,10.741c-4.257,0-8.397-0.025-12.537,0.015
		c-1.27,0.012-2.553,0.113-3.803,0.327c-3.735,0.64-6.12,2.796-7.239,6.454c-2.823,9.23-5.708,18.442-8.571,27.66
		c-0.189,0.608-0.394,1.211-0.63,1.933c-3.896,0-7.776,0-11.937,0C640.178,165.303,645.209,149.055,650.42,132.226z"/>
	<path fill="#EC1F27" d="M308.926,290.857c-3.178,0-6.121,0-9.447,0c2.851-9.661,6.001-19.077,8.959-28.549
		c2.97-9.512,6.022-18.999,9.116-28.741c-5.06,0-9.829,0-14.897,0c0.972-3.122,1.867-5.999,2.783-8.942c8.169,0,16.221,0,24.584,0
		C322.982,246.73,315.985,268.696,308.926,290.857z"/>
	<path fill="#EC1E26" d="M624.601,181.719c-4.159,0-8.062,0-12.359,0c4.889-15.772,9.719-31.355,14.581-47.039
		c4.063,0,8.023,0,12.373,0C634.315,150.411,629.481,165.991,624.601,181.719z"/>
	<path fill="#DB232A" d="M158.149,3.062c-5.669,0.195-11.345,0.275-17.005,0.612c-7.577,0.451-15.146,1.064-22.713,1.671
		c-13.46,1.078-26.892,2.69-40.437,2.107c-7.341-0.316-14.681-0.672-22.017-1.01c-0.123-1.956-0.13-1.995,1.394-2.271
		c9.9-1.797,19.773-3.791,29.879-4.077c1.038-0.029,2.077-0.069,3.115-0.07c18.469-0.004,36.939-0.074,55.407,0.057
		c3.642,0.026,7.287,0.78,10.911,1.327c0.634,0.096,1.171,0.835,1.752,1.277C158.34,2.809,158.245,2.935,158.149,3.062z"/>
	<path fill="#EC1E26" d="M552.499,225.824c0.964-3.039,1.874-5.907,2.836-8.938c4.855,0,9.621,0,14.442,0
		c0.928-2.553,1.797-4.939,2.706-7.441c3.193,0,6.349,0,9.804,0c-0.821,2.424-1.598,4.72-2.478,7.318c5.516,0,10.807,0,16.394,0
		c-1.005,3.2-1.908,6.075-2.846,9.061C579.764,225.824,566.237,225.824,552.499,225.824z"/>
	<path fill="#EC1F26" d="M656.508,226.922c3.456,0,6.629,0,10.061,0c-0.637,2.094-1.236,4.058-1.831,6.024
		c-0.346,1.144-0.757,2.275-1.011,3.44c-0.399,1.826,0.337,2.937,2.175,3.277c0.854,0.158,1.749,0.129,2.625,0.13
		c5.743,0.01,11.487,0.005,17.583,0.005c-0.983,3.11-1.9,6.009-2.834,8.964c-0.715,0.034-1.259,0.082-1.803,0.082
		c-6.148,0.005-12.297,0.064-18.443-0.031c-2.055-0.032-4.157-0.253-6.145-0.754c-3.383-0.854-4.664-2.929-4.326-6.406
		c0.054-0.555,0.127-1.117,0.275-1.652C654.047,235.638,655.281,231.281,656.508,226.922z"/>
	<path fill="#EC1F27" d="M606.972,252.34c-0.673-3.051-1.318-5.978-2.012-9.126c13.85-1.489,25.803-6.521,34.951-17.449
		c2.783,1.295,5.492,2.556,8.22,3.825C641.832,240.043,620.622,251.784,606.972,252.34z"/>
	<path fill="#DB262D" d="M8.558,49.098c-2.049,1.099-2.193,3.052-1.97,5.117c0.146,1.349,0.407,2.687,0.531,4.038
		c0.083,0.904,0.016,1.822,0.016,2.799c-3.363-0.956-4.59-2.301-4.629-5.683c-0.056-4.791,0.076-9.589,0.307-14.375
		c0.119-2.461,0.533-4.92,0.978-7.349c0.617-3.368,2.167-6.336,4.348-8.959c3.932-4.73,7.897-9.433,11.846-14.149
		c3.138-3.748,7.245-4.387,11.741-3.55c0.543,0.101,1.089,0.845,1.361,1.421c0.106,0.226-0.485,0.861-0.851,1.215
		c-1.659,1.605-3.548,3.014-4.99,4.79c-3.393,4.179-7.127,7.983-11.279,11.399c-1.294,1.065-2.502,2.236-3.733,3.376
		c-4.378,4.056-5.648,9.117-4.724,14.852C7.775,45.686,8.183,47.312,8.558,49.098z"/>
	<path fill="#EC1F27" d="M304.32,239.891c2.572,0,5.264,0,8.185,0c-4.984,13.444-10.412,26.508-16.712,39.26
		c-2.778-0.466-5.354-0.898-7.942-1.332C293.351,265.154,298.788,252.631,304.32,239.891z"/>
	<path fill="#DB272E" d="M42.874,385.419c-0.625,2.355-1.746,3.135-3.88,2.561c-1.914-0.515-3.784-1.249-5.603-2.046
		c-2.333-1.022-4.594-2.208-6.888-3.317c-5.808-2.806-10.29-7.221-14.499-11.962c-0.312-0.351-0.559-0.787-0.741-1.223
		c-2.736-6.549-5.713-13.022-7.022-20.062c-0.288-1.549-0.311-3.182-0.203-4.759c0.068-0.99,0.47-2.03,0.986-2.89
		c0.312-0.52,1.175-1.068,1.705-0.994c0.498,0.069,1.067,0.874,1.28,1.471c0.345,0.964,0.489,2.016,0.603,3.044
		c0.846,7.602,3.295,14.77,5.956,21.871c0.37,0.986,1.169,1.899,1.971,2.622c3.46,3.119,7.409,5.542,11.488,7.752
		C32.929,380.141,37.86,382.742,42.874,385.419z"/>
	<path fill="#EC2027" d="M326.574,275.569c-2.436,0.259-5.022,0.535-7.909,0.842c2.393-12.572,5.7-24.539,9.191-36.516
		c2.761,0,5.365,0,7.838,0C332.677,251.694,329.675,263.438,326.574,275.569z"/>
	<path fill="#EC1F27" d="M310.469,218.094c0.987-3.127,1.872-5.929,2.785-8.821c10.568,0,21.079,0,31.833,0
		c-0.932,2.997-1.825,5.871-2.742,8.821C331.744,218.094,321.237,218.094,310.469,218.094z"/>
	<path fill="#FFD906" d="M619.784,142.332c-1.003,0.759-2.01,1.513-3.01,2.276c-5.716,4.368-10.249,9.82-14.355,15.665
		c-2.584,3.678-5.421,7.137-9.133,9.747c-2.508,1.763-5.185,3.05-8.381,3.158c-3.702,0.125-7.114-2.148-8.344-5.304
		c-1.338-3.434-0.403-7.598,2.319-10.139c2.536-2.368,5.836-3.294,9.484-2.628c-0.199,0.177-0.365,0.325-0.525,0.468
		c-2.504-0.015-4.473,1.106-5.922,3.062c-1.485,2.005-1.79,4.253-0.73,6.558c1.034,2.25,3.104,2.877,5.325,3.044
		c2.145,0.161,4.07-0.635,5.867-1.743c2.698-1.665,4.754-3.979,6.618-6.503c3.859-5.227,8.161-10.041,13.47-13.85
		c1.615-1.159,3.354-2.155,5.091-3.127C618.22,142.645,619.037,142.552,619.784,142.332z"/>
	<path fill="#EC2027" d="M445.368,265.312c7.72,0,15.207,0,22.982,0c-0.831,2.705-1.617,5.262-2.426,7.896
		c-7.607,0-15.087,0-22.833,0C443.533,270.513,444.64,268.072,445.368,265.312z"/>
	<path fill="#DB282F" d="M7.167,74.707c-0.288,18.6-0.574,37.024-0.862,55.624c-1.455-0.289-1.815-1.211-1.908-2.132
		c-0.274-2.696-0.491-5.401-0.615-8.108c-0.37-8.062-0.664-16.127-1.033-24.189c-0.102-2.234-0.398-4.459-0.53-6.692
		c-0.036-0.611,0.154-1.248,0.313-1.855c0.952-3.625,1.933-7.242,2.886-10.867C5.628,75.684,5.531,74.669,7.167,74.707z"/>
	<path fill="#EC1E26" d="M644.056,118.915c-1.322,4.301-2.604,8.468-3.919,12.747c-4.033,0-8.001,0-12.307,0
		c1.154-4.307,2.597-8.468,3.916-12.747C635.812,118.915,639.781,118.915,644.056,118.915z"/>
	<path fill="#DB282F" d="M233.208,184.716c-3.18-3.274-4.628-12.403-2.88-17.68c1.226,0.005,2.052,0.743,2.668,1.668
		c2.643,3.972,3.423,8.336,2.491,12.992C235.232,182.965,234.603,184.07,233.208,184.716z"/>
	<path fill="#DB282F" d="M141.113,385.012c1.909-3.36,5.214-3.973,8.511-4.377c2.631-0.322,5.277-0.217,7.094,2.237
		C154.511,385.958,145.368,387.24,141.113,385.012z"/>
	<path fill="#DB282F" d="M612.099,144.116c-0.012-0.1-0.008-0.198,0.014-0.296c0.431-0.27,0.862-0.54,1.292-0.81
		c0.036,0.066,0.071,0.132,0.107,0.198C613.042,143.51,612.57,143.813,612.099,144.116z"/>
	<path fill="#FFD906" d="M620.967,141.843c-0.403,0.169-0.805,0.338-1.208,0.507C620.161,142.181,620.564,142.012,620.967,141.843z"
		/>
	<path fill="#FFDB00" d="M165.814,71.729c3.767,0,7.256,0,10.959,0c0.15-4.126,0.265-8.097,0.447-12.064
		c0.225-4.891,0.991-9.669,2.789-14.273c1.818-4.656,5.021-7.809,9.83-9.041c3.467-0.888,7.041-1.37,10.579-1.965
		c1.888-0.318,3.795-0.643,5.701-0.693c2.058-0.055,4.165-0.005,6.175,0.387c2.298,0.449,4.126,1.895,4.943,4.145
		c0.754,2.079,1.484,4.25,1.673,6.429c0.262,3.021-1.406,5.061-4.426,5.605c-1.93,0.348-3.967,0.281-5.941,0.155
		c-2.798-0.177-5.572-0.43-8.344,0.234c-2.254,0.54-3.868,1.813-4.836,3.922c-1.288,2.806-1.936,5.739-1.827,8.833
		c0.157,4.467,2.668,7.181,7.151,7.412c2.466,0.127,4.952-0.19,7.426-0.153c2.056,0.031,4.132,0.152,6.158,0.484
		c2.148,0.352,3.511,1.839,4.235,3.844c1.225,3.391,1.007,6.76-0.427,10.034c-0.752,1.718-2.114,2.885-3.99,3.101
		c-4.82,0.554-9.587,1.765-14.513,1.118c-1.656-0.218-3.355-0.093-5.033-0.165c-3.432-0.149-6.863-0.352-10.296-0.483
		c-2.377-0.091-2.553,0.161-2.736,2.503c-0.174,2.227-0.454,4.447-0.731,6.665c-0.311,2.492-0.233,4.935,0.622,7.33
		c0.453,1.271,1.172,1.881,2.643,1.885c9.192,0.025,18.384,0.167,27.576,0.221c4.425,0.026,6.82,2.037,7.386,6.461
		c0.15,1.173,0.195,2.382,0.099,3.559c-0.383,4.701-3.572,6.778-7.501,6.845c-5.671,0.096-11.349-0.108-17.021-0.279
		c-2.229-0.068-4.448-0.431-6.676-0.59c-1.353-0.096-2.721-0.144-4.073-0.06c-2.002,0.125-2.391,0.538-2.379,2.498
		c0.018,2.879,0.118,5.757,0.2,8.635c0.06,2.074,0.188,4.146,0.215,6.22c0.033,2.539,0.808,3.439,3.29,3.224
		c4.444-0.384,8.907-0.528,13.296-1.544c4.495-1.04,9.043-0.955,13.53,0.226c4.813,1.266,7.09,4.28,6.938,9.264
		c-0.039,1.267-0.184,2.576-0.559,3.779c-0.814,2.611-2.418,4.463-5.34,4.844c-2.223,0.29-4.447,0.608-6.638-0.085
		c-2.866-0.906-5.801-1.054-8.771-0.965c-4.791,0.144-9.582,0.27-14.373,0.417c-0.854,0.026-1.705,0.121-2.814,0.203
		c0.143,3.806,0.274,7.383,0.415,10.961c0.085,2.154,0.234,4.306,0.27,6.461c0.051,3.115,0.025,6.23,0.033,9.346
		c0.001,0.56,0.029,1.12,0.008,1.679c-0.109,2.988-1.84,5.15-4.787,5.299c-2.85,0.144-5.763,0.017-8.58-0.425
		c-3.126-0.49-4.936-3.103-4.691-6.263c0.478-6.156,0.286-12.297-0.066-18.45c-0.104-1.811,0.319-3.651,0.49-5.479
		c0.095-1.013,0.169-2.028,0.271-3.269c-1.225,0-2.262-0.145-3.245,0.024c-5.519,0.947-10.988,0.336-16.472-0.331
		c-1.493-0.182-3.027-0.082-4.54-0.044c-3.033,0.077-6.064,0.25-9.097,0.274c-0.935,0.007-1.89-0.284-2.807-0.541
		c-1.898-0.532-3.088-1.838-3.128-3.786c-0.042-2.054,0.048-4.159,0.463-6.162c0.695-3.355,3.129-5.104,6.352-5.739
		c1.557-0.307,3.179-0.477,4.762-0.424c3.59,0.121,7.172,0.494,10.763,0.624c3.994,0.145,7.995,0.218,11.99,0.158
		c2.314-0.035,3.416-0.938,3.659-3.324c0.29-2.845,0.132-5.737,0.155-8.609c0.012-1.508-0.011-3.017-0.005-4.525
		c0.003-0.638,0.11-1.283,0.049-1.913c-0.172-1.773-0.714-2.265-2.484-1.931c-6.384,1.206-12.753,0.064-19.127-0.033
		c-2.555-0.039-5.108-0.25-7.663-0.328c-5.775-0.178-7.036-1.25-8.074-6.965c-0.128-0.707-0.3-1.412-0.35-2.125
		c-0.225-3.169,1.444-5.757,4.502-6.493c1.752-0.421,3.634-0.496,5.446-0.426c3.347,0.129,6.682,0.564,10.029,0.717
		c4.869,0.222,9.745,0.31,14.618,0.443c0.718,0.019,1.449,0.038,2.155-0.068c1.81-0.273,2.719-1.094,2.491-2.876
		c-0.532-4.165,0.233-8.283,0.161-12.423c-0.007-0.4-0.022-0.8-0.047-1.199c-0.177-2.926-0.766-3.501-3.624-3.517
		c-5.198-0.028-10.4,0.06-15.594-0.106c-4.784-0.154-9.563-0.536-14.336-0.919c-1-0.08-2.034-0.473-2.931-0.95
		c-1.617-0.859-2.805-2.045-2.577-4.16c0.135-1.254-0.115-2.549,0.019-3.802c0.396-3.717,2.778-6.091,6.564-6.377
		c2.142-0.162,4.318-0.055,6.467,0.096c2.784,0.196,5.552,0.622,8.335,0.831c4.263,0.32,4.334,0.25,4.207-4.014
		c-0.107-3.593-0.253-7.189-0.523-10.773c-0.1-1.328-0.477-2.673-0.946-3.929c-0.956-2.561-3.001-3.924-5.613-4.302
		c-2.126-0.308-4.292-0.334-6.44-0.493c-2.228-0.165-4.475-0.208-6.677-0.542c-2.761-0.418-4.223-1.985-4.683-4.729
		c-0.144-0.859-0.135-1.755-0.106-2.63c0.123-3.736,1.327-5.298,5.05-5.723c5.072-0.578,10.175-1.074,15.273-1.182
		c4.482-0.095,8.631,1.335,12.258,4.14c2.642,2.043,4.363,4.67,5.237,7.831c1.559,5.636,2.71,11.317,2.148,17.247
		C165.609,66.282,165.814,68.925,165.814,71.729z"/>
	<path fill="#FFDB00" d="M146.89,232.406c0,1.612,0.026,2.883-0.005,4.152c-0.073,2.954-0.237,5.907-0.239,8.86
		c-0.001,1.589,0.322,3.176,0.378,4.769c0.096,2.698,0.187,5.402,0.11,8.099c-0.068,2.391-0.529,4.776-0.528,7.164
		c0.001,3.847,1.043,5.372,4.652,5.655c3.253,0.255,6.532,0.189,9.8,0.215c3.031,0.024,6.063-0.047,9.094-0.024
		c6.796,0.05,13.592,0.166,20.388,0.193c7.038,0.028,14.076,0.004,21.114-0.041c2.924-0.019,5.708,0.656,8.443,1.56
		c2.127,0.703,3.012,2.234,2.629,4.483c-0.553,3.246-2.19,5.568-5.536,6.529c-4.107,1.18-8.309,1.676-12.542,1.684
		c-8.072,0.015-16.144-0.168-24.216-0.242c-8.228-0.075-16.456-0.126-24.684-0.167c-1.598-0.008-3.204-0.008-4.791,0.142
		c-1.888,0.179-3.313,1.215-3.356,2.236c-0.039,0.925,1.174,1.86,3.202,1.983c3.983,0.242,7.992,0.557,11.964,0.347
		c7.133-0.377,14.203-0.168,21.277,0.819c3.235,0.451,6.53,0.452,9.782,0.799c5.596,0.597,10.704,2.602,15.251,5.887
		c1.327,0.959,2.545,2.26,3.389,3.66c2.876,4.77,4.946,9.875,5.09,15.541c0.211,8.301,0.329,16.604,0.455,24.907
		c0.035,2.317-0.067,4.636-0.06,6.954c0.009,2.941-1.42,5.03-3.87,6.444c-2.549,1.471-5.271,1.756-8.09,0.818
		c-2.922-0.973-4.062-3.272-4.234-6.08c-0.253-4.143-0.366-8.296-0.447-12.446c-0.076-3.906-0.089-7.816-0.025-11.723
		c0.04-2.469,0.371-4.935,0.381-7.403c0.006-1.499-0.203-3.038-0.57-4.494c-1.124-4.449-4.054-7.208-8.482-8.185
		c-2.876-0.634-5.819-1.08-8.755-1.291c-4.7-0.338-9.42-0.407-14.131-0.597c-2.554-0.103-5.109-0.326-7.662-0.302
		c-3.593,0.033-7.188,0.187-10.772,0.43c-0.66,0.045-1.546,0.614-1.846,1.191c-0.435,0.836,0.025,1.866,0.871,2.245
		c1.577,0.706,3.243,1.617,4.896,1.67c4.463,0.143,8.94-0.13,13.411-0.217c3.662-0.071,7.347-0.388,10.982-0.094
		c4.227,0.342,7.862,2.215,10.122,6.017c3.228,5.431,4.713,11.213,3.982,17.637c-0.337,2.959,0.411,6.031,0.532,9.057
		c0.111,2.788,0.333,5.62-0.012,8.367c-0.712,5.666-4.766,7.236-9.434,7.052c-4.32-0.171-6.367-2.557-6.538-7.021
		c-0.077-1.995,0.107-3.998,0.051-5.994c-0.083-2.975-3.041-4.782-5.768-3.489c-0.525,0.249-1.02,1.019-1.115,1.615
		c-0.147,0.924,0.106,1.905,0.11,2.862c0.008,1.822,0.093,3.658-0.095,5.463c-0.303,2.903-2.155,4.691-4.887,5.211
		c-2.491,0.474-5.081,0.637-7.622,0.59c-3.093-0.057-4.68-1.747-4.73-4.874c-0.034-2.139,0.269-4.283,0.429-6.424
		c0.03-0.398,0.117-0.793,0.137-1.191c0.104-1.987-0.706-2.793-2.694-2.703c-4.088,0.186-5.367,1.462-5.514,5.592
		c-0.054,1.517-0.039,3.039,0.006,4.557c0.036,1.199-0.301,2.231-1.225,2.992c-2.464,2.028-5.281,3.016-8.469,2.458
		c-3.174-0.556-4.921-2.492-5.188-5.717c-0.244-2.943-0.377-5.897-0.484-8.849c-0.037-1.028,0.055-2.082,0.253-3.092
		c1.376-7.022,4.763-10.118,11.917-10.498c8.139-0.432,16.291-0.597,24.434-0.948c2.868-0.124,5.733-0.404,8.587-0.72
		c0.989-0.11,2.167-0.273,2.21-1.717c0.031-1.047-0.762-1.851-2.154-2.211c-0.231-0.06-0.47-0.115-0.707-0.12
		c-4.068-0.087-8.137-0.274-12.203-0.221c-5.598,0.072-11.187,0.283-16.67-1.202c-4.366-1.183-7.713-3.576-10.042-7.559
		c-3.335-5.705-4.555-11.883-4.652-18.366c-0.079-5.278-0.061-10.557-0.141-15.835c-0.051-3.355-0.347-6.712-0.276-10.062
		c0.144-6.868,0.571-13.731,0.675-20.6c0.091-6.07-0.121-12.145-0.154-18.218c-0.015-2.715,0.126-5.43,0.119-8.145
		c-0.014-5.35-0.102-10.7-0.116-16.05c-0.005-1.748-0.051-3.526,0.232-5.239c0.475-2.879,2.607-4.979,5.089-5.361
		c2.944-0.453,5.626,0.778,7.168,3.295c1.253,2.046,1.613,4.326,1.661,6.663c0.049,2.398-0.035,4.799,0.024,7.197
		c0.087,3.566,1.392,5.399,4.987,5.913c3.292,0.471,6.682,0.472,10.02,0.369c5.828-0.18,11.645-0.748,17.473-0.864
		c4.05-0.08,8.131,0.142,12.157,0.595c1.915,0.215,3.868,1.047,5.567,2.017c2.792,1.594,3.107,4.061,1.285,6.702
		c-2.14,3.099-5.317,3.914-8.777,4.049c-1.508,0.059-3.027-0.213-4.541-0.219c-4.476-0.016-8.953,0.013-13.429,0.056
		c-1.116,0.011-2.23,0.179-3.347,0.216c-5.992,0.198-11.985,0.372-17.978,0.572C149.016,232.17,148.161,232.29,146.89,232.406z"/>
	<path fill="#FFDB00" d="M63.323,311.232c-1.492,0-2.764,0.062-4.029-0.015c-1.664-0.102-2.848,0.646-3.437,2.086
		c-0.63,1.539-1.327,3.17-1.413,4.792c-0.285,5.42-0.392,10.854-0.407,16.283c-0.013,4.543,0.306,9.088,0.271,13.631
		c-0.022,2.779-0.831,5.358-3.219,7.178c-2.686,2.046-6.187,1.807-8.411-0.728c-1.734-1.977-2.82-4.282-2.776-6.971
		c0.03-1.834,0.229-3.666,0.312-5.5c0.068-1.515,0.116-3.033,0.106-4.549c-0.073-10.954-0.221-21.907-0.21-32.86
		c0.003-3.186,0.45-6.372,0.678-9.559c0.051-0.717,0.055-1.439,0.046-2.159c-0.098-7.992-0.206-15.984-0.306-23.975
		c-0.049-3.919-0.171-7.84-0.12-11.758c0.134-10.23,0.241-20.463,0.566-30.687c0.178-5.612,1.342-11.104,3.354-16.366
		c1.842-4.817,5.022-8.48,10.177-9.667c2.916-0.671,6.016-0.685,9.036-0.725c5.347-0.071,8.938,2.82,11.615,7.211
		c2.889,4.739,4.427,9.92,5.063,15.358c0.389,3.323,0.365,6.694,0.525,10.044c0.111,2.314,0.294,4.628,0.31,6.943
		c0.016,2.393-0.202,4.787-0.193,7.181c0.02,5.193,0.131,10.385,0.182,15.578c0.032,3.199,0.02,6.398,0.031,9.597
		c0.014,4.15,0.124,8.302,0.027,12.45c-0.182,7.829-0.599,15.653-0.698,23.482c-0.088,6.95,0.075,13.905,0.211,20.856
		c0.135,6.874,0.458,13.744,0.54,20.618c0.045,3.827-1.625,6.762-5.267,8.397c-3.191,1.432-5.721,0.78-7.717-2.102
		c-1.915-2.766-2.648-5.965-3.257-9.192c-1.028-5.449-1.017-10.969-1.082-16.486c-0.065-5.515-0.206-11.029-0.323-16.543
		C63.5,312.606,63.418,312.14,63.323,311.232z M63.854,225.413c0.276-3.067-0.057-6.068-1.237-8.927
		c-0.331-0.802-0.717-1.632-1.275-2.279c-1.095-1.27-2.751-1.173-3.627,0.255c-0.615,1.004-1.13,2.152-1.348,3.3
		c-0.868,4.566-1.144,9.175-0.826,13.828c0.185,2.705,0.181,5.427,0.172,8.141c-0.005,1.27-0.308,2.538-0.33,3.809
		c-0.051,2.985,1.438,4.442,4.987,4.207c0.475-0.031,0.942-0.211,1.417-0.23c1.166-0.047,1.758-0.588,1.75-1.785
		c-0.016-2.147-0.037-4.294,0.003-6.44C63.624,234.665,63.747,230.039,63.854,225.413z M57.114,285.094
		c-0.114,0.011-0.227,0.021-0.341,0.032c0,2.398-0.067,4.799,0.041,7.192c0.032,0.721,0.351,1.74,0.881,2.069
		c1.423,0.882,3.09,0.736,4.627,0.2c1.439-0.501,1.692-1.853,1.691-3.158c-0.004-3.117,0.117-6.257-0.214-9.345
		c-0.506-4.72-0.357-9.405,0.01-14.109c0.105-1.352,0.117-2.716,0.078-4.072c-0.037-1.243-0.643-2.221-1.938-2.377
		c-1.42-0.171-2.868-0.163-4.302-0.139c-0.777,0.013-1.431,0.431-1.455,1.3c-0.093,3.342-0.312,6.693-0.157,10.026
		C56.225,276.848,56.739,280.967,57.114,285.094z"/>
	<path fill="#FFDB00" d="M109.145,311.52c-1.723-0.206-3.133-0.438-4.553-0.531c-2.798-0.183-4.241,1.118-4.19,3.917
		c0.035,1.908,0.277,3.819,0.52,5.716c1.165,9.07,1.039,18.183,0.899,27.292c-0.024,1.559-0.475,3.146-0.938,4.656
		c-0.583,1.9-2.08,2.704-4.015,2.856c-1.501,0.118-3.001,0.302-4.489,0.535c-3.071,0.481-5.642-1.275-6.488-4.324
		c-0.584-2.108-0.273-4.177,0.257-6.158c1.17-4.372,0.779-8.729,0.193-13.088c-0.512-3.81-0.746-7.584-0.488-11.451
		c0.27-4.049-0.167-8.141-0.116-12.211c0.048-3.746,0.343-7.489,0.512-11.234c0.147-3.261,0.448-6.527,0.367-9.784
		c-0.187-7.585-0.544-15.156,0.188-22.744c0.282-2.921-0.061-5.901-0.114-8.855c-0.075-4.237-0.241-8.475-0.194-12.71
		c0.066-5.833,0.041-11.686,0.539-17.488c0.366-4.269,1.414-8.492,2.345-12.694c0.427-1.926,1.259-3.77,1.984-5.621
		c1.358-3.469,4.231-5.307,7.464-6.675c4.051-1.715,8.246-1.703,12.473-0.797c6.601,1.415,7.654,2.274,10.513,8.451
		c1.182,2.553,2.09,5.171,2.228,8.028c0.061,1.269,0.422,2.521,0.554,3.79c0.312,3.011,0.693,6.022,0.817,9.042
		c0.197,4.788,0.232,9.584,0.281,14.377c0.015,1.433-0.232,2.867-0.223,4.3c0.029,4.553,0.119,9.105,0.193,13.657
		c0.013,0.799,0.076,1.597,0.091,2.396c0.221,12.148,0.411,24.296,0.666,36.443c0.138,6.564-0.206,13.09-0.885,19.621
		c-0.505,4.857-0.226,9.738,0.449,14.587c0.176,1.26,0.267,2.54,0.285,3.813c0.053,3.677-0.099,7.362,0.102,11.029
		c0.302,5.5-3.734,7.794-7.58,7.284c-2.132-0.283-4.285-0.569-6.354-1.131c-2.3-0.625-3.62-2.353-3.811-4.722
		c-0.114-1.415-0.055-2.898,0.239-4.284c1.105-5.206,1.299-10.411,0.835-15.721c-0.438-5.004-0.4-10.051-0.549-15.08
		C109.11,314.577,109.145,313.143,109.145,311.52z M109.057,247.758c0-2.408-0.304-4.524,0.067-6.513
		c0.661-3.546,0.795-7.121,1.175-10.683c0.448-4.198-0.24-8.281-0.902-12.366c-0.335-2.07-2.35-3.589-4.439-3.76
		c-1.388-0.114-2.349,0.551-2.524,1.968c-0.135,1.1-0.039,2.231-0.022,3.348c0.041,2.786,0.213,5.576,0.121,8.358
		c-0.182,5.502-0.519,10.999-0.759,16.5c-0.04,0.919,0.085,1.845,0.134,2.761C104.482,247.51,106.758,247.633,109.057,247.758z
		 M109.502,294.753c0-2.576,0.042-5.107-0.014-7.635c-0.039-1.748-0.198-3.494-0.33-5.239c-0.252-3.332-0.716-6.632-0.281-10.015
		c0.345-2.677,0.196-5.419,0.236-8.132c0.015-1.016-0.25-2.105-1.387-2.21c-1.932-0.178-3.912-0.399-5.731,0.157
		c0.075,11.057,0.15,21.94,0.225,33.074C104.762,294.753,106.956,294.753,109.502,294.753z"/>
	<path fill="#FFDB00" d="M70.117,178.133c-0.384-4.933-0.881-9.861-1.116-14.802c-0.179-3.741-0.354-7.534,0.047-11.241
		c0.947-8.738,2.28-17.452,1.536-26.266c-0.563-6.666,0.398-13.226,0.834-19.832c0.188-2.847-0.058-5.759-0.429-8.599
		c-0.654-5.006-1.138-9.997-0.696-15.049c0.09-1.028,0.004-2.078-0.079-3.112c-0.102-1.272-0.806-2.077-2.096-2.236
		c-0.781-0.096-1.581-0.143-2.366-0.096c-5.018,0.303-10.028,1.027-15.061,0.215c-0.864-0.139-1.74-0.234-2.589-0.44
		c-3.735-0.906-4.386-1.66-4.837-5.484c-0.028-0.238-0.02-0.485-0.08-0.714c-1.253-4.832,1.385-7.617,5.823-8.742
		c3.434-0.87,6.939-0.977,10.469-0.88c6.309,0.173,12.621,0.323,18.932,0.365c6.636,0.045,13.273-0.017,19.909-0.096
		c2.554-0.03,5.105-0.256,7.658-0.357c1.117-0.044,2.244-0.068,3.356,0.025c2.516,0.211,4.405,1.393,5.317,3.829
		c1.689,4.513,0.826,8.621-3.696,11.055c-2.892,1.557-6.038,2.134-9.227,2.268c-2.773,0.116-5.565-0.209-8.349-0.339
		c-0.718-0.034-1.438-0.107-2.155-0.094c-2.458,0.045-3.324,1.038-2.907,3.461c0.876,5.083,0.69,10.191,0.531,15.309
		c-0.178,5.746-0.285,11.495-0.357,17.243c-0.019,1.511,0.314,3.027,0.297,4.538c-0.035,3.111-0.28,6.22-0.289,9.331
		c-0.014,4.391-0.058,8.793,0.224,13.17c0.224,3.493-0.543,6.827-0.955,10.224c-0.115,0.949-0.368,1.922-0.264,2.851
		c0.589,5.275-0.197,10.534-0.086,15.8c0.04,1.914,0.24,3.824,0.34,5.737c0.028,0.545-0.048,1.095-0.059,1.643
		c-0.023,1.1-0.189,2.224-0.02,3.295c0.497,3.158,0.272,6.166-1.025,9.142c-0.832,1.909-2.145,3.205-4.012,3.864
		c-4.249,1.5-8.034,0.421-11.349-2.449c-1.209-1.047-1.608-2.545-1.614-4.124c-0.01-2.798-0.003-5.596-0.003-8.394
		C69.822,178.147,69.969,178.14,70.117,178.133z"/>
	<path fill="#FFDB00" d="M174.528,237.107c5.654-0.375,11.315-0.663,16.957-1.169c2.287-0.205,4.548-0.818,6.788-1.376
		c2.359-0.587,3.857-2.154,4.553-4.49c1.175-3.943,1.415-7.801-0.48-11.662c-0.985-2.007-2.338-3.531-4.449-4.044
		c-3.165-0.769-6.377-1.46-9.61-1.813c-3.897-0.426-7.856-0.32-11.694,0.539c-6.886,1.541-13.494,0.317-20.041-1.692
		c-2.739-0.84-4.786-2.462-5.447-5.492c-0.833-3.818,1.42-7.44,5.182-8.441c2.429-0.646,4.813-0.245,7.126,0.193
		c3.553,0.673,7.016,0.242,10.481-0.269c7.99-1.178,15.959-1.086,23.811,0.716c6.654,1.528,12.318,4.833,16.046,10.821
		c2.068,3.321,3.122,6.99,3.33,10.879c0.235,4.383,0.456,8.784-0.514,13.112c-1.945,8.68-7.363,14.17-15.816,16.605
		c-2.113,0.609-4.422,0.739-6.641,0.739c-5.592,0.001-11.183-0.206-16.775-0.311c-1.358-0.025-2.721-0.02-4.077,0.053
		c-0.789,0.043-1.597,0.162-2.346,0.403c-1.031,0.332-1.436,1.18-1.493,2.233c-0.057,1.057,0.512,1.715,1.433,1.944
		c1.696,0.422,3.413,0.91,5.143,1.015c4.463,0.269,8.941,0.269,13.405,0.517c4.118,0.229,8.098-0.717,12.137-1.162
		c4.047-0.446,8.072-0.929,12.013-2.062c1.126-0.323,2.782-0.307,3.655,0.314c1.73,1.23,3.367,2.905,3.586,5.179
		c0.172,1.789-0.056,3.652-0.357,5.44c-0.249,1.481-1.332,2.331-2.906,2.35c-4.468,0.055-8.936,0.149-13.404,0.126
		c-5.357-0.028-10.713-0.146-16.069-0.253c-3.434-0.069-6.867-0.255-10.3-0.262c-2.712-0.006-5.425,0.275-8.136,0.257
		c-3.271-0.021-6.552-0.102-9.804-0.416c-1.093-0.106-2.369-0.773-3.102-1.593c-1.143-1.278-2.237-2.798-2.743-4.407
		c-1.287-4.088-1.449-8.299-0.526-12.537c1.248-5.732,4.955-8.815,10.559-9.629c3.465-0.504,6.99-0.591,10.488-0.865
		C174.503,236.768,174.516,236.937,174.528,237.107z"/>
	<path fill="#FFDB00" d="M43.467,108.976c-0.101-1.975-0.419-5.405-0.397-8.832c0.013-2.042,0.415-4.116,0.914-6.108
		c0.391-1.56,1.603-2.575,3.261-2.824c1.734-0.261,3.477-0.591,5.222-0.625c4.788-0.093,7.627,2.867,7.012,7.574
		c-0.496,3.798,0.055,7.489,0.444,11.211c0.717,6.855,0.598,13.715,0.435,20.592c-0.143,5.982-0.104,11.979,0.136,17.958
		c0.227,5.671,0.393,11.306-0.218,16.975c-0.598,5.549-1.157,11.127-0.293,16.73c0.241,1.564,0.193,3.2,0.069,4.787
		c-0.277,3.548-1.937,5.528-5.385,6.479c-2.508,0.692-5.048,0.704-7.56-0.056c-2.422-0.733-3.958-2.372-4.607-4.778
		c-0.33-1.225-0.52-2.503-0.624-3.77c-0.316-3.818-0.749-7.641-0.764-11.464c-0.011-2.687,0.628-5.372,0.897-8.065
		c0.158-1.58,0.442-3.223,0.183-4.756c-0.77-4.553-0.331-9.098-0.186-13.641c0.183-5.747,0.553-11.487,0.781-17.233
		C43.034,122.901,43.211,116.67,43.467,108.976z"/>
	<path fill="#FFDB00" d="M105.256,193.25c-0.819-0.052-1.384-0.045-1.935-0.13c-5.192-0.801-6.774-3.074-6.073-8.286
		c0.296-2.203,0.29-4.461,0.249-6.691c-0.101-5.51-0.474-11.019-0.427-16.526c0.096-11.112,0.422-22.222,0.611-33.333
		c0.15-8.87,0.261-17.742,0.331-26.613c0.014-1.751-0.361-3.505-0.339-5.255c0.05-3.952,2.065-6.009,6.008-6.32
		c2.122-0.167,4.152,0.27,6.061,1.142c2.827,1.291,3.959,3.557,3.489,6.641c-0.276,1.811-0.728,3.632-0.71,5.444
		c0.035,3.349,0.455,6.693,0.538,10.044c0.125,5.032,0.213,10.071,0.109,15.102c-0.159,7.667-0.717,15.331,0.107,22.995
		c0.128,1.188,0.109,2.399,0.061,3.596c-0.152,3.771,0.317,7.481,0.774,11.216c0.387,3.16,0.356,6.386,0.306,9.579
		c-0.061,3.909-0.177,7.831-0.566,11.718c-0.325,3.248-1.902,4.643-5.057,5.165C107.537,192.946,106.27,193.105,105.256,193.25z"/>
	<path fill="#FFDB00" d="M68.29,33.23c1.986,0.186,4.364,0.492,6.751,0.617c7.602,0.398,15.17-0.301,22.754-0.672
		c4.531-0.221,9.096,0.066,13.634,0.33c1.198,0.07,2.414,0.788,3.511,1.405c1.173,0.659,1.766,1.807,1.872,3.176
		c0.315,4.08-1.239,7.526-3.783,10.544c-0.616,0.731-1.718,1.184-2.683,1.465c-2.557,0.745-5.108,0.902-7.785,0.183
		c-3.507-0.942-7.137-0.654-10.728-0.324c-2.621,0.241-5.237,0.609-7.863,0.723c-4.47,0.194-8.946,0.299-13.42,0.317
		c-4.234,0.016-8.481-0.354-12.7-0.133c-3.5,0.184-6.827-0.413-10.184-1.107c-1.709-0.353-3.102-1.249-4.171-2.627
		c-2.873-3.704-1.845-8.569,2.409-11.07c0.945-0.556,2.043-0.973,3.121-1.155c2.517-0.425,5.058-0.734,7.601-0.966
		c1.908-0.174,3.836-0.124,5.751-0.235C64.211,33.598,66.04,33.414,68.29,33.23z"/>
	<path fill="#DB2426" d="M63.854,225.413c-0.108,4.626-0.23,9.252-0.316,13.878c-0.04,2.146-0.018,4.294-0.003,6.44
		c0.009,1.197-0.583,1.738-1.75,1.785c-0.475,0.019-0.942,0.199-1.417,0.23c-3.549,0.234-5.038-1.223-4.987-4.207
		c0.022-1.271,0.325-2.539,0.33-3.809c0.01-2.714,0.013-5.435-0.172-8.141c-0.318-4.653-0.042-9.262,0.826-13.828
		c0.218-1.149,0.733-2.297,1.348-3.3c0.875-1.428,2.532-1.525,3.627-0.255c0.558,0.647,0.944,1.477,1.275,2.279
		C63.797,219.345,64.13,222.346,63.854,225.413z"/>
	<path fill="#DB2426" d="M57.114,285.094c-0.375-4.126-0.889-8.246-1.081-12.381c-0.154-3.333,0.064-6.684,0.157-10.026
		c0.024-0.869,0.678-1.287,1.455-1.3c1.434-0.024,2.882-0.031,4.302,0.139c1.295,0.156,1.901,1.134,1.938,2.377
		c0.04,1.356,0.028,2.72-0.078,4.072c-0.367,4.704-0.516,9.389-0.01,14.109c0.331,3.088,0.211,6.228,0.214,9.345
		c0.001,1.305-0.252,2.657-1.691,3.158c-1.537,0.536-3.204,0.681-4.627-0.2c-0.531-0.329-0.849-1.348-0.881-2.069
		c-0.107-2.393-0.041-4.794-0.041-7.192C56.886,285.115,57,285.104,57.114,285.094z"/>
	<path fill="#DB2426" d="M109.057,247.758c-2.299-0.125-4.575-0.248-7.149-0.387c-0.049-0.916-0.174-1.842-0.134-2.761
		c0.24-5.5,0.577-10.997,0.759-16.5c0.092-2.782-0.079-5.572-0.121-8.358c-0.017-1.117-0.113-2.248,0.022-3.348
		c0.174-1.417,1.136-2.082,2.524-1.968c2.089,0.171,4.104,1.69,4.439,3.76c0.662,4.085,1.35,8.168,0.902,12.366
		c-0.38,3.562-0.514,7.136-1.175,10.683C108.753,243.234,109.057,245.35,109.057,247.758z"/>
	<path fill="#DB2426" d="M109.502,294.753c-2.547,0-4.741,0-7.282,0c-0.076-11.133-0.15-22.016-0.225-33.074
		c1.819-0.557,3.799-0.336,5.731-0.157c1.137,0.105,1.402,1.193,1.387,2.21c-0.039,2.713,0.109,5.455-0.236,8.132
		c-0.436,3.383,0.029,6.683,0.281,10.015c0.132,1.745,0.291,3.491,0.33,5.239C109.544,289.646,109.502,292.177,109.502,294.753z"/>
</g>
</svg>
