<?xml version="1.0" encoding="utf-8"?>
<!-- Generator: Adobe Illustrator 20.1.0, SVG Export Plug-In . SVG Version: 6.00 Build 0)  -->
<svg version="1.1" id="Logo" xmlns="http://www.w3.org/2000/svg" xmlns:xlink="http://www.w3.org/1999/xlink" x="0px" y="0px"
	 viewBox="0 0 250 67" style="enable-background:new 0 0 250 67;" xml:space="preserve">
<style type="text/css">
	.st0{fill:#002567;}
</style>
<g>
	<path class="st0" d="M188.6,56.3l3.1-0.1c0.1,0.3,0.5,0.6,1,0.8c0.5,0.2,1.4,0.4,2.5,0.5c1.1,0.1,2.4,0.2,3.9,0.2
		c1.3,0,2.4,0,3.4-0.1c1-0.1,1.7-0.2,2.2-0.4c0.5-0.2,0.7-0.4,0.7-0.6c0-0.2-0.2-0.4-0.7-0.5c-0.5-0.2-1.2-0.3-2.3-0.4
		c-0.7-0.1-2.2-0.2-4.5-0.3c-2.3-0.1-3.9-0.3-4.9-0.4c-1.2-0.2-2.1-0.4-2.7-0.6c-0.6-0.2-0.9-0.5-0.9-0.8c0-0.3,0.4-0.6,1.1-0.9
		c0.7-0.3,1.8-0.5,3.2-0.7c1.4-0.1,2.9-0.2,4.6-0.2c1.9,0,3.5,0.1,4.9,0.2c1.4,0.2,2.5,0.4,3.3,0.7c0.8,0.3,1.2,0.6,1.2,1l-3.2,0.1
		c-0.2-0.4-0.8-0.7-1.7-0.9c-1-0.2-2.4-0.3-4.4-0.3c-2,0-3.5,0.1-4.4,0.3c-0.9,0.2-1.4,0.4-1.4,0.7c0,0.2,0.3,0.4,1,0.6
		c0.6,0.2,2.3,0.3,5,0.5c2.7,0.2,4.6,0.3,5.6,0.4c1.5,0.2,2.5,0.4,3.2,0.7c0.7,0.3,1,0.6,1,0.9c0,0.3-0.4,0.7-1.1,1
		c-0.8,0.3-1.9,0.5-3.3,0.7c-1.4,0.2-3,0.3-4.8,0.3c-2.3,0-4.2-0.1-5.7-0.3c-1.5-0.2-2.7-0.4-3.6-0.8
		C189.1,57.1,188.6,56.7,188.6,56.3 M165.1,58.4v-6.5h18.2v0.8h-14.8v2h13.9v0.8h-13.9v2.2h15.4v0.8H165.1z M138.3,58.4v-6.5h3.4
		l13.2,5.1v-5.1h3.2v6.5h-3.4l-13.2-5.1v5.1H138.3z M127.9,58.4v-6.5h3.3v6.5H127.9z M106.4,58.4v-6.5h3.3v5.8h12.4v0.8H106.4z
		 M83.3,54.7h7.2c1.5,0,2.7,0,3.6-0.1c0.9-0.1,1.5-0.2,2-0.4c0.4-0.2,0.7-0.4,0.7-0.6c0-0.3-0.4-0.6-1.3-0.8
		c-0.9-0.2-2.2-0.3-4.1-0.3h-8V54.7z M80,58.4v-6.5h11.1c2.2,0,3.9,0.1,5.1,0.2c1.2,0.1,2.1,0.3,2.8,0.6c0.7,0.3,1,0.6,1,1
		c0,0.5-0.6,0.9-1.7,1.2c-1.2,0.3-2.9,0.5-5.3,0.6c0.9,0.1,1.6,0.2,2,0.3c1,0.2,1.9,0.5,2.8,0.9l4.4,1.8h-4.2L94.6,57
		c-1-0.4-1.8-0.7-2.4-0.9c-0.6-0.2-1.2-0.4-1.7-0.4c-0.5-0.1-1-0.1-1.5-0.2c-0.4,0-1,0-1.9,0h-3.9v2.9H80z M69.5,58.4v-6.5h3.3v6.5
		H69.5z M48.7,55.7h8.5l-2.6-1.8c-0.8-0.5-1.4-1-1.8-1.4c-0.3,0.4-0.8,0.8-1.4,1.2L48.7,55.7z M41.4,58.4l9.7-6.5h3.6L65,58.4h-3.8
		l-2.9-2H47.7l-2.8,2H41.4z"/>
	<g>
		<g>
			<g>
				<path class="st0" d="M2.9,39.1l0.2-0.9c3.2,0,4.1-1,4.9-4.1l5.8-21.7c0.8-3,0.6-4.4-3-4.6L11,6.9h12.5c4.9,0,9.7,1.4,9.7,7.2
					c0,7-6.9,9.6-12.8,9.6c-1,0-4.1-0.3-4.8,0.1c-0.1,0.1-0.2,0.2-0.2,0.4l-2.8,10.5c-0.7,3,1.3,3.4,4,3.4l-0.2,0.9H2.9z M16.1,21.1
					c-0.3,1.5,1.2,1.3,2.3,1.3c5.4,0,9.6-2.6,9.6-8.4c0-4-2.3-5.6-6.1-5.6c-2.1,0-2.6,0.8-3.1,2.8L16.1,21.1z"/>
				<path class="st0" d="M180.9,19c-6.1,0-10.2,10.4-10.2,14.6c0,1.2,0.9,2.9,2.5,2.9c4,0,8.1-7.5,9.2-10.2
					C183.2,24.4,185,19,180.9,19 M188.7,34.3c-1.4,1.7-4.1,4.9-6.9,4.9c-4.1,0-0.8-6.9-0.3-8.4c-2.1,3.1-5.8,8.4-10.6,8.4
					c-5.9,0-4.2-7.6-3-10.6c1.9-4.6,7.1-11.2,13-10.8c1.8,0,3.3,0.7,3.7,2.3l0.6-1.9h3.8c-1.7,5.4-3.8,10.9-5.1,16.3
					c-0.1,0.4-0.4,1.2,0.1,1.6c1.6,1.2,4.9-3.6,5-4.4L188.7,34.3z"/>
				<path class="st0" d="M41,19c-6.1,0-10.2,10.4-10.2,14.6c0,1.2,0.9,2.9,2.5,2.9c4,0,8.1-7.5,9.2-10.2C43.3,24.4,45.1,19,41,19
					 M48.7,34.3c-1.4,1.7-4.1,4.9-6.9,4.9c-4.1,0-0.8-6.9-0.3-8.4c-2.1,3.1-5.8,8.4-10.6,8.4c-5.9,0-4.2-7.6-3-10.6
					c1.9-4.6,7.1-11.2,13-10.8c1.8,0,3.3,0.7,3.7,2.3l0.6-1.9h3.8c-1.7,5.4-3.8,10.9-5.1,16.3c-0.1,0.4-0.4,1.2,0.1,1.6
					c1.6,1.2,4.9-3.7,5-4.4L48.7,34.3z"/>
				<path class="st0" d="M228.5,19c-6.1,0-10.2,10.4-10.2,14.6c0,1.2,0.9,2.9,2.5,2.9c4,0,8.1-7.5,9.2-10.2
					C230.9,24.5,232.6,19,228.5,19 M236.3,34.3c-1.4,1.7-4.1,4.9-6.9,4.9c-4.1,0-0.8-6.9-0.3-8.4c-2.1,3.1-5.8,8.4-10.6,8.4
					c-5.9,0-4.2-7.6-3-10.6c1.9-4.6,7.1-11.2,13-10.8c1.8,0,3.3,0.7,3.7,2.3l0.6-1.9h3.8c-1.7,5.4-3.8,10.9-5.1,16.3
					c-0.1,0.4-0.4,1.2,0.1,1.6c1.6,1.2,4.9-3.7,5-4.4L236.3,34.3z"/>
				<path class="st0" d="M206.7,18.7L206.7,18.7c3.4-0.7,5.9-3.7,7.6-6.5h1l-1.7,5.9h3.8l-0.3,1.5h-3.8c-1.3,4.9-2.9,9.9-3.9,14.8
					c-0.4,1.9,0.6,2.6,2.1,1.1c0.6-0.5,2.3-2.8,3.1-4l-0.2,2c-1.6,2.2-3.9,5.4-7,5.4c-2.7,0-2.3-2.8-1.8-4.6l3.9-14.7h-3.1l0,0
					l-0.5,0L206.7,18.7z"/>
				<path class="st0" d="M206,19.7l-0.9,4.7h-0.9c-0.3-2.6-1.3-5.7-4.9-5.7c-0.8,0-1.5,0.2-2.1,0.8c-2.5,2.1,1,5.7,2.6,7.6
					c2.8,3.2,4.8,7,1,10.3c-2.4,2.1-5.8,2.2-8.8,1.4c-0.8-0.2-2.7-1-3.1,0.2h-1l0.7-4.8l0.4-2.6l0.9,0c0.1,2.7,1.2,6.4,5,6.4
					c1.2,0,2.2-0.4,2.9-1.1c2.8-2.7,0.1-6-1.9-8.3c-2.4-2.8-5.1-6.6-1.6-9.7c3.9-3.3,8.2-0.3,12.4-0.2L206,19.7z"/>
				<path class="st0" d="M236.6,31.9l5.7-21.1c0.6-2.3-0.2-2.9-2.7-3l0.1-0.8c2-0.2,4-0.5,6-0.9c1.2-0.2,1.6-0.2,1.3,1.1L239.9,33
					c-0.2,0.7-1.1,3.3,0.3,3.3c1.4,0,2.9-2.3,3.6-3.2l0.7,0.7c-1.3,1.9-4.2,5.3-6.8,5.3c-2.7,0-2.4-2.8-1.8-5L236.6,31.9z"/>
				<path class="st0" d="M159.3,18.6c-7.5,0-13.8,19.3-5.6,19.3C161.3,37.9,167.4,18.6,159.3,18.6 M145.9,31.8l0-0.3
					c-3.9,4.6-7.4,7.9-13.8,7.9c-7.8,0-12.9-4.9-12.9-12.7c0-11.6,12.8-22.7,24.4-19.2c1.6,0.5,3.2,1.5,4.2-0.4h0.9l-1.8,9.3h-0.9
					c0-4.6-1.1-8.1-6.5-8.1c-6.4,0-11.6,6-13.7,11.6c-2.4,6.7-1.8,17.6,7.6,17.6c5.3,0,10.3-4,12.9-8.4c1.4-5.7,7.3-11.7,13.4-11.7
					c4.5,0,7.5,2.9,7.5,7.4c0,6.9-6.9,14.4-13.9,14.4C148.8,39.2,145.9,36.2,145.9,31.8z"/>
				<path class="st0" d="M111.5,33.8c-2.4,2.7-5.6,5.3-9.4,5.3c-3.5,0-5.9-2-6.6-5.3C94,36,91,39.1,88.1,39.1c-3.4,0-2-4.5-1.4-6.3
					l2.9-10.3c0.2-0.9,0.7-2.3-0.5-2.8h-5.2L82,28.6c-1.5,7.4-3,12.7-4.6,15.8c-1.5,3.1-3.4,4.6-5.5,4.6c-3.4,0-3.9-4.5-1.2-4.5
					c2.9,0,0.3,3.2,1.7,3.2c2.6,0,3.4-5.7,3.7-7.4L80,19.7h-2.4l0.4-1.5h2.2c0.8-2.1,1.5-5,3.2-7.8c2.7-4.3,6.9-7.7,11.5-3.6
					c1.2,1.1,2.2,3.3,0.8,4.7c-2.2,2.1-5.6-1.2-3.2-3.4c0.1-0.3-0.1-0.6-0.3-0.7c-5.4-3.8-7.1,5.8-8.2,10.8l5.3,0
					c2.2,0,2.7-0.3,4.1-0.6c1.3-0.3,1.3,0.1,1,1.2l-4.4,14.5c-0.1,0.4-0.6,1.6-0.1,2.8c1.4,1.6,4.4-2.5,4.9-3.1
					c0.5-2.4,0.4-2.4,0.7-3.7c1-6.2,6.7-11.8,13.2-11.8c2.1,0,4.6,1,4.6,3.4c0,4.3-6.2,2.6-3.7-0.6c0.9-1.2,0.4-1.5-1-1.5
					c-8.6,0-13.3,18.4-5,18.4c2.9,0,5.3-2,7.1-4L111.5,33.8z"/>
				<path class="st0" d="M72,9.9c0-3,4.6-3.1,4.6,0C76.6,13,72,12.9,72,9.9"/>
				<path class="st0" d="M67.2,19.4l0.2-0.8c2.1-0.2,4.2-0.6,6.2-1c1.3-0.3,1.3,0.1,1,1.2l-4.3,14.5c-0.2,0.8-0.6,2.1-0.1,2.8
					c1.1,1.6,4.1-2.5,4.5-3.1l0.7,0.7c-1.5,2.2-4.2,5.5-7.1,5.5c-3.4,0-2-4.5-1.4-6.3l2.9-10.3C70.6,20.1,69.8,19.4,67.2,19.4"/>
				<path class="st0" d="M48.5,31.5c-0.1-6.9,6.3-14.1,13.3-14.1c2,0,4.5,1,4.5,3.4c0,4.3-6.1,2.6-3.6-0.6c0.9-1.2,0.4-1.5-1-1.5
					c-8.4,0-13.1,18.4-4.9,18.4c2.8,0,5.2-2,7-4l0.7,0.8c-2.4,2.7-5.5,5.3-9.3,5.3c-3.9,0-6.2-2.5-6.6-6.3L48.5,31.5z"/>
			</g>
		</g>
	</g>
	<g>
		<g>
			<g>
				<path class="st0" d="M217.6,58.9c0,1.7-1.4,3.1-3.1,3.1c-1.7,0-3.1-1.4-3.1-3.1c0-1.7,1.4-3.1,3.1-3.1
					C216.3,55.8,217.6,57.2,217.6,58.9z M214.5,56.1c-1.5,0-2.8,1.2-2.8,2.8c0,1.5,1.2,2.8,2.8,2.8c1.5,0,2.8-1.2,2.8-2.8
					C217.3,57.4,216.1,56.1,214.5,56.1z"/>
			</g>
		</g>
		<g>
			<path class="st0" d="M213.4,60.6v-3.6h1.3c0.3,0,0.5,0,0.6,0.1c0.1,0.1,0.2,0.2,0.3,0.3c0.1,0.2,0.1,0.3,0.1,0.5
				c0,0.3-0.1,0.5-0.2,0.7c-0.1,0.2-0.3,0.3-0.6,0.3c0.1,0.1,0.2,0.1,0.2,0.2c0.1,0.1,0.2,0.3,0.3,0.5l0.5,1h-0.5l-0.4-0.7
				c-0.2-0.3-0.3-0.5-0.3-0.6c-0.1-0.1-0.2-0.2-0.2-0.2c-0.1,0-0.2-0.1-0.3-0.1h-0.4v1.6H213.4z M213.8,58.6h0.8
				c0.2,0,0.3,0,0.4-0.1c0.1,0,0.2-0.1,0.2-0.2c0.1-0.1,0.1-0.2,0.1-0.3c0-0.2-0.1-0.3-0.2-0.4c-0.1-0.1-0.3-0.2-0.5-0.2h-0.9V58.6z
				"/>
		</g>
	</g>
</g>
</svg>
