<?xml version="1.0" encoding="utf-8"?>
<!-- Generator: Adobe Illustrator 22.1.0, SVG Export Plug-In . SVG Version: 6.00 Build 0)  -->
<svg version="1.1" id="Слой_1" xmlns="http://www.w3.org/2000/svg" xmlns:xlink="http://www.w3.org/1999/xlink" x="0px" y="0px"
	 width="99px" height="23px" viewBox="0 0 99 23" style="enable-background:new 0 0 99 23;" xml:space="preserve">
<style type="text/css">
	.st0{fill-rule:evenodd;clip-rule:evenodd;fill:#392D85;}
	.st1{fill-rule:evenodd;clip-rule:evenodd;fill:#E30613;}
	.st2{fill-rule:evenodd;clip-rule:evenodd;fill:#312783;}
	.st3{fill-rule:evenodd;clip-rule:evenodd;fill:#B2B2B2;}
</style>
<g>
	<path class="st0" d="M21.5,19.8c2.1-2.1,3.2-4.6,3.2-7.6c0-3-1.1-5.5-3.2-7.6c-2.1-2.1-4.7-3.2-7.7-3.2c-3,0-5.6,1.1-7.8,3.2
		c-2.2,2.1-3.2,4.6-3.2,7.6c0,3,1.1,5.5,3.2,7.6c2.2,2.1,4.7,3.2,7.8,3.2C16.8,23,19.4,21.9,21.5,19.8L21.5,19.8z M20.9,5.3
		c2,1.9,3,4.3,3,7c0,2.7-1,5-3,7c-2,1.9-4.3,2.9-7.1,2.9c-2.8,0-5.1-1-7.1-2.9c-1.9-1.9-2.9-4.2-2.9-7c0-2.7,1-5.1,2.9-7
		c2-1.9,4.3-2.9,7.1-2.9C16.6,2.4,19,3.4,20.9,5.3L20.9,5.3z"/>
	<polygon class="st1" points="9.1,12.7 0,13.7 20.7,13.7 8.8,0 3.7,0 9.1,12.7 	"/>
	<path class="st2" d="M43.4,6.7c-1.1-0.8-2.6-1.2-4.5-1.2c-2.1,0-3.9,0.7-5.5,2c-1.7,1.4-2.5,3.1-2.5,5c0,1.6,0.6,2.9,1.9,3.9
		c1.2,0.9,2.6,1.4,4.2,1.4c2.1,0,4-0.7,5.7-2.2c1.7-1.5,2.5-3.2,2.5-5.2C45.1,8.7,44.5,7.5,43.4,6.7L43.4,6.7z M38.9,6.9
		c2.7,0,4,1.1,4,3.4c0,1.6-0.6,3-1.8,4.2c-1.2,1.2-2.6,1.7-4.1,1.7c-2.5,0-3.8-1.3-3.8-3.8c0-1.5,0.5-2.8,1.6-3.9
		C35.9,7.4,37.2,6.9,38.9,6.9L38.9,6.9z"/>
	<path class="st2" d="M52.9,8.2c-1.6,0-2.8,0.3-3.4,0.9l0.2-0.9l-2.4,0.3l-2.4,8.1h2.4l1.8-6.2c1-0.6,2.1-0.9,3.2-0.9
		c0.4,0,0.7,0.1,1,0.3c0.3,0.2,0.4,0.4,0.4,0.6c0,1-0.5,3-1.6,6.2l2.3,0c1.1-3.4,1.7-5.5,1.7-6.5C56.2,8.9,55.1,8.2,52.9,8.2
		L52.9,8.2z"/>
	<path class="st2" d="M68.4,8.4H66c-1.1,3.9-1.7,5.9-1.9,6.1c-0.7,0.7-1.7,1.1-2.9,1c-1.2-0.1-1.7-0.5-1.7-1.2
		c0-0.5,0.3-1.6,0.9-3.3l0.9-2.5h-2.3c-0.1,0.1-0.5,1.1-1,2.9c-0.5,1.8-0.8,2.9-0.8,3.3c0,1.4,1.1,2.1,3.2,2.1c1.5,0,2.7-0.3,3.6-1
		l-0.3,0.9h2.3L68.4,8.4L68.4,8.4z"/>
	<path class="st2" d="M72.4,9.5l0.4-1.3l-2.5,0.4l-2.4,8h2.4c0.2-0.8,0.6-2.3,1.4-4.5c0.5-1.3,1.2-2,2.2-2.2c0.5-0.1,1,0,1.4,0.2
		l1-1.7c-0.2-0.1-0.6-0.2-1.2-0.2c-0.4,0-1,0.2-1.7,0.6L72.4,9.5L72.4,9.5z"/>
	<path class="st3" d="M95.5,8.2L93,8.6l-2.4,8H93c0.1-0.8,0.6-2.3,1.4-4.5c0.5-1.3,1.2-2,2.2-2.2l1.4,0.2L99,8.4
		c-0.2-0.1-0.6-0.2-1.2-0.2c-0.4,0-1,0.2-1.7,0.6l-0.9,0.6L95.5,8.2L95.5,8.2z"/>
	<path class="st3" d="M86.7,8.4c-2.2-0.1-3.7-0.1-4.4,0c-1.5,0.1-2.8,0.4-3.8,0.8c-2.3,0.9-3.4,2.3-3.4,4.2c0,0.9,0.3,1.6,1,2.2
		c0.8,0.7,1.8,1.1,3.1,1.1c1.1,0,2.1-0.3,3.1-0.9l-0.1,0.7l2.1,0L86.7,8.4L86.7,8.4z M81.8,9.6h2.4l-1.6,5.2
		c-0.8,0.4-1.7,0.6-2.5,0.6c-1.7,0.1-2.5-0.5-2.5-2c0-1.3,0.7-2.3,2-3C80.5,9.9,81.2,9.6,81.8,9.6L81.8,9.6z"/>
	<polygon class="st3" points="88,10.4 86.2,16.6 88.7,16.6 90.6,10.2 88,10.4 	"/>
	<path class="st3" d="M88.5,7.5c0,0.9,0.5,1.4,1.5,1.4c1,0,1.5-0.5,1.5-1.4C91.4,6.5,91,6,90,6C89,6,88.5,6.5,88.5,7.5L88.5,7.5z"/>
</g>
</svg>
