<?xml version="1.0" encoding="utf-8"?>
<!-- Generator: Adobe Illustrator 22.1.0, SVG Export Plug-In . SVG Version: 6.00 Build 0)  -->
<svg version="1.1"
	 id="svg7188" inkscape:version="0.48.2 r9819" sodipodi:docname="Aegean_Airlines_logo (1).svg" xmlns:cc="http://creativecommons.org/ns#" xmlns:dc="http://purl.org/dc/elements/1.1/" xmlns:inkscape="http://www.inkscape.org/namespaces/inkscape" xmlns:rdf="http://www.w3.org/1999/02/22-rdf-syntax-ns#" xmlns:sodipodi="http://sodipodi.sourceforge.net/DTD/sodipodi-0.dtd" xmlns:svg="http://www.w3.org/2000/svg"
	 xmlns="http://www.w3.org/2000/svg" xmlns:xlink="http://www.w3.org/1999/xlink" x="0px" y="0px" width="150.6px" height="23px"
	 viewBox="0 0 150.6 23" style="enable-background:new 0 0 150.6 23;" xml:space="preserve">
<style type="text/css">
	.st0{fill:#002D62;}
</style>
<sodipodi:namedview  bordercolor="#666666" borderopacity="1.0" fit-margin-bottom="0" fit-margin-left="0" fit-margin-right="0" fit-margin-top="0" id="base" inkscape:current-layer="layer1" inkscape:cx="102.04213" inkscape:cy="62.882016" inkscape:document-units="px" inkscape:pageopacity="0.0" inkscape:pageshadow="2" inkscape:window-height="738" inkscape:window-maximized="1" inkscape:window-width="1280" inkscape:window-x="-8" inkscape:window-y="-8" inkscape:zoom="2.8284271" pagecolor="#ffffff" showgrid="false">
	</sodipodi:namedview>
<g>
	<g id="g7388" transform="translate(355.7891,105.3516)">
		<path id="path7390" inkscape:connector-curvature="0" class="st0" d="M-319.7-93.3c-1.3,0.3-7,3-9.4,4.2c0,0-1.3,0.3-1.4,0.3
			c-0.7-0.2-10.2-3.3-15.2-1.7c-2.5,0.8-9.9,2.7-9.9,2.7c-0.8,0.2,0.4,0.3,0.8,0.3s1.6-0.2,3-0.5c2.9-0.6,4.5-0.7,6.1-0.8
			c2.9-0.2,7.3,0.3,10.8,2c0.3,0.1,0.4,0.3,0.4,0.5c0,0.5-0.8,1.3-1.1,1.5c0,0,1,0.1,1.7-0.1c0.2-0.1,0.5-0.1,0.9-0.1
			c0.5,0,1.1-0.1,2.2-0.3c2-0.4,2.9-0.9,3.9-1.4h0.1c0.6-0.3,6.2-2.6,6.2-2.6c3.3-1.4,4.7-0.1,8.7-0.5s7.1-1.6,9.5-1.8
			c0.5,0-0.6-0.3-0.9-0.4c-1.2-0.1-6.7,0-8.4-0.2C-315.6-92.7-318.4-93.6-319.7-93.3"/>
	</g>
	<g id="g7392" transform="translate(368.9258,96.9922)">
		<path id="path7394" inkscape:connector-curvature="0" class="st0" d="M-324.3-79.6c0,1.7-0.8,4.7-0.8,4.7c0,0.1-0.1,0.3-0.1,0.4
			s0,0.2,0.2,0.2h2c0.1,0,0.2,0,0.3-0.1c0,0,0.1-0.2,0.1-0.3c0,0,0.7-3.1,0.7-4.8c0-0.5,0-1.1-0.1-1.6c-0.7,0.1-1.5,0.3-2.3,0.4
			C-324.4-80.4-324.3-80-324.3-79.6"/>
	</g>
	<g id="g7396" transform="translate(371.4609,104.6582)">
		<path id="path7398" inkscape:connector-curvature="0" class="st0" d="M-325.2-92.2c-0.5-1.5-1.1-3-1.9-4.3c-1.1,0.1-2,0-2.8-0.1
			c-0.1,0-0.1,0-0.2,0c1,1.3,1.8,2.7,2.4,4.2c0.1,0,0.2,0,0.3,0C-327-92.2-326.2-92.2-325.2-92.2"/>
	</g>
	<g id="g7400" transform="translate(318.4727,96.9922)">
		<path id="path7402" inkscape:connector-curvature="0" class="st0" d="M-306.4-79.6c0,1.7,0.7,4.8,0.7,4.8c0,0.1,0.1,0.3,0.1,0.3
			c0,0.1,0.1,0.1,0.3,0.1h2c0.1,0,0.2-0.1,0.2-0.2s-0.1-0.3-0.1-0.4c0,0-0.7-2.9-0.8-4.6c-0.8-0.1-1.6-0.2-2.4-0.2L-306.4-79.6
			L-306.4-79.6z"/>
	</g>
	<g id="g7404" transform="translate(322.875,102.8242)">
		<path id="path7406" inkscape:connector-curvature="0" class="st0" d="M-307.9-89.2c0.4-1.7,1.1-3.2,2.1-4.6
			c-0.8,0.1-1.7,0.2-3,0.4c-0.7,1.3-1.2,2.7-1.5,4.2C-309.6-89.2-308.8-89.2-307.9-89.2"/>
	</g>
	<g id="g7408" transform="translate(330.6523,115.043)">
		<path id="path7410" inkscape:connector-curvature="0" class="st0" d="M-310.7-109.2c2.6-2.1,5.9-3.4,9.6-3.4
			c2.8,0,5.4,0.8,7.6,2.1c0.6-0.3,1.1-0.4,1.4-0.5c0.5-0.1,1.2,0,2.1,0.1c-3-2.5-6.9-4-11.1-4c-5.6,0-10.6,2.7-13.8,6.8
			c0.9-0.2,1.6-0.5,2.1-0.6C-312.2-109.1-311.5-109.2-310.7-109.2"/>
	</g>
	<g id="g7412" transform="translate(359.7246,116.8418)">
		<path id="path7414" inkscape:connector-curvature="0" class="st0" d="M-321.1-112.2c-1,0.2-5.6,2.4-7.4,3.3c0,0-1,0.2-1.1,0.2
			c-0.6-0.1-8.1-2.6-12.1-1.3c-2,0.6-7.9,2.2-7.9,2.2c-0.6,0.2,0.3,0.2,0.6,0.2c0.3,0,1.2-0.2,2.4-0.4c2.3-0.5,3.6-0.5,4.8-0.6
			c2.3-0.1,5.8,0.2,8.5,1.6c0.2,0.1,0.3,0.2,0.3,0.4c0,0.4-0.6,1-0.9,1.2c0,0,0.8,0,1.3-0.1c0.2-0.1,0.4-0.1,0.7-0.1
			c0.4,0,0.9-0.1,1.7-0.2c1.6-0.3,2.3-0.7,3.1-1.1h0.1c0.5-0.3,4.9-2.1,4.9-2.1c2.6-1.1,3.7,0,6.9-0.4c3.1-0.3,5.6-1.2,7.5-1.4
			c0.4,0-0.5-0.3-0.7-0.3c-0.9-0.1-5.3,0-6.7-0.2C-317.8-111.7-320-112.4-321.1-112.2"/>
	</g>
	<g id="g7416" transform="translate(401.5352,96.9453)">
		<path id="path7418" inkscape:connector-curvature="0" class="st0" d="M-336-79.5l-0.8-5.5c0-0.2-0.1-0.2-0.2,0l-2.2,5.2
			c-0.1,0.2,0,0.4,0.2,0.4L-336-79.5 M-330.4-74.8c0,0.2-0.1,0.4-0.3,0.4h-4c-0.2,0-0.4-0.2-0.4-0.4l-0.1-1.1c0-0.2-0.2-0.4-0.4-0.4
			h-4.3c-0.2,0-0.5,0.2-0.6,0.4l-0.5,1.1c-0.1,0.2-0.3,0.4-0.6,0.4h-4.3c-0.2,0-0.3-0.2-0.2-0.4l7.4-15.2c0.1-0.2,0.4-0.4,0.6-0.4
			h4.3c0.2,0,0.4,0.2,0.5,0.4L-330.4-74.8z"/>
	</g>
	<g id="g7420" transform="translate(434.9492,113.8066)">
		<path id="path7422" inkscape:connector-curvature="0" class="st0" d="M-347.9-107.2l-0.5,3.4c0,0.2-0.2,0.4-0.5,0.4h-6.6
			c-0.2,0-0.4,0.2-0.5,0.4l-0.2,1.4c0,0.2,0.1,0.4,0.3,0.4h5.7c0.2,0,0.4,0.2,0.3,0.4l-0.5,2.8c0,0.2-0.2,0.4-0.5,0.4h-5.7
			c-0.2,0-0.4,0.2-0.5,0.4l-0.3,1.8c0,0.2,0.1,0.4,0.3,0.4h7.1c0.2,0,0.4,0.2,0.3,0.4l-0.4,3c0,0.2-0.2,0.4-0.5,0.4h-12.1
			c-0.2,0-0.4-0.2-0.3-0.4l2.3-15.2c0-0.2,0.2-0.4,0.5-0.4L-347.9-107.2"/>
	</g>
	<g id="g7424" transform="translate(482.7285,113.8066)">
		<path id="path7426" inkscape:connector-curvature="0" class="st0" d="M-364.9-107.2l-0.5,3.4c0,0.2-0.2,0.4-0.5,0.4h-6.6
			c-0.2,0-0.4,0.2-0.5,0.4l-0.2,1.4c0,0.2,0.1,0.4,0.3,0.4h5.7c0.2,0,0.4,0.2,0.3,0.4l-0.4,2.8c0,0.2-0.2,0.4-0.5,0.4h-5.7
			c-0.2,0-0.4,0.2-0.4,0.4l-0.3,1.8c0,0.2,0.1,0.4,0.3,0.4h7.1c0.2,0,0.4,0.2,0.3,0.4l-0.4,3c0,0.2-0.2,0.4-0.5,0.4h-12.1
			c-0.2,0-0.4-0.2-0.3-0.4l2.3-15.2c0-0.2,0.2-0.4,0.5-0.4L-364.9-107.2"/>
	</g>
	<g id="g7428" transform="translate(496.7266,96.9453)">
		<path id="path7430" inkscape:connector-curvature="0" class="st0" d="M-369.9-79.5l-0.7-5.5c0-0.2-0.1-0.2-0.2,0l-2.2,5.2
			c-0.1,0.2,0,0.4,0.2,0.4L-369.9-79.5 M-364.4-74.8c0,0.2-0.1,0.4-0.3,0.4h-4c-0.2,0-0.4-0.2-0.4-0.4l-0.1-1.1
			c0-0.2-0.2-0.4-0.4-0.4h-4.3c-0.2,0-0.5,0.2-0.6,0.4l-0.5,1.1c-0.1,0.2-0.3,0.4-0.6,0.4h-4.3c-0.2,0-0.3-0.2-0.2-0.4l7.5-15.2
			c0.1-0.2,0.4-0.4,0.6-0.4h4.3c0.2,0,0.4,0.2,0.5,0.4L-364.4-74.8z"/>
	</g>
	<g id="g7432" transform="translate(533.6387,113.8066)">
		<path id="path7434" inkscape:connector-curvature="0" class="st0" d="M-383-107.2l-2.4,15.6c0,0.2-0.2,0.4-0.5,0.4h-3.9
			c-0.2,0-0.5-0.2-0.6-0.4l-3.5-7.5c-0.1-0.2-0.2-0.5-0.3-0.8l-0.2-1c0-0.2-0.1-0.3-0.1-0.2c0,0.1,0,0.4,0,0.6c0,0,0,0.4,0,0.6
			s-0.1,0.5-0.1,0.8l-1.1,7.4c0,0.2-0.2,0.4-0.5,0.4h-4c-0.2,0-0.4-0.2-0.3-0.4l2.3-15.2c0-0.2,0.2-0.4,0.5-0.4h3.9
			c0.2,0,0.5,0.2,0.6,0.4l3.4,7.4c0.1,0.2,0.2,0.5,0.3,0.8l0.2,1.1c0,0.2,0.1,0.2,0.1,0l0.1-1.2c0-0.2,0.1-0.6,0.1-0.8l1.1-7.3
			c0-0.2,0.2-0.4,0.5-0.4L-383-107.2"/>
	</g>
	<g id="g7436" transform="translate(453.1523,102.9141)">
		<path id="path7438" inkscape:connector-curvature="0" class="st0" d="M-354.4-89.4c-0.2,0-0.4,0-0.4,0s-0.2,0-0.4,0h-0.8
			c-0.2,0-0.4,0.2-0.5,0.4l-0.4,2.9c0,0.2,0.1,0.4,0.3,0.4h0.5c0.2,0,0.3,0.2,0.2,0.3c0,0-0.2,0.4-0.5,0.6c-0.7,0.7-1.5,1.1-2.6,1.1
			c-1,0-1.7-0.4-2.2-1.1s-0.6-1.9-0.3-3.5c0.2-1.7,0.7-2.8,1.4-3.6c0.7-0.7,1.5-1.1,2.5-1.1s1.8,0.4,2.2,1.1l0.1,0.1
			c0.1,0.1,0.3,0.2,0.5,0.2h4.2c0.2,0,0.4-0.2,0.3-0.4c0,0-0.5-1.8-1.1-2.6c-1.2-1.4-3.1-2.2-5.7-2.2c-2.5,0-4.6,0.7-6.2,2.2
			s-2.7,3.6-3.1,6.2c-0.3,1.9-0.2,3.5,0.4,4.7c0.5,1.3,1.3,2.2,2.4,2.8c1.1,0.6,2.5,0.9,4.2,0.9s3.2-0.4,4.5-1
			c1.3-0.7,2.3-1.6,3.1-2.8c0.8-1.2,1.3-2.8,1.6-4.7c0-0.3,0.1-0.5,0.1-0.5c0-0.2-0.1-0.4-0.4-0.4H-354.4L-354.4-89.4z"/>
	</g>
</g>
</svg>
