<?xml version="1.0" encoding="utf-8"?>
<!-- Generator: Adobe Illustrator 22.1.0, SVG Export Plug-In . SVG Version: 6.00 Build 0)  -->
<svg version="1.1" id="Слой_1" xmlns="http://www.w3.org/2000/svg" xmlns:xlink="http://www.w3.org/1999/xlink" x="0px" y="0px"
	 width="296.974px" height="79.583px" viewBox="0 0 296.974 79.583" enable-background="new 0 0 296.974 79.583"
	 xml:space="preserve">
<g>
	<g>
		<path fill="#EC683A" d="M212.307,32.333L296.974,0c0,0-35.5,32.667-70.667,42.5L212.307,32.333z"/>
		<path fill="#00A2BA" d="M274.807,56.25l-48.5-13.75l-14-10.167C212.307,32.333,241.224,21.75,274.807,56.25z"/>
		<path fill="#3B3D5C" d="M212.307,32.333l14,10.167c6.329-1.77,12.666-4.286,18.808-7.212
			C225.829,27.389,212.307,32.333,212.307,32.333z"/>
	</g>
	<path fill="#EC683A" d="M54.391,63.27c0,2.97-0.48,3.97-2.37,5.66c-1.8,1.62-7.89,1.76-11.7,1.76s-9.72-1.06-9.72-1.06l1.4-5.78
		c2.9,1.03,5.77,1.21,7.72,1.21c2.77,0,4.875,0.17,6.215-0.35c0.89-0.35,1.83-1.25,1.83-3.12c0-4.007-2.78-3.925-2.78-3.925h-7.825
		v-4.748h7.42c0,0,2.78-0.542,2.78-2.817c0-1.87-0.94-2.77-1.83-3.12c-1.34-0.51-3.04-0.34-5.81-0.34c-1.95,0-4.82,0.17-7.72,1.2
		l-1.4-5.77c0,0,5.91-1.07,9.72-1.07s9.9,0.14,11.7,1.76c1.89,1.69,2.37,2.69,2.37,5.66c0,2.97-1.025,5.538-5.615,6.768
		C53.366,56.408,54.391,60.3,54.391,63.27z"/>
	<path fill="#EC683A" d="M61.016,41h6.75v18.938c0,0,0.375,4.75,4,4.75h5.842c0.64,0,1.158-0.519,1.158-1.158V41h7.188v27.625
		c0,0-5.938,2.068-12.469,2.068c-6.531,0-11.271-1.484-12.469-8.068C60.91,62.042,61.016,41,61.016,41z"/>
	<path fill="#EC683A" d="M90.453,69.75h7.062l5-20l4.925,16.66c0,0,0.824,3.337,6.949,3.337l6.001-19.997l4.25,20h7.375
		l-6.188-28.25h-9.375l-4.688,16.312l-5.75-16.312h-8.938L90.453,69.75z"/>
	<path fill="#EC683A" d="M134.474,41.5h6.75l4.167,19.583c0,0,0.667,3.833,4.167,3.833s2.917,0,2.917,0l5.5-23.417h6.333
		l-8.25,38.083h-6.667l2.083-8.917l-4.833,0.027c0,0-5.417,0.515-7.361-8.017L134.474,41.5z"/>
	<path fill="#EC683A" d="M169.641,69.75V43.527c0,0,6.918-2.527,12.083-2.527s7.417,1.5,7.417,1.5s1.917,0.667,2.917,0
		s5.168-1.5,7.75-1.5c2.582,0,9.25-1.083,11.5,7.917V69.75h-6.083V51.333c0,0-0.167-4.333-4.083-4.333c-3.917,0-5.75,0-5.75,0
		s-1.417,0.083-1.417,1.25s0,21.5,0,21.5h-6.667V51.5c0,0-0.167-4.417-3.917-4.417s-6.083,0-6.083,0s-1.083,0.167-1.083,1.583
		c0,1.417,0,21.083,0,21.083H169.641z"/>
	<path fill="#EC683A" d="M20.203,42.417c-1.867-0.98-2.084-1.144-8.562-1.417C6.683,40.792,1.21,42.666,1.21,42.666l1.389,5.001
		c1.267-0.578,3.029-1.275,5.371-1.538c2.441-0.274,6.582,0.211,6.582,0.211c1.797,0.161,3.588,1.327,3.713,3.286
		C18.288,49.965,18.224,53,18.224,53s-2.569-0.73-6.319-0.73s-7.531,0.614-9.764,2.438c-2.5,2.042-3.125,11.25-0.167,14.042
		c2.456,2.318,6.249,1.917,11,1.917c6.042,0,11.583-1.75,11.583-1.75S24.724,55.812,24.724,50
		C24.724,46.812,21.581,43.14,20.203,42.417z M18.391,63.351c0,1.279-1.037,2.315-2.315,2.315h-5.633
		c-2.169,0-3.927-1.758-3.927-3.927v-1.062c0-2.169,1.758-3.927,3.927-3.927h5.86c1.153,0,2.088,0.935,2.088,2.088V63.351z"/>
</g>
</svg>
