<?xml version="1.0" encoding="utf-8"?>
<!-- Generator: Adobe Illustrator 22.1.0, SVG Export Plug-In . SVG Version: 6.00 Build 0)  -->
<svg version="1.1" id="Слой_1" xmlns="http://www.w3.org/2000/svg" xmlns:xlink="http://www.w3.org/1999/xlink" x="0px" y="0px"
	 width="152.654px" height="23px" viewBox="0 0 152.654 23" style="enable-background:new 0 0 152.654 23;" xml:space="preserve">
<style type="text/css">
	.st0{fill:#E40727;}
	.st1{fill:#FFFFFF;}
</style>
<g>
	<polygon class="st0" points="38.455,23 13.279,23 0,0 25.176,0 	"/>
	<g>
		<path class="st0" d="M42.431,11.222h3.535c-0.207,0.683-0.562,1.21-1.064,1.579c-0.502,0.369-1.086,0.554-1.751,0.554
			c-1.037,0-1.835-0.298-2.397-0.893c-0.562-0.595-0.843-1.449-0.843-2.562c0-1.025,0.267-1.838,0.802-2.439
			c0.534-0.601,1.244-0.901,2.127-0.901c0.567,0,1.053,0.124,1.456,0.372c0.403,0.248,0.704,0.581,0.9,1h2.962
			c-0.229-1.223-0.813-2.193-1.751-2.91c-0.938-0.716-2.133-1.075-3.584-1.075c-1.156,0-2.168,0.251-3.035,0.752
			c-0.867,0.502-1.538,1.204-2.013,2.108c-0.475,0.904-0.712,1.934-0.712,3.092s0.237,2.188,0.712,3.092
			c0.475,0.904,1.148,1.606,2.021,2.108c0.873,0.502,1.893,0.752,3.06,0.752c0.96,0,1.813-0.182,2.561-0.546
			c0.747-0.364,1.361-0.837,1.841-1.422c0.48-0.584,0.829-1.218,1.047-1.901V9.189h-5.874V11.222z"/>
		<path class="st0" d="M55.101,7.823c-0.612-0.338-1.322-0.507-2.128-0.507c-0.797,0-1.507,0.172-2.128,0.515
			c-0.622,0.343-1.106,0.836-1.451,1.477c-0.345,0.642-0.517,1.4-0.517,2.276c0,0.865,0.175,1.622,0.525,2.268
			c0.35,0.647,0.833,1.141,1.451,1.485c0.617,0.343,1.324,0.515,2.121,0.515c0.68,0,1.998,0.069,3.733-0.717l-0.354-2.055
			c-1.226,0.613-2.145,0.639-2.616,0.639c-0.437,0-1.355,0.073-1.891-0.471c-0.276-0.28-0.319-0.24-0.534-0.958h5.447
			c0.048-0.249,0.149-0.775,0.149-0.984c0-0.796-0.049-1.445-0.384-2.057C56.187,8.637,55.713,8.162,55.101,7.823z M51.446,10.341
			c0,0,0.209-0.324,0.51-0.602c0.301-0.278,0.68-0.363,1.137-0.363c0.437,0,0.804,0.082,1.101,0.355
			c0.296,0.274,0.43,0.61,0.43,0.61H51.446z"/>
		<path class="st0" d="M64.053,7.831c-0.655-0.343-1.397-0.515-2.227-0.515c-0.83,0-1.574,0.172-2.234,0.515
			c-0.66,0.343-1.177,0.838-1.552,1.485c-0.375,0.647-0.562,1.403-0.562,2.268c0,0.865,0.187,1.622,0.562,2.268
			c0.375,0.647,0.892,1.141,1.552,1.485c0.66,0.343,1.404,0.515,2.234,0.515c0.83,0,1.572-0.172,2.227-0.515
			c0.655-0.343,1.17-0.838,1.544-1.485c0.375-0.647,0.562-1.403,0.562-2.268c0-0.865-0.187-1.621-0.562-2.268
			C65.223,8.669,64.708,8.174,64.053,7.831z M63.056,13.106c-0.33,0.348-0.74,0.522-1.23,0.522c-0.49,0-0.902-0.174-1.237-0.522
			c-0.335-0.348-0.502-0.855-0.502-1.522c0-0.666,0.167-1.176,0.502-1.529c0.335-0.353,0.747-0.53,1.237-0.53
			c0.49,0,0.9,0.177,1.23,0.53c0.33,0.353,0.495,0.863,0.495,1.529C63.551,12.25,63.386,12.758,63.056,13.106z"/>
		<path class="st0" d="M70.762,7.316c0,0-0.751,0.074-1.442,0.704c0,0-0.699-1.191-2.858-0.509v1.83c0,0,0.786-0.199,0.786,0.354
			v6.156h2.483v-3.79c0,0-0.14-1.685,0.314-2.051c0.699-0.563,1.096-0.552,1.718-0.41c0.453,0.104,1.17,0.63,1.17,0.63l0.643-2.271
			C72.454,7.149,71.638,7.157,70.762,7.316z"/>
		<path class="st0" d="M76.529,7.459c-0.637,0.112-1.207,0.451-1.718,0.794C74.3,8.597,74.092,8.94,73.749,9.562
			c-0.341,0.619-0.44,1.209-0.44,2.084c0,0.865,0.128,1.572,0.423,2.219c0.295,0.647,0.639,1.088,1.14,1.468
			c0.49,0.372,1.244,0.668,1.891,0.668c0.649,0,1.45,0.031,2.244-0.39v0.283c0,0.666-0.153,1.151-0.457,1.455
			c-0.305,0.303-0.635,0.391-1.122,0.453c-0.428,0.055-0.965-0.141-1.287-0.199c-0.337-0.06-1.899-0.794-1.899-0.794l-0.414,2.193
			c1.166,0.673,2.508,1.025,3.689,1.025c0.862,0,1.584-0.184,2.166-0.552c0.581-0.368,1.013-0.863,1.294-1.485
			c0.281-0.622,0.422-1.321,0.422-2.096v-7.71c0,0-1.768-0.682-2.391-0.756C78.523,7.371,77.461,7.295,76.529,7.459z M79.006,13.313
			c-0.311,0.302-0.997,0.458-1.503,0.458c-0.516,0-0.931-0.179-1.245-0.537c-0.314-0.358-0.471-1.005-0.471-1.642
			c0-0.636,0.157-1.134,0.471-1.492c0.314-0.358,0.729-0.537,1.245-0.537c0.506,0,1.146,0.013,1.503,0.215V13.313z"/>
		<rect x="82.788" y="7.525" class="st0" width="2.405" height="8.326"/>
		<path class="st0" d="M83.997,4.211c-0.431,0-0.778,0.127-1.041,0.381c-0.263,0.254-0.394,0.574-0.394,0.962
			c0,0.378,0.131,0.694,0.394,0.948c0.262,0.254,0.609,0.381,1.041,0.381c0.431,0,0.778-0.127,1.041-0.381
			c0.262-0.254,0.394-0.569,0.394-0.948c0-0.388-0.131-0.709-0.394-0.962C84.775,4.337,84.428,4.211,83.997,4.211z"/>
		<path class="st0" d="M102.455,8.39c-0.53-0.636-1.375-1.069-2.275-1.069c-0.85,0-1.498,0.164-1.498,0.164
			c-0.234,0.084-0.564,0.123-1.148,0.613c0,0-0.397-1.176-2.91-0.574V9.35c0.885-0.285,0.786,0.6,0.786,0.6v5.901h2.405v-4.417
			c0-0.607,0.143-1.074,0.429-1.403c0.286-0.328,0.673-0.572,1.16-0.572c0.459,0,0.701,0.236,0.996,0.531
			c0.22,0.22,0.314,0.767,0.314,1.324v4.536h2.535v-4.835C103.25,9.903,102.985,9.027,102.455,8.39z"/>
		<path class="st0" d="M93.597,13.771c0,0,0-2.253,0-3.497s-0.829-2.038-0.829-2.038s-0.898-1.005-2.884-1.005
			s-3.333,0.78-3.333,0.78l0.466,2.02c2.264-1.038,3.63-0.577,3.949-0.24c0.238,0.251,0.173,0.76,0.173,0.691
			c0-0.069-2.784-0.969-4.304,0.55c-0.786,0.786-0.764,2.253-0.699,2.84c0.047,0.425,0.768,2.029,3.005,2.029
			c2.057,0,2.536-0.92,2.536-0.92c0.548,1.343,2.722,0.755,2.722,0.755v-1.783C93.55,14.297,93.597,13.771,93.597,13.771z
			 M91.146,12.959c-0.086,0.311-0.768,0.812-1.312,0.812c-1.001,0-1.33-0.216-1.33-0.812c0-0.596,0.518-0.898,1.183-0.898
			c0.665,0,1.459,0.363,1.459,0.363S91.157,12.917,91.146,12.959z"/>
	</g>
	<g>
		<path class="st0" d="M111.767,6.363c-0.017-0.037-0.054-0.061-0.094-0.061h-0.29c-0.04,0-0.077,0.024-0.094,0.06l-4.304,9.342
			c-0.032,0.069,0.019,0.147,0.094,0.147h0.506c0.041,0,0.078-0.024,0.095-0.062l1.3-2.955c0.017-0.038,0.054-0.062,0.095-0.062
			l4.805,0.029c0.04,0,0.077,0.024,0.094,0.06l1.346,2.929c0.017,0.037,0.054,0.06,0.094,0.06h0.521
			c0.075,0,0.126-0.078,0.094-0.147L111.767,6.363z M113.575,12.23h-4.18c-0.076,0-0.126-0.079-0.094-0.147l2.115-4.53
			c0.037-0.08,0.151-0.08,0.188,0.001l2.065,4.53C113.701,12.152,113.651,12.23,113.575,12.23z"/>
		<path class="st0" d="M117.619,9.212h-0.435c-0.057,0-0.104,0.046-0.104,0.104v6.456c0,0.057,0.046,0.104,0.104,0.104h0.435
			c0.057,0,0.104-0.046,0.104-0.104V9.316C117.722,9.258,117.676,9.212,117.619,9.212z"/>
		<path class="st0" d="M117.401,6.639c-0.212,0-0.384,0.172-0.384,0.384s0.172,0.384,0.384,0.384c0.212,0,0.384-0.172,0.384-0.384
			S117.614,6.639,117.401,6.639z"/>
		<path class="st0" d="M122.449,8.942c-0.965-0.089-1.755,0.27-2.156,0.777h-0.045c0,0-0.031-0.874-1.358-0.666
			c-0.057,0.009-0.097,0.065-0.086,0.122l0.067,0.359c0.01,0.053,0.06,0.088,0.113,0.083c0.748-0.061,0.69,0.399,0.69,0.399v5.755
			c0,0.057,0.046,0.104,0.104,0.104h0.435c0.057,0,0.104-0.046,0.104-0.104v-3.788c0-1.391,0.343-1.723,0.578-1.933
			c0.476-0.426,1.328-0.477,1.48-0.468c0.327,0.019,0.86,0.226,1.116,0.404c0.046,0.032,0.109,0.021,0.142-0.025l0.211-0.293
			c0.032-0.045,0.025-0.107-0.018-0.141C123.392,9.186,122.729,8.968,122.449,8.942z"/>
		<path class="st0" d="M132.907,9.143h-0.434c-0.044,0-0.083,0.026-0.097,0.068c-0.213,0.6-1.774,4.995-1.806,5.256h-0.039
			c-0.064-0.305-1.329-4.521-1.511-5.127c-0.013-0.044-0.053-0.072-0.099-0.072h-0.436c-0.043,0-0.081,0.025-0.096,0.066
			c-0.202,0.533-1.569,4.154-1.805,5.091h-0.039c-0.076-0.442-1.478-4.621-1.677-5.212c-0.014-0.042-0.053-0.069-0.098-0.069h-0.473
			c-0.07,0-0.12,0.068-0.099,0.134l2.006,6.501c0.013,0.043,0.054,0.073,0.099,0.073h0.487c0.044,0,0.083-0.027,0.098-0.069
			l1.792-5.006h0.039c0.144,0.572,1.31,4.425,1.485,5.003c0.013,0.044,0.053,0.072,0.099,0.072h0.523
			c0.045,0,0.085-0.029,0.099-0.072l2.082-6.501C133.027,9.211,132.977,9.143,132.907,9.143z"/>
		<path class="st0" d="M139.827,15.35c-0.019-0.057-0.081-0.086-0.136-0.063c-0.204,0.081-0.652,0.169-0.652-0.633v-3
			c0-0.852-0.151-1.505-0.534-1.907c-0.383-0.402-1.32-0.75-2.095-0.75c-0.891,0-1.634,0.26-2.375,0.6
			c-0.055,0.025-0.077,0.092-0.047,0.145l0.191,0.342c0.027,0.048,0.086,0.066,0.136,0.042c0.68-0.339,1.443-0.572,2.07-0.572
			c0.606,0,1.403,0.318,1.676,0.659s0.369,0.874,0.369,1.544v0.332l-1.335-0.412c-0.005-0.002-0.011-0.003-0.017-0.004
			c-1.505-0.224-2.167,0.107-2.74,0.487c-0.573,0.381-0.868,1.153-0.868,1.841c0,0.627,0.46,1.118,0.845,1.472
			c0.385,0.355,0.924,0.475,1.616,0.475c0.511,0,1.151-0.15,1.525-0.338c0.263-0.133,0.648-0.405,0.853-0.555
			c0.062-0.045,0.148-0.009,0.161,0.067c0.175,0.984,1.142,0.819,1.416,0.683c0.046-0.023,0.067-0.077,0.051-0.126L139.827,15.35z
			 M138.449,13.709c0,0.012-0.002,0.023-0.006,0.035c-0.038,0.104-0.266,0.677-0.726,0.987c-0.479,0.324-0.926,0.505-1.612,0.557
			c-0.492,0.037-0.913-0.06-1.23-0.24c-0.298-0.168-0.771-0.473-0.771-1.01c0-0.796,0.213-1.111,0.635-1.373
			c0.421-0.261,0.956-0.575,2.314-0.377c0.007,0.001,0.014,0.003,0.021,0.005l1.306,0.456c0.042,0.015,0.069,0.054,0.069,0.098
			V13.709z"/>
		<path class="st0" d="M146.364,9.143h-0.439c-0.04,0-0.077,0.023-0.094,0.06c-0.269,0.579-2.401,5.181-2.571,5.682h-0.039
			c-0.114-0.381-2.38-5.102-2.659-5.683c-0.017-0.036-0.053-0.058-0.093-0.058h-0.435c-0.076,0-0.126,0.078-0.094,0.147l2.946,6.368
			c0.011,0.024,0.012,0.051,0.004,0.077c-0.057,0.176-0.168,0.634-0.334,1.052c-0.179,0.454-0.338,0.785-0.474,0.995
			c-0.136,0.209-0.289,0.364-0.458,0.463c-0.169,0.099-0.363,0.149-0.584,0.149c-0.175,0-0.431-0.063-0.592-0.181
			c-0.046-0.034-0.109-0.023-0.143,0.023l-0.219,0.302c-0.032,0.044-0.026,0.108,0.018,0.142c0.325,0.247,0.72,0.281,0.949,0.281
			c0.329,0,0.609-0.056,0.841-0.168c0.231-0.112,0.434-0.28,0.607-0.504c0.173-0.224,0.387-0.655,0.642-1.293l3.316-7.707
			C146.489,9.219,146.439,9.143,146.364,9.143z"/>
		<path class="st0" d="M152.462,13.037c-0.429-0.765-1.903-0.97-2.651-1.053c-0.697-0.078-1.066-0.125-1.476-0.259
			c-0.41-0.134-0.93-0.796-0.337-1.39c0.738-0.738,1.909-0.835,2.961-0.475c0.981,0.336,0.848,1.122,0.848,1.122l0.654-0.009
			c0-0.829-0.492-1.355-1.019-1.623c-0.527-0.268-2.53-0.578-3.453,0.13c-0.924,0.708-0.915,1.196-0.846,1.908
			c0.064,0.662,1.295,1.166,2.253,1.235c0.215,0.016,1.222,0.091,1.899,0.302c0.691,0.216,0.717,0.837,0.717,0.837
			s0.086,1.528-2.245,1.528c-2.331,0-2.193-1.528-2.193-1.528h-0.584c-0.063,0-0.111,0.056-0.103,0.118
			c0.09,0.694,0.568,1.856,2.224,2.023c1.673,0.168,2.592-0.447,2.944-0.725C152.314,14.974,152.98,13.961,152.462,13.037z"/>
	</g>
	<path d="M19.616,11.422"/>
	<g>
		<path class="st1" d="M21.79,5.874l0-0.002l0.002,0.001c0.007-0.003,0.014-0.005,0.022-0.008l0.386,0.208
			c0.194-0.052,1.007-0.557,2.465-0.302c-0.702-0.999-1.856-1.653-3.164-1.653c-2.142,0-3.878,1.748-3.878,3.904
			c0,1.549,0.898,2.883,2.197,3.514c-0.298-0.573-0.471-1.237-0.471-1.947C19.348,7.85,20.374,6.378,21.79,5.874z"/>
		<path class="st1" d="M21.044,9.952c1.358-1.087,3.149-1.207,4.428-0.416l0.001-0.001l0,0.002c0.007,0.004,0.013,0.008,0.019,0.012
			l0.078,0.431c0.162,0.119,1.064,0.438,1.776,1.735c0.341-1.172,0.13-2.481-0.687-3.502c-1.339-1.672-3.788-1.935-5.471-0.588
			c-1.209,0.968-1.689,2.503-1.369,3.911C20.081,10.946,20.49,10.396,21.044,9.952z"/>
		<path class="st1" d="M21.822,11.539c1.69,0.412,2.879,1.757,3.033,3.252l0.002,0.001l-0.001,0.001
			c0.001,0.008,0.002,0.015,0.002,0.023l-0.294,0.325c0.005,0.201,0.303,1.11-0.29,2.466c1.137-0.446,2.045-1.412,2.354-2.683
			c0.507-2.081-0.781-4.182-2.875-4.692c-1.505-0.366-3.013,0.191-3.933,1.303C20.447,11.383,21.133,11.371,21.822,11.539z"/>
		<path class="st1" d="M21.063,13.107c0.729,1.58,0.414,3.347-0.661,4.398l0,0.002l-0.002,0c-0.005,0.005-0.011,0.011-0.016,0.016
			l-0.438-0.028c-0.154,0.129-0.681,0.927-2.112,1.306c1.056,0.613,2.377,0.723,3.565,0.175c1.945-0.897,2.789-3.212,1.886-5.169
			c-0.649-1.406-2.023-2.241-3.467-2.27C20.33,11.932,20.765,12.462,21.063,13.107z"/>
		<path class="st1" d="M15.549,15.747l-0.001,0.001l-0.001-0.001c-0.008-0.001-0.015-0.002-0.023-0.003l-0.254-0.357
			c-0.197-0.039-1.149,0.055-2.344-0.818c0.188,1.206,0.935,2.302,2.108,2.88c1.922,0.946,4.251,0.145,5.204-1.789
			c0.684-1.389,0.467-2.983-0.419-4.123c0.014,0.646-0.123,1.318-0.437,1.955C18.614,15.052,17.043,15.92,15.549,15.747z"/>
		<path class="st1" d="M13.863,10.842l-0.002,0l0-0.002c-0.004-0.006-0.008-0.013-0.012-0.02l0.12-0.422
			c-0.093-0.178-0.762-0.862-0.829-2.34c-0.823,0.902-1.21,2.17-0.926,3.447c0.465,2.091,2.548,3.406,4.652,2.938
			c1.512-0.336,2.619-1.503,2.953-2.907c-0.495,0.416-1.105,0.729-1.798,0.883C16.323,12.797,14.663,12.115,13.863,10.842z"/>
		<path class="st1" d="M16.635,6.456l-0.001-0.001l0.002-0.001c0.003-0.007,0.005-0.014,0.008-0.022l0.404-0.17
			c0.08-0.184,0.196-1.134,1.307-2.111c-1.218-0.078-2.45,0.413-3.269,1.434c-1.34,1.671-1.064,4.119,0.618,5.468
			c1.208,0.969,2.811,1.103,4.115,0.485c-0.634-0.126-1.26-0.406-1.813-0.85C16.649,9.598,16.142,7.876,16.635,6.456z"/>
	</g>
	<g>
		<path class="st0" d="M84.1,19.58v-0.568h0.898v-0.414H84.1v-0.345h-0.414v0.345h-0.898v0.414h0.898v1.008l0.23-0.025
			c0.004,0,0.44-0.041,0.691,0.183c0.124,0.111,0.185,0.272,0.185,0.491v1.289c-0.021,0.072-0.138,0.352-0.708,0.352l-0.041,0.004
			c-0.005,0.001-0.537,0.097-0.818-0.203c-0.229-0.244-0.257-0.718-0.081-1.37l-0.4-0.108c-0.218,0.809-0.158,1.401,0.178,1.761
			c0.274,0.293,0.659,0.35,0.919,0.35c0.124,0,0.22-0.013,0.261-0.02c0.977-0.008,1.096-0.681,1.101-0.709l0.003-1.345
			c0-0.339-0.108-0.608-0.322-0.8C84.639,19.651,84.316,19.592,84.1,19.58z"/>
		<path class="st0" d="M97.41,19.58v-0.568h0.898v-0.414H97.41v-0.345h-0.414v0.345h-0.898v0.414h0.898v1.008l0.23-0.025
			c0.004,0,0.44-0.041,0.691,0.183c0.124,0.111,0.185,0.272,0.185,0.491v1.289c-0.021,0.072-0.138,0.352-0.708,0.352l-0.041,0.004
			c-0.005,0.001-0.537,0.097-0.818-0.203c-0.229-0.244-0.257-0.718-0.081-1.37l-0.4-0.108c-0.218,0.809-0.158,1.401,0.178,1.761
			c0.274,0.293,0.659,0.35,0.919,0.35c0.124,0,0.22-0.013,0.261-0.02c0.977-0.008,1.097-0.681,1.101-0.709l0.003-1.345
			c0-0.339-0.108-0.608-0.322-0.8C97.949,19.651,97.626,19.592,97.41,19.58z"/>
		<path class="st0" d="M89.249,18.234h-0.678l-0.036,0.014c-0.015,0.006-0.231,0.095-0.404,0.372
			c-0.192-0.338-0.459-0.38-0.503-0.385l-0.661-0.001c-0.656,0-0.874,0.531-0.898,0.824c0,0-0.035,1.38-0.069,2.381
			c-0.033,0.946,0.684,1.267,1.068,1.304l0.04-0.412c-0.03-0.003-0.721-0.08-0.694-0.877c0.034-0.997,0.069-2.37,0.068-2.371
			c0.007-0.073,0.065-0.433,0.484-0.433h0.616c0.049,0.017,0.309,0.14,0.334,0.836c0.034,0.963,0.001,1.668,0,1.675l0.414,0.02
			c0.001-0.029,0.034-0.726,0-1.706c0.001-0.572,0.247-0.774,0.329-0.825h0.589c0.42,0,0.477,0.361,0.484,0.42
			c0,0,0.035,1.382,0.069,2.385c0.027,0.776-0.621,0.869-0.695,0.877l0.021,0.206l0.02,0.206c0.383-0.037,1.1-0.358,1.068-1.304
			c-0.035-1.001-0.069-2.381-0.07-2.393C90.123,18.765,89.905,18.234,89.249,18.234z"/>
		<path class="st0" d="M94.364,19.46h-0.676l-0.052,0.007c-0.126,0.033-0.314,0.128-0.458,0.305
			c-0.166-0.218-0.398-0.301-0.552-0.311h-0.513c-0.291-0.1-0.441-0.256-0.414-0.431c0.025-0.157,0.184-0.29,0.348-0.29h2.007
			v-0.414h-2.007c-0.369,0-0.701,0.281-0.757,0.641c-0.015,0.098-0.028,0.349,0.183,0.58c-0.317,0.131-0.44,0.384-0.461,0.55
			c0,0-0.036,0.966-0.073,1.667c-0.037,0.717,0.72,0.955,1.125,0.982l0.027-0.414c-0.008-0.001-0.764-0.055-0.738-0.547
			c0.034-0.65,0.068-1.527,0.073-1.656c0.012-0.048,0.09-0.252,0.524-0.252l0.661-0.001c0.013,0.001,0.329,0.029,0.355,0.522
			l0.016,1.182l0.414-0.006l-0.016-1.179h0c0-0.368,0.259-0.49,0.339-0.519h0.644c0.434,0,0.512,0.205,0.524,0.252
			c0.005,0.129,0.039,1.007,0.073,1.656c0.025,0.488-0.707,0.545-0.738,0.547l0.014,0.207l0.013,0.207
			c0.405-0.026,1.162-0.265,1.125-0.982c-0.036-0.7-0.073-1.666-0.074-1.685C95.273,19.864,95.043,19.46,94.364,19.46z"/>
		<path class="st0" d="M101.345,18.341c-0.08-0.037-0.429-0.173-1.103-0.106c-0.688,0.069-0.897,0.747-0.911,1.082
			c-0.006,0.053-0.139,1.298,0.001,2.263c0.125,0.858,0.622,1.076,0.904,1.076c0.015,0,0.03-0.001,0.044-0.002l-0.036-0.413
			c-0.005,0-0.395,0.013-0.502-0.721c-0.132-0.912,0-2.145,0.002-2.171c0.001-0.027,0.038-0.651,0.539-0.701
			c0.606-0.061,0.886,0.069,0.886,0.069l0.035,0.014c0.003,0.001,0.309,0.108,0.336,0.67c0.034,0.71,0,2.232,0,2.251
			c-0.001,0.09-0.033,0.537-0.536,0.537v0.414c0.697,0,0.95-0.568,0.95-0.945c0.001-0.063,0.034-1.552,0-2.277
			C101.917,18.602,101.452,18.382,101.345,18.341z"/>
		<path class="st0" d="M105.267,19.785c-0.052-0.282-0.309-0.832-0.908-0.891c-0.341-0.034-0.451-0.077-0.583-0.215
			c-0.021-0.049-0.011-0.235,0.022-0.383l-0.405-0.089c-0.044,0.201-0.094,0.564,0.068,0.738c0.24,0.258,0.467,0.322,0.857,0.361
			c0.407,0.04,0.522,0.469,0.54,0.544c0.007,0.131,0.055,1.073,0.008,1.745c-0.038,0.552-0.388,0.641-0.419,0.648
			c-0.004,0.001-0.426,0.061-0.91-0.001c-0.334-0.043-0.354-0.49-0.354-0.503v-1.433h-0.414v1.439
			c0.008,0.283,0.167,0.838,0.716,0.908c0.183,0.023,0.356,0.031,0.507,0.031c0.296,0,0.505-0.03,0.522-0.033
			c0.243-0.043,0.717-0.313,0.767-1.028c0.052-0.747-0.006-1.77-0.009-1.814L105.267,19.785z"/>
		<path class="st0" d="M108.645,20.228c-0.009-0.03-0.234-0.733-0.897-0.733c-0.525,0-0.801,0.035-0.825,0.038
			c-0.015,0.003-0.23,0.046-0.453,0.183v-0.558c0-0.398,0.489-0.414,0.544-0.414h1.425v-0.414h-1.425
			c-0.331,0-0.958,0.173-0.958,0.829v2.858l0.003,0.037c0.005,0.028,0.138,0.691,1.205,0.691c0.693,0,1.407-0.1,1.45-0.846
			c0.027-0.457-0.057-1.577-0.061-1.625L108.645,20.228z M108.301,21.874c-0.011,0.192-0.026,0.455-1.036,0.455
			c-0.639,0-0.773-0.281-0.794-0.34v-1.72c0.169-0.251,0.521-0.327,0.519-0.327c0.007-0.001,0.269-0.033,0.759-0.033
			c0.317,0,0.463,0.336,0.495,0.422C108.255,20.505,108.324,21.481,108.301,21.874z"/>
		<path class="st0" d="M121.004,19.461h-0.676l-0.052,0.007c-0.126,0.033-0.314,0.128-0.458,0.305
			c-0.166-0.218-0.398-0.301-0.552-0.311h-0.513c-0.291-0.1-0.441-0.256-0.414-0.431c0.025-0.157,0.184-0.29,0.348-0.29h2.007
			v-0.414h-2.007c-0.369,0-0.701,0.281-0.757,0.641c-0.015,0.098-0.028,0.349,0.183,0.58c-0.317,0.131-0.44,0.384-0.46,0.55
			c0,0-0.037,0.966-0.073,1.667c-0.037,0.717,0.72,0.955,1.125,0.982l0.027-0.414c-0.008-0.001-0.763-0.055-0.738-0.547
			c0.034-0.65,0.068-1.527,0.073-1.656c0.012-0.048,0.09-0.252,0.524-0.252l0.658-0.001c0.056,0.006,0.334,0.06,0.359,0.522
			l0.016,1.182l0.414-0.006l-0.016-1.179h0c0-0.368,0.259-0.49,0.339-0.519h0.644c0.434,0,0.512,0.205,0.524,0.252
			c0.005,0.129,0.039,1.007,0.072,1.656c0.025,0.488-0.707,0.544-0.738,0.547l0.027,0.414c0.406-0.026,1.162-0.265,1.125-0.982
			c-0.036-0.7-0.073-1.666-0.074-1.685C121.914,19.864,121.683,19.461,121.004,19.461z"/>
		<path class="st0" d="M131.595,18.341c-0.08-0.037-0.429-0.173-1.103-0.106c-0.688,0.069-0.897,0.747-0.911,1.082
			c-0.006,0.053-0.139,1.298,0.001,2.263c0.125,0.858,0.622,1.076,0.904,1.076c0.015,0,0.03-0.001,0.044-0.002l-0.036-0.413
			c-0.005,0-0.395,0.013-0.502-0.721c-0.132-0.912,0-2.145,0.002-2.171c0.001-0.027,0.038-0.651,0.539-0.701
			c0.606-0.061,0.886,0.069,0.886,0.069l0.035,0.014c0.003,0.001,0.309,0.108,0.336,0.67c0.034,0.71,0,2.232,0,2.251
			c-0.001,0.09-0.033,0.537-0.536,0.537v0.414c0.696,0,0.95-0.568,0.95-0.945c0.001-0.063,0.034-1.552,0-2.277
			C132.168,18.603,131.702,18.382,131.595,18.341z"/>
		<path class="st0" d="M138.836,19.382c-0.037-0.779-0.503-1-0.61-1.04c-0.08-0.037-0.429-0.173-1.103-0.106
			c-0.688,0.069-0.897,0.747-0.911,1.082c-0.006,0.053-0.139,1.298,0.001,2.263c0.125,0.858,0.622,1.076,0.904,1.076
			c0.015,0,0.03-0.001,0.044-0.002l-0.036-0.413c-0.006,0-0.395,0.013-0.502-0.721c-0.132-0.912,0-2.145,0.002-2.171
			c0.001-0.027,0.038-0.651,0.539-0.701c0.607-0.061,0.886,0.069,0.886,0.069l0.035,0.014c0.003,0.001,0.309,0.108,0.336,0.67
			c0.034,0.71,0,2.232,0,2.251c-0.001,0.09-0.033,0.537-0.535,0.537v0.414c0.696,0,0.95-0.568,0.95-0.945
			C138.838,21.595,138.871,20.106,138.836,19.382z"/>
		<path class="st0" d="M117.014,19.785c-0.052-0.282-0.309-0.832-0.908-0.891c-0.341-0.034-0.451-0.077-0.583-0.215
			c-0.021-0.049-0.011-0.235,0.022-0.383l-0.405-0.089c-0.044,0.201-0.094,0.564,0.068,0.738c0.24,0.258,0.467,0.322,0.857,0.361
			c0.407,0.04,0.522,0.469,0.54,0.544c0.007,0.131,0.055,1.073,0.008,1.745c-0.038,0.552-0.388,0.641-0.419,0.648
			c-0.004,0.001-0.426,0.061-0.91-0.001c-0.334-0.043-0.354-0.49-0.354-0.503v-1.433h-0.414v1.439
			c0.008,0.283,0.167,0.838,0.716,0.908c0.183,0.023,0.356,0.031,0.507,0.031c0.296,0,0.505-0.03,0.522-0.033
			c0.243-0.043,0.717-0.313,0.767-1.028c0.052-0.747-0.006-1.77-0.009-1.814L117.014,19.785z"/>
		<path class="st0" d="M113.21,18.235c-0.06-0.027-0.351-0.137-1.009-0.103c-0.682,0.035-0.887,0.643-0.901,0.969v0.654h0.414
			l0-0.644c0.003-0.055,0.042-0.541,0.508-0.565c0.587-0.03,0.812,0.065,0.812,0.065l0.023,0.01c0.01,0.004,0.243,0.105,0.243,0.634
			v2.465c-0.022,0.096-0.141,0.557-0.535,0.523c-0.532-0.045-0.991-0.156-1.086-0.18c-0.163-0.087-0.385-0.471-0.115-1.349
			l-0.396-0.122c-0.465,1.513,0.33,1.846,0.364,1.86l0.023,0.007c0.022,0.006,0.543,0.144,1.176,0.197
			c0.027,0.002,0.053,0.003,0.079,0.003c0.584,0,0.845-0.568,0.902-0.881l0.003-2.524C113.714,18.49,113.308,18.275,113.21,18.235z"
			/>
		<path class="st0" d="M128.305,18.235c-0.06-0.027-0.351-0.137-1.009-0.103c-0.682,0.035-0.887,0.643-0.901,0.969v0.654h0.414
			l0-0.644c0.003-0.055,0.042-0.541,0.508-0.565c0.587-0.03,0.811,0.065,0.812,0.065l0.023,0.01c0.01,0.004,0.243,0.105,0.243,0.634
			v2.465c-0.022,0.096-0.14,0.557-0.535,0.523c-0.532-0.045-0.991-0.156-1.086-0.18c-0.163-0.087-0.385-0.471-0.115-1.349
			l-0.396-0.122c-0.465,1.513,0.33,1.846,0.364,1.86l0.023,0.007c0.022,0.006,0.543,0.144,1.176,0.197
			c0.027,0.002,0.053,0.003,0.079,0.003c0.584,0,0.845-0.568,0.902-0.881l0.003-2.524C128.809,18.49,128.403,18.275,128.305,18.235z
			"/>
		<path class="st0" d="M135.278,19.775c-0.071-0.083-0.208-0.183-0.455-0.194c-0.2-0.008-0.266-0.048-0.285-0.49l-0.414,0.018
			c0.014,0.322,0.037,0.86,0.682,0.887c0.075,0.003,0.131,0.021,0.157,0.049c0.025,0.027,0.025,0.068,0.025,0.068l-0.002,0.02
			l0.002,0.021c0.064,0.674,0.117,1.482,0.09,1.609c-0.063,0.271-0.446,0.42-1.055,0.409c-0.74-0.013-0.802-0.48-0.806-0.518v-3.488
			h-0.414l0,3.5c0.019,0.311,0.296,0.904,1.213,0.92c0.023,0,0.047,0.001,0.069,0.001c1.066,0,1.333-0.455,1.397-0.731
			c0.054-0.236-0.046-1.362-0.081-1.727C135.403,20.065,135.394,19.909,135.278,19.775z"/>
		<path class="st0" d="M125.218,20.405c-0.013-0.016-0.078-0.088-0.218-0.161c0.017-0.014,0.035-0.027,0.051-0.043
			c0.225-0.218,0.323-0.558,0.318-1.102c-0.006-0.718-0.378-0.858-0.42-0.871l-0.655-0.1c-0.095-0.014-0.941-0.12-1.244,0.4
			c-0.224,0.384-0.136,0.661-0.071,0.863c0.02,0.062,0.037,0.116,0.044,0.167l0.411-0.055c-0.012-0.087-0.036-0.164-0.06-0.239
			c-0.056-0.176-0.097-0.303,0.034-0.528c0.138-0.238,0.657-0.223,0.826-0.199l0.585,0.087c0.033,0.028,0.133,0.139,0.136,0.478
			c0.004,0.416-0.058,0.67-0.192,0.801c-0.103,0.1-0.274,0.152-0.561,0.164c-0.021,0-0.042-0.002-0.064-0.002v0.003
			c-0.081,0.002-0.168,0.001-0.267-0.003l-0.016,0.414c0.074,0.003,0.145,0.004,0.214,0.004c0.041,0,0.08-0.001,0.119-0.002
			c0.465,0.01,0.663,0.148,0.703,0.181c0.051,0.096,0.252,0.505,0.188,0.888c-0.056,0.336-0.261,0.485-0.327,0.524
			c-0.148,0.02-0.726,0.097-1.144,0.097c0,0,0,0,0,0c-0.296,0-0.361-0.519-0.362-0.519v-0.867h-0.414l0.001,0.887
			c0.032,0.339,0.232,0.913,0.775,0.913c0,0,0.001,0,0.001,0c0.51-0.001,1.209-0.102,1.238-0.106l0.055-0.016
			c0.02-0.009,0.482-0.225,0.585-0.845c0.098-0.586-0.236-1.163-0.25-1.187L125.218,20.405z"/>
	</g>
</g>
</svg>
