<?xml version="1.0" encoding="utf-8"?>
<!-- Generator: Adobe Illustrator 22.1.0, SVG Export Plug-In . SVG Version: 6.00 Build 0)  -->
<svg version="1.1"
	 id="Layer_1" inkscape:version="0.47 r22583" sodipodi:docname="Air_Canada_Logo.svg" xmlns:cc="http://creativecommons.org/ns#" xmlns:dc="http://purl.org/dc/elements/1.1/" xmlns:inkscape="http://www.inkscape.org/namespaces/inkscape" xmlns:rdf="http://www.w3.org/1999/02/22-rdf-syntax-ns#" xmlns:sodipodi="http://sodipodi.sourceforge.net/DTD/sodipodi-0.dtd" xmlns:svg="http://www.w3.org/2000/svg"
	 xmlns="http://www.w3.org/2000/svg" xmlns:xlink="http://www.w3.org/1999/xlink" x="0px" y="0px" width="175.982px" height="23px"
	 viewBox="0 0 175.982 23" style="enable-background:new 0 0 175.982 23;" xml:space="preserve">
<style type="text/css">
	.st0{fill:#D82F2E;}
</style>
<defs>
	
	
		<inkscape:perspective  id="perspective31" inkscape:persp3d-origin="484.4165 : 42.204333 : 1" inkscape:vp_x="0 : 63.306499 : 1" inkscape:vp_y="0 : 1000 : 0" inkscape:vp_z="968.83301 : 63.306499 : 1" sodipodi:type="inkscape:persp3d">
		</inkscape:perspective>
</defs>
<sodipodi:namedview  bordercolor="#666666" borderopacity="1" gridtolerance="10" guidetolerance="10" id="namedview25" inkscape:current-layer="Layer_1" inkscape:cx="484.4165" inkscape:cy="63.307499" inkscape:pageopacity="0" inkscape:pageshadow="2" inkscape:window-height="714" inkscape:window-maximized="1" inkscape:window-width="1280" inkscape:window-x="-4" inkscape:window-y="-4" inkscape:zoom="0.5573716" objecttolerance="10" pagecolor="#ffffff" showgrid="false">
	</sodipodi:namedview>
<g>
	<path class="st0" d="M12.115,16.328c0-0.761,0.41-0.878,1.112-0.468c1.288,0.702,2.692,1.463,2.692,1.463
		c0.059-0.41,0.41-0.761,1.17-0.585c0.702,0.176,1.522,0.351,1.522,0.351s-0.41-0.995-0.644-1.405c-0.351-0.819,0-1.17,0.351-1.288
		c0,0-0.468-0.351-0.819-0.585c-0.702-0.468-0.527-0.995,0.117-1.288c0.936-0.41,2.107-0.936,2.107-0.936
		c-0.351-0.234-0.819-0.819-0.293-1.522c0.468-0.702,1.17-1.639,1.17-1.639s-1.288,0-2.107,0c-0.761,0-0.936-0.644-0.936-1.053
		c0,0-1.229,0.878-2.107,1.463c-0.761,0.527-1.405,0-1.288-0.878c0.176-1.346,0.351-2.868,0.351-2.868
		c-0.468,0.293-1.229,0.293-1.58-0.468c-0.585-0.995-1.229-2.341-1.229-2.341S11.12,3.57,10.593,4.682
		c-0.351,0.761-1.17,0.761-1.58,0.468c0,0,0.176,1.522,0.351,2.868c0.117,0.878-0.585,1.346-1.288,0.878
		C7.198,8.31,5.969,7.433,5.969,7.433c0,0.41-0.176,1.053-0.936,1.053c-0.819,0-2.107,0-2.107,0s0.702,0.995,1.17,1.639
		c0.468,0.702,0.059,1.288-0.293,1.522c0,0,1.17,0.527,2.107,0.936c0.702,0.293,0.878,0.761,0.117,1.288
		c-0.351,0.234-0.819,0.585-0.819,0.585c0.351,0.117,0.702,0.468,0.351,1.288c-0.176,0.41-0.644,1.405-0.644,1.405
		s0.819-0.176,1.522-0.351c0.761-0.176,1.17,0.176,1.17,0.585c0,0,1.346-0.761,2.634-1.463c0.702-0.41,1.112-0.234,1.112,0.468
		v1.756c0,1.053-0.176,2.224-0.585,2.809c-5.033-0.527-9.188-4.506-9.188-9.774c0-5.443,4.565-9.891,10.125-9.891
		c5.618,0,10.125,4.389,10.125,9.832c0,5.092-3.921,9.247-9.013,9.774v1.346c5.969-0.527,10.593-5.326,10.593-11.12
		C23.468,4.975,18.201,0,11.705,0C5.267,0,0,4.975,0,11.178c0,5.443,4.038,9.949,9.481,10.944c0.936,0.176,1.463,0.293,1.99,0.878
		c0.585-1.053,0.702-3.277,0.702-4.565v-2.107H12.115z"/>
	<path d="M59.461,17.148V5.209h5.794c3.102,0,4.506,1.288,4.565,2.985c0.059,0.761-0.117,1.522-0.644,2.107
		s-0.761,0.819-1.756,1.288l4.389,5.56h-3.277l-3.863-4.916h-2.634v4.916C62.036,17.148,59.461,17.148,59.461,17.148z
		 M62.094,10.593h1.17c3.219,0,3.863-0.527,3.863-2.107c0-1.522-1.405-1.756-3.511-1.756h-1.58v3.863H62.094z"/>
	<path d="M33.3,17.148l5.209-11.939h3.16l5.15,11.939h-3.219l-1.405-3.219h-5.501l-1.405,3.219H33.3z M37.397,12.349h4.155
		l-2.048-4.74L37.397,12.349z"/>
	<rect x="50.565" y="5.209" width="2.809" height="11.939"/>
	<path d="M91.883,16.738c-1.346,0.527-2.985,0.761-4.916,0.761c-2.341,0-4.214-0.585-5.501-1.697
		c-1.346-1.112-1.99-2.692-1.99-4.682c0-2.048,0.644-3.57,1.99-4.682s3.219-1.639,5.677-1.639c1.58,0,3.16,0.176,4.682,0.468v1.931
		c-1.756-0.527-3.394-0.761-4.565-0.761c-1.522,0-2.692,0.41-3.511,1.17c-0.819,0.819-1.229,1.931-1.229,3.453
		c0,1.463,0.41,2.575,1.346,3.394c0.878,0.819,2.107,1.229,3.687,1.229c1.405,0,2.985-0.293,4.389-0.878v1.931H91.883z"/>
	<path d="M95.277,17.148l5.209-11.939h3.16l5.15,11.939h-3.219l-1.405-3.219h-5.501l-1.405,3.219H95.277z M99.374,12.349h4.155
		l-2.048-4.74L99.374,12.349z"/>
	<path d="M129.748,17.148l5.209-11.939h3.16l5.15,11.939h-3.219l-1.405-3.219h-5.501l-1.405,3.219H129.748z M133.845,12.349H138
		l-2.048-4.74L133.845,12.349z"/>
	<path d="M162.463,17.148l5.209-11.939h3.16l5.15,11.939h-3.219l-1.405-3.219h-5.501l-1.405,3.219H162.463z M166.56,12.349h4.155
		l-2.048-4.74L166.56,12.349z"/>
	<polygon points="112.776,17.148 112.776,5.209 115.995,5.209 123.486,13.695 123.486,5.209 125.768,5.209 125.768,17.148 
		122.842,17.148 115.059,8.193 115.059,17.148 	"/>
	<path d="M147.247,17.148V5.209h5.794c2.048,0,3.629,0.527,4.74,1.463c1.112,0.995,1.639,2.399,1.639,4.214
		c0,1.99-0.585,3.511-1.756,4.565c-1.17,1.112-2.809,1.639-4.916,1.639h-5.501V17.148z M149.997,15.45h2.048
		c1.463,0,2.517-0.351,3.277-1.053c0.702-0.702,1.053-1.814,1.112-3.277c0-1.112-0.293-2.107-0.878-2.868
		c-0.41-0.527-0.878-0.878-1.405-1.112c-0.585-0.176-1.346-0.293-2.458-0.293h-1.697V15.45z"/>
</g>
</svg>
