<?xml version="1.0" encoding="utf-8"?>
<!-- Generator: Adobe Illustrator 22.1.0, SVG Export Plug-In . SVG Version: 6.00 Build 0)  -->
<svg version="1.1" id="Слой_1" xmlns="http://www.w3.org/2000/svg" xmlns:xlink="http://www.w3.org/1999/xlink" x="0px" y="0px"
	 width="1191.1px" height="521.2px" viewBox="0 0 1191.1 521.2" style="enable-background:new 0 0 1191.1 521.2;"
	 xml:space="preserve">
<style type="text/css">
	.st0{fill:#FF022A;}
	.st1{fill:#004088;}
</style>
<g>
	<path class="st0" d="M32.4,158.7c-0.6-1.2-1.2-2.5-1.9-3.6c-5.3-8.8-10.9-17.5-16-26.4c-8.2-14.5-13.3-30-14.1-46.8
		C0.3,78.9,0.1,76,0,73c0-1.5,0.3-3,0.4-4.8c4.9,2,8.6,5,11.8,8.4c5.3,5.5,10.6,11.2,15.4,17.2c7,8.6,14.9,16.2,22.7,24
		c0.3,0.3,0.7,0.5,1.5,0.4c-0.5-1.1-1-2.3-1.5-3.4c-5.2-10.5-10.5-21-15.5-31.6c-5.3-11.4-9.5-23.2-12-35.5
		c-2.3-11.1-2.9-22.3,0.3-33.4c1.5-5,5-11.1,8.8-14.3c1.4,2.7,2.8,5.2,4,7.9c3.8,8.4,6.8,17.1,11.4,25.2
		C54.4,45.4,62,57.4,70.4,68.8c13.3,18.2,27.3,35.7,42.1,52.6c15.5,17.7,31.3,35.2,46.7,53c9.3,10.7,18.7,21.4,28.5,31.6
		c10.6,11,21,22.2,31.5,33.3c11,11.7,22,23.5,33.1,35.1c3.8,3.9,7.9,7.5,12.1,10.9c4.9,4,10.4,7,16.7,8.3c4.5,0.9,7.2,3.5,8.7,7.9
		c2.4,7.3,4.1,14.8,5.1,22.4c0.7,4.9,1.2,9.9,1.4,14.8c0.4,8.8-1.2,17.4-2.9,26c-1.2,5.8-2.3,11.6-3.5,17.4
		c-0.1,0.7-0.4,1.3-0.7,2.3c-2.8-3-3.7-6.4-3.9-10.1c-0.4-5.8-1.3-11.6-3.6-16.9c-1.3-3-2.9-6-4.9-8.5c-3.6-4.4-8.2-4.6-12.9-1.3
		c-2.8,2-5.1,4.6-6.8,7.6c-6.9,11.8-9.3,24.5-6.2,37.9c2.6,11.4,9.6,18.8,21.3,21.2c5.9,1.2,11.9,2,17.8,2.9
		c6.9,1,13.8,1.9,20.4,4.3c2.4,0.9,4.7,2,6.9,3.8c-3.5,1.2-7.1,2.4-10.6,3.7c-5.6,2-11.1,4-16.6,6.3c-5.4,2.2-10.1,5.8-14.2,9.9
		c-12.6,12.5-23.3,26.5-31.7,42.1c-2,3.8-3.5,8-5.5,12.5c-0.1-1.3-0.4-2.3-0.3-3.2c0.2-9.5,3-18.4,7.1-26.9
		c3.6-7.5,8.3-14.3,12.9-21.2c2.3-3.5,4.5-6.9,6.8-10.4c0.9-1.4,1.6-2.9,2.5-4.6c-1.3-0.6-2.4-1.1-3.4-1.6
		c-5.3-2.6-10.8-4.9-15.9-7.9c-8.1-4.8-12.4-12.4-13.7-21.7c-1.5-10.6,0.1-21,2.6-31.3c2.2-9,5.5-17.6,10.4-25.5
		c2.7-4.3,6.2-7.8,10.6-10.3c5.9-3.3,11.2-2.9,16.4,1.5c1.9,1.6,3.5,3.5,5.3,5.2c0.6,0.6,1.3,1.2,2.5,1.6c-0.2-1.1-0.4-2.2-0.7-3.3
		c-2.7-9.9-7.4-18.9-12.8-27.6c-3.4-5.5-7.6-10.2-12-14.9c-8.6-9.3-17-18.7-25.6-28.1c-15.9-17.5-31.8-35-47.8-52.6
		c-0.5-0.6-1.1-1.2-2.3-1.6c0.3,1.7,0.6,3.5,0.9,5.2c2.6,11.6,7.8,22.1,14.9,31.5c5.3,7.1,11,13.9,16.4,21c2.6,3.4,4.9,7,7.3,10.5
		c0.6,0.9,1.1,2,1.9,3.7c-5.4-2.6-9.5-5.6-13.2-9.3c-5.3-5.3-10.3-10.8-15.5-16.2c-4.7-4.9-9.8-9.3-15.7-12.7
		c-1.6-0.9-3.3-1.7-5.2-2.6c-0.8,2.8,0.1,5.2,0.6,7.5c1.4,7.3,4.2,14.1,7.8,20.5c5.9,10.6,12.6,20.6,20.9,29.5
		c3,3.2,6.9,5.8,10.4,8.5c1,0.8,2.3,1.1,4.2,2.1c-2.9-8.6-7.3-15.7-10.4-24c4.7,2.9,7.6,7,11.4,9.9c3.7,2.9,7.8,5.3,11.9,8.1
		c-3.8,5.8-7.7,11.7-11.8,18c-11.3-17.7-26.4-30.6-45.3-40.2c0,1.4-0.1,2.1,0,2.9c1.8,11,5.5,21.3,11.6,30.6
		c2.1,3.2,3.8,6.5,5.9,9.7c3.9,5.8,8.3,9.7,13.5,12.1c0.6-9-3.5-16.4-7.4-23.9c2.8,2.7,5.4,5.7,8.5,8.1c3.1,2.3,6.7,3.9,10.4,6
		c-3,6.3-6.1,12.8-9.3,19.4c-11.3-10.3-22.5-19.9-36.4-25.7c-0.8,2.9-0.1,6.5,2.4,14.9c4.2,13.9,11.2,26,21.6,36.4
		c1.9-2.6,2.1-5.3,1.4-7.9c-1-3.9-2.3-7.7-3.6-11.5c-0.7-2.1-1.6-4.1-2-6.5c4.9,3.8,9.8,7.7,14.7,11.5c1,0.8,1.2,1.6,0.7,2.8
		c-1,2.5-1.9,5.1-2.9,7.6c-1.2,2.9-1.1,5.7,0.3,8.6c1.3,2.7,2.4,5.6,3.9,9c-3.9-0.7-7.1-1.2-10.3-1.9c-10.3-2.4-20-6.5-29.1-11.9
		c-8.9-5.3-17.6-11.1-26.5-16.6c-4.6-2.8-9.5-5.3-14.2-8c-0.3-0.2-0.7-0.1-1.3-0.2c-0.2,2,0.7,3.7,1.5,5.3c3,6.2,7.4,11.3,12.5,15.7
		c13,11.2,28.1,18.2,44.5,22.6c6.9,1.8,13.8,4,20.6,6.7c-2,0.3-3.9,0.6-5.9,0.8c-2,0.2-4,0.1-6,0.2c-12.7,0.5-24.6-2.8-36.4-6.9
		c-7.6-2.6-15.4-4.7-23.1-7c-1.5-0.5-3.2-0.5-5.1-0.9c0.2,1.3,0.3,2.2,0.5,3c3.5,11.8,11.2,19.6,22.9,23.1
		c6.4,1.9,13.1,2.9,19.7,4.2c7.3,1.5,14.6,2.8,21.9,4.3c1.2,0.2,2.4,0.8,4.3,1.4c-4.3,2.1-8.3,2.8-12.3,3.3c-8,1.1-16.1,1-24.1,0.6
		c-9.1-0.4-18.2-1-27.3-1.5c-0.5,0-1.1,0.2-1.9,0.3c2.6,7.6,7.1,13.2,14.2,16.6c5.7,2.8,11.9,4.1,18.2,4.3
		c9.1,0.3,18.2,0.4,27.3,0.5c1.2,0,2.3,0,3.5,0.2c-4.8,2.3-9.6,4.1-14.9,4.8c-6.9,0.9-13.8,2.2-20.6,3.5c-2.8,0.5-5.3,1.9-7.6,3.9
		c1.7,2.7,4.2,4.2,6.7,5.7c6.2,3.6,13,4.8,20.1,4.4c8.8-0.5,17.3-2.5,25.9-4.3c2.7-0.5,5.4-0.9,8.3-0.9c-11,4.4-21.7,9.3-31.4,16.9
		c0.8,0.5,1.4,0.9,2.1,1.3c7.2,3.3,14.7,3.6,22.2,1.3c4.7-1.5,9.4-3.3,14.1-4.9c1.8-0.6,2.2-1.9,2.2-3.5c0.1-11.7,0.5-23.4,0.3-35.1
		c-0.2-16-1.5-31.9-0.2-47.9c1.1-13.1,4-25.7,10.3-37.4c2.5-4.6,5.6-9,8.5-13.4c0.2,0.1,0.5,0.2,0.7,0.4c-1.4,4-2.8,8.1-4.4,12.1
		c-3.1,7.8-5.8,15.7-7.2,24.1c-1.8,10.9-1.5,21.7,2,32.3c2.4,7.5,7,13.4,13.6,17.6c3.2,2,6.5,3.8,9.8,5.7c0.8,0.5,1.6,1,2.6,1.7
		c-1.8,4.7-4,9.1-6.5,13.3c-2.3,3.9-4.8,7.6-7.5,11.2c-5.8,7.6-8.5,16.3-9.3,25.7c-0.9,10.6-1.4,21.2-2,31.9c0,0.5-0.1,1.1-0.3,2.1
		c-7.9-10.2-8.1-22.1-9.4-34.1c-4.5,0.6-8.6,1-12.6,1.7c-4.8,0.8-9.5,1.9-14.3,2.8c-8,1.6-15.5,0.4-22.3-4.3
		c-3.1-2.2-6.3-4.2-9.1-6.7c-4.3-3.8-9-7-14.2-9.2c-4.7-2-8.5-5.1-11.1-9.5c-0.8-1.4-1.3-3-1.9-4.5c-1-2.9-1.8-5.9-2.9-8.7
		c-1.1-2.9-3.2-5.3-6-6.8c-3.9-2-6.4-5.2-8.2-9c-1.4-3-2.5-6.1-3.8-9.2c-0.6-1.4-0.3-2.4,0.9-3.4c2.3-1.8,4.7-3,7.8-2.9
		c2.9,0.1,5.8,0,9,0c-3.7-2.8-7.2-5.2-10.4-8c-7.8-6.8-12.1-15.4-12.6-25.7c-0.1-2.9,0.4-5.9,1.1-8.7c0.9-3.7,0.9-7.2-0.1-10.8
		c-0.7-2.5-1.4-5-2.1-7.5c-2.4-8-3.9-16.1-3.8-24.5c0.1-3.1-0.9-5.8-3.1-8.1c-3.4-3.5-6.8-6.9-10.2-10.4
		c-15.1-15-28.7-31.2-39.3-49.7c-6-10.5-10.9-21.5-12.6-33.7c-0.7-5.3-1-10.6-1.8-15.9c-0.9-6.5-3.1-12.6-6.4-18.3
		c-1.3-2.2-2.7-4.5-4-6.7c-5.8-9.6-8.5-20.2-10.1-31.2c-0.4-2.7-0.7-5.4-1.1-8.7c3.7,1.7,7.1,3,10,5.5
		C29.3,156.4,30.9,157.5,32.4,158.7c0.1,0,0.1,0.2,0.1,0.3c0,0,0.2,0,0.2,0.1C32.6,158.9,32.5,158.8,32.4,158.7z M30.4,112.2
		c-0.2,0.6-0.4,0.9-0.4,1c0.7,2.2,1.4,4.5,2.3,6.7c4.4,11.4,10,22.2,16.4,32.6c7.8,12.7,16.8,24.6,26.2,36.2
		c5.4,6.6,11,13,16.6,19.5c9.5,11.1,18.9,22.2,28.4,33.1c8,9.2,16.1,18.3,24.3,27.3c6,6.5,12.3,12.8,18.5,19.2
		c1.7,1.7,3.7,3.1,5.8,4.8c0.3-0.8,0.6-1.1,0.6-1.4c0.2-6.4,0.6-12.8,0.5-19.1c-0.2-8.4-2.9-16-8.3-22.6c-2.8-3.5-5.6-7-8.3-10.6
		c-15.4-20.6-31.9-40.3-49.3-59.1c-19.3-20.9-39.6-40.7-61.7-58.7C38.2,118.1,34.3,115.3,30.4,112.2z M173.1,228
		c0.3-3.9-0.6-7.3-1.6-10.7c-2.8-9.3-7.3-17.7-12.5-25.7c-9.3-14.3-20.3-27.3-31.9-39.9c-7.4-8-15-15.8-22.6-23.6
		c-16.1-16.4-32.2-32.8-48.3-49.2c-0.6-0.6-1.4-1.2-2-1.8c-0.2,1.5,0.1,2.7,0.4,3.9c3.6,11.7,8.7,22.7,14.8,33.3
		c13.7,23.8,30.3,45.5,48,66.4c8.9,10.5,18,20.7,27.1,31c3.6,4.1,7.3,8.1,11.1,12C160.4,228.5,166.3,229.2,173.1,228z M41.9,179.9
		c-0.3,0.2-0.7,0.4-1,0.7c0.9,2.8,1.6,5.6,2.6,8.3c3.6,9.4,8.9,18,14.5,26.3c12.8,19,27.5,36.5,43.1,53.2
		c9.3,9.9,18.8,19.6,28.4,29.3c8.4,8.5,17.3,16.5,26.8,23.8c1.8,1.4,3.6,2.8,6.4,3.5c-0.3-3-0.4-5.6-0.7-8.1
		c-1.5-10.8-5.9-20.4-11.8-29.4c-5.8-8.8-13-16.5-20.6-23.9c-10.1-9.9-20.4-19.8-30.5-29.7c-7.5-7.4-14.9-14.9-22.5-22.2
		c-8.2-8-16.5-15.9-24.9-23.7C48.7,185,45.2,182.6,41.9,179.9z M62.3,243.8c0.4,2,0.6,3.4,1,4.7c2.6,9.2,7.5,17.3,12.7,25.2
		c10.3,15.4,22.5,29.3,35.5,42.4c14.6,14.7,30.1,28.4,47.2,40.2c6.5,4.5,13.3,8.6,20.7,11.5c0.9,0.4,1.9,0.5,3.7,1
		c-1.1-2.6-1.7-4.4-2.6-6.2c-3.5-7-8.1-13.3-12.9-19.5c-14.4-18.4-30.3-35.4-46.9-51.8c-10.6-10.5-21.5-20.6-33-30.1
		c-6.9-5.7-14-11.3-21.9-15.7C64.9,245,63.9,244.6,62.3,243.8z"/>
</g>
<g>
	<path class="st1" d="M466.2,248.3h-53.4l-9.4,21.8c-2.3,5.4-3.5,9.4-3.5,12c0,2.1,1,4,3,5.5c2,1.6,6.3,2.6,13,3.1v3.8h-43.5v-3.8
		c5.8-1,9.5-2.3,11.2-4c3.5-3.3,7.3-9.9,11.5-19.8l48.5-113.6h3.6l48,114.8c3.9,9.2,7.4,15.2,10.5,18c3.2,2.7,7.5,4.3,13.2,4.6v3.8
		h-54.5v-3.8c5.5-0.3,9.2-1.2,11.1-2.7c1.9-1.6,2.9-3.5,2.9-5.7c0-3-1.4-7.7-4.1-14.1L466.2,248.3z M463.3,240.8L439.9,185l-24,55.8
		H463.3z"/>
	<path class="st1" d="M585.7,290.8v3.8h-59.1v-3.8h4.9c5.7,0,9.8-1.7,12.4-5c1.6-2.2,2.4-7.4,2.4-15.7V181c0-7-0.4-11.6-1.3-13.8
		c-0.7-1.7-2.1-3.2-4.2-4.4c-3-1.6-6.1-2.4-9.4-2.4h-4.9v-3.8h59.1v3.8h-5c-5.6,0-9.7,1.7-12.3,5c-1.7,2.2-2.5,7.4-2.5,15.7v89.2
		c0,7,0.4,11.6,1.3,13.8c0.7,1.7,2.1,3.2,4.3,4.4c2.9,1.6,6,2.4,9.3,2.4L585.7,290.8L585.7,290.8z"/>
	<path class="st1" d="M731.6,294.6h-36.8L648,230c-3.5,0.1-6.3,0.2-8.4,0.2c-0.9,0-1.8,0-2.8-0.1c-1,0-2.1-0.1-3.2-0.2V270
		c0,8.7,0.9,14.1,2.8,16.2c2.6,3,6.4,4.5,11.6,4.5h5.4v3.8h-59.1v-3.8h5.2c5.8,0,10-1.9,12.5-5.7c1.4-2.1,2.1-7.1,2.1-15v-89
		c0-8.7-1-14.1-2.8-16.2c-2.6-3-6.6-4.5-11.8-4.5h-5.2v-3.8h50.3c14.7,0,25.5,1.1,32.4,3.2c7,2.1,12.9,6.1,17.7,11.8
		c4.9,5.7,7.3,12.6,7.3,20.5c0,8.5-2.8,15.8-8.3,22.1c-5.5,6.2-14.1,10.7-25.7,13.2l28.5,39.6c6.5,9.1,12.1,15.1,16.8,18.1
		s10.8,4.9,18.3,5.7V294.6z M633.6,223.6c1.3,0,2.4,0,3.4,0.1c0.9,0,1.7,0.1,2.3,0.1c13.2,0,23.1-2.8,29.8-8.5
		c6.7-5.7,10-13,10-21.8c0-8.6-2.7-15.6-8.1-21s-12.5-8.1-21.4-8.1c-3.9,0-9.3,0.6-16,1.9V223.6z"/>
</g>
<g>
	<path class="st1" d="M482.9,456.6l3.2,0.7l-11.4,36.2H371.4v-3.6h5c5.6,0,9.7-1.8,12.1-5.5c1.4-2.1,2.1-7,2.1-14.6v-86.1
		c0-8.3-0.9-13.5-2.8-15.6c-2.6-2.9-6.4-4.3-11.4-4.3h-5v-3.6h60.4v3.6c-7.1-0.1-12.1,0.6-14.9,2c-2.9,1.4-4.8,3.1-5.9,5.2
		s-1.6,7.1-1.6,15.1v83.8c0,5.4,0.5,9.2,1.6,11.2c0.8,1.4,2,2.4,3.6,3.1c1.6,0.7,6.8,1,15.4,1h9.7c10.2,0,17.4-0.8,21.6-2.3
		c4.1-1.5,7.9-4.2,11.3-8C476.1,470.9,479.5,464.8,482.9,456.6z"/>
	<path class="st1" d="M532.6,367.3V420h29.3c7.6,0,12.7-1.1,15.3-3.4c3.4-3,5.3-8.3,5.7-15.9h3.6v46.4h-3.6
		c-0.9-6.5-1.8-10.7-2.8-12.5c-1.2-2.3-3.1-4.1-5.8-5.4s-6.8-2-12.4-2h-29.3v44c0,5.9,0.3,9.5,0.8,10.8s1.4,2.3,2.8,3.1
		c1.3,0.8,3.8,1.1,7.5,1.1h22.6c7.5,0,13-0.5,16.4-1.6c3.4-1,6.7-3.1,9.8-6.2c4.1-4.1,8.2-10.2,12.5-18.4h3.9l-11.5,33.5H494.6v-3.6
		h4.7c3.1,0,6.1-0.8,9-2.3c2.1-1,3.5-2.6,4.3-4.7c0.8-2.1,1.1-6.4,1.1-12.9v-86.7c0-8.5-0.9-13.7-2.6-15.6
		c-2.4-2.6-6.3-3.9-11.8-3.9h-4.7v-3.6h102.8l1.5,29.2h-3.8c-1.4-7-2.9-11.8-4.6-14.5c-1.7-2.6-4.1-4.6-7.4-6
		c-2.6-1-7.2-1.5-13.9-1.5h-36.6V367.3z"/>
	<path class="st1" d="M675.7,489.8v3.6h-57.1v-3.6h4.7c5.5,0,9.5-1.6,12-4.8c1.6-2.1,2.4-7.1,2.4-15.2v-86.2
		c0-6.8-0.4-11.2-1.3-13.4c-0.7-1.6-2-3.1-4-4.2c-2.9-1.6-5.9-2.4-9.1-2.4h-4.7V360h57.2v3.6H671c-5.4,0-9.4,1.6-11.9,4.8
		c-1.6,2.1-2.5,7.2-2.5,15.2v86.2c0,6.8,0.4,11.2,1.3,13.4c0.7,1.6,2,3.1,4.1,4.2c2.8,1.6,5.8,2.4,9,2.4L675.7,489.8L675.7,489.8z"
		/>
	<path class="st1" d="M773.1,357v46.1h-3.6c-1.2-8.9-3.3-15.9-6.3-21.2c-3.1-5.2-7.4-9.4-13-12.5s-11.5-4.6-17.5-4.6
		c-6.8,0-12.5,2.1-16.9,6.2c-4.5,4.2-6.7,8.9-6.7,14.2c0,4.1,1.4,7.8,4.2,11.1c4.1,4.9,13.7,11.5,29,19.7
		c12.5,6.7,21,11.8,25.5,15.4c4.6,3.6,8.1,7.8,10.5,12.6c2.5,4.9,3.7,9.9,3.7,15.3c0,10.1-3.9,18.8-11.8,26.1
		c-7.8,7.3-17.9,11-30.3,11c-3.9,0-7.5-0.3-10.9-0.9c-2-0.3-6.2-1.5-12.6-3.6c-6.4-2.1-10.4-3.1-12.2-3.1c-1.6,0-2.9,0.5-3.9,1.5
		s-1.7,3-2.1,6.1h-3.6v-45.8h3.6c1.7,9.6,4,16.7,6.9,21.5s7.3,8.7,13.2,11.9c5.9,3.1,12.4,4.7,19.5,4.7c8.2,0,14.7-2.2,19.4-6.5
		c4.8-4.3,7.1-9.4,7.1-15.4c0-3.3-0.9-6.6-2.7-9.9s-4.6-6.5-8.4-9.3c-2.6-2-9.5-6.2-21-12.5c-11.4-6.4-19.5-11.5-24.4-15.3
		c-4.8-3.8-8.5-8-11-12.6s-3.7-9.6-3.7-15.2c0-9.6,3.7-17.8,11-24.7c7.3-6.9,16.7-10.4,28-10.4c7.1,0,14.6,1.7,22.5,5.2
		c3.7,1.6,6.3,2.5,7.8,2.5c1.7,0,3.1-0.5,4.2-1.5c1.1-1,2-3.1,2.6-6.2L773.1,357L773.1,357z"/>
	<path class="st1" d="M888.9,363.7v-3.6h47.2v3.6h-5c-5.2,0-9.3,2.2-12.1,6.6c-1.4,2-2.1,6.8-2.1,14.2v54.1c0,13.4-1.3,23.8-4,31.1
		c-2.7,7.4-7.9,13.7-15.6,19c-7.8,5.3-18.4,7.9-31.7,7.9c-14.6,0-25.6-2.5-33.2-7.6c-7.5-5.1-12.9-11.8-16-20.4
		c-2.1-5.8-3.1-16.8-3.1-32.9v-52.2c0-8.2-1.1-13.6-3.4-16.1c-2.3-2.6-5.9-3.8-11-3.8h-5V360h57.7v3.6h-5.1c-5.5,0-9.4,1.7-11.8,5.2
		c-1.6,2.4-2.5,7.3-2.5,14.8v58.2c0,5.2,0.5,11.1,1.4,17.8c1,6.7,2.7,11.9,5.2,15.6s6.1,6.8,10.8,9.2s10.4,3.6,17.3,3.6
		c8.7,0,16.5-1.9,23.4-5.7s11.6-8.7,14.1-14.6s3.8-16,3.8-30.2v-54c0-8.3-0.9-13.5-2.8-15.6c-2.6-2.9-6.4-4.3-11.4-4.3L888.9,363.7
		L888.9,363.7z"/>
	<path class="st1" d="M1074.5,493.5h-35.6l-45.2-62.4c-3.3,0.1-6.1,0.2-8.2,0.2c-0.9,0-1.8,0-2.8,0s-2-0.1-3.1-0.1V470
		c0,8.4,0.9,13.6,2.8,15.6c2.5,2.9,6.2,4.3,11.2,4.3h5.2v3.6h-57.2v-3.6h5c5.6,0,9.7-1.8,12.1-5.5c1.4-2,2.1-6.9,2.1-14.5v-86.2
		c0-8.4-0.9-13.6-2.8-15.6c-2.6-2.9-6.4-4.3-11.4-4.3h-5v-3.6h48.6c14.2,0,24.6,1,31.3,3.1c6.7,2.1,12.4,5.9,17.1,11.4
		s7,12.2,7,19.8c0,8.2-2.7,15.3-8,21.4c-5.3,6-13.6,10.3-24.8,12.8l27.6,38.3c6.3,8.8,11.7,14.6,16.2,17.5
		c4.5,2.9,10.4,4.7,17.7,5.5v3.5H1074.5z M979.7,424.9c1.2,0,2.3,0,3.2,0c0.9,0,1.7,0,2.3,0c12.7,0,22.3-2.8,28.8-8.3
		s9.7-12.5,9.7-21.1c0-8.3-2.6-15.1-7.8-20.3c-5.2-5.2-12.1-7.8-20.7-7.8c-3.8,0-9,0.6-15.4,1.9L979.7,424.9L979.7,424.9z"/>
	<path class="st1" d="M1114.8,367.3V420h29.3c7.6,0,12.7-1.1,15.3-3.4c3.4-3,5.3-8.3,5.7-15.9h3.6v46.4h-3.6
		c-0.9-6.5-1.8-10.7-2.8-12.5c-1.2-2.3-3.1-4.1-5.8-5.4c-2.7-1.3-6.8-2-12.4-2h-29.3v44c0,5.9,0.3,9.5,0.8,10.8s1.4,2.3,2.8,3.1
		c1.3,0.8,3.8,1.1,7.5,1.1h22.6c7.5,0,13-0.5,16.4-1.6c3.4-1,6.7-3.1,9.8-6.2c4.1-4.1,8.2-10.2,12.5-18.4h3.9l-11.5,33.5h-102.8
		v-3.6h4.7c3.1,0,6.1-0.8,9-2.3c2.1-1,3.5-2.6,4.3-4.7c0.8-2.1,1.1-6.4,1.1-12.9v-86.7c0-8.5-0.9-13.7-2.6-15.6
		c-2.4-2.6-6.3-3.9-11.8-3.9h-4.7v-3.6h102.8l1.5,29.2h-3.8c-1.4-7-2.9-11.8-4.6-14.5c-1.7-2.6-4.1-4.6-7.4-6
		c-2.6-1-7.2-1.5-13.9-1.5h-36.6V367.3z"/>
</g>
</svg>
