<?xml version="1.0" encoding="UTF-8"?>
<svg width="128px" height="23px" viewBox="0 0 128 23" version="1.1" xmlns="http://www.w3.org/2000/svg" xmlns:xlink="http://www.w3.org/1999/xlink">
    <!-- Generator: Sketch 49.1 (51147) - http://www.bohemiancoding.com/sketch -->
    <title>Aeroméxico_s</title>
    <desc>Created with Sketch.</desc>
    <defs>
        <polygon id="path-1" points="29.0792704 0.00564150943 6.51952462e-05 0.00564150943 6.51952462e-05 18.6144425 29.0792704 18.6144425"></polygon>
    </defs>
    <g id="AVIA" stroke="none" stroke-width="1" fill="none" fill-rule="evenodd">
        <g id="Aeroméxico_s">
            <path d="M126.935275,17.4055755 C126.526066,17.4055755 126.206392,17.089434 126.206392,16.6585094 C126.206392,16.2356132 126.526066,15.916 126.935275,15.916 C127.34231,15.916 127.659811,16.2356132 127.659811,16.6585094 C127.659811,17.089434 127.34231,17.4055755 126.935275,17.4055755 M126.935275,15.7671509 C126.443268,15.7671509 126.025366,16.145566 126.025366,16.6585094 C126.025366,17.1751415 126.443268,17.5524717 126.935275,17.5524717 C127.424022,17.5524717 127.83975,17.1751415 127.83975,16.6585094 C127.83975,16.145566 127.424022,15.7671509 126.935275,15.7671509" id="Fill-1" fill="#082B54"></path>
            <path d="M126.744905,16.5966698 L126.744905,16.2785755 L126.957441,16.2785755 C127.065665,16.2785755 127.182147,16.2994057 127.182147,16.4293774 C127.182147,16.5871226 127.065665,16.5966698 126.933753,16.5966698 L126.744905,16.5966698 Z M127.078487,16.720566 C127.230609,16.7036415 127.346222,16.6235755 127.346222,16.4397925 C127.346222,16.2356132 127.227784,16.145566 126.981781,16.145566 L126.589305,16.145566 L126.589305,17.1751415 L126.744905,17.1751415 L126.744905,16.7290283 L126.925278,16.7290283 L127.197577,17.1751415 L127.373169,17.1751415 L127.078487,16.720566 Z" id="Fill-3" fill="#082B54"></path>
            <path d="M20.0727905,7.10743396 C20.526984,7.11242453 20.8379654,7.24716981 21.0904883,7.36607547 C21.6163966,7.61516981 22.2322744,7.90180189 23.0041861,8.27414151 C23.0041861,8.27761321 24.2476767,7.38907547 24.3146105,7.34307547 C24.7392489,7.05666038 25.1469365,7.2749434 25.2790655,7.52208491 C25.743473,8.39716981 26.5997039,10.212434 27.0517243,11.8734245 C27.1036632,12.0736981 27.0408584,12.3809434 26.7287905,12.477717 C26.5481997,12.5280566 26.2389569,12.5731887 25.9155885,12.6139811 C25.4644374,12.6697453 25.4722608,13.0347075 25.4722608,13.2545094 C25.4722608,13.5281226 25.4759552,15.3592264 25.4759552,15.9865189 C25.4861691,16.3710094 25.1923559,17.6288491 23.7369806,17.6288491 L20.417456,17.6288491 C19.1615783,17.6340566 18.1519212,16.5730189 18.1451844,15.4453679 C18.1438805,14.7037264 18.1451844,9.54348113 18.1469229,8.9654434 C18.1527905,7.84864151 19.1576666,7.09463208 20.0727905,7.10743396" id="Fill-5" fill="#082B54"></path>
            <g id="Group-9" transform="translate(0.000000, 0.211340)">
                <mask id="mask-2" fill="white">
                    <use xlink:href="#path-1"></use>
                </mask>
                <g id="Clip-8"></g>
                <path d="M14.8206832,17.4175745 L4.02717555,17.4175745 L4.02717555,18.6144425 L16.6917868,18.6144425 C16.6917868,18.6144425 17.1514132,17.5557915 17.1514132,16.3836594 C17.1514132,16.3216028 17.1555423,8.25945189 17.1555423,8.25945189 C17.1555423,7.61957453 17.4163233,6.53510283 18.7352231,6.24847075 C18.7715151,6.24065943 18.8084591,6.23263113 18.8464896,6.22568774 C22.5836985,5.34452736 26.4358683,6.1467066 28.6107817,7.08146132 C29.0008666,7.27131981 29.0897494,6.96038585 29.0782316,6.8275934 C29.1227817,5.00191415 27.7330363,2.91998019 25.176948,2.79499906 C23.0983063,2.74726321 21.9465236,3.49085755 21.5247104,3.69655566 C21.488853,3.71456509 21.438218,3.70697075 21.3901908,3.65337642 C21.0079294,3.27669717 20.190381,2.71146132 19.2706934,2.45021604 C19.1326968,2.41940472 19.1220482,2.2160934 19.2785168,2.19981981 C21.2435015,1.98761226 22.9668292,2.2126217 23.6828903,2.32783868 C23.8487036,2.35626321 23.974965,2.25948962 23.9086832,2.10716887 C23.855875,1.99021604 23.8163233,1.93857453 23.7322214,1.75913113 C23.5568462,1.38201792 23.0946119,0.984942453 22.5065508,0.820036792 C20.9599022,0.390848113 18.3271008,0.0200273585 15.9839837,0.00592358491 C13.3448801,-0.01035 10.5614778,0.515395283 9.85867301,0.675310377 C9.69068659,0.710678302 9.45424516,0.771866981 9.4112163,0.778376415 C9.21932496,0.817433019 9.17347097,1.00034811 9.25822479,1.0890934 C9.30842513,1.14485755 9.45533175,1.26788585 9.52487334,1.35294245 C9.61180034,1.46230094 9.65135212,1.61700849 9.48684278,1.77865943 L4.60524007,6.15430094 L7.94519253,6.15430094 L7.98278846,6.15430094 C8.19967131,6.1467066 8.40655756,6.34611226 8.40655756,6.59498962 C8.40873073,6.81848019 8.22683599,7.03307453 7.99886995,7.03307453 L7.97235722,7.03307453 L3.63317895,7.03307453 L2.3053691,8.23927264 L7.98561358,8.23927264 L8.01755925,8.23645189 C8.24096163,8.23927264 8.41416367,8.46601792 8.41046927,8.67865943 C8.40873073,8.87133868 8.24400407,9.10893302 8.01755925,9.10893302 L7.98278846,9.1126217 L1.33222139,9.1126217 L0.00245568761,10.3097066 L11.4752978,10.3097066 L11.5122418,10.3112255 C11.7384693,10.3112255 11.9138445,10.5446972 11.9149311,10.7473575 C11.9186255,10.9816972 11.7521603,11.1917349 11.5207171,11.190867 L11.4896407,11.190867 L6.51952462e-05,11.190867 L6.51952462e-05,12.3875179 L11.4635626,12.3875179 L11.4978988,12.3903387 C11.7610703,12.3929425 11.9149311,12.6294519 11.9138445,12.8446972 C11.9118886,13.0467066 11.7210839,13.261084 11.4926832,13.261084 L11.4620414,13.261084 L6.51952462e-05,13.261084 L6.51952462e-05,14.4648953 L14.9654166,14.4648953 L15.0017087,14.4648953 C15.2514065,14.4718387 15.4102655,14.6855651 15.4030941,14.9194708 C15.3959226,15.1223481 15.2279362,15.3358575 15.0036645,15.3358575 L14.9701976,15.3358575 L4.03173922,15.3358575 L4.03173922,16.5422726 L14.8206832,16.5422726 L15.0499531,16.5396689 C15.2514065,16.5396689 15.426347,16.7902821 15.426347,16.9931594 C15.426347,17.1969047 15.2479294,17.4175745 15.0447375,17.4175745 L14.8206832,17.4175745 Z" id="Fill-7" fill="#082B54" mask="url(#mask-2)"></path>
            </g>
            <path d="M8.05878438,21.7657462 L8.05748048,22.9921236 C8.05748048,22.9921236 9.67932088,22.9971142 10.6042241,22.9921236 C12.8847538,22.9741142 14.3785942,21.7657462 14.3785942,21.7657462 L8.05878438,21.7657462 Z" id="Fill-10" fill="#082B54"></path>
            <path d="M8.05878438,19.7034708 L8.05748048,20.9031594 L15.383253,20.9031594 C15.720747,20.5592443 16.1547301,19.9347726 16.2705603,19.7062915 L8.05878438,19.7034708 Z" id="Fill-12" fill="#082B54"></path>
            <path d="M121.239383,16.3566887 C121.155716,16.3618962 121.075091,16.3664528 120.998813,16.3701415 C120.921665,16.3664528 120.84191,16.3658019 120.75846,16.3566887 C120.304049,16.3161132 119.944823,16.1538113 119.616456,15.9023302 C119.524096,15.824434 119.432171,15.7374245 119.342419,15.6356604 C118.864103,15.0979811 118.607017,14.1812358 118.545516,13.4591226 C118.405563,11.7705755 118.740884,9.3035 120.818005,9.13837736 C120.87103,9.13338679 120.921665,9.13338679 120.975777,9.13338679 C120.98121,9.13338679 120.99012,9.13078302 120.998813,9.13078302 C121.007723,9.13078302 121.014025,9.13338679 121.023587,9.13338679 C121.073135,9.13338679 121.126596,9.13338679 121.177231,9.13837736 C123.255872,9.3035 123.594018,11.7705755 123.454501,13.4591226 C123.393434,14.1812358 123.160253,15.0793208 122.656293,15.6356604 C122.564803,15.7374245 122.47266,15.824434 122.382908,15.9023302 C122.051933,16.1538113 121.664239,16.3239245 121.239383,16.3566887 M126.209434,12.2941509 C126.207696,12.2711509 126.205305,12.2524906 126.20248,12.2268868 C126.160755,11.2975566 125.852164,10.4641321 125.415574,9.81883019 C124.506969,8.39716981 122.914467,7.63014151 120.998813,7.65531132 C119.084246,7.63014151 117.490657,8.39716981 116.581183,9.81883019 C116.145679,10.4641321 115.836001,11.2975566 115.793407,12.2268868 C115.791669,12.2524906 115.788192,12.2711509 115.786236,12.2941509 C115.527193,15.4143396 117.347879,17.572217 120.453346,17.8219623 C120.640456,17.8371509 120.819526,17.8440943 120.998813,17.8423585 C121.177231,17.8440943 121.359995,17.8371509 121.545366,17.8219623 C124.649747,17.572217 126.471302,15.4143396 126.209434,12.2941509" id="Fill-14" fill="#082B54"></path>
            <path d="M105.562817,9.97247453 C105.562817,9.20067264 105.637357,7.84345566 105.637357,7.84345566 L105.636488,7.84345566 L103.092786,7.84345566 L103.088223,7.84345566 C103.088223,7.84345566 103.165588,9.20067264 103.165588,9.97247453 L103.160155,15.5339179 C103.160155,16.3072387 103.088223,17.6191066 103.088223,17.6191066 L103.096263,17.6191066 L105.632793,17.6191066 L105.637357,17.6191066 C105.637357,17.6191066 105.568902,16.3072387 105.568902,15.5339179 L105.562817,9.97247453 Z" id="Fill-16" fill="#082B54"></path>
            <path d="M90.6937589,16.1078113 C90.1595925,16.1078113 89.46309,16.1078113 88.9228387,16.1104151 C88.8978472,15.1279245 88.8871986,14.1784151 88.8854601,13.317434 L88.8800272,13.1826887 L88.8828523,13.1826887 L88.8828523,13.1596887 L91.8229406,13.1596887 L91.8229406,11.7768679 L88.8871986,11.7768679 C88.8943701,10.2881604 88.9228387,9.30957547 88.9228387,9.30957547 L92.5711647,9.30892453 L92.5711647,7.84191509 C90.0228998,7.85124528 86.3365433,7.84191509 86.3365433,7.84191509 C86.3365433,7.84191509 86.390438,9.19153774 86.390438,9.9635566 L86.390438,15.5143679 C86.390438,16.2204245 86.3469745,17.4207642 86.3382818,17.6173491 L92.8115178,17.6173491 L92.818472,16.0670189 C92.818472,16.0670189 91.5436876,16.1078113 90.6937589,16.1078113" id="Fill-18" fill="#082B54"></path>
            <path d="M48.2507409,16.1078113 C47.7193997,16.1078113 47.0178988,16.1078113 46.4785168,16.1104151 C46.4543946,15.1279245 46.4439633,14.1784151 46.439617,13.317434 L46.4376611,13.1826887 L46.439617,13.1826887 L46.439617,13.1596887 L49.3792706,13.1596887 L49.3792706,11.7768679 L46.4439633,11.7768679 C46.4520041,10.2881604 46.4785168,9.30957547 46.4785168,9.30957547 L50.129016,9.30892453 L50.129016,7.84191509 C47.5787952,7.85124528 43.8948292,7.84191509 43.8948292,7.84191509 C43.8948292,7.84191509 43.9491586,9.19153774 43.9491586,9.9635566 L43.9491586,15.5143679 C43.9491586,16.2204245 43.9046085,17.4207642 43.8970024,17.6173491 L50.3702384,17.6173491 L50.3756713,16.0670189 C50.3756713,16.0670189 49.1008869,16.1078113 48.2507409,16.1078113" id="Fill-20" fill="#082B54"></path>
            <path d="M99.0248204,12.3606557 L101.833866,7.84354245 L99.8871362,7.84354245 L99.8730105,7.8867217 C99.2827762,8.90241038 98.5493297,10.1335613 98.2563857,10.585316 L98.1438153,10.7660613 L96.5139341,7.84354245 L93.5886234,7.84354245 L96.4100564,12.9026745 L93.47062,17.6189764 L95.4067015,17.6189764 C96.6573637,15.4797594 97.3060564,14.4974858 97.3060564,14.4974858 L99.0504638,17.6189764 L101.965995,17.6189764 L99.0248204,12.3606557 Z" id="Fill-22" fill="#082B54"></path>
            <path d="M113.505315,16.2912038 C111.239345,16.2912038 110.018456,14.6284774 110.079739,12.5812604 C110.134721,10.7989774 110.949226,9.28314717 112.894653,9.15339245 C113.641138,9.10370377 114.247889,9.2321566 115.293838,9.5116283 L115.187352,7.98408113 C115.187352,7.98408113 114.301131,7.7015717 113.032215,7.65318491 C111.418415,7.59199623 109.957172,7.9016283 108.79235,8.97568491 C107.755094,9.92671321 107.136826,11.3347038 107.136826,12.700817 C107.136826,14.2129585 107.759875,15.6055434 108.928174,16.5711094 C110.143631,17.5959113 111.448622,17.8289491 113.000486,17.8289491 C114.017315,17.8289491 114.614938,17.760817 115.602646,17.4924113 L115.457912,15.9935057 C115.244289,16.0644585 114.530184,16.2912038 113.505315,16.2912038" id="Fill-24" fill="#082B54"></path>
            <path d="M80.802836,6.37577358 L83.6394812,6.37577358 L83.7190194,7.0299717 C84.3518479,13.5600189 84.7410635,17.6236415 84.7410635,17.6236415 L81.7877188,17.6236415 L81.4956441,13.5769434 L81.2239973,9.96095283 L78.7218037,17.6173491 C78.0620278,17.6190849 77.1416883,17.6173491 77.1416883,17.6173491 C77.1416883,17.6173491 76.3493487,14.8968396 76.2052672,14.5186415 L74.7722757,9.92536792 C74.7722757,9.92536792 74.5503946,12.4820566 74.467162,13.5743396 C74.2930907,15.766934 74.1405338,17.6236415 74.1405338,17.6236415 L71.9367171,17.6236415 C71.9367171,17.6236415 72.8390194,8.47788679 72.907257,7.92198113 C72.9761467,7.34980189 73.0837188,6.37577358 73.0837188,6.37577358 L75.9803436,6.37577358 L78.379746,12.9605 L80.802836,6.37577358 Z" id="Fill-26" fill="#082B54"></path>
            <path d="M65.7979545,16.3504396 C65.7171124,16.3595528 65.6382261,16.3610717 65.5615131,16.3619396 C65.4826268,16.3610717 65.4043925,16.3610717 65.3211599,16.3504396 C64.8663144,16.3089962 64.5110003,16.1492981 64.1824163,15.897817 C64.0883178,15.8244774 63.9996523,15.7322604 63.9085963,15.6348358 C63.4339749,15.0997604 63.176671,14.1862698 63.1158221,13.4635057 C62.9756523,11.7858075 63.3137983,9.33023208 65.3804876,9.16619434 C65.4332958,9.16402453 65.4843654,9.15968491 65.5363042,9.15968491 C65.543693,9.15968491 65.5521684,9.15599623 65.5615131,9.15968491 C65.5671633,9.15599623 65.5769426,9.15968491 65.5828102,9.15968491 C65.6338798,9.15968491 65.6866879,9.16402453 65.7392788,9.16619434 C67.8048815,9.33023208 68.1441141,11.7858075 68.0019885,13.4635057 C67.9428781,14.1862698 67.7090445,15.0793642 67.2081277,15.6348358 C67.1177236,15.7322604 67.0275368,15.8244774 66.9353942,15.897817 C66.608766,16.1492981 66.2234621,16.3176755 65.7979545,16.3504396 M70.7495334,12.3085151 C70.7467083,12.2852981 70.7419273,12.2622981 70.7408407,12.2438547 C70.7004197,11.3119208 70.3929154,10.4843547 69.9561073,9.84122264 C69.0535878,8.42498679 67.4678221,7.66338302 65.5615131,7.68898679 C63.6508577,7.66338302 62.0653093,8.42498679 61.1617032,9.84122264 C60.7296761,10.4843547 60.419564,11.3119208 60.3787083,12.2438547 C60.377839,12.2622981 60.3726234,12.2852981 60.3726234,12.3085151 C60.1109732,15.414383 61.9255742,17.5631472 65.0162635,17.8122415 C65.2003314,17.8246094 65.3804876,17.8289491 65.5615131,17.8289491 C65.7377576,17.8289491 65.9192177,17.8246094 66.1043722,17.8122415 C69.1928883,17.5631472 71.0090105,15.414383 70.7495334,12.3085151" id="Fill-28" fill="#082B54"></path>
            <path d="M36.0649453,12.8327632 L37.290616,9.19160283 L37.3636346,8.97700849 L38.6468944,12.8327632 L36.0649453,12.8327632 Z M43.2814071,17.6174142 C43.1949148,17.4162726 42.6705277,16.1770934 42.2858757,15.1768104 L38.9756958,6.37583868 L36.3983104,6.37583868 C36.3983104,6.37583868 35.6657331,8.43976321 35.5601168,8.77998962 L33.1428944,15.6029613 C32.8288706,16.4754425 32.3879334,17.61915 32.3879334,17.61915 L34.4911321,17.61915 C34.4911321,17.61915 35.0861474,15.7225179 35.2089317,15.3796877 L35.5331694,14.4327821 L39.178453,14.4327821 L39.6732849,15.8757066 C39.7791185,16.1460651 40.2091898,17.595933 40.2174479,17.6174142 L43.2814071,17.6174142 Z" id="Fill-30" fill="#082B54"></path>
            <path d="M56.0038248,12.1623132 C55.6243885,12.3580302 54.767071,12.3037849 54.3433019,12.2790491 L54.3756822,9.48368113 L54.6121236,9.46870943 C55.3925107,9.40643585 55.9618825,9.5116717 56.1954988,9.61712453 C56.5460319,9.77096415 56.750093,10.0981717 56.7689997,10.6514736 C56.7987722,11.4747 56.485183,11.9149547 56.0038248,12.1623132 Z M60.5016448,17.6189547 C59.8927212,16.7456057 59.6680149,16.384983 59.1996958,15.7464075 L57.4446397,13.0232943 C58.2893528,12.6069075 59.0825616,11.9088792 59.2033902,10.4481623 C59.2774954,9.53445472 58.7887484,8.77827547 58.4981949,8.52136981 C58.0755124,8.14577547 57.6647823,7.99345472 57.0801983,7.92206792 C56.6099233,7.86131321 56.2715599,7.85784151 55.9896992,7.84091698 L51.8556686,7.84091698 C51.8556686,7.84091698 51.9043477,9.19162453 51.9043477,9.96494528 L51.9043477,15.4921057 C51.9043477,16.2680302 51.8556686,17.6174358 51.8556686,17.6174358 L54.3987178,17.6174358 C54.3987178,17.6174358 54.3241779,16.2680302 54.3241779,15.4921057 L54.3433019,13.7195868 C54.3433019,13.7195868 54.8970268,13.7195868 55.2866771,13.7239264 L56.8950438,16.6677094 C57.1112747,17.0424358 57.4239946,17.511983 57.4978825,17.6189547 L60.5016448,17.6189547 Z" id="Fill-32" fill="#082B54"></path>
            <path d="M72.2028876,22.6740292 C72.2028876,22.6740292 76.6578961,19.0395953 87.9040761,19.0395953 C96.3794581,19.0395953 101.459254,21.7427462 111.369801,21.7427462 C120.284382,21.7427462 126.234317,18.6843972 126.234317,18.6843972 C126.234317,18.6843972 121.008918,22.7553972 110.523349,22.7553972 C100.037781,22.7553972 96.6943511,20.0160104 86.336565,20.0160104 C75.9787789,20.0160104 72.2028876,22.6740292 72.2028876,22.6740292" id="Fill-34" fill="#E44B42"></path>
        </g>
    </g>
</svg>