<?xml version="1.0" encoding="UTF-8"?>
<svg width="53px" height="23px" viewBox="0 0 53 23" version="1.1" xmlns="http://www.w3.org/2000/svg" xmlns:xlink="http://www.w3.org/1999/xlink">
    <!-- Generator: Sketch 49.1 (51147) - http://www.bohemiancoding.com/sketch -->
    <title>Aerolineas_Argentinas_s</title>
    <desc>Created with Sketch.</desc>
    <defs>
        <polygon id="path-1" points="0.0135758197 0.0376761905 15.5510471 0.0376761905 15.5510471 4.24746476 0.0135758197 4.24746476 0.0135758197 0.0376761905"></polygon>
    </defs>
    <g id="AVIA" stroke="none" stroke-width="1" fill="none" fill-rule="evenodd">
        <g id="Aerolineas_Argentinas_s">
            <path d="M49.1342799,7.43048952 C49.0154643,7.41340381 48.9068578,7.38952762 48.8049848,7.37923238 C48.7033291,7.35513714 48.5810381,7.3448419 48.465698,7.33126095 C48.3366734,7.32096571 48.2009152,7.31417524 48.0584234,7.31067048 C47.9022471,7.29358476 47.7189193,7.29358476 47.4949725,7.29358476 C47.2234561,7.29358476 46.9452061,7.32096571 46.6669561,7.36543238 C46.3750217,7.41690857 46.1239234,7.50912762 45.8997594,7.63573714 C45.6723373,7.76585143 45.4924848,7.94393714 45.349993,8.15948 C45.1972922,8.38203238 45.1295217,8.6558419 45.1295217,8.98769905 C45.1295217,9.48406095 45.4688086,9.92894667 46.0967717,10.3157848 L47.097907,10.9216705 C47.3592143,11.0686514 47.5221242,11.195261 47.5831611,11.2844133 C47.664616,11.3836419 47.6917676,11.4690705 47.6987184,11.5650133 C47.6917676,11.7190038 47.664616,11.8320324 47.6070545,11.931261 C47.5492758,12.0269848 47.4610873,12.1023371 47.3694234,12.157099 C47.2573414,12.2153657 47.1420012,12.2666229 47.006243,12.290499 C46.8602758,12.31788 46.7143086,12.3351848 46.5548742,12.3351848 C46.4632102,12.3351848 46.3411365,12.3351848 46.1984275,12.3248895 C46.0626693,12.31788 45.9099684,12.3110895 45.750534,12.3007943 C45.5943578,12.290499 45.4349234,12.2769181 45.2889561,12.2666229 C45.1295217,12.2495371 44.9937635,12.2324514 44.8580053,12.2221562 L44.7798086,12.2221562 C44.6440504,12.2153657 44.494825,12.3110895 44.474407,12.4547848 L44.4064193,12.8210324 L44.4064193,12.8313276 L44.4064193,12.8725086 C44.4064193,12.9511467 44.4335709,13.0297848 44.5082922,13.0709657 C44.5523865,13.1051371 44.6101652,13.1292324 44.6644684,13.1463181 C44.8002266,13.173699 44.9427184,13.20108 45.0852102,13.214661 C45.2481201,13.2352514 45.4010381,13.2591276 45.5604725,13.2661371 C45.7166488,13.2762133 45.8591406,13.2832229 46.0118414,13.2935181 C46.1578086,13.3003086 46.2935668,13.3003086 46.408907,13.3003086 L46.419116,13.3003086 C46.7245176,13.3003086 47.0199275,13.2762133 47.3116447,13.214661 C47.6070545,13.1566133 47.8683619,13.05388 48.0990422,12.9101848 C48.3299398,12.7697752 48.5132676,12.5816133 48.6590176,12.3522705 C48.794993,12.1058419 48.8729725,11.8114419 48.8729725,11.4690705 C48.8729725,11.2226419 48.794993,10.9900133 48.6490258,10.7777562 C48.5063168,10.5622133 48.2348004,10.3328705 47.8546775,10.0932324 L46.8602758,9.49435619 C46.6736898,9.37453714 46.531198,9.27180381 46.429325,9.17608 C46.3411365,9.0836419 46.307034,9.00478476 46.307034,8.89526095 C46.307034,8.76536571 46.3341857,8.67292762 46.3954398,8.59757524 C46.4530012,8.51893714 46.5379316,8.45716571 46.6398045,8.40590857 C46.7414602,8.35793714 46.8500668,8.32026095 46.985825,8.30668 C47.1148496,8.28608952 47.2438742,8.27250857 47.3592143,8.27250857 C47.664616,8.27250857 47.963284,8.27929905 48.2519602,8.29638476 C48.5404193,8.31347048 48.7778332,8.33055619 48.9646365,8.35465143 L49.0087307,8.35465143 C49.1579561,8.36494667 49.3141324,8.2519181 49.3278168,8.09792762 L49.3888537,7.75555619 L49.3888537,7.74876571 L49.3888537,7.69750857 C49.3888537,7.56060381 49.2700381,7.44757524 49.1342799,7.43048952 Z M42.7773209,11.7772705 C42.4821283,11.9586419 42.2275545,12.0955467 41.9968742,12.1879848 C41.759243,12.2837086 41.5148783,12.3351848 41.2705135,12.3351848 C41.0328824,12.3351848 40.8293537,12.2666229 40.659493,12.1229276 C40.503534,11.9928133 40.4118701,11.7531752 40.4118701,11.3665562 C40.4118701,11.2979943 40.4220791,11.2226419 40.4288127,11.1440038 C40.4355463,11.061861 40.4457553,10.9900133 40.462698,10.914661 L40.659493,9.85381333 C40.761366,9.32328 40.9446939,8.92965143 41.2264193,8.66263238 C41.5081447,8.3991181 41.9154193,8.26221333 42.4719193,8.26221333 C42.7028168,8.26221333 42.8996119,8.27250857 43.0590463,8.29638476 C43.1845955,8.30668 43.3068865,8.33055619 43.4222266,8.3476419 L42.7773209,11.7772705 Z M44.6983537,7.78994667 C44.6983537,7.63573714 44.5625955,7.56060381 44.4166283,7.53322286 C44.1349029,7.46466095 43.8295012,7.41340381 43.4902143,7.36214667 C43.1439766,7.32096571 42.8114234,7.29358476 42.4719193,7.29358476 C42.1326324,7.29358476 41.8033373,7.33805143 41.4877266,7.41690857 C41.1686406,7.49883238 40.8767061,7.63573714 40.6153988,7.8241181 C40.3438824,8.01228 40.1164602,8.26900381 39.9263988,8.57698476 C39.7432881,8.88518476 39.5973209,9.27180381 39.5123906,9.72369905 L39.3155955,10.7435848 C39.2680258,10.9591276 39.2408742,11.1713848 39.2408742,11.3836419 C39.2408742,11.7019181 39.291702,11.9928133 39.393575,12.2324514 C39.4852389,12.47888 39.6142635,12.6841276 39.7771734,12.8381181 C39.9468168,12.9956133 40.1403537,13.1119276 40.360825,13.1907848 C40.5815135,13.2661371 40.8089357,13.3003086 41.0565586,13.3003086 L41.0667676,13.3003086 C41.2500955,13.3003086 41.4197389,13.2935181 41.5759152,13.2661371 C41.7253578,13.2352514 41.8711078,13.20108 42.017075,13.1463181 C42.159784,13.0948419 42.2955422,13.026499 42.438034,12.9511467 C42.5160135,12.90668 42.6009439,12.8554229 42.695866,12.7971562 L42.6756652,12.8828038 L42.6756652,12.8895943 L42.6756652,12.9614419 C42.6756652,13.026499 42.695866,13.0880514 42.7299684,13.1393086 C42.7773209,13.214661 42.8657266,13.2317467 42.9471816,13.2317467 L43.3883414,13.2317467 C43.4663209,13.2317467 43.5512512,13.1975752 43.6122881,13.1463181 C43.6700668,13.0948419 43.7208947,13.026499 43.7276283,12.9511467 L44.6779357,7.89596571 C44.6983537,7.86179429 44.6983537,7.82740381 44.6983537,7.78994667 Z M37.8085709,9.7920419 L35.1003578,9.7920419 C35.1511857,9.58679429 35.2189561,9.40870857 35.3106201,9.2308419 C35.412493,9.04947048 35.524575,8.88518476 35.6705422,8.73448 C35.813034,8.59407048 35.9759439,8.48454667 36.1592717,8.40941333 C36.3493332,8.33055619 36.5528619,8.29638476 36.780284,8.29638476 C37.5440053,8.30668 37.8561406,8.59757524 37.8663496,9.27881333 C37.8663496,9.43608952 37.849407,9.60738476 37.8085709,9.7920419 Z M38.5112553,7.88567048 C38.3314029,7.69750857 38.1141898,7.56060381 37.8561406,7.45108 C37.5846242,7.34834667 37.2792225,7.29358476 36.9262512,7.29358476 C36.1251693,7.29358476 35.4463783,7.51613714 34.937448,7.9713181 C34.4215668,8.42299429 34.0820627,9.0836419 33.9124193,9.92215619 L33.7699275,10.634061 C33.7156242,10.8701943 33.6917307,11.0927467 33.6917307,11.2979943 C33.6917307,11.6574514 33.7597184,11.9689371 33.8954766,12.2324514 C34.0210258,12.4821657 34.2008783,12.6876324 34.414616,12.8484133 C34.6250955,13.0094133 34.8694602,13.1222229 35.1409766,13.1975752 C35.412493,13.2661371 35.6840094,13.3003086 35.9657348,13.3003086 C36.3493332,13.3003086 36.6784111,13.2832229 36.9738209,13.2591276 C37.2655381,13.2249562 37.5778906,13.1804895 37.9104439,13.1292324 C38.0123168,13.1119276 38.0937717,13.0880514 38.1615422,13.026499 C38.2158455,12.9682324 38.2397389,12.89288 38.2566816,12.8039467 L38.324452,12.4547848 L38.324452,12.4479943 L38.324452,12.3932324 C38.324452,12.3419752 38.2973004,12.2734133 38.249948,12.2392419 C38.1956447,12.19828 38.137866,12.1912705 38.0800873,12.1879848 L38.0190504,12.1879848 C37.747534,12.225661 37.448866,12.2563276 37.1026283,12.290499 C36.7633414,12.31788 36.4307881,12.3351848 36.111702,12.3351848 C35.7044275,12.3351848 35.3786078,12.2563276 35.1613947,12.0955467 C34.9474398,11.9415562 34.835575,11.7087086 34.835575,11.342461 C34.835575,11.2467371 34.835575,11.154299 34.855993,11.0515657 C34.8627266,10.9558419 34.8898783,10.8531086 34.9135545,10.7435848 L34.937448,10.6923276 L38.5451406,10.6923276 C38.6368045,10.6923276 38.7317266,10.6649467 38.7929807,10.5895943 C38.8403332,10.5313276 38.8674848,10.45948 38.8844275,10.3841276 L38.9760914,9.94953714 C39.0201857,9.72369905 39.0373455,9.5114419 39.0373455,9.31298476 C39.0373455,9.03216571 38.9965094,8.77566095 38.9083209,8.52572762 C38.826866,8.27929905 38.6978414,8.0670419 38.5112553,7.88567048 Z M32.9553783,7.78994667 C32.8094111,7.63573714 32.6226078,7.51613714 32.4021365,7.42369905 C32.181448,7.3448419 31.9166652,7.29358476 31.6045299,7.29358476 C31.2311406,7.29358476 30.8918537,7.34834667 30.6133865,7.44757524 C30.3894398,7.51942286 30.1789602,7.61186095 29.968698,7.71459429 L29.9754316,7.69049905 L29.9754316,7.68721333 L29.9754316,7.63573714 C29.9754316,7.57768952 29.9482799,7.50912762 29.9143947,7.45787048 C29.866825,7.3963181 29.7786365,7.36543238 29.7039152,7.36543238 L29.167616,7.36543238 C29.0861611,7.36543238 28.9979725,7.3963181 28.9401939,7.45108 C28.8826324,7.50912762 28.8283291,7.57768952 28.8146447,7.6530419 L27.830452,12.9101848 L27.830452,12.9614419 C27.830452,13.026499 27.8541283,13.0880514 27.8880135,13.1325181 C27.932325,13.20108 28.0137799,13.2317467 28.0917594,13.2317467 L28.6347922,13.2317467 C28.7197225,13.2317467 28.7942266,13.20108 28.8622143,13.1463181 C28.9299848,13.0948419 28.9842881,13.026499 28.9979725,12.9511467 L29.8057881,8.6558419 C30.1383414,8.51192762 30.3996488,8.41620381 30.6203373,8.36494667 C30.8510176,8.32026095 31.0614971,8.29638476 31.2719766,8.29638476 C31.6553578,8.28959429 31.9099316,8.36494667 32.0118045,8.46746095 C32.1204111,8.58728 32.1881816,8.74828 32.1881816,8.9741181 C32.1881816,9.04947048 32.181448,9.13489905 32.1747143,9.2308419 C32.1645053,9.33007048 32.1542963,9.42579429 32.1306201,9.52852762 L31.5636939,12.8998895 L31.5636939,12.9511467 C31.5636939,13.026499 31.5773783,13.1051371 31.6384152,13.1566133 C31.699452,13.20108 31.7674398,13.2249562 31.8421611,13.2249562 L32.368034,13.2249562 C32.4462307,13.2249562 32.5276857,13.1907848 32.5954561,13.1325181 C32.6634439,13.0880514 32.7075381,13.0197086 32.7312143,12.9408514 L33.3083496,9.55590857 C33.3422348,9.35745143 33.3626529,9.16907048 33.3626529,8.98769905 C33.3626529,8.75156571 33.3285504,8.53602286 33.2607799,8.33055619 C33.199743,8.12530857 33.0911365,7.94393714 32.9553783,7.78994667 Z M26.9207635,6.82460381 L27.5148414,6.82460381 C27.5826119,6.82460381 27.6505996,6.81430857 27.7081611,6.76655619 C27.7422635,6.73917524 27.8033004,6.69799429 27.8541283,6.64323238 L28.9640873,5.70198476 C29.0183906,5.66102286 29.0590094,5.60954667 29.0590094,5.53090857 C29.0590094,5.40429905 28.9232512,5.37012762 28.8485299,5.3631181 L28.1154357,5.3631181 C28.0409316,5.37012762 27.9729439,5.38042286 27.911907,5.42138476 C27.8710709,5.45555619 27.830452,5.49673714 27.7624643,5.54799429 L26.8258414,6.47215619 C26.7782717,6.52341333 26.7341775,6.57488952 26.7239684,6.6603181 C26.7239684,6.76655619 26.8462594,6.82460381 26.9207635,6.82460381 Z M27.5487266,7.36543238 L27.0226365,7.36543238 C26.9377061,7.36543238 26.8597266,7.3963181 26.7919561,7.45108 C26.7239684,7.50912762 26.6763988,7.57768952 26.656198,7.6530419 L25.6752635,12.9101848 L25.6752635,12.9614419 C25.6752635,13.0297848 25.6922061,13.1119276 25.753243,13.1634038 C25.8042881,13.214661 25.8787922,13.2317467 25.9467799,13.2317467 L26.4796037,13.2317467 C26.564534,13.2317467 26.6425135,13.20108 26.7105012,13.1463181 C26.7782717,13.0948419 26.8191078,13.026499 26.8462594,12.9511467 L27.830452,7.69049905 L27.830452,7.63573714 C27.830452,7.56060381 27.8033004,7.4920419 27.7422635,7.44078476 C27.6946939,7.38952762 27.6164971,7.36543238 27.5487266,7.36543238 Z M25.9128947,5.84239429 C25.9128947,5.77405143 25.895952,5.71228 25.844907,5.65072762 C25.7940791,5.60275619 25.7193578,5.59246095 25.6583209,5.59246095 L25.0814029,5.59246095 C24.9115422,5.57537524 24.7588414,5.69519429 24.7418988,5.87328 L23.418202,12.9101848 L23.418202,12.9614419 C23.418202,13.0297848 23.4351447,13.1051371 23.4861898,13.1566133 C23.5370176,13.2078705 23.6050053,13.2317467 23.6727758,13.2317467 L24.2496939,13.2317467 C24.3278906,13.2317467 24.4195545,13.1975752 24.4703824,13.1393086 C24.5314193,13.0880514 24.5722553,13.026499 24.589198,12.9511467 L25.9128947,5.90066095 L25.9128947,5.84239429 Z M22.0877717,9.58679429 C22.0775627,9.6825181 22.0708291,9.77846095 22.0436775,9.88798476 L21.9011857,10.6682324 C21.8570914,10.9216705 21.7891037,11.1372133 21.687448,11.342461 C21.585575,11.5376324 21.4667594,11.7019181 21.3140586,11.8456133 C21.1783004,11.9928133 21.008657,12.1023371 20.8218537,12.1809752 C20.6352676,12.2666229 20.4247881,12.3078038 20.1941078,12.3078038 C19.7698906,12.3078038 19.4983742,12.2153657 19.3387225,12.0613752 C19.1758127,11.8970895 19.0910996,11.650661 19.0910996,11.2979943 C19.0910996,11.1269181 19.1080422,10.9317467 19.1588701,10.7094133 L19.2946283,9.92894667 C19.3965012,9.4157181 19.5830873,9.02208952 19.8817553,8.72418476 C20.1702143,8.44008 20.5333947,8.29638476 20.9917143,8.29638476 C21.4159316,8.29638476 21.687448,8.38882286 21.8503578,8.55310857 C22.0097922,8.71739429 22.0947225,8.97061333 22.0947225,9.32328 C22.0947225,9.40870857 22.0947225,9.50114667 22.0877717,9.58679429 Z M22.7326775,7.87537524 C22.5460914,7.69049905 22.3151939,7.55030857 22.0606201,7.44757524 C21.7891037,7.34834667 21.4769684,7.29358476 21.1274725,7.29358476 C19.4642717,7.28679429 18.4223004,8.17656571 18.1168988,9.88798476 L17.9709316,10.6682324 C17.9539889,10.7709657 17.9472553,10.8701943 17.9370463,10.9661371 C17.9201037,11.0583562 17.9201037,11.154299 17.9201037,11.2570324 C17.9201037,11.5547181 17.9709316,11.8320324 18.0558619,12.078461 C18.150784,12.3281752 18.2865422,12.5472229 18.4631365,12.7285943 C18.6497225,12.9101848 18.8704111,13.05388 19.1249848,13.1566133 C19.3965012,13.2523371 19.7019029,13.3003086 20.041407,13.3003086 C20.4825668,13.3003086 20.8831078,13.2420419 21.2291283,13.1222229 C21.5686324,12.9956133 21.874034,12.8245371 22.1218742,12.598699 C22.3662389,12.3761467 22.5697676,12.1023371 22.7224684,11.7875657 C22.8853783,11.46228 22.9939848,11.1098324 23.0721816,10.7094133 L23.2146734,9.92894667 C23.231616,9.82643238 23.241825,9.73399429 23.2587676,9.63126095 C23.2655012,9.52852762 23.2655012,9.43280381 23.2655012,9.33007048 C23.2655012,9.03917524 23.231616,8.76536571 23.139952,8.51893714 C23.0450299,8.26900381 22.9092717,8.04995619 22.7326775,7.87537524 Z M18.2765504,8.03966095 L18.3443209,7.60156571 L18.3545299,7.59477524 L18.3545299,7.5435181 C18.3545299,7.47495619 18.3206447,7.3963181 18.2593906,7.34834667 C18.2018291,7.31067048 18.1338414,7.29358476 18.0491283,7.29358476 L18.0321857,7.29358476 C17.7674029,7.29358476 17.4958865,7.32775619 17.2243701,7.38952762 C17.0036816,7.44078476 16.7832102,7.5435181 16.5455791,7.69049905 L16.5455791,7.63573714 C16.5455791,7.56060381 16.5286365,7.4920419 16.4775914,7.44078476 C16.4267635,7.38952762 16.3520422,7.36543238 16.2842717,7.36543238 L15.7649152,7.36543238 C15.6799848,7.36543238 15.6054807,7.3963181 15.527284,7.45108 C15.4764561,7.50912762 15.4256283,7.57768952 15.4084684,7.6530419 L14.4242758,12.9101848 L14.4242758,12.9614419 C14.4242758,13.0297848 14.4412184,13.1051371 14.5024725,13.1566133 C14.5533004,13.2078705 14.6210709,13.2317467 14.6890586,13.2317467 L15.2320914,13.2317467 C15.3237553,13.2317467 15.3915258,13.20108 15.4595135,13.1463181 C15.527284,13.0948419 15.5783291,13.026499 15.5952717,12.9511467 L16.3928783,8.6797181 C16.647452,8.53602286 16.8781324,8.44008 17.0818783,8.38203238 C17.3023496,8.32026095 17.563657,8.29638476 17.8692758,8.29638476 L17.9031611,8.29638476 C18.0830135,8.30668 18.242448,8.21095619 18.2765504,8.03966095 Z M13.1685668,9.7920419 L10.4703455,9.7920419 C10.5144398,9.58679429 10.5824275,9.40870857 10.6740914,9.2308419 C10.7690135,9.04947048 10.8878291,8.88518476 11.0303209,8.73448 C11.1762881,8.59407048 11.3357225,8.48454667 11.5225258,8.40941333 C11.7091119,8.33055619 11.9128578,8.29638476 12.1435381,8.29638476 C12.9072594,8.30668 13.2126611,8.59757524 13.2296037,9.27881333 C13.2296037,9.43608952 13.2126611,9.60738476 13.1685668,9.7920419 Z M13.881243,7.88567048 C13.694657,7.69750857 13.4739684,7.55359429 13.2126611,7.45108 C12.9478783,7.34834667 12.6424766,7.29358476 12.2860299,7.29358476 C11.4816898,7.29358476 10.8098496,7.51613714 10.300702,7.9713181 C9.7848209,8.42299429 9.43510779,9.0836419 9.26546434,9.92215619 L9.12297254,10.634061 C9.07887828,10.8701943 9.05498484,11.0927467 9.05498484,11.2979943 C9.05498484,11.6607371 9.12297254,11.9689371 9.25873074,12.2324514 C9.38427992,12.4821657 9.55392336,12.6876324 9.77461189,12.8484133 C9.99530041,13.0094133 10.2327143,13.1222229 10.5042307,13.1975752 C10.7690135,13.2661371 11.0472635,13.3003086 11.3187799,13.3003086 L11.3289889,13.3003086 C11.7091119,13.3003086 12.0316734,13.2832229 12.337075,13.2523371 C12.625534,13.2249562 12.9411447,13.1804895 13.2704398,13.1292324 C13.3720955,13.1119276 13.4570258,13.0880514 13.5250135,13.026499 C13.5758414,12.9682324 13.602993,12.89288 13.6199357,12.8039467 L13.6879234,12.4547848 L13.6879234,12.4479943 L13.6879234,12.3932324 C13.6879234,12.3419752 13.6607717,12.2734133 13.6097266,12.2392419 C13.5588988,12.19828 13.5011201,12.1912705 13.4400832,12.1879848 L13.3720955,12.1879848 C13.1107881,12.225661 12.8053865,12.2563276 12.4660996,12.290499 C12.1265955,12.31788 11.7940422,12.3351848 11.4714807,12.3351848 C11.0574725,12.3351848 10.7418619,12.2563276 10.5211734,12.0955467 C10.3109111,11.9415562 10.1988291,11.7087086 10.1988291,11.342461 C10.1988291,11.2467371 10.1988291,11.154299 10.2157717,11.0447752 C10.2259807,10.9558419 10.2429234,10.8531086 10.2837594,10.7435848 L10.2939684,10.6923276 L13.8981857,10.6923276 C14.0000586,10.6923276 14.095198,10.6649467 14.1527594,10.5895943 C14.2038045,10.5313276 14.2309561,10.45948 14.2478988,10.3841276 L14.3326119,9.94953714 C14.373448,9.72369905 14.4005996,9.5114419 14.4005996,9.31298476 C14.4005996,9.03216571 14.3565053,8.77566095 14.271575,8.52572762 C14.1968537,8.27929905 14.0508865,8.06375619 13.881243,7.88567048 Z M4.93141107,9.75108 L6.3298291,7.20793714 C6.39086598,7.09841333 6.51641516,7.08132762 6.60134549,7.08833714 C6.77098893,7.09841333 6.78793156,7.20793714 6.78793156,7.20793714 L7.08659959,9.75108 L4.93141107,9.75108 Z M7.66351762,6.49953714 C7.58553811,6.39001333 7.50060779,6.30108 7.39873484,6.24281333 C7.2970791,6.17447048 7.17826352,6.12299429 7.06965697,6.10590857 C6.95084139,6.08203238 6.83875943,6.07173714 6.73710369,6.07173714 C6.61828811,6.07173714 6.50968156,6.08203238 6.38065697,6.11269905 C6.25510779,6.14008 6.1260832,6.18126095 6.00726762,6.24281333 C5.88845205,6.30108 5.76963648,6.38650857 5.66798074,6.49274667 C5.55937418,6.60227048 5.45750123,6.74596571 5.37952172,6.91025143 L2.1313168,12.8484133 C2.11437418,12.8895943 2.10416516,12.9408514 2.10416516,12.9923276 C2.10416516,13.0606705 2.121325,13.1292324 2.18236189,13.1666895 C2.23318975,13.214661 2.29096844,13.2317467 2.35873893,13.2317467 L3.03079631,13.2317467 C3.09878402,13.2317467 3.16655451,13.2078705 3.2243332,13.1666895 C3.27516107,13.1292324 3.32598893,13.0777562 3.35314057,13.0197086 L4.46309959,10.7094133 L7.1613209,10.7094133 L7.4328373,12.9853181 C7.4328373,13.0435848 7.45998893,13.0983467 7.49387418,13.1393086 C7.53449303,13.20108 7.61268975,13.2317467 7.68046025,13.2317467 L8.34230861,13.2317467 C8.41702992,13.2317467 8.50196025,13.2078705 8.55278811,13.1463181 C8.613825,13.0948419 8.63771844,13.012699 8.63771844,12.934061 L8.63771844,12.8828038 L7.79927582,6.93412762 C7.7823332,6.76305143 7.73150533,6.61935619 7.66351762,6.49953714 Z" id="Fill-1" fill="#0081C6"></path>
            <g id="Group-5" transform="translate(0.000000, 13.762324)" fill="#A6A8AB">
                <path d="M2.83395779,3.69642857 L4.23563402,1.14649524 C4.28646189,1.04398095 4.4291709,1.02667619 4.50715041,1.03018095 C4.67679385,1.03697143 4.69395369,1.14649524 4.69395369,1.14649524 L4.98914631,3.69642857 L2.83395779,3.69642857 Z M5.56606434,0.444885714 C5.49829385,0.335361905 5.40662992,0.24292381 5.30475697,0.181371429 C5.20288402,0.113028571 5.09101926,0.0685619048 4.97220369,0.0444666667 C4.85338811,0.0273809524 4.74478156,0.0170857143 4.63269959,0.0170857143 C4.52409303,0.0170857143 4.41222828,0.0273809524 4.28646189,0.0512571429 C4.15765451,0.0786380952 4.03210533,0.12332381 3.91328975,0.188161905 C3.78426516,0.24292381 3.67565861,0.335361905 3.56357664,0.438095238 C3.4619209,0.547619048 3.37025697,0.68452381 3.27511762,0.848809524 L0.0338635246,6.78697143 C0.0169209016,6.83165714 -2.17213115e-05,6.87940952 -2.17213115e-05,6.93417143 C-2.17213115e-05,6.99922857 0.027129918,7.07107619 0.0779577869,7.11225714 C0.129002869,7.15321905 0.196773361,7.17030476 0.254552049,7.17030476 L0.933343033,7.17030476 C1.00111352,7.17030476 1.06910123,7.14642857 1.13013811,7.11225714 C1.1811832,7.07107619 1.23201107,7.01981905 1.2556873,6.96505714 L2.37585533,4.6547619 L5.07407664,4.6547619 L5.3284332,6.93088571 C5.34559303,6.98214286 5.36253566,7.03690476 5.3964209,7.08487619 C5.44051516,7.14642857 5.51523648,7.17030476 5.58300697,7.17030476 L6.24485533,7.17030476 C6.32978566,7.17030476 6.40776516,7.15321905 6.46554385,7.09517143 C6.51637172,7.0334 6.53331434,6.95826667 6.53331434,6.87261905 L6.53331434,6.82815238 L5.70182254,0.872685714 C5.68487992,0.701609524 5.63405205,0.564704762 5.56606434,0.444885714 Z M31.9370398,1.56750476 L31.4076914,1.56750476 C31.3397037,1.56750476 31.2719332,1.59488571 31.2039455,1.63606667 C31.156593,1.68732381 31.1122816,1.74559048 31.0886053,1.80714286 L30.1519824,6.90679048 L30.1519824,6.95826667 C30.1519824,7.08487619 30.2469045,7.17030476 30.3759291,7.17030476 L30.8985439,7.17030476 C30.9765234,7.17030476 31.0445111,7.14642857 31.1022898,7.1019619 C31.1633266,7.05070476 31.1972119,6.99922857 31.2141545,6.93088571 L32.1542529,1.83101905 L32.1542529,1.78326667 C32.1542529,1.65315238 32.0625889,1.56750476 31.9370398,1.56750476 Z M19.8376176,3.82654286 L19.8376176,3.84362857 L17.020798,3.84362857 C17.0716258,3.61078095 17.1496053,3.39874286 17.2412693,3.20357143 C17.3431422,3.01190476 17.4721668,2.84082857 17.6146586,2.69012381 C17.7606258,2.54993333 17.9302693,2.43011429 18.1168553,2.3547619 C18.3103922,2.27612381 18.5241299,2.23494286 18.7617611,2.23494286 C19.542425,2.24173333 19.8886627,2.56701905 19.8988717,3.27892381 C19.8988717,3.43970476 19.8817119,3.62808571 19.8376176,3.82654286 Z M20.4588471,1.90987619 C20.2889865,1.73179048 20.0685152,1.59488571 19.8139414,1.4991619 C19.5593676,1.3896381 19.2606996,1.34517143 18.9042529,1.34517143 C18.1068635,1.34517143 17.4619578,1.56071429 16.9528102,2.0056 C16.4436627,2.45070476 16.1043758,3.09755238 15.9347324,3.92226667 L15.7989742,4.6409619 C15.7479291,4.87030476 15.7309865,5.09285714 15.7309865,5.29131429 C15.7309865,5.64726667 15.7920234,5.94845714 15.9175725,6.19839048 C16.0465971,6.44481905 16.2162406,6.65006667 16.4267201,6.80427619 C16.630466,6.96505714 16.8678799,7.07107619 17.1393963,7.1396381 C17.4041791,7.20798095 17.6654865,7.24215238 17.9370029,7.24215238 L17.9472119,7.24215238 C18.3273348,7.24215238 18.6498963,7.23207619 18.9485643,7.19768571 C19.243757,7.17030476 19.5491586,7.12934286 19.8817119,7.07107619 C19.9835848,7.05399048 20.0515725,7.0334 20.109134,6.98214286 C20.1432365,6.93417143 20.1703881,6.87261905 20.1873307,6.79398095 L20.2551012,6.44481905 L20.2618348,6.43802857 L20.2618348,6.3935619 C20.2618348,6.29082857 20.1703881,6.23935238 20.0583061,6.23935238 L20.0005275,6.23935238 C19.7359619,6.27374286 19.430343,6.30791429 19.0910561,6.33529524 C18.7448184,6.36618095 18.4122652,6.38326667 18.0897037,6.38326667 C17.6756955,6.38326667 17.3431422,6.29761905 17.1157201,6.12982857 C16.8850398,5.97255238 16.7662242,5.7090381 16.7662242,5.33249524 C16.7662242,5.23655238 16.7662242,5.14411429 16.7831668,5.0416 C16.7933758,4.93886667 16.817052,4.83613333 16.8509373,4.72310476 L16.8780889,4.63767619 L20.5164086,4.63767619 C20.611548,4.63767619 20.6862693,4.60679048 20.7370971,4.55202857 C20.7709824,4.50427619 20.798134,4.44250476 20.8150766,4.36737143 L20.900007,3.92905714 C20.9508348,3.71351429 20.9677775,3.50125714 20.9677775,3.3028 C20.9747283,3.03249524 20.9236832,2.7825619 20.8491791,2.53613333 C20.7642488,2.29649524 20.6352242,2.08774286 20.4588471,1.90987619 Z M26.1335398,1.82422857 C25.9908307,1.6702381 25.8109783,1.55041905 25.600716,1.46477143 C25.3800275,1.37934286 25.1254537,1.34517143 24.8267857,1.34517143 C24.4533963,1.34517143 24.1243184,1.3896381 23.842593,1.49215238 C23.5982283,1.57429524 23.3605971,1.67702857 23.122966,1.79684762 L23.1399086,1.67702857 L23.1399086,1.62905714 C23.1399086,1.57429524 23.122966,1.52654286 23.0890807,1.48886667 C23.0551955,1.43739048 22.9941586,1.41351429 22.9194373,1.41351429 L22.3831381,1.41351429 C22.3153676,1.41351429 22.2473799,1.43739048 22.1896012,1.48886667 C22.1387734,1.53333333 22.0946791,1.5916 22.0777365,1.65994286 L21.1035357,6.90679048 L21.1035357,6.95826667 C21.1035357,7.00952381 21.1206955,7.06078095 21.1443717,7.1019619 C21.188466,7.15321905 21.2462447,7.17030476 21.3072816,7.17030476 L21.857048,7.17030476 C21.9250357,7.17030476 21.9928061,7.14642857 22.053843,7.1019619 C22.1116217,7.05070476 22.145507,6.9924381 22.1726586,6.93088571 L22.9769988,2.61148571 C23.3165029,2.45749524 23.6049619,2.36155238 23.8256504,2.31029524 C24.0563307,2.2590381 24.2770193,2.23494286 24.4874988,2.23494286 C24.8878225,2.23494286 25.1423963,2.31029524 25.2679455,2.43011429 C25.3969701,2.55321905 25.4547488,2.72451429 25.4547488,2.96393333 C25.4547488,3.04607619 25.447798,3.13500952 25.4378061,3.23445714 C25.4308553,3.33697143 25.4206463,3.43291429 25.4037037,3.52535238 L24.769007,6.90679048 L24.769007,6.95826667 C24.769007,7.08487619 24.8606709,7.17030476 24.9896955,7.17030476 L25.5157857,7.17030476 C25.590507,7.17030476 25.6582775,7.14642857 25.7193143,7.1019619 C25.777093,7.05399048 25.8109783,6.99922857 25.8381299,6.93088571 L26.4728266,3.5424381 C26.5067119,3.34726667 26.5203963,3.15910476 26.5203963,2.97773333 C26.5203963,2.75518095 26.4967201,2.54292381 26.4287324,2.34446667 C26.3609619,2.14250476 26.2590889,1.96792381 26.1335398,1.82422857 Z M37.340216,1.82422857 C37.1977242,1.6702381 37.0178717,1.55041905 36.804134,1.46477143 C36.5869209,1.37934286 36.3288717,1.34517143 36.0336791,1.34517143 C35.6500807,1.34517143 35.3207857,1.3896381 35.0492693,1.49215238 C34.8016463,1.57429524 34.5640152,1.67702857 34.326384,1.79684762 L34.346802,1.67702857 L34.346802,1.62905714 C34.346802,1.5778 34.326384,1.52654286 34.2924988,1.48886667 C34.2586135,1.43739048 34.1906258,1.41351429 34.1228553,1.41351429 L33.5900316,1.41351429 C33.5118348,1.41351429 33.4440643,1.43739048 33.3964947,1.48886667 C33.3421914,1.53333333 33.3083061,1.59488571 33.2844127,1.65994286 L32.3002201,6.90679048 L32.3002201,6.95826667 C32.3002201,7.00952381 32.3241135,7.06078095 32.3512652,7.1019619 C32.391884,7.15321905 32.4461873,7.17030476 32.5209086,7.17030476 L33.0639414,7.17030476 C33.1317119,7.17030476 33.1996996,7.14642857 33.2607365,7.1019619 C33.3083061,7.05399048 33.3524004,6.99922857 33.3760766,6.93088571 L34.1838922,2.61148571 C34.5301299,2.46428571 34.8016463,2.36155238 35.0323266,2.31029524 C35.2632242,2.2590381 35.4804373,2.23494286 35.683966,2.23494286 C36.0912406,2.23494286 36.3492898,2.31029524 36.4748389,2.43011429 C36.6003881,2.55321905 36.661425,2.72451429 36.6683758,2.96393333 C36.6683758,3.04607619 36.661425,3.13500952 36.6546914,3.23445714 C36.6342734,3.33697143 36.6275398,3.43291429 36.6105971,3.52535238 L35.9656914,6.90679048 L35.9656914,6.95826667 C35.9656914,7.08487619 36.0675643,7.17030476 36.1931135,7.17030476 L36.7294127,7.17030476 C36.7971832,7.17030476 36.8651709,7.14642857 36.9262078,7.1019619 C36.9737775,7.05399048 37.0280807,6.99922857 37.041548,6.93088571 L37.6797201,3.5424381 C37.7203389,3.34726667 37.730548,3.15910476 37.730548,2.97773333 C37.730548,2.75518095 37.7068717,2.54292381 37.638884,2.34446667 C37.5778471,2.14250476 37.4692406,1.96792381 37.340216,1.82422857 Z M48.0583799,1.69411429 C48.0651135,1.57429524 47.9701914,1.49215238 47.8548512,1.47506667 C47.7325602,1.45798095 47.6239537,1.43739048 47.5220807,1.42030476 C47.4134742,1.40321905 47.3016094,1.3896381 47.1760602,1.37934286 C47.0537693,1.36904762 46.9180111,1.35524762 46.7755193,1.3519619 C46.6126094,1.34517143 46.442966,1.34517143 46.2257529,1.34517143 C45.9542365,1.34517143 45.6725111,1.36904762 45.3907857,1.41351429 C45.1192693,1.46477143 44.8681709,1.55041905 44.644007,1.67702857 C44.4337447,1.80035238 44.2571504,1.97142857 44.1213922,2.17689524 C43.975425,2.39594286 43.9076545,2.66274286 43.9076545,2.97773333 C43.9076545,3.45679048 44.2299988,3.88809524 44.8410193,4.2646381 L45.8523635,4.87731429 C46.1034619,5.02429524 46.2731053,5.15112381 46.351302,5.24684762 C46.4360152,5.35637143 46.4701176,5.45910476 46.4701176,5.5618381 C46.4701176,5.71582857 46.4360152,5.84594286 46.3749783,5.94166667 C46.3072078,6.05119048 46.2257529,6.1368381 46.1136709,6.19488571 C46.0015889,6.26344762 45.8862488,6.30791429 45.7300725,6.33529524 C45.5875807,6.36618095 45.4348799,6.38326667 45.2754455,6.38326667 C45.1870398,6.38326667 45.0614906,6.37625714 44.9257324,6.36618095 C44.7797652,6.36618095 44.6305398,6.35917143 44.4743635,6.34887619 C44.3149291,6.33529524 44.1552775,6.325 44.0093102,6.30791429 C43.8498758,6.29082857 43.7141176,6.28053333 43.5783594,6.26673333 L43.5105889,6.26673333 C43.3748307,6.26344762 43.2729578,6.33529524 43.2458061,6.46190476 L43.1778184,6.82815238 L43.1778184,6.86582857 C43.1778184,6.93088571 43.2049701,6.9924381 43.2525398,7.02660952 C43.296634,7.05070476 43.3476791,7.07107619 43.408716,7.09517143 C43.5342652,7.11225714 43.6700234,7.1396381 43.8227242,7.16351429 C43.975425,7.1806 44.1281258,7.19768571 44.2808266,7.20798095 C44.4337447,7.21477143 44.5864455,7.23207619 44.7324127,7.23886667 C44.8816381,7.23886667 45.0173963,7.24215238 45.1396873,7.24215238 C45.4348799,7.24215238 45.7300725,7.21477143 46.0287406,7.15321905 C46.3171996,7.1019619 46.5717734,6.99922857 46.7924619,6.86232381 C47.019884,6.72541905 47.1997365,6.53725714 47.3354947,6.31470476 C47.4712529,6.09237143 47.5390234,5.80125714 47.5390234,5.46260952 C47.5390234,5.2297619 47.4610439,5.00720952 47.3252857,4.8019619 C47.1895275,4.5862 46.9282201,4.36737143 46.5446217,4.13452381 L45.5536955,3.5286381 C45.3569004,3.4090381 45.2141914,3.3028 45.1192693,3.20357143 C45.0173963,3.10762857 44.9767775,3.01190476 44.9767775,2.89559048 C44.9767775,2.75518095 45.0106627,2.64565714 45.0784332,2.56022857 C45.1464209,2.47458095 45.231134,2.40601905 45.343216,2.3547619 C45.4450889,2.30350476 45.5604291,2.26232381 45.6961873,2.2452381 C45.8319455,2.22464762 45.9609701,2.21785714 46.0797857,2.21785714 C46.3851873,2.21785714 46.6803799,2.22464762 46.9723143,2.24173333 C47.2575152,2.2590381 47.4949291,2.27940952 47.6919414,2.29649524 L47.7325602,2.29649524 C47.8683184,2.30350476 47.9804004,2.21785714 48.0040766,2.08095238 L48.0583799,1.74559048 L48.0040766,1.73179048 L48.0583799,1.73179048 L48.0583799,1.69411429 Z M41.5419865,5.80125714 C41.2433184,5.9896381 40.9785357,6.12982857 40.7411217,6.22927619 C40.4898061,6.33179048 40.2523922,6.38326667 39.994343,6.38326667 C39.7432447,6.38326667 39.5292898,6.30791429 39.3494373,6.15392381 C39.1797939,6.01701905 39.0881299,5.75350476 39.0881299,5.36666667 C39.0881299,5.28802857 39.0983389,5.21267619 39.0983389,5.13381905 C39.1050725,5.04839048 39.1120234,4.9730381 39.1322242,4.90469524 L39.3257611,3.84362857 C39.437843,3.3028 39.6209537,2.89559048 39.9196217,2.61827619 C40.2080807,2.34446667 40.6325152,2.2075619 41.1924906,2.2075619 C41.4199127,2.2075619 41.6234414,2.21785714 41.7863512,2.23494286 L41.7930848,2.18368571 L41.7930848,2.23494286 C41.928843,2.25202857 42.0646012,2.27612381 42.2003594,2.29649524 L41.5419865,5.80125714 Z M43.3646217,1.79005714 C43.3646217,1.6702381 43.2729578,1.60167619 43.1371996,1.58459048 C42.8452652,1.50595238 42.5398635,1.45469524 42.2003594,1.40321905 C41.8610725,1.36225714 41.5215684,1.34517143 41.1924906,1.34517143 C40.8631955,1.34517143 40.5306422,1.37934286 40.2252406,1.45798095 C39.9128881,1.54012381 39.6209537,1.6702381 39.3698553,1.86540952 C39.1050725,2.04678095 38.8743922,2.29320952 38.697798,2.5944 C38.5112119,2.89559048 38.3652447,3.27892381 38.2837898,3.7306 L38.0869947,4.74369524 C38.0359496,4.96274286 38.019007,5.16820952 38.019007,5.37345714 C38.019007,5.69173333 38.059843,5.97255238 38.1547652,6.21197143 C38.2566381,6.44481905 38.3856627,6.63999048 38.5348881,6.79398095 C38.697798,6.94118095 38.8948102,7.06078095 39.1050725,7.13613333 C39.315552,7.20469524 39.5464496,7.24215238 39.7908143,7.24215238 C39.9706668,7.24215238 40.1301012,7.23207619 40.2930111,7.20469524 C40.4355029,7.1806 40.5814701,7.14642857 40.7274373,7.09517143 C40.8631955,7.03690476 40.9989537,6.97535238 41.1347119,6.89649524 C41.2433184,6.83844762 41.362134,6.76988571 41.4876832,6.68445714 L41.453798,6.88970476 L41.453798,6.9138 L41.453798,6.95826667 C41.453798,7.00952381 41.464007,7.06779048 41.4876832,7.10546667 C41.5317775,7.15321905 41.5895561,7.17030476 41.6675357,7.17030476 L42.1086955,7.17030476 C42.1766832,7.17030476 42.2444537,7.14642857 42.3022324,7.1019619 C42.3565357,7.05070476 42.3973717,6.9924381 42.4041053,6.93088571 L43.3544127,1.87548571 C43.3646217,1.8584 43.3646217,1.82422857 43.3646217,1.79005714 Z M28.9640439,2.27940952 L30.1111463,2.27940952 C30.1858676,2.27940952 30.2469045,2.25202857 30.3079414,2.20077143 C30.3555111,2.15630476 30.3996053,2.10482857 30.416548,2.03648571 L30.4845357,1.67702857 L30.4845357,1.62905714 C30.4845357,1.4991619 30.3893963,1.41351429 30.2536381,1.41351429 L29.1269537,1.41351429 L29.2796545,0.55112381 L29.2796545,0.513447619 C29.2796545,0.40392381 29.201675,0.325066667 29.099802,0.325066667 L29.0659168,0.325066667 L28.4753143,0.40392381 C28.3191381,0.421009524 28.2105316,0.513447619 28.1935889,0.650352381 L28.0578307,1.41351429 L27.3282119,1.43739048 C27.2602242,1.4306 27.1924537,1.45469524 27.1311996,1.4991619 C27.0905807,1.54012381 27.0497447,1.5916 27.0295439,1.65994286 L26.9819742,1.93725714 L26.9819742,1.97821905 C26.9717652,2.0980381 27.0736381,2.17689524 27.1991873,2.18368571 L27.8983963,2.26911429 L27.2330725,5.8047619 C27.2196053,5.89040952 27.1991873,5.96554286 27.1991873,6.01701905 C27.1924537,6.07857143 27.1855029,6.14713333 27.1855029,6.21547619 C27.1855029,6.58172381 27.3212611,6.86232381 27.5927775,7.01631429 C27.844093,7.17030476 28.1699127,7.24215238 28.5430848,7.24215238 C28.6516914,7.24215238 28.770507,7.23886667 28.8893225,7.23207619 C29.0183471,7.22178095 29.1336873,7.20469524 29.2559783,7.19768571 C29.3374332,7.1806 29.3984701,7.15321905 29.4390889,7.11225714 C29.4731914,7.07808571 29.5070766,7.0334 29.5172857,6.98214286 L29.5850561,6.6056 L29.5850561,6.55784762 C29.5952652,6.49607619 29.5748471,6.43802857 29.5070766,6.42094286 C29.4731914,6.41064762 29.4390889,6.40035238 29.3815275,6.40035238 L28.7129455,6.40035238 C28.5430848,6.40035238 28.4142775,6.38326667 28.3530234,6.35238095 C28.2954619,6.33179048 28.2615766,6.27374286 28.2615766,6.12654286 C28.2615766,6.05798095 28.2715684,5.95546667 28.2852529,5.83564762 L28.9640439,2.27940952 Z M10.4364168,2.23494286 C10.6060602,2.24173333 10.7350848,2.1666 10.7587611,2.0194 L10.8369578,1.58459048 L10.8369578,1.54012381 C10.8369578,1.41351429 10.7248758,1.34517143 10.5891176,1.34517143 L10.5654414,1.34517143 C10.3006586,1.34517143 10.0393512,1.37255238 9.76783484,1.43739048 C9.53020369,1.49215238 9.27562992,1.60868571 9.00411352,1.79684762 L9.02800697,1.67702857 L9.02800697,1.62905714 C9.02800697,1.4991619 8.94307664,1.41351429 8.81752746,1.41351429 L8.2981709,1.41351429 C8.23040041,1.41351429 8.1624127,1.43739048 8.10485123,1.49215238 C8.05380615,1.53333333 8.00971189,1.5916 7.99276926,1.65994286 L7.00857664,6.90679048 L7.00857664,6.95826667 C7.00857664,7.08487619 7.10349877,7.17030476 7.22904795,7.17030476 L7.76534713,7.17030476 C7.84006844,7.17030476 7.90783893,7.14642857 7.95888402,7.1019619 C8.02665451,7.05070476 8.06053975,6.99922857 8.08769139,6.93088571 L8.88529795,2.6353619 C9.13987172,2.49166667 9.38423648,2.38893333 9.59819139,2.32738095 C9.82561352,2.26911429 10.0971299,2.23494286 10.4127406,2.23494286 L10.4364168,2.23494286 Z M32.4598717,0.2944 L32.4598717,0.249933333 C32.4598717,0.119819048 32.3682078,0.0341714286 32.2426586,0.0341714286 L31.6792078,0.0341714286 C31.6044865,0.0273809524 31.536716,0.061552381 31.4754619,0.102733333 C31.4179004,0.153990476 31.3738061,0.205247619 31.3668553,0.273809524 L31.3058184,0.728990476 L31.3058184,0.770171429 C31.3058184,0.90707619 31.4009578,0.985714286 31.536716,0.985714286 L32.0966914,0.985714286 C32.1746709,0.985714286 32.2324496,0.958333333 32.2900111,0.910361905 C32.3512652,0.872685714 32.391884,0.807628571 32.412302,0.739285714 L32.4598717,0.2944 Z M13.8066955,6.27374286 C13.7284988,6.29082857 13.6368348,6.30791429 13.5419127,6.31470476 C13.4230971,6.33179048 13.3144906,6.34887619 13.2024086,6.35917143 C13.0838102,6.36618095 12.9819373,6.36618095 12.8733307,6.37625714 C12.7714578,6.38326667 12.6765357,6.38326667 12.5916053,6.38326667 C12.1843307,6.38326667 11.8789291,6.30791429 11.6921258,6.17100952 C11.5157488,6.02731429 11.4138758,5.77738095 11.4138758,5.39404762 C11.4138758,5.29131429 11.4206094,5.17850476 11.4308184,5.05868571 C11.437552,4.93886667 11.4647037,4.80875238 11.4885971,4.67184762 L11.6243553,3.92226667 C11.7431709,3.31988571 11.9466996,2.89208571 12.228425,2.61827619 C12.506675,2.34446667 12.897007,2.2075619 13.3994209,2.2075619 C13.626843,2.2075619 13.8473143,2.21785714 14.0680029,2.24173333 C14.2545889,2.2590381 14.4174988,2.28641905 14.543048,2.31029524 L13.8066955,6.27374286 Z M15.4594701,1.58459048 C15.2151053,1.5230381 14.9164373,1.47178095 14.5599906,1.42030476 C14.2037611,1.36904762 13.864257,1.34517143 13.5351791,1.34517143 C13.1176955,1.34517143 12.7443061,1.38613333 12.4150111,1.47506667 C12.0824578,1.56750476 11.7939988,1.7112 11.549634,1.92017143 C11.3017939,2.12213333 11.0982652,2.38893333 10.9286217,2.71421905 C10.7689701,3.03928571 10.6401627,3.43291429 10.5484988,3.90167619 L10.4127406,4.6547619 C10.3616955,4.90469524 10.3447529,5.13381905 10.3447529,5.35637143 C10.3447529,5.68165714 10.3855889,5.96554286 10.4974537,6.20518095 C10.6060602,6.44481905 10.7520275,6.63999048 10.9388307,6.79726667 C11.1254168,6.94797143 11.3528389,7.06779048 11.6074127,7.13613333 C11.8619865,7.20469524 12.1434947,7.24215238 12.4389045,7.24215238 C12.5236176,7.24215238 12.618757,7.23886667 12.7375725,7.23207619 C12.8461791,7.21477143 12.9649947,7.20469524 13.0838102,7.19768571 C13.2126176,7.1806 13.3212242,7.16351429 13.4333061,7.14642857 C13.5080275,7.13613333 13.5690643,7.12934286 13.626843,7.11225714 L13.626843,7.16351429 C13.575798,7.39285714 13.5249701,7.58452381 13.4569824,7.73500952 C13.3994209,7.88921905 13.3144906,8.00881905 13.2024086,8.1047619 C13.0838102,8.19040952 12.948052,8.25875238 12.7884004,8.29292381 C12.618757,8.33410476 12.4150111,8.35469524 12.1775971,8.35469524 C12.0316299,8.35469524 11.8619865,8.35119048 11.7023348,8.33739048 C11.5224824,8.33410476 11.3528389,8.31701905 11.1831955,8.31000952 C11.0133348,8.29993333 10.8539004,8.28613333 10.7079332,8.2758381 C10.5552324,8.25875238 10.4364168,8.24845714 10.3447529,8.23487619 L10.3278102,8.23487619 L10.3006586,8.23487619 C10.2428799,8.23487619 10.181843,8.24845714 10.1310152,8.28262857 C10.0732365,8.31000952 10.0460848,8.37178095 10.0224086,8.4368381 L9.96137172,8.73802857 L9.96137172,8.74810476 C9.9544209,8.7722 9.96137172,8.78249524 9.9544209,8.79607619 C9.96137172,8.90910476 10.0562939,8.97744762 10.181843,9.0118381 C10.3345439,9.0528 10.572175,9.09726667 10.9047283,9.13844762 C11.2340234,9.18291429 11.6074127,9.2 12.0316299,9.2 C12.4321709,9.2 12.7781914,9.16582857 13.0838102,9.10405714 C13.3722693,9.04600952 13.6368348,8.93298095 13.8473143,8.7722 C14.0680029,8.6112 14.2478553,8.40244762 14.3836135,8.1286381 C14.5261053,7.85833333 14.6279783,7.52297143 14.6957488,7.11904762 L15.6971012,1.86869524 L15.6971012,1.86540952 L15.6971012,1.85160952 C15.6971012,1.83101905 15.7073102,1.81393333 15.7073102,1.79684762 C15.7073102,1.67702857 15.6054373,1.60167619 15.4594701,1.58459048 Z" id="Fill-3"></path>
            </g>
            <g id="Group-8" transform="translate(37.360656, 0.181371)">
                <mask id="mask-2" fill="white">
                    <use xlink:href="#path-1"></use>
                </mask>
                <g id="Clip-7"></g>
                <path d="M7.3173668,2.85103619 C5.13155123,3.23086476 2.23653484,3.48758857 0.0135758197,4.16882667 C1.75128074,4.1515219 3.52634631,4.14473143 5.34203074,4.14473143 C6.4213627,4.14473143 7.48027664,4.14473143 8.53245697,4.15502667 C9.44192828,4.15502667 10.3311988,4.16181714 11.1728996,4.17890286 C12.6662398,4.1891981 14.1256947,4.21329333 15.5510471,4.24746476 C15.4628586,3.7237219 15.076002,3.11805524 13.8541783,3.11805524 L13.1482357,3.10776 L13.1482357,3.11104571 C13.3450307,3.58002667 12.8597766,3.88121714 12.4353422,3.64858857 C12.2148709,3.53556 12.0960553,3.29942667 12.4081906,3.05978857 C12.7240184,2.81686476 13.2431578,2.45740762 13.5044652,2.30341714 C14.376793,1.77638857 14.3429078,0.886398095 13.0869816,0.790674286 C10.0935676,0.540740952 4.697125,0.208664762 2.73547336,0.0375885714 C4.10326434,0.927579048 6.02777254,1.16721714 7.7926291,1.77638857 C8.93278074,2.17001714 8.34565369,2.67316952 7.3173668,2.85103619" id="Fill-6" fill="#0081C6" mask="url(#mask-2)"></path>
            </g>
        </g>
    </g>
</svg>