<?xml version="1.0" encoding="utf-8"?>
<!-- Generator: Adobe Illustrator 22.1.0, SVG Export Plug-In . SVG Version: 6.00 Build 0)  -->
<svg version="1.1" id="Слой_1" xmlns:svg="http://www.w3.org/2000/svg"
	 xmlns="http://www.w3.org/2000/svg" xmlns:xlink="http://www.w3.org/1999/xlink" x="0px" y="0px" width="29.575px" height="23px"
	 viewBox="0 0 29.575 23" style="enable-background:new 0 0 29.575 23;" xml:space="preserve">
<style type="text/css">
	.st0{fill:#EE3024;}
</style>
<path class="st0" d="M6.325,22.854c-0.037-0.223-0.034-0.228,0.122-0.253c0.206-0.033,0.356-0.21,0.3-0.354
	c-0.021-0.056-0.163-0.44-0.314-0.853c-0.151-0.413-0.287-0.781-0.302-0.817c-0.024-0.059,0.002-0.066,0.253-0.066h0.28l0.185,0.578
	l0.185,0.578l0.083-0.306c0.045-0.168,0.123-0.424,0.172-0.569l0.09-0.263l0.273-0.011c0.212-0.008,0.27,0,0.256,0.038
	c-0.01,0.027-0.165,0.492-0.345,1.033c-0.18,0.542-0.364,1.038-0.41,1.105c-0.139,0.204-0.256,0.266-0.542,0.287L6.35,23
	L6.325,22.854z M4.722,22.233c-0.361-0.103-0.541-0.397-0.536-0.876c0.006-0.64,0.302-0.91,0.961-0.877
	c0.526,0.027,0.761,0.304,0.757,0.896c-0.003,0.344-0.053,0.492-0.235,0.686C5.497,22.245,5.05,22.326,4.722,22.233z M5.19,21.841
	c0.165-0.063,0.245-0.546,0.13-0.785c-0.066-0.137-0.221-0.218-0.355-0.184c-0.157,0.039-0.242,0.219-0.242,0.51
	c-0.001,0.215,0.014,0.267,0.097,0.366C4.917,21.863,5.047,21.895,5.19,21.841z M8.442,22.195c-0.255-0.131-0.356-0.359-0.357-0.801
	c0-0.364,0.064-0.547,0.251-0.722c0.208-0.194,0.645-0.254,1.133-0.156l0.213,0.043v0.84v0.84H9.438
	c-0.221,0-0.244-0.007-0.244-0.078c0-0.077-0.001-0.077-0.118,0.006C8.902,22.291,8.651,22.302,8.442,22.195z M9.162,21.804
	c0.017-0.011,0.032-0.221,0.032-0.468v-0.448H9.013c-0.129,0-0.204,0.021-0.262,0.075c-0.19,0.177-0.202,0.636-0.021,0.817
	c0.08,0.08,0.115,0.09,0.247,0.069C9.061,21.834,9.144,21.815,9.162,21.804z M10.257,22.186l-0.105-0.09l-0.011-1.112l-0.011-1.112
	h0.246h0.246v0.978v0.978l0.094,0.035c0.08,0.031,0.094,0.059,0.094,0.201c0,0.14-0.013,0.169-0.084,0.188
	C10.54,22.303,10.363,22.277,10.257,22.186z M12.237,22.195c-0.256-0.132-0.357-0.359-0.356-0.801
	c0.001-0.364,0.066-0.55,0.249-0.722c0.208-0.194,0.645-0.254,1.133-0.156l0.213,0.043v0.84v0.84h-0.244
	c-0.222,0-0.244-0.007-0.244-0.078c0-0.077-0.001-0.077-0.118,0.006C12.697,22.291,12.445,22.302,12.237,22.195z M12.956,21.804
	c0.018-0.011,0.032-0.221,0.032-0.468v-0.448h-0.181c-0.129,0-0.204,0.021-0.262,0.075c-0.184,0.171-0.194,0.643-0.02,0.819
	c0.078,0.078,0.114,0.088,0.245,0.067C12.856,21.834,12.939,21.815,12.956,21.804z M20.444,22.226
	c-0.15-0.068-0.305-0.255-0.358-0.433c-0.023-0.078-0.037-0.285-0.029-0.458c0.016-0.382,0.099-0.567,0.329-0.728
	c0.136-0.096,0.201-0.114,0.446-0.127c0.158-0.008,0.402,0.006,0.543,0.031l0.255,0.046v0.842v0.842h-0.244
	c-0.221,0-0.244-0.007-0.244-0.076c0-0.075-0.001-0.075-0.111,0.005C20.894,22.269,20.603,22.298,20.444,22.226z M21.112,21.802
	c0.016-0.01,0.029-0.219,0.029-0.466v-0.448h-0.167c-0.122,0-0.196,0.024-0.272,0.09c-0.094,0.081-0.106,0.119-0.119,0.374
	c-0.014,0.277-0.011,0.288,0.104,0.402c0.104,0.105,0.134,0.115,0.258,0.092C21.021,21.831,21.097,21.811,21.112,21.802z
	 M23.851,22.221c-0.347-0.108-0.506-0.373-0.509-0.845c-0.004-0.592,0.23-0.87,0.757-0.896c0.355-0.018,0.573,0.044,0.737,0.208
	c0.154,0.154,0.231,0.393,0.228,0.707c-0.003,0.283-0.067,0.478-0.21,0.641C24.661,22.253,24.219,22.335,23.851,22.221z
	 M24.425,21.748c0.084-0.099,0.097-0.151,0.097-0.366c-0.001-0.309-0.086-0.475-0.265-0.514c-0.322-0.071-0.516,0.457-0.314,0.852
	c0.059,0.115,0.101,0.137,0.266,0.141C24.298,21.863,24.352,21.834,24.425,21.748z M25.816,22.184
	c-0.294-0.147-0.43-0.404-0.43-0.808c0-0.408,0.14-0.688,0.414-0.827c0.203-0.104,0.594-0.103,0.81,0.002l0.159,0.076l-0.041,0.139
	c-0.022,0.077-0.045,0.146-0.05,0.152c-0.005,0.007-0.1-0.008-0.212-0.033c-0.173-0.038-0.219-0.036-0.317,0.014
	c-0.294,0.152-0.315,0.725-0.033,0.91c0.094,0.061,0.143,0.062,0.486,0.009c0.052-0.008,0.084,0.026,0.12,0.13
	c0.047,0.133,0.045,0.144-0.038,0.199C26.447,22.303,26.085,22.319,25.816,22.184z M2.995,21.375v-0.864H3.22
	c0.205,0,0.226,0.007,0.226,0.08c0,0.077,0.004,0.076,0.099-0.019c0.077-0.077,0.136-0.099,0.263-0.099h0.164v0.146
	c0,0.08-0.011,0.198-0.024,0.263C3.928,20.982,3.907,21,3.814,21c-0.061,0-0.16,0.026-0.221,0.057l-0.111,0.057v0.563v0.562H3.238
	H2.995V21.375z M14.002,21.375v-0.864h0.244h0.245v0.864v0.864h-0.245h-0.244V21.375z M15.017,21.375v-0.864h0.225
	c0.18,0,0.225,0.012,0.225,0.059c0,0.049,0.017,0.046,0.099-0.019c0.067-0.053,0.153-0.078,0.268-0.078h0.169l-0.023,0.141
	c-0.013,0.077-0.023,0.196-0.024,0.263C15.956,20.987,15.945,21,15.849,21c-0.059,0-0.16,0.018-0.226,0.041l-0.118,0.041v0.579
	v0.578h-0.244h-0.245V21.375z M17.121,21.375v-0.864h0.244c0.218,0,0.244,0.008,0.244,0.074c0,0.07,0.007,0.069,0.137-0.019
	c0.198-0.134,0.524-0.132,0.687,0.005c0.064,0.053,0.116,0.123,0.116,0.155c0,0.039,0.025,0.025,0.078-0.042
	c0.115-0.147,0.267-0.211,0.499-0.211c0.166,0,0.228,0.019,0.32,0.097c0.163,0.137,0.192,0.289,0.192,1.021l0,0.648h-0.244H19.15
	v-0.574c0-0.655-0.028-0.742-0.237-0.741c-0.066,0-0.158,0.011-0.205,0.023c-0.083,0.022-0.085,0.031-0.085,0.657v0.634H18.38
	h-0.245l0-0.554c-0.001-0.731-0.043-0.81-0.399-0.744l-0.127,0.024v0.637v0.637h-0.244h-0.244V21.375z M22.155,21.375v-0.864h0.226
	c0.198,0,0.225,0.009,0.225,0.073c0,0.068,0.007,0.067,0.099-0.019c0.074-0.068,0.142-0.092,0.263-0.092h0.163v0.146
	c0,0.08-0.011,0.198-0.023,0.263c-0.02,0.1-0.041,0.118-0.133,0.118c-0.06,0-0.16,0.026-0.221,0.057l-0.111,0.057v0.563v0.562
	h-0.244h-0.244V21.375z M14.024,20.227c-0.032-0.032-0.059-0.099-0.059-0.148c0-0.134,0.097-0.206,0.277-0.206
	c0.189,0,0.249,0.05,0.249,0.206c0,0.064-0.021,0.137-0.046,0.162C14.38,20.307,14.094,20.297,14.024,20.227z M1.229,19.546
	c-0.083-0.03-0.15-0.128-0.15-0.22c0-0.114,0.116-0.205,0.259-0.205c0.19,0,0.267,0.059,0.267,0.206
	C1.604,19.516,1.429,19.618,1.229,19.546z M2.619,19.546c-0.083-0.03-0.15-0.128-0.15-0.22c0-0.114,0.116-0.205,0.259-0.205
	c0.19,0,0.267,0.059,0.267,0.206C2.995,19.516,2.819,19.618,2.619,19.546z M3.313,19.531c-0.101-0.058-0.169-0.148-0.169-0.223
	c0-0.05,0.052-0.067,0.263-0.084c0.144-0.012,0.309-0.045,0.366-0.072c0.099-0.047,0.104-0.063,0.113-0.35
	c0.007-0.209-0.017-0.417-0.078-0.686c-0.097-0.426-0.097-0.427,0.143-0.493c0.27-0.074,0.264-0.081,0.342,0.362
	c0.094,0.534,0.141,0.587,0.504,0.566c0.142-0.008,0.27-0.026,0.283-0.039c0.014-0.013-0.019-0.082-0.073-0.153
	c-0.1-0.132-0.434-0.835-0.435-0.918c0-0.025,0.066-0.08,0.148-0.122c0.128-0.065,0.221-0.076,0.659-0.076
	c0.683,0,0.845,0.07,0.845,0.366c0,0.147-0.159,0.455-0.343,0.664L5.73,18.446l0.134,0.056c0.074,0.031,0.21,0.056,0.303,0.056
	c0.192,0,0.224-0.037,0.257-0.294c0.026-0.206,0.153-0.394,0.356-0.53c0.215-0.144,0.381-0.17,0.627-0.099
	c0.261,0.076,0.472,0.296,0.472,0.492c0,0.204,0.091,0.386,0.208,0.416c0.067,0.017,0.112,0.008,0.134-0.027
	c0.018-0.029,0.033-0.486,0.033-1.016l0.001-0.963l0.118-0.042c0.065-0.022,0.179-0.041,0.254-0.041h0.136l-0.012,1.004
	c-0.014,1.11-0.029,1.197-0.239,1.325c-0.19,0.116-0.649,0.108-0.829-0.014l-0.133-0.09l-0.08,0.08
	c-0.104,0.104-0.572,0.137-0.741,0.053c-0.091-0.046-0.126-0.047-0.221-0.005c-0.173,0.076-0.733,0.066-0.949-0.016
	c-0.172-0.065-0.185-0.065-0.329-0.001c-0.112,0.05-0.248,0.067-0.531,0.068c-0.363,0.001-0.382,0.005-0.402,0.086
	c-0.037,0.145-0.25,0.401-0.416,0.498C3.694,19.55,3.422,19.593,3.313,19.531z M7.397,18.533c0.043-0.024-0.011-0.399-0.071-0.495
	c-0.047-0.075-0.302-0.22-0.329-0.187c-0.162,0.194-0.098,0.626,0.104,0.705C7.174,18.585,7.325,18.573,7.397,18.533z M5.623,18.108
	c0.101-0.198,0.103-0.473,0.003-0.526c-0.067-0.036-0.453-0.057-0.453-0.025c0,0.073,0.322,0.7,0.359,0.7
	C5.541,18.257,5.582,18.191,5.623,18.108z M11.878,19.48c-0.112-0.112-0.116-0.184-0.017-0.284c0.15-0.15,0.49-0.052,0.488,0.141
	c-0.001,0.087-0.038,0.139-0.138,0.192C12.083,19.596,11.979,19.581,11.878,19.48z M23.408,19.52
	c-0.101-0.046-0.199-0.188-0.157-0.228c0.007-0.007,0.155-0.03,0.33-0.051c0.346-0.042,0.415-0.088,0.415-0.277v-0.106h-0.292
	c-0.328,0-0.493-0.071-0.585-0.252c-0.146-0.286-0.11-0.514,0.116-0.735c0.147-0.143,0.425-0.289,0.553-0.29
	c0.169-0.002,0.382,0.09,0.511,0.219c0.138,0.138,0.222,0.382,0.222,0.646c0,0.098,0.013,0.111,0.111,0.111
	c0.072,0,0.126-0.026,0.15-0.073c0.024-0.044,0.039-0.436,0.039-1.012c0-0.602,0.014-0.948,0.039-0.963
	c0.021-0.013,0.131-0.033,0.244-0.045l0.205-0.021v0.873v0.873l0.212-0.194c0.351-0.321,0.677-0.452,0.945-0.38
	c0.274,0.074,0.469,0.296,0.594,0.677c0.078,0.24,0.132,0.264,0.584,0.264h0.338l-0.073-0.103c-0.04-0.057-0.135-0.247-0.212-0.423
	c-0.077-0.176-0.166-0.349-0.198-0.384c-0.055-0.061-0.064-0.061-0.162,0.009c-0.057,0.041-0.12,0.074-0.139,0.074
	c-0.062,0-0.158-0.132-0.181-0.249c-0.022-0.105-0.013-0.116,0.126-0.157c0.21-0.063,0.482-0.055,0.637,0.019
	c0.077,0.037,0.178,0.134,0.241,0.234c0.112,0.175,0.206,0.255,0.251,0.211c0.014-0.014,0.033-0.306,0.044-0.65l0.019-0.625
	l0.094-0.026c0.052-0.014,0.161-0.027,0.244-0.03l0.151-0.004l-0.019,0.667c-0.012,0.432-0.035,0.696-0.066,0.749
	c-0.059,0.104-0.223,0.219-0.358,0.252l-0.105,0.025l0.067,0.115c0.085,0.147,0.224,0.257,0.357,0.284
	c0.122,0.024,0.136,0.114,0.038,0.235c-0.065,0.08-0.078,0.081-0.93,0.064c-0.475-0.01-0.889-0.018-0.92-0.017
	c-0.031,0-0.592,0.008-1.247,0.017l-1.19,0.016l-0.077,0.16c-0.089,0.184-0.27,0.381-0.423,0.46
	C23.793,19.564,23.544,19.581,23.408,19.52z M24.01,18.398c-0.037-0.238-0.143-0.422-0.284-0.49
	c-0.15-0.073-0.173-0.046-0.206,0.234c-0.02,0.171-0.013,0.195,0.093,0.301c0.091,0.09,0.147,0.115,0.269,0.115h0.154L24.01,18.398z
	 M26.586,18.523c0.083-0.052-0.13-0.451-0.289-0.542c-0.122-0.07-0.124-0.07-0.32,0.026c-0.108,0.053-0.306,0.198-0.44,0.321
	l-0.244,0.225l0.62,0.001C26.253,18.556,26.556,18.541,26.586,18.523z M1.839,19.457c-0.133-0.052-0.184-0.199-0.108-0.316
	c0.052-0.078,0.092-0.096,0.229-0.096c0.172,0,0.283,0.089,0.283,0.228C2.243,19.409,1.999,19.52,1.839,19.457z M12.594,19.47
	c-0.125-0.031-0.169-0.088-0.169-0.22c0-0.146,0.077-0.203,0.274-0.203c0.143,0,0.252,0.094,0.252,0.216
	c0,0.079-0.09,0.197-0.15,0.197c-0.017,0-0.055,0.006-0.082,0.014C12.691,19.482,12.635,19.48,12.594,19.47z M8.997,17.754
	l0.01-1.218l0.117-0.041c0.065-0.022,0.179-0.041,0.254-0.041h0.137l-0.013,1.061c-0.008,0.631-0.029,1.104-0.053,1.166
	c-0.055,0.142-0.24,0.29-0.362,0.29h-0.1L8.997,17.754z M19.068,17.76c0.006-0.666,0.026-1.225,0.042-1.243
	c0.018-0.017,0.13-0.04,0.251-0.051l0.221-0.02l-0.009,1.009c-0.005,0.555-0.019,1.065-0.03,1.132
	c-0.027,0.163-0.249,0.384-0.385,0.384h-0.102L19.068,17.76z M29.062,17.76c0.007-0.666,0.025-1.225,0.043-1.243
	c0.017-0.017,0.13-0.04,0.251-0.051l0.22-0.02l-0.009,1.009c-0.005,0.555-0.018,1.065-0.03,1.132
	c-0.027,0.163-0.249,0.384-0.384,0.384H29.05L29.062,17.76z M0.237,18.78c-0.123-0.097-0.194-0.232-0.227-0.429
	c-0.022-0.134-0.013-0.162,0.08-0.248c0.149-0.137,0.339-0.244,0.616-0.349l0.24-0.09l0.011-0.169
	c0.011-0.166,0.014-0.17,0.176-0.21c0.338-0.085,0.316-0.126,0.328,0.606l0.01,0.648L1.67,18.55c0.183,0.01,0.2,0.004,0.235-0.087
	c0.02-0.054,0.037-0.256,0.037-0.449c0-0.392-0.01-0.377,0.3-0.418l0.188-0.025v0.415c0,0.446,0.024,0.51,0.206,0.556
	c0.223,0.056,0.225,0.05,0.236-0.613l0.01-0.609l0.14-0.039C3.1,17.261,3.22,17.244,3.29,17.243h0.127l-0.015,0.632
	c-0.016,0.698-0.036,0.767-0.268,0.911c-0.105,0.065-0.167,0.072-0.477,0.056c-0.449-0.023-0.414-0.023-1.002,0.001
	c-0.469,0.02-0.499,0.016-0.575-0.059l-0.08-0.08l-0.125,0.077C0.701,18.889,0.374,18.887,0.237,18.78z M0.869,18.521
	c0.092-0.035,0.096-0.051,0.096-0.319c0-0.155-0.013-0.283-0.028-0.283c-0.061,0.001-0.428,0.232-0.447,0.282
	c-0.034,0.089,0.043,0.259,0.14,0.309C0.741,18.567,0.748,18.567,0.869,18.521z M10.452,18.734c-0.112-0.113-0.205-0.329-0.206-0.48
	c0-0.125,0.306-0.339,0.723-0.505l0.253-0.101v-0.16c0-0.159,0.002-0.161,0.167-0.203c0.341-0.086,0.318-0.127,0.33,0.606
	l0.01,0.648l0.198,0.011c0.183,0.01,0.2,0.004,0.235-0.087c0.02-0.054,0.037-0.256,0.037-0.449c0-0.392-0.01-0.377,0.3-0.418
	l0.188-0.025l0.001,0.409c0.001,0.434,0.009,0.467,0.138,0.534c0.088,0.046,1.895,0.064,1.94,0.019
	c0.042-0.042-0.101-0.244-0.218-0.306c-0.084-0.045-0.263-0.066-0.695-0.082c-0.643-0.024-0.826-0.076-0.826-0.236
	c0-0.128,0.319-0.739,0.488-0.935c0.255-0.296,0.599-0.373,0.736-0.163c0.05,0.076,0.053,0.114,0.016,0.225
	c-0.044,0.133-0.089,0.166-0.132,0.095c-0.048-0.077-0.241-0.038-0.37,0.075c-0.144,0.126-0.358,0.506-0.312,0.552
	c0.017,0.017,0.32,0.04,0.676,0.051c0.509,0.016,0.67,0.033,0.765,0.084c0.135,0.072,0.269,0.238,0.37,0.453
	c0.036,0.079,0.108,0.163,0.159,0.186c0.181,0.082,0.196-0.001,0.196-1.05c0-0.632,0.014-0.957,0.04-0.973
	c0.022-0.014,0.136-0.033,0.254-0.044l0.213-0.019l-0.011,0.978c-0.01,0.969-0.01,0.979,0.073,1.056
	c0.12,0.112,0.205,0.098,0.254-0.041c0.023-0.065,0.041-0.15,0.041-0.189c0-0.225,0.306-0.548,0.605-0.637
	c0.256-0.077,0.667,0.088,0.792,0.317c0.025,0.046,0.057,0.173,0.073,0.283c0.043,0.313,0.252,0.467,0.335,0.248
	c0.02-0.053,0.037-0.508,0.037-1.012c0-0.585,0.014-0.924,0.039-0.939c0.021-0.013,0.131-0.033,0.244-0.045l0.206-0.021v0.983
	c0,1.064-0.012,1.141-0.205,1.319c-0.094,0.086-0.131,0.094-0.455,0.094c-0.31,0-0.362-0.01-0.433-0.08l-0.08-0.08l-0.133,0.09
	c-0.105,0.072-0.181,0.09-0.373,0.09c-0.139,0-0.286-0.023-0.348-0.055c-0.095-0.049-0.121-0.049-0.225,0.003
	c-0.087,0.043-0.18,0.053-0.352,0.037c-0.128-0.012-0.272-0.02-0.318-0.019c-0.046,0.001-0.228,0.003-0.403,0.005
	c-0.176,0.001-0.362,0.003-0.414,0.004c-0.309,0.004-2.496,0.002-2.574-0.003c-0.051-0.003-0.316,0.003-0.588,0.015
	c-0.469,0.019-0.499,0.016-0.575-0.06l-0.08-0.08l-0.125,0.077c-0.088,0.054-0.189,0.077-0.34,0.077
	C10.598,18.858,10.564,18.846,10.452,18.734z M17.373,18.556c0.109-0.038,0.113-0.047,0.094-0.216
	c-0.026-0.245-0.094-0.362-0.257-0.439c-0.134-0.063-0.142-0.063-0.19,0.002c-0.135,0.185-0.045,0.576,0.15,0.655
	c0.045,0.018,0.084,0.034,0.086,0.036C17.258,18.594,17.311,18.578,17.373,18.556z M11.194,18.494
	c0.016-0.009,0.028-0.142,0.028-0.295c0-0.154-0.012-0.279-0.028-0.279c-0.061,0.001-0.428,0.232-0.446,0.282
	c-0.035,0.089,0.043,0.259,0.139,0.308C10.966,18.549,11.108,18.542,11.194,18.494z M20.301,18.79
	c-0.034-0.038-0.062-0.106-0.062-0.15c0-0.067,0.022-0.082,0.124-0.082c0.068,0,0.144-0.02,0.169-0.045
	c0.033-0.033,0.045-0.31,0.045-1.012c0-0.645,0.013-0.975,0.04-0.992c0.022-0.014,0.137-0.033,0.254-0.044l0.213-0.019l-0.011,0.878
	l-0.011,0.878l0.162-0.157c0.216-0.211,0.567-0.417,0.759-0.445c0.327-0.049,0.657,0.199,0.811,0.61
	c0.133,0.355,0.095,0.47-0.197,0.592c-0.113,0.047-0.328,0.058-1.186,0.058C20.444,18.858,20.359,18.853,20.301,18.79z
	 M22.367,18.502c0.028-0.073-0.112-0.359-0.23-0.47c-0.059-0.055-0.136-0.086-0.21-0.084c-0.136,0.004-0.417,0.18-0.692,0.433
	l-0.187,0.173l0.649,0.002C22.236,18.557,22.349,18.548,22.367,18.502z M0.402,17.055c-0.146-0.146-0.067-0.326,0.157-0.362
	c0.116-0.019,0.154-0.006,0.237,0.077c0.107,0.107,0.103,0.225-0.011,0.314C0.693,17.156,0.487,17.141,0.402,17.055z M10.667,17.072
	c-0.252-0.177,0.09-0.509,0.348-0.339c0.12,0.079,0.133,0.299,0.021,0.359C10.931,17.148,10.763,17.139,10.667,17.072z
	 M1.028,16.987c-0.142-0.157-0.023-0.382,0.201-0.382c0.237,0,0.359,0.266,0.18,0.392C1.295,17.076,1.104,17.071,1.028,16.987z
	 M11.285,16.987c-0.14-0.155-0.03-0.382,0.186-0.382c0.16,0,0.278,0.095,0.278,0.225C11.748,17.03,11.423,17.14,11.285,16.987z
	 M27.311,16.997c-0.18-0.126-0.058-0.392,0.18-0.392c0.147,0,0.263,0.099,0.263,0.225c0,0.126-0.116,0.226-0.263,0.226
	C27.438,17.055,27.357,17.029,27.311,16.997z M5.235,16.949c-0.14-0.155-0.03-0.382,0.186-0.382c0.16,0,0.278,0.095,0.278,0.225
	C5.699,16.992,5.374,17.102,5.235,16.949z M14.397,13.536c-0.288-0.038-0.738-0.141-0.976-0.227
	c-0.296-0.105-0.921-0.422-0.921-0.466c0-0.016,0.087-0.095,0.193-0.177l0.193-0.147l0.342,0.161
	c0.969,0.455,1.987,0.505,2.991,0.147c0.349-0.124,0.843-0.391,0.801-0.432c-0.017-0.017-0.454-0.337-0.971-0.712
	c-0.517-0.375-0.943-0.701-0.948-0.726c-0.009-0.042,0.318-0.289,0.383-0.289c0.017,0,0.275,0.178,0.573,0.396
	c0.298,0.218,0.535,0.382,0.525,0.366c-0.026-0.045-0.965-2.945-0.965-2.983c0-0.018,0.114-0.033,0.254-0.033l0.254,0l0.686,2.114
	c0.377,1.163,0.686,2.134,0.686,2.157c0,0.064-0.514,0.372-0.868,0.522c-0.365,0.154-0.771,0.264-1.161,0.314
	C15.193,13.558,14.624,13.565,14.397,13.536z M12.023,12.497c-1.174-1.005-1.742-2.549-1.496-4.068
	c0.081-0.502,0.067-0.487,0.305-0.323l0.204,0.14l-0.029,0.263c-0.016,0.144-0.026,0.474-0.022,0.733
	c0.013,1.012,0.412,1.927,1.167,2.675l0.292,0.291l0.372-1.155c0.204-0.635,0.382-1.166,0.395-1.181
	c0.025-0.028,0.417,0.256,0.417,0.302c0,0.015-0.092,0.302-0.204,0.637c-0.112,0.335-0.198,0.609-0.19,0.609
	c0.008,0,0.573-0.406,1.256-0.901c0.683-0.496,1.257-0.901,1.276-0.901c0.03,0,0.205,0.453,0.181,0.47
	c-0.116,0.088-3.589,2.603-3.616,2.619C12.31,12.718,12.171,12.624,12.023,12.497z M7.221,12.618
	c-0.513-0.075-0.931-0.301-1.315-0.714l-0.188-0.202l0.335-0.011c0.325-0.011,0.339-0.008,0.48,0.106
	c0.212,0.17,0.504,0.293,0.802,0.335c0.148,0.022,1.095,0.038,2.179,0.039l1.917,0.001l0.242,0.244l0.242,0.244l-2.234-0.005
	C8.452,12.653,7.345,12.636,7.221,12.618z M17.91,12.647c0-0.009,0.106-0.12,0.235-0.246l0.235-0.228l1.935-0.002
	c2.057-0.002,2.343-0.022,2.659-0.183c0.086-0.044,0.214-0.13,0.285-0.192c0.121-0.106,0.146-0.113,0.452-0.113
	c0.18,0,0.324,0.016,0.324,0.036c0,0.076-0.54,0.562-0.747,0.673c-0.467,0.249-0.419,0.245-3.02,0.259
	C18.971,12.658,17.91,12.656,17.91,12.647z M17.582,12.33l-0.076-0.252l0.249-0.263c0.77-0.813,1.179-1.986,1.058-3.034
	c-0.04-0.351-0.092-0.619-0.126-0.653c-0.01-0.01-0.447,0.293-0.971,0.673c-0.523,0.38-0.972,0.703-0.997,0.717
	c-0.053,0.031-0.22-0.465-0.168-0.499c0.018-0.012,0.266-0.191,0.55-0.397l0.517-0.376l-1.586-0.01
	c-1.243-0.008-1.582-0.02-1.569-0.057c0.009-0.025,0.046-0.135,0.082-0.244l0.065-0.197h2.248h2.249l0.041,0.124
	c0.144,0.438,0.215,1.21,0.157,1.717c-0.115,1.013-0.501,1.853-1.184,2.578C17.666,12.641,17.674,12.638,17.582,12.33z
	 M6.406,11.529c-0.369-0.036-0.712-0.139-0.944-0.285c-0.17-0.107-0.664-0.567-0.664-0.619c0-0.017,0.146-0.031,0.323-0.031
	c0.299,0,0.334,0.008,0.46,0.108c0.41,0.322,0.553,0.346,2.203,0.369l1.39,0.019l0.209,0.144c0.115,0.079,0.28,0.173,0.367,0.207
	c0.086,0.035,0.157,0.078,0.157,0.097C9.907,11.579,6.853,11.572,6.406,11.529z M19.901,11.538c0-0.022,0.088-0.078,0.195-0.125
	c0.108-0.046,0.268-0.139,0.358-0.207l0.162-0.124l1.061-0.001c1.74-0.001,2.091-0.051,2.502-0.352
	c0.178-0.131,0.195-0.136,0.508-0.136c0.178,0,0.324,0.015,0.324,0.034c0,0.071-0.566,0.558-0.784,0.674
	c-0.423,0.225-0.55,0.238-2.532,0.258C20.429,11.573,19.901,11.567,19.901,11.538z M5.245,10.403
	c-0.247-0.036-0.53-0.139-0.764-0.276c-0.179-0.105-0.66-0.558-0.66-0.622c0-0.023,0.127-0.039,0.324-0.039
	c0.309,0,0.33,0.005,0.458,0.118c0.183,0.161,0.464,0.283,0.758,0.33c0.135,0.022,0.819,0.039,1.531,0.04h1.287l0.229,0.169
	c0.126,0.093,0.295,0.188,0.375,0.212c0.081,0.024,0.147,0.058,0.147,0.075C8.931,10.452,5.525,10.445,5.245,10.403z M20.878,10.413
	c0-0.016,0.06-0.052,0.134-0.078c0.073-0.026,0.243-0.123,0.376-0.214l0.242-0.166h1.286c1.64,0,1.877-0.038,2.267-0.358
	c0.155-0.127,0.17-0.131,0.482-0.131c0.177,0,0.322,0.015,0.322,0.033c0,0.018-0.137,0.163-0.304,0.323
	c-0.202,0.193-0.384,0.328-0.543,0.402c-0.421,0.197-0.649,0.216-2.544,0.218C21.651,10.443,20.878,10.43,20.878,10.413z
	 M12.499,9.105c-1.629-1.187-1.784-1.309-1.779-1.402c0.007-0.141,0.274-0.7,0.491-1.027c0.222-0.335,0.733-0.871,1.061-1.112
	c0.616-0.453,1.316-0.73,2.087-0.825c0.165-0.02,0.306-0.03,0.314-0.023c0.008,0.007-0.021,0.12-0.065,0.251l-0.079,0.237
	l-0.341,0.066c-0.761,0.148-1.412,0.483-1.971,1.014c-0.38,0.361-0.66,0.738-0.863,1.161L11.221,7.72l1.244,0.01
	c0.969,0.008,1.241,0.02,1.227,0.056c-0.009,0.025-0.046,0.135-0.082,0.244l-0.065,0.197h-0.696h-0.697l1.272,0.923
	c0.7,0.508,1.277,0.937,1.284,0.954c0.012,0.033-0.338,0.303-0.392,0.302C14.299,10.405,13.481,9.82,12.499,9.105z M4.422,9.316
	C3.915,9.256,3.553,9.102,3.221,8.804C3.003,8.608,2.318,7.825,2.318,7.771c0-0.018,1.809-0.032,4.077-0.032
	c3.236,0,4.077,0.01,4.075,0.047c0,0.026-0.022,0.131-0.049,0.235l-0.049,0.188L6.864,8.227L3.356,8.246l0.185,0.163
	c0.102,0.09,0.253,0.198,0.336,0.24c0.341,0.175,0.454,0.187,1.949,0.206L7.25,8.874l0.174,0.133
	C7.518,9.08,7.677,9.173,7.775,9.214c0.098,0.041,0.179,0.089,0.179,0.107C7.954,9.361,4.765,9.356,4.422,9.316z M21.818,9.329
	c0.001-0.017,0.094-0.072,0.208-0.121c0.114-0.05,0.279-0.145,0.368-0.212l0.16-0.122l1.407-0.017
	c1.174-0.014,1.444-0.027,1.632-0.081c0.266-0.075,0.462-0.187,0.695-0.394l0.169-0.151l-3.516-0.001l-3.516-0.002l-0.041-0.179
	c-0.022-0.098-0.053-0.208-0.067-0.244c-0.024-0.062,0.185-0.066,4.077-0.066c2.548,0,4.098,0.013,4.09,0.035
	c-0.007,0.019-0.173,0.225-0.37,0.456c-0.553,0.654-0.89,0.903-1.398,1.035c-0.198,0.052-0.532,0.064-2.067,0.078
	C22.642,9.353,21.817,9.347,21.818,9.329z M13.709,9.142c-0.107-0.075-0.196-0.156-0.197-0.179c0-0.023,0.308-0.995,0.686-2.159
	l0.687-2.117l0.316,0.025c1.608,0.131,2.951,1.029,3.662,2.451c0.095,0.19,0.173,0.355,0.173,0.366c0,0.012-0.124,0.021-0.276,0.021
	h-0.276l-0.071-0.159c-0.221-0.493-0.8-1.163-1.288-1.492c-0.533-0.359-1.227-0.618-1.786-0.667c-0.214-0.019-0.256-0.013-0.24,0.03
	c0.011,0.029,0.175,0.53,0.364,1.112c0.189,0.583,0.354,1.086,0.367,1.119c0.02,0.052-0.013,0.058-0.249,0.049l-0.272-0.011
	L15.122,6.95c-0.103-0.32-0.199-0.595-0.214-0.61c-0.014-0.015-0.234,0.619-0.49,1.409c-0.255,0.79-0.475,1.458-0.488,1.483
	C13.913,9.266,13.851,9.241,13.709,9.142z M12.425,4.701V4.444l0.334-0.153c1.434-0.657,2.963-0.649,4.325,0.022l0.282,0.139
	l0.011,0.254c0.006,0.139,0.002,0.254-0.01,0.254c-0.012,0-0.157-0.068-0.323-0.152c-1.357-0.682-2.92-0.682-4.276-0.001
	C12.6,4.89,12.455,4.959,12.444,4.959C12.433,4.959,12.425,4.843,12.425,4.701z M11.835,4.213c-0.357-0.123-0.571-0.313-0.766-0.681
	c-0.079-0.149-0.09-0.219-0.09-0.582c0-0.357,0.012-0.437,0.087-0.589c0.205-0.412,0.558-0.631,1.018-0.632
	c0.34,0,0.484,0.062,0.829,0.361c0.296,0.255,0.564,0.389,0.779,0.39c0.144,0,0.16,0.009,0.16,0.092
	c0,0.147-0.163,0.247-0.401,0.247c-0.259,0-0.419-0.068-0.747-0.319c-0.303-0.232-0.413-0.282-0.623-0.282
	c-0.51,0-0.802,0.627-0.538,1.157c0.11,0.219,0.244,0.345,0.513,0.482c0.172,0.087,0.292,0.248,0.292,0.389
	C12.349,4.305,12.049,4.287,11.835,4.213z M17.472,4.169c0.032-0.159,0.112-0.247,0.304-0.334c0.543-0.246,0.759-0.979,0.41-1.394
	c-0.134-0.159-0.278-0.225-0.49-0.225c-0.198,0-0.311,0.056-0.65,0.322c-0.268,0.21-0.438,0.279-0.691,0.279
	c-0.166,0-0.226-0.019-0.32-0.097c-0.063-0.054-0.115-0.13-0.115-0.169c0-0.061,0.027-0.072,0.18-0.072
	c0.232,0,0.477-0.123,0.796-0.398c0.335-0.289,0.481-0.351,0.826-0.351c0.348-0.001,0.591,0.101,0.803,0.336
	c0.243,0.269,0.306,0.45,0.306,0.884c0,0.447-0.066,0.626-0.34,0.918c-0.214,0.229-0.498,0.37-0.81,0.403l-0.233,0.024L17.472,4.169
	z M12.597,3.966c-0.029-0.069-0.09-0.152-0.137-0.184c-0.081-0.057-0.082-0.063-0.021-0.155c0.084-0.129,0.313-0.135,0.425-0.011
	c0.084,0.092,0.162,0.228,0.162,0.284c0,0.019-0.085,0.07-0.188,0.113l-0.188,0.078L12.597,3.966z M16.961,4.012
	c-0.214-0.093-0.226-0.161-0.062-0.348c0.142-0.161,0.323-0.182,0.446-0.05l0.076,0.082l-0.09,0.096
	c-0.049,0.053-0.113,0.141-0.141,0.197L17.14,4.09L16.961,4.012z M13.293,3.697c-0.025-0.068-0.095-0.166-0.156-0.217
	c-0.13-0.109-0.135-0.139-0.042-0.224c0.142-0.129,0.447-0.039,0.551,0.164c0.148,0.287,0.148,0.287-0.091,0.347l-0.217,0.055
	L13.293,3.697z M16.238,3.767c-0.104-0.031-0.194-0.062-0.202-0.069c-0.031-0.029,0.16-0.36,0.248-0.429
	c0.115-0.09,0.3-0.097,0.415-0.017c0.109,0.076,0.106,0.142-0.009,0.204c-0.051,0.027-0.127,0.123-0.17,0.213
	c-0.042,0.09-0.081,0.162-0.086,0.16C16.43,3.826,16.341,3.798,16.238,3.767z M14.025,3.48c-0.035-0.094-0.123-0.222-0.194-0.284
	c-0.136-0.119-0.14-0.2-0.015-0.267c0.262-0.14,0.6,0.131,0.692,0.555c0.024,0.11,0.018,0.122-0.061,0.122
	c-0.048,0-0.148,0.01-0.222,0.023C14.094,3.651,14.089,3.648,14.025,3.48z M15.402,3.617c-0.149-0.018-0.154-0.072-0.033-0.331
	c0.166-0.356,0.481-0.504,0.661-0.311c0.098,0.105,0.096,0.122-0.015,0.173c-0.057,0.026-0.132,0.128-0.197,0.269
	C15.705,3.659,15.713,3.655,15.402,3.617z M14.811,3.195c-0.037-0.082-0.099-0.178-0.137-0.213
	c-0.096-0.087-0.088-0.159,0.039-0.359c0.179-0.282,0.219-0.277,0.393,0.041l0.101,0.186l-0.152,0.235
	c-0.084,0.129-0.158,0.241-0.164,0.247C14.884,3.339,14.848,3.277,14.811,3.195z M13.318,2.179
	c-0.341-0.185-0.343-0.676-0.004-0.676c0.138,0,0.237,0.102,0.237,0.243c0,0.1,0.007,0.104,0.137,0.083
	c0.075-0.012,0.166-0.049,0.202-0.082c0.063-0.057,0.062-0.064-0.023-0.15c-0.168-0.168-0.066-0.432,0.166-0.432
	c0.269,0,0.404,0.46,0.224,0.767c-0.136,0.231-0.257,0.3-0.548,0.313C13.513,2.253,13.427,2.238,13.318,2.179z M15.765,2.168
	c-0.204-0.137-0.298-0.308-0.298-0.542c0-0.314,0.101-0.462,0.317-0.462c0.205,0,0.292,0.296,0.132,0.445l-0.077,0.072l0.101,0.08
	c0.056,0.044,0.15,0.079,0.209,0.079c0.093,0,0.108-0.014,0.108-0.107c0-0.216,0.307-0.322,0.43-0.148
	c0.133,0.189,0.018,0.477-0.244,0.613C16.273,2.287,15.917,2.271,15.765,2.168z M14.638,2.069c-0.242-0.242-0.076-0.641,0.266-0.641
	c0.122,0,0.18,0.024,0.266,0.11c0.242,0.242,0.076,0.641-0.266,0.641C14.782,2.179,14.724,2.155,14.638,2.069z M14.51,1.128
	l0.089-0.262L14.37,0.705l-0.229-0.16l0.28-0.011l0.281-0.011l0.084-0.261C14.833,0.118,14.883,0,14.899,0
	c0.015,0,0.066,0.118,0.113,0.263l0.085,0.263h0.287h0.287L15.435,0.7c-0.129,0.096-0.228,0.193-0.22,0.216
	c0.085,0.23,0.143,0.445,0.125,0.463c-0.012,0.012-0.116-0.05-0.231-0.137L14.9,1.084l-0.202,0.153
	c-0.112,0.084-0.22,0.153-0.24,0.153C14.437,1.39,14.46,1.272,14.51,1.128z"/>
</svg>
