<?xml version="1.0" encoding="utf-8"?>
<!DOCTYPE svg PUBLIC "-//W3C//DTD SVG 1.1//EN" "http://www.w3.org/Graphics/SVG/1.1/DTD/svg11.dtd" [
<!ENTITY ns_svg "http://www.w3.org/2000/svg">
<!ENTITY ns_xlink "http://www.w3.org/1999/xlink">
]>
<svg  version="1.1" id="Layer_1" xmlns="&ns_svg;" xmlns:xlink="&ns_xlink;" width="248.569" height="61.233"
viewBox="0 0 248.569 61.233" overflow="visible" enable-background="new 0 0 248.569 61.233" xml:space="preserve">
<g>
<g>
<path fill="#FF1100" d="M99.479,16.1c0-0.411-0.151-0.822-0.368-1.153c-0.284-0.37-0.762-0.559-1.311-0.559h-4.354
c-0.547,0-1.09,0.189-1.525,0.559c-0.546,0.331-0.87,0.835-0.983,1.374l-6.485,34.238c-2.726,1.264-5.014,2.026-6.798,2.397
c-1.849,0.412-3.593,0.607-5.292,0.607c-3.157,0-5.273-0.541-6.203-1.521c-1.03-0.983-1.57-2.376-1.57-4.313
c0-0.587,0.041-1.306,0.104-2.074c0.107-0.783,0.221-1.541,0.33-2.328l5.12-26.877V16.1c0-1.043-0.766-1.712-1.856-1.712h-4.2
c-0.588,0-1.139,0.189-1.57,0.559c-0.434,0.331-0.764,0.835-0.939,1.374L56.46,43.216c-0.26,1.529-0.474,2.981-0.474,4.468
c0,1.789,0.323,3.484,0.805,5.033c0.496,1.609,1.3,2.959,2.398,4.157c1.15,1.199,2.563,2.135,4.309,2.788
c1.675,0.673,3.744,1.018,6.142,1.018c3.044,0,5.655-0.363,7.901-1.19c1.966-0.679,3.859-1.461,5.782-2.418l-0.121,0.894
l-0.057,0.412c0,0.416,0.177,0.783,0.383,1.175c0.328,0.374,0.809,0.571,1.355,0.571h4.357c0.543,0,1.091-0.221,1.481-0.634
c0.478-0.37,0.764-0.872,0.917-1.33l7.84-41.71V16.1z M44.548,7.285c-0.613-0.871-1.312-1.616-2.138-2.139
c-0.805-0.542-1.742-0.89-2.719-1.086c-0.87-0.151-1.785-0.221-2.655-0.221c-0.829,0-1.743,0.093-2.79,0.286
c-0.976,0.221-2.005,0.547-2.937,1.021c-1.021,0.523-1.894,1.201-2.771,2.049c-0.87,0.87-1.635,1.962-2.283,3.29L0.226,57.637
c-0.106,0.328-0.213,0.719-0.213,1.156c-0.068,0.479,0.151,1.087,0.585,1.411c0.433,0.379,0.936,0.476,1.489,0.476h5.327
c0.545,0,1.091-0.211,1.572-0.476c0.434-0.324,0.823-0.715,1.044-1.261l8.926-18.227h21.562l2.18,18.01
c0,0.502,0.218,0.936,0.479,1.263c0.322,0.479,0.938,0.69,1.48,0.69h5.34c0.656,0,1.304-0.152,1.74-0.646
c0.438-0.434,0.545-1.09,0.545-1.742v-0.348l-6.646-47.26C45.465,9.351,45.09,8.199,44.548,7.285 M22.66,33.024l11.221-20.187
c0.431-0.822,1.522-0.96,2.177-0.941c1.343,0.093,1.521,0.941,1.521,0.941l2.331,20.187H22.66z M149.786,21.809h9.994
c0.569,0,1.158-0.216,1.528-0.586c0.437-0.323,0.72-0.828,0.872-1.374l0.574-2.764v-0.41c0-1.069-0.791-1.729-1.816-1.729h-9.777
l1.459-8.426V6.195c0-0.872-0.586-1.591-1.459-1.591h-0.279l-4.73,0.719c-1.264,0.132-2.133,0.872-2.285,1.962l-1.302,7.263
c-4.642-0.055-14.253-0.094-16.45-0.141c-1.199-0.021-3.878-0.021-5.553-0.021c-2.18,0-4.423,0.189-6.643,0.559
c-2.246,0.395-4.249,1.092-5.948,2.074c-1.741,1.041-3.157,2.351-4.292,4.027c-1.15,1.699-1.695,3.793-1.695,6.316
c0,3.789,2.568,7.189,7.512,10.236l8.059,4.79c2.072,1.177,3.44,2.253,4.029,3.05c0.611,0.758,0.937,1.592,0.937,2.399
c0,1.259-0.285,2.286-0.761,3.134c-0.502,0.849-1.198,1.436-2.071,1.963c-0.873,0.457-1.852,0.868-3.053,1.088
c-1.189,0.217-2.392,0.348-3.654,0.348c-0.758,0-1.679,0-2.877-0.045c-1.091-0.086-2.35-0.107-3.589-0.217
c-1.271-0.086-2.508-0.197-3.705-0.281c-1.262-0.113-2.396-0.218-3.482-0.331H98.78c-1.048-0.04-1.853,0.548-2.066,1.528
l-0.502,2.895v0.329c-0.049,0.478,0.176,0.999,0.61,1.24c0.324,0.216,0.701,0.413,1.131,0.544c1.045,0.217,2.181,0.397,3.373,0.55
c1.204,0.181,2.461,0.306,3.705,0.376c1.2,0.122,2.459,0.122,3.662,0.232c1.131,0.021,2.174,0.041,3.093,0.041
c2.459,0,4.851-0.218,7.143-0.677c2.395-0.459,4.466-1.284,6.205-2.307c1.852-1.155,3.268-2.573,4.361-4.356
c1.086-1.851,1.63-4.096,1.63-6.751c0-1.919-0.618-3.681-1.698-5.315c-1.135-1.66-3.268-3.396-6.252-5.249l-7.95-4.796
c-1.522-0.932-2.718-1.828-3.55-2.592c-0.764-0.759-1.089-1.541-1.089-2.479c0-1.136,0.282-2.006,0.76-2.658
c0.55-0.719,1.264-1.2,2.141-1.634c0.866-0.413,1.787-0.716,2.87-0.847c1.048-0.197,2.074-0.241,3.048-0.241
c2.215,0,17.191,0.121,21.888,0.227l-0.035,0.21l-5.336,28.029c-0.115,0.653-0.174,1.262-0.221,1.723
c-0.072,0.455-0.109,1-0.109,1.541c0,2.92,1.086,5.119,3.199,6.385c2.14,1.182,4.639,1.787,7.691,1.787
c0.807,0,1.743-0.021,2.766-0.115c0.982-0.036,1.916-0.158,2.832-0.326c0.713-0.111,1.172-0.235,1.521-0.587
c0.311-0.278,0.479-0.604,0.656-1.085l0.52-2.921v-0.413c0.071-0.457-0.157-0.912-0.588-1.088
c-0.277-0.109-0.652-0.131-1.019-0.131h-5.384c-1.371,0-2.354-0.131-2.941-0.414c-0.434-0.129-0.719-0.655-0.719-1.785
c0-0.546,0.111-1.309,0.285-2.287L149.786,21.809z M228.902,17.866c-0.062-0.87-0.886-1.395-1.974-1.611
c-2.241-0.566-4.713-1.002-7.461-1.354c-2.662-0.325-5.395-0.514-8.063-0.514c-2.662,0-5.233,0.305-7.783,0.954
c-2.499,0.591-4.788,1.679-6.856,3.158c-2.063,1.455-3.809,3.42-5.322,5.815c-1.546,2.46-2.628,5.429-3.353,8.995l-1.556,8.08
c-0.343,1.72-0.549,3.406-0.549,5.01c0,2.527,0.336,4.77,1.16,6.623c0.73,1.871,1.743,3.418,2.982,4.615
c1.314,1.264,2.828,2.137,4.51,2.715c1.736,0.607,3.597,0.881,5.505,0.881c1.515,0,2.833-0.041,4.032-0.273
c1.191-0.195,2.354-0.49,3.488-0.926c1.079-0.371,2.167-0.914,3.294-1.525c0.889-0.479,1.819-1.022,2.799-1.678l-0.262,1.568
v0.545c0,0.502,0.081,0.87,0.37,1.18c0.292,0.433,0.76,0.557,1.303,0.557h3.601c0.551,0,1.087-0.211,1.525-0.583
c0.424-0.392,0.764-0.849,0.865-1.37l7.587-40.119C228.786,18.499,228.902,18.169,228.902,17.866 M214.228,49.797
c-2.382,1.482-4.501,2.611-6.471,3.379c-1.948,0.824-3.912,1.195-5.936,1.195c-2.052,0-3.75-0.567-5.158-1.787
c-1.373-1.09-2.116-3.16-2.116-6.266c0-0.586,0.054-1.221,0.091-1.852c0.064-0.655,0.16-1.251,0.27-1.857l1.602-8.408
c0.813-4.269,2.377-7.491,4.728-9.693c2.272-2.154,5.651-3.287,10.168-3.287c1.875,0,3.481,0.109,4.749,0.26
c1.201,0.11,2.289,0.305,3.314,0.502L214.228,49.797z M247.995,0.532c-0.381-0.392-0.914-0.546-1.45-0.527h-4.588
c-1.365-0.082-2.612,0.874-2.758,2.208L228.61,58.137v0.438c0,0.545,0.135,1.088,0.495,1.549c0.441,0.404,0.992,0.557,1.532,0.557
h4.575c0.657,0,1.304-0.249,1.807-0.69c0.487-0.438,0.797-0.96,0.909-1.525l10.634-56.039V2.061
C248.606,1.511,248.434,0.965,247.995,0.532 M187.341,21.482c1.31,0.065,2.34-0.583,2.492-1.676l0.611-3.486v-0.411
c0-1.008-0.813-1.522-1.964-1.522h-0.159c-2.13,0-4.188,0.235-6.365,0.736c-1.928,0.435-3.915,1.415-6.096,2.833l0.17-0.873v-0.41
c0-1.008-0.72-1.729-1.701-1.729h-4.185c-0.56,0-1.089,0.202-1.521,0.612c-0.426,0.351-0.713,0.812-0.928,1.354l-7.781,41.685
v0.348c0,1.046,0.701,1.736,1.678,1.736h4.357c0.545,0,1.094-0.211,1.52-0.557c0.498-0.418,0.822-0.852,0.939-1.396l6.396-34.022
c2.142-1.194,4.044-2.026,5.83-2.505c1.79-0.497,3.943-0.718,6.445-0.718H187.341z"/>
</g>
</g>
</svg>
