<?xml version="1.0" encoding="utf-8"?>
<!-- Generator: Adobe Illustrator 22.1.0, SVG Export Plug-In . SVG Version: 6.00 Build 0)  -->
<svg version="1.1"
	 id="Layer_1" inkscape:version="0.48.1 " sodipodi:docname="AJAX.svg" xmlns:cc="http://creativecommons.org/ns#" xmlns:dc="http://purl.org/dc/elements/1.1/" xmlns:inkscape="http://www.inkscape.org/namespaces/inkscape" xmlns:rdf="http://www.w3.org/1999/02/22-rdf-syntax-ns#" xmlns:sodipodi="http://sodipodi.sourceforge.net/DTD/sodipodi-0.dtd" xmlns:svg="http://www.w3.org/2000/svg"
	 xmlns="http://www.w3.org/2000/svg" xmlns:xlink="http://www.w3.org/1999/xlink" x="0px" y="0px" width="210.201px" height="23px"
	 viewBox="0 0 210.201 23" style="enable-background:new 0 0 210.201 23;" xml:space="preserve">
<style type="text/css">
	.st0{fill:#0B1560;}
</style>
<sodipodi:namedview  bordercolor="#666666" borderopacity="1" fit-margin-bottom="0" fit-margin-left="0" fit-margin-right="0" fit-margin-top="0" gridtolerance="10" guidetolerance="10" id="namedview18" inkscape:current-layer="Layer_1" inkscape:cx="150.50965" inkscape:cy="-20.770045" inkscape:pageopacity="0" inkscape:pageshadow="2" inkscape:window-height="1004" inkscape:window-maximized="1" inkscape:window-width="1280" inkscape:window-x="-8" inkscape:window-y="-8" inkscape:zoom="3.5897593" objecttolerance="10" pagecolor="#ffffff" showgrid="false">
	</sodipodi:namedview>
<g id="_x23_0b1560ff" transform="translate(-1.751, -2.05831)">
	<path id="path4" inkscape:connector-curvature="0" class="st0" d="M20.653,2.9c1.055-0.558,2.241-0.848,3.434-0.821
		c5.331-0.002,10.661,0.018,15.992-0.006c-0.696,1.544-1.435,3.577-3.412,3.754c-4.953,0.138-9.919-0.013-14.878,0.069
		c-1.225-0.021-2.447,0.624-2.966,1.764c-1.068,2.093-2.026,4.241-3.075,6.346c4.249-0.003,8.501,0.003,12.751-0.006
		c-0.372,0.723-0.651,1.526-1.235,2.113c-0.713,0.561-1.683,0.457-2.529,0.482c-3.291-0.043-6.586,0.036-9.875-0.046
		c-1.187,2.224-2.188,4.538-3.335,6.782c-0.522,1.058-1.665,1.743-2.847,1.702c-2.308,0-4.621,0.084-6.927-0.076v-0.124
		c0.04,0.009,0.122,0.033,0.164,0.042c1.997-4.313,4.079-8.582,6.142-12.864c1.014-2.145,2.748-3.917,4.838-5.042
		C15.466,5.583,18.067,4.257,20.653,2.9z"/>
	<path id="path6" inkscape:connector-curvature="0" class="st0" d="M42.736,3.951c0.535-1.133,1.76-1.839,2.999-1.859
		c2.266-0.036,4.532,0.014,6.799-0.023c-3.336,7.017-6.752,13.998-10.112,21.004c-0.47,1.147-1.622,1.971-2.873,1.953
		c-2.328,0.033-4.657,0.007-6.984,0.011C35.951,18.008,39.345,10.981,42.736,3.951z"/>
	<path id="path8" inkscape:connector-curvature="0" class="st0" d="M61.622,2.202c0.742-0.369,1.603,0.049,2.006,0.713
		c3.32,4.566,6.66,9.118,10.013,13.657c0.369,0.502,0.646,1.057,0.92,1.615c2.124-4.202,4.099-8.481,6.155-12.715
		c0.529-1.048,0.916-2.309,2.027-2.897c1.536-0.821,3.347-0.394,5.012-0.486c-3.704,7.65-7.4,15.303-11.1,22.956
		c-1.876-0.026-3.754,0.039-5.627-0.028c-1.166-0.037-2.065-0.9-2.726-1.774c-2.591-3.448-5.186-6.895-7.777-10.336
		c-0.558-0.707-1.1-1.425-1.485-2.243c-2.108,4.198-4.05,8.479-6.132,12.69c-0.479,0.926-1.442,1.606-2.493,1.663
		c-1.225,0.07-2.451,0.011-3.674,0.025c2.607-5.59,5.277-11.158,7.94-16.722c0.862-1.833,2.149-3.515,3.921-4.539
		C59.584,3.21,60.58,2.658,61.622,2.202z"/>
	<path id="path10" inkscape:connector-curvature="0" class="st0" d="M97.771,2.202c0.727-0.362,1.574,0.029,1.985,0.677
		c3.327,4.569,6.672,9.131,10.031,13.68c0.376,0.506,0.654,1.074,0.933,1.635c2.363-4.706,4.573-9.494,6.887-14.228
		c0.485-1.033,1.545-1.716,2.666-1.835c1.203-0.103,2.412-0.023,3.617-0.056c-3.656,7.676-7.39,15.314-11.089,22.973
		c-1.884-0.032-3.773,0.039-5.66-0.032c-1.249-0.065-2.162-1.045-2.851-1.989c-2.94-3.961-5.963-7.859-8.868-11.847
		c-0.095-0.076-0.285-0.233-0.379-0.308c-1.893,4.044-3.864,8.05-5.772,12.087c-0.433,0.991-1.299,1.872-2.41,2.02
		c-1.31,0.138-2.63,0.025-3.941,0.075c2.124-4.707,4.404-9.353,6.618-14.024c0.946-1.861,1.669-3.886,3.072-5.473
		C93.986,3.984,95.926,3.094,97.771,2.202z"/>
	<path id="path12" inkscape:connector-curvature="0" class="st0" d="M137.266,2.933c1.043-0.565,2.217-0.87,3.407-0.852
		c2.52,0,5.044-0.002,7.569,0c1.832-0.006,3.635,0.672,5.045,1.839c1.612,1.242,3.271,2.425,4.867,3.686
		c0.718,0.493,0.771,1.455,0.363,2.175c-2.422,5.094-4.918,10.155-7.337,15.252c-2.092,0-4.187,0.028-6.28-0.006
		c-1.127,0.078-2.056-1.232-1.505-2.251c0.898-2.099,2.007-4.104,2.933-6.192c-4.949-0.012-9.896-0.003-14.846-0.003
		c-1.084,2.193-2.12,4.413-3.202,6.608c-0.488,1.022-1.511,1.81-2.666,1.829c-2.379,0.063-4.759-0.015-7.137,0.036
		c2.065-4.346,4.157-8.678,6.242-13.014c1.012-2.138,2.717-3.919,4.795-5.042C132.092,5.63,134.681,4.284,137.266,2.933
		 M135.806,7.666c-1.065,2.089-2.023,4.233-3.077,6.332c4.957,0.014,9.909,0.003,14.865,0.003c0.995-2.089,2.006-4.171,3.026-6.25
		c0.16-0.44,0.545-0.916,0.308-1.396c-0.388-0.564-1.116-0.457-1.702-0.482c-3.504,0.026-7.008-0.022-10.51,0.023
		C137.49,5.864,136.322,6.55,135.806,7.666z"/>
	<path id="path14" inkscape:connector-curvature="0" class="st0" d="M166.943,4.696c0.462-1.284,1.496-2.424,2.92-2.563
		c2.397-0.131,4.805,0.003,7.205-0.065c-3.235,6.986-6.678,13.881-9.987,20.833c-0.452,1.118-1.478,2.053-2.721,2.117
		c-2.408,0.065-4.818,0.011-7.229,0.025C160.403,18.258,163.681,11.482,166.943,4.696L166.943,4.696z"/>
	<path id="path16" inkscape:connector-curvature="0" class="st0" d="M187.785,4.501c1.971-0.916,3.824-2.385,6.09-2.408
		c2.638-0.018,5.278-0.029,7.915,0.006c2.394,0.082,4.437,1.459,6.218,2.937c1.297,1.113,2.907,1.899,3.944,3.284v0.85
		c-0.607,1.568-1.317,3.102-2.102,4.586c-0.884,1.583-2.811,2.085-4.487,2.254c-2.77,0.22-5.55-0.058-8.32,0.156
		c0.078,0.107,0.238,0.321,0.315,0.424c1.59,0.589,3.899,0.029,4.861,1.767c1.346,2.238,2.693,4.475,4.059,6.702
		c-2.705-0.051-5.415,0.02-8.123-0.033c-1.034,0.041-2.003-0.523-2.522-1.404c-1.244-1.944-2.356-3.967-3.567-5.929
		c-0.462-0.762-1.179-1.442-2.102-1.537c-1.557-0.154-3.124-0.023-4.683-0.073c-1.143,2.276-2.223,4.581-3.351,6.864
		c-0.478,1.116-1.52,2.056-2.784,2.067c-2.383,0.078-4.762-0.008-7.144,0.038c2.224-4.623,4.371-9.291,6.693-13.863
		C180.564,7.672,184.511,6.326,187.785,4.501 M189.139,7.504c-1.018,1.977-1.935,4.006-2.93,5.994
		c3.984-0.006,7.969,0.013,11.952-0.011c1.337,0.003,2.937-0.272,3.646-1.554c0.725-1.365,1.321-2.798,2.024-4.174
		c0.17-0.448,0.564-0.943,0.298-1.433c-0.411-0.515-1.108-0.45-1.69-0.457c-3.502,0.026-7.003-0.023-10.504,0.023
		C190.804,5.899,189.664,6.477,189.139,7.504L189.139,7.504z"/>
</g>
</svg>
