<?xml version="1.0" encoding="utf-8"?>
<!-- Generator: Adobe Illustrator 22.1.0, SVG Export Plug-In . SVG Version: 6.00 Build 0)  -->
<svg version="1.1" id="Слой_1" xmlns="http://www.w3.org/2000/svg" xmlns:xlink="http://www.w3.org/1999/xlink" x="0px" y="0px"
	 width="100px" height="23px" viewBox="0 0 100 23" style="enable-background:new 0 0 100 23;" xml:space="preserve">
<style type="text/css">
	.st0{fill:#0D7F30;}
	.st1{fill:#BA1A00;}
</style>
<title>Alitalia</title>
<desc>Created with Sketch.</desc>
<g id="AVIA">
	<g id="Alitalia" transform="translate(-1.000000, 0.000000)">
		<g id="g76256">
			<g id="g76262">
				<g id="g76264">
					<path id="path76276" class="st0" d="M26.363,0c-2.433,0-4.121,0.631-6.302,3.006L0.998,22.883L1.304,23H8.19L27.097,3.312
						L24.326,23h5.61l3.225-23H26.363z M81.492,5.771l-0.334,2.371h4.913l0.338-2.371H81.492z M74.258,5.771L71.833,23h4.917
						l2.423-17.229H74.258z M49.198,5.771l-1.794,12.784c-0.104,0.707-0.161,1.264-0.161,1.612c0,0.522,0.044,0.774,0.123,1.083
						c0.328,1.26,1.3,1.75,2.785,1.75h1.517h3.199l0.422-2.821h-1.947c-0.814,0-1.107-0.265-1.107-0.8
						c0-0.171,0.014-0.4,0.058-0.687l0.944-6.707h3.338l1.728-2.829h-4.674l0.482-3.384L49.198,5.771L49.198,5.771z M41.969,5.771
						l-0.33,2.371h4.911l0.334-2.371H41.969z M34.704,5.771L32.289,23h4.907l2.425-17.229H34.704z M88.563,9.155l-0.4,2.829h5.88
						c1.169,0,1.467,0.356,1.467,1.017c0,0.197-0.028,0.462-0.068,0.729l-0.054,0.374h-2.502c-2.586,0-4.264,0.324-5.574,1.67
						c-0.752,0.76-1.31,2.06-1.31,3.719c0,1.282,0.545,2.271,1.493,2.843c0.631,0.382,1.794,0.661,3.478,0.661h3.167h3.08h1.839
						l1.137-8.074c0.098-0.725,0.211-1.453,0.211-2.425c0-1.137-0.526-2.237-1.939-2.843c-0.784-0.338-1.849-0.5-3.233-0.5H88.563z
						 M90.888,19.905c-0.293-0.221-0.44-0.541-0.44-0.973c0-1.025,0.625-1.786,1.831-1.993c0.243-0.04,0.802-0.066,1.101-0.066
						h1.616l-0.472,3.356H92.17C91.581,20.229,91.171,20.122,90.888,19.905z M81.016,9.155L79.065,23h4.921l1.943-13.845H81.016z
						 M60.24,9.155l-1.736,2.829h6.081c1.174,0,1.471,0.356,1.471,1.017c0,0.197-0.028,0.462-0.068,0.729l-0.062,0.374H63.43
						c-2.592,0-4.26,0.324-5.582,1.67c-0.741,0.76-1.304,2.06-1.304,3.719c0,1.282,0.545,2.271,1.493,2.843
						c0.631,0.382,1.786,0.661,3.476,0.661h3.171h3.08h1.835l1.133-8.074c0.102-0.725,0.211-1.453,0.211-2.425
						c0-1.137-0.522-2.237-1.929-2.843c-0.784-0.338-1.845-0.5-3.239-0.5H60.24z M61.416,19.905
						c-0.279-0.221-0.424-0.541-0.424-0.973c0-1.025,0.621-1.786,1.823-1.993c0.251-0.04,0.802-0.066,1.111-0.066h1.606
						l-0.468,3.356h-2.361C62.131,20.229,61.713,20.122,61.416,19.905z M41.492,9.155L39.545,23h4.917l1.943-13.845H41.492z"/>
				</g>
			</g>
		</g>
		<polygon id="Shape" class="st1" points="11,23 23.715,10 21.852,23 		"/>
	</g>
</g>
</svg>
