<?xml version="1.0" encoding="utf-8"?>
<!-- Generator: Adobe Illustrator 21.0.2, SVG Export Plug-In . SVG Version: 6.00 Build 0)  -->
<svg version="1.1" id="Calque_1" xmlns="http://www.w3.org/2000/svg" xmlns:xlink="http://www.w3.org/1999/xlink" x="0px" y="0px"
	 viewBox="0 0 676 108.4" style="enable-background:new 0 0 676 108.4;" xml:space="preserve">
<style type="text/css">
	.st0{fill:#84BCE3;}
	.st1{fill:#4B4F54;}
</style>
<path class="st0" d="M236.7,24.9c-16.2,0-29.4,13.2-29.4,29.4s13.2,29.4,29.4,29.4s29.4-13.2,29.4-29.4
	C266,38.1,252.9,24.9,236.7,24.9z M236.7,67.9c-7.5,0-13.7-6.1-13.7-13.7c0-7.5,6.1-13.7,13.7-13.7c7.5,0,13.7,6.1,13.7,13.7
	C250.3,61.8,244.2,67.9,236.7,67.9z"/>
<path class="st1" d="M206.5,78.1c-6,5.8-14.2,9.4-23.2,9.4c-18.4,0-33.3-14.9-33.3-33.3s14.9-33.3,33.3-33.3c9,0,17.2,3.6,23.2,9.4
	c4.4-5.6,10.3-9.9,17.1-12.3c-9.9-11-24.3-18-40.3-18c-29.9,0-54.2,24.3-54.2,54.2s24.3,54.2,54.2,54.2c16,0,30.3-7,40.3-18
	C216.8,88,210.9,83.7,206.5,78.1z"/>
<polygon class="st1" points="333.5,25.3 307,25.3 310.8,28.1 304.8,52.9 297.9,25.3 271,25.3 275.9,28.9 275.9,79.6 271,83.2 
	294.6,83.2 290.9,80.5 290.9,46.4 303.9,83.2 305.3,83.2 318.4,46.4 318.4,80.5 314.7,83.2 338.4,83.2 333.5,79.6 "/>
<path class="st1" d="M379.8,25.3h-33.6l4.9,3.6v50.7l-4.9,3.6h25.5l-4.9-3.6V64.7h10.6c11.4,0,23.5-5.1,23.5-19.4
	C400.9,32.1,393.8,25.3,379.8,25.3z M375.3,52.8h-8.5V37.2h8.2c5.4,0,10.3,0.6,10.3,7.4C385.4,51.4,381.5,52.8,375.3,52.8z"/>
<path class="st1" d="M438.5,25.3h-21.9l4.9,3.5l-18.9,50.8l-4.9,3.6h24l-3-2.2l2.1-6.8h19.5l2.1,6.9l-3,2.2h23.9l-4.9-3.5
	L438.5,25.3z M424.5,62.5l5.9-20.3l6.3,20.3C436.7,62.5,424.5,62.5,424.5,62.5z"/>
<path class="st1" d="M85,25.3H63.1l4.9,3.5L49.1,79.6l-4.9,3.6h24l-3-2.2l2.1-6.8h19.6l2.1,6.9l-3,2.2h23.9l-4.9-3.5L85,25.3z
	 M71,62.5l5.9-20.3l6.3,20.3C83.2,62.5,71,62.5,71,62.5z"/>
<polygon class="st1" points="20.5,70.6 20.5,25.3 0,25.3 5,28.9 5,79.6 0,83.2 36.4,83.2 36.4,65.7 32.8,70.6 "/>
<polygon class="st1" points="582,25.3 562,25.3 566.9,28.9 566.9,57.5 548.1,25.3 528.2,25.3 533.1,28.9 533.1,79.6 528.2,83.2 
	551.9,83.2 548.2,80.5 548.2,51.6 565.5,80.7 562,83.2 587,83.2 582,79.5 "/>
<polygon class="st1" points="673.3,37.8 676,41.5 676,25.3 627.9,25.3 632.8,28.9 632.8,79.6 627.9,83.2 675.9,83.2 675.9,65.6 
	672.4,70.5 648.4,70.5 648.4,58.7 664.8,58.7 667.5,62.4 667.5,42.8 664.8,46.5 648.4,46.5 648.4,37.8 "/>
<polygon class="st1" points="615.2,25.3 594.7,25.3 599.6,28.9 599.6,79.6 594.7,83.2 620.1,83.2 615.2,79.6 "/>
<path class="st1" d="M518.5,50.9h-2.8h-2h-7.1h-3.2h-11.3v11.9h9.4c-2.9,6.9-8.3,6.9-10.5,6.9c-9.4,0-12.7-8.2-12.7-15.8
	c0-8.6,5.6-15.4,13.1-15.8c5.1-0.3,9.3,1.4,12.8,5l-1.5,4.9l3.5-2.6l0,0l12.2-8.9c-6.8-9.3-16.7-14.1-27.7-13.5
	c-15.6,0.9-27.4,14.1-27.4,30.9c0,18.2,11.4,30.9,27.8,30.9c3.7,0,10.4-0.8,15.6-7.1v5.5h10.6h1.2h3.7l-3.7-2.7V50.9z"/>
</svg>