<?xml version="1.0" encoding="utf-8"?>
<!-- Generator: Adobe Illustrator 23.0.5, SVG Export Plug-In . SVG Version: 6.00 Build 0)  -->
<svg version="1.1"
	 id="svg445" xmlns:cc="http://creativecommons.org/ns#" xmlns:dc="http://purl.org/dc/elements/1.1/" xmlns:inkscape="http://www.inkscape.org/namespaces/inkscape" xmlns:rdf="http://www.w3.org/1999/02/22-rdf-syntax-ns#" xmlns:sodipodi="http://sodipodi.sourceforge.net/DTD/sodipodi-0.dtd" xmlns:svg="http://www.w3.org/2000/svg"
	 xmlns="http://www.w3.org/2000/svg" xmlns:xlink="http://www.w3.org/1999/xlink" x="0px" y="0px" viewBox="0 0 171 43"
	 style="enable-background:new 0 0 171 43;" xml:space="preserve">
<style type="text/css">
	.st0{fill:#49559F;}
</style>
<sodipodi:namedview  bordercolor="#666666" borderopacity="1.0" fit-margin-bottom="0" fit-margin-left="0" fit-margin-right="0" fit-margin-top="0" id="base" inkscape:current-layer="layer1" inkscape:cx="85.499999" inkscape:cy="21.499042" inkscape:document-units="mm" inkscape:pageopacity="0.0" inkscape:pageshadow="2" inkscape:window-height="744" inkscape:window-maximized="1" inkscape:window-width="1280" inkscape:window-x="-4" inkscape:window-y="-4" inkscape:zoom="4.6900585" pagecolor="#ffffff" showgrid="false" units="px">
	</sodipodi:namedview>
<g id="layer1" transform="translate(71.758779,-205.62451)" inkscape:groupmode="layer" inkscape:label="Layer 1">
	<g id="XMLID_102_" transform="matrix(0.26458333,0,0,0.26458333,-71.626489,205.7568)">
		<g id="XMLID_153_">
			<g id="XMLID_225_">
				<g id="XMLID_226_">
					<path id="XMLID_227_" inkscape:connector-curvature="0" class="st0" d="M515.7,3.3c0,0,0-0.1,0-0.1l-1.8-3.5
						c-0.1-0.2-0.5-0.2-0.5,0.1L512.7,3c-0.1,0.2-0.4,0.3-0.5,0.1l-2-2.7c-0.2-0.2-0.5-0.1-0.5,0.2L509.6,4c0,0.2-0.3,0.4-0.5,0.2
						l-2.6-2.3c-0.2-0.2-0.5,0-0.5,0.3l0.5,3.3c0,0.2-0.2,0.4-0.4,0.3L503.2,4c-0.2-0.1-0.5,0.1-0.4,0.3l1.2,3.7c0,0,0,0.1,0.1,0.1
						l8.4,8.9c0.1,0.1,0.2,0.1,0.3,0c0.9-0.8,2.1-1.3,3.4-1.4c0.1,0,0.2-0.1,0.2-0.2L515.7,3.3z"/>
				</g>
			</g>
			<g id="XMLID_222_">
				<g id="XMLID_223_">
					<path id="XMLID_224_" inkscape:connector-curvature="0" class="st0" d="M503.1,9.2c0,0-0.1,0-0.1-0.1L499.2,8
						c-0.3-0.1-0.5,0.2-0.3,0.4l1.8,2.8c0.1,0.2,0,0.5-0.3,0.4l-3.3-0.5c-0.3,0-0.4,0.3-0.2,0.5l2.3,2.4c0.2,0.2,0.1,0.5-0.2,0.5
						l-3.4,0.2c-0.3,0-0.4,0.4-0.2,0.5l2.7,2c0.2,0.1,0.1,0.5-0.1,0.5l-3.3,0.7c-0.3,0.1-0.3,0.4-0.1,0.5l3.5,1.7c0,0,0.1,0,0.1,0
						l12.2,0.4c0.1,0,0.2-0.1,0.2-0.2c0.1-1.2,0.6-2.4,1.4-3.4c0.1-0.1,0.1-0.2,0-0.3L503.1,9.2z"/>
				</g>
			</g>
			<g id="XMLID_219_">
				<g id="XMLID_220_">
					<path id="XMLID_221_" inkscape:connector-curvature="0" class="st0" d="M498.3,22.3c0,0-0.1,0-0.1,0l-3.5,1.8
						c-0.2,0.1-0.2,0.5,0.1,0.5l3.2,0.7c0.2,0.1,0.3,0.4,0.1,0.5l-2.7,2c-0.2,0.2-0.1,0.5,0.2,0.5l3.4,0.1c0.2,0,0.4,0.3,0.2,0.5
						l-2.3,2.6c-0.2,0.2,0,0.5,0.3,0.5l3.3-0.5c0.2,0,0.4,0.2,0.3,0.4l-1.8,2.9c-0.1,0.2,0.1,0.5,0.3,0.4L503,34c0,0,0.1,0,0.1-0.1
						l8.9-8.4c0.1-0.1,0.1-0.2,0-0.3c-0.8-0.9-1.3-2.1-1.4-3.4c0-0.1-0.1-0.2-0.2-0.2L498.3,22.3z"/>
				</g>
			</g>
			<g id="XMLID_216_">
				<g id="XMLID_217_">
					<path id="XMLID_218_" inkscape:connector-curvature="0" class="st0" d="M504.2,34.9c0,0,0,0.1-0.1,0.1l-1.2,3.7
						c-0.1,0.3,0.2,0.5,0.4,0.3l2.8-1.8c0.2-0.1,0.5,0,0.4,0.3l-0.5,3.3c0,0.3,0.3,0.4,0.5,0.2l2.4-2.3c0.2-0.2,0.5-0.1,0.5,0.2
						l0.2,3.4c0,0.3,0.4,0.4,0.5,0.2l2-2.7c0.1-0.2,0.5-0.1,0.5,0.1l0.7,3.3c0.1,0.3,0.4,0.3,0.5,0.1l1.7-3.5c0,0,0-0.1,0-0.1
						l0.4-12.2c0-0.1-0.1-0.2-0.2-0.2c-1.2-0.1-2.4-0.6-3.4-1.4c-0.1-0.1-0.2-0.1-0.3,0L504.2,34.9z"/>
				</g>
			</g>
			<g id="XMLID_213_">
				<g id="XMLID_214_">
					<path id="XMLID_215_" inkscape:connector-curvature="0" class="st0" d="M517.4,39.7c0,0,0,0.1,0,0.1l1.8,3.5
						c0.1,0.2,0.5,0.2,0.5-0.1l0.7-3.2c0.1-0.2,0.4-0.3,0.5-0.1l2,2.7c0.2,0.2,0.5,0.1,0.5-0.2l0.1-3.3c0-0.2,0.3-0.4,0.5-0.2
						l2.6,2.3c0.2,0.2,0.5,0,0.5-0.3l-0.5-3.3c0-0.2,0.2-0.4,0.4-0.3l2.9,1.8c0.2,0.1,0.5-0.1,0.4-0.3L529,35c0,0,0-0.1-0.1-0.1
						l-8.4-8.9c-0.1-0.1-0.2-0.1-0.3,0c-0.9,0.8-2.1,1.3-3.4,1.4c-0.1,0-0.2,0.1-0.2,0.2L517.4,39.7z"/>
				</g>
			</g>
			<g id="XMLID_161_">
				<g id="XMLID_211_">
					<path id="XMLID_212_" inkscape:connector-curvature="0" class="st0" d="M530,33.8c0,0,0.1,0,0.1,0.1l3.7,1.2
						c0.3,0.1,0.5-0.2,0.3-0.4l-1.8-2.8c-0.1-0.2,0-0.5,0.3-0.4l3.3,0.5c0.3,0,0.4-0.3,0.2-0.5l-2.3-2.4c-0.2-0.2-0.1-0.5,0.2-0.5
						l3.4-0.2c0.3,0,0.4-0.4,0.2-0.5l-2.7-2c-0.2-0.1-0.1-0.5,0.1-0.5l3.3-0.7c0.3-0.1,0.3-0.4,0.1-0.5l-3.5-1.7c0,0-0.1,0-0.1,0
						l-12.2-0.4c-0.1,0-0.2,0.1-0.2,0.2c-0.1,1.2-0.6,2.4-1.4,3.4c-0.1,0.1-0.1,0.2,0,0.3L530,33.8z"/>
				</g>
			</g>
			<g id="XMLID_158_">
				<g id="XMLID_159_">
					<path id="XMLID_160_" inkscape:connector-curvature="0" class="st0" d="M534.8,20.7c0,0,0.1,0,0.1,0l3.5-1.8
						c0.2-0.1,0.2-0.5-0.1-0.5l-3.2-0.7c-0.2-0.1-0.3-0.4-0.1-0.5l2.7-2c0.2-0.2,0.1-0.5-0.2-0.5l-3.4-0.1c-0.2,0-0.4-0.3-0.2-0.5
						l2.3-2.6c0.2-0.2,0-0.5-0.3-0.5l-3.3,0.5c-0.2,0-0.4-0.2-0.3-0.4l1.8-2.9c0.1-0.2-0.1-0.5-0.3-0.4L530,9c0,0-0.1,0-0.1,0.1
						l-8.9,8.4c-0.1,0.1-0.1,0.2,0,0.3c0.8,0.9,1.3,2.1,1.4,3.4c0,0.1,0.1,0.2,0.2,0.2L534.8,20.7z"/>
				</g>
			</g>
			<g id="XMLID_155_">
				<g id="XMLID_156_">
					<path id="XMLID_157_" inkscape:connector-curvature="0" class="st0" d="M528.8,8.1c0,0,0-0.1,0.1-0.1l1.2-3.7
						c0.1-0.3-0.2-0.5-0.4-0.3l-2.8,1.8c-0.2,0.1-0.5,0-0.4-0.3l0.5-3.3c0-0.3-0.3-0.4-0.5-0.2L524,4.2c-0.2,0.2-0.5,0.1-0.5-0.2
						l-0.2-3.4c0-0.3-0.4-0.4-0.5-0.2l-2,2.7c-0.1,0.2-0.5,0.1-0.5-0.1l-0.7-3.3c-0.1-0.3-0.4-0.3-0.5-0.1l-1.7,3.5c0,0,0,0.1,0,0.1
						l-0.4,12.2c0,0.1,0.1,0.2,0.2,0.2c1.2,0.1,2.4,0.6,3.4,1.4c0.1,0.1,0.2,0.1,0.3,0L528.8,8.1z"/>
				</g>
			</g>
			<circle id="XMLID_154_" class="st0" cx="516.5" cy="21.5" r="5.1"/>
		</g>
		<g id="XMLID_103_">
			<g id="XMLID_104_">
				<g id="XMLID_105_">
					<g id="XMLID_106_">
						<g id="XMLID_107_">
							<g id="XMLID_108_">
								<g id="XMLID_109_">
									<path id="XMLID_149_" inkscape:connector-curvature="0" class="st0" d="M109.9,125.9c0,19.6-15.3,34.5-46.2,34.5H-0.5V29.2
										h60.7c31.9,0,42.7,18.8,42.7,34.7c0,16.9-8.6,25.4-18.2,29.5C96.2,97,109.9,106.3,109.9,125.9z M14.8,87.8h45.4
										c14.1,0,27.4-6.7,27.4-22.8c0-10.9-7.2-21.8-25.8-21.8h-47V87.8z M94.5,124.7c0-12.3-9.4-23.4-30.9-23.4H14.8v45h50.5
										C83.9,146.3,94.5,138.4,94.5,124.7z"/>
									<path id="XMLID_146_" inkscape:connector-curvature="0" class="st0" d="M206.8,131.9h16.8c-7.2,17.8-22.3,30.1-46.6,30.1
										c-31.3,0-51.7-22.8-51.7-51.2s19.4-51.2,50.7-51.2s50.7,22.8,50.7,51.2v5.9h-85.6c2.2,17.6,15.5,31.7,36.2,31.7
										C191.4,148.5,201.2,141.8,206.8,131.9z M141.1,102.9h69.5c-2.9-16.9-15.1-29.7-34.7-29.7C156.3,73.2,144,86.1,141.1,102.9z
										"/>
									<path id="XMLID_144_" inkscape:connector-curvature="0" class="st0" d="M260.7,160.4h-15.3V21.6h15.3L260.7,160.4z"/>
									<path id="XMLID_117_" inkscape:connector-curvature="0" class="st0" d="M367,77.3V61.3h15.3v99.2H367v-15.9
										c-7.6,10.7-19.6,17.4-36.6,17.4c-29.8,0-49.5-22.8-49.5-51.2s19.6-51.2,49.5-51.2C347.4,59.7,359.4,66.6,367,77.3z
										 M367.8,110.9c0-20.4-12.7-37.7-35.4-37.7c-22.7,0-36.2,17.3-36.2,37.7s13.5,37.7,36.2,37.7
										C355.1,148.5,367.8,131.3,367.8,110.9z"/>
									<path id="XMLID_115_" inkscape:connector-curvature="0" class="st0" d="M494.5,61.3l-39.9,99.2h-18l-40.1-99.2h16.8
										l32.3,83.3l32.1-83.3H494.5z"/>
									<path id="XMLID_113_" inkscape:connector-curvature="0" class="st0" d="M508.9,61.3h15.3v99.2h-15.3V61.3z"/>
									<path id="XMLID_110_" inkscape:connector-curvature="0" class="st0" d="M630.5,77.3V61.3h15.3v99.2h-15.3v-15.9
										c-7.6,10.7-19.6,17.4-36.6,17.4c-29.8,0-49.5-22.8-49.5-51.2s19.6-51.2,49.5-51.2C610.8,59.7,622.9,66.6,630.5,77.3z
										 M631.3,110.9c0-20.4-12.7-37.7-35.4-37.7c-22.7,0-36.2,17.3-36.2,37.7s13.5,37.7,36.2,37.7
										C618.6,148.5,631.3,131.3,631.3,110.9z"/>
								</g>
							</g>
						</g>
					</g>
				</g>
			</g>
		</g>
	</g>
</g>
</svg>
