<?xml version="1.0" encoding="utf-8"?>
<!-- Generator: Adobe Illustrator 22.1.0, SVG Export Plug-In . SVG Version: 6.00 Build 0)  -->
<svg version="1.1" id="Слой_1" xmlns="http://www.w3.org/2000/svg" xmlns:xlink="http://www.w3.org/1999/xlink" x="0px" y="0px"
	 width="1276.5px" height="227.2px" viewBox="0 0 1276.5 227.2" style="enable-background:new 0 0 1276.5 227.2;"
	 xml:space="preserve">
<style type="text/css">
	.st0{fill:#082539;}
</style>
<g>
	<g>
		<g>
			<g>
				<path class="st0" d="M609.9,54.5c6.5,2.9,10.9,7.6,12.9,14c3.3,11.1,2.2,21.9-3.8,32c-4.6,7.9-11.9,11.7-20.2,13.8
					c-7.2,1.9-14.5,2.9-21.9,2.9c-25.7-0.1-51.3,0-77,0c-1.1,0-2.2,0-3.6,0c0-38.1,0-76,0-114.2c0.8,0,1.7-0.1,2.6-0.1
					c24.1-0.1,48.2-0.1,72.2-0.1c8.8,0,17.5,1,25.9,4c13.4,4.8,20.5,15.6,20.5,29.5C617.3,43,614.5,49,609.9,54.5z M529.1,93
					c1.2,0,2.1,0,3,0c11,0,22.1,0.2,33.1-0.1c5-0.1,10.1-1.2,15-2.1c6.7-1.3,10.6-5.3,11.1-12.2c0.8-10.7-1.4-16.3-11.1-20.5
					c-1.4-0.6-2.8-1.1-4.2-1.7c0.2,0.2,0.5,0.3,0.7,0.5c1.7-2.1,3.4-4.1,5.1-6.2c5.5-6.8,3.4-15.3-4.7-18.6c-5.3-2.1-10.9-3-16.5-3
					c-9.4-0.1-18.9,0-28.3,0c-1,0-2,0.1-3.1,0.1C529.1,50.4,529.1,71.5,529.1,93z"/>
				<path class="st0" d="M271.1,27.2c-29,0-57.9,0-86.9,0c0,6.9,0,13.5,0,20.6c24.3,0,48.5,0,72.9,0c0,8.3,0,16.2,0,24.4
					c-24.3,0-48.4,0-72.9,0c0,7,0,13.8,0,21c28.8,0,57.8,0,86.8,0c0,8.2,0,15.9,0,23.9c-39.6,0-79.2,0-118.9,0
					c0-37.7,0-75.3,0-113.2c39.7,0,79.3,0,119,0C271.1,11.6,271.1,19.2,271.1,27.2z"/>
				<path class="st0" d="M1189.6,27.1c0,7.1,0,13.7,0,20.6c24.3,0,48.4,0,72.8,0c0,8.3,0,16.2,0,24.5c-24.3,0-48.5,0-72.9,0
					c0,7,0,13.7,0,20.8c28.9,0,57.7,0,86.8,0c0,8.2,0,16,0,24c-39.5,0-79,0-118.7,0c0-37.6,0-75.3,0-113.2c39.6,0,79.2,0,118.9,0
					c0,7.8,0,15.4,0,23.3C1247.6,27.1,1218.7,27.1,1189.6,27.1z"/>
				<path class="st0" d="M728.3,118.8c-17.6,0.8-33.6-4.2-47.7-14.8c-10.2-7.6-18.3-16.9-21.7-29.3c-5.9-21.5-0.1-39.8,16.1-54.8
					c11.5-10.7,25.2-17.1,40.8-19c21.9-2.8,42.4,0.8,60.4,14.5c10.4,7.9,18.6,17.6,21.9,30.5c5.2,20.8-0.5,38.5-16,53.1
					c-12.3,11.5-27,17.9-43.7,19.7C735,119.1,731.6,118.8,728.3,118.8z M727.7,93.1c11.9,0,21.1-3.4,29.9-11.1
					c12.3-10.7,13.8-27.7,3.4-40.1c-7.1-8.5-16.4-12.9-27.3-14.2c-13.7-1.6-25.8,1.8-36.1,11.2c-12.4,11.4-13,29.8-1.2,41.7
					C705.1,89.2,715.6,93.1,727.7,93.1z"/>
				<path class="st0" d="M1090.1,61.5c0-19.6,0-38.7,0-57.9c10.7,0,21.2,0,31.9,0c0,37.7,0,75.3,0,113.4
					c-30.1-19.1-60-38.1-90.4-57.4c0,19.6,0,38.5,0,57.6c-10.7,0-21.2,0-31.8,0c0-37.6,0-75.3,0-113.4
					C1029.8,23,1059.7,42.1,1090.1,61.5z"/>
				<path class="st0" d="M836.9,116.5c0-38.1,0-76,0-114c1-0.1,1.8-0.2,2.6-0.2c23.5-0.1,47-0.1,70.6-0.1c7.3,0,14.6,0.9,21.5,3.4
					c13.6,4.9,22.8,17.7,22.8,31.4c0,9.6-3.8,17-12.1,22c-3.1,1.8-6.3,3.4-9.6,5.2c11.4,17.3,22.8,34.6,34.4,52.2
					c-11.4,0-22.4,0-33.9,0c-13.3-20.1-26.8-40.5-40.6-61.4c5.5,0,10.4,0,15.3,0c10.6,0,17.5-10.2,13.6-20.1c-1.6-4-4.9-5.9-8.8-6.8
					c-1.6-0.4-3.3-0.8-4.9-0.8c-12.8,0-25.6,0.1-38.3,0.2c-0.2,0-0.4,0.1-0.9,0.3c0,29.5,0,59,0,88.9
					C857.7,116.5,847.4,116.5,836.9,116.5z"/>
				<path class="st0" d="M114.8,4.1c0,7.8,0,15.2,0,23c-1.2,0.1-2.3,0.2-3.5,0.2c-24.7,0-49.5,0-74.2,0c-3.9,0-7.6,0.6-10.2,3.9
					c-2.3,3-3.1,6.4-1.5,9.9c1.8,3.9,5.1,6,9.5,6.1c8.1,0,16.1,0,24.2,0c7.5,0,15-0.1,22.5,0.2c13,0.5,23.8,5.7,30.2,17.2
					c12.7,22.7-0.9,44.4-20.8,50.2c-4.3,1.2-8.9,1.6-13.4,1.6c-24.9,0.1-49.8,0.1-74.8,0.1c-0.9,0-1.8-0.1-2.8-0.1
					c0-7.7,0-15.2,0-22.9c1.3,0,2.3,0,3.4,0c24.3,0,48.5,0,72.8,0c1.9,0,3.9-0.2,5.8-0.5c6-1,10-6,9.7-12.2
					C91.5,75.7,86.5,71,81,70.5c-1.1-0.1-2.2-0.1-3.3-0.1c-14.4,0-28.7,0-43.1,0c-9,0-17-2.9-23.9-8.8c-9-7.8-11.5-17.8-10.5-29.2
					C1.6,17.2,17.3,5.1,31.1,4.7c4.5-0.2,9.1-0.4,13.6-0.4c22.1,0,44.3,0,66.4,0C112.3,4.1,113.4,4.1,114.8,4.1z"/>
				<path class="st0" d="M388.4,2.5c25.5,38.4,50.8,76.4,76.4,114.9c-2,0-3.3,0-4.7,0c-9.2,0-18.3-0.1-27.5,0c-2,0-3.1-0.6-4.3-2.3
					c-12.6-18.7-25.3-37.4-38-56c-0.5-0.7-1-1.3-1.7-2.3c-0.8,1.1-1.4,1.9-2,2.8c-12.8,18.5-25.6,37-38.3,55.5
					c-1.1,1.6-2.2,2.1-4.1,2.1c-9.8,0-19.6,0.1-29.5,0.1c-0.7,0-1.5,0-2.8,0C337.5,78.9,362.8,41,388.4,2.5z"/>
			</g>
		</g>
	</g>
</g>
<g>
	<path class="st0" d="M275.5,215.2h-24.4l-4.8,11.3H237l22-48.8h8.9l22,48.8h-9.5L275.5,215.2z M272.5,208.1l-9.2-21.3l-9.1,21.3
		H272.5z"/>
	<path class="st0" d="M361.6,177.7h9.1v48.8h-9.1V177.7z"/>
	<path class="st0" d="M481.4,226.5l-10-14.3c-0.6,0.1-1.3,0.1-1.9,0.1h-11v14.2h-9.1v-48.8h20.1c12.8,0,20.8,6.6,20.8,17.4
		c0,7.4-3.8,12.8-10.4,15.4l11.2,16L481.4,226.5L481.4,226.5z M469.1,185.3h-10.6v19.5h10.6c8,0,12.1-3.6,12.1-9.8
		C481.2,188.9,477,185.3,469.1,185.3z"/>
	<path class="st0" d="M566,177.7h9.1v41.1h25.5v7.7H566V177.7z"/>
	<path class="st0" d="M673.3,177.7h9.1v48.8h-9.1V177.7z"/>
	<path class="st0" d="M804.5,177.7v48.8H797l-26.9-33.1v33.1h-9v-48.8h7.5l26.9,33.1v-33.1H804.5z"/>
	<path class="st0" d="M919.8,218.9v7.6h-36.6v-48.8h35.6v7.6h-26.6V198h23.6v7.5h-23.6V219h27.6V218.9z"/>
	<path class="st0" d="M991.4,221.3l3.1-7c3.9,3.1,10.1,5.4,16.1,5.4c7.6,0,10.8-2.7,10.8-6.3c0-10.5-29-3.6-29-21.8
		c0-7.9,6.3-14.6,19.7-14.6c5.9,0,12,1.5,16.3,4.3l-2.9,7c-4.4-2.6-9.2-3.8-13.5-3.8c-7.5,0-10.6,2.9-10.6,6.6
		c0,10.4,28.9,3.6,28.9,21.6c0,7.8-6.3,14.5-19.7,14.5C1003,227.2,995.4,224.8,991.4,221.3z"/>
</g>
</svg>
