<?xml version="1.0" encoding="utf-8"?>
<!-- Generator: Adobe Illustrator 22.1.0, SVG Export Plug-In . SVG Version: 6.00 Build 0)  -->
<svg version="1.1" id="Слой_1" xmlns="http://www.w3.org/2000/svg" xmlns:xlink="http://www.w3.org/1999/xlink" x="0px" y="0px"
	 width="313.7px" height="194.5px" viewBox="0 0 313.7 194.5" style="enable-background:new 0 0 313.7 194.5;" xml:space="preserve"
	>
<style type="text/css">
	.st0{fill:#1F64C9;}
	.st1{fill:url(#SVGID_1_);}
	.st2{fill:#FFFFFF;}
	.st3{fill:url(#SVGID_2_);}
</style>
<g>
	<path class="st0" d="M6.8,138.7V98.3H0v-9.4h6.8v-2.1c0-6.4,1.7-12.9,6-17c3.6-3.2,8.2-4.9,13-4.8c2.7,0,5.4,0.4,8,1.2L33,75.9
		c-1.7-0.6-3.6-0.9-5.4-0.9c-6.2,0-8.3,5.2-8.3,11.4V89h10.8v9.4H19.3v40.4L6.8,138.7L6.8,138.7z"/>
	<path class="st0" d="M41.7,66.1h12.6v72.6H41.7V66.1z"/>
	<path class="st0" d="M73.9,88.9l8.9,26.7c1,3.1,2.1,6.9,2.9,9.6H86c0.7-2.8,1.6-6.5,2.7-9.7l7.8-26.6h13.4l-12.5,34
		c-6.9,18.6-11.5,26.9-17.3,32c-3.7,3.3-8.3,5.5-13.2,6.3L64,150.7c6.1-1.7,11.3-5.8,14.3-11.4c0.4-0.7,0.7-1.4,0.7-2.2
		c0-0.9-0.2-1.7-0.6-2.5L60.1,88.9L73.9,88.9z"/>
	
		<radialGradient id="SVGID_1_" cx="270.9202" cy="876.2747" r="195.6" gradientTransform="matrix(1 0 0 1 0 -861.0293)" gradientUnits="userSpaceOnUse">
		<stop  offset="0" style="stop-color:#C7DFF4"/>
		<stop  offset="7.000000e-02" style="stop-color:#BCD6EF"/>
		<stop  offset="0.18" style="stop-color:#A0BEE4"/>
		<stop  offset="0.33" style="stop-color:#759DD2"/>
		<stop  offset="0.51" style="stop-color:#3778BD"/>
		<stop  offset="0.58" style="stop-color:#026CB6"/>
	</radialGradient>
	<path class="st1" d="M313.7,97.3c0,53.7-43.5,97.2-97.2,97.2s-97.2-43.5-97.2-97.2s43.5-97.2,97.2-97.2S313.7,43.6,313.7,97.3z"/>
	<path class="st2" d="M306.2,59.6C300,44.9,290.3,32,278,21.9c-8.4,3.4-35.4,14.7-43.5,21.1c-14.4,0-28.7,1.5-42.8,4.3
		c-0.7,0.3-1.5-0.1-1.8-0.8c-0.2-0.5-0.1-1.1,0.3-1.5c0,0,28.8-27.5,64.6-37.2C230-2.8,201.9-2.6,177.3,8.3l-0.1,0.1
		c-0.7,0.9-11.8,15.7-7,46.3c0,0,1,4.3,7.2,2.4C177.4,57.2,258,39.6,306.2,59.6L306.2,59.6z"/>
	
		<radialGradient id="SVGID_2_" cx="271.8419" cy="876.4333" r="196.416" gradientTransform="matrix(1 0 0 1 0 -861.0293)" gradientUnits="userSpaceOnUse">
		<stop  offset="0" style="stop-color:#8ED8F8"/>
		<stop  offset="1" style="stop-color:#33BBED"/>
	</radialGradient>
	<path class="st3" d="M302.6,52.1c-11.7-3.8-23.8-6.2-36.1-7.1c0,0-2.8-1.5-1.7-3c7.3-4.6,15.3-8,23.7-10.1
		c4.2,4.6,7.9,9.6,11.1,14.9v0.1l2.1,3.6c0.2,0.4,0.4,0.7,0.6,1.1C302.4,51.8,302.5,51.9,302.6,52.1z M216.5,0.1
		c-9.2,0-18.4,1.3-27.2,3.9c-0.3,0.1-0.6,0.2-0.9,0.4c-2.7,1.7-6.6,9.7-7.8,14.7c-0.8,3.4-1.5,6.9-2,10.4
		c-0.6,3.8-0.6,10.6,0.3,11.7s1.8,1,2.2,0.8s24.6-27.5,63.8-37.5C235.7,1.6,226.1,0.1,216.5,0.1L216.5,0.1z"/>
	<g>
		<path class="st2" d="M285.1,77.9c4,0.1,7.2-3.1,7.3-7.1s-3.1-7.2-7.1-7.3s-7.2,3.1-7.3,7.1v0.1C278,74.6,281.2,77.9,285.1,77.9z"
			/>
		<path class="st2" d="M226.6,137.1c0,3.2,2.6,5.8,5.8,5.8c3.2,0,5.8-2.6,5.8-5.8v-29.2c0-9.9,4.4-13.7,11-13.7
			c7.7,0,11,5.7,11,17.1V137c0,3.2,2.6,5.8,5.8,5.8s5.8-2.6,5.8-5.8v-28.6c0-14.6-7.7-25.2-23.3-25.2c-6.2-0.1-12.2,2.5-16.3,7.2
			c-4.1-4.7-10.1-7.4-16.3-7.2c-15.5,0-23.2,10.6-23.2,25.2V137c0,3.2,2.6,5.8,5.8,5.8s5.8-2.6,5.8-5.8v-25.7
			c0-11.5,3.3-17.1,11-17.1c6.7,0,11.1,3.7,11.1,13.7v29.2H226.6z"/>
		<path class="st2" d="M279.3,141.4c0,0.8,0.6,1.5,1.4,1.5h0.1c1.7,0,4.4-1.8,5.6-3.2c2.9-3.3,4.5-8.2,4.5-13.8V89.1
			c0-3.2-2.6-5.8-5.8-5.8s-5.8,2.6-5.8,5.8L279.3,141.4z"/>
		<path class="st2" d="M162.9,83.3c-4.9,0.1-9.6,2-13.3,5.3V64.9c0-0.8-0.6-1.5-1.4-1.5h-0.1c-1.7,0-4.4,1.8-5.6,3.2
			c-2.9,3.3-4.5,8.1-4.5,13.8V106c0,6.9,0.2,15.9,2.6,21.9c4.1,10,11.5,14.9,21.4,14.9c16.7,0,25.1-10.1,25.1-29.5
			C187.1,92.4,176.2,83.3,162.9,83.3z M162.7,132.7c-7.2,0-12.8-6.3-12.8-19.9c0-12.2,5.9-18.6,13.2-18.6c7,0,12.6,6,12.6,19.5
			C175.7,126.9,170.3,132.7,162.7,132.7z"/>
	</g>
</g>
</svg>
