<?xml version="1.0" encoding="utf-8"?>
<!-- Generator: Adobe Illustrator 12.0.0, SVG Export Plug-In  -->
<!DOCTYPE svg PUBLIC "-//W3C//DTD SVG 1.1//EN" "http://www.w3.org/Graphics/SVG/1.1/DTD/svg11.dtd" [
	<!ENTITY ns_flows "http://ns.adobe.com/Flows/1.0/">
	<!ENTITY ns_svg "http://www.w3.org/2000/svg">
	<!ENTITY ns_xlink "http://www.w3.org/1999/xlink">
]>
<svg  version="1.1" xmlns="&ns_svg;" xmlns:xlink="&ns_xlink;" xmlns:a="http://ns.adobe.com/AdobeSVGViewerExtensions/3.0/"
	 width="245" height="62" viewBox="0 -0.5 245 62" enable-background="new 0 -0.5 245 62" xml:space="preserve">
<defs>
</defs>
<path id="path2183_1_" fill="#018BC8" d="M60.5532227,29.0927734c-0.3193359-3.9321289-1.5507813-7.6132813-3.4208984-10.8520508
	H11.8344727c-1.8701172,3.2387695-3.0561523,6.9199219-3.4208984,10.8520508H60.5532227"/>
<path id="path2185_1_" fill="#018BC8" d="M56.7216797,17.5883789c-2.0986328-3.4443359-5.0180664-6.3588867-8.4848633-8.4892578
	H20.7299805c-3.4667969,2.1303711-6.3862305,5.0449219-8.4848633,8.4936523L56.7216797,17.5883789"/>
<path id="path2187_1_" fill="#018BC8" d="M47.1420898,8.4604492c-3.7407227-2.0986328-8.0742188-3.284668-12.6357422-3.284668
	c-4.6074219,0-8.940918,1.1860352-12.6816406,3.284668H47.1420898"/>
<path id="path2189_1_" fill="#00982D" d="M60.5532227,31.3007813c-0.3193359,3.9277344-1.5507813,7.6083984-3.4208984,10.8525391
	H11.8344727c-1.8701172-3.2441406-3.0561523-6.9248047-3.4208984-10.8525391H60.5532227"/>
<path id="path2191_1_" fill="#00982D" d="M56.7216797,42.8007813c-2.0986328,3.4482422-5.0180664,6.3632813-8.4848633,8.4980469
	H20.7299805c-3.4667969-2.1347656-6.3862305-5.0498047-8.4848633-8.4980469H56.7216797"/>
<path id="path2193_1_" fill="#00982D" d="M47.1420898,51.9511719c-3.7407227,2.0800781-8.0742188,3.2666016-12.6357422,3.2666016
	c-4.6074219,0-8.940918-1.1865234-12.6816406-3.2666016H47.1420898"/>
<path id="path2195_1_" fill="#0D294D" d="M84.9584961,26.1459961c-0.0458984-0.2460938-0.2280273-0.9443359-0.5932617-1.5507813
	c-0.5473633-0.8486328-2.2348633-2.4726563-4.652832-2.4726563c-2.144043,0-3.7407227,1.1269531-4.3793945,1.737793
	c-1.1401367,1.0493164-2.3720703,3.0703125-2.3720703,6.4916992c0,0.7114258,0.137207,4.784668,2.6914063,6.9790039
	c0.456543,0.3789063,1.6879883,1.8203125,4.0600586,1.8203125c3.0107422,0,4.4248047-1.6328125,4.9267578-2.6503906
	c0.2734375-0.5429688,0.5019531-1.4501953,0.5473633-1.8291016h4.7895508c0,0.5429688,0,2.8876953-2.0527344,5.0175781
	c-1.3681641,1.4599609-3.831543,3.4394531-8.3022461,3.4394531c-1.3227539,0-4.6074219-0.2919922-7.480957-2.9013672
	c-1.6420898-1.4550781-3.96875-4.5244141-3.9228516-9.7753906c0-1.5917969,0.4560547-4.3427734,1.0947266-5.8022461
	c2.4633789-5.5561523,7.8457031-6.4228516,10.309082-6.4228516c5.3374023,0,7.8007813,2.4995117,8.940918,4.434082
	c0.8212891,1.4550781,1.0493164,2.8828125,1.140625,3.4985352L84.9584961,26.1459961"/>
<path id="path2197_1_" fill="#0D294D" d="M106.9458008,26.4833984c2.0068359,1.7290039,2.9648438,4.4750977,2.9648438,7.0849609
	c0,3.8955078-2.0527344,7.5537109-5.793457,8.8037109c-0.6381836,0.2412109-1.6420898,0.5107422-3.2382813,0.5107422
	c-0.6386719,0-2.0527344-0.0361328-3.6040039-0.6113281c-3.5581055-1.3867188-5.2915039-4.8447266-5.2915039-8.5712891
	c0-3.3530273,1.3686523-5.487793,2.2353516-6.5048828c1.0488281-1.1176758,3.1474609-2.7416992,6.796875-2.7416992
	C102.019043,24.4858398,104.6650391,24.5541992,106.9458008,26.4833984z M96.4541016,33.7275391
	c0,4.3613281,2.3720703,5.6660156,4.515625,5.6660156c0.3193359,0,1.1865234-0.0371094,2.0527344-0.4472656
	c1.2773438-0.6708984,2.4633789-2.2402344,2.4633789-5.3691406c0-0.3330078,0-1.5644531-0.3647461-2.6459961
	c-0.3652344-0.9667969-1.3227539-2.9785156-4.1513672-2.9423828C98.871582,28.0253906,96.4541016,29.2573242,96.4541016,33.7275391"
	/>
<path id="path2199_1_" fill="#0D294D" d="M116.6621094,24.859375v2.0258789c0.0454102-0.0366211,0,0.1777344,0.1367188,0.0454102
	c0.8212891-0.8759766,2.3266602-2.449707,5.109375-2.449707c0.8208008,0,3.2382813,0.2827148,4.7890625,2.5180664
	c1.140625,1.6606445,1.0947266,3.6220703,1.0947266,5.5195313v9.8945313h-4.4697266v-8.9091797
	c0-2.1030273-0.0458984-3.3847656-0.9580078-4.3652344c-0.2739258-0.3193359-1.1865234-0.8530273-2.1894531-0.8530273
	c-1.0039063,0-1.6879883,0.2734375-2.3266602,0.8393555c-1.0947266,0.9213867-1.1860352,2.3081055-1.1860352,4.4111328v8.8769531
	h-4.4248047V24.859375H116.6621094"/>
<path id="path2201_1_" fill="#0D294D" d="M183.3994141,18.9750977v5.8842773h3.1933594v2.9423828h-3.1933594v7.4628906
	c0,0-0.0458984,1.3232422,0,1.9980469c0.0458984,0.3740234,0.0458984,1.1591797,0.4101563,1.3964844
	c0.4111328,0.2685547,0.9130859,0.4150391,1.8710938,0.4150391h1.2314453v3.3388672h-2.6005859
	c-0.4101563,0-0.8212891,0.0498047-1.2314453-0.0322266c-0.5927734-0.1181641-2.5087891,0.0322266-3.4208984-1.8291016
	c-0.4570313-0.9492188-0.5019531-1.8291016-0.5478516-3.7949219v-8.9550781h-2.6455078V24.859375h2.6455078v-5.8842773H183.3994141"
	/>
<path id="path2203_1_" fill="#0D294D" d="M135.8671875,18.9750977v5.8842773h3.1923828v2.9423828h-3.1923828v7.4628906
	c0,0-0.0458984,1.3232422,0,1.9980469c0.0449219,0.3740234,0.0449219,1.1591797,0.4101563,1.3964844
	c0.4101563,0.2685547,0.9121094,0.4150391,1.8701172,0.4150391h1.2314453v3.3388672h-2.5546875
	c-0.4560547,0-0.8662109,0.0498047-1.2763672-0.0322266c-0.59375-0.1181641-2.5097656,0.0322266-3.3759766-1.8291016
	c-0.5019531-0.9492188-0.5478516-1.8291016-0.5478516-3.7949219v-8.9550781h-2.6455078V24.859375h2.6455078v-5.8842773H135.8671875"
	/>
<path id="path2205_1_" fill="#0D294D" d="M157.0332031,38.9550781c0,0.4746094,0,0.9169922,0,1.3916016
	c0,0.1005859,0,0.6748047,0.1367188,1.0859375c0.1367188,0.4375,0.1367188,0.6064453,0.4101563,0.9804688h-4.2880859
	c-0.1367188-0.4423828-0.2275391-1.2041016-0.3193359-1.6425781c0,0.0820313-0.1367188-0.1279297-0.3642578,0.0683594
	c-1.3691406,1.2548828-3.3300781,1.7929688-5.2001953,1.7929688c-2.7832031,0-6.4775391-1.6240234-6.4775391-5.3876953
	c0-0.84375,0.2734375-2.6777344,2.1894531-3.9501953c1.5507813-1.0078125,3.6943359-1.4140625,5.4277344-1.6826172
	l1.3691406-0.1645508c0.3642578-0.0366211,1.1396484-0.1782227,1.4589844-0.3056641
	c0.9580078-0.3466797,1.140625-0.4697266,1.140625-1.4916992c0-0.8574219-0.6386719-1.3320313-1.0488281-1.6010742
	c-0.6845703-0.4423828-1.5966797-0.4560547-1.6875-0.4560547c-0.1826172,0-0.8671875-0.0048828-1.3691406,0.1000977
	c-2.2353516,0.4379883-2.2353516,2.144043-2.2802734,2.4179688l-4.1054688,0.0087891
	c0-0.3417969,0.0449219-1.3544922,0.3193359-2.0981445c0.546875-1.4599609,1.3681641-2.0073242,1.9160156-2.3769531
	c1.0488281-0.7480469,2.7822266-1.2954102,5.5644531-1.2954102c4.4707031,0,6.3867188,2.0117188,6.9335938,4.0053711
	c0.2744141,0.894043,0.2744141,1.5600586,0.2744141,2.5043945V38.9550781z M152.6533203,33.3857422
	c-0.8662109,0.4052734-1.3222656,0.4873047-2.1894531,0.6933594c-0.7753906,0.2050781-1.6416016,0.3691406-2.4169922,0.6152344
	c-0.59375,0.1601563-1.3232422,0.40625-1.8251953,0.7753906c-0.5019531,0.4111328-0.7753906,0.9814453-0.7753906,1.6787109
	c0,0.6113281,0.2734375,0.9814453,0.3652344,1.1865234c0.4101563,0.5292969,1.0488281,0.9804688,2.3261719,0.9804688
	c0.6386719,0,2.5087891,0.0869141,3.8769531-1.4589844c0.3652344-0.3789063,0.6386719-0.8857422,0.6386719-1.7158203V33.3857422"/>
<path id="path2207_1_" fill="#0D294D" d="M170.9462891,30.6074219c0,0.3647461-0.1367188-0.2050781-0.3652344-0.6386719
	c-0.2275391-0.5703125-1.0488281-2.0483398-3.1474609-2.0483398c-1.8242188,0-2.7373047,1.0766602-3.0566406,1.5786133
	c-0.7294922,1.1586914-1.0488281,3.3164063-1.0488281,3.6855469c0,4.0185547,2.0986328,6.0488281,4.0146484,6.0488281
	c2.9189453,0,3.2841797-1.5507813,3.5576172-2.0205078c0.2285156-0.3378906,0.2285156-0.7119141,0.3193359-1.1318359
	l4.0595703-0.0224609c0,0-0.0449219,1.1816406-0.2275391,1.6875c-0.9580078,2.5273438-2.6005859,3.6582031-3.4208984,4.0917969
	c-0.7304688,0.3701172-2.4638672,0.8759766-4.4707031,0.8759766c-2.828125-0.0361328-4.3339844-1.1816406-5.2460938-1.984375
	c-2.828125-2.4169922-2.9648438-6.0664063-2.9648438-7.1386719c0-0.6064453,0.0449219-2.0488281,0.546875-3.6586914
	c0.6845703-2.043457,2.7832031-5.5649414,7.9375-5.5649414c1.4599609,0,2.3720703,0.2553711,2.9199219,0.4331055
	c2.3720703,0.7163086,4.4697266,3.3208008,4.6982422,5.8071289H170.9462891"/>
<path id="path2209_1_" fill="#0D294D" d="M210.8154297,18.7241211l8.0283203,23.6889648h-4.8808594l-1.5966797-5.21875
	l-8.7587891,0.0234375l-1.5048828,5.1953125H197.3125l8.3017578-23.6889648H210.8154297z M211.3623047,33.8457031
	L208.078125,23.28125l-3.2841797,10.5644531H211.3623047"/>
<path id="path2211_1_" fill="#0D294D" d="M220.4863281,18.4960938h4.3789063v3.9868164h-4.3789063V18.4960938z
	 M220.4863281,24.9189453h4.3789063v17.4941406h-4.3789063V24.9189453z"/>
<path id="path2213_1_" fill="#0D294D" d="M232.7568359,24.8686523c0,1.6333008,0,1.9433594,0,1.9433594
	s-0.0458984,0.269043,0.5019531-0.4243164c1.6416016-2.1118164,3.1933594-1.8198242,5.1083984-1.8198242l0.0458984,3.809082
	c-0.1367188-0.0322266-0.5927734,0.0410156-1.0488281,0.0410156c-0.4111328,0-1.5966797,0.0820313-2.7373047,0.8525391
	c-2.0527344,1.4692383-1.6875,3.6767578-1.6875,7.8095703v5.3330078h-4.5166016V24.859375L232.7568359,24.8686523"/>
<rect opacity="0" fill="#FFFFFF" width="245" height="61.25"/>
</svg>
