<?xml version="1.0" encoding="utf-8"?>
<!-- Generator: Adobe Illustrator 22.1.0, SVG Export Plug-In . SVG Version: 6.00 Build 0)  -->
<svg version="1.1" id="Слой_1" xmlns="http://www.w3.org/2000/svg" xmlns:xlink="http://www.w3.org/1999/xlink" x="0px" y="0px"
	 width="18px" height="12px" viewBox="0 0 18 12" style="enable-background:new 0 0 18 12;" xml:space="preserve">
<style type="text/css">
	.st0{fill-rule:evenodd;clip-rule:evenodd;fill:#003579;}
	.st1{fill:#FFCC00;}
	.st2{fill:#003579;}
	.st3{fill-rule:evenodd;clip-rule:evenodd;fill:#FFCC00;}
	.st4{fill:#E30613;}
</style>
<g>
	<path class="st0" d="M178.028,43.141l19.998-31.292c9.598-9.412,12.044-23.077,16.135-34.985c2.048-5.961,9.672-6.172,16.083-6.492
		c19.147-0.955,38.265-0.897,57.4-0.926c5.994-0.009,6.368,5.189,1.296,6.296c-16.05,3.501-22.966,9.209-26.848,21.294
		l-14.813,46.105H178.028L178.028,43.141z"/>
	<polygon class="st1" points="193.2,-10.521 193.2,-10.52 193.2,-10.521 	"/>
	<polygon class="st1" points="193.206,-10.628 193.206,-10.627 193.206,-10.628 	"/>
	<path class="st2" d="M197.129-12.376c-0.443,0.325-0.727,0.734-0.852,1.253c-0.139,0.577-0.091,1.3,0.141,2.207l0.037,0.145
		l-0.124,0.085c-0.546,0.369-0.92,0.197-1.323,0.012c0,0,0,0-0.001,0h0.001c0,0,0,0-0.001,0c-0.197-0.09-0.404-0.186-0.635-0.185
		c-0.166,0-0.407,0.087-0.663,0.18l0.001-0.001c-0.147,0.053-0.299,0.108-0.454,0.153c-0.666,0.192-1.318,0.196-1.608-0.809
		l-0.059-0.204l0.204-0.06c0.285-0.084,0.534-0.219,0.711-0.397c0.153-0.154,0.253-0.343,0.273-0.562v-0.001
		c0.001-0.017,0.003-0.04,0.003-0.068v-0.001c0.003-0.581-0.633-1.152-1.905-1.159c-1.102-0.006-2.595,0.644-3.677,2.132
		c-0.824,1.133-1.408,2.752-1.405,4.937c0.003,2.239,1.331,4.779,3.134,7.156c2.622,3.456,6.238,6.551,8.284,7.911
		c2.045-1.359,5.65-4.439,8.263-7.883c1.796-2.367,3.118-4.9,3.121-7.139c0.003-2.185-0.581-3.804-1.405-4.937
		c-1.083-1.488-2.575-2.138-3.677-2.132c-1.272,0.007-1.908,0.578-1.905,1.159v0.001c0,0.027,0.001,0.05,0.003,0.068v0.001
		c0.02,0.219,0.12,0.408,0.273,0.562c0.177,0.178,0.426,0.313,0.711,0.397l0.203,0.06l-0.059,0.203
		c-0.291,1.005-0.943,1.002-1.608,0.809c-0.155-0.044-0.308-0.1-0.454-0.153l0.001,0.001c-0.256-0.092-0.497-0.18-0.663-0.18
		c-0.231,0-0.437,0.095-0.635,0.185c0,0,0,0-0.001,0h0.001c0,0,0,0-0.001,0c-0.403,0.185-0.778,0.357-1.323-0.012l-0.124-0.084
		l0.037-0.145c0.231-0.903,0.246-1.636,0.074-2.224C197.888-11.626,197.575-12.047,197.129-12.376L197.129-12.376z"/>
	<path class="st2" d="M240.773-23.264l-0.367-0.193c0.096-0.369,0.095-0.638-0.023-0.785c-0.112-0.139-0.359-0.189-0.762-0.132
		c-0.47,0.178-1.166,0.822-1.852,1.664c-0.68,0.834-1.341,1.858-1.758,2.819l-0.14,0.321l-0.221-0.272l-1.327-1.638l-0.13-0.16
		l0.156-0.135l1.975-1.712l-18.344-18.202l-0.061-0.123l-0.376-2.828l-0.039-0.29l0.288,0.053l3.072,0.566l0.114,0.061
		l18.024,18.442l1.956-1.695l0.143-0.124l0.14,0.127l1.633,1.484l0.153,0.139l-0.136,0.158L240.773-23.264L240.773-23.264z"/>
	<polygon class="st1" points="237.435,-24.449 219.419,-42.821 219.723,-43.119 237.757,-24.729 238.679,-25.528 220.72,-43.905 
		218.002,-44.405 218.33,-41.939 236.646,-23.765 237.435,-24.449 	"/>
	<path class="st2" d="M218.444-32.757v3.435c0.196,0.218,0.326,0.439,0.413,0.667c0.054,0.139,0.091,0.28,0.119,0.424
		c0.099-0.049,0.208-0.09,0.321-0.124c0.253-0.077,0.535-0.12,0.783-0.116c0.251,0.003,0.527,0.049,0.78,0.134l-0.001-0.001
		c0.177,0.059,0.343,0.137,0.484,0.234c0.503-0.389,0.457-0.723,0.261-1.014c-0.109-0.162-0.262-0.322-0.404-0.47
		c-0.249-0.259-0.473-0.494-0.496-0.753c-0.029-0.325,0.19-0.527,0.412-0.732c0.135-0.124,0.272-0.251,0.292-0.371
		c0.007-0.043,0.008-0.087,0.003-0.13c-0.027-0.254-0.265-0.485-0.608-0.676c-0.379-0.21-0.879-0.364-1.382-0.444
		C219.085-32.749,218.747-32.772,218.444-32.757L218.444-32.757z M211.857-26.334c-0.312-0.246-0.644-0.525-0.961-0.804
		c-0.902-0.795-1.699-1.638-1.658-1.904l0.014-0.048c0.082-0.203,0.299-0.348,0.649-0.431c0.254-0.061,0.591-0.095,1.011-0.102
		v-1.224h0.765c0.015-0.473,0.088-0.923,0.219-1.317l-0.001,0.001c0.147-0.441,0.369-0.814,0.666-1.071
		c0.475-0.412,1.096-0.492,1.719-0.571c0.534-0.068,1.07-0.137,1.451-0.43c0.422-0.325,0.739-1.05,1.004-1.657
		c0.254-0.582,0.467-1.07,0.776-1.145l0.123-0.005c0.325,0.045,0.541,0.551,0.801,1.158c0.262,0.615,0.577,1.352,0.996,1.674v0.001
		c0.381,0.293,0.918,0.362,1.451,0.43c0.622,0.079,1.244,0.159,1.718,0.571c0.296,0.257,0.519,0.63,0.666,1.071l-0.001-0.001
		c0.131,0.394,0.204,0.844,0.218,1.317h0.766v1.224c0.419,0.007,0.757,0.041,1.011,0.102c0.35,0.084,0.568,0.228,0.649,0.433
		l0.014,0.047c0.041,0.266-0.757,1.109-1.658,1.904c-0.608,0.535-1.268,1.065-1.744,1.383c0.285-0.002,0.62-0.03,0.948-0.057
		c0,0,0.001,0,0.001,0h-0.001c0,0,0.001,0,0.001,0c0.665-0.054,1.299-0.107,1.586,0.077v-0.001c0.09,0.058,0.148,0.141,0.177,0.244
		v-0.001c0.039,0.139,0.015,0.312-0.056,0.503c-0.062,0.165-0.16,0.351-0.283,0.541c-0.489,0.762-1.409,1.676-1.971,1.832
		c-0.719,0.2-2.75,0.159-4.643,0.121c-0.327-0.007-0.651-0.014-0.957-0.018c-0.003,0-0.005,0-0.008,0h0.008
		c-0.003,0-0.005,0-0.008,0c-0.536,0.008-0.816-0.25-1.101-0.513c-0.236-0.218-0.479-0.442-0.92-0.432
		c-0.397,0.009-0.701,0.101-0.901,0.255c-0.189,0.144-0.285,0.349-0.28,0.59c0.006,0.274,0.103,0.54,0.316,0.726
		c0.187,0.164,0.469,0.272,0.863,0.281c0.3,0.007,0.472-0.107,0.669-0.237c0.308-0.204,0.666-0.441,1.486-0.458
		c0.276-0.006,0.778-0.007,1.264-0.003c0.413,0.003,0.814,0.011,1.053,0.023l0.199,0.01l0.004,0.2
		c0.012,0.561,0.054,1.085,0.161,1.522c0.102,0.413,0.264,0.748,0.516,0.959l0.115,0.096l-0.053,0.141
		c-0.371,0.996-0.609,2.299-0.555,3.567c0.044,1.041,0.287,2.054,0.815,2.84c0.112,0.167,0.737,0.468,1.545,0.796
		c1.084,0.442,2.47,0.912,3.429,1.192l0.144,0.042l0.01,0.149c0.066,0.998,0.18,1.95,0.453,2.722
		c0.065,0.186,0.14,0.361,0.226,0.525c2.146-1.587,3.899-3.171,5.389-4.82c1.521-1.682,2.765-3.428,3.869-5.306
		c0.231-0.393,0.262-0.968,0.292-1.54c0.029-0.548,0.058-1.095,0.26-1.544c0.711-1.581,2.783-3.501,3.333-3.254
		c0.031,0.014,0.06,0.033,0.085,0.054l0.002,0.001c0.376,0.316,0.13,0.855-0.14,1.448c-0.028,0.062-0.059,0.128-0.107,0.24v-0.001
		c-0.128,0.291-0.1,0.625-0.071,0.972c0.026,0.316,0.053,0.643-0.022,0.999c-0.067,0.314-0.236,0.659-0.537,1.003
		c-0.119,0.135-0.259,0.271-0.422,0.406c0.049-0.022,0.099-0.046,0.148-0.075c0.307-0.179,0.621-0.483,0.963-0.88l0.174-0.203
		l0.158,0.215c0.428,0.579,0.867,1.112,1.353,1.63c0.486,0.518,1.019,1.02,1.635,1.535l0.192,0.16l-0.188,0.164
		c-0.485,0.421-0.953,0.675-1.396,0.914c-0.471,0.255-0.912,0.494-1.293,0.909c-1.6,1.741-2.312,3.166-3.006,4.556
		c-0.475,0.95-0.942,1.885-1.678,2.902l-0.235,0.325l-0.138-0.378c-0.085-0.234-0.197-0.441-0.348-0.603
		c-0.081-0.086-0.175-0.161-0.283-0.221c0.026,0.491,0.01,0.982-0.049,1.47c-0.073,0.601-0.211,1.203-0.413,1.805l-0.403,0.004
		c-0.155-0.429-0.328-0.828-0.53-1.176c-0.112-0.193-0.234-0.372-0.365-0.533c-0.254,2.239-2.245,4.511-3.853,6.345
		c-1.149,1.31-2.093,2.387-1.998,2.948c0.664,3.944,4.257,7.754,5.843,9.436c0.427,0.453,0.715,0.758,0.786,0.904v0.001
		c0.301,0.619,0.513,1.393,0.707,2.108c0.231,0.847,0.44,1.611,0.711,1.847l0.002,0.001c0.695,0.614,1.531,0.885,2.369,0.896
		c0.647,0.008,1.295-0.138,1.882-0.4c0.588-0.262,1.114-0.64,1.515-1.094c0.484-0.549,0.788-1.211,0.797-1.915
		c0.037-2.944-1.21-6.06-2.394-9.019c-1.174-2.934-2.288-5.717-2.065-8.089c0,0,0-0.001,0-0.001v0.001c0,0,0-0.001,0-0.001
		c0.118-1.252,0.73-2.231,1.583-2.92c0.972-0.783,2.259-1.189,3.483-1.19c1.659-0.001,3.242,0.566,4.86,1.146
		c0.235,0.084,0.456,0.163,0.612,0.218l0.017,0.007c1.306,0.592,1.926,1.803,2.107,3.409c0.175,1.557-0.066,3.49-0.49,5.587
		l-0.061,0.299l-0.26-0.158c-0.938-0.573-1.771-1.196-2.469-1.881c-0.703-0.689-1.269-1.442-1.671-2.268
		c-0.295-0.608-0.14-1.466-0.006-2.204c0.101-0.56,0.188-1.041,0.064-1.14l-0.009-0.008c-0.686-0.618-1.737-1.045-2.761-1.098
		c-0.447-0.024-0.887,0.024-1.284,0.158c-0.391,0.132-0.745,0.348-1.028,0.664c-0.396,0.44-0.66,1.079-0.706,1.958
		c-0.137,2.613,1.237,5.908,2.537,9.029c1.204,2.89,2.348,5.634,2.21,7.626c-0.096,1.379-0.368,2.939-1.685,4.051
		c-1.287,1.088-3.57,1.723-7.66,1.283c-0.34,0.246-0.617,0.547-0.797,0.89c-0.173,0.331-0.257,0.706-0.221,1.115
		c0.099,1.125,0.547,2.032,1.394,2.647c0.813,0.591,1.999,0.926,3.603,0.944c0.539,0.006,1.062,0.392,1.457,0.945
		c0.401,0.562,0.678,1.305,0.704,1.991l0.016,0.442l-0.356-0.262c-0.283-0.208-0.562-0.312-0.836-0.312
		c-0.135,0-0.272,0.025-0.408,0.075c1.084,0.352,1.653,0.857,1.936,1.445c0.323,0.67,0.264,1.418,0.18,2.169l-0.381,0.106
		c-0.211-0.276-0.431-0.516-0.687-0.608c-0.193-0.069-0.424-0.057-0.71,0.087c0.558,0.537,0.749,1.003,0.694,1.42
		c-0.062,0.471-0.431,0.847-0.933,1.179l-0.24,0.159l-0.082-0.276c-0.106-0.357-0.237-0.704-0.459-1.008
		c-0.191-0.261-0.455-0.498-0.839-0.694c-0.105,0.24-0.169,0.48-0.169,0.689c0,0.191,0.06,0.355,0.201,0.461
		c0.373,0.279,0.578,0.485,0.68,0.674c0.122,0.226,0.105,0.412,0.033,0.631l-0.026,0.054c-0.479,0.706-1.131,1.398-1.961,1.965
		c-0.716,0.489-1.564,0.884-2.547,1.114c-0.561,0.131-1.146,0.037-1.719-0.055c-0.16-0.026-0.321-0.052-0.502-0.074
		c-0.103-0.013-0.285,0.046-0.473,0.105c-0.311,0.099-0.636,0.202-0.895,0.089c-0.149,0.099-0.245,0.228-0.305,0.371v0.001
		c-0.078,0.188-0.103,0.411-0.108,0.641l-0.011,0.472l-0.347-0.318c-0.297-0.272-0.48-0.608-0.456-1.012c0,0,0-0.001,0-0.001v0.001
		c0,0,0-0.001,0-0.001c0.018-0.313,0.165-0.659,0.485-1.033c0.011-0.206,0.209-0.347,0.462-0.476
		c-0.902,0.159-1.864,0.293-2.641,0.325c-0.798,0.033-1.43-0.052-1.678-0.336c-0.189-0.034-0.382,0.009-0.578,0.109h-0.001
		c-0.243,0.123-0.491,0.333-0.742,0.596l-0.338,0.354l-0.031-0.487c-0.033-0.522,0.159-1.015,0.463-1.384
		c0.308-0.374,0.736-0.625,1.167-0.656c0.271-0.178,0.821-0.109,1.437-0.033c0.438,0.055,0.914,0.113,1.302,0.094
		c-0.277-0.152-0.736-0.25-1.16-0.341c-0.561-0.121-1.074-0.231-1.235-0.514c-0.373-0.121-0.76-0.208-1.175-0.222
		c-0.449-0.015-0.933,0.053-1.472,0.253l-0.252-0.317c0.299-0.458,0.826-0.749,1.393-0.906c0.644-0.178,1.351-0.184,1.831-0.067
		c0.31-0.198,0.8-0.063,1.332,0.082c0.392,0.107,0.812,0.222,1.137,0.197c-0.097-0.12-0.324-0.278-0.554-0.436
		c-0.408-0.281-0.822-0.568-0.806-0.937c-0.115-0.132-0.26-0.221-0.429-0.28c-0.209-0.073-0.46-0.1-0.734-0.099l-0.118-0.392
		c0.346-0.227,0.695-0.302,1.045-0.268c0.306,0.03,0.607,0.145,0.905,0.315c0.525-0.194,1.104-0.099,1.702,0.227
		c0.646,0.352,1.319,0.979,1.974,1.801V33.65c0.034,0.043,0.098,0.072,0.18,0.089c0.232,0.048,0.571-0.002,0.914-0.109
		c0.35-0.109,0.695-0.277,0.928-0.463c0.136-0.108,0.229-0.216,0.247-0.307c0.221-1.076,0.276-4.29-1.463-4.647
		c-0.063-0.013-0.136-0.023-0.216-0.028c-0.258-0.016-0.53-0.034-0.812-0.052c-2.946-0.185-6.975-0.439-7.776-1.133
		c-0.99-0.857-1.879-1.952-2.542-3.026c-0.712-1.153-1.171-2.291-1.229-3.102c-0.047-0.662,0.481-1.442,1.038-2.266v-0.001
		c0.528-0.78,1.085-1.603,1.141-2.315c0.162-2.068-1.605-3.361-3.607-4.826c-1.855-1.357-3.905-2.858-4.904-5.27
		c-0.055-0.003-0.111-0.009-0.166-0.016c-0.393-0.051-0.824-0.198-1.242-0.427c-0.877-0.478-1.715-1.325-2.069-2.413
		c-0.281,0.151-0.562,0.242-0.834,0.273c-0.347,0.04-0.679-0.016-0.977-0.162l-0.001-0.001c-0.296-0.146-0.558-0.38-0.77-0.7
		c-0.236-0.355-0.411-0.819-0.499-1.382c-0.056-0.003-0.111-0.013-0.163-0.029h0.001c-0.052-0.016-0.101-0.039-0.147-0.066
		c-0.318,0.488-0.663,0.973-1.024,1.451c-2.686,3.54-6.418,6.706-8.473,8.048l-0.129-0.198l-0.13,0.201
		c-2.055-1.341-5.8-4.525-8.496-8.078c-1.853-2.442-3.218-5.068-3.221-7.414c-0.003-2.285,0.615-3.988,1.487-5.187
		c1.172-1.612,2.809-2.316,4.024-2.309c1.556,0.009,2.334,0.791,2.33,1.587c0,0.03-0.002,0.066-0.006,0.107
		c-0.03,0.325-0.174,0.602-0.395,0.824c-0.181,0.183-0.416,0.327-0.679,0.431c0.215,0.462,0.609,0.446,1.011,0.329
		c0.14-0.04,0.286-0.094,0.428-0.145l0.001-0.001c0.292-0.105,0.566-0.205,0.806-0.205c0.321-0.001,0.572,0.115,0.812,0.225h0.001
		c0.253,0.116,0.49,0.225,0.778,0.093c-0.215-0.902-0.249-1.641-0.102-2.254c0.161-0.668,0.536-1.178,1.126-1.575l0.133,0.197
		l0.138-0.205c0.586,0.395,0.995,0.916,1.192,1.593c0.183,0.626,0.181,1.382-0.031,2.289c0.288,0.133,0.527,0.024,0.78-0.093h0.001
		c0.24-0.11,0.491-0.226,0.812-0.225c0.24,0,0.515,0.1,0.806,0.205l0.001,0.001c0.141,0.051,0.288,0.104,0.428,0.144
		c0.402,0.116,0.795,0.133,1.01-0.329c-0.263-0.104-0.495-0.249-0.677-0.431c-0.221-0.223-0.365-0.499-0.395-0.824v0.001
		c-0.004-0.04-0.006-0.076-0.006-0.107c0,0,0-0.001,0-0.001v0.001c0,0,0-0.001,0-0.001c-0.004-0.797,0.774-1.579,2.33-1.588
		c1.215-0.007,2.852,0.698,4.024,2.309c0.216,0.297,0.416,0.623,0.595,0.983c0.334-0.503,0.635-0.989,0.894-1.449
		c0.27-0.48,0.497-0.935,0.668-1.356c-0.312-0.1-0.547-0.285-0.639-0.595c-0.015-0.051-0.027-0.105-0.033-0.162
		c-0.004-0.033-0.01-0.081-0.018-0.147v-0.001c-0.086-0.709-0.184-1.518,0.151-2.296c0.056-0.13,0.128-0.247,0.212-0.352
		c-0.935,0.23-1.867,0.437-2.794,0.354c-0.417-0.037-0.867-0.291-1.214-0.611c-0.374-0.345-0.64-0.783-0.64-1.133
		c0.001-0.247,0.045-0.509,0.192-0.719c0.155-0.22,0.41-0.372,0.822-0.38c0.433-0.008,0.699,0.28,0.981,0.585
		c0.251,0.273,0.519,0.563,0.918,0.546c0.605-0.026,1.391-0.352,2.246-0.707c0.211-0.088,0.427-0.177,0.646-0.265
		c-0.705,0.029-1.381-0.024-1.944-0.27c-0.304-0.133-0.626-0.334-0.927-0.578v-0.001c-0.456-0.368-0.876-0.841-1.137-1.329
		c-0.276-0.516-0.379-1.052-0.175-1.519c0.008-0.018,0.015-0.036,0.024-0.054c-0.23-0.13-0.433-0.364-0.551-0.636
		c-0.074-0.171-0.117-0.36-0.114-0.548c0.003-0.195,0.056-0.391,0.174-0.566h0.001c0.219-0.329,0.66-0.581,1.423-0.621
		c0.621-0.032,1.591-0.583,2.407-1.047c0.153-0.087,0.229-0.131,0.294-0.167c0.284-0.16,0.504-0.375,0.728-0.594
		C211.032-25.796,211.351-26.106,211.857-26.334L211.857-26.334z M216.757-32.773c-0.303-0.015-0.641,0.007-0.978,0.062
		c-0.503,0.081-1.003,0.234-1.382,0.445c-0.343,0.19-0.581,0.422-0.609,0.676c-0.005,0.042-0.003,0.086,0.003,0.13
		c0.02,0.12,0.157,0.247,0.292,0.371c0.222,0.204,0.442,0.406,0.413,0.732c-0.023,0.259-0.248,0.494-0.496,0.753
		c-0.142,0.148-0.295,0.308-0.404,0.47c-0.196,0.291-0.243,0.625,0.26,1.014c0.141-0.097,0.308-0.175,0.486-0.234l-0.001,0.001
		c0.253-0.085,0.53-0.13,0.78-0.134c0.248-0.003,0.53,0.039,0.783,0.116c0.113,0.034,0.221,0.076,0.319,0.124
		c0.029-0.144,0.067-0.284,0.121-0.424c0.088-0.228,0.217-0.45,0.413-0.668V-32.773L216.757-32.773z"/>
	<polygon class="st1" points="209.647,-28.933 209.646,-28.93 209.647,-28.933 	"/>
	<path class="st1" d="M217.578-26.089c-0.326,0.042-0.584,0.218-0.808,0.371c-0.207,0.141-0.391,0.267-0.61,0.298
		c-0.401,0.058-0.984,0.082-1.544,0.075c-0.547-0.007-1.083-0.046-1.419-0.116c-0.171-0.036-0.523-0.257-0.948-0.572
		c-0.572,0.201-0.906,0.527-1.228,0.842c-0.245,0.241-0.486,0.476-0.817,0.663c-0.124,0.07-0.245,0.139-0.293,0.166
		c-0.858,0.488-1.877,1.068-2.595,1.104c-0.607,0.031-0.941,0.206-1.091,0.43h0.001c-0.068,0.103-0.1,0.219-0.102,0.336
		c-0.002,0.125,0.027,0.254,0.079,0.372c0.111,0.256,0.314,0.46,0.509,0.486l0.375,0.051l-0.238,0.295
		c-0.05,0.062-0.091,0.128-0.12,0.197c-0.145,0.333-0.058,0.742,0.16,1.148c0.233,0.435,0.614,0.862,1.03,1.199v-0.001
		c0.274,0.222,0.562,0.403,0.829,0.519c0.916,0.399,2.253,0.22,3.464,0.058c0.569-0.077,1.113-0.15,1.579-0.16
		c0.715-0.017,1.414,0.282,1.955,0.765c0.541,0.483,0.929,1.157,1.024,1.889c0.016,0.125-0.004,0.241-0.054,0.342v-0.001
		c-0.059,0.123-0.16,0.223-0.288,0.296c-0.115,0.066-0.256,0.111-0.412,0.13c-0.291,0.037-0.643-0.012-0.98-0.177
		c-0.381-0.185-0.745-0.348-1.114-0.464c-0.363-0.114-0.738-0.185-1.146-0.188c-0.244-0.002-0.511-0.002-0.787,0.01v0.003
		c-0.392,0.013-0.787,0.07-1.185,0.148c-0.574,0.14-1.062,0.395-1.262,0.859c-0.289,0.672-0.198,1.42-0.119,2.077v-0.001
		c0,0.001,0,0,0,0.001c0.004,0.034,0.011,0.086,0.018,0.149c0.003,0.032,0.01,0.063,0.018,0.09c0.221,0.743,2.063,0.304,3.001,0.025
		c0.698-0.207,1.45-0.332,2.214-0.379c0.79-0.049,1.601-0.015,2.387,0.093l-0.059,0.422c-0.752-0.103-1.535-0.135-2.303-0.088
		c-0.736,0.045-1.456,0.164-2.118,0.361c-0.649,0.192-1.679,0.44-2.466,0.364c-0.183,0.463-0.428,0.961-0.721,1.482
		c-0.306,0.545-0.663,1.114-1.057,1.697c0.423,1.017,0.685,2.259,0.683,3.748c-0.001,0.379-0.036,0.764-0.103,1.154
		c0.061-0.031,0.121-0.065,0.181-0.102c0.583-0.442,0.743-1.211,0.942-2.176v-0.001c0.139-0.671,0.297-1.432,0.623-2.253
		l0.397,0.157c-0.314,0.792-0.468,1.531-0.603,2.182c0,0,0,0.001,0,0.001v-0.001c0,0,0,0.001,0,0.001
		c-0.192,0.929-0.351,1.691-0.872,2.227c0.767,0.743,1.475,1.133,2.133,1.219c0.655,0.086,1.274-0.13,1.861-0.594
		c0.55-0.583,0.412-1.317,0.239-2.233c-0.15-0.795-0.324-1.717-0.14-2.82l0.421,0.07c-0.172,1.029-0.005,1.912,0.138,2.672
		c0.179,0.946,0.325,1.719-0.187,2.412c0.035,0.051,0.07,0.101,0.107,0.145v-0.001c0.277,0.335,0.643,0.533,1.056,0.577
		c0.424,0.045,0.905-0.069,1.396-0.36c0.122-0.072,0.246-0.156,0.369-0.251c-0.234-0.574-0.153-1.361-0.039-2.457
		c0.075-0.715,0.164-1.568,0.186-2.587l0.428,0.009c-0.023,1.021-0.114,1.892-0.19,2.621c-0.119,1.144-0.201,1.928,0.079,2.394
		l-0.006,0.003c0.056,0.096,0.121,0.18,0.193,0.251c0,0,0.001,0.001,0.001,0.001l-0.001-0.001c0,0,0.001,0.001,0.001,0.001
		c0.208,0.202,0.482,0.306,0.785,0.313c0.318,0.007,0.669-0.089,1.014-0.283l-0.001,0.001c0.193-0.109,0.385-0.25,0.567-0.419
		c-0.401-0.736-0.312-1.382-0.201-2.182c0.095-0.681,0.206-1.483,0.01-2.551l0.419-0.077c0.209,1.137,0.093,1.975-0.006,2.686
		c-0.104,0.746-0.186,1.344,0.195,1.994l0.03,0.043c0.093,0.136,0.213,0.244,0.351,0.324c0.308,0.18,0.712,0.232,1.126,0.182
		c0,0,0.001,0,0.001,0h-0.001c0,0,0.001,0,0.001,0c0.424-0.052,0.855-0.211,1.205-0.451c0.186-0.128,0.351-0.279,0.477-0.448
		c-0.669-0.574-0.717-1.259-0.777-2.15c-0.048-0.717-0.107-1.579-0.544-2.613l0.392-0.165c0.467,1.107,0.529,2.004,0.579,2.75
		c0.057,0.836,0.101,1.468,0.747,1.949c0.393,0.102,0.735,0.16,1.027,0.069c0.268-0.084,0.517-0.303,0.759-0.742
		c-0.708-0.475-0.783-1.058-0.878-1.815l0.001,0.001c-0.071-0.567-0.157-1.243-0.582-2.048l0.377-0.199
		c0.46,0.871,0.551,1.59,0.627,2.193l0.001,0.001c0.085,0.676,0.151,1.189,0.789,1.574l0.007,0.002
		c0.057,0.016,0.116,0.027,0.174,0.031h0.001c0.258,0.018,0.497-0.094,0.695-0.293c0.215-0.214,0.386-0.529,0.49-0.89
		c0.041-0.141,0.07-0.291,0.088-0.444c-0.706-0.367-1.148-1.005-1.43-1.804c-0.276-0.782-0.399-1.715-0.468-2.689
		c-0.966-0.288-2.286-0.738-3.326-1.163c-0.877-0.357-1.573-0.709-1.738-0.955c-0.577-0.859-0.842-1.948-0.889-3.061
		c-0.054-1.266,0.172-2.572,0.534-3.599c-0.265-0.27-0.436-0.642-0.545-1.081c-0.104-0.419-0.151-0.901-0.169-1.414
		c-0.233-0.007-0.533-0.012-0.838-0.014c-0.48-0.004-0.978-0.003-1.252,0.003c-0.698,0.014-1,0.214-1.26,0.386
		c-0.257,0.17-0.482,0.319-0.913,0.309c-0.503-0.011-0.876-0.161-1.135-0.388c-0.312-0.273-0.454-0.652-0.463-1.038
		c-0.009-0.382,0.147-0.707,0.448-0.938c0.271-0.207,0.66-0.332,1.152-0.343c0.611-0.013,0.918,0.27,1.217,0.545
		c0.223,0.206,0.441,0.407,0.812,0.4h0.008c0.316,0.005,0.64,0.012,0.967,0.019c1.866,0.037,3.866,0.078,4.521-0.105
		c0.47-0.131,1.28-0.956,1.725-1.651c0.108-0.168,0.193-0.327,0.243-0.46c0.04-0.108,0.057-0.192,0.044-0.24v-0.001
		c0,0,0.006,0.005,0.004,0.003v-0.001c-0.162-0.104-0.729-0.058-1.321-0.009h-0.001c-0.649,0.053-1.327,0.11-1.721-0.043
		c-0.332,0.05-0.781,0.077-1.238,0.084c-0.56,0.007-1.143-0.018-1.544-0.076c-0.223-0.031-0.406-0.163-0.612-0.311
		C218.163-25.864,217.906-26.049,217.578-26.089L217.578-26.089z"/>
	<path class="st1" d="M240.891-24.052l1.542-1.788l-1.34-1.218l-6.311,5.471l0.98,1.21c0.432-0.901,1.046-1.829,1.675-2.6
		c0.74-0.909,1.514-1.608,2.056-1.803l0.04-0.01c0.583-0.088,0.966,0.017,1.181,0.283C240.814-24.385,240.871-24.233,240.891-24.052
		L240.891-24.052z"/>
	<path class="st1" d="M219.26,12.263l0.11,0.03c0.468,0.274,0.887,0.632,1.268,1.049c0.376,0.411,0.72,0.886,1.043,1.399
		c0.396,0.628,0.501,1.426,0.225,2.257c-0.24,0.723-0.769,1.471-1.645,2.152c-0.174,0.135-0.516,0.376-0.925,0.663
		c-1.004,0.705-2.424,1.703-2.733,2.117c-0.202,0.27-0.355,0.978-0.229,1.686c0.088,0.494,0.317,0.981,0.767,1.302
		c0.169,0.121,0.376,0.208,0.589,0.298c0.769,0.325,1.619,0.684,1.752,2.573l0.033,0.461l-0.372-0.274
		c-0.289-0.212-0.64-0.301-0.967-0.301c-0.193,0-0.375,0.029-0.53,0.081c0.88,0.348,1.403,0.766,1.699,1.234
		c0.347,0.551,0.374,1.155,0.29,1.796l-0.067,0.509l-0.313-0.406c-0.187-0.243-0.377-0.366-0.575-0.391
		c-0.125-0.016-0.26,0.003-0.406,0.054c0.402,0.356,0.661,0.775,0.799,1.2c0.118,0.364,0.147,0.736,0.102,1.079
		c-0.045,0.347-0.167,0.668-0.349,0.927c-0.194,0.276-0.456,0.484-0.77,0.586l-0.28,0.09l0-0.293c0-0.408-0.094-0.829-0.323-1.205
		c-0.17-0.278-0.418-0.536-0.758-0.748c-0.086,0.166-0.137,0.334-0.137,0.488c0,0.154,0.058,0.298,0.197,0.409
		c0.357,0.288,0.554,0.49,0.652,0.662c0.124,0.22,0.106,0.387,0.029,0.578l-0.037,0.062c-0.469,0.532-1.106,1.026-1.917,1.386
		c-0.695,0.308-1.518,0.518-2.47,0.566c-0.537,0.028-1.102-0.137-1.654-0.299c-0.162-0.047-0.323-0.094-0.486-0.137
		c-0.065-0.017-0.205,0.09-0.341,0.194c-0.242,0.185-0.479,0.365-0.728,0.231c-0.131,0.056-0.215,0.141-0.266,0.24
		c-0.07,0.135-0.092,0.311-0.097,0.496l-0.013,0.479l-0.348-0.33c-0.062-0.059-0.119-0.121-0.171-0.184
		c-0.171-0.212-0.274-0.447-0.272-0.698c0.002-0.251,0.107-0.508,0.348-0.763c0.039-0.042,0.083-0.084,0.13-0.126
		c0.051-0.241,0.405-0.405,0.778-0.568c-0.336,0.024-0.691,0.054-1.047,0.084c-1.589,0.134-3.198,0.269-3.61-0.173
		c-0.194-0.065-0.39-0.059-0.585-0.002c-0.23,0.067-0.466,0.205-0.705,0.387l-0.315,0.24l-0.027-0.394
		c-0.007-0.101-0.003-0.202,0.011-0.302c0.05-0.35,0.23-0.651,0.479-0.87c0.248-0.217,0.566-0.354,0.896-0.378h0.001
		c0.075-0.005,0.151-0.005,0.23,0.003c0.333-0.149,1.13-0.136,1.914-0.124c0.28,0.004,0.556,0.007,0.805,0.006
		c-0.277-0.109-0.659-0.192-1.015-0.27c-0.545-0.119-1.042-0.228-1.2-0.484c-0.371-0.163-0.755-0.298-1.164-0.372
		c-0.434-0.079-0.904-0.093-1.427-0.003l-0.198-0.348c0.301-0.356,0.819-0.53,1.375-0.579c0.62-0.055,1.303,0.045,1.765,0.215
		c0.316-0.14,0.838-0.051,1.386,0.042c0.323,0.055,0.658,0.112,0.94,0.122c-0.127-0.128-0.362-0.315-0.598-0.504
		c-0.429-0.342-0.863-0.689-0.875-1.018c-0.115-0.133-0.261-0.235-0.432-0.313c-0.207-0.095-0.453-0.156-0.721-0.196l-0.052-0.408
		c0.337-0.141,0.675-0.155,1.01-0.075c0.294,0.07,0.585,0.212,0.873,0.402c0.533-0.096,1.179,0.047,1.843,0.408
		c0.649,0.353,1.321,0.916,1.921,1.665c0.023,0.028,0.061,0.056,0.11,0.082l0.001,0.001c0.242,0.128,0.677,0.176,1.147,0.122
		c0.476-0.054,0.979-0.214,1.341-0.505c0.152-0.122,0.281-0.268,0.37-0.439c0.26-0.493,0.593-1.614,0.076-2.753v0.001
		c-0.333-0.73-1.018-1.471-2.301-2.066c-2.475-1.147-2.587-3.008-2.664-4.293c0-0.002-0.001-0.005-0.001-0.007
		c-0.167,0.187-0.301,0.391-0.406,0.608c-0.165,0.341-0.259,0.724-0.294,1.139l-0.397,0.092c-0.39-0.65-0.618-1.351-0.668-2.108
		c-0.041-0.637,0.043-1.315,0.265-2.034c-0.134,0.049-0.262,0.109-0.384,0.178c-0.231,0.13-0.441,0.297-0.63,0.501l-0.37-0.151
		c0.052-1.861,1.759-3.634,4.041-5.012C213.279,13.379,216.76,12.295,219.26,12.263L219.26,12.263z"/>
	<path class="st1" d="M219.206,12.691c-2.427,0.048-5.787,1.103-8.38,2.667c-1.936,1.168-3.435,2.612-3.767,4.115
		c0.095-0.07,0.194-0.133,0.297-0.191c0.268-0.152,0.563-0.262,0.882-0.331l0.378-0.081l-0.134,0.363
		c-0.298,0.807-0.416,1.556-0.371,2.25c0.031,0.474,0.139,0.923,0.318,1.35c0.056-0.22,0.132-0.43,0.228-0.631
		c0.191-0.396,0.465-0.751,0.836-1.054l0.308-0.252l0.039,0.397c0.017,0.171,0.026,0.317,0.035,0.469
		c0.071,1.181,0.175,2.892,2.415,3.931c1.391,0.645,2.142,1.464,2.512,2.276v0.001c0.587,1.292,0.208,2.566-0.088,3.128
		c-0.118,0.225-0.285,0.415-0.48,0.571c-0.431,0.346-1.014,0.535-1.56,0.597c-0.552,0.063-1.081-0.004-1.395-0.169l0.001,0.001
		c-0.101-0.053-0.185-0.119-0.245-0.194c-0.565-0.705-1.192-1.232-1.793-1.558c-0.608-0.331-1.185-0.454-1.634-0.346l-0.091,0.022
		l-0.079-0.054c-0.084-0.058-0.17-0.112-0.254-0.16c0.048,0.048,0.092,0.101,0.134,0.157l0.065,0.088l-0.035,0.105
		c-0.029,0.085,0.346,0.385,0.717,0.681c0.473,0.378,0.941,0.751,0.838,1.101l-0.04,0.134l-0.139,0.018
		c-0.381,0.047-0.871-0.037-1.338-0.116c-0.524-0.089-1.017-0.173-1.162-0.059l-0.098,0.077l-0.117-0.049
		c-0.401-0.169-1.061-0.273-1.666-0.22c-0.064,0.006-0.128,0.012-0.191,0.022c0.165,0.012,0.326,0.033,0.482,0.062
		c0.479,0.087,0.918,0.246,1.338,0.435l0.104,0.047l0.018,0.115c0.01,0.062,0.439,0.156,0.918,0.261
		c0.706,0.154,1.5,0.328,1.698,0.794l0.112,0.266l-0.288,0.029c-0.361,0.035-0.882,0.027-1.407,0.02
		c-0.796-0.012-1.608-0.024-1.726,0.078l-0.074,0.064l-0.095-0.014c-0.068-0.01-0.141-0.012-0.215-0.007h0.001
		c-0.238,0.017-0.467,0.116-0.645,0.272c-0.123,0.108-0.222,0.243-0.283,0.398c0.146-0.082,0.293-0.145,0.441-0.189
		c0.303-0.088,0.607-0.088,0.913,0.033l0.108,0.096c0.158,0.289,1.718,0.157,3.257,0.027c0.679-0.057,1.355-0.115,1.94-0.13
		l0.352-0.009l-0.156,0.317c-0.107,0.217-0.471,0.377-0.831,0.533c-0.291,0.127-0.59,0.213-0.584,0.232l0.045,0.139l-0.114,0.092
		c-0.064,0.052-0.12,0.104-0.169,0.154l-0.001,0.001c-0.16,0.169-0.23,0.327-0.231,0.471c0,0.061,0.01,0.121,0.032,0.181
		c0.017-0.049,0.038-0.096,0.061-0.142c0.114-0.22,0.304-0.394,0.619-0.485l0.115-0.034l0.088,0.08
		c0.028,0.026,0.158-0.073,0.292-0.176c0.217-0.166,0.441-0.336,0.707-0.268c0.16,0.041,0.329,0.091,0.497,0.14
		c0.516,0.151,1.043,0.305,1.514,0.281c0.897-0.046,1.67-0.242,2.32-0.53c0.734-0.326,1.313-0.77,1.742-1.248
		c0.018-0.059,0.019-0.113-0.017-0.178c-0.07-0.123-0.235-0.287-0.547-0.539c-0.252-0.202-0.357-0.462-0.357-0.742
		c-0.001-0.297,0.122-0.611,0.309-0.895l0.107-0.162l0.172,0.091c0.506,0.268,0.862,0.618,1.098,1.005
		c0.211,0.346,0.326,0.72,0.367,1.093c0.111-0.077,0.21-0.177,0.293-0.294c0.143-0.204,0.239-0.459,0.275-0.737
		c0.037-0.283,0.012-0.59-0.086-0.893c-0.141-0.434-0.435-0.863-0.92-1.203l-0.278-0.195l0.297-0.165
		c0.343-0.19,0.662-0.283,0.967-0.244c0.181,0.023,0.351,0.09,0.513,0.208c0.007-0.383-0.059-0.742-0.263-1.066
		c-0.289-0.459-0.861-0.868-1.901-1.211l-0.329-0.109l0.246-0.245c0.244-0.243,0.693-0.405,1.177-0.405
		c0.274,0,0.562,0.05,0.834,0.165c-0.199-1.279-0.85-1.554-1.445-1.806c-0.237-0.1-0.466-0.197-0.671-0.343
		c-0.555-0.395-0.835-0.984-0.94-1.576c-0.146-0.824,0.053-1.675,0.307-2.015c0.349-0.467,1.803-1.489,2.83-2.21
		c0.399-0.28,0.732-0.514,0.909-0.651c0.805-0.625,1.287-1.302,1.502-1.948c0.234-0.705,0.149-1.374-0.18-1.897
		c-0.307-0.488-0.636-0.941-0.998-1.337C219.981,13.257,219.611,12.936,219.206,12.691L219.206,12.691z"/>
	<path class="st1" d="M207.322,0.918c0.31-0.137,0.682-0.525,0.844-1.087c0.087-0.301,0.113-0.653,0.033-1.043
		c-0.308,0.707-0.693,1.419-1.132,2.125c0.014,0.007,0.028,0.015,0.043,0.019h0.001c0.048,0.015,0.103,0.016,0.165-0.001
		L207.322,0.918L207.322,0.918z"/>
	<path class="st1" d="M210.84-2.082c-0.51-0.224-1.039-0.596-1.588-1.135c-0.066,0.038-0.134,0.075-0.203,0.107v0.001
		c-0.076,0.035-0.154,0.067-0.234,0.094c-0.092,0.387-0.214,0.779-0.36,1.173c0.269,0.679,0.265,1.29,0.121,1.79
		c-0.188,0.65-0.621,1.118-1.01,1.323c0.077,0.514,0.229,0.93,0.437,1.242c0.169,0.255,0.374,0.44,0.603,0.553l-0.001-0.001
		c0.226,0.111,0.478,0.153,0.742,0.122c0.286-0.033,0.589-0.149,0.895-0.352l0.126-0.084c0.399-0.412,0.684-1.036,0.797-1.814V0.937
		C211.289,0.085,211.206-0.947,210.84-2.082L210.84-2.082z"/>
	<path class="st1" d="M213.182-2.103c-0.482,0.235-0.987,0.329-1.517,0.259c-0.108-0.014-0.216-0.036-0.326-0.064
		c0.308,1.082,0.37,2.072,0.248,2.906c0,0,0,0.001,0,0.001V0.998c0,0,0,0.001,0,0.001c-0.133,0.91-0.486,1.642-0.98,2.116
		c0.299,1.02,1.077,1.817,1.894,2.263c0.372,0.203,0.752,0.333,1.094,0.378c0.322,0.042,0.608,0.008,0.816-0.113
		c0.144-0.083,0.255-0.214,0.316-0.395c-1.214-0.805-1.132-2.265-1.046-3.815C213.75,0.19,213.824-1.117,213.182-2.103
		L213.182-2.103z"/>
	<path class="st1" d="M216.827-2.03c-0.573,0.338-1.143,0.47-1.657,0.415c-0.526-0.056-0.99-0.306-1.34-0.728v-0.001
		c-0.028-0.034-0.056-0.07-0.083-0.107c-0.064,0.048-0.129,0.093-0.194,0.135c0.704,1.097,0.628,2.467,0.555,3.772
		c-0.083,1.483-0.16,2.878,1.007,3.529c0.001,0.001,0.002,0.001,0.003,0.002c0,0,0,0.001,0.001,0.001
		c0.524,0.26,1.154,0.407,1.701,0.4c0.269-0.003,0.515-0.045,0.712-0.127h-0.001c0.179-0.075,0.318-0.185,0.394-0.332
		c0.033-0.063,0.056-0.137,0.066-0.219c-1.259-0.775-1.073-2.06-0.871-3.456C217.282,0.142,217.455-1.048,216.827-2.03L216.827-2.03
		z"/>
	<path class="st1" d="M216.993-33.181l0.191,0.021v3.905l-0.06,0.148c-0.186,0.193-0.304,0.388-0.382,0.589
		c-0.079,0.206-0.119,0.423-0.146,0.655l-0.05,0.412l-0.306-0.279c-0.102-0.093-0.27-0.173-0.461-0.232
		c-0.213-0.065-0.449-0.101-0.654-0.098c-0.211,0.003-0.441,0.041-0.65,0.11l-0.001,0.001c-0.184,0.061-0.351,0.147-0.469,0.254
		l-0.124,0.112l-0.139-0.094c-0.924-0.623-0.841-1.193-0.5-1.697c0.128-0.19,0.295-0.364,0.451-0.527
		c0.192-0.2,0.366-0.382,0.376-0.494c0.01-0.12-0.131-0.25-0.274-0.382c-0.188-0.173-0.38-0.35-0.423-0.618
		c-0.013-0.082-0.015-0.164-0.007-0.241c0.045-0.409,0.365-0.748,0.825-1.003c0.424-0.235,0.973-0.405,1.522-0.493
		C216.158-33.203,216.609-33.222,216.993-33.181L216.993-33.181z M218.017-33.144l0.191-0.021c0.384-0.042,0.834-0.023,1.281,0.049
		c0.549,0.088,1.099,0.258,1.522,0.493c0.46,0.255,0.781,0.594,0.826,1.003c0.008,0.078,0.006,0.159-0.007,0.242
		c-0.043,0.268-0.235,0.445-0.424,0.618c-0.143,0.132-0.285,0.262-0.274,0.382c0.01,0.112,0.183,0.293,0.376,0.494
		c0.156,0.162,0.323,0.336,0.451,0.527c0.34,0.505,0.423,1.074-0.501,1.697l-0.139,0.094l-0.124-0.112
		c-0.118-0.107-0.285-0.193-0.469-0.255l-0.001-0.001c-0.209-0.069-0.439-0.107-0.651-0.11c-0.205-0.003-0.441,0.033-0.654,0.098
		c-0.19,0.058-0.359,0.138-0.461,0.232l-0.306,0.279l-0.049-0.412c-0.028-0.232-0.067-0.449-0.146-0.655
		c-0.077-0.2-0.195-0.395-0.381-0.589l-0.06-0.148V-33.144L218.017-33.144z M217.59-36.613c-0.105,0.067-0.271,0.445-0.466,0.891
		c-0.285,0.653-0.626,1.432-1.135,1.824c-0.472,0.363-1.066,0.439-1.657,0.515c-0.558,0.071-1.116,0.143-1.494,0.471
		c-0.235,0.204-0.415,0.511-0.539,0.882l-0.001,0.001c-0.135,0.406-0.201,0.887-0.199,1.395l0.001,0.215h-0.763v1.225l-0.215-0.001
		c-0.487-0.003-0.863,0.028-1.125,0.09c-0.179,0.043-0.292,0.092-0.337,0.148c0.054,0.158,0.747,0.822,1.516,1.5
		c0.878,0.773,1.842,1.526,2.107,1.581c0.304,0.063,0.811,0.099,1.337,0.106c0.544,0.007,1.103-0.017,1.479-0.071
		c0.12-0.017,0.266-0.117,0.429-0.228c0.714-0.489,1.413-0.478,2.105,0.018c0.162,0.116,0.306,0.219,0.423,0.236
		c0.376,0.054,0.935,0.077,1.479,0.07c0.526-0.007,1.033-0.043,1.337-0.106c0.265-0.055,1.229-0.808,2.107-1.581
		c0.77-0.678,1.463-1.343,1.515-1.5c-0.045-0.056-0.157-0.105-0.336-0.148c-0.262-0.062-0.638-0.092-1.125-0.09l-0.215,0.001v-1.225
		h-0.763l0.001-0.215c0.003-0.508-0.064-0.989-0.199-1.395l-0.001-0.001c-0.124-0.371-0.304-0.679-0.539-0.883
		c-0.378-0.328-0.935-0.399-1.493-0.471c-0.592-0.075-1.186-0.152-1.658-0.515v0.001c-0.506-0.388-0.845-1.183-1.128-1.846
		C217.846-36.177,217.681-36.562,217.59-36.613L217.59-36.613z"/>
	<path class="st1" d="M220.48-15.943l-0.018-0.233c-0.014-0.187-0.026-0.442-0.005-0.692c0.022-0.265,0.083-0.528,0.217-0.716
		l0.053-0.075l0.1-0.011c0.799-0.091,1.57-0.136,2.258-0.118c0.829,0.022,1.555,0.135,2.098,0.368
		c0.579,0.249,0.952,0.63,1.032,1.177v-0.001c0,0,0,0.001,0,0.001c0.013,0.09,0.018,0.181,0.015,0.272l-0.008,0.242l-0.263-0.066
		c-0.783-0.196-1.807-0.372-2.855-0.414c-0.813-0.032-1.639,0.017-2.371,0.202L220.48-15.943L220.48-15.943z"/>
	<path class="st1" d="M220.842-19.942l-0.08-0.112c-0.212-0.296-0.367-0.616-0.466-0.961c-0.098-0.342-0.14-0.71-0.126-1.1
		l0.005-0.162l0.18-0.022c1.355-0.164,2.488-0.046,3.432,0.311c0.95,0.359,1.705,0.957,2.301,1.748l0.274,0.364l-0.485-0.07
		c-0.817-0.118-1.635-0.207-2.455-0.224c-0.815-0.017-1.627,0.036-2.434,0.197L220.842-19.942L220.842-19.942z"/>
	<path class="st1" d="M220.76-13.816l-0.05-0.177c-0.055-0.197-0.122-0.451-0.16-0.715c-0.039-0.276-0.045-0.561,0.029-0.803
		l0.041-0.136l0.143-0.014c0.969-0.097,2.044-0.126,2.996-0.015c0.733,0.085,1.4,0.255,1.902,0.541
		c0.534,0.304,0.885,0.738,0.945,1.335c0.013,0.131,0.012,0.27-0.005,0.414l-0.03,0.258l-0.247-0.079
		c-0.81-0.26-1.809-0.495-2.843-0.616c-0.794-0.093-1.608-0.118-2.368-0.036c0.888-0.079,1.907-0.049,2.817,0.106
		c0.847,0.144,1.608,0.399,2.101,0.778c0.313,0.241,0.445,0.526,0.486,0.856c0.037,0.302-0.005,0.628-0.049,0.997l-0.034,0.29
		l-0.266-0.12c-0.604-0.272-1.334-0.525-2.051-0.773c-1.589-0.55-3.123-1.081-3.302-1.865l-0.052-0.226L220.76-13.816L220.76-13.816
		z"/>
	<path class="st1" d="M219.906-2.18c-0.087,0.061-0.176,0.118-0.265,0.168l-0.001,0.001c-0.412,0.232-0.839,0.348-1.233,0.338
		c-0.408-0.01-0.782-0.152-1.072-0.435l-0.001-0.001c-0.051-0.05-0.1-0.105-0.145-0.163c-0.003,0.002-0.005,0.003-0.007,0.005
		c0.719,1.111,0.533,2.388,0.36,3.581c-0.177,1.217-0.339,2.339,0.607,2.989l0.172,0.105c0.011,0.006,0.022,0.012,0.033,0.019
		c0.008,0.005,0.016,0.009,0.024,0.013l-0.001,0.001c0.577,0.338,1.127,0.439,1.575,0.387c0.221-0.026,0.416-0.088,0.575-0.177
		c0.151-0.084,0.268-0.192,0.341-0.312c0.047-0.077,0.076-0.16,0.085-0.245c-1.27-0.583-1.057-1.717-0.812-3.02
		C220.341,0.014,220.565-1.172,219.906-2.18L219.906-2.18z"/>
	<path class="st1" d="M222.392-2.04c-0.139,0.037-0.279,0.064-0.419,0.082h-0.001c-0.5,0.061-0.997-0.008-1.39-0.237
		c-0.122-0.071-0.234-0.157-0.333-0.259c-0.003,0.003-0.005,0.005-0.008,0.007c0.781,1.157,0.538,2.448,0.321,3.6
		c-0.219,1.16-0.407,2.165,0.677,2.6c0.628,0.176,1.254,0.198,1.761,0.09c0.311-0.066,0.573-0.181,0.756-0.337
		c0.165-0.141,0.264-0.319,0.272-0.527c0.004-0.118-0.02-0.249-0.076-0.391c-1.608-0.535-1.498-1.497-1.37-2.603
		C222.655-0.665,222.737-1.373,222.392-2.04L222.392-2.04z"/>
	<path class="st1" d="M240.466-21.692c-0.027,0.243-0.01,0.471,0.006,0.685c0,0,0,0.001,0,0.001v-0.001c0,0,0,0.001,0,0.001
		c0.019,0.256,0.036,0.498-0.013,0.75c0.458,0.591,0.991,1.229,1.557,1.845c0.498,0.542,1.02,1.067,1.538,1.526
		c0.607,0.026,1.072-0.1,1.376-0.391c0.276-0.264,0.433-0.676,0.465-1.244c-0.511,0.118-0.965,0.122-1.335-0.046
		c-0.416-0.188-0.713-0.577-0.847-1.233c-0.5-0.045-0.877-0.194-1.13-0.448c-0.244-0.244-0.366-0.574-0.368-0.988
		c-0.303,0.001-0.572-0.05-0.807-0.157C240.742-21.467,240.595-21.567,240.466-21.692L240.466-21.692z"/>
	<path class="st1" d="M244.628-22.514L244.628-22.514c0.186,0.198,0.243,0.475,0.187,0.761v-0.001
		c-0.052,0.262-0.202,0.536-0.437,0.755c-0.234,0.219-0.517,0.352-0.782,0.386c-0.289,0.038-0.561-0.037-0.746-0.235
		c-0.186-0.198-0.244-0.475-0.187-0.761c0,0,0,0,0-0.001v0.001c0,0,0,0,0-0.001c0.052-0.262,0.202-0.535,0.437-0.754v0.001
		c0.235-0.22,0.518-0.353,0.782-0.388C244.17-22.786,244.443-22.711,244.628-22.514L244.628-22.514z"/>
	<path class="st1" d="M246.345-21.044L246.345-21.044c0.161,0.219,0.185,0.501,0.094,0.778l0-0.001
		c-0.083,0.254-0.265,0.507-0.525,0.697c-0.259,0.19-0.556,0.287-0.823,0.289c-0.291,0.003-0.552-0.105-0.713-0.323
		c-0.161-0.219-0.185-0.501-0.094-0.778c0,0,0,0,0-0.001v0.001c0,0,0,0,0-0.001c0.083-0.254,0.265-0.507,0.525-0.696l0,0.001
		c0.26-0.19,0.557-0.288,0.823-0.29C245.924-21.37,246.185-21.262,246.345-21.044L246.345-21.044z"/>
	<path class="st1" d="M245.552-19.003l0.271-0.081l0.004,0.283c0.012,0.838-0.196,1.442-0.602,1.831
		c-0.409,0.392-1.004,0.554-1.767,0.508l-0.128-0.053c-0.552-0.484-1.105-1.038-1.628-1.608c-0.598-0.651-1.161-1.329-1.642-1.953
		l-0.065-0.084l0.027-0.101c0.059-0.218,0.041-0.458,0.022-0.714v-0.001c-0.027-0.372-0.057-0.776,0.11-1.268l0.149-0.44l0.236,0.4
		c0.138,0.234,0.319,0.401,0.542,0.502c0.23,0.104,0.51,0.141,0.838,0.111l0.257-0.024l-0.026,0.257
		c-0.04,0.398,0.038,0.696,0.233,0.891c0.202,0.203,0.542,0.314,1.019,0.333C243.916-20.195,243.563-18.409,245.552-19.003
		L245.552-19.003z"/>
	<path class="st1" d="M242.747-24.134c0.223,0.155,0.339,0.413,0.344,0.704c0.005,0.265-0.084,0.564-0.268,0.83
		c-0.184,0.266-0.431,0.455-0.681,0.544c-0.274,0.098-0.556,0.082-0.78-0.073c-0.223-0.154-0.339-0.413-0.344-0.704
		c-0.005-0.265,0.084-0.563,0.268-0.829c0.183-0.266,0.431-0.455,0.681-0.545C242.241-24.304,242.523-24.288,242.747-24.134
		L242.747-24.134z"/>
	<path class="st1" d="M221-18.158c0.728-0.135,1.539-0.174,2.329-0.147c0.89,0.032,1.759,0.149,2.461,0.316
		c-0.064-0.45-0.34-0.769-0.764-0.981c-0.461-0.231-1.094-0.342-1.825-0.363c-0.598-0.017-1.257,0.026-1.938,0.114
		c-0.073,0.152-0.137,0.357-0.185,0.569C221.04-18.481,221.012-18.31,221-18.158L221-18.158z"/>
	<path class="st1" d="M220.584-17.861l-0.016-0.223c-0.014-0.202,0.023-0.49,0.094-0.768c0.068-0.266,0.168-0.526,0.282-0.698
		l0.052-0.079l0.102-0.012c0.746-0.09,1.466-0.136,2.114-0.12c0.789,0.02,1.483,0.132,2.003,0.364
		c0.554,0.248,0.914,0.63,0.997,1.176c0.014,0.096,0.02,0.195,0.018,0.296l-0.008,0.244l-0.262-0.064
		c-0.713-0.176-1.666-0.303-2.648-0.334c-0.858-0.027-1.734,0.018-2.485,0.169L220.584-17.861L220.584-17.861z"/>
	<path class="st1" d="M221.044-20.135c0.799-0.165,1.594-0.218,2.386-0.2c0.667,0.015,1.335,0.082,2.004,0.178
		c-0.496-0.617-1.094-1.089-1.812-1.393c-0.832-0.352-1.832-0.479-3.028-0.341c0.003,0.329,0.042,0.641,0.116,0.932
		C220.786-20.665,220.896-20.39,221.044-20.135L221.044-20.135z"/>
	<polygon class="st1" points="226.081,1.017 226.081,1.017 226.081,1.017 	"/>
	<path class="st1" d="M221.359-13.514c0.404,0.46,1.632,0.886,2.897,1.323c0.625,0.216,1.259,0.435,1.82,0.671
		c0.024-0.227,0.039-0.432,0.017-0.61c-0.028-0.221-0.115-0.411-0.322-0.571c-0.433-0.334-1.128-0.562-1.911-0.695
		C223.055-13.532,222.161-13.568,221.359-13.514L221.359-13.514z"/>
	<path class="st1" d="M221.073-14.514c0.794-0.072,1.638-0.05,2.456,0.03c0.951,0.093,1.874,0.265,2.656,0.461
		c-0.001-0.018-0.002-0.034-0.004-0.051c-0.044-0.37-0.316-0.645-0.732-0.843c-0.447-0.213-1.059-0.342-1.74-0.408
		c-0.872-0.085-1.852-0.069-2.751,0c-0.02,0.124-0.01,0.266,0.014,0.407C220.996-14.778,221.034-14.639,221.073-14.514
		L221.073-14.514z"/>
	<path class="st1" d="M220.875-16.251c0.713-0.168,1.487-0.211,2.247-0.177c0.958,0.043,1.898,0.21,2.665,0.407
		c-0.069-0.44-0.353-0.754-0.789-0.966c-0.484-0.235-1.152-0.35-1.924-0.372c-0.642-0.02-1.351,0.024-2.083,0.113
		c-0.06,0.141-0.092,0.333-0.107,0.532C220.873-16.557,220.871-16.397,220.875-16.251L220.875-16.251z"/>
	<path class="st1" d="M225.432-3.158c-0.09,0.053-0.183,0.093-0.278,0.123c-0.366,0.115-0.75,0.064-1.176-0.041
		c-0.16,0.228-0.37,0.429-0.612,0.594c-0.175,0.12-0.365,0.221-0.565,0.304c0.37,0.757,0.282,1.515,0.202,2.211
		c-0.101,0.88-0.189,1.651,0.93,2.094l0.164,0.016c0.045,0.004,0.095,0.006,0.147,0.005h0.001c0.35-0.008,0.69-0.164,0.951-0.39
		c0.257-0.223,0.433-0.509,0.46-0.784V0.974c0.003-0.026,0.003-0.056,0.003-0.088c-0.003-0.146-0.123-0.291-0.24-0.433v0.001
		c-0.183-0.222-0.363-0.44-0.315-0.764v-0.001c0.045-0.302,0.109-0.6,0.172-0.89C225.421-1.877,225.559-2.519,225.432-3.158
		L225.432-3.158z"/>
	<path class="st1" d="M227-7.128c0.231,0.318,0.522,0.572,0.891,0.737l0.137,0.061l-0.01,0.148c-0.016,0.23-0.057,0.457-0.119,0.672
		c-0.123,0.429-0.332,0.808-0.6,1.075c-0.285,0.285-0.636,0.445-1.025,0.418h0.001c-0.029-0.002-0.059-0.006-0.089-0.01
		c-0.125,0.234-0.253,0.419-0.388,0.567c0.228,0.8,0.067,1.552-0.103,2.346c-0.06,0.28-0.122,0.566-0.166,0.864c0,0,0,0.001,0,0.001
		v-0.001c0,0,0,0.001,0,0.001c-0.02,0.137,0.1,0.282,0.221,0.429v0.001c0.164,0.199,0.332,0.403,0.339,0.695
		c0.001,0.042-0.001,0.089-0.006,0.139c-0.038,0.385-0.27,0.773-0.606,1.064c-0.297,0.257-0.68,0.442-1.083,0.485
		c0.045,0.149,0.065,0.293,0.06,0.427v0.001c-0.012,0.336-0.166,0.617-0.422,0.836c-0.238,0.203-0.565,0.35-0.944,0.431
		c-0.505,0.108-1.111,0.103-1.724-0.035c-0.023,0.118-0.067,0.231-0.131,0.336c-0.112,0.182-0.282,0.342-0.496,0.462
		c-0.206,0.116-0.456,0.197-0.735,0.229c-0.472,0.054-1.035-0.031-1.622-0.325c-0.019,0.069-0.044,0.135-0.075,0.196
		c-0.126,0.244-0.339,0.418-0.607,0.53h-0.001c-0.25,0.105-0.55,0.157-0.871,0.161c-0.55,0.007-1.174-0.126-1.72-0.364
		c-0.099,0.25-0.265,0.436-0.48,0.56c-0.138,0.08-0.294,0.133-0.465,0.161c0.976,2.22,2.93,3.651,4.702,4.947
		c2.105,1.54,3.963,2.9,3.783,5.202c-0.064,0.825-0.655,1.697-1.214,2.524v-0.001c-0.514,0.76-1.002,1.48-0.965,1.997
		c0.053,0.747,0.488,1.814,1.164,2.908c0.643,1.041,1.502,2.1,2.458,2.928c0.69,0.598,4.638,0.846,7.524,1.028
		c0.281,0.017,0.554,0.035,0.812,0.052c0.089,0.005,0.181,0.019,0.274,0.038c2.053,0.422,2.039,3.966,1.795,5.149
		c-0.04,0.197-0.189,0.388-0.399,0.556c-0.274,0.218-0.67,0.413-1.066,0.537c-0.404,0.126-0.82,0.181-1.126,0.118
		c-0.181-0.037-0.33-0.115-0.429-0.239v-0.001c-0.621-0.78-1.25-1.369-1.843-1.693c-0.519-0.283-1.007-0.357-1.428-0.168
		l-0.103,0.046l-0.096-0.059c-0.195-0.119-0.388-0.212-0.578-0.266c0.168,0.094,0.315,0.221,0.434,0.386l0.06,0.083l-0.027,0.099
		c-0.038,0.136,0.292,0.364,0.618,0.589c0.438,0.302,0.872,0.602,0.772,1.008l-0.029,0.117l-0.114,0.036
		c-0.459,0.145-1.036-0.013-1.566-0.158c-0.467-0.128-0.891-0.244-1.011-0.114l-0.091,0.098l-0.129-0.039
		c-0.411-0.127-1.087-0.132-1.707,0.039c-0.16,0.044-0.317,0.1-0.463,0.169c0.24-0.034,0.471-0.044,0.693-0.036
		c0.497,0.017,0.955,0.127,1.394,0.278l0.124,0.042l0.018,0.13c0.013,0.094,0.457,0.19,0.949,0.296
		c0.713,0.153,1.509,0.324,1.709,0.83l0.086,0.219l-0.226,0.065c-0.499,0.143-1.213,0.054-1.851-0.025
		c-0.567-0.071-1.066-0.133-1.145-0.041l-0.063,0.073l-0.096,0.001c-0.329,0.003-0.67,0.2-0.919,0.502
		c-0.131,0.159-0.236,0.346-0.3,0.55c0.141-0.113,0.283-0.207,0.426-0.28h-0.001c0.314-0.16,0.633-0.214,0.956-0.123l0.089,0.025
		l0.043,0.082c0.094,0.18,0.626,0.226,1.345,0.196c1.085-0.044,2.532-0.29,3.657-0.52l0.386-0.079l-0.145,0.366
		c-0.109,0.274-0.471,0.443-0.811,0.602c-0.241,0.112-0.466,0.217-0.465,0.22l0.034,0.115l-0.081,0.089
		c-0.293,0.322-0.424,0.602-0.438,0.842v0.001c-0.005,0.085,0.005,0.166,0.029,0.244c0.019-0.074,0.043-0.146,0.073-0.217v0.001
		c0.11-0.262,0.296-0.488,0.607-0.645l0.128-0.065l0.108,0.094c0.092,0.08,0.363-0.006,0.622-0.088
		c0.233-0.074,0.459-0.146,0.654-0.122c0.154,0.019,0.335,0.048,0.516,0.078c0.532,0.085,1.075,0.172,1.555,0.06
		c0.928-0.217,1.729-0.59,2.404-1.051c0.77-0.526,1.379-1.17,1.829-1.828c0.03-0.099,0.036-0.182-0.011-0.269
		c-0.071-0.133-0.24-0.295-0.559-0.535c-0.262-0.196-0.372-0.48-0.372-0.802c-0.001-0.335,0.121-0.713,0.307-1.07l0.092-0.176
		l0.182,0.079c0.564,0.245,0.936,0.562,1.198,0.92c0.197,0.27,0.329,0.558,0.433,0.854c0.285-0.221,0.481-0.455,0.515-0.713
		c0.043-0.326-0.166-0.725-0.766-1.238l-0.213-0.182l0.231-0.156c0.534-0.362,0.962-0.41,1.33-0.277
		c0.206,0.074,0.384,0.203,0.548,0.364c0.037-0.517,0.02-1.013-0.187-1.443c-0.272-0.563-0.885-1.043-2.156-1.358l-0.441-0.11
		l0.367-0.27c0.358-0.263,0.72-0.396,1.087-0.396c0.236,0,0.468,0.054,0.7,0.163c-0.091-0.478-0.3-0.96-0.575-1.346
		c-0.32-0.448-0.723-0.761-1.113-0.765c-1.698-0.019-2.966-0.383-3.85-1.026c-0.957-0.695-1.461-1.707-1.571-2.956
		c-0.043-0.493,0.058-0.946,0.269-1.348c0.224-0.427,0.572-0.795,0.999-1.089l0.144-0.037c4.004,0.442,6.203-0.15,7.417-1.176
		c1.193-1.008,1.443-2.463,1.533-3.754c0.132-1.896-0.993-4.593-2.176-7.434c-1.319-3.166-2.712-6.508-2.571-9.214
		c0.051-0.985,0.357-1.712,0.815-2.222c0.335-0.372,0.751-0.627,1.211-0.782c0.453-0.152,0.946-0.207,1.441-0.181
		c1.118,0.058,2.269,0.528,3.025,1.208l-0.009-0.008c0.321,0.257,0.213,0.854,0.087,1.549c-0.122,0.675-0.265,1.459-0.029,1.944
		c0.38,0.78,0.917,1.494,1.586,2.149c0.607,0.596,1.326,1.145,2.132,1.658c0.11-0.566,0.205-1.119,0.281-1.653l-2.646-2.828
		l0.312-0.292l2.405,2.571c0.088-0.732,0.134-1.424,0.124-2.065l-2.153-2.338l0.314-0.289l1.808,1.963
		c-0.007-0.075-0.013-0.149-0.022-0.223c-0.164-1.453-0.709-2.543-1.853-3.064c-0.247-0.087-0.432-0.153-0.601-0.214
		c-1.583-0.567-3.132-1.122-4.717-1.121c-1.133,0.001-2.322,0.374-3.216,1.095c-0.769,0.62-1.321,1.501-1.426,2.627v0.001
		c-0.214,2.269,0.882,5.006,2.036,7.891c1.2,2.999,2.464,6.158,2.427,9.183c-0.01,0.812-0.355,1.569-0.905,2.192
		c-0.442,0.5-1.019,0.915-1.661,1.201c-0.643,0.287-1.353,0.447-2.061,0.438c-0.933-0.012-1.865-0.315-2.644-1.002
		c-0.001-0.001-0.001-0.001-0.002-0.001l0.002,0.001c-0.001-0.001-0.001-0.001-0.002-0.001c-0.371-0.324-0.596-1.145-0.844-2.056
		c-0.19-0.699-0.397-1.455-0.679-2.035v0.001c-0.043-0.089-0.313-0.375-0.712-0.799c-1.613-1.71-5.267-5.585-5.953-9.658
		c-0.128-0.759,0.876-1.905,2.098-3.298c1.68-1.916,3.792-4.325,3.774-6.563l-0.004-0.475l0.358,0.313
		c0.303,0.265,0.559,0.598,0.78,0.979c0.121,0.209,0.231,0.432,0.334,0.667c0.1-0.379,0.173-0.757,0.219-1.137
		c0.069-0.574,0.077-1.147,0.024-1.719l-0.028-0.3l0.292,0.073c0.327,0.082,0.582,0.24,0.78,0.453
		c0.108,0.116,0.199,0.247,0.277,0.391c0.594-0.872,1.009-1.698,1.428-2.536c0.708-1.416,1.433-2.867,3.074-4.654
		c0.429-0.467,0.901-0.723,1.406-0.996c0.361-0.195,0.739-0.401,1.124-0.703c-0.548-0.47-1.031-0.93-1.476-1.403
		c-0.437-0.466-0.838-0.946-1.228-1.459c-0.306,0.336-0.599,0.601-0.896,0.773c-0.38,0.221-0.763,0.295-1.178,0.186l-0.493-0.13
		l0.439-0.26c0.427-0.253,0.745-0.517,0.971-0.776c0.25-0.285,0.389-0.564,0.441-0.812c0.061-0.287,0.036-0.586,0.012-0.875
		c-0.033-0.4-0.065-0.784,0.108-1.178v-0.001c0.022-0.05,0.067-0.147,0.111-0.245c0.196-0.431,0.374-0.823,0.258-0.939
		c-0.423-0.164-2.124,1.625-2.761,3.043c-0.168,0.374-0.195,0.882-0.222,1.391c-0.033,0.622-0.066,1.248-0.351,1.733
		c-1.122,1.908-2.383,3.678-3.919,5.378C230.969-10.352,229.186-8.742,227-7.128L227-7.128z"/>
	<path class="st3" d="M215.163-23.471c0.613,0,1.387,0.834,1.966,1.036c-0.579,0.08-1.353,0.914-1.966,0.914
		c-0.613,0-1.113-0.438-1.113-0.975C214.051-23.033,214.55-23.471,215.163-23.471L215.163-23.471z"/>
	<path class="st4" d="M210.729-15.993c0.005-0.001,0.01-0.003,0.015-0.004c0.673-0.157,1.428-0.171,2.036-0.165
		c0.454,0.004,0.868,0.083,1.27,0.209c0.396,0.124,0.778,0.295,1.174,0.488c0.26,0.127,0.525,0.166,0.74,0.139
		c0.098-0.013,0.185-0.04,0.253-0.079c0.055-0.031,0.096-0.069,0.116-0.111v-0.001c0.014-0.029,0.02-0.064,0.016-0.102
		c-0.08-0.625-0.417-1.204-0.887-1.623c-0.465-0.415-1.059-0.671-1.661-0.657c-0.232,0.005-0.482,0.027-0.746,0.056l0.001,0.007
		c-1.002,0.097-2.053,0.533-3.015,0.931c-0.894,0.371-1.715,0.711-2.392,0.74c-0.596,0.026-0.934-0.34-1.251-0.684
		c-0.214-0.232-0.416-0.451-0.658-0.447c-0.254,0.005-0.402,0.084-0.482,0.198c-0.087,0.124-0.114,0.3-0.114,0.473
		c-0.001,0.23,0.208,0.548,0.501,0.819c0.285,0.263,0.643,0.47,0.962,0.498c0.95,0.085,1.931-0.159,2.915-0.405
		C209.923-15.813,210.326-15.914,210.729-15.993L210.729-15.993z"/>
	<path class="st3" d="M194.055,4.726h6.072c0.062-1.436,0.524-2.822,1.069-4.139c-1.305,0.097-1.978,1.09-2.32,2.592
		c-0.647,0.02-1.044-0.362-1.035-1.036c0.767-0.102,1.013-1.254,0.004-1.361c-0.017-0.801-1.326-0.814-1.312,0
		c-1.064,0.158-0.617,1.217,0.09,1.346c0.019,0.663-0.541,1.015-1.078,1.04c-0.367-1.33-0.874-2.37-2.364-2.775
		C193.685,1.838,194.073,3.282,194.055,4.726L194.055,4.726z"/>
	<path class="st3" d="M199.009-1.701h6.072c0.062-1.436,0.524-2.822,1.069-4.139c-1.305,0.098-1.978,1.09-2.32,2.592
		c-0.647,0.021-1.044-0.361-1.035-1.036c0.767-0.102,1.013-1.254,0.004-1.361c-0.017-0.801-1.326-0.815-1.312,0
		c-1.064,0.158-0.617,1.217,0.09,1.346c0.019,0.663-0.541,1.015-1.078,1.04c-0.367-1.33-0.874-2.37-2.364-2.775
		C198.639-4.59,199.028-3.145,199.009-1.701L199.009-1.701z"/>
	<path class="st3" d="M189.538-1.75h6.072c0.062-1.436,0.524-2.822,1.069-4.139c-1.305,0.098-1.978,1.09-2.32,2.592
		c-0.646,0.021-1.044-0.361-1.035-1.036c0.768-0.102,1.013-1.254,0.004-1.361c-0.016-0.801-1.326-0.814-1.311,0
		c-1.064,0.158-0.617,1.217,0.09,1.346c0.019,0.663-0.541,1.015-1.078,1.04c-0.367-1.33-0.874-2.37-2.364-2.775
		C189.167-4.638,189.556-3.194,189.538-1.75L189.538-1.75z"/>
	<path class="st0" d="M-13.02,5.28H1.768l-1.581,7.785C4.358,5.28,10.253,2.514,15.804,5.28l-2.915,12.853
		C5.937,17.067,1.09,18.943-0.47,25.961l-4.034,18.152h-17.147L-13.02,5.28L-13.02,5.28z M71.849,5.28h16.285l-1.146,5.093
		c7.368-7.408,28.088-8.946,25.672,4.875l-6.075,28.865H89.362l5.324-24.124c1.383-4.63-0.172-4.741-2.115-4.741
		c-3.161,0-5.831,0.515-6.898,5.267l-5.308,23.63H63.218L71.849,5.28L71.849,5.28z M-181.856,5.28l2.508-13.002h16.189l-2.72,13.002
		h8.544l-2.281,9.968l-8.5,0.094l-2.988,13.518c-0.996,4.506,1.227,5.173,7.622,4.319l-2.194,10.024
		c-9.018,1.867-26.769,4.451-23.243-11.411l3.677-16.546l-5.967,0.002l2.119-9.968H-181.856L-181.856,5.28z M-211.472,5.28h17.146
		l-8.631,38.833h-17.146L-211.472,5.28L-211.472,5.28z M-208.371-7.722h17.146l-2.278,9.59h-17.146L-208.371-7.722L-208.371-7.722z
		 M-38.302,5.28h17.146l-8.631,38.833h-17.146L-38.302,5.28L-38.302,5.28z M-35.2-7.722h17.146l-2.278,9.59h-17.146L-35.2-7.722
		L-35.2-7.722z M46.28,5.28h17.147l-8.631,38.833H37.649L46.28,5.28L46.28,5.28z M49.381-7.722h17.147l-2.278,9.59H47.103
		L49.381-7.722L49.381-7.722z M-155.226,5.28h18.835l2.988,20.914l11.95-20.914h12.86l-29.227,45.198
		c-2.943,4.55-7.878,6.466-12.864,6.452l-12.675-0.036l1.993-10.504c8.514,1.338,15.528,1.208,14.064-5.395L-155.226,5.28
		L-155.226,5.28z M-77.417-7.722h19.355l7.145,51.834h-18.706l-1.169-10.419H-86.49l-5.995,10.419h-15.198L-77.417-7.722
		L-77.417-7.722z M-81.055,22.393h9.742L-72.481,5.28L-81.055,22.393L-81.055,22.393z M41.227-7.688L29.373,44.113H12.227
		L20.858,5.28l2.858-12.968H41.227L41.227-7.688z M145.059,4.679c15.309,0.348,22.251,9.339,18.355,22.797h-29.519
		c-3.009,9.978,11.201,9.027,12.662,2.554l15.958,1.277c-3.528,6.612-11.356,13.461-25.698,13.406
		c-12.337-0.047-21.167-5.628-21.052-15.284C115.952,13.804,131.483,4.371,145.059,4.679L145.059,4.679z M143.335,13.507
		c3.018,0,5.769,1.741,4.645,6.759h-12.512C135.743,15.248,139.852,13.507,143.335,13.507L143.335,13.507z M-240.047-8.547
		c13.649,0,21.016,6.925,19.955,20.61l-17.328,0.912c2.065-6.962-2.188-9.613-4.471-9.613c-2.935,0.001-8.329-0.606-12.65,13.515
		c-3.995,13.057,1.419,15.614,4.255,16.175c2.502,0.496,8.882-1.558,10.834-8.763l16.267,0.999
		c-4.138,10.254-13.686,19.964-29.009,19.65c-14.944-0.162-26.677-10.935-20.663-28.276C-266.843-0.679-256.999-8.547-240.047-8.547
		L-240.047-8.547z"/>
</g>
</svg>
