<?xml version="1.0" encoding="utf-8"?>
<!-- Generator: Adobe Illustrator 22.1.0, SVG Export Plug-In . SVG Version: 6.00 Build 0)  -->
<svg version="1.1" id="Слой_1" xmlns="http://www.w3.org/2000/svg" xmlns:xlink="http://www.w3.org/1999/xlink" x="0px" y="0px"
	 width="99.409px" height="45.546px" viewBox="0 0 99.409 45.546" style="enable-background:new 0 0 99.409 45.546;"
	 xml:space="preserve">
<style type="text/css">
	.st0{fill:#0D7F30;}
	.st1{fill:#BA1A00;}
	.st2{fill:#192126;}
</style>
<title>Alitalia</title>
<desc>Created with Sketch.</desc>
<g>
	<g id="AVIA">
		<g id="Alitalia" transform="translate(-1.000000, 0.000000)">
			<g id="g76256">
				<g id="g76262">
					<g id="g76264">
						<path id="path76276" class="st0" d="M26.365,0c-2.433,0-4.121,0.631-6.302,3.006L1,22.883L1.306,23h6.886L27.099,3.312
							L24.328,23h5.61l3.225-23H26.365z M81.494,5.771L81.16,8.142h4.913l0.338-2.371H81.494z M74.26,5.771L71.835,23h4.917
							l2.423-17.229H74.26z M49.2,5.771l-1.794,12.784c-0.104,0.707-0.161,1.264-0.161,1.612c0,0.522,0.044,0.774,0.123,1.083
							c0.328,1.26,1.3,1.75,2.785,1.75h1.517h3.199l0.422-2.821h-1.947c-0.814,0-1.107-0.265-1.107-0.8
							c0-0.171,0.014-0.4,0.058-0.687l0.944-6.707h3.338l1.728-2.829h-4.674l0.482-3.384L49.2,5.771L49.2,5.771z M41.971,5.771
							l-0.33,2.371h4.911l0.334-2.371H41.971z M34.706,5.771L32.291,23h4.907l2.425-17.229H34.706z M88.565,9.155l-0.4,2.829h5.88
							c1.169,0,1.467,0.356,1.467,1.017c0,0.197-0.028,0.462-0.068,0.729l-0.054,0.374h-2.502c-2.586,0-4.264,0.324-5.574,1.67
							c-0.752,0.76-1.31,2.06-1.31,3.719c0,1.282,0.545,2.271,1.493,2.843c0.631,0.382,1.794,0.661,3.478,0.661h3.167h3.08h1.839
							l1.137-8.074c0.098-0.725,0.211-1.453,0.211-2.425c0-1.137-0.526-2.237-1.939-2.843c-0.784-0.338-1.849-0.5-3.233-0.5
							C95.237,9.155,88.565,9.155,88.565,9.155z M90.89,19.905c-0.293-0.221-0.44-0.541-0.44-0.973c0-1.025,0.625-1.786,1.831-1.993
							c0.243-0.04,0.802-0.066,1.101-0.066h1.616l-0.472,3.356h-2.354C91.583,20.229,91.173,20.122,90.89,19.905z M81.018,9.155
							L79.067,23h4.921l1.943-13.845H81.018z M60.242,9.155l-1.736,2.829h6.081c1.174,0,1.471,0.356,1.471,1.017
							c0,0.197-0.028,0.462-0.068,0.729l-0.062,0.374h-2.496c-2.592,0-4.26,0.324-5.582,1.67c-0.741,0.76-1.304,2.06-1.304,3.719
							c0,1.282,0.545,2.271,1.493,2.843c0.631,0.382,1.786,0.661,3.476,0.661h3.171h3.08h1.835l1.133-8.074
							c0.102-0.725,0.211-1.453,0.211-2.425c0-1.137-0.522-2.237-1.929-2.843c-0.784-0.338-1.845-0.5-3.239-0.5
							C65.777,9.155,60.242,9.155,60.242,9.155z M61.418,19.905c-0.279-0.221-0.424-0.541-0.424-0.973
							c0-1.025,0.621-1.786,1.823-1.993c0.251-0.04,0.802-0.066,1.111-0.066h1.606l-0.468,3.356h-2.361
							C62.133,20.229,61.715,20.122,61.418,19.905z M41.494,9.155L39.547,23h4.917l1.943-13.845H41.494z"/>
					</g>
				</g>
			</g>
			<polygon id="Shape" class="st1" points="11.002,23 23.717,10 21.854,23 			"/>
		</g>
	</g>
	<g>
		<path class="st2" d="M26.725,37.46v2.243c-1.496,0.815-3.223,1.224-5.18,1.224c-1.591,0-2.94-0.319-4.048-0.958
			c-1.108-0.64-1.985-1.52-2.631-2.642c-0.646-1.122-0.969-2.335-0.969-3.641c0-2.073,0.74-3.817,2.218-5.231
			c1.479-1.413,3.302-2.121,5.471-2.121c1.496,0,3.158,0.392,4.986,1.173V29.7c-1.666-0.951-3.293-1.428-4.884-1.428
			c-1.632,0-2.986,0.516-4.063,1.545c-1.078,1.03-1.617,2.32-1.617,3.87c0,1.563,0.53,2.849,1.591,3.854
			c1.061,1.007,2.417,1.51,4.069,1.51C23.393,39.051,25.079,38.521,26.725,37.46z"/>
		<path class="st2" d="M29.937,27.436c0.306,0,0.568,0.105,0.785,0.316c0.218,0.211,0.327,0.469,0.327,0.774
			c0,0.3-0.109,0.558-0.327,0.775c-0.217,0.218-0.479,0.326-0.785,0.326c-0.286,0-0.537-0.11-0.754-0.331
			c-0.218-0.221-0.327-0.478-0.327-0.771c0-0.285,0.109-0.538,0.327-0.759C29.399,27.546,29.651,27.436,29.937,27.436z
			 M29.019,31.382h1.856v9.382h-1.856V31.382z"/>
		<path class="st2" d="M32.241,32.872l3.487-3.427v1.938h2.968v1.673h-2.968v4.591c0,1.073,0.445,1.609,1.336,1.609
			c0.667,0,1.37-0.222,2.111-0.663v1.733c-0.714,0.401-1.492,0.602-2.335,0.602c-0.85,0-1.557-0.248-2.121-0.744
			c-0.177-0.149-0.323-0.318-0.438-0.505c-0.116-0.187-0.212-0.432-0.291-0.734c-0.079-0.303-0.118-0.879-0.118-1.729v-4.16h-1.631
			V32.872z"/>
		<path class="st2" d="M46.271,31.382h2.083l-6.647,14.164h-2.071l3.185-6.797l-3.623-7.367h2.115l2.534,5.3L46.271,31.382z"/>
		<path class="st2" d="M49.913,26.518h2.04v12.391h6.414v1.855h-8.454V26.518z"/>
		<path class="st2" d="M60.856,27.436c0.306,0,0.567,0.105,0.785,0.316c0.217,0.211,0.326,0.469,0.326,0.774
			c0,0.3-0.109,0.558-0.326,0.775c-0.218,0.218-0.479,0.326-0.785,0.326c-0.286,0-0.537-0.11-0.755-0.331s-0.326-0.478-0.326-0.771
			c0-0.285,0.108-0.538,0.326-0.759C60.318,27.546,60.569,27.436,60.856,27.436z M59.938,31.382h1.855v9.382h-1.855V31.382z"/>
		<path class="st2" d="M66.331,31.382v1.193c0.83-0.918,1.771-1.377,2.825-1.377c0.585,0,1.128,0.151,1.632,0.454
			c0.503,0.303,0.885,0.718,1.146,1.244s0.393,1.361,0.393,2.503v5.364h-1.855V35.42c0-0.958-0.146-1.643-0.438-2.055
			c-0.292-0.411-0.782-0.616-1.469-0.616c-0.877,0-1.621,0.438-2.233,1.315v6.699h-1.896v-9.382H66.331z"/>
		<path class="st2" d="M82.912,36.237h-6.598c0.047,0.897,0.348,1.611,0.902,2.142c0.554,0.53,1.27,0.795,2.146,0.795
			c1.224,0,2.352-0.381,3.386-1.142v1.814c-0.571,0.381-1.138,0.653-1.698,0.816s-1.219,0.244-1.974,0.244
			c-1.033,0-1.869-0.214-2.508-0.643c-0.64-0.428-1.151-1.004-1.535-1.729c-0.384-0.724-0.576-1.562-0.576-2.514
			c0-1.427,0.404-2.588,1.214-3.482c0.809-0.894,1.859-1.341,3.15-1.341c1.244,0,2.237,0.436,2.978,1.306
			c0.741,0.87,1.112,2.036,1.112,3.498V36.237z M76.355,35.125h4.722c-0.048-0.741-0.269-1.312-0.663-1.714
			c-0.394-0.4-0.924-0.602-1.591-0.602c-0.666,0-1.212,0.201-1.637,0.602C76.761,33.813,76.484,34.384,76.355,35.125z"/>
		<path class="st2" d="M86.909,31.382v2.152l0.103-0.164c0.897-1.447,1.794-2.172,2.691-2.172c0.7,0,1.432,0.354,2.192,1.061
			l-0.979,1.632c-0.646-0.612-1.244-0.918-1.795-0.918c-0.598,0-1.116,0.286-1.555,0.856c-0.438,0.571-0.658,1.248-0.658,2.029
			v4.905h-1.866v-9.382H86.909z"/>
	</g>
</g>
</svg>
