<?xml version="1.0" encoding="utf-8"?>
<!-- Generator: Adobe Illustrator 22.1.0, SVG Export Plug-In . SVG Version: 6.00 Build 0)  -->
<svg version="1.1" id="Слой_2_1_" xmlns="http://www.w3.org/2000/svg" xmlns:xlink="http://www.w3.org/1999/xlink" x="0px"
	 y="0px" width="385.3px" height="141.3px" viewBox="0 0 385.3 141.3" style="enable-background:new 0 0 385.3 141.3;"
	 xml:space="preserve">
<style type="text/css">
	.st0{fill:#FF6517;}
	.st1{fill:#FF050F;}
</style>
<g>
	<path class="st0" d="M89.1,72.6v31.8h17.8c5.5,0,9.8-0.5,12.9-1.5c3.1-1,5.6-2.5,7.5-4.3c2.6-2.6,4.6-6.1,6.1-10.5
		c1.5-4.4,2.2-9.8,2.2-16c0-8.7-1.4-15.4-4.3-20.1c-2.9-4.7-6.3-7.8-10.4-9.4c-3-1.1-7.7-1.7-14.2-1.7H78.1l11-9.8h17.7
		c6.5,0,11.4,0.4,14.8,1.2c4.8,1.1,8.8,3.1,12.2,6c4.4,3.7,7.7,8.5,9.8,14.2c2.2,5.8,3.3,12.4,3.3,19.8c0,6.3-0.7,11.9-2.2,16.8
		c-1.5,4.9-3.4,8.9-5.7,12.1s-4.8,5.7-7.6,7.6c-2.7,1.8-6.1,3.2-9.9,4.2c-3.9,0.9-8.3,1.4-13.4,1.4h-30V84.7L89.1,72.6z"/>
	<path class="st0" d="M152.9,114.2l32-83.2h11.9l34.1,83.2h-12.5L208.7,89h-34.8l-9.1,25.2H152.9z M176.9,80h28.2l-8.7-23
		c-2.6-7-4.6-12.8-5.9-17.3c-1.1,5.3-2.6,10.6-4.5,15.9L176.9,80z"/>
	<path class="st0" d="M239.8,114.2V31h36.9c7.4,0,13.1,0.7,16.9,2.2c3.9,1.5,6.9,4.1,9.3,7.9c2.3,3.8,3.5,8,3.5,12.5
		c0,5.9-1.8,11.5-5,15c-2.8,3-6.1,5.5-13.1,7.5c2.9,1.4,5.7,3.6,7.2,5c2.2,2.1,4.1,5.8,6,10.7c2.1,5.4,8.2,22.3,8.2,22.3h-12.1
		c0,0-4.3-12.6-5.8-16.8c-1.9-5.4-3.6-12.8-13.1-17.8c-1.7-0.9-3.9-1.4-7.8-1.4c-1.3,0-4.4,0-7.2,0h-12.8v36h-11.1V114.2z
		 M250.8,68.7h23.7c5,0,9-0.5,11.8-1.6c2.8-1,5-2.7,6.5-5c1.5-2.3,2.2-4.8,2.2-7.5c0-3.9-1.4-8.2-4.3-10.7s-7.4-3.8-13.5-3.8h-26.3
		v28.6H250.8z"/>
	<path class="st0" d="M344.7,114.2V40.8h-27.4V31h66l-10,9.8h-17.6v73.4H344.7z"/>
	<polygon class="st1" points="38.5,40.5 78.1,40.8 38.5,0 0,0 	"/>
</g>
<g>
	<path class="st0" d="M168.4,121.5l-7.5,12.4c-1.1,1.9-2.8,2.8-5.2,2.8l0.3-1.4c0.9,0,1.6-0.2,2.2-0.5c0.6-0.3,1.2-0.9,1.7-1.7
		l0.3-0.6l-3.7-11h1.8l3,9.2l5.3-9.2H168.4z"/>
	<path class="st0" d="M175.2,136.7h-1.7l-2.7-4.7h-1.7l-1,4.7h-1.5l2.2-10.4h1.5l-0.9,4.3h1.7l4.2-4.3h1.7l-4.8,5L175.2,136.7z"/>
	<path class="st0" d="M186.9,126.7c0.7,0.5,1.2,1.1,1.4,2c0.3,0.8,0.3,1.8,0.1,2.9c-0.2,1.1-0.6,2-1.3,2.9c-0.6,0.8-1.4,1.5-2.2,2
		c-0.9,0.5-1.8,0.7-2.8,0.7c-0.8,0-1.4-0.2-2-0.5s-1-0.8-1.3-1.4l-1.2,6h-1.5l3.1-14.9h1.5l-0.3,1.5c0.6-0.6,1.2-1.1,1.9-1.4
		c0.7-0.3,1.4-0.5,2.2-0.5C185.4,125.9,186.2,126.2,186.9,126.7z M184.4,135.2c0.6-0.4,1.2-0.9,1.6-1.5c0.4-0.6,0.7-1.4,0.9-2.2
		s0.2-1.5,0-2.2c-0.2-0.6-0.5-1.1-1-1.5s-1.1-0.5-1.8-0.5s-1.4,0.2-2,0.5c-0.6,0.4-1.2,0.9-1.6,1.5c-0.4,0.6-0.8,1.4-0.9,2.2
		c-0.2,0.8-0.2,1.5,0,2.2c0.2,0.6,0.5,1.1,1,1.5s1.1,0.5,1.8,0.5S183.7,135.5,184.4,135.2z"/>
	<path class="st0" d="M201.3,126.3l-2.2,10.4h-1.5l0.3-1.5c-0.6,0.6-1.2,1.1-1.9,1.4c-0.7,0.3-1.4,0.5-2.2,0.5c-1,0-1.8-0.2-2.5-0.7
		s-1.2-1.1-1.4-2c-0.3-0.8-0.3-1.8-0.1-2.9c0.2-1.1,0.6-2,1.3-2.9c0.6-0.8,1.4-1.5,2.2-2c0.9-0.5,1.8-0.7,2.8-0.7
		c0.8,0,1.4,0.2,2,0.5s1,0.8,1.3,1.4l0.3-1.6h1.6V126.3z M196.2,135.2c0.6-0.4,1.2-0.9,1.6-1.5c0.4-0.6,0.8-1.4,0.9-2.2
		c0.2-0.8,0.2-1.5,0-2.2c-0.2-0.6-0.5-1.1-1-1.5s-1.1-0.5-1.8-0.5s-1.4,0.2-2,0.5c-0.6,0.4-1.2,0.9-1.6,1.5
		c-0.4,0.6-0.7,1.4-0.9,2.2s-0.2,1.5,0,2.2c0.2,0.6,0.5,1.1,1,1.5s1.1,0.5,1.8,0.5S195.6,135.5,196.2,135.2z"/>
	<path class="st0" d="M212,126.3h1.5l-2.2,10.4h-1.5l1.7-8.3l-7.9,8.3h-1.5l2.2-10.4h1.5l-1.7,8.4L212,126.3z"/>
	<path class="st0" d="M214.5,136.7l2.2-10.4h1.5l-0.9,4.3h6.2l0.9-4.3h1.5l-2.2,10.4h-1.5l1-4.7H217l-1,4.7H214.5z"/>
	<path class="st0" d="M228.6,136.4c-0.7-0.5-1.2-1.1-1.4-2c-0.3-0.8-0.3-1.8-0.1-2.9c0.2-1.1,0.6-2,1.3-2.9c0.6-0.8,1.4-1.5,2.3-2
		c0.9-0.5,1.8-0.7,2.8-0.7c0.8,0,1.5,0.2,2.1,0.5c0.6,0.4,1,0.9,1.4,1.6l-1.3,0.9c-0.5-1.1-1.3-1.6-2.5-1.6c-0.7,0-1.4,0.2-2,0.5
		c-0.6,0.4-1.2,0.9-1.6,1.5c-0.4,0.6-0.8,1.4-0.9,2.2c-0.2,0.8-0.2,1.5,0,2.2c0.2,0.6,0.5,1.1,1,1.5s1.1,0.5,1.8,0.5
		s1.3-0.1,1.8-0.4c0.5-0.2,1-0.6,1.5-1.1l1,0.8c-0.6,0.6-1.3,1.1-2.1,1.5s-1.6,0.5-2.4,0.5C230.1,137.1,229.3,136.9,228.6,136.4z"/>
	<path class="st0" d="M245.9,136.7h-1.7l-2.7-4.7h-1.7l-1,4.7h-1.5l2.2-10.4h1.5l-0.9,4.3h1.7l4.2-4.3h1.7l-4.8,5L245.9,136.7z"/>
	<path class="st0" d="M257.7,126.3h1.5l-2.2,10.4h-1.5l1.7-8.3l-7.9,8.3h-1.5l2.2-10.4h1.5l-1.7,8.4L257.7,126.3z"/>
	<path class="st0" d="M269.2,126.6c0.7,0.5,1.1,1.1,1.4,1.9c0.3,0.8,0.3,1.7,0.1,2.7c-0.1,0.3-0.1,0.5-0.2,0.6h-8.6
		c-0.2,1.1,0,2,0.5,2.7c0.5,0.8,1.3,1.1,2.4,1.1c0.9,0,1.7-0.2,2.3-0.5c0.7-0.3,1.2-0.8,1.7-1.4l1,0.8c-0.7,0.8-1.4,1.4-2.3,1.8
		c-0.9,0.4-1.9,0.7-3,0.7c-1,0-1.9-0.2-2.6-0.7s-1.2-1.1-1.4-2c-0.3-0.8-0.3-1.8-0.1-2.9c0.2-1.1,0.6-2,1.3-2.9
		c0.6-0.8,1.4-1.5,2.2-2c0.9-0.5,1.8-0.7,2.8-0.7C267.7,125.9,268.5,126.2,269.2,126.6z M269.3,130.6c0.1-1.1-0.1-1.9-0.6-2.4
		s-1.2-0.8-2.2-0.8s-1.8,0.3-2.6,0.9c-0.7,0.6-1.3,1.4-1.7,2.3H269.3z"/>
	<path class="st0" d="M288.6,126.3l-2.2,10.4h-1.5l0.3-1.5c-0.6,0.6-1.2,1.1-1.9,1.4c-0.7,0.3-1.4,0.5-2.2,0.5c-1,0-1.8-0.2-2.5-0.7
		s-1.2-1.1-1.4-2c-0.3-0.8-0.3-1.8-0.1-2.9c0.2-1.1,0.6-2,1.3-2.9c0.6-0.8,1.4-1.5,2.2-2c0.9-0.5,1.8-0.7,2.8-0.7
		c0.8,0,1.4,0.2,2,0.5s1,0.8,1.3,1.4l0.3-1.6h1.6V126.3z M283.5,135.2c0.6-0.4,1.2-0.9,1.6-1.5s0.8-1.4,0.9-2.2
		c0.2-0.8,0.2-1.5,0-2.2c-0.2-0.6-0.5-1.1-1-1.5s-1.1-0.5-1.8-0.5c-0.7,0-1.4,0.2-2,0.5c-0.6,0.4-1.2,0.9-1.6,1.5s-0.7,1.4-0.9,2.2
		c-0.2,0.8-0.2,1.5,0,2.2c0.2,0.6,0.5,1.1,1,1.5s1.1,0.5,1.8,0.5C282.2,135.7,282.8,135.5,283.5,135.2z"/>
	<path class="st0" d="M298.6,131.9c0.3,0.5,0.3,1.1,0.2,1.8c-0.2,0.9-0.7,1.7-1.4,2.2c-0.8,0.5-1.7,0.8-2.8,0.8h-5.1l2.2-10.4h4.8
		c1.1,0,1.8,0.2,2.4,0.7c0.5,0.5,0.7,1.1,0.5,1.9c-0.1,0.5-0.3,1-0.7,1.3c-0.3,0.3-0.8,0.6-1.3,0.7
		C297.9,131.1,298.3,131.5,298.6,131.9z M292.2,130.5h3.4c1.1,0,1.7-0.5,1.9-1.5c0.1-0.4,0-0.7-0.3-1c-0.3-0.2-0.7-0.3-1.2-0.3h-3.2
		L292.2,130.5z M296.3,134.9c0.4-0.3,0.7-0.7,0.8-1.2c0.1-0.6,0.1-1.1-0.2-1.5c-0.3-0.4-0.8-0.5-1.4-0.5h-3.4l-0.8,3.7h3.4
		C295.3,135.4,295.9,135.2,296.3,134.9z"/>
	<path class="st0" d="M310.3,126.3h1.5l-2.1,10.4h-1.5l1.7-8.3l-7.9,8.3h-1.5l2.2-10.4h1.5l-1.7,8.4L310.3,126.3z"/>
	<path class="st0" d="M324.5,126.3l-2.2,10.4h-1.5l0.3-1.5c-0.6,0.6-1.2,1.1-1.9,1.4c-0.7,0.3-1.4,0.5-2.2,0.5c-1,0-1.8-0.2-2.5-0.7
		s-1.2-1.1-1.4-2c-0.3-0.8-0.3-1.8-0.1-2.9c0.2-1.1,0.6-2,1.3-2.9c0.6-0.8,1.4-1.5,2.2-2c0.9-0.5,1.8-0.7,2.8-0.7
		c0.8,0,1.4,0.2,2,0.5s1,0.8,1.3,1.4l0.3-1.6h1.6V126.3z M319.4,135.2c0.6-0.4,1.2-0.9,1.6-1.5s0.8-1.4,0.9-2.2
		c0.2-0.8,0.2-1.5,0-2.2c-0.2-0.6-0.5-1.1-1-1.5s-1.1-0.5-1.8-0.5c-0.7,0-1.4,0.2-2,0.5c-0.6,0.4-1.2,0.9-1.6,1.5s-0.7,1.4-0.9,2.2
		c-0.2,0.8-0.2,1.5,0,2.2c0.2,0.6,0.5,1.1,1,1.5s1.1,0.5,1.8,0.5S318.8,135.5,319.4,135.2z"/>
	<path class="st0" d="M324.6,135.4h0.7c0.6,0,1.2-0.5,1.8-1.6s1.1-2.8,1.6-5l0.5-2.4h6.9l-2.2,10.4h-1.5l1.9-9.1h-3.9l-0.3,1.5
		c-0.5,2.3-1.1,4.2-1.9,5.5c-0.8,1.4-1.8,2.1-3.2,2.1h-0.6L324.6,135.4z"/>
	<path class="st0" d="M346.7,126.3h1.5l-2.2,10.4h-1.5l1.7-8.3l-7.9,8.3h-1.5l2.2-10.4h1.5l-1.8,8.4L346.7,126.3z"/>
	<path class="st0" d="M349.2,136.7l2.2-10.4h1.5l-0.9,4.3h6.2l0.9-4.3h1.5l-2.2,10.4h-1.5l1-4.7h-6.2l-1,4.7H349.2z"/>
	<path class="st0" d="M371.4,126.3h1.5l-2.2,10.4h-1.5l1.7-8.3l-7.9,8.3h-1.5l2.2-10.4h1.5l-1.7,8.4L371.4,126.3z"/>
	<path class="st0" d="M383.8,126.3h1.5l-2.2,10.4h-1.5l1.7-8.3l-7.9,8.3h-1.5l2.2-10.4h1.5l-1.7,8.4L383.8,126.3z"/>
</g>
</svg>
