<?xml version="1.0" encoding="utf-8"?>
<!-- Generator: Adobe Illustrator 22.1.0, SVG Export Plug-In . SVG Version: 6.00 Build 0)  -->
<svg version="1.1" id="svg3472" xmlns:svg="http://www.w3.org/2000/svg"
	 xmlns="http://www.w3.org/2000/svg" xmlns:xlink="http://www.w3.org/1999/xlink" x="0px" y="0px" width="113.5px" height="23px"
	 viewBox="0 0 113.5 23" enable-background="new 0 0 113.5 23" xml:space="preserve">
<g id="layer1" transform="translate(-52.69087,-468.10367)">
	<path id="path3047" fill="#00569F" d="M135.4,477.5l-2.3-2.7l-2.6,3.4h5.5L135.4,477.5L135.4,477.5z M155.4,488.3l1.7-0.1
		c0.1,0.3,0.3,0.5,0.6,0.7c0.3,0.2,0.7,0.3,1.4,0.4c0.6,0.1,1.3,0.2,2.1,0.2c0.7,0,1.3,0,1.8-0.1c0.5-0.1,0.9-0.2,1.2-0.3
		c0.3-0.1,0.4-0.3,0.4-0.5c0-0.2-0.1-0.3-0.4-0.5c-0.2-0.1-0.6-0.2-1.2-0.3c-0.4-0.1-1.2-0.1-2.4-0.3c-1.2-0.1-2.1-0.2-2.6-0.3
		c-0.6-0.1-1.1-0.3-1.4-0.5c-0.3-0.2-0.5-0.4-0.5-0.7c0-0.3,0.2-0.5,0.6-0.8c0.4-0.2,0.9-0.4,1.7-0.6c0.7-0.1,1.6-0.2,2.5-0.2
		c1,0,1.9,0.1,2.6,0.2c0.8,0.1,1.3,0.3,1.8,0.6c0.4,0.3,0.6,0.6,0.7,0.9l-1.7,0.1c-0.1-0.4-0.4-0.6-0.9-0.8
		c-0.5-0.2-1.3-0.3-2.3-0.3c-1.1,0-1.9,0.1-2.4,0.2c-0.5,0.2-0.7,0.4-0.7,0.6c0,0.2,0.2,0.4,0.5,0.5c0.3,0.1,1.2,0.3,2.7,0.4
		c1.4,0.1,2.4,0.3,3,0.4c0.8,0.2,1.4,0.3,1.7,0.6c0.4,0.2,0.6,0.5,0.6,0.8c0,0.3-0.2,0.6-0.6,0.8c-0.4,0.3-1,0.5-1.8,0.6
		c-0.8,0.1-1.6,0.2-2.6,0.2c-1.2,0-2.2-0.1-3.1-0.2c-0.8-0.1-1.5-0.4-1.9-0.7C155.7,489.1,155.5,488.7,155.4,488.3 M143.6,490.1
		v-5.6h9.7v0.7h-7.9v1.7h7.4v0.7h-7.4v1.9h8.2v0.7H143.6L143.6,490.1z M130,490.1v-5.6h1.8l7.1,4.4v-4.4h1.7v5.6h-1.8l-7.1-4.4v4.4
		H130z M125.1,484.6h1.8v5.6h-1.8V484.6z M114.3,490.1v-5.6h1.8v4.9h6.6v0.7H114.3z M102.6,487h3.8c0.8,0,1.4,0,1.9-0.1
		c0.5-0.1,0.8-0.2,1-0.3c0.2-0.2,0.4-0.3,0.4-0.5c0-0.3-0.2-0.5-0.7-0.7c-0.5-0.2-1.2-0.3-2.2-0.3h-4.2V487z M100.9,490.1v-5.6h6
		c1.2,0,2.1,0.1,2.7,0.2c0.6,0.1,1.1,0.3,1.5,0.5c0.4,0.3,0.6,0.5,0.6,0.8c0,0.4-0.3,0.7-0.9,1c-0.6,0.3-1.6,0.4-2.9,0.5
		c0.5,0.1,0.8,0.2,1.1,0.3c0.5,0.2,1,0.4,1.5,0.7l2.3,1.5h-2.2l-1.8-1.2c-0.5-0.3-0.9-0.6-1.3-0.8c-0.3-0.2-0.6-0.3-0.9-0.4
		c-0.3-0.1-0.5-0.1-0.8-0.1c-0.2,0-0.5,0-1,0h-2.1v2.5L100.9,490.1L100.9,490.1z M95.9,484.6h1.8v5.6h-1.8V484.6z M85.5,487.8h4.6
		l-1.4-1.5c-0.4-0.5-0.7-0.9-0.9-1.2c-0.2,0.4-0.4,0.7-0.7,1.1L85.5,487.8L85.5,487.8z M65.5,480.2l-1.5,2.6h3
		C67,482.7,65.5,480.2,65.5,480.2z M62.4,482.4c-1.1,0.1-2.6,0.6-4.1,1.4c-2.7,1.5-4.4,3.4-3.8,4.4c0.5,1,3.1,0.6,5.8-0.9
		c1.8-1,3.1-2.2,3.7-3.1h-2.5L62.4,482.4L62.4,482.4z M58,482.2c1.9-0.9,3.8-1.4,5.2-1.2l-0.6,1.1l0.7-1.2c-0.8-1.2-1.3-3.1-1.4-5.2
		C59.6,476.9,58,479.3,58,482.2L58,482.2z M69.5,488.4c-2-1.2-3.4-2.8-4-4.1h-0.1c-0.5,1.4-2,2.9-4,4.2c1.2,0.7,2.5,1.2,4,1.2
		C66.9,489.6,68.3,489.1,69.5,488.4 M69,475.7c-0.1,2.1-0.6,3.9-1.3,5.2l-0.8-1.5c0.4-1,0.7-2.5,0.7-4.2c0-3-0.9-5.5-2-5.5
		c-1.1,0-2,2.5-2,5.5c0,1.7,0.3,3.2,0.7,4.2l-0.5,0.9l1.8-3.1l4.2,7.1H67c0.6,1,1.9,2.2,3.7,3.1c2.7,1.5,5.3,1.9,5.8,0.9
		c0.5-1-1.2-2.9-3.8-4.4c-1.5-0.8-2.9-1.3-4-1.4l-0.8-1.4c1.4-0.1,3.2,0.3,5.1,1.2l0,0C72.8,479.4,71.2,476.9,69,475.7 M65.4,468.1
		c1.7,0,3.2,2.5,3.5,5.8c3.2,1.3,5.5,4.5,5.5,8.2c0,0.3,0,0.6,0,0.9c2.9,1.9,4.5,4.4,3.6,6c-0.8,1.5-3.8,1.6-7,0.1
		c-1.5,1.2-3.4,1.9-5.5,1.9c-2.1,0-4-0.7-5.6-1.9c-3.1,1.4-6.1,1.4-7-0.1c-0.9-1.5,0.8-4.1,3.7-6c0-0.3,0-0.6,0-0.9
		c0-3.7,2.3-6.9,5.5-8.2C62.3,470.6,63.7,468.1,65.4,468.1 M81.6,490.1l5.2-5.6h1.9l5.5,5.6h-2l-1.6-1.7H85l-1.5,1.7H81.6
		L81.6,490.1z M166.1,471.7v2.7h-0.6c-0.3-0.6-0.7-1-1.2-1.3c-0.4-0.3-1-0.5-1.7-0.7c-0.4-0.1-1.1-0.1-2.2-0.1h-1.6l0,3.2h0v2.2v2.2
		c0,0.5,0.1,0.8,0.2,0.9c0.1,0.1,0.4,0.2,0.7,0.3c0.4,0.1,0.8,0.1,1.5,0.1h0.7v0.3h-11.6v-0.3h0.7c0.6,0,1.2,0,1.5-0.1
		c0.3-0.1,0.5-0.2,0.7-0.4c0.1-0.1,0.2-0.4,0.2-0.9v-1.8l-0.1-5.8H152c-1.5,0-2.6,0.1-3.2,0.4c-0.9,0.4-1.5,1-1.8,1.7h-0.6v-2.7
		H166.1L166.1,471.7z M128.8,478.6l6-7.1h0.3l3.9,4.6h0l1.9,2.2l1,1.2c0.6,0.8,1.2,1.2,1.6,1.4c0.3,0.2,0.8,0.2,1.3,0.3v0.3h-9.1
		v-0.3h0.4c0.7,0,1.2-0.1,1.5-0.2c0.2-0.1,0.3-0.2,0.3-0.3c0-0.1,0-0.2-0.1-0.3c0,0-0.1-0.2-0.4-0.5l-1-1.2h-6.3h-0.3l-0.8,0.9
		c-0.2,0.3-0.4,0.6-0.4,0.8c0,0.3,0.2,0.5,0.6,0.6c0.2,0.1,0.9,0.1,1.9,0.2v0.3h-6.3v-0.3c0.7-0.1,1.2-0.2,1.7-0.4
		c0.4-0.2,1-0.7,1.6-1.5L128.8,478.6L128.8,478.6z M123.1,471.7v3.3h-0.6c-0.5-0.9-1.3-1.5-2.5-2c-1.2-0.5-2.6-0.7-4.2-0.7
		c-1.3,0-2.5,0.2-3.6,0.5c-1.1,0.4-1.9,0.8-2.4,1.3c-0.5,0.5-0.8,1.1-0.9,1.7h0c0,0.2-0.1,0.5-0.1,0.7c0,0.8,0.2,1.6,0.7,2.3
		c0.5,0.7,1.2,1.2,2.2,1.6c1,0.4,2.3,0.5,3.9,0.5c1.3,0,2.5-0.1,3.6-0.4c1.1-0.3,2.2-0.7,3.5-1.4v0.8c-1.2,0.6-2.4,1-3.7,1.2
		c-1.3,0.2-2.7,0.4-4.4,0.4c-2.2,0-4.2-0.2-5.9-0.6c-1.5-0.4-2.8-0.9-3.7-1.5l-0.1,0c-0.1-0.1-0.2-0.2-0.3-0.2
		c-0.9-0.8-1.4-1.6-1.4-2.4c0-0.9,0.5-1.8,1.6-2.6c1-0.8,2.4-1.4,4.2-1.9c1.8-0.5,3.7-0.7,5.7-0.7c1.5,0,3,0.1,4.6,0.4
		c0.9,0.2,1.5,0.3,1.8,0.3c0.3,0,0.6-0.1,0.8-0.2c0.2-0.1,0.4-0.3,0.5-0.5L123.1,471.7L123.1,471.7z M99.7,471.7l0.2,3.2H99
		c-0.4-0.8-1.4-1.4-2.9-1.9c-1.6-0.5-3.3-0.7-5.1-0.7c-1.4,0-2.5,0.1-3.3,0.4c-0.8,0.3-1.2,0.6-1.2,0.9c0,0.2,0.1,0.4,0.4,0.6
		c0.4,0.2,1,0.4,1.9,0.6c0.6,0.2,2.1,0.4,4.5,0.8c0.9,0.1,1.6,0.3,2.3,0.4h0.1c2,0.4,3.4,0.8,4.3,1.1c1.1,0.5,1.7,1,1.7,1.7
		c0,0.8-0.9,1.5-2.7,2.1c-0.6,0.2-1.2,0.3-1.9,0.5c-1.5,0.3-3.1,0.4-5.1,0.4c-0.9,0-1.7,0-2.5-0.1c-0.8-0.1-1.8-0.2-2.9-0.3
		c-0.7-0.1-1.2-0.1-1.6-0.1c-0.4,0-0.7,0-1.2,0.1c-0.4,0.1-0.7,0.2-1,0.4h-0.8v-1.3l-0.1,0V478h0.1v0h0.8c0.6,1,1.8,1.8,3.5,2.3
		c1.7,0.5,3.6,0.8,5.6,0.8c1.5,0,2.8-0.1,3.7-0.4c0.9-0.3,1.4-0.6,1.4-1c0-0.1-0.1-0.3-0.2-0.4l-0.1,0c-0.1-0.1-0.2-0.1-0.3-0.2
		c-0.4-0.2-0.9-0.4-1.6-0.6c-0.7-0.2-2-0.5-3.8-0.7c-2.5-0.4-4.4-0.8-5.5-1.1c-1.1-0.3-2-0.6-2.6-1c-0.6-0.4-0.9-0.8-0.9-1.2
		c0-0.8,0.8-1.4,2.4-1.9c1.6-0.5,3.7-0.8,6.2-0.8c0.9,0,1.8,0,2.6,0.1c0.7,0,1.4,0.1,2.4,0.3c0.9,0.1,1.6,0.2,2,0.2
		c0.3,0,0.6,0,0.8-0.1c0.2-0.1,0.4-0.2,0.6-0.5H99.7L99.7,471.7z"/>
</g>
</svg>
