<?xml version="1.0" encoding="UTF-8" standalone="no"?>
<!-- Created with Inkscape (http://www.inkscape.org/) -->

<svg
   xmlns:dc="http://purl.org/dc/elements/1.1/"
   xmlns:cc="http://creativecommons.org/ns#"
   xmlns:rdf="http://www.w3.org/1999/02/22-rdf-syntax-ns#"
   xmlns:svg="http://www.w3.org/2000/svg"
   xmlns="http://www.w3.org/2000/svg"
   xmlns:sodipodi="http://sodipodi.sourceforge.net/DTD/sodipodi-0.dtd"
   xmlns:inkscape="http://www.inkscape.org/namespaces/inkscape"
   id="svg3570"
   version="1.1"
   inkscape:version="0.48.1 "
   width="172.22629"
   height="60.898438"
   xml:space="preserve"
   sodipodi:docname="Danish Air Transport logo.svg"><metadata
     id="metadata3576"><rdf:RDF><cc:Work
         rdf:about=""><dc:format>image/svg+xml</dc:format><dc:type
           rdf:resource="http://purl.org/dc/dcmitype/StillImage" /><dc:title></dc:title></cc:Work></rdf:RDF></metadata><defs
     id="defs3574"><clipPath
       clipPathUnits="userSpaceOnUse"
       id="clipPath3584"><path
         d="m 0,595.28 841.89,0 L 841.89,0 0,0 0,595.28 z"
         id="path3586"
         inkscape:connector-curvature="0" /></clipPath></defs><sodipodi:namedview
     pagecolor="#ffffff"
     bordercolor="#666666"
     borderopacity="1"
     objecttolerance="10"
     gridtolerance="10"
     guidetolerance="10"
     inkscape:pageopacity="0"
     inkscape:pageshadow="2"
     inkscape:window-width="1600"
     inkscape:window-height="838"
     id="namedview3572"
     showgrid="false"
     fit-margin-top="0"
     fit-margin-left="0"
     fit-margin-right="0"
     fit-margin-bottom="0"
     inkscape:zoom="0.55306566"
     inkscape:cx="512.66044"
     inkscape:cy="-188.53616"
     inkscape:window-x="-8"
     inkscape:window-y="-8"
     inkscape:window-maximized="1"
     inkscape:current-layer="g3578" /><g
     id="g3578"
     inkscape:groupmode="layer"
     inkscape:label="DAT_logo"
     transform="matrix(1.25,0,0,-1.25,-358.11687,501.57928)"><g
       id="g3588"
       transform="matrix(0.5,0,0,0.5,334.97787,376.90405)"><path
         d="m 0,0 c 0,-26.636 -21.593,-48.229 -48.228,-48.229 -26.637,0 -48.229,21.593 -48.229,48.229 0,26.635 21.592,48.228 48.229,48.228 C -21.593,48.228 0,26.635 0,0"
         style="fill:#ffffff;fill-opacity:1;fill-rule:nonzero;stroke:none"
         id="path3590"
         inkscape:connector-curvature="0" /></g><g
       id="g3592"
       transform="matrix(0.5,0,0,0.5,334.97787,376.90405)"><path
         d="m 0,0 c 0,-26.636 -21.593,-48.229 -48.228,-48.229 -26.637,0 -48.229,21.593 -48.229,48.229 0,26.635 21.592,48.228 48.229,48.228 C -21.593,48.228 0,26.635 0,0 z"
         style="fill:none;stroke:#ffffff;stroke-width:1.00800002;stroke-linecap:butt;stroke-linejoin:miter;stroke-miterlimit:4;stroke-opacity:1;stroke-dasharray:none"
         id="path3594"
         inkscape:connector-curvature="0" /></g><g
       id="g3596"
       transform="matrix(0.5,0,0,0.5,317.84972,377.61765)"><path
         d="m 0,0 c 6.48,-5.104 11.939,-10.061 15.893,-14.368 3.66,1.539 11.031,4.372 17.414,5.393 1.474,9.283 0.163,18.809 -3.71,27.329 L 0,0"
         style="fill:#f9a91f;fill-opacity:1;fill-rule:nonzero;stroke:none"
         id="path3598"
         inkscape:connector-curvature="0" /></g><g
       id="g3600"
       transform="matrix(0.5,0,0,0.5,326.42782,358.7046)"><path
         d="m 0,0 c 2.996,2.559 5.719,5.54 8.082,8.925 2.366,3.371 4.229,6.951 5.623,10.643 L 4.114,11.695 0,0"
         style="fill:#fcd213;fill-opacity:1;fill-rule:nonzero;stroke:none"
         id="path3602"
         inkscape:connector-curvature="0" /></g><g
       id="g3604"
       transform="matrix(0.5,0,0,0.5,322.03722,365.0708)"><path
         d="m 0,0 c -5.395,2.236 -11.924,5.67 -18.938,10.012 l -7.095,-34.052 c 9.314,-0.73 18.711,1.297 26.924,5.848 C -0.323,-11.874 -0.178,-3.969 0,0"
         style="fill:#1f4fa2;fill-opacity:1;fill-rule:nonzero;stroke:none"
         id="path3606"
         inkscape:connector-curvature="0" /></g><g
       id="g3608"
       transform="matrix(0.5,0,0,0.5,304.02257,354.4922)"><path
         d="M 0,0 C -1.328,1.637 0.017,34.23 0.374,42.671 -15.939,55.048 -26.455,68.282 -25.725,71.815 -40.531,50.221 -35.217,20.654 -13.705,5.622 -8.895,2.252 -3.676,-0.114 1.686,-1.506 0.924,-0.923 0.324,-0.404 0,0"
         style="fill:#d22027;fill-opacity:1;fill-rule:nonzero;stroke:none"
         id="path3610"
         inkscape:connector-curvature="0" /></g><g
       id="g3612"
       transform="matrix(0.5,0,0,0.5,309.59482,383.51465)"><path
         d="M 0,0 C 7.777,3.224 37.975,15.648 39.967,14.953 40.453,14.79 41.166,14.386 41.959,13.884 38.817,18.452 34.815,22.551 30.005,25.92 8.49,40.97 -21.09,35.866 -36.318,14.563 -33.258,16.442 -17.203,11.113 0,0"
         style="fill:#009a68;fill-opacity:1;fill-rule:nonzero;stroke:none"
         id="path3614"
         inkscape:connector-curvature="0" /></g><g
       id="g3616"
       transform="matrix(0.5,0,0,0.5,359.54697,368.2251)"><path
         d="m 0,0 6.299,0 c 7.728,0 11.258,5.964 11.258,18.312 0,6.803 -0.59,12.516 -2.942,16.379 -1.931,3.192 -4.619,4.872 -9.239,4.872 L 0,39.563 0,0 z m -0.168,48.804 c 3.359,0 7.812,-0.169 10.164,-0.336 4.955,-0.42 9.238,-2.268 12.768,-5.796 5.376,-5.293 7.978,-12.769 7.978,-23.269 0,-7.979 -1.929,-14.951 -5.879,-20.244 C 21.336,-5.629 16.128,-8.82 10.667,-9.24 8.482,-9.408 5.711,-9.576 2.268,-9.576 l -14.194,0 0,58.38 11.758,0 z"
         style="fill:#d22027;fill-opacity:1;fill-rule:nonzero;stroke:none"
         id="path3618"
         inkscape:connector-curvature="0" /></g><g
       id="g3620"
       transform="matrix(0.5,0,0,0.5,393.31652,375.23875)"><path
         d="m 0,0 c 0,0 -1.932,6.132 -3.191,11.76 -0.589,2.688 -2.353,10.332 -2.353,10.332 0,0 -1.681,-6.887 -2.771,-11.256 C -9.408,6.636 -10.164,3.864 -11.424,0 L 0,0 z m 1.177,34.944 18.395,-58.548 -12.6,0 -4.115,13.86 -17.137,0 -4.115,-13.86 -12.265,0 19.152,58.548 12.685,0 z"
         style="fill:#d22027;fill-opacity:1;fill-rule:nonzero;stroke:none"
         id="path3622"
         inkscape:connector-curvature="0" /></g><g
       id="g3624"
       transform="matrix(0.5,0,0,0.5,424.27452,392.62695)"><path
         d="m 0,0 -1.932,-9.744 -13.943,0 0,-48.636 -11.929,0 0,48.636 -14.279,0 0,9.744 L 0,0 z"
         style="fill:#d22027;fill-opacity:1;fill-rule:nonzero;stroke:none"
         id="path3626"
         inkscape:connector-curvature="0" /></g></g></svg>