<?xml version="1.0" encoding="UTF-8"?>
<svg width="113px" height="23px" viewBox="0 0 113 23" version="1.1" xmlns="http://www.w3.org/2000/svg" xmlns:xlink="http://www.w3.org/1999/xlink">
    <!-- Generator: Sketch 49.1 (51147) - http://www.bohemiancoding.com/sketch -->
    <title>Norwegian_s</title>
    <desc>Created with Sketch.</desc>
    <defs></defs>
    <g id="AVIA" stroke="none" stroke-width="1" fill="none" fill-rule="evenodd">
        <g id="Norwegian_s">
            <polygon id="Fill-2" fill="#D63034" points="81.1684746 18.9315556 108.276983 18.9315556 108.276983 0.0805 81.1684746 0.0805"></polygon>
            <path d="M0.321762712,12.1376111 L0.321762712,6.44383333 L2.85564407,6.44383333 L2.85564407,7.30569444 C3.19017514,6.97027778 3.57258757,6.73133333 3.955,6.53966667 C4.33805085,6.39655556 4.81622599,6.30072222 5.29376271,6.30072222 C5.7240565,6.30072222 6.10646893,6.34863889 6.44163842,6.49175 C6.77616949,6.58758333 7.06281921,6.77925 7.30222599,6.97027778 C7.49311299,7.20986111 7.63675706,7.44880556 7.73251977,7.73566667 C7.82764407,8.02316667 7.87552542,8.50169444 7.87552542,9.17125 L7.87552542,12.1376111 L5.10287571,12.1376111 L5.10287571,9.21916667 C5.10287571,8.78855556 5.05499435,8.45377778 4.91135028,8.31002778 C4.76834463,8.119 4.52893785,8.07108333 4.14652542,8.07108333 C3.81199435,8.07108333 3.57258757,8.16627778 3.38170056,8.35794444 C3.19017514,8.54961111 3.09441243,8.83647222 3.09441243,9.21916667 L3.09441243,12.1376111 L0.321762712,12.1376111" id="Fill-3" fill="#304073"></path>
            <path d="M12.1784633,9.315 C12.1784633,9.84144444 12.274226,10.1762222 12.4657514,10.4151667 C12.6566384,10.65475 12.9432881,10.7499444 13.326339,10.7499444 C13.7559944,10.7499444 14.0432825,10.65475 14.2341695,10.4151667 C14.3778136,10.1762222 14.4735763,9.84144444 14.4735763,9.315 C14.4735763,8.78855556 14.3778136,8.40586111 14.2341695,8.16627778 C14.0432825,7.92733333 13.7559944,7.8315 13.326339,7.8315 C12.9432881,7.8315 12.6566384,7.92733333 12.4657514,8.16627778 C12.274226,8.40586111 12.1784633,8.78855556 12.1784633,9.315 Z M9.40581356,9.315 C9.40581356,8.35794444 9.74034463,7.59255556 10.4572881,7.06611111 C11.1269887,6.53966667 12.1305819,6.25280556 13.326339,6.25280556 C14.569339,6.25280556 15.5250508,6.53966667 16.2426328,7.06611111 C16.9116949,7.59255556 17.2941073,8.35794444 17.2941073,9.315 C17.2941073,10.2241389 16.9116949,10.9895278 16.2426328,11.5159722 C15.5250508,12.0896944 14.569339,12.3292778 13.326339,12.3292778 C12.1305819,12.3292778 11.1748701,12.0896944 10.4572881,11.5159722 C9.74034463,10.9895278 9.40581356,10.2241389 9.40581356,9.315 Z" id="Fill-4" fill="#304073"></path>
            <path d="M18.8722768,12.1376111 L18.8722768,6.44383333 L21.4061582,6.44383333 L21.4061582,7.49672222 C21.5970452,7.06611111 21.8843333,6.77925 22.2188644,6.58758333 C22.5533955,6.39655556 23.0315706,6.30072222 23.6055085,6.30072222 L23.8442768,6.30072222 L23.8442768,8.54961111 C23.7485141,8.54961111 23.6533898,8.54961111 23.5576271,8.54961111 C23.4618644,8.54961111 23.3661017,8.54961111 23.270339,8.54961111 C22.6970395,8.54961111 22.3146271,8.64480556 22.027339,8.83647222 C21.7885706,9.0275 21.6449266,9.36291667 21.6449266,9.79352778 L21.6449266,12.1376111 L18.8722768,12.1376111" id="Fill-5" fill="#304073"></path>
            <polyline id="Fill-6" fill="#304073" points="26.9999774 12.1376111 24.6569831 6.44383333 27.4302712 6.44383333 28.4817458 9.93663889 29.5338588 6.44383333 31.8762147 6.44383333 32.976209 9.93663889 33.9804407 6.44383333 36.6573277 6.44383333 34.4579774 12.1376111 31.733209 12.1376111 30.7289774 8.83647222 29.7247458 12.1376111 26.9999774 12.1376111"></polyline>
            <path d="M40.3863277,8.64480556 L42.8729661,8.64480556 C42.8250847,8.31002778 42.729322,8.02316667 42.4905537,7.87941667 C42.2990282,7.68838889 41.9644972,7.59255556 41.5820847,7.59255556 C41.2475537,7.59255556 40.9602655,7.68838889 40.7214972,7.87941667 C40.5299718,8.07108333 40.3863277,8.31002778 40.3863277,8.64480556 Z M42.729322,10.4630833 L45.3589661,10.4630833 C45.1674407,11.0853611 44.7377853,11.56325 44.1159661,11.85075 C43.4462655,12.1855278 42.585678,12.3292778 41.5342034,12.3292778 C40.2912034,12.3292778 39.3827345,12.0896944 38.6651525,11.5159722 C37.948209,10.9895278 37.613678,10.2714167 37.613678,9.36291667 C37.613678,8.40586111 37.948209,7.64047222 38.6651525,7.06611111 C39.4306158,6.53966667 40.3863277,6.25280556 41.6299661,6.25280556 C42.8729661,6.25280556 43.828678,6.53966667 44.5462599,7.16194444 C45.2632034,7.73566667 45.5977345,8.59752778 45.5977345,9.64977778 L45.5977345,9.79352778 L40.3863277,9.79352778 C40.3863277,10.1762222 40.5299718,10.4630833 40.7214972,10.65475 C40.9602655,10.8457778 41.2947966,10.9416111 41.677209,10.9416111 C41.9644972,10.9416111 42.1553842,10.8936944 42.3469096,10.7978611 C42.538435,10.7499444 42.6335593,10.6068333 42.729322,10.4630833 Z" id="Fill-7" fill="#304073"></path>
            <path d="M49.6140226,9.26708333 C49.6140226,9.69769444 49.7097853,10.0324722 49.852791,10.2714167 C50.0443164,10.511 50.3309661,10.6068333 50.7133785,10.6068333 C51.0964294,10.6068333 51.4309605,10.511 51.5746045,10.2714167 C51.8133729,10.0803889 51.8612542,9.74561111 51.8612542,9.26708333 C51.8612542,8.83647222 51.7654915,8.54961111 51.5746045,8.31002778 C51.3830791,8.07108333 51.0964294,7.97525 50.7133785,7.97525 C50.3309661,7.97525 50.0443164,8.07108333 49.852791,8.31002778 C49.7097853,8.50169444 49.6140226,8.83647222 49.6140226,9.26708333 Z M47.2716667,12.7598889 L50.0443164,12.7598889 C50.0921977,12.903 50.1400791,12.9988333 50.2837232,13.04675 C50.4267288,13.0946667 50.5703729,13.1425833 50.8570226,13.1425833 C51.2873164,13.1425833 51.5267232,13.04675 51.6697288,12.903 C51.8133729,12.7598889 51.9091356,12.4251111 51.9091356,11.9465833 L51.9091356,11.6590833 C51.6697288,11.8028333 51.3830791,11.9465833 51.048548,12.0417778 C50.7612599,12.1376111 50.3788475,12.1855278 49.9485537,12.1855278 C48.9922034,12.1855278 48.2752599,11.9465833 47.701322,11.4201389 C47.1280226,10.8936944 46.8407345,10.1762222 46.8407345,9.315 C46.8407345,8.40586111 47.1280226,7.64047222 47.6540791,7.11402778 C48.1794972,6.58758333 48.8970791,6.30072222 49.805548,6.30072222 C50.3309661,6.30072222 50.7612599,6.39655556 51.1436723,6.53966667 C51.5267232,6.68341667 51.8133729,6.87444444 52.1000226,7.20986111 L52.1000226,6.44383333 L54.5860226,6.44383333 L54.5860226,11.707 C54.5860226,12.7119722 54.2514915,13.3815278 53.6775537,13.8121389 C53.0563729,14.24275 52.1000226,14.4344167 50.6661356,14.4344167 C49.7097853,14.4344167 48.8970791,14.2906667 48.3231412,14.0038056 C47.7492034,13.7169444 47.366791,13.2856944 47.2716667,12.7598889 Z" id="Fill-8" fill="#304073"></path>
            <path d="M56.5466045,5.86947222 L59.3671356,5.86947222 L59.3671356,4.24286111 L56.5466045,4.24286111 L56.5466045,5.86947222 Z M56.5466045,12.1376111 L59.3671356,12.1376111 L59.3671356,6.44383333 L56.5466045,6.44383333 L56.5466045,12.1376111 Z" id="Fill-9" fill="#304073"></path>
            <path d="M66.1088305,9.60186111 C65.8215424,9.69769444 65.4870113,9.79352778 65.0088362,9.88936111 C64.339774,10.0324722 64.0046045,10.2241389 64.0046045,10.4630833 C64.0046045,10.65475 64.0524859,10.7499444 64.1961299,10.8457778 C64.339774,10.9416111 64.530661,10.9895278 64.7700678,10.9895278 C65.2482429,10.9895278 65.582774,10.8936944 65.773661,10.7499444 C66.0130678,10.5589167 66.1088305,10.2714167 66.1088305,9.88936111 C66.1088305,9.79352778 66.1088305,9.74561111 66.1088305,9.69769444 C66.1088305,9.64977778 66.1088305,9.64977778 66.1088305,9.60186111 Z M66.3475989,12.1376111 L66.1567119,11.6118056 C65.8215424,11.85075 65.4391299,12.0417778 65.0088362,12.1855278 C64.6264237,12.2813611 64.1482486,12.3292778 63.6221921,12.3292778 C62.8573672,12.3292778 62.2361864,12.1855278 61.8052542,11.8986667 C61.3755989,11.56325 61.1361921,11.1332778 61.1361921,10.5589167 C61.1361921,9.98455556 61.3755989,9.55394444 61.8052542,9.315 C62.2361864,9.0275 63.0488927,8.83647222 64.1961299,8.69272222 C64.339774,8.69272222 64.530661,8.69272222 64.8173107,8.64480556 C65.6785367,8.59752778 66.1088305,8.40586111 66.1088305,8.07108333 C66.1088305,7.92733333 66.0130678,7.8315 65.8694237,7.73566667 C65.7257797,7.64047222 65.4391299,7.64047222 65.1045989,7.64047222 C64.8173107,7.64047222 64.6264237,7.64047222 64.4348983,7.78358333 C64.2918927,7.87941667 64.1961299,7.97525 64.1961299,8.16627778 L61.4707232,8.16627778 C61.4707232,7.54463889 61.8052542,7.06611111 62.4270734,6.73133333 C63.0488927,6.39655556 64.0046045,6.25280556 65.2003616,6.25280556 C65.773661,6.25280556 66.2997175,6.30072222 66.7778927,6.39655556 C67.3039492,6.44383333 67.6863616,6.58758333 67.9251299,6.73133333 C68.2602994,6.92236111 68.4990678,7.11402778 68.6427119,7.35297222 C68.7378362,7.59255556 68.8335989,7.87941667 68.8335989,8.31002778 L68.8335989,11.5159722 C68.8335989,11.6118056 68.8335989,11.707 68.8814802,11.8028333 C68.9772429,11.85075 69.0251243,11.9465833 69.1202486,11.9938611 L69.1202486,12.1376111 L66.3475989,12.1376111 Z" id="Fill-10" fill="#304073"></path>
            <path d="M70.8414237,12.1376111 L70.8414237,6.44383333 L73.3753051,6.44383333 L73.3753051,7.30569444 C73.7104746,6.97027778 74.092887,6.73133333 74.4752994,6.53966667 C74.8577119,6.39655556 75.335887,6.30072222 75.8140621,6.30072222 C76.2443559,6.30072222 76.6267684,6.34863889 76.9612994,6.49175 C77.2958305,6.58758333 77.5831186,6.77925 77.821887,6.97027778 C78.0134124,7.20986111 78.1564181,7.44880556 78.2521808,7.73566667 C78.3479435,8.02316667 78.3958249,8.50169444 78.3958249,9.17125 L78.3958249,12.1376111 L75.6225367,12.1376111 L75.6225367,9.21916667 C75.6225367,8.78855556 75.5746554,8.45377778 75.4316497,8.31002778 C75.2880056,8.119 75.0492373,8.07108333 74.6668249,8.07108333 C74.3316554,8.07108333 74.0450056,8.16627778 73.9013616,8.35794444 C73.7104746,8.54961111 73.6147119,8.83647222 73.6147119,9.21916667 L73.6147119,12.1376111 L70.8414237,12.1376111" id="Fill-11" fill="#304073"></path>
            <polygon id="Fill-12" fill="#FFFFFE" points="82.4114746 12.13825 85.1847627 12.13825 85.1847627 9.84144444 82.4114746 9.84144444"></polygon>
            <path d="M87.1447062,12.1376111 L87.1447062,6.44383333 L89.679226,6.44383333 L89.679226,7.30569444 C90.0137571,6.97027778 90.3482881,6.73133333 90.7307006,6.53966667 C91.1609944,6.39655556 91.5912881,6.30072222 92.1173446,6.30072222 C92.5476384,6.30072222 92.9300508,6.34863889 93.2645819,6.49175 C93.599113,6.58758333 93.8864011,6.77925 94.0772881,6.97027778 C94.3166949,7.20986111 94.4597006,7.44880556 94.5554633,7.73566667 C94.651226,8.02316667 94.651226,8.50169444 94.651226,9.17125 L94.651226,12.1376111 L91.8779379,12.1376111 L91.8779379,9.21916667 C91.8779379,8.78855556 91.8306949,8.45377778 91.6870508,8.31002778 C91.5434068,8.119 91.3046384,8.07108333 90.9694689,8.07108333 C90.5876949,8.07108333 90.3482881,8.16627778 90.1567627,8.35794444 C90.0137571,8.54961111 89.9179944,8.83647222 89.9179944,9.21916667 L89.9179944,12.1376111 L87.1447062,12.1376111" id="Fill-13" fill="#FFFFFE"></path>
            <path d="M99.0020452,9.315 C99.0020452,9.84144444 99.0978079,10.1762222 99.2408136,10.4151667 C99.432339,10.65475 99.7189887,10.7499444 100.149282,10.7499444 C100.531695,10.7499444 100.818983,10.65475 101.00987,10.4151667 C101.201395,10.1762222 101.29652,9.84144444 101.29652,9.315 C101.29652,8.78855556 101.201395,8.40586111 101.00987,8.16627778 C100.818983,7.92733333 100.531695,7.8315 100.149282,7.8315 C99.7189887,7.8315 99.432339,7.92733333 99.2408136,8.16627778 C99.0978079,8.40586111 99.0020452,8.78855556 99.0020452,9.315 Z M96.1808757,9.315 C96.1808757,8.35794444 96.5639266,7.59255556 97.2329887,7.06611111 C97.9499322,6.53966667 98.9062825,6.25280556 100.149282,6.25280556 C101.344401,6.25280556 102.348633,6.53966667 103.017695,7.06611111 C103.735277,7.59255556 104.069808,8.35794444 104.069808,9.315 C104.069808,10.2241389 103.735277,10.9895278 103.017695,11.5159722 C102.348633,12.0896944 101.344401,12.3292778 100.149282,12.3292778 C98.9062825,12.3292778 97.9499322,12.0896944 97.2329887,11.5159722 C96.5639266,10.9895278 96.1808757,10.2241389 96.1808757,9.315 Z" id="Fill-14" fill="#FFFFFE"></path>
            <path d="M96.7548136,17.1618333 C98.4759887,16.4437222 99.0020452,16.2526944 100.149282,15.6783333 C100.340808,15.5825 99.6711073,15.5345833 99.432339,15.4866667 C99.1929322,15.3914722 98.9541638,15.3914722 98.7626384,15.1998056 C98.7147571,15.1518889 98.7626384,15.0081389 98.8105198,14.9608611 C98.9541638,14.9129444 99.0978079,14.9129444 99.2408136,14.8650278 C99.432339,14.8650278 99.9105141,15.1039722 99.9105141,14.8650278 C99.9105141,14.5775278 99.3844576,14.53025 99.2408136,14.24275 C99.1929322,14.1475556 99.2408136,13.9558889 99.2886949,13.8600556 C99.3365763,13.7169444 99.4802203,13.7169444 99.623226,13.6690278 C99.7668701,13.6690278 99.9105141,13.6690278 100.05352,13.7169444 C100.483814,13.8600556 100.866864,14.1475556 101.249277,14.2906667 C101.392282,14.3385833 101.535927,14.3385833 101.631689,14.2906667 C102.109864,14.0517222 102.53952,13.7642222 102.922571,13.4773611 C102.970452,13.4294444 103.065576,13.3336111 103.017695,13.2856944 C102.731045,13.04675 102.396514,12.903 102.014102,12.7598889 C101.00987,12.4251111 99.9583955,12.2813611 98.9541638,11.9465833 C98.8584011,11.8986667 98.7626384,11.8028333 98.8105198,11.7549167 C98.9541638,11.56325 99.1456893,11.4201389 99.3844576,11.3243056 C99.5281017,11.2284722 99.6711073,11.1805556 99.8626328,11.2284722 C101.29652,11.3722222 102.683164,11.7549167 104.117689,11.7549167 C104.404339,11.7549167 104.691627,11.2763889 104.978277,11.2284722 C105.264927,11.1332778 105.408571,11.6118056 105.69522,11.4680556 C106.460045,11.1805556 107.081864,10.6068333 107.750927,10.1762222 C109.329096,9.21916667 110.810864,9.17125 111.671452,9.45811111 C111.767215,9.50602778 111.910859,9.55394444 111.95874,9.69769444 C112.006621,9.84144444 112.006621,10.0324722 111.862977,10.1762222 C111.528446,10.7026667 111.098153,11.1332778 110.619977,11.5159722 C110.04604,11.9938611 109.329096,12.2813611 108.80304,12.8078056 C108.707277,12.8557222 108.898802,12.9988333 109.041808,12.9988333 C109.185452,12.9988333 109.281215,12.8557222 109.424859,12.8078056 C109.567864,12.7598889 109.711508,12.7119722 109.807271,12.7119722 C109.950277,12.7598889 110.093921,12.8078056 110.093921,12.9509167 C110.189684,13.1425833 109.950277,13.4773611 110.141802,13.5731944 C110.858746,14.099 111.862977,14.1475556 112.484158,14.7212778 C112.675684,14.9129444 112.101746,15.1039722 111.862977,15.1998056 C111.719333,15.2956389 111.528446,15.2477222 111.336921,15.1998056 C110.284808,15.0560556 109.281215,14.7212778 108.18122,14.5775278 C107.56004,14.4823333 106.890977,14.53025 106.221277,14.53025 C106.077633,14.53025 105.886746,14.3865 105.743102,14.4344167 C105.217045,14.5775278 104.73887,14.8650278 104.261333,15.0560556 C103.687395,15.2956389 103.113458,15.3914722 102.58804,15.6304167 C102.53952,15.6783333 102.58804,15.7741667 102.635282,15.8220833 C102.683164,15.9172778 102.874689,15.9651944 102.922571,16.1089444 C102.922571,16.2047778 102.826808,16.2999722 102.731045,16.2999722 C102.53952,16.3478889 102.396514,16.2999722 102.204989,16.2526944 C101.822576,16.1568611 101.488045,15.9651944 101.105633,15.9651944 C100.961989,15.9651944 100.914107,16.0610278 100.818983,16.1089444 C100.72322,16.1568611 100.579576,16.1089444 100.483814,16.1568611 C99.3365763,16.6833056 100.292927,16.3958056 97.0893446,17.7355556 C93.8864011,19.1232222 89.0095254,21.0366944 84.7544689,21.99375 C80.5472938,22.9508056 77.0570621,22.3764444 77.0570621,20.0802778 C77.0570621,17.7834722 79.6867062,15.0081389 81.9818192,13.2384167 L83.1290565,13.1905 L81.0733503,15.4393889 C80.4994124,16.0610278 79.9733559,17.1618333 79.9733559,18.5967778 C79.9733559,19.9844444 80.6902994,20.5588056 82.6508814,20.5588056 C84.5635819,20.5108889 87.6228814,20.0323611 89.9658757,19.4100833 C92.3088701,18.7884444 95.0815198,17.8793056 96.7548136,17.1618333" id="Fill-15" fill="#304073"></path>
            <path d="M99.7189887,14.24275 C99.9583955,14.53025 100.149282,14.8650278 100.483814,15.0081389 C100.72322,15.1518889 101.29652,15.2956389 101.535927,15.1518889 C102.492277,14.6733611 103.113458,14.3385833 103.974045,13.8121389 C104.021927,13.7642222 103.974045,13.6211111 103.926164,13.5252778 C103.878921,13.4773611 103.783158,13.4294444 103.687395,13.4294444 C103.591633,13.4294444 103.49587,13.4294444 103.400746,13.4773611 C102.874689,13.8121389 102.396514,14.24275 101.822576,14.53025 C101.631689,14.6260833 101.344401,14.6260833 101.153514,14.5775278 C100.771102,14.4823333 100.435932,14.24275 100.101401,14.099 C100.005638,14.0517222 99.9105141,13.9558889 99.8147514,13.9558889 C99.7668701,13.9558889 99.6711073,13.9558889 99.623226,14.0038056 C99.623226,14.099 99.6711073,14.1475556 99.7189887,14.24275" id="Fill-16" fill="#FFFFFE"></path>
            <path d="M104.261333,12.4251111 C104.261333,12.3292778 104.213452,12.1855278 104.261333,12.0896944 C104.356458,11.9938611 104.45222,11.8986667 104.595864,11.85075 C104.691627,11.7549167 104.834633,11.6118056 104.930395,11.707 C105.07404,11.85075 105.026158,12.0896944 104.978277,12.2334444 C104.978277,12.3292778 104.882514,12.4251111 104.786751,12.4723889 C104.643746,12.5203056 104.547983,12.6161389 104.404339,12.6161389 C104.308576,12.6161389 104.308576,12.4723889 104.261333,12.4251111" id="Fill-17" fill="#FFFFFE"></path>
            <path d="M106.747333,11.9465833 C107.368514,11.56325 107.894571,11.0853611 108.51639,10.7499444 C108.994565,10.4630833 109.472102,10.2714167 109.950277,10.0803889 C110.284808,9.98455556 110.667859,9.93663889 110.954508,9.79352778 C111.00239,9.79352778 111.050271,9.64977778 111.00239,9.64977778 C110.810864,9.55394444 110.524215,9.60186111 110.332689,9.60186111 C109.903034,9.64977778 109.472102,9.69769444 109.089689,9.84144444 C108.563633,10.0324722 108.038215,10.2714167 107.56004,10.5589167 C106.93822,10.8936944 106.412802,11.2763889 105.886746,11.707 C105.838864,11.7549167 105.743102,11.85075 105.790983,11.85075 C106.029751,11.9465833 106.31704,11.9465833 106.555808,11.9465833 C106.603689,11.9465833 106.699452,11.9938611 106.747333,11.9465833" id="Fill-18" fill="#FFFFFE"></path>
        </g>
    </g>
</svg>