<?xml version="1.0" encoding="UTF-8" standalone="no"?>
<!-- Created with Inkscape (http://www.inkscape.org/) -->

<svg
   xmlns:dc="http://purl.org/dc/elements/1.1/"
   xmlns:cc="http://creativecommons.org/ns#"
   xmlns:rdf="http://www.w3.org/1999/02/22-rdf-syntax-ns#"
   xmlns:svg="http://www.w3.org/2000/svg"
   xmlns="http://www.w3.org/2000/svg"
   xmlns:sodipodi="http://sodipodi.sourceforge.net/DTD/sodipodi-0.dtd"
   xmlns:inkscape="http://www.inkscape.org/namespaces/inkscape"
   id="svg2"
   version="1.1"
   inkscape:version="0.47 r22583"
   width="250"
   height="33"
   sodipodi:docname="Ealogo.png">
  <metadata
     id="metadata8">
    <rdf:RDF>
      <cc:Work
         rdf:about="">
        <dc:format>image/svg+xml</dc:format>
        <dc:type
           rdf:resource="http://purl.org/dc/dcmitype/StillImage" />
        <dc:title></dc:title>
      </cc:Work>
    </rdf:RDF>
  </metadata>
  <defs
     id="defs6">
    <inkscape:perspective
       sodipodi:type="inkscape:persp3d"
       inkscape:vp_x="0 : 0.5 : 1"
       inkscape:vp_y="0 : 1000 : 0"
       inkscape:vp_z="1 : 0.5 : 1"
       inkscape:persp3d-origin="0.5 : 0.33333333 : 1"
       id="perspective10" />
    <inkscape:perspective
       id="perspective2846"
       inkscape:persp3d-origin="0.5 : 0.33333333 : 1"
       inkscape:vp_z="1 : 0.5 : 1"
       inkscape:vp_y="0 : 1000 : 0"
       inkscape:vp_x="0 : 0.5 : 1"
       sodipodi:type="inkscape:persp3d" />
  </defs>
  <sodipodi:namedview
     pagecolor="#ffffff"
     bordercolor="#666666"
     borderopacity="1"
     objecttolerance="10"
     gridtolerance="10"
     guidetolerance="10"
     inkscape:pageopacity="0"
     inkscape:pageshadow="2"
     inkscape:window-width="1600"
     inkscape:window-height="838"
     id="namedview4"
     showgrid="false"
     inkscape:snap-page="true"
     inkscape:zoom="2.16"
     inkscape:cx="125"
     inkscape:cy="-4.527183"
     inkscape:window-x="-8"
     inkscape:window-y="-8"
     inkscape:window-maximized="1"
     inkscape:current-layer="svg2" />
  <path
     style="fill:#0000a0;fill-opacity:1"
     d="m 19.90833,-9e-5 c -4.14653,-0.0394 -8.339761,1.11548 -11.8055805,3.42673 -0.30324,0.12756 -0.92211,0.76368 -0.20991,0.72279 1.73553,0.12947 3.4781495,0.0588 5.2167805,0.0781 3.69052,5.6490902 7.35295,11.3385 11.03255,16.97254 3.15362,0 6.30724,0 9.46085,0 1.18756,1.54263 2.0845,3.36194 3.34305,4.81514 1.15008,-0.97912 1.81282,-2.52215 2.55975,-3.84795 1.2196,-2.96537 1.40617,-6.40107 0.68089,-9.52474 C 38.29305,6.3161202 32.34874,2.07087 26.2202,0.58992 24.15713,0.06365 22.02872,-0.0721 19.90833,0 z"
     id="path2818" />
  <path
     style="fill:#0000a0;fill-opacity:1"
     d="m 6.5412895,4.45623 c -2.25614,1.9073102 -4.39279,4.1454802 -5.37396,7.02918 -1.05390004,2.32971 -1.03112004,4.99607 -0.69778004,7.48901 0.20544,0.7537 0.42799,1.5454 0.77305004,2.22556 5.31925,-0.0642 10.6510795,0.1388 15.9626405,-0.12999 0.58815,-0.16587 -0.34719,-0.82873 -0.38212,-1.14362 C 13.83414,15.3571 10.926219,10.74652 7.9111895,6.2129302 7.4504895,5.68119 7.1117295,4.81125 6.5412895,4.45623 z"
     id="path2820" />
  <path
     style="fill:#0000a0;fill-opacity:1"
     d="m 17.20524,26.24912 c -4.25519,0.0432 -8.5299205,-0.0506 -12.7731905,0.15599 0.23726,0.85325 1.26878,1.3198 1.8936,1.90744 4.1103395,3.09364 9.2439905,4.95344 14.4018105,4.63405 3.18132,0.0516 6.37436,-0.48031 9.27143,-1.84077 2.49232,-1.08207 4.87498,-2.60895 6.64001,-4.70072 -1.16743,-0.24043 -2.54668,-0.0572 -3.78843,-0.13001 -5.21503,-0.0292 -10.43014,-0.0387 -15.64523,-0.026 z"
     id="path2822" />
  <path
     style="fill:#0000a0;fill-opacity:1"
     d="m 61.09993,7.3317902 c 0,6.0457798 0,12.0915598 0,18.1373198 5.81518,0.13348 11.73145,0.019 17.58552,0.0571 1.70378,-0.0383 3.46997,0.0765 5.13486,-0.0571 -0.0403,-1.17304 0.078,-2.41284 -0.0563,-3.54635 -5.85159,-0.032 -11.70319,-0.0615 -17.55481,-0.0883 -0.0308,-1.09892 -0.0614,-2.19785 -0.0922,-3.29676 5.51095,-0.0384 11.08434,0.0764 16.5565,-0.0571 -0.0378,-1.23129 0.0755,-2.52617 -0.0563,-3.71794 -5.49664,0 -10.99329,0 -16.48994,0 0,-1.23757 0,-2.47516 0,-3.71275 5.88987,-0.0382 11.842,0.0763 17.69303,-0.0571 -0.0378,-1.2312998 0.0755,-2.5261698 -0.0563,-3.7179398 -7.53593,0 -15.07184,0 -22.60777,0 l -0.0563,0.0571 z"
     id="path2824" />
  <path
     style="fill:#0000a0;fill-opacity:1"
     d="M 96.00474,7.2953902 C 92.47512,13.38973 88.75094,19.39018 85.17698,25.43793 c 1.67793,0.18045 3.56926,0.0784 5.32941,0.0624 1.43758,-0.0341 1.53916,-2.03556 2.49321,-2.63636 4.80893,0 9.61785,0 14.42678,0 0.48446,0.80185 0.85839,1.66081 1.4437,2.38157 1.31755,0.56136 2.86921,0.11477 4.26952,0.22556 1.06229,0.0733 2.36181,0.11703 1.1647,-1.11429 -3.38425,-5.65211 -6.59122,-11.42752 -10.03666,-16.9990098 -2.75206,-0.0144 -5.52083,-0.0976 -8.2629,-0.0624 z m 4.20825,3.1927598 c 0.79153,0.63758 1.09444,1.87649 1.71356,2.72634 1.12457,1.93528 2.21395,3.94992 3.40083,5.81193 -0.34669,0.34675 -1.20407,0.10632 -1.69455,0.21003 -2.83364,-0.0122 -5.80795,0.12207 -8.55983,-0.11124 1.5576,-2.93217 3.30404,-5.81969 5.06832,-8.61106 0.0223,-0.0133 0.0469,-0.0218 0.0717,-0.026 z"
     id="path2826" />
  <path
     style="fill:#0000a0;fill-opacity:1"
     d="m 130.74064,7.3110002 c -3.77825,0.0967 -7.583,-0.1414 -11.34484,0.23919 -2.01339,0.54683 -2.95037,2.7481598 -2.90277,4.7267298 -0.0326,1.95835 -0.10453,4.57516 1.80719,5.67312 2.09116,0.69651 4.38717,0.38289 6.56313,0.52897 3.93853,0.0551 7.87729,0.0931 11.81592,0.14181 0.7689,0.70366 0.87819,2.30905 -0.0154,2.92756 -2.42305,0.55578 -4.96346,0.24771 -7.43352,0.35436 -4.08112,0.0448 -8.22424,-0.0662 -12.26635,0.0721 0.0402,1.17483 -0.0779,2.41626 0.0563,3.55155 7.46237,-0.002 14.9261,0.006 22.38762,-0.0104 1.81197,-0.50119 2.91819,-2.25898 2.98449,-4.09683 0.14984,-2.17431 0.0477,-4.9398 -2.00153,-6.18343 -2.33755,-0.64571 -4.82903,-0.29973 -7.22874,-0.42769 -3.56147,-0.0239 -7.12296,-0.0442 -10.68444,-0.0663 -1.15553,-0.75287 -1.04256,-2.59437 -0.18942,-3.51515 2.53169,-0.26132 5.16271,-0.0969 7.73044,-0.17056 3.92401,-0.0507 7.91027,0.073 11.79537,-0.0634 -0.0411,-1.2351098 0.0783,-2.5377698 -0.0563,-3.7335498 -3.6724,0.0171 -7.34479,0.0347 -11.01718,0.0521 z"
     id="path2828" />
  <path
     style="fill:#0000a0;fill-opacity:1"
     d="m 143.83122,7.3317902 c 0.0378,1.2313 -0.0755,2.52619 0.0563,3.7179398 2.93006,0 5.86013,0 8.7902,0 0.0379,4.8175 -0.0752,9.69847 0.0563,14.47659 1.70324,-0.0396 3.47046,0.0777 5.13487,-0.0571 0,-4.80646 0,-9.61292 0,-14.41939 2.88615,-0.0389 5.83527,0.0767 8.6827,-0.0571 -0.0378,-1.2312998 0.0755,-2.5261698 -0.0563,-3.7179398 -7.53592,0 -15.07184,0 -22.60776,0 l -0.0563,0.0571 z"
     id="path2830" />
  <path
     style="fill:#0000a0;fill-opacity:1"
     d="m 168.89635,7.3317902 c 0,6.0457798 0,12.0915598 0,18.1373198 5.84248,0.13347 11.78606,0.019 17.66743,0.0571 1.7307,-0.0393 3.52512,0.0779 5.21678,-0.0571 -0.0402,-1.17481 0.0779,-2.41625 -0.0563,-3.55154 -5.87891,0 -11.75781,0 -17.63672,0 0,-1.12665 0,-2.2533 0,-3.37995 5.50753,-0.0384 11.07751,0.0764 16.54626,-0.0571 -0.0378,-1.23129 0.0755,-2.52617 -0.0563,-3.71794 -5.49664,0 -10.9933,0 -16.48995,0 0,-1.23757 0,-2.47516 0,-3.71275 5.88987,-0.0382 11.842,0.0763 17.69303,-0.0571 -0.0378,-1.2312998 0.0755,-2.5261698 -0.0563,-3.7179398 -7.59053,0 -15.18106,0 -22.77159,0 l -0.0563,0.0571 z"
     id="path2832" />
  <path
     style="fill:#0000a0;fill-opacity:1"
     d="m 204.91211,7.3161902 c -3.28729,0.0523 -6.63742,-0.0485 -9.88577,0.0988 -0.0264,6.0180498 -0.0553,12.0360898 -0.0871,18.0541098 1.67545,0.0937 3.51588,0.0963 5.19119,0 0.026,-2.2828 0.0549,-4.56557 0.0871,-6.84829 4.81378,0.0369 9.64251,-0.21261 14.44727,0.0883 1.39175,0.28872 1.08178,2.11925 1.20276,3.20821 0.0714,1.19509 -0.0252,2.4535 0.1283,3.60889 1.65345,-0.0404 3.37165,0.0781 4.98641,-0.0571 -0.20531,-2.18523 0.20191,-4.53031 -0.60922,-6.60389 -0.2032,-0.55716 -1.04042,-1.01191 -0.97076,-1.50179 2.21285,-2.05729 2.35944,-5.75256 0.9042,-8.2792798 -1.50108,-1.99863 -4.32741,-1.63175 -6.52226,-1.74196 -2.95722,-0.0362 -5.91474,-0.0352 -8.87211,-0.026 z m 6.07174,3.7543598 c 1.5213,0.12687 3.25749,-0.21003 4.63827,0.53037 0.59186,0.77146 0.29528,2.08925 -0.35324,2.74557 -0.94819,0.62677 -2.24028,0.22297 -3.31224,0.39235 -3.91504,0.0164 -7.85379,0.16337 -11.75449,-0.17395 -0.11359,-1.13908 0.008,-2.28932 0.0154,-3.43195 3.58874,-0.0195 7.17749,-0.0745 10.76633,-0.0624 z"
     id="path2834" />
  <path
     style="fill:#0000a0;fill-opacity:1"
     d="m 224.26899,7.3317902 c 0,6.0457798 0,12.0915598 0,18.1373198 1.67372,0.0937 3.51248,0.0963 5.18605,0 0.0312,-4.95897 0.0603,-9.91797 0.0871,-14.87695 4.30765,4.93536 8.71231,9.83778 12.95236,14.79897 2.57299,0.20254 5.22865,0.16759 7.77142,0.0781 0,-6.04577 0,-12.09155 0,-18.1373298 -1.67545,-0.0937 -3.51588,-0.0963 -5.19119,0 -0.003,4.5828698 -0.007,9.1657398 -0.0103,13.7485898 -3.98552,-4.50006 -7.83752,-9.11595 -11.85168,-13.5925798 -1.78623,-0.42188 -3.69836,-0.11335 -5.52907,-0.2132 -1.12819,0.0401 -2.32628,-0.0789 -3.41471,0.0571 z"
     id="path2836" />
</svg>
