<?xml version="1.0" encoding="utf-8"?>
<!-- Generator: Adobe Illustrator 22.1.0, SVG Export Plug-In . SVG Version: 6.00 Build 0)  -->
<svg version="1.1"
	 id="svg6047" inkscape:version="0.48.4 r9939" sodipodi:docname="–Э–Њ–≤—Л–є –і–Њ–Ї—Г–Љ–µ–љ—В 5" xmlns:cc="http://creativecommons.org/ns#" xmlns:dc="http://purl.org/dc/elements/1.1/" xmlns:inkscape="http://www.inkscape.org/namespaces/inkscape" xmlns:rdf="http://www.w3.org/1999/02/22-rdf-syntax-ns#" xmlns:sodipodi="http://sodipodi.sourceforge.net/DTD/sodipodi-0.dtd" xmlns:svg="http://www.w3.org/2000/svg"
	 xmlns="http://www.w3.org/2000/svg" xmlns:xlink="http://www.w3.org/1999/xlink" x="0px" y="0px" width="33.056px" height="23px"
	 viewBox="0 0 33.056 23" style="enable-background:new 0 0 33.056 23;" xml:space="preserve">
<style type="text/css">
	.st0{fill:#007DC5;}
</style>
<g>
	
		<sodipodi:namedview  bordercolor="#666666" borderopacity="1.0" fit-margin-bottom="0" fit-margin-left="0" fit-margin-right="0" fit-margin-top="0" id="base" inkscape:bbox-nodes="true" inkscape:bbox-paths="true" inkscape:current-layer="layer1" inkscape:cx="669.82423" inkscape:cy="136.73488" inkscape:document-units="px" inkscape:guide-bbox="true" inkscape:pageopacity="0.0" inkscape:pageshadow="2" inkscape:snap-bbox="true" inkscape:snap-bbox-edge-midpoints="true" inkscape:snap-bbox-midpoints="true" inkscape:window-height="838" inkscape:window-maximized="1" inkscape:window-width="1600" inkscape:window-x="-8" inkscape:window-y="-8" inkscape:zoom="0.98994949" pagecolor="#ffffff" showgrid="false" showguides="true">
		<sodipodi:guide  id="guide6116" orientation="1,0" position="-3.3413634e-014,410.26655"></sodipodi:guide>
		<sodipodi:guide  id="guide6118" orientation="1,0" position="500,455.43575"></sodipodi:guide>
	</sodipodi:namedview>
	<g>
		<path class="st0" d="M16.569,9.151c1.264,0.179,1.297,1.595,2.555,1.712c1.514,0.14,3.028,0.281,4.542,0.422
			c-0.743-0.95-1.079-1.3-1.803-1.401c-2.043-0.283-1.425-0.198-3.843-0.533c-1.305-0.181-1.395-1.673-2.708-1.919L3.89,5.32
			C5.243,7.172,5.714,7.634,8.033,7.97L16.569,9.151z"/>
		<path class="st0" d="M13.94,5.552c1.365,0.322,1.527,1.909,2.882,2.16c1.581,0.292,3.16,0.589,4.741,0.884
			c-0.688-0.88-1.155-1.544-2.055-1.752l-4.002-0.928c-1.463-0.342-1.607-2.028-3.091-2.443L0,0
			c1.437,1.965,2.001,2.782,4.693,3.407L13.94,5.552z"/>
		<path class="st0" d="M17.73,10.734L7.133,9.757c1.206,1.649,1.704,1.978,3.727,2.078l7.939,0.366
			c1.27,0.063,0.94,1.371,2.509,1.371h4.147c-0.451-0.578-0.808-1.098-1.58-1.135c-1.775-0.083-1.544-0.073-3.727-0.174
			C18.917,12.207,18.975,10.855,17.73,10.734z"/>
		<path class="st0" d="M10.8,13.72c-0.154-0.005-0.302-0.008-0.443-0.009c-0.143-0.003-0.27-0.005-0.383-0.005
			c-0.225-0.001-0.444,0.005-0.658,0.018c-0.212,0.014-0.414,0.046-0.604,0.097c-0.189,0.051-0.361,0.131-0.515,0.24
			c-0.154,0.109-0.284,0.258-0.391,0.447c-0.108,0.19-0.184,0.429-0.232,0.72L7.03,18.665c-0.013,0.071-0.02,0.137-0.026,0.202
			c-0.005,0.064-0.008,0.124-0.008,0.183c0.001,0.217,0.037,0.395,0.106,0.536c0.07,0.14,0.166,0.253,0.289,0.334
			c0.123,0.081,0.267,0.141,0.432,0.18c0.165,0.039,0.342,0.063,0.532,0.074c0.19,0.011,0.389,0.015,0.592,0.014
			c0.112,0,0.24-0.001,0.385-0.005c0.143-0.001,0.292-0.005,0.446-0.009c0.155-0.005,0.306-0.009,0.452-0.014
			c0.146-0.006,0.277-0.011,0.395-0.017l0.135-0.855H9.063c-0.229,0.001-0.41-0.014-0.546-0.045
			c-0.133-0.032-0.229-0.089-0.288-0.17c-0.057-0.082-0.084-0.195-0.083-0.344c0-0.06,0.005-0.127,0.013-0.2
			c0.007-0.074,0.018-0.154,0.032-0.24l0.152-0.961h2.604l0.139-0.878H8.482l0.135-0.846c0.031-0.204,0.07-0.372,0.117-0.503
			c0.046-0.131,0.112-0.232,0.195-0.304c0.084-0.072,0.195-0.123,0.337-0.151c0.14-0.029,0.32-0.043,0.538-0.042h1.697l0.135-0.855
			c-0.117-0.007-0.247-0.011-0.392-0.017C11.101,13.729,10.953,13.724,10.8,13.72z"/>
		<path class="st0" d="M22.25,15.507c-0.121-0.105-0.289-0.188-0.503-0.244c-0.215-0.057-0.486-0.088-0.815-0.088
			c-0.458,0-0.874,0.04-1.247,0.114c-0.373,0.074-0.709,0.18-1.004,0.318c-0.037,0.147-0.072,0.295-0.102,0.442
			c-0.029,0.147-0.059,0.302-0.084,0.461l-0.578,3.659h1.03l0.529-3.338c0.018-0.112,0.038-0.224,0.06-0.338
			c0.022-0.115,0.046-0.221,0.072-0.323c0.077-0.037,0.167-0.068,0.268-0.092c0.101-0.024,0.207-0.043,0.318-0.056
			c0.111-0.012,0.218-0.018,0.323-0.018c0.255,0,0.456,0.022,0.6,0.069c0.144,0.047,0.247,0.119,0.306,0.217
			c0.059,0.098,0.085,0.225,0.084,0.379c0,0.064-0.005,0.135-0.012,0.211c-0.007,0.077-0.019,0.157-0.033,0.243l-0.481,3.047h1.032
			l0.501-3.161c0.018-0.114,0.034-0.224,0.044-0.331c0.011-0.107,0.017-0.211,0.017-0.31c0.001-0.177-0.022-0.338-0.07-0.483
			C22.456,15.74,22.372,15.613,22.25,15.507z"/>
		<path class="st0" d="M12.942,20.171c-0.07-0.12-0.123-0.242-0.157-0.363c-0.034-0.123-0.051-0.253-0.051-0.389
			c0-0.056,0.003-0.113,0.008-0.171c0.004-0.06,0.013-0.12,0.023-0.185l0.843-5.313h-1.033l-0.851,5.361
			c-0.069,0.435-0.025,0.633,0.106,1.06H12.942z"/>
		<polygon class="st0" points="27.869,20.171 28.903,20.171 29.626,15.608 28.592,15.608 		"/>
		<path class="st0" d="M17.721,14.714c0.051-0.094,0.091-0.22,0.114-0.379c0.006-0.044,0.011-0.086,0.015-0.125
			c0.004-0.039,0.006-0.076,0.006-0.108c0.001-0.149-0.04-0.256-0.125-0.316c-0.086-0.062-0.226-0.091-0.42-0.091
			c-0.158,0-0.286,0.018-0.382,0.058c-0.097,0.041-0.173,0.108-0.226,0.202c-0.054,0.094-0.093,0.22-0.117,0.38
			c-0.007,0.044-0.012,0.086-0.015,0.124c-0.004,0.039-0.006,0.076-0.006,0.108c-0.001,0.149,0.041,0.255,0.125,0.316
			c0.084,0.063,0.225,0.091,0.42,0.091c0.161,0,0.291-0.019,0.387-0.059C17.595,14.875,17.67,14.807,17.721,14.714z"/>
		<path class="st0" d="M29.918,14.334c0.007-0.044,0.012-0.087,0.016-0.125c0.003-0.038,0.006-0.076,0.006-0.108
			c0-0.149-0.04-0.256-0.125-0.316c-0.085-0.062-0.226-0.091-0.42-0.091c-0.157,0-0.286,0.018-0.383,0.058
			c-0.097,0.041-0.172,0.108-0.226,0.202c-0.053,0.093-0.093,0.22-0.117,0.38c-0.007,0.044-0.012,0.086-0.015,0.124
			c-0.004,0.038-0.006,0.076-0.006,0.108c0,0.149,0.041,0.255,0.125,0.316c0.084,0.062,0.225,0.091,0.42,0.091
			c0.161,0,0.291-0.019,0.387-0.059c0.098-0.039,0.173-0.108,0.225-0.201C29.855,14.62,29.895,14.494,29.918,14.334z"/>
		<path class="st0" d="M14.851,19.063l0.843-5.313h-1.033l-0.851,5.361c-0.069,0.435-0.024,0.633,0.106,1.06h1.111
			c-0.07-0.12-0.123-0.242-0.156-0.363c-0.034-0.123-0.051-0.253-0.051-0.389c0-0.056,0.003-0.113,0.007-0.171
			C14.833,19.189,14.841,19.128,14.851,19.063z"/>
		<path class="st0" d="M32.841,15.18c-0.075-0.003-0.152-0.005-0.231-0.005c-0.212,0-0.434,0.014-0.661,0.043
			c-0.227,0.029-0.452,0.077-0.675,0.14c-0.223,0.063-0.434,0.146-0.632,0.249c-0.037,0.147-0.072,0.297-0.102,0.442
			c-0.029,0.147-0.059,0.302-0.084,0.463l-0.578,3.657h1.027l0.529-3.332c0.018-0.112,0.038-0.225,0.06-0.338
			c0.022-0.115,0.048-0.223,0.076-0.323c0.077-0.037,0.165-0.068,0.266-0.092c0.101-0.024,0.208-0.043,0.318-0.056
			c0.111-0.012,0.22-0.018,0.324-0.018c0.068,0,0.133,0.002,0.194,0.005c0.061,0.002,0.118,0.007,0.17,0.014l0.214-0.835
			C32.987,15.188,32.914,15.183,32.841,15.18z"/>
		<polygon class="st0" points="15.785,20.171 16.82,20.171 17.543,15.608 16.508,15.608 		"/>
		<path class="st0" d="M27.068,18.901l0.133-0.845c-0.367,0.045-0.688,0.107-1.037,0.194l-0.059,0.372
			c-0.018,0.112-0.038,0.225-0.061,0.338c-0.023,0.115-0.048,0.223-0.074,0.323c-0.111,0.048-0.225,0.083-0.344,0.108
			c-0.119,0.024-0.239,0.041-0.357,0.049c-0.118,0.008-0.231,0.012-0.337,0.012c-0.181,0-0.336-0.014-0.461-0.046
			c-0.127-0.033-0.224-0.091-0.289-0.172c-0.066-0.083-0.1-0.198-0.1-0.346c0-0.031,0.002-0.063,0.005-0.097
			c0.002-0.034,0.007-0.07,0.012-0.106c0.029-0.189,0.075-0.34,0.137-0.45c0.062-0.11,0.148-0.197,0.257-0.257
			c0.602-0.331,2.07-0.28,2.766-0.288l0.152-0.961c0.01-0.064,0.018-0.126,0.023-0.185c0.005-0.058,0.008-0.114,0.008-0.168
			c0-0.238-0.047-0.436-0.135-0.593c-0.088-0.154-0.211-0.279-0.367-0.367c-0.156-0.088-0.34-0.152-0.548-0.188
			c-0.207-0.036-0.432-0.053-0.673-0.052c-0.354,0.002-0.691,0.022-1.009,0.057c-0.318,0.035-0.61,0.077-0.879,0.123l-0.035,0.769
			c0.168-0.021,0.346-0.041,0.533-0.06c0.187-0.019,0.38-0.035,0.576-0.046c0.197-0.011,0.392-0.019,0.586-0.019
			c0.31,0,0.538,0.062,0.681,0.186c0.143,0.125,0.211,0.309,0.211,0.557c0,0.042-0.001,0.089-0.006,0.136
			c-0.004,0.048-0.011,0.097-0.018,0.148c-0.302,0.011-0.599,0.026-0.889,0.043c-0.292,0.017-0.574,0.047-0.847,0.088
			c-0.316,0.048-0.582,0.139-0.793,0.272c-0.212,0.133-0.38,0.308-0.499,0.519c-0.121,0.214-0.203,0.465-0.248,0.752
			c-0.01,0.066-0.021,0.131-0.026,0.194c-0.006,0.064-0.007,0.125-0.008,0.183c-0.001,0.255,0.054,0.469,0.164,0.641
			c0.111,0.172,0.285,0.301,0.523,0.388c0.237,0.086,0.543,0.13,0.921,0.131c0.45,0,0.862-0.033,1.232-0.1
			c0.369-0.067,0.701-0.178,0.996-0.332c0.037-0.147,0.071-0.295,0.102-0.443C27.015,19.215,27.042,19.061,27.068,18.901z"/>
		<path class="st0" d="M15.699,21.717v0.917c0,0.057-0.018,0.096-0.054,0.118c-0.037,0.021-0.099,0.032-0.187,0.032
			c-0.09,0-0.154-0.011-0.191-0.032c-0.038-0.022-0.056-0.061-0.056-0.118v-0.917h-0.304v0.917c0,0.244,0.182,0.366,0.547,0.366
			c0.366,0,0.549-0.122,0.549-0.366v-0.917h0H15.699z"/>
		<path class="st0" d="M14.516,21.797c-0.041-0.026-0.091-0.047-0.15-0.063c-0.059-0.016-0.111-0.026-0.157-0.03
			c-0.046-0.004-0.095-0.006-0.147-0.006c-0.051,0-0.098,0.002-0.144,0.006c-0.045,0.004-0.097,0.014-0.156,0.03
			c-0.058,0.016-0.108,0.037-0.149,0.063c-0.041,0.026-0.076,0.063-0.105,0.113c-0.029,0.049-0.044,0.106-0.044,0.171v0.553
			c0,0.077,0.02,0.141,0.059,0.193c0.04,0.052,0.093,0.09,0.16,0.113c0.066,0.023,0.13,0.039,0.189,0.048
			C13.932,22.996,13.995,23,14.063,23c0.071,0,0.139-0.005,0.203-0.015c0.063-0.01,0.127-0.028,0.191-0.054
			c0.063-0.025,0.114-0.063,0.152-0.114c0.038-0.05,0.056-0.112,0.056-0.183v-0.553c0-0.066-0.014-0.124-0.043-0.172
			C14.593,21.86,14.558,21.822,14.516,21.797z M14.361,22.634L14.361,22.634c0,0.032-0.008,0.059-0.024,0.081
			c-0.016,0.021-0.04,0.037-0.071,0.046c-0.031,0.009-0.061,0.015-0.091,0.019c-0.029,0.003-0.065,0.005-0.108,0.005
			c-0.042,0-0.079-0.001-0.108-0.005c-0.029-0.003-0.06-0.009-0.091-0.019c-0.032-0.009-0.056-0.024-0.073-0.046
			c-0.017-0.021-0.025-0.049-0.025-0.081v-0.555c0-0.063,0.025-0.105,0.074-0.13c0.049-0.024,0.124-0.036,0.222-0.036
			c0.098,0,0.171,0.012,0.221,0.037c0.05,0.025,0.075,0.068,0.075,0.129V22.634z"/>
		<polygon class="st0" points="12.505,22.62 12.193,21.717 11.76,21.717 11.76,22.981 12.039,22.981 12.039,22.046 12.047,22.046 
			12.376,22.981 12.62,22.981 12.939,22.046 12.945,22.046 12.945,22.981 13.219,22.981 13.219,21.717 12.812,21.717 		"/>
		<path class="st0" d="M27.977,21.797c-0.042-0.026-0.091-0.047-0.15-0.063c-0.059-0.016-0.111-0.026-0.157-0.03
			c-0.046-0.004-0.095-0.006-0.147-0.006c-0.05,0-0.098,0.002-0.144,0.006c-0.045,0.004-0.097,0.014-0.156,0.03
			c-0.058,0.016-0.108,0.037-0.149,0.063c-0.041,0.026-0.076,0.063-0.105,0.113c-0.029,0.049-0.044,0.106-0.044,0.171v0.553
			c0,0.077,0.02,0.141,0.06,0.193c0.04,0.052,0.093,0.09,0.16,0.113c0.067,0.023,0.13,0.039,0.189,0.048
			C27.392,22.996,27.455,23,27.522,23c0.072,0,0.139-0.005,0.203-0.015c0.063-0.01,0.127-0.028,0.191-0.054
			c0.063-0.025,0.114-0.063,0.152-0.114c0.038-0.05,0.056-0.112,0.056-0.183v-0.553c0-0.066-0.014-0.124-0.043-0.172
			C28.053,21.86,28.018,21.822,27.977,21.797z M27.821,22.634c0,0.032-0.008,0.059-0.024,0.081c-0.016,0.021-0.04,0.037-0.071,0.046
			c-0.031,0.009-0.061,0.015-0.091,0.019c-0.029,0.003-0.065,0.005-0.108,0.005c-0.043,0-0.079-0.001-0.108-0.005
			c-0.029-0.003-0.06-0.009-0.091-0.019c-0.032-0.009-0.056-0.024-0.073-0.046c-0.017-0.021-0.025-0.049-0.025-0.081v-0.555
			c0-0.063,0.025-0.105,0.074-0.13c0.049-0.024,0.123-0.036,0.222-0.036c0.097,0,0.171,0.012,0.221,0.037
			c0.05,0.025,0.075,0.068,0.075,0.129V22.634z"/>
		<path class="st0" d="M24.909,22.46h0.207v0.294c-0.073,0.02-0.141,0.029-0.204,0.029c-0.114,0-0.203-0.012-0.264-0.037
			c-0.062-0.025-0.092-0.07-0.092-0.134v-0.508c0-0.127,0.109-0.191,0.329-0.191c0.189,0,0.359,0.018,0.514,0.055v-0.23
			c-0.164-0.027-0.335-0.041-0.514-0.041c-0.06,0-0.117,0.003-0.17,0.008c-0.054,0.006-0.11,0.018-0.168,0.037
			c-0.058,0.019-0.108,0.042-0.15,0.071c-0.042,0.028-0.076,0.068-0.103,0.119c-0.027,0.05-0.041,0.109-0.041,0.175v0.526
			c0,0.06,0.012,0.112,0.035,0.156c0.023,0.044,0.054,0.079,0.092,0.105c0.038,0.026,0.085,0.047,0.142,0.063
			c0.056,0.016,0.113,0.027,0.169,0.033C24.747,22.997,24.81,23,24.88,23c0.084,0,0.177-0.007,0.277-0.023
			c0.101-0.015,0.183-0.035,0.248-0.058v-0.656h-0.497V22.46z"/>
		<path class="st0" d="M26.616,22.383c0.056-0.042,0.083-0.101,0.083-0.177v-0.222c0-0.097-0.038-0.166-0.115-0.206
			c-0.077-0.04-0.197-0.06-0.364-0.06h-0.569v1.264h0.304v-0.497h0.14l0.331,0.497h0.351l-0.366-0.52
			C26.492,22.451,26.561,22.424,26.616,22.383z M26.401,22.145c0,0.055-0.013,0.091-0.039,0.11
			c-0.026,0.019-0.075,0.028-0.146,0.028h-0.261v-0.351h0.261c0.067,0,0.115,0.008,0.143,0.026c0.028,0.018,0.042,0.049,0.042,0.097
			V22.145z"/>
		<path class="st0" d="M29.159,22.634c0,0.057-0.018,0.096-0.055,0.118c-0.036,0.021-0.098,0.032-0.187,0.032
			c-0.09,0-0.154-0.011-0.191-0.032c-0.037-0.022-0.056-0.061-0.056-0.118v-0.917h-0.303v0.917c0,0.244,0.183,0.366,0.547,0.366
			c0.366,0,0.549-0.122,0.549-0.366v-0.917h-0.304V22.634z"/>
		<path class="st0" d="M30.623,21.776c-0.077-0.04-0.205-0.059-0.385-0.059h-0.506v1.264h0.304V22.57h0.167
			c0.191,0,0.328-0.023,0.411-0.068c0.083-0.045,0.125-0.131,0.125-0.255v-0.24C30.738,21.892,30.7,21.816,30.623,21.776z
			 M30.444,22.237c0,0.045-0.016,0.077-0.049,0.096c-0.033,0.019-0.088,0.028-0.168,0.028h-0.193v-0.428h0.189
			c0.084,0,0.142,0.007,0.174,0.021c0.031,0.014,0.047,0.04,0.047,0.081V22.237z"/>
		<path class="st0" d="M23.209,22.214h-0.152c-0.112,0-0.168-0.033-0.168-0.099v-0.09c0-0.041,0.019-0.069,0.056-0.086
			c0.038-0.017,0.106-0.025,0.206-0.025c0.073,0,0.208,0.012,0.405,0.035v-0.226c-0.166-0.017-0.298-0.025-0.395-0.025
			c-0.201,0-0.347,0.026-0.439,0.079c-0.092,0.052-0.138,0.133-0.138,0.242v0.094c0,0.221,0.139,0.331,0.417,0.331h0.148
			c0.066,0,0.11,0.012,0.133,0.036c0.022,0.024,0.033,0.055,0.033,0.092v0.082c0,0.087-0.084,0.13-0.253,0.13
			c-0.085,0-0.236-0.017-0.452-0.05v0.232C22.789,22.988,22.938,23,23.059,23c0.087,0,0.162-0.005,0.225-0.016
			s0.121-0.03,0.174-0.056c0.054-0.027,0.094-0.066,0.121-0.117c0.028-0.051,0.041-0.115,0.041-0.19v-0.084
			c0-0.106-0.031-0.187-0.094-0.241C23.463,22.241,23.357,22.214,23.209,22.214z"/>
		<polygon class="st0" points="17.767,22.439 18.363,22.439 18.363,22.223 17.767,22.223 17.767,21.933 18.427,21.933 
			18.427,21.717 17.463,21.717 17.463,22.981 18.447,22.981 18.447,22.764 17.767,22.764 		"/>
		<rect x="22.074" y="21.717" class="st0" width="0.304" height="1.264"/>
		<polygon class="st0" points="17.245,21.9 17.245,21.717 16.233,21.717 16.233,21.933 16.871,21.933 16.213,22.796 16.213,22.981 
			17.257,22.981 17.257,22.762 16.587,22.762 		"/>
		<polygon class="st0" points="19.571,22.579 18.959,21.717 18.651,21.717 18.651,22.981 18.922,22.981 18.922,22.104 
			19.534,22.981 19.841,22.981 19.841,21.717 19.571,21.717 		"/>
		<rect x="20.114" y="21.717" class="st0" width="0.304" height="1.264"/>
		<path class="st0" d="M21.689,21.797c-0.093-0.053-0.246-0.08-0.461-0.08h-0.537v1.264h0.54c0.222,0,0.377-0.026,0.465-0.076
			c0.088-0.051,0.133-0.147,0.133-0.29v-0.514C21.828,21.951,21.781,21.85,21.689,21.797z M21.524,22.614
			c0,0.065-0.022,0.106-0.066,0.124c-0.044,0.018-0.125,0.026-0.241,0.026h-0.222v-0.831h0.232c0.1,0,0.175,0.012,0.224,0.035
			c0.049,0.023,0.074,0.065,0.074,0.126V22.614z"/>
	</g>
</g>
</svg>
