<?xml version="1.0" encoding="utf-8"?>
<!-- Generator: Adobe Illustrator 23.0.5, SVG Export Plug-In . SVG Version: 6.00 Build 0)  -->
<svg version="1.1" id="Слой_1" xmlns="http://www.w3.org/2000/svg" xmlns:xlink="http://www.w3.org/1999/xlink" x="0px" y="0px"
	 width="1156.5px" height="309.2px" viewBox="0 0 1156.5 309.2" enable-background="new 0 0 1156.5 309.2" xml:space="preserve">
<title>chengdu_airlines</title>
<g id="Слой_2_1_">
	<g id="Слой_1-2">
		<path fill="#FF9900" d="M154.3,0C240.9-1,310,70.3,309.4,155.4s-69.2,152.2-151.6,153.7C69.1,310.8,0.1,238.1,0,154.6
			C-0.1,70.4,69.5-1,154.3,0z M210.4,66.6l-1,0.5c0,0.7,0.1,1.5,0.3,2.2c2.4,7,5.6,13.8,7,21c1.3,6.9,0.8,14.1,1,21.2
			c0,0.8-1,1.6-1.6,2.4c-0.6-0.8-1.1-1.7-1.5-2.6c-0.4-1.4-0.3-2.9-0.6-4.3c-1.7-8.1-5.1-15.8-10.1-22.4
			c-5.1-6.6-10.2-13.2-16.2-18.8c-8.6-7.8-19.1-13.1-30.4-15.3c12.7,9.6,24.3,20,30.1,35.5c-1.4-0.5-2.7-1.3-3.8-2.3
			c-3.4-2.9-6.5-6-10.1-8.6c-6.6-4.8-13.6-9-21.7-11c-6-1.5-11.8-4.2-17.8-4.7c-7.4-0.5-15,0.7-22.5,1.2c-0.9,0.1-1.7,1-2.5,1.4
			c8,2,15.6,3.8,23.2,6c7.5,2.2,14.2,6.4,19.5,12.1c-31.2-9.2-59.2-4.3-83.7,17.4c15.2-4.7,30.2-10.5,47.6-6c-1.4,1.1-2,2-2.8,2.2
			c-2.4,0.6-4.9,1.1-7.4,1.4c-6.3,0.9-11.7,4.1-17,7.1c-3.6,2-6.6,5.2-10.1,7.4c-5.8,3.5-10.2,8.4-14.4,13.5
			c-5.7,6.9-9.3,15.1-12.4,23.4c-0.3,1.1-0.5,2.1-0.5,3.2c10.6-13.6,22-25.6,38.6-30.7l1.2,1.2c-8.1,5.8-14.8,13.3-19.7,22
			c-5.1,9.1-8.6,18.9-10.5,29.1c-1.3,6.8-1.6,26.8,2.4,30.7c2.4-17.3,6.4-33.6,19.2-46.3c-6.6,14.9-7.3,30.3-4.3,45.9
			S86.8,231.2,99,242c-6-16-11.8-31.9-6.7-49.8c2.5,7.9,4.6,15.3,7.2,22.6s7.7,13.2,12.6,19.3c4.8,6.2,10.7,11.4,17.3,15.6
			c6.4,3.8,13,8,21.5,8.7c-19.8-15.7-32-31.9-30.2-40.8c8.8,13.4,21.2,21.1,35.3,26.6c14.7,5.8,29.5,6.3,44.8,2.7
			c-0.8-0.9-1.9-1.5-3.1-1.8c-4.3-0.9-8.7-1.4-12.9-2.5c-4.1-1-8.1-2.4-11.9-4.3c-5-2.7-9.8-5.7-14.5-8.9c-0.7-0.4-0.7-1.8-1.3-3.3
			c15,8,29.7,7.9,45,5.1c14.9-2.7,28.7-9.5,39.8-19.7c0.6-0.8,1.2-1.7,1.6-2.7c-15.3,8-40.6,13.2-50.2,7.6
			c32.8-5.9,54.2-25.3,65.2-56.8c-1.2,0.3-2.3,1.1-3,2.1c-3.6,4.2-6.8,8.8-10.8,12.6c-6.1,6-13.2,10.7-21.1,13.9
			c-1.3,0.4-2.7,0.7-4.1,0.8l-0.5-1c13.2-9,20.6-22.1,26-36.6c6.2-16.4,5.9-38.1,1.4-44.9c-1.7,7.8-2.9,16-5.3,23.7
			s-5.8,15.2-12.9,20.5c6.1-14.7,5.9-29.6,2.9-44.8C227.9,90.9,220.9,77.3,210.4,66.6L210.4,66.6z M57.4,242.3l0.5-0.6
			c-0.1-0.4-0.2-0.7-0.4-1.1c-2.2-2.2-3.6-5-4-8c-0.2-1.9-2.1-3.8-3.7-5.2s-3.7-2.2-5.5-3.4c-14.6-10.2-18.2-31.5-8-45.8
			c2-2.9,3.4-6.1,4.1-9.6c1.2-6.9-2.2-12.3-7.4-16.6c-1.8-1.5-2.9-3.1-2.6-5.6c0.9-7.9-0.7-15.4-3.3-22.8c-1.3-3.7-1.5-7.5,1.2-11.2
			c5.6-7.5,10.8-15.3,15.5-23.3c2.1-3.6,5.1-4.1,8.1-4.2c6.1-0.2,9.4-3.5,8.2-10.2c-0.7,0.6-1.3,1.3-1.9,2.1
			c-0.8,1.4-1.6,2.8-2.6,4.1c-0.8,0.6-1.8,0.8-2.8,0.5c-0.5-0.2-0.8-1.8-0.6-2.6c0.3-1.4,1.3-2.6,1.6-4c0.1-0.8-0.7-1.7-1.2-2.6
			c-1.7,2.7-2.7,5-4.3,6.7c-2.9,3.1-6.2,1.8-8.2-0.8c-0.7-0.9-0.2-2.6-0.2-3.9c1-0.1,2.1-0.1,3.1,0c0.7,0.2,1.4,0.5,2,0.9
			c0.2-0.5,0.7-1.1,0.6-1.4c-0.3-0.9-0.8-1.7-1.6-2.3c-2.3-1.1-5.7,0.4-7.2,3s0.1,4.5,1.9,6c4.9,3.9,4.9,3.8,1.3,9
			c-0.3,0.4-0.6,0.9-0.9,1.3c-5.7,7.7-11.5,15.4-17.1,23.2c-0.7,1-0.3,2.9,0,4.4c0.4,2.3,2.1,5,1.4,6.8c-2.5,6.6-4.4,13.2-2.2,20.4
			c0.2,0.8-0.6,2.4-1.4,3c-0.6,0.4-2.1,0-3-0.4c-2.5-1.3-4.2-3.8-4.3-6.6c-0.1-0.6-0.3-1.2-0.5-1.8c-0.5,0.8-0.8,1.7-0.8,2.7
			c-1.2,8.2,0.7,11.5,8.5,14.7c4,1.6,7.1,4.1,8.4,8.5c0.9,3.2,0.1,7.4-2.6,9.3c-2,1.5-4,1.1-5.4-0.9c-1-1.3-1.4-2.7,0.6-3.9
			c3.4-2,3.5-2.8,0.8-5.8c-2.2-2.5-7.4-3.4-9.3-1.6c-2.9,2.7-2.9,4.4-0.4,7.2l4-2.2c0.6,1.3,1.2,2.7,1.7,4c0.2,0.7,0.3,1.3,0.3,2
			c0.4,3.1,2,4.7,5.2,4.6c1.4,0,2.8,0.2,4.4,0.3c0,1,0,1.9-0.2,2.9c-2.9,12-1.6,23.6,3.2,34.8c3.3,7.8,7.4,15.1,14.3,20.3
			c1,0.6,2.1,1,3.3,1.2s2.4,0.6,3.5,1C53.7,239.7,55.5,241.1,57.4,242.3z M71.6,258c1.7,0.1,3,0.1,4.3,0.2c3.4,0.4,4.8,3,5.5,5.8
			c0.7,2.6-0.8,4.5-3.1,5.6c-0.9,0.3-1.9,0.1-2.7-0.5c-0.6-0.7-1-1.7-0.9-2.7c0.1-0.9,0.3-1.7,0.7-2.5c-0.5-0.1-1.3-0.4-1.5-0.2
			c-0.7,0.7-1.3,1.6-1.5,2.6c-0.2,2.9,0.7,5.4,3.6,6.5c2.4,0.9,4.6-0.9,6.2-4.1c0.9-1.7,2-3.4,4.5-1.6c3.9,2.8,8,5.1,11.9,7.8
			c5.8,4,12.1,7.4,16.5,13.2c0.3,0.4,2,0.3,2.7-0.1c3.7-1.9,7.2-2.8,11.3-0.7c2.3,1.2,5.2,1.5,7.9,1.8c2.8,0.3,5.7-0.1,8.6,0
			c1.3,0.2,2.6,0.4,3.9,0.8c-0.6,1.5-0.8,3.5-1.8,4.5c-1.7,1.5-4.1,2.4-6.5,3.7c2.4,0.6,4.5,1.9,6.1,1.5c4.9-1.3,9.2-3.5,10.8-9.2
			c2-7.3,9.5-11.3,15.2-7.9c1.6,1,2.7,2.6,3.1,4.4c0.1,1.1-1.7,2.9-3.1,3.5c-2,0.9-2.2-1.4-3.2-2.5c-0.7-0.7-2.7-1.3-3.1-0.9
			c-1.7,1.4-3.1,3.1-4,5.1c-1.8,4.5,1.6,8.5,6.2,7.6c0.7-0.1,1.3-0.6,1.7-1.2c0.2-0.5-0.2-1.3-0.6-1.9c-0.6-1-1.4-1.8-2.6-3.3
			c2.2-0.2,3.4-0.4,4.6-0.5c5-0.2,7.8-3.5,7.2-8.2c-0.1-0.7,1.2-2.2,1.8-2.1c2.1,0.1,4.2,1,6.4,1.2c13.1,1.1,25.7-0.5,37-7.8
			c2.3-1.5,4.9-2.5,6.8-4.4c3.2-3.1,7.6-5.4,7.6-10.9c0-1.3,1.5-2.5,2.2-3.9c0.6-1,1-2.1,1.6-3.3c-2.4,0.9-4.2,1.9-6,2.2
			c-4.2,0.7-7.9,3.3-9.9,7.1c-1.5,2.6-3.4,5-5.5,7.1c-6.2,6.3-14.1,8.8-22.6,9.8c-7.4,0.8-13.9-1.6-19.8-6.1
			c-9.1-6.9-16.9-5.5-24.9,2.4c-2.6,2.6-5.1,3.9-9,3.7c-6.6-0.4-13.3-0.6-19.5,2.6c-4.1,2.1-8,1.6-11.8-1
			c-6.6-4.5-13.1-9.3-20.1-13.3c-5.1-2.9-8.4-5.8-7.8-12.4c0.4-4.8-4.3-7.5-8.7-6c1.1,2.9,6.4,2.6,5.6,6.9
			C79.3,259,75,252.4,71.6,258z M257.1,235.5l1.4-0.1c0.3-0.9,0.5-1.9,0.9-2.8c1.2-3.1,4.4-5.6,7.3-4.9c1.5,0.4,3,2,4,3.3
			c0.4,0.6-0.2,2.9-0.4,2.9c-1.7,0-3.3-0.2-4.9-0.6l-1.1,1.5c2.9,3.2,6.1,2.2,8.7-0.4s0.8-4.6-1.1-6.4c-1.5-1.4-4.2-2.6-4.2-3.9
			c0-1.9,1.9-3.8,3-5.6c0.2-0.3,0.3-0.6,0.5-0.9c5.8-7.7,11.4-15.5,17.4-23c1.6-2.1,1.1-3.4-0.2-4.8c-2-1.9-2.5-4.9-1.3-7.4
			c2.9-6.5,4.3-13,2-20.1c-0.8-2.4,1-3.7,3.3-2.8c2.5,1,4.6,2.4,5,5.4c0.2,1,0.5,2,0.8,2.9c3.2-4.9,1.9-11.4-3-14.6
			c-0.4-0.3-0.9-0.5-1.4-0.8c-3.6-1.6-7.3-3.1-9.9-6.6c-2.9-3.9-2.5-10.6,1.1-12.8c2.2-1.4,4.1-0.7,5.4,1.3c1,1.7,0.6,2.9-1.6,3.7
			c-1.9,0.7-2.3,2.6-0.9,4.3c0.9,1.1,2,2.1,3.2,2.9c2.5,1.9,6.1,1.4,8-1.1c0.6-0.9,1-1.9,1.1-2.9c0.2-2-1.8-3.9-3.6-3.2v2.4
			c-3,0.4-3.6-1.4-3.8-3.5c-0.8-6.6-1.1-6.8-7.4-7.1c-1.1-0.3-2-1.1-2.4-2.2c-0.2-1.2-0.1-2.4,0.3-3.6c1.8-7.3,1.5-14.5,0-21.8
			c-1.8-8.7-5.7-16.5-10.8-23.6c-2.1-2.9-4.6-5.5-7.6-7.5c-2.4-1.6-6.1-0.9-8.2-3.7c-0.4-0.5-1.8-0.3-2.6-0.3c1.1,3.2,2,6.3,3.2,9.3
			c0.5,1.4,1.3,2.7,2.5,3.8c1.9,1.4,4.3,2.3,6.3,3.6c1.5,0.9,3.1,1.8,4,3.2c2.7,4.3,5.8,8.7,7.5,13.4c3.6,9.7,3.9,19.2-2.9,28
			c-4.5,5.9-6.5,12.6-3.2,19.6c1.6,3.3,4.8,5.9,7,8.9c0.8,1,1.7,2.5,1.5,3.6c-1.3,7.4,0.1,14.4,2.6,21.2c2,5.3,2.1,10.1-1.1,14.8
			c-4.9,7.2-9.7,14.3-14.4,21.6c-2.3,3.6-5,5.7-9.5,4.9c-3-0.6-4.9,1.5-6.7,3.4s-1.2,5.2,0.4,6c0.9-1.9,1.9-3.7,3.1-5.5
			c0.7-0.6,1.7-0.8,2.6-0.5c0.7,0.6,1.1,1.6,1.1,2.5s-1,1.7-1.1,2.7C256.9,232.9,257,234.2,257.1,235.5L257.1,235.5z M67.6,55.4
			c2.2-0.6,4.4-1.3,6.5-2.1c2.7-1.3,5.8-1.6,7.3-5c1.2-2.6,2.8-4.9,4.8-7c5.3-5.7,12.2-9.5,19.8-10.9c9.4-2,17.4-0.8,25,5.3
			c3,2.4,6.6,3.8,10.5,4.1c6.1,0.1,11.4-3,15.3-7.7c1.5-2,4.1-3.1,6.6-2.7c6.4,0.5,12.8,0.2,18.9-2.4c3.8-1.6,8.1-2.6,12.1-0.4
			c2.3,1.3,4.4,2.9,6.6,4.4c5.7,3.8,11.2,8,17.1,11.5c4,2.4,6.4,4.8,5.6,9.9c-0.5,3.1,2.5,6.9,5.6,7.5c1.1,0.2,2.5-0.6,3.7-0.9
			c-0.9-0.5-1.7-1-2.6-1.6c-1.3-0.9-2.4-2-3.4-3.2c-0.3-0.5,0.7-2.5,0.8-2.5c1.4,0.2,2.7,0.7,4,1.3c2,1,3.9,0.3,4.5-2.1l-2.3-0.2
			c-3.6-0.3-4.6-3.3-5.8-5.8s0.5-4.1,2.4-5c1-0.5,2.4-0.2,3.6-0.3c-0.1,1.1-0.2,2.2-0.3,3.3c-0.1,0.7-0.2,1.4-0.3,2
			c0.9,0,2.6,0.2,2.7,0c0.5-1.5,1.2-3.5,0.7-4.7c-0.8-1.7-2.5-3.6-4.1-4c-3.3-0.8-4.5,2.4-6,4.6s-2.9,2.6-5.1,0.7
			c-2.2-1.9-4.5-3.7-7-5.3c-6.7-4.4-13.6-8.5-19-14.6c-1.2-1.4-3-2.5-5.1-0.5c-2.4,2.2-5.9,2.6-8.7,1.1c-5.9-2.9-11.9-3-18.1-2.2
			c-1.1,0.1-2.8,0-3.2-0.6S160.5,17,161,16c0.6-1.2,1.5-2.1,2.6-2.8c1.8-0.8,3.7-1.5,5.6-2c-6.8-3.8-13.8-1.7-16.9,6.2
			c-1.2,3.1-3.7,5.9-6.1,8.3c-3.1,3.2-8.9,2.6-11.9-0.7c-1.3-1.5-1.2-4.9,0.5-6.1c1.9-1.2,3.3-0.6,4.4,1.7c0.9,1.8,2.7,3,4.4,0.7
			c1.7-2.1,2.9-4.4,3.8-6.9c0.6-2.3-1-4.3-3.4-5c-2.1-0.6-4.1-0.5-4.9,1.4l2.8,4.7c-1.6,0.2-2.4,0.3-3.3,0.5c-7,1.4-7.5,1.2-7.9,8
			c-0.1,2-0.8,2.9-2.8,2.5c-3.4-0.6-6.9-1.6-10.3-1.7c-4.6-0.1-9.5-0.3-13.9,0.8c-5.4,1.5-10.5,3.6-15.4,6.3
			c-4.6,2.4-9.3,5-12.8,8.7s-5.4,8.7-7.9,13.2C67.3,54.4,67.6,55.2,67.6,55.4z"/>
		<path fill="#FF050F" d="M510.2,183.7c1-2,2.2-3.7,2.7-5.6c1.7-7,3.1-14.2,4.8-21.2c0.3-1.1,1.4-2.1,2.2-3.1c1.5-1.7,3.1-3.4,5-5.4
			c0.5,2.9,1.1,5.3,1.3,7.8c0.6,10.1,0.9,20.2,1.5,30.3c0.5,7.7-6,13.2-12.2,15c-1.5,0.5-4.4-1-5.7-2.5c-4.4-5.3-8.2-11-12.3-16.4
			c-4.8-6.2-9.8-12.2-14.6-18.4c-6.3-8.1-12.5-16.2-18.7-24.5c-1.7-2.2-2.5-1.9-4.2,0c-3.8,4.3-7.9,8.2-12.3,11.9
			c-4.9,3.9-7.5,3.5-12.4-0.6c-0.4-0.3-0.8-0.7-1.6-1.4c-1.1,2.7-2.4,5.3-3.8,7.8c-2.4,4.1-5.1,8-8,11.7c-4.8,6-13,4.7-16.5-1.7
			c-2.2-4-4.5-7.9-6.8-11.9c-2.5,3.8-4.8,7.6-7.4,11.2c-3.4,4.7-11.1,6.6-17.4,4.6c-4-1.3-7.3-6.6-7.4-12.4c0-3.7,0.3-7.4,0.5-12
			l4.8,3.5c3.6-7.4,5.6-15.4,5.8-23.6c0.3-10.3-0.7-20.6-1.2-30.9c-0.1-1.8-0.9-3.6-1.3-5.5c-0.6-2.9,0.7-4.6,3.7-4.7
			c7-0.2,13.3,2,19.1,5.4c2.3,1.3,3.9,4.2,5.2,6.7c1,2,2.3,2,3.3,1c4.7-5,9.2-10.2,13.7-15.3c0.2-0.2,0.2-0.6,0.3-1.1
			c-4,0.9-7.9,1.7-11.7,2.7c-4.9,1.3-9.4,1-13.1-3.1c-0.6-0.6-1.3-1.2-2.1-1.6c-3.2-2.3-3.9-4.5-2.3-8.2c0.4-0.6,0.9-1.1,1.6-1.3
			c6.2-2.2,12.5-4.4,18.6-6.7c2-0.9,4-1.8,5.9-2.9c-3.1-5.3-6-10.4-9.2-15.5c-5.2-8.2-10.6-16.3-15.6-24.6c-0.7-1.2-0.1-3.6,0.5-5.2
			c0.2-0.6,2.2-0.9,3.4-0.8c6.5,0.5,10.1,4.8,12.9,10.1c4.7,9,9.3,18,14,27c3.6,6.8,3.8,7,10.9,5.1c3.5-1.1,6.8-2.6,9.7-4.7
			c3.6-2.4,6.1-2.1,10.4,2.1c3.1,3,3.4,6,1,9.1c-2.8,3.6-5.7,7-8.4,10.6c-3.7,5.1-5.5,10.5-1.9,16.5c2.4,4,4.5,8.1,6.8,12.2
			s4.7,8,7.5,12.7c2-3.5,4.1-6.5,5.6-9.7c3.1-6.7,6.7-13.2,7.4-20.8c0.2-2.8,3.2-3.3,5.6-1.4c3.7,3,3.4,7,2.8,11
			c-1.8,11.2-7.4,20.9-12,31.1c-0.5,1.2-0.5,2.6,0.1,3.7c13.3,17.7,26.8,35.3,40.3,52.9C509.4,183.1,509.8,183.4,510.2,183.7z
			 M425.8,104c-4.8,1-6.8,4-9.4,6.2c-3.1,2.7-6.4,5.2-9.2,8.2c-1.6,1.7-3.3,3.9-3.7,6.1c-1.2,6.5-1.7,13.2-2.5,19.8
			c-0.1,0.8,0,2.1,0.5,2.5c2.3,2,4.7,3.9,7.2,5.5c1.4,0.9,2.8,0.6,3.5-1.5c3.9-11.4,8.2-22.6,11.9-34
			C425.4,112.9,425.2,108.7,425.8,104z M445,106.9l-1.1,0.4c-2.8,12.3-8,24-8.6,37.6c7.7-5.5,13.8-11.2,17.7-18.9
			c0.5-1,1-2.5,0.6-3.3C450.9,117.4,447.9,112.2,445,106.9z"/>
		<path fill="#FF050F" d="M888.5,105.5c-2.5,0.3-4.5,0.7-6.6,0.9c-2.2,0.3-4.4,0.5-6.6,0.4c-2.4-0.2-4.4-1.2-4.9-4
			c-0.2-1.4-1-2.7-1.4-4c-0.2-1.1-0.6-2.5-0.1-3.2c2.8-4,4.8-8.6,9.7-11c-1.9,3.3-3.8,6.5-5.7,9.8l0.8,1.1c2.1-0.5,4.2-0.8,6.2-1.4
			c9.8-2.8,19.6-5.6,29.4-8.5c4.4-1.3,8.7-2.2,12.9,0.2c1.3,0.8,2.8,2.9,2.6,4.2c-0.3,2.2-1.4,5.5-3,6.1c-5.2,2-10.8,3-16.2,4.4
			c-3.7,1-7.5,1.9-11.1,3.1c-0.9,0.6-1.5,1.7-1.6,2.8c0.2,4.2,0.6,8.4,1,13.5c3.5-1.7,6.3-3.2,9.2-4.5c2.3-1.1,4.5-2.6,6.9-2.9
			c5.7-0.7,8.4,3.5,6,8.9c-4,8.9-8.2,17.6-11.6,26.7c-1.9,5.3-3,10.8-3.5,16.4c-0.5,5.1,3.1,8.3,8,9.5c6.9,1.7,14.1,2.1,21.1,1.2
			c5.8-0.5,11.3-3.1,15.5-7.1c1.2-1.4,1.8-3.1,1.8-4.9c0.3-5.9,0.3-11.8,0.4-17.7s0.3-11.9,0.5-17.9l1.1-0.1c1,2.5,2.1,4.9,3,7.4
			c3.2,9.3,6.6,18.4,9.2,27.9c0.9,3.3-0.3,7.3-1,10.9c-0.2,1.1-1.8,2.2-3,2.7c-6.4,2.9-13.3,3.7-20.2,4.6c-11,1.4-22,0.8-32.9-0.6
			c-6.3-0.8-11-6.2-11.8-12.9c-1.2-9.4,1.4-18.2,4.5-26.9c1.3-3.5,2.9-7,4.3-10.5c0.5-1.3,0.9-2.6,1.5-4.4c-3.1,1.2-5.7,1.8-7.9,3.1
			c-1.8,1.1-3.3,2.7-4.2,4.6c-4.9,10.2-9.4,20.6-14.4,30.8c-1.6,3.2-4.3,5.9-6.8,8.5c-3.3,3.5-4.7,3.4-8.5,0.4
			c-0.6,2.5-1.1,4.9-1.8,7.2c-0.5,1.8-1.3,3.5-2.3,5c-1.9,2.3-4.3,4.2-7.4,2s-6-4.2-8.3-6.8c-3.9-4.4-6.6-9.8-7.8-15.6
			c1.6,0.8,2.6,1.2,3.4,1.8c1.6,1,3.1,2.1,4.7,3c2.9,1.5,5.3,0.3,5.9-2.9c0.5-3,0.7-6.2,0.9-9.3c0.4-6.1,0.8-12.2,1.2-18.3
			c0-0.8-0.2-1.6-0.7-2.3c-0.3,0.9-0.6,1.9-0.9,2.9c-1.5,4.7-4.1,5.6-7.8,2.2c-1.8-1.6-3-3.9-4.8-6.4c3.8-0.6,4-2.5,3-4.9
			c-0.8-1.9-1.4-3.9-2-5.9c-0.9-2.7-1.8-5.4-2.8-8.1c-0.4-1.3-1.2-2.4-2.3-3.1c-1,7.6-1.8,15.3-2.9,22.9c-1,6.4-2,12.9-3.4,19.2
			c-1.2,5.7-3,11.3-4.5,16.9s-5.4,8-10.9,6.2c-0.8-0.2-1.6-2.4-1.3-3.3c2.4-8.3,5.5-16.4,7.4-24.7c2.5-10.9,4.1-21.9,6.3-34.1
			c-3.3,1.2-5.7,1.9-8,2.9c-7.7,3.2-15.3,6.5-23.9,4.6c-0.5-0.1-1.2,0.1-1.6-0.2c-2.1-1.6-5.9-2-5.5-5.4s4-3.5,6.4-3.6
			c8.6-0.3,16.2-3.9,24.1-6.4c2-0.8,4.2-1.3,6.3-1.7c1.6,0,2.9-1.3,2.9-2.8V104c0.5-7.4,1-14.8,1.4-22.3c-1-0.1-1.9-0.1-2.9,0
			c-4.9,0.9-8.6-1.2-10.1-5.8c-0.7-2.2,0.1-3.8,1.7-5.3c7.8-7.8,15.6-15.6,23.1-23.6c4.8-5.1,9.2-10.6,13.7-16l1.6-1.9
			c10,11.5,4.7,20.5-4.7,28.9l0.8,0.4c1.1-0.8,2.2-1.5,3.3-2.3c3.9-3,7.4-3.3,11-1c3,1.9,4.6,6.7,3.7,10.6c-1.5,6.7-3.3,13.3-4.4,20
			c-0.6,3.7-0.1,7.5-0.1,11.2c1.8,0.6,3.5,1.2,5.3,1.9c1.6,0.8,1.8,1.8,0.1,2.8c-0.2,0.1-0.4,0.2-0.6,0.3c-5.3,1.3-5.2,5.2-5.2,9.7
			c0.2,15.3,0,30.5,0.2,45.8c0,1.7,1,3.4,1.5,5.2c1.5-1.1,3.5-1.8,4.3-3.2c4.3-8.1,8.9-16.2,12.3-24.8
			C882.7,125.5,885.3,115.7,888.5,105.5z M840.5,101.5l0.6,0.7c1.4-0.5,2.9-0.9,4.4-1.1c4.5-0.3,5.1-3.3,5.2-7
			c0.3-6.6,0.9-13.1,1.3-19.6c0.1-2,0.5-4.3-0.3-5.9c-0.4-0.8-3.2-0.5-4.8-0.7c-0.1,0-0.2-0.1-0.3-0.1c-4.7-2-8.8-1.4-11.9,3
			c-0.3,0.4-0.9,0.7-1.2,1.1c-1.3,1.6-2.6,3.3-3.8,4.9c2,0.7,4.1,1.9,6.2,2c4.7,0.2,8.2,2.6,11.3,5.6c4,3.7,3.3,8.8-1,12.1
			C844,98,842.3,99.8,840.5,101.5L840.5,101.5z M849.8,130.9v-22.6l-11.4,3C843,117.7,848,123.3,849.8,130.9L849.8,130.9z
			 M832.5,103.7c3.7-1.9,6.1-5.7,6.1-9.9c0.1-3.6-3.1-5.6-6.1-8.4V103.7z"/>
		<path fill="#FF050F" d="M646.3,85.7c-2,0.1-3.9,0.1-5.9-0.1c-1.4-0.2-2.6-1.1-4-1.6c-1.1-0.4-2.3-1-3.3-0.7
			c-12.5,3.8-25,7.7-37.5,11.5c-3.5,1.1-7,2-10.5,2.8c-3.9,0.9-7.9-0.9-9.8-4.4c-1.2-2.2-0.6-3.9,1.5-4.6c5-1.6,10.1-3.1,15.2-4.3
			c6-1.4,12.1-2.4,18.2-3.6c5.1-1,10.2-1.9,15.2-3.1c5.5-1.3,11.1-2.8,16.5-4.5c1.3-0.5,2.3-1.6,2.8-3c0.8-3.4,1.1-7,1.7-11.2
			c-6.4,2-11.7,2.9-17.3,1.5c-3.7-0.9-6.9-3.2-9-6.4c-1.3-1.8-0.5-2.8,1.7-3c7.2-0.9,14.5-1.7,21.7-2.8c1.4-0.3,2.5-1.3,3-2.7
			c2-12.2,3.7-24.5,5.6-36.8c0.4-1.5,1.5-2.6,2.9-3.1c1-0.2,2.8,0.8,3.4,1.8c0.8,1.5,1.1,3.1,1,4.8c-0.1,8.4-0.4,16.9-0.7,25.3
			c0,1.1,0,2.2,0,3.3c5.4-0.3,5.6-0.9,3.2-9.8l13,8.4c2.2-4.5,4.2-8.8,6.3-13.1c0.2-0.7,0.6-1.4,1.1-2c0.6-0.5,1.3-0.7,2.1-0.5
			c0.7,0.3,1.1,1,1.2,1.7c0.1,1.4-0.2,2.9-0.7,4.2c-4,9.1-8.1,18.2-12.1,27.3c-1.6,3.7-3,7.4-4.7,11.5c1.4,0.3,2.1,0.4,2.8,0.5
			c2.6,0.4,3,2.4,1.8,3.9c-1.2,1.6-3.4,2.5-5.2,3.6c-1.7,1-4,1.3-5.1,2.6c-4.6,5.6-8.8,11.4-13.1,17.2c-0.3,0.7-0.6,1.5-0.7,2.3
			c4.9-1,9.3-2.3,12-6.4c2-3,4.8-2.3,7.4-2.2s3.6,2.1,3.7,4c0.5,7.9,0.9,15.9,1.1,23.9c-0.1,3.6-0.4,7.1-0.9,10.6
			c-0.8,7.1-1.7,14.3-2.6,21.4c0,0.2-0.1,0.4-0.1,0.7c-1.2,5.2-4.1,8.9-6.8,8.9c-3.7,0-9.6-5.2-10.7-9.2c-0.4-1.4-1-2.8-1.5-4.3
			c-4.2,3.5-8,6.8-11.9,10c-1.7,1.4-4.3,2.9-5.8,0.6c-1-1.5-0.6-4.5,0.2-6.4c1.2-2.5,1.9-4.2,0.8-7.3c-1.5-4-0.8-8.8-1.1-13.2
			c-0.2-2.4-0.6-4.8-1-8.3c-3.3,4.6-6.2,8.4-8.9,12.4c-10.2,14.7-20.2,29.5-30.6,44.1c-4,5.6-9.6,9.5-16.9,9.9c-1,0.1-2,0-3-0.2
			c-3.2-1-3.5-2.4-1.3-4.8c17.8-19.1,33.9-39.7,49.5-60.6c2.7-3.6,5.5-7.2,7.8-11.1c1.2-2,1.6-4.5,2.2-6.8c0.3-1.3,0.2-2.7,0.5-3.9
			c1.4-5.6,1.5-5.5,7.1-5.7c1.5-0.2,2.8-0.9,3.8-2c1.1-1.4,2.1-2.9,2.9-4.4C645.3,87.4,645.6,86.9,646.3,85.7z M669.7,47.2
			c-2.5,0.5-4.3,0.5-5.9,1.2c-2,0.8-5.1,1.8-5.4,3.1c-1,5.9-1.2,11.9-1.7,17.8l1.2,0.4C661.9,62.5,668.4,56.6,669.7,47.2L669.7,47.2
			z M659,116.2V98.4c-3.9,2.4-7,4-9.8,6.1c-2.2,1.6-1.6,5.2,0.8,6.6C652.8,112.6,655.7,114.3,659,116.2z M647.8,136.9
			c6.6-2.6,10.3-8.1,9-12.3l-4.9,3.8c2-6.5,0.8-7.9-5.5-6.8C646.9,126.6,647.3,131.6,647.8,136.9L647.8,136.9L647.8,136.9z"/>
		<path fill="#FF050F" d="M679.2,112l4.5,6.2l1.2-0.8c0.2-1.3,0.4-2.6,0.5-3.8c0-9.9,0.3-19.8-0.2-29.8c-0.4-9.4-1.6-18.8-2.3-28.1
			c-0.3-3.5,2.8-4.3,5-5.2c0.9-0.4,3.4,1.1,4,2.2c1,2.1,2.3,2.7,4.2,2.2c4.2-1,8.3-2.2,12.4-3.3c5-1.3,10-2.8,15.1-3.5
			c2.2-0.3,4.9,1.1,6.7,2.6c0.6,0.5-0.5,3.9-1.5,5.5c-3.9,6-8.2,11.7-12.3,17.6c-2.2,3.1-4.2,6.3-6.3,9.4c-1.3,1.9-1.4,3,1.2,4.1
			c6.1,2.7,12.3,5.3,17.8,9c9.5,6.3,10.9,17.3,6.5,26.5c-3.3,6.9-9.4,10.4-17.1,11.3c-7.5,0.9-14.2-1.6-20.7-4.7
			c-0.5-0.2-1-0.5-1.5-0.6c-0.4-0.1-0.8-0.2-1.2-0.2c-0.3,6.4-0.6,12.8-0.8,19.2c-0.3,13.6-0.5,27.2-0.9,40.7c-0.2,8-0.8,16-1.3,24
			c-0.1,1.4-1,2.8-1.5,4.1h-1.1c-0.6-1.3-1-2.7-1.2-4.1c-2.3-25.4-3.2-50.9-2.7-76.4c0.2-7.6-0.7-14.8-6-20.7
			c-0.5-0.7-0.9-1.4-1.2-2.2L679.2,112z M694.6,91c-1.2,9.3-1.2,18.7,0,28c0.3,2.2,0.5,4.6,3.3,4.9c6.2,0.7,12.5,1.7,18.8,1.5
			c3.8-0.1,7.3-2.3,9.2-5.6c4.4-7.6,2.3-17-5.3-23.4c-5.1-4.2-10.7-6.8-17.3-4.7C700.2,92.5,697.5,92.8,694.6,91L694.6,91L694.6,91z
			 M693.6,83l1.1,0.7c2.5-2.1,5.3-4,7.3-6.5c3.9-4.8,7.4-9.8,10.9-14.9c2.4-3.5,4.5-7.3,7-11.6c-1.1,0-2.3,0.2-3.4,0.4
			c-5.5,2-10.9,4.5-16.6,6.2c-4.1,1.2-6,3.9-6.3,7.5C693.3,71,693.6,77,693.6,83L693.6,83L693.6,83z"/>
		<path fill="#FF050F" d="M1091,106.6l8.1-8.8c-3.2-1-5.9-1.7-8.4-2.7c-0.9-0.5-1.6-1.4-1.8-2.4c-0.4-3-0.5-6-0.7-8.9
			c-0.2-5.3-0.7-10.6-0.5-15.9c0.1-1.9,1.6-3.8,2.6-5.9c-7.2,2.1-14.7,4.3-22.2,6.3c-12.1,3.2-23.7,8.3-34.2,15
			c-6.3,4-12,8.7-16.4,14.8c-2.5,3.9-7.1,6-11.7,5.2c-3.4-0.4-4.5-1.2-3.4-4.3c1.6-4.8,3.7-9.4,6.2-13.8
			c5.6-9.4,11.8-18.4,20.4-25.4c2.3-1.9,4.7-4.2,8.6-3.1c-0.3,6.1-4.6,10.7-6.7,16.9c5.4-2.1,10.1-4,15-5.6
			c6.7-2.2,13.3-4.4,20.1-6.1c7.9-2.1,15.9-3.8,23.9-5c12-1.6,24.1-2.8,36.2-1.1c5,0.7,10.1,1.2,15.2,2.1c6.2,1,10.7,5,14.7,9.5
			c0.5,0.6-0.4,3.5-1.4,4.1c-3.7,2.1-7.6,3.8-11.6,5c-6.4,1.7-13,2.7-19.5,3.8c-4.7,0.8-9.5,1-14.2,1.7c-2.7,0.3-5.3,0.9-7.9,1.6
			c-0.7,0.2-1.2,2-1.1,3c0.3,0.9,1,1.6,1.9,1.9c3.8,0.2,7.6,0,11.3,0.2c1.3,0.1,3.5,0.9,3.7,1.7c0.3,1.8-0.1,3.6-1,5.1
			c-0.9,1.3-2.7,2.2-4.3,2.9c-5.9,2.8-11.9,5.6-17.8,8.3c-1,0.4-2,0.7-3,0.9L1091,106.6z M1141.5,66.4c-12.3-5.5-25.2-6.2-39.1-6.2
			c5.2,6.5-0.6,12.5-0.1,19.3C1116.6,77.9,1129.6,74.3,1141.5,66.4z"/>
		<path fill="#FF050F" d="M1087,136c-6.4,1.1-12.3,2.5-18.2,3c-2.4,0-4.8-1.1-6.3-3.1c-0.8-1.2,0.2-4.8,1.5-6.1
			c5.6-5.6,11.5-10.8,17.4-16.1c1.7-1.6,3.7-2.9,5.5-4.3l0.9,0.6c-0.4,1.4-0.9,2.7-1.6,4c-2.6,3.7-5.5,7.2-8.2,10.8
			c-0.7,1.1-1.3,2.3-1.8,3.5c5.2-1.7,10.1-3,14.8-4.8c4-1.4,10.5,0.3,13.5,4c2.3,2.9,1.8,7.7-1,11.7c-2.6,3.7-4.7,7.7-7.3,11.4
			c-2,2.6-4.2,5.2-6.6,7.5c-1.2,1.4-2.7,2.6-4.6,4.4c1.8,0,2.9,0.1,3.9,0c6-0.6,11.9-1.3,17.8-2c6.9-0.9,13.2,4,14.1,10.9
			c0.3,2.4-0.1,4.8-1.1,6.9c-2.5-0.6-5.2-1.7-7.8-1.7c-9.1,0-18.2,0.3-27.2,0.8c-5.3,0.3-10.6,1.1-15.8,1.8s-10.7,1.6-16.1,2.4
			c-1.9,0.4-3.9,0.6-5.9,0.6c-1.2-0.1-2.2-0.8-2.9-1.8c-1.5-2.8-2.7-5.8-3.9-8.8c-0.8-2-0.3-3,2.2-3.1c7.7-0.3,15.3-0.7,22.9-1.4
			c3-0.3,6-1.5,8.9-2.5c1-0.4,1.8-1.2,2.2-2.2C1079.9,153.7,1083.4,144.9,1087,136z"/>
		<path fill="#FF050F" d="M1047.2,265.8c0.3-5.2,0.6-10.3,0.8-15.5c0.2-5.3,0.4-10.7,0.8-16c0.1-0.9,1.1-2.4,1.8-2.5
			c3.5-0.3,7-0.1,11-0.1c-1,17.8-1.9,34.9-2.9,52.1c-5.4,0-10.3-0.1-15.3,0c-2.5,0.1-3.3-1.1-4.2-3.2c-4.7-11.8-9.6-23.4-15.2-35.1
			c-0.7,12.6-1.3,25.2-2,38c-3.7,0.2-7.1,0.5-10.5,0.5c-1-0.3-1.8-1.2-2-2.3c0.3-8.6,0.8-17.1,1.3-25.6c0.3-6.9,0.8-13.8,0.8-20.7
			c0-3.1,1.1-4.1,4.1-3.9c4.4,0.3,8.9,0.3,13.3,0.2c2.2,0,3.2,0.8,4,2.7c4,9.8,8,19.6,12.1,29.3c0.3,0.7,0.7,1.4,1,2L1047.2,265.8z"
			/>
		<path fill="#FF050F" d="M581.5,283.8c-5.7,0-11,0.1-16.3-0.1c-0.9,0-2.2-1.3-2.6-2.3c-4.6-10.9-9.1-21.8-13.6-32.8
			c-0.4-1.1-1.1-2.1-2.1-2.9c-0.7,12.6-1.3,25.1-2,37.9H533c0-6.2-0.2-12.1,0-18.1c0.3-8.5,0.9-16.9,1.3-25.3s0.4-8.4,8.8-8.4h0.3
			c3.7,0.2,8.3-0.9,11,0.9s3.3,6.2,4.7,9.6c3,7.1,5.8,14.3,8.7,21.4c0.6,1.1,1.2,2.1,1.9,3.1c0.3-2,0.5-3.4,0.6-4.9
			c0.5-9,0.9-18,1.3-27c0.1-2.5,0.8-3.7,3.6-3.2c2.1,0.2,4.2,0.1,6.3-0.1c2.2-0.2,3,0.9,2.9,3c-0.7,13.7-1.3,27.3-2.1,41
			C582.2,278.2,581.8,280.9,581.5,283.8z"/>
		<path fill="#FF050F" d="M670.6,283.8c-4.2,0-8.5-0.1-12.7,0c-2.5,0.1-3.4-0.6-3.2-3.1c0.8-11.5,1.4-23,2-34.6
			c0.2-3.9,0.3-7.8,0.7-11.7c0.1-0.9,1.4-2.3,2.2-2.3c9.8,0.1,19.5,0.2,29.3,0.6c8.2,0.3,13,5.4,15.2,12.7c3.2,10.8,2.7,21.3-5,30.4
			c-3.9,4.7-9.7,7.5-15.8,7.8c-4.2,0.2-8.5,0-12.7,0V283.8z M667.8,274.3c4,0,7.3-0.1,10.7,0c4.7,0.1,8.3-2,11.2-5.4
			c4.8-5.8,4.6-12.6,3.1-19.5c-0.7-3.3-2.7-6.3-5.6-6.8c-5.7-1.1-11.6-1-17.8-1.4C668.8,252.6,668.3,263.2,667.8,274.3L667.8,274.3z
			"/>
		<path fill="#FF050F" d="M470.1,283.7H458v-21.3h-24c-0.5,7.1-1,14.1-1.5,21.4c-3.6,0-7.1,0.1-10.6-0.1c-1-0.4-1.6-1.3-1.8-2.3
			c0.7-15.6,1.6-31.3,2.5-46.9c0.1-2,0.8-3,3.1-2.8s4.7,0,7,0c1.9,0,2.9,0.7,2.7,2.8c-0.3,4.2-0.6,8.4-0.8,12.6
			c-0.1,1.6,0,3.2,0,5.1c7.9,0,15.2,0.1,22.5-0.1c0.8,0,2.1-1.5,2.2-2.4c0.5-5,0.7-10,0.8-15c0-2.3,0.8-3.2,3.2-3.1
			c3.1,0.2,6.2,0.1,9.8,0.1C472,249.4,471.1,266.5,470.1,283.7z"/>
		<path fill="#FF050F" d="M642.7,242.6c-5.1-0.9-9.7-2.1-14.3-2.3c-4.4-0.1-8.7,0.5-12.9,1.8c-7.6,2.3-9.8,10.9-9.3,17.7
			c1,13.5,11.7,15.8,21.8,15c4.8-0.4,4.8-1,5.2-8.5c0-1.3-0.2-2.6-0.4-3.9h-8.4c0-2.4,0.1-4.8,0.5-7.2c0.4-1,1.3-1.8,2.4-2
			c5.2-0.2,10.5-0.2,15.7,0c0.8,0,2.3,1.8,2.3,2.7c-0.4,8-1.2,15.9-1.8,23.9c-0.2,2.4-1.2,3.8-3.6,3.9c-7.1,0.5-14.2,1.3-21.2,1.3
			c-9-0.1-16.6-3.6-21-11.9c-6-11.4-4-30.6,9.3-38c6.5-3.6,13.5-4.1,20.5-3.9c4.3,0.2,8.6,0.7,12.8,1.5c1.1,0.4,1.9,1.2,2.3,2.3
			C642.7,237.4,642.8,240,642.7,242.6z"/>
		<path fill="#FF050F" d="M899.1,283.6h-12.5c0.7-16.4,1.5-32.6,2.3-48.8c0-0.9,1.3-2.6,2.1-2.6c9.5,0,18.9,0.1,28.3,0.4
			c6.4,0.2,9.4,7.2,9.6,12.5c0.3,6.8-3.2,11.4-8.9,14.2c-2.8,1.4-3.4,2.5-1.9,5.5c3,6,5.5,12.2,8.6,19c-4.1,0-7.7,0.1-11.3-0.1
			c-1-0.3-1.9-1-2.3-2c-3.6-8.3-7-16.6-10.5-24.9c-0.3-0.9-0.4-1.8-0.5-2.8c2.9,0,5.5,0.2,8,0c4.5-0.4,7.2-3.4,7-7.6
			c-0.1-3.5-2-5.5-5.6-5.6c-3.3-0.1-6.7,0-10.3,0C900.5,255.1,899.8,269.3,899.1,283.6z"/>
		<path fill="#FF050F" d="M521.8,261.2c-7.5,0-14.4,0-21.4,0c-4.8,0-4.8,0-4.8,4.8c0,2.6,0,5.3,0,8.2h25.1v9.5h-38.4
			c0-3.7-0.1-7.4,0-11.1c0.3-7.7,0.8-15.3,1.1-23c0.3-5.1,0.4-10.2,1-15.3c0.4-1.2,1.4-2.1,2.7-2.4c11-0.1,22,0.1,33-0.1
			c3-0.1,3.4,1.2,3.2,3.5c-0.6,6.2-0.6,6.2-7.2,6.2c-5.2,0-10.5,0.1-15.7,0c-2.3,0-3.8,0.3-3.7,3.2c0.1,2.1-0.4,4.1-0.7,6.6h26.2
			C522.1,254.7,522,257.7,521.8,261.2z"/>
		<path fill="#FF050F" d="M1109.7,274.1c-0.2,3.5-0.3,6.5-0.5,9.7h-38.6c0.3-8.4,0.7-16.5,1-24.6c0.4-7.5,0.9-15.1,1.2-22.6
			c0.2-4.5,0-4.5,4.4-4.5c10.5-0.1,20.9-0.1,31.4-0.3c2.6-0.1,3.6,0.9,3.2,3.2c-0.9,7.3,1.4,6.5-6.8,6.5c-6.3,0-12.7,0-19.5,0
			c-0.3,3.3-0.5,6.4-0.8,10h26.2c-0.2,3.3-0.4,6.2-0.6,9.8h-25.9c-0.2,4.6-0.5,8.5-0.7,12.8L1109.7,274.1z"/>
		<path fill="#FF050F" d="M839.3,246c-2.3,3.3-4.6,6.6-6.9,9.9c-6.1,8.9-12.1,17.8-18.2,26.6c-0.5,0.7-1.5,1.7-2.2,1.6
			c-4.2,0-8.4-0.3-13-0.6c0.3-0.8,0.6-1.7,1-2.4c10.8-15.8,21.5-31.6,32.4-47.3c0.9-1.1,2.3-1.7,3.7-1.8c4.8-0.2,9.6,0,14.3-0.1
			c2.2,0,2.8,0.9,2.7,3c-0.7,13.7-1.2,27.3-1.8,41c-0.1,2.4-0.4,4.9-0.7,7.6c-3.6,0.2-7.2,0.6-10.8,0.5c-0.7,0-1.8-2.1-1.8-3.2
			c0.5-10.5,1.2-21,1.8-31.5c0.1-1,0.1-1.9,0.2-2.9L839.3,246z"/>
		<path fill="#FF050F" d="M719,231.6h12.1c-0.3,4.9-0.6,9.7-0.8,14.4c-0.3,7-0.7,14-0.5,21c0.2,6.3,5.3,8.3,12,7.7
			c9.5-0.8,10.3-6.6,10.5-13.3c0.4-9,0.4-18,0.4-27.1c0-2.4,0.7-3.2,3-3c3,0.1,6,0,9.2,0c0,2.1,0.1,3.9,0,5.8
			c-0.3,8.7-0.9,17.3-1,26c-0.2,12.5-4.7,18.9-17.5,20.8c-7.9,1.2-15.5,0.9-22.5-3.3c-4.3-2.6-6.3-7-6.2-11.8
			C717.9,256.6,718.5,244.3,719,231.6z"/>
		<path fill="#FF050F" d="M410.1,273.1c-0.4,3.2-0.6,6.4-1.1,9.5c-0.1,0.5-1,1.2-1.6,1.3c-10.6,2-21.2,2.4-31-3.2
			c-5-2.9-8.4-7.9-9.2-13.6c-1.3-6.6-0.9-13.3,1.2-19.7c2.7-7.8,8.3-12.3,16-14.7s15.8-1.4,23.8-1.2c0.5,0,1.5,0.1,1.6,0.3
			c0.4,3.3,0.6,6.6,0.9,9.8c-0.7,0.1-1.4,0.1-2.1,0c-4.1-0.6-8.3-1.9-12.4-1.8c-16.2,0.6-21.7,14.1-16.2,26.8
			c2.1,4.8,6.7,7.5,12,7.5c5.5,0.1,10.9-0.7,16.4-1.1C408.6,273,409,273.1,410.1,273.1z"/>
		<path fill="#FF050F" d="M1121.6,273.1c6.2,0.9,11.9,2.1,17.7,2.4c1.8,0.1,4.4-1.7,5.4-3.4c0.6-1-1-3.9-2.3-5.2
			c-4.6-4.3-9.7-8.2-14.4-12.5c-8.4-7.5-6.5-18.9,4-22.6c3.1-1.1,6.8-0.7,10.3-0.8c2.8,0,5.6,0.3,8.3,0.3c2.3,0,3.3,1,3.2,3.2
			s0,4.2,0,6.5c-4.2-0.6-8.1-1.2-12.1-1.6c-1.4-0.1-2.9,0.2-4.2,0.9c-3.5,1.6-4,4.7-1.1,7.3c3.5,3.1,7.3,6,10.8,9.2
			c2.7,2.4,5.6,4.9,7.5,7.9c4.4,6.9,0.3,16.5-7.6,18.9c-7.4,2.3-14.6,1.5-21.9-0.2c-1.8-0.4-3.2-1.5-3.3-3.6
			C1121.9,277.4,1121.7,274.9,1121.6,273.1z"/>
		<path fill="#FF050F" d="M938.9,283.7c0.8-16.5,1.6-32.5,2.2-48.5c0.1-2.7,1.1-3.6,3.6-3.5c1.9,0.1,3.8,0.2,5.7,0.1
			c2.7-0.2,3.8,0.6,3.6,3.6c-0.8,11.9-1.3,23.7-2,35.6c0,1,0,2,0,3.4c6.2,0,12.3,0.1,18.4,0c2.9-0.1,3.8,0.9,3.2,3.8
			c-0.3,1.9-0.5,3.8-0.6,5.7L938.9,283.7z"/>
		<path fill="#FF050F" d="M997.8,283.8H985c0.3-4.5,0.5-8.7,0.8-12.9c0.7-11.9,1.3-23.7,1.9-35.6c0.1-2.5,0.5-4,3.7-3.4
			c2.1,0.4,4.4-0.1,6.6-0.2s2.6,1,2.5,2.9c-0.7,12-1.3,23.9-2,35.9C998.3,274.8,998,279.1,997.8,283.8z"/>
		<path fill="#FF050F" d="M874.8,283.7h-12.6c0-1.5-0.1-2.9,0-4.3c0.4-5.5,0.9-11,1.2-16.5c0.5-9.6,0.9-19.1,1.4-28.6
			c0.1-0.9,1.2-2.4,1.9-2.4c2.8-0.1,5.5-0.1,8.3,0c1.8,0,2.6,0.9,2.5,2.7c-0.7,14.5-1.4,29.1-2.2,43.6
			C875.3,279.9,875,281.6,874.8,283.7z"/>
		<path fill="#FF050F" d="M897.3,63.5c-7.5-3.5-14.6-5.4-19.6-12.3c2.6-0.8,5.1-2.2,7.6-2.1c7.3,0.3,14.5,1,21.8,1.9
			c2.1,0.4,4,1.3,5.7,2.5c2.8,1.7,4.3,5.4,3.2,8.2c-1.1,2.8-3.7,3.7-6.6,4.1c-2.5,0.4-4.8,1.3-6.9,2.7c-6.6,4.1-12.9,8.5-19.4,12.7
			c-0.6,0.3-1.3,0.5-2,0.6c-0.2-0.3-0.5-0.6-0.7-0.8C885.8,75.3,891.2,69.7,897.3,63.5z"/>
		<path fill="#FF050F" d="M472.7,20.9c11.4-0.6,20.5,6,22.4,15c0.8,3.3,0.9,6.7,0.3,10.1c-1,4.7-4.3,5.6-8.9,4.2
			c-4.4-1.3-5.9-4.9-8.3-7.9c-4.3-5.2-8.6-10.4-13-15.4c-1.9-2.2-1.9-3.1,0.9-4.1C468.3,21.9,470.5,21.5,472.7,20.9z"/>
		<path fill="#FF050F" d="M1068.3,94c1.7-1.8,2.8-3,3.9-4.2l0.5,0.2c-1.2,3.8-2.3,7.6-3.6,11.3s-2.1,7.4-3.9,10.8
			c-1.3,2.1-3.1,3.9-5.3,5.2c-2.6,1.7-6.7-1.2-6.6-4.7c0.1-2.8,0.6-5.5,1.5-8.1c2.9-9.6,6.1-19.2,9.2-28.7c0.4-1,0.9-1.9,1.5-2.8
			C1069.7,79.8,1068.5,86.6,1068.3,94z"/>
		<path fill="#FF050F" d="M1076.6,13.7c7.5,0,11.8,4.8,16.8,8.1c1.9,1.3,3.8,2.6,5.5,4.1c5.1,4.1,7.1,14.3-0.3,17.5
			c-6,2.6-12.4,3-18.9,3c3-1.8,6.2-3.4,9.1-5.4c3.5-2.6,3.6-4.2,1-7.8c-3.4-4.7-7-9.4-10.3-14.2
			C1078.4,17.2,1077.5,15.5,1076.6,13.7z"/>
	</g>
</g>
</svg>
