<?xml version="1.0" encoding="utf-8"?>
<!-- Generator: Adobe Illustrator 23.0.5, SVG Export Plug-In . SVG Version: 6.00 Build 0)  -->
<svg version="1.1" id="Слой_1" xmlns="http://www.w3.org/2000/svg" xmlns:xlink="http://www.w3.org/1999/xlink" x="0px" y="0px"
	 width="191.715px" height="78.952px" viewBox="0 0 191.715 78.952" enable-background="new 0 0 191.715 78.952"
	 xml:space="preserve">
<g>
	<path fill="#1C3556" d="M191.567,22.341c-1.395,10.062-5.178,19.587-8.213,29.277c-1.88,6.005-3.804,12.174-6.921,17.568
		c-3.747,6.485-8.768,9.414-17.853,9.405c-4.107-0.004-8.235-0.056-13.178-0.056c1.605-3.315,3.014-6.249,4.552-9.093
		c0.432-0.8,2.241-0.622,3.413-0.597c4.04,0.086,6.508-1.8,7.952-6.282c-3.655,0-6.941,0.014-10.228-0.003
		c-5.664-0.029-9.335-4.451-7.891-9.972c2.615-9.995,5.459-19.932,8.356-29.849c0.253-0.866,1.576-1.969,2.448-2.013
		c4.224-0.21,8.464-0.095,13.326-0.095c-1.265,4.979-2.424,9.61-3.62,14.231c-0.999,3.86-2.032,7.711-3.065,11.562
		c-0.578,2.155-0.99,4.543,1.498,5.518c2.718,1.065,4.669-0.807,5.534-3.137c1.469-3.957,2.545-8.063,3.717-12.126
		c1.311-4.545,2.414-9.155,3.91-13.637c0.339-1.016,1.895-2.253,2.939-2.299c4.481-0.198,8.98,0.011,13.472,0.072
		C191.715,21.316,191.636,21.846,191.567,22.341z"/>
	<path fill="#C5A76B" d="M0.418,15.842c10.821-0.497,29.455,4.508,43.938,8.023c7.247,1.759,14.506,3.621,21.537,6.077
		c8.494,2.968,10.703,7.811,5.788,15.21c-5.816,8.754-12.621,16.378-19.725,24.18c-2.285,2.51-6.294,5.85-9.62,8.239
		c-0.883,0.634-2.851,1.34-3.715,0.42c-0.787-0.838,0.113-2.38,0.565-3.393c2.888-6.465,6.066-12.806,8.799-19.334
		c2.353-5.621,0.609-10.257-4.54-13.463c-4.228-2.632-8.457-5.303-12.884-7.57c-7.983-4.09-16.158-7.803-24.153-11.87
		c-2.172-1.105-4.625-2.858-5.901-4.636C0.07,17.115-0.331,15.876,0.418,15.842z"/>
	<path fill="#1B3555" d="M122.105,0.088c-0.761,3.146-1.769,6.118-2.649,9.057c-0.275,0.917-1.938,1.696-3.108,2.018
		c-3.969,1.09-6.535,3.284-7.123,7.888c2.597,0,4.928,0,7.892,0c-1.194,3.444-2.006,6.55-3.411,9.361
		c-0.407,0.814-2.56,1.196-3.83,1.052c-3.178-0.36-4.496,0.924-5.429,3.916c-2.553,8.187-5.588,16.222-8.221,24.386
		c-0.79,2.45-1.945,3.3-4.515,3.157c-4.218-0.235-8.458-0.064-13.151-0.064c2.372-7.103,4.656-14.005,6.983-20.891
		c2.308-6.831,5.035-13.546,6.899-20.494c2.428-9.05,5.919-17.387,15.594-19.028C112.227-0.265,117.855,0.088,122.105,0.088z"/>
	<path fill="#1B3455" d="M145.215,0.066c-1.916,6.922-3.755,13.865-5.766,20.759c-2.541,8.71-4.989,17.047-7.575,25.744
		c-0.412,1.386-1.052,3.157-1.422,5.006c2.238,0.152,4.265,0.289,6.437,0.436c-0.839,3.172-1.644,6.218-2.525,9.551
		c-5.585,0-11.051,0.076-16.514-0.032c-2.787-0.055-4.343-2.129-4.277-4.509c0.089-3.191,0.702-6.48,1.607-9.528
		c4.492-15.122,9.207-30.177,13.83-45.26c0.215-0.703,0.402-1.435,0.598-2.165C134.859,0.068,139.965,0.066,145.215,0.066z"/>
	<path fill="#C4A86C" d="M70.952,15.438c0.012,5.275-3.887,9.278-9.1,9.343c-5.132,0.064-9.457-4.14-9.411-9.145
		c0.051-5.427,4.177-9.624,9.397-9.558C66.998,6.143,70.94,10.192,70.952,15.438z"/>
</g>
<g>
	<path fill="#1B3555" d="M78.004,75.064l-1.873,3.687h-2.528l6.885-12.928h2.975l1.735,12.928h-2.476l-0.402-3.687H78.004z
		 M82.193,73.337l-0.388-3.213c-0.066-0.693-0.148-1.691-0.214-2.465h-0.045c-0.361,0.782-0.723,1.696-1.114,2.454l-1.669,3.224
		H82.193z"/>
	<path fill="#1B3555" d="M86.872,78.751l1.891-9.338h2.375l-1.892,9.338H86.872z M89.135,66.869
		c0.004-0.788,0.657-1.344,1.428-1.344c0.75,0,1.265,0.481,1.265,1.197c-0.013,0.822-0.663,1.337-1.47,1.337
		C89.633,68.059,89.129,67.574,89.135,66.869z"/>
	<path fill="#1B3555" d="M91.951,78.751l1.162-5.762c0.263-1.321,0.4-2.744,0.506-3.576h2.069c-0.065,0.639-0.13,1.279-0.224,1.966
		h0.062c0.679-1.258,1.762-2.177,3.11-2.177c0.173,0,0.366,0.009,0.52,0.027l-0.463,2.188c-0.124-0.016-0.281-0.024-0.462-0.024
		c-1.687,0-2.759,1.613-3.154,3.599l-0.751,3.76H91.951z"/>
	<path fill="#1B3555" d="M99.018,78.751l2.766-13.618h2.377l-2.768,13.618H99.018z"/>
	<path fill="#1B3555" d="M104.089,78.751l1.892-9.338h2.375l-1.891,9.338H104.089z M106.353,66.869
		c0.004-0.788,0.657-1.344,1.427-1.344c0.75,0,1.266,0.481,1.266,1.197c-0.014,0.822-0.663,1.337-1.471,1.337
		C106.851,68.059,106.346,67.574,106.353,66.869z"/>
	<path fill="#1B3555" d="M109.169,78.751l1.291-6.441c0.236-1.117,0.382-2.088,0.508-2.896h2.111l-0.218,1.677h0.041
		c0.915-1.259,2.188-1.888,3.566-1.888c1.425,0,2.531,0.804,2.531,2.572c0,0.418-0.082,1.067-0.172,1.54l-1.101,5.437h-2.375
		l1.058-5.268c0.066-0.344,0.122-0.746,0.122-1.112c0-0.782-0.304-1.348-1.242-1.348c-1.073,0-2.458,1.233-2.887,3.405l-0.858,4.322
		H109.169z"/>
	<path fill="#1B3555" d="M128.187,78.215c-0.975,0.48-2.312,0.737-3.52,0.737c-2.748,0-4.062-1.591-4.062-3.862
		c0-2.825,2.205-5.888,5.616-5.888c1.96,0,3.214,1.062,3.217,2.62c0,2.407-2.676,3.176-6.515,3.092
		c-0.033,0.329,0.049,0.952,0.264,1.325c0.392,0.637,1.108,0.956,2.038,0.956c1.118,0,2.028-0.273,2.735-0.612L128.187,78.215z
		 M125.917,70.872c-1.475,0-2.457,1.25-2.751,2.381c2.451,0.025,4.02-0.289,4.02-1.412C127.185,71.24,126.678,70.872,125.917,70.872
		z"/>
	<path fill="#1B3555" d="M130.407,76.669c0.521,0.264,1.489,0.619,2.386,0.616c0.969-0.003,1.537-0.521,1.537-1.15
		c0-0.579-0.334-0.957-1.301-1.432c-1.146-0.559-1.964-1.366-1.964-2.435c0-1.799,1.672-3.066,4.021-3.066
		c1.043,0,1.898,0.226,2.334,0.474l-0.598,1.614c-0.384-0.185-1.05-0.415-1.862-0.415c-0.893,0-1.506,0.446-1.506,1.079
		c0,0.522,0.437,0.883,1.278,1.296c1.092,0.55,2.057,1.321,2.057,2.507c0,2.059-1.826,3.195-4.216,3.195
		c-1.171,0-2.254-0.32-2.779-0.689L130.407,76.669z"/>
</g>
</svg>
