<?xml version="1.0" encoding="utf-8"?>
<!-- Generator: Adobe Illustrator 22.1.0, SVG Export Plug-In . SVG Version: 6.00 Build 0)  -->
<svg version="1.1" id="Слой_1" xmlns="http://www.w3.org/2000/svg" xmlns:xlink="http://www.w3.org/1999/xlink" x="0px" y="0px"
	 width="566.929px" height="169.118px" viewBox="0 0 566.929 169.118" style="enable-background:new 0 0 566.929 169.118;"
	 xml:space="preserve">
<style type="text/css">
	.st0{fill-rule:evenodd;clip-rule:evenodd;fill:#E80012;}
	.st1{fill:#1D1D1B;}
	.st2{fill:#626262;}
</style>
<g>
	<path class="st0" d="M124.409,121.666h432.84l-11.017,9.958H129.688l-12.833,13.425H62.004l6.231-9.712h43.221L124.409,121.666
		L124.409,121.666z M62.405,107.887h55.75l-9.496,9.958H67.684l-12.833,13.425H0l6.231-9.712h43.222L62.405,107.887L62.405,107.887z
		 M151.029,91.682l9.431-0.278l16.996-38.018c3.251-7.273-2.238-12.29-9.181-13.026l4.375-12.196h137.756l-12.599,25.216
		l-15.018,0.516c0.088-6.074-2.507-10.476-8.889-10.476h-42.988l-7.583,18.584h15.887c5.199,0,7.307-0.155,8.893-4.715h11.649
		l-9.81,26.073H236.08c1.143-6.01-3.946-7.211-7.387-7.211h-11.136l-6.338,15.533h13.869l-7.639,14.7h-75.999L151.029,91.682
		L151.029,91.682z M265.648,92.163h18.461l55.628-64h17.025h24.101h17.025l20.496,64h13.507l-7.978,14.219h-75.57l7.978-14.219
		h20.937l-4.252-13.277h-36.23l-11.54,13.277h15.983l-7.978,14.219h-75.57L265.648,92.163L265.648,92.163z M369.48,67.876
		l-6.229-19.45l-16.905,19.45H369.48L369.48,67.876z M440.841,92.163h12.186l20.921-48.902l-7.036,0.158
		c-9.331,0.21-14.873,2.176-20.754,10.064l-15.828,0.234l13.889-25.553h47.139h28.431h47.139l-12.512,25.553l-15.587-0.234
		c2.269-7.888-1.242-9.854-10.356-10.064l-9.228-0.212l-19.384,48.956h16.548l-7.978,14.219h-75.57L440.841,92.163L440.841,92.163z
		 M400.568,140.652h-6.912v20.818h-2.806v-20.818h-6.913v-2.461h16.631V140.652L400.568,140.652z M353.317,161.47h-3.114
		l-2.526-6.518h-10.169l-2.395,6.518h-3.114l9.188-23.279h2.908L353.317,161.47L353.317,161.47z M346.764,152.491l-3.753-9.933
		c-0.125-0.321-0.256-0.837-0.387-1.541h-0.075c-0.114,0.654-0.245,1.175-0.393,1.563l-3.724,9.91H346.764L346.764,152.491z
		 M228.093,161.47h-12.695v-23.279h12.148v2.461h-9.342v7.748h8.657v2.461h-8.657v8.148h9.889V161.47L228.093,161.47z
		 M172.15,140.652h-9.342v8.048h8.623v2.461h-8.623v10.309h-2.805v-23.279h12.147V140.652L172.15,140.652z"/>
	<path class="st1" d="M188.587,161.47h-2.738v-2.599h-0.068c-1.192,2.001-2.943,2.998-5.264,2.998c-1.705,0-3.04-0.438-4.003-1.319
		c-0.964-0.876-1.443-2.039-1.443-3.492c0-3.109,1.882-4.922,5.646-5.432l5.133-0.698c0-2.838-1.175-4.257-3.525-4.257
		c-2.059,0-3.918,0.687-5.577,2.062v-2.727c1.682-1.042,3.616-1.563,5.811-1.563c4.021,0,6.028,2.067,6.028,6.208V161.47
		L188.587,161.47z M185.849,153.056l-4.129,0.554c-1.272,0.172-2.23,0.482-2.875,0.92c-0.644,0.443-0.969,1.219-0.969,2.339
		c0,0.815,0.297,1.48,0.895,1.995c0.593,0.516,1.392,0.776,2.378,0.776c1.363,0,2.487-0.466,3.371-1.391
		c0.884-0.931,1.329-2.106,1.329-3.531V153.056L185.849,153.056z"/>
	<path class="st1" d="M202.68,147.541c-0.479-0.36-1.17-0.537-2.076-0.537c-1.169,0-2.15,0.537-2.937,1.607
		c-0.787,1.07-1.181,2.533-1.181,4.384v8.475h-2.737v-16.628h2.737v3.425h0.069c0.388-1.17,0.987-2.084,1.791-2.738
		c0.804-0.66,1.7-0.987,2.692-0.987c0.719,0,1.266,0.078,1.643,0.227V147.541L202.68,147.541z"/>
	<path class="st1" d="M244.581,161.47h-2.738v-2.599h-0.068c-1.192,2.001-2.943,2.998-5.264,2.998c-1.705,0-3.04-0.438-4.004-1.319
		c-0.964-0.876-1.443-2.039-1.443-3.492c0-3.109,1.882-4.922,5.646-5.432l5.133-0.698c0-2.838-1.175-4.257-3.525-4.257
		c-2.059,0-3.918,0.687-5.577,2.062v-2.727c1.682-1.042,3.616-1.563,5.811-1.563c4.021,0,6.028,2.067,6.028,6.208V161.47
		L244.581,161.47z M241.843,153.056l-4.129,0.554c-1.272,0.172-2.23,0.482-2.874,0.92c-0.644,0.443-0.97,1.219-0.97,2.339
		c0,0.815,0.297,1.48,0.895,1.995c0.593,0.516,1.392,0.776,2.378,0.776c1.363,0,2.487-0.466,3.371-1.391
		c0.884-0.931,1.329-2.106,1.329-3.531V153.056L241.843,153.056z"/>
	<path class="st1" d="M248.716,160.871v-2.86c1.489,1.086,3.131,1.63,4.922,1.63c2.401,0,3.599-0.787,3.599-2.356
		c0-0.443-0.103-0.82-0.308-1.13c-0.206-0.31-0.485-0.582-0.833-0.82c-0.354-0.238-0.764-0.455-1.238-0.643
		c-0.468-0.189-0.981-0.388-1.523-0.593c-0.759-0.294-1.42-0.588-1.991-0.887c-0.576-0.299-1.055-0.632-1.437-1.009
		c-0.382-0.371-0.673-0.798-0.867-1.275c-0.194-0.476-0.291-1.036-0.291-1.674c0-0.781,0.183-1.469,0.548-2.073
		c0.371-0.598,0.861-1.103,1.471-1.513c0.61-0.405,1.306-0.709,2.093-0.914c0.781-0.205,1.591-0.31,2.424-0.31
		c1.477,0,2.801,0.244,3.97,0.732v2.694c-1.255-0.798-2.697-1.197-4.334-1.197c-0.507,0-0.969,0.056-1.38,0.172
		c-0.411,0.116-0.764,0.277-1.061,0.482c-0.291,0.205-0.519,0.454-0.684,0.743c-0.16,0.288-0.24,0.61-0.24,0.959
		c0,0.432,0.08,0.798,0.24,1.092c0.165,0.288,0.399,0.549,0.713,0.776c0.308,0.227,0.69,0.438,1.129,0.621
		c0.445,0.183,0.952,0.382,1.517,0.599c0.759,0.283,1.437,0.571,2.036,0.87c0.599,0.299,1.112,0.637,1.534,1.009
		s0.747,0.804,0.975,1.292c0.228,0.488,0.342,1.07,0.342,1.74c0,0.826-0.188,1.541-0.559,2.145
		c-0.371,0.609-0.872,1.114-1.494,1.513c-0.622,0.399-1.34,0.699-2.15,0.893c-0.81,0.194-1.665,0.294-2.555,0.294
		C251.527,161.869,250.005,161.536,248.716,160.871L248.716,160.871z"/>
	<path class="st1" d="M272.201,161.32c-0.645,0.344-1.5,0.515-2.555,0.515c-2.994,0-4.494-1.624-4.494-4.877v-9.855h-2.943v-2.262
		h2.943v-4.063l2.737-0.859v4.922h4.312v2.262h-4.312v9.395c0,1.12,0.194,1.918,0.587,2.394c0.388,0.477,1.033,0.715,1.939,0.715
		c0.69,0,1.283-0.183,1.785-0.554V161.32L272.201,161.32z"/>
	<path class="st1" d="M289.613,153.821h-12.08c0.046,1.857,0.559,3.292,1.534,4.301c0.981,1.014,2.327,1.519,4.038,1.519
		c1.928,0,3.696-0.621,5.309-1.862v2.494c-1.5,1.064-3.49,1.596-5.96,1.596c-2.412,0-4.311-0.754-5.692-2.267
		c-1.38-1.513-2.07-3.642-2.07-6.38c0-2.594,0.753-4.7,2.264-6.335c1.511-1.63,3.382-2.444,5.624-2.444
		c2.236,0,3.969,0.704,5.196,2.112c1.226,1.408,1.836,3.364,1.836,5.87V153.821L289.613,153.821z M286.807,151.559
		c-0.012-1.541-0.394-2.743-1.146-3.603c-0.753-0.859-1.797-1.286-3.131-1.286c-1.289,0-2.39,0.449-3.291,1.352
		c-0.901,0.904-1.46,2.079-1.671,3.536H286.807L286.807,151.559z"/>
	<path class="st1" d="M302.685,147.541c-0.479-0.36-1.169-0.537-2.076-0.537c-1.169,0-2.15,0.537-2.937,1.607
		c-0.787,1.07-1.181,2.533-1.181,4.384v8.475h-2.737v-16.628h2.737v3.425h0.069c0.388-1.17,0.987-2.084,1.791-2.738
		c0.804-0.66,1.7-0.987,2.692-0.987c0.719,0,1.266,0.078,1.643,0.227V147.541L302.685,147.541z"/>
	<path class="st1" d="M319.851,161.47h-2.737v-9.494c0-3.536-1.329-5.305-3.981-5.305c-1.369,0-2.503,0.499-3.399,1.502
		c-0.896,1.003-1.346,2.273-1.346,3.802v9.494h-2.737v-16.628h2.737v2.76h0.069c1.289-2.106,3.159-3.159,5.612-3.159
		c1.871,0,3.302,0.588,4.294,1.763c0.992,1.175,1.488,2.871,1.488,5.094V161.47L319.851,161.47z"/>
	<path class="st1" d="M357.868,140.618c-0.49,0-0.912-0.161-1.26-0.488c-0.348-0.321-0.519-0.737-0.519-1.236
		c0-0.494,0.171-0.909,0.519-1.242c0.348-0.327,0.77-0.493,1.26-0.493c0.502,0,0.93,0.166,1.283,0.493
		c0.354,0.332,0.53,0.748,0.53,1.242c0,0.476-0.177,0.887-0.53,1.219C358.798,140.452,358.37,140.618,357.868,140.618
		L357.868,140.618z M359.203,161.47h-2.737v-16.628h2.737V161.47L359.203,161.47z"/>
	<path class="st1" d="M373.683,147.541c-0.479-0.36-1.169-0.537-2.076-0.537c-1.169,0-2.15,0.537-2.937,1.607
		c-0.787,1.07-1.181,2.533-1.181,4.384v8.475h-2.737v-16.628h2.737v3.425h0.069c0.387-1.17,0.987-2.084,1.791-2.738
		c0.804-0.66,1.699-0.987,2.692-0.987c0.719,0,1.266,0.078,1.643,0.227V147.541L373.683,147.541z"/>
	<path class="st1" d="M412.887,147.541c-0.479-0.36-1.17-0.537-2.076-0.537c-1.169,0-2.15,0.537-2.937,1.607
		c-0.787,1.07-1.181,2.533-1.181,4.384v8.475h-2.737v-16.628h2.737v3.425h0.069c0.388-1.17,0.987-2.084,1.791-2.738
		c0.804-0.66,1.7-0.987,2.692-0.987c0.719,0,1.266,0.078,1.643,0.227V147.541L412.887,147.541z"/>
	<path class="st1" d="M428.103,161.47h-2.738v-2.599h-0.068c-1.192,2.001-2.943,2.998-5.264,2.998c-1.705,0-3.04-0.438-4.004-1.319
		c-0.964-0.876-1.443-2.039-1.443-3.492c0-3.109,1.882-4.922,5.646-5.432l5.133-0.698c0-2.838-1.175-4.257-3.525-4.257
		c-2.059,0-3.918,0.687-5.577,2.062v-2.727c1.682-1.042,3.616-1.563,5.811-1.563c4.021,0,6.028,2.067,6.028,6.208V161.47
		L428.103,161.47z M425.365,153.056l-4.129,0.554c-1.272,0.172-2.23,0.482-2.874,0.92c-0.644,0.443-0.97,1.219-0.97,2.339
		c0,0.815,0.297,1.48,0.895,1.995c0.593,0.516,1.392,0.776,2.378,0.776c1.363,0,2.487-0.466,3.371-1.391
		c0.884-0.931,1.329-2.106,1.329-3.531V153.056L425.365,153.056z"/>
	<path class="st1" d="M447.465,161.47h-2.738v-9.494c0-3.536-1.329-5.305-3.981-5.305c-1.369,0-2.504,0.499-3.399,1.502
		c-0.896,1.003-1.346,2.273-1.346,3.802v9.494h-2.737v-16.628h2.737v2.76h0.069c1.289-2.106,3.159-3.159,5.612-3.159
		c1.871,0,3.302,0.588,4.294,1.763c0.993,1.175,1.489,2.871,1.489,5.094V161.47L447.465,161.47z"/>
	<path class="st1" d="M451.606,160.871v-2.86c1.489,1.086,3.131,1.63,4.922,1.63c2.401,0,3.599-0.787,3.599-2.356
		c0-0.443-0.103-0.82-0.308-1.13c-0.205-0.31-0.485-0.582-0.833-0.82c-0.353-0.238-0.764-0.455-1.238-0.643
		c-0.468-0.189-0.981-0.388-1.523-0.593c-0.759-0.294-1.42-0.588-1.99-0.887c-0.576-0.299-1.055-0.632-1.437-1.009
		c-0.382-0.371-0.673-0.798-0.867-1.275c-0.194-0.476-0.291-1.036-0.291-1.674c0-0.781,0.182-1.469,0.548-2.073
		c0.37-0.598,0.861-1.103,1.471-1.513c0.61-0.405,1.306-0.709,2.093-0.914c0.781-0.205,1.591-0.31,2.424-0.31
		c1.477,0,2.8,0.244,3.969,0.732v2.694c-1.254-0.798-2.697-1.197-4.334-1.197c-0.507,0-0.969,0.056-1.38,0.172
		c-0.411,0.116-0.764,0.277-1.061,0.482c-0.291,0.205-0.519,0.454-0.684,0.743c-0.16,0.288-0.24,0.61-0.24,0.959
		c0,0.432,0.08,0.798,0.24,1.092c0.165,0.288,0.399,0.549,0.713,0.776c0.308,0.227,0.69,0.438,1.129,0.621
		c0.445,0.183,0.952,0.382,1.517,0.599c0.759,0.283,1.437,0.571,2.036,0.87c0.599,0.299,1.112,0.637,1.534,1.009
		c0.422,0.371,0.747,0.804,0.975,1.292c0.228,0.488,0.342,1.07,0.342,1.74c0,0.826-0.188,1.541-0.559,2.145
		c-0.371,0.609-0.872,1.114-1.494,1.513c-0.622,0.399-1.34,0.699-2.15,0.893c-0.81,0.194-1.665,0.294-2.555,0.294
		C454.417,161.869,452.895,161.536,451.606,160.871L451.606,160.871z"/>
	<path class="st1" d="M469.958,159.086h-0.069v10.032h-2.737v-24.276h2.737v2.904h0.069c1.346-2.201,3.319-3.303,5.914-3.303
		c2.207,0,3.93,0.743,5.167,2.234c1.238,1.491,1.854,3.486,1.854,5.992c0,2.782-0.696,5.016-2.087,6.69
		c-1.398,1.674-3.302,2.511-5.72,2.511C472.872,161.869,471.162,160.943,469.958,159.086L469.958,159.086z M469.89,152.358v2.328
		c0,1.38,0.462,2.55,1.38,3.514c0.918,0.959,2.087,1.441,3.502,1.441c1.659,0,2.96-0.621,3.901-1.857
		c0.941-1.242,1.414-2.96,1.414-5.166c0-1.857-0.439-3.315-1.323-4.368c-0.878-1.053-2.07-1.58-3.576-1.58
		c-1.591,0-2.874,0.538-3.844,1.619C470.375,149.37,469.89,150.728,469.89,152.358L469.89,152.358z"/>
	<path class="st1" d="M494.419,161.869c-2.527,0-4.545-0.776-6.051-2.333c-1.511-1.552-2.264-3.614-2.264-6.185
		c0-2.794,0.787-4.977,2.355-6.551c1.568-1.568,3.69-2.356,6.365-2.356c2.549,0,4.54,0.765,5.971,2.295
		c1.432,1.524,2.144,3.641,2.144,6.352c0,2.655-0.77,4.783-2.315,6.379C499.085,161.07,497.014,161.869,494.419,161.869
		L494.419,161.869z M494.625,146.671c-1.762,0-3.154,0.582-4.18,1.752c-1.021,1.17-1.534,2.777-1.534,4.833
		c0,1.973,0.519,3.536,1.551,4.673c1.038,1.142,2.424,1.713,4.164,1.713c1.768,0,3.131-0.56,4.083-1.68
		c0.952-1.12,1.426-2.71,1.426-4.772c0-2.084-0.473-3.691-1.426-4.822C497.756,147.236,496.393,146.671,494.625,146.671
		L494.625,146.671z"/>
	<path class="st1" d="M516.251,147.541c-0.479-0.36-1.169-0.537-2.076-0.537c-1.169,0-2.15,0.537-2.937,1.607
		c-0.787,1.07-1.181,2.533-1.181,4.384v8.475h-2.737v-16.628h2.737v3.425h0.069c0.388-1.17,0.987-2.084,1.791-2.738
		c0.804-0.66,1.7-0.987,2.692-0.987c0.719,0,1.266,0.078,1.643,0.227V147.541L516.251,147.541z"/>
	<path class="st1" d="M527.156,161.32c-0.645,0.344-1.5,0.515-2.555,0.515c-2.995,0-4.494-1.624-4.494-4.877v-9.855h-2.943v-2.262
		h2.943v-4.063l2.737-0.859v4.922h4.312v2.262h-4.312v9.395c0,1.12,0.194,1.918,0.588,2.394c0.388,0.477,1.032,0.715,1.939,0.715
		c0.69,0,1.284-0.183,1.786-0.554V161.32L527.156,161.32z"/>
	<path class="st2" d="M81.109,91.345c0.757,0,1.371,0.614,1.371,1.371c0,0.757-0.614,1.371-1.371,1.371l-13.86,0.001
		c-0.757,0-1.371-0.615-1.371-1.372h-0.005V28.164c0-0.388,0.16-0.737,0.417-0.987L89.686,0.469c0.499-0.57,1.366-0.628,1.937-0.129
		c0.31,0.271,0.469,0.651,0.469,1.033h0.005v89.973l21.083,0l-0.854-62.648L98.514,13.036c-0.502-0.57-0.446-1.44,0.124-1.942
		c0.57-0.502,1.44-0.446,1.942,0.124l14.143,16.037l-0.004,0.003c0.21,0.238,0.338,0.548,0.342,0.89l0.88,64.553v0.016
		c0,0.757-0.615,1.371-1.372,1.371l-23.727,0.001c-0.041,0.003-0.082,0.005-0.123,0.005c-0.761,0-1.377-0.617-1.377-1.377V5.027
		L68.626,28.675v62.671L81.109,91.345L81.109,91.345z"/>
</g>
</svg>
