<?xml version="1.0" encoding="utf-8"?>
<!-- Generator: Adobe Illustrator 22.1.0, SVG Export Plug-In . SVG Version: 6.00 Build 0)  -->
<svg version="1.1" id="Слой_1" xmlns="http://www.w3.org/2000/svg" xmlns:xlink="http://www.w3.org/1999/xlink" x="0px" y="0px"
	 width="567px" height="120.1px" viewBox="0 0 567 120.1" style="enable-background:new 0 0 567 120.1;" xml:space="preserve">
<style type="text/css">
	.st0{fill:#FF8937;}
	.st1{fill:#0217A6;}
</style>
<g>
	<path class="st0" d="M140.4,96.2v17.6c0,8.1-15.6,8.1-15.6,0V96.6c0-11.6,15-15.1,22-15l24,0.1c4,0,4,6.1,0,6.1l-19.2-0.1
		C145.7,87.6,140.4,90.4,140.4,96.2L140.4,96.2z M527.8,113.8c0,8.1-15.6,8.1-15.6,0V96.6c0-11.6,11.3-14.9,18.3-14.9h13.7
		c9.3,0,22.7,3.1,22.8,17.8s-8.4,20.3-17.5,20.3h-11.6c-3.4,0-4-1.6-4-2.5s0.5-3.1,4-3.1h5c6.3,0,11-6.9,11.1-14.5
		c0.1-3.8-1.5-12-12.4-12h-13.8V113.8L527.8,113.8z M196,96.3v17.6c0,8.1-15.6,8.1-15.6,0V96.6c0-11.6,11.8-15,18.8-15h24.1
		c7.9,0,10.7,6.3,10.7,10.4c0,4.9-1.7,9.5-9.6,12.2c2.5,2.2,5,4.4,7.5,6.6c2.7,2.4,1.2,5.8-0.2,7.1s-4.9,3.5-8.3,0.9L204,104
		c-1.6-1.3-2.4-2.5-2.7-4.9h14.2c2.7,0,4.6-2.8,4.7-5.7c0.1-2.8-1.6-5.6-3.9-5.6h-14.2C196.4,87.8,196,88.5,196,96.3L196,96.3z
		 M463.6,96v17.6c0,8.1-15.6,8.1-15.6,0V96.3c0-11.6,11.8-15,18.8-15h24.1c7.9,0,10.7,6.3,10.7,10.4c0,4.9-1.7,9.5-9.6,12.2
		c2.5,2.2,5,4.4,7.5,6.6c2.7,2.4,1.2,5.8-0.2,7.1c-1.4,1.3-4.9,3.5-8.3,0.9l-19.4-14.9c-1.6-1.3-2.4-2.5-2.7-4.9h14.2
		c2.7,0,4.6-2.8,4.7-5.7c0.1-2.8-1.6-5.6-3.9-5.6h-14.2C464,87.5,463.6,88.1,463.6,96L463.6,96z M150.5,97.6h19.8
		c4.3,0,4.3,6.5,0,6.5h-19.8C146.2,104.1,146.2,97.6,150.5,97.6L150.5,97.6z M270.1,97.6h19.2c4.2,0,4.2,6.5,0,6.5h-19.2
		C265.9,104.1,265.9,97.6,270.1,97.6L270.1,97.6z M326.9,97.6h19.2c4.2,0,4.2,6.5,0,6.5h-19.2C322.7,104.1,322.7,97.6,326.9,97.6
		L326.9,97.6z M267.4,81.6H288c1,0,4.4-0.1,4.4,3s-3.2,3.1-4.2,3.1h-16.3c-6.4,0-11.9,5.7-12.1,13.1c-0.2,7.1,5.5,13.4,12.4,13.4
		h16.6c1,0,3.9,0,3.8,3c0,3-3.3,2.6-4.2,2.6h-21c-12.5,0-22.3-8.3-22.1-19.1C245.5,89.8,254.9,81.6,267.4,81.6L267.4,81.6z
		 M324.3,81.6h20.6c1,0,4.4-0.1,4.4,3s-3.2,3.1-4.2,3.1h-16.3c-6.4,0-11.9,5.7-12.1,13.1c-0.2,7.1,5.5,13.4,12.4,13.4h16.6
		c1,0,3.9,0,3.8,3c0,3-3.3,2.6-4.2,2.6h-21c-12.5,0-22.3-8.3-22.1-19.1C302.3,89.8,311.7,81.6,324.3,81.6L324.3,81.6z M373.9,91.2
		c0,1.7,1.9,3.6,3.6,3.6H393c0-0.5,3.2,0.7,4-3.4c0.2-1.2-0.7-3.6-4-3.6h-15.6C375.8,87.7,373.9,89.5,373.9,91.2L373.9,91.2z
		 M373.9,101.4v12.2c0,8.3-15,8.3-15,0v-20c0-9.9,10.8-11.9,15.6-11.9h26.1c4,0,11.3,2.3,11.3,9.7c0,4.1-0.8,6.3-4.3,7.9
		c3,1.2,4.5,5.5,4.1,8.9c-0.6,5.7-5.4,11.6-12.1,11.6h-17.3l-0.1-5.6h10.7c3.8,0,4.8-4.2,4.8-6.3c0-2.1-0.4-6.4-4.7-6.4L373.9,101.4
		L373.9,101.4z M426.3,81.6h6.8c2.7,0,4.9,2.2,4.9,4.9v28.3c0,2.7-2.2,4.9-4.9,4.9h-6.8c-2.7,0-4.9-2.2-4.9-4.9V86.6
		C421.4,83.9,423.6,81.6,426.3,81.6L426.3,81.6z"/>
	<path class="st1" d="M0.4,87.7c1,0.5,2.6,2.4,3.9,3.5c9.8,8.9,18.8,13.5,29.2,13.5c12.2,0,27.5-10.6,40-23.1
		c16.2-16.2,30.1-35.1,42.8-35.3c8.5-0.1,15.5,10.3,18,17.6c-1.9-1.3-3.8-2.1-5.8-1.9c-7.4,0.5-20.6,19.6-37.8,35.6
		c-13.2,12.3-29,22.2-44.9,22.2c-17.1,0-32.5-12.8-43.2-27.9C1.8,90.5-1,87.1,0.4,87.7L0.4,87.7z M27.7,0.2c-0.1,0.7-1.1,2-1.7,3
		c-4.3,7.4-4.5,13.4-2.1,19.7c2.8,7.5,11.4,13.4,22.2,18.7c14.3,7,27.6,13.4,29.1,21.5c1,5.3-3,13.7-9,16.4c0.6-1.4,0.7-2.6,0.3-3.9
		c-1.8-6.4-16-11.9-29.6-20C26.4,49.3,16.7,43.3,14,33.4c-2.9-10.6,3.1-22.1,11.3-31.1C26,1.5,27.9-0.8,27.7,0.2L27.7,0.2z"/>
</g>
</svg>
