<?xml version="1.0" encoding="utf-8"?>
<!-- Generator: Adobe Illustrator 13.0.2, SVG Export Plug-In . SVG Version: 6.00 Build 14948)  -->
<!DOCTYPE svg PUBLIC "-//W3C//DTD SVG 1.1//EN" "http://www.w3.org/Graphics/SVG/1.1/DTD/svg11.dtd" [
	<!ENTITY ns_extend "http://ns.adobe.com/Extensibility/1.0/">
	<!ENTITY ns_ai "http://ns.adobe.com/AdobeIllustrator/10.0/">
	<!ENTITY ns_graphs "http://ns.adobe.com/Graphs/1.0/">
	<!ENTITY ns_vars "http://ns.adobe.com/Variables/1.0/">
	<!ENTITY ns_imrep "http://ns.adobe.com/ImageReplacement/1.0/">
	<!ENTITY ns_sfw "http://ns.adobe.com/SaveForWeb/1.0/">
	<!ENTITY ns_custom "http://ns.adobe.com/GenericCustomNamespace/1.0/">
	<!ENTITY ns_adobe_xpath "http://ns.adobe.com/XPath/1.0/">
]>
<svg version="1.1" id="Layer_1" xmlns:x="&ns_extend;" xmlns:i="&ns_ai;" xmlns:graph="&ns_graphs;"
	 xmlns="http://www.w3.org/2000/svg" xmlns:xlink="http://www.w3.org/1999/xlink" x="0px" y="0px" width="125.834px"
	 height="40.167px" viewBox="0 0 125.834 40.167" enable-background="new 0 0 125.834 40.167" xml:space="preserve">
<metadata><?xpacket begin="﻿" id="W5M0MpCehiHzreSzNTczkc9d"?>
<x:xmpmeta xmlns:x="adobe:ns:meta/" x:xmptk="Adobe XMP Core 4.1-c036 46.277092, Fri Feb 23 2007 14:16:18        ">
   <rdf:RDF xmlns:rdf="http://www.w3.org/1999/02/22-rdf-syntax-ns#">
      <rdf:Description rdf:about=""
            xmlns:dc="http://purl.org/dc/elements/1.1/">
         <dc:format>image/svg+xml</dc:format>
      </rdf:Description>
      <rdf:Description rdf:about=""
            xmlns:xap="http://ns.adobe.com/xap/1.0/"
            xmlns:xapGImg="http://ns.adobe.com/xap/1.0/g/img/">
         <xap:CreatorTool>Adobe Illustrator CS3</xap:CreatorTool>
         <xap:CreateDate>2010-05-29T15:33:58+10:00</xap:CreateDate>
         <xap:ModifyDate>2010-05-29T15:33:58+10:00</xap:ModifyDate>
         <xap:MetadataDate>2010-05-29T15:33:58+10:00</xap:MetadataDate>
         <xap:Thumbnails>
            <rdf:Alt>
               <rdf:li rdf:parseType="Resource">
                  <xapGImg:width>256</xapGImg:width>
                  <xapGImg:height>136</xapGImg:height>
                  <xapGImg:format>JPEG</xapGImg:format>
                  <xapGImg:image>/9j/4AAQSkZJRgABAgEASABIAAD/7QAsUGhvdG9zaG9wIDMuMAA4QklNA+0AAAAAABAASAAAAAEA&#xA;AQBIAAAAAQAB/+4ADkFkb2JlAGTAAAAAAf/bAIQABgQEBAUEBgUFBgkGBQYJCwgGBggLDAoKCwoK&#xA;DBAMDAwMDAwQDA4PEA8ODBMTFBQTExwbGxscHx8fHx8fHx8fHwEHBwcNDA0YEBAYGhURFRofHx8f&#xA;Hx8fHx8fHx8fHx8fHx8fHx8fHx8fHx8fHx8fHx8fHx8fHx8fHx8fHx8fHx8f/8AAEQgAiAEAAwER&#xA;AAIRAQMRAf/EAaIAAAAHAQEBAQEAAAAAAAAAAAQFAwIGAQAHCAkKCwEAAgIDAQEBAQEAAAAAAAAA&#xA;AQACAwQFBgcICQoLEAACAQMDAgQCBgcDBAIGAnMBAgMRBAAFIRIxQVEGE2EicYEUMpGhBxWxQiPB&#xA;UtHhMxZi8CRygvElQzRTkqKyY3PCNUQnk6OzNhdUZHTD0uIIJoMJChgZhJRFRqS0VtNVKBry4/PE&#xA;1OT0ZXWFlaW1xdXl9WZ2hpamtsbW5vY3R1dnd4eXp7fH1+f3OEhYaHiImKi4yNjo+Ck5SVlpeYmZ&#xA;qbnJ2en5KjpKWmp6ipqqusra6voRAAICAQIDBQUEBQYECAMDbQEAAhEDBCESMUEFURNhIgZxgZEy&#xA;obHwFMHR4SNCFVJicvEzJDRDghaSUyWiY7LCB3PSNeJEgxdUkwgJChgZJjZFGidkdFU38qOzwygp&#xA;0+PzhJSktMTU5PRldYWVpbXF1eX1RlZmdoaWprbG1ub2R1dnd4eXp7fH1+f3OEhYaHiImKi4yNjo&#xA;+DlJWWl5iZmpucnZ6fkqOkpaanqKmqq6ytrq+v/aAAwDAQACEQMRAD8A9U4q7FXYq7FXYq7FXYq7&#xA;FXYq7FXYq7FXYq7FXYq7FXYq7FXYq7FXYq7FXYq7FXYq7FXYq7FXYq7FXYq7FXYq7FXYq7FXYq7F&#xA;XYq7FXYq7FXYq7FXYq7FXYq7FXYq7FXYq7FXYq7FXYq7FXYq7FXYq7FXYq7FXYq7FXYq7FXYq7FX&#xA;Yq7FXYq7FXYq7FXYq7FXYq7FXYq7FXYq7FXYq7FXYq7FXYq7FXYq7FXYq7FXYq7FXYq7FXYq7FXY&#xA;q7FXYq7FXYq7FXYq7FXYq7FXYq7FXYq7FXYq7FXYq7FXYq7FXYq7FXYq7FXYq7FXYq7FXYq7FXYq&#xA;7FXYq7FXYq7FXYq7FXYq7FXYq7FXYq7FXYq7FXYq7FXYq7FXYq7FXYq7FXYq7FXYq7FXYq7FXYq7&#xA;FXYq7FXYq7FXYq7FXYq7FXYq7FXYq7FXYq7FXYq7FXYq7FXYq7FXYq7FXYq7FXYq7FXYq7FXYq7F&#xA;XYq7FXYq7FXYq7FXYq7FXYq7FXYq7FXYq7FXYq7FXYq7FXYq7FXYq7FXYq7FXYq7FXYq7FXYq7FX&#xA;Yq7FXYq7FXYq7FXYq7FXYq7FXYq7FXYq7FXYq7FXYq7FXYq7FXYq7FXYq7FXYq7FXYq7FXYq7FXY&#xA;q7FXYq7FXYq7FXYq7FXYq7FXYq7FXYq7FXYq7FXYq7FXYq7FXYq7FXYq7FXYq7FXYq7FXYq7FXYq&#xA;7FXYq7FXYq7FXYq7FXYq7FXYq7FXYq7FXYq7FXYq7FXYq7FXYq7FXYq7FXYq7FXYq7FXYq7FXYq7&#xA;FXYq7FXYq7FXYq7FXYq7FXYq7FXYq7FXYq7FXYq7FXYq7FXYq7FXYq7FXYq7FXYq7FXYq7FXYq7F&#xA;XYq7FXYq7FXYq7FXYq7FXYq7FXYq7FXYq7FXYq7FXYq7FXYq7FXYq7FXYq7FXYq7FXYq7FXYq7FX&#xA;Yq7FXYq7FXYq7FXYq7FXYq7FXYq7FXYq7FXYq7FXYq7FXYq7FXYq7FXYq7FXYq7FXYq7FXYq7FXY&#xA;q7FXYq7FXYq7FXYq7FXYq7FXYq7FXYq7FXYq7FWB/mZ5qufLv1a6sdX+rXr0jh0ue0kubW5YnZS8&#xA;KerHIa/svuP2T1zK02MTsEfbuGrKTHdJ/KP5m+e/NWtrpEOh22iT2KRT6w2oGdn9KTp6EAWFlZhu&#xA;OTEZZl02OEbvivlTGGWUjVU9UzBb3Yq7FXYq7FXYq7FXYq7FXYq7FXYq7FXYq7FXYq7FXYq7FXYq&#xA;7FXYq7FXYq7FXYq7FXYqk+r+ZIrK5XT7O3k1LV3XmtjBQFUPR5pG+CJPduvYHKcmbhNAcUu79fc5&#xA;eDSGceOREMfefuA5k/goIaH5j1T49b1NrSBt/wBG6WTEtPCS5I9Z/fhwyHhTl9RryH6+f3N35nDj&#xA;/u4cR/nT3+UeQ+Nrp4fI3lGzElwlrp8c0ilWcc5pplNU415yyyAnalTmRg09bQH48y4mp1c8lHJK&#xA;+79g/UlF/wCe/Iuma3b6hdQXltrGpLHYW/q2dzDJPGXLJRZUTkFdt+61FeozLjgySjQqhvzDiGcQ&#xA;b6sxu9SsLSW2huZ1ilu39K2RjvI9K8VHyzDlMCgerkwxSkCQLEdyhPM+uxaBoN5rEsLXCWaczAhA&#xA;dyWChVr3JOW44ccgGmUqFsP17819U0CHT5dW8rXNr+k5BDaobm3Zi7UoGCluPXvmTDSid1Lk1yyk&#xA;cwnVh5z1V/MlpoeqaBPpj3sUsttdPNDNE3ogFlrEW+LfocqlhHCZCV0yEzdEMqyhsdirsVdirsVd&#xA;irsVdirsVdirsVdirsVdirsVdirsVdirsVdirsVdirsVdirFfJ9xbabp31fVQ1prTs0mqTXIKCac&#xA;k8pEmI9ORP5OLbLtQUzE05EY1LaXW+vxdnr4nJO4erH/AA10HdXMHv8ANNtd8yaXo+hX2s3Eqva2&#xA;MRmk4MCW/kQe7tRV98zcUeOQA6usyAwFkMG/K3Rb3W3P5h+Z6TarqHI6RA28dlZ1IX0lOylxvy68&#xA;fdmzL1MxH93HkOfmWjEL9RSNtY/x3+dul28C8tC8sxPewuRtK548Zx/ktIY+Hio5DZst4PCwE/xS&#xA;2Y3xzHcGRabrfmzUfzH1GzuYbaW30bTfXTTlVaxXly9YEa5bkeZhFWZaKKkAH7Rx54cfhg9b5/e2&#xA;wyzEiAdq5JNpWvefPNl15o8vW13Zyta3npLqUlupt7X0V+xHE3PmXnT92z8qBWbrxGXShjxiMiDy&#xA;5d7WJSlYUPzth1CHTPI8OozrdX8eoRLdXKJ6aySAKGYL2qcloyCZ1ypGa6Fp3+a2teatJ8weVDpM&#xA;1r6d/fraRxzQBnWWQqgJmJZgjByG4BTTau+VaWEJRld7BllkQRSvd2n5maXBbRal5ht5tNe/ebVN&#xA;cCW9nJbWCxjjGFkDR/G9d9yu2++wBxS5R3rYc90kSHMoPyl5n16/1LzjodlrDXcOlR282japdwK0&#xA;oWaIuwdeMPqLUUViNxvuKZLLjiBGRHPmEQkSSLY9Z+ZvzN1D8qD50XzEkE9iZXNqtpC3rqlwyt6r&#xA;sKLQNRQigUUdSai048Qy8HDz82AlIw4ret+Ub251Dy3p2p3EzTSalBHe/EqL6a3KiVYhwA+GMPxB&#xA;O+25OYGUASIHTZyIGxab5WydirsVdirsVdirsVdirsVdirsVdirsVdirsVdirsVdirsVdirsVYb+&#xA;b3lvV/MXkO/0zSV9S9dopEgqq+oIpFcpVqDoKjfqMydJkEMgJ5NeaJMaCWeX9L86a7oWn6Nrunr5&#xA;d0Szgit723inElzeiJAnpqY/7iBuPx/EXI+Ebb5PJKEZGUTxS+79rGIkRR2CSeTfIfnU+c9fv9Ui&#xA;TS9HvrwMeDqZp7W3ZvQtYvTJEcBXjz6EqoUbVyzNnhwRA3IH4PvYwxy4jfJNPKOg+fbDVfNmr3Ft&#xA;HC93d3dzZQCSNpbwqhSzjZjVY4kHSpBJO9AN4ZZ4yIgdw+HemEZAksh/LDylJ5Y8oWtldLTVLgm7&#xA;1RqhibmbdgWBIPAUSoNNsp1OXjmSOXRnihwhjH5yaB5t8w3Wiw6Lok13FpV2t3Ncme0ijcUU8YxJ&#xA;MsleoPJR9OX6TJCAPEeY82GaJNUFT8xLDzfruo+VLvTvLd0yaPfxajeJLcWCMBHIp9JaXDAsQh70&#xA;6b9aDTyhESBkNxXX9S5ASRQ5Ij8xNF836hrXlXW9L0z9J2WmyNNfaDPLDERK6gI7Es0TPHU0ILcS&#xA;NqgnBp5wEZRJonqnJGRIIQFhpf5i6f508ya5N5fjuoNftYAEtbyGsLwxekkf74xc2/nNFXwPbJSl&#xA;jMIx4vpPcxAkJE1zS/SfK3na0/Ja88oyaBMdYkMkUSi4svSZZpTIX5+vsFGxHWtKbVInPLA5hPi2&#xA;+P6kCMuCq3ekeRrbULTyfo9jqFo9leWNnBaTwyNE55QRLGWDRPIpVuNRvXMPMQZkg2CW6APCLT3K&#xA;mbsVdirsVdirsVdirsVdirsVdirsVdirsVdirsVdirsVdirsVf/Z</xapGImg:image>
               </rdf:li>
            </rdf:Alt>
         </xap:Thumbnails>
      </rdf:Description>
      <rdf:Description rdf:about=""
            xmlns:xapMM="http://ns.adobe.com/xap/1.0/mm/">
         <xapMM:DocumentID>uuid:9D01D167C16CDF11A97DE2A67F9CD460</xapMM:DocumentID>
         <xapMM:InstanceID>uuid:9E01D167C16CDF11A97DE2A67F9CD460</xapMM:InstanceID>
         <xapMM:DerivedFrom rdf:parseType="Resource"/>
      </rdf:Description>
      <rdf:Description rdf:about=""
            xmlns:xapTPg="http://ns.adobe.com/xap/1.0/t/pg/"
            xmlns:stDim="http://ns.adobe.com/xap/1.0/sType/Dimensions#"
            xmlns:stFnt="http://ns.adobe.com/xap/1.0/sType/Font#"
            xmlns:xapG="http://ns.adobe.com/xap/1.0/g/">
         <xapTPg:MaxPageSize rdf:parseType="Resource">
            <stDim:w>8.500000</stDim:w>
            <stDim:h>11.000000</stDim:h>
            <stDim:unit>Inches</stDim:unit>
         </xapTPg:MaxPageSize>
         <xapTPg:NPages>1</xapTPg:NPages>
         <xapTPg:HasVisibleTransparency>False</xapTPg:HasVisibleTransparency>
         <xapTPg:HasVisibleOverprint>False</xapTPg:HasVisibleOverprint>
         <xapTPg:Fonts>
            <rdf:Bag>
               <rdf:li rdf:parseType="Resource">
                  <stFnt:fontName>Myriad-Roman</stFnt:fontName>
                  <stFnt:fontFamily>Myriad</stFnt:fontFamily>
                  <stFnt:fontFace>Roman</stFnt:fontFace>
                  <stFnt:fontType>Type 1</stFnt:fontType>
                  <stFnt:versionString>001.000</stFnt:versionString>
                  <stFnt:composite>False</stFnt:composite>
                  <stFnt:fontFileName>MyriaRom; Myriad</stFnt:fontFileName>
               </rdf:li>
            </rdf:Bag>
         </xapTPg:Fonts>
         <xapTPg:PlateNames>
            <rdf:Seq>
               <rdf:li>Cyan</rdf:li>
               <rdf:li>Magenta</rdf:li>
               <rdf:li>Yellow</rdf:li>
               <rdf:li>Black</rdf:li>
               <rdf:li>PANTONE 185 U</rdf:li>
               <rdf:li>PANTONE 301 U</rdf:li>
            </rdf:Seq>
         </xapTPg:PlateNames>
         <xapTPg:SwatchGroups>
            <rdf:Seq>
               <rdf:li rdf:parseType="Resource">
                  <xapG:groupName>Default Swatch Group</xapG:groupName>
                  <xapG:groupType>0</xapG:groupType>
                  <xapG:Colorants>
                     <rdf:Seq>
                        <rdf:li rdf:parseType="Resource">
                           <xapG:swatchName>PANTONE 185 U</xapG:swatchName>
                           <xapG:type>SPOT</xapG:type>
                           <xapG:tint>100.000000</xapG:tint>
                           <xapG:mode>RGB</xapG:mode>
                           <xapG:red>254</xapG:red>
                           <xapG:green>10</xapG:green>
                           <xapG:blue>9</xapG:blue>
                        </rdf:li>
                        <rdf:li rdf:parseType="Resource">
                           <xapG:swatchName>PANTONE 301 U</xapG:swatchName>
                           <xapG:type>SPOT</xapG:type>
                           <xapG:tint>100.000000</xapG:tint>
                           <xapG:mode>RGB</xapG:mode>
                           <xapG:red>8</xapG:red>
                           <xapG:green>71</xapG:green>
                           <xapG:blue>134</xapG:blue>
                        </rdf:li>
                     </rdf:Seq>
                  </xapG:Colorants>
               </rdf:li>
            </rdf:Seq>
         </xapTPg:SwatchGroups>
      </rdf:Description>
   </rdf:RDF>
</x:xmpmeta>
                                                                                                    
                                                                                                    
                                                                                                    
                                                                                                    
                                                                                                    
                                                                                                    
                                                                                                    
                                                                                                    
                                                                                                    
                                                                                                    
                                                                                                    
                                                                                                    
                                                                                                    
                                                                                                    
                                                                                                    
                                                                                                    
                                                                                                    
                                                                                                    
                                                                                                    
                                                                                                    
                           
<?xpacket end="w"?>
	</metadata>
<g>
</g>
<g>
	<path fill="#084887" d="M124.017,22.727c0.548,0,0.984,0.445,0.984,1.002c0,0.566-0.437,1.008-0.989,1.008
		c-0.548,0-0.994-0.441-0.994-1.008c0-0.557,0.446-1.002,0.994-1.002H124.017z M124.012,22.882c-0.441,0-0.802,0.379-0.802,0.847
		c0,0.477,0.36,0.852,0.807,0.852c0.445,0.004,0.802-0.375,0.802-0.847c0-0.473-0.356-0.852-0.802-0.852H124.012z M123.825,24.313
		h-0.179v-1.119c0.094-0.013,0.183-0.026,0.316-0.026c0.169,0,0.281,0.035,0.348,0.084c0.067,0.049,0.103,0.125,0.103,0.231
		c0,0.147-0.099,0.236-0.219,0.272v0.009c0.099,0.018,0.165,0.107,0.188,0.271c0.026,0.174,0.054,0.241,0.071,0.276h-0.187
		c-0.027-0.036-0.055-0.138-0.076-0.285c-0.027-0.143-0.099-0.196-0.241-0.196h-0.124V24.313z M123.825,23.693h0.129
		c0.147,0,0.271-0.053,0.271-0.191c0-0.098-0.071-0.196-0.271-0.196c-0.059,0-0.099,0.004-0.129,0.008V23.693z"/>
</g>
<g>
	<path fill="#084887" d="M40.423,18.87c-1.004-1.291-2.056-1.673-3.682-1.673c-4.351,0-8.654,2.726-11.57,5.785
		c-2.726,2.869-5.499,7.7-5.499,11.763c0,2.341,1.1,4.924,3.777,4.924c5.642,0,12.049-9.132,14.727-13.53l-2.917,9.466
		c-0.239,0.813-0.526,1.77-0.526,2.677c0,0.813,0.43,1.387,1.291,1.387c1.913,0,4.495-2.247,5.69-3.538
		c0.574-0.621,2.534-3.109,2.534-3.968c0-0.191-0.144-0.384-0.334-0.384c-0.335,0-0.669,0.623-0.813,0.862
		c-0.574,0.908-2.821,3.92-4.016,3.92c-0.382,0-0.478-0.334-0.478-0.717c0-0.431,0.239-1.195,0.382-1.578l4.925-16.161
		c0.048-0.191,0.239-0.717,0.239-0.957c0-0.669-1.339-0.43-1.626-0.43c-1.578,0-1.53,0.239-1.96,1.721L40.423,18.87L40.423,18.87z
		 M39.706,20.591c0,2.201-3.92,7.649-5.259,9.324c-1.674,2.104-5.929,7.221-8.845,7.221c-1.53,0-2.2-1.579-2.2-2.918
		c0-3.011,2.534-7.839,4.351-10.135c2.008-2.63,5.403-5.977,8.893-5.977C38.271,18.105,39.706,18.822,39.706,20.591L39.706,20.591z"
		/>
	<path fill="#084887" d="M48.932,26.616c0.072-0.288,0.288-0.896,0.288-1.219c0-0.287-0.072-0.646-0.43-0.646
		c-1.22,0-3.228,3.155-3.694,3.155c-0.144,0-0.215-0.107-0.215-0.287c0-0.466,1.47-2.044,1.757-2.331
		c0.896-0.862,2.869-2.62,4.231-2.62c0.861,0,1.111,0.538,1.111,1.328c0,0.682-0.43,1.972-0.609,2.618l-2.654,8.606
		c-0.143,0.466-0.322,0.966-0.322,1.435c0,0.358,0.143,0.645,0.466,0.645c0.896,0,2.725-2.547,3.155-3.265
		c0.108-0.214,0.251-0.466,0.502-0.466c0.179,0,0.215,0.107,0.215,0.252c0,0.61-1.147,2.08-1.506,2.544
		c-0.861,1.076-2.869,3.157-4.375,3.157c-0.932,0-1.111-0.609-1.111-1.434c0-0.933,0.395-2.295,0.646-3.158L48.932,26.616
		L48.932,26.616z"/>
	<path fill="#084887" d="M57.969,27.369c0.18-0.645,0.43-1.435,0.43-2.08c0-0.324-0.072-0.754-0.466-0.754
		c-0.825,0-2.224,1.793-2.654,2.402l-0.322,0.467c-0.108,0.145-0.323,0.538-0.538,0.538c-0.144,0-0.251-0.108-0.251-0.25
		c0-0.575,1.47-2.295,1.829-2.689c0.753-0.861,2.402-2.333,3.586-2.333c1.076,0,1.327,1.328,1.327,2.116
		c0,0.862-0.25,1.651-0.502,2.439l-1.542,5.057c1.327-2.367,4.841-9.612,7.926-9.612c1.075,0,1.793,0.682,1.793,1.795
		c0,0.967-0.574,2.114-1.65,2.114c-1.793,0-0.789-1.756-1.756-1.756c-0.969,0-3.156,3.228-3.551,3.873
		c-1.327,2.079-3.658,6.49-4.339,8.785c-0.395,1.327-0.287,1.613-1.721,1.613c-0.323,0-1.004,0.072-1.004-0.466
		c0-0.179,0.215-0.861,0.251-1.005L57.969,27.369L57.969,27.369z"/>
	<path fill="#084887" d="M64.83,15.368h20.379l0.18,6.096h-0.837c-0.424-1.913-0.963-3.159-1.615-3.736
		c-0.654-0.577-2.027-0.866-4.122-0.866h-1.972V35.21c0,1.383,0.211,2.241,0.633,2.574c0.422,0.33,1.347,0.548,2.773,0.653v0.657
		H69.79v-0.657c1.522-0.116,2.47-0.367,2.845-0.75c0.374-0.384,0.562-1.351,0.562-2.896v-17.93h-1.972
		c-1.986,0-3.339,0.286-4.057,0.857c-0.719,0.572-1.259,1.82-1.621,3.745H64.65L64.83,15.368L64.83,15.368z"/>
	<path fill="#084887" d="M81.414,38.498c1.085-0.093,1.805-0.281,2.159-0.568c0.354-0.285,0.53-0.893,0.53-1.823v-7.889
		c0-1.149-0.108-1.97-0.324-2.464c-0.215-0.494-0.607-0.741-1.179-0.741c-0.117,0-0.271,0.014-0.463,0.043
		c-0.192,0.031-0.395,0.067-0.604,0.115v-0.598c0.667-0.23,1.353-0.468,2.056-0.711c0.703-0.242,1.188-0.415,1.458-0.518
		c0.585-0.218,1.189-0.466,1.81-0.743c0.082,0,0.131,0.032,0.148,0.093c0.017,0.062,0.026,0.193,0.026,0.393v2.927
		c0.74-1.052,1.453-1.874,2.141-2.466c0.687-0.592,1.401-0.887,2.142-0.887c0.589,0,1.068,0.181,1.439,0.545
		c0.369,0.363,0.554,0.819,0.554,1.367c0,0.488-0.141,0.898-0.423,1.232c-0.282,0.333-0.636,0.501-1.062,0.501
		c-0.437,0-0.876-0.204-1.318-0.614c-0.445-0.408-0.793-0.612-1.046-0.612c-0.404,0-0.899,0.329-1.484,0.984
		c-0.588,0.657-0.882,1.333-0.882,2.028v7.834c0,0.976,0.234,1.654,0.705,2.034c0.469,0.382,1.252,0.56,2.344,0.536v0.597h-8.727
		V38.498L81.414,38.498z"/>
	<path fill="#084887" d="M93.774,35.633c0,1.089,0.365,1.99,1.097,2.697c0.731,0.709,1.596,1.063,2.594,1.063
		c0.951,0,1.955-0.312,3.012-0.937c0.626-0.369,1.38-0.938,2.263-1.701c0.035,0.705,0.232,1.31,0.591,1.817
		c0.359,0.508,0.938,0.761,1.738,0.761c0.682,0,1.353-0.221,2.012-0.663c0.435-0.292,0.84-0.664,1.218-1.118v-0.884
		c-0.438,0.305-0.744,0.496-0.92,0.575c-0.178,0.078-0.402,0.118-0.673,0.118c-0.483,0-0.802-0.219-0.955-0.657
		c-0.096-0.258-0.143-0.728-0.143-1.408v-7.061c0-1.547-0.215-2.727-0.646-3.538c-0.803-1.478-2.335-2.217-4.593-2.217
		c-1.943,0-3.421,0.446-4.427,1.336c-1.007,0.893-1.511,1.746-1.511,2.561c0,0.42,0.141,0.801,0.423,1.145
		c0.281,0.344,0.686,0.517,1.215,0.517c0.34,0,0.633-0.076,0.879-0.228c0.434-0.255,0.651-0.707,0.651-1.357
		c0-0.091-0.03-0.304-0.09-0.635s-0.09-0.564-0.09-0.704c0-0.545,0.266-0.974,0.796-1.288c0.53-0.3,1.09-0.451,1.679-0.451
		c1.234,0,2.046,0.39,2.438,1.171c0.23,0.467,0.347,1.294,0.347,2.483v1.486c-3.189,1.206-5.316,2.162-6.383,2.863
		C94.615,32.517,93.774,33.936,93.774,35.633L93.774,35.633z M102.68,34.998c0,0.669-0.351,1.22-1.051,1.654
		c-0.7,0.433-1.432,0.651-2.195,0.651c-0.556,0-1.059-0.166-1.51-0.494c-0.695-0.505-1.042-1.291-1.042-2.359
		c0-1.327,0.833-2.512,2.5-3.558c0.868-0.54,1.967-1.032,3.298-1.479V34.998L102.68,34.998z"/>
	<path fill="#084887" d="M108.315,38.617c0.819-0.105,1.392-0.312,1.72-0.62c0.328-0.309,0.492-0.998,0.492-2.07v-8.964
		c0-0.74-0.071-1.261-0.212-1.562c-0.225-0.439-0.683-0.659-1.377-0.659c-0.106,0-0.215,0.006-0.327,0.017
		c-0.112,0.013-0.25,0.03-0.414,0.053v-0.598c0.481-0.134,1.622-0.48,3.423-1.036l1.659-0.518c0.082,0,0.132,0.028,0.149,0.084
		c0.018,0.055,0.027,0.134,0.027,0.235v2.506c1.069-0.99,1.906-1.67,2.511-2.038c0.906-0.564,1.85-0.847,2.826-0.847
		c0.79,0,1.511,0.227,2.162,0.684c1.256,0.888,1.884,2.474,1.884,4.753v8.189c0,0.837,0.169,1.443,0.509,1.815
		c0.339,0.372,0.907,0.563,1.703,0.576v0.478h-7.471v-0.478c0.843-0.118,1.433-0.355,1.768-0.713
		c0.335-0.359,0.503-1.138,0.503-2.335v-7.502c0-1.005-0.186-1.84-0.555-2.503c-0.371-0.661-1.054-0.991-2.05-0.991
		c-0.684,0-1.377,0.233-2.083,0.701c-0.395,0.271-0.903,0.715-1.527,1.334v9.857c0,0.841,0.186,1.403,0.56,1.688
		c0.374,0.287,0.964,0.441,1.771,0.464v0.478h-7.65V38.617L108.315,38.617z"/>
	<g>
		<path fill="#FE0B0A" d="M51.164,21.129c0.634,0.503,1.712,0.196,2.408-0.681c0.695-0.879,0.745-1.998,0.11-2.5
			c-0.634-0.502-1.713-0.197-2.408,0.681C50.578,19.508,50.529,20.626,51.164,21.129L51.164,21.129z"/>
		<path fill="#FE0B0A" d="M27.271,8.744c0,0-14.271,4.15-21.27,9.61c-7,5.46-5.973,8.799-2.591,10.639
			c3.279,1.782,13.739,1.665,13.739,1.665s-14.523,0.098-14.897-4.93C1.646,17.582,28.607,9.763,28.607,9.763L27.271,8.744
			L27.271,8.744z"/>
	</g>
	<path fill-rule="evenodd" clip-rule="evenodd" fill="#084887" d="M31.609,8.548l0.335,1.185l-0.727,0.115l-3.616-3.053l0.637-0.328
		l2.241,0.766l0.341-1.373l0.572-0.344l0.427,1.356c0,0,0.866-0.41,1.421-0.688c0.555-0.278,1.094-0.492,1.094-0.492l-7.231-4.488
		l0.686-0.524l7.655,2.788l2.191,0.684c0,0,3.219-1.491,4.068-1.835c0.851-0.344,1.684-0.067,2.011,0.014
		c0.327,0.082,1.113,0.555,0.05,1.194c-1.552,0.934-4.183,2.254-4.183,2.254l0.27,6.021l-0.688,0.165l-2.85-4.738L31.609,8.548
		L31.609,8.548z"/>
</g>
</svg>
