<?xml version="1.0" encoding="UTF-8"?>
<svg width="139px" height="23px" viewBox="0 0 139 23" version="1.1" xmlns="http://www.w3.org/2000/svg" xmlns:xlink="http://www.w3.org/1999/xlink">
    <!-- Generator: Sketch 49.1 (51147) - http://www.bohemiancoding.com/sketch -->
    <title>Shanghai_airlines_s</title>
    <desc>Created with Sketch.</desc>
    <defs>
        <polygon id="path-1" points="31.5854821 0.225595745 0.228715563 0.225595745 0.228715563 22.5105894 31.5854821 22.5105894 31.5854821 0.225595745"></polygon>
    </defs>
    <g id="AVIA" stroke="none" stroke-width="1" fill="none" fill-rule="evenodd">
        <g id="Shanghai_airlines_s">
            <g id="Group-3" transform="translate(107.302289, 0.263864)">
                <mask id="mask-2" fill="white">
                    <use xlink:href="#path-1"></use>
                </mask>
                <g id="Clip-2"></g>
                <path d="M0.228715563,22.5105894 C3.12832718,21.3121426 5.48456785,20.105866 6.90448581,18.5110362 L23.1894455,0.225546809 L31.5854821,0.225546809 L24.3026455,22.5105894 L0.228715563,22.5105894 Z" id="Fill-1" fill="#F14942" mask="url(#mask-2)"></path>
            </g>
            <path d="M117.578614,16.9503638 C117.663868,16.9503638 117.733443,16.9963638 117.733443,17.0521511 C117.733443,17.1079383 117.663868,17.1539383 117.578614,17.1539383 C117.49287,17.1539383 117.423295,17.1079383 117.423295,17.0521511 C117.423295,16.9963638 117.49287,16.9503638 117.578614,16.9503638 M116.418868,17.3188532 L131.97133,17.3193426 C132.317245,17.3193426 132.6661,17.0952149 132.891484,16.8843 C133.031124,16.7536404 132.896873,16.5853 132.614164,16.781534 C132.38535,16.9415553 131.904205,17.0223 131.542611,17.0223 C129.996772,17.0247468 128.6332,16.8725553 127.534209,16.6146617 L132.993886,9.02906596 C131.82875,9.03787447 130.668514,9.91578936 130.268212,10.4668106 L125.947213,16.4179383 C125.776215,16.4194064 125.605707,16.4203851 125.43471,16.4213638 L129.810585,10.3371298 C130.455869,9.43964043 131.662162,8.82500213 133.329512,8.44378936 L129.473979,8.44378936 C128.327952,8.44378936 127.207402,9.19495957 126.626794,9.98772553 L122.486102,15.6364277 C122.031904,16.2569383 121.498822,16.9851085 120.491945,16.987066 L118.144034,16.9909809 C117.900031,16.6670234 117.257687,16.6958957 117.21947,17.0247468 C116.783401,17.1123426 116.536459,17.1784064 116.418868,17.3188532" id="Fill-4" fill="#FEFEFE"></path>
            <path d="M94.0469283,15.7422766 L94.942094,8.84619149 L95.6696917,8.84619149 L100.022049,8.84619149 L99.8515412,10.0519787 L96.5815162,10.0519787 L96.3806306,11.6145106 L99.7324797,11.6145106 L99.561482,13.053234 L96.1959139,13.053234 L96.0170767,14.4474255 L99.6805435,14.4474255 L99.4634891,15.7422766 L94.0469283,15.7422766 Z M70.6912868,15.7422766 L71.4962989,8.84619149 L75.4664836,8.84619149 C77.1740109,8.84619149 77.5811716,10.0519787 77.4121338,10.8281064 C77.2102683,11.7554468 77.1019861,12.6465745 75.7197954,12.6465745 L77.7658884,15.7417872 L75.7874105,15.7417872 L73.2582123,11.5274043 L75.252859,11.5161489 C76.2528771,11.5112553 76.3366611,10.0519787 75.4488449,10.0519787 L72.9377753,10.0519787 L72.2498648,15.7422766 L70.6912868,15.7422766 Z M78.1294422,15.7422766 L78.9094662,8.84619149 L80.4739238,8.84619149 L79.8462789,14.4474255 L83.0403593,14.4474255 L82.8507429,15.7422766 L78.1294422,15.7422766 Z M83.5538424,15.7422766 L84.3343563,8.84619149 L85.8983239,8.84619149 L85.11781,15.7422766 L83.5538424,15.7422766 Z M67.4771178,15.7422766 L68.2576317,8.84619149 L69.8215993,8.84619149 L69.0410854,15.7422766 L67.4771178,15.7422766 Z M52.3862023,15.7422766 L53.1667162,8.84619149 L54.7306838,8.84619149 L53.9506598,15.7422766 L52.3862023,15.7422766 Z M36.8837164,10.0519787 L31.6606917,10.0798723 L31.1085014,14.444 L34.9552149,14.4474255 C35.4716378,14.4479149 35.6651739,12.915234 35.149241,12.913766 L33.35401,12.9098511 L33.5024693,11.7363617 L37.0963611,11.7363617 L36.7955227,14.109766 C36.7161484,14.7425106 36.5598496,15.1721702 36.3305461,15.399234 C36.0987928,15.6287447 35.6960417,15.7417872 35.121803,15.7417872 L31.0345167,15.7417872 C30.4588081,15.7417872 30.084475,15.6287447 29.9110274,15.399234 C29.7385598,15.1721702 29.6915232,14.7425106 29.7713875,14.109766 L30.2304845,10.4787021 C30.3103488,9.8503617 30.4646877,9.42217021 30.695951,9.19168085 C30.9267245,8.96119149 31.3309454,8.84619149 31.906654,8.84619149 L37.0733327,8.84619149 L36.8837164,10.0519787 Z M86.2653076,15.7417872 L87.0815889,8.84619149 L88.3403084,8.84619149 L91.3589815,13.4447234 L91.9846665,8.84619149 L93.6015503,8.84619149 L92.785759,15.7417872 L91.338403,15.7422766 L88.346678,11.3257872 L87.8826813,15.7422766 L86.2653076,15.7417872 Z M22.3523407,15.7417872 L23.168132,8.84619149 L24.4268516,8.84619149 L27.4455246,13.4447234 L28.0712097,8.84619149 L29.6880935,8.84619149 L28.8723021,15.7417872 L27.4249461,15.7422766 L24.4337111,11.3257872 L23.9692245,15.7422766 L22.3523407,15.7417872 Z M58.8287493,15.7417872 L63.0532257,8.84619149 L64.3815202,8.84619149 L66.9072887,15.7417872 L65.3594899,15.7417872 L64.8381674,14.237 L61.0816074,14.237 L60.2026105,15.7417872 L58.8287493,15.7417872 Z M61.8288037,12.9901064 L64.4236572,12.9901064 L63.5000736,10.1845957 L61.8288037,12.9901064 Z M43.7378338,15.7417872 L47.9628002,8.84619149 L49.2906047,8.84619149 L51.8168632,15.7417872 L50.2685745,15.7417872 L49.7472519,14.237 L45.9911818,14.237 L45.1116951,15.7417872 L43.7378338,15.7417872 Z M46.7383782,12.9901064 L49.3332317,12.9901064 L48.409648,10.1845957 L46.7383782,12.9901064 Z M14.1488602,15.7422766 L18.3733366,8.84619149 L19.7011412,8.84619149 L22.2273996,15.7422766 L20.6796009,15.7422766 L20.1577884,14.237 L16.4017183,14.237 L15.5222315,15.7422766 L14.1488602,15.7422766 Z M17.1489146,12.9901064 L19.7437681,12.9901064 L18.8201845,10.1845957 L17.1489146,12.9901064 Z M37.2492301,15.7417872 L38.0532623,8.84619149 L39.324231,8.84619149 L39.0126134,11.5205532 L42.9783884,11.5205532 L43.2904959,8.84619149 L44.5722438,8.84619149 L43.7687016,15.7417872 L42.4864637,15.7417872 L42.8323789,12.7742979 L38.8666039,12.7742979 L38.5206887,15.7417872 L37.2492301,15.7417872 Z M7.3638278,15.7417872 L8.16786002,8.84619149 L9.43882868,8.84619149 L9.12770104,11.5205532 L13.0929861,11.5205532 L13.4050936,8.84619149 L14.6868415,8.84619149 L13.8832993,15.7417872 L12.6010614,15.7417872 L12.9474665,12.7742979 L8.98120157,12.7742979 L8.63528643,15.7417872 L7.3638278,15.7417872 Z M107.009927,10.0519787 L102.839836,10.0534468 C102.291566,10.0519787 102.0946,11.5792766 102.65218,11.533766 L105.671343,11.533766 C106.250971,11.533766 106.628734,11.6497447 106.802182,11.878766 C106.978079,12.1107234 107.025116,12.5379362 106.945741,13.1657872 L106.82619,14.1122128 C106.746816,14.737617 106.591497,15.1653191 106.357294,15.3967872 C106.12554,15.6262979 105.71838,15.7422766 105.138751,15.7422766 L100.406671,15.7422766 L100.650674,14.4474255 L105.054477,14.4474255 C105.583149,14.4474255 105.782075,12.8765745 105.253403,12.8760851 L102.073042,12.8721702 C101.496843,12.8716809 101.12153,12.7571702 100.949062,12.5271702 C100.776105,12.2961915 100.730538,11.868 100.809912,11.2401489 L100.905945,10.4787021 C100.98532,9.8503617 101.140149,9.42217021 101.370922,9.19168085 C101.602185,8.96119149 102.005916,8.84619149 102.582115,8.84619149 L107.210812,8.84619149 L107.009927,10.0519787 Z M6.60340245,10.0519787 L2.43331213,10.0534468 C1.88504153,10.0519787 1.68758572,11.5792766 2.24565562,11.533766 L5.26432868,11.533766 C5.84395702,11.533766 6.22171988,11.6497447 6.39516741,11.878766 C6.57106477,12.1107234 6.61859136,12.5379362 6.5387271,13.1657872 L6.41917569,14.1122128 C6.34029136,14.737617 6.18448255,15.1653191 5.95076935,15.3967872 C5.719016,15.6262979 5.31185526,15.7422766 4.73173695,15.7422766 L0.000146989437,15.7422766 L0.243659489,14.4474255 L4.64746301,14.4474255 C5.17662498,14.4474255 5.37506072,12.8765745 4.84638871,12.8760851 L1.66602727,12.8721702 C1.09031864,12.8716809 0.715005616,12.7571702 0.542538011,12.5271702 C0.36958044,12.2961915 0.32352375,11.868 0.402898046,11.2401489 L0.498931144,10.4787021 C0.57830544,9.8503617 0.733134313,9.42217021 0.964397694,9.19168085 C1.19517111,8.96119149 1.59939206,8.84619149 2.17510069,8.84619149 L6.80379805,8.84619149 L6.60340245,10.0519787 Z" id="Fill-6" fill="#F14942"></path>
        </g>
    </g>
</svg>