<?xml version="1.0" encoding="utf-8"?>
<!-- Generator: Adobe Illustrator 22.1.0, SVG Export Plug-In . SVG Version: 6.00 Build 0)  -->
<svg version="1.1" id="Слой_1" xmlns="http://www.w3.org/2000/svg" xmlns:xlink="http://www.w3.org/1999/xlink" x="0px" y="0px"
	 width="152.739px" height="23px" viewBox="0 0 152.739 23" style="enable-background:new 0 0 152.739 23;" xml:space="preserve">
<style type="text/css">
	.st0{fill:#22356B;}
	.st1{fill:#FCC210;}
</style>
<g>
	<g>
		<path class="st0" d="M94.85,1.964c0.007,3.026-0.041,6.058-0.048,9.084c-2.115-3.032-4.127-6.14-6.297-9.138
			c-2.499,0.068-5.005,0.055-7.51,0.048c0,5.476,0.02,10.952-0.006,16.428h5.64c0.04-3.792,0.055-7.591,0.055-11.384
			c2.683,3.785,5.36,7.584,8.036,11.384c1.922,0,3.846,0,5.77-0.007c0-5.469-0.034-10.945,0.049-16.415
			C98.642,1.957,96.746,1.957,94.85,1.964z"/>
		<polygon class="st0" points="80.996,1.957 80.996,1.957 80.996,1.957 		"/>
		<path class="st0" d="M65.375,1.971c-2.3,5.476-4.607,10.945-6.948,16.401c1.958,0.014,3.909,0.014,5.866,0.014l1.54-3.881
			c2.033,0.007,4.073,0.007,6.106-0.035c0.547,1.301,1.075,2.602,1.588,3.916h5.846c-2.287-5.463-4.738-10.856-6.928-16.36
			C70.091,1.93,67.73,1.937,65.375,1.971z M67.134,11.082c0.596-1.568,1.184-3.135,1.78-4.696v0
			c0.602,1.561,1.198,3.128,1.787,4.703C69.509,11.082,68.325,11.082,67.134,11.082z"/>
		<path class="st0" d="M55.107,2.012c-1.54,2.184-3.211,4.265-4.826,6.387C48.679,6.256,47.098,4.1,45.503,1.95
			c-2.081,0.007-4.169,0.007-6.25,0.014h0c2.697,3.258,5.367,6.537,8.098,9.775c0.034,2.211,0.034,4.429,0.027,6.647h5.675
			c0-2.184,0-4.367,0.007-6.551c2.772-3.286,5.524-6.585,8.29-9.871C59.269,1.944,57.188,1.944,55.107,2.012z"/>
		<path class="st0" d="M38.966,6.776c-0.294-2.875-3.347-4.436-5.948-4.675c-3.874-0.315-7.769-0.068-11.651-0.144
			c-0.082,5.476-0.021,10.952-0.041,16.428h5.675c0-2.149,0-4.291,0.007-6.441c0.924,0.007,1.841,0.007,2.765,0.014
			c1.389,2.136,2.785,4.265,4.154,6.415c2.041,0.021,4.08,0.014,6.113,0.007c-1.554-2.382-3.108-4.778-4.703-7.14
			C37.029,10.302,39.089,8.987,38.966,6.776z M27.008,8.412c0-0.951-0.007-1.91-0.007-2.868h0h0l0,0
			c2.019,0.267,4.915-0.705,6.236,1.266C32.402,9.213,28.979,8.056,27.008,8.412z"/>
		<path class="st0" d="M124.654,18.386h5.669V1.957h-5.669C124.647,7.433,124.647,12.91,124.654,18.386z"/>
		<path class="st0" d="M148.029,11.233c1.691-0.951,3.745-2.232,3.635-4.463c-0.281-2.8-3.197-4.333-5.722-4.641
			c-3.957-0.37-7.941-0.082-11.911-0.171l-0.001,16.428h5.674v-6.434h2.752c1.396,2.143,2.793,4.292,4.189,6.434
			c2.033,0,4.059,0,6.092-0.007C151.171,15.997,149.624,13.601,148.029,11.233z M139.706,8.412V5.544
			c1.965,0.329,5.716-0.917,6.215,1.752C144.355,8.933,141.74,8.166,139.706,8.412z"/>
		<path class="st0" d="M109.047,1.957L109.047,1.957c-2.314,5.476-4.634,10.952-6.949,16.428c1.958,0.007,3.923,0.007,5.887-0.027
			c0.494-1.287,0.986-2.567,1.479-3.847c2.06-0.007,4.12-0.007,6.181-0.007c0.513,1.294,1.019,2.587,1.533,3.881h5.853
			c-2.362-5.483-4.668-10.98-7.064-16.442C113.661,1.957,111.353,1.957,109.047,1.957z M110.792,11.082
			c0.589-1.568,1.184-3.135,1.794-4.696c0.588,1.561,1.184,3.128,1.766,4.703C113.161,11.082,111.977,11.082,110.792,11.082z"/>
	</g>
	<g>
		<path class="st1" d="M17.743,0.067l-0.202,0.121l-0.854,0.624c0,0-0.74,0.493-2.015,0.575c-1.275,0.083-4.524-0.37-4.524-0.37
			s-1.809-0.246-3.66,0.123c-1.85,0.37-1.686,1.481-1.727,1.645C4.72,2.951,3.58,5.075,3.333,5.321
			C3.086,5.567,3.238,4.103,3.238,4.103S3.096,2.865,2.005,3.032c-0.943,0.144-1.81,0.411-1.81,0.411s-0.287,0.371-0.164,0.659
			S0.277,4.43,0.277,4.43L0.236,5.667c0.058,0.247,0.329,0.697,0.329,0.697l0.699-0.082c0,0,0.463,0.482,0.298,0.689
			C1.211,7.41,0.606,8.707,0.606,8.707S0.507,9.293,0.671,9.622c0.165,0.329,0.311,1.206,0.82,1.962
			c0.262,0.364,2.652,3.128,2.858,3.375c0.205,0.246,5.182,2.796,5.182,2.796s1.458,0.711,3.414,2.838
			c1.047,1.14,2.058,2.293,2.058,2.293s0.572,0.374,0.368-0.237c-0.411-1.234-2.385-4.03-2.385-4.03l-1.563-1.85
			c0,0-0.864-0.946-1.933-1.152c-0.723-0.138-1.522-1.192-1.522-1.192l-1.481-1.604c0,0-0.494-1.522-1.769-1.892
			c-0.55-0.16-0.626-0.535-0.626-0.535s0.051-1.892,0.215-2.633c0.164-0.74,1.316-2.509,2.674-2.919
			c1.357-0.411,3.29-0.287,3.29-0.287s3.126-0.042,5.182-1.481c2.057-1.44,2.49-2.286,2.49-2.286S18.296-0.27,17.743,0.067
			L17.743,0.067z"/>
		<path class="st1" d="M8.62,6.294c0,0-0.552,3.432-0.465,5.395c0.049,1.105-0.509,1.126-0.683,0.262
			c-0.233-1.149-0.364-4.906-0.189-5.715C7.471,5.364,8.649,4.841,8.62,6.294z M9.594,6.6c0,0-0.45,2.879-0.334,5.031
			c0.116,2.151,0.349,2.66,0.422,2.85c0.073,0.189,0.479,0.538,0.494-0.247c0.014-0.786,0.334-3.897,0.669-5.846
			c0.334-1.948,0.233-1.89,0.233-2.471c0-0.582-1.159-1.173-1.367-0.131C9.652,6.077,9.594,6.6,9.594,6.6L9.594,6.6z M12.357,5.335
			l-0.058,0.159c0,0-0.261,1.309-0.349,1.862s-0.872,4.71-0.334,7.517c0.16,1.12,0.276,1.526,0.276,1.526s0.582,1.091,0.626-0.057
			c0.044-1.149-0.218-2.835,0.436-5.903c0.654-3.068,0.829-4.217,0.829-4.726S13.288,4.172,12.357,5.335L12.357,5.335z
			 M15.061,4.565c0.306-0.509,1.353-0.902,1.513,0.189c0.159,1.09-1.104,6.195-1.164,6.543c-0.131,0.77-0.951,5.421-0.741,7.692
			c0.044,1.25-0.64,0.45-0.712-0.044c-0.116-0.407-0.408-4.144-0.073-6.514c0.334-2.37,0.712-4.406,0.756-4.712
			c0.044-0.305,0.16-1.556,0.16-2.036C14.8,5.205,15.061,4.565,15.061,4.565L15.061,4.565z"/>
	</g>
</g>
</svg>
