<?xml version="1.0" encoding="UTF-8"?>
<svg width="147px" height="23px" viewBox="0 0 147 23" version="1.1" xmlns="http://www.w3.org/2000/svg" xmlns:xlink="http://www.w3.org/1999/xlink">
    <!-- Generator: Sketch 49.1 (51147) - http://www.bohemiancoding.com/sketch -->
    <title>Rossiya_rus_s</title>
    <desc>Created with Sketch.</desc>
    <defs></defs>
    <g id="AVIA" stroke="none" stroke-width="1" fill="none" fill-rule="evenodd">
        <g id="Rossiya_rus_s" fill="#D0474A">
            <path d="M18.9368529,12.3483714 C24.4705588,12.1528714 27.8313824,9.81344286 27.8313824,7.06083571 C27.8313824,4.12546071 24.1691471,1.74619286 17.9313235,1.74619286 L17.0353235,1.74619286 L18.8713824,0.000246428571 L16.1434412,0.0105142857 L11.6440882,1.74619286 L4.47691176,1.74619286 C1.95855882,1.74619286 0.559794118,2.36226429 0.000205882353,3.56237143 L14.7315,3.56237143 C18.7931471,3.56237143 21.5231471,4.17638929 21.5231471,6.97047857 C21.5231471,9.981425 18.2405588,10.5675143 14.7315,10.5675143 L8.11567647,10.5675143 L13.9717941,16.8498 C18.9356176,22.0642286 23.5902059,22.9912107 29.3697353,22.9912107 L18.9368529,12.3483714 Z" id="Fill-1"></path>
            <path d="M46.6700294,5.94640357 C44.5136176,5.94640357 42.4218529,6.20351071 40.1797941,6.28811786 L40.1797941,18.4547071 L43.5957941,18.4547071 L43.5957941,14.905725 C44.5725,14.9956714 45.6472059,15.0642607 46.6700294,15.0642607 C51.2595588,15.0642607 54.1633235,13.7162964 54.1633235,10.4318143 C54.1633235,7.14651071 51.2595588,5.94640357 46.6700294,5.94640357 M46.2858529,13.7586 C45.1765588,13.7586 44.2793235,13.6255286 43.5957941,13.4657607 L43.5957941,7.41018929 C44.3044412,7.32476071 45.2197941,7.25165357 46.2858529,7.25165357 C48.8474412,7.25165357 50.3417353,8.28377857 50.3417353,10.4318143 C50.3417353,12.6213321 48.7407941,13.7586 46.2858529,13.7586" id="Fill-3"></path>
            <path d="M65.8621353,5.88323571 C60.8023706,5.88323571 57.4506059,8.51550357 57.4506059,12.3474679 C57.4506059,16.1798429 60.8023706,18.7698071 65.8621353,18.7698071 C70.9214882,18.7698071 74.2732529,16.1798429 74.2732529,12.3474679 C74.2732529,8.51550357 70.9214882,5.88323571 65.8621353,5.88323571 M65.8621353,17.4645571 C63.1510765,17.4645571 61.2726059,15.485325 61.2726059,12.3474679 C61.2726059,9.23137857 63.1510765,7.18848571 65.8621353,7.18848571 C68.5946059,7.18848571 70.4516647,9.23137857 70.4516647,12.3474679 C70.4516647,15.4639679 68.5946059,17.4645571 65.8621353,17.4645571" id="Fill-5"></path>
            <polygon id="Fill-7" points="124.078788 6.27407143 116.500259 15.9049107 116.500259 6.27407143 113.084671 6.27407143 113.084671 18.50925 114.450906 18.50925 116.500259 18.50925 124.078788 8.85746429 124.078788 18.50925 127.494376 18.50925 127.494376 6.27407143 126.107141 6.27407143"></polygon>
            <path d="M86.8048176,7.23087143 C89.4520529,7.23087143 91.0315824,8.641675 91.0315824,8.641675 L91.7361118,6.83083571 C91.7361118,6.83083571 89.7509941,5.88331786 86.3778176,5.88331786 C81.5107588,5.88331786 78.0947588,8.515175 78.0947588,12.3479607 C78.0947588,16.1803357 81.2966412,18.7698893 86.5907,18.7698893 C89.8358176,18.7698893 91.7151118,17.7595321 91.7151118,17.7595321 L91.7151118,15.8115143 C91.7151118,15.8115143 90.1351706,17.3065143 86.9542882,17.3065143 C83.7091706,17.3065143 81.9163471,15.4426929 81.9163471,12.3479607 C81.9163471,9.27376429 83.7519941,7.23087143 86.8048176,7.23087143" id="Fill-9"></path>
            <path d="M139.834018,5.94640357 C135.692076,5.94640357 132.831547,6.97811786 132.831547,10.0104214 C132.831547,12.0142964 133.993135,13.1955107 136.034253,13.7692786 L131.486724,18.6884036 L131.913724,18.6884036 C135.030371,18.6884036 136.567488,18.0353679 138.574018,15.6351536 L139.766488,14.1992964 C139.789547,14.1997071 139.810547,14.2005286 139.834018,14.2005286 L143.399076,14.2005286 L143.399076,18.4547071 L146.814665,18.4547071 L146.814665,14.2005286 L146.814665,6.27785 C143.932312,6.19406429 141.990018,5.94640357 139.834018,5.94640357 Z M140.218194,12.9375821 C137.997959,12.9375821 136.652724,11.8845107 136.652724,9.989475 C136.652724,8.13633214 137.997959,7.25165357 140.218194,7.25165357 C141.423429,7.25165357 142.545488,7.35474286 143.399076,7.46317143 L143.399076,12.9375821 L140.218194,12.9375821 Z" id="Fill-11"></path>
            <path d="M103.435047,7.23087143 C106.082282,7.23087143 107.661812,8.641675 107.661812,8.641675 L108.366753,6.83083571 C108.366753,6.83083571 106.381224,5.88331786 103.008047,5.88331786 C98.1409882,5.88331786 94.7249882,8.515175 94.7249882,12.3479607 C94.7249882,16.1803357 97.9268706,18.7698893 103.221341,18.7698893 C106.466047,18.7698893 108.345341,17.7595321 108.345341,17.7595321 L108.345341,15.8115143 C108.345341,15.8115143 106.7654,17.3065143 103.584518,17.3065143 C100.3394,17.3065143 98.5461647,15.4426929 98.5461647,12.3479607 C98.5461647,9.27376429 100.382224,7.23087143 103.435047,7.23087143" id="Fill-13"></path>
        </g>
    </g>
</svg>