<?xml version="1.0" encoding="utf-8"?>
<!-- Generator: Adobe Illustrator 22.1.0, SVG Export Plug-In . SVG Version: 6.00 Build 0)  -->
<svg version="1.1" id="Слой_1" xmlns="http://www.w3.org/2000/svg" xmlns:xlink="http://www.w3.org/1999/xlink" x="0px" y="0px"
	 width="597.7px" height="191.1px" viewBox="0 0 597.7 191.1" style="enable-background:new 0 0 597.7 191.1;" xml:space="preserve"
	>
<style type="text/css">
	.st0{fill:#00145E;}
	.st1{fill:#FFFFFF;}
	.st2{fill:#FF0383;}
</style>
<g>
	<g>
		<path class="st0" d="M84.3,12.1v11.3c-8.6,0.3-13.7,0.6-15.4,1c-1.6,0.4-2.8,0.9-3.5,1.4c-0.7,0.6-1.2,1.3-1.4,2.1
			c-0.6,1.5-1,4.2-1.3,8.3c-0.2,2.2-0.3,6.4-0.4,12.5c-0.3,21-0.5,32.3-0.5,33.9v51.6l0.4,23.4c0,8.8,0.4,14.5,1.3,17.1
			c0.3,1.2,0.9,2.1,1.7,2.8c0.8,0.6,2.1,1.2,3.8,1.5c1.7,0.4,6.8,0.7,15.2,0.8v11.3c-13.9-0.5-28.7-0.8-44.5-0.8
			c-13.7,0-26,0.3-36.7,0.8v-11.3c8.9-0.3,14-0.6,15.4-0.9c1.8-0.3,3-0.8,3.6-1.4c0.6-0.6,1-1.3,1.2-2c0.3-1,0.6-5,1-12
			c0.7-10.2,1-19.7,1-28.4V81.6c0-17-0.1-27.9-0.3-32.8c-0.2-10.8-0.7-17.6-1.3-20.3c-0.3-1.1-0.7-2-1.2-2.6
			c-0.6-0.6-1.6-1.1-3.1-1.5s-6.9-0.7-16.2-1.1V12.1c10.7,0.5,23.1,0.8,37,0.8C55.7,12.9,70.4,12.6,84.3,12.1z"/>
		<path class="st0" d="M113.1,191.1v-6c4.5-2.6,8.3-5.3,11.3-7.9c0.5-4.2,0.9-9.3,1-15.4c0.3-12.5,0.5-35.1,0.5-67.9
			c0-8.8-0.2-22.5-0.6-41.1c-0.3-14.3-0.7-22.5-1.4-24.6c-0.4-1.3-1.1-2.2-1.9-2.7c-1.8-1.2-8.2-2.1-19.2-2.8V12.1
			c1.9,0,3.8,0,5.9,0.1l17.7,0.5c5.8,0.1,13,0.1,21.6,0.1c8.5,0,15.2-0.1,20.1-0.3c12.3-0.5,20.3-0.8,24.1-0.8
			c14.1,0,24.9,1.5,32.6,4.3c7.6,2.9,13.2,7.1,16.8,12.6c3.5,5.5,5.3,11.7,5.3,18.5c0,7.3-2,14.2-6.1,20.5s-9.2,11.2-15.5,14.7
			c-3.8,2.1-12.1,5-25.1,8.6c15.5,1.9,26.3,4.3,32.4,7.4c6.1,3.1,11,7.9,14.6,14.4c3.7,6.5,5.5,13.8,5.5,21.8c0,8.4-1.9,16.1-5.6,23
			c-3.8,6.9-8.6,12.7-14.5,17.6c-5.9,4.9-12.7,8.7-20.4,11.6c-7.7,2.9-17.3,4.3-28.8,4.3l-43-0.8
			C133.3,190.3,124.3,190.6,113.1,191.1z M161.6,85.9L169,86c5.8,0,11.2-0.5,16.1-1.4c4.9-0.9,9-2.6,12-4.9
			c3.1-2.3,5.6-5.8,7.7-10.5c2.1-4.6,3.1-10,3.1-16.1s-1.2-11.4-3.6-15.7c-2.4-4.3-5.5-7.4-9.3-9.2s-9.6-2.8-17.3-2.8
			c-5.5,0-10.6,0.3-15.1,1c-0.5,6.1-0.8,13.2-0.9,21.2l-0.1,20V85.9z M162.1,176.8c2.8,0.6,8.1,0.9,15.9,0.9
			c10.6,0,19.1-3.5,25.6-10.4s9.8-16.9,9.8-29.9c0-9.2-1.7-16.7-5.1-22.4c-3.4-5.7-7.9-9.7-13.6-12.1c-5.6-2.3-13.4-3.5-23.3-3.5
			c-3.5,0-6.8,0.2-9.9,0.5v58.3l0.3,15.2C161.9,173.9,161.9,175,162.1,176.8z"/>
		<path class="st0" d="M283.1,191.1v-6.9c5.1-2.4,9.3-4.9,12.5-7.4c0.5-3.6,0.9-9.4,1.3-17.4c0.7-14.7,1-25.3,1-32V69.8
			c0-2.2-0.1-10.5-0.4-24.9c-0.3-9.6-0.9-15.5-1.8-17.7c-0.4-0.9-1.1-1.5-1.9-1.9c-2.3-1-8.4-1.8-18.4-2.3V12.1l29.7,0.6
			c5.9,0.1,11.5,0.1,16.9,0.1c11.7,0,24.7-0.1,39-0.4l26-0.6c3.1,0,9.3,0.2,18.7,0.5c0.9,0,2.3,0.3,4.2,0.8l0.9,1.7l-2.4,18.4
			c-0.1,1.3-0.5,7.4-1.3,18.4h-10c-0.2-10.1-0.6-16.2-1.2-18.5c-0.3-1.2-0.9-2-1.5-2.6c-1.1-0.8-4.5-1.4-10.2-2
			c-8.4-0.9-16.7-1.4-24.8-1.4c-7.6,0-15.4,0.3-23.3,0.9c-1.2,9.6-1.8,21.9-1.8,36.7v26.2c5.8,0.4,11.9,0.6,18.2,0.6
			c2,0,9-0.2,21.2-0.5c4.6-0.1,7.3-0.4,8.1-0.9c0.8-0.5,1.4-1.4,1.9-2.7c1-3.2,1.6-8.7,1.8-16.2h10.4l-0.5,28.1l0.5,28h-11
			c0.1-9.9-0.6-16-1.9-18.3c-1-1.7-2.9-2.8-5.5-3.2c-5.9-0.9-13.4-1.4-22.6-1.4c-8.3,0-15.1,0.3-20.5,0.8v54.3
			c0,6.1,0.1,11.3,0.4,15.6c6.9,0.5,15.1,0.8,24.6,0.8c9.2,0,17.7-0.3,25.5-0.9c7.8-0.6,12.6-1.4,14.4-2.6c0.6-0.3,1.2-1.1,1.7-2.3
			c1.5-4.1,3.2-11.9,4.9-23.3h10.5c-1.9,16.9-2.8,30.8-2.8,41.7l-1.7,1.7c-5.5,0.6-13.2,0.9-23.3,0.9l-20.6-0.4
			c-20.3-0.3-34.3-0.4-42-0.4C323.8,190.3,309.6,190.6,283.1,191.1z"/>
		<path class="st0" d="M432.4,191.1v-10.6c6.6-0.5,10.5-0.9,11.8-1.3c0.9-0.3,1.7-0.6,2.3-1c1.1-0.8,3.1-2.8,5.9-6.1
			c3.8-4.6,9.9-12.5,18.3-23.7c6.6-8.9,10.9-14.5,12.9-17l17.4-23.7l-9.7-17l-16.9-28.9c-5.6-9.6-11.2-17.7-16.8-24.1
			c-3.7-4.3-6.5-7-8.6-8.1c-1.4-0.7-3-1-4.9-1c-1.3,0-4.4,0.2-9.3,0.5l-1.4-9.9l33.3-7c5.5-1.1,10.3-2.2,14.5-3.2
			c2.6,1.7,4.9,3.4,6.7,5.2c1.8,1.7,3.8,4.3,6.1,7.5c2.3,3.3,5.7,8.9,10.3,16.8c0.5,0.9,2.6,4.7,6.4,11.6l14.5,26.6l16.6-24.1
			l21-30.4V12.1c7.8,0.3,13.6,0.5,17.1,0.5c3.2,0,9.2-0.2,17.8-0.5V23c-6.1,0.1-10.3,0.6-12.4,1.5c-1.3,0.6-3.4,2.6-6.4,6
			c-5.6,6.3-14.9,18.2-27.9,35.6l-14.6,19.7l-3.3,4.9c0.8,1.5,4.3,7.8,10.5,18.9c4.3,7.8,6.9,12.4,7.8,13.9l16.4,27.9
			c3.6,6.1,5.8,9.7,6.5,10.9c4.2,6.6,7.2,11,9,13.4c1,1.3,2,2.2,2.8,2.8c0.9,0.6,1.8,0.9,2.9,1.1c2.6,0.6,4.6,0.9,5.8,0.9h2.9v10.6
			c-17.4-0.3-27.2-0.4-29.3-0.4c-6.2,0-13.1,0.1-20.6,0.4c-2.7-3.5-6.9-10.4-12.5-20.6l-26.5-48.9c-6.8,9.6-11.9,16.7-15.1,21.6
			c-3.2,4.8-6.8,10.1-10.7,15.9c-3.9,5.8-8.6,13.1-14,21.9v10.1c-6.7-0.2-12.5-0.3-17.4-0.3C441.9,190.8,435.6,190.9,432.4,191.1z"
			/>
	</g>
	<g>
		<g>
			<path class="st1" d="M80.8,181.6c-13.7-0.5-28.5-0.7-44-0.7c-13.5,0-25.6,0.2-36.2,0.7v-10.3c8.7-0.3,13.6-0.6,14.9-0.9
				c1.9-0.4,3.2-0.9,3.9-1.5c0.7-0.7,1.2-1.4,1.4-2.3c0.3-1,0.6-5,1-12.1c0.7-10.2,1-19.8,1-28.4V72.6c0-16.9-0.1-27.9-0.3-32.8
				C22.1,29,21.6,22.1,21,19.4c-0.3-1.2-0.7-2.1-1.3-2.8S18,15.4,16.4,15c-1.5-0.4-6.7-0.7-15.8-1.1V3.6c10.6,0.5,22.9,0.7,36.5,0.7
				c15.3,0,30.1-0.3,43.8-0.7v10.3c-8.4,0.3-13.3,0.6-15,1s-2.9,0.9-3.7,1.5c-0.8,0.6-1.3,1.4-1.6,2.4c-0.6,1.5-1,4.2-1.3,8.4
				c-0.2,2.2-0.3,6.4-0.4,12.6c-0.3,20.8-0.5,32.3-0.5,33.9v51.6l0.4,23.4c0,8.9,0.4,14.6,1.3,17.3c0.4,1.3,1,2.3,1.9,3
				s2.2,1.2,4,1.6c1.8,0.4,6.6,0.7,14.8,0.8L80.8,181.6L80.8,181.6z"/>
			<path class="st0" d="M80.3,4.1v9.3c-8.2,0.3-12.9,0.6-14.6,1c-1.8,0.4-3,0.9-3.9,1.6c-0.8,0.7-1.4,1.5-1.7,2.6
				c-0.6,1.6-1.1,4.4-1.3,8.6c-0.2,2.2-0.3,6.5-0.4,12.6c-0.3,20.8-0.5,32.3-0.5,33.9v51.6l0.4,23.4c0,9,0.4,14.7,1.3,17.4
				c0.4,1.4,1.1,2.5,2.1,3.3c0.9,0.7,2.3,1.3,4.2,1.7c1.8,0.4,6.5,0.7,14.4,0.8v9.2c-13.6-0.5-28.2-0.7-43.5-0.7
				c-13.2,0-25.2,0.2-35.7,0.7v-9.2c8.4-0.3,13.2-0.6,14.5-0.9c2-0.4,3.4-0.9,4.1-1.7c0.8-0.7,1.3-1.6,1.5-2.5
				c0.2-0.7,0.5-2.7,1.1-12.2c0.7-10.2,1-19.8,1-28.5V72.6c0-16.9-0.1-27.9-0.3-32.8c-0.4-11-0.9-17.7-1.6-20.5
				c-0.3-1.3-0.8-2.3-1.5-3S18,15,16.3,14.5c-1.5-0.4-6.6-0.7-15.4-1.1V4.2c10.5,0.5,22.6,0.7,36,0.7C52.2,4.9,66.8,4.6,80.3,4.1
				 M81.3,3.1C67.4,3.6,52.6,3.9,37,3.9c-13.9,0-26.2-0.3-37-0.8v11.3c9.3,0.3,14.7,0.7,16.2,1.1c1.5,0.4,2.5,0.9,3.1,1.5
				s1,1.5,1.2,2.6c0.6,2.7,1.1,9.5,1.5,20.3c0.2,4.9,0.3,15.8,0.3,32.8v53.5c0,8.7-0.3,18.2-1,28.4c-0.4,7-0.8,11-1,12
				c-0.2,0.8-0.6,1.5-1.2,2c-0.6,0.6-1.9,1.1-3.6,1.4c-1.4,0.3-6.5,0.6-15.4,0.9v11.3c10.7-0.5,23-0.8,36.7-0.8
				c15.8,0,30.6,0.3,44.5,0.8v-11.3c-8.4-0.2-13.4-0.4-15.2-0.8c-1.7-0.4-3-0.9-3.8-1.5s-1.4-1.6-1.7-2.8c-0.9-2.6-1.3-8.4-1.3-17.1
				l-0.4-23.4V73.7c0-1.6,0.2-12.9,0.5-33.9c0.1-6.1,0.2-10.3,0.4-12.5c0.3-4.1,0.7-6.9,1.3-8.3c0.3-0.9,0.7-1.6,1.4-2.1
				c0.7-0.6,1.8-1,3.5-1.4c1.6-0.4,6.7-0.7,15.4-1V3.1H81.3z"/>
		</g>
		<g>
			<path class="st2" d="M137.3,180.3c-6.7,0-15.5,0.2-26.1,0.7v-4.4c4.3-2.6,8-5.2,10.9-7.8c0.2-0.2,0.3-0.4,0.3-0.6
				c0.5-4.2,0.9-9.4,1-15.4c0.3-12.5,0.5-35.3,0.5-68c0-8.7-0.2-22.5-0.6-41.1c-0.3-14.6-0.7-22.7-1.5-24.9
				c-0.5-1.5-1.3-2.6-2.4-3.2c-1.2-0.8-4.5-2-18.7-2.9V4c1.5,0,3.2,0.1,4.8,0.1l17.7,0.5c5.7,0.1,13,0.1,21.6,0.1
				c8.5,0,15.3-0.1,20.1-0.3c12.2-0.5,20.3-0.8,24-0.8c13.9,0,24.7,1.4,32.2,4.3c7.4,2.8,12.9,6.9,16.3,12.2s5.1,11.4,5.1,17.9
				c0,7.1-2,13.8-5.9,19.9s-9.1,11-15.2,14.4c-3.7,2.1-12,4.9-24.9,8.5c-0.5,0.1-0.8,0.6-0.7,1c0,0.5,0.4,0.9,0.9,0.9
				c15.3,1.9,26.1,4.3,32.1,7.3c5.9,3,10.7,7.7,14.2,14c3.6,6.3,5.4,13.5,5.4,21.3c0,8.2-1.9,15.8-5.5,22.5
				c-3.7,6.7-8.5,12.5-14.3,17.3c-5.8,4.8-12.6,8.6-20.1,11.4c-7.5,2.8-17.1,4.2-28.4,4.2C180.2,181.1,137.3,180.3,137.3,180.3z
				 M168.5,89.4c-3.5,0-6.9,0.2-10,0.5c-0.5,0.1-0.9,0.5-0.9,1v58.3l0.3,15.2c0,0.5,0.1,1.6,0.3,3.4c0,0.4,0.4,0.8,0.8,0.9
				c2.9,0.6,8.2,0.9,16.1,0.9c10.8,0,19.7-3.6,26.4-10.7c6.7-7.1,10.1-17.4,10.1-30.6c0-9.3-1.8-17.1-5.3-22.9
				c-3.5-5.9-8.2-10.1-14-12.5C186.4,90.6,178.4,89.4,168.5,89.4z M174.9,15.5c-5.6,0-10.7,0.3-15.2,1c-0.5,0.1-0.8,0.4-0.8,0.9
				c-0.5,6.2-0.8,13.3-0.9,21.3l-0.4,19.9v18.3c0,0.5,0.4,1,1,1L166,78c5.9,0,11.3-0.5,16.3-1.4c5.1-1,9.3-2.7,12.4-5.1
				c3.2-2.4,5.9-6.1,8-10.9s3.2-10.3,3.2-16.5c0-6.3-1.2-11.7-3.7-16.2s-5.8-7.7-9.8-9.6C188.6,16.5,182.6,15.5,174.9,15.5z"/>
			<path class="st1" d="M189.1,4.9c13.8,0,24.5,1.4,31.8,4.2c7.2,2.7,12.5,6.7,15.8,11.8c3.3,5.2,5,11,5,17.4
				c0,6.9-1.9,13.4-5.8,19.4s-8.8,10.7-14.8,14.1c-3.6,2-11.9,4.9-24.6,8.4c-0.9,0.3-1.5,1.1-1.5,2.1s0.8,1.7,1.8,1.8
				c15.2,1.8,25.9,4.3,31.8,7.2c5.7,2.9,10.4,7.4,13.8,13.6c3.5,6.2,5.2,13.2,5.2,20.8c0,8.1-1.8,15.5-5.4,22
				c-3.6,6.6-8.3,12.3-14,17c-5.7,4.7-12.4,8.5-19.8,11.3c-7.4,2.8-16.9,4.2-28.1,4.2l-43-0.8c-6.5,0-14.9,0.2-25.1,0.7v-2.8
				c4.2-2.5,7.7-5.1,10.6-7.6c0.4-0.3,0.6-0.8,0.7-1.3c0.5-4.2,0.9-9.4,1-15.5c0.3-12.5,0.5-35.3,0.5-68c0-8.7-0.2-22.6-0.6-41.1
				c-0.3-19.5-1-23.7-1.5-25.2c-0.6-1.7-1.5-3-2.7-3.7c-1.4-0.9-4.9-2.1-18.3-3V5.2c1.2,0,2.5,0.1,3.8,0.1l17.7,0.5
				c5.7,0.1,13,0.1,21.6,0.1c8.5,0,15.3-0.1,20.2-0.3C177.3,5.1,185.3,4.9,189.1,4.9 M166,79.1c5.9,0,11.5-0.5,16.5-1.4
				c5.2-1,9.6-2.8,12.9-5.3c3.3-2.5,6.1-6.3,8.3-11.3c2.2-4.9,3.3-10.6,3.3-16.9c0-6.5-1.3-12.1-3.8-16.6c-2.6-4.7-6-8-10.2-10
				s-10.1-2.9-18.1-2.9c-5.6,0-10.8,0.4-15.4,1c-0.9,0.1-1.6,0.9-1.7,1.8c-0.5,6.2-0.8,13.4-0.9,21.4l-0.3,19.7v18.3
				c0,1.1,0.9,2,2,2L166,79.1L166,79.1 M175,170.6c11.1,0,20.2-3.7,27.1-11.1c6.9-7.3,10.3-17.8,10.3-31.2c0-9.5-1.8-17.4-5.4-23.4
				c-3.6-6.1-8.5-10.4-14.5-12.9c-5.8-2.4-13.9-3.7-24.1-3.7c-3.5,0-6.9,0.2-10.1,0.5c-1,0.1-1.8,1-1.8,2v58.4l0.3,15.2
				c0,0.3,0,1,0.3,3.5c0.1,0.9,0.7,1.6,1.6,1.8C161.7,170.3,167,170.6,175,170.6 M189.1,2.9c-3.8,0-11.8,0.3-24.1,0.8
				C160.1,3.9,153.4,4,144.9,4c-8.6,0-15.8,0-21.6-0.1l-17.7-0.7c-2-0.1-4-0.1-5.9-0.1v10.6c11,0.7,17.4,1.6,19.2,2.8
				c0.9,0.5,1.5,1.4,1.9,2.7c0.7,2,1.2,10.2,1.4,24.6c0.4,18.6,0.6,32.3,0.6,41.1c0,32.8-0.2,55.5-0.5,67.9
				c-0.2,6.1-0.5,11.2-1,15.4c-3,2.6-6.7,5.3-11.3,7.9v6c11.2-0.5,20.2-0.8,27.1-0.8l43,0.8c11.5,0,21.1-1.4,28.8-4.3
				c7.7-2.9,14.5-6.7,20.4-11.6c5.9-4.9,10.8-10.7,14.5-17.6c3.8-6.9,5.6-14.5,5.6-23c0-8-1.8-15.3-5.5-21.8s-8.6-11.3-14.6-14.4
				c-6.1-3.1-16.9-5.5-32.4-7.4c13-3.6,21.3-6.4,25.1-8.6c6.3-3.5,11.5-8.4,15.5-14.7c4-6.3,6.1-13.1,6.1-20.5
				c0-6.8-1.8-13-5.3-18.5s-9.1-9.7-16.8-12.6C214,4.3,203.1,2.9,189.1,2.9L189.1,2.9z M166,77.1l-7.4-0.1V58.6l0.3-19.8
				c0.1-8,0.4-15.1,0.9-21.2c4.5-0.7,9.6-1,15.1-1c7.7,0,13.4,0.9,17.3,2.8c3.8,1.8,7,4.9,9.3,9.2c2.4,4.3,3.6,9.5,3.6,15.7
				c0,6.1-1,11.4-3.1,16.1s-4.7,8.1-7.7,10.5c-3.1,2.3-7.1,4-12,4.9C177.2,76.6,171.8,77.1,166,77.1L166,77.1z M175,168.6
				c-7.8,0-13-0.3-15.9-0.9c-0.2-1.8-0.3-2.9-0.3-3.3l-0.3-15.2V90.9c3.1-0.3,6.4-0.5,9.9-0.5c9.9,0,17.7,1.2,23.3,3.5
				s10.1,6.4,13.6,12.1c3.4,5.7,5.1,13.2,5.1,22.4c0,13-3.3,22.9-9.8,29.9C194.1,165.2,185.6,168.6,175,168.6L175,168.6z"/>
		</g>
		<g>
			<path class="st1" d="M364.8,181.2c-20.2-0.3-34.3-0.4-42-0.4c-2,0-16.2,0.3-42.2,0.8v-6.1c5-2.3,9.1-4.8,12.3-7.3l0.2-0.1v-0.2
				c0.5-3.6,0.9-9.4,1.3-17.4c0.7-14.6,1-25.4,1-32V60.8c0-2.2-0.1-10.6-0.4-25c-0.3-9.8-0.9-15.6-1.8-17.8c-0.5-1-1.2-1.7-2.2-2.2
				c-2.4-1.1-8.3-1.8-18.1-2.3V3.6l29.2,0.6c5.8,0.1,11.5,0.1,16.9,0.1c11.6,0,24.8-0.1,39-0.4l26-0.6c3,0,9.1,0.2,18.6,0.5
				c0.8,0,2.1,0.2,3.9,0.7l0.7,1.3l-2.4,18.3c-0.1,1.3-0.5,7.3-1.2,18h-9c-0.2-9.9-0.6-15.9-1.2-18.2c-0.4-1.3-1-2.3-1.7-2.8
				c-1.2-0.8-4.6-1.5-10.5-2.1c-8.4-0.9-16.8-1.4-24.9-1.4c-7.6,0-15.4,0.3-23.3,0.9h-0.4l-0.1,0.4c-1.2,9.6-1.8,22-1.8,36.8v26.7
				h0.5c5.8,0.4,11.9,0.6,18.2,0.6c2,0,9.1-0.2,21.2-0.5c6.3-0.1,7.8-0.6,8.4-1c0.9-0.6,1.6-1.6,2.1-3c1-3.2,1.6-8.6,1.8-15.9h9.4
				l-0.5,27.6l0.5,27.5h-10c0.1-9.8-0.6-15.7-2-18c-1.1-1.8-3.1-3-5.9-3.4c-5.9-0.9-13.5-1.4-22.7-1.4c-8.2,0-15.2,0.3-20.5,0.8
				h-0.5v54.8c0,6,0.1,11.3,0.4,15.6v0.4h0.4c6.9,0.5,15.2,0.8,24.6,0.8c9.2,0,17.8-0.3,25.6-0.9c8-0.6,12.7-1.5,14.6-2.6
				c0.7-0.4,1.3-1.2,1.9-2.5c1.5-4.1,3.2-11.8,4.8-23h9.5c-1.8,16.5-2.7,30.3-2.8,41l-1.4,1.4c-5.4,0.6-13.2,0.9-23.1,0.9
				L364.8,181.2z"/>
			<path class="st0" d="M384,3.9c3.1,0,9.1,0.2,18.7,0.5c0.5,0,1.5,0.1,3.5,0.6l0.5,1l-2.4,18.1l0,0l0,0c-0.1,1.2-0.5,7.1-1.2,17.5
				H395c-0.2-9.6-0.6-15.5-1.2-17.8c-0.4-1.4-1-2.4-1.9-3.1c-0.8-0.6-2.8-1.4-10.7-2.2c-8.4-0.9-16.8-1.4-24.9-1.4
				c-7.6,0-15.4,0.3-23.4,0.9l-0.8,0.1l-0.1,0.8c-1.2,9.6-1.8,22-1.8,36.8v26.2v0.9l0.9,0.1c5.8,0.4,11.9,0.6,18.2,0.6
				c2,0,9.1-0.2,21.3-0.5c6.4-0.1,8-0.6,8.6-1.1c1-0.6,1.8-1.7,2.3-3.2c1-3.2,1.6-8.3,1.8-15.5h8.4l-0.5,27.2l0.5,27h-9
				c0-9.6-0.6-15.4-2.1-17.8c-1.2-2-3.3-3.2-6.2-3.7c-5.9-0.9-13.6-1.4-22.8-1.4c-8.3,0-15.2,0.3-20.6,0.8l-0.9,0.1v0.9v54.2
				c0,6,0.1,11.3,0.4,15.7l0.1,0.9l0.9,0.1c6.9,0.5,15.2,0.8,24.6,0.8c9.2,0,17.8-0.3,25.6-0.9c8-0.6,12.9-1.5,14.8-2.7
				c0.8-0.5,1.5-1.4,2.1-2.8c1.5-4.1,3.1-11.5,4.8-22.6h8.5c-1.8,16.1-2.7,29.7-2.7,40.3l-1.1,1.1c-5.4,0.6-13.1,0.9-22.8,0.9
				l-20.6-0.4c-20.2-0.3-34.3-0.4-42-0.4c-2,0-16.1,0.3-41.7,0.7v-5.3c4.9-2.3,9-4.8,12.2-7.3l0.3-0.2l0.1-0.4
				c0.5-3.6,0.9-9.5,1.3-17.5c0.7-14.6,1-25.4,1-32V60.8c0-2.2-0.1-10.6-0.4-25c-0.3-9.9-0.9-15.8-1.9-18l0,0l0,0
				c-0.5-1-1.3-1.8-2.4-2.4c-2.4-1-8.2-1.8-17.8-2.3V4.2l28.7,0.6c5.8,0.1,11.5,0.1,16.9,0.1c11.6,0,24.8-0.1,39-0.4L384,3.9
				 M384,2.9l-26,0.6c-14.3,0.3-27.3,0.4-39,0.4c-5.4,0-11,0-16.9-0.1l-29.7-0.6v10.9c10,0.5,16.1,1.3,18.4,2.3
				c0.9,0.4,1.5,1.1,1.9,1.9c0.9,2.1,1.5,8,1.8,17.7c0.3,14.4,0.4,22.7,0.4,24.9v57.6c0,6.7-0.3,17.3-1,32c-0.3,8-0.8,13.8-1.3,17.4
				c-3.2,2.6-7.4,5-12.5,7.4v6.9c26.4-0.5,40.7-0.8,42.7-0.8c7.7,0,21.7,0.1,42,0.4l20.6,0.4c10.1,0,17.8-0.3,23.3-0.9l1.7-1.7
				c0-10.9,0.9-24.8,2.8-41.7h-10.5c-1.7,11.4-3.3,19.2-4.9,23.3c-0.5,1.2-1.1,2-1.7,2.3c-1.8,1.1-6.6,2-14.4,2.6
				s-16.3,0.9-25.5,0.9c-9.5,0-17.7-0.3-24.6-0.8c-0.3-4.3-0.4-9.6-0.4-15.6V96.4c5.4-0.5,12.2-0.8,20.5-0.8
				c9.2,0,16.8,0.5,22.6,1.4c2.6,0.4,4.5,1.5,5.5,3.2c1.4,2.3,2,8.4,1.9,18.3h11l-0.5-28l0.5-28.1h-10.4c-0.2,7.6-0.8,13-1.8,16.2
				c-0.4,1.3-1,2.2-1.9,2.7c-0.8,0.5-3.5,0.8-8.1,0.9c-12.2,0.3-19.3,0.5-21.2,0.5c-6.3,0-12.4-0.2-18.2-0.6V55.7
				c0-14.8,0.6-27.1,1.8-36.7c7.9-0.6,15.7-0.9,23.3-0.9c8.1,0,16.4,0.5,24.8,1.4c5.7,0.6,9.1,1.3,10.2,2c0.7,0.5,1.2,1.4,1.5,2.6
				c0.6,2.3,1,8.5,1.2,18.5h10c0.8-11,1.2-17.1,1.3-18.4l2.4-18.4l-0.9-1.7c-2-0.5-3.4-0.8-4.2-0.8C393.3,3,387.1,2.9,384,2.9
				L384,2.9z"/>
		</g>
		<g>
			<path class="st1" d="M594.1,181.6c-17-0.2-26.7-0.4-28.8-0.4c-6.1,0-13,0.1-20.4,0.4c-2.7-3.5-6.8-10.4-12.3-20.3l-26.9-49.6
				l-0.5,0.7c-6.8,9.5-11.9,16.7-15.1,21.6c-3.2,4.8-6.8,10.1-10.7,15.9c-3.9,5.8-8.6,13.1-14,21.9l-0.1,0.1v9.7
				c-6.5-0.2-12.2-0.2-16.9-0.2c-9,0-15.2,0.1-18.6,0.2V172c6.4-0.5,10.1-0.9,11.4-1.3c1-0.3,1.8-0.6,2.5-1.1c1.2-0.8,3.1-2.8,6-6.2
				c3.8-4.6,9.9-12.6,18.3-23.7c6.5-8.8,10.9-14.5,12.9-17l17.6-24l-9.9-17.3l-16.8-28.9c-5.6-9.6-11.3-17.7-16.8-24.1
				c-3.7-4.4-6.6-7.1-8.7-8.2c-1.4-0.7-3.1-1.1-5.1-1.1c-1.2,0-4.2,0.2-8.9,0.5l-1.3-8.9l32.8-6.9c5.3-1.1,10.1-2.1,14.3-3.2
				c2.5,1.6,4.7,3.3,6.4,5c1.8,1.7,3.8,4.2,6,7.5c2.3,3.3,5.7,8.9,10.3,16.8c0.5,0.8,2.6,4.6,6.4,11.6L522,68.8l17.1-24.7l21.1-30.6
				V3.6c7.5,0.3,13.1,0.5,16.6,0.5c3.2,0,9-0.2,17.3-0.5v9.9c-6,0.1-10,0.6-12.1,1.6c-1.4,0.6-3.5,2.6-6.6,6.1
				c-5.6,6.3-15,18.3-27.9,35.6l-14.6,19.7l-3.5,5.1l0.1,0.3c0.8,1.5,4.3,7.8,10.5,18.9c4.3,7.8,6.9,12.4,7.8,14l16.4,27.9
				c3.6,6,5.8,9.7,6.5,10.9c4.2,6.5,7.2,11.1,9,13.5c1.1,1.3,2,2.3,2.9,2.9c0.9,0.6,2,1,3.1,1.2c2.7,0.6,4.6,0.9,5.8,0.9h2.4v9.5
				H594.1z"/>
			<path class="st0" d="M478,1.1c2.4,1.6,4.5,3.2,6.1,4.8c1.7,1.7,3.7,4.2,6,7.4c2.2,3.3,5.7,8.9,10.3,16.8
				c0.5,0.8,2.6,4.6,6.4,11.6l14.5,26.6l0.8,1.4l0.9-1.3l16.6-24.1l21-30.4l0.2-0.3v-0.3V4.1c7.3,0.3,12.7,0.5,16.1,0.5
				c3.1,0,8.8-0.2,16.8-0.5V13c-5.8,0.1-9.7,0.7-11.8,1.6c-1.4,0.7-3.6,2.7-6.7,6.3c-5.6,6.3-15,18.3-27.9,35.6l-14.6,19.7l-3.3,4.9
				l-0.3,0.5l0.3,0.5c0.8,1.5,4.3,7.8,10.5,18.9c4.3,7.9,6.9,12.4,7.8,14l16.4,27.9c3.6,6,5.8,9.7,6.5,10.9c4.2,6.5,7.2,11.1,9,13.5
				c1.1,1.4,2.1,2.3,3,3c1,0.6,2.1,1,3.3,1.2c2.7,0.6,4.7,0.9,5.9,0.9h1.9v8.6c-16.7-0.2-26.2-0.4-28.3-0.4
				c-6.1,0-12.8,0.1-20.1,0.4c-2.7-3.6-6.8-10.3-12.1-20.1l-26.6-48.8l-0.8-1.4l-0.9,1.3c-6.8,9.5-11.9,16.7-15.1,21.6
				c-3.2,4.8-6.8,10.1-10.7,15.9c-3.9,5.8-8.6,13.1-14,21.9l-0.2,0.2v0.3v9.1c-6.3-0.2-11.8-0.2-16.4-0.2c-8.6,0-14.6,0.1-18.1,0.2
				v-8.6c6.1-0.5,9.7-0.9,11-1.2c1.1-0.3,1.9-0.7,2.6-1.2c1.2-0.8,3.2-2.9,6.1-6.3c3.8-4.6,9.9-12.6,18.3-23.7
				c6.5-8.8,10.9-14.5,12.9-17l0,0l0,0l17.4-23.7l0.4-0.5l-0.3-0.6l-9.7-17l-16.9-28.9c-5.6-9.6-11.3-17.8-16.9-24.2
				c-3.8-4.5-6.7-7.2-8.9-8.3c-1.5-0.7-3.3-1.1-5.3-1.1c-1.2,0-4,0.1-8.5,0.5l-1.1-8l32.3-6.8C469.2,3.2,473.9,2.1,478,1.1 M478.2,0
				c-4.2,1-9,2.1-14.5,3.2l-33.3,7l1.4,9.9c4.9-0.3,8.1-0.5,9.3-0.5c1.9,0,3.5,0.3,4.9,1c2,1,4.9,3.7,8.6,8.1
				c5.5,6.4,11.1,14.4,16.8,24.1l16.9,28.9l9.7,17l-17.4,23.6c-2,2.5-6.4,8.1-12.9,17c-8.4,11.2-14.5,19.1-18.3,23.7
				c-2.8,3.3-4.8,5.4-5.9,6.1c-0.6,0.4-1.4,0.8-2.3,1c-1.3,0.3-5.2,0.8-11.8,1.3V182c3.2-0.2,9.5-0.3,19.1-0.3
				c4.9,0,10.7,0.1,17.4,0.3v-10.1c5.5-8.8,10.1-16.1,14-21.9c3.9-5.8,7.4-11.1,10.7-15.9c3.2-4.8,8.3-12,15.1-21.6l26.5,48.9
				c5.6,10.2,9.8,17.1,12.5,20.6c7.5-0.3,14.4-0.4,20.6-0.4c2.1,0,11.9,0.1,29.3,0.4v-10.5h-3c-1.2,0-3.1-0.3-5.8-0.9
				c-1.1-0.2-2.1-0.5-2.9-1.1c-0.9-0.6-1.8-1.5-2.8-2.8c-1.8-2.4-4.8-6.9-9-13.4c-0.8-1.2-2.9-4.8-6.5-10.9l-16.3-27.9
				c-0.9-1.5-3.5-6.2-7.8-13.9c-6.2-11.2-9.7-17.5-10.5-18.9l3.3-4.9l14.6-19.7c13-17.4,22.3-29.3,27.9-35.6c3-3.4,5.1-5.4,6.4-6
				c2.1-0.9,6.3-1.4,12.4-1.5V3.1c-8.6,0.3-14.5,0.5-17.8,0.5c-3.6,0-9.3-0.2-17.1-0.5v10.2l-21,30.4l-16.6,24.1l-14.5-26.6
				c-3.8-6.9-5.9-10.8-6.4-11.6c-4.6-7.9-8-13.5-10.3-16.8s-4.3-5.8-6.1-7.5C483,3.5,480.8,1.7,478.2,0L478.2,0z"/>
		</g>
	</g>
</g>
</svg>
