<?xml version="1.0" encoding="utf-8"?>
<!-- Generator: Adobe Illustrator 22.1.0, SVG Export Plug-In . SVG Version: 6.00 Build 0)  -->
<svg version="1.1" id="Layer_1" xmlns="http://www.w3.org/2000/svg" xmlns:xlink="http://www.w3.org/1999/xlink" x="0px" y="0px"
	 viewBox="0 0 374.6 148" style="enable-background:new 0 0 374.6 148;" xml:space="preserve">
<style type="text/css">
	.st0{fill:#32337E;}
	.st1{fill:#FFFFFF;}
</style>
<title>logo-goair2</title>
<path class="st0" d="M172,101.1h6.8v36.4h6.6v-36.4h6.9V95H172V101.1z M157.1,101.1h2.4c0.9-0.1,1.7,0.1,2.5,0.5
	c0.7,0.4,1.2,1.1,1.4,1.8c0.3,1.2,0.4,2.3,0.4,3.5c0,1.3-0.1,2.5-0.3,3.8c-0.2,0.8-0.6,1.5-1.2,2.1c-0.7,0.5-1.6,0.7-2.5,0.6h-2.6
	L157.1,101.1L157.1,101.1z M157.1,119.6h3.1l4,17.9h6.8l-4.8-19.7c1-0.7,1.8-1.5,2.4-2.6c0.6-1.1,1.1-2.2,1.3-3.4
	c0.3-1.5,0.4-3,0.4-4.5c0.1-2.4-0.3-4.8-1.1-7.1c-0.6-1.7-1.8-3.1-3.3-4c-1.8-0.9-3.8-1.3-5.8-1.2h-9.6v42.5h6.6V119.6z
	 M124.3,137.5h6.4l1.4-9.2h6.6l1.3,9.2h6.7l-7-42.5h-8.5L124.3,137.5z M133,122.2l2.3-17.8h0.4l2.2,17.8L133,122.2z M93.6,137.5h6.1
	v-26.9c0-0.9,0-1.9-0.1-3.2s-0.2-2.7-0.3-4.2c0.1,0.3,0.2,0.9,0.3,1.9s0.4,2.4,0.7,4.1l5.1,28.2h3.2l5.4-28.2
	c0.1-0.6,0.3-1.3,0.4-2.4s0.4-2.2,0.6-3.7c-0.2,1.9-0.3,3.4-0.4,4.7s-0.1,2.2-0.1,2.8v26.8h6.1V95h-8.8l-4.1,23.6
	c-0.2,1-0.3,2.1-0.4,3.1s-0.2,2.1-0.2,3.2c0-1.1,0-2.3-0.1-3.3s-0.2-2.1-0.4-3.1L102.3,95h-8.7L93.6,137.5L93.6,137.5z M68,126.7
	c0,2.2,0.6,4.4,1.5,6.4c0.8,1.7,2.1,3.1,3.7,4c1.7,0.9,3.6,1.4,5.6,1.4c1.4,0,2.7-0.3,4-0.8c1.2-0.5,2.3-1.2,3.2-2.2
	c0.9-1,1.6-2.1,2.1-3.4c0.5-1.4,0.8-2.8,0.8-4.3c0-1.4-0.2-2.7-0.5-4c-0.3-1.2-0.8-2.3-1.5-3.3c-0.7-1.1-1.5-2.1-2.3-3.1
	c-0.9-1-1.9-2.1-3.1-3.1c-1.2-1.2-2.4-2.3-3.4-3.4c-0.9-1-1.7-2-2.3-3.2c-0.6-1.1-0.9-2.3-0.9-3.5c0-0.7,0.1-1.4,0.4-2.1
	c0.3-0.6,0.7-1,1.2-1.3c0.5-0.3,1.2-0.5,1.8-0.5c1-0.1,2,0.4,2.6,1.3c0.7,1.2,1,2.6,1,4l6.4-0.9c-0.1-2-0.6-3.9-1.6-5.7
	c-0.8-1.5-2-2.7-3.4-3.6c-1.5-0.8-3.2-1.3-4.8-1.3c-2.7,0-5.3,1.1-7.2,3c-0.9,1-1.7,2.1-2.2,3.4c-0.5,1.4-0.8,2.8-0.8,4.2
	c0,1.3,0.2,2.6,0.6,3.8c0.4,1.2,1,2.3,1.7,3.4c0.8,1.1,1.6,2.2,2.6,3.2c1,1.1,2.1,2.2,3.3,3.4c0.9,0.9,1.7,1.7,2.4,2.4
	c0.7,0.7,1.3,1.4,1.9,2.2c0.5,0.7,0.9,1.4,1.2,2.2c0.3,0.8,0.4,1.6,0.4,2.4c0,0.8-0.2,1.5-0.5,2.2c-0.3,0.6-0.8,1.1-1.4,1.4
	c-0.6,0.4-1.4,0.5-2.1,0.5c-1.2,0.1-2.4-0.5-3.1-1.6c-0.8-1.5-1.2-3.1-1.2-4.8L68,126.7L68,126.7z M33,95h6.6l4.3,17h0.5l4-17H55
	l-7.7,24.9v17.6h-6.6v-16.9L33,95L33,95z M20.1,137.5h16.7v-6.2H26.6V95h-6.5V137.5z M0,137.5h6.6v-19.1h7.6v-6.1H6.6v-11.1h10.6V95
	H0C0,95,0,137.5,0,137.5z"/>
<path class="st1" d="M305.8,13.5c3.8-5.7,9.6-9.7,16.3-11.2l0.3-0.1h0.3l47.7-2l4.1-0.2l-0.8,4.1l-18,89.8
	c-3.1,15-5.5,30.2-8.6,45.2v0.1c-0.4,1.7-0.8,6.4-0.2,8.1l1.4,0.6H192.6l8-4.5c7.6-5.3,14.1-11.9,19.4-19.5l0.1-0.1l0.1-0.1
	L305.8,13.5z"/>
<path class="st0" d="M371.5,2.2c0,0-36.5,2-47.5,2.5c-5.6,0.8-10.8,3.7-14.4,8.1l-89.7,115.5c-14.1,15.6-19.7,17.4-19.7,17.4h143.1
	L371.5,2.2z"/>
<path class="st1" d="M300.7,50.7l-17.3,1.8c0.3,1.2,0.4,2.5,0.3,3.7c-1.3-1.2-2.9-2.1-4.6-2.7l-21.8,28l3.1,23l1.2,5.5
	c0,0,2,9.7,11,10.9c13.6,0.4,16.4-6.6,16.4-6.6s0.2,2.9,0.2,4.7c0,0.8-1,5.4-7.5,6.5s-15.8-1.9-15.8-1.9l-5,10.7
	c11.4,3.9,23.8,4,35.2,0.3c13.6-3.9,11.3-17.7,11.3-17.7L300.7,50.7L300.7,50.7z M284.4,107.1L284.4,107.1c-5.1,0.8-5.2-4.6-5.2-4.6
	l-3.3-32.1c0,0-0.2-3.9,2.9-4.6s4.7,0.4,5.4,3.2c0.7,3,3.5,32.8,3.5,32.8S288.6,106.8,284.4,107.1L284.4,107.1z M342.8,113.7
	L342.8,113.7c0-0.3-0.1-0.6-0.2-0.8c-0.2-0.1-0.4-0.2-0.7-0.1l0.2,2.9c0.2,0,0.5-0.1,0.6-0.2c0.1-0.3,0.2-0.7,0.1-1L342.8,113.7
	L342.8,113.7z M353,60.3L353,60.3c-0.9-4.1-3.2-7.8-6.5-10.4c-2.8-2.8-14.5-5.2-27.9-0.6S308,70.5,308,70.5s2.5,28.7,3.7,36.2
	c2,7.9,4.1,18,18.8,18c11.1,0,15.2-1.7,16.5-2.5l8.7-44.5L353,60.3z M331.7,123.2L331.7,123.2l-0.3-2l-1.1,0.1v2l-2.4,0.2l0.6-11.2
	l2.9-0.2l2.7,10.9L331.7,123.2L331.7,123.2z M335.7,122.9L335.7,122.9l-1-11.1l2.4-0.3l1,11.2L335.7,122.9z M335.9,110.5
	L335.9,110.5c-5.1,0.8-5.2-4.6-5.2-4.6l-4.2-40.5c0,0-0.2-3.9,2.9-4.6s4.7,0.4,5.4,3.2c0.7,3,4.3,41.2,4.3,41.2
	S340.1,110.2,335.9,110.5L335.9,110.5z M343.8,122.1L343.8,122.1l-0.4-3.2c0-0.4-0.1-0.7-0.2-1.1c-0.1-0.1-0.3-0.2-0.7-0.1l0.5,4.5
	l-2.7,0.3l-1.1-11.1l1.9-0.2c0.9-0.1,1.7-0.1,2.6-0.1c0.5,0.1,0.9,0.3,1.2,0.7c0.3,0.6,0.5,1.3,0.5,2c0.1,0.6,0.1,1.2-0.1,1.8
	c-0.2,0.4-0.5,0.6-0.9,0.6c0.4,0,0.8,0.2,1.1,0.5c0.2,0.2,0.3,0.4,0.4,0.6c0.1,0.5,0.2,1.1,0.2,1.6l0.3,2.9L343.8,122.1L343.8,122.1
	z M330.4,119.2L330.4,119.2l0.7-0.1c0,0-0.3-1.8-0.5-3C330.4,117.7,330.4,119.3,330.4,119.2L330.4,119.2z"/>
</svg>
