<?xml version="1.0" encoding="utf-8"?>
<!-- Generator: Adobe Illustrator 22.1.0, SVG Export Plug-In . SVG Version: 6.00 Build 0)  -->
<svg version="1.1" id="Слой_2_1_" xmlns="http://www.w3.org/2000/svg" xmlns:xlink="http://www.w3.org/1999/xlink" x="0px"
	 y="0px" width="572px" height="180.9px" viewBox="0 0 572 180.9" style="enable-background:new 0 0 572 180.9;"
	 xml:space="preserve">
<style type="text/css">
	.st0{fill:#0094DE;}
	.st1{fill:#00AC37;}
	.st2{fill:#FAAB04;}
	.st3{fill:#FF491B;}
	.st4{fill:#FF6715;}
</style>
<g>
	<g>
		<path class="st0" d="M57.4,86.5h37.7v-18c-9-0.7-17.4-4-24.2-9.2C63.3,66.1,58.3,75.7,57.4,86.5z"/>
		<path class="st1" d="M71.8,121.7c6.8-5,14.1-8.1,23-8.6V94H57.4C58.4,105.1,63.8,114.9,71.8,121.7z"/>
		<path class="st2" d="M101.3,117.4v14c7.3-0.6,15-3.1,20.7-7C116.3,120.5,108.5,118.1,101.3,117.4z"/>
		<path class="st0" d="M95.1,64.2V48.8c-7.7,0.7-14.8,3.4-20.7,7.7C80.3,60.8,87.4,63.5,95.1,64.2z"/>
		<path class="st2" d="M139.9,94.4h-38.7v18.7c8.6,0.7,17.6,3.8,24.3,8.6C133.5,115,138.8,105.3,139.9,94.4z"/>
		<path class="st1" d="M75.4,124.4c5.9,4,11.9,6.5,19.4,7v-14.1C87.3,117.9,81.3,120.4,75.4,124.4z"/>
		<path class="st1" d="M71.8,127.1c-1.2-0.9-2.3-1.8-3.4-2.7c-8.6-7.6-14.3-18.3-15.3-30.4H0v41.5h93.3
			C85.3,134.6,78,131.6,71.8,127.1z"/>
		<path class="st3" d="M108.5,45.4c6.6,1.5,12.7,4.3,17.9,8.3c1.1,0.9,2.2,1.8,3.3,2.8c8.3,7.7,13.8,18.4,14.6,30.4h54.5V45.4H108.5
			z"/>
		<path class="st3" d="M126.4,59.3c-7,5.3-15.6,8.7-24.9,9.3v18.3H140C139.2,75.9,134.1,66.2,126.4,59.3z"/>
		<path class="st2" d="M128.9,124.4c-1.1,1-2.2,1.9-3.4,2.7c-6.6,4.8-15.6,7.9-24.3,8.6v45.2h42.5V98.1
			C141.9,108.5,136.5,117.7,128.9,124.4z"/>
		<path class="st3" d="M101.5,64.2c8-0.5,15.3-3.3,21.4-7.8c-6.1-4.4-13.5-7.2-21.4-7.8C101.5,48.6,101.5,64.2,101.5,64.2z"/>
		<path class="st0" d="M67.6,56.5c1.1-1,2.1-1.9,3.3-2.8c6.8-5.2,15.1-8.5,24.2-9.2V0H53.6v82.1C55.4,72.1,60.5,63.1,67.6,56.5z"/>
	</g>
	<g>
		<path class="st4" d="M281.6,114.7c-4.9,1.7-14.2,4-23.5,4c-12.9,0-22.1-3.2-28.6-9.4c-6.5-6.1-10-15.3-10-25.6
			c0.1-23.4,17.1-36.7,40.2-36.7c9.1,0,16.1,1.7,19.6,3.4L276,63.1c-3.9-1.7-8.6-3-16.4-3c-13.3,0-23.3,7.5-23.3,22.8
			c0,14.5,9.2,23,22.2,23c3.6,0,6.5-0.4,7.8-1V90.1h-10.9V77.7h26.3v37H281.6z"/>
		<path class="st4" d="M288.8,47.6h15.9v57h28V118h-43.9V47.6z"/>
		<path class="st4" d="M397.3,82.1c0,23.1-13.9,37-34.5,37c-20.9,0-33.1-15.8-33.1-35.9c0-21,13.5-36.8,34.3-36.8
			C385.5,46.5,397.3,62.6,397.3,82.1z M346.5,83c0,13.8,6.5,23.5,17.1,23.5c10.8,0,16.9-10.2,16.9-23.8c0-12.7-6-23.5-16.9-23.5
			C352.8,59.1,346.5,69.3,346.5,83z"/>
		<path class="st4" d="M402.7,48.6c4.2-0.8,12.6-1.5,20.5-1.5c9.7,0,15.7,1,20.8,3.9c4.9,2.6,8.4,7.4,8.4,13.9c0,6.2-3.6,12-11.6,15
			v0.3c8,2.1,14,8.2,14,17.2c0,6.4-3,11.5-7.3,14.9c-5.2,4.1-13.7,6.4-27.7,6.4c-7.8,0-13.6-0.5-17.2-1V48.6H402.7z M418.4,75.5h5.2
			c8.4,0,12.8-3.5,12.8-8.7c0-5.3-4.1-8.2-11.2-8.2c-3.5,0-5.4,0.2-6.7,0.5L418.4,75.5L418.4,75.5z M418.4,106.7
			c1.5,0.3,3.4,0.3,6.1,0.3c7.2,0,13.6-2.8,13.6-10.2c0-7-6.3-9.9-14.2-9.9h-5.4v19.8H418.4z"/>
		<path class="st4" d="M476.3,47.6v40.5c0,12.2,4.7,18.4,12.8,18.4c8.4,0,12.9-5.9,12.9-18.4V47.6h15.9v39.5c0,21.7-11,32-29.4,32
			c-17.8,0-28.1-9.9-28.1-32.2V47.6H476.3z"/>
		<path class="st4" d="M527,101.6c4.2,2.3,10.8,4.4,17.6,4.4c7.3,0,11.2-3,11.2-7.7c0-4.3-3.4-6.9-11.8-9.8
			c-11.7-4.2-19.4-10.6-19.4-20.8c0-12,10.1-21.1,26.6-21.1c8,0,13.8,1.6,18,3.5l-3.5,12.8c-2.8-1.3-7.9-3.3-14.7-3.3
			c-6.9,0-10.2,3.2-10.2,6.8c0,4.5,3.9,6.4,13,9.9C566.3,81,572,87.4,572,97.4c0,11.7-9,21.8-28.4,21.8c-8,0-16-2.2-19.9-4.4
			L527,101.6z"/>
	</g>
</g>
</svg>
