<?xml version="1.0" encoding="utf-8"?>
<!-- Generator: Adobe Illustrator 22.1.0, SVG Export Plug-In . SVG Version: 6.00 Build 0)  -->
<svg version="1.1" id="Слой_1" xmlns="http://www.w3.org/2000/svg" xmlns:xlink="http://www.w3.org/1999/xlink" x="0px" y="0px"
	 width="566.929px" height="228.713px" viewBox="0 0 566.929 228.713" style="enable-background:new 0 0 566.929 228.713;"
	 xml:space="preserve">
<style type="text/css">
	.st0{fill-rule:evenodd;clip-rule:evenodd;fill:#312783;stroke:#000000;stroke-width:0.216;stroke-miterlimit:22.9256;}
	.st1{fill-rule:evenodd;clip-rule:evenodd;fill:#FFFFFF;}
</style>
<g>
	<g>
		<path class="st0" d="M269.483,0.108c45.361,0,82.357,36.672,82.357,81.635c0,44.963-36.997,81.635-82.357,81.635
			c-45.361,0-82.358-36.672-82.358-81.635C187.126,36.78,224.122,0.108,269.483,0.108L269.483,0.108z"/>
		<path class="st1" d="M280.196,99.362c5.541,2.295,8.892,1.827,13.387,1.673c3.718-0.127,8.358,0.229,10.876-2.51
			c6.32-6.877,10.39-22.473,20.916-24.263c6.88-1.17,10.402-7.267,9.069-11.713c-1.929-6.432-12.339-8.196-16.599-13.387
			c-4.267-5.199-14.368-8.31-20.079-4.314c-2.182,1.527-11.277,2.005-16.733,0.131l-0.442-17.569
			c-0.128-5.121,2.144-10.456,0.442-15.896c-3.043-9.725-23.702-12.079-23.647-2.51l0.221,38.485
			c-4.533,1.132-7.897,2.445-11.713,3.306c-4.902,1.105-9.253,3.033-14.223,3.784c-4.418,0.669-9.132-0.696-13.386-2.07
			c-3.192-1.032-7.338,0.29-8.366,5.02c-1.072,4.935-1.616,11.229,1.673,15.06c9.318,10.85,17.757,21.583,25.099,31.792
			c2.63,3.657,9.46,8.298,12.55,5.02c3.474-3.685,6.125-5.544,10.434-6.693v29.282c0,8.665,2.548,17.279,4.625,24.263
			c1.992,6.697,15.896,1.23,15.896-5.857V99.362L280.196,99.362z M280.72,66.392l0.235,15.197c1.807,1.123,4.548,1.14,6.539,0.309
			c2.079-0.868,2.945-3.429,4.618-4.939c1.418-1.28,3.901-1.624,4.618-3.395c0.814-2.011,0.86-4.892-0.617-6.482
			c-1.833-1.974-5.004-2.362-7.696-2.47C285.781,64.508,283.312,64.566,280.72,66.392L280.72,66.392z M260.29,69.105v14.609
			c-1.573,1.123-5.489,3.02-7.478,2.191c-2.077-0.867-3.063-1.55-4.735-3.057c-1.416-1.278-4.488-2.918-5.205-4.688
			c-0.813-2.01-0.742-3.129,0.733-4.718c1.833-1.972,6.297-2.952,8.987-3.058C255.228,70.279,257.698,67.279,260.29,69.105
			L260.29,69.105z"/>
	</g>
	<g>
		<path d="M193.959,196.347c0.027-0.104-0.014-0.185-0.13-0.249c-0.108-0.064-0.288-0.092-0.53-0.092
			c-0.083,0-0.306,0.006-0.677,0.018c-1.676,0.081-3.272,0.121-4.802,0.121c-1.662,0-3.307-0.041-4.92-0.121
			c-0.267-0.012-0.432-0.018-0.488-0.018c-0.242,0-0.437,0.029-0.577,0.087c-0.145,0.052-0.227,0.127-0.25,0.22
			c-0.028,0.11,0.025,0.197,0.17,0.255c0.139,0.052,0.429,0.11,0.878,0.168c0.327,0.023,0.615,0.058,0.86,0.104
			c0.246,0.041,0.452,0.099,0.608,0.168c0.449,0.191,0.723,0.475,0.828,0.845c0.097,0.376,0.031,1.007-0.198,1.898l-1.79,6.95h-15
			l1.79-6.95c0.238-0.926,0.541-1.591,0.905-2.008c0.362-0.411,0.87-0.689,1.532-0.839c0.299-0.058,0.559-0.098,0.781-0.128
			c0.222-0.029,0.419-0.04,0.599-0.04c0.045-0.012,0.097-0.023,0.169-0.035c0.578-0.093,0.888-0.22,0.931-0.388
			c0.024-0.092-0.019-0.168-0.137-0.22c-0.11-0.058-0.289-0.087-0.532-0.087c-0.056,0-0.223,0.006-0.496,0.018
			c-1.655,0.081-3.321,0.121-4.983,0.121c-1.53,0-3.106-0.041-4.74-0.121c-0.364-0.012-0.584-0.018-0.667-0.018
			c-0.242,0-0.437,0.029-0.578,0.092c-0.148,0.064-0.232,0.145-0.258,0.249c-0.043,0.168,0.258,0.289,0.902,0.37
			c0.052,0.012,0.092,0.018,0.12,0.018c0.333,0.023,0.622,0.058,0.868,0.098c0.244,0.046,0.465,0.104,0.648,0.173
			c0.45,0.191,0.723,0.475,0.821,0.845c0.09,0.376,0.024,1.007-0.205,1.898l-4.028,15.636c-0.242,0.937-0.507,1.591-0.789,1.962
			c-0.288,0.364-0.714,0.648-1.28,0.856c-0.206,0.075-0.453,0.145-0.721,0.191c-0.27,0.052-0.576,0.086-0.922,0.11
			c-0.027,0-0.063,0.006-0.108,0.017c-0.696,0.069-1.073,0.214-1.131,0.44c-0.033,0.127,0.006,0.22,0.121,0.283
			c0.108,0.064,0.288,0.092,0.53,0.092c0.055,0,0.216-0.006,0.475-0.017c1.648-0.104,3.323-0.156,5.013-0.156
			c1.676,0,3.317,0.052,4.911,0.156c0.267,0.012,0.432,0.017,0.487,0.017c0.243,0,0.438-0.034,0.581-0.104
			c0.148-0.063,0.234-0.156,0.264-0.272c0.058-0.226-0.235-0.376-0.872-0.457c-0.041,0-0.069,0-0.083,0
			c-0.27,0-0.533-0.029-0.795-0.087c-0.264-0.052-0.506-0.133-0.721-0.237c-0.446-0.203-0.725-0.492-0.829-0.868
			c-0.102-0.382-0.041-1.024,0.192-1.927l1.96-7.61h15l-1.96,7.61c-0.242,0.937-0.507,1.591-0.797,1.962
			c-0.295,0.364-0.706,0.642-1.241,0.839c-0.237,0.087-0.492,0.162-0.753,0.209c-0.262,0.052-0.569,0.086-0.928,0.11
			c-0.014,0-0.05,0.006-0.109,0.017c-0.692,0.081-1.069,0.226-1.124,0.44c-0.03,0.116,0.009,0.208,0.124,0.272
			c0.107,0.07,0.285,0.104,0.527,0.104c0.056,0,0.223-0.006,0.497-0.017c1.647-0.104,3.315-0.156,4.992-0.156
			c1.689,0,3.338,0.052,4.932,0.156c0.253,0.012,0.411,0.017,0.466,0.017c0.243,0,0.437-0.029,0.578-0.092
			c0.148-0.064,0.234-0.156,0.266-0.283c0.058-0.226-0.243-0.371-0.904-0.44c-0.038-0.012-0.072-0.017-0.099-0.017
			c-0.333-0.023-0.622-0.058-0.865-0.11c-0.245-0.046-0.455-0.116-0.622-0.191c-0.459-0.208-0.739-0.492-0.839-0.856
			c-0.092-0.371-0.02-1.024,0.221-1.962l4.028-15.636c0.229-0.891,0.489-1.522,0.787-1.898c0.289-0.371,0.708-0.654,1.242-0.845
			c0.219-0.069,0.469-0.127,0.737-0.173c0.266-0.041,0.573-0.075,0.918-0.098c0.028,0,0.071-0.006,0.13-0.018
			C193.549,196.648,193.913,196.527,193.959,196.347z"/>
		<path d="M282.545,218.47c-0.265-0.023-0.505-0.058-0.721-0.104c-0.218-0.04-0.411-0.098-0.566-0.168
			c-0.442-0.168-0.802-0.463-1.082-0.88s-0.512-1.053-0.702-1.898l-4.207-19.345c-0.068-0.272-0.144-0.463-0.242-0.567
			c-0.089-0.11-0.215-0.162-0.36-0.162c-0.152,0-0.297,0.052-0.44,0.15c-0.138,0.104-0.292,0.272-0.464,0.509l-14.036,18.465
			c-0.839,1.105-1.542,1.927-2.108,2.459c-0.558,0.527-1.102,0.891-1.622,1.082c-0.262,0.104-0.52,0.191-0.794,0.26
			c-0.269,0.075-0.59,0.139-0.971,0.197c-0.352,0.047-0.587,0.098-0.721,0.162c-0.134,0.063-0.21,0.144-0.235,0.243
			c-0.036,0.139,0.029,0.237,0.185,0.301c0.164,0.064,0.412,0.093,0.751,0.093c0.16,0,0.637-0.023,1.438-0.069
			c0.795-0.046,1.493-0.069,2.089-0.069c0.783,0,1.598,0.034,2.438,0.104c0.841,0.07,1.296,0.104,1.365,0.104
			c0.257,0,0.458-0.029,0.611-0.087c0.147-0.058,0.234-0.127,0.258-0.22c0.034-0.133,0.007-0.243-0.093-0.313
			c-0.098-0.075-0.312-0.133-0.653-0.179c-0.097,0-0.204-0.017-0.334-0.046c-0.124-0.028-0.312-0.081-0.561-0.162
			c-0.438-0.156-0.72-0.376-0.869-0.66c-0.141-0.283-0.153-0.642-0.04-1.082c0.067-0.261,0.186-0.561,0.365-0.909
			c0.171-0.342,0.393-0.695,0.667-1.059l2.807-3.825h10.519l0.835,4.23c0.078,0.422,0.125,0.833,0.125,1.238
			c0.005,0.411-0.023,0.735-0.087,0.984c-0.094,0.364-0.344,0.636-0.755,0.833c-0.409,0.191-1.017,0.318-1.831,0.387
			c-0.513,0.081-0.857,0.156-1.036,0.232c-0.184,0.069-0.284,0.162-0.309,0.26c-0.019,0.127,0.054,0.22,0.217,0.283
			c0.171,0.064,0.426,0.092,0.78,0.092c0.568,0,1.422-0.034,2.554-0.104c1.133-0.069,1.973-0.104,2.513-0.104
			c0.838,0,1.843,0.023,3.008,0.069c1.166,0.046,1.907,0.069,2.233,0.069c0.256,0,0.464-0.029,0.633-0.093
			c0.162-0.064,0.259-0.145,0.286-0.249c0.031-0.122-0.005-0.22-0.105-0.289C283.17,218.574,282.928,218.516,282.545,218.47z
			 M264.428,209.79l7.578-10.034l2.062,10.034H264.428z"/>
		<path d="M214.352,219.338c0.609,0,1.002-0.046,1.17-0.133c0.176-0.093,0.317-0.371,0.436-0.834
			c0.107-0.417,0.289-1.013,0.545-1.794c0.257-0.781,0.431-1.348,0.524-1.713c0.113-0.44,0.158-0.723,0.129-0.851
			c-0.028-0.133-0.129-0.197-0.309-0.197c-0.243,0-0.526,0.295-0.836,0.88c-0.317,0.585-0.676,1.094-1.085,1.522
			c-0.74,0.776-1.672,1.331-2.801,1.655c-1.123,0.33-2.703,0.492-4.732,0.492c-2.486,0-4.049-0.278-4.704-0.827
			c-0.646-0.556-0.679-1.962-0.094-4.23l1.488-5.775h0.748c1.676,0,2.903,0.156,3.681,0.468c0.771,0.313,1.276,0.828,1.491,1.551
			c0.095,0.33,0.141,0.741,0.153,1.233c0.011,0.492,0.107,0.741,0.301,0.741c0.138,0,0.258-0.058,0.369-0.168
			c0.113-0.116,0.192-0.266,0.242-0.457c0.012-0.046,0.103-0.561,0.27-1.534c0.169-0.978,0.375-1.939,0.616-2.876
			c0.175-0.677,0.403-1.429,0.685-2.257c0.281-0.821,0.441-1.308,0.478-1.452c0.051-0.197,0.047-0.342-0.01-0.445
			c-0.051-0.098-0.162-0.151-0.321-0.151c-0.243,0-0.526,0.347-0.849,1.036c-0.315,0.689-0.669,1.227-1.051,1.609
			c-0.628,0.637-1.397,1.094-2.322,1.377c-0.925,0.283-2.354,0.457-4.276,0.526l2.055-7.98c0.223-0.868,0.499-1.401,0.825-1.591
			s1.252-0.289,2.775-0.289h0.326c2.521,0,4.251,0.139,5.211,0.416c0.953,0.278,1.6,0.752,1.924,1.429
			c0.176,0.365,0.245,0.851,0.198,1.464c-0.042,0.619,0.073,0.926,0.343,0.926c0.159,0,0.287-0.04,0.386-0.127
			c0.098-0.087,0.17-0.232,0.222-0.434c0.017-0.064,0.05-0.301,0.097-0.7c0.049-0.405,0.122-0.77,0.206-1.094
			c0.1-0.388,0.222-0.781,0.364-1.198c0.148-0.411,0.228-0.642,0.238-0.683c0.085-0.33,0.01-0.55-0.23-0.666
			c-0.241-0.11-0.926-0.168-2.048-0.168h-0.907c-1.385,0-3.211,0.018-5.498,0.052c-2.28,0.035-3.885,0.052-4.806,0.052
			c-1.96,0-3.916-0.041-5.876-0.121c-0.329-0.012-0.536-0.018-0.605-0.018c-0.242,0-0.437,0.029-0.578,0.092
			c-0.148,0.064-0.231,0.145-0.258,0.249c-0.043,0.168,0.258,0.289,0.901,0.37c0.053,0.012,0.092,0.018,0.121,0.018
			c0.333,0.023,0.622,0.058,0.866,0.104c0.246,0.041,0.466,0.099,0.649,0.168c0.442,0.191,0.709,0.475,0.807,0.845
			c0.104,0.376,0.038,1.007-0.193,1.904l-4.028,15.635c-0.241,0.938-0.505,1.586-0.788,1.956c-0.288,0.364-0.714,0.648-1.279,0.85
			c-0.208,0.081-0.453,0.145-0.723,0.197c-0.27,0.052-0.577,0.086-0.922,0.11c-0.028,0-0.064,0.006-0.109,0.017
			c-0.696,0.069-1.073,0.214-1.131,0.44c-0.033,0.127,0.006,0.22,0.121,0.283c0.109,0.064,0.288,0.092,0.53,0.092
			c0.056,0,0.216-0.006,0.475-0.017c1.648-0.104,3.323-0.156,5.013-0.156c4.923,0,9.661,0.052,14.211,0.156
			C213.827,219.332,214.221,219.338,214.352,219.338z"/>
		<path d="M239.764,196.313c0.013-0.104-0.037-0.179-0.155-0.231c-0.111-0.052-0.285-0.075-0.513-0.075
			c-0.069,0-0.237,0.006-0.51,0.018c-1.655,0.081-3.314,0.121-4.976,0.121c-1.516,0-3.085-0.041-4.712-0.121
			c-0.364-0.012-0.591-0.018-0.688-0.018c-0.229,0-0.416,0.029-0.571,0.092c-0.148,0.064-0.238,0.145-0.264,0.249
			c-0.044,0.168,0.258,0.289,0.895,0.37c0.053,0.012,0.099,0.018,0.141,0.018c0.32,0.023,0.602,0.058,0.846,0.104
			c0.246,0.041,0.459,0.099,0.642,0.168c0.449,0.191,0.723,0.475,0.828,0.845c0.096,0.376,0.031,1.007-0.2,1.904l-5.932,23.031
			c-0.499,1.939-1.173,3.264-2.023,3.981c-0.843,0.718-2.085,1.076-3.719,1.076c-0.817,0-1.408-0.127-1.791-0.388
			c-0.376-0.26-0.677-0.868-0.887-1.829c-0.079-0.336-0.236-0.59-0.483-0.758c-0.248-0.168-0.565-0.255-0.959-0.255
			c-0.54,0-1.001,0.122-1.375,0.365c-0.374,0.243-0.609,0.561-0.71,0.955c-0.215,0.833,0.165,1.51,1.136,2.014
			c0.97,0.509,2.386,0.764,4.256,0.764c2.015,0,3.749-0.249,5.213-0.746c1.458-0.498,2.729-1.268,3.807-2.303
			c0.535-0.544,0.978-1.163,1.332-1.863c0.353-0.7,0.719-1.771,1.089-3.206l5.368-20.838c0.246-0.955,0.544-1.632,0.898-2.037
			c0.354-0.405,0.854-0.677,1.499-0.816c0.297-0.052,0.559-0.098,0.781-0.128c0.222-0.029,0.426-0.04,0.62-0.04
			c0.059-0.012,0.117-0.023,0.189-0.035C239.41,196.608,239.72,196.48,239.764,196.313z"/>
		<path d="M252.381,199.756c0.24-0.932,0.543-1.597,0.906-2.014c0.362-0.411,0.87-0.689,1.532-0.839
			c0.242-0.052,0.496-0.098,0.753-0.128c0.257-0.029,0.536-0.04,0.834-0.04c0.059-0.012,0.138-0.023,0.231-0.035
			c0.675-0.093,1.033-0.22,1.076-0.388c0.024-0.092-0.075-0.168-0.29-0.22c-0.214-0.058-0.462-0.087-0.746-0.087
			c-0.069,0-0.237,0.006-0.51,0.018c-1.69,0.081-3.356,0.121-5.003,0.121c-1.531,0-3.106-0.041-4.719-0.121
			c-0.351-0.012-0.571-0.018-0.668-0.018c-0.284,0-0.563,0.035-0.837,0.104c-0.272,0.064-0.425,0.145-0.449,0.238
			c-0.044,0.168,0.32,0.289,1.081,0.37c0.067,0.012,0.113,0.018,0.141,0.018c0.395,0.023,0.74,0.058,1.018,0.104
			c0.281,0.041,0.508,0.099,0.698,0.168c0.46,0.203,0.746,0.492,0.848,0.874c0.104,0.376,0.047,1.001-0.178,1.875l-4.026,15.63
			c-0.229,0.891-0.506,1.533-0.819,1.915c-0.313,0.382-0.785,0.683-1.408,0.897c-0.433,0.151-1.047,0.249-1.845,0.307
			c-0.028,0-0.048,0-0.062,0c-0.014,0-0.042,0-0.083,0c-0.734,0.081-1.133,0.231-1.191,0.457c-0.03,0.116,0.023,0.208,0.152,0.272
			c0.134,0.07,0.326,0.104,0.582,0.104c0.069,0,0.251-0.006,0.552-0.017c1.758-0.104,3.517-0.156,5.283-0.156
			c1.745,0,3.484,0.052,5.216,0.156c0.295,0.012,0.473,0.017,0.543,0.017c0.242,0,0.445-0.034,0.602-0.104
			c0.161-0.063,0.255-0.156,0.284-0.272c0.055-0.214-0.247-0.359-0.905-0.44c-0.031-0.012-0.065-0.017-0.093-0.017
			c-0.375-0.023-0.706-0.058-0.99-0.11c-0.284-0.052-0.543-0.122-0.776-0.214c-0.491-0.191-0.796-0.486-0.923-0.88
			c-0.12-0.393-0.065-1.036,0.161-1.915L252.381,199.756z"/>
		<path d="M87.569,218.47c-0.264-0.023-0.505-0.058-0.721-0.104c-0.218-0.04-0.411-0.098-0.566-0.168
			c-0.442-0.168-0.802-0.463-1.082-0.88c-0.28-0.417-0.512-1.053-0.702-1.898l-4.207-19.345c-0.068-0.272-0.144-0.463-0.242-0.567
			c-0.089-0.11-0.215-0.162-0.36-0.162c-0.152,0-0.297,0.052-0.44,0.15c-0.138,0.104-0.292,0.272-0.464,0.509l-14.036,18.465
			c-0.838,1.105-1.542,1.927-2.108,2.459c-0.558,0.527-1.102,0.891-1.622,1.082c-0.263,0.104-0.52,0.191-0.794,0.26
			c-0.269,0.075-0.59,0.139-0.971,0.197c-0.352,0.047-0.587,0.098-0.721,0.162c-0.134,0.063-0.21,0.144-0.235,0.243
			c-0.036,0.139,0.029,0.237,0.185,0.301c0.164,0.064,0.412,0.093,0.751,0.093c0.16,0,0.637-0.023,1.438-0.069
			c0.795-0.046,1.493-0.069,2.089-0.069c0.783,0,1.598,0.034,2.438,0.104c0.841,0.07,1.296,0.104,1.365,0.104
			c0.257,0,0.458-0.029,0.611-0.087c0.147-0.058,0.234-0.127,0.258-0.22c0.034-0.133,0.007-0.243-0.093-0.313
			c-0.098-0.075-0.312-0.133-0.653-0.179c-0.097,0-0.204-0.017-0.334-0.046c-0.124-0.028-0.312-0.081-0.561-0.162
			c-0.438-0.156-0.72-0.376-0.869-0.66c-0.142-0.283-0.153-0.642-0.04-1.082c0.067-0.261,0.186-0.561,0.365-0.909
			c0.171-0.342,0.393-0.695,0.667-1.059l2.807-3.825h10.519l0.835,4.23c0.078,0.422,0.125,0.833,0.125,1.238
			c0.005,0.411-0.023,0.735-0.087,0.984c-0.094,0.364-0.344,0.636-0.755,0.833c-0.409,0.191-1.016,0.318-1.831,0.387
			c-0.513,0.081-0.857,0.156-1.036,0.232c-0.184,0.069-0.284,0.162-0.309,0.26c-0.019,0.127,0.054,0.22,0.217,0.283
			c0.171,0.064,0.426,0.092,0.78,0.092c0.568,0,1.422-0.034,2.554-0.104c1.133-0.069,1.973-0.104,2.513-0.104
			c0.838,0,1.843,0.023,3.008,0.069c1.166,0.046,1.908,0.069,2.233,0.069c0.256,0,0.464-0.029,0.633-0.093
			c0.162-0.064,0.259-0.145,0.286-0.249c0.031-0.122-0.005-0.22-0.105-0.289C88.193,218.574,87.952,218.516,87.569,218.47z
			 M69.452,209.79l7.578-10.034l2.062,10.034H69.452z"/>
		<path d="M153.587,212.874c-0.208,0-0.518,0.37-0.932,1.117c-0.414,0.746-0.862,1.383-1.327,1.898
			c-0.813,0.897-1.8,1.528-2.957,1.909c-1.163,0.376-2.716,0.567-4.661,0.567h-7.77l21.333-21.388
			c0.036-0.034,0.093-0.092,0.161-0.168c0.22-0.208,0.339-0.347,0.359-0.428c0.024-0.092-0.041-0.162-0.193-0.22
			c-0.144-0.058-0.358-0.087-0.642-0.087h-17.735c-0.429,0-0.729,0.035-0.887,0.11c-0.165,0.075-0.279,0.249-0.349,0.521
			l-0.196,0.764c-0.183,0.712-0.413,1.441-0.695,2.188c-0.283,0.746-0.426,1.14-0.438,1.186c-0.055,0.214-0.065,0.387-0.031,0.526
			c0.029,0.133,0.107,0.203,0.232,0.203c0.242,0,0.538-0.342,0.903-1.03c0.356-0.683,0.74-1.233,1.145-1.649
			c0.682-0.712,1.461-1.209,2.331-1.493c0.87-0.284,2.159-0.423,3.862-0.423h7.444l-21.456,21.625
			c-0.089,0.104-0.166,0.185-0.217,0.249c-0.051,0.064-0.077,0.11-0.085,0.144c-0.027,0.105,0.018,0.174,0.139,0.214
			c0.114,0.041,0.38,0.058,0.788,0.058h19.065c0.548,0,0.893-0.052,1.06-0.162c0.16-0.11,0.289-0.342,0.383-0.706l0.161-0.625
			c0.231-0.897,0.532-1.823,0.906-2.79c0.366-0.966,0.563-1.487,0.579-1.551c0.049-0.191,0.052-0.335,0.006-0.428
			C153.831,212.921,153.733,212.874,153.587,212.874z"/>
		<path d="M118.998,196.012c-0.166,0-0.396,0.22-0.71,0.659c-0.307,0.44-0.586,0.66-0.828,0.66c-0.125,0-0.41-0.104-0.874-0.318
			c-2.119-0.995-4.38-1.493-6.776-1.493c-2.632,0-5.123,0.451-7.468,1.354c-2.339,0.909-4.399,2.21-6.183,3.917
			c-1.103,1.082-2.024,2.24-2.755,3.466c-0.739,1.227-1.282,2.529-1.636,3.906c-0.455,1.765-0.515,3.368-0.176,4.82
			c0.333,1.452,1.053,2.714,2.154,3.79c0.999,0.96,2.303,1.707,3.902,2.245c1.599,0.538,3.352,0.804,5.257,0.804
			c1.316,0,2.617-0.133,3.911-0.399c1.287-0.266,2.558-0.654,3.797-1.163c0.17-0.069,0.397-0.174,0.692-0.324
			c0.69-0.312,1.175-0.475,1.459-0.475c0.395,0,0.615,0.22,0.662,0.654c0.055,0.434,0.178,0.654,0.386,0.654
			c0.145,0,0.265-0.035,0.356-0.093c0.093-0.064,0.151-0.156,0.184-0.283l1.78-6.91c0.024-0.092,0.017-0.174-0.029-0.237
			c-0.044-0.069-0.111-0.104-0.208-0.104c-0.187,0-0.52,0.382-1.003,1.152c-0.489,0.77-0.967,1.47-1.455,2.101
			c-1.107,1.447-2.462,2.569-4.074,3.368c-1.61,0.793-3.333,1.192-5.162,1.192c-3.095,0-5.301-0.984-6.614-2.957
			c-1.313-1.973-1.531-4.647-0.66-8.026c0.936-3.634,2.568-6.504,4.896-8.605c2.328-2.1,5.016-3.154,8.077-3.154
			c2.057,0,3.671,0.399,4.859,1.192c1.179,0.799,1.952,2.019,2.31,3.669c0.072,0.284,0.118,0.642,0.126,1.071
			c0.025,0.44,0.142,0.66,0.356,0.66c0.132,0,0.253-0.041,0.358-0.128c0.097-0.081,0.168-0.197,0.207-0.347
			c0.003-0.012,0.007-0.029,0.013-0.052c0.007-0.133,0.027-0.266,0.063-0.405l1.113-5.098c0.045-0.283,0.047-0.48,0.001-0.596
			C119.26,196.069,119.157,196.012,118.998,196.012z"/>
		<path d="M59.219,198.06c0.31-0.422,0.761-0.747,1.355-0.984c0.358-0.127,0.878-0.237,1.57-0.341h0.062l0.067-0.018
			c0.624-0.11,0.957-0.249,0.997-0.405c0.027-0.104-0.015-0.185-0.116-0.249c-0.108-0.064-0.274-0.093-0.509-0.093
			c-0.145,0-0.413,0.018-0.802,0.052c-0.073,0.011-0.13,0.017-0.171,0.017c-0.435,0.024-0.848,0.041-1.239,0.052
			c-0.391,0.011-0.787,0.017-1.196,0.017c-0.699,0-1.537-0.029-2.491-0.086c-0.962-0.058-1.571-0.087-1.827-0.087
			c-0.221,0-0.395,0.029-0.536,0.092c-0.134,0.064-0.217,0.145-0.244,0.249c-0.022,0.087,0.004,0.174,0.083,0.243
			c0.071,0.075,0.166,0.11,0.277,0.11c1.246,0,2.07,0.272,2.47,0.816c0.407,0.544,0.443,1.452,0.114,2.731l-3.673,14.259
			l-12.435-17.806c-0.143-0.226-0.321-0.394-0.53-0.497c-0.207-0.11-0.45-0.162-0.72-0.162c-0.16,0-0.37,0.012-0.641,0.041
			c-0.263,0.029-0.429,0.052-0.501,0.063c-0.145,0-0.361,0.006-0.641,0.018c-0.28,0.011-0.489,0.017-0.621,0.017
			c-0.554,0-1.164-0.023-1.817-0.069c-0.66-0.046-1.049-0.069-1.174-0.069c-0.387,0-0.686,0.029-0.881,0.087
			c-0.2,0.052-0.313,0.139-0.343,0.255c-0.052,0.203,0.205,0.336,0.768,0.405c0.039,0.012,0.065,0.018,0.079,0.018
			c0.027,0,0.067,0.005,0.12,0.017c0.307,0.046,0.545,0.086,0.697,0.116c0.543,0.15,0.983,0.353,1.31,0.613
			c0.334,0.261,0.616,0.619,0.85,1.082l-4.181,16.232c-0.276,1.071-0.575,1.829-0.892,2.28c-0.316,0.445-0.772,0.793-1.369,1.041
			c-0.288,0.122-0.727,0.243-1.31,0.353c-0.161,0.035-0.271,0.058-0.344,0.069c-0.325,0-0.584,0.035-0.767,0.104
			c-0.19,0.063-0.298,0.162-0.33,0.283c-0.03,0.116,0.037,0.209,0.193,0.272c0.162,0.069,0.396,0.104,0.707,0.104
			c0.298,0,0.829-0.018,1.599-0.052c0.764-0.035,1.378-0.052,1.842-0.052c0.997,0,2.069,0.034,3.2,0.104
			c0.333,0.023,0.538,0.034,0.621,0.034c0.284,0,0.506-0.029,0.674-0.092c0.162-0.064,0.262-0.156,0.295-0.283
			c0.052-0.203-0.168-0.342-0.666-0.423c-0.028,0-0.048,0-0.055,0c-0.257-0.023-0.491-0.058-0.709-0.098
			c-0.224-0.046-0.417-0.104-0.586-0.174c-0.575-0.295-0.935-0.671-1.069-1.146c-0.135-0.469-0.07-1.233,0.204-2.297l3.891-15.103
			l13.592,19.31c0.228,0.324,0.42,0.544,0.591,0.66c0.166,0.11,0.358,0.168,0.573,0.168c0.243,0,0.434-0.069,0.568-0.214
			c0.14-0.139,0.26-0.416,0.367-0.833l4.791-18.598C58.623,199.195,58.911,198.477,59.219,198.06z"/>
		<path d="M27.931,196.18c-0.048-0.11-0.151-0.168-0.31-0.168c-0.166,0-0.396,0.22-0.71,0.659c-0.307,0.44-0.585,0.66-0.827,0.66
			c-0.125,0-0.41-0.104-0.874-0.318c-2.119-0.995-4.38-1.493-6.776-1.493c-2.632,0-5.123,0.451-7.468,1.354
			c-2.339,0.909-4.399,2.21-6.183,3.917c-1.103,1.082-2.024,2.24-2.755,3.466c-0.739,1.227-1.282,2.529-1.637,3.906
			c-0.455,1.765-0.514,3.368-0.175,4.82c0.333,1.452,1.053,2.714,2.154,3.79c0.999,0.96,2.303,1.707,3.902,2.245
			c1.6,0.538,3.352,0.804,5.257,0.804c1.315,0,2.617-0.133,3.911-0.399c1.287-0.266,2.557-0.654,3.797-1.163
			c0.169-0.069,0.397-0.174,0.692-0.324c0.69-0.312,1.175-0.475,1.459-0.475c0.395,0,0.615,0.22,0.662,0.654
			c0.055,0.434,0.178,0.654,0.386,0.654c0.146,0,0.265-0.035,0.356-0.093c0.093-0.064,0.152-0.156,0.184-0.283l1.78-6.91
			c0.024-0.092,0.017-0.174-0.029-0.237c-0.044-0.069-0.111-0.104-0.209-0.104c-0.187,0-0.52,0.382-1.003,1.152
			c-0.489,0.77-0.967,1.47-1.455,2.101c-1.107,1.447-2.462,2.569-4.074,3.368c-1.61,0.793-3.333,1.192-5.161,1.192
			c-3.095,0-5.301-0.984-6.614-2.957c-1.313-1.973-1.531-4.647-0.66-8.026c0.936-3.634,2.568-6.504,4.896-8.605
			c2.328-2.1,5.016-3.154,8.077-3.154c2.057,0,3.671,0.399,4.859,1.192c1.179,0.799,1.952,2.019,2.31,3.669
			c0.073,0.284,0.119,0.642,0.126,1.071c0.026,0.44,0.142,0.66,0.357,0.66c0.132,0,0.253-0.041,0.358-0.128
			c0.097-0.081,0.168-0.197,0.207-0.347c0.003-0.012,0.008-0.029,0.014-0.052c0.007-0.133,0.027-0.266,0.063-0.405l1.112-5.098
			C27.976,196.492,27.978,196.295,27.931,196.18z"/>
		<polygon points="131.753,210.346 121.698,210.346 121.089,212.706 131.144,212.706 		"/>
		<path d="M517.399,196.735l0.067-0.018c0.624-0.11,0.957-0.249,0.998-0.405c0.027-0.104-0.014-0.185-0.116-0.249
			c-0.108-0.064-0.274-0.093-0.509-0.093c-0.145,0-0.413,0.018-0.803,0.052c-0.072,0.011-0.129,0.017-0.17,0.017
			c-0.435,0.024-0.849,0.041-1.239,0.052c-0.391,0.011-0.787,0.017-1.196,0.017c-0.699,0-1.537-0.029-2.491-0.086
			c-0.962-0.058-1.57-0.087-1.827-0.087c-0.221,0-0.395,0.029-0.536,0.092c-0.134,0.064-0.217,0.145-0.244,0.249
			c-0.022,0.087,0.004,0.174,0.083,0.243c0.07,0.075,0.166,0.11,0.276,0.11c1.246,0,2.07,0.272,2.47,0.816
			c0.407,0.544,0.443,1.452,0.113,2.731l-3.673,14.259l-12.435-17.806c-0.143-0.226-0.321-0.394-0.53-0.497
			c-0.207-0.11-0.45-0.162-0.72-0.162c-0.16,0-0.37,0.012-0.641,0.041c-0.263,0.029-0.429,0.052-0.501,0.063
			c-0.145,0-0.361,0.006-0.641,0.018c-0.28,0.011-0.489,0.017-0.621,0.017c-0.554,0-1.165-0.023-1.817-0.069
			c-0.66-0.046-1.049-0.069-1.173-0.069c-0.388,0-0.686,0.029-0.881,0.087c-0.201,0.052-0.313,0.139-0.343,0.255
			c-0.052,0.203,0.205,0.336,0.769,0.405c0.039,0.012,0.065,0.018,0.078,0.018c0.028,0,0.068,0.005,0.12,0.017
			c0.307,0.046,0.546,0.086,0.697,0.116c0.543,0.15,0.983,0.353,1.31,0.613c0.334,0.261,0.616,0.619,0.85,1.082l-4.181,16.232
			c-0.276,1.071-0.575,1.829-0.892,2.28c-0.316,0.445-0.772,0.793-1.37,1.041c-0.288,0.122-0.728,0.243-1.31,0.353
			c-0.161,0.035-0.271,0.058-0.343,0.069c-0.325,0-0.584,0.035-0.768,0.104c-0.19,0.063-0.298,0.162-0.329,0.283
			c-0.03,0.116,0.037,0.209,0.193,0.272c0.162,0.069,0.396,0.104,0.707,0.104c0.298,0,0.829-0.018,1.6-0.052
			c0.764-0.035,1.378-0.052,1.842-0.052c0.997,0,2.069,0.034,3.2,0.104c0.333,0.023,0.538,0.034,0.621,0.034
			c0.284,0,0.507-0.029,0.675-0.092c0.162-0.064,0.262-0.156,0.295-0.283c0.052-0.203-0.168-0.342-0.666-0.423
			c-0.028,0-0.049,0-0.056,0c-0.257-0.023-0.491-0.058-0.708-0.098c-0.224-0.046-0.417-0.104-0.586-0.174
			c-0.575-0.295-0.935-0.671-1.069-1.146c-0.135-0.469-0.071-1.233,0.204-2.297l3.89-15.103l13.592,19.31
			c0.228,0.324,0.421,0.544,0.592,0.66c0.166,0.11,0.358,0.168,0.573,0.168c0.243,0,0.434-0.069,0.568-0.214
			c0.14-0.139,0.26-0.416,0.367-0.833l4.791-18.598c0.262-1.018,0.551-1.736,0.859-2.153c0.31-0.422,0.761-0.747,1.355-0.984
			c0.358-0.127,0.878-0.237,1.57-0.341H517.399z"/>
		<path d="M462.201,213.262c-0.27,0-0.619,0.387-1.042,1.169c-0.423,0.781-0.893,1.394-1.398,1.852
			c-0.809,0.723-1.838,1.25-3.081,1.585c-1.242,0.33-2.843,0.498-4.802,0.498c-2.652,0-4.326-0.278-5.019-0.839
			c-0.693-0.561-0.829-1.672-0.402-3.333l3.721-14.444c0.244-0.949,0.544-1.626,0.897-2.031c0.354-0.405,0.853-0.677,1.498-0.816
			c0.299-0.058,0.558-0.098,0.78-0.128c0.222-0.029,0.433-0.04,0.641-0.04c0.045-0.012,0.096-0.023,0.168-0.035
			c0.578-0.093,0.887-0.22,0.931-0.388c0.013-0.104-0.037-0.179-0.155-0.231c-0.111-0.052-0.285-0.075-0.514-0.075
			c-0.069,0-0.237,0.006-0.51,0.018c-1.655,0.081-3.307,0.121-4.955,0.121c-1.53,0-3.106-0.041-4.733-0.121
			c-0.364-0.012-0.591-0.018-0.688-0.018c-0.228,0-0.416,0.029-0.571,0.092c-0.148,0.064-0.238,0.145-0.265,0.249
			c-0.033,0.179,0.276,0.301,0.915,0.37c0.053,0.012,0.092,0.018,0.12,0.018c0.319,0.023,0.601,0.058,0.853,0.104
			c0.252,0.041,0.473,0.099,0.656,0.168c0.435,0.191,0.702,0.475,0.807,0.845c0.097,0.376,0.032,1.007-0.198,1.898l-4.026,15.63
			c-0.243,0.943-0.508,1.597-0.796,1.962c-0.296,0.37-0.716,0.654-1.266,0.856c-0.222,0.081-0.467,0.145-0.729,0.197
			c-0.263,0.052-0.562,0.086-0.908,0.11c-0.028,0-0.071,0.006-0.129,0.017c-0.675,0.069-1.052,0.214-1.124,0.44
			c-0.019,0.127,0.026,0.22,0.128,0.283c0.108,0.064,0.281,0.092,0.523,0.092c0.069,0,0.272-0.006,0.614-0.017
			c2.824-0.127,5.803-0.191,8.954-0.191c3.885,0,7.749,0.081,11.607,0.243c0.707,0.023,1.14,0.034,1.286,0.034
			c0.353,0,0.603-0.058,0.741-0.162c0.146-0.11,0.263-0.347,0.355-0.706l1.281-4.652c0.075-0.289,0.101-0.469,0.068-0.532
			C462.402,213.291,462.325,213.262,462.201,213.262z"/>
		<path d="M434.15,218.522c-0.024-0.012-0.044-0.017-0.058-0.017c-0.718-0.249-1.282-0.509-1.682-0.781
			c-0.408-0.272-0.743-0.585-1.016-0.949l-6.77-8.831c2.618-0.272,4.711-0.92,6.286-1.956c1.576-1.036,2.583-2.419,3.029-4.149
			c0.527-2.048,0.082-3.547-1.327-4.502c-1.409-0.955-3.896-1.435-7.448-1.435c-0.72,0-1.968,0.029-3.748,0.087
			c-1.78,0.058-3.187,0.087-4.233,0.087c-0.658,0-1.259-0.006-1.789-0.017c-0.53-0.012-0.934-0.029-1.212-0.052h-0.346
			c-0.228,0-0.416,0.029-0.571,0.092c-0.148,0.064-0.238,0.145-0.265,0.249c-0.032,0.179,0.276,0.301,0.916,0.37
			c0.053,0.012,0.092,0.018,0.12,0.018c0.319,0.023,0.602,0.058,0.846,0.104c0.245,0.041,0.459,0.099,0.642,0.168
			c0.449,0.191,0.722,0.475,0.827,0.845c0.097,0.376,0.032,1.007-0.199,1.904l-4.026,15.63c-0.242,0.937-0.507,1.591-0.795,1.956
			c-0.297,0.37-0.707,0.648-1.241,0.839c-0.239,0.092-0.492,0.162-0.755,0.214c-0.263,0.052-0.562,0.086-0.907,0.11
			c-0.028,0-0.071,0.006-0.129,0.017c-0.676,0.069-1.052,0.214-1.124,0.44c-0.019,0.127,0.026,0.22,0.128,0.283
			c0.108,0.064,0.281,0.092,0.523,0.092c0.069,0,0.23-0.006,0.496-0.017c1.647-0.104,3.309-0.156,4.984-0.156
			c1.683,0,3.324,0.052,4.925,0.156c0.254,0.012,0.411,0.017,0.48,0.017c0.242,0,0.43-0.029,0.571-0.092
			c0.134-0.064,0.227-0.156,0.274-0.283c0.044-0.226-0.258-0.371-0.897-0.44c-0.053-0.012-0.093-0.017-0.121-0.017
			c-0.333-0.023-0.615-0.058-0.851-0.11c-0.236-0.052-0.448-0.116-0.628-0.197c-0.446-0.203-0.719-0.486-0.825-0.856
			c-0.1-0.365-0.029-1.018,0.213-1.956l1.576-6.117c0.073-0.284,0.171-0.474,0.301-0.579c0.129-0.098,0.336-0.15,0.635-0.15
			c0.485,0,0.857,0.058,1.117,0.179c0.261,0.116,0.498,0.324,0.706,0.619l6.567,9.403c0.139,0.214,0.308,0.365,0.517,0.44
			c0.208,0.081,0.585,0.122,1.125,0.122h0.956c0.262-0.024,0.467-0.041,0.616-0.052c0.141-0.012,0.274-0.018,0.399-0.018
			c0.824,0,1.714,0.041,2.669,0.122c0.149,0.012,0.238,0.018,0.279,0.018c0.039,0.011,0.079,0.017,0.126,0.023
			c0.047,0.005,0.101,0.011,0.17,0.011c0.18,0,0.342-0.034,0.481-0.092c0.148-0.064,0.228-0.133,0.249-0.214
			C434.977,218.939,434.715,218.748,434.15,218.522z M419.448,207.741c-0.416,0-0.678-0.058-0.785-0.179
			c-0.102-0.116-0.102-0.382,0.002-0.787l2.271-8.819c0.137-0.532,0.376-0.891,0.709-1.082c0.331-0.185,0.888-0.278,1.671-0.278
			c2.486,0,4.2,0.469,5.143,1.406c0.941,0.943,1.155,2.396,0.649,4.363c-0.495,1.921-1.487,3.298-2.969,4.131
			C424.652,207.325,422.426,207.741,419.448,207.741z"/>
		<path d="M483.728,196.313c0.024-0.092-0.075-0.168-0.29-0.22c-0.213-0.058-0.462-0.087-0.746-0.087
			c-0.069,0-0.237,0.006-0.51,0.018c-1.69,0.081-3.356,0.121-5.004,0.121c-1.53,0-3.106-0.041-4.719-0.121
			c-0.35-0.012-0.57-0.018-0.667-0.018c-0.284,0-0.563,0.035-0.837,0.104c-0.273,0.064-0.425,0.145-0.449,0.238
			c-0.044,0.168,0.32,0.289,1.081,0.37c0.067,0.012,0.113,0.018,0.141,0.018c0.396,0.023,0.74,0.058,1.019,0.104
			c0.281,0.041,0.508,0.099,0.698,0.168c0.46,0.203,0.746,0.492,0.848,0.874c0.104,0.376,0.047,1.001-0.178,1.875l-4.026,15.63
			c-0.229,0.891-0.506,1.533-0.819,1.915c-0.313,0.382-0.786,0.683-1.409,0.897c-0.433,0.151-1.047,0.249-1.844,0.307
			c-0.028,0-0.048,0-0.062,0c-0.014,0-0.041,0-0.083,0c-0.734,0.081-1.133,0.231-1.191,0.457c-0.03,0.116,0.022,0.208,0.152,0.272
			c0.134,0.07,0.326,0.104,0.582,0.104c0.069,0,0.251-0.006,0.552-0.017c1.758-0.104,3.517-0.156,5.283-0.156
			c1.745,0,3.484,0.052,5.216,0.156c0.294,0.012,0.473,0.017,0.543,0.017c0.242,0,0.445-0.034,0.602-0.104
			c0.162-0.063,0.255-0.156,0.284-0.272c0.055-0.214-0.247-0.359-0.905-0.44c-0.032-0.012-0.065-0.017-0.093-0.017
			c-0.375-0.023-0.705-0.058-0.99-0.11c-0.284-0.052-0.543-0.122-0.776-0.214c-0.491-0.191-0.796-0.486-0.923-0.88
			c-0.12-0.393-0.065-1.036,0.161-1.915l4.026-15.63c0.24-0.932,0.543-1.597,0.906-2.014c0.363-0.411,0.871-0.689,1.532-0.839
			c0.242-0.052,0.496-0.098,0.753-0.128c0.257-0.029,0.537-0.04,0.834-0.04c0.059-0.012,0.138-0.023,0.231-0.035
			C483.326,196.608,483.684,196.48,483.728,196.313z"/>
		<path d="M319.338,195.971c-0.146,0-0.413,0.018-0.803,0.052c-0.072,0.011-0.129,0.017-0.171,0.017
			c-0.435,0.024-0.848,0.041-1.239,0.052c-0.391,0.011-0.787,0.017-1.196,0.017c-0.699,0-1.537-0.029-2.491-0.086
			c-0.962-0.058-1.571-0.087-1.827-0.087c-0.221,0-0.395,0.029-0.536,0.092c-0.134,0.064-0.217,0.145-0.244,0.249
			c-0.022,0.087,0.004,0.174,0.082,0.243c0.071,0.075,0.166,0.11,0.277,0.11c1.246,0,2.07,0.272,2.47,0.816
			c0.407,0.544,0.443,1.452,0.114,2.731l-3.673,14.259l-12.435-17.806c-0.143-0.226-0.321-0.394-0.53-0.497
			c-0.207-0.11-0.45-0.162-0.72-0.162c-0.159,0-0.37,0.012-0.641,0.041c-0.263,0.029-0.429,0.052-0.501,0.063
			c-0.145,0-0.361,0.006-0.641,0.018c-0.28,0.011-0.489,0.017-0.621,0.017c-0.554,0-1.164-0.023-1.817-0.069
			c-0.66-0.046-1.049-0.069-1.173-0.069c-0.388,0-0.686,0.029-0.881,0.087c-0.2,0.052-0.313,0.139-0.343,0.255
			c-0.052,0.203,0.205,0.336,0.768,0.405c0.039,0.012,0.065,0.018,0.079,0.018c0.027,0,0.068,0.005,0.12,0.017
			c0.307,0.046,0.545,0.086,0.697,0.116c0.543,0.15,0.982,0.353,1.31,0.613c0.334,0.261,0.616,0.619,0.85,1.082l-4.181,16.232
			c-0.276,1.071-0.575,1.829-0.892,2.28c-0.316,0.445-0.772,0.793-1.369,1.041c-0.288,0.122-0.727,0.243-1.31,0.353
			c-0.162,0.035-0.272,0.058-0.344,0.069c-0.325,0-0.583,0.035-0.767,0.104c-0.19,0.063-0.298,0.162-0.329,0.283
			c-0.03,0.116,0.036,0.209,0.193,0.272c0.162,0.069,0.396,0.104,0.707,0.104c0.298,0,0.829-0.018,1.599-0.052
			c0.764-0.035,1.378-0.052,1.842-0.052c0.997,0,2.069,0.034,3.2,0.104c0.334,0.023,0.538,0.034,0.621,0.034
			c0.284,0,0.507-0.029,0.675-0.092c0.162-0.064,0.262-0.156,0.295-0.283c0.052-0.203-0.168-0.342-0.666-0.423
			c-0.028,0-0.049,0-0.056,0c-0.257-0.023-0.491-0.058-0.709-0.098c-0.224-0.046-0.417-0.104-0.586-0.174
			c-0.575-0.295-0.935-0.671-1.069-1.146c-0.135-0.469-0.07-1.233,0.204-2.297l3.89-15.103l13.592,19.31
			c0.228,0.324,0.421,0.544,0.591,0.66c0.166,0.11,0.359,0.168,0.573,0.168c0.243,0,0.434-0.069,0.568-0.214
			c0.14-0.139,0.26-0.416,0.367-0.833l4.791-18.598c0.262-1.018,0.551-1.736,0.859-2.153c0.31-0.422,0.76-0.747,1.355-0.984
			c0.358-0.127,0.878-0.237,1.57-0.341h0.062l0.067-0.018c0.624-0.11,0.957-0.249,0.997-0.405c0.027-0.104-0.014-0.185-0.116-0.249
			C319.739,196,319.573,195.971,319.338,195.971z"/>
		<path d="M543.358,196.208c-0.241-0.11-0.926-0.168-2.048-0.168h-0.907c-1.385,0-3.211,0.018-5.498,0.052
			c-2.28,0.035-3.885,0.052-4.806,0.052c-1.96,0-3.916-0.041-5.876-0.121c-0.329-0.012-0.536-0.018-0.605-0.018
			c-0.242,0-0.437,0.029-0.578,0.092c-0.148,0.064-0.231,0.145-0.258,0.249c-0.044,0.168,0.258,0.289,0.902,0.37
			c0.052,0.012,0.092,0.018,0.12,0.018c0.333,0.023,0.622,0.058,0.866,0.104c0.246,0.041,0.466,0.099,0.649,0.168
			c0.442,0.191,0.709,0.475,0.808,0.845c0.104,0.376,0.038,1.007-0.193,1.904l-4.028,15.635c-0.241,0.938-0.505,1.586-0.788,1.956
			c-0.288,0.364-0.714,0.648-1.279,0.85c-0.208,0.081-0.452,0.145-0.723,0.197c-0.27,0.052-0.576,0.086-0.922,0.11
			c-0.028,0-0.064,0.006-0.108,0.017c-0.696,0.069-1.073,0.214-1.131,0.44c-0.033,0.127,0.006,0.22,0.121,0.283
			c0.109,0.064,0.288,0.092,0.53,0.092c0.055,0,0.216-0.006,0.475-0.017c1.647-0.104,3.323-0.156,5.012-0.156
			c4.924,0,9.661,0.052,14.211,0.156c0.648,0.012,1.041,0.017,1.173,0.017c0.609,0,1.002-0.046,1.17-0.133
			c0.176-0.093,0.317-0.371,0.436-0.834c0.107-0.417,0.289-1.013,0.545-1.794c0.257-0.781,0.431-1.348,0.525-1.713
			c0.113-0.44,0.158-0.723,0.129-0.851c-0.028-0.133-0.129-0.197-0.309-0.197c-0.242,0-0.526,0.295-0.836,0.88
			c-0.317,0.585-0.677,1.094-1.085,1.522c-0.74,0.776-1.672,1.331-2.801,1.655c-1.123,0.33-2.702,0.492-4.732,0.492
			c-2.486,0-4.049-0.278-4.704-0.827c-0.647-0.556-0.679-1.962-0.094-4.23l1.488-5.775h0.748c1.676,0,2.903,0.156,3.681,0.468
			c0.771,0.313,1.276,0.828,1.491,1.551c0.095,0.33,0.141,0.741,0.153,1.233c0.012,0.492,0.107,0.741,0.301,0.741
			c0.139,0,0.258-0.058,0.369-0.168c0.113-0.116,0.193-0.266,0.242-0.457c0.012-0.046,0.103-0.561,0.271-1.534
			c0.169-0.978,0.374-1.939,0.616-2.876c0.174-0.677,0.403-1.429,0.685-2.257c0.281-0.821,0.44-1.308,0.478-1.452
			c0.051-0.197,0.046-0.342-0.01-0.445c-0.05-0.098-0.162-0.151-0.321-0.151c-0.242,0-0.526,0.347-0.849,1.036
			c-0.315,0.689-0.669,1.227-1.051,1.609c-0.628,0.637-1.397,1.094-2.322,1.377c-0.924,0.283-2.354,0.457-4.276,0.526l2.055-7.98
			c0.224-0.868,0.499-1.401,0.825-1.591s1.252-0.289,2.775-0.289h0.326c2.521,0,4.251,0.139,5.211,0.416
			c0.954,0.278,1.6,0.752,1.924,1.429c0.176,0.365,0.245,0.851,0.197,1.464c-0.041,0.619,0.074,0.926,0.344,0.926
			c0.159,0,0.287-0.04,0.386-0.127c0.098-0.087,0.17-0.232,0.223-0.434c0.017-0.064,0.05-0.301,0.097-0.7
			c0.049-0.405,0.122-0.77,0.205-1.094c0.1-0.388,0.223-0.781,0.364-1.198c0.148-0.411,0.228-0.642,0.238-0.683
			C543.673,196.544,543.598,196.324,543.358,196.208z"/>
		<path d="M408.479,196.313c0.024-0.092-0.074-0.168-0.289-0.22c-0.214-0.058-0.463-0.087-0.747-0.087
			c-0.069,0-0.237,0.006-0.51,0.018c-1.69,0.081-3.355,0.121-5.004,0.121c-1.531,0-3.106-0.041-4.719-0.121
			c-0.35-0.012-0.571-0.018-0.667-0.018c-0.284,0-0.563,0.035-0.837,0.104c-0.273,0.064-0.425,0.145-0.449,0.238
			c-0.043,0.168,0.32,0.289,1.082,0.37c0.066,0.012,0.113,0.018,0.141,0.018c0.396,0.023,0.74,0.058,1.019,0.104
			c0.28,0.041,0.508,0.099,0.698,0.168c0.46,0.203,0.746,0.492,0.848,0.874c0.104,0.376,0.047,1.001-0.178,1.875l-4.026,15.63
			c-0.23,0.891-0.506,1.533-0.819,1.915c-0.313,0.382-0.786,0.683-1.409,0.897c-0.433,0.151-1.047,0.249-1.845,0.307
			c-0.027,0-0.048,0-0.062,0c-0.014,0-0.042,0-0.083,0c-0.734,0.081-1.133,0.231-1.191,0.457c-0.03,0.116,0.022,0.208,0.152,0.272
			c0.134,0.07,0.326,0.104,0.582,0.104c0.069,0,0.251-0.006,0.551-0.017c1.758-0.104,3.517-0.156,5.283-0.156
			c1.745,0,3.484,0.052,5.216,0.156c0.295,0.012,0.473,0.017,0.543,0.017c0.242,0,0.445-0.034,0.602-0.104
			c0.162-0.063,0.255-0.156,0.285-0.272c0.055-0.214-0.247-0.359-0.905-0.44c-0.031-0.012-0.065-0.017-0.093-0.017
			c-0.375-0.023-0.706-0.058-0.99-0.11c-0.284-0.052-0.543-0.122-0.776-0.214c-0.491-0.191-0.796-0.486-0.923-0.88
			c-0.12-0.393-0.066-1.036,0.161-1.915l4.026-15.63c0.24-0.932,0.543-1.597,0.906-2.014c0.362-0.411,0.87-0.689,1.532-0.839
			c0.242-0.052,0.496-0.098,0.753-0.128c0.257-0.029,0.536-0.04,0.834-0.04c0.058-0.012,0.137-0.023,0.23-0.035
			C408.078,196.608,408.436,196.48,408.479,196.313z"/>
		<path d="M349.819,209.588c-0.133-0.075-0.311-0.11-0.54-0.11c-0.056,0-0.247,0.017-0.58,0.046
			c-1.476,0.11-2.909,0.162-4.287,0.162c-1.253,0-2.597-0.052-4.016-0.162c-0.38-0.029-0.625-0.046-0.715-0.046
			c-0.284,0-0.522,0.035-0.721,0.11c-0.193,0.075-0.306,0.168-0.335,0.278c-0.049,0.191,0.184,0.336,0.701,0.423
			c0.066,0.011,0.112,0.023,0.15,0.035c0.198,0.011,0.412,0.04,0.635,0.087c0.223,0.047,0.447,0.092,0.661,0.151
			c0.418,0.151,0.701,0.451,0.839,0.909c0.139,0.457,0.115,1.036-0.064,1.73c-0.507,1.968-1.46,3.409-2.869,4.334
			c-1.409,0.926-3.356,1.389-5.842,1.389c-2.984,0-5.075-0.972-6.262-2.922c-1.188-1.95-1.335-4.659-0.442-8.125
			c0.987-3.83,2.604-6.747,4.855-8.738c2.252-1.996,5.051-2.992,8.388-2.992c1.995,0,3.527,0.394,4.605,1.186
			c1.084,0.793,1.759,2.014,2.041,3.663c0.039,0.226,0.059,0.527,0.072,0.903c0.003,0.498,0.119,0.747,0.334,0.747
			c0.118,0,0.217-0.035,0.297-0.104c0.081-0.069,0.141-0.173,0.195-0.324l1.557-5.104l0.095-0.371
			c0.067-0.26,0.086-0.439,0.046-0.526c-0.039-0.092-0.138-0.139-0.297-0.139c-0.152,0-0.373,0.185-0.677,0.556
			c-0.295,0.365-0.55,0.55-0.764,0.55c-0.181,0-0.563-0.127-1.164-0.376c-2.178-0.903-4.437-1.354-6.791-1.354
			c-4.349,0-8.196,1.198-11.542,3.594c-3.339,2.396-5.503,5.503-6.487,9.322c-0.428,1.661-0.508,3.154-0.234,4.485
			c0.275,1.325,0.906,2.529,1.905,3.599c1.01,1.105,2.29,1.945,3.839,2.517c1.549,0.573,3.325,0.856,5.327,0.856
			c2.493,0,5.393-0.665,8.708-2.002c0.665-0.272,1.158-0.463,1.472-0.579c0.442-0.156,0.944-0.278,1.499-0.365
			c0.556-0.087,1.172-0.139,1.835-0.162c0.043-0.405,0.1-0.845,0.186-1.314c0.084-0.463,0.196-0.949,0.324-1.447l0.1-0.388
			c0.265-1.03,0.519-1.719,0.752-2.061c0.242-0.347,0.582-0.619,1.03-0.827c0.24-0.098,0.483-0.18,0.713-0.243
			c0.238-0.064,0.47-0.104,0.705-0.127c0.031-0.012,0.083-0.029,0.159-0.052c0.467-0.122,0.719-0.266,0.763-0.434
			C350.001,209.738,349.946,209.657,349.819,209.588z"/>
		<path d="M387.557,218.47c-0.264-0.023-0.505-0.058-0.721-0.104c-0.218-0.04-0.411-0.098-0.567-0.168
			c-0.441-0.168-0.801-0.463-1.082-0.88c-0.28-0.417-0.512-1.053-0.702-1.898l-4.207-19.345c-0.068-0.272-0.144-0.463-0.241-0.567
			c-0.089-0.11-0.215-0.162-0.36-0.162c-0.153,0-0.297,0.052-0.44,0.15c-0.138,0.104-0.292,0.272-0.464,0.509l-14.036,18.465
			c-0.839,1.105-1.542,1.927-2.109,2.459c-0.558,0.527-1.102,0.891-1.622,1.082c-0.263,0.104-0.52,0.191-0.794,0.26
			c-0.269,0.075-0.59,0.139-0.971,0.197c-0.351,0.047-0.587,0.098-0.721,0.162c-0.134,0.063-0.21,0.144-0.235,0.243
			c-0.036,0.139,0.029,0.237,0.185,0.301c0.164,0.064,0.413,0.093,0.752,0.093c0.159,0,0.636-0.023,1.437-0.069
			c0.795-0.046,1.493-0.069,2.089-0.069c0.783,0,1.598,0.034,2.439,0.104c0.841,0.07,1.296,0.104,1.365,0.104
			c0.256,0,0.457-0.029,0.611-0.087c0.147-0.058,0.234-0.127,0.258-0.22c0.034-0.133,0.007-0.243-0.093-0.313
			c-0.098-0.075-0.312-0.133-0.653-0.179c-0.097,0-0.204-0.017-0.334-0.046c-0.124-0.028-0.312-0.081-0.561-0.162
			c-0.438-0.156-0.72-0.376-0.869-0.66c-0.141-0.283-0.153-0.642-0.04-1.082c0.067-0.261,0.186-0.561,0.365-0.909
			c0.171-0.342,0.393-0.695,0.668-1.059l2.807-3.825h10.519l0.836,4.23c0.078,0.422,0.125,0.833,0.124,1.238
			c0.005,0.411-0.023,0.735-0.087,0.984c-0.094,0.364-0.344,0.636-0.755,0.833c-0.409,0.191-1.017,0.318-1.831,0.387
			c-0.512,0.081-0.857,0.156-1.036,0.232c-0.184,0.069-0.284,0.162-0.309,0.26c-0.019,0.127,0.054,0.22,0.217,0.283
			c0.171,0.064,0.426,0.092,0.78,0.092c0.568,0,1.422-0.034,2.554-0.104c1.133-0.069,1.973-0.104,2.513-0.104
			c0.838,0,1.843,0.023,3.008,0.069c1.166,0.046,1.907,0.069,2.233,0.069c0.256,0,0.464-0.029,0.633-0.093
			c0.162-0.064,0.259-0.145,0.286-0.249c0.031-0.122-0.006-0.22-0.105-0.289C388.182,218.574,387.941,218.516,387.557,218.47z
			 M369.44,209.79l7.578-10.034l2.062,10.034H369.44z"/>
		<path d="M566.878,195.902c-0.066-0.144-0.18-0.214-0.339-0.214c-0.208,0-0.457,0.214-0.769,0.648
			c-0.304,0.429-0.588,0.642-0.844,0.642c-0.146,0-0.443-0.11-0.882-0.341c-1.527-0.793-3.122-1.186-4.784-1.186
			c-2.396,0-4.513,0.584-6.366,1.753c-1.846,1.169-3.004,2.656-3.47,4.467c-0.358,1.389-0.187,2.633,0.505,3.738
			c0.7,1.1,1.869,1.968,3.52,2.598c0.243,0.104,0.609,0.243,1.102,0.428c2.928,1.105,4.711,2.112,5.345,3.015
			c0.266,0.393,0.424,0.827,0.482,1.302c0.065,0.474,0.022,0.99-0.122,1.545c-0.381,1.481-1.219,2.639-2.508,3.472
			c-1.289,0.839-2.879,1.256-4.769,1.256c-1.662,0-3.018-0.382-4.06-1.151c-1.048-0.77-1.704-1.852-1.96-3.252
			c-0.05-0.342-0.067-0.787-0.063-1.343c0.018-0.689-0.129-1.03-0.441-1.03c-0.197,0.012-0.325,0.052-0.4,0.127
			c-0.073,0.069-0.15,0.261-0.229,0.567c-0.055,0.214-0.149,0.659-0.284,1.343c-0.135,0.688-0.26,1.256-0.377,1.707
			c-0.148,0.573-0.339,1.152-0.557,1.73c-0.224,0.573-0.341,0.868-0.344,0.88c-0.043,0.168-0.042,0.295,0.008,0.37
			c0.048,0.081,0.142,0.122,0.294,0.122c0.173,0,0.418-0.174,0.723-0.527c0.306-0.353,0.551-0.526,0.745-0.526
			c0.132,0,0.43,0.133,0.889,0.393c1.828,0.995,3.77,1.493,5.827,1.493c2.853,0,5.385-0.66,7.607-1.974
			c2.217-1.32,3.585-2.974,4.101-4.977c0.445-1.73,0.21-3.183-0.711-4.363c-0.922-1.18-2.818-2.366-5.699-3.553
			c-0.056-0.024-0.168-0.069-0.325-0.133c-3.611-1.47-5.199-3.044-4.768-4.716c0.302-1.175,1.025-2.124,2.16-2.847
			c1.142-0.724,2.502-1.082,4.081-1.082c1.344,0,2.446,0.289,3.313,0.874c0.876,0.579,1.469,1.424,1.792,2.534
			c0.096,0.324,0.161,0.747,0.2,1.267c0.042,0.591,0.222,0.886,0.547,0.886c0.183-0.011,0.317-0.075,0.41-0.191
			c0.084-0.11,0.185-0.371,0.29-0.776c0.061-0.237,0.133-0.596,0.213-1.07c0.081-0.475,0.151-0.828,0.209-1.053
			c0.107-0.417,0.248-0.88,0.42-1.389c0.173-0.509,0.271-0.81,0.298-0.914C566.947,196.226,566.94,196.04,566.878,195.902z"/>
	</g>
</g>
</svg>
