<?xml version="1.0" encoding="UTF-8" standalone="no"?>
<!-- Generator: Adobe Illustrator 14.0.0, SVG Export Plug-In . SVG Version: 6.00 Build 43363)  -->

<svg
   xmlns:dc="http://purl.org/dc/elements/1.1/"
   xmlns:cc="http://creativecommons.org/ns#"
   xmlns:rdf="http://www.w3.org/1999/02/22-rdf-syntax-ns#"
   xmlns:svg="http://www.w3.org/2000/svg"
   xmlns="http://www.w3.org/2000/svg"
   xmlns:sodipodi="http://sodipodi.sourceforge.net/DTD/sodipodi-0.dtd"
   xmlns:inkscape="http://www.inkscape.org/namespaces/inkscape"
   version="1.1"
   id="Layer_1"
   x="0px"
   y="0px"
   width="100"
   height="30"
   viewBox="0 0 100 30"
   enable-background="new 0 0 250 74"
   xml:space="preserve"
   inkscape:version="0.48.4 r9939"
   sodipodi:docname="Air Greenland logo.svg"><title
   id="title3024">Air Greenland logo</title><metadata
   id="metadata93"><rdf:RDF><cc:Work
       rdf:about=""><dc:format>image/svg+xml</dc:format><dc:type
         rdf:resource="http://purl.org/dc/dcmitype/StillImage" /><dc:title>Air Greenland logo</dc:title></cc:Work></rdf:RDF></metadata><defs
   id="defs91" /><sodipodi:namedview
   pagecolor="#ffffff"
   bordercolor="#666666"
   borderopacity="1"
   objecttolerance="10"
   gridtolerance="10"
   guidetolerance="10"
   inkscape:pageopacity="0"
   inkscape:pageshadow="2"
   inkscape:window-width="1600"
   inkscape:window-height="844"
   id="namedview89"
   showgrid="false"
   fit-margin-top="0"
   fit-margin-left="0"
   fit-margin-right="0"
   fit-margin-bottom="0"
   inkscape:zoom="1"
   inkscape:cx="55.845991"
   inkscape:cy="11.143748"
   inkscape:window-x="-4"
   inkscape:window-y="-4"
   inkscape:window-maximized="1"
   inkscape:current-layer="Layer_1" />
<g
   id="g3"
   transform="matrix(0.41455588,0,0,0.45465388,-1.768842,-1.9071872)">
	<g
   id="g5">
		<g
   id="g7">
			<g
   id="g9">
				<path
   clip-rule="evenodd"
   d="m 210.873,47.113 c 0,1.01 -0.825,1.83 -1.832,1.83 -1.008,0 -1.824,-0.82 -1.824,-1.83 0,-1.006 0.816,-1.832 1.824,-1.832 1.007,0 1.832,0.826 1.832,1.832"
   id="path11"
   inkscape:connector-curvature="0"
   style="fill:#c4122f;fill-rule:evenodd" />
				<path
   clip-rule="evenodd"
   d="m 210.873,20.785 c 0,1.011 -0.825,1.832 -1.832,1.832 -1.008,0 -1.824,-0.821 -1.824,-1.832 0,-1.008 0.816,-1.83 1.824,-1.83 1.007,0 1.832,0.822 1.832,1.83"
   id="path13"
   inkscape:connector-curvature="0"
   style="fill:#c4122f;fill-rule:evenodd" />
				<path
   clip-rule="evenodd"
   d="m 202.459,45.041 c 1.148,0 2.074,0.928 2.074,2.066 0,1.145 -0.926,2.076 -2.074,2.076 -1.138,0 -2.068,-0.932 -2.068,-2.076 0,-1.138 0.93,-2.066 2.068,-2.066"
   id="path15"
   inkscape:connector-curvature="0"
   style="fill:#c4122f;fill-rule:evenodd" />
				<path
   clip-rule="evenodd"
   d="m 202.459,38.703 c 1.011,0 1.831,0.826 1.831,1.826 0,1.01 -0.82,1.826 -1.831,1.826 -1.005,0 -1.825,-0.816 -1.825,-1.826 0,-1 0.82,-1.826 1.825,-1.826"
   id="path17"
   inkscape:connector-curvature="0"
   style="fill:#c4122f;fill-rule:evenodd" />
				<path
   clip-rule="evenodd"
   d="m 228.789,38.703 c 1.01,0 1.825,0.826 1.825,1.826 0,1.01 -0.815,1.826 -1.825,1.826 -1.006,0 -1.829,-0.816 -1.829,-1.826 0,-1 0.823,-1.826 1.829,-1.826"
   id="path19"
   inkscape:connector-curvature="0"
   style="fill:#c4122f;fill-rule:evenodd" />
				<path
   clip-rule="evenodd"
   d="m 202.459,32.368 c 0.88,0 1.586,0.71 1.586,1.583 0,0.877 -0.706,1.583 -1.586,1.583 -0.872,0 -1.578,-0.706 -1.578,-1.583 0,-0.873 0.706,-1.583 1.578,-1.583"
   id="path21"
   inkscape:connector-curvature="0"
   style="fill:#c4122f;fill-rule:evenodd" />
				<path
   clip-rule="evenodd"
   d="m 207.463,40.529 c 0,0.875 0.708,1.58 1.578,1.58 0.876,0 1.587,-0.705 1.587,-1.58 0,-0.869 -0.711,-1.578 -1.587,-1.578 -0.87,0 -1.578,0.709 -1.578,1.578"
   id="path23"
   inkscape:connector-curvature="0"
   style="fill:#c4122f;fill-rule:evenodd" />
				<path
   clip-rule="evenodd"
   d="m 220.625,40.529 c 0,0.875 0.713,1.58 1.58,1.58 0.874,0 1.585,-0.705 1.585,-1.58 0,-0.869 -0.711,-1.578 -1.585,-1.578 -0.867,0 -1.58,0.709 -1.58,1.578"
   id="path25"
   inkscape:connector-curvature="0"
   style="fill:#c4122f;fill-rule:evenodd" />
				<path
   clip-rule="evenodd"
   d="m 207.463,27.368 c 0,0.875 0.708,1.583 1.578,1.583 0.876,0 1.587,-0.708 1.587,-1.583 0,-0.875 -0.711,-1.583 -1.587,-1.583 -0.87,-0.001 -1.578,0.707 -1.578,1.583"
   id="path27"
   inkscape:connector-curvature="0"
   style="fill:#c4122f;fill-rule:evenodd" />
				<path
   clip-rule="evenodd"
   d="m 220.625,27.368 c 0,0.875 0.713,1.583 1.58,1.583 0.874,0 1.585,-0.708 1.585,-1.583 0,-0.875 -0.711,-1.583 -1.585,-1.583 -0.867,-0.001 -1.58,0.707 -1.58,1.583"
   id="path29"
   inkscape:connector-curvature="0"
   style="fill:#c4122f;fill-rule:evenodd" />
				<path
   clip-rule="evenodd"
   d="m 210.387,33.949 c 0,-0.743 -0.601,-1.338 -1.346,-1.338 -0.737,0 -1.338,0.596 -1.338,1.338 0,0.74 0.601,1.338 1.338,1.338 0.745,10e-4 1.346,-0.598 1.346,-1.338"
   id="path31"
   inkscape:connector-curvature="0"
   style="fill:#c4122f;fill-rule:evenodd" />
				<path
   clip-rule="evenodd"
   d="m 193.325,53.691 c 0,1.412 1.144,2.557 2.551,2.557 1.414,0 2.56,-1.145 2.56,-2.557 0,-1.412 -1.146,-2.555 -2.56,-2.555 -1.407,10e-4 -2.551,1.143 -2.551,2.555"
   id="path33"
   inkscape:connector-curvature="0"
   style="fill:#c4122f;fill-rule:evenodd" />
				<path
   clip-rule="evenodd"
   d="m 193.325,40.529 c 0,1.416 1.144,2.561 2.551,2.561 1.414,0 2.56,-1.145 2.56,-2.561 0,-1.412 -1.146,-2.553 -2.56,-2.553 -1.407,0 -2.551,1.141 -2.551,2.553"
   id="path35"
   inkscape:connector-curvature="0"
   style="fill:#c4122f;fill-rule:evenodd" />
				<path
   clip-rule="evenodd"
   d="m 193.325,27.368 c 0,1.411 1.144,2.557 2.551,2.557 1.414,0 2.56,-1.146 2.56,-2.557 0,-1.412 -1.146,-2.556 -2.56,-2.556 -1.407,0 -2.551,1.144 -2.551,2.556"
   id="path37"
   inkscape:connector-curvature="0"
   style="fill:#c4122f;fill-rule:evenodd" />
				<path
   clip-rule="evenodd"
   d="m 206.49,53.691 c 0,1.412 1.141,2.557 2.551,2.557 1.416,0 2.56,-1.145 2.56,-2.557 0,-1.412 -1.144,-2.555 -2.56,-2.555 -1.41,10e-4 -2.551,1.143 -2.551,2.555"
   id="path39"
   inkscape:connector-curvature="0"
   style="fill:#c4122f;fill-rule:evenodd" />
				<path
   clip-rule="evenodd"
   d="m 219.649,53.691 c 0,1.412 1.148,2.557 2.556,2.557 1.417,0 2.558,-1.145 2.558,-2.557 0,-1.412 -1.141,-2.555 -2.558,-2.555 -1.407,10e-4 -2.556,1.143 -2.556,2.555"
   id="path41"
   inkscape:connector-curvature="0"
   style="fill:#c4122f;fill-rule:evenodd" />
				<path
   clip-rule="evenodd"
   d="m 217.207,47.113 c 0,0.873 -0.711,1.584 -1.585,1.584 -0.868,0 -1.581,-0.711 -1.581,-1.584 0,-0.875 0.713,-1.586 1.581,-1.586 0.874,0 1.585,0.711 1.585,1.586"
   id="path43"
   inkscape:connector-curvature="0"
   style="fill:#c4122f;fill-rule:evenodd" />
				<path
   clip-rule="evenodd"
   d="m 216.971,40.529 c 0,0.738 -0.605,1.342 -1.349,1.342 -0.734,0 -1.335,-0.604 -1.335,-1.342 0,-0.742 0.601,-1.34 1.335,-1.34 0.743,0 1.349,0.598 1.349,1.34"
   id="path45"
   inkscape:connector-curvature="0"
   style="fill:#c4122f;fill-rule:evenodd" />
				<path
   d="m 216.718,33.949 c 0,-0.604 -0.49,-1.094 -1.096,-1.094 -0.602,0 -1.09,0.491 -1.09,1.094 0,0.601 0.488,1.094 1.09,1.094 0.606,0 1.096,-0.493 1.096,-1.094"
   id="path47"
   inkscape:connector-curvature="0"
   style="fill:#c4122f" />
				<path
   clip-rule="evenodd"
   d="m 211.112,14.201 c 0,-1.142 -0.924,-2.07 -2.071,-2.07 -1.139,0 -2.064,0.928 -2.064,2.07 0,1.146 0.926,2.076 2.064,2.076 1.147,0 2.071,-0.929 2.071,-2.076"
   id="path49"
   inkscape:connector-curvature="0"
   style="fill:#c4122f;fill-rule:evenodd" />
				<path
   clip-rule="evenodd"
   d="m 211.357,7.62 c 0,-1.275 -1.038,-2.312 -2.316,-2.312 -1.274,0 -2.308,1.037 -2.308,2.312 0,1.279 1.033,2.318 2.308,2.318 1.278,0 2.316,-1.04 2.316,-2.318"
   id="path51"
   inkscape:connector-curvature="0"
   style="fill:#c4122f;fill-rule:evenodd" />
				<path
   clip-rule="evenodd"
   d="m 233.301,40.529 c 0,1.145 0.928,2.07 2.069,2.07 1.146,0 2.068,-0.926 2.068,-2.07 0,-1.146 -0.923,-2.068 -2.068,-2.068 -1.141,0 -2.069,0.922 -2.069,2.068"
   id="path53"
   inkscape:connector-curvature="0"
   style="fill:#c4122f;fill-rule:evenodd" />
				<path
   clip-rule="evenodd"
   d="m 244.266,40.529 c 0,-1.273 -1.033,-2.311 -2.314,-2.311 -1.276,0 -2.314,1.037 -2.314,2.311 0,1.275 1.038,2.314 2.314,2.314 1.28,10e-4 2.314,-1.038 2.314,-2.314"
   id="path55"
   inkscape:connector-curvature="0"
   style="fill:#c4122f;fill-rule:evenodd" />
				<path
   clip-rule="evenodd"
   d="m 230.86,20.785 c 0,1.144 -0.924,2.071 -2.071,2.071 -1.144,0 -2.072,-0.927 -2.072,-2.071 0,-1.145 0.929,-2.07 2.072,-2.07 1.148,-0.001 2.071,0.925 2.071,2.07"
   id="path57"
   inkscape:connector-curvature="0"
   style="fill:#c4122f;fill-rule:evenodd" />
				<path
   clip-rule="evenodd"
   d="m 237.928,14.201 c 0,1.416 -1.148,2.564 -2.558,2.564 -1.41,0 -2.558,-1.149 -2.558,-2.564 0,-1.41 1.147,-2.554 2.558,-2.554 1.409,0 2.558,1.144 2.558,2.554"
   id="path59"
   inkscape:connector-curvature="0"
   style="fill:#c4122f;fill-rule:evenodd" />
				<path
   clip-rule="evenodd"
   d="m 245,7.62 c 0,1.684 -1.366,3.045 -3.049,3.045 -1.679,0 -3.042,-1.362 -3.042,-3.045 0,-1.68 1.363,-3.04 3.042,-3.04 1.683,0 3.049,1.36 3.049,3.04"
   id="path61"
   inkscape:connector-curvature="0"
   style="fill:#c4122f;fill-rule:evenodd" />
				<path
   d="m 21.81,66.854 c 0.084,0 4.149,0 4.233,0 0,-0.08 0,-15.641 0,-15.727 -0.084,0 -4.149,0.592 -4.233,0.592 0,0.084 0,15.054 0,15.135"
   id="path63"
   inkscape:connector-curvature="0"
   style="fill:#c4122f" />
				<path
   d="m 79.068,57.592 c 0.007,-0.066 0.021,-0.162 0.04,-0.295 0.311,-2.074 1.394,-3.199 3.173,-3.199 1.728,0 2.707,1.135 2.739,3.203 l 0.003,0.045 -5.955,0.246 m 3.269,-6.451 c -4.543,0 -7.718,3.277 -7.718,7.967 0,5.018 3.129,8.123 8.171,8.123 3.159,0 4.744,-0.873 5.796,-1.453 0,0 0.007,-0.004 0.014,-0.008 -0.037,-0.064 -1.312,-2.574 -1.354,-2.645 -0.047,0.021 -0.163,0.084 -0.163,0.084 -0.776,0.389 -1.947,0.979 -3.907,0.979 -3.093,0 -3.923,-2.191 -4.067,-4.029 l -0.005,-0.045 c 0,0 9.875,0 9.96,0 0.042,-0.48 0.063,-0.961 0.063,-1.418 0,-2.438 -0.614,-4.379 -1.814,-5.672 -1.167,-1.251 -2.837,-1.883 -4.976,-1.883 z"
   id="path65"
   inkscape:connector-curvature="0"
   style="fill:#c4122f" />
				<path
   d="m 95.974,57.592 c 0.005,-0.066 0.012,-0.162 0.037,-0.295 0.309,-2.074 1.389,-3.199 3.166,-3.199 1.732,0 2.712,1.135 2.744,3.203 l 0.005,0.045 -5.952,0.246 m 3.268,-6.451 c -4.55,0 -7.722,3.277 -7.722,7.967 0,5.018 3.135,8.123 8.171,8.123 3.165,0 4.748,-0.873 5.795,-1.453 0,0 0.007,-0.004 0.01,-0.008 -0.03,-0.064 -1.31,-2.574 -1.347,-2.645 -0.049,0.021 -0.164,0.084 -0.164,0.084 -0.778,0.389 -1.947,0.979 -3.906,0.979 -3.098,0 -3.921,-2.191 -4.068,-4.029 l -0.007,-0.045 c 0,0 9.88,0 9.962,0 0.042,-0.48 0.065,-0.961 0.065,-1.418 0,-2.438 -0.622,-4.379 -1.818,-5.672 -1.165,-1.251 -2.836,-1.883 -4.971,-1.883 z"
   id="path67"
   inkscape:connector-curvature="0"
   style="fill:#c4122f" />
				<path
   d="m 127.089,66.854 c 0.077,0 4.112,0 4.193,0 0,-0.084 0,-21.58 0,-21.668 -0.081,0 -4.116,0.59 -4.193,0.59 0,0.087 0,20.994 0,21.078"
   id="path69"
   inkscape:connector-curvature="0"
   style="fill:#c4122f" />
				<path
   d="m 13.919,62.875 c -0.604,0.639 -1.499,1.375 -2.941,1.375 -0.893,0 -1.945,-0.629 -1.945,-1.855 0,-1.678 1.487,-2.674 4.298,-2.674 h 0.589 v 3.154 m 0.74,3.979 c 0.063,0 3.771,0 3.866,0 -0.287,-1.291 -0.439,-2.811 -0.439,-4.514 v -5.543 c 0,-3.963 -1.875,-5.656 -6.272,-5.656 -3.287,0 -5.337,1.354 -6.286,2.184 0.047,0.063 1.771,2.23 1.821,2.303 0.015,-0.015 0.032,-0.028 0.032,-0.028 0.597,-0.426 1.985,-1.412 3.951,-1.412 1.814,0 2.586,0.85 2.586,2.389 v 0.732 H 13.33 c -4.028,0 -8.33,1.426 -8.33,5.436 0,2.568 1.887,4.486 4.691,4.486 2.23,0 3.657,-1.197 4.305,-1.922 h 0.154 l 0.51,1.545 z"
   id="path71"
   inkscape:connector-curvature="0"
   style="fill:#c4122f" />
				<path
   d="m 23.925,44.713 c -1.606,0 -2.564,0.918 -2.564,2.463 0,1.541 0.958,2.469 2.564,2.469 1.606,0 2.563,-0.928 2.563,-2.469 -0.001,-1.545 -0.957,-2.463 -2.563,-2.463"
   id="path73"
   inkscape:connector-curvature="0"
   style="fill:#c4122f" />
				<path
   d="m 53.018,59.582 c -1.803,0 -2.878,-1.08 -2.878,-2.893 0,-1.807 1.075,-2.891 2.878,-2.891 1.805,0 2.878,1.084 2.878,2.891 0,1.813 -1.074,2.893 -2.878,2.893 m -1.904,2.449 c 0.748,0.189 2.098,0.189 2.098,0.189 4.149,0 6.721,-2.117 6.721,-5.531 0,-0.363 -0.077,-1.037 -0.175,-1.412 -0.099,-0.363 -0.227,-0.717 -0.397,-1.037 0,0 -0.077,-0.143 -0.101,-0.18 h 1.753 l 0.728,-2.602 c -0.399,-0.207 -0.933,-0.318 -1.63,-0.318 -1.164,0 -1.989,0.584 -2.527,1.178 -0.614,-0.408 -1.351,-0.703 -2.188,-0.918 -0.709,-0.176 -1.464,-0.26 -2.408,-0.26 -4.152,0 -6.851,2.121 -6.913,5.436 0,0.027 -0.003,0.113 -0.003,0.113 0,2.316 1.305,3.693 2.609,4.457 -1.197,1.348 -2.432,2.789 -2.432,4.131 l 0,0 c 0,0.201 0.017,2.439 3.727,2.203 1.333,-0.09 3.701,-0.258 5.015,-0.258 2.581,0 2.195,2.197 2.195,2.197 h 3.604 c 1.446,-5.197 -2.076,-5.461 -3.809,-5.461 -1.735,0 -5.165,0.461 -5.772,0.52 -0.604,0.063 -1.365,0.123 -1.365,-0.488 0,-0.236 0.194,-0.576 0.441,-0.895 l 0.829,-1.064 z"
   id="path75"
   inkscape:connector-curvature="0"
   style="fill:#c4122f" />
				<path
   d="m 67.377,51.189 c -0.065,0 -3.567,0.922 -3.668,0.922 0.271,1.203 0.423,2.063 0.441,3.576 0,4.41 0,11.113 0,11.166 0.082,0 4.115,0 4.199,0 0,-0.08 0,-9.895 0,-9.895 0.395,-0.705 1.521,-2.164 3.45,-2.164 0.914,0 1.644,0.25 1.644,0.25 l 0.984,-3.506 c -0.51,-0.27 -1.188,-0.398 -2.076,-0.398 -2.15,0 -3.46,1.551 -4.002,2.471 h -0.181 l -0.791,-2.422"
   id="path77"
   inkscape:connector-curvature="0"
   style="fill:#c4122f" />
				<path
   d="m 33.221,51.189 c -0.063,0 -3.565,0.922 -3.669,0.922 0.274,1.203 0.421,2.063 0.442,3.576 0,4.41 0,11.113 0,11.166 0.082,0 4.114,0 4.199,0 0,-0.08 0,-9.895 0,-9.895 0.393,-0.705 1.523,-2.164 3.455,-2.164 0.907,0 1.639,0.25 1.639,0.25 l 0.982,-3.506 c -0.508,-0.27 -1.184,-0.398 -2.072,-0.398 -2.155,0 -3.464,1.551 -4.004,2.471 h -0.178 l -0.794,-2.422"
   id="path79"
   inkscape:connector-curvature="0"
   style="fill:#c4122f" />
				<path
   d="m 143.339,62.875 c -0.603,0.639 -1.498,1.375 -2.945,1.375 -0.894,0 -1.936,-0.629 -1.936,-1.855 0,-1.678 1.481,-2.674 4.294,-2.674 h 0.587 v 3.154 m 0.741,3.979 c 0.065,0 3.769,0 3.867,0 -0.29,-1.291 -0.442,-2.811 -0.442,-4.514 v -5.543 c 0,-3.963 -1.872,-5.656 -6.268,-5.656 -3.287,0 -5.347,1.354 -6.289,2.184 0.042,0.063 1.768,2.23 1.819,2.303 0.016,-0.014 0.03,-0.027 0.03,-0.027 0.599,-0.426 1.987,-1.412 3.955,-1.412 1.817,0 2.586,0.85 2.586,2.389 v 0.732 h -0.587 c -4.03,0 -8.337,1.426 -8.337,5.436 0,2.568 1.887,4.486 4.697,4.486 2.23,0 3.658,-1.197 4.307,-1.922 h 0.151 l 0.511,1.544 z"
   id="path81"
   inkscape:connector-curvature="0"
   style="fill:#c4122f" />
				<path
   d="m 108.891,52.111 c 0.295,1.295 0.446,2.223 0.446,3.928 0,4.402 0,10.766 0,10.814 0.08,0 4.117,0 4.199,0 0,-0.08 0,-10.531 0,-10.531 0.984,-1.256 2.142,-1.748 3.261,-1.748 1.497,0 2.138,0.711 2.138,2.381 0,0 0,9.818 0,9.898 0.081,0 4.112,0 4.193,0 0,-0.08 0,-10.754 0,-10.754 0,-2.262 -0.804,-4.959 -4.652,-4.959 -1.896,0 -3.558,0.719 -4.939,2.197 h -0.176 l -0.708,-2.148 c -0.061,0 -3.662,0.922 -3.762,0.922"
   id="path83"
   inkscape:connector-curvature="0"
   style="fill:#c4122f" />
				<path
   d="m 150.822,52.111 c 0.293,1.295 0.442,2.223 0.442,3.928 0,4.402 0,10.766 0,10.814 0.079,0 4.114,0 4.198,0 0,-0.08 0,-10.531 0,-10.531 0.982,-1.256 2.145,-1.748 3.262,-1.748 1.496,0 2.135,0.711 2.135,2.381 0,0 0,9.818 0,9.898 0.079,0 4.117,0 4.198,0 0,-0.08 0,-10.754 0,-10.754 0,-2.262 -0.809,-4.959 -4.654,-4.959 -1.894,0 -3.561,0.719 -4.94,2.197 h -0.173 l -0.713,-2.148 c -0.058,0 -3.656,0.922 -3.755,0.922"
   id="path85"
   inkscape:connector-curvature="0"
   style="fill:#c4122f" />
				<path
   d="m 178.501,55.389 v 7.006 c -0.194,0.266 -1.251,1.57 -2.965,1.57 -2.113,0 -3.23,-1.635 -3.23,-4.73 0,-3.105 1.251,-4.883 3.42,-4.883 1.41,0 2.23,0.547 2.775,1.023 v 0.014 m 4.206,7.109 c 0,0 0,-17.129 0,-17.213 -0.08,0 -4.112,0.59 -4.201,0.59 0,0.082 0,6.383 0,6.383 l -0.063,-0.049 c -1.015,-0.715 -2.195,-1.068 -3.617,-1.068 -4.107,0 -6.98,3.326 -6.98,8.094 0,5.029 2.394,8.031 6.403,8.031 1.726,0 3.208,-0.635 4.367,-1.957 h 0.154 l 0.51,1.545 c 0.065,0 3.773,0 3.871,0 -0.173,-0.76 -0.444,-2.305 -0.444,-4.356 z"
   id="path87"
   inkscape:connector-curvature="0"
   style="fill:#c4122f" />
			</g>
		</g>
	</g>
</g>
</svg>