<?xml version="1.0" encoding="utf-8"?>
<!-- Generator: Adobe Illustrator 22.1.0, SVG Export Plug-In . SVG Version: 6.00 Build 0)  -->
<svg version="1.1"
	 id="svg2" inkscape:version="0.48.2 r9819" sodipodi:docname="Sky_express.svg" xmlns:cc="http://creativecommons.org/ns#" xmlns:dc="http://purl.org/dc/elements/1.1/" xmlns:inkscape="http://www.inkscape.org/namespaces/inkscape" xmlns:rdf="http://www.w3.org/1999/02/22-rdf-syntax-ns#" xmlns:sodipodi="http://sodipodi.sourceforge.net/DTD/sodipodi-0.dtd" xmlns:svg="http://www.w3.org/2000/svg"
	 xmlns="http://www.w3.org/2000/svg" xmlns:xlink="http://www.w3.org/1999/xlink" x="0px" y="0px" width="385.091px"
	 height="150.058px" viewBox="0 0 385.091 150.058" style="enable-background:new 0 0 385.091 150.058;" xml:space="preserve">
<style type="text/css">
	.st0{fill:#2E3092;}
	.st1{fill:#FFFFFF;}
	.st2{fill:url(#path4398_1_);}
	.st3{fill:#ED1C24;}
</style>
<defs>
	
	
		<inkscape:perspective  id="perspective10" inkscape:persp3d-origin="372.04724 : 350.78739 : 1" inkscape:vp_x="0 : 526.18109 : 1" inkscape:vp_y="0 : 1000 : 0" inkscape:vp_z="744.09448 : 526.18109 : 1" sodipodi:type="inkscape:persp3d">
		</inkscape:perspective>
	
		<inkscape:perspective  id="perspective2824" inkscape:persp3d-origin="0.5 : 0.33333333 : 1" inkscape:vp_x="0 : 0.5 : 1" inkscape:vp_y="0 : 1000 : 0" inkscape:vp_z="1 : 0.5 : 1" sodipodi:type="inkscape:persp3d">
		</inkscape:perspective>
	
		<inkscape:perspective  id="perspective3699" inkscape:persp3d-origin="0.5 : 0.33333333 : 1" inkscape:vp_x="0 : 0.5 : 1" inkscape:vp_y="0 : 1000 : 0" inkscape:vp_z="1 : 0.5 : 1" sodipodi:type="inkscape:persp3d">
		</inkscape:perspective>
	
		<inkscape:perspective  id="perspective3715" inkscape:persp3d-origin="0.5 : 0.33333333 : 1" inkscape:vp_x="0 : 0.5 : 1" inkscape:vp_y="0 : 1000 : 0" inkscape:vp_z="1 : 0.5 : 1" sodipodi:type="inkscape:persp3d">
		</inkscape:perspective>
	
		<inkscape:perspective  id="perspective3281" inkscape:persp3d-origin="0.5 : 0.33333333 : 1" inkscape:vp_x="0 : 0.5 : 1" inkscape:vp_y="0 : 1000 : 0" inkscape:vp_z="1 : 0.5 : 1" sodipodi:type="inkscape:persp3d">
		</inkscape:perspective>
	
		<inkscape:perspective  id="perspective3266" inkscape:persp3d-origin="0.5 : 0.33333333 : 1" inkscape:vp_x="0 : 0.5 : 1" inkscape:vp_y="0 : 1000 : 0" inkscape:vp_z="1 : 0.5 : 1" sodipodi:type="inkscape:persp3d">
		</inkscape:perspective>
	
		<inkscape:perspective  id="perspective3812" inkscape:persp3d-origin="0.5 : 0.33333333 : 1" inkscape:vp_x="0 : 0.5 : 1" inkscape:vp_y="0 : 1000 : 0" inkscape:vp_z="1 : 0.5 : 1" sodipodi:type="inkscape:persp3d">
		</inkscape:perspective>
	
		<inkscape:perspective  id="perspective855" inkscape:persp3d-origin="550 : 500 : 1" inkscape:vp_x="0 : 750 : 1" inkscape:vp_y="0 : 1000 : 0" inkscape:vp_z="1100 : 750 : 1" sodipodi:type="inkscape:persp3d">
		</inkscape:perspective>
	
		<inkscape:perspective  id="perspective6724" inkscape:persp3d-origin="372.04724 : 350.78739 : 1" inkscape:vp_x="0 : 526.18109 : 1" inkscape:vp_y="0 : 1000 : 0" inkscape:vp_z="744.09448 : 526.18109 : 1" sodipodi:type="inkscape:persp3d">
		</inkscape:perspective>
	
		<inkscape:perspective  id="perspective6674" inkscape:persp3d-origin="372.04724 : 350.78739 : 1" inkscape:vp_x="0 : 526.18109 : 1" inkscape:vp_y="0 : 1000 : 0" inkscape:vp_z="744.09448 : 526.18109 : 1" sodipodi:type="inkscape:persp3d">
		</inkscape:perspective>
	
		<inkscape:perspective  id="perspective6606" inkscape:persp3d-origin="372.04724 : 350.78739 : 1" inkscape:vp_x="0 : 526.18109 : 1" inkscape:vp_y="0 : 1000 : 0" inkscape:vp_z="744.09448 : 526.18109 : 1" sodipodi:type="inkscape:persp3d">
		</inkscape:perspective>
	
		<inkscape:perspective  id="perspective6553" inkscape:persp3d-origin="372.04724 : 350.78739 : 1" inkscape:vp_x="0 : 526.18109 : 1" inkscape:vp_y="0 : 1000 : 0" inkscape:vp_z="744.09448 : 526.18109 : 1" sodipodi:type="inkscape:persp3d">
		</inkscape:perspective>
	
		<inkscape:perspective  id="perspective6503" inkscape:persp3d-origin="372.04724 : 350.78739 : 1" inkscape:vp_x="0 : 526.18109 : 1" inkscape:vp_y="0 : 1000 : 0" inkscape:vp_z="744.09448 : 526.18109 : 1" sodipodi:type="inkscape:persp3d">
		</inkscape:perspective>
	
		<inkscape:perspective  id="perspective6450" inkscape:persp3d-origin="372.04724 : 350.78739 : 1" inkscape:vp_x="0 : 526.18109 : 1" inkscape:vp_y="0 : 1000 : 0" inkscape:vp_z="744.09448 : 526.18109 : 1" sodipodi:type="inkscape:persp3d">
		</inkscape:perspective>
	
		<inkscape:perspective  id="perspective3748" inkscape:persp3d-origin="0.5 : 0.33333333 : 1" inkscape:vp_x="0 : 0.5 : 1" inkscape:vp_y="0 : 1000 : 0" inkscape:vp_z="1 : 0.5 : 1" sodipodi:type="inkscape:persp3d">
		</inkscape:perspective>
	
		<inkscape:perspective  id="perspective788" inkscape:persp3d-origin="1685 : 533.33333 : 1" inkscape:vp_x="0 : 800 : 1" inkscape:vp_y="0 : 1000 : 0" inkscape:vp_z="3370 : 800 : 1" sodipodi:type="inkscape:persp3d">
		</inkscape:perspective>
	
		<inkscape:perspective  id="perspective4410" inkscape:persp3d-origin="0.5 : 0.33333333 : 1" inkscape:vp_x="0 : 0.5 : 1" inkscape:vp_y="0 : 1000 : 0" inkscape:vp_z="1 : 0.5 : 1" sodipodi:type="inkscape:persp3d">
		</inkscape:perspective>
</defs>
<sodipodi:namedview  bordercolor="#666666" borderopacity="1.0" fit-margin-bottom="0" fit-margin-left="0" fit-margin-right="0" fit-margin-top="0" id="base" inkscape:current-layer="layer1" inkscape:cx="178.54136" inkscape:cy="36.532219" inkscape:document-units="px" inkscape:pageopacity="0.0" inkscape:pageshadow="2" inkscape:window-height="738" inkscape:window-maximized="1" inkscape:window-width="1280" inkscape:window-x="-8" inkscape:window-y="-8" inkscape:zoom="1.3394805" pagecolor="#ffffff" showgrid="false">
	<inkscape:grid  empspacing="5" enabled="true" id="grid4187" snapvisiblegridlinesonly="true" type="xygrid" visible="true">
		</inkscape:grid>
</sodipodi:namedview>
<g>
	<path id="path2872" inkscape:connector-curvature="0" class="st0" d="M258.207,0l-0.566,0.047l0.33,0.047
		C257.971,0.094,258.207,0,258.207,0z M257.499,0.189l-1.18,0.094L183.84,4.955l12.835,7.267l0.094,0.047v6.323L257.499,0.189
		L257.499,0.189z M258.726,0.472l-0.566,0.189l-45.111,19.111v0.047l-0.991,3.586l3.822-1.887l9.485,5.851L258.726,0.472
		L258.726,0.472z M174.545,5.474l-78.708,5.191l27.84,16.185l0.236,0.142L126.98,41.1l61.39-18.309v-8.918v-0.236L174.545,5.474
		L174.545,5.474z M205.452,22.98l-37.466,15.855l-2.076,0.897l-9.579,4.058l-11.042,12.174l18.167-8.682l19.96,10.57l36.24-25.906
		L205.452,22.98L205.452,22.98z"/>
	
		<path id="path3747" inkscape:connector-curvature="0" sodipodi:nodetypes="cccccccccsssccccccccccccccsccscccccccccccccccscccsccccccscccccccccccccccccccccccccccccccccscccscscccccccccccccccccccccccsccccccccsccccscsccccccccsccccccccccccccccccccsccccccccccccccccccccccccccccccccccscccccccccccsccccccccccscsscccccccccccsccsccccscccccsccccccscccccccccccccccsccccccccsssscccccccccccscccccccsccccccccccccccccscscccccccccccccccccccccccscccscccccccccccccccccccccsccccccccccccccccsccccccccccccccccccccccccccccccsccccscccccccscccccccccscccccccccscccccccsscccccccccccccccccccccscccccccccccscccccccccccccscccccsccccccccccccccsccsccccsccccccccccccccccccccscscccccsccccccccccccccccccscccccccccccscsccccccscccccsccccccccccccccscccccccccccccsscccccccccccccccsccccccccccsccccccccsccccccccccccscccccccccsccccccccccccccccsccccscccsccsscccccccccsccccsccccccccccsccccccccssccccccccccccscccccscccccccccccccccccccsccsccccccccsccccccccscccccccscccccccccsccsccccccccccccccccccccccccccccsccsc" class="st1" d="
		M121.274,11.411c-0.02,0.011-0.03,0.039-0.021,0.084c-0.061,0.04,0.036,0.136-0.006,0.139c-0.081,0.04-0.075,0.166-0.089,0.244
		c-0.092,0.025-0.124,0.119-0.112,0.203c0.052,0.086-0.08,0.07-0.059,0.153c-0.095,0.073,0.006,0.178-0.016,0.229
		c0.031,0.067,0.006,0.135,0.007,0.215c0.042-0.006,0.034,0.027,0.023,0.081c0.056,0.029,0.019,0.102-0.025,0.119
		c0.081-0.037,0.116,0.044,0.17,0.091c0.01,0.006,0.029,0.113,0.099,0.119c-0.006,0.011-0.072,0.101,0.011,0.081
		c0.115,0.029,0.055,0.133,0.022,0.196c-0.084,0.078,0.004,0.117,0.04,0.181c0.108,0.042-0.053,0.085,0.004,0.145
		c0.045,0.016,0.202,0.087,0.141,0.141c-0.02,0.141,0.183,0.103,0.203,0.225c-0.014,0.085,0.042,0.059,0.098,0.081
		c-0.004,0.064,0.028,0.111,0.054,0.167c0.082,0.027,0.006,0.122,0.048,0.177c0.006,0.097,0.181,0.137,0.136,0.242
		c0.053,0.102-0.055,0.183-0.027,0.273c0.061,0.056,0.051,0.125,0.055,0.206c0.019,0.091,0.076,0.199,0.025,0.29
		c0.001,0.059-0.077,0.086-0.115,0.134c-0.094,0.042-0.17,0.087-0.248,0.127c-0.082,0.047-0.187,0.079-0.259,0.117
		c-0.087,0.06-0.195,0.074-0.29,0.108c-0.092,0.022-0.171,0.064-0.272,0.054c-0.089-0.006-0.168,0.035-0.205-0.047
		c-0.1-0.014-0.16-0.098-0.164-0.191c-0.096-0.006-0.018-0.058-0.032-0.117c-0.086-0.013-0.049,0.112-0.076,0.148
		c-0.013-0.043-0.072-0.018-0.037,0.021c-0.054,0.023-0.117-0.063-0.187-0.027c-0.064-0.031-0.131-0.007-0.197-0.038
		c-0.041-0.088-0.072-0.179-0.082-0.283c0.056-0.065-0.042-0.072-0.041-0.144c-0.027-0.065,0.013-0.187-0.085-0.205
		c-0.023-0.093-0.013-0.19-0.039-0.276c0.016-0.119-0.207-0.074-0.184-0.151c-0.03-0.055,0.016-0.134-0.051-0.186
		c-0.101-0.057-0.061-0.168-0.143-0.238c0.042-0.059,0.108-0.141,0.09-0.233c0.056-0.091-0.114-0.067-0.086-0.135
		c0.058-0.118-0.112-0.148-0.163-0.224c-0.023-0.076-0.097-0.197-0.194-0.164c-0.04,0.069,0.035,0.136,0.087,0.198
		c0.086,0.068,0.112,0.175,0.074,0.28c-0.036,0.111-0.01,0.217-0.02,0.331c0.021,0.043,0.055,0.085,0.031,0.155
		c0.068,0.007,0.001,0.102-0.039,0.076c-0.055-0.064,0.056-0.014,0.025-0.07c-0.073-0.02-0.116-0.106-0.21-0.113
		c-0.149-0.04-0.06,0.11-0.026,0.172c0.067,0.098,0.181-0.06,0.192,0.064c0.013,0.078-0.042,0.073-0.093,0.075
		c0.039,0.059,0.037,0.131,0.107,0.188c0.086-0.022,0.024,0.056,0.079,0.082c-0.13,0.058-0.058,0.189-0.115,0.292
		c-0.08,0.092,0.048,0.149,0.016,0.238c-0.078,0.085-0.061,0.207-0.025,0.304c-0.087,0.109,0.085,0.154,0.105,0.225
		c0.069,0.049,0.007,0.058-0.039,0.089c0.022,0.046-0.112,0.126,0.006,0.143c0.075-0.022,0.176,0.021,0.233,0.062
		c0.006,0.093,0.155,0.151,0.118,0.245c0.065,0.058-0.021,0.011-0.022,0.048c0.038,0.079-0.006,0.138-0.039,0.208
		c-0.088-0.014-0.045,0.076-0.135,0.096c-0.006,0.014-0.036,0.074-0.021,0.103c0.104,0.049-0.026,0.118-0.085,0.071
		c-0.067,0.031,0.03,0.063-0.04,0.086c0.018,0.085,0.011,0.228,0.117,0.255c-0.006,0.068,0.023,0.14,0.097,0.183
		c0.088,0.03,0.157-0.113,0.207-0.014c0.088,0.062-0.044,0.087-0.004,0.15c0.097,0.011-0.03,0.066,0.048,0.087
		c-0.038,0.085,0.053,0.151,0.048,0.235c-0.035,0.041-0.044,0.055-0.05,0.106c0.036,0.138-0.143,0.069-0.204,0.107
		c0.059,0.023,0.074,0.148-0.028,0.105c-0.079,0.035-0.099,0.165-0.062,0.223c0.05,0.029,0.277,0.112,0.139,0.187
		c-0.113,0.051-0.011,0.185-0.101,0.239c-0.022,0.044-0.158,0.028-0.145,0.122c0.006,0.114,0.195-0.002,0.153,0.108
		c-0.073,0.052,0.014,0.084-0.043,0.139c-0.076,0.047,0.016,0.067,0.02,0.101c-0.076,0.071-0.006,0.115,0.025,0.18
		c0.024,0.069,0.091,0.058,0.136,0.119c0.082,0.041,0.01,0.184-0.042,0.243c-0.081,0.052,0.001,0.06,0.052,0.055
		c0.075,0.018,0.071,0.077,0.13,0.122c0.083,0.067,0.197-0.093,0.235,0.014c0.047,0.067,0.01,0.24-0.096,0.205
		c-0.106-0.027-0.014,0.097-0.104,0.055c0.058,0.065-0.033-0.004-0.046-0.024c-0.147,0.04,0.072,0.088,0.004,0.154
		c0.006,0.027-0.182-0.035-0.133,0.066c-0.09,0.029,0.03,0.198-0.027,0.179c-0.032-0.088-0.166-0.06-0.109,0.032
		c0.065,0.011,0.108,0.097,0.17,0.145c0.074,0.033,0.046,0.021-0.006,0.05c-0.124,0.033-0.069,0.14,0.031,0.154
		c0.043-0.031,0.166-0.121,0.193-0.031c0.153-0.063,0.052,0.162,0.17,0.152c-0.02,0.082,0.1,0.054,0.141,0.111
		c0.096,0.042,0.24,0.068,0.343-0.004c0.08-0.074,0.162,0.001,0.257-0.014c0.095,0.006,0.235,0.037,0.231,0.147
		c0.07,0.083-0.116,0.152-0.034,0.206c-0.07,0.08,0.036,0.186,0.123,0.217c0.053-0.071,0.074,0.042,0.132,0.051
		c0.083,0.065,0.176,0.021,0.168-0.077c0.06-0.088,0.204-0.027,0.265,0.023c0.082-0.024,0.117-0.074,0.206-0.055
		c-0.004,0.096,0.037-0.001,0.058-0.034c0.082,0.004,0.06-0.045,0.132-0.03c0.08,0.044,0.095-0.052,0.136-0.067
		c0.084-0.046,0.045,0.034,0.045,0.077c0.103,0.029-0.004-0.119,0.063-0.145c0.111-0.068,0.234-0.104,0.362-0.138
		c0.047-0.034,0.112-0.059,0.159-0.001c0.078-0.01,0.196-0.034,0.249,0.051c0.014,0.077-0.023,0.043-0.047,0.106
		c-0.077,0.075,0.013,0.132,0.071,0.047c0.173,0.013-0.024-0.192,0.106-0.257c0.081-0.072,0.138-0.16,0.25-0.192
		c0.1-0.032,0.196-0.058,0.304-0.028c0.044,0.071,0.075-0.026,0.094-0.066c0.096,0.018,0.113-0.098,0.201-0.065
		c0.071,0.014,0.171,0.033,0.236-0.016c-0.013-0.08,0.084-0.037,0.102-0.05c0.097-0.041,0.222,0.006,0.269,0.1
		c-0.013,0.085,0.068,0.055,0.118,0.02c0.043-0.042,0.097-0.124,0.175-0.127c0.103,0.061,0.195-0.04,0.169-0.14
		c-0.094-0.076,0.075-0.105,0.128-0.058c0.132,0.007,0.037-0.152,0.129-0.183c0.011-0.096,0.168-0.131,0.232-0.131
		c0.014,0.03,0.115-0.006,0.145-0.07c0.034,0.022,0.093,0.029,0.143-0.011c0.07,0.088,0.206,0.013,0.283,0.001
		c0.013,0.067,0.037,0.049,0.076,0.057c0.105,0.016,0.206-0.025,0.296,0.027c0.102,0.044,0.263-0.018,0.301-0.118
		c0.096-0.006,0.215,0.057,0.321,0.024c0.006,0.084,0.126,0.011,0.175,0.065c0.105-0.051,0.183,0.02,0.282,0.043
		c0.098,0.104,0.211-0.014,0.319-0.026c0.04-0.08,0.168-0.063,0.239-0.12c0.093-0.028,0.073-0.126,0.156-0.16
		c0.072-0.002,0.186,0.023,0.226-0.061c0.081-0.047,0.196-0.103,0.296-0.086c0.076,0.062,0.102-0.04,0.18,0.007
		c0.125,0.026,0.215,0.107,0.298,0.194c0.044,0.085,0.173,0.07,0.219,0.174c0.074,0.091,0.19,0.124,0.308,0.14
		c0.113-0.007,0.225,0.011,0.336-0.007c0.064-0.062,0.128-0.029,0.2-0.073c0.119-0.02,0.091-0.169,0.203-0.182
		c0.105-0.054,0.168,0.02,0.146,0.117c0.061,0.067,0.094-0.051,0.143-0.072c0.072-0.052,0.019-0.075-0.018-0.113
		c0.059-0.04,0.11-0.133,0.208-0.107c0.089,0.027,0.195,0.072,0.289-0.006c-0.001-0.074,0.059-0.113,0.139-0.082
		c0.05-0.076,0.076,0.036,0.111-0.027c0.085,0.034,0.078-0.065,0.158-0.069c0.124-0.059,0.167,0.072,0.271,0.105
		c0.091,0.057,0.207-0.004,0.303-0.001c0.038-0.101,0.146-0.131,0.241-0.181c0.119,0.068,0.15-0.083,0.244-0.1
		c0.088-0.082,0.222-0.064,0.313-0.138c0.105,0.006,0.171,0.091,0.272,0.131c0.058-0.034,0.108-0.038,0.164,0.01
		c0.038,0.102,0.172,0.019,0.226,0.081c0.011,0.086,0.085,0.08,0.136,0.027c0.071,0.007,0.136,0.024,0.119-0.071
		c0.102-0.065,0.244-0.053,0.337-0.002c0.091-0.064,0.2-0.078,0.311-0.068c0.108-0.024,0.248,0.107,0.298-0.041
		c0.01-0.1,0.123-0.136,0.209-0.179c0.019-0.055,0.049-0.12,0.134-0.133c0.124,0.02,0.149-0.132,0.272-0.135
		c0.051,0.063,0.097,0.031,0.154-0.019c0.054,0.052,0.118,0.011,0.183,0.018c0.022,0.11,0.169,0.01,0.25,0.019
		c0.007-0.06-0.006-0.184,0.103-0.125c0.013-0.035-0.001-0.188,0.108-0.137c0.11-0.016,0.172-0.128,0.285-0.149
		c0.108,0.031,0.24,0.011,0.32,0.094c0.089,0.04,0.1,0.143-0.006,0.175c-0.134,0.014-0.014,0.081-0.023,0.151
		c0.081-0.027,0.169-0.014,0.245-0.034c0.09,0.001,0.082-0.079,0.131-0.11c0.168-0.047,0.101,0.218,0.259,0.191
		c0.108,0.061,0.254-0.023,0.352,0.061c0.112,0.047,0.247,0.026,0.351,0.081c0.06,0,0.148-0.01,0.207-0.04
		c0.098-0.045,0.146-0.169,0.278-0.151c0.114-0.031,0.234,0.03,0.343-0.018c0.118-0.006,0.239,0.104,0.333,0.006
		c0.122-0.002,0.208,0.092,0.333,0.091c0.102,0.042,0.13,0.223,0.267,0.188c0.115-0.006,0.135,0.179,0.248,0.177
		c0.111,0.007,0.214,0.133,0.269,0.223c0.054-0.045,0.084,0.013,0.139,0.01c0.016-0.075,0.073-0.132,0.171-0.117
		c0.013,0.058,0.167,0.011,0.106,0.064c0.035,0.056,0.153,0.001,0.212-0.006c0.059-0.063,0.176-0.081,0.259-0.121
		c0.108-0.048,0.231,0.036,0.319-0.039c0.082-0.037,0.181-0.016,0.276-0.03c0.127,0.025,0.201-0.11,0.331-0.091
		c0.094-0.024,0.175-0.038,0.257-0.102c0.109-0.065,0.25,0.006,0.34-0.023c0.086,0.016,0.078-0.094,0.145-0.098
		c0.137-0.024,0.27,0.021,0.407,0.02c0.103-0.051,0.25-0.087,0.351-0.02c0.064,0.071,0.152,0.08,0.238,0.089
		c0.094,0.065,0.185,0.142,0.248,0.24c0.069,0.137,0.184,0.25,0.232,0.397c0.028,0.099,0.095,0.178,0.132,0.272
		c0.061,0.129,0.144,0.25,0.168,0.392c0.014,0.094,0.115,0.215-0.025,0.255c-0.088,0.031-0.175,0.124-0.115,0.218
		c-0.039,0.081,0.098,0.047,0.075,0.099c-0.108-0.026-0.12,0.106-0.044,0.144c0.114-0.046,0.128,0.06,0.104,0.135
		c0.044,0.086,0.043,0.187,0.12,0.236c-0.078,0.039-0.114,0.151-0.026,0.192c0.056,0.014,0.048,0.014,0.065,0.058
		c0.087-0.007,0.014,0.031,0.046,0.074c-0.055,0.062-0.007,0.142,0.071,0.08c0.048-0.072,0.035-0.001,0.001,0.029
		c-0.109,0-0.047,0.075-0.07,0.133c0.087,0.061,0.006,0.11-0.05,0.153c-0.093,0.065-0.202,0.162-0.144,0.281
		c-0.014,0.124,0.162,0.124,0.198,0.028c0.046-0.058,0.209-0.132,0.263-0.062c0.025,0.041,0.113,0.032,0.07-0.036
		c-0.013-0.129,0.207,0.014,0.18-0.119c0.068-0.135,0.087,0.126,0.19,0.06c0.018-0.079,0.095-0.106,0.184-0.084
		c0.027-0.047,0.036-0.014,0.074-0.011c0.088,0.01,0.056-0.079,0.135-0.086c0.089,0.034,0.115-0.112,0.029-0.092
		c0.026-0.047,0.07-0.102,0.096-0.158c0.072-0.098,0.178-0.098,0.276-0.148c0.058-0.051,0.158-0.018,0.199-0.083
		c0.078-0.075,0.204-0.042,0.29-0.078c0.103-0.046,0.227-0.019,0.331-0.024c0.089-0.041,0.188,0.018,0.256-0.032
		c0.104,0.016,0.206,0.034,0.292,0.088c0.02-0.045,0.074-0.091,0.132-0.106c0.1-0.068,0.211-0.031,0.325-0.026
		c0.044,0.095,0.16,0.03,0.144-0.067c0.081,0.013,0.135-0.055,0.201-0.1c0.088-0.058,0.223-0.042,0.291-0.101
		c0.096-0.038,0.083,0.151,0.204,0.134c0.016-0.091,0.117,0.028,0.153-0.051c-0.034-0.072-0.096-0.185,0.055-0.18
		c0.032-0.075,0.181-0.01,0.173-0.066c0.033-0.09,0.201,0.029,0.266-0.066c0.084,0.07,0.112-0.053,0.199-0.02
		c0.088-0.053,0.155,0.031,0.253-0.004c-0.025-0.082-0.006-0.236,0.135-0.168c0.068,0.086,0.12-0.057,0.147-0.114
		c0.07-0.06,0.102-0.182,0.226-0.145c0.077-0.059,0.102,0.072,0.161,0.043c-0.018-0.056-0.013-0.136,0.076-0.088
		c0.051,0.069,0.086-0.021,0.141-0.039c0.102,0.039,0.201,0.022,0.315-0.006c0.078,0.004,0.07-0.054,0.124-0.069
		c0.084-0.022,0.124,0.162,0.17,0.088c0.092-0.071,0.168-0.152,0.232-0.249c0.106-0.048,0.023-0.216,0.164-0.198
		c0.089-0.052,0.121-0.174,0.233-0.162c0.013-0.09,0.162-0.05,0.207-0.127c0.061,0.045,0.09,0.004,0.152,0.006
		c0.054-0.122,0.181-0.078,0.288-0.102c0.084,0.082,0.153-0.059,0.249-0.062c0.111-0.05,0.023,0.051,0.056,0.092
		c0.069,0.094,0.237,0.035,0.267-0.069c0.025-0.099,0.122,0,0.148-0.075c0.023-0.093,0.114-0.07,0.197-0.102
		c0.102-0.034,0.193-0.121,0.281-0.185c0.114,0.036,0.033-0.105,0.143-0.086c0.098,0.1,0.082-0.086,0.181-0.099
		c0.114,0.022,0.006-0.055,0.04-0.1c0.088-0.043,0.211-0.071,0.27-0.147c-0.068-0.049,0.033-0.122-0.013-0.185
		c0.087-0.04,0.032-0.165,0.107-0.191c0.088-0.056,0.189-0.122,0.312-0.119c0.067,0.051,0.1-0.022,0.179,0.002
		c0.11,0.082,0.184-0.098,0.308-0.072c0.104,0.029,0.172-0.057,0.214-0.131c0.078-0.071,0.185-0.143,0.295-0.168
		c0.124-0.028,0.124-0.162,0.231-0.21c0.088-0.07,0.177-0.128,0.3-0.129c0.124-0.02,0.247-0.016,0.366,0.014
		c0.123,0.014,0.229,0.047,0.35,0.059c0.019-0.09,0.114-0.067,0.176-0.103c0.105,0.027,0.152-0.053,0.238-0.096
		c0.115-0.037,0.223-0.107,0.347-0.105c0.109-0.014,0.215-0.037,0.327-0.028c0.106,0.001,0.195,0.033,0.298,0.058
		c0.061-0.117,0.192-0.086,0.286-0.073c0.068-0.05,0.12-0.138,0.218-0.167c0.014-0.087,0.118-0.142,0.2-0.151
		c0.094-0.094,0.246,0.039,0.352-0.039c0.113-0.054,0.105-0.193,0.209-0.237c0.098-0.052,0.213-0.062,0.304-0.125
		c-0.024-0.056,0.014-0.143,0.102-0.154c0.119-0.004,0.125-0.155,0.253-0.154c0.113-0.01,0.217-0.032,0.329-0.052
		c0.105-0.067,0.231-0.019,0.319-0.097c0.113,0.019,0.181-0.082,0.301-0.087c0.102-0.022,0.242-0.01,0.316-0.089
		c0.103-0.019,0.09-0.105,0.127-0.177c0.082-0.047,0.171-0.085,0.26-0.123c0.105-0.029,0.225-0.05,0.33-0.018
		c0.079-0.056,0.18-0.048,0.278-0.041c0.114,0.007,0.222-0.01,0.33,0.018c0.113,0.076,0.066-0.073,0.115-0.123
		c0.078-0.091,0.214-0.045,0.32-0.05c0.107,0.02,0.22,0.055,0.322,0.09c0.103-0.039,0.22-0.08,0.325-0.073
		c0.115,0.026,0.161-0.078,0.26-0.1c0.081-0.045,0.272,0.01,0.221-0.129c0.083-0.082,0.174-0.167,0.286-0.214
		c0.016-0.072,0.2-0.05,0.146-0.119c-0.045-0.108,0.124-0.051,0.162-0.102c0.076,0.013,0.093-0.046,0.103-0.11
		c0.066,0.021,0.111-0.056,0.18-0.065c0.085,0.026,0.101-0.022,0.135-0.08c0.067-0.089,0.207-0.112,0.271-0.2
		c0.051-0.006,0.135,0.03,0.125-0.062c0.055-0.043,0.191-0.098,0.268-0.114c0.08-0.081,0.173-0.129,0.28-0.159
		c0.083-0.072,0.195-0.066,0.304-0.081c0.113,0.026,0.208-0.021,0.31-0.059c0.036-0.061,0.11-0.176,0.218-0.135
		c-0.056-0.109,0.1-0.158,0.198-0.128c0.092-0.047,0.063,0.067,0.13,0.056c0.116,0.004,0.213,0.076,0.284,0.151
		c-0.048,0.051,0.013,0.062,0.063,0.059c0.078,0.073,0.079-0.053,0.138-0.044c0.094-0.072,0.204,0.014,0.281,0.062
		c0.11,0.067,0.109-0.152,0.203-0.151c-0.013,0.052-0.191,0.196-0.041,0.164c0.056-0.079,0.089,0.087,0.136,0.031
		c-0.048-0.01-0.02-0.062-0.025-0.072c-0.034-0.072,0.078,0.002,0.118-0.007c0.062,0.057,0.094-0.05,0.15-0.021
		c-0.074,0.114,0.071,0.058,0.146,0.061c0.094,0.068,0.066-0.105,0.006-0.043c-0.123-0.047-0.047-0.178,0.045-0.214
		c-0.031-0.061-0.006-0.11,0.053-0.127c0.086,0.024,0.173-0.01,0.256,0.001c0.117-0.055,0.201,0.027,0.288,0.086
		c0.127,0.047,0.081,0.182,0.071,0.274c0.058,0.089,0.105,0.026,0.172,0.004c0.079-0.061,0.183,0.03,0.246-0.055
		c-0.01,0.052,0.124,0.067,0.079,0.004c0.053,0.002,0.099-0.122,0.185-0.143c0.105-0.045,0.171-0.108,0.255-0.17
		c-0.108-0.016-0.059-0.117,0.018-0.145c0.013-0.098,0.176-0.054,0.162-0.138c-0.01-0.132,0.141,0.019,0.199-0.042
		c0.014-0.095,0.118-0.097,0.188-0.147c0.08,0.013,0.189,0.035,0.254-0.051c0.119,0.011,0.038-0.09,0.029-0.148
		c0.075-0.024,0.106-0.104,0.195-0.075c0.102,0.051,0.058-0.035,0.089-0.087c0.067-0.093-0.089,0.006-0.051-0.081
		c0.05-0.056,0.092-0.119,0.098-0.175c0.059,0.006,0.121-0.071,0.192-0.027c0.056,0.054,0.137,0.001,0.064-0.049
		c0.006-0.099,0.045-0.17,0.05-0.264c-0.091-0.09,0.091-0.077,0.064-0.161c0.09-0.068-0.061-0.114-0.006-0.181
		c0.016-0.091,0.102-0.161,0.117-0.257c-0.049-0.112,0.072-0.186,0.115-0.273c0.007-0.085,0.174-0.206,0.026-0.24
		c0.004-0.115-0.158,0.007-0.15-0.109c-0.043-0.115,0.108-0.058,0.126-0.148c-0.013-0.101,0.113-0.153,0.096-0.25
		c0.029-0.108-0.111-0.193-0.043-0.282c-0.101-0.059,0.041-0.181-0.019-0.258c-0.101-0.035-0.175-0.105-0.244-0.172
		c0.077-0.054-0.072-0.102-0.006-0.153c0.104-0.07-0.033-0.126-0.034-0.212c-0.049-0.077,0.014-0.195,0.102-0.19
		c0.035-0.091,0.115-0.115,0.211-0.081c0.088-0.039,0.135-0.121,0.215-0.167c0.067-0.018,0.118-0.172,0.034-0.217
		c-0.014-0.056,0.018-0.129-0.06-0.165c0.036-0.052-0.001-0.175-0.095-0.124c-0.055,0.07-0.084,0.169-0.102,0.262
		c-0.038,0.096-0.164-0.013-0.253,0.039c-0.096-0.023-0.218-0.016-0.3-0.068c-0.117,0.023,0.052-0.147-0.057-0.147
		c-0.061,0.05-0.157-0.002-0.205-0.067c-0.08-0.02-0.087-0.194,0.013-0.153c0.11-0.055-0.065-0.163,0.054-0.182
		c-0.013-0.049-0.128-0.058-0.109-0.142c0.055-0.014,0.053-0.048-0.013-0.072c-0.123-0.014-0.006-0.188-0.147-0.18
		c0.004-0.046-0.016-0.09-0.04-0.132c0.027-0.101-0.076-0.03-0.113-0.085c-0.049-0.023,0.007-0.161-0.088-0.163
		c0.051-0.055-0.054-0.06-0.03-0.115c0.074-0.036,0.068-0.12,0.133-0.175c0.067-0.037,0.153-0.079,0.234-0.122
		c0.058-0.058,0.09-0.187,0.062-0.271c-0.056,0.05-0.094-0.119-0.026-0.031c0.08,0.067,0.106-0.056,0.014-0.064
		c0.053-0.056,0.157-0.075,0.225-0.133c-0.011-0.05-0.035-0.177-0.115-0.134c-0.065-0.088,0.158-0.098,0.169-0.187
		c-0.091-0.011-0.006-0.086-0.07-0.125c0.03-0.13-0.108-0.064-0.167-0.02c-0.079,0.052-0.149,0.143-0.265,0.137
		c0,0.022-0.037,0.064-0.08,0.098c-0.03-0.048-0.091,0.013-0.028,0.032c0.006,0.083,0.067,0.107,0.151,0.094
		c0.042-0.027,0.102-0.01,0.137-0.05c0.064-0.101,0.004,0.105,0.079,0.013c0.035,0.068-0.111,0.082-0.161,0.112
		c-0.111,0.041-0.218,0.068-0.294,0.16c0.004,0.113,0.145,0.073,0.229,0.065c0.051-0.04,0.138,0.016,0.108,0.087
		c-0.062,0-0.128,0.029-0.188,0.069c-0.094,0.02-0.054,0.141-0.167,0.119c-0.102,0.002-0.225,0.102-0.193,0.203
		c0.03,0.094-0.033,0.03-0.085,0.067c-0.141,0.055-0.048-0.178-0.166-0.166c-0.058,0.053-0.138,0.089-0.181,0.153
		c-0.068,0.067-0.038,0.136,0.062,0.108c0.088,0.027,0.038,0.082-0.033,0.081c-0.038,0.066-0.088,0.136-0.179,0.09
		c0.036,0.071,0.001,0.154,0.052,0.228c-0.043,0.069,0.033,0.036,0.041,0.006c0.082-0.087,0.038,0.071,0.084,0.102
		c-0.034,0.093-0.131,0.163-0.138,0.267c-0.006,0.129-0.102-0.001-0.161,0.014c-0.141,0.058,0.093,0.058,0.051,0.16
		c-0.145,0.03-0.082,0.187-0.191,0.251c-0.053,0.092-0.133-0.014-0.177,0.054c-0.112,0.078,0.018,0.12,0.079,0.172
		c-0.014,0.049,0.095,0.133,0.036,0.143c-0.103-0.073-0.112,0.074-0.147,0.116c-0.105,0.007-0.04,0.192-0.161,0.21
		c-0.041,0.068-0.104,0.119-0.199,0.119c-0.038,0.06-0.097,0.059-0.17,0.089c-0.089,0.03-0.186,0.101-0.26,0.026
		c-0.041-0.118-0.097,0.071-0.174,0.011c-0.119,0.014-0.257,0.001-0.341-0.083c0.075-0.088,0.076-0.193,0.069-0.303
		c0.064-0.093-0.025-0.131-0.1-0.161c-0.144-0.021-0.149,0.136-0.235,0.188c-0.127,0.025-0.192,0.155-0.312,0.179
		c-0.035-0.033-0.087-0.088-0.139-0.02c-0.086,0.098-0.191,0-0.272-0.041c-0.088-0.047-0.048-0.111,0.016-0.158
		c0.037-0.076-0.014-0.037-0.057-0.05c-0.094-0.052-0.028,0.071-0.11,0.067c-0.006,0.054-0.058,0.119-0.018,0.166
		c-0.049,0.067-0.186,0.147-0.259,0.073c-0.082-0.099-0.259-0.034-0.304,0.067c-0.052,0.086-0.094,0.166-0.134,0.244
		c-0.016,0.102-0.194,0.163-0.121,0.27c0.107,0.006,0.053,0.069,0.031,0.13c-0.07,0.014-0.062,0.059-0.07,0.114
		c-0.07,0.035-0.231-0.022-0.246,0.11c-0.078,0.022-0.198,0.171-0.244,0.037c-0.062-0.069-0.236-0.014-0.206,0.077
		c-0.021,0.081-0.079,0.17-0.055,0.267c0.073,0.105-0.108,0.03-0.101,0.129c-0.073,0.026-0.136,0.107-0.221,0.088
		c-0.056,0.071-0.163,0.05-0.235,0.103c-0.104,0.016-0.247,0.067-0.331-0.006c-0.068-0.09-0.091,0.123-0.147,0.026
		c-0.032-0.097-0.112-0.036-0.103,0.041c-0.076,0.113,0.078,0.105,0.09,0.196c0.046,0.106-0.108,0.054-0.141,0.132
		c-0.041,0.09,0.01,0.204-0.073,0.28c-0.097,0.02-0.223,0.085-0.227,0.201c-0.046,0.085-0.041-0.062-0.105-0.048
		c-0.014-0.1-0.15-0.057-0.166,0.026c-0.078,0.014-0.087,0.071-0.084,0.144c-0.076,0.069,0.066,0.113,0.024,0.185
		c0.107,0.117-0.094,0.111-0.115,0.194c0.081,0.048,0.007,0.092-0.042,0.133c-0.03,0.109-0.004,0.235-0.074,0.331
		c-0.029,0.094-0.1,0.189-0.183,0.244c-0.105,0.081-0.176-0.127-0.252-0.019c-0.054-0.05-0.137,0.02-0.204,0.026
		c-0.074-0.006-0.144-0.171-0.197-0.064c-0.079-0.038-0.151,0.021-0.237,0.002c-0.035-0.051-0.139-0.024-0.15-0.085
		c-0.069-0.131-0.085,0.104-0.162,0.082c0.006-0.048-0.036-0.136-0.083-0.057c-0.093-0.018,0.026,0.083-0.038,0.104
		c-0.104,0.056-0.062-0.062-0.111-0.104c-0.104-0.046-0.064,0.094-0.103,0.135c-0.056-0.014-0.196,0.014-0.205-0.078
		c0.079-0.073-0.039-0.129,0.007-0.199c-0.078-0.03,0.022-0.131-0.055-0.169c-0.016,0.02-0.175,0.128-0.12,0.037
		c0.105-0.056-0.085-0.053-0.024-0.112c-0.048-0.018-0.102-0.056-0.158-0.083c-0.001-0.014,0.044-0.052-0.03-0.05
		c-0.014-0.07-0.092-0.016-0.129-0.069c0.068-0.029,0.063-0.081-0.007-0.088c-0.127-0.092-0.046-0.206-0.035-0.331
		c0.038-0.052,0.182-0.106,0.087-0.185c-0.045,0.06-0.1-0.046-0.16-0.054c-0.105-0.016,0.051-0.057-0.006-0.106
		c0.131-0.018,0.014-0.108-0.026-0.171c-0.105,0.004-0.126-0.091-0.115-0.165c-0.037-0.121,0.14-0.149,0.203-0.227
		c0.122,0,0.149-0.149,0.192-0.228c-0.092,0-0.112-0.1-0.154-0.162c-0.052,0.004-0.113-0.065-0.086-0.121
		c-0.089-0.046-0.011-0.147-0.019-0.213c0.07,0.048,0.153-0.096,0.229-0.043c0.104-0.013,0.167,0.052,0.259,0.072
		c0.006-0.031,0.01-0.201-0.051-0.139c-0.091,0.021-0.042-0.088-0.138-0.077c0.026-0.07-0.05-0.188,0.02-0.232
		c0.127,0.013-0.044-0.049-0.011-0.111c-0.082-0.128-0.11,0.145-0.157,0.05c-0.055-0.123,0.156-0.15,0.123-0.271
		c-0.093-0.018-0.168-0.124-0.269-0.103c-0.081-0.025-0.208,0.006-0.168,0.119c0.025,0.063-0.025,0.282,0.101,0.177
		c0.142,0.018-0.054,0.168,0.004,0.242c0.073-0.048,0.171,0.092,0.066,0.1c0.006,0.054,0.048,0.158-0.02,0.225
		c-0.014,0-0.014,0.023-0.022,0.031c-0.058-0.042-0.126-0.078-0.205-0.104c-0.041-0.042-0.109-0.114-0.06-0.191
		c-0.023-0.083-0.056-0.173-0.056-0.251c0.064-0.087,0.082-0.209,0.014-0.29c-0.095,0.006-0.019-0.06-0.06-0.101
		c-0.132-0.087,0.089-0.135,0.13-0.213c0.088-0.065,0.191-0.12,0.247-0.205c0.016-0.119,0.155-0.118,0.176-0.243
		c0.036-0.094,0.02-0.192,0.033-0.286c-0.096-0.036,0.045-0.086-0.014-0.15c-0.071,0.029-0.158,0.037-0.236,0.058
		c0,0.119-0.12,0.171-0.225,0.116c-0.12-0.014-0.184,0.159-0.311,0.11c-0.025-0.118-0.109,0.006-0.186,0.006
		c-0.006,0.122-0.132-0.027-0.17,0.071c-0.078,0.01-0.113,0.091-0.197,0.095c-0.058,0.048-0.165,0.001-0.214,0.066
		c-0.026-0.03-0.056-0.006-0.083-0.019c-0.088,0.041-0.143-0.038-0.226-0.002c-0.034-0.067-0.092-0.041-0.158-0.034
		c-0.059-0.101-0.196-0.051-0.25,0.035c-0.056,0.094-0.158,0.151-0.26,0.193c-0.082,0.056-0.172,0.091-0.268,0.127
		c-0.101,0.037-0.194,0.111-0.284,0.171c-0.104,0.022-0.139,0.115-0.238,0.131c-0.101-0.042-0.181,0.038-0.151,0.133
		c-0.078,0.035-0.102,0.123-0.166,0.175c-0.006,0.119-0.166,0.031-0.21,0.121c-0.026-0.039-0.048-0.004-0.09-0.024
		c-0.086-0.046-0.171,0.038-0.26,0.067c-0.07,0.065-0.157,0.141-0.153,0.238c-0.096-0.013-0.053,0.162-0.162,0.095
		c-0.063,0.056-0.152,0.077-0.204,0.126c-0.068,0.086-0.188,0.141-0.238,0.25c-0.075,0.004-0.14,0.061-0.172,0.129
		c-0.05,0.011-0.098,0.046-0.161,0.065c-0.068-0.025-0.106,0.078-0.146,0.014c-0.014,0.04-0.033,0.071-0.078,0.072
		c-0.085,0.046-0.201,0.08-0.283,0.132c-0.075-0.004-0.187,0.055-0.284,0.028c-0.089,0.018-0.231,0.05-0.286-0.044
		c0.007-0.087-0.052-0.109-0.115-0.151c-0.101,0.016-0.227,0.076-0.311-0.004c-0.039,0.016-0.064,0.007-0.102-0.033
		c-0.081-0.03-0.22-0.046-0.211-0.163c-0.107,0.014-0.111-0.107-0.167-0.145c-0.111-0.025,0.031-0.196-0.098-0.13
		c-0.096,0.001-0.219,0.016-0.31,0.057c-0.108,0.048-0.211,0.107-0.329,0.144c-0.098,0.038-0.229,0.01-0.302,0.101
		c-0.114,0.026-0.215,0.06-0.329,0.091c-0.077,0.041-0.171-0.002-0.238,0.04c-0.04,0.087-0.177,0.094-0.26,0.133
		c-0.071,0.059-0.142-0.01-0.208,0.027c-0.084-0.006-0.138,0.119-0.244,0.128c-0.105,0.021-0.205,0.076-0.313,0.085
		c-0.11-0.016-0.137,0.089-0.228,0.114c-0.062-0.055-0.118-0.014-0.185-0.014c-0.054-0.108-0.129,0.043-0.196,0.016
		c-0.073,0.075-0.185,0.088-0.287,0.131c-0.102,0.042-0.241,0.014-0.199-0.116c0.014-0.108-0.074,0.045-0.111-0.03
		c-0.05-0.119-0.153-0.001-0.242-0.028c-0.091,0.042-0.197,0.083-0.306,0.087c-0.05,0.041-0.141-0.039-0.149,0.006
		c0.087,0.056-0.019,0.145-0.079,0.078c-0.089-0.067,0.004,0.051-0.03,0.047c-0.033,0.056-0.141-0.002-0.169,0.046
		c-0.094,0.018-0.188,0.076-0.289,0.11c-0.108,0.034-0.17,0.113-0.272,0.15c-0.078,0.036-0.173,0.065-0.25,0.086
		c-0.083,0.035-0.19,0.051-0.289,0.062c-0.105,0.027-0.213,0.038-0.316,0.053c-0.11-0.031-0.276,0.007-0.344-0.107
		c-0.049-0.101-0.157-0.152-0.188-0.258c-0.019-0.088-0.044-0.174-0.112-0.25c0.021-0.083-0.094-0.123-0.041-0.209
		c-0.004-0.102,0.038-0.188,0.136-0.242c0.028-0.099-0.07-0.027-0.102-0.056c-0.133-0.04,0.028-0.148-0.062-0.203
		c-0.076,0.006,0.006,0.094-0.044,0.126c-0.056-0.011-0.112,0.019-0.166,0.001c-0.001,0.042-0.117,0.136-0.102,0.045
		c0.033-0.068-0.019-0.016-0.041-0.031c-0.045,0.022-0.068,0.033-0.111-0.007c-0.131-0.006,0.087-0.107-0.011-0.115
		c-0.115,0.03-0.006-0.101-0.062-0.121c-0.006-0.038,0.022-0.088-0.061-0.093c-0.083-0.06-0.044,0.1-0.114,0.024
		c-0.013,0.045-0.064,0.059-0.119,0.038c-0.137-0.052-0.098,0.113-0.177,0.165c-0.056,0.086-0.132,0.039-0.185-0.014
		c-0.081,0.054-0.129-0.016-0.197-0.048c-0.099-0.002-0.133-0.125-0.132-0.188c-0.049,0.041-0.057,0.121-0.053,0.19
		c0.028,0.101-0.046,0.219-0.006,0.32c0.062,0.069-0.045,0.045-0.034,0.108c0.054,0.068-0.035,0.071-0.062,0.108
		c-0.058-0.014-0.165-0.067-0.245-0.028c-0.086-0.014-0.187,0.035-0.237,0.107c-0.055,0.038-0.062-0.101-0.099-0.099
		c0.022,0.071-0.12,0.099-0.083,0.15c-0.041,0.084-0.13-0.066-0.195-0.052c-0.038-0.059-0.115-0.011-0.153-0.056
		c-0.037-0.022-0.116-0.001-0.178,0.006c-0.105,0.004-0.2-0.157-0.294-0.069c-0.058-0.018-0.076,0.024-0.099,0.057
		c-0.109-0.108-0.045,0.081,0.014,0.107c-0.057,0.029,0.013,0.156-0.088,0.136c-0.105,0.033-0.218,0.071-0.318,0.109
		c-0.065-0.077-0.043,0.056-0.088,0.02c-0.083-0.007-0.013,0.019-0.014,0.048c-0.065,0.006-0.136,0.071-0.18-0.006
		c0.049,0.061-0.098,0.144-0.153,0.048c-0.063,0.014-0.032-0.096-0.109-0.116c-0.124,0.016,0.092,0.072-0.03,0.088
		c-0.027,0.069-0.098,0.156-0.191,0.122c-0.098-0.066-0.153,0.04-0.239,0.047c-0.054,0.056-0.127-0.082-0.113,0.006
		c-0.037-0.004-0.076-0.007-0.05,0.051c-0.029,0.133-0.216,0.027-0.161-0.08c0.048-0.091-0.044-0.073-0.085-0.133
		c0.01,0.08-0.099,0.019-0.105,0.079c-0.075,0.047-0.196,0.116-0.264,0.056c-0.051,0.025-0.164-0.051-0.164,0.043
		c-0.055-0.029-0.126,0.037-0.204,0.036c-0.112,0.08-0.117-0.105-0.226-0.063c-0.103-0.035-0.128,0.088-0.218,0.074
		c-0.086-0.028-0.13,0.077-0.208,0.028c-0.061,0.06-0.223-0.004-0.237,0.062c-0.063,0.035-0.025,0.205-0.098,0.17
		c-0.048,0.078-0.122-0.026-0.181,0.028c-0.043,0.052-0.09,0.054-0.161,0.055c-0.052,0.076-0.135-0.024-0.174,0.051
		c-0.085,0.01-0.174,0.062-0.255,0.055c-0.124,0.011-0.04,0.154-0.119,0.22c-0.063-0.019-0.062,0.08-0.125,0.102
		c-0.073,0.102-0.083,0.221-0.224,0.261c-0.101,0.011-0.01,0.112-0.056,0.129c-0.031,0.063-0.109,0.17-0.192,0.156
		c-0.021,0.082-0.114,0.098-0.176,0.145c-0.09,0.059-0.152,0.169-0.276,0.174c-0.094,0.04-0.172,0.085-0.256,0.152
		c-0.081,0.038-0.149,0.125-0.252,0.144c-0.108,0.055-0.208,0.098-0.309,0.149c-0.127,0.013-0.209,0.111-0.325,0.144
		c-0.102,0.045-0.215,0.082-0.313,0.131c-0.083,0.006-0.214,0.125-0.252,0.021c-0.087,0.001,0.006,0.031-0.034,0.063
		c-0.081-0.004-0.064-0.046-0.066-0.108c-0.065,0.037-0.14,0.006-0.199,0.035c0.031,0.093,0.007,0.185-0.106,0.219
		c-0.098,0.108-0.206-0.073-0.282-0.029c-0.088-0.033-0.07,0.075-0.15,0.076c-0.105-0.006-0.199,0.063-0.3,0.086
		c-0.076-0.072-0.082,0.038-0.098,0.09c-0.053,0.047-0.083,0.166-0.18,0.126c-0.021-0.062-0.074-0.042-0.119-0.032
		c-0.111,0.049-0.197,0.154-0.329,0.134c-0.044,0.058-0.117-0.007-0.156,0.043c-0.072-0.013-0.036,0.144-0.101,0.093
		c-0.025,0.082-0.049,0.154-0.123,0.203c-0.086,0.072-0.22,0.047-0.312,0.114c-0.098,0.016-0.199,0.031-0.3,0.048
		c-0.08,0.011-0.175,0.01-0.252,0.034c-0.105,0-0.208,0.067-0.322,0.059c-0.106,0.014-0.212,0.042-0.323,0.055
		c-0.115-0.025-0.232-0.004-0.342-0.045c-0.13-0.016-0.025-0.203-0.14-0.198c-0.011-0.062-0.071-0.071-0.104-0.116
		c0.006-0.091-0.115-0.204-0.006-0.27c-0.025-0.082,0.074-0.041,0.077-0.093c-0.066,0.038,0-0.004-0.032-0.041
		c-0.106,0.023,0.006-0.05,0.021-0.089c0.014-0.104-0.062,0.014-0.083-0.029c-0.084-0.056,0.022-0.058,0.004-0.118
		c-0.076-0.041,0.045-0.125-0.058-0.148c-0.063-0.048-0.004-0.052-0.004-0.106c-0.035-0.076,0.142-0.067,0.044-0.104
		c-0.113,0.091-0.123-0.143-0.222-0.06c-0.086-0.004-0.18-0.089-0.105-0.172c0.108-0.11-0.111-0.166-0.036-0.275
		c-0.034-0.044-0.02-0.131-0.087-0.177c-0.08-0.011-0.107-0.083-0.171-0.1c-0.063-0.087-0.123-0.147-0.209-0.202
		c0.013-0.103-0.042-0.013-0.075,0.022c-0.047,0.046-0.131,0.1-0.134,0.176c-0.037,0.067-0.08,0.19-0.167,0.184
		c-0.028-0.068-0.049-0.06-0.109-0.025c-0.155,0.01-0.08,0.171-0.12,0.264c-0.047,0.131-0.17,0.027-0.249,0.101
		c-0.041,0.12-0.149,0.006-0.223,0.01c-0.027,0.044-0.077,0.055-0.143,0.014c-0.098-0.06-0.214-0.079-0.316-0.131
		c-0.086-0.052-0.162-0.2-0.265-0.115c-0.102,0.059-0.189,0.098-0.297,0.12c-0.094-0.004-0.195,0.051-0.286,0.014
		c-0.096-0.057-0.202-0.114-0.327-0.104c-0.105,0-0.19-0.064-0.299-0.057c-0.028-0.069-0.079-0.052-0.137-0.064
		c-0.048,0.069-0.1-0.022-0.13,0.04c-0.046-0.026-0.097-0.033-0.157-0.039c-0.08,0.034,0.022,0.044,0.044,0.063
		c-0.036,0.093-0.114-0.021-0.147-0.018c-0.049,0.016-0.102-0.19,0.01-0.18c0.076-0.044,0.143-0.091,0.154-0.172
		c0.061-0.135,0.219-0.08,0.315-0.027c0.039-0.065,0.129-0.099,0.215-0.115c0.029-0.097,0.096-0.006,0.145,0.01
		c0.128,0.022,0.257-0.038,0.381,0.014c0.083-0.035,0.207,0.077,0.248-0.014c0.078-0.006,0.198,0,0.247-0.035
		c0.074,0.028,0.199-0.011,0.247-0.047c0.065-0.091-0.128-0.041-0.04-0.109c0.085,0.028,0.056-0.081,0.134-0.094
		c-0.027-0.09,0.055-0.029,0.106-0.039c0.099,0.021,0.059-0.154,0.029-0.216c0.004-0.121,0.032-0.232,0.079-0.34
		c0.061-0.089,0.061-0.189,0.103-0.286c-0.044-0.1-0.157-0.181-0.214-0.286c-0.049-0.099-0.137-0.181-0.175-0.279
		c-0.099-0.071-0.218-0.127-0.277-0.242c-0.077-0.093-0.18-0.151-0.311-0.158c-0.104,0.034-0.204-0.002-0.308,0.018
		c-0.118,0.004-0.23,0.006-0.343-0.043c-0.094-0.029-0.215-0.05-0.3,0.014c-0.097,0.043-0.193,0.065-0.271,0.136
		c-0.118,0.019-0.133,0.109-0.113,0.204c-0.069,0.042-0.006-0.053-0.05-0.054c-0.088-0.014-0.05,0.056-0.095,0.083
		c-0.071,0.052-0.113-0.034-0.163-0.028c0.032,0.078-0.089,0.026-0.069,0.094c0.146,0.095-0.131,0.142-0.096,0.229
		c0.126-0.013,0.099,0.098,0.129,0.168c0.065,0.002,0.097,0.014,0.076,0.079c0.079,0.044,0.2,0.068,0.233,0.164
		c0.062,0.041,0.079,0.169-0.029,0.145c-0.061,0.083-0.253,0.051-0.236,0.198c-0.065-0.023-0.128-0.093-0.2-0.123
		c-0.098,0.01,0.053,0.101,0.093,0.115c-0.018,0.039-0.16-0.066-0.207,0.006c-0.016,0.081,0.124,0.196,0.055,0.247
		c-0.099-0.061,0.041,0.044-0.018,0.088c-0.106,0.075,0.076,0.119,0.025,0.204c0.041,0.059,0.004,0.087-0.042,0.126
		c-0.117,0.026-0.148,0.138-0.242,0.193c-0.101,0.105-0.077-0.115-0.171-0.037c-0.04,0.072-0.11,0.042-0.17,0.093
		c-0.096-0.021-0.034,0.125-0.126,0.146c-0.087,0.021-0.189,0.131-0.276,0.061c0.047-0.043,0.007-0.13-0.062-0.088
		c-0.058,0.016-0.032,0.107-0.062,0.096c0.011-0.079-0.073-0.088-0.068-0.002c-0.03,0.092-0.018-0.064-0.061,0.006
		c0.042,0.057-0.03,0.155-0.113,0.09c-0.042-0.096-0.077,0.106-0.113,0.013c-0.052,0.059-0.125-0.01-0.171,0.065
		c-0.126,0.019-0.272,0.042-0.38-0.032c-0.067,0.011-0.146-0.109-0.173-0.011c-0.079,0.06-0.178,0.096-0.276,0.114
		c-0.048-0.027-0.043-0.03-0.073,0.022c-0.107,0.04-0.217,0.047-0.324,0.052c-0.103,0.042-0.246,0.006-0.348,0.037
		c-0.101,0.055-0.225,0.023-0.332,0.045c-0.118,0.006-0.239,0.032-0.358,0.016c-0.049-0.067-0.114-0.101-0.203-0.131
		c-0.056,0.007-0.12,0.058-0.196,0.024c-0.078,0.092-0.187,0.08-0.298,0.089c-0.088-0.013-0.166-0.013-0.26-0.014
		c-0.093-0.007-0.244,0.006-0.284-0.085c-0.106-0.071-0.065-0.218-0.125-0.319c0.028-0.091-0.104-0.123-0.08-0.19
		c0.029-0.095-0.066-0.2-0.064-0.281c0.014-0.065-0.052-0.136-0.047-0.212c-0.094-0.026-0.013-0.113-0.075-0.158
		c0.014-0.04-0.069-0.059-0.057-0.134c-0.059-0.03-0.074-0.112-0.109-0.188c-0.064-0.089-0.051-0.215-0.142-0.289
		c0.019-0.057-0.126-0.004-0.059-0.058c0.171-0.065-0.087-0.095-0.105-0.166c0.032-0.097-0.066-0.027-0.08-0.106
		c-0.02-0.084-0.043-0.173-0.013-0.254c0.058-0.039-0.014-0.145,0.056-0.136c0.085-0.097-0.001-0.159-0.102-0.185
		c-0.102-0.056-0.191-0.135-0.315-0.158c-0.105-0.055-0.249-0.038-0.325-0.135c-0.032-0.027-0.062-0.035-0.083-0.024v0
		L121.274,11.411z M125.875,13.734c0.034,0.054-0.114,0.059-0.07,0.144c0.035,0.072-0.046,0.221,0.052,0.175
		c0.12-0.034,0.094-0.198,0.209-0.232c0.043-0.112-0.17,0.026-0.161-0.084l-0.014-0.004l-0.018,0l0,0L125.875,13.734z
		 M130.86,13.446c-0.141,0.045,0.074,0.091,0.04,0.011C130.889,13.446,130.874,13.441,130.86,13.446z M130.331,13.796
		c0.004,0.063,0.14,0.169,0.098,0.033C130.425,13.776,130.375,13.813,130.331,13.796z M161.65,9.893
		c-0.062,0.091,0.105,0.112,0.03,0.022C161.664,9.919,161.661,9.89,161.65,9.893z M173.01,7.156
		c-0.047,0.099,0.042,0.162,0.069,0.253c0.065,0.019,0.148,0.039,0.192,0.029c0.049,0.004,0.092-0.08,0.163-0.074
		c0.11-0.094-0.079-0.146-0.152-0.119c-0.07-0.016-0.168-0.014-0.223-0.084C173.043,7.155,173.026,7.147,173.01,7.156L173.01,7.156
		L173.01,7.156z M162.305,10.458c-0.046,0.043-0.014,0.152,0.024,0.158C162.294,10.572,162.366,10.477,162.305,10.458z
		 M172.893,8.867c-0.076,0.044-0.056,0.139-0.117,0.196c0.072,0.042,0.09-0.09,0.137-0.126C172.919,8.905,172.99,8.83,172.893,8.867
		L172.893,8.867z M162.147,11.976c-0.014,0.054,0.018,0.155-0.059,0.163c-0.006,0.11,0.216,0.081,0.126-0.014
		c0.093-0.048-0.022-0.075-0.048-0.092C162.245,12.025,162.18,11.99,162.147,11.976L162.147,11.976L162.147,11.976z M163.208,13.397
		C163.192,13.451,163.26,13.402,163.208,13.397z M172.82,13.031l-0.016,0.006C172.787,13.1,172.901,13.057,172.82,13.031z
		 M172.696,13.129C172.69,13.222,172.788,13.171,172.696,13.129z M172.21,13.559c-0.019,0.073,0.105,0.016,0.024-0.004
		L172.21,13.559z M171.321,15.026C171.203,15.298,171.58,15.078,171.321,15.026z M146.263,22.641
		c-0.004,0.106,0.135-0.014,0.035-0.01C146.285,22.635,146.276,22.644,146.263,22.641z M146.208,22.747
		c-0.093,0.046,0.029,0.123,0.036,0.031C146.245,22.764,146.23,22.731,146.208,22.747z"/>
	
		<linearGradient id="path4398_1_" gradientUnits="userSpaceOnUse" x1="-96.4353" y1="-24.2015" x2="-163.3064" y2="-57.7966" gradientTransform="matrix(0.9526 0 0 -0.9526 253.4874 30.9793)">
		<stop  offset="0" style="stop-color:#F04B35"/>
		<stop  offset="1" style="stop-color:#FBCBB7"/>
	</linearGradient>
	<path id="path4398" inkscape:connector-curvature="0" class="st2" d="M170.647,65.684l-0.362,0.03l0.211,0.03L170.647,65.684
		L170.647,65.684z M170.195,65.805l-0.754,0.06l-46.336,2.986l8.205,4.646l0.06,0.03v4.042L170.195,65.805L170.195,65.805z
		 M170.979,65.986l-0.362,0.121l-28.839,12.218v0.03l-0.633,2.293l2.443-1.207l6.064,3.741L170.979,65.986z M117.161,69.184
		l-50.318,3.318l17.798,10.347l0.151,0.09l1.961,9.02L126,80.255v-5.702v-0.151L117.161,69.184L117.161,69.184z M136.921,80.376
		l-23.952,10.136l-1.327,0.573l-6.124,2.594l-7.059,7.783l11.614-5.551l12.761,6.757l23.168-16.562L136.921,80.376L136.921,80.376z"
		/>
	
		<path id="path4400" inkscape:connector-curvature="0" sodipodi:nodetypes="cccccccccsssccccccccccccccsccscccccccccccccccscccsccccccscccccccccccccccccccccccccccccccccscccscscccccccccccccccccccccccsccccccccsccccscsccccccccsccccccccccccccccccccsccccccccccccccccccccccccccccccccccscccccccccccsccccccccccscsscccccccccccsccsccccscccccsccccccscccccccccccccccsccccccccsssscccccccccccscccccccsccccccccccccccccscscccccccccccccccccccccccscccscccccccccccccccccccccsccccccccccccccccsccccccccccccccccccccccccccccccsccccscccccccscccccccccscccccccccscccccccsscccccccccccccccccccccscccccccccccscccccccccccccscccccsccccccccccccccsccsccccsccccccccccccccccccccscscccccsccccccccccccccccccscccccccccccscsccccccscccccsccccccccccccccscccccccccccccsscccccccccccccccsccccccccccsccccccccsccccccccccccscccccccccsccccccccccccccccsccccscccsccsscccccccccsccccsccccccccccsccccccccssccccccccccccscccccscccccccccccccccccccsccsccccccccsccccccccscccccccscccccccccsccsccccccccccccccccccccccccccccsccsc" class="st1" d="
		M83.106,72.979c-0.013,0.007-0.02,0.026-0.013,0.054c-0.039,0.026,0.023,0.087-0.006,0.089c-0.052,0.026-0.048,0.106-0.057,0.156
		c-0.059,0.014-0.079,0.076-0.071,0.13c0.033,0.055-0.051,0.044-0.038,0.098c-0.061,0.047,0.002,0.114-0.011,0.147
		c0.02,0.043,0.002,0.086,0.006,0.138c0.027-0.006,0.02,0.018,0.014,0.051c0.036,0.02,0.013,0.065-0.018,0.076
		c0.052-0.023,0.074,0.028,0.109,0.058c0.007,0.006,0.02,0.072,0.063,0.076c-0.002,0.006-0.046,0.065,0.007,0.052
		c0.073,0.02,0.035,0.085,0.013,0.126c-0.054,0.05,0.002,0.075,0.026,0.116c0.069,0.027-0.034,0.054,0.002,0.092
		c0.029,0.011,0.129,0.055,0.09,0.09c-0.013,0.09,0.117,0.065,0.13,0.144c-0.007,0.054,0.027,0.038,0.063,0.052
		c-0.002,0.041,0.02,0.071,0.034,0.107c0.052,0.018,0.006,0.078,0.03,0.113c0.002,0.062,0.115,0.088,0.087,0.154
		c0.034,0.065-0.035,0.117-0.018,0.175c0.039,0.036,0.033,0.08,0.035,0.131c0.013,0.058,0.049,0.127,0.018,0.185
		c0.001,0.038-0.049,0.055-0.074,0.085c-0.06,0.027-0.109,0.055-0.159,0.081c-0.053,0.03-0.119,0.05-0.166,0.075
		c-0.056,0.038-0.125,0.047-0.186,0.069c-0.059,0.014-0.11,0.041-0.174,0.034c-0.057-0.002-0.107,0.023-0.131-0.03
		c-0.064-0.007-0.102-0.063-0.105-0.122c-0.061-0.006-0.011-0.037-0.02-0.075c-0.055-0.007-0.031,0.071-0.048,0.095
		c-0.007-0.028-0.046-0.011-0.023,0.013c-0.034,0.014-0.075-0.04-0.12-0.018c-0.041-0.02-0.084-0.006-0.126-0.026
		c-0.026-0.057-0.046-0.115-0.052-0.181c0.036-0.042-0.027-0.046-0.026-0.092c-0.018-0.041,0.007-0.12-0.054-0.131
		c-0.014-0.059-0.007-0.122-0.026-0.177c0.011-0.076-0.133-0.047-0.118-0.097c-0.02-0.035,0.011-0.086-0.032-0.119
		c-0.064-0.036-0.039-0.107-0.091-0.152c0.027-0.038,0.069-0.09,0.058-0.149c0.036-0.058-0.073-0.043-0.055-0.086
		c0.037-0.076-0.071-0.095-0.105-0.143c-0.014-0.049-0.062-0.126-0.124-0.105c-0.026,0.044,0.023,0.087,0.055,0.127
		c0.055,0.043,0.072,0.112,0.047,0.179c-0.023,0.071-0.007,0.139-0.013,0.211c0.013,0.028,0.035,0.055,0.02,0.099
		c0.043,0.006,0,0.065-0.026,0.049c-0.035-0.041,0.036-0.011,0.014-0.045c-0.047-0.013-0.074-0.067-0.134-0.072
		c-0.095-0.026-0.038,0.07-0.018,0.11c0.042,0.062,0.116-0.039,0.123,0.041c0.007,0.05-0.027,0.047-0.059,0.048
		c0.026,0.038,0.023,0.084,0.068,0.12c0.055-0.014,0.014,0.036,0.051,0.053c-0.083,0.037-0.037,0.12-0.074,0.186
		c-0.051,0.059,0.031,0.095,0.011,0.152c-0.05,0.054-0.039,0.132-0.014,0.194c-0.056,0.07,0.054,0.098,0.067,0.144
		c0.044,0.031,0.006,0.037-0.026,0.057c0.013,0.029-0.072,0.081,0.006,0.091c0.048-0.013,0.113,0.013,0.149,0.04
		c0.006,0.059,0.099,0.097,0.075,0.157c0.041,0.037-0.013,0.007-0.013,0.031c0.026,0.05-0.006,0.088-0.026,0.133
		c-0.056-0.007-0.028,0.049-0.086,0.061c-0.006,0.007-0.023,0.047-0.013,0.066c0.067,0.031-0.018,0.076-0.054,0.045
		c-0.043,0.02,0.02,0.04-0.026,0.055c0.011,0.054,0.007,0.146,0.075,0.163c-0.002,0.043,0.014,0.089,0.062,0.117
		c0.057,0.02,0.1-0.072,0.132-0.011c0.056,0.039-0.028,0.055-0.002,0.096c0.062,0.007-0.02,0.042,0.03,0.056
		c-0.026,0.054,0.034,0.096,0.031,0.15c-0.023,0.026-0.028,0.035-0.032,0.068c0.023,0.088-0.091,0.044-0.131,0.068
		c0.038,0.014,0.048,0.095-0.018,0.067c-0.05,0.023-0.063,0.105-0.04,0.142c0.032,0.02,0.177,0.071,0.089,0.12
		c-0.072,0.033-0.007,0.119-0.065,0.153c-0.014,0.028-0.101,0.018-0.093,0.078c0.002,0.073,0.125-0.001,0.098,0.069
		c-0.047,0.033,0.011,0.054-0.027,0.089c-0.049,0.03,0.011,0.043,0.013,0.064c-0.049,0.046-0.006,0.073,0.014,0.115
		c0.014,0.044,0.058,0.037,0.087,0.076c0.052,0.026,0.007,0.118-0.027,0.155c-0.052,0.033,0.001,0.039,0.033,0.035
		c0.048,0.013,0.046,0.049,0.083,0.078c0.053,0.043,0.126-0.059,0.15,0.011c0.03,0.043,0.007,0.154-0.062,0.131
		c-0.068-0.018-0.011,0.062-0.067,0.035c0.037,0.042-0.02-0.002-0.03-0.014c-0.094,0.026,0.046,0.057,0.002,0.098
		c0.002,0.018-0.116-0.023-0.085,0.042c-0.058,0.02,0.02,0.127-0.018,0.115c-0.02-0.056-0.106-0.039-0.07,0.02
		c0.042,0.007,0.069,0.062,0.109,0.093c0.047,0.02,0.029,0.013-0.002,0.032c-0.079,0.02-0.044,0.09,0.02,0.099
		c0.027-0.02,0.106-0.077,0.123-0.02c0.098-0.041,0.033,0.104,0.109,0.097c-0.013,0.052,0.064,0.034,0.09,0.07
		c0.061,0.027,0.154,0.044,0.219-0.002c0.051-0.047,0.104,0,0.164-0.007c0.06,0.002,0.15,0.023,0.148,0.094
		c0.045,0.053-0.075,0.097-0.023,0.132c-0.045,0.051,0.023,0.119,0.078,0.139c0.033-0.046,0.048,0.027,0.084,0.032
		c0.053,0.041,0.113,0.013,0.107-0.049c0.038-0.056,0.131-0.018,0.17,0.014c0.052-0.014,0.075-0.047,0.132-0.035
		c-0.002,0.061,0.023-0.001,0.037-0.023c0.053,0.002,0.038-0.029,0.084-0.02c0.051,0.028,0.061-0.033,0.086-0.043
		c0.054-0.029,0.029,0.02,0.029,0.049c0.066,0.02-0.002-0.076,0.04-0.093c0.071-0.043,0.149-0.067,0.231-0.088
		c0.03-0.02,0.072-0.038,0.102-0.001c0.05-0.007,0.125-0.02,0.159,0.033c0.007,0.049-0.014,0.028-0.03,0.068
		c-0.05,0.048,0.007,0.084,0.046,0.03c0.111,0.007-0.014-0.123,0.068-0.164c0.052-0.046,0.088-0.102,0.16-0.123
		c0.064-0.02,0.125-0.037,0.194-0.018c0.028,0.046,0.048-0.018,0.06-0.042c0.061,0.011,0.072-0.063,0.128-0.041
		c0.045,0.011,0.11,0.02,0.151-0.011c-0.007-0.051,0.054-0.023,0.065-0.032c0.062-0.026,0.142,0.006,0.172,0.064
		c-0.007,0.054,0.044,0.035,0.076,0.013c0.027-0.027,0.062-0.079,0.112-0.081c0.066,0.039,0.124-0.026,0.108-0.089
		c-0.06-0.049,0.048-0.067,0.082-0.037c0.084,0.006,0.023-0.097,0.083-0.117c0.007-0.061,0.107-0.084,0.148-0.084
		c0.011,0.02,0.074-0.002,0.093-0.045c0.023,0.014,0.06,0.02,0.092-0.007c0.045,0.057,0.132,0.007,0.181,0.001
		c0.007,0.043,0.023,0.031,0.048,0.037c0.067,0.011,0.132-0.018,0.189,0.018c0.065,0.028,0.168-0.011,0.193-0.076
		c0.062-0.002,0.138,0.037,0.205,0.014c0.002,0.054,0.081,0.007,0.112,0.042c0.067-0.033,0.117,0.013,0.18,0.027
		c0.062,0.067,0.135-0.007,0.204-0.018c0.026-0.051,0.107-0.04,0.153-0.077c0.059-0.018,0.047-0.081,0.1-0.102
		c0.046-0.001,0.119,0.014,0.144-0.039c0.052-0.03,0.125-0.066,0.189-0.055c0.049,0.04,0.065-0.026,0.115,0.006
		c0.08,0.018,0.138,0.068,0.19,0.124c0.028,0.055,0.111,0.045,0.14,0.111c0.048,0.058,0.122,0.079,0.197,0.089
		c0.072-0.006,0.144,0.007,0.215-0.006c0.041-0.04,0.081-0.02,0.128-0.047c0.076-0.013,0.058-0.108,0.13-0.116
		c0.067-0.034,0.107,0.013,0.093,0.075c0.039,0.043,0.06-0.033,0.091-0.046c0.046-0.033,0.013-0.048-0.011-0.072
		c0.038-0.026,0.071-0.085,0.133-0.068c0.057,0.018,0.125,0.046,0.185-0.006c-0.001-0.047,0.038-0.072,0.089-0.053
		c0.032-0.049,0.049,0.023,0.071-0.018c0.054,0.02,0.05-0.041,0.101-0.044c0.079-0.038,0.107,0.046,0.174,0.067
		c0.058,0.036,0.133-0.002,0.193-0.001c0.023-0.064,0.093-0.084,0.154-0.115c0.076,0.044,0.096-0.053,0.156-0.064
		c0.056-0.053,0.142-0.041,0.2-0.088c0.067,0.002,0.109,0.058,0.174,0.084c0.037-0.023,0.069-0.026,0.105,0.007
		c0.023,0.065,0.11,0.013,0.145,0.052c0.006,0.055,0.054,0.051,0.087,0.018c0.045,0.006,0.087,0.014,0.076-0.046
		c0.065-0.042,0.156-0.034,0.215-0.001c0.058-0.041,0.128-0.05,0.199-0.044c0.07-0.014,0.158,0.068,0.19-0.026
		c0.006-0.064,0.078-0.087,0.133-0.115c0.013-0.035,0.031-0.077,0.086-0.085c0.079,0.013,0.095-0.084,0.174-0.086
		c0.032,0.04,0.062,0.02,0.098-0.013c0.034,0.033,0.075,0.006,0.117,0.011c0.013,0.07,0.108,0.007,0.16,0.013
		c0.006-0.038-0.002-0.117,0.066-0.08c0.007-0.023,0-0.12,0.069-0.088c0.07-0.011,0.11-0.082,0.182-0.095
		c0.069,0.02,0.153,0.007,0.205,0.06c0.057,0.026,0.064,0.091-0.006,0.112c-0.085,0.007-0.007,0.052-0.014,0.097
		c0.052-0.018,0.108-0.007,0.157-0.02c0.058,0.001,0.053-0.051,0.084-0.07c0.107-0.03,0.064,0.139,0.165,0.122
		c0.069,0.039,0.162-0.014,0.225,0.039c0.071,0.03,0.158,0.018,0.224,0.052c0.038,0,0.095-0.007,0.133-0.026
		c0.063-0.029,0.093-0.108,0.178-0.096c0.073-0.02,0.15,0.02,0.219-0.011c0.075-0.002,0.153,0.067,0.213,0.006
		c0.078-0.001,0.133,0.059,0.213,0.058c0.065,0.027,0.083,0.142,0.171,0.12c0.074-0.006,0.086,0.114,0.159,0.113
		c0.071,0.006,0.137,0.085,0.172,0.143c0.035-0.029,0.054,0.007,0.089,0.007c0.011-0.048,0.047-0.084,0.11-0.075
		c0.007,0.037,0.107,0.007,0.068,0.041c0.023,0.036,0.098,0.001,0.136-0.002c0.038-0.04,0.112-0.052,0.166-0.077
		c0.069-0.03,0.148,0.023,0.204-0.026c0.052-0.023,0.116-0.011,0.177-0.02c0.081,0.014,0.128-0.07,0.212-0.058
		c0.06-0.014,0.112-0.026,0.164-0.065c0.07-0.041,0.16,0.006,0.218-0.014c0.055,0.011,0.05-0.06,0.093-0.063
		c0.087-0.014,0.173,0.013,0.26,0.013c0.066-0.033,0.16-0.055,0.224-0.013c0.041,0.045,0.097,0.051,0.152,0.057
		c0.06,0.041,0.118,0.091,0.159,0.154c0.044,0.087,0.118,0.16,0.148,0.254c0.018,0.063,0.061,0.114,0.084,0.174
		c0.039,0.082,0.092,0.16,0.108,0.25c0.011,0.06,0.073,0.137-0.014,0.163c-0.056,0.02-0.112,0.08-0.074,0.139
		c-0.026,0.052,0.063,0.03,0.048,0.063c-0.069-0.018-0.077,0.068-0.028,0.092c0.073-0.029,0.082,0.038,0.067,0.086
		c0.028,0.055,0.027,0.12,0.077,0.151c-0.05,0.026-0.073,0.097-0.018,0.123c0.036,0.011,0.031,0.011,0.041,0.037
		c0.055-0.006,0.007,0.02,0.029,0.048c-0.035,0.04-0.006,0.091,0.046,0.051c0.031-0.046,0.023-0.001,0,0.02
		c-0.07,0-0.03,0.048-0.045,0.085c0.055,0.039,0.006,0.07-0.032,0.098c-0.06,0.042-0.129,0.104-0.092,0.18
		c-0.011,0.08,0.104,0.079,0.126,0.018c0.029-0.037,0.134-0.085,0.168-0.039c0.014,0.026,0.073,0.02,0.045-0.023
		c-0.007-0.082,0.132,0.011,0.115-0.076c0.044-0.086,0.056,0.081,0.121,0.038c0.011-0.05,0.061-0.068,0.118-0.054
		c0.018-0.03,0.023-0.011,0.047-0.007c0.056,0.007,0.036-0.05,0.086-0.055c0.057,0.02,0.073-0.071,0.02-0.059
		c0.018-0.03,0.045-0.065,0.062-0.101C99.137,80,99.205,80,99.267,79.968c0.037-0.033,0.101-0.011,0.127-0.053
		c0.05-0.048,0.131-0.027,0.185-0.05c0.066-0.029,0.145-0.013,0.211-0.014c0.057-0.026,0.12,0.011,0.164-0.02
		c0.066,0.011,0.132,0.023,0.186,0.056c0.013-0.029,0.047-0.059,0.084-0.068c0.064-0.043,0.135-0.02,0.208-0.018
		c0.028,0.06,0.102,0.02,0.092-0.043c0.052,0.007,0.086-0.035,0.129-0.064c0.056-0.037,0.143-0.027,0.186-0.065
		c0.062-0.023,0.053,0.096,0.13,0.085c0.011-0.058,0.075,0.018,0.097-0.032c-0.023-0.046-0.062-0.118,0.035-0.115
		c0.02-0.048,0.115-0.007,0.111-0.042c0.02-0.058,0.129,0.02,0.17-0.042c0.054,0.045,0.072-0.034,0.128-0.013
		c0.056-0.034,0.099,0.02,0.162-0.002c-0.018-0.052-0.002-0.151,0.086-0.107c0.044,0.055,0.077-0.037,0.094-0.073
		c0.044-0.038,0.065-0.116,0.145-0.092c0.049-0.038,0.065,0.046,0.103,0.028c-0.011-0.036-0.007-0.087,0.049-0.057
		c0.032,0.044,0.055-0.013,0.09-0.026c0.065,0.026,0.129,0.013,0.201-0.006c0.05,0.002,0.044-0.034,0.079-0.044
		c0.054-0.014,0.079,0.104,0.109,0.057c0.059-0.046,0.108-0.097,0.148-0.159c0.068-0.03,0.014-0.138,0.105-0.127
		c0.057-0.033,0.077-0.111,0.149-0.104c0.007-0.058,0.104-0.032,0.132-0.081c0.039,0.028,0.058,0.002,0.097,0.006
		c0.034-0.078,0.116-0.05,0.184-0.065c0.054,0.053,0.098-0.038,0.159-0.039c0.071-0.032,0.014,0.033,0.036,0.059
		c0.044,0.06,0.151,0.023,0.171-0.044c0.014-0.063,0.078,0,0.094-0.048c0.014-0.06,0.073-0.044,0.126-0.065
		c0.065-0.023,0.123-0.078,0.179-0.119c0.073,0.023,0.02-0.067,0.092-0.055c0.063,0.064,0.052-0.055,0.115-0.063
		c0.073,0.014,0.002-0.035,0.026-0.064c0.056-0.027,0.135-0.045,0.173-0.094c-0.043-0.031,0.02-0.078-0.007-0.118
		c0.055-0.026,0.02-0.106,0.068-0.123c0.057-0.036,0.121-0.078,0.2-0.076c0.043,0.033,0.064-0.013,0.114,0.001
		c0.07,0.053,0.117-0.063,0.197-0.046c0.067,0.02,0.11-0.036,0.137-0.084c0.05-0.045,0.118-0.091,0.189-0.107
		c0.079-0.018,0.079-0.103,0.148-0.134c0.056-0.045,0.113-0.082,0.192-0.083c0.079-0.013,0.158-0.011,0.234,0.011
		c0.078,0.011,0.146,0.03,0.224,0.038c0.013-0.058,0.073-0.043,0.113-0.066c0.067,0.018,0.097-0.034,0.152-0.061
		c0.073-0.023,0.142-0.068,0.222-0.067c0.07-0.011,0.138-0.023,0.209-0.02c0.068,0.001,0.125,0.02,0.19,0.037
		c0.039-0.075,0.123-0.055,0.183-0.046c0.043-0.032,0.077-0.088,0.139-0.107c0.007-0.056,0.075-0.09,0.128-0.096
		c0.06-0.06,0.157,0.026,0.225-0.026c0.072-0.035,0.067-0.124,0.134-0.152c0.063-0.033,0.136-0.039,0.194-0.08
		c-0.014-0.036,0.011-0.092,0.065-0.098c0.076-0.002,0.08-0.099,0.162-0.098c0.073-0.007,0.139-0.02,0.21-0.033
		c0.067-0.043,0.147-0.013,0.204-0.062c0.072,0.013,0.115-0.052,0.193-0.055c0.065-0.014,0.155-0.007,0.202-0.057
		c0.066-0.013,0.058-0.067,0.081-0.113c0.052-0.03,0.11-0.054,0.166-0.078c0.067-0.02,0.144-0.032,0.211-0.011
		c0.05-0.036,0.115-0.03,0.178-0.027c0.073,0.006,0.142-0.007,0.211,0.011c0.072,0.049,0.042-0.047,0.074-0.078
		c0.05-0.058,0.137-0.029,0.205-0.032c0.068,0.013,0.141,0.035,0.206,0.058c0.066-0.026,0.14-0.051,0.208-0.047
		c0.073,0.018,0.103-0.05,0.166-0.064c0.052-0.029,0.174,0.007,0.141-0.082c0.053-0.053,0.111-0.107,0.183-0.137
		c0.011-0.046,0.128-0.032,0.093-0.076c-0.028-0.069,0.079-0.033,0.104-0.065c0.049,0.007,0.06-0.029,0.066-0.07
		c0.042,0.013,0.071-0.036,0.115-0.042c0.054,0.018,0.064-0.014,0.086-0.051c0.043-0.057,0.132-0.072,0.173-0.128
		c0.032-0.006,0.086,0.02,0.08-0.04c0.035-0.028,0.122-0.063,0.171-0.073c0.051-0.052,0.111-0.082,0.179-0.102
		c0.053-0.046,0.125-0.042,0.194-0.052c0.072,0.018,0.133-0.013,0.198-0.038c0.023-0.039,0.07-0.112,0.14-0.086
		c-0.036-0.07,0.064-0.101,0.127-0.082c0.059-0.03,0.04,0.043,0.083,0.036c0.074,0.002,0.136,0.048,0.182,0.097
		c-0.031,0.033,0.007,0.039,0.04,0.038c0.05,0.047,0.05-0.034,0.088-0.028c0.06-0.046,0.13,0.007,0.18,0.04
		c0.071,0.043,0.07-0.097,0.13-0.097c-0.007,0.033-0.123,0.125-0.026,0.105c0.036-0.05,0.057,0.056,0.087,0.02
		c-0.03-0.007-0.013-0.04-0.014-0.046c-0.023-0.046,0.05,0.001,0.075-0.006c0.04,0.037,0.06-0.032,0.096-0.013
		c-0.048,0.073,0.046,0.037,0.094,0.039c0.06,0.044,0.042-0.067,0.006-0.028c-0.078-0.03-0.03-0.114,0.029-0.137
		c-0.02-0.039-0.002-0.07,0.034-0.081c0.055,0.014,0.11-0.007,0.163,0.001c0.075-0.035,0.128,0.018,0.184,0.055
		c0.081,0.03,0.052,0.116,0.046,0.175c0.037,0.057,0.068,0.018,0.11,0.002c0.05-0.039,0.117,0.02,0.158-0.035
		c-0.006,0.033,0.08,0.043,0.05,0.002c0.034,0.001,0.063-0.078,0.118-0.092c0.067-0.028,0.109-0.069,0.163-0.109
		c-0.069-0.011-0.038-0.075,0.013-0.093c0.007-0.063,0.113-0.035,0.103-0.088c-0.007-0.085,0.09,0.013,0.127-0.027
		c0.011-0.061,0.075-0.062,0.12-0.094c0.051,0.007,0.121,0.023,0.163-0.033c0.076,0.006,0.026-0.058,0.02-0.095
		c0.048-0.014,0.068-0.067,0.125-0.048c0.065,0.033,0.037-0.023,0.057-0.055c0.043-0.059-0.057,0.006-0.032-0.052
		c0.032-0.036,0.059-0.076,0.063-0.112c0.037,0.002,0.077-0.045,0.123-0.018c0.036,0.035,0.088,0.001,0.041-0.032
		c0.006-0.063,0.029-0.109,0.032-0.169c-0.058-0.057,0.058-0.049,0.041-0.103c0.058-0.043-0.039-0.073-0.002-0.116
		c0.011-0.058,0.065-0.103,0.075-0.164c-0.031-0.072,0.046-0.119,0.074-0.174c0.006-0.054,0.111-0.131,0.018-0.153
		c0.002-0.074-0.101,0.006-0.096-0.07c-0.027-0.073,0.069-0.037,0.081-0.095c-0.007-0.064,0.073-0.098,0.061-0.16
		c0.02-0.069-0.071-0.123-0.028-0.18c-0.064-0.038,0.026-0.115-0.013-0.165c-0.064-0.023-0.112-0.067-0.156-0.11
		c0.049-0.035-0.046-0.065-0.006-0.098c0.067-0.045-0.02-0.08-0.02-0.136c-0.031-0.049,0.007-0.125,0.065-0.122
		c0.023-0.059,0.074-0.073,0.134-0.052c0.056-0.026,0.086-0.077,0.138-0.107c0.043-0.011,0.076-0.11,0.023-0.139
		c-0.007-0.036,0.011-0.083-0.038-0.106c0.023-0.033,0-0.112-0.06-0.079c-0.035,0.045-0.054,0.108-0.065,0.168
		c-0.023,0.061-0.105-0.007-0.162,0.026c-0.061-0.014-0.14-0.011-0.192-0.043c-0.075,0.014,0.033-0.094-0.036-0.094
		c-0.039,0.032-0.1-0.001-0.131-0.043c-0.051-0.013-0.056-0.124,0.007-0.098c0.07-0.035-0.041-0.105,0.034-0.116
		c-0.007-0.031-0.081-0.037-0.07-0.091c0.035-0.011,0.034-0.031-0.007-0.046c-0.078-0.007-0.006-0.12-0.094-0.115
		c0.002-0.029-0.011-0.058-0.026-0.084c0.018-0.065-0.049-0.02-0.072-0.054c-0.031-0.014,0.006-0.103-0.057-0.105
		c0.033-0.035-0.035-0.038-0.02-0.073c0.048-0.023,0.044-0.077,0.085-0.112c0.043-0.023,0.098-0.051,0.149-0.078
		c0.037-0.037,0.058-0.119,0.04-0.173c-0.036,0.032-0.06-0.076-0.018-0.02c0.051,0.043,0.068-0.036,0.007-0.041
		c0.034-0.036,0.1-0.048,0.144-0.085c-0.006-0.032-0.023-0.113-0.074-0.086c-0.042-0.056,0.101-0.063,0.108-0.12
		c-0.058-0.007-0.002-0.055-0.045-0.08c0.02-0.083-0.069-0.041-0.107-0.013c-0.051,0.033-0.095,0.092-0.169,0.088
		c0,0.013-0.023,0.041-0.051,0.063c-0.02-0.031-0.058,0.007-0.018,0.02c0.002,0.053,0.043,0.068,0.097,0.06
		c0.027-0.018,0.065-0.007,0.087-0.032c0.041-0.065,0.002,0.067,0.05,0.007c0.023,0.043-0.071,0.053-0.103,0.071
		c-0.071,0.026-0.14,0.043-0.188,0.102c0.002,0.072,0.093,0.047,0.147,0.041c0.032-0.026,0.088,0.011,0.069,0.055
		c-0.04,0-0.082,0.02-0.12,0.044c-0.06,0.013-0.034,0.09-0.106,0.076c-0.065,0.001-0.144,0.065-0.123,0.13
		c0.02,0.06-0.02,0.02-0.054,0.043c-0.09,0.036-0.031-0.113-0.106-0.106c-0.037,0.034-0.088,0.057-0.116,0.098
		c-0.043,0.043-0.026,0.087,0.039,0.069c0.056,0.018,0.026,0.052-0.02,0.052c-0.026,0.042-0.057,0.087-0.114,0.058
		c0.023,0.045,0.001,0.099,0.033,0.145c-0.028,0.044,0.02,0.023,0.026,0.002c0.052-0.056,0.026,0.045,0.054,0.065
		c-0.023,0.06-0.084,0.105-0.088,0.171c-0.002,0.082-0.065-0.001-0.103,0.011c-0.09,0.037,0.059,0.037,0.033,0.102
		c-0.093,0.02-0.053,0.12-0.123,0.16c-0.033,0.059-0.085-0.011-0.113,0.034c-0.071,0.05,0.011,0.077,0.05,0.11
		c-0.011,0.031,0.061,0.085,0.023,0.091c-0.066-0.047-0.072,0.047-0.094,0.074c-0.067,0.006-0.026,0.123-0.103,0.134
		c-0.026,0.043-0.066,0.076-0.127,0.076c-0.023,0.038-0.062,0.038-0.108,0.057c-0.057,0.02-0.119,0.064-0.166,0.018
		c-0.027-0.076-0.062,0.046-0.112,0.007c-0.076,0.007-0.164,0-0.218-0.053c0.048-0.056,0.049-0.124,0.044-0.194
		c0.041-0.059-0.018-0.084-0.064-0.103c-0.092-0.013-0.095,0.087-0.15,0.12c-0.081,0.018-0.123,0.099-0.199,0.115
		c-0.023-0.02-0.055-0.056-0.089-0.013c-0.055,0.063-0.122,0-0.174-0.027c-0.056-0.03-0.03-0.071,0.011-0.101
		c0.023-0.049-0.007-0.023-0.037-0.032c-0.06-0.033-0.018,0.046-0.07,0.043c-0.006,0.034-0.037,0.076-0.011,0.106
		c-0.031,0.043-0.119,0.094-0.165,0.046c-0.052-0.063-0.165-0.023-0.194,0.043c-0.033,0.055-0.06,0.106-0.086,0.156
		c-0.011,0.065-0.124,0.104-0.077,0.173c0.068,0.006,0.034,0.044,0.02,0.083c-0.045,0.007-0.039,0.037-0.045,0.073
		c-0.044,0.023-0.147-0.013-0.158,0.07c-0.05,0.014-0.127,0.11-0.156,0.023c-0.04-0.044-0.151-0.007-0.131,0.049
		c-0.013,0.052-0.05,0.109-0.035,0.171c0.046,0.067-0.069,0.02-0.065,0.082c-0.046,0.018-0.087,0.068-0.141,0.056
		c-0.036,0.046-0.104,0.032-0.15,0.066c-0.066,0.011-0.158,0.042-0.212-0.002c-0.044-0.058-0.058,0.079-0.094,0.018
		c-0.02-0.062-0.072-0.023-0.066,0.026c-0.049,0.072,0.05,0.067,0.058,0.125c0.03,0.068-0.069,0.034-0.09,0.084
		c-0.027,0.057,0.006,0.131-0.047,0.179c-0.062,0.013-0.142,0.054-0.145,0.128c-0.029,0.054-0.026-0.04-0.067-0.031
		c-0.011-0.064-0.096-0.037-0.106,0.018c-0.05,0.007-0.056,0.045-0.054,0.092c-0.049,0.044,0.042,0.072,0.014,0.118
		c0.068,0.075-0.06,0.071-0.074,0.124c0.052,0.03,0.006,0.059-0.027,0.085c-0.02,0.07-0.002,0.15-0.047,0.212
		c-0.02,0.06-0.064,0.121-0.117,0.156c-0.067,0.052-0.112-0.081-0.161-0.013c-0.034-0.032-0.087,0.013-0.13,0.018
		c-0.047-0.002-0.092-0.11-0.126-0.041c-0.051-0.026-0.097,0.013-0.151,0.001c-0.023-0.032-0.089-0.014-0.096-0.054
		c-0.044-0.084-0.054,0.067-0.104,0.052c0.006-0.03-0.023-0.087-0.053-0.036c-0.06-0.011,0.018,0.053-0.026,0.067
		c-0.066,0.036-0.039-0.04-0.071-0.067c-0.066-0.029-0.041,0.06-0.066,0.086c-0.036-0.011-0.126,0.007-0.131-0.05
		c0.051-0.047-0.026-0.082,0.006-0.128c-0.05-0.02,0.013-0.084-0.035-0.108c-0.011,0.013-0.112,0.081-0.077,0.023
		c0.067-0.036-0.054-0.034-0.014-0.072c-0.031-0.011-0.065-0.036-0.101-0.054c-0.001-0.011,0.028-0.033-0.02-0.032
		c-0.011-0.045-0.059-0.011-0.083-0.044c0.043-0.02,0.04-0.052-0.006-0.057c-0.081-0.059-0.029-0.132-0.023-0.211
		c0.026-0.033,0.116-0.067,0.056-0.118c-0.029,0.038-0.064-0.029-0.102-0.034c-0.067-0.011,0.033-0.036-0.006-0.068
		c0.084-0.011,0.007-0.069-0.018-0.11c-0.067,0.002-0.081-0.058-0.074-0.106c-0.023-0.078,0.09-0.095,0.129-0.145
		c0.078,0,0.095-0.095,0.123-0.146c-0.059,0-0.071-0.064-0.099-0.103c-0.033,0.002-0.072-0.041-0.055-0.077
		c-0.056-0.029-0.007-0.094-0.013-0.136c0.045,0.031,0.098-0.061,0.146-0.027c0.066-0.007,0.107,0.033,0.166,0.046
		c0.006-0.02,0.007-0.128-0.033-0.089c-0.058,0.013-0.027-0.056-0.088-0.049c0.018-0.045-0.032-0.12,0.013-0.149
		c0.081,0.007-0.028-0.031-0.007-0.071c-0.052-0.082-0.07,0.092-0.1,0.032c-0.035-0.078,0.1-0.096,0.079-0.173
		c-0.06-0.011-0.107-0.08-0.172-0.066c-0.052-0.014-0.133,0.002-0.107,0.076c0.014,0.04-0.014,0.18,0.065,0.113
		c0.091,0.011-0.034,0.107,0.002,0.155c0.047-0.031,0.11,0.059,0.042,0.064c0.002,0.034,0.03,0.101-0.013,0.144
		c-0.011,0-0.007,0.014-0.013,0.02c-0.037-0.027-0.08-0.05-0.131-0.067c-0.026-0.027-0.069-0.073-0.038-0.122
		c-0.014-0.053-0.036-0.11-0.036-0.16c0.041-0.055,0.052-0.134,0.011-0.185c-0.06,0.006-0.013-0.038-0.038-0.064
		c-0.084-0.055,0.057-0.086,0.083-0.136c0.056-0.042,0.122-0.077,0.158-0.131c0.011-0.076,0.099-0.075,0.113-0.155
		c0.023-0.06,0.013-0.123,0.02-0.183c-0.061-0.023,0.029-0.055-0.007-0.096c-0.045,0.02-0.101,0.023-0.151,0.037
		c0,0.076-0.077,0.109-0.144,0.074c-0.077-0.011-0.117,0.102-0.199,0.07c-0.018-0.075-0.07,0.006-0.119,0.002
		c-0.002,0.078-0.084-0.018-0.108,0.046c-0.05,0.006-0.072,0.059-0.126,0.061c-0.037,0.03-0.106,0-0.137,0.042
		c-0.018-0.02-0.036-0.006-0.054-0.013c-0.056,0.026-0.092-0.026-0.145-0.001c-0.02-0.043-0.059-0.026-0.101-0.023
		c-0.038-0.064-0.125-0.033-0.16,0.023c-0.036,0.06-0.101,0.097-0.166,0.123c-0.052,0.036-0.11,0.058-0.171,0.081
		c-0.065,0.023-0.124,0.071-0.181,0.11c-0.067,0.013-0.089,0.074-0.152,0.084c-0.064-0.027-0.115,0.026-0.097,0.085
		c-0.05,0.023-0.065,0.079-0.106,0.112c-0.002,0.076-0.106,0.02-0.134,0.077c-0.018-0.026-0.031-0.002-0.057-0.014
		c-0.055-0.029-0.109,0.026-0.166,0.043c-0.044,0.041-0.1,0.09-0.098,0.152c-0.061-0.007-0.034,0.104-0.104,0.06
		c-0.04,0.036-0.097,0.049-0.131,0.081c-0.043,0.055-0.12,0.09-0.152,0.16c-0.048,0.002-0.089,0.039-0.11,0.083
		c-0.032,0.007-0.063,0.029-0.103,0.042c-0.043-0.014-0.068,0.05-0.093,0.011c-0.011,0.026-0.02,0.045-0.05,0.046
		c-0.054,0.029-0.129,0.051-0.181,0.084c-0.048-0.002-0.12,0.035-0.182,0.018c-0.057,0.011-0.148,0.032-0.183-0.028
		c0.006-0.056-0.033-0.07-0.074-0.097c-0.065,0.011-0.145,0.048-0.199-0.002c-0.026,0.011-0.041,0.006-0.065-0.02
		c-0.052-0.02-0.141-0.03-0.135-0.105c-0.068,0.011-0.071-0.068-0.106-0.093c-0.071-0.014,0.02-0.126-0.063-0.083
		c-0.061,0.001-0.14,0.011-0.198,0.037c-0.069,0.03-0.135,0.068-0.21,0.092c-0.063,0.026-0.147,0.007-0.193,0.064
		c-0.073,0.018-0.137,0.038-0.21,0.058c-0.049,0.026-0.109-0.001-0.152,0.026c-0.026,0.056-0.113,0.06-0.166,0.085
		c-0.046,0.038-0.09-0.007-0.133,0.018c-0.054-0.002-0.088,0.076-0.156,0.082c-0.067,0.013-0.131,0.049-0.2,0.054
		c-0.07-0.011-0.088,0.057-0.145,0.073c-0.04-0.035-0.076-0.011-0.118-0.007c-0.034-0.069-0.083,0.028-0.125,0.011
		c-0.046,0.048-0.118,0.056-0.183,0.084c-0.065,0.027-0.154,0.011-0.127-0.074c0.011-0.069-0.047,0.029-0.071-0.02
		c-0.032-0.076-0.098-0.001-0.155-0.018c-0.058,0.027-0.126,0.053-0.196,0.055c-0.032,0.026-0.09-0.026-0.095,0.002
		c0.055,0.036-0.013,0.093-0.05,0.05c-0.057-0.043,0.002,0.033-0.02,0.03c-0.02,0.036-0.09-0.001-0.108,0.029
		c-0.06,0.011-0.12,0.049-0.185,0.07c-0.069,0.02-0.109,0.072-0.174,0.096c-0.05,0.023-0.111,0.041-0.16,0.055
		c-0.053,0.023-0.122,0.033-0.185,0.04c-0.067,0.018-0.136,0.023-0.202,0.033c-0.07-0.02-0.177,0.006-0.22-0.068
		c-0.031-0.064-0.101-0.097-0.12-0.165c-0.013-0.057-0.028-0.111-0.072-0.16c0.013-0.053-0.06-0.079-0.026-0.134
		c-0.002-0.065,0.026-0.12,0.087-0.155c0.018-0.063-0.045-0.018-0.065-0.036c-0.085-0.026,0.018-0.095-0.04-0.129
		c-0.049,0.006,0.002,0.06-0.028,0.081c-0.036-0.007-0.072,0.013-0.106,0.001c-0.001,0.027-0.075,0.087-0.065,0.028
		c0.02-0.043-0.013-0.011-0.026-0.02c-0.029,0.014-0.044,0.02-0.071-0.006c-0.084-0.002,0.055-0.068-0.007-0.073
		c-0.074,0.02-0.006-0.065-0.04-0.077c-0.002-0.026,0.014-0.056-0.039-0.06c-0.053-0.038-0.028,0.064-0.073,0.014
		c-0.007,0.028-0.041,0.038-0.076,0.023c-0.088-0.033-0.063,0.072-0.113,0.105c-0.036,0.055-0.084,0.026-0.118-0.007
		c-0.052,0.034-0.083-0.011-0.126-0.031c-0.063-0.001-0.085-0.08-0.085-0.12c-0.031,0.026-0.036,0.077-0.034,0.122
		c0.018,0.065-0.029,0.14-0.002,0.205c0.039,0.044-0.028,0.029-0.02,0.069c0.035,0.043-0.023,0.046-0.039,0.069
		c-0.037-0.007-0.106-0.043-0.157-0.018c-0.055-0.011-0.12,0.023-0.152,0.068c-0.035,0.026-0.039-0.064-0.063-0.063
		c0.014,0.046-0.077,0.063-0.053,0.096c-0.026,0.054-0.083-0.042-0.125-0.033c-0.023-0.038-0.074-0.007-0.097-0.036
		c-0.023-0.014-0.074,0-0.114,0.006c-0.067,0.002-0.128-0.1-0.188-0.044c-0.037-0.011-0.049,0.014-0.063,0.036
		c-0.07-0.069-0.029,0.052,0.011,0.068c-0.036,0.02,0.007,0.099-0.056,0.087c-0.067,0.02-0.139,0.046-0.204,0.07
		c-0.041-0.049-0.027,0.036-0.056,0.013c-0.053-0.006-0.007,0.013-0.007,0.031c-0.042,0.006-0.086,0.046-0.115-0.002
		c0.032,0.039-0.063,0.092-0.098,0.031c-0.04,0.011-0.02-0.061-0.07-0.074c-0.08,0.011,0.059,0.046-0.02,0.057
		c-0.018,0.044-0.063,0.1-0.122,0.078c-0.062-0.042-0.098,0.026-0.153,0.03c-0.034,0.036-0.081-0.053-0.072,0.006
		c-0.023-0.002-0.048-0.006-0.032,0.033c-0.02,0.085-0.138,0.018-0.103-0.051c0.031-0.059-0.028-0.047-0.054-0.085
		c0.007,0.051-0.063,0.013-0.067,0.051c-0.048,0.03-0.125,0.074-0.169,0.036c-0.032,0.014-0.105-0.033-0.105,0.028
		c-0.035-0.02-0.081,0.023-0.13,0.023c-0.071,0.051-0.075-0.067-0.145-0.04c-0.066-0.023-0.081,0.057-0.139,0.047
		c-0.055-0.018-0.083,0.049-0.133,0.018c-0.039,0.039-0.142-0.002-0.151,0.04c-0.041,0.023-0.018,0.131-0.063,0.109
		c-0.031,0.05-0.078-0.018-0.115,0.018c-0.027,0.033-0.058,0.034-0.103,0.035c-0.033,0.049-0.086-0.014-0.112,0.033
		c-0.054,0.006-0.112,0.04-0.163,0.035c-0.079,0.007-0.026,0.099-0.076,0.141c-0.04-0.013-0.039,0.051-0.08,0.065
		c-0.047,0.065-0.053,0.141-0.143,0.167c-0.065,0.007-0.007,0.071-0.036,0.082c-0.02,0.04-0.07,0.109-0.123,0.099
		c-0.013,0.053-0.073,0.063-0.112,0.092c-0.058,0.038-0.097,0.108-0.176,0.111c-0.06,0.026-0.11,0.054-0.163,0.097
		c-0.052,0.026-0.095,0.08-0.161,0.092c-0.069,0.035-0.133,0.062-0.198,0.096c-0.081,0.007-0.133,0.071-0.207,0.092
		c-0.065,0.029-0.137,0.052-0.2,0.084c-0.053,0.002-0.137,0.08-0.161,0.013c-0.056,0,0.006,0.02-0.023,0.04
		c-0.052-0.002-0.041-0.029-0.042-0.069c-0.041,0.023-0.089,0.006-0.127,0.023c0.02,0.06,0.006,0.118-0.068,0.14
		c-0.063,0.069-0.131-0.047-0.18-0.02c-0.056-0.02-0.044,0.048-0.096,0.049c-0.067-0.006-0.127,0.04-0.192,0.055
		c-0.049-0.046-0.052,0.023-0.062,0.058c-0.034,0.03-0.053,0.106-0.115,0.081c-0.013-0.04-0.048-0.027-0.076-0.02
		c-0.071,0.031-0.126,0.099-0.211,0.086c-0.028,0.037-0.075-0.006-0.1,0.027c-0.046-0.007-0.023,0.092-0.065,0.06
		c-0.014,0.052-0.032,0.099-0.079,0.13c-0.055,0.046-0.141,0.03-0.199,0.073c-0.063,0.011-0.127,0.02-0.192,0.031
		c-0.051,0.006-0.112,0.006-0.161,0.02c-0.067,0-0.133,0.043-0.206,0.038c-0.068,0.011-0.136,0.027-0.206,0.036
		c-0.073-0.018-0.149-0.002-0.219-0.028c-0.083-0.011-0.014-0.13-0.089-0.127c-0.007-0.04-0.046-0.045-0.066-0.074
		c0.006-0.058-0.073-0.13-0.006-0.172c-0.014-0.052,0.048-0.026,0.049-0.059c-0.042,0.026,0-0.002-0.02-0.026
		c-0.068,0.014,0.002-0.032,0.013-0.057c0.007-0.067-0.04,0.007-0.053-0.02c-0.054-0.036,0.014-0.037,0.002-0.075
		c-0.049-0.026,0.029-0.08-0.037-0.094c-0.04-0.031-0.002-0.033-0.002-0.068c-0.023-0.048,0.091-0.043,0.028-0.067
		c-0.072,0.058-0.079-0.091-0.142-0.039c-0.055-0.002-0.115-0.057-0.067-0.11c0.069-0.07-0.071-0.106-0.023-0.176
		c-0.02-0.028-0.013-0.084-0.056-0.113c-0.051-0.007-0.068-0.053-0.109-0.064c-0.04-0.055-0.079-0.094-0.133-0.129
		c0.007-0.066-0.027-0.007-0.048,0.014c-0.03,0.029-0.084,0.064-0.085,0.113c-0.023,0.042-0.051,0.121-0.107,0.118
		c-0.018-0.043-0.031-0.038-0.07-0.014c-0.099,0.007-0.051,0.109-0.076,0.169c-0.03,0.084-0.109,0.018-0.159,0.064
		c-0.026,0.076-0.096,0.002-0.142,0.007c-0.018,0.028-0.05,0.035-0.091,0.011c-0.063-0.038-0.137-0.05-0.202-0.084
		c-0.055-0.033-0.104-0.128-0.169-0.073c-0.065,0.038-0.121,0.063-0.19,0.077c-0.06-0.002-0.125,0.033-0.183,0.007
		c-0.061-0.036-0.129-0.073-0.209-0.067c-0.067,0-0.121-0.041-0.191-0.037c-0.018-0.044-0.05-0.033-0.088-0.041
		C88.053,74.78,88.02,74.721,88,74.761c-0.029-0.018-0.062-0.02-0.1-0.026c-0.051,0.02,0.014,0.028,0.028,0.04
		c-0.023,0.059-0.073-0.013-0.094-0.011c-0.031,0.011-0.065-0.122,0.007-0.115c0.049-0.028,0.092-0.058,0.098-0.11
		c0.039-0.086,0.14-0.051,0.201-0.018c0.026-0.041,0.083-0.063,0.138-0.074c0.02-0.062,0.061-0.002,0.093,0.007
		c0.082,0.014,0.164-0.026,0.243,0.007c0.053-0.023,0.132,0.049,0.159-0.007c0.05-0.006,0.127,0,0.158-0.023
		c0.047,0.018,0.127-0.007,0.158-0.03c0.042-0.058-0.082-0.026-0.026-0.07c0.054,0.018,0.036-0.052,0.086-0.06
		c-0.018-0.057,0.035-0.02,0.068-0.026c0.063,0.013,0.037-0.099,0.02-0.138c0.002-0.078,0.02-0.149,0.051-0.217
		c0.039-0.057,0.039-0.121,0.066-0.183c-0.028-0.064-0.1-0.116-0.137-0.183c-0.031-0.063-0.088-0.116-0.112-0.179
		c-0.063-0.046-0.139-0.081-0.177-0.155c-0.049-0.059-0.115-0.097-0.199-0.101c-0.066,0.02-0.131-0.001-0.197,0.013
		c-0.075,0.002-0.147,0.006-0.219-0.028c-0.06-0.02-0.137-0.032-0.192,0.007c-0.062,0.028-0.123,0.042-0.173,0.087
		c-0.075,0.013-0.085,0.07-0.072,0.13c-0.044,0.027-0.002-0.034-0.032-0.034c-0.057-0.011-0.032,0.036-0.061,0.053
		c-0.045,0.033-0.072-0.02-0.105-0.018c0.02,0.05-0.057,0.018-0.044,0.06c0.093,0.061-0.084,0.091-0.061,0.147
		c0.081-0.007,0.063,0.062,0.082,0.107c0.041,0.001,0.062,0.007,0.049,0.05c0.05,0.028,0.128,0.044,0.149,0.105
		c0.039,0.026,0.051,0.108-0.02,0.093c-0.039,0.053-0.162,0.032-0.151,0.126c-0.041-0.014-0.081-0.06-0.128-0.079
		c-0.063,0.007,0.034,0.065,0.06,0.074c-0.011,0.026-0.102-0.042-0.132,0.002c-0.011,0.051,0.079,0.125,0.035,0.158
		c-0.063-0.039,0.026,0.028-0.011,0.056c-0.068,0.048,0.049,0.076,0.014,0.131c0.026,0.037,0.002,0.056-0.027,0.081
		c-0.075,0.018-0.094,0.088-0.155,0.123c-0.064,0.067-0.049-0.073-0.11-0.023c-0.026,0.046-0.07,0.027-0.108,0.059
		c-0.062-0.013-0.023,0.08-0.08,0.093c-0.055,0.013-0.121,0.084-0.176,0.039c0.03-0.028,0.006-0.083-0.04-0.057
		c-0.037,0.011-0.02,0.068-0.04,0.061c0.007-0.051-0.047-0.056-0.044-0.001c-0.02,0.059-0.011-0.041-0.039,0.006
		c0.027,0.036-0.02,0.099-0.072,0.057c-0.027-0.061-0.049,0.067-0.072,0.007c-0.033,0.038-0.08-0.007-0.11,0.041
		c-0.081,0.013-0.174,0.027-0.243-0.02c-0.042,0.007-0.093-0.07-0.11-0.007c-0.05,0.038-0.113,0.061-0.177,0.073
		c-0.03-0.018-0.027-0.02-0.046,0.014c-0.068,0.026-0.139,0.03-0.207,0.033c-0.066,0.027-0.157,0.002-0.223,0.023
		c-0.065,0.035-0.144,0.014-0.212,0.028c-0.075,0.006-0.153,0.02-0.229,0.011c-0.031-0.043-0.073-0.064-0.13-0.084
		c-0.036,0.006-0.077,0.037-0.125,0.014c-0.05,0.059-0.12,0.051-0.19,0.057c-0.056-0.007-0.106-0.007-0.166-0.007
		c-0.059-0.006-0.156,0.006-0.182-0.054c-0.068-0.046-0.041-0.14-0.08-0.204c0.018-0.058-0.066-0.079-0.051-0.121
		c0.02-0.061-0.042-0.128-0.041-0.179c0.011-0.042-0.033-0.087-0.03-0.136c-0.06-0.018-0.007-0.072-0.048-0.101
		c0.011-0.026-0.044-0.038-0.036-0.085c-0.038-0.02-0.048-0.072-0.07-0.12c-0.041-0.057-0.033-0.138-0.09-0.185
		c0.013-0.036-0.081-0.002-0.038-0.037c0.109-0.041-0.056-0.061-0.067-0.106c0.02-0.062-0.042-0.018-0.051-0.068
		c-0.013-0.054-0.027-0.111-0.007-0.162c0.037-0.026-0.011-0.093,0.036-0.087c0.054-0.062-0.001-0.102-0.065-0.118
		c-0.065-0.036-0.122-0.086-0.202-0.101c-0.067-0.035-0.159-0.026-0.208-0.086c-0.02-0.018-0.04-0.023-0.053-0.014v0L83.106,72.979z
		 M86.047,74.465c0.02,0.034-0.073,0.038-0.045,0.092c0.023,0.046-0.029,0.141,0.033,0.112c0.077-0.023,0.06-0.127,0.134-0.149
		c0.028-0.072-0.109,0.018-0.103-0.054l-0.007-0.002l-0.011,0l0,0L86.047,74.465z M89.234,74.281
		c-0.09,0.029,0.047,0.059,0.026,0.007C89.254,74.281,89.242,74.277,89.234,74.281z M88.896,74.504
		c0.002,0.04,0.089,0.108,0.063,0.02C88.956,74.491,88.924,74.514,88.896,74.504z M108.918,72.009
		c-0.04,0.058,0.067,0.071,0.02,0.013C108.928,72.024,108.926,72.004,108.918,72.009z M116.18,70.259
		c-0.03,0.063,0.027,0.103,0.044,0.162c0.041,0.013,0.095,0.026,0.123,0.02c0.031,0.002,0.059-0.051,0.104-0.048
		c0.071-0.06-0.05-0.093-0.097-0.076c-0.045-0.011-0.108-0.011-0.143-0.054C116.2,70.259,116.191,70.258,116.18,70.259
		L116.18,70.259L116.18,70.259z M109.336,72.37c-0.029,0.027-0.007,0.097,0.014,0.101C109.328,72.443,109.374,72.382,109.336,72.37z
		 M116.105,71.353c-0.049,0.028-0.036,0.089-0.075,0.126c0.046,0.027,0.058-0.058,0.087-0.081
		C116.124,71.377,116.168,71.329,116.105,71.353L116.105,71.353z M109.235,73.341c-0.011,0.034,0.011,0.099-0.038,0.104
		c-0.002,0.07,0.138,0.051,0.081-0.011c0.059-0.031-0.013-0.048-0.031-0.059c0.051-0.006,0.011-0.027-0.013-0.036l0,0
		L109.235,73.341z M109.914,74.249C109.903,74.284,109.947,74.251,109.914,74.249z M116.059,74.015l-0.011,0.002
		C116.037,74.057,116.11,74.029,116.059,74.015z M115.979,74.078C115.974,74.137,116.038,74.105,115.979,74.078z M115.669,74.353
		c-0.013,0.047,0.067,0.011,0.014-0.002L115.669,74.353z M115.1,75.291C115.025,75.465,115.266,75.323,115.1,75.291z M99.081,80.159
		c-0.002,0.068,0.086-0.011,0.023-0.007C99.097,80.154,99.089,80.159,99.081,80.159z M99.046,80.227
		c-0.059,0.03,0.02,0.079,0.023,0.02C99.069,80.237,99.058,80.217,99.046,80.227z"/>
	<path id="path2999" inkscape:connector-curvature="0" class="st0" d="M53.227,71.14c-4.976,0.537-9.439,0.804-13.366,0.804v49.952
		h13.366v-13.247l2.441-3.007l6.4,16.254h14.11L65.194,94.539l7.621-9.526h-5.358l-14.23,17.355V71.14z M151.435,83.971
		c-5.098,0-9.294,1.911-12.562,5.716c-3.268,3.805-4.912,8.695-4.912,14.646c0,12.269,6.164,18.397,18.457,18.397
		c9.488,0,14.502-4.259,15.063-12.771l-5.358-1.578c0.049,0.951,0.06,1.799,0.06,2.53c0,5.464-2.291,8.186-6.877,8.186
		c-4.903,0-7.353-4.839-7.353-14.497h19.469C167.421,90.844,162.093,83.971,151.435,83.971z M297.035,83.971
		c-5.098,0-9.264,1.911-12.533,5.716c-3.268,3.805-4.912,8.695-4.912,14.646c0,12.269,6.134,18.397,18.427,18.397
		c9.488,0,14.532-4.259,15.093-12.771l-5.388-1.578c0.049,0.951,0.06,1.799,0.06,2.53c0,5.464-2.291,8.186-6.877,8.186
		c-4.903,0-7.353-4.839-7.353-14.497h19.469C313.021,90.844,307.693,83.971,297.035,83.971z M230.828,84.06
		c-3.585,0-6.657,1.865-9.169,5.597V84.09c-5.122,0.634-9.556,0.953-13.336,0.953v49.327h13.336v-15.51
		c2.293,2.683,5.221,4.019,8.782,4.019c8.659,0,13.009-6.498,13.009-19.499c0-5.878-1.161-10.563-3.453-14.051
		C237.705,85.817,234.658,84.06,230.828,84.06z M262.532,84.06c-4.098,0.659-7.673,0.982-10.747,0.982l-2.59-0.03v36.884h13.336
		V99.778c0-2.293,0.38-4.471,1.161-6.519c0.78-2.073,1.617-3.096,2.471-3.096c1.122,0,1.667,0.791,1.667,2.352
		c0,0.805-0.165,1.709-0.506,2.709c-0.244,0.683-0.516,1.746-0.834,3.185h9.139c0.317-1.317,0.538-2.318,0.685-2.977
		c0.415-1.61,0.625-3.043,0.625-4.287c0-4.732-2.137-7.085-6.43-7.085c-3.146,0-5.807,2.024-7.978,6.073V84.06z M19.141,84.09
		c-4.707,0-8.58,1.12-11.58,3.364c-3,2.22-4.495,5.086-4.495,8.573c0,5.268,3.929,9.584,11.759,12.949
		c5.195,2.22,7.77,4.244,7.77,6.073c0,2.732-1.603,4.078-4.823,4.078c-2.439,0-4.566-0.796-6.371-2.382
		c-1.781-1.585-2.649-3.45-2.649-5.597c0-0.707,0.022-1.458,0.119-2.262l-6.877,1.399c0,8.317,5.589,12.473,16.76,12.473
		c10.561,0,15.837-4.156,15.837-12.473c0-5.22-4.121-9.529-12.414-12.92c-5.415-2.195-8.127-4.23-8.127-6.132
		c0-2.585,1.557-3.9,4.703-3.9c5.122,0,7.68,2.764,7.68,8.276l6.49-1.131C32.095,87.552,27.507,84.09,19.141,84.09z M333.77,84.09
		c-4.707,0-8.55,1.12-11.55,3.364c-3,2.22-4.525,5.086-4.525,8.573c0,5.268,3.929,9.584,11.759,12.949
		c5.195,2.22,7.799,4.244,7.799,6.073c0,2.732-1.633,4.078-4.852,4.078c-2.439,0-4.536-0.796-6.341-2.382
		c-1.781-1.585-2.679-3.45-2.679-5.597c0-0.707,0.051-1.458,0.149-2.262l-6.877,1.399c0,8.317,5.589,12.473,16.76,12.473
		c10.561,0,15.837-4.156,15.837-12.473c0-5.22-4.151-9.529-12.443-12.92c-5.415-2.195-8.127-4.23-8.127-6.132
		c0-2.585,1.587-3.9,4.733-3.9c5.122,0,7.68,2.764,7.68,8.276l6.46-1.131C346.723,87.552,342.135,84.09,333.77,84.09z
		 M369.611,84.09c-4.707,0-8.55,1.12-11.55,3.364c-3,2.22-4.495,5.086-4.495,8.573c0,5.268,3.9,9.584,11.729,12.949
		c5.195,2.22,7.799,4.244,7.799,6.073c0,2.732-1.603,4.078-4.823,4.078c-2.439,0-4.566-0.796-6.371-2.382
		c-1.781-1.585-2.679-3.45-2.679-5.597c0-0.707,0.051-1.458,0.149-2.262l-6.877,1.399c0,8.317,5.589,12.473,16.76,12.473
		c10.561,0,15.837-4.156,15.837-12.473c0-5.22-4.151-9.529-12.443-12.92c-5.415-2.195-8.097-4.23-8.097-6.132
		c0-2.585,1.557-3.9,4.703-3.9c5.122,0,7.68,2.764,7.68,8.276l6.49-1.131C382.595,87.552,377.977,84.09,369.611,84.09z
		 M74.839,85.013l14.855,38.7l-0.982,2.62c-1.195,3.244-2.747,4.882-4.674,4.882c-1.707,0-2.76-1.393-3.126-4.197l-4.584,3.304
		c1.366,3.244,3.935,4.882,7.74,4.882c3.927,0,7.06-2.866,9.377-8.573l16.879-41.617h-4.912l-8.454,21.672l-7.442-21.672H74.839z
		 M169.088,85.013l11.729,20.838l-11.818,16.045h5.12l8.871-12.086l6.936,12.086h15.271l-12.473-22.148l10.866-14.736h-5.12
		l-7.978,10.717l-6.043-10.717H169.088z M152,87.603c2.585,0,3.9,4.304,3.9,12.89h-7.978l0.149-3.334
		C148.363,90.793,149.659,87.603,152,87.603z M297.63,87.603c2.585,0,3.87,4.304,3.87,12.89h-7.978l0.149-3.334
		C293.963,90.793,295.288,87.603,297.63,87.603z M225.946,89.419c2.415,0,3.632,4.612,3.632,13.783
		c0,9.537-1.274,14.289-3.81,14.289c-2.829,0-4.257-4.752-4.257-14.289C221.511,94.031,222.995,89.419,225.946,89.419z
		 M137.83,133.06c-1.038,0.115-1.548,0.656-1.548,1.578c0,1.053,0.668,1.578,2.024,1.578c1.356,0,2.024-0.525,2.024-1.578
		c0-1.053-0.668-1.578-2.024-1.578C138.137,133.06,137.979,133.043,137.83,133.06z M184.032,133.06
		c-1.038,0.115-1.578,0.656-1.578,1.578c0,1.053,0.698,1.578,2.054,1.578c1.356,0,2.024-0.525,2.024-1.578
		c0-1.053-0.668-1.578-2.024-1.578C184.338,133.06,184.18,133.043,184.032,133.06z M64.509,133.209
		c-1.619,0.167-3.084,0.238-4.376,0.238v16.343h4.376v-6.013c0-1.021,0.21-1.972,0.625-2.858c0.415-0.893,0.861-1.34,1.34-1.34
		c0.463,0,0.685,0.348,0.685,1.042v9.169h4.376v-9.645c0-1.819-1.01-2.739-3.036-2.739c-1.715,0-3.048,0.794-3.989,2.382V133.209z
		 M172.481,133.209c-1.707,0.16-3.142,0.238-4.346,0.238v16.343h4.346V133.209z M276.524,133.209c-1.053,0-1.918,0.328-2.62,0.982
		c-0.694,0.654-1.042,1.482-1.042,2.471v1.072h-1.518v1.34h1.518v10.717h4.376v-10.717h1.727v-1.34h-1.727
		c-0.734-0.949-1.101-1.659-1.101-2.114c0-0.742,0.263-1.101,0.774-1.101c0.59,0,0.863,0.405,0.863,1.25
		c0,0.239-0.037,0.568-0.149,0.982l2.054-0.714c0.007-0.183,0.03-0.357,0.03-0.476C279.709,133.981,278.63,133.209,276.524,133.209
		L276.524,133.209z M49.506,133.834c-1.404,0.782-2.868,1.371-4.376,1.786v2.143h-1.459v1.34h1.459v8.008
		c0,1.867,1.081,2.798,3.275,2.798c1.843,0,2.961-0.615,3.304-1.875l-1.25-0.119c-0.048,0.359-0.199,0.536-0.447,0.536
		c-0.343,0-0.506-0.269-0.506-0.804v-8.544h1.935v-1.34h-1.935V133.834z M363.955,133.834c-1.404,0.782-2.868,1.371-4.376,1.786
		v2.143h-1.459v1.34h1.459v8.008c0,1.867,1.111,2.798,3.304,2.798c1.843,0,2.932-0.615,3.275-1.875l-1.25-0.119
		c-0.048,0.359-0.199,0.536-0.447,0.536c-0.343,0-0.506-0.269-0.506-0.804v-8.544h1.935v-1.34h-1.935V133.834z M86.479,137.376
		c-1.667,0-3.039,0.631-4.108,1.875s-1.608,2.846-1.608,4.793c0,4.013,2.022,6.013,6.043,6.013c3.103,0,4.728-1.384,4.912-4.168
		l-1.756-0.506c0.016,0.311,0.03,0.564,0.03,0.804c0,1.787-0.733,2.679-2.233,2.679c-1.603,0-2.411-1.574-2.411-4.733h6.371
		C91.718,139.635,89.965,137.376,86.479,137.376L86.479,137.376z M121.07,137.376c-3.494,0-5.239,0.973-5.239,2.888
		c0,0.327,0.033,0.667,0.089,1.042l2.173,0.417c-0.223-0.614-0.357-1.114-0.357-1.488c0-1.197,0.723-1.786,2.143-1.786
		c1.229,0,1.846,0.609,1.846,1.846c0,0.941-1.077,1.741-3.215,2.411c-2.329,0.726-3.483,1.986-3.483,3.781
		c0,2.361,1.266,3.543,3.81,3.543c1.364,0,2.4-0.485,3.126-1.459c0.351,0.933,1.299,1.399,2.798,1.399
		c1.013,0,2.027-0.21,3.096-0.625l-0.417-1.101c-0.295,0.167-0.503,0.268-0.655,0.268c-0.487,0-0.744-0.381-0.744-1.131v-7.323
		C126.042,138.269,124.389,137.376,121.07,137.376L121.07,137.376z M222.85,137.376c-1.667,0-3.039,0.631-4.108,1.875
		c-1.069,1.244-1.608,2.846-1.608,4.793c0,4.013,2.022,6.013,6.043,6.013c3.103,0,4.728-1.384,4.912-4.168l-1.756-0.506
		c0.017,0.311,0.03,0.564,0.03,0.804c0,1.787-0.763,2.679-2.262,2.679c-1.603,0-2.382-1.574-2.382-4.733h6.341
		C228.06,139.635,226.336,137.376,222.85,137.376L222.85,137.376z M308.377,137.376c-1.947,0-3.487,0.611-4.644,1.816
		c-1.157,1.197-1.727,2.804-1.727,4.823c0,4.029,1.981,6.043,5.954,6.043c3.351,0,5.031-1.551,5.031-4.614l-0.03-0.476l-1.816-0.566
		c0.096,0.662,0.119,1.134,0.119,1.429c0,2.098-0.792,3.156-2.411,3.156c-0.885,0-1.489-0.387-1.816-1.161
		c-0.327-0.782-0.506-2.226-0.506-4.316c0-3.382,0.761-5.061,2.292-5.061c1.157,0,1.756,0.867,1.756,2.59l-0.03,1.131l2.054-0.982
		C312.604,138.65,311.177,137.376,308.377,137.376L308.377,137.376z M344.903,137.376c-1.667,0-3.039,0.631-4.108,1.875
		s-1.608,2.846-1.608,4.793c0,4.013,2.022,6.013,6.043,6.013c3.103,0,4.728-1.384,4.912-4.168l-1.756-0.506
		c0.017,0.311,0.03,0.564,0.03,0.804c0,1.787-0.763,2.679-2.262,2.679c-1.603,0-2.382-1.574-2.382-4.733h6.371
		C350.142,139.635,348.389,137.376,344.903,137.376L344.903,137.376z M379.792,137.376c-1.667,0-3.039,0.631-4.108,1.875
		c-1.069,1.244-1.608,2.846-1.608,4.793c0,4.013,2.022,6.013,6.043,6.013c3.103,0,4.728-1.384,4.912-4.168l-1.756-0.506
		c0.017,0.311,0.03,0.564,0.03,0.804c0,1.787-0.733,2.679-2.233,2.679c-1.603,0-2.411-1.574-2.411-4.733h6.371
		C385.032,139.635,383.278,137.376,379.792,137.376L379.792,137.376z M140.45,137.406c-1.548,0.215-2.982,0.327-4.346,0.327v12.056
		h4.346V137.406z M154.65,137.406c-1.34,0.215-2.508,0.327-3.513,0.327h-0.863v12.056h4.376v-7.234c0-0.75,0.132-1.443,0.387-2.114
		c0.255-0.678,0.525-1.042,0.804-1.042c0.367,0,0.536,0.263,0.536,0.774c0,0.263-0.037,0.566-0.149,0.893
		c-0.08,0.223-0.194,0.571-0.298,1.042h3.007c0.104-0.431,0.19-0.767,0.238-0.982c0.136-0.526,0.179-0.992,0.179-1.399
		c0-1.548-0.68-2.322-2.084-2.322c-1.029,0-1.91,0.67-2.62,1.995V137.406z M186.651,137.406c-1.548,0.215-3.012,0.327-4.376,0.327
		v12.056h4.376V137.406z M200.851,137.406c-1.412,0.199-2.876,0.298-4.376,0.298v12.086h4.376v-6.609c0-0.973,0.191-1.82,0.566-2.53
		c0.375-0.718,0.799-1.072,1.31-1.072c0.503,0,0.744,0.438,0.744,1.34v8.871h4.376v-9.288c0-2.058-1.01-3.096-3.036-3.096
		c-1.564,0-2.874,0.763-3.959,2.262V137.406z M257.501,137.406c-3.997,0-5.984,2.129-5.984,6.341c0,4.212,1.987,6.311,5.984,6.311
		c3.989,0,5.984-2.099,5.984-6.311C263.485,139.535,261.49,137.406,257.501,137.406z M326.238,137.406
		c-1.34,0.215-2.508,0.327-3.513,0.327h-0.863v12.056h4.376v-7.234c0-0.75,0.132-1.443,0.387-2.114
		c0.255-0.678,0.525-1.042,0.804-1.042c0.367,0,0.536,0.263,0.536,0.774c0,0.263-0.037,0.566-0.149,0.893
		c-0.08,0.223-0.164,0.571-0.268,1.042h2.977c0.104-0.431,0.19-0.767,0.238-0.982c0.136-0.526,0.208-0.992,0.208-1.399
		c0-1.548-0.71-2.322-2.114-2.322c-1.029,0-1.91,0.67-2.62,1.995V137.406z M257.501,138.478c0.973,0,1.459,1.767,1.459,5.269
		c0,3.502-0.485,5.239-1.459,5.239c-0.965,0-1.459-1.737-1.459-5.239C256.043,140.245,256.536,138.478,257.501,138.478z
		 M86.657,138.567c0.846,0,1.28,1.419,1.28,4.227h-2.62l0.06-1.101C85.473,139.611,85.892,138.567,86.657,138.567z M223.029,138.567
		c0.846,0,1.28,1.419,1.28,4.227h-2.62l0.06-1.101C221.845,139.611,222.263,138.567,223.029,138.567z M345.082,138.567
		c0.846,0,1.28,1.419,1.28,4.227h-2.62l0.06-1.101C343.897,139.611,344.316,138.567,345.082,138.567z M379.971,138.567
		c0.846,0,1.28,1.419,1.28,4.227h-2.62l0.06-1.101C378.787,139.611,379.205,138.567,379.971,138.567z M121.695,142.526v3.483
		c0,1.58-0.46,2.352-1.369,2.352c-0.622,0-0.953-0.786-0.953-2.382c0-1.244,0.468-2.153,1.369-2.679
		C121.102,143.093,121.424,142.837,121.695,142.526z M4.108,145.801c-1.404,0-2.084,0.71-2.084,2.114
		c0,1.404,0.68,2.114,2.084,2.114s2.114-0.71,2.114-2.114C6.222,146.511,5.512,145.801,4.108,145.801z M18.487,145.801
		c-1.404,0-2.114,0.71-2.114,2.114c0,1.404,0.71,2.114,2.114,2.114c1.404,0,2.084-0.71,2.084-2.114
		C20.57,146.511,19.891,145.801,18.487,145.801z M32.835,145.801c-1.404,0-2.114,0.71-2.114,2.114c0,1.404,0.71,2.114,2.114,2.114
		c1.404,0,2.114-0.71,2.114-2.114C34.949,146.511,34.239,145.801,32.835,145.801z"/>
	<path id="rect4185" inkscape:connector-curvature="0" sodipodi:nodetypes="cccccccccsccscccccccccccccccc" class="st3" d="
		M0,123.534l4.763,3.275L0,130.053h75.196l-0.03-0.06l0.595-0.447l4.584-3.304l1.31-0.923l0.208,1.578
		c0.17,1.306,0.491,2.211,0.863,2.709c0.159,0.212,0.307,0.344,0.476,0.447h1.816c0.317-0.146,0.631-0.377,0.953-0.714
		c0.643-0.674,1.276-1.789,1.846-3.334l0.863-2.292l-0.06-0.179C58.875,123.752,29.316,123.534,0,123.534z M95.737,123.534
		l-1.399,3.453c-0.454,1.118-0.962,2.142-1.488,3.066h114.521v-6.519C169.833,123.693,133.223,123.534,95.737,123.534z
		 M222.612,123.534v6.519H376.28l4.763-3.245l-4.763-3.275C325.271,123.728,270.519,123.545,222.612,123.534z"/>
</g>
</svg>
