<?xml version="1.0" encoding="utf-8"?>
<!-- Generator: Adobe Illustrator 22.1.0, SVG Export Plug-In . SVG Version: 6.00 Build 0)  -->
<svg version="1.1" id="Ebene_1" xmlns="http://www.w3.org/2000/svg" xmlns:xlink="http://www.w3.org/1999/xlink" x="0px" y="0px"
	 width="2618.9px" height="290px" viewBox="0 0 2618.9 290" style="enable-background:new 0 0 2618.9 290;" xml:space="preserve">
<style type="text/css">
	.st0{fill:#005287;}
</style>
<g>
	<path class="st0" d="M1531.8,175l49.8-3.1c1.1,8.1,3.3,14.2,6.6,18.5c5.4,6.9,13.1,10.3,23.1,10.3c7.5,0,13.2-1.7,17.3-5.3
		c4-3.5,6.1-7.6,6.1-12.2c0-4.4-1.9-8.3-5.8-11.8s-12.8-6.7-26.8-9.8c-22.9-5.2-39.3-12-49.1-20.6c-9.9-8.5-14.8-19.4-14.8-32.7
		c0-8.7,2.5-16.9,7.6-24.7c5-7.7,12.6-13.8,22.8-18.2c10.1-4.4,24-6.6,41.6-6.6c21.6,0,38.1,4,49.5,12.1c11.4,8,18.1,20.8,20.3,38.4
		l-49.3,2.9c-1.3-7.6-4.1-13.2-8.3-16.6c-4.2-3.5-10-5.2-17.4-5.2c-6.1,0-10.7,1.3-13.7,3.9c-3.1,2.6-4.6,5.7-4.6,9.4
		c0,2.7,1.3,5.1,3.8,7.3c2.5,2.2,8.3,4.3,17.6,6.2c22.9,4.9,39.2,9.9,49.1,15c9.9,5,17.1,11.3,21.6,18.8s6.8,15.8,6.8,25.1
		c0,10.9-3,20.9-9,30c-6,9.2-14.4,16.1-25.2,20.8c-10.8,4.7-24.4,7.1-40.8,7.1c-28.8,0-48.7-5.5-59.8-16.6
		C1539.5,206.2,1533.2,192.1,1531.8,175L1531.8,175z"/>
	<path class="st0" d="M1695.1,108.3h49.6l25.3,81.6l23.5-81.6h46.3l-48.7,131.1c-5.5,14.9-11.2,25-17,30.3
		c-8.2,7.4-20.6,11.1-37.3,11.1c-6.8,0-17.2-0.9-31.4-2.8l-3.7-32.8c6.8,2.2,14.3,3.2,22.6,3.2c5.5,0,10-1.3,13.4-3.8
		s6.3-7.1,8.7-13.7L1695.1,108.3L1695.1,108.3z"/>
	<path class="st0" d="M1844.8,196.9l46.7-4.4c1.9,5.5,4.6,9.5,8.1,11.9s8.1,3.6,13.9,3.6c6.3,0,11.2-1.3,14.7-4c2.7-2,4-4.5,4-7.5
		c0-3.4-1.8-6-5.3-7.8c-2.5-1.3-9.3-2.9-20.2-4.8c-16.3-2.8-27.7-5.5-34-7.9c-6.4-2.4-11.7-6.5-16.1-12.3
		c-4.4-5.8-6.5-12.3-6.5-19.7c0-8.1,2.4-15,7-20.9c4.7-5.8,11.2-10.2,19.4-13.1s19.3-4.3,33.1-4.3c14.6,0,25.4,1.1,32.4,3.3
		c7,2.2,12.8,5.7,17.4,10.4c4.7,4.7,8.5,11,11.6,19.1l-44.6,4.4c-1.2-3.9-3.1-6.8-5.8-8.7c-3.7-2.5-8.2-3.7-13.4-3.7
		c-5.3,0-9.2,0.9-11.6,2.8c-2.4,1.9-3.6,4.2-3.6,6.9c0,3,1.5,5.3,4.6,6.8s9.8,2.9,20.1,4.2c15.6,1.8,27.3,4.2,34.9,7.4
		c7.6,3.2,13.5,7.6,17.5,13.5c4,5.8,6.1,12.3,6.1,19.3c0,7.1-2.1,14-6.4,20.7c-4.3,6.7-11,12-20.2,16s-21.7,5.9-37.6,5.9
		c-22.4,0-38.4-3.2-47.9-9.6C1853.6,217.8,1847.5,208.7,1844.8,196.9L1844.8,196.9z"/>
	<path class="st0" d="M2054.3,61.7v46.7h25.9v34.4h-25.9v43.4c0,5.2,0.5,8.7,1.5,10.4c1.5,2.6,4.2,3.9,8.1,3.9c3.5,0,8.3-1,14.6-3
		l3.5,32.4c-11.6,2.5-22.5,3.8-32.6,3.8c-11.7,0-20.3-1.5-25.9-4.5c-5.5-3-9.6-7.6-12.3-13.7s-4-16-4-29.7v-43.1h-17.3v-34.4h17.3
		V85.8L2054.3,61.7L2054.3,61.7z"/>
	<path class="st0" d="M2238.7,181.3h-94.2c0.9,7.5,2.9,13.2,6.1,16.9c4.5,5.3,10.5,8,17.8,8c4.6,0,9-1.2,13.2-3.5
		c2.5-1.5,5.3-4,8.2-7.7l46.3,4.3c-7.1,12.3-15.6,21.2-25.6,26.5s-24.4,8-43.1,8c-16.2,0-29-2.3-38.3-6.9s-17-11.9-23.2-21.8
		c-6.1-10-9.2-21.7-9.2-35.2c0-19.2,6.1-34.7,18.4-46.5c12.3-11.9,29.2-17.8,50.9-17.8c17.6,0,31.4,2.7,41.6,8
		c10.2,5.3,17.9,13,23.2,23.1s8,23.2,8,39.4L2238.7,181.3L2238.7,181.3z M2190.9,158.8c-0.9-9.1-3.4-15.6-7.3-19.5
		c-4-3.9-9.2-5.9-15.7-5.9c-7.5,0-13.4,3-17.9,8.9c-2.8,3.7-4.7,9.2-5.4,16.5H2190.9L2190.9,158.8z"/>
	<path class="st0" d="M2260.6,108.3h43.9v17.9c6.3-7.5,12.7-12.8,19.1-15.9c6.4-3.2,14.2-4.7,23.3-4.7c9.8,0,17.5,1.7,23.2,5.2
		s10.4,8.6,14,15.5c7.4-8,14.1-13.5,20.2-16.3c6.1-2.9,13.6-4.3,22.5-4.3c13.1,0,23.4,3.9,30.8,11.7c7.4,7.8,11.1,20,11.1,36.7v77
		h-47.1v-69.9c0-5.5-1.1-9.7-3.2-12.4c-3.1-4.2-7.1-6.4-11.7-6.4c-5.5,0-10,2-13.3,6c-3.4,4-5.1,10.4-5.1,19.3V231h-47.1v-67.6
		c0-5.4-0.3-9-0.9-11c-1-3.1-2.7-5.6-5.2-7.4c-2.5-1.9-5.4-2.8-8.7-2.8c-5.4,0-9.9,2-13.3,6.1c-3.5,4.1-5.2,10.8-5.2,20.1V231h-47.1
		V108.3H2260.6z"/>
	<path class="st0" d="M2488.5,196.9l46.7-4.4c1.9,5.5,4.6,9.5,8.1,11.9s8.1,3.6,13.9,3.6c6.3,0,11.2-1.3,14.7-4c2.7-2,4-4.5,4-7.5
		c0-3.4-1.8-6-5.3-7.8c-2.5-1.3-9.3-2.9-20.2-4.8c-16.3-2.8-27.7-5.5-34-7.9c-6.4-2.4-11.7-6.5-16.1-12.3
		c-4.4-5.8-6.5-12.3-6.5-19.7c0-8.1,2.3-15,7-20.9c4.7-5.8,11.2-10.2,19.4-13.1s19.3-4.3,33.1-4.3c14.6,0,25.4,1.1,32.4,3.3
		c7,2.2,12.8,5.7,17.4,10.4c4.7,4.7,8.5,11,11.6,19.1l-44.6,4.4c-1.2-3.9-3.1-6.8-5.8-8.7c-3.7-2.5-8.2-3.7-13.4-3.7
		c-5.3,0-9.2,0.9-11.6,2.8c-2.4,1.9-3.6,4.2-3.6,6.9c0,3,1.5,5.3,4.6,6.8s9.8,2.9,20.1,4.2c15.6,1.8,27.3,4.2,34.9,7.4
		c7.6,3.2,13.5,7.6,17.5,13.5c4,5.8,6.1,12.3,6.1,19.3c0,7.1-2.1,14-6.4,20.7c-4.3,6.7-11,12-20.2,16s-21.7,5.9-37.6,5.9
		c-22.4,0-38.4-3.2-47.9-9.6C2497.3,217.8,2491.2,208.7,2488.5,196.9L2488.5,196.9z"/>
	<path class="st0" d="M145,0C65,0,0,64.9,0,145c0,80,64.9,145,145,145c80,0,145-64.9,145-145C289.9,64.9,225,0,145,0L145,0L145,0z
		 M229.5,90.2l-99,55.7l21,12.3l77.1-44.3v50l-50.4,28l50.4,9.2v51.7L9,129.7l30.7-17.5l43.4,7.9l146.4-82.8V90.2L229.5,90.2z"/>
	<polygon class="st0" points="389.4,61.5 441.6,61.5 441.6,120.7 498.8,120.7 498.8,61.5 551.2,61.5 551.2,230.6 498.8,230.6 
		498.8,162.2 441.6,162.2 441.6,230.6 389.4,230.6 	"/>
	<path class="st0" d="M625.6,147.8l-44.9-4.7c1.7-7.8,4.1-14,7.3-18.5c3.2-4.5,7.8-8.4,13.8-11.7c4.3-2.4,10.2-4.3,17.8-5.6
		c7.5-1.3,15.7-2,24.5-2c14.1,0,25.4,0.8,33.9,2.4s15.7,4.9,21.3,9.9c4,3.5,7.2,8.3,9.5,14.7c2.3,6.4,3.4,12.4,3.4,18.2v54.1
		c0,5.7,0.4,10.3,1.1,13.5c0.8,3.3,2.3,7.4,4.8,12.5H674c-1.8-3.2-2.9-5.6-3.5-7.2c-0.6-1.7-1.1-4.3-1.6-7.8
		c-6.1,5.9-12.3,10.2-18.3,12.7c-8.3,3.4-18,5.1-28.9,5.1c-14.6,0-25.7-3.4-33.3-10.2c-7.6-6.7-11.3-15.1-11.3-25
		c0-9.3,2.7-17,8.2-23s15.5-10.5,30.2-13.4c17.6-3.5,29.1-6,34.3-7.4c5.2-1.4,10.8-3.3,16.6-5.6c0-5.8-1.2-9.8-3.5-12.1
		c-2.4-2.3-6.6-3.5-12.6-3.5c-7.7,0-13.4,1.3-17.3,3.7C629.9,138.9,627.5,142.5,625.6,147.8L625.6,147.8L625.6,147.8z M666.4,172.5
		c-6.5,2.3-13.2,4.4-20.2,6.1c-9.5,2.5-15.6,5-18.1,7.5c-2.6,2.6-3.9,5.4-3.9,8.7c0,3.7,1.3,6.7,3.9,9.1c2.6,2.3,6.4,3.5,11.4,3.5
		c5.2,0,10.1-1.3,14.6-3.8c4.5-2.6,7.7-5.7,9.6-9.3c1.9-3.7,2.8-8.4,2.8-14.3L666.4,172.5L666.4,172.5L666.4,172.5z"/>
	<path class="st0" d="M740.4,61.5h47v62.3c6.4-6.6,12.7-11.3,19-14.2c6.3-2.9,13.8-4.3,22.4-4.3c12.8,0,22.8,3.9,30.2,11.7
		c7.3,7.8,11,19.7,11,35.8v77.9h-47.2v-67.4c0-7.7-1.4-13.1-4.2-16.3c-2.9-3.2-6.9-4.8-12-4.8c-5.7,0-10.3,2.2-13.8,6.5
		c-3.6,4.3-5.3,12-5.3,23.2v58.8h-47L740.4,61.5L740.4,61.5z"/>
	<path class="st0" d="M898,108.1h43.7V128c6.5-8.2,13.2-13.9,19.9-17.4c6.7-3.5,14.8-5.3,24.5-5.3c13,0,23.2,3.9,30.5,11.6
		s11,19.7,11,35.8v77.9h-47.2v-67.4c0-7.7-1.4-13.1-4.3-16.3c-2.9-3.2-6.9-4.8-12-4.8c-5.7,0-10.3,2.2-13.8,6.5s-5.3,12-5.3,23.2
		v58.8h-47L898,108.1L898,108.1z"/>
	<path class="st0" d="M1215.9,202.7h-59.5l-8.2,27.9h-53.4l63.6-169.1h57l63.6,169.1h-54.7L1215.9,202.7L1215.9,202.7z M1205,166.1
		l-18.7-60.8l-18.6,60.8H1205L1205,166.1z"/>
	<path class="st0" d="M1294.2,61.5h47v32h-47V61.5L1294.2,61.5z M1294.2,108.1h47v122.5h-47V108.1L1294.2,108.1z"/>
	<path class="st0" d="M1371.7,108.1h43.9v20c4.3-8.7,8.6-14.6,13.1-17.9s10-4.9,16.7-4.9c6.9,0,14.5,2.2,22.7,6.5l-14.5,33.5
		c-5.5-2.3-9.9-3.5-13.2-3.5c-6.1,0-10.9,2.6-14.3,7.6c-4.8,7.2-7.3,20.6-7.3,40.2v41.1h-47.2V108.1H1371.7z"/>
</g>
</svg>
