<?xml version="1.0" encoding="utf-8"?>
<!-- Generator: Adobe Illustrator 22.1.0, SVG Export Plug-In . SVG Version: 6.00 Build 0)  -->
<svg version="1.1"
	 id="svg2" xmlns:cc="http://creativecommons.org/ns#" xmlns:dc="http://purl.org/dc/elements/1.1/" xmlns:rdf="http://www.w3.org/1999/02/22-rdf-syntax-ns#" xmlns:svg="http://www.w3.org/2000/svg"
	 xmlns="http://www.w3.org/2000/svg" xmlns:xlink="http://www.w3.org/1999/xlink" x="0px" y="0px" width="134.905px"
	 height="116.667px" viewBox="0 0 134.905 116.667" style="enable-background:new 0 0 134.905 116.667;" xml:space="preserve">
<style type="text/css">
	.st0{fill:#413691;}
	.st1{fill:#FFFFFF;}
	.st2{fill:url(#path656_1_);}
	.st3{fill:#EF3138;}
</style>
<g>
	<g id="g564" transform="translate(258.4037,77.5896)">
		<path id="path566" class="st0" d="M-153.882,37.548c0-0.112-0.065-0.171-0.207-0.171h-0.265c-0.016,0-0.023,0.007-0.023,0.024v0.3
			c0,0.012,0.007,0.024,0.023,0.024h0.265C-153.947,37.726-153.882,37.66-153.882,37.548 M-154.559,38.426
			c-0.024,0-0.041-0.011-0.041-0.04v-1.167c0-0.029,0.017-0.041,0.041-0.041h0.471c0.272,0,0.431,0.136,0.431,0.371
			c0,0.171-0.095,0.295-0.247,0.348l0.253,0.489c0.011,0.023,0,0.04-0.024,0.04h-0.165c-0.024,0-0.041-0.011-0.053-0.04l-0.236-0.46
			h-0.224c-0.016,0-0.023,0.005-0.023,0.024v0.436c0,0.029-0.017,0.04-0.041,0.04H-154.559z M-153.239,37.808
			c0-0.537-0.395-0.932-0.925-0.932c-0.531,0-0.925,0.395-0.925,0.932c0,0.536,0.395,0.936,0.925,0.936
			C-153.634,38.744-153.239,38.344-153.239,37.808 M-155.29,37.808c0-0.637,0.488-1.125,1.125-1.125
			c0.643,0,1.125,0.488,1.125,1.125c0,0.641-0.483,1.131-1.125,1.131C-154.802,38.939-155.29,38.45-155.29,37.808"/>
	</g>
	<g id="g568" transform="translate(192.2154,102.6696)">
		<path id="path570" class="st0" d="M-175.945-20.972v17.225c0,0.763,0,1.853-1.036,1.853h-2.888v-7.795h-8.423v5.941
			c0,0.763,0.055,1.853-0.981,1.853h-2.943v-17.225c0-0.763,0-1.853,1.036-1.853h2.888v8.204h8.423v-6.351
			c0-0.736-0.056-1.853,0.98-1.853H-175.945z"/>
	</g>
	<g id="g572" transform="translate(202.8442,94.5954)">
		<path id="path574" class="st0" d="M-172.402-2.132l-2.699-8.013l-3.816,10.603l0.164,0.027c0.517-0.953,1.772-2.616,3.979-2.616
			H-172.402z M-166.16,6.181h-3.435l-1.799-5.316h-7.495l-1.309,3.925c-0.216,0.627-0.517,1.391-1.497,1.391h-2.863l6.132-17.499
			c0.219-0.599,0.519-1.58,1.553-1.58h4.661l6.487,18.451C-165.588,5.936-165.779,6.181-166.16,6.181"/>
	</g>
	<g id="g576" transform="translate(227.6999,102.6696)">
		<path id="path578" class="st0" d="M-164.117-20.972l-6.268,17.688c-0.136,0.409-0.383,1.391-1.364,1.391h-2.397l-3.571-10.167
			l-3.189,8.776c-0.136,0.409-0.381,1.391-1.363,1.391h-2.616l-6.487-18.452c-0.136-0.381,0.055-0.627,0.436-0.627h3.461
			l4.688,14.227l3.379-10.111l-1.225-3.489c-0.137-0.381,0.055-0.627,0.436-0.627h3.488l4.333,13.845l3.788-12.456
			c0.192-0.627,0.519-1.389,1.473-1.389H-164.117z"/>
	</g>
	<g id="g580" transform="translate(235.8957,94.5954)">
		<path id="path582" class="st0" d="M-161.385-2.132l-2.697-8.013l-3.816,10.603l0.163,0.027c0.519-0.953,1.772-2.616,3.98-2.616
			H-161.385z M-155.143,6.181h-3.435l-1.799-5.316h-7.495l-1.308,3.925c-0.217,0.627-0.517,1.391-1.499,1.391h-2.863l6.133-17.499
			c0.217-0.599,0.517-1.58,1.553-1.58h4.66l6.487,18.451C-154.571,5.936-154.762,6.181-155.143,6.181"/>
	</g>
	<g id="g584" transform="translate(242.5792,101.2797)">
		<path id="path586" class="st0" d="M-159.157-17.729c0-0.763,0-1.853,0.927-1.853h2.999v14.701v2.524c0,0.763,0,1.853-0.928,1.853
			h-2.997V-17.729z"/>
	</g>
	<g id="g588" transform="translate(248.548,101.2797)">
		<path id="path590" class="st0" d="M-157.167-17.729c0-0.763,0-1.853,0.927-1.853h2.997v14.389v2.836c0,0.763,0,1.853-0.927,1.853
			h-2.997V-17.729z"/>
	</g>
	<g id="g592" transform="translate(262.1203,94.5954)">
		<path id="path594" class="st0" d="M-152.643-2.132l-2.697-8.013l-3.816,10.603l0.163,0.027c0.519-0.953,1.772-2.616,3.979-2.616
			H-152.643z M-146.402,6.181h-3.435l-1.799-5.316h-7.495l-1.308,3.925c-0.219,0.627-0.519,1.391-1.499,1.391h-2.863l6.132-17.499
			c0.219-0.599,0.519-1.58,1.555-1.58h4.66l6.487,18.451C-145.828,5.936-146.02,6.181-146.402,6.181"/>
	</g>
	<g id="g596" transform="translate(281.1909,102.6696)">
		<path id="path598" class="st0" d="M-146.286-20.972v17.225c0,0.763,0,1.853-0.927,1.853h-2.452l-9.323-12.619v10.765
			c0,0.763,0,1.853-1.008,1.853h-2.807v-17.225c0-0.763,0-1.853,0.927-1.853h2.561l9.212,12.864v-11.011
			c0-0.763-0.163-1.853,0.9-1.853H-146.286z"/>
	</g>
	<g id="g600" transform="translate(209.0793,79.0833)">
		<path id="path602" class="st0" d="M-170.323,34.063l-1.501-4.335h-0.028l-1.515,4.335H-170.323z M-172.455,28.031
			c0.027-0.085,0.069-0.14,0.168-0.14h0.912c0.099,0,0.153,0.055,0.183,0.14l3.269,9.259c0.027,0.084-0.015,0.14-0.099,0.14h-0.983
			c-0.099,0-0.155-0.041-0.183-0.14l-0.729-2.076h-3.857l-0.731,2.076c-0.041,0.099-0.097,0.14-0.181,0.14h-0.983
			c-0.084,0-0.127-0.056-0.099-0.14L-172.455,28.031z"/>
	</g>
	<g id="g604" transform="translate(213.1209,83.6074)">
		<path id="path606" class="st0" d="M-168.976,23.507c0-0.084,0.056-0.14,0.14-0.14h0.968c0.084,0,0.14,0.056,0.14,0.14v7.333v1.925
			c0,0.085-0.056,0.141-0.14,0.141h-0.968c-0.084,0-0.14-0.056-0.14-0.141V23.507z"/>
	</g>
	<g id="g608" transform="translate(221.2968,81.6502)">
		<path id="path610" class="st0" d="M-166.251,28.074c0-0.996-0.659-1.585-1.768-1.585h-2.231c-0.056,0-0.084,0.028-0.084,0.084
			v3.003c0,0.056,0.028,0.084,0.084,0.084h2.231C-166.91,29.659-166.251,29.07-166.251,28.074 M-166.055,34.863
			c-0.097,0-0.14-0.041-0.183-0.139l-1.908-3.9h-2.104c-0.056,0-0.084,0.027-0.084,0.083v3.817c0,0.083-0.056,0.139-0.14,0.139
			h-0.968c-0.084,0-0.14-0.056-0.14-0.139v-9.26c0-0.084,0.056-0.14,0.14-0.14h3.451c1.781,0,2.988,1.093,2.988,2.749
			c0,1.291-0.728,2.231-1.879,2.595l2.033,4.027c0.057,0.084,0.015,0.168-0.084,0.168H-166.055z"/>
	</g>
	<g id="g612" transform="translate(225.0544,83.6074)">
		<path id="path614" class="st0" d="M-164.998,23.507c0-0.084,0.055-0.14,0.14-0.14h0.968c0.084,0,0.14,0.056,0.14,0.14v8.151
			c0,0.056,0.028,0.085,0.084,0.085h4.545c0.085,0,0.141,0.055,0.141,0.14v0.883c0,0.085-0.056,0.141-0.141,0.141h-5.737
			c-0.085,0-0.14-0.056-0.14-0.141V23.507z"/>
	</g>
	<g id="g616" transform="translate(231.6629,83.6074)">
		<path id="path618" class="st0" d="M-162.796,23.507c0-0.084,0.056-0.14,0.14-0.14h0.968c0.084,0,0.14,0.056,0.14,0.14v6.771v2.488
			c0,0.085-0.056,0.141-0.14,0.141h-0.968c-0.084,0-0.14-0.056-0.14-0.141V23.507z"/>
	</g>
	<g id="g620" transform="translate(235.8408,83.6074)">
		<path id="path622" class="st0" d="M-161.403,23.507c0-0.084,0.056-0.14,0.14-0.14h0.897c0.113,0,0.183,0.029,0.24,0.14l4.32,7.156
			h0.056v-7.156c0-0.084,0.056-0.14,0.14-0.14h0.884c0.084,0,0.141,0.056,0.141,0.14v9.259c0,0.085-0.057,0.141-0.141,0.141h-0.897
			c-0.099,0-0.183-0.029-0.239-0.141l-4.335-7.125h-0.043v7.125c0,0.085-0.056,0.141-0.14,0.141h-0.884
			c-0.084,0-0.14-0.056-0.14-0.141V23.507z"/>
	</g>
	<g id="g624" transform="translate(244.1963,83.6074)">
		<path id="path626" class="st0" d="M-158.618,23.507c0-0.084,0.056-0.14,0.14-0.14h5.737c0.085,0,0.141,0.056,0.141,0.14v0.884
			c0,0.084-0.056,0.14-0.141,0.14h-4.545c-0.055,0-0.084,0.028-0.084,0.084v2.805c0,0.057,0.029,0.084,0.084,0.084h3.859
			c0.085,0,0.14,0.057,0.14,0.141v0.884c0,0.084-0.055,0.14-0.14,0.14h-3.859c-0.055,0-0.084,0.028-0.084,0.084v2.904
			c0,0.056,0.029,0.085,0.084,0.085h4.545c0.085,0,0.141,0.055,0.141,0.14v0.883c0,0.085-0.056,0.141-0.141,0.141h-5.737
			c-0.084,0-0.14-0.056-0.14-0.141V23.507z"/>
	</g>
	<g id="g628" transform="translate(251.0892,77.3365)">
		<path id="path630" class="st0" d="M-156.32,38.139c-0.057-0.056-0.071-0.14-0.013-0.211l0.616-0.729
			c0.057-0.069,0.127-0.069,0.196-0.013c0.619,0.491,1.572,0.981,2.667,0.981c1.319,0,2.104-0.659,2.104-1.627
			c0-0.813-0.463-1.361-1.992-1.557l-0.477-0.071c-1.852-0.252-2.805-1.136-2.805-2.637c0-1.697,1.22-2.792,3.115-2.792
			c1.123,0,2.203,0.365,2.904,0.884c0.071,0.056,0.084,0.127,0.028,0.197l-0.477,0.771c-0.056,0.071-0.127,0.071-0.196,0.028
			c-0.772-0.477-1.487-0.716-2.301-0.716c-1.164,0-1.809,0.631-1.809,1.544c0,0.8,0.533,1.332,2.005,1.529l0.463,0.069
			c1.867,0.253,2.807,1.109,2.807,2.667c0,1.669-1.179,2.875-3.479,2.875C-154.315,39.331-155.619,38.784-156.32,38.139"/>
	</g>
	<g id="g632" transform="translate(236.4355,142.9971)">
		<path id="path634" class="st1" d="M-161.205-115.069c-1.241,3.889-1.677,7.56-1.269,11.863c0,0.005,0,0.012,0.001,0.019
			c0.001,0.009,0.003,0.021,0.003,0.032c0.248,2.577,0.796,5.38,1.655,8.593l0,0c0.695,2.607,0.92,5.201,0.828,7.688
			c-0.6,6.388-4.481,11.192-9.143,13.883c-0.003-0.001-0.004-0.003-0.007-0.004c0.003,0.001,0.004,0.003,0.007,0.003l0,0
			c0.336-2.872,0.232-6.3-0.525-10.488c-0.988-5.464-3.048-7.271-3.34-7.636c-0.019-0.023-0.039-0.043-0.029-0.068
			c0.005-0.019,0.06-0.043,0.077-0.055c1.72-1.076,3.224-2.377,3.929-2.977c0.541-0.46,0.328-0.667-0.212-0.419
			c-1.443,0.661-3.852,1.505-6.904,1.884c-2.683,0.331-5.863,0.291-9.323-0.379c0,0-2.424-0.359-2.067-2.825
			c0.099-0.691,0.447-1.399,0.724-2.085c0.088-0.217,0.32-0.885,0.195-1.427c-0.032-0.136-0.204-0.385-0.304-0.54
			c-0.179-0.273-0.244-0.651-0.059-1.091c0.159-0.373,0.796-0.92,1.693-1.007c1.021-0.096,2.283,0.052,3.248-0.119
			c1.407-0.251,2.247-1.203,2.08-1.515c-0.111-0.208-1.364,0.044-1.791,0.129c-0.628,0.125-1.769-0.381-2.367-0.576
			c-0.928-0.303-1.411-0.544-2.213-0.201c-0.501,0.215-0.896,1.224-1.036,0.755c-0.065-0.217,0.059-0.455,0.232-0.711
			c0.163-0.241,0.489-0.696,0.535-0.953c0.051-0.292,0.12-0.705-0.688-1.279c-0.573-0.404-0.967-0.733-1.209-0.98
			c-0.775-0.783-0.909-1.592,0.576-2.855c1.061-0.904,3.404-3.323,4.116-4.8c0.113-0.232,0.679-1.156,0.057-2.081
			c-0.479-0.712-0.565-0.849-0.691-1.092c-0.344-0.664-0.097-1.253,0.468-2.139c0.276-0.432,0.492-0.956,1.083-2.804
			c0.656-2.055,1.716-3.875,3.163-5.425l-0.004,0.003l0.005-0.004c0.109-0.093,1.757-1.919,3.621-2.467
			c0.459,0.748,1.409,1.769,3.319,2.745c1.949,0.997,4.096,1.552,4.096,1.552s2.677,0.768,5.389,1.74
			c2.164,0.773,4.419,3.58,4.419,4.16C-158.866-119.824-160.042-118.707-161.205-115.069"/>
	</g>
	<g id="g636" transform="translate(-493.10196,338.80726)">
		<g id="g638">
			<g id="g644">
				<g id="g646">
					
						<linearGradient id="path656_1_" gradientUnits="userSpaceOnUse" x1="-114.8763" y1="89.5062" x2="-113.8763" y2="89.5062" gradientTransform="matrix(-1.7097 42.5667 -42.5667 -1.7097 4165.3516 4711.457)">
						<stop  offset="0" style="stop-color:#D2068A"/>
						<stop  offset="0.737" style="stop-color:#413691"/>
						<stop  offset="1" style="stop-color:#413691"/>
					</linearGradient>
					<path id="path656" class="st2" d="M529.523-307.591c0,15.401,11.029,28.197,25.537,30.752l0,0
						c-0.117,1.119-0.257,2.161-0.427,2.996l0,0c-0.996,4.929-4.372,9.461-6.199,10.536l0,0c4.883-0.423,8.764-1.883,11.076-4.172
						l0,0h-0.005c-0.163,0.001-1.691-0.017-1.825-0.02l0,0c0.923-0.355,1.835-0.789,2.719-1.299l0,0
						c0.001,0,0.001-0.001,0.001-0.001l0,0c0-0.003,0.001-0.005,0.001-0.008l0,0c0.001,0.001,0.004,0.003,0.005,0.004l0,0
						c0.336-2.872,0.232-6.301-0.525-10.489l0,0c-0.987-5.463-3.047-7.271-3.34-7.635l0,0c-0.019-0.024-0.039-0.044-0.029-0.068l0,0
						c0.007-0.02,0.06-0.043,0.079-0.055l0,0c1.72-1.077,3.224-2.377,3.929-2.977l0,0c0.54-0.46,0.327-0.667-0.213-0.419l0,0
						c-1.443,0.661-3.851,1.505-6.904,1.884l0,0c-2.683,0.331-5.863,0.291-9.323-0.38l0,0c0,0-2.423-0.357-2.065-2.824l0,0
						c0.097-0.691,0.445-1.399,0.723-2.085l0,0c0.088-0.216,0.32-0.885,0.195-1.427l0,0c-0.031-0.136-0.203-0.385-0.304-0.54l0,0
						c-0.179-0.273-0.243-0.651-0.057-1.092l0,0c0.157-0.372,0.795-0.919,1.693-1.005l0,0c0.443-0.041,0.932-0.039,1.423-0.033l0,0
						c0.637,0.005,1.279,0.011,1.825-0.087l0,0c1.405-0.248,2.245-1.201,2.08-1.513l0,0c-0.112-0.208-1.365,0.044-1.792,0.129l0,0
						c-0.627,0.125-1.768-0.383-2.365-0.576l0,0c-0.928-0.303-1.411-0.544-2.215-0.201l0,0c-0.5,0.215-0.895,1.224-1.036,0.755l0,0
						c-0.064-0.217,0.059-0.455,0.232-0.711l0,0c0.163-0.241,0.489-0.696,0.536-0.955l0,0c0.049-0.291,0.12-0.704-0.688-1.276l0,0
						c-0.573-0.407-0.968-0.735-1.211-0.983l0,0c-0.775-0.78-0.909-1.589,0.577-2.855l0,0c1.06-0.903,3.403-3.321,4.116-4.799l0,0
						c0.112-0.232,0.679-1.156,0.057-2.081l0,0c-0.479-0.712-0.565-0.849-0.691-1.092l0,0c-0.344-0.664-0.099-1.255,0.467-2.139l0,0
						c0.276-0.432,0.492-0.956,1.083-2.803l0,0c0.656-2.056,1.716-3.876,3.164-5.425l0,0h-0.004c0.1-0.301,0.272-2.679,1.657-4.895
						l0,0c0.451-0.863,1.055-1.776,1.879-2.665l0,0c0.555-0.596,1.427-1.288,2.576-1.955l0,0c1.149-0.667,2.572-1.308,4.228-1.801
						l0,0c1.988-0.593,4.308-0.976,6.885-0.937l0,0c1.925,0.028,3.759,0.18,5.939,0.764l0,0c0,0,0.003,0.001,0.004,0.001l0,0
						c0.009,0.003,0.101,0.027,0.26,0.073l0,0c-3.915-1.817-8.268-2.833-12.857-2.833l0,0
						C543.344-338.807,529.523-324.833,529.523-307.591 M541.845-303.746c-0.04,0.103,0.056,0.155,0.175,0.212l0,0
						c0.571,0.265,0.835,0.401,1.86,1.016l0,0c1.199,0.719,1.72,0.124,1.976-0.335l0,0c0.072-0.124,0.179-0.633,0.061-0.813l0,0
						c-0.117-0.18-0.337-0.064-0.569,0.163l0,0c-0.261,0.255-0.899,0.117-1.112,0.095l0,0c-0.211-0.024-1.189-0.271-1.827-0.404l0,0
						c-0.119-0.025-0.216-0.035-0.296-0.035l0,0C541.951-303.847,541.867-303.803,541.845-303.746"/>
				</g>
			</g>
		</g>
	</g>
	<g id="g660">
		<g id="g666" transform="translate(227.0925,148.4672)">
			<path id="path668" class="st0" d="M-164.319-127.833c-0.155-0.047-4.244-0.944-5.6-0.855c-1.355,0.087-2.523,0.877-3.236,1.692
				c-0.387,0.441-0.561,0.888-0.628,1.265c-0.06,0.655,0.409,0.964,0.963,0.788c0.404-0.129,0.7-0.417,1.117-1.037
				c0.256-0.381,0.411-0.865,0.805-1.116c0.652-0.412,1.772-0.516,3.601-0.468c1.399,0.037,2.528,0.107,2.804,0.119
				C-163.983-127.422-164.099-127.765-164.319-127.833"/>
		</g>
		<g id="g670" transform="translate(225.3193,145.6186)">
			<path id="path672" class="st0" d="M-164.91-121.186c-0.764-0.452-1.792-0.427-1.993-0.464c-0.201-0.037-0.24-0.241,0.063-0.388
				c0.413-0.201,1.188-0.033,1.216-0.164c0.025-0.113-0.151-0.403-0.74-0.627c-0.317-0.123-0.921-0.204-1.359-0.159
				c-1.256,0.132-1.925,0.913-2.067,1.057c-0.141,0.143-0.355,0.359-0.409,0.689c-0.073,0.437,0.207,0.775,0.473,1.208
				c0.136,0.219,0.256,0.379,0.3,0.544c0.063,0.236,0.021,0.332-0.175,0.485c-0.22,0.172-0.091,0.475,0.352,0.352
				c0.5-0.141,0.773-0.283,1.151-0.601c0.539-0.452,0.529-0.743,0.905-1.119c0.376-0.376,1.56-0.373,2.169-0.288
				C-164.307-120.559-164.145-120.735-164.91-121.186"/>
		</g>
		<g id="g674" transform="translate(253.8747,141.247)">
			<path id="path676" class="st0" d="M-155.392-110.986c-0.013-1.389-0.404-4.163-0.467-4.771c-0.169-1.68-0.572-4.017-1.863-7.247
				c-1.408-3.519-2.547-6.001-5.992-9.4c-4.059-4.003-8.841-5.661-9.996-6.005c-0.171-0.052-0.267-0.076-0.277-0.079l-0.003-0.001
				c-2.181-0.584-4.015-0.736-5.939-0.764c-6.875-0.103-11.919,2.785-13.689,4.693c-0.825,0.889-1.428,1.803-1.879,2.665
				c-1.385,2.216-1.557,4.593-1.657,4.896l0.004-0.004c0.108-0.093,1.757-1.919,3.621-2.467c0.459,0.748,1.409,1.769,3.319,2.745
				c1.949,0.997,4.095,1.551,4.095,1.551s2.679,0.769,5.391,1.74c2.164,0.775,4.419,3.581,4.419,4.16
				c0,1.197-1.176,2.315-2.339,5.953c-1.243,3.889-1.677,7.56-1.271,11.863c0.001,0.005,0.001,0.012,0.003,0.017
				c0.001,0.011,0.001,0.023,0.003,0.033c0.248,2.576,0.796,5.38,1.653,8.593h0.001c0.695,2.607,0.92,5.201,0.828,7.688
				c-0.601,6.388-4.481,11.192-9.143,13.883c-0.003-0.001-0.004-0.004-0.007-0.005c0,0.003,0,0.005,0,0.008
				c-0.885,0.509-1.797,0.945-2.721,1.3c0.135,0.004,1.664,0.021,1.825,0.019c3.915-0.045,9.455-0.801,14.2-5.777
				c1.639-1.717,2.923-3.513,3.733-5.207c0.332-0.708,1.744-3.221,2.543-8.211c0.105-0.667,0.457-2.811,0.457-2.811
				s0.221,1.527,0.249,2.889c0.036,1.869,0.105,4.219-1.005,7.781c0.377-0.083,2.227-1.46,4.417-4.425
				c0.801-1.083,1.539-2.213,2.213-3.38C-157.517-93.987-155.282-99.858-155.392-110.986"/>
		</g>
		<g id="g678" transform="translate(241.1352,149.4268)">
			<path id="path680" class="st3" d="M-159.638-130.072c-0.021,0.212,0.052,0.291,0.247,0.135c0.852-0.687,2.267-1.737,4.193-2.083
				c2.304-0.412,3.609-1.537,4.211-2.811c0.359-0.765,0.651-2.141,1.772-2.965c0.357-0.263-0.007-0.356-0.304-0.301
				c-0.28,0.051-1.803,0.461-2.793,1.547c-0.66-0.707-0.612-1.676-0.519-2.237c0.043-0.167-0.088-0.287-0.309-0.105
				c-0.755,0.608-1.259,1.413-1.423,1.995c0,0-0.601-0.432-0.292-1.519c0.052-0.181-0.073-0.113-0.139-0.068
				c-1.084,0.792-0.991,1.975-1,2.135c0,0-1.095-0.607-2.771-0.837c-0.291-1.116-2.079-1.409-2.372-0.265
				c-0.265,1.037,1.46,1.827,2.193,0.965c0,0,2.363,0.248,4.461,2.348c0.213,0.213,0.283,0.384,0.151,0.507
				c-0.097,0.091-0.4-0.095-0.769-0.349c-0.416-0.289-3.275-2.131-5.747-0.865c-0.125,0.064-0.135,0.172-0.017,0.199
				c0.467,0.136,1.505,0.495,1.768,1.175c-0.66,0.172-1.717,0.575-2.476,2.137c-0.197,0.405,0.059,0.461,0.273,0.296
				c0.257-0.195,1.8-1.039,2.377-0.979C-158.922-132.02-159.445-131.254-159.638-130.072 M-139.926-141.849
				c-0.097,0.791,0.148,3.016,0.756,5.088c0.639,2.188-0.496,4.12-2.463,5.255c-0.616-0.955-1.857-1.432-2.961-1.472
				c-0.647-0.024-0.469,0.239-0.151,0.372c4.577,1.917,2.963,7.253,2.372,8.387c-0.604,1.157-0.46,2.685-0.46,2.685
				c-1.423-0.416-2.728-0.141-3.876,0.04c-2.273,0.361-3.788-0.043-4.971-0.584c-0.94-0.431-2.419-1.409-2.644-3.279
				c-0.043-0.341-0.263-0.577-0.397,0.056c-0.229,1.081-0.069,2.401,0.705,3.232c-0.847,4.167-9.021,3.863-9.021,3.863
				c-0.543-1.799-4.259-2.345-5.099-4.96c-0.399-1.24-0.072-2.535-0.072-2.535c2.137,0.515,3.375-0.515,4.068-1.377
				c0.404-0.504,0.081-0.527-0.207-0.343c-2.708,1.711-5.227,0.001-5.753-2.411c-0.703-2.639-3.275-3.52-3.275-3.52
				c1.873-1.18,1.345-3.219,2.321-4.944c2.569-4.547,6.224-3.185,6.224-3.185c0.353,1.079,1.431,1.859,2.489,2.179
				c0.617,0.187,0.52-0.12,0.24-0.321c-2.596-1.869-1.955-4.847,0.089-6.236c3.565-2.428,4.176-3.479,4.176-3.479
				c0.655,0.496,2.391,0.927,4.219,1.088c4.093,0.364,5.057,2.496,5.14,3.309c-0.483,0.255-1.307,1.021-1.691,2.245
				c-0.192,0.616,0.117,0.52,0.321,0.243c1.593-2.183,3.556-1.772,5.397-0.928C-143.285-142.846-141.599-141.486-139.926-141.849"/>
		</g>
	</g>
</g>
</svg>
