<?xml version="1.0" encoding="utf-8"?>
<!-- Generator: Adobe Illustrator 22.1.0, SVG Export Plug-In . SVG Version: 6.00 Build 0)  -->
<svg version="1.1" id="Слой_1" xmlns="http://www.w3.org/2000/svg" xmlns:xlink="http://www.w3.org/1999/xlink" x="0px" y="0px"
	 width="467.9px" height="79.5px" viewBox="0 0 467.9 79.5" style="enable-background:new 0 0 467.9 79.5;" xml:space="preserve">
<style type="text/css">
	.st0{fill:#D23A3E;}
	.st1{fill:#024A84;}
	.st2{fill:#FA823E;}
</style>
<g>
	<g>
		<path class="st0" d="M342.7,24.7l-3.4,7.5c-0.1,0.3-0.1,0.6,0.2,0.6h3.4c0.2-0.1,0.3-0.3,0.3-0.7l-0.2-7.4
			C343,24.4,342.8,24.4,342.7,24.7z"/>
		<path class="st0" d="M348.8,5.9c-0.2-2.3-2.1-4.2-4.5-4.1c-18.1,0.4-35.8,6.2-50.8,16.4c-1.9,1.4-2.4,4-1.2,6
			c2,3.2,4.1,6.2,6.4,9.1l2.6-10.8c0.3-0.9,0.9-1.5,1.7-1.9c0.9-0.5,2.2-0.6,4-0.6h0.8l-0.5,2.1L313,20h4.5l-0.9,3.6H310
			c-2,0.1-3.5,1.1-3.9,2.9l-1,3.8c-0.1,0.1-0.4,1.5-0.4,1.6c-0.1,0.4,0,1,0.3,1.5s0.8,0.9,1.8,1c0.1,0,0.3,0,0.5,0h6.4l-0.9,3.7
			h-10.2c8.2,9.1,18,16.5,29.1,21.8c2.1,1,4.7,0.1,5.8-1.9c3.4-6.3,6.1-13,8.1-19.8h-2.2l-0.1-2.5c0-0.3-0.2-0.3-0.3-0.3h-4.8
			c-0.3,0-0.4,0.1-0.5,0.3l-1.1,2.4h-6.7l9.2-18.1h9.7C349.2,15.3,349.2,10.6,348.8,5.9z M332.6,23.4h-6.9c-1.9,0-2.3,2-1.1,2.8
			l4.4,3.3c3.7,2.9,1.6,8.6-4,8.6h-10.9l0.9-3.7h7c2.4,0,3.5-2.1,1.8-3.3s-2.8-2.1-4.4-3.3c-3.4-2.4-1.8-7.9,3.9-8h10.2L332.6,23.4z
			"/>
	</g>
	<path class="st1" d="M412.5,22.6c-0.7,0-1.3,0.1-1.8,0.3s-0.9,0.5-1.2,1l0,0l0,0c-0.1,0.1-0.2,0.3-0.2,0.4
		c-0.1,0.2-0.1,0.3-0.2,0.5c-0.3,0.9-0.5,4.3-0.5,5.9c0,0.9,0.1,1.7,0.2,2.4c0.1,0.6,0.4,1.1,0.7,1.5l0,0c0.3,0.3,0.7,0.6,1.2,0.8
		s1.2,0.3,1.9,0.3h6.4v2.7h-6.7c-0.7,0-1.3,0-1.9-0.1c-0.1,0-0.2,0-0.3,0c-0.4-0.1-0.8-0.1-1.2-0.2l0,0l0,0c-0.1,0-0.2-0.1-0.3-0.1
		l0,0c-0.1,0-0.2-0.1-0.3-0.1c-0.6-0.2-1.1-0.6-1.7-1c-0.5-0.4-0.9-0.8-1.3-1.3s-0.7-1-0.9-1.6l0,0c-0.1-0.2-0.1-0.3-0.2-0.5
		s-0.1-0.4-0.2-0.5c-0.2-0.9-0.4-2-0.4-3.2c0-1.6,0.2-3,0.5-4.2c0.4-1.2,0.9-2.2,1.6-3l0,0c0.2-0.2,0.4-0.4,0.7-0.6
		c0.2-0.2,0.5-0.4,0.7-0.5c1.3-0.8,3-1.2,5.1-1.2h6.5V23h-6.2L412.5,22.6L412.5,22.6z M362.2,22.6c-0.7,0-1.3,0.1-1.8,0.3
		s-0.9,0.5-1.2,1l0,0l0,0c-0.1,0.1-0.2,0.3-0.2,0.4c-0.1,0.2-0.1,0.3-0.2,0.5c-0.3,0.9-0.5,4.3-0.5,5.9c0,0.9,0.1,1.7,0.2,2.4
		c0.1,0.6,0.4,1.1,0.7,1.5l0,0c0.3,0.3,0.7,0.6,1.2,0.8s1.2,0.3,1.9,0.3h6.4v2.7H362c-0.7,0-1.3,0-1.9-0.1c-0.1,0-0.2,0-0.3,0
		c-0.5-0.1-0.8-0.1-1.2-0.2l0,0c-0.1,0-0.2-0.1-0.3-0.1c-0.1,0-0.2-0.1-0.3-0.1l0,0c-0.6-0.2-1.1-0.6-1.6-1l0,0
		c-0.5-0.4-0.9-0.8-1.2-1.3c-0.4-0.5-0.7-1-0.9-1.6l0,0c-0.1-0.2-0.1-0.3-0.2-0.5s-0.1-0.4-0.2-0.5c-0.2-0.9-0.4-2-0.4-3.2
		c0-1.6,0.2-3,0.5-4.2c0.4-1.2,0.9-2.2,1.6-3l0,0c0.2-0.2,0.4-0.4,0.7-0.6c0.2-0.2,0.5-0.4,0.7-0.5c1.3-0.8,3-1.2,5.1-1.2h6.5V23
		h-6.4V22.6z M375.7,35.6h10.1v2.7h-15.6v-2.8l10.6-12.8h-10.6V20h15.6v2.8L375.7,35.6L375.7,35.6z M425.3,20.3v7.4h6.1v-7.8h4.4
		v18.3h-4.4v-7.8h-6.1v7.8h-4.4V19.9h4.4V20.3L425.3,20.3z M395.9,22.6c-0.7,0-1.3,0.1-1.8,0.3s-0.9,0.5-1.2,1l0,0l0,0
		c-0.1,0.1-0.2,0.3-0.2,0.4c-0.1,0.2-0.1,0.3-0.2,0.5c-0.2,0.5-0.3,1.7-0.4,3h10.3v2.7H392c0,0.1,0,0.2,0,0.3c0,0.9,0.1,1.7,0.2,2.4
		c0.1,0.6,0.4,1.1,0.7,1.5l0,0c0.3,0.3,0.7,0.6,1.2,0.8s1.2,0.3,1.9,0.3h6.4v2.7h-6.7c-0.7,0-1.3,0-1.9-0.1c-0.1,0-0.2,0-0.3,0
		c-0.4-0.1-0.8-0.1-1.2-0.2l0,0l0,0c-0.1,0-0.2-0.1-0.3-0.1l0,0c-0.1,0-0.2-0.1-0.3-0.1c-0.6-0.2-1.1-0.6-1.7-1
		c-0.5-0.4-0.9-0.8-1.3-1.3s-0.7-1-0.9-1.6l0,0l0,0c-0.1-0.2-0.1-0.3-0.2-0.5s-0.1-0.4-0.2-0.5c-0.2-0.9-0.4-2-0.4-3.2
		c0-1.6,0.2-3,0.5-4.2c0.4-1.2,0.9-2.2,1.6-3l0,0c0.2-0.2,0.4-0.4,0.7-0.6c0.2-0.2,0.5-0.4,0.7-0.5c1.3-0.8,3-1.2,5.1-1.2h6.5v2.7
		h-6.2L395.9,22.6L395.9,22.6z"/>
	<path class="st1" d="M442.5,44.7c-0.7,0-1.3,0.1-1.8,0.3s-0.9,0.5-1.2,1l0,0l0,0l0,0c-0.1,0.1-0.2,0.3-0.2,0.4
		c-0.1,0.2-0.1,0.3-0.2,0.5c-0.2,0.5-0.3,1.7-0.4,3H449v2.7h-10.4c0,0.1,0,0.2,0,0.3c0,0.9,0.1,1.7,0.2,2.4c0.1,0.6,0.4,1.1,0.7,1.5
		l0,0c0.3,0.3,0.7,0.6,1.2,0.8c0.5,0.2,1.2,0.3,1.9,0.3h6.4v2.7h-6.7c-0.7,0-1.3,0-1.9-0.1c-0.1,0-0.2,0-0.3,0
		c-0.4-0.1-0.8-0.1-1.2-0.2l0,0l0,0c-0.1,0-0.2-0.1-0.3-0.1c-0.1,0-0.2-0.1-0.3-0.1c-0.6-0.2-1.1-0.6-1.7-1l0,0
		c-0.5-0.4-0.9-0.8-1.2-1.3c-0.4-0.5-0.7-1-0.9-1.6l0,0l0,0c-0.1-0.2-0.1-0.3-0.2-0.5s-0.1-0.4-0.2-0.5c-0.2-0.9-0.4-2-0.4-3.2
		c0-1.6,0.2-3,0.5-4.2c0.4-1.2,0.9-2.2,1.6-3l0,0c0.2-0.2,0.4-0.4,0.6-0.6c0.2-0.2,0.5-0.4,0.7-0.5c1.3-0.8,3-1.2,5.1-1.2h6.5v2.7
		h-6.2V44.7z M358.7,46.9l-2.1,5.6h4.3L358.7,46.9L358.7,46.9z M356.9,42h4.2l0.1,0.2l7.5,17.6l0.2,0.5H364l-0.1-0.2l-1.9-4.9h-6.4
		l-1.9,4.9l-0.1,0.2h-4.7l0.2-0.5l7.4-17.6l0.1-0.2H356.9L356.9,42z M373.9,60.3h-4.2V42h4.6v18.3H373.9L373.9,60.3z M391.4,51.5
		L391.4,51.5L391.4,51.5L391.4,51.5z M402.4,60.3c-0.8,0-1.5,0-2.2-0.1c-0.1,0-0.2,0-0.3,0l0,0c-0.6-0.1-1.1-0.2-1.6-0.4
		c-0.1,0-0.2-0.1-0.3-0.2c-0.8-0.4-1.5-1.1-2.1-1.8c-0.4-0.5-0.7-1-0.8-1.6c-0.1-0.4-0.2-0.9-0.3-1.5c-0.1-0.6-0.1-1.2-0.1-1.9V42
		h4.4v11.7c0,0.5,0,0.9,0,1.3c0.1,1.2,0.4,2,1.6,2.4c0.6,0.2,1.3,0.2,2,0.2h4.7c0,0.9,0,1.8,0,2.7H402.4L402.4,60.3z M398.7,59.9
		L398.7,59.9L398.7,59.9L398.7,59.9z M398.7,59.9L398.7,59.9L398.7,59.9L398.7,59.9L398.7,59.9z M413,60.3h-4.2V42h4.6v18.3H413
		L413,60.3z M416.2,42h4.9l0.1,0.2l6.5,11.4l-0.2-11.2V42h4.5v18.3h-4.9l-0.1-0.2l-6.8-12l0.2,11.9v0.4h-4.5V42H416.2L416.2,42z
		 M458.3,44.8c-1.8,0-3.3,0.8-3.3,2.6c0,0.9,0.5,2.3,2.6,2.3h4.4c1,0,2.1,0.1,3,0.4c0.6,0.2,1.1,0.5,1.5,0.8l0,0
		c1.2,1.1,1.4,2,1.4,3.6l0,0c0,1.6-0.4,3.2-1.6,4.3c-1.1,0.9-2.7,1.4-4.9,1.4h-10.2c0-1.3,0-1.5,0-2.8h9.4c2.1,0,2.8-1.4,2.9-2.3
		c0.1-1.2-0.5-2.7-2.6-2.7h-4.1c-1.6,0-3.4-0.2-4.7-1.3l0,0l0,0l0,0c-0.9-0.8-1.5-2.2-1.5-3.4c0-1.6,0.4-3.3,1.6-4.4
		c1.3-1.2,3.3-1.4,4.9-1.4h10c0,1.3,0,1.6,0,2.9H458.3L458.3,44.8z M385.3,44.7h-4.1v6.1h4.2c1.2,0,1.9-0.2,2.4-0.7l0,0l0,0l0,0
		c0.1-0.1,0.1-0.1,0.1-0.2s0.1-0.1,0.1-0.2l0,0c0.2-0.4,0.3-1.1,0.3-1.9c0-1.1-0.2-1.9-0.5-2.3c-0.2-0.2-0.5-0.4-0.9-0.5
		C386.4,44.7,385.9,44.7,385.3,44.7L385.3,44.7z M377.1,42h9.1c1.1,0,2,0.1,2.9,0.3c0.8,0.2,1.5,0.6,2,1l0,0l0,0l0,0
		c0.2,0.1,0.3,0.3,0.4,0.4c0.1,0.2,0.2,0.3,0.4,0.5c0.5,0.9,0.8,2,0.8,3.4c0,0.7-0.1,1.4-0.2,1.9c-0.2,0.6-0.4,1.1-0.7,1.6l0,0l0,0
		c-0.1,0.1-0.2,0.3-0.3,0.4l0,0l0,0c-0.1,0.1-0.2,0.2-0.3,0.3l0,0c-0.5,0.4-1.1,0.7-1.7,1l4.1,6.9l0.3,0.6h-5l-0.1-0.2l-3.8-6.7
		h-3.8v6.9h-4.4V42H377.1L377.1,42z"/>
	<g>
		<path class="st2" d="M0,20.7h5.7v17.9h21.1V20.7h5.6v40.7h-5.6V43.5H5.7v17.9H0V20.7z"/>
		<path class="st2" d="M59.2,20c12.1,0,20.9,9,20.9,20.7c0,12-8.8,21.3-20.9,21.3c-12.1,0.1-21-9.2-21-21.2
			C38.2,29.1,47.1,20,59.2,20z M59.2,56.9c8.6,0,15-7,15-16.1c0-8.8-6.3-15.6-15-15.6s-15,6.7-15,15.6
			C44.1,49.9,50.5,56.9,59.2,56.9z"/>
		<path class="st2" d="M85.7,20.7h5.7v35.7h18.3v5h-24V20.7z"/>
		<path class="st2" d="M113.5,20.7h5.7v40.7h-5.7V20.7z"/>
		<path class="st2" d="M127.6,20.7h13.5c12.4,0,20.6,7.4,20.6,20.3s-8.2,20.4-20.6,20.4h-13.5V20.7z M140.7,56.5
			c9.1,0,15.1-5.4,15.1-15.4s-6.1-15.3-15.1-15.3h-7.4v30.8L140.7,56.5L140.7,56.5z"/>
		<path class="st2" d="M176.6,20.7h6.1l14.6,40.7h-5.9l-4.1-11.7H172l-4.1,11.7h-5.8L176.6,20.7z M185.8,45l-4.5-12.9
			c-0.7-2.1-1.6-5.8-1.6-5.8h-0.1c0,0-0.9,3.7-1.6,5.8L173.4,45C173.4,45,185.8,45,185.8,45z"/>
		<path class="st2" d="M206.7,44.2L193,20.7h6.5l7.5,13.4c1.2,2.4,2.5,5.1,2.5,5.1h0.1c0,0,1.2-2.8,2.5-5.1l7.5-13.4h6.5l-13.7,23.5
			v17.2h-5.6V44.2H206.7z"/>
		<path class="st2" d="M228.8,52.4c2.5,2.4,6.4,4.4,10.3,4.4c4.3,0,7.1-2.3,7.1-5.8c0-9-19.6-7-19.6-19.6c0-6.9,5.8-11.3,13.3-11.3
			c4,0,8.4,1.3,11.4,4.1l-2.6,4.7c-2.2-2.1-5.8-3.6-9-3.6c-4.1,0-7.3,2.2-7.3,5.8c0,8.7,19.6,6.4,19.6,19.5c0,6.4-4.7,11.6-13,11.6
			c-4.9,0-9.9-1.9-13.4-5.4L228.8,52.4z"/>
	</g>
	<rect x="270" class="st2" width="4.7" height="79.5"/>
</g>
</svg>
