<?xml version="1.0" encoding="utf-8"?>
<!-- Generator: Adobe Illustrator 22.1.0, SVG Export Plug-In . SVG Version: 6.00 Build 0)  -->
<svg version="1.1" id="Слой_1" xmlns="http://www.w3.org/2000/svg" xmlns:xlink="http://www.w3.org/1999/xlink" x="0px" y="0px"
	 width="490.961px" height="89.352px" viewBox="0 0 490.961 89.352" style="enable-background:new 0 0 490.961 89.352;"
	 xml:space="preserve">
<style type="text/css">
	.st0{fill:#FF0000;}
</style>
<g>
	<path class="st0" d="M189.934,1.871l0.793,60.192l28.152-60.696h18l3.238,62.711l24.77-62.496h19.797l-40.965,86.762h-17.856
		l-3.312-60.481l-26.856,60.481h-18.504l-5.687-86.473H189.934L189.934,1.871z M189.934,1.871"/>
	<path class="st0" d="M63.289,1.223L31.176,70.848h37.726l-3.023,17.496H0L41.398,1.223H63.289L63.289,1.223z M63.289,1.223"/>
	<path d="M279.934,52.27l2.589-13.391h1.657l-2.305,11.879h6.48l-0.285,1.512H279.934L279.934,52.27z M292.316,38.879h1.727
		l-1.656,8.207c-0.071,0.723-0.141,1.227-0.141,1.512c0,0.722,0.215,1.297,0.789,1.73c0.504,0.43,1.153,0.649,1.945,0.649
		c0.649,0,1.223-0.145,1.801-0.434c0.504-0.289,0.934-0.793,1.297-1.367c0.285-0.649,0.574-1.586,0.863-2.953l1.368-7.344h1.656
		l-1.512,7.848c-0.215,1.367-0.578,2.375-1.008,3.168c-0.433,0.793-1.007,1.441-1.73,1.871c-0.789,0.504-1.652,0.722-2.664,0.722
		c-0.934,0-1.727-0.144-2.375-0.504c-0.719-0.359-1.223-0.793-1.582-1.367c-0.36-0.578-0.504-1.297-0.504-2.019
		c0-0.504,0.144-1.293,0.359-2.446L292.316,38.879L292.316,38.879z M302.254,52.27l2.59-13.391h8.066l-0.289,1.512h-6.41
		l-0.863,4.25h6.55l-0.285,1.582h-6.554l-1.149,6.047H302.254L302.254,52.27z M315.574,52.27l2.301-11.879h-4.031l0.289-1.512h9.719
		l-0.289,1.512h-4.032l-2.304,11.879H315.574L315.574,52.27z M322.773,52.27l2.59-13.391h8.067l-0.289,1.512h-6.411l-0.789,4.25
		h6.551l-0.359,1.582h-6.481l-1.222,6.047H322.773L322.773,52.27z M332.277,52.27l7.055-13.391h1.945l2.016,13.391h-1.586
		l-0.574-3.887h-5.039l-2.02,3.887H332.277L332.277,52.27z M336.813,47.016h4.105l-0.508-3.313
		c-0.215-1.367-0.285-2.449-0.359-3.383c-0.285,0.793-0.719,1.727-1.223,2.735L336.813,47.016L336.813,47.016z M344.875,52.27
		l2.664-13.391h1.656l-1.078,5.543h6.406l1.082-5.543h1.657l-2.594,13.391h-1.656l1.222-6.336h-6.406l-1.223,6.336H344.875
		L344.875,52.27z M357.547,52.27l2.594-13.391h5.183c1.008,0,1.801,0.074,2.375,0.289c0.504,0.145,0.938,0.504,1.223,1.008
		c0.289,0.574,0.433,1.152,0.433,1.945c0,1.078-0.289,2.016-1.007,2.735c-0.649,0.718-1.727,1.152-3.168,1.367
		c0.433,0.359,0.793,0.722,1.008,1.082c0.503,0.789,0.937,1.582,1.296,2.445l0.934,2.52h-1.871l-0.863-2.52
		c-0.36-0.863-0.719-1.656-1.153-2.301c-0.289-0.504-0.504-0.793-0.863-0.937c-0.289-0.145-0.719-0.215-1.367-0.215h-1.946
		l-1.152,5.973H357.547L357.547,52.27z M360.645,44.856h2.304h2.016c0.648-0.071,1.152-0.29,1.582-0.504
		c0.359-0.215,0.723-0.575,0.937-0.938c0.215-0.43,0.289-0.863,0.289-1.293c0-0.433-0.074-0.723-0.218-1.008
		c-0.145-0.289-0.36-0.504-0.649-0.578c-0.285-0.144-0.718-0.215-1.367-0.215h-4.031L360.645,44.856L360.645,44.856z M373.172,52.27
		l2.305-11.879h-4.106l0.359-1.512h9.723l-0.289,1.512h-4.031l-2.305,11.879H373.172L373.172,52.27z M380.66,48.238l0.289-1.656
		h4.68l-0.289,1.656H380.66L380.66,48.238z M380.66,48.238"/>
	<path d="M277.414,65.016l0.285-1.512h5.473l-1.008,5.473c-0.719,0.429-1.512,0.789-2.375,1.078
		c-0.937,0.289-1.801,0.433-2.594,0.433c-1.871,0-3.238-0.578-4.101-1.73c-0.793-1.008-1.153-2.301-1.153-3.817
		c0-1.582,0.289-3.093,1.008-4.39c0.649-1.297,1.512-2.305,2.52-2.953c1.008-0.575,2.09-0.934,3.383-0.934
		c0.863,0,1.656,0.215,2.378,0.504c0.719,0.359,1.223,0.863,1.583,1.438c0.433,0.578,0.648,1.296,0.863,2.234l-1.656,0.144
		c-0.215-0.863-0.575-1.586-1.079-2.089c-0.578-0.504-1.296-0.719-2.16-0.719c-0.937,0-1.801,0.289-2.519,0.793
		c-0.793,0.504-1.442,1.293-1.946,2.375c-0.429,1.078-0.648,2.23-0.648,3.597c0,1.372,0.289,2.379,0.863,3.098
		c0.649,0.649,1.512,1.008,2.594,1.008c1.078,0,2.305-0.359,3.527-1.152l0.578-2.879H277.414L277.414,65.016z M284.684,70.27
		l2.593-13.391h9.071l-0.285,1.586h-7.418l-0.793,4.101h7.199l-0.36,1.586h-7.125l-0.937,4.606h7.918l-0.285,1.512H284.684
		L284.684,70.27z M296.781,65.953l1.657-0.144v0.429c0,0.578,0.07,1.008,0.285,1.442c0.218,0.429,0.648,0.793,1.152,1.008
		c0.504,0.214,1.082,0.359,1.801,0.359c1.008,0,1.801-0.215,2.304-0.719c0.504-0.504,0.793-1.008,0.793-1.586
		c0-0.429-0.144-0.789-0.433-1.152c-0.289-0.359-1.078-0.789-2.305-1.438c-1.008-0.433-1.656-0.793-2.015-1.007
		c-0.575-0.434-1.008-0.868-1.297-1.297c-0.215-0.434-0.36-1.008-0.36-1.586c0-0.719,0.145-1.293,0.504-1.871
		c0.363-0.575,0.867-1.008,1.586-1.297c0.649-0.285,1.438-0.43,2.305-0.43c1.008,0,1.871,0.215,2.59,0.574
		c0.648,0.36,1.152,0.864,1.511,1.442c0.289,0.648,0.434,1.222,0.434,1.726v0.289l-1.586,0.145c0-0.359-0.07-0.649-0.07-0.863
		c-0.145-0.36-0.289-0.723-0.578-0.938c-0.215-0.289-0.575-0.504-1.008-0.648c-0.36-0.145-0.863-0.215-1.367-0.215
		c-0.934,0-1.657,0.215-2.161,0.648c-0.359,0.36-0.574,0.793-0.574,1.367c0,0.29,0.071,0.575,0.289,0.864
		c0.141,0.215,0.43,0.504,0.864,0.718c0.285,0.219,0.933,0.579,2.086,1.083c0.863,0.433,1.511,0.792,1.871,1.007
		c0.433,0.289,0.793,0.719,1.011,1.153c0.285,0.504,0.43,1.007,0.43,1.582c0,0.722-0.215,1.371-0.648,2.015
		c-0.43,0.578-1.008,1.082-1.727,1.371c-0.719,0.36-1.586,0.504-2.52,0.504c-1.367,0-2.593-0.289-3.457-0.937
		C297.285,68.832,296.781,67.68,296.781,65.953L296.781,65.953z M308.012,70.27l2.664-13.391h9.074l-0.363,1.586h-7.344
		l-0.789,4.101h7.125l-0.285,1.586h-7.203l-0.864,4.606h7.922l-0.359,1.512H308.012L308.012,70.27z M319.676,70.27l2.594-13.391
		h1.656l-2.305,11.879h6.551l-0.359,1.512H319.676L319.676,70.27z M329.395,70.27l2.593-13.391h1.727l-2.375,11.879h6.551
		l-0.286,1.512H329.395L329.395,70.27z M339.691,65.953l1.657-0.144l-0.071,0.429c0,0.578,0.145,1.008,0.36,1.442
		c0.215,0.429,0.574,0.793,1.078,1.008c0.504,0.214,1.152,0.359,1.875,0.359c1.008,0,1.726-0.215,2.301-0.719
		c0.504-0.504,0.793-1.008,0.793-1.586c0-0.429-0.145-0.789-0.43-1.152c-0.289-0.359-1.082-0.789-2.379-1.438
		c-0.934-0.433-1.656-0.793-2.016-1.007c-0.504-0.434-0.933-0.868-1.222-1.297c-0.289-0.434-0.434-1.008-0.434-1.586
		c0-0.719,0.219-1.293,0.578-1.871c0.36-0.575,0.864-1.008,1.512-1.297c0.719-0.285,1.512-0.43,2.305-0.43
		c1.078,0,1.941,0.215,2.59,0.574c0.718,0.36,1.222,0.864,1.585,1.442c0.286,0.648,0.43,1.222,0.43,1.726v0.289l-1.582,0.145
		c0-0.359-0.074-0.649-0.144-0.863c-0.075-0.36-0.289-0.723-0.504-0.938c-0.215-0.289-0.578-0.504-1.008-0.648
		c-0.434-0.145-0.863-0.215-1.367-0.215c-0.938,0-1.657,0.215-2.16,0.648c-0.364,0.36-0.579,0.793-0.579,1.367
		c0,0.29,0.075,0.575,0.215,0.864c0.145,0.215,0.434,0.504,0.867,0.718c0.286,0.219,1.008,0.579,2.161,1.083
		c0.863,0.433,1.511,0.792,1.871,1.007c0.429,0.289,0.793,0.719,1.007,1.153c0.29,0.504,0.36,1.007,0.36,1.582
		c0,0.722-0.215,1.371-0.574,2.015c-0.434,0.578-1.008,1.082-1.731,1.371c-0.719,0.36-1.582,0.504-2.519,0.504
		c-1.442,0-2.59-0.289-3.457-0.937C340.125,68.832,339.691,67.68,339.691,65.953L339.691,65.953z M360.715,65.59l1.656,0.219
		c-0.504,1.582-1.297,2.734-2.305,3.527c-1.007,0.793-2.086,1.152-3.382,1.152c-1.512,0-2.735-0.433-3.602-1.441
		c-0.934-1.008-1.367-2.449-1.367-4.246c0-2.449,0.723-4.465,2.015-5.977c1.227-1.441,2.739-2.16,4.54-2.16
		c1.367,0,2.445,0.43,3.238,1.152c0.793,0.79,1.297,1.801,1.441,3.094l-1.586,0.145c-0.144-1.008-0.504-1.727-1.008-2.16
		c-0.503-0.504-1.152-0.719-2.015-0.719c-1.512,0-2.735,0.719-3.742,2.16c-0.793,1.297-1.227,2.734-1.227,4.465
		c0,1.367,0.359,2.445,1.008,3.168c0.578,0.719,1.441,1.078,2.449,1.078c0.863,0,1.656-0.289,2.375-0.938
		C359.852,67.535,360.355,66.672,360.715,65.59L360.715,65.59z M363.523,70.27l2.665-13.391h1.656l-1.078,5.617h6.476l1.082-5.617
		h1.656l-2.593,13.391h-1.657l1.227-6.262h-6.48l-1.297,6.262H363.523L363.523,70.27z M375.117,70.27l7.125-13.391h1.946
		l2.089,13.391h-1.656l-0.578-3.813h-5.113l-2.016,3.813H375.117L375.117,70.27z M379.652,65.086h4.176l-0.504-3.383
		c-0.144-1.367-0.289-2.449-0.359-3.312c-0.289,0.718-0.649,1.656-1.227,2.738L379.652,65.086L379.652,65.086z M387.93,70.27
		l2.664-13.391h8.136l-0.285,1.586h-6.48l-0.867,4.246h6.625l-0.289,1.512h-6.621l-1.153,6.047H387.93L387.93,70.27z M401.469,70.27
		l2.301-11.805h-4.102l0.289-1.586h9.863l-0.289,1.586h-4.105l-2.301,11.805H401.469L401.469,70.27z M401.469,70.27"/>
	<path d="M265.82,87.695l-0.718-13.39h1.656l0.285,6.621c0.074,0.289,0.074,1.152,0.145,2.594v0.793v0.933
		c0.648-1.512,1.152-2.59,1.511-3.238l3.817-7.703h1.73l0.43,7.847c0.074,0.864,0.074,1.942,0.074,3.239
		c0.145-0.36,0.285-0.793,0.574-1.442c0.434-0.933,0.719-1.652,0.938-2.086l3.597-7.558h1.731l-6.41,13.39h-1.871l-0.36-8.136
		c-0.074-0.649-0.074-1.512-0.144-2.52c-0.36,0.863-0.649,1.512-0.864,1.945l-4.39,8.711H265.82L265.82,87.695z M279.141,87.695
		l7.129-13.39h2.015l2.086,13.39h-1.656l-0.645-3.886h-5.043l-2.015,3.886H279.141L279.141,87.695z M283.75,82.438h4.176
		l-0.504-3.309c-0.219-1.371-0.359-2.449-0.359-3.387c-0.29,0.793-0.723,1.731-1.297,2.739L283.75,82.438L283.75,82.438z
		 M291.957,87.695l2.59-13.39h1.73l-2.375,11.879h6.551l-0.289,1.511H291.957L291.957,87.695z M304.988,87.695l2.375-11.879h-4.175
		l0.289-1.511h9.937l-0.289,1.511h-4.105l-2.305,11.879H304.988L304.988,87.695z M312.547,87.695l2.664-13.39h9.074l-0.289,1.511
		h-7.414l-0.867,4.176h7.273l-0.289,1.512h-7.269l-0.867,4.68h7.921l-0.289,1.511H312.547L312.547,87.695z M324.355,87.695
		l2.594-13.39h5.328c1.008,0,1.797,0.07,2.375,0.285c0.504,0.219,0.938,0.504,1.223,1.008c0.289,0.578,0.504,1.226,0.504,1.945
		c0,1.082-0.359,2.016-1.008,2.734c-0.719,0.723-1.801,1.153-3.312,1.371c0.504,0.36,0.867,0.719,1.082,1.079
		c0.504,0.793,0.933,1.586,1.297,2.449l0.933,2.519H333.5l-0.937-2.519c-0.286-0.863-0.645-1.656-1.079-2.305
		c-0.289-0.433-0.578-0.793-0.863-0.937c-0.359-0.141-0.793-0.215-1.512-0.215h-1.945l-1.152,5.976H324.355L324.355,87.695z
		 M327.453,80.277h2.305h2.16c0.645-0.07,1.148-0.214,1.512-0.504c0.429-0.214,0.718-0.503,1.008-0.933
		c0.214-0.434,0.285-0.863,0.285-1.297c0-0.359-0.071-0.719-0.215-1.008c-0.215-0.289-0.434-0.504-0.649-0.574
		c-0.289-0.145-0.718-0.145-1.367-0.145h-4.105L327.453,80.277L327.453,80.277z M341.852,87.695l2.664-13.39h2.089l1.223,8.636
		c0.215,1.153,0.289,2.235,0.36,3.313c0.359-0.934,0.937-2.086,1.726-3.672l4.395-8.277h2.16l-2.664,13.39h-1.657l1.297-6.48
		c0.36-1.512,0.789-3.238,1.368-5.113c-0.36,0.867-0.864,1.8-1.368,2.808l-4.679,8.785h-1.657l-1.226-8.566
		c-0.145-0.793-0.215-1.731-0.285-2.738c-0.145,1.152-0.289,2.09-0.434,2.738l-1.656,8.566H341.852L341.852,87.695z M356.539,87.695
		l2.594-13.39h3.961c0.644,0,1.222,0.07,1.582,0.07c0.504,0.145,1.008,0.289,1.367,0.574c0.434,0.289,0.723,0.578,0.937,1.082
		c0.215,0.434,0.29,0.938,0.29,1.442c0,0.718-0.145,1.367-0.579,1.941c-0.359,0.578-0.937,1.008-1.726,1.297
		c0.648,0.215,1.223,0.574,1.512,1.082c0.359,0.43,0.503,1.008,0.503,1.652c0,0.723-0.214,1.442-0.578,2.09
		c-0.429,0.719-0.933,1.223-1.582,1.582c-0.648,0.364-1.367,0.578-2.16,0.578H356.539L356.539,87.695z M359.707,79.992h2.594
		c1.222,0,2.086-0.144,2.59-0.578c0.578-0.43,0.793-1.008,0.793-1.801c0-0.359-0.071-0.718-0.215-1.007
		c-0.145-0.286-0.434-0.43-0.649-0.575c-0.289-0.144-0.793-0.215-1.586-0.215h-2.664L359.707,79.992L359.707,79.992z
		 M358.484,86.184h2.879c0.793,0,1.297-0.075,1.586-0.075c0.504-0.14,0.934-0.285,1.293-0.503c0.289-0.215,0.578-0.575,0.723-0.934
		c0.215-0.359,0.285-0.793,0.285-1.227c0-0.644-0.141-1.078-0.504-1.437c-0.359-0.289-1.078-0.434-2.16-0.434h-3.168L358.484,86.184
		L358.484,86.184z M368.203,87.695l2.664-13.39h1.656l-1.078,5.543h6.551l1.078-5.543h1.656l-2.589,13.39h-1.657l1.223-6.336h-6.551
		l-1.222,6.336H368.203L368.203,87.695z M368.203,87.695"/>
	<path class="st0" d="M289.797,18.648h193.031l8.133-16.992H297.934L289.797,18.648L289.797,18.648z M289.797,18.648"/>
	<path class="st0" d="M156.383,41.832l-9.215,46.223h-9.434l-1.656-11.59c-6.262,8.566-13.176,12.887-24.121,12.887
		c-22.82,0-38.016-22.391-35.422-44.207c1.512-12.387,6.695-22.899,14.473-31.465C98.781,5.113,112.391,0,124.414,0
		c9.074,0,19.656,3.313,24.914,8.352c5.184,4.968,8.926,14.687,9.574,22.175l-18.214,0.145
		c-1.368-10.512-7.489-15.121-17.352-15.121c-6.41,0-13.68,2.449-18.289,7.418c-4.609,4.969-7.559,10.726-8.785,21.023
		c-2.59,21.672,5.043,30.094,19.226,30.094c5.543,0,10.293-1.871,14.328-5.473c4.102-3.672,7.485-7.703,8.207-13.679H119.52
		l2.304-13.102H156.383L156.383,41.832z M156.383,41.832"/>
</g>
</svg>
