<?xml version="1.0" encoding="utf-8"?>
<!-- Generator: Adobe Illustrator 23.1.0, SVG Export Plug-In . SVG Version: 6.00 Build 0)  -->
<svg version="1.1" id="Слой_1" xmlns="http://www.w3.org/2000/svg" xmlns:xlink="http://www.w3.org/1999/xlink" x="0px" y="0px"
	 viewBox="0 0 1043 196" enable-background="new 0 0 1043 196" xml:space="preserve">
<path fill-rule="evenodd" clip-rule="evenodd" fill="#AE1454" d="M888.9,160.2c-13.6,9.4-30.8,11.7-46.3,6.2c-0.1,0-0.2,0-0.2,0.1
	c-0.1,0.1-0.1,0.2,0,0.2c13.8,18.5,36.7,30.3,59.5,29.2c67.1-3.1,104-70.1,140.9-72.4c0.1,0,0.1,0,0.2-0.1c0-0.1,0-0.1,0-0.2
	c-2.2-5.6-6.2-10.4-11.4-13.3c-7.5-4.2-15.9-4.4-23.6-0.6c-11.3,5.6-25.1,1.1-31-10.1l-25.5-46.7c-3.8-8.1-8.1-16-12.9-23.6
	c-0.4-0.8-0.6-1.1-0.7-1.1c-3.4-5.4-7-10.6-10.8-15.6c-4.1-6.4-12.3-8.4-18.8-4.8c-0.1,0.1-0.2,0.2-0.2,0.3c0,0.1,0,0.2,0.1,0.3
	c15,19.7,27.2,41.4,36.4,64.4c0,0.1,0,0.2,0,0.3c-0.1,0.1-0.2,0.2-0.3,0.2c-1.7,0.4-3.5-0.6-4.2-2.3c-9-23.5-21.8-45.3-37.9-64.6
	c-2.2-3.2-5.5-5.4-9.3-6c-3.6-0.6-7.3,0.2-10.3,2.4c-0.1,0.1-0.2,0.2-0.2,0.3c0,0.1,0,0.2,0.1,0.3c19.3,21.2,36,49.8,46.1,76.7
	c0,0.1,0,0.2,0,0.3c-0.1,0.1-0.2,0.2-0.3,0.2c-1.6,0.3-3.2-0.5-3.9-2c-8-20.3-20.5-43.3-33.9-60.5c-2.1-3.2-5.3-5.4-9-6.2
	c-3.5-0.7-7.2,0-10.3,2c-0.1,0.1-0.2,0.2-0.2,0.3c0,0.1,0,0.2,0.1,0.3c16.7,19.8,33.1,49.5,42.2,73.9c0,0.1,0,0.2,0,0.3
	c-0.1,0.1-0.2,0.2-0.3,0.2c-1.7,0.3-3.4-0.6-4-2.3c-5.1-12.9-14.7-32.8-22.1-44.6c-3.6-6.6-11.6-9.1-18.2-5.9
	c-0.1,0.1-0.2,0.2-0.2,0.3c0,0.1,0,0.2,0.1,0.3C886.5,63.8,922.2,134,888.9,160.2L888.9,160.2z"/>
<path fill="#AE1454" d="M0,9.4h25.8v65.5c9.3-10.4,21.3-15.6,36-15.6c13.2,0,23.1,3.6,29.7,10.8c6.5,7.2,9.8,16.7,9.8,28.5v62H75.6
	v-59.6c0-14.3-6.7-21.5-20.1-21.5c-5.9,0-11.4,1.4-16.6,4.2c-5.2,2.8-9.6,7-13.1,12.6v64.3H0V9.4z"/>
<path fill="#AE1454" d="M133.8,153c-6.5-7.2-9.8-16.7-9.8-28.5v-62h25.8V122c0,14.3,6.7,21.5,20.1,21.5c5.9,0,11.4-1.4,16.6-4.2
	c5.2-2.8,9.6-7,13.1-12.6V62.5h25.8v98.2h-25v-13.3c-4.6,5.6-10.2,9.7-16.6,12.4c-6.4,2.7-13.2,4-20.3,4
	C150.2,163.7,140.3,160.2,133.8,153L133.8,153z"/>
<path fill="#AE1454" d="M249.9,62.5h24.2v12.9c4.4-5.2,9.5-9.1,15.4-11.9c5.9-2.7,11.8-4.1,17.8-4.1c7.6,0,13.8,1.3,18.4,3.8
	c4.6,2.5,8.1,6.3,10.4,11.4c4.4-4.9,9.7-8.7,15.9-11.2c6.2-2.6,12.4-3.9,18.5-3.9c12.3,0,21.1,3.1,26.4,9.2c5.3,6.1,8,15.1,8,27
	v65.1h-24.8V99.1c0-7-1.4-11.9-4.2-14.9c-2.8-3-7.3-4.5-13.4-4.5c-4.4,0-8.4,0.9-12,2.6c-3.6,1.7-6.9,4.6-9.9,8.7
	c0.3,4.4,0.4,7.9,0.4,10.6v59.1h-25v-62c0-7.1-1.2-12-3.5-14.8c-2.3-2.8-6.5-4.2-12.7-4.2c-9.3,0-17.6,5.3-25,15.8v65.3h-25
	L249.9,62.5L249.9,62.5z"/>
<path fill="#AE1454" d="M501.4,134.6c5.6-5.9,8.4-13.6,8.4-23c0-10-2.8-17.8-8.3-23.4s-13.1-8.5-22.6-8.5s-17.1,2.8-22.6,8.5
	c-5.5,5.7-8.3,13.5-8.3,23.4c0,9.4,2.8,17.1,8.4,23c5.6,5.9,13.1,8.9,22.5,8.9C488.3,143.5,495.8,140.5,501.4,134.6z M448.7,157.5
	c-8.7-4.2-15.4-10.2-20.2-18c-4.8-7.8-7.2-17.2-7.2-27.9s2.4-19.7,7.1-27.5c4.7-7.8,11.4-13.9,20.2-18.2c8.7-4.3,18.9-6.4,30.3-6.4
	c11.5,0,21.5,2.2,30.2,6.4c8.7,4.3,15.4,10.4,20.2,18.2c4.8,7.9,7.2,17,7.2,27.5s-2.4,20.1-7.2,27.9c-4.8,7.9-11.5,13.8-20.2,18
	c-8.7,4.2-18.7,6.2-30.2,6.2S457.3,161.7,448.7,157.5z"/>
<path fill="#E50043" d="M614.9,141.6c4.6-2.2,8.2-5.4,10.6-9.3v-10.8c-7.5-5.3-16.1-8-25.8-8c-13.8,0-20.7,5.3-20.7,16
	c0,5.2,1.7,9.1,5.2,11.7c3.5,2.6,8.5,3.9,15.1,3.9C605.1,144.9,610.3,143.8,614.9,141.6L614.9,141.6z M564.1,154.4
	c-7.5-6.2-11.3-14.6-11.3-25.1s3.6-19.4,10.6-25.6s17.1-9.2,29.9-9.2s23.1,2.5,32.2,7.6v-2.7c0-7-2.1-12-6.5-15.1
	c-4.3-3.1-11.2-4.7-20.8-4.7c-6,0-11.9,0.6-17.8,1.7c-5.9,1.2-11.1,2.8-15.6,4.8V65.9c4.1-1.9,9.6-3.5,16.5-4.7
	c6.9-1.2,13.5-1.8,20-1.8c17.1,0,29.7,3.7,37.9,10.9c8.2,7.3,12.3,17.4,12.3,30.4v60h-24.4V151c-4.2,4.1-9,7.2-14.4,9.4
	c-5.4,2.2-12,3.3-19.8,3.3C581.2,163.7,571.6,160.6,564.1,154.4L564.1,154.4z"/>
<path fill="#E50043" d="M676.6,62.4h26.2v98.2h-26.2V62.4z M679.3,41.2c-2.8-2.7-4.2-6.1-4.2-10.2c0-4.1,1.4-7.5,4.2-10.3
	c2.8-2.8,6.2-4.2,10.3-4.2c4.1,0,7.6,1.4,10.4,4.2c2.9,2.8,4.3,6.2,4.3,10.3c0,4.1-1.4,7.5-4.3,10.2c-2.9,2.7-6.3,4.1-10.4,4.1
	C685.6,45.3,682.1,43.9,679.3,41.2z"/>
<path fill="#E50043" d="M729,62.5h25v15.8c4-5.3,9.6-9.3,16.9-11.9c7.3-2.6,15.7-3.9,25.1-3.9v19.6c-10,0-18.6,1.5-25.9,4.6
	c-7.3,3.1-12.4,7.9-15.3,14.4v59.6H729V62.5z"/>
<path fill-rule="evenodd" clip-rule="evenodd" fill="#E50043" d="M790.7,153.2h3.2v-4.3h2c2.7,0,1.5,3.8,2.2,4.3h3.3v-0.2
	c-0.7-0.2,0.5-5.1-2.7-5.6c1.5-0.3,2.5-1.3,2.5-3.1c0-2.3-1.7-3.7-4.5-3.7h-6L790.7,153.2L790.7,153.2z M793.8,146.3v-3h2.2
	c1.3,0,2,0.5,2,1.5c0,1-0.7,1.5-2,1.5L793.8,146.3L793.8,146.3z"/>
<path fill-rule="evenodd" clip-rule="evenodd" fill="#E50043" d="M795.3,132.3c-8.1,0-14.6,6.5-14.6,14.6c0,8.1,6.5,14.6,14.6,14.6
	c8.1,0,14.6-6.5,14.6-14.6C809.9,138.8,803.5,132.3,795.3,132.3z M795.3,135.5c6.3,0,11.5,5.1,11.5,11.5c0,6.3-5.2,11.5-11.5,11.5
	s-11.5-5.1-11.5-11.5C783.9,140.6,789,135.5,795.3,135.5z"/>
</svg>
