<?xml version="1.0" encoding="utf-8"?>
<!-- Generator: Adobe Illustrator 22.1.0, SVG Export Plug-In . SVG Version: 6.00 Build 0)  -->
<svg version="1.1" id="Слой_1" xmlns="http://www.w3.org/2000/svg" xmlns:xlink="http://www.w3.org/1999/xlink" x="0px" y="0px"
	 width="763.976px" height="149.116px" viewBox="0 0 763.976 149.116" enable-background="new 0 0 763.976 149.116"
	 xml:space="preserve">
<g>
	<g>
		<path fill="#BD9D61" d="M74.558,0C33.493,0,0,33.493,0,74.558s33.493,74.558,74.558,74.558s74.558-33.493,74.558-74.558
			S115.623,0,74.558,0z M74.558,144.988c-38.792,0-70.43-31.638-70.43-70.43c0-38.791,31.639-70.43,70.43-70.43
			c38.792,0,70.43,31.638,70.43,70.43C144.988,113.35,113.35,144.988,74.558,144.988z"/>
		<path fill="#BD9D61" d="M74.558,6.23C36.925,6.23,6.23,36.924,6.23,74.558s30.694,68.328,68.328,68.328
			s68.328-30.694,68.328-68.328S112.192,6.23,74.558,6.23z M74.558,140.898c-36.539,0-66.34-29.801-66.34-66.34
			c0-36.539,29.801-66.34,66.34-66.34c36.54,0,66.341,29.802,66.34,66.34C140.898,111.097,111.097,140.898,74.558,140.898z"/>
	</g>
	<path fill="#D7569C" stroke="#BD9D61" stroke-width="0.216" stroke-miterlimit="22.9256" d="M82.801,28.322
		c-0.558-0.075-1.11-0.169-1.653-0.284c-1.4-0.297-2.75-0.73-4.035-1.31c1.813-1.343,3.863-2.677,6.015-3.435
		c0.152,0.818,0.203,1.639,0.154,2.463C83.23,26.614,83.07,27.47,82.801,28.322L82.801,28.322z"/>
	<path fill="#FFFFFF" stroke="#BD9D61" stroke-width="0.216" stroke-miterlimit="22.9256" d="M50.441,20.634
		c-0.178,0.889-0.108,1.592,0.159,2.128c0.346,0.697,1.05,1.141,1.982,1.372c1.008,0.249,2.271,0.248,3.65,0.042
		c3.81-0.568,8.412-2.688,10.981-5.435c1.559-1.667,6.55-5.013,12.085-6.964c3.134-1.105,6.456-1.77,9.456-1.449
		c3.063,0.329,5.783,1.675,7.632,4.604c1.181,1.87,1.997,4.379,2.306,7.672c5.259-0.567,10.03,0.662,13.684,2.808
		c4.297,2.524,7.063,6.33,7.3,10.015c0.028,0.44,0.023,0.884-0.013,1.325c-0.173,2.093-1.046,4.226-2.357,5.911
		c1.434-0.993,3.28-1.619,5.533-1.643c2.851-0.03,5.5,1.435,7.475,3.616c2.08,2.298,3.418,5.404,3.449,8.391
		c0.03,2.884-1.136,6.154-3.368,9.375c-1.833,2.645-4.39,5.264-7.595,7.61c1.387,0.11,2.798,0.627,4.039,1.391
		c1.79,1.102,3.245,2.731,3.78,4.402c3.229,0.745,5.322,3.231,6.135,6.468c0.485,1.932,0.51,4.134,0.043,6.385
		c-0.465,2.239-1.417,4.531-2.889,6.659c-3.679,5.319-10.601,9.614-21.247,9.467c1.515,1.08,2.591,2.372,3.309,3.79
		c1.103,2.18,1.348,4.645,1.037,7.083c-0.466,3.66-2.916,6.337-5.904,7.8c-1.487,0.729-3.11,1.157-4.687,1.256h0.002
		c-1.589,0.1-3.14-0.136-4.47-0.737c-1.976-0.892-3.453-2.576-3.848-5.143c-0.226-1.471,0.04-2.71,0.606-3.646
		c0.432-0.715,1.039-1.251,1.738-1.582c0.698-0.33,1.486-0.454,2.282-0.341c0.794,0.113,1.595,0.459,2.317,1.067
		c0.055-0.272,0.065-0.518,0.037-0.739c-0.049-0.381-0.216-0.7-0.464-0.963c-0.267-0.284-0.628-0.509-1.038-0.682
		c-1.099-0.464-2.516-0.556-3.518-0.429c-2.563,0.326-6.08,3.452-10.406,7.297c-8.867,7.881-21.056,18.715-36.437,15.504
		c-2.864-0.598-4.467-1.284-6.44-2.13c-0.328-0.141-0.646-0.277-0.748-0.32c-0.496-0.21-0.985-0.423-1.468-0.638
		c-0.118-0.025-0.232-0.053-0.304-0.136c-3.78-1.701-7.169-3.557-10.178-5.592c-3.482-2.355-6.465-4.952-8.968-7.823
		c-3.062-3.513-4.36-6.479-4.651-9.132c-0.269-2.457,0.324-4.618,1.182-6.686c-2.974-0.861-5.623-2.11-7.671-4.176
		c-2.179-2.199-3.658-5.301-4.094-9.81c-0.338-3.498,0.49-7.284,2.306-10.218c1.649-2.664,4.11-4.634,7.256-5.082
		c2.09-0.297,6.734,0.392,7.205,3.133c0.076-0.001,0.153-0.001,0.231,0.001c1.486,0.028,2.813,0.556,3.801,1.422
		c0.999,0.874,1.65,2.088,1.775,3.479c0.017,0.184,0.023,0.382,0.019,0.594c-0.034,1.794-0.751,3.046-1.778,3.806
		c-0.64,0.474-1.395,0.751-2.177,0.844c-0.772,0.092-1.573,0.006-2.315-0.245c-1.118-0.378-2.105-1.132-2.665-2.217
		c-0.27,0.297-0.452,0.614-0.547,0.941c-0.146,0.495-0.094,1.022,0.147,1.53c0.256,0.54,0.723,1.06,1.393,1.507
		c1.214,0.811,3.071,1.367,5.525,1.367l81.779,0.001c-0.179-0.235-0.321-0.503-0.404-0.786c-0.11-0.377-0.115-0.778,0.028-1.17
		c0.046-0.126,0.108-0.251,0.185-0.371H75.907c-0.012,0-0.024,0-0.035,0c-0.374,0.002-0.755,0.002-1.143,0H52.464
		c-5.8,0-11.79-2.852-16.183-7.623c-4.015-4.361-6.703-10.327-6.698-17.185c0.002-3.497,0.56-7.772,2.106-11.821
		c1.029-2.695,2.496-5.29,4.528-7.494c-3.665,0.911-6.828,2.378-9.203,4.066c-2.266,1.611-3.799,3.406-4.337,5.082
		c0.986-0.739,1.88-1.152,2.672-1.303c0.895-0.17,1.662-0.013,2.291,0.389c0.613,0.391,1.081,1.011,1.397,1.781
		c0.492,1.199,0.613,2.776,0.332,4.394c-0.043,0.246-0.092,0.512-0.152,0.791c0.024,0.095-0.007,0.178-0.057,0.257
		c-0.269,1.177-0.717,2.556-1.538,3.758c-1.111,1.625-2.878,2.908-5.749,2.923c-0.49,0.002-0.969-0.035-1.436-0.109
		c-2.696-0.427-4.739-2.074-6.108-4.186c-1.352-2.086-2.046-4.63-2.058-6.888c-0.003-0.559,0.038-1.109,0.121-1.636
		c0.972-6.133,4.029-10.724,8.49-14.452c4.311-3.602,9.926-6.389,16.231-8.988c-0.403-0.956-0.599-1.975-0.585-2.969
		c0.016-1.09,0.284-2.155,0.806-3.08c0.528-0.934,1.312-1.725,2.355-2.257c0.84-0.428,1.845-0.686,3.014-0.714
		c0.57-1.343,1.734-2.795,3.234-3.722c1.33-0.822,2.925-1.241,4.613-0.835c1.78,0.428,2.734,1.643,2.994,2.868
		c0.106,0.501,0.096,1.006-0.023,1.465c-0.123,0.474-0.361,0.898-0.705,1.218C52.262,20.656,51.454,20.897,50.441,20.634
		L50.441,20.634z M115.298,44.621c-1.092,0.786-2.326,1.289-3.632,1.373c-0.295,0.019-0.591,0.017-0.885-0.007
		c-1.251-0.103-2.424-0.352-3.315-0.86c-0.965-0.551-1.592-1.382-1.64-2.619v-0.002c-0.03-0.785,0.154-1.476,0.494-2.027
		c0.252-0.408,0.586-0.735,0.979-0.965c0.395-0.231,0.85-0.365,1.34-0.384c0.489-0.019,1.015,0.078,1.552,0.31
		c0.033-0.335-0.004-0.64-0.103-0.911c-0.127-0.347-0.36-0.652-0.682-0.91c-0.342-0.274-0.786-0.496-1.314-0.661
		c-1.823-0.569-4.552-0.433-7.531,0.59c0.438,2.948,0.571,5.96-0.325,8.533c-0.957,2.745-3.057,4.961-7.145,6.026
		c-1.39,0.362-3.233,0.413-4.765-0.047c-1.296-0.389-2.385-1.138-2.853-2.365c-0.639-1.675-0.372-3.007,0.32-3.944
		c0.348-0.471,0.802-0.837,1.301-1.092c0.497-0.254,1.041-0.4,1.57-0.434c0.775-0.049,1.53,0.14,2.09,0.582
		c0.202-0.448,0.283-0.857,0.268-1.227c-0.017-0.424-0.162-0.805-0.395-1.14c-0.245-0.353-0.591-0.66-0.994-0.917
		c-0.987-0.631-2.282-0.946-3.303-0.904c-4.07,0.165-8.985,3.784-13.205,6.891c-3.284,2.417-6.162,4.536-8.108,4.615
		c-1.604,0.065-3.025-0.218-4.286-0.795c-1.158-0.53-2.172-1.305-3.061-2.285c-2.427,0.889-4.406,2.095-5.803,3.688
		c-1.439,1.641-2.268,3.71-2.337,6.288c-0.042,1.564,0.398,2.734,1.013,3.564c0.868,1.17,2.055,1.671,2.708,1.644
		c0.384-0.016,1.24-0.144,1.951-0.545L55.2,63.686c0.298-0.169,0.567-0.385,0.751-0.658c0.176-0.261,0.279-0.587,0.262-0.995
		c-0.015-0.366-0.125-0.795-0.361-1.298c-0.266,0.078-0.535,0.06-0.796-0.035c-0.315-0.115-0.603-0.347-0.843-0.659
		c-0.218-0.283-0.402-0.637-0.533-1.029c-0.361-1.076-0.335-2.475,0.46-3.493c0.249-0.318,0.579-0.588,0.965-0.804
		c0.806-0.452,1.872-0.687,2.921-0.658c1.062,0.029,2.125,0.327,2.91,0.939c0.278,0.217,0.521,0.473,0.716,0.767
		c1.456,0.396,2.885,1.786,3.667,3.942c0.597,1.646,0.823,3.749,0.392,6.2c0.977-0.147,1.999-0.166,3.021-0.092
		c1.29,0.093,2.595,0.337,3.811,0.659C74.72,55.018,85.1,56.131,95.715,57.27c1.89,0.203,3.787,0.406,5.724,0.541
		c4.035,0.28,8.053,0.305,11.202-0.24c2.693-0.465,4.732-1.334,5.545-2.802c-1.333-0.242-2.491-0.897-3.305-1.852
		c-0.911-1.069-1.387-2.508-1.193-4.155C113.855,47.301,114.395,45.858,115.298,44.621L115.298,44.621z M88.069,102.995H72.144
		c1.778,0.682,3.087,1.672,4.008,2.83c1.22,1.535,1.75,3.355,1.778,5.141c1.058-1.49,2.402-2.847,3.997-4.107
		C83.681,105.473,85.745,104.202,88.069,102.995L88.069,102.995z M62.911,102.995H33.558c-1.256,0-2.198,0.305-2.844,0.827h0.002
		c-0.675,0.546-1.036,1.348-1.096,2.295c-0.004,0.057-0.005,0.11-0.004,0.156c0.012,0.497,0.215,1.066,0.618,1.526
		c0.403,0.459,1.014,0.807,1.843,0.861c0.108,0.007,0.213,0.009,0.314,0.007h0.002c0.343-0.008,0.64-0.062,0.893-0.153
		c0.444-0.161,0.767-0.444,0.976-0.807c0.218-0.379,0.318-0.851,0.307-1.366c0,0,0-0.001,0-0.002v0.002c0,0,0-0.001,0-0.002
		c-0.011-0.447-0.104-0.922-0.275-1.394c-0.134-0.37,0.224-0.755,0.602-0.646c1.328,0.38,2.269,1.116,2.864,2.023v0.002
		c0.536,0.817,0.788,1.767,0.786,2.716c-0.002,0.942-0.255,1.889-0.728,2.706c-0.523,0.903-1.315,1.65-2.335,2.062
		c-0.019,0.189-0.029,0.375-0.029,0.559c-0.022,6.817,12.348,9.168,19.337,9.19c8.08,0.026,13.479-2.349,13.491-6.254
		c0-0.116-0.005-0.248-0.018-0.394c-0.069-0.814-0.357-1.374-0.76-1.729c-0.479-0.423-1.141-0.578-1.8-0.538
		c-0.336,0.021-0.69,0.124-1.015,0.361c-0.194,0.141-0.378,0.33-0.546,0.578c0.78,0.526,1.285,1.186,1.516,1.867
		c0.178,0.523,0.195,1.058,0.054,1.557c-0.142,0.5-0.441,0.959-0.895,1.33c-0.711,0.581-1.809,0.941-3.277,0.88
		c-0.119-0.005-0.249-0.018-0.39-0.038h-0.002c-2.698-0.383-6.079-3.656-5.514-7.633c0.169-1.189,0.539-2.327,1.278-3.323
		c0.684-0.922,1.674-1.712,3.098-2.294c0-0.022-0.001-0.045-0.001-0.067c0-1.19,0.581-2.548,1.537-3.651
		C61.942,103.751,62.401,103.338,62.911,102.995L62.911,102.995z"/>
	<path fill="#BD9D61" stroke="#BD9D61" stroke-width="0.216" stroke-miterlimit="22.9256" d="M90.181,102H33.559
		c-1.495,0-2.647,0.387-3.465,1.048h-0.002c-0.904,0.732-1.387,1.781-1.465,3.005c-0.005,0.072-0.006,0.153-0.004,0.241
		c0.016,0.706,0.302,1.51,0.867,2.154s1.405,1.13,2.526,1.203c0.122,0.008,0.254,0.01,0.397,0.007c0.001,0,0.001,0,0.002,0h-0.002
		c0.001,0,0.001,0,0.002,0c0.449-0.011,0.853-0.086,1.21-0.215c0.682-0.247,1.178-0.684,1.5-1.242
		c0.312-0.541,0.455-1.191,0.439-1.885v-0.002c-0.006-0.236-0.03-0.478-0.072-0.724c0.629,0.324,1.104,0.767,1.438,1.275v-0.002
		c0.425,0.647,0.625,1.408,0.623,2.172c-0.002,0.772-0.208,1.544-0.592,2.209c-0.41,0.709-1.025,1.295-1.812,1.624
		c-0.062,0.012-0.125,0.035-0.188,0.058c-1.673,0.607-3.226,0.626-4.56,0.274c-1.573-0.414-2.845-1.34-3.651-2.417
		c-0.568-0.758-0.978-1.609-1.249-2.447c-0.314-0.968-0.44-1.915-0.412-2.676c0.057-1.502,0.801-3.862,2.527-5.561
		c1.206-1.188,2.902-2.047,5.193-2.047h76.653c2.342,0,4.524-0.281,6.533-0.793c4.776-1.217,8.565-3.736,11.162-6.874
		c2.607-3.152,4.013-6.93,4.013-10.647c0-0.951-0.092-1.9-0.28-2.833c2.551,0.786,4.221,2.9,4.901,5.608
		c0.45,1.791,0.471,3.84,0.035,5.943c-0.439,2.116-1.34,4.284-2.733,6.297c-3.723,5.382-10.964,9.665-22.306,8.963
		c-0.475-0.029-0.679,0.723-0.254,0.94c2.229,1.135,3.686,2.651,4.553,4.364c1.006,1.99,1.228,4.257,0.94,6.512
		c-0.419,3.286-2.642,5.701-5.357,7.031c-1.368,0.67-2.86,1.064-4.31,1.154h-0.002c-1.437,0.09-2.826-0.117-4-0.648
		c-1.68-0.759-2.937-2.194-3.274-4.386c-0.189-1.225,0.021-2.237,0.474-2.986c0.329-0.543,0.786-0.949,1.311-1.198
		c0.525-0.249,1.12-0.341,1.723-0.255c0.798,0.113,1.614,0.539,2.309,1.326c0.235,0.266,0.689,0.191,0.827-0.136
		c0.314-0.745,0.409-1.399,0.336-1.969c-0.077-0.608-0.339-1.11-0.724-1.519c-0.366-0.389-0.843-0.69-1.376-0.915
		c-1.268-0.535-2.887-0.643-4.027-0.498c-2.872,0.365-6.49,3.581-10.942,7.538c-8.71,7.741-20.683,18.384-35.575,15.275
		c-2.015-0.42-3.391-0.89-4.735-1.433c17.524,2.207,25-6.423,31.979-14.484c5.383-6.217,10.464-12.086,19.76-12.089
		c3.143-0.001,5.442,0.781,7.138,1.968c1.693,1.185,2.797,2.778,3.55,4.4c0.29,0.626,0.418,1.267,0.418,1.904
		c0,1.363-0.586,2.708-1.43,3.835c-0.853,1.139-1.963,2.048-2.997,2.528c-0.493,0.228-0.961,0.355-1.363,0.355
		c-0.248,0-0.497,0-0.497,0.497s0.249,0.497,0.497,0.497c0.546,0,1.156-0.16,1.779-0.448c1.172-0.543,2.421-1.563,3.373-2.835
		c0.963-1.285,1.631-2.836,1.632-4.429c0-0.772-0.157-1.554-0.512-2.319c-0.818-1.766-2.025-3.502-3.879-4.8
		c-1.851-1.295-4.337-2.147-7.709-2.147c-9.747,0.002-14.973,6.039-20.509,12.434c-7.308,8.442-15.173,17.525-35.052,13.498
		c-3.801-1.699-7.206-3.559-10.227-5.601c-3.416-2.309-6.335-4.85-8.778-7.652c-2.91-3.339-4.14-6.121-4.41-8.584
		c-0.269-2.45,0.412-4.616,1.328-6.708c0.114-0.261-0.052-0.603-0.326-0.677c-3.044-0.824-5.745-2.023-7.774-4.07
		c-2.023-2.042-3.399-4.949-3.811-9.205c-0.319-3.293,0.458-6.852,2.162-9.605c1.501-2.425,3.726-4.218,6.553-4.62
		c1.746-0.249,5.572,0.199,6.061,2.191c-0.635,0.029-1.24,0.085-1.817,0.165c-3.797,0.527-6.174,2.111-7.595,4.078
		c-1.421,1.968-1.871,4.304-1.828,6.351c0.011,0.504,0.052,0.998,0.118,1.469c0.314,2.261,1.25,4.052,2.742,5.468
		c1.47,1.396,3.471,2.415,5.944,3.156c0.238,0.071,0.476,0.143,0.618-0.333c0.142-0.476-0.096-0.547-0.334-0.618
		c-2.326-0.697-4.195-1.642-5.544-2.923c-1.328-1.26-2.161-2.86-2.442-4.886c-0.059-0.421-0.096-0.875-0.106-1.353
		c-0.039-1.867,0.364-3.988,1.638-5.752c1.275-1.765,3.437-3.189,6.927-3.674c0.671-0.093,1.397-0.151,2.183-0.17
		c0.029,0.004,0.058,0.004,0.087,0.001c0.019-0.002,0.038-0.003,0.057-0.005c0.032-0.001,0.064-0.003,0.095-0.007
		c0.168-0.011,0.327-0.016,0.477-0.012c1.245,0.024,2.349,0.459,3.165,1.173c0.805,0.706,1.332,1.689,1.433,2.819
		c0.016,0.172,0.022,0.337,0.019,0.494c-0.027,1.447-0.582,2.438-1.374,3.025c-0.494,0.365-1.085,0.58-1.703,0.654
		c-0.628,0.075-1.278,0.005-1.88-0.198c-1.061-0.359-1.969-1.133-2.318-2.259c-0.098-0.315-0.506-0.449-0.771-0.25
		c-0.727,0.545-1.188,1.198-1.393,1.893c-0.216,0.735-0.144,1.504,0.201,2.233c0.331,0.697,0.915,1.357,1.739,1.907
		c1.366,0.913,3.414,1.538,6.076,1.538l83.13,0.001c0.011,0,0.023,0,0.035,0c0,0,0,0,0.001,0h0.446c0.047,0,0.089-0.009,0.127-0.025
		c1.373-0.122,2.295-0.687,2.84-1.455c0.352-0.497,0.542-1.068,0.592-1.656c0.048-0.571-0.037-1.166-0.234-1.723
		c-0.414-1.172-1.336-2.177-2.566-2.467c-2.111-0.499-8.013-1.023-16.007-1.312c-6.527-0.236-14.465-0.318-22.889-0.105
		c-0.249,0.006-0.497,0.012-0.485,0.509c0.012,0.497,0.26,0.491,0.508,0.485c8.4-0.212,16.318-0.13,22.831,0.105
		c7.937,0.287,13.765,0.8,15.817,1.285c0.877,0.207,1.545,0.954,1.855,1.83c0.149,0.42,0.213,0.873,0.176,1.311
		c-0.035,0.422-0.166,0.825-0.406,1.162c-0.406,0.571-1.14,0.986-2.282,1.052c-0.286-0.043-0.59-0.227-0.825-0.484
		c-0.157-0.171-0.277-0.368-0.336-0.569c-0.054-0.183-0.057-0.375,0.009-0.556c0.098-0.266,0.352-0.531,0.828-0.758
		c0.427-0.203,0.259-0.946-0.214-0.946H75.87h-1.149c-7.129-0.039-16.526-0.802-24.318-3.962
		c-8.122-3.294-14.504-9.215-14.68-19.691c-0.1-5.937,1.911-10.811,5.002-14.557c3.721-4.509,9.007-7.394,14.073-8.537
		c0.242-0.055,0.485-0.11,0.376-0.593c-0.109-0.484-0.351-0.429-0.593-0.374c-5.26,1.188-10.751,4.186-14.621,8.875
		c-3.233,3.917-5.335,9.008-5.231,15.202c0.183,10.974,6.835,17.163,15.301,20.596c3.618,1.468,7.568,2.428,11.479,3.042h-9.041
		c-5.526,0-11.245-2.731-15.453-7.301c-3.857-4.189-6.438-9.922-6.433-16.513c0.002-3.396,0.542-7.545,2.04-11.468
		c1.174-3.075,2.94-6.012,5.5-8.333c0.341-0.309,0.026-0.944-0.427-0.856c-4.515,0.876-8.417,2.585-11.25,4.6
		c-3.101,2.206-4.947,4.805-4.97,7.131c-0.004,0.419,0.527,0.653,0.835,0.369c1.265-1.171,2.342-1.769,3.228-1.938
		c0.626-0.119,1.151-0.016,1.573,0.253c0.437,0.279,0.778,0.739,1.016,1.319c0.422,1.028,0.52,2.41,0.27,3.85
		c-0.043,0.244-0.092,0.508-0.152,0.787c-1.34,1.624-2.759,2.485-4.128,2.773c-1.206,0.253-2.385,0.06-3.441-0.447
		c-1.072-0.515-2.019-1.353-2.745-2.38c-1.06-1.499-1.647-3.393-1.467-5.268c0.394-4.089,3.586-8.16,8.375-11.242
		c4.688-3.017,10.893-5.073,17.511-5.275c0.248-0.008,0.497-0.015,0.483-0.512c-0.014-0.497-0.262-0.49-0.511-0.482
		c-6.804,0.208-13.189,2.326-18.019,5.435c-5.039,3.243-8.402,7.579-8.826,11.984c-0.204,2.12,0.453,4.251,1.642,5.932
		c0.823,1.164,1.902,2.117,3.129,2.706c1.242,0.596,2.636,0.822,4.07,0.521c1.108-0.232,2.234-0.778,3.323-1.709
		c-0.218,0.547-0.49,1.09-0.833,1.592c-0.946,1.383-2.46,2.475-4.934,2.488c-0.45,0.002-0.875-0.03-1.277-0.094
		c-2.385-0.378-4.204-1.854-5.432-3.748c-1.244-1.921-1.883-4.267-1.894-6.352c-0.003-0.52,0.033-1.016,0.106-1.477
		c0.93-5.867,3.864-10.266,8.148-13.846c4.324-3.614,10.032-6.405,16.449-9.026c0.249-0.102,0.378-0.446,0.256-0.686
		c-0.482-0.946-0.717-1.984-0.702-2.994c0.013-0.928,0.239-1.829,0.678-2.607c0.433-0.768,1.079-1.418,1.94-1.857
		c0.619-0.315,1.351-0.522,2.199-0.586c-0.18,0.593-0.294,1.218-0.345,1.86c-0.156,1.969,0.281,4.127,1.273,6.015
		c0.996,1.896,2.554,3.521,4.636,4.413c0.871,0.373,1.826,0.617,2.862,0.7c7.783,0.616,15.443-4.35,22.237-8.756
		c4.931-3.197,9.395-6.092,12.975-6.229c0.809-0.031,1.625,0.097,2.379,0.359l-0.002-0.002c0.917,0.319,1.739,0.834,2.338,1.5
		c0.58,0.645,0.949,1.435,0.983,2.324c0.01,0.27-0.01,0.55-0.063,0.838c-2.753-1.771-5.548-1.824-8.195-1.028
		c-2.774,0.834-5.363,2.602-7.558,4.275c-0.283,0.216-0.24,0.676,0.078,0.837c1.58,0.797,3.257,1.373,5.004,1.743
		c1.811,0.384,3.694,0.549,5.622,0.516c0.249-0.004,0.497-0.009,0.489-0.506s-0.256-0.493-0.505-0.488
		c-0.928,0.016-1.844-0.015-2.744-0.096c0.263-0.876,0.42-1.75,0.472-2.621c0.057-0.936-0.008-1.874-0.194-2.816
		c2.449-0.648,5.022-0.461,7.536,1.39c0.259,0.191,0.658,0.065,0.763-0.239c0.223-0.641,0.312-1.258,0.29-1.841
		c-0.043-1.137-0.508-2.14-1.239-2.953c-0.711-0.791-1.678-1.4-2.75-1.772l-0.002-0.002c-0.868-0.301-1.807-0.449-2.736-0.413
		c-3.849,0.147-8.426,3.115-13.48,6.392c-6.658,4.317-14.163,9.183-21.62,8.593c-0.935-0.074-1.786-0.29-2.552-0.618
		c-1.856-0.795-3.25-2.255-4.147-3.963c-0.901-1.716-1.298-3.68-1.156-5.475c0.067-0.841,0.25-1.637,0.553-2.345
		c0.032-0.074,0.064-0.147,0.077-0.22c0.495-1.173,1.517-2.448,2.84-3.265c1.122-0.694,2.46-1.049,3.864-0.711
		c1.347,0.324,2.063,1.215,2.252,2.107c0.075,0.352,0.069,0.701-0.011,1.01c-0.076,0.294-0.218,0.552-0.422,0.741
		c-0.383,0.356-1.015,0.471-1.868,0.121c-0.256-0.105-0.591,0.059-0.666,0.324c-0.392,1.388-0.32,2.492,0.102,3.342
		c0.489,0.983,1.421,1.596,2.634,1.896c1.138,0.281,2.531,0.285,4.031,0.062c4.004-0.598,8.849-2.835,11.563-5.738
		c1.492-1.595,6.31-4.811,11.689-6.708c3.011-1.061,6.185-1.702,9.022-1.398c2.774,0.297,5.234,1.51,6.898,4.145
		c1.155,1.829,1.937,4.35,2.194,7.733c0.02,0.26,0.299,0.488,0.559,0.454c5.229-0.676,9.973,0.504,13.574,2.619
		c4.011,2.356,6.591,5.861,6.807,9.223c0.025,0.386,0.02,0.781-0.013,1.181c-0.165,1.996-1.027,4.031-2.313,5.595
		c-1.267,1.54-2.94,2.618-4.751,2.735c-0.242,0.016-0.489,0.014-0.742-0.007c-1.129-0.093-2.166-0.305-2.908-0.729
		c-0.668-0.381-1.101-0.951-1.135-1.793c0-0.001,0-0.002,0-0.002v0.002c0-0.001,0-0.002,0-0.002
		c-0.022-0.586,0.105-1.086,0.343-1.471c0.163-0.264,0.38-0.477,0.637-0.627c0.255-0.149,0.551-0.235,0.874-0.248
		c0.491-0.019,1.041,0.128,1.606,0.477c0.264,0.163,0.642,0.021,0.734-0.274c0.248-0.794,0.236-1.512,0.006-2.14
		c-0.191-0.521-0.53-0.971-0.992-1.341c-0.442-0.354-0.996-0.635-1.64-0.836c-2.09-0.652-5.213-0.482-8.549,0.741
		c-0.187,0.068-0.349,0.344-0.318,0.542c0.464,2.943,0.652,5.961-0.22,8.462c-0.853,2.447-2.748,4.427-6.458,5.394
		c-1.237,0.322-2.875,0.368-4.233-0.039c-1.019-0.306-1.866-0.869-2.208-1.767c-0.5-1.31-0.318-2.316,0.188-3
		c0.252-0.341,0.585-0.608,0.956-0.797c0.372-0.19,0.781-0.3,1.182-0.325c0.712-0.045,1.38,0.18,1.712,0.701
		c0.19,0.298,0.648,0.297,0.839,0c0.552-0.863,0.769-1.66,0.739-2.379c-0.025-0.625-0.235-1.182-0.574-1.669
		c-0.326-0.469-0.768-0.866-1.274-1.189c-1.157-0.74-2.677-1.108-3.878-1.06c-4.37,0.177-9.418,3.894-13.753,7.085
		c-3.152,2.321-5.914,4.354-7.561,4.421c-1.449,0.059-2.72-0.191-3.836-0.702c-1.029-0.471-1.936-1.166-2.736-2.049
		c-0.026-0.031-0.054-0.062-0.082-0.093c-0.738-0.805-1.164-2.019-1.137-3.277c0.013-0.621,0.136-1.249,0.386-1.837
		c0.249-0.586,0.625-1.14,1.146-1.618c1.09-1,2.82-1.665,5.348-1.612c1.161,0.025,2.202,0.514,2.983,1.243
		c0.834,0.779,1.369,1.828,1.436,2.873c0.065,1.023-0.317,2.048-0.984,2.812c-0.633,0.727-1.522,1.215-2.519,1.237
		c-1.748,0.038-2.744-0.567-3.162-1.346c-0.15-0.279-0.227-0.585-0.239-0.892c-0.012-0.312,0.043-0.621,0.157-0.903
		c0.277-0.688,0.909-1.226,1.777-1.247c0.249-0.006,0.497-0.012,0.485-0.509c-0.011-0.497-0.26-0.491-0.508-0.485
		c-1.307,0.032-2.258,0.839-2.674,1.872c-0.167,0.413-0.247,0.861-0.23,1.307c0.017,0.451,0.133,0.905,0.359,1.327
		c0.578,1.078,1.869,1.918,4.055,1.87c1.294-0.028,2.437-0.652,3.246-1.579c0.835-0.957,1.314-2.241,1.232-3.526
		c-0.083-1.295-0.737-2.586-1.755-3.537c-0.949-0.887-2.218-1.481-3.639-1.511c-2.813-0.06-4.773,0.714-6.04,1.876
		c-0.628,0.576-1.083,1.248-1.387,1.963c-0.302,0.714-0.451,1.465-0.467,2.202c-0.025,1.168,0.285,2.313,0.848,3.231
		c-2.448,0.935-4.463,2.198-5.919,3.858c-1.593,1.817-2.51,4.094-2.586,6.917c-0.049,1.811,0.476,3.186,1.211,4.177
		c1.084,1.462,2.655,2.084,3.543,2.048c0.47-0.019,1.519-0.177,2.397-0.674l0.002-0.002c0.419-0.237,0.806-0.553,1.085-0.969
		c0.288-0.429,0.459-0.951,0.433-1.585c-0.025-0.614-0.237-1.333-0.711-2.172c-0.143-0.253-0.523-0.325-0.747-0.14
		c-0.126,0.104-0.248,0.125-0.355,0.086c-0.132-0.048-0.268-0.166-0.397-0.333c-0.151-0.196-0.281-0.45-0.378-0.738
		c-0.271-0.809-0.266-1.844,0.3-2.569c0.163-0.208,0.393-0.392,0.669-0.547c0.65-0.365,1.531-0.554,2.412-0.53
		c0.868,0.024,1.719,0.254,2.324,0.726c0.195,0.153,0.365,0.332,0.502,0.539c0.027,0.065,0.07,0.126,0.113,0.188
		c0.985,1.429,1.484,3.578,1.557,5.77c0.078,2.356-0.337,4.734-1.169,6.304c-0.994,1.874-2.618,3.259-4.788,3.937
		c-2.057,0.642-4.608,0.655-7.587-0.143c-0.24-0.065-0.48-0.129-0.608,0.351c-0.128,0.48,0.112,0.544,0.352,0.608
		c3.17,0.849,5.908,0.828,8.138,0.132c2.431-0.759,4.253-2.316,5.371-4.423c0.913-1.722,1.369-4.284,1.286-6.797
		c-0.059-1.77-0.386-3.529-1.009-4.972c0.761,0.571,1.449,1.515,1.904,2.771c0.597,1.647,0.784,3.814,0.211,6.376
		c-0.077,0.345,0.248,0.668,0.592,0.59c1.078-0.243,2.267-0.29,3.472-0.202c1.424,0.103,2.85,0.391,4.136,0.764
		c0.267,0.077,0.583-0.124,0.627-0.398c1.798-11.103,11.876-10.022,22.185-8.916c1.956,0.21,3.921,0.421,5.763,0.549
		c4.094,0.284,8.188,0.306,11.435-0.255c3.379-0.584,5.863-1.813,6.565-4.045c0.092-0.292-0.135-0.622-0.439-0.644
		c-1.347-0.098-2.519-0.677-3.296-1.589c-0.738-0.867-1.123-2.042-0.964-3.398c0.216-1.846,1.101-3.664,2.643-4.963
		c1.342-1.13,3.188-1.869,5.533-1.893c2.545-0.027,4.933,1.306,6.729,3.29c1.925,2.127,3.164,4.99,3.193,7.732
		c0.028,2.684-1.076,5.754-3.189,8.804c-2.014,2.906-4.939,5.784-8.669,8.288c-1.198,0.734-2.713,1.364-4.517,1.787
		c-1.737,0.408-3.741,0.623-5.988,0.556c-0.248-0.007-0.497-0.015-0.51,0.482s0.235,0.504,0.483,0.512
		c2.332,0.07,4.422-0.156,6.241-0.583c1.824-0.428,3.378-1.061,4.633-1.803c1.635-0.325,3.492,0.203,5.067,1.171
		c1.693,1.042,3.041,2.578,3.424,4.1c0,0.002,0.001,0.005,0.001,0.007v0.001c0.007,0.034,0.016,0.067,0.025,0.101
		c0.273,1.073,0.407,2.174,0.407,3.281c0,3.489-1.326,7.042-3.784,10.014c-2.469,2.984-6.081,5.383-10.641,6.544
		c-1.93,0.492-4.031,0.762-6.289,0.762H32.816c-2.587,0-4.512,0.98-5.888,2.334c-1.93,1.899-2.763,4.546-2.826,6.232
		c-0.032,0.86,0.11,1.927,0.462,3.014c0.302,0.934,0.762,1.886,1.401,2.739c0.93,1.241,2.39,2.307,4.191,2.782
		c1.289,0.339,2.752,0.377,4.318-0.04c-0.003,0.082-0.005,0.162-0.005,0.243c-0.024,7.558,12.982,10.161,20.331,10.184
		c8.674,0.028,14.471-2.725,14.485-7.248c0-0.169-0.005-0.327-0.018-0.475c-0.093-1.092-0.51-1.87-1.098-2.389
		c-0.698-0.616-1.618-0.845-2.515-0.79c-0.508,0.031-1.046,0.189-1.543,0.551c-0.405,0.296-0.779,0.727-1.078,1.336
		c-0.105,0.214,0.002,0.541,0.211,0.654c0.795,0.43,1.288,1,1.484,1.576c0.112,0.331,0.125,0.665,0.038,0.971
		c-0.087,0.307-0.276,0.592-0.565,0.828c-0.535,0.436-1.404,0.706-2.613,0.655c-0.105-0.004-0.203-0.013-0.293-0.026h0.002
		c-2.289-0.325-5.154-3.118-4.671-6.515c0.147-1.038,0.464-2.023,1.092-2.869c0.628-0.846,1.577-1.568,2.995-2.088
		c0.013-0.005,0.026-0.011,0.038-0.017c2.668-0.965,5.257-0.826,7.388,0.053c1.121,0.462,2.116,1.129,2.928,1.946
		c0.808,0.812,1.434,1.774,1.825,2.832c0.622,1.687,0.641,3.621-0.168,5.586c-0.095,0.23-0.189,0.46,0.269,0.648
		c0.458,0.189,0.553-0.041,0.648-0.271c0.912-2.212,0.888-4.396,0.184-6.305c-0.44-1.192-1.145-2.275-2.053-3.189
		c-0.904-0.909-2.009-1.65-3.254-2.163c-2.182-0.899-4.79-1.099-7.488-0.276c0.087-0.887,0.555-1.875,1.277-2.709
		c0.807-0.932,1.922-1.658,3.168-1.825h0.002c0.171-0.023,0.352-0.035,0.542-0.035c1.459,0,2.744,0.131,3.871,0.37
		c2.615,0.554,4.384,1.682,5.494,3.078c1.101,1.385,1.562,3.046,1.562,4.674c0,0.632-0.068,1.255-0.195,1.854
		c-0.101,0.477,0.706,0.762,0.928,0.328c1.083-2.117,2.739-3.972,4.875-5.659c2.16-1.706,4.807-3.238,7.85-4.694
		C90.82,102.742,90.653,102,90.181,102L90.181,102z"/>
	<path fill="#BD9D61" stroke="#BD9D61" stroke-width="0.216" stroke-miterlimit="22.9256" d="M103.308,68.203
		c7.905-0.28,13.825-2.221,18.028-4.761c5.875-3.551,8.418-8.311,8.361-11.405c-0.031-1.667-0.8-3.418-2.114-4.688
		c-1.169-1.129-2.766-1.881-4.657-1.86c-2.047,0.023-5.248,0.802-5.217,3.52c0.001,0.087,0.004,0.16,0.008,0.22
		c0.068,0.905,0.394,1.809,1.138,2.443c0.6,0.513,1.456,0.834,2.643,0.814c0.149-0.002,0.306-0.021,0.468-0.054
		c0.565-0.116,1.129-0.421,1.547-0.876c0.428-0.466,0.709-1.086,0.697-1.819c-0.003-0.166-0.022-0.343-0.061-0.53
		c-0.05-0.243-0.1-0.487-0.585-0.388c-0.485,0.099-0.436,0.342-0.386,0.586c0.023,0.115,0.036,0.231,0.038,0.348
		c0.008,0.456-0.167,0.842-0.433,1.131c-0.276,0.3-0.646,0.501-1.015,0.577c-0.091,0.018-0.186,0.029-0.285,0.031
		c-0.921,0.016-1.559-0.211-1.983-0.573c-0.51-0.436-0.737-1.093-0.788-1.763c-0.005-0.067-0.008-0.119-0.008-0.154
		c-0.022-1.939,2.573-2.5,4.231-2.518c1.609-0.018,2.969,0.621,3.962,1.58c1.123,1.085,1.781,2.576,1.808,3.989
		c0.052,2.814-2.345,7.195-7.879,10.54c-4.073,2.462-9.832,4.344-17.551,4.617c-0.248,0.009-0.497,0.018-0.479,0.515
		C102.812,68.221,103.06,68.212,103.308,68.203L103.308,68.203z"/>
	<path fill="#BD9D61" stroke="#BD9D61" stroke-width="0.216" stroke-miterlimit="22.9256" d="M101.565,79.014
		c0.784-0.035,1.503-0.156,2.141-0.352c0.938-0.288,1.693-0.742,2.211-1.329c0.544-0.617,0.826-1.368,0.788-2.217
		c-0.014-0.304-0.07-0.624-0.173-0.957c-0.146-0.475-0.371-0.903-0.666-1.265c-0.428-0.524-0.997-0.906-1.679-1.089
		c-0.665-0.178-1.432-0.165-2.272,0.093c-0.799,0.246-1.668,0.715-2.578,1.458c-0.433,0.354-0.957,0.6-1.52,0.751
		c-0.925,0.247-1.95,0.234-2.866,0.01c-0.891-0.218-1.668-0.631-2.125-1.192c-0.172-0.211-0.298-0.443-0.365-0.693
		c-0.041-0.154-0.063-0.396-0.043-0.696c0.034-0.522,0.199-1.174,0.61-1.759c0.414-0.589,1.081-1.118,2.125-1.396
		c0.651-0.173,1.451-0.25,2.43-0.186c0.248,0.016,0.496,0.033,0.527-0.464s-0.217-0.513-0.465-0.53
		c-1.083-0.071-1.99,0.019-2.745,0.221c-1.305,0.348-2.152,1.026-2.684,1.785c-0.535,0.762-0.749,1.599-0.792,2.268
		c-0.026,0.403,0.011,0.76,0.078,1.011c0.104,0.391,0.296,0.747,0.555,1.065c0.599,0.733,1.569,1.263,2.661,1.53
		c1.068,0.261,2.267,0.275,3.352-0.014c0.694-0.185,1.345-0.494,1.892-0.941c0.806-0.658,1.561-1.069,2.244-1.279
		c0.651-0.2,1.233-0.214,1.725-0.082c0.475,0.127,0.871,0.392,1.167,0.755c0.214,0.262,0.379,0.577,0.488,0.93
		c0.074,0.243,0.116,0.48,0.126,0.709c0.026,0.584-0.166,1.098-0.536,1.518c-0.396,0.449-0.998,0.803-1.761,1.038
		c-0.549,0.169-1.186,0.274-1.893,0.305c-0.248,0.011-0.497,0.022-0.475,0.52C101.068,79.036,101.316,79.025,101.565,79.014
		L101.565,79.014z"/>
	<path fill="#BD9D61" stroke="#BD9D61" stroke-width="0.216" stroke-miterlimit="22.9256" d="M90.423,77.76
		c-6.051,0.606-9.749-1.379-11.498-4.179c-0.734-1.175-1.128-2.499-1.209-3.836c-0.081-1.344,0.15-2.694,0.666-3.917
		c1.151-2.728,3.724-4.841,7.395-4.842l20.305-0.004c0.248,0,0.497,0,0.497-0.497s-0.248-0.497-0.497-0.497l-20.305,0.004
		c-4.12,0.001-7.011,2.38-8.307,5.451c-0.578,1.369-0.838,2.873-0.748,4.36c0.091,1.494,0.533,2.978,1.36,4.302
		c1.931,3.093,5.944,5.291,12.438,4.641c0.247-0.025,0.495-0.05,0.446-0.543C90.918,77.711,90.67,77.736,90.423,77.76L90.423,77.76z
		"/>
	<g>
		<path fill="#740114" d="M216.183,107.78c-2.199,4.016-4.43,3.902-8.525,4.01c-4.536,0.119-13.214-0.235-18.431-0.058l0.012-12.202
			c8.832,0.064,15.412,0.519,15.419-2.446V46.253h12.839v51.095C217.497,102.858,218.382,103.766,216.183,107.78z"/>
		<path fill="#740114" d="M249.122,92.771c1.232,1.876,2.872,3.401,4.925,4.571c2.052,1.175,4.251,1.759,6.596,1.759
			c2.52,0,4.837-0.584,6.947-1.759c2.11-1.17,3.767-2.696,4.969-4.571c1.2-1.876,1.802-3.84,1.802-5.894V46.073h12.577v41.069
			c0,4.633-1.174,8.81-3.518,12.533c-2.346,3.723-5.527,6.626-9.543,8.706c-4.016,2.081-8.429,3.121-13.235,3.121
			c-4.808,0-9.206-1.04-13.192-3.121c-3.987-2.081-7.138-4.984-9.454-8.706c-2.317-3.723-3.474-7.9-3.474-12.533V46.073h12.752
			v40.804C247.276,88.932,247.891,90.896,249.122,92.771z"/>
		<path fill="#740114" d="M356.349,45.707v67.364h-0.33l-42.367-40.893l0.246,38.255h-12.093V43.156h0.494l42.286,41.511
			l-0.247-38.959L356.349,45.707L356.349,45.707z"/>
		<path fill="#740114" d="M413.479,45.749V58.06h-29.012v13.808h25.68v12.311h-25.68v13.983h30.149v12.312h-41.934V45.748
			L413.479,45.749L413.479,45.749z"/>
		<path fill="#740114" d="M476.254,45.818l-24.508,40.395l0.002,24.321h-14.742l-0.043-24.535l-21.794-40.286l15.323-0.279
			l14.342,30.274l14.874-29.995L476.254,45.818z"/>
		<path fill="#740114" d="M508.799,97.937H487.34l-5.277,12.663h-12.575l29.196-67.277h0.703l29.198,67.277h-14.774L508.799,97.937z
			 M504.578,87.207l-6.244-15.742l-6.509,15.742H504.578z"/>
		<path fill="#740114" d="M537.479,61.829c2.616-5.1,6.164-9.16,10.646-12.18c4.48-3.019,9.337-4.53,14.57-4.53
			c5.231,0,10.089,1.511,14.57,4.53c4.482,3.02,8.056,7.08,10.724,12.18s4.002,10.583,4.002,16.445
			c0,5.98-1.334,11.492-4.002,16.533c-2.668,5.043-6.242,9.044-10.724,12.004c-4.481,2.962-9.339,4.441-14.57,4.441
			c-5.284,0-10.155-1.479-14.609-4.441c-4.456-2.96-7.991-6.961-10.607-12.004c-2.618-5.041-3.925-10.553-3.925-16.533
			C533.554,72.412,534.861,66.93,537.479,61.829z M547.581,88.651c1.58,3.167,3.73,5.673,6.449,7.521
			c2.721,1.845,5.738,2.768,9.055,2.768c3.212,0,6.139-0.923,8.78-2.768c2.643-1.847,4.713-4.34,6.217-7.476
			c1.502-3.136,2.253-6.609,2.253-10.421c0-3.869-0.777-7.387-2.331-10.553c-1.554-3.165-3.665-5.672-6.334-7.518
			c-2.668-1.847-5.633-2.771-8.897-2.771s-6.231,0.924-8.897,2.771c-2.67,1.846-4.78,4.353-6.334,7.518
			c-1.554,3.166-2.331,6.684-2.331,10.553C545.211,82.027,546,85.486,547.581,88.651z"/>
		<path fill="#740114" d="M655.517,97.618h-21.46l-5.277,12.663h-12.575l29.196-67.277h0.703l29.198,67.277h-14.774L655.517,97.618z
			 M651.296,86.888l-6.244-15.742l-6.509,15.742H651.296z"/>
		<path fill="#740114" d="M696.007,45.849v64.726h-12.753V45.849H696.007z"/>
		<path fill="#740114" d="M749.112,110.44l-13.63-20.578h-8.53v20.578h-12.753V45.714h19.613c8.032,0,14.261,1.95,18.687,5.848
			c4.426,3.9,6.641,9.221,6.641,15.962c0,3.987-0.835,7.724-2.506,11.212c-1.671,3.489-4.236,6.23-7.695,8.223l15.037,23.481
			L749.112,110.44L749.112,110.44z M726.952,77.55h9.057c3.46,0,5.982-1.012,7.565-3.035c1.583-2.022,2.374-4.206,2.374-6.551
			c0-2.345-0.674-4.587-2.023-6.728c-1.349-2.139-3.956-3.21-7.827-3.21h-9.145L726.952,77.55L726.952,77.55z"/>
	</g>
</g>
</svg>
