<?xml version="1.0" encoding="utf-8"?>
<!-- Generator: Adobe Illustrator 22.1.0, SVG Export Plug-In . SVG Version: 6.00 Build 0)  -->
<svg version="1.1" id="Ebene_1" xmlns="http://www.w3.org/2000/svg" xmlns:xlink="http://www.w3.org/1999/xlink" x="0px" y="0px"
	 width="1963.4px" height="391px" viewBox="0 0 1963.4 391" style="enable-background:new 0 0 1963.4 391;" xml:space="preserve">
<style type="text/css">
	.st0{fill:#005287;}
</style>
<g>
	<path class="st0" d="M195.5,0C87.5,0,0,87.6,0,195.5C0,303.5,87.6,391,195.5,391c108,0,195.5-87.6,195.5-195.5
		C391,87.5,303.5,0,195.5,0L195.5,0z M309.5,121.7l-133.6,75.1l28.4,16.5l104-59.7V221l-68,37.8l68,12.4v69.7l-296.1-166l41.4-23.6
		l58.5,10.6L309.5,50.2V121.7L309.5,121.7z"/>
	<polygon class="st0" points="525.1,82.9 595.6,82.9 595.6,162.8 672.6,162.8 672.6,82.9 743.4,82.9 743.4,311 672.6,311 
		672.6,218.8 595.6,218.8 595.6,311 525.1,311 	"/>
	<path class="st0" d="M836.4,199.3l-60.5-6.4c2.3-10.6,5.6-18.9,9.9-25s10.5-11.3,18.6-15.8c5.8-3.2,13.8-5.7,24-7.5
		c10.1-1.8,21.1-2.7,33-2.7c19,0,34.3,1.1,45.7,3.2c11.5,2.1,21.1,6.6,28.8,13.3c5.4,4.7,9.7,11.3,12.8,19.8
		c3.1,8.6,4.6,16.7,4.6,24.5v73c0,7.8,0.5,13.9,1.5,18.3c1,4.4,3.1,10,6.5,16.9h-59.4c-2.4-4.3-3.9-7.5-4.7-9.7
		c-0.7-2.2-1.4-5.7-2.2-10.5c-8.3,8-16.6,13.7-24.8,17.1c-11.2,4.6-24.2,6.8-39,6.8c-19.7,0-34.7-4.6-44.9-13.7
		c-10.2-9.1-15.3-20.3-15.3-33.7c0-12.6,3.7-22.9,11-31c7.4-8.1,20.9-14.1,40.7-18c23.8-4.8,39.2-8.1,46.3-10
		c7-1.9,14.5-4.5,22.4-7.5c0-7.8-1.6-13.2-4.8-16.4c-3.2-3.1-8.9-4.7-17-4.7c-10.4,0-18.1,1.7-23.3,5
		C842.2,187.3,838.9,192.2,836.4,199.3L836.4,199.3L836.4,199.3z M891.3,232.6c-8.7,3.1-17.8,5.9-27.2,8.3
		c-12.9,3.4-21,6.8-24.4,10.1c-3.6,3.5-5.3,7.3-5.3,11.7c0,5,1.8,9,5.2,12.2c3.5,3.1,8.6,4.7,15.3,4.7c7.1,0,13.6-1.7,19.7-5.1
		c6.1-3.5,10.4-7.7,12.9-12.5c2.6-4.9,3.8-11.4,3.8-19.2V232.6L891.3,232.6L891.3,232.6z"/>
	<path class="st0" d="M991.2,82.9h63.4v84c8.6-8.9,17.2-15.3,25.7-19.1c8.5-3.9,18.6-5.8,30.2-5.8c17.2,0,30.7,5.3,40.7,15.7
		c9.9,10.5,14.8,26.6,14.8,48.2v105h-63.6V220c0-10.4-1.9-17.7-5.7-22c-3.9-4.4-9.2-6.5-16.2-6.5c-7.7,0-13.9,2.9-18.6,8.7
		c-4.8,5.8-7.2,16.2-7.2,31.3v79.3h-63.4V82.9H991.2z"/>
	<path class="st0" d="M1203.8,145.8h59v26.9c8.8-11,17.7-18.8,26.8-23.5c9-4.7,20-7.1,33-7.1c17.5,0,31.2,5.3,41.2,15.7
		c9.9,10.4,14.8,26.5,14.8,48.3v105H1315v-90.9c0-10.4-1.9-17.7-5.7-22c-3.9-4.4-9.2-6.5-16.2-6.5c-7.7,0-13.9,2.9-18.7,8.7
		c-4.8,5.8-7.2,16.2-7.2,31.3V311h-63.4L1203.8,145.8L1203.8,145.8z"/>
	<path class="st0" d="M1626.3,273.4H1546l-11.1,37.7h-72L1548.6,83h76.9l85.8,228.1h-73.8L1626.3,273.4L1626.3,273.4z M1611.6,224
		l-25.2-82l-25.1,82H1611.6L1611.6,224z"/>
	<path class="st0" d="M1732,82.9h63.4V126H1732V82.9L1732,82.9z M1732,145.8h63.4V311H1732V145.8L1732,145.8z"/>
	<path class="st0" d="M1833.3,145.8h59.3v27c5.7-11.7,11.6-19.8,17.7-24.2c6.1-4.4,13.5-6.6,22.5-6.6c9.3,0,19.6,2.9,30.6,8.7
		l-19.6,45.1c-7.4-3.1-13.4-4.7-17.7-4.7c-8.3,0-14.7,3.5-19.3,10.3c-6.5,9.7-9.8,27.7-9.8,54.2V311h-63.6L1833.3,145.8
		L1833.3,145.8z"/>
</g>
</svg>
