<?xml version="1.0" encoding="utf-8"?>
<!-- Generator: Adobe Illustrator 22.1.0, SVG Export Plug-In . SVG Version: 6.00 Build 0)  -->
<svg version="1.1" id="Слой_1" xmlns="http://www.w3.org/2000/svg" xmlns:xlink="http://www.w3.org/1999/xlink" x="0px" y="0px"
	 viewBox="0 0 624 270.2" style="enable-background:new 0 0 624 270.2;" xml:space="preserve">
<style type="text/css">
	.st0{fill:#193356;}
	.st1{fill:#263E5F;}
</style>
<g>
	<path class="st0" d="M387,14c-2,8.7-4.2,17.5-5.9,26.3c-1,5.3-3.9,8.2-9,9.3c-4.1,0.9-8,2.1-12.1,3.1c-3,0.7-4.9,2.5-6,5.4
		c-1.6,4-3.4,7.9-5.3,12.4c8.3,0,16.1,0,24.7,0c-3.9,11.6-7.5,22.6-11.3,33.8c-8.3,0-16.4,0-24.9,0c-9.8,31-19.6,61.7-29.4,92.5
		c-16.8,0-33.6,0-50.1,0c-1.3-1.5-0.2-2.5,0.1-3.5c16.3-48.3,32.8-96.6,48.9-145c5.5-16.5,16.6-26.8,33-31.8c3.5-1.1,7-2,10.8-1.7
		c10.8,0,21.5,0.1,32.3,0.1c0.9,0,1.6-0.1,2.1-1C385.7,14,386.3,14,387,14z"/>
	<path class="st0" d="M459,14c-0.7,6.5-2.7,12.7-4.6,18.8c-13.8,43.1-25.6,86.7-38.9,130c-0.4,1.4-1.1,2.8-0.4,4.6
		c5,3,11,2.4,17,2.7c-0.8,9.2-2.1,17.8-6.1,25.8c-2.1,4.1-5.2,6.1-10,5.9c-12-0.4-24-0.3-35.9-1.8c-3.3-0.4-6.6-1.1-9.7-2.2
		c-7.8-2.9-11-8.4-10-16.8c0.8-6.5,2.5-12.7,4.3-19c9.6-34.1,20.4-67.8,30.7-101.7c4.3-14.2,8.7-28.3,13-42.5
		c0.4-1.2,1.1-2.4,0.6-3.8c0.7,0,1.3,0,2,0c0.5,1.2,1.6,1,2.6,1c13.6,0,27.2,0,40.9,0c1,0,2,0.2,2.6-1C457.7,14,458.3,14,459,14z"/>
	<path class="st1" d="M394,254c0.2-0.6-0.1-0.8-0.5-1.1c-7-4.7-8.6-11.6-4.6-20c3.6-7.6,11.5-11.3,18.9-9c6.4,2,9.2,8.2,7.1,16
		c-7.3,0-14.7,0-22.1,0c-0.6,5.2,0.7,8,3.9,9.4c3.7,1.6,7.9-0.4,12.1-5.8c1.6-0.5,3.1-0.1,4.6,0.9c-1.4,4.9-6,6.7-9.4,9.6
		C400.7,254,397.3,254,394,254z M393.7,236c5.9-0.1,11.5,0.1,17.1-0.1c-0.9-6.1-2.7-8.4-6.6-8.7C399.5,226.9,395.6,230,393.7,236z"
		/>
	<path class="st1" d="M429,254c-1-1-2.5-0.8-3.7-1.3c-3.9-1.7-5.9-4.6-5.6-8.8c1.5-1.3,3.1-0.3,4.5-0.9c0.3,0.6,0.7,1,0.8,1.4
		c1.8,5.2,6.5,7.3,11.4,5.1c1.5-0.6,2.6-1.5,2.9-3.2c0.3-1.9-0.8-3.2-2.3-4c-1.9-1-3.9-1.8-5.8-2.8c-1.5-0.7-3.1-1.4-4.4-2.3
		c-3.1-2.3-3.8-6.1-1.6-9.3c3.4-4.8,8.3-5.1,13.4-4.2c5.1,0.8,7.2,3.1,8.3,8.4c-1.1,1.4-2.7,0.7-4.5,1c-1.2-2.6-2.6-5.3-6-5.7
		c-3.2-0.4-5.9,0.1-7.4,3.3c0.2,2.5,2,3.2,3.6,4c2.4,1.2,4.9,2.1,7.2,3.3c6.6,3.5,6.9,10,0.7,14.1c-0.9,0.6-2.4,0.4-2.5,1.9
		C435,254,432,254,429,254z"/>
	<path class="st1" d="M458,254c-0.1-0.2-0.2-0.4-0.2-0.6c0-0.1,0.1-0.2,0.1-0.3c18.5,0,36.9,0.1,55.4,0.1c-0.1,0.3-0.2,0.6-0.3,0.8
		C494.7,254,476.3,254,458,254z"/>
	<path class="st1" d="M457,14c-0.5,1.2-1.6,1-2.6,1c-13.6,0-27.2,0-40.9,0c-1,0-2,0.2-2.6-1C426.3,14,441.7,14,457,14z"/>
	<path class="st1" d="M385,14c-0.4,0.9-1.2,1-2.1,1c-10.8-0.1-21.5-0.1-32.3-0.1c0.2-0.3,0.3-0.6,0.4-0.9C362.3,14,373.7,14,385,14z
		"/>
	<path class="st1" d="M138.2,253.1c-0.2,0.3-0.3,0.6-0.2,0.9c-1.3,0-2.7,0-4,0c0-0.3,0-0.7,0.1-1C135.4,253,136.8,253.1,138.2,253.1
		z"/>
	<path class="st0" d="M513.3,253.2c-18.5,0-36.9-0.1-55.4-0.1c3.5-9.9,8.6-19,12.7-28.7c6.3-0.3,12.3,0,18.1-1.4
		c8.8-2.1,14.1-7.6,15.2-16.5c-4-0.4-7.9-0.2-11.8,0c-7.2,0.4-14.3,0.3-21.4-0.5c-1.3-0.2-2.6-0.4-3.9-0.6
		c-12.6-2.5-17.7-10.6-16.4-23.3c0.9-9.3,3-18.4,5.3-27.4c5.9-23.2,13.3-46,19.6-69.1c0.7-2.6,1.4-5.1,2.1-8c15.6,0,31.2,0,46.9,0
		c0.9,0.8,0.1,1.8-0.1,2.7c-4.2,19.9-10.2,39.3-15.6,58.8c-2.3,8.2-4.1,16.5-3.8,25.1c0.1,3.7,0.1,7.8,4,9.5c3.7,1.6,6.7-0.9,9.5-3
		c3.9-3,6.6-6.8,8.1-11.7c7.6-25.8,14.5-51.9,21.6-77.9c0.3-1,0.6-1.9,1.1-3.3c15.8,0,31.7,0,47.8,0c0.5,3.8-0.8,7.4-1.6,11.1
		c-5.2,22.7-11.7,45.1-17.7,67.6c-3.3,12.4-5.9,24.9-9.7,37.2c-5.5,17.6-13.7,33.5-27.5,46.2c-6.3,5.8-13.3,10.5-21.8,12.6
		C516.9,252.9,515.2,253.3,513.3,253.2z"/>
	<path class="st0" d="M138.2,253.1c-1.4,0-2.7-0.1-4.1-0.1c-0.7-4.9,1.3-9.2,3.1-13.4c3.3-7.8,7.8-15,12-22.4
		c6.1-10.9,11.6-22.1,14.2-34.5c1.1-5.1,1.6-10.2,1.8-15.3c0.2-5.9-1.8-10.7-5.4-15.1c-4.4-5.3-9.8-9.5-15.5-13.2
		c-10.9-7.1-22.9-12.2-34.5-17.9C87.4,110,65,99.1,42.6,88.2c-4.6-2.3-9.1-4.9-13.2-8.1c-1-0.8-2.1-1.7-3-2.6
		c-6.4-6.2-5.6-11.2,2.4-15.1c4.8-2.3,9.8-2.1,14.7-1.2c33.1,6.1,65.9,13.1,98,23.1c14.1,4.4,28.8,6.9,43.1,10.5
		c12.3,3,24.5,6.3,36.2,11.3c3.7,1.6,7.2,3.4,10.6,5.6c10.5,6.9,14.1,16.3,10.9,28.5c-2.4,9.4-7.2,17.5-13,25.1
		C217.5,181,205,195.9,192.6,211c-8.4,10.2-17.6,19.6-27.4,28.4c-6.4,5.7-13.3,10.5-21.7,12.9C141.8,252.8,140,253.3,138.2,253.1z"
		/>
	<path class="st0" d="M207.1,30.8c12.7,0.1,20,5.5,24.1,17.7c2.2,6.5,3.3,13.2,1.9,20.1c-1.6,8.2-6.1,14.2-13.9,17.6
		c-6.4,2.8-13.1,3.7-20,2.4c-12.3-2.3-20.2-11.3-22-24.5C174.6,45.6,188.1,30.6,207.1,30.8z"/>
	<path class="st1" d="M287.4,252.8c-2.1,0.7-3.5,0.6-5.3,0.2c-1.4-3.4-1.1-7.3-2.4-11c-5.8,0-11.4,0-17.3,0
		c-2.2,3.6-4.4,7.3-6.6,10.9c-1.9,0.6-3.7,0.4-6.4,0.1c8.1-13.6,16-26.7,23.8-39.8c2.5-0.7,4.7-0.3,7.2-0.3
		C282.8,226.4,285,239.4,287.4,252.8z M279,237.1c-1-6.2-1.9-12.2-3-18.9c-3.8,6.7-7.1,12.6-10.6,18.9
		C270.2,237.1,274.4,237.1,279,237.1z"/>
	<path class="st1" d="M377.6,252.7c-2,0.9-3.6,0.6-5.5,0.3c1.4-6.2,2.8-12.2,4.2-18.1c0.2-1,0.5-1.9,0.6-2.9
		c0.2-2.7-0.8-4.1-3.6-4.3c-4.5-0.2-8,1.7-10.3,5.7c-1.6,2.6-2.1,5.6-2.8,8.5c-0.9,3.5-1.6,7.1-2.4,10.7c-1.5,1.3-3.1,0.8-5.4,0.4
		c2.1-9.6,4.2-19.1,6.2-28.3c1.6-1,2.9-0.7,4-0.6c1.3,0.4,0.6,2,1.5,2.3c0.9,0.3,1.5,0,2-0.3c2.6-1.6,5.2-2.9,8.4-2.7
		c5.3,0.2,8.5,3.6,7.5,8.8C380.8,239.1,379.1,246,377.6,252.7z M363.5,228c0.4-0.3,0.5-0.7,0-1C363.1,227.3,363.1,227.7,363.5,228z"
		/>
	<path class="st1" d="M334.2,213.1c2.1-0.3,3.5-0.7,5.2,0.5c-2.9,13-5.7,26.1-8.6,39.1c-1.9,1-3.4,0.5-5.4,0.3
		C328.4,239.5,331.3,226.4,334.2,213.1z"/>
	<path class="st1" d="M312.1,224.3c1.8-0.4,3.1-0.6,4.4-0.1c0.9,1.5-1.1,2.8,0,4.3c3.4-3.3,6.6-7.3,12.2-4.1c-0.3,1.7-1,2.9-1.8,4.1
		c-5.4-0.8-8.4,0.8-10.9,5.6c-1.7,3.3-2.4,6.9-3.2,10.4c-0.6,2.7-1.3,5.5-1.9,8.1c-1.6,0.8-3,0.6-5.1,0.1
		C307.9,243.4,310,233.9,312.1,224.3z"/>
	<path class="st1" d="M345.4,224.2c2-0.2,3.5-0.5,5.3,0.3c-2.1,9.4-4.2,18.9-6.2,28.2c-1.9,0.9-3.4,0.7-5.4,0.1
		C341.1,243.3,343.2,233.9,345.4,224.2z"/>
	<path class="st1" d="M298.7,224.4c1.9-0.6,3.5-0.8,5.3,0.1c-2.1,9.4-4.1,18.7-6.2,28c-1.6,1.1-3.2,0.8-5.4,0.2
		C294.6,243.3,296.7,233.8,298.7,224.4z"/>
	<path class="st1" d="M301.1,213.3c2.1-0.8,3.5-0.6,5.2-0.4c0.2,2-0.4,3.6-1,5.3c-1.8,0.7-3.4,0.8-4.9,0.1
		C299.9,216.4,301.3,215,301.1,213.3z"/>
	<path class="st1" d="M351.6,218.5c-1.7,0-3,0-4.4,0c-0.6-2,0.1-3.6,0.8-5.3c1.6-0.7,3.2-0.7,4.8-0.1
		C353.1,215,352.6,216.7,351.6,218.5z"/>
</g>
</svg>
