<?xml version="1.0" encoding="utf-8"?>
<!-- Generator: Adobe Illustrator 22.1.0, SVG Export Plug-In . SVG Version: 6.00 Build 0)  -->
<svg version="1.1" id="Слой_1" xmlns="http://www.w3.org/2000/svg" xmlns:xlink="http://www.w3.org/1999/xlink" x="0px" y="0px"
	 width="104.373px" height="23px" viewBox="0 0 104.373 23" style="enable-background:new 0 0 104.373 23;" xml:space="preserve">
<style type="text/css">
	.st0{fill:url(#path70_1_);}
	.st1{fill:url(#path92_1_);}
	.st2{fill:url(#path114_1_);}
</style>
<title>Iberia</title>
<g id="g10" transform="matrix(1.25,0,0,-1.25,-355.64249,617.57738)">
	<g id="g50" transform="matrix(2.2133966,0,0,2.2133966,72.763169,-317.04835)">
		<g id="g52">
			<g id="g58">
				<g id="g60">
					
						<linearGradient id="path70_1_" gradientUnits="userSpaceOnUse" x1="-133.4118" y1="225.6395" x2="-133.1509" y2="225.6395" gradientTransform="matrix(0 76.9565 76.9565 0 -17255.418 10625.1416)">
						<stop  offset="0" style="stop-color:#A61C22"/>
						<stop  offset="0.8" style="stop-color:#DA1C2D"/>
						<stop  offset="1" style="stop-color:#DA1C2D"/>
					</linearGradient>
					<path id="path70" class="st0" d="M118.914,365.625c-0.334-0.497-0.701-1.117-1.104-1.912l0,0c-0.407-0.8-0.773-1.62-1-2.243
						l0,0h1.356c0.083,0.26,0.184,0.523,0.291,0.77l0,0h2.228c0.108-0.246,0.203-0.493,0.292-0.77l0,0h1.356
						c-0.241,0.625-0.592,1.439-0.998,2.239l0,0c-0.404,0.796-0.766,1.419-1.107,1.917l0,0H118.914L118.914,365.625z
						 M119.57,364.643c0.28-0.501,0.531-1.009,0.81-1.634l0,0h-1.618C119.034,363.622,119.286,364.13,119.57,364.643
						 M109.193,365.625c-0.066-0.637-0.1-1.397-0.1-2.077l0,0c0-0.676,0.034-1.355,0.101-2.078l0,0h1.285
						c-0.055,0.538-0.082,0.999-0.101,1.543l0,0h1.293c0.094-0.104,0.249-0.302,0.411-0.559l0,0
						c0.189-0.297,0.335-0.589,0.497-0.984l0,0h1.437c-0.189,0.36-0.393,0.685-0.7,1.118l0,0c-0.176,0.247-0.342,0.448-0.494,0.599
						l0,0c0.539,0.189,0.873,0.645,0.873,1.198l0,0c0,0.316-0.114,0.616-0.311,0.822l0,0c-0.281,0.29-0.716,0.419-1.413,0.419l0,0
						H109.193L109.193,365.625z M110.417,364.847h1.131c0.416,0,0.619-0.051,0.748-0.189l0,0c0.077-0.077,0.123-0.201,0.123-0.331
						l0,0c0-0.224-0.116-0.422-0.318-0.547l0,0h-1.723C110.378,364.088,110.391,364.438,110.417,364.847 M104.055,365.625
						c-0.061-0.659-0.101-1.404-0.101-2.08l0,0c0-0.673,0.045-1.412,0.101-2.076l0,0h3.965c-0.021,0.277-0.037,0.53-0.051,0.829l0,0
						h-2.699c-0.021,0.311-0.031,0.598-0.031,0.878l0,0h2.49v0.784h-2.49c0,0.228,0.008,0.561,0.031,0.837l0,0h2.696
						c0.013,0.291,0.029,0.536,0.056,0.828l0,0H104.055L104.055,365.625z M98.396,365.625c-0.066-0.621-0.101-1.403-0.101-2.077l0,0
						c0-0.676,0.031-1.337,0.101-2.078l0,0h2.45c0.867,0,1.401,0.1,1.732,0.327l0,0c0.255,0.175,0.414,0.524,0.414,0.91l0,0
						c0,0.454-0.259,0.817-0.714,1.002l0,0c0.303,0.17,0.495,0.498,0.495,0.852l0,0c0,0.328-0.095,0.555-0.307,0.736l0,0
						c-0.357,0.304-1.012,0.329-1.709,0.329l0,0H98.396z M99.619,364.839h1.087c0.439,0,0.586-0.033,0.712-0.16l0,0
						c0.064-0.065,0.103-0.18,0.103-0.307l0,0c0-0.176-0.071-0.327-0.2-0.427l0,0h-1.74
						C99.585,364.256,99.598,364.545,99.619,364.839 M99.58,363.192h1.565c0.226,0,0.342-0.031,0.443-0.117l0,0
						c0.095-0.081,0.139-0.182,0.139-0.318l0,0c0-0.143-0.041-0.254-0.127-0.339l0,0c-0.122-0.114-0.294-0.163-0.593-0.163l0,0
						h-1.388C99.592,362.586,99.581,362.919,99.58,363.192 M114.959,365.625c-0.066-0.595-0.103-1.378-0.102-2.113l0,0
						c0.002-0.704,0.029-1.381,0.102-2.042l0,0h1.106c0.075,0.658,0.099,1.337,0.101,2.043l0,0c0.002,0.733-0.04,1.523-0.1,2.112
						l0,0H114.959L114.959,365.625z M95.769,365.625c-0.066-0.595-0.103-1.378-0.101-2.113l0,0c0.002-0.704,0.029-1.381,0.101-2.042
						l0,0h1.107c0.074,0.658,0.099,1.337,0.101,2.043l0,0c0.002,0.733-0.04,1.523-0.1,2.112l0,0H95.769L95.769,365.625z"/>
				</g>
			</g>
		</g>
	</g>
	<g id="g72" transform="matrix(2.2133966,0,0,2.2133966,72.763169,-317.04835)">
		<g id="g74">
			<g id="g80">
				<g id="g82">
					
						<linearGradient id="path92_1_" gradientUnits="userSpaceOnUse" x1="-131.3509" y1="224.5493" x2="-131.09" y2="224.5493" gradientTransform="matrix(106.9535 61.7496 61.7496 -106.9535 305.2802 32484.7734)">
						<stop  offset="0" style="stop-color:#A61C22"/>
						<stop  offset="0.5" style="stop-color:#DC1C2E"/>
						<stop  offset="1" style="stop-color:#DC1C2E"/>
					</linearGradient>
					<path id="path92" class="st1" d="M124.288,360.114l-1.954-1.972v0c6.781,0,8.38,1.594,9.313,3.764l0,0l0.783,2.043
						C130.146,363.883,126.698,362.537,124.288,360.114"/>
				</g>
			</g>
		</g>
	</g>
	<g id="g94" transform="matrix(2.2133966,0,0,2.2133966,72.763169,-317.04835)">
		<g id="g96">
			<g id="g102">
				<g id="g104">
					
						<linearGradient id="path114_1_" gradientUnits="userSpaceOnUse" x1="-131.2504" y1="225.3069" x2="-130.9894" y2="225.3069" gradientTransform="matrix(71.8156 41.4627 41.4627 -71.8156 210.5457 21985.1895)">
						<stop  offset="0" style="stop-color:#ED7417"/>
						<stop  offset="0.85" style="stop-color:#FACD08"/>
						<stop  offset="1" style="stop-color:#FACD08"/>
					</linearGradient>
					<path id="path114" class="st2" d="M128.843,364.726l-2.198-2.227c2.087,1.499,4.168,2.403,6.241,2.637l0,0l0.505,1.318
						C130.322,366.455,129.904,365.784,128.843,364.726"/>
				</g>
			</g>
		</g>
	</g>
</g>
</svg>
