<?xml version="1.0" encoding="utf-8"?>
<!-- Generator: Adobe Illustrator 22.1.0, SVG Export Plug-In . SVG Version: 6.00 Build 0)  -->
<svg version="1.1" id="Слой_1" xmlns="http://www.w3.org/2000/svg" xmlns:xlink="http://www.w3.org/1999/xlink" x="0px" y="0px"
	 width="1865px" height="832.8px" viewBox="0 0 1865 832.8" enable-background="new 0 0 1865 832.8" xml:space="preserve">
<g>
	<g>
		<path fill="#DC2155" d="M380.6,569.9c14.7-4.6,141.1-20.5,140.7-18.7c6.6,0.1,58.1-18.6,72-26.7c0.5-5.3,0.7-10.6,1.6-15.8
			c3.1-18.1,11.3-34,21.7-48.8c14.8-21.3,34.2-38,54.9-53.3c24.9-18.5,51.4-34.5,79.5-47.6c17.9-8.4,36.4-15.3,55.2-21.6
			c15.8-5.3,31.9-9.2,48.1-12.9c18.6-4.3,37.5-5.3,56.3-0.8c12.9,3.1,23.5,10.1,31.3,20.8c5.2,7,6.4,14.9,2.6,23
			c-3.4,7.1-9.4,10.5-17,11.2c-1.6,0.1-3.2,0.2-5.3,0.3c1.7,2.2,3.8,3,5.5,4.1c4.6,3,8.9,6.4,12.5,10.6c7.3,8.4,9.2,17.7,4.6,28.2
			c-2.8,6.3-6.7,11.9-11.3,17c-13.5,14.9-25.9,30.8-38.2,46.7c-6.9,8.9-11.8,18.4-15.9,28.5c-2.1,5.3-3,10.9-3.6,16.5
			c-0.9,7.9,6.4,18.4,14,20.5c5.2,1.5,10.3-0.2,15.1-1.9c8.9-3,17-7.5,25.1-12c14.9-8.2,28.5-18.3,41.6-29.2
			c17.1-14.3,33.8-29.2,50-44.4c18.7-17.6,36-36.5,50.8-57.5c3.1-4.5,6.1-9,8.4-14.5c-12.9-0.2-25.3,0-37.8,1.1
			c-12.2,1.1-24.3,2.3-36.6,5.6c0.4-3.9,2.7-6.2,4.2-8.9c7.8-13.8,16-27.3,25.1-40.2c9-12.8,18.6-25.1,30.5-35.5
			c15.5-13.5,33.5-20.6,53.9-22.2c11.8-1,23.5-2.2,35.4-1.9c0.6,0,1.3-0.2,2.1-0.3c5.1-9.6,10.5-18.9,16.9-27.6
			c11.8-15.8,25.4-29.5,43.3-38.4c7.9-3.9,16.2-6,24.9-6.3c5.1-0.1,10.3,0.5,15.1,2.7c10.3,4.7,13.7,14,12.3,23.8
			c-1.6,10.5-6.7,19.4-12.9,27.8c-4.4,5.9-9.6,11-14.5,16.4c-0.4,0.5-1,0.9-1,1.8c7.9,1.8,16,2,24.1,3c8,1,16.1,1.8,24.8,2.7
			c-1.6,3.6-2.8,6.6-4.2,9.6c-7.9,16.7-15.6,33.5-26.1,48.8c-7.4,10.8-15.9,20.5-26.5,28.3c-6.7,4.9-14.3,7.8-22.3,9.6
			c-10.4,2.4-21,3-31.7,2.6c-9.3-0.3-18.6-1.5-28-1.8c-3.4,3.7-5.6,8-8,12.1c-11,18.2-22,36.5-31.8,55.4
			c-8.9,17.1-17.2,34.5-23.1,53c-3.1,9.7-5.8,19.4-5.4,29.8c0.1,2.7,0.6,5.3,1.4,7.8c2.5,7.9,8.3,12.2,16.6,12.5
			c10.1,0.4,19.4-2.7,28.5-6.4c19-7.9,36.2-19,52.9-30.8c16.9-11.9,32.9-24.9,48.4-38.6c2.4-2.1,3.9-4.5,5-7.2
			c7.4-17.7,16-34.8,26.9-50.5c12.3-17.7,25.5-34.6,42.4-48.2c12.1-9.6,24.3-19.2,37.5-27.3c9.6-5.8,20.1-8.1,31.4-7.5
			c9.8,0.5,18.6,3.2,26.7,8.4c5.3,3.4,7.9,8.3,8.2,14.6c0.5,8.2-1.8,15.8-5.3,23.1c-6.8,14-15.6,26.7-25.7,38.6
			c-14.9,17.7-31.3,34.1-48.6,49.4c-10.5,9.2-21.3,18.1-33.4,25.4c-1.9,8-2.2,16,0.2,23.7c4.2,13.3,14,20.1,27.4,22.2
			c17.6,2.8,34-1.8,50-8.4c23.9-9.8,44.5-24.5,63.6-41.6c5.4-4.9,10.7-9.9,16.2-15c0.7,1.5,1.2,2.9,2,4.5c2.1-13,4.9-25.4,10.4-37.1
			c3.1-6.6,7.2-12.7,11.2-18.9c14.4-22.4,29.4-44.4,45-66c12.5-17.3,25.4-34.2,38.8-50.8c26-32.3,54.1-62.8,84.3-91.3
			c24.3-23,49.5-45,75.9-65.6c19.4-15.1,39.3-29.7,60-43c11.9-7.7,24.4-14.3,38.4-17.5c5-1.2,10.1-1.8,15.3-0.4
			c5.8,1.5,9.2,5.3,10.2,11c0.9,5.2,0.7,10.5-0.7,15.8c-2.9,11.1-8.6,20.8-14.3,30.6c-11.1,19.3-25.5,36.1-40.5,52.4
			c-17.1,18.6-34.8,36.7-52.4,54.9c-29.2,30-59,59.2-88.5,88.9c-18.1,18.2-36.1,36.5-54.1,54.7c-11.7,11.9-23.4,23.7-34.9,35.7
			c-17.3,18-34.4,36.2-50.6,55.2c-4,4.7-5.7,9.5-4.4,15.5c1.8,0.3,2.7-1.1,3.8-2c24.8-20.2,49.3-40.7,74.3-60.5
			c25-19.9,49.6-40.2,74.9-59.8c13.5-10.4,28.1-18.9,42.2-28.4c12-8.1,24.5-15.5,37.6-21.7c8.6-4.1,17.7-6.9,26.9-9
			c13.3-3.1,24.8,1.2,35.5,9c9.2,6.7,15.4,15.5,18.9,26.2c0.8,2.4,1.2,4.8,1.4,7.3c1.4,15-1.8,29.1-8.1,42.6
			c-8.3,17.7-19.6,33.2-33.9,46.5c-10.2,9.5-21.8,16.9-33.5,24.2c-22.5,13.9-46.4,25.3-69.9,37.5c-5.9,3.1-11.6,6.4-17.8,9.8
			c4.6,8.2,10.1,15.2,17.4,20.6c13.8,10.2,29.3,11.8,45.6,8.5c14.7-3,27.9-9.4,40.9-16.7c9.6-5.4,19-11,27.8-17.6
			c13.4-10.1,26.6-20.5,39.3-31.6c7.3-6.4,14.6-12.7,21.9-19c0.5-0.4,1.1-0.6,2.2-1.3c4.3,12.6,8.6,24.9,12.8,37.3
			c-4.6,4.1-8.7,8-12.9,11.7c-25.2,22.2-50.9,44-78,63.9c-18.5,13.6-37.7,26.2-58.6,36c-10.2,4.8-20.7,9-31.8,11.6
			c-21.3,5-40.5,1-57.6-12.9c-9.1-7.4-16.8-16.1-23.9-25.3c-14.9-19.2-28-39.7-42.9-58.9c-1.1-1.4-2-3-3.6-4c-1.3,0-1.6,1.1-2.1,1.9
			c-6.9,13.2-15.4,25.3-25.2,36.4c-8.2,9.4-15.8,19.3-23.4,29.3c-2.4,3.2-5.2,6-8.2,8.7c-6.8,5.9-18.5,6-25.1-3
			c-4-5.4-7-11.4-9.1-17.6c-5-15-8.2-30.5-9.3-46.3c-0.3-4.5-0.7-8.9-1.1-13.4c-0.5-0.4-0.9-0.2-1.2,0.1
			c-11.4,13.2-23.8,25.6-36.8,37.3c-21.2,19.3-43.6,37.2-68.7,51.1c-10.8,6-22.2,10.8-34.4,13.1c-17,3.3-33.5,1.9-48.9-6.6
			c-8.1-4.4-14.5-10.7-19.3-18.4c-8.7-14-13.9-29.4-16.5-45.6c-1.3-8.1-1.4-16.2-2.1-24.3c-1.5-0.4-1.9,1-2.7,1.7
			c-25.7,24-52.5,46.6-82.2,65.7c-19.9,12.8-40.6,24.1-63.2,31.6c-11.9,4-24.1,6.4-36.7,5.3c-10.6-1-21.1-3.3-30.3-9.1
			c-7.5-4.7-12.1-11.9-14.8-20.1c-3.4-10.1-3.6-20.4-2.4-31c1.3-12.3,4.2-24.2,8.4-35.8c2.9-7.8,4.9-15.8,8.1-23.5
			c0.3-0.7,0.4-1.6,0.8-3.3c-8.2,10.4-16.5,19.6-25.1,28.4c-24.1,24.6-50,46.9-79.3,65c-15,9.3-30.5,17.7-47.4,23.2
			c-10.2,3.3-20.6,5.3-31.4,4.5c-13.6-1-24.4-10-27.8-21.5c-2.3-7.9-3-15.9-2.4-24.1c1.6-23.6,8.4-46,16.2-68.1
			c1.1-3.3,2.1-6.6,3.4-10.8c-1.7,1.2-2.9,1.9-3.9,2.7c-23.3,18.6-46.5,37.3-69.7,55.9c-17.4,14-34.8,27.9-52.1,41.9
			c-4.2,3.4-9.2,4.4-14.4,4.8c-14.4,1.1-26.2-4.6-36.9-13.6c-17.8-14.9-29.8-33.8-37.8-55.4c-0.3-0.9-0.5-1.9-1.5-2.8
			c-2.3,1-4.4,2.6-6.5,4c-13.5,9.1-27.2,17.9-41.7,25.5c-20.4,10.7-54.6,23-76.8,28.8c-23.6,6.2-102.9,21.7-125.4,23.9L380.6,569.9z
			 M859.2,404.3c-0.6-0.5-1.1-0.4-1.6-0.3c-14.3,5-28.6,9.7-42.8,15.1c-26.2,10-51.7,21.8-76.1,35.8c-19.9,11.4-39.5,23.4-56.7,38.9
			c-10.9,9.9-20.6,20.8-26.7,34.5c-2.9,6.4-3.9,13.1-3,19.9c1.3,10.1,6.1,13.7,15.5,11.6c9.6-2.1,18.1-6.6,26.2-11.8
			c19.4-12.4,37.4-26.6,55.3-41c17-13.7,33-28.5,48.9-43.4c19.4-18.2,38.4-36.9,57.5-55.4C857,407.1,858.6,406,859.2,404.3z
			 M1748.2,423.1c-2.1-3.5-2.1-3.5-5.3-3.7c-5.2-0.3-10.3,0.9-15.2,2.5c-15.2,4.9-29.8,11.4-44,18.6c-26.6,13.5-51.5,29.7-75.9,46.8
			c-1.8,1.3-3.6,2.7-6.2,4.5c6.9,1,12.8,1.9,17.9,5.1c5.3,3.4,8.4,8.8,12.2,13.6c1.7-0.9,3.3-1.5,4.7-2.4
			c20.7-12.3,41.5-24.6,61.4-38.3c15-10.3,29.3-21.3,42-34.4C1743.4,432,1746.7,428.1,1748.2,423.1z"/>
		<path fill="#794A1F" d="M269.8,471.1c0.1-0.3,0.4-0.6,0.3-0.8c-0.1-0.5-0.4-0.5-0.6,0C269.5,470.5,269.7,470.8,269.8,471.1z"/>
		<path fill="#BC1648" d="M1414.2,332.7c-20.3,0.4-32.6-15.6-33.9-32.8c-0.7-9.3,1.9-18.1,5.5-26.5c1.1-2.4,2.3-4.8,3.4-7.2
			c3.5-7.4,9.4-12.9,15.2-18.2c9.4-8.6,20.2-15,32.8-18c10.4-2.4,20.3-1.4,29,4.8c11.4,7.9,15.2,19.4,13.2,32.7
			c-2.1,14.6-10,26.5-18.7,38c-6.8,8.9-15.4,15.5-25,21.1C1429.3,330.4,1422.1,332.8,1414.2,332.7z"/>
		<path fill="#DCA827" d="M285.5,428.1l0.3,0.2v-0.4L285.5,428.1z"/>
		<path fill="#DCA827" d="M269.8,471.1c-0.1-0.3-0.3-0.6-0.3-0.8c0.1-0.5,0.5-0.5,0.6,0C270.2,470.5,269.9,470.8,269.8,471.1z"/>
		<polygon fill="#794A1F" points="285.5,428.1 285.9,427.9 285.9,428.3 		"/>
	</g>
	<g>
		<path fill="#DC2155" d="M360.7,181.2c-9.4,2.7-18.9,5.3-28.3,8.1c-22.8,6.8-45.3,14.3-67.6,22.3c-0.4,0.1-0.7,0.3-1,0.4
			c-0.1,1.3,1.1,1.3,1.8,1.7c1.1,0.8,2.4,1.4,3.6,2.2c7.7,5.3,6.1,13.3,0.5,18.2c-3.7,3.3-8.2,5.1-12.9,6.6
			c-7.1,2.4-14.4,3.3-21.7,4.5c-14.7,2.5-29.3,5.6-43.7,9.7c-20,5.7-39.6,12.8-59.3,19.3c-7.5,2.5-15,5.1-22.9,6.2
			c-4.1,0.6-8.2,0.5-12.2-0.6c-6.2-1.7-10-5.7-12-11.8c-2.2-6.6-1.2-12.7,1.3-19c6-14.6,13.7-28.3,22.4-41.4
			c12.7-19.1,26.5-37.4,42.1-54.2c9.8-10.6,20.6-19.9,33.6-26.5c6.1-3.1,12.5-5.2,18.9-7.5c27.8-9.7,56.2-17.6,84.8-24.7
			c21.4-5.3,43-10.1,64.6-14.4c15.2-3,30.4-5.6,45.6-8.1c13.4-2.2,26.8-4,40.2-5.9c3.7-0.5,7.4-0.8,11.1-1.2c4.3-0.4,8.6-1,12.9-1.3
			c4.3-0.2,8.6-0.7,13-1c7.6-0.5,15.2-1.3,22.9-1.4c2,0,4.1-0.1,6.1-0.1c12.7,0.4,25.5-0.3,38.2,0.9c4.5,0.4,9.1,0.8,13.7,1.1
			c3.2,0.8,6.6,0.4,9.9,1.1c2.1,0.4,4.3,1.3,6.6,0.9c11.7,1.9,23.3,4.3,34.7,7.7c16,4.9,31.1,11.4,44.6,21.5
			c17.3,12.9,29.2,29.4,33.4,51c0.5,2.5,0.1,5.1,1.3,7.5c0,7.2,0,14.4,0,21.5c-1.5,1.5-0.9,3.6-1.3,5.4
			c-2.8,15.7-9.3,29.7-18.6,42.5c-8,11.1-17.7,20.5-28.4,29c-16.6,13.1-34.8,23.4-53.8,32.3c-14.8,6.9-30,12.9-45.5,18.2
			c-28.6,9.9-57.8,17.6-87.3,24.3c-13.4,3.1-26.9,5.9-40.4,8.6c-12.8,2.5-25.6,4.9-38.3,7.4c-0.4,0.1-0.8-0.1-1.1-0.1
			c0.5-2.2,2-3.8,3.2-5.5c7.9-10.9,15.8-21.7,23.8-32.5c2-2.7,3.7-5.7,6.3-8c0.4-0.1,0.8-0.2,0.7-0.8l-0.1,0.1
			c1.4,0.4,2.8,0.1,4.2-0.1c15.9-2.7,31.7-5.6,47.4-9.1c28.3-6.4,56.2-14.2,83-25.5c18.4-7.8,36.2-16.9,51.6-29.8
			c8.1-6.8,15.4-14.3,19.9-24.1c4.3-9.2,3.1-17.9-2.6-26.1c-5.2-7.5-12.6-12.3-20.7-16c-16.1-7.3-33.3-9.6-50.7-10.7
			c-10-0.6-20-0.5-29.9-0.1c-6,1.1-12.1,0.6-18.1,1c-1.4,0.2-2.7,0.5-4.1,0.6c-4.9,0.1-9.8,1.3-14.7,1.8c-6,0.6-12,1.8-17.9,2.9
			c-4.8,0.9-9.7,1.4-14.3,2.9c-1.1,0.1-2.3,0.2-3.4,0.4c-15.8,3.3-31.7,6.6-47.4,10.6C378.9,176.3,369.7,178.4,360.7,181.2z"/>
		<path fill="#FFDD00" d="M515.1,0c3.6,1.3,7.3,2.5,10.9,3.9c3.7,1.5,7.4,3,10.7,5.4c0,0.8,0.4,1.4,0.9,2C543,18,542,25.8,537.7,32
			c-6.8,9.7-14.3,19-21.3,28.8c-2.9,0-5.8-0.1-8.7,0c-1.1,0-2.3-0.6-3.2,0.6c-2,0-4.1,0.1-6.1,0.1c-7.7,0-15.3,0.9-22.9,1.4
			c-4.3,0.3-8.6,0.8-13,1c-4.3,0.2-8.6,0.8-12.9,1.3c2.3-4.5,5.7-8.1,8.7-12.1c11.6-15.4,23.4-30.7,34.9-46.2
			c2.4-3.2,5.5-5.2,8.9-6.9C506.4,0,510.8,0,515.1,0z"/>
		<path fill="#FFDD00" d="M360.7,181.2c9-2.9,18.3-5,27.4-7.3c15.7-4,31.5-7.3,47.4-10.6c1.1-0.2,2.3-0.3,3.4-0.4
			c1.3,0.9,0.1,1.7-0.3,2.2c-1.7,2.5-3.7,4.8-5.5,7.3c-6.5,8.7-13.1,17.4-19.6,26.2c-6.4,8.5-12.7,17-19.1,25.6
			c-6.5,8.7-13,17.5-19.5,26.2c-6.3,8.4-12.6,16.8-18.9,25.3c-6.5,8.7-13,17.4-19.5,26.2c-6.2,8.3-12.4,16.7-18.6,25
			c-7.3,9.7-14.8,19.3-21.9,29.1c-7.6,10.6-15.6,20.9-23.3,31.4c-8.6,11.6-17.3,23.1-26,34.7c-8.3,11-16.6,22-24.8,33.2
			c-1.6,2.2-3.5,3.5-6,4.2c-4.5,1.2-9.1,2.2-13.8,2.3c-4.8,0-9.7,0-14.5,0c0.1,0.9,0.4,1.3,0.9,1.4c2.8,0.4,4.9,2.2,7,3.7
			c7.5,5.2,14.2,11.3,19.5,18.7c4.6,6.4,8.7,13,11.7,20.4c2,5,3.5,10.2,5.8,15.1c0.3,1.9,0.5,3.8,0.9,5.7c1.1,5.3,1.9,10.8,4,15.9
			c-0.2,1-0.2,2-0.5,3c-9.3,23.7-20.6,46.3-34.5,67.6c-4.2,6.5-8.7,12.9-13.1,19.3c-3.3,4.1-6.5,8.2-9.8,12.3
			c-6,7.7-12.4,15-18.9,22.3c-8.8,9.9-18.2,19.1-27.9,28c-11.4,10.5-23.2,20.5-35.5,30c-0.5,0.4-1,0.8-1.7,0.6
			c-0.5-1.3,0.6-1.8,1.3-2.5c10.9-10.8,21.5-22,31.8-33.3c5.2-5.7,10.4-11.3,15.4-17.1c10.2-12.1,20.1-24.4,29.3-37.4
			c11.1-15.8,21.2-32.2,28.5-50.1c5.5-13.6,9.2-27.5,8.4-42.4c-0.3-6.6-1.7-12.9-4.3-18.9c-3.9-9-9.9-16.3-17.6-22.3
			c-5.6-4.3-11.4-8.2-18-10.6c-0.3-0.7-0.6-1-1.3-0.5c0.3,0.6,0.7,1.1,1.4,1.1c5.3,3.8,9.9,8.4,13.8,13.7c6.5,8.8,9,18.5,6,29.2
			c-2.1,7.2-6.2,13.4-11.2,19c-8,8.8-17,16.3-27,22.6c-2.7,1.7-5.3,3.5-8,5.3c0,1.8,0.2,3.5,0,5.1c-1.7,13.5-6.4,25.9-13.8,37.3
			c-6.2,9.5-13.7,17.9-21.7,25.7c-4.7,4.6-9.7,8.7-14.6,13c-1,0.8-1.9,1.6-2,3.1c-0.4,5.5-1,10.9-1.4,16.4c-0.6,8-1,16.1-1.8,24
			c-0.4,3.4-0.4,6.9-0.8,10.3c-0.6,5.6-1.3,11.1-1.4,16.8c-5,4.6-10.7,8.2-16,12.4c-4.9,3.9-9.9,7.7-14.8,11.6
			c-4.2,3.3-6.9,7.9-9.9,12.2c-4.3,5.9-8.5,11.9-12.6,17.9c-6.5,9.5-9.8,20.1-10.6,31.6c-0.2,3.2-0.5,6.4-0.8,9.6
			c-0.2,2-1.2,3.3-3.1,4c-2.2,0.8-4.6,0.8-6.8,0.2c-1.9-0.5-3-2.1-2.9-4.4c0.1-3.7,0.3-7.4,0.7-11.1c0.8-7,1.9-13.9,3.8-20.7
			c3.5-11.9,8.7-22.9,16.6-32.6c0.7-0.9,1.4-1.8,2-2.7c0.1-1.7-0.9-3-1.6-4.3c-10.3-21-18.9-42.7-24.3-65.6
			c-2.4-10.3-4.2-20.7-5.3-31.3c-1-10.5-1.2-21-0.4-31.5C2.4,603.2,10,580,25.8,560c10.8-13.6,24.2-23.8,39.7-31.4
			c13.3-6.5,27.3-10.7,41.8-13.2c2.6-0.4,5.3-1,7.8-1.4c0.8-0.7,1-1.6,1.1-2.5c2.2-17.2,11-30.5,24.3-41.1c1.8-1.5,3.4-3.1,4.8-4.9
			c18.3-24.2,36.6-48.4,55-72.5c0.3-0.4,0.5-0.9,0.8-1.3c0.3-0.3,0.5-0.5,0.8-0.8c12.6-16.6,25.3-33.2,37.9-49.9
			c5.5-7.2,10.8-14.5,16.2-21.7c5.6-6.5,10.5-13.5,15.7-20.3c17.4-22.9,34.7-45.8,52.1-68.7c11.6-15.3,23.2-30.5,34.8-45.8
			C359.4,183.4,360,182.3,360.7,181.2z M63.2,656.5c1.9,0.1,5.7-0.4,9.5-1.3c12.8-3.1,23.6-9.7,33-18.6
			c11.1-10.4,19.2-22.9,23.7-37.5c3.3-10.6,4.6-21.5,1.7-32.4c-4.1-15.8-15.1-25.3-31-27.2c-9.2-1.1-18.1,1-26.5,4.7
			c-13.3,5.9-24.1,14.9-32.7,26.5c-10.8,14.5-17.3,30.6-16.7,49c0.2,6.7,1.8,13.2,5.2,19C36.6,651,47.3,656.6,63.2,656.5z"/>
		<path fill="#DC2155" d="M189.4,632.4c4.4-6.4,8.8-12.8,13.1-19.3c13.8-21.3,25.2-43.9,34.5-67.6c0.4-1,0.4-2,0.5-3
			c1.8-2.1,1.6-5,3.1-7.2c1,0.3,2,0.6,2.9,1c15.4,6.2,31.6,9.2,48.1,10.7c12.7,1.1,25.3,0.4,37.9-1.5c17.2-2.6,34-6.7,50.6-12
			c24.6-7.9,48.4-17.9,70.7-31.1c11.6-6.8,22.7-14.5,31.8-24.6c2.4-2.7,4.6-5.5,6.2-8.7c4.1-8.1,3.1-15.1-3-21.8
			c-4.8-5.2-10.7-8.7-16.9-11.8c-11.9-5.8-24.5-9.6-37.2-12.9c-12.2-3.2-24.6-5.6-37.1-7.7c-10.6-1.7-21.2-3.3-31.9-4.6
			c-8.5-1-17-1.9-25.6-2.6c-4-0.4-8.2-0.1-12.2-1.4c0-0.7,0.3-1.2,0.7-1.7c4.5-6,8.9-12,13.4-18.1c4.6-6.2,8.8-12.7,13.7-18.6
			c10.1,1.5,20.2,3,30.3,4.6c10.1,1.6,20.2,3.2,30.2,5c14.8,2.5,29.6,5.5,44.3,8.9c27.6,6.5,54.9,14.1,80.4,26.9
			c11.3,5.7,21.8,12.4,30.8,21.4c7.8,7.9,13.7,17,15.3,28.2c1.3,8.6,0,17.1-3.4,25.2c-5.7,13.6-13.6,25.7-23.8,36.4
			c-20,20.8-42.3,38.8-66.6,54.2c-19.6,12.4-40.2,22.9-61.6,31.7c-26,10.8-52.8,19.2-80.1,25.7c-5.1,1.2-10.4,1.5-15.6,1.9
			c-14.8,1.1-29.6,2.1-44.5,2.7c-17.2,0.7-34.4,0.8-51.5,0.3c-15.9-0.5-31.5-3.2-46.8-7.7C190,633,189.7,632.6,189.4,632.4z"/>
		<path fill="#813C05" d="M170.4,491c6.6,2.5,12.5,6.3,18,10.6c7.7,6,13.7,13.3,17.6,22.3c2.6,6,4,12.3,4.3,18.9
			c0.8,14.8-2.9,28.8-8.4,42.4c-7.3,17.9-17.4,34.3-28.5,50.1c-9.1,13-19.1,25.3-29.3,37.4c-4.9,5.9-10.2,11.5-15.4,17.1
			c-10.4,11.3-20.9,22.5-31.8,33.3c-0.7,0.7-1.8,1.2-1.3,2.5l0,0c-0.9-0.4-1.4-0.1-1.5,0.9l0,0c-0.6,0-0.8,0.2-0.8,0.8l0,0
			c-0.6,0-0.8,0.2-0.8,0.8l0,0c-0.7,0-0.9,0.4-0.9,1c-1.8,1.4-3.5,2.7-5.3,4.1c0.1-5.6,0.7-11.2,1.4-16.8c0.4-3.4,0.4-6.9,0.8-10.3
			c0.8-8,1.2-16,1.8-24c0.4-5.5,1-10.9,1.4-16.4c0.1-1.5,1.1-2.3,2-3.1c5-4.2,10-8.4,14.6-13c8.1-7.9,15.6-16.2,21.7-25.7
			c7.4-11.4,12.2-23.8,13.8-37.3c0.2-1.6,0-3.3,0-5.1c2.7-1.8,5.3-3.7,8-5.3c10-6.3,19-13.8,27-22.6c5-5.5,9.2-11.7,11.2-19
			c3-10.7,0.6-20.4-6-29.2c-3.9-5.3-8.5-9.9-13.8-13.7C170.5,491.4,170.4,491.2,170.4,491z"/>
		<path fill="#813C05" d="M352.8,367.8c-4.9,5.9-9.2,12.4-13.7,18.6c-4.4,6-8.9,12.1-13.4,18.1c-0.4,0.5-0.7,1.1-0.7,1.7
			c-0.8,0.5-1.2,1.3-1.7,2c-6.4,8.8-12.8,17.6-19.2,26.4c-17.9,24.6-35.8,49.2-53.7,73.9c-1,1.4-2.3,2.8-2.8,4.5
			c-2.3,7.4-4.6,14.8-6.9,22.3c-1.5,2.2-1.3,5.1-3.1,7.2c-2.1-5.1-2.9-10.5-4-15.9c-0.4-1.9-0.6-3.8-0.9-5.7c0-1.7,0.3-3.4,0-5
			c-1.7-9.1-0.4-18.1,1.2-26.9c2-11.2,6.4-21.6,12.4-31.3c5.6-9,12.3-16.9,20.3-23.8l0.1,0.1c-0.1,1.3,0.1,2.6-0.2,3.8
			c-1.3,5.7-0.7,11.4,0.4,17c0.2,1.1,0.2,2.9,2,3.5c1.2-1.1,2.3-2.4,3.3-3.7c5-6.9,10-13.8,15-20.7c8.1-11.1,16.2-22.2,24.3-33.4
			c7.1-9.7,14.1-19.3,21.2-29c8.1-11.1,16.2-22.2,24.3-33.4c7.1-9.7,14.1-19.3,21.2-29c9.4-12.9,18.7-25.8,28.1-38.6
			c7.7-10.6,15.5-21.2,23.2-31.8c9.4-13,18.9-26,28.3-38.9c7.9-10.8,15.9-21.5,23.7-32.4c3-4.1,6.4-7.9,8.6-12.5
			c6-0.4,12.1,0.2,18.1-1c-0.2,0.4-0.4,0.9-0.7,1.3c-33.1,45.6-66.3,91.1-99.4,136.7c-0.8,1.1-2.1,2-2,3.6l0.1-0.1
			c-0.6-0.1-0.7,0.3-0.7,0.8c-2.6,2.2-4.3,5.2-6.3,8c-7.9,10.8-15.9,21.7-23.8,32.5c-1.2,1.7-2.8,3.3-3.2,5.5
			c-0.6,0.5-1.3,0.9-1.7,1.5C364.4,351.8,358.6,359.8,352.8,367.8z"/>
		<path fill="#DC2155" d="M256,319.3c-5.4,7.2-10.8,14.5-16.2,21.7c-12.6,16.6-25.2,33.2-37.9,49.9c-0.2,0.3-0.5,0.5-0.8,0.8
			c-14-1.4-28-2.5-41.4-6.9c-7.3-2.4-14.2-5.6-19.7-11.3c-6.2-6.4-7.8-18.4,0.9-26.4c4.4-4,9.5-6.8,15-9.1
			c11.7-4.9,24-7.8,36.4-10.1c14.3-2.7,28.7-4.7,43.2-6.3C242.3,320.8,249.1,319.3,256,319.3z"/>
		<path fill="#FFDD00" d="M94.2,726.5c0.1-0.9,0.7-1.2,1.5-0.9C95.6,726.6,95.1,726.8,94.2,726.5z"/>
		<path fill="#FFDD00" d="M92.7,728c0-0.6,0.3-0.8,0.8-0.8C93.6,727.9,93.2,728,92.7,728z"/>
		<path fill="#FFDD00" d="M91.8,729c0-0.6,0.2-1,0.9-1C92.8,728.6,92.3,728.8,91.8,729z"/>
		<path fill="#FFDD00" d="M93.4,727.2c0-0.6,0.2-0.8,0.8-0.8C94.4,727.1,94.1,727.4,93.4,727.2z"/>
		<path fill="#F8B000" d="M266.5,434c-8,6.8-14.7,14.8-20.3,23.8c-6,9.7-10.4,20.1-12.4,31.3c-1.6,8.9-2.9,17.9-1.2,26.9
			c0.3,1.6,0,3.3,0,5c-2.3-4.9-3.8-10.1-5.8-15.1c-3-7.4-7.1-14-11.7-20.4c-5.3-7.4-12.1-13.5-19.5-18.7c-2.1-1.5-4.3-3.2-7-3.7
			c-0.5-0.1-0.8-0.5-0.9-1.4c4.9,0,9.7,0,14.5,0c4.7,0,9.3-1.1,13.8-2.3c2.5-0.7,4.4-2,6-4.2c8.2-11.1,16.5-22.1,24.8-33.2
			c8.7-11.6,17.4-23,26-34.7c7.7-10.5,15.7-20.8,23.3-31.4c7.1-9.9,14.6-19.4,21.9-29.1c6.2-8.3,12.4-16.7,18.6-25
			c6.5-8.7,13-17.5,19.5-26.2c6.3-8.4,12.6-16.8,18.9-25.3c6.5-8.7,13-17.5,19.5-26.2c6.4-8.5,12.7-17.1,19.1-25.6
			c6.5-8.7,13-17.4,19.6-26.2c1.8-2.4,3.8-4.8,5.5-7.3c0.3-0.5,1.6-1.3,0.3-2.2c4.7-1.5,9.5-1.9,14.3-2.9c5.9-1.2,11.9-2.3,17.9-2.9
			c4.9-0.5,9.7-1.7,14.7-1.8c1.4,0,2.7-0.4,4.1-0.6c-2.3,4.6-5.7,8.4-8.6,12.5c-7.8,10.9-15.8,21.6-23.7,32.4
			c-9.5,13-18.9,26-28.3,38.9c-7.7,10.6-15.5,21.2-23.2,31.8c-9.4,12.9-18.7,25.8-28.1,38.6c-7,9.7-14.1,19.3-21.2,29
			c-8.1,11.1-16.2,22.2-24.3,33.4c-7,9.7-14.1,19.4-21.2,29c-8.1,11.1-16.2,22.2-24.3,33.4c-5,6.9-10.1,13.8-15,20.7
			c-1,1.4-2,2.6-3.3,3.7c-1.8-0.6-1.7-2.4-2-3.5c-1.1-5.6-1.7-11.3-0.4-17c0.3-1.2,0.2-2.5,0.2-3.8c0.4-0.1,0.8-0.2,0.3-0.7
			C266.8,433.6,266.7,433.8,266.5,434z"/>
		<path fill="#F8B000" d="M504.4,61.4c0.9-1.1,2.1-0.5,3.2-0.6c2.9-0.1,5.9,0,8.7,0c7-9.9,14.5-19.1,21.3-28.8
			c4.3-6.1,5.4-14-0.1-20.7c-0.5-0.6-1-1.2-0.9-2c6,2.8,11.3,6.7,16.3,10.9c0,0.6,0,1.1,0.7,1.3c-0.1,0.8,0.4,1.4,0.7,2.1
			c3.9,10.2,6.9,20.6,6.3,31.8c-0.2,3.4-1.7,6-4.3,8c-4.6-0.4-9.1-0.7-13.7-1.1C529.9,61.1,517.1,61.8,504.4,61.4z"/>
		<path fill="#813C05" d="M556.3,63.4c2.7-2,4.1-4.6,4.3-8c0.6-11.1-2.3-21.5-6.3-31.8c-0.3-0.7-0.8-1.3-0.7-2.1
			c0.2,0,0.5,0,0.7-0.1c8.3,6.5,15.3,14.2,19.9,23.9c2.2,4.6,3.3,9.3,1.6,14.4c-0.7,2.1-2.3,3.6-3.1,5.7c-2.3,0.4-4.5-0.5-6.6-0.9
			C562.9,63.9,559.5,64.2,556.3,63.4z"/>
		<path fill="#DC2155" d="M554.3,21.4c-0.2,0-0.5,0.1-0.7,0.1c-0.7-0.2-0.7-0.7-0.7-1.3C553.6,20.4,554,20.8,554.3,21.4z"/>
		<path fill="#643011" d="M63.2,656.5c-15.9,0.1-26.6-5.6-33.7-17.7c-3.4-5.8-5-12.3-5.2-19c-0.6-18.4,5.9-34.5,16.7-49
			c8.6-11.6,19.4-20.6,32.7-26.5c8.4-3.7,17.3-5.8,26.5-4.7c15.8,1.8,26.8,11.4,31,27.2c2.9,11,1.6,21.8-1.7,32.4
			c-4.6,14.6-12.7,27-23.7,37.5c-9.4,8.9-20.2,15.5-33,18.6C68.9,656.2,65.1,656.6,63.2,656.5z"/>
		<path fill="#F8B000" d="M170.4,491c0,0.2,0,0.4,0.1,0.6c-0.7,0-1.1-0.5-1.4-1.1C169.8,490,170.2,490.3,170.4,491z"/>
		<path fill="#813C05" d="M266.5,434c0.1-0.2,0.3-0.4,0.4-0.6c0.5,0.5,0.1,0.6-0.3,0.7L266.5,434z"/>
	</g>
</g>
</svg>
