<?xml version="1.0" encoding="UTF-8" standalone="no"?>
<!-- Generator: Adobe Illustrator 15.0.0, SVG Export Plug-In . SVG Version: 6.00 Build 0)  -->

<svg
   xmlns:dc="http://purl.org/dc/elements/1.1/"
   xmlns:cc="http://creativecommons.org/ns#"
   xmlns:rdf="http://www.w3.org/1999/02/22-rdf-syntax-ns#"
   xmlns:svg="http://www.w3.org/2000/svg"
   xmlns="http://www.w3.org/2000/svg"
   xmlns:sodipodi="http://sodipodi.sourceforge.net/DTD/sodipodi-0.dtd"
   xmlns:inkscape="http://www.inkscape.org/namespaces/inkscape"
   version="1.1"
   id="Ebene_1"
   x="0px"
   y="0px"
   width="156.502"
   height="73.201172"
   viewBox="0 0 156.502 73.201174"
   enable-background="new 0 0 500 200"
   xml:space="preserve"
   inkscape:version="0.91 r13725"
   sodipodi:docname="Iranair_logo2.svg"><metadata
     id="metadata3433"><rdf:RDF><cc:Work
         rdf:about=""><dc:format>image/svg+xml</dc:format><dc:type
           rdf:resource="http://purl.org/dc/dcmitype/StillImage" /><dc:title></dc:title></cc:Work></rdf:RDF></metadata><defs
     id="defs3431" /><sodipodi:namedview
     pagecolor="#ffffff"
     bordercolor="#666666"
     borderopacity="1"
     objecttolerance="10"
     gridtolerance="10"
     guidetolerance="10"
     inkscape:pageopacity="0"
     inkscape:pageshadow="2"
     inkscape:window-width="1366"
     inkscape:window-height="705"
     id="namedview3429"
     showgrid="false"
     fit-margin-top="0"
     fit-margin-left="0"
     fit-margin-right="0"
     fit-margin-bottom="0"
     inkscape:zoom="7.2719901"
     inkscape:cx="80.240891"
     inkscape:cy="29.021318"
     inkscape:window-x="-8"
     inkscape:window-y="-8"
     inkscape:window-maximized="1"
     inkscape:current-layer="Ebene_1" /><g
     id="g4364"
     transform="matrix(0.58790481,0,0,0.58790481,0.483,-0.56476503)"><path
       style="fill:#1f2c51"
       inkscape:connector-curvature="0"
       d="m 117.959,108.542 0,16.269 3.297,0 0,-5.939 0.463,0.462 0.436,0.354 0.218,0.164 0.218,0.137 0.218,0.136 0.218,0.11 0.436,0.164 0.436,0.107 0.464,0.054 0.49,0.028 0.518,-0.028 0.518,-0.054 0.463,-0.136 0.464,-0.19 0.463,-0.218 0.436,-0.274 0.409,-0.325 0.381,-0.382 0.191,-0.219 0.164,-0.218 0.164,-0.218 0.164,-0.246 0.136,-0.244 0.109,-0.271 0.109,-0.274 0.109,-0.271 0.109,-0.3 0.055,-0.326 0.082,-0.3 0.054,-0.328 0.055,-0.708 0.027,-0.736 -0.027,-0.707 -0.055,-0.654 -0.054,-0.328 -0.082,-0.3 -0.055,-0.298 -0.109,-0.274 -0.082,-0.271 -0.137,-0.272 -0.109,-0.246 -0.136,-0.246 -0.164,-0.243 -0.164,-0.218 -0.164,-0.219 -0.191,-0.191 -0.381,-0.38 -0.409,-0.3 -0.436,-0.274 -0.436,-0.218 -0.463,-0.19 -0.491,-0.11 -0.49,-0.082 -0.518,-0.025 -0.299,0 -0.3,0.025 -0.272,0.057 -0.272,0.054 -0.272,0.082 -0.272,0.082 -0.272,0.108 -0.245,0.138 -0.246,0.136 -0.245,0.137 -0.218,0.164 -0.218,0.189 -0.191,0.189 -0.191,0.192 -0.19,0.218 -0.163,0.219 0,-1.719 -3.055,0 3.243,5.695 0.027,-0.436 0.027,-0.382 0.055,-0.382 0.082,-0.326 0.136,-0.328 0.136,-0.271 0.136,-0.272 0.191,-0.218 0.218,-0.218 0.218,-0.164 0.218,-0.164 0.245,-0.108 0.245,-0.109 0.272,-0.055 0.3,-0.054 0.272,0 0.272,0 0.272,0.054 0.272,0.055 0.245,0.109 0.218,0.108 0.246,0.164 0.19,0.192 0.218,0.189 0.191,0.246 0.164,0.271 0.136,0.301 0.109,0.325 0.082,0.356 0.055,0.408 0.027,0.407 0.027,0.464 -0.027,0.465 -0.027,0.461 -0.055,0.41 -0.082,0.354 -0.109,0.354 -0.136,0.3 -0.164,0.272 -0.164,0.218 -0.218,0.218 -0.191,0.164 -0.218,0.164 -0.245,0.108 -0.245,0.109 -0.245,0.055 -0.272,0.054 -0.272,0 -0.272,0 -0.272,-0.054 -0.272,-0.055 -0.272,-0.109 -0.246,-0.137 -0.218,-0.164 -0.245,-0.189 -0.191,-0.218 -0.218,-0.246 -0.164,-0.3 -0.136,-0.326 -0.109,-0.328 -0.109,-0.408 -0.055,-0.41 -0.027,-0.436 -0.027,-0.49"
       id="path2732" /><g
       transform="translate(-7.694,-66.472994)"
       id="g4315"><path
         style="fill:#1f2c51"
         inkscape:connector-curvature="0"
         id="path2592"
         d="m 43.253,130.873 0,-21.636 0.027,-0.546 0.028,-0.544 0.109,-0.518 0.109,-0.518 0.136,-0.49 0.191,-0.491 0.19,-0.463 0.246,-0.464 0.272,-0.436 0.272,-0.437 0.327,-0.407 0.327,-0.383 0.354,-0.382 0.381,-0.381 0.409,-0.327 0.436,-0.354 0.436,-0.3 0.463,-0.3 0.463,-0.272 0.491,-0.274 0.491,-0.244 0.518,-0.218 0.545,-0.218 0.545,-0.164 0.545,-0.164 0.545,-0.163 0.572,-0.109 0.573,-0.109 0.599,-0.081 0.572,-0.056 0.6,-0.026 0.572,0 0.927,0 0.98,0.082 1.063,0.136 1.09,0.163 0,-12.48 -0.954,-0.054 -0.817,-0.055 -0.735,-0.027 -0.627,-0.028 -0.682,0.028 -0.708,0 -0.654,0.054 -0.681,0.055 -0.654,0.082 -0.627,0.109 -0.626,0.109 -0.6,0.137 -0.6,0.164 -0.599,0.163 -0.572,0.19 -0.545,0.191 -0.545,0.218 -0.517,0.246 -0.518,0.272 -0.491,0.273 -0.49,0.299 -0.463,0.299 -0.436,0.327 -0.436,0.354 -0.408,0.354 -0.381,0.381 -0.382,0.41 -0.354,0.408 -0.354,0.436 -0.327,0.463 -0.3,0.462 -0.274,0.495 -0.272,0.518 -0.245,0.518 -0.218,0.545 -0.191,0.572 0,-8.366 -12.999,0 0,42.972 14.878,0" /><path
         style="fill:#1f2c51"
         inkscape:connector-curvature="0"
         id="path2594"
         d="m 8.539,72.424 0,58.394 14.987,0 0,-58.394 -14.987,0" /><path
         style="fill:#1f2c51"
         inkscape:connector-curvature="0"
         id="path2596"
         d="m 105.816,87.22 0,43.571 14.851,0 0,-20.301 0,-0.709 0.027,-0.653 0.055,-0.6 0.054,-0.599 0.082,-0.546 0.082,-0.518 0.082,-0.49 0.109,-0.463 0.218,-0.845 0.245,-0.79 0.218,-0.71 0.245,-0.654 0.164,-0.38 0.218,-0.382 0.245,-0.382 0.3,-0.326 0.354,-0.354 0.354,-0.299 0.409,-0.3 0.463,-0.273 0.463,-0.245 0.491,-0.218 0.518,-0.218 0.518,-0.191 0.545,-0.163 0.545,-0.136 0.572,-0.11 0.545,-0.082 0.573,-0.054 0.572,0 0.545,0 0.572,0.028 0.518,0.054 0.545,0.108 0.491,0.137 0.49,0.163 0.463,0.192 0.409,0.244 0.408,0.273 0.381,0.299 0.327,0.355 0.272,0.382 0.246,0.408 0.191,0.463 0.19,0.518 0.218,0.546 0.218,0.598 0.218,0.656 0.164,0.734 0.164,0.763 0.054,0.437 0.055,0.436 0.027,0.464 0,0.49 0,23.243 15.123,0 0,-26.866 0,-1.064 -0.054,-1.008 -0.082,-0.981 -0.11,-0.953 -0.136,-0.928 -0.19,-0.897 -0.19,-0.846 -0.246,-0.844 -0.272,-0.79 -0.328,-0.791 -0.326,-0.736 -0.381,-0.682 -0.409,-0.68 -0.436,-0.627 -0.491,-0.626 -0.518,-0.572 -0.545,-0.518 -0.572,-0.517 -0.626,-0.464 -0.654,-0.436 -0.709,-0.382 -0.735,-0.354 -0.764,-0.327 -0.791,-0.299 -0.844,-0.246 -0.872,-0.218 -0.927,-0.19 -0.954,-0.136 -1.008,-0.109 -1.036,-0.055 -1.062,-0.027 -1.118,0 -0.627,0.027 -0.626,0.055 -0.627,0.082 -0.626,0.081 -0.627,0.082 -0.6,0.136 -0.626,0.109 -0.599,0.164 -0.573,0.164 -0.599,0.191 -0.573,0.19 -0.545,0.218 -0.572,0.246 -0.545,0.245 -0.518,0.273 -0.518,0.272 -0.518,0.3 -0.491,0.3 -0.49,0.327 -0.463,0.327 -0.436,0.354 -0.436,0.354 -0.436,0.382 -0.381,0.381 -0.381,0.382 -0.381,0.408 -0.354,0.436 -0.327,0.436 -0.299,0.436 -0.273,0.463 -0.272,0.463 -0.246,0.491 0,-8.177 -13.435,0" /><path
         inkscape:connector-curvature="0"
         style="fill:#1f2c51;fill-opacity:1"
         d="m 268.35352,86.183594 -0.68164,0.02734 -0.6836,0.05469 -0.65234,0.05469 -0.6543,0.08203 -0.62695,0.109375 -0.625,0.107422 -0.62696,0.136718 -0.60156,0.164063 -0.57031,0.164062 -0.57227,0.191407 -0.54492,0.216797 -0.54492,0.21875 -0.54492,0.24414 -0.49024,0.273438 -0.49023,0.271484 -0.49219,0.300781 -0.46289,0.326172 -0.43555,0.326172 -0.4375,0.355469 -0.4082,0.380859 -0.4082,0.380859 -0.35352,0.4375 -0.38281,0.410157 -0.32422,0.460937 -0.32812,0.462891 -0.30078,0.462891 -0.27149,0.517578 -0.27148,0.517578 -0.2461,0.546875 -0.21875,0.544922 -0.21679,0.570312 0,-8.556641 -12.99805,0 0,43.925778 14.8789,0 0,-22.125 0.0273,-0.54492 0.0527,-0.54492 0.082,-0.54492 0.10938,-0.51758 0.16211,-0.49023 0.16406,-0.51758 0.21875,-0.46485 0.24609,-0.46289 0.24415,-0.46289 0.29882,-0.43554 0.30079,-0.41016 0.35351,-0.4082 0.35547,-0.40821 0.38086,-0.35351 0.4082,-0.35547 0.4082,-0.35352 0.4375,-0.32617 0.4629,-0.30078 0.49023,-0.27148 0.49219,-0.27344 0.48828,-0.24414 0.51953,-0.246096 0.51758,-0.189453 0.54492,-0.191407 0.54492,-0.162109 0.57227,-0.164063 0.57226,-0.111328 0.57227,-0.107422 0.57031,-0.08203 0.60156,-0.05469 0.57032,-0.02734 0.59961,-0.02734 0.92773,0.02734 0.98047,0.08203 1.03515,0.136719 1.11719,0.164062 0,-12.753906 -0.95312,-0.08203 -0.84571,-0.05469 -0.70898,-0.02734 -0.625,0 -0.70898,0 z"
         id="path4313" /><path
         inkscape:connector-curvature="0"
         style="fill:#1f2c51;fill-opacity:1"
         d="m 221.976,84.55 0,46.267 14.414,0 0,-46.267 -14.414,0"
         id="path4311" /><path
         inkscape:connector-curvature="0"
         style="fill:#1f2c51;fill-opacity:1"
         d="m 221.976,68.473 0,11.036 14.414,0 0,-11.036 -14.414,0"
         id="path2602" /><path
         style="fill:#1f2c51"
         inkscape:connector-curvature="0"
         id="path2604"
         d="m 7.694,186.813 3.434,0 0,-16.293 -3.434,0 0,16.293" /><path
         style="fill:#1f2c51"
         inkscape:connector-curvature="0"
         id="path2606"
         d="m 13.253,183.437 0.136,0.436 0.164,0.408 0.191,0.382 0.245,0.325 0.272,0.328 0.3,0.301 0.327,0.271 0.354,0.246 0.409,0.218 0.409,0.19 0.463,0.164 0.463,0.136 0.518,0.107 0.518,0.057 0.572,0.054 0.572,0 0.654,0 0.6,-0.054 0.572,-0.082 0.545,-0.136 0.491,-0.164 0.463,-0.19 0.436,-0.218 0.381,-0.246 0.354,-0.3 0.3,-0.3 0.272,-0.326 0.19,-0.354 0.164,-0.356 0.137,-0.38 0.054,-0.41 0.027,-0.408 0,-0.354 -0.054,-0.328 -0.082,-0.3 -0.109,-0.3 -0.137,-0.272 -0.164,-0.243 -0.19,-0.246 -0.218,-0.219 -0.272,-0.218 -0.327,-0.218 -0.381,-0.189 -0.463,-0.164 -0.49,-0.192 -0.545,-0.164 -0.6,-0.162 -0.654,-0.164 -1.09,-0.243 -0.845,-0.219 -0.627,-0.191 -0.354,-0.137 -0.191,-0.136 -0.163,-0.164 -0.055,-0.082 -0.027,-0.082 -0.028,-0.079 0,-0.11 0,-0.108 0.028,-0.084 0.054,-0.107 0.055,-0.082 0.054,-0.082 0.109,-0.082 0.082,-0.082 0.136,-0.08 0.137,-0.057 0.163,-0.054 0.164,-0.054 0.218,-0.028 0.463,-0.054 0.572,-0.028 0.463,0.028 0.409,0.082 0.164,0.025 0.19,0.082 0.163,0.057 0.137,0.08 0.164,0.109 0.109,0.108 0.109,0.11 0.109,0.136 0.109,0.136 0.082,0.139 0.054,0.161 0.055,0.164 3.079,-0.518 -0.136,-0.408 -0.164,-0.356 -0.191,-0.354 -0.19,-0.3 -0.246,-0.298 -0.245,-0.246 -0.3,-0.246 -0.299,-0.189 -0.327,-0.164 -0.382,-0.164 -0.409,-0.108 -0.436,-0.11 -0.463,-0.082 -0.518,-0.054 -0.572,-0.054 -0.573,0 -0.626,0.025 -0.573,0.028 -0.545,0.082 -0.49,0.11 -0.491,0.136 -0.409,0.164 -0.409,0.218 -0.354,0.219 -0.299,0.271 -0.272,0.271 -0.218,0.301 -0.191,0.325 -0.164,0.328 -0.082,0.354 -0.082,0.382 0,0.407 0,0.41 0.082,0.354 0.109,0.354 0.136,0.354 0.191,0.3 0.245,0.3 0.272,0.271 0.3,0.246 0.327,0.19 0.409,0.192 0.518,0.189 0.599,0.189 0.682,0.219 0.763,0.191 0.872,0.219 0.981,0.189 0.354,0.082 0.3,0.11 0.245,0.079 0.163,0.11 0.109,0.136 0.082,0.137 0.027,0.164 0.027,0.189 0,0.136 -0.027,0.139 -0.055,0.107 -0.054,0.136 -0.082,0.11 -0.109,0.108 -0.109,0.082 -0.136,0.109 -0.164,0.08 -0.164,0.057 -0.19,0.082 -0.218,0.025 -0.491,0.082 -0.545,0.028 -0.272,-0.028 -0.246,0 -0.245,-0.054 -0.218,-0.054 -0.218,-0.057 -0.218,-0.082 -0.164,-0.08 -0.191,-0.109 -0.164,-0.137 -0.136,-0.136 -0.136,-0.164 -0.109,-0.164 -0.109,-0.161 -0.081,-0.219 -0.082,-0.191 -0.055,-0.244 -3.267,0.497" /><path
         style="fill:#1f2c51"
         inkscape:connector-curvature="0"
         id="path2608"
         d="m 27.667,186.813 3.27,0 0,-16.293 -3.27,0 0,16.293" /><path
         style="fill:#1f2c51"
         inkscape:connector-curvature="0"
         id="path2610"
         d="m 47.313,175.015 0,11.799 3.27,0 0,-5.749 0.027,-0.79 0.028,-0.68 0.054,-0.303 0.028,-0.243 0.054,-0.246 0.082,-0.19 0.054,-0.164 0.082,-0.189 0.109,-0.136 0.109,-0.139 0.109,-0.134 0.137,-0.138 0.136,-0.108 0.137,-0.082 0.327,-0.191 0.327,-0.108 0.327,-0.054 0.354,-0.028 0.272,0 0.218,0.028 0.218,0.054 0.191,0.082 0.164,0.108 0.164,0.136 0.109,0.138 0.109,0.19 0.055,0.136 0.055,0.218 0.054,0.246 0.027,0.272 0.055,0.707 0.027,0.872 0,6.485 3.27,0 0,-5.667 0,-0.572 0.055,-0.518 0.027,-0.49 0.082,-0.407 0.109,-0.383 0.109,-0.328 0.136,-0.271 0.136,-0.218 0.191,-0.192 0.191,-0.162 0.19,-0.164 0.218,-0.109 0.218,-0.08 0.246,-0.057 0.245,-0.054 0.273,0 0.218,0 0.218,0.028 0.19,0.054 0.191,0.054 0.136,0.082 0.164,0.11 0.109,0.108 0.109,0.136 0.109,0.164 0.078,0.217 0.055,0.218 0.054,0.272 0.055,0.328 0.027,0.354 0.028,0.382 0,0.408 0,6.757 3.27,0 0,-7.547 0,-0.436 -0.028,-0.41 -0.027,-0.38 -0.055,-0.354 -0.082,-0.328 -0.081,-0.3 -0.082,-0.243 -0.109,-0.246 -0.136,-0.219 -0.137,-0.189 -0.163,-0.192 -0.164,-0.189 -0.19,-0.136 -0.191,-0.164 -0.19,-0.137 -0.218,-0.136 -0.246,-0.11 -0.245,-0.082 -0.246,-0.082 -0.272,-0.082 -0.272,-0.054 -0.299,-0.028 -0.3,-0.025 -0.299,0 -0.272,0 -0.272,0.025 -0.246,0.028 -0.245,0.054 -0.272,0.082 -0.246,0.082 -0.218,0.082 -0.246,0.11 -0.245,0.136 -0.218,0.137 -0.246,0.136 -0.218,0.189 -0.436,0.382 -0.409,0.437 -0.136,-0.244 -0.164,-0.192 -0.164,-0.218 -0.164,-0.164 -0.191,-0.189 -0.191,-0.136 -0.218,-0.137 -0.19,-0.136 -0.246,-0.11 -0.218,-0.082 -0.245,-0.082 -0.246,-0.082 -0.272,-0.054 -0.272,-0.028 -0.272,-0.025 -0.299,0 -0.272,0 -0.3,0.025 -0.245,0.028 -0.272,0.054 -0.272,0.082 -0.246,0.082 -0.245,0.082 -0.245,0.11 -0.245,0.136 -0.218,0.137 -0.246,0.136 -0.218,0.189 -0.218,0.164 -0.218,0.218 -0.218,0.192 -0.19,0.244 0,-1.608 -2.999,0" /><path
         style="fill:#1f2c51"
         inkscape:connector-curvature="0"
         id="path2612"
         d="m 68.758,173.407 3.27,0 0,-2.888 -3.27,0 0,2.888" /><path
         style="fill:#1f2c51"
         inkscape:connector-curvature="0"
         id="path2614"
         d="m 68.758,186.813 3.27,0 0,-11.799 -3.27,0 0,11.799" /><path
         style="fill:#1f2c51"
         inkscape:connector-curvature="0"
         id="path2616"
         d="m 86.17,179.159 -0.164,-0.521 -0.19,-0.49 -0.191,-0.516 -0.245,-0.492 -0.272,-0.464 -0.272,-0.408 -0.136,-0.189 -0.164,-0.164 -0.164,-0.136 -0.164,-0.136 -0.354,-0.219 -0.381,-0.164 -0.409,-0.164 -0.436,-0.136 -0.463,-0.082 -0.463,-0.082 -0.518,-0.028 -0.518,-0.025 -0.654,0.025 -0.627,0.082 -0.299,0.057 -0.3,0.054 -0.272,0.082 -0.272,0.108 -0.272,0.082 -0.272,0.136 -0.245,0.138 -0.245,0.137 -0.218,0.136 -0.246,0.189 -0.218,0.164 -0.218,0.19 -0.19,0.218 -0.191,0.218 -0.164,0.218 -0.164,0.218 -0.164,0.274 -0.136,0.244 -0.109,0.271 -0.109,0.274 -0.109,0.3 -0.082,0.298 -0.054,0.328 -0.055,0.326 -0.054,0.355 -0.028,0.326 -0.027,0.382 0,0.354 0.027,0.628 0.055,0.598 0.109,0.574 0.164,0.571 0.218,0.519 0.246,0.516 0.299,0.464 0.354,0.464 0.164,0.218 0.218,0.219 0.218,0.189 0.218,0.164 0.246,0.164 0.245,0.162 0.245,0.109 0.3,0.137 0.272,0.107 0.3,0.082 0.3,0.082 0.327,0.054 0.354,0.057 0.328,0.025 0.381,0.028 0.354,0 0.572,-0.028 0.545,-0.054 0.518,-0.107 0.49,-0.164 0.463,-0.164 0.436,-0.246 0.408,-0.244 0.354,-0.3 0.354,-0.354 0.327,-0.354 0.272,-0.382 0.246,-0.437 0.245,-0.436 0.19,-0.49 0.164,-0.492 0.136,-0.518 -3.215,0 -0.082,0.3 -0.082,0.274 -0.081,0.244 -0.109,0.246 -0.109,0.189 -0.109,0.192 -0.137,0.161 -0.136,0.139 -0.164,0.107 -0.164,0.11 -0.191,0.08 -0.164,0.056 -0.19,0.055 -0.218,0.054 -0.218,0.028 -0.218,0 -0.3,-0.028 -0.3,-0.026 -0.271,-0.082 -0.246,-0.082 -0.246,-0.109 -0.218,-0.162 -0.218,-0.164 -0.19,-0.218 -0.164,-0.218 -0.136,-0.272 -0.137,-0.328 -0.109,-0.354 -0.082,-0.382 -0.054,-0.437 -0.028,-0.464 -0.027,-0.516 0.027,-0.436 0.028,-0.437 0.054,-0.382 0.082,-0.356 0.109,-0.325 0.137,-0.272 0.136,-0.274 0.164,-0.218 0.19,-0.161 0.218,-0.164 0.218,-0.137 0.246,-0.136 0.246,-0.082 0.271,-0.054 0.273,-0.028 0.299,-0.028 0.218,0 0.218,0.028 0.218,0.054 0.191,0.028 0.164,0.082 0.19,0.082 0.137,0.08 0.163,0.11 0.136,0.136 0.109,0.136 0.109,0.139 0.109,0.161 0.082,0.19 0.082,0.191 0.055,0.219 0.054,0.218 3.216,0.114" /><path
         style="fill:#1f2c51"
         inkscape:connector-curvature="0"
         id="path2618"
         d="m 148.46,186.813 3.024,0 0,-11.799 -3.27,0 0,4.96 0,1.09 -0.054,0.899 -0.027,0.354 -0.027,0.3 -0.054,0.271 -0.055,0.192 -0.054,0.19 -0.083,0.164 -0.082,0.136 -0.109,0.164 -0.109,0.136 -0.137,0.136 -0.163,0.108 -0.163,0.138 -0.192,0.108 -0.163,0.082 -0.192,0.082 -0.19,0.054 -0.19,0.054 -0.191,0.028 -0.191,0.028 -0.218,0 -0.354,-0.028 -0.328,-0.054 -0.272,-0.11 -0.272,-0.136 -0.136,-0.108 -0.11,-0.082 -0.108,-0.11 -0.082,-0.136 -0.082,-0.107 -0.054,-0.139 -0.055,-0.161 -0.054,-0.137 -0.055,-0.436 -0.054,-0.628 -0.028,-0.844 0,-1.036 0,-5.424 -3.27,0 0,7.468 0,0.407 0.027,0.41 0.028,0.38 0.054,0.328 0.055,0.326 0.082,0.3 0.109,0.274 0.109,0.243 0.137,0.219 0.135,0.218 0.164,0.192 0.164,0.189 0.191,0.164 0.19,0.162 0.218,0.138 0.246,0.136 0.245,0.108 0.245,0.11 0.273,0.082 0.272,0.079 0.272,0.057 0.272,0.025 0.299,0.028 0.3,0 0.3,0 0.299,-0.028 0.299,-0.054 0.3,-0.054 0.272,-0.054 0.3,-0.11 0.273,-0.108 0.273,-0.138 0.272,-0.136 0.246,-0.137 0.244,-0.164 0.246,-0.189 0.218,-0.189 0.19,-0.219 0.192,-0.218 0.19,-0.218 0,1.774" /><path
         style="fill:#1f2c51"
         inkscape:connector-curvature="0"
         id="path2620"
         d="m 169.469,186.813 3.297,0 0,-16.293 -3.297,0 0,16.293" /><path
         style="fill:#1f2c51"
         inkscape:connector-curvature="0"
         id="path2622"
         d="m 176.117,173.407 3.27,0 0,-2.888 -3.27,0 0,2.888" /><path
         style="fill:#1f2c51"
         inkscape:connector-curvature="0"
         id="path2624"
         d="m 176.117,186.813 3.27,0 0,-11.799 -3.27,0 0,11.799" /><path
         style="fill:#1f2c51"
         inkscape:connector-curvature="0"
         id="path2626"
         d="m 193.529,179.159 -0.164,-0.521 -0.19,-0.49 -0.218,-0.516 -0.218,-0.492 -0.273,-0.464 -0.272,-0.408 -0.163,-0.189 -0.163,-0.164 -0.137,-0.136 -0.191,-0.136 -0.354,-0.219 -0.381,-0.164 -0.381,-0.164 -0.436,-0.136 -0.464,-0.082 -0.49,-0.082 -0.491,-0.028 -0.545,-0.025 -0.654,0.025 -0.626,0.082 -0.3,0.057 -0.272,0.054 -0.3,0.082 -0.271,0.108 -0.246,0.082 -0.272,0.136 -0.246,0.138 -0.245,0.137 -0.246,0.136 -0.218,0.189 -0.218,0.164 -0.218,0.19 -0.19,0.218 -0.191,0.218 -0.163,0.218 -0.164,0.218 -0.163,0.274 -0.137,0.244 -0.108,0.271 -0.109,0.274 -0.108,0.3 -0.082,0.298 -0.082,0.328 -0.055,0.326 -0.027,0.355 -0.054,0.326 0,0.382 -0.028,0.354 0.028,0.628 0.082,0.598 0.108,0.574 0.164,0.571 0.19,0.519 0.272,0.516 0.3,0.464 0.327,0.464 0.19,0.218 0.191,0.219 0.218,0.189 0.245,0.164 0.218,0.164 0.246,0.162 0.272,0.109 0.272,0.137 0.3,0.107 0.299,0.082 0.301,0.082 0.326,0.054 0.328,0.057 0.354,0.025 0.354,0.028 0.382,0 0.572,-0.028 0.544,-0.054 0.519,-0.107 0.49,-0.164 0.463,-0.164 0.436,-0.246 0.381,-0.244 0.382,-0.3 0.354,-0.354 0.299,-0.354 0.299,-0.382 0.246,-0.437 0.218,-0.436 0.218,-0.49 0.163,-0.492 0.137,-0.518 -3.215,0 -0.083,0.3 -0.081,0.274 -0.082,0.244 -0.109,0.246 -0.109,0.189 -0.136,0.192 -0.108,0.161 -0.164,0.139 -0.137,0.107 -0.164,0.11 -0.189,0.08 -0.191,0.056 -0.191,0.055 -0.19,0.054 -0.218,0.028 -0.218,0 -0.327,-0.028 -0.272,-0.026 -0.273,-0.082 -0.246,-0.082 -0.245,-0.109 -0.218,-0.162 -0.218,-0.164 -0.192,-0.218 -0.163,-0.218 -0.163,-0.272 -0.11,-0.328 -0.107,-0.354 -0.083,-0.382 -0.054,-0.437 -0.055,-0.464 0,-0.516 0,-0.436 0.055,-0.437 0.054,-0.382 0.083,-0.356 0.107,-0.325 0.11,-0.272 0.163,-0.274 0.163,-0.218 0.192,-0.161 0.218,-0.164 0.218,-0.137 0.218,-0.136 0.272,-0.082 0.245,-0.054 0.3,-0.028 0.273,-0.028 0.244,0 0.218,0.028 0.191,0.054 0.191,0.028 0.19,0.082 0.164,0.082 0.164,0.08 0.136,0.11 0.136,0.136 0.136,0.136 0.109,0.139 0.081,0.161 0.082,0.19 0.082,0.191 0.055,0.219 0.054,0.218 3.243,0.114" /><path
         style="fill:#1f2c51"
         inkscape:connector-curvature="0"
         id="path2628"
         d="m 215.764,175.015 0,2.454 1.825,0 0,9.345 3.271,0 0,-9.345 2.425,0 0,-2.454 -2.425,0 0,-0.844 0.027,-0.41 0.055,-0.354 0.027,-0.136 0.055,-0.108 0.082,-0.109 0.055,-0.082 0.082,-0.082 0.108,-0.055 0.11,-0.054 0.108,-0.054 0.273,-0.057 0.327,-0.027 0.382,0.027 0.381,0.028 0.381,0.054 0.382,0.082 0.436,-2.18 -0.682,-0.191 -0.681,-0.108 -0.682,-0.082 -0.681,-0.028 -0.327,0 -0.3,0.028 -0.272,0.028 -0.299,0.054 -0.246,0.054 -0.245,0.082 -0.246,0.082 -0.218,0.082 -0.218,0.11 -0.19,0.108 -0.19,0.136 -0.164,0.136 -0.136,0.136 -0.136,0.164 -0.137,0.164 -0.109,0.19 -0.082,0.189 -0.083,0.218 -0.054,0.246 -0.054,0.274 -0.055,0.326 -0.027,0.328 -0.028,0.354 0,0.38 0,0.899 -1.825,0" /><path
         style="fill:#1f2c51"
         inkscape:connector-curvature="0"
         id="path2630"
         d="m 231.704,186.813 3.434,0 0,-16.293 -3.434,0 0,16.293" /><path
         style="fill:#1f2c51"
         inkscape:connector-curvature="0"
         id="path2632"
         d="m 241.541,186.813 0,-3.649 0.028,-1.282 0.027,-1.062 0.082,-0.846 0.109,-0.598 0.055,-0.274 0.054,-0.218 0.082,-0.218 0.109,-0.162 0.082,-0.192 0.109,-0.136 0.109,-0.136 0.136,-0.11 0.273,-0.164 0.272,-0.134 0.327,-0.056 0.327,-0.028 0.191,0 0.164,0.028 0.19,0.027 0.192,0.055 0.408,0.164 0.382,0.218 1.035,-2.698 -0.273,-0.136 -0.244,-0.138 -0.273,-0.08 -0.272,-0.11 -0.272,-0.054 -0.272,-0.057 -0.273,-0.025 -0.272,0 -0.381,0.025 -0.381,0.082 -0.328,0.11 -0.327,0.164 -0.164,0.108 -0.163,0.136 -0.164,0.164 -0.164,0.164 -0.382,0.464 -0.381,0.516 0,-1.662 -3.025,0 0,11.799 3.268,0" /><path
         style="fill:#1f2c51"
         inkscape:connector-curvature="0"
         id="path2634"
         d="m 272.195,186.813 0,-7.329 -0.027,-0.817 -0.081,-0.708 -0.027,-0.326 -0.082,-0.302 -0.082,-0.272 -0.082,-0.218 -0.108,-0.244 -0.109,-0.218 -0.136,-0.192 -0.164,-0.189 -0.19,-0.192 -0.19,-0.161 -0.218,-0.164 -0.246,-0.164 -0.245,-0.137 -0.272,-0.109 -0.272,-0.108 -0.3,-0.082 -0.327,-0.054 -0.326,-0.057 -0.327,-0.025 -0.354,0 -0.3,0 -0.301,0.025 -0.299,0.057 -0.272,0.054 -0.272,0.054 -0.272,0.082 -0.272,0.11 -0.244,0.108 -0.273,0.136 -0.245,0.164 -0.219,0.164 -0.245,0.164 -0.218,0.218 -0.218,0.189 -0.219,0.246 -0.19,0.219 0,-1.719 -3.052,0 0,11.799 3.271,0 0,-5.339 0.027,-0.954 0.055,-0.764 0.026,-0.326 0.056,-0.271 0.054,-0.246 0.055,-0.219 0.082,-0.164 0.081,-0.189 0.109,-0.139 0.108,-0.161 0.109,-0.136 0.137,-0.139 0.162,-0.107 0.164,-0.11 0.164,-0.108 0.163,-0.082 0.19,-0.054 0.19,-0.082 0.382,-0.054 0.409,-0.028 0.299,0 0.301,0.082 0.271,0.082 0.246,0.136 0.245,0.192 0.191,0.218 0.163,0.244 0.109,0.271 0.081,0.383 0.054,0.518 0.028,0.68 0.027,0.846 0,6.021 3.267,0" /><path
         style="fill:#1f2c51"
         inkscape:connector-curvature="0"
         id="path2636"
         d="m 81.156,163.163 3.487,0 0,-14.606 5.15,0 0,-2.97 -13.76,0 0,2.97 5.123,0 0,14.606" /><path
         style="fill:#1f2c51"
         inkscape:connector-curvature="0"
         id="path2638"
         d="m 95.352,145.587 -3.324,0 0,17.576 3.324,0 0,-6.378 0,-0.571 0.028,-0.519 0.054,-0.463 0.082,-0.436 0.109,-0.381 0.109,-0.328 0.164,-0.272 0.164,-0.246 0.191,-0.189 0.191,-0.189 0.218,-0.138 0.245,-0.108 0.272,-0.109 0.272,-0.055 0.3,-0.055 0.299,0 0.3,0 0.272,0.026 0.245,0.083 0.219,0.081 0.218,0.11 0.164,0.136 0.164,0.164 0.136,0.189 0.082,0.164 0.082,0.245 0.055,0.273 0.054,0.325 0.027,0.41 0.055,0.437 0,0.517 0,0.545 0,6.731 3.324,0 0,-7.468 -0.027,-1.008 -0.054,-0.817 -0.055,-0.354 -0.054,-0.325 -0.055,-0.274 -0.082,-0.245 -0.109,-0.299 -0.136,-0.274 -0.163,-0.271 -0.164,-0.218 -0.191,-0.245 -0.19,-0.191 -0.246,-0.189 -0.245,-0.192 -0.246,-0.135 -0.272,-0.137 -0.299,-0.108 -0.3,-0.11 -0.327,-0.08 -0.327,-0.027 -0.354,-0.057 -0.382,0 -0.272,0 -0.272,0.028 -0.272,0.056 -0.245,0.026 -0.272,0.082 -0.245,0.082 -0.246,0.081 -0.245,0.109 -0.246,0.136 -0.218,0.137 -0.245,0.163 -0.219,0.164 -0.218,0.189 -0.19,0.219 -0.218,0.218 -0.191,0.218 0,-6.459" /><path
         style="fill:#1f2c51"
         inkscape:connector-curvature="0"
         id="path2640"
         d="m 144.454,148.692 3.324,0 0,-3.105 -3.324,0 0,3.105" /><path
         style="fill:#1f2c51"
         inkscape:connector-curvature="0"
         id="path2642"
         d="m 144.454,163.163 3.324,0 0,-12.726 -3.324,0 0,12.726" /><path
         style="fill:#1f2c51"
         inkscape:connector-curvature="0"
         id="path2644"
         d="m 154.373,163.163 0,-3.952 0,-0.708 0.028,-0.653 0,-0.601 0.026,-0.546 0.028,-0.489 0.054,-0.408 0.055,-0.382 0.055,-0.3 0.054,-0.272 0.055,-0.246 0.082,-0.218 0.109,-0.218 0.082,-0.164 0.109,-0.162 0.137,-0.137 0.109,-0.109 0.136,-0.108 0.136,-0.081 0.164,-0.082 0.136,-0.056 0.163,-0.055 0.164,-0.025 0.163,-0.028 0.164,0 0.19,0 0.19,0.028 0.192,0.054 0.19,0.054 0.381,0.164 0.408,0.245 1.036,-2.942 -0.246,-0.137 -0.272,-0.137 -0.272,-0.109 -0.272,-0.082 -0.273,-0.08 -0.272,-0.027 -0.272,-0.057 -0.299,0 -0.382,0.028 -0.381,0.082 -0.191,0.054 -0.164,0.082 -0.163,0.082 -0.164,0.082 -0.164,0.137 -0.164,0.136 -0.163,0.164 -0.164,0.189 -0.382,0.49 -0.381,0.573 0,-1.798 -3.08,0 0,12.726 3.325,0" /><path
         style="fill:#1f2c51"
         inkscape:connector-curvature="0"
         id="path2646"
         d="m 160.613,163.163 3.324,0 0,-17.576 -3.324,0 0,17.576" /><path
         style="fill:#1f2c51"
         inkscape:connector-curvature="0"
         id="path2648"
         d="m 167.343,148.692 3.325,0 0,-3.105 -3.325,0 0,3.105" /><path
         style="fill:#1f2c51"
         inkscape:connector-curvature="0"
         id="path2650"
         d="m 167.343,163.163 3.325,0 0,-12.726 -3.325,0 0,12.726" /><path
         style="fill:#1f2c51"
         inkscape:connector-curvature="0"
         id="path2652"
         d="m 185.463,163.163 0,-7.931 -0.026,-0.872 -0.055,-0.763 -0.054,-0.354 -0.082,-0.3 -0.082,-0.301 -0.082,-0.244 -0.109,-0.245 -0.108,-0.246 -0.163,-0.218 -0.165,-0.19 -0.164,-0.218 -0.218,-0.164 -0.218,-0.191 -0.245,-0.162 -0.246,-0.137 -0.272,-0.137 -0.299,-0.109 -0.3,-0.082 -0.299,-0.08 -0.327,-0.027 -0.354,-0.057 -0.354,0 -0.3,0 -0.3,0.028 -0.301,0.056 -0.299,0.054 -0.272,0.081 -0.272,0.083 -0.272,0.108 -0.273,0.137 -0.245,0.136 -0.246,0.164 -0.245,0.189 -0.246,0.191 -0.218,0.19 -0.218,0.245 -0.218,0.245 -0.19,0.246 0,-1.853 -3.106,0 0,12.726 3.325,0 0,-5.777 0.026,-1.008 0.055,-0.818 0.027,-0.354 0.054,-0.328 0.055,-0.244 0.055,-0.218 0.082,-0.192 0.081,-0.189 0.109,-0.164 0.109,-0.163 0.136,-0.163 0.136,-0.136 0.136,-0.138 0.164,-0.108 0.19,-0.109 0.164,-0.083 0.191,-0.081 0.19,-0.054 0.191,-0.055 0.19,-0.028 0.192,-0.026 0.218,0 0.299,0 0.299,0.082 0.3,0.108 0.273,0.137 0.218,0.218 0.191,0.219 0.164,0.272 0.109,0.3 0.082,0.408 0.054,0.572 0.054,0.735 0,0.872 0,6.514 3.324,0" /><path
         style="fill:#1f2c51"
         inkscape:connector-curvature="0"
         id="path2654"
         d="m 222.357,150.438 0,2.643 1.854,0 0,10.083 3.297,0 0,-10.084 2.48,0 0,-2.643 -2.48,0 0,-0.899 0.028,-0.464 0.054,-0.354 0.054,-0.164 0.055,-0.136 0.055,-0.109 0.082,-0.109 0.082,-0.082 0.082,-0.054 0.109,-0.055 0.136,-0.056 0.273,-0.054 0.327,-0.026 0.381,0 0.382,0.055 0.381,0.054 0.408,0.082 0.436,-2.344 -0.68,-0.189 -0.709,-0.138 -0.681,-0.08 -0.708,-0.028 -0.299,0 -0.328,0.028 -0.272,0.025 -0.3,0.055 -0.245,0.056 -0.273,0.082 -0.244,0.081 -0.218,0.108 -0.218,0.136 -0.191,0.11 -0.19,0.136 -0.164,0.163 -0.164,0.138 -0.137,0.189 -0.109,0.164 -0.109,0.189 -0.082,0.219 -0.082,0.246 -0.081,0.271 -0.055,0.3 -0.028,0.327 -0.054,0.355 0,0.379 0,0.41 0,0.981 -1.855,0" /><path
         style="fill:#1f2c51"
         inkscape:connector-curvature="0"
         id="path2656"
         d="m 244.32,150.438 -2.262,0 0,-4.497 -3.324,-0.027 0,4.524 -1.526,0 0,2.669 1.526,0 0,5.559 0.027,0.982 0.027,0.789 0.054,0.626 0.082,0.437 0.083,0.218 0.082,0.218 0.109,0.192 0.137,0.189 0.136,0.192 0.137,0.164 0.164,0.134 0.19,0.138 0.19,0.108 0.218,0.11 0.246,0.082 0.245,0.082 0.245,0.054 0.272,0.025 0.3,0.028 0.327,0 0.708,0.028 0.655,0 0.326,-0.028 0.299,-0.028 0.3,-0.079 0.3,-0.11 -0.273,-2.698 -0.218,0.055 -0.191,0.054 -0.191,0.028 -0.164,0 -0.326,0 -0.246,0 -0.136,0 -0.136,-0.028 -0.136,-0.054 -0.11,-0.055 -0.081,-0.054 -0.082,-0.082 -0.082,-0.107 -0.055,-0.11 -0.054,-0.218 -0.028,-0.382 -0.027,-0.572 0,-0.764 0,-5.123 2.262,0 0,-2.669" /><path
         style="fill:#1f2c51"
         inkscape:connector-curvature="0"
         id="path2658"
         d="m 249.96,145.587 -3.324,0 0,17.576 3.324,0 0,-6.378 0,-0.571 0.055,-0.519 0.054,-0.463 0.083,-0.436 0.082,-0.381 0.137,-0.328 0.135,-0.272 0.165,-0.246 0.19,-0.189 0.218,-0.189 0.218,-0.138 0.246,-0.108 0.245,-0.109 0.272,-0.055 0.3,-0.055 0.3,0 0.3,0 0.272,0.026 0.245,0.083 0.218,0.081 0.218,0.11 0.164,0.136 0.163,0.164 0.137,0.189 0.109,0.164 0.054,0.245 0.055,0.273 0.056,0.325 0.081,0.847 0.026,1.062 0,6.731 3.298,0 0,-7.468 -0.028,-1.008 -0.054,-0.817 -0.027,-0.354 -0.055,-0.325 -0.082,-0.274 -0.082,-0.245 -0.108,-0.299 -0.136,-0.274 -0.137,-0.271 -0.191,-0.218 -0.189,-0.245 -0.191,-0.191 -0.218,-0.189 -0.245,-0.192 -0.272,-0.135 -0.272,-0.137 -0.3,-0.108 -0.3,-0.11 -0.327,-0.08 -0.326,-0.027 -0.354,-0.057 -0.354,0 -0.3,0 -0.272,0.028 -0.245,0.056 -0.272,0.026 -0.272,0.082 -0.245,0.082 -0.245,0.081 -0.246,0.109 -0.218,0.136 -0.245,0.137 -0.218,0.163 -0.218,0.164 -0.218,0.189 -0.218,0.219 -0.218,0.218 -0.191,0.218 0,-6.459" /><path
         style="fill:#1f2c51"
         inkscape:connector-curvature="0"
         id="path2716"
         d="m 197.562,117.493 5.177,13.216 16.785,0 -23.08,-58.394 -19.4,0 -22.344,58.394 15.668,0 5.122,-13.216 22.072,0 -3.597,-10.49 -14.769,0 7.384,-22.181 7.385,22.181" /><path
         style="fill:#1f2c51"
         inkscape:connector-curvature="0"
         id="path2718"
         d="m 62.818,99.727 0.327,-0.136 0.381,-0.19 0.463,-0.164 0.49,-0.19 1.118,-0.382 1.281,-0.382 1.417,-0.354 1.553,-0.327 0.791,-0.163 0.817,-0.137 0.844,-0.136 0.845,-0.109 0.844,-0.082 0.872,-0.082 0.845,-0.054 0.872,-0.028 0.845,0 0.845,0.028 0.818,0.054 0.817,0.082 0.791,0.136 0.763,0.164 0.735,0.189 0.708,0.218 0.681,0.273 0.626,0.3 0.6,0.355 0.572,0.408 0.136,0.136 0.136,0.164 0.136,0.164 0.109,0.19 0.109,0.218 0.082,0.218 0.082,0.246 0.054,0.272 0.109,0.544 0.082,0.628 0.027,0.68 0.027,0.737 -1.09,0.108 -1.035,0.054 -0.981,0.056 -0.981,0.054 -1.826,0.027 -1.826,0 -1.826,0.027 -1.907,0.082 -1.009,0.081 -1.062,0.081 -1.09,0.139 -1.145,0.189 -1.036,0.191 -1.009,0.244 -0.98,0.301 -0.954,0.354 -0.927,0.409 -0.872,0.463 -0.844,0.491 -0.791,0.545 -0.763,0.6 -0.735,0.626 -0.654,0.653 -0.627,0.708 -0.572,0.71 -0.518,0.762 -0.464,0.791 -0.409,0.817 -0.354,0.844 -0.3,0.874 -0.218,0.897 -0.164,0.9 -0.081,0.926 -0.028,0.927 0.055,0.953 0.136,0.953 0.19,0.982 0.3,0.98 0.354,0.981 0.436,0.98 0.546,0.981 0.627,0.98 0.708,0.98 0.817,0.981 0.19,0.245 0.251,0.223 0.218,0.19 0.245,0.219 0.545,0.381 0.573,0.354 0.626,0.299 0.682,0.3 0.681,0.246 0.736,0.245 0.736,0.191 0.79,0.164 0.791,0.136 0.817,0.136 0.818,0.082 0.817,0.054 0.845,0.028 0.845,0.027 0.626,0 0.627,-0.027 0.599,-0.028 0.6,-0.054 0.6,-0.055 0.572,-0.081 0.572,-0.082 0.573,-0.109 0.545,-0.108 0.545,-0.136 0.518,-0.138 0.518,-0.163 0.518,-0.164 0.49,-0.189 0.518,-0.218 0.463,-0.192 0.708,-0.354 0.708,-0.408 0.681,-0.464 0.708,-0.519 0.708,-0.571 0.708,-0.654 0.708,-0.681 0.708,-0.736 0.164,0.846 0.164,0.735 0.191,0.626 0.136,0.491 0.137,0.517 0.19,0.682 0.109,0.383 0.137,0.407 0.136,0.409 0.191,0.409 14.36,0 -0.272,-0.654 -0.191,-0.653 -0.19,-0.627 -0.137,-0.627 -0.109,-0.572 -0.082,-0.572 -0.082,-0.49 -0.082,-0.463 -0.082,-0.437 -0.054,-0.489 -0.055,-0.519 -0.054,-0.571 -0.027,-0.601 -0.027,-0.653 -0.027,-0.683 -0.028,-0.708 -0.327,-18.692 -0.027,-0.737 -0.055,-0.68 -0.082,-0.682 -0.109,-0.654 -0.136,-0.681 -0.191,-0.709 -0.19,-0.736 -0.246,-0.817 -0.163,-0.409 -0.164,-0.408 -0.164,-0.382 -0.218,-0.408 -0.218,-0.383 -0.218,-0.381 -0.246,-0.382 -0.245,-0.354 -0.518,-0.682 -0.518,-0.626 -0.518,-0.572 -0.463,-0.49 -0.354,-0.327 -0.354,-0.299 -0.381,-0.328 -0.409,-0.272 -0.408,-0.299 -0.436,-0.273 -0.436,-0.272 -0.463,-0.246 -0.49,-0.246 -0.463,-0.218 -0.491,-0.218 -0.49,-0.19 -0.49,-0.164 -0.491,-0.164 -0.49,-0.137 -0.491,-0.109 -1.035,-0.19 -1.09,-0.218 -1.2,-0.191 -1.253,-0.164 -1.335,-0.164 -1.417,-0.109 -1.525,-0.082 -1.554,-0.027 -1.008,0 -0.982,0.03 -0.981,0.055 -0.953,0.081 -0.926,0.109 -0.899,0.109 -0.899,0.136 -0.872,0.164 -1.008,0.19 -1.253,0.272 -1.335,0.3 -1.39,0.354 -0.681,0.191 -0.626,0.191 -0.6,0.19 -0.545,0.218 -0.463,0.19 -0.384,0.22 -0.164,0.109 -0.136,0.109 -0.108,0.082 -0.082,0.109 -0.027,9.618 23.651,11.473 0,1.77 -0.027,0.737 -0.027,0.709 -0.082,0.68 -0.082,0.628 -0.109,0.599 -0.164,0.573 -0.164,0.517 -0.218,0.491 -0.109,0.218 -0.109,0.219 -0.136,0.189 -0.136,0.164 -0.327,0.327 -0.354,0.299 -0.79,0.546 -0.981,0.6 -0.49,0.299 -0.491,0.219 -0.49,0.19 -0.49,0.136 -0.491,0.109 -0.518,0.055 -0.545,0.026 -0.599,0.028 -0.627,-0.028 -0.708,-0.054 -0.736,-0.108 -0.763,-0.137 -0.381,-0.081 -0.354,-0.082 -0.327,-0.082 -0.3,-0.11 -0.3,-0.136 -0.245,-0.107 -0.218,-0.137 -0.164,-0.164 -0.3,-0.328 -0.245,-0.354 -0.246,-0.381 -0.19,-0.409 -0.163,-0.436 -0.109,-0.437 -0.082,-0.463 -0.027,-0.49 0.027,-0.408 0.082,-0.464 0.109,-0.463 0.163,-0.437 0.19,-0.463 0.218,-0.408 0.272,-0.409 0.272,-0.328 0.191,-0.162 0.218,-0.19 0.272,-0.164 0.3,-0.191 0.354,-0.164 0.408,-0.189 0.409,-0.163 0.463,-0.164 0.49,-0.163 0.491,-0.164 0.517,-0.136 0.545,-0.11 0.545,-0.107 0.573,-0.082 0.545,-0.082 0.572,-0.027 0.817,-0.055 0.817,-0.026 0.763,0 0.736,-0.028 0.735,0 0.763,-0.027 0.763,0 0.791,-0.026" /><path
         style="fill:#1f2c51"
         inkscape:connector-curvature="0"
         id="path2720"
         d="m 268.898,159.675 -0.082,0.219 -0.081,0.189 -0.083,0.164 -0.108,0.136 -0.136,0.11 -0.109,0.107 -0.164,0.082 -0.136,0.082 -0.327,0.08 -0.327,0.057 -0.381,0.027 -0.382,0 -0.272,-0.027 -0.272,-0.028 -0.244,-0.054 -0.246,-0.108 -0.245,-0.11 -0.218,-0.136 -0.191,-0.164 -0.218,-0.189 -0.19,-0.218 -0.136,-0.246 -0.137,-0.272 -0.137,-0.274 -0.081,-0.297 -0.056,-0.328 -0.055,-0.354 -0.026,-0.354 8.311,0 0.027,-0.382 0,-0.465 -0.027,-0.436 -0.027,-0.436 -0.054,-0.408 -0.056,-0.382 -0.081,-0.408 -0.081,-0.354 -0.11,-0.355 -0.108,-0.354 -0.136,-0.326 -0.164,-0.3 -0.136,-0.3 -0.191,-0.301 -0.163,-0.271 -0.218,-0.246 -0.191,-0.245 -0.218,-0.19 -0.19,-0.19 -0.218,-0.192 -0.218,-0.161 -0.246,-0.138 -0.245,-0.137 -0.246,-0.135 -0.244,-0.109 -0.272,-0.082 -0.272,-0.082 -0.301,-0.082 -0.299,-0.054 -0.599,-0.082 -0.682,-0.028 -0.572,0.028 -0.573,0.082 -0.271,0.054 -0.273,0.055 -0.244,0.083 -0.246,0.108 -0.245,0.109 -0.245,0.109 -0.218,0.136 -0.218,0.164 -0.219,0.136 -0.218,0.189 -0.19,0.164 -0.19,0.219 -0.219,0.218 -0.218,0.271 -0.19,0.272 -0.164,0.273 -0.163,0.272 -0.163,0.3 -0.137,0.3 -0.109,0.3 -0.108,0.326 -0.081,0.354 -0.082,0.328 -0.055,0.354 -0.055,0.382 -0.027,0.354 -0.027,0.383 -0.027,0.407 0.027,0.409 0.027,0.381 0.027,0.382 0.055,0.354 0.055,0.354 0.082,0.328 0.081,0.354 0.108,0.301 0.109,0.325 0.137,0.3 0.136,0.272 0.164,0.274 0.19,0.271 0.19,0.246 0.191,0.244 0.218,0.246 0.19,0.164 0.218,0.189 0.218,0.164 0.219,0.136 0.218,0.136 0.245,0.137 0.272,0.109 0.245,0.108 0.273,0.082 0.299,0.082 0.273,0.082 0.325,0.054 0.628,0.054 0.681,0.028 0.49,0 0.464,-0.054 0.464,-0.054 0.436,-0.11 0.408,-0.136 0.382,-0.164 0.381,-0.19 0.354,-0.218 0.354,-0.246 0.3,-0.271 0.3,-0.301 0.272,-0.354 0.244,-0.382 0.219,-0.382 0.218,-0.437 0.164,-0.462 -3.109,0 0,-3.979 -4.986,0 0.026,-0.325 0.027,-0.328 0.055,-0.301 0.082,-0.3 0.082,-0.271 0.136,-0.245 0.164,-0.218 0.163,-0.218 0.19,-0.163 0.19,-0.164 0.191,-0.136 0.219,-0.11 0.244,-0.081 0.218,-0.083 0.245,-0.026 0.273,0 0.245,0 0.245,0.026 0.218,0.083 0.218,0.081 0.218,0.082 0.191,0.136 0.19,0.164 0.19,0.164 0.164,0.189 0.136,0.246 0.137,0.245 0.109,0.245 0.081,0.3 0.055,0.327 0.054,0.327 0.028,0.354" /><path
         style="fill:#1f2c51"
         inkscape:connector-curvature="0"
         id="path2722"
         d="m 208.243,156.622 0,0.381 0.027,0.409 0.027,0.381 0.054,0.355 0.082,0.381 0.082,0.328 0.082,0.354 0.109,0.3 0.109,0.326 0.137,0.3 0.163,0.272 0.164,0.273 0.19,0.272 0.191,0.246 0.218,0.243 0.218,0.219 0.218,0.218 0.245,0.218 0.246,0.164 0.272,0.192 0.246,0.161 0.272,0.137 0.3,0.138 0.272,0.108 0.299,0.109 0.3,0.08 0.3,0.082 0.326,0.057 0.328,0.054 0.327,0.025 0.327,0.028 0.354,0 0.436,0 0.409,-0.054 0.436,-0.054 0.382,-0.082 0.408,-0.11 0.381,-0.136 0.382,-0.164 0.381,-0.19 0.354,-0.218 0.327,-0.218 0.327,-0.274 0.299,-0.271 0.301,-0.326 0.271,-0.328 0.246,-0.354 0.218,-0.38 0.218,-0.41 0.19,-0.408 0.164,-0.436 0.109,-0.438 0.109,-0.436 0.054,-0.463 0.055,-0.491 0,-0.463 0,-0.327 -0.027,-0.327 -0.028,-0.326 -0.054,-0.301 -0.054,-0.299 -0.055,-0.328 -0.109,-0.271 -0.082,-0.3 -0.136,-0.272 -0.109,-0.3 -0.163,-0.271 -0.137,-0.274 -0.164,-0.271 -0.19,-0.245 -0.191,-0.245 -0.218,-0.274 -0.218,-0.218 -0.244,-0.218 -0.218,-0.218 -0.273,-0.19 -0.245,-0.189 -0.272,-0.164 -0.299,-0.136 -0.273,-0.137 -0.299,-0.109 -0.328,-0.108 -0.326,-0.082 -0.328,-0.055 -0.354,-0.054 -0.327,-0.056 -0.382,-0.028 -0.354,0 -0.464,0.028 -0.436,0.028 -0.408,0.054 -0.409,0.082 -0.408,0.109 -0.381,0.135 -0.382,0.164 -0.354,0.164 -0.354,0.218 -0.354,0.218 -0.3,0.245 -0.3,0.273 -0.299,0.3 -0.246,0.325 -0.272,0.355 -0.218,0.381 -0.218,0.382 -0.164,0.408 -0.163,0.41 -0.137,0.407 -0.082,0.437 -0.082,0.436 -0.027,0.464 -0.027,0.463 3.406,0.163 0,-0.463 0.055,-0.436 0.082,-0.409 0.082,-0.382 0.136,-0.326 0.164,-0.328 0.164,-0.299 0.218,-0.272 0.218,-0.219 0.245,-0.218 0.273,-0.163 0.245,-0.137 0.272,-0.107 0.299,-0.082 0.3,-0.056 0.3,0 0.298,0 0.301,0.056 0.299,0.082 0.272,0.107 0.272,0.137 0.246,0.163 0.244,0.218 0.246,0.219 0.218,0.272 0.164,0.299 0.163,0.3 0.137,0.354 0.081,0.382 0.082,0.409 0.055,0.409 0,0.463 0,0.49 -0.055,0.437 -0.054,0.407 -0.109,0.383 -0.137,0.354 -0.137,0.328 -0.19,0.271 -0.218,0.272 -0.218,0.246 -0.246,0.189 -0.245,0.164 -0.273,0.136 -0.273,0.11 -0.272,0.08 -0.3,0.056 -0.3,0.028 -0.327,-0.028 -0.299,-0.056 -0.3,-0.08 -0.272,-0.082 -0.272,-0.164 -0.245,-0.164 -0.246,-0.189 -0.245,-0.246 -0.218,-0.244 -0.164,-0.3 -0.164,-0.328 -0.136,-0.354 -0.082,-0.354 -0.082,-0.436 -0.055,-0.437 0,-0.464" /><path
         style="fill:#1f2c51"
         inkscape:connector-curvature="0"
         id="path2724"
         d="m 250.124,178.612 0.163,-0.41 0.191,-0.325 0.109,-0.136 0.109,-0.108 0.136,-0.11 0.109,-0.082 0.272,-0.136 0.327,-0.082 0.381,-0.082 0.409,0 0.408,0 0.354,0.028 0.3,0.082 0.272,0.08 0.218,0.109 0.191,0.108 0.137,0.138 0.108,0.137 0.082,0.189 0.054,0.3 0.028,0.354 0.027,0.436 -0.546,0.189 -0.708,0.192 -0.872,0.19 -1.063,0.191 -0.872,0.19 -0.736,0.192 -0.327,0.107 -0.3,0.082 -0.245,0.107 -0.246,0.11 -0.19,0.108 -0.191,0.138 -0.191,0.136 -0.163,0.137 -0.164,0.164 -0.164,0.161 -0.135,0.164 -0.109,0.19 -0.109,0.191 -0.109,0.19 -0.081,0.218 -0.055,0.192 -0.055,0.243 -0.026,0.219 -0.027,0.246 0,0.246 0,0.379 0.054,0.354 0.11,0.356 0.107,0.325 0.164,0.3 0.19,0.301 0.246,0.243 0.272,0.246 0.301,0.246 0.3,0.19 0.354,0.164 0.354,0.136 0.381,0.082 0.408,0.082 0.41,0.054 0.436,0 0.544,-0.028 0.519,-0.054 0.489,-0.136 0.491,-0.164 0.464,-0.218 0.462,-0.272 0.437,-0.3 0.436,-0.382 0.436,1.308 3.217,0 -0.191,-0.436 -0.163,-0.408 -0.109,-0.382 -0.108,-0.382 -0.055,-0.408 -0.056,-0.544 -0.026,-0.6 -0.027,-0.736 0.027,-3.626 0,-0.489 -0.027,-0.462 -0.027,-0.41 -0.055,-0.382 -0.054,-0.354 -0.082,-0.271 -0.109,-0.271 -0.108,-0.219 -0.109,-0.191 -0.163,-0.162 -0.164,-0.192 -0.19,-0.161 -0.191,-0.139 -0.244,-0.136 -0.218,-0.136 -0.273,-0.108 -0.299,-0.11 -0.3,-0.107 -0.354,-0.057 -0.382,-0.082 -0.408,-0.054 -0.464,-0.028 -0.464,-0.025 -0.49,0 -0.571,0.025 -0.545,0.028 -0.491,0.054 -0.463,0.082 -0.437,0.11 -0.382,0.136 -0.353,0.164 -0.327,0.19 -0.3,0.218 -0.299,0.246 -0.246,0.271 -0.245,0.301 -0.191,0.325 -0.19,0.382 -0.19,0.383 -0.137,0.436 2.967,0.522 4.388,2.534 0,0.628 -0.027,0.598 -0.055,0.518 -0.027,0.219 -0.055,0.191 -0.054,0.162 -0.056,0.164 -0.163,0.246 -0.218,0.218 -0.246,0.218 -0.326,0.19 -0.327,0.164 -0.354,0.107 -0.354,0.082 -0.327,0.028 -0.19,-0.028 -0.19,0 -0.164,-0.054 -0.19,-0.054 -0.136,-0.054 -0.163,-0.082 -0.137,-0.082 -0.137,-0.11 -0.136,-0.136 -0.082,-0.108 -0.109,-0.136 -0.054,-0.139 -0.054,-0.161 -0.055,-0.136 -0.027,-0.164 0,-0.164 0,-0.137 0.027,-0.164 0.027,-0.107 0.054,-0.136 0.082,-0.11 0.083,-0.107 0.082,-0.11 0.108,-0.11 0.136,-0.08 0.163,-0.109 0.218,-0.082 0.218,-0.082 0.573,-0.162 0.681,-0.164 0.627,-0.136 0.518,-0.11 0.464,-0.107 0.354,-0.11" /><path
         style="fill:#1f2c51"
         inkscape:connector-curvature="0"
         id="path2726"
         d="m 201.867,180.738 0,0.382 0.027,0.354 0.028,0.354 0.054,0.354 0.055,0.328 0.082,0.325 0.109,0.3 0.108,0.301 0.11,0.271 0.136,0.3 0.136,0.246 0.163,0.272 0.19,0.243 0.191,0.218 0.218,0.219 0.218,0.218 0.218,0.192 0.245,0.189 0.246,0.192 0.246,0.136 0.272,0.162 0.273,0.138 0.273,0.108 0.272,0.109 0.299,0.108 0.301,0.082 0.299,0.054 0.299,0.082 0.654,0.054 0.682,0.028 0.408,0 0.409,-0.028 0.409,-0.082 0.408,-0.079 0.381,-0.082 0.382,-0.137 0.382,-0.164 0.381,-0.164 0.328,-0.189 0.354,-0.218 0.3,-0.246 0.299,-0.272 0.299,-0.271 0.246,-0.3 0.272,-0.354 0.218,-0.355 0.218,-0.354 0.164,-0.38 0.164,-0.41 0.108,-0.407 0.109,-0.41 0.082,-0.437 0.027,-0.436 0.027,-0.436 -0.027,-0.598 -0.082,-0.601 -0.082,-0.271 -0.054,-0.274 -0.082,-0.271 -0.109,-0.272 -0.109,-0.271 -0.136,-0.246 -0.137,-0.274 -0.164,-0.244 -0.327,-0.489 -0.409,-0.464 -0.218,-0.219 -0.218,-0.218 -0.246,-0.189 -0.245,-0.164 -0.273,-0.164 -0.245,-0.164 -0.299,-0.136 -0.272,-0.108 -0.3,-0.11 -0.299,-0.107 -0.328,-0.057 -0.327,-0.082 -0.354,-0.054 -0.327,-0.028 -0.354,-0.025 -0.382,0 -0.436,0 -0.436,0.054 -0.408,0.054 -0.409,0.082 -0.382,0.082 -0.382,0.137 -0.381,0.138 -0.354,0.162 -0.354,0.192 -0.327,0.218 -0.327,0.218 -0.272,0.271 -0.299,0.272 -0.245,0.3 -0.245,0.328 -0.246,0.326 -0.19,0.382 -0.19,0.354 -0.137,0.382 -0.136,0.38 -0.109,0.41 -0.054,0.408 -0.055,0.41 0,0.432 3.352,0.164 0.028,-0.436 0.026,-0.382 0.082,-0.383 0.082,-0.354 0.136,-0.328 0.137,-0.298 0.191,-0.274 0.218,-0.246 0.218,-0.218 0.244,-0.189 0.246,-0.136 0.246,-0.137 0.272,-0.109 0.3,-0.082 0.272,-0.026 0.327,-0.028 0.299,0.028 0.3,0.026 0.272,0.082 0.273,0.109 0.272,0.137 0.245,0.136 0.246,0.189 0.218,0.218 0.218,0.246 0.19,0.274 0.136,0.298 0.136,0.328 0.082,0.326 0.081,0.382 0.055,0.41 0,0.407 0,0.437 -0.055,0.407 -0.081,0.383 -0.082,0.354 -0.136,0.328 -0.136,0.3 -0.19,0.272 -0.191,0.246 -0.245,0.218 -0.218,0.189 -0.245,0.164 -0.273,0.108 -0.271,0.109 -0.272,0.082 -0.3,0.026 -0.3,0.028 -0.301,-0.028 -0.299,-0.026 -0.299,-0.082 -0.273,-0.082 -0.272,-0.136 -0.246,-0.164 -0.244,-0.189 -0.218,-0.218 -0.218,-0.219 -0.191,-0.273 -0.137,-0.301 -0.136,-0.325 -0.082,-0.354 -0.082,-0.382 -0.026,-0.407 -0.028,-0.437" /><path
         style="fill:#1f2c51"
         inkscape:connector-curvature="0"
         id="path2728"
         d="m 196.308,159.675 -0.082,0.219 -0.082,0.189 -0.082,0.164 -0.11,0.136 -0.136,0.11 -0.108,0.107 -0.164,0.082 -0.135,0.082 -0.328,0.08 -0.327,0.057 -0.382,0.027 -0.381,0 -0.272,-0.027 -0.272,-0.028 -0.245,-0.054 -0.245,-0.108 -0.246,-0.11 -0.218,-0.136 -0.19,-0.164 -0.218,-0.189 -0.191,-0.218 -0.136,-0.246 -0.164,-0.272 -0.109,-0.274 -0.082,-0.297 -0.054,-0.328 -0.054,-0.354 -0.028,-0.354 8.311,0 0.028,-0.382 0,-0.465 -0.028,-0.436 -0.026,-0.436 -0.055,-0.408 -0.054,-0.382 -0.083,-0.408 -0.081,-0.354 -0.108,-0.355 -0.11,-0.354 -0.136,-0.326 -0.163,-0.3 -0.137,-0.3 -0.19,-0.301 -0.164,-0.271 -0.218,-0.246 -0.218,-0.245 -0.19,-0.19 -0.19,-0.19 -0.218,-0.192 -0.218,-0.161 -0.246,-0.138 -0.246,-0.137 -0.244,-0.135 -0.246,-0.109 -0.272,-0.082 -0.272,-0.082 -0.299,-0.082 -0.301,-0.054 -0.626,-0.082 -0.654,-0.028 -0.572,0.028 -0.573,0.082 -0.272,0.054 -0.272,0.055 -0.245,0.083 -0.245,0.108 -0.246,0.109 -0.245,0.109 -0.218,0.136 -0.218,0.164 -0.218,0.136 -0.218,0.189 -0.191,0.164 -0.19,0.219 -0.218,0.218 -0.218,0.271 -0.19,0.272 -0.164,0.273 -0.165,0.272 -0.163,0.3 -0.136,0.3 -0.108,0.3 -0.11,0.326 -0.081,0.354 -0.082,0.328 -0.055,0.354 -0.054,0.382 -0.055,0.354 0,0.383 -0.028,0.407 0.028,0.409 0,0.381 0.055,0.382 0.054,0.354 0.055,0.354 0.082,0.328 0.081,0.354 0.11,0.301 0.108,0.325 0.136,0.3 0.137,0.272 0.163,0.274 0.191,0.271 0.19,0.246 0.19,0.244 0.218,0.246 0.191,0.164 0.218,0.189 0.191,0.164 0.245,0.136 0.218,0.136 0.245,0.137 0.273,0.109 0.245,0.108 0.272,0.082 0.299,0.082 0.273,0.082 0.327,0.054 0.626,0.054 0.682,0.028 0.49,0 0.464,-0.054 0.463,-0.054 0.436,-0.11 0.409,-0.136 0.381,-0.164 0.382,-0.19 0.354,-0.218 0.354,-0.246 0.301,-0.271 0.299,-0.301 0.272,-0.354 0.246,-0.382 0.218,-0.382 0.218,-0.437 0.164,-0.462 -3.109,0 0,-3.979 -4.986,0 0.027,-0.325 0.027,-0.328 0.055,-0.301 0.082,-0.3 0.082,-0.271 0.136,-0.245 0.164,-0.218 0.163,-0.218 0.191,-0.163 0.191,-0.164 0.19,-0.136 0.218,-0.11 0.245,-0.081 0.218,-0.083 0.245,-0.026 0.273,0 0.245,0 0.218,0.026 0.245,0.083 0.218,0.081 0.218,0.082 0.191,0.136 0.191,0.164 0.19,0.164 0.164,0.189 0.137,0.246 0.135,0.245 0.109,0.245 0.082,0.3 0.055,0.327 0.055,0.327 0.026,0.354" /><path
         style="fill:#1f2c51"
         inkscape:connector-curvature="0"
         id="path2730"
         d="m 154.754,186.813 3.024,0 0,-1.744 0.191,0.246 0.191,0.219 0.218,0.189 0.218,0.218 0.218,0.164 0.245,0.164 0.245,0.164 0.246,0.136 0.272,0.108 0.245,0.11 0.272,0.082 0.245,0.079 0.273,0.057 0.272,0.025 0.245,0.028 0.272,0 0.518,-0.028 0.49,-0.054 0.491,-0.136 0.463,-0.19 0.436,-0.218 0.436,-0.274 0.41,-0.325 0.381,-0.382 0.192,-0.219 0.189,-0.218 0.164,-0.218 0.137,-0.246 0.136,-0.244 0.136,-0.271 0.11,-0.274 0.108,-0.271 0.082,-0.3 0.082,-0.301 0.082,-0.3 0.054,-0.325 0.055,-0.708 0.027,-0.71 -0.027,-0.736 -0.055,-0.68 -0.054,-0.328 -0.082,-0.3 -0.054,-0.326 -0.11,-0.274 -0.082,-0.271 -0.109,-0.271 -0.135,-0.272 -0.137,-0.246 -0.136,-0.218 -0.163,-0.218 -0.191,-0.218 -0.163,-0.19 -0.41,-0.382 -0.408,-0.3 -0.409,-0.272 -0.463,-0.218 -0.463,-0.164 -0.49,-0.11 -0.518,-0.082 -0.545,-0.025 -0.519,0.025 -0.49,0.082 -0.463,0.139 -0.463,0.162 -0.436,0.246 -0.436,0.271 -0.409,0.328 -0.381,0.382 0,-5.859 -3.271,0 0,16.292 3.243,-6.157 0.028,-0.436 0.026,-0.408 0.055,-0.382 0.082,-0.328 0.137,-0.326 0.136,-0.3 0.136,-0.246 0.191,-0.246 0.218,-0.189 0.218,-0.162 0.218,-0.164 0.245,-0.11 0.245,-0.107 0.246,-0.057 0.272,-0.054 0.273,0 0.299,0 0.273,0.054 0.272,0.057 0.245,0.107 0.246,0.11 0.218,0.164 0.218,0.19 0.19,0.189 0.191,0.246 0.164,0.271 0.136,0.326 0.109,0.356 0.082,0.354 0.055,0.437 0.027,0.436 0.027,0.49 -0.027,0.464 -0.027,0.436 -0.055,0.382 -0.082,0.38 -0.109,0.328 -0.136,0.3 -0.164,0.272 -0.164,0.218 -0.218,0.218 -0.191,0.19 -0.218,0.138 -0.218,0.136 -0.245,0.082 -0.246,0.08 -0.245,0.028 -0.272,0.028 -0.382,-0.028 -0.354,-0.082 -0.354,-0.136 -0.354,-0.164 -0.164,-0.108 -0.164,-0.136 -0.137,-0.136 -0.136,-0.139 -0.136,-0.161 -0.11,-0.164 -0.108,-0.19 -0.082,-0.192 -0.109,-0.218 -0.055,-0.218 -0.082,-0.271 -0.054,-0.272 -0.054,-0.628 -0.028,-0.708" /><path
         style="fill:#1f2c51"
         inkscape:connector-curvature="0"
         id="path2734"
         d="m 142.628,163.163 -6.921,-17.576 -3.706,0 -6.758,17.576 3.734,0 1.417,-4.006 6.921,0 1.525,4.006 3.788,0 -6.431,-6.949 -4.741,0 2.37,-6.539 2.371,6.539" /><path
         style="fill:#1f2c51"
         inkscape:connector-curvature="0"
         id="path2736"
         d="m 114.29,159.675 -0.082,0.219 -0.081,0.189 -0.109,0.164 -0.109,0.136 -0.109,0.11 -0.137,0.107 -0.136,0.082 -0.137,0.082 -0.327,0.08 -0.354,0.057 -0.354,0.027 -0.408,0 -0.272,-0.027 -0.246,-0.028 -0.245,-0.054 -0.246,-0.108 -0.245,-0.11 -0.218,-0.136 -0.218,-0.164 -0.191,-0.189 -0.19,-0.218 -0.164,-0.246 -0.137,-0.272 -0.109,-0.274 -0.082,-0.297 -0.082,-0.328 -0.027,-0.354 -0.027,-0.354 8.31,0 0.028,-0.382 -0.028,-0.465 0,-0.436 -0.054,-0.436 -0.027,-0.408 -0.082,-0.382 -0.055,-0.408 -0.109,-0.354 -0.082,-0.355 -0.137,-0.354 -0.109,-0.326 -0.164,-0.3 -0.163,-0.3 -0.164,-0.301 -0.191,-0.271 -0.19,-0.246 -0.218,-0.245 -0.19,-0.19 -0.191,-0.19 -0.218,-0.192 -0.218,-0.161 -0.246,-0.138 -0.245,-0.137 -0.246,-0.135 -0.272,-0.109 -0.245,-0.082 -0.3,-0.082 -0.272,-0.082 -0.299,-0.054 -0.627,-0.082 -0.654,-0.028 -0.572,0.028 -0.572,0.082 -0.272,0.054 -0.272,0.055 -0.245,0.083 -0.245,0.108 -0.246,0.109 -0.245,0.109 -0.218,0.136 -0.245,0.164 -0.218,0.136 -0.191,0.189 -0.218,0.164 -0.19,0.219 -0.218,0.218 -0.191,0.271 -0.19,0.272 -0.191,0.273 -0.164,0.272 -0.136,0.3 -0.137,0.3 -0.109,0.3 -0.109,0.326 -0.082,0.354 -0.082,0.328 -0.082,0.354 -0.027,0.382 -0.055,0.354 0,0.383 -0.027,0.407 0.027,0.409 0,0.381 0.055,0.382 0.027,0.354 0.082,0.354 0.055,0.328 0.109,0.354 0.109,0.301 0.109,0.325 0.137,0.3 0.136,0.272 0.164,0.274 0.164,0.271 0.191,0.246 0.218,0.244 0.218,0.246 0.19,0.164 0.191,0.189 0.218,0.164 0.245,0.136 0.218,0.136 0.245,0.137 0.246,0.109 0.272,0.108 0.272,0.082 0.272,0.082 0.3,0.082 0.299,0.054 0.654,0.054 0.682,0.028 0.463,0 0.49,-0.054 0.436,-0.054 0.436,-0.11 0.436,-0.136 0.382,-0.164 0.381,-0.19 0.354,-0.218 0.354,-0.246 0.3,-0.271 0.3,-0.301 0.272,-0.354 0.245,-0.382 0.218,-0.382 0.191,-0.437 0.19,-0.462 -3.104,0 0,-3.979 -4.986,0 0,-0.325 0.055,-0.328 0.055,-0.301 0.054,-0.3 0.109,-0.271 0.137,-0.245 0.136,-0.218 0.191,-0.218 0.163,-0.163 0.218,-0.164 0.19,-0.136 0.218,-0.11 0.218,-0.081 0.245,-0.083 0.245,-0.026 0.272,0 0.246,0 0.218,0.026 0.245,0.083 0.218,0.081 0.191,0.082 0.218,0.136 0.19,0.164 0.191,0.164 0.164,0.189 0.136,0.246 0.137,0.245 0.109,0.245 0.082,0.3 0.054,0.327 0.055,0.327 0.027,0.354" /><path
         style="fill:#1f2c51"
         inkscape:connector-curvature="0"
         id="path2738"
         d="m 119.931,183.572 -0.082,0.189 -0.082,0.192 -0.109,0.136 -0.109,0.136 -0.109,0.108 -0.136,0.11 -0.137,0.054 -0.164,0.082 -0.327,0.082 -0.354,0.054 -0.381,0.028 -0.382,0 -0.272,-0.028 -0.245,-0.025 -0.246,-0.057 -0.245,-0.082 -0.218,-0.107 -0.219,-0.137 -0.218,-0.164 -0.19,-0.164 -0.19,-0.218 -0.164,-0.218 -0.136,-0.244 -0.109,-0.246 -0.082,-0.3 -0.054,-0.3 -0.055,-0.3 -0.027,-0.354 8.202,0 0.027,-0.354 -0.027,-0.408 0,-0.41 -0.055,-0.407 -0.027,-0.382 -0.082,-0.354 -0.055,-0.354 -0.109,-0.354 -0.082,-0.328 -0.136,-0.325 -0.109,-0.3 -0.136,-0.274 -0.164,-0.298 -0.164,-0.246 -0.19,-0.271 -0.191,-0.219 -0.218,-0.246 -0.19,-0.164 -0.191,-0.189 -0.218,-0.164 -0.218,-0.136 -0.245,-0.136 -0.218,-0.137 -0.246,-0.109 -0.272,-0.108 -0.272,-0.082 -0.272,-0.082 -0.272,-0.054 -0.3,-0.057 -0.599,-0.082 -0.654,-0.025 -0.573,0.025 -0.572,0.057 -0.518,0.136 -0.49,0.164 -0.491,0.218 -0.436,0.244 -0.409,0.3 -0.408,0.354 -0.218,0.218 -0.191,0.246 -0.19,0.246 -0.164,0.243 -0.164,0.274 -0.136,0.272 -0.136,0.271 -0.109,0.3 -0.109,0.3 -0.109,0.301 -0.055,0.325 -0.082,0.328 -0.027,0.354 -0.055,0.328 0,0.352 -0.027,0.382 0,0.356 0.027,0.354 0.055,0.354 0.027,0.354 0.082,0.328 0.055,0.298 0.109,0.3 0.082,0.3 0.136,0.3 0.109,0.272 0.163,0.273 0.164,0.244 0.164,0.246 0.19,0.244 0.191,0.218 0.218,0.218 0.19,0.164 0.191,0.164 0.218,0.164 0.218,0.136 0.245,0.108 0.218,0.136 0.272,0.11 0.245,0.082 0.545,0.164 0.6,0.107 0.627,0.054 0.654,0.028 0.491,0 0.463,-0.054 0.436,-0.057 0.436,-0.107 0.409,-0.11 0.409,-0.136 0.354,-0.19 0.354,-0.189 0.327,-0.246 0.327,-0.246 0.272,-0.3 0.272,-0.298 0.246,-0.356 0.218,-0.38 0.19,-0.382 0.191,-0.436 -2.996,0 -0.082,-3.68 -4.905,0 0.027,-0.326 0.027,-0.3 0.055,-0.271 0.082,-0.272 0.082,-0.246 0.136,-0.218 0.137,-0.218 0.163,-0.19 0.191,-0.164 0.19,-0.138 0.218,-0.136 0.191,-0.108 0.245,-0.082 0.218,-0.054 0.246,-0.028 0.272,0 0.218,0 0.245,0.028 0.218,0.054 0.218,0.082 0.218,0.108 0.19,0.109 0.191,0.137 0.19,0.164 0.164,0.189 0.136,0.189 0.136,0.246 0.082,0.246 0.109,0.272 0.054,0.271 0.028,0.328 0.027,0.326" /><path
         style="fill:#1f2c51"
         inkscape:connector-curvature="0"
         id="path2740"
         d="m 95.298,186.813 3.46,0 0,-6.811 0.818,0 0.817,0 0.817,0.027 0.845,0 0.218,0 0.245,0.055 0.218,0.107 0.246,0.11 0.218,0.136 0.218,0.189 0.218,0.192 0.19,0.218 0.191,0.219 0.164,0.271 0.164,0.271 0.136,0.272 0.109,0.274 0.082,0.3 0.055,0.3 0.054,0.326 0.164,3.541 4.142,0 -0.082,-0.107 -0.055,-0.11 -0.027,-0.136 -0.054,-0.164 -0.055,-0.38 0,-0.437 -0.027,-0.953 0,-0.9 0,-0.382 -0.055,-0.38 -0.082,-0.354 -0.082,-0.328 -0.109,-0.328 -0.136,-0.298 -0.137,-0.3 -0.164,-0.274 -0.191,-0.244 -0.19,-0.218 -0.191,-0.218 -0.218,-0.164 -0.245,-0.164 -0.218,-0.162 -0.245,-0.11 -0.245,-0.082 0.164,-0.025 0.164,-0.057 0.136,-0.054 0.164,-0.054 0.272,-0.192 0.272,-0.218 0.272,-0.244 0.246,-0.3 0.245,-0.3 0.19,-0.326 0.19,-0.355 0.164,-0.354 0.164,-0.382 0.109,-0.354 0.109,-0.354 0.081,-0.354 0.028,-0.328 0.027,-0.3 -0.027,-0.354 -0.028,-0.354 -0.054,-0.354 -0.082,-0.328 -0.109,-0.325 -0.137,-0.3 -0.164,-0.301 -0.163,-0.271 -0.218,-0.246 -0.19,-0.246 -0.246,-0.218 -0.218,-0.218 -0.272,-0.162 -0.246,-0.164 -0.272,-0.136 -0.299,-0.136 -0.327,-0.082 -0.382,-0.108 -0.408,-0.056 -0.491,-0.082 -0.518,-0.026 -0.572,-0.054 -0.627,0 -0.654,-0.028 -7.275,0 0,16.296 3.46,-9.4 0,-4.142 2.698,0 1.035,0.028 0.817,0 0.572,0.054 0.354,0.054 0.327,0.11 0.299,0.136 0.246,0.189 0.218,0.219 0.082,0.109 0.082,0.137 0.082,0.136 0.055,0.164 0.054,0.161 0.028,0.164 0,0.192 0.027,0.164 -0.027,0.218 0,0.19 -0.028,0.164 -0.054,0.161 -0.055,0.164 -0.082,0.137 -0.082,0.164 -0.082,0.109 -0.218,0.219 -0.246,0.189 -0.272,0.136 -0.299,0.11 -0.436,0.08 -0.627,0.027 -0.844,0.028 -1.063,0.026 -2.562,0" /><path
         style="fill:#1f2c51"
         inkscape:connector-curvature="0"
         id="path2742"
         d="m 36.741,178.612 0.164,-0.41 0.191,-0.325 0.109,-0.136 0.109,-0.108 0.109,-0.11 0.136,-0.082 0.272,-0.136 0.327,-0.082 0.354,-0.082 0.436,0 0.409,0 0.354,0.028 0.3,0.082 0.272,0.08 0.218,0.109 0.191,0.108 0.136,0.138 0.109,0.137 0.082,0.189 0.054,0.3 0.027,0.354 0,0.436 -0.517,0.189 -0.709,0.192 -0.872,0.19 -1.063,0.191 -0.872,0.19 -0.736,0.192 -0.327,0.107 -0.299,0.082 -0.272,0.107 -0.218,0.11 -0.218,0.108 -0.191,0.138 -0.164,0.136 -0.19,0.137 -0.164,0.164 -0.136,0.161 -0.136,0.164 -0.136,0.19 -0.109,0.191 -0.081,0.19 -0.082,0.218 -0.055,0.192 -0.055,0.243 -0.054,0.219 0,0.246 -0.027,0.246 0.027,0.379 0.054,0.354 0.082,0.356 0.136,0.325 0.164,0.3 0.191,0.301 0.245,0.243 0.272,0.246 0.272,0.246 0.327,0.19 0.354,0.164 0.354,0.136 0.381,0.082 0.381,0.082 0.437,0.054 0.436,0 0.518,-0.028 0.518,-0.054 0.518,-0.136 0.491,-0.164 0.463,-0.218 0.463,-0.272 0.436,-0.3 0.436,-0.382 0.409,1.308 3.242,0 -0.19,-0.436 -0.164,-0.408 -0.137,-0.382 -0.082,-0.382 -0.082,-0.408 -0.054,-0.544 -0.027,-0.6 0,-0.736 0.027,-3.626 0,-0.489 -0.027,-0.462 -0.028,-0.41 -0.054,-0.382 -0.082,-0.354 -0.082,-0.271 -0.082,-0.271 -0.109,-0.219 -0.137,-0.191 -0.136,-0.162 -0.164,-0.192 -0.191,-0.161 -0.218,-0.139 -0.218,-0.136 -0.245,-0.136 -0.245,-0.108 -0.3,-0.11 -0.327,-0.107 -0.354,-0.057 -0.381,-0.082 -0.409,-0.054 -0.436,-0.028 -0.463,-0.025 -0.518,0 -0.545,0.025 -0.545,0.028 -0.49,0.054 -0.463,0.082 -0.436,0.11 -0.381,0.136 -0.381,0.164 -0.327,0.19 -0.3,0.218 -0.272,0.246 -0.245,0.271 -0.246,0.301 -0.218,0.325 -0.19,0.382 -0.164,0.383 -0.137,0.436 2.972,0.522 4.36,2.534 0,0.628 0,0.598 -0.054,0.518 -0.027,0.219 -0.055,0.191 -0.055,0.162 -0.054,0.164 -0.164,0.246 -0.219,0.218 -0.245,0.218 -0.327,0.19 -0.354,0.164 -0.327,0.107 -0.354,0.082 -0.327,0.028 -0.218,-0.028 -0.164,0 -0.19,-0.054 -0.164,-0.054 -0.164,-0.054 -0.136,-0.082 -0.136,-0.082 -0.136,-0.11 -0.136,-0.136 -0.109,-0.108 -0.082,-0.136 -0.082,-0.139 -0.055,-0.161 -0.027,-0.136 -0.027,-0.164 0,-0.164 0,-0.137 0.027,-0.164 0.027,-0.107 0.055,-0.136 0.055,-0.11 0.082,-0.107 0.109,-0.11 0.109,-0.11 0.137,-0.08 0.163,-0.109 0.19,-0.082 0.246,-0.082 0.545,-0.162 0.708,-0.164 0.6,-0.136 0.545,-0.11 0.437,-0.107 0.354,-0.11" /></g></g></svg>