<?xml version="1.0" encoding="utf-8"?>
<!-- Generator: Adobe Illustrator 23.0.5, SVG Export Plug-In . SVG Version: 6.00 Build 0)  -->
<svg version="1.1" id="Слой_1" xmlns="http://www.w3.org/2000/svg" xmlns:xlink="http://www.w3.org/1999/xlink" x="0px" y="0px"
	 width="437.8px" height="159.1px" viewBox="0 0 437.8 159.1" enable-background="new 0 0 437.8 159.1" xml:space="preserve">
<g>
	<g>
		<path fill="#FF690F" d="M437.8,60.5c-0.2,0.6-0.4,1.1-0.6,1.7c-1.2,2.9-2.1,3.6-5.2,3.2c-2.3-0.3-4,0.7-5.5,2.1
			c-2,2-3.9,4.1-5.7,6.2c-0.5,0.6-0.8,1.3-1.1,2c-1.6,3.3-3.9,5.7-7.6,6.6c-2,0.5-4,1.1-6,1.7c-0.1-0.2-0.1-0.3-0.2-0.5
			c1.1-0.7,2.3-1.3,3.4-2.1c2.3-1.5,4.6-3,6.8-4.7c1.1-0.8,2-1.8,2.2-3.2c-1.1-0.1-2.2-0.1-3.2-0.3c-2.1-0.5-2.8-1.7-2.1-3.7
			c0.8-2,1.8-3.9,3-5.7c1.2-1.7,3.1-1.5,4.3,0.2c0.4,0.6,0.8,1.3,1,2s0.3,1.4,0.5,2.3c1-0.7,1.8-1.3,2.5-2c0.3-0.3,0.1-1,0.1-1.5
			c0-0.8-0.3-1.8,0-2.5c1.2-2.7,2.6-5.4,4-8c0.1-0.2,0.3-0.4,0.6-0.7c0.3,0.3,0.6,0.5,0.9,0.7c1.5,0.9,3,1.9,4.5,2.6
			c1.4,0.6,2.7,1.3,3.3,2.9C437.8,60,437.8,60.2,437.8,60.5z M427.9,62.9c1.5,0,3-1,3-2.2s-1.3-2.4-2.5-2.5c-1.2,0-2.7,1.6-2.7,3.1
			C425.7,62.4,426.4,62.9,427.9,62.9z M431,62.9c1.4,0,2.6,0.1,3.8,0c1.2-0.2,1.6-1.3,0.7-2.2c-0.7-0.8-1.7-1.3-2.9-1.1
			c-1.1,0.3-1.4,1.2-1.4,2.2C431.2,62,431.1,62.2,431,62.9z"/>
		<path fill="#FF690F" d="M340.9,30.7c1.3-1.7,2.5-3.5,3.8-5.1c2.7-3.3,5.8-6.2,9.4-8.5c1.9-1.3,4.1-2,6.4-2.7
			c1.9-0.6,3.5-0.3,5.3-0.2c1.3,0.1,2.7-0.4,3.8-1c1.4-0.8,2.5-2,3.7-3c0.3-0.2,0.7-0.6,1-0.5c2.2,0.5,3.4-0.8,4.7-2.2
			c0.4-0.5,1-1,1.6-1.2c1.4-0.5,2.4-1.4,3.1-2.7c0.4-0.7,0.9-1.4,1.4-2.2c0.9,3.9-1.6,8.6-5.4,10.6c-0.9,0.5-1.8,1.1-2.6,1.8
			c-1.5,1.2-2.9,2.4-5.1,2.4c-0.5,0-1.2,0.5-1.6,1c-0.7,0.7-1.3,1.6-1.7,2.4c-1.1,2.1-4.8,3.5-7.4,2.6c-3-1-6-0.7-8.6,1.1
			c-2.5,1.6-4.7,3.7-6.9,5.7c-0.5,0.4-0.8,1.2-1.2,2c1.5-0.4,2.7-0.8,4-0.9c1.2-0.1,2.5,0,3.7,0.3c1.8,0.4,2.6,2.6,2.2,5
			c-0.4,2.6-1.9,4.7-3.4,6.8c-0.6,0.8-1.3,1.6-2,2.4c-1.7,1.9-3.8,3.1-6.4,3.7c-4.3,1.1-8.6,2.6-12.8,4.2c-1.8,0.7-3.6,1.8-5.2,2.9
			c-18.1,12.4-37.7,21.3-59.2,26c-7.2,1.6-14.5,2.8-21.8,3.5c-7,0.7-14,0.9-21,0.6c-9.6-0.4-19.1-1.4-28.1-5c-0.8-0.3-1.4,0-1.7,0.6
			c-0.8,1.3-1.6,2.6-2.4,4c-1.9,3.6-3.7,7.3-5.8,10.7c-1.2,2-3,3.7-4.6,5.3c-1.3,1.3-3,2-4.9,2c-1.6,0-2.5-1.1-1.9-2.6
			c0.5-1.1,1.1-2.2,1.9-3.1c2.7-3.3,5.8-6.3,8.2-9.9c3.5-5.2,6.4-10.8,9.6-16.2c1.2-2.1,2.6-4.2,5.2-4.6c1.1-0.2,2.4-0.1,3.5,0.2
			c5.9,1.3,11.8,3,17.8,3.8c5.7,0.8,11.5,0.6,17.2,0.7c2.8,0.1,5.7-0.2,8.5-0.3c7.3-0.3,14.6-1.2,21.9-2.4c12.2-2,24-5.4,35.3-10.2
			c4.5-1.9,8.9-4.1,13.3-6.3c0.6-0.3,1.1-0.9,1.4-1.5c3.3-6.5,7.5-12.5,11.9-18.3c1-1.4,2.5-2.5,4-3.4c2.9-1.8,5.3-1.4,7.6,1.1
			C340.4,30.3,340.6,30.5,340.9,30.7z M336.5,40.4c0.1,0.2,0.3,0.3,0.4,0.5c-1.3,2.2-2.6,4.5-4,6.9c0.4,0,0.7,0,0.9-0.1
			c3.9-1.5,7.9-3,11.8-4.7c1.6-0.7,3-1.8,3.9-3.4c1.2-2.2,0.4-3.6-2.1-3.7c-0.1,0-0.2,0-0.2,0c-3.2-0.3-5.7,1.1-8.1,3
			c-0.5,0.4-1,0.8-1.8,1.3c-0.1-0.9-0.1-1.4-0.1-2c-0.1-2.2-1.2-3.2-3.4-3.3c-2.7-0.1-4.8,1.1-6.3,3.2c-2.7,3.8-5.3,7.6-7.9,11.4
			c-0.2,0.2-0.2,0.5-0.5,1C325.1,47.1,330.7,43.5,336.5,40.4z"/>
		<path fill="#FF690F" d="M128.1,46.1c0.8,1.3,0.3,2.2,0,3.1c-0.7,1.8-1.6,3.5-2.4,5.2c-2.1,4.7-4.2,9.4-5.3,14.5
			c-0.7,3-0.7,6,0.1,8.9c1.4,4.9,5,7.6,9.8,8.4c13.3,2.3,23.9-2.3,31.8-13.2c2.9-4,4.3-8.3,4.4-13.3c0-4.2,0.2-8.4,0.7-12.5
			c0.7-5.1,3.3-9.5,5.9-13.8c0.1-0.1,0.2-0.2,0.3-0.3c0.1,0,0.1,0,0.6-0.2c-0.1,1.2-0.2,2.3-0.3,3.4c-0.4,3.8-0.8,7.6-1.1,11.4
			c-0.5,5.7-1.6,11.3-2.9,16.8c-2,8.6-5.6,16.4-11.3,23.2c-5.1,6.1-11.2,10.9-19.3,12.6c-5.5,1.2-11,1.2-16.2-1.6
			c-4.6-2.5-7-6.4-7.8-11.4c-1.2-7.5,0.4-14.7,3-21.7c2.2-6.1,5.2-11.9,8.6-17.5C127,47.5,127.5,46.9,128.1,46.1z"/>
		<path fill="#FF690F" d="M175.5,143.9c0,1.8,0,3.6,0,5.4c0,1.4-0.1,3,0.1,4.4c0.2,1.8,3.3,2.2,3.3,2.2s0,0.6,0,0.7
			c-1.1,0-10.8,0-12.5,0c0-0.1,0-0.6,0-0.7c2.2-0.7,2.6-1.1,2.6-3.4c0-8.2,0-16.3,0-24.5c0-1.9,0.2-3.6-2.6-3.8c0-0.1,0-0.6,0-0.7
			c0.3,0,5.6,0,7.8,0c0.5,0,1.3,0,1.3,0s0,2.2,0,2.9c0.3-0.3,0.5-0.7,0.7-0.8c3-3.7,9.1-3.8,11.9,1c0.9,1.6,1.7,3.3,2,5.1
			c0.5,3.2,0.3,6.9-1.1,9.9c-1.7,3.7-5.3,5.6-9.1,4.8c-1.2-0.2-1.9-0.8-2.8-1.5c-0.3-0.2-0.8-0.7-1-1.1
			C175.9,143.9,175.6,143.9,175.5,143.9z M183.4,133c0-1.9-0.4-3.9-1.2-5.6c-0.8-1.9-3.1-2.4-4.7-1c-1.3,1.1-2.1,2.1-2.1,4
			c0,3.1,0.1,5.7,0.1,8.8c0,1.8,0.5,3.1,1.7,4c2.4,1.9,4.9,1.4,5.7-1.6C183.5,139.5,183.4,135.9,183.4,133z"/>
		<path fill="#FF690F" d="M215.9,113.2c0.4,0,8.9,0,8.9,0s0,0.3,0,1.2c0,3.5,0,6.6,0,10c0,0.4,0,1.3,0,2.1c0.6-0.5,1.2-1.2,1.5-1.5
			c1.8-1.6,3.5-2.7,6.1-2.1c2.3,0.5,4.3,2.3,4.6,4.7c0.2,1.3,0.2,2.4,0.2,3.7c0,2.8,0.1,8.8,0.1,11.6c0,1.9,2.4,2.4,2.4,2.4
			s0,0.5,0,0.7c-3.6,0-7.4,0-11,0c0-0.2,0-0.7,0-0.7s2.2-0.8,2.2-2.4c0-3.9,0-9.3-0.1-13.2c0-0.7,0-1.6-0.1-2.3
			c-0.3-1.6-1.9-2.1-3.3-1.3c-1.4,0.9-2.6,2.3-2.6,3.5c0,3.4,0,9.8,0,13.2c0,1.9,2.2,2.5,2.2,2.5s0,0.6,0,0.7c-3.6,0-7.4,0-11,0
			c0-0.2,0-0.6,0-0.7c2.1-0.6,2.4-2.2,2.4-3.9c0-7.9,0-15.8,0-23.7c0-0.6,0-1.7-0.1-2.4c-0.1-1-0.3-1-1.3-1.3
			c-0.2-0.1-0.7-0.1-1-0.1C215.9,113.8,215.9,113.3,215.9,113.2z"/>
		<path fill="#FF690F" d="M367.4,45.3c0.6,0.9,1.4,1.7,1.8,2.6c1.5,3.3,1.6,6.6,0.4,10c-1.2,3.3-2.4,6.5-3.7,9.7
			c-0.4,0.9-0.3,1.7,0.5,2.1c4,2,3.7,5.5,3,8.9c-1.1,5.1-3.3,9.8-6.8,13.8c-3.4,3.9-7.7,5.8-12.9,4.9c-4.1-0.7-6-3.7-6.9-7.4
			c-1-4.1-0.5-8.1,1.1-12c1.9-4.5,4-9,6-13.4c0.2-0.4,0.5-0.8,0.8-1.2c0.1,0.1,0.2,0.1,0.4,0.2c-0.4,1.1-0.7,2.1-1.1,3.2
			c-1.5,3.9-3.2,7.7-4.5,11.7c-0.6,1.8-0.4,3.9-0.1,5.8c0.5,3,2.7,4.8,6.1,5.1c4.5,0.5,8.7-0.5,12.4-3.3c1.6-1.3,2.8-2.8,3.3-4.9
			c0.2-0.9,0-1.6-0.8-2.1c-1.1-0.6-2.2-1.3-3.2-2.1c-1.2-0.9-1.8-2.1-1.2-3.6c0.8-2.1,1.7-4.2,2.5-6.3c0.7-1.8,1.5-3.5,2.2-5.3
			c0.6-1.6,0.5-3.2-0.2-4.8c-0.1-0.2-0.2-0.5-0.3-0.6c-1.9-2.4-1.6-4.9-0.4-7.5c0.5-1,0.8-2.2,1.2-3.2
			C367.1,45.5,367.3,45.4,367.4,45.3z"/>
		<path fill="#FF690F" d="M119.4,146.8c0-4,0-8.3,0-12.2c0.1,0,0.6,0,0.7,0c0,0.4,0,1,0.1,1.4c0.8,3.1,2.2,5.7,4.9,7.6
			c2.3,1.6,4.8,2.3,7.6,1.5c3.8-1.2,5-5.4,2.1-8.2c-1.2-1.2-2.8-2.1-4.3-3c-2.2-1.3-4.5-2.4-6.5-3.8c-2.9-2-4.7-4.7-4.6-8.4
			c0.1-4.2,3.4-8.1,7.6-8.8c2.6-0.5,5-0.1,7.3,1c0.4,0.2,0.8,0.4,1.2,0.5c2.1,0.9,3,0.4,3.2-0.5c0.1-0.4,0.1-0.8,0.1-1.3
			c0.3,0,0.8,0,1,0c0,3,0,7.8,0,10.8c-0.2,0-0.8,0-1,0c0-0.4,0-0.7-0.1-1c-0.8-2.8-2.2-5.1-4.7-6.7c-2.1-1.4-4.4-1.9-6.8-1
			c-3.2,1.2-4.1,4.8-1.7,7.1c1.2,1.2,2.8,2,4.2,2.9c2.4,1.4,4.9,2.6,7.2,4.1c4.3,2.8,5.6,6.6,4.3,10.9c-1.1,4.1-5.5,7.2-10,7.1
			c-1.9,0-3.8-0.4-5.6-0.9c-2.3-0.7-4-2.1-5.6,1.1C120,146.8,119.5,146.8,119.4,146.8z"/>
		<path fill="#FF690F" d="M301.5,145.3c2.4-0.8,2.1-2.7,2.1-4.6c0-3.6,0-7.2,0-10.8c0-0.7-0.1-1.4-0.2-2.1c-0.3-1.9-1.9-2.4-3.5-1.4
			c-1.5,0.9-2.3,1.5-2.3,3.4c0,3.5,0,9.8,0.1,13.4c0,1.7,2.1,2.2,2.1,2.2s0,0.5,0,0.7c-3.6,0-7.3,0-11,0c0-0.3,0-0.5,0-0.7
			c1.2-0.3,2.4-0.9,2.4-2.1c0-5.4-0.1-11.3-0.1-16.7c0-1.5-0.7-2-2.3-2.3c0-0.1,0-0.6,0-0.7c0.4,0,6.7,0,8.9,0c0,0.9,0,2.1,0,3
			c0.7-0.6,1.2-1.1,1.7-1.5c1.8-1.6,3.6-2.6,6.1-2.1c2.4,0.5,4.2,2.3,4.5,4.7c0.1,1.2,0.2,1.9,0.3,3.1c0,3.4,0.1,12.2,0.1,12.9
			c0,1,1.4,1.5,2.3,1.7c0,0.3,0,0.3,0,0.7c-3.6,0-7.5,0-11,0C301.5,145.9,301.5,145.5,301.5,145.3z"/>
		<path fill="#FF690F" d="M394.4,145.8c1.7-0.6,1.5-1.9,1.5-3.2c0-2.5,0-5.1,0-7.6c0-0.5,0-1-0.1-1.5c-0.2-1.3-1.3-1.7-2.5-1
			c-1,0.6-1.6,1.1-1.6,2.4c0,2.5,0,6.9,0,9.4c0,1.2,1.5,1.5,1.5,1.5s0,0.4,0,0.5c-2.5,0-5.1,0-7.8,0c0-0.2,0-0.4,0-0.5
			c0.9-0.2,1.7-0.7,1.7-1.5c0-3.8-0.1-7.9-0.1-11.8c0-1-0.5-1.4-1.6-1.6c0-0.1,0-0.4,0-0.5c0.3,0,4.7,0,6.2,0c0,0.6,0,1.5,0,2.1
			c0.5-0.4,0.9-0.8,1.2-1c1.3-1.1,2.5-1.8,4.3-1.5c1.7,0.3,2.9,1.6,3.1,3.3c0.1,0.8,0.2,1.3,0.2,2.2c0,2.4,0.1,8.6,0.1,9.1
			c0,0.7,1,1.1,1.6,1.2c0,0.2,0,0.2,0,0.5c-2.5,0-5.2,0-7.8,0C394.4,146.2,394.4,145.9,394.4,145.8z"/>
		<path fill="#FF690F" d="M82.3,34.4c-5.3,1.1-10,2.9-14.4,5.7c-6.4,4-11.4,9.6-15.6,15.8c-4,5.9-7.7,11.8-11.6,17.8
			c-1.4,2.1-2.9,4.1-5,5.4c-0.3,0.2-0.6,0.4-0.9,0.6c-0.1-0.2-0.2-0.3-0.3-0.5c-1.2-2.7-2.9-3.2-5.1-1.2c-1.5,1.4-2.7,3.1-3.9,4.8
			c-0.6,0.9-1,1.9-1.4,2.9c-0.4,0.9-0.8,1.9-1.2,3.1c0-2.3,0-4.5,0-6.7c0-1,0.3-2.1,0.4-3.1c0.3-2.4,0.9-2.9,3.4-2.2
			c0.4-1.2,1-2.5,1.3-3.7c0.2-0.7,0.5-1,1.2-0.9c2.5,0.4,4.4-0.7,6-2.3c2.7-2.8,5.4-5.7,7.9-8.7c5-6,10.1-11.9,16.2-16.8
			c6.4-5.1,13.5-8.5,21.6-9.8c0.2,0,0.3,0,0.5-0.1C81.6,34.4,81.8,34.4,82.3,34.4z"/>
		<path fill="#FF690F" d="M285.9,142.9c-0.6,1.8-2.9,3.2-4.8,3.3c-2.7,0.1-3.1-0.3-4.5-3.4c-0.4,0.3-0.7,0.5-1,0.8
			c-1.7,1.3-3.5,2.5-5.7,2.8c-3.1,0.3-5.5-2.2-4.5-6c0.5-1.7,2.1-3.3,3.5-4.2c2.4-1.4,4-2.4,6.5-3.6c0.8-0.4,1.5-0.8,1.4-1.7
			c-0.1-1.2,0-2.4-0.1-3.6c-0.1-1.3-1-2.2-2.4-2.6c-1.3-0.3-3.2,0.2-3.7,1.1c-0.2,0.3-0.2,0.8-0.1,1.1c0.1,0.3,0.6,0.7,0.8,1
			c0.9,1.2,0.8,2.4,0.1,3.3c-0.8,1.1-2.4,1.5-3.8,1s-2.3-1.6-2.2-3c0.1-1.6,1.1-3.1,2.4-4c3.4-2.3,7.3-2.8,11.3-1.6
			c2.6,0.8,4,2.8,4,5.6c0,3.7,0,7.5,0,11.2c0,0.6,0,1.3,0.2,1.9c0.2,1.3,0.8,1.6,2,0.9c0.1-0.1,0.3-0.2,0.4-0.2
			C285.6,142.8,285.7,142.9,285.9,142.9z M276.6,133.4c-2.1,1.2-3.6,2.3-4.7,4.1c-0.3,0.6-0.6,1.2-0.7,1.9c-0.2,1.5,0.9,2.8,2.3,3
			c1.1,0.2,3.1-0.9,3.1-1.7C276.7,138.4,276.6,136.1,276.6,133.4z"/>
		<path fill="#FF690F" d="M402.1,59.3c-0.1,0.4-0.1,0.8-0.3,1.2c-0.8,1.4-1.5,2.9-2.4,4.3c-1,1.5-2.3,1.7-3.9,1
			c-1.3-0.6-3.3,0.2-3.8,1.5c-0.1,0.4,0,1.1,0.3,1.5c0.6,0.9,1.3,1.8,1.9,2.6c0.5,0.6,0.6,1.3,0.1,2c-0.6,0.8-1.2,1.7-2,2.3
			c-0.4,0.3-1.2,0.3-1.8,0.3c-0.4,0-0.7-0.3-1.1-0.4c-1.9-0.8-3.2-0.4-4.3,1.3c-0.8,1.2-1.5,2.6-2.4,3.7c-0.8,0.9-1.8,1.8-2.9,2.4
			c-2,1-3.9,0.3-5-1.6c-1.5-2.5-2-5.3-1.6-8.1c0.6-5.4,1.2-10.9,2.2-16.2c0.5-2.7,1.8-5.2,2.8-7.8c0.1,0,0.2,0.1,0.3,0.1
			c-0.3,1.7-0.5,3.4-0.7,5.1c-0.5,4.4-1.1,8.8-1.5,13.2c-0.1,1.4,0.2,2.9,0.5,4.2c0.9,3.7,5.2,5,8.1,2.3c1.9-1.8,3.9-3.6,5-6.2
			c0.7-1.6,1.9-3.1,3.1-4.4c1.5-1.7,3.4-2.3,5.6-1.6c0.9,0.3,1.6-0.1,2.2-0.8c0.5-0.6,0.9-1.3,1.4-1.9
			C401.9,59.3,402,59.3,402.1,59.3z"/>
		<path fill="#FF690F" d="M163.8,139.8c0,0.3,0.1,0.6-0.1,0.8c-1.6,3.2-3.8,5.7-7.7,6c-3.1,0.2-5.9-0.6-7.8-3.3
			c-2.3-3.1-2.6-6.6-2.3-10.3c0.2-2.3,0.9-4.4,2.3-6.2c2.4-3,5.4-4.7,9.2-3.7c3.6,0.9,5.3,3.6,6.2,7c0.3,1.1,0.4,2.3,0.5,3.5
			c-0.6,0-1,0.1-1.4,0.1c-3.2,0-6.4,0-9.6,0c-1.1,0-1.4,0.4-1.2,1.4c0.4,2.2,0.9,4.4,2.5,6.1c2.3,2.6,5.6,2.6,7.9-0.1
			c0.4-0.5,0.8-1,1.2-1.6C163.6,139.7,163.7,139.8,163.8,139.8z M155.2,132.5c0.9,0,1.8,0,2.6,0c0.3,0,0.7-0.4,0.7-0.5
			c0.1-2-0.1-3.6-0.5-5.5c-0.2-1-1.4-2.1-2.6-2.1c-1.1,0-1.8,0.6-2.4,1.6c-1.1,1.9-1.2,3.9-1.2,6c0,0.2,0.4,0.6,0.7,0.7
			C153.4,132.6,154.3,132.5,155.2,132.5z"/>
		<path fill="#FF690F" d="M212.5,139.7c0,0.3,0.1,0.6-0.1,0.8c-1.6,3.2-3.8,5.7-7.7,6c-3.1,0.2-5.9-0.6-7.8-3.3
			c-2.3-3.1-2.6-6.6-2.3-10.3c0.2-2.3,0.9-4.4,2.3-6.2c2.4-3,5.4-4.7,9.2-3.7c3.6,0.9,5.3,3.6,6.2,7c0.3,1.1,0.4,2.3,0.5,3.5
			c-0.6,0-1,0.1-1.4,0.1c-3.2,0-6.4,0-9.6,0c-1.1,0-1.4,0.4-1.2,1.4c0.4,2.2,0.9,4.4,2.5,6.1c2.3,2.6,5.6,2.6,7.9-0.1
			c0.4-0.5,0.8-1,1.2-1.6C212.3,139.7,212.4,139.7,212.5,139.7z M203.9,132.5c0.9,0,1.8,0,2.6,0c0.3,0,0.7-0.4,0.7-0.5
			c0.1-2-0.1-3.6-0.5-5.5c-0.2-1-1.4-2.1-2.6-2.1c-1.1,0-1.8,0.6-2.4,1.6c-1.1,1.9-1.2,3.9-1.2,6c0,0.2,0.4,0.6,0.7,0.7
			C202.1,132.5,203,132.5,203.9,132.5z"/>
		<path fill="#FF690F" d="M417.6,142c0,0.2,0,0.4,0,0.6c-1.2,2.3-2.7,4.1-5.5,4.3c-2.2,0.2-4.2-0.5-5.6-2.3
			c-1.6-2.2-1.9-4.7-1.6-7.3c0.2-1.6,0.6-3.1,1.7-4.4c1.7-2.1,3.8-3.3,6.6-2.6c2.5,0.6,3.8,2.6,4.4,5c0.2,0.8,0.3,1.6,0.4,2.5
			c-0.4,0-0.7,0.1-1,0.1c-2.3,0-4.6,0-6.8,0c-0.8,0-1,0.3-0.9,1c0.3,1.6,0.7,3.1,1.8,4.4c1.7,1.9,4,1.9,5.6-0.1
			c0.3-0.4,0.6-0.7,0.9-1.1C417.5,142,417.5,142,417.6,142z M411.4,136.8c0.6,0,1.3,0,1.9,0c0.2,0,0.5-0.3,0.5-0.4
			c0.1-1.4,0-2.6-0.3-4c-0.2-0.7-1-1.5-1.8-1.5s-1.3,0.4-1.7,1.1c-0.8,1.3-0.9,2.8-0.9,4.3c0,0.2,0.3,0.5,0.5,0.5
			C410.2,136.8,410.8,136.8,411.4,136.8z"/>
		<path fill="#FF690F" d="M186.9,31.2c0,1.7,0,3.4,0,5.1c-0.1,3.9-0.3,7.8-0.4,11.7c-0.2,4.5-0.4,9-0.7,13.5c-0.3,3.9-1.5,7.5-3,11
			c-1,2.6-2.1,5.1-3.3,7.6c-0.4,0.9-1.1,1.6-1.6,2.4c-0.2,0-0.3-0.1-0.5-0.1c0-0.5-0.1-0.9,0-1.4c0.9-5.4,2.1-10.7,2.7-16.1
			c0.5-4.5,0.4-9.2,0.6-13.8c0.1-1.7,0.2-3.4,0.7-5c1.4-4.5,3-9,4.5-13.5c0.2-0.5,0.5-1,0.7-1.5C186.6,31.1,186.7,31.2,186.9,31.2z"
			/>
		<path fill="#FF690F" d="M254.7,146.1c-3.8,0-7.9,0-11.8,0c0-0.2,0-0.7,0-0.7s2.4-0.5,2.4-2.2c0-4.4,0-10.3,0-14.7
			c0-3.1,0.1-3.8-2.4-4.2c0-0.1,0-0.5,0-0.7c2.3,0,8.9,0,8.9,0s0,3.8,0,5.1c0.1,0,0.2,0,0.3,0c0.5-0.7,0.9-1.6,1.4-2.3
			c1.2-1.6,2.6-3,4.7-3.5c1.4-0.3,2.8,0.3,3.3,1.5c0.7,1.4,0.5,3.4-0.6,4.2c-1,0.8-2.4,1-3.6,0c-1.8-1.5-3.4-1-3.9,0
			c-0.9,1.8-1.4,3.6-1.6,5.8c-0.1,1.9-0.1,5.6-0.1,7.5c0,2.1-0.3,3.4,2.9,3.5C254.7,145.6,254.7,145.9,254.7,146.1z"/>
		<path fill="#FF690F" d="M359.4,146.3c-2.7,0-5.6,0-8.3,0c0-0.1,0-0.5,0-0.5s1.7-0.3,1.7-1.5c0-3,0-7.2,0-10.2c0-2.2,0-2.7-1.7-2.9
			c0-0.1,0-0.3,0-0.5c1.6,0,6.3,0,6.3,0s0,2.6,0,3.5c0.1,0,0.1,0,0.2,0c0.3-0.5,0.6-1.1,1-1.6c0.9-1.1,1.8-2.1,3.3-2.4
			c1-0.2,2,0.2,2.4,1c0.5,1,0.4,2.3-0.4,2.9c-0.7,0.5-1.7,0.7-2.5,0c-1.3-1-2.4-0.7-2.7,0c-0.6,1.3-1,2.5-1.1,4
			c-0.1,1.3,0,3.9,0,5.2c0,1.5-0.2,2.3,2,2.4C359.4,145.9,359.4,146.2,359.4,146.3z"/>
		<path fill="#FF690F" d="M320.5,65c3.4,1.8,5.1,4.1,5.5,7.4c1.6-3.1,3.2-6.2,5-9.6c1.7,1.7,3.3,3.1,4.6,4.6c0.8,1,1,2.2,0.6,3.5
			c-0.6,2.2-1.5,4.3-3.1,6c-1,1.1-1.4,1.1-2.5,0.2c-1.6-1.3-3.2-2.5-4.9-3.9c-0.2,0.4-0.3,0.8-0.5,1.2c-0.9,1.5-1.7,3.1-2.7,4.5
			c-0.6,0.9-1.4,1-2.3,0.1c-1.2-1.1-2.6-2.1-4-3.1c-0.8-0.6-1-1.2-0.5-2.2c1.5-2.7,2.8-5.3,4.3-8C320.1,65.4,320.3,65.2,320.5,65z"
			/>
		<path fill="#FF690F" d="M145.1,48c2.7,2.4,6,4.1,6.6,8c0.1,0.7,0,1.4-0.1,2.1c-0.7,2.8-1.9,5.4-3.9,7.6c-1.5,1.6-2,1.3-3.2,0.3
			c-1.6-1.4-3.3-2.6-5-3.9c-1-0.8-1.2-1.6-0.6-2.8c1.7-3.2,3.4-6.4,5.1-9.6C144.3,49,144.7,48.6,145.1,48z"/>
		<path fill="#FF690F" d="M339.3,146c-3.4,0-6.8,0-10.1,0v-0.1c0.4-0.1,0.8-0.1,1.1-0.2c1.1-0.3,1.5-0.9,1.2-1.9
			c-0.4-1.2-1-2.4-1.6-3.6c-0.1-0.3-0.6-0.5-0.9-0.5c-2.2,0-4.5,0-6.7,0c-0.3,0-0.8,0.2-0.9,0.4c-0.5,1-1,2-1.2,3
			c-0.4,1.5,0.2,2.2,1.7,2.5c0.3,0.1,0.6,0.2,0.9,0.4c-2.3,0-4.6,0-6.9,0c2.2-0.9,2.9-3,3.8-4.9c2.5-5.6,5-11.1,7.5-16.7
			c0.2-0.4,0.3-0.7,0.6-1.3c0.3,0.5,0.5,0.9,0.7,1.3c2.6,5.9,5.2,11.8,7.8,17.6C336.9,143.5,337.5,145.2,339.3,146z M325.8,130.7
			c-0.1,0-0.2,0-0.3,0c-1.1,2.5-2.3,5.1-3.4,7.7c2.5,0,4.7,0,7.2,0C328,135.7,326.9,133.2,325.8,130.7z"/>
		<path fill="#FF690F" d="M73,34.7c1.6-1.1,3.3-2.1,4.8-3.3c4-2.9,8.1-5.7,11.9-8.9c5.5-4.7,9.8-10.4,11.8-17.5
			c0-0.1,0.1-0.1,0.3-0.4c-0.3,3.7-0.5,7.3-0.8,10.8c-0.3,2.6-1.4,4.8-3.2,6.7c-3.4,3.7-7.3,6.7-12.1,8.3c-4.2,1.4-8.4,2.9-12.6,4.3
			C73,34.8,73,34.8,73,34.7z"/>
		<path fill="#FF690F" d="M66.3,56c1.2,0.3,2.4,0.5,3.5,1.1c3.3,1.8,6.6,3.5,9.7,5.6c4.3,2.9,8.8,5.3,14,6.3
			c2.1,0.4,4.3,0.6,6.3,0.9c-3.6,3.8-6.7,4.7-11.3,3.4c-3.4-1-6.2-3-8.9-5.3c-1.4-1.2-2.8-2.5-4.1-3.9c-2.9-2.9-5.8-5.8-9.4-8
			C66.3,56.2,66.3,56.1,66.3,56z"/>
		<path fill="#FF690F" d="M87.8,32c11.2-5.1,20.6-12.4,28-22.4c-1.5,4.1-2.9,8.2-4.5,12.2c-2,4.9-5.8,7.8-10.9,9
			C96.2,31.7,92,32.1,87.8,32z"/>
		<path fill="#FF690F" d="M110.2,54.3c-0.9,1-1.6,1.8-2.3,2.6c-2.3,3-5.4,3.8-9,2.8c-3.8-1-7.3-2.8-10.7-4.8
			c-4.8-2.8-9.4-5.8-14.9-7.3c4,0,8,0.5,11.7,1.7c4,1.3,7.8,3,11.8,4.3c3.2,1,6.5,1.8,9.9,1.3C108,54.9,109,54.6,110.2,54.3z"/>
		<path fill="#FF690F" d="M104.6,62.7c-1.8,3.1-6.9,5.3-10.2,4c-2.8-1.1-5.4-2.5-7.9-4.1c-5.3-3.3-9.9-7.7-15.9-10.2
			c9.5,3.1,19,6.3,28.6,9.4C100.9,62.3,102.8,62.4,104.6,62.7z"/>
		<path fill="#FF690F" d="M88.2,148.3c-0.8-1.8-1.6-3.8-2.6-5.6c-5.3-9.8-13.4-16.5-23.9-20.2c-8.5-3-16.8-6.6-24.5-11.3
			c-1.5-0.9-2.8-1.9-4.2-2.9c-0.1-0.1-0.2-0.2-0.4-0.1c5,2.1,10,4.2,15.1,6.2c4.8,1.9,9.8,3.5,14.6,5.4c13,5.4,21.5,14.9,25.9,28.3
			C88.2,148.2,88.2,148.3,88.2,148.3z"/>
		<path fill="#FF690F" d="M81.3,159.1c-1.2-6.2-3.6-12-7.4-17.1c-4.1-5.6-9.2-9.9-15.3-13.2c-8.3-4.4-16.2-9.5-23.2-15.8
			c-1-0.9-1.8-1.9-2.3-2.4c3.6,2.2,7.6,4.8,11.8,7.2c5.1,3,10.5,5.6,15.5,8.8c11.5,7.1,18.3,17.4,20.6,30.7
			C81.2,157.9,81.3,158.5,81.3,159.1z"/>
		<path fill="#FF690F" d="M114.5,46.4c-2.1,1.6-4.1,3.3-6.2,4.8c-2.4,1.7-5.1,1.6-7.7,0.8c-2.1-0.6-4.2-1.4-6.2-2.2
			c-4.4-1.9-8.5-4.6-13.3-5.5c0-0.1,0.1-0.2,0.1-0.3c1.3,0,2.5-0.2,3.8,0c5.2,0.8,10.4,1.7,15.7,2.5c4.6,0.7,9.2,1.1,13.7-0.4
			C114.4,46.3,114.5,46.3,114.5,46.4z"/>
		<path fill="#FF690F" d="M120.2,23.9c-1.3,2.8-2.4,5.7-3.8,8.3c-1.9,3.6-4.8,5.8-9,5.6c-3.2-0.1-6.4-0.6-9.6-0.9
			c-3.9-0.4-7.8-0.7-11.7-1.3c1.3-0.2,2.6-0.6,4-0.7c4.1-0.4,8.2-0.8,12.3-0.9c4.2-0.1,7.8-1.5,11-4C115.7,28.1,117.8,26,120.2,23.9
			z"/>
		<path fill="#FF690F" d="M33.5,82.6c0.8-0.2,1.5-0.5,2.2-0.7c0.3-0.1,0.9,0.1,1,0.4c1.4,2.8,2.7,5.5,4,8.3c0.1,0.2,0.2,0.4,0.1,0.7
			c-1.3-1.8-2.6-3.7-4-5.4c-0.4-0.6-1.1-1-1.8-1.3c-0.8-0.3-1.2,0.1-1,1c0.4,1.4,0.8,2.8,1.3,4.2c0.5,1.7,1.1,3.5,1.7,5.2
			c-0.1,0-0.2,0.1-0.3,0.1c-0.6-1.4-1.1-2.8-1.8-4.1c-0.9-1.8-1.5-3.9-3.3-5.2c-0.2-0.2-0.2-0.7-0.3-1c0-0.5,0-1,0-1.5
			c-0.1,0-0.3,0-0.4,0c-0.2,0.9-0.3,1.9-0.5,2.8c-0.3,1.9-0.5,3.9-0.9,5.8c-0.4,2,0,3.8,0.5,5.6c0.4,1.6,0.9,3.3,1.2,5
			c-1.1-1.7-2.5-3.2-3.2-5c-0.6-1.4-0.4-3.1-0.4-4.7c0-1.9,0.3-3.9,0.2-5.9c-1.4,1.6-1.6,3.6-1.7,5.6c-0.2,2-0.2,4-0.3,6.2
			c-1.5-2.4-2.3-4.8-1.6-7.6c0.9-3.4,2.2-6.5,4.5-9.2c0.5-0.6,1-1.1,1.6-1.6c1.5-1.1,2.4-0.7,2.9,1C33.2,81.9,33.4,82.2,33.5,82.6z"
			/>
		<path fill="#FF690F" d="M84.6,89.8c-1.9,2.8-6.9,3.9-9.7,2.1c-3.7-2.5-6.6-5.9-9.3-9.4c-1.3-1.8-2.5-3.6-3.8-5.4
			c-1.4-1.7-2.9-3.3-4.3-5c-0.4-0.5-0.8-0.9-1.3-1.4c0.1-0.1,0.1-0.2,0.2-0.3c0.3,0.2,0.7,0.4,1,0.6c2.7,2.2,5.3,4.4,8,6.7
			c1.9,1.7,3.7,3.6,5.6,5.2C75.5,86.9,77.5,87.9,84.6,89.8z"/>
		<path fill="#FF690F" d="M79.2,96.6c-3.4,3.2-8.3,3.2-11.2-0.2c-2.2-2.5-4.3-5.2-6-8.1c-2.8-4.7-5.6-9.5-9.5-13.7
			c2.7,1.5,7.8,6.2,10.6,9.7c2.5,3.1,5.1,6.1,8.3,8.5C73.7,94.6,76.3,95.9,79.2,96.6z"/>
		<path fill="#FF690F" d="M63.3,61.6c4,2.1,8.1,4.5,11.8,7.7c4.1,3.7,8.9,6.3,14.5,7.2c1.9,0.3,3.8,0.4,5.8,0.6
			c-2.6,1.1-5.1,2.3-7.7,3.3c-0.6,0.2-1.5,0-2.2-0.2c-3.7-0.9-6.8-3-9.5-5.5c-1.6-1.5-3.1-3-4.6-4.6C68.6,67.2,65.9,64.3,63.3,61.6z
			"/>
		<path fill="#FF690F" d="M373.9,146c-2.6,0-5.2,0-7.8,0c1.8-0.6,1.7-2.1,1.7-3.5c0-5.2,0-10.3,0-15.5c0-1.4,0.1-2.9-1.9-3.3
			c0.1-0.1,0.1-0.2,0.2-0.3c1.9,0,3.7,0,5.6,0c0.2,0,0.5,0.7,0.5,1.1c0,3.2,0,6.5,0,9.7c0,2.8,0,5.6,0,8.4
			C372.2,144.1,372.2,145.4,373.9,146z"/>
		<path fill="#FF690F" d="M117.9,37.2c-1.6,2.1-3.1,4.2-4.7,6.1c-1.7,2-4.1,1.6-6.4,1.5c-5.7-0.3-11.1-2.1-16.6-3.4
			c-2.4-0.5-4.9-0.8-7.3-1.2c2.7-0.2,5.4-0.4,8.1-0.4c3.4,0,6.8,0.2,10.2,0.5c5.5,0.5,10.7,0,15.6-2.7c0.2-0.1,0.5-0.3,0.7-0.4
			C117.6,37.1,117.7,37.1,117.9,37.2z"/>
		<path fill="#FF690F" d="M60.5,66.2c2.8,2.2,5.8,4.2,8.3,6.7c5.3,5.3,11.6,8.8,18.9,10.4c0.3,0.1,0.5,0.1,0.8,0.2
			c0.1,0,0.3,0.1,0.6,0.3c-1.3,1.6-2.9,2.5-4.7,3c-1.8,0.5-3.5,0.1-5-0.8c-3.3-2-6-4.8-8.6-7.6c-3.5-4-7-8-10.5-12
			C60.5,66.3,60.5,66.2,60.5,66.2z"/>
		<path fill="#FF690F" d="M326.2,74.4c1.6,1.4,2.9,2.5,4.1,3.7s1.6,2.8,1.2,4.5c-0.5,2.2-1.5,4.2-3.1,5.9c-1,1.1-1.4,1.1-2.6,0.2
			c-1.3-1.1-2.6-2.1-3.9-3.1c-0.7-0.6-0.8-1.1-0.4-2C323.1,80.6,324.6,77.7,326.2,74.4z"/>
		<path fill="#FF690F" d="M73.8,26.6c0,1.4,0.1,2.6,0,3.8c-0.2,2.1-1.2,3.1-3.6,3.2c-4,0.1-8,0.1-12-0.1c-5-0.2-10-0.5-14.9-0.8
			c-0.6,0-1.3,0-1.9,0c0-0.1,0-0.2,0-0.3c1.4-0.2,2.8-0.6,4.2-0.7c2.8-0.2,5.7-0.3,8.5-0.5c5.7-0.4,11.3-0.9,16.6-3.1
			c0.5-0.2,1-0.5,1.5-0.7C72.7,27.2,73.2,27,73.8,26.6z"/>
		<path fill="#FF690F" d="M73.5,102c-2.3,1.3-4.3,2.7-6.7,1.8c-1.2-0.5-2.4-1.4-3.4-2.4c-2.8-3.1-5-6.5-6.7-10.3
			c-2-4.5-4.2-8.9-7.5-12.7c0.2,0.2,0.5,0.3,0.7,0.5c3.5,3,6.2,6.6,8.8,10.4C62.5,94.7,66.7,99.7,73.5,102z"/>
		<path fill="#FF690F" d="M429.5,130.3c0,1.6,0,3.1,0,5c-0.3-0.5-0.5-0.9-0.7-1.2c-0.6-1.2-1.4-2.2-2.7-2.7c-1-0.3-1.9-0.4-2.6,0.6
			c-0.6,1-0.1,1.8,0.7,2.4c1.6,1.2,3.3,2.4,4.8,3.7c1.4,1.2,1.8,2.8,1.3,4.6c-0.8,2.9-3.2,4.3-6.3,3.6c-0.3-0.1-0.7-0.3-1-0.3
			c-0.8,0-1.5,0-2.5,0c-0.1-1.3-0.2-2.9-0.2-4.5c0.1,0,0.2-0.1,0.3-0.1c0.2,0.3,0.4,0.7,0.6,1c0.7,1.4,1.7,2.4,3.1,3
			c1.1,0.4,2.2,0.1,2.6-0.7c0.5-1,0.3-1.9-0.5-2.6c-1.3-1.1-2.7-2-4-3.1c-1.2-0.9-2.1-1.9-2.3-3.5c-0.4-3.8,2.9-6.3,6.5-4.9
			c1,0.4,1.9,0.8,2.6-0.4C429.3,130.2,429.4,130.2,429.5,130.3z"/>
		<path fill="#FF690F" d="M17,65.7c1.1,2,2.1,3.9,3.3,6c0.5-1.8,0.9-3.2,1.4-4.8c0.4,0.8,0.7,1.4,1.1,2c1.3-2.5,0.3-3.7-2-5.2
			c-0.3,0.6-0.6,1.3-1,2c-0.6-2.7-1.7-3.6-3.8-3.1c-1.1,0.3-1.6,1-2.1,2c-0.5,1-1.1,2-1.8,3c0.1-4.6,1-5.5,4.8-6.8
			c2.9-0.9,5.7,0.2,7.3,2.8c0.4,0.6,0.8,1.3,1,2c0.5,1.4,1,2.8,1.5,4.3c-0.5-0.1-0.8-0.1-1.2-0.1c-0.5,1.8-1,3.6-1.6,5.7
			c-0.3-1.1-0.5-1.9-0.7-2.7c-0.1,0-0.2,0-0.3,0c-0.6,1.6-1.3,3.3-2,5.2c-1.5-2.8-3.1-5.3-4.1-8C16.3,68.8,16.9,67.3,17,65.7z"/>
		<path fill="#FF690F" d="M42.1,27.8c3.4-0.7,6.8-1.4,10.3-2c2.9-0.5,5.8-0.9,8.6-1.6c4.2-1,8-2.9,10.8-6.8c0.3,1.6,0.6,3,0.7,4.4
			c0.1,1.6-0.6,3-2.2,3.5c-1.8,0.6-3.7,1.3-5.5,1.4c-7.5,0.6-15,0.9-22.6,1.4C42.1,28,42.1,27.9,42.1,27.8z"/>
		<path fill="#FF690F" d="M38.3,20.9c-1.1,1.2-3.3,3.4-5.3,5.8c-4.8,5.7-6.2,12.3-4.7,19.5c0.2,0.9,0,1.4-0.8,1.7
			c-0.8,0.4-1.7,0.8-2.5,1.2c-0.1,0-0.2,0-0.4,0.1c0-0.3-0.1-0.6-0.1-0.9c0.1-3.5,0.1-7,0.4-10.5c0.3-4.3,2.6-7.7,5.5-10.8
			C33.1,24.1,36.3,22,38.3,20.9z"/>
		<path fill="#FF690F" d="M9.6,86.6C9,87.7,8.5,88.9,7.9,90H7.8c0.7-2.9,1.5-5.8,2.3-9c0.1,0.7,0.1,1,0.2,1.3
			c0.2,0.4,0.5,1.1,0.6,1.1c0.5,0,1.2-0.3,1.4-0.7c0.6-0.9,0.9-1.9,1.3-2.8c0.1-0.2,0.2-0.4,0.3-0.8c0.6,1.1,1.2,2.1,2,3.4
			c0.7-1.4,1.3-2.5,1.8-3.4c0.2,2.4-1.2,6.3-3,8.1c-0.8-0.6-1.7-1.3-2.5-1.9c-0.1,0.2-0.2,0.4-0.2,0.4c0.8,3.3-0.6,6.3-1.1,9.4
			c-0.2,1.6-0.7,3.3-1.1,5.1c-1.7-1.8-2-3.8-1.7-5.8C8.4,92,9,89.6,9.5,87.3C9.5,87.1,9.6,86.9,9.6,86.6C9.8,86.6,9.7,86.6,9.6,86.6
			z"/>
		<path fill="#FF690F" d="M49.9,87.9c1.8,2.3,3.7,4.7,5.5,7c1,1.3,2,2.6,3,3.9c1.4,2,2.9,3.9,4.4,6.1c-2.6,0.4-5,0.1-6.8-1.7
			c-1.4-1.4-2.6-3.1-3.4-4.9c-1.5-3.4-2.7-7-4.1-10.5c-0.4-0.9-0.8-1.9-1.1-2.9c0.2,0.2,0.4,0.4,0.6,0.5
			C48.7,86.3,49.3,87.1,49.9,87.9z"/>
		<path fill="#FF690F" d="M383.4,146c-2.6,0-5.2,0-7.7,0c1.8-0.8,1.6-2.4,1.6-3.8c0-3.1,0-6.2-0.1-9.2c0-1-0.4-1.9-1.7-2
			c0-0.1,0.1-0.2,0.1-0.3c1.8,0,3.7,0,5.5,0c0.2,0,0.5,0.7,0.5,1.1c0,3.2,0,6.4,0,9.6c0,0.6,0,1.2,0,1.8
			C381.7,144.5,382,145.5,383.4,146z"/>
		<path fill="#FF690F" d="M341.1,130.6c1.8,0,3.6,0,5.5,0c0.8,0,0.6,0.7,0.6,1.1c0,3.4,0,6.7,0,10.1c0,0.4,0,0.8,0,1.2
			c0.1,1.2,0.2,2.4,1.7,2.9c-2.6,0-5.2,0-7.8,0c2.1-0.5,1.7-2.2,1.7-3.7c0-3,0-6.1,0-9.1c0-1.2-0.3-2.2-1.8-2.3
			C341.1,130.8,341.1,130.7,341.1,130.6z"/>
		<path fill="#FF690F" d="M52.7,129c-3.1,2.9-5.7,3-8.6,0c-2.3-2.4-4.5-5-6.4-7.8c-2.3-3.5-4.5-7-7.7-9.7c0.1-0.1,0.2-0.2,0.2-0.3
			c2,1.7,4.1,3.4,6,5.2c2,1.9,3.8,4,5.7,6c2.9,2.9,6.2,5.2,10.2,6.2C52.4,128.9,52.5,129,52.7,129z"/>
		<path fill="#FF690F" d="M39.9,37.9c9.6-1.6,19.2-1.4,28.7-1.6c0.1,0.1,0.1,0.2,0.2,0.3c-0.5,0.4-1.1,0.8-1.7,1.1
			c-1.7,0.9-3.5,1.9-5.3,2.7c-0.4,0.2-0.9,0.3-1.4,0.2c-4.4-0.7-8.8-1.5-13.2-2.2C44.8,38.1,42.5,38.1,39.9,37.9z"/>
		<path fill="#FF690F" d="M404.8,80.5c0.4-2.3,0.9-4.5,1.1-6.8c0.3-3.2,0.5-6.4,0.7-9.7c0.1-1.5,0.3-3.1,0.7-4.6
			c0.7-2.5,1.6-4.9,2.7-7.3c0,1.6,0,3.2,0,4.8c-0.1,3.5-0.3,6.9-0.4,10.4c-0.2,4.5-1.9,8.6-4,12.5c-0.1,0.3-0.4,0.4-0.6,0.7
			C404.9,80.6,404.9,80.6,404.8,80.5z"/>
		<path fill="#FF690F" d="M18.7,95.6c-0.2,0.5-0.5,0.9-0.6,1.3c-0.5,1.4,0.3,2.6,1.8,2.6c1,0,1.3,0.2,1,1.3
			c-0.8,2.6-1.5,5.2-2.2,7.8c-0.1,0-0.2,0-0.3,0c-0.5-2-1-4.1-1.4-6.1s-0.8-2.8-2.4-4c0.4,2.4,0.7,4.6,1.1,7.1
			c-4.2-3.4-4.6-7.4-2.8-12c0.2,2.1,1.6,2,3.2,2C16.8,95.5,17.7,95.6,18.7,95.6z"/>
		<path fill="#FF690F" d="M41.3,86.6c3.4,4.4,6.9,8.7,9.1,13.9c0.7,1.7,2.1,3.1,3.4,4.9c-1.2,0-2.3,0.2-3.4,0.1
			c-2.8-0.2-3.7-0.9-4.3-3.6C44.9,96.6,43.9,91.4,41.3,86.6z"/>
		<path fill="#FF690F" d="M366.1,90.1c1.2,1.4,2.1,2.5,3.2,3.7c0.7-1.3,1.5-2.8,2.4-4.4c1.3,1,2.8,1.7,3,3.4
			c0.2,1.7-0.7,3.2-1.9,4.3c-0.2,0.2-0.9,0.1-1.2-0.1c-0.9-0.6-1.7-1.3-2.6-2c-0.5,0.9-1,1.8-1.5,2.6c-0.5,0.8-1,1-1.9,0.3
			c-3-2.4-2.7-1.5-1.1-4.9C364.9,92.2,365.4,91.3,366.1,90.1z"/>
		<path fill="#FF690F" d="M398.2,82.7c0.4,0.3,0.6,0.4,0.8,0.6c2.7,2.1,2.9,4.5,0.5,7c-0.5,0.6-1,0.6-1.6,0.1
			c-0.8-0.7-1.6-1.3-2.5-1.9c-0.6,1-1,1.9-1.6,2.7c-0.5,0.7-1,0.8-1.8,0.2c-2.6-2.1-2.7-2-1.1-4.9c0.5-0.9,1-1.7,1.6-3
			c1.2,1.3,2.2,2.5,3.2,3.7C396.5,85.9,397.3,84.4,398.2,82.7z"/>
		<path fill="#FF690F" d="M382.4,90.4c-0.6,1-1.1,1.9-1.6,2.8c-0.5,0.7-1,0.9-1.8,0.2c-3.1-2.5-2.8-1.5-1.1-5c0.4-0.9,1-1.7,1.6-2.9
			c1.2,1.3,2.2,2.5,3.2,3.7c0.7-1.3,1.5-2.8,2.5-4.5c0.9,0.9,1.8,1.5,2.4,2.4c0.4,0.5,0.4,1.4,0.4,2.1c0,0.6-0.3,1.2-0.6,1.8
			c-1.1,2.2-1.5,2.2-3.4,0.8C383.5,91.3,383,90.9,382.4,90.4z"/>
		<path fill="#FF690F" d="M45.4,22.7c2.9-0.8,5.9-1.8,8.8-2.5c5-1.2,8.5-4,10.5-8.7c0.3-0.7,0.6-1.3,1-1.9c0.2,2.6,0.7,5.1-0.1,7.6
			c-0.5,1.5-1.6,2.6-3,3c-1.8,0.6-3.7,1.1-5.5,1.4C53.2,22.1,49.3,22.4,45.4,22.7C45.4,22.8,45.4,22.7,45.4,22.7z"/>
		<path fill="#FF690F" d="M23.5,98.3c-2.2-0.4-3.3-1.7-3.8-3.7c-0.4-1.5-1.1-2.9-1.7-4.4c-0.9,1.4-0.9,1.9,0.2,3.5
			c-1.7,0.6-3.3-0.6-2.9-2.4c0.2-0.9,0.5-1.9,1.1-2.6c1.8-2.4,2.6-5.1,3.2-7.9c0-0.1,0.1-0.3,0.3-0.4C20,86.5,21.7,92.4,23.5,98.3z"
			/>
		<path fill="#FF690F" d="M40,0c0.8,3.1,2,6.2,2.5,9.4c0.8,4.9-0.6,7.3-4.2,9.3c-0.9,0.5-1.9,1-2.9,1.4C39.3,13.9,40.8,7.3,40,0z"/>
		<path fill="#FF690F" d="M24.4,60.6c2,0.3,3.9,0.5,5.6,0.9c4.2,0.9,8,0.8,11-3c-1.2,2.7-2.7,5.1-4.9,7c-0.7,0.6-1.5,0.9-2.4,0.6
			c-2-0.7-4-1.3-6-2c-0.4-0.1-0.7-0.4-1-0.7C26,62.6,25.4,61.8,24.4,60.6z"/>
		<path fill="#FF690F" d="M8.5,81.4c0.2-0.5,0.3-1.1,0.5-1.5c0.7-1.4,1-2.8,0.6-4.3c-0.5-1.6,0.2-2.8,1-4.1c0.5,0.5,0.9,1,1.5,1.7
			c0.2-0.8,0.3-1.5,0.5-2.2c0.4,0.5,0.7,0.9,1,1.3c0.1,0,0.3,0,0.4,0c0.2-2,0.3-4.1,0.5-6.1c0.2,0,0.3,0,0.5,0
			c0.1,0.9,0.3,1.7,0.4,2.6c0.2,1.3,0.3,2.6,0.5,3.9c0,0.2,0.4,0.4,0.8,0.8C16.5,75,16.3,77,16,78.9h-0.1c-0.3-1.2-0.5-2.4-0.8-3.9
			c-1.1,2.1-2,3.9-3,5.9c0.2-1.8,0.4-3.2,0.5-4.7c-0.1,0-0.2-0.1-0.3-0.1C10.6,77.5,10,79.8,8.5,81.4z"/>
		<path fill="#FF690F" d="M37.5,52.5C36,55,34.2,57.1,32,58.8c-1.2,0.9-2.4,1.1-3.9,0.8c-1.8-0.4-3.8-0.3-5.7-0.5
			c-0.7-0.1-1.4-0.3-2.1-0.6c1.5-1.6,3.2-2.6,5.3-2.3c2.9,0.3,5.7-0.2,8.3-1.4C35.1,54.2,36.2,53.3,37.5,52.5z"/>
		<path fill="#FF690F" d="M30.9,114.7c1.2,1.6,2.5,3.1,3.6,4.7c2.3,3.3,4.2,6.9,7.2,9.7c0.7,0.6,1.3,1.2,2.1,1.8
			c-2.3,0.9-5.3,0-6.7-2.1c-1-1.5-1.7-3.1-2.4-4.8C33.4,121,32.2,117.9,30.9,114.7z"/>
		<path fill="#FF690F" d="M37.8,90.8c1.4,2.8,3.6,5.7,4.6,9.3c0.4,1.5,1.3,2.8,2,4.2c0.3,0.5,0.6,1,1,1.5c-2.2,1-5.4-0.8-6.1-3.7
			c-0.2-1-0.4-2-0.5-2.9C38.4,96.2,38.1,93.3,37.8,90.8z"/>
		<path fill="#FF690F" d="M58.4,42.6c-1.2,1-2.3,2-3.5,3c-0.2,0.2-0.8,0.1-1.1,0c-4.8-1-9.6-2-14.6-3.1
			C45.6,41.6,51.9,42.2,58.4,42.6z"/>
		<path fill="#FF690F" d="M57.7,4.5c0.3,1.6,0.6,3,0.9,4.5c0.8,4.1-0.7,6.9-4.7,7.9c-2.5,0.6-5.2,0.9-7.7,1.3c0-0.1-0.1-0.2-0.1-0.3
			c0.9-0.4,1.8-0.8,2.7-1.1c5.8-1.6,8.2-5.7,8.8-11.3c0-0.2,0-0.5,0.1-0.7C57.5,4.7,57.6,4.7,57.7,4.5z"/>
		<path fill="#FF690F" d="M29.6,48.4c-1.1,1.7-2.2,3.5-3.4,5.2c-0.3,0.4-1,0.8-1.5,0.8c-2,0.1-3.8,0.9-5,2.3
			c-1.2,1.5-2.5,1.2-4.2,0.9c1-0.9,2.1-1.5,2.9-2.4c2.1-2.5,4.6-4.4,7.8-5.4c1.1-0.3,2-1,3-1.6C29.4,48.3,29.5,48.3,29.6,48.4z"/>
		<path fill="#FF690F" d="M27.3,101.4c1.8,2.4,1.5,4.8,1.2,7.1c-0.4-0.2-1-0.7-1.2-0.5c-0.5,0.3-1.1,0.9-1.1,1.4
			c-0.2,0.9,0,1.9,0,2.9c0.1,1.7,0.2,3.5,0.3,5.2c-0.2,0.1-0.3,0.1-0.5,0.2c-1-1.5-2.1-2.9-3.1-4.4c-0.1-0.1-0.1-0.3,0-0.5
			C24.4,109.1,25.8,105.4,27.3,101.4z"/>
		<path fill="#FF690F" d="M49.6,1.3c0.2,2.9,0.4,5.8,0.5,8.7c0.1,3.6-2.9,6.5-6.5,6.1C46.6,11.5,48.6,6.6,49.6,1.3z"/>
		<path fill="#FF690F" d="M21.6,102.1c0,0.9,0,1.7,0,2.6c0.2,0.1,0.3,0.1,0.5,0.2c0.6-0.9,1.2-1.9,1.8-2.8c0.2-0.3,0.7-0.8,0.9-0.7
			c0.4,0.1,1,0.5,1,0.9c0.1,0.7,0,1.6-0.3,2.2c-1.5,2.8-3.1,5.6-4.6,8.4c-0.1,0.1-0.2,0.1-0.3,0.2C19.4,111.6,20.1,104.2,21.6,102.1
			z"/>
		<path fill="#FF690F" d="M13,56.8c0.5-1.3,1-2.7,1.5-4c0.1-0.4,0.3-0.8,0.6-1c2.4-2,4.4-4.4,5.9-7.2c0.1,0,0.2,0,0.4,0.1
			c0,1,0.3,2.1-0.1,2.9c-0.7,1.6-1.5,3.3-2.6,4.6c-1.6,1.8-3.6,3.3-5.5,4.9C13.2,57.1,13.1,56.9,13,56.8z"/>
		<path fill="#FF690F" d="M73.9,65.6c-2.4-1.6-4.7-3.2-7.2-4.5c-3.2-1.7-6.5-3-9.8-4.5c-0.5-0.2-1.1-0.7-1.1-1.1
			c0.1-0.8,0.8-1.1,1.6-0.9c0.4,0.1,0.7,0.1,1,0.3C64.4,57.3,69.5,60.8,73.9,65.6z"/>
		<path fill="#FF690F" d="M32.8,90.6c0.7,1.9,1.7,3.7,2.1,5.6c0.6,2.8,0.8,5.8,2.4,8.3c-2.3,0.1-4.2-1.6-4.6-4.2
			c-0.2-1.4-0.1-2.9-0.1-4.3c0-1.8,0-3.6,0-5.3C32.7,90.6,32.8,90.6,32.8,90.6z"/>
		<path fill="#FF690F" d="M11.8,44.4c2.8,5.1,1.2,11.4-3.5,14.2C9.5,54,10.7,49.2,11.8,44.4z"/>
		<path fill="#FF690F" d="M65.4,75.4c-1.1-0.9-2.2-1.9-3.4-2.8c-3.1-2.3-6.3-4.5-9.4-6.8c-0.7-0.5-1.5-1.1-2.2-1.7
			c-0.5-0.5-0.5-1,0-1.6s0.9-0.2,1.3,0.1c4.8,3.7,9.8,7.2,13.5,12.1c0.1,0.2,0.2,0.3,0.4,0.5C65.5,75.3,65.5,75.4,65.4,75.4z"/>
		<path fill="#FF690F" d="M395.6,89.3c0.4,0.3,0.6,0.4,0.8,0.6c2.7,2,2.9,4.5,0.5,7c-0.5,0.6-1,0.6-1.6,0.1c-3.1-2.5-2.8-1.6-1.2-5
			C394.6,91,395.1,90.2,395.6,89.3z"/>
		<path fill="#FF690F" d="M78.7,59.4c-6.3-3.2-12.8-5.9-20-6.9c0.2-1.2,0.7-1.6,1.5-1.6c0.5,0,1,0,1.4,0.1c4.8,1.5,9.5,3.3,13.8,6
			C76.5,57.7,77.6,58.6,78.7,59.4z"/>
		<path fill="#FF690F" d="M69.1,70.4c-3.6-3.1-7.3-6-11.4-8.2c-1.2-0.7-2.5-1.2-3.7-1.9c-0.4-0.3-1-1.1-0.8-1.4
			c0.3-0.7,1-0.9,1.8-0.6c0.3,0.1,0.6,0.2,0.9,0.4C59.8,60.9,66.4,66.6,69.1,70.4z"/>
		<path fill="#FF690F" d="M1,76.4c-1.1-1.2-1.4-4.5-0.5-5.8C0.7,70.4,0.9,70.2,1,70c1.1-1.2,2.2-2.3,3.4-3.7
			c0.3,3.1,2.7,2.4,4.5,2.8c-0.5,1.1-1.3,1.5-2.2,1.6c-0.6,0.1-1.2,0-1.8,0c-1.9,0-2.9,0.7-3.4,2.5C1.4,74.2,1.2,75.2,1,76.4z"/>
		<path fill="#FF690F" d="M82.5,53.5c-3.5-1.1-6.9-2.3-10.5-3.1c-3.1-0.7-6.3-0.8-9.5-1.2c-0.3,0-0.6-0.3-1-0.4c0.3-0.4,0.5-1,0.8-1
			c0.7-0.2,1.6-0.2,2.3-0.1c5.1,0.7,10.1,2,14.8,4.1C80.5,52.3,81.5,52.9,82.5,53.5C82.5,53.4,82.5,53.4,82.5,53.5z"/>
		<path fill="#FF690F" d="M11.1,62.4c-0.1,1-0.3,1.9-0.3,2.7c-0.1,1.6-0.9,2.7-2.3,2.7s-2.1-0.7-2.4-2.4C6,65,5.6,64.6,5.4,64
			c1-2.3,1.9-3,5.2-4c-0.7,0.6-1.4,1.1-2,1.8c-0.2,0.3-0.1,0.9,0,1.3c0,0.1,0.7,0.1,1.1,0C10.2,63,10.6,62.6,11.1,62.4z"/>
		<path fill="#FF690F" d="M47.8,91.4c-2.2-2.8-4.4-5.7-6.6-8.5c-0.6-0.8-1.3-1.4-1.8-2.2c-0.4-0.6-0.8-1.3,0-1.8
			c0.4-0.2,1.2,0,1.7,0.3s0.9,0.8,1.3,1.3C44.7,83.7,46.4,87.5,47.8,91.4z"/>
		<path fill="#FF690F" d="M57,83.9c-0.5-0.6-0.8-1-1.2-1.3c-2.9-2.8-5.8-5.5-8.7-8.2c-0.6-0.5-1.2-1-1.6-1.6
			c-0.3-0.5-0.3-1.1-0.4-1.7c0.6,0.1,1.2,0.1,1.8,0.2c0.1,0,0.3,0.2,0.4,0.3C49.6,73.3,55.6,80.8,57,83.9z"/>
		<path fill="#FF690F" d="M38.4,47.7c4.6,0.2,9.2,0.3,14.1,0.5c-1.1,1.2-2,2.1-2.9,2.9c-0.2,0.2-0.7,0.2-1,0.1
			C45.3,50.1,41.9,48.9,38.4,47.7z"/>
		<path fill="#FF690F" d="M64,44.9c0.7-0.2,1.4-0.6,2.2-0.6c6.1-0.4,11.9,1,17.7,3c-6.5-1.6-13.1-1.5-19.7-1.6
			C64.1,45.4,64.1,45.2,64,44.9z"/>
		<path fill="#FF690F" d="M53.1,88.4c-2.2-2.6-4.3-5.2-6.5-7.7c-1.2-1.3-2.6-2.4-3.8-3.6c-0.9-0.9-0.9-1.4,0.1-2.3
			C47.1,78.7,50.7,83.1,53.1,88.4z"/>
		<path fill="#FF690F" d="M34.4,126.6c-0.8-0.1-1.4-0.2-2-0.3c-1.4-0.3-1.8-0.8-2-2.6c-0.3-2.7-0.6-5.5-0.9-8.4
			C31.2,119.1,32.7,122.8,34.4,126.6z"/>
		<path fill="#FF690F" d="M347.5,125.4c0,1.4-0.9,2.4-2.3,2.4s-2.6-1.1-2.5-2.4c0-1.3,1.2-2.4,2.5-2.4
			C346.4,123,347.5,124,347.5,125.4z"/>
		<path fill="#FF690F" d="M90.7,37.7c-5.9,0.7-11.7,1.4-17.6,2c0-0.1,0-0.3,0-0.4C78.8,37.1,84.7,36.8,90.7,37.7z"/>
		<path fill="#FF690F" d="M379.5,127.8c-1.4,0-2.4-0.9-2.4-2.4c0-1.4,1-2.5,2.3-2.5s2.5,1.2,2.5,2.5
			C382,126.7,380.8,127.8,379.5,127.8z"/>
		<path fill="#FF690F" d="M67.8,42.1c0.6-0.3,1.2-0.7,1.9-0.8c6.4-0.2,12.8,0.3,19.1,1.6c0.1,0,0.1,0.1,0.5,0.3
			C82,42.4,75,41.8,68,42.8C67.9,42.6,67.9,42.4,67.8,42.1z"/>
		<path fill="#FF690F" d="M47.3,53.2c-0.1,0.3,0,0.4-0.1,0.4c-2,2.7-2,2.7-4.8,1c-0.8-0.5-1.7-0.8-2.4-1.3c-0.2-0.1-0.4-0.6-0.4-0.8
			c0-0.1,0.5-0.4,0.7-0.4C42.6,52.4,44.9,52.8,47.3,53.2z"/>
		<path fill="#FF690F" d="M48.3,66.1c3.2,3.5,6.4,6.9,9.8,10.6c-3.5-2.8-6.8-5.5-10-8.1C47,67.6,47.1,67.1,48.3,66.1z"/>
		<path fill="#FF690F" d="M32.9,68.5c-0.6,0.5-1.2,1.2-1.9,1.6c-1.3,0.7-2.6,0.1-2.9-1.4c-0.2-0.8-0.3-1.6-0.5-2.8
			c1.9,0.8,3.5,1.4,5.1,2.1C32.9,68.2,32.9,68.3,32.9,68.5z"/>
		<path fill="#FF690F" d="M28.1,122.2c-1.9-2-0.3-3.9,0-5.7C28.1,118.3,28.1,120.1,28.1,122.2z"/>
		<path fill="#FF690F" d="M49.9,87.9c-0.6-0.8-1.3-1.6-1.9-2.3c-0.1-0.2-0.2-0.4-0.3-0.7c0.1-0.1,0.2-0.1,0.3-0.2c1,1.3,2,2.5,3,3.8
			c-0.1,0.1-0.1,0.1-0.2,0.2C50.5,88.4,50.2,88.2,49.9,87.9z"/>
		<path fill="#FF690F" d="M427.9,62.9c-1.5,0-2.2-0.6-2.2-1.6c0-1.5,1.5-3.1,2.7-3.1s2.5,1.3,2.5,2.5
			C430.9,61.9,429.4,63,427.9,62.9z"/>
		<path fill="#FF690F" d="M431,62.9c0.1-0.6,0.2-0.8,0.2-1.1c0.1-1,0.3-2,1.4-2.2c1.1-0.3,2.1,0.2,2.9,1.1c0.8,0.9,0.5,2-0.7,2.2
			C433.6,63,432.4,62.9,431,62.9z"/>
	</g>
</g>
</svg>
