<?xml version="1.0" encoding="utf-8"?>
<!-- Generator: Adobe Illustrator 22.1.0, SVG Export Plug-In . SVG Version: 6.00 Build 0)  -->
<svg version="1.1" id="Layer_1" xmlns="http://www.w3.org/2000/svg" xmlns:xlink="http://www.w3.org/1999/xlink" x="0px" y="0px"
	 width="114.359px" height="43.56px" viewBox="0 0 114.359 43.56" enable-background="new 0 0 114.359 43.56" xml:space="preserve">
<path fill="#525350" d="M107.4,14.88L107.4,14.88c0.6-1.92,3.24-3.48,4.8-3.48c1.319,0,2.159,0.72,2.159,2.04v1.92
	c0,1.2-1.199,1.92-2.52,1.92c-2.88,0-4.32,2.52-4.32,5.52v5.28c0,1.319-0.6,2.04-1.799,2.04h-2.281c-1.199,0-1.92-0.721-1.92-2.04
	V13.56c0-1.32,0.721-2.04,1.92-2.04h2.041c1.199,0,1.92,0.72,1.92,2.04V14.88"/>
<path fill="#525350" d="M67.32,14.88L67.32,14.88c0.6-1.92,3.24-3.479,4.92-3.479c1.199,0,2.039,0.72,2.039,2.04v1.92
	c0,1.2-1.079,1.92-2.399,1.92c-2.88,0-4.319,2.52-4.319,5.52v5.28c0,1.32-0.601,2.04-1.92,2.04H63.36
	c-1.199,0-1.799-0.72-1.799-2.04v-14.52c0-1.32,0.6-2.04,1.799-2.04h2.04c1.319,0,1.92,0.72,1.92,2.04V14.88"/>
<path fill="#F69E25" d="M96.48,9.48L96.48,9.48c-2.641,0-4.681-2.16-4.681-4.68c0-2.64,2.04-4.8,4.681-4.8
	c2.52,0,4.56,2.16,4.56,4.8C101.04,7.32,99,9.48,96.48,9.48"/>
<path fill="#525350" d="M17.16,9.48L17.16,9.48c-2.52,0-4.68-2.16-4.68-4.68c0-2.64,2.16-4.8,4.68-4.8c2.64,0,4.68,2.16,4.68,4.8
	C21.84,7.32,19.68,9.48,17.16,9.48"/>
<path fill="#525350" d="M84.48,18.6h0.6v-0.24c0-1.56-1.32-2.04-2.641-2.04c-1.199,0-2.52,0.36-3.479,0.72
	c-1.2,0.6-2.04,0.36-2.64-0.84l-0.48-0.84c-0.6-1.08-0.359-2.04,0.84-2.64c1.44-0.6,3.6-1.44,6.36-1.44
	c5.16,0,8.399,2.88,8.399,7.44v9.36c0,1.32-0.72,2.04-2.039,2.04h-1.8c-1.32,0-1.92-0.72-1.92-2.04v-0.12c0-0.24,0-0.48,0-0.48
	l-0.119,0.121c0,0-1.801,2.879-5.521,2.879c-3.601,0-6.24-2.399-6.24-5.52C73.8,20.04,79.92,18.6,84.48,18.6 M81.48,26.16
	L81.48,26.16c2.039,0,3.6-2.04,3.6-3.72v-0.48h-0.6c-2.28,0-5.16,0.6-5.16,2.52C79.32,25.441,80.16,26.16,81.48,26.16z"/>
<path fill="#525350" d="M2.52,16.8h-0.6C0.72,16.8,0,16.2,0,14.88v-0.84C0,12.72,0.72,12,1.92,12h0.72V8.64
	c0-1.32,0.72-1.92,1.92-1.92H6.6c1.32,0,2.04,0.6,2.04,1.92V12h1.8c1.2,0,1.92,0.72,1.92,2.04v0.84c0,1.32-0.72,1.92-1.92,1.92h-1.8
	v5.64c0,1.56,0.96,2.161,2.04,2.4c1.44,0.12,1.92,0.601,1.92,1.921v1.68c0,1.439-0.96,1.92-2.52,1.92c-2.64,0-7.56-1.32-7.56-6.721
	V16.8"/>
<path fill="#525350" d="M14.16,13.56L14.16,13.56c0-1.32,0.6-2.04,1.92-2.04h2.16c1.32,0,2.04,0.72,2.04,2.04v14.52
	c0,1.32-0.72,2.04-2.04,2.04h-2.16c-1.32,0-1.92-0.72-1.92-2.04L14.16,13.56"/>
<path fill="#525350" d="M93.48,13.56L93.48,13.56c0-1.32,0.6-2.04,1.799-2.04h2.281c1.199,0,1.92,0.72,1.92,2.04v14.52
	c0,1.32-0.721,2.04-1.92,2.04h-2.281c-1.199,0-1.799-0.72-1.799-2.04V13.56"/>
<path fill="#525350" d="M51.72,11.28L51.72,11.28c5.52,0,8.4,3.84,8.4,8.76c0,1.08-0.841,2.16-2.04,2.16H48.6
	c0.48,2.16,2.28,3.24,4.2,3.24c1.2,0,2.4-0.48,3.36-0.84c1.08-0.601,1.92-0.48,2.52,0.72l0.6,0.96c0.48,1.08,0.361,2.04-0.719,2.64
	c-1.321,0.841-3.48,1.681-6.241,1.681c-6.48,0-9.96-4.681-9.96-9.721C42.36,15.48,45.96,11.28,51.72,11.28 M54.36,18.6L54.36,18.6
	c0-1.56-0.96-2.88-2.64-2.88c-1.8,0-2.64,1.32-3,2.88C48.72,18.6,54.36,18.6,54.36,18.6z"/>
<path fill="#525350" d="M34.8,28.32v0.12c0,0.72,0,1.92,0,2.88c0.48-0.479,1.2-0.72,2.04-0.72H39c0.84,0,1.56,0.24,1.92,0.72v-18
	c0-1.32-0.72-2.04-1.92-2.04h-2.28c-1.08,0-1.8,0.6-1.92,1.68v0.12c0,0-1.08-1.8-4.8-1.8c-4.8,0-8.28,3.84-8.28,9.6
	s3.24,9.721,8.16,9.721C32.76,30.601,34.2,29.04,34.8,28.32 M31.32,25.441L31.32,25.441c-2.16,0-3.72-1.68-3.72-4.561
	c0-2.76,1.8-4.44,3.72-4.44c2.4,0,3.72,2.28,3.72,4.44C35.04,24.12,33.12,25.441,31.32,25.441z"/>
<path fill="#F69E25" d="M40.92,35.04v-0.72c0-1.32-0.72-2.04-1.92-2.04h-2.16c-0.6,0-1.08,0.24-1.44,0.6
	c-0.24,0.36-0.36,0.721-0.36,1.44c0,1.2-0.6,2.04-1.08,2.52c-0.48,0.48-1.2,0.72-2.28,0.72c-1.2,0-1.92-0.239-2.4-0.72
	c-0.36-0.479-1.08-1.079-0.96-2.52c0-0.72-0.24-1.08-0.48-1.32c-0.24-0.479-0.84-0.72-1.44-0.72h-2.16c-1.32,0-1.92,0.72-1.92,2.04
	v0.84c0,0,0,0,0.12,0.84c0.24,3.96,4.56,7.44,9.24,7.56c4.56-0.119,8.88-3.6,9.24-7.56C40.92,36,40.92,35.521,40.92,35.04"/>
</svg>
