<?xml version="1.0" encoding="UTF-8" standalone="no"?>
<!-- Created with Inkscape (http://www.inkscape.org/) -->

<svg
   xmlns:dc="http://purl.org/dc/elements/1.1/"
   xmlns:cc="http://creativecommons.org/ns#"
   xmlns:rdf="http://www.w3.org/1999/02/22-rdf-syntax-ns#"
   xmlns:svg="http://www.w3.org/2000/svg"
   xmlns="http://www.w3.org/2000/svg"
   xmlns:sodipodi="http://sodipodi.sourceforge.net/DTD/sodipodi-0.dtd"
   xmlns:inkscape="http://www.inkscape.org/namespaces/inkscape"
   width="302"
   height="102"
   viewBox="0 0 302 102"
   id="svg6669"
   version="1.1"
   inkscape:version="0.91 r13725"
   sodipodi:docname="air india express.svg">
  <defs
     id="defs6671" />
  <sodipodi:namedview
     id="base"
     pagecolor="#ffffff"
     bordercolor="#666666"
     borderopacity="1.0"
     inkscape:pageopacity="0.0"
     inkscape:pageshadow="2"
     inkscape:zoom="4.2662109"
     inkscape:cx="62.283244"
     inkscape:cy="54.606954"
     inkscape:document-units="px"
     inkscape:current-layer="layer1"
     showgrid="false"
     units="px"
     inkscape:window-width="1280"
     inkscape:window-height="744"
     inkscape:window-x="-4"
     inkscape:window-y="-4"
     inkscape:window-maximized="1" />
  <metadata
     id="metadata6674">
    <rdf:RDF>
      <cc:Work
         rdf:about="">
        <dc:format>image/svg+xml</dc:format>
        <dc:type
           rdf:resource="http://purl.org/dc/dcmitype/StillImage" />
        <dc:title></dc:title>
      </cc:Work>
    </rdf:RDF>
  </metadata>
  <g
     inkscape:label="Layer 1"
     inkscape:groupmode="layer"
     id="layer1"
     transform="translate(0,-950.36216)">
    <path
       inkscape:connector-curvature="0"
       style="fill:#e41b47;fill-opacity:1"
       d="m 52.960455,1051.1344 c -13.935515,-0.5504 -24.768743,-2.4932 -33.882076,-6.0762 -2.038604,-0.8015 -6.050475,-2.8058 -7.796524,-3.8952 -4.1016225,-2.5589 -7.6318216,-5.9621 -9.290677,-8.9564 l -0.3696646,-0.6673 0.5758138,0.6673 c 4.4478703,5.1543 9.8583548,8.3526 18.6009758,10.9957 11.666607,3.527 30.014685,4.9709 47.575964,3.744 9.294845,-0.6494 28.217665,-2.9865 42.171123,-5.2085 21.9355,-3.493 47.44174,-9.1199 66.19265,-14.6025 0.84409,-0.2469 2.70576,-0.7875 4.13704,-1.2015 8.35284,-2.4159 20.09384,-6.2362 29.11557,-9.4736 l 2.89208,-1.0378 1.13491,1.1926 c 0.6242,0.6559 1.49972,1.4582 1.9456,1.7829 0.44587,0.3247 0.81067,0.6251 0.81067,0.6674 0,0.08 -4.27137,1.7375 -7.80699,3.0304 -8.68999,3.178 -21.71884,7.4804 -28.55893,9.4307 -0.88079,0.2511 -2.35211,0.6761 -3.26959,0.9444 -8.79658,2.5724 -22.2076,5.9147 -32.89615,8.1984 -27.01834,5.7727 -55.320521,9.5603 -77.869776,10.421 -3.036277,0.1158 -10.938643,0.1419 -13.412019,0.044 z"
       id="path6791" />
    <path
       style="fill:#e41b47;fill-opacity:1"
       d="M 111.01172 25.306641 C 107.0765 25.306271 104.52886 26.157762 101.34375 28.539062 C 100.21865 29.380212 99.437302 30.111756 98.5 31.197266 L 97.867188 31.927734 L 97.867188 29.027344 L 97.867188 26.126953 L 93.998047 26.126953 L 90.126953 26.126953 L 90.126953 56.689453 L 90.126953 87.25 L 94.130859 87.25 L 98.134766 87.25 L 98.134766 76.744141 C 98.134766 66.934041 98.149715 66.260259 98.355469 66.568359 C 99.229648 67.877359 101.86969 69.766675 103.74023 70.421875 C 104.8645 70.815775 107.53922 71.3435 109.19922 71.5 C 112.759 71.8357 116.99931 70.990697 120.02148 69.341797 C 126.43071 65.844697 130.24822 60.220394 131.45898 52.496094 C 131.79014 50.383294 131.78546 45.565309 131.44922 43.542969 C 130.82934 39.814639 129.71331 36.64476 128.25586 34.46875 C 126.65669 32.08115 123.71202 29.289121 121.42188 27.988281 C 118.19598 26.155901 114.90071 25.307041 111.01172 25.306641 z M 111.05469 33.294922 C 111.94982 33.253893 112.82352 33.314498 113.66797 33.470703 C 114.51242 33.626909 115.32634 33.879054 116.10156 34.21875 C 116.87678 34.558446 117.61334 34.986651 118.30078 35.496094 C 118.98823 36.005537 119.62786 36.596273 120.20898 37.261719 C 120.79011 37.927164 121.31327 38.666905 121.76953 39.474609 C 122.22579 40.282314 122.61489 41.15753 122.92773 42.09375 C 123.24058 43.02997 123.47607 44.027134 123.62695 45.078125 C 123.81234 46.370305 123.81219 49.360863 123.62695 50.851562 C 123.42771 52.454937 123.04215 53.952169 122.49219 55.316406 C 121.94223 56.680644 121.22826 57.910216 120.37305 58.978516 C 119.51784 60.046816 118.52124 60.954359 117.40625 61.669922 C 116.29126 62.385484 115.05781 62.910772 113.72852 63.216797 C 112.8866 63.410622 112.03937 63.516822 111.19531 63.539062 C 110.35125 63.561303 109.51048 63.498753 108.6875 63.353516 C 107.86452 63.208278 107.05796 62.980484 106.2793 62.671875 C 105.50063 62.363266 104.7502 61.973734 104.03906 61.505859 C 103.12625 60.905284 102.31642 60.18734 101.61133 59.357422 C 100.90623 58.527504 100.30667 57.585356 99.814453 56.537109 C 99.32224 55.488863 98.936269 54.333685 98.662109 53.078125 C 98.38795 51.822565 98.224765 50.467485 98.173828 49.015625 C 98.11889 47.44968 98.195679 46.094603 98.427734 44.818359 C 98.65979 43.542116 99.048133 42.34456 99.615234 41.09375 C 100.00243 40.23974 100.50941 39.415067 101.11133 38.642578 C 101.71325 37.870089 102.41016 37.148401 103.17188 36.503906 C 103.93359 35.859411 104.76037 35.292294 105.62695 34.822266 C 106.49354 34.352237 107.39987 33.979559 108.31641 33.730469 C 109.24367 33.478461 110.15956 33.335951 111.05469 33.294922 z "
       id="path6789"
       transform="translate(0,950.36216)" />
    <path
       inkscape:connector-curvature="0"
       style="fill:#e41b47;fill-opacity:1"
       d="m 42.921619,1021.4237 c 0.106228,-0.1621 0.576783,-0.8478 1.045674,-1.5238 0.468896,-0.676 1.669563,-2.4174 2.668156,-3.8697 4.586443,-6.6702 8.581001,-12.4598 10.182093,-14.7577 0.961364,-1.37969 1.86682,-2.71272 2.012128,-2.96226 l 0.264192,-0.45372 -0.409736,-0.57421 c -1.871989,-2.62346 -10.858313,-15.34412 -12.755782,-18.05655 -0.205384,-0.29359 -0.672709,-0.95418 -1.038495,-1.46798 l -0.665071,-0.93417 4.761716,-0.0351 c 3.700164,-0.0273 4.796658,0.003 4.918465,0.13346 0.250598,0.26943 7.466998,10.67485 8.698755,12.54284 0.653884,0.99164 1.079212,1.76361 1.022361,1.8556 -0.05544,0.0897 -0.0403,0.12224 0.03519,0.0756 0.0729,-0.0451 0.267947,0.15899 0.433433,0.45343 0.165486,0.29445 0.350336,0.51721 0.410777,0.49503 0.130614,-0.0479 2.150687,-2.83624 3.751561,-5.17828 3.035765,-4.44123 4.341322,-6.2742 4.415824,-6.19969 0.03345,0.0335 0.06086,-0.0166 0.06086,-0.11129 0,-0.0947 0.619875,-1.05554 1.37751,-2.13524 l 1.377505,-1.9631 4.657992,0 c 3.691722,0 4.636871,0.0346 4.556181,0.16681 -0.05599,0.0918 -2.867054,4.15628 -6.246798,9.0323 -7.16164,10.33221 -8.213512,11.86499 -8.213512,11.96867 0,0.0421 0.921649,1.43715 2.048111,3.09995 1.126468,1.6629 3.387783,5.0052 5.025152,7.4273 1.637374,2.4222 3.721224,5.5 4.630777,6.8395 0.909557,1.3395 1.609424,2.4355 1.55526,2.4355 -0.05416,0 -0.0052,0.075 0.108653,0.1668 0.168751,0.1359 2.222507,3.0728 2.563613,3.666 0.07294,0.1269 -0.935607,0.1631 -4.561412,0.1637 l -4.65506,9e-4 -4.749341,-7.1163 c -2.612136,-3.914 -5.283659,-7.801 -5.936724,-8.6379 -0.653061,-0.8369 -1.296246,-1.689 -1.429299,-1.8936 -0.133048,-0.2045 -0.291621,-0.3547 -0.352382,-0.3336 -0.06076,0.021 -0.700811,0.9091 -1.422328,1.9734 -2.08486,3.0753 -3.572771,5.2449 -5.170879,7.5401 -0.817719,1.1743 -1.816547,2.6156 -2.21962,3.2028 -0.403068,0.5872 -1.382528,2.0146 -2.176572,3.172 l -1.443721,2.1044 -4.66418,-0.01 -4.664179,-0.01 0.193142,-0.2948 z"
       id="path6785" />
    <path
       inkscape:connector-curvature="0"
       style="fill:#e41b47;fill-opacity:1"
       d="m 225.51508,1021.4485 c -2.71861,-0.3243 -5.73753,-1.1439 -7.50044,-2.0364 l -0.56089,-0.2839 4.55175,-1.7226 4.55173,-1.7226 1.83599,0.167 c 4.42187,0.4022 7.86381,-0.6147 10.36263,-3.0615 0.73532,-0.7201 1.3318,-1.7687 1.45938,-2.5658 0.0439,-0.2738 0.14728,-0.5528 0.22987,-0.6199 0.0826,-0.067 1.63783,-0.7583 3.45607,-1.536 1.81825,-0.7777 3.54248,-1.5347 3.8316,-1.6822 l 0.5257,-0.2682 0.15373,0.5672 c 0.19789,0.7303 0.0857,2.981 -0.20045,4.0219 -0.65292,2.3751 -1.68352,4.1893 -3.23565,5.6961 -2.71533,2.6361 -5.56732,4.0149 -10.11695,4.8911 -1.28405,0.2473 -7.68237,0.354 -9.34407,0.1558 z"
       id="path6783" />
    <path
       inkscape:connector-curvature="0"
       style="fill:#e41b47;fill-opacity:1"
       d="m 269.82145,1021.5099 c -2.81463,-0.3013 -5.37678,-0.93 -7.40071,-1.8158 -3.62029,-1.5845 -7.34473,-6.5866 -8.39027,-11.2684 -0.14979,-0.6707 -0.58187,-0.5366 3.78021,-1.1728 1.76158,-0.2568 3.3314,-0.497 3.4885,-0.5337 0.2423,-0.057 0.29975,0.01 0.37866,0.4327 0.20289,1.0891 1.33431,3.6922 2.07353,4.7707 0.77228,1.1268 4.21041,2.8631 7.14165,3.6067 1.67622,0.4252 3.03301,0.5242 4.65737,0.3398 2.63777,-0.2995 4.69898,-1.0358 6.1019,-2.1797 0.41484,-0.3383 0.79518,-0.5741 0.8452,-0.5241 0.05,0.05 0.0709,0.03 0.0465,-0.045 -0.0245,-0.075 0.1791,-0.4095 0.45236,-0.7433 0.58899,-0.7197 1.14266,-1.8773 1.28197,-2.6805 0.12088,-0.6969 -0.35637,-2.682 -0.84459,-3.5129 -0.56307,-0.9583 -1.43255,-1.7049 -2.44274,-2.0976 -1.59099,-0.6185 -5.563,-1.7943 -8.64246,-2.5586 -4.37267,-1.0851 -8.9782,-2.44017 -9.29755,-2.73557 -0.11556,-0.10689 5.20374,-3.15953 5.45889,-3.13276 0.0959,0.0101 0.15055,-0.0203 0.1214,-0.0674 -0.0291,-0.0472 0.70717,-0.50648 1.63624,-1.02073 l 1.68922,-0.93498 0.734,0.24278 c 0.40369,0.13353 1.63479,0.45136 2.73578,0.70629 4.89053,1.13241 7.16221,1.85371 9.99911,3.17488 2.26062,1.05281 2.98878,1.54119 4.15636,2.78773 1.92798,2.0584 2.82966,4.6677 2.68546,7.7712 -0.0886,1.9069 -0.43635,3.1603 -1.4626,5.2714 -0.60417,1.2429 -0.82545,1.5449 -1.95764,2.6723 -1.41027,1.4044 -1.96293,1.8277 -3.55414,2.7226 -1.89698,1.0669 -4.01399,1.801 -6.59695,2.2877 -1.10618,0.2084 -7.53819,0.3805 -8.87462,0.2374 z"
       id="path6781" />
    <path
       style="fill:#e41b47;fill-opacity:1"
       d="M 24.386719 25.064453 C 22.314159 24.917303 19.655357 25.048021 17.658203 25.394531 C 11.577727 26.449511 6.3372917 30.376 3.5839844 35.9375 C 1.89403 39.35109 1.1785053 42.499911 1.0234375 47.212891 C 0.85469513 52.341451 1.6014 56.413359 3.3945312 60.130859 C 3.8172166 61.007159 4.1112163 61.471109 4.2070312 61.412109 C 4.2987492 61.355109 4.3218489 61.378656 4.2636719 61.472656 C 4.1212109 61.703156 5.4287838 63.518134 6.7089844 64.865234 C 9.7429343 68.057834 13.92706 70.094766 18.810547 70.759766 L 18.810547 70.761719 C 20.419504 70.981119 24.342197 71.017831 26.222656 70.832031 C 29.381626 70.519931 32.15034 69.754969 34.509766 68.542969 C 37.620491 66.945069 40.3265 63.988003 42.066406 60.283203 C 42.681295 58.974003 43.470522 56.951531 43.388672 56.894531 C 43.36824 56.880231 41.759529 56.702753 39.814453 56.501953 C 37.869376 56.301053 36.097141 56.107313 35.875 56.070312 C 35.486189 56.006012 35.454696 56.037694 35.056641 56.933594 C 34.039628 59.222494 32.24787 61.704584 30.839844 62.771484 C 29.732091 63.610984 28.327431 64.24915 26.830078 64.59375 C 25.121783 64.98665 21.048603 65.018391 19.478516 64.650391 C 17.452959 64.175591 15.982796 63.441331 14.205078 62.019531 C 13.14246 61.169631 12.487751 60.381869 11.632812 58.917969 C 10.488743 56.959069 9.5260463 53.676094 9.3085938 50.996094 L 9.21875 49.882812 L 26.017578 49.865234 C 35.257606 49.855234 42.955577 49.833406 43.123047 49.816406 C 43.290522 49.798906 43.470717 49.742453 43.523438 49.689453 C 43.721562 49.490033 43.600352 44.120067 43.367188 42.748047 C 42.486088 37.563327 40.662765 33.754482 37.615234 30.732422 C 34.131864 27.278172 29.875977 25.454163 24.386719 25.064453 z M 23.306641 30.984375 C 24.891192 31.08003 26.229757 31.325161 27.457031 31.767578 C 28.684306 32.209996 29.801075 32.84915 30.9375 33.734375 C 31.711402 34.337205 32.349033 34.997447 32.902344 35.785156 C 33.455655 36.572865 33.924961 37.488104 34.359375 38.605469 C 34.807625 39.758419 35.352256 42.047011 35.447266 43.175781 L 35.505859 43.876953 L 22.496094 43.876953 L 9.4863281 43.876953 L 9.5800781 43.042969 C 9.7141505 41.830129 9.97872 40.670803 10.365234 39.583984 C 10.751749 38.497166 11.258899 37.48307 11.875 36.556641 C 12.491101 35.630211 13.216231 34.792219 14.039062 34.060547 C 14.861894 33.328875 15.782356 32.703719 16.789062 32.201172 C 17.763424 31.714772 18.777893 31.373046 19.855469 31.171875 C 20.933045 30.970704 22.074132 30.90997 23.306641 30.984375 z "
       id="path6779"
       transform="translate(0,950.36216)" />
    <path
       inkscape:connector-curvature="0"
       style="fill:#e41b47;fill-opacity:1"
       d="m 136.83561,999.17698 0,-22.15319 3.93686,0 3.93687,0 0,2.60233 c 0,1.43129 0.0338,2.60233 0.0751,2.60233 0.0413,0 0.56306,-0.51548 1.15945,-1.14551 1.24454,-1.31478 2.28709,-2.09901 3.78459,-2.84688 3.43397,-1.71495 7.71347,-1.58865 11.56243,0.34124 0.76813,0.38515 0.88133,0.48586 0.76831,0.68354 -0.0729,0.1275 -0.34413,0.95248 -0.60272,1.83326 -1.08515,3.69612 -1.17402,3.94976 -1.35903,3.87876 -0.771,-0.29586 -3.13573,-0.90126 -3.99438,-1.0226 -3.04843,-0.4308 -5.67546,0.55067 -8.02522,2.99823 -1.74678,1.81949 -2.58567,3.62901 -3.04732,6.57322 -0.1999,1.27494 -0.23453,3.05449 -0.28462,14.62999 l -0.057,13.1785 -3.92665,0 -3.92666,0 0,-22.15322 z"
       id="path6775" />
    <path
       style="fill:#e41b47;fill-opacity:1"
       d="M 181.41016 25.068359 C 175.89907 25.456519 171.98435 27.117574 168.33789 30.615234 C 164.17093 34.612164 162.16048 39.714268 161.84961 47.080078 C 161.64401 51.951488 162.51941 56.686534 164.26953 60.177734 C 167.25106 66.125634 172.61997 69.798166 179.74023 70.759766 L 179.74023 70.757812 C 182.34897 71.110113 186.71872 70.988928 189.54883 70.486328 C 192.05307 70.041528 195.24532 68.804256 197.00195 67.597656 C 197.95033 66.946256 199.89817 65.013634 200.76367 63.865234 C 201.8444 62.431234 202.90708 60.495463 203.62109 58.664062 C 203.95515 57.807262 204.22852 57.054234 204.22852 56.990234 C 204.22852 56.926234 202.62359 56.707106 200.66016 56.503906 C 198.69674 56.300806 196.93014 56.104359 196.73633 56.068359 C 196.40356 56.006359 196.33484 56.097972 195.49805 57.701172 C 193.80401 60.946672 192.26605 62.676347 190.17383 63.685547 C 188.2629 64.607447 186.44494 64.958984 183.59766 64.958984 C 180.35598 64.958984 177.89678 64.162603 175.33594 62.283203 C 173.13848 60.670503 171.4369 57.651613 170.60156 53.882812 C 170.33538 52.682012 169.99515 50.038453 170.09375 49.939453 C 170.1259 49.907453 177.82192 49.878906 187.19531 49.878906 L 204.23828 49.878906 L 204.38086 49.513672 C 204.59033 48.983982 204.53947 45.423219 204.29492 43.542969 C 203.7758 39.551609 202.62191 36.286549 200.71484 33.412109 C 199.68683 31.862609 197.33762 29.508277 195.80664 28.492188 C 191.87015 25.879588 186.84853 24.685319 181.41016 25.068359 z M 183.20898 30.994141 C 184.41134 30.983801 185.63212 31.066514 186.47852 31.246094 C 187.64509 31.493604 188.74422 31.884689 189.75781 32.410156 C 190.77141 32.935624 191.69911 33.596249 192.52344 34.380859 C 193.48459 35.295709 193.90438 35.887624 194.67969 37.427734 C 195.09218 38.247124 195.42509 39.114879 195.68945 40.0625 C 195.95382 41.010121 196.14945 42.037146 196.2832 43.175781 L 196.36523 43.876953 L 183.33984 43.876953 L 170.3125 43.876953 L 170.40039 43.109375 C 170.56993 41.626362 170.9299 40.228343 171.45703 38.945312 C 171.98416 37.662282 172.67946 36.494316 173.51562 35.470703 C 174.35179 34.447091 175.32913 33.568039 176.42578 32.863281 C 177.52244 32.158523 178.73828 31.629202 180.04688 31.302734 C 180.82263 31.109214 182.00663 31.004481 183.20898 30.994141 z "
       id="path6773"
       transform="translate(0,950.36216)" />
    <path
       inkscape:connector-curvature="0"
       style="fill:#e41b47;fill-opacity:1"
       d="m 212.67854,1014.0236 c -1.11921,-1.8213 -2.14406,-4.2413 -2.37145,-5.5997 -0.0862,-0.5153 -0.0682,-0.5678 0.21706,-0.6318 0.26098,-0.058 6.181,-0.9446 6.97089,-1.0433 0.21506,-0.027 0.29974,0.1526 0.55186,1.1693 0.31723,1.2794 0.80892,2.499 1.26657,3.1417 0.15391,0.2162 0.23673,0.4628 0.18405,0.548 -0.0571,0.092 -0.0377,0.1191 0.0481,0.066 0.12926,-0.08 0.79466,0.6744 0.67929,0.77 -0.0736,0.061 -6.81185,2.4805 -6.90815,2.4805 -0.0466,0 -0.33374,-0.4053 -0.6382,-0.9008 z"
       id="path6769" />
    <path
       inkscape:connector-curvature="0"
       style="fill:#e41b47;fill-opacity:1"
       d="m 238.50094,1004.8032 c -0.0959,-0.1352 -0.29449,-0.3081 -0.44128,-0.3843 -0.99223,-0.5148 -6.98644,-2.3565 -8.8079,-2.7061 -1.69251,-0.3249 -6.21027,-1.4807 -7.74027,-1.98024 -3.3382,-1.08997 -5.34479,-2.20073 -6.97722,-3.86232 -0.79991,-0.81418 -1.10039,-1.25258 -1.69828,-2.47783 -0.79907,-1.63748 -1.08491,-2.66715 -1.21242,-4.3674 -0.20756,-2.7677 1.10823,-6.48635 3.04488,-8.60535 0.75156,-0.82232 2.30121,-1.88764 3.95644,-2.71987 2.06236,-1.03693 5.27541,-1.81585 8.23863,-1.99722 1.63562,-0.10011 4.6804,-0.003 5.99147,0.19054 1.32516,0.19591 3.42789,0.65336 4.40395,0.95808 1.42777,0.44575 3.41827,1.37452 3.31253,1.54563 -0.0473,0.0765 -0.0187,0.0957 0.0653,0.0439 0.25321,-0.1565 1.84608,0.95922 2.70024,1.8914 1.00202,1.09353 1.8502,2.44047 2.3937,3.80128 0.50036,1.25281 1.14887,3.66589 1.01988,3.7949 -0.0511,0.051 -1.76544,0.27814 -3.80975,0.50465 l -3.71694,0.41185 -0.16176,-0.73918 c -0.66275,-3.02843 -3.37612,-5.42694 -7.04232,-6.22517 -2.13676,-0.46522 -6.51934,-0.2461 -8.53031,0.42651 -2.06126,0.68943 -3.57485,1.9967 -4.23555,3.65823 -0.34962,0.87924 -0.33933,2.32175 0.0214,3.00269 0.53563,1.011 1.84288,2.29319 2.81116,2.75725 1.32021,0.63272 6.38889,2.1065 11.43163,3.32388 3.51217,0.84788 5.32128,1.42785 7.30298,2.34122 0.85821,0.39555 1.61161,0.71918 1.67424,0.71918 0.20916,0 1.98958,1.12763 2.62818,1.66456 0.57566,0.48397 1.54382,1.65117 1.54382,1.86117 0,0.048 -0.25522,0.1984 -0.56717,0.3345 -4.55617,1.9887 -7.12789,3.0793 -7.26108,3.0793 -0.0901,0 -0.24225,-0.1106 -0.33817,-0.2457 z"
       id="path6767" />
    <path
       inkscape:connector-curvature="0"
       style="fill:#e41b47;fill-opacity:1"
       d="m 257.82787,995.31749 c -0.94713,-1.12235 -1.76655,-2.67942 -2.14764,-4.08096 -0.3112,-1.14448 -0.41056,-3.31625 -0.20894,-4.56674 0.35752,-2.2174 1.56818,-4.7687 2.96067,-6.23918 0.84735,-0.89483 2.18524,-1.84987 2.59142,-1.84987 0.10469,0 0.16026,-0.0301 0.12347,-0.0669 -0.10219,-0.10218 1.70561,-1.06539 2.71084,-1.44437 2.45317,-0.92488 5.29159,-1.3967 8.43264,-1.40173 2.55106,-0.004 4.36524,0.17195 6.58858,0.63932 3.63565,0.76427 6.90886,2.42955 8.49192,4.32034 0.31201,0.37265 0.54467,0.69881 0.51702,0.72478 -0.1694,0.15916 -1.84647,1.08081 -3.9532,2.17253 l -2.43495,1.2618 -0.44306,-0.27383 c -0.24369,-0.1506 -0.55849,-0.40136 -0.69955,-0.55724 -0.65874,-0.7279 -2.79132,-1.68868 -4.59699,-2.07107 -1.47472,-0.3123 -4.87471,-0.31703 -6.62397,-0.009 -1.35737,0.23886 -2.89336,0.75005 -3.74811,1.24741 -0.76783,0.44679 -1.80719,1.61454 -2.26279,2.54232 -0.53961,1.09892 -0.5346,2.34692 0.0134,3.33838 0.21363,0.38649 0.58647,0.93407 0.82851,1.21685 0.24206,0.28277 0.41216,0.55208 0.37802,0.59845 -0.0341,0.0464 -0.0266,0.0589 0.0168,0.0277 0.0434,-0.0311 0.33394,0.13812 0.64573,0.37612 0.31178,0.23799 0.90688,0.5707 1.32241,0.73936 0.41555,0.16865 0.75553,0.34887 0.75553,0.40048 0,0.0516 -0.46542,0.29733 -1.03426,0.54605 -0.56884,0.24872 -2.43251,1.13035 -4.1415,1.95919 -1.70897,0.82883 -3.12587,1.50696 -3.14865,1.50696 -0.0228,0 -0.44281,-0.47564 -0.93338,-1.05697 z"
       id="path6765" />
    <path
       inkscape:connector-curvature="0"
       style="fill:#e41b47;fill-opacity:1"
       d="m 282.82554,988.13066 c -0.0815,-0.39261 -0.12077,-0.78523 -0.0872,-0.8725 0.0335,-0.0873 0.50176,-0.45894 1.04053,-0.82594 0.53879,-0.36699 1.85384,-1.27077 2.92235,-2.00839 1.06851,-0.73762 2.00939,-1.38232 2.09084,-1.43266 0.16173,-0.1 0.79216,1.11992 1.15761,2.23998 0.2888,0.88514 0.64666,2.62392 0.55822,2.71235 -0.0386,0.0386 -1.74961,0.25716 -3.80217,0.48561 l -3.73194,0.41538 -0.14819,-0.71383 z"
       id="path6763" />
    <path
       inkscape:connector-curvature="0"
       style="fill:#e41b47;fill-opacity:1"
       d="m 288.55361,981.9871 -0.35162,-0.63786 0.5518,-0.31167 c 2.32923,-1.31565 7.58438,-4.53745 10.62748,-6.51545 2.73968,-1.78078 2.29299,-1.3903 -3.60323,3.14979 -3.0118,2.31909 -6.63745,4.9596 -6.80363,4.95498 -0.0381,-8.9e-4 -0.22742,-0.28896 -0.4208,-0.63979 z"
       id="path6761" />
    <path
       style="fill:#e41b47;fill-opacity:1"
       d="M 21.574219 1.1777344 L 12.390625 1.1855469 L 10.255859 3.7441406 C 7.9547086 6.5008506 3.8180945 11.413857 2.1542969 13.367188 C 1.5888035 14.031088 1.1578526 14.606984 1.1972656 14.646484 C 1.2366609 14.685944 2.4509443 14.751369 3.8945312 14.792969 C 5.3381182 14.834559 7.546996 14.879078 8.8046875 14.892578 C 11.040913 14.916578 11.097247 14.910827 11.292969 14.617188 C 11.483069 14.331988 11.647899 14.132423 12.400391 13.283203 L 12.726562 12.916016 L 15.193359 12.916016 C 16.550678 12.916016 17.662109 12.947528 17.662109 12.986328 C 17.662109 13.025118 17.481018 13.415206 17.259766 13.853516 L 16.857422 14.650391 L 21.974609 14.650391 L 27.091797 14.650391 L 27.228516 14.083984 C 27.342908 13.609154 30.478357 2.12378 30.689453 1.40625 C 30.754431 1.18539 30.25976 1.1717344 21.574219 1.1777344 z M 21.361328 2.8242188 C 21.388539 2.8514287 21.118506 3.6171606 20.761719 4.5253906 C 20.404933 5.4336106 19.817078 6.9413031 19.455078 7.8769531 L 18.796875 9.578125 L 17.162109 9.5800781 C 16.260043 9.5802681 15.527344 9.5245312 15.527344 9.4570312 C 15.527344 9.3897212 15.577885 9.3155156 15.640625 9.2910156 C 15.859372 9.2057156 19.245456 5.2024469 19.166016 5.1230469 C 19.12198 5.0789469 19.151262 5.0429688 19.232422 5.0429688 C 19.313575 5.0429688 19.814796 4.5316931 20.345703 3.9082031 C 20.876605 3.2847131 21.334108 2.7970188 21.361328 2.8242188 z "
       id="path6759"
       transform="translate(0,950.36216)" />
    <path
       style="fill:#e41b47;fill-opacity:1"
       d="M 186.23047 1.171875 L 184.63086 3.0742188 C 183.75162 4.1201487 182.44725 5.6656756 181.73242 6.5097656 C 181.0176 7.3538556 179.57554 9.0666631 178.52734 10.314453 C 177.47912 11.562233 176.23078 13.040493 175.75195 13.601562 C 174.98801 14.496683 174.91388 14.630606 175.14648 14.691406 C 175.29229 14.729606 176.47173 14.770297 177.76953 14.779297 C 179.06732 14.788797 180.15781 14.823822 180.19141 14.857422 C 180.22502 14.891022 181.27963 14.917969 182.53516 14.917969 L 184.81836 14.917969 L 185.65234 13.916016 L 186.48828 12.916016 L 188.95312 12.916016 C 190.30872 12.916016 191.41797 12.949434 191.41797 12.990234 C 191.41797 13.031054 191.2399 13.421142 191.02344 13.857422 L 190.63086 14.650391 L 195.74609 14.650391 L 200.85938 14.650391 L 201.28516 13.082031 C 201.51892 12.219591 202.0316 10.343389 202.42578 8.9121094 C 203.89106 3.5914694 204.35515 1.8966525 204.43945 1.5390625 L 204.52539 1.171875 L 195.37695 1.171875 L 186.23047 1.171875 z M 195.07812 2.9199219 C 195.11732 2.9591319 194.79895 3.888035 194.37109 4.984375 C 193.94321 6.080725 193.36733 7.5636569 193.0918 8.2792969 L 192.5918 9.5800781 L 191.00391 9.5800781 C 190.13071 9.5800781 189.41602 9.5343156 189.41602 9.4785156 C 189.41602 9.4227156 189.55188 9.2276719 189.71875 9.0449219 C 189.88562 8.8621719 190.38163 8.2870181 190.82031 7.7675781 C 191.25898 7.2481381 192.33796 5.9903262 193.21875 4.9726562 C 194.09954 3.9549863 194.86296 3.0619281 194.91406 2.9863281 C 194.96512 2.9112281 195.03893 2.8807219 195.07812 2.9199219 z "
       id="path6755"
       transform="translate(0,950.36216)" />
    <path
       inkscape:connector-curvature="0"
       style="fill:#e41b47;fill-opacity:1"
       d="m 29.848326,964.91441 c 0.198475,-0.33863 2.003475,-3.60278 2.45455,-4.43878 0.297022,-0.5505 1.003415,-1.84165 1.569762,-2.86924 0.566348,-1.02759 1.544384,-2.81419 2.173415,-3.97022 l 1.143691,-2.10189 5.516566,0 c 3.03411,0 5.516566,0.0235 5.516566,0.0521 0,0.0287 -1.032352,1.93538 -2.294109,4.23713 -1.261762,2.30174 -2.900199,5.29598 -3.64097,6.65386 l -1.34686,2.46888 -5.576068,0.0348 c -3.066837,0.0192 -5.549279,-0.0109 -5.516543,-0.0667 z"
       id="path6751" />
    <path
       style="fill:#e41b47;fill-opacity:1"
       d="M 52.160156 1.1679688 L 48.65625 7.8203125 C 46.729523 11.479322 45.154297 14.5136 45.154297 14.5625 C 45.154297 14.6114 47.63049 14.648484 50.658203 14.646484 L 56.164062 14.642578 L 57.427734 12.511719 C 58.122627 11.339709 58.722619 10.380813 58.761719 10.382812 C 58.800812 10.384532 59.523097 11.344675 60.367188 12.515625 L 61.902344 14.644531 L 67.287109 14.648438 L 72.673828 14.650391 L 71.474609 13.349609 C 70.815049 12.633969 69.996951 11.738595 69.65625 11.359375 L 69.037109 10.669922 L 69.472656 10.585938 C 70.844784 10.322318 71.765009 10.050005 72.140625 9.796875 C 72.703089 9.417835 73.772108 7.7891269 74.798828 5.7480469 C 75.471124 4.4115469 75.643123 3.9412213 75.689453 3.3007812 C 75.760375 2.3202812 75.569958 1.9891875 74.6875 1.5546875 L 74.046875 1.2382812 L 63.103516 1.203125 L 52.160156 1.1679688 z M 61.320312 4.7441406 L 62.611328 4.8359375 C 63.321645 4.8856875 64.008439 4.9552875 64.136719 4.9921875 C 64.333898 5.0488675 64.437917 5.218247 64.466797 5.4472656 C 64.495677 5.6762842 64.449846 5.9658231 64.345703 6.265625 C 64.137418 6.8652287 63.698633 7.5039387 63.169922 7.7773438 C 62.796174 7.9706537 60.972779 8.048305 60.5 7.890625 C 60.389901 7.853865 60.227079 7.8014375 60.136719 7.7734375 C 59.960641 7.7187775 60.060539 7.4379862 60.892578 5.6601562 L 61.320312 4.7441406 z "
       id="path6749"
       transform="translate(0,950.36216)" />
    <path
       inkscape:connector-curvature="0"
       style="fill:#e41b47;fill-opacity:1"
       d="m 87.000074,963.57841 c 0.420123,-0.78904 0.986271,-1.82497 1.258105,-2.30206 0.271835,-0.4771 0.779548,-1.40036 1.128247,-2.05169 1.19318,-2.22871 4.102623,-7.49008 4.198122,-7.59179 0.05246,-0.0559 2.564485,-0.0859 5.582265,-0.0667 l 5.486867,0.0349 -1.80475,3.2696 c -0.99261,1.79828 -2.21176,4.02027 -2.70923,4.93776 -0.497457,0.91749 -1.022247,1.87835 -1.166203,2.13524 -0.143947,0.2569 -0.57701,1.05261 -0.962356,1.76825 l -0.700628,1.30117 -5.537148,0 -5.537149,0 0.763858,-1.43462 z"
       id="path6745" />
    <path
       inkscape:connector-curvature="0"
       style="fill:#e41b47;fill-opacity:1"
       d="m 102.17413,964.18071 c 0.25386,-0.45971 1.85773,-3.49323 3.56414,-6.74114 l 3.10257,-5.90529 5.29288,0 5.29289,0 1.33123,2.4193 c 0.73217,1.33061 1.39463,2.50735 1.47213,2.61496 0.11127,0.15453 0.47263,-0.35432 1.71812,-2.41929 l 1.57721,-2.61497 4.53162,0 4.53161,0 -0.63132,1.16771 c -0.34723,0.64225 -1.24333,2.27871 -1.99133,3.6366 -0.748,1.35788 -1.61837,2.94931 -1.93414,3.5365 -0.31578,0.58719 -0.79614,1.45797 -1.06747,1.93507 -0.27134,0.47709 -0.77637,1.39291 -1.12229,2.03515 l -0.62895,1.16772 -5.45738,0 -5.45738,0 -1.24164,-2.39957 c -0.68291,-1.31976 -1.29547,-2.38279 -1.36126,-2.36228 -0.0658,0.0205 -0.73431,1.0853 -1.48559,2.3662 l -1.36597,2.32892 -4.56563,0.0351 -4.56563,0.0351 0.46158,-0.83585 z"
       id="path6743" />
    <path
       style="fill:#e41b47;fill-opacity:1"
       d="M 138.77148 1.171875 L 138.41992 1.8066406 C 138.22734 2.1552106 137.89015 2.7701281 137.66992 3.1738281 C 135.38068 7.3698781 131.81847 13.875096 131.61914 14.222656 L 131.36719 14.662109 L 143.47656 14.623047 L 155.58594 14.583984 L 156.38086 14.183594 C 157.41872 13.660394 158.0225 13.046836 159.04883 11.472656 C 159.99506 10.021336 161.8974 6.5914988 162.87695 4.5742188 C 163.49034 3.3109587 163.72675 2.3673375 163.37305 2.5859375 C 163.27395 2.6471675 163.25481 2.621675 163.32031 2.515625 C 163.45361 2.299965 162.79042 1.5958987 162.22852 1.3554688 C 161.87493 1.2041688 159.76591 1.171755 150.28516 1.171875 L 138.77148 1.171875 z M 148.20117 4.5078125 L 149.19922 4.5078125 C 150.15693 4.5078125 150.66822 4.6473506 150.87891 4.9628906 C 151.01034 5.1597256 151.02179 5.4299831 150.86133 5.9277344 C 150.70087 6.4254856 150.36844 7.1501331 149.81836 8.2519531 C 149.17892 9.5327631 148.66387 10.659259 148.67188 10.755859 C 148.68008 10.852459 148.66005 10.904194 148.62695 10.871094 C 148.59384 10.837984 148.26834 10.92418 147.9043 11.0625 C 147.42484 11.24469 146.89394 11.314453 145.97656 11.314453 C 145.37087 11.314453 145.01803 11.29987 144.84961 11.25 C 144.68119 11.20013 144.696 11.115429 144.82617 10.974609 C 144.89063 10.904879 145.67664 9.4209644 146.57227 7.6777344 L 148.20117 4.5078125 z "
       id="path6741"
       transform="translate(0,950.36216)" />
    <path
       inkscape:connector-curvature="0"
       style="fill:#e41b47;fill-opacity:1"
       d="m 161.4381,964.81576 c 0.0416,-0.1085 1.66894,-3.09618 3.61623,-6.63929 1.94729,-3.5431 3.55633,-6.48772 3.57565,-6.54359 0.0194,-0.0559 2.53034,-0.0859 5.58001,-0.0667 l 5.54486,0.0349 -0.78288,1.40126 c -0.43057,0.77069 -1.09434,1.97741 -1.47504,2.6816 -0.38069,0.70419 -1.68305,3.08988 -2.89414,5.30153 l -2.20197,4.02118 -5.51922,0.003 c -4.81582,0.003 -5.50956,-0.0219 -5.4435,-0.19404 z"
       id="path6724" />
  </g>
</svg>
