<?xml version="1.0" encoding="UTF-8" standalone="no"?>
<!-- Created with Inkscape (http://www.inkscape.org/) -->

<svg
   xmlns:dc="http://purl.org/dc/elements/1.1/"
   xmlns:cc="http://creativecommons.org/ns#"
   xmlns:rdf="http://www.w3.org/1999/02/22-rdf-syntax-ns#"
   xmlns:svg="http://www.w3.org/2000/svg"
   xmlns="http://www.w3.org/2000/svg"
   xmlns:sodipodi="http://sodipodi.sourceforge.net/DTD/sodipodi-0.dtd"
   xmlns:inkscape="http://www.inkscape.org/namespaces/inkscape"
   width="327.03"
   height="100.465"
   viewBox="0 0 327.02999 100.46499"
   id="svg2"
   version="1.1"
   inkscape:version="0.91 r13725"
   sodipodi:docname="northwestern air.svg">
  <defs
     id="defs4" />
  <sodipodi:namedview
     id="base"
     pagecolor="#ffffff"
     bordercolor="#666666"
     borderopacity="1.0"
     inkscape:pageopacity="0.0"
     inkscape:pageshadow="2"
     inkscape:zoom="2.7758182"
     inkscape:cx="163.015"
     inkscape:cy="49.7325"
     inkscape:document-units="px"
     inkscape:current-layer="layer1"
     showgrid="false"
     fit-margin-top="0"
     fit-margin-left="0"
     fit-margin-right="0"
     fit-margin-bottom="0"
     units="px"
     inkscape:window-width="1280"
     inkscape:window-height="744"
     inkscape:window-x="-4"
     inkscape:window-y="-4"
     inkscape:window-maximized="1" />
  <metadata
     id="metadata7">
    <rdf:RDF>
      <cc:Work
         rdf:about="">
        <dc:format>image/svg+xml</dc:format>
        <dc:type
           rdf:resource="http://purl.org/dc/dcmitype/StillImage" />
        <dc:title></dc:title>
      </cc:Work>
    </rdf:RDF>
  </metadata>
  <g
     inkscape:label="Layer 1"
     inkscape:groupmode="layer"
     id="layer1"
     transform="translate(1354.4436,-901.62968)">
    <g
       id="g3610"
       transform="translate(-1356.6456,894.22967)">
      <g
         id="g3570">
	<path
   id="path3572"
   d="m 11.832,43.383 c 1.875,-2.359 3.695,-5.16 5.461,-8.402 1.766,-3.242 3.773,-7.535 6.023,-12.879 0.156,-0.375 0.39,-0.953 0.703,-1.734 1.421,-3.437 2.593,-6.102 3.516,-7.992 0.734,-1.547 1.339,-2.511 1.816,-2.895 0.477,-0.383 1.121,-0.574 1.934,-0.574 1.078,0 1.836,0.457 2.273,1.371 0.437,0.914 0.656,2.59 0.656,5.027 l 0,1.148 -0.398,18.867 3.023,-9.891 c 1.078,-3.5 2.195,-6.343 3.352,-8.531 1.156,-2.188 2.406,-3.859 3.75,-5.016 l 1.313,5.344 c -0.797,1.11 -1.715,2.863 -2.754,5.262 -1.04,2.399 -2.441,6.035 -4.207,10.91 l -0.023,0.047 c -2.235,6.172 -4.164,9.258 -5.789,9.258 -0.938,0 -1.598,-0.348 -1.98,-1.043 -0.383,-0.695 -0.574,-1.934 -0.574,-3.715 l 0,-0.422 0.445,-22.664 c -2.734,7.266 -5.195,13.239 -7.383,17.918 -2.188,4.68 -4.164,8.215 -5.93,10.605 l -5.227,0 z"
   inkscape:connector-curvature="0" />

	<path
   id="path3574"
   d="m 58.308,34.875 c 0.078,0.016 0.167,0.027 0.27,0.035 0.102,0.008 0.214,0.012 0.34,0.012 0.484,0 1.461,-0.609 2.93,-1.828 l 0.047,-0.023 0,4.172 c -0.625,0.594 -1.215,1.02 -1.77,1.277 -0.555,0.258 -1.16,0.387 -1.816,0.387 -0.141,0 -0.316,-0.015 -0.527,-0.047 -0.211,-0.031 -0.583,-0.094 -1.113,-0.188 -0.735,1.375 -1.75,2.446 -3.047,3.211 -1.297,0.766 -2.727,1.148 -4.289,1.148 -2.063,0 -3.668,-0.574 -4.816,-1.723 -1.148,-1.149 -1.723,-2.746 -1.723,-4.793 0,-3.343 1.082,-6.254 3.246,-8.73 2.164,-2.476 4.667,-3.715 7.512,-3.715 1.734,0 3.16,0.489 4.277,1.465 1.117,0.977 1.676,2.184 1.676,3.621 0,0.641 -0.125,1.16 -0.375,1.559 -0.25,0.398 -0.618,0.7 -1.102,0.902 0.219,0.188 0.383,0.422 0.492,0.703 0.109,0.281 0.164,0.625 0.164,1.031 0,0.234 -0.032,0.473 -0.094,0.715 -0.063,0.244 -0.157,0.513 -0.282,0.809 z m -4.898,2.016 c -0.328,-0.39 -0.563,-0.765 -0.703,-1.125 -0.141,-0.359 -0.211,-0.734 -0.211,-1.125 0,-1.031 0.296,-1.898 0.891,-2.602 0.594,-0.703 1.367,-1.102 2.32,-1.195 -0.281,-1.016 -0.641,-1.758 -1.078,-2.227 -0.438,-0.469 -1.008,-0.703 -1.711,-0.703 -1.313,0 -2.566,0.824 -3.762,2.473 -1.195,1.649 -1.793,3.418 -1.793,5.309 0,1.031 0.223,1.832 0.668,2.402 0.445,0.571 1.066,0.855 1.863,0.855 0.625,0 1.254,-0.184 1.887,-0.551 0.633,-0.366 1.175,-0.87 1.629,-1.511 z"
   inkscape:connector-curvature="0" />

	<path
   id="path3576"
   d="m 60.16,38.532 0,-4.078 c 1.672,-1.328 3.055,-2.555 4.148,-3.68 1.093,-1.125 1.89,-2.141 2.391,-3.047 -0.344,-0.5 -0.59,-0.938 -0.738,-1.313 -0.149,-0.375 -0.223,-0.734 -0.223,-1.078 0,-0.797 0.23,-1.453 0.691,-1.969 0.46,-0.516 1.043,-0.773 1.746,-0.773 0.781,0 1.383,0.262 1.805,0.785 0.422,0.524 0.671,1.316 0.75,2.379 0.094,0 0.234,-0.008 0.422,-0.023 0.703,-0.047 1.187,-0.07 1.453,-0.07 1.375,0 2.375,0.191 3,0.574 0.625,0.383 0.938,0.988 0.938,1.816 0,0.344 -0.07,0.75 -0.211,1.219 -0.141,0.469 -0.344,0.993 -0.609,1.57 l -2.648,5.531 c -0.079,0.156 -0.172,0.344 -0.281,0.563 -0.219,0.438 -0.328,0.68 -0.328,0.727 0,0.172 0.02,0.301 0.059,0.387 0.039,0.086 0.097,0.129 0.176,0.129 0.296,0 1.14,-0.43 2.531,-1.289 1.391,-0.859 2.82,-1.898 4.289,-3.117 l 0,4.219 c -2.156,1.594 -4.105,2.833 -5.848,3.715 -1.743,0.883 -3.074,1.324 -3.996,1.324 -0.938,0 -1.661,-0.208 -2.168,-0.621 -0.508,-0.414 -0.762,-1.004 -0.762,-1.77 0,-0.781 0.547,-2.234 1.641,-4.359 0.141,-0.281 0.25,-0.492 0.328,-0.633 l 2.531,-4.945 c 0.109,-0.234 0.188,-0.425 0.234,-0.574 0.047,-0.148 0.07,-0.277 0.07,-0.387 0,-0.219 -0.067,-0.371 -0.199,-0.457 -0.133,-0.085 -0.387,-0.129 -0.762,-0.129 -0.079,0 -0.223,0.012 -0.434,0.035 -0.211,0.023 -0.372,0.035 -0.48,0.035 -1.328,1.875 -2.77,3.571 -4.324,5.086 -1.556,1.515 -3.286,2.921 -5.192,4.218 z"
   inkscape:connector-curvature="0" />

	<path
   id="path3578"
   d="m 86.48,36.375 c -0.079,0.188 -0.137,0.379 -0.176,0.574 -0.039,0.196 -0.059,0.387 -0.059,0.574 0,0.187 0.015,0.32 0.047,0.398 0.031,0.079 0.078,0.117 0.141,0.117 0.296,0 1.102,-0.414 2.414,-1.242 1.313,-0.828 2.687,-1.836 4.125,-3.023 l 0,4.219 c -2.156,1.594 -4.105,2.833 -5.848,3.715 -1.743,0.883 -3.074,1.324 -3.996,1.324 -0.735,0 -1.305,-0.172 -1.711,-0.516 -0.407,-0.343 -0.609,-0.828 -0.609,-1.453 0,-0.359 0.062,-0.777 0.188,-1.254 0.125,-0.477 0.336,-1.128 0.633,-1.957 l 0.914,-2.438 c -0.813,0.75 -1.527,1.375 -2.145,1.875 -0.617,0.5 -1.184,0.914 -1.699,1.242 l 0,-4.078 c 1.922,-1.641 3.465,-2.992 4.629,-4.055 1.164,-1.063 1.785,-1.688 1.863,-1.875 l 2.391,-5.883 -3.703,0 1.219,-3.117 3.68,0 c 1.093,-3.656 2.059,-6.226 2.895,-7.711 0.835,-1.484 1.699,-2.227 2.59,-2.227 0.5,0 0.894,0.184 1.184,0.551 0.288,0.367 0.434,0.871 0.434,1.512 0,0.75 -0.556,2.43 -1.665,5.039 -0.516,1.188 -0.914,2.133 -1.195,2.836 l 3.446,0 -1.195,3.117 -3.472,0 -5.32,13.736 z"
   inkscape:connector-curvature="0" />

	<path
   id="path3580"
   d="m 92.128,38.532 0,-4.078 c 1.063,-0.875 2.078,-1.746 3.047,-2.613 0.968,-0.867 1.905,-1.738 2.813,-2.613 l 7.055,-16.898 c 0.624,-1.5 1.245,-2.613 1.863,-3.34 0.616,-0.727 1.245,-1.09 1.887,-1.09 0.516,0 0.926,0.172 1.23,0.516 0.305,0.344 0.457,0.813 0.457,1.406 0,1.453 -0.591,3.527 -1.77,6.223 -1.181,2.695 -2.833,5.723 -4.957,9.082 l -3.797,9.469 7.781,-6.141 c 1.327,-1.063 2.456,-1.84 3.387,-2.332 0.929,-0.492 1.723,-0.738 2.379,-0.738 0.499,0 0.938,0.137 1.313,0.41 0.375,0.273 0.563,0.598 0.563,0.973 0,0.297 -0.211,0.891 -0.633,1.781 -0.141,0.313 -0.251,0.563 -0.328,0.75 l -3.234,7.078 c -0.11,0.25 -0.239,0.524 -0.387,0.82 -0.149,0.297 -0.223,0.454 -0.223,0.469 0,0.172 0.019,0.301 0.059,0.387 0.038,0.086 0.097,0.129 0.176,0.129 0.281,0 1.12,-0.434 2.52,-1.301 1.397,-0.867 2.831,-1.902 4.301,-3.105 l 0,4.219 c -2.25,1.656 -4.242,2.91 -5.977,3.762 -1.734,0.852 -3.173,1.277 -4.313,1.277 -0.688,0 -1.242,-0.156 -1.664,-0.469 -0.422,-0.313 -0.633,-0.727 -0.633,-1.242 0,-0.328 0.062,-0.695 0.188,-1.102 0.124,-0.406 0.366,-1 0.727,-1.781 l 3.07,-6.773 c -2.766,1.984 -5.759,4.391 -8.977,7.219 -3.22,2.828 -5.22,4.242 -6,4.242 -0.375,0 -0.699,-0.164 -0.973,-0.492 -0.273,-0.328 -0.41,-0.718 -0.41,-1.172 0,-0.188 0.032,-0.398 0.094,-0.633 0.063,-0.234 0.156,-0.492 0.281,-0.773 l 1.688,-3.492 c -0.469,0.407 -0.918,0.773 -1.348,1.102 -0.43,0.325 -0.848,0.614 -1.255,0.864 z"
   inkscape:connector-curvature="0" />

	<path
   id="path3582"
   d="m 133.848,37.336 c 0,0.016 -0.008,0.047 -0.023,0.094 -0.172,0.5 -0.258,0.899 -0.258,1.195 0,0.188 0.074,0.34 0.223,0.457 0.149,0.117 0.348,0.176 0.598,0.176 0.563,0 1.273,-0.34 2.133,-1.02 0.86,-0.68 1.734,-1.605 2.625,-2.777 0.25,-2.844 0.91,-5.203 1.98,-7.078 1.07,-1.875 2.215,-2.813 3.434,-2.813 0.5,0 0.898,0.172 1.195,0.516 0.297,0.344 0.445,0.813 0.445,1.406 0,0.984 -0.238,2.109 -0.715,3.375 -0.477,1.266 -1.152,2.57 -2.027,3.914 0.219,0.047 0.398,0.082 0.539,0.105 0.141,0.023 0.266,0.035 0.375,0.035 0.484,0 1.391,-0.554 2.719,-1.664 l 0.258,-0.211 0,4.195 c -0.641,0.594 -1.234,1.02 -1.781,1.277 -0.547,0.257 -1.156,0.387 -1.828,0.387 -0.5,0 -0.961,-0.055 -1.383,-0.164 -0.422,-0.109 -0.836,-0.273 -1.242,-0.492 -1.609,1.703 -3.047,2.918 -4.313,3.645 -1.266,0.727 -2.555,1.09 -3.867,1.09 -1.078,0 -1.895,-0.273 -2.449,-0.82 -0.554,-0.547 -0.918,-1.453 -1.09,-2.719 -1.063,1.125 -2.215,1.996 -3.457,2.613 -1.242,0.618 -2.457,0.926 -3.645,0.926 -1.094,0 -1.938,-0.308 -2.531,-0.926 -0.594,-0.617 -0.891,-1.488 -0.891,-2.613 0,-0.375 0.043,-0.789 0.129,-1.242 0.086,-0.453 0.223,-1 0.41,-1.641 -0.469,0.407 -0.918,0.773 -1.348,1.102 -0.43,0.329 -0.848,0.618 -1.254,0.867 l 0,-4.078 c 1.828,-1.531 3.344,-2.848 4.547,-3.949 1.203,-1.101 1.852,-1.761 1.945,-1.98 l 1.242,-2.719 4.359,0 -5.227,11.133 c -0.141,0.297 -0.246,0.586 -0.316,0.867 -0.07,0.281 -0.105,0.524 -0.105,0.727 0,0.25 0.051,0.434 0.152,0.551 0.101,0.117 0.27,0.176 0.504,0.176 0.859,0 1.883,-0.582 3.07,-1.746 1.188,-1.164 2.422,-2.792 3.703,-4.887 0.406,-0.656 0.891,-1.508 1.453,-2.555 1.078,-1.984 2.016,-2.977 2.813,-2.977 0.453,0 0.84,0.114 1.16,0.34 0.32,0.227 0.48,0.489 0.48,0.785 0,0.25 -0.023,0.504 -0.07,0.762 -0.047,0.258 -0.148,0.621 -0.305,1.09 l -2.366,7.265 z"
   inkscape:connector-curvature="0" />

	<path
   id="path3584"
   d="m 163.707,37.993 c -2.391,1.797 -4.473,3.079 -6.246,3.844 -1.773,0.766 -3.496,1.148 -5.168,1.148 -2.141,0 -3.766,-0.539 -4.875,-1.617 -1.109,-1.078 -1.664,-2.664 -1.664,-4.758 0,-3.062 1.16,-5.691 3.48,-7.887 2.32,-2.195 5.035,-3.293 8.145,-3.293 1.547,0 2.734,0.328 3.563,0.984 0.829,0.656 1.242,1.594 1.242,2.813 0,1.891 -1.031,3.578 -3.094,5.063 -2.063,1.485 -4.828,2.484 -8.297,3 0.063,0.563 0.316,1.004 0.762,1.324 0.445,0.32 1.043,0.48 1.793,0.48 1.281,0 2.809,-0.453 4.582,-1.359 1.773,-0.906 3.699,-2.227 5.777,-3.961 l 0,4.219 z m -13.055,-4.078 c 2.078,-0.296 3.773,-0.828 5.086,-1.594 1.313,-0.765 1.969,-1.562 1.969,-2.391 0,-0.343 -0.117,-0.621 -0.352,-0.832 -0.235,-0.211 -0.547,-0.316 -0.938,-0.316 -0.938,0 -1.992,0.496 -3.164,1.488 -1.171,0.993 -2.038,2.207 -2.601,3.645 z"
   inkscape:connector-curvature="0" />

	<path
   id="path3586"
   d="m 162.84,34.454 c 1.781,-1.406 3.379,-2.863 4.793,-4.371 1.414,-1.508 2.683,-3.105 3.808,-4.793 0.109,-1.75 0.43,-3.078 0.961,-3.984 0.531,-0.906 1.25,-1.359 2.156,-1.359 0.641,0 1.145,0.203 1.512,0.609 0.367,0.407 0.551,0.977 0.551,1.711 0,0.547 -0.117,1.075 -0.352,1.582 -0.234,0.508 -0.609,1.028 -1.125,1.559 0.078,1.25 0.137,2.273 0.176,3.07 0.039,0.797 0.059,1.492 0.059,2.086 0,1.734 -0.125,3.199 -0.375,4.395 -0.25,1.196 -0.656,2.27 -1.219,3.223 1.047,-0.531 2.09,-1.156 3.129,-1.875 1.039,-0.718 2.129,-1.562 3.27,-2.531 l 0,4.219 c -2,1.453 -3.813,2.523 -5.438,3.211 -1.625,0.688 -3.141,1.031 -4.547,1.031 l -0.305,0 c -0.453,0.25 -0.906,0.43 -1.359,0.539 -0.453,0.109 -0.976,0.164 -1.57,0.164 -0.953,0 -1.688,-0.238 -2.203,-0.715 -0.516,-0.477 -0.773,-1.168 -0.773,-2.074 0,-0.437 0.074,-0.723 0.223,-0.855 0.148,-0.132 0.465,-0.199 0.949,-0.199 0.297,0 0.742,0.059 1.336,0.176 0.594,0.117 1.039,0.176 1.336,0.176 1.093,0 1.937,-0.718 2.531,-2.156 0.594,-1.438 0.891,-3.492 0.891,-6.164 l 0,-0.563 c -0.891,1.375 -2.004,2.695 -3.339,3.961 -1.336,1.266 -3.027,2.602 -5.074,4.008 l 0,-4.081 z"
   inkscape:connector-curvature="0" />

	<path
   id="path3588"
   d="m 187.144,36.375 c -0.078,0.188 -0.137,0.379 -0.176,0.574 -0.039,0.196 -0.059,0.387 -0.059,0.574 0,0.187 0.016,0.32 0.047,0.398 0.031,0.079 0.078,0.117 0.141,0.117 0.297,0 1.102,-0.414 2.414,-1.242 1.313,-0.828 2.688,-1.836 4.125,-3.023 l 0,4.219 c -2.156,1.594 -4.105,2.833 -5.848,3.715 -1.742,0.883 -3.074,1.324 -3.996,1.324 -0.734,0 -1.305,-0.172 -1.711,-0.516 -0.406,-0.344 -0.609,-0.828 -0.609,-1.453 0,-0.359 0.063,-0.777 0.188,-1.254 0.125,-0.477 0.336,-1.128 0.633,-1.957 l 0.914,-2.438 c -0.813,0.75 -1.527,1.375 -2.145,1.875 -0.617,0.5 -1.184,0.914 -1.699,1.242 l 0,-4.078 c 1.922,-1.641 3.465,-2.992 4.629,-4.055 1.164,-1.063 1.785,-1.688 1.863,-1.875 l 2.391,-5.883 -3.703,0 1.219,-3.117 3.68,0 c 1.094,-3.656 2.059,-6.226 2.895,-7.711 0.836,-1.484 1.699,-2.227 2.59,-2.227 0.5,0 0.895,0.184 1.184,0.551 0.289,0.367 0.434,0.871 0.434,1.512 0,0.75 -0.555,2.43 -1.664,5.039 -0.516,1.188 -0.914,2.133 -1.195,2.836 l 3.445,0 -1.195,3.117 -3.469,0 -5.323,13.736 z"
   inkscape:connector-curvature="0" />

	<path
   id="path3590"
   d="m 210.886,37.993 c -2.391,1.797 -4.473,3.079 -6.246,3.844 -1.773,0.766 -3.496,1.148 -5.168,1.148 -2.141,0 -3.766,-0.539 -4.875,-1.617 -1.109,-1.078 -1.664,-2.664 -1.664,-4.758 0,-3.062 1.16,-5.691 3.48,-7.887 2.32,-2.195 5.035,-3.293 8.145,-3.293 1.547,0 2.734,0.328 3.563,0.984 0.829,0.656 1.242,1.594 1.242,2.813 0,1.891 -1.031,3.578 -3.094,5.063 -2.063,1.485 -4.828,2.484 -8.297,3 0.063,0.563 0.316,1.004 0.762,1.324 0.445,0.32 1.043,0.48 1.793,0.48 1.281,0 2.809,-0.453 4.582,-1.359 1.773,-0.906 3.699,-2.227 5.777,-3.961 l 0,4.219 z m -13.054,-4.078 c 2.078,-0.296 3.773,-0.828 5.086,-1.594 1.313,-0.765 1.969,-1.562 1.969,-2.391 0,-0.343 -0.117,-0.621 -0.352,-0.832 -0.235,-0.211 -0.547,-0.316 -0.938,-0.316 -0.938,0 -1.992,0.496 -3.164,1.488 -1.172,0.993 -2.039,2.207 -2.601,3.645 z"
   inkscape:connector-curvature="0" />

	<path
   id="path3592"
   d="m 210.019,38.532 0,-4.078 c 1.672,-1.328 3.055,-2.555 4.148,-3.68 1.093,-1.125 1.891,-2.141 2.391,-3.047 -0.344,-0.5 -0.59,-0.938 -0.738,-1.313 -0.148,-0.375 -0.223,-0.734 -0.223,-1.078 0,-0.797 0.23,-1.453 0.691,-1.969 0.461,-0.516 1.043,-0.773 1.746,-0.773 0.781,0 1.383,0.262 1.805,0.785 0.422,0.524 0.672,1.316 0.75,2.379 0.094,0 0.234,-0.008 0.422,-0.023 0.703,-0.047 1.188,-0.07 1.453,-0.07 1.375,0 2.375,0.191 3,0.574 0.625,0.383 0.938,0.988 0.938,1.816 0,0.344 -0.07,0.75 -0.211,1.219 -0.141,0.469 -0.344,0.993 -0.609,1.57 l -2.648,5.531 c -0.078,0.156 -0.172,0.344 -0.281,0.563 -0.219,0.438 -0.328,0.68 -0.328,0.727 0,0.172 0.02,0.301 0.059,0.387 0.039,0.086 0.098,0.129 0.176,0.129 0.297,0 1.141,-0.43 2.531,-1.289 1.391,-0.859 2.82,-1.898 4.289,-3.117 l 0,4.219 c -2.156,1.594 -4.105,2.833 -5.848,3.715 -1.742,0.883 -3.074,1.324 -3.996,1.324 -0.938,0 -1.66,-0.208 -2.168,-0.621 -0.508,-0.413 -0.762,-1.004 -0.762,-1.77 0,-0.781 0.547,-2.234 1.641,-4.359 0.141,-0.281 0.25,-0.492 0.328,-0.633 l 2.531,-4.945 c 0.109,-0.234 0.188,-0.425 0.234,-0.574 0.047,-0.148 0.07,-0.277 0.07,-0.387 0,-0.219 -0.066,-0.371 -0.199,-0.457 -0.133,-0.085 -0.387,-0.129 -0.762,-0.129 -0.078,0 -0.223,0.012 -0.434,0.035 -0.211,0.023 -0.371,0.035 -0.48,0.035 -1.328,1.875 -2.77,3.571 -4.324,5.086 -1.555,1.515 -3.286,2.921 -5.192,4.218 z"
   inkscape:connector-curvature="0" />

	<path
   id="path3594"
   d="m 228.558,38.532 0,-4.078 c 1.828,-1.531 3.344,-2.848 4.547,-3.949 1.203,-1.101 1.852,-1.761 1.945,-1.98 l 1.242,-2.719 4.359,0 -3.539,7.5 c 3.563,-2.875 6.328,-4.914 8.297,-6.117 1.969,-1.203 3.492,-1.805 4.57,-1.805 0.484,0 0.91,0.137 1.277,0.41 0.367,0.273 0.551,0.598 0.551,0.973 0,0.297 -0.211,0.891 -0.633,1.781 -0.141,0.313 -0.25,0.563 -0.328,0.75 l -3.234,7.078 c -0.109,0.25 -0.238,0.524 -0.387,0.82 -0.148,0.297 -0.223,0.454 -0.223,0.469 0,0.172 0.02,0.301 0.059,0.387 0.039,0.086 0.098,0.129 0.176,0.129 0.281,0 1.121,-0.434 2.52,-1.301 1.399,-0.867 2.832,-1.902 4.301,-3.105 l 0,4.219 c -2.25,1.656 -4.242,2.91 -5.977,3.762 -1.734,0.852 -3.172,1.277 -4.313,1.277 -0.688,0 -1.242,-0.156 -1.664,-0.469 -0.422,-0.313 -0.633,-0.727 -0.633,-1.242 0,-0.328 0.063,-0.695 0.188,-1.102 0.125,-0.406 0.367,-1 0.727,-1.781 l 3.07,-6.773 c -2.766,1.984 -5.758,4.391 -8.977,7.219 -3.219,2.828 -5.219,4.242 -6,4.242 -0.375,0 -0.699,-0.164 -0.973,-0.492 -0.274,-0.328 -0.41,-0.718 -0.41,-1.172 0,-0.188 0.031,-0.398 0.094,-0.633 0.063,-0.235 0.156,-0.492 0.281,-0.773 l 1.688,-3.492 c -0.469,0.407 -0.918,0.773 -1.348,1.102 -0.43,0.329 -0.847,0.615 -1.253,0.865 z"
   inkscape:connector-curvature="0" />

	<path
   id="path3596"
   d="m 266.316,42.704 c 0.859,-1.969 1.715,-3.82 2.566,-5.555 0.851,-1.735 1.707,-3.39 2.566,-4.969 -0.703,0.109 -1.438,0.223 -2.203,0.34 -0.765,0.117 -1.563,0.246 -2.391,0.387 l 1.336,-3.984 c 0.938,-0.156 1.848,-0.289 2.73,-0.398 0.883,-0.109 1.762,-0.195 2.637,-0.258 3.594,-5.921 7.406,-10.605 11.438,-14.051 4.032,-3.446 7.625,-5.168 10.781,-5.168 1.234,0 2.152,0.258 2.754,0.773 0.602,0.515 0.902,1.297 0.902,2.344 0,0.969 -0.926,4.286 -2.777,9.949 -1.852,5.664 -3.324,10.895 -4.418,15.691 0.125,0.641 0.211,1.11 0.258,1.406 0.047,0.297 0.07,0.547 0.07,0.75 0,0.891 -0.23,1.602 -0.691,2.133 -0.461,0.531 -1.082,0.797 -1.863,0.797 -0.734,0 -1.34,-0.285 -1.816,-0.855 -0.477,-0.57 -0.715,-1.324 -0.715,-2.262 0,-0.359 0.078,-1.008 0.234,-1.945 0.016,-0.125 0.031,-0.226 0.047,-0.305 -1.531,-1.766 -3.242,-3.078 -5.133,-3.938 -1.891,-0.859 -4,-1.289 -6.328,-1.289 l -0.398,0 c -0.891,1.656 -1.758,3.348 -2.602,5.074 -0.844,1.727 -1.672,3.504 -2.484,5.332 l -4.5,0 z M 278.55,28.313 c 2.078,0.234 3.984,0.727 5.719,1.477 1.735,0.75 3.25,1.727 4.547,2.93 1.031,-3.75 2.219,-7.695 3.563,-11.836 1.344,-4.14 2.016,-6.422 2.016,-6.844 0,-0.234 -0.031,-0.402 -0.094,-0.504 -0.063,-0.102 -0.164,-0.152 -0.305,-0.152 -1.359,0 -3.566,1.41 -6.621,4.23 -3.055,2.821 -5.997,6.386 -8.825,10.699 z"
   inkscape:connector-curvature="0" />

	<path
   id="path3598"
   d="m 299.058,36.563 c -0.469,0.407 -0.918,0.773 -1.348,1.102 -0.43,0.329 -0.848,0.618 -1.254,0.867 l 0,-4.078 c 1.828,-1.531 3.344,-2.848 4.547,-3.949 1.203,-1.101 1.852,-1.761 1.945,-1.98 l 1.242,-2.719 4.359,0 -4.781,10.57 -0.586,1.289 c 0,0.172 0.016,0.301 0.047,0.387 0.031,0.086 0.078,0.129 0.141,0.129 0.313,0 1.172,-0.43 2.578,-1.289 1.406,-0.859 2.836,-1.898 4.289,-3.117 l 0,4.219 c -2.25,1.672 -4.242,2.93 -5.977,3.773 -1.735,0.843 -3.18,1.266 -4.336,1.266 -0.688,0 -1.227,-0.161 -1.617,-0.48 -0.39,-0.319 -0.586,-0.746 -0.586,-1.277 0,-0.375 0.063,-0.84 0.188,-1.395 0.125,-0.554 0.297,-1.121 0.516,-1.699 l 0.633,-1.619 z m 9.024,-13.594 c -0.734,0 -1.301,-0.191 -1.699,-0.574 -0.398,-0.383 -0.598,-0.926 -0.598,-1.629 0,-0.953 0.285,-1.742 0.855,-2.367 0.57,-0.625 1.293,-0.938 2.168,-0.938 0.703,0 1.246,0.188 1.629,0.563 0.383,0.375 0.574,0.906 0.574,1.594 0,0.969 -0.277,1.77 -0.832,2.402 -0.555,0.632 -1.254,0.949 -2.097,0.949 z"
   inkscape:connector-curvature="0" />

	<path
   id="path3600"
   d="m 309.371,38.532 0,-4.078 c 1.672,-1.328 3.055,-2.555 4.148,-3.68 1.093,-1.125 1.891,-2.141 2.391,-3.047 -0.344,-0.5 -0.59,-0.938 -0.738,-1.313 -0.148,-0.375 -0.223,-0.734 -0.223,-1.078 0,-0.797 0.23,-1.453 0.691,-1.969 0.461,-0.516 1.043,-0.773 1.746,-0.773 0.781,0 1.383,0.262 1.805,0.785 0.422,0.524 0.672,1.316 0.75,2.379 0.094,0 0.234,-0.008 0.422,-0.023 0.703,-0.047 1.188,-0.07 1.453,-0.07 1.375,0 2.375,0.191 3,0.574 0.625,0.383 0.938,0.988 0.938,1.816 0,0.344 -0.07,0.75 -0.211,1.219 -0.141,0.469 -0.344,0.993 -0.609,1.57 l -2.648,5.531 c -0.078,0.156 -0.172,0.344 -0.281,0.563 -0.219,0.438 -0.328,0.68 -0.328,0.727 0,0.172 0.02,0.301 0.059,0.387 0.039,0.086 0.098,0.129 0.176,0.129 0.297,0 1.141,-0.43 2.531,-1.289 1.391,-0.859 2.82,-1.898 4.289,-3.117 l 0,4.219 c -2.156,1.594 -4.105,2.833 -5.848,3.715 -1.742,0.883 -3.074,1.324 -3.996,1.324 -0.938,0 -1.66,-0.208 -2.168,-0.621 -0.508,-0.413 -0.762,-1.004 -0.762,-1.77 0,-0.781 0.547,-2.234 1.641,-4.359 0.141,-0.281 0.25,-0.492 0.328,-0.633 l 2.531,-4.945 c 0.109,-0.234 0.188,-0.425 0.234,-0.574 0.047,-0.148 0.07,-0.277 0.07,-0.387 0,-0.219 -0.066,-0.371 -0.199,-0.457 -0.133,-0.085 -0.387,-0.129 -0.762,-0.129 -0.078,0 -0.223,0.012 -0.434,0.035 -0.211,0.023 -0.371,0.035 -0.48,0.035 -1.328,1.875 -2.77,3.571 -4.324,5.086 -1.556,1.515 -3.286,2.921 -5.192,4.218 z"
   inkscape:connector-curvature="0" />

</g>
      <polyline
         id="polyline3602"
         points="326.486,54.055 87.026,54.055 225.405,104.865 2.702,104.865 "
         style="fill:none;stroke:#ed1c4e;stroke-width:5" />
    </g>
  </g>
</svg>
