<?xml version="1.0" encoding="utf-8"?>
<!-- Generator: Adobe Illustrator 22.1.0, SVG Export Plug-In . SVG Version: 6.00 Build 0)  -->
<svg version="1.1" id="layer" xmlns="http://www.w3.org/2000/svg" xmlns:xlink="http://www.w3.org/1999/xlink" x="0px" y="0px"
	 width="600px" height="32.9px" viewBox="0 0 600 32.9" enable-background="new 0 0 600 32.9" xml:space="preserve">
<g>
	<polygon fill="#0F3B60" points="461,0 453.4,32.8 461.6,32.8 469.2,0 	"/>
	<polygon fill="#0F3B60" points="291.7,12.3 282.3,0 270.8,0 285.9,19.7 282.9,32.8 291.1,32.8 294.1,19.7 318.3,0 306.8,0 	"/>
	<path fill="#0F3B60" d="M70.6,0L70.6,0c-4.5,0-9.1,3.7-10.1,8.2l-3.8,16.4c-1,4.5,1.8,8.2,6.3,8.2h41l-6.3-8.2H64.9l0.9-4.1h32.8
		l1.9-8.2H67.7l1-4.1h32.8L111.6,0L70.6,0L70.6,0z"/>
	<path fill="#0F3B60" d="M163.1,15.6l1.7-7.4c1.1-4.5-1.8-8.2-6.3-8.2h-41l-7.6,32.8h8.2l1.9-8.2h32.8l-1.9,8.2h8.2l1.9-8.2
		c0.4-1.8,0-3.4-0.9-4.5C161.5,19,162.6,17.4,163.1,15.6 M154.7,16.4h-32.8l1.9-8.2h32.8L154.7,16.4z"/>
	<path fill="#0F3B60" d="M523.8,15.6l1.7-7.4c1.1-4.5-1.8-8.2-6.3-8.2h-41l-7.5,32.8h8.2l1.9-8.2h32.8l-1.9,8.2h8.2l1.9-8.2
		c0.4-1.8,0-3.4-0.9-4.5C522.2,19,523.4,17.4,523.8,15.6 M515.4,16.4h-32.8l1.9-8.2h32.8L515.4,16.4z"/>
	<path fill="#0F3B60" d="M204.1,24.6h-29.4l1.9-8.2h-8.2l-1.8,8.2c-1,4.5,1.8,8.2,6.3,8.2h29.4c4.5,0,9.1-3.7,10.1-8.2L218,0h-8.2
		L204.1,24.6z"/>
	<path fill="#0F3B60" d="M431.3,2.4c0,0-1-2.4-5.2-2.4s-6.3,2.4-6.3,2.4l-32.6,30.5h11.5l7-6.6h28.6l4,6.6h11.5L431.3,2.4z
		 M414.6,18.1l9.4-8.8l5.4,8.8H414.6z"/>
	<path fill="#0F3B60" d="M256.4,2.4c0,0-1-2.4-5.2-2.4s-6.3,2.4-6.3,2.4l-32.5,30.5h11.5l7-6.6h28.6l4,6.6h11.4L256.4,2.4z
		 M239.7,18.1l9.4-8.8l5.3,8.8H239.7z"/>
	<path fill="#0F3B60" d="M345,2.4c0,0-1-2.4-5.2-2.4s-6.3,2.4-6.3,2.4l-32.6,30.5h11.5l7-6.6H348l4,6.6h11.5L345,2.4z M328.2,18.1
		l9.5-8.8l5.3,8.8H328.2z"/>
	<path fill="#0F3B60" d="M54.9,8.2C56,3.7,53.1,0,48.6,0h-41L0,32.8h41c2.1,0,4.4-0.8,6.4-2.4c3.9-3.2,5.1-8.4,2.7-11.6
		c-1.2-1.6-3.1-2.4-5.3-2.4C49.4,16.4,53.9,12.8,54.9,8.2 M13.9,8.2h32.8l-1,4.1H13L13.9,8.2z M10.1,24.6l0.9-4.1h32.8l-0.9,4.1
		H10.1z"/>
	<polygon fill="#FCB531" points="564.9,32.8 550.7,32.8 585.9,0 600,0 	"/>
</g>
</svg>
