<?xml version="1.0" encoding="utf-8"?>
<!-- Generator: Adobe Illustrator 22.1.0, SVG Export Plug-In . SVG Version: 6.00 Build 0)  -->
<svg version="1.1" id="Слой_1" xmlns="http://www.w3.org/2000/svg" xmlns:xlink="http://www.w3.org/1999/xlink" x="0px" y="0px"
	 width="85.728px" height="55.583px" viewBox="0 0 85.728 55.583" enable-background="new 0 0 85.728 55.583" xml:space="preserve">
<title>Ресурс 5</title>
<g id="Слой_2_1_">
	<g id="Слой_1-2">
		<path fill="#E2001A" d="M65.685,25.723c0.206-1.708,0.219-3.435,0.041-5.146c-1.163,3.304-3.427,6.107-6.413,7.938
			c3.24-2.745,5.353-6.588,5.936-10.794c-0.447-1.911-1.138-3.757-2.056-5.492c0.034,0.746,0.021,1.493-0.039,2.238
			c-0.361,4.668-2.575,8.997-6.149,12.021c4.444-4.369,6.202-10.786,4.604-16.809C54.259-0.671,39.911-3.104,29.561,4.246
			c-2.103,1.493-3.94,3.33-5.433,5.433c-0.377,1.423-0.573,2.887-0.584,4.359c-0.03,4.683,1.843,9.177,5.19,12.453
			c-3.575-3.023-5.791-7.353-6.151-12.021c-0.059-0.744-0.071-1.492-0.036-2.238c-0.92,1.734-1.612,3.581-2.058,5.492
			c0.584,4.206,2.698,8.049,5.938,10.794c-2.986-1.833-5.251-4.636-6.415-7.941c-0.177,1.709-0.164,3.433,0.041,5.139
			c1.103,2.228,2.672,4.193,4.601,5.761c-1.565-0.864-2.977-1.979-4.18-3.301c2.88,12.364,15.238,20.053,27.603,17.173
			c8.528-1.986,15.186-8.645,17.173-17.173c-1.201,1.321-2.61,2.435-4.173,3.298C63.008,29.911,64.58,27.949,65.685,25.723z
			 M27.973,15.491c0.005-8.227,6.678-14.892,14.905-14.887C51.106,0.61,57.771,7.283,57.765,15.51
			c-0.002,3.013-0.917,5.954-2.625,8.436h-0.027c-8.808,11.283-22.406-2.109-3.09-13.031c-1.032-0.668-3.298-4.274-5.873-4.274
			c-1.649,0-3.504,1.083-3.916,2.008L30.543,9.834l12.564,0.659c1.339,0.104,2.061,0.727,2.061,1.804s-1.751,2.318-2.938,3.245
			c-1.046,0.819-7.134,5.953-6.347,13.119c0.109,0.993,0.339,1.969,0.683,2.906c-0.777-0.69-1.33-1.896-1.656-3.465
			c-0.493-0.312-0.968-0.653-1.422-1.02C29.99,24.252,27.963,19.99,27.973,15.491z"/>
		<path fill="#FFFFFF" d="M32.781,38.379c0.514,0.114,1.042,0.154,1.567,0.119c0.47,0,1.279-0.484,1.656-1.528l1.472-3.761h2.928
			l-1.337,3.717c-0.584,1.623-1.363,3.148-4.463,3.148c-0.85,0-2.337-0.145-2.337-0.145L32.781,38.379z"/>
		<path fill="#FFFFFF" d="M43.591,33.209h3.928l0.727,6.58h-3.109l-0.111-1.095H42.08l-0.898,1.095H37.9L43.591,33.209z
			 M44.863,37.255l0.065-1.884l-1.676,1.884H44.863z"/>
		<path fill="#FFFFFF" d="M51.496,33.209h3.134l-1.695,5.182h3.826l-0.484,1.397H49.13L51.496,33.209z"/>
		<g id="g4288">
			<path id="path4290" fill="#231916" d="M85.119,53.939c-0.484,1.242-2.124,1.627-3.904,1.627c-1.78,0-2.923-0.387-2.664-1.627
				h2.259c-0.058,0.332,0.143,0.542,0.811,0.542c0.668,0,1.102-0.216,1.225-0.542c0.312-0.811-4.163-0.019-3.451-1.874
				c0.397-1.039,1.969-1.528,3.739-1.528c1.77,0,2.778,0.385,2.565,1.528h-2.218c0.036-0.308-0.058-0.54-0.727-0.54
				c-0.668,0-1.024,0.242-1.141,0.54c-0.32,0.828,4.202,0.022,3.492,1.874"/>
		</g>
		<g id="g4292">
			<path id="path4294" fill="#231916" d="M45.528,55.426h-2.262l1.821-4.744h2.264"/>
		</g>
		<g id="g4296">
			<path id="path4298" fill="#231916" d="M62.643,55.426h-2.259l1.821-4.744h2.259"/>
		</g>
		<g id="g4300">
			<path id="path4302" fill="#231916" d="M77.214,55.426h-5.497l1.819-4.744h5.502l-0.351,0.911h-3.238l-0.375,0.952h2.693
				l-0.349,0.911h-2.686l-0.368,0.969h3.235"/>
		</g>
		<g id="g4304">
			<path id="path4306" fill="#231916" d="M32.27,55.426h-1.828l-1.533-2.802l-1.075,2.802h-1.826l1.819-4.744h2.126l1.354,2.492
				l0.957-2.492h1.828"/>
		</g>
		<g id="g4308">
			<path id="path4310" fill="#231916" d="M70.315,55.426h-1.831l-1.533-2.802l-1.08,2.802h-1.824l1.824-4.744h2.124l1.354,2.492
				l0.957-2.492h1.831"/>
		</g>
		<g id="g4312">
			<path id="path4314" fill="#231916" d="M4.805,53.837c-0.62,1.613-2.141,1.746-3.233,1.746C1.044,55.588,0.517,55.535,0,55.426
				l0.387-1.007c1.034,0.121,1.92,0.031,2.267-0.874l1.099-2.862h2.264"/>
		</g>
		<g id="g4316">
			<path id="path4318" fill="#231916" d="M17.783,52.193c-0.18,0.37-0.557,0.604-0.969,0.601h-1.259l0.463-1.211h1.259
				c0.409,0,0.639,0.257,0.506,0.601 M17.62,50.672h-3.516l-1.821,4.754h2.262l0.661-1.722h1.262c2.09,0,3.216-0.559,3.582-1.511
				c0.366-0.952-0.332-1.511-2.422-1.511"/>
		</g>
		<g id="g4320">
			<path id="path4322" fill="#231916" d="M52.438,52.193c-0.18,0.37-0.557,0.604-0.969,0.601h-1.257l0.463-1.211h1.259
				c0.409,0,0.639,0.257,0.506,0.601 M52.28,50.672h-3.521l-1.819,4.744H49.2l0.661-1.722h0.683l0.448,1.722h2.47l-0.605-1.894
				c1.003-0.242,1.596-0.695,1.841-1.339c0.368-0.949-0.329-1.511-2.422-1.511"/>
		</g>
		<g id="g4324">
			<path id="path4326" fill="#231916" d="M57.23,54.418l1.439-3.737h-2.262l-1.819,4.744h5.134l0.385-1.007"/>
		</g>
		<g id="g4328">
			<path id="path4330" fill="#231916" d="M8.108,53.58l1.211-1.516l0.058,1.516H8.108z M11.256,50.674H9.234
				c-0.269,0.017-0.52,0.144-0.693,0.351l-3.79,4.4h1.867l0.753-0.944h2.044l0.029,0.944h2.262"/>
		</g>
		<g id="g4332">
			<path id="path4334" fill="#231916" d="M21.827,53.58l1.211-1.516l0.056,1.516H21.827z M24.975,50.674h-2.02
				c-0.27,0.017-0.521,0.144-0.695,0.351l-3.788,4.4h1.87l0.751-0.944h2.042l0.036,0.935h2.257"/>
		</g>
		<g id="g4336">
			<path id="path4338" fill="#231916" d="M39.094,53.58l1.211-1.516l0.058,1.516H39.094z M42.242,50.674h-2.017
				c-0.271,0.016-0.523,0.143-0.697,0.351l-3.79,4.4h1.872l0.751-0.935h2.042l0.036,0.935h2.259"/>
		</g>
	</g>
</g>
</svg>
