<?xml version="1.0" encoding="utf-8"?>
<!-- Generator: Adobe Illustrator 21.0.0, SVG Export Plug-In . SVG Version: 6.00 Build 0)  -->
<svg version="1.1" id="Layer_1" xmlns="http://www.w3.org/2000/svg" xmlns:xlink="http://www.w3.org/1999/xlink" x="0px" y="0px"
	 viewBox="0 0 40 12.2" style="enable-background:new 0 0 40 12.2;" xml:space="preserve">
<style type="text/css">
	.st0{fill:#008ECE;}
	.st1{fill:#FFD101;}
</style>
<g>
	<g>
		<path class="st0" d="M33,2.4L33,2.4c-0.2,0.4-0.3,0.6-0.5,1l-1,2h2l-0.3-2.1C33.1,3.1,33,2.8,33,2.4L33,2.4L33,2.4z M33.5,5.9
			h-2.3l-0.8,1.7h-0.6l3.1-6h0.3l1.1,6h-0.5L33.5,5.9z"/>
	</g>
	<polygon id="XMLID_24_" class="st0" points="35.2,7.5 36.1,3.2 36.6,3.2 35.7,7.5 	"/>
	<g>
		<path class="st0" d="M39.5,3.6c-0.6,0-1.2,0.7-1.5,2l-0.4,1.9h-0.5L38,3.2h0.4l-0.2,0.9h0c0.3-0.7,0.8-1,1.3-1
			c0.2,0,0.3,0,0.4,0.1l-0.2,0.5C39.7,3.6,39.6,3.6,39.5,3.6L39.5,3.6z M39.5,3.6L39.5,3.6L39.5,3.6z"/>
	</g>
	<path id="XMLID_21_" class="st0" d="M36.6,1.7c-0.2,0-0.4,0.2-0.4,0.4c0,0.2,0.2,0.4,0.4,0.4c0.2,0,0.4-0.2,0.4-0.4
		C37,1.9,36.8,1.7,36.6,1.7z"/>
	<path id="XMLID_20_" class="st1" d="M1.4,7.1C0.2,7,0,7.2,0,7.4c0,0.2,0.1,0.4,1.3,0.5c1.2,0.1,3.1,0,3.1-0.2
		C4.5,7.4,2.6,7.1,1.4,7.1z"/>
	<path id="XMLID_19_" class="st1" d="M5.2,8.1C5,8,4.1,9.7,3.6,10.8c-0.4,1-0.4,1.3-0.2,1.4c0.2,0.1,0.4,0,0.9-1.1
		C4.8,10,5.4,8.2,5.2,8.1z"/>
	<path id="XMLID_18_" class="st1" d="M8.8,8.6c-1.2-0.4-3-0.9-3.1-0.7c-0.1,0.2,1.6,1,2.8,1.4C9.7,9.7,9.9,9.6,10,9.4
		C10.1,9.2,10,9,8.8,8.6z"/>
	<g>
		<path class="st0" d="M10.3,4.3c-0.1,0.6-0.3,1.1-0.6,1.5c-0.6,1-1.1,1.1-1.3,0.9C8.1,6.3,8.6,4.8,9.3,4.2
			C9.8,3.8,10.2,4.1,10.3,4.3L10.3,4.3L10.3,4.3L10.3,4.3L10.3,4.3L10.3,4.3z M11.6,6.4l-0.1-0.1c-0.1-0.1-0.2-0.1-0.3,0
			c-0.2,0.2-0.4,0.4-0.5,0.4c-0.1-0.2-0.1-0.5,0-0.9l0.6-2.3c0-0.2-0.1-0.3-0.2-0.2c-0.1,0-0.3,0.1-0.7,0.3c0,0-0.1,0-0.1,0.1
			C10.2,3.5,10,3.4,9.8,3.4c-1.2,0-2.4,1.7-2.4,3c0,0.5,0.3,1.2,1,1.2c0.5,0,1-0.3,1.5-0.9l0.1-0.1v0.1c0,0.5,0.3,0.9,0.7,0.9
			c0.4,0,0.7-0.4,1.1-0.9C11.7,6.6,11.7,6.5,11.6,6.4L11.6,6.4z M11.6,6.4L11.6,6.4L11.6,6.4z"/>
	</g>
	<g>
		<path class="st0" d="M26.7,4.3c-0.1,0.6-0.3,1.1-0.6,1.5c-0.6,1-1.1,1.1-1.3,0.9c-0.3-0.4,0.2-1.9,0.9-2.5
			C26.2,3.8,26.6,4.1,26.7,4.3L26.7,4.3L26.7,4.3L26.7,4.3L26.7,4.3L26.7,4.3z M28.1,6.4l-0.1-0.1c-0.1-0.1-0.2-0.1-0.3,0
			c-0.2,0.2-0.4,0.4-0.5,0.4c-0.1-0.2-0.1-0.5,0-0.9l0.6-2.3c0-0.2-0.1-0.3-0.2-0.2c-0.1,0-0.3,0.1-0.7,0.3c0,0-0.1,0-0.1,0.1
			c-0.2-0.1-0.4-0.2-0.7-0.2c-1.2,0-2.4,1.7-2.4,3c0,0.5,0.3,1.2,1,1.2c0.5,0,1-0.3,1.5-0.9l0.1-0.1v0.1c0,0.5,0.3,0.9,0.7,0.9
			c0.4,0,0.7-0.4,1.1-0.9C28.1,6.6,28.1,6.5,28.1,6.4L28.1,6.4z M28.1,6.4L28.1,6.4L28.1,6.4z"/>
	</g>
	<g>
		<path class="st0" d="M6.4,2c-0.2,0.6-1,3.2-1.2,4.6C4.9,5.5,4,3.6,3.7,3C3,1.7,2.6,1.3,2.2,1.5C1.8,1.7,1.9,2.3,2.6,3.6
			c0.5,0.9,2,3.5,2.6,4c0.1,0.1,0.2,0.1,0.3,0C6,7,7.1,4,7.6,2.4C8.1,0.9,8.3,0.2,7.8,0C7.3-0.1,6.9,0.6,6.4,2L6.4,2z M6.4,2L6.4,2
			L6.4,2z"/>
	</g>
	<path id="XMLID_9_" class="st0" d="M18,1.5c-0.3,0-0.6,0.3-0.6,0.6s0.3,0.6,0.6,0.6c0.3,0,0.6-0.3,0.6-0.6S18.3,1.5,18,1.5z"/>
	<g>
		<path class="st0" d="M15.1,7.5c0.4,0,0.7-0.4,1.1-0.9c0.1-0.1,0.1-0.2,0-0.3l-0.1-0.1c-0.1-0.1-0.2-0.1-0.3,0
			c-0.2,0.2-0.4,0.4-0.5,0.4l0,0c0-0.1-0.1-0.2,0-0.8l0.3-1.3c0.1-0.4,0.1-0.8-0.1-1c-0.1-0.1-0.3-0.2-0.5-0.2
			c-0.4,0-0.8,0.2-1.2,0.6c-0.1,0.1-0.4,0.5-0.4,0.5l0.3-0.9c0-0.2-0.1-0.3-0.3-0.2l-0.6,0.3c-0.1,0-0.1,0.1-0.1,0.1
			c0,0.1-0.5,2.9-0.5,2.9c-0.1,0.6-0.1,0.9,0.2,0.9c0.4,0,0.5-0.6,0.6-1.1c0-0.1,0.2-0.5,0.2-0.7c0.4-0.7,1.3-1.6,1.6-1.6
			c0,0,0.1,0,0.1,0.1c0,0.2-0.1,0.6-0.2,1c0,0.2-0.2,1.2-0.2,1.4C14.4,7.1,14.7,7.5,15.1,7.5L15.1,7.5z M15.1,7.5L15.1,7.5L15.1,7.5
			z"/>
	</g>
	<g>
		<path class="st0" d="M17.4,7.5c0.4,0,0.7-0.4,1.1-0.9c0.1-0.1,0.1-0.2,0-0.3l-0.1-0.1c-0.1-0.1-0.2-0.1-0.3,0
			c-0.2,0.2-0.4,0.4-0.5,0.4v0c-0.1-0.2-0.1-0.5,0.1-1.1c0.2-0.6,0.6-2.1,0.6-2.1c0-0.2-0.1-0.3-0.3-0.2l-0.6,0.3
			c-0.1,0-0.1,0.1-0.1,0.1L16.8,6c-0.1,0.7-0.1,1,0.1,1.3C17,7.5,17.2,7.5,17.4,7.5L17.4,7.5z M17.4,7.5L17.4,7.5L17.4,7.5z"/>
	</g>
	<g>
		<path class="st0" d="M19.7,7.5c0.4,0,0.7-0.4,1.1-0.9c0.1-0.1,0.1-0.2,0-0.3l-0.1-0.1c-0.1-0.1-0.2-0.1-0.3,0
			c-0.2,0.2-0.4,0.4-0.5,0.4v0c-0.1-0.1-0.1-0.4,0-0.8c0.3-1.3,1.3-5.2,1.3-5.2c0-0.2-0.1-0.3-0.3-0.2l-0.7,0.3
			c-0.1,0-0.1,0.1-0.1,0.1c0,0-0.9,4.4-1,5C19,6.6,19,6.9,19.2,7.2C19.4,7.4,19.5,7.5,19.7,7.5L19.7,7.5z M19.7,7.5L19.7,7.5
			L19.7,7.5z"/>
	</g>
	<g>
		<path class="st0" d="M22.1,7.5c0.4,0,0.7-0.4,1.1-0.9c0.1-0.1,0.1-0.2,0-0.3l-0.1-0.1c-0.1-0.1-0.2-0.1-0.3,0
			c-0.2,0.2-0.4,0.4-0.5,0.4v0c-0.1-0.1-0.1-0.4,0-0.8c0.3-1.3,1.3-5.2,1.3-5.2c0-0.2-0.1-0.3-0.3-0.2l-0.7,0.3
			c-0.1,0-0.1,0.1-0.1,0.1c0,0-0.9,4.4-1,5c-0.1,0.6-0.1,0.9,0.1,1.2C21.7,7.4,21.9,7.5,22.1,7.5L22.1,7.5z M22.1,7.5L22.1,7.5
			L22.1,7.5z"/>
	</g>
</g>
</svg>
