<?xml version="1.0" encoding="utf-8"?>
<!-- Generator: Adobe Illustrator 22.1.0, SVG Export Plug-In . SVG Version: 6.00 Build 0)  -->
<svg version="1.1" id="Слой_1" xmlns="http://www.w3.org/2000/svg" xmlns:xlink="http://www.w3.org/1999/xlink" x="0px" y="0px"
	 width="299.8px" height="95.4px" viewBox="0 0 299.8 95.4" style="enable-background:new 0 0 299.8 95.4;" xml:space="preserve">
<style type="text/css">
	.st0{fill:#0999F8;}
	.st1{fill:#131292;}
	.st2{fill:#8ED50C;}
	.st3{fill:#E20798;}
	.st4{fill:#060598;}
</style>
<g>
	<path class="st0" d="M89.3,27.3c4-3.8,8.3-6.9,13.6-8.6c6.8-2.2,13.6-2.1,20.5-1.1c6.6,0.9,13,2.7,19.4,4.4
		c4.7,1.3,9.5,2.6,14.3,4.1c-0.9,0.2-1.8,0.5-2.8,0.6c-4.6,0.6-9.3,0.6-13.9-0.3c-5.2-1-10.3-2.6-15.4-3.9c-4.4-1.2-9-2.1-13.6-2.1
		s-9.1,1-13.4,2.8c-2.3,1-4.6,2-6.7,3.4C90.8,26.9,90.1,27.1,89.3,27.3z"/>
	<path class="st1" d="M93.6,32.6c3.1-3,6.4-5.3,10.5-6.7c5.2-1.7,10.5-1.6,15.9-0.9c5.1,0.7,10,2.1,14.9,3.4c3.7,1,7.3,2,11,3.2
		c-0.7,0.2-1.4,0.4-2.2,0.5c-3.6,0.5-7.1,0.5-10.7-0.2c-4-0.8-7.9-2-11.9-3.1c-3.4-0.9-6.9-1.7-10.5-1.7s-7,0.8-10.3,2.2
		c-1.8,0.8-3.5,1.5-5.2,2.6C94.7,32.3,94.2,32.4,93.6,32.6z"/>
	<path class="st2" d="M87.9,21.5c4.9-4.7,10.2-8.4,16.6-10.5c8.3-2.7,16.7-2.5,25.1-1.4c8.1,1.1,15.9,3.3,23.7,5.4
		c5.8,1.6,11.6,3.1,17.5,5c-1.1,0.3-2.3,0.6-3.4,0.8c-5.7,0.7-11.3,0.7-17-0.4c-6.4-1.3-12.6-3.2-18.8-4.8c-5.4-1.4-11-2.6-16.6-2.6
		c-5.7,0-11.2,1.2-16.4,3.4c-2.8,1.2-5.6,2.4-8.2,4.1C89.7,21,88.8,21.2,87.9,21.5z"/>
	<path class="st3" d="M85,16.2c6.2-6,13-10.7,21.2-13.4c10.6-3.4,21.3-3.2,32.1-1.8c10.3,1.4,20.3,4.2,30.2,6.9
		c7.4,2,14.8,4,22.3,6.3c-1.5,0.3-2.9,0.8-4.4,1c-7.2,0.9-14.5,0.9-21.7-0.5c-8.1-1.6-16-4-24-6.1c-6.9-1.8-14-3.3-21.2-3.3
		c-7.3,0-14.2,1.6-20.9,4.4c-3.6,1.5-7.2,3.1-10.4,5.3C87.3,15.6,86.2,15.8,85,16.2z"/>
	<g>
		<path class="st4" d="M9.4,81.3C9,80.8,8.6,80.4,8,80.2c-0.5-0.3-1.1-0.4-1.7-0.4c-0.7,0-1.3,0.1-1.9,0.4s-1.1,0.7-1.5,1.1
			c-0.4,0.5-0.7,1-1,1.6c-0.2,0.6-0.4,1.3-0.4,2s0.1,1.4,0.4,2c0.2,0.6,0.6,1.2,1,1.6c0.4,0.5,0.9,0.8,1.5,1.1S5.6,90,6.3,90
			c0.8,0,1.4-0.1,2-0.4s1.1-0.7,1.6-1.3l1.1,0.9c-0.6,0.7-1.2,1.3-2,1.6c-0.8,0.4-1.7,0.5-2.7,0.5c-0.9,0-1.7-0.2-2.5-0.5
			s-1.4-0.8-2-1.4s-1-1.3-1.3-2.1C0.2,86.5,0,85.6,0,84.7s0.2-1.8,0.5-2.6c0.3-0.8,0.7-1.5,1.3-2.1s1.2-1,2-1.4
			c0.8-0.3,1.6-0.5,2.5-0.5c0.8,0,1.6,0.2,2.4,0.5s1.4,0.8,2,1.5L9.4,81.3z"/>
		<path class="st4" d="M12.3,87.1c0-0.6,0.1-1.2,0.3-1.8c0.2-0.5,0.5-1,0.9-1.4s0.8-0.7,1.4-0.9s1.1-0.3,1.8-0.3
			c0.7,0,1.2,0.1,1.8,0.3s1,0.5,1.4,0.9c0.4,0.4,0.7,0.8,0.9,1.4c0.2,0.6,0.3,1.1,0.3,1.8c0,0.6-0.1,1.2-0.3,1.8
			c-0.2,0.6-0.5,1-0.9,1.4c-0.4,0.4-0.8,0.7-1.4,0.9c-0.5,0.2-1.1,0.3-1.8,0.3c-0.7,0-1.2-0.2-1.7-0.5c-0.5-0.2-1-0.5-1.4-0.9
			s-0.7-0.8-0.9-1.4C12.4,88.3,12.3,87.7,12.3,87.1z M13.8,87.1c0,0.4,0.1,0.8,0.2,1.2s0.3,0.7,0.6,1c0.3,0.3,0.6,0.5,0.9,0.6
			c0.4,0.2,0.8,0.2,1.2,0.2s0.8-0.1,1.2-0.2c0.4-0.2,0.7-0.4,0.9-0.6c0.3-0.3,0.5-0.6,0.6-1c0.1-0.4,0.2-0.8,0.2-1.2
			c0-0.4-0.1-0.8-0.2-1.2c-0.1-0.4-0.3-0.7-0.6-1s-0.6-0.5-0.9-0.6c-0.4-0.2-0.8-0.2-1.2-0.2s-0.8,0.1-1.2,0.2
			c-0.4,0.2-0.7,0.4-0.9,0.6c-0.3,0.3-0.5,0.6-0.6,1C13.9,86.2,13.8,86.6,13.8,87.1z"/>
		<path class="st4" d="M23.2,84.9c0-0.4,0-0.7,0-1.1s0-0.6,0-0.9h1.3c0,0.2,0,0.4,0,0.7s0,0.4,0,0.7l0,0c0.1-0.2,0.2-0.4,0.4-0.6
			s0.4-0.4,0.6-0.5c0.2-0.1,0.5-0.3,0.8-0.3c0.3-0.1,0.6-0.1,0.9-0.1c0.5,0,1,0.1,1.4,0.2c0.4,0.2,0.7,0.4,1,0.7s0.4,0.6,0.6,1.1
			c0.1,0.4,0.2,0.9,0.2,1.4v5.1H29v-4.9c0-0.7-0.2-1.2-0.5-1.6s-0.8-0.6-1.4-0.6c-0.4,0-0.8,0.1-1.1,0.2s-0.6,0.4-0.8,0.6
			c-0.2,0.3-0.4,0.6-0.5,1s-0.1,0.8-0.1,1.3v4h-1.4V84.9z"/>
		<path class="st4" d="M33,84.9c0-0.4,0-0.7,0-1.1s0-0.6,0-0.9h1.3c0,0.2,0,0.4,0,0.7s0,0.4,0,0.7l0,0c0.1-0.2,0.2-0.4,0.4-0.6
			s0.4-0.4,0.6-0.5c0.2-0.1,0.5-0.3,0.8-0.3c0.3-0.1,0.6-0.1,0.9-0.1c0.5,0,1,0.1,1.4,0.2c0.4,0.2,0.7,0.4,1,0.7s0.4,0.6,0.6,1.1
			c0.1,0.4,0.2,0.9,0.2,1.4v5.1h-1.4v-4.9c0-0.7-0.2-1.2-0.5-1.6C38,84.2,37.5,84,36.9,84c-0.4,0-0.8,0.1-1.1,0.2s-0.6,0.4-0.8,0.6
			c-0.2,0.3-0.4,0.6-0.5,1s-0.1,0.8-0.1,1.3v4H33V84.9z"/>
		<path class="st4" d="M50,89.7c-0.5,0.6-1,1.1-1.6,1.3c-0.6,0.3-1.3,0.4-2,0.4c-0.6,0-1.2-0.1-1.7-0.3c-0.5-0.2-0.9-0.5-1.3-0.9
			c-0.4-0.4-0.6-0.8-0.8-1.4c-0.2-0.5-0.3-1.1-0.3-1.7s0.1-1.2,0.3-1.7s0.5-1,0.9-1.4s0.8-0.7,1.3-0.9c0.5-0.2,1.1-0.3,1.7-0.3
			c0.6,0,1.1,0.1,1.6,0.3s0.9,0.5,1.2,0.8c0.3,0.4,0.6,0.8,0.8,1.3s0.3,1.1,0.3,1.8v0.4h-6.6c0,0.3,0.1,0.7,0.3,1s0.3,0.6,0.6,0.8
			c0.2,0.2,0.5,0.4,0.8,0.6c0.3,0.1,0.7,0.2,1,0.2c0.6,0,1.1-0.1,1.5-0.3c0.4-0.2,0.8-0.5,1.1-0.9L50,89.7z M48.8,86.3
			c0-0.7-0.3-1.3-0.7-1.7c-0.4-0.4-1-0.6-1.8-0.6s-1.4,0.2-1.8,0.6c-0.5,0.4-0.7,1-0.8,1.7H48.8z"/>
		<path class="st4" d="M58.3,85c-0.3-0.4-0.6-0.6-0.9-0.8C57,84.1,56.6,84,56.2,84c-0.5,0-0.9,0.1-1.2,0.2c-0.4,0.2-0.6,0.4-0.9,0.7
			c-0.2,0.3-0.4,0.6-0.5,1s-0.2,0.8-0.2,1.2c0,0.4,0.1,0.8,0.2,1.2s0.3,0.7,0.6,1c0.2,0.3,0.5,0.5,0.9,0.7c0.3,0.2,0.7,0.2,1.1,0.2
			c0.9,0,1.6-0.3,2.1-1l1,1c-0.4,0.5-0.9,0.8-1.4,1s-1.1,0.3-1.7,0.3s-1.2-0.1-1.7-0.3c-0.5-0.2-1-0.5-1.3-0.9
			c-0.4-0.4-0.7-0.8-0.9-1.4c-0.2-0.5-0.3-1.1-0.3-1.7s0.1-1.2,0.3-1.7s0.5-1,0.9-1.4s0.8-0.7,1.3-0.9c0.5-0.2,1.1-0.3,1.7-0.3
			s1.2,0.1,1.7,0.3s1,0.5,1.4,1L58.3,85z"/>
		<path class="st4" d="M65.4,84.1H63v4.1c0,0.3,0,0.5,0,0.7s0.1,0.4,0.1,0.6c0.1,0.2,0.2,0.3,0.4,0.4c0.2,0.1,0.4,0.1,0.7,0.1
			c0.2,0,0.4,0,0.6-0.1c0.2,0,0.4-0.1,0.6-0.2l0.1,1.2c-0.2,0.1-0.5,0.2-0.8,0.2s-0.6,0.1-0.8,0.1c-0.5,0-0.9-0.1-1.2-0.2
			c-0.3-0.1-0.5-0.3-0.7-0.5s-0.3-0.5-0.3-0.9c-0.1-0.3-0.1-0.7-0.1-1.1V84h-1.8v-1h1.8v-2.3H63V83h2.4C65.4,83,65.4,84.1,65.4,84.1
			z"/>
		<path class="st4" d="M66.9,79.7c0-0.3,0.1-0.5,0.3-0.7c0.2-0.2,0.4-0.3,0.7-0.3c0.3,0,0.5,0.1,0.7,0.3c0.2,0.2,0.3,0.4,0.3,0.7
			c0,0.3-0.1,0.5-0.3,0.7c-0.2,0.2-0.4,0.3-0.7,0.3c-0.3,0-0.5-0.1-0.7-0.3C67,80.3,66.9,80,66.9,79.7z M67.2,83h1.4v8.2h-1.4V83z"
			/>
		<path class="st4" d="M71.3,84.9c0-0.4,0-0.7,0-1.1s0-0.6,0-0.9h1.3c0,0.2,0,0.4,0,0.7s0,0.4,0,0.7l0,0c0.1-0.2,0.2-0.4,0.4-0.6
			c0.2-0.2,0.4-0.4,0.6-0.5s0.5-0.3,0.8-0.3c0.3-0.1,0.6-0.1,0.9-0.1c0.5,0,1,0.1,1.4,0.2c0.4,0.2,0.7,0.4,1,0.7s0.4,0.6,0.6,1.1
			c0.1,0.4,0.2,0.9,0.2,1.4v5.1H77v-4.9c0-0.7-0.2-1.2-0.5-1.6s-0.8-0.6-1.4-0.6c-0.4,0-0.8,0.1-1.1,0.2s-0.6,0.4-0.8,0.6
			c-0.2,0.3-0.4,0.6-0.5,1s-0.1,0.8-0.1,1.3v4h-1.4v-6.4H71.3z"/>
		<path class="st4" d="M89.2,90.8c0,1.5-0.4,2.6-1.1,3.4c-0.8,0.8-1.9,1.2-3.3,1.2c-0.8,0-1.5-0.1-2.2-0.4c-0.6-0.2-1.3-0.6-1.8-1.2
			l1-1.1c0.4,0.5,0.9,0.8,1.4,1.1c0.5,0.2,1,0.4,1.7,0.4c0.6,0,1.1-0.1,1.5-0.3c0.4-0.2,0.7-0.4,1-0.7c0.2-0.3,0.4-0.7,0.5-1.1
			s0.1-0.8,0.1-1.2v-1.1l0,0c-0.3,0.5-0.8,0.9-1.3,1.2c-0.5,0.2-1.1,0.4-1.6,0.4c-0.6,0-1.2-0.1-1.8-0.3c-0.5-0.2-1-0.5-1.4-0.9
			s-0.7-0.8-0.9-1.3c-0.2-0.5-0.3-1.1-0.3-1.7c0-0.7,0.1-1.3,0.3-1.8c0.2-0.5,0.5-1,0.9-1.4s0.8-0.7,1.4-0.8
			c0.5-0.2,1.1-0.3,1.8-0.3c0.3,0,0.6,0,0.8,0.1c0.3,0.1,0.6,0.2,0.8,0.3c0.3,0.1,0.5,0.3,0.7,0.5s0.4,0.4,0.5,0.7l0,0V83h1.4
			L89.2,90.8L89.2,90.8z M82,87.1c0,0.4,0.1,0.8,0.2,1.2c0.2,0.4,0.4,0.7,0.6,0.9c0.3,0.3,0.6,0.5,0.9,0.6c0.4,0.2,0.7,0.2,1.1,0.2
			c0.5,0,0.9-0.1,1.2-0.2c0.4-0.2,0.7-0.4,0.9-0.7s0.4-0.6,0.6-0.9c0.1-0.4,0.2-0.7,0.2-1.1s-0.1-0.8-0.2-1.2
			c-0.1-0.4-0.3-0.7-0.6-1c-0.3-0.3-0.6-0.5-0.9-0.6c-0.4-0.1-0.8-0.2-1.2-0.2s-0.8,0.1-1.2,0.2c-0.4,0.2-0.7,0.4-0.9,0.6
			c-0.3,0.3-0.4,0.6-0.6,1C82.1,86.2,82,86.6,82,87.1z"/>
		<path class="st4" d="M99.6,93c-0.1,0.3-0.3,0.7-0.4,1s-0.3,0.5-0.5,0.7s-0.4,0.4-0.7,0.5s-0.6,0.2-1,0.2c-0.2,0-0.4,0-0.6,0
			s-0.4-0.1-0.6-0.2L96,94c0.1,0.1,0.3,0.1,0.4,0.1s0.3,0,0.5,0c0.4,0,0.8-0.1,1-0.4s0.4-0.6,0.5-1l0.6-1.5l-3.4-8.3h1.6l2.5,6.4
			l0,0l2.4-6.4h1.5L99.6,93z"/>
		<path class="st4" d="M104.6,87.1c0-0.6,0.1-1.2,0.3-1.8c0.2-0.5,0.5-1,0.9-1.4s0.8-0.7,1.4-0.9s1.1-0.3,1.8-0.3s1.2,0.1,1.8,0.3
			s1,0.5,1.4,0.9s0.7,0.8,0.9,1.4s0.3,1.1,0.3,1.8c0,0.6-0.1,1.2-0.3,1.8s-0.5,1-0.9,1.4s-0.8,0.7-1.4,0.9c-0.5,0.2-1.1,0.3-1.8,0.3
			s-1.2-0.1-1.8-0.3c-0.5-0.2-1-0.5-1.4-0.9s-0.7-0.8-0.9-1.4S104.6,87.7,104.6,87.1z M106,87.1c0,0.4,0.1,0.8,0.2,1.2
			s0.3,0.7,0.6,1c0.3,0.3,0.6,0.5,0.9,0.6c0.4,0.2,0.8,0.2,1.2,0.2s0.8-0.1,1.2-0.2c0.4-0.2,0.7-0.4,0.9-0.6c0.3-0.3,0.5-0.6,0.6-1
			s0.2-0.8,0.2-1.2c0-0.4-0.1-0.8-0.2-1.2c-0.1-0.4-0.3-0.7-0.6-1c-0.3-0.3-0.6-0.5-0.9-0.6c-0.4-0.2-0.8-0.2-1.2-0.2
			s-0.8,0.1-1.2,0.2c-0.4,0.2-0.7,0.4-0.9,0.6c-0.3,0.3-0.5,0.6-0.6,1C106.1,86.2,106,86.6,106,87.1z"/>
		<path class="st4" d="M122.6,89.2c0,0.4,0,0.7,0,1.1c0,0.3,0,0.6,0,0.9h-1.3c0-0.2,0-0.4,0-0.7c0-0.2,0-0.4,0-0.7l0,0
			c-0.1,0.2-0.2,0.4-0.4,0.6s-0.4,0.4-0.6,0.5c-0.2,0.1-0.5,0.3-0.8,0.4s-0.6,0.1-0.9,0.1c-0.5,0-1-0.1-1.4-0.2s-0.7-0.4-1-0.7
			c-0.3-0.3-0.4-0.6-0.6-1.1c-0.1-0.4-0.2-0.9-0.2-1.4v-5h1.4v4.9c0,0.7,0.2,1.2,0.5,1.6s0.8,0.6,1.4,0.6c0.4,0,0.8-0.1,1.1-0.2
			c0.3-0.2,0.6-0.4,0.8-0.6c0.2-0.3,0.4-0.6,0.5-1s0.1-0.8,0.1-1.3v-4h1.4L122.6,89.2L122.6,89.2z"/>
		<path class="st4" d="M129.9,84c0.4-0.4,0.9-0.8,1.5-1s1.2-0.3,1.8-0.3c1.2,0,2.1,0.3,2.6,0.9s0.8,1.4,0.8,2.6v3.5
			c0,0.2,0,0.5,0,0.7c0,0.3,0.1,0.5,0.1,0.7h-1.3c0-0.2-0.1-0.4-0.1-0.6s0-0.4,0-0.6l0,0c-0.3,0.4-0.6,0.8-1.1,1s-1,0.4-1.6,0.4
			c-0.4,0-0.8-0.1-1.2-0.2s-0.7-0.3-1-0.5s-0.5-0.5-0.7-0.8s-0.2-0.7-0.2-1.1c0-0.7,0.2-1.2,0.5-1.6c0.4-0.4,0.8-0.7,1.3-0.9
			c0.5-0.2,1.1-0.3,1.7-0.4c0.6,0,1.2-0.1,1.7-0.1h0.5v-0.2c0-0.6-0.2-1-0.5-1.3c-0.4-0.3-0.9-0.5-1.5-0.5c-0.4,0-0.9,0.1-1.3,0.2
			s-0.8,0.4-1.1,0.7L129.9,84z M133.9,87.2c-0.9,0-1.6,0.1-2.1,0.4c-0.5,0.2-0.8,0.6-0.8,1.2c0,0.5,0.2,0.9,0.5,1.1s0.8,0.3,1.3,0.3
			c0.4,0,0.7-0.1,1-0.2s0.5-0.3,0.7-0.5s0.4-0.5,0.5-0.8s0.2-0.6,0.2-1v-0.5H133.9z"/>
		<path class="st4" d="M139.1,84.9c0-0.4,0-0.7,0-1.1s0-0.6,0-0.9h1.3c0,0.2,0,0.4,0,0.7s0,0.4,0,0.7l0,0c0.1-0.2,0.2-0.4,0.4-0.6
			s0.4-0.4,0.6-0.5c0.2-0.1,0.5-0.3,0.8-0.3c0.3-0.1,0.6-0.1,0.9-0.1c0.5,0,1,0.1,1.4,0.2c0.4,0.2,0.7,0.4,1,0.7s0.4,0.6,0.6,1.1
			c0.1,0.4,0.2,0.9,0.2,1.4v5.1h-1.4v-4.9c0-0.7-0.2-1.2-0.5-1.6s-0.8-0.6-1.4-0.6c-0.4,0-0.8,0.1-1.1,0.2s-0.6,0.4-0.8,0.6
			c-0.2,0.3-0.4,0.6-0.5,1s-0.1,0.8-0.1,1.3v4h-1.4V84.9z"/>
		<path class="st4" d="M155.7,89.7L155.7,89.7c-0.3,0.5-0.7,0.9-1.3,1.2s-1.2,0.5-1.9,0.5c-0.6,0-1.1-0.1-1.6-0.3
			c-0.5-0.2-0.9-0.5-1.3-0.9c-0.4-0.4-0.7-0.8-0.9-1.4s-0.3-1.1-0.3-1.7s0.1-1.2,0.3-1.7s0.5-1,0.9-1.4s0.8-0.7,1.4-0.9
			s1.1-0.3,1.8-0.3c0.6,0,1.1,0.1,1.6,0.4c0.5,0.2,0.9,0.6,1.3,1l0,0V78h1.4v13.2h-1.4V89.7z M155.7,87.1c0-0.4-0.1-0.8-0.2-1.2
			c-0.1-0.4-0.3-0.7-0.6-1s-0.6-0.5-0.9-0.6c-0.4-0.2-0.8-0.2-1.2-0.2s-0.8,0.1-1.2,0.2c-0.4,0.2-0.7,0.4-0.9,0.6s-0.5,0.6-0.6,1
			s-0.2,0.8-0.2,1.2c0,0.4,0.1,0.8,0.2,1.2c0.1,0.4,0.3,0.7,0.6,1s0.6,0.5,0.9,0.6c0.4,0.2,0.8,0.2,1.2,0.2s0.8-0.1,1.2-0.2
			c0.4-0.2,0.7-0.4,0.9-0.6s0.5-0.6,0.6-1C155.6,87.9,155.7,87.5,155.7,87.1z"/>
		<path class="st4" d="M168.9,84.1h-2.4v4.1c0,0.3,0,0.5,0,0.7s0.1,0.4,0.1,0.6c0.1,0.2,0.2,0.3,0.4,0.4s0.4,0.1,0.7,0.1
			c0.2,0,0.4,0,0.6-0.1s0.4-0.1,0.6-0.2l0.1,1.2c-0.2,0.1-0.5,0.2-0.8,0.2s-0.6,0.1-0.8,0.1c-0.5,0-0.9-0.1-1.2-0.2
			s-0.5-0.3-0.7-0.5s-0.3-0.5-0.3-0.9s-0.1-0.7-0.1-1.1V84h-1.8v-1h1.8v-2.3h1.4V83h2.4V84.1z"/>
		<path class="st4" d="M170.6,77.9h1.4v6.2l0,0c0.1-0.2,0.2-0.3,0.4-0.5s0.4-0.3,0.6-0.4c0.2-0.1,0.5-0.2,0.8-0.3
			c0.3-0.1,0.6-0.1,0.9-0.1c0.5,0,1,0.1,1.4,0.2c0.4,0.2,0.7,0.4,1,0.7c0.3,0.3,0.4,0.6,0.6,1.1c0.1,0.4,0.2,0.9,0.2,1.4v5.1h-1.4
			v-4.9c0-0.7-0.2-1.2-0.5-1.6s-0.8-0.6-1.4-0.6c-0.4,0-0.8,0.1-1.1,0.2s-0.6,0.4-0.8,0.6c-0.2,0.3-0.4,0.6-0.5,1s-0.1,0.8-0.1,1.3
			v4h-1.4L170.6,77.9L170.6,77.9z"/>
		<path class="st4" d="M187.7,89.7c-0.5,0.6-1,1.1-1.6,1.3s-1.3,0.4-2,0.4c-0.6,0-1.2-0.1-1.7-0.3c-0.5-0.2-0.9-0.5-1.3-0.9
			c-0.4-0.4-0.6-0.8-0.8-1.4c-0.2-0.5-0.3-1.1-0.3-1.7s0.1-1.2,0.3-1.7s0.5-1,0.9-1.4s0.8-0.7,1.3-0.9c0.5-0.2,1.1-0.3,1.7-0.3
			c0.6,0,1.1,0.1,1.6,0.3c0.5,0.2,0.9,0.5,1.2,0.8s0.6,0.8,0.8,1.3s0.3,1.1,0.3,1.8v0.4h-6.6c0,0.3,0.1,0.7,0.3,1
			c0.1,0.3,0.3,0.6,0.6,0.8c0.2,0.2,0.5,0.4,0.8,0.6c0.3,0.1,0.7,0.2,1,0.2c0.6,0,1.1-0.1,1.5-0.3c0.4-0.2,0.8-0.5,1.1-0.9
			L187.7,89.7z M186.5,86.3c0-0.7-0.3-1.3-0.7-1.7c-0.4-0.4-1-0.6-1.8-0.6s-1.4,0.2-1.8,0.6c-0.5,0.4-0.7,1-0.8,1.7H186.5z"/>
		<path class="st4" d="M203.9,81.3c-0.4-0.5-0.8-0.9-1.4-1.1c-0.5-0.3-1.1-0.4-1.7-0.4c-0.7,0-1.3,0.1-1.9,0.4s-1.1,0.7-1.5,1.1
			c-0.4,0.5-0.7,1-1,1.6c-0.2,0.6-0.4,1.3-0.4,2s0.1,1.4,0.4,2c0.2,0.6,0.6,1.2,1,1.6c0.4,0.5,0.9,0.8,1.5,1.1s1.2,0.4,1.9,0.4
			c0.8,0,1.4-0.1,2-0.4s1.1-0.7,1.6-1.3l1.1,0.9c-0.6,0.7-1.2,1.3-2,1.6c-0.8,0.4-1.7,0.5-2.7,0.5c-0.9,0-1.7-0.2-2.5-0.5
			s-1.4-0.8-2-1.4s-1-1.3-1.3-2.1c-0.3-0.8-0.5-1.7-0.5-2.6s0.2-1.8,0.5-2.6c0.3-0.8,0.7-1.5,1.3-2.1s1.2-1,2-1.4
			c0.8-0.3,1.6-0.5,2.5-0.5c0.8,0,1.7,0.2,2.4,0.5s1.4,0.8,2,1.5L203.9,81.3z"/>
		<path class="st4" d="M207.2,84c0.4-0.4,0.9-0.8,1.5-1s1.2-0.3,1.8-0.3c1.2,0,2.1,0.3,2.6,0.9s0.8,1.4,0.8,2.6v3.5
			c0,0.2,0,0.5,0,0.7c0,0.3,0.1,0.5,0.1,0.7h-1.3c0-0.2-0.1-0.4-0.1-0.6s0-0.4,0-0.6l0,0c-0.3,0.4-0.6,0.8-1.1,1s-1,0.4-1.6,0.4
			c-0.4,0-0.8-0.1-1.2-0.2s-0.7-0.3-1-0.5s-0.5-0.5-0.7-0.8s-0.2-0.7-0.2-1.1c0-0.7,0.2-1.2,0.5-1.6c0.4-0.4,0.8-0.7,1.3-0.9
			c0.5-0.2,1.1-0.3,1.7-0.4c0.6,0,1.2-0.1,1.7-0.1h0.5v-0.2c0-0.6-0.2-1-0.5-1.3s-0.9-0.5-1.5-0.5c-0.4,0-0.9,0.1-1.3,0.2
			c-0.4,0.1-0.8,0.4-1.1,0.7L207.2,84z M211.2,87.2c-0.9,0-1.6,0.1-2.1,0.4c-0.5,0.2-0.8,0.6-0.8,1.2c0,0.5,0.2,0.9,0.5,1.1
			s0.8,0.3,1.3,0.3c0.4,0,0.7-0.1,1-0.2s0.5-0.3,0.7-0.5s0.4-0.5,0.5-0.8s0.2-0.6,0.2-1v-0.5H211.2z"/>
		<path class="st4" d="M216.4,84.9c0-0.4,0-0.7,0-1.1c0-0.3,0-0.6,0-0.9h1.3c0,0.2,0,0.4,0,0.7s0,0.4,0,0.7l0,0
			c0.1-0.2,0.2-0.4,0.4-0.6s0.4-0.4,0.6-0.5c0.2-0.1,0.5-0.3,0.8-0.3c0.3-0.1,0.6-0.1,0.9-0.1c0.1,0,0.2,0,0.3,0s0.2,0,0.3,0.1
			l-0.1,1.4c-0.2-0.1-0.5-0.1-0.7-0.1c-0.8,0-1.5,0.3-1.8,0.8c-0.4,0.5-0.6,1.3-0.6,2.2v4h-1.4V84.9z"/>
		<path class="st4" d="M222.4,79.7c0-0.3,0.1-0.5,0.3-0.7s0.4-0.3,0.7-0.3s0.5,0.1,0.7,0.3c0.2,0.2,0.3,0.4,0.3,0.7
			c0,0.3-0.1,0.5-0.3,0.7s-0.4,0.3-0.7,0.3s-0.5-0.1-0.7-0.3S222.4,80,222.4,79.7z M222.7,83h1.4v8.2h-1.4V83z"/>
		<path class="st4" d="M226.7,77.9h1.4v6.2l0,0c0.4-0.4,0.8-0.8,1.3-1s1-0.4,1.6-0.4s1.2,0.1,1.8,0.3c0.5,0.2,1,0.5,1.4,0.9
			s0.7,0.8,0.9,1.4s0.3,1.1,0.3,1.7s-0.1,1.2-0.3,1.7s-0.5,1-0.9,1.4s-0.8,0.7-1.3,0.9c-0.5,0.2-1,0.3-1.6,0.3
			c-0.7,0-1.4-0.2-1.9-0.5s-1-0.7-1.2-1.2l0,0v1.5h-1.4V77.9H226.7z M228.1,87.1c0,0.4,0.1,0.8,0.2,1.2c0.1,0.4,0.3,0.7,0.6,1
			s0.6,0.5,0.9,0.6c0.4,0.2,0.8,0.2,1.2,0.2s0.8-0.1,1.2-0.2c0.4-0.2,0.7-0.4,0.9-0.6s0.5-0.6,0.6-1s0.2-0.8,0.2-1.2
			c0-0.4-0.1-0.8-0.2-1.2c-0.1-0.4-0.3-0.7-0.6-1s-0.6-0.5-0.9-0.6c-0.4-0.2-0.8-0.2-1.2-0.2s-0.8,0.1-1.2,0.2
			c-0.4,0.2-0.7,0.4-0.9,0.6s-0.5,0.6-0.6,1C228.1,86.2,228.1,86.6,228.1,87.1z"/>
		<path class="st4" d="M237.4,77.9h1.4v6.2l0,0c0.4-0.4,0.8-0.8,1.3-1s1-0.4,1.6-0.4s1.2,0.1,1.8,0.3c0.5,0.2,1,0.5,1.4,0.9
			s0.7,0.8,0.9,1.4s0.3,1.1,0.3,1.7s-0.1,1.2-0.3,1.7s-0.5,1-0.9,1.4s-0.8,0.7-1.3,0.9c-0.5,0.2-1,0.3-1.6,0.3
			c-0.7,0-1.4-0.2-1.9-0.5s-1-0.7-1.2-1.2l0,0v1.5h-1.4L237.4,77.9L237.4,77.9z M238.8,87.1c0,0.4,0.1,0.8,0.2,1.2
			c0.1,0.4,0.3,0.7,0.6,1s0.6,0.5,0.9,0.6c0.4,0.2,0.8,0.2,1.2,0.2s0.8-0.1,1.2-0.2c0.4-0.2,0.7-0.4,0.9-0.6s0.5-0.6,0.6-1
			s0.2-0.8,0.2-1.2c0-0.4-0.1-0.8-0.2-1.2c-0.1-0.4-0.3-0.7-0.6-1s-0.6-0.5-0.9-0.6c-0.4-0.2-0.8-0.2-1.2-0.2s-0.8,0.1-1.2,0.2
			c-0.4,0.2-0.7,0.4-0.9,0.6s-0.5,0.6-0.6,1C238.9,86.2,238.8,86.6,238.8,87.1z"/>
		<path class="st4" d="M255.5,89.7c-0.5,0.6-1,1.1-1.6,1.3s-1.3,0.4-2,0.4c-0.6,0-1.2-0.1-1.7-0.3c-0.5-0.2-0.9-0.5-1.3-0.9
			s-0.6-0.8-0.8-1.4c-0.2-0.5-0.3-1.1-0.3-1.7s0.1-1.2,0.3-1.7s0.5-1,0.9-1.4s0.8-0.7,1.3-0.9c0.5-0.2,1.1-0.3,1.7-0.3
			s1.1,0.1,1.6,0.3c0.5,0.2,0.9,0.5,1.2,0.8s0.6,0.8,0.8,1.3c0.2,0.5,0.3,1.1,0.3,1.8v0.4h-6.6c0,0.3,0.1,0.7,0.3,1
			c0.1,0.3,0.3,0.6,0.6,0.8c0.2,0.2,0.5,0.4,0.8,0.6c0.3,0.1,0.7,0.2,1,0.2c0.6,0,1.1-0.1,1.5-0.3c0.4-0.2,0.8-0.5,1.1-0.9
			L255.5,89.7z M254.3,86.3c0-0.7-0.3-1.3-0.7-1.7c-0.4-0.4-1-0.6-1.8-0.6s-1.4,0.2-1.8,0.6c-0.5,0.4-0.7,1-0.8,1.7H254.3z"/>
		<path class="st4" d="M257.8,84c0.4-0.4,0.9-0.8,1.5-1s1.2-0.3,1.8-0.3c1.2,0,2.1,0.3,2.6,0.9s0.8,1.4,0.8,2.6v3.5
			c0,0.2,0,0.5,0,0.7c0,0.3,0.1,0.5,0.1,0.7h-1.3c0-0.2-0.1-0.4-0.1-0.6s0-0.4,0-0.6l0,0c-0.3,0.4-0.6,0.8-1.1,1s-1,0.4-1.6,0.4
			c-0.4,0-0.8-0.1-1.2-0.2c-0.4-0.1-0.7-0.3-1-0.5s-0.5-0.5-0.7-0.8s-0.2-0.7-0.2-1.1c0-0.7,0.2-1.2,0.5-1.6
			c0.4-0.4,0.8-0.7,1.3-0.9c0.5-0.2,1.1-0.3,1.7-0.4c0.6,0,1.2-0.1,1.7-0.1h0.5v-0.2c0-0.6-0.2-1-0.5-1.3s-0.9-0.5-1.5-0.5
			c-0.4,0-0.9,0.1-1.3,0.2s-0.8,0.4-1.1,0.7L257.8,84z M261.8,87.2c-0.9,0-1.6,0.1-2.1,0.4c-0.5,0.2-0.8,0.6-0.8,1.2
			c0,0.5,0.2,0.9,0.5,1.1s0.8,0.3,1.3,0.3c0.4,0,0.7-0.1,1-0.2s0.5-0.3,0.7-0.5s0.4-0.5,0.5-0.8s0.2-0.6,0.2-1v-0.5H261.8z"/>
		<path class="st4" d="M267,84.9c0-0.4,0-0.7,0-1.1c0-0.3,0-0.6,0-0.9h1.3c0,0.2,0,0.4,0,0.7s0,0.4,0,0.7l0,0
			c0.1-0.2,0.2-0.4,0.4-0.6c0.2-0.2,0.4-0.4,0.6-0.5s0.5-0.3,0.8-0.3c0.3-0.1,0.6-0.1,0.9-0.1c0.5,0,1,0.1,1.4,0.2
			c0.4,0.2,0.7,0.4,1,0.7c0.3,0.3,0.4,0.6,0.6,1.1c0.1,0.4,0.2,0.9,0.2,1.4v5.1h-1.4v-4.9c0-0.7-0.2-1.2-0.5-1.6s-0.8-0.6-1.4-0.6
			c-0.4,0-0.8,0.1-1.1,0.2s-0.6,0.4-0.8,0.6c-0.2,0.3-0.4,0.6-0.5,1s-0.1,0.8-0.1,1.3v4H267V84.9z"/>
	</g>
	<g>
		<path class="st0" d="M1.6,46.3h6.7v22.5c0,0-6.7-1.9-6.7-6.6S1.6,46.3,1.6,46.3z"/>
		<circle class="st0" cx="4.9" cy="39.8" r="4"/>
		<path class="st4" d="M164.9,46.3h6.7v22.5c0,0-6.7-1.9-6.7-6.6S164.9,46.3,164.9,46.3z"/>
		<circle class="st4" cx="168.3" cy="39.8" r="4"/>
		<path class="st0" d="M12.7,46.3h6.9v2.5h0.5c0,0,1.2-3,7.2-3c4.1,0,5.2,1.8,5.8,3c0.9,1.7,1,3.5,1,7.6s0,12.3,0,12.3h-6.9V54.1
			c0,0-0.8-3-3.8-3c-2.4,0-3.7,1.8-3.9,2.8v14.9c0,0-6.8-1.3-6.8-6.1S12.7,46.3,12.7,46.3z"/>
		<path class="st4" d="M278.4,46.3h6.9v2.5h0.5c0,0,1.2-3,7.2-3c4.1,0,5.2,1.8,5.8,3c0.9,1.7,1,3.5,1,7.6s0,12.3,0,12.3h-6.9V54.1
			c0,0-0.8-3-3.8-3c-2.4,0-3.7,1.8-3.9,2.8v14.9c0,0-6.8-1.3-6.8-6.1S278.4,46.3,278.4,46.3z"/>
		<path class="st0" d="M39.4,46.3v-5.4h7.3v5.4h5.1v5.5h-5.3v9.1c0,0-0.3,2,1.5,2s3.8,0,3.8,0v5c0,0-2.3,0-5.5,0s-6.9-1.5-6.9-5.4
			s0-10.7,0-10.7h-3.3v-5.5H39.4z"/>
		<path class="st0" d="M63.4,56.9"/>
		<path class="st0" d="M64.7,63.3c-4,0-5.6-4.2-5.6-4.2s11.7,0,16.3,0c0.1-0.6,0.2-1.2,0.2-1.8c0-6.4-5-11.5-11.2-11.5
			S53.2,51,53.2,57.3s5,11.5,11.2,11.5c3.9,0,7.4-2.1,9.4-5.2l-3.2-3C70.5,60.6,68.7,63.3,64.7,63.3z M64.6,50.1
			c4.5,0,4.8,4.8,4.8,4.8h-10C59.4,54.9,60.2,50.1,64.6,50.1z"/>
		<path class="st4" d="M241.2,63.3c-4,0-5.6-4.2-5.6-4.2s11.7,0,16.3,0c0.1-0.6,0.2-1.2,0.2-1.8c0-6.4-5-11.5-11.2-11.5
			s-11.2,5.2-11.2,11.5s5,11.5,11.2,11.5c3.9,0,7.4-2.1,9.4-5.2l-3.2-3C247,60.6,245.2,63.3,241.2,63.3z M241.1,50.1
			c4.5,0,4.8,4.8,4.8,4.8h-10C235.9,54.9,236.7,50.1,241.1,50.1z"/>
		<path class="st0" d="M79.1,46.3h6.2v3.2l1.9-1.6c0.5-0.6,3.1-2,5.3-2v6.2h-2.4c0,0-4.7-0.2-4.7,3.8s0,12.8,0,12.8S79,66.2,79,62.3
			C79.1,58.4,79.1,46.3,79.1,46.3z"/>
		<path class="st4" d="M148.4,46.3h6.2v3.2l1.9-1.6c0.5-0.6,3.1-2,5.3-2v6.2h-2.4c0,0-4.7-0.2-4.7,3.8s0,12.8,0,12.8
			s-6.4-2.5-6.4-6.4C148.4,58.4,148.4,46.3,148.4,46.3z"/>
		<path class="st4" d="M111,62.5c-5.2,0-9.4-4.2-9.4-9.4s4.2-9.4,9.4-9.4c2.6,0,4.9,1,6.6,2.7c1.6-1.6,3.3-3.4,4.9-5
			c-3-2.9-7-4.7-11.5-4.7c-9.1,0-16.5,7.4-16.5,16.5s7.4,16.5,16.5,16.5c4.9,0,9.4-2.2,12.4-5.7l-5.2-4.7
			C116.4,61.1,113.9,62.5,111,62.5z"/>
		<path class="st4" d="M142.6,48.9c-1.4-1.7-3.3-2.6-8.2-2.6s-9.1,2.6-9.1,2.6l3,4.1c9.6-5.8,9.6,1.9,9.6,1.9
			c-13.1,0-13.4,4.5-13.4,6.9c0,2.4,0.2,7,6.5,7s7.4-3.1,7.4-3.1v3h6c0,0,0-7.8,0-11.9C144.6,52.8,143.9,50.5,142.6,48.9z
			 M134.3,64.3c-4.5,0-4.2-2.8-4.2-2.8s-0.8-2.8,8.3-2.8V61C138.4,60.8,138.8,64.3,134.3,64.3z"/>
		<path class="st4" d="M271.8,48.9c-1.4-1.7-3.3-2.6-8.2-2.6c-4.8,0-9.1,2.6-9.1,2.6l3,4.1c9.6-5.8,9.6,1.9,9.6,1.9
			c-13.1,0-13.4,4.5-13.4,6.9c0,2.4,0.2,7,6.5,7s7.4-3.1,7.4-3.1v3h6c0,0,0-7.8,0-11.9C273.8,52.8,273.1,50.5,271.8,48.9z
			 M263.6,64.3c-4.5,0-4.2-2.8-4.2-2.8s-0.8-2.8,8.3-2.8V61C267.7,60.8,268.1,64.3,263.6,64.3z"/>
		<path class="st4" d="M189.7,45.8c-2.6,0-4.9,1.1-6.7,2.8v-7c0,0,0.1-6.6-6.4-6.6v33.3h6.4v-1.9c1.8,1.7,4.1,2.8,6.7,2.8
			c5.8,0,10.4-5.2,10.4-11.7C200.2,51.1,195.5,45.8,189.7,45.8z M188.9,62.9c-2.6,0-4.8-2.4-4.8-5.3c0-2.9,2.1-5.3,4.8-5.3
			s4.8,2.4,4.8,5.3S191.6,62.9,188.9,62.9z"/>
		<path class="st4" d="M216.2,45.8c-2.6,0-4.9,1.1-6.7,2.8v-7c0,0,0.1-6.6-6.4-6.6v33.3h6.4v-1.9c1.8,1.7,4.1,2.8,6.7,2.8
			c5.8,0,10.4-5.2,10.4-11.7C226.7,51.1,222,45.8,216.2,45.8z M215.4,62.9c-2.6,0-4.8-2.4-4.8-5.3c0-2.9,2.1-5.3,4.8-5.3
			s4.8,2.4,4.8,5.3S218.1,62.9,215.4,62.9z"/>
	</g>
</g>
</svg>
