<?xml version="1.0" encoding="UTF-8"?>
<svg width="179px" height="21px" viewBox="0 0 179 21" version="1.1" xmlns="http://www.w3.org/2000/svg" xmlns:xlink="http://www.w3.org/1999/xlink">
    <!-- Generator: Sketch 49.1 (51147) - http://www.bohemiancoding.com/sketch -->
    <title>Korean_Air_s</title>
    <desc>Created with Sketch.</desc>
    <defs></defs>
    <g id="AVIA" stroke="none" stroke-width="1" fill="none" fill-rule="evenodd">
        <g id="Korean_Air_s" transform="translate(0.000000, -1.000000)">
            <path d="M56.5435429,2.27316667 C56.5435429,2.27316667 47.6894357,2.93377778 42.9178071,2.49294444 C42.9178071,2.49294444 42.3539571,2.3345 42.1966929,2.99383333 C42.1966929,2.99383333 41.8821643,3.496 42.3859214,3.83716667 C42.8871214,4.18344444 44.32935,5.03061111 44.32935,8.17138889 C44.32935,11.3096111 44.32935,14.2267778 44.32935,14.2267778 C44.32935,14.2267778 44.61575,17.5541111 42.3232714,18.8076111 C42.3232714,18.8076111 41.8489214,18.9635 42.1046357,19.6202778 C42.1046357,19.6202778 42.1314857,20.217 42.7950643,20.125 C43.4496929,20.0342778 47.1562714,19.7455 52.2437071,20.0956111 C52.2437071,20.0956111 52.6809786,20.125 52.8075571,19.8438889 C52.9354143,19.5589444 52.9648214,19.5282778 52.9648214,19.5282778 C52.9648214,19.5282778 53.4033714,19.0874444 52.7461857,18.6478889 C52.0838857,18.2108889 50.9855929,17.5541111 50.8922571,14.7621667 C50.7989214,11.9663889 50.8922571,11.9050556 50.8922571,11.9050556 L51.3001214,11.9050556 C51.3001214,11.9050556 52.7129429,11.776 53.65525,13.915 C53.65525,13.915 55.4772143,18.3054444 55.7585,18.837 C56.0410643,19.3736667 56.5767857,20.5006667 58.5572929,20.3153889 C60.5326857,20.125 69.76525,19.4682222 79.5539929,20.3422222 C79.5539929,20.3422222 80.6203214,20.5006667 81.0333,19.4682222 C81.0333,19.4682222 82.7222929,14.9180556 83.1352714,14.1999444 C83.1352714,14.1999444 86.7127143,14.1002778 88.6587,14.1309444 C88.6587,14.1309444 89.3810929,15.3550556 89.3810929,16.8321667 C89.3810929,18.3054444 88.0922929,18.6478889 88.0922929,18.6478889 C88.0922929,18.6478889 87.5629643,18.8715 87.8135643,19.5282778 C87.8135643,19.5282778 87.9056214,20.1595 88.5334,20.0956111 C89.1599,20.0342778 94.7817786,19.4950556 103.261264,20.0342778 C103.261264,20.0342778 103.823836,20.2540556 104.013064,19.4950556 C104.013064,19.4950556 104.355721,18.8983333 103.761186,18.6210556 C103.761186,18.6210556 101.530079,18.1150556 101.530079,14.5717778 C101.530079,11.0285 101.562043,8.51766667 101.562043,8.51766667 C101.562043,8.51766667 103.261264,10.9339444 105.267343,14.5385556 C107.2747,18.1495556 108.344864,19.6841667 108.344864,19.6841667 C108.344864,19.6841667 109.349821,21.6327778 111.323936,20.5965 C113.307,19.5589444 115.4371,18.3667778 116.664529,17.5196111 C116.664529,17.5196111 117.1376,17.2998333 116.883164,16.7031111 L116.695214,16.33 C116.695214,16.33 116.664529,16.1102222 116.00095,16.0450556 C116.00095,16.0450556 114.530593,16.3951667 114.499907,14.2868333 C114.465386,12.1874444 114.374607,9.21277778 114.499907,6.16655556 C114.499907,6.16655556 114.554886,4.278 116.289907,3.74644444 C116.289907,3.74644444 116.912571,3.68511111 116.632564,2.93377778 L116.442057,2.55044444 C116.442057,2.55044444 116.442057,2.2425 116.00095,2.30255556 C115.566236,2.37155556 113.116493,2.5875 110.509486,2.37155556 C110.509486,2.37155556 109.944357,2.37155556 109.882986,2.99383333 C109.882986,2.99383333 109.725721,3.55988889 110.166829,3.74644444 C110.602821,3.93683333 112.146057,4.50288889 112.238114,6.91405556 C112.334007,9.33033333 112.362136,12.6870556 112.362136,12.6870556 C112.362136,12.6870556 108.782136,7.41622222 106.490936,3.37461111 C106.490936,3.37461111 106.115036,2.27316667 104.762307,2.37155556 C103.41725,2.46227778 100.185021,2.61433333 97.8286143,2.39838889 C97.8286143,2.39838889 97.1688714,2.30255556 97.0768143,3.05516667 C97.0768143,3.05516667 96.8875857,3.71705556 97.4501571,3.99688889 C97.4501571,3.99688889 99.3373286,5.19033333 99.3373286,5.59666667 C99.3373286,6.00683333 99.3053643,14.352 99.3053643,14.352 C99.3053643,14.352 99.46135,17.7700556 98.54845,17.3330556 C98.54845,17.3330556 98.0140071,17.6793333 96.7277643,15.3205556 C95.4415214,12.9732778 93.7781,9.61527778 91.0803143,3.08966667 C91.0803143,3.08966667 90.5139071,1.27011111 89.3504071,1.27011111 C89.3504071,1.27011111 88.6587,1.30077778 87.9375857,1.70711111 C87.2139143,2.11344444 84.92655,3.39761111 82.5356214,4.09272222 C82.5356214,4.09272222 81.9091214,4.278 82.0970714,4.90538889 C82.0970714,4.90538889 82.0037357,5.37944444 82.6954429,5.63116667 C83.3858714,5.87777778 83.9804071,6.16655556 84.1683571,6.50772222 C84.1683571,6.50772222 83.4485214,8.82944444 82.1252,11.2137778 C80.80955,13.5993889 79.1192786,17.5541111 74.2504786,17.5541111 L72.3364571,17.5541111 C72.3364571,17.5541111 71.8327,17.618 71.8327,16.9228889 C71.8327,16.2354444 71.8327,11.8756667 71.8327,11.8756667 L73.0908143,11.8756667 C73.0908143,11.8756667 75.1314143,11.4348333 76.0992929,14.0708889 C76.0992929,14.0708889 76.2910786,14.8835556 76.9815071,14.5717778 C76.9815071,14.5717778 77.7652714,14.4759444 77.7013429,13.6901111 C77.64125,12.9042778 77.5773214,10.7742222 77.7358643,8.8895 C77.7358643,8.8895 77.7985143,8.33111111 77.1694571,8.20205556 C77.1694571,8.20205556 76.6669786,7.95161111 76.2910786,8.35794444 C75.9164571,8.76811111 75.1314143,9.74433333 73.3375786,9.74433333 C71.5488571,9.74433333 71.8608286,9.74433333 71.8608286,9.74433333 L71.8608286,5.03061111 C71.8608286,5.03061111 71.8327,4.71883333 72.0526143,4.692 C72.2738071,4.65366667 75.0061143,3.99688889 76.6043286,5.28872222 C78.2025429,6.57288889 78.2984357,7.10444444 78.64365,7.57466667 C78.64365,7.57466667 78.9607357,8.35794444 79.7751857,7.82638889 C79.7751857,7.82638889 80.4042429,7.73438889 80.0858786,6.75944444 C79.7751857,5.78705556 79.68185,5.44077778 79.1461286,2.99383333 C79.1461286,2.99383333 79.0502357,1.95755556 77.9877429,2.05594444 C76.9188571,2.14794444 70.2293714,2.93377778 63.9503071,2.42905556 C63.9503071,2.42905556 63.2944,2.27316667 63.1716571,2.96444444 C63.1716571,2.96444444 62.8852571,3.43594444 63.4184214,3.87166667 C63.4184214,3.87166667 65.2710714,4.71883333 65.2710714,7.98483333 C65.2710714,11.2444444 65.2710714,13.4396667 65.2710714,13.4396667 C65.2710714,13.4396667 65.5868786,17.7700556 64.0487571,17.7700556 C64.0487571,17.7700556 63.3890143,18.055 62.2562,15.8214444 C61.1297786,13.5993889 61.06585,13.5355 61.06585,13.5355 C61.06585,13.5355 60.1516714,10.6183333 56.2290143,10.4931111 C56.2290143,10.4931111 61.6591071,9.58461111 61.1591857,5.50594444 C61.1591857,5.50594444 61.06585,2.39838889 56.9833714,2.27316667 L56.5435429,2.27316667 Z M50.8641286,9.96027778 L50.8641286,6.8885 C50.8641286,6.8885 50.8922571,4.59361111 52.7129429,4.59361111 C54.5336286,4.59361111 54.3047643,6.82333333 54.3188286,7.10444444 C54.3341714,7.38555556 54.2203786,9.96027778 50.8641286,9.96027778 Z M84.0737429,12.0264444 C84.0737429,12.0264444 85.2385214,9.29966667 85.7384429,8.51766667 C85.7384429,8.51766667 87.1538214,10.4547778 87.6537429,12.0647778 C87.6537429,12.0647778 86.0516929,12.3152222 84.0737429,12.0264444 Z" id="Fill-2" fill="#15468A"></path>
            <path d="M144.795657,13.3796111 C144.795657,13.3796111 144.923514,17.4889444 143.381557,17.2078333 C143.381557,17.2078333 142.848393,17.5541111 141.559593,15.1991667 C140.274629,12.8480556 138.60865,9.49005556 135.90575,2.96444444 C135.90575,2.96444444 135.343179,1.14105556 134.183514,1.14105556 C134.183514,1.14105556 133.491807,1.17427778 132.769414,1.58188889 C132.0483,1.99205556 129.751986,3.27494444 127.368729,3.96622222 C127.368729,3.96622222 126.742229,4.15661111 126.930179,4.784 C126.930179,4.784 126.838121,5.25038889 127.527271,5.50594444 C128.216421,5.75255556 128.81735,6.03622222 129.004021,6.3825 C129.004021,6.3825 128.281629,8.70294444 126.962143,11.0885556 C125.641379,13.4741667 124.480436,16.9573889 121.373507,18.5252222 C121.373507,18.5252222 120.7713,18.6517222 120.9682,19.3736667 C121.183,20.1888889 121.592143,19.9691111 121.592143,19.9691111 C125.202829,19.5896111 126.299843,19.9077778 127.118129,19.9691111 C127.933857,20.0342778 127.809836,19.3736667 127.809836,19.3736667 C128.02975,18.9635 127.745907,18.7156111 127.745907,18.7156111 L127.401971,18.2722222 C127.401971,18.2722222 126.050521,17.9297778 127.965821,14.0708889 C127.965821,14.0708889 131.545821,13.9750556 133.491807,14.0057222 C133.491807,14.0057222 134.212921,15.2336667 134.212921,16.7031111 C134.212921,18.1763889 132.926679,18.5252222 132.926679,18.5252222 C132.926679,18.5252222 132.389679,18.7424444 132.644114,19.4030556 C132.644114,19.4030556 132.736171,20.0342778 133.365229,19.9691111 C133.994286,19.9077778 144.415921,19.4682222 152.895407,19.9997778 C152.895407,19.9997778 153.489943,20.0342778 153.647207,19.4950556 C153.647207,19.4950556 153.9937,18.837 153.396607,18.4613333 C153.396607,18.4613333 151.731907,17.71 151.607886,15.0432778 C151.477471,12.3727222 151.513271,7.32038889 151.513271,7.32038889 C151.513271,7.32038889 151.386693,4.50288889 153.174136,3.62122222 C153.174136,3.62122222 153.647207,3.39761111 153.396607,2.77788889 C153.396607,2.77788889 153.271307,2.17733333 152.706179,2.2425 C152.135936,2.30255556 146.208479,2.61433333 143.412243,2.27316667 C143.412243,2.27316667 142.785743,2.2425 142.655329,2.77788889 C142.655329,2.77788889 142.344636,3.27494444 142.880357,3.68511111 C143.412243,4.09272222 144.795657,5.03061111 144.795657,7.95161111 C144.795657,10.8687778 144.795657,13.3796111 144.795657,13.3796111 Z M130.57155,8.29661111 C132.268214,10.7128889 132.488129,11.845 132.488129,11.845 C131.1354,12.0647778 128.90685,11.8105 128.90685,11.8105 C129.570429,10.0548333 130.57155,8.29661111 130.57155,8.29661111 Z" id="Fill-3" fill="#15468A"></path>
            <path d="M169.785336,2.01888889 C169.785336,2.01888889 162.877214,2.83922222 156.471571,2.208 C156.471571,2.208 155.652007,1.99205556 155.561229,2.83922222 C155.561229,2.83922222 155.496021,3.39761111 155.845071,3.62122222 C156.190286,3.83716667 157.60055,4.692 157.695164,7.636 C157.789779,10.5876667 157.85115,9.74433333 157.789779,13.7552778 C157.789779,13.7552778 158.0391,17.618 155.845071,18.5533333 C155.845071,18.5533333 155.278664,18.6772778 155.59575,19.4950556 C155.59575,19.4950556 155.779864,20.125 156.315586,19.9077778 C156.315586,19.9077778 161.465671,19.5589444 165.921493,19.9358889 C165.921493,19.9358889 166.421414,20.125 166.581236,19.4682222 C166.581236,19.4682222 166.990379,19.0273889 166.358764,18.5533333 C165.733543,18.0856667 164.59945,17.2691667 164.479264,15.2937222 C164.350129,13.3182778 164.382093,11.7491667 164.382093,11.7491667 L164.825757,11.7491667 C164.825757,11.7491667 166.29995,11.5600556 167.303629,13.8805 C168.307307,16.2022222 168.999014,17.8991111 168.999014,17.8991111 C168.999014,17.8991111 169.660036,19.7455 170.723807,20.3422222 C170.723807,20.3422222 171.161079,20.7562222 172.795093,20.5658333 C172.795093,20.5658333 175.463471,20.4061111 178.101164,19.1832778 C178.101164,19.1832778 178.698257,19.0580556 178.511586,18.3667778 C178.511586,18.3667778 178.635607,17.8390556 177.88125,17.6793333 C177.128171,17.5196111 176.5656,16.7976667 176.029879,15.7294444 C175.497993,14.6625 174.67715,13.0985 174.67715,13.0985 C174.67715,13.0985 173.582693,10.3704444 170.000136,10.3333889 C170.000136,10.3333889 174.931586,9.49005556 174.931586,5.78705556 C174.931586,2.08661111 170.534579,2.01888889 170.534579,2.01888889 L169.785336,2.01888889 Z M164.382093,9.83122222 L164.382093,6.75944444 C164.382093,6.75944444 164.446021,4.47222222 166.173371,4.47222222 C167.898164,4.47222222 167.930129,6.40933333 167.838071,7.04311111 C167.753686,7.67816667 167.584914,9.83122222 164.382093,9.83122222 Z" id="Fill-4" fill="#15468A"></path>
            <path d="M41.9716643,11.4271667 C41.9716643,17.1669444 37.3112714,21.8231667 31.5640929,21.8231667 C25.8181929,21.8231667 21.1565214,17.1669444 21.1565214,11.4271667 C21.1565214,5.67972222 25.8181929,1.02222222 31.5640929,1.02222222 C37.3112714,1.02222222 41.9716643,5.67972222 41.9716643,11.4271667" id="Fill-5" fill="#FFFFFE"></path>
            <path d="M36.0378143,5.15583333 C39.2073929,6.13205556 41.5075429,9.08244444 41.5075429,12.5707778 C41.5075429,13.0755 41.4602357,13.5776667 41.3669,14.0555556 L41.3541143,14.1245556 C41.1150214,15.4905 40.5562857,16.7516667 39.7622929,17.8275556 L39.7533429,17.8390556 C41.14315,16.0757222 41.9729429,13.8421667 41.9729429,11.4233333 C41.9729429,5.67205556 37.3112714,1.01966667 31.5640929,1.01966667 C28.9417429,1.01966667 26.5469786,1.98055556 24.7173429,3.58033333 L24.6943286,3.59822222 C23.2508214,4.91688889 22.34815,6.8195 22.34815,8.92783333 C22.34815,9.80566667 22.5054143,10.6362222 22.7892571,11.4156667 L22.8058786,11.4501667 C23.5257143,13.0371667 25.1264857,14.1386111 26.98425,14.1386111 C29.5222143,14.1386111 31.5756,12.0839444 31.5756,9.55011111 L31.5640929,7.5785 C31.5640929,6.66744444 32.0704071,5.87777778 32.8183714,5.47144444 L32.8260429,5.46761111 C33.4077929,5.14433333 34.0764857,4.96544444 34.7912071,4.96544444 C35.2208071,4.96544444 35.6427357,5.03061111 36.0339786,5.152 L36.0378143,5.15583333" id="Fill-6" fill="#D8232A"></path>
            <path d="M23.5947571,18.1112222 C25.49855,20.3907778 28.3676643,21.8385 31.5679286,21.8385 C34.1864429,21.8385 36.5773714,20.8661111 38.4095643,19.2701667 L38.4364143,19.2471667 C39.8760857,17.9221111 40.7813143,16.0271667 40.7813143,13.915 C40.7813143,13.0486667 40.6253286,12.2091667 40.3402071,11.4348333 L40.3248643,11.3965 C39.5999143,9.80822222 38.0029786,8.70294444 36.1439357,8.70294444 C33.6059714,8.70294444 31.5525857,10.7627222 31.5525857,13.2914444 L31.5679286,15.2707222 C31.5679286,16.1817778 31.0590571,16.9688889 30.31365,17.3752222 L30.3047,17.3752222 C29.72295,17.7010556 29.0555357,17.8837778 28.3369786,17.8837778 C27.9061,17.8837778 27.4905643,17.8160556 27.0942071,17.6933889 L27.0942071,17.6908333 C23.9246286,16.7184444 21.6219214,13.7629444 21.6219214,10.2758889 C21.6219214,9.76733333 21.6692286,9.27283333 21.7664,8.79111111 L21.7740714,8.72211111 C22.017,7.35488889 22.5706214,6.09372222 23.3646143,5.02294444 L23.3735643,4.99994444 C21.9863143,6.7735 21.1565214,9.0045 21.1565214,11.4271667 C21.1565214,13.0985 21.5516,14.674 22.2522571,16.0795556 L22.1665929,16.1408889 C22.1665929,16.1408889 21.7600071,16.4565 20.9455571,15.5135 C20.1259929,14.5717778 15.3236786,8.76811111 15.3236786,8.76811111 C15.3236786,8.76811111 18.3654,5.50594444 21.3521429,4.18344444 C21.3521429,4.18344444 22.1384643,3.93683333 21.9492357,3.24555556 L21.8201,2.83922222 C21.8201,2.83922222 21.7906929,2.39838889 21.0977071,2.49294444 C20.4098357,2.5875 17.1405286,2.83922222 13.8788929,2.51977778 C13.8788929,2.51977778 13.3738571,2.51977778 13.1871857,2.93377778 C13.1871857,2.93377778 12.8726571,3.46533333 13.1871857,3.77711111 C13.5029929,4.09272222 14.6306929,4.87472222 14.6306929,5.94166667 C14.6306929,5.94166667 14.8825714,6.72877778 13.1577786,7.98483333 C11.4278714,9.23577778 10.3641,10.0548333 9.64170714,10.4279444 L9.67239286,7.48394444 C9.67239286,7.48394444 9.5765,4.99994444 11.3690571,3.83716667 C11.3690571,3.83716667 11.8076071,3.65572222 11.6490643,3.24555556 L11.5250429,2.93377778 C11.5250429,2.93377778 11.4278714,2.42905556 10.8959857,2.49294444 C10.8959857,2.49294444 7.78522143,2.83922222 1.60332857,2.55044444 C1.60332857,2.55044444 1.19674286,2.51977778 1.03564286,2.83922222 L0.911621429,3.08966667 C0.911621429,3.08966667 0.694264286,3.65572222 1.03564286,3.90616667 C1.38469286,4.15661111 2.82692143,4.99994444 2.89212857,7.60533333 C2.89212857,7.60533333 3.04939286,12.5286111 2.82692143,14.4465556 C2.60828571,16.3606667 2.4523,17.4582778 0.911621429,18.8076111 C0.911621429,18.8076111 0.505035714,19.1219444 0.694264286,19.5896111 L0.911621429,19.9997778 C0.911621429,19.9997778 1.06888571,20.3153889 1.60332857,20.2540556 C2.13905,20.1888889 6.00161429,19.8093889 10.8959857,20.1888889 C10.8959857,20.1888889 11.2412,20.3153889 11.3984643,19.9691111 L11.6183786,19.5282778 C11.6183786,19.5282778 11.8728143,19.0874444 11.3984643,18.7424444 C10.9305071,18.4 9.67239286,17.3943889 9.64170714,15.4496111 C9.61102143,13.5048333 9.61102143,12.2781667 9.61102143,12.2781667 C9.61102143,12.2781667 10.4548786,12.6231667 14.9771857,19.3085 C14.9771857,19.3085 16.5817929,22.195 19.9700071,20.4061111 C19.9700071,20.4061111 22.4504357,19.0580556 23.4873571,18.1763889 L23.5947571,18.1112222" id="Fill-7" fill="#15468A"></path>
        </g>
    </g>
</svg>