<?xml version="1.0" encoding="utf-8"?>
<!-- Generator: Adobe Illustrator 22.1.0, SVG Export Plug-In . SVG Version: 6.00 Build 0)  -->
<svg version="1.1" id="Layer_1" xmlns="http://www.w3.org/2000/svg" xmlns:xlink="http://www.w3.org/1999/xlink" x="0px" y="0px"
	 width="498.742px" height="124.649px" viewBox="0 0 498.742 124.649" enable-background="new 0 0 498.742 124.649"
	 xml:space="preserve">
<g>
	<path fill-rule="evenodd" clip-rule="evenodd" fill="#151E79" d="M0,113.296c28.702-5.769,57.747-15.162,87.797-35.067
		C73.163,70.743,66.723,59.758,67.361,47.45c1.596-30.769,34.357-46.991,59.792-47.431c19.334-0.334,37.086,3.616,53.738,24.724
		c-6.559,2.102-21.101-13.263-42.384-13.372C119.955,11.276,96.6,23.589,95.112,43.917c-1.126,15.393,18.164,26.911,33.808,28.761
		C95.019,98.853,47.187,115.462,0,113.296L0,113.296z M28.004,116.576c32.686,0.075,63.141-8.543,89.058-25.986
		c0.661,3.869-0.644,7.738-2.019,11.606c22.455-8.766,41.476-20.438,40.366-47.179c0.935-7.474,5.945-10.873,11.606-13.623
		c-5.382-1.261-11.292-2.554-15.641,1.515c-6.252,5.85-1.768,12.193-10.344,22.454c-19.229,0.98-28.831-7.855-29.266-20.941
		c-0.551-16.523,18.795-24.955,32.8-25.006c10.853-0.04,24.941,5.245,34.561,13.402c-4.063,3.663-8.89,11.98-11.101,19.425
		c1.065,28.469-3.116,47.962-17.156,55.25C117.13,125.013,63.401,130.961,28.004,116.576L28.004,116.576z"/>
	<path fill="#151E79" d="M203.382,115.931h-6.902l0.081-8.229h-12.555l-5.422,8.229h-6.75l24.704-36.212h6.725L203.382,115.931
		L203.382,115.931z M196.623,101.606l0.302-13.439l-8.884,13.439H196.623L196.623,101.606z M206.757,115.931l12.462-36.212h23.343
		l-2.109,6.129h-17.011l-2.763,8.027h15.807l-2.098,6.095h-15.807l-3.392,9.856h17.583l-2.101,6.104H206.757L206.757,115.931z
		 M236.056,115.931l12.462-36.212h13.369c3.42,0,5.754,0.328,6.994,0.977c1.24,0.65,2.057,1.779,2.445,3.382
		c0.391,1.609,0.193,3.531-0.576,5.766c-0.975,2.834-2.475,5.118-4.508,6.847c-2.041,1.728-4.459,2.816-7.254,3.255
		c1.037,0.927,1.818,1.93,2.326,3.026c0.516,1.097,1.053,3.061,1.613,5.894l1.383,7.065h-7.555l-1.895-7.883
		c-0.676-2.842-1.186-4.629-1.537-5.346c-0.342-0.717-0.809-1.206-1.373-1.484c-0.568-0.27-1.584-0.404-3.049-0.404h-1.312
		l-5.203,15.117H236.056L236.056,115.931z M249.58,95.03h4.715c2.875,0,4.748-0.117,5.615-0.353
		c0.867-0.237,1.664-0.717,2.406-1.441c0.73-0.726,1.315-1.696,1.727-2.893c0.398-1.155,0.467-2.082,0.227-2.782
		c-0.252-0.7-0.746-1.18-1.496-1.442c-0.525-0.186-2.221-0.27-5.06-0.27h-4.973L249.58,95.03L249.58,95.03z M272.642,98.048
		c1.486-4.316,3.377-7.866,5.695-10.657c2.309-2.791,4.793-4.873,7.441-6.239c2.648-1.365,5.527-2.048,8.635-2.048
		c4.5,0,7.605,1.618,9.326,4.864c1.715,3.246,1.545,7.866-0.52,13.861c-2.082,6.054-5.213,10.792-9.385,14.197
		c-3.672,3.019-7.762,4.52-12.281,4.52c-4.553,0-7.631-1.492-9.238-4.469C270.486,108.671,270.597,103.992,272.642,98.048
		L272.642,98.048z M279.263,97.803c-1.434,4.166-1.668,7.284-0.715,9.368c0.963,2.082,2.674,3.128,5.156,3.128
		c2.492,0,4.912-1.037,7.266-3.103c2.354-2.066,4.258-5.236,5.73-9.519c1.445-4.198,1.719-7.301,0.814-9.316
		c-0.9-2.007-2.643-3.01-5.225-3.01c-2.58,0-5.035,1.011-7.35,3.035C282.617,90.418,280.726,93.554,279.263,97.803L279.263,97.803z
		 M321.165,102.618l2.102-6.105h13.68l-4.965,14.427c-1.902,1.534-4.311,2.849-7.219,3.954c-2.908,1.104-5.631,1.652-8.186,1.652
		c-3.098,0-5.594-0.717-7.465-2.159c-1.877-1.441-3.018-3.6-3.414-6.475c-0.395-2.875,0.07-6.247,1.408-10.135
		c1.371-3.987,3.248-7.394,5.625-10.227c2.377-2.832,4.928-4.949,7.65-6.349c2.723-1.399,5.652-2.099,8.768-2.099
		c3.752,0,6.451,0.901,8.088,2.706c1.639,1.804,2.178,4.443,1.615,7.942l-6.742,1.356c0.176-1.863-0.201-3.287-1.121-4.273
		c-0.91-0.987-2.238-1.484-3.988-1.484c-2.697,0-5.236,0.994-7.588,2.977c-2.361,1.981-4.234,5.008-5.635,9.08
		c-1.5,4.359-1.74,7.68-0.709,9.948c0.879,1.965,2.65,2.943,5.293,2.943c1.24,0,2.621-0.279,4.15-0.826
		c1.522-0.557,2.967-1.308,4.35-2.26l1.58-4.595H321.165L321.165,102.618z M364.484,115.931h-6.902l0.08-8.229h-12.555l-5.42,8.229
		h-6.752l24.703-36.212h6.725L364.484,115.931L364.484,115.931z M357.724,101.606l0.303-13.439l-8.883,13.439H357.724
		L357.724,101.606z M375.869,115.931l1.238-36.212h6.885l-1.277,26.803l16.912-26.803h6.75l-23.703,36.212H375.869L375.869,115.931z
		 M396.953,115.931l12.461-36.212h6.332l-12.461,36.212H396.953L396.953,115.931z M414.251,98.048
		c1.484-4.316,3.375-7.866,5.693-10.657c2.309-2.791,4.793-4.873,7.443-6.239c2.648-1.365,5.525-2.048,8.635-2.048
		c4.5,0,7.603,1.618,9.326,4.864c1.713,3.246,1.543,7.866-0.52,13.861c-2.084,6.054-5.213,10.792-9.387,14.197
		c-3.672,3.019-7.762,4.52-12.279,4.52c-4.555,0-7.631-1.492-9.24-4.469C412.095,108.671,412.206,103.992,414.251,98.048
		L414.251,98.048z M420.871,97.803c-1.432,4.166-1.666,7.284-0.715,9.368c0.963,2.082,2.674,3.128,5.158,3.128
		c2.49,0,4.91-1.037,7.264-3.103c2.355-2.066,4.258-5.236,5.732-9.519c1.445-4.198,1.717-7.301,0.812-9.316
		c-0.9-2.007-2.643-3.01-5.225-3.01c-2.58,0-5.035,1.011-7.348,3.035C424.226,90.418,422.333,93.554,420.871,97.803L420.871,97.803z
		 M450.63,115.931l10.352-30.083h-9.342l2.109-6.129h24.986l-2.111,6.129h-9.312l-10.352,30.083H450.63L450.63,115.931z
		 M498.742,115.931h-6.902l0.082-8.229h-12.555l-5.422,8.229h-6.752l24.705-36.212h6.725L498.742,115.931L498.742,115.931z
		 M491.984,101.606l0.303-13.439l-8.885,13.439H491.984L491.984,101.606z"/>
</g>
</svg>
