<?xml version="1.0" encoding="utf-8"?>
<!-- Generator: Adobe Illustrator 22.1.0, SVG Export Plug-In . SVG Version: 6.00 Build 0)  -->
<svg version="1.1" id="Слой_1" xmlns="http://www.w3.org/2000/svg" xmlns:xlink="http://www.w3.org/1999/xlink" x="0px" y="0px"
	 width="39.6px" height="23px" viewBox="0 0 39.6 23" style="enable-background:new 0 0 39.6 23;" xml:space="preserve">
<style type="text/css">
	.st0{fill:#00A1E4;}
</style>
<g id="_x23_00a1e4ff">
	<path class="st0" d="M19,0h1.2c0,0.4,0,0.8,0,1.3c0.4,0,0.8,0,1.2,0c0,0.4,0,0.8,0,1.2c-0.4,0-0.8,0-1.2,0c0,0.4,0,0.8,0,1.2
		c-0.4,0-0.8,0-1.2,0c0-0.4,0-0.8,0-1.2c-0.4,0-0.8,0-1.2,0c0-0.4,0-0.8,0-1.2c0.4,0,0.8,0,1.3,0C19.1,0.8,19.1,0.4,19,0z"/>
	<path class="st0" d="M11.9,3.5c1.2-0.3,2.6,0.7,2.6,2c0.1,1.1-0.9,2.2-2,2.2c-1,0.1-2-0.7-2.2-1.6C9.9,5,10.7,3.7,11.9,3.5z"/>
	<path class="st0" d="M16.8,3.5c1.2-0.3,2.6,0.7,2.6,2c0.1,1.2-1,2.3-2.1,2.2c-1,0-2-0.8-2.1-1.8C14.9,4.9,15.7,3.7,16.8,3.5z"/>
	<path class="st0" d="M21.8,3.5c1.2-0.3,2.5,0.7,2.6,1.9c0.1,0.9-0.4,1.7-1.1,2.1c-0.8,0.4-1.8,0.3-2.5-0.3
		c-0.7-0.7-0.9-1.9-0.3-2.7C20.7,4,21.2,3.6,21.8,3.5z"/>
	<path class="st0" d="M26.8,3.5C27.9,3.2,29,4,29.3,5.1c0.2,0.8-0.1,1.8-0.8,2.3c-0.7,0.5-1.6,0.5-2.3,0.2c-0.8-0.4-1.2-1.3-1.1-2.2
		C25.2,4.4,25.9,3.6,26.8,3.5z"/>
	<path class="st0" d="M12.3,10.9c0-0.9,0-1.7,0-2.6c5,0,9.9,0,14.9,0c0,0.9,0,1.7,0,2.6C22.2,10.9,17.2,10.9,12.3,10.9z"/>
	<path class="st0" d="M0,13.1c1.3,0,2.5,0,3.8,0c0,1.2,0,2.4,0,3.6c1.2-1.2,2.5-2.4,3.7-3.6c1.3,0,2.5,0,3.8,0
		c-1.5,1.5-3,2.9-4.4,4.4c1.8,1.8,3.6,3.6,5.4,5.3c0-3.3,0-6.5,0-9.8c1.3,0,2.6,0,3.8,0c0,2.5,0,4.9,0,7.4c2,0,4.1,0,6.1,0
		c0,0.8,0,1.7,0,2.5c-5,0-10,0-14.9,0c-1.2-1.2-2.4-2.4-3.6-3.6c0,1.2,0,2.4,0,3.6c-1.3,0-2.5,0-3.8,0V13.1z"/>
	<path class="st0" d="M23.4,13.1c2.1,0,4.1,0,6.2,0c0.7,1.8,1.2,3.6,1.8,5.4c0.1-0.1,0.1-0.1,0.1-0.2c0.6-1.7,1.2-3.4,1.8-5.1
		c2.1,0,4.2,0,6.2,0V23c-1.3,0-2.5,0-3.8,0c0-2.3,0-4.6,0-6.8c-0.2,0.1-0.2,0.3-0.3,0.5c-0.7,2.1-1.5,4.2-2.2,6.3
		c-1.2,0-2.4,0-3.6,0c-0.7-2.2-1.5-4.3-2.3-6.5c0-0.1-0.1-0.2-0.2-0.3c0,2.3,0,4.5,0,6.8c-1.3,0-2.5,0-3.8,0
		C23.4,19.7,23.3,16.4,23.4,13.1z"/>
</g>
</svg>
