<?xml version="1.0" encoding="utf-8"?>
<!-- Generator: Adobe Illustrator 22.1.0, SVG Export Plug-In . SVG Version: 6.00 Build 0)  -->
<svg version="1.1" id="Layer_1" xmlns="http://www.w3.org/2000/svg" xmlns:xlink="http://www.w3.org/1999/xlink" x="0px" y="0px"
	 width="42.583px" height="23px" viewBox="0 0 42.583 23" style="enable-background:new 0 0 42.583 23;" xml:space="preserve">
<style type="text/css">
	.st0{fill:#DC011F;}
	.st1{fill:#00913D;}
	.st2{fill:#009EE3;}
	.st3{fill:url(#SVGID_1_);}
	.st4{fill:#FFFFFF;}
	.st5{fill:url(#SVGID_2_);}
</style>
<title>Air Malta</title>
<g>
	<polygon class="st0" points="0,15.87 0,11.522 1.96,9.658 15.279,0 42.583,0 42.583,2.925 42.583,3.906 39.268,2.562 0,17.891 	"/>
	<polygon class="st1" points="12.122,0 1.96,9.658 15.279,0 	"/>
	<polygon class="st2" points="13.7,19.129 42.583,10.584 42.583,8.226 	"/>
	<linearGradient id="SVGID_1_" gradientUnits="userSpaceOnUse" x1="-54.946" y1="11.3421" x2="73.473" y2="11.3421">
		<stop  offset="0" style="stop-color:#DF2133"/>
		<stop  offset="0.17" style="stop-color:#DF2133"/>
		<stop  offset="0.2113" style="stop-color:#D12330"/>
		<stop  offset="0.27" style="stop-color:#B6282A"/>
		<stop  offset="0.47" style="stop-color:#B6282A"/>
		<stop  offset="0.5105" style="stop-color:#CD242F"/>
		<stop  offset="0.55" style="stop-color:#DF2133"/>
		<stop  offset="1" style="stop-color:#DF2133"/>
	</linearGradient>
	<polygon class="st3" points="0,16.838 40.966,1.575 42.583,2.925 42.583,6.899 0,21.11 	"/>
	<g>
		<polygon class="st4" points="10.149,8.314 8.174,6.342 10.149,11.105 12.121,6.342 		"/>
		<polygon class="st4" points="7.357,11.105 5.382,13.08 10.149,11.105 5.382,9.132 		"/>
		<polygon class="st4" points="10.149,13.897 12.121,15.87 10.149,11.105 8.174,15.87 		"/>
		<polygon class="st4" points="10.149,11.105 14.912,13.078 12.94,11.105 14.912,9.132 		"/>
		<path class="st4" d="M14.725,4.325c-0.17,0-0.338,0.012-0.499,0.035c-0.162,0.023-0.298,0.051-0.409,0.086
			c0,0.063,0.008,0.132,0.023,0.205c0.015,0.073,0.033,0.127,0.054,0.165c0.111-0.033,0.236-0.062,0.377-0.086
			c0.141-0.023,0.296-0.035,0.467-0.035c0.26,0,0.456,0.066,0.588,0.196c0.132,0.131,0.199,0.336,0.199,0.617l-0.001,0.199
			c-0.073-0.009-0.164-0.018-0.275-0.029c-0.11-0.01-0.242-0.016-0.395-0.016c-0.197,0-0.376,0.024-0.54,0.071
			c-0.163,0.045-0.304,0.116-0.421,0.207c-0.117,0.093-0.209,0.205-0.274,0.34c-0.067,0.134-0.1,0.285-0.1,0.457
			c0,0.354,0.114,0.609,0.342,0.766c0.228,0.157,0.539,0.237,0.935,0.237c0.192,0,0.394-0.015,0.607-0.045
			c0.213-0.03,0.395-0.059,0.543-0.09V5.45c0-0.388-0.101-0.672-0.3-0.854C15.444,4.415,15.137,4.325,14.725,4.325z M15.524,7.294
			c-0.111,0.022-0.224,0.039-0.339,0.051c-0.115,0.013-0.239,0.019-0.37,0.019c-0.102,0-0.205-0.007-0.306-0.022
			c-0.102-0.014-0.196-0.044-0.281-0.089c-0.084-0.044-0.153-0.11-0.207-0.195c-0.054-0.086-0.081-0.199-0.081-0.339
			c0-0.222,0.088-0.392,0.262-0.511c0.174-0.119,0.421-0.179,0.741-0.179c0.098,0,0.201,0.005,0.309,0.016
			c0.109,0.01,0.199,0.02,0.271,0.028V7.294z"/>
		<path class="st4" d="M16.513,3.688c0.038,0.004,0.085,0.007,0.141,0.01c0.054,0.002,0.102,0.003,0.14,0.003
			c0.033,0,0.077-0.001,0.128-0.003c0.051-0.003,0.093-0.006,0.127-0.01c0.005-0.038,0.008-0.085,0.009-0.141
			c0.003-0.055,0.004-0.102,0.004-0.14c0-0.033-0.001-0.076-0.004-0.128c-0.001-0.05-0.004-0.093-0.009-0.127
			c-0.034-0.004-0.076-0.008-0.127-0.01c-0.051-0.002-0.095-0.003-0.128-0.003c-0.038,0-0.086,0.002-0.14,0.003
			c-0.056,0.002-0.103,0.006-0.141,0.01c-0.004,0.034-0.007,0.077-0.01,0.127C16.501,3.33,16.5,3.373,16.5,3.407
			c0,0.037,0.001,0.085,0.003,0.14C16.506,3.603,16.509,3.65,16.513,3.688z"/>
		<path class="st4" d="M16.306,4.485l-0.003,0.102l0.003,0.096l0.009,0.077h0.408v2.9c0.026,0.005,0.063,0.008,0.109,0.01
			c0.048,0.002,0.082,0.003,0.103,0.003c0.026,0,0.06-0.001,0.106-0.003c0.044-0.003,0.08-0.005,0.105-0.01V4.403h-0.831
			L16.306,4.485z"/>
		<path class="st4" d="M19.326,4.395H19.26c-0.252,0-0.454,0.054-0.607,0.163C18.499,4.667,18.38,4.8,18.295,4.957
			c0-0.085-0.004-0.179-0.007-0.284c-0.004-0.105-0.011-0.195-0.019-0.271l-0.096-0.01l-0.096-0.003l-0.093,0.003l-0.098,0.01
			l-0.001,3.257c0.025,0.005,0.061,0.008,0.109,0.01c0.046,0.001,0.081,0.003,0.102,0.003c0.025,0,0.06-0.001,0.106-0.003
			c0.044-0.003,0.08-0.005,0.105-0.01V5.986c0-0.426,0.088-0.731,0.262-0.913c0.174-0.184,0.406-0.275,0.696-0.275h0.06l0.08,0.006
			c0.013-0.064,0.019-0.13,0.019-0.199c0-0.063-0.006-0.132-0.019-0.204L19.326,4.395z"/>
		<path class="st4" d="M23.674,4.282c-0.239,0-0.436,0.058-0.591,0.175c-0.156,0.116-0.276,0.254-0.362,0.411
			c-0.145-0.391-0.475-0.587-0.99-0.587c-0.12,0-0.228,0.016-0.324,0.047c-0.096,0.032-0.181,0.075-0.258,0.125
			c-0.077,0.05-0.144,0.108-0.199,0.172c-0.055,0.063-0.1,0.127-0.135,0.192l-0.015-0.109c-0.006-0.043-0.014-0.087-0.022-0.131
			c-0.008-0.045-0.017-0.088-0.028-0.128l-0.035-0.093c-0.059-0.013-0.118-0.023-0.172-0.029c-0.056-0.006-0.12-0.009-0.192-0.009
			c-0.073,0-0.139,0.003-0.199,0.009c-0.059,0.006-0.119,0.016-0.178,0.029v3.302c0.153,0.025,0.304,0.038,0.454,0.038
			c0.149,0,0.3-0.013,0.454-0.038V5.929c0-0.179,0.016-0.325,0.05-0.434c0.034-0.112,0.081-0.198,0.138-0.259
			c0.057-0.062,0.121-0.103,0.195-0.124c0.073-0.021,0.144-0.032,0.217-0.032c0.174,0,0.291,0.061,0.349,0.185
			c0.057,0.125,0.086,0.299,0.086,0.53v1.865c0.153,0.025,0.305,0.038,0.454,0.038c0.149,0,0.3-0.013,0.454-0.038V5.877
			c0-0.165,0.019-0.301,0.055-0.405c0.036-0.104,0.082-0.185,0.139-0.243c0.059-0.057,0.122-0.097,0.192-0.118
			c0.071-0.021,0.142-0.032,0.214-0.032c0.174,0,0.291,0.061,0.35,0.185c0.056,0.125,0.086,0.299,0.086,0.53v1.865
			c0.153,0.025,0.304,0.038,0.453,0.038c0.149,0,0.301-0.013,0.455-0.038V5.558c0-0.438-0.089-0.76-0.265-0.968
			C24.325,4.385,24.049,4.282,23.674,4.282z"/>
		<path class="st4" d="M26.644,4.278c-0.162,0-0.337,0.015-0.524,0.045c-0.188,0.029-0.375,0.077-0.562,0.14
			c0,0.136,0.015,0.254,0.044,0.352c0.03,0.098,0.075,0.203,0.134,0.312c0.26-0.089,0.505-0.133,0.735-0.133
			c0.107,0,0.205,0.006,0.291,0.019c0.089,0.013,0.162,0.038,0.221,0.074c0.059,0.036,0.106,0.087,0.14,0.15
			c0.034,0.063,0.051,0.147,0.051,0.249v0.075c-0.15-0.012-0.286-0.019-0.409-0.019c-0.17,0-0.342,0.018-0.511,0.054
			c-0.17,0.037-0.326,0.097-0.464,0.179c-0.137,0.084-0.251,0.195-0.339,0.333c-0.087,0.139-0.13,0.309-0.13,0.514
			s0.035,0.377,0.105,0.517c0.07,0.14,0.17,0.255,0.3,0.345c0.13,0.09,0.285,0.153,0.467,0.192c0.181,0.038,0.38,0.057,0.598,0.057
			c0.267,0,0.508-0.021,0.721-0.065c0.215-0.041,0.394-0.087,0.544-0.133V5.618c0-0.468-0.124-0.808-0.374-1.021
			C27.433,4.384,27.086,4.278,26.644,4.278z M27.173,6.988c-0.047,0.008-0.103,0.018-0.167,0.029
			c-0.063,0.01-0.127,0.015-0.19,0.015c-0.055,0-0.12-0.003-0.195-0.009c-0.075-0.007-0.144-0.024-0.212-0.052
			c-0.065-0.027-0.121-0.071-0.168-0.13c-0.046-0.059-0.07-0.145-0.07-0.255c0-0.166,0.06-0.286,0.181-0.361
			c0.122-0.075,0.286-0.112,0.495-0.112c0.047,0,0.101,0.003,0.159,0.009c0.06,0.007,0.116,0.014,0.167,0.023L27.173,6.988z"/>
		<path class="st4" d="M30.128,6.963L30.016,6.97c-0.077,0-0.141-0.009-0.192-0.026c-0.05-0.017-0.092-0.047-0.124-0.092
			c-0.032-0.045-0.055-0.108-0.071-0.188c-0.014-0.082-0.022-0.188-0.022-0.32V3.177C29.454,3.153,29.305,3.14,29.16,3.14
			c-0.148,0-0.299,0.012-0.454,0.037v3.365c0,0.408,0.099,0.703,0.296,0.884c0.198,0.181,0.461,0.271,0.789,0.271
			c0.082,0,0.169-0.004,0.265-0.012c0.096-0.008,0.178-0.023,0.246-0.044l0.013-0.093V7.455c0-0.166-0.024-0.337-0.071-0.511
			L30.128,6.963z"/>
		<path class="st4" d="M32.552,6.931c-0.046,0.008-0.101,0.018-0.162,0.028c-0.062,0.011-0.124,0.016-0.188,0.016
			c-0.082,0-0.151-0.007-0.212-0.025C31.93,6.933,31.881,6.9,31.84,6.854c-0.039-0.047-0.071-0.111-0.093-0.192
			c-0.021-0.082-0.032-0.187-0.032-0.319V5.046h0.773c0.012-0.069,0.02-0.13,0.025-0.185c0.004-0.055,0.006-0.113,0.006-0.172
			c0-0.055-0.001-0.109-0.006-0.159c-0.004-0.051-0.012-0.109-0.025-0.172h-0.773V3.392h-0.147l-1.162,1.486v0.169h0.415h0.001
			v1.494c0,0.409,0.102,0.705,0.306,0.885c0.204,0.18,0.5,0.271,0.887,0.271c0.21,0,0.412-0.023,0.608-0.071l0.009-0.093
			c0.002-0.032,0.003-0.071,0.003-0.118c0-0.068-0.006-0.145-0.018-0.233C32.604,7.096,32.583,7.011,32.552,6.931z"/>
		<path class="st4" d="M35.371,4.597c-0.248-0.214-0.595-0.319-1.037-0.319c-0.162,0-0.337,0.015-0.524,0.045
			c-0.187,0.029-0.374,0.077-0.562,0.14c0,0.136,0.015,0.254,0.044,0.352c0.031,0.098,0.076,0.203,0.135,0.312
			c0.259-0.089,0.504-0.133,0.735-0.133c0.106,0,0.203,0.006,0.29,0.019c0.088,0.013,0.161,0.038,0.22,0.074
			c0.06,0.036,0.107,0.087,0.141,0.15c0.034,0.063,0.051,0.147,0.051,0.249l0.002,0.075c-0.149-0.012-0.286-0.019-0.409-0.019
			c-0.171,0-0.342,0.018-0.511,0.054c-0.171,0.037-0.326,0.097-0.464,0.179c-0.139,0.084-0.251,0.195-0.339,0.333
			c-0.088,0.139-0.131,0.309-0.131,0.514s0.035,0.377,0.105,0.517c0.071,0.14,0.171,0.255,0.3,0.345
			c0.129,0.09,0.285,0.153,0.466,0.192c0.18,0.038,0.38,0.057,0.597,0.057c0.268,0,0.509-0.021,0.722-0.065
			c0.214-0.041,0.395-0.087,0.544-0.133V5.618C35.745,5.151,35.619,4.81,35.371,4.597z M34.698,7.017
			c-0.063,0.01-0.127,0.015-0.191,0.015c-0.056,0-0.121-0.003-0.196-0.009c-0.075-0.007-0.145-0.024-0.212-0.052
			c-0.066-0.027-0.122-0.071-0.168-0.13c-0.046-0.059-0.071-0.145-0.071-0.255c0-0.166,0.06-0.286,0.181-0.361
			c0.122-0.075,0.286-0.112,0.495-0.112c0.046,0,0.1,0.003,0.159,0.009c0.059,0.007,0.115,0.014,0.166,0.023l0.001,0.843
			C34.817,6.996,34.762,7.006,34.698,7.017z"/>
	</g>
	<linearGradient id="SVGID_2_" gradientUnits="userSpaceOnUse" x1="-55.0183" y1="14.9493" x2="73.4449" y2="14.9493">
		<stop  offset="0" style="stop-color:#DF2133"/>
		<stop  offset="0.35" style="stop-color:#DF2133"/>
		<stop  offset="0.3585" style="stop-color:#E13230"/>
		<stop  offset="0.3755" style="stop-color:#E55F29"/>
		<stop  offset="0.399" style="stop-color:#EDA61E"/>
		<stop  offset="0.4" style="stop-color:#EDA91E"/>
		<stop  offset="0.45" style="stop-color:#EDA91E"/>
		<stop  offset="0.546" style="stop-color:#E77027"/>
		<stop  offset="0.6498" style="stop-color:#E13730"/>
		<stop  offset="0.7" style="stop-color:#DF2133"/>
		<stop  offset="1" style="stop-color:#DF2133"/>
	</linearGradient>
	<polygon class="st5" points="0,20.789 42.583,6.899 42.583,8.226 13.941,19.069 0,23 	"/>
</g>
</svg>
