<?xml version="1.0" encoding="utf-8"?>
<!-- Generator: Adobe Illustrator 22.1.0, SVG Export Plug-In . SVG Version: 6.00 Build 0)  -->
<svg version="1.1" id="Слой_1" xmlns="http://www.w3.org/2000/svg" xmlns:xlink="http://www.w3.org/1999/xlink" x="0px" y="0px"
	 width="566.929px" height="124.139px" viewBox="0 0 566.929 124.139" enable-background="new 0 0 566.929 124.139"
	 xml:space="preserve">
<g>
	<path fill-rule="evenodd" clip-rule="evenodd" fill="#F90419" d="M521.221,0c-19.565,23.027-39.822,45.362-59.559,68.216
		c-13.158,14.197-24.239,30.299-39.995,41.726c-7.964,5.714-16.968,9.869-25.971,13.851c27.356,0,54.712,0,81.894,0
		c6.926,0.865,11.773-4.675,16.621-8.657c13.678-11.254,21.123-28.395,35.493-38.956c5.021-3.982,11.081-6.579,16.621-10.042
		c2.251-3.809,3.117-8.137,4.501-12.292C555.848,35.839,562.082,18.179,566.929,0C554.074,0,534.351,0.412,521.221,0L521.221,0z"/>
	<path fill-rule="evenodd" clip-rule="evenodd" fill="#F8FBF7" d="M124.043,16.967c5.367-1.558,10.735-3.116,16.275-4.501
		c-0.693,2.251-1.905,6.579-2.424,8.83c-2.77,0.693-5.54,1.558-8.138,2.251C127.852,21.296,125.948,19.218,124.043,16.967
		L124.043,16.967L124.043,16.967z M145.513,11.427c3.117,8.137,3.636,16.794,4.501,25.278c-0.865-0.52-2.597-1.385-3.463-1.905
		c-1.039-0.693-3.116-1.905-4.328-2.424c-1.212,4.848-2.597,9.869-4.329,14.717c-1.904-4.155-3.463-8.484-5.021-12.812
		c2.943-2.424,6.233-4.501,9.003-7.099C144.647,22.335,144.474,16.621,145.513,11.427L145.513,11.427L145.513,11.427z
		 M18.257,40.514c2.597-3.636,5.367-7.272,8.657-10.388c0.173,3.29,0.346,6.58,0.346,9.869C24.316,40.168,21.2,40.341,18.257,40.514
		L18.257,40.514L18.257,40.514z M86.819,108.557c3.983,0.173,3.29,6.752-0.519,6.752C82.317,115.309,83.183,108.73,86.819,108.557
		L86.819,108.557z"/>
	<path fill-rule="evenodd" clip-rule="evenodd" fill="#F80319" d="M494.038,123.966c13.851-19.045,26.144-42.419,50.037-50.383
		c-4.328,16.968-10.562,33.589-15.409,50.556C517.065,124.139,505.638,124.139,494.038,123.966L494.038,123.966z"/>
	<path fill-rule="evenodd" clip-rule="evenodd" fill="#F60515" d="M28.299,3.463c3.463,1.039,6.752,2.077,10.042,3.117
		c-0.693,5.367-1.385,10.561-1.731,15.928c10.908,0.173,24.066-6.58,32.377,4.155c-7.099,3.982-17.66,5.367-18.699,15.063
		c-5.021,1.385-9.869,2.77-14.717,4.328c-0.346,14.024-0.346,28.221,0.173,42.246c-1.905,0-5.713-0.346-7.618-0.519
		c-1.039-12.293-0.519-24.759-0.692-37.052c-6.752-2.597-13.678-2.078-20.603-0.692C0.423,41.899-3.04,30.126,3.54,20.949
		c3.982,4.328,5.54,9.869,6.925,15.409c5.367-5.714,12.639-9.349,18.006-15.063C28.991,15.409,28.299,9.35,28.299,3.463
		L28.299,3.463L28.299,3.463z M37.302,25.278c3.29,2.597,6.406,5.194,9.696,7.618c2.943-2.77,5.714-5.713,8.484-8.656
		C49.421,24.412,43.361,24.585,37.302,25.278L37.302,25.278L37.302,25.278z M18.257,40.514c2.943-0.173,6.06-0.346,9.003-0.52
		c0-3.289-0.173-6.579-0.346-9.869C23.624,33.242,20.854,36.878,18.257,40.514L18.257,40.514L18.257,40.514z M36.263,31.857
		c-3.463,1.905-0.346,7.964,2.943,5.194C42.842,35.147,39.552,29.26,36.263,31.857L36.263,31.857z"/>
	<path fill-rule="evenodd" clip-rule="evenodd" fill="#F80515" d="M301.336,26.49c4.155-7.964,10.734-14.544,14.89-22.681
		c1.385,0.866,4.155,2.251,5.714,2.944c0.346,2.251,0.865,4.501,1.212,6.752c-5.887,2.771-11.946,5.714-15.756,11.427
		c4.848,0,10.561-3.463,14.717,0.346c1.904,4.502,0.692,9.349,0.346,13.851c6.06-4.155,13.158-6.233,19.911-8.657
		c6.06-2.251,12.12-5.714,18.872-4.155c0,2.597-0.173,5.194-0.173,7.791c-5.887,0.693-11.774,1.559-17.487,3.117
		c3.117,2.77,6.579,5.54,9.696,8.483c-6.06,7.965-10.042,17.66-9.869,28.048c6.06,1.385,12.12,1.385,18.353,0.866
		c2.77-5.194,5.714-10.388,8.83-15.41c-0.173,7.099,0.519,14.37,2.77,21.296c-11.254,3.982-26.663,6.406-36.012-2.944
		c-3.463-10.215,3.982-19.564,5.54-29.433c-10.735,8.484-14.89,21.642-20.603,33.415c-6.926-1.212-15.063-5.194-15.583-13.158
		c2.943-0.519,5.714-1.039,8.657-1.731c-3.636-4.847-7.445-9.868-11.081-14.716c0.173,9.176,3.29,19.564-2.424,27.702
		c-5.021-6.233-4.848-14.197-5.021-21.815c-4.155,2.251-8.484,4.155-13.158,4.848c-0.173-2.597-0.346-5.194-0.519-7.964
		c5.021-1.212,9.869-2.597,14.717-3.982C301.336,43.111,301.683,34.801,301.336,26.49L301.336,26.49L301.336,26.49z M310.512,30.472
		c1.905,4.502,3.463,9.176,4.502,13.851c1.039-4.848,1.905-10.042,1.731-15.063C315.187,29.434,312.071,30.126,310.512,30.472
		L310.512,30.472L310.512,30.472z M304.972,41.553c-1.385,3.982,0,5.194,3.982,3.982C310.166,41.726,308.781,40.341,304.972,41.553
		L304.972,41.553L304.972,41.553z M324.537,44.15c-3.809,8.484-4.155,17.66-3.29,26.663c6.579-9.522,11.947-19.738,16.275-30.472
		C333.194,41.553,328.865,42.938,324.537,44.15L324.537,44.15L324.537,44.15z M312.417,48.478c-1.212,3.982,0,5.367,3.982,4.155
		C317.611,48.652,316.226,47.266,312.417,48.478L312.417,48.478z"/>
	<path fill-rule="evenodd" clip-rule="evenodd" fill="#F70516" d="M115.214,12.639c11.081-3.29,23.027-5.194,34.8-4.155
		c7.445,0,13.332,8.484,10.215,15.409c-3.463,18.872-0.866,38.436-1.731,57.654c-6.752,7.965-15.236-2.077-20.084-7.098
		c-4.848-6.579-12.119,0.346-17.833,1.905c-3.809,2.943-7.965,0-11.774-1.039c-1.385,2.771-2.77,5.367-4.155,7.964
		c-3.463-3.116-10.042-5.194-8.31-10.908c0.865-18.698-0.866-37.224,1.039-55.75c-0.346-4.502,7.791-5.54,7.964-0.519
		c2.251,5.021,0.173,10.388-0.519,15.409c7.099-1.385,14.197-2.944,21.123-5.194c-3.636-6.406-10.388-6.926-16.967-6.926
		C110.539,16.794,111.578,13.158,115.214,12.639L115.214,12.639L115.214,12.639z M124.043,16.967
		c1.905,2.251,3.809,4.328,5.714,6.579c2.597-0.693,5.367-1.558,8.138-2.251c0.519-2.251,1.731-6.579,2.424-8.83
		C134.778,13.851,129.411,15.409,124.043,16.967L124.043,16.967L124.043,16.967z M145.513,11.427
		c-1.039,5.194-0.866,10.908-3.636,15.755c-2.77,2.597-6.06,4.675-9.003,7.099c1.558,4.329,3.117,8.657,5.021,12.812
		c1.731-4.848,3.117-9.869,4.329-14.717c1.212,0.519,3.29,1.731,4.328,2.424c-1.731,4.675-3.635,9.176-5.714,13.678
		c-2.251,3.463-1.385,5.367,2.77,5.887c1.731,3.29,4.328,5.887,6.579,8.657c0.346-8.657,0.693-17.487-0.173-26.317
		C149.149,28.221,148.629,19.564,145.513,11.427L145.513,11.427L145.513,11.427z M103.96,37.225
		c-0.866,8.31-1.039,16.794-0.866,25.105c7.964-4.675,16.621-9.349,21.123-18.006c-5.54,2.597-9.696,10.042-16.621,8.137
		c-1.558-3.29-1.558-7.445,2.078-9.176c5.886-4.155,13.331-4.674,20.257-6.233c-2.078-1.904-3.982-3.809-6.06-5.714
		C118.157,36.359,111.405,39.129,103.96,37.225L103.96,37.225L103.96,37.225z M121.1,56.096c5.194-2.251,10.735-5.021,12.985-10.734
		C128.545,47.266,124.39,51.422,121.1,56.096L121.1,56.096L121.1,56.096z M118.503,68.389c6.406,0,12.12-6.233,18.353-4.328
		c3.982,4.675,7.272,10.734,14.197,11.081c-2.597-7.791-9.696-12.639-13.505-19.564C130.103,58.001,123.178,61.983,118.503,68.389
		L118.503,68.389L118.503,68.389z M107.422,67.35c-1.039,3.29,0.173,4.501,3.463,3.463C112.097,67.35,110.885,66.311,107.422,67.35
		L107.422,67.35z"/>
	<path fill-rule="evenodd" clip-rule="evenodd" fill="#F70515" d="M252.338,6.579c3.809,2.077,6.753,5.194,8.138,9.176
		c-6.233,3.463-11.081,8.83-15.583,14.371c3.809,0.173,7.791,0.519,11.601,0.866c-1.905,8.657-10.735,13.158-14.89,20.95
		c4.328-4.328,10.215-3.809,15.756-2.078c-4.848,4.501-11.6,6.06-17.487,8.484c9.523,4.675,18.699,10.042,27.875,15.582
		c-1.212,1.731-3.463,5.194-4.502,6.926c-10.042-0.866-16.621-9.003-23.547-15.236c-2.77,4.155-5.367,8.83-9.003,12.639
		c-6.06,2.77-12.639,3.636-19.045,5.541c-2.943-8.484,0.173-17.141,0-25.798c-6.06,4.848-11.773,10.042-18.179,14.37
		c-2.77-3.462-5.54-8.31-1.731-12.119c7.618-9.696,8.83-22.335,10.735-33.935c-2.943-2.944-5.541-5.887-7.965-9.176
		c10.216-2.424,20.257-6.406,30.992-6.926c-1.385,2.597-3.116,5.194-4.675,7.792c0.693,8.137-1.904,16.101-3.289,24.066
		c1.558,0,4.329,0,5.714,0c-9.522,9.523-5.367,23.547-5.54,35.493c6.406-2.77,11.254-7.964,15.236-13.505
		c-3.29-0.693-6.579-1.385-9.696-2.078c0-1.385,0.173-4.155,0.346-5.541c4.501-1.212,9.176-2.251,13.678-3.463
		c0.173-1.904,0.693-5.54,0.866-7.445c-3.463-0.692-6.926-1.558-10.388-2.424c3.809-4.501,8.311-8.311,12.639-12.12
		c-6.752-2.078-10.561-7.964-10.215-15.063c3.463,0.173,7.099,0.173,10.562,0.347c0.692,3.809,1.212,7.445,1.904,11.081
		C246.625,20.777,249.395,13.678,252.338,6.579L252.338,6.579L252.338,6.579z M205.937,21.469c2.943,5.714,6.233,11.427,4.848,18.18
		c3.29-6.926,4.155-14.717,3.809-22.335C211.651,18.699,208.708,20.084,205.937,21.469L205.937,21.469L205.937,21.469z
		 M209.054,48.478c-2.597,0-5.887,3.29-4.155,5.887C208.189,56.789,213.902,49.864,209.054,48.478L209.054,48.478z"/>
	<path fill-rule="evenodd" clip-rule="evenodd" fill="#F6040E" d="M335.964,24.932c0.346-5.194,0.693-10.388,1.385-15.409
		c4.328,2.771,11.6,5.021,9.349,11.6C346.525,26.836,339.6,24.066,335.964,24.932L335.964,24.932z"/>
	<path fill-rule="evenodd" clip-rule="evenodd" fill="#F8FAFB" d="M324.537,44.15c4.329-1.212,8.657-2.597,12.986-3.809
		c-4.329,10.735-9.696,20.95-16.275,30.472C320.382,61.81,320.728,52.634,324.537,44.15L324.537,44.15z"/>
	<path fill-rule="evenodd" clip-rule="evenodd" fill="#E30613" d="M17.65,115.391l2.872,0.75c-1.05,2.428-2.507,4.283-4.361,5.564
		c-1.857,1.276-3.963,1.912-6.328,1.912c-2.443,0-4.343-0.49-5.703-1.469c-1.358-0.985-2.278-2.408-2.752-4.268
		c-0.473-1.865-0.527-3.866-0.155-6.002c0.405-2.328,1.206-4.36,2.41-6.096c1.204-1.735,2.716-3.053,4.54-3.954
		c1.819-0.901,3.729-1.35,5.729-1.35c2.269,0,4.076,0.568,5.424,1.709c1.348,1.141,2.146,2.741,2.395,4.809l-3.07,0.688
		c-0.244-1.631-0.799-2.813-1.672-3.558c-0.868-0.745-2.06-1.115-3.579-1.115c-1.742,0-3.264,0.412-4.579,1.234
		c-1.316,0.829-2.331,1.933-3.042,3.324c-0.716,1.386-1.202,2.819-1.458,4.293c-0.332,1.907-0.339,3.563-0.027,4.986
		c0.318,1.417,1.004,2.48,2.069,3.184c1.065,0.703,2.287,1.052,3.669,1.052c1.679,0,3.182-0.479,4.514-1.433
		C15.879,118.695,16.912,117.272,17.65,115.391L17.65,115.391z M23.074,123.238l3.888-22.378h3.004l-1.597,9.19h11.78l1.596-9.19
		h3.004l-3.889,22.378h-3.003l1.832-10.545h-11.78l-1.832,10.545H23.074L23.074,123.238z M46.363,123.238l3.888-22.378h2.998
		l-3.888,22.378H46.363L46.363,123.238z M54.618,123.238l3.889-22.378h3.076l8.854,17.569l3.052-17.569h2.877l-3.888,22.378H69.4
		l-8.85-17.584l-3.056,17.584H54.618L54.618,123.238z M75.026,123.238l12.596-22.378h3.23l5.389,22.378h-3.42l-1.465-6.778h-9.479
		l-3.663,6.778H75.026L75.026,123.238z M83.162,114.047h7.689l-1.293-6.195c-0.39-1.882-0.661-3.429-0.797-4.643
		c-0.541,1.439-1.194,2.861-1.968,4.278L83.162,114.047L83.162,114.047z M124.449,100.86h3.003l-2.247,12.932
		c-0.39,2.246-0.958,4.032-1.706,5.356c-0.747,1.323-1.863,2.396-3.353,3.225c-1.491,0.834-3.325,1.245-5.51,1.245
		c-2.121,0-3.8-0.359-5.02-1.084c-1.226-0.719-2.01-1.766-2.347-3.136c-0.342-1.37-0.303-3.236,0.109-5.606l2.248-12.932h2.997
		l-2.244,12.916c-0.338,1.943-0.402,3.376-0.197,4.294c0.204,0.922,0.714,1.63,1.514,2.131c0.806,0.5,1.854,0.75,3.142,0.75
		c2.206,0,3.865-0.495,4.976-1.485c1.105-0.985,1.905-2.881,2.393-5.69L124.449,100.86L124.449,100.86z M128.524,123.238
		l3.889-22.378h3.076l8.854,17.569l3.052-17.569h2.877l-3.888,22.378h-3.076l-8.851-17.584l-3.056,17.584H128.524L128.524,123.238z
		 M151.935,123.238l3.888-22.378h2.999l-3.889,22.378H151.935L151.935,123.238z M165.99,123.238l3.429-19.737h-7.467l0.459-2.641
		h17.964l-0.459,2.641h-7.499l-3.429,19.737H165.99L165.99,123.238z M179.627,123.238l3.888-22.378h16.387l-0.459,2.641h-13.389
		l-1.19,6.852h12.54l-0.457,2.626h-12.539l-1.323,7.617H197l-0.459,2.642H179.627L179.627,123.238z M200.684,123.238l3.888-22.378
		h7.805c1.763,0,3.09,0.11,3.982,0.323c1.248,0.292,2.262,0.828,3.046,1.6c1.02,1,1.696,2.271,2.017,3.824
		c0.327,1.553,0.314,3.324-0.033,5.319c-0.295,1.699-0.757,3.205-1.392,4.517c-0.629,1.313-1.33,2.402-2.113,3.262
		c-0.777,0.859-1.581,1.537-2.415,2.027c-0.83,0.495-1.798,0.87-2.898,1.125c-1.105,0.256-2.34,0.38-3.707,0.38H200.684
		L200.684,123.238z M204.14,120.596h4.84c1.494,0,2.694-0.136,3.592-0.412c0.897-0.276,1.64-0.662,2.233-1.162
		c0.835-0.698,1.554-1.646,2.154-2.829c0.603-1.188,1.052-2.621,1.346-4.314c0.407-2.339,0.329-4.137-0.229-5.393
		c-0.562-1.261-1.361-2.099-2.4-2.526c-0.749-0.308-2.021-0.459-3.8-0.459h-4.766L204.14,120.596L204.14,120.596z M228.112,123.238
		l12.596-22.378h3.23l5.389,22.378h-3.42l-1.465-6.778h-9.479l-3.663,6.778H228.112L228.112,123.238z M236.247,114.047h7.689
		l-1.293-6.195c-0.391-1.882-0.661-3.429-0.797-4.643c-0.541,1.439-1.194,2.861-1.968,4.278L236.247,114.047L236.247,114.047z
		 M252.235,123.238l3.888-22.378h2.998l-3.888,22.378H252.235L252.235,123.238z M260.569,123.238l3.888-22.378h10.049
		c2.02,0,3.522,0.203,4.502,0.605c0.98,0.401,1.696,1.11,2.153,2.126c0.451,1.021,0.567,2.146,0.353,3.376
		c-0.276,1.59-1.024,2.923-2.26,4.012c-1.228,1.089-2.958,1.782-5.185,2.079c0.732,0.375,1.269,0.745,1.617,1.115
		c0.738,0.792,1.394,1.787,1.974,2.975l2.884,6.091h-3.773l-2.188-4.658c-0.643-1.339-1.187-2.371-1.634-3.08
		c-0.441-0.714-0.86-1.214-1.26-1.495c-0.399-0.287-0.819-0.484-1.263-0.599c-0.331-0.068-0.879-0.104-1.655-0.104h-3.478
		l-1.727,9.936H260.569L260.569,123.238z M265.738,110.738h6.45c1.367,0,2.468-0.141,3.287-0.422
		c0.825-0.281,1.489-0.729,1.997-1.344c0.508-0.615,0.825-1.282,0.95-2.006c0.184-1.057-0.05-1.928-0.713-2.61
		c-0.658-0.683-1.828-1.021-3.512-1.021h-7.172L265.738,110.738L265.738,110.738z M283.261,123.238l3.889-22.378h3.003
		l-3.429,19.736h11.162l-0.459,2.642H283.261L283.261,123.238z M301.511,123.238l3.889-22.378h2.998l-3.888,22.378H301.511
		L301.511,123.238z M309.766,123.238l3.888-22.378h3.077l8.854,17.569l3.052-17.569h2.877l-3.888,22.378h-3.077l-8.851-17.584
		l-3.055,17.584H309.766L309.766,123.238z M332.729,123.238l3.888-22.378h16.387l-0.459,2.641h-13.389l-1.191,6.852h12.54
		l-0.456,2.626h-12.539l-1.324,7.617h13.917l-0.459,2.642H332.729L332.729,123.238z M354.016,116.048l2.871-0.245
		c-0.063,1.12,0.089,2.037,0.456,2.756c0.365,0.719,1.025,1.297,1.977,1.74c0.952,0.443,2.075,0.662,3.363,0.662
		c1.144,0,2.182-0.167,3.116-0.501c0.935-0.338,1.669-0.797,2.198-1.38c0.53-0.588,0.857-1.225,0.977-1.917
		c0.122-0.703,0.022-1.313-0.304-1.839c-0.32-0.526-0.925-0.965-1.808-1.318c-0.572-0.234-1.849-0.599-3.847-1.094
		c-1.994-0.496-3.375-0.959-4.133-1.397c-0.985-0.558-1.672-1.256-2.06-2.084c-0.384-0.829-0.487-1.756-0.308-2.788
		c0.196-1.125,0.702-2.182,1.522-3.162c0.82-0.985,1.899-1.73,3.233-2.24c1.339-0.505,2.765-0.761,4.291-0.761
		c1.683,0,3.114,0.266,4.309,0.802c1.19,0.532,2.04,1.318,2.552,2.355c0.506,1.037,0.675,2.215,0.501,3.527l-2.914,0.213
		c0.087-1.412-0.249-2.485-1.016-3.205c-0.766-0.724-2.018-1.083-3.759-1.083c-1.815,0-3.192,0.328-4.14,0.984
		c-0.942,0.657-1.497,1.448-1.657,2.371c-0.141,0.808,0.04,1.469,0.536,1.985c0.49,0.522,1.902,1.053,4.246,1.595
		c2.344,0.547,3.934,1.021,4.771,1.427c1.215,0.605,2.058,1.366,2.528,2.282c0.467,0.923,0.594,1.985,0.386,3.184
		c-0.208,1.193-0.745,2.313-1.619,3.366c-0.874,1.052-2.009,1.87-3.404,2.459c-1.394,0.583-2.902,0.875-4.516,0.875
		c-2.052,0-3.723-0.292-5.003-0.885c-1.286-0.589-2.219-1.475-2.804-2.663C353.976,118.887,353.793,117.543,354.016,116.048
		L354.016,116.048z"/>
	<path fill-rule="evenodd" clip-rule="evenodd" fill="#FFFFFF" d="M489.242,80.331l4.373-1.791c0.59,5.599,0.484,10.33-0.325,14.22
		c-0.812,3.879-2.206,7.018-4.179,9.4c-2.482,2.996-4.924,3.622-7.326,1.891c-2.774-2.004-5.005-6.538-6.697-13.588
		c-1.789-7.456-2.295-14.362-1.517-20.733c0.676-5.525,2.317-9.868,4.939-13.033c2.129-2.571,4.242-3.351,6.337-2.35
		c1.49,0.72,2.934,2.702,4.33,5.962l-3.299,6.673c-0.812-2.077-1.727-3.307-2.755-3.694c-1.026-0.388-2.032,0.014-3.011,1.194
		c-1.405,1.697-2.275,4.23-2.607,7.61c-0.336,3.368,0.134,7.708,1.408,13.018c1.32,5.503,2.692,8.898,4.114,10.173
		c1.424,1.285,2.826,1.088,4.209-0.583c1.016-1.227,1.714-3.027,2.095-5.389C489.717,86.932,489.688,83.937,489.242,80.331
		L489.242,80.331z M489.586,44.284l3.832-4.626l5.677,23.662c0.883,3.682,1.5,6.02,1.863,7.012c0.631,1.731,1.393,2.726,2.284,3.014
		c0.889,0.278,1.859-0.211,2.903-1.471c0.886-1.07,1.52-2.32,1.905-3.742c0.378-1.414,0.513-2.915,0.401-4.486
		c-0.11-1.56-0.687-4.522-1.732-8.876L500.92,30.6l3.849-4.647l5.505,22.949c1.406,5.86,2.256,10.303,2.551,13.306
		c0.293,3.018,0.054,6.035-0.725,9.062c-0.777,3.037-2.125,5.7-4.033,8.004c-1.983,2.395-3.696,3.597-5.132,3.598
		c-1.433,0.012-2.692-0.908-3.779-2.733c-1.086-1.824-2.411-6.01-3.98-12.551L489.586,44.284L489.586,44.284z M536.456,44.044
		l-4.178,5.044l-4.047-7.917l-7.6,9.174l0.814,11.821l-4.086,4.933l-3.072-52.637l4.07-4.914L536.456,44.044L536.456,44.044z
		 M525.235,35.304l-6.507-13.056l1.312,19.327L525.235,35.304L525.235,35.304z"/>
</g>
</svg>
