<?xml version="1.0" encoding="utf-8"?>
<!-- Generator: Adobe Illustrator 22.1.0, SVG Export Plug-In . SVG Version: 6.00 Build 0)  -->
<svg version="1.1"
	 id="Layer_1" inkscape:version="0.48.1 " sodipodi:docname="AJAX.svg" xmlns:cc="http://creativecommons.org/ns#" xmlns:dc="http://purl.org/dc/elements/1.1/" xmlns:inkscape="http://www.inkscape.org/namespaces/inkscape" xmlns:rdf="http://www.w3.org/1999/02/22-rdf-syntax-ns#" xmlns:sodipodi="http://sodipodi.sourceforge.net/DTD/sodipodi-0.dtd" xmlns:svg="http://www.w3.org/2000/svg"
	 xmlns="http://www.w3.org/2000/svg" xmlns:xlink="http://www.w3.org/1999/xlink" x="0px" y="0px" width="101.048px" height="23px"
	 viewBox="0 0 101.048 23" style="enable-background:new 0 0 101.048 23;" xml:space="preserve">
<style type="text/css">
	.st0{fill:#EC2227;}
	.st1{fill:#010101;}
</style>
<sodipodi:namedview  bordercolor="#666666" borderopacity="1" fit-margin-bottom="0" fit-margin-left="0" fit-margin-right="0" fit-margin-top="0" gridtolerance="10" guidetolerance="10" id="namedview65" inkscape:current-layer="Layer_1" inkscape:cx="173.34521" inkscape:cy="-23.371619" inkscape:pageopacity="0" inkscape:pageshadow="2" inkscape:window-height="1004" inkscape:window-maximized="1" inkscape:window-width="1280" inkscape:window-x="-8" inkscape:window-y="-8" inkscape:zoom="2.4350534" objecttolerance="10" pagecolor="#ffffff" showgrid="false">
	</sodipodi:namedview>
<g id="g3" transform="translate(-0.599204, -0.993061)">
	<path id="path5" inkscape:connector-curvature="0" class="st0" d="M15.857,2.122c0,0-3.003-1.89-6.951-0.778
		c0,0-5.313,1.529-7.148,5.81c0,0-2.472,3.977-0.193,8.37c0,0,1.366,3.077,5.005,3.949c0,0,4.654,1.252,8.065-1.331
		c0,0,5.15-2.718,5.281-8.457C19.916,9.684,20.415,4.624,15.857,2.122 M18.357,12.131c-0.945,2.558-5.17,5.395-5.17,5.395
		c-7.563,3.781-10.515-1.701-10.515-1.701c-1.667-3.559,0.373-6.953,0.373-6.953c1.947-3.837,5.637-5.359,5.637-5.359
		c5.172-2.224,8.12,0.278,8.12,0.278C20.973,6.905,18.357,12.131,18.357,12.131"/>
	<path id="path7" inkscape:connector-curvature="0" class="st0" d="M7.566,6.667c0,0-2.031,4.75-2.06,5.036
		c0,0-0.717,2.232-0.373,4.407l3.6,0.106c0,0-0.996-0.479-0.367-3.025c0,0,0.43-1.517,0.744-1.631c0,0,0.086-0.143,0.143,0.114
		c0,0,0.714,2.575,2.633,4.522c0,0,1.2,1.659,4.176,2.803c0,0,2.604,0.688,4.15-0.599c0,0,1.317-0.801,1.344-3.121
		c0,0,0.022-0.235-0.2-0.056c0,0-0.974,1.087-3.462,0.887c0,0-0.743,0.143-2.803-1.43l-4.379-3.605c0,0-0.2-0.143,0.086-0.173
		c0,0,2.546-0.458,3.291-1.059c0,0,2.29-1.125,2.603-2.803c0,0,0.474-1.839-0.258-2.919c0,0-0.257-0.172-0.343,0.028
		c0,0-1.309,1.351-2.439,2.075l-3.371,2.188c0,0-0.259,0.172-0.056-0.229L11.2,5.609c0,0,0.544-0.887-0.944-0.772
		c0,0-2.242,0.226-3.482,1.754c0,0-0.096,0.049,0.076,0.106C6.85,6.696,7.566,6.667,7.566,6.667z"/>
	<polygon id="polygon9" class="st0" points="26.154,11.021 26.134,11.021 25.427,14.646 23.386,14.646 24.909,7.005 26.948,7.005 
		26.198,10.631 26.218,10.631 29.03,7.005 30.637,7.005 28.005,10.398 30.415,14.646 28.099,14.646 	"/>
	<path id="path11" inkscape:connector-curvature="0" class="st0" d="M32.534,11.56c0.094-0.551,0.526-1.502,1.191-1.502
		c0.266,0,0.425,0.159,0.425,0.435C34.15,11.242,33.495,11.581,32.534,11.56 M36.052,12.733c-0.685,0.37-1.849,0.836-2.621,0.836
		c-0.559,0-1.026-0.255-1.035-0.868c1.449,0.044,3.593-0.972,3.593-2.631c0-0.888-0.835-1.279-1.554-1.279
		c-2.642,0-4.079,2.41-4.079,4.068c0,1.332,1.247,1.913,2.409,1.913c1.016,0,1.997-0.275,3.001-0.634
		C35.765,14.139,36.052,12.733,36.052,12.733z"/>
	<path id="path13" inkscape:connector-curvature="0" class="st0" d="M39.054,11.338h0.127c0.423-0.972,1.501-2.546,2.674-2.546
		c0.718,0,1.141,0.528,1.141,1.192c0,0.277-0.075,0.552-0.127,0.826l-0.773,3.837h-2.028l0.708-3.595
		c0.012-0.073,0.055-0.2,0.055-0.284c0-0.064-0.021-0.169-0.117-0.169c-0.37,0-1.619,1.848-1.817,2.26l-0.36,1.787h-2.039
		l1.141-5.728h2.018L39.054,11.338z"/>
	<polygon id="polygon15" class="st0" points="43.603,8.919 45.685,8.919 46.319,12.268 48.592,8.919 50.134,8.919 44.85,16.687 
		42.747,16.687 44.693,14.646 	"/>
	<path id="path17" inkscape:connector-curvature="0" class="st0" d="M53.323,10.736c-0.455,0.655-1.448,2.325-2.008,2.325
		c-0.18,0-0.233-0.179-0.233-0.328c0-0.538,0.476-2.769,1.7-2.769c0.233,0,0.465,0.086,0.656,0.191L53.323,10.736z M52.551,14.646
		h2.027l1.143-5.727h-1.913c-0.147,0-0.475-0.096-0.951-0.096c-1.997,0-3.815,2.589-3.815,4.439c0,0.761,0.487,1.511,1.312,1.511
		c1.171,0,2.249-1.574,2.671-2.547h0.129L52.551,14.646L52.551,14.646z"/>
	<path id="path19" inkscape:connector-curvature="0" class="st0" d="M60.623,11.529l1.416-2.663h0.021l0.497,2.663H60.623z
		 M57.494,14.646h1.448l1.024-1.913h2.822l0.371,1.913h1.945l-1.47-7.64h-2.029C61.606,7.005,57.494,14.646,57.494,14.646z"/>
	<path id="path21" inkscape:connector-curvature="0" class="st0" d="M66.807,8.919h2.04l-1.144,5.727h-2.039
		C65.664,14.646,66.807,8.919,66.807,8.919z M67.2,7.022h2.04l-0.287,1.153h-2.042L67.2,7.022z"/>
	<path id="path23" inkscape:connector-curvature="0" class="st0" d="M71.312,11.338h0.125c0.421-0.972,1.499-2.546,2.674-2.546
		c0.233,0,0.423,0.063,0.516,0.117l-0.719,1.775c-0.135-0.074-0.284-0.138-0.441-0.138c-1.027,0-1.915,1.649-2.316,2.314
		l-0.36,1.787h-2.04l1.141-5.728h2.021L71.312,11.338z"/>
	<polygon id="polygon25" class="st0" points="83.946,8.919 81.083,14.647 79.137,14.647 78.991,11.19 78.968,11.19 77.268,14.647 
		75.324,14.647 75.1,8.919 76.887,8.919 77.014,12.553 77.034,12.553 78.831,8.919 80.532,8.919 80.69,12.563 80.714,12.563 
		82.519,8.919 	"/>
	<path id="path27" inkscape:connector-curvature="0" class="st0" d="M87.373,10.736c-0.455,0.655-1.45,2.325-2.008,2.325
		c-0.18,0-0.233-0.179-0.233-0.328c0-0.538,0.477-2.769,1.702-2.769c0.232,0,0.464,0.086,0.655,0.191L87.373,10.736z M86.601,14.646
		h2.029l1.14-5.727h-1.913c-0.146,0-0.473-0.096-0.949-0.096c-1.997,0-3.814,2.589-3.814,4.439c0,0.761,0.484,1.511,1.31,1.511
		c1.173,0,2.251-1.574,2.674-2.547h0.127L86.601,14.646L86.601,14.646z"/>
	<polygon id="polygon29" class="st0" points="90.53,8.919 92.612,8.919 93.246,12.268 95.52,8.919 97.062,8.919 91.777,16.687 
		89.674,16.687 91.62,14.646 	"/>
	<path id="path31" inkscape:connector-curvature="0" class="st0" d="M101.23,10.196c-0.414-0.147-0.845-0.263-1.278-0.263
		c-0.339,0-0.804,0.105-0.804,0.528c0,0.676,1.765,1.162,1.765,2.409c0,0.761-0.507,1.903-2.674,1.903
		c-0.718,0-1.386-0.138-2.093-0.318l0.265-1.343c0.505,0.222,1.279,0.518,1.827,0.518c0.274,0,0.634-0.178,0.634-0.55
		c0-0.782-1.637-1.267-1.637-2.515c0-0.676,0.464-1.776,2.641-1.776c0.53,0,1.102,0.107,1.597,0.169L101.23,10.196L101.23,10.196z"
		/>
	<path id="path33" inkscape:connector-curvature="0" class="st1" d="M45.477,18.394l0.03,0.031c-0.081,0.1-0.216,0.151-0.402,0.151
		c-0.027,0-0.16-0.011-0.402-0.031c-0.243-0.021-0.374-0.03-0.393-0.03h-1.42c-0.82,0.81-1.229,1.482-1.229,2.018
		c0,0.369,0.185,0.645,0.553,0.827c0.263,0.133,0.551,0.197,0.865,0.197c0.325-0.005,0.638-0.064,0.941-0.174
		c0.233-0.08,0.565-0.237,0.994-0.47c0.036,0.025,0.076,0.038,0.122,0.038l-0.016,0.192c-0.91,0.751-1.749,1.127-2.518,1.127
		c-0.405,0-0.773-0.09-1.11-0.267c-0.448-0.238-0.673-0.593-0.673-1.058c-0.006-0.381,0.177-0.812,0.546-1.296
		c0.186-0.242,0.517-0.603,0.994-1.081l-2.497,0.122c-0.177,0.01-0.265-0.048-0.265-0.174c0-0.112,0.057-0.24,0.175-0.388
		c0.116-0.146,0.212-0.219,0.289-0.219h2.888c0.108-0.105,0.274-0.258,0.502-0.458c0.101,0,0.185,0.013,0.251,0.037
		c0.005,0.106-0.033,0.203-0.114,0.288l-0.13,0.135c0.324,0.021,0.647,0.043,0.972,0.068c0.449,0.03,0.747,0.08,0.895,0.151
		C45.377,18.156,45.426,18.244,45.477,18.394"/>
	<path id="path35" inkscape:connector-curvature="0" class="st1" d="M48.807,21.467h0.098c-0.167,0.157-0.419,0.335-0.759,0.533
		c-0.389,0.232-0.666,0.35-0.833,0.35c-0.143,0-0.259-0.065-0.349-0.191c-0.066-0.102-0.098-0.2-0.098-0.296v-0.715
		c0-0.036-0.024-0.053-0.07-0.053c-0.053,0-0.307,0.182-0.757,0.551c-0.45,0.367-0.767,0.547-0.949,0.542
		c-0.247,0-0.371-0.194-0.371-0.585c0-0.208,0.066-0.398,0.197-0.57c0.622-0.795,0.955-1.218,1.001-1.269
		c0.383-0.482,0.735-0.9,1.053-1.254c0.117-0.133,0.233-0.198,0.35-0.198c0.135,0,0.204,0.06,0.204,0.182
		c-0.002,0.006-0.003,0.016-0.003,0.03c0,0.015,0.001,0.025,0.003,0.03c0,0.138-0.048,0.305-0.144,0.503
		c-0.201,0.426-0.477,0.767-0.819,1.025c-0.728,0.542-1.092,0.897-1.092,1.063c0,0.077,0.021,0.156,0.06,0.236
		c0.04,0.083,0.094,0.125,0.159,0.129c0.077,0,0.281-0.129,0.616-0.386c0.137-0.107,0.343-0.254,0.615-0.441
		c0.146-0.091,0.285-0.135,0.416-0.135c0.031,0,0.061,0.001,0.091,0.007c0.086,0.061,0.143,0.134,0.169,0.219
		c0.004,0.016,0.017,0.106,0.037,0.266c0.009,0.056,0.014,0.281,0.014,0.676c0.012,0.02,0.034,0.048,0.069,0.083
		c0.223,0.014,0.521-0.131,0.895-0.441h0.167C48.788,21.38,48.797,21.415,48.807,21.467"/>
	<path id="path37" inkscape:connector-curvature="0" class="st1" d="M49.76,20.778c0,0.197-0.285,0.323-0.856,0.38
		c0.055-0.122,0.164-0.233,0.325-0.334c0.163-0.101,0.294-0.151,0.396-0.151C49.715,20.672,49.76,20.708,49.76,20.778
		 M50.391,20.659c0-0.236-0.14-0.353-0.417-0.347c-0.248,0-0.579,0.111-0.995,0.333c-0.51,0.269-0.765,0.562-0.759,0.88
		c0,0.248,0.128,0.436,0.387,0.562c0.192,0.091,0.405,0.136,0.644,0.136c0.264,0,0.559-0.076,0.888-0.228
		c0.207-0.097,0.512-0.271,0.918-0.526l-0.084-0.046v0.008h0.113v-0.197c-0.631,0.288-1.114,0.433-1.446,0.433
		c-0.416,0-0.668-0.083-0.759-0.25C49.893,21.285,50.396,21.033,50.391,20.659"/>
	<path id="path39" inkscape:connector-curvature="0" class="st1" d="M63.407,21.186l0.358-0.348
		c-0.234,0.364-0.566,0.691-0.995,0.981c-0.411,0.275-0.75,0.411-1.017,0.411c-0.096,0-0.228-0.043-0.394-0.13
		c-0.198-0.101-0.297-0.211-0.297-0.328c0-0.055,0.073-0.142,0.22-0.258c0.101-0.077,0.203-0.156,0.31-0.236
		c-0.036-0.041-0.116-0.092-0.238-0.152c-0.125-0.061-0.195-0.093-0.211-0.093c-0.019,0-0.071,0.032-0.15,0.092l-0.113,0.075
		c-0.041,0.03-0.087,0.059-0.137,0.084c-0.042-0.036-0.091-0.062-0.15-0.076c0.06-0.096,0.16-0.205,0.303-0.329l-0.008-0.015
		c-0.019-0.04-0.028-0.084-0.024-0.129c0.025-0.071,0.136-0.195,0.331-0.371c0.193-0.176,0.339-0.263,0.434-0.263
		c0.052,0,0.114,0.036,0.184,0.107c-0.011,0.101-0.024,0.168-0.04,0.198c-0.015,0.03-0.054,0.083-0.119,0.16
		c0.109,0.055,0.222,0.114,0.333,0.175c0.15,0.087,0.227,0.17,0.227,0.251c0,0.106-0.068,0.201-0.203,0.282
		c-0.138,0.081-0.209,0.146-0.214,0.197c0,0.132,0.137,0.198,0.41,0.198c0.242,0,0.599-0.162,1.07-0.486L63.407,21.186
		L63.407,21.186z"/>
	<path id="path41" inkscape:connector-curvature="0" class="st1" d="M65.062,19.684c-0.106,0.166-0.298,0.251-0.577,0.251
		c-0.091,0-0.2-0.033-0.327-0.094c-0.125-0.064-0.187-0.135-0.182-0.215c0-0.076,0.067-0.159,0.198-0.249
		c0.106-0.076,0.181-0.12,0.227-0.136c0.042,0,0.143,0.049,0.304,0.143c0.086,0.051,0.285,0.152,0.599,0.301L65.062,19.684
		L65.062,19.684z M63.551,22.23c-0.441,0-0.659-0.194-0.659-0.584c0-0.147,0.022-0.27,0.068-0.368
		c0.025-0.045,0.187-0.2,0.485-0.466c0.32-0.281,0.518-0.419,0.599-0.415c0.037,0,0.071,0.01,0.108,0.028l0.03,0.014h0.068v0.182
		c-0.404,0.348-0.608,0.602-0.608,0.764c0,0.191,0.127,0.287,0.38,0.287c0.166,0,0.361-0.055,0.583-0.167
		c0.182-0.101,0.363-0.202,0.54-0.303l0.089,0.083v0.16C64.505,21.968,63.946,22.23,63.551,22.23"/>
	<path id="path43" inkscape:connector-curvature="0" class="st1" d="M68.953,21.378l0.06,0.069
		c-0.363,0.254-0.608,0.416-0.735,0.487c-0.328,0.193-0.601,0.29-0.82,0.29c-0.195,0-0.355-0.055-0.479-0.16
		c-0.141-0.118-0.211-0.289-0.211-0.518c0-0.07,0.008-0.146,0.024-0.221c-0.345,0.29-0.582,0.478-0.715,0.564
		c-0.324,0.223-0.598,0.335-0.818,0.335c-0.193,0-0.355-0.057-0.487-0.166c-0.132-0.109-0.196-0.254-0.196-0.433
		c0-0.382,0.295-0.701,0.888-0.957c0.444-0.194,0.809-0.285,1.092-0.275c0.322,0.006,0.455,0.011,0.395,0.015
		c0,0.027,0.011,0.101,0.038,0.222c-0.071,0.073-0.138,0.11-0.197,0.11c-0.027,0-0.065-0.005-0.116-0.015
		c-0.049-0.01-0.087-0.016-0.113-0.016c-0.188,0-0.415,0.069-0.683,0.205c-0.309,0.157-0.463,0.326-0.463,0.507
		c0,0.143,0.089,0.204,0.265,0.182c0.178,0,0.398-0.078,0.661-0.236c0.242-0.15,0.436-0.312,0.583-0.486
		c0.096-0.111,0.193-0.271,0.289-0.478c0.136-0.293,0.217-0.466,0.242-0.516c0.106-0.178,0.306-0.458,0.599-0.843
		c0.379-0.491,0.631-0.737,0.752-0.737c0.06-0.005,0.109,0.044,0.154,0.144c0.033,0.076,0.05,0.132,0.05,0.167
		c0,0.324-0.144,0.646-0.43,0.965c-0.263,0.254-0.529,0.507-0.798,0.76c-0.283,0.283-0.425,0.547-0.425,0.789
		c0,0.178,0.057,0.316,0.174,0.412c0.095,0.081,0.22,0.121,0.371,0.121c0.166,0,0.421-0.107,0.759-0.319
		c0.095-0.062,0.192-0.112,0.289-0.152l0.084,0.083v0.13L68.953,21.378L68.953,21.378z"/>
	<path id="path45" inkscape:connector-curvature="0" class="st1" d="M69.933,20.778c0,0.197-0.285,0.323-0.856,0.38
		c0.054-0.122,0.164-0.233,0.325-0.334c0.162-0.101,0.293-0.151,0.395-0.151C69.887,20.672,69.933,20.708,69.933,20.778
		 M70.562,20.659c0-0.236-0.138-0.353-0.417-0.347c-0.247,0-0.579,0.111-0.994,0.333c-0.511,0.269-0.762,0.562-0.759,0.88
		c0,0.248,0.13,0.436,0.387,0.562c0.193,0.091,0.408,0.136,0.647,0.136c0.263,0,0.558-0.076,0.886-0.228
		c0.207-0.097,0.514-0.271,0.92-0.526l-0.084-0.046v0.008h0.114v-0.197c-0.631,0.288-1.116,0.433-1.449,0.433
		c-0.416,0-0.669-0.083-0.758-0.25C70.065,21.285,70.569,21.033,70.562,20.659"/>
	<path id="path47" inkscape:connector-curvature="0" class="st1" d="M76.131,20.837l0.054-0.03
		c-0.083,0.153-0.392,0.276-0.926,0.372c-0.112,0.335-0.361,0.602-0.751,0.8c-0.319,0.167-0.649,0.25-0.987,0.25
		c-0.181,0.006-0.352-0.028-0.515-0.098c-0.224-0.107-0.333-0.265-0.333-0.472c0-0.27,0.157-0.522,0.477-0.756
		c0.257-0.188,0.538-0.317,0.836-0.388l0.006-0.009c0.042-0.035,0.089-0.052,0.145-0.052h0.334c-0.03,0.062-0.071,0.135-0.12,0.22
		c-0.048,0.011-0.122,0.031-0.229,0.062c-0.452,0.127-0.677,0.309-0.683,0.548c0,0.26,0.225,0.389,0.675,0.389
		c0.368,0,0.65-0.162,0.842-0.484c-0.081-0.011-0.32-0.06-0.72-0.145c0.141-0.292,0.263-0.507,0.365-0.644
		c0.181,0.082,0.363,0.162,0.545,0.242c0.215,0.091,0.407,0.136,0.577,0.136c0.11,0,0.244-0.015,0.401-0.045l0.015,0.106H76.131
		L76.131,20.837z"/>
	<path id="path49" inkscape:connector-curvature="0" class="st1" d="M77.204,20.791c0.035,0.011,0.154,0.017,0.355,0.017
		c-0.008,0,0.087-0.004,0.29-0.012c0.202-0.008,0.408-0.012,0.615-0.012c-0.16,0.172-0.352,0.283-0.585,0.333
		c-0.075,0.015-0.3,0.036-0.668,0.061c-0.162,0.011-0.287,0.026-0.373,0.045c-0.03,0.01-0.076,0.053-0.133,0.127
		c-0.059,0.072-0.095,0.144-0.11,0.215c0.009,0.192,0.015,0.445,0.015,0.759c0,0.116-0.089,0.402-0.265,0.858
		c-0.209,0.54-0.388,0.811-0.545,0.811c-0.172,0-0.255-0.127-0.252-0.379v-0.053c0.005-0.02,0.008-0.033,0.008-0.038
		c0-0.496,0.089-0.943,0.264-1.343c0.011-0.024,0.092-0.181,0.245-0.471c0.141-0.267,0.214-0.406,0.214-0.416
		c0-0.021-0.019-0.049-0.055-0.084l-0.022-0.031c-0.198-0.01-0.391-0.042-0.583-0.098c0-0.106,0.022-0.176,0.071-0.212
		c0.049-0.036,0.15-0.09,0.3-0.16c0.152-0.07,0.247-0.106,0.29-0.106c0.04,0,0.11,0.014,0.207,0.042
		c0.097,0.028,0.165,0.041,0.202,0.041c0.005,0,0.184-0.288,0.538-0.863c0.202-0.345,0.461-0.773,0.775-1.289
		c0.061-0.107,0.168-0.179,0.325-0.219c0.143,0,0.213,0.094,0.213,0.28c0,0.343-0.12,0.696-0.363,1.054
		C78.009,19.904,77.684,20.286,77.204,20.791"/>
	<path id="path51" inkscape:connector-curvature="0" class="st1" d="M87.6,22.143c-0.223,0-0.388-0.137-0.493-0.412
		c-0.036-0.139-0.087-0.318-0.152-0.529c-0.042-0.167-0.11-0.422-0.206-0.767c-0.067-0.258-0.127-0.519-0.189-0.782
		c-0.08-0.315-0.184-0.559-0.31-0.737c-0.108-0.152-0.283-0.227-0.523-0.227c-0.359,0-0.816,0.181-1.373,0.545
		c-0.416,0.294-0.834,0.586-1.254,0.881c0.45,0.061,1.034,0.088,1.747,0.083c0.247,0,0.616-0.012,1.106-0.037
		c0.03-0.005,0.103-0.019,0.22-0.045c0.092-0.021,0.161-0.03,0.205-0.03h0.159l-0.015,0.129c-0.005,0.065-0.042,0.12-0.112,0.166
		c-0.416,0.274-1.174,0.415-2.276,0.425c-0.314,0.005-0.707-0.008-1.175-0.038c-0.028,0-0.196-0.023-0.511-0.068
		c-0.052-0.01-0.084-0.016-0.098-0.016c-0.005,0.011-0.021,0.032-0.046,0.061c-1.2,1.105-2.001,1.658-2.406,1.658
		c-0.081,0-0.157-0.022-0.234-0.067c-0.075-0.046-0.113-0.106-0.113-0.177c0-0.106,0.316-0.379,0.948-0.82
		c0.312-0.211,0.715-0.487,1.207-0.825c-0.065-0.032-0.163-0.075-0.289-0.13l-0.015-0.176c0.085-0.07,0.204-0.153,0.351-0.247
		c0.15-0.092,0.25-0.139,0.301-0.139c0.03,0,0.108,0.029,0.231,0.088c0.123,0.057,0.193,0.087,0.209,0.087
		c0.015-0.011,0.051-0.036,0.104-0.076c2.055-1.341,3.296-2.01,3.719-2.01c0.271,0,0.516,0.2,0.729,0.599
		c0.139,0.279,0.287,0.698,0.439,1.259c0.069,0.298,0.176,0.711,0.32,1.236c0.105,0.349,0.2,0.522,0.287,0.522
		c0.075,0,0.179-0.052,0.31-0.158c0.092-0.087,0.184-0.171,0.277-0.254c0.094-0.084,0.187-0.15,0.276-0.202
		c0.005,0,0.057,0.036,0.152,0.106v0.054c-0.191,0.258-0.425,0.49-0.699,0.698C88.093,22.017,87.824,22.143,87.6,22.143"/>
	<path id="path53" inkscape:connector-curvature="0" class="st1" d="M90.445,20.791c0.035,0.011,0.154,0.017,0.354,0.017
		c-0.008,0,0.087-0.004,0.291-0.012c0.202-0.008,0.406-0.012,0.613-0.012c-0.159,0.172-0.352,0.283-0.583,0.333
		c-0.078,0.015-0.3,0.036-0.669,0.061c-0.162,0.011-0.287,0.026-0.373,0.045c-0.03,0.01-0.075,0.053-0.132,0.127
		c-0.059,0.072-0.095,0.144-0.111,0.215c0.011,0.192,0.016,0.445,0.016,0.759c0,0.116-0.089,0.402-0.266,0.858
		c-0.208,0.54-0.388,0.811-0.545,0.811c-0.171,0-0.255-0.127-0.25-0.379c-0.002-0.017-0.002-0.033,0-0.053
		c0.005-0.02,0.006-0.033,0.006-0.038c0-0.496,0.089-0.943,0.267-1.343c0.01-0.024,0.092-0.181,0.242-0.471
		c0.141-0.267,0.212-0.406,0.212-0.416c0-0.021-0.016-0.049-0.053-0.084l-0.021-0.031c-0.2-0.01-0.39-0.042-0.585-0.098
		c0-0.106,0.024-0.176,0.073-0.212c0.046-0.036,0.146-0.09,0.3-0.16c0.15-0.07,0.247-0.106,0.287-0.106
		c0.042,0,0.111,0.014,0.208,0.042c0.1,0.028,0.166,0.041,0.203,0.041c0.007,0,0.186-0.288,0.538-0.863
		c0.203-0.345,0.461-0.773,0.775-1.289c0.06-0.107,0.17-0.179,0.327-0.219c0.141,0,0.212,0.094,0.212,0.28
		c0,0.343-0.122,0.696-0.366,1.054C91.248,19.904,90.926,20.286,90.445,20.791"/>
	<path id="path55" inkscape:connector-curvature="0" class="st1" d="M93.936,21.186l0.355-0.348
		c-0.232,0.364-0.565,0.691-0.994,0.981c-0.411,0.275-0.748,0.411-1.016,0.411c-0.095,0-0.227-0.043-0.395-0.13
		c-0.197-0.101-0.297-0.211-0.297-0.328c0-0.055,0.075-0.142,0.222-0.258c0.1-0.077,0.203-0.156,0.311-0.236
		c-0.037-0.041-0.116-0.092-0.24-0.152c-0.123-0.061-0.193-0.093-0.209-0.093c-0.019,0-0.071,0.032-0.152,0.092l-0.112,0.075
		c-0.042,0.03-0.087,0.059-0.137,0.084c-0.043-0.036-0.092-0.062-0.152-0.076c0.06-0.096,0.162-0.205,0.303-0.329l-0.008-0.015
		c-0.019-0.04-0.025-0.084-0.022-0.129c0.025-0.071,0.135-0.195,0.33-0.371c0.195-0.176,0.339-0.263,0.439-0.263
		c0.049,0,0.108,0.036,0.18,0.107c-0.011,0.101-0.024,0.168-0.04,0.198c-0.014,0.03-0.053,0.083-0.12,0.16
		c0.111,0.055,0.223,0.114,0.333,0.175c0.152,0.087,0.228,0.17,0.228,0.251c0,0.106-0.068,0.201-0.204,0.282
		c-0.137,0.081-0.208,0.146-0.211,0.197c0,0.132,0.135,0.198,0.407,0.198c0.243,0,0.6-0.162,1.07-0.486L93.936,21.186L93.936,21.186
		z"/>
	<path id="path57" inkscape:connector-curvature="0" class="st1" d="M95.589,19.684c-0.106,0.166-0.298,0.251-0.579,0.251
		c-0.089,0-0.198-0.033-0.322-0.094c-0.128-0.064-0.188-0.135-0.184-0.215c0-0.076,0.065-0.159,0.196-0.249
		c0.106-0.076,0.182-0.12,0.23-0.136c0.038,0,0.14,0.049,0.301,0.143c0.087,0.051,0.285,0.152,0.6,0.301L95.589,19.684
		L95.589,19.684z M94.08,22.23c-0.441,0-0.661-0.194-0.661-0.584c0-0.147,0.022-0.27,0.068-0.368c0.025-0.045,0.187-0.2,0.487-0.466
		c0.317-0.281,0.518-0.419,0.598-0.415c0.036,0,0.071,0.01,0.108,0.028l0.03,0.014h0.069v0.182
		c-0.404,0.348-0.608,0.602-0.608,0.764c0,0.191,0.127,0.287,0.379,0.287c0.168,0,0.361-0.055,0.585-0.167
		c0.182-0.101,0.361-0.202,0.539-0.303l0.09,0.083v0.16C95.036,21.968,94.475,22.23,94.08,22.23"/>
	<path id="path59" inkscape:connector-curvature="0" class="st1" d="M95.989,22.23c-0.182,0-0.355-0.046-0.516-0.136
		c-0.227-0.118-0.341-0.29-0.341-0.518c0-0.335,0.29-0.625,0.872-0.867c0.45-0.188,0.822-0.282,1.114-0.282
		c0.112,0,0.214,0.03,0.306,0.092v0.227c-0.092,0.056-0.198,0.084-0.318,0.084c-0.032,0-0.1-0.004-0.206-0.015
		c-0.086-0.005-0.15-0.006-0.197-0.006c-0.249,0-0.447,0.053-0.6,0.159c-0.13,0.086-0.197,0.192-0.197,0.319
		c0,0.112,0.051,0.204,0.152,0.276c0.1,0.074,0.243,0.11,0.425,0.11c0.145,0,0.344-0.048,0.591-0.145
		c0.191-0.085,0.384-0.171,0.577-0.257c0.086-0.04,0.143-0.062,0.166-0.062h0.213v0.199c-0.233,0.158-0.54,0.323-0.924,0.494
		C96.618,22.12,96.247,22.23,95.989,22.23"/>
	<path id="path61" inkscape:connector-curvature="0" class="st1" d="M99.682,20.958c0,0.147-0.179,0.302-0.539,0.462
		c-0.303,0.137-0.504,0.205-0.606,0.205c-0.052,0-0.101-0.018-0.148-0.052c-0.048-0.036-0.071-0.074-0.071-0.114
		c0-0.177,0.144-0.334,0.439-0.47c0.248-0.121,0.468-0.182,0.66-0.182c0.176,0,0.265,0.048,0.265,0.143L99.682,20.958L99.682,20.958
		z M100.938,21.862c0.433-0.223,0.669-0.402,0.709-0.539v-0.06l-0.127-0.031c-0.036,0.015-0.19,0.084-0.457,0.204
		c-0.181,0.082-0.34,0.129-0.471,0.144c-0.035-0.12-0.054-0.216-0.054-0.286c-0.024-0.172-0.122-0.3-0.287-0.385
		c-0.005-0.006-0.013-0.013-0.022-0.023c0.003-0.03,0.013-0.079,0.022-0.147c0.011-0.069,0.016-0.12,0.016-0.155
		c0-0.177-0.083-0.265-0.244-0.265c-0.104,0-0.178,0.032-0.215,0.097c-0.038,0.065-0.071,0.127-0.103,0.186
		c-0.127-0.029-0.248-0.045-0.363-0.045c-0.304-0.008-0.677,0.087-1.116,0.289c-0.557,0.248-0.834,0.554-0.834,0.92
		c0,0.136,0.052,0.249,0.157,0.335c0.108,0.086,0.236,0.13,0.388,0.13c0.242,0,0.629-0.17,1.162-0.511
		c0.276-0.173,0.534-0.332,0.773-0.479c0.016,0,0.026,0.002,0.03,0.007l0.016,0.007v0.039c-0.083,0.091-0.163,0.181-0.244,0.274
		c-0.101,0.115-0.148,0.219-0.144,0.311c0,0.207,0.148,0.311,0.447,0.311C100.185,22.194,100.505,22.084,100.938,21.862"/>
	<path id="path63" inkscape:connector-curvature="0" class="st1" d="M54.114,20.097c-0.146,0.059-0.252,0.087-0.318,0.087
		c-0.118,0-0.266-0.061-0.452-0.181c-0.203-0.131-0.336-0.269-0.398-0.414c0.106,0.009,0.23,0.014,0.369,0.014
		c0.247,0,0.542-0.129,0.886-0.386c0.324-0.243,0.584-0.511,0.777-0.806c0.097,0,0.162,0.033,0.195,0.101
		c0.089,0.257,0.13,0.487,0.13,0.69c0,0.135-0.096,0.269-0.296,0.4c-0.284,0.189-0.442,0.296-0.465,0.319
		c-0.024,0.024-0.08,0.135-0.175,0.333c-0.076,0.132-0.181,0.331-0.312,0.597c0.747-0.673,1.539-1.232,2.379-1.679
		c0.959-0.509,1.805-0.762,2.535-0.762c0.42,0,0.793,0.097,1.118,0.289c0.412,0.237,0.615,0.581,0.615,1.031
		c0,0.432-0.209,0.859-0.631,1.286c-0.342,0.353-0.788,0.662-1.335,0.929c-0.489,0.243-0.907,0.383-1.257,0.422
		c-0.637,0.077-1.032,0.116-1.189,0.116c-0.455,0-0.874-0.058-1.256-0.175c-0.471-0.144-0.794-0.36-0.973-0.646
		c0-0.018,0.006-0.044,0.016-0.075c0.009-0.032,0.013-0.065,0.013-0.099h0.184c0.347,0.459,1.002,0.69,1.966,0.69
		c0.629,0,1.213-0.099,1.748-0.297c0.696-0.261,1.235-0.668,1.611-1.219c0.147-0.217,0.22-0.436,0.227-0.653
		c0-0.353-0.174-0.616-0.525-0.79c-0.254-0.136-0.545-0.204-0.867-0.204c-0.713,0-1.514,0.238-2.4,0.716
		c-0.888,0.477-1.644,1.077-2.267,1.797c-0.03,0.03-0.108,0.18-0.233,0.451c-0.266,0.567-0.466,0.964-0.596,1.193
		c-0.323,0.548-0.601,0.821-0.828,0.821c-0.097,0-0.196-0.032-0.297-0.095c-0.115-0.068-0.173-0.152-0.173-0.254
		c0-0.218,0.593-0.955,1.777-2.211c0.024-0.029,0.054-0.06,0.087-0.095C53.645,21.093,53.848,20.679,54.114,20.097"/>
</g>
</svg>
