<?xml version="1.0" encoding="utf-8"?>
<!-- Generator: Adobe Illustrator 22.1.0, SVG Export Plug-In . SVG Version: 6.00 Build 0)  -->
<svg version="1.1" id="Layer_1" xmlns="http://www.w3.org/2000/svg" xmlns:xlink="http://www.w3.org/1999/xlink" x="0px" y="0px"
	 width="500.489px" height="588.175px" viewBox="0 0 500.489 588.175" style="enable-background:new 0 0 500.489 588.175;"
	 xml:space="preserve">
<g>
	
		<radialGradient id="SVGID_1_" cx="430.4081" cy="102.973" r="278.0114" fx="575.9665" fy="35.1759" gradientTransform="matrix(-0.9896 -0.1437 0.0417 -0.287 852.0553 194.3873)" gradientUnits="userSpaceOnUse">
		<stop  offset="0.1333" style="stop-color:#00AEEF"/>
		<stop  offset="0.2842" style="stop-color:#00AEEF"/>
		<stop  offset="0.3091" style="stop-color:#00AEEF"/>
		<stop  offset="0.4183" style="stop-color:#0092C9"/>
		<stop  offset="1" style="stop-color:#241F55"/>
	</radialGradient>
	<path style="fill:url(#SVGID_1_);" d="M495.523,179.072c0,0-138.915,20.836-319.539-74.101C175.985,104.972,17.757,16.983,0,0
		c0,0,47.477,24.318,67.16,34.354c0,0,32.048-2.322,46.315,5.787c14.267,8.109,50.547,18.91,82.967,1.935
		c32.42-16.992,120.799-49.024,254.7,26.237c0,0-156.031-60.849-228.076,7.077C223.066,75.39,259.098,137.649,495.523,179.072z"/>
	<g>
		<path style="fill-rule:evenodd;clip-rule:evenodd;fill:#241F55;" d="M195.548,360.047c-14.678,0-24.568-0.411-39.561-2.596
			c-1.515-0.242-1.983-0.548-3.087-0.759c-2.443-0.395-4.724-0.556-6.852-0.91l-9.608-1.975c-1.273-0.363-1.821-0.774-3.24-1.081
			c-8.036-1.724-15.992-4.352-23.254-7.705c-1.169-0.508-1.419-0.823-2.539-1.322c-1.072-0.516-1.588-0.556-2.652-1.225
			l-9.132-6.336c-1.918-1.483-2.08-3.16-4.965-3.208c-0.411,1.789-3.103,5.336-4.215,7.013c-3.805,5.933-8.996,11.72-15.589,14.477
			c-3.709,1.515-2.088,1.313-6.852,1.313c-2.91,0-5.344-2.7-6.964-4.626c-2.54-2.895-4.917-7.714-10.6-9.641
			c-6.714-2.241-12.849,0.709-17.774,4.265l-6.859,5.23c-0.959,0.91-0.67,0.96-1.822,2.031c-5.844,5.28-11.825,13.953-14.065,21.578
			l-1.331,2.982c-0.499,1.225-0.306,1.628-0.911,2.95c-0.5,1.226-0.757,1.58-1.008,2.853c-0.354,1.773-0.104,1.517-0.757,3.143
			c-0.717,1.879-0.669,1.113-0.669,3.604c2.684-0.717,3.756-4.473,5.086-6.505c2.217-3.498,4.312-7.053,7.053-10.148
			c2.789-3.144,5.578-6.045,9.487-8.116c5.337-2.95,12.236-4.627,17.169-0.266c2.12,1.878,3.095,4.569,4.981,6.665
			c7.053,8.013,20.2,1.919,26.39-4.28c1.37-1.37,2.184-1.571,3.361-3.144l4.466-5.376c4.474-5.9,3.603-6.658,10.204-2.854
			c1.669,0.919,3.394,1.678,5.369,2.386l5.489,2.289c1.418,0.412,1.475,0.612,2.7,1.113c1.152,0.516,2.128,0.717,3.144,1.177
			c5.634,2.482,11.785,4.062,17.62,6.029l31.871,7.674c2.652,0.307,4.474,0.257,7.021,0.717c12.268,2.232,35.684,2.168,47.058,0.202
			c3.143-0.565,6.899-0.71,9.995-1.21c1.934-0.371,2.789-0.668,4.618-0.975l23.255-4.675c3.965-0.814,23.4-6.239,26.357-7.617
			l6.095-2.08c1.161-0.355,1.322-0.25,2.329-0.661l28.175-10.914c1.483-0.556,2.339-1.064,3.918-1.726l11.463-5.287
			c1.886-0.806,2.595-1.821,4.626-1.821c2.129,0,2.08,7.206,6.143,9.293c10.156,5.127,22.183-7.762,26.696-15.129l5.545-9.496
			c2.032-4.062,5.03-8.931,5.368-13.653c0.114-1.226,0.065-2.241-1.515-1.887c-1.37,0.258-5.224,7.319-6.239,8.835
			c-2.031,3.248-3.997,5.69-6.658,8.382c-5.738,5.788-17.749,7.054-17.749-3.966c0-2.386,7.093-26.551,0.098-20.151
			c-4.772,4.257-6.916,14.365-8.593,20.667c-1.726,6.288-1.016,5.127-6.029,8.118c-2.901,1.78-6.609,3.554-9.802,4.876
			c-8.803,3.652-17.686,6.804-26.918,9.142c-3.91,1.007-7.513,2.481-11.519,3.143c-2.442,0.411-3.716,0.821-5.949,1.37
			l-24.665,4.569c-2.546,0.363-3.772,0.702-6.352,0.919c-2.184,0.201-4.207,0.565-6.4,0.911
			C223.526,358.773,208.501,360.047,195.548,360.047L195.548,360.047z"/>
		<path style="fill-rule:evenodd;clip-rule:evenodd;fill:#241F55;" d="M435.827,298.972c0-3.555,0.178-12.849,1.468-14.872
			c1.643-2.595,8.641-10.414,10.865-13.155c0.838-1.016,0.79-1.371,1.548-2.338l22.585-29.445c2.548-3.297,4.417-6.545,5.272-10.616
			c0.758-3.595,0.403-11.01,0.403-15.532c-2.901,0-2.016,0.153-3.24,1.926l-39.899,52.095c-0.806,1.274-1.161,1.83-1.886,3.305
			l-2.063,8.165c-1.951,10.721,0.387,32.598-0.983,45.14c-0.452,4.319,1.789,5.183-2.483,11.622
			c-2.079,3.208-4.529,5.28-7.367,7.674c-1.016,0.862-1.628,1.209-2.837,1.87c-2.596,1.379-3.547,3.2-6.739,3.2
			c-0.918-4.006-2.337-8.327-4.836-11.518c-0.564-0.66-0.677-0.66-1.161-1.378c-1.982-2.732-3.868-5.07-7.271-6.094
			c-5.98-1.822-10.704,2.442-13.961,6.344c-3.4,4.224-7.271,12.139-8.737,17.523c-1.065,3.95-1.58,6.496,0.371,10.511
			c1.967,4.159,7.303,6.948,12.381,6.948c3.096,0,15.073-3.047,11.93,1.982c-1.209,1.982-13.703,9.705-16.557,11.422l-14.251,8.527
			c-1.435,0.96-1.435,0.815-3.159,1.581c-1.435,0.612-4.82,2.281-5.739,3.393c-0.757,0.918-0.968,2.346,0.726,2.346
			c2.482,0,23.6-4.78,25.422-5.538c6.449-2.741,4.725-1.726,9.737-5.738c2.709-2.129,4.369-5.224,6.046-8.125
			c0.065-0.098,0.113-0.194,0.161-0.242c0.049-0.113,0.145-0.21,0.194-0.259l2.353-5.433c0.29-1.064,0.549-1.677,1.064-2.789
			c0.483-1.169,0.612-1.628,1.064-2.797c1.017-2.596,3.193-4.667,4.611-6.956l5.078-6.094c2.74-2.788,9.075-10.672,12.188-10.672
			c2.128,0,1.982,2.902,2.289,5.037c1.708,11.02,8.737,14.018,18.685,10.406c0.806-0.306,1.467-0.612,2.337-1.111
			c0.854-0.46,1.112-0.565,1.967-1.08c4.837-2.692,8.271-8.013,10.768-12.833c0.42-0.919,0.501-0.967,0.968-2.04
			c1.321-3.248,2.789-6.085,3.498-9.39c0.403-1.975,1.177-3.659,1.532-5.319l2.724-16.654c1.677-11.985-0.193-34.635,2.048-43.51
			c0.451-1.837,0.789-4.022,1.467-5.852c1.064-3.24,6.125-13.139,5.336-15.573c-0.871-2.644-2.95,1.064-3.562,1.919l-5.127,9.036
			c-2.08,5.183-4.658,9.746-6.496,14.985l-1.564,5.731c-1.741,5.795-0.774,14.218-0.774,20.264c0,5.327-0.451,9.084-0.451,14.21
			c0,7.408-1.111,11.882-3.256,18.233c-1.563,4.562-6.545,8.673-11.01,10.052c-1.468,0.459-4.062,0.152-5.836-0.46
			c-4.725-1.676-5.401-10.761-6.304-15.186C436.086,319.631,435.827,305.009,435.827,298.972L435.827,298.972z"/>
		<path style="fill-rule:evenodd;clip-rule:evenodd;fill:#241F55;" d="M72.174,373.806c-2.395,0-3.305,1.717-4.474,3.249
			c-2.894,3.756-8.633,8.382-9.697,13.049c1.741,2.031,2.636,1.781,5.296,2.895c1.507,0.66,3.434,1.982,4.748,2.942
			c5.134,3.868,5.69,4.932,6.722,9.236c2.877-0.258,6.432-4.514,8.262-6.344c1.58-1.628,3.353-3.256,4.675-5.029
			c0.612-0.854,1.225-1.62,2.596-1.725c2.338-0.146,7.754,3.256,9.487,4.835c1.274,1.161,3.354,2.943,4.215,4.305
			c1.668,2.588,1.121,4.57,3.257,3.362c0.854-0.46,13.501-11.535,13.501-15.339c0-5.53-9.447-10.817-12.897-13.309
			c-0.919-0.653-0.919-0.862-1.991-1.475c-4.812-2.628-6.182,0.919-8.673,3.707l-4.974,5.788c-2.998,3.909-4.877-0.598-6.601-2.129
			C82.878,379.441,75.47,373.806,72.174,373.806L72.174,373.806z"/>
		<path style="fill-rule:evenodd;clip-rule:evenodd;fill:#241F55;" d="M44.244,284.81c-1.113,0-12.18-11.832-17.669-11.994
			c-1.886-0.048-3.394,1.838-4.256,2.951l-2.748,3.305c-0.049,0.048-0.162,0.145-0.202,0.193c-2.144,2.08-6.505,6.755-6.505,9.85
			c0,1.935,4.425,2.337,8.536,5.191c2.394,1.668,5.739,3.958,7.061,6.689c0.492,1.065,0.653,2.137,1.169,3.16
			c2.587-0.612,5.989-4.466,7.818-6.352c1.266-1.225,2.273-2.184,3.45-3.401c1.725-1.83,1.476-3.144,4.619-3.144
			c3.361,0,10.1,5.626,12.341,8.271c1.62,1.878,1.313,2.644,2.272,4.626c2.701-0.209,12.236-10.317,14.066-13.009
			c4.127-6.094-8.06-13.897-12.727-16.702c-4.175-2.491-4.885-2.837-7.835,0.403l-6.037,6.916
			C46.937,282.618,45.518,284.81,44.244,284.81L44.244,284.81z"/>
		<path style="fill-rule:evenodd;clip-rule:evenodd;fill:#241F55;" d="M332.67,405.177c1.998-0.192,6.141-4.675,7.914-6.295
			l3.966-4.159c5.691-6.755,2.709-8.528-2.546-13.501c-2.274-2.185-3.854-2.951-6.481-4.676c-2.401-1.523-4.417-4.111-7.915-2.233
			c-0.565,0.355-4.675,5.079-5.337,5.836c-2.144,2.742-3.095,4.418-5.497,5.691c-2.981-1.579-3.401-3.805-7.802-6.803
			c-13.061-8.835-9.999-6.207-19.204,3.45c-2.072,2.184-4.345,4.867-4.345,7.616c0,1.976,7.802,3.346,12.268,7.916
			c4.316,4.32,3.397,4.933,4.462,7.157c2.692-1.467,4.885-3.248,7.077-5.433c7.608-7.609,6.029-9.745,13.461-5.627
			c1.919,1.065,2.435,1.517,4.046,2.838C331.509,400.817,331.202,402.147,332.67,405.177L332.67,405.177z"/>
		<path style="fill-rule:evenodd;clip-rule:evenodd;fill:#241F55;" d="M294.846,284.81c-1.621,0-1.878-1.273-5.417-4.465
			c-2.297-2.136-10.221-7.625-12.599-7.529c-1.733,0.057-3.191,1.935-4.224,3.055c-2.846,3.087-9.592,10.253-9.592,13.244
			c0,2.241,5.683,2.539,9.946,5.949c4.07,3.2,5.239,5.279,7.27,9.092c2.128-0.516,2.596-1.531,3.949-2.901
			c2.556-2.531,1.976-1.37,5.489-5.28l0.814-0.911c3.757-4.062,3.49-5.691,9.847-1.983c3.191,1.83,5.577,3.957,7.964,6.658
			c1.337,1.516,1.531,3.095,2.45,4.82c0.758-0.468,1.435-1.016,2.241-1.629c3.546-2.643,7.237-7.109,10.333-10.252
			c1.387-1.37,2.66-3.45,2.159-5.384c-1.08-3.909-6.608-8.077-9.978-10.253l-5.272-3.353c-0.096-0.048-0.402-0.193-0.548-0.314
			c-3.917-2.072-2.144-1.572-8.851,4.99l-2.728,3.296C296.514,283.488,296.127,284.81,294.846,284.81L294.846,284.81z"/>
		<path style="fill-rule:evenodd;clip-rule:evenodd;fill:#241F55;" d="M485.706,295.111c0,19.895,2.789,29.292,0,49.403
			c-0.42,2.942-1.032,5.022-1.483,8.021c-1.176,7.399-3.354,7.102-0.677,9.64c1.225-0.306,1.386-0.612,2.306-1.563
			c1.563-1.725,2.95-5.643,4.11-7.932c5.788-11.47,7.367-31.517,7.367-45.082c0-5.635-0.87-9.439-0.87-15.065
			c0-8.085-0.161-5.449,0.775-12.961c0.353-2.789,0.499-4.11,0.499-7.254c-1.467-0.307-1.725-0.565-2.854,0.604
			c-1.418,1.523-3.03,4.78-3.949,6.754c-0.501,1.064-0.468,0.862-0.919,1.733c-0.549,1.016-0.807,1.87-1.322,2.942
			c-0.758,1.411-0.854,1.322-1.37,3.354C486.819,289.888,485.706,292.532,485.706,295.111L485.706,295.111z"/>
	</g>
	<g>
		<path style="fill:#241F55;" d="M67.861,542.73l-40.987-48.185v48.185h-13.3v-77.542c0-2.313-0.185-4.256-0.548-5.82
			c-0.371-1.571-1.04-2.788-2.015-3.675c-0.967-0.87-2.257-1.516-3.877-1.936c-1.612-0.418-3.716-0.668-6.295-0.757v-2.226h26.036
			v42.109l40.157-42.109h9.415l-37.11,39.062l30.187,35.724c2.217,2.676,4.248,4.941,6.094,6.787
			c1.846,1.846,3.652,3.345,5.401,4.498c1.757,1.16,3.49,2.03,5.199,2.636c1.701,0.604,3.531,0.942,5.465,1.04v2.208H67.861z"/>
		<path style="fill:#241F55;" d="M169.238,506.176c0,13.291-2.66,22.988-7.964,29.074c-5.312,6.093-13.735,9.141-25.277,9.141
			c-11.543,0-20.055-3.015-25.552-9.06c-5.489-6.045-8.238-15.396-8.238-28.051v-42.092c0-2.313-0.185-4.256-0.556-5.82
			c-0.363-1.571-1.032-2.82-2.007-3.739c-0.967-0.919-2.282-1.596-3.941-2.016c-1.669-0.411-3.741-0.612-6.231-0.612v-2.226h26.036
			v57.061c0,10.519,1.837,18.233,5.537,23.126c3.692,4.9,9.503,7.334,17.451,7.334c8.213,0,14.283-2.628,18.209-7.883
			c3.917-5.271,5.884-13.349,5.884-24.237v-55.401h6.65V506.176z"/>
		<path style="fill:#241F55;" d="M269.222,543.843h-4.981l-22.989-65.92l-22.989,65.92h-5.545l-22.844-77.559
			c-2.684-8.859-7.109-13.284-13.299-13.284v-2.226h22.158l20.224,67.58l18.273-52.07c-1.201-4.144-3.135-7.399-5.812-9.754
			c-2.676-2.353-5.819-3.53-9.415-3.53v-2.226h23.819l23.263,68.145l19.941-68.145h7.198L269.222,543.843z"/>
		<path style="fill:#241F55;" d="M365.604,542.73l-12.188-30.469h-35.869l-12.043,30.469h-6.928l30.884-77.132
			c1.467-3.505,2.209-5.907,2.209-7.197c0-3.514-3.547-5.312-10.656-5.4v-2.226h21.876l30.195,75.899
			c1.016,2.578,1.999,4.755,2.966,6.504c0.983,1.749,2.016,3.169,3.128,4.224c1.096,1.063,2.305,1.847,3.595,2.353
			c1.29,0.508,2.773,0.767,4.434,0.767v2.208H365.604z M335.555,467.396l-15.653,39.336h31.291L335.555,467.396z"/>
		<path style="fill:#241F55;" d="M398.008,542.73v-77.542c0-2.401-0.193-4.369-0.548-5.892c-0.371-1.524-1.032-2.717-1.951-3.603
			c-0.919-0.87-2.209-1.516-3.869-1.936c-1.661-0.418-3.788-0.668-6.367-0.757v-2.226h26.035v91.955H398.008z"/>
		<path style="fill:#241F55;" d="M498.28,471.831c-0.741-3.419-1.531-6.143-2.353-8.175c-0.839-2.03-2.032-3.595-3.611-4.706
			c-1.564-1.113-3.692-1.821-6.368-2.145c-2.676-0.322-6.143-0.483-10.383-0.483h-6.658v86.408h-13.282v-86.408h-6.658
			c-2.306,0-4.24,0.016-5.805,0.064c-1.579,0.05-2.933,0.145-4.094,0.275c-1.145,0.145-2.145,0.33-2.967,0.563
			c-0.839,0.226-1.628,0.532-2.37,0.895c-2.03,1.017-3.578,2.523-4.626,4.507c-1.063,1.982-2.016,5.045-2.838,9.205h-2.225
			l1.112-21.056h74.222l1.112,21.056H498.28z"/>
	</g>
	<g>
		<path style="fill:#241F55;" d="M19.796,587.708l-3.49-8.721H6.045l-3.45,8.721H0.612l8.842-22.086
			c0.419-1,0.629-1.692,0.629-2.055c0-1.008-1.016-1.523-3.047-1.548v-0.637H13.3l8.641,21.724c0.291,0.741,0.572,1.361,0.855,1.861
			c0.274,0.499,0.572,0.902,0.887,1.209c0.314,0.307,0.661,0.532,1.032,0.677c0.371,0.146,0.79,0.218,1.266,0.218v0.637H19.796z
			 M11.196,566.138l-4.481,11.26h8.963L11.196,566.138z"/>
		<path style="fill:#241F55;" d="M85.352,587.708v-22.198c0-0.693-0.048-1.249-0.153-1.692c-0.113-0.435-0.298-0.774-0.556-1.023
			c-0.266-0.25-0.637-0.437-1.112-0.557c-0.476-0.113-1.08-0.193-1.822-0.218v-0.637h7.448v26.325H85.352z"/>
		<path style="fill:#241F55;" d="M169.553,583.904c0.685,0.999,1.418,1.773,2.2,2.337c0.774,0.548,1.524,0.83,2.233,0.83v0.637
			h-6.182l-8.206-12.211h-2.419v12.211h-3.805v-22.198c0-0.661-0.056-1.209-0.177-1.644c-0.121-0.436-0.315-0.789-0.597-1.048
			c-0.273-0.273-0.645-0.46-1.104-0.58c-0.468-0.113-1.056-0.193-1.765-0.218v-0.637h10.777c3.361,0,5.836,0.58,7.432,1.741
			c1.604,1.168,2.402,2.966,2.402,5.399c0,2.644-1.032,4.53-3.095,5.659c-0.476,0.274-0.96,0.476-1.467,0.621
			c-0.5,0.145-1.168,0.282-2.015,0.41L169.553,583.904z M157.18,573.908c0.766,0,1.419,0,1.942,0c0.532,0,0.983-0.017,1.346-0.031
			c0.371-0.033,0.685-0.057,0.936-0.081c0.249-0.032,0.499-0.065,0.733-0.13c2.83-0.548,4.24-2.28,4.24-5.19
			c0-1.95-0.564-3.352-1.701-4.215c-1.136-0.863-2.99-1.291-5.554-1.291c-0.443,0-0.798,0.025-1.047,0.057
			c-0.25,0.05-0.443,0.138-0.573,0.282c-0.137,0.146-0.217,0.363-0.258,0.67c-0.04,0.306-0.064,0.709-0.064,1.209V573.908z"/>
		<path style="fill:#241F55;" d="M254.132,588.022h-1.427l-6.578-18.87l-6.586,18.87h-1.579l-6.545-22.199
			c-0.766-2.538-2.031-3.804-3.805-3.804v-0.637h6.344l5.788,19.345l5.231-14.904c-0.347-1.185-0.903-2.119-1.669-2.797
			c-0.765-0.669-1.66-1.007-2.692-1.007v-0.637h6.819l6.658,19.506l5.706-19.506h2.064L254.132,588.022z"/>
		<path style="fill:#241F55;" d="M338.006,587.708l-3.498-8.721h-10.254l-3.45,8.721h-1.982l8.834-22.086
			c0.42-1,0.629-1.692,0.629-2.055c0-1.008-1.016-1.523-3.046-1.548v-0.637h6.271l8.641,21.724c0.29,0.741,0.564,1.361,0.854,1.861
			c0.273,0.499,0.563,0.902,0.887,1.209c0.306,0.307,0.661,0.532,1.032,0.677c0.37,0.146,0.789,0.218,1.257,0.218v0.637H338.006z
			 M329.396,566.138l-4.481,11.26h8.964L329.396,566.138z"/>
		<path style="fill:#241F55;" d="M412.678,575.497v7.923c0,0.718,0.064,1.306,0.161,1.765c0.113,0.46,0.29,0.831,0.564,1.089
			c0.258,0.273,0.629,0.459,1.096,0.58c0.484,0.113,1.097,0.194,1.838,0.218v0.637h-7.464v-12.059l-5.707-8.874
			c-0.597-0.928-1.145-1.685-1.596-2.298c-0.468-0.612-0.919-1.096-1.353-1.451c-0.436-0.353-0.888-0.603-1.339-0.75
			c-0.468-0.144-1-0.232-1.579-0.257v-0.637h6.657l7.771,12.051l7.608-12.051h2.225L412.678,575.497z"/>
		<path style="fill:#241F55;" d="M490.849,562.333c-4.546,0.29-6.819,1.677-6.819,4.16c0,1.031,0.436,1.982,1.307,2.854
			c0.87,0.879,2.369,1.838,4.514,2.901c1.37,0.71,2.547,1.387,3.498,2.04c0.951,0.652,1.709,1.306,2.305,1.982
			c0.597,0.669,1.032,1.378,1.29,2.104c0.275,0.725,0.403,1.524,0.403,2.393c0,1.088-0.226,2.08-0.678,2.991
			c-0.451,0.919-1.063,1.7-1.853,2.361c-0.806,0.661-1.741,1.17-2.838,1.523c-1.096,0.354-2.305,0.532-3.595,0.532
			c-0.37,0-0.725-0.008-1.08-0.032c-0.37-0.032-0.773-0.081-1.209-0.162c-0.451-0.079-0.983-0.176-1.596-0.297
			c-0.596-0.121-1.339-0.283-2.177-0.492c-0.161-0.032-0.338-0.064-0.516-0.121c-0.161-0.023-0.322-0.057-0.516-0.08
			c-0.178-0.024-0.387-0.057-0.597-0.081l-0.628-6.183h0.628c0.612,1.854,1.548,3.265,2.806,4.24
			c1.241,0.983,2.772,1.467,4.578,1.467c0.79,0,1.515-0.113,2.191-0.354c0.679-0.241,1.242-0.563,1.726-0.968
			c0.468-0.419,0.855-0.911,1.128-1.49c0.275-0.58,0.42-1.218,0.42-1.902c0-1.17-0.451-2.201-1.338-3.136
			c-0.87-0.919-2.401-1.935-4.578-3.047c-2.999-1.531-4.918-2.935-5.739-4.208c-0.79-1.128-1.193-2.386-1.193-3.756
			c0-1.169,0.258-2.192,0.758-3.096c0.5-0.902,1.209-1.612,2.145-2.145c0.419-0.232,0.87-0.435,1.337-0.612
			c0.484-0.169,1-0.313,1.565-0.435c0.58-0.113,1.209-0.209,1.902-0.259c0.71-0.048,1.516-0.096,2.45-0.112V562.333z"/>
	</g>
</g>
</svg>
