<?xml version="1.0" encoding="UTF-8" standalone="no"?>
<svg
   xmlns:svg="http://www.w3.org/2000/svg"
   xmlns="http://www.w3.org/2000/svg"
   version="1.1"
   width="717.4754"
   height="118.77415"
   id="svg21276">
  <defs
     id="defs21278" />
  <g
     transform="translate(-41.26231,-407.26082)"
     id="layer1">
    <path
       d="m 532.60042,436.80992 c -2.97112,0 -5.05423,2.47466 -5.05423,5.31015 0,2.74847 2.08311,5.31014 5.05423,5.31014 2.9788,0 5.05423,-2.56167 5.05423,-5.31014 0,-2.83549 -2.07543,-5.31015 -5.05423,-5.31015 z m -375.67663,2.04729 c -14.2363,0 -33.65223,7.51609 -33.65223,32.82052 0,24.07606 16.2452,32.56461 33.4603,32.56461 8.7419,0 16.09165,-2.41323 18.61749,-3.64672 2.15476,-5.68633 3.10931,-10.14174 3.64672,-16.12237 l -2.43115,-0.51182 c -2.79198,7.56984 -5.04911,17.14601 -20.02499,17.14601 -16.40643,0 -23.79968,-15.02195 -23.79968,-31.22108 0,-17.71925 9.32794,-27.95823 24.11956,-27.95823 15.41349,0 16.56509,11.56716 17.4659,15.35463 l 2.43115,-0.51182 c 0,-4.73946 -0.59628,-10.29272 -1.40751,-14.07508 -2.34414,-1.52522 -9.22558,-3.83865 -18.42556,-3.83865 z m 336.13846,0 -2.62309,0.89568 c -0.71655,1.80417 -1.47148,3.73886 -2.17524,5.63003 l -18.74544,47.91925 c -2.17268,5.50719 -2.63844,6.53083 -6.07788,7.10151 l -1.66341,0.31989 0,2.04729 18.93737,0 0,-2.04729 -5.43809,-0.76773 c -0.9955,-0.0973 -2.17524,-0.36851 -2.17524,-2.17524 0,-0.74214 0.77029,-3.35754 1.85535,-6.39776 l 4.54241,-13.11541 c 3.1477,-0.56557 6.31587,-0.95967 9.46869,-0.95967 3.35243,0 6.70997,0.2943 10.04449,0.95967 l 6.2698,17.91373 c 0.17668,0.67049 0.5758,1.33585 0.5758,1.98331 0,1.04411 -1.18998,1.51755 -2.81501,1.79137 l -4.03059,0.76773 0,2.04729 22.32819,0 0,-2.04729 -3.58275,-0.5758 c -2.33646,-0.46831 -3.24495,-2.66147 -4.60639,-6.46174 z m -3.77468,12.8595 8.25311,22.90399 c -2.88667,-0.37107 -5.75031,-0.44784 -8.63698,-0.44784 -2.69986,0 -5.48416,0.26358 -8.18914,0.44784 z m -285.72409,6.52572 c -9.5557,0 -15.3316,6.38241 -18.04169,10.17244 0.63722,1.71972 1.3077,2.6282 2.3032,3.77468 l 0.76773,0 c 1.71716,-3.51365 3.91287,-9.46869 11.1321,-9.46869 6.75604,0 8.38107,5.38436 8.38107,11.64393 l 0,2.17524 c -7.93322,2.4593 -23.47979,6.17512 -23.47979,18.48953 0,5.2257 4.45541,9.21278 11.13211,9.21278 7.0273,0 10.41556,-2.05752 13.30735,-4.03059 0.9008,1.97307 2.49768,4.03059 7.10151,4.03059 3.77724,0 5.67866,-1.52011 6.84561,-2.36717 l -0.44784,-1.34353 c -0.3506,0.18937 -0.69864,0.38387 -1.59944,0.38387 -4.95699,0 -4.99026,-7.12711 -4.99026,-13.75519 l 0,-13.56326 c 0,-9.67342 -2.13941,-15.35463 -12.41166,-15.35463 z m 79.7801,0 c -3.16305,0 -11.39825,2.46698 -14.0111,3.32683 l 0.38387,2.3032 1.98331,-0.5758 c 0.17913,0 0.83682,-0.12795 1.27955,-0.12795 2.53351,0 2.49513,2.66914 2.49513,11.96381 l 0,18.36158 c 0,5.88082 -0.80612,6.5334 -3.96662,6.90958 l -2.17524,0.31989 0,2.04729 20.15296,0 0,-2.04729 -2.11127,-0.31989 c -3.32939,-0.37618 -4.03059,-1.02876 -4.03059,-6.90958 l 0,-25.20718 c 1.35121,-1.60456 4.30954,-5.56606 9.7246,-5.56606 9.28188,0 9.27676,9.49428 9.27676,13.17939 l 0,17.59385 c 0,5.88082 -0.81636,6.5334 -3.96661,6.90958 l -2.17524,0.31989 0,2.04729 20.08897,0 0,-2.04729 -2.04728,-0.31989 c -3.3294,-0.37618 -4.03059,-1.02876 -4.03059,-6.90958 l 0,-13.37132 c 0,-8.07654 -0.0819,-9.82441 -0.44785,-12.85951 2.53352,-2.73056 5.41507,-4.54241 9.46869,-4.54241 10.00354,0 9.98051,8.9799 9.98051,17.59385 l 0,13.17939 c 0,5.88082 -0.80868,6.5334 -3.96661,6.90958 l -2.17524,0.31989 0,2.04729 20.08897,0 0,-2.04729 -2.04728,-0.31989 c -3.33707,-0.37618 -4.03059,-1.02876 -4.03059,-6.90958 l 0,-15.41861 c 0,-9.37912 -0.059,-19.83306 -14.84281,-19.83306 -6.5769,0 -11.53133,4.25067 -13.69121,6.14185 -0.98782,-2.73568 -4.20717,-6.14185 -11.77188,-6.14185 -7.12199,0 -11.36755,4.38119 -13.43531,6.46174 z m 82.46716,0 c -9.55058,0 -15.28041,6.38241 -17.97771,10.17244 0.61675,1.71972 1.31794,2.6282 2.3032,3.77468 l 0.76773,0 c 1.70948,-3.51365 3.91287,-9.46869 11.1321,-9.46869 6.76116,0 8.38107,5.38436 8.38107,11.64393 l 0,2.17524 c -7.93578,2.4593 -23.54376,6.17512 -23.54376,18.48953 0,5.2257 4.5117,9.21278 11.19608,9.21278 7.0273,0 10.35158,-2.05752 13.24337,-4.03059 0.90081,1.97307 2.56422,4.03059 7.1655,4.03059 3.78747,0 5.67097,-1.52011 6.8456,-2.36717 l -0.44784,-1.34353 c -0.36595,0.18937 -0.76006,0.38387 -1.66342,0.38387 -4.95955,0 -4.92628,-7.12711 -4.92628,-13.75519 l 0,-13.56326 c 0,-9.67342 -2.19571,-15.35463 -12.47564,-15.35463 z m 37.68283,0 c -3.1605,0 -11.33172,2.46698 -13.94713,3.32683 l 0.38387,2.3032 1.98331,-0.5758 c 0.17913,0 0.76261,-0.12795 1.21557,-0.12795 2.52584,0 2.55911,2.66914 2.55911,11.96381 l 0,18.36158 c 0,6.06764 -0.81636,6.5334 -3.96662,6.90958 l -2.17524,0.31989 0,2.04729 20.08898,0 0,-2.04729 -2.04728,-0.31989 c -3.33452,-0.37618 -4.09457,-0.84194 -4.09457,-6.90958 l 0,-25.65503 c 1.62247,-2.17268 4.56032,-5.11821 9.34073,-5.11821 10.73289,0 10.68426,9.19231 10.68426,18.10567 l 0,12.66757 c 0,6.06764 -0.80867,6.5334 -3.96661,6.90958 l -2.17524,0.31989 0,2.04729 20.15296,0 0,-2.04729 -2.11127,-0.31989 c -3.33963,-0.37618 -4.03059,-0.84194 -4.03059,-6.90958 l 0,-14.07508 c 0,-10.90946 -0.0143,-21.17659 -14.07508,-21.17659 -6.86607,0 -11.74373,4.01523 -13.81916,6.01389 z m 134.03313,0 c -3.1605,0 -11.38546,2.46442 -14.0111,3.32683 l 0.38386,2.3032 1.98331,-0.5758 c 0.18692,0 0.75749,-0.12795 1.21557,-0.12795 2.52072,0 2.55911,2.66658 2.55911,11.96381 l 0,18.36158 c 0,6.3517 -0.80612,6.5334 -3.96661,6.90958 l -2.17524,0.31989 0,2.04729 20.08897,0 0,-2.04729 -2.04728,-0.31989 c -3.32684,-0.37618 -4.03059,-0.55788 -4.03059,-6.90958 z m 22.07228,0 c -2.52072,0 -8.55253,1.8144 -13.05144,3.51877 l 0.70376,2.23921 0.83171,-0.25591 c 0.71143,-0.18671 1.39215,-0.57579 2.11126,-0.57579 2.52072,0 2.5591,2.07031 2.5591,11.83586 l 0,18.48953 c 0,6.54363 -0.80868,6.5334 -3.96661,6.90958 l -2.17524,0.31989 0,2.04729 21.56046,0 0,-2.04729 -2.11126,-0.31989 c -4.78297,-0.37618 -5.4381,-0.36595 -5.4381,-6.90958 l 0,-25.39912 c 0,-1.41006 1.39983,-3.7107 4.2865,-3.7107 1.26164,0 6.15977,1.64806 7.42141,2.11126 2.08311,-1.69924 3.27821,-3.10675 4.54241,-5.37412 -1.1644,-0.76005 -4.04851,-2.87899 -6.84561,-2.87899 -4.59103,0 -8.4476,4.62686 -9.78858,6.14185 0,-2.55911 -0.2687,-4.51938 -0.63977,-6.14185 z m 105.62706,0 c -9.5557,0 -15.32648,6.38241 -18.04169,10.17244 0.63978,1.71972 1.3768,2.6282 2.36717,3.77468 l 0.70376,0 c 1.69924,-3.51365 3.98196,-9.46869 11.19608,-9.46869 6.76627,0 8.38107,5.38436 8.38107,11.64393 l 0,2.17524 c -7.93578,2.4593 -23.54377,6.17512 -23.54377,18.48953 0,5.2257 4.5245,9.21278 11.19609,9.21278 7.02986,0 10.36181,-2.05752 13.24337,-4.03059 0.89824,1.97307 2.5156,4.03059 7.10151,4.03059 3.78748,0 5.73752,-1.52011 6.90959,-2.36717 l -0.44785,-1.34353 c -0.36339,0.18937 -0.76517,0.38387 -1.66341,0.38387 -4.96467,0 -4.92628,-7.12711 -4.92628,-13.75519 l 0,-13.56326 c 0,-9.67342 -2.19571,-15.35463 -12.47564,-15.35463 z m 79.07635,0 c -7.83854,0 -14.39497,4.25835 -14.39497,12.02779 0,15.45956 20.025,10.90691 20.025,23.79968 0,3.32939 -2.39788,7.03754 -6.46174,7.03754 -7.21668,0 -10.27481,-6.17768 -12.09177,-12.34768 l -2.43115,0 c 0,3.7107 0.36339,8.46296 1.72739,12.73154 2.41836,1.14136 5.58653,2.75104 11.452,2.75104 8.56021,0 15.61054,-4.30441 15.61054,-13.30734 0,-15.16014 -20.025,-12.03292 -20.025,-22.84002 0,-4.16366 2.33902,-6.71765 5.75799,-6.71765 5.87059,0 8.76493,6.8021 8.76493,11.06813 l 2.81502,0 c 0,-5.02352 -0.31221,-8.03815 -1.21558,-11.45199 -1.9833,-1.22326 -4.75225,-2.75104 -9.53266,-2.75104 z m -524.23268,1.40751 0,2.11126 2.36717,0.76773 c 3.52645,1.14392 3.50598,2.63844 4.67037,5.75799 l 10.81222,25.65502 c 1.16695,2.95065 2.68706,6.59738 2.68706,10.49233 0,8.89289 -8.89033,10.84037 -13.94712,15.48259 -0.62954,0.84451 -1.1644,2.93785 -1.34353,4.92628 0.63977,0.0946 1.16183,0.19183 1.79137,0.19183 9.01573,0 13.141,-9.66318 16.5702,-18.2976 l 9.85256,-24.11957 c 2.53095,-6.44127 6.69206,-16.69304 8.76493,-18.8734 0.63466,-0.66025 1.61736,-1.05179 2.43115,-1.34353 l 1.85535,-0.63978 0,-2.11126 -18.2976,0 0,2.11126 4.79833,0.83171 c 1.07738,0.18938 2.68706,0.38131 2.68706,1.53547 0,2.64611 -9.09506,26.7452 -10.17245,29.49368 l -10.30039,-26.35878 c -0.45808,-1.12846 -0.89569,-2.49247 -0.89569,-2.87889 0,-1.03644 1.52267,-1.42286 2.87899,-1.79137 l 3.51877,-0.83171 0,-2.11126 z m 357.63494,0 0,2.11126 2.68706,0.63977 c 2.61284,0.67049 2.92505,2.88667 3.90263,5.82197 l 12.15575,36.0194 c 1.26932,-0.19715 2.61541,-1.25396 3.51877,-2.11126 l 11.452,-29.87755 12.34768,31.98881 c 0.81379,-0.2815 2.35693,-1.06459 3.26286,-2.11126 l 11.64393,-32.8845 c 1.53546,-4.44517 2.23665,-6.08299 4.67036,-6.84561 l 2.04729,-0.63977 0,-2.11126 -17.52987,0 0,2.11126 3.00694,0.5758 c 3.06581,0.56812 4.0306,0.76261 4.0306,2.36717 0,1.33841 -0.68584,3.56483 -0.95967,4.41445 l -6.84561,23.60775 -0.19183,0 -12.34768,-32.56461 c -0.72678,0 -1.93724,0.45552 -2.5591,0.83171 l -11.96382,31.7329 -0.12795,0 -7.67732,-24.82332 c -0.26103,-0.85986 -0.63978,-1.96539 -0.63978,-3.00695 0,-1.70692 0.7012,-2.02169 3.13491,-2.49513 l 3.26286,-0.63977 0,-2.11126 z m 104.0916,0 0,2.11126 2.30319,0.76773 c 3.51877,1.14392 3.55972,2.63844 4.73435,5.75799 l 10.81221,25.65502 c 1.17207,2.95065 2.68706,6.59738 2.68706,10.49233 0,8.89289 -8.95174,10.84037 -14.0111,15.48259 -0.61162,0.84451 -1.15927,2.93785 -1.34353,4.92628 0.6321,0.0946 1.22326,0.19183 1.85536,0.19183 9.0106,0 13.14868,-9.66318 16.5702,-18.2976 l 9.78858,-24.11957 c 2.52583,-6.44127 6.69718,-16.69304 8.76493,-18.8734 0.62954,-0.66025 1.63271,-1.05179 2.43115,-1.34353 l 1.91933,-0.63978 0,-2.11126 -18.2976,0 0,2.11126 4.73434,0.83171 c 1.07483,0.18672 2.75104,0.38131 2.75104,1.53547 0,2.64611 -9.08738,26.7452 -10.17244,29.49368 l -10.3004,-26.35878 c -0.43505,-1.12856 -0.89569,-2.49257 -0.89569,-2.87899 0,-1.03644 1.53291,-1.42542 2.879,-1.79138 l 3.51877,-0.83171 0,-2.11126 z m -474.90593,21.36852 1.21557,0 0,15.99441 c -0.62442,0.93919 -2.86875,3.90264 -6.8456,3.90264 -5.14124,0 -8.38107,-3.23471 -8.38107,-8.63698 0,-8.90569 8.87242,-11.26007 14.0111,-11.26007 z m 162.31124,0 1.21557,0 0,15.99441 c -0.63209,0.93919 -2.88155,3.90264 -6.8456,3.90264 -5.14636,0 -8.38107,-3.23471 -8.38107,-8.63698 0,-8.90569 8.86218,-11.26007 14.0111,-11.26007 z m 299.4153,0 1.21557,0 0,15.99441 c -0.62954,0.93919 -2.89435,3.90264 -6.84561,3.90264 -5.13868,0 -8.38107,-3.23471 -8.38107,-8.63698 0,-8.90569 8.85451,-11.26007 14.01111,-11.26007 z"
       id="path7308"
       style="fill:#18468b;fill-opacity:1;fill-rule:nonzero;stroke:none" />
    <path
       d="M 60.503632,443.44722 45.60964,462.38715 c 0,0 -3.326837,4.01268 4.181578,8.83148 l 5.908973,-7.61334 1.253962,0.91104 -5.668418,7.8974 5.594204,4.03571 -4.268588,5.42018 c 0,0 -2.275044,3.03766 0.388984,6.2519 l 0.03849,0.15354 -8.17634,11.19097 c 0,0 -0.662809,0.87009 -0.7447,1.23605 -0.07677,0.36851 -0.153546,0.69863 0,0.82915 0.158665,0.10748 0.51438,0.27382 1.220693,-0.40946 0.693518,-0.70887 9.98051,-9.84232 9.98051,-9.84232 0,0 0.340361,-0.70119 1.476604,-0.1255 1.133683,0.57324 2.198271,1.24117 4.621743,-0.72934 2.418355,-1.97819 7.23715,-8.9799 7.23715,-8.9799 l 0.386425,0.0512 0.673044,9.38168 12.792967,0.0409 17.064112,12.84927 2.379967,-0.12017 -27.756053,-21.82405 0.967342,-1.00317 6.246775,4.82903 -5.361325,-42.12543 -15.544004,-0.0768"
       id="path7312"
       style="fill:#18468b;fill-opacity:1;fill-rule:nonzero;stroke:none" />
    <path
       d="m 63.182974,421.83893 c -5.604318,-0.0674 -8.892891,0.44785 -8.892891,0.44785 -3.869366,0.5067 -5.246165,1.59944 -5.246165,1.59944 -4.322328,2.68962 -3.838658,9.27675 -3.838658,9.27675 l 4.286501,-0.12795 0.06388,0.70375 c 0.294297,2.78431 3.006948,2.75104 3.006948,2.75104 5.026083,-0.45296 6.333785,0.25591 6.333785,0.25591 1.781137,0.34804 1.791374,1.91933 1.791374,1.91933 l 15.226675,-0.12796 c 0,0 -0.795882,-11.56459 -2.495127,-14.07507 -1.40239,-2.03705 -3.902636,-2.36718 -3.902636,-2.36718 -2.344775,-0.18753 -4.465679,-0.23347 -6.333785,-0.25591 z m 15.09872,22.64808 0.895687,6.71765 7.357427,0.19183 1.279552,-3.90263 c 0,0 -4.230201,-2.966 -9.532666,-3.00695 z m 11.196085,4.03059 -1.279553,3.83866 4.222523,4.92628 4.798322,-0.12796 c 0,0 -2.149648,-5.8757 -7.741292,-8.63698 z m -10.108466,4.54241 1.535463,10.55631 7.357428,0.38387 2.815015,-5.82197 -4.542411,-5.05423 -7.165495,-0.0639 z m 18.169647,5.69401 -4.798323,0.19183 -2.559105,5.56606 3.77468,4.2865 5.310143,0 c 0.754935,-5.98575 -1.727395,-10.04449 -1.727395,-10.04449 z m -16.378273,6.65368 1.471485,10.17244 6.845607,-0.12796 3.454791,-5.75798 -3.710702,-4.03059 -8.061181,-0.25591 z m -18.553512,3.51877 -5.949919,7.35742 c 4.452843,3.29613 7.037539,-0.5758 7.037539,-0.5758 2.799661,-3.37545 -1.08762,-6.78162 -1.08762,-6.78162 z m 31.349037,1.66341 -3.262859,5.18219 4.158546,3.83866 c 2.91738,-3.21424 3.966613,-9.02085 3.966613,-9.02085 l -4.734344,0 -0.127956,0 z m -4.414456,6.5897 -6.717651,0.19183 1.407508,9.91653 c 4.900686,-1.25908 9.404711,-6.01389 9.404711,-6.01389 l -4.094568,-4.09457 z"
       id="path7316"
       style="fill:#419629;fill-opacity:1;fill-rule:nonzero;stroke:none" />
    <path
       d="m 62.927084,408.27568 c -12.066181,0.23799 -20.664774,8.573 -20.664774,8.573 l 7.485382,7.22947 c 3.378019,-2.26481 17.657826,-1.21558 17.657826,-1.21558 5.207778,-0.19449 5.694008,2.68706 5.694008,2.68706 1.161834,2.56423 2.303195,12.92349 2.303195,12.92349 l -15.290653,0.0639 c -1.033878,2.62564 0.383866,4.92628 0.383866,4.92628 l 21.624438,0.12795 0.319888,0 c 0.706313,-0.0819 2.139412,-1.25652 2.815016,-1.53546 1.433098,-0.58859 2.855961,-1.48684 3.77468,-2.81502 0.207287,-0.31732 0.365952,-0.62698 0.639776,-0.89568 0.890568,-0.89569 2.175239,-1.34609 3.390814,-1.40751 1.778578,-0.10482 3.477824,0.70887 5.246166,0.83171 1.458689,0.10236 2.978798,-0.0819 4.286498,-0.83171 1.33586,-0.77285 2.36462,-2.02425 3.13491,-3.45479 0.38386,-0.7447 0.57835,-1.64039 1.08762,-2.3032 0.29941,-0.3941 0.65257,-0.75237 1.08762,-0.95966 0.73702,-0.3378 1.58664,-0.32501 2.36717,-0.12796 1.10553,0.65769 2.28272,1.17207 3.51877,1.34353 0.92383,0.1253 1.85279,0.0383 2.68706,-0.38386 0.42737,-0.22008 0.85218,-0.58092 1.1516,-0.95967 0.42737,-0.51694 0.60394,-1.1951 0.76773,-1.85535 l 1.08762,-6.90958 c 0.10236,-0.65001 0.32244,-1.23861 0.51182,-1.85535 0.23799,-0.77541 0.35827,-1.57385 0.70375,-2.3032 0.66537,-1.35888 1.54826,-2.56678 2.49513,-3.7107 l 0,-0.19183 c -0.5195,-0.13062 -1.06203,-0.0768 -1.59944,-0.0639 -1.71716,0.0639 -3.43944,0.34547 -5.11821,0.70375 -3.3166,0.74726 -6.52316,2.10358 -9.21278,4.35048 -0.4632,0.38642 -0.90336,0.8573 -1.34353,1.27955 l -0.51182,0.38387 c -2.14453,0.52205 -4.10225,1.82464 -5.4381,3.7107 -0.327566,0.44528 -0.644895,0.91104 -0.895687,1.40751 -0.148428,0.2815 -0.19961,0.57835 -0.319888,0.89568 -0.237997,0.61419 -0.529735,1.22326 -0.767732,1.85535 -0.291738,0.71399 -0.834268,1.35633 -1.471485,1.7274 -0.588594,0.32757 -1.325616,0.42993 -1.983306,0.51182 -1.696687,0.238 -3.390815,0.20207 -5.118211,0.0639 -1.709482,0.13553 -3.467587,0.62698 -4.926277,1.66341 -0.534853,0.39155 -1.021083,0.88034 -1.471485,1.40751 -0.775409,0.89057 -1.25908,2.02937 -2.17524,2.75104 -3.093958,2.43883 -3.526447,2.62564 -4.286501,2.55911 l -0.127955,-1.21558 12.923481,-13.49928 -0.255911,-0.0639 c -3.055571,2.26992 -4.03059,-1.91933 -4.03059,-1.91933 -1.271876,-4.83671 -5.630032,-8.31709 -5.630032,-8.31709 -6.249334,-5.74264 -16.506227,-5.18219 -16.506227,-5.18219 z m -0.895687,37.81077 1.023642,1.53547 10.300398,0.12795 0.767731,-1.53546 -12.091771,-0.12796 z m 2.111262,3.07093 1.023642,1.40751 6.013897,0.12795 0.959664,-1.53546 -7.997203,0 z m 1.855351,2.87899 0.767731,1.21558 2.878994,0 0.639776,-1.21558 -4.286501,0 z m 1.919329,3.51877 c -4.721549,-0.22776 -6.653674,3.00695 -6.653674,3.00695 -2.341581,4.14319 0.127956,7.16549 0.127956,7.16549 l 6.525718,-10.17244 z m 0.639776,0 7.101516,10.8762 c 0,0 2.06008,-3.18609 -0.511821,-7.29345 0,0 -2.269926,-3.46247 -6.589695,-3.58275 z m 1.855351,37.10703 c -0.34292,0 -0.468316,0.44784 -0.575799,0.76773 l -0.06388,9.02084 0.06388,0.25591 0,0.0639 0.191831,0.12795 5.694009,0.0639 c 0.268706,0 0.48623,-0.20729 0.575798,-0.44784 -0.08967,-0.83427 -0.05118,-1.66086 0.191831,-2.49513 l 0.127955,0 c 1.100415,1.56361 2.835489,2.45418 4.606389,2.94297 l 8.189137,0.12795 0.319888,-0.19183 0.127955,-0.51182 c 0.08947,-0.95454 0.138192,-1.98842 0.06388,-2.94297 0.115262,-0.30453 -0.102364,-0.52717 -0.383865,-0.63977 -0.37363,-0.13308 -0.780528,0.0205 -1.151598,0 -1.097856,-0.0973 -2.213626,-0.43249 -3.134904,-1.08762 -1.008287,-0.70888 -1.883501,-1.68645 -2.303194,-2.879 -0.222642,-0.55532 -0.281502,-1.13112 -0.383866,-1.72739 l -0.25591,-0.25591 -11.899839,-0.19183 z"
       id="path7344"
       style="fill:#c4122e;fill-opacity:1;fill-rule:nonzero;stroke:none" />
    <path
       d="m 62.159352,421.13518 c -5.015846,0 -7.905076,0.44528 -7.933226,0.44784 -3.971731,0.51694 -5.476485,1.71716 -5.566053,1.79138 -1.861882,1.1995 -2.919714,3.06685 -3.454792,4.79832 -0.550208,1.76322 -0.637217,3.43176 -0.639776,4.35048 0,0.44016 0,0.69095 0,0.70375 l 0.06387,0.63978 4.286501,-0.19183 0.06388,0.12795 c 0.158665,1.62247 1.072265,2.54631 1.919329,2.94297 0.854741,0.41458 1.612236,0.38387 1.663418,0.38387 l 0.06388,0 c 1.259079,-0.11015 2.259689,-0.12796 3.070926,-0.12796 1.195102,0 1.988424,0.10237 2.431149,0.19183 l 0.383866,0.12796 0.127956,0 0.06388,0 0.06387,0.0639 c 0.719109,0.15109 0.926396,0.48112 1.08762,0.76774 l 0.19183,0.38386 0,0.0639 0,0.0639 0.191831,0 1.087619,0 c -0.002,-0.0665 -0.02313,-0.563 -0.319888,-1.1516 -0.273026,-0.56554 -0.874436,-1.18414 -1.855351,-1.4075 -0.13553,-0.0639 -0.934073,-0.44529 -3.454792,-0.44785 -0.854741,0 -1.91421,0.0768 -3.198881,0.19183 -0.204729,-0.0123 -0.790764,-0.14576 -1.279553,-0.44784 -0.470527,-0.30785 -0.895195,-0.76227 -1.023642,-1.7274 0.162759,0.002 0.204729,0 0.511821,0 1.003169,0 2.66147,-0.0563 4.222524,-0.25591 0.777968,-0.0999 1.522667,-0.24567 2.175239,-0.44784 0.647454,-0.21496 1.192543,-0.46064 1.599441,-0.95966 l -0.958948,-0.8313 c -0.09213,0.13819 -0.481112,0.34292 -1.023642,0.51182 -1.645505,0.53997 -4.560325,0.64489 -6.013897,0.63977 -0.563003,0 -0.895687,0 -0.895687,0 l -3.966613,0.19183 c 0,-0.82403 0.08189,-2.40044 0.575799,-3.96661 0.488789,-1.56873 1.374239,-3.11443 2.942971,-4.09457 l 0.06387,0 c 0.07923,-0.0639 1.443335,-1.06714 4.990255,-1.53546 l 0.511821,-0.0639 c 1.023642,-0.12038 3.523888,-0.38386 7.229472,-0.38386 2.088229,0 4.583357,0.10482 7.357427,0.31989 l 0.06387,0 c 0.419693,0.0587 2.285281,0.49902 3.326837,2.04728 0.325006,0.45552 0.660249,1.60968 0.959664,3.00695 0.465757,2.10102 0.852182,4.82135 1.08762,6.97356 0.22776,2.14453 0.31477,3.7107 0.319888,3.7107 l 1.279553,-0.0639 c 0,-0.008 -0.217524,-2.92762 -0.639777,-6.14185 -0.207287,-1.61224 -0.437607,-3.32684 -0.767731,-4.79833 -0.325007,-1.46892 -0.690959,-2.66147 -1.215575,-3.45479 -1.617355,-2.31599 -4.225083,-2.60517 -4.286501,-2.62308 l -0.06388,0 c -2.80478,-0.22008 -5.307584,-0.31989 -7.421405,-0.31989 z m -6.909584,4.99025 c 0,0 -2.410677,-0.12795 -2.623082,2.49513 l 5.502076,-0.0639 c 0,0 -0.271266,-2.51816 -2.878994,-2.43115 z"
       id="path7380"
       style="fill:#18468b;fill-opacity:1;fill-rule:nonzero;stroke:none" />
  </g>
</svg>
