<?xml version="1.0" encoding="utf-8"?>
<!-- Generator: Adobe Illustrator 22.1.0, SVG Export Plug-In . SVG Version: 6.00 Build 0)  -->
<svg version="1.1" id="Слой_1" xmlns="http://www.w3.org/2000/svg" xmlns:xlink="http://www.w3.org/1999/xlink" x="0px" y="0px"
	 width="40px" height="20.387px" viewBox="0 0 40 20.387" style="enable-background:new 0 0 40 20.387;" xml:space="preserve">
<style type="text/css">
	.st0{fill:#8BBF70;}
	.st1{fill:#0B968F;}
	.st2{fill:#51A57E;}
	.st3{fill:#217495;}
	.st4{fill:#207495;}
	.st5{fill:#0C968F;}
	.st6{fill:#154F94;}
	.st7{fill:#10968F;}
	.st8{fill:#14978E;}
	.st9{fill:#159891;}
	.st10{fill:#149790;}
	.st11{fill:#383864;}
	.st12{fill:#1B9891;}
	.st13{fill:#0B8592;}
	.st14{fill:#17968F;}
	.st15{fill:#78B576;}
	.st16{fill:url(#SVGID_1_);}
	.st17{fill:#279E96;}
	.st18{fill:#E6F6F6;}
	.st19{fill:#66AD7B;}
	.st20{fill:#3DA085;}
	.st21{fill:#BEE4E7;}
</style>
<g>
	<path class="st0" d="M23.84,4.935c-0.087,0.04-0.04,0.113-0.037,0.171c0.003,0.055,0.05,0.119,0.033,0.162
		c-0.068,0.169-0.026,0.344-0.045,0.514c-0.014,0.128-0.029,0.259-0.065,0.383c-0.101,0.348-0.198,0.699-0.365,1.021
		c-0.149,0.288-0.297,0.576-0.513,0.827c-0.155,0.179-0.279,0.385-0.457,0.545c-0.396,0.356-0.817,0.669-1.33,0.84
		c-0.407,0.136-0.822,0.213-1.25,0.183c-0.315-0.022-0.619-0.107-0.916-0.216c-0.392-0.144-0.727-0.378-1.043-0.642
		c-0.432-0.36-0.77-0.795-1.041-1.288c-0.23-0.42-0.405-0.862-0.505-1.326c-0.069-0.32-0.088-0.652-0.07-0.983
		c0.003-0.049,0.039-0.121-0.049-0.145c0.033-0.081,0.086-0.16,0.095-0.243c0.043-0.387,0.143-0.755,0.324-1.101
		c0.04-0.076,0.055-0.165,0.082-0.248c0.033-0.037,0.066-0.074,0.099-0.111c0.109-0.089,0.212-0.18,0.199-0.34
		c0.104-0.032,0.175-0.096,0.202-0.204c0.151-0.066,0.297-0.232,0.35-0.4c0.017,0,0.034,0,0.051,0c0.025,0,0.05,0.003,0.074-0.001
		c0.039-0.005,0.077-0.014,0.116-0.022c-0.014-0.043-0.022-0.09-0.044-0.129c-0.012-0.022-0.045-0.045-0.07-0.046
		c-0.137-0.003-0.27-0.025-0.405-0.045c-0.288-0.041-0.581-0.041-0.872-0.057c-1.382,0-2.765,0-4.147-0.003
		c-0.137,0-0.273,0.018-0.412-0.042c-0.107-0.046-0.237-0.051-0.357-0.053c-0.316-0.007-0.633,0.004-0.949-0.005
		C10.212,1.921,9.901,1.898,9.59,1.882c-0.016-0.017-0.033-0.051-0.047-0.05c-0.315,0.027-0.613-0.09-0.923-0.111
		C8.405,1.707,8.196,1.623,7.982,1.582C7.609,1.511,7.249,1.396,6.889,1.28C6.191,1.055,5.551,0.713,4.944,0.307
		C4.862,0.253,4.786,0.189,4.716,0.12c-0.023-0.022-0.019-0.072-0.027-0.11c0.028-0.004,0.057-0.013,0.085-0.01
		C4.83,0.006,4.885,0.025,4.941,0.027c0.133,0.005,0.267,0,0.4,0.004c0.571,0.017,1.144,0.011,1.712,0.062
		c0.322,0.029,0.644,0.012,0.963,0.045c0.483,0.05,0.966,0.072,1.45,0.103c0.442,0.028,0.884,0.067,1.325,0.101
		c0.392,0.031,0.784,0.063,1.175,0.104c0.224,0.024,0.459-0.008,0.677,0.081c0.043,0.018,0.099,0.004,0.149,0.004
		c0.23,0,0.454,0.039,0.677,0.09c0.063,0.015,0.132,0.009,0.198,0.008c0.222-0.002,0.437,0.037,0.651,0.091
		c0.055,0.014,0.115,0.009,0.173,0.009c0.213,0,0.419,0.045,0.627,0.09c0.167,0.036,0.341,0.034,0.51,0.064
		c0.263,0.047,0.53,0.06,0.79,0.134c0.201,0.057,0.413,0.078,0.621,0.112c0.446,0.073,0.886,0.178,1.32,0.304
		c0.294,0.085,0.585,0.179,0.867,0.299c0.029,0.012,0.06,0.025,0.084,0.045c0.015,0.014,0.028,0.044,0.024,0.062
		C19.328,1.857,19.3,1.874,19.28,1.878c-0.644,0.118-1.198,0.437-1.656,0.874c-0.465,0.444-0.8,0.989-0.949,1.643
		c-0.071,0.313-0.142,0.623-0.13,0.938c0.024,0.607,0.19,1.173,0.505,1.705c0.21,0.354,0.481,0.642,0.781,0.902
		c0.338,0.293,0.732,0.507,1.169,0.628c0.203,0.056,0.406,0.113,0.619,0.122c0.146,0.006,0.293,0.047,0.438,0.042
		c0.423-0.016,0.838-0.084,1.227-0.264c0.227-0.105,0.469-0.194,0.67-0.339c0.411-0.297,0.779-0.643,1.041-1.089
		c0.232-0.395,0.386-0.812,0.458-1.267c0.035-0.223,0.04-0.442,0.039-0.663c-0.002-0.302-0.083-0.59-0.167-0.88
		c-0.11-0.379-0.291-0.714-0.524-1.028c-0.201-0.271-0.423-0.522-0.7-0.713c-0.083-0.057-0.135-0.18-0.267-0.16
		c-0.091-0.148-0.221-0.061-0.328-0.042c-0.125,0.022-0.244,0.082-0.367,0.119c-0.062,0.018-0.129,0.02-0.193,0.03
		c-0.024-0.071-0.071-0.116-0.147-0.101c-0.071,0.013-0.151-0.046-0.215,0.061c-0.051,0.084-0.175,0.031-0.19-0.075
		c-0.008-0.057,0.003-0.117-0.003-0.175c-0.004-0.037-0.011-0.092-0.035-0.105c-0.111-0.06-0.061-0.085,0.014-0.122
		c0.018-0.009,0.015-0.059,0.022-0.09c0.035-0.031,0.065-0.078,0.106-0.092c0.274-0.092,0.549-0.184,0.827-0.262
		c0.209-0.058,0.425-0.095,0.637-0.141c0.071-0.016,0.141-0.039,0.212-0.048c0.314-0.042,0.624-0.108,0.934-0.164
		c0.341-0.062,0.691-0.084,1.026-0.182c0.115-0.034,0.239-0.01,0.364-0.046c0.17-0.049,0.358-0.03,0.534-0.064
		c0.199-0.039,0.403-0.034,0.602-0.087c0.139-0.037,0.289-0.02,0.437-0.049c0.232-0.046,0.474-0.034,0.71-0.063
		c0.217-0.027,0.44-0.021,0.651-0.092c0.015-0.005,0.033-0.002,0.049-0.003c0.254-0.017,0.511-0.017,0.762-0.057
		c0.288-0.046,0.577-0.021,0.862-0.053c0.425-0.048,0.852-0.059,1.274-0.107c0.3-0.034,0.604-0.005,0.904-0.074
		c0.206-0.047,0.434,0.008,0.648-0.017c0.346-0.042,0.695-0.014,1.037-0.056c0.223-0.027,0.443-0.026,0.664-0.037
		c0.388-0.018,0.775-0.034,1.163-0.05c0.058-0.002,0.117-0.005,0.175,0.002c0.026,0.003,0.055,0.023,0.072,0.044
		c0.006,0.007-0.012,0.047-0.029,0.06c-0.157,0.116-0.31,0.24-0.476,0.341c-0.277,0.168-0.558,0.329-0.846,0.476
		c-0.179,0.091-0.369,0.166-0.562,0.222c-0.232,0.067-0.438,0.22-0.693,0.208c-0.322,0.163-0.686,0.174-1.023,0.287
		c-0.12,0.04-0.256,0.017-0.387,0.053c-0.163,0.045-0.34,0.041-0.51,0.06c-0.019,0.002-0.036,0.016-0.054,0.024
		c0.027,0.016,0.054,0.031,0.08,0.048c0.006,0.004,0.007,0.015,0.01,0.023c-0.382,0.001-0.765,0.002-1.147,0.003
		c-0.05,0-0.109-0.017-0.148,0.003c-0.166,0.085-0.346,0.01-0.509,0.052c-0.171,0.044-0.339,0.044-0.51,0.044
		c-1.729,0.001-3.458,0.001-5.187,0.001c-0.066,0-0.134-0.009-0.199,0.001c-0.114,0.018,0.021,0.067-0.008,0.099
		c0,0.016,0.001,0.032,0.002,0.047c-0.051,0.001-0.101,0.002-0.152,0.004c-0.1,0-0.201,0-0.301,0.001
		c-0.048-0.006-0.095-0.014-0.143-0.019c-0.017-0.002-0.034,0.003-0.052,0.005c0.005,0.015,0.004,0.037,0.014,0.044
		c0.126,0.09,0.254,0.178,0.382,0.266c0.151,0.153,0.302,0.305,0.452,0.458c0.02,0.058,0.023,0.141,0.064,0.171
		c0.177,0.132,0.217,0.345,0.325,0.516c0.048,0.109,0.103,0.215,0.143,0.326c0.045,0.126,0.098,0.254,0.112,0.386
		C23.712,4.545,23.773,4.74,23.84,4.935z"/>
	<path class="st1" d="M9.941,3.634c0.016,0.003,0.031,0.001,0.045-0.006c0.189-0.048,0.379-0.094,0.548-0.198l0.002-0.001
		c0.089,0.011,0.166-0.006,0.214-0.091c0.029-0.003,0.058-0.006,0.087-0.008c0.048-0.007,0.098-0.01,0.144-0.023
		c0.429-0.124,0.855-0.258,1.287-0.375c0.488-0.132,0.981-0.235,1.482-0.314c0.306-0.048,0.614-0.089,0.919-0.143
		c0.188-0.033,0.378-0.029,0.564-0.054c0.301-0.041,0.6-0.098,0.905-0.091c0.171,0,0.341-0.001,0.512,0.004
		c0.031,0.001,0.061,0.031,0.092,0.048c-0.017,0.014-0.034,0.028-0.051,0.042c-0.124,0.018-0.26-0.007-0.359,0.101
		c-0.074,0.007-0.151,0.003-0.222,0.023c-0.46,0.132-0.92,0.261-1.372,0.426c-0.75,0.273-1.479,0.591-2.197,0.937
		c-0.434,0.21-0.86,0.437-1.295,0.644c-0.257,0.123-0.524,0.224-0.787,0.332C10.25,4.97,10.041,5.049,9.832,5.131L9.809,5.13
		c0,0-0.022,0.006-0.022,0.006c-0.025,0-0.051-0.006-0.074,0C9.417,5.21,9.126,5.307,8.82,5.344
		c-0.082,0.01-0.159,0.057-0.238,0.088c-0.13,0.016-0.259,0.031-0.389,0.05C7.87,5.528,7.547,5.577,7.224,5.624
		C7.183,5.63,7.141,5.625,7.1,5.628C6.836,5.644,6.573,5.662,6.31,5.677C6.288,5.678,6.265,5.664,6.242,5.657
		c0.012-0.028,0.015-0.068,0.036-0.083c0.29-0.199,0.58-0.396,0.874-0.589c0.457-0.301,0.95-0.535,1.44-0.775
		c0.196-0.096,0.397-0.183,0.596-0.274C9.356,3.906,9.514,3.85,9.648,3.74c0.013-0.002,0.025-0.004,0.038-0.006
		C9.785,3.736,9.875,3.716,9.941,3.634z"/>
	<path class="st1" d="M30.198,3.635c0.013,0.001,0.025,0.002,0.038,0.004c0.039,0.058,0.085,0.103,0.164,0.088
		c0.014,0.008,0.03,0.01,0.046,0.007c0.065,0.081,0.153,0.105,0.253,0.1l0,0c0.034,0.016,0.068,0.032,0.102,0.048l0.001,0
		c0.033,0.016,0.066,0.031,0.099,0.047c0.014,0.007,0.028,0.01,0.044,0.007c0.042,0.089,0.12,0.102,0.206,0.097
		c0.385,0.195,0.774,0.384,1.155,0.585c0.485,0.256,0.95,0.546,1.386,0.88c0.049,0.038,0.101,0.073,0.185,0.133
		c-0.271-0.013-0.497,0.016-0.728-0.04c-0.189-0.046-0.391-0.04-0.587-0.056c-0.416-0.032-0.823-0.115-1.233-0.183
		c-0.331-0.055-0.647-0.163-0.975-0.22C30.142,5.038,29.93,4.955,29.7,4.93L29.7,4.931c-0.032-0.021-0.06-0.051-0.095-0.063
		c-0.715-0.253-1.371-0.631-2.05-0.961c-0.424-0.206-0.847-0.411-1.285-0.585c-0.392-0.156-0.779-0.329-1.18-0.458
		c-0.19-0.061-0.385-0.104-0.571-0.182c-0.036-0.015-0.082-0.006-0.124-0.008c-0.006-0.066,0.027-0.142-0.097-0.147
		c-0.128-0.006-0.137-0.057-0.052-0.197c0.033,0.001,0.065,0.002,0.098,0.002c0.108,0.07,0.23,0.095,0.355,0.098
		c0.166,0.004,0.333,0,0.499-0.001c0.249-0.014,0.486,0.061,0.728,0.093c0.388,0.052,0.773,0.111,1.153,0.207
		c0.558,0.14,1.122,0.257,1.667,0.446c0.245,0.084,0.499,0.141,0.748,0.211l-0.001-0.001c0.03,0.079,0.099,0.039,0.152,0.05
		l-0.001-0.001c0.066,0.081,0.153,0.104,0.253,0.098l0,0C29.986,3.602,30.085,3.638,30.198,3.635z"/>
	<path class="st2" d="M9.59,1.882c0.311,0.016,0.623,0.039,0.934,0.047c0.316,0.008,0.633-0.002,0.949,0.005
		c0.12,0.003,0.25,0.007,0.357,0.053c0.139,0.06,0.275,0.042,0.412,0.042c1.382,0.003,2.765,0.002,4.147,0.003
		c0.005,0.068-0.014,0.103-0.095,0.101c-0.221-0.005-0.443-0.004-0.664,0.001C15.6,2.134,15.57,2.166,15.54,2.183
		c-0.163,0.015-0.325,0.041-0.488,0.043c-0.435,0.006-0.866,0.04-1.299,0.095c-0.355,0.045-0.708,0.1-1.06,0.16
		c-0.351,0.06-0.696,0.138-1.035,0.246c-0.36,0.115-0.719,0.237-1.083,0.336c-0.507,0.138-1.012,0.29-1.542,0.323
		C9.016,3.388,9.002,3.418,8.987,3.435C8.953,3.437,8.92,3.439,8.887,3.44C8.661,3.458,8.436,3.475,8.211,3.495
		c-0.01,0.001-0.017,0.024-0.026,0.037c-0.117,0.002-0.234,0.004-0.35,0.006C7.401,3.537,6.967,3.536,6.534,3.535
		c-0.05-0.001-0.1-0.001-0.15-0.002C6.305,3.516,6.227,3.495,6.147,3.485c-0.178-0.023-0.36-0.026-0.535-0.062
		C5.388,3.375,5.166,3.325,4.935,3.329l0,0.001c-0.016-0.016-0.03-0.041-0.049-0.047C4.769,3.246,4.768,3.247,4.842,3.136
		c0.14-0.039,0.284-0.064,0.418-0.118C5.995,2.726,6.754,2.511,7.523,2.33c0.337-0.079,0.67-0.175,1.009-0.242
		c0.334-0.066,0.673-0.104,1.009-0.158C9.56,1.928,9.574,1.899,9.59,1.882z"/>
	<path class="st2" d="M22.844,2.131c0.029-0.032-0.106-0.081,0.008-0.099c0.065-0.01,0.133-0.001,0.199-0.001
		c1.729,0,3.458,0,5.187-0.001c0.171,0,0.339,0,0.51-0.044c0.163-0.042,0.343,0.032,0.509-0.052c0.04-0.02,0.098-0.003,0.148-0.003
		c0.382-0.001,0.765-0.002,1.147-0.003c0.239-0.002,0.469,0.062,0.703,0.096c0.347,0.05,0.687,0.122,1.025,0.208
		c0.392,0.1,0.786,0.189,1.173,0.305c0.457,0.137,0.906,0.296,1.359,0.446c0.146,0.048,0.29,0.1,0.435,0.15
		c-0.019,0.032,0.107,0.075-0.007,0.098c-0.087,0.018-0.175,0.036-0.263,0.051c-0.241,0.041-0.482,0.081-0.725,0.111
		c-0.284,0.035-0.565,0.089-0.852,0.09c-0.108,0-0.217-0.001-0.325,0.005C33.049,3.489,33.025,3.516,33,3.531
		c-0.067,0-0.133,0-0.2,0.001c-0.033-0.068-0.067-0.068-0.1,0c-0.067,0-0.133,0-0.2-0.001c-0.033-0.015-0.065-0.043-0.098-0.044
		c-0.148-0.006-0.297,0-0.446-0.008c-0.153-0.007-0.305-0.025-0.458-0.038c-0.066-0.003-0.133-0.007-0.199-0.01
		c-0.008-0.013-0.016-0.036-0.025-0.037C31.049,3.372,30.824,3.351,30.6,3.33l0,0.001c-0.124-0.073-0.257-0.109-0.402-0.095
		c-0.017-0.001-0.033-0.003-0.05-0.004c-0.103-0.082-0.221-0.109-0.35-0.095c-0.017-0.002-0.033-0.003-0.05-0.005
		c-0.037-0.098-0.13-0.043-0.194-0.066c-0.372-0.131-0.746-0.262-1.126-0.366c-0.381-0.105-0.769-0.186-1.156-0.266
		c-0.239-0.049-0.481-0.079-0.723-0.112c-0.316-0.043-0.63-0.096-0.95-0.092c-0.009-0.013-0.016-0.036-0.026-0.037
		c-0.169-0.021-0.338-0.052-0.507-0.055c-0.373-0.007-0.746,0.001-1.119,0.003c-0.117-0.001-0.233-0.003-0.35-0.004
		C23.345,2.135,23.094,2.133,22.844,2.131z"/>
	<path class="st3" d="M17.54,2.331c-0.053,0.167-0.198,0.334-0.35,0.4c-0.032-0.134-0.031-0.133-0.129-0.057
		c-0.015,0.012-0.045,0.006-0.069,0.008c-0.024-0.067-0.055-0.109-0.132-0.053c-0.053,0.039-0.111,0.07-0.167,0.104
		c-0.017,0.001-0.035-0.002-0.05,0.004c-0.284,0.116-0.517,0.323-0.806,0.436c-0.195,0.076-0.368,0.213-0.544,0.332
		c-0.415,0.279-0.83,0.559-1.237,0.849c-0.248,0.177-0.487,0.367-0.721,0.562c-0.436,0.364-0.878,0.719-1.36,1.021
		c-0.213,0.133-0.427,0.264-0.64,0.396c0,0,0,0,0,0c-0.018,0.015-0.036,0.031-0.055,0.046l0-0.001
		c-0.208,0.033-0.38,0.144-0.553,0.252l-0.022,0l-0.02,0.007c-0.077-0.01-0.125,0.031-0.164,0.09c-0.2,0.068-0.4,0.133-0.598,0.206
		C9.35,7.142,8.755,7.279,8.162,7.42C8.141,7.424,8.108,7.42,8.097,7.407c-0.01-0.012-0.005-0.051,0.008-0.064
		c0.212-0.212,0.418-0.431,0.642-0.63c0.24-0.213,0.495-0.41,0.747-0.61c0.161-0.128,0.327-0.248,0.491-0.372
		c0.126-0.011,0.187-0.111,0.259-0.194c0.015,0.001,0.028-0.002,0.041-0.01c0.111-0.068,0.223-0.133,0.332-0.204
		c0.609-0.399,1.242-0.756,1.885-1.096c0.585-0.309,1.184-0.588,1.793-0.846c0.382-0.162,0.77-0.306,1.158-0.454
		c0.311-0.119,0.625-0.23,0.937-0.345c0.134-0.034,0.267-0.068,0.401-0.102c0.143-0.036,0.285-0.072,0.427-0.11
		c0.01-0.003,0.014-0.026,0.021-0.039c0.046-0.005,0.108,0.006,0.135-0.019C17.445,2.246,17.486,2.318,17.54,2.331z"/>
	<path class="st4" d="M30.245,5.84c0.431,0.354,0.878,0.688,1.273,1.084c0.098,0.099,0.211,0.183,0.313,0.278
		c0.027,0.025,0.038,0.067,0.057,0.102c-0.038,0.008-0.078,0.029-0.113,0.022c-0.167-0.032-0.335-0.067-0.5-0.109
		c-0.621-0.158-1.231-0.35-1.827-0.584C29.42,6.556,29.352,6.59,29.301,6.58l0.001,0.001c-0.176-0.095-0.35-0.193-0.529-0.282
		c-0.122-0.061-0.25-0.11-0.375-0.164l0,0c-0.008-0.013-0.013-0.032-0.025-0.04c-0.25-0.154-0.513-0.29-0.748-0.464
		c-0.462-0.341-0.904-0.709-1.363-1.053c-0.485-0.363-0.976-0.718-1.475-1.062c-0.115-0.079-0.224-0.201-0.39-0.184
		c-0.001-0.066-0.025-0.108-0.101-0.098c-0.064-0.035-0.129-0.07-0.193-0.105c-0.032-0.065-0.082-0.1-0.157-0.097l0,0
		c-0.174-0.1-0.346-0.204-0.523-0.298c-0.085-0.045-0.18-0.071-0.27-0.106c-0.101-0.139-0.268-0.139-0.408-0.195L22.741,2.43
		c-0.016-0.033-0.031-0.066-0.047-0.1c0.086,0.015,0.172,0.03,0.258,0.045c0.062,0.017,0.124,0.031,0.185,0.051
		c0.214,0.069,0.427,0.144,0.654,0.158l0.001,0c0.035,0.015,0.069,0.03,0.104,0.046c0.113,0.041,0.227,0.081,0.339,0.125
		c0.271,0.106,0.542,0.211,0.81,0.322c0.502,0.208,1.01,0.406,1.502,0.635c0.488,0.227,0.966,0.478,1.439,0.735
		c0.38,0.206,0.745,0.439,1.118,0.657c0.111,0.065,0.228,0.121,0.342,0.182c0,0-0.001-0.001-0.001-0.001
		c0.018,0.015,0.036,0.03,0.054,0.045c0.031,0.018,0.063,0.037,0.094,0.055c0.019,0.015,0.038,0.03,0.056,0.045l0.002,0.002
		c0.049,0.034,0.098,0.068,0.147,0.102c0.128,0.092,0.226,0.228,0.395,0.256l0-0.001C30.21,5.806,30.228,5.823,30.245,5.84z"/>
	<path class="st5" d="M9.787,12.938c0.017-0.037,0.043-0.073,0.048-0.111c0.007-0.059,0.027-0.09,0.09-0.089
		c0.281,0.002,0.561,0.001,0.842,0.001c0.076,0,0.041,0.043,0.031,0.077c0.029,0.008,0.065,0.03,0.085,0.02
		c0.054-0.026,0.102-0.026,0.153,0.001c0.153-0.017,0.307-0.031,0.459-0.051c0.054-0.007,0.125-0.06,0.157-0.04
		c0.111,0.068,0.226,0.032,0.339,0.039l-0.001-0.001c0.071,0.047,0.088,0.171,0.209,0.148c0.06,0.037,0.109,0.099,0.195,0.034
		c0.07-0.053,0.154-0.089,0.234-0.128c0.33-0.157,0.682-0.113,1.025-0.094c0.296,0.017,0.466,0.309,0.403,0.604
		c-0.082,0.383-0.228,0.745-0.332,1.121c-0.043,0.157-0.108,0.309-0.134,0.468c-0.016,0.101-0.088,0.137-0.144,0.139
		c-0.266,0.012-0.533,0.007-0.799,0.001c-0.02,0-0.057-0.06-0.053-0.086c0.012-0.08,0.04-0.157,0.064-0.235
		c0.133-0.434,0.271-0.868,0.399-1.304c0.064-0.218-0.103-0.41-0.318-0.36c-0.162,0.038-0.322,0.092-0.381,0.289
		c-0.099,0.327-0.216,0.647-0.32,0.972c-0.057,0.178-0.103,0.359-0.155,0.538c-0.046,0.157-0.092,0.188-0.267,0.188
		c-0.208,0-0.416-0.004-0.624,0.002c-0.094,0.003-0.125-0.041-0.105-0.119c0.042-0.165,0.093-0.329,0.142-0.492
		c0.095-0.31,0.192-0.62,0.287-0.93c0.014-0.047,0.027-0.095,0.029-0.143c0.009-0.236-0.19-0.374-0.41-0.286
		c-0.136,0.054-0.243,0.15-0.297,0.283c-0.064,0.157-0.103,0.323-0.153,0.486c-0.032,0.071-0.071,0.141-0.095,0.215
		c-0.092,0.276-0.178,0.553-0.268,0.83c-0.028,0.085-0.08,0.124-0.179,0.119c-0.207-0.009-0.414-0.002-0.621-0.003
		c-0.145-0.001-0.166-0.034-0.126-0.179c0.03-0.108,0.06-0.217,0.09-0.325l0.001-0.001c0.008-0.003,0.021-0.004,0.022-0.009
		c0.124-0.373,0.25-0.746,0.367-1.121C9.722,13.253,9.75,13.094,9.787,12.938z"/>
	<path class="st5" d="M21.498,14.739c-0.092,0.313-0.316,0.376-0.611,0.346c-0.197-0.02-0.399-0.002-0.598-0.004
		c-0.173-0.001-0.189-0.028-0.093-0.184c0.111-0.18,0.233-0.355,0.348-0.533c0.478-0.742,0.956-1.484,1.429-2.23
		c0.041-0.064,0.071-0.095,0.149-0.094c0.457,0.004,0.915,0.002,1.372,0.002c0.017,0,0.034-0.003,0.05,0.002
		c0.014,0.004,0.031,0.015,0.035,0.027c0.004,0.012,0,0.037-0.01,0.043c-0.124,0.077-0.249,0.152-0.374,0.228
		c-0.025,0.002-0.055-0.005-0.073,0.007c-0.123,0.081-0.244,0.166-0.364,0.25c-0.053,0.037-0.123,0.067-0.153,0.119
		c-0.218,0.374-0.428,0.753-0.64,1.131c-0.039,0.069,0.001,0.089,0.06,0.09c0.192,0.001,0.383,0,0.575,0.001
		c0.057,0,0.09-0.016,0.095-0.083c0.029-0.352,0.066-0.702,0.093-1.054c0.006-0.08,0.02-0.12,0.113-0.117
		c0.258,0.006,0.517,0.007,0.774-0.001c0.103-0.003,0.129,0.036,0.126,0.129c-0.005,0.191-0.021,0.386,0.003,0.574
		c0.037,0.296,0.053,0.587-0.002,0.882c-0.011,0.056-0.02,0.124,0.002,0.173c0.071,0.162,0.019,0.329,0.038,0.492
		c0.008,0.07-0.012,0.108-0.092,0.108c-0.341-0.002-0.683-0.001-1.024,0c-0.063,0-0.089-0.027-0.087-0.09
		c0.004-0.133,0.002-0.267,0.009-0.4c0.005-0.084-0.019-0.119-0.11-0.117c-0.258,0.005-0.516,0-0.775,0.004
		c-0.045,0.001-0.11,0.013-0.131,0.044C21.577,14.562,21.541,14.653,21.498,14.739z"/>
	<path class="st6" d="M23.047,2.937c-0.151-0.153-0.302-0.305-0.452-0.458c0.024-0.09,0.098-0.03,0.146-0.049l0.003,0.001
		c0.017,0.032,0.026,0.077,0.053,0.093c0.096,0.057,0.198,0.104,0.298,0.154c0.227,0.143,0.438,0.313,0.693,0.409l0.002-0.001
		c0.018,0.016,0.035,0.032,0.053,0.048c0,0-0.001-0.001-0.001-0.001c0.029,0.067,0.081,0.099,0.153,0.101
		c0.011-0.001,0.022,0.001,0.033,0.006c0.021,0.015,0.043,0.031,0.064,0.046L24.09,3.285c0.018,0.016,0.036,0.031,0.054,0.047
		c0,0,0,0,0,0c0.034,0.03,0.068,0.059,0.102,0.089c0.056,0.035,0.113,0.068,0.167,0.105c0.64,0.448,1.292,0.878,1.892,1.38
		c0.348,0.29,0.713,0.561,1.047,0.867c0.386,0.354,0.746,0.737,1.115,1.109c0.08,0.08,0.154,0.166,0.231,0.249
		c0.248,0.327,0.497,0.652,0.743,0.981c0.049,0.066,0.083,0.143,0.124,0.214c-0.085-0.021-0.174-0.034-0.256-0.065
		c-0.613-0.237-1.186-0.549-1.728-0.922c-0.589-0.406-1.117-0.882-1.603-1.402c-0.452-0.483-0.887-0.982-1.33-1.473
		c-0.044-0.049-0.096-0.09-0.144-0.135c-0.01-0.068-0.037-0.122-0.112-0.137l-0.004-0.005c-0.015-0.016-0.03-0.031-0.044-0.047
		l-0.003-0.003c-0.387-0.452-0.807-0.869-1.288-1.222C23.05,2.921,23.049,2.929,23.047,2.937z"/>
	<path class="st6" d="M16.993,2.682c0.023-0.002,0.053,0.005,0.069-0.008c0.097-0.076,0.096-0.078,0.129,0.057
		c-0.027,0.108-0.098,0.173-0.202,0.204c-0.061,0.068-0.185,0.069-0.201,0.186c-0.032,0.022-0.064,0.044-0.096,0.066
		c-0.016,0.015-0.031,0.031-0.047,0.046l-0.002,0.002c-0.018,0.015-0.037,0.03-0.055,0.044c-0.372,0.369-0.753,0.727-1.112,1.108
		c-0.386,0.41-0.75,0.84-1.122,1.262c-0.053,0.061-0.103,0.125-0.154,0.188l-0.006,0.006c-0.134,0.054-0.175,0.191-0.259,0.29
		c0.003,0.017-0.004,0.03-0.019,0.038C13.885,6.2,13.856,6.23,13.827,6.259c-0.008,0.015-0.021,0.022-0.038,0.019
		c-0.019,0.017-0.038,0.035-0.057,0.052c-0.015,0.015-0.031,0.03-0.046,0.045c-0.087,0.015-0.144,0.06-0.153,0.152
		c0,0,0.001-0.001,0.001-0.001c-0.053,0.034-0.111,0.062-0.159,0.102c-0.143,0.12-0.283,0.244-0.424,0.367
		c-0.053,0.046-0.105,0.093-0.158,0.139c-0.502,0.381-1.036,0.711-1.612,0.97c-0.2,0.09-0.404,0.172-0.607,0.255
		c-0.035,0.014-0.076,0.015-0.133,0.025c0.236-0.372,0.467-0.716,0.744-1.028c0.043-0.048,0.074-0.108,0.11-0.162
		c0.228-0.241,0.452-0.484,0.683-0.721c0.55-0.561,1.148-1.069,1.761-1.557c0.804-0.639,1.658-1.21,2.51-1.784
		c0.179-0.12,0.364-0.231,0.546-0.346C16.861,2.753,16.927,2.717,16.993,2.682z"/>
	<path class="st7" d="M16.327,13.986c-0.267,0-0.533,0.007-0.8-0.003c-0.124-0.005-0.187,0.045-0.216,0.155
		c-0.026,0.102-0.074,0.207-0.066,0.308c0.015,0.197,0.233,0.305,0.434,0.228c0.059-0.023,0.127-0.057,0.161-0.106
		c0.114-0.166,0.268-0.192,0.454-0.18c0.232,0.014,0.466,0.003,0.7,0.005c0.028,0,0.058,0.018,0.081,0.036
		c0.005,0.004-0.009,0.048-0.024,0.062c-0.214,0.191-0.434,0.359-0.716,0.457c-0.425,0.147-0.858,0.155-1.294,0.134
		c-0.234-0.012-0.467-0.061-0.678-0.185c-0.18-0.106-0.279-0.244-0.273-0.457c0.011-0.431,0.143-0.829,0.415-1.153
		c0.215-0.256,0.511-0.431,0.854-0.49c0.145-0.025,0.293-0.037,0.439-0.058c0.081-0.011,0.161-0.039,0.241-0.038
		c0.327,0.004,0.653,0.018,0.968,0.129c0.35,0.124,0.517,0.447,0.39,0.833c-0.01,0.031-0.007,0.066-0.017,0.097
		c-0.073,0.228-0.074,0.228-0.329,0.228C16.81,13.985,16.568,13.986,16.327,13.986C16.327,13.986,16.327,13.986,16.327,13.986z
		 M15.815,13.692c0.108,0,0.216,0,0.324,0c0.054,0,0.095-0.012,0.101-0.079c0.004-0.048,0.025-0.094,0.036-0.141
		c0.057-0.228-0.075-0.394-0.31-0.384c-0.214,0.009-0.347,0.139-0.425,0.323c-0.12,0.279-0.115,0.282,0.174,0.281
		C15.748,13.692,15.782,13.692,15.815,13.692z"/>
	<path class="st7" d="M35.526,13.986c-0.258,0-0.516-0.001-0.775,0.001c-0.161,0.001-0.185,0.014-0.232,0.163
		c-0.031,0.1-0.072,0.209-0.059,0.308c0.026,0.199,0.242,0.295,0.442,0.21c0.059-0.025,0.127-0.059,0.159-0.11
		c0.106-0.168,0.262-0.175,0.434-0.169c0.233,0.008,0.466,0.001,0.7,0.004c0.031,0,0.062,0.015,0.093,0.023
		c-0.017,0.035-0.026,0.077-0.052,0.102c-0.189,0.188-0.408,0.328-0.658,0.421c-0.452,0.168-0.922,0.172-1.391,0.138
		c-0.215-0.016-0.432-0.069-0.627-0.187c-0.157-0.095-0.228-0.237-0.251-0.401c-0.019-0.137-0.015-0.278,0.043-0.413
		c0.057-0.134,0.095-0.277,0.147-0.413c0.145-0.376,0.426-0.621,0.786-0.774c0.201-0.086,0.415-0.141,0.639-0.15
		c0.106-0.004,0.211-0.039,0.316-0.038c0.344,0.003,0.689,0.007,1.015,0.142c0.337,0.139,0.47,0.429,0.361,0.808
		c-0.097,0.337-0.1,0.337-0.438,0.337C35.959,13.986,35.743,13.986,35.526,13.986z M34.651,13.692c0.247,0,0.478,0,0.709,0
		c0.06,0,0.086-0.025,0.094-0.087c0.008-0.064,0.034-0.125,0.047-0.188c0.041-0.193-0.155-0.355-0.329-0.333
		c-0.173,0.022-0.291,0.11-0.37,0.252C34.744,13.441,34.707,13.557,34.651,13.692z"/>
	<path class="st7" d="M5.351,15.082c-0.125,0-0.25,0.002-0.375-0.002c-0.028-0.001-0.081-0.023-0.081-0.032
		c0.009-0.144-0.071-0.084-0.135-0.062c-0.35,0.12-0.704,0.131-1.068,0.06c-0.137-0.027-0.274-0.033-0.4-0.107
		c-0.188-0.111-0.24-0.245-0.18-0.455c0.081-0.285,0.273-0.447,0.541-0.556c0.218-0.089,0.446-0.094,0.669-0.14
		c0.288-0.059,0.589-0.029,0.868-0.145c0.139-0.058,0.192-0.119,0.195-0.271c0.003-0.127-0.036-0.179-0.175-0.234
		c-0.196-0.077-0.472-0.022-0.596,0.151c-0.079,0.11-0.168,0.14-0.289,0.138c-0.225-0.003-0.45,0-0.675-0.001
		c-0.054,0-0.079-0.029-0.049-0.078c0.039-0.062,0.076-0.133,0.133-0.176c0.331-0.253,0.691-0.435,1.121-0.44
		c0.13-0.002,0.263-0.049,0.39-0.033c0.21,0.025,0.425,0.015,0.63,0.085c0.383,0.132,0.544,0.395,0.437,0.781
		c-0.091,0.328-0.207,0.65-0.31,0.975c-0.044,0.139-0.088,0.278-0.121,0.42c-0.021,0.091-0.07,0.121-0.156,0.12
		C5.601,15.081,5.476,15.082,5.351,15.082z M4.561,14.757c0.293-0.019,0.44-0.124,0.533-0.394c0.021-0.061,0.049-0.12,0.069-0.182
		c0.023-0.069,0.041-0.139,0.061-0.209c-0.073,0.02-0.146,0.041-0.219,0.058c-0.032,0.008-0.066,0.004-0.098,0.011
		c-0.134,0.029-0.268,0.062-0.403,0.088c-0.165,0.031-0.239,0.139-0.292,0.291c-0.036,0.102,0.004,0.167,0.065,0.209
		C4.361,14.687,4.466,14.716,4.561,14.757z"/>
	<path class="st5" d="M31.271,12.737c0.117,0,0.233-0.001,0.35,0.001c0.054,0.001,0.122-0.019,0.135,0.071
		c0.001,0.007,0.071,0.015,0.102,0.004c0.346-0.131,0.706-0.093,1.056-0.06c0.276,0.026,0.446,0.276,0.366,0.613
		c-0.055,0.229-0.137,0.451-0.208,0.675c-0.09,0.287-0.184,0.573-0.272,0.86c-0.039,0.128-0.073,0.177-0.182,0.179
		c-0.25,0.006-0.499,0.002-0.749,0.002c-0.075,0-0.077-0.058-0.065-0.105c0.033-0.126,0.075-0.249,0.114-0.373
		c0.112-0.356,0.225-0.711,0.336-1.067c0.059-0.188,0.029-0.324-0.081-0.396c-0.13-0.085-0.327-0.069-0.454,0.054
		c-0.069,0.067-0.128,0.152-0.166,0.24c-0.058,0.133-0.096,0.275-0.14,0.414c-0.107,0.34-0.211,0.682-0.319,1.022
		c-0.066,0.208-0.072,0.209-0.296,0.209c-0.192,0-0.384-0.008-0.574,0.004c-0.135,0.009-0.146-0.052-0.122-0.148
		c0.033-0.134,0.083-0.263,0.123-0.395c0.094-0.311,0.184-0.624,0.281-0.934c0.079-0.255,0.165-0.508,0.248-0.762
		c0.023-0.069,0.059-0.112,0.143-0.108C31.021,12.742,31.146,12.738,31.271,12.737C31.271,12.738,31.271,12.737,31.271,12.737z"/>
	<path class="st5" d="M9.187,13.938c-0.006,0.014-0.008,0.029-0.005,0.044c-0.143,0.177-0.145,0.399-0.199,0.605
		c0,0,0-0.001,0-0.001c-0.036,0.094-0.075,0.187-0.108,0.281c-0.06,0.171-0.058,0.173-0.228,0.173
		c-0.255,0.001-0.51-0.001-0.765-0.002c0.09-0.311,0.182-0.623,0.271-0.934c0.065-0.226,0.14-0.45,0.187-0.68
		c0.051-0.25-0.152-0.369-0.315-0.332c-0.154,0.035-0.294,0.104-0.355,0.271c-0.077,0.214-0.165,0.424-0.234,0.64
		c-0.096,0.301-0.177,0.607-0.27,0.91c-0.043,0.141-0.083,0.167-0.229,0.167c-0.225,0.001-0.449,0.003-0.674,0
		c-0.095-0.002-0.111-0.026-0.081-0.135c0.064-0.226,0.132-0.451,0.203-0.675c0.147-0.463,0.304-0.924,0.443-1.39
		c0.033-0.111,0.077-0.149,0.186-0.146c0.216,0.006,0.433,0,0.649,0.003c0.067,0.001,0.156-0.035,0.179,0.078
		c0.002,0.01,0.047,0.023,0.064,0.015c0.347-0.165,0.716-0.078,1.076-0.094c0.032,0.021,0.061,0.047,0.096,0.063
		c0.186,0.083,0.275,0.225,0.256,0.428c-0.007,0.08-0.023,0.16-0.04,0.238C9.261,13.625,9.223,13.781,9.187,13.938z"/>
	<path class="st7" d="M38.809,13.136c-0.143-0.042-0.286-0.074-0.43-0.004c-0.022,0.01-0.056,0.006-0.069,0.022
		c-0.056,0.068-0.137,0.136-0.152,0.214c-0.02,0.105,0.078,0.181,0.169,0.21c0.162,0.051,0.331,0.078,0.498,0.116
		c0.19,0.043,0.382,0.07,0.567,0.14c0.34,0.13,0.43,0.455,0.197,0.74c-0.174,0.212-0.408,0.323-0.658,0.409
		c-0.054,0.018-0.108,0.041-0.163,0.046c-0.404,0.037-0.808,0.09-1.214,0.051c-0.234-0.022-0.463-0.072-0.679-0.184
		c-0.172-0.089-0.201-0.247-0.259-0.396c-0.004-0.011,0.036-0.056,0.056-0.056c0.333-0.004,0.666-0.006,0.999-0.002
		c0.026,0,0.07,0.043,0.074,0.071c0.013,0.091,0.078,0.123,0.149,0.147c0.153,0.053,0.305,0.056,0.455-0.015
		c0.086-0.041,0.158-0.091,0.162-0.198c0.004-0.119-0.074-0.173-0.168-0.217c-0.119-0.057-0.244-0.082-0.376-0.101
		c-0.249-0.035-0.497-0.088-0.731-0.185c-0.192-0.079-0.306-0.232-0.276-0.381c0.027-0.134,0.07-0.265,0.166-0.376
		c0.194-0.22,0.445-0.331,0.72-0.394c0.337-0.077,0.682-0.114,1.028-0.094c0.219,0.012,0.44,0.047,0.654,0.096
		c0.185,0.043,0.356,0.131,0.436,0.325c0.018,0.044,0.037,0.093,0.035,0.139c-0.001,0.027-0.04,0.073-0.065,0.075
		c-0.099,0.009-0.2,0.006-0.299,0.003c-0.21-0.007-0.421,0.024-0.631-0.004c0.055-0.05,0.033-0.066,0.007-0.131
		C38.965,13.086,38.875,13.161,38.809,13.136z"/>
	<path class="st5" d="M1.338,15.08c-0.375,0-0.75,0-1.125,0c-0.042,0-0.084,0.006-0.125,0.001c-0.077-0.009-0.103-0.062-0.08-0.137
		c0.094-0.302,0.183-0.606,0.281-0.907c0.088-0.271,0.187-0.537,0.275-0.808c0.11-0.34,0.213-0.682,0.321-1.022
		c0.052-0.163,0.055-0.163,0.22-0.164c0.275-0.001,0.55-0.002,0.825,0c0.19,0.001,0.204,0.025,0.142,0.215
		c-0.124,0.378-0.25,0.755-0.372,1.134c-0.099,0.31-0.192,0.621-0.288,0.932c-0.01,0.031-0.026,0.061-0.032,0.092
		c-0.018,0.095,0.001,0.122,0.095,0.123c0.292,0.002,0.583,0.001,0.875,0.001c0.15,0,0.3,0,0.45-0.002
		c0.07-0.001,0.088,0.041,0.074,0.096c-0.03,0.118-0.053,0.242-0.107,0.349c-0.025,0.05-0.115,0.087-0.18,0.094
		c-0.132,0.014-0.266,0.004-0.4,0.004c-0.283,0-0.567,0-0.85,0C1.338,15.081,1.338,15.08,1.338,15.08z"/>
	<path class="st8" d="M19.731,20.336c-0.038,0.015-0.075,0.031-0.113,0.045c-0.057,0.021-0.085-0.013-0.07-0.058
		c0.038-0.115,0.061-0.25,0.137-0.333c0.293-0.317,0.414-0.714,0.555-1.103c0.027-0.076,0.038-0.158,0.057-0.236
		c0.014-0.055,0.051-0.115,0.037-0.16c-0.009-0.029-0.093-0.032-0.142-0.052c-0.018-0.008-0.043-0.035-0.04-0.048
		c0.017-0.079,0.03-0.161,0.065-0.232c0.037-0.077,0.103-0.125,0.202-0.114c0.024,0.003,0.066-0.039,0.078-0.069
		c0.068-0.173,0.136-0.346,0.192-0.523c0.079-0.247,0.147-0.498,0.223-0.746c0.023-0.074,0.063-0.134,0.159-0.114
		c0.032,0.007,0.067-0.002,0.099,0.002c0.132,0.018,0.222-0.033,0.275-0.157c0.016-0.037,0.06-0.063,0.07-0.1
		c0.025-0.099,0.096-0.099,0.173-0.097c0.1,0.002,0.2-0.001,0.299,0.002c0.03,0.001,0.06,0.018,0.089,0.027
		c-0.012,0.029-0.021,0.059-0.036,0.086c-0.015,0.029-0.036,0.054-0.054,0.081c-0.02,0.013-0.05,0.022-0.057,0.041
		c-0.017,0.042-0.023,0.089-0.034,0.134c0.038,0.008,0.077,0.022,0.115,0.024c0.09,0.003,0.181,0.005,0.272,0
		c0.086-0.005,0.127,0.024,0.106,0.112c-0.011,0.046-0.033,0.09-0.046,0.136c-0.019,0.069-0.033,0.139-0.049,0.208
		c-0.005,0.016-0.006,0.032-0.004,0.049c-0.039,0.112-0.08,0.222-0.116,0.335c-0.23,0.728-0.456,1.458-0.691,2.185
		c-0.067,0.207-0.128,0.422-0.292,0.583c0,0-0.001,0.001-0.001,0.001c-0.067,0.033-0.134,0.066-0.201,0.099
		c-0.017,0.002-0.033,0.004-0.05,0.005c-0.15-0.002-0.3-0.004-0.45-0.006l0,0c0.031-0.107,0.042-0.227,0.102-0.314
		c0.031-0.045,0.148-0.031,0.226-0.047c0.012-0.003,0.021-0.023,0.031-0.035c0.031-0.019,0.08-0.031,0.09-0.058
		c0.041-0.111,0.071-0.226,0.104-0.34c0.082-0.232,0.164-0.464,0.246-0.696c0.032-0.091,0.07-0.18,0.096-0.272
		c0.028-0.101,0-0.135-0.103-0.138c-0.132-0.003-0.265-0.004-0.396,0.002c-0.032,0.001-0.084,0.029-0.089,0.053
		c-0.061,0.25-0.197,0.479-0.213,0.742c-0.133,0.231-0.265,0.463-0.398,0.694c-0.022,0.034-0.045,0.067-0.067,0.101
		c-0.009,0.004-0.019,0.006-0.03,0.004c-0.036,0.034-0.072,0.067-0.108,0.101C19.9,20.204,19.816,20.27,19.731,20.336z
		 M21.589,17.891c0.004-0.048,0.007-0.096,0.011-0.143c0.124-0.129,0.145-0.307,0.183-0.463c0.093-0.385,0.168-0.34-0.271-0.343
		c-0.058,0-0.116-0.005-0.173,0.001c-0.016,0.002-0.029,0.032-0.044,0.049c-0.041,0.101-0.087,0.199-0.122,0.302
		c-0.078,0.227-0.152,0.456-0.221,0.686c-0.009,0.03,0.021,0.103,0.031,0.103c0.185-0.007,0.372,0.042,0.554-0.023
		c0.004-0.002,0.004-0.015,0.006-0.023C21.629,18.01,21.578,17.941,21.589,17.891z"/>
	<path class="st9" d="M19.696,17.298c0.002,0.015-0.001,0.029-0.01,0.041c-0.077-0.008-0.103,0.031-0.093,0.102l0,0
		c-0.067-0.008-0.109,0.012-0.102,0.089c-0.118,0.084-0.249,0.109-0.394,0.107c-0.555-0.005-1.109-0.003-1.664-0.001
		c-0.051,0-0.12-0.035-0.146,0.049c-0.041,0.103-0.087,0.204-0.121,0.309c-0.08,0.246-0.154,0.495-0.23,0.742l0.001,0.001
		c-0.014,0.018-0.029,0.036-0.043,0.055c-0.067,0.165-0.19,0.306-0.207,0.492c-0.015,0.02-0.029,0.039-0.044,0.059
		c0,0-0.001,0.001-0.001,0.001c-0.037,0.065-0.073,0.129-0.11,0.194c-0.114,0.135-0.228,0.269-0.342,0.404l0,0
		c-0.098,0.074-0.192,0.152-0.294,0.22c-0.072,0.049-0.153,0.086-0.23,0.128c-0.085-0.099,0.002-0.184,0.027-0.272
		c0.012-0.045,0.042-0.087,0.072-0.124c0.282-0.344,0.476-0.738,0.624-1.153c0.128-0.359,0.238-0.724,0.352-1.087
		c0.085-0.27,0.165-0.543,0.247-0.814c0.006-0.014,0.007-0.029,0.004-0.044c0.033-0.077,0.061-0.157,0.1-0.231
		c0.024-0.046,0.065-0.083,0.098-0.123c0.834,0,1.668,0,2.502-0.001c0.067,0,0.133,0,0.2,0c0.015,0.004,0.031,0.004,0.046,0.001
		c-0.015,0.133-0.03,0.266-0.045,0.399c-0.006,0.014-0.007,0.028-0.004,0.043c-0.016,0.03-0.032,0.061-0.049,0.09
		c-0.014,0.023-0.03,0.045-0.045,0.067c-0.046,0.002-0.102-0.01-0.102,0.065C19.693,17.17,19.695,17.234,19.696,17.298z
		 M17.892,16.824c-0.362,0.011-0.362,0.011-0.453,0.325c-0.03,0.104-0.017,0.134,0.08,0.137c0.133,0.005,0.266-0.002,0.399,0.002
		c0.109,0.003,0.166-0.034,0.18-0.152c0.011-0.094,0.054-0.183,0.083-0.275C18.084,16.849,17.988,16.837,17.892,16.824z
		 M19.016,16.835c-0.025,0-0.05,0-0.075,0c-0.244,0-0.243,0-0.304,0.236c-0.012,0.047-0.039,0.091-0.044,0.137
		c-0.003,0.024,0.028,0.075,0.041,0.074c0.171-0.01,0.347,0.042,0.512-0.043c0.146-0.075,0.17-0.234,0.176-0.355
		c0.004-0.093-0.15-0.03-0.231-0.049C19.067,16.831,19.041,16.835,19.016,16.835z"/>
	<path class="st10" d="M19.493,17.941c-0.003,0.016-0.003,0.033-0.002,0.049c-0.087,0.101-0.106,0.222-0.103,0.349
		c-0.133,0.408-0.267,0.816-0.399,1.224c-0.035,0.108-0.066,0.217-0.099,0.325c-0.066,0.084-0.133,0.168-0.199,0.252l0,0
		c-0.167,0.094-0.356,0.134-0.539,0.14c-0.491,0.017-0.984,0.004-1.476,0.007c-0.09,0-0.106-0.056-0.08-0.111
		c0.056-0.121,0.1-0.242,0.098-0.377c0.063-0.055,0.093-0.124,0.088-0.208c0.004-0.031,0.007-0.063,0.011-0.094
		c0.075-0.031,0.04-0.101,0.054-0.153c0.015-0.049,0.031-0.098,0.046-0.147c0.074-0.033,0.039-0.101,0.051-0.154
		c0.016-0.05,0.032-0.1,0.047-0.15c0.016-0.017,0.04-0.031,0.046-0.051c0.085-0.261,0.165-0.523,0.25-0.784
		c0.053-0.162,0.055-0.164,0.213-0.164c0.663,0,1.326,0.001,1.989,0.001l-0.001-0.001C19.486,17.91,19.488,17.926,19.493,17.941z
		 M18.192,18.638C18.192,18.637,18.192,18.637,18.192,18.638c0.132-0.001,0.265,0.001,0.397-0.001
		c0.137-0.001,0.164-0.023,0.2-0.155c0.015-0.054,0.029-0.109,0.043-0.163c0.014-0.054-0.015-0.074-0.064-0.074
		c-0.314,0-0.628-0.003-0.943,0.003c-0.04,0.001-0.099,0.034-0.116,0.069c-0.035,0.071-0.051,0.153-0.067,0.231
		c-0.011,0.056,0.011,0.093,0.079,0.092C17.878,18.636,18.035,18.638,18.192,18.638z M18.042,18.939
		c-0.149,0-0.298-0.003-0.447,0.002c-0.034,0.001-0.084,0.022-0.096,0.048c-0.029,0.066-0.045,0.138-0.058,0.21
		c-0.01,0.057,0.013,0.093,0.08,0.093c0.306-0.002,0.613-0.001,0.919-0.001c0.053,0,0.094-0.008,0.105-0.075
		c0.01-0.063,0.037-0.124,0.049-0.187c0.011-0.058-0.012-0.092-0.079-0.091C18.357,18.94,18.199,18.938,18.042,18.939z
		 M17.867,19.595C17.867,19.596,17.867,19.596,17.867,19.595c-0.1,0.001-0.199,0.001-0.299,0c-0.272,0-0.271,0-0.346,0.281
		c-0.01,0.036-0.026,0.064,0.025,0.064c0.307,0.002,0.615,0.006,0.921-0.001c0.123-0.003,0.212-0.117,0.223-0.248
		c0.004-0.055-0.006-0.097-0.077-0.096C18.166,19.597,18.016,19.595,17.867,19.595z"/>
	<path class="st9" d="M14.99,16.434c-0.566,0.003-1.133,0.006-1.7,0.008c-0.253,0.001-0.253,0-0.326,0.253
		c-0.024,0.08,0.002,0.133,0.075,0.141c0.058,0.007,0.117,0,0.175,0c0.425,0,0.851,0.001,1.276,0.001
		c0.066,0,0.114,0.005,0.084,0.096c-0.159,0.478-0.317,0.956-0.469,1.435c-0.049,0.155-0.078,0.316-0.116,0.473
		c0,0.092-0.009,0.184,0.003,0.274c0.02,0.151-0.044,0.253-0.163,0.332c0.007,0.014,0.007,0.027-0.001,0.041
		c-0.084,0.057-0.109,0.146-0.145,0.234c-0.034,0.085-0.097,0.158-0.147,0.235c-0.017,0.049-0.033,0.034-0.049,0l-0.013-0.013
		c-0.033-0.015-0.05-0.031-0.002-0.049c-0.001-0.064,0.02-0.142-0.009-0.19c-0.094-0.153-0.078-0.316-0.079-0.48
		c0-0.121,0.008-0.208,0.167-0.25c0.11-0.03,0.205-0.144,0.244-0.29c0.071-0.265,0.172-0.522,0.259-0.783
		c0.037-0.109,0.012-0.149-0.103-0.153c-0.15-0.006-0.299-0.001-0.449-0.003c-0.053-0.001-0.076-0.033-0.053-0.081
		c0.034-0.072,0.067-0.137,0.175-0.129c0.165,0.013,0.332,0.004,0.498,0.003c0.047,0,0.103,0.015,0.114-0.059
		c0.014-0.087,0.031-0.174,0.04-0.261c0-0.006-0.056-0.024-0.087-0.025c-0.141-0.003-0.283-0.004-0.424,0
		c-0.084,0.002-0.153,0-0.13-0.116c0.013-0.06-0.013-0.095-0.079-0.093c-0.058,0.001-0.116,0.001-0.174,0
		c-0.057,0-0.094,0.015-0.1,0.081c-0.01,0.106-0.081,0.13-0.175,0.127c-0.141-0.005-0.282-0.003-0.424-0.004
		c-0.033,0.001-0.067,0.001-0.1,0.002l-0.021,0.004l-0.022,0c-0.029,0.085-0.054,0.172-0.088,0.254
		c-0.03,0.072,0.004,0.09,0.064,0.09c0.175,0.001,0.35,0,0.525,0.003c0.026,0.001,0.07,0.017,0.073,0.033
		c0.02,0.111-0.079,0.22-0.193,0.194c-0.149-0.034-0.287,0.003-0.431,0.012c-0.095,0.006-0.111,0.056-0.133,0.115
		c-0.044,0.114-0.084,0.229-0.121,0.345c-0.067,0.209-0.131,0.418-0.193,0.628c-0.04,0.133-0.02,0.159,0.132,0.174
		c0.12,0.012,0.126,0.023,0.054,0.127c-0.111,0.162-0.195,0.344-0.346,0.477c0.01,0.079-0.027,0.109-0.102,0.097
		c0.012,0.077-0.02,0.111-0.098,0.102c-0.005,0.014-0.007,0.028-0.005,0.043c0.023,0.097,0.1,0.044,0.154,0.057l0,0
		c0.018-0.015,0.036-0.031,0.054-0.045c0.017-0.044,0.029-0.122,0.051-0.125c0.172-0.024,0.239-0.172,0.345-0.272
		c0.026-0.025,0.062-0.039,0.093-0.058c0.009-0.014,0.015-0.033,0.028-0.041c0.033-0.021,0.068-0.038,0.102-0.056
		c0,0.034,0.008,0.071-0.002,0.102c-0.067,0.225-0.138,0.448-0.206,0.673c-0.026,0.085-0.002,0.112,0.097,0.115
		c0.033,0.001,0.067-0.003,0.1,0.001c0.104,0.011,0.178-0.023,0.204-0.132c0.01-0.039,0.024-0.077,0.037-0.116
		c0.071-0.215,0.141-0.429,0.213-0.648c0.016,0.013,0.024,0.016,0.027,0.022c0.104,0.174,0.095,0.399,0.25,0.549
		c-0.052,0.033,0.024,0.092-0.036,0.138c-0.05,0.04-0.075,0.119-0.098,0.185c-0.021,0.062-0.01,0.115,0.079,0.112
		c0.15-0.004,0.302,0.013,0.449-0.009c0.094-0.014,0.181-0.081,0.271-0.123c0.018-0.008,0.045-0.005,0.055-0.017
		c0.032-0.037,0.061-0.076,0.085-0.118c0.036-0.063,0.092-0.128,0.094-0.193c0.002-0.071,0.098-0.119,0.033-0.208
		c-0.02-0.028,0.039-0.112,0.061-0.171l0.093-0.226c0.009-0.048,0.017-0.096,0.025-0.143c0.016-0.049-0.036-0.119,0.047-0.147
		c0.081-0.03,0.042-0.102,0.053-0.156c0.001-0.065,0.001-0.129,0.002-0.194h0.05c0.005-0.013,0.007-0.027,0.004-0.041
		c0.107-0.06,0.094-0.162,0.094-0.26c0.008-0.015,0.009-0.029,0.005-0.045c0.032-0.064,0.072-0.124,0.093-0.191
		c0.153-0.484,0.302-0.97,0.453-1.455C15.199,16.451,15.199,16.451,14.99,16.434z M12.971,18.125
		c-0.071,0.17-0.099,0.355-0.19,0.517c-0.001,0.025,0.005,0.068-0.003,0.07c-0.097,0.031-0.194,0.066-0.294,0.077
		c-0.088,0.011-0.114-0.037-0.086-0.12c0.049-0.143,0.098-0.285,0.146-0.427c0.047-0.197,0.047-0.197,0.202-0.199
		c0.058,0,0.116,0,0.174,0.002C12.976,18.047,12.992,18.075,12.971,18.125z M13.25,18.743c0-0.001,0-0.001,0-0.001
		c-0.033,0-0.067,0.002-0.1,0c-0.044-0.003-0.045-0.02-0.03-0.061c0.061-0.176,0.117-0.353,0.169-0.531
		c0.023-0.076,0.067-0.109,0.144-0.106c0.058,0.002,0.117,0.003,0.175-0.001c0.069-0.004,0.087,0.034,0.082,0.091
		c-0.021,0.208-0.125,0.385-0.208,0.57c-0.01,0.021-0.053,0.034-0.082,0.037C13.35,18.747,13.3,18.743,13.25,18.743z"/>
	<path class="st8" d="M26.398,20.234c-0.575,0-1.15,0-1.726,0c-0.058,0-0.117,0.006-0.175-0.001
		c-0.073-0.009-0.114-0.075-0.094-0.145c0.011-0.039,0.032-0.075,0.045-0.114c0.036-0.11,0.111-0.138,0.224-0.137
		c0.408,0.007,0.817,0.003,1.225,0.003c0.278,0,0.278,0,0.367-0.282c0.068-0.217,0.135-0.435,0.203-0.653
		c0.035-0.111,0.035-0.116-0.07-0.116c-0.267-0.002-0.534-0.001-0.8,0c-0.058,0-0.117,0-0.175,0.001
		c-0.071,0.001-0.083-0.046-0.073-0.1c0.013-0.072,0.022-0.149,0.057-0.211c0.023-0.042,0.084-0.067,0.133-0.088
		c0.028-0.012,0.066-0.003,0.099-0.003c0.875,0,1.751,0,2.626,0c0.042,0,0.086-0.006,0.124,0.005
		c0.022,0.007,0.052,0.045,0.049,0.065c-0.006,0.056-0.029,0.109-0.044,0.164c-0.042,0.156-0.048,0.163-0.222,0.164
		c-0.275,0.002-0.55,0-0.825,0.001c-0.196,0.001-0.193,0.002-0.256,0.202c-0.075,0.24-0.157,0.478-0.233,0.718
		c-0.035,0.11-0.02,0.13,0.098,0.13c0.45,0.002,0.9,0,1.351,0.002c0.151,0,0.171,0.03,0.128,0.176
		c-0.007,0.023-0.025,0.043-0.033,0.066c-0.05,0.147-0.05,0.15-0.201,0.15c-0.392,0.001-0.784,0-1.175,0
		C26.815,20.233,26.606,20.234,26.398,20.234C26.398,20.234,26.398,20.234,26.398,20.234z"/>
	<path class="st10" d="M22.65,17.543c0.416,0.001,0.833,0.005,1.249,0.001c0.15-0.001,0.175,0.008,0.137,0.177
		c-0.045,0.197-0.119,0.387-0.18,0.581c-0.143,0.456-0.286,0.912-0.43,1.368c-0.007,0.023-0.031,0.046-0.029,0.067
		c0.004,0.054,0.001,0.126,0.033,0.155c0.052,0.048,0.176-0.005,0.209-0.076c0.017-0.036,0.019-0.079,0.035-0.116
		c0.06-0.141,0.209-0.184,0.336-0.099c0.012,0.008,0.026,0.03,0.022,0.039c-0.073,0.175-0.082,0.382-0.258,0.506
		c-0.267,0.188-0.556,0.167-0.846,0.086c-0.075-0.021-0.137-0.093-0.131-0.192c0.004-0.066-0.011-0.137,0.007-0.199
		c0.069-0.233,0.146-0.464,0.222-0.695c0.116-0.354,0.233-0.708,0.352-1.061c0.021-0.061,0.014-0.095-0.057-0.098
		c-0.033-0.001-0.067-0.002-0.1-0.002c-0.261-0.004-0.254-0.002-0.338,0.255c-0.098,0.301-0.185,0.609-0.324,0.891
		c-0.237,0.482-0.533,0.925-1.04,1.174c-0.012,0.006-0.018,0.026-0.027,0.039c-0.031,0.008-0.065,0.01-0.093,0.024
		c-0.041,0.02-0.068,0.01-0.055-0.033c0.041-0.139,0.06-0.285,0.174-0.395c0.285-0.273,0.438-0.627,0.571-0.986
		c0.146-0.394,0.277-0.794,0.393-1.198C22.514,17.647,22.562,17.589,22.65,17.543z"/>
	<path class="st5" d="M28.017,15.081c-0.108,0-0.217,0.001-0.325,0c-0.155-0.002-0.172-0.022-0.123-0.174
		c0.125-0.395,0.255-0.789,0.38-1.184c0.152-0.479,0.301-0.96,0.451-1.439c0.015-0.046,0.033-0.092,0.047-0.138
		c0.022-0.076,0.072-0.103,0.148-0.102c0.258,0.002,0.516,0.001,0.774,0.002c0.071,0,0.073,0.03,0.051,0.095
		c-0.096,0.284-0.186,0.571-0.274,0.858c-0.121,0.396-0.236,0.794-0.358,1.19c-0.079,0.256-0.162,0.51-0.25,0.763
		c-0.03,0.087-0.076,0.157-0.199,0.135C28.236,15.066,28.125,15.081,28.017,15.081z"/>
	<path class="st11" d="M23.84,4.935c-0.067-0.195-0.128-0.39-0.15-0.598c-0.014-0.131-0.066-0.26-0.112-0.386
		c-0.04-0.111-0.095-0.218-0.143-0.326c0.104,0.03,0.246,0.128,0.309,0.198c0.057,0.064,0.125,0.118,0.189,0.176
		c0.127,0.162,0.251,0.325,0.381,0.484c0.642,0.785,1.239,1.6,1.725,2.493c0.113,0.207,0.2,0.428,0.292,0.646
		c0.012,0.029-0.006,0.077-0.024,0.109c-0.005,0.009-0.065-0.001-0.09-0.018c-0.496-0.332-0.955-0.7-1.344-1.162
		c-0.38-0.451-0.668-0.957-0.97-1.457C23.876,5.045,23.861,4.988,23.84,4.935z"/>
	<path class="st11" d="M16.689,3.387c-0.027,0.083-0.042,0.172-0.082,0.248c-0.181,0.346-0.281,0.714-0.324,1.101
		c-0.009,0.084-0.062,0.162-0.095,0.243c-0.2,0.414-0.437,0.806-0.699,1.184c-0.442,0.64-1.001,1.154-1.655,1.569
		c-0.014,0.009-0.028,0.02-0.043,0.023c-0.028,0.006-0.057,0.006-0.086,0.009c-0.002-0.032-0.013-0.066-0.005-0.095
		c0.027-0.094,0.061-0.186,0.092-0.278c0.031-0.069,0.062-0.138,0.094-0.208c0.034-0.068,0.069-0.136,0.103-0.204
		c0.054-0.077,0.114-0.151,0.162-0.232c0.408-0.687,0.865-1.342,1.367-1.963c0.327-0.405,0.667-0.8,1.001-1.199
		C16.574,3.518,16.632,3.453,16.689,3.387z"/>
	<path class="st5" d="M27.755,13.14c-0.199-0.057-0.363-0.056-0.539-0.023c-0.214,0.04-0.34,0.167-0.423,0.339
		c-0.088,0.182-0.151,0.377-0.214,0.569c-0.101,0.308-0.197,0.618-0.286,0.93c-0.024,0.085-0.059,0.129-0.149,0.128
		c-0.249-0.002-0.499,0-0.748-0.002c-0.088-0.001-0.116-0.037-0.095-0.124c0.011-0.047,0.035-0.091,0.049-0.137
		c0.2-0.626,0.399-1.251,0.598-1.877c0.012-0.039,0.026-0.077,0.036-0.116c0.017-0.063,0.049-0.093,0.121-0.091
		c0.258,0.004,0.516,0.002,0.773,0.002c0.017,0,0.034,0.006,0.05,0.002c0.077-0.017,0.049,0.137,0.145,0.089
		c0.058-0.029,0.117-0.076,0.178-0.08c0.209-0.015,0.419-0.044,0.63-0.014c0.053,0.007,0.075,0.033,0.064,0.081
		c-0.02,0.087-0.035,0.177-0.075,0.255C27.85,13.11,27.782,13.125,27.755,13.14z"/>
	<path class="st12" d="M27.396,16.987c-0.408,0-0.816,0-1.224,0c-0.187,0-0.176,0.006-0.255,0.19
		c-0.03,0.069,0.015,0.156-0.082,0.217c-0.093,0.059-0.156-0.004-0.23-0.007c-0.101-0.005-0.241,0.062-0.291-0.045
		c-0.03-0.065,0.046-0.179,0.075-0.272c0.038-0.124,0.09-0.247,0.107-0.374c0.013-0.094,0.052-0.107,0.127-0.107
		c0.341,0.001,0.683,0.001,1.024,0.001c0.075,0,0.15-0.005,0.225,0.001c0.196,0.015,0.368,0.003,0.385-0.257
		c0.002-0.032,0.066-0.084,0.103-0.086c0.174-0.009,0.349-0.005,0.524-0.003c0.076,0.001,0.068,0.061,0.061,0.108
		c-0.009,0.071-0.027,0.14-0.041,0.21c0.08,0.009,0.161,0.025,0.241,0.025c0.408,0.003,0.816,0,1.224,0.002
		c0.134,0.001,0.144,0.018,0.105,0.14c-0.06,0.185-0.131,0.368-0.174,0.557c-0.021,0.091-0.057,0.104-0.131,0.102
		c-0.116-0.003-0.233,0.001-0.35-0.001c-0.116-0.002-0.146-0.041-0.114-0.153c0.022-0.078,0.055-0.152,0.083-0.228
		c-0.089-0.007-0.179-0.019-0.268-0.02C28.145,16.986,27.77,16.987,27.396,16.987C27.396,16.987,27.396,16.987,27.396,16.987z"/>
	<path class="st5" d="M30.019,12.738c0.133,0,0.266-0.001,0.399,0.001c0.065,0.001,0.081,0.025,0.058,0.093
		c-0.159,0.477-0.315,0.955-0.469,1.434c-0.074,0.232-0.145,0.465-0.209,0.699c-0.025,0.09-0.073,0.118-0.159,0.117
		c-0.233-0.003-0.466,0.002-0.698-0.003c-0.128-0.003-0.139-0.039-0.096-0.17c0.106-0.324,0.204-0.65,0.306-0.975
		c0.118-0.379,0.235-0.758,0.357-1.135c0.009-0.027,0.057-0.057,0.088-0.059C29.736,12.735,29.877,12.738,30.019,12.738z"/>
	<path class="st5" d="M17.814,15.048c-0.133,0-0.266-0.008-0.399,0.002c-0.123,0.009-0.141,0.002-0.124-0.111
		c0.006-0.04,0.025-0.077,0.037-0.116c0.123-0.413,0.243-0.827,0.371-1.239c0.074-0.24,0.168-0.474,0.24-0.715
		c0.029-0.097,0.069-0.137,0.171-0.135c0.233,0.005,0.467,0,0.7,0.002c0.133,0.001,0.145,0.019,0.106,0.142
		c-0.162,0.512-0.325,1.023-0.486,1.535c-0.051,0.163-0.093,0.329-0.149,0.49c-0.029,0.084-0.068,0.166-0.194,0.142
		c-0.089-0.016-0.183-0.003-0.274-0.003C17.814,15.044,17.814,15.046,17.814,15.048z"/>
	<path class="st5" d="M24.091,14.788c0.002-0.017,0.004-0.033,0.005-0.05c0.067-0.089,0.107-0.187,0.098-0.301
		c0.167-0.516,0.334-1.032,0.502-1.547c0.049-0.15,0.051-0.151,0.199-0.153c0.224-0.002,0.448-0.003,0.673,0
		c0.134,0.001,0.143,0.018,0.104,0.141c-0.144,0.455-0.288,0.911-0.431,1.366c-0.083,0.263-0.165,0.526-0.248,0.788
		c-0.224,0.003-0.447,0.009-0.671,0.008c-0.089,0-0.178-0.013-0.267-0.02C24.067,14.944,24.079,14.866,24.091,14.788z"/>
	<path class="st10" d="M11.487,20.092c-0.008,0.003-0.02,0.004-0.023,0.01c-0.037,0.079-0.056,0.21-0.112,0.228
		c-0.113,0.037-0.246,0.016-0.37,0.011c-0.016-0.001-0.037-0.045-0.043-0.072c-0.004-0.021,0.012-0.046,0.02-0.069
		c0.159-0.495,0.322-0.988,0.476-1.485c0.141-0.457,0.272-0.918,0.407-1.377c0.033-0.111,0.07-0.14,0.189-0.141
		c0.1-0.002,0.2-0.002,0.3-0.002c-0.001,0.057,0.011,0.119-0.005,0.171c-0.186,0.595-0.379,1.189-0.564,1.784
		c-0.082,0.262-0.151,0.528-0.226,0.793C11.519,19.991,11.503,20.042,11.487,20.092z"/>
	<polygon class="st1" points="20.645,8.136 20.644,8.137 20.644,8.136 	"/>
	<polygon class="st13" points="22.595,6.435 22.595,6.435 22.595,6.435 	"/>
	<path class="st14" d="M15.594,18.749c0.007-0.004,0.018-0.005,0.022-0.011c0.046-0.075,0.075-0.19,0.139-0.217
		c0.101-0.041,0.226-0.029,0.34-0.022c0.051,0.003,0.094,0.032,0.056,0.119c-0.23,0.538-0.474,1.067-0.8,1.556
		c-0.06,0.09-0.112,0.127-0.213,0.123c-0.124-0.005-0.248-0.001-0.389-0.001c0.036-0.091,0.066-0.168,0.097-0.246l-0.002-0.002
		c0.016-0.017,0.033-0.035,0.049-0.052l-0.001,0.001c0.165-0.108,0.224-0.286,0.298-0.454C15.325,19.277,15.46,19.013,15.594,18.749
		z"/>
	<path class="st15" d="M20.191,3.856c0.007,0.055,0.032,0.108,0.046,0.163c0.004,0.014-0.001,0.041-0.008,0.043
		c-0.02,0.007-0.047,0.011-0.064,0.003c-0.057-0.028-0.112-0.061-0.167-0.092c-0.048-0.091-0.109-0.178-0.14-0.275
		c-0.049-0.148,0.037-0.364,0.168-0.452c0.022-0.015,0.063,0.001,0.095,0.003C20.143,3.451,20.164,3.654,20.191,3.856z"/>
	<path class="st15" d="M20.923,2.868c0.038,0,0.07-0.002,0.104,0.013c0.107,0.048,0.115,0.062,0.061,0.154
		c-0.029,0.05-0.066,0.095-0.099,0.141c-0.235,0.194-0.421,0.426-0.553,0.7c-0.014,0.036-0.029,0.071-0.043,0.106
		c-0.003,0.008-0.005,0.017-0.01,0.022c-0.004,0.006-0.013,0.008-0.02,0.011c-0.023-0.097-0.059-0.194-0.065-0.292
		c-0.01-0.161,0.001-0.324,0.004-0.486c0.015-0.008,0.036-0.012,0.042-0.024C20.465,2.975,20.657,2.868,20.923,2.868z"/>
	<path class="st15" d="M20.913,3.406c0.139-0.113,0.312-0.188,0.503-0.088c0.035,0.018,0.081,0.014,0.122,0.021h0
		c0.024,0.071,0.132,0.095,0.105,0.193c-0.018,0.016-0.036,0.032-0.053,0.047V3.577c-0.126,0.003-0.247,0.023-0.352,0.1
		c-0.181,0.054-0.362,0.107-0.543,0.161c-0.019-0.026-0.134,0.034-0.065-0.067C20.717,3.643,20.796,3.5,20.913,3.406z"/>
	<linearGradient id="SVGID_1_" gradientUnits="userSpaceOnUse" x1="20.0666" y1="5.8742" x2="20.0666" y2="2.8146">
		<stop  offset="0" style="stop-color:#105A94"/>
		<stop  offset="1" style="stop-color:#8BBF70"/>
	</linearGradient>
	<path class="st16" d="M22.735,5.761c0.006,0.213-0.033,0.42-0.096,0.623c-0.007,0.02-0.029,0.034-0.044,0.051
		c0,0.181-0.069,0.332-0.198,0.458c-0.097,0.302-0.311,0.508-0.556,0.691c-0.078,0.067-0.147,0.147-0.234,0.199
		c-0.178,0.106-0.35,0.23-0.565,0.252c-0.11,0.125-0.259,0.094-0.399,0.102c-0.042,0.016-0.082,0.036-0.125,0.047
		c-0.425,0.11-0.85,0.049-1.257-0.065c-0.273-0.077-0.558-0.169-0.769-0.386c-0.017-0.001-0.038,0.005-0.049-0.004
		c-0.202-0.161-0.401-0.326-0.548-0.542c-0.009-0.012-0.005-0.032-0.007-0.048C17.79,7.058,17.72,6.96,17.692,6.834
		c-0.006-0.014-0.007-0.028-0.006-0.042c-0.032-0.045-0.074-0.086-0.093-0.136c-0.153-0.401-0.233-0.818-0.197-1.247
		c0.08-0.949,0.391-1.794,1.14-2.43c0.025-0.064,0.068-0.104,0.141-0.104c0.023,0.001,0.045,0.006,0.068,0.004
		c0.013-0.001,0.025-0.012,0.037-0.019c-0.017-0.012-0.035-0.024-0.052-0.036c0.006-0.023,0.005-0.055,0.02-0.069
		c0.148-0.131,0.297-0.26,0.488-0.327c0.019-0.016,0.037-0.032,0.055-0.048l0.001-0.001c0.017-0.015,0.033-0.029,0.049-0.043
		c0.03-0.004,0.061-0.008,0.091-0.012c0.02-0.016,0.039-0.033,0.058-0.049c0.033-0.018,0.066-0.036,0.099-0.054
		c0.105-0.127,0.247-0.208,0.396-0.253c0.138-0.042,0.246-0.169,0.406-0.145c-0.007,0.031-0.004,0.081-0.022,0.09
		c-0.075,0.038-0.125,0.063-0.014,0.123c0.025,0.013,0.032,0.069,0.036,0.105c0.006,0.058-0.005,0.118,0.003,0.175
		c0.015,0.107,0.139,0.16,0.19,0.076c0.064-0.107,0.144-0.047,0.215-0.061c0.077-0.015,0.124,0.031,0.147,0.101
		c-0.018,0.016-0.035,0.031-0.053,0.047l-0.001,0.001c-0.031-0.006-0.067-0.004-0.09-0.02c-0.094-0.064-0.111-0.017-0.109,0.068
		c0,0.016-0.001,0.033-0.002,0.049c-0.035,0.027-0.068,0.058-0.107,0.08c-0.194,0.109-0.388,0.218-0.585,0.32
		c-0.062,0.032-0.135,0.042-0.204,0.062c-0.165,0.209-0.371,0.368-0.601,0.5c-0.028,0.143-0.155,0.208-0.244,0.3
		c-0.288,0.297-0.5,0.641-0.625,1.033c-0.066,0.206-0.108,0.421-0.151,0.634c-0.057,0.286,0.036,0.551,0.02,0.826
		c0.031,0.062,0.072,0.12,0.091,0.185c0.079,0.275,0.211,0.513,0.442,0.691c0.057,0.044,0.12,0.09,0.114,0.176
		c0.608,0.187,0.572,0.279,1.551,0.252c0.015-0.007,0.03-0.008,0.045-0.004c0.067-0.08,0.157-0.101,0.256-0.097
		c0.147-0.102,0.294-0.203,0.44-0.305c0.023-0.042,0.043-0.086,0.069-0.125c0.18-0.272,0.258-0.578,0.288-0.898
		c0.009-0.091,0.002-0.182,0.003-0.274c-0.033-0.118-0.066-0.235-0.099-0.352c-0.134-0.171-0.26-0.348-0.459-0.455
		c-0.355-0.192-0.718-0.212-1.085-0.048c-0.17,0.076-0.329,0.175-0.493,0.264C19.343,5.35,19.33,5.36,19.316,5.368
		C19.313,5.346,19.3,5.32,19.307,5.301c0.138-0.386,0.35-0.72,0.686-0.965c0.032-0.009,0.066-0.013,0.093-0.028
		c0.18-0.101,0.368-0.178,0.577-0.189c0.011-0.001,0.02-0.023,0.03-0.035c0.133,0.001,0.266-0.004,0.399,0.002
		c0.471,0.021,0.889,0.182,1.2,0.538c0.222,0.254,0.389,0.55,0.394,0.908c0.003,0.018,0.005,0.035,0.007,0.053
		C22.776,5.627,22.733,5.703,22.735,5.761z"/>
	<polygon class="st15" points="20.946,2.433 20.946,2.434 20.945,2.434 	"/>
	<path class="st12" d="M27.101,17.27c-0.013,0.028-0.019,0.053-0.034,0.069c-0.315,0.356-0.696,0.617-1.136,0.795
		c-0.286,0.116-0.589,0.175-0.887,0.247c-0.072,0.017-0.105-0.021-0.096-0.099c0.024-0.199,0.068-0.229,0.26-0.292
		c0.2-0.066,0.4-0.143,0.58-0.249c0.214-0.125,0.411-0.28,0.603-0.437c0.04-0.033,0.068-0.061,0.118-0.061
		c0.174-0.001,0.349-0.002,0.523,0C27.053,17.244,27.074,17.259,27.101,17.27z"/>
	<path class="st14" d="M27.821,17.242c0.033,0,0.067,0.003,0.1-0.001c0.155-0.018,0.243,0.016,0.306,0.193
		c0.091,0.257,0.332,0.395,0.574,0.509c0.073,0.034,0.147,0.068,0.223,0.093c0.063,0.021,0.079,0.045,0.043,0.106
		c-0.02,0.033-0.017,0.079-0.031,0.117c-0.044,0.12-0.061,0.121-0.197,0.097c-0.153-0.026-0.3-0.064-0.446-0.118
		c-0.386-0.141-0.686-0.373-0.846-0.762c-0.018-0.045-0.037-0.09-0.047-0.137c-0.011-0.054,0-0.099,0.072-0.098
		C27.654,17.244,27.737,17.243,27.821,17.242C27.821,17.243,27.821,17.242,27.821,17.242z"/>
	<path class="st14" d="M10.49,19.298c0.114-0.215,0.252-0.421,0.335-0.648c0.049-0.133,0.104-0.171,0.227-0.16
		c0.041,0.004,0.083,0,0.125,0.001c0.114,0.004,0.141,0.035,0.095,0.131c-0.184,0.39-0.322,0.802-0.555,1.169
		c-0.082,0.13-0.158,0.265-0.227,0.403c-0.04,0.08-0.094,0.106-0.177,0.102c-0.108-0.005-0.217,0.002-0.325-0.004
		c-0.063-0.003-0.045-0.055-0.042-0.095c0.013-0.018,0.027-0.036,0.04-0.054c0.018-0.033,0.036-0.066,0.054-0.099
		c0,0-0.001,0.001-0.001,0.001c0.016-0.018,0.032-0.036,0.047-0.054C10.25,19.777,10.374,19.54,10.49,19.298z"/>
	<polygon class="st12" points="20.645,8.136 20.644,8.137 20.644,8.136 	"/>
	<path class="st17" d="M25.426,12.465c-0.128,0.021-0.256,0.044-0.384,0.061c-0.066,0.009-0.129,0.005-0.181-0.053
		c-0.037-0.041-0.045-0.065-0.016-0.119c0.034-0.062,0.049-0.138,0.055-0.21c0.005-0.071,0.025-0.103,0.101-0.102
		c0.291,0.002,0.582,0,0.873,0.001c0.05,0,0.073,0.022,0.054,0.078c-0.018,0.053-0.032,0.109-0.039,0.165
		c-0.016,0.141-0.065,0.192-0.21,0.198c-0.083,0.003-0.166,0.001-0.249,0.001C25.428,12.478,25.427,12.471,25.426,12.465z"/>
	<path class="st12" d="M16.591,16.94c-0.002,0.033-0.001,0.066-0.005,0.099c-0.02,0.138-0.071,0.187-0.201,0.196
		c-0.008,0.001-0.017,0-0.025,0c-0.34,0.003-0.321,0.009-0.317-0.3c0.003-0.198-0.001-0.397-0.001-0.595l0,0
		c0.114-0.001,0.229,0.001,0.343-0.003c0.102-0.004,0.146,0.044,0.156,0.143c0.009,0.087,0.032,0.173,0.048,0.259
		C16.589,16.806,16.59,16.873,16.591,16.94z"/>
	<path class="st17" d="M30.284,12.467c-0.104,0.018-0.207,0.048-0.311,0.051c-0.095,0.003-0.19-0.023-0.286-0.034
		c-0.073-0.008-0.1-0.046-0.077-0.114c0.032-0.091,0.061-0.184,0.098-0.273c0.01-0.023,0.043-0.052,0.066-0.052
		c0.291-0.004,0.582-0.007,0.872-0.002c0.054,0.001,0.085,0.032,0.06,0.114C30.608,12.483,30.614,12.485,30.284,12.467z"/>
	<path class="st12" d="M18.691,12.041c0.058,0,0.116,0,0.175,0c0.348,0,0.346,0,0.222,0.331c-0.026,0.07-0.062,0.111-0.14,0.111
		c-0.258-0.002-0.516-0.003-0.774-0.001c-0.068,0-0.095-0.037-0.081-0.091c0.027-0.102,0.061-0.202,0.104-0.298
		c0.011-0.026,0.062-0.048,0.095-0.049C18.425,12.038,18.558,12.041,18.691,12.041C18.691,12.041,18.691,12.041,18.691,12.041z"/>
	<path class="st14" d="M11.698,17.09c-0.013,0.053-0.015,0.109-0.1,0.103c-0.136-0.01-0.272-0.007-0.408-0.009
		c0.015-0.104,0.038-0.207,0.044-0.311c0.008-0.138,0.01-0.275-0.038-0.411c-0.024-0.069-0.002-0.129,0.096-0.124
		c0.107,0.005,0.214-0.002,0.321,0.004c0.025,0.001,0.048,0.032,0.073,0.049c0.002,0.05,0.004,0.099,0.006,0.149
		C11.695,16.722,11.696,16.906,11.698,17.09z"/>
	<path class="st12" d="M12.734,17.082c-0.164-0.001-0.328-0.001-0.492-0.002c0.014-0.111,0.041-0.222,0.04-0.333
		c-0.002-0.136-0.026-0.272-0.041-0.407c0.015-0.018,0.031-0.037,0.046-0.055c0.066,0.001,0.131,0.004,0.197,0.004
		c0.209,0.002,0.24,0.026,0.25,0.251C12.743,16.721,12.735,16.902,12.734,17.082z"/>
	<path class="st17" d="M11.991,12.785c-0.113-0.008-0.227,0.029-0.339-0.039c-0.032-0.019-0.102,0.033-0.157,0.04
		c-0.153,0.02-0.306,0.034-0.459,0.051c0.011-0.029,0.02-0.082,0.034-0.083c0.304-0.025,0.609-0.123,0.911,0.009
		C11.987,12.765,11.988,12.777,11.991,12.785z"/>
	<path class="st17" d="M11.89,19.896c0.017-0.044,0.028-0.122,0.051-0.125c0.172-0.024,0.238-0.172,0.345-0.272
		c0.026-0.024,0.061-0.039,0.092-0.058c0.001,0.016,0.008,0.038,0.001,0.048C12.242,19.655,12.118,19.838,11.89,19.896z"/>
	<path class="st17" d="M38.809,13.136c0.065,0.025,0.156-0.049,0.203,0.069c0.025,0.065,0.048,0.08-0.007,0.131
		c-0.03-0.006-0.073-0.002-0.087-0.02C38.876,13.26,38.845,13.196,38.809,13.136z"/>
	<path class="st17" d="M11.59,19.997c0.031-0.038,0.062-0.075,0.093-0.113c0.022,0.097,0.1,0.044,0.154,0.057
		c-0.055,0.044-0.106,0.096-0.167,0.129C11.593,20.112,11.597,20.043,11.59,19.997z"/>
	<path class="st17" d="M19.696,17.298c-0.001-0.064-0.003-0.129-0.003-0.193c0-0.074,0.055-0.062,0.102-0.065
		c0.001,0.033,0.001,0.067,0.002,0.1C19.763,17.193,19.729,17.246,19.696,17.298z"/>
	<path class="st0" d="M20.691,2.577c0-0.016,0.001-0.032,0.001-0.048c-0.002-0.084,0.016-0.131,0.109-0.068
		c0.024,0.016,0.06,0.014,0.09,0.02C20.844,2.553,20.774,2.577,20.691,2.577z"/>
	<path class="st17" d="M12.198,12.932c-0.121,0.022-0.138-0.101-0.209-0.148C12.101,12.774,12.176,12.817,12.198,12.932z"/>
	<path class="st9" d="M14.439,18.641c0.017,0,0.033,0,0.05,0c-0.019,0.064,0.04,0.149-0.052,0.194
		C14.438,18.77,14.438,18.706,14.439,18.641z"/>
	<path class="st17" d="M19.491,17.53c-0.008-0.077,0.035-0.097,0.102-0.089C19.594,17.51,19.567,17.548,19.491,17.53z"/>
	<path class="st17" d="M19.593,17.441c-0.01-0.071,0.016-0.11,0.093-0.102C19.698,17.413,19.663,17.443,19.593,17.441z"/>
	<path class="st9" d="M14.338,19.137c0.016-0.049-0.036-0.119,0.047-0.147C14.376,19.042,14.419,19.109,14.338,19.137z"/>
	<path class="st2" d="M18.73,2.825c0.017,0.012,0.035,0.024,0.052,0.036c-0.012,0.006-0.024,0.017-0.037,0.019
		c-0.022,0.002-0.045-0.002-0.067-0.004C18.695,2.859,18.713,2.842,18.73,2.825z"/>
	<path class="st0" d="M20.892,2.48c0.018-0.016,0.036-0.031,0.053-0.047C20.928,2.449,20.91,2.465,20.892,2.48z"/>
	<path class="st15" d="M19.342,2.338c-0.016,0.014-0.032,0.029-0.049,0.043C19.309,2.367,19.325,2.353,19.342,2.338z"/>
	<path class="st15" d="M19.491,2.279c-0.019,0.016-0.039,0.032-0.058,0.048C19.452,2.311,19.472,2.295,19.491,2.279z"/>
	<path class="st18" d="M14.893,19.995c-0.016,0.017-0.033,0.035-0.049,0.052C14.86,20.03,14.877,20.012,14.893,19.995z"/>
	<path class="st15" d="M19.292,2.382c-0.018,0.016-0.036,0.032-0.054,0.047C19.256,2.414,19.274,2.398,19.292,2.382z"/>
	<path class="st17" d="M11.837,19.941c0.018-0.015,0.036-0.031,0.054-0.046C11.873,19.91,11.855,19.925,11.837,19.941z"/>
	<path class="st12" d="M23.944,2.533c-0.015-0.004-0.031-0.005-0.046-0.004c-0.072-0.027-0.142-0.064-0.216-0.078
		c-0.229-0.044-0.452-0.124-0.689-0.12c-0.029-0.017-0.057-0.046-0.086-0.048c-0.087-0.004-0.161-0.026-0.213-0.101
		c0.051-0.001,0.101-0.002,0.152-0.004l-0.002,0.002c0.049,0.102,0.137,0.031,0.205,0.047c0.132,0,0.264,0.001,0.396,0.001
		c0.25,0.018,0.501,0.036,0.751,0.057c0.018,0.002,0.034,0.029,0.051,0.044c-0.085,0.14-0.076,0.191,0.052,0.197
		c0.123,0.005,0.091,0.082,0.097,0.147c-0.102-0.027-0.212-0.031-0.304-0.093C24.067,2.494,23.995,2.544,23.944,2.533z"/>
	<path class="st19" d="M17.188,2.227c-0.019-0.074-0.079-0.044-0.122-0.044c-0.509-0.001-1.017,0-1.526,0
		c0.03-0.017,0.06-0.049,0.091-0.05c0.221-0.004,0.443-0.006,0.664-0.001c0.081,0.002,0.1-0.033,0.095-0.101
		c0.291,0.016,0.585,0.016,0.872,0.057c0.135,0.019,0.268,0.042,0.405,0.045c0.024,0.001,0.058,0.024,0.07,0.046
		c0.022,0.039,0.03,0.086,0.044,0.129c-0.039,0.008-0.077,0.017-0.116,0.022c-0.024,0.003-0.049,0.001-0.074,0.001
		c-0.003-0.046,0.008-0.1-0.066-0.1C17.412,2.23,17.3,2.229,17.188,2.227z"/>
	<path class="st3" d="M22.741,2.43c-0.048,0.019-0.122-0.041-0.146,0.049c-0.128-0.088-0.256-0.176-0.382-0.266
		c-0.01-0.007-0.01-0.029-0.014-0.044c0.017-0.002,0.035-0.006,0.052-0.005c0.048,0.005,0.095,0.012,0.143,0.019
		c0.024,0.016,0.046,0.036,0.072,0.048c0.076,0.035,0.169,0.029,0.229,0.1C22.71,2.364,22.726,2.397,22.741,2.43z"/>
	<path class="st20" d="M17.188,2.227c0.112,0.001,0.225,0.003,0.337,0.003c0.074,0,0.064,0.054,0.066,0.1c-0.017,0-0.034,0-0.051,0
		c-0.054-0.013-0.095-0.085-0.166-0.019c-0.027,0.025-0.089,0.014-0.135,0.019c-0.017,0-0.033,0-0.05-0.002c0-0.033,0-0.067,0-0.1
		C17.19,2.229,17.188,2.227,17.188,2.227z"/>
	<path class="st20" d="M16.137,2.33c0.009-0.012,0.018-0.035,0.028-0.036c0.292-0.021,0.583-0.041,0.875-0.06
		c-0.022,0.016-0.042,0.033-0.065,0.048c-0.028,0.018-0.057,0.034-0.085,0.05c0,0,0,0,0,0c-0.017,0.016-0.033,0.032-0.05,0.048
		c-0.033,0-0.067,0.001-0.1,0.001c-0.031-0.017-0.061-0.047-0.092-0.048C16.479,2.328,16.308,2.33,16.137,2.33z"/>
	<path class="st2" d="M16.791,2.481c-0.034-0.019-0.068-0.038-0.102-0.057c0.017-0.014,0.034-0.028,0.051-0.042
		c0.033,0,0.067-0.001,0.1-0.001c0.017-0.016,0.033-0.032,0.05-0.048l0,0c0.1-0.001,0.2-0.001,0.299-0.002
		c0.016,0.001,0.033,0.002,0.05,0.002c-0.007,0.013-0.011,0.036-0.021,0.039C17.077,2.409,16.934,2.444,16.791,2.481z"/>
	<path class="st12" d="M24.345,2.332c0.275,0.02,0.55,0.04,0.825,0.062c0.011,0.001,0.02,0.023,0.029,0.035
		C25.033,2.43,24.866,2.434,24.7,2.43C24.575,2.427,24.453,2.402,24.345,2.332z"/>
	<path class="st21" d="M16.642,3.235c-0.018,0.015-0.037,0.03-0.055,0.044C16.605,3.265,16.623,3.25,16.642,3.235z"/>
	<path class="st9" d="M14.189,19.041c0.033,0,0.067,0,0.1,0c-0.005,0.029-0.004,0.063-0.018,0.087
		c-0.013,0.022-0.044,0.032-0.067,0.048c-0.005-0.022-0.012-0.043-0.015-0.065C14.187,19.088,14.189,19.065,14.189,19.041z"/>
	<path class="st17" d="M11.785,19.74c0.034-0.032,0.068-0.064,0.103-0.096C11.897,19.722,11.861,19.752,11.785,19.74z"/>
	<path class="st17" d="M11.688,19.842c0.033-0.034,0.065-0.068,0.098-0.102C11.798,19.817,11.766,19.851,11.688,19.842z"/>
	<path class="st5" d="M13.473,19.894c0.001,0.016,0.001,0.033,0.002,0.049C13.442,19.928,13.425,19.912,13.473,19.894z"/>
	<path class="st5" d="M13.487,19.955c0.016,0,0.033,0,0.049,0C13.519,20.004,13.503,19.99,13.487,19.955z"/>
	<path class="st1" d="M17.19,2.33c-0.1,0.001-0.2,0.001-0.299,0.002c0.028-0.017,0.057-0.032,0.085-0.05
		c0.022-0.015,0.043-0.032,0.065-0.048c0.05-0.001,0.1-0.003,0.149-0.004C17.19,2.263,17.19,2.296,17.19,2.33z"/>
	<path class="st12" d="M15.744,17.814c0-0.033-0.002-0.067,0-0.1c0.008-0.104,0.017-0.208,0.025-0.312
		c0.115-0.003,0.231-0.008,0.346-0.007c0.078,0.001,0.121,0.047,0.122,0.124c0.003,0.232,0.006,0.465,0.002,0.697
		c0,0.024-0.048,0.066-0.076,0.068c-0.099,0.008-0.199,0.005-0.298,0.003c-0.081-0.001-0.118-0.049-0.12-0.125
		c-0.002-0.116-0.001-0.232-0.001-0.348C15.745,17.814,15.744,17.814,15.744,17.814z"/>
	<path class="st14" d="M13.988,18.84c0,0.092-0.009,0.184,0.003,0.274c0.02,0.151-0.043,0.253-0.163,0.332
		c-0.013-0.026-0.044-0.058-0.037-0.077C13.853,19.192,13.921,19.016,13.988,18.84z"/>
	<path class="st14" d="M10.935,17.833c0-0.117,0.001-0.233,0-0.35c0-0.058,0.016-0.094,0.084-0.093
		c0.383,0.005,0.371-0.038,0.37,0.334c0,0.158,0,0.316,0,0.474c0,0.058-0.019,0.087-0.086,0.091
		c-0.367,0.026-0.367,0.028-0.366-0.332c0-0.042,0-0.083,0-0.125C10.937,17.833,10.936,17.833,10.935,17.833z"/>
	<path class="st8" d="M23.571,17.042c-0.325,0-0.649,0.001-0.974-0.001c-0.102-0.001-0.116-0.02-0.102-0.116
		c0.027-0.184,0.083-0.233,0.274-0.235c0.158-0.001,0.316-0.002,0.474,0c0.09,0.001,0.136-0.04,0.151-0.127
		c0.01-0.055,0.033-0.108,0.047-0.163c0.021-0.086,0.075-0.123,0.162-0.115c0.033,0.003,0.067-0.001,0.1,0
		c0.107,0.004,0.214,0.009,0.321,0.014c-0.026,0.098-0.054,0.196-0.076,0.296c-0.012,0.055,0.004,0.096,0.074,0.096
		c0.191-0.001,0.383,0.004,0.574-0.001c0.095-0.003,0.115,0.042,0.103,0.121c-0.006,0.04-0.008,0.082-0.022,0.12
		c-0.026,0.072-0.06,0.118-0.157,0.116C24.203,17.037,23.887,17.042,23.571,17.042C23.571,17.042,23.571,17.042,23.571,17.042z"/>
	<path class="st20" d="M22.844,2.181c0.069,0.015,0.154-0.042,0.205,0.047C22.981,2.212,22.893,2.283,22.844,2.181z"/>
	<path class="st1" d="M16.891,2.331c-0.017,0.016-0.033,0.032-0.05,0.048C16.857,2.364,16.874,2.347,16.891,2.331z"/>
	<path class="st14" d="M21.109,18.948c-0.02,0.095-0.04,0.19-0.062,0.284c-0.012,0.053-0.013,0.136-0.045,0.151
		c-0.054,0.026-0.129,0.01-0.195,0.01c-0.055,0-0.077-0.038-0.063-0.082c0.056-0.167,0.047-0.34,0.054-0.512
		c0.001-0.021,0.034-0.051,0.058-0.06c0.029-0.011,0.065-0.005,0.099-0.004c0.136,0.001,0.136,0.002,0.139,0.134
		c0.001,0.025,0,0.05,0,0.075C21.098,18.946,21.103,18.947,21.109,18.948z"/>
	<path class="st12" d="M21.196,17.833c0.031-0.149,0.074-0.296,0.091-0.447c0.021-0.185,0.012-0.186,0.206-0.198
		c0,0,0,0.002,0,0.002c0.017,0.013,0.034,0.025,0.051,0.038c0,0,0.011,0.011,0.011,0.011c-0.004,0.167-0.008,0.334-0.011,0.502
		c-0.017,0.036-0.034,0.071-0.052,0.107C21.394,17.843,21.295,17.838,21.196,17.833z"/>
	<path class="st21" d="M21.545,17.227c-0.017-0.013-0.034-0.025-0.051-0.038C21.511,17.202,21.528,17.215,21.545,17.227z"/>
	<path class="st9" d="M13.59,18.255c-0.067,0.117-0.136,0.242-0.212,0.363c-0.008,0.013-0.061,0.011-0.085-0.001
		c-0.038-0.019-0.049-0.045-0.022-0.095c0.05-0.09,0.08-0.191,0.121-0.285c0.02-0.046,0.124-0.065,0.168-0.033
		C13.572,18.21,13.576,18.228,13.59,18.255z"/>
	<path class="st9" d="M12.73,18.637c-0.159-0.019-0.157-0.019-0.146-0.173c0.005-0.074,0.001-0.149,0.001-0.223
		c0.028-0.015,0.054-0.036,0.083-0.044c0.089-0.022,0.126,0.001,0.118,0.088C12.776,18.403,12.75,18.52,12.73,18.637z"/>
</g>
</svg>
