<?xml version="1.0" encoding="utf-8"?>
<!-- Generator: Adobe Illustrator 22.1.0, SVG Export Plug-In . SVG Version: 6.00 Build 0)  -->
<svg version="1.1" id="Layer_1" xmlns="http://www.w3.org/2000/svg" xmlns:xlink="http://www.w3.org/1999/xlink" x="0px" y="0px"
	 width="954.998px" height="240px" viewBox="0 0 954.998 240" enable-background="new 0 0 954.998 240" xml:space="preserve">
<g>
	<g>
		<g>
			<path fill="#313493" d="M954.998,131.415c-5.483,0-10.965,0-16.77,0c-0.897-3.049-1.808-6.144-2.758-9.37
				c-2.971-1.04-5.97-0.378-8.9-0.496c-2.808-0.114-5.624-0.025-8.785-0.025c-1.045,3.373-2.04,6.587-3.04,9.816
				c-5.298,0-10.39,0-16.109,0c6.549-20.488,12.983-40.617,19.371-60.6c6,0,11.449,0,17.252,0c1.572,4.66,3.189,9.248,4.668,13.879
				c4.718,14.777,9.38,29.572,14.092,44.35c0.169,0.532,0.645,0.966,0.977,1.446C954.998,130.748,954.998,131.081,954.998,131.415z
				 M926.506,86.733c-1.921,7.789-4.265,14.457-5.465,21.528c3.864,0,7.267,0,11.192,0
				C930.369,101.251,928.59,94.565,926.506,86.733z"/>
			<path fill="#323593" d="M547.557,106.173c2.574-11.633,5.148-23.267,7.729-34.929c3.438-1.239,6.773-0.518,10.034-0.643
				c3.324-0.127,6.656-0.028,9.926-0.028c0.187,0.157,0.326,0.253,0.439,0.374c0.107,0.115,0.266,0.255,0.267,0.384
				c0.065,18.819,0.118,37.639,0.171,56.458c0.003,1.131,0,2.262,0,3.553c-4.473,0-8.555,0-13.1,0c0-14.065,0-27.965,0-41.866
				c-3.847,13.914-6.461,27.999-9.848,41.923c-4.122,0-7.762,0-11.927,0c-3.117-14.143-6.269-28.446-9.42-42.748
				c-0.21,0.014-0.42,0.028-0.63,0.042c0,14.121,0,28.243,0,42.602c-4.48,0-8.564,0-12.902,0c0-19.897,0-39.811,0-59.767
				c0.413-0.283,0.817-0.799,1.224-0.802c6.306-0.051,12.613-0.036,19.172-0.036c2.39,3.404,1.798,7.747,3.096,11.558
				c1.309,3.843,1.698,7.995,2.549,11.999c0.844,3.973,1.761,7.93,2.646,11.894C547.172,106.152,547.365,106.163,547.557,106.173z"
				/>
			<path fill="#303393" d="M680.959,104.231c0-11.504,0-21.951,0-32.848c4.939-1.71,9.853-0.222,14.907-1.011
				c0,20.577,0,40.646,0,60.937c-4.827,0-9.592,0-14.905,0c-5.998-10.36-12.158-20.998-18.631-32.178
				c-0.675,3.899-0.279,7.271-0.345,10.612c-0.073,3.664-0.017,7.331-0.017,10.996c0,3.464,0,6.927,0,10.586
				c-5.084,0-9.831,0-14.798,0c0-20.179,0-40.257,0-60.555c4.407,0,8.694,0,13.57,0c1.991,0.764,2.932,3.2,4.153,5.314
				C670.12,85.135,675.263,94.233,680.959,104.231z"/>
			<path fill="#313493" d="M414.265,105.209c5.305,2.659,7.635,7.695,9.791,12.925c1.799,4.366,3.834,8.635,5.878,13.199
				c-5.983,0-11.75,0-18.047,0c-1.824-3.942-3.664-8.113-5.671-12.201c-1.935-3.943-3.198-8.296-6.729-11.647
				c-1.187-0.057-2.488-0.12-3.683-0.178c-0.224,0.248-0.429,0.367-0.431,0.491c-0.161,7.76-0.305,15.52-0.456,23.507
				c-5.208,0-10.286,0-15.609,0c0-19.933,0-39.828,0-60.112c1.049-0.204,2.118-0.583,3.19-0.592
				c6.823-0.055,13.65-0.129,20.47,0.012c3.78,0.079,7.592,0.319,11.318,0.926c4.923,0.802,8.585,3.854,10.283,8.393
				c3,8.02,1.599,16.431-4.532,21.772C418.404,103.13,416.29,104.004,414.265,105.209z M395.299,83.492c0,4.265,0,8.009,0,11.966
				c4.57-0.233,9.081,1.09,12.86-1.688c1.717-2.319,2.291-4.587,1.326-7.407c-0.895-0.851-1.964-1.867-3.022-2.872
				C402.732,83.492,399.131,83.492,395.299,83.492z"/>
			<path fill="#313493" d="M638.399,101.453c-0.032,6.76-1.141,13.208-4.457,19.097c-4.179,7.424-10.428,11.84-19.164,11.908
				c-4.269,0.033-8.531,0.404-12.807-0.946c-7.399-2.335-12.143-7.454-14.777-14.259c-2.602-6.722-3.676-13.755-2.452-21.21
				c0.921-5.612,1.937-10.967,5.247-15.651c4.22-5.972,9.771-9.61,17.289-10.129c4.251-0.294,8.501-0.398,12.563,0.724
				c9.744,2.691,14.917,9.776,17.1,19.218C637.788,93.871,637.934,97.699,638.399,101.453z M607.86,84.511
				c-4.901,2.61-6.684,6.809-7.064,12.13c-0.232,3.257-0.21,6.415,0.018,9.665c0.374,5.326,2.238,9.492,7.116,12.019
				c0.497,0.035,0.994,0.086,1.492,0.103c7.279,0.249,9.755-1.897,11.78-9.02c1.267-4.456,0.985-8.898,0.659-13.285
				c-0.569-7.657-4.866-13.097-13.082-11.691C608.455,84.486,608.121,84.489,607.86,84.511z"/>
			<path fill="#313493" d="M791.438,132.503c-4.829,0.527-9.849-0.796-14.484-3.649c-6.024-3.708-9.036-9.692-10.615-16.088
				c-2.24-9.074-2.051-18.247,1.557-27.164c3.758-9.287,10.447-14.34,20.434-15.337c4.787-0.478,9.471-0.228,13.967,1.278
				c7.841,2.627,12.373,8.599,14.607,16.222c1.95,6.652,2.507,13.403,1.387,20.47c-0.877,5.536-2.39,10.543-5.564,15.05
				c-4.161,5.908-10,8.838-17.164,9.209C794.401,132.555,793.232,132.503,791.438,132.503z M781.038,101.337
				c-0.044,4.48,0.769,8.662,2.733,12.829c2.751,5.837,13.952,5.743,16.504-0.067c1.153-2.625,1.839-5.265,2.245-7.949
				c0.892-5.911,0.585-11.755-2.292-17.239c-1.843-3.513-4.785-4.659-8.551-4.63c-3.645,0.028-6.26,1.448-8.012,4.702
				C781.572,92.871,780.962,97.018,781.038,101.337z"/>
			<path fill="#313493" d="M458.695,70.067c4.879-0.044,9.466,0.644,13.837,3.111c6.138,3.464,9.543,8.813,11.46,15.312
				c2.576,8.736,2.299,17.525-0.073,26.227c-2.591,9.508-11.547,18.174-22.262,17.782c-3.623-0.132-7.322-0.058-10.84-0.783
				c-9.601-1.979-14.853-8.779-17.322-17.642c-2.468-8.861-2.342-17.899,0.492-26.778c2.64-8.269,8.051-13.877,16.347-16.369
				C452.971,70.136,455.9,70.326,458.695,70.067z M447.569,101.53c0.528,3.415,0.66,6.938,1.669,10.189
				c1.579,5.085,6.191,7.445,11.818,6.686c3.994-0.539,7.225-4.23,7.889-8.979c0.753-5.385,1.267-10.772,0-16.151
				c-0.951-4.036-2.762-7.531-7.054-8.751c-5.423-1.542-11.056,1.318-12.704,6.708C448.191,94.488,448.089,98.018,447.569,101.53z"
				/>
			<path fill="#313493" d="M743.972,115.353c-0.12-2.086-0.204-3.541-0.291-5.053c-3.438-1.718-7.041-0.047-10.521-1.103
				c0-3.768,0-7.537,0-11.835c4.064-0.122,8.169-0.038,12.268-0.054c3.985-0.015,7.971-0.003,12.223-0.003
				c0,8.626,0,17.052,0,25.775c-4.929,3.694-10.015,7.727-16.577,8.738c-7.541,1.162-15.07,1.696-22.306-1.901
				c-4.039-2.007-6.761-5.02-8.946-8.866c-3.519-6.196-4.864-12.78-4.88-19.858c-0.019-8.353,1.931-16.001,7.063-22.623
				c3.789-4.889,8.881-7.726,15.132-8.19c3.555-0.264,7.115-0.201,10.687-0.118c9.328,0.216,14.545,4.633,18.027,12.818
				c0.502,1.18,0.692,2.492,1.112,4.064c-5.002,1.076-9.928,2.136-15.204,3.271c-0.329-0.798-0.555-1.699-1.03-2.44
				c-2.147-3.351-5.141-4.986-9.229-4.637c-4.11,0.351-7.022,2.737-8.366,6.163c-3.039,7.75-3.031,15.785-0.091,23.62
				c1.894,5.048,8.406,7.78,13.697,5.85C739.171,118.086,741.406,116.658,743.972,115.353z"/>
			<path fill="#323594" d="M370.661,118.304c0,4.522,0,8.62,0,12.972c-14.545,0-28.929,0-43.526,0c0-20.132,0-40.191,0-60.237
				c5.885-0.847,38.864-0.65,42.418,0.313c0.757,3.801,0.013,7.745,0.464,12.042c-1.226,0.325-2.255,0.822-3.289,0.834
				c-6.322,0.073-12.646,0.036-18.969,0.036c-1.462,0-2.923,0-4.603,0c0,3.065,0,5.837,0,9.084c3.963,0.317,8.065,0.1,12.151,0.141
				c3.988,0.04,7.977,0.009,12.245,0.009c0.65,3.977,0.253,7.882,0.271,11.739c-2.563,1.929-5.301,0.858-7.851,1.016
				c-2.818,0.175-5.655,0.04-8.484,0.04c-2.652,0-5.303,0-8.401,0c-0.318,3.672-0.072,7.243-0.154,11.303c3.374,0,6.475,0,9.577,0
				c4.992,0,9.984-0.04,14.975,0.031C368.539,117.643,369.584,118.064,370.661,118.304z"/>
			<path fill="#313493" d="M321.654,131.433c-6.053,0-11.027,0-16.202,0c-2.455-2.547-1.52-6.479-3.328-9.648
				c-5.747,0-11.484,0-17.489,0c-1.016,3.296-2.007,6.514-2.97,9.639c-5.314,0-10.283,0-15.735,0
				c0.257-1.22,0.383-2.269,0.699-3.258c5.673-17.722,11.374-35.435,17.051-53.155c0.435-1.358,0.738-2.758,1.131-4.247
				c5.931,0,11.52,0,17.532,0C308.73,90.833,315.096,110.833,321.654,131.433z M293.493,86.766
				c-2.329,7.575-4.19,14.366-5.62,21.781c3.97-0.275,7.502,0.357,11.075-0.471C297.153,101.066,295.431,94.34,293.493,86.766z"/>
			<path fill="#333694" d="M843.805,116.458c8.199,0,15.968,0,24.212,0c1.629,4.76,0.296,9.568,0.883,14.174
				c-3.409,1.172-24.741,1.536-41.201,0.741c-0.825-3.878-1.093-46.342-0.377-59.621c2.577-1.428,6.375-1.648,15.415-0.891
				c1.749,1.205,1.033,3.025,1.04,4.587c0.053,11.811,0.029,23.622,0.029,35.432C843.805,112.543,843.805,114.205,843.805,116.458z"
				/>
			<path fill="#313493" d="M876.275,71.568c0.456-0.318,0.856-0.837,1.262-0.842c4.627-0.058,9.254-0.037,13.873-0.037
				c0.874,3.521,1.113,53.201,0.278,60.658c-5.051,0-10.123,0-15.413,0C876.275,111.318,876.275,91.447,876.275,71.568z"/>
		</g>
		<g>
			<path fill="#303393" d="M367.307,188.67v-25.646h-9.58v-3.432h23.048v3.432h-9.62v25.646H367.307z"/>
			<path fill="#303393" d="M384.266,188.67v-29.078h3.57v10.434c1.666-1.931,3.769-2.896,6.308-2.896
				c1.56,0,2.915,0.308,4.066,0.923c1.15,0.614,1.973,1.465,2.469,2.549s0.744,2.657,0.744,4.721v13.349h-3.57v-13.349
				c0-1.785-0.387-3.085-1.16-3.897c-0.773-0.813-1.868-1.22-3.283-1.22c-1.058,0-2.053,0.274-2.984,0.822
				c-0.933,0.55-1.598,1.293-1.994,2.231c-0.396,0.939-0.595,2.235-0.595,3.888v11.524H384.266z"/>
			<path fill="#303393" d="M421.278,181.887l3.689,0.456c-0.582,2.155-1.66,3.828-3.233,5.018c-1.573,1.19-3.583,1.785-6.029,1.785
				c-3.082,0-5.524-0.948-7.329-2.846c-1.806-1.897-2.708-4.559-2.708-7.983c0-3.544,0.913-6.295,2.737-8.252
				c1.825-1.956,4.191-2.936,7.102-2.936c2.816,0,5.117,0.959,6.902,2.876c1.785,1.918,2.678,4.615,2.678,8.093
				c0,0.212-0.007,0.529-0.021,0.952h-15.709c0.132,2.314,0.787,4.086,1.964,5.316c1.177,1.229,2.645,1.844,4.403,1.844
				c1.309,0,2.427-0.343,3.352-1.031C420.002,184.491,420.736,183.394,421.278,181.887z M409.555,176.114h11.763
				c-0.159-1.771-0.608-3.101-1.35-3.986c-1.137-1.375-2.611-2.063-4.423-2.063c-1.64,0-3.019,0.549-4.136,1.646
				S409.675,174.276,409.555,176.114z"/>
			<path fill="#303393" d="M441.034,188.67v-29.078h3.848v25.646h14.32v3.432H441.034z"/>
			<path fill="#303393" d="M477.748,181.887l3.689,0.456c-0.582,2.155-1.66,3.828-3.233,5.018c-1.573,1.19-3.583,1.785-6.029,1.785
				c-3.082,0-5.524-0.948-7.329-2.846c-1.806-1.897-2.708-4.559-2.708-7.983c0-3.544,0.913-6.295,2.737-8.252
				c1.825-1.956,4.191-2.936,7.102-2.936c2.816,0,5.117,0.959,6.902,2.876c1.785,1.918,2.678,4.615,2.678,8.093
				c0,0.212-0.007,0.529-0.021,0.952h-15.709c0.132,2.314,0.787,4.086,1.964,5.316c1.177,1.229,2.645,1.844,4.403,1.844
				c1.309,0,2.427-0.343,3.352-1.031C476.471,184.491,477.206,183.394,477.748,181.887z M466.025,176.114h11.763
				c-0.159-1.771-0.608-3.101-1.35-3.986c-1.137-1.375-2.611-2.063-4.423-2.063c-1.64,0-3.019,0.549-4.136,1.646
				S466.144,174.276,466.025,176.114z"/>
			<path fill="#303393" d="M499.665,186.071c-1.322,1.124-2.595,1.918-3.817,2.381c-1.224,0.462-2.536,0.693-3.938,0.693
				c-2.314,0-4.093-0.564-5.336-1.695s-1.864-2.575-1.864-4.334c0-1.031,0.234-1.974,0.704-2.826
				c0.47-0.854,1.084-1.537,1.845-2.054c0.76-0.516,1.616-0.905,2.568-1.17c0.701-0.185,1.759-0.363,3.174-0.535
				c2.883-0.344,5.005-0.754,6.367-1.23c0.013-0.488,0.02-0.8,0.02-0.932c0-1.455-0.337-2.479-1.012-3.074
				c-0.912-0.807-2.268-1.21-4.066-1.21c-1.679,0-2.919,0.294-3.719,0.883c-0.8,0.588-1.392,1.63-1.775,3.123l-3.49-0.476
				c0.317-1.494,0.839-2.7,1.566-3.62c0.728-0.919,1.778-1.626,3.154-2.122c1.375-0.496,2.968-0.744,4.78-0.744
				c1.798,0,3.259,0.212,4.383,0.635c1.124,0.424,1.95,0.956,2.479,1.597c0.529,0.642,0.899,1.452,1.111,2.43
				c0.118,0.608,0.178,1.706,0.178,3.293v4.761c0,3.319,0.076,5.418,0.229,6.297c0.151,0.88,0.453,1.723,0.902,2.529h-3.729
				C500.009,187.93,499.771,187.064,499.665,186.071z M499.368,178.098c-1.296,0.529-3.24,0.979-5.832,1.349
				c-1.468,0.212-2.506,0.45-3.113,0.715c-0.608,0.265-1.078,0.651-1.409,1.16c-0.33,0.509-0.495,1.074-0.495,1.695
				c0,0.952,0.359,1.746,1.081,2.381c0.72,0.635,1.774,0.952,3.163,0.952c1.375,0,2.599-0.301,3.67-0.903
				c1.071-0.602,1.857-1.424,2.36-2.469c0.383-0.807,0.575-1.997,0.575-3.57V178.098z"/>
			<path fill="#303393" d="M522.178,188.67v-2.658c-1.336,2.09-3.299,3.134-5.891,3.134c-1.68,0-3.224-0.463-4.632-1.388
				c-1.408-0.926-2.499-2.219-3.272-3.878s-1.16-3.567-1.16-5.723c0-2.103,0.35-4.01,1.051-5.722
				c0.701-1.713,1.752-3.025,3.154-3.938c1.401-0.912,2.968-1.369,4.7-1.369c1.27,0,2.4,0.269,3.393,0.804
				c0.991,0.535,1.798,1.233,2.419,2.093v-10.434h3.551v29.078H522.178z M510.891,178.157c0,2.698,0.568,4.715,1.706,6.05
				c1.137,1.336,2.479,2.003,4.026,2.003c1.561,0,2.886-0.638,3.977-1.914c1.092-1.275,1.637-3.223,1.637-5.841
				c0-2.883-0.556-4.998-1.666-6.348c-1.11-1.349-2.479-2.022-4.105-2.022c-1.587,0-2.913,0.647-3.978,1.943
				S510.891,175.367,510.891,178.157z"/>
			<path fill="#303393" d="M531.123,163.698v-4.106h3.57v4.106H531.123z M531.123,188.67v-21.064h3.57v21.064H531.123z"/>
			<path fill="#303393" d="M540.129,188.67v-21.064h3.213v2.995c1.548-2.314,3.782-3.472,6.704-3.472
				c1.27,0,2.437,0.229,3.501,0.685s1.861,1.055,2.391,1.795c0.528,0.741,0.898,1.62,1.11,2.639
				c0.132,0.661,0.198,1.818,0.198,3.471v12.952h-3.57v-12.813c0-1.454-0.139-2.542-0.416-3.263
				c-0.278-0.721-0.771-1.296-1.478-1.726c-0.708-0.43-1.537-0.645-2.489-0.645c-1.521,0-2.834,0.482-3.938,1.448
				c-1.104,0.965-1.656,2.796-1.656,5.494v11.504H540.129z"/>
			<path fill="#303393" d="M562.066,190.415l3.471,0.516c0.146,1.071,0.549,1.852,1.21,2.341c0.886,0.661,2.096,0.992,3.63,0.992
				c1.652,0,2.929-0.331,3.828-0.992s1.508-1.587,1.825-2.776c0.185-0.728,0.271-2.255,0.258-4.582
				c-1.561,1.838-3.505,2.757-5.832,2.757c-2.896,0-5.137-1.044-6.724-3.134c-1.587-2.089-2.38-4.595-2.38-7.518
				c0-2.01,0.363-3.864,1.091-5.563c0.727-1.699,1.781-3.012,3.163-3.938c1.382-0.925,3.005-1.389,4.87-1.389
				c2.485,0,4.535,1.006,6.148,3.016v-2.539h3.293v18.208c0,3.279-0.335,5.604-1.002,6.973c-0.668,1.368-1.726,2.449-3.174,3.242
				c-1.448,0.794-3.229,1.19-5.346,1.19c-2.513,0-4.542-0.565-6.089-1.696C562.761,194.393,562.013,192.689,562.066,190.415z
				 M565.021,177.761c0,2.764,0.549,4.78,1.646,6.05s2.473,1.904,4.126,1.904c1.639,0,3.015-0.632,4.125-1.895
				c1.111-1.263,1.666-3.243,1.666-5.94c0-2.579-0.572-4.522-1.716-5.832c-1.144-1.309-2.522-1.963-4.135-1.963
				c-1.587,0-2.936,0.645-4.047,1.934C565.577,173.308,565.021,175.222,565.021,177.761z"/>
			<path fill="#303393" d="M597.014,188.67v-29.078h3.947l15.273,22.83v-22.83h3.689v29.078h-3.947l-15.273-22.85v22.85H597.014z"/>
			<path fill="#303393" d="M639.68,186.071c-1.322,1.124-2.595,1.918-3.817,2.381c-1.224,0.462-2.536,0.693-3.938,0.693
				c-2.314,0-4.093-0.564-5.336-1.695s-1.864-2.575-1.864-4.334c0-1.031,0.234-1.974,0.704-2.826
				c0.47-0.854,1.084-1.537,1.845-2.054c0.76-0.516,1.616-0.905,2.568-1.17c0.701-0.185,1.759-0.363,3.174-0.535
				c2.883-0.344,5.005-0.754,6.367-1.23c0.013-0.488,0.02-0.8,0.02-0.932c0-1.455-0.337-2.479-1.012-3.074
				c-0.912-0.807-2.268-1.21-4.066-1.21c-1.679,0-2.919,0.294-3.719,0.883c-0.8,0.588-1.392,1.63-1.775,3.123l-3.49-0.476
				c0.317-1.494,0.839-2.7,1.566-3.62c0.728-0.919,1.778-1.626,3.154-2.122c1.375-0.496,2.968-0.744,4.78-0.744
				c1.798,0,3.259,0.212,4.383,0.635c1.124,0.424,1.95,0.956,2.479,1.597c0.529,0.642,0.899,1.452,1.111,2.43
				c0.118,0.608,0.178,1.706,0.178,3.293v4.761c0,3.319,0.076,5.418,0.229,6.297c0.151,0.88,0.453,1.723,0.902,2.529h-3.729
				C640.023,187.93,639.786,187.064,639.68,186.071z M639.383,178.098c-1.296,0.529-3.24,0.979-5.832,1.349
				c-1.468,0.212-2.506,0.45-3.113,0.715c-0.608,0.265-1.078,0.651-1.409,1.16c-0.33,0.509-0.495,1.074-0.495,1.695
				c0,0.952,0.359,1.746,1.081,2.381c0.72,0.635,1.774,0.952,3.163,0.952c1.375,0,2.599-0.301,3.67-0.903
				c1.071-0.602,1.857-1.424,2.36-2.469c0.383-0.807,0.575-1.997,0.575-3.57V178.098z"/>
			<path fill="#303393" d="M656.321,185.477l0.516,3.153c-1.005,0.212-1.904,0.317-2.697,0.317c-1.296,0-2.301-0.205-3.015-0.614
				c-0.714-0.41-1.217-0.949-1.508-1.617c-0.291-0.667-0.437-2.072-0.437-4.215v-12.119h-2.618v-2.776h2.618v-5.217l3.551-2.143
				v7.359h3.59v2.776h-3.59v12.317c0,1.019,0.062,1.674,0.188,1.964c0.125,0.291,0.33,0.522,0.614,0.694s0.691,0.258,1.221,0.258
				C655.151,185.615,655.674,185.569,656.321,185.477z"/>
			<path fill="#303393" d="M659.832,163.698v-4.106h3.57v4.106H659.832z M659.832,188.67v-21.064h3.57v21.064H659.832z"/>
			<path fill="#303393" d="M667.508,178.138c0-3.9,1.084-6.79,3.253-8.668c1.812-1.561,4.02-2.341,6.625-2.341
				c2.896,0,5.263,0.949,7.101,2.847s2.757,4.52,2.757,7.864c0,2.711-0.406,4.844-1.22,6.397c-0.812,1.554-1.996,2.76-3.55,3.619
				c-1.555,0.859-3.25,1.289-5.088,1.289c-2.949,0-5.332-0.944-7.15-2.836C668.417,184.419,667.508,181.695,667.508,178.138z
				 M671.178,178.138c0,2.697,0.588,4.718,1.765,6.06s2.658,2.013,4.443,2.013c1.771,0,3.246-0.674,4.423-2.022
				s1.766-3.405,1.766-6.169c0-2.604-0.592-4.578-1.775-5.921c-1.184-1.342-2.654-2.013-4.413-2.013
				c-1.785,0-3.267,0.668-4.443,2.003C671.765,173.424,671.178,175.44,671.178,178.138z"/>
			<path fill="#303393" d="M691.429,188.67v-21.064h3.213v2.995c1.548-2.314,3.782-3.472,6.704-3.472
				c1.27,0,2.437,0.229,3.501,0.685s1.861,1.055,2.391,1.795c0.528,0.741,0.898,1.62,1.11,2.639
				c0.132,0.661,0.198,1.818,0.198,3.471v12.952h-3.57v-12.813c0-1.454-0.139-2.542-0.416-3.263
				c-0.278-0.721-0.771-1.296-1.478-1.726c-0.708-0.43-1.537-0.645-2.489-0.645c-1.521,0-2.834,0.482-3.938,1.448
				c-1.104,0.965-1.656,2.796-1.656,5.494v11.504H691.429z"/>
			<path fill="#303393" d="M727.765,186.071c-1.322,1.124-2.595,1.918-3.817,2.381c-1.224,0.462-2.536,0.693-3.938,0.693
				c-2.314,0-4.093-0.564-5.336-1.695s-1.864-2.575-1.864-4.334c0-1.031,0.234-1.974,0.704-2.826
				c0.47-0.854,1.084-1.537,1.845-2.054c0.76-0.516,1.616-0.905,2.568-1.17c0.701-0.185,1.759-0.363,3.174-0.535
				c2.883-0.344,5.005-0.754,6.367-1.23c0.013-0.488,0.02-0.8,0.02-0.932c0-1.455-0.337-2.479-1.012-3.074
				c-0.912-0.807-2.268-1.21-4.066-1.21c-1.679,0-2.919,0.294-3.719,0.883c-0.8,0.588-1.392,1.63-1.775,3.123l-3.49-0.476
				c0.317-1.494,0.839-2.7,1.566-3.62c0.728-0.919,1.778-1.626,3.154-2.122c1.375-0.496,2.968-0.744,4.78-0.744
				c1.798,0,3.259,0.212,4.383,0.635c1.124,0.424,1.95,0.956,2.479,1.597c0.529,0.642,0.899,1.452,1.111,2.43
				c0.118,0.608,0.178,1.706,0.178,3.293v4.761c0,3.319,0.076,5.418,0.229,6.297c0.151,0.88,0.453,1.723,0.902,2.529h-3.729
				C728.109,187.93,727.872,187.064,727.765,186.071z M727.469,178.098c-1.296,0.529-3.24,0.979-5.832,1.349
				c-1.468,0.212-2.506,0.45-3.113,0.715c-0.608,0.265-1.078,0.651-1.409,1.16c-0.33,0.509-0.495,1.074-0.495,1.695
				c0,0.952,0.359,1.746,1.081,2.381c0.72,0.635,1.774,0.952,3.163,0.952c1.375,0,2.599-0.301,3.67-0.903
				c1.071-0.602,1.857-1.424,2.36-2.469c0.383-0.807,0.575-1.997,0.575-3.57V178.098z"/>
			<path fill="#303393" d="M736.533,188.67v-29.078h3.57v29.078H736.533z"/>
			<path fill="#303393" d="M751.945,188.67l11.167-29.078h4.146l11.901,29.078h-4.384l-3.392-8.807h-12.159l-3.193,8.807H751.945z
				 M760.336,176.73h9.857l-3.034-8.053c-0.926-2.446-1.614-4.456-2.063-6.03c-0.37,1.864-0.893,3.716-1.566,5.554L760.336,176.73z"
				/>
			<path fill="#303393" d="M781.796,163.698v-4.106h3.57v4.106H781.796z M781.796,188.67v-21.064h3.57v21.064H781.796z"/>
			<path fill="#303393" d="M790.762,188.67v-21.064h3.214v3.193c0.819-1.494,1.576-2.479,2.271-2.955
				c0.694-0.477,1.458-0.715,2.291-0.715c1.203,0,2.427,0.384,3.67,1.15l-1.23,3.312c-0.872-0.516-1.745-0.773-2.618-0.773
				c-0.78,0-1.48,0.235-2.103,0.704c-0.621,0.47-1.064,1.121-1.328,1.954c-0.397,1.27-0.596,2.658-0.596,4.165v11.028H790.762z"/>
			<path fill="#303393" d="M804.25,188.67v-29.078h3.57v29.078H804.25z"/>
			<path fill="#303393" d="M813.373,163.698v-4.106h3.57v4.106H813.373z M813.373,188.67v-21.064h3.57v21.064H813.373z"/>
			<path fill="#303393" d="M822.379,188.67v-21.064h3.213v2.995c1.548-2.314,3.782-3.472,6.704-3.472
				c1.27,0,2.437,0.229,3.501,0.685s1.861,1.055,2.391,1.795c0.528,0.741,0.898,1.62,1.11,2.639
				c0.132,0.661,0.198,1.818,0.198,3.471v12.952h-3.57v-12.813c0-1.454-0.139-2.542-0.416-3.263
				c-0.278-0.721-0.771-1.296-1.478-1.726c-0.708-0.43-1.537-0.645-2.489-0.645c-1.521,0-2.834,0.482-3.938,1.448
				c-1.104,0.965-1.656,2.796-1.656,5.494v11.504H822.379z"/>
			<path fill="#303393" d="M859.39,181.887l3.689,0.456c-0.582,2.155-1.66,3.828-3.233,5.018c-1.573,1.19-3.583,1.785-6.029,1.785
				c-3.082,0-5.524-0.948-7.329-2.846c-1.806-1.897-2.708-4.559-2.708-7.983c0-3.544,0.913-6.295,2.737-8.252
				c1.825-1.956,4.191-2.936,7.102-2.936c2.816,0,5.117,0.959,6.902,2.876c1.785,1.918,2.678,4.615,2.678,8.093
				c0,0.212-0.007,0.529-0.021,0.952H847.47c0.132,2.314,0.787,4.086,1.964,5.316c1.177,1.229,2.645,1.844,4.403,1.844
				c1.309,0,2.427-0.343,3.352-1.031C858.114,184.491,858.848,183.394,859.39,181.887z M847.668,176.114h11.763
				c-0.159-1.771-0.608-3.101-1.35-3.986c-1.137-1.375-2.611-2.063-4.423-2.063c-1.64,0-3.019,0.549-4.136,1.646
				S847.787,174.276,847.668,176.114z"/>
		</g>
	</g>
	<g>
		<path id="path3537" fill="#0090F5" d="M237.096,119.586c0.01,66.043-53.069,119.586-118.548,119.586
			C53.069,239.172-0.01,185.629,0,119.586C-0.01,53.543,53.069,0,118.548,0C184.027,0,237.106,53.543,237.096,119.586
			L237.096,119.586z"/>
		<path id="path3578" fill="#FFFFFF" d="M221.439,57.345l-3.719,1.211l-4.082,0.34l-15.305-4.762l-29.93-10.884l-42.855-2.381
			l-35.372,4.081L66.369,57.536l-0.34,10.884l-7.823,14.285L37.8,88.487l-7.483,6.122v8.503l6.122,12.244l10.544,9.523l8.163-12.584
			l6.995,1.009c4.06,5.762,12.797,11.602,12.344,19.887c-2.321,42.518-22.386,38.522-20.598,87.779
			c18.676,11.942,40.865,18.865,64.661,18.865c66.377,0,120.249-53.871,120.249-120.249
			C238.797,96.81,232.454,75.506,221.439,57.345z"/>
		<path id="text2402" fill="#27017A" d="M85.018,212.123l0.914,23.697l-5.391-2.148l-0.073-4.639l-9.009-3.589l-3.084,3.381
			l-5.319-2.119l16.137-16.903L85.018,212.123z M80.385,224.924l-0.125-9.119l-6.073,6.649L80.385,224.924z M105.395,235.377
			l-0.753,3.9l-15.692-3.029l4.108-21.283l15.478,2.987l-0.753,3.9l-10.177-1.964l-0.861,4.464l9.704,1.873l-0.753,3.9l-9.704-1.873
			l-0.988,5.119L105.395,235.377z M109.787,218.096l9.681,0.117c2.1,0.025,3.799,0.654,5.098,1.885
			c1.299,1.231,1.938,2.711,1.917,4.438c-0.029,2.389-1.292,4.143-3.788,5.261c1.09,0.5,2.111,1.841,3.062,4.025
			c0.951,2.184,1.87,4.243,2.757,6.178l-5.942-0.072c-0.343-0.718-0.939-2.086-1.789-4.103c-0.85-2.017-1.584-3.314-2.203-3.89
			c-0.619-0.576-1.285-0.869-1.999-0.878l-1.552-0.019l-0.106,8.797l-5.399-0.065L109.787,218.096z M115.138,222.133l-0.06,4.933
			l2.855,0.035c0.91,0.011,1.634-0.195,2.172-0.618c0.538-0.423,0.811-1.032,0.821-1.829c0.02-1.634-0.999-2.464-3.058-2.489
			L115.138,222.133z M138.541,216.051c3.623-0.713,6.772-0.197,9.445,1.549c2.673,1.746,4.296,4.07,4.867,6.973
			c0.579,2.943-0.055,5.719-1.903,8.329c-1.848,2.609-4.553,4.264-8.116,4.965c-3.603,0.709-6.748,0.21-9.434-1.496
			c-2.687-1.706-4.321-4.041-4.904-7.005c-0.573-2.913,0.049-5.682,1.868-8.306C132.182,218.436,134.908,216.766,138.541,216.051
			L138.541,216.051z M141.965,233.452c2.009-0.395,3.511-1.31,4.504-2.744c0.993-1.434,1.299-3.121,0.918-5.059
			c-0.384-1.948-1.306-3.396-2.768-4.342c-1.462-0.946-3.197-1.221-5.207-0.825c-2.02,0.398-3.529,1.311-4.529,2.741
			c-0.999,1.43-1.307,3.119-0.924,5.068c0.381,1.938,1.306,3.383,2.774,4.333C138.202,233.573,139.946,233.849,141.965,233.452
			L141.965,233.452z M171.292,212.869l2.21-10.404l4.115-2.274l10.484,18.972l-4.726,2.611l-6.544-11.842l-1.833,8.777l-0.72,0.398
			l-8.407-3.119l6.544,11.842l-4.726,2.612l-10.484-18.971l4.115-2.274L171.292,212.869z M186.428,191.719
			c2.704-2.515,5.652-3.734,8.844-3.658c3.192,0.076,5.795,1.197,7.81,3.363c2.043,2.197,2.966,4.891,2.77,8.082
			c-0.196,3.191-1.624,6.023-4.283,8.495c-2.689,2.501-5.625,3.733-8.807,3.698c-3.182-0.035-5.802-1.159-7.859-3.371
			c-2.022-2.174-2.951-4.855-2.788-8.044C182.278,197.096,183.716,194.241,186.428,191.719L186.428,191.719z M198.504,204.706
			c1.5-1.395,2.294-2.963,2.383-4.705c0.089-1.742-0.539-3.337-1.885-4.784c-1.352-1.454-2.899-2.199-4.64-2.232
			c-1.741-0.034-3.361,0.646-4.861,2.041c-1.508,1.402-2.309,2.974-2.406,4.716c-0.096,1.742,0.532,3.34,1.885,4.795
			c1.345,1.447,2.892,2.187,4.64,2.222C195.369,206.792,196.997,206.108,198.504,204.706L198.504,204.706z M207.47,165.34
			l18.062,11.983l-2.513,3.788l-18.193,2.304l11.571,7.677l-2.985,4.5l-18.062-11.983l2.736-4.124l17.44-2.32l-11.041-7.325
			L207.47,165.34z M216.493,145.781l4.429,1.668c-2.222,2.114-3.799,4.405-4.729,6.873c-0.897,2.381-0.988,4.442-0.273,6.181
			c0.715,1.74,2.002,2.959,3.861,3.66c1.781,0.671,3.466,0.571,5.054-0.301c1.589-0.872,2.779-2.358,3.57-4.458
			c0.419-1.113,0.599-2.322,0.537-3.628l-2.366-0.892l-1.105,2.933l-3.717-1.4l3.014-8l8.291,3.123
			c0.501,1.106,0.696,2.575,0.586,4.407c-0.11,1.832-0.467,3.552-1.073,5.158c-1.331,3.533-3.399,6.067-6.205,7.602
			c-2.806,1.535-5.714,1.736-8.724,0.601c-3.078-1.16-5.16-3.24-6.246-6.241c-1.085-3.001-0.948-6.307,0.412-9.917
			C212.932,150.17,214.493,147.713,216.493,145.781L216.493,145.781z M216.685,132.638c0.46-3.664,1.938-6.491,4.434-8.482
			c2.496-1.991,5.212-2.802,8.147-2.434c2.977,0.373,5.413,1.847,7.311,4.42c1.898,2.573,2.621,5.661,2.168,9.263
			c-0.457,3.643-1.917,6.473-4.38,8.489c-2.463,2.016-5.193,2.836-8.19,2.46c-2.946-0.37-5.379-1.83-7.301-4.38
			C216.954,139.425,216.224,136.312,216.685,132.638L216.685,132.638z M234.282,134.845c0.255-2.032-0.143-3.745-1.193-5.138
			c-1.05-1.393-2.555-2.213-4.516-2.459c-1.97-0.247-3.634,0.175-4.991,1.266c-1.356,1.091-2.162,2.653-2.417,4.685
			c-0.256,2.042,0.138,3.762,1.182,5.16c1.045,1.398,2.552,2.22,4.523,2.467c1.96,0.246,3.622-0.179,4.984-1.275
			C233.216,138.457,234.025,136.888,234.282,134.845L234.282,134.845z M234.259,101.836l3.958-0.329l1.369,16.467l-21.601,1.796
			l-0.447-5.381l17.642-1.467L234.259,101.836z M214.953,97.272l21.194-4.542l1.131,5.28l-21.194,4.542L214.953,97.272z
			 M210.388,83.159l16.892-16.644l2.046,5.43l-3.378,3.179l3.419,9.075l4.576,0l2.019,5.358l-23.364-0.533L210.388,83.159z
			 M222.969,77.955l-6.653,6.237l9.006,0.006L222.969,77.955z"/>
		<g id="path3565">
			<path fill="#27017A" d="M219.076,58.5c-12.122-1.231-15.965-5.183-23.793-8.486C127.111,21.252,62.219,41.456,59.867,69.081
				c-0.478,14.717,72.467,8.371,73.111-6.253c-24.829,9.497-84.288,9.881-58.681-6.253c27.501-17.486,90.961-13.488,115.439-0.721
				C202.76,60.394,213.659,64.103,219.076,58.5z"/>
			<path fill="#27017A" d="M84.88,78.084c-1.368,0-2.709-0.025-4.02-0.075c-19.048-0.729-21.727-5.919-21.629-8.949l0.002-0.033
				c0.679-7.976,6.267-15.35,16.16-21.325c12.585-7.601,30.594-11.967,50.709-12.294c22.796-0.374,46.808,4.477,69.427,14.02
				c2.209,0.932,4.104,1.915,5.937,2.866c4.657,2.416,9.056,4.699,17.674,5.574L220.442,58l-0.91,0.941
				c-5.766,5.963-16.999,2.047-30.006-2.487l-0.085-0.037c-12.111-6.316-33.685-10.498-56.304-10.912
				c-24.861-0.454-46.184,3.775-58.501,11.606c-3.253,2.05-6.892,4.963-5.768,7.211c1.577,3.153,11.707,4.883,25.802,4.405
				c14.069-0.477,29.016-3.025,38.079-6.492l0.904-0.346l-0.043,0.966c-0.109,2.466-1.997,4.778-5.613,6.871
				c-3.165,1.832-7.547,3.454-13.024,4.819C105.988,76.788,94.801,78.084,84.88,78.084z M60.501,69.118
				c-0.12,4.28,7.506,7.129,20.408,7.623c21.46,0.822,48.759-5.032,51.254-12.933c-9.359,3.362-23.558,5.718-37.448,6.189
				c-7.222,0.246-24.309,0.237-26.981-5.106c-1.244-2.488,0.85-5.466,6.224-8.852c12.52-7.96,34.103-12.261,59.203-11.803
				c22.778,0.417,44.545,4.644,56.827,11.034c11.784,4.108,22.06,7.682,27.583,3.698c-7.92-0.997-12.187-3.21-16.689-5.546
				c-1.811-0.939-3.683-1.911-5.845-2.823c-22.458-9.475-46.283-14.289-68.913-13.92c-19.894,0.324-37.677,4.625-50.073,12.111
				C66.664,54.458,61.142,61.678,60.501,69.118z"/>
		</g>
		<g id="path3567">
			<path fill="#27017A" d="M54.536,219.348c0.129-18.083-5.986-30.794,8.773-51.955c13.311-19.086,6.812-44.61-4.762-49.657
				c-10.822-4.72-3.537,8.429-3.911,13.775c-17.711-4.216-26.636-14.489-27.379-29.59c-0.285-5.787-0.933-12.203,14.285-15.815
				c5.642-19.074,17.664-21.264,23.128-10.714c8.935,17.252-0.579,22.312-16.666,16.326c-9.004-3.351-20.156-1.459-11.394,17.006
				c2.861,6.029,12.059,20.321,12.244,2.381c0.042-4.046-0.122-8.285,8.673-3.571c6.334,3.395,13.48,9.087,19.897,15.135
				c1.236,1.165,2.309,1.285,3.061,7.823c1.537,13.362-1.084,24.69-12.244,40.814C57.943,186.18,53.863,201.268,54.536,219.348z"/>
			<path fill="#27017A" d="M53.901,219.372c-0.052-1.412-0.077-2.801-0.072-4.171c-0.108-2.725-0.318-5.348-0.523-7.912
				c-0.986-12.298-1.917-23.915,9.482-40.258c6.925-9.929,9.105-22.773,5.833-34.357c-1.987-7.035-5.848-12.401-10.328-14.355
				c-2.876-1.254-4.044-1.041-4.517-0.642c-1.157,0.976-0.294,4.48,0.469,7.571c0.587,2.381,1.142,4.631,1.024,6.307l-0.052,0.747
				l-0.728-0.173c-8.849-2.106-15.704-5.775-20.375-10.903c-4.59-5.039-7.11-11.524-7.492-19.273l-0.018-0.358
				c-0.292-5.789-0.623-12.343,14.433-16.02c3.076-10.136,8.377-16.505,14.223-17.063c3.972-0.381,7.607,2.022,9.972,6.589
				c5.076,9.802,3.713,14.604,1.675,16.906c-3.142,3.549-10.113,3.661-19.126,0.307c-6.373-2.372-10.484-1.209-12.207,0.67
				c-2.471,2.696-1.915,8.045,1.608,15.469c2.286,4.817,6.659,11.221,8.925,10.726c0.611-0.134,2.039-1.19,2.111-8.08l0.003-0.272
				c0.021-2.265,0.042-4.606,1.695-5.586c1.516-0.898,4.029-0.347,7.91,1.733c5.787,3.102,12.901,8.511,20.032,15.233
				c0.139,0.132,0.277,0.249,0.412,0.364c1.156,0.988,2.154,1.842,2.844,7.848c1.661,14.441-1.803,26.006-12.353,41.248
				c-9.315,13.458-13.603,27.027-13.663,43.516c0.053,1.361,0.081,2.749,0.071,4.171L53.901,219.372z M54.846,116.092
				c1.026,0,2.327,0.353,3.954,1.062c4.897,2.135,8.921,7.666,11.042,15.173c3.375,11.947,1.126,25.191-6.013,35.429
				c-10.553,15.131-10.325,25.685-9.414,37.459c1.476-12.449,5.774-23.396,13.303-34.272c11.942-17.252,13.488-28.62,12.135-40.38
				c-0.634-5.511-1.456-6.214-2.408-7.028c-0.15-0.128-0.302-0.259-0.458-0.405c-7.052-6.647-14.07-11.987-19.761-15.038
				c-3.356-1.799-5.597-2.39-6.663-1.759c-1.037,0.614-1.055,2.592-1.073,4.505l-0.003,0.273c-0.06,5.816-1.077,8.861-3.108,9.307
				c-1.587,0.348-3.559-1.003-5.864-4.016c-1.877-2.453-3.545-5.434-4.481-7.407c-3.817-8.043-4.287-13.719-1.397-16.871
				c3.053-3.33,9.02-2.701,13.586-1.002c8.494,3.161,14.957,3.176,17.732,0.041c2.545-2.875,1.904-8.228-1.852-15.48
				c-2.114-4.083-5.296-6.237-8.724-5.909c-5.379,0.513-10.325,6.686-13.231,16.511l-0.104,0.353l-0.358,0.085
				C27.298,90.139,27.59,95.93,27.872,101.53l0.018,0.36c0.736,14.944,9.519,24.634,26.114,28.813
				c-0.075-1.432-0.54-3.318-0.992-5.151c-0.933-3.786-1.815-7.361-0.055-8.846C53.441,116.297,54.064,116.092,54.846,116.092z"/>
		</g>
		<g id="path3569">
			<path fill="#27017A" d="M65.179,97.5c2.591,4.664,7.766,4.21,10.033,5.782c30.395,32.555,30.975,20.387,42.514,24.658
				c10.667,1.097,20.896,3.179,29.76,8.333c-4.875-4.823-9.239-9.728-30.44-11.904c-12.622,1.376-22.036-6.517-30.61-16.836
				c-4.134-6.881-8.685-11.266-13.264-15.475L65.179,97.5z"/>
			<path fill="#27017A" d="M147.486,136.907c-0.109,0-0.219-0.028-0.319-0.086c-9.66-5.616-20.843-7.359-29.506-8.25
				c-0.053-0.005-0.105-0.018-0.155-0.036c-2.99-1.107-5.176-1.07-7.49-1.03c-6.314,0.106-12.841,0.219-35.219-23.739
				c-0.654-0.433-1.617-0.705-2.726-1.018c-2.484-0.701-5.575-1.573-7.447-4.941c-0.16-0.287-0.074-0.648,0.198-0.833l7.993-5.442
				c0.244-0.166,0.57-0.142,0.787,0.057c4.693,4.313,9.246,8.75,13.354,15.574c7.488,9.005,16.91,18.004,30.022,16.573
				c0.045-0.005,0.089-0.005,0.134,0c20.801,2.134,25.678,6.977,30.394,11.659l0.428,0.425c0.227,0.225,0.252,0.583,0.058,0.837
				C147.867,136.821,147.678,136.907,147.486,136.907z M117.871,127.317c7.604,0.785,17.113,2.227,25.917,6.316
				c-4.187-3.597-10.433-6.945-26.74-8.626c-13.692,1.463-23.404-7.807-31.1-17.068c-0.021-0.025-0.039-0.051-0.056-0.079
				c-3.92-6.524-8.279-10.843-12.78-14.994l-7.08,4.82c1.634,2.501,4.149,3.21,6.383,3.841c1.198,0.338,2.329,0.657,3.159,1.232
				c0.037,0.026,0.071,0.056,0.102,0.089c22.033,23.598,28.279,23.492,34.318,23.388
				C112.306,126.197,114.695,126.156,117.871,127.317z"/>
		</g>
		<path id="path3571" fill="#2A0079" d="M104.286,74.701c-8.636,0-15.634,4.969-15.634,11.071c0,6.102,6.998,11.031,15.634,11.031
			c8.636,0,15.634-4.929,15.634-11.031C119.92,79.67,112.923,74.701,104.286,74.701z M100.556,80.137
			c1.784,0,3.214,1.47,3.214,3.254s-1.43,3.214-3.214,3.214s-3.254-1.431-3.254-3.214C97.303,81.607,98.773,80.137,100.556,80.137z"
			/>
		<g id="path3573">
			<path fill="#2F017E" d="M104.292,100.663c-11.778,0-21.359-6.378-21.359-14.217s9.582-14.217,21.359-14.217
				s21.359,6.378,21.359,14.217S116.07,100.663,104.292,100.663z M104.292,74.089c-10.752,0-19.499,5.543-19.499,12.357
				c0,6.813,8.747,12.357,19.499,12.357c10.752,0,19.499-5.543,19.499-12.357C123.791,79.632,115.044,74.089,104.292,74.089z"/>
		</g>
	</g>
</g>
</svg>
