<?xml version="1.0" encoding="UTF-8"?>
<svg width="77px" height="23px" viewBox="0 0 77 23" version="1.1" xmlns="http://www.w3.org/2000/svg" xmlns:xlink="http://www.w3.org/1999/xlink">
    <!-- Generator: Sketch 49.1 (51147) - http://www.bohemiancoding.com/sketch -->
    <title>Xiamen_Airlines_s</title>
    <desc>Created with Sketch.</desc>
    <defs>
        <polygon id="path-1" points="57.0044327 6.63290323 0.657461538 6.63290323 0.657461538 0.622483871 57.0044327 0.622483871"></polygon>
        <polygon id="path-3" points="0.0444230769 0.0511935484 0.0444230769 5.89096774 29.3110865 5.89096774 29.3110865 0.0511935484 0.0444230769 0.0511935484"></polygon>
    </defs>
    <g id="AVIA" stroke="none" stroke-width="1" fill="none" fill-rule="evenodd">
        <g id="Xiamen_Airlines_s">
            <path d="M20.0844135,0.768645161 C20.0844135,0.768645161 20.9491827,0.684064516 21.2460769,0.717451613 C21.5896154,0.756774194 22.281875,1.03870968 22.6254135,1.07803226 C22.9126827,1.11067742 23.5175769,1.27390323 23.8055865,1.25758065 C24.1631923,1.23829032 24.7525385,0.846548387 25.2782115,0.939290323 C28.0391058,1.426 32.2578173,6.4066129 35.0586923,6.28567742 C40.1132981,6.06680645 39.9955769,0.692225806 41.3334519,0.692225806 L54.26575,0.692225806 C46.6834712,4.18896774 41.5118846,8.08487097 44.1942981,10.361129 C46.6494135,12.4452258 54.0354904,9.84622581 54.0354904,9.84622581 C54.0354904,9.84622581 50.9569712,12.9200645 45.6439712,12.9200645 C35.3666923,12.9200645 28.4633462,4.163 23.3569135,2.04180645 C22.5469327,1.70570968 20.9987885,1.058 20.0844135,0.768645161" id="Fill-1" fill="#4694B3"></path>
            <polyline id="Fill-3" fill="#21406D" points="30.9399327 17.3946774 32.6716923 19.9009355 30.6511827 22.8523548 31.9409327 22.8523548 33.2876923 20.9240645 34.7314423 22.8523548 36.1167019 22.8523548 34.0191923 19.9009355 35.7131923 17.3946774 34.4041923 17.3946774 33.3839423 18.9089677 32.2481923 17.3946774 30.9399327 17.3946774"></polyline>
            <polygon id="Fill-4" fill="#21406D" points="36.9703654 22.8523548 38.0616923 22.8523548 38.0616923 17.3946774 36.9703654 17.3946774"></polygon>
            <path d="M40.8455385,21.0850645 L41.6977212,18.6893548 L42.5972885,21.0850645 L40.8455385,21.0850645 Z M42.2567115,17.3946774 L41.1017115,17.3946774 L38.9464519,22.8523548 L40.0740577,22.8523548 L40.5456827,21.6927097 L42.8912212,21.6949355 L43.2962115,22.8523548 L44.4889712,22.8523548 L42.2567115,17.3946774 Z" id="Fill-5" fill="#21406D"></path>
            <polyline id="Fill-6" fill="#21406D" points="45.0664712 22.8523548 45.6047308 17.3946774 46.8944808 17.3946774 48.4922308 20.654 50.0699904 17.3946774 51.3597404 17.3946774 51.8424712 22.8523548 50.7637308 22.8523548 50.4557308 19.1107742 48.4544712 22.9495484 46.5872212 19.0914839 46.2214712 22.8523548 45.0664712 22.8523548"></polyline>
            <polyline id="Fill-7" fill="#21406D" points="56.5439135 17.3946774 53.0803942 17.3946774 53.0803942 22.8523548 56.7060577 22.8523548 56.7060577 22.1222903 54.0747308 22.1222903 54.0747308 20.4158387 56.1270769 20.4158387 56.1270769 19.6701935 54.0747308 19.6701935 54.0747308 18.101 56.5439135 18.101 56.5439135 17.3946774"></polyline>
            <g id="Group-14" transform="translate(5.923077, 16.322581)">
                <mask id="mask-2" fill="white">
                    <use xlink:href="#path-1"></use>
                </mask>
                <g id="Clip-9"></g>
                <polyline id="Fill-8" fill="#21406D" mask="url(#mask-2)" points="52.0001731 1.07209677 52.0001731 6.52977419 53.0270865 6.52977419 53.0270865 2.70435484 56.3625192 6.52977419 57.0044327 6.52977419 57.0044327 1.07209677 55.9782596 1.07209677 55.9782596 4.55770968 52.9752596 1.07209677 52.0001731 1.07209677"></polyline>
                <polygon id="Fill-10" fill="#21406D" mask="url(#mask-2)" points="8.60623077 6.63290323 9.00381731 6.63290323 9.00381731 0.622483871 8.60623077 0.622483871"></polygon>
                <polygon id="Fill-11" fill="#21406D" mask="url(#mask-2)" points="16.4772596 6.63290323 16.8748462 6.63290323 16.8748462 0.622483871 16.4772596 0.622483871"></polygon>
                <polygon id="Fill-12" fill="#21406D" mask="url(#mask-2)" points="0.657461538 6.63290323 1.05504808 6.63290323 1.05504808 0.622483871 0.657461538 0.622483871"></polygon>
                <path d="M4.38381731,1.44825806 L4.38381731,0.79683871 L6.76859615,0.79683871 C7.04846154,0.79683871 7.26465385,0.882903226 7.41421154,1.05577419 C7.56228846,1.22493548 7.63706731,1.45270968 7.63706731,1.73909677 L7.63706731,5.62387097 C7.63706731,5.91025806 7.59708654,6.12096774 7.517125,6.25822581 C7.36238462,6.51641935 7.14619231,6.64551613 6.86706731,6.64551613 L6.63014423,6.64551613 L6.08522115,6.00522581 L6.77081731,6.00522581 C6.84929808,6.00745161 6.92481731,5.96293548 6.99959615,5.87241935 C7.05364423,5.80564516 7.08029808,5.69583871 7.08029808,5.54374194 L7.08029808,1.87709677 C7.08029808,1.59070968 6.95739423,1.44825806 6.71084615,1.44825806 L4.38381731,1.44825806 Z M2.1175,6.64551613 L2.67352885,6.64551613 L2.67352885,1.93645161 L2.1175,1.93645161 L2.1175,6.64551613 Z M2.1175,1.23977419 L2.1175,0.828741935 L2.60911538,0.743419355 L2.60911538,1.07209677 C2.60911538,1.1396129 2.68315385,1.23754839 2.78754808,1.23754839 L4.03805769,1.23235484 L4.03805769,1.68270968 L2.72609615,1.68790323 C2.34479808,1.68790323 2.1175,1.43787097 2.1175,1.23977419 Z" id="Fill-13" fill="#21406D" mask="url(#mask-2)"></path>
            </g>
            <path d="M18.7184038,22.9235806 L18.3141538,22.5756129 C18.4874038,22.5296129 18.605125,22.3352258 18.6406635,22.298129 C18.7072981,22.229129 18.7457981,22.0250968 18.7457981,21.8433226 L18.7457981,19.6790968 C18.7457981,19.4075484 18.7828173,19.2903226 18.8472308,19.1745806 C18.9094231,19.0566129 18.9975288,18.963871 19.1108077,18.8978387 C19.2055769,18.8399677 19.3603173,18.7976774 19.4380577,18.7947097 L20.1495673,18.791 C20.3294808,18.7887742 20.4812596,18.8525806 20.6034231,18.9824194 C20.7559423,19.1441613 20.8322019,19.3556129 20.8322019,19.6152903 L20.8270192,21.6593226 C20.8270192,21.930871 20.8322019,22.1363871 20.8499712,22.1875806 C20.8795865,22.2736452 20.9358558,22.3604516 21.0076731,22.3604516 L21.6051635,22.3604516 L21.3741635,22.8723871 C20.8832885,22.9005806 20.6767212,22.8916774 20.5441923,22.7662903 C20.3998173,22.6282903 20.2709904,22.3827097 20.2709904,22.114871 L20.2754327,20.1465161 C20.2754327,19.8274839 20.2820962,19.6635161 20.2591442,19.619 C20.1976923,19.5010323 20.1199519,19.4431613 20.0281442,19.4431613 L19.6194519,19.4379677 C19.5372692,19.4379677 19.471375,19.4587419 19.4217692,19.5010323 C19.3432885,19.5633548 19.3040481,19.6345806 19.3040481,19.7117419 L19.3070096,19.8571613 L19.3018269,21.7112581 C19.3018269,22.0302903 19.2773942,22.2565806 19.2292692,22.3916129 C19.163375,22.5808065 18.9086827,22.9057742 18.7184038,22.9235806 Z M18.3785673,18.3324839 L18.3785673,17.8569032 L19.5202404,17.8569032 L19.1322788,17.066 L19.8541538,17.066 L20.2783942,17.8569032 L21.4311731,17.8569032 L21.4311731,18.3324839 L18.3785673,18.3324839 Z M16.9785,19.4780323 C16.9785,19.4780323 16.8474519,19.1078065 16.8207981,18.9156452 C16.795625,18.7412903 16.7830385,18.4044516 16.7830385,18.4044516 L17.2650288,18.3710645 C17.2650288,18.3710645 17.2731731,18.6500323 17.3072308,18.8644516 C17.334625,19.0373226 17.3472115,19.1426774 17.4464231,19.4194194 L16.9785,19.4780323 Z M16.9955288,21.6830645 C16.9955288,21.6830645 16.8896538,21.3002258 16.863,21.1073226 C16.8378269,20.9329677 16.7934038,20.4774194 16.7934038,20.4774194 L17.2294904,20.4455161 C17.2294904,20.4455161 17.2620673,20.8090645 17.2968654,21.0234839 C17.325,21.1956129 17.3568365,21.2156452 17.4634519,21.6244516 L16.9955288,21.6830645 Z M16.6401442,19.7020968 L17.6677981,19.7020968 L17.6640962,18.2939032 C17.6640962,18.2063548 17.6441058,18.1447742 17.6048654,18.1099032 C17.5767308,18.0883871 17.5212019,18.0750323 17.4390192,18.0750323 L16.795625,18.0750323 C16.6919712,18.0750323 16.6401442,18.1722258 16.6401442,18.3666129 L16.6401442,19.7020968 Z M16.1551923,22.9235806 L15.7413173,22.597129 C15.9049423,22.459129 16.1100288,22.2936774 16.1166923,21.9323548 L16.1189135,20.3423871 L15.7353942,20.3423871 L15.7353942,19.7020968 L16.1189135,19.7020968 L16.1189135,18.3703226 C16.1189135,18.1225161 16.141125,17.9696774 16.141125,17.9066129 C16.141125,17.6543548 16.4950288,17.4666452 16.7793365,17.4666452 L16.9622115,17.0481935 L17.57525,17.0481935 L17.3997788,17.4762903 L17.6107885,17.4725806 C17.7847788,17.4725806 17.9239712,17.537871 18.0291058,17.6669677 C18.1246154,17.7879032 18.1727404,17.9437097 18.1727404,18.1380968 L18.1727404,19.7020968 L18.4015192,19.7020968 L18.4015192,20.3423871 L18.1727404,20.3423871 L18.1727404,22.229871 C18.1727404,22.4287097 18.1386827,22.5793226 18.0713077,22.6809677 C17.9661731,22.8382581 17.8129135,22.9154194 17.6107885,22.9131935 L17.2679904,22.9072581 L16.9474038,22.287 L17.4923269,22.287 C17.6048654,22.2847742 17.6677981,22.1898065 17.6677981,22.0391935 L17.6677981,20.3423871 L16.6401442,20.3423871 L16.6401442,21.8633548 C16.6401442,22.4873226 16.4950288,22.6312581 16.1551923,22.9235806 Z" id="Fill-15" fill="#21406D"></path>
            <polyline id="Fill-16" fill="#21406D" points="26.7997019 20.6102258 28.7454327 20.6102258 28.7454327 20.0493226 24.1454231 20.0493226 24.1454231 20.6102258 26.2436731 20.6102258 26.2436731 22.3797419 23.6404808 22.3797419 23.6404808 22.8338065 29.3014615 22.8338065 29.3014615 22.3797419 26.7997019 22.3797419 26.7997019 20.6102258"></polyline>
            <g id="Group-21" transform="translate(0.000000, 17.064516)">
                <mask id="mask-4" fill="white">
                    <use xlink:href="#path-3"></use>
                </mask>
                <g id="Clip-18"></g>
                <path d="M29.1178462,0.654387097 C28.9919808,0.52083871 28.8283558,0.452580645 28.6277115,0.452580645 L26.8026635,0.452580645 L26.8026635,0.0511935484 L26.2436731,0.0511935484 L26.2436731,0.452580645 L24.2720288,0.452580645 C24.1150673,0.452580645 23.9714327,0.521580645 23.8418654,0.657354839 C23.7078558,0.798322581 23.6404808,0.993451613 23.6404808,1.24348387 L23.6404808,1.7353871 L24.1965096,1.7353871 L24.1965096,1.44083871 C24.1965096,1.35254839 24.2216827,1.27612903 24.2720288,1.2086129 C24.332,1.13219355 24.4038173,1.09435484 24.4882212,1.09435484 L25.3900096,1.09435484 C25.3670577,1.219 25.2522981,1.55435484 24.9057981,1.90158065 C24.7021923,2.1056129 24.0736058,2.66280645 23.7944808,2.77632258 L25.0064904,2.77632258 C25.2189808,2.61458065 25.3966731,2.49216129 25.7616827,2.05887097 C25.9045769,1.89119355 26.1570481,1.57958065 26.2917981,1.09732258 L26.8256154,1.09732258 L26.8211731,1.89193548 C26.8211731,1.89193548 26.7900769,2.43206452 27.1291731,2.58119355 C27.2461538,2.63535484 27.4993654,2.64722581 27.7881154,2.645 L28.9860577,2.64129032 L28.9882788,2.09225806 L28.0361442,2.09077419 C28.0361442,2.09077419 27.7844135,2.11748387 27.5911731,2.04774194 C27.4386538,1.99209677 27.4719712,1.82812903 27.4719712,1.62483871 L27.4719712,1.09435484 L28.4329904,1.09435484 C28.5247981,1.09435484 28.6017981,1.13219355 28.6639904,1.2086129 C28.7261827,1.28725806 28.7572788,1.37109677 28.7572788,1.45716129 L28.7572788,1.7353871 L29.3110865,1.7353871 L29.3110865,1.19822581 C29.3110865,0.971935484 29.2459327,0.79016129 29.1178462,0.654387097" id="Fill-17" fill="#21406D" mask="url(#mask-4)"></path>
                <path d="M0,5.72996774 L0.598230769,5.83606452 C0.754451923,5.62609677 0.832932692,5.35974194 0.832932692,5.03551613 L0.832932692,1.13219355 C0.832932692,0.855451613 0.952134615,0.716709677 1.19053846,0.716709677 L5.64469231,0.716709677 L5.64469231,0.0652903226 L1.14241346,0.0652903226 C0.980269231,0.0652903226 0.848480769,0.0860645161 0.749269231,0.127612903 C0.668567308,0.159516129 0.586384615,0.224064516 0.501980769,0.317548387 C0.351682692,0.486709677 0.276903846,0.700387097 0.276903846,0.962290323 L0.276903846,5.11267742 C0.276903846,5.34787097 0.202865385,5.5763871 0,5.72996774" id="Fill-19" fill="#21406D" mask="url(#mask-4)"></path>
                <path d="M3.53977885,4.95983871 C3.53977885,4.95983871 3.24510577,4.78177419 2.974125,4.60519355 L2.17450962,4.6 C2.22189423,4.5413871 2.26705769,4.485 2.32036538,4.42712903 L4.60445192,4.42712903 L3.53977885,4.95983871 Z M2.01236538,3.25487097 L2.01236538,3.15025806 L4.83545192,3.15025806 L4.83545192,3.24003226 C4.83545192,3.33796774 4.79102885,3.38545161 4.70070192,3.38545161 L2.07825962,3.38545161 C2.03457692,3.38545161 2.01236538,3.34167742 2.01236538,3.25487097 Z M2.01236538,2.80377419 L4.83545192,2.80377419 L4.83545192,2.576 L2.01236538,2.576 L2.01236538,2.80377419 Z M2.01236538,2.08706452 C2.01236538,1.99432258 2.05678846,1.94832258 2.14489423,1.94832258 L4.71550962,1.94832258 C4.79547115,1.94832258 4.83545192,1.99432258 4.83545192,2.08706452 L4.83545192,2.17387097 L2.01236538,2.17387097 L2.01236538,2.08706452 Z M5.07903846,5.48809677 C4.92948077,5.47474194 4.62370192,5.38348387 4.34531731,5.20616129 C4.76067308,5.00435484 5.0435,4.78919355 5.14567308,4.71574194 C5.26709615,4.62745161 5.32928846,4.50577419 5.32928846,4.34774194 C5.32928846,4.24832258 5.30041346,4.16745161 5.24488462,4.10216129 C5.17084615,4.01683871 5.02795192,3.97306452 4.81768269,3.97306452 L2.762375,3.97306452 L2.83789423,3.84025806 L4.90504808,3.84025806 C5.16714423,3.84025806 5.29893269,3.68890323 5.29893269,3.38545161 L5.29893269,1.886 C5.29893269,1.77396774 5.26265385,1.67454839 5.19083654,1.58848387 C5.12642308,1.51354839 5.02795192,1.47719355 5.02128846,1.47719355 L3.63825,1.47719355 L3.821125,1.30358065 L5.64469231,1.30358065 L5.64469231,0.835419355 L1.14241346,0.835419355 L1.14241346,1.30358065 L3.20586538,1.30358065 L3.04001923,1.47719355 L1.82875,1.47719355 C1.72657692,1.47719355 1.64291346,1.51354839 1.57627885,1.58848387 C1.50001923,1.67158065 1.46225962,1.78287097 1.46225962,1.92532258 L1.46225962,3.41364516 C1.46225962,3.54274194 1.50372115,3.65106452 1.58886538,3.73935484 C1.65031731,3.80612903 1.73694231,3.84025806 1.84651923,3.84025806 L1.94573077,3.84025806 C1.83615385,4.10067742 1.24384615,4.72464516 1.00470192,4.90641935 L1.89686538,4.91458065 C1.99533654,4.81812903 2.06493269,4.73725806 2.12564423,4.66083871 C2.57431731,5.03254839 2.76681731,5.1646129 2.76681731,5.1646129 C2.21152885,5.42132258 1.61848077,5.51332258 1.22089423,5.51332258 C1.19053846,5.51332258 1.15574038,5.51332258 1.11575962,5.51332258 L1.11575962,5.93548387 C2.10861538,5.93548387 2.78976923,5.78783871 3.56495192,5.47325806 C4.02028846,5.75593548 4.52004808,5.84051613 4.71254808,5.86945161 C4.94947115,5.90729032 5.22563462,5.92880645 5.54251923,5.93548387 L5.54251923,5.51332258 C5.46848077,5.50812903 5.39740385,5.50516129 5.32928846,5.50219355 C5.20046154,5.49774194 5.11753846,5.49329032 5.07903846,5.48809677 Z" id="Fill-20" fill="#21406D" mask="url(#mask-4)"></path>
            </g>
            <path d="M65.4033558,20.9433548 L66.5265192,18.1225161 L67.5852692,20.9433548 L65.4033558,20.9433548 Z M66.8278558,17.3946774 L66.1355962,17.3946774 L63.9159231,22.8523548 L64.6725962,22.8523548 L65.2752692,21.3929677 L67.7651827,21.3929677 L68.3671154,22.8523548 L69.1371154,22.8523548 L66.8278558,17.3946774 Z" id="Fill-22" fill="#21406D"></path>
            <polygon id="Fill-23" fill="#21406D" points="70.1255288 22.8523548 70.7289423 22.8523548 70.7289423 17.3946774 70.1255288 17.3946774"></polygon>
            <path d="M72.9234423,19.7087742 L72.9234423,17.882871 L74.4752885,17.8962258 C74.911375,17.8962258 75.3089615,18.2946452 75.3089615,18.8088065 C75.3089615,19.2339355 75.0142885,19.7213871 74.410875,19.7213871 L72.9234423,19.7087742 Z M74.8610288,20.1850968 C75.2445481,20.1850968 75.9634615,19.5678065 75.9634615,18.7961935 C75.9634615,18.0371935 75.3222885,17.3946774 74.7832885,17.3946774 L72.3081827,17.3946774 L72.3081827,22.8523548 L72.9352885,22.8523548 L72.9352885,20.171 L74.1547019,20.171 L75.8494423,22.8523548 L76.5157885,22.8523548 L74.8610288,20.1850968 Z" id="Fill-24" fill="#21406D"></path>
        </g>
    </g>
</svg>