<?xml version="1.0" encoding="UTF-8" standalone="no"?>
<!-- Created with Inkscape (http://www.inkscape.org/) -->

<svg
   xmlns:dc="http://purl.org/dc/elements/1.1/"
   xmlns:cc="http://creativecommons.org/ns#"
   xmlns:rdf="http://www.w3.org/1999/02/22-rdf-syntax-ns#"
   xmlns:svg="http://www.w3.org/2000/svg"
   xmlns="http://www.w3.org/2000/svg"
   xmlns:sodipodi="http://sodipodi.sourceforge.net/DTD/sodipodi-0.dtd"
   xmlns:inkscape="http://www.inkscape.org/namespaces/inkscape"
   width="400.00201"
   height="92.135002"
   viewBox="0 0 400.00203 92.135006"
   id="svg4176"
   version="1.1"
   inkscape:version="0.91 r13725"
   sodipodi:docname="Mihin Lanka logo.svg">
  <defs
     id="defs4178" />
  <sodipodi:namedview
     id="base"
     pagecolor="#ffffff"
     bordercolor="#666666"
     borderopacity="1.0"
     inkscape:pageopacity="0.0"
     inkscape:pageshadow="2"
     inkscape:zoom="0.35"
     inkscape:cx="-46.428571"
     inkscape:cy="520"
     inkscape:document-units="px"
     inkscape:current-layer="layer1"
     showgrid="false"
     units="px"
     inkscape:window-width="1366"
     inkscape:window-height="705"
     inkscape:window-x="-8"
     inkscape:window-y="-8"
     inkscape:window-maximized="1" />
  <metadata
     id="metadata4181">
    <rdf:RDF>
      <cc:Work
         rdf:about="">
        <dc:format>image/svg+xml</dc:format>
        <dc:type
           rdf:resource="http://purl.org/dc/dcmitype/StillImage" />
        <dc:title></dc:title>
      </cc:Work>
    </rdf:RDF>
  </metadata>
  <g
     inkscape:label="Layer 1"
     inkscape:groupmode="layer"
     id="layer1"
     transform="translate(0,-960.2272)">
    <g
       style="clip-rule:evenodd;fill-rule:evenodd;stroke-miterlimit:1.41420996"
       id="g4450"
       transform="matrix(0.96778628,0,0,0.96778628,3.8173781e-8,723.14685)">
      <g
         id="Ebene4"
         transform="translate(-28.47786,194.45288)">
        <g
           id="g4378"
           transform="matrix(0.85222358,0,0,0.85222358,48.468311,23.21288)">
          <g
             transform="matrix(0.77500309,0,0,0.77500309,-35.190517,-107.98276)"
             style="fill:#005dab;fill-opacity:1"
             id="g4355">
            <path
               inkscape:connector-curvature="0"
               d="m 21.0197,247.012 -0.8768,0 c -0.275,2.815 -0.6017,5.78 -0.9799,8.894 -0.3782,3.114 -0.7908,6.272 -1.2378,9.474 -0.447,3.202 -0.9111,6.387 -1.3925,9.554 -0.4813,3.167 -0.9455,6.176 -1.3925,9.026 0.5501,-0.071 1.1518,-0.106 1.8051,-0.106 0.6533,0 1.255,0.035 1.8051,0.106 0,-1.408 0.086,-3.211 0.2579,-5.41 0.1719,-2.2 0.3782,-4.54 0.6189,-7.02 0.2407,-2.481 0.5071,-4.997 0.7994,-7.548 0.2922,-2.552 0.5587,-4.918 0.7994,-7.1 l 0.1031,0 c 2.2693,4.645 4.53,9.193 6.782,13.645 2.2521,4.451 4.4096,8.894 6.4726,13.327 l 0.4642,0 c 2.0629,-4.785 4.2376,-9.369 6.5241,-13.75 2.2864,-4.381 4.6159,-8.788 6.9883,-13.222 l 0.1031,0 c 0.5502,4.575 1.0143,9.061 1.3925,13.46 0.3783,4.398 0.7565,8.938 1.1347,13.618 0.4126,-0.071 0.8166,-0.106 1.212,-0.106 l 2.424,0 c 0.3954,0 0.7994,0.035 1.2119,0.106 -0.4125,-2.921 -0.7908,-5.868 -1.1346,-8.841 -0.3438,-2.974 -0.6876,-5.982 -1.0315,-9.026 -0.3438,-3.044 -0.679,-6.14 -1.0057,-9.29 -0.3266,-3.149 -0.679,-6.413 -1.0572,-9.791 l -0.6705,0 c -0.8596,1.619 -1.7879,3.36 -2.785,5.225 -0.9971,1.865 -2.0028,3.766 -3.0171,5.701 -1.0143,1.935 -2.0114,3.844 -2.9913,5.727 -0.9799,1.882 -1.8996,3.633 -2.7592,5.252 -0.8596,1.618 -1.616,3.052 -2.2693,4.302 -0.6533,1.249 -1.1518,2.208 -1.4956,2.876 -2.6475,-4.961 -5.1832,-9.8 -7.6072,-14.515 -2.424,-4.715 -4.8222,-9.571 -7.1946,-14.568 z"
               style="fill:#005dab;fill-opacity:1;fill-rule:nonzero"
               id="path4151" />
            <path
               inkscape:connector-curvature="0"
               d="m 63.5684,261.369 0,9.078 c 0,2.323 -0.043,4.61 -0.129,6.862 -0.0859,2.252 -0.1805,4.469 -0.2836,6.651 0.7908,-0.071 1.6332,-0.106 2.5271,-0.106 0.894,0 1.7363,0.035 2.5272,0.106 -0.1032,-2.182 -0.1977,-4.399 -0.2837,-6.651 -0.086,-2.252 -0.1289,-4.539 -0.1289,-6.862 l 0,-9.078 c 0,-2.323 0.0429,-4.601 0.1289,-6.836 0.086,-2.234 0.1805,-4.512 0.2837,-6.835 -0.447,0.071 -0.8768,0.132 -1.2894,0.185 -0.4126,0.053 -0.8252,0.079 -1.2378,0.079 -0.4126,0 -0.8252,-0.026 -1.2378,-0.079 -0.4126,-0.053 -0.8423,-0.114 -1.2893,-0.185 0.1031,2.323 0.1977,4.601 0.2836,6.835 0.086,2.235 0.129,4.513 0.129,6.836 z"
               style="fill:#005dab;fill-opacity:1;fill-rule:nonzero"
               id="path4153" />
            <path
               inkscape:connector-curvature="0"
               d="m 103.693,261.369 0,1.847 c -1.857,0.035 -3.653,0.071 -5.3894,0.106 -1.7363,0.035 -3.5328,0.053 -5.3895,0.053 -1.8567,0 -3.6532,-0.018 -5.3895,-0.053 -1.7363,-0.035 -3.5328,-0.071 -5.3895,-0.106 l 0,-1.847 c 0,-2.323 0.043,-4.601 0.1289,-6.836 0.086,-2.234 0.1805,-4.512 0.2837,-6.835 -0.447,0.071 -0.8768,0.132 -1.2894,0.185 -0.4126,0.053 -0.8252,0.079 -1.2378,0.079 -0.4126,0 -0.8251,-0.026 -1.2377,-0.079 -0.4126,-0.053 -0.8424,-0.114 -1.2894,-0.185 0.1032,2.323 0.1977,4.601 0.2837,6.835 0.0859,2.235 0.1289,4.513 0.1289,6.836 l 0,9.078 c 0,2.323 -0.043,4.61 -0.1289,6.862 -0.086,2.252 -0.1805,4.469 -0.2837,6.651 0.7908,-0.071 1.6332,-0.106 2.5271,-0.106 0.894,0 1.7364,0.035 2.5272,0.106 -0.1032,-2.182 -0.1977,-4.399 -0.2837,-6.651 -0.0859,-2.252 -0.1289,-4.539 -0.1289,-6.862 l 0,-4.75 c 1.8567,-0.035 3.6532,-0.062 5.3895,-0.079 1.7363,-0.018 3.5328,-0.027 5.3895,-0.027 1.8567,0 3.6532,0.009 5.3895,0.027 1.7364,0.017 3.5324,0.044 5.3894,0.079 l 0,4.75 c 0,2.323 -0.043,4.61 -0.129,6.862 -0.086,2.252 -0.18,4.469 -0.284,6.651 0.791,-0.071 1.634,-0.106 2.528,-0.106 0.894,0 1.736,0.035 2.527,0.106 -0.103,-2.182 -0.198,-4.399 -0.284,-6.651 -0.086,-2.252 -0.129,-4.539 -0.129,-6.862 l 0,-9.078 c 0,-2.323 0.043,-4.601 0.129,-6.836 0.086,-2.234 0.181,-4.512 0.284,-6.835 -0.447,0.071 -0.877,0.132 -1.29,0.185 -0.412,0.053 -0.825,0.079 -1.237,0.079 -0.413,0 -0.826,-0.026 -1.238,-0.079 -0.413,-0.053 -0.843,-0.114 -1.29,-0.185 0.104,2.323 0.198,4.601 0.284,6.835 0.086,2.235 0.129,4.513 0.129,6.836 z"
               style="fill:#005dab;fill-opacity:1;fill-rule:nonzero"
               id="path4155" />
            <path
               inkscape:connector-curvature="0"
               d="m 118.031,261.369 0,9.078 c 0,2.323 -0.043,4.61 -0.129,6.862 -0.086,2.252 -0.181,4.469 -0.284,6.651 0.791,-0.071 1.633,-0.106 2.527,-0.106 0.894,0 1.737,0.035 2.527,0.106 -0.103,-2.182 -0.197,-4.399 -0.283,-6.651 -0.086,-2.252 -0.129,-4.539 -0.129,-6.862 l 0,-9.078 c 0,-2.323 0.043,-4.601 0.129,-6.836 0.086,-2.234 0.18,-4.512 0.283,-6.835 -0.447,0.071 -0.876,0.132 -1.289,0.185 -0.413,0.053 -0.825,0.079 -1.238,0.079 -0.412,0 -0.825,-0.026 -1.238,-0.079 -0.412,-0.053 -0.842,-0.114 -1.289,-0.185 0.103,2.323 0.198,4.601 0.284,6.835 0.086,2.235 0.129,4.513 0.129,6.836 z"
               style="fill:#005dab;fill-opacity:1;fill-rule:nonzero"
               id="path4157" />
            <path
               inkscape:connector-curvature="0"
               d="m 161.405,284.646 0.722,0 c 0,-0.387 0,-0.968 0,-1.742 0,-0.844 -0.009,-1.838 -0.026,-2.982 -0.017,-1.144 -0.035,-2.375 -0.052,-3.695 -0.017,-1.319 -0.034,-2.63 -0.051,-3.932 -0.017,-1.302 -0.026,-2.551 -0.026,-3.748 0,-1.231 0,-2.287 0,-3.167 0,-1.02 0.034,-2.375 0.103,-4.064 0.069,-1.689 0.146,-3.413 0.232,-5.173 0.086,-1.759 0.172,-3.413 0.258,-4.961 0.086,-1.548 0.163,-2.71 0.232,-3.484 -0.688,0.176 -1.238,0.264 -1.65,0.264 -0.482,0 -1.066,-0.088 -1.754,-0.264 0.172,3.097 0.284,6.396 0.335,9.897 0.052,3.501 0.078,7.099 0.078,10.794 l 0,7.178 c -1.582,-1.618 -3.43,-3.58 -5.544,-5.885 -2.115,-2.305 -4.35,-4.75 -6.705,-7.337 -2.355,-2.586 -4.728,-5.208 -7.117,-7.864 -2.39,-2.657 -4.633,-5.147 -6.731,-7.469 l -0.825,0 c 0.069,1.196 0.112,3.009 0.129,5.437 0.017,2.428 0.026,5.331 0.026,8.709 0,1.161 -0.017,2.481 -0.052,3.958 -0.034,1.478 -0.077,2.991 -0.129,4.54 -0.051,1.548 -0.12,3.096 -0.206,4.645 -0.086,1.548 -0.163,2.982 -0.232,4.301 -0.069,1.32 -0.146,2.455 -0.232,3.405 -0.086,0.95 -0.163,1.601 -0.232,1.953 0.584,-0.071 1.22,-0.106 1.908,-0.106 0.653,0 1.255,0.035 1.805,0.106 -0.034,-0.282 -0.069,-0.818 -0.103,-1.61 -0.034,-0.792 -0.069,-1.715 -0.103,-2.771 -0.035,-1.056 -0.069,-2.199 -0.103,-3.431 -0.035,-1.232 -0.061,-2.446 -0.078,-3.642 -0.017,-1.196 -0.034,-2.34 -0.051,-3.431 -0.017,-1.091 -0.026,-2.006 -0.026,-2.745 0,-2.85 0.017,-5.102 0.051,-6.756 0.035,-1.654 0.069,-2.973 0.104,-3.958 4.469,4.856 8.939,9.738 13.409,14.647 4.47,4.909 8.682,9.703 12.636,14.383 z"
               style="fill:#005dab;fill-opacity:1;fill-rule:nonzero"
               id="path4159" />
            <path
               inkscape:connector-curvature="0"
               d="m 186.831,261.369 0,9.078 c 0,2.323 -0.043,4.61 -0.129,6.862 -0.086,2.252 -0.181,4.469 -0.284,6.651 1.65,-0.071 3.241,-0.106 4.771,-0.106 l 9.515,0 c 1.582,0 3.163,0.035 4.745,0.106 -0.172,-0.563 -0.258,-1.038 -0.258,-1.425 0,-0.423 0.086,-0.95 0.258,-1.584 -2.579,0.352 -4.986,0.554 -7.22,0.607 -2.235,0.053 -4.573,0.079 -7.015,0.079 -0.034,-2.568 -0.068,-5.48 -0.103,-8.735 -0.034,-3.255 -0.051,-7.099 -0.051,-11.533 0,-2.323 0.043,-4.601 0.129,-6.836 0.086,-2.234 0.18,-4.512 0.283,-6.835 -0.447,0.071 -0.876,0.132 -1.289,0.185 -0.413,0.053 -0.825,0.079 -1.238,0.079 -0.412,0 -0.825,-0.026 -1.238,-0.079 -0.412,-0.053 -0.842,-0.114 -1.289,-0.185 0.103,2.323 0.198,4.601 0.284,6.835 0.086,2.235 0.129,4.513 0.129,6.836 z"
               style="fill:#005dab;fill-opacity:1;fill-rule:nonzero"
               id="path4161" />
            <path
               inkscape:connector-curvature="0"
               d="m 218.239,267.544 c 0.894,0 1.823,0.018 2.785,0.053 0.963,0.035 1.891,0.053 2.785,0.053 0.963,0 1.926,-0.009 2.889,-0.026 0.962,-0.018 1.925,-0.044 2.888,-0.08 l -5.725,-13.406 -5.622,13.406 z m 22.848,16.416 c -0.482,-0.071 -0.937,-0.106 -1.367,-0.106 l -2.733,0 c -0.43,0 -0.886,0.035 -1.367,0.106 -0.241,-0.81 -0.567,-1.786 -0.98,-2.93 -0.413,-1.143 -0.868,-2.34 -1.367,-3.589 -0.498,-1.249 -1.005,-2.516 -1.521,-3.8 -0.516,-1.285 -0.997,-2.507 -1.444,-3.669 -1.101,-0.035 -2.218,-0.061 -3.353,-0.079 -1.134,-0.017 -2.269,-0.026 -3.404,-0.026 -1.065,0 -2.114,0.009 -3.146,0.026 -1.031,0.018 -2.08,0.044 -3.146,0.079 -1.1,2.745 -2.097,5.358 -2.991,7.839 -0.894,2.48 -1.564,4.53 -2.011,6.149 -0.585,-0.071 -1.221,-0.106 -1.908,-0.106 -0.688,0 -1.324,0.035 -1.909,0.106 2.785,-6.158 5.502,-12.281 8.149,-18.369 2.647,-6.087 5.312,-12.28 7.994,-18.579 l 0.98,0 c 0.825,2.041 1.719,4.249 2.682,6.624 0.962,2.375 1.942,4.777 2.939,7.205 0.998,2.428 1.995,4.838 2.992,7.231 0.997,2.393 1.934,4.619 2.811,6.677 0.876,2.059 1.667,3.897 2.372,5.516 0.705,1.619 1.281,2.85 1.728,3.695 z"
               style="fill:#005dab;fill-opacity:1;fill-rule:nonzero"
               id="path4163" />
            <path
               inkscape:connector-curvature="0"
               d="m 276.054,284.646 0.722,0 c 0,-0.387 0,-0.968 0,-1.742 0,-0.844 -0.009,-1.838 -0.026,-2.982 -0.017,-1.144 -0.034,-2.375 -0.051,-3.695 -0.018,-1.319 -0.035,-2.63 -0.052,-3.932 -0.017,-1.302 -0.026,-2.551 -0.026,-3.748 0,-1.231 0,-2.287 0,-3.167 0,-1.02 0.035,-2.375 0.103,-4.064 0.069,-1.689 0.147,-3.413 0.233,-5.173 0.086,-1.759 0.171,-3.413 0.257,-4.961 0.086,-1.548 0.164,-2.71 0.233,-3.484 -0.688,0.176 -1.238,0.264 -1.651,0.264 -0.481,0 -1.066,-0.088 -1.753,-0.264 0.172,3.097 0.283,6.396 0.335,9.897 0.051,3.501 0.077,7.099 0.077,10.794 l 0,7.178 c -1.581,-1.618 -3.429,-3.58 -5.544,-5.885 -2.115,-2.305 -4.349,-4.75 -6.705,-7.337 -2.355,-2.586 -4.727,-5.208 -7.117,-7.864 -2.389,-2.657 -4.633,-5.147 -6.73,-7.469 l -0.826,0 c 0.069,1.196 0.112,3.009 0.129,5.437 0.018,2.428 0.026,5.331 0.026,8.709 0,1.161 -0.017,2.481 -0.051,3.958 -0.035,1.478 -0.078,2.991 -0.129,4.54 -0.052,1.548 -0.121,3.096 -0.207,4.645 -0.086,1.548 -0.163,2.982 -0.232,4.301 -0.068,1.32 -0.146,2.455 -0.232,3.405 -0.086,0.95 -0.163,1.601 -0.232,1.953 0.585,-0.071 1.221,-0.106 1.908,-0.106 0.654,0 1.255,0.035 1.805,0.106 -0.034,-0.282 -0.068,-0.818 -0.103,-1.61 -0.034,-0.792 -0.068,-1.715 -0.103,-2.771 -0.034,-1.056 -0.069,-2.199 -0.103,-3.431 -0.034,-1.232 -0.06,-2.446 -0.077,-3.642 -0.018,-1.196 -0.035,-2.34 -0.052,-3.431 -0.017,-1.091 -0.026,-2.006 -0.026,-2.745 0,-2.85 0.018,-5.102 0.052,-6.756 0.034,-1.654 0.069,-2.973 0.103,-3.958 4.47,4.856 8.94,9.738 13.409,14.647 4.47,4.909 8.682,9.703 12.636,14.383 z"
               style="fill:#005dab;fill-opacity:1;fill-rule:nonzero"
               id="path4165" />
            <path
               inkscape:connector-curvature="0"
               d="m 286.73,283.96 c 0.791,-0.071 1.633,-0.106 2.527,-0.106 0.894,0 1.736,0.035 2.527,0.106 -0.103,-2.182 -0.198,-4.399 -0.284,-6.651 -0.085,-2.252 -0.128,-4.539 -0.128,-6.862 l 0,-4.592 c 0,-0.211 0.086,-0.316 0.257,-0.316 0.138,0 0.344,0.14 0.619,0.422 0.55,0.563 1.401,1.539 2.553,2.929 1.152,1.39 2.441,2.956 3.868,4.698 1.427,1.742 2.888,3.545 4.384,5.41 1.496,1.865 2.862,3.519 4.1,4.962 0.482,-0.071 0.954,-0.106 1.419,-0.106 l 2.965,0 c 0.516,0 1.032,0.035 1.547,0.106 -2.922,-3.343 -5.802,-6.677 -8.638,-10.002 -2.837,-3.326 -5.648,-6.59 -8.433,-9.792 0.929,-1.091 2.089,-2.366 3.481,-3.826 1.393,-1.461 2.854,-2.947 4.384,-4.461 1.53,-1.513 3.052,-2.991 4.565,-4.433 1.512,-1.443 2.871,-2.692 4.074,-3.748 -0.413,0.071 -0.825,0.132 -1.238,0.185 -0.412,0.053 -0.825,0.079 -1.238,0.079 -0.343,0 -0.687,-0.026 -1.031,-0.079 -0.344,-0.053 -0.705,-0.114 -1.083,-0.185 -1.204,1.408 -2.459,2.859 -3.765,4.355 -1.307,1.495 -2.63,2.964 -3.971,4.407 -1.341,1.443 -2.674,2.833 -3.997,4.17 -1.324,1.337 -2.588,2.533 -3.791,3.589 -0.344,0.317 -0.584,0.475 -0.722,0.475 -0.206,0 -0.309,-0.141 -0.309,-0.422 l 0,-2.903 c 0,-2.323 0.043,-4.601 0.128,-6.836 0.086,-2.234 0.181,-4.512 0.284,-6.835 -0.447,0.071 -0.877,0.132 -1.289,0.185 -0.413,0.053 -0.825,0.079 -1.238,0.079 -0.413,0 -0.825,-0.026 -1.238,-0.079 -0.412,-0.053 -0.842,-0.114 -1.289,-0.185 0.103,2.323 0.198,4.601 0.284,6.835 0.085,2.235 0.128,4.513 0.128,6.836 l 0,9.078 c 0,2.323 -0.043,4.61 -0.128,6.862 -0.086,2.252 -0.181,4.469 -0.284,6.651 z"
               style="fill:#005dab;fill-opacity:1;fill-rule:nonzero"
               id="path4167" />
            <path
               inkscape:connector-curvature="0"
               d="m 324.276,267.544 c 0.894,0 1.822,0.018 2.785,0.053 0.963,0.035 1.891,0.053 2.785,0.053 0.963,0 1.925,-0.009 2.888,-0.026 0.963,-0.018 1.925,-0.044 2.888,-0.08 l -5.725,-13.406 -5.621,13.406 z m 22.847,16.416 c -0.481,-0.071 -0.937,-0.106 -1.366,-0.106 l -2.734,0 c -0.43,0 -0.885,0.035 -1.367,0.106 -0.24,-0.81 -0.567,-1.786 -0.98,-2.93 -0.412,-1.143 -0.868,-2.34 -1.366,-3.589 -0.499,-1.249 -1.006,-2.516 -1.522,-3.8 -0.515,-1.285 -0.997,-2.507 -1.444,-3.669 -1.1,-0.035 -2.217,-0.061 -3.352,-0.079 -1.135,-0.017 -2.269,-0.026 -3.404,-0.026 -1.066,0 -2.115,0.009 -3.146,0.026 -1.031,0.018 -2.08,0.044 -3.146,0.079 -1.1,2.745 -2.097,5.358 -2.991,7.839 -0.894,2.48 -1.565,4.53 -2.012,6.149 -0.584,-0.071 -1.22,-0.106 -1.908,-0.106 -0.688,0 -1.324,0.035 -1.908,0.106 2.785,-6.158 5.501,-12.281 8.149,-18.369 2.647,-6.087 5.312,-12.28 7.994,-18.579 l 0.979,0 c 0.826,2.041 1.72,4.249 2.682,6.624 0.963,2.375 1.943,4.777 2.94,7.205 0.997,2.428 1.994,4.838 2.991,7.231 0.997,2.393 1.934,4.619 2.811,6.677 0.877,2.059 1.668,3.897 2.373,5.516 0.704,1.619 1.28,2.85 1.727,3.695 z"
               style="fill:#005dab;fill-opacity:1;fill-rule:nonzero"
               id="path4169" />
          </g>
          <g
             transform="matrix(0.77500309,0,0,0.77500309,-37.824845,-111.25142)"
             style="fill:#000000;fill-opacity:1"
             id="g4367">
            <path
               inkscape:connector-curvature="0"
               d="m 206.321,309.187 c 0,1.944 -0.012,3.804 -0.035,5.58 -0.023,1.776 -0.105,3.288 -0.245,4.536 0.536,-0.048 1.107,-0.072 1.713,-0.072 0.606,0 1.176,0.024 1.712,0.072 -0.046,-0.504 -0.087,-1.17 -0.122,-1.998 -0.035,-0.828 -0.064,-1.728 -0.087,-2.7 -0.024,-0.972 -0.041,-1.962 -0.053,-2.97 -0.012,-1.008 -0.017,-1.956 -0.017,-2.844 0.372,-0.744 0.815,-1.578 1.328,-2.502 0.512,-0.924 1.107,-1.962 1.782,-3.114 0.676,-1.152 1.456,-2.436 2.342,-3.852 0.885,-1.416 1.887,-3 3.006,-4.752 -0.583,0.12 -1.037,0.18 -1.363,0.18 -0.327,0 -0.781,-0.06 -1.364,-0.18 -0.466,1.032 -0.966,2.094 -1.502,3.186 -0.536,1.092 -1.095,2.178 -1.678,3.258 -0.582,1.08 -1.165,2.136 -1.747,3.168 -0.583,1.032 -1.142,1.98 -1.678,2.844 -1.212,-2.184 -2.359,-4.284 -3.443,-6.3 -1.083,-2.016 -2.149,-4.068 -3.198,-6.156 -0.326,0.048 -0.646,0.09 -0.961,0.126 -0.314,0.036 -0.635,0.054 -0.961,0.054 -0.326,0 -0.646,-0.018 -0.961,-0.054 -0.315,-0.036 -0.635,-0.078 -0.961,-0.126 0.233,0.384 0.571,0.954 1.013,1.71 0.443,0.756 0.938,1.608 1.486,2.556 0.547,0.948 1.124,1.944 1.73,2.988 0.606,1.044 1.182,2.04 1.73,2.988 0.547,0.948 1.048,1.812 1.503,2.592 0.454,0.78 0.798,1.374 1.031,1.782 z"
               style="fill:#000000;fill-opacity:1;fill-rule:nonzero"
               id="path4171" />
            <path
               inkscape:connector-curvature="0"
               d="m 222.712,310.807 c 0,-1.008 0.088,-1.98 0.262,-2.916 0.175,-0.936 0.472,-1.77 0.892,-2.502 0.419,-0.732 0.978,-1.314 1.677,-1.746 0.699,-0.432 1.561,-0.648 2.587,-0.648 1.025,0 1.887,0.216 2.586,0.648 0.699,0.432 1.258,1.014 1.678,1.746 0.419,0.732 0.716,1.566 0.891,2.502 0.175,0.936 0.262,1.908 0.262,2.916 0,1.008 -0.087,1.98 -0.262,2.916 -0.175,0.936 -0.472,1.77 -0.891,2.502 -0.42,0.732 -0.979,1.314 -1.678,1.746 -0.699,0.432 -1.561,0.648 -2.586,0.648 -1.026,0 -1.888,-0.216 -2.587,-0.648 -0.699,-0.432 -1.258,-1.014 -1.677,-1.746 -0.42,-0.732 -0.717,-1.566 -0.892,-2.502 -0.174,-0.936 -0.262,-1.908 -0.262,-2.916 z m -3.075,0 c 0,1.632 0.25,3.018 0.751,4.158 0.501,1.14 1.159,2.064 1.975,2.772 0.815,0.708 1.73,1.206 2.743,1.494 1.014,0.288 2.022,0.432 3.024,0.432 1.025,0 2.038,-0.144 3.04,-0.432 1.002,-0.288 1.911,-0.786 2.726,-1.494 0.816,-0.708 1.474,-1.632 1.975,-2.772 0.501,-1.14 0.752,-2.526 0.752,-4.158 0,-1.632 -0.251,-3.018 -0.752,-4.158 -0.501,-1.14 -1.159,-2.064 -1.975,-2.772 -0.815,-0.708 -1.724,-1.224 -2.726,-1.548 -1.002,-0.324 -2.015,-0.486 -3.04,-0.486 -1.002,0 -2.01,0.162 -3.024,0.486 -1.013,0.324 -1.928,0.84 -2.743,1.548 -0.816,0.708 -1.474,1.632 -1.975,2.772 -0.501,1.14 -0.751,2.526 -0.751,4.158 z"
               style="fill:#000000;fill-opacity:1;fill-rule:nonzero"
               id="path4173" />
            <path
               inkscape:connector-curvature="0"
               d="m 240.502,313.867 c 0,1.872 0.518,3.306 1.555,4.302 1.037,0.996 2.464,1.494 4.282,1.494 1.118,0 2.155,-0.27 3.11,-0.81 0.956,-0.54 1.736,-1.386 2.342,-2.538 l 0.07,0 0,1.548 c 0,0.264 -0.006,0.516 -0.018,0.756 -0.011,0.24 -0.029,0.468 -0.052,0.684 0.466,-0.048 0.92,-0.072 1.363,-0.072 0.443,0 0.897,0.024 1.363,0.072 -0.047,-0.96 -0.082,-1.956 -0.105,-2.988 -0.023,-1.032 -0.035,-2.088 -0.035,-3.168 0,-1.944 0.012,-3.786 0.035,-5.526 0.023,-1.74 0.093,-3.546 0.21,-5.418 -0.233,0.048 -0.466,0.09 -0.699,0.126 -0.233,0.036 -0.478,0.054 -0.734,0.054 -0.256,0 -0.501,-0.018 -0.734,-0.054 -0.233,-0.036 -0.478,-0.078 -0.734,-0.126 0.023,0.432 0.041,0.888 0.052,1.368 0.012,0.48 0.018,0.984 0.018,1.512 l 0,3.024 c 0,1.416 -0.006,2.532 -0.018,3.348 -0.011,0.816 -0.046,1.464 -0.104,1.944 -0.059,0.48 -0.134,0.864 -0.228,1.152 -0.093,0.288 -0.221,0.636 -0.384,1.044 -0.303,0.648 -0.781,1.194 -1.433,1.638 -0.652,0.444 -1.468,0.666 -2.447,0.666 -0.675,0 -1.264,-0.126 -1.765,-0.378 -0.5,-0.252 -0.914,-0.57 -1.24,-0.954 -0.303,-0.336 -0.559,-0.834 -0.769,-1.494 -0.21,-0.66 -0.315,-1.614 -0.315,-2.862 0,-1.8 0.029,-3.558 0.088,-5.274 0.058,-1.716 0.145,-3.294 0.262,-4.734 -0.583,0.12 -1.06,0.18 -1.433,0.18 -0.396,0 -0.886,-0.06 -1.468,-0.18 0.023,1.008 0.041,2.004 0.052,2.988 0.012,0.984 0.018,1.896 0.018,2.736 0,0.888 -0.018,1.782 -0.053,2.682 -0.035,0.9 -0.052,1.986 -0.052,3.258 z"
               style="fill:#000000;fill-opacity:1;fill-rule:nonzero"
               id="path4175" />
            <path
               inkscape:connector-curvature="0"
               d="m 267.938,305.155 0.244,-0.18 c 0,-0.48 0.012,-1.014 0.035,-1.602 0.024,-0.588 0.094,-1.026 0.21,-1.314 -0.233,-0.096 -0.425,-0.156 -0.577,-0.18 -0.151,-0.024 -0.332,-0.036 -0.541,-0.036 -1.701,0 -3.239,1.296 -4.614,3.888 l -0.07,-0.036 c 0,-0.456 0.006,-0.936 0.018,-1.44 0.012,-0.504 0.064,-1.188 0.157,-2.052 -0.256,0.048 -0.501,0.09 -0.734,0.126 -0.233,0.036 -0.454,0.054 -0.664,0.054 -0.256,0 -0.501,-0.018 -0.734,-0.054 -0.233,-0.036 -0.477,-0.078 -0.734,-0.126 0.07,1.584 0.111,2.988 0.123,4.212 0.011,1.224 0.017,2.304 0.017,3.24 l 0,1.152 c 0,2.04 -0.006,3.762 -0.017,5.166 -0.012,1.404 -0.053,2.514 -0.123,3.33 0.466,-0.048 0.956,-0.072 1.468,-0.072 0.466,0 0.932,0.024 1.398,0.072 -0.07,-0.528 -0.111,-1.218 -0.122,-2.07 -0.012,-0.852 -0.018,-2.082 -0.018,-3.69 l 0,-3.96 c 0,-0.696 0.082,-1.35 0.245,-1.962 0.163,-0.612 0.396,-1.14 0.699,-1.584 0.303,-0.444 0.676,-0.798 1.118,-1.062 0.443,-0.264 0.944,-0.396 1.503,-0.396 0.35,0 0.693,0.06 1.031,0.18 0.338,0.12 0.565,0.252 0.682,0.396 z"
               style="fill:#000000;fill-opacity:1;fill-rule:nonzero"
               id="path4177" />
            <path
               inkscape:connector-curvature="0"
               d="m 271.398,315.955 -0.42,0 c 0,0.36 -0.075,0.81 -0.227,1.35 -0.151,0.54 -0.297,0.966 -0.437,1.278 0.49,0.288 1.096,0.54 1.818,0.756 0.722,0.216 1.619,0.324 2.691,0.324 0.979,0 1.852,-0.15 2.621,-0.45 0.769,-0.3 1.427,-0.72 1.975,-1.26 0.547,-0.54 0.967,-1.146 1.258,-1.818 0.291,-0.672 0.437,-1.356 0.437,-2.052 0,-1.008 -0.204,-1.8 -0.612,-2.376 -0.407,-0.576 -0.914,-1.026 -1.52,-1.35 -0.606,-0.324 -1.27,-0.576 -1.992,-0.756 -0.722,-0.18 -1.386,-0.39 -1.992,-0.63 -0.606,-0.24 -1.113,-0.57 -1.521,-0.99 -0.407,-0.42 -0.611,-1.014 -0.611,-1.782 0,-0.528 0.093,-0.984 0.279,-1.368 0.187,-0.384 0.42,-0.696 0.699,-0.936 0.28,-0.24 0.595,-0.42 0.944,-0.54 0.35,-0.12 0.699,-0.18 1.049,-0.18 0.792,0 1.456,0.228 1.992,0.684 0.536,0.456 0.897,0.972 1.083,1.548 l 0.42,0 c 0.046,-0.288 0.151,-0.696 0.314,-1.224 0.163,-0.528 0.338,-0.972 0.524,-1.332 -0.536,-0.192 -1.101,-0.408 -1.695,-0.648 -0.594,-0.24 -1.322,-0.36 -2.184,-0.36 -0.932,0 -1.759,0.138 -2.482,0.414 -0.722,0.276 -1.328,0.654 -1.817,1.134 -0.489,0.48 -0.862,1.05 -1.118,1.71 -0.257,0.66 -0.385,1.386 -0.385,2.178 0,1.008 0.204,1.8 0.612,2.376 0.408,0.576 0.914,1.038 1.52,1.386 0.606,0.348 1.27,0.618 1.992,0.81 0.723,0.192 1.387,0.414 1.992,0.666 0.606,0.252 1.113,0.576 1.521,0.972 0.408,0.396 0.611,0.966 0.611,1.71 0,0.528 -0.093,0.996 -0.279,1.404 -0.187,0.408 -0.437,0.744 -0.752,1.008 -0.314,0.264 -0.675,0.468 -1.083,0.612 -0.408,0.144 -0.833,0.216 -1.276,0.216 -0.489,0 -0.949,-0.084 -1.38,-0.252 -0.431,-0.168 -0.816,-0.378 -1.154,-0.63 -0.337,-0.252 -0.629,-0.522 -0.873,-0.81 -0.245,-0.288 -0.426,-0.552 -0.542,-0.792 z"
               style="fill:#000000;fill-opacity:1;fill-rule:nonzero"
               id="path4179" />
            <path
               inkscape:connector-curvature="0"
               d="m 297.89,297.379 -2.901,1.26 c 0.047,0.768 0.076,1.512 0.088,2.232 0.011,0.72 0.029,1.32 0.052,1.8 -0.489,0 -1.258,-0.036 -2.307,-0.108 0.024,0.12 0.041,0.24 0.053,0.36 0.011,0.12 0.017,0.24 0.017,0.36 0,0.144 -0.006,0.282 -0.017,0.414 -0.012,0.132 -0.029,0.27 -0.053,0.414 0.233,-0.024 0.455,-0.042 0.664,-0.054 0.21,-0.012 0.408,-0.018 0.595,-0.018 l 1.118,0 c 0,1.344 -0.012,2.562 -0.035,3.654 -0.023,1.092 -0.052,2.088 -0.087,2.988 -0.035,0.9 -0.064,1.728 -0.088,2.484 -0.023,0.756 -0.035,1.458 -0.035,2.106 0,1.44 0.35,2.532 1.049,3.276 0.699,0.744 1.782,1.116 3.25,1.116 0.443,0 0.903,-0.054 1.381,-0.162 0.477,-0.108 0.914,-0.198 1.31,-0.27 l 0,-0.864 c -0.233,0.072 -0.506,0.132 -0.821,0.18 -0.315,0.048 -0.565,0.072 -0.751,0.072 -0.699,0 -1.235,-0.156 -1.608,-0.468 -0.373,-0.312 -0.653,-0.726 -0.839,-1.242 -0.186,-0.516 -0.297,-1.098 -0.332,-1.746 -0.035,-0.648 -0.052,-1.308 -0.052,-1.98 0,-0.792 0.005,-1.692 0.017,-2.7 0.012,-1.008 0.029,-1.974 0.052,-2.898 0.024,-0.924 0.053,-1.722 0.088,-2.394 0.035,-0.672 0.064,-1.056 0.087,-1.152 l 1.713,0 c 0.373,0 0.722,0.006 1.048,0.018 0.326,0.012 0.641,0.03 0.944,0.054 -0.023,-0.072 -0.035,-0.192 -0.035,-0.36 l 0,-0.396 0,-0.36 c 0,-0.192 0.012,-0.324 0.035,-0.396 -0.816,0.048 -1.573,0.078 -2.272,0.09 -0.699,0.012 -1.176,0.018 -1.433,0.018 0.047,-0.888 0.088,-1.77 0.123,-2.646 0.034,-0.876 0.087,-1.77 0.157,-2.682 l -0.175,0 z"
               style="fill:#000000;fill-opacity:1;fill-rule:nonzero"
               id="path4181" />
            <path
               inkscape:connector-curvature="0"
               d="m 306.243,310.807 c 0,-1.008 0.088,-1.98 0.262,-2.916 0.175,-0.936 0.472,-1.77 0.891,-2.502 0.42,-0.732 0.979,-1.314 1.678,-1.746 0.699,-0.432 1.561,-0.648 2.586,-0.648 1.026,0 1.888,0.216 2.587,0.648 0.699,0.432 1.258,1.014 1.677,1.746 0.42,0.732 0.717,1.566 0.892,2.502 0.174,0.936 0.262,1.908 0.262,2.916 0,1.008 -0.088,1.98 -0.262,2.916 -0.175,0.936 -0.472,1.77 -0.892,2.502 -0.419,0.732 -0.978,1.314 -1.677,1.746 -0.699,0.432 -1.561,0.648 -2.587,0.648 -1.025,0 -1.887,-0.216 -2.586,-0.648 -0.699,-0.432 -1.258,-1.014 -1.678,-1.746 -0.419,-0.732 -0.716,-1.566 -0.891,-2.502 -0.174,-0.936 -0.262,-1.908 -0.262,-2.916 z m -3.075,0 c 0,1.632 0.25,3.018 0.751,4.158 0.501,1.14 1.159,2.064 1.975,2.772 0.815,0.708 1.73,1.206 2.743,1.494 1.014,0.288 2.022,0.432 3.023,0.432 1.026,0 2.039,-0.144 3.041,-0.432 1.002,-0.288 1.911,-0.786 2.726,-1.494 0.816,-0.708 1.474,-1.632 1.975,-2.772 0.501,-1.14 0.751,-2.526 0.751,-4.158 0,-1.632 -0.25,-3.018 -0.751,-4.158 -0.501,-1.14 -1.159,-2.064 -1.975,-2.772 -0.815,-0.708 -1.724,-1.224 -2.726,-1.548 -1.002,-0.324 -2.015,-0.486 -3.041,-0.486 -1.001,0 -2.009,0.162 -3.023,0.486 -1.013,0.324 -1.928,0.84 -2.743,1.548 -0.816,0.708 -1.474,1.632 -1.975,2.772 -0.501,1.14 -0.751,2.526 -0.751,4.158 z"
               style="fill:#000000;fill-opacity:1;fill-rule:nonzero"
               id="path4183" />
            <path
               inkscape:connector-curvature="0"
               d="m 341.578,295.147 0.209,-0.108 c 0,-0.48 0.018,-0.96 0.053,-1.44 0.035,-0.48 0.064,-0.96 0.087,-1.44 -0.209,-0.072 -0.442,-0.108 -0.699,-0.108 -0.675,0 -1.334,0.168 -1.974,0.504 -0.641,0.336 -1.171,0.72 -1.591,1.152 -0.466,0.48 -0.885,1.074 -1.258,1.782 -0.373,0.708 -0.693,1.458 -0.961,2.25 -0.268,0.792 -0.472,1.596 -0.612,2.412 -0.139,0.816 -0.209,1.572 -0.209,2.268 -0.396,0 -0.81,-0.006 -1.241,-0.018 -0.431,-0.012 -0.856,-0.018 -1.276,-0.018 0.024,0.12 0.041,0.24 0.053,0.36 0.011,0.12 0.017,0.24 0.017,0.36 0,0.12 -0.006,0.24 -0.017,0.36 -0.012,0.12 -0.029,0.24 -0.053,0.36 0.42,-0.024 0.839,-0.048 1.258,-0.072 0.42,-0.024 0.839,-0.036 1.259,-0.036 0,2.664 -0.012,5.274 -0.035,7.83 -0.024,2.556 -0.117,5.142 -0.28,7.758 0.536,-0.048 1.049,-0.072 1.538,-0.072 0.233,0 0.478,0 0.734,0 0.256,0 0.512,0.024 0.769,0.072 -0.07,-2.616 -0.111,-5.214 -0.123,-7.794 -0.011,-2.58 -0.017,-5.178 -0.017,-7.794 0.606,0 1.206,0.012 1.8,0.036 0.594,0.024 1.194,0.048 1.8,0.072 -0.023,-0.12 -0.041,-0.24 -0.053,-0.36 -0.011,-0.12 -0.017,-0.24 -0.017,-0.36 0,-0.12 0.006,-0.24 0.017,-0.36 0.012,-0.12 0.03,-0.24 0.053,-0.36 -0.606,0 -1.206,0.006 -1.8,0.018 -0.594,0.012 -1.194,0.018 -1.8,0.018 -0.117,-0.744 -0.216,-1.524 -0.297,-2.34 -0.082,-0.816 -0.122,-1.44 -0.122,-1.872 0,-0.48 0.052,-0.936 0.157,-1.368 0.105,-0.432 0.274,-0.81 0.507,-1.134 0.233,-0.324 0.53,-0.588 0.891,-0.792 0.361,-0.204 0.798,-0.306 1.31,-0.306 0.723,0 1.364,0.18 1.923,0.54 z m 3.425,7.38 0,6.516 c 0,0.816 -0.006,1.704 -0.018,2.664 -0.011,0.96 -0.029,1.908 -0.052,2.844 -0.023,0.936 -0.053,1.824 -0.087,2.664 -0.035,0.84 -0.076,1.536 -0.123,2.088 0.536,-0.048 1.06,-0.072 1.573,-0.072 0.513,0 1.037,0.024 1.573,0.072 -0.047,-0.552 -0.088,-1.248 -0.123,-2.088 -0.035,-0.84 -0.064,-1.728 -0.087,-2.664 -0.023,-0.936 -0.041,-1.884 -0.052,-2.844 -0.012,-0.96 -0.018,-1.848 -0.018,-2.664 l 0,-6.516 c 0,-0.816 0.006,-1.704 0.018,-2.664 0.011,-0.96 0.029,-1.908 0.052,-2.844 0.023,-0.936 0.052,-1.83 0.087,-2.682 0.035,-0.852 0.076,-1.578 0.123,-2.178 -0.653,0.12 -1.177,0.18 -1.573,0.18 -0.396,0 -0.92,-0.06 -1.573,-0.18 0.047,0.6 0.088,1.326 0.123,2.178 0.034,0.852 0.064,1.746 0.087,2.682 0.023,0.936 0.041,1.884 0.052,2.844 0.012,0.96 0.018,1.848 0.018,2.664 z"
               style="fill:#000000;fill-opacity:1;fill-rule:nonzero"
               id="path4185" />
            <path
               inkscape:connector-curvature="0"
               d="m 358.284,319.339 c -1.282,3.144 -2.843,6.288 -4.683,9.432 0.466,-0.12 0.862,-0.18 1.188,-0.18 0.326,0 0.722,0.06 1.188,0.18 0.187,-0.6 0.472,-1.41 0.856,-2.43 0.385,-1.02 0.833,-2.16 1.346,-3.42 0.513,-1.26 1.072,-2.592 1.678,-3.996 0.605,-1.404 1.217,-2.82 1.835,-4.248 0.617,-1.428 1.223,-2.82 1.817,-4.176 0.594,-1.356 1.142,-2.592 1.643,-3.708 0.501,-1.116 0.932,-2.076 1.293,-2.88 0.361,-0.804 0.623,-1.374 0.786,-1.71 -0.466,0.12 -0.85,0.18 -1.153,0.18 -0.303,0 -0.688,-0.06 -1.154,-0.18 -0.699,2.304 -1.497,4.656 -2.394,7.056 -0.897,2.4 -1.835,4.656 -2.813,6.768 -0.979,-2.4 -1.911,-4.728 -2.796,-6.984 -0.886,-2.256 -1.689,-4.536 -2.412,-6.84 -0.303,0.048 -0.582,0.09 -0.839,0.126 -0.256,0.036 -0.512,0.054 -0.768,0.054 -0.257,0 -0.513,-0.018 -0.769,-0.054 -0.257,-0.036 -0.536,-0.078 -0.839,-0.126 0.163,0.384 0.408,0.972 0.734,1.764 0.326,0.792 0.705,1.71 1.136,2.754 0.431,1.044 0.891,2.16 1.38,3.348 0.49,1.188 0.967,2.352 1.433,3.492 0.466,1.14 0.903,2.226 1.311,3.258 0.408,1.032 0.74,1.872 0.996,2.52 z"
               style="fill:#000000;fill-opacity:1;fill-rule:nonzero"
               id="path4187" />
          </g>
        </g>
      </g>
      <g
         id="g4336"
         transform="matrix(0.42047545,0,0,0.42047545,228.30709,241.18827)">
        <g
           id="Ebene2"
           style="fill:#005dab;fill-opacity:1">
          <path
             sodipodi:nodetypes="cccsccc"
             id="path4139"
             style="fill:#005dab;fill-opacity:1"
             d="M 15.217209,234.99999 C 186.78321,235.92899 344,235 344,235 L 440,8.999103 c 0,0 -2.641,0.42124 -82,0 C 345.215,8.931243 340.364,12.7613 332,19 292.833,52.222 178.535,153.057 123,198 85.6644,224.368 72.655709,226.62499 15.217209,234.99999 Z"
             inkscape:connector-curvature="0" />
        </g>
        <g
           id="g4310">
          <path
             sodipodi:nodetypes="ccsccsccccsccccscccsccsc"
             inkscape:connector-curvature="0"
             id="path4142"
             d="m 351.5918,98.210938 c -28.92598,14.585942 -39.59288,25.902112 -50.7793,44.879442 -1.91655,-3.55932 -4.11435,-7.09024 -6.90234,-10.56194 -8.70958,-10.84542 -21.54526,-21.40102 -38.21485,-32.15595 -3.2085,-1.961379 -4.69409,-0.547645 -4.82031,2.67852 0.52615,28.91461 8.11699,46.66172 18.68093,58.64066 8.26036,9.36682 18.12622,15.67735 28.81516,15.86838 -5.66014,17.08546 -21.44438,35.74455 -52.72705,57.43994 l 11.15852,2e-5 c 31.44364,-23.06523 42.89029,-37.95182 48.31853,-57.89059 0.7285,-0.10623 1.46016,-0.15451 2.18555,-0.29848 27.1755,-5.39345 52.15467,-35.86801 48.80859,-76.07363 -0.35932,-3.209766 -2.05678,-3.660917 -4.52343,-2.526372 z m -1.51172,7.869752 c 0.79399,34.75331 -21.42691,59.95533 -43.73828,64.54017 0.17765,-1.42525 0.50699,-2.85343 0.54492,-4.27627 0.14804,-5.55296 -0.88418,-11.004 -2.85938,-16.36574 11.22854,-19.87772 19.50697,-29.93532 46.05274,-43.89816 z m -92.66211,3.02772 c 13.71934,9.3053 24.44765,18.39793 31.61719,27.32565 8.06692,10.04518 11.86968,19.76059 11.60351,29.7447 -0.0451,1.6924 -0.3883,3.43015 -0.67969,5.16001 -9.56302,0.31003 -17.90617,-5.16848 -25.49444,-13.77316 -8.49401,-9.63176 -15.71021,-24.02031 -17.04657,-48.4572 z"
             style="color:#000000;font-style:normal;font-variant:normal;font-weight:normal;font-stretch:normal;font-size:medium;line-height:normal;font-family:sans-serif;text-indent:0;text-align:start;text-decoration:none;text-decoration-line:none;text-decoration-style:solid;text-decoration-color:#000000;letter-spacing:normal;word-spacing:normal;text-transform:none;direction:ltr;block-progression:tb;writing-mode:lr-tb;baseline-shift:baseline;text-anchor:start;white-space:normal;clip-rule:evenodd;display:inline;overflow:visible;visibility:visible;opacity:1;isolation:auto;mix-blend-mode:normal;color-interpolation:sRGB;color-interpolation-filters:linearRGB;solid-color:#000000;solid-opacity:1;fill:#ffffff;fill-opacity:1;fill-rule:evenodd;stroke:none;stroke-width:6.25px;stroke-linecap:butt;stroke-linejoin:miter;stroke-miterlimit:1.41420996;stroke-dasharray:none;stroke-dashoffset:0;stroke-opacity:1;color-rendering:auto;image-rendering:auto;shape-rendering:auto;text-rendering:auto;enable-background:accumulate" />
          <path
             sodipodi:nodetypes="csccsccccc"
             inkscape:connector-curvature="0"
             id="path4144"
             d="m 298.83398,85.746094 c -5.92976,5.697014 -9.4608,10.136796 -11.75976,15.955076 -2.29896,5.81828 -3.38439,12.69483 -5.16016,23.80664 l 6.17188,0.98438 c 1.77423,-11.10219 2.88774,-17.65258 4.80078,-22.49414 1.58699,-4.0164 4.13086,-7.286336 8.04687,-11.324222 9.10673,10.035102 11.3321,15.249952 13.97266,33.767582 l 6.1875,-0.88282 c -2.92199,-20.49125 -6.17304,-27.353178 -17.82031,-39.703121 -1.93559,-2.11267 -3.0927,-1.34554 -4.43946,-0.109375 z"
             style="color:#000000;font-style:normal;font-variant:normal;font-weight:normal;font-stretch:normal;font-size:medium;line-height:normal;font-family:sans-serif;text-indent:0;text-align:start;text-decoration:none;text-decoration-line:none;text-decoration-style:solid;text-decoration-color:#000000;letter-spacing:normal;word-spacing:normal;text-transform:none;direction:ltr;block-progression:tb;writing-mode:lr-tb;baseline-shift:baseline;text-anchor:start;white-space:normal;clip-rule:evenodd;display:inline;overflow:visible;visibility:visible;opacity:1;isolation:auto;mix-blend-mode:normal;color-interpolation:sRGB;color-interpolation-filters:linearRGB;solid-color:#000000;solid-opacity:1;fill:#ffffff;fill-opacity:1;fill-rule:evenodd;stroke:none;stroke-width:6.25px;stroke-linecap:butt;stroke-linejoin:miter;stroke-miterlimit:1.41420996;stroke-dasharray:none;stroke-dashoffset:0;stroke-opacity:1;color-rendering:auto;image-rendering:auto;shape-rendering:auto;text-rendering:auto;enable-background:accumulate" />
          <path
             sodipodi:nodetypes="cccccccc"
             inkscape:connector-curvature="0"
             id="path4146"
             d="m 277.875,100.5 c -3.76562,-2.961629 -4.0957,-0.90746 -4.86133,1.58008 l -4,13 5.97266,1.83984 2.69336,-8.7539 8.44531,6.33398 3.75,-5 z"
             style="color:#000000;font-style:normal;font-variant:normal;font-weight:normal;font-stretch:normal;font-size:medium;line-height:normal;font-family:sans-serif;text-indent:0;text-align:start;text-decoration:none;text-decoration-line:none;text-decoration-style:solid;text-decoration-color:#000000;letter-spacing:normal;word-spacing:normal;text-transform:none;direction:ltr;block-progression:tb;writing-mode:lr-tb;baseline-shift:baseline;text-anchor:start;white-space:normal;clip-rule:evenodd;display:inline;overflow:visible;visibility:visible;opacity:1;isolation:auto;mix-blend-mode:normal;color-interpolation:sRGB;color-interpolation-filters:linearRGB;solid-color:#000000;solid-opacity:1;fill:#ffffff;fill-opacity:1;fill-rule:evenodd;stroke:none;stroke-width:6.25px;stroke-linecap:butt;stroke-linejoin:miter;stroke-miterlimit:1.41420996;stroke-dasharray:none;stroke-dashoffset:0;stroke-opacity:1;color-rendering:auto;image-rendering:auto;shape-rendering:auto;text-rendering:auto;enable-background:accumulate" />
          <path
             sodipodi:nodetypes="cccccccc"
             inkscape:connector-curvature="0"
             id="path4148"
             d="m 324.04688,100.56055 -10,8 3.90624,4.8789 6.75782,-5.40625 3.40429,8.16797 5.76954,-2.40234 -5,-12 c -1.40364,-3.297485 -3.18927,-2.476439 -4.83789,-1.23828 z"
             style="color:#000000;font-style:normal;font-variant:normal;font-weight:normal;font-stretch:normal;font-size:medium;line-height:normal;font-family:sans-serif;text-indent:0;text-align:start;text-decoration:none;text-decoration-line:none;text-decoration-style:solid;text-decoration-color:#000000;letter-spacing:normal;word-spacing:normal;text-transform:none;direction:ltr;block-progression:tb;writing-mode:lr-tb;baseline-shift:baseline;text-anchor:start;white-space:normal;clip-rule:evenodd;display:inline;overflow:visible;visibility:visible;opacity:1;isolation:auto;mix-blend-mode:normal;color-interpolation:sRGB;color-interpolation-filters:linearRGB;solid-color:#000000;solid-opacity:1;fill:#ffffff;fill-opacity:1;fill-rule:evenodd;stroke:none;stroke-width:6.25px;stroke-linecap:butt;stroke-linejoin:miter;stroke-miterlimit:1.41420996;stroke-dasharray:none;stroke-dashoffset:0;stroke-opacity:1;color-rendering:auto;image-rendering:auto;shape-rendering:auto;text-rendering:auto;enable-background:accumulate" />
        </g>
      </g>
    </g>
  </g>
</svg>
