<?xml version="1.0" encoding="utf-8"?>
<!-- Generator: Adobe Illustrator 22.1.0, SVG Export Plug-In . SVG Version: 6.00 Build 0)  -->
<svg version="1.1" id="Слой_1" xmlns="http://www.w3.org/2000/svg" xmlns:xlink="http://www.w3.org/1999/xlink" x="0px" y="0px"
	 width="671.8px" height="167.9px" viewBox="0 0 671.8 167.9" style="enable-background:new 0 0 671.8 167.9;" xml:space="preserve"
	>
<style type="text/css">
	.st0{fill:#91298E;}
	.st1{fill:#FACB14;}
</style>
<g>
	<g>
		<path class="st0" d="M411.5,98.5c1.1-6.5,2.2-12.6,3.3-18.7c1.2-6.9,2.4-13.8,3.7-20.7c0.1-0.3,0.6-0.7,0.9-0.8
			c3.6-0.1,7.3,0,10.9-0.1c1.2,0,0.7,0.7,0.6,1.2c-0.8,4.7-1.6,9.4-2.4,14c-2,11.4-4,22.7-5.9,34.1c-0.2,1.2-0.4,2.4-0.7,3.5
			c-0.1,0.3-0.4,0.6-0.6,0.6c-2,0-4.1,0.1-6.1-0.2c-4.9-0.7-7.9-3.9-10.1-8c-4.7-9.1-9.3-18.2-14-27.3c-0.1-0.3-0.3-0.5-0.6-1
			c-0.6,3.6-1.2,7.1-1.8,10.5c-1.4,8.2-2.8,16.4-4.1,24.7c-0.2,1-0.5,1.4-1.6,1.3c-3.4-0.1-6.8-0.1-10.2,0c-0.8,0-1-0.2-0.9-1
			c1.4-7.9,2.8-15.9,4.2-23.8c1.1-6.4,2.2-12.8,3.3-19.2c0.7-4-1.1-6.4-5.2-6.8c-0.3,0-0.6,0-1-0.1c-2.3-0.1-1.6,0-1.4-1.9
			c0-0.3,0.5-0.7,0.7-0.7c4.2,0.2,8.5,0.1,12.7,0.7c3.6,0.5,6.3,2.5,8.1,5.9c5.7,10.8,11.6,21.6,17.4,32.4
			C410.9,97.5,411.1,97.9,411.5,98.5z"/>
		<path class="st0" d="M348.7,98.5c2.3-13.2,4.6-26.2,6.8-39.1c0.2-0.9,0.5-1.2,1.4-1.1c3.4,0.1,6.9,0,10.3,0c0.9,0,1,0.2,0.9,1.1
			c-1.3,7.3-2.6,14.5-3.8,21.8c-1.7,9.8-3.4,19.7-5.1,29.5c-0.1,0.9-0.4,1.2-1.4,1.2c-1.8-0.1-3.6,0.1-5.4-0.2
			c-4.8-0.7-7.9-3.8-10.1-7.9c-4.7-9-9.3-18-13.9-27c-0.2-0.4-0.4-0.8-0.8-1.4c-0.3,1.9-0.6,3.4-0.9,5c-1.7,10.2-3.4,20.3-5.1,30.5
			c-0.1,0.7-0.3,1.1-1.2,1.1c-3.5-0.1-7,0-10.4,0c-0.8,0-1.1,0-0.9-1c1.5-8.1,2.8-16.2,4.2-24.3c1.1-6.1,2.2-12.2,3.2-18.4
			c0.2-1.2,0.3-2.5,0-3.7c-0.7-2.5-2.9-3.1-5.1-3.5c-0.4-0.1-0.8,0-1.2-0.1c-0.5-0.1-1.4-0.2-1.4-0.3c0-0.7,0.2-1.3,0.4-2
			c0-0.1,0.3-0.2,0.5-0.2c4.6,0.1,9.2-0.4,13.7,0.9c3.2,0.9,5.5,2.7,7.1,5.6c5.8,10.9,11.7,21.8,17.6,32.7
			C348.2,97.7,348.3,97.9,348.7,98.5z"/>
		<path class="st0" d="M212.7,87.9c-3.9,0-7.8,0-11.8,0c-0.8,0-1.2,0.1-1.3,1c-1.2,7.1-2.5,14.2-3.7,21.3c-0.2,1-0.4,1.5-1.6,1.4
			c-3.4-0.1-6.8-0.1-10.2,0c-0.8,0-1-0.1-0.8-1c2.4-13.7,4.8-27.4,7.2-41.2c0.3-1.6,0.4-3.3,0.3-4.9c-0.1-2.4-1.3-3.6-3.7-3.8
			c-0.5-0.1-1,0-1.4-0.1s-1.1-0.3-1.2-0.5c-0.2-1.3,0.3-2,1.3-2c4.2,0,8.4,0,12.6,0.2c3.7,0.2,5.5,2,5.2,5.7s-1,7.4-1.5,11.1
			c-0.3,2-0.7,3.9-1.1,5.9c-0.1,0.6-0.1,1,0.8,1c8,0,16.1,0,24.1,0c0.7,0,0.9-0.3,1-1c1.2-7.3,2.5-14.5,3.8-21.8
			c0.1-0.9,0.4-1.2,1.4-1.2c3.5,0.1,7,0,10.4,0c0.7,0,1,0.1,0.8,0.9c-2.3,13.2-4.7,26.4-6.9,39.6c-0.3,2-0.6,4-0.6,5.9
			c0,3,0.9,3.9,3.9,4.4c0.3,0.1,0.6,0.1,1,0.1c1.6,0.1,1.8,0.4,1.2,1.9c-0.1,0.2-0.4,0.5-0.6,0.5c-4.6-0.1-9.3,0-13.9-0.3
			c-2.9-0.2-4.3-1.7-4.3-4.6c0-2.7,0.5-5.5,0.9-8.2c0.5-3.3,1.1-6.5,1.7-9.8c0.2-0.9-0.3-0.9-0.9-0.9
			C220.7,87.9,216.7,87.9,212.7,87.9z"/>
		<path class="st0" d="M653.7,85.7c2.3,4.3,4.5,8.6,6.9,12.8c1.2,2.1,2.5,4.2,4,6.1s3.5,3.2,5.9,3.9c0.4,0.1,1.2-0.1,1,0.8
			c-0.1,0.7,0,1.6-1.1,1.7c-2.7,0.2-5.3,0.5-8,0.4c-5.1-0.2-8.9-3-11.5-7c-2.7-4.1-4.9-8.5-7.3-12.8c-0.8-1.4-1.6-2.9-2.3-4.3
			c-0.3-0.7-0.8-1-1.6-1c-2.8,0-2.8,0-3.3,2.7c-1.2,7-2.4,13.9-3.6,20.9c-0.1,0.6-0.3,0.9-1,0.9c-3.6,0-7.3,0-10.9,0
			c-0.7,0-0.9-0.2-0.7-0.9c2.4-13.8,4.9-27.6,7.2-41.4c0.3-1.6,0.4-3.2,0.3-4.8c-0.1-2.4-1.2-3.5-3.6-3.8c-0.7-0.1-1.4-0.2-2.1-0.2
			c-0.5,0-0.7-0.2-0.6-0.7c0.4-2,0-1.7,2-1.7c8.3,0,16.6,0,24.8,0c5.1,0,10.2,0.4,15.1,2.2c3.1,1.1,5.9,2.7,7.3,5.8
			c2.1,4.4,1.2,8.6-1.5,12.4c-2.6,3.6-6.5,5.4-10.7,6.7C656.9,84.9,655.3,85.2,653.7,85.7z M641.6,81.5
			C641.6,81.5,641.6,81.6,641.6,81.5c1.6,0,3.1-0.1,4.7-0.2c5.8-0.6,10.1-4.1,11.8-9.3c1.7-5.1-1.8-9.8-6.2-10.9
			c-3.3-0.8-6.7-0.6-10,0c-0.3,0-0.6,0.4-0.7,0.7c-0.5,2.5-0.9,5-1.4,7.5c-0.7,3.8-1.3,7.5-2,11.3c-0.1,0.6,0,0.9,0.7,0.8
			C639.6,81.5,640.6,81.5,641.6,81.5z"/>
		<path class="st0" d="M253.4,58.4c2.1,0,4.2-0.1,6.4,0c3.9,0.3,5.7,2.3,5.3,6.3c-0.2,2.3-0.6,4.6-0.9,6.9c-1.2,7.3-2.5,14.6-3.6,22
			c-0.5,3-0.1,6,1,8.8c2.1,5.4,7.7,6.7,11.6,6.4c7.2-0.7,11-5.2,12.6-11.7c1.1-4.5,1.8-9.1,2.6-13.6c1.4-8,2.8-16,4.2-24.1
			c0.1-0.9,0.5-1.1,1.3-1.1c3.4,0,6.9,0,10.3,0c0.9,0,1,0.2,0.9,1.1c-1.8,9.8-3.4,19.7-5.2,29.5c-1.1,6-3.1,11.7-7.5,16.2
			c-3.8,3.9-8.5,5.9-13.7,6.8c-6.3,1.1-12.6,1.2-18.8-0.6c-7.6-2.1-11.7-7.5-11.9-15.4c-0.2-4.6,0.9-9,1.6-13.4
			c0.8-5.2,1.7-10.3,2.6-15.5c0.1-0.7,0.1-1.4,0-2c-0.2-2.8-1.4-3.8-4.2-4.1c-0.4,0-1.4,0.5-1.2-0.7c0.1-0.8-0.2-2,1.4-1.9
			c1.7,0.1,3.4,0,5,0C253.4,58.3,253.4,58.3,253.4,58.4z"/>
		<path class="st0" d="M441.7,58.4c2.2,0,4.4-0.1,6.6,0c3.4,0.2,5.1,2,4.9,5.4c-0.2,3.5-0.8,6.9-1.3,10.3c-1,6.4-2.2,12.7-3.1,19.1
			c-0.4,2.6-0.2,5.2,0.5,7.7c1.8,6.5,7.5,8.2,12.1,7.7c7.3-0.7,11.1-5.2,12.9-12.5c1.2-5.2,2-10.5,2.9-15.8
			c1.3-7.1,2.5-14.2,3.7-21.2c0.1-0.5,0.1-1,0.9-0.9c3.6,0,7.3,0,10.9,0c0.6,0,0.8,0.1,0.7,0.8c-1.9,10.6-3.7,21.1-5.7,31.7
			c-0.8,4.3-2.4,8.4-5.1,11.9c-3.2,4.3-7.4,7-12.5,8.4c-7.3,2-14.6,2.1-21.9,0.2c-7.6-2.1-11.6-7.4-11.9-15.3
			c-0.2-4.2,0.7-8.2,1.4-12.2c0.9-5.5,1.9-11.1,2.8-16.6c0.1-0.7,0.1-1.4,0-2.2c-0.2-2.7-1.3-3.9-4-4.1c-0.5,0-1.3-0.2-1.3-0.2
			c0-0.7,0.1-1.4,0.3-2.1c0-0.1,0.5-0.2,0.8-0.2C438.1,58.3,439.9,58.3,441.7,58.4C441.7,58.3,441.7,58.3,441.7,58.4z"/>
		<path class="st0" d="M607.8,110.6c-2.4,0-4.8,0.1-7.2,0c-3.4-0.2-5-2-4.9-5.4c0.1-2.5,0.5-5.1,0.9-7.6c1.8-10.4,3.6-20.8,5.4-31.2
			c0.5-2.8,1-5.5,1.4-8.3c0.1-0.7,0.4-0.8,1-0.8c3.6,0,7.1,0,10.7,0c0.9,0,0.9,0.3,0.8,1c-0.9,5.3-1.8,10.5-2.8,15.8
			c-1.5,8.8-3.1,17.7-4.6,26.5c-0.2,1.3-0.2,2.7-0.1,4c0.2,2.2,1.3,3.2,3.6,3.5c0.6,0.1,1.2,0,1.8,0.1c0.4,0,1.2-0.3,0.9,0.6
			c-0.2,0.7,0.3,1.9-1,1.9c-2,0-4,0-6,0C607.8,110.7,607.8,110.6,607.8,110.6z"/>
		<path class="st0" d="M534.1,101.6c2.3-3.3,4.6-6.7,7-10c7.7-11,15.5-21.9,23.2-32.9c0.7-1.1,1.5-1.5,2.8-1.5
			c2.6,0.1,2.6,0,3.3,2.5c1.8,5.6,3.6,11.2,5.4,16.8c0.5,1.4,0.4,1.3-1,1.7c-3.2,0.9-6.5,1.7-9.6,2.8c-1.1,0.3-1.5,0.4-1.9-0.8
			c-0.7-2.4-1.6-4.8-2.4-7.4c-0.9,1.2-1.6,2.2-2.4,3.2c-3.4,4.7-6.8,9.4-10.3,14.2c-0.3,0.4-0.5,0.7-0.9,1
			c-4.4,3.5-8.8,7.1-13.1,10.6C534.2,101.7,534.2,101.7,534.1,101.6z"/>
		<path class="st1" d="M591.8,87.7c-2.6-0.3-5.2-0.6-7.8-0.8c-4-0.3-8,0.3-12,1.1c-7.3,1.6-14.3,4.3-20.9,7.8
			c-6.5,3.4-12.7,7.3-18.5,11.9c-2.1,1.7-4.3,3.3-6.5,5c-0.1-0.1-0.2-0.2-0.3-0.3c2.5-2.4,4.8-4.8,7.4-7c5.1-4.3,10.2-8.7,15.6-12.7
			c5.4-4,11.2-7.2,17.4-9.8c4.3-1.8,8.8-2.9,13.5-3.3c0.6-0.1,1.3,0.4,1.8,0.7c3.2,2.2,6.4,4.5,9.6,6.8
			C591.3,87.3,591.5,87.5,591.8,87.7z"/>
		<path class="st0" d="M586.9,111.3c-2.3-0.3-4.7-0.5-7-1.1c-4.9-1.3-8.2-4.4-9.8-9.3c-0.9-2.8-1.8-5.5-2.7-8.3
			c-0.2-0.7-0.1-1,0.6-1.1c3.6-0.7,7.2-1.4,10.8-2.1c0.8-0.2,1.2,0.1,1.4,0.9c1.1,3.7,2.3,7.3,3.5,10.9c1,3,2.7,5.5,5.9,6.7
			c0.4,0.2,0.8,0.2,1.3,0.4c0.5,0.1,1.2-0.1,1,0.9c-0.1,0.8-0.1,1.5-1.2,1.5c-1.3,0-2.5,0.2-3.8,0.3
			C587,111.2,587,111.2,586.9,111.3z"/>
		<path class="st0" d="M533.7,102.4c0.1-0.2,0.1-0.3,0.2-0.5l0,0C533.8,102.1,533.8,102.2,533.7,102.4L533.7,102.4z"/>
		<path class="st0" d="M533.9,101.9c0.1-0.1,0.1-0.2,0.2-0.3c0.1,0.1,0.1,0.1,0.2,0.2C534.2,101.8,534,101.9,533.9,101.9
			L533.9,101.9z"/>
		<path class="st0" d="M533.7,102.4L533.7,102.4L533.7,102.4z"/>
	</g>
	<path class="st0" d="M14.3,117.4c3.7,5,7.4,9.6,12.5,12.8c2.8,1.8,5.7,2.9,9.1,2c1.3-0.4,2.6-1.1,3.8-1.8c0.9-0.5,1.1-1.3,0.6-2.3
		c-0.8-1.5-0.3-2.6,1.3-3.4c1.8-0.8,3-0.5,3.7,1.1c0.8,1.7,0.6,3.3-0.8,4.8c-2.4,2.5-5.5,3.7-8.9,4.4c-1.2,0.3-2.4,0.3-3.8,0.4
		c0.6,0.5,1.2,1,1.8,1.5c5,3.5,10.4,6.3,16.5,7.3c1.7,0.3,3.4,0.2,5.1-0.1c3.2-0.5,6.5-3.7,4.8-8.4c-1.6-4.4-4.4-8-7.8-11.1
		c-2.5-2.3-5.4-4.2-8.7-5.2c-4.9-1.5-9.6-0.6-14.1,1.6c-0.4,0.2-0.8,0.4-1.4,0.7c0.4-3.8,1.4-7.1,3-10.2c4.3-8.6,11.5-12.9,21-13.5
		c8-0.5,15.6,1.4,23,4.2c4.1,1.5,8.1,3.5,12.1,5.2c0.4,0.2,0.7,0.3,1.4,0.6c-0.4-0.9-0.6-1.5-0.9-2.1c-4.9-10.7-11.7-20-21.3-27
		c-8-5.8-16.8-9.2-26.7-10c-5.7-0.5-11.3-0.1-16.8,0.9c-2.4,0.4-4.7,0-6.7-1.5c-1.6-1.2-2.5-2.9-1.8-4.9c0.5-1.4,1.1-2.8,2-3.9
		c1.1-1.4,2.5-1.3,3.7-0.1c3.5,3.3,7.7,5.1,12.3,6.1c0.3,0.1,0.6,0.1,0.8,0.1c2.4,0.1,3.3-1,2.5-3.4c-1.3-3.9-4.2-5.9-8-6.4
		c-2-0.2-4.1,0-6.2,0.3c-2.5,0.4-4.4-0.3-5.1-2.7c-0.4-1.2-0.5-2.7-0.3-4c0.3-2.1,1.6-3,4.1-3.1c3.4-0.1,6.7,0.7,10,1.6
		c7,1.9,13.3,5.3,19.7,8.6c4.3,2.3,8.7,4.6,13,7c2.7,1.5,5.5,2.5,8.7,2.3c2.8-0.2,5.2-2,5.9-4.4c0.8-2.9-0.5-5.7-3.5-6.9
		c-3.9-1.5-7.6-3.3-11-5.7c-5.4-3.7-10.1-8-13.2-13.8c-1.1-2.1-1.9-4.2-1.6-6.6c0.3-2,1.9-3.7,3.9-4c1.8-0.3,3.4,1.1,2.9,2.9
		c-0.9,3.4,0.9,5.3,3.4,6.7c8.8,4.8,24.3,2.9,27.6-12.6c0.8-3.6,0.9-7.3,0.6-11c-0.1-0.9,0.1-2.2,0.7-2.6c0.9-0.6,1.9,0.4,2.5,1.1
		c2.8,3.1,4.1,6.8,4.7,10.8c0.9,7.1-0.9,13.4-6.3,18.4c-3.6,3.3-8,5-12.8,5.4c-3.1,0.2-6.3-0.1-9.4-0.2c-0.2,0-0.4,0-1,0
		c2.9,2.2,5.9,3.5,9.2,4.1c9,1.6,22.4-3.1,26.7-17c1.5-5,2.2-10.1,1-15.3c-0.8-3.2-2.4-5.8-5.3-7.7c-4.5-3-9.6-4.6-14.9-5.3
		c-2.9-0.4-5.9-0.4-8.8-0.5c-0.5,0-0.9,0.1-1.1,0.1c1.6,1.2,3.5,2.3,4.9,3.9c3.7,3.9,4.3,10.1,1.6,14.8c-1.4,2.4-3.5,3.9-6.2,4.2
		c-5.3,0.5-10.1-0.9-14-4.5s-4.1-9-0.6-13.7c0.5-0.7,1.1-1.3,1.8-2.2c-0.5,0.1-0.8,0.2-1.1,0.3c-8.4,3.1-15.6,8-21.8,14.4
		c-0.4,0.4-0.6,1.1-0.6,1.7c0,6.2-6.5,7.6-9.9,5.7c-1.7-0.9-2.2-2.4-1.1-4.1c0.4-0.6,0.9-1.2,1.4-1.6C37.7,9.9,51.3,3.3,66.9,0.9
		c15-2.3,29.4-0.4,43.2,5.6c2.4,1.1,4.5,3,6.7,4.6c0.4,0.3,0.8,0.8,1.1,1.3c1.5,2.1,1.3,4.1-0.7,5.7c-1.2,1-2.5,1.7-3.8,2.5
		c-1.2,0.7-2.6,1.3-3.8,2c-1.3,0.7-1.3,1.3,0,2c1.4,0.7,2.8,1.4,4.3,1.8c2.7,0.8,5-0.2,6.4-2.7c1.3-2.2,1.7-4.7,2.1-7.2
		c0.3-1.8,1-2.2,2.6-1.5c2.5,1.1,4.4,2.8,5.7,5.1c1.1,2.1,0.5,4.2-0.8,6c-1.2,1.6-2.8,1.9-4.7,1.4s-3.7-0.1-5.4,0.5
		c-5,1.7-9.1,4.7-12.6,8.6c-3.2,3.6-4,7.8-2.9,12.4c0.4,1.6,0.8,3.2,1.6,4.6c1.3,2.4,3.3,2.7,5.5,1.1c1.9-1.4,3.1-3.5,4.1-5.5
		c1.1-2.1,1.9-4.4,3.2-6.4c3.6-5.8,9.1-8.7,15.8-8.8c2.8-0.1,5.6,0.4,8.4,0.9c2,0.3,3.8,1.4,4.2,3.6c0.4,2.3-0.7,4.2-2.4,5.7
		c-1,0.8-2.1,1.2-3.4,0.6c-1.3-0.6-1.8-1.7-1.7-3.1c0-0.4-0.4-1.1-0.7-1.1c-3.2-0.6-6.4-1.1-9.6,0.1c-6,2.2-9.3,6.7-10.4,12.8
		c-0.8,4.4,0,8.4,3.4,11.4c4.5,3.8,9.8,6,15.9,5.4c0.4,0,1.4,0.2,0.8-0.9c-3-5.3-1.8-10.1,1.8-14.5c1.1-1.4,2.6-2.7,4.2-3.6
		c2.9-1.7,6.6-1,8.4,1.2c1,1.2,1,2.4,0.1,3.5c-1,1.1-2.8,1.5-3.9,0.6c-0.6-0.5-1-1.2-1.3-1.9c-0.3-0.8-0.4-1.1-1.2-0.4
		c-3.7,3.5-4.3,9.6-1.1,13.5c0.6,0.7,1.2,1.5,2,2.1c4.6,3.4,7,8,8.1,13.4c1.4,6.9,1.2,13.7-1.8,20.2c-0.7,1.6-1.9,3.2-3.2,4.4
		c-0.9,0.9-2.2,1.4-3.4,1.8c-1.5,0.4-2-0.1-1.6-1.6c0.3-1.2,0.8-2.4,1.2-3.6c0.6-2.5,1.5-5.1,1.8-7.7c0.7-5.8-1.7-10.4-6.1-14.1
		c-3.2-2.7-7-4.4-10.9-6c-7.4-3-14.7-6-22.5-7.8c-2.3-0.5-4.7-0.7-7-0.6c-2.5,0.1-3.9,2.8-3,5.2c0.8,2.1,2.3,3.4,4.1,4.5
		c3.2,2,6.8,3.1,10.4,3.6c4,0.6,8,0.9,12,1.5c4.3,0.7,8.4,1.9,11.7,5.1c2.6,2.5,3.7,5.9,4.4,9.3c0.4,1.7-0.8,3.6-2.3,4.2
		c-1.4,0.6-3.1,0.1-4.2-1.4c-0.8-1-1.4-2.2-2-3.4c-0.7-1.3-1.3-2.7-2-4.1c-2.1-3.8-5.2-6.1-9.5-6.7c-6.9-1-13.7-0.7-20.3,1.8
		c-1.8,0.7-3.5,1.7-5,2.9c-2.8,2.3-3.3,5.4-1.6,8.6c1.4,2.9,3.7,5.1,6.2,7.1c7.4,5.8,15.6,10.2,24.8,12.4c5,1.2,10,1.6,14.9-0.3
		c1.2-0.5,2.3-1.2,3.5-1.8c0.8-0.4,1.6-0.9,2.5-1.2c1.5-0.5,2.5,0.3,2.1,1.8c-0.4,1.7-1,3.4-2,4.8c-4.7,7-11.4,11.2-19.4,13.3
		c-1,0.3-1.4,0.4-0.9,1.6c1.2,3.3-0.1,6.1-2.4,8.4c-4.2,4.2-9.5,6.9-15.1,8.6c-4.9,1.5-9.8,1.8-14.8,0.3c-2.7-0.8-5.2-2.1-7.1-4.3
		c-1-1.3-1.8-2.7-1.4-4.4c0.5-1.9,3.5-3.4,5.2-2.4c0.5,0.3,1,1,1.2,1.7c0.8,2.7,2.8,3.9,5.6,3c3.2-1.1,4.5-3.7,5.3-6.7
		c1.1-4.3-0.2-8.3-2.5-12c-3.5-5.7-8.4-10.2-13.8-14c-2.3-1.6-4.8-3-7.2-4.5c-1.6-1-2.5-0.5-2.8,1.4c-0.2,1-0.3,2-0.5,3.1
		c-0.3,2.1-1.4,3.5-3.2,4.5c-1,0.5-2,1-2.9,1.6c-1.1,0.7-1.5,1.7-1.1,3c0.3,0.8,0.6,1.7,1.1,2.4c3,4.1,4.4,8.8,5.5,13.7
		c0.6,3,1.4,5.9,2.3,8.8c1.5,4.4,4.6,7,9.1,8c0.2,0,0.4,0,0.5,0.1c0.5,0.4,1.3,0.9,1.4,1.4c0.1,0.9-0.7,1.2-1.6,1.3
		c-4.2,0.1-8.4,0.5-12.6,0.3c-10.1-0.5-19.8-2.9-29-7.2c-23.3-11.1-38-29.3-44.1-54.4C0.5,92.1-0.2,85.2,0,78.2
		c0.1-2.5,1.3-4.3,3.6-5.3c2.2-0.9,4.3-0.7,6.2,0.9c1.8,1.5,2.6,4.5,1.8,6.3c-0.6,1.2-1.7,1.8-2.7,1.2c-0.5-0.3-1-1-1-1.5
		c-0.2-1.8-1.1-3.1-2.7-3.2S2.1,77.5,2,79.3c-0.1,2.2-0.2,4.5,0.3,6.6c0.9,3.7,2,7.3,3.3,10.8c1,2.9,3.2,4.7,6.1,5.6
		c2.1,0.6,2.9,0.2,3.7-1.8c0.3-0.9,1.3-1.3,2.2-0.9c1,0.4,1.5,1.6,1,2.6c-0.7,1.5-2,2.3-3.6,2.4c-1.1,0.1-2.3-0.2-3.4-0.4
		c-0.4-0.1-0.7-0.3-1.1-0.4c-1.6-0.5-2.4,0.2-2,1.8c1.1,3.8,3.2,7,6,9.8c0.4,0.3,1,0.5,1.5,0.5c2.3,0,4.2-1.1,5.4-3
		c0.3-0.5,0.2-1.3,0.3-1.9c0.1-0.4,0.1-1,0.4-1.3c0.6-0.7,2.2-0.7,3.2-0.1c1,0.6,1.3,1.4,1.1,2.5c-0.3,1.7-1.3,2.9-2.6,3.9
		C20.7,117.9,17.7,118.3,14.3,117.4z M81.4,67.7c-2,0-4,0.4-5.7,1.5c-3.2,2.1-3.8,5.2-1.4,8.1c2.8,3.4,6.4,5.9,10.7,7.2
		c4.6,1.4,8.2-1.4,8.1-6.2C93,72.9,87.4,67.7,81.4,67.7z M55.9,102c0-0.1-0.1-0.2-0.1-0.2c-1.8,0.5-3.6,0.9-5.3,1.5
		c-0.9,0.3-1.4,1.1-1.1,2.1c0.3,1.1,1.2,0.8,1.9,0.7c2.3-0.2,4,0.4,5.1,2.5c0.5,1,1.5,1.3,2.6,1c1.5-0.5,2.6-2.3,2.5-4
		s-1.2-3-2.9-3.3C57.6,102.1,56.8,102.1,55.9,102z"/>
	<path class="st0" d="M542.4,140.4c-0.9,5.3-2,10.7-2.8,16c-0.3,1.7,0.2,3.3,2.1,3.9c-0.3,0.3-0.5,0.9-0.8,1
		c-3.9,0.7-7.1-1.8-6.9-5.8c0.1-3,0.9-5.9,1.3-8.9c0.3-1.9,0.6-3.7,0.9-5.5c-0.2-0.1-0.4-0.1-0.6-0.2c-1.3,2.1-2.6,4.2-3.8,6.4
		c-2.1,3.5-4.1,7-6.2,10.5c-0.5,0.9-0.8,2.1-2.7,1.7c-2.1-6.6-4.3-13.4-6.5-20.2c-0.2,0-0.4,0.1-0.6,0.1c-1.2,6.7-2.3,13.4-3.5,20.2
		c-0.7,0-1.3,0-2.4,0c1.6-9.1,3.1-18,4.7-27.1c1.8,0,3.4,0,5.3,0c2,6.2,4,12.6,6.2,19.6c4.1-6.9,7.9-13.3,11.7-19.7
		c1.9,0,3.7,0,5.6,0c-0.3,2.1-0.6,4.2-0.9,6.3c0,0.4-0.1,0.8-0.1,1.2C542.5,140.1,542.4,140.2,542.4,140.4L542.4,140.4z"/>
	<path class="st0" d="M365.1,131.9c3.8,0.6,5.4,3.1,6,6.7c0.7,4.3,1.9,8.4,2.9,13.2c2.1-3.9,3.9-7.4,5.8-10.9
		c1.3-2.4,2.6-4.8,3.8-7.2c0.5-1,1.1-1.9,2.6-0.9c-2.2,4.1-4.3,8.1-6.5,12.2c-1.8,3.5-3.6,7-5.4,10.5c-0.2,0.4-0.4,0.8-0.6,1.2
		c-0.7,1.1-1.4,2.2-2.2,3.4c-0.6-0.1-1-0.2-1.5-0.2c-1.1-5.1-2.2-10.1-3.4-15.5c-0.7,1.1-1.1,1.8-1.5,2.6c-2,3.8-3.9,7.6-5.9,11.3
		c-0.5,1-0.9,2.3-2.7,1.6c-0.2-0.8-0.5-1.8-0.7-2.7c-1.4-6.6-2.8-13.2-4.3-19.8c-0.4-2-1.1-3.7-3.3-4.4c2.8-2.3,7.8-0.6,9,3.2
		c0.9,3.2,1.5,6.6,2.2,9.9c0.3,1.3,0.6,2.6,0.9,3.9c0.2,0,0.4,0.1,0.7,0.1c1.1-2,2.1-4,3.2-6c2.3-4.4,1.4-8.4-2.6-11.4
		C362.6,131.3,364,132.1,365.1,131.9z"/>
	<path class="st0" d="M421.5,167.8c-1.1-0.6-2.2-1.2-3.3-1.7c-1.5-0.6-2-1.7-1.7-3.7c2,1.2,3.8,2.3,5.6,3.4c4.5-1,5.9-2.5,6.6-7.5
		c-1.1,0.2-2.2,0.6-3.3,0.7c-1.6,0.1-3.3,0-4.4,0c-7.5-4.5-3.6-16.3,3.3-18.8c3.1-1.1,5.5-1,7.4,1.1c2-0.5,3.6-0.9,5.9-1.5
		c-0.7,4.1-1.2,7.6-1.8,11.1c-0.3,1.8-0.8,3.6-1,5.4c-0.6,5.6-3.3,9.6-8.8,11.4h-0.2l-0.2,0.1c-0.2,0-0.4,0-0.6,0.1
		C423.8,167.8,422.7,167.8,421.5,167.8z M429.3,155.9c0.7-3.4,1.4-6.7,2-10.1c0.4-2-0.2-3.1-1.8-3.8c-1.4-0.7-2.9-0.3-4,1.3
		c-2.8,4-3.5,8.3-1.9,12.8C425.6,157.8,427.3,157,429.3,155.9z"/>
	<path class="st0" d="M588.9,162.5c1.3,2.4,3.4,3.6,6,3c3.5-0.8,4.2-3.8,5-6.9c-1.8,0.2-3.5,0.5-5.2,0.4c-3.5-0.1-6-2.1-6.3-5.6
		c-0.5-4.9,0.9-9.2,5.1-12.2c3.1-2.2,6.6-2.1,9.4,0.1c1.7-0.5,3.2-1,5.1-1.5c0.1,1.2,0.3,2,0.2,2.6c-0.6,3.6-1.4,7.1-2,10.7
		c-0.1,0.7-0.2,1.5-0.2,2.3c-0.4,3.7-1.1,7.4-4.3,9.8c-1.5,1.1-3.4,1.7-5.1,2.6c-0.4,0-0.8,0-1.2,0.1c-0.6,0-1.2,0-1.8,0
		c-0.7-0.1-1.4-0.1-2.1-0.2c-1.8-1.3-4.1-2.3-4.2-5l0,0C587.8,162.6,588.4,162.6,588.9,162.5L588.9,162.5z M599,141.6
		c-0.5,0.3-0.9,0.5-1.3,0.7c-0.3,0.2-0.7,0.4-0.9,0.7c-2.7,3.7-3.2,7.8-2.4,12.1c0.3,1.5,1.7,2.1,3.2,1.8c1-0.2,1.9-0.7,2.8-1.1
		c0.7-3.4,1.3-6.5,1.9-9.6C602.7,143.5,602.2,142.8,599,141.6z"/>
	<path class="st0" d="M490.5,142.8c-0.9-0.3-1.6-0.5-2.2-0.7c0-0.5,0-1,0-1.6c0.8-0.2,1.6-0.5,2.7-0.8c0.7-4.8,3.6-7.6,8.7-7.8
		c3.2-0.2,4.4,0.3,5.7,2.5c-0.5,0.5-1,1-1.5,1.4c-4.2-2.9-6.2-1.7-6.8,4.1c1.6,0.1,3.1,0.2,4.9,0.4c0,0.7-0.1,1.2-0.1,2
		c-1.7,0.1-3.3,0.2-5.3,0.3c-0.6,3.3-1.2,6.6-1.8,9.9c-0.5,2.8-0.9,5.5-1.5,8.3c-1.2,5.2-3.9,6.6-9,6.8c-0.4,0-0.8-0.3-1.8-0.7
		c5.1-1.9,5-6.1,5.8-9.9C488.9,152.3,489.7,147.7,490.5,142.8z"/>
	<path class="st0" d="M401.6,153.6c-0.4,1.9-0.9,3.7-1.3,5.8c-1.7,0-3.5,0-5.3,0c0.2-5.8,2.5-11.2,2-17c-0.8-0.5-1.5-0.9-2.2-1.3
		c2.7-1,5.3-1.1,8,0.1c2.5-1.4,5.2-1.7,8.1-1.3s4.4,2,4.2,4.9c-0.2,3.5-0.9,7-1.4,10.5c-0.2,1.2-0.4,2.4-0.6,3.6
		c-4.2,1.8-4.7,1.8-6.1-0.5c0.1-0.6,0.2-1.1,0.3-1.7c0.4-0.9,0.9-1.8,1-2.7c0.3-1.6,0.3-3.3,0.4-4.9c0.1-0.6,0.2-1.1,0.2-1.7
		c1.4-1.4,0.9-3,0.3-4.4c-3-1.2-3.6-1.2-6,0.3c-0.4,3.1-0.9,6.2-1.3,9.3C401.7,153,401.7,153.3,401.6,153.6z"/>
	<path class="st0" d="M671.3,143.3c-0.9,4.6-1.8,9.2-2.7,13.9c-0.1,0.7-0.2,1.3-0.4,2.2c-1.2,0.1-2.3,0.1-3.8,0.2
		c-0.3-0.5-0.7-1.2-1.1-1.9c-2.3,1.7-4.4,2.6-7.1,2c-2.9-0.6-4.7-2.5-5.1-5.2c-0.8-5.1,0.8-9.6,4.9-12.9c3.2-2.6,6.3-2.5,9.5-0.4
		c2.2-0.5,3.9-0.9,5.6-1.2c0.1,0.3,0.3,0.7,0.4,1c0,0.4-0.1,0.8-0.1,1.2C671.4,142.6,671.4,142.9,671.3,143.3z M662.2,141.7
		c-2.6,1.1-2.6,1.1-3.6,3.1c-1.5,3-1.9,6.2-1.8,9.6c0,1.4,0.3,2.8,1.8,3.3c1.6,0.5,2.9-0.3,3.8-1.5c0.6-0.7,0.9-1.7,1.1-2.6
		c0.5-2.4,0.9-4.9,1.4-7.4C665.4,143.5,665.2,143.1,662.2,141.7z"/>
	<path class="st0" d="M465.9,151.6c0.2-7.8,7.8-13.7,14.9-11.5c3.2,1,5,3.2,5.4,6.5c0.9,7.1-5.1,13.7-12.2,13.5
		C469.8,159.9,465.7,157.7,465.9,151.6z M477.4,141.5c-0.8,0.5-2,0.9-2.7,1.7c-2.9,3.7-3.6,8.1-2.6,12.6c0.4,1.9,2.1,2.6,3.9,1.7
		c0.8-0.4,1.6-1.1,2.1-1.9c2.2-3.1,2.4-6.6,2.3-10.3C480.3,143.7,479.7,142.4,477.4,141.5z"/>
	<path class="st0" d="M566.3,159.6c0.4-3.4,0.9-6.8,1.3-10.2c0.2-1.1,0.4-2.3,0.6-3.4c0.6-3.3,0.6-3.3-2.2-4.9
		c1.8-1.2,5.3-1.1,7.7,0.3c2.8-1.5,5.7-2.2,8.8-1.2c3,0.9,4.2,2.7,3.9,5.7c-0.2,2.1-0.5,4.2-0.8,6.3c0,0.3-0.1,0.6-0.1,0.9
		c-0.5,2.1-1.1,4.2-1.6,6.3c-1.5,0.1-2.9,0.2-4.2,0.3c-0.4-0.2-0.8-0.4-1.2-0.7c0.4-2.5,0.8-5,1.2-7.6c0-0.3,0.1-0.7,0.1-1
		c0.8-2.7,1.7-5.3,0.2-7.9c-2.7-1.2-3-1.2-5.6,0.5c-0.7,4-1.4,8-2.2,11.9c0,0.4,0,0.8,0,1.2c-0.3,1.1-0.5,2.2-0.8,3.3
		c-1.1,0.1-1.9,0.2-2.8,0.3C567.8,159.7,567,159.7,566.3,159.6z"/>
	<path class="st0" d="M550.7,160.1c-1.7-0.9-3.7-1.5-4.9-2.8c-2.6-2.6-2.1-6.1-1.2-9.3c1.7-6.2,8.8-9.8,14.7-7.7
		c3,1,4.4,3.2,4.8,6.3c0.6,5.2-3.7,11.6-8.8,13c-0.5,0.1-0.9,0.4-1.3,0.5C552.8,160.1,551.8,160.1,550.7,160.1z M558.5,147.2
		c-0.1-1-0.2-2.1-0.4-3.1c-0.6-2.2-2.5-3-4.5-1.7c-0.7,0.5-1.3,1.1-1.8,1.8c-1.9,3.1-2.5,6.6-2.1,10.2c0.2,1.5,0.5,2.9,2.2,3.4
		c1.6,0.4,2.7-0.6,3.7-1.7C557.9,153.5,558.1,150.3,558.5,147.2z"/>
	<path class="st0" d="M385.5,153.8c1-3.7,1.7-7.4,1.8-11.3c-0.9-0.6-1.7-1-2.9-1.8c2.7-0.9,4.9-0.6,7.1-0.3c0.6,0.1,1.2,1.1,1.4,1.9
		c0.2,0.7,0.1,1.5,0,2.3c-0.8,4.8-1.7,9.6-2.5,14.7c-1.9,0-3.6,0-5.5,0c0.2-1.5,0.3-2.9,0.5-4.4
		C385.4,154.6,385.5,154.2,385.5,153.8z"/>
	<path class="st0" d="M649.1,132.5c1.1,0.8,1.9,1.8,1.4,3.2c-0.3,0.9-1,2-1.8,2.2c-0.8,0.3-2.2-0.1-2.8-0.8
		c-0.5-0.6-0.7-2.1-0.3-2.8c0.5-0.9,1.7-1.3,2.6-2C648.5,132.4,648.8,132.4,649.1,132.5z"/>
	<path class="st0" d="M609.8,151.8c0-7.1,5.7-12.5,12.7-12c4.8,0.3,7.5,3.3,7.4,8c-0.1,5.9-3.6,10.6-9.5,12
		C614.5,161.3,609.7,157.6,609.8,151.8z M624.3,147.5c0-0.7,0-1.4,0-2c-0.1-1.6-0.7-3.1-2.4-3.6c-1.7-0.6-3,0.5-3.9,1.8
		c-2.6,3.4-2.9,7.3-2.4,11.4c0.2,1.4,0.9,2.8,2.5,2.7c1.2-0.1,2.7-0.8,3.4-1.7C623.3,153.6,624.3,150.7,624.3,147.5z"/>
	<path class="st0" d="M636.6,159.4c-1.9,0-3.5,0-5.5,0c1.4-8.3,2.7-16.3,4.1-24.3c-1.1-0.8-1.9-1.4-2.8-2c2.7-1.4,6.3-1,8.6,1.2
		C639.5,142.5,638,150.9,636.6,159.4z"/>
	<path class="st0" d="M646.9,159.5c-1.9,0-3.5,0-5.5,0c0.9-5.7,1.8-11.2,2.7-16.7c-1.1-0.7-1.9-1.2-3.4-2.1c3.1-0.5,5.6-0.9,7.9,0.2
		c0.7,0.3,1.1,2,1,3c-0.6,4.3-1.4,8.6-2.1,13C647.4,157.6,647.1,158.5,646.9,159.5z"/>
	<path class="st0" d="M443.1,140.6c2.8-0.2,5.6-0.8,8.3-0.6c3.8,0.2,4.9,2.9,2.7,6.8c-0.5-1-0.8-1.7-1.1-2.4
		c-1.1-2.7-4.4-3.6-6.7-1.8c-1.7,1.3-1.5,3.4,0.5,4.4c1.6,0.9,3.2,1.7,4.8,2.5c4.4,2.2,3.1,5.8,0.9,8c-3.2,3-10.5,3.2-14,0.4
		c-0.5-2.8-0.5-3.1,0.9-5.2c0.4,0.9,0.7,1.5,0.9,2.1c1.1,3,5.2,4,7.6,1.9c1.5-1.3,1.3-2.9-0.6-4c-1.7-1-3.6-1.8-5.3-2.9
		c-2.3-1.4-3-3.5-2.1-5.7c0.3-0.8,0.9-1.5,1.5-2.1C441.9,141.6,442.6,141.1,443.1,140.6L443.1,140.6z"/>
	<path class="st0" d="M391.4,138.1c-1.7,0.1-2.8-0.9-2.8-2.6c0-1.5,1.2-2.9,2.6-3c1.6-0.1,2.9,1,2.9,2.5
		C394.1,136.8,393.1,138,391.4,138.1z"/>
</g>
</svg>
