<?xml version="1.0" encoding="utf-8"?>
<!-- Generator: Adobe Illustrator 22.1.0, SVG Export Plug-In . SVG Version: 6.00 Build 0)  -->
<svg version="1.1" id="cmyk" xmlns="http://www.w3.org/2000/svg" xmlns:xlink="http://www.w3.org/1999/xlink" x="0px" y="0px"
	 width="1256.873px" height="173.767px" viewBox="0 0 1256.873 173.767" style="enable-background:new 0 0 1256.873 173.767;"
	 xml:space="preserve">
<style type="text/css">
	.st0{fill:#777A7B;}
	.st1{fill:url(#SVGID_1_);}
	.st2{fill:url(#SVGID_2_);}
	.st3{fill:url(#SVGID_3_);}
	.st4{fill:url(#SVGID_4_);}
	.st5{fill:url(#SVGID_5_);}
	.st6{fill:url(#SVGID_6_);}
	.st7{fill:#FFFACE;}
	.st8{fill:url(#SVGID_7_);}
	.st9{opacity:0.8;}
	.st10{fill:url(#SVGID_8_);}
	.st11{fill:url(#SVGID_9_);}
	.st12{opacity:0.9;}
	.st13{fill:url(#SVGID_10_);}
	.st14{fill:url(#SVGID_11_);}
	.st15{fill:url(#SVGID_12_);}
	.st16{fill:url(#SVGID_13_);}
	.st17{fill:none;}
	.st18{clip-path:url(#SVGID_15_);}
	.st19{fill:url(#SVGID_16_);}
	.st20{fill:url(#SVGID_17_);}
	.st21{filter:url(#Adobe_OpacityMaskFilter);}
	.st22{fill:url(#SVGID_19_);}
	.st23{mask:url(#SVGID_18_);fill:url(#SVGID_20_);}
	.st24{filter:url(#Adobe_OpacityMaskFilter_1_);}
	.st25{fill:url(#SVGID_22_);}
	.st26{mask:url(#SVGID_21_);fill:url(#SVGID_23_);}
	.st27{filter:url(#Adobe_OpacityMaskFilter_2_);}
	.st28{fill:url(#SVGID_25_);}
	.st29{opacity:0.62;mask:url(#SVGID_24_);}
	.st30{fill:url(#SVGID_26_);}
	.st31{filter:url(#Adobe_OpacityMaskFilter_3_);}
	.st32{fill:url(#SVGID_28_);}
	.st33{opacity:0.37;mask:url(#SVGID_27_);}
	.st34{fill:url(#SVGID_29_);}
	.st35{filter:url(#Adobe_OpacityMaskFilter_4_);}
	.st36{fill:url(#SVGID_31_);}
	.st37{opacity:0.45;mask:url(#SVGID_30_);fill:url(#SVGID_32_);}
	.st38{filter:url(#Adobe_OpacityMaskFilter_5_);}
	.st39{fill:url(#SVGID_34_);}
	.st40{opacity:0.5;mask:url(#SVGID_33_);}
	.st41{fill:url(#SVGID_35_);}
	.st42{filter:url(#Adobe_OpacityMaskFilter_6_);}
	.st43{fill:url(#SVGID_37_);}
	.st44{opacity:0.75;mask:url(#SVGID_36_);fill:url(#SVGID_38_);}
	.st45{filter:url(#Adobe_OpacityMaskFilter_7_);}
	.st46{fill:url(#SVGID_40_);}
	.st47{opacity:0.65;mask:url(#SVGID_39_);fill:url(#SVGID_41_);}
	.st48{filter:url(#Adobe_OpacityMaskFilter_8_);}
	.st49{fill:url(#SVGID_43_);}
	.st50{opacity:0.37;mask:url(#SVGID_42_);fill:url(#SVGID_44_);}
	.st51{fill:url(#SVGID_45_);}
</style>
<g>
	<g>
		<g>
			<path class="st0" d="M823.567,110.956c-7.667-2.856-14.291-5.324-14.291-10.252c0-5.703,4.116-8.479,12.585-8.479
				c6.822,0,15.415,2.479,22.427,6.463l0.242,0.137l4.269-12.726L848.653,86c-7.276-4.897-19.466-8.06-31.055-8.06
				c-19.893,0-31.768,9.276-31.768,24.816c0,16.554,13.841,21.302,24.967,25.967c8.191,3.438,16.33,7.466,16.33,13.645
				c0,6.389-4.852,8.995-14.139,8.995c-8.09,0-17.531-2.739-24.638-7.144l-0.243-0.152l-4.456,12.901l0.141,0.099
				c7.248,5.156,20.515,8.757,32.263,8.757c10.899,0,19.377-2.52,25.198-7.488c5.712-4.878,8.607-11.877,8.607-20.801
				C849.861,120.752,835.283,115.319,823.567,110.956z"/>
			<path class="st0" d="M772.539,136.225v-21.348c0-12.713-2.979-21.868-9.113-27.991c-6.897-6.89-14.438-9.83-25.212-9.83
				c-11.174,0-24.627,4.076-33.473,10.148l-0.136,0.094l3.738,12.743l0.257-0.161c7.19-4.537,15.562-7.141,22.966-7.141
				c6.467,0,11.908,1.76,14.558,4.708c3.018,3.341,4.387,6.325,4.422,14.997c-5.16-2.232-11.692-2.164-17.625-2.113
				c-0.926,0.012-1.838,0.019-2.727,0.019c-19.625,0-31.815,10.764-31.815,28.09c0,8.057,2.77,14.914,8.011,19.827
				c5.272,4.944,12.677,7.556,21.408,7.556c7.982,0,17.292-3.078,24.973-8.246c0.514,2.307,1.014,3.976,1.809,6.052l0.058,0.146
				h19.444l-0.036-0.26C772.865,154.708,772.539,148.84,772.539,136.225z M750.547,125.152v20.12
				c-5.638,3.523-11.499,6.943-15.912,6.943c-8.684,0-13.466-4.83-13.466-13.598c0-9.529,5.216-14.996,14.312-14.996
				c0.568,0,1.18-0.008,1.827-0.017c0.722-0.012,1.484-0.024,2.281-0.024C742.707,123.581,746.755,123.76,750.547,125.152z"/>
			<polygon class="st0" points="278.299,60.633 311.45,60.633 311.45,163.774 336.44,163.774 336.44,60.633 369.6,60.633 
				369.593,43.026 278.299,43.026 			"/>
			<path class="st0" d="M403.064,163.774V99.121c4.978-3.513,10.799-5.528,15.989-5.528c9.149,0,13.596,6.291,13.596,19.236v50.945
				h23.294v-50.433c0-12.036-2.759-20.907-8.435-27.129c-5.507-5.877-11.279-8.272-19.918-8.272c-8.375,0-17.287,2.544-24.526,6.991
				l-0.027-41.905h-23.285l0.027,120.748H403.064z"/>
			<path class="st0" d="M664.072,163.774h23.281v-50.433c0-12.854-2.451-21.53-7.717-27.307c-5.255-5.598-11.247-8.094-19.433-8.094
				c-9.634,0-19.852,3.718-28.801,10.478c-0.323-0.501-0.703-0.943-1.1-1.409c-0.215-0.25-0.434-0.506-0.661-0.794
				c-4.982-5.491-11.583-8.274-19.614-8.274c-8.753,0-18.034,3.163-26.169,8.915c-0.616-1.904-0.997-3.127-1.328-4.188
				c-0.268-0.857-0.5-1.607-0.799-2.522l-0.052-0.157h-18.816v83.785h23.29v-45.82c0-3.891-0.007-7.617-0.013-11.025
				c-0.005-2.832-0.011-5.448-0.011-7.761c5.942-4.604,11.728-5.575,15.542-5.575c3.543,0,6.221,1.039,8.185,3.174
				c2.909,3.267,4.042,7.771,4.042,16.062v50.945h23.276v-50.433c0-2.71-0.033-5.275-0.067-7.754
				c-0.033-2.38-0.062-4.63-0.064-6.944c5.92-4.448,10.797-5.051,14.791-5.051c3.543,0,6.225,1.039,8.199,3.174
				c2.904,3.263,4.038,7.767,4.038,16.062V163.774z"/>
			<path class="st0" d="M509.303,165.823c13.283,0,24.269-4.018,31.772-11.623c7.401-7.504,11.316-18.374,11.316-31.434
				c0-13.197-3.913-24.371-11.312-32.316c-7.62-8.184-18.609-12.509-31.776-12.509c-26.43,0-42.209,16.425-42.209,43.941
				S482.873,165.823,509.303,165.823z M509.303,91.543c12.103,0,18.236,10.207,18.236,30.338c0,20.127-6.133,30.334-18.236,30.334
				c-12.107,0-18.246-10.207-18.246-30.334C491.057,101.75,497.195,91.543,509.303,91.543z"/>
		</g>
		<g>
			<path class="st0" d="M980.856,143.988l-0.237,0.094c-9.164,3.623-20.866,5.274-27.861,5.274c-9.495,0-16.535-2.271-21.531-6.935
				c-8.377-7.795-12.279-19.732-12.279-37.572c0-21.091,6.31-31.981,11.599-37.401c4.762-4.763,11.729-7.281,20.154-7.281
				c7.792,0,19.896,2.159,29.379,6.98l0.243,0.125l4.346-14.261l0.052-0.169l-0.152-0.094c-10.886-6.567-25.582-8.906-35.707-8.906
				c-16.326,0-29.424,4.904-38.929,14.578c-10.895,11.252-16.651,27.308-16.651,46.43c0,21.121,6.116,37.833,17.683,48.328
				c9.29,8.42,22.152,12.687,38.232,12.687c10.099,0,24.736-1.889,35.531-7.191l0.17-0.085l-3.974-14.354L980.856,143.988z"/>
			<path class="st0" d="M1032.294,77.988c-26.429,0-42.208,16.426-42.208,43.939s15.779,43.937,42.208,43.937
				c26.428,0,42.205-16.424,42.205-43.937S1058.721,77.988,1032.294,77.988z M1032.294,152.263
				c-12.104,0-18.237-10.209-18.237-30.336c0-20.129,6.134-30.336,18.237-30.336c12.102,0,18.236,10.207,18.236,30.336
				C1050.53,142.054,1044.395,152.263,1032.294,152.263z"/>
			<polygon class="st0" points="1256.018,80.037 1231.987,80.037 1200.913,110.865 1200.913,43.028 1177.631,43.028 
				1177.631,163.816 1200.913,163.816 1200.913,127.75 1229.904,163.732 1229.973,163.816 1256.873,163.816 1218.576,116.66 			"/>
			<path class="st0" d="M1124.467,77.988c-26.429,0-42.208,16.426-42.208,43.939s15.779,43.937,42.208,43.937
				c26.426,0,42.201-16.424,42.201-43.937S1150.893,77.988,1124.467,77.988z M1124.467,152.263
				c-12.107,0-18.246-10.209-18.246-30.336c0-20.129,6.139-30.336,18.246-30.336c12.102,0,18.238,10.207,18.238,30.336
				C1142.706,142.054,1136.569,152.263,1124.467,152.263z"/>
		</g>
	</g>
	
		<radialGradient id="SVGID_1_" cx="181.8083" cy="-141.3028" r="76.0136" gradientTransform="matrix(-1.3788 -1.144 2.2515 -2.8022 663.7506 -115.8468)" gradientUnits="userSpaceOnUse">
		<stop  offset="0" style="stop-color:#FFF268"/>
		<stop  offset="0.0556" style="stop-color:#FFF062"/>
		<stop  offset="0.6998" style="stop-color:#FFDA1C"/>
		<stop  offset="1" style="stop-color:#FFD100"/>
	</radialGradient>
	<path class="st1" d="M83.67,88.782l34.631-35.235L83.648,18.332c-19.141-19.447-50.168-19.445-69.305,0
		C-4.791,37.779-4.773,69.328,14.367,88.776C33.771,108.5,64.531,108.227,83.67,88.782z"/>
	
		<radialGradient id="SVGID_2_" cx="166.6854" cy="-143.6066" r="26.2118" gradientTransform="matrix(-1.6735 -0.6162 1.2127 -3.4012 521.1235 -317.7604)" gradientUnits="userSpaceOnUse">
		<stop  offset="0" style="stop-color:#FFED00;stop-opacity:0.37"/>
		<stop  offset="0.1297" style="stop-color:#FFEE05;stop-opacity:0.322"/>
		<stop  offset="0.2812" style="stop-color:#FFEE13;stop-opacity:0.266"/>
		<stop  offset="0.4436" style="stop-color:#FFF02B;stop-opacity:0.2059"/>
		<stop  offset="0.6138" style="stop-color:#FFF24B;stop-opacity:0.1429"/>
		<stop  offset="0.7899" style="stop-color:#FFF476;stop-opacity:0.0777"/>
		<stop  offset="0.9687" style="stop-color:#FFF7A8;stop-opacity:0.0116"/>
		<stop  offset="1" style="stop-color:#FFF7B2;stop-opacity:0"/>
	</radialGradient>
	<path class="st2" d="M79.766,85.718c13.939-14.163,35.25-35.629,35.25-35.629L83.648,18.332c-19.141-19.447-50.168-19.445-69.305,0
		c-19.134,19.448-18.466,50.754-0.54,69.874C20.078,94.897,53.744,112.161,79.766,85.718z"/>
	<linearGradient id="SVGID_3_" gradientUnits="userSpaceOnUse" x1="78.3728" y1="79.9957" x2="17.6672" y2="25.3361">
		<stop  offset="0" style="stop-color:#FFEF19"/>
		<stop  offset="0.5102" style="stop-color:#FFD601"/>
		<stop  offset="1" style="stop-color:#F8AA00"/>
	</linearGradient>
	<path class="st3" d="M83.67,88.782l34.654-35.212L83.648,18.332c-19.141-19.447-50.168-19.445-69.305,0
		C-4.791,37.779-4.779,69.336,14.367,88.776C33.771,108.483,64.531,108.227,83.67,88.782z"/>
	
		<radialGradient id="SVGID_4_" cx="188.1376" cy="-116.4018" r="74.4858" gradientTransform="matrix(1.5039 -0.9676 1.0474 1.6811 -54.8249 494.8976)" gradientUnits="userSpaceOnUse">
		<stop  offset="0" style="stop-color:#FAB522"/>
		<stop  offset="1" style="stop-color:#FFE500"/>
	</radialGradient>
	<path class="st4" d="M222.258,18.334c-19.139-19.445-50.164-19.448-69.305,0L83.648,88.758
		c-19.136,19.443-50.167,19.443-69.305-0.004c0,0,69.294,70.419,69.305,70.427c19.136,19.447,50.169,19.447,69.304,0l69.307-70.423
		C241.399,69.311,241.397,37.779,222.258,18.334z"/>
	<linearGradient id="SVGID_5_" gradientUnits="userSpaceOnUse" x1="157.1635" y1="146.809" x2="125.6127" y2="66.6799">
		<stop  offset="0" style="stop-color:#FFD500"/>
		<stop  offset="0.1317" style="stop-color:#FFD000"/>
		<stop  offset="0.4172" style="stop-color:#FFCC00"/>
		<stop  offset="0.4249" style="stop-color:#FFCD00"/>
		<stop  offset="1" style="stop-color:#FFED00"/>
	</linearGradient>
	<path class="st5" d="M222.258,18.334c-19.139-19.445-50.164-19.448-69.305,0L83.648,88.758
		c-19.136,19.443-50.167,19.443-69.305-0.004c0,0,69.294,70.419,69.305,70.427c19.136,19.447,50.169,19.447,69.304,0l69.307-70.423
		C241.399,69.311,241.397,37.779,222.258,18.334z"/>
	<g>
		<linearGradient id="SVGID_6_" gradientUnits="userSpaceOnUse" x1="138.4326" y1="23.9547" x2="15.4272" y2="30.5951">
			<stop  offset="0" style="stop-color:#FFEF35"/>
			<stop  offset="0.048" style="stop-color:#FFEC44"/>
			<stop  offset="0.1541" style="stop-color:#FFE660"/>
			<stop  offset="0.2479" style="stop-color:#FFE270"/>
			<stop  offset="0.319" style="stop-color:#FFE176"/>
			<stop  offset="0.5236" style="stop-color:#FFE972"/>
			<stop  offset="0.6503" style="stop-color:#FFFBD6"/>
			<stop  offset="0.8117" style="stop-color:#FFD977"/>
			<stop  offset="1" style="stop-color:#FFCB04"/>
		</linearGradient>
		<path class="st6" d="M83.718,18.262C74.443,8.838,62.111,3.648,48.994,3.648c-13.116,0-25.448,5.19-34.722,14.614
			c-1.094,1.112-2.007,2.083-2.873,3.119c2.069-2.885,3.479-4.595,6.49-7.604C26.426,5.238,38.797,0.341,51.828,0.341
			c12.92,0,24.731,4.771,33.256,13.435c0,0,33.857,34.38,36.148,36.709l-2.931,2.921L83.718,18.262z"/>
		<path class="st7" d="M51.828,0.441c12.894,0,24.679,4.76,33.186,13.405c0,0,33.253,33.767,36.078,36.639l-2.79,2.781
			L83.789,18.192C74.495,8.749,62.138,3.549,48.994,3.549c-13.143,0-25.5,5.201-34.793,14.644c-0.509,0.518-0.979,1.005-1.424,1.482
			c1.469-1.935,2.841-3.488,5.181-5.828C26.478,5.327,38.823,0.441,51.828,0.441 M51.828,0.242c-12.671,0-25.249,4.703-34.01,13.464
			c-3.647,3.646-4.9,5.314-8.142,9.94l-0.94,1.541c1.782-2.74,3.231-4.441,5.606-6.855c9.568-9.723,22.11-14.585,34.652-14.585
			s25.083,4.861,34.653,14.585l34.653,35.215l3.071-3.061c-1.535-1.562-36.217-36.779-36.217-36.779
			C76.138,4.543,63.94,0.242,51.828,0.242L51.828,0.242z"/>
	</g>
	<g>
		<linearGradient id="SVGID_7_" gradientUnits="userSpaceOnUse" x1="31.7356" y1="103.508" x2="195.1619" y2="1.153">
			<stop  offset="0" style="stop-color:#FFE751"/>
			<stop  offset="0.0485" style="stop-color:#FFEB6C"/>
			<stop  offset="0.129" style="stop-color:#FFF191"/>
			<stop  offset="0.2036" style="stop-color:#FFF5AD"/>
			<stop  offset="0.2693" style="stop-color:#FFF8BD"/>
			<stop  offset="0.319" style="stop-color:#FFF9C3"/>
			<stop  offset="0.5951" style="stop-color:#FFF16B"/>
			<stop  offset="0.8405" style="stop-color:#FFF9C5"/>
			<stop  offset="1" style="stop-color:#FFDD54"/>
		</linearGradient>
		<path class="st8" d="M213.838,10.883c-14.379-11.161-42.145-18.349-62.564,2.072L79.998,85.38
			c-19.135,19.443-49.652,18.865-67.854,0.934c0,0,4.196,4.752,7.081,7.011c20.232,15.852,47.746,13.088,64.462-3.928l69.304-70.426
			c20.637-20.518,43.922-18.885,66.254-3.436C219.244,15.535,216.711,13.114,213.838,10.883z"/>
	</g>
	<g class="st9">
		
			<linearGradient id="SVGID_8_" gradientUnits="userSpaceOnUse" x1="253.9935" y1="-168.9041" x2="164.045" y2="-104.2076" gradientTransform="matrix(1.78 0 0 1.8088 -228.6871 327.7264)">
			<stop  offset="0" style="stop-color:#FFF48C;stop-opacity:0.97"/>
			<stop  offset="0.0611" style="stop-color:#FFF376;stop-opacity:0.8797"/>
			<stop  offset="0.1936" style="stop-color:#FFF14C;stop-opacity:0.6839"/>
			<stop  offset="0.3227" style="stop-color:#FFEF2B;stop-opacity:0.4932"/>
			<stop  offset="0.4455" style="stop-color:#FFEE13;stop-opacity:0.3117"/>
			<stop  offset="0.5596" style="stop-color:#FFEE05;stop-opacity:0.1431"/>
			<stop  offset="0.6564" style="stop-color:#FFED00;stop-opacity:0"/>
			<stop  offset="0.908" style="stop-color:#EE7402;stop-opacity:0"/>
			<stop  offset="1" style="stop-color:#E30613"/>
		</linearGradient>
		<path class="st10" d="M222.258,18.334c-18.289-18.66-50.164-19.448-69.305,0L83.648,88.758
			c-19.136,19.443-50.167,19.443-69.305-0.004c0,0,69.294,70.419,69.305,70.427c19.136,19.447,50.169,19.447,69.304,0l69.307-70.423
			C241.399,69.311,241.354,37.822,222.258,18.334z"/>
	</g>
	<linearGradient id="SVGID_9_" gradientUnits="userSpaceOnUse" x1="188.7807" y1="124.352" x2="94.6569" y2="30.2281">
		<stop  offset="0" style="stop-color:#EA560D;stop-opacity:0.77"/>
		<stop  offset="0.5521" style="stop-color:#FFDA00;stop-opacity:0.19"/>
		<stop  offset="0.6258" style="stop-color:#FFED00;stop-opacity:0"/>
		<stop  offset="0.639" style="stop-color:#FCDA00;stop-opacity:0.054"/>
		<stop  offset="0.6665" style="stop-color:#F8B800;stop-opacity:0.1659"/>
		<stop  offset="0.6926" style="stop-color:#F4A000;stop-opacity:0.2722"/>
		<stop  offset="0.7165" style="stop-color:#F29100;stop-opacity:0.3696"/>
		<stop  offset="0.7362" style="stop-color:#F28C00;stop-opacity:0.45"/>
		<stop  offset="1" style="stop-color:#F7A400"/>
	</linearGradient>
	<path class="st11" d="M203.305,6.882c0,0,4.109,0.796,5.092,1.137c2.004,0.696,3.479,1.134,10.471,7.185
		c5.938,5.137,12.438,13.013,15.555,23.444c6.684,22.379-3.23,40.001-10.459,48.226c-0.77,0.875-1.574,1.755-2.828,3.048
		c-14.355,14.777-57.488,58.538-68.184,69.257c-16.711,16.744-47.102,21.41-67.648,1.115c-9.219-9.104-66.531-67.106-66.531-67.106
		s1.969,1.654,3.445,2.561c1.477,0.914,3.506,2.033,3.506,2.033s56.505,57.136,64.87,64.763
		c12.905,11.766,40.325,16.352,61.024-4.627c22.885-23.192,50.861-51.056,70.213-70.719c9.514-9.668,17.102-29.298,11.236-48.05
		c-3.047-9.752-8.486-16.466-14.559-22.255C210.961,9.698,203.305,6.882,203.305,6.882z"/>
	<g class="st12">
		<linearGradient id="SVGID_10_" gradientUnits="userSpaceOnUse" x1="175.9119" y1="149.979" x2="149.2078" y2="92.7118">
			<stop  offset="0" style="stop-color:#EF7D00;stop-opacity:0.82"/>
			<stop  offset="0.0418" style="stop-color:#F0850F;stop-opacity:0.7857"/>
			<stop  offset="0.2503" style="stop-color:#F5A957;stop-opacity:0.6147"/>
			<stop  offset="0.4469" style="stop-color:#F8C893;stop-opacity:0.4536"/>
			<stop  offset="0.6256" style="stop-color:#FBE0C2;stop-opacity:0.307"/>
			<stop  offset="0.783" style="stop-color:#FDF1E3;stop-opacity:0.1779"/>
			<stop  offset="0.9132" style="stop-color:#FFFBF8;stop-opacity:0.0712"/>
			<stop  offset="1" style="stop-color:#FFFFFF;stop-opacity:0"/>
		</linearGradient>
		<path class="st13" d="M117.128,172.675c14.53,0.303,26.81-7.037,32.89-13.088c11.149-11.084,61.918-62.571,72.717-73.29
			c9.965-9.893,15.871-30.958,10.824-45.773c-4.443-13.055-8.486-20.545-24.564-25.214c-16.076-4.666-50.854,35.006-50.854,35.006
			l-46.916,62.011l-33.139,16.336c0,0-22.484-1.656-20.67,1.668c1.351,2.479,5.066,5.691,11.785,12.601
			c6.559,6.74,15.735,16.469,22.77,21.451C98.85,169.251,106.359,172.449,117.128,172.675z"/>
	</g>
	<linearGradient id="SVGID_11_" gradientUnits="userSpaceOnUse" x1="36.0177" y1="14.0206" x2="101.386" y2="54.5916">
		<stop  offset="0" style="stop-color:#FFF0A7"/>
		<stop  offset="0.1969" style="stop-color:#FFF29E"/>
		<stop  offset="0.5877" style="stop-color:#FFF493"/>
		<stop  offset="1" style="stop-color:#FFF48F"/>
	</linearGradient>
	<path class="st14" d="M8.682,25.226c1.547-2.378,2.962-4.152,5.661-6.894c19.137-19.445,50.164-19.447,69.305,0l31.179,31.683
		l0.99-1.03c-1.537-1.563-32.237-32.338-32.237-32.338C68.161,1.643,40.661-3.669,18.126,14.145
		c-4.038,3.192-4.313,3.646-7.587,8.167L8.682,25.226z"/>
	<linearGradient id="SVGID_12_" gradientUnits="userSpaceOnUse" x1="31.6028" y1="101.622" x2="190.8698" y2="1.872">
		<stop  offset="0" style="stop-color:#FFEFAF"/>
		<stop  offset="0.0368" style="stop-color:#FFF7B2"/>
		<stop  offset="0.0431" style="stop-color:#FFF7B3"/>
		<stop  offset="0.3313" style="stop-color:#FFFBD4"/>
		<stop  offset="0.6258" style="stop-color:#FFFEF3"/>
		<stop  offset="0.8405" style="stop-color:#FFFCE3"/>
		<stop  offset="1" style="stop-color:#FFFCE5"/>
	</linearGradient>
	<path class="st15" d="M201.379,5.671c-3.432-1.135-27.949-8.79-46.838,10.1c-20.174,20.175-27.604,28.456-70.009,71.388
		c-22.228,22.504-51.397,20.678-69.093,2.385l1.828,2.051c19.378,18.701,46.906,17.318,66.836-2.375l69.145-70.509
		c18.426-18.428,40.279-17.244,57.383-8.743C210.631,9.967,206.75,7.446,201.379,5.671z"/>
	<g>
		<linearGradient id="SVGID_13_" gradientUnits="userSpaceOnUse" x1="12.6426" y1="85.0036" x2="35.0001" y2="62.9954">
			<stop  offset="0" style="stop-color:#EF7D00;stop-opacity:0.41"/>
			<stop  offset="0.0702" style="stop-color:#F18A1A;stop-opacity:0.3809"/>
			<stop  offset="0.2671" style="stop-color:#F5AD5F;stop-opacity:0.2995"/>
			<stop  offset="0.4536" style="stop-color:#F9CA98;stop-opacity:0.2222"/>
			<stop  offset="0.6245" style="stop-color:#FBE1C4;stop-opacity:0.1516"/>
			<stop  offset="0.7762" style="stop-color:#FDF1E4;stop-opacity:0.0887"/>
			<stop  offset="0.9035" style="stop-color:#FFFBF8;stop-opacity:0.0361"/>
			<stop  offset="0.9907" style="stop-color:#FFFFFF;stop-opacity:0"/>
		</linearGradient>
		<path class="st16" d="M17.058,14.93c0,0,14.542,35.674,26.409,47.798c11.865,12.123,29.9,28.298,29.9,28.298
			s-20.894,15.979-47.273,4.572C9.34,88.354,4.134,75.718,1.537,65.209C-6.07,34.412,17.058,14.93,17.058,14.93z"/>
	</g>
	<g>
		<path class="st17" d="M117.128,172.675c14.53,0.303,26.872-6.742,32.952-12.789C161.229,148.8,212,97.083,222.734,86.298
			c9.35-9.392,15.842-30.519,10.703-46.023c-4.338-13.093-14.15-28.518-30.512-32.005c-55.121-11.753-44.785,42.048-44.785,42.048
			l-47.82,23.671l-32.234,54.676c0,0-22.484-1.656-20.67,1.668c1.351,2.479,5.066,5.691,11.785,12.601
			c6.559,6.74,15.735,16.469,22.77,21.451C98.85,169.251,106.359,172.449,117.128,172.675z"/>
	</g>
	<g>
		<defs>
			<path id="SVGID_14_" d="M51.992,104.838c0,0,16.634,0,34.955-18.642c11.805-12.012,65.85-67.026,65.85-67.026
				s56.852,63.485-3.516,113.164C93.783,178,51.992,104.838,51.992,104.838z"/>
		</defs>
		<clipPath id="SVGID_15_">
			<use xlink:href="#SVGID_14_"  style="overflow:visible;"/>
		</clipPath>
		<g class="st18">
			
				<radialGradient id="SVGID_16_" cx="189.2544" cy="-132.7678" r="33.9732" gradientTransform="matrix(1.78 0 0 1.8088 -228.6871 327.7264)" gradientUnits="userSpaceOnUse">
				<stop  offset="0.1" style="stop-color:#FFE000;stop-opacity:0.82"/>
				<stop  offset="0.7244" style="stop-color:#FFEA00;stop-opacity:0.1863"/>
				<stop  offset="0.908" style="stop-color:#FFED00;stop-opacity:0"/>
			</radialGradient>
			<path class="st19" d="M165.848,81.575c0,29.244-23.293,70.511-58.068,70.179c-28.78-0.273-57.256-45.437-57.256-74.681
				c0-25.316,15.184-48.449,38.555-53.676l27.394,29.005c0,0,25.361-24.748,25.428-24.671
				C153.557,41.494,165.848,63.297,165.848,81.575z"/>
		</g>
	</g>
	<linearGradient id="SVGID_17_" gradientUnits="userSpaceOnUse" x1="64.8259" y1="136.7718" x2="66.2041" y2="135.4698">
		<stop  offset="0" style="stop-color:#FFD032;stop-opacity:0"/>
		<stop  offset="0.0389" style="stop-color:#FFD23E;stop-opacity:0.0208"/>
		<stop  offset="0.3324" style="stop-color:#FFE191;stop-opacity:0.1782"/>
		<stop  offset="0.4663" style="stop-color:#FFE7B2;stop-opacity:0.25"/>
		<stop  offset="1" style="stop-color:#FFDC47;stop-opacity:0"/>
	</linearGradient>
	<path class="st20" d="M27.209,98.7l39.801,41.072c0,0,16.583,18.454,24.299,23.63c8.389,5.621,17.228,5.686,17.228,5.686
		s-9.12-4.332-15.625-9c-6.508-4.672-22.948-22.632-22.948-22.632l-34.02-35.004c0,0-0.184,0.029-3.197-1.125
		C29.731,100.17,27.209,98.7,27.209,98.7z"/>
	<defs>
		<filter id="Adobe_OpacityMaskFilter" filterUnits="userSpaceOnUse" x="92.049" y="53.25" width="79.773" height="84.121">
			<feColorMatrix  type="matrix" values="1 0 0 0 0  0 1 0 0 0  0 0 1 0 0  0 0 0 1 0"/>
		</filter>
	</defs>
	<mask maskUnits="userSpaceOnUse" x="92.049" y="53.25" width="79.773" height="84.121" id="SVGID_18_">
		<g class="st21">
			
				<linearGradient id="SVGID_19_" gradientUnits="userSpaceOnUse" x1="-183.7512" y1="-393.205" x2="-150.3302" y2="-393.205" gradientTransform="matrix(0.5382 -0.5087 0.5362 0.5673 434.4541 235.1668)">
				<stop  offset="0" style="stop-color:#13110C"/>
				<stop  offset="0.0631" style="stop-color:#171510"/>
				<stop  offset="0.1242" style="stop-color:#22201B"/>
				<stop  offset="0.1844" style="stop-color:#35332F"/>
				<stop  offset="0.2441" style="stop-color:#504E4A"/>
				<stop  offset="0.3034" style="stop-color:#72716E"/>
				<stop  offset="0.3625" style="stop-color:#9C9B99"/>
				<stop  offset="0.4203" style="stop-color:#CDCCCB"/>
				<stop  offset="0.4724" style="stop-color:#FFFFFF"/>
				<stop  offset="0.5189" style="stop-color:#F6F6F5"/>
				<stop  offset="0.5971" style="stop-color:#DCDCDB"/>
				<stop  offset="0.6975" style="stop-color:#B3B2B1"/>
				<stop  offset="0.8161" style="stop-color:#797875"/>
				<stop  offset="0.9485" style="stop-color:#312F2B"/>
				<stop  offset="1" style="stop-color:#13110C"/>
			</linearGradient>
			<polygon class="st22" points="175.344,124.434 158.141,140.932 92.049,69.751 109.258,53.25 			"/>
		</g>
	</mask>
	
		<linearGradient id="SVGID_20_" gradientUnits="userSpaceOnUse" x1="-167.1496" y1="-455.5289" x2="-167.1496" y2="-337.0742" gradientTransform="matrix(0.5382 -0.5087 0.5362 0.5673 434.4541 235.1668)">
		<stop  offset="0" style="stop-color:#FFED00;stop-opacity:0.39"/>
		<stop  offset="0.9018" style="stop-color:#FFED00;stop-opacity:0"/>
	</linearGradient>
	<polygon class="st23" points="171.822,120.87 154.617,137.372 92.049,69.751 109.258,53.25 	"/>
	<defs>
		<filter id="Adobe_OpacityMaskFilter_1_" filterUnits="userSpaceOnUse" x="88.059" y="55.724" width="60.078" height="98.403">
			<feColorMatrix  type="matrix" values="1 0 0 0 0  0 1 0 0 0  0 0 1 0 0  0 0 0 1 0"/>
		</filter>
	</defs>
	<mask maskUnits="userSpaceOnUse" x="88.059" y="55.724" width="60.078" height="98.403" id="SVGID_21_">
		<g class="st24">
			
				<linearGradient id="SVGID_22_" gradientUnits="userSpaceOnUse" x1="-333.47" y1="-24.1728" x2="-300.4448" y2="-24.1728" gradientTransform="matrix(0.6716 -0.3121 0.3271 0.7039 339.7242 23.0083)">
				<stop  offset="0" style="stop-color:#13110C"/>
				<stop  offset="0.0631" style="stop-color:#171510"/>
				<stop  offset="0.1242" style="stop-color:#22201B"/>
				<stop  offset="0.1844" style="stop-color:#35332F"/>
				<stop  offset="0.2441" style="stop-color:#504E4A"/>
				<stop  offset="0.3034" style="stop-color:#72716E"/>
				<stop  offset="0.3625" style="stop-color:#9C9B99"/>
				<stop  offset="0.4203" style="stop-color:#CDCCCB"/>
				<stop  offset="0.4724" style="stop-color:#FFFFFF"/>
				<stop  offset="0.5189" style="stop-color:#F6F6F5"/>
				<stop  offset="0.5971" style="stop-color:#DCDCDB"/>
				<stop  offset="0.6975" style="stop-color:#B3B2B1"/>
				<stop  offset="0.8161" style="stop-color:#797875"/>
				<stop  offset="0.9485" style="stop-color:#312F2B"/>
				<stop  offset="1" style="stop-color:#13110C"/>
			</linearGradient>
			<polygon class="st25" points="149.795,144.009 128.332,154.126 88.059,65.838 109.524,55.724 			"/>
		</g>
	</mask>
	
		<linearGradient id="SVGID_23_" gradientUnits="userSpaceOnUse" x1="-316.9886" y1="-86.7627" x2="-316.9886" y2="38.6537" gradientTransform="matrix(0.6716 -0.3121 0.3271 0.7039 339.7241 23.0078)">
		<stop  offset="0" style="stop-color:#FFED00;stop-opacity:0.39"/>
		<stop  offset="0.9018" style="stop-color:#FFED00;stop-opacity:0"/>
	</linearGradient>
	<polygon class="st26" points="148.137,139.206 128.332,154.126 88.059,65.838 109.524,55.724 	"/>
	<defs>
		<filter id="Adobe_OpacityMaskFilter_2_" filterUnits="userSpaceOnUse" x="24.719" y="38.021" width="89.763" height="42.122">
			<feColorMatrix  type="matrix" values="1 0 0 0 0  0 1 0 0 0  0 0 1 0 0  0 0 0 1 0"/>
		</filter>
	</defs>
	<mask maskUnits="userSpaceOnUse" x="24.719" y="38.021" width="89.763" height="42.122" id="SVGID_24_">
		<g class="st27">
			
				<linearGradient id="SVGID_25_" gradientUnits="userSpaceOnUse" x1="667.1196" y1="651.164" x2="699.6937" y2="651.164" gradientTransform="matrix(-0.0868 1.2976 -0.647 -0.0434 546.6339 -796.6948)">
				<stop  offset="0" style="stop-color:#13110C"/>
				<stop  offset="0.0631" style="stop-color:#171510"/>
				<stop  offset="0.1242" style="stop-color:#22201B"/>
				<stop  offset="0.1844" style="stop-color:#35332F"/>
				<stop  offset="0.2441" style="stop-color:#504E4A"/>
				<stop  offset="0.3034" style="stop-color:#72716E"/>
				<stop  offset="0.3625" style="stop-color:#9C9B99"/>
				<stop  offset="0.4203" style="stop-color:#CDCCCB"/>
				<stop  offset="0.4724" style="stop-color:#FFFFFF"/>
				<stop  offset="0.5189" style="stop-color:#F6F6F5"/>
				<stop  offset="0.5971" style="stop-color:#DCDCDB"/>
				<stop  offset="0.6975" style="stop-color:#B3B2B1"/>
				<stop  offset="0.8161" style="stop-color:#797875"/>
				<stop  offset="0.9485" style="stop-color:#312F2B"/>
				<stop  offset="1" style="stop-color:#13110C"/>
			</linearGradient>
			<polygon class="st28" points="24.719,80.143 27.493,38.021 107.309,43.445 104.534,85.566 			"/>
		</g>
	</mask>
	<g class="st29">
		
			<linearGradient id="SVGID_26_" gradientUnits="userSpaceOnUse" x1="683.3492" y1="577.7706" x2="683.3492" y2="713.136" gradientTransform="matrix(-0.0868 1.2976 -0.647 -0.0434 546.6339 -796.6948)">
			<stop  offset="0" style="stop-color:#FFFFFF"/>
			<stop  offset="1" style="stop-color:#FFFFFF;stop-opacity:0"/>
		</linearGradient>
		<polygon class="st30" points="24.719,80.143 27.493,38.021 114.482,50.294 85.553,79.738 		"/>
	</g>
	<defs>
		<filter id="Adobe_OpacityMaskFilter_3_" filterUnits="userSpaceOnUse" x="52.902" y="0.644" width="72.348" height="72.478">
			<feColorMatrix  type="matrix" values="1 0 0 0 0  0 1 0 0 0  0 0 1 0 0  0 0 0 1 0"/>
		</filter>
	</defs>
	<mask maskUnits="userSpaceOnUse" x="52.902" y="0.644" width="72.348" height="72.478" id="SVGID_27_">
		<g class="st31">
			
				<linearGradient id="SVGID_28_" gradientUnits="userSpaceOnUse" x1="784.2263" y1="-75.3533" x2="814.5267" y2="-75.3533" gradientTransform="matrix(-1.0585 0.67 -0.4177 -0.66 901.5789 -557.9727)">
				<stop  offset="0" style="stop-color:#13110C"/>
				<stop  offset="0.0631" style="stop-color:#171510"/>
				<stop  offset="0.1242" style="stop-color:#22201B"/>
				<stop  offset="0.1844" style="stop-color:#35332F"/>
				<stop  offset="0.2441" style="stop-color:#504E4A"/>
				<stop  offset="0.3034" style="stop-color:#72716E"/>
				<stop  offset="0.3625" style="stop-color:#9C9B99"/>
				<stop  offset="0.4203" style="stop-color:#CDCCCB"/>
				<stop  offset="0.4724" style="stop-color:#FFFFFF"/>
				<stop  offset="0.5189" style="stop-color:#F6F6F5"/>
				<stop  offset="0.5971" style="stop-color:#DCDCDB"/>
				<stop  offset="0.6975" style="stop-color:#B3B2B1"/>
				<stop  offset="0.8161" style="stop-color:#797875"/>
				<stop  offset="0.9485" style="stop-color:#312F2B"/>
				<stop  offset="1" style="stop-color:#13110C"/>
			</linearGradient>
			<polygon class="st32" points="48.195,-1.931 78.511,-21.424 121.442,49.378 95.377,76.072 			"/>
		</g>
	</mask>
	<g class="st33">
		
			<linearGradient id="SVGID_29_" gradientUnits="userSpaceOnUse" x1="796.2388" y1="-132.7706" x2="796.2388" y2="-22.9757" gradientTransform="matrix(-1.0585 0.67 -0.4177 -0.66 901.5789 -557.9727)">
			<stop  offset="0" style="stop-color:#FFFFFF"/>
			<stop  offset="1" style="stop-color:#FFFFFF;stop-opacity:0"/>
		</linearGradient>
		<path class="st34" d="M92.799,21.739c9.836,9.949,24.871,25.329,24.871,25.329l5.135-5.207l2.445,3.793L98.442,73.122
			L52.902,0.644c0,0,11.348-0.095,21.18,5.285C81.914,10.213,83.77,12.602,92.799,21.739z"/>
	</g>
	<defs>
		<filter id="Adobe_OpacityMaskFilter_4_" filterUnits="userSpaceOnUse" x="74.71" y="59.262" width="37.567" height="68.965">
			<feColorMatrix  type="matrix" values="1 0 0 0 0  0 1 0 0 0  0 0 1 0 0  0 0 0 1 0"/>
		</filter>
	</defs>
	<mask maskUnits="userSpaceOnUse" x="74.71" y="59.262" width="37.567" height="68.965" id="SVGID_30_">
		<g class="st35">
			
				<linearGradient id="SVGID_31_" gradientUnits="userSpaceOnUse" x1="-97.5623" y1="582.5135" x2="-65.3404" y2="582.5135" gradientTransform="matrix(0.8808 0.1309 -0.0767 0.5163 209.9435 -196.3411)">
				<stop  offset="0" style="stop-color:#13110C"/>
				<stop  offset="0.1285" style="stop-color:#52514D"/>
				<stop  offset="0.3864" style="stop-color:#CECDCC"/>
				<stop  offset="0.5" style="stop-color:#FFFFFF"/>
				<stop  offset="0.5647" style="stop-color:#DBDBDA"/>
				<stop  offset="0.725" style="stop-color:#868583"/>
				<stop  offset="0.8559" style="stop-color:#484743"/>
				<stop  offset="0.9508" style="stop-color:#22201B"/>
				<stop  offset="1" style="stop-color:#13110C"/>
			</linearGradient>
			<polygon class="st36" points="102.85,128.227 74.71,123.991 84.142,59.262 112.277,63.494 			"/>
		</g>
	</mask>
	
		<linearGradient id="SVGID_32_" gradientUnits="userSpaceOnUse" x1="-81.4819" y1="519.8031" x2="-81.4819" y2="645.4599" gradientTransform="matrix(0.8808 0.1309 -0.0767 0.5163 209.9438 -196.3411)">
		<stop  offset="0" style="stop-color:#FEF07C"/>
		<stop  offset="0.134" style="stop-color:#FEF077;stop-opacity:0.8514"/>
		<stop  offset="0.3091" style="stop-color:#FEF066;stop-opacity:0.6572"/>
		<stop  offset="0.5071" style="stop-color:#FEEF4B;stop-opacity:0.4378"/>
		<stop  offset="0.72" style="stop-color:#FFEE26;stop-opacity:0.2016"/>
		<stop  offset="0.9018" style="stop-color:#FFED00;stop-opacity:0"/>
	</linearGradient>
	<polygon class="st37" points="102.85,128.227 74.71,123.991 84.142,59.262 112.277,63.494 	"/>
	<defs>
		<filter id="Adobe_OpacityMaskFilter_5_" filterUnits="userSpaceOnUse" x="98.688" y="44.502" width="99.441" height="29.292">
			<feColorMatrix  type="matrix" values="1 0 0 0 0  0 1 0 0 0  0 0 1 0 0  0 0 0 1 0"/>
		</filter>
	</defs>
	<mask maskUnits="userSpaceOnUse" x="98.688" y="44.502" width="99.441" height="29.292" id="SVGID_33_">
		<g class="st38">
			
				<linearGradient id="SVGID_34_" gradientUnits="userSpaceOnUse" x1="148.0519" y1="-745.2997" x2="180.7036" y2="-745.2997" gradientTransform="matrix(-0.0422 -0.7227 0.795 -0.0465 747.8541 143.2655)">
				<stop  offset="0" style="stop-color:#13110C"/>
				<stop  offset="0.1285" style="stop-color:#52514D"/>
				<stop  offset="0.3864" style="stop-color:#CECDCC"/>
				<stop  offset="0.5" style="stop-color:#FFFFFF"/>
				<stop  offset="0.5647" style="stop-color:#DBDBDA"/>
				<stop  offset="0.725" style="stop-color:#868583"/>
				<stop  offset="0.8559" style="stop-color:#484743"/>
				<stop  offset="0.9508" style="stop-color:#22201B"/>
				<stop  offset="1" style="stop-color:#13110C"/>
			</linearGradient>
			<polygon class="st39" points="196.772,44.502 198.129,67.961 100.039,73.794 98.688,50.335 			"/>
		</g>
	</mask>
	<g class="st40">
		
			<linearGradient id="SVGID_35_" gradientUnits="userSpaceOnUse" x1="164.3471" y1="-807.0027" x2="164.3471" y2="-683.3647" gradientTransform="matrix(-0.0422 -0.7227 0.795 -0.0465 747.8541 143.2655)">
			<stop  offset="0.0122" style="stop-color:#FFE200"/>
			<stop  offset="0.9387" style="stop-color:#FFED00;stop-opacity:0"/>
		</linearGradient>
		<polygon class="st41" points="196.772,44.502 198.129,67.961 100.039,73.794 98.688,50.335 		"/>
	</g>
	<defs>
		<filter id="Adobe_OpacityMaskFilter_6_" filterUnits="userSpaceOnUse" x="80.729" y="38.928" width="76.75" height="70.45">
			<feColorMatrix  type="matrix" values="1 0 0 0 0  0 1 0 0 0  0 0 1 0 0  0 0 0 1 0"/>
		</filter>
	</defs>
	<mask maskUnits="userSpaceOnUse" x="80.729" y="38.928" width="76.75" height="70.45" id="SVGID_36_">
		<g class="st42">
			
				<linearGradient id="SVGID_37_" gradientUnits="userSpaceOnUse" x1="306.1456" y1="-875.8172" x2="327.5688" y2="-875.8172" gradientTransform="matrix(0.2867 -2.3939 0.5868 0.143 545.026 950.1832)">
				<stop  offset="0" style="stop-color:#13110C"/>
				<stop  offset="0.1285" style="stop-color:#52514D"/>
				<stop  offset="0.3864" style="stop-color:#CECDCC"/>
				<stop  offset="0.5" style="stop-color:#FFFFFF"/>
				<stop  offset="0.5444" style="stop-color:#F5F5F5"/>
				<stop  offset="0.6211" style="stop-color:#DAD9D9"/>
				<stop  offset="0.7209" style="stop-color:#ADADAB"/>
				<stop  offset="0.8399" style="stop-color:#706F6C"/>
				<stop  offset="0.9739" style="stop-color:#23211C"/>
				<stop  offset="1" style="stop-color:#13110C"/>
			</linearGradient>
			<polygon class="st43" points="156.604,48.958 146.27,97.608 87.219,84.347 105.633,36.151 			"/>
		</g>
	</mask>
	
		<linearGradient id="SVGID_38_" gradientUnits="userSpaceOnUse" x1="298.2965" y1="-778.1721" x2="298.2965" y2="-685.5417" gradientTransform="matrix(0.7777 -2.2495 0.574 0.1985 309.6386 886.4902)">
		<stop  offset="0" style="stop-color:#FFEE00"/>
		<stop  offset="1" style="stop-color:#FFED00;stop-opacity:0"/>
	</linearGradient>
	<polygon class="st44" points="157.479,52.88 140.231,109.377 80.729,84.591 112.246,52.398 114.918,49.971 125.713,38.928 	"/>
	<defs>
		<filter id="Adobe_OpacityMaskFilter_7_" filterUnits="userSpaceOnUse" x="79.475" y="46.491" width="57.658" height="55.324">
			<feColorMatrix  type="matrix" values="1 0 0 0 0  0 1 0 0 0  0 0 1 0 0  0 0 0 1 0"/>
		</filter>
	</defs>
	<mask maskUnits="userSpaceOnUse" x="79.475" y="46.491" width="57.658" height="55.324" id="SVGID_39_">
		<g class="st45">
			
				<linearGradient id="SVGID_40_" gradientUnits="userSpaceOnUse" x1="220.1923" y1="117.5776" x2="240.8588" y2="117.5776" gradientTransform="matrix(2.2556 -0.6111 0.1431 0.5284 -428.4512 152.8875)">
				<stop  offset="0" style="stop-color:#13110C"/>
				<stop  offset="0.0065" style="stop-color:#1A1813"/>
				<stop  offset="0.0625" style="stop-color:#4F4D4A"/>
				<stop  offset="0.1205" style="stop-color:#7E7D7A"/>
				<stop  offset="0.1792" style="stop-color:#A6A5A3"/>
				<stop  offset="0.2388" style="stop-color:#C6C5C4"/>
				<stop  offset="0.2996" style="stop-color:#DFDFDE"/>
				<stop  offset="0.3621" style="stop-color:#F1F1F0"/>
				<stop  offset="0.4274" style="stop-color:#FCFCFB"/>
				<stop  offset="0.5" style="stop-color:#FFFFFF"/>
				<stop  offset="0.5602" style="stop-color:#FBFBFB"/>
				<stop  offset="0.624" style="stop-color:#EEEEEE"/>
				<stop  offset="0.6896" style="stop-color:#DADAD9"/>
				<stop  offset="0.7564" style="stop-color:#BDBCBB"/>
				<stop  offset="0.8241" style="stop-color:#989795"/>
				<stop  offset="0.8927" style="stop-color:#6A6966"/>
				<stop  offset="0.9605" style="stop-color:#35342F"/>
				<stop  offset="1" style="stop-color:#13110C"/>
			</linearGradient>
			<polygon class="st46" points="137.133,89.067 90.824,101.815 79.475,59.242 125.783,46.491 			"/>
		</g>
	</mask>
	
		<linearGradient id="SVGID_41_" gradientUnits="userSpaceOnUse" x1="230.5062" y1="77.1555" x2="230.5062" y2="158.1517" gradientTransform="matrix(2.2556 -0.6111 0.1431 0.5284 -428.4512 152.8875)">
		<stop  offset="0" style="stop-color:#FFDD00"/>
		<stop  offset="0.0952" style="stop-color:#FFDE06;stop-opacity:0.9048"/>
		<stop  offset="0.2197" style="stop-color:#FFE016;stop-opacity:0.7803"/>
		<stop  offset="0.3604" style="stop-color:#FFE431;stop-opacity:0.6396"/>
		<stop  offset="0.5132" style="stop-color:#FFE957;stop-opacity:0.4868"/>
		<stop  offset="0.6756" style="stop-color:#FFEF88;stop-opacity:0.3244"/>
		<stop  offset="0.8434" style="stop-color:#FFF7C2;stop-opacity:0.1566"/>
		<stop  offset="1" style="stop-color:#FFFFFF;stop-opacity:0"/>
	</linearGradient>
	<polygon class="st47" points="137.133,89.067 90.824,101.815 79.475,59.242 125.783,46.491 	"/>
	<defs>
		<filter id="Adobe_OpacityMaskFilter_8_" filterUnits="userSpaceOnUse" x="34.274" y="17.14" width="72.889" height="65.578">
			<feColorMatrix  type="matrix" values="1 0 0 0 0  0 1 0 0 0  0 0 1 0 0  0 0 0 1 0"/>
		</filter>
	</defs>
	<mask maskUnits="userSpaceOnUse" x="34.274" y="17.14" width="72.889" height="65.578" id="SVGID_42_">
		<g class="st48">
			
				<linearGradient id="SVGID_43_" gradientUnits="userSpaceOnUse" x1="736.4892" y1="171.705" x2="757.5269" y2="171.705" gradientTransform="matrix(-0.9571 1.5006 -0.6707 -0.4278 900.8229 -997.5464)">
				<stop  offset="0" style="stop-color:#13110C"/>
				<stop  offset="0.0065" style="stop-color:#1A1813"/>
				<stop  offset="0.0625" style="stop-color:#4F4D4A"/>
				<stop  offset="0.1205" style="stop-color:#7E7D7A"/>
				<stop  offset="0.1792" style="stop-color:#A6A5A3"/>
				<stop  offset="0.2388" style="stop-color:#C6C5C4"/>
				<stop  offset="0.2996" style="stop-color:#DFDFDE"/>
				<stop  offset="0.3621" style="stop-color:#F1F1F0"/>
				<stop  offset="0.4274" style="stop-color:#FCFCFB"/>
				<stop  offset="0.5" style="stop-color:#FFFFFF"/>
				<stop  offset="0.5602" style="stop-color:#FBFBFB"/>
				<stop  offset="0.624" style="stop-color:#EEEEEE"/>
				<stop  offset="0.6896" style="stop-color:#DADAD9"/>
				<stop  offset="0.7564" style="stop-color:#BDBCBB"/>
				<stop  offset="0.8241" style="stop-color:#989795"/>
				<stop  offset="0.8927" style="stop-color:#6A6966"/>
				<stop  offset="0.9605" style="stop-color:#35342F"/>
				<stop  offset="1" style="stop-color:#13110C"/>
			</linearGradient>
			<polygon class="st49" points="34.274,48.49 54.061,17.14 107.162,51.362 87.375,82.718 			"/>
		</g>
	</mask>
	
		<linearGradient id="SVGID_44_" gradientUnits="userSpaceOnUse" x1="746.9883" y1="131.8871" x2="746.9883" y2="211.6727" gradientTransform="matrix(-0.9571 1.5006 -0.6707 -0.4278 900.8229 -997.5464)">
		<stop  offset="0" style="stop-color:#FEF07C"/>
		<stop  offset="0.1441" style="stop-color:#FEF182;stop-opacity:0.8559"/>
		<stop  offset="0.3324" style="stop-color:#FEF392;stop-opacity:0.6676"/>
		<stop  offset="0.5452" style="stop-color:#FEF6AE;stop-opacity:0.4548"/>
		<stop  offset="0.7742" style="stop-color:#FFFAD3;stop-opacity:0.2258"/>
		<stop  offset="1" style="stop-color:#FFFFFF;stop-opacity:0"/>
	</linearGradient>
	<polygon class="st50" points="34.274,48.49 54.061,17.14 107.162,51.362 87.375,82.718 	"/>
	<g>
		<radialGradient id="SVGID_45_" cx="98.1965" cy="61.6362" r="29.9981" gradientUnits="userSpaceOnUse">
			<stop  offset="0" style="stop-color:#FFFFFF;stop-opacity:0.93"/>
			<stop  offset="1" style="stop-color:#FFFFFF;stop-opacity:0"/>
		</radialGradient>
		<path class="st51" d="M135.717,60.663c0,15.315-18.193,33.969-35.172,33.969c-16.98,0-38.838-18.826-38.838-34.141
			c0-13.031,8.691-38.958,22.125-41.93L115.01,50.18l10.652-10.474C130.649,44.635,135.717,53.464,135.717,60.663z"/>
	</g>
</g>
</svg>
