<?xml version="1.0" encoding="utf-8"?>
<!-- Generator: Adobe Illustrator 22.1.0, SVG Export Plug-In . SVG Version: 6.00 Build 0)  -->
<svg version="1.1" id="Слой_1" xmlns="http://www.w3.org/2000/svg" xmlns:xlink="http://www.w3.org/1999/xlink" x="0px" y="0px"
	 width="902px" height="236.61px" viewBox="0 0 902 236.61" enable-background="new 0 0 902 236.61" xml:space="preserve">
<g>
	<path fill="#3EAF2A" d="M0,228.054c1.573-1.191,1.54-3.091,1.897-4.726c2.021-9.254,3.967-18.526,5.832-27.813
		c1.836-9.141,3.479-18.32,5.33-27.457c1.785-8.807,3.764-17.574,5.59-26.372c1.495-7.204,2.896-14.428,4.331-21.644
		c1.754-8.817,3.488-17.637,5.254-26.451c1.605-8.013,3.208-16.027,4.875-24.027c1.433-6.875,3.012-13.719,4.423-20.598
		c1.577-7.691,3.004-15.412,4.559-23.107c1.392-6.885,2.869-13.752,4.311-20.626c0.333-1.589,0.674-3.177,1.11-5.231
		c1.208,0,2.492-0.001,3.777,0c30.494,0.035,60.989,0.012,91.482,0.137c10.383,0.042,20.688,1.187,30.71,4.013
		c9.297,2.621,17.788,7.03,24.624,13.866c6.493,6.493,10.679,14.556,12.838,23.515c1.31,5.433,2.317,10.952,1.967,16.607
		c-1.295,20.932-10.223,37.1-29.232,47.046c-3.922,2.052-7.811,4.123-12.143,5.201c-0.201,0.05-0.3,0.513-0.553,0.982
		c1.871,0.837,3.701,1.759,5.605,2.49c11.611,4.46,20.228,12.199,25.477,23.492c3.941,8.477,5.802,17.238,4.178,26.741
		c-0.856,5.01-1.709,9.947-3.025,14.879c-2.248,8.428-6.479,15.749-11.408,22.729c-8.286,11.733-19.754,19.294-33.138,23.887
		c-6.782,2.328-13.901,3.527-21.037,4.621c-15.171,2.326-30.416,1.849-45.653,1.868c-30.661,0.038-61.321-0.008-91.982-0.02
		C0,230.721,0,229.387,0,228.054z M54.222,195.003c1.373,0,2.656,0,3.939,0c10.153-0.001,20.306,0.008,30.459-0.005
		c13.727-0.017,27.466,0.326,41.1-1.895c6.625-1.079,12.66-3.387,17.667-7.928c5.764-5.227,8.986-11.654,10.956-19.34
		c3.015-11.764-5.857-26.223-16.466-28.933c-5.424-1.385-10.805-2.717-16.396-2.74c-18.475-0.076-36.95-0.04-55.425-0.047
		c-0.971,0-1.942,0-3.332,0C62.556,154.41,58.436,174.476,54.222,195.003z M166.075,68.716c0-3.167,0.176-6.675-0.04-10.159
		c-0.354-5.695-2.819-10.259-7.483-13.771c-5.082-3.826-10.771-5.592-16.984-5.639c-17.165-0.131-34.33-0.115-51.496-0.156
		c-1.279-0.003-2.559,0-3.9,0c-3.794,18.466-7.496,36.484-11.287,54.932c1.117,0,1.744,0.014,2.369-0.002
		c15.941-0.413,31.894,0.688,47.84-0.691c5.751-0.497,11.483-0.859,17.106-2.184c8.517-2.007,15.548-6.262,20.06-13.963
		C163.739,74.56,164.714,71.744,166.075,68.716z"/>
	<path fill="#3EAF2B" d="M902,65.054c-2.236,2.769-2.241,6.258-3.005,9.486c-2.37,10.008-4.646,20.037-6.971,30.056
		c-0.106,0.458-0.33,0.888-0.56,1.493c-6.731-1.886-13.56-1.431-20.276-0.884c-8.978,0.732-17.762,2.79-25.91,6.835
		c-6.817,3.384-11.943,8.69-16.298,14.859c-4.305,6.098-7.034,12.877-9.455,19.877c-3.749,10.837-6.224,21.979-8.541,33.17
		c-2.584,12.485-5.148,24.974-7.672,37.472c-0.939,4.65-1.738,9.328-2.605,14.017c-3.378,0.828-35.374,1.019-41.837,0.2
		c0.079-1.431-0.022-2.925,0.271-4.337c1.292-6.235,2.715-12.442,4.056-18.667c1.65-7.662,3.233-15.339,4.904-22.996
		c1.427-6.538,2.981-13.048,4.403-19.586c1.877-8.624,3.66-17.269,5.521-25.896c1.447-6.706,2.968-13.395,4.425-20.098
		c1.526-7.023,3.023-14.052,4.518-21.081c1.461-6.871,2.873-13.754,4.368-20.618c0.865-3.973,1.85-7.919,2.822-12.049
		c12.865,0,25.632,0,38.824,0c0.023,5.783-2.315,11.067-3.457,16.555c-1.116,5.362-2.685,10.629-4.076,16.021
		c1.637,0.614,2.264-0.889,2.926-1.846c5.209-7.527,11.131-14.449,17.903-20.579c7.727-6.994,16.074-13.08,26.432-15.701
		c1.102-0.279,2.221-0.546,3.349-0.657c4.6-0.453,9.215-0.142,13.857-0.645c3.925-0.425,8.049,0.998,12.086,1.603
		C902,62.387,902,63.721,902,65.054z"/>
	<path fill="#3EAF2B" d="M633.908,161.081c-0.319,1.192-0.789,2.107-0.77,3.011c0.16,7.608,1.086,15.111,4.872,21.866
		c6.061,10.812,14.881,17.111,27.803,17.275c13.424,0.17,23.418-5.59,30.932-16.318c1.507-2.152,2.93-4.364,4.477-6.674
		c14.538,0,29.122,0,44.17,0c-0.539,1.37-0.791,2.476-1.361,3.381c-3.938,6.252-7.584,12.733-12.031,18.605
		c-3.99,5.268-8.676,10.066-13.427,14.689c-8.171,7.952-18.197,12.829-29.013,16.052c-10.401,3.099-21.147,3.878-31.873,2.935
		c-15.337-1.349-29.217-6.478-41.233-16.617c-13.028-10.992-20.612-25.062-24.195-41.3c-1.875-8.497-2.735-17.299-2.137-26.099
		c1.633-24.054,9.125-45.767,24.81-64.526c9.939-11.887,22.378-19.828,36.684-24.909c5.154-1.83,10.701-2.821,16.252-3.61
		c7.3-1.038,14.569-1.032,21.825-0.669c12.562,0.629,24.016,4.727,34.188,12.26c10.02,7.42,16.468,17.437,20.613,28.949
		c1.757,4.881,2.776,10.037,3.607,15.23c1.59,9.934,0.988,19.882,0.689,29.814c-0.152,5.045-1.327,10.06-2.091,15.081
		c-0.068,0.445-0.521,0.831-1.016,1.576C708.616,161.081,671.352,161.081,633.908,161.081z M637.791,132.94
		c23.862,0,46.944,0,70.168,0c0.522-7.844,0.5-15.474-2.123-22.698c-2.957-8.146-7.954-14.574-16.596-17.713
		c-4.696-1.706-9.401-1.54-14.182-1.575c-5.449-0.04-10.408,1.809-14.816,4.674c-8.85,5.752-15.036,13.743-18.3,23.861
		C640.547,123.812,639.26,128.169,637.791,132.94z"/>
	<path fill="#3EAF2A" d="M320.24,67.127c13.445,0,26.405,0,39.79,0c-1.021,5.607-2.003,10.994-3.115,17.101
		c2.196-1.691,3.977-2.94,5.621-4.348c9.03-7.738,19.605-12.514,30.889-15.719c8.698-2.47,17.621-4.314,26.709-3.952
		c14.743,0.588,26.938,6.524,36.128,18.325c3.347,4.298,6.474,8.659,8.515,13.77c2.933,7.345,4.237,14.741,2.397,22.636
		c-1.075,4.616-1.305,9.422-2.184,14.092c-1.389,7.384-2.996,14.727-4.522,22.085c-1.826,8.805-3.659,17.608-5.495,26.411
		c-1.501,7.197-3.011,14.392-4.519,21.587c-1.81,8.635-3.626,17.268-5.43,25.905c-0.465,2.229-0.894,4.465-1.37,6.852
		c-15.829,0.764-31.512-0.583-47.505-0.918c1.737-8.318,3.418-16.416,5.12-24.509c1.579-7.512,3.19-15.017,4.769-22.528
		c2.05-9.753,4.093-19.507,6.118-29.265c1.66-8,3.317-16.001,4.922-24.012c0.93-4.643,2.067-9.276,2.525-13.971
		c0.329-3.373-0.484-6.771-2.177-9.886c-1.563-2.875-3.687-5.102-6.69-6.351c-4.723-1.964-9.724-2.919-14.787-3.245
		c-4.644-0.299-9.092,0.948-13.389,2.681c-12.285,4.955-21.179,13.659-27.953,24.866c-4.212,6.968-6.437,14.649-8.504,22.367
		c-1.984,7.41-3.51,14.947-5.107,22.456c-1.971,9.27-3.839,18.562-5.692,27.857c-1.503,7.536-2.884,15.097-4.389,22.633
		c-0.763,3.822-1.682,7.612-2.508,11.317c-3.946,0.818-30.926,1.046-41.353,0.368c0-0.909-0.159-1.876,0.025-2.774
		c1.862-9.126,3.839-18.229,5.662-27.362c1.537-7.702,2.855-15.447,4.377-23.152c1.329-6.727,2.827-13.42,4.213-20.136
		c1.585-7.678,3.144-15.361,4.687-23.048c1.802-8.978,3.551-17.967,5.367-26.943c1.491-7.371,3.1-14.719,4.554-22.097
		c1.14-5.782,2.101-11.599,3.21-17.388C319.264,68.234,319.842,67.728,320.24,67.127z"/>
	<path fill="#3FAF2B" d="M567.03,15.188c-3.343,16.785-6.467,33.104-9.584,49.837c11.129,0,21.561,0,32.474,0
		c0.586,5.744-1.696,10.794-2.475,16.016c-0.787,5.272-2.062,10.472-3.154,15.853c-11.261,0-22.039,0-33.074,0
		c-1.423,6.552-2.846,12.895-4.171,19.259c-1.964,9.433-3.878,18.876-5.775,28.322c-1.448,7.209-2.832,14.431-4.258,21.645
		c-1.521,7.695-3.067,15.385-4.575,23.082c-0.22,1.126-0.391,2.28-0.407,3.423c-0.087,6.126,3.356,10.097,9.474,10.382
		c5.94,0.277,11.921,0.511,18.216-0.973c-0.312,5.534-1.867,10.639-2.804,15.829c-0.929,5.141-2.161,10.228-3.368,15.846
		c-2.839,2.018-6.784,1.591-10.403,2.19c-3.729,0.617-7.572,0.698-11.367,0.71c-3.59,0.012-7.212-0.141-10.765-0.624
		c-9.411-1.279-18.337-3.646-24.997-11.258c-4.183-4.78-6.374-10.327-6.945-16.471c-0.614-6.604,0.12-13.145,1.594-19.654
		c1.407-6.213,2.222-12.558,3.432-18.819c1.239-6.41,2.653-12.786,3.97-19.182c1.681-8.162,3.314-16.334,5.02-24.49
		c1.94-9.272,3.946-18.53,5.888-27.801c0.123-0.587-0.061-1.238-0.124-2.192c-10.637,0-21.058,0-31.957,0
		c2.133-10.585,4.179-20.741,6.231-30.926c10.732,0,21.032,0,31.745,0c2.205-5.259,2.386-11.031,3.749-16.493
		c1.383-5.542,2.309-11.203,3.296-16.837c0.981-5.602,1.732-11.247,3.321-16.675C539.182,15.188,552.805,15.188,567.03,15.188z"/>
	<path fill="#3EAF2A" d="M251.194,66.1c13.933,0,27.558,0,41.466,0c1.055,3.029-0.673,5.919-1.162,8.838
		c-1.266,7.564-2.983,15.052-4.507,22.573c-1.427,7.043-2.82,14.092-4.257,21.133c-1.567,7.678-3.17,15.348-4.75,23.023
		c-1.448,7.035-2.88,14.074-4.329,21.109c-1.548,7.516-3.115,15.029-4.661,22.545c-1.48,7.198-2.949,14.399-4.414,21.6
		c-1.662,8.165-3.316,16.331-4.985,24.556c-3.37,0.781-35.299,0.961-41.978,0.137c2.312-13.832,5.575-27.449,8.318-41.165
		c2.788-13.939,5.455-27.903,8.304-41.83c2.812-13.747,5.846-27.449,8.673-41.193C245.738,93.691,248.429,79.929,251.194,66.1z"/>
	<path fill="#3FAF2B" d="M299.974,38.883c-14.42,0-28.015,0-42.143,0c2.68-13.085,5.306-25.904,7.935-38.736
		c14.267,0,28.008,0,42.121,0C305.221,13.199,302.6,26.029,299.974,38.883z"/>
</g>
</svg>
