<?xml version="1.0" encoding="utf-8"?>
<!-- Generator: Adobe Illustrator 22.1.0, SVG Export Plug-In . SVG Version: 6.00 Build 0)  -->
<svg version="1.1" id="Слой_1" xmlns="http://www.w3.org/2000/svg" xmlns:xlink="http://www.w3.org/1999/xlink" x="0px" y="0px"
	 width="464.2px" height="144.485px" viewBox="0 0 464.2 144.485" enable-background="new 0 0 464.2 144.485" xml:space="preserve">
<g>
	<path fill="#ED1D25" d="M120.6,73.428c-2.5-0.7-10.1-0.5-13.1-0.1l-4.3,14.4c-0.5,1.7-0.9,3.4-1.5,5l-5.1,17c-0.2,0.7-0.8,2,0.6,2
		h11.5c1,0,1.2-1.4,1.6-2.9l9.7-32.7C120.3,75.228,120.6,74.428,120.6,73.428z"/>
	<path fill="#ED1D25" d="M123.1,86.028c-1.5,0-1.4,1-1.8,2.3l-2,6.4c-0.3,1.1-0.6,2.2-1,3.3c-0.3,1-0.7,2-1,3.1l-3.1,9.8
		c0,0.6,0.4,1,1,1h11.2c0.7,0,1-0.6,1.2-1l6.8-21.8C135.6,85.128,137.1,86.028,123.1,86.028z"/>
	<path fill="#ED1D25" d="M163.9,86.328c-0.6-0.3-1.2-0.5-1.9-0.7c-4.1-1.2-8.9-0.5-12.9,0.6c-0.7,0.2,0.1,0-0.5,0.2
		c-0.1,0-0.1,0-0.2,0.1l-2,0.3c-2.5,0-2.1-0.6-7.5-0.6l-6.2,19.7c-0.7,2-2.4,6-0.7,6h11.5c1,0,1.4-2.7,1.8-4.1l2.8-9.2
		c0.6-2.2,0.7-2.8,3.5-2.8c0.9,0,2.1-0.1,2.5-0.1c0.9,0.1,1.3,0.8,1.2,1.6l-2.9,9.8c-0.1,0.2-0.1,0.4-0.2,0.6
		c-0.6,2.2-1.8,4.2-0.3,4.2c1.7,0,11.4,0.3,12.2-0.3c0.3-0.2,0.1,0,0.3-0.4l0.2-0.5c0.2-0.5,0.2-0.6,0.3-1.1l3.6-11.8
		C169.7,93.728,168.5,88.528,163.9,86.328z"/>
	<path fill="#ED1D25" d="M63.3,79.428c-1.5-6.5-7.1-5.9-11.4-6c-1.4,0-2.3-0.3-4.1-0.2c-8,0-21.2-0.4-28.1,0.2
		c-4.9,0.4-8.4,4.5-10.5,8.7c-0.8,1.7-4,12.1-5.1,15.3l-0.1,0.3c0,0.1,0,0.1-0.1,0.2c-0.6,2.9-3.9,11.2-3.9,13.7l12.6,0.2
		c1-0.3,1-1.2,1.3-2l4.4-12.6c4.1-12.4,3.4-10.7,9.4-10.7c0,1.1-0.1,0.9-0.3,1.7l-3.7,12.8c-0.2,0.6-0.3,1-0.5,1.6l-2,6.4
		c-1.1,3.8-1,2.8,11.6,2.8c2.2,0,2.4-3.1,3.1-5.5c0.6-1.9,6.1-18.9,6.2-19.9h5c0.8,1.2,1,0.9,0.4,2.7l-3.2,10.3
		c-0.3,1-0.6,1.9-0.9,2.9c-0.9,2.8-2.3,6.3-2.3,9.2c2.3,0.5,9.8,0.3,12.7,0.3c1.2,0,1.4-1.7,1.7-2.6l3.1-9.9
		c0.7-2.2,1.5-4.4,2.2-6.5C62.2,88.328,64.3,83.828,63.3,79.428z"/>
	<path fill="#ED1D25" d="M441.1,80.228c2-2.7,1.4-4.9-1.4-6.4c-4.6-2.3-12.9,1-12.9,5.7C426.8,85.028,437.2,85.428,441.1,80.228z"/>
	<path fill="#ED1D25" d="M125.1,83.228c2.4,1.2,6.3,0.7,8.4-0.3c2.2-0.9,4.7-3.2,4.7-5.6c0-2.2-2.8-4.1-5-4.1c-4.1,0-6.1,0-9.3,3.4
		c-0.9,1-1.3,2.2-1.1,3.6C123.1,81.728,123.9,82.628,125.1,83.228z"/>
	<path fill="#ED1D25" d="M211.7,73.228c-2.3-0.5-9.2-0.3-12-0.3c-1.2,0-1.4,0.6-1.7,1.8c-0.3,1.1-0.5,1.8-0.8,2.8
		c-0.2,0.6-0.3,0.8-0.4,1.3c-0.3,1.3-1.1,3.6-1.1,4.5c-6.5,0-9.2-1.2-16,3.5c-4.7,3.3-9.2,10-9.2,15.5c0,3-0.1,4.9,2,7.4
		c1.9,2.2,5.9,2.8,8.6,1.8l1.6-0.6c0.9-0.4,1.7-1,2.4-1.7c0.2-0.1,0.4-0.3,0.5-0.5l0.1-0.1c0-0.1,0.1-0.1,0.1-0.1
		c0.1,0,0.2-0.2,0.2-0.2c1-1.1,2.1-2.5,2.2-4.1c-1.6,0-9.8,3.8-5.8-7c0.5-1.3,1.4-2.9,2.2-3.8c1-0.9,2.1-2.1,3.6-2.4
		c7-1.4,2.5,7.1,1.2,12l-2.1,6.8c-0.3,1-0.4,1.8,0.7,1.8c2.9,0,10.2,0.3,12.5-0.2c0.3-0.6,0.5-1.5,0.7-2.2l7.8-26.2
		C209.6,81.028,211.6,74.428,211.7,73.228z"/>
	<path fill="#ED1D25" d="M99.3,85.728c-2.4-0.6-2.9,0.6-8.6-1.2c-0.5-0.2-1.2-0.4-1.8-0.6c-5.4-1.2-10.1-1.3-15.2,1.2
		c-3.8,1.9-7.5,5.4-9.5,9.2l-1.2,2.6c-1,2.1-1.6,3.9-1.6,6.4c0,3.3,1,6.7,4,8c2.2,1,4.3,1.3,6.6,0.5c1.6-0.6,2.5-1,3.9-2.1l0.1-0.1
		l1-0.9c0.4-0.5,0.8-1,1.2-1.5c0.3-0.5,0.8-1.3,1-2c0.7-2.4-3.4,1.4-6-1c-0.6-0.5-0.8-1.3-0.9-2.2c-0.1-1.6,1.1-4.7,1.9-6.2
		c0,0,0.2-0.5,0.3-0.5c0.3-0.6,0.8-1.2,1.3-1.8l2.9-2.2c1.2-0.5-0.9-0.3,2.3-0.3c2.7,0,2.8,2.1,2.2,4.1c-0.3,1-0.5,1.8-0.8,2.8
		l-2.6,8.2c-0.3,0.9-0.5,1.8-0.8,2.8c-1.3,3.9-0.8,3,6.3,3h4.6c0.9,0,0.6-0.2,1.7-0.2l7.6-24.4C99.8,85.728,99.3,86.828,99.3,85.728
		z"/>
	<path fill="#ED1D25" d="M435.4,85.828l-4.1-0.2c-0.6,0-0.9,0.1-1.2,0.1c-0.8,0-0.2-0.1-1.2-0.1c-3.9,0-2.9,0.6-4.5,5.3
		c-0.3,0.8-0.3,1-0.5,1.6l-3.5,11.6c-0.4,1.4-2,6.1-2,6.8c0,1.2,2.9,0.7,5.3,0.7c2.1,0,4.2-0.1,6.2,0.1c0.7,0.1,1.4,0.1,1.8-0.7
		l6.1-19.8C440.1,84.128,439.5,85.828,435.4,85.828z"/>
	<path fill="#ED1D25" d="M461.9,86.028c-2.6-1.3-7.9-0.7-10.8-0.3c-4,0.8-1.9,0-5.9,0c-1.6,0-1.2,0.2-2.2,0.2c0,0.9-2.2,7.3-2.7,9.1
		l-0.1,0.4c0,0.1-0.1,0.4-0.2,0.5l-3.1,9.9c-0.3,0.9,0,0.1-0.3,0.7l-0.1,0.3c-0.1,0.2-0.1,0.4-0.2,0.6c-1.8,5.6-3,4.4,10.7,4.4
		c1.8,0,2.4-3.1,3-5.6l1.9-6.7c1.4-4.8,4-3.5,6.5-3.5l5.8-7.2C464.2,87.428,463,86.628,461.9,86.028z"/>
	<path fill="#ED1D25" d="M414.4,85.028c-1.2-0.4-2.2-0.8-3.5-1c-0.6-0.1-1.3-0.2-2-0.4c-4.1-0.9-9.5-0.2-12.9,1.8l-4.6,3.3
		c-0.1,0.1-0.2,0.2-0.3,0.2l-2.7,3.3c-1.7,2.5-2.2,3.6-3.3,6.4c-0.3,0.8-0.8,2.9-0.8,3.9c0,3,0.2,5.8,2.6,8
		c5.3,4.7,15.1-0.9,15.2-6.1c-0.8,0-9,3.3-6.4-5.2l0.9-2.4c0.2-0.5,0.8-1.5,1.1-2l0.4-0.5c1.4-1.5,2.9-3.3,5.6-3.3
		c4.3,0,1.5,6.2,1.2,7.2l-2.2,7.3c-0.1,0.3-0.2,0.7-0.3,1.1c-0.6,1.8-2.1,5.2-0.6,5.2h11.5c1,0,1.3-1.6,1.6-2.5
		c0.4-1.1,0.7-2.3,1-3.3s0.7-2,1-3.1l5-16.3C421.9,84.828,419.1,86.428,414.4,85.028z"/>
	<path fill="#ED1D25" d="M228.3,84.928c-1.5,0-2.4,0.3-3.8,0.5c-1.3,0.2-2.5,0.5-3.6,0.9c-0.1,0-0.1,0.1-0.2,0.1
		c-2.5,1-3.5,1.5-5.9,3c-3.5,2.4-7.5,7-7.5,10.7c0,4.1-0.1,6.1,3.9,9.3c1.3,1,1.6,1.1,3.3,1.8c7.3,2.9,18.1-0.8,23.5-6.9
		c0.3-0.3,0.2-0.2,0.5-0.5C245.8,95.128,240.5,84.928,228.3,84.928z M221.2,102.928c-2.4-0.9-2.4-1.7-2.4-3.7c0-1.4,1.2-2.4,2-3
		c2.9-2.8,9.5-2.6,9.4,1.6C230.1,101.528,224.5,104.128,221.2,102.928z"/>
	<path fill="#ED1D25" d="M274.253,73.873C274.304,73.928,274.54,74.113,274.253,73.873L274.253,73.873z"/>
	<path fill="#ED1D25" d="M380.8,38.128c-1.3-1-3.8,0.3-7.9-1c-1.2-0.4-3.8-1.9-4.5-2c0.2-0.9,0.8-2.4,0.6-3.5
		c-0.3-1.1-1.4-1.6-2.3-2.1l-5.8-3.1c-8.7-5-6.4-8.4-9.4-8.4c-0.7,0-2.2,0.7-2.6,1c-0.3,0.2-0.7,0.7-0.9,1c-0.2,0.3-0.5,1-0.6,1.3
		c-2.3-1.5-2.1-2.2-6.2-3.4l-3.2-0.9c-5-1.6-6.1-3.9-8.2-0.8c-0.7,1-0.9,2.1-0.9,3.4c-3.5-0.1-0.1-1.2-7.8-0.1
		c-0.8,0.1-1.4,0.1-2.2,0.2c-1.5,0.2-3.2,0.9-6.1,0.3c-0.1,0-0.5-0.1-0.5-0.1h-0.6c-0.8,0.1-1.1,0.8-1.2,1.5c-0.4,2.6,0,3.4,0.2,5.8
		c-4.8,0-7.4,1-12.2,1c-2,2.9-0.1,6.6,1.6,9.2c0.4,0.6,0.8,1,1,1.6c-1.2,0.3-1.8,0.5-3.1,0.7c-1.8,0.2-1.4,0.7-1,2l0.9,4.9
		c0.1,0.5,0.3,0.9,0.4,1.5c1.4,6.2,3.4,11.7,6.3,17c1.3,2.4,2.7,4.9,4.4,7.1c6.9,9.4,4.1,6.4,10.9,2.5l1.1-0.6
		c0.5-0.3,0.6-0.3,1.2-0.5c2.4-0.9,4.6-1.7,7.3-2c4-0.6,6.3-0.6,10.2,0.5c1.1,0.3,1.7,0.4,2.6,0.7c5.5,2.2,9.9,5.1,13.2,10.1
		c0.9,1.3,1.8,2.7,2.5,4.3c4.6,10.5,1.9,23.9-6.8,31.4l-5.1,3.3c-2.6,1.3-4.9,2-7.8,2.7c-0.3,0.1-2.8,0.3-3.1,0.3
		c-1.1-0.1-0.9-1.2-0.9-2.6c2.6-0.6,4.4-0.6,7.1-1.6c0.6-0.2,0.6-0.2,1-0.4c0.4-0.1,0.7-0.3,1.1-0.5c10.9-5.1,16.1-18.1,12.1-29.7
		c-0.4-1.1-0.9-2.2-1.5-3.1c-3.6-6.5-9-10.2-16-12c-3.7-1-8.6-0.6-12.3,0.5c-2.3,0.7-4.4,1.9-6.2,3.1c-2,1.3-4.4,4.1-5.3,4.3
		c-1.8-1.2-5-4.6-6.5-6.7c-0.4-0.5-0.7-1-1.1-1.5c-2.4-2.9-4.4-6.4-6.2-9.6l-2.6-5.3c-2.5-5.4-4.8-12.6-5.8-18.5l-1.2-6.7
		c-0.1-0.9,0-1.6-0.2-2.5c-0.6-4-0.7-8.8-0.6-13.1c0-1.3,0.2-1.4,0.3-2.6c0-1.4,0.3-7.2,0.7-8.2l1.5-7.4c-1-0.1-0.8-0.3-1.9-0.5
		c-2.6-0.5-5.6-0.5-8.2,0.5c-1.6,0.7-3.1,1.7-4.2,3.1c-2.8,2.7-5,8.7-5,13.4c0,3.6-0.3,7.6,0.4,11.2c0.5,2.6,0.8,5,1.7,7.7
		c2,6.3,2.2,7.3,5,13.5c0.7,1.6,1.3,2.7,2.1,4.2c0.4,0.8,0.7,1.2,1.1,2l3.6,5.8c0.1,0.1,0.2,0.3,0.3,0.4l2.2,3.1
		c0.6,0.8,0.7,1.1,1.3,1.8l4.2,5.1c0.8,1,2,2.1,3.1,3.2l0.7,0.7c0.4,0.3,0.5,0.5,0.8,0.8c0.6,0.6,1,1,1.6,1.6c1.1,1.1,2.1,1.9,3.2,3
		c1.7,1.6,5.7,3.9,6.9,5.6l-1,2.6c-3.1-1.6-6.6-4.1-9.3-6.3l-14.3-13.1c-0.3-0.3-0.2-0.3-0.5-0.5l-8.2-10.7l-3.3-6
		c-0.5-0.8-0.7-1.4-1.1-2.2c-2.4-4.7-6.2-14.3-6.2-19.1c-1.8,0-3.7,0.7-5.2,1.5c-0.9,0.6-1.6,1.3-2.2,2.1
		c-5.5,6.9-3.4,16.2,0.7,23.2c3.3,5.6,8.2,11.1,13.3,15.3c0.025,0.021,0.033,0.028,0.053,0.044
		c-0.029-0.031,0.003-0.019,0.247,0.156c0.3,0.2,0.3,0.2,0.5,0.5c6.7,5.7,9.7,7.1,17.1,11.4c4.3,2.5,9.2,4.4,13.8,6.4
		c0.5,0.2,0.7,0.3,1.2,0.5c0.9,0.3,1.7,0.7,2.5,0.9c-0.8,1.7,0.9,3.3-1.9,2.7c-4.1-0.9-8.2-2.1-12.2-3.4l-7.5-2.8
		c-4.8-2.1-9.3-4.4-13.6-7.3c-0.5-0.4-1-0.6-1.5-0.9c-3.7-2.3-7-5.2-10-8.2c-1.2-1.2-4.2-4.3-4.6-5.9c-1.4,0.1-2.2,1.7-2.8,2.7
		c-0.4,0.6-0.7,1.2-0.9,2c-0.1,0.4-0.2,0.8-0.3,1.1c-0.7,2.5-0.3,6,0.6,8.4c1.2,3,3.4,5.4,5.8,7.4c0.5,0.4,0.7,0.7,1.1,1
		c0.4,0.3,0.8,0.6,1.3,0.9c1.8,1.2,3.4,2.3,5.4,3.3c3.6,1.8,7.3,3,11.3,4.1c2.9,0.7,6.3,1.6,9.2,1.8l4.1,0.5
		c3.6,0.3,9.1,0.5,12.7,0.2c3.9-0.3,3.3-1.2,4.1,1.7c0.2,0.8,0.2,0.2,0.3,1.2c-1.3,0-0.9,0.3-2,0.5c-1.1,0.2-1.4,0-2.4,0.3
		c-3.6,0.9-10.9,1.2-14.8,1.2c-7.4,0-16.4-1.6-22.7-4.4c-1.8-0.8-3.5-1.4-5.2-2.5c-1-0.6-2.2-1.7-3.3-1.8c-0.1,0.5-0.2,1-0.3,1.6
		c-1,3.9,0,8.5,3.1,11.3c0.5,0.5,0.7,0.5,1.2,1c4.8,4.6,12.4,5.4,18.9,5.4c1.7,0,2.7-0.3,4.1-0.5c1.8-0.2,2.5-0.3,4.2-0.6
		c0.4-0.1,1.3-0.2,1.8-0.3c4.9-1.4,7.7-2.2,12.8-4.2c0.1,0,0.3-0.1,0.3-0.1c1.6-0.7,4.3-2.1,5.9-2.4c0.6,0.8,1.2,2,1.7,2.9
		c-0.4,0.3-0.4,0.3-0.8,0.6c-0.4,0.3-0.7,0.4-1,0.6c-0.8,0.5-1.3,0.8-2.1,1.3c-0.7,0.5-1.2,0.8-1.9,1.2l-4.3,2.2
		c-0.9,0.4-1.5,0.6-2.4,1l-1.2,0.5c-4.9,1.8-9.4,3-14.7,3.3c-1.1,0.1-1.5,0.3-2.9,0.3c-1.7,0-4.6-0.2-6.1-0.7
		c-1.2-0.3-1.6-0.5-2.5-0.3c0.1,1.3,0.7,3.3,1.1,4.4c0.5,1.3,1.5,2.6,2.5,3.3c4.6,3.2,11,3,16.2,1.6l3.2-1.2
		c2.4-0.9,5.3-2.5,7.4-4.1c3.3-2.5,6.3-5.1,9.3-8c0.8-0.8,2-2.4,3.1-2.7l1.9,1.9c-0.3,1.2-1.6,2.4-2.5,3.3c-0.5,0.6-0.8,0.9-1.3,1.6
		l-5.9,5.9c-2.8,2.4-6.3,4.6-9.6,6l-6.2,1.9c-1.5,0.3-1.2-0.1-2.5,0.6c2.9,4.3,4.6,5,9.8,5c6.2,0,12.5-7.1,15.6-11.5
		c0.4-0.5,0.7-0.9,1.1-1.5l3.1-5.4c0.6-1.1,1.2-2.7,1.8-3.7l2.4,1.2c-0.2,0.9,0,0.1-0.2,0.7c-1.7,5.4-4.3,10.5-8,14.8
		c-3.2,3.8-7.8,5.4-8.3,6.1c0.7,2.6,7.2,4.5,12.4-0.3l0.6-0.6c1.3-1.3,2.4-3.1,3.1-4.8c0.2-0.5,0.4-1,0.7-1.5c0.9-2.3,2-6.8,2.4-9.1
		c0.2-1.5,0.5-2.6,0.5-4.1c1.2,0,1.3,0.3,2.6,0.3c0,3.9,0.1,7.9-0.8,11.7c-0.1,0.3-0.5,1.6-0.6,2l-0.1,0.4c-0.1,0.1-0.2,0.4-0.2,0.5
		c-1,2.3-2.5,3.7-3.5,5.6c1.6,0.9,3.7,0.9,5.4,0.4c0.8-0.3,0.6-0.1,1.3-0.4c1.5-0.7,2.7-1.7,3.5-3.2c1.2-2.4,0.8-5.4,0.8-8
		c0-2.6-1.9-3.7,1.2-3.9c0.9-0.1,1.2-0.1,2.2-0.3l5.9-1.3c4.2-1.4,7.8-3.1,11.5-5.6c1.8-1.2,3.6-3.1,4.9-4.9c3.6-5,4.3-7.6,6.2-13.2
		c0.9-2.7,0.3-1.4,2.7-2.1c1.4-0.4,1.4-2,1.1-3.3c-0.3-1-0.2-1-0.9-1.6c-0.8-0.6-0.6-0.4-1.2-1.2c-0.7-1-1.5-2.2-1.5-3.8
		c0-2,0.6-1.6,1.7-2.4c3.6-2.4,1.5-4.1-1-5.8c-2.8-1.8-4.4-3.8-5.2-7.3c-0.4-1.8-0.4-3.8,0.3-5.4c2.7,0,4.8,1.9,8-0.2
		c2.2-1.4,2.6-5.4,2.6-7.7c-0.9,0-1,0.2-1.8,0.6c-2.3,1.1-5.8,0.8-7.3-1.5c-0.8-1.2-0.7-3.4-0.4-5.2c0.5-2.7,3.3-6.3,6.1-6.3
		c1.7,0,3.6-0.1,4.6,1.4c0.3,0.5,0.9,2.2,0.9,2.9c2-0.2,4.1-4.3,4.6-5.9c0.2-0.6,0.1-0.8,0.3-1.4c0.6-2.8-0.1-1.4-0.1-3.2
		C381.1,41.328,383,39.828,380.8,38.128z M341.2,28.628c-0.7,0-1.9,1.4-1.9,2.4c0,2.1,0.4,1.6,0.5,2.9c-0.9,0-1.1,0-1.9-1
		c-1.1-1.4-1-1.9-1-3.1c0-0.6,0.3-1.1,0.4-1.5c2-3.6,7.5-1.9,7.7,1C343.8,29.028,343.2,28.628,341.2,28.628z"/>
</g>
</svg>
