<?xml version="1.0" encoding="utf-8"?>
<!-- Generator: Adobe Illustrator 22.1.0, SVG Export Plug-In . SVG Version: 6.00 Build 0)  -->
<svg version="1.1" id="Слой_1" xmlns="http://www.w3.org/2000/svg" xmlns:xlink="http://www.w3.org/1999/xlink" x="0px" y="0px"
	 width="283.5px" height="113.2px" viewBox="0 0 283.5 113.2" enable-background="new 0 0 283.5 113.2" xml:space="preserve">
<path fill="#D24A43" d="M168.6,106h3.6l-1.2-6.8c-0.1-0.5-0.2-1.2-0.3-2.1c-0.1-0.8-0.1-1.8-0.2-2.8h-0.3c-0.1,1.2-0.2,2.3-0.3,3.2
	c-0.1,0.9-0.2,1.5-0.2,1.7L168.6,106L168.6,106z M162.2,112.8l5.7-21.5h5.3l5.6,21.5h-5.2l-0.7-3.5h-5l-0.8,3.5H162.2L162.2,112.8z
	 M186.4,112.8h-4.9V91.3h4.9V112.8L186.4,112.8z M190.6,112.8V91.3h6.1c2.7,0,4.7,0.5,6,1.5c1.4,1,2,2.5,2,4.5
	c0,1.4-0.4,2.5-1.1,3.5c-0.7,0.9-1.7,1.6-3,2l4.5,10H200l-4.3-10.1h-0.5v10.1H190.6L190.6,112.8z M195.3,100.5c0.1,0,0.2,0,0.3,0
	s0.2,0,0.3,0c1.3,0,2.2-0.3,2.9-0.8s1-1.3,1-2.3s-0.3-1.7-1-2.2s-1.7-0.7-3-0.7h-0.5V100.5L195.3,100.5z M211,112.8l-4.3-21.5h5l1,8
	c0.1,1.1,0.3,2.5,0.5,4.2s0.4,3.6,0.5,5.7h0.3c0.2-2.4,0.4-4.5,0.6-6.4c0.2-1.9,0.3-3.2,0.4-3.9l1.2-7.4h4.7l1.1,8.4
	c0.2,1.3,0.3,2.7,0.5,4.3c0.2,1.6,0.3,3.3,0.4,5h0.3c0.1-1.9,0.3-3.8,0.5-5.5c0.2-1.8,0.4-3.4,0.6-5l1.1-7.3h4.7l-4.4,21.5h-5
	l-1.2-8.8c-0.3-1.9-0.5-3.5-0.6-4.9s-0.2-2.7-0.3-4h-0.3c-0.2,2-0.4,3.8-0.6,5.4c-0.2,1.6-0.4,2.8-0.5,3.6l-1.3,8.7H211V112.8z
	 M236.8,106h3.6l-1.2-6.8c-0.1-0.5-0.2-1.2-0.3-2.1c-0.1-0.8-0.1-1.8-0.2-2.8h-0.3c-0.1,1.2-0.2,2.3-0.3,3.2
	c-0.1,0.9-0.2,1.5-0.2,1.7L236.8,106L236.8,106z M230.4,112.8l5.7-21.5h5.3l5.6,21.5h-5.2l-0.7-3.5h-5l-0.8,3.5H230.4L230.4,112.8z
	 M251.5,112.8V104l-5.7-12.7h5.3l1.9,5.6c0.3,0.9,0.5,1.7,0.7,2.4c0.2,0.7,0.3,1.4,0.4,2.1c0.1-0.9,0.3-1.7,0.4-2.5
	c0.2-0.8,0.4-1.5,0.6-2.1l1.9-5.5h5.2l-5.8,12.8v8.6h-4.9V112.8z M262.5,107.9l4.3-1c0.1,0.9,0.4,1.6,0.9,2.1s1.1,0.7,1.8,0.7
	c0.6,0,1.2-0.2,1.6-0.6s0.6-0.9,0.6-1.5s-0.2-1.2-0.6-1.7s-1.4-1.3-2.8-2.4c-2-1.5-3.4-2.7-4.1-3.7s-1.1-2.1-1.1-3.2
	c0-1.7,0.6-3,1.8-4c1.2-1,2.8-1.5,4.8-1.5c1.9,0,3.4,0.4,4.5,1.2c1.1,0.8,1.9,2,2.2,3.5l-4,1.2c-0.1-0.9-0.4-1.5-0.8-2
	c-0.4-0.4-1-0.7-1.6-0.7s-1.2,0.2-1.5,0.5c-0.4,0.4-0.6,0.8-0.6,1.4c0,1,1.1,2.3,3.2,3.8c0.5,0.4,0.9,0.6,1.2,0.8
	c1.5,1.1,2.6,2.2,3.2,3.2s0.9,2,0.9,3.2c0,1.9-0.6,3.4-1.9,4.5s-3,1.7-5.1,1.7c-1.9,0-3.5-0.5-4.7-1.4
	C263.5,110.9,262.8,109.5,262.5,107.9L262.5,107.9z"/>
<path fill="none" d="M122.621,28.9l-2.3,18.8c5.1-0.7,9.9-3.3,10.6-10.8C131.421,31.3,126.821,29.4,122.621,28.9z"/>
<path fill="none" d="M265.121,33.1l-4.8,34.6c5.9-0.3,9.4-2.9,11.4-16.8C273.721,37,269.621,33.5,265.121,33.1z"/>
<polygon fill="none" points="190.921,61 191.721,32.3 184.921,61 "/>
<path fill="#0D3F88" d="M22.021,18.1c-12,0-19.2,14.1-21.5,31.5c-2.2,17.4,2.6,31.6,14.2,31.6c11.6-0.1,20-14.2,22.3-31.6
	C39.221,32.2,34.021,18.1,22.021,18.1z M23.621,49.6c-1.4,10.1-4.5,18.2-8,18.2s-4.4-8.2-3-18.2c1.3-10,4.1-18.2,7.7-18.2
	C23.921,31.4,24.921,39.6,23.621,49.6z"/>
<polygon fill="#0D3F88" points="103.621,33.8 105.421,18.1 96.421,18.1 90.021,18.1 82.321,18.1 74.021,81.3 82.321,81.3 
	88.121,81.3 97.821,81.3 99.621,65.6 90.221,65.6 91.321,56.8 99.521,56.8 101.321,42.5 93.221,42.5 94.321,33.8 "/>
<polygon fill="#0D3F88" points="64.521,18.1 55.421,54.6 54.321,18.1 41.021,18.1 44.621,81.2 48.921,81.2 56.321,81.2 60.621,81.2 
	77.821,18.1 "/>
<path fill="#0D3F88" d="M267.121,18.1h-0.6h-10.5l-8.6,63h10.7h0.3c9.9,0,19.5-3.3,24.1-28.9
	C286.521,30.6,277.621,18.5,267.121,18.1z M271.721,50.9c-2,13.9-5.5,16.5-11.4,16.8l4.8-34.6C269.621,33.5,273.721,37,271.721,50.9
	z"/>
<polygon fill="#0D3F88" points="230.021,60.8 227.421,18.1 222.821,18.1 214.621,18.1 207.721,81.2 218.721,81.2 224.321,41.1 
	226.621,81.2 227.121,81.2 231.221,81.2 240.021,81.2 247.021,18.1 236.021,18.1 "/>
<polygon fill="#0D3F88" points="161.421,18.1 147.621,18.1 141.021,81.2 144.821,81.2 154.821,81.2 163.621,81.2 165.421,67.3 
	156.321,67.3 "/>
<path fill="#0D3F88" d="M141.821,35.9c0.5-11.3-7.4-17.3-17.9-17.7h-1.1h-11.3l-7.6,63h12.4l3.1-25.7l4.6,25.7h12.4l-5-28.1
	C138.021,52.7,141.521,44.2,141.821,35.9z M130.921,36.9c-0.7,7.5-5.5,10.1-10.6,10.8l2.3-18.8
	C126.821,29.4,131.421,31.3,130.921,36.9z"/>
<path fill="#0D3F88" d="M199.021,18.1h-11.2h-2.7l-18.1,63.1h13.9l2-9.8h7.9l-0.3,9.8h13.8l-2.6-63.1H199.021z M190.921,61h-6
	l6.8-28.7L190.921,61z"/>
<path fill="#B9D6FF" d="M187.3,72.4c22.1-21,41.4-39.6,55.8-54.4h23.5C245.6,35.3,219.2,53.5,187.3,72.4L187.3,72.4z"/>
<path fill="#FF0D0F" d="M235,32.9c19.6-10.1,34.1-20,39-32.9h-11.7v3.6h-8.7C255.4,13.4,245.6,22.1,235,32.9L235,32.9z"/>
</svg>
