<?xml version="1.0" encoding="utf-8"?>
<!-- Generator: Adobe Illustrator 22.1.0, SVG Export Plug-In . SVG Version: 6.00 Build 0)  -->
<svg version="1.1" id="svg3067" xmlns:svg="http://www.w3.org/2000/svg"
	 xmlns="http://www.w3.org/2000/svg" xmlns:xlink="http://www.w3.org/1999/xlink" x="0px" y="0px" width="89.6px" height="23px"
	 viewBox="0 0 89.6 23" style="enable-background:new 0 0 89.6 23;" xml:space="preserve">
<style type="text/css">
	.st0{fill:#0F2C64;}
	.st1{fill:#EF001E;}
</style>
<g>
	<path id="path2612" class="st0" d="M81.2,6.9L80.8,7l-0.5,2l0.5-0.1l0.1-0.5l0.7-0.1l0.2,0.4l0.5,0L81.2,6.9z M83.6,6.9l-0.5,1.8
		l0.4,0.1l0.2-0.6c0.1-0.3,0.1-0.4,0.2-0.6l0-0.2c0,0.1,0,0.2,0,0.2c0,0.1,0,0.1,0,0.3C84,7.9,84,8,84,8l0.1,0.9L84.4,9l0.5-0.7
		c0,0,0.1-0.1,0.1-0.2c0.1-0.1,0.1-0.2,0.3-0.4l0,0.1c0,0.1-0.1,0.2-0.1,0.2c0,0.1,0,0.2-0.1,0.3c0,0.1,0,0.2-0.1,0.3l-0.2,0.6
		l0.4,0.1l0.5-1.8l-0.6-0.2L84.7,8c0,0.1-0.1,0.1-0.2,0.2c-0.1,0.1-0.1,0.2-0.2,0.3c0-0.2,0-0.4,0-0.6l-0.1-0.8L83.6,6.9z M81.1,7.4
		c0.1,0.1,0.1,0.2,0.2,0.4l0.2,0.3l-0.6,0.1L81,7.8C81,7.6,81,7.5,81.1,7.4z M86.3,7.6c-0.1,0-0.2,0.1-0.3,0.2C86,8,86,8.1,86.2,8.2
		c0.2,0.1,0.3,0,0.4-0.2c0.1-0.2,0-0.3-0.2-0.4C86.4,7.6,86.3,7.6,86.3,7.6z M78.6,7.7l-1.3,0.8l0.9,1.6l1.3-0.8L79.4,9l-0.9,0.6
		l-0.2-0.4L79,8.6l-0.2-0.3L78,8.9l-0.2-0.3L78.7,8L78.6,7.7z M86.2,7.7c0.1,0,0.1,0,0.2,0c0.1,0.1,0.2,0.2,0.1,0.4
		c-0.1,0.1-0.2,0.2-0.4,0.1c-0.1-0.1-0.2-0.2-0.1-0.4C86.1,7.7,86.2,7.7,86.2,7.7z M86.3,7.7L86.1,8l0,0l0.1-0.1l0,0l0,0.2l0.1,0
		l0-0.2c0.1,0,0.1,0,0.1,0c0-0.1,0-0.1-0.1-0.1L86.3,7.7z M86.3,7.8L86.3,7.8c0.1,0.1,0.2,0.1,0.1,0.1C86.4,8,86.4,7.9,86.3,7.8
		L86.3,7.8L86.3,7.8z M76,9.5l-1.1,1.3l0.3,0.2l0.4-0.5l1.2,0.9l0.3-0.3l-1.2-0.9l0.4-0.5L76,9.5z M87.1,10.4
		c1.2,1.2,1.9,2.8,2.1,4.5c0.3,3.9-2.7,7.4-6.6,7.6c-1.9,0.1-3.6-0.5-4.9-1.5c1.4,1.3,3.3,2,5.4,1.9c3.9-0.3,6.9-3.7,6.6-7.6
		C89.4,13.4,88.5,11.6,87.1,10.4L87.1,10.4z M83.8,11.9c-0.6,0-1.4,0.3-2.1,1c-0.2,0.2-0.7,0.6-1.1,1l-0.5,0.5
		c-0.4-0.1-0.8-0.1-1.2-0.1c-0.9,0-1.7,0.2-2.1,0.6c-0.1,0.1-0.2,0.3-0.2,0.5c0,0.4,0.5,0.7,0.7,0.7c0.8,0.3,1.5,0.2,2.2-0.3
		c0.4-0.3,0.8-0.7,1.2-1c0.3,0.1,0.6,0.2,1,0.3L82,15c-0.4,0.4-0.8,0.8-1.2,1.2l0,0c-0.5,0.5-0.9,0.8-1.5,0.9c-0.4,0.1-0.7,0-0.8,0
		c0.3,0.3,0.6,0.4,1.2,0.4c0.5,0,1.1-0.4,1.7-0.9l0.8-0.8l0.6-0.6c0,0,1.1,0.3,1.1,0.3c0,0-0.7,0.7-0.7,0.7l-0.6,0.6
		c-0.6,0.6-1,0.9-1.3,1.2c-0.6,0.4-1.1,0.7-1.6,0.7c-0.2,0-0.6,0-0.9-0.2c0.3,0.3,0.7,0.6,1.3,0.6c0.7,0,1.4-0.4,2.4-1.3
		c0.5-0.4,0.9-0.9,1.3-1.3l0.8-0.8c0.5,0.1,0.9,0.2,1.4,0.2c0.7,0,1.3-0.4,1.3-0.8c0-0.3-0.2-0.4-0.4-0.5c-0.1-0.1-0.4-0.3-0.9-0.3
		c-0.5,0-1.1,0.2-1.7,0.7l-0.4,0.3c0,0-0.2,0-0.2,0l-1-0.3c0.3-0.3,0.6-0.5,0.8-0.8c0.6-0.5,1.2-0.7,1.6-0.8c0.3,0,0.8,0,0.9,0.1
		c0,0,0,0,0,0c-0.5-0.4-1-0.5-1.3-0.5c-0.4,0-1,0.1-1.7,0.7c-0.3,0.2-0.7,0.6-1.1,1c0,0-0.5-0.2-0.5-0.2l-0.1,0l-0.6-0.2
		c0,0,0.3-0.3,0.3-0.3c0.4-0.4,0.7-0.7,1-1c1-0.9,1.7-1,2.1-1c0.5,0,0.9,0.1,1.1,0.3C85,12,84.5,11.9,83.8,11.9z M74.2,12l-0.1,0.3
		l0.5,0.7c0.1,0.1,0.1,0.1,0.1,0.2c-0.1,0-0.1,0-0.1,0l-0.1,0l-0.8,0.2l-0.1,0.3l1.3-0.4l0.7,0.2l0.1-0.2L75,13.1L74.2,12z
		 M79.1,14.6c0.2,0,0.4,0,0.8,0c0,0-0.2,0.2-0.2,0.2l-0.1,0.1c-0.4,0.4-1.2,1.1-1.9,1c-0.3,0-0.5-0.2-0.5-0.4
		C77.3,15.4,77.3,14.6,79.1,14.6z M86.5,14.7c0.2,0,0.4,0.1,0.4,0.3c0,0.2-0.2,0.4-0.6,0.5c-0.3,0.1-0.9,0.1-1.4,0.1
		c0.2-0.1,0.3-0.2,0.4-0.3C85.8,14.9,86.2,14.7,86.5,14.7z M75.3,15.1L74.2,16l-0.8-0.8l0,0.4l0.8,0.9l0.1,0.1l0.1,0.1h-0.2l-0.7,0
		v0.3l1.8,0v-0.3l-0.7,0l-0.3-0.3l0.9-0.8L75.3,15.1z M75.3,17.9c-0.1,0-0.2,0-0.3,0c-0.1,0.1-0.2,0.2-0.3,0.3c0,0.1,0,0.3,0,0.6
		l0,0.1c0.1,0.3,0,0.5-0.1,0.5c-0.2,0.1-0.3,0-0.5-0.3c-0.1-0.3-0.1-0.5,0.2-0.6l-0.1-0.2c-0.3,0.2-0.4,0.5-0.3,0.9
		c0.2,0.4,0.4,0.6,0.8,0.5c0.1-0.1,0.2-0.1,0.3-0.3c0-0.1,0-0.2,0-0.4l0-0.1l0-0.1c-0.1-0.3,0-0.5,0.1-0.6c0.2-0.1,0.4,0.1,0.5,0.4
		c0.1,0.4,0.1,0.6-0.2,0.7l0.1,0.2c0.4-0.2,0.5-0.5,0.3-1C75.7,18.1,75.5,17.9,75.3,17.9z"/>
	<path id="path2670" class="st0" d="M27.6,7.1c-0.8,0-1.5,0.1-2,0.5c-0.1,0.1-0.2,0.1-0.3,0.2c-0.1,0.1-0.2,0.2-0.3,0.2
		c-0.3,0.3-0.5,0.7-0.6,1.2c-0.1,0.5-0.2,1-0.2,1.6c0,0.5,0,0.9,0.1,1.2c0,0.1,0,0.2,0.1,0.2c0,0.1,0.1,0.1,0.1,0.2
		c0.1,0.2,0.2,0.5,0.3,0.7c0.1,0.2,0.3,0.4,0.5,0.5c0.2,0.2,0.4,0.3,0.7,0.4c0,0,0.1,0,0.1,0c0,0,0.1,0,0.1,0v0
		c0.1,0,0.3,0.1,0.5,0.1c0,0,0.1,0,0.1,0c0.2,0,0.5,0,0.7,0h2.6v-1h-2.5c-0.3,0-0.5,0-0.7-0.1c-0.2-0.1-0.3-0.2-0.5-0.3
		c-0.1-0.1-0.2-0.3-0.3-0.6c-0.1-0.3-0.1-0.6-0.1-0.9c0-0.6,0.1-1.9,0.2-2.3c0-0.1,0-0.1,0.1-0.2c0-0.1,0.1-0.1,0.1-0.2
		c0.1-0.2,0.3-0.3,0.5-0.4c0.2-0.1,0.4-0.1,0.7-0.1h2.5v-1H27.6z M30.8,7.1v1h4.1l-4.1,5v1.1h6.1v-1h-3.9l3.9-5V7.1H30.8z M40.7,7.1
		c-0.8,0-1.5,0.1-2,0.5c-0.1,0.1-0.2,0.1-0.3,0.2c-0.1,0.1-0.2,0.2-0.3,0.2c-0.3,0.3-0.5,0.7-0.6,1.2c-0.1,0.5-0.2,1-0.2,1.6
		c0,0.5,0,0.9,0.1,1.2c0,0.1,0,0.2,0.1,0.2c0,0.1,0.1,0.1,0.1,0.2c0.1,0.2,0.2,0.5,0.4,0.7c0.1,0.2,0.3,0.4,0.5,0.5
		c0.2,0.2,0.4,0.3,0.7,0.4c0,0,0.1,0,0.1,0c0,0,0.1,0,0.1,0v0c0.1,0,0.3,0.1,0.5,0.1c0,0,0.1,0,0.1,0c0.2,0,0.5,0,0.7,0h2.6v-1h-2.5
		c-0.3,0-0.5,0-0.8-0.1c-0.2-0.1-0.3-0.2-0.5-0.3c-0.1-0.1-0.2-0.3-0.3-0.6c-0.1-0.3-0.1-0.6-0.1-0.9c0,0,0-0.1,0-0.1h4v-1h-4
		c0-0.5,0.1-1,0.2-1.1c0-0.1,0-0.1,0.1-0.2c0-0.1,0-0.1,0.1-0.2c0.1-0.2,0.3-0.3,0.5-0.4c0.2-0.1,0.4-0.1,0.7-0.1h2.5v-1H40.7z
		 M47.2,7.1c-0.8,0-1.5,0.1-2,0.5c-0.1,0.1-0.2,0.1-0.3,0.2c-0.1,0.1-0.2,0.2-0.2,0.2c-0.3,0.3-0.5,0.7-0.6,1.2
		c-0.1,0.5-0.2,1-0.2,1.6c0,0.5,0,0.9,0.1,1.2c0,0.1,0,0.2,0.1,0.2c0,0.1,0,0.1,0.1,0.2h0c0.1,0.2,0.2,0.5,0.3,0.7
		c0.1,0.2,0.3,0.4,0.5,0.5c0.2,0.2,0.4,0.3,0.6,0.4c0,0,0.1,0,0.1,0c0,0,0.1,0,0.1,0v0c0.1,0,0.3,0.1,0.5,0.1c0,0,0.1,0,0.1,0
		c0.2,0,0.5,0,0.7,0h2.6v-1h-2.5c-0.3,0-0.5,0-0.7-0.1c-0.2-0.1-0.3-0.2-0.5-0.3h0c-0.1-0.1-0.2-0.3-0.2-0.6
		c-0.1-0.3-0.1-0.6-0.1-0.9c0-0.6,0.1-1.9,0.2-2.3c0-0.1,0-0.1,0.1-0.2c0-0.1,0.1-0.1,0.1-0.2c0.1-0.2,0.3-0.3,0.5-0.4
		c0.2-0.1,0.4-0.1,0.7-0.1h2.5v-1H47.2z M50.5,7.1v7.1h1.7v-3.1h2.4v3.1h1.7V7.1h-1.7v3h-2.4V7.2V7.1H50.5z M25.5,15.7L25.5,15.7
		l-2.9,6.9l-0.1,0.2h1.8l0-0.1l0.7-1.9h2.5l0.7,1.9l0,0.1h1.9l-0.1-0.2l-2.9-6.9l0-0.1H25.5L25.5,15.7z M30.5,15.7v7.1h1.7h0.1v-7.1
		H30.5z M33.3,15.7v7.1H35v-2.7h1.5l1.5,2.6l0,0.1h2l-0.1-0.2l-1.6-2.7c0.3-0.1,0.5-0.2,0.7-0.4c0,0,0.1-0.1,0.1-0.1
		c0,0,0.1-0.1,0.1-0.2h0c0.1-0.2,0.2-0.4,0.3-0.6c0.1-0.2,0.1-0.5,0.1-0.8c0-0.5-0.1-1-0.3-1.3c0-0.1-0.1-0.1-0.1-0.2
		c-0.1-0.1-0.1-0.1-0.2-0.2c-0.2-0.2-0.5-0.3-0.8-0.4c-0.3-0.1-0.7-0.1-1.1-0.1h-3.6H33.3z M40.3,15.7v4.2c0,0.3,0,0.5,0,0.7
		c0,0.2,0.1,0.4,0.1,0.6c0.1,0.2,0.2,0.4,0.3,0.6c0.2,0.3,0.5,0.6,0.8,0.7c0,0,0.1,0,0.1,0.1c0.2,0.1,0.4,0.1,0.6,0.2
		c0,0,0.1,0,0.1,0c0.2,0,0.5,0,0.8,0h2c0-0.3,0-0.7,0-1h-1.8c-0.3,0-0.5,0-0.8-0.1c-0.5-0.2-0.6-0.5-0.6-0.9c0-0.1,0-0.3,0-0.5v-4.6
		H40.3z M45.8,15.7v7.1h1.7h0.1v-7.1H45.8z M48.5,15.7v7.1h1.8l0-0.1l-0.1-4.6l2.7,4.7l0,0.1h1.9v-7.1h-1.8v0.1l0.1,4.4l-2.5-4.4
		l0-0.1h-1.9H48.5z M58.9,15.7c-0.8,0-1.5,0.2-2,0.5c-0.1,0.1-0.2,0.1-0.3,0.2c-0.1,0.1-0.2,0.2-0.2,0.2c-0.3,0.3-0.5,0.7-0.6,1.2
		c-0.1,0.5-0.2,1-0.2,1.6c0,0.5,0,0.9,0.1,1.2c0,0.1,0,0.2,0.1,0.2c0,0.1,0,0.1,0.1,0.2h0v0c0.1,0.2,0.2,0.4,0.3,0.6
		c0.1,0.2,0.3,0.4,0.5,0.5c0.2,0.2,0.4,0.3,0.7,0.4c0,0,0.1,0,0.1,0.1c0,0,0.1,0,0.1,0c0.1,0,0.3,0.1,0.5,0.1c0,0,0.1,0,0.1,0
		c0.2,0,0.5,0,0.7,0h2.6v-1h-2.5c-0.3,0-0.5,0-0.7-0.1c-0.2-0.1-0.3-0.2-0.5-0.3c-0.1-0.1-0.2-0.3-0.3-0.6c-0.1-0.3-0.1-0.6-0.1-0.9
		c0,0,0-0.1,0-0.1h4.1v-1h-4c0-0.5,0.1-1,0.2-1.1c0-0.1,0-0.1,0.1-0.2c0-0.1,0.1-0.1,0.1-0.2v0c0.1-0.2,0.3-0.3,0.5-0.4
		c0.2-0.1,0.4-0.1,0.7-0.1h2.5v-1H58.9z M64.6,15.7c-0.7,0-1.4,0.1-1.9,0.5c-0.5,0.4-0.6,1.1-0.6,1.7c0,0.5,0.2,1,0.6,1.3
		c0.5,0.4,1.2,0.5,1.8,0.5h1.6c0.8,0,1,0.6,1,1.1c0,0.4-0.3,0.9-1.1,0.9h-3.7c0,0.5,0,0.6,0,1.1h4c0.9,0,1.5-0.2,1.9-0.5
		c0.5-0.4,0.6-1,0.6-1.7c0-0.6-0.1-1-0.5-1.4c-0.2-0.1-0.4-0.2-0.6-0.3c-0.4-0.1-0.8-0.2-1.2-0.2h-1.7c-0.8,0-1-0.6-1-0.9
		c0-0.7,0.6-1,1.3-1h3.4c0-0.5,0-0.6,0-1.1H64.6z M35,16.8h1.6c0.2,0,0.4,0,0.6,0.1c0.1,0,0.3,0.1,0.3,0.2c0.1,0.2,0.2,0.5,0.2,0.9
		c0,0.3,0,0.6-0.1,0.7c0,0,0,0.1-0.1,0.1c0,0,0,0.1-0.1,0.1c-0.2,0.2-0.5,0.3-0.9,0.3H35V16.8z M26.3,17.6l0.8,2.2h-1.7L26.3,17.6z"
		/>
	<g>
		<path class="st1" d="M22.3,1.6C22.3,0.7,21.5,0,20.6,0c-7.1,0.2-14,2.4-19.8,6.4C0,6.9-0.2,8,0.3,8.7C1,10,1.8,11.1,2.7,12.3
			l1-4.2c0.1-0.4,0.3-0.6,0.7-0.8C4.8,7.2,5.3,7.1,6,7.1h0.3L6.1,7.9l2.2-0.8h1.8L9.7,8.5H7.2C6.4,8.5,5.8,9,5.6,9.6h0l-0.4,1.5l0,0
			c0,0-0.1,0.6-0.1,0.6c0,0.2,0,0.4,0.1,0.6c0.1,0.2,0.3,0.4,0.7,0.4c0.1,0,0.1,0,0.2,0h2.5l-0.4,1.4h-4c3.2,3.5,7,6.4,11.3,8.5
			c0.8,0.4,1.8,0.1,2.3-0.7c1.3-2.5,2.4-5.1,3.1-7.8h-0.8l0-1c0-0.1-0.1-0.1-0.1-0.1h-1.9c-0.1,0-0.2,0-0.2,0.1l-0.4,0.9H15l3.6-7.1
			l3.8,0C22.5,5.3,22.5,3.4,22.3,1.6z M16.1,8.5h-2.7c-0.7,0-0.9,0.8-0.4,1.1l1.7,1.3c1.4,1.1,0.6,3.3-1.6,3.3H8.9l0.3-1.4h2.7
			c0.9,0,1.4-0.8,0.7-1.3c-0.7-0.5-1.1-0.8-1.7-1.3c-1.3-0.9-0.7-3.1,1.5-3.1h4L16.1,8.5z"/>
		<path class="st1" d="M20,9l-1.3,2.9c-0.1,0.1,0,0.2,0.1,0.2h1.3c0.1,0,0.2-0.1,0.1-0.2L20.1,9C20.1,8.9,20,8.9,20,9z"/>
	</g>
</g>
</svg>
