<?xml version="1.0" encoding="utf-8"?>
<!-- Generator: Adobe Illustrator 22.1.0, SVG Export Plug-In . SVG Version: 6.00 Build 0)  -->
<svg version="1.1" id="Слой_1" xmlns="http://www.w3.org/2000/svg" xmlns:xlink="http://www.w3.org/1999/xlink" x="0px" y="0px"
	 width="283.465px" height="76.976px" viewBox="0 0 283.465 76.976" enable-background="new 0 0 283.465 76.976"
	 xml:space="preserve">
<g>
	<path fill-rule="evenodd" clip-rule="evenodd" fill="#003E7E" d="M25.647,7.915c-0.454-0.319-1.422-2.728-1.238-4.212
		C24.634,1.832,26.163-0.022,28.056,0c2.184,0.039,3.87,1.412,6.335,1.445c1.036,0.017,1.932-0.722,2.548-1.053
		c-0.454,2.151-1.703,4.61-3.955,5.192c-1.803,0.459-4.156-0.319-5.708,0.314C26.398,6.251,25.838,7.439,25.647,7.915L25.647,7.915z
		"/>
	<path fill-rule="evenodd" clip-rule="evenodd" fill="#003E7E" d="M43.196,76.976c-5.971-4.979-13-9.712-13.56-19.582
		c-0.331-5.83,2.157-9.034,2.38-14.266c0.37-8.743-1.725-13.818-6.895-18.511c-1.238,1.036-2.336,1.742-4.083,1.546
		c-5.904-0.644-6.161-7.78-11.818-8.301c-2.392-0.229-3.585,0.969-4.683,2.453l-2.168-2.201l2.627-2.705l-4.111-0.011L0,12.087
		c2.156,0.297,3.456-0.929,3.59-2.666h43.857c-3.064,0.734-4.503,4.184-7.617,4.677c-1.971,0.19-3.215-0.386-4.66-1.411
		c-0.258,0-0.543,0.263-0.543,0.532c0,1.048,3.182,1.933,4.24,1.916c5.361-0.112,6.38-5.713,12.513-5.713h68.143l-9.673,8.547
		c-0.868,0.773-1.999,1.031-3.013,1.031l-64.849,0.017l1.675,1.82l63.118,0.011l-10.099,8.564c-0.863,0.734-2.134,0.991-3.271,0.991
		H52.735l1.685,1.809h39.202l-9.987,8.334c-1.058,0.879-2.604,1.064-3.988,1.064H58.145l1.68,1.883h20.522l-9.902,8.625
		c-0.796,0.706-1.944,1.058-3.008,1.058h-4.935c0.028,1.742,1.815,1.765,2.862,1.664h2.733L43.196,76.976L43.196,76.976z"/>
	<polygon fill-rule="evenodd" clip-rule="evenodd" fill="#003E7E" points="245.905,9.567 245.905,19.038 259.432,19.038 
		259.432,56.235 269.9,56.235 269.9,19.038 283.438,19.038 283.438,9.567 245.905,9.567 	"/>
	<polygon fill-rule="evenodd" clip-rule="evenodd" fill="#003E7E" points="222.509,25.396 233.582,56.235 245.07,56.235 
		228.032,9.567 217.636,9.567 199.108,56.235 210.595,56.235 222.509,25.396 	"/>
	<polygon fill-rule="evenodd" clip-rule="evenodd" fill="#003E7E" points="184.668,56.235 195.137,56.235 195.137,9.567 
		184.668,9.567 184.668,56.235 	"/>
	<polygon fill-rule="evenodd" clip-rule="evenodd" fill="#003E7E" points="160.662,9.567 149.129,40.423 137.479,9.567 
		122.854,9.567 122.854,56.235 133.317,56.235 133.317,28.331 144.514,56.235 153.492,56.235 164.823,28.331 164.823,56.235 
		175.297,56.235 175.297,9.567 160.662,9.567 	"/>
	<polygon fill-rule="evenodd" clip-rule="evenodd" fill="#E30613" points="213.122,54.83 224.727,54.83 228.525,44.748 
		216.925,44.748 213.122,54.83 	"/>
	<path fill="#0078B7" d="M134.069,74.073h-2.05V63.969l-3.088,10.104h-1.055l-3.107-10.104v10.104h-1.64V62.532h3.144l2.337,7.431
		l2.299-7.431h3.16V74.073L134.069,74.073z M140.641,74.252c-1.481-0.003-2.636-0.577-3.462-1.726
		c-0.823-1.151-1.236-2.571-1.236-4.262c0-1.68,0.438-3.085,1.314-4.214c0.879-1.131,2.036-1.697,3.473-1.697
		c1.45,0,2.597,0.566,3.437,1.697c0.842,1.128,1.263,2.543,1.263,4.239c0,1.781-0.438,3.221-1.311,4.317
		C143.244,73.704,142.086,74.249,140.641,74.252L140.641,74.252z M140.658,72.575c0.725,0,1.336-0.309,1.838-0.929
		c0.502-0.621,0.753-1.743,0.753-3.374c0-1.325-0.209-2.364-0.622-3.114c-0.413-0.753-1.057-1.129-1.928-1.129
		c-1.724,0-2.583,1.434-2.583,4.303c0,1.391,0.218,2.447,0.658,3.166C139.213,72.217,139.841,72.575,140.658,72.575L140.658,72.575z
		 M155.727,74.073h-1.953l-4.234-7.374c-0.064-0.113-0.17-0.295-0.318-0.548c-0.067-0.113-0.168-0.292-0.301-0.534v8.456h-1.618
		V62.532h2.221l3.908,6.796c0.031,0.058,0.268,0.471,0.712,1.244v-8.04h1.584V74.073L155.727,74.073z M166.645,68.171v5.902h-0.893
		l-0.611-1.556c-0.65,1.155-1.654,1.732-3.018,1.735c-1.518-0.003-2.653-0.6-3.403-1.795c-0.747-1.195-1.124-2.577-1.124-4.15
		c0-1.662,0.418-3.071,1.255-4.222c0.837-1.155,2.006-1.732,3.512-1.732c1.121,0,2.045,0.338,2.77,1.013
		c0.722,0.672,1.18,1.509,1.372,2.514l-1.749,0.32c-0.326-1.408-1.11-2.112-2.346-2.112c-0.789,0-1.434,0.332-1.933,0.998
		c-0.499,0.664-0.748,1.688-0.748,3.068c0,2.915,0.884,4.372,2.647,4.372c0.686,0,1.255-0.245,1.704-0.736
		c0.449-0.491,0.675-1.14,0.675-1.945h-2.304v-1.674H166.645L166.645,68.171z M173.036,74.252c-1.481-0.003-2.636-0.577-3.462-1.726
		c-0.823-1.151-1.236-2.571-1.236-4.262c0-1.68,0.438-3.085,1.314-4.214c0.879-1.131,2.036-1.697,3.473-1.697
		c1.45,0,2.597,0.566,3.436,1.697c0.842,1.128,1.264,2.543,1.264,4.239c0,1.781-0.438,3.221-1.311,4.317
		C175.638,73.704,174.481,74.249,173.036,74.252L173.036,74.252z M173.052,72.575c0.725,0,1.336-0.309,1.838-0.929
		c0.502-0.621,0.753-1.743,0.753-3.374c0-1.325-0.209-2.364-0.622-3.114c-0.413-0.753-1.057-1.129-1.928-1.129
		c-1.724,0-2.583,1.434-2.583,4.303c0,1.391,0.218,2.447,0.658,3.166C171.607,72.217,172.235,72.575,173.052,72.575L173.052,72.575z
		 M186.559,74.073h-6.862V62.532h2.114v9.657h4.748V74.073L186.559,74.073z M190.049,74.073h-2.009V62.532h2.009V74.073
		L190.049,74.073z M201.254,74.073h-2.148l-0.893-2.747h-4.29l-0.873,2.747h-1.716l3.702-11.541h2.474L201.254,74.073
		L201.254,74.073z M197.675,69.66l-1.626-5.151l-1.626,5.151H197.675L197.675,69.66z M211.02,74.073h-1.953l-4.234-7.374
		c-0.064-0.113-0.17-0.295-0.318-0.548c-0.067-0.113-0.168-0.292-0.301-0.534v8.456h-1.618V62.532h2.22l3.908,6.796
		c0.031,0.058,0.268,0.471,0.711,1.244v-8.04h1.584V74.073L211.02,74.073z M226.406,74.073h-2.148l-0.893-2.747h-4.29l-0.873,2.747
		h-1.716l3.702-11.541h2.474L226.406,74.073L226.406,74.073z M222.827,69.66l-1.626-5.151l-1.626,5.151H222.827L222.827,69.66z
		 M229.756,74.073h-2.008V62.532h2.008V74.073L229.756,74.073z M240.906,74.073h-2.125l-1.732-4.745h-2.829v4.745h-2.008V62.532
		h4.837c1.344,0,2.335,0.315,2.965,0.944c0.633,0.626,0.948,1.44,0.948,2.439c0,1.481-0.67,2.502-2.011,3.059L240.906,74.073
		L240.906,74.073z M234.219,67.663h2.502c0.722,0,1.263-0.156,1.618-0.473c0.354-0.315,0.53-0.75,0.53-1.302
		c0-0.508-0.173-0.918-0.522-1.229c-0.349-0.314-0.837-0.47-1.464-0.47h-2.664V67.663L234.219,67.663z M249.827,74.073h-6.862
		V62.532h2.114v9.657h4.748V74.073L249.827,74.073z M253.316,74.073h-2.008V62.532h2.008V74.073L253.316,74.073z M264.195,74.073
		h-1.953l-4.234-7.374c-0.064-0.113-0.17-0.295-0.318-0.548c-0.067-0.113-0.167-0.292-0.301-0.534v8.456h-1.618V62.532h2.22
		l3.908,6.796c0.031,0.058,0.268,0.471,0.711,1.244v-8.04h1.585V74.073L264.195,74.073z M273.894,74.073h-7.247V62.532h7.174v1.717
		h-5.166v3.128h4.151v1.674h-4.151v3.23h5.239V74.073L273.894,74.073z M274.46,71.291l1.952-0.43
		c0.234,1.143,1.132,1.714,2.697,1.714c0.711,0,1.261-0.144,1.646-0.439c0.385-0.292,0.575-0.655,0.575-1.091
		c0-0.315-0.086-0.606-0.259-0.874c-0.176-0.268-0.55-0.479-1.121-0.629l-2.131-0.577c-0.731-0.196-1.269-0.421-1.618-0.67
		c-0.349-0.251-0.63-0.606-0.84-1.062c-0.209-0.456-0.315-0.944-0.315-1.463c0-1.03,0.371-1.859,1.113-2.482
		c0.742-0.623,1.687-0.935,2.842-0.935c0.96,0,1.816,0.219,2.572,0.652c0.753,0.433,1.236,1.048,1.442,1.844l-1.914,0.491
		c-0.293-0.874-0.979-1.31-2.059-1.31c-0.628,0-1.105,0.133-1.434,0.404c-0.329,0.271-0.494,0.615-0.494,1.033
		c0,0.658,0.516,1.12,1.551,1.385l1.897,0.491c1.149,0.297,1.919,0.739,2.313,1.322c0.393,0.586,0.588,1.23,0.588,1.934
		c0,1.131-0.413,2.026-1.238,2.675c-0.826,0.652-1.894,0.976-3.208,0.979c-1.104-0.003-2.072-0.243-2.904-0.722
		C275.283,73.051,274.731,72.307,274.46,71.291L274.46,71.291z"/>
</g>
</svg>
