<?xml version="1.0" encoding="UTF-8"?>
<!-- Generator: Adobe Illustrator 14.0.0, SVG Export Plug-In . SVG Version: 6.00 Build 43363)  -->
<!DOCTYPE svg PUBLIC "-//W3C//DTD SVG 1.1//EN" "http://www.w3.org/Graphics/SVG/1.1/DTD/svg11.dtd">
<svg version="1.1" xmlns="http://www.w3.org/2000/svg" xmlns:xlink="http://www.w3.org/1999/xlink" x="0px" y="0px" width="337px" height="60px" viewBox="0 0 337 60" enable-background="new 0 0 337 60" xml:space="preserve">
<g fill-rule="evenodd" clip-rule="evenodd" fill="#00529C" transform="matrix(0.4, 0, 0, 0.4, 0, 0)">
	<path d="M124.665,110.674L70.953,78.418l88.92-53.641   c0,0-72.216,5.185-134.208,56.089l72.936,43.632v-13.824H124.665L124.665,110.674z"/>
	<polygon points="158.649,110.674 208.689,110.674 208.689,99.082    177.297,99.082 177.297,79.857 201.201,79.857 201.201,69.489 177.297,69.489 177.297,52.498 206.385,52.498 206.385,40.905    158.649,40.905 158.649,110.674"/>
	<path d="M216.753,110.674c4.608,0.792,11.521,1.584,19.656,1.584   c22.536,0,25.848-12.672,25.848-19.08c0-20.521-29.16-21.744-29.16-31.248c0-4.176,4.896-5.472,8.208-5.472   c5.544,0,11.017,1.584,16.2,3.456V47.89c-6.191-1.08-12.528-1.872-18.792-1.872c-11.088,0-22.464,5.04-22.464,17.712   c0,19.872,28.152,20.88,28.152,31.104c0,5.688-6.049,6.912-10.513,6.912c-5.832,0-11.735-1.584-17.136-3.744V110.674   L216.753,110.674z"/>
	<polygon points="285.801,110.674 302.721,110.674 302.721,58.113    323.241,58.113 323.241,47.529 265.281,47.529 265.281,58.113 285.801,58.113 285.801,110.674"/>
	<path d="M322.521,79.138c0,20.952,13.68,33.12,34.199,33.12   c20.593,0,34.201-12.168,34.201-33.12c0-20.88-13.608-33.12-34.201-33.12C336.201,46.018,322.521,58.258,322.521,79.138   L322.521,79.138z M340.377,79.138c0-10.08,4.392-22.68,16.344-22.68s16.272,12.6,16.272,22.68c0,10.152-4.32,22.608-16.272,22.608   S340.377,89.29,340.377,79.138L340.377,79.138z"/>
	<polygon points="400.281,110.674 412.953,110.674 412.953,72.802    413.098,72.802 439.953,110.674 453.92,110.674 453.92,47.529 441.248,47.529 441.248,85.402 441.105,85.402 414.321,47.529    400.281,47.529 400.281,110.674"/>
	<polygon points="468.32,110.674 485.168,110.674 485.168,47.529    468.32,47.529 468.32,110.674"/>
	<path d="M492.225,110.674h11.232l6.191-16.056h24.768l6.121,16.056h16.92   l-24.191-63.145h-16.85L492.225,110.674L492.225,110.674z M513.465,84.609l8.568-22.248l8.568,22.248H513.465L513.465,84.609z"/>
	<polygon points="563.072,110.674 575.744,110.674 575.744,72.802    575.889,72.802 602.816,110.674 616.785,110.674 616.785,47.529 604.113,47.529 604.113,85.402 603.969,85.402 577.113,47.529    563.072,47.529 563.072,110.674"/>
	<path d="M649.617,110.674h12.455l6.84-17.784h27.361l6.768,17.784h18.791   l-26.783-69.769H676.4L649.617,110.674L649.617,110.674z M673.088,81.874l9.506-24.624l9.432,24.624H673.088L673.088,81.874z"/>
	<polygon points="730.113,110.674 746.961,110.674 746.961,47.529    730.113,47.529 730.113,110.674"/>
	<path d="M760.496,110.674h15.84V85.402h5.904l13.68,25.271h20.305   l-20.232-29.376c6.77-3.24,11.809-10.225,11.809-17.928c0-11.377-9.359-15.841-17.279-15.841h-30.025V110.674L760.496,110.674z    M776.336,58.042h5.113c7.559,0,9.432,2.88,9.432,7.199c0,4.608-3.096,10.729-9,10.729h-5.545V58.042L776.336,58.042z"/>
</g>
</svg>