<?xml version="1.0" encoding="utf-8"?>
<!-- Generator: Adobe Illustrator 22.1.0, SVG Export Plug-In . SVG Version: 6.00 Build 0)  -->
<svg version="1.1" id="Слой_1" xmlns="http://www.w3.org/2000/svg" xmlns:xlink="http://www.w3.org/1999/xlink" x="0px" y="0px"
	 width="726.799px" height="240.1px" viewBox="0 0 726.799 240.1" enable-background="new 0 0 726.799 240.1" xml:space="preserve">
<g>
	
		<linearGradient id="SVGID_1_" gradientUnits="userSpaceOnUse" x1="47.6639" y1="262.6988" x2="305.6639" y2="154.6988" gradientTransform="matrix(1 0 0 -1 0 242)">
		<stop  offset="0.1349" style="stop-color:#99161B"/>
		<stop  offset="0.2345" style="stop-color:#9F161B"/>
		<stop  offset="0.3719" style="stop-color:#B1161C"/>
		<stop  offset="0.5315" style="stop-color:#CE151E"/>
		<stop  offset="0.7065" style="stop-color:#F71520"/>
		<stop  offset="0.7384" style="stop-color:#FF1520"/>
	</linearGradient>
	<path fill="url(#SVGID_1_)" d="M156.999,0c0.8,0.2,1.5,0.6,2.3,0.6c61.4,2.2,118.4,19.7,172.5,48.2c37,19.5,72.2,41.8,107.2,64.8
		c22.3,14.6,44.5,29.3,66.7,43.9c0.8,0.5,1.5,1.1,3.2,2.4c-2.7,0-4.3,0-5.9,0c-47.8,0-95.6,0-143.5,0.2c-3.4,0-5.9-0.9-8.6-3
		c-41.4-32.5-83.6-63.9-127.7-92.6c-27.9-18.2-56.3-35.4-87-48.7c-12.2-5.3-24.8-9.5-37.2-14.3c7.5-0.5,15.2-1,22.9-1.5
		C133.699,0,145.299,0,156.999,0z"/>
	<path fill="#E21C24" d="M690.999,240c-0.6-0.3-1.1-0.6-1.7-0.8c-8.2-2.2-11.7-7.6-10.6-16.8c3-0.3,6.1-0.7,9.2-1
		c0.3,0.5,0.8,0.9,0.8,1.3c0.3,3.8,1.6,7,5.6,7.9c4.5,1.1,9,0.8,12.7-2.6c3.9-3.7,3.1-7.6-2-9.4c-3.8-1.3-7.6-2.3-11.4-3.5
		c-11.3-3.6-11.5-14.2-5.5-21.4c3-3.6,7-5.8,11.5-6.4c4.1-0.5,8.4-0.6,12.4,0c7.8,1.1,11.7,7.1,10.2,14.7c-0.4,0.2-0.9,0.5-1.3,0.5
		c-2.7,0-5.3,0-7.5,0c-1.7-2.3-3-5.5-5.1-6.2c-2.9-1-6.6-0.6-9.7,0.1c-1.7,0.4-3.7,2.6-4.1,4.4c-0.6,2.4,1.8,3.6,3.9,4.3
		c1.7,0.6,3.5,1.2,5.2,1.7c1.6,0.5,3.2,0.8,4.8,1.3c13,4,15.7,16.1,5.9,25.7c-3.8,3.7-8.6,4.8-13.4,6.2
		C697.699,240,694.299,240,690.999,240z"/>
	<path fill="#E21C24" d="M644.999,240c-0.8-0.2-1.6-0.4-2.4-0.6c-9.1-2-12.8-7-12-16.9c3.1-0.4,6.3-0.7,9.4-1.1
		c0.4,0.5,0.7,0.8,0.7,1c0.2,4,1.6,7.1,5.8,8.4c4.8,1.4,10.7-0.2,13.3-3.5c2.7-3.5,2-6.6-2.1-8.3c-1.8-0.7-3.8-1.2-5.7-1.8
		c-1.8-0.5-3.6-0.9-5.3-1.5c-5.1-1.7-9.7-4.2-10.5-10.2c-0.8-6.2,2-11.1,6.9-14.6c7.6-5.2,16-5.4,24.3-2.5c5.6,1.9,7.7,6.7,6.7,13.9
		c-1.5,0.1-3.1,0.3-4.7,0.3c-1.6,0.1-3.3,0-4.9,0c-2.5-7-8.5-9.5-14.8-6c-1.5,0.8-3,2.9-3.2,4.5c-0.1,1.2,1.8,2.9,3.2,3.7
		c1.8,1,4.1,1.4,6.1,2.1c1.8,0.5,3.6,0.9,5.3,1.5c11.2,3.7,14.2,13.1,7.2,22.8c-3,4.2-7.2,6.8-12.3,7.9c-1.5,0.3-2.9,0.6-4.4,0.9
		C649.699,240,647.299,240,644.999,240z"/>
	<path fill="#E21C24" d="M12.999,240c-0.8-0.3-1.5-0.7-2.3-0.8c-7.4-1.2-12.5-9.4-10.1-16.8c3-0.3,6-0.6,9.1-0.9
		c0.3,0.7,0.5,1.1,0.6,1.6c1.9,8.3,11.7,11.1,18.1,5.3c4.2-3.9,3.4-7.8-2.1-9.7c-3.8-1.3-7.6-2.3-11.4-3.5
		c-11.3-3.6-10.9-14.3-5.8-20.8c2.4-3.1,5.6-5.2,9.3-6.3c5.2-1.7,10.5-1.7,15.8-0.6c7.8,1.6,11.3,8.1,9.4,14.9
		c-3,0.2-6.2,0.4-9.4,0.5c-2.6-7.2-7.7-9.4-14.3-6.5c-2.1,0.9-3.9,2.2-3.9,4.7c-0.1,2.4,1.9,3.4,3.8,4c3.3,1.1,6.7,2,10,3
		c13.2,4,16.1,15.7,6.3,25.6c-3.7,3.8-8.5,4.9-13.2,6.4C19.699,240,16.299,240,12.999,240z"/>
	
		<linearGradient id="SVGID_2_" gradientUnits="userSpaceOnUse" x1="478.1091" y1="71.002" x2="676.1092" y2="201.002" gradientTransform="matrix(1 0 0 -1 0 242)">
		<stop  offset="0" style="stop-color:#99161B"/>
		<stop  offset="0.1649" style="stop-color:#9F161B"/>
		<stop  offset="0.3928" style="stop-color:#B1161C"/>
		<stop  offset="0.6572" style="stop-color:#CE151E"/>
		<stop  offset="0.9472" style="stop-color:#F71520"/>
		<stop  offset="1" style="stop-color:#FF1520"/>
	</linearGradient>
	<path fill="url(#SVGID_2_)" d="M726.799,6.2c-2.1,4.4-5.6,6.6-9.6,7.7c-4.1,1.2-8.4,2.2-12.7,2.5c-10.9,0.8-21.2,3.8-31.4,7.5
		c-33,11.8-65.7,24.6-96.8,41c-15,7.9-29.7,16.5-42.5,27.8c-6.2,5.5-11.6,11.9-17.1,18.1c-2,2.3-3.6,5.3-4.8,8.1
		c-4.9,11.9-5.1,11.7,4.1,21.9c4.4,4.9,10.3,7.9,16.4,10.1c1.4,0.5,2.9,0.7,4.4,0.7c26.2,0.2,52.3,0.3,78.5,0.5
		c2.5,0,4.4-0.6,6.3-2.2c12.5-9.8,26.3-11.6,40.9-5.5c5.6,2.4,10.9,5.7,16.1,9c2.2,1.4,4.3,2.2,6.9,2.2c7.8-0.1,15.5,0,23.5,0
		c-1.7,4-4.4,4.9-8.4,4.8c-28.5-0.4-57-0.5-85.5-0.8c-25.5-0.2-51-0.4-76.5-0.8c-2.9,0-5.9-0.7-8.7-1.7c-31.6-12.1-60.5-29-88.4-48
		c-11.7-8-23.2-16.2-34.7-24.4c-0.9-0.7-1.8-1.4-3.3-2.7c9.3-5.9,18.1-11.8,27.3-17.2c41.6-24.5,86.6-39.8,133.8-49.1
		c23.5-4.6,47.3-7.5,71.3-9.2c29.3-2.1,58.6-2.2,87.9-0.8C724.599,6,725.599,6.1,726.799,6.2z"/>
	
		<linearGradient id="SVGID_3_" gradientUnits="userSpaceOnUse" x1="323.0813" y1="113.549" x2="237.8477" y2="98.0519" gradientTransform="matrix(1 0 0 -1 0 242)">
		<stop  offset="0.1349" style="stop-color:#99161B"/>
		<stop  offset="0.2345" style="stop-color:#9F161B"/>
		<stop  offset="0.3719" style="stop-color:#B1161C"/>
		<stop  offset="0.5315" style="stop-color:#CE151E"/>
		<stop  offset="0.7065" style="stop-color:#F71520"/>
		<stop  offset="0.7384" style="stop-color:#FF1520"/>
	</linearGradient>
	<path fill="url(#SVGID_3_)" d="M208.599,147c0-1.4,0-2.5,0-3.9c29.6-0.6,59-1.2,86.9-13.4c9.6,13.5,22.6,22.4,37.4,28.9
		c-103.4,0.8-206.8,1.6-311.3,2.4c7.2-7.6,14.8-12.8,24.6-14.1c8.5-1.1,16.5,1.2,24.3,4.3c2.1,0.8,4.4,1.5,6.7,1.5
		c33.2-0.1,66.3-0.4,99.5-0.6c14.5-0.1,29,0,43.5-0.3c2.9,0,5.8-1.1,8.6-2c0.7-0.2,1.1-1.4,2-2.8
		C222.999,147,215.899,147,208.599,147z"/>
	<path fill="#E21C24" d="M165.699,238.9c-4,0-7.4,0-11.4,0c-0.7-16.9-1.5-33.6-2.2-50.7c3.5,0,6.9,0,10.7,0
		c0.3,10.9,0.6,21.7,0.9,32.6c0.3,0,0.6,0.1,0.9,0.1c5-11,10.1-21.9,15.2-33c4.2,0,8.1,0,12.5,0c0.7,11.3,1.3,22.4,2,33.6
		c0.3,0.1,0.5,0.1,0.8,0.2c4.6-11.1,9.2-22.3,13.9-33.6c3.3,0,6.6,0,10.4,0c-7.4,17.1-14.7,34-22,50.8c-3.7,0-7.2,0-11.1,0
		c-0.9-12.3-1.8-24.4-2.7-36.5c-0.3,0-0.5-0.1-0.8-0.1C176.999,214.3,171.399,226.5,165.699,238.9z"/>
	<path fill="#E21C24" d="M272.699,188c10.1,0,19.7-0.3,29.3,0.1c7.4,0.4,10.9,5.1,10.1,12.5c-0.7,6.7-4.3,11.4-10.4,14.1
		c-1.5,0.7-3.1,1-5.1,1.7c6.6,6,8.6,14.4,12.4,22.3c-4.3,0-8.2,0-12.4,0c-2.4-4.9-4.7-9.8-7.1-14.7c-3.1-6.2-4.6-6.9-12.2-5.9
		c-1.3,6.7-2.7,13.5-4.1,20.5c-3.4,0-6.7,0-10.4,0C266.199,221.6,269.399,204.7,272.699,188z M279.099,208.9
		c5.7,0,11.1,0.3,16.5-0.1c3.7-0.3,6.1-4.4,5.7-8.1c-0.3-2.9-2-4.1-6.2-4.3c-4.4-0.2-8.8,0-13.5,0
		C280.699,200.7,279.899,204.7,279.099,208.9z"/>
	<path fill="#E21C24" d="M576.399,238.9c-4.6,0-8.3,0-12.4,0c-1.5-3.1-3.1-6.3-4.7-9.6c-0.8-1.6-1.7-3.3-2.3-5
		c-2.2-5.4-6-7.7-12.3-6.2c-1.3,6.5-2.7,13.3-4.1,20.5c-3.3,0-6.7,0-10.3,0c3.3-16.9,6.5-33.7,9.7-50.4c10.4,0,20.5-0.4,30.6,0.2
		c6.5,0.4,10,6,9,12.5c-1.4,8.9-6.9,13.6-15.9,15.5C570.599,222.4,572.499,230.8,576.399,238.9z M546.499,209.2
		c4.7,0,8.8,0.1,12.9,0c1.5,0,3-0.1,4.4-0.6c3.1-1.1,5.4-4.8,5-7.9c-0.3-2.7-2.3-4.2-6.3-4.3c-4.4-0.2-8.9,0-13.6,0
		C547.999,200.7,547.299,204.7,546.499,209.2z"/>
	<path fill="#E21C24" d="M314.699,238.9c3.3-17.3,6.5-33.9,9.8-50.8c1.2-0.1,2.3-0.4,3.4-0.4c7,0,14-0.1,21,0.2
		c7.9,0.4,13.1,5.2,14.1,12.9c1.3,9.9-0.7,19.2-6.4,27.5c-4.6,6.8-11.2,10.3-19.4,10.5C329.899,239.1,322.599,238.9,314.699,238.9z
		 M326.799,230c4.7,0,8.8,0.2,12.9-0.1c3.5-0.2,6.3-2.1,8.1-5.1c3.6-6.2,5-13,4.8-20.1c-0.1-4.8-2.7-7.3-7.4-7.9
		c-3.9-0.5-7.8-0.5-11.9-0.7C331.199,207.7,329.099,218.6,326.799,230z"/>
	<path fill="#E21C24" d="M79.599,207.7c4.8,10.5,9.4,20.5,14.1,31c-4.6,0-8.6,0-13.3,0c-2.9-7.4-6.1-15.2-9.2-23
		c-10.6,4.3-12.2,13.6-13,23.2c-3.8,0-6.9,0-10.6,0c3.3-17,6.5-33.8,9.7-50.8c3.4,0,6.6,0,10.3,0c-1.3,7-2.6,14-3.8,20.9
		c0.2,0.2,0.5,0.3,0.7,0.5c1.8-1.6,3.6-3.2,5.4-4.8c5.2-4.7,10.5-9.2,15.6-14.1c2.2-2.1,4.5-3.1,7.6-2.8c2.8,0.2,5.6,0,9.5,0
		C94.499,194.8,87.099,201.2,79.599,207.7z"/>
	<path fill="#E21C24" d="M582.099,238.8c3.3-17.1,6.5-33.9,9.8-50.8c12.7,0,25.1,0,38,0c-0.5,2.8-1,5.3-1.5,8.1
		c-9.2,0-18.2,0-27.6,0c-0.7,3.9-1.4,7.6-2.2,11.7c8.7,0,16.8,0,25.5,0c-0.6,3.1-1.1,5.8-1.6,8.7c-8.6,0-16.9,0-25.6,0
		c-0.9,4.5-1.7,8.7-2.6,13.6c9.6,0,18.8,0,28.7,0c-0.7,3.4-1.3,6-1.9,8.7C607.899,238.8,595.199,238.8,582.099,238.8z"/>
	<path fill="#E21C24" d="M396.299,187.9c12.9,0,25.1,0,37.8,0c-0.2,1.5-0.2,2.8-0.5,4c-0.2,1.3-0.6,2.5-1.1,4.1c-9,0-17.9,0-27.2,0
		c-0.8,3.8-1.6,7.3-2.4,11.4c8.5,0,16.7,0,25.6,0c-0.6,3.3-1,6-1.5,8.9c-8.6,0-16.9,0-25.6,0c-0.9,4.5-1.7,8.8-2.7,13.7
		c9.6,0,18.7,0,28.6,0c-0.6,3.2-1.1,5.8-1.7,8.6c-13,0-25.8,0-39,0C389.799,221.7,393.099,205,396.299,187.9z"/>
	<path fill="#E21C24" d="M257.299,238.8c-3.9,0-7.3,0-11.1,0c-0.8-3.7-1.5-7.4-2.4-11.3c-6.8,0-13.4,0-20.5,0
		c-2.1,3.6-4.3,7.4-6.6,11.3c-3.5,0-6.9,0-10.9,0c2.7-4.7,5.1-9,7.6-13.2c6.5-11.2,13.2-22.3,19.5-33.7c1.8-3.2,3.7-4.8,7.4-4.3
		c1.9,0.3,3.9,0,6.3,0C250.199,204.9,253.699,221.7,257.299,238.8z M242.199,218.6c-1.2-6.3-2.2-12.1-3.5-18.9
		c-3.7,6.7-7,12.6-10.5,18.9C233.199,218.6,237.299,218.6,242.199,218.6z"/>
	<path fill="#E21C24" d="M429.199,239c8-9.4,15.3-17.9,22.8-26.8c-3.6-7.9-7.3-15.8-11.1-24.2c4.1,0,7.8,0,12,0
		c2.1,4.5,4.4,9.2,7.1,14.8c3.3-3.8,6.5-7,9.1-10.7c2.5-3.5,5.4-5.1,9.7-4.4c1.8,0.3,3.6,0,6.3,0c-7.1,8.5-13.9,16.5-20.7,24.6
		c4.1,8.8,8.1,17.3,12.3,26.4c-4.3,0-8,0-12.3,0c-2.5-5.2-5.1-10.9-8-17c-4.2,4.9-8.1,9.3-11.8,14c-1.9,2.4-3.9,3.8-7.1,3.4
		C435.099,238.8,432.599,239,429.199,239z"/>
	<path fill="#E21C24" d="M496.399,220.1c-1.2,6.2-2.4,12.3-3.6,18.6c-3.2,0-6.5,0-10.4,0c3.2-16.9,6.5-33.7,9.7-50.6
		c9.4,0,18.3-0.3,27.3,0.1c5.5,0.2,9.3,4.8,9.5,10.4c0.3,11.2-7.2,19.8-17,20.5C506.899,219.5,501.899,219.7,496.399,220.1z
		 M500.999,196c-1,5.4-1.8,9.9-2.8,14.9c2.9,0,5.1,0,7.4,0c1.2,0,2.3,0,3.5-0.1c3.7-0.4,6.6-2,8.1-5.6c1.8-4.2,0.1-7.7-4.5-8.4
		C509.099,196.2,505.199,196.3,500.999,196z"/>
	<path fill="#E21C24" d="M103.999,187.9c4.2,0,8,0,12,0c2.7,6.5,5.4,12.9,8.3,20c3.9-5.1,7.4-9.6,11-14.2c4.7-6.1,4.7-6.1,12.2-6
		c1.1,0,2.2,0.2,4.1,0.3c-4.3,5.3-8.2,10-12.1,14.7c-4,4.9-9,9.3-11.7,14.8c-2.6,5.4-2.7,11.9-3.9,17.9c-0.2,1.1-0.6,2.2-1,3.3
		c-3.3,0-6.4,0-10,0c1.2-6.2,2.1-12.3,3.4-18.2c0.6-2.5,0.1-4.5-0.8-6.7c-3.3-7.4-6.6-14.9-9.9-22.3
		C105.099,190.5,104.599,189.3,103.999,187.9z"/>
</g>
</svg>
