<?xml version="1.0" encoding="utf-8"?>
<!-- Generator: Adobe Illustrator 22.1.0, SVG Export Plug-In . SVG Version: 6.00 Build 0)  -->
<svg version="1.1" id="Слой_1" xmlns="http://www.w3.org/2000/svg" xmlns:xlink="http://www.w3.org/1999/xlink" x="0px" y="0px"
	 width="995.915px" height="170.729px" viewBox="0 0 995.915 170.729" enable-background="new 0 0 995.915 170.729"
	 xml:space="preserve">
<g>
	<g>
		<path fill="#FF0000" d="M47.115,28.529c-30.8,0.3-52.6,18.2-45.9,50.5c4.6,22.3,27.1,29.6,47.3,29.6c23,0,45.9-10.3,48-35.9
			C99.115,41.629,75.215,28.129,47.115,28.529z M74.115,80.329c-2.6,7.9-9.9,13.9-18,15.4c-7.4,1.4-15.3,1.1-22.1-2.3
			c-6.5-3.2-11.1-9.5-12.7-16.5c-1.6-8.2-0.9-17.2,3.7-24.4c3.6-6.1,10.2-9.9,17.1-11c8.8-1.4,18.9-0.4,25.7,6.1
			C76.315,55.729,77.915,69.329,74.115,80.329z"/>
		<polygon fill="#FF0000" points="202.815,29.429 222.815,29.429 222.815,107.829 202.715,107.829 		"/>
		<polygon fill="#FF0000" points="386.715,29.429 405.915,29.429 406.015,107.929 381.415,107.829 343.715,49.429 343.615,107.929 
			324.515,107.929 324.515,29.629 348.715,29.629 386.315,87.529 		"/>
		<path fill="#FF0000" d="M176.215,83.529c-4.3-8.1-4.4-10.8-13.1-14.9c13.1-1.7,22.7-9.5,19.2-23.7c-3.5-14-22-15-33.7-15.4h-33.7
			v78.4h19.9l0.1-32.6c4.4,0.1,9.1-0.3,13.3,1.1c3.5,1,5.4,4.5,7,7.5l11.3,24l22.2-0.1L176.215,83.529z M154.815,62.929l-19.9-0.1
			v-21l19.6-0.1c3.9,0,11,3.7,11,10.3C165.415,58.529,159.015,62.929,154.815,62.929z"/>
		<polygon fill="#FF0000" points="245.115,29.629 303.515,29.629 303.415,41.629 265.015,41.729 265.015,60.829 300.215,60.929 
			300.215,72.929 265.115,72.929 265.115,95.429 303.815,95.529 303.815,107.929 245.115,107.929 		"/>
		<polygon fill="#FF0000" points="418.915,29.629 495.715,29.629 495.715,41.629 467.015,41.829 467.015,107.929 447.115,107.929 
			447.115,41.729 419.015,41.629 		"/>
		<path fill="none" stroke="#FFDE00" stroke-width="0.0405" stroke-miterlimit="10" d="M48.715,40.929c17.7,0,28.3,12.4,27.2,29.8
			c-1,17.1-12,25.9-28.3,25.7c-17.1-0.2-27.6-11.2-27.2-28.2C20.815,51.029,32.015,40.929,48.715,40.929L48.715,40.929z"/>
	</g>
	<path fill="#FF0000" d="M970.215,3.529c2.4-1.7,4.9-3.5,8-3.5c3.5-0.1,6.9,0.1,10.4,0c2.6,0,5.5,0.2,7.3,2.3
		c-4.5,2.6-9.5,4.1-14,6.6c-5.1,2.3-8.4,6.9-12,10.9c-1.2,1.2-0.1,2.8,0,4.2c0.7,1.9-0.6,3.7-1.8,5.1c-2.8,3.1-5.5,6.4-8.3,9.7
		c-2.6,3.1-3.4,7.1-5.5,10.5c-1.1,2.1-2.9,3.7-4.4,5.5c-0.7,1.3,0.3,2.8,1.3,3.7c2.4,2.3,5.1,4.2,7.2,6.7c2.4,2.4,4.2,5.6,7.5,7.1
		c3.5,1.7,7.6,1,11,2.8c1.6,1,1,3.4,0.1,4.7c-2.8,4.4-8.1,7.6-13.5,6.9c-3.7-0.8-4.7-5.2-7.5-7.4c-3.1-3-7.7-1.2-11.3-2.6
		c-2.3-0.6-4.7-2.1-7-0.8c-3.3,1.7-6.6,3.6-9.9,5.3c-4.4,2.3-6.6,6.9-9.4,10.8c-1.7,2.4-4.9,2.8-7.1,4.6
		c-4.4,5.9-8.3,12.1-12.6,17.9c-1.5,2.1-4.7,1.4-6.2,3.5c-2,2.3-4.2,5.1-7.4,5.4c-1.2-0.1-2.8,0.3-3.8-0.6
		c-1.1-3.5-0.5-7.2-0.1-10.7c1-6.9,2.5-13.9,4.9-20.5c2.7-8.2,7-16.2,13.9-21.6c3.3-2.6,7.7-3.5,10.7-6.6c1.5-1.7,2.8-3.7,4.7-5
		c2-1.2,1.2-4.4-0.6-5.5c-2.8-1.8-4.9-4.6-8.1-5.6c-2.6-0.8-5.3-1.1-7.5-2.8c3.1-1.8,7-0.8,10.3-2.4c3-1.3,6.5-1.7,9.6-0.2
		c2.6,1.1,4.9,3.8,8,2.8c1.2-6.7,5.8-11.7,9.2-17.3c1.5-2.6,1.9-5.6,3.8-8c3-3.9,7.6-6.2,11.9-8.3
		C958.015,8.229,964.815,7.329,970.215,3.529L970.215,3.529z"/>
	<g>
		<polygon fill="#292D95" points="537.315,29.729 613.415,29.729 613.415,41.829 585.115,41.929 585.115,107.429 565.315,107.429 
			565.315,41.829 537.415,41.829 		"/>
		<polygon fill="#292D95" points="626.815,29.729 646.615,29.729 646.615,60.729 685.815,60.729 685.815,29.729 705.715,29.729 
			705.715,107.329 685.815,107.329 685.715,72.829 646.715,72.829 646.515,107.329 626.815,107.429 		"/>
		<path fill="#292D95" d="M719.915,107.329l37.7-77.7h22.6l38.7,77.6h-22.3l-8.8-18.6h-37.8l-10.2,18.5L719.915,107.329
			L719.915,107.329z M754.415,76.729l28.1-0.1l-14.1-30.8L754.415,76.729L754.415,76.729z"/>
		<polygon fill="#292D95" points="830.915,29.729 850.715,29.729 850.715,107.329 830.915,107.429 		"/>
	</g>
	<path fill="#FF0000" d="M569.115,154.529h9.9l-5.1-13.3L569.115,154.529L569.115,154.529z M568.015,131.029h12.7l16.1,38.6h-12.5
		l-2.8-7.1h-15.2l-2.6,7.1h-12.1L568.015,131.029L568.015,131.029z M601.515,169.629v-38.6h11.6v38.6H601.515L601.515,169.629z
		 M633.915,147.629h8.7c2.3,0,4.1-0.4,5.2-1.1c1.1-0.7,1.7-1.9,1.7-3.5c0-1.4-0.5-2.5-1.6-3.2s-2.7-1-4.9-1h-9v8.8H633.915z
		 M622.315,169.629v-38.6h21.8c5.8,0,10,0.9,12.7,2.6c2.7,1.7,4.1,4.5,4.1,8.1c0,2.2-0.6,4-1.7,5.6c-1.2,1.5-3,2.8-5.4,3.9
		c2,0.6,3.4,1.5,4.2,2.6s1.3,3.1,1.4,5.9c0.1,0.8,0.1,1.8,0.2,3.2c0.1,3.1,0.8,4.9,1.9,5.4v1.3h-12.2c-0.6-1.4-0.9-3.2-1-5.6
		c-0.1-2.4-0.2-3.9-0.2-4.5c-0.2-1.5-0.8-2.6-1.8-3.3s-2.5-1-4.5-1h-7.8v14.4L622.315,169.629L622.315,169.629z M669.115,169.629
		v-38.6h11.7v30.2h22v8.4L669.115,169.629L669.115,169.629z M707.915,169.629v-38.6h11.6v38.6H707.915L707.915,169.629z
		 M728.715,169.629v-38.6h12.6l8.6,12.7c1.4,2.1,2.7,4.1,4,6.1s2.4,4,3.6,6c-0.2-2.9-0.3-5.6-0.4-8.2c-0.1-2.5-0.1-4.8-0.1-6.7v-9.9
		h11.3v38.6h-12.6l-8.9-13c-1.1-1.5-2.2-3.3-3.4-5.2s-2.6-4-3.9-6.2c0.2,2.5,0.4,4.9,0.5,7c0.1,2.2,0.2,4.1,0.2,5.8v11.6
		L728.715,169.629L728.715,169.629z M777.215,169.629v-38.6h34.5v7.9h-22.9v6.8h20.9v7.7h-20.9v8.3h23.7v7.9L777.215,169.629
		L777.215,169.629z M817.215,156.829h11.2c0.1,2.2,0.8,3.9,2.3,5c1.4,1.1,3.6,1.7,6.3,1.7c2.4,0,4.2-0.3,5.5-1s2-1.6,2-2.8
		c0-0.6-0.2-1.2-0.5-1.6c-0.3-0.5-0.7-0.8-1.3-1.1c-0.8-0.4-2.9-1-6.2-1.8s-6.1-1.6-8.3-2.4c-3.3-1.1-5.8-2.6-7.5-4.4
		c-1.7-1.8-2.6-3.9-2.6-6.3c0-3.7,1.6-6.6,4.9-8.8c3.3-2.2,7.7-3.3,13.3-3.3c5.5,0,9.8,1.1,13,3.4c3.2,2.3,4.8,5.4,4.8,9.3h-10.9
		c-0.2-1.8-1-3.1-2.2-4c-1.2-0.8-3-1.3-5.4-1.3c-1.9,0-3.4,0.3-4.6,1c-1.2,0.7-1.8,1.5-1.8,2.5c0,1.7,2.8,3.3,8.4,4.8
		c1,0.3,1.8,0.5,2.3,0.6l0.5,0.1c5.8,1.6,9.4,2.9,10.8,3.9c1.5,1,2.6,2.2,3.3,3.6c0.8,1.4,1.1,2.9,1.1,4.6c0,3.8-1.7,6.8-5.2,9
		c-3.5,2.1-8.3,3.2-14.6,3.2c-5.9,0-10.4-1.2-13.5-3.5C819.315,164.929,817.615,161.529,817.215,156.829L817.215,156.829z"/>
</g>
</svg>
