<?xml version="1.0" encoding="utf-8"?>
<!-- Generator: Adobe Illustrator 22.1.0, SVG Export Plug-In . SVG Version: 6.00 Build 0)  -->
<svg version="1.1" id="Слой_1" xmlns="http://www.w3.org/2000/svg" xmlns:xlink="http://www.w3.org/1999/xlink" x="0px" y="0px"
	 width="396.3px" height="99.5px" viewBox="0 0 396.3 99.5" style="enable-background:new 0 0 396.3 99.5;" xml:space="preserve">
<style type="text/css">
	.st0{fill:#BF0003;}
	.st1{fill:#382A61;}
	.st2{fill:#FFFFFF;}
</style>
<g>
	<path class="st0" d="M51,0C22.8,0,0,22.3,0,49.7C0,64.6,6.7,77.9,17.3,87C7.9,78.5,2,66.3,2,52.8C2,27.1,23.4,6.3,49.8,6.3
		s47.8,20.9,47.8,46.6c0,25.5-21.1,46.2-47.2,46.6c0.2,0,0.4,0,0.6,0c28.2,0,51-22.3,51-49.7S79.2,0,51,0z"/>
	<g>
		<path class="st1" d="M328.5,24.2c1.3,5.5,2.6,10.9,4,16.7c-3.7,0-6.8,0-10.4,0c-1.1-3.2-2.2-6.4-3.4-9.9c-2,0-3.9,0-6.1,0
			c-2.2,2.5-4.5,5.1-6.8,7.8c-1.2,1.5-2.6,2.4-4.6,2.4c-10.8-0.1-21.6-0.1-32.4-0.1c-0.5,0-0.9-0.3-2-0.7c1.6-5.4,3.2-10.7,4.8-16.1
			c8.5,0,16.8,0,25.7,0c-0.9,2.4-1.6,4.3-2.3,6.4c-4.6,0-8.9,0-13.4,0c-0.5,1.1-1,2-1.8,3.7c4.8,0,9,0,13.1,0
			c0.3,1.4,0.6,2.3,0.9,3.8c4.7-5,8.9-9.6,13-14C314.1,24.2,321.1,24.2,328.5,24.2z"/>
		<path class="st1" d="M152.9,24.1c1.2,4.3,2.2,8.1,3.6,13c1.8-5,3.2-8.9,4.6-12.8c3.4,0,6.3,0,10,0c-1.8,5.7-3.4,11-5.2,16.7
			c-6.3,0-12.5,0-19.1,0c-1-3.2-2.1-6.5-3.3-10.3c-5.3,0-10.7,0-16.9,0c3-4.2,5.4-7.1,10.4-6.7S147.2,24.1,152.9,24.1z"/>
		<path class="st1" d="M181.4,41c-3.3,0-6,0-9.5,0c1.5-6,3.6-11.2,5.6-16.7c10.3,0,20.2,0,30.3,0c0.3,2.8-2.2,3.5-2.9,4.4
			c-0.9,4.6-1.7,8.4-2.5,12.3c-3.5,0-6.2,0-9.6,0c0.9-3.4,1.7-6.5,2.5-9.9c-3.5,0-6.6,0-10,0C184.1,34.3,182.8,37.5,181.4,41z"/>
		<path class="st1" d="M388.5,40.9c-8.5,0-16.7,0-25.3,0c1.1-3.5,2-6.7,2.9-9.8c0.7-2.2,1.5-4.4,2.3-6.8c8.2,0,16.3,0,25,0
			c-0.5,2.2-1,4.1-1.6,6.4c-4.7,0-9.3,0-13.9,0c-0.5,1.3-0.8,2.2-1.3,3.8c4.7,0,8.8,0,13.8,0C389.6,37.1,389.1,38.9,388.5,40.9z"/>
		<path class="st1" d="M237.2,24.4c10.3,0,20.1,0,30.2,0c-0.4,3.1-2.3,4.4-4.5,5.1c-2.4,0.7-4.9,1.1-7.3,1.2c-3.5,0.2-6.9,0-10.5,0
			c-1.2,3.5-2.3,6.6-3.5,10c-2.9,0-5.8,0-9.5,0C233.8,35.1,235.5,29.7,237.2,24.4z"/>
		<path class="st1" d="M356.3,41.5c-4.8,0-9.1,0.1-13.4,0c-1.8-0.1-3.7-0.4-5.4-1c-3.4-1.2-5-3.9-4.1-7.4c0.7-2.9,1.7-5.7,2.7-8.7
			c3.3,0,6.4,0,10.1,0c-0.8,3.1-1.6,6-2.4,9c4.8,2.4,9.6,0.2,14.6,1.8C357.6,37.3,357,39.4,356.3,41.5z"/>
		<path class="st0" d="M236,21c1.5-2.1,2.7-3.7,4-5.5c8,0,16.1-0.1,24.2,0c3.1,0,4.2,2,4.4,4.8C265.6,21.6,246.2,22,236,21z"/>
		<path class="st0" d="M176,21c1.4-1.9,2.6-3.5,4-5.4c8.1,0,16.4-0.1,24.6,0c3.1,0,4,2.2,4.4,5.4C198,21,187.3,21,176,21z"/>
		<path class="st0" d="M270.6,21.2c1.6-2.2,2.8-3.9,3.9-5.5c8.4,0,16.5,0,25,0c-0.2,1.2-0.2,2.1-0.5,3c-0.2,0.8-0.7,1.5-1.1,2.5
			C289,21.2,280.2,21.2,270.6,21.2z"/>
		<path class="st0" d="M396.3,15.8c-0.6,1.9-1,3.4-1.6,5.3c-9,0-18,0-27.7,0c1.5-2,2.7-3.6,4-5.3C379.4,15.8,387.7,15.8,396.3,15.8z
			"/>
		<path class="st0" d="M337.5,21.2c1.5-3.6,3.7-5.4,6.7-5.5c6.6-0.2,13.2-0.1,20.4-0.1c-0.7,2.2-1.3,3.9-1.8,5.6
			C354.4,21.2,346.3,21.2,337.5,21.2z"/>
		<path class="st0" d="M135.2,21.1c3.4-7.1,9.5-5.5,15.5-5.4c0.5,1.7,1.1,3.3,1.7,5.4C146.4,21.1,140.9,21.1,135.2,21.1z"/>
		<path class="st0" d="M310.8,21.1c0.1-0.6,0.1-1,0.2-1.2c1.3-1.6,2.5-3.1,3.7-4.4c2.5,0,4.3,0,6.1,0c1.6,0,3.3,0,5.3,0
			c0.5,1.9,0.9,3.6,1.4,5.6C321.5,21.1,316.2,21.1,310.8,21.1z"/>
		<path class="st0" d="M161.8,21.1c0.8-2.1,1.3-3.6,1.9-5.3c3.2,0,6.2,0,9.7,0c-0.6,2-1.1,3.5-1.7,5.3
			C168.6,21.1,165.5,21.1,161.8,21.1z"/>
		<polygon points="85.8,56.7 86,57.3 86,56.7 		"/>
	</g>
	<g>
		<path class="st1" d="M107.7,88.9c0-0.7,0.2-1.3,0.7-1.7c0.5-0.4,1-0.6,1.8-0.6s1.4,0.2,1.8,0.6c0.5,0.4,0.7,1,0.7,1.7
			s-0.2,1.3-0.7,1.7s-1.1,0.7-1.8,0.7c-0.7,0-1.3-0.2-1.8-0.7C107.9,90.2,107.7,89.6,107.7,88.9z"/>
		<path class="st1" d="M115.9,88.9c0-0.7,0.2-1.3,0.7-1.7c0.5-0.4,1-0.6,1.8-0.6s1.4,0.2,1.8,0.6c0.5,0.4,0.7,1,0.7,1.7
			s-0.2,1.3-0.7,1.7s-1.1,0.7-1.8,0.7s-1.3-0.2-1.8-0.7C116.1,90.2,115.9,89.6,115.9,88.9z"/>
		<path class="st1" d="M124.1,88.9c0-0.7,0.2-1.3,0.7-1.7c0.5-0.4,1-0.6,1.8-0.6s1.4,0.2,1.8,0.6c0.5,0.4,0.7,1,0.7,1.7
			s-0.2,1.3-0.7,1.7c-0.5,0.4-1.1,0.7-1.8,0.7s-1.3-0.2-1.8-0.7C124.3,90.2,124.1,89.6,124.1,88.9z"/>
		<path class="st1" d="M144.9,85v2.1h0.2l0.8-2.2l4.2-7.6h4l-7.4,12.2c-0.6,1-1.2,2-1.8,2.8c-0.5,0.9-1.1,1.6-1.7,2.2
			c-0.6,0.6-1.1,1.1-1.7,1.4s-1.2,0.5-1.9,0.5c-0.9,0-1.6-0.1-2-0.4l1-2.7c0.1,0.1,0.3,0.1,0.4,0.1c0.1,0,0.3,0,0.4,0
			c0.5,0,1-0.2,1.5-0.6s1-1.1,1.6-2l-2.8-13.5h4.3L144.9,85z"/>
		<path class="st1" d="M152.8,86.5c0-1.4,0.2-2.7,0.7-3.9c0.5-1.2,1.1-2.2,1.9-3s1.7-1.5,2.7-2s2.1-0.7,3.2-0.7c1,0,1.8,0.1,2.5,0.4
			c0.7,0.3,1.2,0.6,1.7,1.1c0.4,0.5,0.7,1,0.9,1.6c0.2,0.6,0.3,1.2,0.3,1.8c0,1.4-0.2,2.7-0.7,3.9c-0.5,1.2-1.1,2.2-1.8,3
			c-0.7,0.8-1.7,1.5-2.7,2s-2.1,0.7-3.2,0.7c-1,0-1.8-0.1-2.5-0.4c-0.7-0.3-1.2-0.6-1.7-1.1c-0.4-0.5-0.8-1-1-1.5
			C152.9,87.7,152.8,87.1,152.8,86.5z M156.7,86.1c0,1.6,0.7,2.5,2,2.5c0.5,0,1-0.2,1.5-0.6s0.9-0.9,1.3-1.5s0.7-1.3,0.9-2.1
			c0.2-0.8,0.3-1.6,0.3-2.4c0-0.7-0.1-1.3-0.4-1.7s-0.8-0.6-1.6-0.6c-0.5,0-1,0.2-1.5,0.5c-0.5,0.4-0.9,0.8-1.3,1.4
			c-0.4,0.6-0.7,1.3-0.9,2C156.8,84.3,156.7,85.3,156.7,86.1z"/>
		<path class="st1" d="M174.5,77.3l-2,8.4c-0.1,0.5-0.2,1-0.2,1.4s0.1,0.6,0.2,0.8c0.2,0.2,0.5,0.3,0.9,0.3s0.7-0.1,1.1-0.2
			c0.4-0.2,0.7-0.4,1-0.6c0.3-0.2,0.6-0.5,0.9-0.8s0.5-0.6,0.7-0.9l2-8.4h3.8l-2,8.2c-0.1,0.4-0.2,0.8-0.3,1.3s-0.1,1-0.2,1.5
			c-0.1,0.5-0.1,1-0.1,1.5s0,0.9,0,1.2h-3.1l-0.2-2.5h0.1c-0.3,0.3-0.6,0.7-1,1s-0.8,0.6-1.3,0.9s-1,0.5-1.5,0.7s-1.1,0.2-1.8,0.2
			c-1,0-1.8-0.2-2.4-0.6c-0.6-0.4-0.9-1.2-0.9-2.4c0-0.7,0.1-1.4,0.3-2.2l2.1-8.8H174.5z"/>
		<path class="st1" d="M189.7,77.3v2.4h0.1c0.5-0.7,1-1.4,1.7-1.9c0.7-0.5,1.5-0.8,2.5-0.8c0.4,0,1,0.1,1.6,0.2l-1,3
			c-0.2-0.1-0.4-0.1-0.6-0.1c-0.2,0-0.4-0.1-0.6-0.1c-0.8,0-1.6,0.2-2.3,0.7c-0.7,0.5-1.3,1-1.6,1.7l-2,8.5h-3.8l3.3-13.6
			C187,77.3,189.7,77.3,189.7,77.3z"/>
		<path class="st1" d="M205.2,77.3h2.9l-0.2,2.4h0.1c0.3-0.3,0.6-0.7,1-1s0.8-0.6,1.2-0.9c0.5-0.3,0.9-0.5,1.4-0.6
			c0.5-0.2,1.1-0.2,1.7-0.2c1,0,1.9,0.3,2.5,1s1,1.6,1,3c0,1.5-0.2,3-0.7,4.2s-1.1,2.4-1.8,3.3c-0.8,0.9-1.7,1.6-2.7,2.1
			s-2.1,0.8-3.3,0.8c-0.5,0-1,0-1.5-0.1s-0.8-0.2-1-0.4l-1.3,5.6h-3.8L205.2,77.3z M206.5,88.1c0.5,0.3,1.1,0.5,1.7,0.5
			c0.6,0,1.2-0.2,1.8-0.6s1.1-0.9,1.5-1.5s0.8-1.4,1-2.2c0.3-0.9,0.4-1.7,0.4-2.7c0-0.5-0.1-1-0.4-1.3c-0.3-0.3-0.6-0.5-1.1-0.5
			c-0.4,0-0.7,0.1-1.1,0.2c-0.3,0.2-0.7,0.4-1,0.6c-0.3,0.2-0.6,0.5-0.8,0.8c-0.2,0.3-0.5,0.6-0.6,0.9L206.5,88.1z"/>
		<path class="st1" d="M229.6,89.6c-0.6,0.5-1.5,0.9-2.5,1.2c-1,0.3-2.2,0.5-3.5,0.5c-1.7,0-3-0.4-4-1.3s-1.4-2.1-1.4-3.6
			s0.3-2.8,0.8-3.9c0.5-1.2,1.2-2.2,2-3c0.8-0.8,1.8-1.5,2.8-1.9c1.1-0.4,2.1-0.7,3.2-0.7c0.8,0,1.6,0.1,2.2,0.3
			c0.6,0.2,1.1,0.5,1.5,0.8s0.7,0.7,0.9,1.2c0.2,0.4,0.3,0.9,0.3,1.4c0,0.7-0.2,1.4-0.7,2c-0.4,0.6-1,1-1.8,1.4
			c-0.8,0.4-1.7,0.7-2.8,0.8c-1.1,0.2-2.3,0.3-3.6,0.3c-0.2,0-0.3,0-0.5,0c-0.1,0-0.3,0-0.5,0c0,0.2-0.1,0.4-0.1,0.6s0,0.3,0,0.5
			c0,0.8,0.2,1.4,0.7,1.8s1.2,0.6,2.1,0.6s1.7-0.1,2.4-0.4c0.7-0.3,1.3-0.5,1.6-0.7L229.6,89.6z M222.6,82.9c0.6,0,1.2,0,1.8-0.1
			c0.7,0,1.3-0.1,1.8-0.3c0.6-0.1,1-0.3,1.4-0.6c0.4-0.3,0.6-0.6,0.6-1.1c0-0.3-0.1-0.5-0.3-0.8c-0.2-0.3-0.7-0.4-1.4-0.4
			c-0.9,0-1.7,0.3-2.4,0.9C223.4,81.2,222.9,82,222.6,82.9z"/>
		<path class="st1" d="M245.3,85.5c-0.2,0.7-0.3,1.4-0.4,2.1c-0.1,0.7-0.1,1.4-0.1,2c0,0.3,0,0.5,0,0.7s0,0.4,0,0.6h-2.7l-0.4-2.3
			h-0.1c-0.2,0.3-0.5,0.7-0.9,1s-0.8,0.6-1.2,0.9s-0.9,0.5-1.4,0.6s-1,0.2-1.5,0.2c-1.4,0-2.4-0.4-3-1.2c-0.7-0.8-1-1.8-1-3.1
			c0-1.3,0.2-2.6,0.6-3.8c0.4-1.2,1-2.3,1.8-3.2c0.8-0.9,1.8-1.7,3.1-2.2c1.2-0.6,2.7-0.8,4.4-0.8c0.7,0,1.5,0.1,2.4,0.2
			s1.7,0.3,2.5,0.5L245.3,85.5z M238,88.5c0.4,0,0.7-0.1,1.1-0.2c0.3-0.1,0.6-0.3,0.9-0.5s0.5-0.5,0.7-0.7c0.2-0.2,0.4-0.5,0.6-0.7
			l1.6-6.4c-0.2-0.1-0.5-0.2-0.8-0.2c-0.3,0-0.6-0.1-0.9-0.1c-0.7,0-1.4,0.2-2,0.6s-1.1,0.9-1.5,1.5s-0.7,1.3-0.9,2.1
			c-0.2,0.8-0.3,1.6-0.3,2.4c0,0.6,0.1,1.1,0.3,1.5C237.1,88.3,237.5,88.5,238,88.5z"/>
		<path class="st1" d="M259.3,80.4c-0.4-0.2-0.8-0.3-1.2-0.4c-0.4-0.1-0.9-0.1-1.4-0.1c-0.6,0-1.1,0.2-1.6,0.5s-1,0.7-1.4,1.3
			c-0.4,0.5-0.8,1.1-1,1.8c-0.2,0.7-0.4,1.4-0.4,2.1c0,0.9,0.2,1.6,0.7,2.1s1.1,0.7,1.8,0.7c0.6,0,1.2-0.1,1.7-0.3s1-0.4,1.4-0.6
			l0.7,2.3c-0.7,0.4-1.4,0.8-2.3,1.1c-0.9,0.3-1.8,0.4-2.6,0.4c-1,0-1.8-0.1-2.5-0.4s-1.3-0.6-1.7-1c-0.4-0.4-0.8-0.9-1-1.5
			s-0.3-1.2-0.3-1.8c0-1.5,0.2-2.9,0.7-4.1s1.2-2.2,2-3s1.7-1.5,2.8-1.9c1-0.4,2.1-0.7,3.2-0.7c1,0,1.7,0.1,2.3,0.2s1.1,0.3,1.5,0.5
			L259.3,80.4z"/>
		<path class="st1" d="M271.6,89.6c-0.6,0.5-1.5,0.9-2.5,1.2c-1,0.3-2.2,0.5-3.5,0.5c-1.7,0-3-0.4-4-1.3s-1.4-2.1-1.4-3.6
			s0.3-2.8,0.8-3.9c0.5-1.2,1.2-2.2,2-3s1.8-1.5,2.8-1.9c1.1-0.4,2.1-0.7,3.2-0.7c0.8,0,1.6,0.1,2.2,0.3c0.6,0.2,1.1,0.5,1.5,0.8
			s0.7,0.7,0.9,1.2c0.2,0.4,0.3,0.9,0.3,1.4c0,0.7-0.2,1.4-0.7,2c-0.4,0.6-1,1-1.8,1.4s-1.7,0.7-2.8,0.8c-1.1,0.2-2.3,0.3-3.6,0.3
			c-0.2,0-0.3,0-0.5,0c-0.1,0-0.3,0-0.5,0c0,0.2-0.1,0.4-0.1,0.6s0,0.3,0,0.5c0,0.8,0.2,1.4,0.7,1.8s1.2,0.6,2.1,0.6
			s1.7-0.1,2.4-0.4s1.3-0.5,1.6-0.7L271.6,89.6z M264.6,82.9c0.6,0,1.2,0,1.8-0.1c0.7,0,1.3-0.1,1.8-0.3c0.6-0.1,1-0.3,1.4-0.6
			c0.4-0.3,0.6-0.6,0.6-1.1c0-0.3-0.1-0.5-0.3-0.8c-0.2-0.3-0.7-0.4-1.4-0.4c-0.9,0-1.7,0.3-2.4,0.9C265.4,81.2,264.9,82,264.6,82.9
			z"/>
		<path class="st1" d="M282.4,86.5c0-1.4,0.2-2.7,0.7-3.9c0.5-1.2,1.1-2.2,1.9-3s1.7-1.5,2.7-2s2.1-0.7,3.2-0.7c1,0,1.8,0.1,2.5,0.4
			s1.2,0.6,1.7,1.1c0.4,0.5,0.7,1,0.9,1.6c0.2,0.6,0.3,1.2,0.3,1.8c0,1.4-0.2,2.7-0.7,3.9c-0.5,1.2-1.1,2.2-1.8,3s-1.7,1.5-2.7,2
			s-2.1,0.7-3.2,0.7c-1,0-1.8-0.1-2.5-0.4s-1.2-0.6-1.7-1.1c-0.4-0.5-0.8-1-1-1.5C282.5,87.7,282.4,87.1,282.4,86.5z M286.4,86.1
			c0,1.6,0.7,2.5,2,2.5c0.5,0,1-0.2,1.5-0.6s0.9-0.9,1.3-1.5s0.7-1.3,0.9-2.1c0.2-0.8,0.3-1.6,0.3-2.4c0-0.7-0.1-1.3-0.4-1.7
			s-0.8-0.6-1.6-0.6c-0.5,0-1,0.2-1.5,0.5c-0.5,0.4-0.9,0.8-1.3,1.4s-0.7,1.3-0.9,2S286.4,85.3,286.4,86.1z"/>
		<path class="st1" d="M304.2,77.3l-2,8.4c-0.1,0.5-0.2,1-0.2,1.4s0.1,0.6,0.2,0.8c0.2,0.2,0.5,0.3,0.9,0.3s0.7-0.1,1.1-0.2
			c0.4-0.2,0.7-0.4,1-0.6s0.6-0.5,0.9-0.8s0.5-0.6,0.7-0.9l2-8.4h3.8l-2,8.2c-0.1,0.4-0.2,0.8-0.3,1.3s-0.1,1-0.2,1.5
			s-0.1,1-0.1,1.5s0,0.9,0,1.2h-2.9l-0.2-2.5h-0.1c-0.3,0.3-0.6,0.7-1,1s-0.8,0.6-1.3,0.9s-1,0.5-1.5,0.7s-1.1,0.2-1.8,0.2
			c-1,0-1.8-0.2-2.4-0.6s-0.9-1.2-0.9-2.4c0-0.7,0.1-1.4,0.3-2.2l2.1-8.8H304.2z"/>
		<path class="st1" d="M319.3,77.3v2.4h0.1c0.5-0.7,1-1.4,1.7-1.9s1.5-0.8,2.5-0.8c0.4,0,1,0.1,1.6,0.2l-1,3
			c-0.2-0.1-0.4-0.1-0.6-0.1S323.2,80,323,80c-0.8,0-1.6,0.2-2.3,0.7c-0.7,0.5-1.3,1-1.6,1.7l-2,8.5h-3.8l3.3-13.6
			C316.6,77.3,319.3,77.3,319.3,77.3z"/>
		<path class="st1" d="M343.7,90.9c-0.3,1.1-0.6,2-1.1,2.7s-1,1.3-1.6,1.8s-1.4,0.8-2.2,1c-0.8,0.2-1.7,0.3-2.7,0.3
			c-0.7,0-1.4,0-1.9-0.1c-0.6-0.1-1.1-0.2-1.5-0.3c-0.4-0.1-0.8-0.3-1.1-0.4c-0.3-0.1-0.6-0.3-0.8-0.4l1.4-2.5
			c0.2,0.1,0.4,0.2,0.7,0.3c0.2,0.1,0.5,0.2,0.9,0.3c0.3,0.1,0.7,0.2,1.1,0.3s0.9,0.1,1.5,0.1c1,0,1.9-0.3,2.5-0.9s1-1.3,1.3-2.3
			l0.6-2.1h-0.1c-0.5,0.7-1.1,1.2-1.9,1.8c-0.8,0.5-1.7,0.8-2.8,0.8c-1.1,0-2-0.4-2.7-1.1s-1-1.7-1-3c0-1.4,0.2-2.7,0.7-3.9
			c0.5-1.2,1.1-2.3,1.9-3.2s1.8-1.6,2.9-2.2c1.1-0.5,2.3-0.8,3.7-0.8c1.3,0,2.4,0.1,3.3,0.3c0.9,0.2,1.7,0.4,2.3,0.6L343.7,90.9z
			 M342.6,80c-0.2-0.1-0.5-0.2-0.9-0.2s-0.7-0.1-1.1-0.1c-0.7,0-1.3,0.2-1.8,0.5s-1.1,0.8-1.5,1.4s-0.7,1.3-1,2.1
			c-0.2,0.8-0.4,1.7-0.4,2.6c0,0.6,0.1,1.1,0.4,1.4s0.6,0.5,1.1,0.5c0.4,0,0.7-0.1,1.1-0.3s0.7-0.4,1.1-0.7s0.6-0.6,0.9-1
			s0.5-0.7,0.7-1L342.6,80z"/>
		<path class="st1" d="M347.8,86.5c0-1.4,0.2-2.7,0.7-3.9c0.5-1.2,1.1-2.2,1.9-3s1.7-1.5,2.7-2s2.1-0.7,3.2-0.7c1,0,1.8,0.1,2.5,0.4
			s1.2,0.6,1.7,1.1c0.4,0.5,0.7,1,0.9,1.6c0.2,0.6,0.3,1.2,0.3,1.8c0,1.4-0.2,2.7-0.7,3.9c-0.5,1.2-1.1,2.2-1.8,3s-1.7,1.5-2.7,2
			s-2.1,0.7-3.2,0.7c-1,0-1.8-0.1-2.5-0.4s-1.2-0.6-1.7-1.1c-0.4-0.5-0.8-1-1-1.5C347.9,87.7,347.8,87.1,347.8,86.5z M351.8,86.1
			c0,1.6,0.7,2.5,2,2.5c0.5,0,1-0.2,1.5-0.6s0.9-0.9,1.3-1.5s0.7-1.3,0.9-2.1c0.2-0.8,0.3-1.6,0.3-2.4c0-0.7-0.1-1.3-0.4-1.7
			s-0.8-0.6-1.6-0.6c-0.5,0-1,0.2-1.5,0.5c-0.5,0.4-0.9,0.8-1.3,1.4s-0.7,1.3-0.9,2S351.8,85.3,351.8,86.1z"/>
		<path class="st1" d="M375.9,85.5c-0.2,0.7-0.3,1.4-0.4,2.1s-0.1,1.4-0.1,2c0,0.3,0,0.5,0,0.7s0,0.4,0,0.6h-2.8l-0.4-2.3h-0.1
			c-0.2,0.3-0.5,0.7-0.9,1s-0.8,0.6-1.2,0.9c-0.4,0.3-0.9,0.5-1.4,0.6s-1,0.2-1.5,0.2c-1.4,0-2.4-0.4-3-1.2c-0.7-0.8-1-1.8-1-3.1
			c0-1.3,0.2-2.6,0.6-3.8c0.4-1.2,1-2.3,1.8-3.2c0.8-0.9,1.8-1.7,3.1-2.2c1.2-0.6,2.7-0.8,4.4-0.8c0.7,0,1.5,0.1,2.4,0.2
			s1.7,0.3,2.5,0.5L375.9,85.5z M368.6,88.5c0.4,0,0.7-0.1,1.1-0.2c0.3-0.1,0.6-0.3,0.9-0.5s0.5-0.5,0.7-0.7s0.4-0.5,0.6-0.7
			l1.6-6.4c-0.2-0.1-0.5-0.2-0.8-0.2s-0.6-0.1-0.9-0.1c-0.7,0-1.4,0.2-2,0.6s-1.1,0.9-1.5,1.5s-0.7,1.3-0.9,2.1
			c-0.2,0.8-0.3,1.6-0.3,2.4c0,0.6,0.1,1.1,0.3,1.5C367.6,88.3,368,88.5,368.6,88.5z"/>
		<path class="st1" d="M383,86.9c-0.1,0.5-0.1,0.9,0,1.2c0.1,0.3,0.4,0.4,0.7,0.4c0.6,0,1.1-0.1,1.6-0.3l-0.1,2.4
			c-0.4,0.2-0.9,0.4-1.6,0.5s-1.4,0.2-2.1,0.2c-0.9,0-1.6-0.1-2-0.4c-0.5-0.3-0.7-0.9-0.7-1.7c0-0.4,0.1-0.9,0.2-1.4l3.8-15.9h3.8
			L383,86.9z"/>
	</g>
	<g>
		<path class="st1" d="M46.6,79.6c-4.8-0.9-16-3.3-16.5-5.4c-0.1-0.2-0.1-0.6,0.4-1c7.1-5.5,14.8-5.9,16.9-5.9c0.2,0,0.3,0,0.4,0
			c0.2-0.1,0.4-0.4,0.4-0.7c0-0.4-0.4-0.8-1.1-1.2C42.2,62.5,35,61,25.8,61c-4.9,0-9.2,0.4-11.5,0.7c-0.9,0.1-1.5,0.2-1.8,0.2
			c-0.9,0-1.4,0.3-2,0.6c-0.5,0.3-1.1,0.6-2,0.6c-1.8,0-4.1-2.4-4.4-2.7l-0.6-0.7l0.9-0.2c0.3-0.1,1.9-0.7,3.9-1.4
			c8.2-3.2,27.5-10.6,38.8-10.6c3.4,0,12.5,4.1,14.8,5.8c1.1,0.8,2.3,1.2,3.4,1.2c2,0,3.3-1.2,3.5-1.5c2.2-4,13.7-24.3,21-28.7
			c2.3-1.4,30.5-7.6,31.7-7.9l1.2-0.3l-0.7,1c-8.1,11.8-11.5,14-16.3,17c-0.6,0.4-1.2,0.7-1.8,1.1c-1.7,1.1-4.6,1.4-7.3,1.7
			c-2.3,0.3-4.7,0.5-6.1,1.3c-2.7,1.4-8,9.6-7.8,11.9c0,0.3,0.1,0.3,0.2,0.3c4.8,1.4,4.2,8,4.2,8L87,59.3l-0.7-0.6
			c-0.8-0.6-1.3-0.9-1.8-0.9c-0.2,0-0.5,0-0.7,0.1c-1.2,0.3-2.6,1.8-6.1,6.2c-5.8,7.3-10.1,8.2-12.7,8.8c-0.4,0.1-0.7,0.2-1.1,0.2
			c-1.3,0.4-3,0.5-5.2,0.5c-1.1,0-2.2,0-3.3-0.1c-0.9,0-1.7-0.1-2.5-0.1c-1,0-1.6,0.1-2,0.2c-0.9,0.3-2.9,3.4-4,5.5l-0.2,0.3
			L46.6,79.6z"/>
		<path class="st2" d="M121.9,16.8c-9,13.2-12.3,14.3-18,18c-3.1,2-10.2,1.3-13.4,3c-3.2,1.7-10,12.4-7.5,13.2
			c4.5,1.3,3.8,7.5,3.8,7.5c-0.9-0.7-1.5-1-2.2-1c-0.3,0-0.6,0-0.9,0.1c-1.3,0.4-2.8,1.8-6.4,6.3c-6.5,8.3-11,8.2-13.5,8.9
			c-1.5,0.4-3.3,0.5-5.1,0.5c-2.1,0-4.2-0.1-5.8-0.1c-0.9,0-1.7,0.1-2.1,0.2c-1.5,0.5-4.2,5.8-4.2,5.8s-18.4-3.5-15.8-5.5
			c7-5.4,14.6-5.8,16.6-5.8c0.4,0,0.6,0,0.6,0s2.1-1.3-0.5-2.9c-6-3.7-14.4-4.6-21.5-4.6c-6.8,0-12.3,0.8-13.3,0.8
			c-2,0-2.3,1.2-4,1.2s-4-2.5-4-2.5c1.8-0.3,28.5-12,42.7-12c3.3,0,12.3,4.1,14.5,5.7c1.4,0.9,2.6,1.3,3.7,1.3c2.2,0,3.7-1.3,4-1.8
			c4.1-7.3,14.3-24.6,20.8-28.5C92.7,23.2,121.9,16.8,121.9,16.8 M124.1,15.2l-2.5,0.5c-3,0.7-29.4,6.5-31.8,8
			c-7.4,4.5-19,24.8-21.2,28.9c-0.2,0.3-1.4,1.3-3.1,1.3c-1,0-2.1-0.4-3.1-1.1C60.1,51.2,51,47,47.3,47c-11.4,0-30.8,7.4-39,10.6
			c-1.8,0.7-3.5,1.3-3.8,1.4l-1.7,0.3L4,60.6c0.4,0.5,2.7,2.8,4.7,2.8c1,0,1.7-0.4,2.3-0.7c0.5-0.3,0.9-0.5,1.7-0.5
			c0.3,0,0.9-0.1,1.9-0.2c2.3-0.2,6.6-0.7,11.4-0.7c9.1,0,16.2,1.5,21,4.3c0.7,0.4,0.8,0.7,0.8,0.8c0,0.1-0.1,0.1-0.1,0.2
			c-0.1,0-0.1,0-0.2,0c-2.2,0-10,0.4-17.3,6c-0.5,0.4-0.7,1-0.6,1.5c0.2,0.9,1.1,2,8.9,4c3.9,1,7.9,1.7,7.9,1.7l0.7,0.1l0.3-0.7
			c1.4-2.6,3.1-5,3.7-5.3c0.3-0.1,0.9-0.2,1.8-0.2c0.7,0,1.6,0,2.5,0.1c1.1,0,2.2,0.1,3.3,0.1c2.3,0,4-0.2,5.4-0.6
			c0.3-0.1,0.6-0.2,1-0.2c2.6-0.6,7.1-1.5,13-9c3.3-4.2,4.8-5.7,5.9-6c0.3-0.1,0.4-0.1,0.6-0.1c0.3,0,0.7,0.1,1.5,0.8l1.4,1.2
			l0.2-1.8c0-0.3,0.7-6.9-4.4-8.5c-0.3-1.8,4.8-10,7.5-11.4c1.3-0.7,3.7-1,5.9-1.2c2.8-0.3,5.7-0.6,7.5-1.8c0.6-0.4,1.2-0.8,1.8-1.1
			c4.7-2.9,8.4-5.2,16.5-17.1L124.1,15.2L124.1,15.2z"/>
	</g>
</g>
</svg>
