<?xml version="1.0" encoding="utf-8"?>
<!-- Generator: Adobe Illustrator 19.2.1, SVG Export Plug-In . SVG Version: 6.00 Build 0)  -->
<svg version="1.1" id="Layer_1" xmlns="http://www.w3.org/2000/svg" xmlns:xlink="http://www.w3.org/1999/xlink" x="0px" y="0px"
	 viewBox="0 0 150 31.04" style="enable-background:new 0 0 150 31.04;" xml:space="preserve">
<style type="text/css">
	.st0{fill:#191919;}
</style>
<g>
	<path class="st0" d="M15.97,10.37c-3.28,1.32-6.42,1.96-8.73,1.98c-0.04,0-0.08-0.04-0.09-0.08l-0.01-0.1
		c-0.01-0.04,0.03-0.08,0.06-0.09c1.49-0.32,3.07-0.79,4.71-1.44c6.06-2.42,10.21-6,9.49-7.95c-0.54-0.25-1.08-0.43-1.64-0.57
		c-0.71,1.4-3.29,3.22-6.49,4.49c-1.93,0.77-3.17,1.01-4.89,1.14c-0.04,0-0.08-0.03-0.09-0.08l0-0.09C8.28,7.55,8.32,7.51,8.35,7.5
		c0.68-0.18,1.1-0.3,2.18-0.73c3.76-1.51,6.4-3.67,6.5-5.03c-1.51-0.06-3.05,0.14-4.56,0.63c-6.88,2.22-10.64,9.62-8.4,16.5
		c2.23,6.89,9.62,10.65,16.51,8.41c5.47-1.78,8.98-6.82,9.06-12.27c-1.96,1.39-4.43,2.8-7.26,3.93c-3.9,1.56-7.68,2.33-10.39,2.34
		c-0.04,0-0.08-0.04-0.09-0.08l-0.01-0.1c0-0.04,0.03-0.08,0.06-0.09c1.75-0.4,4.05-1.05,6-1.83c6.69-2.68,11.33-6.18,10.87-8.89
		c-0.1-0.27-0.46-0.88-0.52-0.93c-2.17,1.9-5.52,3.88-9.44,5.44c-4.12,1.65-7.66,2.35-10.55,2.44c-0.04,0-0.08-0.04-0.08-0.08
		l-0.01-0.1c-0.01-0.04,0.03-0.08,0.06-0.09c1.85-0.41,3.51-0.97,5.57-1.79c7.36-2.94,12.49-7.27,11.83-9.73
		c-0.27-0.27-0.52-0.55-0.81-0.79C23.37,6.53,20,8.76,15.97,10.37z M25.67,3.12c2.47-0.41,4.37,0.11,5.08,1.59
		c0.4,0.82,0.05,1.86-0.79,2.96c1.75-0.06,3.07,0.48,3.63,1.64c0.6,1.26-0.59,3.04-2.78,4.82c0.05,0.49,0.07,0.98,0.07,1.48
		c0,8.53-6.91,15.44-15.43,15.44C6.91,31.04,0,24.13,0,15.6S6.91,0.16,15.44,0.16c0.33,0,0.67,0.01,1.01,0.03
		c1.53-0.38,2.78-0.21,3.32,0.59c0.3,0.08,0.6,0.18,0.89,0.28c2.37-0.58,4.25-0.22,4.9,1.13C25.7,2.48,25.72,2.79,25.67,3.12z"/>
	<g>
		<path class="st0" d="M35.28,24.71h4.63l1.45-6.77h1.62c3.76,0,6.22-1.89,7-5.52c0.67-3.11-0.42-5.48-3.96-5.48h-6.95L35.28,24.71z
			 M42.97,10.27h0.87c1.17,0,1.64,0.7,1.34,2.17c-0.32,1.49-1.1,2.17-2.27,2.17h-0.87L42.97,10.27z"/>
		<path class="st0" d="M48.07,24.71h4.48l1.57-7.35c0.37-1.76,1.42-2.39,3.02-2.39c0.37,0,0.72,0.03,1.1,0.1l0.9-4.18H58.4
			c-1.32,0-2.69,0.87-3.54,2.49h-0.05l0.45-2.14h-4.33L48.07,24.71z"/>
		<path class="st0" d="M57.34,24.71h4.48l2.86-13.47H60.2L57.34,24.71z M60.41,10.27h4.48l0.72-3.34h-4.48L60.41,10.27z"/>
		<path class="st0" d="M70.06,24.71h4.48l1.89-8.89c0.25-1.12,0.62-1.59,1.42-1.59s1.02,0.47,0.77,1.59l-1.89,8.89h4.48l2.17-10.16
			c0.62-2.88-0.78-3.66-2.74-3.66c-1.37,0-2.82,0.55-3.84,2.07c-0.25-1.37-0.99-2.07-2.84-2.07c-1.54,0-2.84,0.67-3.68,1.99h-0.05
			l0.35-1.64h-4.33l-2.87,13.47h4.48l1.89-8.89c0.25-1.12,0.62-1.59,1.42-1.59c0.8,0,1.02,0.47,0.77,1.59L70.06,24.71z"/>
		<path class="st0" d="M94.7,18.74l0.3-1.37c1.07-4.88-0.45-6.47-4.04-6.47c-4.04,0-6.15,1.94-7.25,7.09
			c-1.07,5.13-0.1,7.07,4.23,7.07c3.71,0,5.63-1.82,6.35-5.08h-4.04c-0.37,1.85-0.97,2.34-1.76,2.34c-0.62,0-1.12-0.38-0.82-1.82
			l0.37-1.77L94.7,18.74L94.7,18.74z M91.04,16.3h-2.47l0.12-0.6c0.3-1.42,0.75-2.07,1.67-2.07c0.95,0,1.1,0.64,0.8,2.07L91.04,16.3
			z"/>
		<path class="st0" d="M94.61,24.71h4.48l1.56-7.35c0.37-1.76,1.42-2.39,3.02-2.39c0.37,0,0.72,0.03,1.1,0.1l0.9-4.18h-0.72
			c-1.32,0-2.69,0.87-3.54,2.49h-0.05l0.45-2.14h-4.34L94.61,24.71z"/>
		<path class="st0" d="M113.95,24.71c-0.22-0.7-0.07-1.67,0.19-2.91l1.4-6.59c0.74-3.49-1.27-4.31-4.4-4.31
			c-2.04,0-5.3,0.67-6.12,4.5h3.88c0.32-1.4,0.82-1.76,1.67-1.76c0.77,0,1.04,0.41,0.87,1.23c-0.17,0.81-0.62,1.24-1.64,1.46
			l-1.84,0.43c-3.01,0.7-4.13,1.85-4.66,4.35c-0.5,2.32,0.2,3.96,2.89,3.96c1.35,0,2.69-0.67,3.43-1.87h0.05
			c-0.05,0.55-0.1,1.04-0.05,1.52H113.95z M108.52,22.05c-0.67,0-0.97-0.57-0.8-1.47c0.2-0.9,0.52-1.43,1.29-1.75
			c0.72-0.3,1.35-0.27,1.65-0.63h0.05l-0.32,1.62C110.09,21.3,109.52,22.05,108.52,22.05z"/>
		<path class="st0" d="M117.69,24.71h4.92l1.15-3.11h3.68l-0.2,3.11h4.93l-0.55-17.78h-5.82L117.69,24.71z M127.63,18.12h-2.59
			l2.89-7.54h0.05L127.63,18.12z"/>
		<path class="st0" d="M132.65,24.71h4.48l2.86-13.47h-4.48L132.65,24.71z M135.71,10.27h4.48l0.72-3.34h-4.48L135.71,10.27z"/>
		<path class="st0" d="M138.94,24.71h4.48l1.57-7.35c0.38-1.76,1.42-2.39,3.02-2.39c0.38,0,0.72,0.03,1.1,0.1l0.9-4.18h-0.72
			c-1.32,0-2.69,0.87-3.53,2.49h-0.05l0.45-2.14h-4.33L138.94,24.71z"/>
	</g>
</g>
</svg>
