<?xml version="1.0" encoding="utf-8"?>
<!-- Generator: Adobe Illustrator 22.1.0, SVG Export Plug-In . SVG Version: 6.00 Build 0)  -->
<svg version="1.1" id="Layer_1" xmlns="http://www.w3.org/2000/svg" xmlns:xlink="http://www.w3.org/1999/xlink" x="0px" y="0px"
	 width="160.683px" height="25px" viewBox="0 0 160.683 25" style="enable-background:new 0 0 160.683 25;" xml:space="preserve">
<style type="text/css">
	.st0{fill:#010101;}
	.st1{fill:#2E378F;}
	.st2{fill:#F6B624;}
	.st3{fill:#EE272B;}
</style>
<g>
	<path class="st0" d="M43.179,13.069h3.808c1.918,0,3.302,0.679,3.302,2.769s-1.731,3.329-3.702,3.329h-2.583l-0.719,3.409h-2.091
		L43.179,13.069z M44.35,17.543h2.13c1.065,0,1.718-0.533,1.718-1.664c0-0.959-0.746-1.185-1.478-1.185h-1.784L44.35,17.543z"/>
	<path class="st0" d="M52.287,13.069h1.891l-0.706,3.422h0.026c0.293-0.399,1.039-0.985,2.277-0.985
		c1.318,0,2.011,0.639,2.011,1.851c0,0.293-0.16,0.946-0.2,1.186l-0.852,4.034h-1.891l0.839-4.034c0.04-0.213,0.12-0.653,0.12-0.839
		c0-0.413-0.466-0.706-0.905-0.706c-1.145,0-1.718,0.959-1.931,1.918l-0.773,3.662h-1.891L52.287,13.069z"/>
	<path class="st0" d="M60.237,15.692h1.904l-1.465,6.884h-1.904L60.237,15.692z M62.354,14.628H60.45l0.346-1.558H62.7
		L62.354,14.628z"/>
	<path class="st0" d="M64.578,13.069h1.891l-2.024,9.507h-1.891L64.578,13.069z"/>
	<path class="st0" d="M67.8,15.692h1.904l-1.465,6.884h-1.904L67.8,15.692z M69.918,14.628h-1.904l0.346-1.558h1.904L69.918,14.628z
		"/>
	<path class="st0" d="M71.476,15.692H73.3l-0.186,0.852l0.026,0.027c0.426-0.746,1.212-1.065,2.064-1.065
		c1.665,0,2.61,1.052,2.61,2.716c0,2.264-1.198,4.541-3.742,4.541c-0.799,0-1.638-0.346-1.931-1.105h-0.04L71.382,25h-1.891
		L71.476,15.692z M74.578,16.931c-1.411,0-2.077,1.731-2.077,2.916c0,0.892,0.439,1.491,1.358,1.491
		c1.438,0,2.064-1.665,2.064-2.876C75.923,17.65,75.471,16.931,74.578,16.931z"/>
	<path class="st0" d="M79.945,15.692h1.824l-0.186,0.852l0.026,0.027c0.426-0.746,1.212-1.065,2.064-1.065
		c1.665,0,2.61,1.052,2.61,2.716c0,2.264-1.198,4.541-3.742,4.541c-0.799,0-1.638-0.346-1.93-1.105h-0.04L79.852,25h-1.891
		L79.945,15.692z M83.047,16.931c-1.411,0-2.077,1.731-2.077,2.916c0,0.892,0.44,1.491,1.359,1.491c1.438,0,2.064-1.665,2.064-2.876
		C84.393,17.65,83.94,16.931,83.047,16.931z"/>
	<path class="st0" d="M88.52,15.692h1.905l-1.465,6.884h-1.904L88.52,15.692z M90.638,14.628h-1.905l0.346-1.558h1.904
		L90.638,14.628z"/>
	<path class="st0" d="M92.276,15.692h1.811l-0.213,0.959H93.9c0.612-0.759,1.411-1.145,2.41-1.145c1.318,0,2.01,0.639,2.01,1.851
		c0,0.293-0.16,0.946-0.2,1.186l-0.852,4.034h-1.891l0.839-4.034c0.04-0.213,0.12-0.653,0.12-0.839c0-0.413-0.466-0.706-0.905-0.706
		c-1.145,0-1.718,0.959-1.931,1.918l-0.773,3.662h-1.891L92.276,15.692z"/>
	<path class="st0" d="M101.424,19.594c-0.013,0.093-0.013,0.16-0.013,0.226v0.173c0,0.799,0.492,1.345,1.518,1.345
		c0.759,0,1.119-0.506,1.412-0.945h1.891c-0.6,1.544-1.585,2.37-3.569,2.37c-1.851,0-3.062-1.039-3.062-3.009
		c0-2.197,1.451-4.248,3.795-4.248c1.918,0,3.209,1.012,3.209,3.01c0,0.359-0.04,0.719-0.106,1.078L101.424,19.594L101.424,19.594z
		 M104.78,18.396c0-0.706-0.173-1.465-1.278-1.465c-1.079,0-1.598,0.679-1.878,1.465H104.78z"/>
	<path class="st0" d="M116.072,13.069h2.144l1.584,9.507h-2.077l-0.306-2.117h-3.556l-1.198,2.117h-2.211L116.072,13.069z
		 M114.688,18.902h2.543l-0.466-3.782h-0.026L114.688,18.902z"/>
	<path class="st0" d="M122.238,15.692h1.904l-1.465,6.884h-1.904L122.238,15.692z M124.355,14.628h-1.904l0.346-1.558h1.904
		L124.355,14.628z"/>
	<path class="st0" d="M125.993,15.692h1.797l-0.279,1.238l0.026,0.027c0.426-0.959,1.359-1.451,2.371-1.451
		c0.186,0,0.386,0.013,0.586,0.04l-0.386,1.837c-0.267-0.053-0.533-0.12-0.799-0.12c-1.451,0-1.971,1.092-2.223,2.264l-0.639,3.049
		h-1.891L125.993,15.692z"/>
	<path class="st0" d="M132.092,13.069h1.891l-2.024,9.507h-1.891L132.092,13.069z"/>
	<path class="st0" d="M135.314,15.692h1.904l-1.465,6.884h-1.904L135.314,15.692z M137.431,14.628h-1.904l0.346-1.558h1.904
		L137.431,14.628z"/>
	<path class="st0" d="M139.07,15.692h1.811l-0.213,0.959h0.027c0.612-0.759,1.411-1.145,2.41-1.145c1.318,0,2.011,0.639,2.011,1.851
		c0,0.293-0.16,0.946-0.2,1.186l-0.852,4.034h-1.891l0.839-4.034c0.04-0.213,0.12-0.653,0.12-0.839c0-0.413-0.466-0.706-0.906-0.706
		c-1.145,0-1.718,0.959-1.931,1.918l-0.772,3.662h-1.891L139.07,15.692z"/>
	<path class="st0" d="M148.218,19.594c-0.013,0.093-0.013,0.16-0.013,0.226v0.173c0,0.799,0.493,1.345,1.518,1.345
		c0.759,0,1.119-0.506,1.412-0.945h1.891c-0.599,1.544-1.585,2.37-3.568,2.37c-1.851,0-3.063-1.039-3.063-3.009
		c0-2.197,1.451-4.248,3.795-4.248c1.918,0,3.209,1.012,3.209,3.01c0,0.359-0.04,0.719-0.106,1.078L148.218,19.594L148.218,19.594z
		 M151.574,18.396c0-0.706-0.173-1.465-1.278-1.465c-1.078,0-1.598,0.679-1.878,1.465H151.574z"/>
	<path class="st0" d="M158.924,17.703c-0.013-0.586-0.333-0.932-1.065-0.932c-0.679,0-1.158,0.186-1.158,0.679
		c0,0.306,0.227,0.493,0.865,0.692l0.945,0.307c1.012,0.319,1.811,0.826,1.811,1.971c0,1.704-1.678,2.344-3.276,2.344
		c-1.345,0-2.929-0.533-2.929-2.144v-0.28h1.758v0.226c0,0.626,0.706,0.932,1.358,0.932c0.573,0,1.199-0.2,1.199-0.825
		c0-0.479-0.267-0.613-0.679-0.759l-1.451-0.466c-0.946-0.319-1.492-0.665-1.492-1.757c0-1.625,1.718-2.184,3.049-2.184
		c1.492,0,2.863,0.426,2.823,2.197L158.924,17.703L158.924,17.703z"/>
	<g>
		<polygon class="st1" points="0,22.321 22.449,22.321 26.449,0 		"/>
		<path class="st2" d="M23.358,9.75l0.185-7.298L22.93,2.97l-0.171,6.843l-0.827,3.036h0.001c-0.001,0.001-0.002,0.001-0.004,0.001
			l0.002-0.001l-1.417-2.588L19.76,5.645l-0.533,0.449l0.667,4.167v3.258l0.018-0.007c-0.011,0.005-0.021,0.01-0.032,0.015
			l0.014-0.007l-1.954-2.29L16.259,8.6l-0.452,0.381l1.607,2.515l0.764,2.927l0.021-0.011c-0.015,0.01-0.028,0.019-0.041,0.027
			l0.021-0.016l-2.61-1.764l-1.651-2.084l-0.442,0.373l1.635,2.064l1.472,2.629l-2.999-1.2l-2.196-1.73l-0.443,0.373l2.261,1.785
			l2.074,2.19l0.021-0.021c-0.011,0.013-0.022,0.027-0.032,0.041l0.012-0.019l-3.253-0.561l-3.369-1.484l-0.473,0.399l3.559,1.568
			l2.485,1.748l0.018-0.028c-0.01,0.021-0.021,0.042-0.031,0.063l0.014-0.035l-3.201-0.222l-4.929-1.333l-0.512,0.432l5.251,1.421
			l2.709,1.452l-3.173,0.374l-8.09-0.461l-0.607,0.514l8.616,0.49l2.932,0.818l11.034-9.141L23.358,9.75L23.358,9.75z"/>
		<polygon class="st3" points="12.683,22.321 35.133,22.321 39.132,0 		"/>
	</g>
</g>
</svg>
