<?xml version="1.0" encoding="UTF-8"?>
<svg width="59px" height="23px" viewBox="0 0 59 23" version="1.1" xmlns="http://www.w3.org/2000/svg" xmlns:xlink="http://www.w3.org/1999/xlink">
    <!-- Generator: Sketch 49.1 (51147) - http://www.bohemiancoding.com/sketch -->
    <title>Ukraine_international_airlines_s</title>
    <desc>Created with Sketch.</desc>
    <defs>
        <linearGradient x1="50%" y1="0%" x2="50%" y2="100%" id="linearGradient-1">
            <stop stop-color="#FFFFFF" offset="0%"></stop>
            <stop stop-color="#000000" offset="100%"></stop>
        </linearGradient>
        <linearGradient x1="76.2612237%" y1="28.0596709%" x2="90.8324757%" y2="46.4121589%" id="linearGradient-2">
            <stop stop-color="#2EBCED" offset="0%"></stop>
            <stop stop-color="#3277BA" offset="100%"></stop>
        </linearGradient>
        <path d="M28.4128604,0.402206383 L13.9893823,17.7331957 C13.9893823,17.7331957 12.9148613,18.9992723 11.675033,19.4351957 L0.61976796,22.9843894 L31.0578728,22.9843894 L36.8024558,0.13237234 C36.8024558,0.13237234 29.5287936,0.13237234 28.4128604,0.402206383" id="path-3"></path>
        <linearGradient x1="100%" y1="0%" x2="2.74825823%" y2="100%" id="linearGradient-4">
            <stop stop-color="#327DBE" offset="0%"></stop>
            <stop stop-color="#2DBCED" offset="100%"></stop>
        </linearGradient>
        <linearGradient x1="19.8934176%" y1="34.304256%" x2="46.1137493%" y2="56.2863092%" id="linearGradient-5">
            <stop stop-color="#FAF4A4" offset="0%"></stop>
            <stop stop-color="#FFBB47" offset="100%"></stop>
        </linearGradient>
    </defs>
    <g id="AVIA" stroke="none" stroke-width="1" fill="none" fill-rule="evenodd">
        <g id="Ukraine_international_airlines_s">
            <path d="M46.8271892,13.1148594 C46.8271892,13.119753 46.8272866,13.1258211 46.8272866,13.1331126 C46.8270917,13.243953 46.8212941,13.5681062 46.7487012,13.9985487 C46.6746467,14.4286977 46.5375484,14.9683168 46.2379687,15.5095019 C46.0380703,15.8685955 45.7602197,16.2306253 45.3757697,16.5265913 C44.870299,16.9212126 44.1795459,17.1692211 43.3958349,17.1692211 C43.3886244,17.1692211 43.3812676,17.1692211 43.3740571,17.1691721 L43.3145699,17.1691721 C42.8682941,17.1694657 42.4527606,17.0955721 42.0825855,16.95537 C41.7123618,16.8159509 41.3912965,16.6109083 41.1293287,16.3735679 C40.6032007,15.8953636 40.3134625,15.3136594 40.1387524,14.7982147 C40.0224576,14.4525296 39.9570752,14.129404 39.9179043,13.8591296 C39.8660174,13.4988126 39.8612429,13.23167 39.8611941,13.1331615 C39.8611941,13.1240104 39.8611941,13.1160828 39.8612429,13.1093785 L39.8613403,8.26973809 L41.7623973,8.26973809 L41.7623973,13.1276317 L41.7622998,13.1328189 L41.7622998,13.1331615 C41.762105,13.165753 41.7650769,13.3917891 41.8138944,13.6782126 C41.8612503,13.9648317 41.9583007,14.3087062 42.1097226,14.5775126 C42.2103783,14.7581849 42.3294501,14.9036232 42.4691306,15.0110381 C42.6577259,15.1507019 42.8835434,15.2550338 43.3145699,15.2596828 L43.3740571,15.2596338 C43.6160496,15.2593402 43.7943651,15.2214636 43.9363353,15.1681721 C44.0782082,15.1140487 44.1876334,15.0437764 44.2876557,14.9540274 C44.4852156,14.7781509 44.6447738,14.4987253 44.7487912,14.1863657 C44.8185096,13.9800998 44.8631372,13.766004 44.8891537,13.585136 C44.9241347,13.3438317 44.9262296,13.1620828 44.9262296,13.1331126 C44.9261322,13.1303721 44.9261322,13.1283657 44.9261322,13.1270445 L44.9260835,13.1214168 L44.9260835,8.26973809 L44.9261322,8.26973809 L46.8271892,8.26973809 L46.8271892,13.1148594 Z" id="Fill-1" fill="#2E75BB"></path>
            <polygon id="Fill-3" fill="#2E75BB" points="48.4390487 17.088217 50.3401057 17.088217 50.3401057 8.24951277 48.4390487 8.24951277"></polygon>
            <path d="M54.2256966,13.9914579 L54.6148725,12.6688111 C54.6148725,12.6688111 55.0488221,11.0602302 55.224458,10.2404026 C55.224458,10.2404026 55.5344637,11.7555643 55.8340434,12.7829791 C55.9537486,13.1932111 56.1837073,13.97066 56.4168816,14.7567217 C56.4168816,14.7567217 55.6549485,14.224443 54.2256966,13.9914579 Z M56.2145472,8.24958128 L54.3069617,8.24958128 L51.4683358,17.0882366 L53.3144852,17.0882366 L53.7994935,15.4399685 C53.7994935,15.4399685 55.9882912,15.6234302 57.1096809,17.0882366 L58.9762928,17.0882366 L56.2145472,8.24958128 Z" id="Fill-5" fill="#2E75BB"></path>
            <g id="Fill-7">
                <use fill="url(#linearGradient-1)" xlink:href="#path-3"></use>
                <use fill="url(#linearGradient-2)" xlink:href="#path-3"></use>
            </g>
            <path d="M33.2267927,4.89361702e-05 C32.5545533,0.000440425532 31.9036045,0.0050893617 31.5248059,0.0188404255 C30.0690991,0.0570106383 28.7629628,0.123955319 28.2988555,0.247861702 L28.2861883,0.25133617 L13.8439529,17.6235298 C13.8448299,17.6225511 13.7768167,17.6985489 13.6544806,17.8205468 C13.2878134,18.1863447 12.2605508,19.0926915 11.1240091,19.3936489 L0,22.9842915 L0.271175888,22.9842915 L11.4133088,19.4212979 C12.7082395,19.0062213 13.9039761,17.6797085 13.9064121,17.6778979 L28.3328134,0.324740426 C28.7868357,0.207489362 30.0886846,0.138880851 31.5269009,0.101885106 C32.9799282,0.0639595745 34.5775078,0.0565702128 35.6070116,0.0565702128 C36.2712122,0.0565702128 36.6978051,0.0596531915 36.6988282,0.0596531915 L36.6995103,0.0333255319 C36.6994129,0.0333255319 36.2715045,0.0114021277 35.6070116,0.0114021277 C35.6070116,0.0114021277 34.5144154,0.000636170213 33.4160215,4.89361702e-05 L33.2267927,4.89361702e-05 Z" id="Fill-10" fill="url(#linearGradient-4)"></path>
            <path d="M27.0541699,11.7475632 C29.2682045,13.03111 30.5163639,15.0609334 30.5163639,15.0609334 L30.5163639,16.1641994 C31.4099386,15.2116568 31.9577471,13.9283057 31.9577471,12.5162526 C31.9577471,12.2551291 31.9387462,11.9986057 31.9024985,11.7475632 L27.0541699,11.7475632 Z" id="Fill-13" fill="#FFBB37"></path>
            <path d="M21.3630669,12.5162574 C21.3630669,15.4548745 23.7347597,17.8370383 26.6604484,17.8370383 C28.1462642,17.8370383 29.4888918,17.2224 30.4508695,16.2327149 C27.0320851,12.7216426 22.9976251,12.9714617 22.9976251,12.9714617 L22.7301519,13.2699234 L22.7301519,11.9564766 C24.9887655,11.9564766 25.9248728,12.3595149 25.9248728,12.3595149 C25.4196457,11.9564766 24.275455,11.7475681 24.275455,11.7475681 L24.275455,10.6729787 L31.6311131,10.6729787 C30.8845756,8.64281277 28.9408885,7.19532979 26.6604484,7.19532979 C23.7347597,7.19532979 21.3630669,9.57764043 21.3630669,12.5162574" id="Fill-18" fill="url(#linearGradient-5)"></path>
            <path d="M20.7687308,12.5162574 C20.7687308,15.7845574 23.4065326,18.4341085 26.6604484,18.4341085 C29.9142667,18.4341085 32.5521173,15.7845574 32.5521173,12.5162574 C32.5521173,9.24790851 29.9142667,6.59835745 26.6604484,6.59835745 C23.4065326,6.59835745 20.7687308,9.24790851 20.7687308,12.5162574 M21.1401726,12.5162574 C21.1401726,9.45392979 23.6116441,6.97149574 26.6604484,6.97149574 C29.7091065,6.97149574 32.1806268,9.45392979 32.1806268,12.5162574 C32.1806268,15.5784872 29.7091065,18.0609702 26.6604484,18.0609702 C23.6116441,18.0609702 21.1401726,15.5784872 21.1401726,12.5162574" id="Fill-20" fill="url(#linearGradient-5)"></path>
        </g>
    </g>
</svg>