<?xml version="1.0" encoding="UTF-8" standalone="no"?>
<!-- Generator: Adobe Illustrator 17.1.0, SVG Export Plug-In . SVG Version: 6.00 Build 0)  -->

<svg
   xmlns:dc="http://purl.org/dc/elements/1.1/"
   xmlns:cc="http://creativecommons.org/ns#"
   xmlns:rdf="http://www.w3.org/1999/02/22-rdf-syntax-ns#"
   xmlns:svg="http://www.w3.org/2000/svg"
   xmlns="http://www.w3.org/2000/svg"
   xmlns:sodipodi="http://sodipodi.sourceforge.net/DTD/sodipodi-0.dtd"
   xmlns:inkscape="http://www.inkscape.org/namespaces/inkscape"
   version="1.1"
   id="Layer_1"
   x="0px"
   y="0px"
   viewBox="0 0 100 64.999998"
   enable-background="new 0 0 595.3 841.9"
   xml:space="preserve"
   inkscape:version="0.91 r13725"
   sodipodi:docname="piedmont-airlines-seeklogo.com.svg"
   width="100"
   height="65"><title
     id="title4159">Piedmont Airlines logo</title><metadata
     id="metadata31"><rdf:RDF><cc:Work
         rdf:about=""><dc:format>image/svg+xml</dc:format><dc:type
           rdf:resource="http://purl.org/dc/dcmitype/StillImage" /><dc:title>Piedmont Airlines logo</dc:title><cc:license
           rdf:resource="http://scripts.sil.org/OFL" /></cc:Work><cc:License
         rdf:about="http://scripts.sil.org/OFL"><cc:permits
           rdf:resource="http://scripts.sil.org/pub/OFL/Reproduction" /><cc:permits
           rdf:resource="http://scripts.sil.org/pub/OFL/Distribution" /><cc:permits
           rdf:resource="http://scripts.sil.org/pub/OFL/Embedding" /><cc:permits
           rdf:resource="http://scripts.sil.org/pub/OFL/DerivativeWorks" /><cc:requires
           rdf:resource="http://scripts.sil.org/pub/OFL/Notice" /><cc:requires
           rdf:resource="http://scripts.sil.org/pub/OFL/Attribution" /><cc:requires
           rdf:resource="http://scripts.sil.org/pub/OFL/ShareAlike" /><cc:requires
           rdf:resource="http://scripts.sil.org/pub/OFL/DerivativeRenaming" /><cc:requires
           rdf:resource="http://scripts.sil.org/pub/OFL/BundlingWhenSelling" /></cc:License></rdf:RDF></metadata><defs
     id="defs29" /><sodipodi:namedview
     pagecolor="#ffffff"
     bordercolor="#666666"
     borderopacity="1"
     objecttolerance="10"
     gridtolerance="10"
     guidetolerance="10"
     inkscape:pageopacity="0"
     inkscape:pageshadow="2"
     inkscape:window-width="1366"
     inkscape:window-height="705"
     id="namedview27"
     showgrid="false"
     inkscape:showpageshadow="false"
     inkscape:zoom="1"
     inkscape:cx="70.745756"
     inkscape:cy="32.558289"
     inkscape:window-x="-8"
     inkscape:window-y="-8"
     inkscape:window-maximized="1"
     inkscape:current-layer="Layer_1" /><g
     id="g3"
     transform="matrix(0.31690534,0,0,0.30760773,-44.807378,-77.353975)"><polygon
       points="184.4,458.9 195.7,458.9 215.8,429.3 204.5,429.3 "
       id="polygon5"
       style="fill:#cf3828" /><polygon
       points="201.7,458.9 225.3,458.9 228,454.9 215.7,454.9 221.7,446.1 234,446.1 236.7,442.1 224.4,442.1 230.4,433.3 242.7,433.3 245.4,429.3 221.8,429.3 "
       id="polygon7"
       style="fill:#cf3828" /><polygon
       points="435.5,433.3 444.5,433.3 447.2,429.3 419.9,429.3 417.2,433.4 424.2,433.4 406.8,458.9 418.1,458.9 "
       id="polygon9"
       style="fill:#cf3828" /><path
       d="m 190.9,429.3 -21.9,0 -20.1,29.6 11.3,0 6.6,-9.6 13.6,0 c 0,0 3.6,0.1 5.3,-2.4 l 8.9,-13.1 c 0,0 3,-4.5 -3.7,-4.5 z m -4.6,5.2 -6.8,9.9 c -0.6,0.9 -2.1,0.9 -2.1,0.9 l -7.9,0 8.1,-11.9 8,0 c 1.5,-0.1 0.7,1.1 0.7,1.1 z"
       id="path11"
       inkscape:connector-curvature="0"
       style="fill:#cf3828" /><path
       d="m 275,429.3 -22.6,0 -20.1,29.6 25.7,0 c 0,0 3.6,0 5.3,-2.4 l 15.5,-22.7 c -0.1,0 2.9,-4.5 -3.8,-4.5 z m -4.6,5.2 L 257,454 c -0.6,0.9 -2.1,0.9 -2.1,0.9 l -8.7,0 14.7,-21.5 8.8,0 c 1.6,-0.1 0.7,1.1 0.7,1.1 z"
       id="path13"
       inkscape:connector-curvature="0"
       style="fill:#cf3828" /><path
       d="m 331.9,458.9 c -6.7,0 -3.7,-4.5 -3.7,-4.5 l 15.5,-22.7 c 1.7,-2.5 5.3,-2.4 5.3,-2.4 l 21.7,0 c 6.7,0 3.7,4.5 3.7,4.5 l -15.5,22.7 c -1.7,2.5 -5.3,2.4 -5.3,2.4 l -21.7,0 z m 15.6,-4 c 0,0 1.5,0 2.1,-0.9 L 363,434.4 c 0,0 0.9,-1.1 -0.7,-1.1 l -7.2,0 c 0,0 -1.5,0 -2.1,0.9 l -13.4,19.6 c 0,0 -0.8,1.1 0.7,1.1 l 7.2,0 z"
       id="path15"
       inkscape:connector-curvature="0"
       style="fill:#cf3828" /><g
       id="g17"><path
         d="m 308,458.9 11.3,0 16.9,-25.2 c 0,0 3,-4.5 -3.7,-4.5 l -44.6,0 -20.1,29.6 11.3,0 17.4,-25.6 7.2,0 c 0.8,0 1,0.3 0.9,0.6 l -17,25 11.3,0 17.4,-25.6 7.7,0 c 1.2,0 0.9,0.7 0.7,1 L 308,458.9 Z"
         id="path19"
         inkscape:connector-curvature="0"
         style="fill:#cf3828" /></g><g
       id="g21"><path
         d="m 384.4,458.9 11.3,0 16.9,-25.2 c 0,0 3,-4.5 -3.7,-4.5 l -25.2,0 -20.1,29.6 11.3,0 -11.3,0 11.3,0 17.4,-25.6 8.1,0 c 1.2,0 0.9,0.7 0.8,1 l -16.8,24.7 z"
         id="path23"
         inkscape:connector-curvature="0"
         style="fill:#cf3828" /></g></g><path
     d="M 47.253623,37.691311 82.271663,1.085994 81.859686,7.1458668 51.721988,39.075543 c -0.538739,0.52294 -0.158452,0.861304 -0.158452,0.861304 0.507048,0.338373 0.887334,-0.307603 0.887334,-0.307603 L 81.732924,8.7146666 81.320947,14.52845 58.281929,39.044782 c -0.538739,0.52294 -0.158453,0.861303 -0.158453,0.861303 0.507049,0.338373 0.887336,-0.307602 0.887336,-0.307602 L 81.194185,16.128012 80.718827,22.772337 64.968632,39.137066 c -0.507049,0.430656 -0.348596,0.799781 -0.348596,0.799781 0.190143,0.522939 0.950716,0.369133 0.950716,0.369133 l 19.584754,0 C 71.084905,50.364747 21.711054,45.104655 21.711054,45.104655 19.936383,44.98162 20.95048,44.028034 20.95048,44.028034 l 2.059885,-1.968695 c 1.20424,-1.0151 2.97891,-0.953578 2.97891,-0.953578 5.894438,-0.584461 14.831169,-0.738258 14.831169,-0.738258 4.341604,0.06153 6.433179,-2.676192 6.433179,-2.676192 z"
     id="path25"
     inkscape:connector-curvature="0"
     style="fill:#1c68a7" /></svg>