<?xml version="1.0" encoding="utf-8"?>
<!-- Generator: Adobe Illustrator 19.2.1, SVG Export Plug-In . SVG Version: 6.00 Build 0)  -->
<svg version="1.1" id="layer" xmlns="http://www.w3.org/2000/svg" xmlns:xlink="http://www.w3.org/1999/xlink" x="0px" y="0px"
	 viewBox="0 0 652 652" style="enable-background:new 0 0 652 652;" xml:space="preserve">
<style type="text/css">
	.st0{fill:#0E3D56;}
	.st1{fill:url(#SVGID_1_);}
	.st2{fill:url(#SVGID_2_);}
	.st3{fill:url(#SVGID_3_);}
	.st4{fill:url(#SVGID_4_);}
	.st5{fill:url(#SVGID_5_);}
	.st6{opacity:0.2;fill:url(#SVGID_6_);enable-background:new    ;}
</style>
<g>
	<g id="Capa_2">
		<g id="Capa_1-2">
			<path class="st0" d="M145.1,438.7h-14.9l4.3-18.4h2.6l-3.8,16.2h12.3L145.1,438.7z"/>
			<path class="st0" d="M162.8,438.7h-2.7l4.3-18.4h2.6L162.8,438.7z M166,419h-1.7l2.3-3.3h3.3L166,419z"/>
			<path class="st0" d="M199.8,438.7h-2.5l-10.8-15.5l-3.6,15.5h-2.5l4.3-18.4h2.7l10.7,15.5l3.5-15.4h2.5L199.8,438.7z"/>
			<path class="st0" d="M238,422.5h-14.4l-1.3,5.5h14l-0.5,2.2h-14l-1.4,6.2h15.1l-0.5,2.3h-17.7l4.3-18.4h17L238,422.5z"/>
			<path class="st0" d="M267.8,438.7l-1.3-4.5h-11.3l-3.3,4.5h-3.1l13.8-18.4h2.8l5.2,18.4H267.8z M263.5,422.9l-6.7,9.1h9.1
				L263.5,422.9z"/>
			<path class="st0" d="M303.9,425.1c-0.5-0.9-1.3-1.6-2.2-2c-0.5-0.2-1-0.4-1.5-0.5c-1-0.3-2.1-0.5-3.2-0.5c-3.6,0-5.7,1.1-5.7,2.9
				c0,0.6,0.3,1.2,0.9,1.5c1.6,0.6,3.3,1.1,5.1,1.4c1.7,0.3,3.4,0.8,5.1,1.4c1.7,0.5,2.8,2.1,2.7,3.8c0,1.5-0.6,2.9-1.7,3.9
				c-1.6,1.5-4,2.2-7.5,2.2c-0.9,0-1.9-0.1-2.8-0.2c-1.7-0.2-3.3-0.8-4.7-1.8c-1.3-0.9-2.3-2.2-2.8-3.8l2.7-0.7
				c0.3,1,0.9,1.9,1.8,2.5c1.8,1.1,3.8,1.7,5.9,1.5c3.9,0,6.3-1.3,6.3-3.5c0-0.6-0.2-1.1-0.6-1.5c-0.7-0.5-1.5-0.8-4.8-1.5
				c-1.9-0.3-3.7-0.8-5.5-1.4c-1.7-0.5-2.8-2-2.7-3.8c0-1.4,0.6-2.7,1.7-3.7c1.3-1.3,3.6-1.8,6.7-1.8c4.7,0,8.1,1.6,9.4,4.4
				L303.9,425.1z"/>
			<path class="st0" d="M344.7,438.7l-1.3-4.5h-11.3l-3.3,4.5h-3.1l13.8-18.4h2.9l5.2,18.4H344.7z M340.5,422.9l-6.7,9.1h9.1
				L340.5,422.9z M376.5,419h-1.7l2.3-3.3h3.3L376.5,419z"/>
			<path class="st0" d="M383.6,422.5h-14.4l-1.3,5.5h14l-0.5,2.2h-14.1l-1.4,6.2H381l-0.5,2.3h-17.7l4.3-18.4h17L383.6,422.5z"/>
			<path class="st0" d="M417.5,428.3c-0.8,1-1.9,1.7-3.2,2c-0.9,0.2-1.8,0.4-2.7,0.4l5,8h-3.1l-4.7-7.9H401l-1.9,7.9h-2.6l4.3-18.4
				h10.5c1.1,0,1.9,0,2.5,0c1.1,0,2.1,0.3,3.1,0.8c1.2,0.8,1.9,2.2,1.9,3.6C418.7,425.9,418.3,427.2,417.5,428.3z M415.3,423.1
				c-1-0.5-2.2-0.7-3.3-0.6h-9l-1.5,6h8.6c2.6,0,3.7-0.2,4.6-0.7c0.9-0.6,1.5-1.7,1.4-2.8C416.1,424.3,415.8,423.5,415.3,423.1
				L415.3,423.1z"/>
			<path class="st0" d="M453.1,422.5h-14.4l-1.3,5.5h14l-0.5,2.2h-14.1l-1.4,6.2h15.1l-0.5,2.3h-17.8l4.3-18.4h17L453.1,422.5z"/>
			<path class="st0" d="M482.8,438.7l-1.3-4.5h-11.3l-3.3,4.5h-3l13.8-18.4h2.8l5.2,18.4H482.8z M478.5,422.9l-6.7,9.1h9.1
				L478.5,422.9z"/>
			<path class="st0" d="M518.9,425.1c-0.5-0.9-1.2-1.6-2.2-2.1c-0.5-0.2-1-0.4-1.5-0.5c-1-0.3-2.1-0.5-3.2-0.5
				c-3.6,0-5.7,1.1-5.7,2.9c0,0.6,0.3,1.2,0.9,1.5c1.6,0.6,3.3,1.1,5.1,1.4c1.7,0.3,3.4,0.8,5.1,1.4c1.7,0.5,2.8,2.1,2.7,3.8
				c0,1.5-0.6,2.9-1.7,3.9c-1.6,1.5-4,2.2-7.5,2.2c-0.9,0-1.9-0.1-2.8-0.2c-1.7-0.2-3.3-0.8-4.7-1.8c-1.3-0.9-2.3-2.2-2.8-3.8
				l2.7-0.7c0.3,1,0.9,1.9,1.8,2.5c1.8,1.1,3.8,1.7,5.9,1.5c3.9,0,6.3-1.3,6.3-3.5c0-0.6-0.2-1.1-0.6-1.5c-0.7-0.5-1.5-0.8-4.8-1.5
				c-1.9-0.3-3.7-0.8-5.5-1.4c-1.7-0.5-2.8-2-2.7-3.8c0-1.4,0.6-2.7,1.7-3.7c1.3-1.3,3.6-1.8,6.7-1.8c4.7,0,8.1,1.6,9.4,4.4
				L518.9,425.1z"/>
			
				<linearGradient id="SVGID_1_" gradientUnits="userSpaceOnUse" x1="-606.2043" y1="352.2777" x2="-396.0714" y2="352.2777" gradientTransform="matrix(0.9935 0.1142 0.1142 -0.9935 719.9257 649.3184)">
				<stop  offset="0" style="stop-color:#E23029"/>
				<stop  offset="0.53" style="stop-color:#E6342B"/>
				<stop  offset="1" style="stop-color:#BF1622"/>
			</linearGradient>
			<path class="st1" d="M266.6,255.3c19.5-2.9,39.2-5.7,57.9-6c38.9-2.5,42.3,4.3,42.3,4.3s-0.8-11.1-1.4-19.1
				c-0.2-2.3-1.8-4.2-4-4.8c-62.3-16.4-147.3,11.5-201.8-14.2c0.2,14.3-0.4,32.1,25.2,42c15.6,5,46.7,3.1,78.5-1.7L266.6,255.3z"/>
			
				<linearGradient id="SVGID_2_" gradientUnits="userSpaceOnUse" x1="-492.2365" y1="340.5284" x2="-492.2365" y2="340.5284" gradientTransform="matrix(0.9935 0.1142 0.1142 -0.9935 719.9257 649.3184)">
				<stop  offset="0" style="stop-color:#C83A25"/>
				<stop  offset="0.6" style="stop-color:#F9B233"/>
			</linearGradient>
			<path class="st2" d="M269.8,254.8L269.8,254.8L269.8,254.8z"/>
			
				<linearGradient id="SVGID_3_" gradientUnits="userSpaceOnUse" x1="-472.7046" y1="336.0877" x2="-269.9482" y2="336.0877" gradientTransform="matrix(0.9935 0.1142 0.1142 -0.9935 719.9257 649.3184)">
				<stop  offset="0" style="stop-color:#C83A25"/>
				<stop  offset="0.6" style="stop-color:#F9B233"/>
			</linearGradient>
			<path class="st3" d="M492.6,263.4c-32-15.6-98.1-14.7-125.8-9.9c7.3,23.3-72.4,7.9-80,27c-4.1,10.3,18.1,13,53.4,4.6
				C379.8,276.8,446.4,260.8,492.6,263.4L492.6,263.4z"/>
			
				<linearGradient id="SVGID_4_" gradientUnits="userSpaceOnUse" x1="-492.2365" y1="340.5284" x2="-492.2365" y2="340.5284" gradientTransform="matrix(0.9935 0.1142 0.1142 -0.9935 719.9257 649.3184)">
				<stop  offset="0" style="stop-color:#E23029"/>
				<stop  offset="0.53" style="stop-color:#E6342B"/>
				<stop  offset="1" style="stop-color:#BF1622"/>
			</linearGradient>
			<path class="st4" d="M269.8,254.8L269.8,254.8L269.8,254.8z"/>
			
				<linearGradient id="SVGID_5_" gradientUnits="userSpaceOnUse" x1="417.2422" y1="370.5339" x2="488.0031" y2="393.4334" gradientTransform="matrix(-1 0 0 -1 792.0699 654)">
				<stop  offset="0" style="stop-color:#0E3D56"/>
				<stop  offset="0.26" style="stop-color:#EDBFC2"/>
				<stop  offset="0.77" style="stop-color:#CC4650"/>
				<stop  offset="1" style="stop-color:#BE1622"/>
			</linearGradient>
			<path class="st5" d="M366.7,253.5c2.9-0.5,6.2-1,9.9-1.4l1.3,3.2c7.3,23.3-72.4,7.9-80,27c-1.4,3.5,0.2,6,4.3,7.7
				c-6.6-0.2-11.4-1.4-13.9-3.4c-1.9-1.4-2.6-4-1.5-6.1C294.3,261.5,374.1,276.9,366.7,253.5z"/>
			
				<linearGradient id="SVGID_6_" gradientUnits="userSpaceOnUse" x1="529.8929" y1="425.7692" x2="519.7083" y2="443.393" gradientTransform="matrix(-1 0 0 -1 792.0699 654)">
				<stop  offset="0" style="stop-color:#0E3D56"/>
				<stop  offset="0.99" style="stop-color:#0E3D56;stop-opacity:0"/>
			</linearGradient>
			<path class="st6" d="M365.4,238.2c-0.2-2.3-1.8-4.2-4-4.8C299.2,217,176.5,259.1,159.7,216v-0.5c54.5,25.6,139.5-2.3,201.7,14.2
				c2.2,0.6,3.8,2.5,4,4.8C365.9,242.5,365.4,238.2,365.4,238.2z"/>
			<path class="st0" d="M89.1,355.8c-3.1,2.2-6.7,3.6-10.5,4.3c-3.6,0.6-7.3,0.8-11,0.9H47.3c-0.6,0-1.1,0.4-1.3,1l-4.8,21.2
				c-0.1,0.6-0.7,1-1.3,1H27.4c-0.7,0-1.3-0.5-1.3-1.2c0-0.1,0-0.2,0-0.4l13.6-58.9c0.1-0.6,0.7-1,1.3-1h32.3c9.1,0,10.3,0.1,14,1.3
				c6,1.7,9.8,7.4,9.8,14.8C97.2,345.4,94.3,351.7,89.1,355.8z M79.9,335.8c-0.6-0.8-1.4-1.4-2.3-1.8c-1.7-0.6-2.3-0.7-7-0.7H53.7
				c-0.6,0-1.1,0.4-1.3,1l-3.3,14.3c-0.2,0.7,0.2,1.4,0.9,1.5c0.1,0,0.2,0,0.4,0h17.3c5.7,0,8.3-0.5,10.5-2.3
				c2.1-1.9,3.3-4.6,3.2-7.5C81.5,338.7,80.9,337.1,79.9,335.8z"/>
			<path class="st0" d="M143.2,384.1H96.3c-0.7,0-1.3-0.5-1.3-1.2c0-0.1,0-0.2,0-0.3l13.6-58.9c0.1-0.6,0.7-1,1.3-1h12.8
				c0.7,0,1.3,0.5,1.3,1.2c0,0.1,0,0.2,0,0.3l-10.9,47c-0.2,0.7,0.2,1.4,0.9,1.5c0.1,0,0.2,0,0.3,0h30.9c0.7,0,1.3,0.5,1.3,1.2
				c0,0.1,0,0.2,0,0.3l-2,8.8C144.4,383.7,143.8,384.2,143.2,384.1z"/>
			<path class="st0" d="M221.7,358.4c-2.4,10.5-4.8,15.7-9.1,19.9c-2.4,2.3-5.2,4.1-8.4,5.2c-6,2-12.4,2.9-18.7,2.8
				c-8.5,0-16.4-1.7-22-4.6c-5.8-3-9-8.7-9-16c0.1-3.8,0.6-7.5,1.6-11.1l7.2-30.9c0.1-0.6,0.7-1,1.3-1h12.7c0.7,0,1.3,0.5,1.3,1.2
				c0,0.1,0,0.2,0,0.4l-7.2,30.7c-0.6,2.6-1,5.2-1.1,7.9c0,7.3,5.7,11,17.3,11c5.8,0,10.3-1.3,13.2-3.9c1.1-0.9,2-2.1,2.7-3.4
				c1.3-2.4,1.7-3.7,3.4-10.9l7.4-32c0.1-0.6,0.7-1,1.3-1h12.7c0.7,0,1.3,0.5,1.3,1.2c0,0.1,0,0.2,0,0.4L221.7,358.4z"/>
			<path class="st0" d="M285.3,339.9c-0.6,0.1-1.1-0.2-1.4-0.7c-1.1-2.3-3-4.1-5.3-5.1c-4-1.6-8.2-2.4-12.5-2.4
				c-8.5,0-13.2,2.6-13.2,7.3c-0.1,1.7,0.8,3.3,2.4,4c0.6,0.3,1.3,0.5,2.1,0.8c2.8,0.9,8.1,2.3,12.5,3.3c4,0.9,6.4,1.5,7.2,1.7
				c3.2,0.8,6.3,2,9.2,3.6c4.9,2.9,7.2,6.8,7.2,12.1c0,4.9-1.9,9.7-5.1,13.3c-5,5.5-13.8,8.2-26.4,8.2c-3.4,0-6.8-0.3-10.2-0.8
				c-7.2-1.1-12.1-3.1-16.5-7.1c-3-2.6-5.4-5.9-6.9-9.7c-0.3-0.6,0-1.4,0.6-1.7c0.1,0,0.2-0.1,0.3-0.1l12.1-2.4
				c0.6-0.1,1.2,0.2,1.4,0.8c2.8,6.3,10,9.7,20.1,9.7c9.6,0,15.4-3.1,15.4-8.2c0-0.8-0.2-1.7-0.5-2.4c-1.1-1.7-2.7-2.4-8.5-3.8
				l-5.9-1.3l-7.7-1.8c-3.1-0.7-6-1.7-8.9-3c-6.4-3.2-9.3-7.1-9.3-13c0-5.3,2.2-10.4,6.2-13.9c5.1-4.4,12.4-6.4,23.2-6.4
				c8.4,0,14.5,1.1,20.4,3.7c5.2,2,9.4,6,11.7,11.2c0.3,0.6,0,1.4-0.6,1.7c-0.1,0-0.2,0.1-0.3,0.1L285.3,339.9z"/>
			<path class="st0" d="M369.3,357.9c-2.3,10-4.5,15.3-8.3,19.5c-5.1,5.7-14.2,8.6-27.2,8.6c-19.2,0-29.2-6.8-29.2-19.9
				c0.2-3.8,0.8-7.5,1.7-11.1l7.3-31.3c0.1-0.6,0.7-1,1.3-1h5.9c0.7,0,1.3,0.5,1.3,1.2c0,0.1,0,0.2,0,0.4l-7.3,31.5
				c-0.8,3-1.3,6.1-1.4,9.1c0,9,7.2,13.5,21.3,13.5c9,0,15.9-2.2,19.8-6.2c2.9-3,4.4-6.7,6.6-16.5l7.4-32c0.1-0.6,0.7-1,1.3-1h6
				c0.7,0,1.3,0.5,1.3,1.2c0,0.1,0,0.2,0,0.3L369.3,357.9z"/>
			<path class="st0" d="M425.9,384.1h-47c-0.7,0-1.3-0.5-1.3-1.2c0-0.1,0-0.2,0-0.3l13.6-58.9c0.1-0.6,0.7-1,1.3-1h6.1
				c0.7,0,1.3,0.5,1.3,1.2c0,0.1,0,0.2,0,0.3l-11.7,50.8c-0.2,0.7,0.2,1.4,0.9,1.5c0.1,0,0.2,0,0.3,0h37.6c0.7,0,1.3,0.5,1.3,1.2
				c0,0.1,0,0.2,0,0.4l-1.1,4.9C427.1,383.7,426.5,384.2,425.9,384.1z"/>
			<path class="st0" d="M488.2,330H465c-0.6,0-1.1,0.4-1.3,1l-12,52.2c-0.1,0.6-0.7,1-1.3,1h-6.1c-0.7,0-1.3-0.5-1.3-1.2
				c0-0.1,0-0.2,0-0.3l11.7-51c0.2-0.7-0.2-1.4-0.9-1.5c-0.1,0-0.2,0-0.3,0h-21.7c-0.7,0-1.3-0.5-1.3-1.2c0-0.1,0-0.2,0-0.3l1.1-4.7
				c0.1-0.6,0.7-1,1.3-1h56.3c0.7,0,1.3,0.5,1.3,1.2c0,0.1,0,0.2,0,0.4l-1.1,4.7C489.3,329.6,488.8,330,488.2,330z"/>
			<path class="st0" d="M555.4,349.5c-2.7,3.3-6.4,5.6-10.5,6.6c-2.3,0.6-4.7,1-7,1.1c-0.7,0-1.2,0.6-1.2,1.3c0,0.2,0.1,0.4,0.2,0.6
				l14.3,23c0.4,0.6,0.2,1.4-0.4,1.8c-0.2,0.1-0.5,0.2-0.7,0.2h-7.1c-0.5,0-0.9-0.2-1.1-0.6l-14.9-25c-0.2-0.4-0.6-0.6-1.1-0.6
				h-24.3c-0.6,0-1.1,0.4-1.3,1l-5.7,24.3c-0.1,0.6-0.7,1-1.3,1h-6.2c-0.7,0-1.3-0.5-1.3-1.2c0-0.1,0-0.2,0-0.3l13.6-58.9
				c0.1-0.6,0.7-1,1.3-1h33.8c3.7,0,6.4,0,8.3,0.1c3.6,0,7.1,0.9,10.3,2.7c4,2.4,6.2,6.7,6.2,12C559.3,341.8,558,346,555.4,349.5z
				 M547.8,332.2c-1.8-1.4-5.1-2-11-2h-28.9c-0.6,0-1.1,0.4-1.3,1l-4.3,17.5c-0.2,0.7,0.2,1.4,0.9,1.6c0.1,0,0.2,0,0.4,0h26.8
				c8.7,0,12.3-0.5,15.2-2.3c2.9-1.7,4.8-5.3,4.8-9.4C550.7,336.2,549.7,333.8,547.8,332.2L547.8,332.2z"/>
			<path class="st0" d="M616.7,383.2l-3.5-13.3c-0.1-0.6-0.7-1-1.3-1h-36c-0.4,0-0.8,0.2-1,0.5l-10.3,14.1c-0.2,0.3-0.6,0.5-1,0.5
				h-7.1c-0.7,0-1.3-0.5-1.3-1.2c0-0.3,0.1-0.6,0.3-0.8l44.1-58.9c0.2-0.3,0.6-0.5,1-0.5h7.7c0.6,0,1.1,0.4,1.3,0.9l16.6,59
				c0.2,0.7-0.2,1.4-0.8,1.6c-0.1,0-0.3,0.1-0.4,0.1h-6.9C617.3,384.2,616.8,383.8,616.7,383.2z M601.2,333.6l-19.3,26.3
				c-0.4,0.5-0.3,1.3,0.2,1.8c0.2,0.2,0.5,0.3,0.8,0.3h26.2c0.7,0,1.3-0.5,1.3-1.2c0-0.1,0-0.3,0-0.4l-6.9-26.3
				c-0.1-0.7-0.8-1.1-1.5-1C601.7,333.1,601.4,333.3,601.2,333.6z"/>
		</g>
	</g>
</g>
</svg>
