<?xml version="1.0" encoding="UTF-8" standalone="no"?>
<svg
   xmlns:dc="http://purl.org/dc/elements/1.1/"
   xmlns:cc="http://creativecommons.org/ns#"
   xmlns:rdf="http://www.w3.org/1999/02/22-rdf-syntax-ns#"
   xmlns:svg="http://www.w3.org/2000/svg"
   xmlns="http://www.w3.org/2000/svg"
   xmlns:sodipodi="http://sodipodi.sourceforge.net/DTD/sodipodi-0.dtd"
   xmlns:inkscape="http://www.inkscape.org/namespaces/inkscape"
   width="250"
   height="244"
   viewBox="0 0 2000 1952"
   version="1.0"
   id="svg2"
   sodipodi:version="0.32"
   inkscape:version="0.46"
   sodipodi:docname="2000px-Air_Niugini.svg"
   inkscape:output_extension="org.inkscape.output.svg.inkscape">
  <metadata
     id="metadata57">
    <rdf:RDF>
      <cc:Work
         rdf:about="">
        <dc:format>image/svg+xml</dc:format>
        <dc:type
           rdf:resource="http://purl.org/dc/dcmitype/StillImage" />
      </cc:Work>
    </rdf:RDF>
  </metadata>
  <defs
     id="defs55">
    <inkscape:perspective
       sodipodi:type="inkscape:persp3d"
       inkscape:vp_x="0 : 1220 : 1"
       inkscape:vp_y="0 : 1000 : 0"
       inkscape:vp_z="2500 : 1220 : 1"
       inkscape:persp3d-origin="1250 : 813.33333 : 1"
       id="perspective59" />
  </defs>
  <sodipodi:namedview
     inkscape:window-height="669"
     inkscape:window-width="640"
     inkscape:pageshadow="2"
     inkscape:pageopacity="0.0"
     guidetolerance="10.0"
     gridtolerance="10.0"
     objecttolerance="10.0"
     borderopacity="1.0"
     bordercolor="#666666"
     pagecolor="#ffffff"
     id="base"
     showgrid="false"
     inkscape:zoom="0.18934426"
     inkscape:cx="1250"
     inkscape:cy="1220"
     inkscape:window-x="23"
     inkscape:window-y="23"
     inkscape:current-layer="svg2" />
  <g
     id="#752650ff">
    <path
       d="M 1032.41,40.34 C 1070.11,20.88 1110.85,7.53 1152.57,0.01 C 1156.86,22.74 1158.95,45.87 1160.82,68.92 C 1162.84,97.57 1163.55,126.34 1161.97,155.03 C 1160.19,185.87 1156.1,216.83 1146.54,246.29 C 1146.04,246.82 1145.55,247.33 1145.08,247.85 C 1086.65,249.72 1028.3,259.83 973.13,279.36 C 911.74,301.16 853.87,335.73 810.25,384.62 C 810.18,383.14 810.12,381.66 810.25,380.18 C 813.78,348.23 820.13,316.55 829.74,285.86 C 841.37,248.62 857.74,212.81 878.86,179.99 C 916.58,121.01 970.06,72.23 1032.41,40.34 z"
       id="path5"
       style="opacity:1;fill:#752650" />
    <path
       d="M 726.81,428.32 C 813.37,431.41 900.36,447.04 979.98,482.01 C 1020.1,499.64 1058.12,522.19 1092.31,549.65 C 1122.57,573.89 1149.79,601.93 1173.11,632.92 C 1216.71,690.69 1246.3,758.46 1261.89,829 C 1280.69,914.15 1280.05,1003.32 1261.75,1088.5 C 1259.28,1088.79 1256.8,1089 1254.35,1089.23 C 1221.47,1160.43 1177.11,1226.98 1119.97,1281.04 C 1089.35,1309.95 1055.13,1335.14 1018.03,1355.11 C 983.72,1373.63 947.01,1387.72 909.08,1396.75 C 816.21,1419.19 716.98,1410.73 627.93,1376.87 C 558.85,1350.78 495.44,1309.85 443.11,1257.77 C 386.59,1201.74 343.15,1132.48 318.01,1056.94 C 294.51,987.11 286.79,912.3 293.53,839.03 C 301.08,754.51 327.15,672.37 364.49,596.43 C 366.44,592.46 368.49,588.54 370.34,584.52 C 375.11,587.14 379.72,590.05 384.63,592.43 C 346.82,670.27 320.56,754.42 313.45,840.91 C 307.41,912.84 315.17,986.17 338.5,1054.59 C 364.17,1130.79 409.04,1200.35 467.64,1255.37 C 526.5,1310.88 599.02,1351.9 677.12,1373.15 C 722.88,1385.65 770.55,1391.32 817.96,1389.42 C 868.55,1387.43 918.82,1376.74 965.74,1357.67 C 1036.86,1329.03 1099.47,1281.23 1148.85,1222.86 C 1183.56,1182.21 1211.98,1136.48 1235.48,1088.55 C 1220.03,1087 1204.71,1084.09 1189.81,1079.76 C 1177.33,1111.63 1161.35,1142.28 1140.59,1169.57 C 1119.33,1197.76 1093.33,1222.45 1063.72,1241.73 C 1034.59,1260.8 1001.95,1274.45 967.99,1282.08 C 922.32,1292.35 874.22,1291.52 828.91,1279.75 C 791.35,1270.03 755.69,1252.82 724.94,1229.12 C 698.16,1208.67 675.18,1183.31 657.2,1154.81 C 639.36,1126.6 626.46,1095.37 618.39,1063.01 C 608.74,1024.51 605.85,984.51 608,944.94 C 613.54,943.96 619.22,943.95 624.77,944.95 C 622.86,988.49 626.77,1032.59 639.35,1074.43 C 649.1,1107 664.23,1138.08 684.81,1165.19 C 705,1191.92 730.43,1214.65 759.26,1231.7 C 795.51,1253.32 836.91,1265.96 878.93,1269.29 C 926.08,1273.07 974.15,1265.28 1017.58,1246.52 C 1053.87,1230.99 1086.78,1207.61 1113.34,1178.4 C 1140.46,1148.68 1160.54,1112.88 1173.21,1074.77 C 1147.85,1065.91 1123.55,1054.07 1100.98,1039.5 C 1111.23,1026.02 1121.08,1012.17 1129.29,997.32 C 1152.66,955.91 1166.82,909.4 1170.94,862.05 C 1177.72,787.11 1158.49,711.24 1122.26,645.74 C 1073.22,649.99 1023.3,645.71 976.06,631.68 C 929.08,617.89 885.09,594.59 846.44,564.64 C 798.42,527.31 757.85,480.57 726.81,428.32 z"
       id="path7"
       style="opacity:1;fill:#752650" />
    <path
       d="M 336.09,1597.17 C 354.67,1597.53 373.25,1597.76 391.83,1597.19 C 390.73,1609.21 390.7,1621.3 390.14,1633.35 C 371.85,1632.9 353.56,1632.92 335.28,1633.36 C 335.71,1621.3 336.03,1609.24 336.09,1597.17 z"
       id="path9"
       style="opacity:1;fill:#752650" />
    <path
       d="M 996.52,1597.21 C 1015.13,1597.49 1033.75,1597.74 1052.36,1597.23 C 1051.18,1609.24 1051.24,1621.32 1050.63,1633.37 C 1032.35,1632.88 1014.06,1632.94 995.78,1633.36 C 996.17,1621.31 996.6,1609.26 996.52,1597.21 z"
       id="path11"
       style="opacity:1;fill:#752650" />
    <path
       d="M 1590.89,1597.2 C 1609.48,1597.49 1628.08,1597.78 1646.67,1597.19 C 1645.56,1609.22 1645.54,1621.31 1644.97,1633.38 C 1626.68,1632.87 1608.39,1632.95 1590.11,1633.36 C 1590.54,1621.31 1590.91,1609.25 1590.89,1597.2 z"
       id="path13"
       style="opacity:1;fill:#752650" />
    <path
       d="M 1944.95,1597.19 C 1963.3,1597.49 1981.65,1597.77 2000,1597.21 L 2000,1611.54 C 1999.45,1618.8 1999.39,1626.09 1999.04,1633.37 C 1980.77,1632.89 1962.49,1632.93 1944.21,1633.37 C 1944.6,1621.31 1945.01,1609.25 1944.95,1597.19 z"
       id="path15"
       style="opacity:1;fill:#752650" />
    <path
       d="M 135.43,1600.27 C 158.97,1600.27 182.53,1600.83 206.08,1600.12 C 214.01,1622.57 221.8,1645.07 229.67,1667.55 C 242.54,1703.74 256.09,1739.69 269.24,1775.78 C 279.74,1804.02 289.72,1832.46 300.81,1860.48 C 280.16,1860.01 259.51,1860.27 238.86,1860.41 C 230.06,1829.14 219,1798.56 207.82,1768.08 C 174.34,1768.12 140.85,1767.93 107.37,1768.18 C 92.57,1798.76 77.99,1829.46 64.08,1860.47 C 42.73,1860.11 21.39,1860.14 0.04,1860.47 C 20.85,1823.44 40.31,1785.68 59.92,1748.01 C 77.01,1715.09 94.26,1682.25 111.25,1649.28 C 119.52,1633.05 127.76,1616.79 135.43,1600.27 M 124.49,1728.32 C 148.82,1728.34 173.15,1728.33 197.48,1728.33 C 187.54,1698.97 177.51,1669.63 167.6,1640.27 C 153.29,1669.64 138.97,1699.02 124.49,1728.32 z"
       id="path17"
       style="opacity:1;fill:#752650" />
    <path
       d="M 693.84,1600.14 C 717.48,1600.62 741.13,1600.55 764.77,1600.12 C 803.49,1667.07 846.43,1731.45 885.58,1798.14 C 887.93,1744.44 889.87,1690.72 892.06,1637.02 C 892.72,1624.73 892.77,1612.43 892.9,1600.13 C 910.81,1600.56 928.72,1600.53 946.63,1600.15 C 944.99,1624.43 943.27,1648.71 941.74,1673 C 939.38,1724.99 936.16,1776.95 934.77,1828.99 C 934.42,1839.48 934.12,1849.98 933.74,1860.48 C 910.52,1859.92 887.31,1860.27 864.09,1860.44 C 855.51,1844.77 846.19,1829.53 836.42,1814.59 C 807.66,1770.46 779.41,1726.01 752.06,1681 C 748.81,1675.96 746.17,1670.51 742.53,1665.76 C 739.59,1730.64 736.76,1795.54 735.67,1860.48 C 717.7,1860.08 699.74,1860.16 681.77,1860.47 C 686.82,1811.47 688,1762.2 690.51,1713.03 C 692.34,1675.43 693.75,1637.79 693.84,1600.14 z"
       id="path19"
       style="opacity:1;fill:#752650" />
    <path
       d="M 504.06,1674.13 C 518.73,1662.6 538.94,1659.67 556.81,1664.05 C 556.8,1679.07 557.77,1694.07 558.48,1709.06 C 545.96,1705.5 532.27,1704.48 519.83,1708.88 C 506.33,1713.62 496.3,1725.35 491.31,1738.49 C 486.95,1750.48 486.01,1763.36 485.04,1775.98 C 483.42,1804.1 482.53,1832.31 483.66,1860.48 C 465.44,1860.01 447.22,1860.07 429.01,1860.48 C 430.74,1831.96 432.49,1803.45 434.24,1774.93 C 435.47,1738.84 437.07,1702.71 436.08,1666.59 C 453.38,1667.01 470.68,1667.03 487.98,1666.59 C 487.7,1675.49 487.27,1684.39 487.05,1693.31 C 492.21,1686.5 497.2,1679.37 504.06,1674.13 z"
       id="path21"
       style="opacity:1;fill:#752650" />
    <path
       d="M 1419.15,1665.56 C 1459.79,1657.95 1501.31,1664.29 1541.56,1671.29 C 1539.47,1702.51 1536.87,1733.7 1535.55,1764.97 C 1534.07,1790.62 1532.85,1816.28 1532.57,1841.97 C 1531.71,1862.72 1533.32,1883.95 1527.36,1904.12 C 1523.33,1917.99 1514.21,1930.3 1502.03,1938.08 C 1488.49,1946.84 1472.25,1949.87 1456.53,1952 L 1413.37,1952 C 1392.04,1950.51 1370.87,1947.13 1350.09,1942.09 C 1349.24,1928.34 1348.37,1914.58 1347.54,1900.83 C 1371.94,1908.58 1397.22,1914.82 1422.98,1914.74 C 1436.7,1914.45 1451.07,1911.7 1462.28,1903.32 C 1471.6,1896.29 1475.68,1884.62 1477.8,1873.56 C 1480.35,1858.41 1480.28,1842.98 1481.01,1827.67 C 1477.8,1831.89 1474.56,1836.1 1470.96,1839.99 C 1463.08,1848.67 1452.68,1854.83 1441.6,1858.5 C 1422.46,1864.89 1401.31,1865.07 1382.04,1859.15 C 1365.25,1854.07 1350.25,1842.79 1341.26,1827.67 C 1333.63,1814.74 1329.73,1799.83 1328.7,1784.93 C 1327.4,1762.16 1332.04,1738.93 1342.77,1718.74 C 1357.93,1690.22 1387.72,1671.11 1419.15,1665.56 M 1409.24,1714.16 C 1395.16,1724.15 1386.6,1740.35 1383.07,1756.98 C 1379.8,1773 1380.9,1790.52 1389.01,1805 C 1394.94,1815.55 1406.25,1822.07 1417.9,1824.31 C 1432.28,1827 1448.19,1824.22 1459.62,1814.7 C 1471.9,1804.43 1479.33,1789.18 1481.68,1773.49 C 1485.19,1750.82 1485.49,1727.81 1486.41,1704.93 C 1475.75,1702.76 1464.91,1701.27 1454.02,1701.45 C 1438.38,1701.61 1422.11,1704.79 1409.24,1714.16 z"
       id="path23"
       style="opacity:1;fill:#752650" />
    <path
       d="M 1791.94,1665.51 C 1811.61,1660.7 1832.48,1661.04 1852.06,1666.14 C 1864.19,1669.11 1875.71,1675.63 1883.27,1685.74 C 1892.05,1696.73 1893.66,1711.45 1893.79,1725.05 C 1892.32,1770.21 1888.73,1815.29 1888.22,1860.48 C 1869.91,1860.03 1851.59,1860.05 1833.29,1860.49 C 1835.81,1828.36 1837.53,1796.18 1838.98,1763.98 C 1839.29,1750.48 1840.89,1736 1834.46,1723.56 C 1828.51,1712.1 1815.4,1706.46 1803.08,1705.4 C 1787.19,1703.85 1770.45,1709.76 1760.01,1722.03 C 1749.1,1733.91 1745.16,1750.24 1743.51,1765.86 C 1739.89,1797.27 1739.39,1828.92 1738.38,1860.49 C 1719.82,1859.99 1701.24,1860.1 1682.68,1860.47 C 1688.92,1796.03 1692.47,1731.33 1693.44,1666.59 C 1711.53,1666.93 1729.64,1667.19 1747.74,1666.61 C 1747.05,1677.36 1746.29,1688.1 1745.62,1698.86 C 1750.85,1692.14 1755.68,1684.9 1762.52,1679.65 C 1771.02,1672.66 1781.24,1667.98 1791.94,1665.51 z"
       id="path25"
       style="opacity:1;fill:#752650" />
    <path
       d="M 334.27,1666.64 C 352.9,1666.97 371.53,1667.04 390.16,1666.6 C 388.11,1693.68 386.21,1720.76 385.05,1747.9 C 383.6,1785.41 383,1822.95 382.74,1860.49 C 363.53,1860.08 344.32,1860.15 325.12,1860.48 C 330.25,1808.81 331.89,1756.89 333.46,1705.01 C 333.76,1692.22 334.02,1679.43 334.27,1666.64 z"
       id="path27"
       style="opacity:1;fill:#752650" />
    <path
       d="M 993.97,1704.96 C 994.27,1692.17 994.51,1679.39 994.79,1666.6 C 1013.41,1667.01 1032.04,1667.02 1050.66,1666.6 C 1048.54,1694.69 1046.56,1722.8 1045.44,1750.96 C 1044.11,1787.45 1043.42,1823.96 1043.3,1860.47 C 1024.06,1860.1 1004.84,1860.16 985.6,1860.47 C 990.78,1808.79 992.39,1756.85 993.97,1704.96 z"
       id="path29"
       style="opacity:1;fill:#752650" />
    <path
       d="M 1097.84,1666.6 C 1116.1,1666.92 1134.36,1667.17 1152.61,1666.61 C 1150.85,1691.37 1149.06,1716.13 1147.3,1740.9 C 1146.31,1753.9 1145.56,1766.94 1145.29,1779.98 C 1145.31,1788.9 1146.24,1798.25 1150.8,1806.12 C 1155.89,1814.64 1165.6,1818.95 1174.96,1820.92 C 1193.11,1824.55 1214,1818.5 1224.98,1803 C 1234.94,1789.12 1237.1,1771.65 1238.39,1755.08 C 1240.35,1725.62 1241.33,1696.11 1242.02,1666.59 C 1260.06,1666.9 1278.11,1667.19 1296.14,1666.6 C 1291.19,1731.12 1287.51,1795.76 1286.56,1860.48 C 1269.45,1860.21 1252.35,1859.94 1235.25,1860.49 C 1235.28,1849.96 1235.41,1839.44 1235.56,1828.92 C 1230.49,1835.93 1225.81,1843.48 1218.84,1848.82 C 1206.62,1859.01 1190.53,1862.71 1175.08,1864.46 C 1156.73,1865.97 1137.47,1864.56 1120.7,1856.38 C 1110.88,1851.45 1102.18,1843.69 1097.38,1833.71 C 1092.22,1822.61 1091.56,1810.07 1091.99,1798.03 C 1094.27,1764.04 1095.88,1730.01 1097.23,1695.97 C 1097.79,1686.19 1097.74,1676.39 1097.84,1666.6 z"
       id="path31"
       style="opacity:1;fill:#752650" />
    <path
       d="M 1589.14,1666.6 C 1607.76,1667.01 1626.38,1667.02 1645.01,1666.6 C 1642.26,1702.69 1639.81,1738.82 1639,1775.02 C 1638.16,1803.5 1637.77,1831.99 1637.59,1860.49 C 1618.38,1860.07 1599.16,1860.17 1579.94,1860.47 C 1586.22,1796.04 1587.69,1731.28 1589.14,1666.6 z"
       id="path33"
       style="opacity:1;fill:#752650" />
    <path
       d="M 1943.2,1666.63 C 1961.83,1666.98 1980.46,1667.03 1999.09,1666.6 C 1997.03,1693.72 1995.13,1720.85 1993.97,1748.03 C 1992.51,1785.51 1991.96,1823.01 1991.64,1860.52 C 1972.45,1860.05 1953.25,1860.16 1934.05,1860.49 C 1940.26,1796.06 1941.82,1731.3 1943.2,1666.63 z"
       id="path35"
       style="opacity:1;fill:#752650" />
  </g>
  <g
     id="#efcc78ff">
    <path
       d="M 1145.08,247.85 C 1145.55,247.33 1146.04,246.82 1146.54,246.29 C 1146.57,246.61 1146.65,247.25 1146.68,247.57 C 1194.32,246.37 1242.14,249.79 1288.95,258.91 C 1333.34,267.47 1376.91,280.86 1417.94,299.94 C 1453.44,316.54 1487.14,337.48 1516.27,363.81 C 1536.11,381.69 1553.66,402.17 1567.77,424.88 C 1539.32,410.29 1511.18,395.07 1482.84,380.26 C 1453.47,357.3 1422.05,336.82 1388.44,320.58 C 1345.1,299.4 1298.53,284.85 1250.86,277.48 C 1146.33,261.3 1037.34,279.24 942.39,325.39 C 899.96,346.17 860,372.64 826.28,405.87 C 892.58,415.79 957.81,434.9 1017.63,465.41 C 1085.78,499.88 1146.33,549.47 1192.84,610.11 C 1237.04,667.43 1268.74,734.01 1287.34,803.87 C 1310.23,889.73 1313.9,980.53 1298.91,1068.07 C 1286.04,1142.63 1259.44,1215.32 1217.37,1278.45 C 1192.25,1316.07 1161.57,1350.18 1125.66,1377.79 C 1123.06,1379.54 1119.8,1379.14 1116.85,1379.58 C 1106.34,1380.62 1095.7,1381.45 1085.23,1379.66 C 1118.44,1356.63 1147.16,1327.5 1171.2,1295.11 C 1216.32,1234.11 1245.72,1162.41 1261.75,1088.5 C 1280.05,1003.32 1280.69,914.15 1261.89,829 C 1246.3,758.46 1216.71,690.69 1173.11,632.92 C 1149.79,601.93 1122.57,573.89 1092.31,549.65 C 1058.12,522.19 1020.1,499.64 979.98,482.01 C 900.36,447.04 813.37,431.41 726.81,428.32 C 717.35,421.67 708.02,414.79 699.53,406.92 C 727.39,398.66 756.93,399.14 785.56,402.22 C 788.63,402.49 791.72,403.2 794.83,402.82 C 800.08,396.87 804.81,390.44 810.25,384.62 C 853.87,335.73 911.74,301.16 973.13,279.36 C 1028.3,259.83 1086.65,249.72 1145.08,247.85 z"
       id="path38"
       style="opacity:1;fill:#efcc78" />
  </g>
  <g
     id="#dda137ff">
    <path
       d="M 505.92,260.68 C 520.63,251.02 538.69,248.26 555.98,248.29 C 575.58,248.53 595.27,251.82 613.59,258.91 C 611.07,277.85 609.39,296.89 608.08,315.95 C 592.98,315.48 578.76,309.43 565.64,302.38 C 546.4,291.9 529.16,278.28 511.63,265.25 C 509.7,263.76 507.55,262.52 505.92,260.68 z"
       id="path41"
       style="opacity:1;fill:#dda137" />
    <path
       d="M 637.85,263.15 C 656.3,257.22 675.64,254.29 694.98,253.47 C 741.73,251.57 788.99,262.8 829.74,285.86 C 820.13,316.55 813.78,348.23 810.25,380.18 C 810.12,381.66 810.18,383.14 810.25,384.62 C 804.81,390.44 800.08,396.87 794.83,402.82 C 791.72,403.2 788.63,402.49 785.56,402.22 C 791.24,392.88 795.09,381.98 793.92,370.91 C 792.66,356.82 783.98,344.4 772.99,335.95 C 761.63,327.12 747.86,321.75 733.77,319.19 C 727.02,317.91 720.13,317.76 713.35,316.77 C 711.99,311.51 708.11,307.31 703.58,304.51 C 693.66,298.35 680.95,297.4 670,301.23 C 655.94,292.17 642.54,279.73 637.85,263.15 z"
       id="path43"
       style="opacity:1;fill:#dda137" />
  </g>
  <g
     id="#3b6a54ff">
    <path
       d="M 613.59,258.91 C 621.8,259.42 629.89,261.13 637.85,263.15 C 642.54,279.73 655.94,292.17 670,301.23 C 676.41,312.21 682.3,324.02 683.96,336.78 C 692.47,335.51 701.45,333.83 708.36,328.37 C 711.89,325.66 713.96,321.23 713.35,316.77 C 720.13,317.76 727.02,317.91 733.77,319.19 C 747.86,321.75 761.63,327.12 772.99,335.95 C 783.98,344.4 792.66,356.82 793.92,370.91 C 795.09,381.98 791.24,392.88 785.56,402.22 C 756.93,399.14 727.39,398.66 699.53,406.92 C 685.92,402.37 673.02,395.43 662.48,385.6 C 648.47,372.89 638.41,356.69 628.16,340.98 C 622.33,332.01 616.17,323.05 608.08,315.95 C 609.39,296.89 611.07,277.85 613.59,258.91 z"
       id="path46"
       style="opacity:1;fill:#3b6a54" />
  </g>
  <g
     id="#ac151cff">
    <path
       d="M 942.39,325.39 C 1037.34,279.24 1146.33,261.3 1250.86,277.48 C 1298.53,284.85 1345.1,299.4 1388.44,320.58 C 1422.05,336.82 1453.47,357.3 1482.84,380.26 L 1484.12,381.84 C 1442.12,367.66 1398.62,357.48 1354.46,353.19 C 1326.71,350.73 1298.43,350.68 1271.11,356.68 C 1268.05,357.46 1264.89,357.93 1262,359.23 C 1338.46,385.13 1410.94,424.67 1470.77,479.22 C 1527.27,530.34 1571.8,594.65 1599.28,665.74 C 1634.82,756.83 1642.58,857.98 1624.29,953.84 C 1608.07,1039.54 1571.21,1121.46 1516.67,1189.63 C 1468.15,1250.56 1405.24,1300.04 1334.25,1332.18 C 1272.99,1360.17 1206.14,1375.15 1138.96,1378.33 C 1134.27,1378.37 1129.56,1379.1 1124.9,1378.43 L 1125.66,1377.79 C 1161.57,1350.18 1192.25,1316.07 1217.37,1278.45 C 1259.44,1215.32 1286.04,1142.63 1298.91,1068.07 C 1313.9,980.53 1310.23,889.73 1287.34,803.87 C 1268.74,734.01 1237.04,667.43 1192.84,610.11 C 1146.33,549.47 1085.78,499.88 1017.63,465.41 C 957.81,434.9 892.58,415.79 826.28,405.87 C 860,372.64 899.96,346.17 942.39,325.39 z"
       id="path49"
       style="opacity:1;fill:#ac151c" />
  </g>
  <g
     id="#ffffffff">
    <path
       d="M 670,301.23 C 680.95,297.4 693.66,298.35 703.58,304.51 C 708.11,307.31 711.99,311.51 713.35,316.77 C 713.96,321.23 711.89,325.66 708.36,328.37 C 701.45,333.83 692.47,335.51 683.96,336.78 C 682.3,324.02 676.41,312.21 670,301.23 z"
       id="path52"
       style="opacity:1;fill:#ffffff" />
  </g>
</svg>
