<?xml version="1.0" encoding="UTF-8" standalone="no"?>
<!-- Created with Inkscape (http://www.inkscape.org/) -->

<svg
   xmlns:dc="http://purl.org/dc/elements/1.1/"
   xmlns:cc="http://creativecommons.org/ns#"
   xmlns:rdf="http://www.w3.org/1999/02/22-rdf-syntax-ns#"
   xmlns:svg="http://www.w3.org/2000/svg"
   xmlns="http://www.w3.org/2000/svg"
   xmlns:sodipodi="http://sodipodi.sourceforge.net/DTD/sodipodi-0.dtd"
   xmlns:inkscape="http://www.inkscape.org/namespaces/inkscape"
   width="1280"
   height="204"
   id="svg2"
   version="1.1"
   inkscape:version="0.47 r22583"
   sodipodi:docname="New document 1">
  <title
     id="title3779">Dobrolet logo</title>
  <defs
     id="defs4">
    <inkscape:perspective
       sodipodi:type="inkscape:persp3d"
       inkscape:vp_x="0 : 526.18109 : 1"
       inkscape:vp_y="0 : 1000 : 0"
       inkscape:vp_z="744.09448 : 526.18109 : 1"
       inkscape:persp3d-origin="372.04724 : 350.78739 : 1"
       id="perspective10" />
    <inkscape:perspective
       id="perspective2845"
       inkscape:persp3d-origin="0.5 : 0.33333333 : 1"
       inkscape:vp_z="1 : 0.5 : 1"
       inkscape:vp_y="0 : 1000 : 0"
       inkscape:vp_x="0 : 0.5 : 1"
       sodipodi:type="inkscape:persp3d" />
  </defs>
  <sodipodi:namedview
     id="base"
     pagecolor="#ffffff"
     bordercolor="#666666"
     borderopacity="1.0"
     inkscape:pageopacity="0.0"
     inkscape:pageshadow="2"
     inkscape:zoom="0.9195076"
     inkscape:cx="565.05946"
     inkscape:cy="100.18194"
     inkscape:document-units="px"
     inkscape:current-layer="layer1"
     showgrid="false"
     inkscape:snap-page="true"
     inkscape:window-width="1280"
     inkscape:window-height="721"
     inkscape:window-x="0"
     inkscape:window-y="26"
     inkscape:window-maximized="1" />
  <metadata
     id="metadata7">
    <rdf:RDF>
      <cc:Work
         rdf:about="">
        <dc:format>image/svg+xml</dc:format>
        <dc:type
           rdf:resource="http://purl.org/dc/dcmitype/StillImage" />
        <dc:title>Dobrolet logo</dc:title>
        <cc:license
           rdf:resource="" />
      </cc:Work>
    </rdf:RDF>
  </metadata>
  <g
     inkscape:label="Layer 1"
     inkscape:groupmode="layer"
     id="layer1"
     transform="translate(0,-848.36218)">
    <path
       style="fill:#1d96d5;fill-opacity:1"
       d="m 1002.8616,1017.4195 c -14.72266,-5.4477 -24.90668,-16.3904 -28.57317,-30.70166 -5.35757,-20.91204 4.38201,-41.73465 23.84407,-50.97715 22.0079,-10.45149 47.7664,-1.17698 58.6616,21.12149 3.2895,6.73259 3.4202,7.43931 3.4202,18.5 0,10.86453 -0.1769,11.87346 -3.2015,18.25853 -4.4925,9.48419 -11.9071,16.99129 -21.2494,21.51479 -6.9051,3.3434 -8.4022,3.6812 -17.5491,3.9599 -8.0377,0.245 -11.0504,-0.084 -15.3527,-1.6759 z"
       id="path3747" />
    <path
       style="fill:#68acdf;fill-opacity:1"
       d="m 1113.2032,1017.0777 c -11.5088,-4.3858 -20.1753,-12.1319 -25.0119,-22.35579 -13.9264,-29.43788 7.2624,-63.35973 39.5766,-63.35973 39.3048,0 58.9063,48.99541 30.3908,75.96412 -3.0969,2.9289 -8.3917,6.5239 -12.2068,8.288 -5.8593,2.7093 -8.0411,3.1571 -16.7376,3.4348 -8.5046,0.2715 -10.8989,-0.023 -16.0111,-1.9714 z"
       id="path3745" />
    <path
       style="fill:#94c4ea;fill-opacity:1"
       d="m 1222.7143,1017.544 c -7.9918,-2.6723 -11.7055,-4.8262 -17.2287,-9.9925 -10.144,-9.4885 -14.3713,-20.5365 -13.5856,-35.50569 0.3852,-7.3386 0.9763,-9.62674 4.141,-16.03013 8.4617,-17.12108 26.2028,-26.59009 44.851,-23.93843 17.6875,2.51506 31.065,14.00376 36.6716,31.49403 2.2059,6.88115 2.9577,19.17413 1.2377,20.23712 -0.5021,0.31034 -1.2147,2.3503 -1.5835,4.53324 -0.7851,4.64695 -6.577,13.90256 -12.1103,19.35256 -2.1399,2.1077 -7.2267,5.4367 -11.3042,7.3979 -6.4869,3.1201 -8.5495,3.6111 -16.5013,3.9284 -6.9145,0.2759 -10.4029,-0.077 -14.5877,-1.4765 z"
       id="path3743" />
    <path
       id="path2851"
       style="fill:#1d96d5;fill-opacity:1"
       d="m 839.92281,894.69442 c -6.04375,-2.97869 -9.73831,-10.21484 -8.52603,-16.69903 1.40694,-7.5254 10.82917,-14.5286 17.61684,-13.09396 11.20683,2.36868 16.92572,13.95022 11.58277,23.45671 -3.98666,7.09332 -13.32828,9.95645 -20.67358,6.33628 z m -45.46555,-0.86092 c -8.41658,-5.71921 -9.67689,-16.81734 -2.72439,-23.9905 8.04598,-8.30134 21.44781,-5.68184 25.52291,4.98868 5.40822,14.16122 -10.45947,27.38642 -22.79852,19.00182 z M 920.37129,1020.35 c -2.5986,-0.4755 -5.18907,-2.0486 -8,-4.8582 l -4.15701,-4.155 -0.63121,-30.7373 c -0.34717,-16.90552 -0.68467,-33.77482 -0.75,-37.48732 l -0.11879,-6.75 -9.25,-0.004 c -7.46545,-0.003 -9.87877,-0.3871 -12.50914,-1.99086 -6.84335,-4.17244 -8.95921,-11.71684 -5.29847,-18.89249 3.94819,-7.73908 3.25121,-7.61292 42.05761,-7.61289 36.93605,2e-5 39.58685,0.3024 44.02004,5.02131 3.09391,3.29332 3.89616,11.80626 1.54168,16.35932 -2.88282,5.57475 -6.71928,7.11135 -17.76569,7.11561 l -9.70397,0.004 -0.29603,36.75 c -0.26291,32.63832 -0.49013,37.10482 -2.03094,39.92112 -3.31218,6.0542 -9.51336,8.7063 -17.10808,7.3167 z m -266.15701,0.3529 c -5.69423,-1.5237 -10.3784,-10.0174 -9.09637,-16.4943 0.89659,-4.5296 3.19473,-7.03828 9.92941,-10.8391 6.42748,-3.62745 10.74701,-8.33903 12.64805,-13.79603 0.86885,-2.49403 1.52623,-13.38691 2.00429,-33.21129 0.39127,-16.225 0.77962,-29.59684 0.86301,-29.7152 0.0834,-0.11837 1.52436,-1.77869 3.20217,-3.6896 4.70382,-5.35736 8.60324,-5.82699 45.12794,-5.4351 30.15248,0.32353 31.81144,0.43922 34.43821,2.40169 1.51784,1.13398 3.68752,3.3038 4.8215,4.82181 1.98781,2.661 2.07324,4.18368 2.38091,42.43821 0.17551,21.82301 0.0145,43.04841 -0.35775,47.16751 -0.64305,7.1153 -0.88968,7.7022 -4.93754,11.75 -4.32799,4.328 -5.87294,4.8219 -13.52383,4.3234 -4.88986,-0.3187 -7.88902,-2.5406 -9.98447,-7.3971 -1.56073,-3.6171 -1.88716,-8.6424 -2.47913,-38.16562 -0.59913,-29.88051 -0.88496,-34.20847 -2.35906,-35.7206 -2.21843,-2.27565 -14.18811,-3.40976 -19.83421,-1.87927 -5.58565,1.5141 -6.34313,4.03597 -6.34313,21.1181 0,17.4136 -2.00456,29.33419 -6.28253,37.36047 -4.20482,7.88902 -14.74391,18.51362 -21.73402,21.91032 -5.38148,2.615 -14.49334,4.1194 -18.48345,3.0517 z m -53.27526,-28.37574 c 17.75922,-4.98267 24.34882,-29.98671 12.53397,-47.55978 -12.90507,-19.19464 -44.51257,-14.00713 -50.81823,8.34043 -1.79194,6.35074 -0.7666,18.77502 2.00165,24.25437 7.04402,13.94262 20.35639,19.43338 36.28261,14.96498 z m -25.94899,27.59304 c -14.53107,-3.3196 -30.18991,-15.2847 -37.11016,-28.35636 -18.75467,-35.4256 -0.24059,-75.88735 38.57545,-84.30504 7.52165,-1.63115 22.31709,-1.62546 29.25896,0.0113 20.02717,4.72192 36.01995,19.19363 42.48094,38.4406 3.00827,8.96148 3.43298,22.72256 0.99067,32.09921 -5.10273,19.59068 -21.26336,35.61279 -41.47161,41.11609 -8.07469,2.1989 -25.17644,2.7185 -32.72425,0.9942 z M 211.21428,991.4035 c 6.25276,-2.69649 10.53363,-6.93303 13.63957,-13.49832 2.37528,-5.02084 2.85899,-7.34755 2.85964,-13.75549 0.002,-18.9874 -11.24782,-31.32713 -28.49921,-31.26045 -15.40356,0.0595 -26.29762,9.47705 -28.35359,24.51067 -1.93988,14.18469 3.62794,26.76009 14.81788,33.46747 5.78059,3.46495 18.14237,3.72448 25.53571,0.53612 z m -22.11873,29.0214 c -17.50554,-2.7779 -32.26522,-12.0797 -41.26709,-26.00736 -14.40465,-22.28679 -11.1208,-52.2273 7.80187,-71.13362 7.59583,-7.58926 13.20151,-11.11003 23.35132,-14.66629 6.19068,-2.16907 9.03341,-2.54387 19.73263,-2.60161 14.177,-0.0765 20.21345,1.28131 31.14858,7.00642 17.24606,9.02922 29.76366,30.38527 29.83406,50.89935 0.0242,7.0592 -3.66356,20.88921 -7.317,27.44039 -6.64251,11.91102 -21.27441,23.19462 -35.49677,27.37382 -6.5218,1.9164 -20.86132,2.788 -27.7876,1.6889 z M 96.70327,970.61218 c -0.0126,-27.16125 -0.39295,-30.82728 -3.37602,-32.53816 -1.31051,-0.75161 -6.374926,-1.21184 -13.335256,-1.21184 -9.89295,0 -11.45779,0.23691 -13.21033,2 -1.13784,1.14469 -3.53536,7.3457 -5.6062,14.5 -1.98999,6.875 -5.38284,18.56976 -7.53967,25.98835 -2.15683,7.41859 -3.92151,13.83109 -3.92151,14.25 0,0.41891 10.575,0.76165 23.5,0.76165 l 23.499996,0 -0.011,-23.75 z m -85.203116,49.85752 c -4.76688,-0.6992 -9.7858697,-4.1775 -9.7858697,-6.7818 0,-0.7292 -0.45,-1.3257 -1,-1.3257 -0.55,0 -1,-2.068 -1,-4.5956 0,-8.0641 5.9007197,-13.40442 14.8109197,-13.40442 l 3.87515,0 2.01709,-6.75 c 1.1094,-3.7125 4.30074,-14.175 7.09188,-23.25 2.79113,-9.075 7.35706,-23.925 10.14651,-33 4.3434,-14.13049 5.55005,-16.94726 8.40251,-19.61446 4.42153,-4.13439 7.73657,-4.46422 41.65594,-4.14464 30.717116,0.28941 31.348526,0.41723 36.698306,7.42917 l 2.80169,3.67217 0.27452,44.57888 0.27452,44.5789 -2.27452,4.442 c -1.5526,3.0322 -3.5441,5.0953 -6.27452,6.5 -3.86644,1.9893 -5.65283,2.063 -53.499996,2.2074 -27.225,0.082 -51.62136,-0.1617 -54.21413,-0.5419 z M 848.48947,950.06006 c -0.61451,-5.45195 -4.74106,-11.7276 -10.10516,-15.36791 -3.76869,-2.55761 -4.98809,-2.82997 -12.67003,-2.82997 -7.62229,0 -8.90747,0.28143 -12.44603,2.72546 -6.07792,4.19793 -12.84126,15.88264 -10.95746,18.93069 0.28684,0.46412 10.90349,0.84385 23.59256,0.84385 l 23.07103,0 -0.48491,-4.30212 z m -26.61395,71.24554 c -17.84339,-2.3692 -32.46943,-11.117 -41.63251,-24.9002 -6.43599,-9.68111 -8.64015,-16.51273 -9.26383,-28.71253 -0.62761,-12.27657 1.1852,-21.18149 6.58168,-32.33069 15.6531,-32.33947 61.98089,-40.18136 85.95774,-14.55003 16.14913,17.26348 20.30619,44.02507 8.00382,51.52563 -3.13923,1.91394 -4.98027,2.01711 -36.05814,2.02066 -36.16218,0.004 -34.1966,-0.39422 -31.3751,6.35859 5.3579,12.82326 22.59417,18.73647 37.6251,12.90791 3.025,-1.173 7.53896,-2.9105 10.03101,-3.86111 5.46645,-2.08522 8.7604,-1.45333 13.2267,2.53731 2.91444,2.60405 3.24229,3.45478 3.24229,8.41336 0,4.7066 -0.41978,5.9545 -2.85955,8.5011 -8.43179,8.8009 -27.76437,14.1766 -43.47921,12.09 z M 342.04759,992.33867 c 6.64149,-2.4849 12.1526,-7.67652 15.28112,-14.39524 1.90041,-4.08126 2.36781,-6.75405 2.37502,-13.58125 0.008,-7.31837 -0.39106,-9.33409 -2.86867,-14.5 -5.3888,-11.23585 -14.29561,-16.88538 -26.62077,-16.88538 -10.94898,0 -21.08254,5.72644 -25.51764,14.41993 -4.31924,8.46642 -4.25485,22.56395 0.14482,31.70419 2.53553,5.26753 9.67349,11.6665 15.19705,13.62372 6.14062,2.17587 15.60556,2.00988 22.00907,-0.38597 z m -25.3333,28.46343 c -22.96261,-4.9496 -43.42705,-26.37831 -47.21518,-49.43992 -0.73163,-4.45411 -1.24269,-17.44992 -1.25839,-32 -0.0214,-19.86087 0.31971,-26.20417 1.80164,-33.5 2.46618,-12.14144 7.30732,-21.25301 15.67389,-29.5 10.41094,-10.26214 20.7348,-14.87574 51.49804,-23.01384 6.6,-1.74596 12.78139,-3.58211 13.73643,-4.08032 3.35507,-1.75023 9.6579,-0.99764 13.85987,1.65495 6.83383,4.31401 8.71146,12.71274 4.22101,18.88075 -2.6768,3.67681 -8.42418,6.05005 -26.606,10.98631 -18.97472,5.15152 -23.66536,6.86848 -29.43785,10.77537 -6.24156,4.22436 -10.37614,12.57776 -9.37479,18.94057 0.0557,0.35409 3.58882,-0.51915 7.85133,-1.94053 6.68289,-2.22848 9.47114,-2.5841 20.25,-2.58273 10.94702,10e-4 13.41124,0.32687 19.8346,2.61975 10.41503,3.71773 17.50361,8.29034 24.299,15.67448 10.1293,11.0069 14.8664,23.61421 14.8664,39.56544 0,16.86305 -5.01887,29.50939 -16.15521,40.70722 -14.14333,14.2214 -37.20582,20.7012 -57.84479,16.2525 z m 158.56225,-29.92658 c 6.14492,-3.00642 12.39974,-9.97556 14.5836,-16.24907 0.7207,-2.07035 1.31727,-7.13927 1.3257,-11.26427 0.0309,-15.101 -9.1688,-26.7747 -23.65511,-30.0166 -10.55244,-2.36153 -22.93496,2.36698 -29.49976,11.26508 -9.24675,12.53326 -5.68618,34.50327 7.18252,44.31871 7.95521,6.06773 20.03987,6.85004 30.06305,1.94615 z m -64.11183,60.13458 c -4.04751,-1.8353 -8.23085,-6.9385 -8.95767,-10.9274 -0.32276,-1.7713 -0.45317,-30.5254 -0.28979,-63.89799 0.29122,-59.48784 0.33746,-60.73159 2.35883,-63.43821 3.76073,-5.03563 7.02544,-6.77452 12.82593,-6.83147 4.5243,-0.0444 6.10474,0.46541 9.91094,3.19715 4.68436,3.36201 6.62189,3.90884 8.25134,2.32881 0.5225,-0.50666 3.875,-1.90398 7.45,-3.10515 7.75033,-2.60406 25.174,-3.15108 34,-1.06744 16.98802,4.01052 32.57789,16.00019 39.27476,30.20494 4.54775,9.64624 5.86809,15.47131 5.86809,25.88884 0,10.35816 -1.3207,16.24194 -5.76124,25.66668 -6.15546,13.06454 -18.58845,23.81834 -33.57482,29.04024 -6.35627,2.2148 -9.06296,2.5575 -20.80679,2.6347 -12.51253,0.082 -13.98119,-0.1099 -20.07846,-2.6265 -3.61815,-1.4933 -6.88065,-2.7151 -7.25,-2.7151 -0.36935,0 -0.67154,4.6433 -0.67154,10.3185 0,13.9395 -1.77927,19.8453 -7.02467,23.3165 -4.6666,3.0882 -11.2663,3.9439 -15.52491,2.0129 z" />
  </g>
</svg>
