<?xml version="1.0" encoding="utf-8"?>
<!-- Generator: Adobe Illustrator 22.1.0, SVG Export Plug-In . SVG Version: 6.00 Build 0)  -->
<svg version="1.1" id="Layer_1" xmlns="http://www.w3.org/2000/svg" xmlns:xlink="http://www.w3.org/1999/xlink" x="0px" y="0px"
	 width="118.168px" height="23px" viewBox="0 0 118.168 23" style="enable-background:new 0 0 118.168 23;" xml:space="preserve">
<style type="text/css">
	.st0{fill:#F10000;}
	.st1{fill:#FDFDFD;}
	.st2{fill:#323232;}
</style>
<g>
	<g>
		<path class="st0" d="M0,0h4.212c3.456,0.089,6.805,1.624,9.212,4.088c1.67,1.67,3.318,3.369,4.991,5.037
			c-0.239,0.411-0.474,0.819-0.71,1.228c-0.756-0.489-1.604-0.802-2.455-1.084c0.095,0.285,0.288,0.857,0.385,1.141
			c-0.351,0.638-1.072,0.27-1.463-0.115C12.817,9.097,11.333,8.03,9.68,7.28c-2.001-0.96-4.223-1.383-6.175-2.45
			c-1.317-0.733-2.24-1.981-2.933-3.286C0.374,1.041,0.178,0.535,0,0.026V0z"/>
		<path class="st0" d="M1.645,4.338c1.958,2.82,5.299,4.12,7.673,6.503c1.294,1.32,2.073,3.076,2.3,4.899
			C9.87,16.284,8.7,17.819,7.009,18.506C5.23,13.78,3.438,9.059,1.645,4.338z"/>
	</g>
	<g>
		<path class="st1" d="M0.572,1.544C1.265,2.849,2.188,4.097,3.505,4.83C5.457,5.897,7.679,6.319,9.68,7.28
			c1.653,0.75,3.137,1.817,4.491,3.016c0.391,0.385,1.113,0.753,1.463,0.115c-0.098-0.285-0.29-0.857-0.385-1.141
			c0.851,0.282,1.699,0.595,2.455,1.084c0.397,0.27,0.782,0.561,1.161,0.857c-1.486,1.205-3.717,0.653-5.181,1.912
			c-0.65,0.592-0.313,1.736,0.48,2.01c3.441,1.426,6.84,3.323,9.232,6.245c-0.931-0.515-1.736-1.219-2.648-1.762
			c-2.57-1.624-5.483-2.639-8.461-3.183c-0.414,0.003-0.552-0.362-0.67-0.69c-0.227-1.823-1.006-3.579-2.3-4.899
			C6.943,8.458,3.602,7.159,1.645,4.338C1.256,3.418,0.923,2.478,0.572,1.544z"/>
	</g>
	<g>
		<g>
			<path class="st2" d="M31.208,8.2c2.467-0.845,5.241-0.848,7.705,0.017c1.946,0.681,3.841,2.277,4.016,4.453
				c0.144,1.46-0.627,2.815-1.705,3.74c0.926-0.009,1.854-0.003,2.783-0.003c-0.52,0.842-0.929,2.012-2.035,2.208
				c-2.007,0.167-4.028,0.043-6.04,0.098c-2.254,0.046-4.652-0.198-6.544-1.532c-1.584-1.058-2.587-3.053-2.168-4.959
				C27.635,10.249,29.377,8.838,31.208,8.2z M33.477,10.249c-1.262,0.279-2.645,0.926-3.125,2.217
				c-0.374,1.032,0.23,2.145,1.101,2.708c1.647,1.11,3.824,1.233,5.698,0.69c1.133-0.357,2.349-1.098,2.602-2.349
				c0.213-1.026-0.466-2.007-1.311-2.521C36.978,10.085,35.141,9.919,33.477,10.249z"/>
		</g>
		<g>
			<path class="st2" d="M49.177,9.766c1.084-2.03,4.637-1.972,5.612,0.135c1.69,2.93,3.392,5.854,5.08,8.783
				c-1.055,0.006-2.107,0.003-3.162,0.003c-0.405-0.673-0.814-1.343-1.222-2.013c-2.395,0-4.787,0-7.182,0
				c-0.397,0.67-0.796,1.343-1.19,2.013c-1.035,0-2.067,0.003-3.102-0.003C45.736,15.712,47.446,12.733,49.177,9.766z
				 M51.822,10.301c-0.794,1.452-1.59,2.904-2.381,4.359c1.645,0.003,3.292,0.003,4.939,0
				C53.498,13.231,52.894,11.592,51.822,10.301z"/>
		</g>
		<path class="st2" d="M60.95,8.34c1.21-0.017,2.585-0.144,3.559,0.73c2.464,2.044,4.905,4.117,7.363,6.167
			c0.006-2.3,0-4.6,0.003-6.9c0.957,0,1.915,0,2.875,0c0,3.45,0,6.9,0,10.35c-0.954,0-1.906,0-2.858,0
			c-2.691-2.257-5.373-4.519-8.064-6.774c-0.006,2.257,0,4.514-0.003,6.774c-0.96,0-1.918,0-2.875,0
			C60.95,15.238,60.95,11.788,60.95,8.34z"/>
		<path class="st2" d="M75.9,8.337c4.793,0,9.582,0,14.375,0c0,0.768,0,1.532,0,2.3c-1.918,0.003-3.832-0.003-5.75,0
			c-0.003,2.682,0.003,5.368,0,8.05c-0.96,0-1.918,0-2.875,0c-0.003-2.682,0.003-5.368,0-8.05c-1.918-0.003-3.832,0.003-5.75,0
			C75.897,9.87,75.9,9.105,75.9,8.337z"/>
		<g>
			<path class="st2" d="M92.92,9.764c1.084-2.024,4.64-1.978,5.612,0.135c1.693,2.93,3.39,5.856,5.08,8.786
				c-1.058,0.006-2.119,0.009-3.177-0.009c-0.408-0.673-0.828-1.337-1.251-2.001c-2.395,0-4.79,0-7.182,0
				c-0.382,0.673-0.765,1.343-1.147,2.013c-1.035,0-2.067,0-3.099,0C89.476,15.712,91.192,12.733,92.92,9.764z M93.202,14.66
				c1.647,0.003,3.295,0.006,4.942,0c-0.811-1.463-1.601-2.941-2.435-4.39C94.723,11.638,94.056,13.208,93.202,14.66z"/>
		</g>
		<path class="st2" d="M105.995,9.097c2.021-0.877,4.287-0.791,6.443-0.693c1.794,0.092,3.571,0.394,5.316,0.808
			c-0.19,0.724-0.38,1.452-0.581,2.174c-2.769-0.601-5.626-0.952-8.458-0.684c-0.463,0.083-1.035,0.086-1.325,0.523
			c0.092,0.454,0.63,0.446,0.975,0.566c2.424,0.497,4.896,0.736,7.297,1.343c1.144,0.282,2.441,1.046,2.498,2.36
			c0.118,1.256-0.975,2.205-2.047,2.613c-2.081,0.808-4.367,0.765-6.558,0.67c-1.754-0.092-3.493-0.371-5.184-0.84
			c0.167-0.771,0.425-1.515,0.661-2.265c2.849,0.84,5.874,1.104,8.823,0.733c0.483-0.098,1.265-0.173,1.136-0.86
			c-2.757-0.756-5.649-0.88-8.401-1.653c-1.015-0.293-2.127-0.949-2.268-2.096C104.084,10.617,104.963,9.539,105.995,9.097z"/>
	</g>
	<g>
		<path class="st0" d="M18.414,9.125C23,13.74,27.548,18.391,32.143,23H8.72c-0.598-1.486-1.144-2.996-1.711-4.494
			c1.69-0.687,2.861-2.222,4.609-2.766c0.118,0.328,0.256,0.693,0.67,0.69c2.978,0.543,5.891,1.558,8.461,3.183
			c0.911,0.543,1.716,1.248,2.648,1.762c-2.392-2.921-5.79-4.819-9.232-6.245c-0.793-0.273-1.13-1.417-0.48-2.01
			c1.463-1.259,3.694-0.707,5.181-1.912c-0.379-0.296-0.765-0.587-1.161-0.857C17.94,9.945,18.176,9.536,18.414,9.125z"/>
	</g>
</g>
</svg>
