<?xml version="1.0" encoding="UTF-8"?>
<svg width="300px" height="54px" viewBox="0 0 300 54" version="1.1" xmlns="http://www.w3.org/2000/svg" xmlns:xlink="http://www.w3.org/1999/xlink">
    <!-- Generator: Sketch 50.2 (55047) - http://www.bohemiancoding.com/sketch -->
    <title>Alliance Airlines</title>
    <desc>Created with Sketch.</desc>
    <defs></defs>
    <g id="Alliance-Airlines" stroke="none" stroke-width="1" fill="none" fill-rule="evenodd">
        <polygon id="Shape" fill="#FDB827" fill-rule="nonzero" points="122.001788 2.43834548 117.705313 2.452731 118.16565 1.00000008e-08 133.227288 1.00000008e-08 115.173462 12.9277864 116.741484 6.30565251"></polygon>
        <path d="M271.29,35.031 C269.957,41.3199 274.4524,43.5784 279.5065,43.5784 C284.0236,43.5784 288.917,42.2046 293.4775,40.9171 L289.241,52.2101 C284.6664,53.17872 280.0343,53.7446 275.587,53.7446 C263.407,53.7446 253.58,49.8677 256.958,33.9786 C257.87148,29.7013 263.3332,11.5566 283.708,11.5566 C296.274,11.5566 301.851,17.7663 299.467,28.9776 C299.03543,30.994 298.4528,33.0103 297.64,35.0315 L271.291,35.0315 L271.29,35.031 Z M285.643,27.6901 C286.638,23.0076 285.30973,20.5884 281.6342,20.5884 C277.4984,20.5884 274.4342,24.2183 273.3074,27.6901 L285.643,27.6901 Z M257.879,25.0288 C254.9803,23.8995 251.8563,23.0916 248.5644,23.0916 C242.6592,23.0916 238.1344,26.7239 236.7994,33.0128 C235.5119,39.0619 237.9119,42.2075 243.6589,42.2075 C246.8741,42.2075 250.3362,41.40191 253.5657,40.2703 L249.1781,52.2893 C245.2125,53.26032 241.2853,53.7446 237.4491,53.7446 C224.9671,53.7446 219.3501,46.6429 222.1761,33.3336 C223.08239,29.0587 227.7984,11.5586 247.1091,11.5586 C252.0913,11.5586 256.0449,12.04291 259.7251,13.0883 L257.879,25.0283 L257.879,25.0288 Z M193.636,17.766 L193.75348,17.92664 C198.36168,13.16504 203.53088,11.55624 209.43148,11.55624 C216.93828,11.55624 222.81448,14.53884 220.72148,24.37824 L213.61508,52.77024 L198.52508,52.77024 C200.47668,45.75254 202.66088,38.73524 204.14978,31.71924 C204.99133,27.76804 204.61011,24.13564 200.16738,24.13564 C196.26408,24.13564 193.05378,26.96004 191.17648,30.75054 C188.96588,35.03024 184.58308,52.76954 184.58308,52.76954 L169.34208,52.76954 L180.19308,12.52354 L195.13008,12.52354 L193.63638,17.76464 L193.636,17.766 Z M138.89438,14.05554 C145.25518,12.60264 151.60638,11.55484 157.50638,11.55484 C169.60938,11.55484 172.68338,15.82974 171.25938,22.52384 L163.52958,52.77184 L148.82058,52.77184 C150.70508,46.80664 152.21558,40.75084 153.79318,34.78484 C150.51568,36.88034 141.63218,37.20644 140.62818,41.96324 C140.09112,44.46394 142.08828,45.18804 144.15258,45.18804 C145.53358,45.18804 146.96258,44.94828 148.36518,44.46397 L143.97278,53.25827 C141.83418,53.57955 139.80578,53.74258 137.73908,53.74258 C123.72308,53.74258 125.83008,43.09258 126.02208,42.20258 C129.63288,25.18658 154.64908,30.42758 156.15508,23.33158 C156.72091,20.67028 154.15548,20.10208 152.09118,20.10208 C146.72778,20.10208 140.65918,21.96018 135.27218,23.89748 L138.89498,14.05538 L138.89438,14.05554 Z M105.36498,52.86538 L115.18068,13.28838 L129.87768,13.40826 L120.06198,52.86326 L105.36498,52.86538 Z M84.99998,52.86538 L98.13198,0.08038 L112.58898,0.08038 L99.68598,52.86138 L84.99998,52.86538 Z M64.90998,52.77738 L78.04198,-0.00262 L92.49898,-0.00262 L79.60498,52.77538 L64.90998,52.77738 Z M36.70798,0.00638 L-0.00502,52.75338 L17.07798,52.75338 L28.09198,37.01938 L45.62398,37.24415 L47.34728,52.75315 L64.43028,52.75338 L57.08768,6.52515 L62.70698,0.00675 L36.70798,0.00638 Z M43.37628,11.99438 L45.32428,26.30538 L33.63628,26.30538 L43.37628,11.99438 Z" id="Shape" fill="#003263" fill-rule="nonzero"></path>
    </g>
</svg>