<?xml version="1.0" encoding="utf-8"?>
<!-- Generator: Adobe Illustrator 22.1.0, SVG Export Plug-In . SVG Version: 6.00 Build 0)  -->
<svg version="1.1" id="Слой_1" xmlns="http://www.w3.org/2000/svg" xmlns:xlink="http://www.w3.org/1999/xlink" x="0px" y="0px"
	 width="1037.139px" height="154.45px" viewBox="0 0 1037.139 154.45" enable-background="new 0 0 1037.139 154.45"
	 xml:space="preserve">
<g>
	<path fill="#E00A10" d="M86.057,122.71c-2.625,0-5.254-0.088-7.874,0.028c-2.036,0.09-3.134-0.641-3.882-2.624
		c-2.614-6.929-5.431-13.782-8.156-20.67c-1.04-2.629-1.212-2.812-4.043-2.818c-9.751-0.018-19.502,0.046-29.252-0.036
		c-2.203-0.018-3.43,0.776-4.125,2.856c-1.873,5.612-3.833,11.196-5.817,16.771c-0.619,1.74-1.318,3.47-2.192,5.09
		c-0.341,0.632-1.259,1.337-1.927,1.349c-5.873,0.108-11.749,0.065-17.624,0.075c-1.069,0.002-1.266-0.72-1.126-1.503
		c0.149-0.838,0.479-1.652,0.788-2.454C4.82,108.417,8.828,98.067,12.821,87.71c3.503-9.085,6.965-18.187,10.493-27.262
		c3.444-8.858,6.961-17.688,10.423-26.54c1.794-4.587,3.653-9.153,5.245-13.81c0.679-1.987,1.656-2.842,3.747-2.767
		c3.121,0.111,6.256,0.152,9.372-0.01c2.067-0.108,3.241,0.598,3.969,2.537c1.689,4.503,3.503,8.959,5.284,13.426
		c3.335,8.364,6.674,16.726,10.029,25.081c3.63,9.04,7.287,18.069,10.923,27.107c3.502,8.705,6.992,17.415,10.49,26.122
		c1.15,2.863,2.338,5.711,3.455,8.587c0.814,2.097,0.497,2.502-1.944,2.53c-2.75,0.032-5.5,0.007-8.251,0.007
		C86.057,122.716,86.057,122.713,86.057,122.71z M47.687,48.373c-3.959,10.742-7.618,20.669-11.292,30.638
		c3.441,0.73,18.995,0.679,21.973-0.062C54.904,69.034,51.447,59.138,47.687,48.373z"/>
	<path fill="#E00A10" d="M261.646,94.135c0,5.999-0.08,11.999,0.037,17.995c0.051,2.593,0.53,5.177,0.776,7.769
		c0.259,2.733,0.205,2.856-2.39,2.803c-3.722-0.075-7.441-0.306-11.162-0.432c-2.373-0.08-3.827-1.369-5.024-3.311
		c-1.161-1.884-1.379-1.934-3.196-0.659c-3.183,2.233-6.639,3.791-10.377,4.782c-8.408,2.229-16.487,1.62-23.824-3.32
		c-6.279-4.228-9.37-10.448-9.803-17.915c-0.157-2.702-0.061-5.514,0.509-8.147c2.034-9.392,8.608-14.457,17.31-17.141
		c6.208-1.915,12.634-2.465,19.12-2.305c0.874,0.022,1.75,0.001,2.624-0.014c4.055-0.068,5.102-1.538,3.661-5.344
		c-1.475-3.895-4.251-6.189-8.437-6.969c-7.835-1.46-14.922,0.606-21.603,4.427c-1.532,0.876-2.034,0.755-2.77-0.737
		c-1.476-2.99-3.15-5.882-4.706-8.833c-1.427-2.707-1.373-2.799,1.096-4.301c3.387-2.061,7.014-3.524,10.799-4.705
		c5.975-1.864,12.086-2.762,18.301-2.599c5.187,0.136,10.357,0.887,15.175,2.948c6.566,2.809,10.683,7.942,12.387,14.754
		c0.921,3.681,1.236,7.571,1.357,11.382c0.21,6.617,0.058,13.246,0.058,19.87C261.592,94.135,261.619,94.135,261.646,94.135z
		 M240.647,96.856c0-1.75,0.119-3.509-0.028-5.247c-0.214-2.529-0.445-2.679-2.998-2.676c-2.625,0.003-5.266-0.111-7.869,0.146
		c-2.455,0.243-4.911,0.754-7.29,1.42c-2.215,0.62-4.005,2.066-4.83,4.269c-2.273,6.07,1.773,11.864,7.372,12.429
		c2.472,0.249,5.013,0.225,7.485-0.038c2.761-0.293,5.324-1.522,7.305-3.422c1.578-1.513,0.737-3.798,0.849-5.757
		C240.666,97.607,240.648,97.231,240.647,96.856z"/>
	<path fill="#E00A10" d="M433.165,67.261c-2.019-3.96-3.966-7.68-5.814-11.449c-0.875-1.784-0.708-2.168,1.139-3.25
		c5.481-3.211,11.426-5.345,17.623-6.436c8.104-1.426,16.255-1.524,24.243,1.081c9.666,3.152,14.803,9.931,15.808,19.883
		c0.424,4.197,0.55,8.436,0.587,12.659c0.083,9.375-0.08,18.753,0.072,28.127c0.068,4.209,0.453,8.44,1.099,12.598
		c0.249,1.605-0.103,2.242-1.416,2.214c-4.343-0.092-8.68-0.388-13.023-0.536c-1.853-0.063-2.823-1.087-3.77-2.56
		c-1.684-2.619-1.987-2.629-4.648-0.806c-5.945,4.074-12.603,5.763-19.673,5.375c-8.318-0.457-15.414-3.63-19.972-10.998
		c-3.548-5.735-4.423-12.055-3.178-18.629c2.078-10.968,9.92-16.051,19.804-18.627c5.283-1.377,10.777-1.783,16.273-1.651
		c1.499,0.036,3.002,0.023,4.499-0.052c2.275-0.114,2.553-0.498,2.706-2.631c0.342-4.789-3.834-8.53-8.296-9.577
		c-5.921-1.388-11.526-0.197-17.002,1.965C437.948,64.862,435.775,66.031,433.165,67.261z M465.769,96.504
		c0.06-0.001,0.12-0.002,0.18-0.003c0-1.863,0.068-3.729-0.024-5.587c-0.063-1.268-0.735-2.023-2.168-1.987
		c-4.707,0.12-9.432-0.132-14.088,0.866c-4.081,0.875-6.741,3.569-7.256,7.421c-0.528,3.95,1.415,7.8,5.351,9.207
		c4.69,1.677,9.493,1.402,14.15-0.61c2.827-1.221,4.388-3.123,4.017-6.334C465.818,98.494,465.819,97.496,465.769,96.504z"/>
	<path fill="#E00A10" d="M294.346,53.62c4.444-2.142,8.699-4.415,13.137-6.242c2.347-0.966,4.994-1.283,7.54-1.664
		c3.039-0.455,6.04-0.523,9.189-0.135c8.633,1.062,15.95,8.3,17.882,15.344c1.417,5.169,2.051,10.405,2.045,15.748
		c-0.017,13.873-0.007,27.746-0.008,41.619c0,0.875,0.013,1.75-0.001,2.625c-0.019,1.23-0.689,1.803-1.886,1.804
		c-5.749,0.003-11.499-0.012-17.248,0.015c-1.109,0.005-1.604-0.45-1.583-1.542c0.017-0.874-0.001-1.749-0.001-2.624
		c0-12.248,0.046-24.497-0.031-36.745c-0.021-3.346-0.064-6.758-0.714-10.017c-1.053-5.282-3.489-8.434-9.5-8.476
		c-6.453-0.045-11.636,2.995-16.652,6.484c-0.573,0.399-0.883,1.464-0.947,2.25c-0.142,1.738-0.052,3.495-0.052,5.245
		c-0.003,13.998,0.004,27.996-0.012,41.994c-0.004,3.337-0.05,3.383-3.297,3.403c-4.749,0.03-9.499,0.025-14.248,0.002
		c-3-0.015-3.113-0.115-3.115-3.2c-0.013-21.997-0.007-43.994-0.008-65.991c0-1.375-0.025-2.75,0.005-4.124
		c0.047-2.152,0.062-2.185,2.355-2.206c2.624-0.024,5.249,0.004,7.873,0.036c3.346,0.041,5.914,1.5,7.749,4.292
		C293.29,52.231,293.827,52.907,294.346,53.62z"/>
	<path fill="#E0090F" d="M916.343,0c9.663,39.592,26.897,74.384,52.726,105.525c-1.897,0-3.337,0.146-4.739-0.023
		c-11.859-1.426-23.402-3.911-34.097-9.594c-15.418-8.193-25.235-20.783-28.607-37.789c-2.568-12.948-1.751-25.988,2.864-38.541
		c2.276-6.193,5.478-11.916,9.726-17.011C914.769,1.905,915.318,1.238,916.343,0z"/>
	<path fill="#E00F14" d="M781.372,61.122c0-1.993-0.05-3.457,0.01-4.916c0.178-4.33,3.984-7.098,8.036-5.77
		c0.552,0.181,1.023,0.993,1.265,1.617c0.211,0.544,0.045,1.233,0.045,1.858c-0.001,20.008,0.099,40.016-0.065,60.023
		c-0.05,6.165-0.708,12.35-2.83,18.237c-3.552,9.854-10.887,15.299-20.81,17.657c-4.234,1.006-8.512,1.777-12.886,1.375
		c-7.687-0.707-15.105-2.359-21.698-6.654c-2.573-1.677-2.577-1.799-0.87-4.577c0.831-1.353,1.637-2.721,2.452-4.081
		c3.105,1.57,5.871,3.099,8.744,4.392c4.337,1.952,9.107,2.848,13.688,2.739c4.928-0.118,10.036-0.55,14.585-3.399
		c4.584-2.871,7.547-6.673,8.822-11.873c1.4-5.708,1.832-11.488,1.356-17.901c-0.925,0.822-1.701,1.315-2.22,2.003
		c-4.763,6.317-11.2,9.251-18.943,10.346c-3.577,0.506-6.873,0.09-10.223-0.574c-10.823-2.147-17.008-9.486-20.955-19.176
		c-2.226-5.465-2.963-11.286-2.861-17.079c0.141-7.991,1.822-15.701,6.571-22.422c5.229-7.401,12.007-12.184,21.224-13.526
		c8.348-1.216,15.649,0.746,22.119,5.952c1.42,1.142,2.4,2.824,3.622,4.222C779.938,60.034,780.453,60.36,781.372,61.122z
		 M781.465,84.945c0.474-4.378-0.564-9.234-2.469-13.841c-3.751-9.074-11.408-15.323-21.613-14.287
		c-9.532,0.968-15.683,6.823-19.084,15.501c-3.532,9.013-3.299,18.186,0.002,27.226c3.185,8.723,11.12,16.71,23.563,14.639
		c6.212-1.034,10.713-4.374,14.211-9.263C780.183,99.18,781.709,92.627,781.465,84.945z"/>
	<path fill="#E00A10" d="M159.499,47.185c-1.113,2.808-1.947,4.996-2.843,7.158c-5.617,13.548-11.24,27.093-16.877,40.632
		c-3.6,8.647-7.257,17.271-10.805,25.94c-0.432,1.056-0.887,1.815-2.038,1.778c-2.85-0.092-5.705-0.184-8.544-0.434
		c-4.046-0.356-6.502-3.161-7.906-6.45c-4.747-11.123-9.116-22.407-13.714-33.595c-3.378-8.218-6.911-16.372-10.327-24.575
		c-1.365-3.278-2.603-6.61-4.034-10.265c1.364-0.077,2.437-0.185,3.511-0.189c4.999-0.019,9.999,0.068,14.995-0.054
		c1.678-0.041,2.509,0.592,3.036,2.064c3.282,9.168,6.592,18.325,9.894,27.486c1.838,5.1,3.675,10.2,5.522,15.296
		c0.126,0.348,0.328,0.67,0.508,0.996c0.612,1.107,1.257,1.19,1.753,0.072c1.1-2.477,2.102-5,3.049-7.54
		c4.523-12.139,9.032-24.283,13.488-36.446c0.446-1.219,0.998-1.892,2.355-1.886C146.623,47.201,152.726,47.185,159.499,47.185z"/>
	<path fill="#E00B10" d="M413.33,67.318c-2.474-1.18-4.656-2.248-6.86-3.268c-5.56-2.572-11.418-3.243-17.336-1.939
		c-3.771,0.831-7.227,2.725-9.742,5.806c-5.065,6.206-6.697,13.228-5.349,21.19c0.728,4.299,2.157,7.999,4.911,11.37
		c3.631,4.445,8.423,6.272,13.877,6.696c6.008,0.467,11.461-1.481,16.688-4.235c2.192-1.155,2.32-1.165,3.228,0.993
		c1.481,3.521,2.838,7.096,4.175,10.675c0.434,1.162,0.145,2.211-1.064,2.851c-5.378,2.843-11.007,5.055-17.028,5.968
		c-3.549,0.538-7.19,0.861-10.769,0.728c-6.888-0.256-13.425-1.994-19.234-5.912c-7.664-5.169-12.217-12.516-14.469-21.309
		c-1.167-4.558-1.856-9.262-1.49-13.996c0.819-10.595,4.366-20.047,12.303-27.432c6.159-5.732,13.51-8.757,21.887-9.935
		c6.701-0.942,13.031,0.18,19.372,1.809c2.114,0.543,4.105,1.614,6.096,2.561c1.055,0.502,1.646,1.359,1.561,2.705
		C413.782,57.462,413.581,62.288,413.33,67.318z"/>
	<path fill="#E00F14" d="M590.444,45.56c-1.756-2.247-3.266-4.517-5.109-6.473c-5.089-5.402-11.354-8.401-18.756-9.551
		c-6.476-1.006-12.502-0.062-18.487,2.238c-6.621,2.544-11.579,7.096-15.377,12.912c-4.121,6.31-5.951,13.39-7.005,20.838
		c-1.266,8.947-0.155,17.619,2.605,25.979c3.309,10.022,9.474,18.13,19.767,21.822c12.798,4.59,24.827,2.962,35.496-5.983
		c2.572-2.156,4.852-4.548,6.664-7.381c0.788-1.231,1.732-1.29,2.768-0.271c0.446,0.438,0.87,0.912,1.372,1.275
		c4.774,3.455,4.247,2.959,1.114,7.02c-5.647,7.319-12.981,12.337-22.073,14.971c-6.929,2.007-13.953,2.017-20.734,1.053
		c-12.766-1.815-22.761-8.643-29.473-19.83c-3.383-5.638-5.675-11.76-6.722-18.252c-0.708-4.389-1.476-8.872-1.289-13.274
		c0.223-5.27,0.449-10.595,1.874-15.797c1.983-7.243,4.998-13.865,9.645-19.817c6.113-7.83,13.969-12.835,23.508-15.285
		c4.338-1.114,8.758-1.727,13.259-1.448c10.863,0.674,20.479,4.271,28.242,12.14c0.862,0.874,1.55,1.92,2.313,2.891
		c3.886,4.946,3.884,4.945-1.451,8.672C591.899,44.494,591.218,45.001,590.444,45.56z"/>
	<path fill="#E11015" d="M654.905,114.786c-2.255,1.79-3.922,3.235-5.712,4.51c-4.766,3.394-10.024,5.243-15.965,5.086
		c-4.463-0.118-8.867,0.126-13.037-2.216c-5.136-2.884-8.538-6.859-10.23-12.549c-1.552-5.22-1.285-10.223,0.721-15.183
		c2.169-5.363,6.361-8.823,11.458-11.043c5.211-2.27,10.709-3.647,16.464-3.954c4.814-0.257,9.612-0.837,14.416-1.278
		c1.478-0.135,2.222-0.546,1.762-2.392c-0.412-1.652-0.189-3.472-0.181-5.218c0.03-6.299-5.101-11.736-11.609-13.091
		c-8.489-1.768-16.431-0.173-24.015,3.763c-0.769,0.399-1.531,0.813-2.289,1.234c-0.95,0.528-1.502,0.318-2.046-0.701
		c-3.519-6.586-3.206-5.925,2.668-8.53c4.76-2.111,9.788-3.12,14.969-3.9c5.856-0.882,11.338,0.032,16.757,1.714
		c7.581,2.353,12.313,7.637,14.11,15.355c0.584,2.509,0.803,5.152,0.817,7.736c0.078,14.126,0.022,28.253,0.071,42.379
		c0.005,1.58,0.312,3.172,0.608,4.735c0.242,1.274-0.28,2.047-1.435,2.119c-4.81,0.299-8-1.066-7.997-6.27
		C655.213,116.508,655.062,115.921,654.905,114.786z M654.993,94.984c0.002,0,0.005,0,0.007,0c0-2.245,0.005-4.49-0.001-6.735
		c-0.007-2.49-0.385-2.819-2.751-2.6c-4.072,0.377-8.141,0.825-12.222,1.043c-3.749,0.2-7.34,1.031-10.815,2.328
		c-7.68,2.867-10.61,7.455-10.281,15.659c0.232,5.79,4.528,11.412,11.307,12.312c8.154,1.082,15.172-1.542,20.827-7.508
		c2.613-2.757,4.512-5.9,3.961-10.012C654.827,98,654.993,96.481,654.993,94.984z"/>
	<path fill="#E11015" d="M872.534,86.591c0.567,7.458-0.804,14.548-4.396,21.128c-4.144,7.59-10.003,13.121-18.607,15.389
		c-8.02,2.115-15.956,2.11-23.624-1.168c-5.802-2.481-10.522-6.404-13.82-11.93c-4.02-6.735-5.926-13.992-6.037-21.822
		c-0.098-6.898,0.937-13.485,3.667-19.888c2.052-4.814,5.041-8.822,8.945-12.132c5.779-4.899,12.752-7.173,20.158-7.212
		c16.199-0.084,28.535,9.523,32.395,25.16c0.383,1.55,1.135,3.051,1.262,4.612C872.688,81.334,872.534,83.969,872.534,86.591z
		 M863.183,86.977c0.165-4.994-0.545-9.984-2.303-14.801c-2.031-5.564-5.536-10.142-10.758-12.786
		c-4.489-2.273-9.381-3.122-14.686-2.115c-6.137,1.165-10.665,4.104-14.242,9.089c-4.251,5.925-5.113,12.744-5.508,19.661
		c-0.168,2.936,0.217,5.947,0.699,8.867c0.894,5.419,2.675,10.58,6.463,14.69c5.616,6.094,12.619,8.246,20.81,6.826
		c7.74-1.343,13.116-5.826,16.276-12.715C862.306,98.519,863.421,92.889,863.183,86.977z"/>
	<path fill="#E0090F" d="M165.87,84.583c0-10.866,0-21.733,0-32.599c0-0.375-0.004-0.749,0.001-1.124
		c0.05-3.831-0.599-3.712,3.526-3.689c4.371,0.024,8.743,0.008,13.115,0.008c0.625,0,1.253,0.041,1.873-0.011
		c1.646-0.14,2.271,0.656,2.164,2.22c-0.042,0.622-0.009,1.249-0.009,1.873c0,22.482,0,44.965,0.001,67.447
		c0,0.5,0.021,1-0.001,1.499c-0.095,2.118-0.339,2.474-2.313,2.494c-5.37,0.057-10.741,0.008-16.112,0.042
		c-1.535,0.01-2.346-0.537-2.261-2.188c0.071-1.37,0.018-2.747,0.018-4.121C165.87,105.817,165.87,95.2,165.87,84.583z"/>
	<path fill="#E10C11" d="M978.591,120.874c0.997-0.004,1.993-0.008,2.99-0.012c0.305,0.431,0.538,1.13,0.931,1.238
		c0.797,0.217,1.682,0.114,2.531,0.143c1.343,1.245,2.685,2.489,4.028,3.734c-0.072,1.278,0.62,1.584,1.729,1.361
		c4.297,3.128,8.507,6.386,12.91,9.359c9.651,6.518,19.836,12.023,30.97,15.629c0.697,0.226,1.334,0.636,2.458,1.184
		c-1.098,0.316-1.824,0.673-2.568,0.716c-9.358,0.532-18.712,0.163-27.898-1.582c-10.023-1.904-19.415-5.754-28.2-10.98
		c-4.995-2.971-9.864-6.159-14.909-9.041c-8.366-4.779-17.369-7.685-26.989-8.587c-0.004-1.058-0.007-2.116-0.011-3.174
		c0.495-0.001,0.991-0.002,1.486-0.003c0.031,1.933,1.508,1.281,2.469,1.284c11.862,0.035,23.724,0.024,35.586,0.02
		c0.619,0,1.291,0.095,1.837-0.116C978.262,121.924,978.382,121.283,978.591,120.874z"/>
	<path fill="#E1161A" d="M693.448,63.722c0.509-0.325,0.976-0.449,1.094-0.723c1.576-3.682,4.509-6.264,7.399-8.781
		c4.133-3.6,9.019-5.542,14.6-5.425c0.25,0.005,0.501-0.008,0.749,0.017c3.559,0.347,4.254,1.227,3.662,4.67
		c-0.208,1.211-0.493,2.41-0.671,3.626c-0.201,1.375-0.928,2.09-2.294,1.697c-6.144-1.769-11.28,0.461-15.653,4.412
		c-5.942,5.369-9.217,12.071-9.122,20.328c0.14,12.114,0.043,24.23,0.034,36.346c-0.003,3.49-0.024,3.491-3.564,3.517
		c-5.848,0.042-5.848,0.042-5.848-5.859c0-20.983-0.001-41.967,0-62.95c0-4.383,1.605-5.446,5.776-3.883
		c2.388,0.895,3.481,2.701,3.611,5.119c0.1,1.868-0.001,3.746,0.024,5.619C693.254,62.153,693.367,62.853,693.448,63.722z"/>
	<path fill="#E10D13" d="M176.094,38.689c-5.833,0.21-12.126-5.234-11.74-11.807c0.36-6.136,4.918-11.187,11.909-11.201
		c6.428-0.013,11.996,5.306,11.782,11.388C187.781,34.578,181.856,38.79,176.094,38.689z"/>
	<path fill="#E31319" d="M985.044,122.244c-0.849-0.029-1.734,0.074-2.531-0.143c-0.394-0.107-0.626-0.806-0.931-1.238
		c0.232-0.468,0.783-1.127,0.637-1.369c-0.437-0.729-1.137-1.303-1.748-1.924c-2.971-3.022-5.957-6.03-8.914-9.065
		c-0.661-0.679-1.231-1.446-2.371-2.799c3.572,0.351,6.366,0.52,9.127,0.92c5.597,0.811,11.234,1.559,16.509,3.722
		c2.597,1.065,5.034,2.523,7.526,3.836c2.795,1.473,4.135,4.081,5.493,6.99c-1.443,0-2.644,0.031-3.843-0.005
		c-5.704-0.174-11.407-0.347-17.109-0.568C985.656,120.553,984.987,120.941,985.044,122.244z"/>
	<path fill="#E31319" d="M978.591,120.874c-0.209,0.408-0.329,1.05-0.648,1.173c-0.547,0.211-1.218,0.116-1.837,0.116
		c-11.862,0.004-23.724,0.015-35.586-0.02c-0.961-0.003-2.439,0.648-2.469-1.284c8.432-0.052,16.865-0.136,25.298-0.145
		C968.429,120.708,973.51,120.817,978.591,120.874z"/>
	<path fill="#E31319" d="M936.564,120.862c0.004,1.058,0.007,2.116,0.011,3.174c-3.695,0.215-7.229-0.121-10.809-3.174
		C929.875,120.862,933.219,120.862,936.564,120.862z"/>
	<path fill="#E31319" d="M990.801,127.338c-1.109,0.224-1.802-0.082-1.729-1.361C989.648,126.431,990.225,126.884,990.801,127.338z"
		/>
</g>
</svg>
