<?xml version="1.0" encoding="utf-8"?>
<!-- Generator: Adobe Illustrator 22.1.0, SVG Export Plug-In . SVG Version: 6.00 Build 0)  -->
<svg version="1.1" id="Слой_1" xmlns="http://www.w3.org/2000/svg" xmlns:xlink="http://www.w3.org/1999/xlink" x="0px" y="0px"
	 width="283.465px" height="83.424px" viewBox="0 0 283.465 83.424" enable-background="new 0 0 283.465 83.424"
	 xml:space="preserve">
<g>
	<path fill-rule="evenodd" clip-rule="evenodd" fill="#F5D85A" d="M67.366,41.951c-4.792-0.053-9.16-2-11.607-4.753
		c-3.916-4.407-4.624-11.452-4.205-19.423C59.602,6.651,75.131,6.659,83.178,17.78c0.419,7.971-0.289,15.017-4.205,19.423
		C76.526,39.957,72.157,41.898,67.366,41.951L67.366,41.951z"/>
	
		<path fill-rule="evenodd" clip-rule="evenodd" fill="#FA2811" stroke="#C90E11" stroke-width="0.2835" stroke-linecap="round" stroke-linejoin="round" stroke-miterlimit="22.9256" d="
		M67.366,40.015c-1.564,0.021-3.292-0.418-4.855-1.305c-4.795,0.553-6.896-2.708-6.882-5.916c-3.204-0.588-1.148-3.284-1.554-6.114
		c-0.479-3.338-0.753-6.487,1.615-7.186c1.114-0.329,2.71,1.336,2.444,2.483l0.493-2.129c1.046-4.516,5.244-5.666,8.739-5.715
		c3.472-0.048,7.222,1.583,8.635,5.723l0.44,1.64c0.291-1.517,0.78-3.103,2.481-2.728c2.782,0.612,1.891,4.379,1.434,8.236
		c-0.309,2.609,1.923,5.076-1.307,5.511c0.698,2.906-2.502,6.481-6.622,6.187C70.442,39.904,68.584,40.003,67.366,40.015
		L67.366,40.015z"/>
	
		<path fill-rule="evenodd" clip-rule="evenodd" fill="#FFFFFF" stroke="#AA120D" stroke-width="0.216" stroke-linecap="round" stroke-linejoin="round" stroke-miterlimit="22.9256" d="
		M61.563,37.084c-2.006,0.391-2.836-1.368-2.443-2.423l1.731-4.652c0.233-0.627,1.134-0.969,1.832-0.969
		c1.597,0,1.544,0.733,4.683,0.765c3.139-0.032,3.086-0.765,4.683-0.765c0.699,0,1.599,0.342,1.832,0.969l1.731,4.652
		c0.393,1.055-0.433,2.787-2.443,2.423C67.862,36.122,66.456,36.13,61.563,37.084L61.563,37.084z"/>
	
		<path fill="#03124D" stroke="#03124D" stroke-width="0.7087" stroke-linecap="round" stroke-linejoin="round" stroke-miterlimit="22.9256" d="
		M62.481,38.832c-0.428,0.084-0.9,0.128-1.427,0.114c-0.444-0.012-0.865-0.066-1.261-0.158c-1.423-0.329-2.541-1.135-3.295-2.147
		l0,0c-0.754-1.011-1.145-2.231-1.114-3.387c0.008-0.306,0.045-0.606,0.112-0.896l2.525-10.914c0.024-0.103,0.127-0.168,0.23-0.145
		c0.058,0.013,0.103,0.051,0.128,0.099c0.384,0.656,0.761,1.201,1.164,1.572c0.383,0.353,0.793,0.546,1.263,0.523
		c0.308-0.015,0.628-0.109,0.977-0.213c0.551-0.163,1.173-0.347,1.983-0.306c0.566,0.028,1.21,0.282,1.763,0.653
		c0.552,0.37,1.022,0.861,1.244,1.365c0.026,0.058,0.02,0.122-0.009,0.173c-0.274,0.548-0.926,1.157-1.714,1.628
		c-0.728,0.435-1.579,0.76-2.363,0.816c-0.117,0.008-0.234,0.01-0.352,0.005h-0.002c-1.161-0.045-2.178-0.72-2.926-1.716
		c-0.671-0.893-1.127-2.047-1.274-3.233l-2.262,9.776c-0.062,0.267-0.096,0.542-0.103,0.819c-0.028,1.072,0.336,2.205,1.039,3.148
		l0,0l0,0c0.703,0.943,1.745,1.694,3.073,2.002c0.374,0.086,0.769,0.138,1.184,0.149c1.737,0.045,2.845-0.587,3.83-1.15
		c2.056-1.174,2.859-1.183,4.925-0.003c0.985,0.563,2.094,1.195,3.83,1.15c0.415-0.011,0.81-0.063,1.184-0.149
		c1.328-0.307,2.37-1.058,3.073-2.001l0,0l0,0c0.703-0.943,1.067-2.077,1.039-3.148c-0.007-0.277-0.041-0.552-0.103-0.819
		l-2.262-9.776c-0.147,1.185-0.603,2.34-1.274,3.233c-0.748,0.995-1.765,1.67-2.925,1.715h-0.002
		c-0.118,0.005-0.236,0.003-0.352-0.005c-0.784-0.056-1.636-0.38-2.364-0.816c-0.789-0.472-1.44-1.081-1.714-1.628
		c-0.029-0.051-0.035-0.115-0.009-0.173c0.223-0.504,0.693-0.995,1.244-1.364c0.553-0.371,1.197-0.625,1.763-0.653
		c0.81-0.041,1.432,0.143,1.983,0.306c0.349,0.103,0.67,0.198,0.977,0.213c0.469,0.023,0.879-0.17,1.263-0.523
		c0.404-0.371,0.78-0.916,1.164-1.572c0.025-0.049,0.07-0.086,0.128-0.099c0.103-0.024,0.206,0.041,0.23,0.145l2.525,10.914
		c0.067,0.29,0.104,0.59,0.112,0.896c0.031,1.156-0.36,2.376-1.114,3.387l0,0c-0.754,1.012-1.872,1.818-3.295,2.147
		c-0.395,0.092-0.816,0.146-1.261,0.158c-0.414,0.011-0.794-0.014-1.145-0.066c-0.011,0.01-0.024,0.019-0.038,0.026
		c-0.714,0.375-1.615,0.723-2.559,0.965c-0.847,0.218-1.732,0.352-2.549,0.346c-0.863-0.006-1.729-0.132-2.554-0.366
		C63.983,39.614,63.192,39.271,62.481,38.832L62.481,38.832z"/>
	<path fill="#FA2811" d="M65.082,37.747c-0.606,0.346-1.256,0.717-2.065,0.954c0.591,0.327,1.231,0.589,1.898,0.778
		c0.795,0.225,1.626,0.347,2.452,0.353c0.783,0.005,1.635-0.124,2.453-0.334c0.749-0.193,1.47-0.454,2.086-0.742
		c-0.909-0.231-1.619-0.637-2.278-1.012C67.694,36.64,67.024,36.638,65.082,37.747L65.082,37.747z"/>
	<path fill="#FFFFFF" d="M59.282,23.255c-0.279-0.257-0.543-0.585-0.802-0.969l0,0.005c0.089,1.235,0.538,2.458,1.232,3.381
		c0.682,0.907,1.599,1.522,2.634,1.562h0.002c0.1,0.004,0.204,0.002,0.31-0.005c0.722-0.052,1.513-0.355,2.193-0.762
		c0.694-0.415,1.267-0.934,1.53-1.4c-0.207-0.408-0.603-0.808-1.067-1.119c-0.5-0.335-1.073-0.564-1.568-0.589
		c-0.746-0.037-1.335,0.137-1.856,0.291c-0.372,0.11-0.713,0.211-1.068,0.228C60.239,23.908,59.74,23.677,59.282,23.255
		L59.282,23.255z"/>
	<path fill="#FFFFFF" d="M75.428,23.252c-0.459,0.422-0.957,0.652-1.541,0.624c-0.355-0.017-0.696-0.118-1.067-0.228
		c-0.522-0.154-1.111-0.328-1.856-0.291c-0.495,0.025-1.068,0.254-1.568,0.589c-0.464,0.311-0.86,0.71-1.067,1.119
		c0.263,0.466,0.836,0.984,1.53,1.399c0.681,0.407,1.472,0.71,2.193,0.762c0.107,0.007,0.21,0.009,0.31,0.005h0.002
		c1.035-0.04,1.952-0.655,2.634-1.562c0.694-0.923,1.143-2.146,1.232-3.381l0-0.004C75.97,22.667,75.707,22.996,75.428,23.252
		L75.428,23.252z"/>
	<path fill-rule="evenodd" clip-rule="evenodd" fill="#03124D" d="M62.552,35.355c-1.383,0.194-1.094-0.834-0.826-1.555l1.184-3.181
		c0.159-0.429,0.775-0.663,1.253-0.663c1.092,0,1.056,0.298,3.203,0.32c2.147-0.022,2.11-0.32,3.203-0.32
		c0.478,0,1.094,0.234,1.253,0.663l1.184,3.181c0.268,0.721,0.578,1.809-0.806,1.616C68.298,34.871,66.442,34.811,62.552,35.355
		L62.552,35.355z"/>
	
		<path fill-rule="evenodd" clip-rule="evenodd" fill="#FFFFFF" stroke="#FFFFFF" stroke-width="0.216" stroke-linecap="round" stroke-linejoin="round" stroke-miterlimit="22.9256" d="
		M70.456,32.385l1.491,2.078h-1.491V32.385L70.456,32.385z M68.933,33.636h1.101v0.827h-1.101V33.636L68.933,33.636z M67.524,33.636
		h1.101v0.827h-1.101V33.636L67.524,33.636z M66.057,33.636h1.101v0.827h-1.101V33.636L66.057,33.636z M64.636,33.636h1.101v0.827
		h-1.101V33.636L64.636,33.636z M64.237,32.385l-1.491,2.078h1.491V32.385L64.237,32.385z"/>
	
		<path fill-rule="evenodd" clip-rule="evenodd" fill="#FFFFFF" stroke="#FFFFFF" stroke-width="0.216" stroke-linecap="round" stroke-linejoin="round" stroke-miterlimit="22.9256" d="
		M70.101,32.095l1.307-1.298h-1.307V32.095L70.101,32.095z M68.765,31.313h0.965v-0.516h-0.965V31.313L68.765,31.313z M67.53,31.313
		h0.965v-0.516H67.53V31.313L67.53,31.313z M66.243,31.313h0.965v-0.516h-0.965V31.313L66.243,31.313z M64.998,31.313h0.965v-0.516
		h-0.965V31.313L64.998,31.313z M64.647,32.095l-1.307-1.298h1.307V32.095L64.647,32.095z"/>
	<path fill-rule="evenodd" clip-rule="evenodd" fill="#FA2811" d="M67.275,32.056c1.022,0,2.382,0.604,2.72,1.242h-5.34
		C65.083,32.68,66.253,32.056,67.275,32.056L67.275,32.056z"/>
	<path fill-rule="evenodd" clip-rule="evenodd" fill="#FFFFFF" d="M58.696,20.025c0.655,0.597,1.309,1.039,2.064,1.065
		c0.962,0.033,1.933-0.461,2.889-0.346c2.137,0.255,3.337,2.212,3.306,4.099c-0.595-1.103-1.943-2.015-3.261-2.048
		c-1.257-0.031-2.14,0.596-2.918,0.57c-0.858-0.029-1.795-1.178-2.329-2.252C58.538,20.617,58.622,20.396,58.696,20.025
		L58.696,20.025z"/>
	<path fill-rule="evenodd" clip-rule="evenodd" fill="#FFFFFF" d="M76.015,20.002c-0.655,0.597-1.309,1.039-2.064,1.065
		c-0.963,0.033-1.934-0.461-2.889-0.346c-2.137,0.255-3.337,2.212-3.306,4.099c0.596-1.103,1.943-2.015,3.261-2.047
		c1.257-0.031,2.139,0.596,2.918,0.569c0.858-0.029,1.795-1.178,2.329-2.252C76.173,20.594,76.089,20.373,76.015,20.002
		L76.015,20.002z"/>
	<path fill="#03124D" d="M62.87,23.39c0.466,0,0.888,0.189,1.193,0.494c0.305,0.305,0.494,0.727,0.494,1.193
		c0,0.466-0.189,0.888-0.494,1.193c-0.305,0.305-0.727,0.494-1.193,0.494c-0.466,0-0.888-0.189-1.193-0.494
		c-0.305-0.305-0.494-0.727-0.494-1.193c0-0.466,0.189-0.888,0.494-1.193C61.982,23.579,62.404,23.39,62.87,23.39L62.87,23.39z
		 M63.79,24.156c-0.236-0.236-0.561-0.382-0.921-0.382c-0.359,0-0.685,0.146-0.921,0.382c-0.236,0.236-0.382,0.561-0.382,0.921
		s0.146,0.685,0.382,0.921c0.236,0.236,0.561,0.381,0.921,0.381c0.359,0,0.685-0.146,0.921-0.381
		c0.236-0.236,0.382-0.561,0.382-0.921S64.026,24.392,63.79,24.156L63.79,24.156z"/>
	<path fill-rule="evenodd" clip-rule="evenodd" fill="#03124D" d="M62.87,24.669c0.225,0,0.408,0.183,0.408,0.408
		s-0.183,0.408-0.408,0.408c-0.225,0-0.408-0.183-0.408-0.408S62.645,24.669,62.87,24.669L62.87,24.669z"/>
	<path fill="#03124D" d="M71.869,23.347c-0.466,0-0.888,0.189-1.193,0.494c-0.305,0.305-0.494,0.727-0.494,1.193
		c0,0.466,0.189,0.888,0.494,1.193c0.305,0.305,0.727,0.494,1.193,0.494c0.466,0,0.888-0.189,1.193-0.494
		c0.305-0.305,0.494-0.727,0.494-1.193c0-0.466-0.189-0.888-0.494-1.193C72.757,23.536,72.334,23.347,71.869,23.347L71.869,23.347z
		 M70.948,24.113c0.235-0.236,0.561-0.382,0.921-0.382c0.359,0,0.685,0.146,0.921,0.382c0.236,0.236,0.381,0.561,0.381,0.921
		c0,0.359-0.146,0.685-0.381,0.921c-0.236,0.236-0.561,0.382-0.921,0.382c-0.359,0-0.685-0.146-0.921-0.382
		c-0.236-0.236-0.382-0.561-0.382-0.921C70.566,24.675,70.712,24.349,70.948,24.113L70.948,24.113z"/>
	<path fill-rule="evenodd" clip-rule="evenodd" fill="#03124D" d="M71.869,24.627c-0.225,0-0.408,0.183-0.408,0.408
		c0,0.225,0.182,0.408,0.408,0.408c0.225,0,0.407-0.183,0.407-0.408C72.276,24.809,72.094,24.627,71.869,24.627L71.869,24.627z"/>
	<path fill-rule="evenodd" clip-rule="evenodd" fill="#AA120D" d="M55.723,24.46c0.255-0.74,0.827-0.75,0.782-2.183
		c-0.086-0.753-1.159-0.75-1.363,0.189c-0.089,2.174-0.247,7.024-0.024,6.541C55.342,28.52,55.45,25.145,55.723,24.46L55.723,24.46z
		"/>
	<path fill-rule="evenodd" clip-rule="evenodd" fill="#AA120D" d="M78.608,24.46c-0.254-0.74-0.827-0.75-0.782-2.183
		c0.086-0.753,1.159-0.75,1.363,0.189c0.089,2.174,0.247,7.024,0.024,6.541C78.989,28.52,78.881,25.145,78.608,24.46L78.608,24.46z"
		/>
	<path fill-rule="evenodd" clip-rule="evenodd" fill="#03124D" d="M67.503,14.564c0.453,0.397,0.837,0.984,1.108,1.64
		c0.277,0.67,0.439,1.415,0.439,2.103c0,0.681-0.186,1.48-0.47,2.186c-0.289,0.716-0.683,1.344-1.095,1.668
		c-0.074,0.059-0.179,0.053-0.247-0.008c-0.421-0.345-0.832-0.977-1.132-1.699c-0.285-0.688-0.472-1.465-0.472-2.161
		c0-0.74,0.132-1.473,0.416-2.135c0.263-0.615,0.656-1.168,1.195-1.609C67.322,14.486,67.434,14.494,67.503,14.564L67.503,14.564z"
		/>
	<path fill-rule="evenodd" clip-rule="evenodd" fill="#FFFFFF" d="M68.257,16.35c-0.227-0.548-0.535-1.041-0.895-1.394
		c-0.424,0.381-0.741,0.844-0.959,1.353c-0.262,0.612-0.384,1.293-0.384,1.985c0,0.646,0.175,1.371,0.442,2.015
		c0.248,0.599,0.573,1.124,0.906,1.447c0.317-0.305,0.621-0.819,0.857-1.404c0.267-0.663,0.441-1.41,0.441-2.043
		C68.665,17.668,68.514,16.974,68.257,16.35L68.257,16.35z"/>
	<path fill-rule="evenodd" clip-rule="evenodd" fill="#03124D" d="M67.353,16.866c0.358,0,0.68,0.17,0.911,0.444
		c0.224,0.265,0.362,0.63,0.362,1.03c0,0.4-0.138,0.764-0.362,1.03c-0.231,0.274-0.553,0.444-0.911,0.444s-0.68-0.17-0.911-0.444
		c-0.224-0.265-0.363-0.63-0.363-1.03c0-0.4,0.139-0.765,0.363-1.03C66.673,17.036,66.995,16.866,67.353,16.866L67.353,16.866z"/>
	<path fill-rule="evenodd" clip-rule="evenodd" fill="#FFFFFF" d="M67.971,17.557c-0.16-0.189-0.379-0.307-0.618-0.307
		c-0.24,0-0.458,0.117-0.618,0.307c-0.167,0.198-0.271,0.475-0.271,0.782c0,0.307,0.103,0.584,0.271,0.782
		c0.16,0.189,0.378,0.307,0.618,0.307c0.239,0,0.458-0.118,0.618-0.307c0.167-0.198,0.271-0.475,0.271-0.782
		C68.242,18.032,68.138,17.756,67.971,17.557L67.971,17.557z"/>
	<path fill-rule="evenodd" clip-rule="evenodd" fill="#03124D" d="M67.371,18.094c0.155,0,0.281,0.13,0.281,0.291
		c0,0.161-0.126,0.291-0.281,0.291c-0.156,0-0.281-0.13-0.281-0.291C67.09,18.224,67.215,18.094,67.371,18.094L67.371,18.094z"/>
	<path fill="#03124D" d="M66.945,4.035l0.259-0.344c0.013-0.021,0.031-0.04,0.053-0.055c0.087-0.061,0.207-0.039,0.268,0.048
		c0.116,0.167,0.225,0.321,0.334,0.475c1.052,1.491,2.112,2.992,2.112,4.755c0,0.649-0.334,1.348-0.827,1.884
		c-0.484,0.526-1.129,0.902-1.769,0.928L67.3,11.728v-0.001c-0.626,0-1.302-0.322-1.824-0.797c-0.524-0.477-0.901-1.115-0.926-1.744
		l0,0V9.182l-0.001-0.043l-0.001-0.021C64.547,7.221,65.79,5.57,66.945,4.035L66.945,4.035z"/>
	<path fill="#FFFFFF" d="M67.36,4.12l-0.109,0.145c-1.118,1.485-2.32,3.082-2.32,4.853l0,0.012l0.001,0.041h0
		c0.021,0.521,0.347,1.062,0.802,1.475c0.457,0.416,1.038,0.698,1.566,0.698v-0.001l0.059-0.001
		c0.532-0.022,1.081-0.348,1.501-0.805c0.432-0.47,0.725-1.073,0.725-1.624c0-1.642-1.025-3.093-2.042-4.534L67.36,4.12L67.36,4.12z
		"/>
	<path fill="#03124D" d="M67.031,6.387l0.113-0.156c0.014-0.022,0.032-0.042,0.055-0.057c0.088-0.059,0.207-0.036,0.267,0.052
		l0.149,0.221l-0.001,0c0.48,0.708,0.963,1.421,0.963,2.271c0,0.327-0.16,0.677-0.396,0.944c-0.234,0.265-0.55,0.455-0.867,0.468
		l0,0H67.31l-0.012,0l-0.021,0.001c-0.307,0-0.636-0.162-0.888-0.4c-0.252-0.239-0.434-0.56-0.448-0.88h0l0-0.004l0-0.014
		L65.94,8.812C65.94,7.897,66.505,7.115,67.031,6.387L67.031,6.387z"/>
	<path fill="#FA2811" d="M67.301,6.667c-0.478,0.663-0.977,1.374-0.977,2.145l-0.001,0.012l0,0.011
		c0.009,0.215,0.142,0.442,0.327,0.617c0.185,0.175,0.417,0.294,0.625,0.294l0.012,0h0.01v0c0.207-0.009,0.425-0.146,0.595-0.339
		c0.178-0.202,0.298-0.458,0.298-0.69C68.192,7.984,67.746,7.323,67.301,6.667L67.301,6.667z"/>
	<path fill="#03124D" d="M57.25,7.841l0.034-0.353c0-0.02,0.005-0.041,0.013-0.061c0.035-0.08,0.128-0.116,0.208-0.081
		c0.153,0.067,0.296,0.129,0.438,0.19c1.378,0.595,2.767,1.194,3.523,2.431c0.279,0.456,0.344,1.09,0.228,1.678
		c-0.114,0.577-0.405,1.118-0.843,1.411l-0.051,0.033l0-0.001c-0.44,0.269-1.052,0.333-1.622,0.223
		c-0.573-0.11-1.111-0.396-1.399-0.827h0l-0.002-0.003l-0.019-0.03l-0.01-0.014C56.935,11.106,57.098,9.414,57.25,7.841L57.25,7.841
		z"/>
	<path fill="#FFFFFF" d="M57.578,7.722l-0.014,0.148c-0.147,1.522-0.306,3.159,0.454,4.402l0.005,0.009l0.018,0.029h0
		c0.238,0.356,0.699,0.596,1.196,0.691c0.499,0.096,1.028,0.044,1.398-0.182l0-0.001l0.041-0.026
		c0.364-0.243,0.609-0.708,0.708-1.21c0.102-0.516,0.048-1.065-0.188-1.451c-0.704-1.152-2.047-1.731-3.379-2.306L57.578,7.722
		L57.578,7.722z"/>
	<path fill="#03124D" d="M58.32,9.455l0.012-0.158c0-0.022,0.005-0.043,0.014-0.064c0.036-0.079,0.13-0.115,0.209-0.078l0.2,0.091
		l0,0c0.64,0.291,1.286,0.584,1.65,1.181c0.14,0.229,0.178,0.544,0.127,0.833c-0.051,0.287-0.191,0.555-0.408,0.701l0,0
		l-0.003,0.002l-0.009,0.005l-0.014,0.01c-0.216,0.132-0.516,0.159-0.795,0.1c-0.28-0.059-0.545-0.207-0.692-0.425l0,0l-0.002-0.003
		l-0.006-0.009l-0.01-0.014C58.202,10.983,58.263,10.191,58.32,9.455L58.32,9.455z"/>
	<path fill="#FA2811" d="M58.63,9.536c-0.052,0.67-0.096,1.384,0.234,1.925l0.005,0.009l0.005,0.008
		c0.099,0.147,0.289,0.249,0.494,0.293c0.205,0.043,0.419,0.027,0.565-0.062l0.009-0.005l0.007-0.004l0,0
		c0.141-0.095,0.236-0.285,0.272-0.493c0.039-0.218,0.013-0.45-0.087-0.613C59.821,10.077,59.224,9.805,58.63,9.536L58.63,9.536z"/>
	<path fill="#03124D" d="M51.985,12.371l-0.014-0.354c-0.002-0.02-0.001-0.042,0.005-0.063c0.024-0.084,0.112-0.133,0.196-0.108
		c0.161,0.046,0.31,0.088,0.459,0.129c1.446,0.404,2.902,0.81,3.818,1.935c0.338,0.414,0.488,1.034,0.452,1.632
		c-0.035,0.588-0.251,1.162-0.646,1.511l-0.046,0.04l-0.001-0.001c-0.4,0.326-0.998,0.471-1.577,0.44
		c-0.582-0.032-1.154-0.243-1.497-0.631l0,0L53.131,16.9l-0.023-0.027l-0.012-0.013C52.111,15.649,52.045,13.951,51.985,12.371
		L51.985,12.371z"/>
	<path fill="#FFFFFF" d="M52.294,12.21l0.006,0.149c0.059,1.528,0.122,3.171,1.043,4.301l0.006,0.008l0.022,0.026h0
		c0.284,0.321,0.773,0.497,1.278,0.524c0.507,0.028,1.025-0.094,1.361-0.368l-0.001-0.001l0.037-0.031
		c0.328-0.29,0.509-0.783,0.539-1.294c0.031-0.524-0.095-1.061-0.382-1.413c-0.853-1.047-2.261-1.44-3.658-1.83L52.294,12.21
		L52.294,12.21z"/>
	<path fill="#03124D" d="M53.262,13.827l-0.009-0.158c-0.003-0.021-0.001-0.044,0.006-0.065c0.025-0.084,0.114-0.131,0.197-0.105
		l0.21,0.063l0,0.001c0.674,0.202,1.352,0.406,1.794,0.948c0.17,0.209,0.25,0.515,0.238,0.808c-0.012,0.291-0.115,0.576-0.31,0.749
		v0l-0.002,0.002l-0.008,0.007l-0.013,0.012c-0.196,0.16-0.49,0.227-0.774,0.206c-0.285-0.021-0.568-0.132-0.742-0.329l0,0
		l-0.002-0.003l-0.007-0.008l-0.012-0.013C53.351,15.357,53.304,14.564,53.262,13.827L53.262,13.827z"/>
	<path fill="#FA2811" d="M53.58,13.865c0.039,0.671,0.091,1.384,0.492,1.876l0.006,0.008l0.006,0.007
		c0.117,0.132,0.32,0.208,0.529,0.223c0.209,0.016,0.419-0.029,0.551-0.138l0.008-0.006l0.006-0.005l0,0
		c0.128-0.113,0.195-0.314,0.204-0.526c0.009-0.221-0.048-0.447-0.168-0.595C54.832,14.242,54.204,14.052,53.58,13.865L53.58,13.865
		z"/>
	<path fill="#03124D" d="M76.808,7.914l-0.034-0.352c0-0.021-0.005-0.042-0.013-0.061c-0.035-0.08-0.128-0.116-0.208-0.081
		c-0.153,0.067-0.296,0.129-0.438,0.19c-1.378,0.595-2.767,1.194-3.523,2.431c-0.279,0.456-0.344,1.09-0.228,1.678
		c0.114,0.577,0.405,1.118,0.844,1.411l0.051,0.033l0-0.001c0.44,0.269,1.052,0.333,1.622,0.224c0.573-0.11,1.111-0.396,1.399-0.827
		v0l0.002-0.003l0.019-0.03l0.01-0.014C77.124,11.18,76.96,9.487,76.808,7.914L76.808,7.914z"/>
	<path fill="#FFFFFF" d="M76.48,7.796l0.014,0.148c0.147,1.522,0.305,3.159-0.454,4.402l-0.005,0.009l-0.018,0.028h0
		c-0.238,0.356-0.699,0.596-1.196,0.692c-0.499,0.096-1.028,0.044-1.398-0.182l0-0.001l-0.041-0.025
		c-0.365-0.244-0.609-0.708-0.708-1.21c-0.102-0.515-0.048-1.064,0.188-1.451c0.704-1.152,2.047-1.731,3.379-2.306L76.48,7.796
		L76.48,7.796z"/>
	<path fill="#03124D" d="M75.738,9.528L75.726,9.37c0-0.021-0.005-0.043-0.014-0.064c-0.036-0.079-0.13-0.114-0.209-0.078
		l-0.2,0.091V9.32c-0.64,0.291-1.285,0.584-1.65,1.18c-0.14,0.229-0.178,0.544-0.127,0.833c0.051,0.287,0.191,0.555,0.408,0.701v0
		l0.003,0.002l0.009,0.005l0.014,0.01c0.216,0.132,0.516,0.16,0.795,0.1c0.279-0.059,0.545-0.207,0.692-0.425h0l0.002-0.003
		l0.006-0.009l0.01-0.014C75.856,11.057,75.795,10.265,75.738,9.528L75.738,9.528z"/>
	<path fill="#FA2811" d="M75.428,9.609c0.052,0.67,0.096,1.384-0.235,1.925l-0.005,0.008l-0.005,0.008
		c-0.098,0.147-0.289,0.249-0.494,0.292c-0.205,0.044-0.419,0.027-0.565-0.062l-0.008-0.005l-0.007-0.005v0
		c-0.141-0.095-0.236-0.285-0.272-0.493c-0.039-0.217-0.013-0.449,0.087-0.612C74.238,10.151,74.835,9.879,75.428,9.609
		L75.428,9.609z"/>
	<path fill="#03124D" d="M82.074,12.445l0.014-0.354c0.002-0.02,0.001-0.042-0.005-0.063c-0.024-0.084-0.112-0.132-0.196-0.108
		c-0.161,0.046-0.31,0.088-0.46,0.13c-1.446,0.404-2.902,0.81-3.818,1.935c-0.338,0.414-0.488,1.034-0.452,1.632
		c0.035,0.587,0.251,1.162,0.646,1.511l0.046,0.04l0.001-0.001c0.4,0.325,0.998,0.471,1.577,0.44
		c0.582-0.032,1.154-0.243,1.497-0.631l0,0l0.002-0.003l0.023-0.027l0.012-0.013C81.948,15.723,82.013,14.024,82.074,12.445
		L82.074,12.445z"/>
	<path fill="#FFFFFF" d="M81.765,12.284l-0.006,0.149c-0.059,1.528-0.122,3.171-1.043,4.3l-0.006,0.008l-0.022,0.026l0,0
		c-0.284,0.321-0.773,0.497-1.278,0.524c-0.507,0.028-1.025-0.094-1.361-0.369l0.001-0.001l-0.037-0.031
		c-0.328-0.29-0.509-0.783-0.539-1.294c-0.031-0.524,0.095-1.062,0.382-1.413c0.853-1.047,2.261-1.44,3.658-1.831L81.765,12.284
		L81.765,12.284z"/>
	<path fill="#03124D" d="M80.797,13.9l0.009-0.158c0.003-0.021,0.001-0.043-0.006-0.065c-0.025-0.083-0.114-0.131-0.197-0.105
		l-0.21,0.064l0,0.001c-0.674,0.202-1.352,0.406-1.794,0.948c-0.17,0.208-0.25,0.515-0.238,0.808
		c0.012,0.291,0.115,0.576,0.31,0.749h0l0.002,0.002l0.008,0.007l0.013,0.012c0.196,0.16,0.49,0.227,0.774,0.206
		c0.285-0.021,0.568-0.132,0.742-0.328v0l0.002-0.002l0.007-0.009l0.012-0.013C80.708,15.431,80.754,14.638,80.797,13.9L80.797,13.9
		z"/>
	<path fill="#FA2811" d="M80.479,13.939c-0.039,0.671-0.091,1.384-0.492,1.876l-0.006,0.008l-0.006,0.007
		c-0.117,0.132-0.32,0.208-0.529,0.223c-0.209,0.015-0.419-0.03-0.551-0.138l-0.008-0.006l-0.006-0.005l0,0
		c-0.128-0.113-0.195-0.314-0.204-0.526c-0.009-0.221,0.048-0.447,0.168-0.595C79.226,14.315,79.854,14.126,80.479,13.939
		L80.479,13.939z"/>
	<path fill="#1D1D1B" d="M63.99,42.272c-0.702-0.132-1.389-0.304-2.047-0.508c-1.217-0.378-2.337-0.867-3.267-1.417
		c-0.405-0.212-0.812-0.441-1.223-0.685c-0.859-0.092-1.962-0.168-2.979-0.217c-1.126-0.054-2.148-0.075-2.62-0.05
		c-0.195,0.01-0.408,0.03-0.642,0.051c-1.444,0.132-3.651,0.333-5.851-1.025c-0.066-0.036-0.108-0.109-0.1-0.189
		c0.011-0.105,0.106-0.182,0.211-0.171c2.403,0.258,3.684,0.059,4.423-0.056c0.276-0.043,0.48-0.075,0.65-0.07
		c0.111,0.003,0.308,0.003,0.566,0.003c0.952,0.001,2.729,0.002,4.094,0.156c-0.599-0.365-1.412-0.615-2.423-0.764
		c-1.395-0.206-3.161-0.218-5.258-0.073c-0.276,0.019-0.576,0.046-0.875,0.072c-2.2,0.194-4.401,0.389-6.498-1.775h0
		c-0.047-0.048-0.067-0.12-0.046-0.189c0.031-0.101,0.138-0.158,0.239-0.128c2.324,0.711,4.268,0.556,6.304,0.393
		c0.24-0.019,0.481-0.039,0.753-0.058c1.329-0.098,2.557-0.037,3.705,0.139c0.928,0.142,1.805,0.361,2.641,0.634
		c-0.663-0.782-1.638-1.385-2.94-1.774c-1.508-0.451-3.451-0.615-5.846-0.44c-1.556,0.114-3.345,0.164-4.976-0.185
		c-1.656-0.355-3.147-1.119-4.071-2.636h0c-0.032-0.053-0.039-0.121-0.01-0.181c0.045-0.096,0.159-0.137,0.255-0.093
		c1.293,0.608,2.701,0.921,4.107,1.082c1.417,0.162,2.831,0.17,4.129,0.169c1.329-0.001,2.658,0.047,4.012,0.277
		c1.215,0.207,2.45,0.559,3.724,1.152c-0.428-0.739-1.386-1.39-2.833-1.909c-1.712-0.614-4.094-1.034-7.086-1.191
		c-0.429-0.022-0.861-0.034-1.3-0.046c-2.948-0.079-6.196-0.167-7.867-3.278c-0.033-0.054-0.04-0.122-0.011-0.184
		c0.045-0.096,0.16-0.137,0.255-0.092c1.33,0.631,2.748,1.001,4.194,1.2c1.454,0.2,2.939,0.229,4.397,0.181
		c1.602-0.053,3.168,0.229,4.721,0.731c1.382,0.447,2.752,1.067,4.127,1.778c-0.533-0.869-1.838-1.917-3.668-2.689
		c-1.699-0.717-3.845-1.187-6.239-1.046c-2.189,0.129-4.775-0.029-6.895-0.971c-1.627-0.723-2.978-1.904-3.67-3.764l0,0
		c-0.018-0.049-0.017-0.106,0.01-0.156c0.049-0.094,0.165-0.13,0.259-0.081c1.424,0.745,3.061,1.469,4.732,1.943
		c1.341,0.38,2.702,0.599,3.989,0.538c2.203-0.105,4.133,0.132,6.019,0.804c1.738,0.62,3.435,1.608,5.27,3.037
		c-0.417-1.039-1.601-2.388-3.66-3.531c-1.818-1.009-4.312-1.849-7.555-2.165c-0.564-0.055-1.169-0.09-1.788-0.126
		c-4.011-0.234-8.612-0.502-9.237-6.464h0c-0.006-0.057,0.014-0.116,0.058-0.159c0.077-0.073,0.198-0.07,0.271,0.007
		c1.64,1.715,2.89,2.736,4.256,3.351c1.365,0.614,2.86,0.83,4.99,0.936c3.281,0.163,5.757,0.693,7.747,1.617
		c1.809,0.84,3.214,2.003,4.453,3.511c-0.202-1.506-1.11-2.956-2.86-4.191c-1.799-1.27-4.482-2.312-8.189-2.956
		c-0.739-0.128-1.546-0.216-2.376-0.306c-4.457-0.482-9.591-1.038-9.053-8.161l0,0c0.004-0.051,0.029-0.101,0.072-0.136
		c0.083-0.066,0.204-0.052,0.27,0.031c1.654,2.082,3.451,3.46,5.38,4.378v0c1.932,0.919,4.001,1.379,6.193,1.622
		c2.636,0.293,4.745,0.944,6.467,1.857c1.532,0.811,2.758,1.829,3.78,2.985c-0.189-1.263-1.023-2.564-2.347-3.709
		c-1.487-1.287-3.586-2.372-6.08-2.988c-1.147-0.283-2.428-0.451-3.736-0.622c-3.631-0.475-7.464-0.976-9.352-4.025
		c-0.489-0.79-0.804-1.737-0.91-2.909l-0.001-0.007c-0.105-1.162-0.005-2.546,0.332-4.219c0.203-1.006,0.526-1.647,0.861-1.938
		c0.172-0.149,0.353-0.216,0.531-0.204c0.181,0.012,0.349,0.105,0.491,0.276c0.264,0.316,0.454,0.937,0.474,1.837
		c0.162,7.228,6.013,7.928,10.631,8.48l0.165,0.02c3.053,0.366,5.75,1.365,7.642,2.89c1.781,1.435,2.851,3.335,2.845,5.611v0.007
		v0.003c-0.049,2.185-0.049,4.279,0.107,6.236c0.155,1.945,0.464,3.749,1.032,5.362c0.566,1.604,1.211,3.246,2.047,4.722
		c0.83,1.465,1.85,2.77,3.17,3.722c0.007,0.005,0.014,0.009,0.02,0.014c0.342,0.287,0.741,0.566,1.186,0.829
		c1.297,0.679,2.561,1.189,3.795,1.543c0.504,0.145,1.002,0.264,1.495,0.358c1.034,0.189,2.097,0.288,3.138,0.272
		c0.009-0.001,0.018-0.001,0.027-0.001h0.001l0.004,0l0.018,0l0.018,0l0.004,0h0.001c0.009,0,0.018,0,0.027,0.001
		c1.042,0.016,2.105-0.084,3.139-0.272c0.493-0.094,0.991-0.213,1.495-0.358c1.234-0.355,2.498-0.865,3.795-1.543
		c0.445-0.264,0.844-0.542,1.186-0.829c0.006-0.005,0.013-0.01,0.02-0.014c1.32-0.952,2.34-2.257,3.17-3.722
		c0.837-1.476,1.482-3.118,2.047-4.722c0.569-1.613,0.877-3.417,1.032-5.362c0.156-1.957,0.156-4.051,0.107-6.236v-0.003v-0.007
		c-0.007-2.276,1.064-4.175,2.845-5.611c1.892-1.525,4.589-2.525,7.642-2.89l0.165-0.02c4.618-0.552,10.469-1.252,10.631-8.48
		c0.02-0.9,0.209-1.52,0.474-1.837c0.142-0.17,0.31-0.263,0.491-0.276c0.178-0.012,0.359,0.055,0.531,0.204
		c0.336,0.291,0.659,0.932,0.861,1.938c0.338,1.673,0.437,3.057,0.332,4.219L107.35,6.37c-0.107,1.172-0.422,2.119-0.91,2.909
		c-1.888,3.049-5.721,3.551-9.352,4.025c-1.307,0.171-2.589,0.338-3.736,0.622c-2.494,0.616-4.593,1.702-6.08,2.988
		c-1.324,1.146-2.159,2.447-2.347,3.709c1.022-1.155,2.248-2.173,3.78-2.985c1.722-0.913,3.831-1.564,6.467-1.857
		c2.192-0.243,4.261-0.703,6.193-1.622l0,0c1.929-0.918,3.726-2.296,5.38-4.378c0.066-0.083,0.187-0.097,0.27-0.031
		c0.043,0.035,0.068,0.085,0.072,0.136l0,0c0.538,7.123-4.596,7.678-9.053,8.161c-0.83,0.09-1.637,0.177-2.376,0.306
		c-3.708,0.644-6.39,1.686-8.189,2.956c-1.75,1.235-2.658,2.685-2.86,4.191c1.24-1.508,2.644-2.671,4.453-3.511
		c1.99-0.924,4.467-1.454,7.748-1.617c2.129-0.106,3.624-0.322,4.989-0.936c1.366-0.615,2.616-1.636,4.256-3.351
		c0.073-0.077,0.194-0.08,0.271-0.007c0.045,0.043,0.064,0.102,0.059,0.159l0,0c-0.625,5.962-5.227,6.231-9.237,6.464
		c-0.619,0.036-1.224,0.071-1.788,0.126c-3.243,0.316-5.737,1.155-7.555,2.165c-2.059,1.143-3.243,2.491-3.66,3.531
		c1.835-1.429,3.533-2.418,5.27-3.037c1.886-0.672,3.817-0.91,6.02-0.804c1.287,0.062,2.648-0.157,3.989-0.538
		c1.671-0.474,3.308-1.198,4.732-1.943c0.094-0.049,0.21-0.012,0.259,0.081c0.026,0.05,0.028,0.107,0.01,0.156h0
		c-0.693,1.86-2.044,3.041-3.671,3.764c-2.121,0.942-4.707,1.1-6.895,0.971c-2.394-0.141-4.54,0.329-6.24,1.046
		c-1.83,0.772-3.135,1.82-3.668,2.689c1.375-0.711,2.745-1.331,4.127-1.778c1.553-0.502,3.119-0.785,4.721-0.731
		c1.458,0.048,2.943,0.019,4.397-0.181c1.447-0.199,2.864-0.569,4.194-1.2c0.096-0.045,0.21-0.004,0.256,0.092
		c0.029,0.061,0.022,0.13-0.011,0.184c-1.672,3.111-4.919,3.199-7.867,3.278c-0.439,0.012-0.87,0.024-1.3,0.046
		c-2.992,0.156-5.374,0.577-7.086,1.191c-1.447,0.519-2.405,1.17-2.833,1.909c1.274-0.593,2.509-0.945,3.724-1.152
		c1.354-0.23,2.683-0.278,4.012-0.277c1.298,0.001,2.712-0.007,4.13-0.169c1.406-0.161,2.813-0.474,4.107-1.082
		c0.096-0.045,0.21-0.003,0.255,0.093c0.028,0.06,0.022,0.128-0.01,0.181h0c-0.924,1.517-2.415,2.282-4.071,2.636
		c-1.631,0.349-3.42,0.299-4.976,0.185c-2.396-0.175-4.338-0.011-5.846,0.44c-1.301,0.389-2.277,0.992-2.94,1.774
		c0.836-0.273,1.713-0.492,2.641-0.634c1.148-0.176,2.376-0.236,3.705-0.139c0.271,0.02,0.512,0.039,0.753,0.058
		c2.036,0.162,3.979,0.317,6.303-0.393c0.101-0.031,0.208,0.027,0.239,0.128c0.021,0.069,0.001,0.141-0.046,0.189h0
		c-2.097,2.163-4.298,1.969-6.498,1.775c-0.299-0.026-0.599-0.053-0.875-0.072c-2.097-0.144-3.862-0.132-5.258,0.073
		c-1.012,0.149-1.825,0.399-2.423,0.764c1.365-0.154,3.142-0.155,4.094-0.156c0.258,0,0.455,0,0.566-0.003
		c0.17-0.005,0.374,0.027,0.65,0.07c0.739,0.115,2.02,0.314,4.423,0.056c0.105-0.011,0.2,0.065,0.211,0.171
		c0.008,0.08-0.033,0.153-0.1,0.189c-2.2,1.358-4.407,1.157-5.851,1.025c-0.234-0.021-0.447-0.041-0.642-0.051
		c-0.471-0.025-1.493-0.004-2.619,0.05c-1.017,0.049-2.119,0.124-2.979,0.217c-0.411,0.245-0.818,0.473-1.223,0.685
		c-0.931,0.551-2.051,1.039-3.267,1.417c-0.658,0.204-1.346,0.376-2.047,0.508c-1.142,0.224-2.258,0.318-3.349,0.295
		C66.248,42.591,65.132,42.497,63.99,42.272L63.99,42.272z"/>
	<path fill="#03124D" d="M57.118,39.242c-1.22-0.962-2.178-2.216-2.966-3.608c-0.852-1.503-1.505-3.163-2.076-4.783
		c-0.581-1.648-0.896-3.484-1.053-5.46c-0.156-1.964-0.156-4.072-0.107-6.273c0.008-2.15-1.009-3.951-2.702-5.315
		c-1.836-1.48-4.464-2.451-7.446-2.808l-0.165-0.02c-4.764-0.57-10.799-1.292-10.969-8.855c-0.018-0.805-0.171-1.342-0.385-1.597
		c-0.073-0.087-0.149-0.134-0.222-0.139c-0.076-0.005-0.163,0.031-0.255,0.111c-0.278,0.241-0.552,0.807-0.736,1.723
		c-0.33,1.636-0.428,2.984-0.327,4.11v0.003c0.1,1.111,0.396,2.005,0.855,2.747c1.792,2.894,5.532,3.383,9.075,3.846
		c1.321,0.173,2.615,0.342,3.778,0.629c2.554,0.631,4.709,1.747,6.239,3.071c1.609,1.392,2.533,3.021,2.521,4.571
		c-0.001,0.106-0.088,0.191-0.193,0.19c-0.059-0.001-0.112-0.028-0.147-0.071v0c-1.064-1.303-2.365-2.447-4.042-3.336
		c-1.682-0.891-3.745-1.528-6.33-1.815c-2.231-0.247-4.34-0.717-6.315-1.657l-0.001,0v0c-1.857-0.884-3.594-2.182-5.2-4.101
		c-0.237,6.286,4.56,6.807,8.738,7.259c0.839,0.091,1.654,0.179,2.4,0.309c3.768,0.655,6.502,1.72,8.345,3.021
		c2.094,1.478,3.048,3.265,3.065,5.11c0.001,0.106-0.084,0.192-0.19,0.193c-0.063,0.001-0.119-0.029-0.154-0.075h0
		c-1.298-1.7-2.76-2.985-4.696-3.885c-1.946-0.904-4.377-1.422-7.605-1.583c-2.178-0.109-3.713-0.332-5.129-0.969
		c-1.299-0.585-2.487-1.514-3.97-3.018c0.824,5.085,5.077,5.333,8.8,5.55c0.618,0.036,1.222,0.071,1.803,0.128
		c3.301,0.321,5.846,1.179,7.705,2.211c2.559,1.42,3.834,3.187,4.008,4.357c0.015,0.105-0.057,0.203-0.162,0.218
		c-0.058,0.009-0.115-0.01-0.155-0.046c-1.979-1.599-3.777-2.682-5.615-3.337c-1.838-0.656-3.722-0.886-5.874-0.784
		c-1.333,0.064-2.735-0.161-4.111-0.551c-1.517-0.431-3.006-1.064-4.337-1.733c0.694,1.479,1.873,2.451,3.266,3.07
		c2.054,0.912,4.577,1.064,6.718,0.938c2.458-0.145,4.663,0.339,6.411,1.076c2.296,0.969,3.817,2.392,4.11,3.42
		c0.029,0.102-0.03,0.209-0.132,0.238c-0.05,0.014-0.1,0.007-0.143-0.015l0,0c-1.528-0.812-3.042-1.522-4.56-2.013
		c-1.514-0.49-3.038-0.765-4.592-0.713c-1.477,0.049-2.983,0.019-4.46-0.184c-1.284-0.177-2.545-0.484-3.747-0.984
		c1.644,2.424,4.567,2.502,7.235,2.574c0.45,0.012,0.893,0.024,1.311,0.046c3.029,0.158,5.449,0.586,7.196,1.213
		c1.858,0.666,2.971,1.566,3.266,2.615c0.029,0.102-0.031,0.208-0.133,0.237c-0.048,0.014-0.097,0.007-0.139-0.014h0
		c-1.402-0.713-2.752-1.117-4.077-1.342c-1.332-0.227-2.64-0.274-3.949-0.273c-1.313,0.001-2.743-0.007-4.173-0.171
		c-1.218-0.139-2.439-0.391-3.595-0.845c0.864,1.056,2.091,1.627,3.438,1.915c1.586,0.34,3.341,0.29,4.869,0.178
		c2.443-0.179,4.431-0.009,5.983,0.455c1.652,0.494,2.816,1.323,3.512,2.422c0.057,0.09,0.03,0.208-0.06,0.265
		c-0.056,0.035-0.122,0.038-0.179,0.014c-0.983-0.357-2.024-0.641-3.142-0.813c-1.122-0.172-2.322-0.231-3.621-0.136
		c-0.233,0.017-0.493,0.038-0.749,0.058c-1.847,0.147-3.62,0.288-5.682-0.203c1.804,1.471,3.712,1.303,5.62,1.134
		c0.286-0.025,0.573-0.051,0.883-0.072c2.124-0.146,3.915-0.133,5.339,0.077c1.451,0.214,2.527,0.635,3.192,1.302
		c0.075,0.075,0.074,0.197-0.001,0.272c-0.046,0.046-0.11,0.063-0.17,0.052l-0.001,0l-0.002,0c-1.354-0.252-3.625-0.253-4.744-0.254
		c-0.264,0-0.466,0-0.576-0.003c-0.137-0.004-0.326,0.026-0.581,0.065c-0.654,0.102-1.721,0.268-3.575,0.143
		c1.817,0.809,3.586,0.648,4.798,0.538c0.244-0.022,0.467-0.043,0.658-0.053c0.482-0.026,1.519-0.005,2.657,0.05
		C55.375,39.104,56.32,39.166,57.118,39.242L57.118,39.242z"/>
	<path fill="#03124D" d="M77.56,39.242c1.22-0.962,2.178-2.216,2.966-3.608c0.852-1.503,1.505-3.163,2.076-4.783
		c0.581-1.648,0.896-3.484,1.053-5.46c0.156-1.964,0.156-4.072,0.107-6.273c-0.008-2.15,1.009-3.951,2.702-5.315
		c1.836-1.48,4.464-2.451,7.446-2.808l0.165-0.02c4.764-0.57,10.799-1.292,10.969-8.855c0.018-0.805,0.172-1.342,0.385-1.597
		c0.073-0.087,0.149-0.134,0.222-0.139c0.076-0.005,0.163,0.031,0.255,0.111c0.277,0.241,0.552,0.807,0.736,1.723
		c0.33,1.636,0.428,2.984,0.327,4.11l0,0.003c-0.1,1.111-0.396,2.005-0.855,2.747c-1.792,2.894-5.532,3.383-9.075,3.846
		c-1.321,0.173-2.615,0.342-3.778,0.629c-2.554,0.631-4.709,1.747-6.239,3.071c-1.608,1.392-2.533,3.021-2.52,4.571
		c0.001,0.106,0.087,0.191,0.193,0.19c0.06-0.001,0.112-0.028,0.147-0.071l0,0c1.064-1.303,2.364-2.447,4.042-3.336
		c1.682-0.891,3.745-1.528,6.33-1.815c2.231-0.247,4.34-0.717,6.315-1.657l0.001,0v0c1.857-0.884,3.594-2.182,5.2-4.101
		c0.237,6.286-4.56,6.807-8.738,7.259c-0.839,0.091-1.654,0.179-2.4,0.309c-3.768,0.655-6.503,1.72-8.346,3.021
		c-2.094,1.478-3.048,3.265-3.065,5.11c-0.001,0.106,0.084,0.192,0.19,0.193c0.063,0.001,0.119-0.029,0.154-0.075h0
		c1.298-1.7,2.76-2.985,4.696-3.885c1.946-0.904,4.377-1.422,7.605-1.583c2.178-0.109,3.713-0.332,5.129-0.969
		c1.299-0.585,2.487-1.514,3.97-3.018c-0.824,5.085-5.077,5.333-8.8,5.55c-0.618,0.036-1.222,0.071-1.803,0.128
		c-3.302,0.321-5.846,1.179-7.705,2.211c-2.559,1.42-3.834,3.187-4.008,4.357c-0.015,0.105,0.057,0.203,0.162,0.218
		c0.058,0.009,0.115-0.01,0.155-0.046c1.979-1.599,3.777-2.682,5.615-3.337c1.838-0.656,3.722-0.886,5.874-0.784
		c1.333,0.064,2.735-0.161,4.111-0.551c1.517-0.431,3.006-1.064,4.337-1.733c-0.694,1.479-1.873,2.451-3.266,3.07
		c-2.054,0.912-4.577,1.064-6.718,0.938c-2.458-0.145-4.662,0.339-6.411,1.076c-2.296,0.969-3.817,2.392-4.11,3.42
		c-0.029,0.102,0.03,0.209,0.132,0.238c0.05,0.014,0.1,0.007,0.143-0.015h0c1.528-0.812,3.041-1.522,4.56-2.013
		c1.514-0.49,3.038-0.765,4.592-0.713c1.477,0.049,2.983,0.019,4.46-0.184c1.284-0.177,2.545-0.484,3.747-0.984
		c-1.644,2.424-4.567,2.502-7.235,2.574c-0.45,0.012-0.893,0.024-1.311,0.046c-3.029,0.158-5.449,0.586-7.196,1.213
		c-1.858,0.666-2.971,1.566-3.266,2.615c-0.029,0.102,0.031,0.208,0.133,0.237c0.048,0.014,0.097,0.007,0.139-0.014l0,0
		c1.402-0.713,2.752-1.117,4.077-1.342c1.332-0.227,2.64-0.274,3.949-0.273c1.313,0.001,2.743-0.007,4.173-0.171
		c1.218-0.139,2.439-0.391,3.595-0.845c-0.864,1.056-2.091,1.627-3.438,1.915c-1.586,0.34-3.34,0.29-4.869,0.178
		c-2.443-0.179-4.431-0.009-5.983,0.455c-1.653,0.494-2.816,1.323-3.512,2.422c-0.057,0.09-0.03,0.208,0.06,0.265
		c0.056,0.035,0.122,0.038,0.179,0.014c0.983-0.357,2.024-0.641,3.142-0.813c1.122-0.172,2.322-0.231,3.621-0.136
		c0.233,0.017,0.493,0.038,0.749,0.058c1.847,0.147,3.62,0.288,5.682-0.203c-1.804,1.471-3.712,1.303-5.62,1.134
		c-0.286-0.025-0.573-0.051-0.883-0.072c-2.124-0.146-3.916-0.133-5.339,0.077c-1.451,0.214-2.527,0.635-3.192,1.302
		c-0.075,0.075-0.075,0.197,0.001,0.272c0.046,0.046,0.11,0.063,0.17,0.052l0.001,0l0.002,0c1.354-0.252,3.625-0.253,4.744-0.254
		c0.264,0,0.466,0,0.576-0.003c0.137-0.004,0.326,0.026,0.581,0.065c0.654,0.102,1.721,0.268,3.575,0.143
		c-1.817,0.809-3.586,0.648-4.799,0.538c-0.244-0.022-0.467-0.043-0.658-0.053c-0.482-0.026-1.519-0.005-2.657,0.05
		C79.303,39.104,78.357,39.166,77.56,39.242L77.56,39.242z"/>
	<polygon fill-rule="evenodd" clip-rule="evenodd" fill="#A3070B" points="7.705,44.442 127.664,44.442 106.315,82.818 0,82.818 
		7.705,44.442 	"/>
	<polygon fill-rule="evenodd" clip-rule="evenodd" fill="#03124D" points="117.91,61.782 106.315,82.818 0,82.818 4.17,61.782 
		117.91,61.782 	"/>
	<path fill="#03124D" d="M142.306,5.112h6.961l9.637,24.009l4.519-24.009h6.851l-6.784,35.044h-7.361l-9.19-23.669l-4.653,23.669
		h-7.052L142.306,5.112L142.306,5.112z M184.351,83.102l13.405-67.574h6.868l-0.429,2.79c3.269-3.486,5.028-3.668,7.482-3.855
		c5.075-0.387,9.566,4.018,8.928,12.905c-0.573,7.97-5.832,13.419-11.962,13.866c-2.816,0.205-5.76-0.642-8.386-2.778l-8.682,44.645
		H184.351L184.351,83.102z M202.127,27.073c-1.566,5.57,1.005,8.583,4.31,9c3.102,0.392,6.153-2.507,7.121-7.742
		c0.968-5.235-1.332-8.167-4.08-8.167C206.876,20.165,203.693,21.504,202.127,27.073L202.127,27.073z M231.71,22.194l-6.619,0.005
		c1.264-5.615,6.576-8.142,12.139-8.059c6.895,0.102,11.461,2.458,9.724,10.671l-2.034,9.615c-0.253,1.196-0.382,2.14-0.393,2.82
		c-0.011,0.68-0.359,1.852-0.132,2.91h-6.6c-0.353-1.271-0.319-1.542-0.221-2.849c-1.531,1.678-5.027,3.143-8.296,3.154
		c-3.675,0.012-7.342-1.818-7.059-7.23c0.547-10.458,12.792-7.595,16.759-9.414c4.341-1.992,1.263-5.486-2.079-5.276
		C235.157,18.65,232.322,19.268,231.71,22.194L231.71,22.194z M239.717,27.416c-2.797,1.067-10.396-0.016-10.783,4.681
		c-0.199,2.423,1.937,3.48,3.728,3.48C236.001,35.577,239.369,32.073,239.717,27.416L239.717,27.416z M254.411,5.552h6.576
		l-7.225,34.604h-6.082L254.411,5.552L254.411,5.552z M145.933,55.408l-6.901,14.247h8.562L145.933,55.408L145.933,55.408z
		 M136.324,75.246l-3.805,7.856h-8.255l18.962-35.249h8.281l4.957,35.249h-7.301l-0.916-7.856H136.324L136.324,75.246z
		 M162.598,58.079h6.854l-5.268,25.023h-6.559L162.598,58.079L162.598,58.079z M164.701,47.853h6.755l-1.081,5.683h-6.755
		L164.701,47.853L164.701,47.853z M199.678,58.079h6.854l-5.268,25.023h-6.559L199.678,58.079L199.678,58.079z M201.781,47.853
		h6.756l-1.081,5.683h-6.755L201.781,47.853L201.781,47.853z M173.286,58.158l6.28-0.079l-0.676,3.703
		c2.054-3.478,4.179-3.703,8.034-3.703l-1.569,7.051c-2.763-0.457-6.466-0.118-7.439,4.226l-3.078,13.746h-6.785L173.286,58.158
		L173.286,58.158z M259.924,74.049l6.043,0.066c-0.722,6.245,7.683,4.465,8.393,1.7c0.841-3.271-3.745-4.075-5.044-4.789
		c-3.127-1.719-6.944-2.822-6.545-7.108c0.929-9.994,20.05-10.011,20.693-0.171l-5.904,0.032c0.002-0.374-0.763-3.351-4.145-3.154
		c-3.906,0.227-5.004,3.929,0.709,5.86c5.564,1.881,8.143,5.356,7.318,8.915c-1.322,5.696-6.087,7.703-10.926,7.703
		C264.762,83.102,258.756,80.612,259.924,74.049L259.924,74.049z M239.719,71.817c-1.811,6.064,7.508,9.909,11.159,3.273
		l6.524-0.014c-2.494,5.979-6.886,8.349-13.351,8.349c-7.322,0-12.51-5.092-10.818-13.842c1.331-6.886,5.79-12.313,14.43-12.313
		c10.234,0,12.633,6.591,10.895,14.54L239.719,71.817L239.719,71.817z M252.059,67.3c1.25-8.087-10.278-6.271-10.675,0L252.059,67.3
		L252.059,67.3z M174.61,29.746c-1.812,6.064,7.507,9.908,11.159,3.273l6.524-0.014c-2.493,5.979-6.693,8.228-13.158,8.228
		c-7.322,0-12.702-4.971-11.01-13.721c1.331-6.886,5.79-12.537,14.43-12.537c10.234,0,12.633,6.816,10.895,14.764L174.61,29.746
		L174.61,29.746z M186.949,25.229c1.25-8.087-10.278-6.271-10.676,0L186.949,25.229L186.949,25.229z M210.527,58.062l6.64,0.017
		l-0.807,3.703c7.674-8.591,16.287-3.318,14.56,5.399l-3.153,15.92h-6.407l2.727-13.772c0.269-1.359,1.351-6.335-2.576-6.319
		c-4.44,0.018-5.88,2.451-6.992,8.066l-2.381,12.025h-6.571L210.527,58.062L210.527,58.062z"/>
</g>
</svg>
