<?xml version="1.0" encoding="utf-8"?>
<!-- Generator: Adobe Illustrator 22.1.0, SVG Export Plug-In . SVG Version: 6.00 Build 0)  -->
<svg version="1.1" id="Слой_1" xmlns="http://www.w3.org/2000/svg" xmlns:xlink="http://www.w3.org/1999/xlink" x="0px" y="0px"
	 width="175.7px" height="20.5px" viewBox="0 0 175.7 20.5" enable-background="new 0 0 175.7 20.5" xml:space="preserve">
<g>
	<path fill="#4B5A82" d="M8.3,9.9c-0.4,0.1-1.8,0.5-3.5,0.5C1.3,10.4,0,8.5,0,5.1c0-2.7,0.9-5,4.7-5c2.7,0,3.7,1,3.9,2.2H6.5
		c-0.1-0.5-0.4-1.5-2-1.5c-2.3,0-2.7,2.4-2.7,4c0,1.7,0.2,4.9,3.5,4.9c1.5,0,2.5-0.5,3-0.8V9.9L8.3,9.9z"/>
	<path fill="#4B5A82" d="M10.5,2.3c0-1.2-0.1-1.3-1.7-1.4V0.5l3.6-0.3v4.6H17V0.4h1.9v10H17V5.6h-4.6v4.8h-1.9V2.3L10.5,2.3z"/>
	<path fill="#4B5A82" d="M25,2.2l2,4.3h-3.8L25,2.2L25,2.2z M20.5,10.3h1.1l1.3-3.1h4.4l1.3,3.1h1.8l-4.2-10H23v0.4
		c0.7,0.1,1.3,0.1,1.3,0.7c0,0.1-0.2,0.6-0.3,0.9L20.5,10.3L20.5,10.3z"/>
	<path fill="#4B5A82" d="M39.7,6.5c0,2-0.2,4-4,4c-3,0-4.1-1.2-4.1-3.4V2.3c0-1.2,0-1.3-1.7-1.4V0.5l3.6-0.3v6.1
		c0,1.7,0,3.5,2.4,3.5c2.6,0,2.6-1.6,2.6-3.1V0.4h1.2V6.5L39.7,6.5z"/>
	<path fill="#4B5A82" d="M44.7,1h-1.2c-1.3,0-1.7,0.4-1.8,1.4h-0.5l0.1-2.1H50l0.1,2.2h-0.6C49.5,1.4,49,1,47.6,1h-1.1v9.3h-1.9V1
		H44.7z"/>
	<path fill="#4B5A82" d="M54,2.2l2,4.3h-3.8L54,2.2L54,2.2z M49.6,10.3h1.1L52,7.2h4.3l1.3,3.1h1.8l-4.2-10H52v0.4
		c0.7,0.1,1.3,0.1,1.3,0.7c0,0.1-0.2,0.6-0.3,0.9L49.6,10.3L49.6,10.3z"/>
	<path fill="#4B5A82" d="M68.8,6.5c0,2-0.2,4-4.1,4c-3,0-4.1-1.2-4.1-3.4V2.3c0-1.2,0-1.3-1.7-1.4V0.5l3.6-0.3v6.1
		c0,1.7,0,3.5,2.4,3.5c2.6,0,2.6-1.6,2.6-3.1V0.4h1.2v6.1H68.8z"/>
	<path fill="#4B5A82" d="M72.9,5.4c0-2,0.2-4.5,2.8-4.5c2.6,0,2.8,2.5,2.8,4.5c0,1.9-0.1,4.4-2.8,4.4C73.2,9.8,72.9,7.2,72.9,5.4
		L72.9,5.4z M79.9,11.4c-0.3,0-0.6,0.1-0.9,0.1c-1.5,0-1.9-0.4-2.3-1.1c2.8-0.3,3.7-2.2,3.7-5.1c0-3.2-1.1-5.2-4.6-5.2
		c-3.7,0-4.7,2-4.7,5.2c0,2.6,0.8,4.5,3.2,4.9c0.6,1.4,1.6,1.8,4.2,1.8c0.5,0,1-0.1,1.5-0.2v-0.4H79.9z"/>
	<path fill="#4B5A82" d="M90.9,6.5c0,2-0.2,4-4.1,4c-3,0-4.1-1.2-4.1-3.4V2.3c0-1.2,0-1.3-1.7-1.4V0.5l3.6-0.3v6.1
		c0,1.7,0,3.5,2.4,3.5c2.6,0,2.6-1.6,2.6-3.1V0.4h1.2v6.1H90.9z"/>
	<path fill="#4B5A82" d="M96.6,2.2l1.9,4.3h-3.7L96.6,2.2L96.6,2.2z M92.2,10.3h1.1l1.3-3.1h4.3l1.3,3.1h1.8l-4.2-10h-3.3v0.4
		c0.7,0.1,1.3,0.1,1.3,0.7c0,0.1-0.2,0.6-0.3,0.9L92.2,10.3L92.2,10.3z"/>
	<path fill="#4B5A82" d="M112.6,2.2l1.9,4.3h-3.8L112.6,2.2L112.6,2.2z M108.2,10.3h1.1l1.3-3.1h4.3l1.3,3.1h1.8l-4.2-10h-3.3v0.4
		c0.7,0.1,1.3,0.1,1.3,0.7c0,0.1-0.2,0.6-0.3,0.9L108.2,10.3L108.2,10.3z"/>
	<path fill="#4B5A82" d="M119.7,2.3c0-1.2-0.1-1.3-1.7-1.4V0.5l3.6-0.3v10.1h-1.9L119.7,2.3L119.7,2.3z"/>
	<path fill="#4B5A82" d="M126.5,2.4c0-1.1,0-1.3,1.1-1.3c1.4,0,2.5,0.4,2.5,2c0,1.7-1.6,1.9-2.7,1.9h-1V2.4H126.5z M124.6,10.3h1.9
		V5.7h1.1l3,4.6h2l-3.1-4.9c1.4-0.2,2.6-0.8,2.6-2.4c0-2.6-3.5-2.6-4.8-2.6h-4.2v0.3c1.6,0.2,1.6,0.2,1.6,1.7v7.9H124.6z"/>
	<path fill="#4B5A82" d="M134.5,2.3c0-1.2,0-1.3-1.7-1.4V0.5l3.6-0.3v8.3c0,1.1,0,1.1,1.1,1.1h1.5c1.1,0,2-0.1,2-1.4h0.5l-0.1,2.1
		h-6.9V2.3L134.5,2.3z"/>
	<path fill="#4B5A82" d="M143.7,2.3c0-1.2-0.1-1.3-1.7-1.4V0.5l3.6-0.3v10.1h-1.9L143.7,2.3L143.7,2.3z"/>
	<path fill="#4B5A82" d="M148.7,2.2c0-1.4-0.3-1.3-1.7-1.6V0.4h3.6l5.4,8.1l0,0V0.4h1.1v10h-1.6L149.9,2l0,0v8.4h-1.1V2.2H148.7z"/>
	<path fill="#4B5A82" d="M160,2.4c0-1.5,0-1.5-1.6-1.7V0.4h8.2l0.1,2.2h-0.5c0-1.2-0.7-1.5-1.9-1.5H163c-0.8,0-1.1,0.1-1.1,0.8v2.9
		h2.1c1.2,0,1.3-0.7,1.4-1.1h0.5v3h-0.5c0-0.8-0.4-1.3-1.4-1.3h-2.1v3.3c0,0.8,0.2,0.9,1.1,0.9h1.9c1,0,1.4-0.3,1.5-1.4h0.5
		l-0.1,2.1H160L160,2.4L160,2.4z"/>
	<path fill="#4B5A82" d="M174.9,1.5c-0.5-0.2-1.7-0.7-3.1-0.7c-0.9,0-1.6,0.5-1.6,1.4c0,2.3,5.5,2.1,5.5,5.2c0,2.1-1.9,2.9-4.3,2.9
		c-1.3,0-2.6-0.3-3-0.4V8.7c0.5,0.3,1.9,0.9,3.3,0.9c1.1,0,2.1-0.4,2.1-1.7c0-2.4-5.5-2.2-5.5-5.3c0-1.6,1.4-2.6,3.8-2.6
		c1.2,0,2.3,0.2,2.7,0.3v1.2H174.9z"/>
	<path fill="#4B5A82" d="M8.3,9.9c-0.4,0.1-1.8,0.5-3.5,0.5C1.3,10.4,0,8.5,0,5.1c0-2.7,0.9-5,4.7-5c2.7,0,3.7,1,3.9,2.2H6.5
		c-0.1-0.5-0.4-1.5-2-1.5c-2.3,0-2.7,2.4-2.7,4c0,1.7,0.2,4.9,3.5,4.9c1.5,0,2.5-0.5,3-0.8V9.9L8.3,9.9z"/>
	<path fill="#4B5A82" d="M10.5,2.3c0-1.2-0.1-1.3-1.7-1.4V0.5l3.6-0.3v4.6H17V0.4h1.9v10H17V5.6h-4.6v4.8h-1.9V2.3L10.5,2.3z"/>
	<path fill="#4B5A82" d="M25,2.2l2,4.3h-3.8L25,2.2L25,2.2z M20.5,10.3h1.1l1.3-3.1h4.4l1.3,3.1h1.8l-4.2-10H23v0.4
		c0.7,0.1,1.3,0.1,1.3,0.7c0,0.1-0.2,0.6-0.3,0.9L20.5,10.3L20.5,10.3z"/>
	<path fill="#4B5A82" d="M39.7,6.5c0,2-0.2,4-4,4c-3,0-4.1-1.2-4.1-3.4V2.3c0-1.2,0-1.3-1.7-1.4V0.5l3.6-0.3v6.1
		c0,1.7,0,3.5,2.4,3.5c2.6,0,2.6-1.6,2.6-3.1V0.4h1.2V6.5L39.7,6.5z"/>
	<path fill="#4B5A82" d="M44.7,1h-1.2c-1.3,0-1.7,0.4-1.8,1.4h-0.5l0.1-2.1H50l0.1,2.2h-0.6C49.5,1.4,49,1,47.6,1h-1.1v9.3h-1.9V1
		H44.7z"/>
	<path fill="#4B5A82" d="M54,2.2l2,4.3h-3.8L54,2.2L54,2.2z M49.6,10.3h1.1L52,7.2h4.3l1.3,3.1h1.8l-4.2-10H52v0.4
		c0.7,0.1,1.3,0.1,1.3,0.7c0,0.1-0.2,0.6-0.3,0.9L49.6,10.3L49.6,10.3z"/>
	<path fill="#4B5A82" d="M68.8,6.5c0,2-0.2,4-4.1,4c-3,0-4.1-1.2-4.1-3.4V2.3c0-1.2,0-1.3-1.7-1.4V0.5l3.6-0.3v6.1
		c0,1.7,0,3.5,2.4,3.5c2.6,0,2.6-1.6,2.6-3.1V0.4h1.2v6.1H68.8z"/>
	<path fill="#4B5A82" d="M72.9,5.4c0-2,0.2-4.5,2.8-4.5c2.6,0,2.8,2.5,2.8,4.5c0,1.9-0.1,4.4-2.8,4.4C73.2,9.8,72.9,7.2,72.9,5.4
		L72.9,5.4z M79.9,11.4c-0.3,0-0.6,0.1-0.9,0.1c-1.5,0-1.9-0.4-2.3-1.1c2.8-0.3,3.7-2.2,3.7-5.1c0-3.2-1.1-5.2-4.6-5.2
		c-3.7,0-4.7,2-4.7,5.2c0,2.6,0.8,4.5,3.2,4.9c0.6,1.4,1.6,1.8,4.2,1.8c0.5,0,1-0.1,1.5-0.2v-0.4H79.9z"/>
	<path fill="#4B5A82" d="M90.9,6.5c0,2-0.2,4-4.1,4c-3,0-4.1-1.2-4.1-3.4V2.3c0-1.2,0-1.3-1.7-1.4V0.5l3.6-0.3v6.1
		c0,1.7,0,3.5,2.4,3.5c2.6,0,2.6-1.6,2.6-3.1V0.4h1.2v6.1H90.9z"/>
	<path fill="#4B5A82" d="M96.6,2.2l1.9,4.3h-3.7L96.6,2.2L96.6,2.2z M92.2,10.3h1.1l1.3-3.1h4.3l1.3,3.1h1.8l-4.2-10h-3.3v0.4
		c0.7,0.1,1.3,0.1,1.3,0.7c0,0.1-0.2,0.6-0.3,0.9L92.2,10.3L92.2,10.3z"/>
	<path fill="#4B5A82" d="M112.6,2.2l1.9,4.3h-3.8L112.6,2.2L112.6,2.2z M108.2,10.3h1.1l1.3-3.1h4.3l1.3,3.1h1.8l-4.2-10h-3.3v0.4
		c0.7,0.1,1.3,0.1,1.3,0.7c0,0.1-0.2,0.6-0.3,0.9L108.2,10.3L108.2,10.3z"/>
	<path fill="#4B5A82" d="M119.7,2.3c0-1.2-0.1-1.3-1.7-1.4V0.5l3.6-0.3v10.1h-1.9L119.7,2.3L119.7,2.3z"/>
	<path fill="#4B5A82" d="M126.5,2.4c0-1.1,0-1.3,1.1-1.3c1.4,0,2.5,0.4,2.5,2c0,1.7-1.6,1.9-2.7,1.9h-1V2.4H126.5z M124.6,10.3h1.9
		V5.7h1.1l3,4.6h2l-3.1-4.9c1.4-0.2,2.6-0.8,2.6-2.4c0-2.6-3.5-2.6-4.8-2.6h-4.2v0.3c1.6,0.2,1.6,0.2,1.6,1.7v7.9H124.6z"/>
	<path fill="#4B5A82" d="M134.5,2.3c0-1.2,0-1.3-1.7-1.4V0.5l3.6-0.3v8.3c0,1.1,0,1.1,1.1,1.1h1.5c1.1,0,2-0.1,2-1.4h0.5l-0.1,2.1
		h-6.9V2.3L134.5,2.3z"/>
	<path fill="#4B5A82" d="M143.7,2.3c0-1.2-0.1-1.3-1.7-1.4V0.5l3.6-0.3v10.1h-1.9L143.7,2.3L143.7,2.3z"/>
	<path fill="#4B5A82" d="M148.7,2.2c0-1.4-0.3-1.3-1.7-1.6V0.4h3.6l5.4,8.1l0,0V0.4h1.1v10h-1.6L149.9,2l0,0v8.4h-1.1V2.2H148.7z"/>
	<path fill="#4B5A82" d="M160,2.4c0-1.5,0-1.5-1.6-1.7V0.4h8.2l0.1,2.2h-0.5c0-1.2-0.7-1.5-1.9-1.5H163c-0.8,0-1.1,0.1-1.1,0.8v2.9
		h2.1c1.2,0,1.3-0.7,1.4-1.1h0.5v3h-0.5c0-0.8-0.4-1.3-1.4-1.3h-2.1v3.3c0,0.8,0.2,0.9,1.1,0.9h1.9c1,0,1.4-0.3,1.5-1.4h0.5
		l-0.1,2.1H160L160,2.4L160,2.4z"/>
	<path fill="#4B5A82" d="M174.9,1.5c-0.5-0.2-1.7-0.7-3.1-0.7c-0.9,0-1.6,0.5-1.6,1.4c0,2.3,5.5,2.1,5.5,5.2c0,2.1-1.9,2.9-4.3,2.9
		c-1.3,0-2.6-0.3-3-0.4V8.7c0.5,0.3,1.9,0.9,3.3,0.9c1.1,0,2.1-0.4,2.1-1.7c0-2.4-5.5-2.2-5.5-5.3c0-1.6,1.4-2.6,3.8-2.6
		c1.2,0,2.3,0.2,2.7,0.3v1.2H174.9z"/>
	<path fill="#D1564D" d="M19.8,15.3l1,2.7h-2L19.8,15.3L19.8,15.3z M17.4,20.4H18l0.7-2h2.2l0.7,2h0.9l-2.3-6h-1.5v0.2
		c0.4,0.1,0.7,0.2,0.7,0.4c0,0.1-0.1,0.3-0.1,0.5L17.4,20.4L17.4,20.4z"/>
	<path fill="#D1564D" d="M28.9,15.3c0-0.5,0-0.6,0.6-0.6c0.7,0,1.3,0.3,1.3,1.1c0,1.2-1.1,1.2-1.7,1.2h-0.2L28.9,15.3L28.9,15.3z
		 M28.1,20.4h0.8v-2.9h0.4l1.8,2.9H32l-1.8-3c0.8-0.1,1.5-0.4,1.5-1.4c0-1.3-0.9-1.5-2-1.5h-2.5v0.2c0.8,0.2,0.9,0.2,0.9,0.8
		L28.1,20.4L28.1,20.4z"/>
	<path fill="#D1564D" d="M34,15.3c0-0.5-0.1-0.7-0.9-0.8v-0.2h4.2v1.1H37c-0.1-0.5-0.1-0.7-0.8-0.7h-0.9c-0.5,0-0.5,0.1-0.5,0.6v1.8
		h1.1c0.7,0,0.8-0.3,0.9-0.7H37v1.8h-0.2c-0.1-0.5-0.1-0.8-0.9-0.8h-1.1v2.1c0,0.5,0.1,0.5,0.7,0.5h1c0.6,0,0.7-0.2,0.8-0.9h0.2
		l-0.1,1.2h-3.5v-5H34z"/>
	<path fill="#D1564D" d="M40.4,15.3c0-0.5,0.1-0.6,0.8-0.6c0.8,0,1.3,0.3,1.3,1.2c0,1.1-0.8,1.2-1.7,1.2h-0.4L40.4,15.3L40.4,15.3z
		 M39.7,20.4h0.8v-2.9h0.4c1.1,0,2.5,0,2.5-1.5c0-1.6-1.3-1.6-2.4-1.6h-2.2v0.2c0.8,0.1,0.9,0.2,0.9,0.8V20.4L39.7,20.4z"/>
	<path fill="#D1564D" d="M49.4,18.2c0,1.1,0,2.3-2,2.3c-1.9,0-2-1-2-2.3v-2.8c0-0.6-0.3-0.6-0.9-0.7v-0.2l1.7-0.2v3.8
		c0,0.6,0,1.9,1.3,1.9c1.5,0,1.5-1,1.5-1.9v-3.9h0.5v4H49.4z"/>
	<path fill="#D1564D" d="M52.6,15.4c0-0.6,0-0.7,0.7-0.7s1.3,0.2,1.3,1.2c0,1.1-1,1.1-1.5,1.1h-0.4v-1.6H52.6z M51.9,20.4h1.5
		c0.7,0,2.4,0,2.4-1.6c0-1.1-0.7-1.5-1.4-1.6l0,0c0.4-0.1,1-0.4,1-1.4c0-1.4-1.4-1.4-2-1.4h-2.5v0.2c0.7,0.2,0.9,0.2,0.9,0.9v4.9
		H51.9z M52.6,17.4H53c0.6,0,1.8,0,1.8,1.4c0,1-0.8,1.3-1.5,1.3s-0.7-0.1-0.7-0.7V17.4L52.6,17.4z"/>
	<path fill="#D1564D" d="M57.9,15.4c0-0.6-0.3-0.6-0.9-0.7v-0.2l1.7-0.2v4.9c0,0.7,0,0.8,0.7,0.8h0.8c0.7,0,0.7-0.4,0.8-1h0.3
		l-0.1,1.3h-3.3V15.4L57.9,15.4z"/>
	<path fill="#D1564D" d="M63.1,15.4c0-0.6-0.3-0.6-0.9-0.7v-0.2l1.7-0.2v6h-0.8L63.1,15.4L63.1,15.4z"/>
	<path fill="#D1564D" d="M70.4,20.2c-0.4,0.1-0.8,0.2-1.7,0.2c-1.7,0-2.6-1.5-2.6-3.3c0-1.6,0.5-2.9,2.4-2.9c1.3,0,1.8,0.7,1.9,1.3
		h-0.9c0-0.2-0.2-0.8-1.1-0.8S67,15.6,67,17c0,1.3,0.3,3.1,2.2,3.1c0.5,0,1.1-0.2,1.2-0.2L70.4,20.2L70.4,20.2z"/>
	<path fill="#D1564D" d="M77.7,15.3l1,2.7h-2L77.7,15.3L77.7,15.3z M75.3,20.4h0.6l0.7-2h2.2l0.8,2h0.9l-2.3-6h-1.5v0.2
		c0.4,0.1,0.7,0.2,0.7,0.4c0,0.1-0.1,0.3-0.1,0.5L75.3,20.4L75.3,20.4z"/>
	<path fill="#D1564D" d="M82.2,15.4c0-0.6-0.3-0.6-0.9-0.7v-0.2l1.7-0.2v6h-0.8L82.2,15.4L82.2,15.4z"/>
	<path fill="#D1564D" d="M86.4,15.3c0-0.5,0-0.6,0.6-0.6c0.7,0,1.3,0.3,1.3,1.1c0,1.2-1.1,1.2-1.7,1.2h-0.2L86.4,15.3L86.4,15.3z
		 M85.6,20.4h0.8v-2.9h0.4l1.8,2.9h0.9l-1.8-3c0.8-0.1,1.5-0.4,1.5-1.4c0-1.3-0.9-1.5-2-1.5h-2.5v0.2c0.8,0.2,0.9,0.2,0.9,0.8
		L85.6,20.4L85.6,20.4z"/>
	<path fill="#D1564D" d="M91.1,15.4c-0.1-0.7-0.2-0.7-0.9-0.9v-0.2h1.5l1,4.9l0,0l1.4-4.9h0.8l1.4,4.6l0,0l1-4.6h0.5l-1.3,6.1H96
		l-1.6-5.3l0,0l-1.5,5.3h-0.6L91.1,15.4L91.1,15.4z"/>
	<path fill="#D1564D" d="M101.2,15.3l1,2.7h-2L101.2,15.3L101.2,15.3z M98.8,20.4h0.6l0.7-2h2.2l0.7,2h0.9l-2.3-6h-1.5v0.2
		c0.4,0.1,0.7,0.2,0.7,0.4c0,0.1-0.1,0.3-0.1,0.5L98.8,20.4L98.8,20.4z"/>
	<path fill="#D1564D" d="M106.3,17.6l-1.3-2.1c-0.3-0.6-0.5-0.9-1.1-0.9v-0.2h1.3l1.6,2.6l1.6-2.6h0.6l-2,3.2v2.8h-0.8v-2.8H106.3z"
		/>
	<path fill="#D1564D" d="M113.6,15.1c-0.3-0.1-0.8-0.4-1.5-0.4c-0.6,0-1.1,0.3-1.1,0.9c0,1.4,2.9,1.2,2.9,3.2c0,1.2-1,1.7-2.2,1.7
		c-0.6,0-1.3-0.1-1.4-0.2v-0.6c0.3,0.2,0.9,0.4,1.5,0.4c0.8,0,1.3-0.4,1.3-1.1c0-1.5-2.9-1.3-2.9-3.1c0-1,0.7-1.5,1.9-1.5
		c0.6,0,1,0.1,1.3,0.1v0.6H113.6z"/>
	<path fill="#D1564D" d="M123.7,20.2c-0.4,0.1-0.8,0.2-1.7,0.2c-1.7,0-2.6-1.5-2.6-3.3c0-1.6,0.6-2.9,2.4-2.9c1.3,0,1.8,0.7,1.9,1.3
		h-0.9c-0.1-0.3-0.2-0.9-1.1-0.9c-0.9,0-1.4,0.9-1.4,2.3c0,1.3,0.3,3.1,2.2,3.1c0.5,0,1.1-0.2,1.2-0.2V20.2L123.7,20.2z"/>
	<path fill="#D1564D" d="M127.7,20.1c-1.4,0-1.5-1.6-1.5-2.7c0-1.2,0.1-2.7,1.5-2.7s1.4,1.6,1.4,2.7C129.1,18.6,129,20.1,127.7,20.1
		L127.7,20.1z M127.7,20.5c1.8,0,2.3-1.2,2.3-3.1c0-1.8-0.5-3.1-2.3-3.1s-2.3,1.2-2.3,3.1C125.4,19.2,125.9,20.5,127.7,20.5
		L127.7,20.5z"/>
	<path fill="#D1564D" d="M132.3,15.4c0-0.7-0.1-0.7-0.9-0.9v-0.2h1.9l1.8,5.1l0,0l1.8-5.1h1.1v6h-0.8v-5.5l0,0l-1.9,5.5h-0.7
		l-1.8-5.5l0,0v5.5h-0.5L132.3,15.4L132.3,15.4z"/>
	<path fill="#D1564D" d="M141.2,15.3c0-0.5,0-0.6,0.8-0.6s1.3,0.3,1.3,1.2c0,1.1-0.8,1.2-1.6,1.2h-0.4v-1.8H141.2z M140.5,20.4h0.8
		v-2.9h0.4c1.1,0,2.5,0,2.5-1.5c0-1.6-1.3-1.6-2.4-1.6h-2.2v0.2c0.8,0.1,0.9,0.2,0.9,0.8V20.4L140.5,20.4z"/>
	<path fill="#D1564D" d="M147.7,15.3l1,2.7h-2L147.7,15.3L147.7,15.3z M145.3,20.4h0.6l0.7-2h2.2l0.8,2h0.9l-2.3-6h-1.5v0.2
		c0.5,0.1,0.7,0.2,0.7,0.4c0,0.1-0.1,0.3-0.1,0.5L145.3,20.4L145.3,20.4z"/>
	<path fill="#D1564D" d="M152.2,15.4c0-0.7-0.1-0.8-0.9-0.9v-0.2h1.8l2.8,4.9l0,0v-4.9h0.5v6h-0.7l-3-5.2l0,0v5.2h-0.5L152.2,15.4
		L152.2,15.4z"/>
	<path fill="#D1564D" d="M159.9,17.6l-1.3-2.1c-0.4-0.6-0.5-0.9-1.1-0.9v-0.2h1.3l1.6,2.6l1.6-2.6h0.6l-2,3.2v2.8h-0.8v-2.8H159.9z"
		/>
</g>
</svg>
