<?xml version="1.0" encoding="utf-8"?>
<!-- Generator: Adobe Illustrator 22.1.0, SVG Export Plug-In . SVG Version: 6.00 Build 0)  -->
<svg version="1.1" id="Слой_1" xmlns="http://www.w3.org/2000/svg" xmlns:xlink="http://www.w3.org/1999/xlink" x="0px" y="0px"
	 width="2404.1px" height="746.5px" viewBox="0 0 2404.1 746.5" style="enable-background:new 0 0 2404.1 746.5;"
	 xml:space="preserve">
<style type="text/css">
	.st0{fill:#DDC35F;}
	.st1{fill:#DE1A23;}
	.st2{fill:#4B4B4D;}
</style>
<g>
	<g>
		<path class="st0" d="M713.9,143.7c15.6-6,29.8-15.1,46.2-19c-16.3,13.3-34.1,24.1-51.4,35.8c-17.4,11.8-34.9,23.3-52.4,35
			c-17.4,11.6-34.7,23.2-51.8,35.3c20.6-7.2,40.7-15.8,61.7-21.8c0.3,0.4,0.5,0.8,0.8,1.2c-1.3,1.3-2.5,2.8-4.1,3.8
			c-14.9,9.6-29.7,19.5-44.9,28.6c-30.6,18.4-61.3,36.3-92,54.5c-1.5,0.9-3,1.8-4.3,3c28.8-12.1,57.1-25.7,87.1-34.7
			c0.3,0.5,0.5,0.9,0.8,1.4c-1.3,1.2-2.5,2.6-3.9,3.7c-10.1,8-21.7,13.4-33.3,18.9c-44.8,21.4-86.8,47.1-123.3,81.1
			c-29.1,27-53,57.9-68.2,94.9c-8,19.6-13,39.9-15,60.9c-2.3,24.5,5.5,46.5,18.2,66.9c4.8,7.7,10.5,14.9,16.3,23.2
			c-3.9,0.8-7.8,1.9-11.8,2.2c-30.6,2.2-59-4.4-85.3-20.3c-42.5-25.7-87.8-44.3-136.6-54.2c-26.1-5.3-52.5-7.3-79.1-4.3
			c-11.6,1.3-23,4.2-34.4,6.4c-2.6,0.5-5.2,1-8.9,1.8c1.2-2.3,1.8-3.7,2.6-4.9c9.4-14,22.1-24.1,37.6-30.6c2.1-0.9,3.5-1.7,3.6-4.5
			c0.8-27.3,16.2-45.2,43.6-50.5c19.3-3.8,38-1.7,56.3,5c1.2,0.5,2.5,0.9,4.2,1.5c-0.3-4.3-0.8-8-0.9-11.7c-1.1-23.9,7-45.2,19-65.3
			c12.5-20.9,29-38.3,46.5-55c54.1-51.7,113.5-96.6,175.6-138c33-22,67-42.5,100.7-63.4c4.8-3,10.5-4.8,16-6.3c3.8-1.1,8-1,11.3,2.9
			c-31.6,23.1-61.8,47.7-90.7,73.9c17.9-10.4,35.8-20.8,53.7-31.2c0.4,0.6,0.9,1.2,1.3,1.9c-31.5,26.5-63,53.1-94.5,79.6
			c0.2,0.3,0.3,0.5,0.5,0.8c12.4-6.2,24.8-12.4,37.1-18.6c0.3,0.5,0.7,0.9,1,1.4c-1.6,1.4-3.1,2.9-4.8,4.2
			c-24.1,17.9-48.2,35.8-72.2,53.7c-5.3,3.9-10.6,7.7-15.8,12c19.3-9.7,38-20.6,58.3-28.5c-4.6,6.2-10.6,10.6-17,14.5
			c-17.8,10.9-35,22.7-50.9,36.3c-18.2,15.6-34.5,32.8-47.7,52.9c-0.8,1.2-1.5,2.5-2,4.2c0.5-0.3,1-0.5,1.4-0.8
			c28-27.1,58.9-50.7,90.3-73.8c61.4-45.2,126.1-85.3,192.3-123.2c55.4-31.8,110.3-64.6,165.4-96.9c5.8-3.4,12-6.1,18.1-8.6
			c2.7-1.1,6.8-2.3,8.3,1.1c0.8,1.9-0.9,6-2.8,7.6c-7.4,6.6-15.1,13-23.2,18.6c-16.8,11.7-34,22.8-51,34.1
			C715.2,142.8,714.6,143.3,713.9,143.7z"/>
		<path class="st0" d="M557.2,370.6c0.2,12.4-5.4,21.9-15.4,29.3c3.2,0.6,6.3,0.7,9,1.6c9.9,3.5,15.2,14.3,12.6,25
			c-2.7,11-14.7,21.1-25.9,21.8c-7.1,0.5-10.3-1-18-8.4c-2.7,8.8-5.3,17.5-13.8,23.2c1,0.4,1.4,0.6,1.8,0.7
			c9.6,1.2,15.8,6.6,18.6,15.6c3,9.7,0.2,18.1-6.9,25c-9.1,8.8-22.1,10.4-31.4,4.1c-10.6-7.2-12.7-20.9-4.5-31.5
			c1.9-2.4,4.1-4.6,6.6-7.3c-6.9-1.2-14-1.4-19-8c-3.2,8.5-6.6,16.2-14.9,21.4c2.1,0.4,3.1,0.7,4.1,0.9c13.9,2,20.8,10.8,18.8,24.7
			c-1.5,10.8-8.5,17.5-18.4,21c-9.1,3.2-17.5,1.8-24.5-5.3c-6.7-6.8-7.9-15.8-2.9-24c2.4-4,5.7-7.4,9-11.6
			c-8.2,0.6-15.9-0.7-21.7-8.8c-3.4,11.3-8.7,20.2-19.4,24.1c-3.2,1.2-6.6,1.7-10.7,2.8c3.6-17.7,9.3-33.3,17.3-49.1
			c3,2.2,5.8,4.1,8.5,6.1c3-5.6,6.1-11.3,9.2-17c-3.1-1.3-6-2.5-9.6-3.9c5.1-7.3,9.5-14.3,14.6-20.6c7.9-9.7,16.3-18.9,24.7-28.2
			c1.3-1.4,3.5-1.9,5.5-2.4c4.2-7.9,11.2-13.4,18-19.1c21.3-17.8,44.5-33,68.6-46.7c0.7-0.4,1.4-0.6,2.8-1.2
			c1.1,12-3.5,21.1-13.1,29c11.4,1,18.7,6,20.7,16.9L557.2,370.6z M502.9,416.5c4.4,2.9,9.5,6.1,14.6,9.4c1-9.3,7.7-15,14.2-22
			c-8,1.6-13.8-1.3-18.5-4.8C509.6,405.2,506.1,411,502.9,416.5z M497.1,369.3c4.4,2.5,8.6,5,12.2,7c4-5.6,7.9-11,11.3-15.7
			c-5.2-2.2-10.3-4.5-14.9-6.4C502.8,359.3,499.9,364.4,497.1,369.3z M475.6,427c-3.5-1.3-7.3-2.8-11.4-4.4
			c-2.9,4.3-6.1,8.9-9.2,13.5c4.1,2.5,8.1,5,11.6,7.1C469.6,437.8,472.6,432.4,475.6,427z"/>
		<path class="st0" d="M517.2,554.3c-13.9-0.1-24.9-12.9-22.1-25.7c2.3-10.8,17.1-19.9,28.3-17.5c11.7,2.5,19.4,14.3,16.8,25.9
			C538.1,546.7,528,554.3,517.2,554.3z"/>
		<path class="st0" d="M573.4,467.9c0,10.2-7.2,20-16.9,23.3c-8.5,2.8-17.9-0.3-23.7-7.8c-5.1-6.7-5.8-15.9-0.7-22.5
			c3.3-4.2,7.4-8.4,12-11C558.6,441.9,573.5,451.4,573.4,467.9z"/>
		<path class="st0" d="M386,535.4c0.8-6.5,1.6-13.1,2.5-19.6c0.2-1.1,0.7-2.4,1.5-3.2c6.1-5.6,13.2-8.7,21.6-8
			c8.4,0.7,13.8,5.7,16.6,13.3c2.9,7.8,1.5,15.1-4.2,21.3c-8.6,9.2-22.5,11.5-32.4,5.6C388,542.7,385.2,540.2,386,535.4z"/>
		<path class="st0" d="M557.3,370.7c-0.5-14.9,6.8-26.6,19.6-31.4c9.8-3.7,19,0.9,21.9,10.8c4.3,14.5-7.2,31.5-22.1,32.9
			c-9.7,0.9-14.3-2-19.5-12.4L557.3,370.7z"/>
		<path class="st0" d="M470.7,572c-12.4,0-21.7-8.3-21.8-19.5c-0.1-11.6,10.4-21.9,22.4-22c11.6-0.1,21.5,9.7,21.5,21.2
			C492.7,563.3,483.3,572,470.7,572z"/>
		<path class="st0" d="M563.6,534.9c-11.4-0.1-20-8.2-20-18.8c0-11.9,10.6-22.6,22.4-22.6c11,0,20.3,9.7,20.2,20.9
			C586.1,525.7,575.9,535,563.6,534.9z"/>
		<path class="st0" d="M607.5,403.8c-0.2,13.3-13.2,24.9-26.4,23.5c-9.1-1-14.9-8.8-14-18.8s9.7-20.4,19.5-23
			C597.9,382.5,607.8,391.1,607.5,403.8z"/>
		<path class="st0" d="M424.2,551.8c9.5,0,18.9,7.6,19.9,16.2c1.1,9.1-5.6,18.4-15.7,20.6c-4.1,0.9-8.9,0.7-13-0.5
			c-9-2.7-14.2-11.6-12.7-19.5C404.6,558.9,413.8,551.8,424.2,551.8z"/>
		<path class="st0" d="M518.4,576.4c0-13.1,15.1-22.3,27.5-16.3c3.7,1.8,7.2,4.8,9.8,8c5.1,6.3,4.1,15.2-1.7,21.3
			c-5.7,6-15,7.9-22.6,4.7C523.5,590.9,518.4,583.9,518.4,576.4z"/>
		<path class="st0" d="M603.2,559.7c0,10-8,17.7-18.2,17.6c-11-0.1-21.1-10.5-20.9-21.6c0.1-9.2,9.1-16.9,19.7-16.9
			C593.9,538.9,603.2,549,603.2,559.7z"/>
		<path class="st0" d="M617,448.4c-0.1,11.6-13.1,23.1-24.6,21.6c-8-1-14.3-8.5-13.8-16.7c0.6-10.9,11.2-21.2,22.1-21.2
			C609.7,432,617,439.3,617,448.4z"/>
		<path class="st0" d="M605.6,345.7c0.3-9.4,7.3-19,16.2-22.1c10.2-3.6,20.9,5.1,20,16.3c-0.8,10-9.5,19.7-19.3,21.7
			C612.9,363.5,605.2,356.3,605.6,345.7z"/>
		<path class="st0" d="M511.1,596.4c0,7.7-5.2,14.1-13.2,16.1c-12.7,3.2-26.7-9.5-23.7-21.6c2.1-8.8,11.5-14.6,20.4-12.7
			C504.1,580.3,511.1,588.1,511.1,596.4z"/>
		<path class="st0" d="M609.6,512.9c-8.6,0-15.9-7.4-15.8-16c0.1-9.8,9.5-19.3,19.1-19.3c8.4,0,16,7.5,16.1,15.9
			C629,503.4,619.5,513,609.6,512.9z"/>
		<path class="st0" d="M630,405.7c-8.6,0.1-15.2-7.8-14.2-16.9c0.9-8.5,7.6-16.7,15.8-19.1c8.6-2.6,17.7,4.9,18.2,14.9
			C650.4,394.7,640.2,405.6,630,405.7z"/>
		<path class="st0" d="M603.1,585c12.4,0,22.4,9,23.3,19.1c0.7,8.2-6.9,14.8-15.7,13.5c-6.9-1-12.6-4.5-16.9-10.1
			c-3.3-4.3-4.8-9.2-2.3-14.3C594.3,587.8,599.2,585.1,603.1,585z"/>
		<path class="st0" d="M672.7,274.4c0.1,9.5-5.6,17.7-13.1,20.6c-5.4,2.1-10.8,0.5-14.4-4.1c-7.8-10.3-2.9-27.5,9.4-31.5
			c2.8-0.9,6.9-0.4,9.5,1.1C669.7,263.6,672.4,269.2,672.7,274.4z"/>
		<path class="st0" d="M205.5,619c-9.4-0.1-17.7-7.9-17.8-16.8c-0.1-7.9,8.7-15.6,17.6-15.4c9.8,0.2,18,8,17.9,17.1
			C223,612.1,214.9,619.1,205.5,619z"/>
		<path class="st0" d="M312.5,226.1c0-9.6,7.4-20.1,16.6-23.2c5.9-2,11.6,1.1,13.9,7.6c4,11.4-5.5,27-17.4,28.7
			C317.8,240.3,312.6,234.9,312.5,226.1z"/>
		<path class="st0" d="M449.5,630.1c-9.5-0.1-19-8.4-20.3-17.7c-0.6-3.9,0.6-7.4,3.6-9.8c5.6-4.4,12-6.2,18.9-3
			c7.2,3.3,12.2,8.5,12.5,16.9C464.5,624.5,458.2,630.2,449.5,630.1z"/>
		<path class="st0" d="M628.1,278.6c7.6,6.8,7.8,20.4,0,29.6c-4.7,5.6-10.5,9.2-18.2,8.6c-7-0.6-13.2-6.8-13.4-13.8
			c0-1.1,1.2-2.5,2.2-3.2c4.7-3.1,9.8-5.7,14.3-9C618.3,287.1,623,282.9,628.1,278.6z"/>
		<path class="st0" d="M591.9,302.7c2.3,10.8-0.1,19.3-6.4,26.6c-6,6.9-13.7,9.9-22.8,8.1c-6-1.2-10-5.1-11.4-11.2
			c-0.2-0.9,0.2-2.7,0.9-3C565.1,316.4,578.1,309.8,591.9,302.7z"/>
		<path class="st0" d="M582.1,624c0,6.4-4,10.9-10.3,11.7c-9.8,1.2-20.8-6-23.7-15.5c-2.4-7.8,2.9-14.7,12.1-15.7
			C570.5,603.3,582.1,613.5,582.1,624z"/>
		<path class="st0" d="M644.5,540.2c0.1,8.7-6.4,15.2-14.9,15.2c-8.7-0.1-17.1-8.9-17.1-17.8c0-7.6,7.1-14,15.8-14.1
			C636.8,523.3,644.5,531.3,644.5,540.2z"/>
		<path class="st0" d="M658.3,431c-0.3,9.8-8,17.6-17.1,17.3c-7.5-0.2-13.2-7.3-13-16c0.3-9.2,8.6-16.8,18-16.4
			C653,416.2,658.5,423.1,658.3,431z"/>
		<path class="st0" d="M360,218.9c-4.7-5.4-4.8-11.4-3.5-17.4c1.6-7.9,6.3-13.8,13.2-17.9c3.8-2.3,7.9-2.9,11.8-0.3
			c4.6,3.1,7.4,7.4,7.7,13c0,0.9-0.7,2.1-1.4,2.6C378.7,205.5,369.5,212.1,360,218.9z"/>
		<path class="st0" d="M681.5,321.9c-0.4,7-3.5,12.8-10.3,16.1c-4.5,2.2-9.2,2.4-13.4-0.7c-4.2-3-5.9-7.6-4.8-12.5
			c1-4.2,2.8-8.5,5.2-12c3.9-5.6,9.9-7.5,14.7-5.7C677.9,309,681.5,315,681.5,321.9z"/>
		<path class="st0" d="M279.1,641.9c-2.8-0.9-5.7-1.5-8.3-2.8c-6.7-3.4-9.3-9.2-7.3-15.7s8.3-10.4,15.4-9.6c7,0.8,14.2,7,15,12.8
			C295.2,634.9,288.6,641.4,279.1,641.9z"/>
		<path class="st0" d="M351,155.3c1.3-3.6,2.5-7.9,4.6-11.7c2.5-4.6,6.4-8.1,12.1-6.8c5.4,1.2,8.1,5.6,9.4,10.6
			c2.1,8-2.4,17.4-9.8,21.1c-5.8,2.9-11.5,1-14-5C352.2,161.3,351.8,158.7,351,155.3z"/>
		<path class="st0" d="M155.5,635.8c-8.5,0-16.4-6.7-16.5-13.9c-0.1-7.1,7.1-13.3,15.4-13.3c8.4,0,15.4,6.5,15.4,14.3
			C169.8,630.5,164,635.8,155.5,635.8z"/>
		<path class="st0" d="M522.7,652.5c-6.2-0.7-12.3-4.3-16-11.2c-3-5.6-0.4-11.8,5.7-14.7c8-3.8,22.2,3,24.4,11.6
			C538.7,646.1,533,652.6,522.7,652.5z"/>
		<path class="st0" d="M134,590.7c-7,0-12.5-3.8-14.2-9.1c-1.6-5.2,0.4-11.4,6-14.5c3.6-2,8-3.5,12-3.5c7,0.1,11.5,5.2,11.8,11.4
			c0.3,7.1-5.1,13.9-12.4,15.3C135.9,590.6,134.6,590.7,134,590.7z"/>
		<path class="st0" d="M655.3,596c-8.6,0.1-15.4-4.7-17.8-11c-1.5-4-0.8-7.7,1.9-10.9c3.2-3.8,7.4-5.8,12.5-4.9
			c5.1,0.9,9.2,3.7,12.3,7.8c2.8,3.7,3.2,8,1.1,12.1C662.8,593.9,658.5,595.8,655.3,596z"/>
		<path class="st0" d="M311,175.7c0.2-4.8,2.5-10.2,6.8-14.8c2.9-3.1,6.4-5.2,10.7-3.9c4.6,1.3,6.9,5,8,9.4
			c2.1,8.7-5.1,19.8-13.8,21.8C315.9,189.7,311,185.2,311,175.7z"/>
		<path class="st0" d="M642.5,657.5c-6.4-0.5-12.6-4.3-16.7-11.1c-4.2-7.1,0.7-15.2,8.9-15.3c7.3-0.1,16.7,6.2,19.4,13
			C657.1,651.4,652.5,657.7,642.5,657.5z"/>
		<path class="st0" d="M655.3,490.1c-6.8,0.1-12.7-5.8-12.9-12.9c-0.2-7,7.4-14.6,14.9-14.8c6.8-0.2,13.4,6.2,13.4,12.9
			C670.8,482.6,663.1,489.9,655.3,490.1z"/>
		<path class="st0" d="M689.7,367.8c-0.1,7.6-5.8,14.3-13.1,15.7c-7.2,1.4-13.4-4.8-13.2-13c0.2-7,5.6-13.8,12.4-15.7
			C683.1,352.9,689.8,359.2,689.7,367.8z"/>
		<path class="st0" d="M708.5,256.8c0.2,5.2-2,9.4-5.6,12.9c-3.1,3-6.8,4.7-11,3.2c-4-1.4-6.4-4.9-6.7-8.9
			c-0.2-4.1,0.2-8.6,1.6-12.5c2.3-6,7.7-8.9,12.2-7.8C704.2,245,708.4,250.9,708.5,256.8z"/>
		<path class="st0" d="M414.2,133.8c0,6.6-2.1,11-6.6,14.2c-3.7,2.7-7.6,2.3-10.9-0.9c-6.2-6-6.8-17.2-1.4-24
			c3.7-4.6,8.9-5.1,13.3-1.1C412.4,125.4,414.1,129.8,414.2,133.8z"/>
		<path class="st0" d="M294,237c0.1,8.7-8.9,18-17.7,18.3c-5.3,0.2-8.7-3.9-7.8-9.7c1.1-7,4.9-12.4,10.6-16.5
			c3.1-2.2,6.6-3.1,10.2-1.3C292.3,229.2,294,232.8,294,237z"/>
		<path class="st0" d="M232.1,659.3c-3.5-1.5-7.3-2.5-10.5-4.5c-4-2.4-6.6-6-5.6-11.1c0.8-4,6.1-8.1,10.7-8.8
			c6.8-0.9,15.7,4.9,17.6,11.5C246.1,653,240.6,658.6,232.1,659.3z"/>
		<path class="st0" d="M357.6,665.5c-4.3-2.1-8.8-3.7-12.7-6.4c-4.4-3-5.4-7.6-3.8-11.3c1.9-4.2,7.2-7.2,11.9-6.7
			c5.2,0.6,9.4,3.1,12.7,7c2.5,3,4.2,6.4,2.5,10.4C366.4,662.9,362.6,664.2,357.6,665.5z"/>
		<path class="st0" d="M479.8,669.6c-5.9-0.1-10.6-2.6-14.2-7.2c-2.6-3.3-3-8.2-0.9-11.4c2.4-3.7,6-5.1,10.1-4.5
			c6,0.8,10.9,3.9,14.5,8.6c2.1,2.8,2.4,6,0.7,9.1C487.9,668.3,484.2,669.7,479.8,669.6z"/>
		<path class="st0" d="M599.9,675.1c-5-0.4-10.1-3.2-13.6-8.6c-2.1-3.1-2.2-6.6-0.5-9.9c1.7-3.2,4.8-4,8.2-3.9
			c6.6,0.2,11.7,3.6,15.9,8.4c2.3,2.7,2.9,6.1,1.1,9.4C608.9,674.2,605.4,675.2,599.9,675.1z"/>
		<path class="st0" d="M588.1,157.3c-0.1,0.7-0.1,2.4-0.5,3.9c-1.2,3.9-3.1,7.1-7.6,7.9c-4.3,0.7-7.2-1.5-9.5-4.7
			c-1.1-1.5-2-3.2-2.6-4.9c-3.1-8.5,0.7-16.1,9.4-18.5c1.2-0.3,2.9,0.4,4,1.2C585.6,145,588.1,150.5,588.1,157.3z"/>
		<path class="st0" d="M683.2,637.1c-5.9-0.1-12.2-4.4-14.3-9.6c-2.7-7,2.4-13.7,9.8-13c5.7,0.5,10.1,3.6,13.6,7.8
			c2.2,2.8,2.8,6.2,1,9.5C691.1,635.7,687.5,637.2,683.2,637.1z"/>
		<path class="st0" d="M672.5,532.4c-6.3-0.1-11.5-5.1-11.5-11.1c0.1-6.5,5.7-12.2,12-12.3c6.1,0,12.6,6.1,12.5,11.8
			C685.4,527.2,679.5,532.4,672.5,532.4z"/>
		<path class="st0" d="M687.2,401.4c7.1-0.1,12,4.9,12.1,10.6c0.1,6.7-6.6,13.6-13.3,13.8c-3.4,0.1-6.1-1.3-7.8-4.1
			c-2.6-4.3-1.9-8.8,0.3-13S683.8,401.6,687.2,401.4z"/>
		<path class="st0" d="M324.8,120.8c-0.4,7-2.3,11.3-6.5,14.3c-5,3.7-10.6,2.1-12.7-3.8c-2.3-6.4-1.1-12.5,3-17.9
			c3.6-4.8,8.4-5,12.2-0.3C322.9,115.8,324,119.2,324.8,120.8z"/>
		<path class="st0" d="M218.2,311.4c0.4-6.9,8.9-15.3,15.8-15.6c4.7-0.2,8.4,4,7.9,9.1c-0.6,6.8-9.6,14.9-16.4,14.8
			C221,319.6,217.9,316.1,218.2,311.4z"/>
		<path class="st0" d="M719.2,305c-1.1,1.8-2.6,5.5-5.1,8.4c-3,3.5-7.7,4.2-11,2.6c-3.4-1.7-5.7-6.2-5-10.6c0.4-2.6,1.2-5.2,2.4-7.6
			c2.4-4.8,6.7-7,10.7-6C715.3,292.8,719.2,298.2,719.2,305z"/>
		<path class="st0" d="M115.5,641c0.1,5.8-5.4,10.8-11.7,10.8c-6.2,0-11.6-5-11.8-10.9c-0.2-6,4.2-10.6,10.1-10.7
			C108.8,630,115.4,635.4,115.5,641z"/>
		<path class="st0" d="M727.1,194.4c-0.5,1.8-0.8,3.7-1.5,5.4c-1.4,3.4-3.8,6-7.7,6.2s-6.5-2.2-8.2-5.5c-2.1-4.1-2.7-8.4-1.3-12.9
			c1.8-6,10.1-8.3,14-3.6c2.4,2.8,3.7,6.5,5.5,9.8C727.5,194,727.3,194.2,727.1,194.4z"/>
		<path class="st0" d="M270.4,196c0.2-4.6,2.4-9.1,6.2-13c2.4-2.5,5.4-3.8,8.7-2.4c3.6,1.5,5.2,4.8,5,8.5
			c-0.3,6.6-3.6,11.8-9.7,14.7C275.1,206.4,270.4,203.2,270.4,196z"/>
		<path class="st0" d="M426.6,172c-8.7,5.9-17.4,11.9-26.2,17.9c-3.6-9.8,3.3-21.3,11.4-24.9C417.7,162.5,423.6,165.3,426.6,172z"/>
		<path class="st0" d="M342.4,103.8c0.1-6.3,3.2-11.6,7.2-12.2c4-0.6,9.1,4.1,10.7,9.9c0.3,1.3,0.6,2.7,0.5,4
			c-0.3,5.8-5,11-9.9,10.9C345.9,116.3,342.3,111,342.4,103.8z"/>
		<path class="st0" d="M448,115.4c0,6.3-3.7,11.1-8.4,11.6c-4.6,0.5-8.7-2.6-9.4-8.4c-0.5-3.9,0.1-8.3,1.4-12
			c1.6-4.5,6.1-5.2,10-2.3S447.7,111.2,448,115.4z"/>
		<path class="st0" d="M437.1,686.6c-5.3-0.3-9.8-2.5-13.3-6.5c-2.1-2.5-3-5.4-1.3-8.5c1.7-3.2,5-4.8,8.1-3.8
			c4.3,1.3,8.6,3.5,12.3,6.1c2.7,1.9,3.7,5.3,2.2,8.7C443.5,685.9,440.5,686.7,437.1,686.6z"/>
		<path class="st0" d="M183.5,676.3c-6.8-0.1-12.4-5.2-12.3-11.1c0.1-5.2,3.7-8.6,9.1-8.5c6.8,0.1,13,5.5,12.9,11.2
			C193.1,672.9,189.2,676.4,183.5,676.3z"/>
		<path class="st0" d="M620.3,137.4c-0.1,4.3-1.3,7.6-4.9,9.1c-3.7,1.6-6.6-0.5-8.8-3.1c-4-4.6-6.2-9.8-3.9-15.9
			c1.8-4.7,5.4-5.9,9.6-3.2C617.2,127.5,620.1,131.9,620.3,137.4z"/>
		<path class="st0" d="M311.4,682.4c-6.5-0.9-12.5-5.3-13.6-10.6c-1.3-5.9,3.2-11.3,9.1-9.8c3.7,0.9,7.3,3.2,10.3,5.7
			c2.8,2.3,3.5,6.2,1.4,9.1C316.9,679.1,313.8,680.6,311.4,682.4z"/>
		<path class="st0" d="M562.6,692.3c-7.3-0.9-12.4-3-15.6-7.8c-1.3-2-1.9-5.8-0.9-7.7c1.1-1.9,4.6-3.5,6.9-3.4
			c5.5,0.2,10.3,2.9,13.8,7.3c1.8,2.3,3.2,5.2,1.2,7.7C566.5,690.4,563.8,691.5,562.6,692.3z"/>
		<path class="st0" d="M671.5,677.5c7.5,1.7,13.3,4.2,16.9,10.1c2.8,4.6,0.1,9.3-5.3,9c-6.6-0.3-12.3-3.1-16-8.7
			c-1-1.6-1.1-4.5-0.3-6.3C667.7,679.8,670.1,678.7,671.5,677.5z"/>
		<path class="st0" d="M694,555.2c5.9,0,11.7,5.2,11.8,10.4c0.1,4.9-3.6,8.6-8.6,8.6c-6.1,0-12.1-5.2-12.1-10.6
			C685,559.1,689.2,555.2,694,555.2z"/>
		<path class="st0" d="M80.9,605.9c-5.2,0.1-9.5-3.7-9.6-8.3c0-5.2,5.2-10.2,10.9-10.3c5.4-0.1,9.7,3.4,9.8,8
			C92.1,600.6,86.7,605.8,80.9,605.9z"/>
		<path class="st0" d="M710.8,457.4c0.1,5.4-4.4,10-9.8,10.2c-5.2,0.1-9.6-4.1-9.6-9.3c0-5.1,4.9-10.2,9.9-10.4
			C706.1,447.8,710.7,452.4,710.8,457.4z"/>
		<path class="st0" d="M729.2,348.9c0.1,5.4-4.5,10.5-9.6,10.6c-4.9,0.1-8.9-3.9-8.9-8.9c-0.1-5.1,5.1-11.1,9.6-11.3
			C724.7,339,729.2,343.8,729.2,348.9z"/>
		<path class="st0" d="M722.1,677.5c-4.5-0.3-9.6-2.4-13.3-6.8c-1.3-1.6-1.8-4.8-1.3-6.9c0.7-2.8,3.3-3.9,6.4-3.6
			c5.7,0.5,12.7,5.4,14.4,10.3C729.9,675,728.2,677.4,722.1,677.5z"/>
		<path class="st0" d="M742.8,240.5c-0.1,5.2-3.9,9.4-8.5,9.4c-5,0-9-4.6-9-10.3c0-5.1,4.4-10.8,8.4-10.7
			C738.1,228.9,742.8,235,742.8,240.5z"/>
		<path class="st0" d="M176,410c-1.5,6.8-2.6,13.6-4.7,20.2c-0.4,1.3-4.5,2-6.9,1.9c-3.6-0.2-5.7-2.7-6.1-6.3
			C157.2,417.6,167.6,408.3,176,410z"/>
		<path class="st0" d="M168.5,383.2c-4.5,0-6.8-2.9-5.1-7.2c2.2-5.5,6.2-9.5,12.1-10.6c2.1-0.4,5.5,0.6,6.5,2.1
			c1.2,1.8,1.1,5.2,0.2,7.4C180.4,379.5,173.6,383.1,168.5,383.2z"/>
		<path class="st0" d="M223.7,263.9c-0.1-5.3,6-12.5,11.2-13.2c4-0.6,7.8,3.9,7,8.3c-0.9,4.6-6.7,10.1-11.4,10.9
			C226.5,270.4,223.8,268.1,223.7,263.9z"/>
		<path class="st0" d="M537.3,188.8c0.7-0.9,1.3-1.7,2-2.5c5.3-5.6,7.4-12.2,6.7-20c-0.1-1.6,1.8-3.5,2.8-5.2
			c6.7,4.3,7.9,15.3,3.4,22.1C548.3,189.1,542.9,191.3,537.3,188.8z"/>
		<path class="st0" d="M393.1,86.2c0,3.8-2.3,7.7-5.1,8.3c-3.9,0.8-6.4-1.4-8.3-4.4c-3-4.6-3.2-10.3,0-13.9c1.1-1.2,3.5-2.2,5-1.8
			C388.8,75.5,393.1,81.8,393.1,86.2z"/>
		<path class="st0" d="M267.3,142.5c0-2.2,2-5.6,5.4-8.1c3.3-2.5,7.9-0.3,9.7,4.5c1.8,5-1.8,12.2-7,13.7
			C271.1,153.8,267.4,150.2,267.3,142.5z"/>
		<path class="st0" d="M415.1,631.4c2.3,6.3,0.1,11.6-5.5,14.4c-6.7,3.3-16.6,0.9-20.6-5.4C398.1,638.8,407.5,638.1,415.1,631.4z"/>
		<path class="st0" d="M306.5,74.9c0,4-2.5,7.9-5.4,8.5c-3.2,0.7-6.3-1.6-8.1-5.8c-1.8-4.1-1.7-8.2,1.1-11.7c1-1.2,3.6-2,5-1.6
			C303.1,65.4,306.5,70.8,306.5,74.9z"/>
		<path class="st0" d="M478.7,97c-0.6,1.9-0.8,4-1.8,5.7c-1.5,2.9-4.5,3.4-7.2,1.6c-4.4-2.9-6.8-10.6-4.8-15.6
			c1.4-3.5,4.2-4.6,7.4-2.6C476.3,88.6,478.3,92.2,478.7,97z"/>
		<path class="st0" d="M633,113.5c1.5-2.7,2.2-5.6,3.7-6.2c1.8-0.6,4.7,0.3,6.5,1.5c3.5,2.5,6,6.1,5.2,10.7c-0.4,2-1.9,4.5-3.6,5.2
			c-1.7,0.7-5,0-6.1-1.3C636.3,120.5,634.8,116.9,633,113.5z"/>
		<path class="st0" d="M395.4,703.8c-6.5-0.4-10.4-2.7-13-7c-2.4-4-0.2-8.3,4.3-7.5c4,0.7,7.9,2.8,11.3,5.1c1.3,0.9,2.2,4.3,1.6,5.9
			C398.9,702,396.4,703.1,395.4,703.8z"/>
		<path class="st0" d="M131.5,676.9c3.3,1.6,6,2.4,8.1,3.9c2.4,1.7,4.8,4,2.8,7.4c-1.9,3.4-6,5.1-9.3,3.8c-2.1-0.9-4-2.2-5.7-3.7
			c-2-1.7-4.2-3.9-2.4-6.5C126.5,679.8,129.3,678.6,131.5,676.9z"/>
		<path class="st0" d="M520.4,708.5c-6.4-0.4-10.5-3-13.3-7.5c-2.2-3.6-0.2-7,3.9-6.9c5.3,0.1,9.6,2.5,12.6,6.7
			c0.9,1.2,1,3.8,0.3,5.2C523.3,707.3,521.2,708,520.4,708.5z"/>
		<path class="st0" d="M265.6,698c-3.5,0.1-9.7-3.8-11.2-7c-1.2-2.7,0.2-5.6,3.3-6.7c4.6-1.7,12.2,1.5,14.1,6
			C273.4,693.7,270,697.9,265.6,698z"/>
		<path class="st0" d="M648.3,707.8c0,4.7-2.4,6-5,5.8c-4.7-0.4-9.1-2.1-11.7-6.1c-1-1.6-1.3-4.6-0.5-6.2c0.6-1.2,3.7-1.8,5.5-1.4
			c2.9,0.7,5.9,2,8.4,3.7C646.6,704.7,647.6,706.9,648.3,707.8z"/>
		<path class="st0" d="M724.8,615.1c-4.8-0.2-10.1-5.4-9.8-9.6c0.1-2.8,2.7-5.1,5.8-5.1c4.7,0.1,10.8,5.3,10.5,9
			C731,612.4,727.8,615.3,724.8,615.1z"/>
		<path class="st0" d="M718.4,509.7c-4.1,0-7.5-3.5-7.5-7.8c0-3.8,3.3-7.3,6.7-7.2c3.9,0.1,8.4,4.4,8.3,8S722.2,509.7,718.4,509.7z"
			/>
		<path class="st0" d="M679.7,227.5c1.1-1.3,2-2.2,2.8-3.2c5.5-6.2,7.2-13.3,5-21.3c-0.3-1,0.1-2.1,0.1-3.2c1.1,0.5,2.5,0.6,3.2,1.5
			c5.7,6.5,5.2,17.1-1,23C687.2,226.9,684.2,228.6,679.7,227.5z"/>
		<path class="st0" d="M738.8,394.3c0.1,3.9-4,8-8,8.1c-3.9,0.1-7-2.8-7-6.7c-0.1-3.9,4-8.5,7.6-8.7
			C734.8,386.9,738.7,390.8,738.8,394.3z"/>
		<path class="st0" d="M290.5,273.4c-8.4,7.3-16.3,14.2-24.4,21.2C264.4,284,280.2,269.8,290.5,273.4z"/>
		<path class="st0" d="M755.3,285.6c-0.1,4.3-3.7,8-7.5,7.8c-3.6-0.2-6.3-3.4-6.3-7.5c0-4,3.5-8.3,6.8-8.3
			C751.6,277.5,755.3,281.8,755.3,285.6z"/>
		<path class="st0" d="M757.1,175.6c0.1,3.7-2.2,6.4-5.2,6.4c-3.9,0-8-4.8-8.1-9.5c-0.1-3.8,1.8-6.8,4.6-6.9
			C752.3,165.4,757,170.8,757.1,175.6z"/>
		<path class="st0" d="M54.1,666.3c-5.1-0.1-9-3.2-8.8-6.9c0.1-2.6,4.1-5.6,7.4-5.6c4.3,0.1,8.9,3.9,8.8,7.2
			C61.3,664.2,58.3,666.4,54.1,666.3z"/>
		<path class="st0" d="M337.5,56.5c-0.6,0.9-1.6,3.7-3.3,4.4c-1.4,0.6-3.9-1.3-5.9-2.1c-0.3-0.1-0.5-0.6-0.8-0.9
			c-2.3-3.2-2.8-8-0.8-10.6c0.7-0.9,2.6-1.6,3.6-1.3C333.9,46.9,337.3,51.5,337.5,56.5z"/>
		<path class="st0" d="M175,333.6c-3.7,0-5.4-2.3-4.4-5.8c1-3.4,6.8-7.5,10.3-7.3c2.9,0.1,4.7,3.5,3.5,6.6
			C183.1,330.4,178.6,333.5,175,333.6z"/>
		<path class="st0" d="M231.3,218c-0.6-0.9-2.5-2.4-2.8-4.2c-0.6-3.9,4-8.8,7.9-9.2c2.8-0.2,4.9,2.4,4.8,5.7
			C241.1,213.9,236.4,218.2,231.3,218z"/>
		<path class="st0" d="M507.2,79.4c-0.6,0.8-1.3,2.9-2.6,3.5c-1.2,0.5-3.8-0.2-4.5-1.3c-1.9-2.8-3.4-5.9-4.4-9.1
			c-0.4-1.1,0.8-3.2,1.9-4c0.8-0.6,2.9,0,4,0.7C504.7,71.3,506.9,74.3,507.2,79.4z"/>
		<path class="st0" d="M422.7,68.7c-0.5,0.8-1.3,3.2-2.7,3.7s-4.3-0.5-5.1-1.8c-1.7-3-3.1-6.4-3.5-9.8c-0.3-2.5,1.9-4.2,4.7-2.8
			C419.9,60,422.3,63,422.7,68.7z"/>
		<path class="st0" d="M258.5,93.2c0.1-3.5,2.4-7.2,4.5-7.3c2.8,0,6.5,4.6,6.5,8.2c0,3.5-2.5,6.2-5.4,6.2
			C260.8,100.2,258.5,97.2,258.5,93.2z"/>
		<path class="st0" d="M237.5,588.3c8.3,3.8,15.6,7.1,23.2,10.6C253.2,603.8,241,598.5,237.5,588.3z"/>
		<path class="st0" d="M441.7,160.8c1.5-5.2,3.6-10.1,9-12.8c3.2-1.6,6.2-1,9.6,1.7c-6.1,4.1-11.9,7.9-17.7,11.8
			C442.3,161.2,442,161,441.7,160.8z"/>
		<path class="st0" d="M591.1,88.2c-0.1,4.1-2,5.4-5,4.5c-3.2-1-6.5-5.8-6.1-9c0.3-3,2.8-4.8,5.2-3.5
			C588.5,82.2,590.8,85,591.1,88.2z"/>
		<path class="st0" d="M675.9,99.2c-0.9,3.2-2,4.6-4.6,4.4c-4.1-0.2-8.4-6-7.3-10c0.7-2.4,2.6-4.2,4.7-2.5
			C671.5,93.4,673.6,96.5,675.9,99.2z"/>
		<path class="st0" d="M473.3,715.3c1.6,0.8,4.5,2,6.8,3.8c1,0.8,1.6,3.7,0.9,4.7c-0.7,1.1-3.6,2-4.6,1.4c-2.6-1.6-5.1-3.8-6.9-6.3
			C468,716.7,469.3,715,473.3,715.3z"/>
		<path class="st0" d="M598.3,720.2c2.7,1.5,5.7,2.9,8.1,4.8c0.8,0.7,1.2,3.2,0.6,4.2c-0.6,1-3.2,1.8-4,1.3
			c-2.7-1.8-5.4-3.8-7.4-6.4C594,722,595.1,720.7,598.3,720.2z"/>
		<path class="st0" d="M750.2,439.3c0,2.9-3.4,6.7-5.6,6.4c-3.3-0.4-3.8-3.2-3.8-5.8s0.6-5.4,4.1-5.2
			C748,434.8,749.9,436.6,750.2,439.3z"/>
		<path class="st0" d="M757.5,331.8c0.3-2.6,0.4-5.4,3.9-5.6c2.6-0.2,5.1,2.5,5.1,5.2s-3,6.4-5.4,6.1
			C757.7,337.2,757.8,334.3,757.5,331.8z"/>
		<path class="st0" d="M194.6,572.8c-7.8,4.4-17.8,1.9-22.4-5.8C179.9,569,187,570.8,194.6,572.8z"/>
		<path class="st0" d="M734,545.2c0-2.3,0.6-3.9,3.3-3.9c3.2,0,6.5,2.8,6.3,5.5c-0.3,2.9-2,4.7-4.9,4.8
			C736,551.7,734,548.8,734,545.2z"/>
		<path class="st0" d="M775.2,222c-1.6,1.7-3,3.9-5,4.8s-4.5-3-4.5-6.9c0-2.2,0.1-4.6,3.1-4.7C771.7,215.2,774.3,218.3,775.2,222z"
			/>
		<path class="st0" d="M215.1,705.9c5.6-0.1,9.2,2.3,9.3,5.3c0.1,2.5-1.4,3.6-3.8,3.5c-3.3,0-8.2-3.7-7.8-6.2
			C212.9,707.3,214.7,706.3,215.1,705.9z"/>
		<path class="st0" d="M83.7,699.6c2.6,1.1,5,1.7,7,2.9c2.8,1.8,2.3,5.7-0.9,6.5c-1.7,0.4-4.4-0.2-5.8-1.4c-1.6-1.3-2.3-3.7-3.1-5.7
			C80.8,701.5,82.6,700.5,83.7,699.6z"/>
		<path class="st0" d="M346.9,710.6c2.1,1.4,4.5,2.8,6.5,4.6c0.6,0.6,0.6,2.7,0,3.5s-2.4,1.6-3.3,1.3c-2.2-0.8-4.3-2-6.1-3.5
			c-0.9-0.8-1.4-2.7-1.1-3.8C343.2,711.8,345.1,711.4,346.9,710.6z"/>
		<path class="st0" d="M123.7,437.6c-6.1,2.1-10.9,3.7-15.7,5.4c0.4-5.4,6.8-10.3,11.6-9C120.8,434.4,121.8,436,123.7,437.6z"/>
		<path class="st0" d="M754.2,646.6c4.4,0,8,2.7,7.5,5.3c-0.2,1.1-1.7,2.5-2.8,2.7c-2.5,0.5-7.1-3.5-6.6-5.7
			C752.5,647.7,753.9,646.9,754.2,646.6z"/>
		<path class="st0" d="M28.9,610.4c2.3,2.4,3.7,3.8,5.1,5.3c-1.7,1.4-3.3,3.8-5.1,4c-1.5,0.1-3.3-2.3-5-3.5
			C25.3,614.5,26.7,612.9,28.9,610.4z"/>
		<path class="st0" d="M549.8,102.3c0.1-3,0.9-5.3,3.9-5.9c3.1-0.6,6.6,2.2,8.5,6.8C558.2,102.8,554.2,102.6,549.8,102.3z"/>
		<path class="st0" d="M120.2,390.2c0.4,0.5,1.8,1.5,2.1,2.7c0.4,2.3-3.8,5.7-6.5,5.2c-1.2-0.2-2.7-1.7-3-2.9
			C112.3,393.1,116.2,390.2,120.2,390.2z"/>
		<path class="st0" d="M179.6,283.7c-0.4-0.6-1.5-1.5-1.7-2.7c-0.4-2.2,3.3-5.5,5.7-5.1c1.1,0.2,2.5,1.6,2.7,2.6
			C186.8,280.7,183.2,283.7,179.6,283.7z"/>
		<path class="st0" d="M237.9,161.5c-2.7,2.1-4.3,3.6-6.2,4.6c-0.4,0.2-3-2.5-2.8-2.8c1.1-1.9,2.6-3.7,4.3-5
			C233.5,157.9,235.6,159.8,237.9,161.5z"/>
		<path class="st0" d="M365,34.7c-1.8,1.8-2.8,2.7-3.7,3.7c-1.6-1.9-3.4-3.8-4.7-5.9c-0.2-0.4,1.2-1.9,1.9-2.8
			C360.4,31.2,362.4,32.7,365,34.7z"/>
		<path class="st0" d="M270.4,21.6c2.1-1.5,3.8-3,3.9-2.8c1.7,1.6,3.4,3.3,4.6,5.3c0.3,0.5-1.4,2.1-2.2,3.2
			C274.9,25.7,273.1,24,270.4,21.6z"/>
		<path class="st0" d="M444.9,50.5c-1.3-2.3-2.7-4.5-3.7-6.8c-0.1-0.3,1.5-1.5,2.4-2.2c1.5,2,3.2,3.8,4.5,5.9c0.3,0.5-1.1,1.9-1.7,3
			C445.9,50.4,445.4,50.5,444.9,50.5z"/>
		<path class="st0" d="M533.7,58.4c-1.9,1.5-3.6,2.9-3.6,2.8c-1.8-1.9-3.4-4-4.9-6.1c-0.1-0.2,1.8-2.2,1.9-2.1
			C529.1,54.5,531,56.2,533.7,58.4z"/>
		<path class="st0" d="M616.6,68.8c-1.8,1.6-3.4,3-3.5,3c-1.8-1.8-3.5-3.6-4.9-5.6c-0.2-0.3,1-1.7,1.6-2.6
			C611.8,65.1,613.8,66.7,616.6,68.8z"/>
		<path class="st0" d="M699.1,79.6c-1.7,1.5-3.1,2.8-3.1,2.7c-1.8-1.8-3.5-3.6-5-5.6c-0.1-0.2,1.5-2.1,1.6-2.1
			C694.6,76.1,696.5,77.6,699.1,79.6z"/>
		<path class="st0" d="M245.7,46.6c-2.3-1.7-4.6-3.5-2.8-6.8c0.3-0.5,2.6-0.6,3.3,0C248.8,42,248.3,44.4,245.7,46.6z"/>
		<path class="st0" d="M431.6,737.5c3.3-1.6,5.5-0.3,7.1,2.1c0.2,0.4-0.7,2.3-1.2,2.3C434.7,742,432.4,740.9,431.6,737.5z"/>
		<path class="st0" d="M567,745.9c-3.5,1.4-5.2,0.6-6.7-3.2C563.6,741.4,565.3,742.1,567,745.9z"/>
		<path class="st0" d="M765.3,483.9c-2.1,1.2-3.3,2.5-4.2,2.3c-1-0.2-2.4-1.8-2.4-2.8c0-0.8,1.7-2.3,2.6-2.4
			C762.3,481,763.4,482.4,765.3,483.9z"/>
		<path class="st0" d="M780.4,151.1c1.5,2.4,2.7,3.8,3.3,5.4c0.2,0.5-1.2,1.5-1.9,2.3c-1-1.4-2.2-2.7-3-4.2
			C778.5,154,779.4,152.9,780.4,151.1z"/>
		<path class="st0" d="M764.7,592.7c-1.5-1.8-2.5-3-3.5-4.2c0.8-0.6,2-2,2.5-1.7c1.3,0.6,2.4,1.7,3.2,2.8
			C767,589.9,765.7,591.2,764.7,592.7z"/>
		<path class="st0" d="M773.9,372.7c1.3,1.9,2.9,3.3,2.6,4c-0.4,1.2-1.9,2-3,3c-0.8-1-2.2-2-2.3-3
			C771.2,375.7,772.5,374.6,773.9,372.7z"/>
		<path class="st0" d="M786.2,262.8c1.5,2.2,2.8,3.3,2.7,4.3c-0.1,1.2-1.4,2.3-2.2,3.4c-0.8-1-2.2-1.9-2.4-3
			C784.2,266.5,785.2,265.2,786.2,262.8z"/>
		<path class="st0" d="M172.9,726.5c1.5,1.3,2.6,2.3,3.7,3.3c-0.9,0.6-2,1.9-2.7,1.7c-1.2-0.4-2.2-1.6-3.2-2.5
			C171.3,728.3,171.9,727.6,172.9,726.5z"/>
		<path class="st0" d="M15.9,571c-1.3,0.7-2.5,1.7-3.8,2c-0.6,0.1-1.4-1-2.2-1.6c1-0.9,1.8-2.1,3-2.6c0.7-0.3,1.9,0.6,2.9,1
			C15.8,570.2,15.9,570.6,15.9,571z"/>
		<path class="st0" d="M62.6,459.5c-2.2,1.1-3.5,2-5,2.5c-0.3,0.1-1.1-1-1.6-1.6c1.3-1,2.5-2.1,3.9-2.8
			C60.1,457.4,61.1,458.4,62.6,459.5z"/>
		<path class="st0" d="M7,679.6c-2.1,1.3-3.1,2.4-4.1,2.3c-1-0.1-1.9-1.3-2.9-2c0.7-0.7,1.5-2,2.2-2.1C3.5,677.8,4.7,678.7,7,679.6z
			"/>
		<path class="st0" d="M483,135.6c1.1-3.8,3.4-6,7.6-5C488.1,132.2,485.6,133.9,483,135.6z"/>
		<path class="st0" d="M304.3,731.3c1.3,1.2,2.3,2.1,3.2,3c-0.6,0.5-1.5,1.6-1.8,1.5c-1.2-0.5-2.2-1.4-3.3-2.2
			C302.9,733,303.4,732.4,304.3,731.3z"/>
		<path class="st0" d="M301.2,0c0.9,1.5,1.8,3,2.7,4.5c-0.6,0.4-1.2,0.7-1.8,1.1c-0.9-1.5-1.8-3-2.7-4.5C300,0.7,300.6,0.3,301.2,0z
			"/>
	</g>
	<g>
		<g>
			<path class="st1" d="M2402.6,321.5c-1-0.2-1.9-0.5-2.9-0.5c-70.7,0-141.3,0-212,0c-1.6,0-3.2,0.2-4.9,0.4c-0.3,0-0.6,0.1-0.9,0.2
				c-0.3,0.2-0.5,0.4-0.9,0.8l-3.2,19.6h87.2c-3,11.2-5.7,21.8-8.6,32.3c-3,10.9-6.2,21.8-9.2,32.7c-3,10.6-5.9,21.2-8.7,31.9
				c-2.9,10.7-6.6,21.3-8.6,32.7h46.8c12.6-43.3,25.1-86.4,37.8-130h83.5c2.4-6.8,4.9-12.8,6.1-19.2
				C2403.1,321.7,2402.9,321.5,2402.6,321.5z"/>
			<path class="st1" d="M1076.4,405.2c9.2,23,28.2,65.3,28.2,65.3l-47.9,0.6c0,0-10.6-23.9-15.9-36c-3.7-8.3-7.6-16.5-10.9-24.9
				c-1.7-4.4-4.4-5.6-8.9-5.6c-24.6,0.2-49.3,0-73.9,0.1c-5.8,0-5.9,0.1-7.5,5.4c-3.3,10.5-16.6,60.5-16.6,60.5l-48.7,0.3
				c0,0,33.7-125.5,37.8-140.4c0.9-3.1,1.4-6.3,3.2-8.9c3.3-1.3,6.5-0.8,9.7-0.8c46.3,0,92.7-1,139,0.1c52.9,1.2,75.9-0.1,69.8,27.4
				c-2.1,9.5-6.4,27.7-8.2,37.9c-1.7,9.5-7.7,14.8-16.5,16.9c-5.3,1.3-10.8,2.3-16.3,2.1C1088,405.1,1083.1,405.2,1076.4,405.2z
				 M946.7,383c2.2,0.5,2.8,0.7,3.4,0.7c36,0,71.9,0.1,107.9,0c2.9,0,5.8-0.7,8.6-1.3c6.3-1.3,10.3-5.1,12-11.3
				c1.7-6.5,3.6-10.2,4.9-19.3c1.4-9.9-16.1-10.3-28-10.3c-29.8,0-59.6,0-89.4,0c-1.9,0-3.9-0.4-6.1,1.3
				C955.7,355.7,950.5,368.9,946.7,383z"/>
			<path class="st1" d="M1645,321.2l-10,20c0,0-6.4,0.2-9.9,0.2c-44.4,0-88.8,0.1-133.2,0c-6.9,0-13.5,0.9-19.9,3.6
				c-5.4,2.3-8.8,5.9-10.5,11.7c-8,27.7-16.3,55.2-24.5,82.8c-0.3,0.9-0.7,1.8-0.9,2.8c-1,4.5,0.3,6.9,4.8,7.8
				c4.4,0.9,9,1.6,13.5,1.6c29.8,0.2,59.6,0.2,89.4,0.2c2.6,0,5.2-0.4,7.7-0.6c8.4-0.8,13.3-5.1,15.5-13.5
				c2.8-10.6,10.3-31.9,10.3-31.9l-52-0.7l4.8-20.4l100.9,0.4c0,0-11.5,44.2-15.4,60.6c-1.8,7.6-6.4,12.5-12.8,16.2
				c-7.1,4.2-15,6.2-22.9,7.5c-8.6,1.4-17.3,2.4-26.1,2.4c-36-0.1-71.9,0-107.9-0.1c-12.7,0-25.2-1.6-37.2-5.7
				c-4.3-1.5-8.4-3.5-12-6.3c-8-6.2-10.3-13.1-7.6-23c7.3-26.8,14.9-53.6,22-80.5c2.7-10.1,8.8-17.2,17.2-22.6
				c10.5-6.8,22.1-10.8,34.6-11.5c11-0.6,22-1.2,33-1.2C1541.9,320.8,1645,321.2,1645,321.2z"/>
			<path class="st1" d="M1389,325.2c-2.6,6.7-7,16-7,16s-6.6,0.2-10.1,0.2c-44.1,0-88.2,0.1-132.2,0c-5.9,0-11.7,0.3-17.3,2.2
				c-7.1,2.4-12.2,6.3-14.5,14.2c-2.7,9-5.3,16.5-8.3,25.4c11.5,1.3,22.1,0.5,32.7,0.6c10.4,0.1,20.7,0,31.1,0c10.7,0,21.4,0,32.1,0
				c10.3,0,31.4,0,31.4,0l-4.9,20.8c0,0-7,0.1-10.4,0.1c-35.3,0.1-70.7,0-106,0c-3.5,0-7,0-9.5,0c-2.3,1.9-2.8,3.4-3.3,5
				c-3,10.2-6.1,20.5-9.1,30.7c-2,7-0.5,9.5,6.8,10.8c3.1,0.6,6.4,0.5,9.7,0.5c50.9,0,101.8,0,152.7,0c3.2,0,10.4,0,10.4,0
				s-5.4,12.9-7.7,18.5c-2.8,2.1-5.5,1.4-8,1.4c-50.6,0-101.1,0-151.7,0c-11.7,0-23.3-1.1-34.6-4c-6.3-1.6-12.3-4.1-17.5-8.1
				c-8-6.1-10.4-13.1-7.7-22.9c7.4-27.2,14.9-54.3,22.2-81.5c2.6-9.8,9-16.4,17-21.6c10.8-7,22.7-11.1,35.6-11.7
				c11-0.5,22-1.1,33-1.1c45.4-0.1,90.8-0.1,136.1,0C1383,320.9,1390.8,320.7,1389,325.2z"/>
			<path class="st1" d="M1895.8,325.2c-2.6,6.7-7,16-7,16s-6.6,0.2-10.1,0.2c-44.1,0-88.2,0.1-132.2,0c-5.9,0-11.7,0.3-17.3,2.2
				c-7.1,2.4-12.2,6.3-14.5,14.2c-2.7,9-5.3,16.5-8.3,25.4c11.5,1.3,22.1,0.5,32.7,0.6c10.4,0.1,20.7,0,31.1,0c10.7,0,21.4,0,32.1,0
				c10.3,0,31.4,0,31.4,0l-4.9,20.8c0,0-7,0.1-10.4,0.1c-35.3,0.1-70.7,0-106,0c-3.5,0-7,0-9.5,0c-2.3,1.9-2.8,3.4-3.3,5
				c-3,10.2-6.1,20.5-9.1,30.7c-2,7-0.5,9.5,6.8,10.8c3.1,0.6,6.4,0.5,9.7,0.5c50.9,0,101.8,0,152.7,0c3.2,0,10.4,0,10.4,0
				s-5.4,12.9-7.7,18.5c-2.8,2.1-5.5,1.4-8,1.4c-50.6,0-101.1,0-151.7,0c-11.7,0-23.3-1.1-34.6-4c-6.3-1.6-12.3-4.1-17.5-8.1
				c-8-6.1-10.4-13.1-7.7-22.9c7.4-27.2,14.9-54.3,22.2-81.5c2.6-9.8,9-16.4,17-21.6c10.8-7,22.7-11.1,35.6-11.7
				c11-0.5,22-1.1,33-1.1c45.4-0.1,90.8-0.1,136.1,0C1889.8,320.9,1897.6,320.7,1895.8,325.2z"/>
			<path class="st1" d="M2114.3,471.2l-50.7-0.5c0,0,3.7-13.7,5.6-20.5c7.5-27.1,15.1-54.2,22.6-81.3c2.7-9.8,0.4-13.4-9.4-16.3
				c-3.8-1.1-7.6-1.5-11.5-1.5c-32.7,0-65.4,0-98.2,0c-0.6,0-1.3,0.2-2.9,0.6c-12,39.3-34.2,118.9-34.2,118.9l-50.7,0.4
				c0,0,27.7-99.6,42.4-148.6c3.9-1.7,7.2-1.1,10.4-1.1c52.8,0,105.6,0,158.4-0.1c8.5,0,16.7,1.1,24.7,4.4c7.7,3.1,14.1,7.9,19,14.6
				c4.2,5.7,5.9,11.5,3.8,19c-6.5,23-12.2,46.3-18.2,69.5C2121.8,442.7,2114.3,471.2,2114.3,471.2z"/>
		</g>
		<g>
			<path class="st2" d="M1896.3,592.9c0-2.5,0-4.5,0.1-6.1s0.3-3.2,0.5-4.9c-3.1,3.6-6.6,6.5-10.6,8.9s-8,3.6-12,3.6
				c-6.8,0-11.9-2.2-15.1-6.7c-3.3-4.4-4.2-10.4-2.7-17.8c1.5-8.3,5.2-14.5,11.2-18.6s13.7-6.2,23.2-6.2h12.8l1.5-8
				c0.9-5.1,0.4-8.9-1.5-11.5s-5.2-4-9.7-4c-3.9,0-7.4,1.2-10.5,3.7s-5,5.4-5.6,8.7h-12.7l-0.1-0.5c0.9-6.3,4.4-11.8,10.4-16.5
				s13.2-7.1,21.5-7.1c7.4,0,13.3,2.4,17.6,7.2c4.3,4.8,5.7,11.5,4.1,20.1l-7.2,39.2c-0.6,3.1-1,5.9-1.2,8.5s-0.2,5.2,0,7.9
				L1896.3,592.9L1896.3,592.9z M1878.6,582.1c3.7,0,7.5-1.2,11.4-3.5c3.9-2.4,6.9-5.1,9-8.4l2.8-15h-13.2c-4.6,0-8.7,1.5-12.3,4.6
				c-3.6,3.1-5.8,6.6-6.5,10.5s-0.4,6.8,1,8.8C1872.2,581.1,1874.8,582.1,1878.6,582.1z"/>
			<path class="st2" d="M1933.5,592.9h-13.4l15-81.4h13.4L1933.5,592.9z M1952.3,490.7H1939l2.8-15.1h13.4L1952.3,490.7z"/>
			<path class="st2" d="M1992,524.6l-7.3-0.5c-3,0-5.8,0.9-8.4,2.8c-2.6,1.9-4.8,4.5-6.7,7.9l-10.7,58h-13.4l15-81.4h12l-0.8,10.9
				c2.6-4,5.5-7,8.8-9.2s6.7-3.2,10.5-3.2c0.9,0,1.9,0.1,3,0.3s1.9,0.4,2.4,0.6L1992,524.6z"/>
			<path class="st2" d="M2016.4,563.3l-0.3,8.7l0.4,0.1l3.2-8.8l23.3-51.8h10.7l4.4,51.8l-0.1,10.1l0.4,0.1l3.6-10.2l20.1-51.8h13.3
				l-35.2,81.4h-10.7l-4-49.6l-0.4-13.2l-0.4-0.1l-5.2,13.3l-22.2,49.6h-10.7l-5.3-81.4h13.3L2016.4,563.3z"/>
			<path class="st2" d="M2124,592.9c0-2.5,0-4.5,0.1-6.1s0.3-3.2,0.5-4.9c-3.1,3.6-6.6,6.5-10.6,8.9s-8,3.6-12,3.6
				c-6.8,0-11.9-2.2-15.1-6.7c-3.3-4.4-4.2-10.4-2.7-17.8c1.5-8.3,5.2-14.5,11.2-18.6s13.7-6.2,23.2-6.2h12.8l1.5-8
				c0.9-5.1,0.4-8.9-1.5-11.5s-5.2-4-9.7-4c-3.9,0-7.4,1.2-10.5,3.7s-5,5.4-5.6,8.7h-12.7l-0.1-0.5c0.9-6.3,4.4-11.8,10.4-16.5
				s13.2-7.1,21.5-7.1c7.4,0,13.3,2.4,17.6,7.2s5.7,11.5,4.1,20.1l-7.2,39.2c-0.6,3.1-1,5.9-1.2,8.5s-0.2,5.2,0,7.9L2124,592.9
				L2124,592.9z M2106.2,582.1c3.7,0,7.5-1.2,11.4-3.5c3.9-2.4,6.9-5.1,9-8.4l2.8-15h-13.2c-4.6,0-8.7,1.5-12.3,4.6
				s-5.8,6.6-6.5,10.5s-0.4,6.8,1,8.8C2099.8,581.1,2102.4,582.1,2106.2,582.1z"/>
			<path class="st2" d="M2169.8,562.8l0.3,9.3l0.4,0.1l27.8-60.6h14.9l-46.4,93.9c-2.9,5.5-6.3,10.2-10.4,14.3
				c-4.1,4.1-8.9,6.1-14.4,6.1c-1,0-2.3-0.1-3.9-0.4c-1.6-0.3-2.9-0.5-3.7-0.8l3.5-11.7c-0.6-0.1,0,0,2,0.1c2,0.2,3.2,0.2,3.7,0.2
				c2.4,0,4.8-1.5,7.2-4.5s4.4-6,5.8-9l4.6-8.5l-11.1-79.8h15L2169.8,562.8z"/>
			<path class="st2" d="M2246.6,571.3c0.5-3.4-0.1-6.1-1.9-8.1c-1.8-2.1-5.4-3.9-10.9-5.4c-8.2-2.2-14.2-5.1-18-8.8s-5.2-8.7-4.3-15
				c1-6.9,4.3-12.6,9.8-17.1s12.2-6.8,20-6.8s13.9,2.5,18.1,7.4c4.2,4.9,5.8,10.8,4.6,17.7l-0.2,0.5H2251c0.6-3.7-0.2-6.9-2.2-9.7
				s-5.1-4.2-9.1-4.2c-4.2,0-7.5,1.2-10.1,3.5s-4.1,5.1-4.6,8.3c-0.5,3.4,0,5.9,1.6,7.7s5.2,3.4,10.8,4.9c8.5,2.2,14.7,5.2,18.4,9
				s5.1,8.9,4.2,15.2c-1.1,7.5-4.5,13.4-10.1,17.7s-12.6,6.5-20.8,6.5c-8.6,0-15.1-2.7-19.7-8c-4.5-5.3-6.1-11.4-4.8-18.4l0.1-0.5
				h12.8c-0.6,5.2,0.4,9.1,3.1,11.5c2.7,2.4,6,3.6,10.1,3.6c4.2,0,7.7-1.1,10.6-3.2C2244.4,577.5,2246.1,574.7,2246.6,571.3z"/>
		</g>
		<g>
			<path class="st2" d="M1421.3,718.5c-6.4,0-11.5-2-15.2-5.9s-5.6-9.3-5.6-16.3s1.7-12.6,5.2-16.7c3.4-4.1,8.1-6.2,13.9-6.2
				c5.4,0,9.7,1.8,12.9,5.4c3.2,3.6,4.8,8.3,4.8,14.2v4.2h-29.9c0.1,5.1,1.4,9,3.9,11.6c2.4,2.6,5.9,4,10.3,4c4.7,0,9.3-1,13.9-2.9
				v5.9c-2.3,1-4.5,1.7-6.6,2.2C1426.7,718.3,1424.2,718.5,1421.3,718.5z M1419.5,679.1c-3.5,0-6.3,1.1-8.3,3.4
				c-2.1,2.3-3.3,5.4-3.7,9.4h22.7c0-4.1-0.9-7.3-2.8-9.5C1425.6,680.2,1423,679.1,1419.5,679.1z"/>
			<path class="st2" d="M1458,717.7l-16.5-43.4h7l9.3,25.7c2.1,6,3.4,9.9,3.7,11.7h0.3c0.3-1.4,1.2-4.3,2.8-8.7
				c1.5-4.4,5-14,10.4-28.8h7l-16.5,43.4L1458,717.7L1458,717.7z"/>
			<path class="st2" d="M1507.4,718.5c-6.4,0-11.5-2-15.2-5.9s-5.6-9.3-5.6-16.3s1.7-12.6,5.2-16.7c3.4-4.1,8.1-6.2,13.9-6.2
				c5.4,0,9.7,1.8,12.9,5.4c3.2,3.6,4.8,8.3,4.8,14.2v4.2h-29.9c0.1,5.1,1.4,9,3.9,11.6c2.4,2.6,5.9,4,10.3,4c4.7,0,9.3-1,13.9-2.9
				v5.9c-2.3,1-4.5,1.7-6.6,2.2C1512.9,718.3,1510.4,718.5,1507.4,718.5z M1505.6,679.1c-3.5,0-6.3,1.1-8.3,3.4
				c-2.1,2.3-3.3,5.4-3.7,9.4h22.7c0-4.1-0.9-7.3-2.8-9.5C1511.7,680.2,1509.1,679.1,1505.6,679.1z"/>
			<path class="st2" d="M1554.4,673.6c1.9,0,3.7,0.2,5.2,0.5l-0.9,6.1c-1.8-0.4-3.4-0.6-4.8-0.6c-3.5,0-6.5,1.4-9,4.3
				c-2.5,2.9-3.7,6.4-3.7,10.7v23.3h-6.6v-43.4h5.4l0.8,8h0.3c1.6-2.8,3.6-5,5.8-6.5C1549.2,674.3,1551.7,673.6,1554.4,673.6z"/>
			<path class="st2" d="M1560.8,674.3h7l9.5,24.7c2.1,5.7,3.4,9.7,3.9,12.2h0.3c0.3-1.3,1.1-3.6,2.2-6.9c1.1-3.3,4.7-13.3,10.8-30.1
				h7l-18.7,49.4c-1.8,4.9-4,8.3-6.5,10.4c-2.5,2-5.5,3.1-9.1,3.1c-2,0-4-0.2-5.9-0.7v-5.3c1.5,0.3,3.1,0.5,4.9,0.5
				c4.5,0,7.7-2.5,9.7-7.6l2.4-6.2L1560.8,674.3z"/>
			<path class="st2" d="M1636.2,717.7h-6.6v-61.6h6.6V717.7z"/>
			<path class="st2" d="M1649.6,662.6c0-1.5,0.4-2.6,1.1-3.3s1.7-1,2.8-1c1.1,0,2,0.4,2.7,1.1c0.8,0.7,1.1,1.8,1.1,3.3
				s-0.4,2.6-1.1,3.3c-0.8,0.7-1.7,1.1-2.7,1.1c-1.1,0-2-0.4-2.8-1.1C1650,665.2,1649.6,664.1,1649.6,662.6z M1656.7,717.7h-6.6
				v-43.4h6.6V717.7z"/>
			<path class="st2" d="M1684.7,713.1c1.2,0,2.3-0.1,3.4-0.3s1.9-0.3,2.6-0.5v5c-0.7,0.3-1.8,0.6-3.1,0.9c-1.4,0.2-2.6,0.3-3.7,0.3
				c-8.4,0-12.6-4.4-12.6-13.3v-25.8h-6.2v-3.2l6.2-2.7l2.8-9.3h3.8v10.1h12.6v5.1h-12.6v25.5c0,2.6,0.6,4.6,1.9,6
				C1680.8,712.4,1682.5,713.1,1684.7,713.1z"/>
			<path class="st2" d="M1713.3,713.1c1.2,0,2.3-0.1,3.4-0.3s1.9-0.3,2.6-0.5v5c-0.7,0.3-1.8,0.6-3.1,0.9c-1.4,0.2-2.6,0.3-3.7,0.3
				c-8.4,0-12.6-4.4-12.6-13.3v-25.8h-6.2v-3.2l6.2-2.7l2.8-9.3h3.8v10.1h12.6v5.1h-12.6v25.5c0,2.6,0.6,4.6,1.9,6
				C1709.4,712.4,1711.1,713.1,1713.3,713.1z"/>
			<path class="st2" d="M1734.5,717.7h-6.6v-61.6h6.6V717.7z"/>
			<path class="st2" d="M1766.8,718.5c-6.4,0-11.5-2-15.2-5.9s-5.6-9.3-5.6-16.3s1.7-12.6,5.2-16.7c3.4-4.1,8.1-6.2,13.9-6.2
				c5.4,0,9.7,1.8,12.9,5.4c3.2,3.6,4.8,8.3,4.8,14.2v4.2h-29.9c0.1,5.1,1.4,9,3.9,11.6c2.4,2.6,5.9,4,10.3,4c4.7,0,9.3-1,13.9-2.9
				v5.9c-2.3,1-4.5,1.7-6.6,2.2C1772.2,718.3,1769.7,718.5,1766.8,718.5z M1765,679.1c-3.5,0-6.3,1.1-8.3,3.4
				c-2.1,2.3-3.3,5.4-3.7,9.4h22.7c0-4.1-0.9-7.3-2.8-9.5C1771.1,680.2,1768.4,679.1,1765,679.1z"/>
			<path class="st2" d="M1829,713.1c1.2,0,2.3-0.1,3.4-0.3s1.9-0.3,2.6-0.5v5c-0.7,0.3-1.8,0.6-3.1,0.9c-1.4,0.2-2.6,0.3-3.7,0.3
				c-8.4,0-12.6-4.4-12.6-13.3v-25.8h-6.2v-3.2l6.2-2.7l2.8-9.3h3.8v10.1h12.6v5.1H1822v25.5c0,2.6,0.6,4.6,1.9,6
				C1825.1,712.4,1826.8,713.1,1829,713.1z"/>
			<path class="st2" d="M1873.3,717.7v-28.1c0-3.5-0.8-6.2-2.4-7.9s-4.1-2.6-7.6-2.6c-4.6,0-7.9,1.2-10,3.7s-3.1,6.5-3.1,12.2v22.7
				h-6.6v-61.6h6.6v18.7c0,2.2-0.1,4.1-0.3,5.6h0.4c1.3-2.1,3.1-3.7,5.5-4.9s5.1-1.8,8.2-1.8c5.3,0,9.3,1.3,11.9,3.8
				c2.7,2.5,4,6.5,4,12v28.3h-6.6V717.7z"/>
			<path class="st2" d="M1892.8,662.6c0-1.5,0.4-2.6,1.1-3.3s1.7-1,2.8-1c1.1,0,2,0.4,2.7,1.1c0.8,0.7,1.1,1.8,1.1,3.3
				s-0.4,2.6-1.1,3.3c-0.8,0.7-1.7,1.1-2.7,1.1c-1.1,0-2-0.4-2.8-1.1C1893.2,665.2,1892.8,664.1,1892.8,662.6z M1900,717.7h-6.6
				v-43.4h6.6V717.7z"/>
			<path class="st2" d="M1943.6,717.7v-28.1c0-3.5-0.8-6.2-2.4-7.9s-4.1-2.6-7.6-2.6c-4.5,0-7.9,1.2-10,3.7s-3.2,6.5-3.2,12.2v22.8
				h-6.6v-43.4h5.3l1.1,5.9h0.3c1.3-2.1,3.2-3.8,5.7-5c2.4-1.2,5.1-1.8,8.1-1.8c5.2,0,9.2,1.3,11.8,3.8s4,6.6,4,12.1v28.3H1943.6z"
				/>
			<path class="st2" d="M1999.2,674.3v4.2l-8,1c0.7,0.9,1.4,2.1,2,3.6s0.9,3.2,0.9,5c0,4.3-1.5,7.6-4.4,10.2
				c-2.9,2.5-6.9,3.8-12,3.8c-1.3,0-2.5-0.1-3.6-0.3c-2.8,1.5-4.2,3.3-4.2,5.6c0,1.2,0.5,2.1,1.5,2.6c1,0.6,2.7,0.9,5,0.9h7.7
				c4.7,0,8.3,1,10.8,3s3.8,4.9,3.8,8.6c0,4.8-1.9,8.5-5.8,11c-3.9,2.5-9.5,3.8-16.9,3.8c-5.7,0-10.1-1.1-13.1-3.2
				c-3.1-2.1-4.6-5.1-4.6-8.9c0-2.6,0.8-4.9,2.5-6.9c1.7-1.9,4.1-3.2,7.1-3.9c-1.1-0.5-2-1.3-2.8-2.3c-0.8-1.1-1.1-2.3-1.1-3.7
				c0-1.6,0.4-3,1.3-4.2c0.8-1.2,2.2-2.3,4-3.4c-2.2-0.9-4.1-2.5-5.5-4.7s-2.1-4.8-2.1-7.6c0-4.8,1.4-8.4,4.3-11
				c2.9-2.6,6.9-3.9,12.1-3.9c2.3,0,4.3,0.3,6.1,0.8L1999.2,674.3L1999.2,674.3z M1964.6,725c0,2.3,1,4.1,3,5.3s4.8,1.8,8.5,1.8
				c5.5,0,9.6-0.8,12.3-2.5c2.7-1.6,4-3.9,4-6.7c0-2.3-0.7-4-2.2-4.9s-4.2-1.4-8.2-1.4h-7.9c-3,0-5.3,0.7-7,2.1
				C1965.4,720.3,1964.6,722.4,1964.6,725z M1968.2,688.2c0,3,0.9,5.3,2.6,6.9c1.7,1.6,4.1,2.3,7.2,2.3c6.4,0,9.6-3.1,9.6-9.3
				c0-6.5-3.2-9.8-9.7-9.8c-3.1,0-5.5,0.8-7.1,2.5C1969,682.5,1968.2,685,1968.2,688.2z"/>
			<path class="st2" d="M2046.5,718.5c-6.3,0-11.1-1.9-14.6-5.8c-3.4-3.9-5.2-9.3-5.2-16.4c0-7.3,1.7-12.9,5.2-16.8
				c3.5-4,8.5-5.9,14.9-5.9c2.1,0,4.2,0.2,6.3,0.7c2.1,0.4,3.7,1,4.9,1.6l-2,5.6c-1.5-0.6-3-1.1-4.8-1.4c-1.7-0.4-3.2-0.6-4.6-0.6
				c-8.8,0-13.2,5.6-13.2,16.9c0,5.3,1.1,9.4,3.2,12.3c2.2,2.9,5.3,4.3,9.6,4.3c3.6,0,7.3-0.8,11.1-2.3v5.8
				C2054.6,717.8,2050.9,718.5,2046.5,718.5z"/>
			<path class="st2" d="M2105.3,696c0,7.1-1.8,12.6-5.3,16.6c-3.6,4-8.5,6-14.8,6c-3.9,0-7.3-0.9-10.3-2.7s-5.3-4.4-7-7.8
				c-1.6-3.4-2.5-7.4-2.5-12c0-7.1,1.8-12.6,5.3-16.5s8.4-5.9,14.7-5.9c6.1,0,10.9,2,14.5,6.1C2103.5,683.7,2105.3,689.1,2105.3,696
				z M2072.2,696c0,5.5,1.1,9.8,3.3,12.7s5.5,4.4,9.8,4.4s7.6-1.4,9.8-4.3c2.2-2.9,3.3-7.1,3.3-12.7c0-5.5-1.1-9.7-3.3-12.6
				c-2.2-2.9-5.5-4.3-9.9-4.3c-4.3,0-7.6,1.4-9.7,4.2C2073.3,686.2,2072.2,690.4,2072.2,696z"/>
			<path class="st2" d="M2123,674.3v28.2c0,3.5,0.8,6.2,2.4,7.9c1.6,1.7,4.1,2.6,7.6,2.6c4.5,0,7.9-1.2,10-3.7s3.1-6.5,3.1-12.2
				v-22.8h6.6v43.4h-5.4l-1-5.8h-0.4c-1.3,2.1-3.2,3.8-5.6,4.9c-2.4,1.1-5.1,1.7-8.2,1.7c-5.3,0-9.2-1.3-11.9-3.8
				c-2.6-2.5-3.9-6.5-3.9-12v-28.4L2123,674.3L2123,674.3z"/>
			<path class="st2" d="M2196.3,717.7v-28.1c0-3.5-0.8-6.2-2.4-7.9c-1.6-1.7-4.1-2.6-7.6-2.6c-4.5,0-7.9,1.2-10,3.7
				s-3.2,6.5-3.2,12.2v22.8h-6.6v-43.4h5.3l1.1,5.9h0.3c1.3-2.1,3.2-3.8,5.7-5c2.4-1.2,5.1-1.8,8.1-1.8c5.2,0,9.2,1.3,11.8,3.8
				s4,6.6,4,12.1v28.3H2196.3z"/>
			<path class="st2" d="M2230.4,713.1c1.2,0,2.3-0.1,3.4-0.3c1.1-0.2,1.9-0.3,2.6-0.5v5c-0.7,0.3-1.8,0.6-3.1,0.9
				c-1.4,0.2-2.6,0.3-3.7,0.3c-8.4,0-12.6-4.4-12.6-13.3v-25.8h-6.2v-3.2l6.2-2.7l2.8-9.3h3.8v10.1h12.6v5.1h-12.6v25.5
				c0,2.6,0.6,4.6,1.9,6C2226.5,712.4,2228.2,713.1,2230.4,713.1z"/>
			<path class="st2" d="M2273,705.9c0,4-1.5,7.2-4.5,9.3c-3,2.2-7.2,3.3-12.7,3.3c-5.8,0-10.2-0.9-13.5-2.7v-6.1
				c2.1,1.1,4.3,1.9,6.7,2.5s4.7,0.9,6.9,0.9c3.4,0,6.1-0.5,7.9-1.6c1.8-1.1,2.8-2.8,2.8-5c0-1.7-0.7-3.1-2.2-4.3s-4.3-2.6-8.6-4.3
				c-4-1.5-6.9-2.8-8.6-3.9c-1.7-1.1-3-2.4-3.8-3.8c-0.8-1.4-1.2-3.1-1.2-5.1c0-3.5,1.4-6.3,4.3-8.4c2.9-2,6.8-3.1,11.8-3.1
				c4.7,0,9.2,1,13.7,2.9l-2.3,5.3c-4.4-1.8-8.3-2.7-11.8-2.7c-3.1,0-5.5,0.5-7,1.5c-1.6,1-2.4,2.3-2.4,4c0,1.2,0.3,2.2,0.9,3
				s1.6,1.6,2.9,2.3c1.3,0.7,3.9,1.8,7.6,3.2c5.1,1.9,8.6,3.8,10.4,5.7C2272.1,700.6,2273,703,2273,705.9z"/>
		</g>
	</g>
</g>
</svg>
