<?xml version="1.0" encoding="utf-8"?>
<!-- Generator: Adobe Illustrator 22.1.0, SVG Export Plug-In . SVG Version: 6.00 Build 0)  -->
<svg version="1.1" id="Слой_1" xmlns="http://www.w3.org/2000/svg" xmlns:xlink="http://www.w3.org/1999/xlink" x="0px" y="0px"
	 viewBox="0 0 182.9 21.4" style="enable-background:new 0 0 182.9 21.4;" xml:space="preserve">
<style type="text/css">
	.st0{fill-rule:evenodd;clip-rule:evenodd;fill:#EEB74B;}
</style>
<g>
	<path class="st0" d="M13.1,2.1c-5.1,0-9.1,4-9.1,9c0,4.9,4,8.9,9,8.9c5,0,9-4,9-9C22,6.2,18,2.1,13.1,2.1L13.1,2.1z M12.9,3.1
		c4.6,0,8.1,3.6,8.1,8.1c0,4.4-3.6,8-8.1,8c-4.4,0-8-3.6-8-8C4.9,6.7,8.6,3.1,12.9,3.1L12.9,3.1z M7,9.1L6.8,9.6
		c-0.5-0.2-1-0.3-1.2-0.3L5.5,9.7c1,0.3,2.2,0.9,3.7,1.7c3.7,2.2,4.4,2.5,8.5,3.6l0.7-0.7c-0.3,0-0.4,0-0.5,0
		c-1.5,0-3.2-0.7-4.3-1.7c1.1-0.6,2.2-0.9,3.9-0.9c0.2,0,0.4,0,1,0l0.3-0.4c-0.5,0-0.7,0-1.1,0c-1,0-1.6,0-2.5,0.1l0.1-0.3
		c0.5-0.1,1.5-0.1,2.2-0.1c0.5,0,1.1,0,1.4,0l0.3-0.4c-0.5,0-1.3,0-1.9,0c-0.7,0-1.4,0-1.9,0.1l0.1-0.3c0.6,0,0.9,0,1.4,0
		c0.8,0,1.4,0,2.5,0.1L20,9.9c-0.6-0.1-1.4-0.1-2.4-0.1c-0.6,0-0.8,0-1.6,0l0.1-0.3c0.3,0,0.8,0,1.7,0c0.7,0,1.8,0.1,2.3,0.1
		l0.3-0.4C19.3,9.1,18.4,9,17.3,9c-1.3,0-2.3,0.1-3.1,0.2c-0.5,1.3-1.5,2.1-2.8,2.1c-0.7,0-1-0.1-2.2-0.7l-0.3-0.2l0.1-0.2
		c0.8,0.4,1.5,0.6,2,0.7l0.1-0.2L7,9.1L7,9.1z"/>
	<path class="st0" d="M34,10v7.1H42v-2.4H37V10H34L34,10z M42.6,10v3.6c0,1.4,0.1,1.7,0.4,2.4c0.5,0.9,1.5,1.4,2.7,1.4
		c1,0,1.8-0.3,2.5-1.1l0.1,0.8h2.6V10h-2.8v3.5c0,1.2-0.5,1.8-1.4,1.8c-0.9,0-1.2-0.5-1.2-1.8V10H42.6L42.6,10z M51.5,10v0.4h1.2
		v6.7h2.8v-6.7h1.7V10H51.5L51.5,10z M57.6,10v0.4h1.2v4.2c0,1.8,0.8,2.5,2.4,2.5h2.1v-2h-0.6c-1.1,0-1.2-0.1-1.2-1.3v-3.4h1.6V10
		H57.6L57.6,10z M64,10v7.1h2.8v-4.9c0-1.2,0.5-1.8,1.4-1.8c0.9,0,1.2,0.6,1.2,1.8v4.9h2.8v-5c0-1.2,0-1.6-0.3-2.1L64,10L64,10z
		 M73.7,10c-0.2,0.4-0.3,0.8-0.3,1.3H76c0-0.8,0.6-1.2,1.5-1.2c0.8,0,1.3,0.3,1.3,0.8c0,0.4-0.2,0.6-0.8,0.7
		c-1.4,0.3-2.2,0.4-2.5,0.5c-1.7,0.5-2.5,1.4-2.5,2.7c0,1.6,1.4,2.7,3.3,2.7c1.1,0,1.9-0.3,2.8-1.1l0.2,0.7h2.6
		c-0.2-0.4-0.2-0.4-0.2-1.2v-4.4c0-0.6-0.1-1.1-0.3-1.5L73.7,10L73.7,10z M82.5,10v7.1h2.8v-4.9c0-1.2,0.5-1.8,1.4-1.8
		c0.9,0,1.2,0.5,1.2,1.8v4.9h2.8v-5c0-1.2,0-1.6-0.3-2.1L82.5,10L82.5,10z M91.9,10c-0.2,0.3-0.2,0.7-0.2,1.1c0,1.4,0.9,2.1,2.9,2.5
		l0.9,0.1c1.1,0.2,1.6,0.5,1.6,1c0,0.5-0.5,0.8-1.3,0.8c-1,0-1.5-0.4-1.5-1.2v-0.1h-2.8c0,2.1,1.6,3.2,4.5,3.2c2.4,0,4-1.2,4-3
		c0-1.5-1-2.4-3-2.7l-1-0.2c-0.9-0.1-1.3-0.4-1.3-0.8c0-0.4,0.4-0.7,1.1-0.7c0.9,0,1.2,0.3,1.3,1.1h2.6c-0.1-0.7-0.1-0.9-0.2-1.2
		L91.9,10L91.9,10z M101.2,10c-0.2,0.4-0.3,0.8-0.3,1.3h2.6c0-0.7,0.6-1.2,1.5-1.2c0.7,0,1.2,0.3,1.2,0.8c0,0.4-0.3,0.6-0.8,0.7
		c-1.4,0.3-2.2,0.4-2.5,0.5c-1.7,0.5-2.5,1.4-2.5,2.7c0,1.6,1.4,2.7,3.3,2.7c1.2,0,1.8-0.2,2.8-1.1l0.1,0.7h2.6
		c-0.2-0.5-0.2-0.5-0.2-1.2v-4.4c0-0.6-0.1-1.1-0.3-1.5L101.2,10L101.2,10z M78.8,13.6c0,1.3-0.6,1.9-2,1.9c-0.7,0-1.1-0.3-1.1-0.9
		c0-0.6,0.4-0.9,1.4-1.1c0.4-0.1,0.7-0.1,1-0.2c0.3-0.1,0.4-0.1,0.8-0.2V13.6L78.8,13.6z M106.3,13.6c0,1.3-0.6,1.9-2,1.9
		c-0.7,0-1.2-0.3-1.2-0.9c0-0.6,0.4-0.9,1.4-1.1c0.4-0.1,0.7-0.2,1-0.2c0.3-0.1,0.4-0.1,0.8-0.2V13.6L106.3,13.6z"/>
	<path class="st0" d="M34,10h3V5.1h-3V10L34,10z M42.6,10h2.8V8.5h-2.8V10L42.6,10z M48.1,10h2.8V8.5h-2.8V10L48.1,10z M57.2,10V8.5
		h-1.7V8.3c0-1,0.3-1.2,1.3-1.2h0.5V5.1h-1.5c-2.2,0-3.1,0.8-3.1,3.1v0.3h-1.2V10H57.2L57.2,10z M63.2,10V8.5h-1.6V5.8h-2.8v2.7
		h-1.2V10H63.2L63.2,10z M72,10c0-0.1-0.1-0.2-0.2-0.3c-0.5-0.9-1.5-1.4-2.7-1.4c-1.1,0-1.8,0.4-2.4,1.2V5.1H64V10H72L72,10z
		 M81.3,10c-0.5-1.2-1.8-1.9-3.7-1.9c-1.9,0-3.3,0.7-3.8,1.9L81.3,10L81.3,10z M90.5,10c0-0.1-0.1-0.2-0.2-0.3
		c-0.5-0.9-1.5-1.4-2.7-1.4c-1,0-1.8,0.4-2.5,1.2l-0.1-1h-2.6V10H90.5L90.5,10z M99.5,10c0-0.1-0.1-0.2-0.2-0.3
		c-0.6-1-1.7-1.5-3.5-1.5c-2,0-3.4,0.7-3.9,1.9L99.5,10L99.5,10z M108.8,10c-0.5-1.2-1.7-1.9-3.7-1.9c-2,0-3.3,0.7-3.9,1.9H108.8
		L108.8,10z"/>
	<path class="st0" d="M123.9,8.9c-0.1-2.7-1.7-4.1-4.7-4.1c-1.5,0-2.8,0.3-3.7,0.8c-1,0.6-1.6,1.8-1.6,2.9c0,1.1,0.5,2,1.3,2.6
		c0.4,0.3,1.2,0.6,2,0.8l1.7,0.4c1.1,0.3,1.1,0.3,1.4,0.4c0.5,0.2,0.8,0.6,0.8,1.1c0,0.8-0.7,1.3-2,1.3c-1.6,0-2.4-0.6-2.4-1.9h-3
		v0.1c0,0.8,0.3,1.7,0.8,2.4c0.8,1.1,2.3,1.7,4.4,1.7c3.4,0,5.4-1.4,5.4-3.9c0-1.1-0.4-1.9-1.2-2.5c-0.5-0.4-1.5-0.8-2.4-1l-1.9-0.4
		c-1.2-0.3-1.6-0.6-1.6-1.3c0-0.8,0.7-1.3,1.9-1.3c1.3,0,2,0.6,2.1,1.8H123.9L123.9,8.9z"/>
	<path class="st0" d="M124.4,8.5l2.8,7.4c0.1,0.3,0.3,0.9,0.3,1.2c0,0.6-0.5,0.9-1.4,0.9h-0.7v1.9h1.2c1.3,0,1.8-0.1,2.3-0.4
		c0.7-0.4,1-1,1.4-2.3l2.8-8.7h-2.8l-0.9,3.6l-0.1,0.5l-0.2,0.7l-0.1,0.6l-0.1,0.4c-0.1-0.7-0.4-1.7-0.6-2.3l-1.1-3.6H124.4
		L124.4,8.5z"/>
	<path class="st0" d="M141.1,11.2c0-0.7-0.1-1.1-0.3-1.5c-0.5-1-1.7-1.5-3.5-1.5c-2.6,0-4.1,1.1-4.1,3c0,1.3,0.9,2.1,2.9,2.4
		l0.9,0.1c1.1,0.2,1.6,0.5,1.6,1c0,0.5-0.5,0.8-1.3,0.8c-1,0-1.5-0.5-1.5-1.2v-0.1h-2.8c0,0.8,0.2,1.4,0.6,1.9
		c0.7,0.9,2.1,1.3,3.9,1.3c2.5,0,4-1.1,4-3c0-1.5-0.9-2.3-3-2.7l-1-0.2c-0.2,0-0.6-0.1-0.8-0.2c-0.4-0.1-0.5-0.3-0.5-0.6
		c0-0.4,0.4-0.7,1.1-0.7c0.8,0,1.2,0.3,1.3,1.1H141.1L141.1,11.2z"/>
	<path class="st0" d="M142.7,5.8v2.7h-1.2v1.9h1.2v4.2c0,1.8,0.7,2.5,2.4,2.5h2.1v-2h-0.6c-0.5,0-0.9-0.1-1-0.3
		c-0.1-0.2-0.1-0.2-0.1-1.1v-3.4h1.6V8.5h-1.6V5.8H142.7L142.7,5.8z"/>
	<path class="st0" d="M153.7,14.4c-0.3,0.6-0.8,1-1.6,1c-1,0-1.6-0.7-1.8-1.9h6.3c0-0.2,0-0.3,0-0.4c0-0.7-0.2-1.7-0.4-2.4
		c-0.7-1.7-2.2-2.6-4.1-2.6c-2.8,0-4.7,1.9-4.7,4.7c0,2.8,1.9,4.7,4.7,4.7c2.3,0,4.2-1.3,4.3-3.1H153.7L153.7,14.4z M150.4,11.6
		c0.1-1,0.7-1.5,1.7-1.5c0.9,0,1.5,0.6,1.6,1.5H150.4L150.4,11.6z"/>
	<path class="st0" d="M157.5,8.5v8.6h2.8v-5c0-0.6,0-0.8,0.1-1.1c0.2-0.4,0.6-0.6,1.1-0.6c0.4,0,0.8,0.2,1,0.6
		c0.1,0.2,0.1,0.5,0.1,1v5.1h2.8v-5c0-0.4,0-0.7,0.1-0.9c0.2-0.5,0.6-0.8,1.2-0.8c0.5,0,0.9,0.3,1,0.7c0.1,0.2,0.1,0.4,0.1,1v5h2.8
		v-5.3c0-2.3-1-3.5-3.1-3.5c-1.2,0-2,0.4-2.7,1.5c-0.4-1-1.2-1.6-2.4-1.6c-1,0-1.8,0.4-2.3,1.2v-1H157.5L157.5,8.5z"/>
	<path class="st0" d="M179.5,11.2c0-0.7-0.1-1.1-0.3-1.5c-0.5-1-1.7-1.5-3.5-1.5c-2.6,0-4.1,1.1-4.1,3c0,1.3,0.9,2.1,2.9,2.4
		l0.9,0.1c1.1,0.2,1.6,0.5,1.6,1c0,0.5-0.5,0.8-1.3,0.8c-1,0-1.5-0.5-1.5-1.2v-0.1h-2.8c0,0.8,0.2,1.4,0.6,1.9
		c0.7,0.9,2.1,1.3,3.9,1.3c2.5,0,4-1.1,4-3c0-1.5-0.9-2.3-3-2.7l-1-0.2c-0.2,0-0.6-0.1-0.8-0.2c-0.4-0.1-0.5-0.3-0.5-0.6
		c0-0.4,0.4-0.7,1.1-0.7c0.8,0,1.2,0.3,1.3,1.1H179.5L179.5,11.2z"/>
</g>
</svg>
