<?xml version="1.0" encoding="utf-8"?>
<!-- Generator: Adobe Illustrator 22.1.0, SVG Export Plug-In . SVG Version: 6.00 Build 0)  -->
<svg version="1.1" id="Слой_1" xmlns="http://www.w3.org/2000/svg" xmlns:xlink="http://www.w3.org/1999/xlink" x="0px" y="0px"
	 width="71.7px" height="23px" viewBox="0 0 71.7 23" style="enable-background:new 0 0 71.7 23;" xml:space="preserve">
<style type="text/css">
	.st0{fill:#5F6369;}
	.st1{fill:#C4D82E;}
	.st2{fill:#FFFFFF;}
</style>
<title>s7_s</title>
<desc>Created with Sketch.</desc>
<g>
	<path class="st0" d="M36.3,5.5h1.9v1.7h-1.9V5.5z M36.3,8.2h1.9v7.3h-1.9V8.2z"/>
	<path class="st0" d="M41.2,9.4L41.2,9.4c0.5-0.8,1-1.2,1.8-1.2c0.2,0,0.3,0,0.5,0.1v1.7h0c-1.3-0.1-2.2,0.5-2.2,2.1v3.5h-1.9V8.2
		h1.9L41.2,9.4L41.2,9.4z"/>
	<path class="st0" d="M47.2,5.5h1.9v1.7h-1.9V5.5z M47.2,8.2h1.9v7.3h-1.9V8.2z"/>
	<path class="st0" d="M52.1,9.2L52.1,9.2C52.7,8.4,53.3,8,54.3,8c1.5,0,2.5,1.1,2.5,2.7v4.7h-1.9V11c0-0.8-0.5-1.3-1.3-1.3
		c-0.9,0-1.5,0.7-1.5,1.7v4.1h-1.9V8.2h1.9V9.2z"/>
	<path class="st0" d="M57.6,11.9c0-2.1,1.5-3.8,3.6-3.8c2.3,0,3.6,1.8,3.6,4.4h-5.3c0.1,1.1,0.8,1.8,1.9,1.8c0.8,0,1.2-0.3,1.4-0.9
		h1.9c-0.3,1.3-1.4,2.4-3.3,2.4C59,15.7,57.6,14,57.6,11.9z M59.5,11.1h3.2c-0.1-0.9-0.7-1.6-1.5-1.6C60.2,9.5,59.7,10.1,59.5,11.1z
		"/>
	<path class="st0" d="M65.2,13.2H67c0.1,0.8,0.7,1.2,1.6,1.2c0.9,0,1.3-0.3,1.3-0.8c0-0.7-0.9-0.8-1.9-1c-1.3-0.3-2.6-0.6-2.6-2.2
		c0-1.6,1.3-2.3,3-2.3c1.9,0,3,0.9,3.1,2.4h-1.7c-0.1-0.8-0.6-1.1-1.4-1.1c-0.8,0-1.2,0.3-1.2,0.8c0,0.6,1,0.7,2,0.9
		c1.2,0.3,2.6,0.6,2.6,2.3c0,1.5-1.2,2.3-3.1,2.3C66.5,15.7,65.3,14.7,65.2,13.2z"/>
	<path class="st0" d="M31.8,5.5h-2.2l-4.1,10h2.3l0.8-2.1h4.1l0.8,2.1h2.3L31.8,5.5z M29.1,11.8l1.5-4.3l1.5,4.3H29.1z"/>
	<rect x="44.2" y="5.5" class="st0" width="1.9" height="10"/>
	<g>
		<path class="st1" d="M23,11.5C23,17.9,17.9,23,11.5,23S0,17.9,0,11.5S5.2,0,11.5,0C17.9,0,23,5.2,23,11.5"/>
		<path class="st2" d="M10.7,5.5c-1.8,0-3,0.1-3.8,0.4C5.4,6.5,4.4,7.6,4.4,9.2c0,1.3,0.6,2.2,2.3,3.3c1.8,1.1,2.2,1.5,2.2,2.1
			c0,0.7-0.7,1.6-2.6,1.6c-0.6,0-1.6-0.1-2.2-0.2l-0.3-0.1c-0.2,0.4-0.5,1.5-0.7,1.9l0.3,0.1C4,18,5.3,18.1,6.3,18.1
			c3.2,0,5.1-1.9,5.1-3.9c0-1.2-0.6-2.2-2.4-3.3c-0.9-0.6-1.4-1-1.7-1.2C7,9.3,6.9,9.1,6.9,8.9c0-0.2,0-0.5,0.2-0.7
			C7.3,7.9,7.6,7.8,8,7.6c0.4-0.1,1.2-0.1,2.4-0.1h1.1l0.8-2L10.7,5.5L10.7,5.5z M19.1,5.5h-5.6l-0.8,2h1.9c1.3,0,1.5,0,1.8,0
			c-0.5,1-3.2,8-3.2,8h2.3c0,0,3.5-8.7,3.8-9.6C19.4,5.7,19.4,5.5,19.1,5.5z"/>
	</g>
</g>
</svg>
