<?xml version="1.0" encoding="utf-8"?>
<!-- Generator: Adobe Illustrator 22.1.0, SVG Export Plug-In . SVG Version: 6.00 Build 0)  -->
<svg version="1.1" id="Слой_2_1_" xmlns="http://www.w3.org/2000/svg" xmlns:xlink="http://www.w3.org/1999/xlink" x="0px"
	 y="0px" width="825.3px" height="277.2px" viewBox="0 0 825.3 277.2" style="enable-background:new 0 0 825.3 277.2;"
	 xml:space="preserve">
<style type="text/css">
	.st0{fill:none;}
	.st1{fill:#862D23;}
	.st2{fill:#C5B12B;}
	.st3{fill:#DE743B;}
	.st4{fill:#306C3C;}
	.st5{fill:#F9C937;}
	.st6{fill:#4D9A39;}
	.st7{fill:#031F24;}
	.st8{fill:#BAC659;}
	.st9{fill:#306C39;}
	.st10{fill:#290B74;}
	.st11{fill:#D84438;}
	.st12{fill:#ECA83E;}
	.st13{fill:#965323;}
</style>
<g>
	<g>
		<g>
			<path class="st0" d="M56.3,18.2C56.3,18.2,56.2,18.2,56.3,18.2L56.3,18.2C56.4,18.1,56.3,18.1,56.3,18.2z M102.3,47.3
				c-0.4,0.3-0.8,0.6-1.2,1c0.6-0.3,1.1-0.5,1.7-0.8C102.6,47.4,102.4,47.3,102.3,47.3z"/>
			<path class="st0" d="M102.7,47.4c-0.6,0.3-1.1,0.5-1.7,0.8c0.4-0.3,0.8-0.6,1.2-1C102.4,47.3,102.6,47.4,102.7,47.4z"/>
			<path class="st0" d="M102.3,47.3c-0.4,0.3-0.8,0.6-1.2,1c0.6-0.3,1.1-0.5,1.7-0.8C102.6,47.4,102.4,47.3,102.3,47.3z M56.3,18.2
				C56.3,18.2,56.2,18.2,56.3,18.2L56.3,18.2l7.2-3.7L56.3,18.2z"/>
			<path class="st0" d="M201.7,48.3h-1.3c0,0,0.5,0.2,1.4,0.5C201.7,48.6,201.7,48.4,201.7,48.3z M56.3,18.2
				C56.3,18.2,56.2,18.2,56.3,18.2L56.3,18.2l7.2-3.7L56.3,18.2z M102.3,47.3c-0.4,0.3-0.8,0.6-1.2,1c0.6-0.3,1.1-0.5,1.7-0.8
				C102.6,47.4,102.4,47.3,102.3,47.3z"/>
			<path class="st0" d="M201.7,48.3h-1.3c0,0,0.5,0.2,1.4,0.5C201.7,48.6,201.7,48.4,201.7,48.3z M56.3,18.2
				C56.3,18.2,56.2,18.2,56.3,18.2L56.3,18.2l7.2-3.7L56.3,18.2z M102.3,47.3c-0.4,0.3-0.8,0.6-1.2,1c0.6-0.3,1.1-0.5,1.7-0.8
				C102.6,47.4,102.4,47.3,102.3,47.3z"/>
			<path class="st0" d="M201.7,48.3h-1.3c0,0,0.5,0.2,1.4,0.5C201.7,48.6,201.7,48.4,201.7,48.3z M56.3,18.2
				C56.3,18.2,56.2,18.2,56.3,18.2L56.3,18.2l7.2-3.7L56.3,18.2z M102.3,47.3c-0.4,0.3-0.8,0.6-1.2,1c0.6-0.3,1.1-0.5,1.7-0.8
				C102.6,47.4,102.4,47.3,102.3,47.3z"/>
			<path class="st0" d="M56.3,18.2C56.3,18.2,56.2,18.2,56.3,18.2L56.3,18.2l7.2-3.7L56.3,18.2z M102.3,47.3c-0.4,0.3-0.8,0.6-1.2,1
				c0.6-0.3,1.1-0.5,1.7-0.8C102.6,47.4,102.4,47.3,102.3,47.3z"/>
			<path class="st0" d="M102.3,47.3c-0.4,0.3-0.8,0.6-1.2,1c0.6-0.3,1.1-0.5,1.7-0.8C102.6,47.4,102.4,47.3,102.3,47.3z M56.3,18.2
				C56.3,18.2,56.2,18.2,56.3,18.2L56.3,18.2l7.2-3.7L56.3,18.2z"/>
		</g>
		<path class="st0" d="M165.7,190.8c1.9-2,3.8-4.2,5.4-6.6C169.4,186.6,167.6,188.8,165.7,190.8z"/>
		<path class="st0" d="M209.3,37.9c-0.9-0.2-1.9-0.4-2.9-0.6c-2.2-3.6-4.7-7-7.4-10.3C202.7,30.4,206.1,34,209.3,37.9z"/>
		<path class="st0" d="M210,48.3h-8.4c-0.2-1.1-0.5-2.1-0.8-3.2C204.1,46,207.1,47.1,210,48.3z"/>
		<path class="st1" d="M164.5,192.1c-15.4,16-38,24.5-54.5,26.2c-20.4,1.2-38.4-2.2-53.7-8.9c-2.8-1.2-5.6-2.6-8.2-4.1
			c-28-15.6-45-43.5-47.7-74.6c-0.3-2.9-0.4-5.9-0.4-8.9c0-5.1,0.3-11.5,1.4-18.7c5.1,30.3,24.1,55.8,50.3,69.7
			c2,4.4,4.4,8.4,7.1,12.1c8.9,11.9,21.5,20,34.8,23.6c0.8,0.2,1.6,0.4,2.4,0.6c5.5,1.3,11,1.8,16.5,1.7
			c12.6-0.4,36.1-3.5,51.8-18.7C164.4,192.1,164.5,192.1,164.5,192.1z"/>
		<path class="st1" d="M165.6,190.9c-0.4,0.4-0.7,0.8-1.1,1.2h-0.1C164.8,191.7,165.2,191.3,165.6,190.9z"/>
		<path class="st2" d="M93.2,12.8C79,20.5,66.9,31.7,58.1,45.3c-9.6,2.2-18.5,6-26.5,11.1c-4.1,2.6-7.9,5.5-11.4,8.8
			c-4,3.6-7.6,7.7-10.8,12c-1.1,1.5-2.2,3-3.2,4.6c0.9-2.8,1.9-5.7,3-8.6c3.1-8.2,7.4-16.5,13.1-24.5l0,0
			c8.1-11.4,19.1-22,33.8-30.4l0,0c0.1,0,0.2-0.1,0.2-0.1l7.1-3.7c6.3-1.4,12.8-2.2,19.5-2.2C86.5,12.3,89.9,12.5,93.2,12.8z"/>
		<path class="st3" d="M45.6,147.4c0.5,9.5,2.7,18,6,25.4c-26.1-14-45.2-39.5-50.3-69.7l0,0C2.2,96.6,3.7,89.4,6,81.9
			c1-1.6,2.1-3.1,3.2-4.6c3.2-4.4,6.8-8.4,10.8-12c3.5-3.2,7.3-6.2,11.4-8.8c8-5.1,16.9-8.9,26.5-11.1
			c-9.8,15.1-15.5,33.3-15.5,52.8c0,10.9,1.8,21.3,5.1,31.1c-0.6,2.2-1.1,4.5-1.4,6.8c-0.5,3.2-0.7,6.4-0.5,9.7l0,0
			C45.6,146.3,45.6,146.8,45.6,147.4L45.6,147.4z"/>
		<path class="st4" d="M185.1,16.4c-4.8,0.5-10.8,1.4-17.4,2.7c-9.9,2-21.4,5.1-33.1,9.9c-11.9-8.7-26.1-14.4-41.4-16.1
			c-3.3-0.4-6.7-0.6-10.1-0.6c-6.7,0-13.2,0.7-19.5,2.2C79.5,6.9,99.4,1.7,124.1,0.3c6.9-0.4,13.6-0.1,20.1,0.9
			c0.4,0,0.7,0.1,1.1,0.2C159.8,3.5,173.3,8.7,185.1,16.4z"/>
		<path class="st0" d="M165.6,190.9c-0.4,0.4-0.7,0.8-1.1,1.2h-0.1C164.8,191.7,165.2,191.3,165.6,190.9z"/>
		<path class="st0" d="M165.7,190.8c1.9-2.1,3.7-4.3,5.4-6.6C169.4,186.7,167.6,188.9,165.7,190.8z"/>
		<path class="st5" d="M148.6,84.6c-21.1-8.3-46.9-7-76.6,10.7c23.1-16.6,45.6-24.1,66.1-24.9C142.1,74.7,145.6,79.4,148.6,84.6z"/>
		<path class="st6" d="M201.4,92.3c-2.3,9.8-6.1,19-11.1,27.4c-0.2-0.3-0.4-0.6-0.6-0.9l0,0c-5.2-7.4-11.1-14.1-17.7-19.9
			c-0.3-0.3-0.6-0.5-0.9-0.8c-6.8-5.7-14.2-10.4-22.4-13.6c-3-5.1-6.5-9.9-10.5-14.2c9.1-0.4,17.8,0.5,26,2.6c1,0.2,1.9,0.5,2.8,0.8
			c10.4,2.9,19.8,7.6,28.1,13.6C197.2,88.8,199.4,90.5,201.4,92.3z"/>
		<path class="st7" d="M215,201.3c0.6-11.1-1-23.9-4.4-36.9c-1.8-6.7-4.1-13.4-6.9-20c-2.3-5.5-5-10.9-8.1-16.1
			c-1.7-2.9-3.4-5.7-5.3-8.4c5-8.4,8.8-17.6,11.1-27.4c3.1,2.7,5.9,5.5,8.6,8.5c3.1,3.5,5.8,7.2,8.3,11c4.8,7.7,8.4,15.9,10.5,24.5
			c0.5,2,0.9,3.9,1.2,5.9C231.3,150.2,223,181.3,215,201.3z"/>
		<path class="st8" d="M134.6,29c-2.1,0.9-4.2,1.8-6.4,2.8c-8.9,4.1-17.8,9.2-26,15.6c-8.1-2.6-16.8-4-25.7-4
			c-6.4,0-12.5,0.7-18.5,2c8.8-13.5,20.9-24.7,35.1-32.5C108.6,14.6,122.7,20.3,134.6,29z"/>
		<path class="st5" d="M132.5,64.8c-6.8,0.9-13.9,2.3-21.5,4.5c-26.1,7.3-55.8,30.9-63.6,60c-3.3-9.8-5.1-20.2-5.1-31.1
			c0-19.5,5.8-37.7,15.7-52.9c6-1.3,12.1-2,18.5-2c9,0,17.6,1.4,25.7,4c-0.4,0.3-0.8,0.6-1.2,1c0.6-0.3,1.1-0.5,1.7-0.8
			c3.2,1,6.2,2.3,9.2,3.7c-3.3,1.8-6.6,3.9-9.9,6.2c4.1-1.9,8.1-3.6,12.1-5.1c2.7,1.3,5.3,2.8,7.8,4.5c-9.9,3.5-20.3,8.4-31.2,15.3
			c10.7-6.1,22.2-10.7,34-13.4C127.4,60.5,130.1,62.6,132.5,64.8z"/>
		<path class="st0" d="M102.3,47.3c0.2,0,0.3,0.1,0.5,0.2c-0.6,0.3-1.1,0.5-1.7,0.8C101.5,47.9,101.9,47.6,102.3,47.3z"/>
		<path class="st6" d="M198,36c-5.1-0.7-11.2-1.2-18-1.3c-10.2-0.2-22,0.7-34.5,3.5c-2.1,0.5-4.2,1-6.3,1.6
			c-8.9,2.5-18.1,6.1-27.2,11.2c-3-1.4-6.1-2.6-9.2-3.7c8-3.9,17-9.2,28.5-13.7c2.1-0.8,4.2-1.6,6.5-2.4c9.7-3.3,21.1-6,34.7-7
			c6.3-0.5,13-0.5,20.3-0.2C194.8,28,196.5,31.9,198,36z"/>
		<path class="st9" d="M206.4,37.3c-2.4-0.4-5.2-0.9-8.3-1.3c-1.5-4.1-3.3-8.1-5.3-11.9c0.8,0,3.1,0.1,3.1,0.1c1.2,1,2,1.7,3.1,2.8
			l0,0C201.7,30.3,204.2,33.7,206.4,37.3z"/>
		<path class="st7" d="M209.3,37.9c-0.9-0.2-1.9-0.4-2.9-0.6c-2.2-3.6-4.7-7-7.4-10.3C202.7,30.4,206.1,34,209.3,37.9z"/>
		<path class="st6" d="M203.6,60.2c-4.2-2-8.9-3.9-13.9-5.5c-9.9-3.1-21.4-5.1-34.3-4.6c-1.9,0.1-3.7,0.2-5.7,0.4
			c-8.7,0.8-18,2.7-27.8,6.2c-2.5-1.6-5.1-3.1-7.8-4.5c10.1-3.9,19.9-6.7,29.1-8.5c2.1-0.4,4.1-0.8,6.2-1.1
			c12.4-1.9,23.9-2.1,34.5-0.9l0,0c5.9,0.7,11.6,1.8,16.9,3.4l0,0c0.3,1.1,0.5,2.1,0.8,3.2h-1.3c0,0,0.5,0.2,1.4,0.5
			C202.6,52.5,203.2,56.3,203.6,60.2z"/>
		<path class="st0" d="M201.8,48.7c-0.9-0.3-1.4-0.5-1.4-0.5h1.3C201.7,48.4,201.7,48.6,201.8,48.7z"/>
		<path class="st9" d="M210,48.3h-8.4c-0.2-1.1-0.5-2.1-0.8-3.2C204.1,46,207.1,47.1,210,48.3z"/>
		<path class="st9" d="M229.5,77.1c-2.1-1.7-5.6-4.6-10.4-7.9c-1.3-0.9-2.6-1.8-4.1-2.7c-3.3-2.1-7.2-4.3-11.4-6.3
			c-0.4-3.9-1-7.7-1.8-11.4c2.3,0.8,7.2,2.5,11.9,4.5c0.3,0.1,0.6,0.2,0.9,0.4c2.8,1.2,5.5,2.5,7.4,3.7
			C225.1,63.5,227.6,70.2,229.5,77.1z"/>
		<path class="st0" d="M233,104.3c0,10,0,19,0,19c-3.2-7.5-7.4-15.2-12.7-22.5c-2.3-3.2-4.9-6.3-7.7-9.3c-2.9-3.1-6-6-9.4-8.8
			c0.6-4.2,0.9-8.5,0.9-12.9v-0.3c3.7,2.1,7.2,4.4,10.8,6.9c2,1.4,4,3,5.9,4.6c4,3.3,7.8,6.9,11.6,10.8l0,0
			C232.8,95.9,233,100,233,104.3z"/>
		<path class="st6" d="M204,69.5v0.3c0,4.4-0.3,8.7-0.9,12.9c-2.7-2.2-5.6-4.2-8.7-6.1c-8.8-5.4-19-9.5-30.8-11.4
			c-1.3-0.2-2.7-0.4-4-0.6c-8.3-1-17.4-1-27.2,0.3c-2.5-2.2-5.1-4.3-7.8-6.2c9.5-2.2,19.3-3.2,29.1-3c1.8,0,3.5,0.1,5.2,0.3
			c11.2,0.8,22.5,3.4,33.3,7.9C196.3,65.4,200.2,67.3,204,69.5z"/>
		<polygon class="st10" points="114.4,88.4 128.4,128.7 171.1,129.6 137,155.4 149.4,196.3 114.4,171.9 79.3,196.3 91.7,155.4 
			57.7,129.6 100.4,128.7 		"/>
	</g>
	<g>
		<g>
			<path class="st0" d="M102.3,47.3c-0.4,0.3-0.8,0.6-1.2,1c0.6-0.3,1.1-0.5,1.7-0.8C102.6,47.4,102.4,47.3,102.3,47.3z M56.3,18.2
				C56.3,18.2,56.2,18.2,56.3,18.2C56.3,18.3,56.4,18.2,56.3,18.2C56.4,18.1,56.3,18.1,56.3,18.2z"/>
			<path class="st0" d="M102.7,47.4c-0.6,0.3-1.1,0.5-1.7,0.8c0.4-0.3,0.8-0.6,1.2-1C102.4,47.3,102.6,47.4,102.7,47.4z"/>
			<path class="st0" d="M56.3,18.2C56.3,18.2,56.2,18.2,56.3,18.2C56.3,18.3,56.4,18.2,56.3,18.2l7.2-3.7L56.3,18.2z M102.3,47.3
				c-0.4,0.3-0.8,0.6-1.2,1c0.6-0.3,1.1-0.5,1.7-0.8C102.6,47.4,102.4,47.3,102.3,47.3z"/>
			<path class="st0" d="M201.7,48.3h-1.3c0,0,0.5,0.2,1.4,0.5C201.7,48.6,201.7,48.4,201.7,48.3z M56.3,18.2
				C56.3,18.2,56.2,18.2,56.3,18.2C56.3,18.3,56.4,18.2,56.3,18.2l7.2-3.7L56.3,18.2z M102.3,47.3c-0.4,0.3-0.8,0.6-1.2,1
				c0.6-0.3,1.1-0.5,1.7-0.8C102.6,47.4,102.4,47.3,102.3,47.3z"/>
			<path class="st0" d="M201.7,48.3h-1.3c0,0,0.5,0.2,1.4,0.5C201.7,48.6,201.7,48.4,201.7,48.3z M56.3,18.2
				C56.3,18.2,56.2,18.2,56.3,18.2C56.3,18.3,56.4,18.2,56.3,18.2l7.2-3.7L56.3,18.2z M102.3,47.3c-0.4,0.3-0.8,0.6-1.2,1
				c0.6-0.3,1.1-0.5,1.7-0.8C102.6,47.4,102.4,47.3,102.3,47.3z"/>
			<path class="st0" d="M201.7,48.3h-1.3c0,0,0.5,0.2,1.4,0.5C201.7,48.6,201.7,48.4,201.7,48.3z M56.3,18.2
				C56.3,18.2,56.2,18.2,56.3,18.2C56.3,18.3,56.4,18.2,56.3,18.2l7.2-3.7L56.3,18.2z M102.3,47.3c-0.4,0.3-0.8,0.6-1.2,1
				c0.6-0.3,1.1-0.5,1.7-0.8C102.6,47.4,102.4,47.3,102.3,47.3z"/>
			<path class="st0" d="M102.3,47.3c-0.4,0.3-0.8,0.6-1.2,1c0.6-0.3,1.1-0.5,1.7-0.8C102.6,47.4,102.4,47.3,102.3,47.3z M56.3,18.2
				C56.3,18.2,56.2,18.2,56.3,18.2C56.3,18.3,56.4,18.2,56.3,18.2l7.2-3.7L56.3,18.2z"/>
			<path class="st0" d="M56.3,18.2C56.3,18.2,56.2,18.2,56.3,18.2C56.3,18.3,56.4,18.2,56.3,18.2l7.2-3.7L56.3,18.2z M102.3,47.3
				c-0.4,0.3-0.8,0.6-1.2,1c0.6-0.3,1.1-0.5,1.7-0.8C102.6,47.4,102.4,47.3,102.3,47.3z"/>
		</g>
		<path class="st0" d="M165.7,190.8c1.9-2,3.8-4.2,5.4-6.6C169.4,186.6,167.6,188.8,165.7,190.8z"/>
		<path class="st0" d="M209.3,37.9c-0.9-0.2-1.9-0.4-2.9-0.6c-2.2-3.6-4.7-7-7.4-10.3C202.7,30.4,206.1,34,209.3,37.9z"/>
		<path class="st0" d="M210,48.3h-8.4c-0.2-1.1-0.5-2.1-0.8-3.2C204.1,46,207.1,47.1,210,48.3z"/>
		<path class="st1" d="M165.6,190.9c-0.4,0.4-0.7,0.8-1.1,1.2c-15.4,16-38,24.5-54.5,26.2c-20.4,1.2-38.4-2.2-53.7-8.9
			c-2.8-1.2-5.6-2.6-8.2-4.1c8.9,3.2,18.4,5,28.4,5c5.9,0,11.6-0.6,17.1-1.8c0.8,0.2,1.6,0.4,2.4,0.6c5.5,1.3,11,1.9,16.5,1.7
			c12.6-0.4,36.1-3.5,51.8-18.7C164.8,191.7,165.2,191.3,165.6,190.9z"/>
		<path class="st11" d="M93.6,208.5c-5.5,1.2-11.2,1.8-17.1,1.8c-10,0-19.5-1.8-28.4-5c-28-15.6-45-43.5-47.7-74.6
			c-0.3-2.9-0.4-5.9-0.4-8.9c0-5.1,0.3-11.5,1.4-18.7c5.1,30.2,24.1,55.8,50.3,69.7c2,4.4,4.4,8.4,7.1,12.1
			C67.7,196.8,80.3,204.8,93.6,208.5z"/>
		<path class="st12" d="M42.4,98.2c0,10.9,1.8,21.3,5.1,31.1c-0.6,2.2-1.1,4.5-1.4,6.8c-7.5-8-13.6-17.4-18-27.6
			c-5.1-11.9-8-25-8-38.7c0-1.5,0-3.1,0.1-4.6c3.5-3.2,7.4-6.2,11.4-8.8c8-5.1,16.9-8.9,26.5-11.1C48.1,60.5,42.4,78.7,42.4,98.2z"
			/>
		<path class="st13" d="M22.3,48.7c-1.2,5.3-1.9,10.9-2.2,16.5c-4,3.7-7.6,7.7-10.8,12c-1.1,1.5-2.2,3.1-3.2,4.6
			C7,79,8,76.1,9.1,73.2C12.3,65,16.6,56.7,22.3,48.7z"/>
		<path class="st3" d="M51.7,172.8c-26.1-14-45.2-39.5-50.3-69.7l0,0c0.9-6.5,2.4-13.7,4.7-21.2c1-1.6,2.1-3.1,3.2-4.6
			c3.2-4.4,6.8-8.4,10.8-12c-0.1,1.5-0.1,3-0.1,4.6c0,13.8,2.8,26.8,8,38.7c4.4,10.2,10.6,19.6,18,27.6c-0.5,3.2-0.7,6.4-0.5,9.7
			l0,0c0,0.5,0,1,0.1,1.5l0,0C46.1,156.8,48.3,165.3,51.7,172.8z"/>
		<path class="st0" d="M145.5,38.3c-2.1,0.5-4.2,1-6.3,1.6c-8.9,2.5-18.1,6.1-27.2,11.2c-3-1.4-6-2.6-9.2-3.7
			c8-3.9,17-9.2,28.5-13.7c2.1-0.8,4.2-1.6,6.5-2.4C140.5,33.5,143,35.8,145.5,38.3z"/>
		<path class="st2" d="M93.2,12.8C79,20.5,66.9,31.7,58.1,45.3c-9.6,2.2-18.5,6-26.5,11.1c-4,2.6-7.9,5.5-11.4,8.8
			c0.3-5.6,1-11.2,2.2-16.5l0,0c8.1-11.4,19.1-22,33.9-30.4l0,0c0.1,0,0.2-0.1,0.2-0.1l7.1-3.7c6.3-1.4,12.8-2.2,19.5-2.2
			C86.5,12.3,89.9,12.5,93.2,12.8z"/>
		<path class="st0" d="M219.1,69.1c-1.3-0.9-2.6-1.8-4.1-2.7c-3.3-2.1-7.2-4.3-11.4-6.3c-0.4-3.9-1-7.7-1.8-11.4
			c2.3,0.8,7.2,2.5,11.9,4.5c0.3,0.1,0.6,0.2,0.9,0.4C216.4,58.6,218,63.8,219.1,69.1z"/>
		<path class="st4" d="M145.3,1.3c-1.9-0.1-3.8-0.2-5.8-0.2c-16.8,0-32.5,4.2-46.3,11.7c-3.3-0.4-6.7-0.6-10.1-0.6
			c-6.7,0-13.2,0.7-19.5,2.2C79.5,6.8,99.4,1.6,124.1,0.2c6.9-0.4,13.6-0.1,20.1,0.9C144.5,1.2,144.9,1.2,145.3,1.3z"/>
		<path class="st0" d="M164.4,192.1c0.4-0.4,0.8-0.8,1.2-1.2C165.2,191.3,164.9,191.7,164.4,192.1L164.4,192.1z"/>
		<path class="st0" d="M165.7,190.8c1.9-2.1,3.7-4.3,5.4-6.6C169.4,186.7,167.6,188.9,165.7,190.8z"/>
		<path class="st7" d="M215,201.3c0.6-11.1-1-23.9-4.4-36.9c-1.8-6.7-4.1-13.4-6.9-20c6.7-9.7,11.7-20.6,14.6-32.4
			c4.9,7.7,8.4,15.9,10.5,24.5c0.5,2,0.9,4,1.2,5.9C231.3,150.2,223,181.3,215,201.3z"/>
		<path class="st5" d="M148.6,84.6c-21.1-8.3-46.9-7-76.6,10.7c23.1-16.6,45.6-24.1,66.1-24.9C142.1,74.7,145.6,79.4,148.6,84.6z"/>
		<path class="st8" d="M171,98.1c-6.8-5.7-14.2-10.4-22.4-13.6c-3-5.1-6.5-9.9-10.5-14.2c9.1-0.4,17.8,0.5,26,2.6
			c1,0.2,1.9,0.5,2.8,0.8c1.9,6,3.2,12.3,3.7,18.7C170.9,94.3,171,96.2,171,98.1z"/>
		<path class="st6" d="M201.4,92.3c-2.3,9.8-6.1,19-11.1,27.4c-0.2-0.3-0.4-0.6-0.6-0.9l0,0c-5.2-7.4-11.1-14.1-17.7-19.9
			c-0.3-0.3-0.6-0.5-0.9-0.8c0-1.9-0.1-3.8-0.3-5.7c-0.6-6.5-1.8-12.8-3.7-18.7c10.4,2.9,19.8,7.6,28.1,13.6
			C197.2,88.8,199.4,90.5,201.4,92.3z"/>
		<path class="st9" d="M218.3,111.9c-2.9,11.8-7.9,22.8-14.6,32.4c-2.3-5.5-5-10.9-8.1-16.1c-1.7-2.9-3.4-5.7-5.3-8.4
			c5-8.4,8.8-17.6,11.1-27.4c3.1,2.7,5.9,5.5,8.6,8.5C213.1,104.3,215.8,108,218.3,111.9z"/>
		<path class="st8" d="M134.6,29c-2.1,0.9-4.2,1.8-6.4,2.8c-8.9,4.1-17.8,9.2-26,15.6c-8.1-2.6-16.8-4-25.7-4
			c-6.4,0-12.5,0.7-18.5,2c8.8-13.5,20.9-24.7,35.1-32.5C108.6,14.6,122.7,20.3,134.6,29z"/>
		<path class="st6" d="M185.1,16.4c-4.9,0.5-10.8,1.4-17.4,2.7c-9.9,2-21.4,5.1-33.1,9.9c-11.9-8.6-26.1-14.4-41.5-16.1
			c13.8-7.5,29.5-11.7,46.3-11.7c1.9,0,3.8,0.1,5.8,0.2C159.8,3.5,173.3,8.7,185.1,16.4z"/>
		<path class="st5" d="M132.5,64.8c-6.8,0.9-13.9,2.3-21.5,4.5c-26.1,7.3-55.8,30.9-63.6,60c-3.3-9.8-5.1-20.2-5.1-31.1
			c0-19.5,5.8-37.7,15.7-52.9c6-1.3,12.1-2,18.5-2c9,0,17.6,1.4,25.7,4c-0.4,0.3-0.8,0.6-1.2,1c0.6-0.3,1.1-0.5,1.7-0.8
			c3.2,1,6.2,2.3,9.2,3.7c-3.3,1.9-6.6,3.9-9.9,6.2c4.1-1.9,8.1-3.5,12.1-5.1c2.7,1.3,5.3,2.8,7.8,4.5c-9.9,3.5-20.3,8.4-31.2,15.3
			c10.7-6.1,22.2-10.7,34-13.4C127.4,60.5,130.1,62.6,132.5,64.8z"/>
		<path class="st0" d="M102.3,47.3c0.2,0,0.3,0.1,0.5,0.2c-0.6,0.3-1.1,0.5-1.7,0.8C101.5,47.9,101.9,47.6,102.3,47.3z"/>
		<path class="st6" d="M198,36c-5.1-0.7-11.2-1.2-18-1.3c-10.2-0.1-22,0.7-34.5,3.5c-2.5-2.5-5-4.8-7.8-7c9.7-3.3,21.1-6,34.7-7
			c6.3-0.4,13-0.5,20.3-0.2C194.8,28,196.5,31.9,198,36z"/>
		<path class="st8" d="M137.7,31.3c2.7,2.2,5.3,4.5,7.8,7c-2.1,0.5-4.2,1-6.3,1.6c-8.9,2.5-18.1,6.1-27.2,11.2c-3-1.4-6-2.6-9.2-3.7
			c8-3.9,17-9.2,28.5-13.7C133.3,32.9,135.5,32.1,137.7,31.3z"/>
		<path class="st9" d="M206.4,37.3c-2.4-0.4-5.2-0.9-8.3-1.3c-1.5-4.1-3.3-8.1-5.3-11.9c0.8,0,3.1,0.1,3.1,0.1c1.2,1,2,1.7,3.2,2.8
			l0,0C201.7,30.3,204.2,33.7,206.4,37.3z"/>
		<path class="st7" d="M209.3,37.9c-0.9-0.2-1.9-0.4-2.9-0.6c-2.2-3.6-4.7-7-7.4-10.3C202.7,30.4,206.1,34,209.3,37.9z"/>
		<path class="st8" d="M155.4,50.1c-1.9,0.1-3.7,0.2-5.7,0.4c-8.7,0.8-18,2.7-27.8,6.2c-2.5-1.6-5.1-3.1-7.8-4.5
			c10.1-3.9,19.9-6.7,29.1-8.5c2.1-0.4,4.2-0.8,6.2-1.1C151.6,45,153.5,47.5,155.4,50.1z"/>
		<path class="st7" d="M229.5,77.1c-2.1-1.7-5.6-4.6-10.4-7.9c-1.1-5.3-2.6-10.5-4.6-15.5c2.8,1.2,5.5,2.5,7.4,3.7
			C225.1,63.5,227.6,70.2,229.5,77.1z"/>
		<path class="st6" d="M203.6,60.2c-4.2-2-8.9-3.9-13.9-5.5c-9.9-3.1-21.4-5.1-34.3-4.6c-1.8-2.6-3.8-5.2-5.9-7.6
			c12.4-1.9,23.9-2.1,34.5-0.9l0,0c5.9,0.7,11.6,1.8,16.9,3.4l0,0c0.3,1.1,0.5,2.1,0.8,3.2h-1.3c0,0,0.5,0.2,1.4,0.5
			C202.6,52.5,203.2,56.3,203.6,60.2z"/>
		<path class="st0" d="M201.7,48.3c0,0.2,0.1,0.3,0.1,0.5c-0.9-0.3-1.4-0.5-1.4-0.5H201.7z"/>
		<path class="st9" d="M210,48.3h-8.4c-0.2-1.1-0.5-2.1-0.8-3.2C204.1,46,207.1,47.1,210,48.3z"/>
		<path class="st9" d="M219.1,69.1c-1.3-0.9-2.6-1.8-4.1-2.7c-3.3-2.1-7.2-4.3-11.4-6.3c-0.4-3.9-1-7.7-1.8-11.4
			c2.3,0.8,7.2,2.5,11.9,4.5c0.3,0.1,0.6,0.2,0.9,0.4C216.4,58.6,218,63.8,219.1,69.1z"/>
		<path class="st9" d="M221,88.8c0,4.1-0.2,8.1-0.7,12c-2.4-3.2-4.9-6.3-7.7-9.3c-2.9-3.1-6-6-9.4-8.8c0.6-4.2,0.8-8.5,0.8-12.9
			v-0.3c3.7,2.1,7.2,4.4,10.8,6.9c2,1.4,4,3,5.9,4.6C220.9,83.5,221,86.1,221,88.8z"/>
		<path class="st6" d="M204,69.5v0.3c0,4.4-0.3,8.7-0.8,12.9c-2.7-2.2-5.6-4.2-8.7-6.1c-8.8-5.4-19-9.5-30.8-11.4
			c-1.4-3.2-3-6.3-4.7-9.3c11.2,0.8,22.5,3.4,33.3,7.9C196.3,65.4,200.2,67.3,204,69.5z"/>
		<path class="st8" d="M163.7,65.1c-1.3-0.2-2.7-0.4-4-0.6c-8.3-1-17.4-1-27.2,0.3c-2.5-2.2-5.1-4.3-7.8-6.2
			c9.5-2.2,19.3-3.2,29.1-3c1.8,0.1,3.5,0.1,5.2,0.3C160.8,58.8,162.4,61.9,163.7,65.1z"/>
		<path class="st7" d="M233,104.3c0,10,0,19,0,19c-3.2-7.5-7.4-15.2-12.7-22.5c0.5-3.9,0.7-7.9,0.7-12c0-2.6-0.1-5.2-0.3-7.8
			c4,3.3,7.8,6.9,11.6,10.8l0,0C232.8,95.9,233,100,233,104.3z"/>
		<polygon class="st10" points="114.4,88.4 128.4,128.7 171.1,129.6 137,155.4 149.4,196.3 114.4,171.9 79.3,196.3 91.7,155.4 
			57.7,129.6 100.4,128.7 		"/>
	</g>
	<path class="st10" d="M449.6,164.8c-12.3-5.5-91.8-2.7-91.8-2.7l4-20.7h-20.3l-3.7,20.7c-53.1,1.8-88.5-7.4-94.3,18.5
		c-6.5,28.8,54.1,5.5,51,20.8c-1.8,8.8-32,5.8-54.3,5c0,0-2,6.8-3,12.2c42,0,52,1.2,58.9-0.9c28.1-8.4,17.4-32.1,0.6-32.8
		c-24-1-33,1.5-32.2-5.9c1-9,23-4.2,71-5.7c-3.4,22.1-8.3,31.4-2.7,39.2c6,8.4,13.1,6,34.7,6l2.3-11.2c-21.6,1.2-22,2.3-14.3-33.7
		c70.3,1.7,89.2-5.7,83.7,10.7c-44.8-1-59,1.4-60,20.4c-1,18.7,25.3,13.3,73,13.8C457.3,190,464.8,171.7,449.6,164.8z M433.6,208
		c-28.2-0.4-35.6,2.6-34.8-5.2c1-10.5,17.2-6.2,37.3-7L433.6,208z"/>
	<path class="st10" d="M474.1,162.2c33.8,0.9,51.8-3.2,50.7,11.4l-34.6-0.3l-9,44.8h-19.6L474.1,162.2z"/>
	<path class="st10" d="M573.8,162.2c-13.5-0.4-23,0-23,0l3.8-19.9h-18.8l-14.3,75.8c0,0,44.3,2,55.7-2.1
		C606.1,205.5,614.6,163.3,573.8,162.2z M580.8,190.9c-4.5,21.2-28.2,16.3-38.5,15.9l6.3-32.7C561.3,174,584.8,172,580.8,190.9z"/>
	<path class="st10" d="M689.4,182c-3.4-15.9-24.5-24.8-47-20c-22.6,4.8-38.1,21.6-34.7,37.5c3.4,15.9,24.5,24.8,47,20
		C677.3,214.7,692.8,197.9,689.4,182z M658,204.8c-9.6,6.6-24.1,3.6-27-1.9c-4-7.6-1.9-19.3,7.7-25.9c9.6-6.6,23.1-3,27,1.9
		C670.9,185.5,667.6,198.1,658,204.8z"/>
	<polygon class="st10" points="695.1,161.8 711.8,218.5 732.8,218.5 756.1,180.2 765.9,218.5 787.9,218.5 825.3,161.8 804.8,161.8 
		780.1,202.7 770.8,161.8 750.1,161.8 725.8,202.7 715.4,161.8 	"/>
	<g>
		<path class="st10" d="M476.2,234.6h4.1v32.3h-4.1V234.6z"/>
		<path class="st10" d="M489.5,259.5v-13.2h-3.6v-3.1l3.7-0.2l0.5-6.7h3.4v6.7h6.5v3.3h-6.5v13.3c0,2.9,0.9,4.6,3.7,4.6
			c0.9,0,1.9-0.3,2.7-0.6l0.8,3.1c-1.3,0.5-2.9,0.9-4.4,0.9C491.2,267.5,489.5,264.3,489.5,259.5z"/>
		<path class="st10" d="M504.5,243.8c2.5-1.6,3.7-3.3,3.7-6.2l-0.6-3.3l2,2.5c-0.6,0.6-1.1,0.9-1.9,0.9c-1.4,0-2.6-0.9-2.6-2.5
			c0-1.7,1.1-2.7,2.6-2.7c2,0,3.1,1.6,3.1,4.5c0,3.9-1.8,6.8-5.3,8.7L504.5,243.8z"/>
		<path class="st10" d="M512.6,264.2l2-2.7c2.1,1.7,4.2,2.8,7.1,2.8c3.1,0,4.7-1.7,4.7-3.7c0-2.5-2.8-3.6-5.5-4.5
			c-3.4-1.2-7.1-2.9-7.1-6.9c0-3.8,3.1-6.8,8.3-6.8c3,0,5.6,1.2,7.4,2.7l-1.9,2.6c-1.6-1.2-3.3-2.1-5.5-2.1c-3,0-4.4,1.6-4.4,3.4
			c0,2.3,2.6,3.1,5.3,4.2c3.5,1.3,7.3,2.7,7.3,7.3c0,3.9-3.1,7.1-8.7,7.1C518.1,267.5,514.9,266.1,512.6,264.2z"/>
		<path class="st10" d="M544.3,260.7c0-5.2,4.5-7.8,14.7-8.9c0-3.1-1-6-4.9-6c-2.8,0-5.3,1.3-7.1,2.6l-1.6-2.8
			c2.2-1.4,5.6-3.1,9.4-3.1c5.8,0,8.3,3.9,8.3,9.8V267h-3.3l-0.3-2.9h-0.1c-2.3,1.9-4.9,3.5-7.9,3.5
			C547.3,267.5,544.3,265,544.3,260.7z M559,261.1v-6.6c-8,1-10.7,2.9-10.7,6c0,2.7,1.8,3.8,4.2,3.8
			C554.8,264.2,556.7,263.1,559,261.1z"/>
		<path class="st10" d="M570.6,262.1v-30.3h4.1v30.6c0,1.2,0.5,1.7,1.1,1.7c0.2,0,0.4,0,0.9-0.1l0.5,3.1c-0.6,0.2-1.3,0.4-2.3,0.4
			C571.9,267.5,570.6,265.6,570.6,262.1z"/>
		<path class="st10" d="M583.2,262.1v-30.3h4.1v30.6c0,1.2,0.5,1.7,1.1,1.7c0.2,0,0.4,0,0.9-0.1l0.5,3.1c-0.6,0.2-1.3,0.4-2.3,0.4
			C584.4,267.5,583.2,265.6,583.2,262.1z"/>
		<path class="st10" d="M604.1,260.7c0-5.2,4.5-7.8,14.7-8.9c0-3.1-1-6-4.9-6c-2.8,0-5.3,1.3-7.1,2.6l-1.6-2.8
			c2.2-1.4,5.6-3.1,9.4-3.1c5.8,0,8.3,3.9,8.3,9.8V267h-3.3l-0.3-2.9h-0.1c-2.3,1.9-4.9,3.5-7.9,3.5
			C607.1,267.5,604.1,265,604.1,260.7z M618.8,261.1v-6.6c-8,1-10.7,2.9-10.7,6c0,2.7,1.8,3.8,4.2,3.8
			C614.6,264.2,616.5,263.1,618.8,261.1z"/>
		<path class="st10" d="M634.2,264.4L634.2,264.4l-0.5,2.5h-3.2v-35.1h4.1v9.6l-0.1,4.3c2.2-1.9,4.9-3.3,7.5-3.3
			c6.2,0,9.5,4.8,9.5,12.2c0,8.2-4.9,12.9-10.4,12.9C638.8,267.5,636.3,266.4,634.2,264.4z M647.2,254.6c0-5.3-1.8-8.8-6.3-8.8
			c-2,0-4.1,1.1-6.4,3.3v12.5c2.1,1.8,4.2,2.5,5.8,2.5C644.3,264.1,647.2,260.5,647.2,254.6z"/>
		<path class="st10" d="M655.9,255c0-8,5.2-12.6,11.1-12.6c5.9,0,11.1,4.6,11.1,12.6c0,7.9-5.2,12.5-11.1,12.5
			S655.9,262.9,655.9,255z M673.9,255c0-5.5-2.8-9.2-6.9-9.2c-4.1,0-6.9,3.7-6.9,9.2c0,5.5,2.8,9.2,6.9,9.2
			C671.1,264.1,673.9,260.5,673.9,255z"/>
		<path class="st10" d="M684.1,258.1v-15.2h4.1v14.6c0,4.5,1.3,6.4,4.5,6.4c2.4,0,4.1-1.2,6.4-4v-17h4.1v23.9h-3.3l-0.3-3.7h-0.1
			c-2.2,2.6-4.6,4.3-7.9,4.3C686.4,267.5,684.1,264.2,684.1,258.1z"/>
		<path class="st10" d="M711.9,259.5v-13.2h-3.6v-3.1l3.7-0.2l0.5-6.7h3.4v6.7h6.5v3.3h-6.5v13.3c0,2.9,0.9,4.6,3.7,4.6
			c0.9,0,1.9-0.3,2.7-0.6l0.8,3.1c-1.3,0.5-2.9,0.9-4.4,0.9C713.6,267.5,711.9,264.3,711.9,259.5z"/>
		<path class="st10" d="M735.3,276.7l0.8-3.2c0.5,0.2,1.2,0.4,1.8,0.4c2.7,0,4.4-2.2,5.4-5.1l0.5-1.8l-9.6-24h4.2l4.9,13.3
			c0.8,2.1,1.6,4.5,2.3,6.7h0.2c0.7-2.2,1.4-4.6,2-6.7l4.3-13.3h4l-9,25.9c-1.7,4.8-4.2,8.3-9,8.3C737,277.2,736.1,277,735.3,276.7z
			"/>
		<path class="st10" d="M758.8,255c0-8,5.2-12.6,11.1-12.6S781,247,781,255c0,7.9-5.2,12.5-11.1,12.5S758.8,262.9,758.8,255z
			 M776.8,255c0-5.5-2.8-9.2-6.9-9.2c-4.1,0-6.9,3.7-6.9,9.2c0,5.5,2.8,9.2,6.9,9.2C774,264.1,776.8,260.5,776.8,255z"/>
		<path class="st10" d="M786.9,258.1v-15.2h4.1v14.6c0,4.5,1.3,6.4,4.5,6.4c2.4,0,4.1-1.2,6.4-4v-17h4.1v23.9h-3.4l-0.3-3.7h-0.1
			c-2.2,2.6-4.6,4.3-7.9,4.3C789.2,267.5,786.9,264.2,786.9,258.1z"/>
		<path class="st10" d="M813.2,264.4c0-1.9,1.3-3.1,2.9-3.1s2.9,1.3,2.9,3.1c0,1.8-1.3,3.1-2.9,3.1S813.2,266.2,813.2,264.4z"/>
	</g>
</g>
</svg>
