<?xml version="1.0" encoding="utf-8"?>
<!-- Generator: Adobe Illustrator 16.0.4, SVG Export Plug-In . SVG Version: 6.00 Build 0)  -->
<!DOCTYPE svg PUBLIC "-//W3C//DTD SVG 1.1//EN" "http://www.w3.org/Graphics/SVG/1.1/DTD/svg11.dtd">
<svg version="1.1" id="Layer_1" xmlns="http://www.w3.org/2000/svg" xmlns:xlink="http://www.w3.org/1999/xlink" x="0px" y="0px"
	 width="145px" height="33px" viewBox="0 0 145 33" enable-background="new 0 0 145 33" xml:space="preserve">
<g>
	<polygon fill="#004A8F" points="90.795,31.766 90.375,31.766 89.129,29.335 89.129,31.766 88.779,31.766 88.779,28.945 
		89.311,28.945 90.445,31.178 90.445,28.945 90.795,28.945 	"/>
	<path fill="#004A8F" d="M94.051,30.709c0-0.272-0.051-0.478-0.149-0.611c-0.101-0.133-0.243-0.199-0.427-0.199
		c-0.186,0-0.328,0.066-0.429,0.199c-0.101,0.134-0.151,0.339-0.151,0.611c0,0.266,0.051,0.466,0.151,0.604
		c0.101,0.136,0.243,0.205,0.429,0.205c0.184,0,0.324-0.067,0.425-0.203C94,31.182,94.051,30.979,94.051,30.709 M94.418,30.709
		c0,0.355-0.086,0.63-0.257,0.824c-0.173,0.194-0.4,0.29-0.687,0.29c-0.294,0-0.526-0.099-0.694-0.3
		c-0.168-0.199-0.252-0.471-0.252-0.814c0-0.354,0.086-0.629,0.26-0.824c0.174-0.196,0.402-0.294,0.687-0.294
		c0.286,0,0.514,0.098,0.687,0.292C94.332,30.08,94.418,30.354,94.418,30.709"/>
	<path fill="#004A8F" d="M97.769,31.766h-0.356v-0.234c-0.108,0.096-0.213,0.168-0.312,0.218c-0.097,0.051-0.208,0.074-0.329,0.074
		c-0.093,0-0.18-0.015-0.261-0.045c-0.082-0.029-0.152-0.078-0.213-0.145c-0.06-0.065-0.107-0.147-0.141-0.247
		c-0.034-0.101-0.05-0.222-0.05-0.363v-1.374h0.355v1.206c0,0.111,0.004,0.204,0.012,0.278c0.009,0.075,0.027,0.14,0.057,0.195
		c0.028,0.054,0.068,0.092,0.118,0.118c0.05,0.025,0.121,0.037,0.216,0.037c0.086,0,0.179-0.024,0.277-0.071
		c0.099-0.052,0.189-0.111,0.271-0.184v-1.58h0.356V31.766z"/>
	<polygon fill="#004A8F" points="101.284,29.649 100.488,31.766 100.167,31.766 99.376,29.649 99.761,29.649 100.34,31.282 
		100.914,29.649 	"/>
	<path fill="#004A8F" d="M104.228,30.472c-0.003-0.096-0.015-0.179-0.035-0.248c-0.02-0.068-0.049-0.128-0.087-0.177
		c-0.041-0.052-0.094-0.093-0.16-0.12c-0.064-0.028-0.146-0.042-0.241-0.042c-0.094,0-0.175,0.015-0.241,0.042
		c-0.067,0.03-0.128,0.07-0.182,0.125c-0.053,0.056-0.092,0.117-0.121,0.185c-0.027,0.067-0.045,0.146-0.053,0.235H104.228z
		 M103.811,31.814c-0.338,0-0.599-0.095-0.785-0.284c-0.187-0.19-0.279-0.46-0.279-0.812c0-0.343,0.09-0.618,0.27-0.821
		c0.181-0.204,0.418-0.307,0.709-0.307c0.132,0,0.247,0.02,0.349,0.057c0.101,0.038,0.189,0.098,0.265,0.179
		s0.134,0.179,0.175,0.296c0.04,0.116,0.06,0.26,0.06,0.43v0.193h-1.465c0,0.246,0.062,0.435,0.186,0.564
		c0.124,0.13,0.295,0.194,0.514,0.194c0.078,0,0.155-0.01,0.229-0.027c0.075-0.017,0.143-0.039,0.204-0.066
		c0.063-0.029,0.119-0.058,0.162-0.085c0.045-0.027,0.081-0.052,0.11-0.076h0.021v0.387c-0.041,0.018-0.093,0.037-0.154,0.063
		c-0.062,0.023-0.118,0.042-0.167,0.057c-0.068,0.018-0.134,0.033-0.188,0.044C103.967,31.809,103.896,31.814,103.811,31.814"/>
	<rect x="106.28" y="28.818" fill="#004A8F" width="0.355" height="2.947"/>
	<rect x="108.503" y="28.818" fill="#004A8F" width="0.356" height="2.947"/>
	<path fill="#004A8F" d="M112.056,30.472c-0.003-0.096-0.015-0.179-0.034-0.248c-0.021-0.068-0.05-0.128-0.087-0.177
		c-0.042-0.052-0.096-0.093-0.16-0.12c-0.064-0.028-0.146-0.042-0.241-0.042c-0.095,0-0.176,0.015-0.241,0.042
		c-0.067,0.03-0.127,0.07-0.182,0.125c-0.054,0.056-0.094,0.117-0.121,0.185c-0.028,0.067-0.046,0.146-0.054,0.235H112.056z
		 M111.639,31.814c-0.337,0-0.599-0.095-0.785-0.284c-0.186-0.19-0.278-0.46-0.278-0.812c0-0.343,0.089-0.618,0.271-0.821
		c0.18-0.204,0.415-0.307,0.708-0.307c0.131,0,0.247,0.02,0.349,0.057c0.101,0.038,0.189,0.098,0.266,0.179
		c0.074,0.081,0.133,0.179,0.174,0.296c0.04,0.116,0.06,0.26,0.06,0.43v0.193h-1.466c0,0.246,0.062,0.435,0.186,0.564
		c0.124,0.13,0.295,0.194,0.514,0.194c0.078,0,0.155-0.01,0.23-0.027c0.075-0.017,0.144-0.039,0.203-0.066
		c0.064-0.029,0.119-0.058,0.163-0.085s0.08-0.052,0.11-0.076h0.021v0.387c-0.042,0.018-0.093,0.037-0.154,0.063
		c-0.062,0.023-0.118,0.042-0.168,0.057c-0.068,0.018-0.132,0.033-0.188,0.044C111.795,31.809,111.725,31.814,111.639,31.814"/>
	<rect x="114.013" y="30.36" fill="#004A8F" width="1.069" height="0.344"/>
	<path fill="#004A8F" d="M117.977,31.815c-0.184,0-0.353-0.029-0.508-0.093c-0.154-0.062-0.289-0.152-0.4-0.275
		c-0.111-0.122-0.2-0.274-0.261-0.458c-0.062-0.185-0.093-0.394-0.093-0.632c0-0.235,0.029-0.44,0.089-0.617
		c0.06-0.175,0.148-0.328,0.264-0.457c0.111-0.127,0.245-0.224,0.399-0.289c0.153-0.066,0.326-0.1,0.517-0.1
		c0.094,0,0.183,0.006,0.267,0.02c0.083,0.015,0.159,0.033,0.229,0.054c0.062,0.02,0.123,0.042,0.188,0.071
		c0.063,0.028,0.127,0.06,0.188,0.095v0.451h-0.03c-0.032-0.029-0.075-0.066-0.127-0.109c-0.052-0.042-0.114-0.086-0.188-0.126
		c-0.073-0.039-0.151-0.072-0.235-0.098c-0.085-0.025-0.183-0.037-0.295-0.037c-0.12,0-0.233,0.024-0.34,0.073
		c-0.106,0.05-0.201,0.123-0.281,0.219s-0.143,0.216-0.187,0.36c-0.044,0.146-0.066,0.31-0.066,0.49c0,0.194,0.023,0.36,0.07,0.499
		c0.047,0.14,0.11,0.259,0.191,0.354c0.078,0.095,0.17,0.164,0.276,0.211c0.105,0.049,0.218,0.071,0.336,0.071
		c0.109,0,0.21-0.013,0.303-0.039c0.093-0.027,0.175-0.06,0.245-0.101c0.07-0.039,0.13-0.079,0.181-0.12
		c0.05-0.04,0.09-0.077,0.119-0.104h0.028v0.446c-0.062,0.029-0.12,0.056-0.176,0.083c-0.055,0.027-0.121,0.053-0.2,0.077
		c-0.081,0.026-0.157,0.047-0.228,0.061C118.181,31.811,118.091,31.815,117.977,31.815"/>
	<path fill="#004A8F" d="M121.697,31.244v-0.587c-0.085,0.008-0.192,0.018-0.321,0.032c-0.129,0.012-0.234,0.031-0.313,0.056
		c-0.095,0.029-0.173,0.073-0.235,0.133c-0.062,0.061-0.094,0.143-0.094,0.251c0,0.122,0.035,0.213,0.104,0.274
		s0.168,0.093,0.299,0.093c0.113,0,0.214-0.023,0.305-0.071C121.531,31.375,121.616,31.316,121.697,31.244 M121.697,31.54
		c-0.03,0.021-0.068,0.052-0.117,0.09c-0.049,0.039-0.095,0.069-0.142,0.092c-0.062,0.032-0.124,0.059-0.182,0.076
		c-0.06,0.017-0.143,0.025-0.247,0.025c-0.087,0-0.17-0.015-0.249-0.048c-0.078-0.033-0.147-0.08-0.206-0.138
		c-0.057-0.059-0.104-0.131-0.137-0.217c-0.034-0.085-0.051-0.175-0.051-0.27c0-0.146,0.031-0.271,0.093-0.374
		c0.062-0.103,0.159-0.184,0.293-0.244c0.119-0.056,0.259-0.094,0.42-0.113c0.162-0.021,0.336-0.037,0.524-0.045v-0.07
		c0-0.084-0.014-0.149-0.039-0.201c-0.024-0.05-0.061-0.091-0.106-0.118c-0.045-0.029-0.101-0.049-0.166-0.059
		c-0.065-0.009-0.133-0.013-0.202-0.013c-0.082,0-0.179,0.012-0.29,0.037c-0.111,0.024-0.224,0.061-0.333,0.105h-0.021v-0.36
		c0.064-0.02,0.159-0.04,0.281-0.063c0.123-0.022,0.244-0.034,0.364-0.034c0.145,0,0.268,0.012,0.366,0.034
		c0.1,0.023,0.19,0.065,0.27,0.124c0.077,0.058,0.135,0.133,0.173,0.224c0.037,0.094,0.055,0.204,0.055,0.338v1.447h-0.352V31.54z"
		/>
	<rect x="123.896" y="28.818" fill="#004A8F" width="0.356" height="2.947"/>
	<path fill="#004A8F" d="M127.539,28.592l-0.518,0.708h-0.282l0.34-0.708H127.539z M127.448,30.472
		c-0.003-0.096-0.014-0.179-0.034-0.248c-0.021-0.068-0.049-0.128-0.087-0.177c-0.041-0.052-0.095-0.093-0.161-0.12
		c-0.064-0.028-0.145-0.042-0.241-0.042c-0.094,0-0.174,0.015-0.24,0.042c-0.068,0.03-0.128,0.07-0.182,0.125
		c-0.053,0.056-0.093,0.117-0.122,0.185c-0.027,0.067-0.045,0.146-0.052,0.235H127.448z M127.031,31.814
		c-0.337,0-0.599-0.095-0.785-0.284c-0.187-0.19-0.279-0.46-0.279-0.812c0-0.343,0.09-0.618,0.271-0.821
		c0.182-0.204,0.418-0.307,0.709-0.307c0.131,0,0.247,0.02,0.349,0.057c0.101,0.038,0.189,0.098,0.265,0.179
		c0.076,0.081,0.134,0.179,0.175,0.296c0.039,0.116,0.06,0.26,0.06,0.43v0.193h-1.465c0,0.246,0.062,0.435,0.187,0.564
		c0.122,0.13,0.294,0.194,0.513,0.194c0.078,0,0.154-0.01,0.229-0.027c0.077-0.017,0.144-0.039,0.205-0.066
		c0.063-0.029,0.118-0.058,0.163-0.085c0.044-0.027,0.08-0.052,0.109-0.076h0.021v0.389c-0.042,0.016-0.094,0.035-0.155,0.062
		c-0.062,0.023-0.117,0.042-0.166,0.057c-0.07,0.018-0.134,0.033-0.189,0.044C127.188,31.809,127.117,31.814,127.031,31.814"/>
	<path fill="#004A8F" d="M130.766,31.251V30.03c-0.089-0.043-0.168-0.073-0.239-0.089c-0.069-0.016-0.145-0.024-0.228-0.024
		c-0.183,0-0.326,0.068-0.43,0.206c-0.103,0.137-0.155,0.333-0.155,0.593c0,0.25,0.039,0.439,0.12,0.57
		c0.078,0.132,0.206,0.198,0.383,0.198c0.093,0,0.188-0.021,0.282-0.063C130.593,31.379,130.682,31.322,130.766,31.251
		 M131.122,31.766h-0.356v-0.217c-0.057,0.048-0.104,0.085-0.144,0.116c-0.041,0.03-0.089,0.058-0.143,0.084
		c-0.05,0.023-0.103,0.042-0.157,0.055c-0.056,0.014-0.117,0.02-0.19,0.02c-0.113,0-0.221-0.023-0.318-0.07
		c-0.098-0.05-0.181-0.119-0.248-0.212c-0.071-0.093-0.125-0.208-0.162-0.345s-0.057-0.294-0.057-0.473
		c0-0.185,0.023-0.346,0.072-0.481c0.048-0.137,0.114-0.255,0.199-0.355c0.076-0.093,0.17-0.164,0.278-0.218
		c0.11-0.051,0.225-0.078,0.344-0.078c0.106,0,0.198,0.012,0.277,0.036c0.078,0.022,0.16,0.059,0.248,0.108v-0.917h0.356V31.766z"/>
	<path fill="#004A8F" d="M134.348,30.709c0-0.272-0.051-0.478-0.15-0.611c-0.1-0.133-0.241-0.199-0.425-0.199
		c-0.186,0-0.329,0.066-0.43,0.199c-0.101,0.134-0.15,0.339-0.15,0.611c0,0.266,0.05,0.466,0.15,0.604
		c0.101,0.136,0.244,0.205,0.43,0.205c0.184,0,0.324-0.067,0.425-0.203C134.297,31.182,134.348,30.979,134.348,30.709
		 M134.715,30.709c0,0.355-0.085,0.63-0.258,0.824c-0.171,0.194-0.399,0.29-0.685,0.29c-0.294,0-0.526-0.099-0.694-0.3
		c-0.168-0.199-0.253-0.471-0.253-0.814c0-0.354,0.087-0.629,0.26-0.824c0.175-0.196,0.403-0.294,0.688-0.294
		c0.285,0,0.514,0.098,0.685,0.292C134.63,30.08,134.715,30.354,134.715,30.709"/>
	<path fill="#004A8F" d="M138.082,31.766h-0.356V30.56c0-0.096-0.005-0.187-0.015-0.271c-0.009-0.085-0.027-0.151-0.054-0.201
		c-0.028-0.053-0.069-0.092-0.122-0.119c-0.051-0.025-0.123-0.039-0.211-0.039c-0.089,0-0.18,0.024-0.274,0.072
		c-0.094,0.047-0.187,0.108-0.275,0.185v1.579h-0.356v-2.116h0.356v0.235c0.106-0.094,0.211-0.167,0.314-0.218
		c0.103-0.05,0.213-0.076,0.328-0.076c0.208,0,0.371,0.068,0.489,0.206c0.117,0.138,0.176,0.336,0.176,0.596V31.766z"/>
	<path fill="#004A8F" d="M139.927,31.766h0.355v-2.116h-0.355V31.766z M139.903,29.296h0.405v-0.37h-0.405V29.296z"/>
	<path fill="#004A8F" d="M143.479,30.472c-0.003-0.096-0.013-0.179-0.034-0.248c-0.02-0.068-0.049-0.128-0.086-0.177
		c-0.042-0.052-0.096-0.093-0.161-0.12c-0.063-0.028-0.144-0.042-0.241-0.042c-0.094,0-0.175,0.015-0.24,0.042
		c-0.068,0.03-0.127,0.07-0.182,0.125c-0.053,0.056-0.094,0.117-0.122,0.185c-0.027,0.067-0.045,0.146-0.053,0.235H143.479z
		 M143.062,31.814c-0.337,0-0.598-0.095-0.784-0.284c-0.186-0.19-0.279-0.46-0.279-0.812c0-0.343,0.09-0.618,0.271-0.821
		c0.182-0.204,0.417-0.307,0.708-0.307c0.132,0,0.247,0.02,0.35,0.057c0.101,0.038,0.188,0.098,0.265,0.179s0.135,0.179,0.175,0.296
		c0.04,0.116,0.061,0.26,0.061,0.43v0.193h-1.467c0,0.246,0.062,0.435,0.187,0.564c0.123,0.13,0.294,0.194,0.513,0.194
		c0.078,0,0.155-0.01,0.23-0.027c0.075-0.017,0.144-0.039,0.204-0.066c0.062-0.029,0.118-0.058,0.162-0.085s0.08-0.052,0.11-0.076
		h0.021v0.387c-0.041,0.018-0.094,0.037-0.155,0.063c-0.062,0.023-0.117,0.042-0.167,0.057c-0.069,0.018-0.132,0.033-0.188,0.044
		C143.219,31.809,143.149,31.814,143.062,31.814"/>
	<path fill="#004A8F" d="M42.948,17.695l-0.779-4.717l-3.378,4.718L42.948,17.695z M29.751,23.213L40.569,8.904l5.579-0.002
		l2.939,14.308l-5.265,0.001l-0.468-2.922l-6.4,0.002l-2.076,2.922H29.751z"/>
	<path fill="#004A8F" d="M60.114,10.88h-4.801l0.722-2.624l4.8-0.001L60.114,10.88z M56.716,23.208H51.93l2.971-10.79l4.786-0.002
		L56.716,23.208z"/>
	<path fill="#004A8F" d="M73.878,15.594h-0.396c-0.17-0.045-0.426-0.078-0.766-0.1c-0.339-0.023-0.72-0.035-1.139-0.035
		c-0.502,0.002-1.042,0.053-1.623,0.154s-1.148,0.225-1.707,0.367l-1.99,7.227h-4.786l2.971-10.791l4.786-0.002l-0.426,1.546
		c0.257-0.141,0.609-0.318,1.056-0.532c0.446-0.215,0.847-0.388,1.201-0.515c0.387-0.147,0.826-0.275,1.316-0.38
		c0.488-0.106,0.938-0.159,1.349-0.159c0.154,0,0.327,0.004,0.517,0.009c0.19,0.007,0.36,0.017,0.512,0.029L73.878,15.594z"/>
	<path fill="#004A8F" d="M82.163,23.492c-1.268,0-2.396-0.113-3.388-0.337c-0.991-0.223-1.811-0.57-2.456-1.037
		c-0.637-0.468-1.072-1.057-1.307-1.763c-0.233-0.708-0.217-1.542,0.047-2.503c0.284-1.03,0.758-1.911,1.423-2.634
		c0.664-0.725,1.457-1.32,2.379-1.787c0.89-0.449,1.881-0.78,2.975-0.994c1.093-0.218,2.2-0.323,3.322-0.323
		c0.848,0,1.677,0.067,2.487,0.205c0.81,0.139,1.602,0.357,2.376,0.659l-0.795,2.882h-0.615c-0.156-0.129-0.352-0.27-0.587-0.424
		c-0.236-0.152-0.501-0.295-0.794-0.424c-0.31-0.135-0.67-0.246-1.082-0.34c-0.412-0.092-0.887-0.139-1.424-0.139
		c-1.223,0-2.251,0.299-3.086,0.898c-0.834,0.6-1.391,1.404-1.67,2.417c-0.298,1.084-0.162,1.892,0.407,2.423
		c0.568,0.53,1.445,0.797,2.632,0.797c0.601,0,1.143-0.049,1.625-0.145c0.482-0.098,0.906-0.211,1.271-0.347
		c0.356-0.136,0.667-0.274,0.936-0.418c0.268-0.145,0.499-0.273,0.695-0.39h0.615l-0.794,2.883c-0.296,0.082-0.64,0.179-1.029,0.288
		c-0.391,0.11-0.782,0.198-1.175,0.271c-0.489,0.088-0.944,0.157-1.363,0.206C83.37,23.466,82.828,23.492,82.163,23.492"/>
	<path fill="#004A8F" d="M99.779,20.384l0.619-2.247c-0.827,0.057-1.497,0.106-2.01,0.148c-0.513,0.041-1.027,0.122-1.544,0.246
		c-0.449,0.102-0.816,0.258-1.106,0.465c-0.29,0.208-0.482,0.486-0.578,0.831c-0.139,0.506-0.041,0.854,0.294,1.043
		c0.336,0.189,0.882,0.284,1.638,0.284c0.421,0,0.868-0.068,1.342-0.203S99.357,20.627,99.779,20.384 M99.319,22.056
		c-0.381,0.192-0.722,0.364-1.025,0.52c-0.302,0.154-0.692,0.307-1.173,0.461c-0.469,0.147-0.917,0.26-1.344,0.337
		c-0.427,0.078-1.004,0.116-1.734,0.116c-1.357,0-2.397-0.32-3.119-0.961c-0.723-0.641-0.948-1.447-0.681-2.421
		c0.221-0.801,0.626-1.447,1.218-1.941c0.593-0.493,1.355-0.883,2.292-1.174c0.947-0.293,2.039-0.5,3.273-0.615
		c1.236-0.115,2.554-0.205,3.957-0.27l0.016-0.057c0.164-0.596-0.034-1.008-0.597-1.236c-0.561-0.225-1.467-0.34-2.715-0.34
		c-0.565,0-1.247,0.072-2.043,0.219c-0.796,0.141-1.586,0.326-2.367,0.551h-0.41l0.717-2.603c0.5-0.098,1.297-0.21,2.391-0.342
		c1.094-0.133,2.179-0.198,3.254-0.198c2.645,0,4.484,0.31,5.521,0.926c1.039,0.618,1.383,1.563,1.034,2.831l-2.021,7.341
		l-4.76,0.002L99.319,22.056z"/>
	<polygon fill="#004A8F" points="113.184,23.197 108.397,23.197 112.513,8.247 117.299,8.246 	"/>
	<path fill="#004A8F" d="M126.125,10.866l-4.793,0.002l0.722-2.622l4.793-0.002L126.125,10.866z M122.726,23.194l-4.786,0.001
		l2.971-10.792h4.787L122.726,23.194z"/>
	<path fill="#004A8F" d="M141.868,23.191l-4.812,0.002l1.472-5.354c0.121-0.436,0.215-0.871,0.283-1.303
		c0.07-0.432,0.063-0.75-0.016-0.955c-0.098-0.244-0.287-0.418-0.568-0.523c-0.279-0.105-0.679-0.16-1.199-0.158
		c-0.393,0-0.803,0.053-1.232,0.152c-0.43,0.105-0.902,0.268-1.42,0.492l-2.106,7.648l-4.786,0.001l2.971-10.792h4.787l-0.328,1.192
		c0.912-0.468,1.777-0.833,2.593-1.094c0.814-0.265,1.673-0.396,2.576-0.396c1.567-0.002,2.671,0.347,3.309,1.041
		c0.639,0.695,0.775,1.703,0.412,3.023L141.868,23.191z"/>
	<path fill="#00B1EB" d="M29.277,26.122c0,0,57.777-0.879,114.708-0.12C143.984,26.002,84.765,27.123,29.277,26.122"/>
	<path fill="#F04923" d="M10.272,15.457c0,0-1.45-6.034,1.86-7c3.309-0.965,3.786,0.518,3.786,0.518l0.115,0.805l0.875-0.408
		l0.206,1.199c0,0,2.53-0.44,2.23,0.666c-0.301,1.108-4.627,2.166-5.233,4.658c0,0,6.538-4.401,9.579-3.507
		c3.043,0.897,1.822,2.214,1.822,2.214l0.677,0.537l-0.8,0.738l1.391,2.451c0,0-0.05,2.503-3.775,3.77l-5.006-2.522
		c0,0,4.707,3.63,3.244,6.316c-1.462,2.689-3.108,1.542-3.108,1.542l-0.791-1.342l-0.645,1.116l-0.567-0.354
		c0,0-4.067,1.274-4.457,1.088c-0.389-0.188-0.873-3.812,0.44-5.638c1.313-1.823-0.085,0.229-0.085,0.229s-3.21,1.702-4.524,4.425
		c-1.316,2.723-3.708-0.466-3.708-0.466l0.185-1.013l-0.623,0.003L1.557,24.86c0,0-1.61-4.618,0.645-6.862
		c2.254-2.248,1.727-1.229,1.727-1.229L3.38,15.582l1.076,0.168c0,0,1.115-3.299,1.853-3.4c0.738-0.099,3.21,5.564,5.313,5.984
		C13.726,18.753,10.493,16.725,10.272,15.457"/>
	<path fill="#FDB913" d="M23.887,7.866c-0.194-0.338-0.791-0.196-1.333,0.314c-0.119,0.11-0.223,0.232-0.314,0.357
		c0.04-0.159,0.035-0.301-0.022-0.402c-0.156-0.27-0.633-0.157-1.066,0.251c-0.434,0.409-0.659,0.961-0.504,1.231
		c0.156,0.27,0.634,0.157,1.067-0.252c0.079-0.074,0.146-0.153,0.21-0.232c-0.038,0.118-0.058,0.232-0.057,0.334
		c-3.343,4.933-6.201,7.611-7.446,8.659c-0.306-0.568-1.245-2.323-1.759-3.37c0.328,1.521,0.398,4.618,0.398,4.618l-1.992-0.193
		c0,0,0.212,0.926-0.32,0.722c-0.533-0.202-2.102-1.385-2.339-1.005c-0.237,0.378,1.895,1.189,0.728,1.05
		C7.969,19.81,5.83,21.101,5.83,21.101c3.445-0.544,4.174-0.549,4.174-0.549l2.017-0.05c0.082,0.712,1.171,0.869,1.592,0.935
		c0.421,0.065,0.276-1.278,0.801-0.751c0.527,0.53,1.306,2.866,1.306,2.866c0.107-0.593-0.357-3.327-0.357-3.327
		s0.485,0.701,0.805,1.033c0.319,0.333,0.901,0.039,0.938-0.863c0.037-0.9-1.859-1.035-0.98-1.804
		c0.878-0.768,2.957,0.696,3.272,0.299c0.314-0.396-0.638-1.55-0.638-1.55c0.291-0.148,3.809-1.439,3.809-1.439
		c-1.614-0.031-4.963,1.184-6.792,1.9c1.257-2,4.034-5.125,5.988-7.239c-0.021,0.127-0.01,0.24,0.039,0.325
		c0.155,0.269,0.633,0.156,1.066-0.252c0.435-0.408,0.66-0.961,0.505-1.231c-0.015-0.026-0.035-0.044-0.055-0.062
		C23.819,8.837,24.074,8.19,23.887,7.866"/>
	<path fill="#FDB913" d="M25.808,3.075c0.434-0.409,0.659-0.961,0.504-1.232c-0.156-0.271-0.633-0.157-1.066,0.254
		c-0.435,0.409-0.659,0.96-0.504,1.229C24.896,3.597,25.374,3.485,25.808,3.075"/>
	<path fill="#FDB913" d="M22.804,5.936c0.347-0.327,0.526-0.767,0.403-0.984c-0.125-0.216-0.507-0.127-0.854,0.201
		s-0.527,0.77-0.402,0.985C22.074,6.355,22.457,6.264,22.804,5.936"/>
	<path fill="#FDB913" d="M28.274,1.294c-0.125-0.216-0.506-0.126-0.853,0.201c-0.347,0.329-0.528,0.77-0.403,0.986
		c0.125,0.218,0.507,0.125,0.854-0.201C28.218,1.952,28.398,1.512,28.274,1.294"/>
	<path fill="#FDB913" d="M25.475,7.356c-0.434,0.41-0.659,0.961-0.504,1.231c0.156,0.27,0.633,0.159,1.066-0.251
		c0.434-0.409,0.659-0.962,0.504-1.231C26.386,6.834,25.908,6.946,25.475,7.356"/>
	<path fill="#FDB913" d="M25.935,4.461c-0.194-0.339-0.791-0.196-1.332,0.316c-0.542,0.512-0.824,1.199-0.63,1.539
		c0.194,0.337,0.792,0.197,1.333-0.315C25.85,5.49,26.13,4.799,25.935,4.461"/>
	<path fill="#FDB913" d="M12.662,14.756c-0.076-0.35-0.165-0.617-0.27-0.744C12.212,13.793,12.368,14.158,12.662,14.756"/>
</g>
</svg>
