<?xml version="1.0" encoding="utf-8"?>
<!-- Generator: Adobe Illustrator 22.1.0, SVG Export Plug-In . SVG Version: 6.00 Build 0)  -->
<svg version="1.1" id="svg2367" xmlns:svg="http://www.w3.org/2000/svg"
	 xmlns="http://www.w3.org/2000/svg" xmlns:xlink="http://www.w3.org/1999/xlink" x="0px" y="0px" width="136.774px" height="23px"
	 viewBox="0 0 136.774 23" style="enable-background:new 0 0 136.774 23;" xml:space="preserve">
<style type="text/css">
	.st0{fill:#163A90;}
	.st1{fill:#FCFFFF;}
	.st2{fill:#000407;}
</style>
<g id="g6769" transform="translate(-44.373132,175.79259)">
	<path id="path5553" class="st0" d="M44.864-175.793c-0.27,0-0.49,0.221-0.49,0.49v22.019c0,0.27,0.221,0.49,0.49,0.49h22.019
		c0.27,0,0.466-0.221,0.466-0.49v-22.019c0-0.27-0.196-0.49-0.466-0.49H44.864"/>
	<path id="path5555" class="st1" d="M58.865-165.126c-0.785,0-1.765,0-1.913,0l-0.221,0.098l-5.321,6.62l0.025,0.123
		c0.123,0,0.466,0,0.638,0l0.147-0.049l1.422-1.839l0.074-0.025h1.765l0.049,0.025l-0.368,1.815l0.098,0.074c0.245,0,2.035,0,2.28,0
		l0.098-0.049c0,0,0.27-1.373,1.3-6.694L58.865-165.126z M54.157-160.811l1.913-2.501l0.049-0.025v0.025l-0.466,2.501l-0.049,0.025
		h-1.422L54.157-160.811"/>
	<path id="path5557" class="st1" d="M46.433-159.192c-0.025,0.098,0.025,0.221,0.172,0.343c0.27,0.221,1.079,0.687,2.354,0.687
		c2.305,0,3.163-1.496,2.869-2.746c-0.074-0.343-0.539-2.182-0.588-2.428c-0.196-0.736,0.172-1.251,0.834-1.251
		c0.588,0,0.981,0.221,1.324,0.441l0.123-0.074l0.074-0.441c0,0,0.049-0.123-0.098-0.196c-0.196-0.123-0.736-0.417-1.864-0.417
		c-2.06,0-2.967,1.349-2.599,2.771c0.123,0.466,0.588,2.256,0.588,2.575c0,0.147,0.074,1.054-1.005,1.079
		c-0.956,0-1.667-0.687-1.888-0.907l-0.147,0.049L46.433-159.192"/>
	<path id="path5559" class="st1" d="M58.227-159.143c-0.025,0.074,0.025,0.196,0.172,0.319c0.27,0.221,1.005,0.662,2.305,0.662
		c2.305,0,3.163-1.496,2.869-2.746c-0.074-0.343-0.539-2.182-0.613-2.428c-0.172-0.736,0.172-1.251,0.858-1.251
		c0.588,0,0.981,0.221,1.324,0.441l0.123-0.074l0.074-0.441c0,0,0.049-0.123-0.098-0.196c-0.221-0.123-0.736-0.417-1.864-0.417
		c-2.084,0-2.967,1.349-2.599,2.771c0.123,0.466,0.588,2.256,0.588,2.575c0,0.147,0.074,1.054-1.005,1.079
		c-0.956,0-1.667-0.687-1.888-0.907l-0.147,0.049L58.227-159.143"/>
	<path id="path5561" class="st2" d="M156.087-163.581v-1.545h-1.128v6.841h1.128v-3.237c0-0.932,0.245-2.477,1.888-2.477h0.319v-1.3
		h-0.025C157.24-165.298,156.48-164.44,156.087-163.581"/>
	<path id="path5563" class="st2" d="M167.759-165.298c-1.373,0-2.06,1.005-2.452,1.79v-1.618h-1.079v6.841h1.103v-2.942
		c0-1.3,0.638-3.139,2.06-3.139c0.907,0,0.907,0.907,0.907,1.667v4.414h1.128v-5.198c0-0.441-0.123-0.883-0.392-1.201
		C168.74-165.077,168.299-165.298,167.759-165.298"/>
	<path id="path5565" class="st2" d="M173.35-165.322c-0.981,0-1.692,0.343-2.158,0.981c-0.441,0.564-0.638,1.398-0.638,2.427
		c0,2.428,1.226,3.801,3.384,3.801c0.76,0,1.103-0.098,1.618-0.221l0.074-0.049h0.049v-0.687l-0.049,0.025l-0.196,0.049
		c-0.294,0.074-0.564,0.147-1.054,0.147c-2.256,0-2.575-1.839-2.575-3.654h3.997v-0.025c0-0.294,0-0.981-0.319-1.594
		C175.115-164.906,174.38-165.322,173.35-165.322z M171.829-163.189c0.025-0.441,0.294-1.496,1.422-1.496
		c1.128,0,1.373,0.809,1.373,1.496H171.829"/>
	<path id="path5567" class="st2" d="M179.97-162.012c-0.319-0.172-0.613-0.343-0.883-0.466c-0.736-0.392-1.275-0.687-1.275-1.275
		c0-0.564,0.613-0.785,1.152-0.785c0.736,0,1.422,0.392,1.667,0.539h0.025l0.049,0.025v-0.981h-0.025l-0.294-0.098
		c-0.294-0.098-0.785-0.27-1.3-0.27c-1.52,0-2.354,0.687-2.354,1.913c0,1.005,0.76,1.422,1.496,1.839l0.368,0.196l0.294,0.196
		c0.662,0.368,1.152,0.638,1.152,1.226c0,0.662-0.539,1.079-1.398,1.079c-0.392,0-1.03-0.123-1.888-0.638l-0.025-0.025l-0.049-0.025
		v1.005l0.025,0.025l0.147,0.049c0.319,0.147,0.907,0.368,1.716,0.368c1.913,0,2.575-1.054,2.575-2.06
		C181.147-161.178,180.583-161.644,179.97-162.012"/>
	<path id="path5569" class="st2" d="M152.458-165.126h-0.025v6.841h1.103v-6.841H152.458"/>
	<path id="path5571" class="st2" d="M153.513-166.622h0.025v-1.3h-1.128v1.3H153.513"/>
	<path id="path5573" class="st2" d="M159.177-167.946h-0.025v9.661h1.128v-9.661H159.177"/>
	<path id="path5575" class="st2" d="M161.703-165.126h-0.025v6.841h1.128v-6.841H161.703"/>
	<path id="path5577" class="st2" d="M162.757-166.622h0.049v-1.3h-1.128v1.3H162.757"/>
	<path id="path5579" class="st2" d="M148.265-167.922h-1.349v0.025l-3.237,9.612h1.128l0.907-2.844h3.604l0.907,2.844h1.3
		l-3.261-9.612V-167.922z M145.985-161.988l1.52-4.732l1.52,4.732H145.985"/>
	<path id="path5581" class="st2" d="M105.625-166.622h0.025v-1.3h-1.128v1.3H105.625"/>
	<path id="path5583" class="st2" d="M126.516-166.622h0.025v-1.3h-1.128v1.3H126.516"/>
	<path id="path5585" class="st2" d="M75.097-158.113c2.084,0,3.359-1.005,3.359-2.697c0-1.226-0.466-1.667-1.545-2.403
		c-0.343-0.221-0.736-0.417-1.079-0.588c-0.981-0.49-1.913-0.956-1.913-1.937c0-0.809,0.662-1.349,1.618-1.349
		c1.079,0,2.06,0.441,2.256,0.515l0.049,0.025v-1.03h-0.025c-0.441-0.123-1.349-0.343-2.06-0.343c-0.883,0-1.667,0.221-2.182,0.638
		c-0.539,0.417-0.809,1.03-0.809,1.79c0,1.324,0.834,1.962,1.569,2.354c0.245,0.147,0.49,0.27,0.711,0.368
		c1.128,0.588,2.109,1.079,2.109,2.158c0,1.03-0.687,1.618-1.888,1.618c-0.858,0-1.765-0.343-2.378-0.638h-0.025v1.128h0.025
		l0.025,0.025C73.258-158.383,73.994-158.113,75.097-158.113"/>
	<path id="path5587" class="st2" d="M87.774-165.298c-1.569,0-2.403,0.662-2.526,1.962v0.049h1.3v-0.049
		c0.049-0.515,0.123-1.324,1.177-1.324c1.03,0,1.177,0.883,1.177,1.741v0.736c-1.079,0.074-3.825,0.245-3.825,2.329
		c0,0.466,0.172,0.883,0.515,1.226s0.834,0.515,1.349,0.515c1.152,0,1.765-0.785,1.962-1.079v0.932h1.103v-4.732
		C90.005-163.974,89.785-165.298,87.774-165.298z M88.902-160.713c0,1.005-0.711,1.814-1.594,1.814
		c-0.638,0-1.054-0.441-1.054-1.103c0-0.883,0.883-1.398,2.599-1.496h0.049V-160.713"/>
	<path id="path5589" class="st2" d="M95.375-162.699v4.438h1.128v-5.223c0-0.417-0.147-0.858-0.392-1.177
		c-0.294-0.417-0.736-0.638-1.275-0.638c-1.373,0-2.035,1.03-2.452,1.79v-1.618h-1.079v6.866h1.128v-2.967
		c0-1.3,0.613-3.114,2.035-3.114C95.375-164.342,95.375-163.434,95.375-162.699"/>
	<path id="path5591" class="st2" d="M99.985-158.113c1.152,0,1.79-0.834,1.986-1.398v1.251h1.152v-9.661h-1.152v3.948
		c-0.147-0.417-0.588-1.324-1.864-1.324c-0.834,0-1.471,0.368-1.913,1.079c-0.392,0.613-0.613,1.52-0.613,2.526
		c0,1.054,0.172,1.888,0.49,2.477C98.465-158.481,99.102-158.113,99.985-158.113z M100.304-164.538c1.251,0,1.667,1.864,1.667,2.722
		c0,1.716-0.711,2.918-1.741,2.918c-1.128,0-1.373-1.471-1.373-2.722C98.857-162.478,99.004-164.538,100.304-164.538"/>
	<path id="path5593" class="st2" d="M110.602-165.298c-1.373,0-2.06,1.03-2.428,1.79v-1.618h-1.103v6.866h1.128v-2.967
		c0-1.3,0.638-3.114,2.035-3.114c0.907,0,0.907,0.907,0.907,1.643v4.438h1.128v-5.223c0-0.417-0.147-0.858-0.392-1.177
		C111.583-165.077,111.142-165.298,110.602-165.298"/>
	<path id="path5595" class="st2" d="M123.672-165.126L123.672-165.126l-0.025,0.025l-1.814,5.272l-2.035-5.272v-0.025h-1.226v0.049
		l2.697,6.792v0.025h1.03v-0.025l2.428-6.792l0.025-0.049H123.672"/>
	<path id="path5597" class="st2" d="M138.654-164.66c-0.319-0.417-0.76-0.638-1.3-0.638c-1.373,0-2.035,1.03-2.427,1.79v-1.618
		h-1.103v6.866h1.128v-2.967c0-1.3,0.638-3.114,2.035-3.114c0.907,0,0.907,0.907,0.907,1.643v4.438h1.128v-5.223
		C139.021-163.9,138.874-164.342,138.654-164.66"/>
	<path id="path5599" class="st2" d="M84.047-158.996c-0.294,0.074-0.515,0.123-0.981,0.123c-2.231,0-2.55-2.06-2.55-3.31
		c0-0.736,0.147-2.477,1.471-2.477c0.736,0,1.103,0.441,1.128,1.324l0.025,0.049h1.275v-0.049c-0.074-0.564-0.27-1.054-0.638-1.373
		c-0.417-0.368-0.981-0.588-1.716-0.588c-1.79,0-2.795,1.226-2.795,3.384c0,1.152,0.245,2.084,0.736,2.697
		c0.588,0.736,1.471,1.103,2.673,1.103c0.638,0,1.079-0.098,1.545-0.245h0.025v-0.687h-0.025L84.047-158.996"/>
	<path id="path5601" class="st2" d="M115.923-165.298c-1.545,0-2.378,0.662-2.501,1.962v0.049h1.3v-0.049
		c0.049-0.539,0.123-1.324,1.177-1.324c1.03,0,1.177,0.883,1.177,1.741v0.736c-1.079,0.074-3.825,0.245-3.825,2.329
		c0,0.466,0.172,0.883,0.515,1.226s0.834,0.515,1.349,0.515c1.152,0,1.765-0.785,1.962-1.079v0.907h1.103v-4.708
		C118.179-163.974,117.958-165.298,115.923-165.298z M117.076-160.713c0,1.005-0.711,1.814-1.594,1.814
		c-0.613,0-1.03-0.441-1.03-1.103c0-0.883,0.858-1.398,2.575-1.496h0.049V-160.713"/>
	<path id="path5603" class="st2" d="M130.292-165.298c-1.545,0-2.403,0.662-2.501,1.962v0.049h1.3v-0.049
		c0.025-0.539,0.098-1.324,1.152-1.324s1.177,0.883,1.177,1.741v0.736c-1.079,0.074-3.825,0.245-3.825,2.329
		c0,0.466,0.196,0.883,0.539,1.226c0.343,0.343,0.809,0.515,1.349,0.515c1.128,0,1.741-0.785,1.937-1.079v0.907h1.128v-4.708
		C132.548-163.974,132.327-165.298,130.292-165.298z M131.42-160.713c0,1.005-0.711,1.814-1.569,1.814
		c-0.638,0-1.054-0.441-1.054-1.103c0-0.883,0.883-1.398,2.575-1.496h0.049V-160.713"/>
	<path id="path5605" class="st2" d="M104.57-165.126h-0.025v6.866h1.103v-6.866H104.57"/>
	<path id="path5607" class="st2" d="M125.462-165.126h-0.049v6.866h1.128v-6.866H125.462"/>
</g>
</svg>
