<?xml version="1.0" encoding="utf-8"?>
<!-- Generator: Adobe Illustrator 22.1.0, SVG Export Plug-In . SVG Version: 6.00 Build 0)  -->
<svg version="1.1" id="Layer_1" xmlns="http://www.w3.org/2000/svg" xmlns:xlink="http://www.w3.org/1999/xlink" x="0px" y="0px"
	 width="170.079px" height="91.021px" viewBox="0 0 170.079 91.021" enable-background="new 0 0 170.079 91.021"
	 xml:space="preserve">
<g>
	<path fill="#0086BE" d="M141.428,91.021h-0.302c-1.128,0-3.014-0.605-3.014-3.332v-5.16c0-0.207,0.148-0.424,0.393-0.424h0.16
		c0.241,0,0.39,0.217,0.39,0.424v5.16c0,1.971,1.043,2.436,2.071,2.436h0.302c1.028,0,2.068-0.465,2.068-2.436v-5.16
		c0-0.207,0.149-0.424,0.393-0.424h0.161c0.24,0,0.392,0.217,0.392,0.424v5.16C144.441,90.416,142.556,91.021,141.428,91.021
		 M135.496,85.962c0-1.932-0.695-3.074-2.468-3.074c-1.772,0-2.468,1.143-2.468,3.074v1.121c0,1.932,0.695,3.074,2.468,3.074
		c1.773,0,2.468-1.143,2.468-3.074V85.962z M133.028,91.021c-2.274,0-3.411-1.479-3.411-3.938v-1.121
		c0-2.457,1.137-3.938,3.411-3.938c2.276,0,3.413,1.481,3.413,3.938v1.121C136.441,89.542,135.305,91.021,133.028,91.021
		 M129.78,79.427l-3.259,6.455v4.619c0,0.207-0.149,0.424-0.391,0.424h-0.16c-0.243,0-0.393-0.217-0.393-0.424v-4.619l-3.262-6.461
		c-0.057-0.096-0.075-0.178-0.075-0.264c0-0.238,0.196-0.344,0.406-0.344h0.175c0.108,0,0.191,0.033,0.253,0.092
		c0.03,0.027,0.052,0.059,0.068,0.088l0.043,0.078l2.864,5.742l2.862-5.742l0.043-0.078c0.019-0.029,0.04-0.061,0.068-0.088
		c0.063-0.059,0.146-0.092,0.253-0.092h0.177c0.208,0,0.407,0.105,0.407,0.344C129.861,79.246,129.837,79.332,129.78,79.427
		 M116.271,83.076c-0.606-0.115-1.518-0.188-2.102-0.188c-1.656,0-2.309,0.994-2.309,3.074v1.057c0,2.039,0.624,3.139,2.309,3.139
		c0.717,0,1.532-0.098,2.102-0.189V83.076z M116.88,90.716c-0.709,0.145-1.791,0.305-2.711,0.305c-2.302,0-3.252-1.67-3.252-4.002
		v-1.057c0-2.566,1.087-3.938,3.252-3.938c0.584,0,1.461,0.084,2.102,0.211v-2.998c0-0.209,0.148-0.424,0.393-0.424h0.158
		c0.243,0,0.393,0.215,0.393,0.424v11.055C117.214,90.541,117.126,90.656,116.88,90.716 M108.851,91.021h-0.161
		c-0.243,0-0.393-0.215-0.393-0.424v-5.512c0-1.93-0.855-2.148-1.876-2.148h-0.686c-1.021,0-1.877,0.219-1.877,2.148v5.512
		c0,0.209-0.149,0.424-0.393,0.424h-0.16c-0.244,0-0.393-0.215-0.393-0.424v-5.512c0-2.781,1.688-3.061,2.822-3.061h0.686
		c1.134,0,2.821,0.279,2.821,3.061v5.512C109.243,90.806,109.095,91.021,108.851,91.021 M100.062,86.419H98.95
		c-2.415,0-3.108,0.463-3.108,1.701v0.207c0,1.217,0.364,1.83,2.39,1.83c0.719,0,1.464-0.105,1.83-0.17V86.419z M100.674,90.681
		c-0.775,0.211-1.631,0.34-2.442,0.34c-2.477,0-3.349-0.865-3.349-2.693v-0.207c0-1.785,1.146-2.58,4.067-2.58h1.111v-0.455
		c0-1.617-0.431-2.197-1.894-2.197c-1.05,0-1.513,0.064-2.257,0.145c-0.204,0.016-0.501-0.049-0.501-0.359v-0.096
		c0-0.275,0.224-0.375,0.473-0.408c0.676-0.08,1.224-0.145,2.285-0.145c2.248,0,2.836,1.297,2.836,3.061v5.145
		C101.004,90.46,100.934,90.617,100.674,90.681 M169.668,74.978c-0.676,0.08-1.433,0.142-1.945,0.142
		c-2.387,0-3.285-1.867-3.285-3.986v-1.07c0-2.154,0.9-3.939,3.285-3.939c0.513,0,1.27,0.064,1.945,0.145
		c0.286,0.039,0.411,0.158,0.411,0.408v0.111c0,0.256-0.201,0.344-0.393,0.344h-0.073c-0.751-0.096-1.37-0.143-1.891-0.143
		c-1.721,0-2.342,1.164-2.342,3.074v1.07c0,1.914,0.624,3.123,2.342,3.123c0.521,0,1.14-0.049,1.884-0.143h0.08
		c0.191,0,0.393,0.088,0.393,0.344v0.113C170.079,74.82,169.954,74.939,169.668,74.978 M162.102,75.121h-0.098
		c-0.224,0-0.423-0.197-0.423-0.424v-8.068c0-0.227,0.199-0.422,0.423-0.422h0.098c0.227,0,0.423,0.195,0.423,0.422v8.068
		C162.525,74.923,162.329,75.121,162.102,75.121 M162.102,64.945h-0.098c-0.222,0-0.423-0.178-0.423-0.426v-1.182
		c0-0.227,0.199-0.424,0.423-0.424h0.098c0.227,0,0.423,0.197,0.423,0.424v1.182C162.525,64.767,162.324,64.945,162.102,64.945
		 M159.625,75.072c-0.21,0.033-0.742,0.049-1.229,0.049c-1.454,0-2.31-0.498-2.31-2.164v-8.422c0-0.221,0.178-0.422,0.423-0.422
		h0.128c0.234,0,0.409,0.207,0.409,0.422v1.672h2.564c0.217,0,0.423,0.127,0.423,0.375v0.143c0,0.25-0.206,0.377-0.423,0.377h-2.564
		v5.855c0,1.147,0.328,1.301,1.35,1.301h1.215c0.25,0,0.456,0.072,0.456,0.328v0.111C160.067,74.906,159.951,75.037,159.625,75.072
		 M153.78,75.121h-0.158c-0.244,0-0.393-0.215-0.393-0.424v-5.51c0-1.932-0.855-2.15-1.877-2.15h-0.688
		c-1.021,0-1.877,0.219-1.877,2.15v5.51c0,0.209-0.148,0.424-0.393,0.424h-0.16c-0.241,0-0.39-0.215-0.39-0.424v-5.51
		c0-2.783,1.685-3.062,2.819-3.062h0.688c1.133,0,2.82,0.279,2.82,3.062v5.51C154.173,74.906,154.023,75.121,153.78,75.121
		 M144.99,70.521h-1.111c-2.415,0-3.105,0.461-3.105,1.701v0.207c0,1.215,0.361,1.828,2.388,1.828c0.718,0,1.463-0.104,1.829-0.172
		V70.521z M145.602,74.781c-0.775,0.213-1.631,0.34-2.441,0.34c-2.476,0-3.35-0.867-3.35-2.691v-0.207
		c0-1.787,1.146-2.582,4.067-2.582h1.111v-0.453c0-1.617-0.431-2.197-1.894-2.197c-1.049,0-1.51,0.062-2.257,0.143
		c-0.201,0.017-0.501-0.049-0.501-0.359v-0.096c0-0.275,0.225-0.375,0.475-0.408c0.674-0.08,1.222-0.145,2.283-0.145
		c2.248,0,2.837,1.297,2.837,3.062v5.143C145.934,74.562,145.862,74.718,145.602,74.781 M137.59,75.121h-0.161
		c-0.243,0-0.392-0.215-0.392-0.424V63.337c0-0.209,0.148-0.424,0.392-0.424h0.161c0.243,0,0.393,0.215,0.393,0.424v11.359
		C137.982,74.906,137.833,75.121,137.59,75.121 M135.082,75.072c-0.21,0.033-0.744,0.049-1.231,0.049
		c-1.451,0-2.31-0.498-2.31-2.164v-8.422c0-0.221,0.18-0.422,0.426-0.422h0.128c0.233,0,0.406,0.207,0.406,0.422v1.672h2.564
		c0.218,0,0.423,0.127,0.423,0.375v0.143c0,0.25-0.205,0.377-0.423,0.377h-2.564v5.855c0,1.147,0.331,1.301,1.35,1.301h1.215
		c0.251,0,0.456,0.072,0.456,0.328v0.111C135.521,74.906,135.408,75.037,135.082,75.072 M121.201,74.654
		c0.002-0.021,0.007-0.051,0.019-0.08l3.273-10.783c0.178-0.604,0.598-0.877,1.165-0.877s0.988,0.273,1.166,0.877l3.271,10.773
		c0.015,0.033,0.021,0.066,0.021,0.09c0.002,0.287-0.137,0.488-0.399,0.488h-0.178c-0.182,0-0.335-0.147-0.38-0.32l-1.182-3.898
		h-4.638l-1.182,3.898c-0.043,0.174-0.198,0.32-0.381,0.32h-0.177c-0.263,0-0.402-0.201-0.402-0.42L121.201,74.654z M125.899,64.074
		c-0.064-0.209-0.132-0.227-0.241-0.227c-0.108,0-0.177,0.018-0.241,0.227l-1.798,5.934h4.079L125.899,64.074z M111.18,70.023h4.76
		c-0.007-1.969-0.657-3.033-2.356-3.033C111.919,66.99,111.188,68.175,111.18,70.023 M116.46,70.906h-5.28v0.213
		c0,2.607,1.229,3.139,2.77,3.139c0.697,0,1.567-0.111,2.343-0.27c0.068-0.012,0.095-0.018,0.118-0.018
		c0.17,0,0.361,0.098,0.361,0.344v0.113c0,0.248-0.12,0.365-0.401,0.42c-0.773,0.162-1.692,0.273-2.421,0.273
		c-2.035,0-3.715-0.904-3.715-4.002v-1.055c0-2.244,1.148-3.939,3.349-3.939c2.298,0,3.3,1.617,3.3,3.926v0.43
		C116.883,70.726,116.682,70.906,116.46,70.906 M108.173,75.121h-0.161c-0.252,0-0.378-0.226-0.378-0.424v-5.383
		c0-1.512-0.609-2.324-2.243-2.324c-0.645,0-1.448,0.1-2.037,0.258v7.449c0,0.209-0.148,0.424-0.393,0.424h-0.158
		c-0.243,0-0.393-0.215-0.393-0.424V63.337c0-0.209,0.15-0.424,0.393-0.424h0.158c0.244,0,0.393,0.215,0.393,0.424v3.043
		c0.61-0.145,1.378-0.256,2.037-0.256c2.3,0,3.172,1.346,3.172,3.189v5.383C108.562,74.9,108.435,75.121,108.173,75.121
		 M100.636,63.81h-3.298v10.791c0,0.209-0.148,0.426-0.392,0.426h-0.161c-0.243,0-0.392-0.217-0.392-0.426V63.81h-3.314
		c-0.205,0-0.423-0.104-0.423-0.359v-0.145c0-0.24,0.196-0.393,0.423-0.393h7.557c0.231,0,0.425,0.152,0.425,0.393v0.145
		C101.061,63.707,100.844,63.81,100.636,63.81 M152.65,83.138h-0.185c-0.128,0-0.213-0.105-0.213-0.223v-2.617
		c0-0.809-0.057-0.994-1.072-1.006v3.623c0,0.092-0.062,0.223-0.213,0.223h-0.194c-0.13,0-0.225-0.094-0.225-0.223v-3.623
		c-0.42,0.004-0.784,0.035-1.07,0.066v3.557c0,0.092-0.062,0.223-0.213,0.223h-0.186c-0.128,0-0.223-0.094-0.223-0.223v-3.898
		c0-0.148,0.104-0.201,0.176-0.221c0.425-0.053,1.172-0.115,1.843-0.115c1.343,0,1.998,0.17,1.998,1.617v2.617
		C152.873,83.044,152.778,83.138,152.65,83.138 M148.393,79.322h-0.979v3.521c0,0.139-0.116,0.295-0.293,0.295
		c-0.239,0-0.338-0.166-0.338-0.295v-3.521h-0.995c-0.113,0-0.296-0.062-0.296-0.273c0-0.234,0.151-0.336,0.296-0.336h2.604
		c0.135,0,0.305,0.094,0.305,0.283C148.698,79.265,148.495,79.322,148.393,79.322"/>
	<polygon fill="#0086BE" points="75.535,8.305 85.858,18.629 79.715,40.252 71.887,32.573 67.229,13.973 	"/>
	<polygon fill="#0086BE" points="92.843,34.928 104.488,34.928 95.174,43.467 79.715,40.252 	"/>
	<polygon fill="#003565" points="95.174,43.466 81.2,47.294 64.9,55.886 79.716,40.252 	"/>
	<polygon fill="#74C9E5" points="71.887,48.513 57.915,51.228 64.901,55.886 	"/>
	<polygon fill="#003565" points="92.843,34.928 104.488,34.928 98.584,32.6 	"/>
	<polygon fill="#003565" points="102.446,36.798 104.488,38.837 104.488,34.928 	"/>
	<polygon fill="#74C9E5" points="92.843,34.928 85.858,18.629 79.715,40.252 	"/>
	<polygon fill="#003565" points="67.229,13.972 69.559,2.329 60.244,0 	"/>
	<polygon fill="#74C9E5" points="75.535,8.305 69.559,2.329 67.229,13.973 	"/>
	<path fill="#003565" d="M60.803,62.912c0.294,0,0.534,0.24,0.534,0.533v3.254c0,0.295-0.24,0.533-0.534,0.533l-6.34-0.006v16.621
		c0.034,2.041,0.547,2.861,2.964,2.861h3.03c0.453,0,0.88,0.354,0.88,0.861v2.588c0,0.504-0.422,0.863-0.88,0.863H57.21
		c-4.817-0.021-7.515-2.096-7.515-7.012V57.251c0-0.498,0.414-0.863,0.877-0.863h2.025c0.559,0,0.813,0.482,0.872,0.768l0.792,4.584
		l-2.736,0.367c-0.222,0.037-0.36,0.24-0.323,0.465c0.034,0.223,0.214,0.34,0.469,0.34H60.803z M41.264,71.091
		c-0.213-2.652-1.729-3.85-4.396-3.861H25.813c-0.294,0-0.534-0.238-0.534-0.535v-3.246c0-0.293,0.24-0.533,0.534-0.533h11.058
		c6.086,0,9.187,3.469,9.187,8.678v12.406c0,4.914-2.71,7.021-7.518,7.021h-6.633c-5.274,0-8.535-2.746-8.535-7.305
		c0-5.641,5.094-9.467,17.924-11.426l2.93-0.395c0.224-0.037,0.359-0.24,0.324-0.465c-0.035-0.223-0.214-0.34-0.471-0.34H41.264z
		 M32.108,86.708h6.239c2.386-0.006,2.907-0.873,2.94-2.92l0.001-7.451c-11.556,1.926-13.15,4.883-13.15,7.236
		C28.139,85.544,29.344,86.708,32.108,86.708 M80.876,71.091c-0.213-2.652-1.729-3.85-4.396-3.861H65.426
		c-0.294,0-0.533-0.238-0.533-0.535v-3.246c0-0.293,0.239-0.533,0.533-0.533h11.059c6.085,0,9.184,3.469,9.184,8.678v12.406
		c0,4.914-2.709,7.021-7.517,7.021h-6.632c-5.275,0-8.537-2.746-8.537-7.305c0-5.641,5.096-9.467,17.925-11.426l2.93-0.395
		c0.224-0.037,0.361-0.24,0.325-0.465c-0.034-0.223-0.215-0.34-0.47-0.34H80.876z M71.72,86.708h6.239
		c2.389-0.006,2.908-0.873,2.943-2.92v-7.451c-11.557,1.926-13.151,4.883-13.151,7.236C67.751,85.544,68.956,86.708,71.72,86.708
		 M0,70.283c0-4.066,3.807-7.359,8.506-7.359l11.012-0.008c0.294,0,0.533,0.24,0.533,0.533v3.246c0,0.297-0.239,0.535-0.533,0.535
		H8.245c-1.918,0-3.483,1.162-3.483,2.822c0,1.723,0.794,2.586,5.712,3.918c6.811,1.842,10.84,3.566,10.84,8.945
		c0,4.477-4.192,8.104-9.366,8.104L1.296,91.021c-0.295,0-0.533-0.238-0.533-0.531v-3.248c0-0.295,0.238-0.533,0.533-0.533h10.886
		c2.369,0,4.362-1.512,4.362-3.561c0-2.291-1.9-3.385-6.837-4.729C4.185,76.917,0,75.363,0,70.283"/>
</g>
</svg>
