<?xml version="1.0" encoding="utf-8"?>
<!-- Generator: Adobe Illustrator 22.1.0, SVG Export Plug-In . SVG Version: 6.00 Build 0)  -->
<svg version="1.1"
	 id="svg2" inkscape:version="0.91 r13725" sodipodi:docname="Singapore_Airlines2.svg" xmlns:cc="http://creativecommons.org/ns#" xmlns:dc="http://purl.org/dc/elements/1.1/" xmlns:inkscape="http://www.inkscape.org/namespaces/inkscape" xmlns:rdf="http://www.w3.org/1999/02/22-rdf-syntax-ns#" xmlns:sodipodi="http://sodipodi.sourceforge.net/DTD/sodipodi-0.dtd" xmlns:svg="http://www.w3.org/2000/svg"
	 xmlns="http://www.w3.org/2000/svg" xmlns:xlink="http://www.w3.org/1999/xlink" x="0px" y="0px" width="62.704px" height="23px"
	 viewBox="0 0 62.704 23" style="enable-background:new 0 0 62.704 23;" xml:space="preserve">
<style type="text/css">
	.st0{fill:#FCB130;}
	.st1{fill:#1D4886;}
</style>
<sodipodi:namedview  bordercolor="#666666" borderopacity="1" gridtolerance="10" guidetolerance="10" id="namedview4166" inkscape:current-layer="g12" inkscape:cx="147.77182" inkscape:cy="102.55966" inkscape:pageopacity="0" inkscape:pageshadow="2" inkscape:window-height="705" inkscape:window-maximized="1" inkscape:window-width="1366" inkscape:window-x="-8" inkscape:window-y="-8" inkscape:zoom="2.072165" objecttolerance="10" pagecolor="#ffffff" showgrid="false">
	</sodipodi:namedview>
<g id="g10" transform="matrix(1.3333333,0,0,-1.3333333,0,128.38101)">
	<g id="g12" transform="scale(0.1,0.1)">
		<g id="g5458" transform="matrix(1.4936131,0,0,1.4936131,-190.36118,-642.31656)">
			<path id="path50" inkscape:connector-curvature="0" class="st0" d="M127.45,965.948h217.973l-4.325-6.748H127.45L127.45,965.948"
				/>
			<g id="g4758">
				<path id="path52" inkscape:connector-curvature="0" class="st0" d="M385.125,969.005h-8.015l16.179,25.536
					c0,0,2.422,5.294-0.747,10.885l-22.554,37.353c0,0-1.974,3.468,0,6.786l6.674,9.991l26.468-43.245c0,0,6.822-9.058-0.597-20.279
					L385.125,969.005"/>
				<path id="path54" inkscape:connector-curvature="0" class="st0" d="M404.472,976.834l9.843,14.986c0,0,2.87,6.188,10.289,6.188
					h10.438l7.27-11.482c0,0-5.742,0.596-8.315-3.505l-10.735-16.179c0,0-3.504-7.568-12.862-7.568h-50.55l19.236,29.526
					c0,0,2.72,3.466-1.082,9.207l-17.111,27.511c0,0-4.212,4.063,0.149,11.034l4.997,7.569l23.785-38.547c0,0,4.212-5.294,0-11.631
					l-17.858-27.848h37.653c0,0,4.25-0.782,7.903,4.66l9.357,14.39c0,0,2.125,4.846,6.822,6.822h-7.567c0,0-3.952-0.149-6.971-4.846
					l-8.313-12.861c0,0-3.021-5.443-9.694-5.443h-13.159l15.88,24.641c0,0,8.65,11.37,2.573,21.808l-26.32,43.541
					c0,0-1.974,3.766,0.299,7.27l5.74,8.612l29.973-48.277c0,0,4.4-7.232,4.4-12.824c0-5.592-3.504-11.93-5.444-15.136
					l-13.197-20.578c0,0-1.491-1.976-0.446-2.722C402.534,974.411,403.578,975.753,404.472,976.834"/>
			</g>
			<g id="g5439">
				<path id="path16" inkscape:connector-curvature="0" class="st1" d="M237.2,997.784h4.66v-18.453h11.37v-3.952h-16.03
					L237.2,997.784"/>
				<path id="path18" inkscape:connector-curvature="0" class="st1" d="M256.81,975.38h4.622v22.405h-4.622V975.38z"/>
				<path id="path20" inkscape:connector-curvature="0" class="st1" d="M200.071,975.38h4.585v22.405h-4.585V975.38z"/>
				<path id="path24" inkscape:connector-curvature="0" class="st1" d="M294.498,997.784h17.559v-3.691h-12.899v-5.48h10.961v-4.064
					h-10.961v-5.442h12.899v-3.729h-17.559V997.784"/>
				<path id="path26" inkscape:connector-curvature="0" class="st1" d="M319.214,1027.906h17.559v-3.691h-12.897v-5.443h10.997
					v-4.063h-10.997v-5.443h12.897v-3.69h-17.559V1027.906"/>
				<path id="path28" inkscape:connector-curvature="0" class="st1" d="M211.776,975.38v22.405h13.309c0,0,6.412-0.111,6.412-6.524
					c0,0,0.596-5.331-4.846-7.493l6.747-8.388h-5.741l-9.32,11.631h4.846c0,0,3.467,0.075,3.467,3.579
					c0,3.318-2.796,3.579-3.653,3.579h-6.562V975.38H211.776"/>
				<path id="path30" inkscape:connector-curvature="0" class="st1" d="M293.678,1005.576v22.33h13.309c0,0,6.412-0.111,6.412-6.525
					c0,0,0.559-5.292-4.846-7.455l6.747-8.35h-5.74l-9.32,11.555h4.846c0,0,3.467,0.075,3.467,3.58c0,3.356-2.795,3.579-3.653,3.579
					h-6.561v-18.714H293.678"/>
				<path id="path38" inkscape:connector-curvature="0" class="st1" d="M200.406,1009.453h6.301v10.252h4.473v-14.128h-11.743
					c-1.752,0-10.215,1.976-10.289,10.885c-0.075,8.835,7.642,11.445,10.625,11.445h11.519v-3.952h-10.401c0,0-6.972,0-6.972-7.344
					C193.919,1010.907,199.698,1009.453,200.406,1009.453"/>
				<path id="path40" inkscape:connector-curvature="0" class="st1" d="M267.508,997.784h4.698v-3.467l2.945,3.467h5.555
					c0,0,7.604,0.41,7.604-7.717V975.38h-4.734v15.397c0,0-0.15,3.057-3.356,3.057h-8.014V975.38h-4.698L267.508,997.784"/>
				<path id="path42" inkscape:connector-curvature="0" class="st1" d="M164.096,1027.906h4.659v-3.429l2.945,3.429h5.555
					c0,0,7.642,0.41,7.642-7.716v-14.613h-4.735v15.321c0,0-0.186,3.056-3.392,3.056h-8.015v-18.378h-4.659L164.096,1027.906"/>
				<path id="path44" inkscape:connector-curvature="0" class="st1" d="M153.062,1005.576h4.585v22.33h-4.585V1005.576z"/>
				<path id="path46" inkscape:connector-curvature="0" class="st1" d="M317.165,975.417v3.803h12.973c0,0,2.573-0.484,2.573,2.647
					c0,3.132-1.938,2.796-2.646,2.796h-7.494c0,0-5.778-0.409-5.778,6.375c0,6.748,5.704,6.748,5.704,6.748h14.239v-3.951h-12.489
					c0,0-2.721,0-2.721-2.573c0-2.573,1.827-3.057,3.542-3.057h6.674c0,0,5.629,0.597,5.629-6.114s-5.778-6.674-5.778-6.674H317.165
					"/>
				<path id="path48" inkscape:connector-curvature="0" class="st1" d="M127.935,1005.576v3.802h12.973c0,0,2.572-0.485,2.572,2.647
					c0,3.132-1.938,2.796-2.647,2.796h-7.493c0,0-5.779-0.409-5.779,6.338c0,6.785,5.704,6.747,5.704,6.747h14.24v-3.952h-12.488
					c0,0-2.722,0-2.722-2.573c0-2.571,1.864-3.056,3.542-3.056h6.673c0,0,5.629,0.597,5.629-6.076c0-6.71-5.778-6.673-5.778-6.673
					H127.935"/>
				<path id="path4192" inkscape:connector-curvature="0" class="st1" d="M277.742,1029.286c-6.718,0-12.208-5.476-12.208-12.22
					c0-6.771,5.491-12.198,12.208-12.198c6.798,0,12.208,5.441,12.208,12.198C289.951,1023.814,284.54,1029.286,277.742,1029.286
					 M277.742,1009.362c-4.215,0-7.623,3.437-7.623,7.704c0,4.209,3.412,7.712,7.623,7.712c4.246,0,7.726-3.504,7.726-7.712
					C285.468,1012.799,281.988,1009.362,277.742,1009.362"/>
				<path id="path4194" inkscape:connector-curvature="0" class="st1" d="M229.721,1027.907h-4.929l-10.631-22.33h5.24l2.827,6.421
					h10.126l2.793-6.421h5.223 M223.528,1015.286l3.734,9.142l3.69-9.12L223.528,1015.286z"/>
				<path id="path4194-3" inkscape:connector-curvature="0" class="st1" d="M186.068,997.784h-4.929l-10.63-22.404h5.24l2.827,6.443
					h10.125l2.792-6.443h5.222 M179.874,985.121l3.733,9.172l3.69-9.15L179.874,985.121z"/>
				<path id="path4190" inkscape:connector-curvature="0" class="st1" d="M255.683,1027.907h-12.406v-22.33h4.759v10.844l2.75-3.784
					h4.897c4.291,0,7.166,3.567,7.166,7.635C262.849,1024.327,259.974,1027.907,255.683,1027.907 M255.514,1016.775h-7.482v7.024
					h7.482c1.68,0,2.828-1.857,2.828-3.536C258.346,1018.535,257.198,1016.775,255.514,1016.775"/>
			</g>
		</g>
	</g>
</g>
</svg>
