<?xml version="1.0" encoding="utf-8"?>
<!-- Generator: Adobe Illustrator 23.0.5, SVG Export Plug-In . SVG Version: 6.00 Build 0)  -->
<svg version="1.1" id="Слой_1" xmlns="http://www.w3.org/2000/svg" xmlns:xlink="http://www.w3.org/1999/xlink" x="0px" y="0px"
	 width="204.095px" height="63px" viewBox="0 0 204.095 63" enable-background="new 0 0 204.095 63" xml:space="preserve">
<rect fill="#002557" width="204.095" height="63"/>
<g>
	<path fill="#FFFFFF" d="M144.534,41.33c0-4.12,2.918-5.074,6.916-5.074h3.018c3.998,0,6.918,0.954,6.918,5.074v2.749
		c0,4.12-2.92,5.077-6.918,5.077h-3.018c-3.998,0-6.916-0.957-6.916-5.077V41.33z M159.273,41.454c0-2.918-1.715-3.48-4.17-3.48
		h-4.291c-2.451,0-4.17,0.562-4.17,3.48v2.502c0,2.918,1.719,3.483,4.17,3.483h4.291c2.455,0,4.17-0.565,4.17-3.483V41.454z"/>
	<path fill="#FFFFFF" d="M51.584,43.366h2.257v1.252c0,1.741,0.931,2.576,3.923,2.576h7.457c3.482,0,4.512-0.738,4.512-3.286
		c0-2.233-0.881-2.798-3.874-2.798h-4.562c-7.334,0-9.737-0.441-9.737-5.149c0-4.048,2.403-4.955,7.357-4.955h5.175
		c5.96,0,7.457,1.521,7.457,4.685v0.614h-2.257c-0.047-2.821-0.345-3.337-6.646-3.337h-2.551c-4.636,0-6.279,0.246-6.279,3.165
		c0,2.11,0.664,2.82,4.417,2.82h7.112c4.685,0,6.646,1.35,6.646,4.364v1.153c0,4.365-3.582,4.686-7.137,4.686H58.18
		c-3.506,0-6.596-0.612-6.596-4.489V43.366z"/>
	<polygon fill="#FFFFFF" points="76.743,31.203 78.854,31.203 78.854,41.186 79.882,41.186 87.167,36.451 90.456,36.451 
		90.502,36.501 81.87,42.042 92.147,48.912 92.096,48.96 88.812,48.96 79.761,42.901 78.854,42.901 78.854,48.96 76.743,48.96 	"/>
	<polygon fill="#FFFFFF" points="111.509,31.203 113.864,31.203 120.067,46.727 126.15,31.203 129.241,31.203 135.25,46.802 
		141.53,31.203 143.883,31.203 136.82,48.96 133.729,48.96 127.696,33.36 121.661,48.96 118.572,48.96 	"/>
	<path fill="#FFFFFF" d="M166.038,36.451H168v1.815h0.049c0.785-1.619,2.379-2.011,3.827-2.011h1.987
		c3.948,0,5.247,1.274,5.247,4.341v1.494h-1.963v-0.537c0-3.092-0.636-3.582-4.389-3.582h-1.3c-2.232,0-3.312,1.422-3.312,3.042
		v7.946h-2.109L166.038,36.451L166.038,36.451z"/>
	<polygon fill="#FFFFFF" points="183.021,31.203 185.131,31.203 185.131,41.186 186.159,41.186 193.446,36.451 196.732,36.451 
		196.779,36.501 188.148,42.042 198.426,48.912 198.375,48.96 195.088,48.96 186.037,42.901 185.131,42.901 185.131,48.96 
		183.021,48.96 	"/>
	<path fill="#C8D409" d="M42.623,44.7c-2.625-8.716-12.049-14.385-20.287-20.634c1.934-0.746,3.978-1.123,6.019-1.123
		c4.403,0,8.797,1.728,12.081,5.167l0.889-0.846c-3.524-3.691-8.246-5.549-12.97-5.549c-2.431,0-4.858,0.51-7.131,1.498
		C14.914,18.305,9.541,12.945,8.869,5.425c-4.258,8.236,0.669,14.562,7.962,20.514c-0.287,0.244-0.58,0.478-0.855,0.743
		c-0.482,0.458-0.927,0.938-1.346,1.434c-3.834-3.187-6.961-6.791-8.508-11.327c-1.637,6.048,1.351,10.679,6.272,14.717
		c-0.369,0.725-0.682,1.469-0.946,2.229c-1.777-1.51-3.405-3.253-4.813-5.339c0.215,3.6,1.709,6.409,3.994,8.705
		c-0.122,0.846-0.204,1.696-0.204,2.547c0,4.448,1.648,8.913,4.966,12.385c3.521,3.684,8.243,5.544,12.971,5.544h0.008
		c4.447,0,8.905-1.646,12.373-4.96l-0.021-0.021c0.42,0.266,0.833,0.554,1.235,0.895c1.009,0.854,1.54,2.296,2.515,3.236
		C42.882,52.755,43.774,48.524,42.623,44.7 M28.362,56.348c-4.408,0-8.8-1.73-12.08-5.164c-3.094-3.236-4.628-7.391-4.628-11.536
		c0-0.509,0.029-1.018,0.076-1.528c6.792,5.792,18.868,8.155,27.004,12.462c-11.507-4.494-16.193-1.754-26.469-10.19
		c7.396,14.281,18.976,7.486,27.352,11.578C36.42,54.888,32.395,56.348,28.362,56.348 M12.456,34.554
		c0.247-0.775,0.562-1.531,0.926-2.269c8.347,6.408,21.286,11.41,27.471,18.472C32.752,43.124,21.061,41.25,12.456,34.554
		 M15.579,28.893c0.386-0.458,0.8-0.902,1.242-1.324c0.317-0.303,0.65-0.578,0.984-0.851c6.493,5.134,14.54,10.034,19.72,15.701
		c2.125,2.319,3.831,5.328,5.09,9.018C37.713,41.536,24.88,36.261,15.579,28.893"/>
	<polygon fill="#FFFFFF" points="107.32,36.451 101.875,47.515 95.817,36.451 93.44,36.451 100.842,49.686 97.688,56.085 
		99.745,56.093 109.378,36.456 	"/>
</g>
</svg>
