<?xml version="1.0" encoding="UTF-8"?>
<svg width="45px" height="23px" viewBox="0 0 45 23" version="1.1" xmlns="http://www.w3.org/2000/svg" xmlns:xlink="http://www.w3.org/1999/xlink">
    <!-- Generator: Sketch 49.1 (51147) - http://www.bohemiancoding.com/sketch -->
    <title>Somon_air</title>
    <desc>Created with Sketch.</desc>
    <defs>
        <polygon id="path-1" points="0 23 44.125 23 44.125 0 0 0"></polygon>
    </defs>
    <g id="AVIA" stroke="none" stroke-width="1" fill="none" fill-rule="evenodd">
        <g id="Somon_air">
            <polygon id="Fill-1" fill="#FFB100" points="14.9945 8.8222 15.6195 8.3832 14.8595 8.3832 14.6065 7.6232 14.3535 8.3832 13.5935 8.3832 14.2185 8.8222 13.9815 9.5652 14.6065 9.1092 15.2315 9.5652"></polygon>
            <polygon id="Fill-2" fill="#FFB100" points="17.8603 3.1264 18.4853 2.6704 19.1103 3.1264 18.8733 2.3834 19.4983 1.9444 18.7383 1.9444 18.4853 1.1854 18.2323 1.9444 17.4723 1.9444 18.0973 2.3834"></polygon>
            <polygon id="Fill-3" fill="#FFB100" points="25.1557 3.058 25.7807 2.602 26.4057 3.058 26.1697 2.315 26.7937 1.876 26.0337 1.876 25.7807 1.117 25.5277 1.876 24.7677 1.876 25.3907 2.315"></polygon>
            <polygon id="Fill-4" fill="#FFB100" points="22.167 -3.55271368e-15 21.913 0.76 21.154 0.76 21.778 1.199 21.541 1.942 22.167 1.486 22.792 1.942 22.556 1.199 23.179 0.76 22.42 0.76"></polygon>
            <polygon id="Fill-5" fill="#FFB100" points="27.851 5.8393 28.476 5.3833 29.101 5.8393 28.865 5.0963 29.489 4.6573 28.729 4.6573 28.476 3.8983 28.223 4.6573 27.462 4.6573 28.086 5.0963"></polygon>
            <polygon id="Fill-6" fill="#FFB100" points="14.9945 5.8393 15.6195 5.3833 16.2445 5.8393 16.0075 5.0963 16.6325 4.6573 15.8725 4.6573 15.6195 3.8983 15.3665 4.6573 14.6065 4.6573 15.2315 5.0963"></polygon>
            <polygon id="Fill-7" fill="#FFB100" points="30.5023 8.3832 29.7423 8.3832 29.4873 7.6232 29.2343 8.3832 28.4763 8.3832 29.1013 8.8222 28.8633 9.5652 29.4873 9.1092 30.1123 9.5652 29.8773 8.8222"></polygon>
            <g id="Group-36" transform="translate(0.000000, 0.000400)">
                <path d="M25.9633,9.5454 C25.9633,9.5454 23.9233,11.1924 22.8053,9.1764 C22.1153,7.9374 22.4423,6.5274 22.7473,6.1584 C22.8353,6.0514 23.2823,5.8814 23.6813,6.3774 C23.6813,6.3774 23.6263,4.3264 22.0633,4.3264 C20.5033,4.3264 20.4493,6.3774 20.4493,6.3774 C20.8423,5.8814 21.2953,6.0514 21.3823,6.1584 C21.6893,6.5274 22.0083,7.9374 21.3233,9.1764 C20.2073,11.1924 18.1663,9.5454 18.1663,9.5454 C17.2033,11.8144 15.0313,10.5654 15.0313,10.5654 C15.0313,10.5654 14.9593,11.8294 16.2213,11.9314 C17.6553,12.0484 18.3753,10.3764 18.3753,10.3764 C18.7583,11.0374 19.9633,11.3044 20.5423,11.0664 C21.4843,10.6824 22.0633,9.3954 22.0633,9.3954 C22.0633,9.3954 22.6463,10.6824 23.5873,11.0664 C24.1663,11.3044 25.3713,11.0374 25.7553,10.3764 C25.7553,10.3764 26.4753,12.0484 27.9083,11.9314 C29.1713,11.8294 29.0943,10.5654 29.0943,10.5654 C29.0943,10.5654 26.9273,11.8144 25.9633,9.5454 M22.0633,6.4164 C22.0633,6.4164 21.8633,5.5074 21.0323,5.6484 C21.0323,5.6484 21.2123,4.8124 22.0633,4.7494 C22.9183,4.8124 23.0933,5.6484 23.0933,5.6484 C22.2613,5.5074 22.0633,6.4164 22.0633,6.4164" id="Fill-8" fill="#FFB100"></path>
                <path d="M21.018,11.7271 C21.358,12.4071 22.063,12.4031 22.063,12.4031 C22.063,12.4031 22.768,12.4071 23.108,11.7271 C23.164,11.6101 22.524,11.6401 22.524,11.6401 C22.524,11.6401 22.612,11.2851 22.063,10.8771 C21.514,11.2851 21.601,11.6401 21.601,11.6401 C21.601,11.6401 20.96,11.6101 21.018,11.7271" id="Fill-10" fill="#FFB100"></path>
                <path d="M17.6474,12.335 C18.1764,12.881 18.8474,12.665 18.8474,12.665 C18.8474,12.665 19.5204,12.456 19.6394,11.706 C19.6594,11.576 19.0574,11.797 19.0574,11.797 C19.0574,11.797 19.0334,11.434 18.3874,11.21 C17.9864,11.764 18.1774,12.076 18.1774,12.076 C18.1774,12.076 17.5564,12.241 17.6474,12.335" id="Fill-12" fill="#FFB100"></path>
                <path d="M25.7377,11.21 C25.0917,11.434 25.0677,11.798 25.0677,11.798 C25.0677,11.798 24.4657,11.576 24.4857,11.705 C24.6047,12.456 25.2777,12.665 25.2777,12.665 C25.2777,12.665 25.9487,12.881 26.4777,12.335 C26.5687,12.242 25.9487,12.077 25.9487,12.077 C25.9487,12.077 26.1377,11.765 25.7377,11.21" id="Fill-14" fill="#FFB100"></path>
                <path d="M16.3598,13.3643 L16.3598,14.3563 C16.3598,14.3563 18.6388,13.6373 22.0628,13.6373 C25.4848,13.6373 27.7658,14.3563 27.7658,14.3563 L27.7658,13.3643 C27.7658,13.3643 25.4848,12.6453 22.0628,12.6453 C18.7278,12.6453 16.3598,13.3643 16.3598,13.3643" id="Fill-16" fill="#FFB100"></path>
                <path d="M0.3202,20.6807 L0.3842,20.3847 C0.4132,20.2527 0.4662,20.1357 0.5442,20.0327 C0.6222,19.9287 0.7162,19.8447 0.8242,19.7787 C0.9332,19.7127 1.0632,19.6597 1.2152,19.6187 C1.3652,19.5747 1.5222,19.5447 1.6852,19.5277 C1.8472,19.5107 2.0282,19.4997 2.2302,19.4967 C2.6542,19.4907 3.5462,19.4957 3.5462,19.4957 L4.6232,19.4957 L4.4232,20.1947 L2.1412,20.1947 C1.8472,20.1917 1.6352,20.2087 1.5082,20.2487 C1.3802,20.2877 1.3632,20.3107 1.3072,20.4367 L1.2712,20.6057 C1.2422,20.7367 1.2712,20.8247 1.3562,20.8677 C1.4412,20.9117 1.6062,20.9337 1.8512,20.9337 L3.0542,20.9337 C3.1982,20.9337 3.3322,20.9417 3.4542,20.9567 C3.5752,20.9727 3.6792,20.9947 3.7652,21.0237 C3.8512,21.0517 3.9272,21.0837 3.9942,21.1217 C4.0612,21.1597 4.1162,21.2017 4.1592,21.2477 C4.2012,21.2957 4.2362,21.3437 4.2612,21.3917 C4.2872,21.4407 4.3032,21.4927 4.3122,21.5437 C4.3202,21.5977 4.3222,21.6487 4.3202,21.6977 C4.3182,21.7447 4.3122,21.7947 4.3002,21.8447 L4.2512,22.0767 C4.2182,22.2257 4.1562,22.3567 4.0652,22.4697 C3.9742,22.5817 3.8702,22.6707 3.7532,22.7377 C3.6352,22.8027 3.4962,22.8557 3.3342,22.8967 C3.1722,22.9377 3.0142,22.9647 2.8612,22.9787 C2.7082,22.9937 2.5422,22.9997 2.3642,22.9997 L0.0002,22.9997 L0.1582,22.3097 L2.4922,22.3097 C2.5972,22.3097 2.6882,22.3057 2.7642,22.2997 C2.8412,22.2937 2.9222,22.2827 3.0072,22.2627 C3.0912,22.2427 3.1572,22.2347 3.2082,22.1927 C3.2592,22.1507 3.2672,22.1397 3.2812,22.0987 L3.3202,21.9147 C3.3442,21.8057 3.3232,21.7247 3.2572,21.6707 C3.1902,21.6177 3.0512,21.5907 2.8402,21.5907 L1.7002,21.5907 C0.6502,21.5877 0.1892,21.2847 0.3202,20.6807" id="Fill-18" fill="#201043"></path>
                <path d="M5.1186,21.2676 C5.1536,21.1076 5.1946,20.9606 5.2436,20.8266 C5.2916,20.6916 5.3496,20.5706 5.4136,20.4646 C5.4786,20.3586 5.5466,20.2616 5.6186,20.1756 C5.6896,20.0896 5.7716,20.0146 5.8636,19.9506 C5.9546,19.8856 6.0466,19.8306 6.1386,19.7816 C6.2296,19.7326 6.3336,19.6916 6.4526,19.6596 C6.5716,19.6256 6.6836,19.5996 6.7906,19.5806 C6.8986,19.5586 7.0206,19.5426 7.1566,19.5326 C7.2926,19.5216 7.4206,19.5136 7.5416,19.5086 C7.6626,19.5036 7.8006,19.5016 7.9566,19.5016 C8.1566,19.5016 8.3296,19.5046 8.4756,19.5106 C8.6216,19.5176 8.7746,19.5306 8.9346,19.5506 C9.0946,19.5716 9.2286,19.6006 9.3376,19.6376 C9.4466,19.6756 9.5546,19.7236 9.6616,19.7816 C9.7686,19.8386 9.8506,19.9136 9.9106,20.0016 C9.9686,20.0906 10.0156,20.1946 10.0516,20.3116 C10.0876,20.4286 10.1026,20.5686 10.0986,20.7296 C10.0946,20.8906 10.0706,21.0706 10.0286,21.2676 C9.9816,21.4806 9.9196,21.6696 9.8416,21.8376 C9.7636,22.0046 9.6786,22.1496 9.5856,22.2696 C9.4926,22.3906 9.3796,22.4946 9.2466,22.5796 C9.1146,22.6656 8.9796,22.7346 8.8436,22.7866 C8.7066,22.8376 8.5466,22.8786 8.3616,22.9086 C8.1766,22.9386 7.9956,22.9576 7.8186,22.9666 C7.6416,22.9766 7.4356,22.9816 7.2026,22.9816 C6.9956,22.9816 6.8166,22.9786 6.6646,22.9716 C6.5136,22.9656 6.3576,22.9536 6.1976,22.9346 C6.0376,22.9146 5.9026,22.8876 5.7936,22.8516 C5.6846,22.8166 5.5776,22.7696 5.4736,22.7106 C5.3696,22.6536 5.2876,22.5806 5.2276,22.4956 C5.1686,22.4096 5.1226,22.3086 5.0886,22.1946 C5.0556,22.0796 5.0406,21.9456 5.0466,21.7906 C5.0526,21.6356 5.0766,21.4606 5.1186,21.2676 M6.2876,21.2676 C6.2456,21.4606 6.2226,21.6206 6.2176,21.7446 C6.2126,21.8676 6.2276,21.9736 6.2616,22.0606 C6.2956,22.1486 6.3606,22.2136 6.4566,22.2576 C6.5536,22.3016 6.6676,22.3316 6.8006,22.3496 C6.9336,22.3676 7.1106,22.3746 7.3336,22.3746 C7.6786,22.3746 7.9436,22.3476 8.1276,22.2906 C8.3126,22.2346 8.4636,22.1266 8.5816,21.9686 C8.6996,21.8116 8.7916,21.5776 8.8596,21.2676 C8.8976,21.0886 8.9206,20.9366 8.9296,20.8096 C8.9376,20.6826 8.9256,20.5766 8.8936,20.4906 C8.8626,20.4046 8.8236,20.3356 8.7756,20.2866 C8.7276,20.2366 8.6546,20.1976 8.5546,20.1706 C8.4546,20.1446 8.3506,20.1266 8.2446,20.1196 C8.1376,20.1116 7.9966,20.1076 7.8256,20.1076 C7.6806,20.1076 7.5606,20.1096 7.4686,20.1146 C7.3756,20.1196 7.2756,20.1296 7.1696,20.1446 C7.0636,20.1616 6.9766,20.1846 6.9116,20.2176 C6.8466,20.2506 6.7776,20.2946 6.7076,20.3516 C6.6366,20.4086 6.5786,20.4776 6.5326,20.5606 C6.4866,20.6436 6.4436,20.7436 6.4016,20.8586 C6.3596,20.9746 6.3216,21.1106 6.2876,21.2676" id="Fill-20" fill="#201043"></path>
                <polygon id="Fill-22" fill="#201043" points="10.4291 22.9619 11.0641 19.5239 12.6931 19.5239 13.8461 21.8729 15.4961 19.5239 17.1161 19.5239 16.6221 22.9619 15.4701 22.9619 15.8831 20.6659 14.2691 22.9619 12.9671 22.9619 11.9451 20.6659 11.5811 22.9619"></polygon>
                <path d="M17.7929,21.2676 C17.8279,21.1076 17.8689,20.9606 17.9179,20.8266 C17.9659,20.6916 18.0239,20.5706 18.0879,20.4646 C18.1529,20.3586 18.2209,20.2616 18.2929,20.1756 C18.3639,20.0896 18.4459,20.0146 18.5379,19.9506 C18.6289,19.8856 18.7209,19.8306 18.8119,19.7816 C18.9029,19.7326 19.0079,19.6916 19.1269,19.6596 C19.2449,19.6256 19.3579,19.5996 19.4649,19.5806 C19.5729,19.5586 19.6949,19.5426 19.8309,19.5326 C19.9659,19.5216 20.0949,19.5136 20.2149,19.5086 C20.3359,19.5036 20.4749,19.5016 20.6299,19.5016 C20.8309,19.5016 21.0039,19.5046 21.1499,19.5106 C21.2959,19.5176 21.4489,19.5306 21.6089,19.5506 C21.7689,19.5716 21.9029,19.6006 22.0119,19.6376 C22.1209,19.6756 22.2289,19.7236 22.3359,19.7816 C22.4429,19.8386 22.5249,19.9136 22.5839,20.0016 C22.6429,20.0906 22.6899,20.1946 22.7259,20.3116 C22.7609,20.4286 22.7769,20.5686 22.7729,20.7296 C22.7689,20.8906 22.7449,21.0706 22.7019,21.2676 C22.6559,21.4806 22.5939,21.6696 22.5159,21.8376 C22.4379,22.0046 22.3529,22.1496 22.2589,22.2696 C22.1669,22.3906 22.0539,22.4946 21.9209,22.5796 C21.7879,22.6656 21.6539,22.7346 21.5169,22.7866 C21.3799,22.8376 21.2199,22.8786 21.0359,22.9086 C20.8509,22.9386 20.6699,22.9576 20.4929,22.9666 C20.3159,22.9766 20.1099,22.9816 19.8759,22.9816 C19.6699,22.9816 19.4909,22.9786 19.3389,22.9716 C19.1879,22.9656 19.0319,22.9536 18.8719,22.9346 C18.7119,22.9146 18.5769,22.8876 18.4679,22.8516 C18.3589,22.8166 18.2519,22.7696 18.1479,22.7106 C18.0439,22.6536 17.9619,22.5806 17.9019,22.4956 C17.8429,22.4096 17.7959,22.3086 17.7629,22.1946 C17.7299,22.0796 17.7149,21.9456 17.7209,21.7906 C17.7269,21.6356 17.7509,21.4606 17.7929,21.2676 M18.9619,21.2676 C18.9199,21.4606 18.8969,21.6206 18.8919,21.7446 C18.8869,21.8676 18.9019,21.9736 18.9359,22.0606 C18.9699,22.1486 19.0349,22.2136 19.1309,22.2576 C19.2269,22.3016 19.3419,22.3316 19.4739,22.3496 C19.6069,22.3676 19.7849,22.3746 20.0069,22.3746 C20.3519,22.3746 20.6169,22.3476 20.8019,22.2906 C20.9869,22.2346 21.1379,22.1266 21.2559,21.9686 C21.3739,21.8116 21.4659,21.5776 21.5329,21.2676 C21.5719,21.0886 21.5949,20.9366 21.6029,20.8096 C21.6109,20.6826 21.5999,20.5766 21.5679,20.4906 C21.5369,20.4046 21.4969,20.3356 21.4499,20.2866 C21.4019,20.2366 21.3279,20.1976 21.2289,20.1706 C21.1279,20.1446 21.0249,20.1266 20.9179,20.1196 C20.8109,20.1116 20.6709,20.1076 20.4989,20.1076 C20.3539,20.1076 20.2349,20.1096 20.1429,20.1146 C20.0499,20.1196 19.9499,20.1296 19.8439,20.1446 C19.7369,20.1616 19.6509,20.1846 19.5859,20.2176 C19.5199,20.2506 19.4519,20.2946 19.3809,20.3516 C19.3109,20.4086 19.2529,20.4776 19.2069,20.5606 C19.1609,20.6436 19.1169,20.7436 19.0759,20.8586 C19.0329,20.9746 18.9959,21.1106 18.9619,21.2676" id="Fill-24" fill="#201043"></path>
                <polygon id="Fill-26" fill="#201043" points="23.1195 22.9619 23.8645 19.5239 25.0505 19.5239 26.9905 21.7459 27.4725 19.5239 28.6405 19.5239 27.8945 22.9619 26.7255 22.9619 24.7725 20.7649 24.2975 22.9619"></polygon>
                <path d="M31.2768,22.9619 L34.0848,19.5249 L35.4118,19.5249 L36.6538,22.9619 L35.4098,22.9619 L35.1388,22.2019 L33.1358,22.2019 L32.5288,22.9619 L31.2768,22.9619 Z M33.5718,21.6189 L34.9918,21.6189 L34.5738,20.3889 L33.5718,21.6189 Z" id="Fill-28" fill="#201043"></path>
                <polygon id="Fill-30" fill="#201043" points="37.2719 22.9619 38.0169 19.5239 39.1859 19.5239 38.4409 22.9619"></polygon>
                <path d="M39.2416,22.9619 L39.9866,19.5249 L42.6586,19.5249 C42.9096,19.5249 43.1276,19.5429 43.3136,19.5789 C43.5016,19.6149 43.6636,19.6729 43.7996,19.7529 C43.9336,19.8329 44.0286,19.9439 44.0816,20.0859 C44.1346,20.2289 44.1386,20.3989 44.0956,20.5959 C44.0596,20.7589 44.0056,20.9009 43.9286,21.0239 C43.8506,21.1459 43.7746,21.2379 43.7006,21.3029 C43.6266,21.3659 43.5306,21.4229 43.4146,21.4719 C43.2976,21.5199 43.2106,21.5509 43.1516,21.5639 C43.0936,21.5749 43.0096,21.5909 42.8986,21.6099 L43.7656,22.9619 L42.4476,22.9619 L41.7206,21.6609 L40.7066,21.5959 L40.4106,22.9619 L39.2416,22.9619 Z M40.8276,21.0789 L42.2136,21.0789 C42.3246,21.0789 42.4146,21.0739 42.4826,21.0629 C42.5536,21.0519 42.6176,21.0289 42.6786,20.9949 C42.7386,20.9609 42.7886,20.9109 42.8276,20.8469 C42.8666,20.7829 42.8956,20.6989 42.9196,20.5959 C42.9596,20.4109 42.9356,20.2829 42.8506,20.2129 C42.7656,20.1429 42.6246,20.1079 42.4246,20.1079 L41.0386,20.1079 L40.8276,21.0789 Z" id="Fill-32" fill="#201043"></path>
                <mask id="mask-2" fill="white">
                    <use xlink:href="#path-1"></use>
                </mask>
                <g id="Clip-35"></g>
                <polygon id="Fill-34" fill="#201043" mask="url(#mask-2)" points="1.252 23 1.942 23 1.942 22.31 1.252 22.31"></polygon>
            </g>
        </g>
    </g>
</svg>