<?xml version="1.0" encoding="utf-8"?>
<!-- Generator: Adobe Illustrator 22.1.0, SVG Export Plug-In . SVG Version: 6.00 Build 0)  -->
<svg version="1.1" id="Слой_1" xmlns="http://www.w3.org/2000/svg" xmlns:xlink="http://www.w3.org/1999/xlink" x="0px" y="0px"
	 width="566.93px" height="260.779px" viewBox="0 0 566.93 260.779" enable-background="new 0 0 566.93 260.779"
	 xml:space="preserve">
<g>
	<path fill-rule="evenodd" clip-rule="evenodd" fill="#41507D" d="M297.843,245.345l7.468-25.887h15.076l-1.264,4.382h-10.987
		l-1.655,5.738h10.208l-1.257,4.358h-10.208l-2.033,7.046h11.356l-1.259,4.363H297.843L297.843,245.345z M326.396,245.345
		l0.81-2.809c-0.829,1.013-1.771,1.802-2.813,2.375c-1.042,0.573-2.041,0.856-2.998,0.856c-0.969,0-1.763-0.265-2.377-0.796
		c-0.609-0.524-0.969-1.277-1.06-2.26c-0.093-0.977,0.125-2.393,0.662-4.255l3.421-11.862h3.905l-2.484,8.613
		c-0.711,2.465-1.104,4.026-1.18,4.689c-0.072,0.669,0.04,1.181,0.344,1.549c0.299,0.362,0.738,0.542,1.314,0.542
		c0.652,0,1.319-0.235,2.01-0.711c0.691-0.476,1.232-1.091,1.62-1.838c0.389-0.748,0.95-2.393,1.684-4.937l2.281-7.908h3.887
		l-5.409,18.751H326.396L326.396,245.345z M337.804,245.345h-3.905l5.409-18.751h3.616l-0.768,2.664
		c0.983-1.248,1.775-2.073,2.383-2.483c0.607-0.404,1.231-0.609,1.871-0.609c0.888,0,1.651,0.314,2.283,0.941l-2.464,4.321
		c-0.491-0.536-1.018-0.808-1.595-0.808c-0.542,0-1.074,0.205-1.605,0.627c-0.535,0.416-1.047,1.169-1.542,2.266
		c-0.495,1.097-1.169,3.11-2.013,6.04L337.804,245.345L337.804,245.345z M346.97,235.702c0.528-1.833,1.364-3.508,2.496-5.015
		c1.132-1.507,2.369-2.634,3.717-3.387c1.342-0.753,2.72-1.133,4.127-1.133c2.365,0,3.942,0.971,4.739,2.905
		c0.789,1.941,0.812,4.201,0.065,6.792c-0.557,1.929-1.411,3.671-2.563,5.226c-1.151,1.555-2.412,2.724-3.778,3.501
		c-1.373,0.784-2.737,1.175-4.099,1.175c-2.186,0-3.752-0.868-4.691-2.609C346.042,241.416,346.038,238.933,346.97,235.702
		L346.97,235.702z M350.884,235.967c-0.548,1.899-0.61,3.333-0.18,4.303c0.429,0.971,1.149,1.453,2.153,1.453
		c0.98,0,1.958-0.488,2.937-1.465c0.98-0.976,1.747-2.417,2.298-4.327c0.536-1.856,0.587-3.272,0.161-4.255
		c-0.428-0.976-1.135-1.465-2.127-1.465c-0.981,0-1.963,0.488-2.949,1.465C352.19,232.658,351.427,234.086,350.884,235.967
		L350.884,235.967z M367.728,226.595h3.633l-0.794,2.754c0.781-0.988,1.657-1.766,2.633-2.333c0.971-0.567,1.929-0.85,2.864-0.85
		c1.678,0,2.878,0.838,3.608,2.508c0.727,1.675,0.65,4.044-0.237,7.118c-0.93,3.224-2.248,5.696-3.959,7.407
		c-1.711,1.712-3.406,2.568-5.083,2.568c-0.779,0-1.444-0.193-2.004-0.59c-0.556-0.392-1.053-1.109-1.498-2.146l-2.726,9.451h-3.904
		L367.728,226.595L367.728,226.595z M368.968,235.653c-0.61,2.116-0.732,3.677-0.363,4.678c0.374,1,1.026,1.5,1.961,1.5
		c0.888,0,1.771-0.464,2.648-1.386c0.872-0.922,1.613-2.435,2.217-4.526c0.576-1.995,0.687-3.46,0.331-4.406
		c-0.348-0.952-0.979-1.422-1.879-1.422c-0.946,0-1.868,0.458-2.764,1.386C370.224,232.399,369.505,233.791,368.968,235.653
		L368.968,235.653z M390.028,239.378l3.631,0.826c-1.063,1.887-2.274,3.285-3.626,4.195c-1.36,0.916-2.817,1.368-4.38,1.368
		c-2.174,0-3.633-0.759-4.383-2.278c-0.886-1.766-0.871-4.237,0.045-7.414c0.905-3.134,2.331-5.641,4.281-7.522
		c1.653-1.591,3.428-2.387,5.32-2.387c2.105,0,3.525,0.814,4.25,2.441c0.837,1.857,0.732,4.599-0.314,8.227l-0.181,0.566h-9.746
		c-0.404,1.483-0.418,2.628-0.041,3.442c0.382,0.814,1.004,1.217,1.869,1.217C388.003,242.06,389.096,241.168,390.028,239.378
		L390.028,239.378z M391.693,234.364c0.386-1.458,0.405-2.561,0.057-3.297c-0.353-0.735-0.916-1.103-1.695-1.103
		c-0.819,0-1.628,0.385-2.409,1.152c-0.801,0.777-1.395,1.856-1.784,3.248H391.693L391.693,234.364z M402.215,232.315l-3.295-0.814
		c0.973-1.892,2.075-3.254,3.301-4.087c1.226-0.832,2.759-1.248,4.61-1.248c1.643,0,2.831,0.241,3.557,0.724
		c0.724,0.488,1.159,1.139,1.289,1.971c0.134,0.831-0.115,2.338-0.749,4.533l-1.704,5.792c-0.468,1.621-0.754,2.833-0.863,3.628
		c-0.101,0.79-0.115,1.64-0.038,2.532h-3.853l0.084-2.049c-0.901,0.825-1.788,1.441-2.67,1.856c-0.879,0.41-1.746,0.615-2.605,0.615
		c-1.43,0-2.457-0.5-3.078-1.507c-0.621-1.007-0.69-2.345-0.207-4.02c0.304-1.055,0.756-1.983,1.353-2.772
		c0.603-0.79,1.309-1.417,2.119-1.887c0.81-0.47,2.016-0.892,3.602-1.254c1.931-0.434,3.306-0.844,4.124-1.218
		c0.299-1.037,0.425-1.717,0.376-2.043c-0.046-0.319-0.229-0.585-0.55-0.79c-0.315-0.211-0.816-0.313-1.501-0.313
		c-0.704,0-1.3,0.169-1.792,0.494C403.231,230.79,402.725,231.405,402.215,232.315L402.215,232.315z M406.261,236.341
		c-0.557,0.211-1.401,0.458-2.532,0.742c-1.301,0.332-2.189,0.693-2.681,1.097c-0.484,0.397-0.818,0.916-1,1.549
		c-0.207,0.717-0.181,1.326,0.088,1.814c0.275,0.488,0.719,0.729,1.341,0.729c0.547,0,1.151-0.193,1.808-0.591
		c0.649-0.392,1.16-0.862,1.53-1.404c0.364-0.543,0.751-1.526,1.161-2.948L406.261,236.341L406.261,236.341z M424.714,245.345
		h-3.904l2.761-9.571c0.553-1.917,0.847-3.194,0.887-3.833c0.038-0.633-0.098-1.121-0.396-1.465
		c-0.301-0.337-0.706-0.513-1.213-0.513c-0.652,0-1.31,0.223-1.968,0.663c-0.651,0.44-1.202,1.048-1.64,1.826
		c-0.438,0.778-0.97,2.242-1.592,4.4l-2.45,8.493h-3.899l5.409-18.751h3.616l-0.794,2.754c0.946-1.061,1.896-1.856,2.857-2.387
		c0.96-0.531,1.925-0.796,2.906-0.796c1.142,0,2.008,0.314,2.615,0.928c0.606,0.621,0.912,1.417,0.932,2.387
		c0.02,0.971-0.236,2.375-0.764,4.207L424.714,245.345L424.714,245.345z M454.887,245.345h-4.458l-0.079-5.882h-8.108l-3.369,5.882
		h-4.36l15.374-25.887h4.343L454.887,245.345L454.887,245.345z M450.291,235.105l-0.02-9.607l-5.522,9.607H450.291L450.291,235.105z
		 M463.18,224.051l1.325-4.593h3.899l-1.325,4.593H463.18L463.18,224.051z M457.038,245.345l5.409-18.751h3.899l-5.409,18.751
		H457.038L457.038,245.345z M468.659,245.345h-3.904l5.409-18.751h3.616l-0.768,2.664c0.983-1.248,1.775-2.073,2.383-2.483
		c0.607-0.404,1.231-0.609,1.871-0.609c0.888,0,1.651,0.314,2.283,0.941l-2.464,4.321c-0.491-0.536-1.018-0.808-1.595-0.808
		c-0.541,0-1.073,0.205-1.605,0.627c-0.535,0.416-1.047,1.169-1.542,2.266c-0.496,1.097-1.168,3.11-2.013,6.04L468.659,245.345
		L468.659,245.345z M478.71,245.345l0.744-18.751h3.789l-0.794,12.29l6.083-12.29h3.749l-1.094,12.29l6.365-12.29h3.835
		l-10.138,18.751h-3.737l0.947-12.06l-5.982,12.06H478.71L478.71,245.345z M504.702,232.315l-3.295-0.814
		c0.973-1.892,2.075-3.254,3.301-4.087c1.226-0.832,2.759-1.248,4.61-1.248c1.643,0,2.831,0.241,3.557,0.724
		c0.724,0.488,1.159,1.139,1.289,1.971c0.135,0.831-0.116,2.338-0.748,4.533l-1.705,5.792c-0.468,1.621-0.754,2.833-0.863,3.628
		c-0.1,0.79-0.115,1.64-0.038,2.532h-3.853l0.084-2.049c-0.901,0.825-1.788,1.441-2.67,1.856c-0.879,0.41-1.746,0.615-2.605,0.615
		c-1.431,0-2.457-0.5-3.078-1.507c-0.621-1.007-0.69-2.345-0.207-4.02c0.305-1.055,0.756-1.983,1.353-2.772
		c0.603-0.79,1.309-1.417,2.119-1.887c0.81-0.47,2.016-0.892,3.603-1.254c1.93-0.434,3.305-0.844,4.123-1.218
		c0.299-1.037,0.426-1.717,0.376-2.043c-0.046-0.319-0.229-0.585-0.55-0.79c-0.315-0.211-0.815-0.313-1.501-0.313
		c-0.704,0-1.3,0.169-1.792,0.494C505.718,230.79,505.212,231.405,504.702,232.315L504.702,232.315z M508.749,236.341
		c-0.557,0.211-1.401,0.458-2.533,0.742c-1.301,0.332-2.189,0.693-2.681,1.097c-0.484,0.397-0.818,0.916-1,1.549
		c-0.207,0.717-0.181,1.326,0.088,1.814c0.274,0.488,0.719,0.729,1.341,0.729c0.548,0,1.151-0.193,1.808-0.591
		c0.649-0.392,1.16-0.862,1.53-1.404c0.364-0.543,0.751-1.526,1.161-2.948L508.749,236.341L508.749,236.341z M517.367,226.595h4.158
		l-0.346,14.766l7.289-14.766h4.02l-10.39,20.013l-2.011,3.897c-0.819,1.463-1.536,2.533-2.144,3.208
		c-0.61,0.682-1.298,1.206-2.064,1.571c-0.761,0.363-1.688,0.821-2.668,0.821H240.115v-5.162h274.279
		c0.74,0,1.388-0.472,1.997-1.384c0.37-0.553,0.753-1.259,1.146-2.109L517.367,226.595L517.367,226.595z M529.771,239.993
		l4.123-0.76c-0.227,1.965,0.532,2.954,2.291,2.954c0.934,0,1.687-0.193,2.257-0.567c0.571-0.38,0.943-0.868,1.115-1.465
		c0.12-0.415,0.114-0.735-0.02-0.97c-0.15-0.241-0.512-0.446-1.09-0.621c-2.946-0.88-4.733-1.724-5.373-2.526
		c-0.79-1-0.935-2.374-0.433-4.116c0.502-1.742,1.435-3.134,2.793-4.183c1.363-1.049,3.055-1.573,5.067-1.573
		c1.926,0,3.278,0.392,4.056,1.176c0.777,0.783,1.116,2.05,1.017,3.791l-3.916,0.862c0.111-1.507-0.594-2.261-2.117-2.261
		c-0.957,0-1.679,0.145-2.172,0.434c-0.487,0.289-0.796,0.663-0.929,1.121c-0.118,0.41-0.033,0.753,0.264,1.025
		c0.288,0.283,1.319,0.705,3.094,1.271c1.992,0.633,3.245,1.405,3.761,2.315c0.507,0.904,0.539,2.11,0.105,3.617
		c-0.523,1.814-1.548,3.309-3.075,4.484c-1.529,1.181-3.341,1.766-5.435,1.766c-1.903,0-3.319-0.488-4.242-1.47
		C529.989,243.314,529.613,241.879,529.771,239.993L529.771,239.993z"/>
	<path fill-rule="evenodd" clip-rule="evenodd" fill="#41507D" d="M51.993,44.488c25.915-28.793,65.359-46.1,104.965-44.369
		c42.214,0.157,82.636,22.342,107.247,55.225c14.995-2.203,29.827,2.518,44.496,4.72c-52.971,11.958-106.269,24.23-155.492,47.201
		c-36.509,16.835-70.085,39.177-102.031,63.092C36.347,182.316,20.7,193.486,5.541,205.13c5.053-10.856,15.81-18.251,21.026-28.793
		c-3.912-14.16-7.986-28.478-8.312-43.425c-6.031-0.944-12.224-1.888-18.255-3.147c5.868-2.36,11.898-3.933,17.929-5.035
		C20.211,95.308,31.62,66.515,51.993,44.488L51.993,44.488L51.993,44.488z M63.077,48.579
		c-18.744,20.454-32.109,46.729-32.435,74.263c15.647-1.731,32.598,2.36,46.778-5.821c41.888-19.196,85.406-36.345,131.206-44.37
		c15.321-2.832,30.968-4.877,45.474-11.013c-22.167-31.782-62.099-51.292-101.705-50.663C118.819,10.66,85.895,25.135,63.077,48.579
		L63.077,48.579L63.077,48.579z M30.805,135.272c0,10.856,1.141,21.713,5.867,31.468c9.291-8.339,20.211-15.262,27.871-25.174
		C53.297,139.362,42.051,137.317,30.805,135.272L30.805,135.272L30.805,135.272z M266.65,80.361
		c2.934-1.416,5.868-2.675,8.801-4.091c5.216,7.237,7.335,15.891,9.616,24.387c9.617,36.66,0.489,77.253-22.981,107.461
		c-15.647,20.926-38.303,36.817-63.566,45.313c-38.465,13.374-82.961,8.182-117.352-13.059
		c-15.484-9.283-28.36-22.027-39.443-35.873c-1.793-2.203-1.63-5.035-2.282-7.71c2.934-1.101,5.705-2.203,8.638-3.146
		c13.039,18.723,30.805,34.457,51.994,44.212c28.523,13.846,62.751,16.048,92.741,5.979c29.99-9.126,55.579-30.366,70.085-57.114
		c14.18-25.961,18.092-57.114,10.269-85.435C271.214,94.207,268.606,87.284,266.65,80.361L266.65,80.361z"/>
	<path fill-rule="evenodd" clip-rule="evenodd" fill="#41507D" d="M178.491,119.83h38.718l-12.713,93.434h-21.959l3.137-18.571
		h-14.711l-6.917,18.571h-22.537L178.491,119.83L178.491,119.83z M187.927,181.346l7.143-42.295l-3.374-0.028l-15.763,42.324
		H187.927L187.927,181.346z M240.839,126.127h21.762l-3.809,12.595h6.76v8.705h-9.391l-15.804,47.056
		c-2.342,6.975-0.256,10.25,6.256,9.821l-0.401,5.812c-6.278,3.149-11.722,3.149-16.249,3.149c-7.157,0-13.383-6.906-9.787-18.797
		l14.224-47.041h-5.731v-8.705h8.363L240.839,126.127L240.839,126.127z M451.235,126.127h21.762l-3.809,12.595h6.76v8.705h-9.392
		l-15.804,47.056c-2.342,6.975-0.256,10.25,6.255,9.821l-0.401,5.812c-6.277,3.149-11.722,3.149-16.248,3.149
		c-7.157,0-13.383-6.906-9.788-18.797l14.224-47.041h-5.731v-8.705h8.363L451.235,126.127L451.235,126.127z M282.401,119.83h21.024
		l-30.046,93.434h-21.024L282.401,119.83L282.401,119.83z M321.801,213.264h21.577l16.783-64.171
		c2.685-10.267-5.919-14.96-20.287-14.817c-20.142,0.201-31.506,10.295-36.885,28.709c6.147,0.247,13.955-0.247,20.102,0
		c1.721-12.965,5.402-18.677,11.065-18.892c5.768-0.219,7.438,5.31,2.398,18.336c-1.537,9.199-42.942,6.206-44.999,36.672
		c-0.522,7.737,3.501,14.162,11.25,14.162c7.718,0,14.359-3.005,21.578-8.791L321.801,213.264L321.801,213.264z M333.051,174.654
		c-2.336,13.891-8.546,29.723-16.598,29.819c-5.067,0.061-6.036-5.506-4.795-10.187
		C313.998,185.462,324.199,176.759,333.051,174.654L333.051,174.654z M377.865,135.573h21.209l-1.578,5.607
		c4.861-2.913,9.452-4.395,14.304-5.607c6.064-1.515,21.059-0.093,16.938,15.179l-17.588,62.512h-21.209l17.285-61.435
		c2.004-7.123-1.926-8.913-11.214-5.372l-18.796,66.807h-21.209L377.865,135.573L377.865,135.573z M486.992,135.573h21.209
		l-1.578,5.607l-1.484,5.277l-18.796,66.807h-21.209L486.992,135.573L486.992,135.573z M491.616,119.83h22.059l-3.022,8.988h-22.059
		L491.616,119.83L491.616,119.83z M547.494,157.189l18.13-0.01c5.927-18.674-9.651-22.826-19.873-22.76
		c-15.028,0.098-28.555,7.714-31.877,23.13c-2.656,12.324,7.372,18.069,13.747,21.689c15.847,8.997,12.918,24.942-0.348,24.86
		c-9.811-0.061-8.557-8.053-5.578-15.056h-13.597c-2.638,3.966-3.478,7.68-3.437,12.255c0.063,6.902,9.376,11.967,22.264,11.967
		c17.022,0,26.669-8.822,30.303-22.599c2.373-8.998-2.296-16.443-12.174-21.581c-16.928-8.806-12.416-26.196-1.394-25.91
		C549.129,143.315,550.399,148.437,547.494,157.189L547.494,157.189z"/>
</g>
</svg>
