<?xml version="1.0" encoding="utf-8"?>
<!-- Generator: Adobe Illustrator 23.0.5, SVG Export Plug-In . SVG Version: 6.00 Build 0)  -->
<svg version="1.1" xmlns="http://www.w3.org/2000/svg" xmlns:xlink="http://www.w3.org/1999/xlink" x="0px" y="0px"
	 viewBox="0 0 372.8 99.9" style="enable-background:new 0 0 372.8 99.9;" xml:space="preserve">
<style type="text/css">
	.st0{fill-rule:evenodd;clip-rule:evenodd;fill:#BA243D;}
	.st1{fill-rule:evenodd;clip-rule:evenodd;fill:#FFFFFF;}
</style>
<g id="Слой_3">
	<rect class="st0" width="372.8" height="99.9"/>
</g>
<g id="Слой_1" text-rendering="geometricPrecision" shape-rendering="geometricPrecision" image-rendering="optimizeQuality">
	<path class="st1" d="M47.7,60.1c-5.2,0-12.2-1.4-10.2-7.2l3.7-11.5h6.3L44,52.1c-0.8,2.3,0.9,3.8,5.1,3.8s6.8-1.5,7.6-3.8l3.4-10.7
		h6.2l-3.8,11.5C60.7,58.7,53,60.1,47.7,60.1z M85.9,47.2c-0.4,1.3-1.5,1.8-2.4,1.8h-10l1.1-3.3h9.8C85.6,45.7,86.2,46.2,85.9,47.2z
		 M87.1,41.4H69.7l-6,18.4H70l2.1-6.5h4.7l3.5,6.5h8.2l-4.4-7.2h1.1c2.9,0,5.8-2.4,6.9-5.7C93.3,43.1,90.7,41.4,87.1,41.4z
		 M102.7,52.6l5.7-6.3l1.6,6.3H102.7z M113.3,41.3h-6.4L88.5,59.8h7.7l3-3.3h11.7l0.8,3.3h7.8L113.3,41.3z M120.9,59.8l6-18.4h6.3
		l-4.6,13.9h16.8l-3,4.5H120.9z M155.6,54.4h13.9l-3-11.9L155.6,54.4z M319.2,59.8c-3.9,0-7.2-0.4-9.9-1.1l1.2-1.8
		c2,0.6,5.2,1.5,10.2,1.5c3.9,0,9.9-1.1,10.9-4c0.9-2.5-4.8-2.7-9.3-3c-4-0.3-8.5-0.4-9.7-2.5c-0.1-0.2-0.5-0.7,0-2.2
		c1.1-3.2,7.3-5.5,15.1-5.5c3.6,0,7,0.4,9.3,0.9l-1.2,1.8c-2.4-0.9-5.9-1.4-9.6-1.4c-4.3,0-10.6,1-11.5,3.6
		c-0.2,0.7-0.2,1.2,0.1,1.8c0.9,1.4,5.1,1.1,9.3,1.2c4.5,0.1,9.5,0.3,10.3,2.3c0.1,0.2,0.5,0.9,0,2.4
		C333.1,58.4,325.4,59.8,319.2,59.8z M282.6,59.5l5.9-18h20.7l-0.4,1.3h-18.6l-2.1,6.3h18.7l-0.4,1.3h-18.6l-2.5,7.7h18.6l-0.4,1.3
		h-20.9V59.5z M249.2,59.5l5.9-18.2l19,15.2l5-15h2.2l-6,18.2l-19.1-15.5l-4.7,15.3H249.2z M216,59.5l5.9-18h2.2l-5.3,16.1h17.3
		l-0.6,2L216,59.5L216,59.5z M192.9,50.2h13.5c2,0,4.4-1.2,5-3.1c0.4-1.3,1.5-3.9-3.9-3.9h-12.3L192.9,50.2z M203.7,59.5l-3.9-7.5
		h-7.4l-2.4,7.5h-2.2l5.8-18h15.9c2,0,3.4,0.4,4,1.3c0.5,0.7,1.2,2,0.8,3.3c-1,3.1-3.5,5.6-6.1,5.6H202l4.9,7.8H203.7z M239.6,59.5
		l5.9-18h2.3l-5.9,18H239.6z M177.4,59.5l5.9-18h2.3l-5.9,18H177.4z M170.6,59.5l-0.9-3.8h-15.2l-3.4,3.8h-2.9l16.4-18h3.8l4.8,18
		H170.6z"/>
</g>
</svg>
