<svg width="66" height="58" viewBox="0 0 66 58" fill="none" xmlns="http://www.w3.org/2000/svg">
<path d="M0 32.0419C0 34.4232 2.4867 35.3692 4.76822 35.3692C7.04974 35.3692 9.44616 34.3743 9.44616 32.1316C9.44616 29.6606 7.26312 29.3833 5.79408 29.1223C5.40015 29.0734 4.53842 29.0326 4.18553 28.9592C3.37304 28.7717 2.74111 28.4944 2.74111 27.6381C2.74111 26.7818 3.71773 26.2762 4.7436 26.2762C5.90898 26.2762 7.1154 26.9041 7.1154 28.3802H9.32305C9.32305 25.534 7.43546 24.5391 4.53022 24.5391C2.27332 24.5391 0.295449 25.4606 0.295449 27.7278C0.295449 29.6035 1.38697 30.2477 3.57821 30.6392C3.93111 30.6881 4.76822 30.7534 5.11291 30.8023C6.44243 31.0307 6.97588 31.3813 6.97588 32.2621C6.97588 34.1786 2.32256 34.0155 2.3718 32.0337V31.732H0V32.0337V32.0419ZM32.7292 58C38.6135 58 43.9891 55.6187 47.8545 51.7612C51.7364 47.9038 54.1574 42.5866 54.1574 36.7312H51.8349C51.8349 41.9342 49.6682 46.6724 46.2296 50.1139C42.7662 53.5554 37.998 55.6839 32.7374 55.6839C27.4767 55.6839 22.7085 53.5554 19.2698 50.1139C15.8065 46.6724 13.6399 41.9342 13.6399 36.7312H11.3173C11.3173 42.5785 13.7384 47.8957 17.6202 51.7612C21.5021 55.6187 26.853 58 32.7456 58H32.7292ZM11.3091 24.6696V35.1654H13.6563V24.6696H11.3091ZM20.7307 21.2933V35.1654H23.1025V30.7044H24.3335L27.3619 35.1654H30.1276L26.336 29.7584L30.0373 24.6696H27.2716L24.4074 28.7146H23.1025V21.2933H20.7307ZM51.8349 24.6696V35.1654H54.2067V24.6696H51.8349ZM37.1363 30.7289H33.8289C32.9179 30.7289 32.4583 31.5607 32.4583 32.205C32.4337 32.9471 33.0164 33.7545 34.1572 33.7545C35.2979 33.7545 37.0624 33.1265 37.1363 30.9817V30.7289ZM62.7501 30.7289H59.4427C58.5317 30.7289 58.0721 31.5607 58.0721 32.205C58.0475 32.9471 58.6056 33.7545 59.7463 33.7545C60.8871 33.7545 62.6762 33.1265 62.7501 30.9817V30.7289ZM18.3835 35.1654H16.0363V21.2933H18.3835V35.1654ZM47.8545 6.26322C43.9891 2.40579 38.6217 0 32.7292 0C26.8366 0 21.4939 2.40579 17.6038 6.26322C13.722 10.1043 11.3009 15.4379 11.3009 21.2933V23.0956H13.6481V21.2933C13.6481 16.2534 15.6506 11.4418 19.2534 7.88611C22.7003 4.4446 27.485 2.31609 32.721 2.31609C37.957 2.31609 42.7498 4.4446 46.2131 7.88611C49.7996 11.4499 51.8185 16.2534 51.8185 21.2933V23.0956H54.1903V21.2933C54.1903 15.6336 51.8677 10.243 47.8381 6.26322H47.8545ZM58.6959 28.3639L56.4636 28.3884C56.4143 25.5422 58.5317 24.4086 60.6737 24.4086C63.2753 24.4086 65.0726 25.7461 65.0972 28.0621L65.1219 32.2702C65.1219 33.2163 65.1711 33.5425 66.0082 33.4935V35.1327C65.4009 35.1572 65.1711 35.1572 64.9577 35.1572C64.3504 35.1572 63.2343 35.0838 63.0045 33.885C62.233 34.8555 60.5588 35.41 59.1883 35.3611C54.8632 35.2469 54.814 29.261 59.098 29.261H62.7254V27.8746C62.7254 26.8307 61.9786 26.2109 60.6819 26.1864C59.7053 26.162 58.7041 26.741 58.7041 28.3557L58.6959 28.3639ZM33.0821 28.3639L30.8498 28.3884C30.8006 25.5422 32.9426 24.4086 35.0599 24.4086C37.6615 24.4086 39.4588 25.7461 39.4835 28.0621L39.5081 32.2702C39.5081 33.2163 39.5573 33.5425 40.3944 33.4935V35.1327C39.7871 35.1572 39.5573 35.1572 39.3439 35.1572C38.7366 35.1572 37.6205 35.0838 37.3907 33.885C36.6193 34.8555 34.945 35.41 33.5745 35.3611C29.2494 35.2469 29.2002 29.261 33.4842 29.261H37.1363L37.1117 27.8746C37.1117 26.8307 36.3648 26.2109 35.0681 26.1864C34.0915 26.162 33.0903 26.741 33.0903 28.3557L33.0821 28.3639ZM45.3432 32.8493L42.6924 24.6696H40.1811L43.9726 35.1654H46.7138L50.4807 24.6696H47.9694L45.3432 32.8493Z" fill="#fb1e26"/>
</svg>
