<?xml version="1.0" encoding="utf-8"?>
<!-- Generator: Adobe Illustrator 22.1.0, SVG Export Plug-In . SVG Version: 6.00 Build 0)  -->
<svg version="1.1" id="svg2" xmlns="http://www.w3.org/2000/svg" xmlns:xlink="http://www.w3.org/1999/xlink" x="0px" y="0px"
	 width="522.861px" height="142.232px" viewBox="0 0 522.861 142.232" enable-background="new 0 0 522.861 142.232"
	 xml:space="preserve">
<g>
	<g>
		<path id="path2464" fill="#47143D" d="M318.361,42.59c-0.164,0-1.925,0.528-3.908,1.174c-2.605,0.845-3.767,1.303-4.155,1.655
			l-0.54,0.481v19.986v19.998l0.399,1.549c1.385,5.422,4.507,8.861,9.729,10.727c3.579,1.279,7.98,1.749,12.522,1.326
			c2.582-0.235,4.647-0.587,7.288-1.244c2.476-0.622,3.087-0.868,3.251-1.385c0.129-0.411-0.868-3.615-1.279-4.084
			c-0.376-0.434-0.681-0.387-2.993,0.387c-3.333,1.127-5.328,1.479-8.286,1.467c-2.007-0.012-2.84-0.094-3.943-0.387
			c-2.911-0.775-4.847-2.171-5.903-4.272c-1.021-2.03-1.033-2.112-1.033-16.865L319.5,59.631h10.292h10.292l0.505-0.516
			c0.493-0.481,0.516-0.599,0.516-2.019c0-1.326-0.047-1.549-0.422-1.983l-0.422-0.493l-10.375-0.047L319.5,54.526v-5.539v-5.528
			l-0.423-0.434C318.842,42.79,318.514,42.591,318.361,42.59L318.361,42.59z M274.293,52.284c-3.92,0.035-7.734,0.458-11.044,1.291
			c-6.267,1.584-10.715,5.035-12.182,9.471c-0.376,1.138-0.458,1.76-0.469,3.251c-0.012,2.066,0.223,3.274,0.974,4.859
			c1.678,3.579,5.539,5.974,11.654,7.229c2.312,0.481,4.178,0.669,10.703,1.091c7.135,0.458,9.623,0.857,11.935,1.913
			c2.218,1.009,3.087,2.277,3.216,4.753c0.117,2.183-0.293,3.18-2.042,4.929c-1.068,1.068-1.678,1.502-3.004,2.159
			c-7.417,3.65-19.493,2.3-30.244-3.368c-1.807-0.962-1.901-0.986-2.359-0.739c-0.493,0.282-1.948,2.711-2.112,3.544
			c-0.153,0.739,0.223,1.162,1.69,1.901c4.284,2.159,9.811,3.838,15.022,4.565c3.568,0.505,3.403,0.505,8.955,0.446
			c4.061-0.047,5.563-0.129,7.405-0.411c7.875-1.221,13.05-3.756,15.668-7.664c1.279-1.913,1.631-3.087,1.737-5.715
			c0.059-1.702,0.012-2.453-0.211-3.333c-1.127-4.319-4.46-7.417-9.823-9.119c-3.016-0.962-6.877-1.467-15.386-2.03
			c-5.246-0.34-6.971-0.54-8.602-0.986c-2.406-0.657-3.838-1.608-4.624-3.051c-0.552-1.021-0.528-3.462,0.035-4.882
			c0.575-1.467,1.972-2.899,3.673-3.791c2.558-1.326,5.305-1.831,9.87-1.831c6.502,0.023,12.522,1.35,18.073,4.014
			c1.291,0.622,2.476,1.127,2.641,1.127c0.411,0,0.915-0.575,1.749-2.007c0.833-1.432,0.88-1.889,0.282-2.453
			c-0.552-0.505-3.967-1.972-6.502-2.793C285.982,53.059,280.02,52.249,274.293,52.284L274.293,52.284z M375.715,52.895
			c-2.195,0-4.413,0.07-5.551,0.211c-3.92,0.493-8.215,1.573-11.724,2.946c-2.124,0.833-5.903,2.629-6.302,2.993
			c-0.587,0.528-0.399,1.361,0.857,4.049c0.469,0.986,0.751,0.939,4.647-0.986c8.614-4.26,16.184-5.516,23.225-3.861
			c5.082,1.197,8.415,3.885,9.706,7.828c0.317,0.986,0.563,7.347,0.282,7.617c-0.106,0.106-0.845,0.012-1.995-0.258
			c-9.001-2.124-17.58-2.57-24.974-1.314c-10.034,1.702-15.409,6.502-15.398,13.743c0,3.673,1.033,6.267,3.403,8.626
			c2.723,2.688,6.349,4.178,12.041,4.917c2.5,0.329,9.753,0.223,12.299-0.176c5.117-0.798,10.034-2.582,13.379-4.859
			c0.552-0.364,1.08-0.669,1.185-0.669c0.117,0,0.188,0.634,0.188,1.749c0,3.11,0.082,3.157,5,3.157
			c4.155,0,4.507-0.082,4.835-1.185c0.141-0.458,0.176-4.683,0.129-14.435c-0.07-13.25-0.082-13.848-0.434-15.28
			c-0.751-3.063-1.796-5.234-3.556-7.429c-3.04-3.779-8.391-6.208-15.808-7.171C380.069,52.965,377.898,52.895,375.715,52.895
			L375.715,52.895z M497.323,52.895c-2.265,0.012-4.542,0.117-5.891,0.305c-5.445,0.739-10.891,2.465-16.16,5.117
			c-1.819,0.904-1.901,1.221-0.951,3.439c0.692,1.62,1.021,2.089,1.49,2.089c0.176,0,1.444-0.587,2.828-1.314
			c8.297-4.307,15.738-5.786,22.885-4.554c5.434,0.939,9.271,3.638,10.762,7.558c0.422,1.115,0.458,1.455,0.528,4.788l0.082,3.579
			l-0.505-0.106c-0.282-0.059-1.385-0.305-2.465-0.552c-2.418-0.552-6.337-1.221-8.931-1.526c-2.899-0.34-10.152-0.293-13.121,0.082
			c-10.046,1.291-15.891,5.164-17.264,11.431c-0.422,1.948-0.282,4.741,0.352,6.725c0.528,1.655,1.784,3.662,2.981,4.765
			c2.617,2.418,6.819,4.061,11.865,4.683c2.605,0.317,8.063,0.317,10.774,0c5.845-0.681,10.961-2.382,14.764-4.906
			c0.657-0.446,1.279-0.798,1.361-0.798s0.141,0.728,0.141,1.631s0.094,1.901,0.2,2.206c0.34,0.974,0.775,1.068,4.788,1.068
			c1.983,0,3.802-0.07,4.037-0.164c1.021-0.387,0.986-0.023,0.986-14.47c0-8.438-0.07-13.743-0.188-14.6
			c-0.88-6.396-4.331-11.161-9.882-13.696c-2.57-1.162-6.15-2.124-9.682-2.57C501.83,52.942,499.588,52.871,497.323,52.895
			L497.323,52.895z M413.27,53.822l-0.516,0.516l-0.528,0.516l0.012,21.219c0,22.791-0.035,21.782,0.892,22.287
			c0.563,0.317,7.476,0.352,8.145,0.047c0.939-0.434,0.962-0.599,0.962-8.039v-6.854h10.68l6.736,5.481
			c10.562,8.602,10.727,8.732,11.56,9.142c0.763,0.376,1.021,0.387,6.185,0.434c5.234,0.047,5.41,0.047,5.751-0.305
			c0.422-0.422,0.458-1.009,0.106-1.526c-0.153-0.211-4.143-3.31-8.872-6.901c-4.73-3.579-8.638-6.584-8.685-6.666
			c-0.059-0.082,0.481-0.2,1.174-0.27c6.596-0.634,12.053-3.896,14.365-8.614c0.927-1.901,1.232-3.134,1.35-5.539
			c0.188-4.002-0.927-7.182-3.45-9.882c-1.737-1.854-4.87-3.603-8.051-4.471l-1.713-0.469L413.27,53.822L413.27,53.822z
			 M160.242,53.833l-0.28,0.422c-0.242,0.364-0.027,1.009-0.027,1.009c0.136,0.317,24.424,42.637,24.893,42.954
			c0.587,0.399,0.634,0.411,5.377,0.352l4.792-0.047l0.427-0.434c0.623-0.634,24.689-42.778,24.689-43.235
			c0-0.211-0.129-0.528-0.293-0.704c-0.258-0.282-0.599-0.317-3.064-0.317h-2.781l-0.506,0.481
			c-0.278,0.27-21.367,37.426-21.545,37.238c0,0-20.969-37.391-21.239-37.508L160.242,53.833L160.242,53.833z M229.584,53.833
			l-0.434,0.434l-0.434,0.422v42.895l0.516,0.516l0.516,0.505h8.133l0.516-0.505l0.505-0.516V54.761l-0.458-0.469l-0.458-0.458
			L229.584,53.833L229.584,53.833z M422.336,58.481h10.879c9.87,0,10.997,0.035,12.018,0.317c3.333,0.915,5.68,3.521,6.443,7.147
			c0.387,1.831,0.246,4.366-0.364,6.267c-1.045,3.298-3.227,5.316-6.725,6.22c-1.232,0.317-2.019,0.34-11.83,0.34h-10.515
			L422.336,58.481L422.336,58.481z M374.254,75.862c2.676-0.035,5.692,0.188,9.001,0.645c2.817,0.387,7.382,1.314,7.593,1.526
			c0.082,0.082,0.129,2.547,0.094,5.492l-0.047,5.34l-1.138,0.763c-2.429,1.596-5.845,3.192-8.556,3.979
			c-3.098,0.904-5.14,1.174-9.095,1.232c-2.03,0.035-3.885,0.023-4.131-0.023c-5.645-1.021-8.368-3.486-8.955-8.086
			c-0.364-2.899,0.411-5.223,2.382-7.065C364.02,77.212,368.351,75.944,374.254,75.862L374.254,75.862z M496.613,75.862
			c3.72-0.023,7.992,0.422,12.698,1.338c1.479,0.293,2.887,0.61,3.122,0.692l0.434,0.164l-0.047,5.399l-0.047,5.41l-1.232,0.833
			c-1.42,0.951-4.542,2.535-6.326,3.204c-1.889,0.716-4.976,1.467-7.206,1.76c-2.171,0.282-7.1,0.317-8.614,0.07
			c-2.629-0.446-5.211-1.713-6.478-3.204c-2.359-2.746-2.734-7.746-0.786-10.574C484.408,77.646,489.513,75.909,496.613,75.862
			L496.613,75.862z"/>
	</g>
	<path id="path2444" fill="#B99750" d="M71.033,0l-0.512,0.359c-2.107,1.459-7.217,6.253-10.134,9.505
		c-2.917,3.253-5.732,6.847-8.104,10.339c-0.64,0.947-1.237,1.757-1.322,1.803c-0.085,0.045-1.16-0.109-2.389-0.343
		c-7.643-1.456-15.969-2.033-22.913-1.584c-3.583,0.232-4.999,0.438-5.169,0.754c-0.205,0.397-0.52,3.671-0.631,6.794
		c-0.247,6.511,0.247,13.305,1.467,20.088c0.256,1.399,0.495,2.747,0.529,2.994c0.068,0.444,0.068,0.452-1.442,1.467
		C14.383,56.246,8.403,61.364,3.703,66.5c-1.442,1.57-3.463,4.035-3.66,4.461c-0.119,0.239-0.017,0.418,0.631,1.28
		c4.342,5.681,12.352,12.958,19.586,17.786c0.896,0.597,1.646,1.143,1.68,1.211c0.026,0.068-0.145,1.135-0.375,2.363
		c-1.297,6.824-1.791,12.668-1.68,19.697c0.06,3.694,0.307,7.37,0.546,8.147c0.051,0.154,0.358,0.239,1.177,0.35
		c7.362,0.972,18.11,0.469,26.896-1.262c1.058-0.213,2.064-0.375,2.235-0.375c0.273,0,0.503,0.264,1.408,1.621
		c2.098,3.148,5.383,7.37,8.095,10.433c3.412,3.856,10.057,10.023,10.791,10.023c0.111,0,0.691-0.384,1.288-0.853
		c1.817-1.433,3.779-3.224,6.321-5.809c4.342-4.393,8.036-8.914,11.397-13.93c0.512-0.759,1.015-1.408,1.117-1.45
		c0.102-0.034,1.1,0.111,2.218,0.324c6.986,1.365,14.843,1.988,21.497,1.698c3.89-0.171,6.321-0.435,6.534-0.725
		c0.35-0.461,0.691-5.169,0.691-9.631c0-6.355-0.563-12.326-1.723-18.229c-0.239-1.211-0.409-2.278-0.375-2.363
		c0.034-0.085,0.674-0.554,1.425-1.049c4.7-3.088,9.597-7.08,13.93-11.354c3.421-3.369,6.782-7.191,6.782-7.703
		c0-0.427-2.917-3.847-5.664-6.637c-4.223-4.299-9.673-8.82-14.723-12.207c-1.263-0.853-1.698-1.203-1.698-1.408
		c0-0.145,0.179-1.126,0.384-2.175c1.314-6.673,1.953-14.764,1.663-21.152c-0.171-3.821-0.435-6.46-0.691-6.8
		c-0.367-0.496-6.261-0.891-11.755-0.79c-5.63,0.103-10.194,0.556-15.645,1.555c-1.331,0.246-2.551,0.448-2.713,0.447
		c-0.213-0.001-0.503-0.335-1.237-1.428c-3.822-5.689-8.539-11.286-13.307-15.784c-1.783-1.685-4.368-3.887-5.212-4.443L71.033,0
		L71.033,0z M71.05,3.993c0.478,0,5.929,5.216,8.607,8.233c3.446,3.878,8.053,9.963,7.95,10.499
		c-0.034,0.152-0.563,0.357-1.953,0.753c-1.058,0.3-2.005,0.549-2.116,0.551c-0.119,0.003-0.367-0.232-0.563-0.523
		c-0.657-0.988-3.156-4.24-4.444-5.784c-2.397-2.854-6.986-7.348-7.507-7.348c-0.282,0-2.278,1.8-4.291,3.865
		c-2.525,2.598-5.673,6.435-7.549,9.187c-0.503,0.74-0.537,0.742-2.696,0.112c-1.996-0.583-2.047-0.603-2.047-0.846
		c0-0.237,0.938-1.599,2.883-4.212c3.591-4.808,7.874-9.483,12.113-13.243C70.214,4.554,70.939,3.993,71.05,3.993z M71.025,14.46
		c0.23,0,2.568,2.32,4.188,4.16c1.988,2.249,4.888,6.023,4.888,6.354c0,0.107-0.256,0.28-0.606,0.407
		c-1.689,0.615-5.511,2.158-6.901,2.788c-0.87,0.392-1.612,0.711-1.663,0.706c-0.043-0.004-0.512-0.212-1.041-0.459
		c-1.45-0.682-4.649-2.001-6.321-2.612c-0.819-0.3-1.518-0.624-1.561-0.718c-0.171-0.455,4.06-5.726,7.225-8.995
		C70.103,15.194,70.914,14.46,71.025,14.46z M110.981,23.044c0.665,0,1.322,0.009,1.988,0.024c4.078,0.094,5.468,0.189,5.673,0.395
		c0.222,0.224,0.409,3.586,0.409,7.399c-0.009,18.833-5.767,37.241-16.199,51.811l-1.083,1.518l0.273,2.184
		c0.435,3.506,0.563,5.997,0.486,9.52c-0.077,3.557-0.282,5.971-0.529,6.236c-0.282,0.29-3.472,0.529-7.345,0.537
		c-3.77,0.017-5.86-0.102-8.803-0.512c-1.152-0.162-1.791-0.196-1.945-0.119c-0.128,0.068-0.751,0.503-1.382,0.955
		c-1.945,1.399-3.276,2.226-3.591,2.218c-0.162,0-0.904-0.282-1.638-0.614c-1.902-0.87-2.687-1.28-2.687-1.416
		c0-0.154,0.026-0.171,2.875-2.039c1.262-0.827,3.028-2.056,3.924-2.738c0.99-0.742,1.749-1.228,1.936-1.228
		c0.162,0,1.007,0.145,1.877,0.324c3.566,0.725,8.343,1.1,11.371,0.896c1.075-0.077,1.382-0.136,1.442-0.299
		c0.043-0.111,0.111-1.126,0.154-2.252c0.111-3.114-0.222-6.875-0.938-10.416c-0.179-0.879-0.324-1.706-0.324-1.851
		c0-0.136,0.623-1.092,1.39-2.107c4.555-6.091,8.462-13.248,11.081-20.294c2.755-7.396,4.419-14.877,5.05-22.656
		c0.179-2.238,0.222-7.493,0.068-9.286c-0.085-1.085-0.136-1.268-0.375-1.4c-0.392-0.218-7.566-0.299-10.057-0.112
		c-8.078,0.603-16.012,2.389-23.945,5.389l-0.802,0.303l-0.537-0.311c-0.299-0.171-1.177-0.672-1.953-1.109
		c-1.698-0.961-2.081-1.254-1.911-1.437c0.196-0.196,3.975-1.692,6.347-2.509C90.892,24.744,101.009,23.041,110.981,23.044
		L110.981,23.044z M30.514,23.076c2.755-0.002,5.664,0.076,7.464,0.24c12.403,1.129,22.947,4.034,33.226,9.158
		c4.24,2.114,7.584,4.143,12.343,7.487l0.572,0.403l1.211-0.188c3.933-0.601,10.381-0.812,14.109-0.462
		c2.167,0.204,2.474,0.265,2.61,0.514c0.384,0.72,0.648,8.085,0.401,11.438c-0.077,1.126-0.264,3.028-0.418,4.231l-0.264,2.192
		l0.759,1.066c1.501,2.098,2.627,3.856,2.619,4.12c0,0.145-0.418,1.169-0.921,2.278c-0.682,1.467-0.99,2.005-1.152,2.005
		c-0.136,0-0.418-0.324-0.751-0.879c-0.793-1.348-2.841-4.35-4.086-5.997c-0.614-0.819-1.152-1.553-1.203-1.638
		c-0.051-0.085,0.077-1.032,0.29-2.107c0.52-2.661,0.776-4.743,0.896-7.276c0.102-2.073-0.009-5.383-0.179-5.562
		c-0.051-0.051-1.732-0.085-3.745-0.085c-3.992,0-5.425,0.128-9,0.836c-1.041,0.205-1.928,0.375-1.988,0.375
		c-0.051,0-0.87-0.589-1.808-1.297C67.229,33.193,48.905,27.135,31.853,27.519c-1.791,0.04-3.455,0.125-3.702,0.183
		c-0.392,0.096-0.452,0.165-0.563,0.675c-0.213,1.048-0.154,8.756,0.094,11.229c0.717,7.146,2.295,14.201,4.555,20.359
		c0.358,0.981,0.742,2.022,0.845,2.32l0.188,0.529l-0.904,1.561c-0.503,0.862-1.049,1.843-1.228,2.184
		c-0.461,0.913-0.699,0.845-1.203-0.375c-3.839-9.213-6.133-19.014-6.893-29.438c-0.171-2.419-0.179-9.476,0-11.564
		c0.094-1.181,0.179-1.634,0.333-1.743C23.681,23.206,26.974,23.077,30.514,23.076L30.514,23.076z M31.759,30.543
		c0.512-0.003,1.271,0.012,2.448,0.04c7.788,0.183,15.082,1.451,22.665,3.937c1.945,0.639,2.397,0.858,2.252,1.097
		c-0.043,0.067-0.512,0.423-1.049,0.793l-0.972,0.675l-1.109-0.144c-2.858-0.373-4.316-0.454-8.249-0.459
		c-2.636-0.003-4.811,0.058-5.809,0.164c-1.996,0.211-4.487,0.633-4.641,0.782c-0.162,0.168-0.427,1.512-0.682,3.518
		c-0.324,2.53-0.324,11.427,0,13.961c0.307,2.431,0.316,2.389-0.427,3.446c-0.35,0.495-0.691,0.913-0.759,0.913
		c-0.068,0-0.171-0.102-0.239-0.23c-0.333-0.623-1.757-5.331-2.371-7.839c-1.484-5.997-2.175-11.095-2.329-17.147
		c-0.077-2.885-0.068-3.079,0.154-3.303C30.787,30.605,30.915,30.547,31.759,30.543z M108.746,30.67
		c1.467,0.002,2.644,0.049,2.704,0.144c0.128,0.215,0.077,5.214-0.077,7.16c-0.529,6.671-1.74,12.727-3.779,19.006
		c-0.375,1.169-0.768,2.192-0.862,2.269c-0.128,0.102-0.23,0.068-0.418-0.145c-0.145-0.154-0.503-0.64-0.802-1.066l-0.529-0.776
		l0.282-2.354c0.392-3.233,0.427-10.876,0.068-13.833c-0.264-2.156-0.512-3.481-0.682-3.654c-0.171-0.165-1.945-0.459-4.257-0.705
		c-2.764-0.296-9.119-0.29-11.994,0.012c-3.958,0.413-3.515,0.443-4.538-0.304c-0.486-0.357-0.887-0.748-0.887-0.865
		c0-0.16,0.409-0.352,1.604-0.758c6.193-2.097,13.043-3.485,19.714-3.993C105.522,30.713,107.279,30.669,108.746,30.67
		L108.746,30.67z M63.049,36.925c0.435,0,4.444,1.895,4.513,2.134c0.026,0.085-0.512,0.514-1.203,0.954
		c-2.116,1.346-3.984,2.627-5.749,3.95c-0.998,0.751-1.8,1.263-1.979,1.263c-0.162,0-1.152-0.171-2.209-0.375
		c-3.207-0.631-5.263-0.827-8.744-0.827c-2.03,0-3.242,0.051-3.463,0.145c-0.324,0.136-0.341,0.196-0.435,1.527
		c-0.205,3.037,0.171,7.814,0.896,11.38c0.179,0.87,0.324,1.698,0.324,1.834c0,0.128-0.52,0.947-1.169,1.8
		c-4.879,6.526-8.923,14.084-11.712,21.889c-2.431,6.824-4.035,14.408-4.606,21.778c-0.136,1.783-0.154,8.215-0.017,9.46
		l0.077,0.759l0.768,0.094c1.356,0.154,5.946,0.213,7.976,0.094c8.326-0.478,16.626-2.235,24.542-5.186l1.885-0.699l2.073,1.177
		c1.143,0.648,2.116,1.245,2.167,1.322c0.154,0.239-0.162,0.409-2.329,1.271c-12.224,4.828-25.822,7.089-38.643,6.44
		c-1.211-0.06-2.337-0.162-2.508-0.23c-0.409-0.154-0.427-0.409-0.537-5.553c-0.136-7.012,0.375-12.847,1.749-19.765
		c2.508-12.676,7.558-24.491,14.689-34.395l0.759-1.049l-0.196-1.373c-0.324-2.218-0.452-3.634-0.58-6.347
		c-0.179-3.864,0.171-9.946,0.589-10.294c0.401-0.334,3.25-0.532,7.703-0.535c4.376-0.003,4.99,0.037,9.076,0.566l1.228,0.16
		l0.879-0.646C60.413,38.506,62.853,36.925,63.049,36.925L63.049,36.925z M71.076,40.882c0.247,0,3.045,1.69,5.195,3.132
		c1.911,1.288,3.088,2.15,5.016,3.677c1.288,1.015,1.041,0.981,3.472,0.409c2.098-0.486,5.562-0.955,7.891-1.066
		c2.252-0.111,2.482-0.094,2.542,0.196c0.017,0.111,0,1.126-0.051,2.261c-0.119,3.003-0.375,4.777-1.331,9.213l-0.23,1.041
		l0.904,1.135c1.245,1.57,2.516,3.31,3.617,4.956c1.331,1.996,3.19,5.059,3.19,5.272c0,0.239-1.459,2.713-2.781,4.7
		c-1.314,1.996-2.474,3.591-3.898,5.4l-1.143,1.459l0.392,1.672c0.691,2.909,1.083,5.724,1.254,8.906
		c0.068,1.339,0.051,1.8-0.077,1.945c-0.435,0.529-6.475-0.06-10.697-1.032l-1.953-0.444l-1.109,0.879
		c-1.757,1.39-3.532,2.687-5.323,3.873c-2.03,1.348-4.641,2.926-4.837,2.917c-0.077,0-0.256-0.068-0.401-0.145
		c-2.696-1.467-7.345-4.606-9.929-6.688c-0.554-0.452-1.126-0.819-1.262-0.819c-0.136,0-0.691,0.111-1.228,0.247
		c-1.322,0.341-4.146,0.845-5.69,1.024c-1.911,0.23-5.212,0.375-5.468,0.239c-0.196-0.102-0.222-0.316-0.222-1.612
		c0-2.534,0.427-5.852,1.16-9.136c0.205-0.904,0.367-1.74,0.367-1.86s-0.435-0.759-0.964-1.425
		c-2.337-2.917-6.696-9.486-6.696-10.074c0-0.239,1.706-3.062,3.122-5.169c1.169-1.74,2.653-3.762,4.035-5.502l0.512-0.657
		l-0.247-1.007c-0.725-2.849-1.245-6.423-1.373-9.409c-0.068-1.527-0.051-2.03,0.077-2.184c0.435-0.52,6.5,0.068,10.706,1.032
		l1.953,0.452l0.665-0.529c1.57-1.254,3.822-2.9,5.553-4.069C68.022,42.589,70.828,40.882,71.076,40.882L71.076,40.882z
		 M22.589,54.54c0.111,0,0.247,0.213,0.333,0.546c0.085,0.299,0.341,1.22,0.58,2.047c0.239,0.836,0.435,1.561,0.435,1.612
		c0,0.06-0.708,0.606-1.561,1.228c-1.766,1.263-4.129,3.131-5.647,4.453c-1.612,1.399-4.999,4.76-5.826,5.792l-0.751,0.938
		l0.606,0.776c0.827,1.058,3.856,4.095,5.647,5.664c1.919,1.68,4.598,3.796,6.159,4.871c0.682,0.469,1.271,0.972,1.314,1.109
		c0.085,0.299-0.904,3.881-1.143,4.12c-0.128,0.136-0.358,0.026-1.228-0.554c-3.805-2.559-8.547-6.475-12.233-10.074
		c-2.644-2.585-5.374-5.596-5.374-5.929c0-0.58,6.057-6.773,9.494-9.708C16.848,58.49,22.111,54.54,22.589,54.54L22.589,54.54z
		 M119.392,54.54c0.239,0.009,3.387,2.226,5.724,4.043c3.625,2.806,7.882,6.679,10.62,9.656c2.184,2.38,2.44,2.687,2.44,2.926
		c0,0.316-1.783,2.295-4.641,5.135c-3.719,3.702-7.311,6.73-11.695,9.87c-2.064,1.476-2.44,1.706-2.644,1.578
		c-0.119-0.077-1.007-3.062-1.152-3.873c-0.051-0.299,0.034-0.409,0.623-0.827c4.7-3.344,9.034-7.063,11.789-10.126
		c0.699-0.776,1.322-1.501,1.382-1.604c0.145-0.264-0.401-0.93-2.585-3.165c-2.824-2.883-6.253-5.801-9.563-8.129
		c-0.844-0.597-1.57-1.16-1.612-1.245c-0.034-0.094,0.128-0.845,0.367-1.663c0.239-0.819,0.495-1.732,0.58-2.03
		C119.128,54.711,119.238,54.54,119.392,54.54L119.392,54.54z M24.816,62.149c0.247-0.017,0.375,0.29,0.648,1.075
		c0.503,1.425,1.749,4.504,2.491,6.142c0.392,0.862,0.708,1.68,0.708,1.817c0,0.145-0.401,1.152-0.879,2.243
		c-0.751,1.689-1.186,2.781-2.499,6.261c-0.102,0.256-0.264,0.461-0.409,0.478c-0.136,0.017-0.879-0.452-1.766-1.117
		c-3.506-2.636-8.744-7.379-8.744-7.916c0-0.597,6.645-6.458,9.801-8.641C24.466,62.286,24.662,62.158,24.816,62.149z
		 M117.097,62.149c0.213-0.034,0.512,0.162,1.058,0.572c4.001,2.934,9.554,7.831,9.554,8.411c0,0.529-4.982,5.024-8.488,7.66
		c-1.971,1.476-2.15,1.587-2.329,1.365c-0.077-0.085-0.401-0.896-0.734-1.808s-1.083-2.781-1.68-4.154
		c-0.597-1.365-1.117-2.661-1.143-2.866c-0.051-0.282,0.136-0.827,0.691-2.047c0.682-1.501,1.894-4.504,2.551-6.312
		C116.765,62.448,116.884,62.183,117.097,62.149L117.097,62.149z M39.002,74.706c0.128,0,0.418,0.324,0.708,0.802
		c0.964,1.57,2.721,4.146,4.069,5.946l1.373,1.843l-0.392,2.005c-0.717,3.66-0.836,4.956-0.836,8.957
		c-0.009,2.849,0.026,3.702,0.154,3.83c0.128,0.128,1.007,0.171,3.898,0.171c4.06,0,5.289-0.119,8.983-0.853l1.945-0.375
		l1.791,1.339c6.295,4.709,13.691,8.692,21.207,11.414c6.611,2.406,13.674,3.992,20.917,4.7c2.431,0.239,9.213,0.324,10.748,0.136
		c0.776-0.094,0.853-0.128,0.93-0.444c0.171-0.725,0.23-6.884,0.077-9.025c-0.384-5.613-1.297-11.132-2.704-16.336
		c-0.58-2.167-1.945-6.372-2.602-8.061c-0.247-0.623-0.444-1.203-0.444-1.297c0-0.205,2.269-4.205,2.448-4.316
		c0.213-0.136,0.35,0.119,1.143,2.073c3.617,9.008,5.843,19.048,6.492,29.345c0.247,3.975,0.085,11.9-0.256,12.241
		c-0.307,0.307-7.763,0.52-11.362,0.324c-6.458-0.35-12.608-1.28-18.827-2.866c-10.552-2.679-19.995-6.961-28.645-12.992
		l-1.834-1.288l-2.312,0.282c-4.368,0.529-8.01,0.648-11.755,0.401c-2.312-0.154-3.753-0.341-3.967-0.512
		c-0.392-0.333-0.734-6.517-0.563-10.33c0.119-2.551,0.384-5.297,0.648-6.824l0.136-0.759l-0.546-0.768
		c-1.868-2.687-2.798-4.103-2.798-4.299c0-0.119,0.444-1.177,0.981-2.337C38.515,75.294,38.848,74.706,39.002,74.706L39.002,74.706z
		 M106.605,83.031h0.026c0.239,0.043,0.503,0.734,1.382,3.549c2.184,7.029,3.387,14.288,3.574,21.573
		c0.077,2.858,0.06,3.148-0.136,3.352c-0.196,0.188-0.478,0.213-2.226,0.196c-1.1-0.017-2.312-0.043-2.704-0.068
		c-7.166-0.401-14.237-1.68-20.678-3.762c-2.363-0.768-2.934-0.998-2.934-1.186c0-0.102,0.418-0.478,0.93-0.836l0.921-0.657
		l0.827,0.068c0.461,0.043,1.749,0.154,2.875,0.264c1.126,0.102,3.045,0.222,4.274,0.264c4.581,0.162,11.678-0.478,12.002-1.083
		c0.171-0.324,0.606-3.497,0.759-5.553c0.273-3.651,0.136-8.812-0.324-12.48l-0.205-1.621l0.734-1.032
		C106.153,83.381,106.451,83.048,106.605,83.031L106.605,83.031z M35.41,83.134c0.341,0,1.416,1.621,1.416,2.124
		c0,0.222-0.094,1.169-0.213,2.107c-0.273,2.167-0.324,11.414-0.068,13.444c0.23,1.834,0.546,3.668,0.682,3.915
		c0.239,0.461,4.513,0.981,8.983,1.092c3.182,0.077,6.142-0.06,9.23-0.427l1.706-0.205l0.887,0.614
		c1.152,0.793,1.254,0.921,0.938,1.152c-0.128,0.102-1.015,0.435-1.971,0.742c-7.336,2.389-14.16,3.651-21.77,4.026
		c-2.755,0.136-3.583,0.145-4.274,0.026l-0.444-0.085l0.009-3.446c0.034-7.14,1.356-14.962,3.839-22.563
		C35.026,83.62,35.231,83.134,35.41,83.134z M70.965,113.383c0.068,0,1.245,0.486,2.619,1.075s3.301,1.365,4.282,1.723
		c2.064,0.759,2.158,0.802,2.209,1.058c0.043,0.23-2.098,3.105-4.009,5.4c-1.749,2.09-4.734,5.169-5.016,5.169
		c-0.111,0-0.81-0.614-1.553-1.373c-1.467-1.484-2.9-3.079-4.205-4.683c-1.527-1.877-3.318-4.333-3.318-4.555
		c0-0.145,0.205-0.29,0.606-0.435c1.817-0.665,4.914-1.911,6.475-2.593C70.027,113.732,70.888,113.383,70.965,113.383
		L70.965,113.383z M83.522,118.194c0.188,0.009,0.785,0.145,1.425,0.324c0.742,0.205,1.646,0.452,2.013,0.554
		c0.503,0.145,0.674,0.247,0.674,0.427c0,0.503-4.069,5.946-7.055,9.443c-2.917,3.421-8.957,9.332-9.528,9.332
		c-0.119,0-0.819-0.529-1.553-1.177c-4.12-3.66-8.292-8.223-11.925-13.052c-2.047-2.738-3.156-4.376-3.105-4.615
		c0.06-0.316,3.992-1.416,4.265-1.186c0.102,0.085,0.52,0.623,0.913,1.194c1.032,1.459,2.679,3.591,4.112,5.306
		c2.056,2.465,6.875,7.276,7.293,7.276c0.205,0,1.971-1.587,3.557-3.19c2.602-2.627,5.161-5.673,7.618-9.076
		c0.597-0.827,1.152-1.527,1.237-1.553C83.471,118.194,83.488,118.194,83.522,118.194L83.522,118.194z"/>
</g>
</svg>
