<?xml version="1.0" encoding="UTF-8" standalone="no"?>
<!-- Generator: Adobe Illustrator 16.0.0, SVG Export Plug-In . SVG Version: 6.00 Build 0)  -->
<svg id="Layer_1" xmlns:rdf="http://www.w3.org/1999/02/22-rdf-syntax-ns#" xmlns="http://www.w3.org/2000/svg" xml:space="preserve" height="36.985" viewBox="0 0 300.00001 36.985272" width="300" version="1.1" y="0px" x="0px" xmlns:cc="http://creativecommons.org/ns#" xmlns:dc="http://purl.org/dc/elements/1.1/"><metadata id="metadata63"><rdf:RDF><cc:Work rdf:about=""><dc:format>image/svg+xml</dc:format><dc:type rdf:resource="http://purl.org/dc/dcmitype/StillImage"/><dc:title/></cc:Work></rdf:RDF></metadata><g clip-rule="evenodd" fill-rule="evenodd"><g id="g5" transform="matrix(1.707,0,0,1.707,-14.516,-139.71)" fill="#255398"><path id="path7" d="m78.823 95.431h-5.336l-4.593 6.1h5.319l1.613-2.094h4.326l0.178 2.094h5.656l-0.444-6.1h-5.709l0.106 1.045h-1.915l0.799-1.045zm-4.362-1.294h11.011l-0.408-5.887h-6.224l-4.379 5.887z"/><path id="path9" d="m129.2 95.396h-5.318l-4.627 6.206h5.301l1.578-2.092h4.326l0.178 2.092h5.691l-0.461-6.206h-5.691l0.07 1.153h-1.898l0.851-1.153zm-4.396-1.242h10.992l-0.389-5.869h-6.207l-4.396 5.869z"/><path id="path11" d="m116.89 92.186h5.992c0.781-3.634-5.566-4.379-7.268-4.379-3.582-0.071-10.232 2.677-7.838 6.294h9.078c-1.348-0.798-3.688 0.337-3.848-1.294-0.143-0.798 1.1669-1.7105 2.182-1.702 0.99924-0.01272 1.754 0.212 1.702 1.081z"/><path id="path13" d="m108.82 95.218h9.875c1.896 1.862 1.703 6.418-6.648 6.684-7.199 0-7.625-3.031-7.482-4.822h5.549c0 1.135 1.969 1.809 3.191 1.436 0.869-0.371 1.2159-0.73481 0.834-1.648-0.657-1.543-2.483-0.071-5.319-1.65z"/><path id="path15" d="m103.86 95.431h-14.947l-2.127 6.1h5.975l1.507-4.238 1.472 4.238h5.975l2.145-6.1zm-14.486-1.294h14.93l2.021-5.727h-6.064l-1.436 4.309-1.473-4.309h-5.975l-2.003 5.727z"/><path id="path17" d="m50.064 95.431h-5.958l-2.146 6.1h6.082l2.022-6.1zm-5.496-1.294h5.922l0.603-1.773h3.262l1.437-4.042h-12.43l-1.401 4.042h3.227l-0.62 1.773z"/><path id="path19" d="m166.64 95.431h-13.404l-2.145 6.17 6.328-0.035 1.49-4.273 1.543 4.309h5.035l-1.471-4.148c1.153-0.534 2.002-1.261 2.624-2.023zm-3.848-1.294h4.609c1.172-2.801-0.193-5.851-3.066-5.851h-8.635l-2.021 5.851h6.295l0.549-1.773h1.844c0.886 0.354 0.886 1.152 0.425 1.773z"/><path id="path21" d="m69.125 95.431h-13.405l-2.109 6.1h6.312l1.507-4.291 1.542 4.291h5.036l-1.472-4.113c1.117-0.516 1.968-1.225 2.589-1.987zm-3.866-1.294h4.646c1.188-2.801-0.177-5.887-3.067-5.887h-8.617l-2.057 5.887h6.33l0.603-1.791h1.773c0.922 0.319 0.886 1.17 0.389 1.791z"/><path id="path23" d="m174.39 95.396h-5.566c-0.621 1.755-0.498 3.493 0.479 4.771 1.986 2.658 6.701 2.535 10.639-0.23 1.791-1.26 3.084-2.891 3.793-4.54h-5.389c-0.125 0.249-0.303 0.532-0.498 0.78-0.922 1.029-2.322 1.365-3.014 0.744-0.427-0.319-0.567-0.922-0.444-1.525zm4.203-1.242h5.514c0.318-1.489 0.123-2.908-0.709-4.025-1.916-2.624-6.703-2.5-10.604 0.266-1.523 1.064-2.678 2.394-3.422 3.759h5.586c0.053-0.088 0.123-0.177 0.195-0.248 0.922-1.099 2.322-1.418 2.996-0.762 0.266 0.248 0.426 0.585 0.444 1.01z"/><path id="path25" d="m149.99 95.396h-10.373l-2.127 6.206h10.479l1.223-3.812h-4.184l0.566-1.543 4.096 0.054 0.32-0.905zm-9.912-1.242h10.391l0.213-0.567h-4.131l0.531-1.649h4.256l1.293-3.688h-10.514l-2.039 5.904z"/></g><g id="g17" transform="matrix(1.707,0,0,1.707,-14.516,-139.71)" fill="#cf4044"><polygon id="polygon27" points="32.688 103.52 29.391 102.28 35.632 94.048 35.632 94.048"/><polygon id="polygon29" points="25.082 100.73 25.082 100.73 25.614 100.89 39.019 83.126 39.426 81.849"/><polygon id="polygon31" points="26.394 101.14 26.394 101.14 27.316 101.48 37.44 88.232 38.256 85.626"/><polygon id="polygon33" points="27.688 101.62 27.688 101.62 29.018 102.12 36.004 92.86 37.157 89.119"/></g><g id="g23" transform="matrix(1.707,0,0,1.707,-14.516,-139.71)" fill="#255398"><polygon id="polygon35" points="20.632 101.21 20.632 101.21 22.546 100.91 35.259 84.19 31.607 86.796"/><polygon id="polygon37" points="17.688 101.74 17.688 101.74 19.905 101.35 30.118 87.878 26.004 90.821"/><polygon id="polygon39" points="25.029 91.513 17.209 101.85 8.504 103.36 8.504 103.36"/><polygon id="polygon41" points="23.593 100.72 23.593 100.72 24.266 100.61 38.416 81.92 37.103 82.86"/></g></g></svg>
