<?xml version="1.0" encoding="utf-8"?>
<!-- Generator: Adobe Illustrator 22.1.0, SVG Export Plug-In . SVG Version: 6.00 Build 0)  -->
<svg version="1.1" id="Layer_1" xmlns="http://www.w3.org/2000/svg" xmlns:xlink="http://www.w3.org/1999/xlink" x="0px" y="0px"
	 width="118.397px" height="46.897px" viewBox="0 0 118.397 46.897" enable-background="new 0 0 118.397 46.897"
	 xml:space="preserve">
<g>
	<g>
		<path fill="#8CB756" d="M46.63,41.704h-2.021c-1.432,0-2.595,1.166-2.595,2.598c0,1.432,1.163,2.596,2.595,2.596
			c1.433,0,2.597-1.164,2.597-2.596v-2.598H46.63z M43.167,44.302c0-0.796,0.648-1.441,1.442-1.441c0,0,0.854,0,1.445,0
			c0,0.587,0,1.441,0,1.441c0,0.794-0.647,1.442-1.445,1.442C43.814,45.744,43.167,45.096,43.167,44.302z"/>
		<path fill="#9E6B2E" d="M53.54,37.115c0,1.346-1.091,2.436-2.437,2.436c-1.345,0-2.436-1.09-2.436-2.436
			c0-1.347,1.091-2.435,2.436-2.435C52.449,34.681,53.54,35.768,53.54,37.115z"/>
		<path fill="#72A0B8" d="M42.127,36.858c0,1.133,0.923,2.052,2.052,2.052c1.133,0,2.052-0.919,2.052-2.052
			c0-1.13-0.919-2.052-2.052-2.052C43.05,34.807,42.127,35.728,42.127,36.858z M43.283,36.858c0-0.494,0.403-0.897,0.896-0.897
			c0.495,0,0.9,0.403,0.9,0.897c0,0.497-0.405,0.897-0.9,0.897C43.686,37.756,43.283,37.355,43.283,36.858z"/>
		<path fill="#72A0B8" d="M43.411,33.998c-3.979,0-4.101-4.105-4.101-4.105v-2.459h2.274c0,0,4.271-0.03,4.271,3.934
			c0,1.298,0,3.067,0,3.067S44.195,33.998,43.411,33.998z"/>
		<path fill="#6FC4BE" d="M38.484,27.49v2.596c0,1.435-1.161,2.596-2.594,2.596c-1.435,0-2.598-1.161-2.598-2.596
			c0-1.432,1.163-2.596,2.598-2.596H38.484z"/>
		<path fill="#306084" d="M39.318,26.976V24.38c0-1.435,1.163-2.596,2.596-2.596c1.434,0,2.597,1.162,2.597,2.596
			c0,1.434-1.163,2.596-2.597,2.596H39.318z"/>
		<path fill="#4486BC" d="M30.143,17.487H29.18v4.733c0,2.612,2.123,4.736,4.735,4.736h4.735v-4.734
			c0-2.611-2.124-4.735-4.735-4.735H30.143z M33.915,19.411c1.55,0,2.812,1.262,2.812,2.81c0,0,0,1.745,0,2.812
			c-1.068,0-2.812,0-2.812,0c-1.551,0-2.811-1.262-2.811-2.812c0,0,0-1.743,0-2.81C32.172,19.411,33.915,19.411,33.915,19.411z"/>
		<path fill="#AE4666" d="M29.828,25.727c0,0.546-0.441,0.986-0.985,0.986c-0.544,0-0.985-0.441-0.985-0.986
			c0-0.543,0.441-0.985,0.985-0.985C29.387,24.743,29.828,25.185,29.828,25.727z"/>
		<path fill="#AE4666" d="M28.507,23.108c0,0.796-0.645,1.442-1.442,1.442c-0.795,0-1.442-0.646-1.442-1.442
			c0-0.795,0.646-1.442,1.442-1.442C27.862,21.666,28.507,22.312,28.507,23.108z"/>
		<path fill="#AE4666" d="M28.379,18.748c0,1.151-0.933,2.084-2.083,2.084c-1.15,0-2.082-0.932-2.082-2.084
			c0-1.149,0.933-2.082,2.082-2.082C27.446,16.666,28.379,17.6,28.379,18.748z"/>
		<path fill="#8687B2" d="M29.182,16.6v-2.341c0-1.292,1.047-2.34,2.341-2.34c1.292,0,2.338,1.048,2.338,2.34
			c0,1.292-1.047,2.341-2.338,2.341H29.182z"/>
		<path fill="#E4332D" d="M24.034,8.602h-2.83v2.989c0.045,1.52,1.012,4.343,4.345,4.343c0.358,0,1.248,0.194,1.768,0.332
			l1.208,0.319v-3.778c0-1.187-0.378-2.165-1.122-2.903C26.114,8.624,24.242,8.601,24.034,8.602z M24.041,10.526
			c0.428,0.001,2.56,0.118,2.56,2.282c0,0,0,0.665,0,1.327c-0.37-0.067-0.755-0.124-1.052-0.124c-2.206,0-2.405-2.044-2.423-2.453
			c0,0,0-0.517,0-1.032C23.584,10.526,24.041,10.526,24.041,10.526z"/>
		<path fill="#F4BF24" d="M19.61,8.619h-6.477c-4.102,0-7.437,3.336-7.437,7.437c0,4.102,3.335,7.44,7.437,7.44
			c4.102,0,7.439-3.338,7.439-7.44V8.619H19.61z M7.619,16.055c0-3.04,2.473-5.513,5.514-5.513c0,0,4.121,0,5.517,0
			c0,1.394,0,5.513,0,5.513c0,3.042-2.474,5.517-5.517,5.517C10.092,21.572,7.619,19.098,7.619,16.055z"/>
		<path fill="#5A9A54" d="M0,13.346c0,1.131,0.92,2.05,2.052,2.05c1.13,0,2.052-0.919,2.052-2.05c0-1.132-0.921-2.052-2.052-2.052
			C0.92,11.294,0,12.214,0,13.346z M1.154,13.346c0-0.496,0.402-0.899,0.898-0.899c0.495,0,0.896,0.403,0.896,0.899
			c0,0.493-0.402,0.897-0.896,0.897C1.556,14.242,1.154,13.839,1.154,13.346z"/>
		<path fill="#F39B2E" d="M14.085,4.941c0,1.793,1.451,3.245,3.242,3.245h3.245V4.941c0-1.791-1.453-3.243-3.245-3.243l0,0h-3.242
			V4.941L14.085,4.941z"/>
		<circle fill="#D87A85" cx="12" cy="6.974" r="1.474"/>
		<path fill="#E77632" d="M8.475,2.595c0,1.433,1.164,2.597,2.596,2.597h2.596V2.595C13.667,1.164,12.502,0,11.07,0
			S8.475,1.164,8.475,2.595z M9.628,2.595c0-0.795,0.648-1.441,1.442-1.441c0.796,0,1.443,0.646,1.443,1.441c0,0,0,0.855,0,1.444
			c-0.589,0-1.443,0-1.443,0C10.276,4.039,9.628,3.39,9.628,2.595z"/>
	</g>
	<g>
		<g>
			<path fill="#4486BC" d="M46.925,7.225c0,1.228-0.289,2.227-0.863,3.002c-0.576,0.774-1.292,1.161-2.152,1.161
				c-0.371,0-0.694-0.045-0.974-0.134c-0.279-0.09-0.543-0.223-0.795-0.398l-0.087,0.389h-2.052V0.449h2.139v3.792
				c0.326-0.305,0.659-0.553,0.999-0.743c0.339-0.189,0.731-0.284,1.176-0.284c0.836,0,1.479,0.356,1.931,1.068
				C46.7,4.992,46.925,5.973,46.925,7.225z M44.714,7.278c0-0.694-0.099-1.228-0.297-1.603c-0.198-0.374-0.552-0.562-1.062-0.562
				c-0.198,0-0.401,0.036-0.612,0.109c-0.21,0.071-0.409,0.171-0.601,0.309v3.911c0.152,0.066,0.296,0.109,0.432,0.132
				c0.137,0.023,0.299,0.034,0.49,0.034c0.554,0,0.97-0.194,1.243-0.582C44.577,8.636,44.714,8.055,44.714,7.278z"/>
			<path fill="#4486BC" d="M52.458,10.418c-0.113,0.102-0.254,0.224-0.422,0.368c-0.167,0.143-0.326,0.256-0.473,0.339
				c-0.208,0.112-0.422,0.195-0.645,0.25c-0.223,0.056-0.466,0.085-0.733,0.085c-0.624,0-1.146-0.229-1.568-0.688
				c-0.422-0.458-0.632-1.046-0.632-1.758c0-0.57,0.107-1.036,0.323-1.397c0.212-0.361,0.517-0.646,0.913-0.856
				c0.39-0.208,0.872-0.356,1.451-0.445c0.578-0.086,1.177-0.151,1.797-0.195V6.079c0-0.445-0.148-0.755-0.445-0.927
				c-0.295-0.172-0.731-0.256-1.308-0.256c-0.35,0-0.717,0.073-1.112,0.219c-0.395,0.146-0.675,0.256-0.847,0.336h-0.195V3.597
				c0.225-0.068,0.589-0.149,1.095-0.243c0.506-0.093,1.013-0.14,1.519-0.14c1.208,0,2.08,0.22,2.617,0.656
				c0.536,0.438,0.805,1.125,0.805,2.061v5.312h-2.139V10.418z M52.458,9.22V7.588c-0.287,0.029-0.594,0.067-0.927,0.117
				c-0.331,0.048-0.583,0.106-0.755,0.17c-0.211,0.08-0.373,0.193-0.483,0.343c-0.111,0.153-0.166,0.351-0.166,0.597
				c0,0.163,0.012,0.295,0.033,0.399c0.023,0.102,0.083,0.197,0.178,0.291c0.089,0.093,0.196,0.163,0.322,0.205
				c0.125,0.045,0.32,0.067,0.585,0.067c0.211,0,0.424-0.053,0.642-0.154C52.102,9.522,52.293,9.387,52.458,9.22z"/>
			<path fill="#4486BC" d="M63.212,11.244h-2.141V7.364c0-0.314-0.013-0.63-0.04-0.943c-0.028-0.315-0.075-0.545-0.141-0.694
				c-0.079-0.17-0.194-0.296-0.344-0.375c-0.15-0.079-0.361-0.118-0.63-0.118c-0.191,0-0.386,0.036-0.583,0.112
				c-0.196,0.072-0.41,0.19-0.642,0.355v5.542h-2.14V0.449h2.14v3.843c0.377-0.348,0.737-0.614,1.085-0.8
				c0.348-0.185,0.733-0.278,1.157-0.278c0.713,0,1.271,0.246,1.673,0.738c0.403,0.49,0.604,1.225,0.604,2.205V11.244z"/>
			<path fill="#4486BC" d="M69.168,10.418c-0.114,0.102-0.253,0.224-0.422,0.368c-0.167,0.143-0.326,0.256-0.474,0.339
				c-0.207,0.112-0.421,0.195-0.643,0.25c-0.223,0.056-0.465,0.085-0.73,0.085c-0.624,0-1.148-0.229-1.569-0.688
				c-0.421-0.458-0.633-1.046-0.633-1.758c0-0.57,0.108-1.036,0.321-1.397c0.216-0.361,0.52-0.646,0.914-0.856
				c0.39-0.208,0.873-0.356,1.451-0.445c0.578-0.086,1.176-0.151,1.797-0.195V6.079c0-0.445-0.148-0.755-0.445-0.927
				c-0.295-0.172-0.733-0.256-1.308-0.256c-0.348,0-0.719,0.073-1.112,0.219c-0.393,0.146-0.677,0.256-0.848,0.336h-0.192V3.597
				c0.223-0.068,0.589-0.149,1.094-0.243c0.505-0.093,1.011-0.14,1.518-0.14c1.207,0,2.079,0.22,2.616,0.656
				c0.537,0.438,0.805,1.125,0.805,2.061v5.312h-2.139V10.418z M69.168,9.22V7.588c-0.285,0.029-0.594,0.067-0.927,0.117
				c-0.332,0.048-0.583,0.106-0.755,0.17c-0.211,0.08-0.373,0.193-0.483,0.343c-0.112,0.153-0.166,0.351-0.166,0.597
				c0,0.163,0.012,0.295,0.035,0.399c0.023,0.102,0.082,0.197,0.176,0.291c0.089,0.093,0.196,0.163,0.322,0.205
				c0.125,0.045,0.32,0.067,0.586,0.067c0.211,0,0.424-0.053,0.642-0.154C68.814,9.522,69.003,9.387,69.168,9.22z"/>
			<path fill="#4486BC" d="M79.754,5.701v5.542h-2.14V7.335c0-0.379-0.009-0.703-0.023-0.97c-0.018-0.267-0.059-0.483-0.129-0.651
				c-0.071-0.166-0.18-0.29-0.322-0.366c-0.143-0.075-0.344-0.114-0.603-0.114c-0.208,0-0.408,0.05-0.605,0.148
				c-0.196,0.102-0.372,0.207-0.529,0.319v5.542h-2.14V3.456h2.14v0.837c0.367-0.339,0.716-0.603,1.049-0.791
				c0.335-0.191,0.705-0.287,1.109-0.287c0.435,0,0.82,0.115,1.155,0.345c0.334,0.23,0.595,0.568,0.782,1.011
				c0.425-0.422,0.839-0.752,1.24-0.994c0.4-0.243,0.794-0.362,1.179-0.362c0.716,0,1.26,0.253,1.631,0.759
				c0.371,0.504,0.558,1.233,0.558,2.183v5.087h-2.141V7.335c0-0.383-0.007-0.709-0.021-0.973c-0.013-0.265-0.057-0.48-0.125-0.648
				c-0.068-0.166-0.174-0.29-0.318-0.366c-0.146-0.075-0.35-0.114-0.611-0.114c-0.177,0-0.35,0.035-0.519,0.108
				C80.203,5.414,79.998,5.532,79.754,5.701z"/>
			<path fill="#4486BC" d="M90.063,10.418c-0.113,0.102-0.253,0.224-0.422,0.368c-0.167,0.143-0.324,0.256-0.474,0.339
				c-0.207,0.112-0.422,0.195-0.645,0.25c-0.221,0.056-0.465,0.085-0.729,0.085c-0.624,0-1.146-0.229-1.569-0.688
				c-0.422-0.458-0.632-1.046-0.632-1.758c0-0.57,0.106-1.036,0.322-1.397c0.214-0.361,0.518-0.646,0.912-0.856
				c0.391-0.208,0.873-0.356,1.451-0.445c0.577-0.086,1.177-0.151,1.797-0.195V6.079c0-0.445-0.148-0.755-0.444-0.927
				c-0.297-0.172-0.732-0.256-1.309-0.256c-0.348,0-0.72,0.073-1.111,0.219c-0.395,0.146-0.676,0.256-0.848,0.336h-0.193V3.597
				c0.224-0.068,0.589-0.149,1.094-0.243c0.505-0.093,1.012-0.14,1.519-0.14c1.207,0,2.079,0.22,2.615,0.656
				c0.537,0.438,0.805,1.125,0.805,2.061v5.312h-2.139V10.418z M90.063,9.22V7.588c-0.285,0.029-0.594,0.067-0.926,0.117
				c-0.332,0.048-0.584,0.106-0.756,0.17c-0.212,0.08-0.372,0.193-0.484,0.343c-0.109,0.153-0.165,0.351-0.165,0.597
				c0,0.163,0.012,0.295,0.035,0.399c0.022,0.102,0.082,0.197,0.176,0.291c0.089,0.093,0.197,0.163,0.322,0.205
				c0.124,0.045,0.32,0.067,0.586,0.067c0.21,0,0.423-0.053,0.64-0.154C89.708,9.522,89.899,9.387,90.063,9.22z"/>
			<path fill="#4486BC" d="M99.929,8.785c0,0.809-0.31,1.462-0.924,1.957c-0.618,0.496-1.461,0.742-2.531,0.742
				c-0.592,0-1.13-0.064-1.609-0.194c-0.482-0.129-0.87-0.271-1.162-0.429V8.815h0.194c0.104,0.086,0.227,0.18,0.366,0.279
				c0.139,0.103,0.336,0.212,0.592,0.329c0.22,0.102,0.468,0.193,0.746,0.266c0.277,0.076,0.575,0.112,0.894,0.112
				c0.414,0,0.724-0.054,0.922-0.163c0.2-0.109,0.302-0.266,0.302-0.48c0-0.189-0.06-0.328-0.178-0.414
				c-0.118-0.085-0.342-0.17-0.67-0.248c-0.158-0.041-0.372-0.087-0.639-0.136c-0.27-0.05-0.515-0.109-0.734-0.177
				c-0.599-0.188-1.046-0.476-1.335-0.87c-0.291-0.392-0.438-0.884-0.438-1.467c0-0.755,0.303-1.383,0.91-1.883
				c0.605-0.499,1.433-0.75,2.483-0.75c0.497,0,0.973,0.058,1.43,0.176c0.455,0.118,0.812,0.245,1.067,0.38v1.967h-0.182
				c-0.312-0.247-0.67-0.449-1.071-0.606c-0.399-0.157-0.806-0.236-1.217-0.236c-0.338,0-0.625,0.057-0.859,0.166
				c-0.231,0.112-0.348,0.268-0.348,0.469c0,0.187,0.052,0.327,0.156,0.425c0.107,0.099,0.357,0.197,0.75,0.294
				c0.214,0.051,0.448,0.102,0.696,0.15c0.251,0.049,0.5,0.11,0.751,0.187c0.557,0.172,0.968,0.442,1.236,0.812
				C99.794,7.768,99.929,8.229,99.929,8.785z"/>
			<path fill="#F39B2E" d="M105.331,10.418c-0.114,0.102-0.253,0.224-0.421,0.368c-0.169,0.143-0.326,0.256-0.474,0.339
				c-0.207,0.112-0.423,0.195-0.646,0.25c-0.221,0.056-0.466,0.085-0.729,0.085c-0.625,0-1.148-0.229-1.569-0.688
				c-0.422-0.458-0.633-1.046-0.633-1.758c0-0.57,0.108-1.036,0.322-1.397c0.215-0.361,0.519-0.646,0.913-0.856
				c0.389-0.208,0.874-0.356,1.452-0.445c0.576-0.086,1.175-0.151,1.795-0.195V6.079c0-0.445-0.148-0.755-0.442-0.927
				c-0.297-0.172-0.734-0.256-1.311-0.256c-0.348,0-0.718,0.073-1.111,0.219c-0.395,0.146-0.676,0.256-0.847,0.336h-0.193V3.597
				c0.222-0.068,0.588-0.149,1.093-0.243c0.506-0.093,1.012-0.14,1.519-0.14c1.208,0,2.079,0.22,2.617,0.656
				c0.535,0.438,0.805,1.125,0.805,2.061v5.312h-2.14V10.418z M105.331,9.22V7.588c-0.287,0.029-0.594,0.067-0.926,0.117
				c-0.332,0.048-0.583,0.106-0.755,0.17c-0.212,0.08-0.372,0.193-0.484,0.343C103.056,8.371,103,8.569,103,8.815
				c0,0.163,0.012,0.295,0.034,0.399c0.024,0.102,0.082,0.197,0.176,0.291c0.09,0.093,0.197,0.163,0.322,0.205
				c0.125,0.045,0.319,0.067,0.585,0.067c0.211,0,0.426-0.053,0.642-0.154C104.976,9.522,105.166,9.387,105.331,9.22z"/>
			<rect x="109.427" y="3.456" fill="#F39B2E" width="2.14" height="7.788"/>
			<path fill="#F39B2E" d="M118.397,5.883h-0.189c-0.091-0.04-0.237-0.071-0.439-0.092c-0.2-0.019-0.369-0.03-0.504-0.03
				c-0.304,0-0.573,0.025-0.808,0.071c-0.232,0.045-0.482,0.124-0.752,0.233v5.179h-2.141V3.456h2.141v1.142
				c0.471-0.47,0.879-0.78,1.229-0.924c0.348-0.147,0.667-0.218,0.96-0.218c0.074,0,0.16,0.001,0.255,0.006
				c0.094,0.004,0.178,0.011,0.249,0.02V5.883z"/>
			<path fill="#F39B2E" d="M111.567,1.577c0-0.591-0.478-1.069-1.07-1.069c-0.591,0-1.069,0.479-1.069,1.069
				c0,0.589,0.479,1.068,1.069,1.068C111.089,2.645,111.567,2.166,111.567,1.577z"/>
		</g>
		<g>
			<path d="M48.75,19.181l-0.869-3.304h0.453l0.497,2.167c0.056,0.228,0.102,0.453,0.139,0.677c0.084-0.355,0.134-0.558,0.148-0.611
				l0.627-2.232h0.528l0.473,1.675c0.113,0.416,0.199,0.806,0.256,1.168c0.046-0.208,0.101-0.448,0.166-0.719l0.515-2.125h0.439
				l-0.903,3.304h-0.426l-0.688-2.516c-0.058-0.211-0.093-0.341-0.106-0.388c-0.038,0.151-0.071,0.279-0.099,0.385l-0.694,2.519
				H48.75z"/>
			<path d="M53.944,18.405l0.418,0.057c-0.066,0.245-0.189,0.436-0.368,0.572c-0.179,0.134-0.407,0.203-0.684,0.203
				c-0.351,0-0.629-0.109-0.834-0.325c-0.204-0.215-0.307-0.518-0.307-0.908c0-0.404,0.104-0.717,0.312-0.939
				c0.207-0.224,0.475-0.334,0.808-0.334c0.319,0,0.579,0.108,0.783,0.327c0.204,0.218,0.306,0.525,0.306,0.922
				c0,0.025-0.001,0.06-0.003,0.109h-1.79c0.016,0.262,0.09,0.462,0.224,0.601c0.136,0.138,0.303,0.21,0.503,0.21
				c0.149,0,0.275-0.04,0.382-0.118C53.799,18.704,53.883,18.578,53.944,18.405z M52.609,17.752h1.34
				c-0.019-0.201-0.069-0.352-0.154-0.453c-0.128-0.155-0.298-0.233-0.503-0.233c-0.187,0-0.345,0.062-0.472,0.187
				C52.693,17.378,52.623,17.544,52.609,17.752z"/>
			<path d="M57.508,19.181v-0.302c-0.151,0.238-0.374,0.358-0.668,0.358c-0.19,0-0.365-0.053-0.525-0.159
				c-0.158-0.105-0.282-0.253-0.369-0.441c-0.088-0.189-0.133-0.406-0.133-0.65c0-0.241,0.041-0.458,0.119-0.652
				c0.079-0.194,0.198-0.345,0.356-0.448c0.159-0.104,0.336-0.155,0.533-0.155c0.143,0,0.272,0.03,0.383,0.091
				c0.112,0.059,0.204,0.139,0.274,0.239v-1.185h0.41v3.304H57.508z M56.227,17.985c0,0.305,0.064,0.534,0.195,0.688
				c0.129,0.15,0.282,0.227,0.458,0.227c0.177,0,0.329-0.073,0.452-0.219c0.125-0.144,0.188-0.365,0.188-0.663
				c0-0.327-0.064-0.569-0.191-0.722c-0.126-0.152-0.282-0.23-0.467-0.23c-0.182,0-0.332,0.073-0.452,0.222
				C56.289,17.435,56.227,17.666,56.227,17.985z"/>
			<path d="M58.284,17.982c0-0.442,0.123-0.771,0.368-0.986c0.205-0.178,0.456-0.265,0.751-0.265c0.327,0,0.595,0.108,0.805,0.323
				c0.208,0.217,0.312,0.514,0.312,0.896c0,0.308-0.045,0.55-0.137,0.728c-0.093,0.176-0.227,0.314-0.403,0.41
				c-0.176,0.101-0.368,0.148-0.576,0.148c-0.335,0-0.605-0.107-0.81-0.323C58.387,18.698,58.284,18.388,58.284,17.982z
				 M58.699,17.982c0,0.307,0.067,0.537,0.199,0.69c0.134,0.151,0.302,0.229,0.505,0.229c0.199,0,0.368-0.077,0.501-0.232
				c0.133-0.152,0.201-0.386,0.201-0.7c0-0.297-0.068-0.521-0.203-0.674c-0.135-0.151-0.301-0.229-0.5-0.229
				c-0.203,0-0.371,0.078-0.505,0.227C58.766,17.446,58.699,17.676,58.699,17.982z"/>
			<path d="M60.903,19.181v-2.398h0.367v0.342c0.176-0.264,0.429-0.394,0.759-0.394c0.144,0,0.276,0.025,0.398,0.077
				c0.121,0.052,0.209,0.119,0.269,0.204c0.061,0.086,0.104,0.185,0.126,0.3c0.015,0.077,0.023,0.209,0.023,0.397v1.473h-0.41
				v-1.456c0-0.165-0.015-0.288-0.047-0.371c-0.03-0.081-0.085-0.147-0.165-0.195c-0.08-0.049-0.173-0.074-0.281-0.074
				c-0.17,0-0.319,0.055-0.444,0.165c-0.124,0.111-0.187,0.318-0.187,0.625v1.307H60.903z"/>
			<path d="M63.381,17.048l-0.104-0.617v-0.554h0.463v0.554l-0.109,0.617H63.381z"/>
			<path d="M65.041,18.819l0.056,0.359c-0.115,0.022-0.218,0.034-0.309,0.034c-0.146,0-0.262-0.021-0.343-0.068
				c-0.082-0.047-0.138-0.109-0.172-0.183c-0.032-0.076-0.048-0.236-0.048-0.479v-1.376h-0.302v-0.32h0.302v-0.59l0.407-0.247v0.837
				h0.409v0.32h-0.409v1.398c0,0.115,0.007,0.191,0.022,0.223c0.013,0.035,0.038,0.059,0.07,0.08
				c0.032,0.019,0.079,0.028,0.14,0.028C64.908,18.833,64.967,18.829,65.041,18.819z"/>
			<path d="M66.013,20.112l0.074-0.343c0.08,0.021,0.144,0.032,0.192,0.032c0.083,0,0.144-0.027,0.186-0.083
				c0.041-0.054,0.061-0.192,0.061-0.413v-2.522h0.409v2.531c0,0.294-0.04,0.501-0.115,0.615c-0.099,0.153-0.262,0.227-0.489,0.227
				C66.221,20.156,66.115,20.14,66.013,20.112z M66.526,16.345v-0.468h0.409v0.468H66.526z"/>
			<path d="M69.021,19.181v-0.349c-0.188,0.27-0.439,0.405-0.759,0.405c-0.14,0-0.272-0.026-0.395-0.081
				c-0.122-0.054-0.212-0.121-0.272-0.204c-0.059-0.082-0.101-0.183-0.125-0.302c-0.016-0.079-0.025-0.204-0.025-0.378v-1.487h0.409
				v1.333c0,0.211,0.009,0.355,0.025,0.427c0.025,0.108,0.079,0.192,0.162,0.252c0.082,0.061,0.185,0.093,0.304,0.093
				c0.121,0,0.236-0.032,0.342-0.094c0.105-0.062,0.181-0.147,0.226-0.255c0.044-0.108,0.065-0.265,0.065-0.47v-1.287h0.41v2.398
				H69.021z"/>
			<path d="M69.766,18.467l0.401-0.067c0.021,0.162,0.084,0.285,0.188,0.371c0.103,0.086,0.246,0.13,0.431,0.13
				c0.185,0,0.323-0.038,0.412-0.114c0.09-0.077,0.137-0.165,0.137-0.268c0-0.09-0.041-0.161-0.122-0.213
				c-0.055-0.037-0.195-0.082-0.415-0.139c-0.297-0.075-0.502-0.14-0.617-0.195c-0.115-0.055-0.202-0.131-0.261-0.228
				c-0.06-0.097-0.088-0.204-0.088-0.324c0-0.104,0.023-0.206,0.072-0.295c0.05-0.092,0.115-0.168,0.2-0.227
				c0.062-0.046,0.148-0.087,0.257-0.12c0.109-0.032,0.224-0.047,0.349-0.047c0.188,0,0.352,0.025,0.493,0.08
				c0.143,0.055,0.247,0.129,0.315,0.221c0.069,0.093,0.115,0.215,0.14,0.371l-0.397,0.054c-0.016-0.123-0.068-0.219-0.156-0.287
				c-0.086-0.07-0.208-0.104-0.365-0.104c-0.186,0-0.319,0.032-0.399,0.093c-0.08,0.061-0.119,0.134-0.119,0.214
				c0,0.054,0.016,0.1,0.049,0.143c0.034,0.042,0.084,0.078,0.156,0.107c0.041,0.015,0.159,0.048,0.358,0.104
				c0.287,0.076,0.486,0.14,0.6,0.188c0.113,0.049,0.204,0.123,0.266,0.214c0.065,0.093,0.097,0.21,0.097,0.348
				c0,0.136-0.039,0.263-0.118,0.383c-0.078,0.119-0.192,0.212-0.34,0.278c-0.149,0.067-0.316,0.099-0.503,0.099
				c-0.31,0-0.547-0.065-0.71-0.195C69.915,18.913,69.811,18.721,69.766,18.467z"/>
			<path d="M73.021,18.819l0.054,0.359c-0.113,0.022-0.216,0.034-0.307,0.034c-0.147,0-0.263-0.021-0.342-0.068
				c-0.082-0.047-0.14-0.109-0.174-0.183c-0.032-0.076-0.048-0.236-0.048-0.479v-1.376h-0.301v-0.32h0.301v-0.59l0.409-0.247v0.837
				h0.407v0.32h-0.407v1.398c0,0.115,0.006,0.191,0.021,0.223c0.014,0.035,0.036,0.059,0.07,0.08
				c0.03,0.019,0.077,0.028,0.138,0.028C72.889,18.833,72.949,18.829,73.021,18.819z"/>
			<path d="M74.605,19.181v-2.078h-0.36v-0.32h0.36v-0.251c0-0.16,0.014-0.279,0.041-0.356c0.041-0.104,0.109-0.187,0.207-0.255
				c0.097-0.065,0.237-0.098,0.413-0.098c0.113,0,0.24,0.015,0.38,0.041l-0.062,0.353c-0.084-0.013-0.164-0.022-0.238-0.022
				c-0.124,0-0.211,0.026-0.262,0.078c-0.051,0.052-0.078,0.15-0.078,0.294v0.216h0.471v0.32h-0.464v2.078H74.605z"/>
			<path d="M75.682,19.181v-3.304h0.407v3.304H75.682z"/>
			<path d="M76.605,20.106l-0.049-0.378c0.09,0.025,0.165,0.037,0.231,0.037c0.09,0,0.162-0.015,0.216-0.044
				c0.054-0.03,0.098-0.074,0.132-0.128c0.027-0.041,0.067-0.141,0.124-0.301c0.008-0.025,0.021-0.058,0.037-0.102l-0.909-2.407
				h0.438l0.497,1.378c0.063,0.175,0.123,0.358,0.172,0.55c0.048-0.175,0.103-0.352,0.169-0.529l0.511-1.399h0.404l-0.903,2.442
				c-0.098,0.263-0.173,0.445-0.227,0.543C77.374,19.901,77.293,20,77.2,20.061c-0.094,0.063-0.205,0.094-0.334,0.094
				C76.788,20.156,76.701,20.14,76.605,20.106z"/>
			<path d="M80.903,18.819l0.053,0.359c-0.115,0.022-0.215,0.034-0.306,0.034c-0.148,0-0.263-0.021-0.344-0.068
				c-0.081-0.047-0.139-0.109-0.172-0.183c-0.032-0.076-0.051-0.236-0.051-0.479v-1.376h-0.3v-0.32h0.3v-0.59l0.41-0.247v0.837
				h0.409v0.32h-0.409v1.398c0,0.115,0.006,0.191,0.021,0.223c0.016,0.035,0.038,0.059,0.069,0.08
				c0.032,0.019,0.078,0.028,0.14,0.028C80.769,18.833,80.829,18.829,80.903,18.819z"/>
			<path d="M81.205,19.181v-3.304h0.409v1.182c0.188-0.219,0.424-0.327,0.71-0.327c0.177,0,0.33,0.035,0.458,0.104
				c0.131,0.07,0.225,0.166,0.279,0.29c0.057,0.124,0.084,0.304,0.084,0.537v1.519h-0.408v-1.519c0-0.203-0.044-0.352-0.131-0.444
				c-0.088-0.093-0.209-0.139-0.368-0.139c-0.119,0-0.229,0.032-0.333,0.094c-0.106,0.062-0.181,0.147-0.225,0.255
				c-0.045,0.106-0.066,0.255-0.066,0.441v1.312H81.205z"/>
			<path d="M85.309,18.405l0.419,0.057c-0.066,0.245-0.188,0.436-0.367,0.572c-0.179,0.134-0.408,0.203-0.684,0.203
				c-0.351,0-0.629-0.109-0.834-0.325c-0.203-0.215-0.307-0.518-0.307-0.908c0-0.404,0.104-0.717,0.312-0.939
				c0.205-0.224,0.475-0.334,0.805-0.334c0.32,0,0.58,0.108,0.784,0.327c0.203,0.218,0.306,0.525,0.306,0.922
				c0,0.025-0.002,0.06-0.003,0.109h-1.79c0.016,0.262,0.091,0.462,0.225,0.601c0.134,0.138,0.303,0.21,0.504,0.21
				c0.148,0,0.274-0.04,0.38-0.118C85.165,18.704,85.248,18.578,85.309,18.405z M83.975,17.752h1.34
				c-0.017-0.201-0.069-0.352-0.154-0.453c-0.129-0.155-0.298-0.233-0.504-0.233c-0.186,0-0.345,0.062-0.471,0.187
				C84.059,17.378,83.988,17.544,83.975,17.752z"/>
			<path d="M86.138,19.181v-2.398h0.367v0.367c0.092-0.171,0.179-0.284,0.259-0.337c0.078-0.056,0.166-0.081,0.26-0.081
				c0.138,0,0.277,0.042,0.419,0.13l-0.146,0.375c-0.098-0.058-0.195-0.087-0.294-0.087c-0.09,0-0.168,0.028-0.238,0.082
				c-0.069,0.054-0.12,0.126-0.15,0.223c-0.045,0.144-0.067,0.302-0.067,0.473v1.254H86.138z"/>
			<path d="M89.22,18.405l0.418,0.057c-0.067,0.245-0.189,0.436-0.367,0.572c-0.179,0.134-0.407,0.203-0.686,0.203
				c-0.349,0-0.627-0.109-0.832-0.325c-0.205-0.215-0.308-0.518-0.308-0.908c0-0.404,0.102-0.717,0.31-0.939
				c0.209-0.224,0.476-0.334,0.807-0.334c0.319,0,0.582,0.108,0.784,0.327c0.203,0.218,0.305,0.525,0.305,0.922
				c0,0.025,0,0.06-0.002,0.109h-1.79c0.015,0.262,0.09,0.462,0.225,0.601c0.135,0.138,0.303,0.21,0.503,0.21
				c0.148,0,0.276-0.04,0.382-0.118C89.074,18.704,89.158,18.578,89.22,18.405z M87.884,17.752h1.34
				c-0.017-0.201-0.069-0.352-0.151-0.453c-0.132-0.155-0.299-0.233-0.506-0.233c-0.186,0-0.343,0.062-0.471,0.187
				C87.969,17.378,87.897,17.544,87.884,17.752z"/>
			<path d="M90.168,19.181V18.72h0.462v0.461H90.168z"/>
			<path d="M91.857,19.181l-0.87-3.304h0.454l0.497,2.167c0.056,0.228,0.103,0.453,0.141,0.677c0.082-0.355,0.132-0.558,0.146-0.611
				l0.629-2.232h0.526l0.473,1.675c0.115,0.416,0.201,0.806,0.255,1.168c0.047-0.208,0.104-0.448,0.168-0.719l0.515-2.125h0.44
				l-0.904,3.304H93.9l-0.688-2.516c-0.057-0.211-0.093-0.341-0.105-0.388c-0.038,0.151-0.07,0.279-0.1,0.385l-0.692,2.519H91.857z"
				/>
			<path d="M97.052,18.405l0.417,0.057c-0.066,0.245-0.187,0.436-0.366,0.572c-0.179,0.134-0.407,0.203-0.686,0.203
				c-0.35,0-0.627-0.109-0.833-0.325c-0.204-0.215-0.308-0.518-0.308-0.908c0-0.404,0.103-0.717,0.31-0.939
				c0.207-0.224,0.477-0.334,0.807-0.334c0.32,0,0.582,0.108,0.786,0.327c0.202,0.218,0.302,0.525,0.302,0.922
				c0,0.025,0,0.06-0.001,0.109h-1.79c0.017,0.262,0.091,0.462,0.225,0.601c0.135,0.138,0.302,0.21,0.504,0.21
				c0.147,0,0.276-0.04,0.382-0.118C96.906,18.704,96.991,18.578,97.052,18.405z M95.716,17.752h1.34
				c-0.017-0.201-0.069-0.352-0.154-0.453c-0.13-0.155-0.297-0.233-0.504-0.233c-0.186,0-0.343,0.062-0.47,0.187
				C95.799,17.378,95.729,17.544,95.716,17.752z"/>
			<path d="M99.058,19.181v-3.304h0.409v3.304H99.058z"/>
			<path d="M99.999,16.339v-0.463h0.409v0.463H99.999z M99.999,19.181v-2.398h0.409v2.398H99.999z"/>
			<path d="M101.579,19.181l-0.904-2.398h0.438l0.513,1.438c0.055,0.154,0.106,0.315,0.154,0.483
				c0.034-0.127,0.085-0.278,0.149-0.457l0.533-1.464h0.419l-0.907,2.398H101.579z"/>
			<path d="M104.775,18.405l0.419,0.057c-0.068,0.245-0.19,0.436-0.368,0.572c-0.179,0.134-0.407,0.203-0.687,0.203
				c-0.35,0-0.625-0.109-0.83-0.325c-0.207-0.215-0.309-0.518-0.309-0.908c0-0.404,0.103-0.717,0.311-0.939
				c0.207-0.224,0.477-0.334,0.807-0.334c0.32,0,0.582,0.108,0.785,0.327c0.201,0.218,0.304,0.525,0.304,0.922
				c0,0.025,0,0.06-0.002,0.109h-1.79c0.015,0.262,0.09,0.462,0.225,0.601c0.134,0.138,0.303,0.21,0.501,0.21
				c0.15,0,0.277-0.04,0.384-0.118C104.63,18.704,104.712,18.578,104.775,18.405z M103.439,17.752h1.34
				c-0.019-0.201-0.069-0.352-0.151-0.453c-0.131-0.155-0.299-0.233-0.506-0.233c-0.188,0-0.343,0.062-0.471,0.187
				C103.523,17.378,103.453,17.544,103.439,17.752z"/>
			<path d="M107.678,18.819l0.055,0.359c-0.115,0.022-0.219,0.034-0.308,0.034c-0.148,0-0.262-0.021-0.344-0.068
				c-0.081-0.047-0.14-0.109-0.172-0.183c-0.031-0.076-0.05-0.236-0.05-0.479v-1.376h-0.301v-0.32h0.301v-0.59l0.41-0.247v0.837
				h0.408v0.32h-0.408v1.398c0,0.115,0.006,0.191,0.021,0.223c0.013,0.035,0.036,0.059,0.068,0.08
				c0.033,0.019,0.079,0.028,0.14,0.028C107.544,18.833,107.604,18.829,107.678,18.819z"/>
			<path d="M107.98,19.181v-3.304h0.408v1.182c0.188-0.219,0.425-0.327,0.712-0.327c0.176,0,0.327,0.035,0.458,0.104
				c0.129,0.07,0.223,0.166,0.278,0.29c0.057,0.124,0.084,0.304,0.084,0.537v1.519h-0.409v-1.519c0-0.203-0.043-0.352-0.129-0.444
				c-0.087-0.093-0.21-0.139-0.368-0.139c-0.119,0-0.231,0.032-0.336,0.094c-0.103,0.062-0.178,0.147-0.225,0.255
				c-0.044,0.106-0.065,0.255-0.065,0.441v1.312H107.98z"/>
			<path d="M112.086,18.405l0.417,0.057c-0.066,0.245-0.188,0.436-0.366,0.572c-0.179,0.134-0.407,0.203-0.687,0.203
				c-0.349,0-0.626-0.109-0.831-0.325c-0.205-0.215-0.309-0.518-0.309-0.908c0-0.404,0.104-0.717,0.312-0.939
				c0.206-0.224,0.477-0.334,0.805-0.334c0.321,0,0.583,0.108,0.785,0.327c0.204,0.218,0.304,0.525,0.304,0.922
				c0,0.025,0,0.06-0.001,0.109h-1.79c0.016,0.262,0.091,0.462,0.224,0.601c0.135,0.138,0.303,0.21,0.504,0.21
				c0.148,0,0.277-0.04,0.381-0.118C111.94,18.704,112.023,18.578,112.086,18.405z M110.75,17.752h1.34
				c-0.017-0.201-0.069-0.352-0.153-0.453c-0.131-0.155-0.298-0.233-0.504-0.233c-0.188,0-0.344,0.062-0.471,0.187
				C110.832,17.378,110.763,17.544,110.75,17.752z"/>
			<path d="M112.914,19.181v-2.398h0.367v0.367c0.093-0.171,0.179-0.284,0.259-0.337c0.077-0.056,0.166-0.081,0.259-0.081
				c0.139,0,0.277,0.042,0.42,0.13l-0.146,0.375c-0.101-0.058-0.197-0.087-0.296-0.087c-0.087,0-0.166,0.028-0.237,0.082
				c-0.069,0.054-0.119,0.126-0.15,0.223c-0.044,0.144-0.066,0.302-0.066,0.473v1.254H112.914z"/>
			<path d="M115.996,18.405l0.418,0.057c-0.065,0.245-0.189,0.436-0.367,0.572c-0.179,0.134-0.409,0.203-0.686,0.203
				c-0.35,0-0.626-0.109-0.832-0.325c-0.205-0.215-0.307-0.518-0.307-0.908c0-0.404,0.104-0.717,0.31-0.939
				c0.207-0.224,0.476-0.334,0.808-0.334c0.32,0,0.58,0.108,0.784,0.327c0.202,0.218,0.305,0.525,0.305,0.922
				c0,0.025-0.002,0.06-0.003,0.109h-1.79c0.016,0.262,0.092,0.462,0.225,0.601c0.135,0.138,0.302,0.21,0.503,0.21
				c0.149,0,0.274-0.04,0.381-0.118C115.85,18.704,115.934,18.578,115.996,18.405z M114.66,17.752H116
				c-0.019-0.201-0.07-0.352-0.154-0.453c-0.128-0.155-0.297-0.233-0.504-0.233c-0.187,0-0.344,0.062-0.472,0.187
				C114.745,17.378,114.673,17.544,114.66,17.752z"/>
			<path d="M116.945,19.181V18.72h0.462v0.461H116.945z"/>
		</g>
	</g>
</g>
</svg>
