<?xml version="1.0" encoding="utf-8"?>
<!-- Generator: Adobe Illustrator 22.1.0, SVG Export Plug-In . SVG Version: 6.00 Build 0)  -->
<svg version="1.1"
	 id="US_Airways_Logo_Skyteam" xmlns:cc="http://creativecommons.org/ns#" xmlns:dc="http://purl.org/dc/elements/1.1/" xmlns:rdf="http://www.w3.org/1999/02/22-rdf-syntax-ns#" xmlns:svg="http://www.w3.org/2000/svg"
	 xmlns="http://www.w3.org/2000/svg" xmlns:xlink="http://www.w3.org/1999/xlink" x="0px" y="0px" width="1491.711px"
	 height="108.557px" viewBox="0 0 1491.711 108.557" enable-background="new 0 0 1491.711 108.557" xml:space="preserve">
<g>
	<path id="path5" fill="#A7B1B7" d="M46.291,36.139h129.312V25.044H46.291V36.139z M46.291,1.707v11.86h129.312V1.707
		C175.603,1.707,46.291,1.707,46.291,1.707z M0,59.476h175.603V47.999H0V59.476z M0,82.43h175.603V70.954H0
		C0,70.954,0,82.43,0,82.43z M0,105.385h175.603V93.909H0C0,93.909,0,105.385,0,105.385z M34.813,1.707H0v34.432h34.813V1.707z"/>
	<path id="path7" fill="#003065" d="M392.299,43.406l15.749-0.228c0,0,0.47,15.755-0.235,15.755s-15.514,0-15.514,0V43.406
		L392.299,43.406z M248.656,2.272h53.827l-0.235,5.641h-7.984c0,0-7.991,0-7.991,5.641v67.709c0,0-0.713,21.39,26.097,21.161
		c0,0,27.272,3.754,28.213-23.747V14.031c0,0-0.436-3.989-4.237-5.89c-1.403-0.698-10.806-0.449-10.806-0.449l0.173-5.469
		l55.064,0.062l-0.463,4.701l-9.416,0.706c0,0-6.001,1.106-6.347,6.111c-0.339,5.005,0.477,65.828,0.477,65.828
		s-2.122,13.157-12.935,19.51c0,0-11.524,9.174-40.442,8.938c0,0-15.749,0.699-35.03-6.823c0,0-12.464-5.641-14.344-17.158
		l-0.463-69.119c0,0,0.227-6.347-3.533-6.347l-10.584-0.477l0.463-6.091L248.656,2.272L248.656,2.272L248.656,2.272z
		 M1267.215,2.272L1321,2.631l0.123,4.942h-8.406c0,0-9.697,1.583-5.115,8.276l24.688,41.078l28.393-42.316
		c0,0,4.334-6.457-1.307-6.277c-5.648,0.172-13.516-0.422-13.516-0.422l-0.18-5.295h43.215l-0.354,4.936
		c0,0-12.166-0.878-16.051,4.59l-32.617,50.778V95.89c0,0,0.885,3.887,5.994,4.052l9.52-0.165l0.18,5.281h-56.246v-5.281h7.928
		c0,0,4.764-0.18,5.65-5.656l0.172-31.551l-31.559-47.964c0,0-2.475-6.167-7.232-6.692l-7.051-0.173V2.272H1267.215z M955.827,2.272
		l48.311,0.532l-0.193,6.298l-6.332-0.131c0,0-5.643-0.712-4.576,3l22.213,70.882l27.334-77.754l15.506-0.173l27.68,77.415
		l23.457-64.722c0,0,4.045-8.642-2.646-8.808l-12.141-0.463l-0.553-5.883h40.201l0.172,5.807c0,0-10.41-1.929-13.75,5.821
		l-32.084,91.158l-18.701,0.359l-26.27-76.17l-25.752,76.17l-18.859-0.359l-29.977-87.273c0,0-1.41-8.649-7.756-9.347l-5.641-0.525
		L955.827,2.272L955.827,2.272L955.827,2.272z M858.143,10.568v40.546h21.68c14.283-2.289,15.168-21.162,15.168-21.162
		c-0.885-17.104-16.045-19.385-16.045-19.385L858.143,10.568C858.143,10.567,858.143,10.568,858.143,10.568z M817.95,2.451
		l66.119-0.179c0,0,37.371,1.23,36.674,26.803c0,0-1.584,21.154-22.916,26.097c0,0,23.102,26.45,43.02,40.028
		c0,0,8.283,4.584,17.104,4.756l0.354,4.771l-25.219,1.044c0,0-15.695,0.886-30.502-14.456l-30.336-31.731l-14.104-0.359
		l-0.18,35.977c0,0-0.18,4.404,4.764,4.756l8.635-0.165l0.178,5.641l-53.244-0.18l-0.18-5.454h7.756c0,0,4.756-0.885,5.115-6.706
		c0,0,0.043-75.825-0.172-79.137c-0.512-7.646-12.492-5.102-12.492-5.102L817.95,2.451L817.95,2.451L817.95,2.451z M726.016,1.961
		c1.252,0,55.84,0.062,55.84,0.062l-0.422,5.807h-6.209c0,0-9.125-0.622-9.299,5.199v80.747c0,0,1.23,5.821,7.404,6.18h8.822
		l0.221,5.767l-56.826-0.14v-5.641l10.23-0.165c0,0,5.82-1.064,5.994-9.001l-0.174-74.235c0,0-0.172-7.225-5.998-7.757l-9.32-0.968
		L726.016,1.961L726.016,1.961L726.016,1.961z M1178.09,61.11l15.297-39.191l14.912,38.984L1178.09,61.11L1178.09,61.11z
		 M1137.411,104.851l42.463-0.139v-5.351l-10.535,0.096c0,0-7.469,0.409-3.721-9.553l9.527-22.372h36.916l12.002,25.288
		c0,0,1.258,5.808-4.143,6.637l-9.697-0.096l-0.25,5.482l50.992-0.132l0.014-5.261l-6.229-0.422c0,0-4.148-0.422-7.859-9.125
		l-36.918-87.474h-19.08l-38.135,90.39c0,0-4.16,6.637-8.295,6.637h-7.053v5.395H1137.411L1137.411,104.851z M620.457,61.11
		l15.037-39.191l14.918,38.984L620.457,61.11L620.457,61.11z M579.518,104.851l42.475-0.139v-5.351l-10.543,0.096
		c0,0-7.459,0.409-3.732-9.553l9.54-22.372h36.903l12.021,25.288c0,0,1.238,5.808-4.154,6.637l-9.526,0.409l-0.422,4.984
		l51.247-0.139l-0.248-5.255l-6.221-0.414c0,0-4.149-0.429-7.883-9.139L652.08,2.438h-19.073l-38.149,90.397
		c0,0-4.147,6.63-8.289,6.63h-7.051L579.518,104.851L579.518,104.851L579.518,104.851z M1402.079,72.925h7.453
		c0,0,9.125,30.682,40.637,28.607c0,0,19.902-3.318,17.42-19.911c0,0,0.83-9.54-14.926-14.918c0,0-39.812-12.444-47.693-29.021
		c0,0-7.605-23.229,21.568-34.006c0,0,25.705-10.37,56.385,3.726l0.83,24.044h-6.209c0,0-5.393-25.289-28.607-24.459
		c0,0-23.643,1.652-21.154,18.244c0,0-0.822,11.607,29.859,19.482c0,0,35.25,10.377,34.006,33.585c0,0,3.713,26.954-45.613,30.259
		c0,0-26.133-0.822-41.051-9.526L1402.079,72.925L1402.079,72.925L1402.079,72.925z M427.357,72.925h7.46
		c0,0,9.125,30.682,40.629,28.607c0,0,19.903-3.318,17.414-19.911c0,0,0.83-9.54-14.932-14.918c0,0-39.807-12.444-47.682-29.021
		c0,0-4.148-24.459,21.562-34.006c0,0,25.711-10.37,56.392,3.726l0.83,24.044h-6.216c0,0-5.393-25.289-28.606-24.459
		c0,0-23.637,1.652-21.155,18.244c0,0-0.815,11.607,29.852,19.482c0,0,35.244,10.377,34,33.585c0,0,3.732,26.954-45.607,30.259
		c0,0-26.125-0.822-41.051-9.526L427.357,72.925L427.357,72.925L427.357,72.925z"/>
</g>
</svg>
