<?xml version="1.0" encoding="utf-8"?>
<!-- Generator: Adobe Illustrator 22.1.0, SVG Export Plug-In . SVG Version: 6.00 Build 0)  -->
<svg version="1.1"
	 id="svg2" inkscape:version="0.91 r13725" sodipodi:docname="20151020_air_europa_logo_nuevo.svg" xmlns:cc="http://creativecommons.org/ns#" xmlns:dc="http://purl.org/dc/elements/1.1/" xmlns:inkscape="http://www.inkscape.org/namespaces/inkscape" xmlns:rdf="http://www.w3.org/1999/02/22-rdf-syntax-ns#" xmlns:sodipodi="http://sodipodi.sourceforge.net/DTD/sodipodi-0.dtd" xmlns:svg="http://www.w3.org/2000/svg"
	 xmlns="http://www.w3.org/2000/svg" xmlns:xlink="http://www.w3.org/1999/xlink" x="0px" y="0px" width="118.555px" height="23px"
	 viewBox="0 0 118.555 23" style="enable-background:new 0 0 118.555 23;" xml:space="preserve">
<style type="text/css">
	.st0{fill:#0970CB;}
</style>
<sodipodi:namedview  bordercolor="#666666" borderopacity="1" gridtolerance="10" guidehicolor="#f10000" guidehiopacity="0.49803922" guidetolerance="10" id="namedview4" inkscape:current-layer="g3408" inkscape:cx="216.59425" inkscape:cy="7.7567681" inkscape:pageopacity="0" inkscape:pageshadow="2" inkscape:snap-global="false" inkscape:window-height="705" inkscape:window-maximized="1" inkscape:window-width="1366" inkscape:window-x="-8" inkscape:window-y="-8" inkscape:zoom="1.08" objecttolerance="10" pagecolor="#ffffff" showgrid="false" showguides="false" units="px" width="550px">
	</sodipodi:namedview>
<g id="text3426" transform="matrix(0.97060771,0,0,1.0302824,0,-511.5)">
</g>
<g id="g3408" transform="translate(0,-42)">
	<g id="g3480" transform="matrix(0.60505713,0,0,0.60505713,0.31907744,42.357952)">
		<g id="g3493">
			<path id="path3467" inkscape:connector-curvature="0" class="st0" d="M80.381,10.805c-1.573-1.331-1.146-3.821,0.764-4.455
				c2.161-0.717,4.266,1.331,3.484,3.389C83.99,11.42,81.766,11.977,80.381,10.805z"/>
			<path id="path3471" inkscape:connector-curvature="0" class="st0" d="M150.647,21.402c-0.15,2.482,0.945,4.737,3.011,4.78
				c1.548,0.116,3.354-1.611,3.219-4.664c-0.113-2.561-0.764-4.565-3.125-4.659C151.874,16.97,150.815,18.635,150.647,21.402z
				 M161.577,21.399c0.098,5.328-3.18,8.817-7.862,8.993c-4.427,0.166-7.902-3.743-7.862-8.898c0.038-4.914,3.331-8.595,7.673-8.662
				C158.152,12.759,161.485,16.407,161.577,21.399z"/>
			<path id="path3469" inkscape:connector-curvature="0" class="st0" d="M135.292,13.096l3.344,0.014l0.824,2.667
				c0.949-2.969,3.667-3.014,5.085-2.839l0.005,5.075l-4.59,0.272l-0.019,11.693h-4.688L135.292,13.096z"/>
			<path id="path3465" inkscape:connector-curvature="0" class="st0" d="M88.535,13.045l3.344,0.014l0.824,2.667
				c0.949-2.969,3.667-3.014,5.085-2.839l0.005,5.075l-4.59,0.272l-0.019,11.693h-4.688L88.535,13.045z"/>
			<path id="path3463" inkscape:connector-curvature="0" class="st0" d="M101.043,30.011l0.001-11.088l0.021-11.321l13.01-0.014
				l-0.003,3.916l-7.808,0.007c0.005,1.605,0.027,3.676,0.019,5.281l6.507,0.056l0,3.931l-6.53-0.021l0.018,5.322l4.643,0.022
				l3.155,0.018l0.003,3.893L101.043,30.011z"/>
			<path id="path3461" inkscape:connector-curvature="0" class="st0" d="M79.783,29.873l0.009-16.845h4.625l-0.025,16.886
				L79.783,29.873z"/>
			<path id="path3459" inkscape:connector-curvature="0" class="st0" d="M69.497,21.284l-2.016-8.278L65.557,21.3L69.497,21.284z
				 M58.126,29.81l5.942-22.014l6.914,0.042l6.029,22.059l-5.544,0.018l-0.996-3.819c-1.942,0.031-4.121,0.071-6.062,0.018
				l-0.947,3.781L58.126,29.81z"/>
			<path id="path3455" inkscape:connector-curvature="0" class="st0" d="M190.408,25.589l-0.046-2.973
				c-2.893-0.426-5.933,1.116-4.355,3.576C186.933,27.633,189.479,26.812,190.408,25.589z M184.703,30.254
				c-2.557-0.742-3.893-3.627-3.327-6.431c0.37-1.837,1.64-4.068,6.612-4.358l2.285-0.134c0.222-0.013-0.009-1.46-0.425-2.017
				c-1.481-2.106-4.252-0.75-6.8-0.083l-1.015-3.177c0.811-0.421,1.851-0.723,3.246-1.204c2.547-0.878,6.046-0.341,7.54,0.602
				c0.896,0.565,1.58,1.497,2.122,2.725c0.197,0.447,0.405,1.548,0.416,2.099l0.056,11.709l-3.601,0.026l-0.82-1.965
				C189.06,30.36,187.284,30.982,184.703,30.254L184.703,30.254z"/>
			<path id="path3451" inkscape:connector-curvature="0" class="st0" d="M121.06,30.307c-1.527-0.368-2.489-1.051-3.249-2.307
				c-0.588-0.971-0.664-1.891-0.664-8.034v-6.937h4.625l0.025,10.532c-0.004,0.799,0.014,1.43,0.267,1.907
				c0.923,1.748,3.312,1.437,4.083-0.256c0.173-0.379,0.173-1.023,0.173-1.519l0.03-10.632l4.874-0.033l0.013,17.279l-3.823-0.013
				l-0.664-2.146c-0.631,0.648-1.347,1.345-2.096,1.747C123.49,30.371,122.147,30.515,121.06,30.307z"/>
			<path id="path3449" inkscape:connector-curvature="0" class="st0" d="M174.094,24.625c0.358-1.269,0.417-2.32,0.401-3.68
				c-0.03-2.569-0.722-5.03-3.189-4.918c-0.381,0.017-1.38,0.148-2.079,1.041l-0.006,8.597
				C170.238,27.273,173.503,26.72,174.094,24.625z M164.514,12.534l3.724,0.018l0.544,1.968c0.264-0.826,2.342-2.21,3.909-2.235
				c2.589-0.254,4.945,1.472,5.971,4.375c0.686,1.941,0.744,6.542,0.155,8.88c-0.854,3.393-4.236,5.256-7.464,4.73
				c-0.769-0.125-1.424-0.478-2.135-0.717l-0.041,5.942l-4.654-0.006L164.514,12.534z"/>
			<path id="path3445" inkscape:connector-curvature="0" class="st0" d="M20.88,27.566c-0.79-5.089,0.604-10.327,1.825-13.993
				c2.509-6.173,1.3-12.295-5.638-9.259c-1.975,0.909-4.993,4.042-6.384,6.66c-4.291,8.076-2.848,20.283,2.406,20.36
				C15.227,31.253,18.095,29.187,20.88,27.566z M5.984,36.932c-1.911-0.609-4.411-3.288-5.375-5.76
				c-1.541-4.483-1.536-10.656,0.147-15.653C3.125,8.702,8.284,2.703,13.293,0.775c4.599-1.762,11.708-1.862,16.365,3.181
				c3.619-3.443,8.992-4.568,11.977-4.524c7.423-0.328,11.298,2.662,11.298,8.253c0,2.004-1.513,4.902-3.324,6.37
				c-2.133,1.728-15.391,10.061-16.027,10.061l-0.037-3.933l3.913-2.762c5.044-3.56,6.756-5.411,7.314-7.907
				c1.428-6.382-5.19-8.166-10.086-2.719c-4.922,5.475-6.762,16.899-3.595,22.329c2.434,4.174,7.263,2.88,14.898-1.652l2.939-1.885
				l2.077,2.896c-2.953,2.546-6.006,4.746-9.099,6.703c-2.759,1.53-5.389,2.211-8.538,2.211c-5.858-0.093-9.559-1.622-11.286-5.67
				c-0.135-0.012-1.505,1.109-3.229,2.268C14.909,36.639,10.061,38.298,5.984,36.932z"/>
		</g>
	</g>
</g>
</svg>
