<?xml version="1.0" encoding="utf-8"?>
<!-- Generator: Adobe Illustrator 22.1.0, SVG Export Plug-In . SVG Version: 6.00 Build 0)  -->
<svg version="1.1" id="Слой_1" xmlns="http://www.w3.org/2000/svg" xmlns:xlink="http://www.w3.org/1999/xlink" x="0px" y="0px"
	 width="566.929px" height="170.028px" viewBox="0 0 566.929 170.028" enable-background="new 0 0 566.929 170.028"
	 xml:space="preserve">
<g>
	<path fill-rule="evenodd" clip-rule="evenodd" d="M142.387,50.444H82.316c-10.661,0-13.328,3.721-19.209,9.629L0,123.469
		l42.573,42.238c4.531,4.495,8.971,4.32,15.354,4.32h60.344l-0.03-0.605c-5.834-0.346-11.023-5.969-16.62-11.587l-32.188-32.309
		H24.074c-2.87,0-4.024-1.856-4.083-2.799c-0.065-1.035,1.173-3.142,4.092-3.142H60.98c8.692,0,11.206-2.366,17.305-8.455
		l48.921-48.844c5.638-5.63,10.203-10.038,15.187-10.648L142.387,50.444L142.387,50.444z"/>
	<path fill-rule="evenodd" clip-rule="evenodd" fill="#E30613" d="M77.735,119.584h60.071c10.661,0,13.328-3.721,19.21-9.629
		l63.107-63.396L177.549,4.321c-4.531-4.495-8.971-4.32-15.353-4.32h-60.345l0.03,0.605c5.834,0.345,11.023,5.968,16.62,11.587
		l32.188,32.309h45.359c2.87,0,4.023,1.856,4.083,2.8c0.065,1.035-1.173,3.142-4.092,3.142h-36.898
		c-8.691,0-11.206,2.365-17.304,8.455l-48.921,48.844c-5.639,5.629-10.203,10.037-15.187,10.647L77.735,119.584L77.735,119.584z"/>
	<path fill-rule="evenodd" clip-rule="evenodd" fill="#FFFFFF" d="M97.47,85.928c-0.154-3.436-0.309-6.873-0.463-10.309
		c-2.178-0.183-3.937,0.044-5.412,1.737c-0.175-0.163-0.712-0.327-0.532-0.488c2.396-2.142,1.072-4.109,0.378-4.713
		c-0.695-0.605-2.649-1.824-4.545,1.086l-1.404-1.481l1.401-1.672c2.022,0.062,2.985-0.674,2.408-2.442
		c-0.105-0.321-0.013-0.547,0.124-0.693l0.764-0.947c0.145-0.722,0.056-1.445-0.268-2.167c1.342-0.381,2.03,0.755,2.324,2
		c0.307,0.004,0.615,0.009,0.922,0.013c0.249-0.746,0.731-0.847,1.448-0.304c1.162-0.941,2.083-0.674,2.894,0.142
		c1.318-0.488,2.401-0.098,3.25,1.17c1.721-0.171,2.677,0.56,3.11,1.911c1.727-0.266,2.488,0.596,2.81,1.97
		c2.678,0.04,3.157,1.364,3.021,3.046c2.523-0.287,3.031,1.167,2.974,3.108l5.556,6.147c0.473,0.451,5.278,1.195,6.874,0.306
		c2.743-1.527,4.364-5.192,1.211-7.515c-3.51-2.587-7.434-5.132-11.514-7.747c-3.38-2.167-6.477-4.361-10.103-6.409
		c-2.769-1.563-2.073-7.925,3.023-7.813c3.844,0.084,4.097,5.134,8.688,7.737c-3.163,1.405-5.348-0.301-5.798-2.148
		c-0.693-2.844-2.21-3.887-2.961-3.895c-3.125-0.033-4.399,3.348-0.236,5.812c2.634,1.559,5.674,3.464,8.341,5.232
		c3.07,2.036,10.623,5.873,12.206,7.203c3.121,2.62,3.047,5.694,1.995,8.086c-0.631,1.436-1.956,2.626-2.471,3.326
		c-1.354,2.461,0.897,5.314,2.621,5.876c1.428,0.467,3.966,0.638,6.183-2.164l3.456,16.528c2.142-1.014,2.913,0.785,2.988,1.313
		c0.075,0.529-0.452,2.555-2.534,1.858c1.354,2.832-0.672,4.076-1.46,4.276c-0.789,0.2-3.191-0.052-3.27-3.073
		c-1.931,0.835-2.777-0.19-2.943-0.761c-0.166-0.571-0.467-2.458,1.948-2.666l-2.021-10.826c-1.735,2.443-4.11,3.61-6.047,3.508
		c-2.337-0.124-6.511-2.155-6.7-8.096c-1.751-0.534-2.451,2.641-2.442,4.197c0.016,2.776,2.197,5.931,6.003,8.222l-14.438,7.883
		c1.191,1.681,0.175,2.873-0.434,3.153c-0.608,0.279-2.258,0.509-2.606-1.509c-2.689,1.506-3.966,0.465-4.4-0.247
		c-0.954-1.565-0.489-3.16,1.848-4.058c-1.554-1.573-0.566-2.888-0.04-3.209c0.526-0.321,2.22-0.6,2.892,1.397l7.463-3.949
		c-5.257-2.454-5.957-7.495-1.24-11.038l-8.562-0.005l-13.058,9.855c-1.222,1.941-3.154,2.217-3.938,1.737
		c-0.926-1.451,0.586-2.494,2.678-3.218c-5.307-0.557-1.234-5.062,0.418-1.485l8.617-8.643l-15.073,0.021
		c0.547,2.561-1.064,2.666-1.296,2.652c-0.278-0.017-2.422-0.548-0.098-3.578c-3.936,2.103-4.551-0.754-4.54-1.141
		c0.011-0.387,0.149-3.457,4.607-1.18c-2.043-2.156-0.871-3.444-0.357-3.6c0.254-0.078,2.377-0.242,1.573,2.581L97.47,85.928
		L97.47,85.928z M141.39,109.714c0.184-0.203,0.81,0.062,1.394,0.591c0.583,0.528,0.909,1.125,0.726,1.328
		c-0.184,0.203-0.81-0.061-1.394-0.59C141.532,110.514,141.206,109.917,141.39,109.714L141.39,109.714z M134.89,110.938
		c-0.219-0.165-0.784,0.214-1.257,0.842c-0.474,0.629-0.681,1.277-0.462,1.441c0.219,0.165,0.783-0.213,1.257-0.842
		C134.902,111.751,135.109,111.103,134.89,110.938L134.89,110.938z M105.384,114.04c-0.258-0.088-0.679,0.448-0.932,1.192
		c-0.255,0.745-0.25,1.426,0.009,1.514c0.259,0.088,0.679-0.446,0.933-1.191C105.648,114.809,105.644,114.128,105.384,114.04
		L105.384,114.04z M102.036,108.384c0.041-0.27-0.564-0.585-1.341-0.699c-0.78-0.113-1.448,0.014-1.486,0.285
		c-0.042,0.273,0.562,0.586,1.339,0.701C101.33,108.782,101.998,108.656,102.036,108.384L102.036,108.384z M90.243,74.328
		c-0.914-0.031-1.957,0.675-2.587,1.362c-0.875,0.954-2.051,2.633-2.823,2.647c-0.765,0.014-1.56-0.201-2.222-0.577
		c0.227,0.978,1.081,1.701,1.934,1.677c1.939-0.056,2.392-1.936,3.241-2.934C88.495,75.67,89.372,74.87,90.243,74.328L90.243,74.328
		z"/>
	<path fill-rule="evenodd" clip-rule="evenodd" stroke="#000000" stroke-width="0.5" stroke-miterlimit="22.9256" d="
		M546.001,120.402h5.759l0.164-1.365h-4.595l0.413-3.445h4.073l0.163-1.366h-4.073l0.384-3.202h4.377l0.163-1.366h-5.54
		L546.001,120.402L546.001,120.402z M537.019,120.402h1.062l1.025-9.378h2.522l0.149-1.366h-6.106l-0.149,1.366h2.522
		L537.019,120.402L537.019,120.402z M523.172,118.915c0.501,1.017,1.586,1.49,2.786,1.49c1.794,0,3.406-1.247,3.677-3.326
		c0.504-3.87-4.309-2.246-3.955-4.962c0.087-0.668,0.635-1.639,2.033-1.639c0.725,0,1.295,0.38,1.539,0.941l1.169-1.077
		c-0.57-0.986-1.514-1.229-2.53-1.229c-2.241,0-3.392,1.745-3.556,3.005c-0.546,4.188,4.256,2.655,3.933,5.129
		c-0.154,1.183-1.262,1.791-2.092,1.791c-0.751,0-1.482-0.364-1.828-1.153L523.172,118.915L523.172,118.915z M513.284,120.405
		c2.702,0,4.92-2.461,5.314-5.648c0.394-3.187-1.216-5.645-3.918-5.645s-4.92,2.458-5.314,5.645
		C508.973,117.944,510.582,120.405,513.284,120.405L513.284,120.405z M513.453,119.036c-2.026,0-3.101-1.928-2.811-4.279
		c0.291-2.352,1.843-4.28,3.869-4.28c2.026,0,3.102,1.928,2.811,4.28C517.032,117.109,515.48,119.036,513.453,119.036
		L513.453,119.036z M494.134,120.402h1.389l1.194-2.656h4.18l0.555,2.656h1.389l-2.441-10.744h-1.079L494.134,120.402
		L494.134,120.402z M497.296,116.472l2.267-4.931h0.025l1.033,4.931H497.296L497.296,116.472z M490.197,109.658h-1.472l-1.607,3.733
		h1.244L490.197,109.658L490.197,109.658z M472.834,120.129h2.741c3.002,0,4.912-2.625,5.234-5.372
		c0.233-1.988-0.236-5.372-3.784-5.372h-2.931L472.834,120.129L472.834,120.129z M475.073,110.75h1.708
		c2.729,0,2.977,2.641,2.817,4.007c-0.311,2.655-2.107,4.006-4.029,4.006h-1.435L475.073,110.75L475.073,110.75z M454.142,120.402
		h4.549l0.146-1.365h-3.512l1.001-9.378h-1.037L454.142,120.402L454.142,120.402z M439.687,120.402h1.484l1.275-2.656h4.464
		l0.593,2.656h1.483l-2.607-10.744h-1.152L439.687,120.402L439.687,120.402z M443.063,116.472l2.421-4.931h0.026l1.103,4.931
		H443.063L443.063,116.472z M429.814,120.402h1.215l5.197-10.744h-1.416l-4.081,8.741h-0.027l-1.641-8.741h-1.5L429.814,120.402
		L429.814,120.402z M406.377,109.385l-0.913,6.813c-0.333,2.489,1.049,4.206,3.149,4.206s3.942-1.717,4.276-4.206l0.912-6.813
		h-1.301l-0.882,6.586c-0.179,1.335-1.007,3.066-2.822,3.066c-1.815,0-2.18-1.73-2.001-3.066l0.882-6.586H406.377L406.377,109.385z
		 M392.266,120.129h2.524c2.765,0,4.524-2.625,4.821-5.372c0.215-1.988-0.217-5.372-3.485-5.372h-2.7L392.266,120.129
		L392.266,120.129z M394.328,110.75h1.574c2.514,0,2.742,2.641,2.595,4.007c-0.287,2.655-1.941,4.006-3.712,4.006h-1.322
		L394.328,110.75L394.328,110.75z M370.977,118.915c0.508,1.017,1.609,1.49,2.826,1.49c1.82,0,3.455-1.247,3.73-3.326
		c0.512-3.87-4.371-2.246-4.012-4.962c0.088-0.668,0.644-1.639,2.062-1.639c0.736,0,1.314,0.38,1.561,0.941l1.186-1.077
		c-0.579-0.986-1.536-1.229-2.566-1.229c-2.274,0-3.441,1.745-3.607,3.005c-0.554,4.188,4.317,2.655,3.99,5.129
		c-0.156,1.183-1.28,1.791-2.123,1.791c-0.762,0-1.504-0.364-1.854-1.153L370.977,118.915L370.977,118.915z M356.747,120.402h1.255
		l1.142-8.832h0.026l4.01,8.832h1.594l1.388-10.744h-1.255l-1.142,8.832h-0.026l-3.957-8.832h-1.648L356.747,120.402
		L356.747,120.402z M345.071,120.402h5.304l0.151-1.365h-4.232l0.38-3.445h3.752l0.151-1.366h-3.752l0.354-3.202h4.031l0.151-1.366
		h-5.103L345.071,120.402L345.071,120.402z M337.263,120.402h1.457l1.611-10.744h-1.457L337.263,120.402L337.263,120.402z
		 M324.445,120.402h1.246l0.608-4.734h1.388l1.729,4.734h1.558l-1.98-4.902c1.412-0.182,2.448-1.472,2.623-2.837
		c0.173-1.35-0.212-3.005-2.561-3.005h-3.232L324.445,120.402L324.445,120.402z M326.906,110.933h1.636
		c0.986,0,1.938,0.273,1.751,1.73c-0.187,1.457-1.208,1.73-2.195,1.73h-1.636L326.906,110.933L326.906,110.933z M313.187,120.798
		h5.856l0.166-1.366h-4.672l0.419-3.445h4.142l0.167-1.366h-4.142l0.39-3.201h4.45l0.166-1.366h-5.634L313.187,120.798
		L313.187,120.798z M299.358,120.402h1.459l1.253-2.656h4.39l0.583,2.656h1.459l-2.563-10.744h-1.133L299.358,120.402
		L299.358,120.402z M302.677,116.472l2.381-4.931h0.026l1.085,4.931H302.677L302.677,116.472z M279.082,118.915
		c0.503,1.017,1.593,1.49,2.799,1.49c1.802,0,3.423-1.247,3.695-3.326c0.507-3.87-4.33-2.246-3.974-4.962
		c0.087-0.668,0.638-1.639,2.043-1.639c0.729,0,1.302,0.38,1.547,0.941l1.174-1.077c-0.573-0.986-1.522-1.229-2.542-1.229
		c-2.253,0-3.408,1.745-3.573,3.005c-0.549,4.188,4.276,2.655,3.953,5.129c-0.155,1.183-1.269,1.791-2.103,1.791
		c-0.755,0-1.489-0.364-1.837-1.153L279.082,118.915L279.082,118.915z M267.739,120.402h5.534l0.157-1.365h-4.415l0.397-3.445h3.914
		l0.157-1.366h-3.914l0.368-3.202h4.205l0.157-1.366h-5.324L267.739,120.402L267.739,120.402z M263.756,110.781
		c-0.555-1.138-1.681-1.669-2.809-1.669c-2.646,0-4.766,2.398-5.166,5.736c-0.324,2.701,1.02,5.557,3.751,5.557
		c1.966,0,3.171-1.444,3.478-1.884l-0.871-0.926c-0.617,0.895-1.435,1.442-2.418,1.442c-2.002,0-2.973-1.928-2.701-4.188
		c0.293-2.443,1.798-4.371,3.728-4.371c0.789,0,1.537,0.441,1.928,1.23L263.756,110.781L263.756,110.781z M247.277,120.402h1.457
		l1.611-10.744h-1.457L247.277,120.402L247.277,120.402z M236.572,120.402h1.173l5.022-10.237h-1.369l-3.942,8.328h-0.026
		l-1.585-8.328h-1.449L236.572,120.402L236.572,120.402z M221.68,120.402h1.273l0.62-4.511h1.418l1.765,4.511h1.591l-2.022-4.67
		c1.442-0.174,2.499-1.403,2.678-2.704c0.177-1.287-0.216-2.863-2.615-2.863h-3.301L221.68,120.402L221.68,120.402z
		 M224.193,111.379h1.67c1.007,0,1.979,0.26,1.788,1.649c-0.191,1.388-1.234,1.648-2.242,1.648h-1.67L224.193,111.379
		L224.193,111.379z M210.686,120.402h5.08l0.144-1.301h-4.053l0.365-3.283h3.593l0.144-1.301h-3.593l0.338-3.051h3.861l0.144-1.301
		h-4.887L210.686,120.402L210.686,120.402z M198.399,118.981c0.508,0.971,1.61,1.423,2.828,1.423c1.821,0,3.458-1.191,3.734-3.176
		c0.512-3.696-4.375-2.145-4.015-4.74c0.088-0.638,0.645-1.566,2.064-1.566c0.737,0,1.315,0.363,1.562,0.899l1.186-1.029
		c-0.579-0.942-1.538-1.174-2.568-1.174c-2.276,0-3.444,1.667-3.61,2.87c-0.554,4,4.321,2.536,3.994,4.899
		c-0.157,1.13-1.281,1.71-2.125,1.71c-0.763,0-1.505-0.348-1.855-1.102L198.399,118.981L198.399,118.981z"/>
	<path fill-rule="evenodd" clip-rule="evenodd" d="M259.059,49.503h10.425l-8.612,55.489h-10.425L259.059,49.503L259.059,49.503z
		 M276.494,49.503h10.425c16.957,0,22.904,6.432,20.311,17.615c-1.915,8.261-7.138,12.916-13.74,15.331l11.599,22.544h-12.762
		L281.83,82.297l-3.522,22.695h-10.425L276.494,49.503L276.494,49.503z M285.993,58.683c6.003,0,11.506,0.479,10.202,8.525
		c-1.281,7.91-7.13,8.191-12.911,8.191L285.993,58.683L285.993,58.683z M240.725,49.503h10.425l-8.612,55.489h-11.324l2.025-10.721
		h-22.61l-24.709,25.819l-13.641-0.012L240.725,49.503L240.725,49.503z M234.994,85.285l3.268-19.886l-18.312,19.886H234.994
		L234.994,85.285z"/>
	<path fill-rule="evenodd" clip-rule="evenodd" fill="#E30613" d="M375.826,49.503h18.198l6.043,55.489h-14.962l-0.51-9.481h-21.519
		l-5.153,9.481h-14.785L375.826,49.503L375.826,49.503z M384.002,84.516l-1.349-25.029l-13.603,25.029H384.002L384.002,84.516z
		 M442.177,92.158l-2.926,12.835H404.75l13.541-55.489h14.785l-9.561,42.582L442.177,92.158L442.177,92.158z M479.902,92.158
		l-2.926,12.835h-34.501l13.541-55.489h14.785l-9.561,42.582L479.902,92.158L479.902,92.158z M517.628,92.916l-2.547,12.077h-34.502
		l13.541-55.489h7.026h7.76h19.729l-3.174,12.643h-19.455l-2.188,9.537h17.992l-3.174,12.074h-17.587l-2.084,9.086L517.628,92.916
		L517.628,92.916z M555.922,92.916l-2.547,12.077h-34.501l13.541-55.489h7.026h7.759h19.729l-3.174,12.643H544.3l-2.188,9.537
		h17.992l-3.174,12.074h-17.587l-2.084,9.086L555.922,92.916L555.922,92.916z M350.612,49.503h16.302l-36.669,55.489h-11.752
		l-9.967-55.489h14.786l4.846,38.791L350.612,49.503L350.612,49.503z"/>
</g>
</svg>
