<?xml version="1.0" encoding="utf-8"?>
<!-- Generator: Adobe Illustrator 22.1.0, SVG Export Plug-In . SVG Version: 6.00 Build 0)  -->
<svg version="1.1" id="Слой_1" xmlns="http://www.w3.org/2000/svg" xmlns:xlink="http://www.w3.org/1999/xlink" x="0px" y="0px"
	 width="503.3px" height="240px" viewBox="0 0 503.3 240" style="enable-background:new 0 0 503.3 240;" xml:space="preserve">
<style type="text/css">
	.st0{fill:#2C4891;}
	.st1{fill:url(#SVGID_1_);}
	.st2{fill:#2F7C55;}
	.st3{fill:#FFFFFF;}
	.st4{fill:url(#SVGID_2_);}
</style>
<g>
	<g>
		<polygon class="st0" points="0,238.9 13.7,191 25,191 26.7,214.6 42.4,191 53.4,191 40,238.8 30.3,238.8 39.9,206.7 26.7,226.8 
			20.3,226.9 18.9,205.2 9.1,239.1 		"/>
		<path class="st0" d="M246.6,238.8l0.1-36.3l9.5-0.1l-1.3,24.5l12.8-24.5h7.7l-0.7,24.7l11.8-24.6l9.8-0.2L276.9,239h-9.5
			c0,0,0.3-15.3,0.4-23.6c-0.5,0.5-12.3,23.6-12.3,23.6L246.6,238.8z"/>
		<path class="st0" d="M305.7,239c0,0,18.3-32.7,28.2-48.6h11.5V239h-10v-9.8h-13.6l-5.6,9.8H305.7z M336,219.7v-16.8
			c-2.3,4.3-9.2,17.1-9.2,17.1L336,219.7z"/>
		<path class="st0" d="M91.9,239.5c-4.6-1.4-5.9-5.9-5.7-10.6c0.3-7.6,2.5-14.4,7.1-20.3c5.7-7.3,11-8.7,19.9-5.4
			c1.5-4.9,4.5-14.9,4.5-14.9h9.1l-14.3,50.5h-8.7l0.4-3.5c0,0-4.6,3.7-7.1,4.4C95.5,240.2,93.5,240,91.9,239.5z M111.1,210.9
			c-4.3-2-7.4-1.1-9.9,1.8c-3.6,4.2-4.8,8.3-4.8,13.8c0,1.4,0.7,3.9,2.3,4.5c2.7,1,6.9-0.7,7.8-3.6
			C108,222.1,109.4,216.7,111.1,210.9z"/>
		<path class="st0" d="M156.4,239v-48h9.9c0,0,0,21.5,0,33.6c3.6-6.6,18.3-33.6,18.3-33.6h10.6l-27.6,48H156.4z"/>
		<path class="st0" d="M484.4,240c-3,0-7.8-1.4-8.7-2c-3.2-2-5-4.9-5.3-8.6c-0.8-8.7,1.6-16.5,7.9-22.8c4.7-4.6,10.4-6.5,16.9-5.2
			c5.4,1.1,7.9,4.3,8.1,9.8c0.2,3.9-0.9,7.5-2.5,11.6c-3.3,0-6.7,0-10.2,0s-7,0-10.4,0c-1.5,5.9,2.1,9.6,8.2,8.7
			c3.7-0.5,6.9-2.2,10.5-4.7c-0.3,3.8-2.6,9.7-2.6,9.7S491.4,240,484.4,240z M481.4,215.8c4.2,0.1,8.2,0.6,12-0.2
			c1.3-2.6,0.8-4.7-1.1-6.1c-1.7-1.3-3.9-1-5.7-0.2C484,210.5,482.2,212.6,481.4,215.8z"/>
		<path class="st0" d="M220.7,240c-3,0-7.8-1.4-8.7-2c-3.2-2-5-4.9-5.3-8.6c-0.8-8.7,1.6-16.5,7.9-22.8c4.7-4.6,10.4-6.5,16.9-5.2
			c5.4,1.1,7.9,4.3,8.1,9.8c0.2,3.9-0.9,7.5-2.5,11.6c-3.3,0-6.7,0-10.2,0s-7,0-10.4,0c-1.5,5.9,2.1,9.6,8.2,8.7
			c3.7-0.5,6.9-2.2,10.5-4.7c-0.3,3.8-2.6,9.7-2.6,9.7S227.7,240,220.7,240z M217.7,215.8c4.2,0.1,8.2,0.6,12-0.2
			c1.3-2.6,0.8-4.7-1.1-6.1c-1.7-1.3-3.9-1-5.7-0.2C220.3,210.5,218.5,212.6,217.7,215.8z"/>
		<path class="st0" d="M66.2,240c-3,0-7.8-1.4-8.7-2c-3.2-2-5-4.9-5.3-8.6c-0.8-8.7,1.6-16.5,7.9-22.8c4.7-4.6,10.4-6.5,16.9-5.2
			c5.4,1.1,7.9,4.3,8.1,9.8c0.2,3.9-0.9,7.5-2.5,11.6c-3.3,0-6.7,0-10.2,0s-7,0-10.4,0c-1.5,5.9,2.1,9.6,8.2,8.7
			c3.7-0.5,6.9-2.2,10.5-4.7c-0.3,3.8-2.6,9.7-2.6,9.7S73.2,240,66.2,240z M63.2,215.8c4.2,0.1,8.2,0.6,12-0.2
			c1.3-2.6,0.8-4.7-1.1-6.1c-1.7-1.3-3.9-1-5.7-0.2C65.8,210.5,64,212.6,63.2,215.8z"/>
		<path class="st0" d="M449.4,239c3-10,5.9-18.2,6.8-22.1c0.4-1.9,1.2-4.2-0.8-5.5s-4.1-0.4-6.2,0.5c-1.9,0.9-2.5,2.4-3,4.3
			c-2.1,7.5-6.5,22.6-6.5,22.6h-9.3l10.4-36.6h9l-1,4.8c0,0,4.7-4.5,8.4-5.3c6.1-1.2,10.3,1.7,10.1,7.9c-0.1,2.8-1,5.5-1.8,8.3
			c-1.7,5.7-5.7,19.6-6.5,21.2C456.3,239,452.1,239,449.4,239z"/>
		<path class="st0" d="M394.4,239l14.6-50.7c0,0,5.9,0,9.2,0c-2.8,10-14.5,50.8-14.5,50.8L394.4,239z"/>
		<path class="st0" d="M368.4,239l10.4-36.6h9l-1.4,5.4c0,0,3.9-3.4,7.5-4.8c1.7-0.6,5.6-0.4,5.6-0.4s0,0-3.2,11
			c-2.4-0.3-4.8-0.8-7.2-0.3c-2.8,0.5-4.7,1.6-5.5,4.7c-1.6,5.8-6.2,21.1-6.2,21.1L368.4,239L368.4,239z"/>
		<polygon class="st0" points="186.7,239 197,202.5 206.4,202.4 196.4,239 		"/>
		<polygon class="st0" points="349.8,239 360.8,202.3 370,202.2 359.2,239 		"/>
		<path class="st0" d="M422.8,202.4c3.4,0,6.2,0,9.4,0c-3.6,12.3-7,24.4-10.5,36.5c-3.1,0-5.9,0-9.3,0
			C415.9,226.5,419.3,214.6,422.8,202.4z"/>
		<polygon class="st0" points="146.3,213.1 144.1,221.8 124.5,221.8 127,213.1 		"/>
		<path class="st0" d="M368.3,187.1c3.5-0.1,6.1,2.7,6.1,5.9c0,3.3-2.6,6.1-6.1,6c-2.8,0-5.9-2.4-6.1-5.5
			C362,189.8,364.9,187.2,368.3,187.1z"/>
		<path class="st0" d="M210.4,193.3c-0.1,3.3-2.8,5.6-6.3,5.6c-3.1,0-5.6-2.6-5.6-5.7c0-3.4,2.9-6.2,6.4-6.2
			C208,186.9,210.6,189.9,210.4,193.3z"/>
		<path class="st0" d="M430.5,198.1c-3.2,0.1-6.1-2.3-6.1-5.3c0-2.9,2.6-5.6,5.7-5.8s5.8,2.2,6,5.4
			C436.4,195.3,433.8,198,430.5,198.1z"/>
	</g>
	
		<linearGradient id="SVGID_1_" gradientUnits="userSpaceOnUse" x1="378.4" y1="231.5" x2="441.4" y2="231.5" gradientTransform="matrix(1 0 0 -1 0 264)">
		<stop  offset="0" style="stop-color:#5C8DCC"/>
		<stop  offset="1" style="stop-color:#005FB2"/>
	</linearGradient>
	<path class="st1" d="M441.4,23c-1,0-63,0-63,0l16,19L441.4,23z"/>
	<polygon class="st2" points="209.4,0 339.4,164 290.4,2 291.4,2 419.4,163 495.4,163 359.4,0 	"/>
	<g>
		<path class="st0" d="M209.4,0l42,118.7c12.4-1.4,27.4-4.3,45-8.9L209.4,0z"/>
		<path class="st0" d="M253.7,125.3l13.7,38.7h72l-38.9-48.9C284.2,119.5,268.2,123,253.7,125.3z"/>
		<path class="st3" d="M410.4,70c-45.1,19-83.4,32-114,39.9l4.2,5.3C341.4,104.2,384.2,87.7,410.4,70z"/>
		
			<linearGradient id="SVGID_2_" gradientUnits="userSpaceOnUse" x1="182.1491" y1="157.746" x2="291.4826" y2="156.0793" gradientTransform="matrix(1 0 0 -1 0 264)">
			<stop  offset="0" style="stop-color:#005FB2"/>
			<stop  offset="1" style="stop-color:#B7C9FC"/>
		</linearGradient>
		<path class="st4" d="M296.4,109.9c-17.5,4.5-32.6,7.4-45,8.9c-46.7,5.5-55.6-9.5-18-33.7c0,0-41,17.9-41,33
			c0,11.9,26.2,13,61.3,7.3c14.5-2.3,30.5-5.8,46.8-10.2L296.4,109.9z"/>
	</g>
	<rect x="12.4" y="171" class="st2" width="489" height="4"/>
</g>
</svg>
