<?xml version="1.0" encoding="UTF-8"?>
<svg width="198px" height="23px" viewBox="0 0 198 23" version="1.1" xmlns="http://www.w3.org/2000/svg" xmlns:xlink="http://www.w3.org/1999/xlink">
    <!-- Generator: Sketch 49.1 (51147) - http://www.bohemiancoding.com/sketch -->
    <title>Vietnam_Airlines_s</title>
    <desc>Created with Sketch.</desc>
    <defs>
        <polygon id="path-1" points="36.0801795 0.566275862 0 0.566275862 0 22.2068966 36.0801795 22.2068966"></polygon>
        <polygon id="path-3" points="9.61488 0.769092585 9.61488 11.4131227 0.2441736 11.4131227 0.2441736 0.769092585 9.61488 0.769092585"></polygon>
    </defs>
    <g id="AVIA" stroke="none" stroke-width="1" fill="none" fill-rule="evenodd">
        <g id="Vietnam_Airlines_s">
            <g id="Group-3" transform="translate(0.000000, 0.226907)">
                <mask id="mask-2" fill="white">
                    <use xlink:href="#path-1"></use>
                </mask>
                <g id="Clip-2"></g>
                <path d="M18.0382752,20.1203207 C17.7246432,20.2900448 15.4729872,22.2069759 10.9878912,22.2069759 C7.2108432,22.2069759 3.1771872,20.2821138 1.9147392,20.3193897 C1.4696352,20.3019414 1.1092752,20.390769 0.8296992,20.5144931 C0.3030192,20.7341828 -0.0415008,20.3844241 0.0036432,20.0870103 C0.0527472,19.7880103 0.4851792,19.2320448 0.7996032,18.8307345 C1.1837232,18.3326655 1.7848512,17.7830448 2.4247872,17.3468379 C4.2147072,16.1238724 5.8739472,16.0984931 6.6081312,16.2285621 C6.7205952,16.2483897 7.0413552,16.2626655 7.5482352,16.7591483 C8.7694992,17.9321483 10.9696752,19.4081138 12.6621792,19.7118724 C12.8411712,19.7324931 13.6094112,19.8070448 13.6220832,19.5897345 C13.6300032,19.4588724 13.4161632,19.4081138 13.3432992,19.3930448 C10.6243632,18.7775966 9.0554112,17.4475621 7.5593232,16.0786655 C6.3404352,14.9683207 5.4137952,13.5899069 4.7152512,12.2432172 C4.1632272,11.1749069 3.3894432,9.06128621 1.9836432,8.35383793 C1.6692192,8.19997586 1.6597152,7.62576897 2.3154912,7.4734931 C2.7732672,7.36245862 5.5476432,7.10232069 8.8526592,8.88838966 C10.1531232,9.59583793 10.5728832,10.3802172 10.6219872,10.5745276 C10.6219872,10.5745276 10.6980192,10.6189414 10.7186112,10.9575966 C10.8936432,15.7249414 12.9892752,17.3254241 14.0022432,18.060631 C14.4124992,18.3802517 14.9249232,18.5166655 15.0666912,18.3739069 C15.1284672,18.3041138 14.9621472,18.1542172 14.8528512,18.0828379 C11.9303712,16.1555966 11.3656752,13.6430448 11.2080672,10.9480793 C11.0552112,8.26738966 12.1830192,5.93725172 12.8981952,4.03380345 C12.9995712,3.76335517 13.4129952,2.53959655 13.1017392,1.49904483 C12.8934432,0.793182759 13.1136192,0.629010345 13.5009072,0.57032069 C13.8945312,0.513217241 14.4909072,1.32297586 14.6992032,1.57438966 C14.8576032,1.76473448 15.3850752,2.37859655 16.1746992,3.95052759 C17.7365232,7.05235517 17.7491952,10.4857 17.7476112,10.8790793 C17.7198912,13.1132517 17.3080512,13.2496655 16.2459792,13.766769 C15.3613152,14.1133552 14.8647312,14.8231828 14.8647312,15.5155621 C14.8647312,16.2222172 15.3914112,16.7440793 16.3481472,17.1533207 C16.4122992,17.1715621 16.5255552,17.2072517 16.5738672,17.2191483 C16.9952112,17.3238379 17.3484432,17.2286655 17.3484432,17.0676655 C17.3484432,16.9249069 16.9318512,16.8725621 16.9318512,16.8725621 C15.9972912,16.641769 15.3486432,16.1135621 15.3486432,15.5123897 C15.3486432,14.6947 16.4954592,13.8643207 17.9638272,13.8643207 L18.0382752,13.8643207 L18.1206432,13.8627345 C19.5826752,13.8627345 20.7286992,14.6899414 20.7286992,15.5108034 C20.7286992,16.1135621 20.0824272,16.6401828 19.1494512,16.8709759 C19.1494512,16.8709759 18.7336512,16.9249069 18.7336512,17.0660793 C18.7368192,17.2270793 19.0821312,17.3214586 19.5058512,17.2183552 C19.5581232,17.2072517 19.6666272,17.1715621 19.7363232,17.1501483 C20.6938512,16.7424931 21.2149872,16.2174586 21.2149872,15.5123897 C21.2149872,14.8215966 20.7223632,14.1133552 19.8345312,13.766769 C18.7724592,13.2496655 18.3677472,13.1092862 18.3336912,10.8774931 C18.3297312,10.4857 18.3479472,7.05076897 19.9018512,3.95052759 C20.6938512,2.37701034 21.2189472,1.76314828 21.3820992,1.57438966 C21.5864352,1.32297586 22.1836032,0.513217241 22.5811872,0.568734483 C22.9716432,0.629010345 23.1854832,0.793182759 22.9771872,1.49745862 C22.6675152,2.53959655 23.0777712,3.76335517 23.1815232,4.03221724 C23.8903632,5.93725172 25.0245072,8.26501034 24.8692752,10.9464931 C24.7156272,13.6414586 24.1509312,16.1540103 21.2276592,18.0796655 C21.1112352,18.1542172 20.9560032,18.3009414 21.0193632,18.3739069 C21.1540032,18.5166655 21.6680112,18.3786655 22.0782672,18.060631 C23.0904432,17.3254241 25.1836992,15.7249414 25.3595232,10.9552172 C25.3832832,10.6189414 25.4632752,10.5705621 25.4632752,10.5705621 C25.5107952,10.378631 25.9258032,9.59345862 27.2246832,8.88838966 C30.5368272,7.09756207 33.3072432,7.36245862 33.7650192,7.47032069 C34.4215872,7.62576897 34.4104992,8.19997586 34.0992432,8.34987241 C32.6886912,9.06128621 31.9172832,11.1725276 31.3660512,12.2400448 C30.6714672,13.5899069 29.7400752,14.9683207 28.5235632,16.0786655 C27.0266832,17.4475621 25.4553552,18.7752172 22.7364192,19.3930448 C22.6675152,19.4081138 22.4497152,19.4564931 22.4592192,19.5897345 C22.4687232,19.8070448 23.2369632,19.7309069 23.4230832,19.7110793 C25.1108352,19.4081138 27.3062592,17.929769 28.5354432,16.7583552 C29.0439072,16.2626655 29.3607072,16.2483897 29.4771312,16.2269759 C30.2041872,16.0984931 31.8634272,16.1238724 33.6565152,17.3468379 C34.3004112,17.7790793 34.9015392,18.3318724 35.2769472,18.8283552 C35.5921632,19.2320448 36.0253872,19.7880103 36.0760752,20.0870103 C36.1220112,20.3844241 35.7782832,20.7318034 35.2492272,20.5121138 C34.9704432,20.390769 34.6116672,20.3011483 34.1657712,20.3178034 C32.9009472,20.2805276 28.8688752,22.2069759 25.0910352,22.2045966 C20.6098992,22.2045966 18.3566592,20.2900448 18.0382752,20.1203207" id="Fill-1" fill="#CA9646" mask="url(#mask-2)"></path>
            </g>
            <path d="M52.7726232,7.54098621 L51.4777032,7.54098621 L46.4968152,18.410469 L41.4351432,7.54098621 L38.2093272,7.54098621 C39.1327992,8.50857241 39.4210872,8.71795172 39.9366792,9.87350345 L45.4933512,21.8461931 L45.9249912,21.8461931 L51.5355192,9.53405517 C51.9655752,8.61564138 52.1944632,8.25081379 52.7726232,7.54098621" id="Fill-4" fill="#35749C"></path>
            <path d="M56.0782728,21.6352276 C55.6450488,20.6922276 55.6743528,20.1426069 55.6743528,19.4343655 L55.6743528,13.7478138 C55.6743528,13.0681241 55.6450488,12.4915379 56.0782728,11.5747103 L53.0552088,11.5747103 C53.4892248,12.4915379 53.4607128,13.0681241 53.4607128,13.7478138 L53.4607128,19.4343655 C53.4607128,20.4812621 53.4892248,20.7429862 53.0552088,21.6352276 L56.0782728,21.6352276 Z M55.9040328,8.8734 C55.9040328,8.22464138 55.2696408,7.64646897 54.5505048,7.64646897 C53.8614648,7.64646897 53.2326168,8.22464138 53.2326168,8.8734 C53.2326168,9.50708966 53.8614648,10.0805034 54.5505048,10.0805034 C55.2696408,10.0805034 55.9040328,9.50708966 55.9040328,8.8734 Z" id="Fill-6" fill="#35749C"></path>
            <path d="M66.3518592,14.7947103 L60.6858912,14.7947103 C61.0272432,13.3314345 62.0623872,12.1750897 63.7620192,12.0727793 C64.4272992,12.0204345 66.2108832,12.1005379 66.3518592,14.7947103 Z M69.0010992,15.5798828 C68.5987632,11.5747103 65.4062112,11.1305724 63.4190832,11.3391586 C59.0710032,11.8348483 57.5788752,15.2420207 57.9218112,17.3366069 C58.1182272,18.3866759 58.6718352,19.7730207 60.0221952,20.7683655 C61.2307872,21.6352276 64.7425152,22.9969862 67.9912992,20.5605724 L67.5644112,20.0862966 C66.7296432,20.8230897 65.2612752,21.1109862 64.2807792,21.0840207 C62.1257472,20.9817103 60.1956432,19.0394 60.5100672,15.5798828 L69.0010992,15.5798828 Z" id="Fill-8" fill="#35749C"></path>
            <path d="M77.7352752,19.5401655 C76.7017152,20.6687517 75.9247632,21.1906138 74.8856592,21.161269 C73.6477632,21.1358897 72.7290432,20.5109241 72.7290432,19.0920621 L72.7290432,12.3625793 L77.1586992,12.3625793 L77.1586992,11.5750276 L72.7290432,11.5750276 L72.7290432,9.74057931 L70.2484992,10.3179586 C70.4282832,10.8675793 70.4552112,10.8675793 70.4837232,11.5750276 L69.8532912,11.5750276 L69.8532912,12.3625793 L70.5098592,12.3625793 L70.5098592,18.8295448 C70.5098592,21.2667517 72.7290432,21.7917862 74.0485152,21.8187517 C75.0884112,21.8187517 76.0934592,21.7124759 77.3614512,20.9273034 L77.7352752,19.5401655 Z" id="Fill-10" fill="#35749C"></path>
            <path d="M89.8395696,21.6352276 C89.4364416,20.6922276 89.4641616,19.7730207 89.4641616,19.4589517 L89.4641616,14.5861241 C89.4641616,13.120469 89.2629936,12.8048138 88.5414816,12.2020552 C87.7106736,11.4954 86.1551856,11.3661241 85.4344656,11.3915034 C83.9122416,11.4954 82.5864336,12.2020552 81.2606256,13.6716759 C81.2946816,12.4645724 81.2059776,11.9141586 81.0048096,11.5747103 L78.3579456,11.5747103 C79.1055936,12.7001241 79.0469856,14.0127103 79.0469856,14.1919517 L79.0469856,19.4589517 C79.0469856,20.4812621 79.0754976,20.7429862 78.6430656,21.6352276 L81.6700896,21.6352276 C81.2352816,20.6922276 81.2606256,19.8015724 81.2606256,19.4589517 L81.2606256,16.2119862 C81.2606256,14.401331 83.1630096,12.3075379 85.1247936,12.2829517 C86.9915376,12.2274345 87.2497296,13.1466414 87.2497296,15.6584 L87.2497296,19.4589517 C87.2497296,20.4812621 87.2497296,20.7429862 86.8450176,21.6352276 L89.8395696,21.6352276 Z" id="Fill-12" fill="#35749C"></path>
            <path d="M99.2159784,16.8394103 C99.2159784,19.4058931 97.1718264,20.8485483 95.8483944,20.8223759 C94.0640184,20.7430655 92.7152424,19.1719276 94.0640184,17.3128931 C94.4093304,16.8100655 95.3866584,16.2358586 96.7980024,16.0011 C97.1163864,15.9487552 98.0937144,15.763169 99.2159784,15.3198241 L99.2159784,16.8394103 Z M102.37685,21.6353069 C101.515946,20.4028241 101.429618,19.5898931 101.429618,18.9617552 L101.429618,15.6085138 C101.429618,15.0073414 101.486642,14.2491345 101.22845,13.617031 C100.397642,11.3392379 96.5952504,11.0513414 94.3800264,11.5216517 C93.5452584,11.7032724 93.0565944,11.9142379 92.1354984,12.3623414 L91.9311624,13.8026172 C93.3417144,12.5162034 94.8417624,12.1252034 95.9949144,12.0998241 C98.4374424,12.0205138 99.2714184,12.9873069 99.2159784,13.7772379 C99.1581624,15.4015138 96.5952504,15.2421 94.8417624,15.5577552 C92.2820184,16.0272724 91.0987704,17.0773414 91.0987704,18.6468931 C91.0987704,20.1141345 92.5109064,21.713031 94.9827384,21.8700655 C96.2269704,21.9485828 97.7167224,21.3735828 99.2429064,19.5629276 C99.3015144,20.6685138 99.3601224,21.161031 99.6484104,21.6353069 L102.37685,21.6353069 Z" id="Fill-14" fill="#35749C"></path>
            <path d="M120.074803,21.6081034 C119.668507,20.6682759 119.668507,19.7482759 119.668507,19.4342069 L119.668507,14.5344138 C119.668507,11.891 118.519315,11.2882414 117.166579,11.3659655 C115.756027,11.4444828 114.257563,12.174931 113.022835,13.7476552 C112.679107,11.7569655 111.668515,11.3112414 110.516947,11.3913448 C109.020859,11.4682759 107.725147,12.2026897 106.404883,13.6715172 C106.434979,12.4644138 106.345483,11.914 106.144315,11.5753448 L103.499827,11.5753448 C104.245099,12.7007586 104.186491,14.0125517 104.186491,14.1917931 L104.186491,19.4587931 C104.186491,20.4811034 104.216587,20.7428276 103.783363,21.635069 L106.807219,21.635069 C106.377955,20.692069 106.404883,19.8022069 106.404883,19.4587931 L106.404883,16.2118276 C106.404883,14.7945517 107.497051,13.278931 108.878299,12.6492069 C111.007195,11.6538621 110.832955,15.3743103 110.832955,15.6360345 L110.832955,19.4342069 C110.832955,20.454931 110.861467,20.7428276 110.433787,21.6081034 L113.455267,21.6081034 C113.022835,20.6682759 113.051347,19.8022069 113.051347,19.4342069 L113.051347,16.2118276 C113.051347,14.7945517 114.117379,13.2535517 115.528723,12.6238276 C117.654451,11.6268966 117.480211,15.3465517 117.480211,15.609069 L117.480211,19.4342069 C117.480211,20.4287586 117.480211,20.7174483 117.077083,21.6081034 L120.074803,21.6081034 Z" id="Fill-16" fill="#35749C"></path>
            <path d="M132.196126,15.4251483 L127.934374,15.4251483 L130.068022,10.7624931 L132.196126,15.4251483 Z M138.32383,21.6629069 C137.406694,20.6683552 137.118406,20.4811828 136.59727,19.3280103 L131.044558,7.35532069 L130.614502,7.35532069 L124.969918,19.6674586 C124.568374,20.5850793 124.339486,20.9269069 123.735982,21.6629069 L125.06179,21.6629069 L127.451254,16.4220793 L132.690334,16.4220793 L135.101182,21.6629069 L138.32383,21.6629069 Z" id="Fill-18" fill="#35749C"></path>
            <path d="M142.087572,21.6352276 C141.661476,20.6922276 141.683652,20.1426069 141.683652,19.4343655 L141.683652,13.7478138 C141.683652,13.0681241 141.661476,12.4915379 142.087572,11.5747103 L139.066092,11.5747103 C139.500108,12.4915379 139.46922,13.0681241 139.46922,13.7478138 L139.46922,19.4343655 C139.46922,20.4812621 139.500108,20.7429862 139.066092,21.6352276 L142.087572,21.6352276 Z M141.917292,8.8734 C141.917292,8.22464138 141.285276,7.64646897 140.564556,7.64646897 C139.872348,7.64646897 139.241124,8.22464138 139.241124,8.8734 C139.241124,9.50708966 139.872348,10.0805034 140.564556,10.0805034 C141.285276,10.0805034 141.917292,9.50708966 141.917292,8.8734 Z" id="Fill-20" fill="#35749C"></path>
            <path d="M152.855446,11.3915034 C149.43163,10.8165034 147.733582,12.4376069 146.787142,13.6716759 C146.812486,12.4915379 146.72695,11.940331 146.525782,11.5747103 L143.877334,11.5747103 C144.627358,12.7001241 144.563206,14.0127103 144.563206,14.1919517 L144.563206,19.4589517 C144.563206,20.4812621 144.594886,20.7429862 144.167206,21.6352276 L147.180766,21.6352276 C146.756254,20.7176069 146.787142,20.1140552 146.787142,19.4589517 L146.787142,16.2119862 C146.787142,14.5337793 148.827334,11.2590552 151.702294,12.8048138 L152.855446,11.3915034 Z" id="Fill-22" fill="#35749C"></path>
            <path d="M156.280212,21.6352276 C155.846988,20.7176069 155.87154,20.4550897 155.87154,19.4058138 L155.87154,8.77029655 C155.87154,7.7234 155.846988,7.46167586 156.280212,6.51788276 L153.260316,6.51788276 C153.688788,7.46167586 153.663444,7.7234 153.663444,8.77029655 L153.663444,19.4058138 C153.663444,20.1140552 153.688788,20.6684345 153.260316,21.6352276 L156.280212,21.6352276 Z" id="Fill-24" fill="#35749C"></path>
            <path d="M161.374039,21.6352276 C160.944775,20.6922276 160.970911,20.1426069 160.970911,19.4343655 L160.970911,13.7478138 C160.970911,13.0681241 160.944775,12.4915379 161.374039,11.5747103 L158.354935,11.5747103 C158.786575,12.4915379 158.756479,13.0681241 158.756479,13.7478138 L158.756479,19.4343655 C158.756479,20.4812621 158.786575,20.7429862 158.354935,21.6352276 L161.374039,21.6352276 Z M161.202175,8.8734 C161.202175,8.22464138 160.570159,7.64646897 159.854191,7.64646897 C159.159607,7.64646897 158.529175,8.22464138 158.529175,8.8734 C158.529175,9.50708966 159.159607,10.0805034 159.854191,10.0805034 C160.570159,10.0805034 161.202175,9.50708966 161.202175,8.8734 Z" id="Fill-26" fill="#35749C"></path>
            <path d="M174.640039,21.6352276 C174.240079,20.6922276 174.272551,19.7730207 174.272551,19.4589517 L174.272551,14.5861241 C174.272551,13.120469 174.068215,12.8048138 173.349079,12.2020552 C172.511935,11.4954 170.960407,11.3661241 170.242855,11.3915034 C168.715879,11.4954 167.394823,12.2020552 166.069807,13.6716759 C166.101487,12.4645724 166.012783,11.9141586 165.811615,11.5747103 L163.163167,11.5747103 C163.910815,12.7001241 163.856167,14.0127103 163.856167,14.1919517 L163.856167,19.4589517 C163.856167,20.4812621 163.879927,20.7429862 163.447495,21.6352276 L166.468183,21.6352276 C166.042087,20.6922276 166.069807,19.8015724 166.069807,19.4589517 L166.069807,16.2119862 C166.069807,14.401331 167.969815,12.3075379 169.926847,12.2829517 C171.796759,12.2274345 172.054159,13.1466414 172.054159,15.6584 L172.054159,19.4589517 C172.054159,20.4812621 172.054159,20.7429862 171.655783,21.6352276 L174.640039,21.6352276 Z" id="Fill-28" fill="#35749C"></path>
            <path d="M184.799182,14.7947103 L179.12767,14.7947103 C179.470606,13.3314345 180.50971,12.1750897 182.20855,12.0727793 C182.871454,12.0204345 184.65187,12.1005379 184.799182,14.7947103 Z M187.445254,15.5798828 C187.044502,11.5747103 183.850366,11.1305724 181.863238,11.3391586 C177.515158,11.8348483 176.017486,15.2420207 176.366758,17.3366069 C176.56951,18.3866759 177.11599,19.7730207 178.47031,20.7683655 C179.67811,21.6352276 183.18271,22.9969862 186.436246,20.5605724 L186.003814,20.0862966 C185.171422,20.8230897 183.707806,21.1109862 182.728894,21.0840207 C180.565942,20.9817103 178.639006,19.0394 178.952638,15.5798828 L187.445254,15.5798828 Z" id="Fill-30" fill="#35749C"></path>
            <g id="Group-34" transform="translate(187.704000, 10.537252)">
                <mask id="mask-4" fill="white">
                    <use xlink:href="#path-3"></use>
                </mask>
                <g id="Clip-33"></g>
                <path d="M9.5992776,8.4011069 C9.8828136,6.30255517 6.2895096,5.09862414 5.1648696,4.70524483 C3.3804936,4.04934828 2.7484776,3.57824483 2.8078776,2.68838276 C2.8348056,2.00472759 3.6735336,1.53521034 4.6516536,1.50824483 C5.5442376,1.48365862 7.1258616,1.76996897 8.8785576,3.15948621 L8.6773896,1.74538276 C6.7227336,0.773831034 5.1371496,0.750831034 4.5906696,0.773831034 C2.4340536,0.853934483 1.0242936,1.74538276 0.8215416,2.79386552 C0.3305016,5.0431069 2.5774056,5.88458966 4.3887096,6.5396931 C9.4836456,8.4011069 7.0078536,10.6796931 4.5067176,10.6796931 C2.6375976,10.6796931 0.8484696,9.41865862 0.2441736,8.89679655 L0.4199976,10.2855207 C1.9422216,11.1753828 3.4121736,11.3855552 4.3887096,11.4117276 C6.9825096,11.4609 9.3695976,10.2054172 9.5992776,8.4011069" id="Fill-32" fill="#35749C" mask="url(#mask-4)"></path>
            </g>
        </g>
    </g>
</svg>