<?xml version="1.0" encoding="utf-8"?>
<!-- Generator: Adobe Illustrator 23.0.5, SVG Export Plug-In . SVG Version: 6.00 Build 0)  -->
<svg version="1.1" id="Layer_1" xmlns="http://www.w3.org/2000/svg" xmlns:xlink="http://www.w3.org/1999/xlink" x="0px" y="0px"
	 width="421.381px" height="59.652px" viewBox="0 0 421.381 59.652" enable-background="new 0 0 421.381 59.652"
	 xml:space="preserve">
<path fill="#344575" d="M376.338,11.592h30.904c0.858,0,2.408,0,2.53,2.185v8.01c-0.122,1.433-0.924,2.193-2.53,2.193h-10.324
	c-3.005,0-5.419,2.586-5.419,5.818c0,3.177,2.414,5.762,5.419,5.762h19.019c2.884,0,5.244-2.414,5.413-5.473V5.182
	C421.073,2.304,418.755,0,415.937,0h-39.599c-2.993,0-5.47,2.592-5.47,5.767C370.868,8.995,373.345,11.592,376.338,11.592z
	 M411.213,38.278c-1.851-2.423-5.358-2.828-7.955-0.868c-2.539,1.905-3.172,5.424-1.384,7.779l9.169,12.283
	c1.835,2.416,5.359,2.817,7.943,0.917c2.541-1.903,3.183-5.472,1.33-7.84L411.213,38.278z M351.891,53.781
	c0-3.176-2.477-5.828-5.469-5.828h-16.029c-2.986,0-5.469,2.652-5.469,5.828c0,3.168,2.482,5.823,5.469,5.823h16.029
	C349.414,59.604,351.891,56.949,351.891,53.781z M365.102,5.474c0-2.992-2.598-5.474-5.77-5.474c0,0,0,0-0.054,0h-3.527
	c-0.163,0-0.397,0-0.626,0.06c-1.149,0.175-2.242,0.695-3.115,1.61L338.81,15.798l-32.039,34.287
	c-2.078,2.193-1.853,5.771,0.517,7.957c2.299,2.144,5.883,2.144,7.949-0.048l23.573-25.198l12.514-13.429
	c1.73-1.673,2.187,0.522,2.187,1.267v33.602c0,1.448,0.63,2.773,1.613,3.759c1.092,1.027,2.603,1.657,4.207,1.657
	c3.172,0,5.77-2.412,5.77-5.416V5.474z M300.89,54.236V5.474c0-2.992-2.599-5.474-5.817-5.474h-3.524
	c-1.381,0.06-2.768,0.581-3.747,1.669l-1.327,1.39l-10.61,11.354V5.474c0-2.711-2.129-5.006-4.896-5.415
	c-0.287,0-0.578-0.06-0.926-0.06h-3.507c-1.39,0.06-2.765,0.581-3.747,1.669l-8.071,8.649l-9.683,10.434l-4.671,5.074
	c-2.078,2.188-1.787,5.768,0.514,7.897c1.227,1.088,2.711,1.667,4.157,1.617c1.387,0,2.767-0.576,3.738-1.676l5.944-6.396l7.319-7.9
	c1.734-1.673,2.254,0.522,2.254,1.267v9.343c0,2.999,2.596,5.413,5.752,5.413h0.926c3.409-0.28,4.678-3,5.423-3.624l10.084-11.708
	l0.585-0.69c1.722-1.673,2.244,0.522,2.244,1.267v33.602c0,3.004,2.59,5.416,5.77,5.416C298.291,59.652,300.89,57.24,300.89,54.236z
	 M226.124,59.547c3.866-0.347,6.907-3.584,6.907-7.554V7.543c0-3.911-3.041-7.196-6.907-7.543h-36.026c0,0-0.051,0-0.116,0
	c-4.089,0.06-7.441,3.457-7.441,7.543v44.451c0,4.143,3.353,7.495,7.441,7.554c0.065,0.057,0.116,0.057,0.116,0.057h35.395
	C225.727,59.604,225.898,59.547,226.124,59.547z M221.459,43.347c0,2.536-1.847,4.606-4.097,4.606h-19.134
	c-2.248,0-4.095-2.07-4.095-4.606V16.266c0-2.547,1.847-4.625,4.095-4.625h19.134c2.25,0,4.097,2.077,4.097,4.625V43.347z
	 M172.513,50.549l-9.157-12.271c-1.788-2.423-5.3-2.828-7.89-0.868c-2.551,1.905-3.18,5.424-1.39,7.779l9.169,12.283
	c1.841,2.416,5.351,2.817,7.943,0.917C173.736,56.486,174.366,52.917,172.513,50.549z M112.636,0h-39.54
	c-3.002,0-5.484,2.592-5.484,5.767c0,3.228,2.482,5.825,5.484,5.825h39.54c2.996,0,5.472-2.598,5.472-5.825
	C118.108,2.592,115.632,0,112.636,0z M168.139,35.561c2.886,0,5.244-2.414,5.41-5.473V5.182C173.267,2.304,170.954,0,168.139,0
	H128.54c-2.999,0-5.476,2.592-5.476,5.767c0,3.228,2.477,5.825,5.476,5.825h30.893c0.873,0,2.429,0,2.545,2.185v8.01
	c-0.116,1.433-0.932,2.193-2.545,2.193h-5.148c0,0,0,0-0.001,0h-5.175c-2.99,0-5.41,2.586-5.41,5.818c0,3.177,2.42,5.762,5.41,5.762
	H168.139z M112.636,23.98h-39.54c-3.002,0-5.484,2.586-5.484,5.818c0,3.177,2.482,5.762,5.484,5.762h39.54
	c2.996,0,5.472-2.585,5.472-5.762C118.108,26.567,115.632,23.98,112.636,23.98z M112.636,47.953h-39.54
	c-3.002,0-5.484,2.652-5.484,5.828c0,3.168,2.482,5.823,5.484,5.823h39.54c2.996,0,5.472-2.655,5.472-5.823
	C118.108,50.605,115.632,47.953,112.636,47.953z M54.003,0h-3.566c-1.387,0.06-2.771,0.581-3.748,1.669L33.084,16.266L1.381,50.085
	C0.517,51.014,0.057,52.228,0,53.433v0.47c0.057,1.484,0.745,2.999,1.966,4.14c2.304,2.144,5.876,2.144,7.955-0.048l23.164-24.796
	l12.914-13.831c1.726-1.673,2.186,0.522,2.186,1.267v33.602c0,3.004,2.601,5.416,5.82,5.416c3.18,0,5.764-2.412,5.764-5.416V5.474
	C59.767,2.482,57.184,0,54.003,0z M41.096,47.953H25.07c-3.002,0-5.467,2.652-5.467,5.828c0,3.168,2.465,5.823,5.467,5.823h16.025
	c2.996,0,5.416-2.655,5.416-5.823C46.512,50.605,44.092,47.953,41.096,47.953z"/>
</svg>
