<?xml version="1.0" encoding="utf-8"?>
<!-- Generator: Adobe Illustrator 22.1.0, SVG Export Plug-In . SVG Version: 6.00 Build 0)  -->
<svg version="1.1" id="Слой_1" xmlns="http://www.w3.org/2000/svg" xmlns:xlink="http://www.w3.org/1999/xlink" x="0px" y="0px"
	 width="70.941px" height="23px" viewBox="0 0 70.941 23" style="enable-background:new 0 0 70.941 23;" xml:space="preserve">
<style type="text/css">
	.st0{fill:#757575;}
	.st1{fill:#FBE666;}
</style>
<g id="_x23_fdfdfdff">
</g>
<g>
	<g>
		<path class="st0" d="M37.197,14.804c0-4.403,0.001-8.806-0.001-13.209c-0.002-0.448-0.144-0.914-0.478-1.225
			c-0.394-0.356-0.979-0.452-1.481-0.302c-0.416,0.124-0.751,0.464-0.894,0.87c-0.144,0.389-0.096,0.811-0.102,1.217
			c-0.001,4.555,0.001,9.11-0.001,13.665c-0.006,0.553,0.267,1.139,0.778,1.393c0.626,0.312,1.48,0.156,1.886-0.436
			C37.312,16.204,37.173,15.464,37.197,14.804z"/>
		<path class="st0" d="M30.736,7.541c-1.061-0.941-2.572-1.174-3.942-1.023c-1.289,0.125-2.539,0.784-3.289,1.854
			c-0.944,1.326-1.164,3.044-0.969,4.629c0.169,1.391,0.856,2.772,2.056,3.548c1.211,0.811,2.74,0.921,4.151,0.756
			c0.745-0.088,1.504-0.235,2.167-0.602c0.361-0.209,0.723-0.525,0.779-0.963c0.066-0.576-0.343-1.192-0.917-1.316
			c-0.412-0.057-0.814,0.086-1.203,0.201c-0.981,0.294-2.088,0.539-3.068,0.122c-0.703-0.297-1.035-1.056-1.156-1.763
			c1.903-0.006,3.806,0.001,5.709-0.003c0.382-0.003,0.832-0.098,1.036-0.458c0.262-0.456,0.188-1.008,0.161-1.51
			C32.162,9.735,31.722,8.408,30.736,7.541z M25.346,10.996c0.071-0.728,0.247-1.591,0.956-1.965c0.681-0.318,1.524-0.321,2.2,0.011
			c0.707,0.372,0.954,1.212,1.007,1.955C28.121,10.994,26.733,10.997,25.346,10.996z"/>
		<path class="st0" d="M18.646,6.646c-0.529,0.205-0.865,0.765-0.87,1.323c-0.001,1.601,0.001,3.202,0,4.804
			c-0.006,0.493-0.047,1.02-0.341,1.435c-0.26,0.381-0.708,0.59-1.156,0.647c-0.522,0.061-1.086,0.034-1.539-0.26
			c-0.514-0.325-0.756-0.953-0.752-1.543c-0.002-1.634,0.002-3.268-0.001-4.903c0.002-0.442-0.127-0.905-0.451-1.223
			c-0.381-0.387-0.984-0.473-1.493-0.33c-0.592,0.17-1.002,0.765-1.01,1.372c-0.005,1.601,0,3.202-0.002,4.804
			c0.013,1.149,0.305,2.355,1.083,3.235c0.848,0.964,2.172,1.338,3.417,1.381c1.351,0.053,2.828-0.177,3.858-1.127
			c0.961-0.881,1.302-2.231,1.333-3.492c0.021-1.475,0-2.95,0.01-4.424c0.008-0.462-0.053-0.96-0.367-1.321
			C19.964,6.524,19.222,6.415,18.646,6.646z"/>
		<path class="st0" d="M52.466,7.253c-1.223-0.751-2.735-0.815-4.122-0.64c-0.692,0.103-1.374,0.33-1.955,0.725
			c-0.781,0.539-1.312,1.388-1.533,2.304c-0.266,0.962-0.189,1.965-0.2,2.949c0.001,1.078-0.001,2.155,0,3.233
			c-0.003,0.406,0.127,0.828,0.418,1.121c0.582,0.612,1.711,0.556,2.219-0.123c0.239-0.308,0.322-0.704,0.321-1.086
			c-0.004-1.604,0-3.21-0.003-4.815c-0.002-0.508,0.127-1.049,0.496-1.418c0.397-0.38,0.976-0.481,1.507-0.466
			c0.537,0.019,1.099,0.23,1.41,0.689c0.38,0.534,0.357,1.219,0.354,1.844c-0.003,1.417,0.002,2.834-0.003,4.251
			c-0.014,0.46,0.175,0.932,0.535,1.225c0.55,0.443,1.415,0.432,1.944-0.041c0.358-0.318,0.511-0.811,0.502-1.279
			c-0.001-1.415-0.002-2.83,0-4.245c-0.001-0.643-0.057-1.291-0.227-1.913C53.88,8.629,53.307,7.758,52.466,7.253z"/>
		<path class="st0" d="M66.292,8.896c0.013-0.611-0.38-1.163-0.903-1.447c-1.138-0.644-2.463-0.91-3.761-0.912
			c-1.325-0.032-2.699,0.353-3.708,1.24c-1.095,0.936-1.659,2.372-1.731,3.79c-0.084,1.535,0.223,3.189,1.26,4.378
			c0.737,0.865,1.842,1.367,2.968,1.436c1.075,0.069,2.247-0.107,3.082-0.841c-0.004,0.532-0.001,1.063,0.001,1.595
			c0.005,0.575-0.121,1.192-0.532,1.619c-0.442,0.445-1.096,0.598-1.706,0.599c-0.715,0.026-1.426-0.137-2.078-0.424
			c-0.48-0.195-0.981-0.456-1.515-0.373c-0.726,0.163-1.136,1.093-0.783,1.744c0.193,0.349,0.507,0.615,0.84,0.829
			c0.921,0.557,1.999,0.827,3.068,0.872c1.391,0.018,2.875-0.255,3.959-1.188c1.079-0.923,1.521-2.387,1.541-3.767
			C66.291,14.995,66.292,11.945,66.292,8.896z M63.499,10.462c-0.039,1.14,0.158,2.365-0.396,3.416
			c-0.296,0.587-0.933,0.938-1.578,0.97c-0.674,0.053-1.45-0.077-1.887-0.645c-0.461-0.617-0.519-1.425-0.531-2.169
			c-0.001-0.827,0.131-1.729,0.714-2.361c0.319-0.334,0.758-0.534,1.21-0.611C61.782,8.95,62.63,9,63.262,9.465
			C63.601,9.685,63.479,10.123,63.499,10.462z"/>
		<path class="st0" d="M7.317,6.773C6.892,6.976,6.683,7.432,6.57,7.865c-0.599,2.023-1.192,4.047-1.803,6.065
			c-0.063-0.102-0.117-0.211-0.149-0.326c-0.58-1.972-1.166-3.941-1.749-5.912C2.743,7.213,2.381,6.763,1.874,6.669
			c-0.638-0.13-1.41,0.106-1.724,0.713C-0.065,7.784-0.028,8.27,0.126,8.688c0.825,2.317,1.64,4.64,2.461,6.96
			c0.174,0.466,0.366,0.953,0.732,1.305c0.4,0.375,0.98,0.423,1.501,0.42c0.469-0.004,0.994-0.038,1.352-0.379
			c0.346-0.345,0.513-0.819,0.686-1.265c0.828-2.313,1.642-4.63,2.473-6.942c0.178-0.454,0.241-0.996-0.006-1.438
			C8.939,6.682,7.999,6.462,7.317,6.773z"/>
		<path class="st0" d="M42.211,7.249c-0.379-0.569-1.168-0.756-1.79-0.51c-0.566,0.213-0.909,0.826-0.893,1.417
			c0.002,2.558,0.001,5.116,0,7.674c-0.003,0.397,0.133,0.799,0.399,1.097c0.554,0.607,1.642,0.589,2.174-0.039
			c0.281-0.313,0.383-0.744,0.384-1.156c-0.001-2.463-0.003-4.928,0.001-7.391C42.488,7.964,42.437,7.564,42.211,7.249z"/>
	</g>
	<g id="_x23_fbe666ff">
		<path class="st1" d="M68.32,1.113c0.467-0.148,0.983-0.148,1.45,0.002c0.581,0.187,1.041,0.707,1.143,1.31
			c0.064,0.518,0.041,1.091-0.277,1.53c-0.619,0.866-1.963,0.985-2.807,0.394C66.743,3.54,66.966,1.51,68.32,1.113z"/>
	</g>
</g>
</svg>
