<?xml version="1.0" encoding="utf-8"?>
<!-- Generator: Adobe Illustrator 22.1.0, SVG Export Plug-In . SVG Version: 6.00 Build 0)  -->
<svg version="1.1" id="Слой_1" xmlns="http://www.w3.org/2000/svg" xmlns:xlink="http://www.w3.org/1999/xlink" x="0px" y="0px"
	 width="566.929px" height="230.257px" viewBox="0 0 566.929 230.257" enable-background="new 0 0 566.929 230.257"
	 xml:space="preserve">
<g>
	<path fill-rule="evenodd" clip-rule="evenodd" fill="#E31720" d="M19.162,32.968L1.035,150.791
		c-7.957,51.717,31.478,79.885,65.977,78.887h48.662l2.88-25.809H65.994c-27.13,0-47.043-25.291-41.537-55.328l15.617-85.183
		C42.242,51.533,39.668,33.236,19.162,32.968L19.162,32.968z M419.583,120.853h-57.425l-16.231,108.825h21.633l13.055-87.449h45.044
		c43.75,0,77.518-35.594,77.879-81.278C503.819,25.284,479.011,1.79,444.203,0h-93.655l-34.289,229.678h21.633l30.726-205.811h74.04
		c21.65,0,36.367,15.894,36.157,37.703C478.404,104.333,439.671,120.44,419.583,120.853L419.583,120.853z M422.859,91.238h-34.63
		l5.951-39.865h38.643c13.897,0,15.417,5.38,14.905,15.596C447.024,80.987,435.963,91.238,422.859,91.238L422.859,91.238z
		 M415.971,110.891c23.873-0.007,51.4-19.048,52.428-46.649c0.404-10.868-6.973-32.031-29.142-32.031h-63.85l-11.748,78.694
		L415.971,110.891L415.971,110.891z M256.672,34.065c28.86,0,37.167,4.56,47.225,12.887l-15.616,20.232
		c-10.901-8.01-20.894-10.601-30.523-10.524c-30.675,0.246-65.824,30.309-68.833,65.274c-1.988,23.112,17.011,50.259,47.007,49.717
		c9.991-0.18,21.376-3.023,34.178-9.833l9.4,19.387c-10.658,8.359-30.526,13.563-44.997,13.563c-33.52,0-71.397-18.46-70.279-69.54
		C165.355,74.148,216.846,34.065,256.672,34.065L256.672,34.065z M258.469,0c39.848,0,51.319,6.517,65.207,18.418l-16.867,21.85
		c-16.267-11.455-31.138-15.902-45.559-15.923c-60.695-0.091-100.702,54.354-104.859,104.33
		c-2.747,33.035,23.491,75.367,76.429,74.589c13.798-0.202,29.515-4.321,47.192-14.053l9.993,21.082
		c-14.717,11.947-42.149,19.384-62.131,19.384c-46.282,0-98.582-26.382-97.038-99.387C132.38,57.287,203.478,0,258.469,0L258.469,0z
		 M24.555,0l-4.053,25.16c8.337,0.99,33.048,3.956,26.816,40.758l-14.69,86.727c-3.833,22.634,14.065,41.874,35.695,42.111h53.268
		l1.909-25.809H82.482c-17.979,0-27.785-0.345-24.131-23.497l14.367-91.054C74.565,42.701,75.23,3.359,24.555,0L24.555,0z
		 M545.456,132.744h13.67l-14.837,19.528h-5.807L545.456,132.744L545.456,132.744z M512.937,161.675h10.967L516.949,205
		c-1.006,28.108,25.455,9.694,32.723-4.143l6.29-39.181h10.967l-10.916,68.003h-10.967l3.582-22.311
		c-5.321,13.904-13.856,22.311-25.146,22.311c-9.77,0-20.094-7.444-17.834-22.59L512.937,161.675L512.937,161.675z M466.599,161.675
		h10.545l-2.878,18.777c6.691-12.64,14.619-20.322,24.329-20.886l-0.844,10.967c-8.682-1.831-16.569,5.871-24.312,15.31
		l-6.719,43.835h-10.545L466.599,161.675L466.599,161.675z M406.362,188.82c3.466,0.682,7.1,0.99,10.682,0.93
		c6.031-0.104,11.868-1.237,16.441-3.373c3.982-1.86,6.896-4.445,7.814-7.681c0.232-0.818,0.349-1.677,0.338-2.57h-0.001
		l-0.004-0.158h-0.002c-0.087-2.313-1.699-4.317-3.872-5.779c-2.529-1.702-5.67-2.634-8.334-2.603l-0.265,0.007v0.001
		c-6.327,0.238-12.582,4.02-17.312,10.484C409.628,181.112,407.754,184.718,406.362,188.82L406.362,188.82z M417.19,199.056
		c-4.356,0.075-8.772-0.309-12.964-1.155c-0.278,1.959-0.456,3.995-0.526,6.101c-0.094,2.79,0.683,5.754,2.239,8.414
		c1.353,2.313,3.289,4.382,5.746,5.896c2.474,1.526,5.507,2.502,9.043,2.62c5.058,0.169,11.14-1.386,18.145-5.483l4.709,8.031
		c-8.665,5.069-16.463,6.984-23.146,6.759c-5.27-0.177-9.851-1.669-13.642-4.007c-3.807-2.347-6.8-5.542-8.886-9.107
		c-2.448-4.184-3.666-8.909-3.515-13.414c0.424-12.69,4.249-23.374,9.937-31.144c6.426-8.782,15.28-13.932,24.501-14.28h0.037
		l0.301-0.008h0.055c4.452-0.076,9.631,1.422,13.717,4.171c4.461,3.001,7.782,7.498,7.997,13.189v0.055l0.006,0.213v0.036
		c0.033,1.873-0.2,3.632-0.664,5.271c-1.728,6.093-6.493,10.623-12.852,13.594C431.657,197.504,424.479,198.931,417.19,199.056
		L417.19,199.056z"/>
</g>
</svg>
