<?xml version="1.0" encoding="UTF-8" standalone="no"?>
<svg
   xmlns:dc="http://purl.org/dc/elements/1.1/"
   xmlns:cc="http://creativecommons.org/ns#"
   xmlns:rdf="http://www.w3.org/1999/02/22-rdf-syntax-ns#"
   xmlns:svg="http://www.w3.org/2000/svg"
   xmlns="http://www.w3.org/2000/svg"
   xmlns:sodipodi="http://sodipodi.sourceforge.net/DTD/sodipodi-0.dtd"
   xmlns:inkscape="http://www.inkscape.org/namespaces/inkscape"
   width="240pt"
   height="90.547585pt"
   viewBox="0 0 240.00001 90.547585"
   version="1.1"
   id="svg2"
   inkscape:version="0.91 r"
   sodipodi:docname="sunwings logo 2015.svg">
  <metadata
     id="metadata2458">
    <rdf:RDF>
      <cc:Work
         rdf:about="">
        <dc:format>image/svg+xml</dc:format>
        <dc:type
           rdf:resource="http://purl.org/dc/dcmitype/StillImage" />
        <dc:title></dc:title>
      </cc:Work>
    </rdf:RDF>
  </metadata>
  <sodipodi:namedview
     pagecolor="#ffffff"
     bordercolor="#666666"
     borderopacity="1"
     objecttolerance="10"
     gridtolerance="10"
     guidetolerance="10"
     inkscape:pageopacity="0"
     inkscape:pageshadow="2"
     inkscape:window-width="1050"
     inkscape:window-height="480"
     id="namedview2456"
     showgrid="false"
     fit-margin-top="0"
     fit-margin-left="0"
     fit-margin-right="0"
     fit-margin-bottom="0"
     inkscape:zoom="3.4902421"
     inkscape:cx="55.965497"
     inkscape:cy="26.195187"
     inkscape:window-x="1498"
     inkscape:window-y="132"
     inkscape:window-maximized="0"
     inkscape:current-layer="svg2" />
  <defs
     id="defs4" />
  <g
     id="g7502"
     style="fill:#f35c17;fill-opacity:1"
     transform="matrix(1.910507,0,0,1.910507,-118.50367,-839.86933)">
    <path
       style="fill:#f35c17;fill-opacity:1;fill-rule:nonzero;stroke:none"
       d="m 147.51172,439.60547 0.59765,0.1289 0.1836,0.20704 -0.0508,0.47265 -0.082,3.69922 -0.20704,0.0273 -0.57421,-1.41015 -0.20704,-1.32813 0.0781,-1.32812"
       id="path2380"
       inkscape:connector-curvature="0" />
    <path
       style="fill:#f35c17;fill-opacity:1;fill-rule:nonzero;stroke:none"
       d="m 150.97656,447.11328 1.7461,-1.25391 0.9375,-0.4414 0.91406,-0.60156 0.85937,-0.20704 0.23438,0.67579 -0.70703,0.52343 -1.5625,1.14844 -0.4961,0.0781 -0.77734,0.28515 -0.73047,0.12891"
       id="path2382"
       inkscape:connector-curvature="0" />
    <path
       style="fill:#f35c17;fill-opacity:1;fill-rule:nonzero;stroke:none"
       d="m 152.87891,449.69141 0.0781,-0.44141 2.58203,-0.23438 1.48438,-0.0273 0.67968,0.20703 0.38672,0.15625 -0.0273,0.44531 -0.28516,0.28516 -1.61328,0.0273 -1.69531,-0.10546 -1.04297,-0.15625"
       id="path2384"
       inkscape:connector-curvature="0" />
    <path
       style="fill:#f35c17;fill-opacity:1;fill-rule:nonzero;stroke:none"
       d="m 150.45703,453.16016 0.17969,-0.23438 0.23437,0.17969 -0.0234,0.75781 0.78125,1.53906 0.36328,1.01563 0.10547,0.36328 0.0234,1.38281 -0.36328,0.0508 -0.54687,-0.73047 -0.36328,0.13282 -0.26172,-0.1836 -0.0273,-1.04297 -0.15625,-0.15625 -0.0508,-2.26562"
       id="path2386"
       inkscape:connector-curvature="0" />
    <path
       style="fill:#f35c17;fill-opacity:1;fill-rule:nonzero;stroke:none"
       d="m 144.4375,454.77344 1.37891,-1.66797 0.46875,-0.15625 0.33984,0.0273 -0.36719,1.1211 -0.80469,1.66796 -0.60156,0.59766 -0.39062,0.10547 -0.15625,-0.12891"
       id="path2388"
       inkscape:connector-curvature="0" />
    <path
       style="fill:#f35c17;fill-opacity:1;fill-rule:nonzero;stroke:none"
       d="m 136.90234,452.76953 1.125,-0.44531 2.10938,-0.3125 1.14844,-0.0781 0.23046,-0.23437 0,0.57422 -0.96093,0.52343 -2.14063,0.85938 -1.27344,0.36328 -0.57421,-0.41797 0.0273,-0.70312"
       id="path2390"
       inkscape:connector-curvature="0" />
    <path
       style="fill:#f35c17;fill-opacity:1;fill-rule:nonzero;stroke:none"
       d="m 138.75391,445.91016 1.85156,-0.28516 1.66797,0.55078 1.38281,0.67578 0.33594,0.26172 -0.12891,0.17969 -1.66797,0.0273 -1.5664,-0.26172 -1.27344,-0.46875 -0.625,-0.4414"
       id="path2392"
       inkscape:connector-curvature="0" />
    <path
       style="fill:#f35c17;fill-opacity:1;fill-rule:nonzero;stroke:none"
       d="m 145.32031,446.12109 -0.72656,0.78125 -0.10547,1.07032 0.15625,0.73046 0.9375,1.98047 0.26172,0.20703 0.15625,0.36719 1.06641,0.59766 1.27734,0.0273 1.98047,-0.23437 0.57422,-0.46875 0.0781,-0.33985 0.15625,-0.52343 -0.13281,-0.80469 -0.25781,-1.4336 -1.17188,-1.35546 -1.22656,-0.65235 -1.84766,-0.23437 z m 1.07031,0.99219 1.7461,0.23438 0.46875,0.25781 0.625,0.99219 0.3125,1.22265 -0.10156,0.8086 -1.125,0.28906 -1.5625,-0.83594 -0.64844,-0.96484 -0.41797,-0.80469 0.23437,-0.86328"
       id="path2394"
       inkscape:connector-curvature="0" />
  </g>
  <g
     id="g6691"
     style="fill:#f35c17;fill-opacity:1"
     transform="matrix(1.910507,0,0,1.910507,-118.50367,-839.86933)">
    <path
       style="fill:#f35c17;fill-opacity:1;fill-rule:nonzero;stroke:none"
       d="M 63.296875,474.76562 C 64.316406,475.27344 66.238281,476 67.945312,476 c 1.453126,0 2.214844,-0.72656 2.214844,-1.59766 0,-0.87109 -0.582031,-1.48828 -2.214844,-2.28515 -2.035156,-1.01953 -3.738281,-2.50782 -3.738281,-4.72266 0,-3.69922 3.230469,-6.13281 7.800781,-6.13281 2.070313,0 3.703126,0.4375 4.539063,0.91015 L 75.3125,465.875 c -0.722656,-0.32813 -1.996094,-0.76172 -3.554688,-0.76172 -1.378906,0 -2.289062,0.57813 -2.289062,1.55859 0,0.72266 0.726562,1.33985 2.140625,1.9961 1.960937,0.97656 3.996094,2.42969 3.996094,4.89844 0,4.0664 -3.449219,6.28125 -8.167969,6.24609 -2.214844,-0.0352 -4.355469,-0.61719 -5.410156,-1.37891"
       id="path2396"
       inkscape:connector-curvature="0" />
    <path
       style="fill:#f35c17;fill-opacity:1;fill-rule:nonzero;stroke:none"
       d="m 95.929688,461.66016 -2.25,11.98046 c -0.4375,2.25 -0.726563,4.17579 -0.980469,5.77344 l -4.609375,0 0.324218,-2.86719 -0.07031,-0.0391 c -1.8125,2.32422 -3.957031,3.30469 -6.097656,3.30469 -2.867188,0 -4.574219,-1.59766 -4.574219,-4.97266 0,-0.94531 0.109375,-2.03515 0.363281,-3.26953 l 1.886719,-9.91015 5.226563,0 -1.8125,9.51171 c -0.148438,0.79688 -0.253907,1.70704 -0.253907,2.35938 0,1.125 0.472657,2.03516 1.777344,2.03516 1.777344,0 3.628906,-2.14454 4.28125,-5.66407 l 1.5625,-8.24218"
       id="path2398"
       inkscape:connector-curvature="0" />
    <path
       style="fill:#f35c17;fill-opacity:1;fill-rule:nonzero;stroke:none"
       d="m 95.890625,479.41406 2.25,-11.98437 c 0.4375,-2.2461 0.730469,-4.16797 0.945313,-5.76953 l 4.613282,0 -0.32813,2.9414 0.0703,0 c 1.67187,-2.28515 3.88672,-3.33984 6.20703,-3.33984 2.90625,0 4.57422,1.78125 4.57422,4.86719 0,0.79296 -0.14453,2.10156 -0.28907,2.97265 l -1.96093,10.3125 -5.22657,0 1.85157,-9.83984 c 0.10937,-0.61719 0.17968,-1.3086 0.17968,-1.96094 0,-1.26953 -0.43359,-2.13672 -1.77734,-2.13672 -1.70703,0 -3.66406,2.13672 -4.42578,6.0586 l -1.45313,7.8789"
       id="path2400"
       inkscape:connector-curvature="0" />
  </g>
  <g
     id="g7496"
     style="fill:#f35c17;fill-opacity:1"
     transform="matrix(1.910507,0,0,1.910507,-118.50367,-839.86933)">
    <path
       style="fill:#f35c17;fill-opacity:1;fill-rule:nonzero;stroke:none"
       d="m 121.87891,461.66016 0.0391,7.55078 c 0.0352,1.99609 -0.0352,3.66797 -0.14453,5.6289 l 0.0703,0 c 0.61719,-1.89062 1.41797,-3.66797 2.14453,-5.44922 l 3.51953,-7.73046 4.2461,0 0.4375,7.47656 c 0.10937,2.10547 0.17968,3.8125 0.0703,5.70312 l 0.10937,0 c 0.58203,-1.96093 1.19922,-3.70312 1.92188,-5.77343 l 3.05078,-7.40625 5.26562,0 -8.64062,17.7539 -4.89844,0 -0.51172,-6.17578 c -0.14453,-1.84766 -0.14453,-3.55469 -0.14453,-5.66016 l -0.10937,0 c -0.94141,2.50391 -1.34375,3.8125 -2.10156,5.41016 l -3.01563,6.42578 -4.89844,0 -1.67187,-17.7539"
       id="path2402"
       inkscape:connector-curvature="0" />
    <path
       style="fill:#f35c17;fill-opacity:1;fill-rule:nonzero;stroke:none"
       d="m 140.75391,479.41406 3.3789,-17.7539 5.1875,0 -3.33984,17.7539"
       id="path2404"
       inkscape:connector-curvature="0" />
    <path
       style="fill:#f35c17;fill-opacity:1;fill-rule:nonzero;stroke:none"
       d="m 149.28516,479.41406 2.25,-11.98437 c 0.43359,-2.2461 0.72656,-4.16797 0.94531,-5.76953 l 4.60937,0 -0.32812,2.9414 0.0742,0 c 1.66797,-2.28515 3.88281,-3.33984 6.20703,-3.33984 2.90234,0 4.57422,1.78125 4.57422,4.86719 -0.004,0.79296 -0.14844,2.10156 -0.29297,2.97265 l -1.96094,10.3125 -5.22656,0 1.85156,-9.83984 c 0.10938,-0.61719 0.18359,-1.3086 0.18359,-1.96094 0,-1.26953 -0.4375,-2.13672 -1.78125,-2.13672 -1.70703,0 -3.66406,2.13672 -4.42578,6.0586 l -1.45312,7.8789"
       id="path2406"
       inkscape:connector-curvature="0" />
    <path
       style="fill:#f35c17;fill-opacity:1;fill-rule:nonzero;stroke:none"
       d="m 181.98828,465.58594 c -0.39844,-0.1836 -1.16406,-0.32813 -1.88672,-0.32813 -3.16015,0 -5.41015,3.51953 -5.41015,6.85938 0,1.8125 0.80078,3.12109 2.39453,3.12109 1.70703,0 3.41406,-1.92578 3.99609,-4.90234 z m -12.19531,16.29687 c 0.98047,0.57813 3.12109,0.98047 4.64453,0.98047 2.61328,0 4.53906,-1.16406 5.30078,-4.72266 l 0.28906,-1.52343 -0.0703,0 c -1.37891,1.8164 -2.97656,2.65234 -5.08203,2.65234 -3.52344,0 -5.66406,-2.87109 -5.69922,-6.35547 -0.0391,-5.84375 4.17578,-11.65234 11.90625,-11.65234 2.50391,0 4.67969,0.47265 6.56641,1.23437 l -2.6836,14.62891 c -0.61718,3.26953 -1.63281,6.17187 -3.73828,7.87891 -1.92578,1.52734 -4.5039,1.99609 -6.85937,1.99609 -2.39844,0 -4.57422,-0.43359 -5.8086,-1.125"
       id="path2408"
       inkscape:connector-curvature="0" />
  </g>
</svg>
