<?xml version="1.0" encoding="utf-8"?>
<!-- Generator: Adobe Illustrator 21.0.0, SVG Export Plug-In . SVG Version: 6.00 Build 0)  -->
<svg version="1.1" id="Слой_1" xmlns="http://www.w3.org/2000/svg" xmlns:xlink="http://www.w3.org/1999/xlink" x="0px" y="0px"
	 viewBox="0 0 1085.3 236.1" style="enable-background:new 0 0 1085.3 236.1;" xml:space="preserve">
<style type="text/css">
	.st0{fill:#F0474D;}
	.st1{fill:#86C860;}
	.st2{fill:#67A9DD;}
	.st3{fill:#7083BC;}
	.st4{fill:#F6882C;}
	.st5{fill:#E845A7;}
	.st6{fill:#BEBFC1;}
</style>
<title>white_airways</title>
<g id="Слой_2">
	<g id="Слой_1-2">
		<path class="st0" d="M625.1,50c-5.1,0-9.1-1.6-12.1-4.9s-4.5-7.8-4.5-13.8c0-5.9,1.5-10.5,4.5-13.8s7.1-4.9,12.1-4.9
			c3.5-0.1,6.9,0.9,9.8,3c2.7,2.1,4.3,5.2,4.6,8.5H633c0-1.9-0.9-3.7-2.4-4.9c-1.6-1.1-3.5-1.7-5.5-1.7c-2.9-0.1-5.6,1.2-7.3,3.4
			c-1.9,2.3-2.8,5.7-2.8,10.2s0.9,8,2.8,10.2c1.8,2.2,4.5,3.5,7.3,3.4c2,0.1,3.9-0.5,5.5-1.7c1.5-1.1,2.4-2.9,2.4-4.8h6.5
			c-0.3,3.4-1.9,6.5-4.6,8.5C632,49.1,628.6,50.2,625.1,50z"/>
		<path class="st1" d="M659.5,12.8c5.1,0,9.1,1.6,12.2,4.9s4.5,7.8,4.5,13.8c0,5.9-1.5,10.5-4.5,13.8c-3,3.3-7.1,4.9-12.2,4.8
			c-5.1,0-9.1-1.6-12.1-4.9s-4.5-7.8-4.5-13.8c0-5.9,1.5-10.5,4.5-13.8S654.4,12.8,659.5,12.8z M659.5,45.1c2.9,0.1,5.6-1.2,7.3-3.4
			c1.9-2.3,2.8-5.7,2.8-10.2s-0.9-7.9-2.8-10.2c-3.4-4.1-9.4-4.6-13.5-1.2c-0.4,0.4-0.9,0.8-1.2,1.2c-1.9,2.3-2.8,5.7-2.8,10.2
			s0.9,8,2.8,10.2C653.9,43.9,656.6,45.2,659.5,45.1z"/>
		<path class="st2" d="M689.6,49.2h-6.3V0h6.3V49.2z"/>
		<path class="st3" d="M713.4,12.8c5.1,0,9.1,1.6,12.2,4.9s4.5,7.8,4.5,13.8c0,5.9-1.5,10.5-4.5,13.8c-3,3.3-7.1,4.9-12.2,4.8
			c-5.1,0-9.1-1.6-12.1-4.9s-4.5-7.8-4.5-13.8c0-5.9,1.5-10.5,4.5-13.8S708.3,12.8,713.4,12.8z M713.4,45.1c2.9,0.1,5.6-1.2,7.3-3.4
			c1.9-2.3,2.8-5.7,2.8-10.2s-0.9-7.9-2.8-10.2c-3.4-4.1-9.4-4.6-13.5-1.2c-0.4,0.4-0.9,0.8-1.2,1.2c-1.9,2.3-2.8,5.7-2.8,10.2
			s0.9,8,2.8,10.2C707.8,43.9,710.5,45.2,713.4,45.1z"/>
		<path class="st4" d="M759.7,44.7c-3.1,3.6-6.7,5.3-10.6,5.3C741,50,737,45.6,737,36.9V13.6h6.3v23c0,2.9,0.5,5,1.5,6.3
			s2.7,1.9,5.1,1.9c3.5,0,6.8-1.9,9.7-5.7V13.6h6.3v35.6h-6.3L759.7,44.7z"/>
		<path class="st5" d="M793.9,19.4c-1.3-0.3-2.6-0.4-3.9-0.4c-3.2,0-6,1.7-8.3,5.1v25.1h-6.3V13.6h6.3v5c2.7-3.8,5.8-5.8,9.3-5.8
			c1,0,1.9,0.1,2.9,0.3L793.9,19.4z"/>
		<path class="st2" d="M813.4,50c-5.2,0-9.4-1.6-12.6-4.9c-3.2-3.3-4.8-7.8-4.8-13.7c0-5.8,1.5-10.4,4.6-13.7
			c3.1-3.3,7.5-5.1,12.1-4.9c5.1,0,9.1,1.6,12.2,4.9s4.5,7.8,4.5,13.8v1.5h-26.8c0.3,4.1,1.4,7.2,3.4,9.2c1.9,2,4.6,3.1,7.4,3
			c2.1,0,4.2-0.6,6-1.7c1.7-1,2.8-2.8,2.8-4.8h6.5c-0.3,3.4-2.2,6.5-5,8.5C820.7,49.1,817.1,50.1,813.4,50z M822.7,28
			c-0.5-3.4-1.7-6-3.5-7.7c-3.7-3.4-9.4-3.4-13.1,0c-1.8,1.7-3,4.3-3.5,7.7L822.7,28z"/>
		<path class="st0" d="M859.1,44.9c-2.4,3.2-6.2,5.1-10.2,5.1c-4.7,0-8.3-1.7-10.8-5c-2.5-3.3-3.8-7.8-3.8-13.4
			c0-5.8,1.4-10.4,4.3-13.8c2.6-3.3,6.6-5.1,10.8-5.1c3.6-0.1,7.1,1.2,9.8,3.5V0h6.3v49.2h-6.3L859.1,44.9z M859.1,38.9V22
			c-2.4-2.7-5.8-4.3-9.4-4.3c-2.6,0-5.1,1.3-6.5,3.5c-1.6,2.3-2.4,5.8-2.4,10.5c0,4.4,0.8,7.7,2.3,10c1.4,2.2,3.8,3.5,6.4,3.4
			C853,45.1,856.2,43,859.1,38.9L859.1,38.9z"/>
		<path class="st3" d="M899.3,17.9c2.4-3.2,6.2-5,10.2-5.1c4.7,0,8.3,1.7,10.8,5c2.5,3.3,3.8,7.8,3.8,13.4c0,5.8-1.4,10.5-4.3,13.8
			c-2.6,3.3-6.6,5.1-10.8,5c-3.6,0.1-7.1-1.2-9.7-3.6v2.8H893V0h6.3L899.3,17.9z M899.3,40.7c2.3,2.7,5.7,4.3,9.3,4.3
			c2.6,0.1,5.1-1.3,6.5-3.5c1.6-2.3,2.4-5.8,2.4-10.5c0-4.4-0.8-7.7-2.3-10c-1.4-2.2-3.8-3.5-6.4-3.4c-3.5,0-6.7,2-9.6,6.1V40.7z"/>
		<path class="st1" d="M933.2,57.8c3.1,0,5.7-2.9,7.7-8.6l-13.5-35.6h6.8l9.4,27.9l9.4-27.9h6.8l-13.5,35.6c-1.3,3.4-2.4,6-3.3,7.9
			c-0.9,1.8-2.1,3.4-3.6,4.7c-1.5,1.3-3.4,1.9-5.4,1.9c-1.4,0-2.8-0.1-4.1-0.5v-5.8C931.2,57.6,932.2,57.8,933.2,57.8z"/>
		<path class="st5" d="M985.9,57.8c3.1,0,5.7-2.9,7.7-8.6l-13.5-35.6h6.8l9.4,27.9l9.4-27.9h6.8l-13.5,35.6c-1.3,3.4-2.4,6-3.3,7.9
			c-0.9,1.8-2.1,3.4-3.6,4.7c-1.5,1.3-3.4,1.9-5.4,1.9c-1.4,0-2.8-0.1-4.1-0.5v-5.8C983.8,57.6,984.8,57.8,985.9,57.8z"/>
		<path class="st4" d="M1032.6,12.8c5.1,0,9.1,1.6,12.2,4.9s4.6,7.8,4.6,13.8c0,5.9-1.5,10.5-4.6,13.8c-3,3.3-7.1,4.9-12.2,4.8
			c-5.1,0-9.1-1.6-12.1-4.9s-4.5-7.8-4.5-13.7c0-5.9,1.5-10.5,4.5-13.8S1027.6,12.8,1032.6,12.8z M1032.6,45.1
			c2.9,0.1,5.6-1.2,7.3-3.4c1.9-2.3,2.8-5.7,2.8-10.2s-0.9-7.9-2.8-10.2c-3.4-4.1-9.4-4.6-13.5-1.2c-0.4,0.4-0.9,0.8-1.2,1.2
			c-1.9,2.3-2.8,5.7-2.8,10.2s0.9,8,2.8,10.2C1027.1,43.9,1029.8,45.2,1032.6,45.1z"/>
		<path class="st2" d="M1079,44.7c-3.2,3.6-6.7,5.3-10.7,5.3c-8,0-12-4.4-12-13.2V13.6h6.3v23c0,2.9,0.5,5,1.5,6.3s2.7,1.9,5.1,1.9
			c3.5,0,6.8-1.9,9.7-5.7V13.6h6.3v35.6h-6.3V44.7z"/>
		<path class="st6" d="M256.5,10.7h33.3c0,25,0.2,76.1,0.2,76.1s1-1.4,1.2-1.5c20-16.4,42.8-15.8,65.9-9.9
			c24.2,6.2,37.2,21.8,38.3,49.7c1.4,35.1,0.9,106.2,0.6,106.7c-9.3,0-19.1-0.2-29.2-0.2v-5.9c0-35.2-0.2-70.3,0-105.5
			c0-7.7-3-13.1-9-17.3c-7.7-5.4-16.2-9.2-25.6-8.2c-8.8,0.8-17.4,2.5-25.8,5.2c-10.6,3.7-15.8,11.9-15.7,23.5
			c0.2,34,0.1,68,0.1,102c0,1.8,0,3.6,0,5.9h-34.4V10.7z"/>
		<path class="st6" d="M690,162.2c-18.3,0-36.7,0.1-55-0.1c-4.7-0.1-6.3,1.3-6.3,6.2c0.3,21.6,17.4,40.1,38.8,41.3
			c7.8,0.4,15.7,0.6,23.5,0.2c13.9-0.6,27.4-11.4,31-24.9c1.2-4.4,3.1-5.4,7.2-5.2c4.7,0.3,9.3,0.3,14,0c4.1-0.2,5.9,1.9,5.2,5.3
			c-1.3,5.8-2.3,12-5.3,16.9c-18.1,29.3-45.2,37.9-77.9,32.7c-13.2-2.1-25.4-6.5-36.2-14.5c-15.1-11.3-24.5-25.9-27.2-44.8
			c-2.4-16.8-3-33.6-0.4-50.3c4.2-26.8,29.4-50.7,56.5-54.1c19.8-2.5,39.4-1.8,57.1,9c17.5,10.7,30.3,24.9,33.4,46.1
			c1.3,9.4,2.8,18.8,3.5,28.2c0.5,7.4-0.6,8-7.8,8L690,162.2z M675.3,138.4c10,0,38,0,41.9-0.9c1.7-0.4,4-2.6,4.2-4.2
			c1.7-18-13.6-37.2-31.7-39.5c-7.1-0.8-14.2-1.1-21.4-0.8c-24.5,0.3-39.4,20.3-39.9,36.4c-0.2,6.9,0.4,8.4,7.5,8.5
			C649,138.3,675.3,138.3,675.3,138.4L675.3,138.4z"/>
		<path class="st6" d="M518,98h-28.8V74.2H518V10.6h28.5v63.6h28.8v23.4h-28.4c-0.1,1.8-0.3,3.1-0.3,4.4c0,32.5,0.1,65,0.2,97.5
			c0,8,1.3,9.2,9.3,9.2h24.8v23h-32c-4.5,0-9,0.1-13.5,0c-11.4-0.3-17.2-6.1-17.3-17.4c-0.1-26.3,0-52.7,0-79L518,98z"/>
		<path class="st6" d="M436.7,68.8h29.4v163.4h-29.4V68.8z"/>
		<path class="st6" d="M436.5,45.6V10.8h28.4v34.8H436.5z"/>
		<polygon class="st6" points="0,75.8 47,231.8 88,231.8 116,110.8 146,231.8 181,231.8 232,75.8 205,75.8 167,197.8 134,75.8 
			100,75.8 69,196.8 34,75.8 		"/>
	</g>
</g>
</svg>
