<svg xmlns="http://www.w3.org/2000/svg" xmlns:xlink="http://www.w3.org/1999/xlink" id="svg16" width="615.861" height="185.338" viewBox="0 0 615.861 185.338">
  <clipPath id="clipPath4">
    <use id="use2" width="100%" height="100%" xlink:href="#SVGID_1_"/>
  </clipPath>
  <g id="layer1">
    <g id="g825" transform="translate(1.93 6.119)">
      <path id="path6" fill="#cd2026" d="M193.8 38.9c9.2 0 16.7-4.4 16.7-9.9s-7.5-9.9-16.7-9.9-16.7 4.4-16.7 9.9 7.5 9.9 16.7 9.9" class="a"/>
      <path id="path8" fill="#cd2026" d="M475.3 38.9c9.2 0 16.7-4.4 16.7-9.9s-7.5-9.9-16.7-9.9-16.7 4.4-16.7 9.9 7.5 9.9 16.7 9.9" class="a"/>
      <path id="rect10" fill="#cd2026" d="M176 56h38v98h-38z" class="a"/>
      <path id="rect12" fill="#cd2026" d="M452 56h40v98h-40z" class="a"/>
      <path id="path14" fill="#cd2026" d="M586 144v-28c0-4-2-16-10-16 0 0 10-4 10-12V68c0-8.7-8-20-18-20H316c-6 0-16 4.8-16 14v10c0 2.3-1.4 5.5-4 6-4.5.8-6-4.3-7-6-1-1.7-10.3-14.7-11-16-.7-1.3-7.7-7.9-16-7.9S142 48 135.8 48C124 48 124 61.4 124 66v72c0 2.2-2 6-6 6s-6-4-6-6V48.1H76V138c0 2-2 6-6 6s-6-4-6-6V66c0-4 0-18-12-18H18v2s10-1.3 10 8v72c0 4 4 24 22 24h88c18 0 22-20 22-24V62c0-9.9 8-10 8-10h52c1.2 0 8 .1 8 10v68c0 4 4 22-8 22v2h42v-46l-31.2-55.9 8-.2L300 154h38V62c0-6 2-9.9 8-9.9s32-.1 40-.1 16 6.7 16 16 .1 26 .1 28-.1 6-5.1 6-5-6-5-6V68c0-4-6-12-12-12h-26v40l-8 4v30l8 4v20h38v-20s0-6 5-6 5.1 6 5.1 6v4c0 6 3.9 16 15.9 16h30v-2s-8 2-8-8V84c0-10.7-6.1-32-22-32 0 0 72 .1 74 .1s10-.1 10 9.9v92h36v-36c0-4.7 0-8 4.8-8 5.2 0 5.2 4 5.2 8v20c0 6 4 16 14 16h32v-2s-8 0-8-8m-38-53c0 2.8-2.2 5-5 5s-5-2.2-5-5V61c0-2.8 2.2-5 5-5s5 2.2 5 5z" class="a"/>
    </g>
  </g>
</svg>
