<?xml version="1.0" encoding="UTF-8"?>
<!-- Generator: Adobe Illustrator 22.1.0, SVG Export Plug-In . SVG Version: 6.00 Build 0)  -->
<svg version="1.1" id="Layer_1" xmlns="http://www.w3.org/2000/svg" xmlns:xlink="http://www.w3.org/1999/xlink" x="0px" y="0px" viewBox="0 0 631 146" style="enable-background:new 0 0 631 146;" xml:space="preserve">
<style type="text/css">
	.st0{fill:#00467F;}
	.st1{fill:#00AC9D;}
	.st2{fill:#FFFFFF;}
	.st3{fill:none;}
</style>
<g>
	<g>
		<g>
			<path class="st0" d="M143.4,29.9l-29.5,69.6c-0.8,1.9-2.6,3.2-4.8,3.2H94.2L81.4,67L65.8,99.8c-0.8,1.8-2.6,3-4.7,3H46.5     L20.7,29.9h23l14.4,46.4l14.6-33.7l-4.6-12.8h20.6l15.7,46.4l17.9-46.4L143.4,29.9L143.4,29.9z"/>
			<path class="st0" d="M201.3,29.9l-1.8,10.4c-0.4,2.4-2.6,4.3-5.1,4.3h-24.7l-2.4,13.6h28.1l-1.8,10.4c-0.4,2.4-2.6,4.3-5.1,4.3     h-23.7l-2.6,15h29.1l-1.8,10.4c-0.4,2.4-2.6,4.3-5.1,4.3H138l12.7-72.8L201.3,29.9L201.3,29.9z"/>
			<path class="st0" d="M260.8,81.1c0,17.2-21.1,22.7-35.4,22.7c-12.6,0-19.5-2.4-27.3-5.8l3-17c3.5,3.7,15,7.8,24.8,7.8     c5.5,0,12-2,12-6.6c0-11.3-31.3-9.8-31.3-31.5c0-12.4,11.6-21.9,31.3-21.9c11.4,0,19.5,2.3,24.3,4.4l-1.7,9.6     c-0.3,2-2.1,3.4-4.1,3.4c-0.5,0-1-0.1-1.5-0.3c-5.7-2.2-11-2.8-15.2-2.8c-2.7,0-10.8,0.5-10.8,5.9     C229,59.7,260.8,58.9,260.8,81.1z"/>
			<path class="st0" d="M333.8,29.9L332,40.3c-0.4,2.4-2.6,4.3-5.1,4.3h-17.3l-9.4,53.7c-0.4,2.4-2.6,4.3-5.1,4.3h-17.3l10.2-58     h-21.6l2.6-14.7C269,29.9,333.8,29.9,333.8,29.9z"/>
			<path class="st0" d="M363.5,29.9l-11.4,65.2c-4.1,23.2-18.2,34.8-33.2,38.9L307,120c10.7-1.5,20.4-7.5,23.5-24.8L341.9,30     L363.5,29.9z"/>
			<path class="st0" d="M425.2,29.9l-1.8,10.4c-0.4,2.4-2.6,4.3-5.1,4.3h-24.7l-2.4,13.6h28.1l-1.8,10.4c-0.4,2.4-2.6,4.3-5.1,4.3     h-23.7l-2.6,15h29.1l-1.8,10.4c-0.4,2.4-2.6,4.3-5.1,4.3h-46.4l12.7-72.8L425.2,29.9L425.2,29.9z"/>
			<path class="st0" d="M495.5,29.9l-1.8,10.4c-0.4,2.4-2.6,4.3-5.1,4.3h-17.3l-9.4,53.7c-0.4,2.4-2.6,4.3-5.1,4.3h-17.3l10.2-58     H428l2.6-14.7C430.6,29.9,495.5,29.9,495.5,29.9z"/>
		</g>
		<g>
			<g>
				<path class="st1" d="M543.3,61.4l-11.5-17.1c0,0-5.2,5.8-6.3,7.1c-1.2,1.3-2.3,2.1-4.2,1.9c-2.4-0.4-13.2-2.6-13.2-2.6      s-0.8,13.2-1,14.5c-0.1,1.3-0.6,3-2.9,5L543.3,61.4z"/>
				<path class="st1" d="M587,51.7L600.6,27c0,0-8.9,3.9-11.9,5.2c-2.9,1.3-4.1,1.1-4.6-1c-0.4-2-2.6-17.1-2.7-18      c-0.8,0.9-15.7,16-17.8,18c-2.2,2.1-3.6,2.3-5.4,1c-1.9-1.3-7.5-5.1-7.5-5.1l-7.1,34.4L587,51.7z"/>
				<path class="st1" d="M612.1,65.2c0.9-1.3,10.8-14.5,10.8-14.5S610.8,53,608,53.3c-2.2,0.3-2.5-0.6-2.6-1.9c-0.1-0.7-0.5-8-0.5-8      L587.3,52l-40.7,48l30.1,4.7c0,0,0.1-4.6,0.2-8c0.2-3.4,2.1-4,3.3-4.7c1.1-0.7,35.5-20.5,35.5-20.5l-3.4-1.9      C610,68.4,611.2,66.5,612.1,65.2"/>
			</g>
			<path class="st0" d="M499,71.2c0,0,14.5,17.1,15.1,17.9c3.4,4.1,3.4,5.7-0.1,10c-2.8,3.4-4.5,5.6-4.5,5.6s20.2-3.4,22.9-3.9     c2.6-0.4,5.2,0.3,4.5,3.8c-0.4,2.4-2.8,15.7-2.8,15.7l12-20.4l21.2-36.1l-63.8,6.9L499,71.2z"/>
			<polygon class="st2" points="587.3,52 546.6,100 546.1,99.9 567.3,63.8 503.6,70.7 504.2,70.2 543.3,61.5 543.7,61.4 587,51.7         "/>
		</g>
	</g>
	<rect x="-42" y="-21" class="st3" width="727.4" height="190.9"/>
</g>
</svg>