<?xml version="1.0" encoding="utf-8"?>
<!-- Generator: Adobe Illustrator 21.0.0, SVG Export Plug-In . SVG Version: 6.00 Build 0)  -->
<svg version="1.1" id="Слой_1" xmlns="http://www.w3.org/2000/svg" xmlns:xlink="http://www.w3.org/1999/xlink" x="0px" y="0px"
	 viewBox="0 0 387.2 81.2" style="enable-background:new 0 0 387.2 81.2;" xml:space="preserve">
<style type="text/css">
	.st0{fill:#FFFFFF;stroke:#D3767C;stroke-linecap:round;stroke-linejoin:round;}
	.st1{fill:#004696;}
	.st2{fill:none;}
	.st3{fill:#BD3039;}
	.st4{fill:#CA333D;}
</style>
<title>swift_air</title>
<g id="Слой_2">
	<g id="Слой_1-2">
		<path class="st0" d="M259.3,60.3l-10.1,0.5c-0.4-2-0.7-3.7-1.2-6.5c-4.3,5.5-9.7,7.1-16,6.8c-5.1-0.3-9.1-1.8-10.9-7
			c-1.9-5.6-0.5-11.8,4.6-14.5c4.7-2.4,9.8-3.9,15-4.6c3.5-0.5,6.9-0.6,10.3-0.8c-0.4-6.5-1.8-8.2-15.9-6.7c-1.1,1.2-1,1-1,1
			c-1.2-0.1-2.3-0.1-3.5,0c-0.1-6.8,1.9-8.9,7.1-9.5c4.8-0.5,9.6-0.5,14.4,0c8.3,0.9,13.1,6.6,12,14.8C263,42.5,261,51.3,259.3,60.3
			z M249.3,41.2c-4.5,0.6-10.8,1.3-12.5,2.2c-2,1-3.1,3.2-2.8,5.4c0.4,2.1,3.2,3.1,5,3.3C244.6,52.5,248.5,48.5,249.3,41.2
			L249.3,41.2z"/>
		<path class="st0" d="M296.5,60.3c2.8-13.9,5.5-27.2,8.2-40.9h12.1l-0.5,7.6c0,0,5.8-5.6,9-7c3.6-1.5,9.5-1.8,9.5-1.8
			s-2.1,9.4-2.5,11.3c-1.9,0-3.7,0-5.5,0c-7.2-0.1-11,3.1-12.5,10.3c-1.1,5.4-2.7,10.7-3.5,16.1c-0.2,1.5-0.5,3-0.8,4.5
			C310,60.4,300,60.3,296.5,60.3z"/>
		<path class="st1" d="M268.6,25.4c0,0,0.3,6.8,1.5,8.4c0.5-4,1.6-10.6,2.3-10.9S269.5,23.6,268.6,25.4z"/>
		<path class="st1" d="M303.6,13.4c4.5-3.7,11.4-5.2,15.2-5.6s34.6-0.8,38.8,0.1s29.9,6.2,29.6,21.8S374,60.4,349.9,67.9
			c0.1-1.1,0.1-2.1-0.1-3.2h-5.2c0,0,25-17.5,24.5-33.9C369,18.9,354.5,12.3,350,11.5s-25.1,0.4-25.1,0.4c-3.1,0.1-6.2,0.7-9.1,1.6
			C311.2,13.4,308.7,14,303.6,13.4z"/>
		<line class="st2" x1="59.8" y1="19.7" x2="46.3" y2="19.7"/>
		<line class="st2" x1="92.7" y1="19.7" x2="75" y2="19.7"/>
		<line class="st2" x1="120.8" y1="19.7" x2="107" y2="19.7"/>
		<path class="st3" d="M14.9,60.4c-4.8-0.1-9.6-0.6-14.3-1.7l1.8-7.3c3.8,0.8,7.6,1.2,11.5,1.3c5.7,0,8.6-1.4,8.7-4.2
			c0.1-3-2.9-4.1-6.4-5.4C11,41.1,5,39,5.7,30.1c0.7-9.5,12.5-10.9,19.5-10.9c4.4,0,8.7,0.5,12.9,1.6l-1.9,7.1
			c-3.7-0.9-7.5-1.4-11.3-1.5c-4.9,0-7.5,1.3-7.7,4c-0.2,3.2,3.4,4.6,7.3,6.2c5.1,2.1,11,4.4,10.3,10.9
			C33.6,58.1,23.3,60.4,14.9,60.4z"/>
		<path class="st4" d="M25.2,19.7c4.1,0,8.3,0.5,12.3,1.4l-1.7,6.1c-3.6-0.8-7.3-1.3-11-1.4c-3.6,0-8,0.8-8.2,4.4s3.6,5.1,7.7,6.7
			c5.2,2.1,10.6,4.3,10,10.4c-0.9,8.3-7.4,12.5-19.4,12.5c-4.6-0.1-9.2-0.6-13.7-1.6L2.7,52c3.7,0.7,7.4,1.1,11.1,1.2
			c6,0,9.1-1.6,9.2-4.7c0.2-3.4-3.2-4.6-6.7-5.9c-5.1-1.9-10.8-4-10.2-12.4C6.8,21.1,18.4,19.8,25.2,19.7 M25.2,18.8
			c-9.2,0-19.4,2.3-20,11.4C4.1,45.4,22.4,41.8,22.1,48.4c-0.1,2.9-4,3.7-8.2,3.7c-4-0.1-8-0.6-11.9-1.4L0,59
			c4.9,1.2,9.9,1.8,14.9,1.9c9.1,0,19.2-2.5,20.4-13.4c1.3-11.9-18.1-10.6-17.6-17.2c0.2-2.7,3.5-3.5,7.2-3.5
			c3.9,0.1,7.8,0.7,11.7,1.6l2.2-8C34.3,19.2,29.8,18.6,25.2,18.8L25.2,18.8z"/>
		<path class="st3" d="M82.1,60.4V29.9c0-0.2-0.2-0.4-0.4-0.5h-0.1c-0.2,0-0.4,0.1-0.4,0.3L65.9,60.4H50.8l-4-40.2h12.5l0.5,29.1
			c0,0.2,0.2,0.4,0.4,0.5h0.1c0.2,0,0.4-0.1,0.5-0.3l14.5-29.3h16.9L92,49.3c0,0.2,0.2,0.4,0.4,0.5h0.1c0.2,0,0.4-0.1,0.4-0.3
			l14.4-29.3H120L98.8,60.4H82.1z"/>
		<path class="st4" d="M119.2,20.7L98.5,59.9H82.6V29.9c0-0.5-0.3-0.9-0.8-1c-0.1,0-0.2,0-0.2,0c-0.4,0-0.7,0.2-0.9,0.6L65.6,59.9
			H51.2l-3.9-39.2h11.4l0.5,28.6c0,0.5,0.3,0.9,0.8,1h0.2c0.4,0,0.7-0.2,0.9-0.5l14.4-29h16.1l-0.2,28.5c0,0.5,0.3,0.9,0.8,1h0.2
			c0.4,0,0.7-0.2,0.9-0.6l14.2-29L119.2,20.7 M120.8,19.7L120.8,19.7z M120.8,19.7H107L92.5,49.3l0.2-29.6H75L60.3,49.3l-0.6-29.6
			H46.3l4.1,41.2h15.9l15.3-30.9v30.9h17.5L120.8,19.7L120.8,19.7z"/>
		<polygon class="st3" points="120.6,60.4 124.3,43 129.1,20.2 141.9,20.2 133.3,60.4 		"/>
		<path class="st4" d="M141.3,20.7l-8.4,39.2h-11.6l3.5-16.8l4.7-22.4L141.3,20.7 M142.5,19.7h-13.8l-4.9,23.2l-3.8,18h13.7
			L142.5,19.7L142.5,19.7z"/>
		<polygon class="st3" points="131,10.4 132.7,2.2 145.4,2.2 143.6,10.4 		"/>
		<path class="st4" d="M144.7,2.7l-1.5,7.2h-11.6l1.5-7.2H144.7 M146,1.7h-13.6l-1.9,9.2H144L146,1.7L146,1.7z"/>
		<polygon class="st3" points="131,10.4 132.7,2.2 145.4,2.2 143.6,10.4 		"/>
		<path class="st4" d="M144.7,2.7l-1.5,7.2h-11.6l1.5-7.2H144.7 M146,1.7h-13.6l-1.9,9.2H144L146,1.7L146,1.7z"/>
		<polygon class="st0" points="293,19.7 284.2,60.9 270.5,60.9 274.3,42.9 279.2,19.7 		"/>
		<polygon class="st0" points="296.5,1.7 294.5,10.9 280.9,10.9 282.9,1.7 		"/>
		<path class="st3" d="M203,60.5c-4.6,0-7.9-0.5-9.7-2.7c-3-3.6-2.7-12.3,0.9-29.8c0-0.3-0.1-0.5-0.4-0.6c0,0-0.1,0-0.1,0
			c-3,0-21.9-0.1-21.9-0.1l0,0c-0.2,0-0.4,0.2-0.5,0.4l-6.5,32.7h-13.6l7.2-32.6c0-0.1,0-0.3-0.1-0.4c-0.1-0.1-0.2-0.2-0.4-0.2h-8.6
			l1.5-7h7.9c0.2,0,0.4-0.1,0.5-0.4c5.7-17.8,8.7-19.4,21.7-19.4h3.9h2.3c-0.6,2.2-0.9,3.4-1.1,4.1c-0.3,1.2-0.3,1.2-0.6,2.2L185,8
			c-0.5,0-1.1-0.1-1.6-0.1c-6.8,0-10.2,3.7-10.9,11.7c0,0.3,0.2,0.5,0.5,0.5c0,0,0,0,0,0h22.8c0.2,0,0.4-0.2,0.5-0.4l1.5-6.5
			c0.4-1.8,1.8-3.3,3.6-3.8l9.4-2.6l-2.2,12.6c0,0.1,0,0.3,0.1,0.4c0.1,0.1,0.2,0.2,0.4,0.2h9.2l-1.4,7.1h-10.1
			c-0.2,0-0.5,0.2-0.5,0.4c-0.4,2-0.7,3.9-1.1,5.6c-1.6,8.5-2.6,13.7-2.5,16.7c0,3.5,6.2,4.1,7.9,4.2c0,0.6,0.1,2.1,0,6.1
			c-1.4,0-2.8,0-4.1,0.1S204.2,60.5,203,60.5z"/>
		<path class="st4" d="M180.8,0v1h3.9h1.6c-0.5,1.8-0.8,2.8-0.9,3.5c-0.3,1.2-0.3,1.2-0.6,2.2l-0.2,0.8c-0.4,0-0.8,0-1.2,0
			c-7.1,0-10.7,3.9-11.4,12.2c0,0.6,0.4,1,0.9,1.1c0,0,0.1,0,0.1,0h22.8c0.5,0,0.9-0.3,1-0.8l1.5-6.5c0.4-1.6,1.6-3,3.3-3.4l8.6-2.4
			l-2.1,11.9c-0.1,0.5,0.3,1.1,0.8,1.2c0.1,0,0.1,0,0.2,0h8.6l-1.2,6.1H207c-0.5,0-0.9,0.3-1,0.8l-1.1,5.6
			c-1.7,8.9-2.6,13.7-2.6,16.8c0.1,3.6,5.6,4.5,8,4.7c0,0.8,0,2.2,0,5.2c-1.3,0-2.4,0-3.6,0.1s-2.5,0-3.6,0c-4.6,0-7.6-0.4-9.3-2.5
			c-2.9-3.5-2.6-12,1-29.4c0.1-0.3,0-0.6-0.2-0.8c-0.2-0.2-0.5-0.4-0.8-0.4c-3,0-21.7-0.1-21.9-0.1l0,0c-0.5,0-0.9,0.3-1,0.8
			l-6.5,32.3h-12.7l7-32c0.1-0.5-0.2-1.1-0.8-1.2c-0.1,0-0.2,0-0.2,0h-7.9l1.3-6h7.5c0.5,0,0.9-0.3,1-0.7c5.8-18.2,9.2-19,21.2-19
			L180.8,0 M180.8,0c-13,0-16.4,1.5-22.2,19.7h-8.3l-1.7,8h9.2l-7.3,33.2h14.7l6.6-33.1c0,0,18.9,0.1,21.9,0.1
			C187.5,58.3,191.5,61,203,61c2.4,0,5.2-0.1,8.2-0.1c0.1-6.7-0.1-7.1-0.1-7.1s-7.8-0.2-7.9-3.7s1.4-10.1,3.6-22.2h10.5l1.5-8.1
			h-9.8l2.4-13.4l-10.2,2.8c-2,0.5-3.5,2.1-4,4.1l-1.5,6.5H173c0.8-8.7,4.8-11.3,10.4-11.3c0.6,0,1.3,0,1.9,0.1
			c1.2-3.9,0.3-0.6,2.4-8.5C185.1,0.1,182.9,0.1,180.8,0L180.8,0z M219,19.7L219,19.7z"/>
		<path class="st1" d="M233.8,68c-0.4-2.1,12.5-4,17-3.1c-2.2,26.4,44.3,1.6,44.3,1.6H311c0,0-24.1,14.3-39.1,14.3s-13.7,0.7-19.3,0
			S235.2,75.4,233.8,68z"/>
		<path class="st1" d="M315.8,63.6c6.7-1.4,23.2-13.8,26.2-23.5c-2.5,0.9-5.1,1.5-7.8,1.8l-1.2-3.5c0,0-12.8,10.8-13.8,12.2
			S315.7,58.9,315.8,63.6z"/>
		<path class="st2" d="M249.4,41.3c0,5.5-3.6,10.3-7.7,11c-3.1,0.6-7.9,0.3-8.8-4C231.2,39.6,249.4,41.3,249.4,41.3z"/>
	</g>
</g>
</svg>
