<?xml version="1.0" encoding="utf-8"?>
<!-- Generator: Adobe Illustrator 15.0.0, SVG Export Plug-In . SVG Version: 6.00 Build 0)  -->
<!DOCTYPE svg PUBLIC "-//W3C//DTD SVG 1.1//EN" "http://www.w3.org/Graphics/SVG/1.1/DTD/svg11.dtd">
<svg version="1.1" id="Layer_1" xmlns="http://www.w3.org/2000/svg" xmlns:xlink="http://www.w3.org/1999/xlink" x="0px" y="0px"
	 width="182.5px" height="41.5px" viewBox="0 0 182.5 41.5" enable-background="new 0 0 182.5 41.5" xml:space="preserve">
<g>
	<g>
		<path fill="#002157" d="M15.205,27.469c3.595,0,6.259-0.93,8.627-2.199v3.806c-2.581,1.142-5.329,1.944-9.008,1.944
			c-7.188,0-12.982-3.637-12.982-9.387c0-5.625,5.835-9.263,12.982-9.263c3.638,0,6.427,0.678,8.838,1.565v3.89
			c-2.112-1.057-4.862-1.902-8.416-1.902c-4.397,0-8.119,2.072-8.119,5.752C7.127,25.101,10.85,27.469,15.205,27.469"/>
		<rect x="28.652" y="12.709" fill="#002157" width="4.737" height="17.973"/>
		<polygon fill="#002157" points="50.896,16.009 50.896,30.683 46.161,30.683 46.161,16.009 37.153,16.009 37.153,12.71 
			59.904,12.71 59.904,16.009 		"/>
		<polygon fill="#002157" points="80.794,12.709 85.616,12.709 75.762,23.662 75.762,30.684 71.025,30.684 71.025,24.128 
			61.215,12.709 67.388,12.709 73.859,20.45 		"/>
		<path fill="#847369" d="M95.933,12.709h4.738v9.77c0,5.793-3.638,8.541-11.292,8.541c-3.004,0-6.302-0.507-8.374-1.351V26.2
			c1.988,0.761,5.287,1.353,8.374,1.353c4.524,0,6.554-1.944,6.554-5.073V12.709"/>
		<polygon fill="#847369" points="110.691,16.009 110.691,19.898 123.084,19.898 123.084,23.199 110.691,23.199 110.691,27.383 
			123.251,27.383 123.251,30.683 105.955,30.683 105.955,12.71 123.295,12.71 123.295,16.009 		"/>
	</g>
	<g>
		<polygon fill="#847369" points="139.448,16.009 139.448,30.683 134.713,30.683 134.713,16.009 125.705,16.009 125.705,12.71 
			148.455,12.71 148.455,16.009 		"/>
		<path fill="#ED1C24" d="M168.587,27.214c-1.736,2.243-4.144,3.469-7.486,3.469h-10.743v-0.678
			c2.875-0.168,5.244-1.733,6.766-3.679l10.658-13.616h12.179L168.587,27.214"/>
	</g>
</g>
</svg>
