<?xml version="1.0" encoding="UTF-8"?>
<svg width="50px" height="23px" viewBox="0 0 50 23" version="1.1" xmlns="http://www.w3.org/2000/svg" xmlns:xlink="http://www.w3.org/1999/xlink">
    <!-- Generator: Sketch 49.1 (51147) - http://www.bohemiancoding.com/sketch -->
    <title>Red_Wings_Airlines_s</title>
    <desc>Created with Sketch.</desc>
    <defs>
        <polygon id="path-1" points="0.00212971367 0.00883717675 36.4246393 0.00883717675 36.4246393 5.52819169 0.00212971367 5.52819169 0.00212971367 0.00883717675"></polygon>
    </defs>
    <g id="AVIA" stroke="none" stroke-width="1" fill="none" fill-rule="evenodd">
        <g id="Red_Wings_Airlines_s">
            <g id="Group-3" transform="translate(5.745573, 0.007244)">
                <mask id="mask-2" fill="white">
                    <use xlink:href="#path-1"></use>
                </mask>
                <g id="Clip-2"></g>
                <path d="M5.0320576,5.52819169 C3.35459112,4.34368807 1.68579114,3.16531735 0.00212971367,1.97645148 C0.0457190303,1.94385534 0.0723123653,1.92008027 0.102356254,1.90208398 C0.607196292,1.59970445 1.10726975,1.28880967 1.61902695,0.998663751 C2.21446407,0.661096476 2.85970151,0.45199825 3.52691015,0.309235189 C4.34995541,0.133135529 5.18399429,0.0458261539 6.02358616,0.0153869895 C6.39205712,0.00202659481 6.76165151,0.011861777 7.13053975,0.0202643385 C7.8843653,0.0374557861 8.63841554,0.0523614795 9.39171147,0.083943521 C10.1554233,0.115960178 10.9179795,0.177562865 11.6741322,0.290965252 C12.5721909,0.425663786 13.4675212,0.578744935 14.3637022,0.725870245 C15.5403248,0.919048676 16.7049909,1.17463464 17.8589362,1.46978668 C18.9999139,1.76162277 20.1550308,1.97012542 21.3128279,2.17291367 C22.0127445,2.29549127 22.710302,2.43186388 23.4080841,2.56646583 C23.9440434,2.66985597 24.4845284,2.73889541 25.0279986,2.78084383 C25.8219308,2.84214067 26.6162322,2.8999445 27.4110952,2.94699563 C28.0352923,2.98395402 28.6606128,3.02277965 29.2854358,3.02239332 C29.7598789,3.02211968 30.2354294,2.97270231 30.7083799,2.92421857 C31.1224623,2.88178724 31.5354535,2.82103769 31.9455076,2.74882717 C32.515202,2.64851153 33.0711905,2.4989395 33.5958832,2.24346621 C34.2868606,1.90704182 34.9009146,1.46925549 35.417952,0.897462785 C35.4825977,0.825960528 35.5454459,0.751818385 35.6172014,0.688074815 C35.6928086,0.62087042 35.7723639,0.554245512 35.8602327,0.505584701 C36.1246093,0.359135459 36.3659073,0.487105504 36.4107003,0.7891792 C36.4664548,1.16526626 36.3496335,1.50066046 36.1551667,1.81033188 C35.867535,2.26833586 35.5067997,2.66130853 35.0675844,2.97936641 C34.6092225,3.31128369 34.1121342,3.57177919 33.5806526,3.76030563 C33.1226117,3.92278735 32.6625968,4.08666949 32.1923265,4.20552871 C31.7272079,4.32308409 31.2505501,4.40335913 30.7745342,4.46633006 C30.2612363,4.53424271 29.7436372,4.58346691 29.2264394,4.60423186 C28.4623264,4.63489639 27.6975875,4.60949554 26.9340201,4.55671393 C26.4594166,4.52392462 25.9839463,4.50414158 25.5090057,4.4758594 C24.8206605,4.43487679 24.1307424,4.40986227 23.4445958,4.34500801 C22.2851617,4.23540449 21.1281831,4.10316877 19.9776402,3.91436869 C18.8704941,3.73269951 17.7577628,3.5855742 16.6492204,3.41230759 C15.8716582,3.29076019 15.0893134,3.23466263 14.3050909,3.18220296 C13.6263109,3.13680981 12.9479321,3.13162662 12.2692002,3.14015796 C11.6438155,3.14801323 11.0214319,3.20699213 10.3992891,3.27606376 C9.79717558,3.34289792 9.20741982,3.46016356 8.62093809,3.60799713 C7.84819066,3.80280134 7.12174485,4.10769199 6.4257281,4.49181139 C5.99708912,4.72837086 5.6121839,5.0255994 5.24175495,5.34327095 C5.17327351,5.4019923 5.10636487,5.46256479 5.0320576,5.52819169" id="Fill-1" fill="#9E0102" mask="url(#mask-2)"></path>
            </g>
            <path d="M16.9662925,9.90548196 C15.6437355,8.97157427 14.3325734,8.04573111 13.0138842,7.11454379 C13.035406,7.07797173 13.0480206,7.04186647 13.072335,7.01746362 C13.3179181,6.77095629 13.5590716,6.51939455 13.815215,6.28431599 C13.9319721,6.17714309 14.0730596,6.09157217 14.2139706,6.01683445 C14.752594,5.73117955 15.3258513,5.53455639 15.9296821,5.46558134 C16.4491589,5.40623221 16.9744615,5.39222795 17.4977259,5.37353949 C18.2627376,5.34623921 19.0257914,5.40826042 19.7889254,5.45016055 C20.2904273,5.47768618 20.7917686,5.51205298 21.292131,5.55562718 C21.7337537,5.59409868 22.1743652,5.64567302 22.6145917,5.69847073 C23.1714949,5.7652727 23.7274995,5.83981727 24.2840176,5.90982251 C24.9466201,5.99318816 25.6106671,6.06610694 26.2717289,6.160177 C27.1813108,6.28961186 28.087683,6.44177548 28.997313,6.57085621 C29.8118844,6.68644777 30.6282532,6.78048564 31.4516837,6.8247842 C32.3014667,6.87049928 33.1507522,6.87587563 34.0007278,6.88432649 C34.4997902,6.88928432 34.9919033,6.81543192 35.486167,6.76641698 C35.7890935,6.73638024 36.0934484,6.7083395 36.3923786,6.65333653 C37.0228188,6.53737474 37.6517664,6.4124792 38.2430468,6.14720293 C38.388259,6.08204283 38.546519,6.0458088 38.6994668,5.99848403 C38.7348229,5.98757035 38.772763,5.98304714 38.8098684,5.98034286 C38.8713043,5.97585184 38.939208,5.98327249 38.9550966,6.05047689 C38.965673,6.09516177 38.9531707,6.15943654 38.9259515,6.19636274 C38.8498788,6.29949533 38.7643051,6.39633404 38.6762277,6.48971194 C38.1401722,7.0581082 37.4864448,7.4550085 36.7651026,7.72532309 C36.3527053,7.87986906 35.9111789,7.95980607 35.4792178,8.05751401 C34.8290051,8.20460713 34.1656001,8.21544032 33.5026284,8.2283822 C32.8986692,8.2401651 32.295015,8.26907506 31.6910397,8.27644742 C31.3064073,8.28113161 30.9212293,8.26601666 30.5367413,8.24959786 C29.9495534,8.22450285 29.3629594,8.18554845 28.7757394,8.16190216 C28.2415455,8.14038066 27.706148,8.14411513 27.1726122,8.11357938 C26.5431992,8.07753851 25.9157762,8.0068089 25.2864113,7.96949638 C24.7423152,7.93723827 24.1967747,7.91945124 23.6517317,7.91574896 C23.031258,7.91151548 22.4131756,7.96709795 21.7973401,8.04309123 C21.4103164,8.09085061 21.0224582,8.13316926 20.6367505,8.19008776 C20.011109,8.28240326 19.4003771,8.43820478 18.8116966,8.67122294 C18.4517317,8.81372845 18.1263204,9.02163551 17.816557,9.25219085 C17.5633024,9.44070119 17.3165157,9.63796823 17.0667116,9.83114666 C17.0373097,9.85389152 17.006993,9.87541302 16.9662925,9.90548196" id="Fill-4" fill="#9E0102"></path>
            <path d="M23.2994992,14.37879 C21.9752892,13.4436107 20.665427,12.5185723 19.3460798,11.5868216 C19.4692245,11.4015629 19.6115638,11.2572545 19.751239,11.1111272 C20.0598148,10.7882564 20.4295215,10.5618057 20.841325,10.3922736 C21.5343887,10.1069406 22.2527297,9.94078882 22.9970061,9.86244539 C23.635872,9.79519271 24.2747861,9.73742107 24.9168298,9.75234286 C25.3653696,9.76275753 25.8132033,9.80325723 26.261374,9.82992973 C26.6509977,9.85312531 27.0412633,9.86835294 27.4301166,9.90051447 C27.9092621,9.94012884 28.3872038,9.9941982 28.8657555,10.0409918 C29.270064,10.0804935 29.673859,10.1281402 30.0790182,10.1547322 C30.5964728,10.1887127 31.1149385,10.2191357 31.6332598,10.224834 C32.0547088,10.229486 32.4775861,10.2081577 32.8979598,10.1747728 C33.2648259,10.1456375 33.6290599,10.0834231 33.9945136,10.036211 C34.0763158,10.0256193 34.1572032,10.0207902 34.20519,10.1088079 C34.2452485,10.1823222 34.2304833,10.258895 34.1504305,10.3405544 C33.9974346,10.4966456 33.8090664,10.5964945 33.605548,10.6691557 C32.9956025,10.8869301 32.3728017,11.0551423 31.7377714,11.1843518 C30.9299568,11.3487008 30.1127694,11.4403724 29.2964969,11.5453883 C28.4489126,11.6544124 27.6009591,11.768861 26.7661017,11.958144 C26.2124564,12.0836513 25.6794984,12.2732723 25.154597,12.4896141 C24.6501742,12.6975051 24.2533766,13.0394024 23.9124138,13.4542346 C23.7117681,13.6983596 23.5190828,13.9492292 23.382794,14.2379586 C23.3625079,14.2809533 23.3344381,14.3202457 23.2994992,14.37879" id="Fill-6" fill="#2F3033"></path>
            <path d="M26.4345565,20.5459949 C26.8959196,19.1268312 27.3572826,17.7076515 27.8190951,16.2871035 L28.6186445,16.2871035 C27.8895185,18.325449 27.1655763,20.3493234 26.439933,22.3778982 L25.6840692,22.3778982 C25.2100594,20.9019287 24.7354238,19.4240437 24.2607881,17.9461426 C24.2498105,17.9445007 24.238849,17.9428427 24.2278875,17.9412008 C24.0302109,18.4259095 23.85794,18.9207431 23.6727496,19.4103935 C23.4871419,19.9011546 23.3046478,20.393123 23.1219129,20.8849948 C22.9373966,21.3816634 22.7542765,21.8788633 22.569054,22.3798942 L21.7894215,22.3798942 C21.1880783,20.3538306 20.5851463,18.322455 19.9784266,16.2782663 L21.2179136,16.2782663 C21.6484784,17.7216074 22.0780162,19.16152 22.5075539,20.6014325 C22.5194944,20.6028329 22.5314189,20.6042333 22.5433434,20.6056338 C23.0937147,19.1680553 23.651308,17.7333099 24.1944893,16.2807935 L25.0197815,16.2807935 C25.4784162,17.6975587 25.9381904,19.1178009 26.3979646,20.5380591 C26.4101459,20.540699 26.4223432,20.543355 26.4345565,20.5459949 Z M33.295791,17.9858857 L33.295791,22.380699 L32.6235751,22.380699 L32.6235751,16.2901458 C32.6642755,16.2856709 32.7049118,16.2775419 32.7455802,16.2773327 C32.954122,16.2763508 33.1627922,16.2815823 33.3711736,16.2757552 C33.459925,16.2732763 33.5181832,16.3025404 33.5759438,16.3696482 C34.2153555,17.1124378 34.8577843,17.8526198 35.4994589,18.5934456 C36.0744976,19.2573607 36.6495524,19.9212757 37.2247998,20.5850137 C37.2526449,20.617143 37.2825765,20.6474695 37.3163437,20.683784 C37.371039,20.6326282 37.3501913,20.571106 37.3502715,20.5178576 C37.3516838,19.4987975 37.3513147,18.4797535 37.3513308,17.4606934 C37.3513308,17.1281484 37.3513468,16.7956194 37.3513468,16.4630744 C37.3513629,16.4058983 37.3513468,16.3487062 37.3513468,16.286524 L38.0317317,16.286524 L38.0317317,22.3800712 C38.0026829,22.3848681 37.9777105,22.3924497 37.9526739,22.3925624 C37.71205,22.3935926 37.4713779,22.3915805 37.2307861,22.3946228 C37.1607158,22.395492 37.1148796,22.3715399 37.0680002,22.3173418 C35.9363792,21.008844 34.8024952,19.7023262 33.6690125,18.3954542 C33.5742747,18.2862209 33.4798259,18.1767301 33.3843178,18.068189 C33.3648984,18.0461363 33.341242,18.0278341 33.295791,17.9858857 Z M45.0660396,21.900095 C44.688533,22.1045091 44.2913021,22.2208411 43.8768505,22.2898483 C43.4369771,22.3630891 42.9927063,22.3784294 42.5501207,22.3723608 C42.1938791,22.3674674 41.833834,22.3499701 41.4839157,22.2615983 C40.5979581,22.0378681 39.8893428,21.5724273 39.4525188,20.7456282 C39.3061993,20.4686978 39.216517,20.1677669 39.1833756,19.8576609 C39.0857972,18.9447918 39.3292618,18.126685 39.897271,17.4068333 C40.0625285,17.1974293 40.279464,17.0476802 40.5026586,16.9097301 C41.0425819,16.5760743 41.6238156,16.3610525 42.2602903,16.3050998 C42.8805232,16.2505797 43.4989266,16.2631192 44.1154041,16.3465009 C44.4021049,16.3852782 44.6725481,16.4823423 44.9518824,16.6042438 C44.8800949,16.825125 44.8114208,17.0364285 44.7374666,17.2639093 C44.6919996,17.2232808 44.6570768,17.1929865 44.623149,17.1615976 C44.3788498,16.9355655 44.1029821,16.7692045 43.7716808,16.7071028 C43.4128393,16.6398501 43.0535484,16.6180227 42.6873243,16.6458542 C42.2793084,16.6768568 41.9386666,16.8406101 41.62916,17.0955683 C41.3044067,17.3630982 41.0563681,17.6880294 40.8930045,18.0748531 C40.679038,18.5814857 40.5107152,19.101704 40.5483664,19.6617138 C40.5637093,19.8900317 40.5934162,20.1219714 40.6544829,20.3416935 C40.7952816,20.8482939 41.1301939,21.2133547 41.5748178,21.4712264 C42.2567113,21.8667262 42.9861423,21.9347999 43.7443974,21.7425873 C43.769787,21.7361485 43.7932026,21.7218706 43.8313834,21.7051942 L43.8313834,19.8242599 C44.2490127,19.821942 44.6517966,19.8228273 45.0660396,19.823777 L45.0660396,21.900095 Z M30.8017262,22.386019 L29.5782562,22.386019 L29.5782562,16.3033372 C29.6887221,16.2704674 30.5136772,16.2591674 30.8017262,16.2882705 L30.8017262,22.386019 Z M49.3877582,17.2875588 C49.319341,17.1898348 49.2695727,17.115258 49.2162416,17.0433372 C49.1246174,16.9197294 49.0068974,16.8286212 48.8614124,16.7782863 C48.5260026,16.6621958 48.1899347,16.6067582 47.8449115,16.7495373 C47.2547866,16.9937428 47.1852138,17.5977292 47.3895026,17.9902673 C47.4393511,18.0860436 47.5222767,18.1763148 47.6116541,18.2369517 C47.7701548,18.3444787 47.9422813,18.43343 48.1140707,18.5193389 C48.4726714,18.6987384 48.8447535,18.8533971 49.1931149,19.0505514 C49.7078251,19.3418724 49.9969334,19.791506 50.0218576,20.394591 C50.056989,21.2455838 49.6318648,21.8119518 48.9122238,22.1970049 C48.6515546,22.3364842 48.36824,22.3907789 48.0803676,22.415391 C47.6349734,22.453444 47.192484,22.4204132 46.7632352,22.2886926 C46.586599,22.2344784 46.418244,22.1530926 46.2350277,22.0796266 C46.3323493,21.7246264 46.423797,21.3910511 46.5184866,21.045693 C46.6367363,21.2068547 46.7396912,21.3551712 46.8507509,21.4970972 C47.2282895,21.9794558 48.0315142,22.0517468 48.5072091,21.7867764 C49.1011697,21.4559054 49.105182,20.5066574 48.5423084,20.2025555 C48.2176836,20.0271319 47.8904909,19.8564891 47.5642611,19.6840756 C47.4129022,19.6040742 47.260821,19.5255215 47.1095745,19.4453752 C46.4497644,19.0956548 46.1675894,18.3869261 46.3307284,17.6712758 C46.4022592,17.3574836 46.5245371,17.0691244 46.750412,16.8342068 C47.0108405,16.563361 47.3323037,16.4057567 47.6954142,16.3214091 C48.3698931,16.1647545 49.0106849,16.2764184 49.6324747,16.5536868 C49.6413177,16.5576305 49.6470151,16.5686247 49.6709764,16.5943797 C49.5833003,16.8089669 49.4910822,17.0346449 49.3877582,17.2875588 Z" id="Combined-Shape" fill="#9E0102"></path>
            <path d="M11.4366073,21.9263941 C11.4777572,21.9361971 11.4979469,21.9432636 11.5186663,21.9455976 C11.9571113,21.9951921 12.3931168,21.9880934 12.8236656,21.8814517 C13.4940841,21.7154125 13.9816071,21.3319209 14.2494182,20.681479 C14.3730604,20.3812081 14.4417505,20.0691705 14.48083,19.7489556 C14.5423622,19.2447053 14.5427313,18.7438354 14.3941007,18.2516256 C14.1473621,17.4345006 13.6096214,16.9353691 12.7768504,16.7525571 C12.3701345,16.6632839 11.9605137,16.6692075 11.5493682,16.6959766 C11.5134343,16.6983268 11.4782547,16.7123149 11.4366073,16.7223755 L11.4366073,21.9263941 Z M10.2036363,16.2864081 C10.2242113,16.2823517 10.2346592,16.278424 10.2450751,16.2785045 C11.2237965,16.2872129 12.2027104,16.2866495 13.1811108,16.3091691 C13.688599,16.3208554 14.1772455,16.4388293 14.6173114,16.7100131 C15.1024913,17.0090284 15.4253508,17.4404565 15.6044104,17.9763853 C15.9305279,18.952338 15.8517429,19.9058517 15.3701098,20.8094973 C15.0109794,21.4833441 14.4588427,21.9667006 13.7533249,22.2639775 C13.5446868,22.3518824 13.3226156,22.3923338 13.096163,22.3927845 C12.1654124,22.3946035 11.2346617,22.3935572 10.303911,22.3932031 C10.2723264,22.393187 10.2407418,22.3890662 10.2107461,22.3869736 C10.1770269,22.2663598 10.1698851,16.4732926 10.2036363,16.2864081 Z" id="Fill-10" fill="#9E0102"></path>
            <path d="M1.2371855,16.5831328 L1.2371855,19.1362076 C1.27445147,19.1478135 1.30411018,19.1629606 1.33489233,19.1656971 C1.57108672,19.1868645 1.80541942,19.172168 2.03246584,19.1019535 C2.2779045,19.026089 2.47312558,18.8774989 2.58384822,18.6427262 C2.81111933,18.1607379 2.88029089,17.6563427 2.70784346,17.1451386 C2.59562825,16.812497 2.33919596,16.6254997 1.98656545,16.5951089 C1.77938781,16.5772574 1.57057315,16.5779013 1.36244861,16.5719133 C1.32624187,16.5708509 1.2897944,16.5781428 1.2371855,16.5831328 M4.44987541,22.3857615 L4.11350263,22.3857615 C3.76589548,22.3857293 3.41824019,22.3837172 3.07066514,22.3872102 C2.99196042,22.387999 2.94376502,22.3654472 2.9063867,22.2924963 C2.70612621,21.9016484 2.50414846,21.5116053 2.29730785,21.1242183 C2.04249652,20.647059 1.78057544,20.1737308 1.52558756,19.6966521 C1.45402469,19.5627745 1.34742667,19.6217695 1.23338186,19.6217856 L1.23338186,22.3553223 C1.10786196,22.3918783 0.20466757,22.4000877 9.6294514e-06,22.3687954 L9.6294514e-06,16.287353 C0.0597122281,16.2844555 0.11163102,16.2799967 0.163549812,16.279707 C0.938961386,16.2756667 1.71437296,16.2725117 2.48976848,16.2683587 C2.73114673,16.2670709 2.97022996,16.2836829 3.20544536,16.3428228 C3.71903215,16.471984 4.03747811,16.8352257 4.08605869,17.3976018 C4.12033954,17.7944538 4.06992936,18.1783478 3.86523932,18.5312393 C3.65600739,18.8920183 3.35189327,19.1278856 2.95308954,19.2428333 C2.92232344,19.2517026 2.89102772,19.2587852 2.86018138,19.2674293 C2.69718687,19.3131122 2.67158858,19.3733466 2.75915239,19.5216631 C3.2793193,20.4027248 3.80060965,21.2831104 4.32137038,22.1638019 C4.35902154,22.227465 4.39551716,22.2918202 4.44987541,22.3857615 Z M8.85119271,18.7660185 L8.85119271,19.4099573 C8.69030063,19.4009914 8.54245645,19.3925727 8.39459623,19.3845726 C7.91434339,19.3585761 7.43415474,19.3315656 6.95380561,19.3076296 C6.83111035,19.3015449 6.78787411,19.3426402 6.78593218,19.4664734 C6.78248162,19.6863243 6.78477664,19.9062718 6.78476059,20.126171 C6.78472849,20.5928191 6.78427912,21.0594671 6.78535441,21.5260829 C6.78549885,21.584595 6.78646179,21.6448455 6.79994303,21.7011845 C6.82862274,21.8209935 6.87887243,21.863135 7.00039611,21.8725034 C7.07475152,21.8782339 7.15008593,21.8762379 7.22473023,21.8726483 C7.75816974,21.8471187 8.294145,21.8457504 8.81617361,21.7084603 C8.83050544,21.7046936 8.84629774,21.7064965 8.86072587,21.7057238 C8.89723754,21.8388449 8.89704495,22.2397694 8.85968268,22.3774619 L5.56727695,22.3774619 L5.56727695,16.2841883 L8.872538,16.2841883 L8.872538,16.8109098 C8.71585077,16.7871991 8.55977342,16.7608325 8.40290965,16.7403895 C7.9457675,16.6808311 7.48644267,16.6698691 7.02641167,16.6881552 C6.83892626,16.695608 6.78662229,16.7483252 6.78580378,16.9336967 C6.78326803,17.5022217 6.78352481,18.070795 6.78583588,18.6393201 C6.78652599,18.807484 6.80934779,18.8305991 6.97044851,18.8244984 C7.41914885,18.8075162 7.8675924,18.783725 8.31630879,18.7670809 C8.49145246,18.7605777 8.66704551,18.7660185 8.85119271,18.7660185 Z" id="Combined-Shape" fill="#9E0102"></path>
            <g id="Group-22" transform="translate(46.090449, 15.714561)"></g>
            <path d="M44.0972028,13.0255382 C44.2430569,13.0255382 44.3759594,13.0277112 44.5087495,13.0246689 C44.582463,13.0229949 44.6083983,13.0788349 44.6423421,13.124727 C44.8844426,13.4519923 45.1253554,13.7801268 45.3671509,14.1076175 C45.3976281,14.148922 45.4309942,14.1881018 45.4923498,14.2203921 L45.4923498,13.0345846 L45.8342595,13.0345846 L45.8342595,14.8877196 C45.7062841,14.8877196 45.579384,14.8962671 45.4548271,14.8828745 C45.4137414,14.8784478 45.3722385,14.8222376 45.3419378,14.7814804 C45.0894215,14.4419493 44.8395854,14.1004061 44.588674,13.7596838 C44.5571856,13.7169305 44.5241566,13.6753202 44.4788822,13.616293 C44.4303337,13.7662513 44.4600566,13.9030746 44.4547122,14.0364693 C44.4491593,14.1756911 44.4534765,14.3152992 44.4534765,14.4547463 L44.4534765,14.8797356 L44.0972028,14.8797356 L44.0972028,13.0255382 Z M49.9426586,13.4211056 C49.8635366,13.4437217 49.7826652,13.4668529 49.6991137,13.4907246 C49.6745907,13.4524301 49.6572256,13.4197213 49.6347087,13.3911011 C49.548477,13.2815459 49.3745691,13.2517667 49.2576033,13.3248464 C49.1315057,13.4036406 49.1255996,13.575877 49.2499319,13.6603211 C49.2932805,13.6897462 49.3454239,13.7079034 49.3956576,13.7249178 C49.4866559,13.7557433 49.579869,13.7798725 49.6709957,13.8102956 C49.88753,13.8825866 50.0016229,14.0358448 50.0186831,14.2627461 C50.0374926,14.5128431 49.9634742,14.7198648 49.7332501,14.8451467 C49.4345124,15.007725 48.8820868,14.9294781 48.7785381,14.4344996 C48.8607095,14.4100324 48.9444857,14.3850823 49.0339112,14.358442 C49.0522713,14.385533 49.0688019,14.4053643 49.0803572,14.4277872 C49.1711148,14.6037098 49.3667853,14.6777715 49.5542386,14.6069614 C49.648222,14.5714678 49.7042173,14.5071126 49.7096419,14.4042536 C49.7154356,14.2952779 49.6718944,14.2221659 49.5635792,14.1812477 C49.4438209,14.1359994 49.3213824,14.0973509 49.1987353,14.0604086 C48.9196738,13.976383 48.8409851,13.7296342 48.8636785,13.4746277 C48.8854732,13.2295047 49.0478578,13.0529543 49.2964903,13.0044706 C49.5426993,12.9564858 49.814314,13.0746046 49.9161776,13.2751715 C49.9306057,13.3035825 49.9416956,13.3342631 49.9499448,13.3650886 C49.9536361,13.3788675 49.946414,13.395576 49.9426586,13.4211056 Z M47.9573995,13.04239 L47.9573995,13.3078111 C47.7225532,13.3404555 47.4833737,13.3029499 47.2403424,13.3307169 L47.2403424,13.7897994 L47.8015308,13.7897994 L47.8015308,14.0846456 L47.2462645,14.0846456 C47.2169268,14.2506365 47.2381597,14.402784 47.2292525,14.5782237 L47.9607217,14.5782237 L47.9607217,14.8796535 L46.9421504,14.8796535 C46.9421504,14.2665563 46.9421504,13.6584812 46.9421183,13.0503901 C47.0538039,13.0191622 47.7474775,13.0119025 47.9573995,13.04239 Z M40.4387158,13.0317789 L40.7721035,13.0317789 C40.8074436,13.2049007 40.7851032,13.3750767 40.7890513,13.5436108 C40.7929352,13.7093602 40.7899019,13.8752705 40.7899019,14.0411326 L40.7899019,14.5647957 L41.2648265,14.5647957 L41.2648265,14.8802298 L40.4507045,14.8802298 C40.4161829,14.7737168 40.4042905,13.2836626 40.4387158,13.0317789 Z M42.9071246,14.8832946 L42.5888873,14.8832946 C42.556115,14.7613931 42.5451214,13.2900434 42.5749406,13.0379022 L42.9071246,13.0379022 L42.9071246,14.8832946 Z M36.8101813,14.8837662 L36.488044,14.8837662 L36.488044,13.0343013 C36.5244754,13.030921 36.5550971,13.0260919 36.585815,13.0255768 C36.6595285,13.0243695 36.7332901,13.0251905 36.803553,13.0251905 C36.8383635,13.1586656 36.8430498,14.7092119 36.8101813,14.8837662 Z" id="Combined-Shape" fill="#2F3033"></path>
            <path d="M34.756635,14.1504786 C34.671655,13.900607 34.5920997,13.6666713 34.5125444,13.4327356 C34.503589,13.4329127 34.4946497,13.4330898 34.4856943,13.4332346 C34.4063476,13.6677498 34.3270009,13.9022489 34.2430161,14.1504786 L34.756635,14.1504786 Z M34.1462561,14.4555785 C34.1170949,14.5369159 34.0917695,14.6070821 34.0667811,14.677361 C34.0434938,14.7428431 34.0205597,14.8084378 33.9949453,14.8811473 L33.6772858,14.8811473 C33.892151,14.2572169 34.1025545,13.6462766 34.313953,13.0324389 L34.7626534,13.0324389 C34.9755605,13.6447635 35.1876652,14.2548023 35.4053871,14.8810024 L35.0145277,14.8810024 C34.964936,14.7445171 34.9126642,14.6007078 34.8599108,14.4555785 L34.1462561,14.4555785 Z" id="Fill-27" fill="#2F3033"></path>
            <path d="M38.3899024,13.3132068 L38.3899024,13.8378196 C38.527106,13.8378196 38.6546481,13.847204 38.7802001,13.8353568 C38.9259579,13.82161 39.005128,13.7176404 39.0029935,13.5707566 C39.0009071,13.427076 38.9140334,13.3254404 38.768404,13.3149935 C38.6468162,13.3062851 38.5241209,13.3132068 38.3899024,13.3132068 M39.042715,14.0847293 C39.1289628,14.3490881 39.2131402,14.6070886 39.3019719,14.8793831 L38.9919196,14.8793831 C38.9135359,14.6372702 38.8334831,14.3900063 38.75335,14.142501 L38.3808186,14.142501 L38.3808186,14.8789163 L38.0916622,14.8789163 L38.0916622,13.0408479 C38.121995,13.0356325 38.1519747,13.0261836 38.1820186,13.0259905 C38.3849111,13.0246383 38.587916,13.0222077 38.7907604,13.0259583 C39.1045361,13.0317693 39.2874315,13.2095108 39.3067867,13.5210655 C39.3225308,13.7746072 39.2651714,13.9007905 39.042715,14.0847293" id="Fill-29" fill="#2F3033"></path>
        </g>
    </g>
</svg>