<?xml version="1.0" encoding="utf-8"?>
<!-- Generator: Adobe Illustrator 22.1.0, SVG Export Plug-In . SVG Version: 6.00 Build 0)  -->
<svg version="1.1" id="Layer_1" xmlns="http://www.w3.org/2000/svg" xmlns:xlink="http://www.w3.org/1999/xlink" x="0px" y="0px"
	 width="40px" height="22.987px" viewBox="0 0 40 22.987" style="enable-background:new 0 0 40 22.987;" xml:space="preserve">
<style type="text/css">
	.st0{fill:#0067B1;}
	.st1{fill:#F47B20;}
</style>
<g>
	<path class="st0" d="M0,9.718l3.098-4.991h1.594L4.45,9.718H2.648l0.055-0.998H1.31L0.693,9.718C0.686,9.718,0,9.718,0,9.718z
		 M2.737,8.102l0.137-1.948L1.69,8.102H2.737z"/>
	<path class="st0" d="M4.601,9.718l1.622-4.991h1.802L6.404,9.718L4.601,9.718L4.601,9.718z"/>
	<path class="st0" d="M6.901,9.718l1.622-4.991h2.461c0.132,0,0.868,0.035,1.144,0.25c0.484,0.381,0.499,1.164-0.176,1.761
		c-0.284,0.25-0.616,0.409-0.957,0.457c0.053,0.014,0.106,0.028,0.158,0.049c0.442,0.173,0.557,0.402,0.475,0.853
		c-0.009,0.056-0.025,0.111-0.042,0.166l-0.224,0.763c-0.09,0.333-0.094,0.52-0.039,0.693H9.459C9.431,9.51,9.461,9.371,9.645,8.81
		l0.248-0.742c0.016-0.055,0.032-0.111,0.047-0.16c0.11-0.451,0.036-0.589-0.304-0.589H9.47L8.689,9.717L6.901,9.718L6.901,9.718z
		 M9.826,6.806c0.374,0,0.609-0.159,0.775-0.534c0.312-0.707,0.188-1.005-0.193-1.005h-0.263L9.646,6.806H9.826z"/>
	<path class="st0" d="M24.181,4.644c1.368,0.277,1.895,1.234,0.961,3.133c-0.64,1.303-1.882,2.142-3.238,2.045
		c-1.78-0.132-1.812-1.65-1.252-2.925C21.333,5.344,22.987,4.401,24.181,4.644z M22.447,7.229c-0.278,0.797-0.729,2.003-0.29,2.073
		c0.716,0.111,0.941-1.074,1.252-1.858c0.355-0.88,0.788-2.274,0.318-2.322C23.018,5.046,22.753,6.349,22.447,7.229z"/>
	<path class="st0" d="M24.977,9.718l1.622-4.991h2.461c0.132,0,0.868,0.035,1.144,0.25c0.484,0.381,0.499,1.164-0.176,1.761
		c-0.284,0.25-0.616,0.409-0.956,0.457c0.053,0.014,0.106,0.028,0.158,0.049c0.442,0.173,0.557,0.402,0.475,0.853
		c-0.009,0.056-0.025,0.111-0.042,0.166l-0.224,0.763c-0.09,0.333-0.094,0.52-0.039,0.693h-1.865
		c-0.028-0.208,0.002-0.347,0.186-0.908l0.248-0.742c0.016-0.055,0.032-0.111,0.047-0.16c0.11-0.451,0.036-0.589-0.304-0.589h-0.166
		l-0.781,2.398L24.977,9.718L24.977,9.718z M27.902,6.806c0.374,0,0.609-0.159,0.775-0.534c0.312-0.707,0.188-1.005-0.193-1.005
		h-0.264l-0.499,1.539H27.902z"/>
	<path class="st0" d="M30.731,5.344l0.2-0.617h4.311L35.042,5.35h-1.254l-1.421,4.367h-1.809l1.422-4.374
		C31.979,5.344,30.731,5.344,30.731,5.344z"/>
	<path class="st0" d="M33.921,9.718l1.622-4.991h1.809l-0.637,1.948h0.839l0.637-1.948H40l-1.622,4.991h-1.802l0.796-2.447h-0.853
		l-0.796,2.447H33.921z"/>
	<path class="st0" d="M17.167,4.981C18.241,2.215,19.048,0,19.048,0s-0.833,2.308-1.794,5.155L17.167,4.981z"/>
	<path class="st0" d="M17.193,16.859c1.103-0.115,1.997-0.116,1.997-0.116s-0.896-0.008-1.916-0.127
		c0.329-1.027,0.266-2.015-0.178-2.771c1.004-0.859,1.909-1.519,1.909-1.519s-0.908,0.653-2.021,1.335
		c-0.451-0.639-1.161-1.033-2.03-1.141c0.26-0.97,0.593-2.088,0.957-3.25l-0.236-0.538c-0.553,1.348-1.112,2.658-1.626,3.775
		c-0.983,0.09-1.991,0.501-2.878,1.121c-0.588-0.669-0.997-1.3-0.997-1.3s0.395,0.642,0.753,1.479
		c-0.967,0.738-1.763,1.724-2.174,2.81C7.624,16.738,6.7,16.742,6.7,16.742s0.92,0.037,1.954,0.174
		c-0.303,0.992-0.238,1.943,0.182,2.679c-1.022,0.878-1.953,1.562-1.953,1.562s0.953-0.655,2.092-1.338
		c0.487,0.68,1.267,1.08,2.222,1.149c-0.267,1.086-0.578,2.019-0.578,2.019s0.345-0.922,0.869-2.005c0.002,0,0.004,0,0.006,0
		c1.076,0,2.208-0.412,3.197-1.083c0.592,0.653,1.023,1.258,1.023,1.258s-0.39-0.628-0.747-1.452
		C15.958,18.965,16.774,17.963,17.193,16.859z M16.718,16.54c-0.286-0.045-0.57-0.099-0.837-0.165
		c0.105-0.483,0.074-0.943-0.088-1.333c0.278-0.28,0.578-0.559,0.88-0.828C17.006,14.849,17.023,15.661,16.718,16.54z
		 M14.813,13.058c0.73,0.075,1.319,0.385,1.692,0.889c-0.346,0.203-0.701,0.4-1.047,0.575c-0.228-0.241-0.525-0.41-0.871-0.502
		C14.649,13.728,14.724,13.407,14.813,13.058z M14.515,14.378c0.23,0.065,0.43,0.17,0.593,0.315
		c-0.239,0.112-0.469,0.21-0.685,0.288C14.441,14.807,14.472,14.605,14.515,14.378z M17.32,13.553c0,0-1.687,1.233-2.648,2.312
		c-0.087-0.07-0.161-0.145-0.212-0.227c-0.04-0.063-0.056-0.178-0.057-0.329C15.675,14.736,17.32,13.553,17.32,13.553z
		 M14.922,16.028c0.167-0.224,0.368-0.459,0.591-0.697c0.085,0.282,0.09,0.603,0.017,0.945
		C15.303,16.205,15.096,16.123,14.922,16.028z M15.159,17.206c-0.19,0.321-0.432,0.618-0.71,0.88
		c-0.039-0.217-0.057-0.43-0.057-0.635C14.631,17.358,14.889,17.276,15.159,17.206z M14.305,16.734
		c-0.274,0.735-1.092,1.331-1.827,1.331s-1.109-0.596-0.835-1.331c0.274-0.735,1.092-1.331,1.827-1.331
		C14.205,15.403,14.579,15.999,14.305,16.734z M12.995,18.48c0.16,0.078,0.322,0.176,0.485,0.294
		c-0.308,0.159-0.629,0.277-0.95,0.339C12.681,18.885,12.837,18.672,12.995,18.48z M12.777,14.976
		c-0.135-0.067-0.269-0.143-0.402-0.234c0.232-0.128,0.473-0.23,0.717-0.304C12.981,14.64,12.877,14.818,12.777,14.976z
		 M13.77,13.101c-0.155,0.325-0.305,0.628-0.447,0.904c-0.429,0.089-0.857,0.263-1.257,0.503c-0.18-0.147-0.354-0.309-0.52-0.477
		C12.238,13.558,13.006,13.228,13.77,13.101z M12.553,15.31c-0.112,0.151-0.213,0.264-0.301,0.328
		c-0.114,0.083-0.245,0.159-0.386,0.23c-0.16-1.075-0.924-2.315-0.924-2.315S11.707,14.737,12.553,15.31z M10.791,16.259
		c0.176-0.296,0.396-0.573,0.648-0.819c0.035,0.204,0.052,0.402,0.053,0.594C11.273,16.118,11.038,16.193,10.791,16.259z
		 M10.949,17.474c-0.151,0.2-0.328,0.408-0.525,0.62c-0.068-0.251-0.077-0.53-0.023-0.829C10.605,17.327,10.79,17.397,10.949,17.474
		z M11.136,14.333c0.083,0.228,0.158,0.463,0.217,0.698c-0.432,0.383-0.795,0.841-1.036,1.342c-0.306,0.065-0.621,0.119-0.93,0.164
		C9.765,15.695,10.388,14.931,11.136,14.333z M9.208,16.998c0.289,0.048,0.576,0.104,0.844,0.171
		c-0.083,0.441-0.052,0.859,0.089,1.22c-0.278,0.281-0.578,0.564-0.882,0.835C8.948,18.612,8.932,17.837,9.208,16.998z
		 M8.567,19.931c0,0,1.678-1.233,2.64-2.306c0.096,0.069,0.173,0.142,0.223,0.221c0.053,0.084,0.089,0.195,0.112,0.326
		C10.291,18.746,8.567,19.931,8.567,19.931z M11.324,20.421c-0.808-0.039-1.463-0.348-1.868-0.884
		c0.35-0.202,0.707-0.399,1.052-0.574c0.256,0.263,0.594,0.441,0.991,0.52C11.455,19.785,11.394,20.104,11.324,20.421z
		 M11.544,19.119c-0.268-0.058-0.501-0.169-0.687-0.327c0.253-0.12,0.495-0.225,0.716-0.306
		C11.579,18.675,11.568,18.89,11.544,19.119z M11.773,20.415c0.157-0.302,0.325-0.606,0.502-0.897
		c0.51-0.048,1.03-0.228,1.513-0.501c0.179,0.151,0.356,0.314,0.525,0.483C13.519,20.02,12.633,20.354,11.773,20.415z
		 M13.272,18.169c0.121-0.124,0.243-0.234,0.365-0.323c0.113-0.082,0.242-0.158,0.381-0.229c0.157,1.079,0.926,2.313,0.926,2.313
		S14.099,18.74,13.272,18.169z M14.755,19.18c-0.083-0.226-0.157-0.458-0.217-0.692c0.457-0.392,0.841-0.87,1.093-1.392
		c0.307-0.064,0.62-0.117,0.928-0.16C16.172,17.797,15.527,18.576,14.755,19.18z"/>
	<path class="st0" d="M14.232,4.331c-0.045-0.408-0.336-0.816-0.625-1.146C13.198,2.991,13,2.843,12.305,2.817l-0.049-0.459h3.301
		c0.896,2.324,2.11,4.518,3.094,6.75c0.373-0.958,1.868-6.168,4.67-6.867c0.379-0.09,0.535-0.176,1.218-0.128
		c0.548,0.038,1.067,0.442,1.067,1.038s-0.414,1.077-1.077,1.077c-0.663,0-1.038-0.461-1.038-0.885c0-0.317,0.135-0.481,0.135-0.481
		c-0.577-0.096-1.534,0.666-2.44,2.019c-0.742,1.109-2.209,4.837-2.79,7.249l-0.769,0.007c-1.05-2.291-1.95-4.641-3.056-6.912
		c-0.373,0.958-1.868,6.168-4.67,6.867c-0.379,0.09-0.535,0.176-1.218,0.128c-0.548-0.038-1.067-0.442-1.067-1.038
		s0.413-1.077,1.077-1.077c0.663,0,1.038,0.462,1.038,0.885c0,0.317-0.135,0.481-0.135,0.481c0.577,0.096,1.534-0.666,2.439-2.019
		C12.035,9.451,13.319,7.338,14.232,4.331z"/>
	<path class="st1" d="M21.194,11.877l0.394-0.891h0.441l-0.645,1.302v0.71h-0.408v-0.71l-0.645-1.302h0.462l0.396,0.891H21.194z"/>
	<path class="st1" d="M23.301,11.519v1.479h-0.385v-0.192H22.91c-0.127,0.139-0.29,0.222-0.482,0.222
		c-0.296,0-0.444-0.192-0.444-0.494v-1.015h0.385v0.926c0,0.154,0.083,0.266,0.237,0.266c0.121,0,0.237-0.068,0.311-0.115v-1.077
		L23.301,11.519L23.301,11.519z"/>
	<path class="st1" d="M23.937,12.999h-0.382v-2.071h0.382v1.11l0.556-0.518h0.464l-0.538,0.533l0.568,0.947h-0.453l-0.385-0.683
		l-0.213,0.195L23.937,12.999L23.937,12.999z"/>
	<path class="st1" d="M25.005,12.259c0-0.465,0.195-0.769,0.716-0.769c0.521,0,0.716,0.305,0.716,0.769s-0.195,0.769-0.716,0.769
		C25.201,13.028,25.005,12.723,25.005,12.259z M25.41,12.259c0,0.275,0.068,0.453,0.311,0.453c0.243,0,0.311-0.178,0.311-0.453
		c0-0.275-0.068-0.453-0.311-0.453C25.479,11.806,25.41,11.984,25.41,12.259z"/>
	<path class="st1" d="M26.659,12.999v-1.479h0.385v0.192h0.006c0.127-0.136,0.29-0.222,0.482-0.222c0.296,0,0.444,0.192,0.444,0.497
		v1.012h-0.385v-0.923c0-0.154-0.068-0.266-0.237-0.266c-0.121,0-0.237,0.065-0.311,0.115v1.074H26.659z"/>
	<path class="st1" d="M28.192,11.8l0.074-0.385h-0.154v-0.429h0.382v0.429L28.31,11.8H28.192z"/>
	<path class="st1" d="M29.399,12.579c0-0.077-0.08-0.113-0.257-0.145c-0.334-0.059-0.586-0.169-0.586-0.5
		c0-0.317,0.225-0.444,0.583-0.444c0.24,0,0.444,0.027,0.621,0.071l-0.068,0.305c-0.246-0.059-0.42-0.068-0.533-0.068
		c-0.177,0-0.222,0.074-0.222,0.124c0,0.071,0.05,0.109,0.24,0.151c0.281,0.062,0.604,0.136,0.604,0.479
		c0,0.326-0.225,0.476-0.583,0.476c-0.24,0-0.494-0.027-0.672-0.071l0.068-0.305c0.243,0.059,0.45,0.068,0.559,0.068
		C29.343,12.72,29.399,12.632,29.399,12.579z"/>
	<path class="st1" d="M30.464,12.999l0.648-2.027h0.497l0.642,2.027h-0.45l-0.136-0.456h-0.636l-0.136,0.456H30.464z M31.352,11.481
		l-0.24,0.722h0.47l-0.228-0.722H31.352z"/>
	<path class="st1" d="M32.446,10.927h0.382v0.405h-0.382V10.927z M32.446,11.519h0.382v1.479h-0.382V11.519z"/>
	<path class="st1" d="M33.079,12.999v-1.479h0.385v0.237h0.006c0.095-0.133,0.275-0.266,0.512-0.266v0.364
		c-0.198,0-0.4,0.053-0.518,0.115v1.03L33.079,12.999L33.079,12.999z"/>
	<path class="st1" d="M34.177,10.927h0.382v2.071h-0.382V10.927z"/>
	<path class="st1" d="M34.813,10.927h0.382v0.405h-0.382V10.927z M34.813,11.519h0.382v1.479h-0.382V11.519z"/>
	<path class="st1" d="M35.446,12.999v-1.479h0.385v0.192h0.006c0.127-0.136,0.29-0.222,0.482-0.222c0.296,0,0.444,0.192,0.444,0.497
		v1.012h-0.385v-0.923c0-0.154-0.068-0.266-0.237-0.266c-0.121,0-0.237,0.065-0.311,0.115v1.074H35.446z"/>
	<path class="st1" d="M37.402,12.339c0.012,0.225,0.136,0.373,0.408,0.373c0.127,0,0.272-0.003,0.459-0.059l0.047,0.308
		c-0.195,0.053-0.367,0.068-0.559,0.068c-0.571,0-0.769-0.305-0.769-0.769c0-0.465,0.198-0.769,0.761-0.769
		c0.627,0,0.672,0.423,0.609,0.849L37.402,12.339L37.402,12.339z M37.402,12.102h0.583c0.024-0.169-0.021-0.317-0.257-0.317
		C37.512,11.786,37.42,11.91,37.402,12.102z"/>
</g>
</svg>
