<?xml version="1.0" encoding="UTF-8" standalone="no"?>
<!-- Created with Inkscape (http://www.inkscape.org/) -->

<svg
   xmlns:dc="http://purl.org/dc/elements/1.1/"
   xmlns:cc="http://creativecommons.org/ns#"
   xmlns:rdf="http://www.w3.org/1999/02/22-rdf-syntax-ns#"
   xmlns:svg="http://www.w3.org/2000/svg"
   xmlns="http://www.w3.org/2000/svg"
   version="1.1"
   width="892.91339"
   height="119.76378"
   id="svg6134">
  <defs
     id="defs6136">
    <clipPath
       id="clipPath6011">
      <path
         d="m 78.8,273.679 286.213,0 0,41.672 -286.213,0 0,-41.672 z"
         id="path6013" />
    </clipPath>
    <clipPath
       id="clipPath6017">
      <path
         d="m 77.588,315.53 287.949,0 0,-36.606 -287.949,0 0,36.606 z"
         id="path6019" />
    </clipPath>
    <clipPath
       id="clipPath6023">
      <path
         d="m 6.1e-5,595.276 841.889999,0 0,-595.276 L 6.1e-5,0 l 0,595.276 z"
         id="path6025" />
    </clipPath>
    <clipPath
       id="clipPath6029">
      <path
         d="m 0.014984,595.29 841.889996,0 0,-595.29 -841.889996,0 0,595.29 z"
         id="path6031" />
    </clipPath>
  </defs>
  <metadata
     id="metadata6139">
    <rdf:RDF>
      <cc:Work
         rdf:about="">
        <dc:format>image/svg+xml</dc:format>
        <dc:type
           rdf:resource="http://purl.org/dc/dcmitype/StillImage" />
        <dc:title></dc:title>
      </cc:Work>
    </rdf:RDF>
  </metadata>
  <g
     transform="translate(37.228234,-411.90095)"
     id="layer1">
    <g
       transform="matrix(3.0949948,0,0,-3.0949948,-277.57149,1391.4203)"
       id="g6007">
      <g
         clip-path="url(#clipPath6011)"
         id="g6009">
        <g
           clip-path="url(#clipPath6017)"
           id="g6015">
          <g
             clip-path="url(#clipPath6023)"
             id="g6021">
            <g
               clip-path="url(#clipPath6029)"
               id="g6027">
              <g
                 transform="translate(80.15,298.185)"
                 id="g6033">
                <path
                   d="M 0,0 C -0.647,-1.041 -2.097,-2.443 -0.876,-3.197 0.134,-3.222 0.846,-3.455 0.825,-4.201 0.799,-5.07 -0.16,-5.112 -0.293,-5.661 -0.476,-6.415 0.662,-6.512 0.945,-7.056 0.882,-7.558 0.006,-7.716 0.15,-8.53 c 0.289,-0.316 0.614,-0.232 0.836,-0.443 0.747,-0.711 -0.38,-1.642 -0.474,-2.299 -0.173,-1.211 1.86,-2.448 3.365,-2.44 3.441,0.019 7.591,2.089 11.154,-0.065 -1.317,-0.289 -4.514,0.165 -4.636,-1.877 -0.035,-0.595 0.706,-1.315 1.035,-1.848 1.27,-2.035 2.284,-4.514 2.535,-7.005 2.106,7.747 3.992,16.447 5.991,24.59 C 16.016,1.801 13.149,4.425 8.489,5.768 6.511,6.34 4.247,6.521 2.549,6.286 2.565,5.454 2.022,5.234 1.995,4.656 1.962,3.954 3.123,3.566 3.702,3.16 4.446,2.639 4.854,2.072 4.969,1.373 4.405,1.592 4.527,2.106 3.655,2.135 3.419,2.145 3.011,1.906 2.565,1.87 2.25,1.842 1.673,2.41 1.506,2.372 0.954,2.246 0.322,0.512 0,0"
                   id="path6035"
                   style="fill:#258acf;fill-opacity:1;fill-rule:nonzero;stroke:none" />
              </g>
              <g
                 transform="translate(85.694,312.136)"
                 id="g6037">
                <path
                   d="m 0,0 c -0.321,-0.451 -0.576,-0.998 -0.855,-1.514 0.914,-0.119 2.081,-0.215 3.123,-0.427 5.903,-1.201 8.198,-5.665 13.185,-7.4 0.733,2.408 1.41,5.826 2.047,8.349 0.174,0.692 0.312,1.137 -0.042,1.644 -0.732,0.616 -2.085,0.352 -2.684,0.989 -0.35,0.372 -0.051,0.773 -0.465,0.913 C 12.905,3.023 11.488,2.201 10.576,3.214 10.021,2.761 8.819,3.005 7.907,2.946 7.299,2.908 6.734,2.083 6.275,2.955 5.086,2.788 4.518,1.445 3.295,1.445 3.05,1.445 2.791,1.666 2.522,1.658 1.568,1.636 1.323,0.05 0.491,-0.264 0.164,-0.292 0.26,0.128 0,0"
                   id="path6039"
                   style="fill:#258acf;fill-opacity:1;fill-rule:nonzero;stroke:none" />
              </g>
              <g
                 transform="translate(88.725,285.135)"
                 id="g6041">
                <path
                   d="M 0,0 C 0,0 0.386,0.252 2.441,0.285 5.171,0.331 6.457,-0.723 6.457,-0.723 6.325,-0.793 5.813,-0.842 4.776,-0.913 3.709,-0.988 2.88,-1.264 2.88,-1.264 1.523,-1.823 1.91,-3.044 1.91,-3.044 0.762,-1.448 0,0 0,0"
                   id="path6043"
                   style="fill:#2c59a6;fill-opacity:1;fill-rule:nonzero;stroke:none" />
              </g>
              <g
                 transform="translate(134.889,286.256)"
                 id="g6045">
                <path
                   d="m 0,0 -6.581,14.258 c -1.28,2.699 -2.68,2.881 -4.496,2.882 l -2.24,0 c -0.247,-0.005 -1.729,0.006 -1.729,0.006 l 0.424,-0.912 -17.747,-16.101 c -0.248,-0.231 -0.405,-0.532 -0.431,-0.875 -0.002,-0.016 -0.002,-0.035 -0.002,-0.058 0,-0.161 0.039,-0.332 0.155,-0.478 0.108,-0.148 0.305,-0.247 0.49,-0.247 0.004,0 0.008,0 0.014,0 l 5.12,0.031 c 0.238,0.003 0.424,0.108 0.577,0.244 l 4.164,3.748 13.967,0 1.664,-3.612 c 0.089,-0.213 0.339,-0.39 0.589,-0.38 l 5.135,-0.031 0.004,0 c 0.398,0.021 0.64,0.265 0.82,0.55 0.111,0.194 0.174,0.402 0.176,0.617 0,0.118 -0.021,0.237 -0.075,0.358 L 0,0 z m -0.378,-0.174 0,0 z m -10.07,7.327 -6.717,0 4.741,4.331 1.976,-4.331"
                   id="path6047"
                   style="fill:#2c59a6;fill-opacity:1;fill-rule:nonzero;stroke:none" />
              </g>
              <g
                 transform="translate(136.273,286.203)"
                 id="g6049">
                <path
                   d="m 0,0 c -0.038,-0.121 -0.041,-0.242 -0.022,-0.359 0.032,-0.217 0.125,-0.428 0.267,-0.62 0.219,-0.288 0.498,-0.534 0.902,-0.552 l 0.004,0 5.158,0.029 c 0.251,-0.011 0.478,0.167 0.537,0.381 l 1.17,3.63 4.232,12.95 0.589,1.772 c 0,0 -1.511,-0.01 -1.76,-0.004 l -2.285,0 C 6.941,17.225 5.539,17.04 4.615,14.329 L -0.002,0 0,0 z m 0.403,-0.175 0.002,0 -0.002,0"
                   id="path6051"
                   style="fill:#2c59a6;fill-opacity:1;fill-rule:nonzero;stroke:none" />
              </g>
              <g
                 transform="translate(172.515,299.16)"
                 id="g6053">
                <path
                   d="M 0,0 C -0.076,0.518 -0.253,1.001 -0.512,1.45 -1.091,2.444 -2.067,3.162 -3.34,3.613 -4.612,4.066 -6.172,4.27 -7.991,4.27 l -7.845,0 c -0.009,0 -0.016,0.005 -0.026,0.005 l -0.003,0 -0.872,-0.005 -3.977,0 c -0.064,0 -0.125,-0.009 -0.182,-0.024 L -21.022,4.244 C -21.274,4.257 -21.5,4.078 -21.559,3.863 l -1.172,-3.628 -4.231,-12.949 -0.589,-1.774 c 0,0 1.51,0.01 1.76,0.005 l 2.286,0 c 1.85,0.004 3.252,0.185 4.177,2.898 l 1.337,4.151 5.787,0 c 0.655,0 1.185,-0.047 1.572,-0.125 0.342,-0.066 0.429,-0.095 0.507,-0.177 0.089,-0.08 0.231,-0.331 0.415,-0.876 l -0.004,-0.009 0.045,-0.129 c 0,-10e-4 0.455,-1.295 0.914,-2.601 0.229,-0.652 0.461,-1.309 0.638,-1.808 0.182,-0.517 0.285,-0.812 0.324,-0.902 0.094,-0.23 0.347,-0.402 0.603,-0.402 0.007,0 0.011,0 0.017,0 l 4.986,0 c 0.257,0.006 0.457,0.121 0.623,0.272 0.163,0.157 0.281,0.35 0.348,0.565 l 0.039,0.137 -1.795,4.665 -1.196,2.896 c 0.758,0.312 1.603,0.839 2.054,1.203 0.47,0.385 0.879,0.821 1.215,1.306 0.276,0.397 0.495,0.826 0.654,1.266 l 0.014,0 0.061,0.21 0.022,0 0.07,0.335 c 0.081,0.344 0.12,0.685 0.12,1.019 0,0.2 -0.014,0.395 -0.042,0.589 z m -6.668,-1.466 c -0.089,-0.166 -0.19,-0.3 -0.312,-0.426 -0.126,-0.124 -0.261,-0.233 -0.439,-0.334 -0.172,-0.1 -0.381,-0.193 -0.635,-0.273 -0.494,-0.156 -1.185,-0.258 -2.083,-0.258 l -6.348,0 0.757,2.351 6.562,-10e-4 0.016,0 0.009,10e-4 c 0.583,-10e-4 1.052,-0.047 1.404,-0.122 0.551,-0.118 0.8,-0.278 0.934,-0.441 0.062,-0.075 0.098,-0.148 0.12,-0.249 0.011,-0.05 0.018,-0.107 0.018,-0.176 0,-0.021 -0.003,-0.044 -0.003,-0.072"
                   id="path6055"
                   style="fill:#2c59a6;fill-opacity:1;fill-rule:nonzero;stroke:none" />
              </g>
              <g
                 transform="translate(292.405,290.709)"
                 id="g6057">
                <path
                   d="M 0,0 0,0.023 C 0,0.908 -0.193,1.731 -0.58,2.438 -0.963,3.142 -1.532,3.728 -2.259,4.202 -3.054,4.725 -4.007,5.096 -5.1,5.339 -6.201,5.584 -7.445,5.698 -8.809,5.698 l -5.032,0 c -0.596,0 -1.084,0.047 -1.466,0.121 -0.578,0.12 -0.882,0.29 -1.083,0.49 -0.088,0.091 -0.151,0.192 -0.194,0.304 -0.033,0.079 -0.049,0.159 -0.063,0.259 0.063,0.148 0.133,0.258 0.217,0.368 0.095,0.109 0.195,0.2 0.346,0.298 0.144,0.088 0.327,0.179 0.563,0.256 0.452,0.147 1.101,0.25 1.974,0.254 l 13.52,0 c 0.258,0 0.496,0.14 0.667,0.323 0.158,0.187 0.263,0.408 0.293,0.637 l 0.827,2.764 c 0.029,0.225 0,0.444 -0.113,0.633 -0.114,0.186 -0.315,0.323 -0.579,0.323 l -13.858,0 c -1.366,0 -2.638,-0.115 -3.807,-0.356 -1.164,-0.245 -2.228,-0.622 -3.169,-1.14 l -0.02,-0.015 C -20.63,10.755 -21.367,10.168 -21.958,9.465 -22.545,8.76 -22.984,7.938 -23.236,7.054 L -23.242,7.03 c -0.017,-0.054 -0.03,-0.107 -0.036,-0.155 -0.007,-0.054 -0.013,-0.104 -0.013,-0.155 l 0,-0.031 c -0.018,-0.931 0.169,-1.793 0.569,-2.529 0.597,-1.108 1.643,-1.904 3.045,-2.409 1.395,-0.507 3.124,-0.732 5.144,-0.735 l 5.047,0 c 0.603,0 1.096,-0.044 1.473,-0.119 0.581,-0.12 0.895,-0.29 1.096,-0.49 0.088,-0.094 0.149,-0.192 0.193,-0.307 0.032,-0.077 0.048,-0.157 0.061,-0.256 -0.061,-0.151 -0.125,-0.259 -0.212,-0.369 -0.093,-0.11 -0.202,-0.203 -0.342,-0.296 -0.144,-0.09 -0.334,-0.178 -0.566,-0.256 -0.462,-0.151 -1.139,-0.258 -2.047,-0.256 l -15.108,0 c -0.261,-0.002 -0.509,-0.136 -0.67,-0.324 -0.168,-0.187 -0.269,-0.407 -0.302,-0.634 l -0.988,-2.765 c -0.03,-0.226 0,-0.447 0.112,-0.635 0.114,-0.186 0.314,-0.322 0.57,-0.322 l 15.709,0 c 1.354,0 2.604,0.103 3.753,0.318 1.716,0.323 3.191,0.914 4.349,1.818 0.578,0.453 1.07,0.983 1.466,1.58 0.395,0.597 0.695,1.259 0.89,1.961 l 0.004,0.027 c 0.013,0.052 0.03,0.101 0.033,0.153 C -0.005,-0.103 -0.005,-0.052 0,0"
                   id="path6059"
                   style="fill:#2c59a6;fill-opacity:1;fill-rule:nonzero;stroke:none" />
              </g>
              <g
                 transform="translate(292.986,286.244)"
                 id="g6061">
                <path
                   d="m 0,0 c -0.039,-0.118 -0.043,-0.238 -0.027,-0.356 0.039,-0.217 0.125,-0.424 0.272,-0.618 0.216,-0.284 0.496,-0.53 0.896,-0.549 l 0.007,0 5.142,0.03 c 0.248,-0.011 0.474,0.167 0.536,0.379 l 1.167,3.62 4.218,12.912 0.587,1.766 c 0,0 -1.504,-0.01 -1.754,-0.005 l -2.279,0 C 6.92,17.175 5.521,16.995 4.6,14.29 L 0,0 z m 0.399,-0.172 0,0"
                   id="path6063"
                   style="fill:#2c59a6;fill-opacity:1;fill-rule:nonzero;stroke:none" />
              </g>
              <g
                 transform="translate(264.778,299.167)"
                 id="g6065">
                <path
                   d="M 0,0 C -0.075,0.517 -0.251,0.999 -0.511,1.445 -1.088,2.437 -2.06,3.153 -3.327,3.601 -4.601,4.054 -6.154,4.256 -7.966,4.256 l -7.823,0 c -0.005,0.003 -0.015,0.005 -0.022,0.005 l -0.005,0 -0.87,-0.005 -3.968,0 c -0.065,0 -0.119,-0.007 -0.179,-0.02 l -0.128,-10e-4 c -0.25,0.006 -0.473,-0.171 -0.537,-0.384 l -1.167,-3.618 -4.218,-12.911 -0.587,-1.768 c 0,0 1.504,0.01 1.757,0.007 l 2.279,0 c 1.843,0.002 3.241,0.185 4.163,2.887 l 1.335,4.139 5.766,0 c 0.657,0 1.187,-0.047 1.57,-0.124 0.342,-0.07 0.428,-0.093 0.511,-0.176 0.085,-0.082 0.227,-0.331 0.409,-0.875 l -0.006,-0.008 0.047,-0.129 c 0,-0.001 0.454,-1.289 0.911,-2.594 0.226,-0.65 0.459,-1.307 0.638,-1.803 0.175,-0.513 0.282,-0.808 0.321,-0.898 0.094,-0.229 0.348,-0.4 0.6,-0.4 0.008,0 0.013,0 0.017,0 l 4.973,0 c 0.254,0.005 0.456,0.118 0.619,0.269 0.168,0.158 0.28,0.35 0.348,0.566 l 0.041,0.136 -1.79,4.651 -1.191,2.887 c 0.756,0.311 1.598,0.838 2.041,1.2 0.475,0.385 0.879,0.819 1.218,1.303 0.274,0.395 0.493,0.82 0.652,1.26 l 0.01,0 0.062,0.21 0.025,0 0.069,0.336 c 0.08,0.343 0.117,0.682 0.117,1.014 C 0.042,-0.387 0.03,-0.191 0,0 z m -6.646,-1.462 c -0.088,-0.169 -0.187,-0.298 -0.313,-0.424 -0.123,-0.125 -0.264,-0.233 -0.435,-0.331 -0.173,-0.101 -0.382,-0.195 -0.632,-0.272 -0.5,-0.158 -1.187,-0.261 -2.081,-0.261 l -6.331,0 0.759,2.346 6.568,0 c 0.578,0 1.048,-0.048 1.398,-0.122 0.547,-0.117 0.798,-0.28 0.936,-0.441 0.057,-0.075 0.093,-0.148 0.115,-0.247 0.008,-0.052 0.016,-0.106 0.016,-0.174 0,-0.024 0,-0.048 0,-0.074"
                   id="path6067"
                   style="fill:#2c59a6;fill-opacity:1;fill-rule:nonzero;stroke:none" />
              </g>
              <g
                 transform="translate(364.94,286.275)"
                 id="g6069">
                <path
                   d="m 0,0 -6.605,14.311 c -1.286,2.709 -2.692,2.892 -4.514,2.894 l -2.251,0 c -0.244,-0.006 -1.734,0.005 -1.734,0.005 l 0.427,-0.914 -17.814,-16.16 c -0.25,-0.234 -0.408,-0.536 -0.433,-0.879 -0.002,-0.015 -0.002,-0.035 -0.002,-0.057 0,-0.161 0.038,-0.336 0.155,-0.484 0.108,-0.148 0.308,-0.244 0.493,-0.244 0.007,0 0.008,0 0.012,0 l 5.144,0.03 c 0.237,0.004 0.423,0.109 0.577,0.246 l 4.18,3.76 14.018,0 1.67,-3.625 c 0.09,-0.214 0.344,-0.391 0.592,-0.381 l 5.155,-0.03 0.004,0 c 0.397,0.02 0.641,0.264 0.819,0.549 0.116,0.195 0.179,0.404 0.18,0.621 0,0.117 -0.021,0.238 -0.076,0.358 L 0,0 z m -0.383,-0.174 0,0 z m -10.106,7.354 -6.74,0 4.756,4.348 1.984,-4.348"
                   id="path6071"
                   style="fill:#2c59a6;fill-opacity:1;fill-rule:nonzero;stroke:none" />
              </g>
              <g
                 transform="translate(209.598,303.107)"
                 id="g6073">
                <path
                   d="m 0,0 c -0.111,0.187 -0.314,0.324 -0.573,0.324 l -11.341,0 c -3.147,-0.001 -5.947,-0.349 -8.383,-1.091 -2.439,-0.739 -4.497,-1.872 -6.113,-3.41 -1.383,-1.308 -2.356,-2.918 -2.858,-4.725 l -0.007,-0.019 c -0.014,-0.05 -0.024,-0.099 -0.03,-0.144 -0.009,-0.046 -0.012,-0.095 -0.014,-0.141 l 0,-0.03 c -0.063,-1.8 0.41,-3.413 1.39,-4.719 1.144,-1.537 2.861,-2.669 5.084,-3.412 2.228,-0.739 4.94,-1.087 8.108,-1.089 l 11.14,0 c 0.261,0 0.503,0.136 0.67,0.324 0.166,0.188 0.262,0.408 0.296,0.634 l 0.404,2.771 c 0.03,0.228 0,0.446 -0.112,0.637 -0.113,0.187 -0.316,0.324 -0.576,0.324 l -11.112,0 c -2.131,0 -3.829,0.236 -5.131,0.671 -1.303,0.434 -2.221,1.06 -2.83,1.874 -0.451,0.611 -0.666,1.289 -0.672,2.156 0.272,0.864 0.697,1.544 1.335,2.159 0.856,0.81 1.961,1.435 3.395,1.871 1.427,0.432 3.194,0.671 5.315,0.671 l 11.361,0 c 0.26,0 0.501,0.139 0.667,0.324 0.167,0.187 0.262,0.406 0.296,0.635 l 0.055,0.378 0.346,2.394 C 0.143,-0.406 0.11,-0.187 0,0"
                   id="path6075"
                   style="fill:#2c59a6;fill-opacity:1;fill-rule:nonzero;stroke:none" />
              </g>
              <g
                 transform="translate(238.849,294.042)"
                 id="g6077">
                <path
                   d="M 0,0 0.003,0.029 C 0.15,0.995 0.12,1.946 -0.097,2.817 -0.311,3.69 -0.712,4.481 -1.278,5.173 -2.407,6.559 -4.173,7.575 -6.494,8.301 l -0.012,0.006 -0.015,0.004 c -1.977,0.611 -4.321,0.964 -7.017,1.077 l -0.055,10e-4 -0.039,0 -0.063,-10e-4 c -2.76,-0.113 -5.227,-0.466 -7.4,-1.078 -2.551,-0.729 -4.632,-1.749 -6.188,-3.139 -0.776,-0.695 -1.419,-1.484 -1.904,-2.358 -0.486,-0.87 -0.808,-1.819 -0.969,-2.805 0,0 0,-0.004 0,-0.008 l -0.004,-0.01 c -0.158,-0.987 -0.139,-1.933 0.065,-2.805 0.206,-0.874 0.597,-1.661 1.154,-2.357 1.117,-1.389 2.884,-2.41 5.215,-3.137 1.994,-0.617 4.369,-0.967 7.109,-1.079 l 0.05,-0.004 0.042,0 0.068,0.004 c 2.752,0.112 5.225,0.464 7.404,1.079 2.569,0.727 4.664,1.745 6.218,3.135 0.777,0.696 1.418,1.482 1.895,2.356 0.476,0.873 0.79,1.82 0.938,2.808 l 0,-0.008 L 0,0 z m -6.632,0 c -0.075,-0.487 -0.214,-0.892 -0.418,-1.271 -0.202,-0.376 -0.475,-0.725 -0.842,-1.06 -0.729,-0.666 -1.834,-1.257 -3.384,-1.702 l -0.009,-0.002 c -1.227,-0.356 -2.734,-0.586 -4.524,-0.665 -1.451,0.064 -2.691,0.232 -3.724,0.485 -1.052,0.261 -1.885,0.611 -2.531,1.036 -0.643,0.425 -1.05,0.902 -1.279,1.411 -0.226,0.52 -0.287,1.063 -0.181,1.768 0.077,0.482 0.218,0.888 0.421,1.264 0.205,0.374 0.479,0.72 0.842,1.054 0.716,0.651 1.793,1.235 3.299,1.681 l 0.063,0.017 c 1.259,0.37 2.776,0.606 4.561,0.685 1.699,-0.08 3.123,-0.315 4.297,-0.687 1.41,-0.453 2.332,-1.046 2.858,-1.711 0.264,-0.335 0.432,-0.679 0.52,-1.051 0.086,-0.378 0.1,-0.777 0.031,-1.252"
                   id="path6079"
                   style="fill:#2c59a6;fill-opacity:1;fill-rule:nonzero;stroke:none" />
              </g>
              <g
                 transform="translate(333.897,303.115)"
                 id="g6081">
                <path
                   d="m 0,0 c -0.109,0.189 -0.314,0.325 -0.572,0.325 l -11.339,0 c -3.149,0 -5.948,-0.351 -8.385,-1.092 -2.44,-0.741 -4.497,-1.874 -6.112,-3.409 -1.383,-1.309 -2.357,-2.92 -2.858,-4.726 l -0.007,-0.018 c -0.012,-0.054 -0.025,-0.1 -0.031,-0.147 -0.01,-0.043 -0.012,-0.091 -0.012,-0.141 l -0.003,-0.027 c -0.061,-1.801 0.41,-3.413 1.389,-4.722 1.147,-1.535 2.863,-2.67 5.087,-3.413 2.226,-0.737 4.94,-1.084 8.107,-1.087 l 9.804,0 c 0.262,0 0.486,0.152 0.673,0.322 0.194,0.182 3.769,3.237 3.818,3.407 0.048,0.17 0,0.449 -0.113,0.636 -0.111,0.186 -0.315,0.323 -0.575,0.326 l -12.897,0 c -2.126,0 -3.83,0.235 -5.131,0.669 -1.303,0.436 -2.221,1.06 -2.829,1.876 -0.453,0.61 -0.669,1.289 -0.671,2.154 0.272,0.863 0.695,1.546 1.332,2.16 0.856,0.811 1.965,1.436 3.398,1.872 1.428,0.433 3.194,0.671 5.316,0.669 l 11.359,0.002 c 0.26,0 0.501,0.137 0.669,0.324 0.164,0.189 0.259,0.405 0.292,0.633 l 0.06,0.382 0.345,2.391 C 0.144,-0.405 0.114,-0.187 0,0"
                   id="path6083"
                   style="fill:#2c59a6;fill-opacity:1;fill-rule:nonzero;stroke:none" />
              </g>
            </g>
          </g>
        </g>
      </g>
    </g>
  </g>
</svg>
