<?xml version="1.0" encoding="utf-8"?>
<!-- Generator: Adobe Illustrator 22.1.0, SVG Export Plug-In . SVG Version: 6.00 Build 0)  -->
<svg version="1.1" id="Слой_1" xmlns="http://www.w3.org/2000/svg" xmlns:xlink="http://www.w3.org/1999/xlink" x="0px" y="0px"
	 width="40px" height="41.324px" viewBox="0 0 40 41.324" style="enable-background:new 0 0 40 41.324;" xml:space="preserve">
<style type="text/css">
	.st0{fill:#060604;}
	.st1{fill:#010101;}
	.st2{fill:#0C0B06;}
	.st3{fill:#040404;}
	.st4{fill:#030303;}
	.st5{fill:#020202;}
	.st6{fill:#0F0F0F;}
	.st7{fill:#FDFDFD;}
	.st8{fill:#FDC908;}
	.st9{fill:#E6E6E7;}
	.st10{fill:#FDCA08;}
	.st11{fill:#E6E6E6;}
	.st12{fill:#E5E5E6;}
	.st13{fill:#FCFCFC;}
	.st14{fill:#FCFCFB;}
	.st15{fill:#FBFBFA;}
	.st16{fill:#FBFBFB;}
	.st17{fill:#E3E3E4;}
	.st18{fill:#ED5829;}
	.st19{fill:#F9F8F6;}
	.st20{fill:#F7F6F4;}
	.st21{fill:#FEFEFE;}
	.st22{fill:#FCC908;}
	.st23{fill:#0E0D07;}
</style>
<g>
	<path class="st0" d="M20,0c0.141,0.017,0.281,0.038,0.423,0.051c2.892,0.271,5.41,1.388,7.553,3.347
		c0.096,0.088,0.2,0.126,0.322,0.151c1.312,0.269,2.469,0.838,3.421,1.793c0.663,0.666,1.13,1.453,1.407,2.352
		c0.01,0.031,0.02,0.062,0.029,0.09c0.398,0.053,0.793,0.095,1.184,0.163c0.229,0.04,0.457,0.104,0.673,0.188
		c0.25,0.097,0.312,0.251,0.229,0.507c-0.131,0.4-0.389,0.723-0.655,1.038c-0.389,0.462-0.84,0.857-1.33,1.208
		c-0.04,0.029-0.086,0.065-0.102,0.108c-0.116,0.325-0.226,0.652-0.341,0.988c0.294,0.144,0.614,0.234,0.944,0.295
		c0.228,0.043,0.327,0.201,0.214,0.407c-0.099,0.181-0.231,0.352-0.377,0.499c-0.414,0.417-0.901,0.727-1.452,0.932
		c-0.082,0.03-0.11,0.071-0.12,0.158c-0.243,2.074-0.929,3.989-2.112,5.711c-1.866,2.715-4.39,4.529-7.604,5.273
		c-4.254,0.985-8.075,0.028-11.428-2.775c-0.19-0.159-0.374-0.328-0.545-0.508c-0.116-0.122-0.247-0.186-0.405-0.228
		c-1.965-0.524-3.773-1.384-5.438-2.55c-0.105-0.073-0.193-0.156-0.166-0.299c0.035-0.184,0.207-0.256,0.394-0.167
		c0.449,0.211,0.894,0.43,1.347,0.631c0.928,0.413,1.876,0.774,2.854,1.053c0.012,0,0.024,0.001,0.037,0.001
		c-0.005-0.01-0.011-0.019-0.016-0.029c-0.321-0.516-0.667-1.019-0.959-1.551c-0.691-1.259-1.126-2.608-1.358-4.024
		c-0.011-0.067-0.066-0.141-0.122-0.183c-0.858-0.63-1.58-1.383-2.094-2.32c-0.601-1.096-0.864-2.268-0.741-3.519
		c0.002-0.019,0.003-0.037,0.006-0.056c0.047-0.327,0.134-0.398,0.445-0.373c0-0.391-0.016-0.785,0.003-1.176
		C4.167,6.096,4.4,5.043,4.765,4.018c0.055-0.155,0.195-0.237,0.34-0.212c0.154,0.027,0.24,0.148,0.248,0.326
		c0.02,0.429,0.046,0.858,0.099,1.287c0.051-0.275,0.092-0.553,0.154-0.826C5.861,3.467,6.338,2.444,7.04,1.526
		c0.109-0.143,0.242-0.185,0.38-0.128c0.138,0.057,0.2,0.18,0.181,0.359c-0.002,0.023-0.008,0.046-0.01,0.07
		C7.53,2.452,7.548,3.076,7.608,3.682C7.732,3.371,7.846,3.04,7.995,2.726c0.33-0.693,0.805-1.272,1.433-1.72
		c0.046-0.033,0.093-0.063,0.14-0.094c0.128-0.085,0.261-0.136,0.404-0.04c0.135,0.091,0.138,0.224,0.124,0.374
		c-0.081,0.847-0.066,1.693,0.059,2.563c0.087-0.08,0.16-0.146,0.231-0.214c1.887-1.804,4.111-2.948,6.684-3.4
		c0.442-0.078,0.892-0.112,1.339-0.168C18.434,0.024,18.456,0.009,18.479,0C18.986,0,19.493,0,20,0z M18.497,14.472
		c0.056-0.012,0.118-0.013,0.167-0.039c0.182-0.095,0.358-0.204,0.541-0.298c0.161-0.082,0.328-0.152,0.492-0.227
		c-0.008-0.016-0.011-0.025-0.016-0.033c-0.708-1.065-1.032-2.236-0.971-3.515c0.003-0.057-0.018-0.121-0.044-0.173
		c-0.364-0.712-0.634-1.459-0.837-2.231c-0.016-0.061-0.036-0.121-0.055-0.181c-0.308,1.609-0.345,3.181,0.55,4.648
		c-0.317-0.414-0.63-0.825-0.883-1.27c-0.252-0.443-0.445-0.92-0.658-1.37c-0.002,0.033-0.007,0.088-0.006,0.142
		c0.009,0.587,0.06,1.17,0.181,1.745c0.173,0.815,0.443,1.59,0.982,2.242c0.168,0.203,0.372,0.376,0.561,0.564
		c-0.047-0.017-0.096-0.028-0.139-0.051c-0.427-0.23-0.743-0.577-1.012-0.971c-0.101-0.148-0.193-0.302-0.31-0.486
		c0.126,0.466,0.291,0.876,0.505,1.266c0.017,0.032,0.044,0.062,0.073,0.083c0.204,0.141,0.409,0.279,0.615,0.418
		c0.09-0.063,0.175-0.12,0.255-0.184C18.503,14.539,18.494,14.499,18.497,14.472z M10.943,21.985
		c-0.012-0.001-0.024-0.002-0.036-0.003c0.006,0.007,0.012,0.015,0.019,0.022c0.021,0.024,0.04,0.052,0.064,0.073
		c2.92,2.54,6.306,3.565,10.134,3.033c2.691-0.374,5.003-1.568,6.931-3.48c1.787-1.772,2.924-3.904,3.427-6.371
		c0.065-0.32,0.109-0.644,0.165-0.981c-0.095,0.017-0.163,0.029-0.231,0.04c-0.069,0.012-0.142,0.012-0.207,0.036
		c-0.093,0.033-0.196,0.065-0.267,0.128c-0.999,0.888-2.147,1.503-3.433,1.856c-0.356,0.098-0.721,0.163-1.088,0.244
		c0.014,0.039,0.029,0.083,0.045,0.127c0.287,0.762,0.376,1.548,0.258,2.352c-0.213,1.454-0.925,2.622-2.085,3.512
		c-1.949,1.496-4.672,1.587-6.606,0.142c-0.041-0.031-0.121-0.032-0.175-0.017c-0.33,0.089-0.654,0.202-0.987,0.277
		c-0.453,0.103-0.913,0.173-1.381,0.131c-0.274-0.024-0.368-0.18-0.277-0.435c0.003-0.007-0.003-0.017-0.005-0.031
		c-0.022,0-0.045-0.001-0.067,0c-0.674,0.028-1.347,0.068-2.022,0.08c-0.284,0.005-0.571-0.031-0.853-0.075
		c-0.235-0.037-0.301-0.255-0.156-0.446c0.01-0.013,0.016-0.029,0.022-0.041C11.731,22.099,11.337,22.042,10.943,21.985z
		 M17.153,13.974c0.008,0.005,0.016,0.01,0.024,0.015c-0.002-0.01-0.004-0.021-0.005-0.031c-0.101-0.282-0.208-0.562-0.302-0.846
		c-0.074-0.225-0.042-0.282,0.174-0.387c-0.01-0.029-0.021-0.06-0.031-0.09c-0.322-0.942-0.452-1.913-0.434-2.907
		c0.002-0.124,0.047-0.215,0.174-0.234c0.135-0.021,0.203,0.059,0.244,0.181c0.058,0.173,0.122,0.345,0.192,0.514
		c0.08,0.192,0.17,0.38,0.271,0.605c-0.031-0.398-0.071-0.751-0.085-1.106c-0.026-0.659,0.044-1.311,0.181-1.957
		c0.024-0.112,0.083-0.195,0.205-0.197c0.127-0.003,0.189,0.075,0.219,0.196c0.049,0.2,0.103,0.4,0.166,0.596
		c0.105,0.327,0.219,0.65,0.329,0.975c0.019-0.723,0.173-1.403,0.465-2.068c-0.824-0.337-1.682-0.311-2.541-0.314
		c0.242-0.182,0.481-0.361,0.737-0.511c0.255-0.149,0.527-0.267,0.798-0.402c-0.914-0.143-1.828-0.12-2.734,0.006
		c-0.902,0.125-1.795,0.307-2.669,0.459c1.455-1.017,2.969-1.971,4.823-2.192c-0.65-0.232-1.328-0.271-2.009-0.365
		c1.821-0.822,3.688-1.252,5.679-0.95c0.004-0.018,0.008-0.036,0.013-0.054c-0.537-0.208-1.075-0.416-1.639-0.635
		c0.312-0.034,0.6-0.064,0.888-0.096c0.807-0.09,1.611-0.089,2.406,0.102c0.772,0.185,1.464,0.524,2.026,1.097
		c0.088,0.09,0.155,0.185,0.299,0.096c0.033-0.02,0.091,0.002,0.138,0.001c0.173-0.002,0.346-0.001,0.519-0.008
		c0.431-0.019,0.861-0.045,1.291-0.064c0.14-0.006,0.281-0.001,0.444-0.001c-0.049-0.044-0.078-0.073-0.109-0.1
		c-0.852-0.717-1.781-1.314-2.792-1.779c-1.872-0.862-3.839-1.235-5.896-1.127c-1.665,0.087-3.248,0.498-4.748,1.227
		c-1.334,0.649-2.513,1.51-3.545,2.575c-0.094,0.097-0.065,0.183-0.045,0.281c0.336,1.596,0.998,3.051,1.893,4.406
		c1.012,1.531,2.253,2.857,3.651,4.037C16.248,13.289,16.707,13.624,17.153,13.974z M28.76,4.615
		c0.126,0.006,0.256-0.005,0.378,0.02c1.178,0.238,2.004,0.915,2.455,2.026C31.73,7,31.798,7.367,31.903,7.736
		c0.309,0.013,0.649,0.027,1.004,0.042c-0.019-0.06-0.033-0.108-0.05-0.156c-0.536-1.553-1.583-2.642-3.053-3.337
		c-1.081-0.512-2.229-0.699-3.419-0.646c-0.139,0.006-0.277,0.03-0.415,0.046c-0.084,0.008-0.168,0.011-0.251,0.025
		c-0.763,0.126-1.489,0.372-2.187,0.701c-0.042,0.02-0.089,0.03-0.133,0.044c-0.006-0.012-0.012-0.024-0.018-0.035
		c0.409-0.268,0.818-0.536,1.227-0.804c-0.612-0.889-2.852-1.542-4.168-1.202C21.05,2.67,21.639,2.95,22.113,3.46
		c-2.414-0.804-5.007-0.062-5.807,0.333c0.244,0.049,0.502,0.081,0.748,0.154c0.317,0.094,0.627,0.213,0.933,0.34
		c0.107,0.045,0.192,0.144,0.287,0.218c-0.851-0.067-1.644,0.101-2.42,0.374c-0.773,0.272-1.492,0.651-2.192,1.116
		c0.038,0.007,0.048,0.012,0.056,0.01c0.037-0.006,0.074-0.013,0.111-0.02c1.197-0.222,2.401-0.362,3.622-0.267
		c0.54,0.042,1.068,0.138,1.565,0.367c0.038,0.018,0.074,0.04,0.11,0.061c-0.736-0.07-1.385,0.127-1.983,0.527
		c0.01,0.017,0.012,0.025,0.014,0.025c0.094,0.003,0.188,0,0.281,0.007c0.735,0.061,1.473,0.114,2.067,0.632
		c0.097-0.126,0.19-0.255,0.292-0.377c0.101-0.121,0.211-0.234,0.333-0.368c0.01,0.049,0.015,0.059,0.012,0.066
		c-0.01,0.021-0.022,0.041-0.035,0.061c-0.35,0.559-0.617,1.157-0.811,1.787c-0.181,0.588-0.317,1.186-0.336,1.805
		c-0.008,0.07-0.023,0.139-0.024,0.209c-0.025,1.759,0.625,3.223,1.964,4.36c1.247,1.059,2.726,1.514,4.342,1.527
		c1.697,0.015,3.251-0.476,4.662-1.417c0.267-0.178,0.517-0.38,0.776-0.571c-0.062-0.035-0.109-0.037-0.154-0.045
		c-0.346-0.055-0.697-0.089-1.037-0.17c-0.55-0.13-1.05-0.389-1.539-0.668c-0.382-0.277-0.786-0.529-1.141-0.839
		c-0.436-0.38-0.786-0.827-0.624-1.476c-0.716-0.301-1.354-0.713-1.877-1.287c-0.537-0.589-0.91-1.256-0.979-2.07
		c-0.062-0.726,0.287-1.364,0.944-1.676c0.531-0.252,1.095-0.286,1.664-0.174c0.797,0.157,1.425,0.607,1.956,1.197
		c0.269,0.298,0.503,0.627,0.754,0.942c0.06-0.043,0.134-0.097,0.206-0.148c-0.004-0.013-0.004-0.019-0.007-0.022
		c-0.023-0.029-0.048-0.058-0.071-0.087c-0.498-0.62-0.852-1.303-0.88-2.116C27.877,5.264,28.063,4.712,28.76,4.615z M18.688,15.318
		c-0.033-0.025-0.066-0.051-0.1-0.074c-2.075-1.376-3.957-2.971-5.545-4.897c-1.494-1.813-2.627-3.811-3.089-6.144
		C9.806,3.453,9.742,2.695,9.768,1.93c0.009-0.267,0.023-0.535,0.036-0.821C9.47,1.302,9.199,1.538,8.96,1.808
		C7.952,2.947,7.643,4.302,7.742,5.781c0.016,0.242,0.04,0.484,0.061,0.726c-0.01-0.018-0.027-0.034-0.031-0.053
		c-0.091-0.441-0.191-0.88-0.268-1.323C7.316,4.047,7.202,2.958,7.292,1.856c0.004-0.051,0.006-0.102,0.009-0.153
		C7.287,1.702,7.272,1.7,7.257,1.699c-1.47,2.09-1.986,4.341-1.121,6.829c-0.675-1.38-1.07-2.822-1.095-4.361
		C5.003,4.229,4.978,4.288,4.961,4.35c-0.1,0.351-0.212,0.7-0.294,1.056C4.403,6.557,4.285,7.718,4.511,8.892
		c0.212,1.104,0.731,2.02,1.674,2.666c0.132,0.09,0.271,0.17,0.407,0.255C6.16,11.73,5.788,11.53,5.456,11.258
		c-0.718-0.588-1.119-1.37-1.371-2.243c-0.032-0.11-0.06-0.221-0.089-0.332c-0.13,0.701-0.07,1.387,0.109,2.065
		c0.366,1.383,1.178,2.464,2.284,3.341c1.038,0.823,2.217,1.378,3.466,1.795c2.093,0.699,4.257,0.995,6.449,1.13
		c0.387,0.024,0.775,0.041,1.162,0.062c-0.023,0.16-0.113,0.247-0.269,0.251c-0.145,0.004-0.291-0.002-0.436-0.004
		c-0.082-0.032-0.094,0.031-0.111,0.084c-0.386,1.212-0.342,2.405,0.252,3.536c0.826,1.573,2.184,2.394,3.926,2.505
		c2.016,0.128,3.653-0.663,4.805-2.328c0.936-1.354,1.13-2.84,0.545-4.404c-0.037-0.098-0.084-0.113-0.184-0.111
		c-0.463,0.008-0.928,0.024-1.39-0.008c-0.391-0.027-0.777-0.116-1.166-0.177c-0.053-0.017-0.106-0.033-0.158-0.052
		c-0.41-0.154-0.83-0.287-1.228-0.47c-0.721-0.331-1.338-0.814-1.881-1.392c-0.1-0.122-0.199-0.243-0.299-0.365
		c-0.5,0.185-0.957,0.426-1.387,0.749c0.041,0.021,0.065,0.033,0.089,0.045c0.139,0.085,0.279,0.17,0.418,0.256
		c0.149,0.092,0.19,0.217,0.124,0.392C18.972,15.495,18.83,15.407,18.688,15.318z M7.052,15.039c0,0,0.001,0.018,0.004,0.036
		c0.378,2.009,1.196,3.819,2.462,5.425c0.05,0.063,0.134,0.119,0.212,0.138c0.902,0.226,1.816,0.381,2.746,0.437
		c1.173,0.071,2.334-0.007,3.472-0.318c0.165-0.045,0.327-0.099,0.497-0.151c-0.405-1.106-0.405-2.201-0.054-3.303
		c-1.262-0.055-2.503-0.166-3.735-0.373c-1.372-0.23-2.719-0.56-4-1.112C8.112,15.584,7.588,15.302,7.052,15.039z M28.133,11.76
		c0.004,0.019,0.009,0.038,0.013,0.057c0.418,0.041,0.835,0.108,1.254,0.116c1.039,0.021,2.013-0.249,2.927-0.735
		c0.962-0.511,1.794-1.18,2.422-2.08c0.122-0.174,0.2-0.379,0.293-0.573c0.045-0.094,0.01-0.165-0.092-0.194
		c-0.18-0.052-0.358-0.118-0.541-0.149c-1.552-0.258-3.113-0.312-4.683-0.206c-0.708,0.047-1.175,0.395-1.472,1.021
		c-0.208,0.438-0.359,0.894-0.449,1.369c-0.023,0.119-0.054,0.185-0.199,0.192c-0.35,0.015-0.667,0.139-0.942,0.359
		c-0.323,0.258-0.405,0.61-0.213,0.977c0.084,0.16,0.193,0.312,0.313,0.446c0.363,0.407,0.815,0.703,1.278,0.982
		c0.727,0.438,1.498,0.759,2.352,0.822c1.123,0.083,2.106-0.272,2.942-1.021c0.166-0.148,0.3-0.333,0.439-0.509
		c0.053-0.067,0.054-0.139-0.064-0.158c-0.656-0.108-1.243-0.373-1.772-0.772c-0.027-0.02-0.072-0.044-0.098-0.035
		c-0.249,0.084-0.497,0.175-0.752,0.267c0.259,0.371,0.374,0.791,0.476,1.244c0.246-0.049,0.488-0.08,0.72-0.147
		c0.23-0.066,0.449-0.166,0.673-0.251c0.006,0.01,0.013,0.02,0.019,0.03c-0.048,0.04-0.091,0.091-0.146,0.117
		c-0.191,0.089-0.38,0.188-0.58,0.248c-1.159,0.344-2.265,0.169-3.323-0.375c-0.319-0.164-0.616-0.369-0.924-0.556
		c-0.002,0.017,0.002,0.045-0.01,0.062c-0.033,0.046-0.074,0.088-0.111,0.131c-0.027-0.047-0.078-0.095-0.077-0.141
		c0.006-0.293,0.099-0.562,0.261-0.804c0.025-0.037,0.097-0.042,0.148-0.061c0.004,0.057,0.021,0.117,0.008,0.169
		C28.206,11.659,28.164,11.708,28.133,11.76z M27.867,7.499c-0.028-0.034-0.052-0.071-0.083-0.101
		c-0.175-0.169-0.342-0.349-0.529-0.503c-0.718-0.59-1.526-0.86-2.459-0.666c-0.666,0.139-1.112,0.561-1.231,1.175
		c-0.074,0.379-0.02,0.748,0.108,1.106c0.297,0.829,0.857,1.452,1.564,1.955c0.328,0.233,0.68,0.424,1.038,0.563
		c0.14-0.132,0.266-0.252,0.393-0.372c-0.844-0.328-1.288-1.143-1.081-1.983c0.099-0.403,0.319-0.729,0.659-0.965
		C26.745,7.363,27.286,7.32,27.867,7.499z M4.719,19.03c-0.003,0.014-0.006,0.028-0.009,0.042c2.907,1.903,6.025,3.101,9.614,2.837
		c-0.075,0.064-0.122,0.116-0.179,0.15c-0.575,0.334-1.217,0.28-1.856,0.312c0.597,0.345,4.133-0.03,4.852-0.498
		c-0.206-0.339-0.412-0.678-0.621-1.024c0.001,0-0.013,0-0.026,0.004c-1.051,0.352-2.135,0.5-3.239,0.498
		c-1.359-0.002-2.689-0.219-3.998-0.577c-1.52-0.415-2.973-1-4.387-1.69C4.822,19.061,4.77,19.048,4.719,19.03z M31.698,7.623
		c-0.081-0.286-0.137-0.571-0.241-0.838c-0.421-1.076-1.201-1.747-2.335-1.979c-0.595-0.122-0.985,0.172-1.045,0.775
		c-0.064,0.654,0.193,1.222,0.525,1.787c0.114-0.964,0.842-1.288,1.399-1.229c0.305,0.032,0.569,0.157,0.777,0.381
		c0.305,0.327,0.399,0.72,0.315,1.163c0.107-0.012,0.199-0.023,0.291-0.032C31.477,7.642,31.57,7.635,31.698,7.623z M28.196,12.034
		c0.959,0.654,1.999,1.123,3.224,1.14c-0.082-0.405-0.205-0.769-0.407-1.106c-0.058-0.096-0.126-0.103-0.233-0.089
		c-0.44,0.06-0.881,0.136-1.323,0.146C29.036,12.134,28.612,12.067,28.196,12.034z M15.421,22.824
		c0.802,0.08,1.559-0.096,2.323-0.349c-0.175-0.162-0.336-0.311-0.507-0.47C16.719,22.426,16.095,22.676,15.421,22.824z
		 M26.685,9.134c0-0.216-0.171-0.385-0.384-0.382c-0.216,0.003-0.379,0.172-0.376,0.389c0.003,0.21,0.166,0.373,0.376,0.376
		C26.511,9.521,26.686,9.346,26.685,9.134z M18.711,9.313c0.022-0.089,0.037-0.142,0.049-0.196c0.114-0.501,0.285-0.982,0.543-1.427
		c0.072-0.125,0.045-0.195-0.055-0.268c-0.04-0.029-0.08-0.058-0.128-0.094C18.843,7.961,18.696,8.601,18.711,9.313z M29.699,7.107
		c-0.003-0.161-0.129-0.284-0.287-0.28c-0.154,0.004-0.285,0.139-0.281,0.292c0.004,0.155,0.138,0.283,0.293,0.28
		C29.584,7.395,29.702,7.27,29.699,7.107z M32.086,11.57c0.168,0.107,0.326,0.207,0.501,0.319c0.096-0.252,0.183-0.48,0.28-0.735
		C32.592,11.3,32.348,11.43,32.086,11.57z"/>
	<path class="st1" d="M0,34c0.009-0.029,0.019-0.058,0.027-0.087c0.054-0.207,0.102-0.416,0.164-0.621
		c0.054-0.179,0.129-0.351,0.186-0.529c0.055-0.168,0.062-0.339,0.001-0.511c-0.025-0.07-0.032-0.146-0.042-0.22
		c-0.029-0.215,0.064-0.368,0.255-0.453c0.123-0.054,0.255-0.096,0.387-0.12c0.447-0.078,0.897-0.077,1.344,0.001
		c0.37,0.065,0.517,0.267,0.488,0.643c-0.007,0.089-0.019,0.178-0.014,0.266c0.005,0.089,0.051,0.143,0.149,0.09
		c0.082-0.045,0.17-0.083,0.241-0.142C3.422,32.12,3.686,32,3.995,31.96c0.255-0.033,0.508-0.088,0.758-0.151
		c0.35-0.088,0.686-0.056,1.02,0.07c0.227,0.085,0.463,0.148,0.688,0.24c0.066,0.027,0.121,0.112,0.153,0.183
		c0.232,0.518,0.315,1.056,0.193,1.618c-0.05,0.228-0.092,0.458-0.141,0.703c-0.248,0.025-0.494,0.052-0.74,0.073
		c-0.382,0.033-0.764,0.068-1.147,0.09c-0.105,0.006-0.214-0.023-0.317-0.052c-0.22-0.063-0.413-0.155-0.43-0.511
		c-0.013-0.271-0.047-0.542-0.056-0.813c-0.005-0.145-0.077-0.221-0.202-0.248c-0.353-0.079-0.692-0.01-1.011,0.14
		c-0.083,0.039-0.146,0.143-0.195,0.231c-0.194,0.35-0.462,0.636-0.76,0.896c-0.156,0.137-0.341,0.202-0.555,0.199
		c-0.323-0.005-0.647,0.01-0.97,0.004C0.189,34.629,0.095,34.587,0,34.563C0,34.376,0,34.188,0,34z"/>
	<path class="st2" d="M40,31.07c-0.356,0.084-0.713,0.168-1.077,0.254c0.173,0.735,0.343,1.459,0.515,2.188
		c0.108-0.031,0.207-0.056,0.303-0.088c0.096-0.032,0.145-0.004,0.147,0.099c0.005,0.253,0.008,0.506,0.016,0.759
		c0.003,0.089-0.037,0.122-0.119,0.141c-0.428,0.1-0.856,0.206-1.284,0.308c-0.166,0.04-0.175,0.033-0.216-0.138
		c-0.226-0.942-0.453-1.884-0.679-2.827c-0.01-0.04-0.023-0.08-0.036-0.125c-0.152,0.037-0.297,0.071-0.445,0.107
		c0.172,0.667,0.119,1.3-0.225,1.894c-0.301,0.52-0.744,0.869-1.31,1.072c-1.07,0.383-2.667-0.117-3.095-1.665
		c-0.32,0.984-0.97,1.6-2.007,1.764c-0.536,0.085-1.044-0.027-1.515-0.295c-0.39-0.221-0.549-0.402-1.035-1.16
		c-0.432,0.907-1.138,1.44-2.145,1.473c-1.004,0.033-1.742-0.449-2.217-1.294c-0.118,0.198-0.215,0.427-0.368,0.608
		c-0.439,0.517-1.038,0.641-1.68,0.607c-0.811-0.043-1.413-0.558-1.596-1.344c-0.04-0.174-0.023-0.195,0.157-0.195
		c0.366,0,0.732,0.003,1.098-0.002c0.106-0.002,0.17,0.029,0.226,0.123c0.127,0.216,0.373,0.283,0.568,0.168
		c0.149-0.088,0.173-0.221,0.027-0.307c-0.232-0.136-0.483-0.242-0.729-0.352c-0.2-0.089-0.414-0.15-0.608-0.251
		c-0.829-0.43-0.947-1.419-0.249-2.044c0.352-0.316,0.783-0.429,1.241-0.461c0.277-0.019,0.552-0.011,0.821,0.076
		c0.645,0.209,0.889,0.788,0.925,1.3c0.006,0.089-0.036,0.114-0.117,0.114c-0.399-0.002-0.798-0.002-1.197,0
		c-0.074,0-0.107-0.027-0.12-0.103c-0.033-0.182-0.247-0.293-0.408-0.203c-0.049,0.027-0.098,0.114-0.092,0.168
		c0.007,0.066,0.058,0.158,0.115,0.182c0.171,0.075,0.355,0.118,0.531,0.181c0.211,0.076,0.425,0.147,0.627,0.243
		c0.197,0.093,0.38,0.215,0.572,0.326c0.025-0.578,0.226-1.104,0.63-1.545c0.406-0.444,0.912-0.703,1.508-0.764
		c1.079-0.111,2.05,0.477,2.478,1.477c0.492-0.998,1.272-1.533,2.394-1.482c0.955,0.043,1.871,0.71,2.164,1.801
		c0.018-0.044,0.033-0.072,0.042-0.103c0.497-1.604,2.383-2.224,3.734-1.23c0.047,0.035,0.129,0.05,0.186,0.037
		c0.27-0.057,0.536-0.126,0.814-0.193c-0.052-0.222-0.097-0.436-0.155-0.646c-0.031-0.112-0.013-0.182,0.089-0.247
		c0.324-0.206,0.643-0.421,0.964-0.631c0.12-0.078,0.161-0.061,0.194,0.078c0.077,0.328,0.153,0.657,0.23,0.985
		c0.009,0.04,0.022,0.08,0.035,0.126c0.298-0.072,0.59-0.136,0.878-0.216c0.129-0.036,0.185-0.014,0.216,0.122
		c0.067,0.292,0.149,0.58,0.227,0.869c0.011,0.041,0.034,0.079,0.052,0.118C40,30.977,40,31.023,40,31.07z M30.136,30.189
		c-0.071,0.007-0.188,0.013-0.304,0.03c-0.478,0.072-0.888,0.282-1.237,0.616c-0.351,0.336-0.554,0.752-0.641,1.221
		c-0.037,0.2-0.051,0.415-0.018,0.614c0.031,0.185,0.07,0.378,0.13,0.554c0.3,0.873,1.155,1.467,2.078,1.476
		c1.241,0.011,2.259-0.987,2.279-2.236C32.441,31.233,31.439,30.215,30.136,30.189z M37.078,32.453
		c0.012-0.003,0.025-0.006,0.037-0.008c-0.057-0.249-0.066-0.524-0.183-0.741c-0.19-0.352-0.451-0.667-0.684-0.996
		c-0.026-0.037-0.068-0.064-0.106-0.091c-0.889-0.649-2.12-0.547-2.907,0.24c-0.724,0.725-0.867,1.831-0.352,2.721
		c0.509,0.879,1.552,1.305,2.542,1.038C36.392,34.356,37.078,33.459,37.078,32.453z M27.862,31.818
		c-0.183-0.792-1.072-1.749-2.393-1.614c-1.188,0.121-2.048,1.147-2.003,2.381c0.041,1.131,1.037,2.089,2.198,2.115
		c1.041,0.023,2.135-0.815,2.217-1.709c-0.399,0-0.797-0.002-1.194,0.004c-0.034,0-0.075,0.046-0.101,0.08
		c-0.158,0.211-0.36,0.356-0.617,0.416c-0.507,0.118-1.016-0.162-1.211-0.661c-0.204-0.521,0.005-1.119,0.486-1.389
		c0.441-0.248,0.992-0.126,1.323,0.291c0.029,0.037,0.076,0.083,0.116,0.084C27.072,31.821,27.461,31.818,27.862,31.818z
		 M23.257,31.43c-0.044-0.603-0.394-1.047-0.94-1.158c-0.213-0.043-0.439-0.049-0.657-0.037c-0.403,0.023-0.787,0.123-1.108,0.391
		c-0.649,0.543-0.575,1.425,0.163,1.83c0.204,0.112,0.434,0.173,0.647,0.269c0.247,0.111,0.503,0.212,0.727,0.359
		c0.241,0.159,0.191,0.442-0.074,0.564c-0.253,0.116-0.53,0.035-0.711-0.203c-0.028-0.037-0.073-0.084-0.112-0.084
		c-0.369-0.006-0.739-0.004-1.128-0.004c0.094,0.394,0.275,0.713,0.588,0.946c0.445,0.331,0.954,0.365,1.478,0.278
		c0.432-0.072,0.8-0.265,1.058-0.632c0.235-0.335,0.278-0.689,0.18-1.094c-0.059-0.243-0.173-0.408-0.372-0.508
		c-0.317-0.158-0.649-0.29-0.977-0.424c-0.169-0.069-0.348-0.112-0.518-0.179c-0.129-0.051-0.196-0.202-0.175-0.351
		c0.022-0.158,0.106-0.247,0.257-0.275c0.254-0.047,0.418,0.047,0.549,0.313C22.508,31.43,22.883,31.43,23.257,31.43z M38.227,28.98
		c-0.321,0.211-0.624,0.407-0.922,0.61c-0.03,0.02-0.051,0.085-0.043,0.122c0.043,0.206,0.092,0.412,0.148,0.615
		c0.03,0.111,0.004,0.16-0.113,0.185c-0.282,0.061-0.562,0.136-0.863,0.21c0.161,0.229,0.312,0.441,0.462,0.655
		c0.167,0.237,0.166,0.237,0.44,0.174c0.064-0.015,0.131-0.022,0.192-0.045c0.119-0.045,0.167,0,0.195,0.117
		c0.119,0.516,0.245,1.031,0.369,1.546c0.114,0.473,0.229,0.946,0.346,1.431c0.429-0.104,0.848-0.204,1.266-0.308
		c0.025-0.006,0.057-0.051,0.058-0.078c0.005-0.21,0.003-0.419,0.003-0.645c-0.105,0.03-0.184,0.044-0.257,0.074
		c-0.129,0.054-0.183,0.012-0.214-0.122c-0.163-0.713-0.33-1.425-0.502-2.136c-0.031-0.129-0.007-0.183,0.13-0.211
		c0.306-0.062,0.608-0.141,0.922-0.216c-0.091-0.344-0.179-0.672-0.268-1.008c-0.307,0.075-0.6,0.14-0.889,0.221
		c-0.135,0.038-0.182-0.004-0.21-0.133C38.399,29.692,38.313,29.347,38.227,28.98z M27.792,31.959c-0.362,0-0.727-0.003-1.092,0.002
		c-0.103,0.001-0.17-0.027-0.233-0.116c-0.185-0.261-0.441-0.403-0.767-0.386c-0.448,0.023-0.788,0.346-0.867,0.814
		c-0.072,0.427,0.177,0.874,0.576,1.037c0.402,0.163,0.816,0.021,1.093-0.363c0.036-0.05,0.118-0.092,0.18-0.094
		c0.333-0.009,0.666-0.004,0.999-0.005c0.04,0,0.08-0.004,0.111-0.006C27.792,32.545,27.792,32.261,27.792,31.959z"/>
	<path class="st3" d="M14.535,41.324c-0.153-0.063-0.305-0.126-0.47-0.193c0.102-0.288,0.203-0.578,0.306-0.867
		c0.206-0.576,0.415-1.151,0.616-1.728c0.035-0.101,0.082-0.14,0.189-0.13c0.157,0.014,0.353-0.041,0.462,0.035
		c0.103,0.071,0.117,0.273,0.168,0.418c0.253,0.713,0.505,1.426,0.757,2.139c0.015,0.044,0.028,0.088,0.043,0.137
		c-0.158,0.064-0.312,0.127-0.466,0.189c-0.009,0-0.019,0-0.028,0c-0.053-0.178-0.111-0.355-0.158-0.535
		c-0.021-0.079-0.059-0.101-0.137-0.1c-0.318,0.004-0.636,0.004-0.954,0c-0.081-0.001-0.115,0.026-0.136,0.103
		c-0.05,0.179-0.109,0.355-0.164,0.533C14.554,41.324,14.545,41.324,14.535,41.324z M15.339,39.058
		c-0.139,0.395-0.269,0.762-0.402,1.139c0.277,0,0.537,0,0.811,0C15.614,39.823,15.482,39.456,15.339,39.058z"/>
	<path class="st1" d="M16.3,32.257c0.504-0.325,1-0.661,1.513-0.97c0.432-0.26,0.885-0.485,1.325-0.733
		c0.171-0.096,0.345-0.1,0.527-0.064c0.127,0.025,0.255,0.049,0.413,0.08c-0.843,0.792-1.816,1.383-2.646,2.175
		c0.752,0.59,1.66,0.804,2.532,1.195c-0.102,0.07-0.175,0.149-0.264,0.175c-0.371,0.111-0.746,0.209-1.122,0.305
		c-0.122,0.031-0.251,0.031-0.374,0.06c-0.337,0.078-0.631-0.096-0.943-0.158c-0.624-0.125-1.245-0.266-1.87-0.388
		c-0.191-0.037-0.342,0.071-0.464,0.211c-0.077,0.088-0.147,0.183-0.214,0.279c-0.147,0.211-0.351,0.32-0.602,0.341
		c-0.149,0.013-0.299,0.017-0.449,0.018c-0.104,0-0.262-0.201-0.255-0.342c0.006-0.12,0.021-0.247,0.067-0.356
		c0.105-0.246,0.091-0.48-0.008-0.721c-0.101-0.247-0.132-0.499,0.003-0.746c0.023-0.042,0.062-0.09,0.104-0.104
		c0.233-0.078,0.409-0.23,0.551-0.42c0.12-0.161,0.232-0.33,0.325-0.507c0.229-0.434,0.444-0.876,0.669-1.312
		c0.058-0.112,0.127-0.218,0.2-0.322c0.129-0.184,0.286-0.322,0.534-0.303c0.069,0.005,0.14-0.017,0.21-0.015
		c0.181,0.006,0.327-0.065,0.453-0.189c0.127-0.124,0.279-0.182,0.458-0.18c0.267,0.003,0.535-0.001,0.802,0.003
		c0.04,0.001,0.099,0.018,0.115,0.047c0.014,0.026-0.008,0.086-0.032,0.117c-0.38,0.5-0.766,0.996-1.143,1.498
		c-0.202,0.27-0.379,0.557-0.474,0.886C16.176,32.047,16.178,32.06,16.3,32.257z"/>
	<path class="st1" d="M9.144,34.69c-0.284,0-0.476-0.007-0.668,0.001c-0.458,0.02-0.813-0.462-0.734-0.839
		c0.049-0.232,0.121-0.46,0.183-0.69c0.037-0.135,0.076-0.27,0.112-0.405c0.032-0.122,0.035-0.238-0.048-0.347
		c-0.094-0.123-0.002-0.195,0.092-0.241c0.314-0.155,0.635-0.296,0.95-0.449c0.624-0.302,1.271-0.231,1.914-0.101
		c0.421,0.085,0.834,0.21,1.249,0.322c0.089,0.024,0.174,0.068,0.258,0.11c0.333,0.168,0.387,0.312,0.24,0.656
		c-0.156,0.366-0.411,0.663-0.706,0.918c-0.301,0.259-0.622,0.497-0.946,0.728c-0.255,0.182-0.562,0.228-0.865,0.261
		C9.802,34.653,9.427,34.67,9.144,34.69z M10.571,32.973c-0.336-0.197-0.699-0.254-1.069-0.266c-0.31-0.01-0.342,0.025-0.414,0.318
		c-0.044,0.179,0.038,0.342,0.21,0.405C9.601,33.54,10.341,33.433,10.571,32.973z"/>
	<path class="st4" d="M18.915,41.235c-0.16-0.58-0.314-1.144-0.469-1.708c-0.008-0.001-0.016-0.002-0.023-0.004
		c-0.151,0.57-0.302,1.139-0.454,1.711c-0.21,0-0.407,0.003-0.604-0.003c-0.033-0.001-0.084-0.041-0.094-0.072
		c-0.26-0.874-0.517-1.749-0.779-2.643c0.162-0.057,0.321-0.113,0.495-0.174c0.211,0.726,0.418,1.442,0.637,2.194
		c0.191-0.688,0.372-1.341,0.555-2c0.167,0,0.335,0,0.52,0c0.179,0.65,0.36,1.307,0.553,2.004c0.216-0.754,0.42-1.469,0.628-2.195
		c0.168,0.057,0.325,0.111,0.491,0.168c-0.156,0.546-0.31,1.085-0.465,1.624c-0.096,0.333-0.195,0.664-0.286,0.998
		c-0.021,0.077-0.052,0.105-0.134,0.102C19.298,41.231,19.111,41.235,18.915,41.235z"/>
	<path class="st4" d="M27.958,38.479c0.13-0.044,0.262-0.088,0.398-0.134c0.166,0.265,0.327,0.522,0.488,0.78
		c0.161,0.258,0.322,0.515,0.491,0.784c0.33-0.528,0.653-1.043,0.98-1.565c0.135,0.046,0.267,0.09,0.401,0.135
		c-0.092,0.909-0.018,1.818-0.051,2.736c-0.174,0-0.349,0-0.538,0c0-0.507,0-1.011,0-1.514c-0.01-0.004-0.02-0.007-0.03-0.011
		c-0.251,0.362-0.502,0.724-0.761,1.097c-0.258-0.371-0.508-0.731-0.782-1.126c0,0.542,0,1.044,0,1.555c-0.191,0-0.366,0-0.543,0
		C27.977,40.306,28.053,39.401,27.958,38.479z"/>
	<path class="st3" d="M27.493,39.782c0,0.202,0,0.403,0,0.605c0,0.462-0.197,0.719-0.653,0.83c-0.363,0.089-0.725,0.078-1.076-0.061
		c-0.293-0.116-0.437-0.338-0.436-0.654c0.001-0.427,0-0.853,0-1.28c0-0.481,0.187-0.727,0.658-0.836
		c0.362-0.083,0.726-0.074,1.076,0.064c0.286,0.113,0.43,0.334,0.431,0.642C27.493,39.322,27.493,39.552,27.493,39.782z
		 M25.874,39.801c0,0.207,0.003,0.413-0.001,0.62c-0.003,0.158,0.074,0.258,0.216,0.31c0.205,0.075,0.414,0.077,0.62,0.009
		c0.179-0.059,0.248-0.158,0.248-0.346c0.002-0.39,0.002-0.779,0-1.169c-0.001-0.187-0.067-0.309-0.247-0.345
		c-0.183-0.036-0.382-0.041-0.565-0.009c-0.205,0.035-0.27,0.155-0.271,0.366C25.873,39.426,25.874,39.614,25.874,39.801z"/>
	<path class="st3" d="M31.248,41.216c0-0.941,0-1.869,0-2.807c0.629,0,1.254,0,1.886,0c0,0.161,0,0.319,0,0.489
		c-0.445,0-0.888,0-1.338,0c0,0.184,0,0.355,0,0.537c0.302,0,0.605,0,0.92,0c0,0.166,0,0.322,0,0.492c-0.301,0-0.604,0-0.917,0
		c0,0.273,0,0.533,0,0.806c0.439,0,0.882,0,1.334,0c0,0.166,0,0.319,0,0.483C32.508,41.216,31.883,41.216,31.248,41.216z"/>
	<path class="st4" d="M22.625,41.219c-0.628,0-1.251,0-1.883,0c0-0.936,0-1.871,0-2.813c0.626,0,1.252,0,1.885,0
		c0,0.163,0,0.321,0,0.494c-0.449,0-0.896,0-1.348,0c0,0.186,0,0.357,0,0.542c0.313,0,0.621,0,0.935,0c0,0.166,0,0.319,0,0.485
		c-0.309,0-0.618,0-0.933,0c0,0.274,0,0.534,0,0.806c0.447,0,0.891,0,1.344,0C22.625,40.896,22.625,41.049,22.625,41.219z"/>
	<path class="st4" d="M24.929,38.634c-0.072,0.145-0.139,0.277-0.193,0.386c-0.302-0.067-0.587-0.14-0.875-0.19
		c-0.256-0.045-0.376,0.05-0.403,0.284c-0.019,0.163,0.044,0.254,0.207,0.293c0.205,0.049,0.413,0.087,0.614,0.146
		c0.137,0.04,0.277,0.091,0.397,0.167c0.302,0.193,0.344,0.494,0.302,0.819c-0.041,0.315-0.204,0.536-0.51,0.646
		c-0.536,0.193-1.226,0.025-1.577-0.394c0.064-0.129,0.131-0.262,0.203-0.407c0.235,0.199,0.491,0.338,0.786,0.391
		c0.335,0.06,0.554-0.109,0.566-0.43c0.006-0.166-0.056-0.251-0.22-0.292c-0.227-0.057-0.455-0.11-0.682-0.166
		c-0.598-0.149-0.854-0.805-0.484-1.276c0.084-0.107,0.223-0.208,0.352-0.233C23.941,38.274,24.438,38.409,24.929,38.634z"/>
	<path class="st5" d="M7.437,41.211c-0.134,0-0.255,0-0.385,0c0-0.924,0-1.85,0-2.783c0.618,0,1.235,0,1.863,0
		c0,0.11,0,0.214,0,0.33c-0.485,0-0.971,0-1.467,0c0,0.255,0,0.5,0,0.755c0.343,0,0.684,0,1.036,0c0,0.114,0,0.218,0,0.337
		c-0.345,0-0.689,0-1.046,0C7.437,40.311,7.437,40.759,7.437,41.211z"/>
	<path class="st4" d="M13.044,38.522c-0.288,0.559-0.567,1.109-0.854,1.654c-0.072,0.136-0.116,0.269-0.108,0.425
		c0.011,0.201,0.003,0.403,0.003,0.614c-0.133,0-0.261,0-0.399,0c0-0.242,0.003-0.48-0.002-0.718
		c-0.002-0.067-0.018-0.14-0.048-0.199c-0.288-0.566-0.581-1.13-0.873-1.695c-0.012-0.024-0.023-0.05-0.038-0.083
		c0.115-0.049,0.225-0.096,0.343-0.146c0.271,0.541,0.536,1.071,0.816,1.63c0.277-0.551,0.545-1.085,0.817-1.628
		C12.816,38.425,12.922,38.47,13.044,38.522z"/>
	<path class="st6" d="M9.622,40.892c0.48,0,0.943,0,1.416,0c0,0.111,0,0.216,0,0.328c-0.599,0-1.198,0-1.805,0
		c0-0.929,0-1.856,0-2.79c0.124,0,0.249,0,0.389,0C9.622,39.248,9.622,40.067,9.622,40.892z"/>
	<path class="st7" d="M20.17,14.507c0.543,0.578,1.16,1.06,1.881,1.392c0.397,0.183,0.818,0.315,1.228,0.47
		c0.052,0.02,0.106,0.035,0.158,0.052c0.01,0.05,0.02,0.099,0.03,0.149c0.065,0.305,0.157,0.606,0.187,0.914
		c0.04,0.412-0.036,0.821-0.174,1.211c-0.215,0.606-0.558,1.125-1.054,1.545c-0.686,0.582-1.479,0.881-2.371,0.912
		c-0.495,0.017-0.976-0.087-1.432-0.282c-0.833-0.357-1.417-0.96-1.739-1.808c-0.214-0.565-0.231-1.148-0.124-1.738
		c0.145,0.002,0.291,0.008,0.436,0.004c0.156-0.004,0.246-0.091,0.269-0.251c-0.388-0.02-0.775-0.038-1.162-0.062
		c-2.192-0.135-4.357-0.432-6.449-1.13c-1.248-0.417-2.428-0.972-3.466-1.795c-1.106-0.877-1.918-1.958-2.284-3.341
		c-0.179-0.677-0.239-1.364-0.109-2.065c0.03,0.111,0.058,0.222,0.089,0.332c0.252,0.873,0.653,1.656,1.371,2.243
		c0.333,0.273,0.704,0.473,1.136,0.556c-0.136-0.085-0.275-0.165-0.407-0.255c-0.943-0.646-1.462-1.562-1.674-2.666
		C4.285,7.718,4.403,6.557,4.667,5.405C4.749,5.05,4.861,4.701,4.961,4.35c0.017-0.061,0.043-0.121,0.081-0.182
		c0.025,1.538,0.42,2.981,1.095,4.361c-0.865-2.488-0.349-4.74,1.121-6.829C7.272,1.7,7.287,1.702,7.301,1.703
		C7.298,1.754,7.297,1.805,7.292,1.856c-0.09,1.102,0.023,2.192,0.212,3.275c0.077,0.443,0.177,0.882,0.268,1.323
		c0.004,0.019,0.02,0.036,0.031,0.053C7.877,6.81,7.932,7.119,8.029,7.413c0.16,0.483,0.323,0.968,0.528,1.433
		c0.274,0.623,0.654,1.185,1.082,1.717c0.419,0.521,0.888,0.99,1.4,1.414c0.687,0.568,1.431,1.053,2.219,1.468
		c0.814,0.428,1.652,0.804,2.528,1.084c0.809,0.259,1.632,0.476,2.45,0.706c0.147,0.041,0.301,0.056,0.452,0.083
		c0.142,0.088,0.284,0.177,0.427,0.267c0.066-0.175,0.025-0.3-0.124-0.392c-0.139-0.086-0.279-0.171-0.418-0.256
		C19.076,14.685,19.598,14.502,20.17,14.507z"/>
	<path class="st7" d="M18.96,10.31c0.02-0.619,0.156-1.216,0.336-1.805c0.193-0.63,0.46-1.227,0.811-1.787
		c0.012-0.02,0.025-0.04,0.035-0.061c0.003-0.007-0.003-0.017-0.012-0.066c-0.122,0.134-0.231,0.247-0.333,0.368
		c-0.102,0.122-0.195,0.251-0.292,0.377c-0.594-0.518-1.332-0.571-2.067-0.632c-0.093-0.008-0.188-0.005-0.281-0.007
		c-0.002,0-0.004-0.007-0.014-0.025c0.598-0.4,1.247-0.597,1.983-0.527c-0.037-0.02-0.072-0.043-0.11-0.061
		c-0.496-0.229-1.025-0.325-1.565-0.367c-1.221-0.095-2.424,0.044-3.622,0.267c-0.037,0.007-0.074,0.014-0.111,0.02
		c-0.009,0.001-0.018-0.003-0.056-0.01c0.7-0.464,1.42-0.843,2.192-1.116c0.776-0.273,1.569-0.441,2.42-0.374
		c-0.095-0.074-0.18-0.173-0.287-0.218c-0.306-0.127-0.616-0.245-0.933-0.34c-0.246-0.073-0.504-0.105-0.748-0.154
		c0.799-0.395,3.393-1.137,5.807-0.333c-0.474-0.51-1.063-0.79-1.672-1.045c1.316-0.34,3.555,0.313,4.168,1.202
		c-0.409,0.268-0.818,0.536-1.227,0.804c0.006,0.012,0.012,0.024,0.018,0.035c0.044-0.015,0.091-0.025,0.133-0.044
		c0.699-0.329,1.424-0.575,2.187-0.701c0.083-0.014,0.167-0.017,0.251-0.025c0.154,0.021,0.309,0.04,0.463,0.064
		c0.735,0.115,1.442,0.315,2.093,0.684c0.085,0.048,0.156,0.12,0.234,0.181c-0.697,0.097-0.883,0.649-0.865,1.167
		c0.028,0.813,0.383,1.495,0.88,2.116c0.023,0.029,0.048,0.058,0.071,0.087c0.003,0.003,0.003,0.009,0.007,0.022
		c-0.071,0.051-0.146,0.105-0.206,0.148c-0.251-0.316-0.485-0.644-0.754-0.942c-0.531-0.59-1.159-1.04-1.956-1.197
		c-0.569-0.112-1.133-0.078-1.664,0.174c-0.657,0.312-1.006,0.95-0.944,1.676c0.069,0.813,0.443,1.481,0.979,2.07
		c0.523,0.574,1.161,0.985,1.877,1.287c-0.162,0.649,0.188,1.096,0.624,1.476c0.354,0.309,0.759,0.561,1.141,0.839
		c-0.026,0.025-0.048,0.06-0.079,0.075c-0.411,0.19-0.815,0.402-1.238,0.559c-0.569,0.212-1.165,0.319-1.773,0.373
		c-0.466,0.041-0.926,0.019-1.382-0.045c-0.663-0.093-1.302-0.283-1.899-0.603c-0.557-0.299-1.054-0.666-1.471-1.146
		c-0.562-0.648-0.923-1.388-1.072-2.232C19.024,10.445,18.987,10.378,18.96,10.31z"/>
	<path class="st8" d="M17.153,13.974c-0.447-0.349-0.905-0.685-1.338-1.05c-1.398-1.18-2.639-2.506-3.651-4.037
		c-0.895-1.355-1.558-2.81-1.893-4.406c-0.021-0.098-0.049-0.184,0.045-0.281c1.032-1.065,2.211-1.927,3.545-2.575
		c1.5-0.729,3.083-1.14,4.748-1.227c2.057-0.107,4.024,0.266,5.896,1.127c1.012,0.466,1.941,1.062,2.792,1.779
		c0.031,0.026,0.061,0.055,0.109,0.1c-0.163,0-0.304-0.005-0.444,0.001c-0.431,0.019-0.861,0.044-1.291,0.064
		c-0.173,0.008-0.346,0.007-0.519,0.008c-0.047,0-0.105-0.022-0.138-0.001c-0.144,0.089-0.211-0.006-0.299-0.096
		c-0.562-0.573-1.254-0.912-2.026-1.097c-0.795-0.191-1.598-0.192-2.406-0.102c-0.288,0.032-0.575,0.062-0.888,0.096
		c0.564,0.219,1.102,0.427,1.639,0.635c-0.004,0.018-0.008,0.036-0.013,0.054c-1.991-0.302-3.858,0.128-5.679,0.95
		c0.681,0.094,1.359,0.133,2.009,0.365c-1.854,0.221-3.368,1.175-4.823,2.192c0.874-0.153,1.768-0.334,2.669-0.459
		c0.906-0.126,1.82-0.149,2.734-0.006c-0.271,0.135-0.544,0.253-0.798,0.402c-0.256,0.149-0.495,0.329-0.737,0.511
		c0.86,0.003,1.717-0.023,2.541,0.314c-0.292,0.665-0.446,1.345-0.465,2.068c-0.11-0.325-0.224-0.649-0.329-0.975
		c-0.063-0.196-0.117-0.396-0.166-0.596c-0.03-0.121-0.092-0.199-0.219-0.196c-0.121,0.003-0.181,0.085-0.205,0.197
		c-0.137,0.645-0.207,1.297-0.181,1.957c0.014,0.354,0.053,0.708,0.085,1.106c-0.101-0.225-0.191-0.413-0.271-0.605
		c-0.07-0.169-0.134-0.341-0.192-0.514c-0.041-0.122-0.109-0.202-0.244-0.181c-0.127,0.02-0.171,0.11-0.174,0.234
		c-0.018,0.993,0.112,1.964,0.434,2.907c0.01,0.03,0.021,0.061,0.031,0.09c-0.216,0.105-0.248,0.162-0.174,0.387
		c0.093,0.284,0.2,0.564,0.302,0.846C17.165,13.962,17.159,13.967,17.153,13.974z"/>
	<path class="st8" d="M10.943,21.985c0.394,0.057,0.787,0.115,1.189,0.173c-0.006,0.012-0.012,0.028-0.022,0.041
		c-0.146,0.191-0.079,0.409,0.156,0.446c0.282,0.044,0.569,0.08,0.853,0.075c0.674-0.013,1.348-0.052,2.022-0.08
		c0.023-0.001,0.045,0,0.067,0c0.003,0.014,0.008,0.024,0.005,0.031c-0.091,0.255,0.004,0.411,0.277,0.435
		c0.468,0.041,0.928-0.028,1.381-0.131c0.333-0.076,0.657-0.188,0.987-0.277c0.054-0.015,0.134-0.013,0.175,0.017
		c1.934,1.445,4.657,1.355,6.606-0.142c1.16-0.89,1.872-2.058,2.085-3.512c0.117-0.803,0.028-1.59-0.258-2.352
		c-0.016-0.043-0.031-0.087-0.045-0.127c0.367-0.081,0.732-0.146,1.088-0.244c1.287-0.353,2.434-0.968,3.433-1.856
		c0.071-0.063,0.174-0.095,0.267-0.128c0.065-0.023,0.138-0.024,0.207-0.036c0.068-0.011,0.136-0.024,0.231-0.04
		c-0.056,0.337-0.099,0.661-0.165,0.981c-0.503,2.467-1.641,4.599-3.427,6.371c-1.928,1.912-4.24,3.106-6.931,3.48
		c-3.827,0.532-7.213-0.493-10.134-3.033c-0.024-0.021-0.043-0.048-0.064-0.073C10.932,21.998,10.938,21.991,10.943,21.985z"/>
	<path class="st9" d="M18.688,15.318c-0.151-0.027-0.305-0.042-0.452-0.083c-0.818-0.23-1.641-0.448-2.45-0.706
		c-0.875-0.28-1.714-0.656-2.528-1.084c-0.789-0.415-1.533-0.9-2.219-1.468c-0.513-0.424-0.981-0.893-1.4-1.414
		c-0.428-0.532-0.808-1.094-1.082-1.717c-0.205-0.465-0.368-0.95-0.528-1.433C7.932,7.119,7.877,6.81,7.803,6.507
		C7.782,6.265,7.758,6.023,7.742,5.781C7.643,4.302,7.952,2.947,8.96,1.808c0.239-0.271,0.51-0.507,0.845-0.699
		C9.792,1.395,9.778,1.662,9.768,1.93C9.742,2.695,9.806,3.453,9.954,4.203c0.462,2.333,1.595,4.331,3.089,6.144
		c1.587,1.926,3.47,3.521,5.545,4.897C18.623,15.267,18.655,15.294,18.688,15.318z"/>
	<path class="st10" d="M7.052,15.039c0.536,0.262,1.061,0.545,1.605,0.78c1.281,0.553,2.627,0.883,4,1.112
		c1.232,0.206,2.473,0.317,3.735,0.373c-0.352,1.102-0.352,2.197,0.054,3.303c-0.17,0.052-0.332,0.106-0.497,0.151
		c-1.138,0.311-2.299,0.389-3.472,0.318c-0.929-0.057-1.844-0.211-2.746-0.437c-0.078-0.02-0.162-0.075-0.212-0.138
		c-1.266-1.606-2.084-3.416-2.462-5.425C7.053,15.058,7.052,15.039,7.052,15.039z"/>
	<path class="st11" d="M16.76,17.323c-0.107,0.59-0.09,1.173,0.124,1.738c0.322,0.848,0.905,1.451,1.739,1.808
		c0.456,0.195,0.937,0.299,1.432,0.282c0.892-0.03,1.685-0.33,2.371-0.912c0.495-0.42,0.838-0.939,1.054-1.545
		c0.139-0.39,0.215-0.799,0.174-1.211c-0.03-0.308-0.123-0.61-0.187-0.914c-0.011-0.05-0.02-0.099-0.03-0.149
		c0.388,0.061,0.775,0.15,1.166,0.177c0.461,0.032,0.926,0.016,1.39,0.008c0.1-0.002,0.148,0.013,0.184,0.111
		c0.585,1.563,0.391,3.05-0.545,4.404c-1.151,1.665-2.789,2.456-4.805,2.328c-1.742-0.111-3.1-0.933-3.926-2.505
		c-0.594-1.131-0.638-2.324-0.252-3.536C16.666,17.354,16.678,17.291,16.76,17.323z"/>
	<path class="st8" d="M28.133,11.76c0.03-0.052,0.073-0.101,0.087-0.157c0.013-0.052-0.004-0.112-0.008-0.169
		c-0.05,0.02-0.123,0.024-0.148,0.061c-0.163,0.242-0.256,0.511-0.261,0.804c-0.001,0.047,0.05,0.094,0.077,0.141
		c0.038-0.043,0.078-0.085,0.111-0.131c0.012-0.017,0.008-0.045,0.01-0.062c0.308,0.187,0.605,0.393,0.924,0.556
		c1.058,0.544,2.164,0.72,3.323,0.375c0.2-0.06,0.389-0.159,0.58-0.248c0.055-0.026,0.098-0.077,0.146-0.117
		c-0.006-0.01-0.013-0.02-0.019-0.03c-0.224,0.085-0.444,0.185-0.673,0.251c-0.232,0.066-0.474,0.098-0.72,0.147
		c-0.102-0.453-0.216-0.873-0.476-1.244c0.256-0.092,0.503-0.183,0.752-0.267c0.026-0.009,0.071,0.015,0.098,0.035
		c0.529,0.398,1.117,0.664,1.772,0.772c0.118,0.019,0.117,0.092,0.064,0.158c-0.139,0.176-0.273,0.36-0.439,0.509
		c-0.836,0.749-1.819,1.104-2.942,1.021c-0.854-0.063-1.626-0.384-2.352-0.822c-0.463-0.279-0.914-0.575-1.278-0.982
		c-0.12-0.135-0.229-0.287-0.313-0.446c-0.193-0.367-0.11-0.718,0.213-0.977c0.275-0.22,0.592-0.344,0.942-0.359
		c0.145-0.006,0.176-0.072,0.199-0.192c0.091-0.475,0.241-0.93,0.449-1.369c0.298-0.626,0.764-0.973,1.472-1.021
		c1.57-0.105,3.131-0.051,4.683,0.206c0.184,0.03,0.361,0.097,0.541,0.149c0.102,0.029,0.137,0.1,0.092,0.194
		c-0.092,0.194-0.171,0.399-0.293,0.573c-0.628,0.9-1.46,1.568-2.422,2.08c-0.914,0.486-1.888,0.756-2.927,0.735
		c-0.419-0.009-0.836-0.076-1.254-0.116C28.142,11.799,28.138,11.78,28.133,11.76z M29.66,8.78c-0.002-0.02-0.004-0.04-0.006-0.06
		c-0.135,0-0.272-0.016-0.402,0.007c-0.063,0.011-0.126,0.087-0.167,0.148c-0.037,0.055-0.009,0.12,0.067,0.111
		C29.34,8.965,29.506,8.883,29.66,8.78z"/>
	<path class="st12" d="M18.96,10.31c0.026,0.069,0.064,0.135,0.077,0.206c0.149,0.845,0.51,1.584,1.072,2.232
		c0.416,0.48,0.914,0.848,1.471,1.146c0.597,0.32,1.235,0.51,1.899,0.603c0.456,0.064,0.916,0.086,1.382,0.045
		c0.609-0.053,1.204-0.161,1.773-0.373c0.424-0.157,0.827-0.369,1.238-0.559c0.031-0.014,0.053-0.049,0.079-0.075
		c0.489,0.279,0.988,0.538,1.539,0.668c0.34,0.08,0.691,0.115,1.037,0.17c0.046,0.007,0.092,0.01,0.154,0.045
		c-0.258,0.191-0.509,0.393-0.776,0.571c-1.411,0.941-2.965,1.431-4.662,1.417c-1.616-0.014-3.095-0.469-4.342-1.527
		c-1.339-1.137-1.989-2.601-1.964-4.36C18.938,10.449,18.952,10.379,18.96,10.31z"/>
	<path class="st13" d="M27.867,7.499c-0.582-0.179-1.122-0.136-1.621,0.209c-0.34,0.236-0.56,0.562-0.659,0.965
		c-0.207,0.84,0.237,1.655,1.081,1.983c-0.127,0.121-0.254,0.24-0.393,0.372c-0.358-0.14-0.71-0.33-1.038-0.563
		C24.53,9.962,23.97,9.339,23.673,8.51c-0.128-0.358-0.182-0.727-0.108-1.106c0.119-0.614,0.566-1.037,1.231-1.175
		c0.933-0.194,1.741,0.077,2.459,0.666c0.188,0.154,0.354,0.334,0.529,0.503C27.816,7.428,27.84,7.466,27.867,7.499z"/>
	<path class="st14" d="M18.5,14.476c-0.188-0.187-0.392-0.36-0.56-0.563c-0.539-0.652-0.81-1.427-0.982-2.242
		c-0.122-0.575-0.173-1.158-0.181-1.745c-0.001-0.054,0.005-0.109,0.006-0.142c0.213,0.45,0.406,0.927,0.658,1.37
		c0.254,0.445,0.567,0.856,0.883,1.27c-0.895-1.467-0.858-3.039-0.55-4.648c0.018,0.06,0.039,0.12,0.055,0.181
		c0.203,0.772,0.473,1.519,0.837,2.231c0.027,0.052,0.047,0.116,0.044,0.173c-0.061,1.278,0.263,2.449,0.971,3.515
		c0.005,0.008,0.008,0.017,0.016,0.033c-0.164,0.075-0.332,0.144-0.492,0.227c-0.183,0.094-0.359,0.203-0.541,0.298
		c-0.049,0.026-0.111,0.027-0.167,0.039L18.5,14.476z"/>
	<path class="st15" d="M4.719,19.03c0.05,0.018,0.103,0.031,0.151,0.055c1.413,0.69,2.867,1.274,4.387,1.69
		c1.309,0.358,2.639,0.575,3.998,0.577c1.105,0.002,2.188-0.146,3.239-0.498c0.013-0.004,0.027-0.004,0.026-0.004
		c0.21,0.346,0.416,0.684,0.621,1.024c-0.718,0.469-4.255,0.844-4.852,0.498c0.638-0.032,1.281,0.022,1.856-0.312
		c0.057-0.033,0.104-0.086,0.179-0.15c-3.589,0.264-6.706-0.935-9.614-2.837C4.713,19.057,4.716,19.044,4.719,19.03z"/>
	<path class="st16" d="M31.698,7.623c-0.129,0.012-0.221,0.02-0.314,0.029c-0.092,0.009-0.184,0.02-0.291,0.032
		c0.084-0.444-0.01-0.836-0.315-1.163c-0.209-0.224-0.472-0.349-0.777-0.381c-0.557-0.059-1.285,0.265-1.399,1.229
		c-0.332-0.565-0.589-1.133-0.525-1.787c0.059-0.604,0.449-0.897,1.045-0.775c1.134,0.232,1.914,0.903,2.335,1.979
		C31.561,7.051,31.618,7.337,31.698,7.623z"/>
	<path class="st17" d="M28.76,4.615c-0.078-0.061-0.149-0.133-0.234-0.181c-0.651-0.369-1.358-0.569-2.093-0.684
		c-0.154-0.024-0.309-0.043-0.463-0.064c0.138-0.016,0.276-0.04,0.415-0.046c1.19-0.054,2.338,0.134,3.419,0.646
		c1.469,0.695,2.517,1.784,3.053,3.337c0.017,0.048,0.031,0.097,0.05,0.156c-0.355-0.015-0.696-0.029-1.004-0.042
		C31.798,7.367,31.73,7,31.593,6.661c-0.451-1.111-1.277-1.788-2.455-2.026C29.016,4.61,28.886,4.621,28.76,4.615z"/>
	<path class="st18" d="M28.196,12.034c0.416,0.033,0.84,0.1,1.262,0.091c0.442-0.009,0.883-0.085,1.323-0.146
		c0.107-0.015,0.175-0.008,0.233,0.089c0.202,0.337,0.325,0.701,0.407,1.106C30.195,13.157,29.155,12.689,28.196,12.034z"/>
	<path class="st19" d="M15.421,22.824c0.674-0.148,1.298-0.398,1.816-0.819c0.172,0.159,0.332,0.308,0.507,0.47
		C16.98,22.728,16.224,22.904,15.421,22.824z"/>
	<path class="st20" d="M18.497,14.472c-0.002,0.027,0.006,0.067-0.009,0.078c-0.08,0.064-0.166,0.12-0.255,0.184
		c-0.206-0.139-0.412-0.277-0.615-0.418c-0.03-0.02-0.056-0.051-0.073-0.083c-0.214-0.39-0.379-0.8-0.505-1.266
		c0.117,0.184,0.209,0.338,0.31,0.486c0.269,0.395,0.585,0.741,1.012,0.971c0.043,0.023,0.093,0.034,0.139,0.051
		C18.5,14.476,18.497,14.472,18.497,14.472z"/>
	<path class="st19" d="M26.685,9.134c0,0.213-0.174,0.387-0.384,0.384c-0.21-0.003-0.373-0.167-0.376-0.376
		c-0.003-0.217,0.16-0.386,0.376-0.389C26.515,8.748,26.685,8.918,26.685,9.134z"/>
	<path class="st20" d="M18.711,9.313c-0.015-0.712,0.132-1.352,0.408-1.984c0.048,0.035,0.088,0.065,0.128,0.094
		c0.1,0.073,0.127,0.143,0.055,0.268c-0.258,0.445-0.429,0.925-0.543,1.427C18.748,9.171,18.734,9.224,18.711,9.313z"/>
	<path class="st17" d="M20.17,14.507c-0.572-0.005-1.094,0.178-1.597,0.43c-0.024-0.012-0.048-0.024-0.089-0.045
		c0.43-0.323,0.888-0.564,1.387-0.749C19.971,14.263,20.07,14.385,20.17,14.507z"/>
	<path class="st20" d="M29.699,7.107c0.003,0.163-0.116,0.288-0.275,0.292c-0.155,0.003-0.289-0.125-0.293-0.28
		c-0.004-0.153,0.126-0.288,0.281-0.292C29.571,6.823,29.697,6.946,29.699,7.107z"/>
	<path class="st17" d="M32.086,11.57c0.262-0.14,0.506-0.27,0.781-0.417c-0.097,0.255-0.184,0.483-0.28,0.735
		C32.412,11.777,32.254,11.676,32.086,11.57z"/>
	<path class="st8" d="M10.926,22.004c-0.006-0.007-0.012-0.015-0.019-0.022c0.012,0.001,0.024,0.002,0.036,0.003
		C10.938,21.991,10.932,21.998,10.926,22.004z"/>
	<path class="st21" d="M8.937,20.387c0.005,0.01,0.011,0.019,0.016,0.029c-0.012,0-0.024-0.001-0.037-0.001
		C8.923,20.406,8.93,20.397,8.937,20.387z"/>
	<path class="st8" d="M17.172,13.957c0.002,0.01,0.004,0.021,0.005,0.031c-0.008-0.005-0.016-0.01-0.024-0.015
		C17.159,13.967,17.165,13.962,17.172,13.957z"/>
	<path class="st22" d="M30.136,30.189c1.303,0.026,2.306,1.044,2.286,2.275c-0.02,1.249-1.037,2.247-2.279,2.236
		c-0.923-0.008-1.778-0.602-2.078-1.476c-0.06-0.175-0.099-0.369-0.13-0.554c-0.033-0.199-0.019-0.414,0.018-0.614
		c0.087-0.469,0.29-0.885,0.641-1.221c0.35-0.334,0.759-0.545,1.237-0.616C29.948,30.202,30.065,30.196,30.136,30.189z
		 M31.244,32.42c0-0.618-0.465-1.107-1.055-1.108c-0.578,0-1.052,0.493-1.055,1.098c-0.004,0.61,0.47,1.104,1.059,1.104
		C30.779,33.514,31.244,33.03,31.244,32.42z"/>
	<path class="st22" d="M37.078,32.453c0,1.006-0.686,1.903-1.653,2.164c-0.991,0.267-2.033-0.159-2.542-1.038
		c-0.515-0.89-0.372-1.996,0.352-2.721c0.787-0.788,2.018-0.889,2.907-0.24c0.038,0.027,0.08,0.054,0.106,0.091
		c0.233,0.329,0.494,0.643,0.684,0.996c0.117,0.217,0.126,0.492,0.183,0.741C37.103,32.448,37.09,32.45,37.078,32.453z
		 M33.798,32.412c-0.001,0.61,0.464,1.1,1.045,1.102c0.593,0.002,1.064-0.484,1.065-1.097c0.001-0.612-0.477-1.109-1.06-1.105
		C34.265,31.317,33.799,31.804,33.798,32.412z"/>
	<path class="st22" d="M27.862,31.818c-0.402,0-0.791,0.002-1.179-0.004c-0.039-0.001-0.087-0.047-0.116-0.084
		c-0.332-0.417-0.882-0.54-1.323-0.291c-0.481,0.271-0.69,0.868-0.486,1.389c0.195,0.499,0.704,0.779,1.211,0.661
		c0.257-0.06,0.459-0.205,0.617-0.416c0.025-0.034,0.066-0.079,0.101-0.08c0.398-0.006,0.796-0.004,1.194-0.004
		c-0.083,0.894-1.176,1.732-2.217,1.709c-1.161-0.025-2.157-0.984-2.198-2.115c-0.045-1.233,0.816-2.259,2.003-2.381
		C26.791,30.07,27.679,31.027,27.862,31.818z"/>
	<path class="st22" d="M23.257,31.43c-0.375,0-0.749,0-1.125,0c-0.131-0.266-0.295-0.36-0.549-0.313
		c-0.151,0.028-0.235,0.118-0.257,0.275c-0.021,0.149,0.046,0.3,0.175,0.351c0.17,0.067,0.349,0.11,0.518,0.179
		c0.329,0.134,0.66,0.266,0.977,0.424c0.199,0.099,0.313,0.265,0.372,0.508c0.098,0.405,0.055,0.759-0.18,1.094
		c-0.258,0.368-0.626,0.561-1.058,0.632c-0.524,0.087-1.033,0.053-1.478-0.278c-0.313-0.233-0.494-0.552-0.588-0.946
		c0.389,0,0.759-0.003,1.128,0.004c0.038,0.001,0.084,0.048,0.112,0.084c0.18,0.238,0.458,0.32,0.711,0.203
		c0.265-0.122,0.315-0.405,0.074-0.564c-0.224-0.148-0.48-0.248-0.727-0.359c-0.213-0.096-0.444-0.157-0.647-0.269
		c-0.739-0.406-0.813-1.288-0.163-1.83c0.321-0.268,0.705-0.368,1.108-0.391c0.218-0.013,0.444-0.007,0.657,0.037
		C22.863,30.382,23.213,30.826,23.257,31.43z"/>
	<path class="st22" d="M38.227,28.98c0.086,0.367,0.173,0.712,0.247,1.06c0.028,0.129,0.075,0.171,0.21,0.133
		c0.289-0.081,0.582-0.145,0.889-0.221c0.089,0.336,0.177,0.664,0.268,1.008c-0.314,0.075-0.616,0.154-0.922,0.216
		c-0.136,0.028-0.161,0.081-0.13,0.211c0.172,0.711,0.34,1.423,0.502,2.136c0.03,0.134,0.085,0.175,0.214,0.122
		c0.073-0.03,0.151-0.045,0.257-0.074c0,0.226,0.002,0.436-0.003,0.645c-0.001,0.027-0.033,0.072-0.058,0.078
		c-0.418,0.105-0.837,0.205-1.266,0.308c-0.117-0.485-0.232-0.958-0.346-1.431c-0.124-0.515-0.249-1.03-0.369-1.546
		c-0.027-0.118-0.075-0.162-0.195-0.117c-0.061,0.023-0.128,0.03-0.192,0.045c-0.274,0.064-0.274,0.064-0.44-0.174
		c-0.15-0.214-0.301-0.426-0.462-0.655c0.301-0.074,0.581-0.149,0.863-0.21c0.117-0.025,0.143-0.074,0.113-0.185
		c-0.056-0.203-0.105-0.409-0.148-0.615c-0.008-0.037,0.013-0.102,0.043-0.122C37.603,29.387,37.906,29.191,38.227,28.98z"/>
	<path class="st0" d="M29.66,8.78c-0.155,0.103-0.32,0.185-0.509,0.206c-0.076,0.008-0.104-0.057-0.067-0.111
		c0.041-0.061,0.104-0.137,0.167-0.148c0.131-0.023,0.268-0.007,0.402-0.007C29.656,8.74,29.658,8.76,29.66,8.78z"/>
	<path class="st23" d="M31.244,32.42c0,0.61-0.465,1.094-1.051,1.094c-0.59,0-1.063-0.493-1.059-1.104
		c0.004-0.605,0.478-1.098,1.055-1.098C30.779,31.312,31.245,31.801,31.244,32.42z M31.103,32.415c0-0.533-0.411-0.965-0.915-0.961
		c-0.501,0.003-0.921,0.448-0.914,0.968c0.006,0.521,0.42,0.952,0.914,0.953C30.695,33.376,31.103,32.948,31.103,32.415z"/>
	<path class="st23" d="M33.798,32.412c0.001-0.608,0.466-1.095,1.05-1.1c0.584-0.004,1.061,0.493,1.06,1.105
		c-0.001,0.613-0.472,1.099-1.065,1.097C34.262,33.512,33.797,33.022,33.798,32.412z M33.94,32.41
		c-0.001,0.533,0.407,0.964,0.912,0.964c0.502,0,0.92-0.438,0.918-0.963c-0.002-0.527-0.423-0.963-0.923-0.958
		C34.347,31.459,33.94,31.888,33.94,32.41z"/>
</g>
</svg>
