<?xml version="1.0" encoding="utf-8"?>
<!-- Generator: Adobe Illustrator 22.1.0, SVG Export Plug-In . SVG Version: 6.00 Build 0)  -->
<svg version="1.1" id="Слой_1" xmlns="http://www.w3.org/2000/svg" xmlns:xlink="http://www.w3.org/1999/xlink" x="0px" y="0px"
	 width="1803.9px" height="398px" viewBox="0 0 1803.9 398" enable-background="new 0 0 1803.9 398" xml:space="preserve">
<g>
	<g>
		<path fill="#221E20" d="M1270.4,244.9c4-2.6,7.7-3.6,11.3,0.2c1.7-0.8,3.1-2,5-2.4c4.7-0.9,7.5,1.5,7,6.3
			c-0.4,3.6-1.2,7.2-1.8,10.8c-0.3,1.9-1.5,3.2-3.4,2.8c-1.9-0.3-1.9-2.1-1.6-3.6c0.5-3,0.9-5.9,1.4-8.9c0.3-1.6,0.1-3.1-1.6-3.8
			c-1.6-0.6-2.9,0.4-3.9,1.6c-1.4,1.7-1.7,3.9-2,6c-0.3,2.1-0.5,4.3-1.1,6.4c-0.4,1.6-1.7,2.6-3.4,2.2c-1.7-0.4-1.7-1.8-1.5-3.2
			c0.5-3.1,1-6.2,1.5-9.4c0.3-1.6,0-3.1-1.7-3.7c-1.6-0.5-3,0.2-3.9,1.5c-1.2,1.6-1.7,3.6-2,5.6c-0.3,2.3-0.6,4.6-1.1,6.9
			c-0.4,1.6-1.7,2.6-3.3,2.3c-1.6-0.3-1.8-1.8-1.6-3.2c0.7-4.8,1.3-9.6,2.3-14.3C1265.7,242.2,1267.8,242.1,1270.4,244.9z"/>
		<path fill="#221E20" d="M1134.6,244.6c1.9-2.8,0.1-6.8,3.1-9.2c0.7-0.5,1.6-0.4,2.6,0.2c1.4,2.3,0,4.6-0.3,7
			c-0.7,5.1-1.4,10.2-2.2,15.3c-0.1,0.8-0.4,1.6-0.5,2.4c-0.2,1.3-1,2.1-2.2,2.4c-1.8,0.4-2.1-1.2-2.7-2.4c-1.8,0.4-3.1,1.8-4.9,2.2
			c-4.4,1-8-1.3-8.7-5.7c-1.1-7,2.3-12.8,8.1-14C1129.5,242.3,1130.6,242.5,1134.6,244.6z M1133.8,251.2c-0.1-2.9-1.9-5-4.4-5
			c-3.2,0-5.9,3.7-5.9,7.9c0,3,1.8,5,4.3,5C1130.9,259,1133.9,255.1,1133.8,251.2z"/>
		<path fill="#221E20" d="M864.1,244.9c2-3.6-0.4-8.8,5-9.9c1.1,0.9,1.3,1.8,1.2,2.6c-1.1,7.4-2.3,14.7-3.3,22.1
			c-0.2,1.5-0.9,2.5-2.3,3c-1.8,0.5-2.1-1.1-2.9-2.1c-0.9-0.3-1.4,0.5-2,0.9c-3,1.7-6,2.1-8.9,0c-2.7-1.9-3.2-4.9-2.9-8
			c0.6-6,4.1-10.1,9.2-10.8C859.7,242.3,861.9,243.3,864.1,244.9z M863,250.8c0.1-1.8-0.6-3.6-2.7-4.4c-2.4-0.8-4.2,0.3-5.6,2.2
			c-1.4,1.9-2.1,4.1-1.8,6.5c0.5,3.7,3.9,5.2,7,3C862.4,256.5,863,254,863,250.8z"/>
		<path fill="#221E20" d="M679,244.3c2.6-0.9,5.1-2.3,8.1-1.4c1.9,0.6,3.3,1.6,4.1,3.3c2.8,5.4-1,14.2-6.7,16.1
			c-3.2,1.1-5.8,0.2-8.2-1.8c-0.4,0.2-0.8,0.2-0.9,0.4c-1,1.2-1.9,2.5-3.7,1.3c-1.5-0.9-0.8-2.4-0.6-3.6c0.9-6.4,1.9-12.8,3-19.2
			c0.4-2.2,0.6-5,4.3-4.1c1.5,2.8-0.1,5.5-0.1,8.2c-0.2,0.5-0.4,0.9,0.2,1.2C678.5,245,678.8,244.5,679,244.3z M686.9,251.5
			c0.2-2-0.1-4.1-2.6-5.1c-1.9-0.8-4.4,0.3-5.9,2.5c-1.3,1.8-1.8,3.9-1.6,6.1c0.4,3.7,3.8,5.3,6.9,3.1
			C686,256.6,686.9,254.4,686.9,251.5z"/>
		<path fill="#221E20" d="M551.9,236.8c-0.9,3.6-3.8,2.5-6.1,2.6c-2.5,0.1-5,0-7.5,0c-1,2.2-1.6,4.2-1.4,6.6
			c3.4,1.4,7.2-0.3,10.9,1.2c0.2,3.9-2.7,3-4.7,3.1c-2.1,0.2-4.3-0.3-6.7,0.4c-0.8,2.4-1.2,5-1.6,7.5c-0.1,0.8-0.3,1.6-0.6,2.4
			c-0.5,1.4-1.7,2.2-3.1,1.9c-1.6-0.3-2-1.6-1.8-3.1c0.5-3.9,1.1-7.9,1.7-11.8c0.5-3.1,1.2-6.2,1.7-9.3c0.3-1.8,1.4-2.7,3-2.8
			c5-0.1,10-0.5,14.9,0.2C551.1,236,551.4,236.5,551.9,236.8z"/>
		<path fill="#221E20" d="M1237.3,260.6c-1.8,0.8-3.8,1.8-5.9,2.1c-3.5,0.5-6.1-0.8-6.9-3.4c-0.8-2.7,0.9-6,4.1-7
			c3.3-1,6.7-1.6,9.9-2.3c1.1-1.4,0.8-2.6-0.2-3.3c-1.8-1.2-3.8-0.9-5.7,0c-1,0.5-1.7,1.5-2.6,2.3c-1,0.9-2,1-3.1-0.1
			c-0.6-1.5,0.2-2.5,1.1-3.5c2.7-2.9,10.8-3.8,14.1-1.7c1.4,0.9,1.9,2.3,1.9,3.8c0.1,4.5-1.6,8.8-1.1,13.3c0.2,1.7-1.5,2.4-3.3,1.6
			C1238.8,262,1238.6,260.7,1237.3,260.6z M1238.7,253.5c-2.7-0.8-4.8,0.5-7,1c-1.4,0.3-2.6,1.6-2,3.4c0.6,1.7,2,2.1,3.6,1.7
			C1236.4,259,1238.1,256.9,1238.7,253.5z"/>
		<path fill="#221E20" d="M1204.8,256.3c0.8,1.5,0.2,2.4-0.4,3.1c-3.1,3.7-10.2,4.6-14.2,2c-1.7-1.1-2.7-2.6-3-4.4
			c-1.4-7.5,4.1-16.2,14.2-14c2.3,0.5,3.9,1.7,4.8,3.9c1.8,4.2,0.3,6.8-4.3,7.1c-3.1,0.2-6.3-0.4-9.4,0.3c-0.2,0-0.3,0.2-0.4,0.3
			c0.8,4.7,3.4,6.3,7.5,4.3C1201.2,258,1202.3,255.8,1204.8,256.3z M1201.5,251c-0.1-3.9-0.7-4.8-3.2-5c-3-0.2-4.5,1.2-5.1,5
			C1196,251,1198.7,251,1201.5,251z"/>
		<path fill="#221E20" d="M738.2,268.6c0.3-1.5,1.2-2,2.8-2.2c4.6-0.6,5.9-2.4,4.9-6.9c-0.8-3.4-1.7-6.7-2.5-10.1
			c-0.3-1.1-0.5-2.3-0.7-3.4c-0.3-1.7,0.3-3,2.1-3.3s2.3,1,2.6,2.3c0.8,3.7,1.5,7.4,2.4,11.8c2.9-3.7,4.1-7.4,6.1-10.7
			c1-1.6,1.6-4.4,4.1-3.2c2.7,1.4,0.4,3.5-0.4,5.1c-3.1,6-6.3,12-9.8,17.8C746.9,270.6,742.5,271.6,738.2,268.6z"/>
		<path fill="#221E20" d="M726.5,257c-2.2,5-7.4,7.1-13.1,5.3c-4.4-1.4-6-5-4.8-10.5c1.2-5.2,4.2-8.2,9.3-9
			c6.9-1.2,10.6,2.5,9.4,9.8c-4.3,2.8-9.4,0.3-13.9,1.8c0.5,4.7,2.9,6.4,6.7,4.7c1.2-0.5,2.2-1.4,3.3-2.2
			C724.6,256.1,725.6,255.8,726.5,257z M723,250.8c0.1-2.5-0.3-4.5-3.2-4.8s-4.2,0.8-5.7,4.9C717.1,251.1,720,251.4,723,250.8z"/>
		<path fill="#221E20" d="M597.1,256.3c1.8-1.6,2.4-4,3.6-5.9c1.2-2,2.1-4.1,3.3-6.1c0.7-1.2,1.8-2.1,3.3-1.1
			c1.2,0.8,0.9,2.1,0.4,3.1c-3.8,7-7.5,14-11.7,20.8c-2.4,4-6.8,4.3-10.6,1.6c0.3-1.9,1.6-2,3.3-2.1c3.5-0.3,5.2-2.6,4.4-6
			c-0.8-3.7-1.8-7.4-2.7-11.1c-0.3-1.3-0.6-2.6-0.7-3.9c-0.2-1.6,0.8-2.5,2.3-2.7s2.1,0.8,2.3,2c0.6,2.8,1.1,5.5,1.7,8.3
			C596.1,254.2,596.2,255.3,597.1,256.3z"/>
		<path fill="#221E20" d="M940.2,256.4c1.9-3.7,3.8-7.5,5.8-11.2c1-1.8,2.1-3.6,4.5-1.8c0.6,1.1,0.1,1.9-0.4,2.8
			c-3.6,6.5-6.9,13.2-10.7,19.6c-2.9,4.9-7.1,5.8-11.6,2.8c0.1-1.7,1.3-2.1,2.7-2.3c4.7-0.7,6-2.5,5-6.9c-0.9-3.7-1.9-7.4-2.8-11.1
			c-0.2-0.8-0.5-1.6-0.6-2.4c-0.3-1.8,0.6-2.9,2.2-3.3c1.7-0.4,2.3,0.7,2.6,2.2c0.7,3.7,1.5,7.4,2.3,11.1
			C939.6,256.2,939.9,256.3,940.2,256.4z"/>
		<path fill="#221E20" d="M796.3,251.4c-0.4,6.9-5.8,11.9-12.4,11.5c-5.4-0.3-8.5-3.7-8.2-9.1c0.4-6.8,6-11.8,12.6-11.3
			C793.7,242.9,796.6,246.2,796.3,251.4z M791.3,251.2c-0.1-2.1-0.6-4-2.9-4.8c-2.1-0.7-4,0-5.4,1.6c-1.7,2-2.5,4.3-2.2,6.9
			c0.4,4,4,5.6,7.3,3.2C790.5,256.5,791.1,253.9,791.3,251.2z"/>
		<path fill="#221E20" d="M965.7,253.9c0.2-6.6,5.2-11.6,11.8-11.4c5,0.2,8.9,2.4,8.4,9.2c-0.4,6.5-5.6,11.5-12.1,11.2
			C969.3,262.6,965.2,260.2,965.7,253.9z M981,252.4c0.1-3.7-0.8-5.4-2.7-6.1c-2.1-0.7-4.6,0.3-6.1,2.4c-1.3,1.9-1.5,4-1.4,6.2
			c0.1,1.8,0.8,3.3,2.5,3.9c1.6,0.6,3.3,0.4,4.7-0.7C980.1,256.5,980.9,254.3,981,252.4z"/>
		<path fill="#221E20" d="M820.6,245c0.5-0.2,0.9-0.4,1.3-0.7c2.8-1.9,5.9-2.6,8.9-0.7c3.1,2,2.2,5.2,1.8,8.2
			c-0.4,2.8-1,5.5-1.5,8.3c-0.3,1.7-1.3,2.9-3,2.6c-1.9-0.3-2-1.8-1.7-3.5c0.5-2.6,1-5.2,1.3-7.8c0.2-2,0.5-4.3-2-5
			c-2.4-0.7-4.2,0.8-5.3,2.7c-0.9,1.6-1.2,3.4-1.5,5.2c-0.3,2.1-0.6,4.3-1.1,6.3c-0.4,1.4-1.5,2.3-3,2s-2-1.6-1.7-3.1
			c0.8-4.6,1.4-9.1,2.3-13.7c0.2-1.2,0.4-2.7,2-3.1C819.3,242.2,819.7,243.9,820.6,245z"/>
		<path fill="#221E20" d="M1009.7,243.5c0.5,3.5-0.9,6.8-1.2,10.3c-0.2,2.1-0.4,4.1,1.9,5.1c1.7,0.8,4.6-0.8,5.6-3.1
			c1.3-3.1,1.4-6.4,2-9.7c0.5-3.1,1.3-3.5,5-2.7c0,5.8-1.6,11.3-2.3,17.1c-0.1,1.2-1.2,2.1-2.4,2.2c-1.7,0.2-1.9-1.5-2.8-2.5
			c-1.7,1.3-3.6,2.3-5.8,2.5c-4.1,0.5-6.9-2-6.5-6.1c0.4-3.8,1.1-7.5,1.8-11.3C1005.4,242.8,1006.3,242.5,1009.7,243.5z"/>
		<path fill="#221E20" d="M1330.6,246.8c-0.4,1.2-1.1,2-2.6,2.3c-2.2-0.5-3.1-4.1-6-3.4c-1.3,0.3-2.7,0.5-3,2.2
			c0.3,1.6,1.6,1.9,2.9,2.3c1.6,0.5,3.3,0.8,4.8,1.4c4,1.7,4.6,5.8,1.5,8.8c-3,2.9-10.2,3.4-13.6,1c-1.4-1-2-2.1-1.8-3.8
			c0.2-1.6,1.4-1.6,2.3-1.8c1.5,0.5,1.7,1.8,2.6,2.6c1.4,1.3,3.1,1.9,5,1.2c1.1-0.4,2.2-0.8,2.3-2.2c0.1-1.5-1-2-2.1-2.4
			c-1.6-0.5-3.1-1.1-4.7-1.5c-2.1-0.6-3.8-1.8-4-3.9c-0.2-2.3,1.2-4,3.2-5.3C1321.8,241.2,1327.8,242.3,1330.6,246.8z"/>
		<path fill="#221E20" d="M1048.2,244.3c4.6-2.5,5.3-2.5,8.5,0.7c-0.5,2.1-2,2.2-3.8,2.1c-3.8-0.3-4.9,0.5-5.9,4.3
			c-0.5,2.1-0.7,4.3-1.2,6.4c-0.3,1.3-0.6,2.6-1.1,3.8c-0.4,0.9-1.5,1.4-2.5,1.2c-1.1-0.2-1.8-1.1-1.7-2.2
			c0.7-5.3,1.4-10.6,2.5-15.8C1043.5,242.3,1045.2,242.2,1048.2,244.3z"/>
		<path fill="#221E20" d="M1164.7,244.5c2.1-1.2,4.1-2.7,6.9-1.4c1,0.5,1.7,1.1,1.6,2.2c-0.1,1.4-1,2-2.4,1.9
			c-1.8-0.1-3.6-1-5.2,0.6s-1.9,3.8-2.5,5.9c-0.5,2.1-0.8,4.3-1.1,6.4c-0.3,1.8-1.4,2.8-3,2.6c-1.9-0.2-2.1-1.8-1.8-3.5
			c0.8-4.6,1.4-9.2,2.4-13.7C1160.3,242.1,1161.7,241.9,1164.7,244.5z"/>
		<path fill="#221E20" d="M573.6,235.5c1.3,1.8,0.4,3.7,0.2,5.4c-0.8,6.1-1.9,12.1-2.9,18.2c-0.1,0.3,0,0.7-0.1,1
			c-0.4,1.7-1.5,2.8-3.2,2.6c-2-0.2-2-2-1.7-3.5c0.8-5.1,1.6-10.2,2.6-15.2c0.4-2.1,0.3-4.3,1-6.4
			C570.3,235.4,571.5,234.6,573.6,235.5z"/>
	</g>
	<g>
		<path fill="#221E20" d="M1613.7,201.4c4.5,2.5,8.1,6.3,12.1,9.6c15.6,13.2,31.2,26.4,47.1,39.3c5.3,4.3,10.5,8.7,16,12.7
			c0.4,0.3,0.5,0.8,1.1,1.6c-14.4-1.1-26.2-7.8-38.2-15.1c-0.2,2,1,2.9,1.7,4c7,10,13.4,20.2,17.9,31.6c1.7,4.3,2.3,8.6,1.8,13.1
			c-1.8-0.2-1.9-1.8-2.6-2.8c-8.1-12.4-17.7-23.7-27.6-34.7c-12.7-14.1-27-26.7-40.8-39.7c-4-3.8-9.2-5.2-14.1-7.2
			c-14.2-6-28.4-12-42.6-18c-5.2-2.2-10.3-4.1-14.7-7.6c-1.1-0.9-2.2-0.4-3.3,1c2.6,3.8,7.7,4.6,10.7,8c-1.7,2.4-4.1,3.6-6.3,5.2
			c-4.5-2.4-7.7-6.3-12-9.3c-1-0.4-1.5,0.9-2.8,0.8c3.5,4.4,7.9,6.9,11.9,10.2c-1.2,2.3-3.8,2.9-5.7,4.8c-4.5-2.3-7.5-6.1-10.7-9.7
			c-1.4-1.6-2.4-2-4.4-0.5c3.5,4.6,8,8.1,11.8,12.4c-2.2,1.4-4.2,2.6-6.3,3.8c-3.8-2.5-5.8-6.5-8.4-9.8c-0.7-0.9-1.3-2-2.1-2.8
			c-0.9-1-1.8-0.5-2.8,0.6c2.1,5.2,6.9,8.6,9.8,13.5c-1.5,1.8-3.5,2.4-5.5,3.3c-3.6-3.3-5.4-7.6-7.6-11.7c-0.8-1.5-1.4-3.1-4.2-1.9
			c1.2,5.7,5.9,9.4,8,14.5c-2.2,1.9-2.1,2-5.3,2c-3.7-3.8-4.3-9.4-7.3-13.8c-2.5,6,2.5,10.1,3.8,15.3c-0.7,1.7-2,3.2-3.5,5.1
			c-2.6-5.6-4.1-11-5.2-16.7c-2.9,0.7-2.7,2.6-2.2,4.3c1.2,3.8,2.3,7.6,3.9,11.3c1.6,3.5,1.2,6.3-1.6,9.4c-3.6-6.5-4-13.7-5.4-21
			c-2.3,1.4-3.2,2.4-2.7,4.9c1,5,2.1,10.1,4.1,14.8c1.8,4.1,2.2,8-1.4,11.8c-3.5-8.3-4-17.2-5.4-25.9c-2.7,0.8-2.9,2.8-2.5,5.1
			c1.1,7,2.6,14,4.8,20.8c1.7,5.4,1.8,5.4-1.7,11.8c-3.4-10.8-4.8-21.2-5.5-31.8c-3.4,1.1-3,3.8-2.7,6.2c1,6.4,1.7,12.8,3.2,19.1
			c0.4,1.6,0.4,3.4,1.1,4.8c2.5,5.1,1.8,9.9-0.9,14.3c-2.8-5.7-3.9-12.8-5.9-38.4c-2.9,0.7-2.8,2.9-2.6,5
			c0.7,11.8,1.7,23.5,5.4,34.8c1.1,3.5,1.4,6.2-0.3,9.4c-0.7,1.2-0.8,2.8-2.1,4.3c-4-15.8-5.6-31.6-5.2-47.8c-2.5,0-3,1.4-2.9,3.2
			c0.1,5-0.2,10,0.3,15c1,8.4,1.6,16.8,3.7,25c0.3,1.1,0.4,2.3,0.9,3.4c2.3,6.1,1.4,11.9-1.5,17.8c-5.8-19.7-5.7-39.8-5.4-60.2
			c-2.3,0.7-3.1,2-3.1,4.1c0.2,9.6-0.2,19.3,0.9,28.9c1.2,10.4,2.6,20.7,5.1,30.8c0.7,2.9,0.4,6-0.7,8.8c-0.6,1.7-1.5,3.3-1.8,5.3
			c-5.3-24.1-7.7-48.3-5.5-73c-2.9,0.4-3.9,1.9-3.8,4.5c0.2,9-0.6,17.9,0.6,26.9c0.7,5.2,0.5,10.6,1.2,15.9c1,8.6,2.1,17.1,4.1,25.5
			c1.2,5.3,1.9,10.5-0.7,15.6c-0.4,0.9,0,2-1.3,3.4c-3.8-14.7-5.4-29.2-5.9-43.9c-0.4-14.6-0.7-29.2,0.9-43.9
			c-2.4,0.3-3,1.6-3.1,3.5c-0.7,12.8-1.5,25.6-0.7,38.4c1,16.9,2.1,33.8,6.7,50.2c0.5,1.9,0.5,3.9-0.1,5.8c-0.9,3-1.7,6-2.8,9.7
			c-2.4-4.8-2.9-9.3-3.7-13.6c-1.9-10.3-2.9-20.7-3.1-31.2c-0.2-11.2-0.3-22.3,0.2-33.5c0.3-6.9,0.3-13.9,1.5-20.8
			c0.3-1.5,0.6-3.2-0.3-4.8c-2.1,0.1-2.4,1.5-2.5,3.1c-0.3,5.5-0.7,10.9-1.1,16.4c-0.7,9-1.1,17.9-0.9,26.9
			c0.5,19.1,1.2,38.2,6.3,56.7c1.9,7.1,0,12.8-1.9,19.4c-2.4-5.6-3.3-11.4-4.3-17c-4.2-22.4-3.6-45.1-2.8-67.6
			c0.3-9.2,0.9-18.5,2.6-27.7c0.4-2.2,0.1-4.6,0.1-7.1c-2-0.2-2.7,1-2.8,2.6c-0.7,8.1-1.3,16.2-2.1,24.3
			c-1.2,13.1-1.2,26.3-0.9,39.4c0.4,18.8,2.1,37.4,7.5,55.5c0.8,2.5,0.7,4.8-0.3,7.3c-1.2,2.7-2.1,5.6-3.2,8.4
			c-0.1,0.3-0.4,0.5-0.7,0.9c-1.6-7-2.3-14.1-3.3-21.1c-1.9-12.6-3.1-25.4-3.6-38.1c-0.6-13.9-1-27.9,0.4-41.9
			c0.6-5.8,0.5-11.6,1.2-17.4c1.7-14.8,4.2-29.5,8.2-43.9c2.1-7.5,4.3-15,7.1-22.2c3.8-9.6,8.3-18.8,13.8-27.6
			c2.9-4.7,7.2-7.8,11.6-10.8c10.4-7.2,21.6-13.1,31.9-20.4c1.2-0.9,2.5-1.6,3.7-3c-6.4-11-12.2-22.4-17.8-33.9
			c-4-8.4-7.4-17.1-10.8-25.7c-0.8-2.1-1-4.1-0.2-6.4c3.5-0.1,6,2.3,9.6,2.6c4.5-3.8,10.1-4.6,16.1-4.1c2.9,0.2,5.4,1.2,7.6,3.2
			c8.3,7.7,16.6,15.4,25,23c2.8,2.5,5.8,4.9,8.9,7.5c4.1-3.2,7.3-6.8,10.4-10.4c9.2-10.7,17.7-22.1,25.4-33.9
			c8.2-12.6,20.2-19.3,33.7-24.1c16.1-5.8,32.7-9.7,49.6-12c20.2-2.8,40.5-3,60.8-1.9c17.7,1,35.3,3.2,52.7,6.5
			c10.5,2,20.9,4.5,31.4,7.1c-5.7,1.7-10.6,5.4-17.6,2.5c-11-4.5-22.8-6.6-34.6-8.5c-26.7-4.2-53.6-4.4-80.6-3.9
			c-3,0.1-3,0.1-4.8,2.7c2.5,0.7,5,0.4,7.4,0.2c14.4-1.1,28.9-0.9,43.3-0.1c11.1,0.6,22.2,1.6,33.2,3.3c12.1,1.9,24,4.5,35.8,9.3
			c-1.8,0.5-3,0.8-4.3,1.1c-5.4,1.5-10.4,1.5-15.9-0.5c-10.8-3.8-22.1-5.8-33.4-7.5c-21.4-3.1-43-4.2-64.6-3.9
			c-1.5,0-3.3-0.6-4.3,1.1c0.4,1.4,1.3,1.2,2.1,1.2c9.7-0.4,19.3,0.7,28.9,0.8c21.5,0.3,42.6,3.2,63.5,8.3c2.3,0.5,4.4,1.4,6.6,2.2
			c0.4,0.2,0.8,0.5,1.7,1.1c-3.9,0.9-7.3,1.7-10.7,2.3c-1.3,0.3-2.6,0.2-3.9-0.2c-15.1-5.2-30.7-8.1-46.5-9.9
			c-13.7-1.5-27.4-2.6-41.2-2.8c-2.1,0-4,0.1-5.1,2.9c29.9,0.2,59.4,2.6,88.6,11.6c-2.4,0.5-4,1-5.6,1.3c-4.2,0.7-8.2,0.9-12.6-0.4
			c-14.3-4.1-28.9-7.2-43.7-9.2c-8.7-1.2-17.6-1.4-26.4-1.4c-2,0-4.1-0.1-4.3,3c24.6-0.3,48.5,3.1,71.9,10.8
			c-2.2,0.5-4.4,0.9-6.6,1.4c-2.8,0.7-5.4,0.4-8.2-0.5c-14.6-4.5-29.5-7.5-44.6-9.3c-4.1-0.5-8.3-0.5-12.4-1c-2.1-0.3-4-0.1-5.1,2.7
			c19.7,1.7,39.4,3,59,10.2c-6.3,2.1-11.3,2.4-16.9,0.4c-11.9-4.3-24.3-6.5-36.9-7.6c-2-0.2-3.9-0.6-5.9-0.8
			c-2.1-0.3-3.5,0.5-4.7,2.7c16.4,0.8,32.1,3.8,47.4,9c-4,1.1-7.5,3.6-12.3,1.6c-11.2-4.7-23.2-6.7-35.2-8.3c-2-0.3-4-0.4-5.9,1.9
			c12.8,2.5,25.7,3.5,38.9,8.8c-4.3,1.5-7.4,3.2-11.1,1.6c-9.2-3.8-18.9-6-28.7-7.8c-2.4-0.4-2.4-0.5-5,2.3
			c10.5,1.7,20.9,3.3,31.3,8.2c-4,1.6-6.9,3-10.8,1.1c-6.9-3.3-14.3-5.3-21.8-6.7c-2.2-0.4-3.5-0.1-4.7,2.2
			c8.5,1.6,16.8,3.2,24.8,7.2c-1.8,1.7-4,1.8-5.9,3c-3.9-1.7-7.8-3.4-11.8-5c-2.6-1-5.3-1.8-8-2.6c-2.1-0.6-4-0.3-5,2.3
			c6.8,1.9,13.8,2.9,20.1,6.5c-4.7,3.6-4.6,3.5-9.3,1.2c-3.9-1.9-7.9-3.4-11.9-5c-1.7-0.6-1.8-0.5-4.1,2.1c5.5,1.8,11.2,2.9,16,6.5
			c-1.4,1.7-3,2.4-4.6,3.4c-4.5-2.7-8.9-5.4-13.6-7c-1,0.7-1.2,1.5-1.5,2.4c4.6,2.5,10,3.6,13.6,7.8c0,2-1,3.5-2.2,5.3
			c-4.9-2.8-8.5-7.4-14-9.3c-0.9,0.2-1,1.2-1.5,2.1c4.4,3.6,10,5.7,13.8,10.3c-0.4,2.3-2.2,3.7-3.3,5.9c-4.8-3.6-8-8.6-13.4-11.5
			c-0.4,0.7-0.8,1.4-1.4,2.3c4.2,3.8,9,6.9,12.6,11.8c-1.2,2-2.3,4.1-4.6,5.8c-3.7-4.1-7.3-8.1-10.7-11.9c-1.4,0.4-1.4,1.4-2,2.2
			c3.5,4.2,8,7.5,10.7,12.8c-1.4,1.8-2.5,4-4.7,5.8c-3.7-3.5-5.4-8.6-8.9-11.9c-1.4,0.1-1.6,0.9-2.1,1.9c2.9,4,5.9,8.2,8.9,12.4
			c-1.7,2.5-3.5,4.6-6,6.7c-2.3-4-4-8.3-6.9-11.9c-2.1,1.2-2,2.5-1,4.2c1.9,3.3,4.1,6.5,5.5,10.3c-1.3,2.1-3.5,3.7-5.5,5.9
			c-2.7-3.3-3.3-7.5-6.1-10.6c-1.5,1.7-1.4,3.3-0.7,4.9c0.8,2,1.7,4,2.6,5.9c0.3,0.6,0.9,1.3,0.8,1.8c-1.4,5.9,3.5,9.2,5.7,13.5
			c2.8,5.3,6.1,10.3,9.2,15.4c0.4,0.7,0.5,1.6,0.7,2.4c-0.1,0.2-0.3,0.4-0.5,0.5c-0.4-0.2-0.8-0.5-1.4-0.8c-0.4,0.6-0.8,1.3-1.2,2
			c-3.7,6.3-9.3,9.7-16.3,11.3c-6.4,1.6-10.8-2.1-15.3-5.5c-3.7-2.8-7.3-5.7-11-8.7c-1.5,1.3-2.9,2.4-4.1,3.5
			c-4.8-0.5-8.1-5.9-14.4-3.9c4.2,2.5,7.6,4.4,10.8,6.3c0,1.9-2.7,1.9-2,4c22.6,10,45.3,19.7,68.6,28.2c3,1.1,6,2,9,2.8
			c1.6,0.5,3.3,0.8,4.3-1.4c-0.8-3.2-2.8-5.9-4.7-8.6c-3-4.2-6.2-8.2-9.3-12.3C1613.3,201.7,1613.5,201.5,1613.7,201.4z
			 M1518.9,138.1c-8.1-8.6-15.2-17.6-22.5-26.4c-3.8-4.6-8.1-8.9-12.6-12.8c-1.9-1.6-3.8-3.3-7.1-1.5c7.5,18.4,16.6,36,26.3,53.8
			c1.3-1,2.4-1.8,3.4-2.6C1510.5,145.1,1514.5,141.7,1518.9,138.1z M1494.8,102.6c-0.8,0.1-1.6,0.6-1.6,1.8c0,1.2,0.7,1.9,1.7,2
			c1.3,0.1,2.2-0.8,2.1-2.1C1497.1,103.3,1496.2,102.7,1494.8,102.6z"/>
		<path fill="#221E20" d="M1600.6,184.4c3.5,3,6.1,6.8,8,11c-0.1,0.2-0.3,0.3-0.4,0.4c-3.3-3.2-5.9-6.9-8-11
			C1600.3,184.7,1600.4,184.5,1600.6,184.4z"/>
		<path fill="#221E20" d="M1608.5,195.4c2,0.7,3.2,2.2,3.9,4.2c-0.3,0.3-0.5,0.5-0.8,0.8c-1.4-1.4-2.8-2.7-3.5-4.5
			C1608.3,195.7,1608.4,195.6,1608.5,195.4z"/>
		<path fill="#221E20" d="M1612.4,199.6c0.8,0.3,1.1,1,1.3,1.8c-0.2,0.2-0.5,0.4-0.7,0.5c-0.5-0.5-1-1-1.4-1.5
			C1611.9,200.1,1612.2,199.9,1612.4,199.6z"/>
		<path fill="#FEFDFE" d="M1611.6,200.4c0.5,0.5,1,1,1.4,1.5c3.1,4.1,6.2,8.2,9.3,12.3c2,2.7,3.9,5.4,4.7,8.6
			c-1,2.2-2.7,1.9-4.3,1.4c-3-0.9-6.1-1.7-9-2.8c-23.2-8.5-46-18.2-68.6-28.2c-0.7-2.1,2-2.1,2-4c-3.2-1.9-6.6-3.9-10.8-6.3
			c6.3-2,9.6,3.3,14.4,3.9c1.3-1.1,2.7-2.3,4.1-3.5c3.7,2.9,7.3,5.9,11,8.7c4.5,3.4,8.9,7,15.3,5.5c7-1.7,12.6-5,16.3-11.3
			c0.4-0.7,0.8-1.3,1.2-2c0.6,0.3,1,0.5,1.4,0.8c2.2,4,4.8,7.8,8,11C1608.8,197.7,1610.3,199,1611.6,200.4z"/>
		<path fill="#FEFDFE" d="M1518.9,138.1c-4.3,3.6-8.4,7-12.5,10.4c-1,0.8-2.1,1.6-3.4,2.6c-9.7-17.7-18.8-35.3-26.3-53.8
			c3.2-1.9,5.2-0.2,7.1,1.5c4.6,3.9,8.8,8.2,12.6,12.8C1503.7,120.5,1510.8,129.5,1518.9,138.1z"/>
		<path fill="#FEFDFE" d="M1494.8,102.6c1.4,0.1,2.2,0.7,2.3,1.8c0,1.3-0.8,2.2-2.1,2.1c-1-0.1-1.7-0.9-1.7-2
			C1493.3,103.2,1494,102.8,1494.8,102.6z"/>
		<g>
			<polygon fill="#999A9C" points="1515.5,0 1518.2,16.3 1533.2,23.3 1518.5,30.9 1516.5,47.3 1504.7,35.7 1488.5,38.8 1495.9,24 
				1487.9,9.6 1504.2,12.1 			"/>
			<polygon fill="#999A9C" points="1689.5,92 1692.2,108.3 1707.2,115.3 1692.5,122.9 1690.5,139.3 1678.7,127.7 1662.5,130.8 
				1669.9,116 1661.9,101.6 1678.2,104.1 			"/>
			<polygon fill="#999A9C" points="1427.5,133 1430.2,149.3 1445.2,156.3 1430.5,163.9 1428.5,180.3 1416.7,168.7 1400.5,171.8 
				1407.9,157 1399.9,142.6 1416.2,145.1 			"/>
			<polygon fill="#999A9C" points="1532.5,246 1535.2,262.3 1550.2,269.3 1535.5,276.9 1533.5,293.3 1521.7,281.7 1505.5,284.8 
				1512.9,270 1504.9,255.6 1521.2,258.1 			"/>
			<polygon fill="#999A9C" points="1711.9,186 1716.5,198.6 1729.4,201.9 1719,210.1 1719.8,223.4 1708.7,216 1696.3,220.9 
				1699.9,208.1 1691.4,197.8 1704.8,197.3 			"/>
			<polygon fill="#999A9C" points="1711.9,280 1716.5,292.6 1729.4,295.9 1719,304.1 1719.8,317.4 1708.7,310 1696.3,314.9 
				1699.9,302.1 1691.4,291.8 1704.8,291.3 			"/>
			<polygon fill="#999A9C" points="1594.9,327.5 1599.5,340.1 1612.4,343.4 1602,351.6 1602.8,364.9 1591.7,357.5 1579.3,362.4 
				1582.9,349.6 1574.4,339.3 1587.8,338.8 			"/>
			<polygon fill="#999A9C" points="1391.9,285.5 1396.5,298.1 1409.4,301.4 1399,309.6 1399.8,322.9 1388.7,315.5 1376.3,320.4 
				1379.9,307.6 1371.4,297.3 1384.8,296.8 			"/>
		</g>
	</g>
	<g>
		<path fill="#DB2127" d="M22.7,192.9H0L48.4,98h27.3l14.9,94.9H67.5l-2.3-19.4H31.9L22.7,192.9z M41.8,152.6l-1.6,3.4H63l-0.4-3.4
			c-1.1-9.2-1.9-17-2.5-23.5s-0.9-10.7-1-12.5l-0.1-2.8C57.4,118.9,51.6,131.8,41.8,152.6z"/>
		<path fill="#DB2127" d="M154.9,171.3c-1.2,7-4.7,12.5-10.5,16.3c-5.7,3.9-12.8,5.8-21.2,5.8c-8.6,0-15.6-1.5-20.9-4.4l3.2-18.3
			c5.7,4.5,12.1,6.8,19.4,6.8c5.2,0,8-1.6,8.6-4.9c0.1-0.8,0.1-1.6-0.3-2.4c-0.3-0.8-1-1.5-2-2.1c-1-0.7-2-1.2-2.8-1.6
			c-0.9-0.4-2.1-1-3.8-1.8s-2.9-1.4-3.8-1.8c-8.7-4.5-12.2-11.3-10.6-20.3c1.2-6.9,4.8-12.3,10.8-16.2c6-3.8,12.9-5.8,20.8-5.8
			c7.3,0,13.3,1,17.8,3l-3.1,17.6c-4.5-2.9-10-4.4-16.7-4.4c-2.4,0-4.4,0.5-5.9,1.5s-2.4,2.2-2.6,3.7c-0.1,0.8-0.1,1.6,0.3,2.4
			c0.3,0.8,1,1.5,2,2.1c1,0.7,1.9,1.2,2.8,1.8c0.9,0.5,2.1,1.2,3.7,1.9c1.6,0.8,2.9,1.4,3.8,2c3.9,2.3,6.9,4.9,9,7.8
			C155.1,162.9,155.7,166.7,154.9,171.3z"/>
		<path fill="#DB2127" d="M185.1,192.9h-20.6l12.6-71.4h20.6L185.1,192.9z M201,92.3c1.9,2.3,2.6,5.2,2,8.4c-0.6,3.3-2.3,6.1-5,8.4
			c-2.8,2.3-5.8,3.5-9.1,3.5s-5.9-1.2-7.8-3.5c-1.9-2.3-2.6-5.2-2-8.4c0.6-3.3,2.2-6.1,5-8.4s5.8-3.5,9.1-3.5
			C196.4,88.8,199,90,201,92.3z"/>
		<path fill="#DB2127" d="M240.5,184.1c-4.1,6.1-10.5,9.2-19.4,9.2c-6.9,0-12-2-15.2-5.9s-4.3-8.9-3.2-14.8
			c1.2-6.9,4.7-12.2,10.4-16s13.5-5.7,23.3-5.7h9l0.9-4.9c1.1-6-2.4-9-10.4-9c-7.7,0-15.2,2.2-22.5,6.5l3.3-18.4
			c6.2-3.2,14.6-4.8,25.2-4.8c10.1,0,17.3,2.2,21.5,6.5c4.2,4.4,5.5,11.1,3.9,20.4l-8.1,45.8h-20.1L240.5,184.1z M231.4,178.8
			c2.9,0,5.3-0.9,7.2-2.7c1.9-1.8,3.1-4.2,3.7-7.3l0.9-5.2h-6.6c-3.5,0-6.3,0.8-8.4,2.3s-3.4,3.4-3.8,5.8
			C223.5,176.4,225.8,178.8,231.4,178.8z"/>
		<path fill="#DB2127" d="M340.8,192.9h-20.5l7.5-42.5c0.7-4.2,0.3-7.4-1.3-9.6c-1.6-2.2-4.2-3.3-7.7-3.3c-3.8,0-7.1,1.5-10.1,4.4
			c-3,3-5,7.4-6.1,13.3l-6.7,37.7h-20.6l12.6-71.4h20.6l-2.1,12.1c2.5-3.9,5.8-7.1,9.9-9.4c4.1-2.3,8.8-3.4,13.9-3.4
			c7.3,0,12.7,2.2,16,6.5c3.4,4.4,4.3,10.8,2.8,19.2L340.8,192.9z"/>
		<path fill="#DB2127" d="M436.2,192.9H412L403.2,98H426l2.6,34.9c0.6,7.5,0.9,14.3,1.1,20.3c0.2,6.1,0.2,10.3,0,12.6v3.4
			c2.9-7.3,8.2-19.4,16-36.3L461,99.4h16.1l3.4,33.5c0.7,7,1.3,13.6,1.8,19.6c0.5,6.1,0.8,10.4,0.9,12.9l0.2,3.8
			c2.7-8.4,7.5-20.5,14.3-36.5l14.9-34.8h22.1l-42.1,94.9h-24.3l-3-30c-0.7-7.2-1.2-13.3-1.6-18.3s-0.6-8.2-0.6-9.6l0.1-2.1
			c-1,3.9-5.3,13.9-12.9,30L436.2,192.9z"/>
		<path fill="#DB2127" d="M550.2,192.9h-20.6l12.6-71.4h20.6L550.2,192.9z M566.1,92.3c1.9,2.3,2.6,5.2,2,8.4
			c-0.6,3.3-2.3,6.1-5,8.4c-2.8,2.3-5.8,3.5-9.1,3.5s-5.9-1.2-7.8-3.5c-1.9-2.3-2.6-5.2-2-8.4c0.6-3.3,2.2-6.1,5-8.4
			s5.8-3.5,9.1-3.5S564.2,90,566.1,92.3z"/>
		<path fill="#DB2127" d="M633.3,192.9h-20.6l7.5-42.5c0.7-4.2,0.3-7.4-1.3-9.6c-1.6-2.2-4.2-3.3-7.7-3.3c-3.8,0-7.1,1.5-10.1,4.4
			c-3,3-5,7.4-6.1,13.3l-6.7,37.7h-20.6l12.6-71.4h20.6l-2.1,12.1c2.5-3.9,5.8-7.1,9.9-9.4c4.1-2.3,8.8-3.4,13.9-3.4
			c7.3,0,12.7,2.2,16,6.5c3.4,4.4,4.3,10.8,2.8,19.2L633.3,192.9z"/>
		<path fill="#DB2127" d="M716.9,186c-2,11.5-7,20.1-14.8,25.8c-7.9,5.8-17,8.7-27.3,8.7c-10,0-18.5-1.8-25.4-5.4l3.7-21
			c5.6,5.3,13.3,7.9,22.8,7.9c6.2,0,10.9-1.3,14.2-3.9c3.3-2.6,5.4-6.8,6.4-12.4l0.8-4.8c-5.3,6.4-12.4,9.6-21.4,9.6
			c-7.9,0-14.2-2.9-18.8-8.7c-4.7-5.8-6-14.5-4-25.9c1.8-10.1,6-18.5,12.7-25.1s14.4-9.9,23.4-9.9c8.5,0,14.1,3.4,16.9,10.1l1.7-9.4
			h20.5L716.9,186z M674.6,156c-1,5.9-0.7,10.4,1,13.5s4.7,4.6,8.9,4.6c4.4,0,8.2-1.7,11.2-5c3.1-3.3,5-7.3,5.9-12
			c2.3-12.8-1.3-19.2-10.6-19.2c-4.1,0-7.7,1.6-10.6,4.8C677.6,145.9,675.6,150.3,674.6,156z"/>
		<path fill="#DB2127" d="M784.4,171.3c-1.2,7-4.7,12.5-10.5,16.3c-5.7,3.9-12.8,5.8-21.2,5.8c-8.6,0-15.6-1.5-20.9-4.4l3.2-18.3
			c5.7,4.5,12.1,6.8,19.4,6.8c5.2,0,8-1.6,8.6-4.9c0.1-0.8,0.1-1.6-0.3-2.4c-0.3-0.8-1-1.5-2-2.1c-1-0.7-2-1.2-2.8-1.6
			c-0.9-0.4-2.1-1-3.8-1.8s-2.9-1.4-3.8-1.8c-8.7-4.5-12.2-11.3-10.6-20.3c1.2-6.9,4.8-12.3,10.8-16.2c6-3.8,12.9-5.8,20.8-5.8
			c7.3,0,13.3,1,17.8,3l-3.1,17.6c-4.5-2.9-10-4.4-16.7-4.4c-2.4,0-4.4,0.5-5.9,1.5s-2.4,2.2-2.6,3.7c-0.1,0.8-0.1,1.6,0.3,2.4
			c0.3,0.8,1,1.5,2,2.1c1,0.7,1.9,1.2,2.8,1.8c0.9,0.5,2.1,1.2,3.7,1.9c1.6,0.8,2.9,1.4,3.8,2c3.9,2.3,6.9,4.9,9,7.8
			C784.6,162.9,785.2,166.7,784.4,171.3z"/>
		<path fill="#DB2127" d="M846,192.9h-22.7L871.7,98H899l14.9,94.9h-23.2l-2.3-19.4h-33.2L846,192.9z M865,152.6l-1.6,3.4h22.9
			l-0.4-3.4c-1.1-9.2-1.9-17-2.5-23.5s-0.9-10.7-1-12.5l-0.1-2.9C880.7,118.9,874.9,131.8,865,152.6z"/>
		<path fill="#DB2127" d="M946.9,192.9h-20.6l12.6-71.4h20.6L946.9,192.9z M962.8,92.3c1.9,2.3,2.6,5.2,2,8.4
			c-0.6,3.3-2.3,6.1-5,8.4c-2.8,2.3-5.8,3.5-9.1,3.5s-5.9-1.2-7.8-3.5c-1.9-2.3-2.6-5.2-2-8.4c0.6-3.3,2.2-6.1,5-8.4
			s5.8-3.5,9.1-3.5S960.9,90,962.8,92.3z"/>
		<path fill="#DB2127" d="M985,192.9h-20.6l12.7-71.4h20.4l-2.3,13.2c2-4.1,4.8-7.4,8.3-9.9s7.3-3.7,11.3-3.7c2.3,0,4,0.2,5.3,0.6
			l-3.4,19.4c-2.1-1-4.6-1.5-7.5-1.5c-4.4,0-8.3,1.6-11.6,4.9c-3.3,3.2-5.4,7.5-6.4,12.9L985,192.9z"/>
		<path fill="#DB2127" d="M1053,192.9h-21.1l-10.4-71.4h21.3l2,23.5c0.5,5.9,0.8,11.2,1,16c0.2,4.7,0.2,8,0.1,9.8v2.7
			c1.6-5.6,5.6-15.1,11.9-28.4l11-23.5h17.7l2.6,23.5c0.6,6,1.1,11.4,1.4,16.1c0.3,4.7,0.4,8,0.4,9.8v2.5c1.6-5.5,5.5-15,11.6-28.4
			l10.8-23.5h20.3l-35.4,71.4h-21.1l-2.1-23.4c-0.4-5.1-0.7-9.8-0.9-14.2c-0.2-4.4-0.3-7.6-0.2-9.4l0.1-2.8
			c-2,6.3-5.6,15.1-10.6,26.5L1053,192.9z"/>
		<path fill="#DB2127" d="M1168,184.1c-4.1,6.1-10.5,9.2-19.4,9.2c-6.9,0-12-2-15.2-5.9s-4.3-8.9-3.2-14.8c1.2-6.9,4.7-12.2,10.4-16
			c5.7-3.8,13.5-5.7,23.3-5.7h9l0.9-4.9c1.1-6-2.4-9-10.4-9c-7.7,0-15.2,2.2-22.5,6.5l3.3-18.4c6.2-3.2,14.6-4.8,25.2-4.8
			c10.1,0,17.3,2.2,21.5,6.5c4.2,4.4,5.5,11.1,3.9,20.4l-8.1,45.8h-20.1L1168,184.1z M1158.8,178.8c2.9,0,5.3-0.9,7.2-2.7
			c1.9-1.8,3.1-4.2,3.7-7.3l0.9-5.2h-6.6c-3.5,0-6.3,0.8-8.4,2.3s-3.4,3.4-3.8,5.8C1150.9,176.4,1153.3,178.8,1158.8,178.8z"/>
		<path fill="#DB2127" d="M1243.2,190.8c-10.9,20-24,30-39.2,30c-2.9,0-5.5-0.2-7.8-0.7l2.9-16.3c1.4,0.4,3,0.6,4.7,0.6
			c7.8,0,14.2-4.2,19.1-12.5l-15.2-70.3h22.4l3.8,22.2c1,5.7,1.7,10.7,2.3,14.8c0.5,4.1,0.8,6.9,0.9,8.2l0.1,2
			c1.7-3.8,5.7-12.1,12-24.9l11-22.2h21.1L1243.2,190.8z"/>
		<path fill="#DB2127" d="M1330.3,171.3c-1.2,7-4.7,12.5-10.5,16.3c-5.7,3.9-12.8,5.8-21.2,5.8c-8.6,0-15.6-1.5-20.9-4.4l3.2-18.3
			c5.7,4.5,12.1,6.8,19.4,6.8c5.2,0,8-1.6,8.6-4.9c0.1-0.8,0.1-1.6-0.3-2.4c-0.3-0.8-1-1.5-2-2.1c-1-0.7-2-1.2-2.8-1.6
			c-0.9-0.4-2.1-1-3.8-1.8c-1.7-0.8-2.9-1.4-3.8-1.8c-8.7-4.5-12.2-11.3-10.6-20.3c1.2-6.9,4.8-12.3,10.8-16.2
			c6-3.8,12.9-5.8,20.8-5.8c7.3,0,13.3,1,17.8,3l-3.1,17.6c-4.5-2.9-10-4.4-16.7-4.4c-2.4,0-4.4,0.5-5.9,1.5s-2.4,2.2-2.6,3.7
			c-0.1,0.8-0.1,1.6,0.3,2.4c0.3,0.8,1,1.5,2,2.1c1,0.7,1.9,1.2,2.8,1.8c0.9,0.5,2.1,1.2,3.7,1.9c1.6,0.8,2.9,1.4,3.8,2
			c3.9,2.3,6.9,4.9,9,7.8C1330.4,162.9,1331.1,166.7,1330.3,171.3z"/>
	</g>
</g>
</svg>
