<?xml version="1.0" encoding="utf-8"?>
<!-- Generator: Adobe Illustrator 21.0.0, SVG Export Plug-In . SVG Version: 6.00 Build 0)  -->
<svg version="1.1" id="Слой_1" xmlns="http://www.w3.org/2000/svg" xmlns:xlink="http://www.w3.org/1999/xlink" x="0px" y="0px"
	 viewBox="0 0 171.2 95.3" style="enable-background:new 0 0 171.2 95.3;" xml:space="preserve">
<style type="text/css">
	.st0{fill:#E1761C;}
	.st1{fill:#DA0100;}
	.st2{fill:#F0CA30;}
</style>
<title>air_creebec</title>
<g id="Слой_2">
	<g id="Слой_1-2">
		<path class="st0" d="M75.2,85.3c-33.1,4.2-49.9,7.8-50,7.8c-1.3,0.4-2.6,0.9-3.9,1.2c-1.2,0.4-2.5,0.2-3.5-0.6
			c-1.5-1.4-3.4-2.3-5.4-2.7C16.8,90.1,46,84.2,75.2,85.3z"/>
		<path class="st1" d="M97.2,89.3c-8.8,3.1-32.8,3.2-39.6,3.7c11.9,3.2,45.1,0.9,62.3-2.9l12.7,0.3C108.3,81.2,47,88.7,43,91.1
			C45.5,93.4,92.5,90.4,97.2,89.3"/>
		<path class="st2" d="M171.2,92.4c0,0-7.2-0.1-10.6,0.9c-2.1,0.6-3.7,1.3-7,0.2l-4.1-1.2C98.9,78.3,22.2,85.2,0,89.8
			C0,89.8,81.9,69.5,171.2,92.4z"/>
		<path d="M48,41.5l1.2-0.7c3.1-1.6,6-3.6,8.5-6c1.3-1.2,2.3-2.6,2.9-4.2c0.2-0.4,0.4-0.8,0-1.2s-0.9-0.2-1.4,0s-0.7,0.3-1,0.5
			c-3.3,2-6.8,3.7-10.5,5c-1.9,0.7-3.9,1-5.8,0.9c-0.5,0-0.9-0.1-1.7-0.2c1.2-1,2.5-1.9,3.9-2.7l0.5,0.2c1.1,0.6,2.4,0.4,3.3-0.4
			c3.5-2.8,7.1-5.5,10.7-8.2c5.9-4.5,12.6-7.8,19.7-9.7c6.4-1.9,12.5-4.5,18.3-7.7c0.2-0.1,0.5-0.3,0.7-0.5c1.2-1.1,2.5-2.3,3.7-3.4
			c0.7-0.7,1.7-1.1,2.7-1.2c1.8-0.1,3.5-0.3,5.2-0.5c1.1-0.1,2.1-0.4,3.1-1c0.4-0.2,0.8-0.4,1.2-0.6c0.3,0.5,0.2,0.8-0.2,1
			c-2.2,0.8-3.8,2.5-5.7,3.8c-1.9,1.2-3.9,2.2-6,2.9c-1.5,0.5-2.9,1.1-4.3,1.8c-3.7,1.9-7.3,3.8-11,5.7c-1.7,0.9-3.1,2.2-4.2,3.8
			c-2.2,3.3-4.9,6.3-8.1,8.7c-1.7,1.3-3.6,2.5-5.5,3.5c-6.3,3.3-12.6,6.7-18.9,10.1C49,41.5,48.7,42,48,41.5z M106.7,4.4V4.2
			c-0.9-0.3-1.8-0.5-2.7-0.6c-1.1,0-2,0.5-2.6,1.4c-0.3,0.4-0.3,1,0.1,1.3c0.2,0.1,0.4,0.2,0.6,0.2c0.3,0.1,0.5,0,0.8-0.1
			C104.2,5.8,105.4,5.1,106.7,4.4z"/>
		<path d="M81.9,59.1l0.3,0.8c0.2,0,0.4,0,0.7-0.1c1.5-0.4,3-0.4,4.5-0.1c0.5,0.2,1.1,0,1.5-0.4c1-1,2.4-1.5,3.8-1.6
			c0.6,0,1.2-0.3,1.6-0.7c0.4-0.4,1-0.8,1.6-0.9c0.8-0.1,1.6-0.7,1.9-1.5l0.8,0.7c0.3-0.2,0.5-0.3,0.8-0.6c0.6-0.8,1.5-1.3,2.4-1.5
			c0.4-0.1,0.8-0.4,0.9-0.8c0.4-1.3,1.2-2.4,2.4-3.1c0.4-0.3,0.7-0.7,0.9-1.2c0.2-0.6,0.5-1.2,0.8-1.8c0.5-0.7,0.7-1.5,0.8-2.3
			c0-0.3,0-0.6,0.2-0.8c1-1,0.8-2.4,1.4-3.5c0.1-0.1,0.1-0.3,0.1-0.4c-0.1-1.1,0.1-2.3,0.5-3.3c0.1-0.3,0.1-0.6-0.1-0.9
			c-0.3-0.9-0.1-1.8,0.4-2.6c0.4-0.4,0.4-1.1,0.1-1.6c-0.4-0.6-0.5-1.3-0.2-1.9c0.3-0.5,0.2-1.2-0.3-1.6c-0.5-0.5-0.7-1.4-0.4-2.1
			c0.3-0.6,0.2-1.4-0.3-2c-0.5-0.6-0.6-1.3-0.3-2c0.3-0.6,0.1-1.4-0.4-1.8c-0.9-0.8-1.8-1.7-1.7-3c0-0.2-0.4-0.4-0.6-0.7l0.6-0.8
			c-0.9-0.5-2.2-0.3-2.6-1.7l2.3,0.9c0.5-1.2,1.5-2.1,1.4-3.4c1-0.5,1.3-0.5,1.9,0.5s1.1,1.9,1.6,2.8c0.3,0.4,0.6,0.9,1,1.3
			c0.2,0.2,0.3,0.4,0.3,0.6c0.3,1.7,0.9,3.3,1.6,4.9c0.1,0.3,0.2,0.6,0.2,0.9c-0.2,1.1,0,2.2,0.4,3.2c0.1,0.1,0.1,0.3,0.1,0.5
			c0,1-0.1,2.1,0,3.1c0.1,0.5,0.3,1,0.6,1.4c-0.8,0.5-0.7,1.4-0.7,2.2c-0.1,1.4-0.1,2.9-0.2,4.3c0,0.4-0.1,0.8-0.3,1.2
			c-0.5,0.8-1.2,1.4-1.9,2l0.1-1.2c-0.4,0.2-0.7,0.3-1,0.5s-0.5,0.3-0.9,0.6l1.2,1.4l-0.3,1l-2.7,1.2l1.3,2.6l0.6-0.2
			c0.4,0.9,0.4,1.9-0.2,2.8c-0.3,0.5-0.5,1.1-0.7,1.7c-0.2,0.8-0.6,1.5-1.3,1.9c-0.4,0.2-0.6,0.9-0.9,1.3s-0.4,0.8-0.7,0.9
			c-0.5,0.2-1,0.6-1.3,1.1c-0.9,1-1.8,2-2.7,2.9c-0.1,0.1-0.3,0.3-0.5,0.3c-1.4,0.3-2.4,1.3-3.5,2c-0.2,0.2-0.5,0.4-0.7,0.6
			c-0.2,0.2-0.5,0.5-0.7,0.5c-1.6,0.2-2.9,1.4-4.5,1.6c-0.2,0.1-0.3,0.2-0.4,0.3c-0.3,0.3-0.7,0.5-1.2,0.4c-1.8-0.2-3.5,0.1-5.2,0.8
			c-0.5,0.2-1,0.2-1.4,0c-0.4-0.2-0.8-0.2-1.2-0.2c-1.6-0.1-3.2-0.2-4.8-0.2c-1.1,0-2.1-0.2-3.1-0.7c-1.2-0.5-2.5-1-3.7-1.4
			c-1.1-0.3-2.1-0.8-2.9-1.5c-0.8-0.5-1.6-1-2.5-1.2c-0.2-0.1-0.4-0.2-0.6-0.4c-1-1.2-2.2-2.2-3.5-3.1c-0.2-0.2-0.5-0.3-0.5-0.5
			c-0.1-1.3-1.2-2-1.7-3L60,52.5c-0.6-0.7-1.1-1.5-1.5-2.4c-0.2-0.8-0.6-1.6-1.2-2.2c-0.1-0.1-0.2-0.3-0.2-0.4l-1-4.2
			c0-0.2,0-0.4-0.1-0.6c0.5-0.3,1.1-0.5,1.7-0.5c0.3,0.1,0.7-0.2,1.1-0.3c0.7-0.3,1.5-0.5,2.2-0.7c0.8-0.2,1.2,0.2,1.2,1
			c0,0.7-0.1,1.5-0.2,2.2c-0.1,0.5,0,0.9,0.4,1.3c0.5,0.5,0.8,1.2,0.6,1.9c-0.1,0.5,0.2,1.1,0.7,1.2c0.7,0.2,1.3,0.9,1.3,1.7
			c0,0.9,0.5,1.7,1.2,2.3c0.4,0.4,0.7,0.9,0.9,1.5c0.2,0.5,0.4,0.8,1.1,0.8c0.9-0.1,1.8,0.5,2,1.5c0.1,0.5,0.6,0.8,1.1,0.8
			c1.6,0.2,3.2,0.8,4.6,1.7c0.4,0.2,0.8,0.3,1.2,0.3c0.9,0.1,1.8,0.2,2.6,0.4C80.4,60,81.4,59.8,81.9,59.1z M112.7,36.3
			c0.6-1.6,0.7-3.4,0.1-5c-0.5,0.2-0.9,0.3-1.3,0.5c-0.9,0.5-1.4,1.4-1.2,2.4c0,1.1,0.3,1.4,1.5,1.8C112,36.1,112.3,36.2,112.7,36.3
			z M63.5,54.9l2.9,2.7c0.3-0.7,0.7-1.3,0.6-1.8c-0.2-0.9-0.5-1.7-0.9-2.5c-0.1-0.2-0.4-0.3-0.7-0.4L63.5,54.9z M96.9,56.5
			c-1.2,0-2.2,0.6-2.8,1.6c0.7,0.6,1.3,1.3,2,1.9c0.2,0.2,0.6,0.2,0.8,0c0.1-0.1,0.1-0.2,0.2-0.3C97.3,58.6,97.2,57.5,96.9,56.5z
			 M87,60.4c-1.2-0.5-2.6-0.3-3.8,0.3c0.5,0.8,0.9,1.5,1.4,2.1c0.2,0.4,0.7,0.5,1.1,0.3c0.2-0.1,0.3-0.3,0.4-0.5
			C86.4,61.9,86.6,61.2,87,60.4z M79.1,62.8l0.1,0.3h4.4l-1.1-2.1c-0.4,0-0.8-0.1-1.2-0.1c-0.3,0-0.5,0.1-0.7,0.2
			C80,61.6,79.6,62.2,79.1,62.8L79.1,62.8z M76.5,59.8c0.2,0.9,0.3,1.7,0.5,2.4c0.1,0.4,0.4,0.7,0.8,0.6c0.2,0,0.3-0.1,0.4-0.2
			c0.6-0.6,1.2-1.3,1.8-2C79,59.9,77.7,59.6,76.5,59.8L76.5,59.8z M89.2,60c0.5,0.7,0.9,1.5,1.5,2.1c0.2,0.3,0.6,0.3,0.9,0.1
			c0.1-0.1,0.2-0.2,0.2-0.4c0.1-1,0.1-2.1,0.1-3.1C90.8,58.7,89.8,59.1,89.2,60z M108,12c-0.5,0.9-0.9,1.6-1.2,2.4
			c-0.2,0.5,0.1,1.1,0.6,1.3c0.1,0,0.2,0.1,0.3,0.1c0.6,0,1.2-0.1,1.9-0.1C109.3,14.3,108.8,13.1,108,12z M108.5,19.2
			c0.7-0.7,1.3-1.3,1.8-1.9c0.2-0.3,0.2-0.6,0.1-0.9c-0.1-0.2-0.5-0.2-0.8-0.2c-0.3,0-0.7,0.1-1,0.1c-1.2,0.1-1.5,0.6-1,1.7
			C107.9,18.4,108.2,18.8,108.5,19.2L108.5,19.2z M109.6,20.8c-0.5,0.8-0.4,1.9,0.2,2.7l2.4-0.9c0-1.3,0-1.4-1.2-1.6L109.6,20.8z
			 M61.5,41.6c-1.2,0.4-2.1,0.8-3,1.2c-0.2,0.1-0.4,0.4-0.3,0.5c0.1,0.2,0.2,0.4,0.5,0.5c0.8,0.3,1.7,0.4,2.6,0.3L61.5,41.6z
			 M90.2,62.6c-0.4-0.6-0.8-1.2-1.2-1.8c-0.3-0.4-0.8-0.5-1.1-0.2c-0.1,0.1-0.2,0.2-0.3,0.3c-0.3,0.7-0.6,1.4-0.8,2.1L90.2,62.6z
			 M76.2,62.3c-0.2-0.7-0.2-1.1-0.3-1.5c0-0.2-0.1-0.4-0.2-0.6c-0.2-0.6-0.8-0.9-1.4-0.7c-0.7,0.3-1.4,0.7-1.9,1.3L76.2,62.3z
			 M99.3,55.8c0.2,0.2,0.4,0.4,0.6,0.5c0.6,0.3,1.2,0.9,1.8,0.6c0.7-0.5,1-1.3,0.8-2.1c0-0.2-0.1-0.5-0.2-0.7
			C101.2,54.5,100.1,55.1,99.3,55.8L99.3,55.8z M93.3,58.5l-0.4,0.1L92.5,62l2.9-1.1L93.3,58.5z M71.1,58.1
			c-0.4,0.8-0.4,1.8,0.1,2.5l2.8-1.7C73.2,58.2,72.2,57.9,71.1,58.1z M110.9,31.5c0.7-0.4,1.3-0.7,1.9-1.2c0.5-0.4,0.4-0.9-0.2-1.1
			s-1.1-0.4-1.7-0.6C110.4,29.5,110.4,30.6,110.9,31.5z M63.2,49.1c-0.8,0.5-1.4,1.1-1.9,1.9c1.2,0.1,2.1,0.5,3.1,0.2
			C64.6,50.3,64.1,49.4,63.2,49.1z M61.5,51.9c0.3,0.9,0.9,1.6,1.5,2.3c0.6-0.7,1.5-1.1,1.7-2.1C63.7,51.8,62.6,51.8,61.5,51.9z
			 M97.9,59.1l0.2,0.2l2.5-1.5l-2.4-1.5L97.9,59.1z M61.6,45.1c-1-0.4-2.1-0.6-3.2-0.6l0.4,2.1C59.8,46.2,60.7,45.7,61.6,45.1
			L61.6,45.1z M105.1,50.3c-0.3,0.2-0.6,0.5-0.9,0.7c-0.4,0.4-0.6,1-0.5,1.6c0.2,0.4,0.9,0.4,1.6,0.1c0.2-0.1,0.4-0.3,0.6-0.4
			L105.1,50.3z M110.3,25.1c-0.5,1.2-0.5,1.4,0.2,2.5l2.4-1.9L110.3,25.1z M110,39c1-0.3,1.9-0.9,2.5-1.8c-0.8-0.3-1.4-0.9-2.1-0.5
			S109.6,38,110,39z M59.8,47.9c0,0.8,0.3,1.6,0.7,2.3l1.9-1.5L59.8,47.9z M111,18.1l-1.8,1.5l2.7,1L111,18.1z M107.1,47.1l0.9,2.5
			c0.5-0.9,1.2-1.3,1.4-2.2L107.1,47.1z M61.7,46l-1.9,1v0.3l2.3,0.5c0.4-0.5,0.3-1.3-0.3-1.7C61.8,46.1,61.7,46,61.7,46z
			 M110.2,24.3c0.8,0.4,1.7,0.6,2.6,0.4l-0.2-1.2C111.2,23.6,110.6,23.8,110.2,24.3L110.2,24.3z M68.2,55.7
			c-0.4,0.9-0.8,1.4-0.8,2.3l2.3-1L68.2,55.7z M70.1,58l-2.3,0.5c0.6,0.7,1.4,1,2.3,1.1V58z M109.2,42.4c0.5-0.2,0.8-0.3,1.1-0.4
			c0.6-0.3,0.7-0.5,0.3-1c-0.2-0.3-0.5-0.6-0.8-0.9C109.2,40.7,109,41.6,109.2,42.4L109.2,42.4z M111.3,28l1.8,0.8
			c0-0.8,0.3-1.4-0.1-2L111.3,28z M103.2,55.3c0.8-0.4,1.4-1.1,1.8-1.9h-1.6L103.2,55.3z M107.7,46.5l1.9,0.1l-1.1-1.9L107.7,46.5z
			 M107.1,50.4l0.2-0.2l-0.6-1.8h-0.2l-0.7,1.6L107.1,50.4z M106.4,50.8l-0.2,0.2l0.4,0.4c0.1-0.1,0.2-0.2,0.2-0.2
			C106.7,51,106.6,50.9,106.4,50.8L106.4,50.8z"/>
		<path class="st0" d="M108.2,25.8c-0.1,0.9,0.2,1.8,0.8,2.5c0.1,0.2,0.2,0.4,0.2,0.7c0,0.6,0,1.3,0,2c0,0.3-0.2,0.5-0.4,0.6
			c-0.4,0.3-0.9,0.5-1.3,0.8l-38,21.1c-0.3,0.2-0.6,0.3-0.8,0.4c-0.7-0.8-1.4-1.6-2-2.4c-0.3-0.6-0.6-1.3-0.7-2L108.2,25.8z"/>
		<path class="st1" d="M108.2,34.4c0.4,0.9,0.4,1.9,0,2.8c-0.1,0.4-0.2,0.7-0.2,1.1c-0.1,0.8-0.3,1.6-0.5,2.4
			c-0.1,0.3-0.5,0.5-0.9,0.7L91.3,50l-14,7.8l-1.1,0.6c-1.3-1-2.8-1.7-4.5-1.8c-0.8-0.1-0.7-0.9-1.3-1.4L108.2,34.4z"/>
		<path d="M67.4,94.9c-1.3,0-2.6-0.2-3.8-0.7c-2.6-0.8-4.4-3.1-4.6-5.8c-0.4-3.2,0.9-6.4,3.5-8.4c2.1-1.8,4.8-2.9,7.5-2.9
			c1.8,0,3.6,0.4,5.3,1.2c0.2,0.1,0.5,0.2,0.7,0.3c0.1,0.1,0.2,0.1,0.3,0.2l0.1,0.1l0.2,0.1l-0.7,4.2h-0.7h-0.6
			c-0.1,0-0.2,0-0.4-0.1L73.9,83l-0.1-0.4c0-0.2-0.1-0.3-0.1-0.5c-0.2-1.8-1.3-2.7-3.3-2.8h-0.3c-1.3,0-2.6,0.5-3.5,1.6
			c-0.5,0.6-1,1.3-1.3,2.1c-0.7,1.6-1.2,3.4-1.4,5.2c0,0.3,0,0.7,0,1c0.1,2.2,1.4,3.6,3.4,3.6c0.5,0,1-0.1,1.5-0.2
			c1.1-0.3,2-1,2.6-2c0.3-0.4,0.6-0.9,0.8-1.4c0.1-0.2,0.3-0.5,0.4-0.7l0.1-0.2l2.2,0.2c0,0-0.3,1.2-0.4,1.5c-0.3,1-0.6,2-0.9,3
			c-0.2,0.4-0.5,0.7-0.8,0.8C71.2,94.5,69.3,94.9,67.4,94.9z"/>
		<path class="st2" d="M70,77.5c1.8,0,3.6,0.4,5.2,1.1c0.2,0.1,0.4,0.2,0.6,0.3c0.1,0.1,0.2,0.2,0.3,0.3c-0.2,1.2-0.4,2.4-0.6,3.6
			h-0.9c-0.2,0-0.3-0.1-0.5-0.1c0-0.2-0.1-0.4-0.1-0.7c-0.3-2.2-1.7-3-3.6-3.1h-0.3c-1.5,0-2.8,0.6-3.8,1.7c-0.6,0.6-1,1.3-1.4,2.1
			c-0.7,1.7-1.2,3.4-1.4,5.2c0,0.3,0,0.7,0,1c0.1,2.6,1.6,4,3.7,4c0.6,0,1.1-0.1,1.6-0.3c1.2-0.4,2.2-1.1,2.8-2.2
			c0.4-0.6,0.8-1.3,1.2-2.1l1.5,0.2c-0.4,1.5-0.8,2.8-1.2,4.1c-0.1,0.3-0.4,0.5-0.7,0.6c-1.6,0.8-3.5,1.2-5.3,1.2
			c-1.3,0-2.5-0.2-3.7-0.6c-2.5-0.7-4.2-2.9-4.4-5.5c-0.4-3.1,0.9-6.2,3.4-8.2C64.7,78.5,67.3,77.5,70,77.5z M70,76.7L70,76.7
			c-2.9,0-5.6,1.1-7.8,2.9c-2.7,2.1-4.1,5.4-3.6,8.8c0.2,2.9,2.1,5.3,4.9,6.1c1.3,0.4,2.6,0.7,3.9,0.7c1.9,0,3.8-0.5,5.6-1.3
			c0.4-0.2,0.8-0.6,1-1c0.3-1,0.6-2,0.9-3c0.1-0.4,0.2-0.7,0.3-1.1l0.2-0.8L74.5,88L73,87.8h-0.5l-0.2,0.4L71.9,89
			c-0.3,0.5-0.5,0.9-0.8,1.3c-0.6,0.9-1.4,1.6-2.4,1.9c-0.5,0.2-0.9,0.2-1.4,0.2c-1.8,0-2.9-1.2-3-3.2c0-0.3,0-0.6,0-0.9
			c0.2-1.8,0.7-3.6,1.4-5.2c0.3-0.7,0.7-1.4,1.2-2c0.8-0.9,2-1.5,3.2-1.4h0.2c1.8,0.1,2.7,0.9,2.9,2.5c0,0.2,0.1,0.3,0.1,0.5
			s0,0.1,0,0.2l0.1,0.5l0.5,0.1h0.2c0.1,0,0.3,0.1,0.4,0.1h0.6h0.4h0.7l0.1-0.7l0.5-3l0.1-0.7l0.1-0.2l-0.3-0.3l-0.1-0.1
			c-0.1-0.1-0.2-0.2-0.3-0.2c-0.2-0.1-0.5-0.3-0.7-0.4C73.8,77.2,71.9,76.8,70,76.7z"/>
		<path d="M112.2,94.7h-0.4c-1.2,0-2.3-0.5-3.1-1.4c-0.7-0.9-0.9-2.1-0.6-3.2c0.2-1.1,0.5-2.2,0.8-3.2l0.1-0.2
			c0.4-1.4,0.9-2.8,1.3-4.1l0.4-1.3c0.2-0.7,0.3-1.2,0.2-1.4s-0.6-0.3-1.3-0.5l-0.3-0.1V79c0-0.4-0.1-1.3,1-1.4
			c0.9-0.1,1.8-0.2,2.7-0.3l1.6-0.2h0.1c0.1,0,0.2,0,0.3,0c0.1,0,0.2,0,0.3,0.1l0.4,0.1l-1.9,6.4l0.2-0.1l0.2-0.1
			c0.2-0.1,0.3-0.1,0.4-0.2c0.6-0.2,1.3-0.3,1.9-0.3c0.9,0,1.8,0.3,2.5,1c1.1,1.1,1.4,2.7,0.9,4.2C119.2,91.7,115.6,94.7,112.2,94.7
			z M115.1,85.5c-0.2,0-0.4,0-0.5,0.1c-0.3,0.1-0.6,0.4-0.9,0.6c-1.1,1.4-1.8,3.1-1.9,4.8v0.1c0,0.6,0,1,0.5,1.3
			c0.2,0.1,0.4,0.1,0.6,0.2c0.3,0,0.6-0.1,0.8-0.4c1.6-1.5,2.4-3.6,2.4-5.7C116.1,86,115.7,85.5,115.1,85.5z"/>
		<path class="st2" d="M114.7,77.4c0.1,0,0.3,0,0.6,0.1l-2,6.8l0.9-0.4c0.2-0.1,0.4-0.2,0.7-0.3c0.6-0.2,1.2-0.3,1.8-0.3
			c0.8,0,1.7,0.3,2.3,0.9c1.1,1,1.1,2.4,0.8,3.8c-0.8,3.2-4.1,6.3-7.5,6.3h-0.4c-2.6-0.2-3.8-1.7-3.4-4.2c0.2-1.1,0.5-2.3,0.9-3.4
			c0.6-1.8,1.1-3.6,1.7-5.4s0.4-1.9-1.3-2.4c0-0.6,0.1-1,0.7-1C111.9,77.8,113.3,77.6,114.7,77.4L114.7,77.4z M112.9,93
			c0.4,0,0.8-0.2,1.1-0.5c1.6-1.6,2.5-3.7,2.5-6c0-0.7-0.5-1.3-1.3-1.4c0,0,0,0-0.1,0c-0.2,0-0.5,0-0.7,0.1c-0.4,0.2-0.7,0.4-1,0.8
			c-1.2,1.4-1.9,3.2-2,5c0,0.6,0,1.3,0.7,1.7C112.4,92.9,112.7,92.9,112.9,93L112.9,93z M114.7,76.8h-0.1l-1.6,0.2
			c-0.9,0.1-1.8,0.2-2.6,0.3s-1.4,0.7-1.4,1.8v0.6l0.5,0.1c0.3,0.1,0.7,0.2,1,0.3c0,0.4-0.1,0.7-0.2,1.1c-0.1,0.4-0.3,0.9-0.4,1.3
			c-0.4,1.3-0.9,2.8-1.3,4.1l-0.1,0.2c-0.3,1.1-0.6,2.2-0.8,3.2c-0.3,1.2,0,2.5,0.7,3.5c0.9,1,2.1,1.5,3.4,1.5h0.4
			c3.6,0,7.3-3.1,8.2-6.9c0.5-1.6,0.2-3.3-1-4.5c-0.7-0.7-1.7-1.1-2.8-1.1c-0.7,0-1.4,0.1-2,0.3l-0.2,0.1l1.7-5.3l0.2-0.8l-0.8-0.1
			h-0.2C115,76.8,114.9,76.8,114.7,76.8L114.7,76.8z M112.2,91.1c0.1-1.7,0.8-3.3,1.8-4.6c0.2-0.2,0.5-0.4,0.7-0.5
			c0.1-0.1,0.2-0.1,0.4-0.1c0.3,0,0.6,0.2,0.6,0.6c0,0,0,0.1,0,0.1c0,2-0.8,4-2.3,5.4c-0.1,0.2-0.4,0.3-0.6,0.3
			c-0.1,0-0.3,0-0.4-0.1C112.2,92,112.2,91.8,112.2,91.1L112.2,91.1L112.2,91.1z"/>
		<path d="M34.6,94.7c-0.9,0-1.4-0.5-1.8-1.4h-0.1c-0.3,0.2-0.5,0.4-0.8,0.5l-0.1,0.1c-0.5,0.3-1,0.5-1.6,0.6
			c-0.3,0.1-0.6,0.1-0.9,0.1c-0.9,0-1.8-0.3-2.5-1c-0.7-0.8-1-1.9-0.8-2.9c0.1-0.7,0.2-1.3,0.5-1.9c1-2.4,2.8-4.3,5.2-5.3
			c0.6-0.3,1.4-0.5,2.1-0.6c0.9,0.1,1.7,0.3,2.5,0.7c0.4-0.4,1-0.6,1.6-0.5h0.7c0.2,0,0.4,0,0.6,0h0.5l-0.1,0.5c0,0.1,0,0.2-0.1,0.3
			c0,0.2-0.1,0.4-0.2,0.6l-1,2.6c-0.5,1.2-1,2.4-1.4,3.7c0,0.1,0,0.1-0.1,0.2c-0.1,0.2-0.2,0.5-0.1,0.8c0.3-0.1,0.5-0.3,0.8-0.6
			c0.2-0.3,0.4-0.5,0.7-0.7l0.2-0.1l1.1,0.8l-0.1,0.3c0,0,0,0.1,0,0.1c0,0.1-0.1,0.2-0.2,0.3c-0.2,0.2-0.3,0.3-0.4,0.5
			c-0.3,0.5-0.8,0.9-1.2,1.3c-0.6,0.5-1.4,0.8-2.1,1C35.1,94.7,34.8,94.7,34.6,94.7z M33.6,84.9c-0.3,0-0.6,0.2-0.9,0.4
			c-0.1,0.1-0.2,0.2-0.3,0.3c-1,1.2-1.8,2.6-2.2,4.2c-0.1,0.4-0.1,0.8-0.1,1.2c0.1,0.8,0.5,0.8,0.6,0.8c0.1,0,0.2,0,0.3,0
			c0.3-0.1,0.5-0.2,0.8-0.4c1.4-1.3,2.3-3.1,2.6-5c0-0.7-0.1-1-0.5-1.2C33.9,85,33.8,84.9,33.6,84.9z"/>
		<path class="st2" d="M33.8,83.2c0.9,0.1,1.8,0.4,2.6,0.8c0.4-0.4,0.9-0.6,1.5-0.6c0.4,0,0.8,0,1.3,0c-0.1,0.3-0.2,0.6-0.2,0.9
			c-0.8,2.1-1.6,4.1-2.4,6.2c-0.2,0.4-0.5,0.9-0.1,1.5h0.1c0.9,0,1.1-0.9,1.8-1.3l0.7,0.5c0,0.1-0.1,0.3-0.2,0.4
			c-0.5,0.6-1,1.2-1.6,1.7c-0.6,0.4-1.3,0.8-2,0.9c-0.2,0-0.5,0.1-0.7,0.1c-0.7,0-1.1-0.4-1.5-1.2c-0.1-0.1-0.2-0.2-0.3-0.3
			c-0.3,0.3-0.7,0.5-1.1,0.7c-0.5,0.3-1,0.5-1.6,0.7c-0.3,0-0.5,0.1-0.8,0.1c-1.6,0.1-3-1.2-3-2.8c0-0.3,0-0.5,0.1-0.7
			c0.1-0.6,0.2-1.2,0.5-1.8c0.9-2.3,2.7-4.2,5-5.2C32.4,83.4,33.1,83.2,33.8,83.2L33.8,83.2z M30.8,92c0.1,0,0.3,0,0.4-0.1
			c0.3-0.1,0.7-0.3,0.9-0.5c1.4-1.4,2.4-3.2,2.7-5.2c0-0.7,0-1.3-0.7-1.6c-0.2-0.1-0.4-0.1-0.6-0.1c-0.4,0-0.8,0.2-1.1,0.5
			c-0.1,0.1-0.2,0.2-0.3,0.3c-1.1,1.3-1.8,2.7-2.2,4.3c-0.1,0.4-0.1,0.8-0.1,1.3C29.9,91.7,30.2,92,30.8,92L30.8,92z M33.8,82.5
			L33.8,82.5c-0.8,0-1.5,0.2-2.2,0.6c-2.5,1.1-4.4,3-5.4,5.5c-0.3,0.6-0.4,1.3-0.5,2c-0.2,1.1,0.1,2.3,0.9,3.2
			c0.7,0.8,1.7,1.2,2.8,1.2c0.3,0,0.6,0,0.9-0.1c0.6-0.1,1.1-0.4,1.7-0.7l0.1-0.1c0.2-0.1,0.4-0.2,0.6-0.4c0.4,0.8,1.2,1.2,2,1.2
			c0.3,0,0.6,0,0.8-0.1c0.8-0.2,1.6-0.5,2.3-1c0.5-0.4,0.9-0.8,1.2-1.3c0.1-0.2,0.3-0.3,0.4-0.5c0.1-0.1,0.2-0.3,0.2-0.5v-0.1
			l0.2-0.5l-0.5-0.3l-0.7-0.5l-0.4-0.3l-0.4,0.3c-0.2,0.2-0.4,0.4-0.6,0.6c0.4-1.2,0.9-2.3,1.3-3.5l1-2.6c0.1-0.2,0.1-0.4,0.2-0.7
			c0-0.1,0-0.2,0.1-0.3l0.2-0.9h-1c-0.2,0-0.4,0-0.6,0h-0.7c-0.6,0-1.2,0.1-1.7,0.4C35.5,82.9,34.6,82.6,33.8,82.5L33.8,82.5z
			 M30.8,91.3c-0.1,0-0.2,0-0.3-0.4c0-0.3,0-0.7,0.1-1c0.4-1.5,1.1-2.8,2.1-4c0.1-0.1,0.2-0.2,0.2-0.2c0.2-0.2,0.4-0.3,0.7-0.3
			c0.1,0,0.2,0,0.3,0.1c0.2,0.1,0.2,0.2,0.2,0.9c-0.3,1.8-1.2,3.4-2.5,4.7c-0.2,0.1-0.4,0.2-0.6,0.3C31,91.3,30.9,91.3,30.8,91.3
			L30.8,91.3z"/>
		<path d="M124.2,94.7h-0.4c-2,0.1-3.6-1.5-3.7-3.4c0-0.3,0-0.6,0.1-0.9c0.7-3.7,3.5-6.5,7.1-7.3c0.2,0,0.4,0,0.6,0
			c0.5,0,1,0.1,1.4,0.2c0.6,0.1,1.2,0.5,1.5,1.1c0.3,0.6,0.4,1.3,0.1,2c-0.3,1.1-1.1,2-2.2,2.4c-0.9,0.4-1.8,0.7-2.7,1l-1,0.3
			c-0.2,0.1-0.4,0.1-0.7,0.2h-0.1v0.1c0,0.2,0,0.4,0,0.7c0,0.6,0.6,1.1,1.2,1.1c0,0,0,0,0.1,0h0.1c0.8-0.1,1.5-0.4,2-0.9
			c0.2-0.2,0.5-0.4,0.8-0.7s0.6-0.5,0.6-0.5l1.2,0.7v0.2V91c0,0.1,0,0.3-0.1,0.4C128.8,93.4,126.6,94.7,124.2,94.7z M127.4,85
			c-0.3,0-0.6,0.1-0.9,0.2c-1.1,0.6-1.8,1.7-2,3c1.2-0.1,2.3-0.7,3.2-1.6c0.2-0.2,0.3-0.5,0.4-0.9c0-0.2,0-0.4-0.1-0.5
			C127.8,85,127.7,85,127.4,85L127.4,85z"/>
		<path class="st2" d="M127.8,83.3c0.4,0,0.9,0.1,1.3,0.2c1,0.2,1.7,1.2,1.5,2.3c0,0.1-0.1,0.3-0.1,0.4c-0.3,1-1,1.8-2,2.2
			c-1.2,0.6-2.5,1-3.7,1.4c-0.3,0.1-0.6,0.2-1,0.3c0,0.4,0,0.8,0,1.1c0.1,0.8,0.8,1.4,1.6,1.4h0.1c0.8-0.1,1.6-0.4,2.2-1
			c0.4-0.3,0.7-0.7,1.2-1.1l0.8,0.4c0,0.1,0,0.2,0,0.3c-1.1,1.9-3.2,3.1-5.5,3.1h-0.4c-1.8,0.1-3.2-1.3-3.3-3c0-0.3,0-0.6,0.1-0.9
			c0.7-3.5,3.4-6.2,6.8-7C127.5,83.4,127.7,83.4,127.8,83.3L127.8,83.3z M124.1,88.7c1.5-0.1,2.9-0.7,3.9-1.8c0.2-0.3,0.4-0.6,0.4-1
			c0.1-0.5-0.3-1.1-0.8-1.2c-0.1,0-0.1,0-0.2,0h-0.1c-0.3,0-0.7,0.1-1,0.2C124.9,85.7,124.4,87,124.1,88.7L124.1,88.7z M127.8,82.6
			c-0.2,0-0.4,0-0.6,0c-3.8,0.8-6.7,3.8-7.4,7.7c-0.2,1.2,0.1,2.4,0.8,3.3c0.8,0.9,1.9,1.4,3.1,1.4h0.4c2.5,0,4.8-1.3,6.1-3.4
			c0.1-0.2,0.2-0.4,0.1-0.6c0,0,0-0.1,0-0.1v-0.4l-0.4-0.2l-0.1-0.1l-0.6-0.4l-0.5-0.3l-0.4,0.4c-0.1,0.1-0.3,0.2-0.4,0.4
			s-0.5,0.5-0.7,0.7c-0.5,0.5-1.1,0.8-1.8,0.8h-0.1c-0.4,0.1-0.8-0.2-0.9-0.7c0,0,0-0.1,0-0.1c0-0.1,0-0.3,0-0.4
			c0.2,0,0.4-0.1,0.6-0.2l1-0.3c0.9-0.3,1.9-0.7,2.8-1.1c1.1-0.5,2-1.5,2.4-2.7c0.3-0.7,0.2-1.6-0.1-2.3c-0.4-0.7-1-1.1-1.7-1.3
			C128.9,82.7,128.4,82.6,127.8,82.6L127.8,82.6z M125,87.8c0.2-1,0.8-1.8,1.7-2.2c0.2-0.1,0.5-0.2,0.7-0.2l0,0c0.1,0,0.2,0,0.2,0.1
			c0,0.1,0,0.2,0,0.2c0,0.2-0.1,0.5-0.3,0.7C126.7,87.1,125.9,87.6,125,87.8z"/>
		<path d="M89.7,94.7h-0.6c-1,0-2-0.5-2.7-1.2c-0.6-0.8-0.9-1.8-0.8-2.8c0.1-0.9,0.3-1.7,0.7-2.5c1.4-2.9,3.5-4.6,6.2-5.2
			c0.3,0,0.5-0.1,0.8-0.1c0.5,0,1,0.1,1.4,0.2c1.2,0.2,2,1.4,1.7,2.6c0,0.1,0,0.1,0,0.2c-0.2,1.1-0.9,2-1.9,2.5
			c-1.3,0.6-2.6,1.1-3.9,1.6c-1,0.3-1,0.3-0.9,0.8s0.3,1.2,1.1,1.2h0.1c0.6,0,1.1-0.2,1.6-0.5c0.4-0.3,0.9-0.6,1.2-1l0.6-0.5
			l0.2-0.2l1.1,0.7v0.2c0,0,0,0.1,0,0.1c0,0.1,0,0.3-0.1,0.4C94.3,93.4,92.1,94.7,89.7,94.7z M92.8,85c-0.6,0-1.2,0.3-1.6,0.8
			c-0.6,0.7-1,1.5-1.2,2.4c1.2-0.2,2.4-0.8,3.2-1.7c0.1-0.2,0.3-0.4,0.3-0.6c0.1-0.2,0.1-0.5,0-0.8c-0.2-0.2-0.4-0.3-0.7-0.3
			L92.8,85z"/>
		<path class="st2" d="M93.4,83.3c0.5,0,0.9,0.1,1.3,0.2c1,0.2,1.7,1.2,1.5,2.2c0,0.1,0,0.2-0.1,0.2c-0.2,1-0.8,1.8-1.8,2.2
			c-1.3,0.6-2.5,1.1-3.9,1.6c-1.1,0.4-1.2,0.4-1.2,1.2c0.1,1,0.6,1.6,1.4,1.6h0.1c0.6,0,1.2-0.2,1.7-0.5c0.7-0.4,1.3-0.9,1.9-1.5
			l0.7,0.4c0,0.1,0,0.2,0,0.3c-1.1,1.9-3.2,3.1-5.5,3.1h-0.5c-1.7,0.1-3.1-1.2-3.2-2.8c0-0.2,0-0.5,0-0.7c0.1-0.8,0.3-1.6,0.7-2.3
			c1-2.5,3.3-4.4,5.9-5C92.9,83.4,93.2,83.4,93.4,83.3L93.4,83.3z M89.6,88.7c1.5-0.1,2.9-0.8,3.9-1.9c0.2-0.2,0.3-0.4,0.4-0.7
			c0.3-0.5,0-1.2-0.5-1.4c-0.2-0.1-0.3-0.1-0.5-0.1h-0.1c-0.7,0.1-1.4,0.4-1.8,1C90.2,86.5,89.7,87.6,89.6,88.7L89.6,88.7z
			 M93.4,82.6c-0.3,0-0.6,0-0.9,0.1c-2.8,0.6-4.9,2.3-6.4,5.4c-0.4,0.8-0.6,1.7-0.7,2.6c-0.1,1.1,0.2,2.2,0.8,3
			c0.8,0.8,1.8,1.3,2.9,1.3c0.2,0,0.4,0,0.6,0c2.5,0,4.8-1.3,6.1-3.4c0.1-0.2,0.2-0.4,0.1-0.6l0,0v-0.4l-0.4-0.2L95.2,90l-0.3-0.2
			l-0.4-0.3l-0.4,0.3l-0.6,0.5c-0.4,0.3-0.8,0.6-1.2,0.9c-0.4,0.2-0.9,0.4-1.4,0.4h-0.1c-0.4,0-0.6-0.3-0.7-0.9c0-0.1,0-0.1,0-0.2
			c0.1-0.1,0.4-0.2,0.7-0.2c1.4-0.4,2.7-1,4-1.6c1.1-0.5,1.9-1.5,2.1-2.7c0.4-1.4-0.4-2.8-1.7-3.2c-0.1,0-0.1,0-0.2-0.1
			C94.5,82.7,93.9,82.6,93.4,82.6L93.4,82.6z M90.5,87.8c0.2-0.6,0.5-1.2,1-1.7c0.3-0.4,0.8-0.7,1.3-0.7h0.1c0.1,0,0.3,0,0.4,0.1
			c0.1,0.1,0.1,0.3,0,0.4c-0.1,0.2-0.1,0.3-0.3,0.5C92.4,87.1,91.5,87.6,90.5,87.8L90.5,87.8z"/>
		<path d="M100.6,94.7c-2,0.3-3.8-1.1-4.1-3.1c-0.1-0.6,0-1.2,0.2-1.7c0.6-2.9,3.4-6.3,6.9-6.8c0.2,0,0.4,0,0.7,0
			c0.4,0,0.8,0,1.2,0.1c0.8,0.1,1.4,0.6,1.8,1.3c0.3,0.7,0.3,1.6-0.1,2.3c-0.5,0.9-1.2,1.6-2.2,2c-0.9,0.4-1.8,0.7-2.8,1.1l-0.7,0.3
			c-0.2,0.1-0.5,0.2-0.7,0.2h-0.1v0.1c0,0.2,0,0.3,0,0.5c0,0.5,0.2,1.3,1.1,1.3l0,0c0.2,0,0.3,0,0.4-0.1c0.6-0.2,1.2-0.5,1.7-0.8
			l0,0c0.3-0.2,0.5-0.4,0.7-0.7l0.4-0.4l0.2-0.2l1.1,0.7V91c0,0.1,0,0.3-0.1,0.4C105.2,93.4,103,94.7,100.6,94.7L100.6,94.7z
			 M103.8,85c-0.2,0-0.3,0-0.5,0.1c-0.3,0.1-0.6,0.3-0.9,0.5c-0.8,0.7-1.3,1.7-1.5,2.8l0.4-0.1c0.6-0.2,1.1-0.4,1.6-0.6
			c0.5-0.3,1-0.7,1.4-1.2c0.3-0.3,0.3-0.7,0.1-1.1C104.3,85.1,104,85,103.8,85z"/>
		<path class="st2" d="M104.3,83.3c0.4,0,0.7,0,1.1,0.1c1.1,0.2,1.8,1.2,1.7,2.3c0,0.3-0.1,0.5-0.3,0.7c-0.4,0.9-1.1,1.5-2,1.9
			c-1.1,0.5-2.3,0.9-3.5,1.3c-0.3,0.1-0.7,0.2-1,0.3c0,0.3-0.1,0.6-0.1,0.8c0,1,0.6,1.7,1.5,1.7c0.2,0,0.4,0,0.5-0.1
			c0.7-0.2,1.3-0.5,1.9-0.9c0.4-0.3,0.8-0.7,1.2-1.1l0.7,0.5c0,0.1,0,0.2,0,0.3c-1.1,1.9-3.2,3.1-5.4,3.1h-0.1
			c-2.8,0-4.1-1.7-3.6-4.4s3.1-6,6.6-6.5C103.9,83.3,104.1,83.3,104.3,83.3z M100.5,88.9c0.9-0.3,1.8-0.6,2.6-1
			c0.6-0.3,1.1-0.8,1.5-1.3c0.4-0.4,0.5-1,0.2-1.5c-0.2-0.3-0.6-0.5-1-0.5c-0.2,0-0.4,0-0.6,0.1c-0.4,0.1-0.7,0.3-1,0.6
			C101.1,86.2,100.5,87.5,100.5,88.9L100.5,88.9z M104.3,82.6c-0.2,0-0.5,0-0.7,0.1c-3.7,0.6-6.6,4.1-7.2,7.1
			c-0.4,1.3-0.1,2.7,0.7,3.8c0.9,1,2.3,1.5,3.6,1.4h0.1c2.5,0,4.8-1.3,6-3.5c0.1-0.2,0.2-0.4,0.1-0.6l0,0v-0.4l-0.3-0.2L106,90
			l-0.2-0.1l-0.5-0.3l-0.4,0.4l-0.4,0.4c-0.2,0.2-0.4,0.4-0.7,0.6h-0.1c-0.5,0.4-1,0.6-1.6,0.8c-0.1,0-0.2,0-0.4,0
			c-0.2,0-0.7,0-0.8-1c0-0.1,0-0.2,0-0.2c0.2,0,0.4-0.1,0.6-0.2l0.8-0.3c0.9-0.3,1.9-0.7,2.8-1.1c1-0.4,1.9-1.3,2.3-2.3
			c0.4-0.8,0.5-1.7,0.1-2.6c-0.4-0.8-1.1-1.3-2-1.5c-0.4-0.1-0.8-0.1-1.3-0.2L104.3,82.6z M101.4,87.8c0.2-0.7,0.6-1.4,1.2-1.9
			c0.2-0.2,0.5-0.3,0.8-0.4c0.1,0,0.2-0.1,0.4-0.1c0.1,0,0.3,0,0.4,0.2c0.1,0.1,0.2,0.3-0.1,0.6c-0.4,0.4-0.8,0.8-1.3,1.1
			C102.3,87.5,101.9,87.6,101.4,87.8z"/>
		<path d="M135.5,94.7H135c-2,0-3.7-1.6-3.7-3.6c0-0.1,0-0.2,0-0.3c0-0.5,0.1-1.1,0.2-1.6c0.8-3.2,3.4-5.7,6.8-6.2
			c0.2,0,0.3,0,0.5,0c0.6,0,1.1,0.1,1.7,0.3c0.5,0.2,1,0.5,1.3,0.9c0.3,0.3,0.5,0.8,0.4,1.3c0,0.4-0.2,0.8-0.5,1.1
			c-0.3,0.3-0.7,0.4-1.1,0.4c-0.5,0-1-0.2-1.3-0.5c-0.2-0.2-0.3-0.4-0.5-0.7l-0.1-0.2c-0.3-0.4-0.4-0.5-0.5-0.5
			c-0.2,0-0.3,0.1-0.4,0.2c-0.3,0.2-0.6,0.4-0.9,0.7c-1.2,1.4-1.7,3.2-1.4,5c0.1,0.9,0.6,1.5,1.4,1.5l0,0c0.3,0,0.6-0.1,0.8-0.2
			c0.6-0.3,1.2-0.7,1.7-1.1l0.9-0.6l0.2-0.1l1,0.8v0.2c0,0,0,0.1,0,0.1c0,0.1,0,0.2-0.1,0.3C139.9,93.6,137.8,94.7,135.5,94.7z"/>
		<path class="st2" d="M138.7,83.4c0.5,0,1.1,0.1,1.6,0.2c0.4,0.2,0.8,0.4,1.1,0.8c0.5,0.5,0.5,1.3,0,1.8c-0.2,0.2-0.6,0.3-0.9,0.3
			c-0.4,0-0.7-0.2-1-0.4c-0.2-0.3-0.4-0.6-0.6-0.9c-0.3-0.4-0.5-0.6-0.8-0.6c-0.2,0-0.4,0.1-0.6,0.2c-0.4,0.2-0.7,0.5-1,0.8
			c-1.2,1.4-1.8,3.3-1.5,5.2c0,1,0.8,1.8,1.7,1.8c0.3,0,0.7-0.1,1-0.2c0.9-0.5,1.8-1.1,2.6-1.7l0.6,0.5c0,0.1,0,0.2-0.1,0.3
			c-1.2,1.8-3.2,2.8-5.3,2.9c-0.2,0-0.4,0-0.5,0c-1.8,0-3.3-1.4-3.4-3.2c0-0.1,0-0.2,0-0.4c0-0.5,0-1,0.2-1.5
			c0.8-3.1,3.3-5.4,6.4-5.9C138.4,83.4,138.6,83.4,138.7,83.4L138.7,83.4z M138.7,82.6c-0.2,0-0.4,0-0.6,0c-3.4,0.5-6.2,3-7.1,6.4
			c-0.1,0.6-0.2,1.1-0.2,1.7c-0.1,2.2,1.5,4.1,3.7,4.3c0.1,0,0.3,0,0.4,0h0.6c2.3,0,4.5-1.2,5.9-3.2c0.1-0.1,0.2-0.3,0.2-0.5
			c0,0,0-0.1,0-0.1l0.1-0.5l-0.4-0.3l-0.6-0.4l-0.4-0.3l-0.4,0.3l-0.9,0.6c-0.5,0.4-1.1,0.7-1.7,1c-0.2,0.1-0.4,0.2-0.7,0.2
			c-0.8,0-1-0.8-1-1.1c-0.2-1.6,0.2-3.3,1.3-4.6c0.2-0.3,0.5-0.5,0.8-0.6c0.1,0,0.2-0.1,0.2-0.1c0.1,0.1,0.2,0.2,0.2,0.3l0.1,0.2
			c0.1,0.3,0.3,0.5,0.5,0.8c0.4,0.4,1,0.6,1.6,0.6c0.5,0,1-0.2,1.4-0.5c0.4-0.3,0.6-0.8,0.6-1.3c0-0.6-0.2-1.1-0.5-1.5
			c-0.4-0.5-0.9-0.8-1.5-1C139.9,82.8,139.3,82.7,138.7,82.6L138.7,82.6z"/>
		<path d="M48.1,94.4l0.1-0.4c0-0.1,0-0.2,0-0.4s0.1-0.5,0.1-0.7l0.7-2.4c0.3-1.2,0.6-2.4,1-3.6c0-0.2,0.1-0.5,0-0.8L49,87l-1.2-0.6
			v-0.3c0,0,0-0.1,0-0.1c0-0.2,0-0.3,0.1-0.4c0.1-0.2,0.2-0.3,0.4-0.5c0.4-0.5,0.8-1,1.3-1.4c0.5-0.4,1.1-0.7,1.7-0.7h0.4
			c1,0,1.8,0.8,1.8,1.8c0,0,0,0,0,0c0,0.1,0,0.2,0,0.2c0.1-0.1,0.1-0.2,0.2-0.3c0.4-0.8,1.2-1.3,2-1.6c0.2-0.1,0.5-0.1,0.7-0.1
			c1,0,1.7,0.7,1.8,1.7c0.1,0.5,0,0.9-0.1,1.4c-0.1,0.6-0.7,1.1-1.3,1.1h-0.2c-0.6,0-1.1-0.4-1.2-0.9c0,0,0-0.1,0-0.1
			c-0.2,0.2-0.4,0.4-0.6,0.7L54.5,87c-0.9,1.6-1.6,3.3-2,5.1c-0.1,0.5-0.3,0.9-0.4,1.4l-0.3,0.9H48.1z"/>
		<path class="st2" d="M56.3,83.3c0.8,0,1.4,0.6,1.4,1.3c0,0,0,0,0,0c0,0.4,0,0.9-0.1,1.3c-0.1,0.5-0.5,0.8-1,0.8h-0.2
			c-0.4,0-0.8-0.3-0.9-0.7c-0.1-0.2-0.1-0.3-0.2-0.4c-0.6,0.2-0.8,0.7-1.1,1.1c-0.9,1.6-1.6,3.3-2.1,5.2c-0.2,0.7-0.4,1.3-0.6,2h-3
			c0.1-0.4,0.1-0.7,0.2-1c0.5-2,1.1-4,1.6-6c0.1-0.4,0.1-0.9,0.2-1.3l-0.2-0.1l-1.2,1l-0.8-0.4c0-0.2,0-0.3,0.1-0.4
			c0.5-0.6,1-1.2,1.6-1.8c0.4-0.3,0.9-0.6,1.5-0.7c0.1,0,0.2,0,0.3,0c0.8,0,1.4,0.7,1.4,1.4c0,0,0,0,0,0c0,0.4,0,0.8,0,1.5l0.9-1.4
			c0.4-0.7,1-1.2,1.8-1.5C55.9,83.4,56.1,83.3,56.3,83.3L56.3,83.3z M56.3,82.6c-0.3,0-0.5,0-0.8,0.1c-0.7,0.2-1.4,0.7-1.9,1.3
			c-0.3-0.9-1.1-1.5-2-1.4c-0.1,0-0.3,0-0.4,0c-0.7,0.1-1.3,0.4-1.8,0.8c-0.5,0.5-1,1-1.4,1.5c-0.1,0.2-0.2,0.3-0.4,0.5
			c-0.1,0.2-0.2,0.4-0.2,0.6c0,0,0,0.1,0,0.1l-0.1,0.5l0.5,0.2l0.6,0.3l0.2,0.1l0.4,0.2l0.4-0.3l0.1-0.1c-0.3,1.1-0.6,2.2-0.9,3.3
			L48,92.8c-0.1,0.2-0.1,0.5-0.2,0.8c0,0.1,0,0.2,0,0.3l-0.2,0.9h4.4l0.2-0.5l0.2-0.7c0.1-0.5,0.3-0.9,0.4-1.4c0.4-1.8,1.1-3.4,2-5
			l0.1-0.2c0-0.1,0.1-0.2,0.1-0.2c0.3,0.5,0.8,0.8,1.4,0.7h0.2c0.8-0.1,1.5-0.6,1.7-1.4c0.1-0.5,0.2-1,0.1-1.5
			C58.4,83.5,57.4,82.6,56.3,82.6L56.3,82.6z"/>
		<path d="M76.4,94.4l0.1-0.4c0-0.1,0-0.2,0-0.3c0-0.2,0.1-0.4,0.1-0.7c0.2-0.8,0.4-1.6,0.6-2.4c0.3-1.2,0.6-2.4,0.9-3.6
			c0.1-0.3,0.1-0.6,0.1-0.9l-1,0.8L76,86.5l0.1-0.3c0,0,0-0.1,0-0.1c0-0.1,0.1-0.3,0.2-0.4l0.4-0.5c0.4-0.5,0.8-0.9,1.2-1.3
			c0.5-0.4,1.2-0.7,1.8-0.8H80c1,0,1.7,0.8,1.7,1.7c0,0,0,0.1,0,0.1c0,0.1,0,0.2,0,0.3l0.2-0.4c0.4-0.8,1.2-1.4,2.1-1.7
			c0.2,0,0.4-0.1,0.6-0.1c0.7,0,1.4,0.4,1.7,1.1c0.5,1,0.2,2.2-0.7,2.9c-0.6,0.4-1.5,0.2-1.9-0.4c0,0-0.1-0.1-0.1-0.1
			c-0.1-0.1-0.1-0.2-0.2-0.3c-1.4,1.9-2.3,4.2-2.8,6.5c-0.1,0.5-0.3,1-0.4,1.5l-0.1,0.3L76.4,94.4z"/>
		<path class="st2" d="M84.6,83.3c0.6,0,1.1,0.3,1.3,0.9c0.4,0.8,0.2,1.8-0.6,2.4c-0.2,0.1-0.4,0.2-0.6,0.2c-0.4,0-0.7-0.2-0.9-0.6
			c-0.1-0.2-0.2-0.3-0.4-0.8c-2.2,2.5-2.8,5.6-3.7,8.6h-3c0-0.3,0.1-0.7,0.1-0.9c0.5-2,1.1-4,1.6-6c0.1-0.5,0.2-0.9,0.2-1.4
			l-0.3-0.1l-1.2,1l-0.8-0.4c0.1-0.2,0-0.3,0.1-0.4c0.5-0.6,1-1.2,1.5-1.8c0.4-0.4,1-0.6,1.6-0.7H80c0.8,0,1.4,0.6,1.4,1.4
			c0,0,0,0.1,0,0.1c0,0.4,0,0.8,0,1.5c0.4-0.7,0.7-1.1,0.9-1.5c0.4-0.7,1.1-1.3,1.9-1.5C84.3,83.4,84.5,83.4,84.6,83.3L84.6,83.3z
			 M84.6,82.6c-0.2,0-0.4,0-0.7,0.1c-0.8,0.2-1.5,0.7-2,1.4c-0.2-0.9-1.1-1.5-2-1.5h-0.4c-0.7,0.1-1.4,0.4-1.9,0.9
			c-0.5,0.4-0.9,0.9-1.2,1.4L76,85.4c-0.1,0.2-0.2,0.4-0.2,0.6c0,0,0,0.1,0,0.1l-0.1,0.6l0.6,0.2l0.7,0.3l0.2,0.1l0.4,0.2l0.3-0.3
			l0,0c-0.3,1.1-0.6,2.3-0.9,3.4c-0.2,0.8-0.4,1.6-0.7,2.4c-0.1,0.2-0.1,0.5-0.1,0.7c0,0.1,0,0.2,0,0.3L76,94.8h4.4l0.2-0.5
			c0.2-0.5,0.3-1,0.4-1.5c0.4-2.1,1.3-4.1,2.4-5.9c0.3,0.5,0.8,0.7,1.4,0.7c0.3,0,0.6-0.1,0.9-0.3c1-0.8,1.4-2.1,0.9-3.3
			C86.3,83.2,85.5,82.6,84.6,82.6L84.6,82.6z"/>
		<path d="M43,94.8c-0.6,0-1.1-0.2-1.5-0.6c-0.8-0.7-1-1.8-0.6-2.8c0.3-1,0.6-1.9,1-2.8l0.5-1.6c0-0.1,0.1-0.2,0.1-0.3
			c0.1-0.2,0.2-0.5,0.2-0.8c-0.3,0-0.4,0.2-0.7,0.5c-0.2,0.3-0.4,0.5-0.7,0.6L41,87.1l-1.2-1l0.2-0.3c0.8-1.5,2.3-2.5,4-2.8h0.5
			c0.7,0,1.3,0.2,1.8,0.7c0.4,0.6,0.6,1.4,0.4,2.1c-0.1,0.8-0.3,1.5-0.6,2.3v0.1c-0.2,0.5-0.4,1.1-0.5,1.6s-0.3,0.9-0.5,1.4
			c-0.1,0.2-0.1,0.4-0.1,0.6c0.3-0.1,0.5-0.3,0.7-0.5c0.2-0.2,0.4-0.4,0.7-0.6l0.2-0.1l1.1,0.9l-0.1,0.2c0,0,0,0.1,0,0.1
			c0,0.1-0.1,0.3-0.2,0.4L47,92.4c-0.5,0.5-1,1-1.6,1.5c-0.3,0.3-0.6,0.4-1,0.6C44,94.7,43.5,94.8,43,94.8z"/>
		<path class="st2" d="M44.4,83.4c1.4,0,2,0.8,1.8,2.3c-0.2,0.8-0.4,1.6-0.6,2.4c-0.3,1-0.7,2-1,3c-0.1,0.4-0.2,0.7-0.2,1.1h0.1
			c1,0,1.2-0.8,1.9-1.2l0.7,0.6c0,0.2-0.1,0.3-0.1,0.4c-0.6,0.6-1.2,1.2-1.8,1.7c-0.3,0.2-0.6,0.4-0.9,0.5c-0.4,0.1-0.8,0.2-1.2,0.2
			c-0.5,0-0.9-0.2-1.3-0.5c-0.7-0.6-0.9-1.5-0.5-2.4c0.4-1.5,1-2.9,1.5-4.4c0.3-0.5,0.4-1,0.2-1.6h-0.2c-0.8,0-1,0.8-1.7,1.2
			l-0.8-0.6c1-1.4,2-2.5,3.7-2.7L44.4,83.4L44.4,83.4z M44.4,82.7h-0.5c-1.8,0.3-3.4,1.4-4.2,3l-0.4,0.6l0.5,0.4l0.2,0.1l0.6,0.5
			l0.4,0.3l0.4-0.2c0.2-0.1,0.4-0.3,0.6-0.4c-0.2,0.5-0.4,1.1-0.5,1.6c-0.3,0.9-0.7,1.9-1,2.9c-0.6,1.4,0,3,1.4,3.6
			c0.4,0.2,0.8,0.2,1.2,0.2c0.5,0,1-0.1,1.5-0.3c0.4-0.1,0.8-0.4,1.2-0.7c0.5-0.5,1.1-1,1.6-1.5l0.2-0.2c0.1-0.1,0.2-0.3,0.3-0.5
			v-0.1l0.2-0.5L47.5,91l-0.7-0.6l-0.4-0.3l-0.4,0.3c-0.2,0.1-0.3,0.2-0.5,0.4l0.3-0.8c0.2-0.5,0.4-1,0.5-1.6v-0.1
			c0.3-0.7,0.5-1.5,0.7-2.3c0.2-0.8,0-1.7-0.5-2.4C46,82.9,45.3,82.6,44.4,82.7L44.4,82.7z"/>
		<path d="M46,81c-0.6,0-1.2-0.3-1.6-0.7c-0.3-0.4-0.5-0.8-0.5-1.3c0.1-1.1,1-2,2.1-1.9c0.6,0,1.2,0.2,1.6,0.7
			c0.4,0.3,0.6,0.8,0.6,1.3C48.1,80.2,47.2,81,46,81z"/>
		<path class="st2" d="M46,77.4L46,77.4c0.9-0.1,1.8,0.6,1.8,1.6c0,0,0,0,0,0c-0.1,0.9-0.9,1.7-1.8,1.6l0,0c-0.9,0-1.7-0.7-1.8-1.6
			C44.3,78.1,45.1,77.4,46,77.4z M46,76.7c-1.3-0.1-2.4,1-2.5,2.3c0,0.6,0.2,1.2,0.7,1.6c0.5,0.5,1.1,0.8,1.8,0.8l0,0
			c1.4,0.1,2.5-1,2.6-2.4c0-0.6-0.2-1.2-0.7-1.6C47.4,76.9,46.7,76.7,46,76.7L46,76.7L46,76.7z"/>
		<path d="M111.7,48.3c-0.2-1.4-0.5-2.6-0.7-3.9c0-0.4,0.1-0.7,0.3-1c0.1-0.2,0.4-0.3,0.6-0.3c0.2,0.1,0.4,0.3,0.5,0.5
			c0.1,1.2,0.2,2.5,0.3,3.7C112.8,47.9,112.3,48,111.7,48.3z"/>
		<path d="M111.9,42c0.8-1.8,2.3-2,3.4-3c0.4,0.3,0.6,0.6,0.2,1c-0.8,0.7-1.6,1.3-2.5,1.9C112.8,42,112.4,41.9,111.9,42z"/>
		<path class="st0" d="M46.5,88.6l0.6-1.8c0.5,0.2,1,0.5,1.5,0.8c0.2,0.1,0.3,0.3,0.3,0.6c-0.1,0.2-0.2,0.4-0.4,0.4
			c-0.6,0.1-1.2,0.2-1.8,0.3L46.5,88.6z"/>
		<path class="st1" d="M94.4,89.5L94.4,89.5"/>
		<path class="st0" d="M54.9,87.6c0.1-0.1,0.1-0.1,0.2-0.2c0.1,0,0.2,0.1,0.2,0.2c0,0-0.1,0.1-0.1,0.1C55.1,87.6,55,87.6,54.9,87.6z
			"/>
		<path class="st2" d="M106.2,18.1c0,0.8,0.3,1.6,1,2c0.6,0.5,1.1,1,0.7,2c-0.1,0.5-0.1,1,0,1.5C93.5,31.7,78.6,39.9,64.1,48
			c-0.3-0.7-0.5-1.3-0.8-2c-0.2-0.5-0.3-1-0.4-1.5c-0.1-0.7,0-1.5,0-2.3L106.2,18.1z"/>
	</g>
</g>
</svg>
