<?xml version="1.0" encoding="utf-8"?>
<!-- Generator: Adobe Illustrator 22.1.0, SVG Export Plug-In . SVG Version: 6.00 Build 0)  -->
<svg version="1.1" id="Слой_1" xmlns="http://www.w3.org/2000/svg" xmlns:xlink="http://www.w3.org/1999/xlink" x="0px" y="0px"
	 width="566.929px" height="117.145px" viewBox="0 0 566.929 117.145" enable-background="new 0 0 566.929 117.145"
	 xml:space="preserve">
<g>
	<path fill-rule="evenodd" clip-rule="evenodd" fill="#990000" d="M262.119,70.286L322.909,0h65.336l3.953,70.286h-52.955
		l1.952-7.42h-10.04l-5.029,7.42H262.119L262.119,70.286z M414.536,70.199l15.566-32.015H398.64L416.458,0h128.946l-18.209,38.184
		h-32.03l-15.542,32.102L414.536,70.199L414.536,70.199z M410.568,78.211l65.424-0.053l-18.698,38.987h-117.06l-2.228-10.041H294.69
		l-10.883,10.041H106.985c-13.646,0-22.921-16.993-18.175-26.504l25.267-50.644l137.911,0.153l-14.595,30.137h-76.046l-3.793,7.924
		h85.543l-12.993,28.893l25.018-28.873l137.537-0.003l1.869,33.125L410.568,78.211L410.568,78.211z M117.535,32.801l6.854-13.473
		C129.209,9.853,133.124,0,143.802,0h127.631l-15.924,32.88L117.535,32.801L117.535,32.801z M469.049,107.103h82.041l-4.955,10.041
		h-82.041L469.049,107.103L469.049,107.103z M476.721,91.928h82.041l-4.955,10.041h-82.041L476.721,91.928L476.721,91.928z
		 M484.888,75.095h82.041l-4.955,10.041h-82.041L484.888,75.095L484.888,75.095z M4.955,107.103h73.703
		c2.599,5.104,6.269,7.752,10.541,9.022l-0.748,1.019H0L4.955,107.103L4.955,107.103z M12.193,91.928h65.266
		c-0.847,3.347-1.085,6.693-0.437,10.041H7.238L12.193,91.928L12.193,91.928z M19.564,75.095h64.771l-4.407,10.041H15.652
		L19.564,75.095L19.564,75.095z"/>
</g>
</svg>
