<?xml version="1.0" encoding="utf-8"?>
<!-- Generator: Adobe Illustrator 22.1.0, SVG Export Plug-In . SVG Version: 6.00 Build 0)  -->
<svg version="1.1" xmlns="http://www.w3.org/2000/svg" xmlns:xlink="http://www.w3.org/1999/xlink" x="0px" y="0px"
	 viewBox="0 0 1014 442.6" style="enable-background:new 0 0 1014 442.6;" xml:space="preserve">
<style type="text/css">
	.st0{fill:#00439B;}
	.st1{fill:#83C5E6;}
	.st2{fill:#4FCDD4;}
	.st3{fill:#FF7900;}
</style>
<g id="Слой_1">
</g>
<g id="Слой_2">
	<g>
		<path class="st0" d="M343,266.9l-10.7,39h-35.5L343.1,154h44.9l47.3,151.9h-37l-11.7-39H343z M381.6,241.3l-9.5-32.3
			c-2.6-9-5.3-20.4-7.6-29.2H364c-2.2,8.9-4.5,20.5-7,29.3l-9.1,32.2H381.6z"/>
		<path class="st0" d="M479.4,164.1v31.5H504v25.3h-24.7v40c0,13.3,3.3,19.4,13.5,19.4c4.4,0,7.8-0.5,10.2-1l0.3,26.1
			c-4.4,1.6-12.6,2.9-22.2,2.9c-11.1,0-20.3-3.9-25.8-9.6c-6.4-6.5-9.5-17-9.5-32.7v-45.1h-14.7v-25.3h14.7v-23.7L479.4,164.1z"/>
		<path class="st0" d="M515,145.9h34.3v160H515V145.9z"/>
		<path class="st0" d="M630.9,305.9l-2-11h-0.7c-7.2,8.8-18.5,13.4-31.5,13.4c-22.5,0-35.6-16.1-35.6-33.7
			c0-28.7,25.7-42.4,64.7-42.3v-1.4c0-5.9-3.2-14.2-20.2-14.2c-11.2,0-23.1,3.8-30.4,8.2l-6.3-21.9c7.7-4.4,22.7-9.9,42.9-9.9
			c36.7,0,48.3,21.7,48.3,47.6v38.5c0,10.5,0.6,20.5,1.8,26.7H630.9z M626.7,253.7c-18-0.1-32,4.2-32,17.4c0,8.9,5.8,13.2,13.6,13.2
			c8.4,0,15.5-5.6,17.7-12.7c0.5-1.8,0.6-3.9,0.6-5.9V253.7z"/>
		<path class="st0" d="M678.4,230.8c0-13.7-0.4-25.3-0.9-35.2h29.7l1.6,15.3h0.7c4.4-7.1,15.7-17.8,34.1-17.8
			c22.5,0,39.5,15,39.5,47.5v65.3h-34.3v-61.1c0-14.2-5.1-23.9-17.4-23.9c-9.4,0-15,6.6-17.4,12.9c-0.9,2.1-1.2,5.4-1.2,8.5v63.6
			h-34.3V230.8z"/>
		<path class="st0" d="M838.4,164.1v31.5h24.7v25.3h-24.7v40c0,13.3,3.3,19.4,13.5,19.4c4.4,0,7.8-0.5,10.2-1l0.3,26.1
			c-4.4,1.6-12.6,2.9-22.2,2.9c-11.1,0-20.3-3.9-25.8-9.6c-6.4-6.5-9.5-17-9.5-32.7v-45.1h-14.7v-25.3h14.7v-23.7L838.4,164.1z"/>
		<path class="st0" d="M909.4,165c0,9.5-7,17.1-18.4,17.1c-10.9,0-17.9-7.6-17.8-17.1c0-9.8,7.2-17.2,18.2-17.2
			C902.4,147.8,909.3,155.1,909.4,165z M874.1,305.9V195.6h34.3v110.3H874.1z"/>
		<path class="st0" d="M1009.8,303.1c-6.2,2.9-17.7,5.1-30.7,5.1c-35.6,0-58.3-21.8-58.3-56.5c0-32.2,22.1-58.6,63.1-58.6
			c9.1,0,19,1.6,26.2,4.3l-5.3,25.5c-4.1-1.8-10.2-3.5-19.2-3.5c-18.1,0-29.8,12.9-29.6,30.9c0,20.3,13.6,31,30.2,31
			c8.2,0,14.5-1.4,19.8-3.6L1009.8,303.1z"/>
	</g>
	<g>
		<path class="st1" d="M586.9,164.8c0.5,6.9,7.3,10.2,15.1,10.2c5.6,0,10.2-0.8,14.7-2.3l2.2,11.2c-5.5,2.3-12.2,3.4-19.4,3.4
			c-18.1,0-28.5-10.5-28.5-27.2c0-13.6,8.5-28.6,26.9-28.6c17.3,0,23.9,13.5,23.9,26.7c0,2.9-0.3,5.3-0.6,6.6H586.9z M606.4,153.4
			c0-4-1.8-10.8-9.3-10.8c-7,0-9.9,6.4-10.3,10.8H606.4z"/>
		<path class="st1" d="M678.8,169.1c0,6.9,0.2,12.7,0.4,17.1h-14.4l-0.8-7.5h-0.3c-2.1,3.3-7.1,8.7-16.6,8.7
			c-10.9,0-18.8-6.8-18.8-23.2v-31.4h16.6v28.7c0,7.8,2.5,12.5,8.4,12.5c4.5,0,7.2-3.1,8.3-5.8c0.4-1,0.6-2.2,0.6-3.5v-31.8h16.6
			V169.1z"/>
		<path class="st1" d="M688.9,150.4c0-7.8-0.1-13-0.4-17.6h14.3l0.6,9.9h0.4c2.7-7.8,9.2-11.1,14.4-11.1c1.5,0,2.3,0,3.5,0.3v15.6
			c-1.3-0.3-2.6-0.5-4.5-0.5c-6.1,0-10.3,3.2-11.4,8.4c-0.2,1.1-0.3,2.3-0.3,3.7v27h-16.6V150.4z"/>
		<path class="st1" d="M778.9,158.9c0,19.5-13.8,28.4-28.2,28.4c-15.5,0-27.6-10.3-27.6-27.5c0-17.2,11.4-28.3,28.5-28.3
			C768,131.6,778.9,142.8,778.9,158.9z M740.2,159.5c0,9.1,3.9,16,10.9,16c6.5,0,10.6-6.5,10.6-16.1c0-7.9-3-16-10.6-16
			C743.3,143.4,740.2,151.6,740.2,159.5z"/>
	</g>
	<g>
		<path class="st1" d="M126.7,236.1c21.1,0,30.9,5.7,52.8,0c30.2-7.9,41.7-48.9,111.8-45.8l37.9-106.3c-28.6,0.1-68.9,10-93.4,25.3
			c-17.4,10.9-35,27.3-49.3,35.2c-15.4,8.6-41,20.5-68.4,17.8c-30,38.6-67,86-114.7,144.2c17.6,0,31.7-17.6,52.8-35.2
			S91.5,236.1,126.7,236.1z"/>
		<path class="st0" d="M186.8,256c-21.9,5.7-31.7,0-52.8,0c-35.2,0-49.3,17.6-70.4,35.2c-6.3,5.3-12,10.5-17.3,15.3H250l32.6-91.5
			C229.5,211.4,216.9,248.2,186.8,256z"/>
		<path class="st2" d="M183.1,123.5c14.3-7.9,31.9-24.3,49.3-35.2c27.7-17.3,75.8-27.8,104.2-24.8l22.5-63.3
			c-106.9-2.6-126.9,16-221.5,137.3C148.2,137.3,167.4,132.2,183.1,123.5z"/>
	</g>
	<g>
		<path class="st2" d="M713.7,418.6l-1-5.3h-0.4c-3.5,4.3-8.9,6.5-15.3,6.5c-10.9,0-17.3-7.8-17.3-16.3c0-13.9,12.4-20.5,31.4-20.5
			v-0.7c0-2.8-1.5-6.9-9.8-6.9c-5.4,0-11.2,1.9-14.7,4l-3.1-10.6c3.7-2.1,11-4.8,20.8-4.8c17.8,0,23.4,10.5,23.4,23.1v18.6
			c0,5.1,0.3,9.9,0.9,12.9H713.7z M711.7,393.3c-8.7,0-15.5,2.1-15.5,8.4c0,4.3,2.8,6.4,6.6,6.4c4.1,0,7.5-2.7,8.6-6.1
			c0.3-0.9,0.3-1.9,0.3-2.8V393.3z"/>
		<path class="st2" d="M751.8,350.3c0,4.6-3.4,8.3-8.9,8.3c-5.3,0-8.7-3.7-8.6-8.3c0-4.7,3.5-8.3,8.8-8.3
			C748.4,342,751.8,345.5,751.8,350.3z M734.7,418.6v-53.4h16.6v53.4H734.7z"/>
		<path class="st2" d="M758.4,382.8c0-7.8-0.1-13-0.4-17.6h14.3l0.6,9.9h0.4c2.7-7.8,9.2-11.1,14.4-11.1c1.5,0,2.3,0,3.5,0.3v15.6
			c-1.3-0.3-2.6-0.5-4.5-0.5c-6.1,0-10.3,3.2-11.4,8.4c-0.2,1.1-0.3,2.3-0.3,3.7v27h-16.6V382.8z"/>
		<path class="st2" d="M811.1,365.1l4.3,21.9c1.1,5.5,2.1,11.4,3,17.5h0.3c1-6.1,2.6-12.2,3.9-17.4l5.6-22h13.2l5.3,21.3
			c1.4,6.1,2.9,12.1,3.9,18.1h0.2c0.7-6.1,1.8-12.1,3.1-18.2l4.5-21.2h16.2l-16.3,53.4h-15.6l-5-18.7c-1.4-5.3-2.4-10-3.5-16.7h-0.2
			c-1,6.7-2.1,11.7-3.4,16.6l-5.3,18.8h-15.6l-15.6-53.4H811.1z"/>
		<path class="st2" d="M905.9,418.6l-1-5.3h-0.4c-3.5,4.3-8.9,6.5-15.3,6.5c-10.9,0-17.3-7.8-17.3-16.3c0-13.9,12.4-20.5,31.4-20.5
			v-0.7c0-2.8-1.5-6.9-9.8-6.9c-5.4,0-11.2,1.9-14.7,4l-3.1-10.6c3.7-2.1,11-4.8,20.8-4.8c17.8,0,23.4,10.5,23.4,23.1v18.6
			c0,5.1,0.3,9.9,0.9,12.9H905.9z M903.9,393.3c-8.7,0-15.5,2.1-15.5,8.4c0,4.3,2.8,6.4,6.6,6.4c4.1,0,7.5-2.7,8.6-6.1
			c0.3-0.9,0.3-1.9,0.3-2.8V393.3z"/>
		<path class="st2" d="M938,365.1l8,26.3c0.9,3.1,1.9,7.1,2.7,9.9h0.3c0.7-2.9,1.6-6.8,2.4-9.9l6.6-26.2h17.7l-12.4,35.2
			c-7.7,21.2-12.8,29.7-18.8,35c-5.7,5-11.8,6.9-16,7.3l-3.6-14c2.1-0.4,4.7-1.4,7.2-2.8c2.5-1.3,5.3-4,6.8-6.7
			c0.6-0.8,0.9-1.7,0.9-2.4c0-0.6-0.1-1.4-0.7-2.7l-19.6-48.9H938z"/>
		<path class="st2" d="M974.6,404.1c3,1.9,9.4,4,14.2,4c5,0,7.2-1.7,7.2-4.4c0-2.8-1.7-4.1-7.8-6.2c-11.1-3.7-15.3-9.7-15.2-16
			c0-10,8.5-17.6,21.7-17.6c6.2,0,11.8,1.5,15,3.1l-2.9,11.4c-2.4-1.3-7.1-3-11.6-3c-4.1,0-6.4,1.6-6.4,4.3c0,2.6,2.1,3.9,8.7,6.2
			c10.1,3.4,14.4,8.7,14.4,16.4c0,10-7.8,17.3-23.1,17.3c-7,0-13.2-1.6-17.3-3.8L974.6,404.1z"/>
	</g>
	<g>
		<path class="st3" d="M754,344.4c0.9,1.8,1.5,3.8,1.5,5.9c0,1.6-0.3,3.2-0.9,4.7H1014v-10.6H754z"/>
		<path class="st3" d="M730.6,350.3c0-2.1,0.5-4.1,1.5-5.9H0V355h731.5C730.9,353.5,730.6,351.9,730.6,350.3z"/>
	</g>
</g>
</svg>
