<?xml version="1.0" encoding="UTF-8"?>
<svg width="50px" height="23px" viewBox="0 0 50 23" version="1.1" xmlns="http://www.w3.org/2000/svg" xmlns:xlink="http://www.w3.org/1999/xlink">
    <!-- Generator: Sketch 49.1 (51147) - http://www.bohemiancoding.com/sketch -->
    <title>Bek_air_s</title>
    <desc>Created with Sketch.</desc>
    <defs></defs>
    <g id="AVIA" stroke="none" stroke-width="1" fill="none" fill-rule="evenodd">
        <g id="Bek_air_s">
            <path d="M16.6381698,9.48541825 L17.2288694,9.48541825 C17.3301322,9.48541825 17.431395,9.45184161 17.4820264,9.40147664 C17.5157807,9.35111168 17.5664121,9.26717007 17.6001664,9.1328635 C17.6339206,8.99855693 17.6507978,8.89782701 17.6507978,8.83067372 C17.6507978,8.67957883 17.5157807,8.61242555 17.3638865,8.61242555 L16.8575725,8.61242555 L16.6381698,9.48541825 Z M16.0981015,11.8189949 L16.6381698,11.8189949 C16.790064,11.8189949 16.9419582,11.7518416 17.0094667,11.6846883 C17.0600981,11.617535 17.1276066,11.4832285 17.178238,11.248192 C17.2119923,11.0970971 17.2288694,10.9627905 17.2288694,10.8620606 C17.2288694,10.6773891 17.0769752,10.5766591 16.8744496,10.5766591 L16.3850128,10.5766591 L16.0981015,11.8189949 Z M14.4947739,7.3868781 L18.3258831,7.3868781 C18.69718,7.3868781 18.9840913,7.48760803 19.1697397,7.67227956 C19.3722653,7.85695109 19.4735281,8.10877591 19.4735281,8.39417737 C19.4735281,8.44454234 19.4735281,8.4949073 19.456651,8.54527226 C19.456651,8.59563723 19.4397739,8.64600219 19.4397739,8.66279051 C19.3216339,9.26717007 19.0515998,9.63651314 18.6634258,9.75403139 C18.8153199,9.85476131 18.9334599,9.95549124 19.0178455,10.0730095 C19.0853541,10.1905277 19.1359855,10.3584109 19.1359855,10.5934474 C19.1359855,10.7949073 19.1022312,11.0970971 19.0178455,11.4664401 C18.8828285,12.087608 18.6634258,12.5073161 18.3596374,12.7423526 C18.0896032,12.9438124 17.684552,13.0613307 17.1107295,13.0613307 L13.8365657,13.0613307 C13.7353029,13.0613307 13.6677944,13.027754 13.6340401,12.9773891 C13.5834087,12.9270241 13.5665316,12.8598708 13.5665316,12.7591409 C13.5665316,12.7255642 13.5665316,12.6751993 13.5834087,12.6248343 L14.6972995,7.78979781 C14.7141766,7.72264453 14.6804223,7.67227956 14.6297909,7.6219146 C14.5791595,7.57154964 14.511651,7.53797299 14.4441425,7.53797299 L14.4947739,7.3868781 Z" id="Fill-1" fill="#FFE400"></path>
            <path d="M47.523239,9.04890511 C47.5063618,9.09927007 47.5063618,9.16642336 47.4896535,9.23357664 C47.4219762,9.55255474 47.2364965,9.70364964 47.0506792,9.70364964 L46.4599796,9.70364964 L46.6964282,8.67956204 L47.2871279,8.67956204 C47.4219762,8.67956204 47.5402849,8.76350365 47.5402849,8.91459854 C47.523239,8.94817518 47.523239,8.99854015 47.523239,9.04890511 M48.1647388,7.40364964 L44.350338,7.40364964 L44.2997066,7.58832117 C44.3673839,7.58832117 44.4180153,7.62189781 44.485355,7.67226277 C44.5361552,7.72262774 44.5697407,7.78978102 44.5528635,7.84014599 L43.4391415,12.6583942 C43.4220956,12.7087591 43.4220956,12.7591241 43.4220956,12.7927007 C43.4220956,12.8766423 43.4391415,12.9437956 43.4897729,13.0109489 C43.5402356,13.0613139 43.6079129,13.0948905 43.6922985,13.0948905 L45.9707115,13.0948905 L46.004297,12.910219 C45.9369572,12.910219 45.8692799,12.8934307 45.8355257,12.859854 C45.7848943,12.8262774 45.7681859,12.7759124 45.7681859,12.7255474 L45.7681859,12.6416058 L46.1901142,10.8284672 L46.7301825,12.7255474 C46.763768,12.8430657 46.8312765,12.9270073 46.9325393,12.9941606 C47.0339709,13.0613139 47.1521108,13.1116788 47.3038362,13.1116788 L48.2658328,13.1116788 C48.6033755,13.1116788 48.8060699,12.9773723 48.8565325,12.7255474 L49.0592269,11.7854015 L48.8227782,11.7854015 C48.7383926,11.7854015 48.6710528,11.7686131 48.6033755,11.7182482 C48.535867,11.6678832 48.4852356,11.6175182 48.4514813,11.550365 L48.1647388,10.7948905 C48.5022815,10.7109489 48.7554385,10.559854 48.9409182,10.3248175 C49.1265666,10.089781 49.2617525,9.73722628 49.3797236,9.23357664 C49.3967695,9.14963504 49.4134779,9.04890511 49.4305238,8.89781022 C49.4472322,8.81386861 49.4472322,8.71313869 49.4472322,8.61240876 C49.4472322,7.80656934 49.0253038,7.40364964 48.1647388,7.40364964" id="Fill-3" fill="#FFE400"></path>
            <path d="M43.4391078,7.80658613 L42.3083399,12.6584109 C42.291294,12.7087759 42.3250482,12.7759292 42.3756796,12.8262942 C42.4433569,12.8766591 42.4938196,12.9102358 42.5614969,12.9102358 L42.5108655,13.0949073 L40.2324525,13.0949073 C40.0636812,13.0949073 39.9622496,13.0109657 39.9622496,12.8262942 C39.9622496,12.8095058 39.9622496,12.7591409 39.9792955,12.6919876 L41.1098946,7.84016277 C41.1269405,7.78979781 41.0931863,7.72264453 41.0425549,7.67227956 C40.9919235,7.6219146 40.9244149,7.58833796 40.8737835,7.58833796 L40.9075378,7.40366642 L43.2028279,7.40366642 C43.3039219,7.40366642 43.3547221,7.42045474 43.4053535,7.47081971 C43.4391078,7.52118467 43.4726933,7.58833796 43.4726933,7.67227956 L43.4391078,7.80658613 Z" id="Fill-5" fill="#FFE400"></path>
            <path d="M30.7474699,11.7686467 L30.5280672,12.725581 C30.4943129,12.8429314 30.4268044,12.9438292 30.3255416,12.9941942 C30.22411,13.0613474 30.0217532,13.0781358 29.7348419,13.0781358 L29.1778966,13.0781358 C29.0597566,13.0781358 28.9416167,13.0277708 28.8234768,12.9438292 C28.722214,12.8598876 28.6378283,12.7589898 28.5871969,12.6416394 L27.8783573,10.895654 L27.3045348,11.4328803 L27.0174547,12.6584277 C27.0174547,12.725581 27.0513778,12.775946 27.1018404,12.8095226 C27.1526406,12.8598876 27.2201491,12.8766759 27.2706117,12.8766759 L27.2370262,13.0613474 L24.9417361,13.0613474 C24.7560877,13.0613474 24.671702,12.9774058 24.671702,12.7927343 C24.671702,12.7589898 24.671702,12.725581 24.6885791,12.6584277 L25.8193471,7.82339124 C25.8360554,7.77302628 25.8024699,7.70587299 25.7516698,7.65550803 C25.68433,7.60514307 25.6336986,7.57156642 25.5661901,7.57156642 L25.6168215,7.38689489 L27.8952344,7.38689489 C28.0640058,7.38689489 28.1652686,7.4708365 28.1652686,7.65550803 L28.1483914,7.82339124 L27.8613114,8.94820876 C27.8613114,8.94820876 27.962743,8.83069051 28.1144684,8.6628073 C28.2832397,8.47813577 28.7895537,7.94090949 28.7895537,7.94090949 C28.8403539,7.89054453 28.857231,7.84017956 28.857231,7.7898146 C28.857231,7.73944964 28.8403539,7.68908467 28.8065996,7.65550803 C28.7728454,7.62193139 28.7390911,7.60514307 28.7051681,7.60514307 L28.7559682,7.42047153 L30.8487327,7.42047153 C30.9499955,7.42047153 31.0343812,7.45404818 31.0850126,7.50441314 C31.135644,7.57156642 31.1693983,7.63871971 31.1693983,7.70587299 C31.1693983,7.7898146 31.135644,7.85696788 31.0679667,7.94090949 L29.3972993,9.51901168 L30.22411,11.5671869 C30.2917873,11.7182818 30.3928814,11.785435 30.5449443,11.785435 L30.7474699,11.7686467 Z" id="Fill-7" fill="#FFE400"></path>
            <path d="M20.5199104,7.40368321 L24.8742107,7.40368321 L24.6885623,8.20952263 C24.654808,8.36061752 24.5704223,8.47813577 24.4691595,8.52850073 C24.3510196,8.59565401 24.2160025,8.61244234 24.0303541,8.61244234 L22.882709,8.61244234 L22.6633063,9.48543504 L24.0303541,9.48543504 L23.8784599,10.1737562 C23.8447056,10.2912745 23.7771971,10.3920044 23.6590572,10.4591577 C23.5409172,10.5263109 23.4059002,10.5766759 23.254006,10.5766759 L22.747692,10.5766759 C22.5282892,10.5766759 22.376395,10.6941942 22.3257636,10.946019 L22.1401152,11.7516905 L23.4734087,11.7516905 C23.5577944,11.7516905 23.64218,11.7350701 23.7265657,11.6847051 C23.8109513,11.6511285 23.8784599,11.6007635 23.8784599,11.5336102 L24.0641083,11.5336102 L23.7603199,12.7927343 C23.7265657,12.9102526 23.6759343,12.9774058 23.5746715,13.0108146 C23.4734087,13.0445591 23.3552688,13.0613474 23.2033746,13.0613474 L19.8279479,13.0613474 C19.7266851,13.0613474 19.6591766,13.0277708 19.6254223,12.9774058 C19.5747909,12.926873 19.5579138,12.8598876 19.5579138,12.7589898 C19.5579138,12.725581 19.5579138,12.6750482 19.5747909,12.6248511 L20.6886817,7.80660292 C20.7055589,7.73944964 20.6718046,7.68908467 20.6211732,7.63871971 C20.5705418,7.58835474 20.5030333,7.5547781 20.4355247,7.5547781 L20.5199104,7.40368321 Z" id="Fill-9" fill="#FFE400"></path>
            <path d="M36.8400475,9.26711971 C36.8400475,9.26711971 36.3507794,10.3751489 36.2663937,10.5430321 C36.1987164,10.7109153 36.1312079,10.8452219 36.1312079,10.8452219 L36.9244331,10.8452219 C36.9244331,10.8452219 36.907556,10.694127 36.8906789,10.5094555 C36.8906789,10.3079956 36.8400475,9.26711971 36.8400475,9.26711971 Z M39.5574347,13.0948569 L37.4307471,13.0948569 C37.2957301,13.0948569 37.1775901,13.0780686 37.1102504,13.0277036 C37.0425731,12.9775066 37.0088188,12.893565 36.9919417,12.7926672 L36.9244331,11.9532511 L35.641771,11.9532511 L35.3042284,12.6247839 L35.3042284,12.6583606 L35.3042284,12.7256818 C35.3042284,12.7758788 35.3211055,12.8096234 35.3717369,12.8598204 C35.4225371,12.893565 35.4729997,12.9101854 35.5405082,12.9101854 L35.5069227,13.0948569 L33.8527949,13.0948569 C33.6165151,13.0948569 33.5152523,13.0109153 33.5152523,12.8262438 C33.5152523,12.7758788 33.5321294,12.7256818 33.5490065,12.6751489 L35.9624366,7.97441898 C35.9793137,7.94084234 35.9793137,7.90726569 35.9793137,7.85690073 C35.9793137,7.78974745 35.9455594,7.73938248 35.894928,7.68901752 C35.8444654,7.63865255 35.7936652,7.60507591 35.7261567,7.60507591 L35.7767881,7.42040438 L38.4096209,7.42040438 C38.5277608,7.42040438 38.6459007,7.45398102 38.7302864,7.52113431 C38.814672,7.58828759 38.8653034,7.68901752 38.8653034,7.80653577 L39.2366004,12.6247839 C39.2366004,12.6919372 39.2703546,12.7590905 39.3547403,12.8262438 C39.439126,12.893565 39.5066345,12.9101854 39.5910202,12.9101854 L39.5574347,13.0948569 Z" id="Fill-11" fill="#FFE400"></path>
            <path d="M8.45276022,11.1474453 C8.43588309,11.1642336 8.45276022,11.2481752 8.46963735,11.3321168 C8.38525169,11.4328467 8.35149742,11.550365 8.35149742,11.550365 L8.33462029,11.550365 C7.99707763,11.550365 7.2713609,10.6773723 7.03508104,10.3751825 L6.90006398,9.68686131 C6.90006398,9.68686131 6.98444964,9.67007299 6.95069538,9.5189781 C6.91694111,9.38467153 6.81567831,9.33430657 6.81567831,9.33430657 L6.76504691,9.03211679 L7.20385237,8.12554745 C7.20385237,8.12554745 7.2713609,8.14233577 7.3726237,8.14233577 C7.4232551,8.14233577 7.4738865,8.14233577 7.5245179,8.12554745 C7.5245179,8.12554745 7.74392063,8.44452555 7.81142916,8.52846715 C7.86206056,8.59562044 7.89581483,8.59562044 7.9295691,8.59562044 L7.94644623,8.59562044 L8.03083189,8.79708029 C8.03083189,8.79708029 7.98020049,8.91459854 8.11521756,9.18321168 C8.25023462,9.45182482 8.36837456,9.67007299 8.48651449,10.0058394 C8.60465442,10.3416058 8.68904009,10.9124088 8.68904009,10.9124088 C8.68904009,10.9124088 8.48651449,11.0970803 8.45276022,11.1474453 M7.81142916,5.30510949 C7.86206056,5.28832117 7.89581483,5.2379562 7.96332336,5.17080292 C7.96332336,5.2379562 7.98020049,5.30510949 7.99707763,5.33868613 C7.9295691,5.50656934 7.8789377,5.65766423 7.84518343,5.74160584 C7.79455203,5.7080292 7.76079776,5.7080292 7.76079776,5.7080292 C7.76079776,5.7080292 7.74392063,5.65766423 7.69328923,5.59051095 C7.7270435,5.54014599 7.76079776,5.43941606 7.81142916,5.30510949 M8.09834043,5.35547445 C8.14897183,5.33868613 8.18272609,5.28832117 8.25023462,5.22116788 C8.25023462,5.28832117 8.26711176,5.35547445 8.28398889,5.38905109 C8.19960323,5.60729927 8.11521756,5.80875912 8.06458616,5.92627737 C8.01395476,5.85912409 7.96332336,5.82554745 7.91269196,5.7919708 C7.96332336,5.69124088 8.03083189,5.54014599 8.09834043,5.35547445 M9.22910834,19.0547445 C9.43163394,19.3737226 9.34724828,19.6255474 9.34724828,19.6255474 C8.92531995,19.3569343 8.77342575,18.819708 8.57090015,18.5846715 C8.57090015,18.5846715 9.02658275,18.7357664 9.22910834,19.0547445 M3.81154862,9.2 C3.81154862,9.16642336 3.79467148,9.14963504 3.77779435,9.13284672 L3.81154862,9.11605839 C3.81154862,9.11605839 3.86218002,9.01532847 3.79467148,8.9649635 C3.72716295,8.93138686 3.64277729,8.93138686 3.64277729,8.93138686 L3.65965442,8.51167883 C3.65965442,8.51167883 3.92968855,8.15912409 4.01407422,7.78978102 L4.03095135,7.78978102 C4.03095135,7.78978102 4.08158275,7.99124088 4.08158275,8.41094891 L4.08158275,9.04890511 C4.11533701,9.01532847 3.94656568,9.11605839 3.81154862,9.2 M11.1193473,10.6437956 C11.085593,10.5934307 11.0012073,10.5262774 10.8830674,10.4927007 L10.832436,10.4927007 C10.7649275,10.4927007 10.7480503,10.5766423 10.7480503,10.5766423 C10.7480503,10.5766423 10.6636647,10.559854 10.6130333,10.559854 L10.5624019,10.559854 C10.4948933,10.5766423 10.5286476,10.6437956 10.4611391,10.9459854 C10.3936305,11.2481752 10.1404735,11.6678832 10.0898421,11.6678832 C10.0392107,11.6678832 9.98857933,11.6175182 9.7185452,11.3992701 C9.65103667,11.3489051 9.54977387,11.2985401 9.44851108,11.2649635 C9.38100254,11.1306569 9.27973974,10.979562 9.27973974,10.979562 L9.27973974,10.9459854 C9.27973974,10.9459854 9.33037114,10.9459854 9.34724828,10.7781022 C9.36412541,10.6270073 9.36412541,10.5430657 9.36412541,10.5430657 C9.36412541,10.5430657 9.61728241,10.5430657 9.58352814,9.98905109 C9.56665101,9.45182482 9.26286261,9.01532847 9.07721415,8.91459854 C9.07721415,8.91459854 8.97595135,8.44452555 8.87468855,8.37737226 C8.87468855,8.37737226 8.82405715,8.14233577 8.72279435,7.90729927 C8.62153155,7.67226277 8.58777729,7.50437956 8.58777729,7.50437956 C8.58777729,7.50437956 8.67216295,7.4540146 8.65528582,7.40364964 C8.63840869,7.35328467 8.57090015,7.31970803 8.53714589,7.26934307 C8.50339162,7.2189781 8.43588309,7.03430657 8.43588309,7.03430657 C8.43588309,7.03430657 8.45276022,6.86642336 8.40212882,6.78248175 C8.40212882,6.78248175 8.40212882,6.42992701 8.21648036,6.09416058 C8.19960323,6.06058394 8.18272609,6.04379562 8.16584896,6.01021898 C8.21648036,5.89270073 8.30086602,5.65766423 8.40212882,5.40583942 C8.48651449,5.37226277 8.57090015,5.25474453 8.72279435,5.07007299 C8.87468855,4.86861314 8.79030288,4.76788321 8.67216295,4.73430657 C8.72279435,4.58321168 8.77342575,4.48248175 8.77342575,4.46569343 C8.79030288,4.43211679 8.77342575,4.41532847 8.73967148,4.41532847 C8.72279435,4.41532847 8.70591722,4.43211679 8.68904009,4.44890511 C8.68904009,4.46569343 8.63840869,4.56642336 8.58777729,4.71751825 L8.53714589,4.71751825 C8.52026875,4.71751825 8.48651449,4.71751825 8.46963735,4.73430657 C8.45276022,4.71751825 8.41900596,4.70072993 8.40212882,4.70072993 C8.45276022,4.54963504 8.50339162,4.44890511 8.50339162,4.43211679 C8.52026875,4.39854015 8.50339162,4.38175182 8.46963735,4.38175182 C8.45276022,4.38175182 8.43588309,4.39854015 8.41900596,4.41532847 C8.41900596,4.43211679 8.36837456,4.53284672 8.31774316,4.68394161 L8.26711176,4.68394161 C8.25023462,4.68394161 8.21648036,4.68394161 8.19960323,4.70072993 C8.18272609,4.68394161 8.14897183,4.66715328 8.13209469,4.66715328 C8.18272609,4.53284672 8.23335749,4.41532847 8.23335749,4.39854015 C8.25023462,4.3649635 8.23335749,4.34817518 8.19960323,4.34817518 C8.18272609,4.34817518 8.16584896,4.3649635 8.14897183,4.38175182 C8.14897183,4.39854015 8.09834043,4.49927007 8.04770903,4.65036496 L7.99707763,4.65036496 C7.91269196,4.65036496 7.8789377,4.70072993 7.81142916,4.86861314 C7.74392063,5.05328467 7.74392063,5.25474453 7.79455203,5.32189781 C7.76079776,5.42262774 7.7270435,5.50656934 7.71016637,5.55693431 C7.65953497,5.52335766 7.59202643,5.48978102 7.50764077,5.48978102 C7.35574657,5.4729927 7.2713609,5.4729927 7.23760664,5.4729927 L7.20385237,5.4729927 C7.20385237,5.4729927 7.13634384,5.13722628 7.13634384,4.24744526 C7.08571244,3.60948905 7.05195817,2.82043796 7.00132677,2.14890511 C7.03508104,2.03138686 7.05195817,1.94744526 7.08571244,1.89708029 C7.17009811,1.76277372 7.18697524,1.61167883 7.13634384,1.61167883 C7.08571244,1.62846715 7.03508104,1.62846715 6.98444964,1.64525547 C6.95069538,1.32627737 6.91694111,1.05766423 6.90006398,0.889781022 L6.91694111,0.805839416 C7.03508104,0.923357664 7.05195817,0.990510949 7.13634384,0.990510949 C7.22072951,0.990510949 7.2713609,0.889781022 7.28823804,0.822627737 C7.30511517,0.755474453 7.23760664,0.503649635 7.11946671,0.302189781 C7.00132677,0.117518248 6.91694111,0 6.76504691,0 C6.61315271,0 6.51188991,0.100729927 6.51188991,0.302189781 C6.51188991,0.486861314 6.56252131,0.520437956 6.61315271,0.554014599 L6.61315271,0.587591241 L6.59627558,0.789051095 C6.51188991,0.990510949 6.37687285,1.32627737 6.22497865,1.71240876 C6.22497865,1.6620438 6.24185578,1.61167883 6.22497865,1.57810219 C6.22497865,1.56131387 6.22497865,1.54452555 6.20810152,1.54452555 C6.15747012,1.54452555 5.98869879,1.96423358 5.98869879,1.96423358 C5.98869879,1.96423358 5.95494452,1.91386861 5.92119026,1.91386861 C5.90431312,1.91386861 5.88743599,1.94744526 5.88743599,2.03138686 C5.88743599,2.24963504 5.63427899,3.15620438 5.63427899,3.15620438 C5.53301619,3.4080292 5.46550766,3.57591241 5.44863053,3.60948905 C5.381122,3.76058394 5.39799913,3.89489051 5.39799913,3.89489051 C5.39799913,3.89489051 5.381122,3.91167883 5.36424486,4.0459854 C5.36424486,4.14671533 5.36424486,4.16350365 5.381122,4.16350365 C5.381122,4.16350365 5.29673633,5.08686131 5.2798592,5.27153285 C5.26298206,5.43941606 5.16171927,5.4729927 5.16171927,5.4729927 C5.16171927,5.4729927 5.11108787,5.75839416 5.21235067,5.84233577 C5.26298206,5.87591241 5.29673633,5.89270073 5.31361346,5.89270073 L5.3304906,5.89270073 C5.34736773,5.94306569 5.36424486,6.01021898 5.36424486,6.01021898 C5.36424486,6.01021898 5.09421073,6.09416058 4.94231654,6.29562044 L4.85793087,6.29562044 L4.8241766,6.29562044 C4.8241766,6.27883212 4.7735452,6.24525547 4.70603667,6.24525547 L4.65540527,6.24525547 C4.65540527,6.24525547 4.18284555,6.32919708 4.08158275,6.69854015 C4.03095135,6.9 4.01407422,7.08467153 4.01407422,7.25255474 C3.86218002,7.2189781 3.82842575,7.2189781 3.81154862,7.2189781 L3.79467148,7.2189781 L3.69340869,7.15182482 L3.69340869,6.79927007 C3.69340869,6.73211679 3.76091722,6.71532847 3.76091722,6.71532847 C3.74404009,6.64817518 3.67653155,6.53065693 3.54151449,6.53065693 L3.47400596,6.53065693 C3.42337456,6.54744526 3.35586602,6.61459854 3.33898889,6.71532847 C3.33898889,6.81605839 3.33898889,6.98394161 3.28835749,7.11824818 C3.28835749,7.11824818 3.25460323,7.10145985 3.20397183,7.10145985 C3.15334043,7.10145985 3.08583189,7.1350365 3.05207763,7.25255474 C3.00144623,7.48759124 2.8833063,8.05839416 3.10270903,8.6459854 L3.05207763,9.16642336 C3.00144623,9.18321168 2.96769196,9.21678832 2.96769196,9.26715328 C2.96769196,9.35109489 3.00144623,9.36788321 3.00144623,9.36788321 C3.00144623,9.36788321 2.91706056,9.4350365 2.9339377,9.53576642 C2.96769196,9.63649635 3.00144623,9.63649635 3.00144623,9.63649635 C3.00144623,9.63649635 2.9845691,9.72043796 3.01832336,9.78759124 C3.05207763,9.85474453 3.10270903,9.85474453 3.10270903,9.85474453 C3.10270903,9.85474453 3.06895476,9.93868613 3.13646329,9.98905109 C3.20397183,10.0394161 3.30523462,10.0394161 3.42337456,10.0562044 L3.45712882,10.0562044 C3.54151449,10.0562044 3.60902302,10.0226277 3.65965442,9.98905109 C3.74404009,10.0226277 3.86218002,10.0562044 4.01407422,10.0562044 L4.03095135,10.0562044 C4.30098548,10.0562044 4.36849401,10.0226277 4.36849401,10.0226277 L4.30098548,10.3248175 L4.23347695,10.4087591 C4.23347695,10.4087591 4.18284555,10.6605839 4.18284555,10.6773723 C4.18284555,10.7109489 4.28410834,10.7948905 4.28410834,10.7948905 C4.28410834,10.7948905 4.18284555,11.7014599 4.36849401,12.4233577 C4.36849401,12.4233577 4.31786261,12.5744526 4.35161688,12.6919708 C4.38537114,12.8094891 4.40224828,12.8262774 4.40224828,12.8262774 C4.40224828,12.8262774 4.43600254,13.1620438 4.57101961,13.380292 C4.57101961,13.380292 4.57101961,13.5817518 4.67228241,13.9007299 C4.67228241,13.9007299 4.60477387,13.9175182 4.63852814,14.0854015 C4.67228241,14.270073 4.62165101,14.6562044 4.62165101,14.6562044 C4.62165101,14.6562044 4.50351108,14.3708029 4.40224828,14.219708 C4.40224828,14.219708 4.45287968,14.0182482 4.35161688,13.9343066 C4.35161688,13.9343066 4.33473974,13.749635 4.25035408,13.7160584 C4.25035408,13.7160584 4.26723121,13.5985401 4.16596841,13.5649635 C4.16596841,13.5649635 4.30098548,13.2459854 4.23347695,13.1956204 C4.19972268,13.1788321 4.13221415,13.1620438 4.06470561,13.1620438 C3.96344282,13.1620438 3.82842575,13.1956204 3.69340869,13.2963504 C3.69340869,13.2963504 3.49088309,13.1620438 3.22084896,13.1620438 L3.20397183,13.1620438 C2.95081483,13.1620438 2.81579776,13.2627737 2.54576363,13.5985401 C2.54576363,13.5985401 2.46137797,13.5985401 2.44450084,13.7160584 C2.4276237,13.8335766 2.4276237,13.9510949 2.44450084,14.0014599 C2.4782551,14.0518248 2.49513224,14.0686131 2.49513224,14.0686131 C2.49513224,14.0686131 2.3769923,14.2532847 2.44450084,14.4379562 C2.44450084,14.4379562 2.41074657,14.6394161 2.51200937,14.7569343 C2.61327217,14.8744526 2.71453497,14.8912409 2.79892063,14.8912409 C2.79892063,14.8912409 2.8326749,14.9751825 2.95081483,14.9751825 C2.95081483,14.9751825 2.9339377,15.2270073 3.10270903,15.2773723 L3.03520049,16.049635 C3.03520049,16.049635 2.3769923,16.519708 2.24197524,16.8051095 C2.10695817,17.0905109 2.20822097,17.2751825 2.20822097,17.2751825 L2.15758957,17.6109489 L2.10695817,17.6109489 C2.05632677,17.6109489 1.95506398,17.6445255 1.87067831,17.7956204 C1.87067831,17.7956204 1.75253838,17.8124088 1.68502985,17.9467153 C1.68502985,17.9467153 1.58376705,18.0474453 1.38124145,18.0978102 L1.12808445,18.1481752 C1.12808445,18.1481752 1.02682166,18.0474453 0.874927457,18.0474453 L0.807418925,18.0474453 C0.807418925,18.0474453 0.689278993,17.980292 0.554261928,17.980292 C0.486753396,17.980292 0.436121997,17.9970803 0.368613464,18.0306569 L0.334859198,18.0306569 C0.267350666,18.0306569 0.149210734,18.0474453 0.115456468,18.1481752 C0.0648250683,18.2824818 0.0648250683,18.3664234 0.0648250683,18.3664234 C0.0648250683,18.3664234 -0.0364377304,18.4167883 0.0141936689,18.5846715 C0.0479479352,18.7357664 0.115456468,18.7693431 0.182965,18.7693431 L0.216719266,18.7693431 L0.334859198,18.7693431 L0.40236773,18.7693431 C0.40236773,18.7693431 0.486753396,18.8868613 0.790541792,18.9036496 C1.09433019,18.920438 1.24622439,18.9372263 1.36436432,19.0043796 C1.48250425,19.0547445 1.53313565,19.0883212 2.09008104,19.1554745 C2.25885237,19.1722628 2.39386944,19.1722628 2.51200937,19.1722628 C2.74828923,19.1722628 2.86642916,19.1386861 2.96769196,19.1218978 C3.06895476,19.1218978 3.60902302,19.6591241 3.72716295,19.7094891 C4.52038821,20.0956204 5.39799913,20.3474453 6.27561005,20.4481752 C6.24185578,20.4481752 6.27561005,20.8678832 6.29248718,20.9182482 C6.35999572,21.0693431 6.51188991,21.1868613 6.68066125,21.2540146 C6.78192404,21.3043796 6.88318684,21.3379562 6.96757251,21.3547445 C7.13634384,21.4051095 7.22072951,21.4218978 7.25448377,21.4386861 C7.28823804,21.4554745 7.30511517,21.4722628 7.3219923,21.4890511 C7.50764077,21.7576642 7.6764121,21.9759124 7.81142916,22.3116788 C7.81142916,22.3116788 7.89581483,22.5635036 8.25023462,22.9664234 C8.26711176,22.9832117 8.30086602,23 8.33462029,23 C8.38525169,23 8.45276022,22.9664234 8.45276022,22.9664234 L8.55402302,22.9664234 C8.60465442,22.9664234 8.65528582,22.9664234 8.67216295,22.949635 C8.72279435,22.9160584 8.79030288,22.8656934 8.79030288,22.7985401 C8.79030288,22.7985401 8.95907422,22.7481752 9.00970561,22.6978102 C9.07721415,22.6138686 9.16159981,22.4627737 9.07721415,22.3620438 C9.00970561,22.2613139 8.80718002,22.2277372 8.80718002,22.2277372 C8.80718002,22.2277372 8.68904009,22.0934307 8.53714589,22.0934307 C8.53714589,22.0934307 8.55402302,21.9087591 8.48651449,21.7576642 C8.43588309,21.6065693 8.26711176,21.0357664 8.23335749,20.9350365 C8.21648036,20.9014599 8.21648036,20.8846715 8.19960323,20.8678832 C8.23335749,20.8846715 8.26711176,20.8846715 8.30086602,20.9182482 C8.58777729,21.119708 9.00970561,21.0861314 9.09409128,21.1868613 C9.29661688,21.4386861 9.46538821,21.640146 9.61728241,21.9927007 C9.61728241,21.9927007 9.53289674,22.110219 9.68479094,22.3452555 C9.78605374,22.4963504 9.8704394,22.529927 9.90419367,22.529927 C9.9210708,22.529927 9.93794794,22.5131387 9.93794794,22.5131387 C9.93794794,22.5131387 10.0054565,22.5635036 10.072965,22.6306569 C10.0898421,22.6474453 10.1235964,22.6474453 10.1573507,22.6474453 C10.2248592,22.6474453 10.2754906,22.6138686 10.2754906,22.6138686 L10.326122,22.6138686 C10.3767534,22.6138686 10.4611391,22.6138686 10.4948933,22.580292 C10.5455247,22.5467153 10.5961561,22.4963504 10.5961561,22.4291971 C10.5961561,22.4291971 10.7142961,22.3788321 10.7480503,22.3116788 C10.7818046,22.2445255 10.8493131,22.1270073 10.7818046,22.0262774 C10.7142961,21.9255474 10.5286476,21.8919708 10.5286476,21.8919708 C10.5286476,21.8919708 10.4442619,21.7912409 10.326122,21.7912409 C10.3092449,21.7912409 10.2754906,21.7912409 10.2586135,21.8080292 C10.2586135,21.8080292 10.3092449,21.5394161 10.2417363,21.3883212 C10.1742278,21.2372263 9.98857933,20.6832117 9.93794794,20.5656934 C9.90419367,20.4481752 9.85356227,20.4481752 9.85356227,20.4481752 C9.85356227,20.4481752 9.88731654,20.3138686 9.80293087,20.1627737 C9.7185452,20.0116788 9.58352814,20.0116788 9.56665101,20.0116788 C9.56665101,20.0116788 9.819808,19.7766423 9.73542234,19.3905109 C9.65103667,18.9875912 9.44851108,18.6686131 8.84093428,18.3832117 C8.84093428,18.3832117 8.94219708,18.3832117 8.99282848,18.2489051 C9.04345988,18.1145985 8.99282848,17.980292 8.84093428,17.929927 C8.79030288,17.9131387 8.73967148,17.8963504 8.68904009,17.8963504 C8.60465442,17.8963504 8.52026875,17.9467153 8.43588309,18.0642336 C8.30086602,18.2824818 8.40212882,18.4839416 8.40212882,18.4839416 C8.40212882,18.4839416 7.64265783,17.7620438 6.81567831,17.7116788 C6.81567831,17.7116788 6.54564418,17.459854 6.30936432,17.3591241 C6.30936432,17.3591241 7.05195817,17.040146 7.33886944,16.8218978 C7.33886944,16.8218978 8.31774316,17.040146 8.84093428,17.0905109 L8.97595135,17.0905109 C9.41475681,17.0905109 9.65103667,16.8722628 9.70166807,16.7883212 C9.70166807,16.7883212 9.7691766,16.7211679 9.78605374,16.5868613 C9.78605374,16.5868613 9.8704394,16.5364964 9.90419367,16.3350365 C9.9210708,16.2175182 9.8704394,16.1671533 9.8704394,16.1671533 C9.8704394,16.1671533 9.9717022,15.8649635 9.78605374,15.8481752 L9.78605374,15.7810219 C9.70166807,15.7810219 9.61728241,15.8481752 9.51601961,15.9153285 C9.41475681,15.9824818 9.31349401,16.049635 9.17847695,16.049635 L9.12784555,16.049635 C8.82405715,16.0160584 7.91269196,15.5963504 7.91269196,15.5963504 C7.91269196,15.5963504 7.91269196,15.5459854 7.6764121,15.4284672 C7.55827217,15.3781022 7.44013224,15.3277372 7.28823804,15.3277372 C7.15322097,15.3277372 6.96757251,15.3781022 6.71441551,15.5124088 C6.71441551,15.5124088 7.03508104,14.270073 6.78192404,13.7664234 C6.90006398,12.8262774 6.74816978,12.4905109 6.74816978,12.4905109 C6.74816978,12.4905109 6.88318684,11.3489051 6.78192404,10.8788321 C6.78192404,10.8788321 6.83255544,10.8788321 6.84943258,10.7948905 L7.18697524,12.1043796 C7.18697524,12.1043796 7.13634384,12.1883212 7.20385237,12.2386861 C7.23760664,12.2554745 7.28823804,12.2722628 7.3219923,12.2722628 C7.38950084,12.2722628 7.44013224,12.2386861 7.40637797,12.1547445 C7.38950084,12.1043796 7.35574657,12.0875912 7.35574657,12.0875912 L7.13634384,10.9627737 C7.25448377,11.0970803 7.35574657,11.1978102 7.50764077,11.3489051 C7.7776749,11.6175182 7.99707763,11.8357664 8.19960323,11.8525547 L8.23335749,11.8525547 C8.38525169,11.8525547 8.52026875,11.7350365 8.57090015,11.7014599 C8.63840869,11.7686131 8.90844282,11.8189781 9.07721415,11.8189781 C9.17847695,11.8189781 9.27973974,11.7686131 9.34724828,11.7014599 L9.53289674,11.7182482 C9.53289674,11.7182482 9.80293087,11.9532847 10.0392107,11.970073 L10.0560879,11.970073 C10.2754906,11.970073 10.4948933,11.6510949 10.5961561,11.3153285 C10.6974189,10.979562 10.7649275,10.8452555 10.832436,10.8116788 C10.8661903,10.7948905 10.9168217,10.7948905 10.9674531,10.7948905 L11.0180845,10.7948905 L11.0687159,10.7948905 L11.085593,10.7948905 C11.1193473,10.7781022 11.1531015,10.6941606 11.1193473,10.6437956" id="Fill-13" fill="#00768F"></path>
            <path d="M5.73552491,4.43211679 C5.75240205,4.43211679 5.75240205,4.43211679 5.73552491,4.43211679 C5.75240205,4.41532847 5.76927918,4.43211679 5.76927918,4.43211679 C5.80303345,4.44890511 5.83678771,4.48248175 5.87054198,4.49927007 C5.90429625,4.51605839 5.93805051,4.54963504 5.98868191,4.56642336 C6.00555904,4.58321168 6.05619044,4.58321168 6.00555904,4.61678832 C5.98868191,4.61678832 5.97180478,4.63357664 5.95492765,4.63357664 L5.92117338,4.63357664 L5.88741911,4.63357664 L5.87054198,4.63357664 C5.85366485,4.63357664 5.81991058,4.63357664 5.80303345,4.61678832 C5.76927918,4.6 5.73552491,4.56642336 5.71864778,4.53284672 C5.70177065,4.48248175 5.71864778,4.46569343 5.73552491,4.43211679 M5.49924505,4.53284672 L5.54987645,4.53284672 C5.56675358,4.53284672 5.58363072,4.53284672 5.60050785,4.51605839 C5.61738498,4.51605839 5.63426212,4.49927007 5.65113925,4.49927007 C5.66801638,4.49927007 5.68489352,4.49927007 5.68489352,4.51605839 C5.71864778,4.58321168 5.58363072,4.61678832 5.53299932,4.61678832 C5.51612218,4.70072993 5.56675358,4.70072993 5.60050785,4.71751825 C5.61738498,4.73430657 5.65113925,4.75109489 5.68489352,4.75109489 C5.70177065,4.75109489 5.70177065,4.75109489 5.71864778,4.73430657 C5.71864778,4.73430657 5.71864778,4.71751825 5.73552491,4.71751825 C5.75240205,4.71751825 5.75240205,4.80145985 5.75240205,4.80145985 L5.73552491,4.81824818 C5.71864778,4.81824818 5.70177065,4.78467153 5.68489352,4.78467153 L5.66801638,4.78467153 L5.60050785,4.78467153 C5.58363072,4.78467153 5.54987645,4.78467153 5.53299932,4.80145985 C5.54987645,4.80145985 5.56675358,4.8350365 5.56675358,4.85182482 C5.56675358,4.86861314 5.53299932,4.88540146 5.53299932,4.9189781 C5.53299932,4.95255474 5.53299932,4.96934307 5.56675358,4.98613139 C5.60050785,5.00291971 5.63426212,5.00291971 5.66801638,5.01970803 C5.71864778,5.03649635 5.76927918,5.03649635 5.80303345,5.03649635 C5.85366485,5.03649635 5.90429625,5.01970803 5.95492765,5.00291971 C6.02243618,4.96934307 6.08994471,4.95255474 6.15745324,4.93576642 C6.17433038,4.93576642 6.19120751,4.93576642 6.20808464,4.9189781 L6.20808464,4.88540146 C6.20808464,4.8350365 6.20808464,4.76788321 6.22496177,4.71751825 C6.24183891,4.61678832 6.27559317,4.53284672 6.30934744,4.43211679 C6.32622457,4.38175182 6.32622457,4.33138686 6.32622457,4.2810219 C6.32622457,4.24744526 6.29247031,4.21386861 6.27559317,4.18029197 C6.24183891,4.11313869 6.17433038,4.02919708 6.10682184,3.99562044 C6.00555904,3.9620438 5.88741911,3.9620438 5.78615631,3.9620438 L5.75240205,3.9620438 C5.71864778,3.9620438 5.68489352,3.9620438 5.65113925,3.99562044 L5.63426212,4.01240876 L5.65113925,4.02919708 L5.66801638,4.02919708 C5.70177065,4.01240876 5.71864778,4.01240876 5.75240205,4.01240876 L5.81991058,4.01240876 L5.80303345,4.01240876 C5.76927918,4.02919708 5.73552491,4.0459854 5.71864778,4.07956204 L5.70177065,4.09635036 L5.70177065,4.11313869 L5.71864778,4.11313869 L5.73552491,4.11313869 C5.76927918,4.09635036 5.80303345,4.09635036 5.85366485,4.09635036 C5.88741911,4.09635036 5.92117338,4.09635036 5.95492765,4.11313869 C5.97180478,4.12992701 6.00555904,4.14671533 6.02243618,4.14671533 L6.03931331,4.14671533 C6.05619044,4.14671533 6.05619044,4.12992701 6.05619044,4.11313869 C6.07306758,4.11313869 6.08994471,4.12992701 6.08994471,4.14671533 C6.08994471,4.14671533 6.12369898,4.19708029 6.10682184,4.19708029 L6.07306758,4.19708029 C5.97180478,4.19708029 5.88741911,4.26423358 5.80303345,4.26423358 L5.76927918,4.26423358 C5.73552491,4.26423358 5.68489352,4.24744526 5.65113925,4.23065693 C5.61738498,4.21386861 5.60050785,4.18029197 5.58363072,4.14671533 C5.58363072,4.12992701 5.56675358,4.07956204 5.53299932,4.07956204 L5.51612218,4.07956204 C5.49924505,4.07956204 5.49924505,4.09635036 5.49924505,4.11313869 C5.46549078,4.21386861 5.44861365,4.31459854 5.41485939,4.39854015 C5.41485939,4.41532847 5.39798225,4.48248175 5.41485939,4.49927007 C5.48236792,4.53284672 5.48236792,4.53284672 5.49924505,4.53284672" id="Fill-15" fill="#FFE400"></path>
            <path d="M4.97605392,7.42040438 L5.00980819,7.42040438 C5.24608805,7.42040438 5.60050785,7.21894453 5.66801638,6.81602482 C5.73552491,6.46347007 5.46549078,6.34595182 5.27984232,6.34595182 C5.24608805,6.34595182 5.22921092,6.34595182 5.19545666,6.36274015 C5.19545666,6.36274015 5.17857952,6.37952847 5.16170239,6.42989343 C5.12794812,6.49704672 5.07731672,6.54741168 5.02668532,6.73208321 C5.02668532,6.76565985 4.99293106,6.76565985 4.97605392,6.81602482 C4.95917679,6.8831781 4.99293106,6.8831781 4.99293106,6.91675474 C4.95917679,7.1182146 4.97605392,7.23573285 4.97605392,7.31967445 C4.95917679,7.38682774 4.97605392,7.42040438 4.97605392,7.42040438" id="Fill-17" fill="#FFE400"></path>
            <path d="M9.16154918,9.51894453 C9.19530345,9.53573285 9.17842631,9.55252117 9.17842631,9.58609781 C9.17842631,9.61967445 9.19530345,9.63646277 9.19530345,9.67003942 C9.21218058,9.68682774 9.21218058,9.70361606 9.22905771,9.72040438 L9.24593485,9.7371927 C9.24593485,9.75398102 9.24593485,9.77076934 9.22905771,9.77076934 C9.21218058,9.77076934 9.17842631,9.75398102 9.16154918,9.75398102 C9.14467205,9.7371927 9.11091778,9.72040438 9.11091778,9.70361606 C9.09404065,9.67003942 9.07716352,9.60288613 9.11091778,9.56930949 C9.12779491,9.53573285 9.14467205,9.51894453 9.16154918,9.51894453 M8.85776078,9.77076934 C8.97590072,10.0729591 9.11091778,10.3079956 9.29656625,10.3079956 L9.31344338,10.3079956 C9.51596898,10.2912073 9.53284611,10.0393825 9.41470618,9.65325109 C9.31344338,9.26711971 9.16154918,9.11602482 8.95902358,9.03208321 L8.94214645,9.03208321 C8.72274372,9.03208321 8.73962085,9.46857956 8.85776078,9.77076934" id="Fill-19" fill="#FFE400"></path>
            <path d="M6.17434725,13.9678496 C6.17434725,13.9678496 6.17434725,13.9848058 6.17434725,13.9678496 C6.20810152,14.0014263 6.27561005,14.0014263 6.30936432,14.0182146 C6.32624145,14.0182146 6.34311858,14.0350029 6.35999572,14.0350029 L6.35999572,13.9848058 C6.42750425,13.9848058 6.51188991,14.0182146 6.57939845,14.0517912 C6.61315271,13.8169226 6.63002985,13.3466818 6.63002985,13.1787985 C6.63002985,12.9605504 6.63002985,12.7256818 6.56252131,12.524054 C6.54564418,12.4738569 6.52876705,12.4401124 6.51188991,12.4065358 L6.49501278,12.3899153 C6.49501278,12.4065358 6.47813565,12.4065358 6.46125852,12.4233241 C6.41062712,12.3729591 6.30936432,12.2890175 6.27561005,12.2386526 C6.25873292,12.2220321 6.24185578,12.2050759 6.22497865,12.1882876 C6.15747012,12.1547109 6.08996159,12.1211343 6.02245305,12.104346 C5.90431312,12.0541489 5.75241892,12.0371927 5.61740186,12.0371927 C5.61740186,12.0371927 5.66803326,12.4233241 5.66803326,12.4569007 C5.73554179,12.7590905 5.90431312,13.0109153 6.07308445,13.2627401 C6.12371585,13.3466818 6.15747012,13.413835 6.17434725,13.514565 C6.17434725,13.5313533 6.15747012,13.7160248 6.15747012,13.8671197 C6.17434725,13.883908 6.17434725,13.9510613 6.17434725,13.9678496" id="Fill-23" fill="#FFE400"></path>
            <path d="M6.47810189,12.3898482 C6.49497903,12.372892 6.49497903,12.372892 6.51185616,12.3562715 C6.64687323,12.1548117 6.64687323,11.4329139 6.62999609,11.1307241 C6.62999609,11.0467825 6.61311896,10.9796292 6.61311896,10.8956876 C6.61311896,10.8619431 6.59624183,10.6774394 6.57936469,10.6774394 C6.39371623,10.5934978 6.14055923,10.5095562 5.90427937,10.5095562 C5.7692623,10.5095562 5.65112237,10.5431328 5.54985957,10.6270745 C5.53298244,10.9124759 5.70175377,11.4832788 5.75238517,11.8190453 C5.9717879,11.8861985 6.08992783,11.9701401 6.24182203,12.1548117 C6.25869916,12.1714321 6.2755763,12.1883883 6.29245343,12.2050088 C6.3262077,12.2553737 6.42747049,12.3226949 6.47810189,12.3898482" id="Fill-25" fill="#FFE400"></path>
            <path d="M6.34311858,10.1065358 C6.35999572,10.0897474 6.37687285,10.0897474 6.39374998,10.0729591 C6.42750425,10.0561708 6.46125852,10.0393825 6.49501278,10.0393825 L6.51188991,10.0393825 C6.52876705,10.0393825 6.56252131,10.0393825 6.57939845,10.0561708 C6.66378411,10.0729591 6.71441551,10.1065358 6.78192404,10.1569007 C6.76504691,10.0729591 6.74816978,9.98901752 6.73129265,9.92186423 C6.71441551,9.82113431 6.69753838,9.7371927 6.68066125,9.63646277 C6.63002985,9.43500292 6.57939845,9.33427299 6.57939845,9.13281314 L6.57939845,9.0992365 C6.57939845,9.08244818 6.56252131,9.08244818 6.54564418,9.08244818 C6.49501278,9.04887153 6.44438138,9.03208321 6.39374998,8.99850657 C6.25873292,8.93135328 6.10683872,8.91456496 5.97182166,8.91456496 C5.87055886,8.91456496 5.76929606,8.93135328 5.66803326,8.93135328 C5.56677046,8.93135328 5.46550766,8.94814161 5.36424486,8.96492993 C5.3304906,8.96492993 5.24610493,8.96492993 5.2292278,8.99850657 C5.19547353,9.03208321 5.06045647,9.82113431 5.2292278,10.3919372 C5.46550766,10.274419 5.71866466,10.224054 5.98869879,10.224054 L6.02245305,10.224054 C6.14059299,10.224054 6.24185578,10.2408423 6.34311858,10.2576307 C6.34311858,10.224054 6.34311858,10.2072657 6.35999572,10.1736891 C6.32624145,10.1569007 6.32624145,10.1233241 6.34311858,10.1065358" id="Fill-27" fill="#FFE400"></path>
            <path d="M7.71018324,6.95036496 C7.84520031,6.98394161 7.94646311,7.00072993 8.08148017,7.00072993 C8.11523444,7.00072993 8.1489887,7.01751825 8.18274297,7.01751825 C8.1996201,7.01751825 8.23337437,7.01751825 8.2502515,7.00072993 C8.28400577,6.98394161 8.21649724,6.79927007 8.21649724,6.79927007 C8.21649724,6.79927007 8.18274297,6.36277372 8.0983573,6.16131387 C8.01397164,5.97664234 7.84520031,5.84233577 7.65955184,5.77518248 C7.55828904,5.74160584 7.45702625,5.72481752 7.35576345,5.72481752 L7.33888631,5.72481752 C7.13636072,5.72481752 6.86632659,5.77518248 6.84944945,6.0270073 C6.83257232,6.21167883 6.88320372,6.37956204 6.96758939,6.53065693 C7.15323785,6.78248175 7.42327198,6.9 7.71018324,6.95036496" id="Fill-29" fill="#FFE400"></path>
            <path d="M6.57938157,2.83722628 C6.51187304,2.88759124 6.42748737,2.95474453 6.39373311,3.02189781 C6.34310171,3.12262774 6.29247031,3.22335766 6.25871604,3.32408759 C6.25871604,3.34087591 6.24183891,3.35766423 6.22496177,3.37445255 C6.20808464,3.4080292 6.10682184,3.37445255 6.03931331,3.37445255 C6.03931331,3.39124088 6.03931331,3.45839416 6.02243618,3.47518248 C6.03931331,3.47518248 6.05619044,3.4919708 6.07306758,3.50875912 C6.10682184,3.54233577 6.10682184,3.57591241 6.10682184,3.60948905 C6.10682184,3.65985401 6.10682184,3.67664234 6.08994471,3.71021898 C6.05619044,3.74379562 6.02243618,3.77737226 5.97180478,3.79416058 C5.97180478,3.81094891 5.95492765,3.84452555 5.95492765,3.86131387 L6.12369898,3.89489051 C6.27559317,3.91167883 6.47811877,4.06277372 6.47811877,4.19708029 C6.46124164,4.46569343 6.41061024,4.98613139 6.30934744,5.10364964 C6.20808464,5.22116788 5.95492765,5.30510949 5.81991058,5.30510949 C5.81991058,5.30510949 5.93805051,5.59051095 6.32622457,5.59051095 L6.37685597,5.59051095 L6.46124164,5.59051095 C6.56250444,5.59051095 6.66376724,5.60729927 6.7481529,5.60729927 C6.83253857,5.62408759 6.9000471,5.62408759 6.9506785,5.62408759 C6.98443276,5.62408759 7.0013099,5.62408759 7.0013099,5.60729927 C6.96755563,5.40583942 6.93380137,4.80145985 6.93380137,4.18029197 C6.9000471,3.64306569 6.86629283,3.07226277 6.83253857,2.40072993 C6.78190717,2.58540146 6.6975215,2.73649635 6.57938157,2.83722628" id="Fill-33" fill="#FFE400"></path>
            <path d="M6.07306758,3.29054453 C6.07306758,3.29054453 6.08994471,3.29054453 6.07306758,3.29054453 L6.12369898,3.29054453 C6.17433038,3.2737562 6.17433038,3.22339124 6.19120751,3.17302628 C6.20808464,3.13944964 6.22496177,3.08908467 6.24183891,3.03871971 C6.27559317,2.9547781 6.34310171,2.8708365 6.41061024,2.80368321 C6.44436451,2.77010657 6.47811877,2.75331825 6.4949959,2.71974161 C6.78190717,2.50149343 6.83253857,1.91390219 6.91692423,1.77959562 C6.98443276,1.66207737 7.01818703,1.61171241 6.96755563,1.61171241 L6.9506785,1.61171241 C6.9000471,1.62850073 6.83253857,1.64528905 6.78190717,1.67886569 L6.76503003,1.69565401 C6.68064437,1.74601898 6.61313584,1.84674891 6.57938157,1.9978438 C6.5456273,2.16572701 6.44436451,2.35039854 6.37685597,2.45112847 C6.34310171,2.50149343 6.30934744,2.55185839 6.30934744,2.55185839 C6.30934744,2.55185839 6.32622457,2.26645693 6.37685597,2.06499708 C6.44436451,1.84674891 6.41061024,1.66207737 6.37685597,1.59492409 C6.34310171,1.54455912 6.32622457,1.51098248 6.29247031,1.51098248 L6.24183891,1.51098248 C6.22496177,1.51098248 6.19120751,1.61171241 6.20808464,1.71244234 C6.22496177,1.88032555 6.05619044,2.26645693 6.07306758,2.53507007 C6.08994471,2.75331825 6.05619044,2.97156642 5.98868191,3.17302628 C5.97180478,3.20660292 5.97180478,3.24017956 5.95492765,3.2737562 L5.95492765,3.29054453 L5.97180478,3.30733285 C6.00555904,3.29054453 6.03931331,3.29054453 6.07306758,3.29054453" id="Fill-35" fill="#FFE400"></path>
            <path d="M5.26299894,8.51164526 C5.26299894,8.51164526 5.27987608,8.51164526 5.26299894,8.51164526 L5.29675321,8.51164526 C5.29675321,8.51164526 5.31363034,8.51164526 5.31363034,8.52843358 C5.33050747,8.5452219 5.34738461,8.56201022 5.34738461,8.57879854 C5.8030672,8.52843358 6.17436413,8.5452219 6.19124126,8.52843358 C6.24187266,8.51164526 6.29250406,8.49485693 6.32625833,8.46128029 C6.34313546,8.46128029 6.34313546,8.44449197 6.36001259,8.44449197 C6.30938119,8.39412701 6.27562693,8.3101854 6.29250406,8.24303212 C6.29250406,8.2262438 6.30938119,8.2262438 6.30938119,8.20945547 C6.34313546,8.17587883 6.37688973,8.15909051 6.41064399,8.14230219 C6.44439826,8.12551387 6.47815253,8.12551387 6.51190679,8.12551387 C6.52878392,8.12551387 6.54566106,8.12551387 6.56253819,8.14230219 C6.57941532,8.15909051 6.61316959,8.15909051 6.63004672,8.17587883 C6.63004672,8.15909051 6.64692386,8.15909051 6.64692386,8.14230219 C6.68067812,8.07514891 6.73130952,8.02478394 6.76506379,7.95763066 C6.78194092,7.94084234 6.78194092,7.92405401 6.79881805,7.90726569 C6.90008085,7.70580584 7.05197505,7.37003942 6.96758939,7.16857956 C6.95071225,7.10142628 6.86632659,6.89996642 6.79881805,6.89996642 C6.76506379,6.89996642 6.74818666,6.91675474 6.71443239,6.93354307 C6.57941532,7.01748467 6.44439826,7.08463796 6.30938119,7.15179124 C6.27562693,7.16857956 6.22499553,7.18536788 6.19124126,7.2021562 C6.1068556,7.23573285 6.02246993,7.26930949 5.9549614,7.28609781 C5.90433,7.30288613 5.8536986,7.31967445 5.8030672,7.33646277 C5.7524358,7.35325109 5.71868154,7.37003942 5.66805014,7.37003942 C5.51615594,7.53792263 5.24612181,7.63865255 5.00984195,7.68901752 C5.00984195,7.87368905 5.04359621,8.04157226 5.06047334,8.20945547 C5.07735048,8.32697372 5.09422761,8.41091533 5.12798188,8.52843358 C5.17861328,8.51164526 5.22924468,8.51164526 5.26299894,8.51164526" id="Fill-41" fill="#FFE400"></path>
            <path d="M3.33893826,16.4693766 C3.42332392,16.4693766 3.50770959,16.486165 3.59209526,16.5197416 C3.76086659,16.2679168 4.03090072,16.0832453 4.31781198,16.0496686 C4.41907478,16.0327124 4.50346044,16.0327124 4.60472324,16.0327124 L4.63847751,16.0327124 L4.68910891,16.0327124 C4.70598604,16.0327124 4.73974031,16.0327124 4.75661744,16.0496686 C4.80724884,16.0664569 4.84100311,16.1000336 4.85788024,16.1336102 C4.90851164,15.7642672 4.79037171,15.3949241 4.67223177,15.0423693 C4.65535464,14.9920044 4.63847751,14.9248511 4.60472324,14.8744861 C4.57096898,14.7905445 4.52033758,14.7233912 4.46970618,14.6394496 C4.45282904,14.6226613 4.38532051,14.5217635 4.36844338,14.5217635 C4.36844338,14.5217635 4.35156625,14.5217635 4.35156625,14.5387197 C4.35156625,14.6057051 4.33468911,14.6896467 4.31781198,14.7569679 C4.28405771,14.8575299 4.25030345,14.9414715 4.19967205,15.0254131 C4.09840925,15.1932964 3.98026932,15.3445591 3.82837512,15.4620774 C3.76086659,15.5124423 3.67648092,15.5628073 3.60897239,15.6299606 C3.52458672,15.696946 3.45707819,15.7808876 3.37269253,15.8817854 C3.28830686,15.9825153 3.22079833,16.0664569 3.1532898,16.1839752 C3.1026584,16.2845372 3.06890413,16.4190117 3.08578126,16.536362 C3.1532898,16.486165 3.23767546,16.4693766 3.33893826,16.4693766" id="Fill-49" fill="#FFE400"></path>
            <path d="M9.24593485,16.4021562 C9.46533758,16.4021562 9.56660038,16.3014263 9.68474031,16.2174847 C9.83663451,16.0999664 9.85351164,15.9320832 9.81975737,15.8817182 C9.81975737,15.8649299 9.80288024,15.8649299 9.78600311,15.8649299 C9.73537171,15.8649299 9.65098604,15.9320832 9.49909184,16.0496015 C9.39782904,16.1167547 9.31344338,16.1503314 9.21218058,16.1503314 C9.12779491,16.1503314 9.00965498,16.1167547 8.87463792,16.083346 C8.58772666,15.9824482 7.91264133,15.713835 7.91264133,15.713835 C7.82825567,15.8481416 7.71011573,15.8985066 7.71011573,15.8985066 C7.71011573,15.8985066 8.36832392,16.2006964 8.90839218,16.3517912 C9.04340925,16.3853679 9.16154918,16.4021562 9.24593485,16.4021562" id="Fill-51" fill="#FFE400"></path>
            <path d="M9.80293087,16.2006628 C9.73542234,16.2678161 9.65103667,16.3517577 9.54977387,16.4021226 C9.44851108,16.4694438 9.36412541,16.5030204 9.24598548,16.5030204 C9.14472268,16.5030204 9.02658275,16.4860642 8.85781142,16.4356993 C8.46963735,16.3351372 7.59202643,15.9657942 7.59202643,15.9657942 C7.50764077,16.0159912 7.28823804,16.1336774 7.28823804,16.1336774 C7.28823804,16.1336774 7.33886944,16.167254 7.84518343,16.3351372 C8.33462029,16.5030204 8.79030288,16.6709036 9.19535408,16.6709036 L9.26286261,16.6709036 C9.60040527,16.6539474 9.78605374,16.4190788 9.80293087,16.3015606 C9.83668514,16.2678161 9.819808,16.2006628 9.80293087,16.2006628" id="Fill-53" fill="#FFE400"></path>
            <path d="M9.49909184,16.7548117 C9.48221471,16.7548117 9.36407478,16.8051766 9.24593485,16.8051766 L9.22905771,16.8051766 C9.16154918,16.8051766 8.99277785,16.8051766 8.84088365,16.7882204 C8.38520106,16.721235 7.10253894,16.2679504 7.10253894,16.2679504 C7.03503041,16.3181474 6.78187341,16.4694102 6.78187341,16.4694102 C6.78187341,16.4694102 7.98014986,16.8051766 8.72274372,16.9057387 C8.79025225,16.9226949 8.89151505,16.9226949 9.00965498,16.9226949 C9.16154918,16.9057387 9.34719765,16.872162 9.49909184,16.7548117" id="Fill-55" fill="#FFE400"></path>
            <path d="M6.03927956,17.6109489 C5.75236829,17.6109489 5.46545703,17.7116788 5.26293143,17.8963504 C5.43170276,17.980292 5.61735123,17.9970803 5.78612256,18.0306569 C5.81987683,18.0306569 5.83675396,18.0474453 5.87050823,18.0474453 C6.10678809,18.1145985 6.32619082,18.2153285 6.54559355,18.3328467 C6.61310208,18.3664234 6.68061061,18.4167883 6.73124201,18.4671533 C6.86625908,18.5846715 6.95064474,18.7861314 7.11941608,18.8868613 C7.20380174,18.9372263 7.32194167,18.9540146 7.42320447,18.9875912 C7.5413444,19.0379562 7.65948433,19.0883212 7.76074713,19.1554745 C7.8451328,19.2058394 7.9463956,19.3905109 7.997027,19.4744526 C8.08141266,19.5919708 8.13204406,19.7262774 8.19955259,19.8437956 C8.33456966,20.0284672 8.43583246,20.0956204 8.63835805,20.1627737 C8.89151505,20.2467153 9.12779491,20.3306569 9.41470618,20.3474453 L9.43158331,20.3474453 C9.48221471,20.3474453 9.54972324,20.3306569 9.56660038,20.280292 C9.58347751,20.2467153 9.54972324,20.1963504 9.53284611,20.179562 C9.36407478,19.9613139 9.07716352,19.8941606 8.92526932,19.6423358 C8.75649799,19.3737226 8.60460379,19.1051095 8.46958672,18.819708 C8.38520106,18.6350365 8.28393826,18.4335766 8.06453553,18.4 L7.997027,18.4 C7.91264133,18.4 7.82825567,18.4167883 7.76074713,18.4167883 C7.67636147,18.4335766 7.5919758,18.4335766 7.52446727,18.4335766 L7.42320447,18.4335766 C7.11941608,18.3664234 6.96752188,18.1985401 6.84938195,17.9970803 C6.74811915,17.7956204 6.51183928,17.6948905 6.20805089,17.6277372 C6.15741949,17.6109489 6.10678809,17.6109489 6.03927956,17.6109489" id="Fill-59" fill="#FFE400"></path>
            <path d="M2.93390394,13.8671869 L2.90014968,13.8671869 L2.86639541,13.8671869 C2.84951828,13.8671869 2.84951828,13.8671869 2.83264114,13.8502307 C2.81576401,13.8168219 2.83264114,13.7832453 2.86639541,13.7662891 C2.91702681,13.7328803 2.96765821,13.6823474 3.01828961,13.665727 C3.10267527,13.615362 3.20393807,13.5984058 3.30520087,13.5984058 C3.35583227,13.5984058 3.4233408,13.615362 3.4739722,13.6321504 C3.5246036,13.6489387 3.59211213,13.6823474 3.6258664,13.7328803 C3.575235,13.8000336 3.5246036,13.8839752 3.4739722,13.9511285 C3.40646367,14.0181139 3.33895514,14.0686467 3.25456947,14.0686467 C3.23769234,14.0686467 3.20393807,14.0686467 3.18706094,14.0518584 C3.15330667,14.0350701 3.13642954,13.9847051 3.11955241,13.9679168 C3.05204387,13.8839752 3.00141247,13.8671869 2.93390394,13.8671869 M3.44021794,14.4212015 C3.45709507,14.3876248 3.4233408,14.3036832 3.38958654,14.2868949 C3.322078,14.2533182 3.25456947,14.2197416 3.17018381,14.2197416 C3.13642954,14.2197416 3.10267527,14.2197416 3.06892101,14.2365299 C3.05204387,14.1859971 3.25456947,14.1693766 3.2714466,14.1693766 C3.322078,14.1693766 3.3727094,14.1525883 3.4233408,14.1525883 C3.4739722,14.1525883 3.50772647,14.1525883 3.55835787,14.1693766 C3.64274353,14.2029533 3.71025206,14.2197416 3.79463773,14.2533182 C3.828392,14.2699387 3.86214626,14.2868949 3.8790234,14.2868949 C3.99716333,14.2868949 4.01404046,14.1358 4.01404046,13.9175518 C3.99716333,13.6489387 3.86214626,13.5314204 3.81151486,13.5144642 C3.76088346,13.4978438 3.74400633,13.5144642 3.69337493,13.4810555 C3.64274353,13.4642672 3.69337493,13.3971139 3.4739722,13.2963839 C3.4233408,13.2795956 3.3727094,13.2626394 3.322078,13.2626394 C3.17018381,13.2626394 3.05204387,13.3635372 2.96765821,13.4474788 C2.84951828,13.5482088 2.90014968,13.615362 2.96765821,13.6489387 C2.84951828,13.6993036 2.84951828,13.7662891 2.78200974,13.7832453 C2.73137834,13.8000336 2.68074695,13.8000336 2.63011555,13.8839752 C2.57948415,13.9679168 2.56260701,14.4378219 2.59636128,14.5051431 C2.59636128,14.5217635 2.61323841,14.5387197 2.64699268,14.5387197 C2.69762408,14.5387197 2.79888688,14.4715664 2.84951828,14.4715664 C2.91702681,14.4715664 2.88327254,14.555508 2.93390394,14.5890847 C2.95078108,14.6057051 2.98453534,14.6057051 3.01828961,14.6057051 C3.08579814,14.6057051 3.17018381,14.5890847 3.28832374,14.5387197 C3.33895514,14.5217635 3.4233408,14.4883547 3.44021794,14.4212015" id="Fill-69" fill="#FFE400"></path>
            <path d="M3.22084896,17.9803255 C3.50776022,18.0306905 3.55839162,18.0642672 3.71028582,18.1985737 C3.76091722,18.2321504 3.81154862,18.2489387 3.89593428,18.2489387 C4.06470561,18.2489387 4.26723121,18.1649971 4.26723121,18.1649971 C4.26723121,18.1649971 4.26723121,17.9971139 4.03095135,17.9971139 C3.81154862,17.9971139 3.69340869,17.9971139 3.64277729,17.8292307 C3.64277729,17.8292307 3.65965442,17.7788657 3.81154862,17.7788657 C3.86218002,17.7788657 3.91281142,17.7788657 3.98031995,17.7954861 C4.28410834,17.846019 4.36849401,17.9131723 4.55414247,18.0642672 C4.55414247,18.0642672 4.75666807,17.8963839 4.65540527,17.6276029 C4.58789674,17.4095226 4.35161688,17.3423693 4.16596841,17.3423693 C4.11533701,17.3423693 4.08158275,17.3423693 4.03095135,17.3591577 C3.84530288,17.3927343 3.60902302,17.3591577 3.42337456,17.5102526 C3.23772609,17.6613474 3.27148036,17.7115445 3.10270903,17.7115445 C2.9339377,17.7115445 2.90018343,17.7452891 2.90018343,17.7452891 C2.90018343,17.7452891 2.9339377,17.9299606 3.22084896,17.9803255" id="Fill-73" fill="#FFE400"></path>
            <path d="M9.22912522,11.1342107 C9.16161669,11.040098 9.04347676,10.9459854 8.90845969,10.9459854 C8.87470543,10.9459854 8.85782829,10.9459854 8.82407403,10.9616708 C8.77344263,10.9773563 8.73968836,11.0087272 8.7059341,11.040098 C8.7059341,11.0557835 8.72281123,11.0557835 8.72281123,11.0714689 C8.75656549,11.0871544 8.80719689,11.1185252 8.82407403,11.1498961 C8.85782829,11.2283233 8.79031976,11.2753796 8.79031976,11.3538068 C8.79031976,11.3851777 8.80719689,11.4165486 8.84095116,11.4165486 C8.85782829,11.4165486 8.87470543,11.4165486 8.87470543,11.4008631 C8.89158256,11.4008631 8.90845969,11.3851777 8.90845969,11.3851777 L8.92533683,11.3851777 L8.94221396,11.4008631 C8.97596823,11.432234 9.00972249,11.4479194 9.04347676,11.4479194 C9.09410816,11.4479194 9.12786242,11.4165486 9.17849382,11.4165486 L9.21224809,11.4165486 L9.24600235,11.4165486 C9.27975662,11.4165486 9.29663375,11.4008631 9.29663375,11.3538068 C9.29663375,11.2753796 9.24600235,11.2126379 9.21224809,11.1498961 C9.24600235,11.1498961 9.22912522,11.1342107 9.22912522,11.1342107" id="Fill-83" fill="#FFE400"></path>
            <path d="M5.36419423,6.2452219 C5.43170276,6.2452219 5.65110549,6.3291635 5.66798263,6.34595182 C5.75236829,6.41310511 5.78612256,6.48025839 5.81987683,6.58098832 C5.83675396,6.66492993 5.83675396,6.74887153 5.83675396,6.81602482 C5.83675396,6.89996642 5.80299969,6.96711971 5.76924543,7.03427299 C5.75236829,7.08463796 5.75236829,7.10142628 5.78612256,7.10142628 C5.81987683,7.10142628 5.87050823,7.06784964 5.90426249,7.05106131 C5.97177102,7.01748467 6.02240242,6.96711971 6.08991096,6.93354307 C6.22492802,6.86638978 6.34306795,6.78244818 6.46120788,6.68171825 C6.51183928,6.64814161 6.57934782,6.59777664 6.62997922,6.5642 C6.69748775,6.51383504 6.69748775,6.51383504 6.68061061,6.42989343 C6.64685635,6.31237518 6.61310208,6.19485693 6.62997922,6.07733869 C6.62997922,6.04376204 6.66373348,5.80872555 6.71436488,5.80872555 C6.32619082,5.80872555 5.92113962,5.90945547 5.5498427,6.0101854 C5.51608843,6.0101854 5.48233416,6.02697372 5.4485799,6.04376204 C5.38107137,6.07733869 5.36419423,6.19485693 5.3473171,6.26201022 C5.3473171,6.26201022 5.3473171,6.2452219 5.36419423,6.2452219" id="Fill-85" fill="#FFE400"></path>
            <path d="M6.34493837,14.0350701 C6.32994551,14.2029533 6.31495266,14.3538803 6.2999598,14.5217635 C6.28496695,14.7233912 6.26997409,14.9248511 6.25498124,15.1430993 C6.23998838,15.3445591 6.23998838,15.546019 6.22499553,15.7474788 C6.34493837,15.6803255 6.46488121,15.6130044 6.53984548,15.5795956 C6.53984548,15.546019 6.55483834,15.5124423 6.55483834,15.4788657 C6.58482405,15.2941942 6.5998169,15.1093547 6.62980261,14.9248511 C6.65978832,14.7401796 6.68977403,14.5722964 6.67478118,14.3876248 C6.67478118,14.2868949 6.64479547,14.1693766 6.58482405,14.1020555 L6.56983119,14.085435 C6.55483834,14.0686467 6.53984548,14.0686467 6.52485263,14.0518584 C6.46488121,14.0181139 6.40490979,14.0014934 6.32994551,13.9847051 C6.34493837,13.9847051 6.34493837,14.0014934 6.34493837,14.0350701" id="Fill-89" fill="#FFE400"></path>
            <path d="M5.06043959,16.234273 L5.02668532,16.234273 L5.00980819,16.234273 C4.89166826,16.2174847 4.79040546,16.183908 4.68914266,16.1672876 L4.63851126,16.1672876 L4.604757,16.1672876 C4.48661706,16.1672876 4.3516,16.2006964 4.26721433,16.284638 C4.1490744,16.3853679 4.11532014,16.5532511 4.13219727,16.6875577 C4.1490744,16.8388204 4.23346007,16.9729591 4.3516,17.0736891 C4.4528628,17.1576307 4.5541256,17.2247839 4.6553884,17.3087255 C4.80728259,17.4598204 4.92542253,17.644492 4.97605392,17.8461197 C5.04356246,17.7116453 5.06043959,17.543762 5.02668532,17.3926672 C4.99293106,17.2415723 4.92542253,17.0906453 4.85791399,16.9561708 C4.90854539,16.9729591 4.95917679,16.9897474 5.00980819,16.9897474 C5.07731672,16.9897474 5.14482526,16.9729591 5.21233379,16.9393825 C5.36422799,16.8722292 5.48236792,16.7379226 5.61738498,16.6371927 C5.75240205,16.5196745 5.90429625,16.4357328 6.07306758,16.3351708 C6.19120751,16.2678496 6.30934744,16.2006964 6.42748737,16.1335431 C6.8494157,15.9154628 7.28822116,15.7306234 7.72702662,15.5459518 C7.59200956,15.4787985 7.47386962,15.4284336 7.32197543,15.4284336 C7.27134403,15.4284336 7.23758976,15.4284336 7.18695836,15.4452219 C7.0013099,15.4787985 6.8494157,15.5796964 6.68064437,15.663638 C6.66376724,15.6802584 6.63001297,15.6802584 6.61313584,15.6970467 C6.5456273,15.7306234 6.47811877,15.7642 6.41061024,15.7809883 C6.34310171,15.814565 6.25871604,15.8481416 6.19120751,15.8817182 C6.10682184,15.9154628 6.00555904,15.9656599 5.92117338,15.9994044 C5.88741911,16.0160248 5.85366485,16.0328131 5.83678771,16.0496015 C5.75240205,16.0999664 5.65113925,16.1167547 5.54987645,16.1503314 C5.53299932,16.1503314 5.51612218,16.1672876 5.49924505,16.1672876 C5.31359659,16.183908 5.17857952,16.234273 5.06043959,16.234273" id="Fill-91" fill="#FFE400"></path>
            <path d="M13.8871465,15.8648964 C13.8533922,15.848108 13.8027608,15.848108 13.7521294,15.848108 C13.4314639,15.848108 13.1783069,16.2006628 13.1783069,16.5364292 C13.1783069,16.6875241 13.2289383,16.8052102 13.3808325,16.8052102 C13.5327267,16.8052102 13.7352523,16.6035825 13.8027608,16.2342394 L13.8871465,15.8648964 Z M13.7521294,17.0400788 C13.7521294,16.9561372 13.7690065,16.8387869 13.7858837,16.7212686 L13.7690065,16.7212686 C13.6339895,16.9897139 13.4314639,17.0736555 13.2458154,17.0736555 C12.9926584,17.0736555 12.8238871,16.8721956 12.8238871,16.586962 C12.8238871,16.0999328 13.1614297,15.5796628 13.8365151,15.5796628 C13.9884092,15.5796628 14.1571806,15.6130715 14.2753205,15.6466482 L14.1234263,16.4021226 C14.089672,16.6203708 14.0559178,16.8891518 14.0559178,17.057035 L13.7521294,17.0400788 Z" id="Fill-93" fill="#B0B0B0"></path>
            <path d="M14.8660708,16.234273 C15.0010879,16.2174847 15.1529821,16.2006964 15.271122,16.1335431 C15.3386305,16.0999664 15.4061391,16.0328131 15.4061391,15.9656599 C15.4061391,15.8817182 15.3386305,15.8315212 15.2373677,15.8315212 C15.0010879,15.814565 14.9167022,16.0496015 14.8660708,16.234273 M14.8154394,16.4525212 C14.7985623,16.503054 14.7985623,16.5700394 14.7985623,16.6204044 C14.7985623,16.7548788 14.8660708,16.8218642 15.017965,16.8218642 C15.2036135,16.8218642 15.3386305,16.7379226 15.3386305,16.5869956 C15.3386305,16.4525212 15.2204906,16.4021562 15.0854735,16.4021562 C14.9842107,16.4021562 14.8829479,16.4357328 14.8154394,16.4525212 M15.7268046,15.9154628 C15.7268046,16.1167547 15.5411561,16.2174847 15.3892619,16.2678496 L15.3892619,16.284638 C15.5411561,16.3014263 15.6930503,16.4021562 15.6930503,16.5869956 C15.6930503,16.9561708 15.2879991,17.0736891 14.9842107,17.0736891 C14.6466681,17.0736891 14.4610196,16.9393825 14.4610196,16.6371927 C14.4610196,16.3685796 14.5791595,15.8985066 14.8323165,15.6970467 C14.9504565,15.6131051 15.0854735,15.5627401 15.271122,15.5627401 C15.5411561,15.5796964 15.7268046,15.6970467 15.7268046,15.9154628" id="Fill-95" fill="#B0B0B0"></path>
            <path d="M17.3807468,15.6130715 L17.1950983,16.6035825 C17.161344,16.7714657 17.1444669,16.9227285 17.1275898,17.0400788 L16.8238014,17.0400788 L16.8575556,16.788254 C16.7225386,16.9730934 16.5368901,17.0736555 16.3512416,17.0736555 C16.148716,17.0736555 15.9799447,16.9561372 15.9799447,16.6709036 C15.9799447,16.586962 15.9968218,16.5196409 16.013699,16.4190788 L16.1655932,15.6130715 L16.5031358,15.6130715 L16.3512416,16.4021226 C16.3343645,16.4694438 16.3343645,16.5364292 16.3343645,16.6035825 C16.3343645,16.7212686 16.3849959,16.8052102 16.520013,16.8052102 C16.6719072,16.8052102 16.8744328,16.6203708 16.9250642,16.318181 L17.0432041,15.6130715 L17.3807468,15.6130715 Z" id="Fill-97" fill="#B0B0B0"></path>
            <path d="M18.5959341,15.8648964 C18.5621798,15.848108 18.5115484,15.848108 18.460917,15.848108 C18.1402515,15.848108 17.8870945,16.2006628 17.8870945,16.5364292 C17.8870945,16.6875241 17.9377259,16.8052102 18.0896201,16.8052102 C18.2415143,16.8052102 18.4440399,16.6035825 18.5115484,16.2342394 L18.5959341,15.8648964 Z M18.460917,17.0400788 C18.460917,16.9561372 18.4777942,16.8387869 18.4946713,16.7212686 L18.4777942,16.7212686 C18.3427771,16.9897139 18.1402515,17.0736555 17.954603,17.0736555 C17.701446,17.0736555 17.5326747,16.8721956 17.5326747,16.586962 C17.5326747,16.0999328 17.8702174,15.5796628 18.5453027,15.5796628 C18.6971969,15.5796628 18.8659682,15.6130715 18.9841082,15.6466482 L18.832214,16.4021226 C18.7984597,16.6203708 18.7647054,16.8891518 18.7647054,17.057035 L18.460917,17.0400788 Z" id="Fill-99" fill="#B0B0B0"></path>
            <path d="M19.7266514,15.6130715 L19.6085115,16.217619 L19.6591428,16.217619 L20.1992111,15.6130715 L20.6042623,15.6130715 L19.9460541,16.2678161 C20.0979483,16.318181 20.1654568,16.4694438 20.2160882,16.6875241 C20.2498425,16.8218307 20.2835968,16.9730934 20.317351,17.057035 L19.9798084,17.057035 C19.9460541,16.9897139 19.9122998,16.8387869 19.8785456,16.7043124 C19.811037,16.5030204 19.7435285,16.4356993 19.5916343,16.4356993 L19.5747572,16.4356993 L19.4566173,17.057035 L19.1190746,17.057035 L19.3891087,15.6300277 L19.7266514,15.6130715 Z" id="Fill-101" fill="#B0B0B0"></path>
            <path d="M20.9080507,16.4860978 C20.9080507,16.6875577 21.0093135,16.8218642 21.194962,16.8218642 C21.448119,16.8218642 21.6168903,16.4693095 21.6168903,16.183908 C21.6168903,16.0328131 21.5493818,15.8481416 21.3468562,15.8481416 C21.0599449,15.8481416 20.9080507,16.2174847 20.9080507,16.4860978 M21.9713101,16.1672876 C21.9713101,16.653981 21.6337674,17.0736891 21.1443306,17.0736891 C20.7730336,17.0736891 20.5536309,16.8218642 20.5536309,16.4860978 C20.5536309,15.9994044 20.8911736,15.5796964 21.3806104,15.5796964 C21.7687845,15.5796964 21.9713101,15.8649299 21.9713101,16.1672876" id="Fill-103" fill="#B0B0B0"></path>
            <path d="M22.899603,15.6130715 L22.9839887,16.2511956 C23.0008658,16.3517577 23.017743,16.4860642 23.017743,16.6203708 C23.0514972,16.5364292 23.15276,16.3517577 23.2371457,16.2006628 L23.5409341,15.6300277 L23.9797396,15.6300277 L23.7940911,17.057035 L23.4734256,17.057035 L23.5578112,16.4356993 C23.5746884,16.3015606 23.6084426,16.0999328 23.6421969,15.948838 L23.6253198,15.948838 C23.5915655,16.0497358 23.4903027,16.217619 23.405917,16.3855022 L23.0514972,17.0400788 L22.7814631,17.0400788 L22.6970774,16.4021226 C22.6802003,16.2511956 22.6633232,16.0663562 22.646446,15.9320496 L22.6295689,15.9320496 C22.5958146,16.0833124 22.5451832,16.2846044 22.511429,16.4356993 L22.3595348,17.057035 L22.0557464,17.057035 L22.4439204,15.6300277 L22.899603,15.6130715 Z" id="Fill-105" fill="#B0B0B0"></path>
            <path d="M24.165388,17.0400788 L24.3510365,16.0497358 C24.3847908,15.8818526 24.4016679,15.7305898 24.418545,15.6130715 L24.7223334,15.6130715 L24.6885791,15.8648964 C24.8235962,15.6636044 25.0092447,15.5796628 25.2117703,15.5796628 C25.4141271,15.5796628 25.5828984,15.6970131 25.5828984,15.9824146 C25.5828984,16.0497358 25.5661901,16.1502978 25.5493129,16.217619 L25.3974187,17.057035 L25.0598761,17.057035 L25.2117703,16.2511956 C25.2286474,16.2006628 25.2286474,16.1336774 25.2286474,16.0833124 C25.2286474,15.9657942 25.178016,15.8818526 25.0429989,15.8818526 C24.8911047,15.8818526 24.6885791,16.0663562 24.6210706,16.4021226 L24.5029307,17.057035 L24.165388,17.057035 L24.165388,17.0400788 Z" id="Fill-107" fill="#B0B0B0"></path>
            <path d="M26.8825389,15.8648964 C26.8487847,15.848108 26.7981533,15.848108 26.7475219,15.848108 C26.4268563,15.848108 26.1736994,16.2006628 26.1736994,16.5364292 C26.1736994,16.6875241 26.2244995,16.8052102 26.3762249,16.8052102 C26.5281191,16.8052102 26.7308135,16.6035825 26.7981533,16.2342394 L26.8825389,15.8648964 Z M26.7475219,17.0400788 C26.7475219,16.9561372 26.764399,16.8387869 26.7812761,16.7212686 L26.764399,16.7212686 C26.6293819,16.9897139 26.4268563,17.0736555 26.2412079,17.0736555 C25.9880509,17.0736555 25.8192796,16.8721956 25.8192796,16.586962 C25.8192796,16.0999328 26.1568222,15.5796628 26.8319075,15.5796628 C26.9839705,15.5796628 27.1527418,15.6130715 27.270713,15.6466482 L27.1188188,16.4021226 C27.0850645,16.6203708 27.0513103,16.8891518 27.0513103,17.057035 L26.7475219,17.0400788 Z" id="Fill-109" fill="#B0B0B0"></path>
            <polygon id="Fill-111" fill="#B0B0B0" points="28.0133406 15.6130715 27.9120778 16.167254 28.4521461 16.167254 28.5534089 15.6130715 28.8909515 15.6130715 28.6209174 17.0400788 28.2664976 17.0400788 28.3846375 16.4190788 27.8445693 16.4190788 27.7264294 17.0400788 27.3888867 17.0400788 27.675798 15.6130715"></polygon>
            <path d="M30.4943129,15.6130715 L30.3084957,16.6035825 C30.2749102,16.7714657 30.2580331,16.9227285 30.2411559,17.0400788 L29.9373675,17.0400788 L29.970953,16.788254 C29.8361047,16.9730934 29.6504563,17.0736555 29.464639,17.0736555 C29.2622822,17.0736555 29.0935109,16.9561372 29.0935109,16.6709036 C29.0935109,16.586962 29.110388,16.5196409 29.1270964,16.4190788 L29.2791594,15.6130715 L29.616702,15.6130715 L29.464639,16.4021226 C29.4479307,16.4694438 29.4479307,16.5364292 29.4479307,16.6035825 C29.4479307,16.7212686 29.4985621,16.8052102 29.6334104,16.8052102 C29.7854733,16.8052102 29.9879989,16.6203708 30.0386303,16.318181 L30.1736474,15.6130715 L30.4943129,15.6130715 Z" id="Fill-113" fill="#B0B0B0"></path>
            <path d="M31.6251146,15.831454 C31.5743144,15.8144978 31.5407289,15.8144978 31.4563433,15.8144978 C31.2875719,15.8144978 31.1188006,15.8648628 31.1188006,16.0497022 C31.1188006,16.1840088 31.2875719,16.251162 31.422589,16.251162 L31.5576061,16.251162 L31.6251146,15.831454 Z M31.7263774,17.0400453 L31.3888347,17.0400453 L31.4899288,16.4694102 L31.3888347,16.4694102 C31.2200634,16.4694102 31.1188006,16.5533518 31.0344149,16.7378555 C30.9836148,16.8387533 30.9329834,16.9394832 30.8656436,17.0400453 L30.4943467,17.0400453 C30.5787324,16.9226949 30.6293638,16.7882204 30.6968723,16.6708701 C30.781258,16.5197752 30.8992291,16.4020891 31.0512921,16.3685124 C30.916275,16.3351036 30.7475037,16.2342058 30.7475037,16.0497022 C30.7475037,15.6466146 31.2031863,15.5964175 31.5069747,15.5964175 C31.675746,15.5964175 31.8612257,15.613038 31.9795344,15.6299942 L31.7263774,17.0400453 Z" id="Fill-115" fill="#B0B0B0"></path>
            <path d="M33.6839898,16.2006628 C33.6839898,16.0327796 33.6166501,15.8648964 33.4308328,15.8648964 C33.1607987,15.8648964 33.0259504,16.2342394 33.0259504,16.4860642 C33.0259504,16.6539474 33.0932902,16.8052102 33.2791074,16.8052102 C33.5322644,16.8218307 33.6839898,16.4190788 33.6839898,16.2006628 Z M32.975319,14.9247504 C33.0932902,14.9584949 33.2451844,14.9584949 33.3464472,14.9584949 C33.5660187,14.9751153 33.73479,15.0424365 33.8527612,15.1599547 C34.0215325,15.3108818 34.0723327,15.5627066 34.0723327,15.8145314 C34.0723327,16.3351372 33.835884,17.0736555 33.1947217,17.0736555 C32.8401332,17.0736555 32.6377763,16.8554073 32.6377763,16.4860642 C32.6377763,16.0663562 32.9245188,15.5962832 33.3802014,15.5962832 C33.582727,15.5962832 33.7177441,15.6970131 33.7683755,15.8648964 L33.7854214,15.8648964 L33.7854214,15.7641664 C33.7854214,15.6466482 33.7514984,15.478765 33.6504043,15.3782029 C33.5489728,15.2773051 33.4139557,15.2438964 33.228476,15.2269401 C33.1440903,15.2103197 33.0597047,15.2103197 32.9582731,15.1933635 L32.975319,14.9247504 Z" id="Fill-117" fill="#B0B0B0"></path>
            <path d="M35.6586482,15.6130715 L35.388614,17.0400788 L35.0510714,17.0400788 L35.2704741,15.8818526 L34.8654229,15.8818526 L34.7979144,16.2006628 C34.7304058,16.5700058 34.629143,16.8052102 34.4434946,16.9393489 C34.3422318,17.0232905 34.2411377,17.0736555 34.0723664,17.0736555 L34.0553205,16.8052102 C34.1397062,16.788254 34.2072147,16.7714657 34.2411377,16.7378891 C34.3591089,16.6539474 34.4266174,16.4524876 34.4772488,16.217619 L34.5953888,15.6130715 L35.6586482,15.6130715 Z" id="Fill-119" fill="#B0B0B0"></path>
            <path d="M36.7726402,15.831454 C36.72184,15.8144978 36.6882545,15.8144978 36.6038689,15.8144978 C36.4350975,15.8144978 36.2663262,15.8648628 36.2663262,16.0497022 C36.2663262,16.1840088 36.4350975,16.251162 36.5701146,16.251162 L36.7051317,16.251162 L36.7726402,15.831454 Z M36.8906114,17.0400453 L36.5530687,17.0400453 L36.6545003,16.4694102 L36.5363603,16.4694102 C36.367589,16.4694102 36.2663262,16.5533518 36.1819405,16.7378555 C36.1311404,16.8387533 36.080509,16.9394832 36.0131692,17.0400453 L35.6418723,17.0400453 C35.726258,16.9226949 35.7768894,16.7882204 35.8443979,16.6708701 C35.9287835,16.5197752 36.0467547,16.4020891 36.1988177,16.3685124 C36.0638006,16.3351036 35.8950293,16.2342058 35.8950293,16.0497022 C35.8950293,15.6466146 36.3507119,15.5964175 36.6545003,15.5964175 C36.8232716,15.5964175 37.0087513,15.613038 37.12706,15.6299942 L36.8906114,17.0400453 Z" id="Fill-121" fill="#B0B0B0"></path>
            <polygon id="Fill-123" fill="#B0B0B0" points="38.4265655 15.6130715 38.3251339 16.167254 38.865371 16.167254 38.9666338 15.6130715 39.3041764 15.6130715 39.0341423 17.0400788 38.6797225 17.0400788 38.7978624 16.4190788 38.2577942 16.4190788 38.1396542 17.0400788 37.8021116 17.0400788 38.0719769 15.6130715"></polygon>
            <path d="M40.5024191,15.8648964 C40.4686648,15.848108 40.4180334,15.848108 40.367402,15.848108 C40.0467365,15.848108 39.7935795,16.2006628 39.7935795,16.5364292 C39.7935795,16.6875241 39.8442109,16.8052102 39.9961051,16.8052102 C40.1479993,16.8052102 40.3505249,16.6035825 40.4180334,16.2342394 L40.5024191,15.8648964 Z M40.367402,17.0400788 C40.367402,16.9561372 40.3842792,16.8387869 40.4011563,16.7212686 L40.3842792,16.7212686 C40.2492621,16.9897139 40.0467365,17.0736555 39.8610881,17.0736555 C39.6079311,17.0736555 39.4391597,16.8721956 39.4391597,16.586962 C39.4391597,16.0999328 39.7767024,15.5796628 40.4517877,15.5796628 C40.6036819,15.5796628 40.7724532,15.6130715 40.8905932,15.6466482 L40.738699,16.4021226 C40.7049447,16.6203708 40.6711904,16.8891518 40.6711904,17.057035 L40.367402,17.0400788 Z" id="Fill-125" fill="#B0B0B0"></path>
            <path d="M41.4138518,16.7379226 C41.4644832,16.7882876 41.5488689,16.8050759 41.6499629,16.8050759 C41.9201658,16.8050759 42.1395685,16.4525212 42.1395685,16.1335431 C42.1395685,15.9994044 42.0718912,15.8481416 41.9031199,15.8481416 C41.7343486,15.8481416 41.531823,16.0496015 41.4811916,16.3853679 L41.4138518,16.7379226 Z M40.9075378,17.6277036 L41.1942803,16.1503314 C41.2280346,15.9824482 41.2619576,15.7642 41.278666,15.6131051 L41.5826231,15.6131051 L41.5488689,15.8481416 C41.6670088,15.6802584 41.8526573,15.5796964 42.038137,15.5796964 C42.3420941,15.5796964 42.4938196,15.8315212 42.4938196,16.1167547 C42.4938196,16.6204044 42.1395685,17.0906453 41.6499629,17.0906453 C41.5151146,17.0906453 41.4138518,17.0569007 41.3630516,17.0233241 L41.2450805,17.6277036 L40.9075378,17.6277036 Z" id="Fill-127" fill="#B0B0B0"></path>
            <path d="M43.0339891,16.4693766 C43.0339891,16.6708365 43.1352519,16.8051431 43.3209003,16.8051431 C43.5740573,16.8051431 43.7428287,16.4524204 43.7428287,16.1671869 C43.7428287,16.016092 43.6753201,15.8314204 43.4727945,15.8314204 C43.2027604,15.8482088 43.0339891,16.2005956 43.0339891,16.4693766 M44.0972485,16.1671869 C44.0972485,16.6540482 43.7597058,17.0737562 43.2702689,17.0737562 C42.898972,17.0737562 42.6795693,16.8219314 42.6795693,16.486165 C42.6795693,15.9993036 43.0171119,15.5795956 43.5065488,15.5795956 C43.8947229,15.5795956 44.0972485,15.8482088 44.0972485,16.1671869" id="Fill-129" fill="#B0B0B0"></path>
            <path d="M45.2955924,16.2006628 C45.2955924,16.0327796 45.2280839,15.8648964 45.0424354,15.8648964 C44.7722325,15.8648964 44.6373842,16.2342394 44.6373842,16.4860642 C44.6373842,16.6539474 44.7048928,16.8052102 44.8905412,16.8052102 C45.1436982,16.8218307 45.2955924,16.4190788 45.2955924,16.2006628 Z M44.6034612,14.9247504 C44.7217699,14.9584949 44.8736641,14.9584949 44.9749269,14.9584949 C45.1941609,14.9751153 45.3629322,15.0424365 45.4812409,15.1599547 C45.6500122,15.3108818 45.7004748,15.5627066 45.7004748,15.8145314 C45.7004748,16.3351372 45.4643638,17.0736555 44.8228639,17.0736555 C44.4686129,17.0736555 44.2659185,16.8554073 44.2659185,16.4860642 C44.2659185,16.0663562 44.5529986,15.5962832 45.0086812,15.5962832 C45.2112068,15.5962832 45.3462238,15.6970131 45.3968552,15.8648964 L45.4135636,15.8648964 L45.4135636,15.7641664 C45.4135636,15.6466482 45.3799781,15.478765 45.2785465,15.3782029 C45.1774525,15.2773051 45.0424354,15.2438964 44.8566182,15.2269401 C44.7722325,15.2103197 44.6878469,15.2103197 44.5867528,15.1933635 L44.6034612,14.9247504 Z" id="Fill-131" fill="#B0B0B0"></path>
            <path d="M46.9157297,15.8648964 C46.8819754,15.848108 46.831344,15.848108 46.7807126,15.848108 C46.4600471,15.848108 46.2068901,16.2006628 46.2068901,16.5364292 C46.2068901,16.6875241 46.2575215,16.8052102 46.4094157,16.8052102 C46.5613099,16.8052102 46.7638355,16.6035825 46.831344,16.2342394 L46.9157297,15.8648964 Z M46.7807126,17.0400788 C46.7807126,16.9561372 46.7975898,16.8387869 46.8144669,16.7212686 L46.7975898,16.7212686 C46.6625727,16.9897139 46.4600471,17.0736555 46.2743986,17.0736555 C46.0212416,17.0736555 45.8524703,16.8721956 45.8524703,16.586962 C45.8524703,16.0999328 46.190013,15.5796628 46.8650983,15.5796628 C47.0169925,15.5796628 47.1857638,15.6130715 47.3039038,15.6466482 L47.1520096,16.4021226 C47.1182553,16.6203708 47.084501,16.8891518 47.084501,17.057035 L46.7807126,17.0400788 Z" id="Fill-133" fill="#B0B0B0"></path>
        </g>
    </g>
</svg>