<?xml version="1.0" encoding="utf-8"?>
<!-- Generator: Adobe Illustrator 22.1.0, SVG Export Plug-In . SVG Version: 6.00 Build 0)  -->
<svg version="1.1" id="Слой_2_1_" xmlns="http://www.w3.org/2000/svg" xmlns:xlink="http://www.w3.org/1999/xlink" x="0px"
	 y="0px" viewBox="0 0 907 659" style="enable-background:new 0 0 907 659;" xml:space="preserve">
<style type="text/css">
	.st0{fill:#004793;}
</style>
<g>
	<g>
		<path class="st0" d="M257.6,226.5l-25.3-1.7c0,16.9,1.7,32.1,6.8,47.3h27C261,258.6,259.3,243.4,257.6,226.5z"/>
		<path class="st0" d="M232.3,211.3h25.3c0-16.9,3.4-32.1,8.4-47.3l-25.3-3.4C235.7,177.5,234,194.4,232.3,211.3z"/>
		<path class="st0" d="M668.1,256.9l-25.3-5.1c-1.7,11.8-5.1,22-8.4,32.1h27C663,275.4,666.4,265.3,668.1,256.9z"/>
		<path class="st0" d="M274.5,143.7c30.4-67.6,98-116.6,177.4-116.6c106.4,0,194.3,86.1,194.3,194.3c0,3.4,0,6.8,0,8.4l25.3,3.4
			c0-3.4,0-8.4,0-11.8c0-121.6-98-219.6-219.6-219.6c-92.9,0-174,59.1-204.4,141.9L274.5,143.7z"/>
		<path class="st0" d="M624.2,309.2C592.1,371.7,527.9,414,451.9,414c-84.5,0-155.4-54.1-182.4-128.4l-28.7-3.4
			c27,91.2,109.8,157.1,209.5,157.1c89.5,0,165.5-54.1,201-130.1H624.2z"/>
	</g>
	<g>
		<path class="st0" d="M781.3,272.1l-35.5-27l-175.7-18.6L517.7,169l-8.4,50.7l-33.8-3.4l33.8,6.8l-6.8,38.9h22l3.4-35.5l16.9,3.4
			l22,32.1l37.2,1.7l-27-28.7L781.3,272.1z M529.6,223.1l1.7-15.2l11.8,16.9L529.6,223.1z M477.2,289h319.3l18.6,15.2H485.7
			L477.2,289z M397.8,133.6h87.8l27,30.4l-94.6-16.9l77.7,131.8h-25.3L397.8,133.6z M462,305.9l-226.4-28.7l212.8,1.7L462,305.9z
			 M429.9,243.4l-217.9-27h204.4L429.9,243.4z M396.1,175.8l-214.5-27h201L396.1,175.8z"/>
	</g>
</g>
<g>
	<path class="st0" d="M181.3,499.6h-15l-3.1,9h-6.5l14.1-38.4h6.1l13.9,38.4h-6.5L181.3,499.6z M168.1,494.2h11.4l-5.6-16.4h-0.2
		L168.1,494.2z"/>
	<path class="st0" d="M207.9,508.6v-38.4h12.8c4.3,0,7.6,0.9,10,2.6c2.4,1.8,3.6,4.4,3.6,7.8c0,1.7-0.5,3.3-1.5,4.7
		s-2.4,2.4-4.2,3.1c2.3,0.5,4,1.6,5.3,3.3s1.8,3.6,1.8,5.9c0,3.6-1.2,6.3-3.5,8.2c-2.4,1.9-5.6,2.8-9.8,2.8H207.9z M214.4,486.3h7.1
		c2,0,3.6-0.5,4.7-1.4c1.2-0.9,1.7-2.3,1.7-4c0-1.9-0.6-3.3-1.8-4.2c-1.2-0.9-3-1.4-5.3-1.4h-6.4V486.3z M214.4,491.1v12.3h8.1
		c2.2,0,3.9-0.5,5.1-1.5s1.8-2.5,1.8-4.4c0-2-0.5-3.6-1.5-4.7c-1-1.1-2.6-1.7-4.7-1.7H214.4z"/>
	<path class="st0" d="M278.7,470.2h6.4v38.4h-6.4v-27.5l-0.2-0.1l-17,27.5h-6.4v-38.4h6.4v27.4l0.2,0.1L278.7,470.2z"/>
	<path class="st0" d="M327,499.6h-15l-3.1,9h-6.5l14.1-38.4h6.1l13.9,38.4H330L327,499.6z M313.8,494.2h11.4l-5.6-16.4h-0.2
		L313.8,494.2z"/>
	<path class="st0" d="M364.5,491.9h-4.4v16.6h-6.4v-38.4h6.4v16.3h3.7l12-16.3h7.6l-14,18.3l15.1,20.1h-7.8L364.5,491.9z"/>
	<path class="st0" d="M429.9,492.8c0,4.7-1.5,8.6-4.4,11.7c-2.9,3.1-6.8,4.6-11.5,4.6c-4.6,0-8.3-1.5-11.2-4.6
		c-2.9-3.1-4.3-7-4.3-11.7v-6.9c0-4.7,1.4-8.6,4.3-11.7c2.9-3.1,6.6-4.6,11.2-4.6c4.7,0,8.5,1.5,11.5,4.6s4.4,7,4.4,11.7V492.8z
		 M423.6,485.9c0-3.2-0.9-5.8-2.6-7.9c-1.7-2.1-4-3.1-6.9-3.1c-2.8,0-5,1-6.7,3.1s-2.5,4.7-2.5,7.9v7c0,3.2,0.8,5.9,2.5,8
		s3.9,3.1,6.7,3.1c2.9,0,5.3-1,6.9-3.1s2.5-4.7,2.5-8V485.9z"/>
	<path class="st0" d="M457.9,470.2l11,29.5h0.2l11.1-29.5h8.3v38.4H482v-13.1l0.6-16.6l-0.2,0l-11.4,29.7h-4.3l-11.3-29.7l-0.2,0
		l0.6,16.6v13.1h-6.4v-38.4H457.9z"/>
	<path class="st0" d="M539.6,508.6h-6.4v-33.2H516v33.2h-6.4v-38.4h30V508.6z"/>
	<path class="st0" d="M581.5,499.6h-15l-3.1,9h-6.5l14.1-38.4h6.1l13.9,38.4h-6.5L581.5,499.6z M568.3,494.2h11.4l-5.6-16.4h-0.2
		L568.3,494.2z"/>
	<path class="st0" d="M638.1,508.6h-6.4v-16.4h-17.2v16.4h-6.4v-38.4h6.4V487h17.2v-16.9h6.4V508.6z"/>
	<path class="st0" d="M682.7,470.2h6.4v38.4h-6.4v-27.5l-0.2-0.1l-17,27.5h-6.4v-38.4h6.4v27.4l0.2,0.1L682.7,470.2z"/>
	<path class="st0" d="M714,508.6h-6.9l8.6-16.3c-2.2-1-4-2.4-5.1-4.1s-1.7-3.8-1.7-6.3c0-3.7,1.2-6.6,3.7-8.6c2.5-2,5.8-3,10.2-3
		h12.8v38.4h-6.4v-14.5h-7.6L714,508.6z M729.1,475.3h-6.4c-2.5,0-4.3,0.6-5.6,1.8c-1.3,1.2-1.9,2.8-1.9,4.9s0.6,3.8,1.9,5.1
		s3.1,2,5.5,2h6.4V475.3z"/>
</g>
<g>
	<path class="st0" d="M77.2,638.6h-9.7l15.1-78.7h47.2l-1.7,8.9H90.5L77.2,638.6z"/>
	<rect x="512.3" y="550.8" class="st0" width="20.3" height="6.8"/>
	<path class="st0" d="M122.4,638.6l15.1-78.7h30.2c5.2,0,9.1,0.6,11.6,1.9c2.5,1.3,4.7,3.5,6.5,6.6s2.7,6.7,2.7,10.8
		c0,5.3-1.4,10.4-4.3,15.1c-2.9,4.7-6.6,8-11.2,9.7c-4.6,1.7-10.2,2.6-16.7,2.6h-18l-6.1,32H122.4z M139.9,597.7h15.9
		c5.8,0,10.1-0.6,12.9-1.9c2.9-1.3,5.3-3.4,7.2-6.4s2.9-6.3,2.9-9.9c0-2.8-0.5-5-1.5-6.6c-1-1.6-2.4-2.8-4.1-3.5
		c-1.7-0.7-4.8-1-9.3-1h-18.5L139.9,597.7z"/>
	<path class="st0" d="M191,605.6c0-14.4,4-26.1,12.1-35.1c7.2-8,15.9-12,26.2-12c8.7,0,15.9,3.1,21.7,9.3s8.8,14.9,8.8,26
		c0,8.9-1.9,17-5.7,24.3c-3.8,7.2-8.6,12.7-14.4,16.4c-5.8,3.7-11.9,5.5-18.3,5.5c-5.6,0-10.6-1.3-15.1-4c-4.5-2.6-8.1-6.7-11-12
		C192.4,618.6,191,612.5,191,605.6z M200.5,606.2c0,7.6,2.1,13.7,6.4,18.3c4.2,4.6,9.3,6.8,15.1,6.8c4.4,0,8.7-1.5,13-4.4
		c4.3-2.9,7.9-7.5,10.8-13.7c2.9-6.2,4.4-13,4.4-20.3c0-8-2.1-14.2-6.2-18.8s-9.2-6.9-15.1-6.9c-6.8,0-12.9,3-18.4,9
		C203.8,583.6,200.5,593.5,200.5,606.2z"/>
	<path class="st0" d="M301.5,597.8c7.3,3.4,10.9,9.3,10.9,17.6c0,7.1-2.6,12.9-7.7,17.5c-5.1,4.6-11.6,6.9-19.5,6.9
		c-14.2,0-22.7-7.9-25.6-23.6l8.4-2.6c1.3,11.7,7,17.5,17.1,17.5c5.2,0,9.5-1.5,12.8-4.6c3.3-3.1,4.9-6.9,4.9-11.4
		c0-3.2-1.1-6.1-3.3-8.8c-2.2-2.7-6.9-4.1-14.1-4.1l-4.7,0.1l2.5-9.5l3.8,0.1c6.4,0,11.4-1.2,14.8-3.7c3.5-2.5,5.2-5.8,5.2-10.2
		c0-3.4-1.1-6.2-3.4-8.5c-2.2-2.3-5-3.4-8.3-3.4c-9,0-15.1,5.5-18.3,16.5l-9.4-2.1c4.7-15.4,14-23.1,27.7-23.1
		c6.2,0,11.3,1.9,15.3,5.7s6,8.7,6,14.7c0,4.7-1.4,8.7-4.1,12.2C310,594.6,306.2,596.8,301.5,597.8z"/>
	<path class="st0" d="M320.1,638.6l15.1-78.7h9.7l-6.3,32.7h37.5l6.3-32.7h9.7L377,638.6h-9.7l7.1-37.1h-37.5l-7.1,37.1H320.1z"/>
	<path class="st0" d="M388.2,638.6l15.4-78.7h9.6l-6.6,33.5h15.8c7.4,0,12.6,0.8,15.5,2.3c3,1.5,5.2,3.7,6.9,6.7
		c1.6,2.9,2.4,6.3,2.4,10c0,5.4-1.5,10.4-4.5,14.9c-3,4.5-6.7,7.5-11.2,9.1c-4.5,1.5-10.3,2.3-17.4,2.3H388.2z M404.9,602.3
		l-5.4,27.4h9.7c13,0,20.9-1.9,23.9-5.6c2.9-3.7,4.4-7.5,4.4-11.3c0-3.5-1.1-6.1-3.4-7.9c-2.3-1.7-6.6-2.6-13-2.6H404.9z
		 M456.3,638.6l15.1-78.7h9.7L466,638.6H456.3z"/>
	<path class="st0" d="M478.9,638.6l15.5-78.7h9.3l-11.9,60.5l49.6-60.5h9.1l-15.4,78.7h-9.3l11.9-60l-49.4,60H478.9z"/>
	<path class="st0" d="M638.8,638.6l15.1-78.7h22.4c5.4,0,9.5,0.4,12.1,1.3c3.8,1.2,6.8,3.3,8.9,6.3c2.1,3,3.2,6.7,3.2,11.2
		c0,4.4-1.1,8.2-3.4,11.5c-2.2,3.2-5.6,5.7-10,7.4c3.8,1.4,6.7,3.4,8.7,6.2c2,2.8,3,6.1,3,10c0,4.5-1.2,8.8-3.6,12.8
		c-2.4,4-5.5,7-9.2,9.1c-3.7,2-7.8,3.1-12.3,3.1H638.8z M650.3,629.7h16.4c4.3,0,7.2-0.1,8.6-0.4c2.6-0.5,4.9-1.3,6.9-2.5
		s3.6-2.9,4.9-5.3c1.3-2.3,1.9-4.9,1.9-7.7c0-3.9-1.1-6.8-3.4-8.6c-2.2-1.8-6.2-2.7-11.8-2.7h-18.4L650.3,629.7z M657.2,593.6h14.7
		c7,0,11.9-1.1,14.7-3.3c3.3-2.8,5-6.5,5-11.1c0-2.3-0.5-4.3-1.6-6s-2.4-2.8-4-3.4c-1.6-0.6-4.5-1-8.7-1h-15.3L657.2,593.6z"/>
	<path class="st0" d="M701.2,638.6l15.5-78.7h9.3l-11.9,60.5l49.6-60.5h9.1l-15.4,78.7h-9.3l11.9-60l-49.4,60H701.2z"/>
	<path class="st0" d="M821.3,638.6h9.4l-12-78.7h-11.4l-16.8,32.3h-12.9l-2,7.8h10.8l-20.1,38.6h10.6l11.6-22.7l4.2-8.1l4-7.8h18.9
		L821.3,638.6z M800.7,592.2l3.9-7.6c3.2-6.2,5.6-11.5,7.2-16.1c0.3,5.3,1,11.8,2,19.6l0.6,4.1H800.7z"/>
	<path class="st0" d="M623.3,638.6h9.4l-12-78.7h-11.4l-16.8,32.3h-12.9l-2,7.8h10.8l-20.1,38.6h10.6l11.6-22.7l4.2-8.1l4-7.8h18.9
		L623.3,638.6z M602.7,592.2l3.9-7.6c3.2-6.2,5.6-11.5,7.2-16.1c0.3,5.3,1,11.8,2,19.6l0.6,4.1H602.7z"/>
</g>
</svg>
