<?xml version="1.0" encoding="utf-8"?>
<!-- Generator: Adobe Illustrator 22.1.0, SVG Export Plug-In . SVG Version: 6.00 Build 0)  -->
<svg version="1.1" id="Layer_1" xmlns="http://www.w3.org/2000/svg" xmlns:xlink="http://www.w3.org/1999/xlink" x="0px" y="0px"
	 width="819.691px" height="248.801px" viewBox="0 0 819.691 248.801" enable-background="new 0 0 819.691 248.801"
	 xml:space="preserve">
<g>
	<path id="path526" fill="#CC0327" d="M185.153,25.858c-5.517,2.906-16.883,4.28-21.556-0.6c-5.069,7.904,4.7,15.371,15.968,11.185
		c6.595-2.409,13.505-5.511,20.741-6.506c7.564-1.07,16.633,0,19.887,3.281c-28.113,1.7-64.136,17.058-90.969,35.974
		c-20.853,14.721-33.848,27.997-49.531,48.923c-2.111,2.958-1.793,5.185,1.983,3.218c18.401-9.378,42.117-17.129,62.565-22.242
		c16.343-4.057,33.806-7.874,50.435-3.348c8.405,2.316,16.198,7.773,19.211,16.177c3.92,10.824,0.923,23.635-12.037,25.64
		c-6.435,0.969-10.674-1.504-13.051-4.881c-1.143-1.619-1.713-1.678-2.612-1.395l-16.637,5.083
		c-0.942,0.296-2.175,1.597-1.488,3.251c1.531,3.841,5.104,8.837,9.03,11.757c10.586,7.892,24.447,8.759,36.507,4.044
		c16.647-6.486,25.453-23.892,22.98-42.351c-2.286-16.896-14.592-30.88-30.48-36.306c-15.978-5.479-37.865-3.051-55.422,3.364
		c-4.634,1.704-5.717,2.406-3.058,0.179c12.468-10.129,37.441-21.879,58.39-27.876c14.338-4.092,27.583-5.052,31.453-1.886
		c3.902-23.941-15.973-39.558-40.275-33.349c8.546-5.422,1.8-17.236-10.478-17.194c-20.273,0.115-39.617,9.341-58.641,11.417
		c-10.682,1.186-23.27-0.977-31.691-5.336c-1.645,16.768,18.756,29.083,38.191,25.024c13.629-2.839,26.283-9.477,38.937-12.277
		C184.683,16.305,190.431,23.103,185.153,25.858 M78.21,220.914c-10.874,16.266-16.789,15.544-26.574,14.469
		c-2.24-0.247-2.21,0.128-3.217,1.749l-2.581,4.157c-1.129,1.801-1.048,2.031,1.547,3.137c18.576,7.78,35.482,6.415,49.194-14.228
		l62.874-94.708c6.264-9.422,9.01-14.491,17.803-14.896c5.444-0.261,9.32,3.319,10.386,7.787c0.49,2.175,1.777,2.306,3.065,1.958
		l16.36-4.9c0.912-0.254,1.572-1.585,1.622-3.132c0.225-4.88-2.682-11.944-7.101-15.402c-12.497-9.718-31.455-6.362-45.532-3.659
		c-22.602,4.384-50.325,13.35-74.151,25.155c-6.212,3.124-13.184,6.315-17.006,12.047c-6.58,9.82-24.968,38.235-32.042,47.825
		c-11.887,15.966-16.824,15.438-26.802,14.402c-1.49-0.166-1.669,0.03-2.425,1.274l-2.962,4.807
		c-0.998,1.635-0.913,1.916,0.484,2.52c18.909,8.247,35.401,8.184,49.648-13.185l29.831-44.802c4.42-6.65,11.729-10.615,17.26-12.51
		L55.49,204.465c-10.835,16.275-16.54,15.514-26.282,14.491c-2.226-0.254-2.256,0.136-3.201,1.683l-2.655,4.253
		c-0.83,1.329-1.288,1.836,1.076,2.833c20.227,8.487,36.207,6.036,49.44-13.962l52.226-79.025c2.74-4.181,9.306-7.49,15.547-8.813
		L78.21,220.914L78.21,220.914z"/>
	<path id="path530" d="M469.816,171.531l2.112-12.586h-10.985l-7.895,43.087h11.013l3.941-21.182
		c0.463-2.507,4.865-4.662,6.812-4.583c3.064,0.159,3.102,1.685,2.596,4.476l-3.919,21.316h10.68l4.288-23.797
		c0.434-2.35,0.637-4.657-0.339-6.689C484.914,164.864,475.717,165.442,469.816,171.531"/>
	<path id="path534" d="M519.905,169.424c-5.077-3.942-13.478-3.615-19.741,0.673c0,0-6.89,4.15-8.33,15.581
		c-0.752,6.009,0.172,12.061,5.508,14.975c4.733,2.589,11.783,2.529,17.486,0.507c1.279-0.433,2.315-0.787,3.579-1.606l1.375-7.178
		c0,0-7.738,3.086-13.372,1.547c-3.043-0.863-4.981-3.486-4.734-6.77l21.199,0.029C524.295,180.868,524.959,173.364,519.905,169.424
		 M503.355,179.721c0.369-2.134,2.596-4,3.634-4.479c0.986-0.433,3.25-0.968,5.108-0.064c1.236,0.608,2.197,2.618,1.964,4.543
		H503.355z"/>
	<path id="path538" d="M800.084,174.118c2.226-0.476,5.12-0.187,7.471,0.571c2.595,0.882,4.309,2.445,4.309,2.445l1.539-8.766
		c0,0-4.31-2.065-11.627-1.835c-8.474,0.267-12.523,4.771-13.657,6.68c-1.76,2.886-2.206,6.416-1.245,9.17
		c1.403,3.998,5.171,5.265,9.166,6.204c2.181,0.514,8.422,0.773,6.885,4.301c-0.66,1.533-2.717,1.983-5.415,2.048
		c-4.721,0.079-9.428-0.905-12.84-3.689l-1.455,8.099c0,0,1.751,1.395,4.448,2.264c2.665,0.846,8.055,1.343,11.193,0.809
		c3.11-0.556,6.975-1.504,10.216-4.614c1.814-1.696,3.968-5.595,3.752-9.261c-0.165-3.124-1.994-5.473-4.687-6.781
		c-3.399-1.648-7.599-1.513-10.582-3.543C795.919,177.118,796.085,174.956,800.084,174.118"/>
	<path id="path542" d="M454.357,167.476l-28.924-0.066l-1.589,8.662l12.415,0.035l-18.374,25.952l30.196-0.158l1.482-8.02
		l-13.868,0.085l18.662-26.492V167.476z"/>
	<path id="path546" d="M757.969,170.093c0,0-6.883,4.157-8.323,15.59c-0.752,6.002,0.16,12.053,5.511,14.969
		c4.751,2.588,11.764,2.53,17.469,0.504c1.296-0.425,2.346-0.787,3.592-1.605l1.375-7.178c0,0-7.707,3.085-13.37,1.547
		c-3.014-0.854-4.951-3.484-4.7-6.76l21.181,0.02c1.417-6.306,2.089-13.818-2.959-17.758
		C772.648,165.479,764.243,165.814,757.969,170.093 M761.135,179.725c0.412-2.14,2.639-4.005,3.688-4.482
		c0.982-0.433,3.208-0.963,5.067-0.067c1.28,0.617,2.236,2.626,1.99,4.55H761.135z"/>
	<path id="path550" d="M398.582,171.531l0.551-4.186h-10.956l-6.384,34.688h11.02l3.947-21.182c0.485-2.507,4.866-4.662,6.798-4.583
		c3.072,0.159,3.108,1.685,2.596,4.476l-3.935,21.316h10.717l4.266-23.797c0.419-2.35,0.659-4.657-0.318-6.689
		C413.673,164.864,404.461,165.442,398.582,171.531"/>
	<path id="path554" d="M326.814,171.531l2.112-12.586h-10.976l-7.918,43.087h11.033l3.935-21.182
		c0.484-2.507,4.874-4.662,6.811-4.583c3.058,0.159,3.117,1.685,2.597,4.476l-3.92,21.316h10.679l4.295-23.797
		c0.406-2.35,0.622-4.657-0.332-6.689C341.932,164.864,332.72,165.442,326.814,171.531"/>
	<path id="path558" d="M292.649,167.016c2.718-0.587,6.146-0.152,9.039,0.832c3.153,1.105,5.365,3.064,5.365,3.064l1.799-10.21
		c0,0-5.313-2.567-14.25-2.271c-10.406,0.318-15.314,5.864-16.719,8.18c-2.169,3.527-2.805,7.482-1.373,10.722
		c1.692,3.87,6.385,5.857,11.273,7.015c2.662,0.663,10.477,1.569,8.735,5.942c-0.76,1.903-3.486,3.101-6.811,3.161
		c-5.663,0.121-12.004-1.004-16.075-4.31l-1.778,9.484c6.71,5.048,20.592,5.512,28.851,0.719c4.996-2.877,7.57-7.846,7.303-12.966
		c-0.26-4.982-3.876-7.722-8.164-9.264c-3.637-1.316-8.084-1.996-11.012-4.193C286.965,171.533,287.21,168.099,292.649,167.016"/>
	<path id="path562" d="M357.148,170.093c0,0-6.883,4.157-8.322,15.59c-0.752,6.002,0.16,12.053,5.524,14.969
		c4.721,2.588,11.758,2.53,17.454,0.504c1.281-0.425,2.322-0.787,3.601-1.605l1.381-7.178c0,0-7.736,3.085-13.398,1.547
		c-3.015-0.854-4.953-3.484-4.721-6.76l21.2,0.02c1.432-6.306,2.069-13.818-2.964-17.758
		C371.804,165.479,363.41,165.814,357.148,170.093 M360.33,179.725c0.419-2.14,2.618-4.005,3.645-4.482
		c0.998-0.433,3.231-0.963,5.103-0.067c1.259,0.617,2.22,2.626,1.988,4.55H360.33z"/>
	<path id="path566" d="M541.569,171.531l0.557-4.186h-10.968l-6.365,34.688h11.017l3.961-21.182
		c0.471-2.507,4.857-4.662,6.809-4.583c3.047,0.159,3.118,1.685,2.583,4.476l-3.927,21.316h10.688l4.274-23.797
		c0.446-2.35,0.657-4.657-0.306-6.689C556.674,164.864,547.47,165.442,541.569,171.531"/>
	<path id="path570" d="M683.39,159.093l-7.888,42.966h10.391l7.89-42.966H683.39z"/>
	<path id="path574" d="M671.392,167.099c-3.228,0.824-5.379,2.885-7.188,5.829l-0.218,0.02l1.071-5.503h-9.935l-6.327,34.672
		l10.168-0.059l3.678-19.906c2.74-3.839,7.745-7.983,12.33-6.131l1.547-8.498C675.76,166.903,672.875,166.707,671.392,167.099"/>
	<path id="path578" d="M638.943,159.059l-1.533,8.394h10.381l1.547-8.394H638.943z"/>
	<path id="path582" d="M631.039,202.059h10.382l5.758-31.246h-10.414L631.039,202.059z"/>
	<path id="path586" d="M726.81,171.531l0.562-4.186h-10.968l-6.37,34.688h11.02l3.968-21.182c0.464-2.507,4.86-4.662,6.791-4.583
		c3.059,0.159,3.106,1.685,2.596,4.476l-3.92,21.316h10.672l4.305-23.797c0.412-2.35,0.621-4.657-0.354-6.689
		C741.926,164.864,732.714,165.442,726.81,171.531"/>
	<path id="path590" d="M700.683,159.059l-1.526,8.394h10.385l1.534-8.394H700.683z"/>
	<path id="path594" d="M692.793,202.059h10.377l5.762-31.246h-10.404L692.793,202.059z"/>
	<path id="path598" d="M602.458,158.976l-22.041,43.079h12.068l4.062-8.136h15.612l1.084,8.136h11.558l-5.958-43.079H602.458z
		 M600.6,185.39l8.886-18.318l1.764,18.318H600.6z"/>
	<path id="path602" d="M341.071,52.338h7.636l-1.881,9.596c-2.443,9.789-13.839,13.565-24.121,16.124l4.281,7.448
		c16.109-3.81,30.188-8.357,32.957-23.443l1.858-9.725h8.301l-3.544,18.756c-1.17,5.96,2.611,10.393,9.661,10.393h8.72
		c9.148,0,13.812-4.869,17.745-11.078L391.1,65.472l-2.299,4.395c-0.968,1.856-1.851,3.139-4.194,3.139h-1.496
		c-2.033,0-2.943-1.07-2.675-2.719l3.506-17.948h7.383l-1.823,9.581h13.985l3.304-17.223l0.086-0.428h-77.99l-0.087,0.428
		l-3.232,17.223l13.622-0.035L341.071,52.338z"/>
	<path id="path606" d="M507.246,120.7l14.113-75.2h-14.354l-14.137,75.2H507.246L507.246,120.7z"/>
	<path id="path610" d="M421.319,113.633l3.796,10.768l37.276-12.878l1.612-8.856l-8.171,2.065l5.076-27.192h10.602l1.552-8.303
		h-10.598l4.547-24.54l0.211-1.207h-14.377l-0.224,1.207l-4.489,24.54h-14.303l-1.583,8.448h14.274l-5.764,30.829L421.319,113.633
		L421.319,113.633z"/>
	<path id="path614" d="M754.394,73.798l2.703-12.127h-15.937l-2.076,9.148c-1.959,8.624-16.226,12.232-30.969,13.211l3.152,7.301
		C725.622,90.795,750.648,90.268,754.394,73.798"/>
	<path id="path618" d="M810.149,122.496h-47.987l3.445-18.353h34.875l1.713-9.719h-85.842l-1.704,9.719h34.091l-3.393,18.353h-44.33
		l-1.778,9.645h109.083L810.149,122.496z"/>
	<path id="path622" d="M685.583,53.06h-23.231l2.665-8.365l1.259-3.949l-14.887-1.979l-0.653,5.929l-0.914,8.365H628.66
		l-1.524,8.229h56.884L685.583,53.06z"/>
	<path id="path626" d="M527.852,133.726l16.329-89.031l0.664-3.601h-14.351l-0.659,3.601l-16.372,89.031H527.852z"/>
	<path id="path630" d="M400.547,89.663h-34.635l1.613-8.257h-13.956l-1.553,8.257h-32.669l-1.555,8.129h27.708
		c-9.161,9.654-21.004,18.425-35.467,25.523l4.504,8.062c13.154-6.051,25.953-14.562,34.42-23.145l-4.947,25.249h13.934
		l4.607-25.734c6.349,8.354,17.758,18.025,28.243,24.064l6.956-7.57c-10.889-5.864-23.622-17.403-28.555-26.45h29.834
		L400.547,89.663z"/>
	<path id="path634" d="M647.577,74.85h9.523l-8.982,48.142c-0.477,5.106,2.468,8.866,8.715,9.27h10.585
		c5.771-0.477,9.075-3.34,10.826-7.926l3.287-11.136l-11.104-3.962l-2.315,12.741c-0.57,3.08-6.499,3.08-5.942-0.052l10.434-55.697
		h-37.708l-7.781,41.381c-2.039,10.86-4.555,16.263-13.912,21.483l6.53,5.067c13.565-4.599,19.883-17.035,22.135-28.887
		L647.577,74.85z"/>
	<path id="path638" d="M798.652,77.149c-1.194,2.558-3.475,4.482-6.271,4.482h-5.538c-3.174,0-4.513-2.039-4.007-4.482l3.129-15.345
		H770.73l-3.441,17.074c-1.236,6.157,1.691,10.976,9.577,10.976h18.023c10.06,0,14.969-5.678,18.81-13.212l-12.098-5.821
		L798.652,77.149z"/>
	<path id="path642" d="M773.697,48.545l1.135-3.853l1.873-6.537l-16.097-2.061l-0.582,8.598l-0.258,3.853h-43.693l-3.935,20.593
		h14.874l2.393-12.685h73.741l-1.873,11.074h14.809l3.607-18.982H773.697z"/>
	<path id="path646" d="M587.411,94.324l4.287-0.49l-3.746,19.948l9.688,0.123l3.964-21.222l4.301-0.448l-5.262,28.272
		c-1.224,6.326-13.318,2.565-18.194,2.061l1.644,9.964h12.922c10.047,0,14.728-5.285,16.139-12.496l5.508-29.465l7.403-0.803
		l1.448-7.866l-7.326,0.447l5.8-30.941h-21.944l4.815-6.716l2.508-3.521l-14.381-3.92l-3.075,7.44l-2.789,6.716h-8.583
		l-6.357,33.978l-9.839,0.701l-2.061,11.049l9.935-1.169l-2.018,10.7c-1.691,9.038-7.649,17.507-15.374,22.529l7.245,4.527
		c11.533-7.281,19.327-18.214,22.416-34.527L587.411,94.324L587.411,94.324z M593.853,59.804h18.127l-4.367,23.471l-4.317,0.319
		l3.841-20.244l-9.697-0.022l-3.948,20.853l-4.236,0.267L593.853,59.804z"/>
	<path id="path650" d="M323.663,50.868c-4.917-2.522-9.276-4.496-14.136-6.174c-2.394-0.817-4.88-1.569-7.613-2.292l-1.143,2.292
		l-2.494,5.091c7.246,3.427,11.322,6.921,16.731,12.076L323.663,50.868L323.663,50.868z"/>
	<path id="path654" d="M483.594,45.504l-9.414,50.007c-3.088,16.5-9.285,23.348-25.533,33.847l10.095,3.934
		c19.943-13.76,27.194-22.211,31.454-44.874l8.12-42.914H483.594L483.594,45.504z"/>
	<path id="path658" d="M317.695,77.593c-7.303-3.756-15.408-7.058-23.724-9.242l-3.363,7.368
		c7.247,3.441,13.015,7.665,18.431,12.871L317.695,77.593L317.695,77.593z"/>
	<path id="path662" d="M313.344,99.484l-7.419-5.248l-23.615,29.596l11.099,8.258L313.344,99.484z"/>
</g>
</svg>
