<?xml version="1.0" encoding="utf-8"?>
<!-- Generator: Adobe Illustrator 22.1.0, SVG Export Plug-In . SVG Version: 6.00 Build 0)  -->
<svg version="1.1" id="Слой_1" xmlns="http://www.w3.org/2000/svg" xmlns:xlink="http://www.w3.org/1999/xlink" x="0px" y="0px"
	 width="825px" height="272px" viewBox="0 0 825 272" style="enable-background:new 0 0 825 272;" xml:space="preserve">
<style type="text/css">
	.st0{fill:#264377;}
	.st1{fill:#F7BD13;}
	.st2{fill:#FCFCFD;}
	.st3{enable-background:new    ;}
	.st4{clip-path:url(#SVGID_2_);}
	.st5{clip-path:url(#SVGID_7_);}
	.st6{clip-path:url(#SVGID_8_);}
	.st7{clip-path:url(#SVGID_9_);}
	.st8{clip-path:url(#SVGID_10_);fill:#4769A1;}
	.st9{clip-path:url(#SVGID_10_);fill:#486AA2;}
	.st10{clip-path:url(#SVGID_10_);fill:#486BA3;}
	.st11{clip-path:url(#SVGID_10_);fill:#496CA3;}
	.st12{clip-path:url(#SVGID_12_);fill:url(#SVGID_13_);}
	.st13{clip-path:url(#SVGID_12_);fill:url(#SVGID_14_);}
	.st14{clip-path:url(#SVGID_12_);fill:url(#SVGID_15_);}
	.st15{clip-path:url(#SVGID_12_);fill:url(#SVGID_16_);}
	.st16{clip-path:url(#SVGID_12_);fill:url(#SVGID_17_);}
	.st17{clip-path:url(#SVGID_12_);fill:url(#SVGID_18_);}
	.st18{clip-path:url(#SVGID_12_);fill:url(#SVGID_19_);}
	.st19{clip-path:url(#SVGID_12_);fill:url(#SVGID_20_);}
	.st20{clip-path:url(#SVGID_12_);fill:url(#SVGID_21_);}
	.st21{clip-path:url(#SVGID_12_);fill:url(#SVGID_22_);}
	.st22{clip-path:url(#SVGID_12_);fill:url(#SVGID_23_);}
	.st23{clip-path:url(#SVGID_12_);fill:url(#SVGID_24_);}
	.st24{clip-path:url(#SVGID_12_);fill:url(#SVGID_25_);}
	.st25{clip-path:url(#SVGID_12_);fill:url(#SVGID_26_);}
	.st26{clip-path:url(#SVGID_12_);fill:url(#SVGID_27_);}
	.st27{clip-path:url(#SVGID_12_);fill:url(#SVGID_28_);}
	.st28{clip-path:url(#SVGID_12_);fill:url(#SVGID_29_);}
	.st29{clip-path:url(#SVGID_12_);fill:url(#SVGID_30_);}
	.st30{clip-path:url(#SVGID_12_);fill:url(#SVGID_31_);}
	.st31{clip-path:url(#SVGID_12_);fill:url(#SVGID_32_);}
	.st32{clip-path:url(#SVGID_12_);fill:url(#SVGID_33_);}
	.st33{clip-path:url(#SVGID_12_);fill:url(#SVGID_34_);}
	.st34{clip-path:url(#SVGID_12_);fill:url(#SVGID_35_);}
	.st35{clip-path:url(#SVGID_12_);fill:url(#SVGID_36_);}
	.st36{clip-path:url(#SVGID_12_);fill:url(#SVGID_37_);}
	.st37{clip-path:url(#SVGID_12_);fill:url(#SVGID_38_);}
	.st38{clip-path:url(#SVGID_12_);fill:url(#SVGID_39_);}
	.st39{clip-path:url(#SVGID_12_);fill:url(#SVGID_40_);}
	.st40{clip-path:url(#SVGID_12_);fill:url(#SVGID_41_);}
	.st41{clip-path:url(#SVGID_12_);fill:url(#SVGID_42_);}
	.st42{clip-path:url(#SVGID_12_);fill:url(#SVGID_43_);}
	.st43{clip-path:url(#SVGID_12_);fill:url(#SVGID_44_);}
	.st44{clip-path:url(#SVGID_12_);fill:url(#SVGID_45_);}
	.st45{clip-path:url(#SVGID_12_);fill:url(#SVGID_46_);}
	.st46{clip-path:url(#SVGID_12_);fill:url(#SVGID_47_);}
	.st47{clip-path:url(#SVGID_12_);fill:url(#SVGID_48_);}
</style>
<g>
	<rect class="st0" width="825" height="238"/>
	<rect y="238" class="st1" width="825" height="34"/>
	<g>
		<path class="st2" d="M590.5,113.1c0-2.5,0-4.5,0-6.9c-14.5,0-28.9,0-43.4,0c0-5.2,0-10.1,0-15.1c0.6-0.1,1.2-0.2,1.7-0.2
			c14.7,0,29.3-0.1,44,0.1c2.4,0,5,0.7,7.1,1.9c3.4,1.9,5.4,5.2,5.7,9.3c0.1,1.3,0.2,2.5,0.2,3.8c0,13.4,0,26.7,0,40.1
			c0,1.3,0,2.5,0,3.9c-1.3,0.1-2.3,0.2-3.3,0.2c-13.8,0-27.7,0-41.5,0c-8.8,0-13.9-5.1-13.9-13.8c0-3.7-0.1-7.3,0-11
			c0.2-7.1,5.3-12.3,12.4-12.4c9.1-0.1,18,0,27.1,0C587.5,113.1,588.8,113.1,590.5,113.1z M562,134.9c9.7,0,19.1,0,28.4,0
			c0-2.3,0-4.4,0-6.5c-9.6,0-19,0-28.4,0C562,130.7,562,132.7,562,134.9z"/>
		<path class="st2" d="M57,150.3c0,3.5,0,6.4,0,9.4c0,2.8,0,5.7,0,8.8c-5,0-9.9,0-14.9,0c0-25.7,0-51.4,0-77.3
			c0.5-0.1,1-0.2,1.6-0.2c14.7,0,29.3-0.1,44,0c6.3,0,10.7,3,12.4,8.4c0.5,1.6,0.7,3.4,0.7,5c0.1,10.9,0.1,21.7,0,32.6
			c-0.2,8-5.6,13.2-13.6,13.2c-8.8,0-17.6,0-26.4,0C59.6,150.3,58.5,150.3,57,150.3z M57.2,106.2c0,9.7,0,19.2,0,28.7
			c9.5,0,18.9,0,28.3,0c0-9.6,0-19.1,0-28.7C76,106.2,66.6,106.2,57.2,106.2z"/>
		<path class="st2" d="M331.4,150.3c-5.4,0-10.7,0-16.1,0c-8.2-0.1-12.8-4.5-13-12.6c-0.2-11.2-0.1-22.4,0-33.6
			c0.1-6.9,5.7-13.1,13.1-13c10.9,0.2,21.7,0.2,32.6,0c6.6-0.1,13,5.1,13.1,12.6c0.2,11.5,0.3,23.1,0,34.7
			c-0.2,8-4.9,11.9-12.8,12.1c-0.2,0-0.5,0-0.6,0C342.2,150.3,336.8,150.3,331.4,150.3z M317.7,106.2c0,9.7,0,19.2,0,28.7
			c9.6,0,19,0,28.3,0c0-9.6,0-19.1,0-28.7C336.4,106.2,327,106.2,317.7,106.2z"/>
		<path class="st2" d="M678.9,91.2c0,2.6,0.2,4.9-0.1,7.2c-0.1,1.1-1.1,2.2-1.9,3.1c-9.5,10.2-19.1,20.3-28.8,30.4
			c-0.8,0.8-1.6,1.6-2.7,3c11.4,0,22.3,0,33.2,0c0,5.2,0,10.1,0,15.1c-19.3,0-38.7,0-58.4,0c0-2.5-0.2-5.1,0.1-7.6
			c0.1-1,1.1-1.9,1.8-2.7c9.5-10.2,19.1-20.3,28.7-30.5c0.7-0.8,1.6-1.6,2.7-3c-11.4,0-22.1,0-33.1,0c0-5.2,0-10.1,0-15.1
			C639.7,91.2,659.1,91.2,678.9,91.2z"/>
		<path class="st2" d="M116.5,91.1c5.2,0,10,0,15,0c0,14.7,0,29.1,0,43.8c9.6,0,19,0,28.6,0c0-14.5,0-28.9,0-43.7c5.1,0,10,0,15,0
			c0.1,0.9,0.2,1.9,0.2,2.9c0,14.1,0,28.1,0,42.2c0,9-4.9,13.9-14,13.9c-10.5,0-21.1,0.1-31.6,0c-7.5,0-12.9-4.9-13-12.2
			c-0.3-14.4-0.1-28.9-0.2-43.2C116.5,93.7,116.5,92.6,116.5,91.1z"/>
		<path class="st2" d="M693.6,91.1c4.9,0,9.6,0,14.7,0c0,14.7,0,29.1,0,43.8c9.6,0,19,0,28.7,0c0-14.5,0-29,0-43.8
			c5.2,0,9.9,0,15.1,0c0,1.3,0,2.4,0,3.5c0,13.5,0,27,0,40.5c0,2-0.1,4.1-0.5,6.1c-1.3,5.2-6,9-11.6,9c-11.4,0.1-22.9,0.2-34.3,0
			c-6.7-0.1-12.2-5.3-12.3-11.9c-0.2-15.6,0-31.1,0-46.7C693.2,91.5,693.3,91.5,693.6,91.1z"/>
		<path class="st2" d="M191.2,91.1c1.1-0.1,2.1-0.1,3.1-0.1c12.8,0,25.6,0,38.5,0c1.5,0,3,0,4.5,0.2c5.1,0.6,9,4.5,9.5,9.7
			c0.1,1,0.2,2,0.2,3.1c0,14.8,0,29.8,0,44.6c0,0.5-0.1,0.9-0.2,1.6c-4.9,0-9.5,0-14.7,0c0-14.6,0-29.1,0-43.9c-8.8,0-17.2,0-25.9,0
			c0,14.7,0,29.1,0,43.8c-5.1,0-9.9,0-15,0C191.2,130.5,191.2,110.9,191.2,91.1z"/>
		<path class="st2" d="M289.1,150.3c-4.8,0-9.3,0.2-13.6,0c-6.1-0.3-11-4.8-11.9-10.8c-0.2-1.1-0.3-2.3-0.3-3.4
			c0-19.4,0-38.9,0-58.3c0-0.6,0.1-1.4,0.1-2.2c5,0,9.9,0,15.1,0c0,5.1,0,10.1,0,15.4c3.8,0,7.1,0,10.6,0c0,5.1,0,9.9,0,15.1
			c-3.5,0-7,0-10.5,0c0,9.9,0,19.3,0,29c3.6,0,7,0,10.5,0C289.1,140.2,289.1,145,289.1,150.3z"/>
		<path class="st2" d="M782.9,150.2c-5,0-9.8,0-14.7,0c0-25,0-49.7,0-74.8c4.9,0,9.6,0,14.7,0C782.9,100.1,782.9,125,782.9,150.2z"
			/>
		<g class="st3">
			<defs>
				<path id="SVGID_1_" class="st3" d="M373.8,134.6c-1.5-6.6-1.7-15.7-1.5-19.5c0.7-8.1,0.7-8.1,1.6-12.5c1.4-6.7,3.5-11.8,3.6-12
					c0.7-1.7,1.6-3.9,2.4-5.6c0.8-1.7,2-4,2.9-5.7c0.9-1.6,2.2-3.7,3.2-5.1c1.1-1.6,2.7-3.8,3.9-5.2c2.1-2.7,5.3-6,7.9-8.4
					c2.5-2.3,6-5,8.8-7.1c-23.5,16.3-36.3,46.1-30,77.4c8.5,42.9,49.1,72.3,90.8,65.8c-41.7,6.5-82.3-23-90.8-65.8
					c-6.2-31.3,6.5-61.1,30-77.4c1.8-1.2,4.3-2.7,6.1-3.8c1.3-0.7,2.9-1.6,4.3-2.2c5.5-2.7,9.6-3.9,11.6-4.6c3.1-1,7.1-1.8,7.5-1.9
					l0,0c0.5-0.1,1.1-0.2,1.6-0.4c1.3-0.2,1.9-0.4,2-0.4c3.7-0.5,7.5-0.8,11.9-0.9c5.6-0.1,9.3,0.5,11.8,0.8
					c5.1,0.7,10.5,2.3,10.5,2.3c1.9,0.5,6,1.7,11.2,4.2c3.2,1.5,7.4,3.8,10.4,5.8c1.5,1,5.5,3.7,9.8,7.6c1.4,1.3,3.2,3,4.5,4.4
					c1.3,1.4,2.8,3.2,4,4.7c3,3.5,8.1,11.4,10.1,16c3,7,3,7,4.5,12.1c0.9,3.1,1.8,7.3,2.3,10.6c0.5,3.8,0.9,9,0.8,12.8
					c-0.1,7-1.2,12.2-1.3,12.8c-0.7,3.7-1.9,8.4-3.1,11.9c-0.6,1.8-1.6,4.1-2.3,5.9c-0.7,1.6-1.8,3.8-2.7,5.5
					c-0.8,1.7-2.2,3.9-3.3,5.5c-1,1.6-2.4,3.5-3.5,4.9c-1.1,1.6-2.8,3.7-4.2,5.1c-1.2,1.3-2.8,3-4.1,4.3c-1.6,1.5-3.8,3.5-5.5,4.9
					c-1.3,1-3.1,2.4-4.5,3.3c-1.8,1.2-4.3,2.7-6.1,3.8c-1.1,0.6-2.7,1.5-3.8,2c-0.9,0.5-2.1,1-3,1.5c-1.3,0.5-3.2,1.4-4.5,1.8
					c-0.8,0.3-4.9,1.8-10.3,3c-5,1.1-8.6,1.5-10.4,1.6c-4.8,0.4-9.3,0.4-11,0.3c-2-0.1-2.9-0.2-6.3-0.5c-1.4-0.2-3.1-0.5-4.4-0.7
					c-1.7-0.4-4.1-0.9-5.9-1.4c-1.6-0.5-3.8-1-5.3-1.6c-1.7-0.6-4.1-1.6-5.9-2.3c-1.6-0.7-3.8-1.7-5.3-2.6
					c-1.2-0.6-5.6-2.9-10.4-6.6c-7-5.2-12.7-11.2-17.3-17.7c-1.1-1.6-2.6-3.7-3.5-5.3c-1.8-3.3-4.1-7.8-5.6-11.3
					c-1-2.3-1.9-5.4-2.7-7.8C374.9,139,374.3,136.5,373.8,134.6z"/>
			</defs>
			<clipPath id="SVGID_2_">
				<use xlink:href="#SVGID_1_"  style="overflow:visible;"/>
			</clipPath>
			<g class="st4">
				<defs>
					<path id="SVGID_3_" d="M378.9,87.2c0.9-2,8.9-16.4,16-23.9l-0.9,0.9c-5.1,5.9-5.3,6.1-7.9,9.8c-4.3,6.8-4.3,6.9-6.2,10.8
						L378.9,87.2L378.9,87.2"/>
				</defs>
				<defs>
					<path id="SVGID_4_" d="M378.9,87.2c0.9-2,8.9-16.4,16-23.9l-0.9,0.9c-5.1,5.9-5.3,6.1-7.9,9.8c-4.3,6.8-4.3,6.9-6.2,10.8
						L378.9,87.2L378.9,87.2"/>
				</defs>
				<defs>
					<path id="SVGID_5_" d="M378.9,87.2c0.9-2,8.9-16.4,16-23.9l-0.9,0.9c-5.1,5.9-5.3,6.1-7.9,9.8c-4.3,6.8-4.3,6.9-6.2,10.8
						L378.9,87.2L378.9,87.2"/>
				</defs>
				<defs>
					<path id="SVGID_6_" d="M378.9,87.2c0.9-2,8.9-16.4,16-23.9l-0.9,0.9c-5.1,5.9-5.3,6.1-7.9,9.8c-4.3,6.8-4.3,6.9-6.2,10.8
						L378.9,87.2L378.9,87.2"/>
				</defs>
				<clipPath id="SVGID_7_">
					<use xlink:href="#SVGID_3_"  style="overflow:visible;"/>
				</clipPath>
				<clipPath id="SVGID_8_" class="st5">
					<use xlink:href="#SVGID_4_"  style="overflow:visible;"/>
				</clipPath>
				<clipPath id="SVGID_9_" class="st6">
					<use xlink:href="#SVGID_5_"  style="overflow:visible;"/>
				</clipPath>
				<clipPath id="SVGID_10_" class="st7">
					<use xlink:href="#SVGID_6_"  style="overflow:visible;"/>
				</clipPath>
				<path class="st8" d="M383.2,79.6c2.2-3.6,3.7-5.9,4.9-7.6c1.8-2.6,3.2-4.4,4.8-6.3C387.4,72.4,387.3,72.6,383.2,79.6"/>
				<path class="st9" d="M380.8,83.7c5.3-9.3,6.1-10.8,12-18c0.9-1,1.4-1.6,2.1-2.4l0,0C390,68.9,385.7,73.8,380.8,83.7"/>
				<path class="st10" d="M379.5,86.1c4.9-9.3,7.9-14.8,15.4-22.6l-0.9,0.9c-2.1,2.4-4.8,5.7-6.8,8.2
					C382.8,79.4,382.5,79.7,379.5,86.1"/>
				<path class="st11" d="M379,87.2c2.3-5,4.1-8.5,8.3-14.7l-1.1,1.6c-4.3,6.8-4.3,6.9-6.2,10.8L379,87.2
					C378.9,87.2,379,87.2,379,87.2"/>
			</g>
			<g class="st4">
				<defs>
					<path id="SVGID_11_" d="M464.3,197.9c-5,0.7-9.5,0.9-11.3,0.9c-5.7,0.1-8.8-0.3-11.3-0.6c-4.2-0.5-8.2-1.5-8.9-1.6
						c-1.6-0.5-3.8-1-5.4-1.6c-2-0.6-4.8-1.6-6.8-2.6c-1.6-0.7-3.8-1.7-5.4-2.6c-1.7-0.9-4-2.2-5.8-3.3c-3.5-2.2-6.9-4.7-10-7.4
						s-6.1-5.8-8.7-8.9c-4.2-5-6.8-9.3-7.3-10.2c-1.6-2.7-3.6-6.1-5.7-11.4c-1.5-3.6-2.8-8.6-3.8-12.4c-0.6-2.5-1.2-5.8-1.4-8.3
						c-0.5-5.1-0.7-8.4-0.5-12.9c0.1-1.9,0.3-4.4,0.5-6.2c0.3-1.9,0.6-4.4,1.1-6.2c1.2-5.8,2.8-10.3,3.5-12
						c2-5.3,5.8-13.3,12.3-21.4c3.3-4.1,6.1-7,8.3-8.9c2.5-2.3,6-4.9,8.7-7c8.6-6,18.8-10.2,30-11.9c-11.2,1.7-21.3,5.9-30,11.9l0,0
						c1.1-0.7,2.6-1.7,3.8-2.5c1.8-1.1,4.3-2.5,6.2-3.5c1.6-0.7,3.7-1.7,5.2-2.4c2.9-1.2,5.1-1.9,5.5-2c1.6-0.5,2.6-0.8,4.5-1.3
						c2.2-0.5,4.2-1,4.3-1c0.3,0,0.5-0.1,0.8-0.2c0.3-0.1,0.6-0.1,0.8-0.2c1.1-0.2,1.8-0.3,1.8-0.3c1.9-0.3,2.2-0.3,4.4-0.5
						c0.9-0.1,3.5-0.3,7.4-0.4c2.1,0,4.7,0.1,6,0.2c0.6,0.1,1.6,0.1,2.2,0.2c1.4,0.2,3.2,0.4,4.6,0.5c2.6,0.4,6,1.1,8.5,1.8
						c3.6,1,6.7,1.9,12,4.3c3.3,1.5,7.4,3.8,10.4,5.7c1.6,1.1,3.9,2.6,5.4,3.8c1.5,1.2,3.5,2.8,4.9,4.1c1.4,1.2,3.2,2.9,4.4,4.3
						c1.3,1.5,3,3.3,4.2,4.8c1.2,1.5,2.7,3.4,3.7,4.9c4,6,6.3,10.9,6.3,11c0.7,1.7,1.8,4.1,2.6,6c0.6,1.8,1.5,4.2,2,6.1
						c1.5,5.2,2,8.7,2.6,12.9c0.5,3.1,0.6,7.4,0.5,10.5c-0.2,5-0.5,9.3-1.3,12.6c-0.7,3.7-1.9,8.4-3.1,11.9c-2,5.8-4.2,10-4.9,11.4
						c-3.8,7.1-8.8,13.8-14.7,19.6c-8.2,8-15.8,12.2-20.4,14.5c-3.3,1.6-7.3,3.3-10.7,4.4c-1.5,0.5-3.3,1-6.3,1.7
						C468.3,197.2,465.8,197.6,464.3,197.9z"/>
				</defs>
				<clipPath id="SVGID_12_">
					<use xlink:href="#SVGID_11_"  style="overflow:visible;"/>
				</clipPath>
				
					<linearGradient id="SVGID_13_" gradientUnits="userSpaceOnUse" x1="333.8989" y1="81.6599" x2="503.6503" y2="162.2613" gradientTransform="matrix(1 0 0 -1 0 182)">
					<stop  offset="0" style="stop-color:#45659E"/>
					<stop  offset="1" style="stop-color:#6DB2D9"/>
				</linearGradient>
				<path class="st12" d="M378.8,87.7C378.8,87.7,378.8,87.6,378.8,87.7C378.9,87.6,378.9,87.6,378.8,87.7
					C378.9,87.6,378.9,87.6,378.8,87.7C378.9,87.6,378.9,87.6,378.8,87.7c0.2-0.2,0.2-0.2,0.4-0.4c2.7-3.2,4.6-7.1,6.9-10.5
					c0,0,0-0.1,0.1-0.1c0.2-0.4,0.5-0.7,0.7-1.1c0.1-0.1,0.2-0.3,0.3-0.4c2.8-4.1,4.5-6.5,7.5-10.5c0.9-1.2,1.3-1.7,1.6-2.1
					c0-0.1,0.1-0.1,0.1-0.2l0,0c0-0.1,0.1-0.1,0.1-0.2c0.1-0.1,0.1-0.2,0.2-0.2V62c-0.1,0-0.1,0-0.1,0l0,0l0,0
					c-0.1,0-0.1,0.1-0.3,0.2c-0.1,0.1-0.1,0.1-0.2,0.2l0,0l-0.1,0.1l-0.1,0.1l-0.1,0.1l-0.1,0.1l-0.1,0.1c-0.1,0.1-0.1,0.1-0.2,0.2
					l-0.1,0.1l-0.1,0.1l-0.9,0.9c-1.6,1.6-2.4,2.6-3.4,3.8c-1.1,1.3-1.8,2.3-3.4,4.4l-1.1,1.6c-1.2,1.8-1.8,2.7-2.7,4.1
					c-3.2,5.3-4.7,9.1-4.8,9.3L378.8,87.7z"/>
				
					<linearGradient id="SVGID_14_" gradientUnits="userSpaceOnUse" x1="335.9678" y1="77.3026" x2="505.7192" y2="157.904" gradientTransform="matrix(1 0 0 -1 0 182)">
					<stop  offset="0" style="stop-color:#45659E"/>
					<stop  offset="1" style="stop-color:#6DB2D9"/>
				</linearGradient>
				<path class="st13" d="M383.7,87.1c-0.1,0.5,0,0.8,0.1,1.4c0,0.1,0.1,0.3,0.1,0.4c0,0.1,0,0.1,0.1,0.2l0,0c0,0.1,0.1,0.2,0.1,0.3
					c0,0,0,0.1,0.1,0.1c0.1,0.5,0.4,0.6,0.6,0.9c0.2,0.2,0.5,0.3,0.9,0.4c0.2,0,0.2,0,0.4,0c0.6-0.1,1-0.2,1.7-0.5
					c0.5-0.3,0.8-0.5,1.3-0.9c0.1-0.1,0.2-0.2,0.3-0.3c0,0,0,0,0.1-0.1c0.8-0.6,1.7-1.6,2.7-2.7c0.1-0.1,0.1-0.2,0.2-0.2
					c0.1-0.1,0.2-0.2,0.3-0.3c0.2-0.2,0.3-0.4,0.5-0.5c1.9-2.7,3.6-5.4,4.8-7.9c0.1-0.1,0.1-0.2,0.2-0.4c0,0,0.2-0.5,0.5-1.1
					c0.6-1.4,1.1-2.6,1.6-3.6c0.4-0.9,0.7-1.9,1-2.8l0,0l0,0c0.1-0.2,0.1-0.4,0.2-0.6c0-0.1,0.1-0.2,0.1-0.3
					c0.2-0.5,0.3-1.2,0.4-1.6c0-0.2,0.1-0.3,0.1-0.3l0,0c0-0.1,0-0.1,0-0.1c0.2-0.5,0.2-0.7,0-1.4l0,0l0,0l0,0
					c-0.1-0.2-0.1-0.3-0.3-0.4l0,0l-0.1-0.1c0,0,0,0-0.1-0.1c0,0,0,0-0.1,0c0,0,0,0-0.1,0l0,0l0,0l0,0h-0.1
					C397,63,384,78.7,383.7,87.1z"/>
				
					<linearGradient id="SVGID_15_" gradientUnits="userSpaceOnUse" x1="401.6921" y1="117.1057" x2="401.6921" y2="117.1057" gradientTransform="matrix(1 0 0 -1 0 182)">
					<stop  offset="0" style="stop-color:#45659E"/>
					<stop  offset="1" style="stop-color:#6DB2D9"/>
				</linearGradient>
				<path class="st14" d="M401.7,64.9L401.7,64.9L401.7,64.9z"/>
				
					<linearGradient id="SVGID_16_" gradientUnits="userSpaceOnUse" x1="339.0034" y1="70.9098" x2="508.7547" y2="151.5111" gradientTransform="matrix(1 0 0 -1 0 182)">
					<stop  offset="0" style="stop-color:#45659E"/>
					<stop  offset="1" style="stop-color:#6DB2D9"/>
				</linearGradient>
				<path class="st15" d="M400.8,82.8c0,0.7,0.1,1.6,0.3,2.2c0.1,1.1,0.5,1.7,1.2,2.5c0,0.1,0.1,0.1,0.1,0.2l0.1,0.1
					c0.5,0.5,1.1,0.9,1.8,1.2c0.8,0.3,1.5,0.4,2.5,0.4c0.1,0,0.2,0,0.4,0c0.8-0.1,1.6-0.3,2.4-0.6c1.1-0.5,1.9-0.9,2.9-1.6
					c1.2-0.9,2.1-1.8,3.2-3.1c2.1-2.8,3.4-5.8,3.9-8.6c0-0.1,0.1-0.3,0.1-0.4l0,0c0.5-3,0.3-5.8-0.5-7.7c-0.1-0.2-0.3-0.6-0.6-1.1
					l0,0c-0.1-0.2-0.2-0.3-0.4-0.5l0,0c-0.1-0.1-0.1-0.2-0.2-0.3l0,0l0,0l0,0c-0.1-0.1-0.1-0.1-0.2-0.2l0,0
					c-0.3-0.3-0.5-0.5-0.9-0.5c0,0-0.1,0-0.1-0.1c-0.1,0-0.2-0.1-0.3-0.1l0,0l0,0l0,0h-0.1l0,0l0,0c-0.1,0-0.3-0.1-0.5-0.1
					c-0.1,0-0.2,0-0.2,0c-0.1,0-0.1,0-0.2,0c-2.2,0-4.9,1.6-7.3,4.1c-0.1,0.1-0.2,0.2-0.3,0.3l-0.1,0.1c-0.2,0.2-0.4,0.4-0.5,0.5
					c0,0,0,0,0,0.1l0,0c0,0,0,0,0-0.1c-2.1,2.4-3.6,4.6-4.8,7.3C401.2,79,400.8,80.8,400.8,82.8z"/>
				
					<linearGradient id="SVGID_17_" gradientUnits="userSpaceOnUse" x1="342.3573" y1="63.846" x2="512.1088" y2="144.4474" gradientTransform="matrix(1 0 0 -1 0 182)">
					<stop  offset="0" style="stop-color:#45659E"/>
					<stop  offset="1" style="stop-color:#6DB2D9"/>
				</linearGradient>
				<path class="st16" d="M429.3,80.6c0.4,0.5,0.8,0.9,1.3,1.3c0,0,0,0,0.1,0.1c0.1,0.1,0.2,0.1,0.2,0.2c0.1,0.1,0.2,0.2,0.4,0.3
					c0.1,0,0.1,0.1,0.2,0.1c0.1,0.1,0.2,0.1,0.3,0.2c0.1,0.1,0.3,0.2,0.5,0.3c0.1,0.1,0.3,0.2,0.5,0.2c0.1,0,0.2,0.1,0.3,0.1
					c0.4,0.2,0.8,0.4,1.3,0.5c1.1,0.4,2.1,0.5,3.3,0.4c0.6,0,1-0.1,1.6-0.2c0.6-0.1,1-0.2,1.6-0.4c1.2-0.4,2-0.8,3-1.6
					c1.1-0.8,1.9-1.6,2.7-2.8c0,0,0,0,0-0.1l0,0c0,0,0,0,0,0.1c1.1-1.7,1.6-3.5,1.7-5.6c0-0.1-0.1-0.2-0.1-0.3l0,0
					c0,0.1,0.1,0.2,0.1,0.3c0-1.2-0.1-2.4-0.5-3.6l0,0v-0.1c-0.1-0.3-0.2-0.5-0.3-0.7V69c-0.3-0.7-0.6-1.5-1.1-2.2v0.1
					c-0.2-0.3-0.3-0.5-0.5-0.6c-0.7-1.5-1.5-2-3.1-3.2c0,0-1-0.8-2.7-1.3l0,0l0,0l0,0c-0.8-0.3-1.5-0.4-2.4-0.3l0,0l0,0l0,0
					c-0.2,0-0.6,0-1.1,0.1l0,0c-0.3,0.1-0.5,0.1-0.6,0.2c-0.1,0-0.1,0-0.2,0.1c-0.1,0-0.2,0.1-0.3,0.1l0,0l0,0l0,0h-0.1
					c-2.8,1-5.2,3.6-6.6,6.6c-0.3,0.5-0.5,1.1-0.7,1.6c-0.5,1.3-0.6,2.3-0.7,3.6c-0.1,1.3,0.1,2.4,0.4,3.6
					C427.7,77.9,428.1,79.2,429.3,80.6z"/>
				
					<linearGradient id="SVGID_18_" gradientUnits="userSpaceOnUse" x1="344.8951" y1="58.5013" x2="514.6465" y2="139.1026" gradientTransform="matrix(1 0 0 -1 0 182)">
					<stop  offset="0" style="stop-color:#45659E"/>
					<stop  offset="1" style="stop-color:#6DB2D9"/>
				</linearGradient>
				<path class="st17" d="M465.6,76.3c0.1,0,0.3,0.1,0.4,0.1h0.1c0.2,0,0.5,0.1,0.6,0.1c0.1,0,0.1,0,0.2,0c0.2,0,0.4,0,0.5,0
					c0.1,0,0.2,0,0.2,0l0,0l0,0l0,0c1,0,1.7-0.1,2.7-0.3c0.1,0,0.2-0.1,0.3-0.1l0,0l0,0l0,0c1-0.3,1.7-0.6,2.5-1.3c0,0,0,0,0-0.1
					l0,0c0,0,0,0,0,0.1c0.8-0.7,1.3-1.4,1.7-2.4c0,0,0,0,0-0.1l0,0c0,0,0,0,0,0.1c0.5-1.4,0.5-2.7,0.2-4.2c-0.5-1.6-1.2-3.1-2.2-4.3
					c-0.1-0.1-0.1-0.2-0.2-0.2c-0.1-0.1-0.2-0.2-0.2-0.3c-0.1-0.1-0.2-0.3-0.3-0.4c-0.2-0.2-0.4-0.4-0.5-0.5
					c-0.1-0.1-0.3-0.3-0.4-0.4c-0.1-0.1-0.3-0.3-0.4-0.4c-0.2-0.2-0.4-0.4-0.5-0.5c-0.1-0.1-0.1-0.1-0.2-0.2c-0.5-0.5-1-0.8-1.5-1.1
					c0,0,0,0,0.1,0.1c-0.2-0.1-0.3-0.2-0.5-0.3c-1.1-1-2.2-1.4-4-2c-0.1,0-0.2-0.1-0.3-0.1c-0.2-0.1-0.5-0.2-0.8-0.3
					c-0.2-0.1-0.4-0.1-0.5-0.2c-0.1,0-0.2,0-0.3-0.1c-0.3-0.1-0.5-0.1-0.9-0.2c-0.1,0-0.2,0-0.3,0c0,0,0,0-0.1,0c-0.2,0-0.3,0-0.5,0
					s-0.4,0-0.6,0c-0.1,0-0.2,0-0.3,0c-0.2,0-0.5,0-0.6,0.1c-0.1,0-0.2,0-0.2,0s0,0-0.1,0c-0.1,0-0.2,0-0.3,0.1
					c-0.2,0-0.3,0.1-0.5,0.2h-0.1c-0.3,0.1-0.5,0.2-0.7,0.4l0,0c0,0-0.1,0-0.1,0.1c-0.1,0-0.1,0.1-0.2,0.1l-0.1,0.1
					C451.6,61.8,456.1,74.2,465.6,76.3z"/>
				
					<linearGradient id="SVGID_19_" gradientUnits="userSpaceOnUse" x1="346.236" y1="55.6773" x2="515.9874" y2="136.2787" gradientTransform="matrix(1 0 0 -1 0 182)">
					<stop  offset="0" style="stop-color:#45659E"/>
					<stop  offset="1" style="stop-color:#6DB2D9"/>
				</linearGradient>
				<path class="st18" d="M491.6,68.4c0.1,0,0.3,0,0.5,0.1h0.1c0.2,0,0.4,0,0.6,0c0,0,0,0,0.1,0h0.1c0.2,0,0.4,0,0.5-0.1h0.1
					c0.1,0,0.1,0,0.2,0l0,0l0,0l0,0c0.1,0,0.3-0.1,0.5-0.2c0.5-0.2,0.7-0.4,1.1-0.7l0,0l0,0l0,0c0.4-0.5,0.5-0.8,0.5-1.4
					c0-0.1,0-0.3,0-0.4v-0.1l0,0l0,0l0,0c0,0,0,0,0-0.1c0-0.6-0.2-1.4-0.5-2.2c0-0.1-0.1-0.1-0.1-0.2c-0.1-0.2-0.2-0.4-0.3-0.5
					c0-0.1-0.1-0.2-0.1-0.2s0,0-0.1,0l0,0c0,0,0,0,0.1,0.1c-0.1-0.1-0.2-0.2-0.3-0.4c-0.1-0.2-0.2-0.3-0.3-0.5c-1-1.4-2.3-2.7-3.9-4
					l-0.1-0.1c-0.4-0.3-0.8-0.5-1.2-0.9c-0.1-0.1-0.2-0.1-0.2-0.2c-0.4-0.3-0.7-0.5-1.2-0.7c-0.1-0.1-0.3-0.2-0.4-0.3
					c-0.5-0.3-0.9-0.5-1.4-0.8c-0.2-0.1-0.4-0.2-0.5-0.3c-0.3-0.1-0.5-0.3-0.8-0.4c-0.2-0.1-0.4-0.2-0.5-0.3c0,0,0,0,0.1,0.1
					c-0.2-0.1-0.4-0.2-0.6-0.3c-1.3-0.6-2.3-0.9-3.6-1.2l0,0c-0.7-0.3-1.3-0.4-2.5-0.3l0,0c-0.2,0-0.3,0-0.5,0
					c-0.3,0-0.5,0.1-0.8,0.2c-0.1,0-0.2,0.1-0.3,0.2c-0.2,0.1-0.3,0.2-0.4,0.3c0,0,0,0-0.1,0l0,0c0,0.1-0.1,0.1-0.1,0.2
					C473.5,56.3,484.1,67.5,491.6,68.4z"/>
				
					<linearGradient id="SVGID_20_" gradientUnits="userSpaceOnUse" x1="345.8546" y1="56.4805" x2="515.606" y2="137.0818" gradientTransform="matrix(1 0 0 -1 0 182)">
					<stop  offset="0" style="stop-color:#45659E"/>
					<stop  offset="1" style="stop-color:#6DB2D9"/>
				</linearGradient>
				<path class="st19" d="M485.9,48.8c1.6,1.8,7,5.7,11.6,8.7c0.7,0.5,1.5,0.9,2.2,1.4c-0.1-0.1-0.2-0.2-0.4-0.3l0.1,0.1
					c1.3,0.9,3.8,2.1,3.8,2.1c-0.1-0.1-0.1-0.1-0.2-0.2l0,0c0.1,0.1,0.1,0.1,0.2,0.2c0,0,0.9,0.5,1.6,0.5l0,0l0,0l0,0
					c0,0,0.1,0,0.3,0l0,0c0,0,0,0,0.1-0.1c0,0,0.1,0,0.1-0.1c0-0.1,0-0.1,0-0.2l0,0l0,0l0,0c0-0.2-0.1-0.5-0.6-1.2c0,0,0,0-0.1,0
					l0,0c0,0,0,0,0.1,0.1c-0.5-0.7-1.3-1.4-2.3-2.3c0,0-0.1,0-0.1-0.1l0,0c0,0,0.1,0,0.1,0.1c-0.1-0.1-0.2-0.1-0.2-0.2
					c-0.3-0.3-0.6-0.5-0.9-0.8c-0.3-0.2-0.5-0.5-0.7-0.6l0,0c-1.4-1.1-2.8-2.2-4.4-3.2c0,0-0.1,0-0.1-0.1c-0.5-0.4-1-0.6-1.5-0.9
					c0,0-0.1,0-0.1-0.1c-0.5-0.4-1.1-0.6-1.6-0.9h-0.1c-0.5-0.3-1.1-0.6-1.6-0.9l0,0c-0.5-0.3-1-0.5-1.5-0.7c-0.1,0-0.1-0.1-0.2-0.1
					l0,0c-0.6-0.3-1.2-0.5-1.7-0.7c-0.1-0.1-0.3-0.1-0.4-0.1c-0.1,0-0.1,0-0.2-0.1c-0.1,0-0.3-0.1-0.4-0.1c0,0,0,0,0.1,0
					c-0.5-0.1-0.8-0.2-1.1-0.2c-0.1,0-0.2,0-0.2,0l0,0l0,0c-0.1,0-0.1,0.1-0.2,0.1c0,0.1,0,0.2,0.1,0.4
					C485.4,48.3,485.6,48.5,485.9,48.8z"/>
				
					<linearGradient id="SVGID_21_" gradientUnits="userSpaceOnUse" x1="485.4076" y1="134.2335" x2="485.4076" y2="134.2335" gradientTransform="matrix(1 0 0 -1 0 182)">
					<stop  offset="0" style="stop-color:#45659E"/>
					<stop  offset="1" style="stop-color:#6DB2D9"/>
				</linearGradient>
				<path class="st20" d="M485.4,47.8L485.4,47.8L485.4,47.8z"/>
				
					<linearGradient id="SVGID_22_" gradientUnits="userSpaceOnUse" x1="489.2545" y1="133.1344" x2="489.2545" y2="133.1344" gradientTransform="matrix(1 0 0 -1 0 182)">
					<stop  offset="0" style="stop-color:#45659E"/>
					<stop  offset="1" style="stop-color:#6DB2D9"/>
				</linearGradient>
				<path class="st21" d="M489.3,48.9L489.3,48.9L489.3,48.9z"/>
				
					<linearGradient id="SVGID_23_" gradientUnits="userSpaceOnUse" x1="345.6281" y1="56.9576" x2="515.3795" y2="137.559" gradientTransform="matrix(1 0 0 -1 0 182)">
					<stop  offset="0" style="stop-color:#45659E"/>
					<stop  offset="1" style="stop-color:#6DB2D9"/>
				</linearGradient>
				<path class="st22" d="M372.7,127.2c0-0.6,0-1.6,0-2.7c0-0.1,0-0.1,0-0.2c0-0.2,0-0.4,0-0.5c0-1,0.1-2,0.2-3.4c0-0.2,0-0.5,0-0.6
					v-0.1c0.1-1.6,0.2-3,0.3-3.9c0-0.2,0-0.5,0.1-0.7c0-0.1,0-0.2,0-0.2c0-0.2,0-0.5,0.1-0.6c0-0.3,0-0.5,0.1-0.7c0-0.2,0-0.4,0-0.5
					c1.3-13.3,2.2-17,2.2-17.1l0,0l0,0l0,0l-0.3,0.7c-0.7,2.4-1,3.4-1.4,5.5c-0.2,1-0.4,2-0.6,3.4c-0.2,0.8-0.3,1.7-0.5,2.6
					c-0.1,0.3-0.1,0.5-0.2,0.8c-0.4,2.9-0.5,3.8-0.5,7c0,0.9-0.1,1.9,0,2.9c0,0.8,0,1.7,0,2.8L372.7,127.2L372.7,127.2L372.7,127.2
					L372.7,127.2z"/>
				
					<linearGradient id="SVGID_24_" gradientUnits="userSpaceOnUse" x1="348.4479" y1="51.0189" x2="518.1993" y2="131.6203" gradientTransform="matrix(1 0 0 -1 0 182)">
					<stop  offset="0" style="stop-color:#45659E"/>
					<stop  offset="1" style="stop-color:#6DB2D9"/>
				</linearGradient>
				<path class="st23" d="M379.8,130.7c0.1,0,0.1,0.1,0.2,0.1c0,0,0,0,0.1,0c0.4,0.2,0.6,0.3,1.1,0.3c0.2,0,0.3,0,0.4,0h0.1h0.1
					c0.5-0.1,1-0.2,1.6-0.6c0.5-0.4,1-0.8,1.7-1.8c0,0,0-0.1,0.1-0.1c0.1-0.2,0.3-0.5,0.4-0.6c0.1-0.1,0.2-0.3,0.3-0.5
					c0-0.1,0.1-0.1,0.1-0.2c0.4-0.7,0.7-1.5,1-2.4c0.1-0.3,0.2-0.5,0.3-0.8c0.1-0.2,0.1-0.4,0.2-0.5c0.7-2.6,1.2-5.4,1.3-8.3V115
					c0-0.6,0-1.3,0-2c0-0.2,0-0.4,0-0.5c0-0.7-0.1-1.5-0.1-2.1c0-0.1,0-0.2,0-0.3c-0.3-3.4-1.1-6.5-2.2-8.5c-0.1-0.5-0.4-0.8-1-1.4
					c-0.2-0.2-0.4-0.4-0.5-0.5c0,0,0,0-0.1-0.1c-0.1-0.1-0.2-0.1-0.3-0.2c-0.2-0.1-0.3-0.2-0.5-0.2c-0.1,0-0.1,0-0.2-0.1
					c-0.1,0-0.1-0.1-0.2-0.1l0,0l0,0l0,0c-0.2,0-0.3-0.1-0.4-0.1c-0.2,0-0.3,0-0.5,0c-3,0.2-5.4,4.7-6.5,10.2
					c-0.4,1.5-0.5,2.9-0.7,4.6c-0.2,2.2-0.2,3.9,0,6v-0.1c0,0.2,0,0.4,0,0.5c0.1,1.6,0.4,2.9,0.7,4.2c0.5,1.6,1.1,3.1,1.9,4.3
					c0.1,0.1,0.1,0.2,0.2,0.2l0,0c0.1,0.1,0.2,0.3,0.3,0.4C378.8,130,379.2,130.3,379.8,130.7z"/>
				
					<linearGradient id="SVGID_25_" gradientUnits="userSpaceOnUse" x1="352.5335" y1="42.4144" x2="522.2849" y2="123.0158" gradientTransform="matrix(1 0 0 -1 0 182)">
					<stop  offset="0" style="stop-color:#45659E"/>
					<stop  offset="1" style="stop-color:#6DB2D9"/>
				</linearGradient>
				<path class="st24" d="M400.1,127.5c0.1,0.1,0.2,0.1,0.3,0.2c0.8,0.5,1.6,1,2.7,1.3c1.1,0.4,2,0.5,3.2,0.4c0.2,0,0.4,0,0.5,0
					c1-0.1,1.7-0.3,2.7-0.6c1.2-0.5,2.1-1,3.1-1.9c1.3-1.1,2.1-2.1,3-3.6c1.7-2.9,2.6-5.9,2.7-9.5c0-0.2,0-0.5-0.1-0.6l0,0
					c0,0.3,0,0.5,0.1,0.6c0-0.5,0-0.9-0.1-1.4l0,0l0,0c0-0.1,0-0.3,0-0.4c0-0.3-0.1-0.6-0.1-0.9v0.1c-0.1-0.8-0.3-1.6-0.5-2.3
					c0-0.2-0.1-0.3-0.1-0.5c0,0,0,0,0-0.1c-0.5-1.4-1.1-2.8-2.1-4.4c-0.1-0.1-0.1-0.2-0.2-0.3c-0.3-0.4-0.5-0.6-0.7-1
					c0,0-1.1-1.4-3.1-2.6l0,0l0,0l0,0c-0.1,0-0.1-0.1-0.2-0.1c0,0,0,0-0.1,0c-0.3-0.2-0.5-0.3-0.9-0.5c0,0-0.1,0-0.1-0.1
					c-0.5-0.2-1.1-0.4-1.7-0.5l0,0l0,0l0,0c-0.1,0-0.2,0-0.3,0h-0.1c-0.3,0-0.5-0.1-0.9-0.1h-0.1h-0.1c-0.2,0-0.5,0-0.6,0
					c-0.1,0-0.3,0-0.4,0c-0.1,0-0.2,0-0.4,0l0,0l0,0l0,0h-0.1c-2.7,0.4-4.9,1.9-6.8,4.1c-0.6,0.8-1.3,1.6-1.8,2.7l0,0l0,0
					c0,0.1,0,0.1,0,0.2l0,0c0-0.1,0-0.1,0-0.2c-1.6,2.9-2.2,5.6-2.3,9c0,2.7,0.4,4.9,1.3,6.9c0.3,0.6,0.5,1.3,0.9,1.9l0,0l0,0
					c0.1,0.2,0.3,0.5,0.4,0.6c0.5,1.3,1.5,2,2.8,3.1C400,127.4,400,127.5,400.1,127.5z"/>
				
					<linearGradient id="SVGID_26_" gradientUnits="userSpaceOnUse" x1="357.2404" y1="32.5013" x2="526.9918" y2="113.1027" gradientTransform="matrix(1 0 0 -1 0 182)">
					<stop  offset="0" style="stop-color:#45659E"/>
					<stop  offset="1" style="stop-color:#6DB2D9"/>
				</linearGradient>
				<path class="st25" d="M445.8,94.8L445.8,94.8L445.8,94.8c-1.3-0.4-2.4-0.5-3.7-0.4l0,0l0,0l0,0c-0.3,0-0.9,0.1-1.7,0.2
					c-0.4,0.1-0.7,0.2-1,0.3l0,0c-0.3,0.1-0.5,0.1-0.7,0.2l0,0l0,0l0,0c-0.1,0-0.1,0.1-0.2,0.1h-0.1c-1.2,0.5-2.1,0.9-3.1,1.6
					c0,0,0,0,0,0.1l0,0c0,0,0,0,0-0.1c-1.3,0.9-2.3,1.8-3.3,3.1c0,0.1,0,0.1,0,0.2l0,0c0-0.1,0-0.1,0-0.2c-1.6,2.1-2.6,4.1-3,6.8
					c-0.3,1.5-0.3,2.7-0.1,4.2c0.1,0.5,0.2,1,0.3,1.6c0,0.1,0,0.1,0,0.2c0,0.2,0.1,0.4,0.2,0.5c0.7,2.7,2.4,5.3,5.1,7.3
					c0.1,0.1,0.1,0.1,0.2,0.1l0.1,0.1c0.1,0.1,0.2,0.1,0.3,0.2c0.2,0.2,0.5,0.3,0.6,0.5c0.1,0.1,0.2,0.1,0.4,0.2
					c0.2,0.1,0.5,0.2,0.6,0.4c0.2,0.1,0.3,0.1,0.5,0.2s0.5,0.2,0.6,0.3c0.2,0.1,0.3,0.1,0.5,0.2s0.4,0.1,0.5,0.2s0.3,0.1,0.5,0.2
					c1.5,0.4,2.7,0.5,4.1,0.5c0.8,0,1.3-0.1,2.1-0.3c0.7-0.1,1.1-0.3,1.8-0.5c1.4-0.5,2.5-1,3.7-1.8c1.4-1,2.4-1.9,3.4-3.4v-0.1l0,0
					v0.1c1.5-2.1,2.2-4.1,2.6-6.7c0.2-1.6,0.1-3.3-0.3-4.9c0,0,0,0,0-0.1c0-0.2-0.1-0.4-0.2-0.5c-0.1-0.2-0.1-0.5-0.2-0.6
					c-0.1-0.2-0.2-0.5-0.3-0.6c-0.1-0.2-0.1-0.4-0.2-0.5c-0.1-0.2-0.2-0.5-0.3-0.6c-0.1-0.2-0.2-0.5-0.4-0.6
					c-0.1-0.1-0.1-0.3-0.2-0.4c-0.1-0.1-0.1-0.3-0.2-0.4c0,0-1.4-2.7-4.8-4.9C448.5,95.6,447.3,95.1,445.8,94.8L445.8,94.8z"/>
				
					<linearGradient id="SVGID_27_" gradientUnits="userSpaceOnUse" x1="360.8681" y1="24.8611" x2="530.6196" y2="105.4625" gradientTransform="matrix(1 0 0 -1 0 182)">
					<stop  offset="0" style="stop-color:#45659E"/>
					<stop  offset="1" style="stop-color:#6DB2D9"/>
				</linearGradient>
				<path class="st26" d="M474.1,111.7c0.2,0.1,0.3,0.2,0.5,0.3c0.1,0.1,0.2,0.1,0.3,0.2c0.2,0.1,0.4,0.2,0.5,0.3
					c0.4,0.2,0.8,0.4,1.2,0.5c0.1,0,0.1,0,0.2,0.1l0,0l0,0l0,0c0.1,0,0.1,0,0.2,0.1c0.3,0.1,0.5,0.2,0.7,0.3c0.1,0,0.1,0,0.2,0.1
					c0.3,0.1,0.5,0.2,0.7,0.2c0.1,0,0.1,0,0.2,0.1c1.9,0.5,3.8,0.4,5.5-0.2l0,0l0,0l0,0l0,0l0,0c0.3-0.1,0.5-0.2,0.8-0.3l0,0
					c0.3-0.1,0.5-0.2,0.7-0.3c0,0,0.1,0,0.1-0.1c2.4-1.2,4.4-3.3,5.3-6.1c0.4-0.9,0.5-1.9,0.7-3.1c0-0.1,0-0.1-0.1-0.2l0,0
					c0,0.1,0,0.1,0.1,0.2c0.2-2.2-0.1-4.3-0.8-6.3c0-0.1,0-0.1-0.1-0.2l0,0c-0.9-2.5-2.4-4.6-4.1-6.2c-1-1.3-2.1-1.7-4-2.7l0,0l0,0
					c0,0-0.5-0.3-1.6-0.5c-0.1,0-0.1,0-0.2,0c-0.3-0.1-0.5-0.1-0.7-0.2c-0.2,0-0.3-0.1-0.5-0.1c-0.3-0.1-0.5-0.1-0.8-0.1l0,0l0,0
					l0,0h-0.1c-0.1,0-0.2,0-0.3,0c-0.3,0-0.5,0-0.7,0c-0.1,0-0.2,0-0.4,0c-0.3,0-0.6,0-0.9,0.1c-0.1,0-0.2,0-0.2,0
					c-0.3,0-0.5,0.1-0.7,0.1c-0.1,0-0.2,0.1-0.3,0.1c-0.3,0.1-0.5,0.2-0.8,0.3c-0.2,0.1-0.3,0.1-0.5,0.2c-0.1,0-0.1,0.1-0.2,0.1
					c-3.5,1.5-5.5,4.7-6.2,8.2c0,0.2-0.1,0.3-0.1,0.5c0,0.1,0,0.2,0,0.3c-0.3,2-0.2,3.9,0.4,6.1c0.5,1.6,1.1,2.9,1.8,4.2
					c0,0.1,0.1,0.1,0.1,0.2c0.1,0.2,0.2,0.3,0.3,0.4c0.5,0.7,1.1,1.5,1.8,2.2c0.1,0.1,0.5,0.5,1.4,1.2c0,0,0.1,0,0.1,0.1
					C473.6,111.4,473.9,111.6,474.1,111.7z"/>
				
					<linearGradient id="SVGID_28_" gradientUnits="userSpaceOnUse" x1="478.9962" y1="94.7572" x2="478.9962" y2="94.7572" gradientTransform="matrix(1 0 0 -1 0 182)">
					<stop  offset="0" style="stop-color:#45659E"/>
					<stop  offset="1" style="stop-color:#6DB2D9"/>
				</linearGradient>
				<path class="st27" d="M479,87.2L479,87.2L479,87.2z"/>
				
					<linearGradient id="SVGID_29_" gradientUnits="userSpaceOnUse" x1="482.7514" y1="93.7497" x2="482.7514" y2="93.7497" gradientTransform="matrix(1 0 0 -1 0 182)">
					<stop  offset="0" style="stop-color:#45659E"/>
					<stop  offset="1" style="stop-color:#6DB2D9"/>
				</linearGradient>
				<path class="st28" d="M482.8,88.3L482.8,88.3L482.8,88.3z"/>
				
					<linearGradient id="SVGID_30_" gradientUnits="userSpaceOnUse" x1="362.5309" y1="21.3592" x2="532.2823" y2="101.9606" gradientTransform="matrix(1 0 0 -1 0 182)">
					<stop  offset="0" style="stop-color:#45659E"/>
					<stop  offset="1" style="stop-color:#6DB2D9"/>
				</linearGradient>
				<path class="st29" d="M502.6,97.1c0.1,0.2,0.3,0.5,0.4,0.6l0,0c0.2,0.3,0.4,0.5,0.5,0.8l0.1,0.1c0.1,0.2,0.3,0.3,0.4,0.5
					c1.2,1.6,2.7,2.8,4.2,3.7h0.1c0.2,0.1,0.3,0.2,0.5,0.2c0.1,0,0.2,0.1,0.3,0.1c0.1,0.1,0.2,0.1,0.4,0.2c0.3,0.1,0.5,0.2,0.7,0.3
					h0.1l0,0l0,0l0,0h0.1c0.2,0,0.4,0.1,0.5,0.1h0.1c3.8,0.5,6.4-2.6,6.2-7.7c0-0.1,0-0.2,0-0.3l0,0l0,0l0,0c0-0.1,0-0.2,0-0.3
					c0-0.4-0.1-0.7-0.1-1c-0.3-2-0.8-4.1-1.7-6v-0.1l0,0c-0.3-0.5-0.5-1-0.8-1.6l-0.1-0.1c-1.1-1.9-2.5-3.6-3.9-4.8
					c-0.8-0.9-1.6-1.3-2.7-1.7c-0.4-0.2-0.7-0.4-1.1-0.5c-0.5-0.4-1.1-0.4-2.3-0.4c-0.1,0-0.2,0-0.2,0c-0.2,0-0.4,0-0.5,0.1
					c-0.1,0-0.1,0-0.2,0c-0.2,0-0.5,0.1-0.6,0.2c-0.3,0.1-0.3,0.1-0.5,0.3l0,0l0,0c-2.3,1.3-3.1,4.2-2.7,7.7c0.1,1.6,0.5,3.1,1,4.9
					c0.1,0.3,0.2,0.5,0.4,0.8c0,0.1,0,0.1,0.1,0.2l-0.4-1c0.2,0.5,0.3,0.8,0.5,1.3s0.4,0.8,0.5,1.2l-0.4-0.8
					C501.6,95.4,502.1,96.3,502.6,97.1z"/>
				
					<linearGradient id="SVGID_31_" gradientUnits="userSpaceOnUse" x1="362.0604" y1="22.3503" x2="531.8118" y2="102.9517" gradientTransform="matrix(1 0 0 -1 0 182)">
					<stop  offset="0" style="stop-color:#45659E"/>
					<stop  offset="1" style="stop-color:#6DB2D9"/>
				</linearGradient>
				<path class="st30" d="M526.3,89.5c-0.6-1.7-1.3-3.2-2.3-5.2v-0.1c0,0,0,0,0-0.1l-0.9-1.8l-0.1-0.1l0,0v-0.1V82l-0.3-0.5
					c-0.1-0.1-0.1-0.3-0.2-0.4c-1.9-3.7-3.3-5.5-3.8-6.1c0,0,0,0,0,0.1c-0.5-0.6-0.8-1.1-1.2-1.4c0,0,0-0.1-0.1-0.1
					c-0.1-0.1-0.2-0.2-0.3-0.3c-0.1-0.1-0.2-0.2-0.2-0.2s0,0,0,0.1c-0.5-0.4-0.7-0.5-0.8-0.5l0,0l0,0l0,0l0,0l0,0c0,0,0,0-0.1,0.1
					c-1.6,1.6,7,19.1,10.3,21.6c0.1,0.1,0.2,0.2,0.3,0.2h0.1c0.1,0,0.1,0,0.2,0.1l0,0l0,0l0,0l0,0c0,0,0,0,0.1,0h0.1
					c0.1,0,0.1-0.1,0.2-0.1c0.1-0.1,0.1-0.2,0.1-0.3c0.1-0.5,0-0.8-0.2-1.6C527.1,91.8,526.8,91,526.3,89.5z"/>
				
					<linearGradient id="SVGID_32_" gradientUnits="userSpaceOnUse" x1="362.181" y1="22.0962" x2="531.9323" y2="102.6976" gradientTransform="matrix(1 0 0 -1 0 182)">
					<stop  offset="0" style="stop-color:#45659E"/>
					<stop  offset="1" style="stop-color:#6DB2D9"/>
				</linearGradient>
				<path class="st31" d="M386,163.7l-0.5-0.8c-0.3-0.5-0.5-0.9-0.8-1.4c-0.1-0.1-0.1-0.2-0.2-0.3c-0.2-0.3-0.4-0.6-0.5-1l0,0
					c-0.3-0.5-0.5-0.9-0.7-1.4c0.4,0.6,0.5,1.1,0.7,1.4c-0.3-0.5-0.5-1-0.8-1.6c0,0.1,0.1,0.1,0.1,0.2c-0.2-0.5-0.5-0.9-0.7-1.5l0,0
					c-0.1-0.3-0.3-0.5-0.4-0.7c0-0.1-0.1-0.2-0.1-0.2c-0.1-0.2-0.2-0.5-0.4-0.7c-0.1-0.1-0.1-0.2-0.2-0.4c-0.1-0.3-0.2-0.5-0.4-0.7
					c-0.1-0.2-0.2-0.4-0.3-0.5c-0.1-0.1-0.1-0.3-0.2-0.4c-2.5-5.3-4.2-9.7-5.3-13.2c-0.2-0.6-0.4-1.3-0.5-1.8l0,0l0,0l0,0
					c0.8,3.3,1.8,6.3,2.9,9c0.1,0.4,0.3,0.7,0.4,1.1c1.1,2.7,1.5,3.7,2.7,6.1c0.5,0.9,0.9,1.8,1.5,2.7c0.4,0.7,0.8,1.6,1.4,2.6
					l2.1,3.2c0-0.1-0.1-0.2-0.2-0.2c0,0,0,0,0,0.1c0,0,0-0.1-0.1-0.1C385.8,163.4,385.9,163.6,386,163.7c-0.1-0.2-0.3-0.4-0.4-0.5
					c0,0.1,0.1,0.1,0.1,0.2L386,163.7C386,163.8,386,163.8,386,163.7L386,163.7L386,163.7C386,163.8,386,163.8,386,163.7z
					 M377.1,146c0.1,0.2,0.1,0.4,0.2,0.5C377.2,146.4,377.1,146.2,377.1,146z"/>
				
					<linearGradient id="SVGID_33_" gradientUnits="userSpaceOnUse" x1="365.0002" y1="16.1587" x2="534.7516" y2="96.7601" gradientTransform="matrix(1 0 0 -1 0 182)">
					<stop  offset="0" style="stop-color:#45659E"/>
					<stop  offset="1" style="stop-color:#6DB2D9"/>
				</linearGradient>
				<path class="st32" d="M397.5,167.8c0.6-1,0.8-2.9,0.3-5.6c-0.5-2.6-1.5-5.4-2.7-8.2c0-0.1-0.1-0.2-0.1-0.3
					c-0.1-0.2-0.2-0.4-0.3-0.5c-1.5-2.9-3.1-5.6-4.9-7.7c-0.3-0.4-0.7-0.8-1.2-1.4c-0.5-0.5-0.9-0.9-1.4-1.4
					c-0.4-0.5-0.8-0.8-1.9-1.6c-0.1-0.1-0.2-0.2-0.4-0.2c-0.1-0.1-0.4-0.2-0.7-0.4c-0.5-0.3-1.1-0.4-1.6-0.5l0,0l0,0
					c-0.2,0-0.5,0-0.6,0h-0.1c-0.1,0-0.3,0.1-0.4,0.1c0,0-0.1,0-0.1,0.1l0,0l0,0l0,0l0,0l0,0c-0.1,0-0.1,0.1-0.1,0.1
					c-0.1,0-0.2,0.1-0.2,0.1c-1.6,1-1.7,3.7-1,7c0.1,0.5,0.3,1.1,0.4,1.7c0,0.1,0.1,0.2,0.1,0.3l0,0c0-0.1-0.1-0.2-0.1-0.3
					c0.5,1.8,1.1,3.3,1.9,5.2c0.9,1.8,1.6,3.3,2.8,5.1c0,0,0,0,0-0.1c0.8,1.5,1.6,2.6,2.7,3.7c1.6,2,3.3,3.6,5,4.6
					c0.4,0.3,0.7,0.5,1.2,0.5l0,0l0,0l0,0l0,0c0.4,0.1,0.6,0.2,0.9,0.3c0.2,0.1,0.3,0.1,0.5,0.1c0.1,0,0.2,0,0.3,0
					c0.5,0,0.9-0.1,1.3-0.5C397.3,168.1,397.4,167.9,397.5,167.8C397.4,168,397.5,168,397.5,167.8
					C397.5,167.9,397.5,167.8,397.5,167.8z"/>
				
					<linearGradient id="SVGID_34_" gradientUnits="userSpaceOnUse" x1="369.179" y1="7.3581" x2="538.9304" y2="87.9594" gradientTransform="matrix(1 0 0 -1 0 182)">
					<stop  offset="0" style="stop-color:#45659E"/>
					<stop  offset="1" style="stop-color:#6DB2D9"/>
				</linearGradient>
				<path class="st33" d="M424.3,149.5c-1-1.9-2.4-3.7-4.9-5.8c0,0-1.6-1.4-4.2-2.6c0,0,0,0,0,0.1l0,0c0,0,0,0,0-0.1
					c-1.3-0.5-2.4-0.9-3.8-1.1l0,0l0,0l0,0c-0.7-0.1-1.6-0.2-2.7-0.1c0,0,0,0-0.1,0c0,0,0,0-0.1,0l0,0c-0.2,0-0.4,0-0.5,0.1l0,0l0,0
					l0,0l0,0c-0.2,0-0.4,0.1-0.6,0.1h-0.1c0,0,0,0-0.1,0c-0.3,0.1-0.5,0.1-0.8,0.2c-3.8,1.2-5.7,4.4-6,8.2c-0.2,2.2,0.2,4.3,1.1,6.8
					c0.1,0.2,0.1,0.3,0.2,0.4c0.1,0.2,0.2,0.4,0.2,0.5s0.1,0.2,0.1,0.3c1.2,2.6,3,4.9,5.4,7c0.9,0.9,1.9,1.6,3.3,2.3l0,0
					c0.1,0,0.2,0.1,0.3,0.1l0,0c0.2,0.1,0.3,0.2,0.5,0.2c0.3,0.2,0.6,0.3,0.9,0.5c0.5,0.2,1.1,0.4,1.6,0.5c0.3,0.1,0.4,0.1,0.5,0.1
					c1.1,0.3,2,0.4,3.1,0.3c0.2,0,0.4,0,0.5,0c0.3,0,0.5-0.1,0.8-0.1h0.1c0.2,0,0.4-0.1,0.5-0.1c3.2-0.8,5.7-3.2,6.4-7.1
					c0.4-1.6,0.4-3.2,0.1-5c-0.1-0.2-0.1-0.4-0.2-0.5l0,0c0.1,0.2,0.1,0.4,0.2,0.5c-0.1-0.7-0.3-1.4-0.5-2l0,0c0,0,0,0,0-0.1
					c-0.2-0.5-0.3-0.9-0.5-1.3c0-0.1-0.1-0.2-0.1-0.3c-0.1-0.1-0.1-0.3-0.2-0.4v0.1C425,150.7,424.7,150.1,424.3,149.5z"/>
				
					<linearGradient id="SVGID_35_" gradientUnits="userSpaceOnUse" x1="425.1398" y1="30.9172" x2="425.1398" y2="30.9172" gradientTransform="matrix(1 0 0 -1 0 182)">
					<stop  offset="0" style="stop-color:#45659E"/>
					<stop  offset="1" style="stop-color:#6DB2D9"/>
				</linearGradient>
				<path class="st34" d="M425.1,151.1L425.1,151.1L425.1,151.1z"/>
				
					<linearGradient id="SVGID_36_" gradientUnits="userSpaceOnUse" x1="373.9908" y1="-2.7761" x2="543.7423" y2="77.8252" gradientTransform="matrix(1 0 0 -1 0 182)">
					<stop  offset="0" style="stop-color:#45659E"/>
					<stop  offset="1" style="stop-color:#6DB2D9"/>
				</linearGradient>
				<path class="st35" d="M436.7,144.1c-0.5,1.2-0.6,2.4-0.7,3.8c0,1.2,0.1,2.2,0.4,3.3c0,0.1,0,0.2,0.1,0.3l0,0
					c0,0.1,0,0.1,0.1,0.2c0.5,1.8,1.5,3.6,2.8,5.1c0.2,0.2,0.3,0.4,0.5,0.5c0.1,0.1,0.2,0.2,0.3,0.3c0.2,0.2,0.5,0.4,0.6,0.5
					c0.1,0.1,0.1,0.1,0.2,0.2l0,0c0.3,0.2,0.5,0.4,0.6,0.5c8,6,19.5,3,22.4-6c0.1-0.2,0.1-0.3,0.2-0.5c0,0,0,0,0-0.1
					c0.1-0.4,0.2-0.8,0.3-1.2c0.3-1.6,0.4-3.2,0.1-4.8l0,0c0-0.1-0.1-0.2-0.1-0.3c-0.1-0.3-0.1-0.6-0.2-0.9
					c-0.1-0.3-0.2-0.5-0.2-0.7c-0.1-0.2-0.1-0.3-0.2-0.5c-0.1-0.3-0.2-0.5-0.3-0.7c-0.1-0.2-0.2-0.4-0.2-0.5
					c-0.1-0.2-0.2-0.3-0.3-0.5s-0.2-0.4-0.3-0.5c0,0-0.7-1.6-2.7-3.2l0,0c-0.3-0.3-0.5-0.5-0.9-0.7c-0.1-0.1-0.1-0.1-0.2-0.2
					c-0.4-0.3-0.7-0.5-1.1-0.7c-1.1-0.6-2.2-1.1-3.4-1.5c-0.1,0-0.3-0.1-0.5-0.1c-0.2-0.1-0.4-0.1-0.6-0.2l0,0l0,0l0,0
					c-0.1,0-0.2,0-0.3,0c-0.1,0-0.3-0.1-0.4-0.1c-0.3-0.1-0.5-0.1-0.8-0.1c-0.1,0-0.3,0-0.4,0c-0.4,0-0.7-0.1-1.1-0.1
					c-0.1,0-0.2,0-0.4,0c-0.3,0-0.5,0-0.8,0l0,0l0,0l0,0c-0.1,0-0.2,0-0.3,0l0,0c0,0,0,0-0.1,0c-0.3,0-0.5,0.1-0.9,0.1
					c-0.2,0-0.3,0.1-0.5,0.1c0,0,0,0-0.1,0l0,0h-0.1C442.1,136.2,438.2,139.8,436.7,144.1z"/>
				
					<linearGradient id="SVGID_37_" gradientUnits="userSpaceOnUse" x1="377.762" y1="-10.7182" x2="547.5134" y2="69.8831" gradientTransform="matrix(1 0 0 -1 0 182)">
					<stop  offset="0" style="stop-color:#45659E"/>
					<stop  offset="1" style="stop-color:#6DB2D9"/>
				</linearGradient>
				<path class="st36" d="M499.3,136.2c0-0.1,0-0.1,0-0.2c-0.4-1.9-1-3.6-2-4.9c-0.5-1.1-1.3-1.7-2.5-2.5c-1.2-0.8-2.7-1.4-4.2-1.6
					c-0.1,0-0.2,0-0.2,0h-0.1c-0.2,0-0.3,0-0.5,0s-0.4,0-0.5,0c-0.1,0-0.1,0-0.2,0c-0.1,0-0.1,0-0.2,0c-0.2,0-0.4,0-0.5,0
					c-0.2,0-0.4,0-0.5,0.1l0,0c-2.2,0.3-4.2,1.3-5.9,2.7c-0.5,0.5-1.1,0.9-1.6,1.6l0,0c-1.3,1.5-2.2,2.9-2.9,4.8
					c-1,2.7-1.3,4.9-1,7.7c0.1,0.5,0.2,0.8,0.3,1.2c0,0.2,0.1,0.4,0.1,0.5c0,0.1,0,0.1,0.1,0.2c0.5,1.6,1.2,3,2.3,4.3l0.1,0.1
					c0,0,0.5,0.6,1.6,1.5c0.2,0.1,0.3,0.2,0.5,0.4c0,0,0.1,0,0.1,0.1c0.5,0.3,0.9,0.5,1.5,0.8c0.1,0,0.1,0.1,0.2,0.1l0,0l0,0l0,0
					h0.1c0.2,0.1,0.4,0.1,0.5,0.2c0.1,0,0.2,0.1,0.3,0.1s0.2,0.1,0.3,0.1c0.2,0.1,0.4,0.1,0.5,0.2h0.1c0.3,0.1,0.5,0.1,0.7,0.1h0.1
					c0.2,0,0.5,0.1,0.6,0.1l0,0l0,0l0,0c0.3,0,0.5,0,0.8,0h0.1c0.2,0,0.5,0,0.6-0.1c0.2,0,0.4-0.1,0.5-0.1c0.1,0,0.1,0,0.2,0
					c4.2-0.7,8.2-4,10.1-9.1v-0.1l0,0l0,0l0,0c0.1-0.2,0.1-0.4,0.2-0.5c0.1-0.2,0.1-0.3,0.2-0.5c0.5-1.8,0.8-3.7,0.7-5.3
					c0-0.1,0-0.2,0-0.2C499.5,137.2,499.4,136.6,499.3,136.2z"/>
				
					<linearGradient id="SVGID_38_" gradientUnits="userSpaceOnUse" x1="379.5963" y1="-14.5815" x2="549.3477" y2="66.0199" gradientTransform="matrix(1 0 0 -1 0 182)">
					<stop  offset="0" style="stop-color:#45659E"/>
					<stop  offset="1" style="stop-color:#6DB2D9"/>
				</linearGradient>
				<path class="st37" d="M511.8,124.2c0,0.1-0.1,0.2-0.1,0.3l0,0l0,0l0,0c0,0,0,0.1-0.1,0.1c-0.2,0.4-0.3,0.6-0.4,1
					c-0.1,0.3-0.2,0.6-0.3,0.9l0,0c-0.5,1.4-0.8,2.8-1,4.3c-0.6,4.4-0.1,9,2,11.7c0.1,0.1,0.7,1.1,2.1,1.6l0,0l0,0l0,0
					c0.7,0.3,1.3,0.3,2.1,0.1v-0.1l0,0v0.1c0.3-0.1,0.5-0.1,0.6-0.2c0.5-0.2,0.9-0.5,1.5-0.8v-0.1l0,0v0.1c0.8-0.6,1.4-1.3,2.1-2.2
					v-0.1l0,0v0.1c0.9-1.3,1.6-2.6,2.2-4.2v-0.1l0,0c0,0.1,0,0.1,0,0.2c1-2.7,1.6-5.6,1.6-8.2c0-0.5,0-0.9,0-1.4c0-0.1,0-0.2,0-0.3
					c-0.2-2.2-0.6-4-1.5-5.5c-0.4-1-0.9-1.5-1.6-2s-1.6-0.9-2.4-1c-0.1,0-0.2,0-0.3,0l0,0l0,0l0,0c-0.2,0-0.3,0-0.5,0.1
					c-0.1,0-0.3,0.1-0.4,0.1l0,0C515.1,119,513.2,121.2,511.8,124.2z"/>
				
					<linearGradient id="SVGID_39_" gradientUnits="userSpaceOnUse" x1="379.1564" y1="-13.655" x2="548.9078" y2="66.9464" gradientTransform="matrix(1 0 0 -1 0 182)">
					<stop  offset="0" style="stop-color:#45659E"/>
					<stop  offset="1" style="stop-color:#6DB2D9"/>
				</linearGradient>
				<path class="st38" d="M531.9,118.3c0-0.3,0-0.5,0-0.7c0-0.5,0-0.9-0.1-1.4c-0.1-1-0.1-2.1-0.1-3l0,0l0,0l0,0
					c-0.1-0.7-0.1-1.1-0.2-1.4l0,0l0,0c-0.1-0.2-0.1-0.4-0.2-0.4c0-0.1,0-0.1,0-0.1h-0.1l0,0l0,0l0,0l0,0c0,0,0,0,0,0.1l0,0
					l-0.1,0.1c-0.1,0.2-0.2,0.4-0.3,0.7c0,0.1,0,0.2,0,0.4l0,0c0-0.1,0-0.2,0-0.4c-0.2,0.6-0.3,1.2-0.5,2.4c0,0.2,0,0.5,0,0.6v0.1
					c0-0.3,0-0.5,0-0.7c-0.2,1.6-0.4,2.8-0.5,4.9c0,0.4,0,0.7,0,1.2c0,0.1,0,0.2,0,0.3c0-0.5,0-1,0-1.5c-0.2,2.2-0.3,4.2-0.4,6.5
					c0,0.7-0.1,1.4-0.1,2c-0.2,3.4-0.1,6.3,0.2,7.5c0,0.3,0.1,0.5,0.2,0.6h0.1l0,0l0,0l0,0l0.1-0.1c0-0.1,0.1-0.2,0.1-0.2
					c0.1-0.3,0.2-0.6,0.4-1.3c0.2-0.9,0.5-2.1,0.6-3.7c0.2-1.2,0.3-2.3,0.5-4c0.1-0.8,0.2-1.6,0.2-2.4c0.1-1.1,0.1-2.2,0.2-3.3
					c0-0.1,0-0.3,0-0.4c0-0.3,0-0.5,0-0.8C531.9,119.2,531.9,118.8,531.9,118.3z"/>
				
					<linearGradient id="SVGID_40_" gradientUnits="userSpaceOnUse" x1="378.1822" y1="-11.6033" x2="547.9336" y2="68.9981" gradientTransform="matrix(1 0 0 -1 0 182)">
					<stop  offset="0" style="stop-color:#45659E"/>
					<stop  offset="1" style="stop-color:#6DB2D9"/>
				</linearGradient>
				<path class="st39" d="M405.3,183.6c-1.8-1.4-3.8-2.9-5.4-4.3c0.2,0.1,0.3,0.3,0.5,0.4c0,0,0,0-0.1-0.1c0.2,0.1,0.3,0.3,0.5,0.4
					c0.1,0.1,0.2,0.2,0.3,0.2c0.3,0.2,0.5,0.4,0.7,0.6l0,0c1.1,0.9,2.4,1.9,3.9,3c0.1,0.1,0.2,0.2,0.3,0.2l0.4,0.3l0,0l0,0l0,0l0,0
					h0.1C406.1,184.1,405.7,183.9,405.3,183.6z"/>
				
					<linearGradient id="SVGID_41_" gradientUnits="userSpaceOnUse" x1="376.7389" y1="-8.5637" x2="546.4903" y2="72.0377" gradientTransform="matrix(1 0 0 -1 0 182)">
					<stop  offset="0" style="stop-color:#45659E"/>
					<stop  offset="1" style="stop-color:#6DB2D9"/>
				</linearGradient>
				<path class="st40" d="M400,179.4l0.2,0.2c0,0,0,0,0.1,0C400.1,179.6,400,179.5,400,179.4z"/>
				
					<linearGradient id="SVGID_42_" gradientUnits="userSpaceOnUse" x1="380.7888" y1="-17.0931" x2="550.5402" y2="63.5083" gradientTransform="matrix(1 0 0 -1 0 182)">
					<stop  offset="0" style="stop-color:#45659E"/>
					<stop  offset="1" style="stop-color:#6DB2D9"/>
				</linearGradient>
				<path class="st41" d="M424.3,192.3L424.3,192.3c0-0.1-0.1-0.2-0.2-0.4c-0.2-0.3-0.4-0.5-0.8-1c-0.6-0.7-1.7-1.8-3.5-3.3
					c-0.7-0.6-1.6-1.3-2.4-2.1l0,0l0,0c-0.5-0.5-1.1-0.9-1.6-1.4c0,0-0.1,0-0.1-0.1c-0.5-0.4-0.9-0.7-1.4-1.1
					c-0.1-0.1-0.3-0.2-0.4-0.3c-0.4-0.3-0.8-0.6-1.2-0.9c-0.1-0.1-0.2-0.2-0.3-0.2c-0.5-0.4-1-0.7-1.5-1l-0.1-0.1
					c-0.4-0.3-0.7-0.5-1.1-0.7l0,0c-0.2-0.1-0.3-0.2-0.5-0.3c-0.6-0.5-1.6-1.1-3.5-2.1l0,0l0,0l0,0c0,0-0.6-0.4-1.5-0.7h-0.1
					c-0.3-0.1-0.5-0.3-0.8-0.4c-0.1-0.1-0.2-0.1-0.4-0.1h-0.1l0,0l0,0l0,0c0,0-0.3-0.1-0.6-0.2c-0.1,0-0.1,0-0.2-0.1
					c-0.1,0-0.2-0.1-0.3-0.1c-0.5-0.2-0.9-0.2-1.3-0.3h-0.1c-0.1,0-0.3,0-0.4,0c-0.1,0-0.2,0-0.2,0.1H400l0,0l0,0l0,0l0,0
					c-0.1,0.1-0.2,0.1-0.3,0.2l0,0l0,0c0,0.1-0.1,0.1-0.1,0.3c-0.1,0.5,0.1,1.1,0.7,1.9c0,0,0,0,0,0.1l0,0l0,0l0,0
					c0.8,1.1,1.7,2.2,3.4,3.6c0.5,0.4,0.9,0.7,1.4,1c-0.5-0.4-0.9-0.7-1.4-1c1.3,1.1,2.4,2,3.9,3.1c1.5,1.1,2.7,1.9,4.4,2.8
					c-0.1,0-0.1-0.1-0.2-0.1c0.7,0.5,1.6,0.9,2.5,1.4c4.2,2.5,8.2,4.1,10.1,3.8C424.2,192.8,424.5,192.7,424.3,192.3
					C424.4,192.3,424.3,192.3,424.3,192.3z"/>
				
					<linearGradient id="SVGID_43_" gradientUnits="userSpaceOnUse" x1="383.86" y1="-23.5611" x2="553.6115" y2="57.0403" gradientTransform="matrix(1 0 0 -1 0 182)">
					<stop  offset="0" style="stop-color:#45659E"/>
					<stop  offset="1" style="stop-color:#6DB2D9"/>
				</linearGradient>
				<path class="st42" d="M440.8,184.8L440.8,184.8c0.1,0.1,0.2,0.2,0.2,0.3c-0.5-0.9-1-1.7-1.7-2.7c-0.1-0.1-0.3-0.3-0.4-0.4
					c0-0.1-0.1-0.1-0.1-0.1s0,0,0,0.1c-0.4-0.4-0.7-0.8-1.2-1.2c-0.8-0.8-1.6-1.5-2.9-2.3c-2-1.3-4.2-2.3-6.3-2.8
					c-0.5-0.3-1.1-0.4-2.5-0.5c-0.2,0-0.4,0-0.5-0.1h-0.1l0,0l0,0l0,0c-0.1,0-0.1,0-0.2,0c-0.7-0.1-1.5-0.1-2.2,0c0,0,0,0-0.1,0
					c-0.2,0-0.4,0-0.5,0.1l0,0c-0.2,0-0.4,0.1-0.5,0.1c-0.3,0.1-0.5,0.1-0.6,0.2c-0.1,0-0.2,0.1-0.3,0.1c-0.3,0.1-0.5,0.2-0.7,0.3
					H420l0,0l0,0l0,0l0,0l0,0l0,0l0,0c-0.1,0-0.1,0.1-0.2,0.1c-5,3,0.9,10.7,10.1,14.2c0.5,0.2,0.9,0.4,1.5,0.5
					c0.5,0.2,0.8,0.3,1.3,0.4c0.7,0.3,1.5,0.4,2.8,0.5l0,0c0.2,0,0.3,0,0.5,0.1c0.5,0.1,1.1,0.1,1.8,0.1l0,0c0.1,0,0.2,0,0.4,0h0.1
					c0.5-0.1,0.9-0.2,1.4-0.3c0.5-0.2,0.9-0.5,1.3-0.8c0.5-0.5,0.6-0.9,0.8-1.6c0.2-1.3-0.1-2.5-0.8-4.1
					C441,185.1,440.9,185,440.8,184.8z"/>
				
					<linearGradient id="SVGID_44_" gradientUnits="userSpaceOnUse" x1="438.787" y1="5.053910e-02" x2="438.787" y2="5.053910e-02" gradientTransform="matrix(1 0 0 -1 0 182)">
					<stop  offset="0" style="stop-color:#45659E"/>
					<stop  offset="1" style="stop-color:#6DB2D9"/>
				</linearGradient>
				<path class="st43" d="M438.8,181.9L438.8,181.9L438.8,181.9z"/>
				
					<linearGradient id="SVGID_45_" gradientUnits="userSpaceOnUse" x1="387.6263" y1="-31.4931" x2="557.3777" y2="49.1083" gradientTransform="matrix(1 0 0 -1 0 182)">
					<stop  offset="0" style="stop-color:#45659E"/>
					<stop  offset="1" style="stop-color:#6DB2D9"/>
				</linearGradient>
				<path class="st44" d="M469.2,178.5L469.2,178.5c0-0.2-0.1-0.5-0.1-0.6c0-0.1,0-0.2,0-0.3s-0.1-0.2-0.1-0.3
					c-0.1-0.2-0.1-0.4-0.2-0.5l0,0c-0.1-0.3-0.2-0.5-0.3-0.7c0-0.1-0.1-0.1-0.1-0.2c-0.1-0.2-0.2-0.4-0.3-0.5v-0.1
					c0,0-0.4-0.8-1.5-1.7c-0.1-0.1-0.2-0.2-0.4-0.3c-0.1,0-0.1-0.1-0.2-0.1c-0.5-0.4-1-0.7-1.6-1l0,0l0,0c-0.5-0.3-1.1-0.5-1.6-0.6
					h-0.1c-0.3-0.1-0.5-0.2-0.8-0.2h-0.1c-0.3-0.1-0.5-0.1-0.8-0.2c-0.1,0-0.1,0-0.2,0l0,0l0,0l0,0h-0.1c-0.2,0-0.4-0.1-0.5-0.1
					s-0.3,0-0.5,0c-0.2,0-0.3,0-0.5,0s-0.5,0-0.6,0c-0.1,0-0.2,0-0.3,0h-0.1c-0.1,0-0.1,0-0.2,0c-0.3,0-0.5,0-0.7,0c0,0,0,0-0.1,0
					l0,0l0,0l0,0c-0.1,0-0.2,0-0.4,0c-0.2,0-0.3,0-0.5,0.1c-0.1,0-0.1,0-0.2,0c-1.6,0.3-3.2,0.8-4.6,1.6c-0.1,0-0.2,0.1-0.3,0.2
					c-0.1,0.1-0.3,0.2-0.4,0.2c-0.1,0-0.1,0.1-0.2,0.1l0,0l0,0l0,0l0,0l0,0c-0.1,0.1-0.1,0.1-0.2,0.2c-0.1,0.1-0.3,0.2-0.4,0.3
					c-0.1,0.1-0.2,0.2-0.3,0.3s-0.1,0.1-0.2,0.2c-0.2,0.2-0.5,0.4-0.6,0.6c-0.1,0.1-0.2,0.2-0.2,0.3c-0.1,0.1-0.2,0.2-0.2,0.3
					c-0.1,0.2-0.3,0.3-0.4,0.5l-0.1,0.1l0,0l0,0l0,0l0,0c-1.7,2.5-1.8,5.5,0.5,8.4c0,0,0,0.1,0.1,0.1c0.1,0.1,0.2,0.3,0.3,0.4
					c0,0,0,0,0,0.1l0,0c0.2,0.2,0.3,0.3,0.5,0.5l0.1,0.1c0.7,0.9,1.5,1.5,2.8,2c1.3,0.6,2.7,1.1,4,1.4c0.1,0,0.3,0.1,0.4,0.1
					c0.9,0.2,1.7,0.2,2.7,0.1c0.5,0,0.9-0.1,1.5-0.2c0.4-0.1,0.6-0.1,1-0.2c0.8-0.3,1.5-0.5,2.2-0.9c0,0,0.1,0,0.1-0.1
					c2-1.1,3.6-2.7,4.2-5.1v-0.1C469.2,180.7,469.3,179.6,469.2,178.5L469.2,178.5z"/>
				
					<linearGradient id="SVGID_46_" gradientUnits="userSpaceOnUse" x1="390.364" y1="-37.259" x2="560.1154" y2="43.3424" gradientTransform="matrix(1 0 0 -1 0 182)">
					<stop  offset="0" style="stop-color:#45659E"/>
					<stop  offset="1" style="stop-color:#6DB2D9"/>
				</linearGradient>
				<path class="st45" d="M495.9,170.6c0.1-0.4,0.1-0.7,0.2-1.1c0-0.1,0-0.2,0-0.3c0-0.3,0-0.6,0-0.9v-0.1c0-0.3-0.1-0.5-0.1-0.7
					c0,0-0.2-1-1.1-1.9l-0.1-0.1c-0.2-0.2-0.5-0.4-0.7-0.6c-0.3-0.2-0.5-0.3-0.8-0.4h-0.1h-0.1c-0.1,0-0.2-0.1-0.3-0.1
					c-0.1,0-0.3-0.1-0.4-0.1h-0.1c-0.2,0-0.4-0.1-0.5-0.1c0,0,0,0-0.1,0c0,0,0,0-0.1,0c-0.2,0-0.4,0-0.5,0H491c-0.2,0-0.3,0-0.5,0
					c-0.1,0-0.3,0-0.4,0c-0.1,0-0.2,0-0.2,0c-0.3,0-0.6,0.1-1,0.2c0,0-0.1,0-0.2,0l0,0c-1,0.3-1.8,0.5-2.7,1.1c-1.1,0.6-2,1.2-3,2.1
					c-1.3,1.2-2.2,2.3-3,3.7c-0.2,0.3-0.3,0.5-0.5,0.8c-1.4,2.5-1.8,5.2-0.9,7.7v0.1l0,0c0.1,0.3,0.3,0.5,0.4,0.8v0.1
					c0,0,0.5,1,1.9,1.7v-0.1l0,0v0.1c0.6,0.3,1.2,0.5,1.9,0.5v-0.1l0,0v0.1c0.6,0,1.2-0.1,1.9-0.3h0.1v-0.1l0,0c0,0,0,0.1-0.1,0.1
					c0.7-0.2,1.4-0.5,2.2-0.9v-0.1l0,0v0.1c0.7-0.4,1.4-0.8,2-1.3c1.3-0.9,2.6-2.1,3.7-3.5c0.1-0.1,0.1-0.1,0.2-0.2l0,0l0,0l0,0
					c0.1-0.2,0.2-0.3,0.4-0.5c0.1-0.1,0.2-0.2,0.2-0.3c0.9-1.3,1.6-2.6,2-3.8c0-0.1,0.1-0.2,0.1-0.3c0,0,0,0,0-0.1
					C495.8,171.5,495.8,171,495.9,170.6L495.9,170.6z"/>
				
					<linearGradient id="SVGID_47_" gradientUnits="userSpaceOnUse" x1="391.7406" y1="-40.1581" x2="561.4919" y2="40.4433" gradientTransform="matrix(1 0 0 -1 0 182)">
					<stop  offset="0" style="stop-color:#45659E"/>
					<stop  offset="1" style="stop-color:#6DB2D9"/>
				</linearGradient>
				<path class="st46" d="M514.1,165.4L514.1,165.4L514.1,165.4c0.1-0.1,0.1-0.1,0.1-0.2c1.5-2.6,2.3-4.9,2.2-6.4
					c0.1-0.6-0.1-1-0.3-1.3c0,0,0-0.1-0.1-0.1l0,0l0,0c-0.1-0.1-0.2-0.3-0.4-0.4l0,0h-0.1c-1.5-0.7-3.8,0.7-6,3.1
					c-0.5,0.5-1,1.1-1.6,1.7c-1.7,2.1-3,4.2-4.2,6.7c-0.2,0.4-0.4,0.7-0.5,1l0,0l0,0c-1.1,2.3-1.7,4.4-1.6,5.8c0,0.1,0,0.4,0.1,0.6
					l0,0c0.1,0.2,0.2,0.4,0.3,0.5l0,0l0,0l0,0c0.3,0.2,0.5,0.2,1,0.1c0,0,0,0,0-0.1l0,0c0,0,0,0,0,0.1c0.2-0.1,0.3-0.1,0.5-0.2
					c0.4-0.2,0.6-0.3,1-0.5l0,0l0,0l0,0c0.2-0.1,0.4-0.3,0.5-0.4c0.7-0.5,1.5-1.1,2.3-1.8c0.7-0.7,1.6-1.5,2.4-2.4l0.1-0.1l0,0
					c0,0.1-0.1,0.1-0.1,0.2c1.6-1.8,2.9-3.6,4-5.4C513.8,165.8,513.9,165.6,514.1,165.4z"/>
				
					<linearGradient id="SVGID_48_" gradientUnits="userSpaceOnUse" x1="391.3977" y1="-39.436" x2="561.1491" y2="41.1654" gradientTransform="matrix(1 0 0 -1 0 182)">
					<stop  offset="0" style="stop-color:#45659E"/>
					<stop  offset="1" style="stop-color:#6DB2D9"/>
				</linearGradient>
				<path class="st47" d="M525.3,150.9L525.3,150.9L525.3,150.9L525.3,150.9L525.3,150.9L525.3,150.9L525.3,150.9
					C525.3,151,525.3,151,525.3,150.9c-4.9,8.3-7.5,12.5-9.1,15.1c-0.4,0.5-0.6,1-1,1.5c0.3-0.5,0.6-0.9,1-1.5
					c-0.4,0.5-0.6,1-0.8,1.4c-0.6,0.8-1.3,1.7-2,2.7c0.3-0.4,0.5-0.7,0.8-1.1c-0.1,0.1-0.2,0.3-0.3,0.4v-0.1c0,0,0,0,0,0.1l0,0
					l-0.5,0.5c-0.2,0.3-0.5,0.5-0.6,0.8l0,0l0,0c0.3-0.3,0.5-0.6,0.7-0.9l1.5-1.8c0.7-0.9,1.4-1.7,2-2.7c0.6-0.8,1.1-1.6,1.7-2.5
					c0.5-0.8,1.1-1.6,1.6-2.5c0.5-0.9,1.2-1.9,1.7-2.9c0.2-0.3,0.4-0.5,0.5-0.9c0.3-0.5,0.6-1.1,0.9-1.7l0.2-0.5
					c0.4-0.7,0.8-1.7,1.2-2.6L525.3,150.9L525.3,150.9L525.3,150.9L525.3,150.9L525.3,150.9z M525,151.5c0-0.1,0.1-0.2,0.1-0.3
					c0,0,0-0.1,0.1-0.1L525,151.5z"/>
			</g>
		</g>
	</g>
</g>
</svg>
