<?xml version="1.0" encoding="utf-8"?>
<!-- Generator: Adobe Illustrator 22.1.0, SVG Export Plug-In . SVG Version: 6.00 Build 0)  -->
<svg version="1.1" xmlns="http://www.w3.org/2000/svg" xmlns:xlink="http://www.w3.org/1999/xlink" x="0px" y="0px" width="40px"
	 height="6.519px" viewBox="0 0 40 6.519" style="enable-background:new 0 0 40 6.519;" xml:space="preserve">
<style type="text/css">
	.st0{fill-rule:evenodd;clip-rule:evenodd;fill:#A50343;}
	.st1{fill-rule:evenodd;clip-rule:evenodd;fill:#003671;}
	.st2{fill:#003671;}
	.st3{fill:#A50343;}
</style>
<g>
	<path class="st0" d="M2.664,5.503c0-0.159,0-0.269,0-0.328c0-0.058,0-0.101,0.004-0.129c0-0.038,0.008-0.068,0.02-0.087
		C2.696,4.942,2.716,4.93,2.74,4.926C2.764,4.921,2.78,4.92,2.792,4.92c0.012,0,0.016-0.004,0.016-0.013
		c0-0.011-0.008-0.016-0.032-0.016c-0.032,0-0.072,0.001-0.12,0.002c-0.044,0.003-0.068,0.005-0.08,0.005
		c-0.04-0.004-0.108-0.005-0.204-0.007c-0.024,0-0.036,0.005-0.036,0.016c0,0.009,0.008,0.013,0.016,0.013
		c0.02,0,0.04,0.003,0.064,0.008C2.46,4.936,2.484,4.975,2.488,5.046c0,0.021,0.004,0.174,0.004,0.457v0.372
		c0,0.211-0.004,0.364-0.012,0.46C2.476,6.367,2.472,6.392,2.464,6.412C2.456,6.433,2.44,6.447,2.42,6.452
		C2.4,6.457,2.38,6.461,2.36,6.461C2.348,6.462,2.344,6.467,2.344,6.473c0,0.011,0.012,0.016,0.032,0.016
		c0.092-0.003,0.16-0.005,0.2-0.006c0.032,0.001,0.116,0.003,0.252,0.006c0.02,0,0.032-0.005,0.032-0.016
		c0-0.006-0.004-0.011-0.016-0.013c-0.024,0-0.056-0.003-0.092-0.009c-0.028-0.005-0.048-0.019-0.06-0.04
		c-0.012-0.02-0.016-0.045-0.02-0.076C2.664,6.24,2.66,6.086,2.664,5.876V5.503z"/>
	<path class="st0" d="M6.356,5.503c0-0.16,0-0.27,0.004-0.328c0-0.058,0-0.101,0-0.129c0-0.038,0.008-0.068,0.02-0.087
		c0.012-0.019,0.032-0.03,0.06-0.034C6.468,4.921,6.488,4.92,6.508,4.92c0.008,0,0.012-0.004,0.016-0.013
		c0-0.011-0.012-0.016-0.032-0.016c-0.036,0-0.08,0.001-0.128,0.002C6.312,4.895,6.28,4.897,6.272,4.897
		C6.236,4.894,6.156,4.892,6.04,4.891c-0.024,0-0.032,0.005-0.032,0.016c0,0.009,0.004,0.013,0.016,0.013
		c0.024,0,0.048,0.002,0.068,0.007c0.036,0.005,0.06,0.017,0.072,0.038C6.172,4.982,6.18,5.009,6.18,5.046
		C6.184,5.068,6.184,5.22,6.184,5.503v0.372c0,0.211-0.004,0.364-0.012,0.46c0,0.031-0.008,0.056-0.016,0.076
		c-0.008,0.022-0.02,0.035-0.04,0.04c-0.02,0.005-0.044,0.009-0.064,0.009C6.044,6.462,6.036,6.467,6.036,6.473
		c0,0.011,0.012,0.016,0.036,0.016c0.032,0,0.072-0.001,0.116-0.004C6.232,6.484,6.26,6.483,6.272,6.483
		C6.368,6.487,6.548,6.491,6.82,6.495c0.052,0,0.088-0.003,0.104-0.01c0.012-0.008,0.02-0.024,0.024-0.047
		c0.008-0.035,0.016-0.075,0.024-0.121C6.976,6.272,6.98,6.241,6.98,6.226c0-0.021-0.004-0.032-0.012-0.032
		c-0.012,0-0.016,0.01-0.02,0.028C6.944,6.268,6.924,6.311,6.896,6.35c-0.024,0.028-0.06,0.046-0.1,0.053
		C6.752,6.409,6.704,6.413,6.648,6.413c-0.08,0-0.136-0.005-0.172-0.013C6.44,6.392,6.416,6.38,6.4,6.364
		C6.384,6.346,6.372,6.3,6.364,6.223C6.36,6.148,6.356,6.034,6.356,5.88V5.503z"/>
	<path class="st0" d="M8.192,5.503c0-0.159,0-0.269,0.004-0.328c0-0.058,0-0.101,0-0.129c0-0.038,0.008-0.068,0.02-0.087
		c0.012-0.018,0.028-0.03,0.056-0.034c0.02-0.005,0.04-0.007,0.052-0.007c0.008,0,0.012-0.004,0.016-0.013
		c0-0.011-0.012-0.016-0.032-0.016c-0.036,0-0.076,0.001-0.12,0.002c-0.044,0.003-0.072,0.005-0.08,0.005
		C8.068,4.894,8,4.892,7.9,4.891c-0.02,0-0.032,0.005-0.032,0.016c0,0.009,0.004,0.013,0.016,0.013c0.016,0,0.04,0.003,0.064,0.008
		c0.044,0.008,0.064,0.047,0.068,0.118C8.02,5.068,8.02,5.22,8.02,5.503v0.372c0,0.211-0.004,0.364-0.012,0.46
		c0,0.031-0.008,0.056-0.016,0.076c-0.008,0.022-0.02,0.035-0.04,0.04c-0.02,0.005-0.044,0.009-0.064,0.009
		C7.88,6.462,7.872,6.467,7.872,6.473c0,0.011,0.012,0.016,0.036,0.016C8,6.487,8.064,6.485,8.108,6.484
		C8.14,6.485,8.224,6.487,8.356,6.489c0.024,0,0.036-0.005,0.036-0.016c0-0.006-0.008-0.011-0.016-0.013
		c-0.028,0-0.06-0.003-0.092-0.009c-0.032-0.005-0.052-0.019-0.06-0.04C8.212,6.393,8.204,6.367,8.2,6.336
		c-0.008-0.096-0.012-0.25-0.008-0.46V5.503z"/>
	<path class="st0" d="M9.564,5.189c0.092,0.108,0.272,0.31,0.536,0.606c0.272,0.3,0.452,0.492,0.532,0.573
		c0.096,0.097,0.148,0.141,0.152,0.135c0.008,0,0.012-0.008,0.016-0.025c0-0.017,0-0.059,0-0.125l0.004-1.24
		c0-0.063,0.004-0.11,0.016-0.138c0.008-0.028,0.028-0.045,0.06-0.051c0.024-0.004,0.04-0.006,0.052-0.006
		c0.012,0,0.02-0.005,0.02-0.015c0-0.009-0.012-0.014-0.036-0.014c-0.04,0-0.076,0.001-0.108,0.002
		c-0.032,0.003-0.052,0.005-0.064,0.005c-0.036-0.004-0.108-0.005-0.216-0.007c-0.028,0-0.04,0.005-0.04,0.014
		c0,0.01,0.004,0.015,0.016,0.015c0.024,0,0.056,0.003,0.1,0.01c0.032,0.007,0.056,0.024,0.068,0.053
		c0.008,0.029,0.012,0.079,0.012,0.148l0.024,1.076c-0.096-0.108-0.26-0.292-0.492-0.553C9.856,5.255,9.64,5.013,9.564,4.929
		c-0.008-0.014-0.02-0.027-0.036-0.043C9.516,4.87,9.504,4.862,9.492,4.861c-0.004,0-0.012,0.006-0.016,0.019
		C9.472,4.895,9.472,4.924,9.472,4.967L9.468,6.18c0,0.093-0.004,0.159-0.008,0.199c-0.008,0.04-0.028,0.063-0.052,0.07
		c-0.036,0.01-0.064,0.014-0.084,0.012c-0.012,0-0.016,0.004-0.016,0.013c0,0.011,0.008,0.016,0.032,0.016
		c0.1-0.003,0.168-0.005,0.196-0.006C9.56,6.485,9.632,6.487,9.752,6.489c0.024,0,0.036-0.005,0.036-0.016
		c0-0.009-0.004-0.013-0.016-0.013c-0.024,0.002-0.056-0.003-0.1-0.012C9.644,6.441,9.624,6.42,9.612,6.383
		c-0.012-0.035-0.02-0.095-0.02-0.18L9.564,5.189z"/>
	<path class="st0" d="M12.124,5.876c0,0.211-0.004,0.364-0.012,0.46c-0.004,0.031-0.008,0.056-0.016,0.076
		c-0.008,0.022-0.024,0.035-0.044,0.04c-0.02,0.005-0.04,0.009-0.06,0.009c-0.012,0.002-0.016,0.007-0.016,0.013
		c0,0.011,0.012,0.016,0.032,0.016c0.032,0,0.072-0.001,0.12-0.004c0.044-0.002,0.072-0.003,0.08-0.003
		c0.044,0.005,0.212,0.008,0.508,0.012c0.04,0,0.068-0.002,0.084-0.008c0.012-0.006,0.024-0.021,0.028-0.047
		c0.008-0.028,0.012-0.066,0.02-0.114c0.004-0.048,0.008-0.078,0.008-0.091c0-0.019-0.004-0.029-0.016-0.03
		c-0.008,0-0.012,0.01-0.016,0.03c-0.012,0.082-0.044,0.133-0.092,0.153c-0.028,0.009-0.06,0.016-0.1,0.018
		c-0.036,0.003-0.072,0.005-0.1,0.005c-0.096,0.001-0.16-0.01-0.192-0.033c-0.028-0.024-0.044-0.07-0.048-0.14
		c0-0.107,0-0.227,0-0.361V5.691c0-0.009,0.008-0.014,0.016-0.014c0.088,0,0.184,0.004,0.292,0.01
		c0.04,0.004,0.068,0.013,0.084,0.028c0.012,0.014,0.02,0.03,0.024,0.046c0.004,0.027,0.008,0.049,0.008,0.069
		c0,0.013,0.004,0.019,0.016,0.019c0.008,0,0.012-0.005,0.012-0.016c0-0.008,0-0.016,0-0.023c0-0.031,0.004-0.076,0.008-0.136
		c0.012-0.068,0.016-0.108,0.02-0.119c0-0.011-0.004-0.017-0.012-0.017c-0.008,0-0.016,0.009-0.028,0.027
		c-0.02,0.018-0.052,0.028-0.1,0.03c-0.032,0.001-0.088,0.002-0.168,0.002c-0.08,0.001-0.136,0.002-0.16,0.002
		c-0.008,0-0.012-0.007-0.012-0.021V4.995c0-0.015,0.004-0.021,0.012-0.021c0.024,0,0.068,0,0.14,0
		c0.072,0.002,0.12,0.004,0.144,0.006c0.052,0.006,0.088,0.015,0.112,0.028c0.016,0.012,0.028,0.027,0.032,0.044
		c0.008,0.031,0.012,0.056,0.012,0.075c0,0.019,0.008,0.028,0.016,0.028c0.008-0.001,0.016-0.009,0.016-0.024
		c0.004-0.048,0.008-0.095,0.012-0.139c0.008-0.055,0.016-0.088,0.016-0.099c0-0.011-0.004-0.017-0.008-0.018
		c-0.008,0.001-0.02,0.005-0.028,0.01c-0.02,0.004-0.048,0.008-0.088,0.01c-0.172,0.001-0.332,0.003-0.472,0.003
		c-0.036-0.004-0.112-0.005-0.232-0.007c-0.02,0-0.032,0.005-0.032,0.016c0,0.009,0.004,0.013,0.016,0.013
		c0.024,0,0.048,0.002,0.072,0.007c0.032,0.005,0.056,0.017,0.068,0.038c0.012,0.018,0.016,0.046,0.02,0.082
		c0,0.021,0.004,0.174,0.004,0.459V5.876z"/>
	<path class="st0" d="M14.136,6.519c0.116,0,0.22-0.029,0.312-0.089c0.036-0.028,0.068-0.058,0.092-0.089
		c0.02-0.032,0.036-0.064,0.048-0.095c0.024-0.067,0.036-0.123,0.036-0.167c0-0.083-0.02-0.163-0.06-0.24
		c-0.04-0.075-0.12-0.161-0.24-0.257l-0.056-0.046c-0.096-0.08-0.16-0.146-0.2-0.195c-0.036-0.052-0.052-0.104-0.052-0.161
		c0-0.079,0.028-0.14,0.076-0.182c0.044-0.043,0.104-0.063,0.176-0.063c0.048,0,0.088,0.004,0.12,0.012
		c0.032,0.008,0.06,0.02,0.076,0.034c0.02,0.012,0.036,0.024,0.044,0.036c0.008,0.012,0.016,0.022,0.02,0.03
		c0.004,0.011,0.012,0.027,0.016,0.05c0.004,0.022,0.008,0.04,0.008,0.055c0,0.018,0.004,0.028,0.016,0.028
		c0.012,0,0.016-0.017,0.016-0.05c0-0.14,0.004-0.214,0.008-0.223c0-0.009-0.008-0.014-0.02-0.014c-0.012,0-0.04-0.004-0.072-0.01
		c-0.028-0.007-0.052-0.013-0.084-0.018c-0.032-0.003-0.068-0.004-0.108-0.004c-0.276,0.007-0.42,0.134-0.424,0.381
		c0,0.07,0.016,0.142,0.052,0.215c0.036,0.071,0.108,0.152,0.216,0.244l0.092,0.079c0.084,0.072,0.148,0.135,0.184,0.19
		c0.032,0.057,0.052,0.12,0.052,0.192c0,0.07-0.028,0.133-0.076,0.19c-0.048,0.059-0.124,0.089-0.22,0.091
		c-0.072,0.002-0.136-0.015-0.196-0.05c-0.056-0.032-0.092-0.087-0.112-0.165c-0.004-0.032-0.008-0.057-0.004-0.079
		c0-0.015-0.008-0.022-0.016-0.022S13.84,6.135,13.84,6.157c-0.004,0.039-0.008,0.113-0.012,0.224c0,0.027,0.004,0.045,0.008,0.055
		c0.004,0.01,0.012,0.018,0.024,0.026C13.948,6.5,14.04,6.519,14.136,6.519z"/>
	<path class="st0" d="M17.576,6.519c0.068,0,0.136-0.004,0.204-0.012c0.068-0.009,0.124-0.021,0.164-0.037
		c0.02-0.008,0.032-0.017,0.036-0.024C17.988,6.44,17.992,6.428,18,6.409c0.008-0.042,0.02-0.095,0.028-0.158
		c0.012-0.063,0.016-0.101,0.016-0.112c0-0.019-0.004-0.03-0.016-0.032c-0.008,0-0.016,0.011-0.02,0.032
		c0,0.022-0.008,0.049-0.02,0.085c-0.012,0.036-0.032,0.067-0.056,0.093c-0.04,0.041-0.088,0.069-0.148,0.083
		c-0.06,0.015-0.128,0.023-0.208,0.023c-0.22-0.003-0.4-0.082-0.532-0.237c-0.136-0.15-0.204-0.33-0.208-0.537
		c0-0.109,0.012-0.21,0.04-0.302c0.024-0.093,0.072-0.176,0.148-0.249c0.016-0.02,0.04-0.039,0.064-0.058
		c0.028-0.016,0.06-0.032,0.096-0.048c0.036-0.015,0.08-0.027,0.132-0.036c0.052-0.008,0.108-0.012,0.176-0.012
		c0.192,0.004,0.328,0.044,0.408,0.12c0.028,0.024,0.052,0.055,0.064,0.093c0.016,0.038,0.024,0.079,0.024,0.123
		c0,0.03,0.004,0.044,0.016,0.044c0.012,0.002,0.016-0.013,0.02-0.044c0-0.054,0-0.126,0.004-0.218
		C18.036,4.99,18.036,4.95,18.04,4.94c0-0.012-0.008-0.019-0.028-0.023c-0.06-0.006-0.132-0.016-0.208-0.031
		c-0.108-0.017-0.208-0.026-0.296-0.026c-0.156,0.001-0.284,0.022-0.384,0.064c-0.1,0.044-0.18,0.097-0.24,0.162
		c-0.092,0.096-0.152,0.198-0.184,0.304c-0.032,0.108-0.048,0.198-0.048,0.273c0,0.102,0.016,0.208,0.052,0.318
		c0.036,0.111,0.1,0.214,0.196,0.309C17.052,6.442,17.28,6.518,17.576,6.519z"/>
	<path class="st1" d="M9.276,1.226L8.832,2.158C8.74,2.136,8.656,2.125,8.584,2.125c-0.232,0-0.42,0.084-0.568,0.25
		C7.876,2.541,7.76,2.807,7.684,3.173L7.432,4.352H6.224l0.668-3.149h1.132l-0.14,0.62l0.012,0.012
		c0.188-0.28,0.356-0.466,0.496-0.562C8.536,1.178,8.692,1.13,8.86,1.13C8.988,1.13,9.128,1.163,9.276,1.226"/>
	<polygon class="st1" points="6.528,1.203 5.848,4.352 4.636,4.352 5.308,1.203 	"/>
	<polygon class="st1" points="6.776,0 6.604,0.83 5.396,0.83 5.564,0 	"/>
	<path class="st2" d="M3.892,0H2.456L0,4.352h1.448l0.34-0.713h1.416l0.06,0.713h1.32L3.892,0z M2.228,2.716L2.976,1.13h0.012
		L3.12,2.716H2.228z"/>
	<path class="st1" d="M37.928,1.689c0.332-0.372,0.74-0.559,1.216-0.559c0.288,0,0.5,0.073,0.644,0.219
		C39.928,1.494,40,1.673,40,1.885c0,0.127-0.04,0.377-0.12,0.748l-0.364,1.719h-1.212l0.312-1.463
		c0.076-0.359,0.112-0.563,0.112-0.615c0-0.174-0.076-0.262-0.236-0.262c-0.176,0-0.332,0.084-0.464,0.252
		c-0.136,0.167-0.236,0.408-0.3,0.722l-0.3,1.366h-1.216l0.676-3.149h1.132l-0.104,0.474L37.928,1.689z"/>
	<polygon class="st1" points="36.516,1.203 35.84,4.352 34.624,4.352 35.3,1.203 	"/>
	<polygon class="st1" points="36.764,0 36.592,0.83 35.384,0.83 35.556,0 	"/>
	<path class="st1" d="M34.8,1.956l-1.132,0.121c-0.032-0.19-0.176-0.284-0.424-0.284c-0.148,0-0.256,0.026-0.332,0.08
		C32.836,1.926,32.8,1.989,32.8,2.059c0,0.074,0.032,0.135,0.096,0.183c0.068,0.049,0.248,0.095,0.536,0.135
		c0.464,0.069,0.772,0.173,0.924,0.314c0.156,0.139,0.232,0.326,0.232,0.559c0,0.325-0.148,0.602-0.452,0.831
		c-0.3,0.23-0.756,0.344-1.372,0.344c-0.504,0-0.872-0.073-1.104-0.22c-0.236-0.146-0.372-0.387-0.412-0.724l1.192-0.104
		c0.052,0.255,0.22,0.383,0.508,0.383c0.132,0,0.248-0.029,0.352-0.086c0.1-0.058,0.152-0.14,0.152-0.246
		c0-0.097-0.036-0.162-0.112-0.196c-0.072-0.034-0.212-0.067-0.412-0.099c-0.472-0.073-0.788-0.185-0.956-0.332
		c-0.164-0.149-0.248-0.336-0.248-0.561c0-0.184,0.064-0.364,0.188-0.54c0.124-0.176,0.312-0.315,0.564-0.417
		c0.252-0.101,0.564-0.153,0.932-0.153c0.42,0,0.744,0.062,0.968,0.186C34.6,1.439,34.74,1.653,34.8,1.956z"/>
	<path class="st1" d="M29.352,1.689c0.332-0.372,0.736-0.559,1.216-0.559c0.284,0,0.496,0.073,0.64,0.219
		c0.144,0.145,0.216,0.323,0.216,0.535c0,0.127-0.04,0.377-0.12,0.748L30.94,4.352h-1.212l0.312-1.463
		c0.076-0.359,0.112-0.563,0.112-0.615c0-0.174-0.08-0.262-0.236-0.262c-0.18,0-0.336,0.084-0.468,0.252
		c-0.132,0.167-0.232,0.408-0.3,0.722l-0.296,1.366h-1.216l0.676-3.149h1.132L29.34,1.677L29.352,1.689z"/>
	<path class="st2" d="M27.384,1.558c-0.256-0.285-0.668-0.428-1.232-0.428c-0.412,0-0.768,0.084-1.068,0.252
		c-0.3,0.167-0.528,0.399-0.684,0.696c-0.16,0.297-0.236,0.605-0.236,0.923c0,0.406,0.132,0.745,0.392,1.017
		c0.264,0.273,0.672,0.408,1.224,0.408c0.436,0,0.804-0.088,1.1-0.265c0.3-0.175,0.52-0.414,0.668-0.715
		c0.152-0.3,0.224-0.595,0.224-0.887C27.772,2.177,27.644,1.843,27.384,1.558z M26.396,3.263c-0.132,0.231-0.312,0.346-0.54,0.346
		c-0.144,0-0.264-0.059-0.364-0.174c-0.1-0.115-0.152-0.261-0.152-0.435c0-0.241,0.064-0.478,0.192-0.709
		c0.128-0.232,0.32-0.348,0.576-0.348c0.124,0,0.232,0.042,0.336,0.124c0.1,0.082,0.152,0.225,0.152,0.428
		C26.596,2.777,26.528,3.033,26.396,3.263z"/>
	<path class="st1" d="M24.268,2.298l-1.092,0.059c-0.052-0.275-0.236-0.413-0.556-0.413c-0.292,0-0.52,0.12-0.68,0.358
		C21.784,2.54,21.704,2.8,21.704,3.081c0,0.17,0.056,0.301,0.168,0.392c0.116,0.091,0.236,0.137,0.368,0.137
		c0.32,0,0.56-0.178,0.716-0.535l1.132,0.122c-0.28,0.819-0.912,1.229-1.896,1.229c-1.112,0-1.668-0.454-1.668-1.362
		c0-0.529,0.184-0.982,0.552-1.362c0.364-0.38,0.88-0.571,1.544-0.571c0.476,0,0.86,0.098,1.144,0.293
		C24.048,1.618,24.216,1.909,24.268,2.298z"/>
	<path class="st1" d="M20.54,1.956l-1.128,0.121c-0.036-0.19-0.176-0.284-0.428-0.284c-0.144,0-0.256,0.026-0.332,0.08
		C18.58,1.926,18.54,1.989,18.54,2.059c0,0.074,0.036,0.135,0.1,0.183c0.064,0.049,0.244,0.095,0.532,0.135
		c0.468,0.069,0.776,0.173,0.928,0.314c0.156,0.139,0.232,0.326,0.232,0.559c0,0.325-0.152,0.602-0.452,0.831
		c-0.3,0.23-0.76,0.344-1.376,0.344c-0.5,0-0.868-0.073-1.104-0.22c-0.232-0.146-0.368-0.387-0.408-0.724l1.192-0.104
		c0.052,0.255,0.22,0.383,0.504,0.383c0.132,0,0.252-0.029,0.352-0.086c0.104-0.058,0.152-0.14,0.152-0.246
		c0-0.097-0.036-0.162-0.108-0.196c-0.072-0.034-0.212-0.067-0.416-0.099C18.2,3.062,17.88,2.95,17.716,2.803
		c-0.168-0.149-0.252-0.336-0.252-0.561c0-0.184,0.064-0.364,0.188-0.54c0.124-0.176,0.316-0.315,0.568-0.417
		c0.252-0.101,0.56-0.153,0.928-0.153c0.424,0,0.744,0.062,0.972,0.186C20.344,1.439,20.484,1.653,20.54,1.956z"/>
	<polygon class="st1" points="17.332,1.203 16.652,4.352 15.44,4.352 16.112,1.203 	"/>
	<polygon class="st1" points="17.58,0 17.408,0.83 16.2,0.83 16.368,0 	"/>
	<polygon class="st1" points="16.312,0 14.264,4.352 12.944,4.352 12.84,1.683 12.828,1.683 11.588,4.352 10.244,4.352 10.128,0 
		11.34,0 11.276,2.657 11.292,2.668 12.492,0 13.8,0 13.86,2.686 13.872,2.686 14.992,0 	"/>
	<path class="st3" d="M1.548,6.461C1.528,6.462,1.5,6.458,1.464,6.448C1.444,6.444,1.42,6.426,1.392,6.395
		C1.36,6.364,1.328,6.303,1.288,6.213C1.084,5.667,0.924,5.241,0.812,4.937c-0.02-0.054-0.036-0.08-0.044-0.076
		C0.76,4.858,0.744,4.885,0.72,4.942L0.256,6.258C0.24,6.311,0.22,6.356,0.192,6.391C0.168,6.428,0.132,6.45,0.084,6.456
		c-0.02,0.002-0.04,0.004-0.06,0.004c-0.012,0-0.016,0.004-0.016,0.013c0,0.011,0.012,0.016,0.036,0.016
		C0.16,6.486,0.236,6.485,0.276,6.484c0.04,0.001,0.092,0.003,0.16,0.006c0.02,0,0.028-0.005,0.032-0.016
		c0-0.009-0.008-0.013-0.02-0.013h-0.02c-0.02,0-0.036-0.006-0.052-0.017C0.36,6.436,0.348,6.421,0.348,6.399
		c0-0.039,0.012-0.087,0.028-0.141L0.5,5.882c0.004-0.011,0.012-0.016,0.02-0.016h0.44c0.012,0,0.016,0.004,0.02,0.012l0.192,0.522
		c0.004,0.018,0.004,0.03,0.004,0.038C1.172,6.448,1.164,6.453,1.16,6.456C1.148,6.457,1.144,6.462,1.144,6.471
		c0,0.009,0.02,0.014,0.06,0.014c0.164,0.003,0.272,0.004,0.324,0.004c0.024,0,0.04-0.005,0.04-0.016
		C1.568,6.464,1.56,6.461,1.548,6.461z M0.936,5.789H0.544c-0.008,0-0.008-0.005-0.008-0.014l0.18-0.572
		c0.012-0.032,0.024-0.032,0.032,0l0.196,0.572C0.948,5.784,0.944,5.789,0.936,5.789z"/>
	<path class="st3" d="M5.356,6.461c-0.012,0.002-0.04,0-0.08-0.007C5.252,6.451,5.22,6.44,5.176,6.419
		C5.132,6.399,5.084,6.36,5.028,6.302c-0.116-0.136-0.26-0.316-0.424-0.542C4.692,5.672,4.76,5.588,4.796,5.508
		c0.036-0.08,0.052-0.159,0.052-0.236c0-0.075-0.016-0.138-0.048-0.187C4.784,5.06,4.772,5.039,4.756,5.022
		C4.74,5.005,4.724,4.992,4.708,4.983C4.656,4.944,4.596,4.918,4.532,4.905C4.468,4.895,4.4,4.891,4.336,4.891
		C4.232,4.893,4.152,4.895,4.092,4.897C4.056,4.894,3.98,4.892,3.86,4.891c-0.02,0-0.032,0.005-0.032,0.016
		c0,0.009,0.004,0.013,0.016,0.013c0.024,0,0.048,0.002,0.068,0.007c0.036,0.005,0.06,0.017,0.072,0.038
		C3.996,4.982,4,5.009,4,5.046C4.004,5.068,4.004,5.22,4.004,5.504v0.371c0,0.211,0,0.365-0.008,0.461
		C3.992,6.367,3.988,6.392,3.98,6.412c-0.008,0.022-0.024,0.035-0.044,0.04c-0.02,0.005-0.04,0.009-0.06,0.009
		C3.864,6.462,3.86,6.467,3.86,6.473c0,0.011,0.008,0.016,0.032,0.016c0.092-0.003,0.156-0.005,0.192-0.006
		C4.116,6.485,4.2,6.486,4.336,6.489c0.02,0,0.032-0.005,0.032-0.016c0-0.006-0.004-0.011-0.016-0.013
		c-0.024,0-0.056-0.003-0.092-0.009C4.228,6.447,4.208,6.433,4.2,6.412C4.188,6.393,4.184,6.367,4.18,6.336
		C4.172,6.24,4.168,6.086,4.168,5.875V5.824c0-0.011,0.008-0.016,0.016-0.016l0.252,0.004c0.012,0,0.02,0.004,0.028,0.012
		c0.052,0.074,0.124,0.178,0.22,0.313c0.06,0.08,0.108,0.145,0.152,0.195C4.88,6.385,4.92,6.423,4.964,6.449
		c0.024,0.015,0.052,0.025,0.088,0.03C5.08,6.486,5.124,6.489,5.18,6.489h0.148c0.032,0,0.052-0.005,0.048-0.016
		C5.376,6.467,5.368,6.462,5.356,6.461z M4.476,5.74C4.452,5.745,4.424,5.747,4.4,5.747c-0.048,0-0.092-0.003-0.128-0.01
		C4.232,5.731,4.2,5.723,4.184,5.715C4.176,5.707,4.168,5.698,4.168,5.689V4.996c0-0.012,0.008-0.019,0.016-0.024
		c0.028-0.007,0.072-0.011,0.14-0.013C4.556,4.963,4.676,5.105,4.68,5.382C4.676,5.546,4.632,5.654,4.552,5.708
		C4.528,5.723,4.504,5.734,4.476,5.74z"/>
	<path class="st3" d="M20.3,5.07c-0.144-0.138-0.336-0.208-0.572-0.209c-0.28,0.007-0.484,0.102-0.616,0.284
		c-0.128,0.178-0.192,0.359-0.192,0.543c0,0.202,0.06,0.388,0.188,0.556c0.124,0.178,0.328,0.269,0.608,0.275
		c0.248-0.004,0.448-0.089,0.596-0.256c0.144-0.164,0.22-0.367,0.22-0.61C20.528,5.405,20.452,5.21,20.3,5.07z M20.276,6.083
		c-0.04,0.096-0.092,0.17-0.152,0.222C20.064,6.356,20,6.391,19.936,6.409c-0.06,0.02-0.116,0.03-0.168,0.03
		c-0.188-0.001-0.344-0.075-0.464-0.222c-0.124-0.144-0.188-0.34-0.192-0.588c0.004-0.232,0.06-0.407,0.176-0.522
		c0.108-0.116,0.252-0.174,0.424-0.174c0.168,0,0.312,0.067,0.436,0.198c0.12,0.134,0.184,0.327,0.188,0.583
		C20.332,5.866,20.316,5.989,20.276,6.083z"/>
	<path class="st3" d="M22.96,6.461c-0.012,0.002-0.04,0-0.08-0.007c-0.024-0.003-0.056-0.014-0.1-0.035
		c-0.044-0.02-0.092-0.059-0.148-0.117c-0.116-0.136-0.26-0.316-0.428-0.542c0.092-0.089,0.16-0.173,0.196-0.253
		c0.036-0.08,0.052-0.159,0.052-0.236c0-0.075-0.016-0.138-0.048-0.187c-0.016-0.025-0.028-0.046-0.044-0.063
		c-0.016-0.017-0.032-0.03-0.048-0.039c-0.056-0.039-0.112-0.065-0.176-0.078c-0.064-0.01-0.132-0.014-0.2-0.014
		c-0.1,0.003-0.18,0.005-0.24,0.007c-0.036-0.003-0.112-0.005-0.232-0.007c-0.024,0-0.032,0.005-0.032,0.016
		c0,0.009,0.004,0.013,0.016,0.013c0.024,0,0.048,0.002,0.068,0.007c0.036,0.005,0.06,0.017,0.072,0.038
		c0.008,0.018,0.016,0.046,0.016,0.082c0.004,0.021,0.004,0.174,0.004,0.458v0.371c0,0.211-0.004,0.365-0.008,0.461
		c-0.004,0.031-0.008,0.056-0.016,0.076c-0.008,0.022-0.024,0.035-0.044,0.04c-0.02,0.005-0.04,0.009-0.064,0.009
		c-0.008,0.002-0.016,0.007-0.016,0.013c0,0.011,0.012,0.016,0.036,0.016c0.092-0.003,0.156-0.005,0.192-0.006
		c0.032,0.001,0.116,0.003,0.252,0.006c0.02,0,0.032-0.005,0.032-0.016c0-0.006-0.004-0.011-0.016-0.013
		c-0.024,0-0.056-0.003-0.092-0.009c-0.032-0.005-0.052-0.019-0.06-0.04c-0.012-0.019-0.016-0.044-0.02-0.076
		c-0.008-0.096-0.012-0.25-0.012-0.461V5.824c0-0.011,0.004-0.016,0.016-0.016l0.252,0.004c0.012,0,0.02,0.004,0.024,0.012
		c0.052,0.074,0.128,0.178,0.224,0.313c0.06,0.08,0.108,0.145,0.152,0.195c0.044,0.052,0.084,0.091,0.124,0.116
		c0.028,0.015,0.056,0.025,0.088,0.03c0.032,0.007,0.076,0.011,0.132,0.011h0.148c0.032,0,0.048-0.005,0.048-0.016
		C22.976,6.467,22.972,6.462,22.96,6.461z M22.08,5.74c-0.028,0.005-0.052,0.008-0.076,0.008c-0.048,0-0.092-0.003-0.132-0.01
		c-0.04-0.007-0.068-0.014-0.084-0.023c-0.012-0.008-0.016-0.016-0.016-0.026V4.996c0-0.012,0.008-0.019,0.016-0.024
		c0.028-0.007,0.072-0.011,0.14-0.013c0.232,0.004,0.348,0.146,0.352,0.424c0,0.164-0.044,0.272-0.124,0.325
		C22.132,5.723,22.108,5.734,22.08,5.74z"/>
	<path class="st0" d="M23.788,5.876c0,0.211-0.004,0.364-0.012,0.46c0,0.031-0.008,0.056-0.016,0.076
		c-0.008,0.022-0.02,0.035-0.04,0.04c-0.024,0.005-0.044,0.009-0.064,0.009c-0.008,0.002-0.016,0.007-0.016,0.013
		c0,0.011,0.012,0.016,0.032,0.016c0.096-0.003,0.16-0.005,0.196-0.006c0.036,0.001,0.12,0.003,0.252,0.006
		c0.024,0,0.036-0.005,0.036-0.016c0-0.006-0.008-0.011-0.016-0.013c-0.028,0-0.056-0.003-0.092-0.009
		c-0.032-0.005-0.052-0.019-0.06-0.04c-0.012-0.02-0.02-0.045-0.02-0.076c-0.012-0.096-0.012-0.25-0.012-0.46v-0.87
		c0-0.023,0.004-0.036,0.016-0.04c0.024-0.009,0.052-0.013,0.088-0.013c0.028-0.002,0.068,0.001,0.12,0.009
		c0.052,0.01,0.108,0.042,0.16,0.097c0.032,0.029,0.052,0.057,0.068,0.087c0.016,0.031,0.028,0.061,0.036,0.091
		c0.008,0.029,0.012,0.056,0.012,0.08c0,0.025,0,0.047,0,0.068c0,0.099-0.036,0.18-0.1,0.244C24.288,5.696,24.204,5.73,24.1,5.731
		c-0.02,0-0.032,0.001-0.04,0.002c-0.008,0.003-0.012,0.009-0.012,0.016c0,0.01,0.008,0.015,0.02,0.015
		c0.016,0.001,0.032,0.002,0.044,0.002c0.148-0.001,0.268-0.048,0.364-0.139c0.092-0.09,0.136-0.211,0.14-0.365
		c-0.004-0.058-0.012-0.11-0.032-0.154c-0.024-0.045-0.048-0.077-0.072-0.097c-0.004-0.01-0.016-0.022-0.032-0.034
		c-0.02-0.014-0.044-0.028-0.072-0.04c-0.028-0.014-0.064-0.025-0.112-0.034c-0.044-0.009-0.096-0.012-0.164-0.012
		c-0.108,0.003-0.196,0.005-0.256,0.007c-0.04-0.004-0.12-0.005-0.232-0.007c-0.024,0-0.036,0.005-0.036,0.016
		c0,0.009,0.008,0.013,0.02,0.013c0.024,0,0.048,0.002,0.068,0.007c0.036,0.005,0.056,0.017,0.068,0.038
		c0.012,0.018,0.02,0.046,0.02,0.082c0.004,0.021,0.004,0.174,0.004,0.458V5.876z"/>
	<path class="st3" d="M26.88,5.07c-0.148-0.138-0.34-0.208-0.576-0.209c-0.28,0.007-0.484,0.102-0.612,0.284
		c-0.132,0.178-0.196,0.359-0.196,0.543c0,0.202,0.064,0.388,0.188,0.556c0.128,0.178,0.328,0.269,0.608,0.275
		c0.252-0.004,0.448-0.089,0.596-0.256c0.148-0.164,0.22-0.367,0.22-0.61C27.108,5.405,27.032,5.21,26.88,5.07z M26.852,6.083
		c-0.04,0.096-0.092,0.17-0.152,0.222c-0.06,0.051-0.12,0.086-0.184,0.103c-0.064,0.02-0.12,0.03-0.168,0.03
		c-0.188-0.001-0.344-0.075-0.468-0.222c-0.124-0.144-0.188-0.34-0.188-0.588c0-0.232,0.06-0.407,0.172-0.522
		c0.112-0.116,0.252-0.174,0.428-0.174c0.164,0,0.312,0.067,0.432,0.198c0.124,0.134,0.188,0.327,0.188,0.583
		C26.912,5.866,26.892,5.989,26.852,6.083z"/>
	<path class="st3" d="M29.54,6.461c-0.016,0.002-0.04,0-0.08-0.007c-0.028-0.003-0.06-0.014-0.1-0.035
		c-0.044-0.02-0.096-0.059-0.152-0.117c-0.116-0.136-0.26-0.316-0.424-0.542c0.092-0.089,0.156-0.173,0.196-0.253
		c0.032-0.08,0.052-0.159,0.052-0.236c-0.004-0.075-0.02-0.138-0.052-0.187c-0.012-0.025-0.028-0.046-0.044-0.063
		c-0.016-0.017-0.032-0.03-0.044-0.039c-0.056-0.039-0.116-0.065-0.18-0.078c-0.064-0.01-0.128-0.014-0.196-0.014
		c-0.1,0.003-0.184,0.005-0.244,0.007c-0.036-0.003-0.112-0.005-0.232-0.007c-0.02,0-0.032,0.005-0.032,0.016
		c0,0.009,0.008,0.013,0.016,0.013c0.028,0,0.048,0.002,0.072,0.007c0.032,0.005,0.056,0.017,0.068,0.038
		c0.012,0.018,0.016,0.046,0.02,0.082c0,0.021,0.004,0.174,0.004,0.458v0.371c0,0.211-0.004,0.365-0.012,0.461
		c-0.004,0.031-0.008,0.056-0.016,0.076c-0.008,0.022-0.024,0.035-0.044,0.04c-0.02,0.005-0.04,0.009-0.06,0.009
		c-0.012,0.002-0.016,0.007-0.016,0.013c0,0.011,0.012,0.016,0.032,0.016c0.096-0.003,0.16-0.005,0.192-0.006
		c0.032,0.001,0.116,0.003,0.252,0.006c0.024,0,0.032-0.005,0.032-0.016c0-0.006-0.004-0.011-0.016-0.013
		c-0.024,0-0.056-0.003-0.092-0.009c-0.028-0.005-0.048-0.019-0.06-0.04c-0.008-0.019-0.016-0.044-0.02-0.076
		c-0.008-0.096-0.012-0.25-0.008-0.461V5.824c0-0.011,0.004-0.016,0.012-0.016l0.252,0.004c0.012,0,0.02,0.004,0.028,0.012
		c0.052,0.074,0.124,0.178,0.224,0.313c0.056,0.08,0.108,0.145,0.152,0.195c0.04,0.052,0.08,0.091,0.124,0.116
		c0.024,0.015,0.056,0.025,0.088,0.03c0.032,0.007,0.076,0.011,0.132,0.011h0.144c0.036,0,0.052-0.005,0.048-0.016
		C29.556,6.467,29.548,6.462,29.54,6.461z M28.66,5.74c-0.028,0.005-0.056,0.008-0.08,0.008c-0.048,0-0.088-0.003-0.128-0.01
		c-0.04-0.007-0.068-0.014-0.088-0.023c-0.008-0.008-0.012-0.016-0.012-0.026V4.996c0-0.012,0.004-0.019,0.016-0.024
		c0.024-0.007,0.072-0.011,0.136-0.013c0.232,0.004,0.352,0.146,0.356,0.424c-0.004,0.164-0.044,0.272-0.124,0.325
		C28.712,5.723,28.684,5.734,28.66,5.74z"/>
	<path class="st3" d="M31.496,6.461c-0.02,0.002-0.048-0.003-0.08-0.012c-0.02-0.004-0.048-0.022-0.076-0.053
		c-0.032-0.031-0.064-0.092-0.1-0.182c-0.208-0.546-0.368-0.972-0.48-1.276c-0.02-0.054-0.036-0.08-0.044-0.076
		c-0.008-0.003-0.024,0.024-0.044,0.081l-0.468,1.316c-0.016,0.053-0.036,0.098-0.064,0.133c-0.024,0.037-0.06,0.059-0.104,0.065
		c-0.024,0.002-0.044,0.004-0.064,0.004c-0.008,0-0.016,0.004-0.016,0.013c0,0.011,0.012,0.016,0.04,0.016
		c0.112-0.003,0.192-0.005,0.232-0.006c0.036,0.001,0.092,0.003,0.16,0.006c0.016,0,0.028-0.005,0.028-0.016
		c0-0.009-0.008-0.013-0.02-0.013h-0.02c-0.016,0-0.036-0.006-0.048-0.017C30.308,6.436,30.3,6.421,30.3,6.399
		c0-0.039,0.008-0.087,0.028-0.141l0.12-0.376c0.004-0.011,0.012-0.016,0.024-0.016h0.44c0.008,0,0.016,0.004,0.016,0.012
		l0.192,0.522c0.004,0.018,0.008,0.03,0.004,0.038c-0.004,0.01-0.008,0.016-0.016,0.019c-0.012,0.001-0.016,0.006-0.016,0.015
		c0,0.009,0.02,0.014,0.064,0.014c0.16,0.003,0.268,0.004,0.32,0.004c0.028,0,0.04-0.005,0.04-0.016
		C31.516,6.464,31.512,6.461,31.496,6.461z M30.884,5.789h-0.392c-0.008,0-0.008-0.005-0.004-0.014l0.18-0.572
		c0.008-0.032,0.02-0.032,0.028,0l0.196,0.572C30.896,5.784,30.892,5.789,30.884,5.789z"/>
	<path class="st0" d="M32.728,4.981l0.26,0.005C33.084,4.988,33.148,5,33.184,5.02c0.036,0.022,0.056,0.049,0.056,0.082v0.022
		c0.004,0.025,0.008,0.037,0.016,0.036c0.012,0,0.016-0.009,0.016-0.028c0.004-0.056,0.004-0.134,0.008-0.232
		c0-0.015-0.004-0.023-0.012-0.024c-0.008,0-0.028,0.004-0.056,0.011c-0.016,0.001-0.036,0.003-0.06,0.006
		c-0.024,0.003-0.052,0.005-0.088,0.005h-0.768c-0.036,0-0.092-0.004-0.16-0.011c-0.052-0.015-0.08-0.023-0.092-0.026
		c-0.008,0.004-0.016,0.017-0.02,0.04C32.02,4.916,32.012,4.951,32,5.009c-0.004,0.027-0.008,0.049-0.012,0.069
		C31.98,5.1,31.98,5.114,31.98,5.121c0,0.013,0.004,0.02,0.008,0.02c0.008,0.002,0.016-0.007,0.02-0.022
		c0.004-0.011,0.016-0.033,0.036-0.065C32.06,5.028,32.084,5.011,32.112,5c0.032-0.01,0.08-0.014,0.14-0.014l0.304-0.005v0.895
		c0,0.21-0.004,0.364-0.012,0.46c0,0.031-0.008,0.057-0.016,0.076c-0.008,0.022-0.02,0.035-0.04,0.04
		c-0.02,0.005-0.044,0.009-0.06,0.009c-0.012,0.002-0.02,0.007-0.02,0.013c0,0.011,0.012,0.016,0.036,0.016
		c0.092-0.003,0.156-0.005,0.2-0.006c0.032,0.001,0.116,0.003,0.252,0.006c0.02,0,0.032-0.005,0.032-0.016
		c0-0.006-0.008-0.011-0.016-0.013c-0.028,0-0.06-0.003-0.092-0.009c-0.032-0.005-0.052-0.019-0.06-0.04
		c-0.012-0.02-0.02-0.044-0.024-0.076c-0.008-0.096-0.008-0.25-0.008-0.46V4.981z"/>
	<path class="st0" d="M34.508,5.503c0-0.159,0.004-0.269,0.004-0.328c0-0.058,0-0.101,0-0.129c0.004-0.038,0.008-0.068,0.02-0.087
		c0.012-0.018,0.032-0.03,0.056-0.034c0.024-0.005,0.04-0.007,0.052-0.007c0.012,0,0.016-0.004,0.016-0.013
		c0-0.011-0.012-0.016-0.032-0.016c-0.032,0-0.072,0.001-0.12,0.002c-0.044,0.003-0.072,0.005-0.08,0.005
		c-0.04-0.004-0.108-0.005-0.208-0.007c-0.02,0-0.032,0.005-0.032,0.016c0,0.009,0.008,0.013,0.016,0.013
		c0.02,0,0.04,0.003,0.064,0.008c0.044,0.008,0.068,0.047,0.068,0.118c0.004,0.021,0.008,0.174,0.008,0.457v0.372
		c0,0.211-0.004,0.364-0.012,0.46c-0.004,0.031-0.008,0.056-0.016,0.076c-0.008,0.022-0.024,0.035-0.044,0.04
		c-0.02,0.005-0.04,0.009-0.06,0.009c-0.012,0.002-0.016,0.007-0.016,0.013c0,0.011,0.008,0.016,0.032,0.016
		c0.092-0.003,0.16-0.005,0.2-0.006c0.032,0.001,0.116,0.003,0.252,0.006c0.02,0,0.032-0.005,0.032-0.016
		c0-0.006-0.004-0.011-0.016-0.013c-0.028,0-0.056-0.003-0.092-0.009c-0.032-0.005-0.052-0.019-0.06-0.04
		c-0.012-0.02-0.016-0.045-0.02-0.076c-0.008-0.096-0.012-0.25-0.012-0.46V5.503z"/>
	<path class="st3" d="M36.948,5.07c-0.148-0.138-0.336-0.208-0.572-0.209c-0.28,0.007-0.488,0.102-0.616,0.284
		c-0.128,0.178-0.196,0.359-0.192,0.543c-0.004,0.202,0.06,0.388,0.188,0.556c0.124,0.178,0.328,0.269,0.608,0.275
		c0.248-0.004,0.448-0.089,0.596-0.256c0.144-0.164,0.22-0.367,0.22-0.61C37.176,5.405,37.1,5.21,36.948,5.07z M36.924,6.083
		c-0.044,0.096-0.092,0.17-0.152,0.222c-0.064,0.051-0.124,0.086-0.188,0.103c-0.06,0.02-0.116,0.03-0.168,0.03
		c-0.188-0.001-0.344-0.075-0.464-0.222c-0.124-0.144-0.188-0.34-0.192-0.588c0.004-0.232,0.06-0.407,0.172-0.522
		c0.112-0.116,0.256-0.174,0.428-0.174c0.168,0,0.312,0.067,0.436,0.198c0.12,0.134,0.184,0.327,0.188,0.583
		C36.98,5.866,36.96,5.989,36.924,6.083z"/>
	<path class="st0" d="M38.336,5.189c0.096,0.108,0.272,0.31,0.536,0.606c0.276,0.3,0.456,0.492,0.536,0.573
		c0.096,0.097,0.144,0.141,0.148,0.135c0.008,0,0.016-0.008,0.016-0.025c0.004-0.017,0.004-0.059,0.004-0.125l0.004-1.24
		c-0.004-0.063,0.004-0.11,0.012-0.138c0.012-0.028,0.032-0.045,0.064-0.051c0.024-0.004,0.04-0.006,0.048-0.006
		c0.016,0,0.024-0.005,0.024-0.015c0-0.009-0.016-0.014-0.036-0.014c-0.044,0-0.08,0.001-0.112,0.002
		c-0.028,0.003-0.052,0.005-0.064,0.005c-0.036-0.004-0.108-0.005-0.212-0.007c-0.028,0-0.04,0.005-0.04,0.014
		C39.26,4.914,39.268,4.92,39.28,4.92c0.02,0,0.056,0.003,0.1,0.01c0.032,0.007,0.052,0.024,0.064,0.053
		c0.012,0.029,0.016,0.079,0.016,0.148l0.02,1.076c-0.092-0.108-0.256-0.292-0.492-0.553c-0.356-0.399-0.572-0.641-0.648-0.725
		c-0.012-0.014-0.024-0.027-0.036-0.043c-0.016-0.016-0.028-0.024-0.036-0.026c-0.008,0-0.012,0.006-0.016,0.019
		c-0.004,0.015-0.008,0.044-0.008,0.087V6.18c0,0.093-0.004,0.159-0.012,0.199c-0.008,0.04-0.024,0.063-0.052,0.07
		c-0.036,0.01-0.064,0.014-0.084,0.012c-0.008,0-0.016,0.004-0.016,0.013c0,0.011,0.012,0.016,0.032,0.016
		c0.104-0.003,0.168-0.005,0.2-0.006c0.02,0.001,0.092,0.003,0.216,0.006c0.024,0,0.036-0.005,0.036-0.016
		c0-0.009-0.008-0.013-0.016-0.013c-0.024,0.002-0.06-0.003-0.104-0.012C38.42,6.441,38.4,6.42,38.388,6.383
		c-0.016-0.035-0.024-0.095-0.024-0.18L38.336,5.189z"/>
</g>
</svg>
