<?xml version="1.0" encoding="UTF-8"?>
<svg width="30px" height="23px" viewBox="0 0 30 23" version="1.1" xmlns="http://www.w3.org/2000/svg" xmlns:xlink="http://www.w3.org/1999/xlink">
    <!-- Generator: Sketch 49.1 (51147) - http://www.bohemiancoding.com/sketch -->
    <title>abn_theairmanagementgroup_s</title>
    <desc>Created with Sketch.</desc>
    <defs></defs>
    <g id="AVIA" stroke="none" stroke-width="1" fill="none" fill-rule="evenodd">
        <g id="abn_theairmanagementgroup_s">
            <g id="Group-23">
                <g id="Group-26">
                    <path d="M0,21.688029 L1.14793731,21.688029 L1.14793731,21.9973551 L0.762790587,21.9973551 L0.762790587,22.9407145 L0.385146723,22.9407145 L0.385146723,21.9973551 L0,21.9973551 L0,21.688029 Z M1.3461128,21.688029 L1.72375667,21.688029 L1.72375667,22.1263835 L2.13641387,22.1263835 L2.13641387,21.688029 L2.51572504,21.688029 L2.51572504,22.9407145 L2.13641387,22.9407145 L2.13641387,22.4340007 L1.72375667,22.4340007 L1.72375667,22.9407145 L1.3461128,22.9407145 L1.3461128,21.688029 Z M2.79143007,21.688029 L3.80348228,21.688029 L3.80348228,21.955485 L3.16990758,21.955485 L3.16990758,22.1545817 L3.75763148,22.1545817 L3.75763148,22.4100749 L3.16990758,22.4100749 L3.16990758,22.6570231 L3.8218226,22.6570231 L3.8218226,22.9407145 L2.79143007,22.9407145 L2.79143007,21.688029 Z M5.39778963,22.7339274 L4.96762576,22.7339274 L4.90843655,22.9407145 L4.52245617,22.9407145 L4.98179783,21.688029 L5.39362138,21.688029 L5.85296303,22.9407145 L5.4578125,22.9407145 L5.39778963,22.7339274 Z M5.3185928,22.4630534 L5.18354135,22.012736 L5.04932355,22.4630534 L5.3185928,22.4630534 Z M6.01445789,21.688029 L6.3929354,21.688029 L6.3929354,22.9407145 L6.01445789,22.9407145 L6.01445789,21.688029 Z M6.69448361,22.9407145 L6.69448361,21.688029 L7.32389005,21.688029 C7.44060176,21.688029 7.52980152,21.6982828 7.591492,21.7187907 C7.65318247,21.7392986 7.70292315,21.7773231 7.74071551,21.8328654 C7.77850787,21.8884077 7.79740377,21.9560543 7.79740377,22.0358073 C7.79740377,22.1053063 7.78295397,22.1652626 7.75405392,22.2156779 C7.72515388,22.2660932 7.68541692,22.306966 7.63484184,22.3382975 C7.60260718,22.3582358 7.55842412,22.3747558 7.50229135,22.3878581 C7.54730872,22.403239 7.58009866,22.4186197 7.60066216,22.4340007 C7.61455641,22.4442546 7.63470277,22.4661864 7.66110185,22.4997965 C7.68750092,22.5334067 7.70514636,22.5593261 7.71403868,22.5775553 L7.89660823,22.9407145 L7.46977896,22.9407145 L7.26803544,22.557902 C7.24247002,22.5083412 7.21968379,22.4761557 7.19967607,22.4613444 C7.17244333,22.4419758 7.14159856,22.4322917 7.10714081,22.4322917 L7.07379478,22.4322917 L7.07379478,22.9407145 L6.69448361,22.9407145 Z M7.07379478,22.1955973 L7.2330221,22.1955973 C7.25025097,22.1955973 7.28359668,22.1899008 7.33306021,22.1785075 C7.35806986,22.1733805 7.37849411,22.1602784 7.39433355,22.1392008 C7.410173,22.1181233 7.41809261,22.0939129 7.41809261,22.066569 C7.41809261,22.0261228 7.40558797,21.9950766 7.38057831,21.9734294 C7.35556866,21.9517821 7.3086068,21.9409587 7.23969131,21.9409587 L7.07379478,21.9409587 L7.07379478,22.1955973 Z M8.63392245,21.688029 L9.13077839,21.688029 L9.3225181,22.450236 L9.51342416,21.688029 L10.0086128,21.688029 L10.0086128,22.9407145 L9.70016196,22.9407145 L9.70016196,21.9853923 L9.46090415,22.9407145 L9.1816311,22.9407145 L8.94320693,21.9853923 L8.94320693,22.9407145 L8.63392245,22.9407145 L8.63392245,21.688029 Z M11.0271008,22.7339274 L10.5969369,22.7339274 L10.5377477,22.9407145 L10.1517673,22.9407145 L10.611109,21.688029 L11.0229325,21.688029 L11.4822742,22.9407145 L11.0871237,22.9407145 L11.0271008,22.7339274 Z M10.947904,22.4630534 L10.8128525,22.012736 L10.6786347,22.4630534 L10.947904,22.4630534 Z M11.6312643,21.688029 L11.9838986,21.688029 L12.4440739,22.3810221 L12.4440739,21.688029 L12.8000429,21.688029 L12.8000429,22.9407145 L12.4440739,22.9407145 L11.9863996,22.2528483 L11.9863996,22.9407145 L11.6312643,22.9407145 L11.6312643,21.688029 Z M13.8118617,22.7339274 L13.3816978,22.7339274 L13.3225086,22.9407145 L12.9365282,22.9407145 L13.3958699,21.688029 L13.8076934,21.688029 L14.2670351,22.9407145 L13.8718845,22.9407145 L13.8118617,22.7339274 Z M13.7326648,22.4630534 L13.5976134,22.012736 L13.4633956,22.4630534 L13.7326648,22.4630534 Z M14.9970798,22.4869792 L14.9970798,22.226359 L15.5806355,22.226359 L15.5806355,22.7604167 C15.4689257,22.8384607 15.3701391,22.8915811 15.2842726,22.9197795 C15.1984061,22.9479778 15.0965628,22.9620768 14.9787395,22.9620768 C14.8336835,22.9620768 14.7154452,22.9367271 14.6240211,22.886027 C14.5325969,22.8353269 14.4617373,22.7598475 14.4114401,22.6595866 C14.3611429,22.5593257 14.3359947,22.4442552 14.3359947,22.3143717 C14.3359947,22.1776523 14.3635049,22.0587367 14.4185261,21.9576213 C14.4735473,21.8565058 14.5541328,21.7797447 14.6602849,21.7273356 C14.7430946,21.6868894 14.8545248,21.6666667 14.9945789,21.6666667 C15.129631,21.6666667 15.2306407,21.6791991 15.297611,21.7042643 C15.3645813,21.7293296 15.4201575,21.7682086 15.4643412,21.8209025 C15.5085249,21.8735965 15.5417317,21.9403886 15.5639625,22.0212809 L15.199657,22.0879313 C15.1846512,22.0406492 15.1592251,22.004476 15.123378,21.9794108 C15.0875308,21.9543456 15.0418194,21.9418132 14.9862424,21.9418132 C14.9034326,21.9418132 14.8374359,21.9712928 14.7882503,22.0302531 C14.7390646,22.0892133 14.7144722,22.1824945 14.7144722,22.3100993 C14.7144722,22.4456794 14.7393425,22.5425209 14.7890839,22.6006266 C14.8388254,22.6587324 14.9081566,22.6877848 14.9970798,22.6877848 C15.0393184,22.6877848 15.0796111,22.6815186 15.1179592,22.668986 C15.1563074,22.6564534 15.2002125,22.6350913 15.2496761,22.6048991 L15.2496761,22.4869792 L14.9970798,22.4869792 Z M15.8296637,21.688029 L16.8417159,21.688029 L16.8417159,21.955485 L16.2081412,21.955485 L16.2081412,22.1545817 L16.7958651,22.1545817 L16.7958651,22.4100749 L16.2081412,22.4100749 L16.2081412,22.6570231 L16.8600562,22.6570231 L16.8600562,22.9407145 L15.8296637,22.9407145 L15.8296637,21.688029 Z M17.0849085,21.688029 L17.5817645,21.688029 L17.7735042,22.450236 L17.9644102,21.688029 L18.4595989,21.688029 L18.4595989,22.9407145 L18.1511481,22.9407145 L18.1511481,21.9853923 L17.9118902,22.9407145 L17.6326172,22.9407145 L17.394193,21.9853923 L17.394193,22.9407145 L17.0849085,22.9407145 L17.0849085,21.688029 Z M18.7253001,21.688029 L19.7373523,21.688029 L19.7373523,21.955485 L19.1037776,21.955485 L19.1037776,22.1545817 L19.6915015,22.1545817 L19.6915015,22.4100749 L19.1037776,22.4100749 L19.1037776,22.6570231 L19.7556926,22.6570231 L19.7556926,22.9407145 L18.7253001,22.9407145 L18.7253001,21.688029 Z M19.9872142,21.688029 L20.3398485,21.688029 L20.8000238,22.3810221 L20.8000238,21.688029 L21.1559928,21.688029 L21.1559928,22.9407145 L20.8000238,22.9407145 L20.3423495,22.2528483 L20.3423495,22.9407145 L19.9872142,22.9407145 L19.9872142,21.688029 Z M21.3466654,21.688029 L22.4946027,21.688029 L22.4946027,21.9973551 L22.109456,21.9973551 L22.109456,22.9407145 L21.7318121,22.9407145 L21.7318121,21.9973551 L21.3466654,21.9973551 L21.3466654,21.688029 Z M23.900505,22.4869792 L23.900505,22.226359 L24.4840606,22.226359 L24.4840606,22.7604167 C24.3723508,22.8384607 24.2735642,22.8915811 24.1876977,22.9197795 C24.1018312,22.9479778 23.9999879,22.9620768 23.8821646,22.9620768 C23.7371086,22.9620768 23.6188703,22.9367271 23.5274462,22.886027 C23.436022,22.8353269 23.3651624,22.7598475 23.3148652,22.6595866 C23.264568,22.5593257 23.2394198,22.4442552 23.2394198,22.3143717 C23.2394198,22.1776523 23.26693,22.0587367 23.3219512,21.9576213 C23.3769725,21.8565058 23.4575579,21.7797447 23.56371,21.7273356 C23.6465197,21.6868894 23.7579499,21.6666667 23.898004,21.6666667 C24.0330561,21.6666667 24.1340658,21.6791991 24.2010361,21.7042643 C24.2680064,21.7293296 24.3235826,21.7682086 24.3677663,21.8209025 C24.41195,21.8735965 24.4451568,21.9403886 24.4673876,22.0212809 L24.1030821,22.0879313 C24.0880763,22.0406492 24.0626502,22.004476 24.0268031,21.9794108 C23.9909559,21.9543456 23.9452445,21.9418132 23.8896675,21.9418132 C23.8068578,21.9418132 23.740861,21.9712928 23.6916754,22.0302531 C23.6424897,22.0892133 23.6178973,22.1824945 23.6178973,22.3100993 C23.6178973,22.4456794 23.6427676,22.5425209 23.692509,22.6006266 C23.7422505,22.6587324 23.8115817,22.6877848 23.900505,22.6877848 C23.9427435,22.6877848 23.9830362,22.6815186 24.0213843,22.668986 C24.0597325,22.6564534 24.1036376,22.6350913 24.1531012,22.6048991 L24.1531012,22.4869792 L23.900505,22.4869792 Z M24.7389243,22.9407145 L24.7389243,21.688029 L25.3683308,21.688029 C25.4850425,21.688029 25.5742423,21.6982828 25.6359327,21.7187907 C25.6976232,21.7392986 25.7473639,21.7773231 25.7851562,21.8328654 C25.8229486,21.8884077 25.8418445,21.9560543 25.8418445,22.0358073 C25.8418445,22.1053063 25.8273947,22.1652626 25.7984947,22.2156779 C25.7695946,22.2660932 25.7298577,22.306966 25.6792826,22.3382975 C25.6470479,22.3582358 25.6028649,22.3747558 25.5467321,22.3878581 C25.5917495,22.403239 25.6245394,22.4186197 25.6451029,22.4340007 C25.6589971,22.4442546 25.6791435,22.4661864 25.7055426,22.4997965 C25.7319417,22.5334067 25.7495871,22.5593261 25.7584794,22.5775553 L25.941049,22.9407145 L25.5142197,22.9407145 L25.3124762,22.557902 C25.2869108,22.5083412 25.2641245,22.4761557 25.2441168,22.4613444 C25.2168841,22.4419758 25.1860393,22.4322917 25.1515816,22.4322917 L25.1182355,22.4322917 L25.1182355,22.9407145 L24.7389243,22.9407145 Z M25.1182355,22.1955973 L25.2774628,22.1955973 C25.2946917,22.1955973 25.3280374,22.1899008 25.3775009,22.1785075 C25.4025106,22.1733805 25.4229348,22.1602784 25.4387743,22.1392008 C25.4546137,22.1181233 25.4625333,22.0939129 25.4625333,22.066569 C25.4625333,22.0261228 25.4500287,21.9950766 25.4250191,21.9734294 C25.4000094,21.9517821 25.3530475,21.9409587 25.284132,21.9409587 L25.1182355,21.9409587 L25.1182355,22.1955973 Z M26.0108422,22.3152262 C26.0108422,22.1107168 26.0664184,21.951498 26.1775724,21.8375651 C26.2887264,21.7236322 26.4435061,21.6666667 26.641916,21.6666667 C26.8453278,21.6666667 27.0020526,21.7226353 27.1120951,21.8345744 C27.2221376,21.9465134 27.277158,22.1033112 27.277158,22.3049723 C27.277158,22.4513761 27.2531213,22.571431 27.2050472,22.6651408 C27.156973,22.7588506 27.0875028,22.8317665 26.9966344,22.8838908 C26.905766,22.9360151 26.7925296,22.9620768 26.6569217,22.9620768 C26.5190907,22.9620768 26.4050206,22.9395754 26.314708,22.8945719 C26.2243953,22.8495685 26.1511737,22.7783615 26.095041,22.6809489 C26.0389082,22.5835363 26.0108422,22.46163 26.0108422,22.3152262 Z M26.3884861,22.3169352 C26.3884861,22.4434007 26.4114113,22.5342608 26.4572623,22.5895182 C26.5031133,22.6447757 26.5654976,22.672404 26.6444169,22.672404 C26.7255593,22.672404 26.7883604,22.6453453 26.832822,22.5912272 C26.8772836,22.5371091 26.8995141,22.4399828 26.8995141,22.2998454 C26.8995141,22.1819249 26.876311,22.0957644 26.8299042,22.0413615 C26.7834974,21.9869585 26.7205574,21.9597575 26.6410823,21.9597575 C26.5649418,21.9597575 26.503808,21.9873858 26.4576791,22.0426432 C26.4115502,22.0979007 26.3884861,22.1893304 26.3884861,22.3169352 Z M28.3014815,21.688029 L28.6782917,21.688029 L28.6782917,22.4348551 C28.6782917,22.5089115 28.6670376,22.5788367 28.6445289,22.644633 C28.6220202,22.7104292 28.5867293,22.7679644 28.5386552,22.8172404 C28.4905811,22.8665164 28.4401457,22.9011229 28.3873476,22.9210612 C28.3139859,22.9489747 28.2258977,22.9629313 28.1230802,22.9629313 C28.0636128,22.9629313 27.9987276,22.9586589 27.9284227,22.9501139 C27.8581178,22.941569 27.799346,22.9246217 27.7521056,22.8992716 C27.7048651,22.8739216 27.6616546,22.8378909 27.6224728,22.7911784 C27.5832911,22.7444659 27.5564756,22.69633 27.5420255,22.6467692 C27.5186832,22.5670162 27.5070122,22.4963789 27.5070122,22.4348551 L27.5070122,21.688029 L27.8838224,21.688029 L27.8838224,22.4527995 C27.8838224,22.5211592 27.9023015,22.5745644 27.9392602,22.6130168 C27.9762189,22.6514691 28.0274879,22.670695 28.0930688,22.670695 C28.1580939,22.670695 28.209085,22.6517539 28.2460437,22.6138713 C28.2830024,22.5759886 28.3014815,22.5222985 28.3014815,22.4527995 L28.3014815,21.688029 Z M28.9523295,21.688029 L29.5800686,21.688029 C29.716788,21.688029 29.8191871,21.7213538 29.887269,21.7880046 C29.9553508,21.8546553 29.9893912,21.949503 29.9893912,22.0725505 C29.9893912,22.1990159 29.9522941,22.2978512 29.8780988,22.3690592 C29.8039035,22.4402673 29.690667,22.4758708 29.538386,22.4758708 L29.3316406,22.4758708 L29.3316406,22.9407145 L28.9523295,22.9407145 L28.9523295,21.688029 Z M29.3316406,22.2220866 L29.4241759,22.2220866 C29.4969817,22.2220866 29.5481118,22.2091269 29.5775676,22.1832072 C29.6070235,22.1572875 29.6217511,22.124105 29.6217511,22.0836589 C29.6217511,22.044352 29.6089686,22.0110272 29.5834032,21.9836833 C29.5578378,21.9563394 29.5097644,21.9426676 29.4391816,21.9426676 L29.3316406,21.9426676 L29.3316406,22.2220866 Z" id="THE-AIR-MANAGEMENT-G" fill="#004876"></path>
                    <g id="Group-24" transform="translate(1.097561, 0.000000)">
                        <path d="M8.86314151,10.4967448 L13.1371043,10.4967448 C13.8494349,10.4967448 14.3962749,10.721351 14.7776407,11.1705702 C15.1590064,11.6197894 15.4252871,12.0312417 15.4252871,12.6943748 C15.4252871,13.2505509 15.3607739,13.7472649 15.0886098,14.1451448 C14.9071671,14.410398 14.6944798,14.5920034 14.4703176,14.7324041 C15.0012055,14.8949787 15.2698543,15.2574655 15.5201781,15.6532062 C15.7705018,16.0489469 15.7737106,16.6296226 15.7737106,17.2285815 C15.7737106,17.7163052 15.6033698,18.1548221 15.4252871,18.5441454 C15.2472045,18.9334687 15.0036045,19.2415 14.6944798,19.4682488 C14.502957,19.6094319 14.213997,19.7121091 13.8275912,19.7762832 C13.3135034,19.8618488 12.9724634,19.9046309 12.8044609,19.9046309 L8.86314151,19.9046309 L8.86314151,10.4967448 Z M11.1664445,14.2284077 L12.1593345,14.2284077 C12.5154998,14.2284077 12.7632998,14.1503303 12.9027419,13.9941732 C13.042184,13.838016 13.111904,13.7790069 13.111904,13.4838058 C13.111904,13.209996 13.042184,13.0794186 12.9027419,12.9254006 C12.7632998,12.7713826 12.5205398,12.6943748 12.1744546,12.6943748 L11.1664445,12.6943748 L11.1664445,14.2284077 Z M11.1664445,17.7164881 L12.3306962,17.7164881 C12.7238221,17.7164881 13.0010221,17.6277151 13.1623045,17.4501666 C13.3235869,17.2726181 13.4042269,17.117441 13.4042269,16.8179615 C13.4042269,16.5398734 13.3244269,16.3996701 13.1648245,16.2306781 C13.0052221,16.0616862 12.7255021,15.9771914 12.3256561,15.9771914 L11.1664445,15.9771914 L11.1664445,17.7164881 Z" id="B" fill="#004876"></path>
                        <path d="M2.41782948,10.4378957 C2.71921886,10.9247664 3.20656674,11.1961053 3.87987313,11.2519122 C4.55317952,11.3077191 5.21684649,11.0363803 5.87087403,10.4378957 L8.52539658,19.8457818 L5.68167009,19.8457818 L5.30185531,17.8769492 L3.06536616,17.8769492 L2.61046634,19.8457818 L2.98293593e-05,19.8457818 L2.41782948,10.4378957 Z M4.05036497,12.6256639 L3.2594765,15.5086261 L4.94093011,15.5086261 L4.05036497,12.6256639 Z" id="Combined-Shape" fill="#004876"></path>
                        <polygon id="Path-3" fill="#004876" points="16.5302345 10.4998592 16.5302345 19.8625834 18.7536528 19.8625834 18.7536528 13.2422021 20.2329353 19.8625834 23.8283552 19.8625834 23.8283552 10.4444247 21.6853074 10.4444247 21.6853074 17.0197019 20.2329353 10.4444247"></polygon>
                        <path d="M12.580425,0.00224183974 C13.1944661,0.505481948 13.497721,1.1671694 13.4901897,1.9873042 C13.4826584,2.80743901 13.3254044,3.47323055 13.0184279,3.98467885 C15.5683085,3.98467885 17.7687435,4.41761192 19.6197329,5.28347805 C22.2624211,6.51968955 24.1192876,7.86325441 25.5955512,10.8489228 C26.6028418,12.8861169 27.0072929,15.5728817 26.8089045,18.909217 C27.9900315,15.3493062 28.0621254,12.0867957 27.0251862,9.12168547 C25.3390717,4.30026917 21.8386607,2.38290956 19.6197329,1.25926723 C18.1404476,0.510172341 15.7940117,0.0911638783 12.580425,0.00224183974 Z" id="Path-6" fill="#03ADEE"></path>
                        <ellipse id="Oval" fill="#004876" cx="10.0609756" cy="2.6875" rx="1.72764228" ry="1.77083333"></ellipse>
                        <ellipse id="Oval-Copy" fill="#004876" cx="6.38211382" cy="5.08333333" rx="1.2195122" ry="1.25"></ellipse>
                        <ellipse id="Oval-Copy-2" fill="#004876" cx="4.06504065" cy="8.04166667" rx="1" ry="1"></ellipse>
                    </g>
                </g>
            </g>
        </g>
    </g>
</svg>