<?xml version="1.0" encoding="utf-8"?>
<!-- Generator: Adobe Illustrator 22.1.0, SVG Export Plug-In . SVG Version: 6.00 Build 0)  -->
<svg version="1.1" id="Слой_1" xmlns="http://www.w3.org/2000/svg" xmlns:xlink="http://www.w3.org/1999/xlink" x="0px" y="0px"
	 width="113.327px" height="23px" viewBox="0 0 113.327 23" style="enable-background:new 0 0 113.327 23;" xml:space="preserve">
<style type="text/css">
	.st0{fill:none;}
	.st1{fill:#ABE7FF;}
	.st2{fill:#005AAD;}
</style>
<g>
	<path class="st0" d="M18.195,9.675c2.726,0,4.943-2.218,4.943-4.943c0-0.452-0.062-0.89-0.177-1.307h-9.533
		c-0.114,0.417-0.177,0.855-0.177,1.307C13.252,7.458,15.469,9.675,18.195,9.675z"/>
	<g>
		<path class="st1" d="M21.124,5.657h-7.125c0.465,1.885,2.17,3.287,4.196,3.287s3.731-1.402,4.196-3.287h-1.14H21.124z"/>
		<g>
			<path class="st2" d="M36.379,2.242c0,0-0.337,0.649-2.265,0.649c-1.929,0-6.366-0.184-9.287,0.139
				c-1.443,0.159-1.865,0.395-1.865,0.395l0.117,0.55c0.037,0.247,0.06,0.499,0.06,0.756c0,2.726-2.217,4.943-4.943,4.943
				c-2.725,0-4.943-2.217-4.943-4.943c0-0.258,0.022-0.509,0.061-0.756l0.115-0.55c0,0-0.421-0.237-1.863-0.395
				c-2.923-0.324-7.36-0.139-9.287-0.139S0.011,2.242,0.011,2.242c-0.13-0.018,0.917,1.769,2.304,2.162
				c2.939,0.834,6.684,0.274,7.433,0.219c0.479-0.036,2.163-0.064,2.985-0.076c-0.002,0.061-0.006,0.124-0.006,0.186
				c0,0.208,0.013,0.412,0.036,0.613c-0.226,0.003-1.529,0.022-2.696,0.238C9.364,5.711,8.831,5.795,7.221,5.831
				c-2.795,0.063-3.694-0.31-3.754-0.334C3.525,5.563,4.488,6.61,5.673,6.73c2.289,0.234,4.642-0.154,5.093-0.286
				c0.605-0.178,0.743-0.178,1.001-0.198c0.292-0.021,0.975-0.025,1.168-0.027c0.058,0.205,0.127,0.404,0.208,0.599
				c-0.635-0.037-1.532,0.303-1.532,0.303s-0.346,0.337-1.3,0.337c-0.956,0-2.075-0.187-2.033-0.157
				c1.964,1.423,4.498,0.403,5.141,0.085c0.933,1.676,2.725,2.813,4.776,2.813c2.052,0,3.842-1.137,4.777-2.813
				c0.643,0.318,3.177,1.338,5.14-0.085c0.042-0.03-1.076,0.157-2.031,0.157c-0.954,0-1.302-0.337-1.302-0.337
				s-0.896-0.34-1.531-0.303c0.081-0.195,0.15-0.394,0.208-0.599c0.193,0.001,0.876,0.006,1.167,0.027
				c0.259,0.019,0.397,0.019,1.002,0.198c0.449,0.132,2.803,0.52,5.093,0.286c1.185-0.12,2.148-1.167,2.207-1.233
				c-0.06,0.024-0.96,0.397-3.754,0.334c-1.61-0.036-2.145-0.12-2.846-0.249c-1.168-0.216-2.472-0.235-2.696-0.238
				c0.022-0.201,0.034-0.404,0.034-0.613c0-0.061-0.003-0.124-0.006-0.186c0.824,0.012,2.508,0.04,2.985,0.076
				c0.749,0.055,4.494,0.616,7.434-0.219C35.462,4.011,36.51,2.224,36.379,2.242z"/>
			<path class="st2" d="M15.65,6.464c0.126-0.138,0.235-0.251,0.451-0.251c0.217,0,0.325,0.113,0.451,0.251
				c0.135,0.146,0.289,0.308,0.596,0.308c0.307,0,0.46-0.162,0.596-0.308c0.126-0.138,0.235-0.251,0.451-0.251
				s0.325,0.113,0.451,0.251c0.135,0.146,0.289,0.308,0.596,0.308c0.307,0,0.46-0.162,0.596-0.308
				c0.126-0.138,0.235-0.251,0.451-0.251c0.217,0,0.325,0.113,0.451,0.251c0.135,0.146,0.289,0.308,0.596,0.308
				c0.054,0,0.09-0.032,0.09-0.081c0-0.049-0.036-0.081-0.09-0.081c-0.217,0-0.325-0.113-0.451-0.251
				c-0.135-0.146-0.289-0.308-0.596-0.308c-0.307,0-0.46,0.162-0.596,0.308c-0.126,0.138-0.235,0.251-0.451,0.251
				c-0.217,0-0.325-0.113-0.451-0.251c-0.135-0.146-0.289-0.308-0.596-0.308s-0.46,0.162-0.596,0.308
				c-0.126,0.138-0.235,0.251-0.451,0.251c-0.217,0-0.325-0.113-0.451-0.251c-0.135-0.146-0.289-0.308-0.596-0.308
				c-0.307,0-0.46,0.162-0.596,0.308c-0.126,0.138-0.235,0.251-0.451,0.251c-0.054,0-0.09,0.032-0.09,0.081
				c0,0.049,0.036,0.081,0.09,0.081C15.361,6.771,15.515,6.609,15.65,6.464z"/>
			<path class="st2" d="M15.65,6.956c0.126-0.138,0.235-0.251,0.451-0.251c0.217,0,0.325,0.113,0.451,0.251
				c0.135,0.146,0.289,0.308,0.596,0.308c0.307,0,0.46-0.162,0.596-0.308c0.126-0.138,0.235-0.251,0.451-0.251
				s0.325,0.113,0.451,0.251c0.135,0.146,0.289,0.308,0.596,0.308c0.307,0,0.46-0.162,0.596-0.308
				c0.126-0.138,0.235-0.251,0.451-0.251c0.217,0,0.325,0.113,0.451,0.251c0.11,0.119,0.234,0.247,0.441,0.29
				c0.049-0.047,0.098-0.096,0.144-0.145c-0.209-0.004-0.317-0.115-0.441-0.25c-0.135-0.146-0.289-0.308-0.596-0.308
				c-0.307,0-0.46,0.162-0.596,0.308c-0.126,0.138-0.235,0.251-0.451,0.251c-0.217,0-0.325-0.113-0.451-0.251
				c-0.135-0.146-0.289-0.308-0.596-0.308s-0.46,0.162-0.596,0.308c-0.126,0.138-0.235,0.251-0.451,0.251
				c-0.217,0-0.325-0.113-0.451-0.251c-0.135-0.146-0.289-0.308-0.596-0.308c-0.307,0-0.46,0.162-0.596,0.308
				c-0.101,0.11-0.191,0.203-0.333,0.237c0.042,0.045,0.085,0.089,0.129,0.132C15.455,7.162,15.557,7.056,15.65,6.956z"/>
			<path class="st2" d="M20.289,7.081c-0.307,0-0.46,0.162-0.596,0.308c-0.126,0.138-0.235,0.251-0.451,0.251
				c-0.217,0-0.325-0.113-0.451-0.251c-0.135-0.146-0.289-0.308-0.596-0.308s-0.46,0.162-0.596,0.308
				c-0.126,0.138-0.235,0.251-0.451,0.251c-0.217,0-0.325-0.113-0.451-0.251c-0.135-0.146-0.289-0.308-0.596-0.308
				c-0.307,0-0.46,0.162-0.596,0.308c-0.003,0.003-0.006,0.006-0.009,0.009c0.045,0.038,0.091,0.076,0.138,0.112
				c0.005-0.005,0.01-0.011,0.015-0.016c0.126-0.138,0.235-0.251,0.451-0.251c0.217,0,0.325,0.113,0.451,0.251
				c0.135,0.146,0.289,0.308,0.596,0.308c0.307,0,0.46-0.162,0.596-0.308c0.126-0.138,0.235-0.251,0.451-0.251
				s0.325,0.113,0.451,0.251c0.135,0.146,0.289,0.308,0.596,0.308c0.307,0,0.46-0.162,0.596-0.308
				c0.126-0.138,0.235-0.251,0.451-0.251c0.217,0,0.325,0.113,0.451,0.251c0.022,0.023,0.044,0.047,0.067,0.07
				c0.048-0.035,0.094-0.072,0.14-0.109c-0.021-0.021-0.042-0.043-0.063-0.066C20.749,7.243,20.596,7.081,20.289,7.081z"/>
			<path class="st2" d="M19.693,7.937c-0.126,0.138-0.234,0.251-0.451,0.251c-0.216,0-0.325-0.113-0.451-0.251
				c-0.135-0.145-0.289-0.308-0.596-0.308s-0.46,0.163-0.595,0.308c-0.127,0.138-0.235,0.251-0.452,0.251
				c-0.216,0-0.325-0.113-0.451-0.251c-0.135-0.145-0.289-0.308-0.596-0.308c-0.094,0-0.174,0.017-0.243,0.043
				c0.063,0.043,0.129,0.083,0.195,0.122c0.016-0.001,0.031-0.003,0.048-0.003c0.217,0,0.325,0.113,0.452,0.251
				c0.001,0.001,0.003,0.004,0.006,0.005c0.133,0.145,0.288,0.302,0.589,0.302c0.099,0,0.181-0.019,0.253-0.046
				c0.15-0.059,0.252-0.164,0.343-0.262c0.126-0.138,0.235-0.251,0.451-0.251c0.217,0,0.325,0.113,0.452,0.251
				c0.099,0.107,0.21,0.223,0.383,0.277c0.061,0.019,0.13,0.031,0.211,0.031c0.25,0,0.397-0.107,0.517-0.226
				c0.027-0.027,0.054-0.055,0.079-0.082c0.126-0.138,0.235-0.251,0.451-0.251c0.054,0,0.1,0.007,0.142,0.019
				c0.058-0.034,0.117-0.07,0.174-0.107c-0.085-0.044-0.186-0.074-0.316-0.074C19.982,7.629,19.829,7.792,19.693,7.937z"/>
			<path class="st2" d="M18.195,9.244c2.549,0,4.622-2.073,4.622-4.622S20.744,0,18.195,0s-4.622,2.073-4.622,4.622
				S15.647,9.244,18.195,9.244z M13.873,4.622c0-2.383,1.939-4.322,4.322-4.322s4.322,1.939,4.322,4.322
				c0,0.294-0.03,0.582-0.086,0.86h-1.234l-0.644-2.06l-0.01-0.517l0.44-0.001l-1.716-1.716v-0.35h-0.275V1.2l-1.673,1.71
				l0.451-0.001v0.375h-3.271v2.197h-0.539C13.903,5.204,13.873,4.916,13.873,4.622z M14.67,4.949V4.515h1.095v0.434H14.67z
				 M15.246,5.06v0.434h-0.615V5.06H15.246z M20.422,3.285h-0.624V2.973h0.624V3.285z M20.43,3.97v0.434h-0.642V3.97H20.43z
				 M20.159,3.425v0.434h-0.87V3.425H20.159z M19.566,3.97v0.434h-0.87V3.97H19.566z M19.52,3.285h-0.74V2.973h0.74V3.285z
				 M19.065,3.425v0.434h-0.87V3.425H19.065z M18.472,3.97v0.434h-0.87V3.97H18.472z M18.505,3.285h-0.624V2.973h0.624V3.285z
				 M17.972,3.425v0.434h-0.87V3.425H17.972z M17.379,3.97v0.434h-0.87V3.97H17.379z M16.878,3.859h-0.87V3.425h0.87V3.859z
				 M16.285,3.97v0.434h-0.87V3.97H16.285z M15.785,3.859h-0.737V3.425h0.737V3.859z M15.246,3.97v0.434h-0.434V3.97H15.246z
				 M15.415,5.06h0.87v0.434h-0.87V5.06z M15.989,4.949V4.515h0.87v0.434H15.989z M16.508,5.06h0.87v0.434h-0.87V5.06z
				 M17.083,4.949V4.515h0.87v0.434H17.083z M17.602,5.06h0.87v0.434h-0.87V5.06z M18.176,4.949V4.515h0.87v0.434H18.176z
				 M18.695,5.06h0.87v0.434h-0.87V5.06z M19.27,4.949V4.515h0.889v0.434H19.27z M19.789,5.06h0.888v0.434h-0.888V5.06z
				 M21.124,5.657h0.128h1.14c-0.465,1.885-2.17,3.287-4.196,3.287s-3.731-1.402-4.196-3.287H21.124z"/>
		</g>
	</g>
	<rect x="0.2" y="11.549" class="st2" width="2.265" height="0.019"/>
	<g>
		<polygon class="st2" points="8.849,11.568 0.2,11.568 0.2,22.878 2.465,22.878 2.465,13.833 8.849,13.833 8.849,22.878 
			11.115,22.878 11.115,11.549 8.849,11.549 		"/>
		<polygon class="st2" points="36.112,11.549 33.473,11.549 30.608,15.93 26.956,15.93 26.956,11.549 24.691,11.549 24.691,22.878 
			26.956,22.878 26.956,18.028 30.589,18.028 33.473,22.878 36.112,22.878 32.481,16.811 		"/>
		<path class="st2" d="M41.899,11.427c-3.44,0-6.228,2.591-6.228,5.787c0,3.196,2.788,5.787,6.228,5.787
			c3.44,0,6.228-2.591,6.228-5.787C48.127,14.018,45.338,11.427,41.899,11.427z M41.899,21.033c-2.271,0-4.111-1.71-4.111-3.82
			c0-2.11,1.841-3.82,4.111-3.82c2.271,0,4.111,1.71,4.111,3.82C46.01,19.323,44.169,21.033,41.899,21.033z"/>
		<path class="st2" d="M18.249,21.033c-2.271,0-4.111-1.71-4.111-3.82c0-2.11,1.841-3.82,4.111-3.82
			c1.491,0,2.797,0.738,3.518,1.842c0.624-0.317,1.264-0.641,1.859-0.942c-1.081-1.714-3.083-2.866-5.376-2.866
			c-3.44,0-6.228,2.591-6.228,5.787c0,3.196,2.788,5.787,6.228,5.787c2.356,0,4.406-1.216,5.464-3.008l-1.838-0.978
			C21.183,20.215,19.819,21.033,18.249,21.033z"/>
		<path class="st2" d="M58.9,16.548c0,0,1.629-0.693,0.768-2.884c-0.861-2.191-3.626-2.135-3.626-2.135h-6.841l0.025,11.366
			c0,0,6.36,0,8.008,0s3.427-1.685,3.427-3.726S58.9,16.548,58.9,16.548z M51.542,13.665l5.496-0.019c0,0,0.543,0.206,0.543,1.152
			s-0.543,1.133-0.543,1.133h-5.496V13.665z M57.693,20.686h-6.152v-2.656l6.152-0.022c0,0,0.608,0.241,0.608,1.35
			S57.693,20.686,57.693,20.686z"/>
		<path class="st2" d="M84.666,16.548c0,0,1.629-0.693,0.768-2.884c-0.861-2.191-3.626-2.135-3.626-2.135h-6.841l0.025,11.366
			c0,0,6.36,0,8.008,0c1.648,0,3.427-1.685,3.427-3.726S84.666,16.548,84.666,16.548z M77.307,13.665l5.496-0.019
			c0,0,0.543,0.206,0.543,1.152s-0.543,1.133-0.543,1.133h-5.496V13.665z M83.458,20.686h-6.152v-2.656l6.152-0.022
			c0,0,0.608,0.241,0.608,1.35S83.458,20.686,83.458,20.686z"/>
		<path class="st2" d="M65.44,11.53l-4.892,11.366h2.518l0.77-1.798l7.27,0.003l0.763,1.795h2.461L69.471,11.53H65.44z
			 M64.668,19.151l2.347-5.493h0.886l2.359,5.48L64.668,19.151z"/>
		<path class="st2" d="M108.468,11.53h-4.031l-4.892,11.366h2.518l0.77-1.798l7.27,0.003l0.763,1.795h2.461L108.468,11.53z
			 M103.665,19.151l2.347-5.493h0.886l2.359,5.48L103.665,19.151z"/>
		<polygon class="st2" points="89.422,19.348 89.422,11.53 87.125,11.53 86.95,22.871 89.297,22.871 96.337,14.832 96.337,22.896 
			98.709,22.896 98.709,11.53 96.537,11.53 		"/>
	</g>
</g>
</svg>
